<svg xmlns="http://www.w3.org/2000/svg" version="1.1" width="3300" height="2000"><g id="Notes"><style>
    text {
      font-family: monospace;
      text-anchor: middle;
    }
    text.emphasis {
      font-weight:bold;
    }
    text.lanchor {
      text-anchor: start;
    }
  </style><rect height="2200" id="artboard" fill="white" width="3300" x="0" y="0"/><line id="" style="fill:none;stroke:black;stroke-width:0.5;" x1="263" x2="3036" y1="292" y2="292"/><text class="lanchor emphasis" transform="matrix(1 0 0 1 263 322)">Weight/Scale Variations</text><text transform="matrix(1 0 0 1 559.711 322)">Ultralight</text><text transform="matrix(1 0 0 1 856.422 322)">Thin</text><text transform="matrix(1 0 0 1 1153.13 322)">Light</text><text transform="matrix(1 0 0 1 1449.84 322)">Regular</text><text transform="matrix(1 0 0 1 1746.56 322)">Medium</text><text transform="matrix(1 0 0 1 2043.27 322)">Semibold</text><text transform="matrix(1 0 0 1 2339.98 322)">Bold</text><text transform="matrix(1 0 0 1 2636.69 322)">Heavy</text><text transform="matrix(1 0 0 1 2933.4 322)">Black</text><text id="template-version" style="text-anchor: end;" transform="matrix(1 0 0 1 3036 1933)">Template v.1.0</text><text class="lanchor" transform="matrix(1 0 0 1 263 726)">Small</text><text class="lanchor" transform="matrix(1 0 0 1 263 1156)">Medium</text><text class="lanchor" transform="matrix(1 0 0 1 263 1586)">Large</text></g><g id="Guides"><g id="H-reference" style="fill:#27AAE1;stroke:none;" transform="matrix(1 0 0 1 339 696)"><path d="M 54.9316 0 L 57.666 0 L 30.5664 -70.459 L 28.0762 -70.459 L 0.976562 0 L 3.66211 0 L 12.9395 -24.4629 L 45.7031 -24.4629 Z M 29.1992 -67.0898 L 29.4434 -67.0898 L 44.8242 -26.709 L 13.8184 -26.709 Z"/></g><line id="Baseline-S" style="fill:none;stroke:#27AAE1;opacity:1;stroke-width:0.577;" x1="263" x2="3036" y1="696" y2="696"/><line id="Capline-S" style="fill:none;stroke:#27AAE1;opacity:1;stroke-width:0.577;" x1="263" x2="3036" y1="625.541" y2="625.541"/><g id="H-reference" style="fill:#27AAE1;stroke:none;" transform="matrix(1 0 0 1 339 1126)"><path d="M 54.9316 0 L 57.666 0 L 30.5664 -70.459 L 28.0762 -70.459 L 0.976562 0 L 3.66211 0 L 12.9395 -24.4629 L 45.7031 -24.4629 Z M 29.1992 -67.0898 L 29.4434 -67.0898 L 44.8242 -26.709 L 13.8184 -26.709 Z"/></g><line id="Baseline-M" style="fill:none;stroke:#27AAE1;opacity:1;stroke-width:0.577;" x1="263" x2="3036" y1="1126" y2="1126"/><line id="Capline-M" style="fill:none;stroke:#27AAE1;opacity:1;stroke-width:0.577;" x1="263" x2="3036" y1="1055.54" y2="1055.54"/><g id="H-reference" style="fill:#27AAE1;stroke:none;" transform="matrix(1 0 0 1 339 1556)"><path d="M 54.9316 0 L 57.666 0 L 30.5664 -70.459 L 28.0762 -70.459 L 0.976562 0 L 3.66211 0 L 12.9395 -24.4629 L 45.7031 -24.4629 Z M 29.1992 -67.0898 L 29.4434 -67.0898 L 44.8242 -26.709 L 13.8184 -26.709 Z"/></g><line id="Baseline-L" style="fill:none;stroke:#27AAE1;opacity:1;stroke-width:0.577;" x1="263" x2="3036" y1="1556" y2="1556"/><line id="Capline-L" style="fill:none;stroke:#27AAE1;opacity:1;stroke-width:0.577;" x1="263" x2="3036" y1="1485.54" y2="1485.54"/><rect height="119.336" id="left-margin" style="fill:darkred;stroke:none;opacity:0.4;" width="12.4512" x="1394.06" y="1030.79"/><rect height="119.336" id="right-margin" style="fill:darkgreen;stroke:none;opacity:0.4;" width="12.4512" x="1502.5112" y="1030.79"/><rect x="1406.5112" y="1045" width="96" height="96" fill="none" stroke="blue" stroke-dasharray="5"/><rect x="1394.06" y="1030.79" width="120.9024" height="119.336" fill="none" stroke="blue"/></g><g id="Symbols"><g id="Bold-L" transform="matrix(1 0 0 1 2266 1556)"><path d="M109.489 39.751 Q91.59 39.751 79.093 27.335 Q66.596 14.919 66.596 -2.98 Q66.596 -20.879 79.093 -33.376 Q91.59 -45.872 109.489 -45.872 Q127.388 -45.872 139.965 -33.376 Q152.543 -20.879 152.543 -2.98 Q152.543 1.213 151.736 5.244 Q150.93 9.275 149.479 12.984 L136.095 -0.722 Q136.579 -2.012 136.821 -3.464 Q137.062 -4.915 137.062 -6.205 Q135.773 -16.847 128.032 -23.781 Q120.293 -30.715 109.328 -30.715 Q97.879 -30.715 89.816 -22.733 Q81.754 -14.751 81.754 -2.98 Q81.754 7.824 88.768 15.564 Q95.782 23.304 106.264 24.433 Q107.554 24.433 109.086 24.191 Q110.618 23.949 111.907 23.626 L125.13 36.849 Q121.421 38.3 117.551 39.026 Q113.681 39.751 109.489 39.751 Z M99.249 -13.381 Q103.523 -17.654 109.65 -17.654 Q115.778 -17.654 119.97 -13.381 Q124.163 -9.107 124.163 -2.98 Q124.163 -2.819 123.84 0.245 L145.77 22.498 L135.127 33.14 L113.036 11.21 Q111.907 11.533 109.65 11.694 Q103.523 11.694 99.249 7.421 Q94.976 3.148 94.976 -2.98 Q94.976 -9.107 99.249 -13.381 Z M21.769 -42.164 V-83.282 L77.4 -104.084 L133.192 -83.282 V-50.065 Q127.549 -52.645 121.583 -54.096 Q115.616 -55.547 109.489 -55.547 Q88.204 -55.547 73.046 -40.793 Q57.889 -26.039 57.083 -4.915 Q57.083 4.76 60.227 13.629 Q63.371 22.498 68.854 30.238 Q47.891 21.853 34.83 1.616 Q21.769 -18.621 21.769 -42.164 Z"/></g><g id="Semibold-L" transform="matrix(1 0 0 1 1970.27 1556)"><path d="M109.558 37.998 Q92.432 37.998 80.425 26.072 Q68.418 14.148 68.418 -2.98 Q68.418 -20.108 80.425 -32.079 Q92.432 -44.05 109.558 -44.05 Q126.686 -44.05 138.702 -32.079 Q150.72 -20.108 150.72 -2.98 Q150.72 1.143 149.914 5.068 Q149.108 8.994 147.657 12.634 L136.796 1.591 Q137.28 0.09 137.522 -1.571 Q137.764 -3.233 137.764 -4.802 Q137.035 -16.077 128.944 -23.676 Q120.854 -31.276 109.397 -31.276 Q97.669 -31.276 89.431 -23.083 Q81.193 -14.892 81.193 -2.98 Q81.193 8.385 88.837 16.439 Q96.484 24.495 107.667 25.134 Q109.236 25.134 110.979 24.892 Q112.72 24.65 114.221 24.257 L124.99 35.027 Q121.352 36.478 117.516 37.237 Q113.681 37.998 109.558 37.998 Z M100.196 -12.434 Q104.084 -16.322 109.65 -16.322 Q115.216 -16.322 119.059 -12.434 Q122.9 -8.546 122.9 -2.98 Q122.9 -2.609 122.437 0.595 L143.667 22.077 L134.637 30.966 L113.317 9.807 Q112.328 10.13 109.65 10.362 Q104.084 10.362 100.196 6.474 Q96.308 2.586 96.308 -2.98 Q96.308 -8.546 100.196 -12.434 Z M23.522 -42.164 V-82.091 L77.4 -102.262 L131.37 -82.091 V-48.873 Q126.146 -51.173 120.671 -52.448 Q115.195 -53.725 109.558 -53.725 Q88.765 -53.725 74.028 -39.252 Q59.292 -24.776 58.835 -4.073 Q58.835 5.041 61.839 13.419 Q64.843 21.796 70.186 28.975 Q49.504 21.011 36.512 1.09 Q23.522 -18.831 23.522 -42.164 Z"/></g><g id="Medium-L" transform="matrix(1 0 0 1 1674.31 1556)"><path d="M109.611 36.684 Q93.062 36.684 81.425 25.126 Q69.786 13.569 69.786 -2.98 Q69.786 -19.529 81.425 -31.105 Q93.062 -42.683 109.611 -42.683 Q126.16 -42.683 137.756 -31.105 Q149.353 -19.529 149.353 -2.98 Q149.353 1.09 148.547 4.937 Q147.74 8.785 146.289 12.371 L137.322 3.326 Q137.806 1.669 138.048 -0.152 Q138.29 -1.971 138.29 -3.751 Q137.982 -15.498 129.627 -23.597 Q121.275 -31.697 109.45 -31.697 Q97.511 -31.697 89.142 -23.346 Q80.772 -14.996 80.772 -2.98 Q80.772 8.806 88.891 17.097 Q97.01 25.389 108.718 25.66 Q110.498 25.66 112.398 25.418 Q114.299 25.176 115.956 24.731 L124.885 33.659 Q121.299 35.11 117.49 35.897 Q113.681 36.684 109.611 36.684 Z M100.905 -11.725 Q104.505 -15.322 109.65 -15.322 Q114.795 -15.322 118.375 -11.725 Q121.953 -8.125 121.953 -2.98 Q121.953 -2.451 121.386 0.858 L142.089 21.761 L134.268 29.336 L113.526 8.756 Q112.644 9.078 109.65 9.362 Q104.505 9.362 100.905 5.765 Q97.308 2.165 97.308 -2.98 Q97.308 -8.125 100.905 -11.725 Z M24.836 -42.164 V-81.198 L77.4 -100.894 L130.003 -81.198 V-47.98 Q125.095 -50.068 119.988 -51.213 Q114.879 -52.358 109.611 -52.358 Q89.186 -52.358 74.764 -38.094 Q60.343 -23.83 60.149 -3.443 Q60.149 5.25 63.049 13.261 Q65.948 21.27 71.185 28.028 Q50.713 20.38 37.774 0.695 Q24.836 -18.989 24.836 -42.164 Z"/></g><g id="Regular-L" transform="matrix(1 0 0 1 1378.56 1556)"><path d="M109.65 35.72 Q93.525 35.72 82.157 24.433 Q70.789 13.145 70.789 -2.98 Q70.789 -19.105 82.157 -30.392 Q93.525 -41.68 109.65 -41.68 Q125.775 -41.68 137.062 -30.392 Q148.35 -19.105 148.35 -2.98 Q148.35 1.051 147.544 4.841 Q146.738 8.63 145.286 12.178 L137.708 4.599 Q138.191 2.825 138.433 0.89 Q138.675 -1.045 138.675 -2.98 Q138.675 -15.074 130.129 -23.539 Q121.583 -32.005 109.489 -32.005 Q97.395 -32.005 88.929 -23.539 Q80.464 -15.074 80.464 -2.98 Q80.464 9.114 88.929 17.579 Q97.395 26.045 109.489 26.045 Q111.424 26.045 113.439 25.803 Q115.455 25.561 117.229 25.078 L124.808 32.656 Q121.26 34.108 117.471 34.914 Q113.681 35.72 109.65 35.72 Z M101.426 -11.204 Q104.812 -14.59 109.65 -14.59 Q114.487 -14.59 117.874 -11.204 Q121.26 -7.817 121.26 -2.98 Q121.26 -2.335 120.615 1.051 L140.933 21.53 L133.999 28.141 L113.681 7.985 Q112.875 8.308 109.65 8.63 Q104.812 8.63 101.426 5.244 Q98.04 1.858 98.04 -2.98 Q98.04 -7.817 101.426 -11.204 Z M25.8 -42.164 V-80.541 L77.4 -99.891 L129 -80.541 V-47.324 Q124.324 -49.259 119.486 -50.307 Q114.649 -51.355 109.65 -51.355 Q89.494 -51.355 75.304 -37.246 Q61.114 -23.136 61.114 -2.98 Q61.114 5.405 63.936 13.145 Q66.758 20.885 71.918 27.335 Q51.6 19.918 38.7 0.406 Q25.8 -19.105 25.8 -42.164 Z"/></g><g id="Light-L" transform="matrix(1 0 0 1 1082.77 1556)"><path d="M109.65 32.495 Q94.828 32.495 84.451 22.169 Q74.077 11.842 74.077 -2.98 Q74.077 -17.802 84.451 -28.129 Q94.828 -38.455 109.65 -38.455 Q124.411 -38.455 134.768 -28.129 Q145.125 -17.802 145.125 -2.98 Q145.125 0.369 144.504 3.507 Q143.885 6.645 142.743 9.572 L137.025 3.793 Q137.385 2.204 137.596 0.456 Q137.806 -1.293 137.806 -2.98 Q137.806 -14.701 129.54 -22.919 Q121.273 -31.136 109.55 -31.136 Q97.829 -31.136 89.611 -22.919 Q81.394 -14.701 81.394 -2.98 Q81.394 8.741 89.611 16.959 Q97.829 25.176 109.55 25.176 Q111.238 25.176 113.036 24.966 Q114.834 24.755 116.422 24.333 L122.14 30.175 Q119.214 31.255 116.106 31.874 Q112.999 32.495 109.65 32.495 Z M102.542 -10.088 Q105.495 -13.039 109.65 -13.039 Q113.805 -13.039 116.758 -10.088 Q119.709 -7.135 119.709 -2.98 Q119.709 -2.335 118.878 0.99 L137.769 19.979 L132.51 25.04 L113.62 6.248 Q112.875 6.632 109.65 7.079 Q105.495 7.079 102.542 4.128 Q99.591 1.175 99.591 -2.98 Q99.591 -7.135 102.542 -10.088 Z M29.025 -41.854 V-78.247 L77.4 -96.357 L125.775 -78.247 V-47.262 Q121.842 -48.701 117.811 -49.47 Q113.78 -50.239 109.65 -50.239 Q89.99 -50.239 76.141 -36.439 Q62.292 -22.64 62.292 -2.98 Q62.292 4.226 64.463 10.881 Q66.633 17.536 70.739 23.304 Q52.345 15.762 40.685 -2.291 Q29.025 -20.345 29.025 -41.854 Z"/></g><g id="Thin-L" transform="matrix(1 0 0 1 787.282 1556)"><path d="M109.65 29.27 Q96.129 29.27 86.746 19.905 Q77.363 10.541 77.363 -2.98 Q77.363 -16.501 86.746 -25.865 Q96.129 -35.23 109.65 -35.23 Q123.047 -35.23 132.473 -25.865 Q141.9 -16.501 141.9 -2.98 Q141.9 -0.313 141.466 2.174 Q141.032 4.66 140.2 6.968 L136.343 2.986 Q136.579 1.585 136.759 0.022 Q136.938 -1.542 136.938 -2.98 Q136.938 -14.329 128.95 -22.299 Q120.962 -30.268 109.613 -30.268 Q98.263 -30.268 90.294 -22.299 Q82.325 -14.329 82.325 -2.98 Q82.325 8.369 90.294 16.339 Q98.263 24.308 109.613 24.308 Q111.051 24.308 112.633 24.129 Q114.215 23.949 115.616 23.589 L119.473 27.695 Q117.167 28.402 114.742 28.836 Q112.317 29.27 109.65 29.27 Z M103.66 -8.97 Q106.177 -11.489 109.65 -11.489 Q113.123 -11.489 115.64 -8.97 Q118.159 -6.453 118.159 -2.98 Q118.159 -2.335 117.142 0.927 L134.607 18.429 L131.022 21.94 L113.557 4.512 Q112.875 4.958 109.65 5.529 Q106.177 5.529 103.66 3.01 Q101.141 0.493 101.141 -2.98 Q101.141 -6.453 103.66 -8.97 Z M32.25 -41.543 V-75.952 L77.4 -92.82 L122.55 -75.952 V-47.2 Q119.362 -48.143 116.137 -48.633 Q112.912 -49.122 109.65 -49.122 Q90.485 -49.122 76.978 -35.633 Q63.471 -22.145 63.471 -2.98 Q63.471 3.048 64.99 8.617 Q66.509 14.187 69.56 19.273 Q53.088 11.607 42.67 -4.989 Q32.25 -21.585 32.25 -41.543 Z"/></g><g id="Ultralight-L" transform="matrix(1 0 0 1 491.205 1556)"><path d="M109.65 27.335 Q96.911 27.335 88.123 18.547 Q79.335 9.759 79.335 -2.98 Q79.335 -15.719 88.123 -24.507 Q96.911 -33.295 109.65 -33.295 Q122.228 -33.295 131.096 -24.507 Q139.965 -15.719 139.965 -2.98 Q139.965 -0.722 139.643 1.374 Q139.32 3.47 138.675 5.405 L135.934 2.503 Q136.095 1.213 136.256 -0.239 Q136.417 -1.69 136.417 -2.98 Q136.417 -14.106 128.597 -21.927 Q120.776 -29.747 109.65 -29.747 Q98.524 -29.747 90.703 -21.927 Q82.883 -14.106 82.883 -2.98 Q82.883 8.146 90.703 15.967 Q98.524 23.788 109.65 23.788 Q110.94 23.788 112.391 23.626 Q113.843 23.465 115.133 23.143 L117.874 26.206 Q115.939 26.69 113.923 27.013 Q111.907 27.335 109.65 27.335 Z M104.329 -8.301 Q106.586 -10.559 109.65 -10.559 Q112.714 -10.559 114.971 -8.301 Q117.229 -6.044 117.229 -2.98 Q117.229 -2.335 116.1 0.89 L132.709 17.499 L130.129 20.079 L113.52 3.47 Q112.875 3.954 109.65 4.599 Q106.586 4.599 104.329 2.341 Q102.071 0.084 102.071 -2.98 Q102.071 -6.044 104.329 -8.301 Z M34.185 -41.357 V-74.575 L77.4 -90.7 L120.615 -74.575 V-47.162 Q117.874 -47.807 115.133 -48.13 Q112.391 -48.452 109.65 -48.452 Q90.784 -48.452 77.481 -35.149 Q64.177 -21.846 64.177 -2.98 Q64.177 2.341 65.306 7.259 Q66.435 12.178 68.854 16.854 Q53.535 9.114 43.86 -6.608 Q34.185 -22.33 34.185 -41.357 Z"/></g><g id="Bold-M" transform="matrix(1 0 0 1 2281.8 1126)"><path d="M84.875 24.02 Q70.625 24.02 60.625 14.02 Q50.625 4.02 50.625 -10.23 Q50.625 -24.48 60.625 -34.48 Q70.625 -44.48 84.875 -44.48 Q99.25 -44.48 109.25 -34.48 Q119.25 -24.48 119.25 -10.23 Q119.25 -7.23 118.812 -4.355 Q118.375 -1.48 117.375 1.27 L103.25 -13.605 Q103.25 -13.605 103.25 -13.605 Q103.25 -13.605 103.25 -13.605 Q102 -20.23 96.938 -24.542 Q91.875 -28.855 84.875 -28.855 Q77.125 -28.855 71.688 -23.48 Q66.25 -18.105 66.25 -10.23 Q66.25 -3.23 70.625 1.895 Q75 7.02 81.625 8.145 Q81.625 8.145 81.625 8.145 Q81.625 8.145 81.625 8.145 L95.75 22.27 Q93.25 23.145 90.5 23.583 Q87.75 24.02 84.875 24.02 Z M75.688 -19.542 Q79.5 -23.355 85 -23.355 Q90.375 -23.355 94.188 -19.542 Q98 -15.73 98 -10.23 Q98 -10.23 97.875 -8.355 L115 8.77 L104 19.895 L86.875 2.77 Q86.25 2.895 85 2.895 Q79.5 2.895 75.688 -0.917 Q71.875 -4.73 71.875 -10.23 Q71.875 -15.73 75.688 -19.542 Z M15.75 -39.73 V-73.105 L60 -89.605 L104.25 -73.105 V-49.98 Q99.75 -52.105 94.812 -53.292 Q89.875 -54.48 84.875 -54.48 Q67 -54.48 54.312 -42.23 Q41.625 -29.98 40.75 -12.23 Q40.75 -5.105 42.938 1.645 Q45.125 8.395 48.375 14.77 Q33.75 7.145 24.75 -7.73 Q15.75 -22.605 15.75 -39.73 Z"/></g><g id="Semibold-M" transform="matrix(1 0 0 1 1985.97 1126)"><path d="M84.929 22.173 Q71.44 22.173 61.984 12.716 Q52.528 3.259 52.528 -10.23 Q52.528 -23.719 61.984 -33.176 Q71.44 -42.632 84.929 -42.632 Q98.489 -42.632 107.946 -33.176 Q117.403 -23.719 117.403 -10.23 Q117.403 -7.284 116.938 -4.517 Q116.472 -1.751 115.472 0.89 L103.956 -11.214 Q104.011 -11.485 104.011 -11.676 Q104.011 -11.866 104.011 -12.137 Q103.304 -19.469 97.889 -24.461 Q92.472 -29.452 84.929 -29.452 Q76.963 -29.452 71.334 -23.86 Q65.706 -18.267 65.706 -10.23 Q65.706 -2.686 70.734 2.765 Q75.761 8.215 83.093 8.851 Q83.364 8.851 83.554 8.851 Q83.745 8.851 84.016 8.798 L95.641 20.368 Q93.141 21.298 90.446 21.735 Q87.75 22.173 84.929 22.173 Z M76.666 -18.564 Q80.097 -21.996 85 -21.996 Q89.831 -21.996 93.264 -18.564 Q96.696 -15.132 96.696 -10.23 Q96.696 -10.067 96.463 -8.029 L112.826 8.335 L103.511 17.668 L87.201 1.303 Q86.685 1.428 85 1.536 Q80.097 1.536 76.666 -1.896 Q73.234 -5.327 73.234 -10.23 Q73.234 -15.132 76.666 -18.564 Z M17.598 -39.73 V-71.855 L60 -87.702 L102.403 -71.855 V-48.785 Q98.282 -50.584 93.861 -51.607 Q89.44 -52.632 84.929 -52.632 Q67.544 -52.632 55.318 -40.654 Q43.093 -28.676 42.597 -11.36 Q42.597 -4.779 44.568 1.483 Q46.538 7.743 49.788 13.466 Q35.435 6.275 26.516 -8.274 Q17.598 -22.822 17.598 -39.73 Z"/></g><g id="Medium-M" transform="matrix(1 0 0 1 1689.91 1126)"><path d="M84.97 20.786 Q72.051 20.786 63.002 11.738 Q53.954 2.689 53.954 -10.23 Q53.954 -23.149 63.002 -32.197 Q72.051 -41.246 84.97 -41.246 Q97.919 -41.246 106.968 -32.197 Q116.016 -23.149 116.016 -10.23 Q116.016 -7.325 115.531 -4.64 Q115.046 -1.955 114.046 0.604 L104.486 -9.42 Q104.581 -9.896 104.581 -10.229 Q104.581 -10.561 104.581 -11.037 Q104.282 -18.899 98.603 -24.4 Q92.921 -29.901 84.97 -29.901 Q76.84 -29.901 71.069 -24.146 Q65.299 -18.39 65.299 -10.23 Q65.299 -2.279 70.815 3.416 Q76.331 9.113 84.192 9.381 Q84.669 9.381 85.001 9.381 Q85.334 9.381 85.81 9.286 L95.56 18.941 Q93.06 19.911 90.405 20.349 Q87.75 20.786 84.97 20.786 Z M77.4 -17.83 Q80.546 -20.977 85 -20.977 Q89.424 -20.977 92.571 -17.83 Q95.718 -14.684 95.718 -10.23 Q95.718 -9.945 95.403 -7.784 L111.196 8.009 L103.144 15.995 L87.446 0.203 Q87.011 0.328 85 0.518 Q80.546 0.518 77.4 -2.63 Q74.252 -5.776 74.252 -10.23 Q74.252 -14.684 77.4 -17.83 Z M18.984 -39.73 V-70.917 L60 -86.276 L101.016 -70.917 V-47.887 Q97.183 -49.442 93.147 -50.344 Q89.114 -51.246 84.97 -51.246 Q67.951 -51.246 56.072 -39.471 Q44.193 -27.697 43.984 -10.709 Q43.984 -4.534 45.791 1.36 Q47.597 7.254 50.847 12.488 Q36.699 5.624 27.841 -8.681 Q18.984 -22.985 18.984 -39.73 Z"/></g><g id="Regular-M" transform="matrix(1 0 0 1 1394.06 1126)"><path d="M85 19.77 Q72.5 19.77 63.75 11.02 Q55 2.27 55 -10.23 Q55 -22.73 63.75 -31.48 Q72.5 -40.23 85 -40.23 Q97.5 -40.23 106.25 -31.48 Q115 -22.73 115 -10.23 Q115 -7.355 114.5 -4.73 Q114 -2.105 113 0.395 L104.875 -8.105 Q105 -8.73 105 -9.167 Q105 -9.605 105 -10.23 Q105 -18.48 99.125 -24.355 Q93.25 -30.23 85 -30.23 Q76.75 -30.23 70.875 -24.355 Q65 -18.48 65 -10.23 Q65 -1.98 70.875 3.895 Q76.75 9.77 85 9.77 Q85.625 9.77 86.062 9.77 Q86.5 9.77 87.125 9.645 L95.5 17.895 Q93 18.895 90.375 19.333 Q87.75 19.77 85 19.77 Z M77.938 -17.292 Q80.875 -20.23 85 -20.23 Q89.125 -20.23 92.062 -17.292 Q95 -14.355 95 -10.23 Q95 -9.855 94.625 -7.605 L110 7.77 L102.875 14.77 L87.625 -0.605 Q87.25 -0.48 85 -0.23 Q80.875 -0.23 77.938 -3.167 Q75 -6.105 75 -10.23 Q75 -14.355 77.938 -17.292 Z M20 -39.73 V-70.23 L60 -85.23 L100 -70.23 V-47.23 Q96.375 -48.605 92.625 -49.417 Q88.875 -50.23 85 -50.23 Q68.25 -50.23 56.625 -38.605 Q45 -26.98 45 -10.23 Q45 -4.355 46.688 1.27 Q48.375 6.895 51.625 11.77 Q37.625 5.145 28.812 -8.98 Q20 -23.105 20 -39.73 Z"/></g><g id="Light-M" transform="matrix(1 0 0 1 1098.18 1126)"><path d="M85 17.27 Q73.558 17.27 65.529 9.241 Q57.5 1.213 57.5 -10.23 Q57.5 -21.672 65.529 -29.701 Q73.558 -37.73 85 -37.73 Q96.442 -37.73 104.471 -29.701 Q112.5 -21.672 112.5 -10.23 Q112.5 -7.836 112.096 -5.62 Q111.692 -3.404 110.933 -1.336 L104.828 -7.72 Q104.953 -8.394 104.976 -8.975 Q105 -9.557 105 -10.23 Q105 -18.48 99.125 -24.355 Q93.25 -30.23 85 -30.23 Q76.75 -30.23 70.875 -24.355 Q65 -18.48 65 -10.23 Q65 -1.98 70.875 3.895 Q76.75 9.77 85 9.77 Q85.672 9.77 86.255 9.746 Q86.836 9.723 87.51 9.598 L93.769 15.828 Q91.701 16.588 89.51 16.929 Q87.317 17.27 85 17.27 Z M78.995 -16.235 Q81.5 -18.74 85 -18.74 Q88.5 -18.74 91.005 -16.235 Q93.51 -13.73 93.51 -10.23 Q93.51 -9.855 92.99 -7.509 L107.355 6.856 L102.01 12.125 L87.721 -2.24 Q87.346 -2.066 85 -1.72 Q81.5 -1.72 78.995 -4.225 Q76.49 -6.73 76.49 -10.23 Q76.49 -13.73 78.995 -16.235 Z M22.5 -39.73 V-68.499 L60 -82.537 L97.5 -68.499 V-46.461 Q94.451 -47.499 91.326 -48.095 Q88.201 -48.691 85 -48.691 Q68.924 -48.691 57.731 -37.499 Q46.539 -26.306 46.539 -10.23 Q46.539 -5.124 47.865 -0.22 Q49.193 4.684 51.818 9.03 Q38.828 2.549 30.664 -10.711 Q22.5 -23.97 22.5 -39.73 Z"/></g><g id="Thin-M" transform="matrix(1 0 0 1 802.565 1126)"><path d="M85 14.77 Q74.615 14.77 67.308 7.463 Q60 0.155 60 -10.23 Q60 -20.615 67.308 -27.922 Q74.615 -35.23 85 -35.23 Q95.385 -35.23 102.692 -27.922 Q110 -20.615 110 -10.23 Q110 -8.316 109.692 -6.509 Q109.385 -4.701 108.865 -3.066 L104.779 -7.336 Q104.904 -8.057 104.953 -8.782 Q105 -9.509 105 -10.23 Q105 -18.48 99.125 -24.355 Q93.25 -30.23 85 -30.23 Q76.75 -30.23 70.875 -24.355 Q65 -18.48 65 -10.23 Q65 -1.98 70.875 3.895 Q76.75 9.77 85 9.77 Q85.721 9.77 86.448 9.723 Q87.172 9.674 87.894 9.549 L92.039 13.76 Q90.404 14.28 88.644 14.525 Q86.885 14.77 85 14.77 Z M80.052 -15.177 Q82.125 -17.249 85 -17.249 Q87.875 -17.249 89.948 -15.177 Q92.019 -13.105 92.019 -10.23 Q92.019 -9.855 91.356 -7.412 L104.711 5.943 L101.144 9.481 L87.817 -3.874 Q87.442 -3.652 85 -3.211 Q82.125 -3.211 80.052 -5.282 Q77.981 -7.355 77.981 -10.23 Q77.981 -13.105 80.052 -15.177 Z M25 -39.73 V-66.769 L60 -79.845 L95 -66.769 V-45.691 Q92.529 -46.394 90.029 -46.774 Q87.529 -47.152 85 -47.152 Q69.596 -47.152 58.836 -36.394 Q48.078 -25.634 48.078 -10.23 Q48.078 -5.894 49.044 -1.711 Q50.01 2.473 52.01 6.289 Q40.029 -0.047 32.515 -12.441 Q25 -24.836 25 -39.73 Z"/></g><g id="Ultralight-M" transform="matrix(1 0 0 1 506.415 1126)"><path d="M85 13.27 Q75.25 13.27 68.375 6.395 Q61.5 -0.48 61.5 -10.23 Q61.5 -19.98 68.375 -26.855 Q75.25 -33.73 85 -33.73 Q94.75 -33.73 101.625 -26.855 Q108.5 -19.98 108.5 -10.23 Q108.5 -8.605 108.25 -7.042 Q108 -5.48 107.625 -4.105 L104.75 -7.105 Q104.875 -7.855 104.938 -8.667 Q105 -9.48 105 -10.23 Q105 -18.48 99.125 -24.355 Q93.25 -30.23 85 -30.23 Q76.75 -30.23 70.875 -24.355 Q65 -18.48 65 -10.23 Q65 -1.98 70.875 3.895 Q76.75 9.77 85 9.77 Q85.75 9.77 86.562 9.708 Q87.375 9.645 88.125 9.52 L91 12.52 Q89.625 12.895 88.125 13.083 Q86.625 13.27 85 13.27 Z M80.688 -14.542 Q82.5 -16.355 85 -16.355 Q87.5 -16.355 89.312 -14.542 Q91.125 -12.73 91.125 -10.23 Q91.125 -9.855 90.375 -7.355 L103.125 5.395 L100.625 7.895 L87.875 -4.855 Q87.5 -4.605 85 -4.105 Q82.5 -4.105 80.688 -5.917 Q78.875 -7.73 78.875 -10.23 Q78.875 -12.73 80.688 -14.542 Z M26.5 -39.73 V-65.73 L60 -78.23 L93.5 -65.73 V-45.23 Q91.375 -45.73 89.25 -45.98 Q87.125 -46.23 85 -46.23 Q70 -46.23 59.5 -35.73 Q49 -25.23 49 -10.23 Q49 -6.355 49.75 -2.605 Q50.5 1.145 52.125 4.645 Q40.75 -1.605 33.625 -13.48 Q26.5 -25.355 26.5 -39.73 Z"/></g><g id="Bold-S" transform="matrix(1 0 0 1 2294.23 696)"><path d="M66.177 10.729 Q54.934 10.729 47.044 2.839 Q39.154 -5.051 39.154 -16.294 Q39.154 -27.537 47.044 -35.427 Q54.934 -43.317 66.177 -43.317 Q77.519 -43.317 85.409 -35.427 Q93.299 -27.537 93.299 -16.294 Q93.299 -13.532 92.855 -10.87 Q92.412 -8.207 91.327 -5.741 L80.971 -16.393 Q81.168 -16.984 81.316 -17.675 Q81.464 -18.365 81.464 -18.957 Q80.478 -24.578 76.286 -28.178 Q72.095 -31.778 66.177 -31.778 Q59.668 -31.778 55.181 -27.34 Q50.693 -22.902 50.693 -16.294 Q50.693 -10.376 54.342 -6.136 Q57.992 -1.895 63.613 -1.007 Q64.205 -1.007 64.895 -1.155 Q65.586 -1.303 66.177 -1.5 L76.336 8.658 Q74.067 9.644 71.503 10.187 Q68.939 10.729 66.177 10.729 Z M59.471 -23.099 Q62.232 -25.861 66.276 -25.861 Q70.221 -25.861 72.983 -23.099 Q75.744 -20.338 75.744 -16.294 Q75.744 -16.688 75.744 -15.012 L89.157 -1.599 L81.07 6.686 L67.558 -6.727 Q66.769 -6.53 66.276 -6.727 Q62.232 -6.727 59.471 -9.489 Q56.709 -12.25 56.709 -16.294 Q56.709 -20.338 59.471 -23.099 Z M13.216 -38.682 V-63.535 L47.34 -76.554 L81.464 -63.535 V-46.966 Q77.914 -48.742 74.018 -49.58 Q70.122 -50.418 66.177 -50.418 Q52.468 -50.418 42.655 -40.95 Q32.842 -31.482 32.152 -17.872 Q32.152 -12.448 33.779 -7.467 Q35.406 -2.486 37.675 2.445 Q26.727 -3.473 19.972 -14.667 Q13.216 -25.861 13.216 -38.682 Z"/></g><g id="Semibold-S" transform="matrix(1 0 0 1 1998.1 696)"><path d="M66.22 9.272 Q55.577 9.272 48.116 1.811 Q40.655 -5.651 40.655 -16.294 Q40.655 -26.937 48.116 -34.399 Q55.577 -41.86 66.22 -41.86 Q76.919 -41.86 84.381 -34.399 Q91.842 -26.937 91.842 -16.294 Q91.842 -13.575 91.376 -10.998 Q90.911 -8.421 89.826 -6.041 L81.528 -14.506 Q81.769 -15.312 81.917 -16.153 Q82.065 -16.993 82.065 -17.799 Q81.507 -23.978 77.037 -28.114 Q72.566 -32.25 66.22 -32.25 Q59.54 -32.25 54.902 -27.64 Q50.264 -23.03 50.264 -16.294 Q50.264 -9.947 54.428 -5.449 Q58.592 -0.952 64.771 -0.45 Q65.577 -0.45 66.417 -0.598 Q67.258 -0.746 68.064 -0.985 L76.25 7.157 Q73.982 8.187 71.461 8.729 Q68.939 9.272 66.22 9.272 Z M60.243 -22.327 Q62.704 -24.789 66.276 -24.789 Q69.792 -24.789 72.254 -22.327 Q74.715 -19.866 74.715 -16.294 Q74.715 -16.56 74.63 -14.754 L87.442 -1.942 L80.684 4.928 L67.816 -7.885 Q67.112 -7.688 66.276 -7.799 Q62.704 -7.799 60.243 -10.261 Q57.781 -12.722 57.781 -16.294 Q57.781 -19.866 60.243 -22.327 Z M14.673 -38.682 V-62.549 L47.34 -75.053 L80.007 -62.549 V-46.024 Q76.756 -47.541 73.268 -48.25 Q69.779 -48.961 66.22 -48.961 Q52.898 -48.961 43.448 -39.707 Q34 -30.454 33.609 -17.186 Q33.609 -12.19 35.065 -7.595 Q36.521 -3.001 38.789 1.416 Q28.057 -4.159 21.365 -15.096 Q14.673 -26.032 14.673 -38.682 Z"/></g><g id="Medium-S" transform="matrix(1 0 0 1 1701.85 696)"><path d="M66.252 8.178 Q56.059 8.178 48.92 1.038 Q41.781 -6.101 41.781 -16.294 Q41.781 -26.487 48.92 -33.626 Q56.059 -40.766 66.252 -40.766 Q76.469 -40.766 83.608 -33.626 Q90.748 -26.487 90.748 -16.294 Q90.748 -13.607 90.267 -11.094 Q89.785 -8.582 88.7 -6.267 L81.947 -13.091 Q82.219 -14.058 82.367 -15.011 Q82.515 -15.964 82.515 -16.931 Q82.279 -23.528 77.6 -28.066 Q72.92 -32.604 66.252 -32.604 Q59.443 -32.604 54.692 -27.866 Q49.943 -23.127 49.943 -16.294 Q49.943 -9.626 54.492 -4.935 Q59.042 -0.244 65.639 -0.032 Q66.606 -0.032 67.559 -0.18 Q68.512 -0.328 69.479 -0.6 L76.186 6.032 Q73.917 7.093 71.428 7.635 Q68.939 8.178 66.252 8.178 Z M60.822 -21.748 Q63.058 -23.985 66.276 -23.985 Q69.47 -23.985 71.707 -21.748 Q73.943 -19.512 73.943 -16.294 Q73.943 -16.464 73.793 -14.561 L86.156 -2.2 L80.394 3.609 L68.009 -8.753 Q67.37 -8.556 66.276 -8.603 Q63.058 -8.603 60.822 -10.84 Q58.585 -13.076 58.585 -16.294 Q58.585 -19.512 60.822 -21.748 Z M15.767 -38.682 V-61.809 L47.34 -73.927 L78.913 -61.809 V-45.315 Q75.888 -46.641 72.704 -47.253 Q69.522 -47.867 66.252 -47.867 Q53.219 -47.867 44.044 -38.774 Q34.868 -29.681 34.703 -16.672 Q34.703 -11.997 36.031 -7.692 Q37.357 -3.387 39.626 0.644 Q29.054 -4.673 22.411 -15.417 Q15.767 -26.16 15.767 -38.682 Z"/></g><g id="Regular-S" transform="matrix(1 0 0 1 1405.73 696)"><path d="M66.276 7.376 Q56.413 7.376 49.51 0.472 Q42.606 -6.431 42.606 -16.294 Q42.606 -26.156 49.51 -33.06 Q56.413 -39.964 66.276 -39.964 Q76.139 -39.964 83.042 -33.06 Q89.946 -26.156 89.946 -16.294 Q89.946 -13.631 89.453 -11.165 Q88.96 -8.7 87.875 -6.431 L82.253 -12.053 Q82.549 -13.138 82.697 -14.174 Q82.845 -15.209 82.845 -16.294 Q82.845 -23.198 78.012 -28.03 Q73.18 -32.863 66.276 -32.863 Q59.372 -32.863 54.54 -28.03 Q49.707 -23.198 49.707 -16.294 Q49.707 -9.39 54.54 -4.558 Q59.372 0.275 66.276 0.275 Q67.361 0.275 68.396 0.127 Q69.432 -0.021 70.517 -0.317 L76.139 5.206 Q73.87 6.291 71.404 6.834 Q68.939 7.376 66.276 7.376 Z M61.246 -21.324 Q63.317 -23.395 66.276 -23.395 Q69.235 -23.395 71.306 -21.324 Q73.377 -19.253 73.377 -16.294 Q73.377 -16.393 73.18 -14.42 L85.212 -2.388 L80.182 2.642 L68.15 -9.39 Q67.558 -9.193 66.276 -9.193 Q63.317 -9.193 61.246 -11.264 Q59.175 -13.335 59.175 -16.294 Q59.175 -19.253 61.246 -21.324 Z M16.569 -38.682 V-61.267 L47.34 -73.102 L78.111 -61.267 V-44.797 Q75.251 -45.98 72.292 -46.523 Q69.333 -47.065 66.276 -47.065 Q53.455 -47.065 44.48 -38.09 Q35.505 -29.115 35.505 -16.294 Q35.505 -11.856 36.738 -7.763 Q37.971 -3.67 40.239 0.078 Q29.785 -5.051 23.177 -15.653 Q16.569 -26.255 16.569 -38.682 Z"/></g><g id="Light-S" transform="matrix(1 0 0 1 1109.75 696)"><path d="M66.276 5.404 Q57.248 5.404 50.913 -0.931 Q44.579 -7.266 44.579 -16.294 Q44.579 -25.322 50.913 -31.657 Q57.248 -37.991 66.276 -37.991 Q75.304 -37.991 81.639 -31.657 Q87.974 -25.322 87.974 -16.294 Q87.974 -14.011 87.556 -11.868 Q87.139 -9.725 86.244 -7.797 L82.216 -11.749 Q82.512 -12.873 82.678 -14.022 Q82.845 -15.172 82.845 -16.294 Q82.845 -23.198 78.012 -28.03 Q73.18 -32.863 66.276 -32.863 Q59.372 -32.863 54.54 -28.03 Q49.707 -23.198 49.707 -16.294 Q49.707 -9.39 54.54 -4.558 Q59.372 0.275 66.276 0.275 Q67.398 0.275 68.548 0.108 Q69.697 -0.058 70.821 -0.354 L74.773 3.575 Q72.845 4.471 70.722 4.937 Q68.598 5.404 66.276 5.404 Z M62.08 -20.49 Q63.81 -22.219 66.276 -22.219 Q68.742 -22.219 70.472 -20.49 Q72.201 -18.76 72.201 -16.294 Q72.201 -16.393 71.89 -14.344 L83.125 -3.109 L79.5 0.555 L68.226 -10.68 Q67.634 -10.445 66.276 -10.369 Q63.81 -10.369 62.08 -12.098 Q60.351 -13.828 60.351 -16.294 Q60.351 -18.76 62.08 -20.49 Z M18.541 -38.682 V-59.901 L47.34 -70.978 L76.139 -59.901 V-44.19 Q73.733 -45.107 71.267 -45.479 Q68.802 -45.851 66.276 -45.851 Q53.986 -45.851 45.353 -37.217 Q36.719 -28.584 36.719 -16.294 Q36.719 -12.462 37.667 -8.939 Q38.616 -5.415 40.391 -2.084 Q30.734 -7.099 24.638 -17.019 Q18.541 -26.938 18.541 -38.682 Z"/></g><g id="Thin-S" transform="matrix(1 0 0 1 814.015 696)"><path d="M66.276 3.431 Q58.082 3.431 52.317 -2.335 Q46.551 -8.1 46.551 -16.294 Q46.551 -24.488 52.317 -30.253 Q58.082 -36.019 66.276 -36.019 Q74.47 -36.019 80.235 -30.253 Q86.001 -24.488 86.001 -16.294 Q86.001 -14.39 85.66 -12.569 Q85.319 -10.748 84.612 -9.162 L82.177 -11.447 Q82.473 -12.607 82.66 -13.87 Q82.845 -15.133 82.845 -16.294 Q82.845 -23.198 78.012 -28.03 Q73.18 -32.863 66.276 -32.863 Q59.372 -32.863 54.54 -28.03 Q49.707 -23.198 49.707 -16.294 Q49.707 -9.39 54.54 -4.558 Q59.372 0.275 66.276 0.275 Q67.437 0.275 68.7 0.09 Q69.963 -0.097 71.123 -0.393 L73.408 1.944 Q71.822 2.65 70.039 3.04 Q68.256 3.431 66.276 3.431 Z M62.915 -19.655 Q64.303 -21.043 66.276 -21.043 Q68.249 -21.043 69.637 -19.655 Q71.025 -18.266 71.025 -16.294 Q71.025 -16.393 70.601 -14.268 L81.039 -3.83 L78.816 -1.531 L68.302 -11.969 Q67.71 -11.696 66.276 -11.545 Q64.303 -11.545 62.915 -12.933 Q61.527 -14.321 61.527 -16.294 Q61.527 -18.266 62.915 -19.655 Z M20.514 -38.682 V-58.536 L47.34 -68.853 L74.166 -58.536 V-43.583 Q72.216 -44.235 70.244 -44.437 Q68.271 -44.637 66.276 -44.637 Q54.517 -44.637 46.225 -36.345 Q37.933 -28.053 37.933 -16.294 Q37.933 -13.07 38.597 -10.115 Q39.261 -7.159 40.543 -4.247 Q31.681 -9.148 26.098 -18.384 Q20.514 -27.621 20.514 -38.682 Z"/></g><g id="Ultralight-S" transform="matrix(1 0 0 1 517.792 696)"><path d="M66.276 2.248 Q58.583 2.248 53.159 -3.177 Q47.735 -8.601 47.735 -16.294 Q47.735 -23.987 53.159 -29.411 Q58.583 -34.835 66.276 -34.835 Q73.969 -34.835 79.393 -29.411 Q84.818 -23.987 84.818 -16.294 Q84.818 -14.617 84.522 -12.99 Q84.226 -11.363 83.634 -9.982 L82.155 -11.264 Q82.451 -12.448 82.648 -13.779 Q82.845 -15.11 82.845 -16.294 Q82.845 -23.198 78.012 -28.03 Q73.18 -32.863 66.276 -32.863 Q59.372 -32.863 54.54 -28.03 Q49.707 -23.198 49.707 -16.294 Q49.707 -9.39 54.54 -4.558 Q59.372 0.275 66.276 0.275 Q67.46 0.275 68.791 0.078 Q70.122 -0.119 71.306 -0.415 L72.588 0.965 Q71.207 1.557 69.629 1.902 Q68.051 2.248 66.276 2.248 Z M63.416 -19.154 Q64.599 -20.338 66.276 -20.338 Q67.953 -20.338 69.136 -19.154 Q70.32 -17.971 70.32 -16.294 Q70.32 -16.393 69.827 -14.223 L79.788 -4.262 L78.407 -2.782 L68.347 -12.743 Q67.755 -12.448 66.276 -12.25 Q64.599 -12.25 63.416 -13.434 Q62.232 -14.617 62.232 -16.294 Q62.232 -17.971 63.416 -19.154 Z M21.698 -38.682 V-57.716 L47.34 -67.579 L72.983 -57.716 V-43.219 Q71.306 -43.712 69.629 -43.81 Q67.953 -43.909 66.276 -43.909 Q54.836 -43.909 46.748 -35.822 Q38.661 -27.734 38.661 -16.294 Q38.661 -13.434 39.154 -10.82 Q39.647 -8.207 40.634 -5.544 Q32.25 -10.376 26.974 -19.203 Q21.698 -28.03 21.698 -38.682 Z"/></g></g></svg>