<svg xmlns="http://www.w3.org/2000/svg" version="1.1" width="3300" height="2000"><g id="Notes"><style>
    text {
      font-family: monospace;
      text-anchor: middle;
    }
    text.emphasis {
      font-weight:bold;
    }
    text.lanchor {
      text-anchor: start;
    }
  </style><rect height="2200" id="artboard" fill="white" width="3300" x="0" y="0"/><line id="" style="fill:none;stroke:black;stroke-width:0.5;" x1="263" x2="3036" y1="292" y2="292"/><text class="lanchor emphasis" transform="matrix(1 0 0 1 263 322)">Weight/Scale Variations</text><text transform="matrix(1 0 0 1 559.711 322)">Ultralight</text><text transform="matrix(1 0 0 1 856.422 322)">Thin</text><text transform="matrix(1 0 0 1 1153.13 322)">Light</text><text transform="matrix(1 0 0 1 1449.84 322)">Regular</text><text transform="matrix(1 0 0 1 1746.56 322)">Medium</text><text transform="matrix(1 0 0 1 2043.27 322)">Semibold</text><text transform="matrix(1 0 0 1 2339.98 322)">Bold</text><text transform="matrix(1 0 0 1 2636.69 322)">Heavy</text><text transform="matrix(1 0 0 1 2933.4 322)">Black</text><text id="template-version" style="text-anchor: end;" transform="matrix(1 0 0 1 3036 1933)">Template v.1.0</text><text class="lanchor" transform="matrix(1 0 0 1 263 726)">Small</text><text class="lanchor" transform="matrix(1 0 0 1 263 1156)">Medium</text><text class="lanchor" transform="matrix(1 0 0 1 263 1586)">Large</text></g><g id="Guides"><g id="H-reference" style="fill:#27AAE1;stroke:none;" transform="matrix(1 0 0 1 339 696)"><path d="M 54.9316 0 L 57.666 0 L 30.5664 -70.459 L 28.0762 -70.459 L 0.976562 0 L 3.66211 0 L 12.9395 -24.4629 L 45.7031 -24.4629 Z M 29.1992 -67.0898 L 29.4434 -67.0898 L 44.8242 -26.709 L 13.8184 -26.709 Z"/></g><line id="Baseline-S" style="fill:none;stroke:#27AAE1;opacity:1;stroke-width:0.577;" x1="263" x2="3036" y1="696" y2="696"/><line id="Capline-S" style="fill:none;stroke:#27AAE1;opacity:1;stroke-width:0.577;" x1="263" x2="3036" y1="625.541" y2="625.541"/><g id="H-reference" style="fill:#27AAE1;stroke:none;" transform="matrix(1 0 0 1 339 1126)"><path d="M 54.9316 0 L 57.666 0 L 30.5664 -70.459 L 28.0762 -70.459 L 0.976562 0 L 3.66211 0 L 12.9395 -24.4629 L 45.7031 -24.4629 Z M 29.1992 -67.0898 L 29.4434 -67.0898 L 44.8242 -26.709 L 13.8184 -26.709 Z"/></g><line id="Baseline-M" style="fill:none;stroke:#27AAE1;opacity:1;stroke-width:0.577;" x1="263" x2="3036" y1="1126" y2="1126"/><line id="Capline-M" style="fill:none;stroke:#27AAE1;opacity:1;stroke-width:0.577;" x1="263" x2="3036" y1="1055.54" y2="1055.54"/><g id="H-reference" style="fill:#27AAE1;stroke:none;" transform="matrix(1 0 0 1 339 1556)"><path d="M 54.9316 0 L 57.666 0 L 30.5664 -70.459 L 28.0762 -70.459 L 0.976562 0 L 3.66211 0 L 12.9395 -24.4629 L 45.7031 -24.4629 Z M 29.1992 -67.0898 L 29.4434 -67.0898 L 44.8242 -26.709 L 13.8184 -26.709 Z"/></g><line id="Baseline-L" style="fill:none;stroke:#27AAE1;opacity:1;stroke-width:0.577;" x1="263" x2="3036" y1="1556" y2="1556"/><line id="Capline-L" style="fill:none;stroke:#27AAE1;opacity:1;stroke-width:0.577;" x1="263" x2="3036" y1="1485.54" y2="1485.54"/><rect height="119.336" id="left-margin" style="fill:darkred;stroke:none;opacity:0.4;" width="12.4512" x="1394.06" y="1030.79"/><rect height="119.336" id="right-margin" style="fill:darkgreen;stroke:none;opacity:0.4;" width="12.4512" x="1502.5112" y="1030.79"/><rect x="1406.5112" y="1045" width="96" height="96" fill="none" stroke="blue" stroke-dasharray="5"/><rect x="1394.06" y="1030.79" width="120.9024" height="119.336" fill="none" stroke="blue"/></g><g id="Symbols"><g id="Bold-L" transform="matrix(1 0 0 1 2266 1556)"><path d="M109.489 38.945 Q91.832 38.945 79.617 26.811 Q67.403 14.677 67.403 -2.98 Q67.403 -20.637 79.617 -32.852 Q91.832 -45.066 109.489 -45.066 Q126.984 -45.066 139.36 -32.852 Q151.736 -20.637 151.736 -2.98 Q151.736 1.374 150.849 5.566 Q149.963 9.759 148.431 13.548 L135.45 0.406 Q136.095 -1.126 136.377 -2.859 Q136.659 -4.592 136.659 -6.205 Q135.369 -16.767 127.75 -23.539 Q120.131 -30.312 109.328 -30.312 Q98.04 -30.312 90.098 -22.491 Q82.157 -14.671 82.157 -2.98 Q82.157 7.663 89.05 15.282 Q95.944 22.901 106.264 24.029 Q107.796 24.029 109.61 23.707 Q111.424 23.384 113.036 22.981 L125.694 35.72 Q121.824 37.333 117.833 38.139 Q113.843 38.945 109.489 38.945 Z M99.451 -13.179 Q103.603 -17.331 109.65 -17.331 Q115.697 -17.331 119.768 -13.179 Q123.84 -9.027 123.84 -2.98 Q123.84 -2.899 123.517 0.245 L145.044 22.014 L134.724 32.414 L113.036 10.888 Q111.827 11.21 109.65 11.371 Q103.603 11.371 99.451 7.219 Q95.299 3.067 95.299 -2.98 Q95.299 -9.027 99.451 -13.179 Z M22.494 -42.164 V-82.718 L77.4 -103.277 L132.467 -82.718 V-49.097 Q127.065 -51.516 121.26 -52.927 Q115.455 -54.338 109.489 -54.338 Q88.688 -54.338 73.893 -39.947 Q59.098 -25.555 58.292 -4.915 Q58.292 4.679 61.396 13.468 Q64.5 22.256 70.063 29.915 Q48.939 21.853 35.717 1.616 Q22.494 -18.621 22.494 -42.164 Z"/></g><g id="Semibold-L" transform="matrix(1 0 0 1 1970.27 1556)"><path d="M109.558 37.192 Q92.674 37.192 80.949 25.548 Q69.225 13.906 69.225 -2.98 Q69.225 -19.866 80.949 -31.555 Q92.674 -43.244 109.558 -43.244 Q126.283 -43.244 138.098 -31.555 Q149.914 -19.866 149.914 -2.98 Q149.914 1.304 149.027 5.39 Q148.14 9.478 146.609 13.198 L136.151 2.72 Q136.796 0.977 137.079 -0.966 Q137.361 -2.911 137.361 -4.802 Q136.632 -15.996 128.661 -23.435 Q120.692 -30.873 109.397 -30.873 Q97.83 -30.873 89.713 -22.841 Q81.596 -14.811 81.596 -2.98 Q81.596 8.224 89.12 16.157 Q96.645 24.092 107.667 24.731 Q109.477 24.731 111.503 24.408 Q113.526 24.086 115.35 23.612 L125.554 33.898 Q121.755 35.51 117.798 36.35 Q113.843 37.192 109.558 37.192 Z M100.397 -12.233 Q104.164 -15.999 109.65 -15.999 Q115.136 -15.999 118.857 -12.233 Q122.577 -8.466 122.577 -2.98 Q122.577 -2.69 122.115 0.595 L142.942 21.593 L134.234 30.241 L113.317 9.485 Q112.248 9.807 109.65 10.039 Q104.164 10.039 100.397 6.273 Q96.631 2.506 96.631 -2.98 Q96.631 -8.466 100.397 -12.233 Z M24.247 -42.164 V-81.526 L77.4 -101.455 L130.645 -81.526 V-47.906 Q125.662 -50.044 120.349 -51.279 Q115.034 -52.516 109.558 -52.516 Q89.249 -52.516 74.875 -38.405 Q60.501 -24.292 60.045 -4.073 Q60.045 4.96 63.008 13.258 Q65.972 21.554 71.395 28.652 Q50.552 21.011 37.399 1.09 Q24.247 -18.831 24.247 -42.164 Z"/></g><g id="Medium-L" transform="matrix(1 0 0 1 1674.31 1556)"><path d="M109.611 35.878 Q93.304 35.878 81.949 24.602 Q70.592 13.327 70.592 -2.98 Q70.592 -19.287 81.949 -30.581 Q93.304 -41.877 109.611 -41.877 Q125.757 -41.877 137.151 -30.581 Q148.547 -19.287 148.547 -2.98 Q148.547 1.251 147.66 5.26 Q146.773 9.269 145.241 12.935 L136.677 4.455 Q137.322 2.556 137.604 0.453 Q137.886 -1.648 137.886 -3.751 Q137.579 -15.417 129.345 -23.356 Q121.113 -31.294 109.45 -31.294 Q97.672 -31.294 89.424 -23.104 Q81.175 -14.916 81.175 -2.98 Q81.175 8.645 89.173 16.815 Q97.171 24.986 108.718 25.256 Q110.74 25.256 112.922 24.934 Q115.105 24.611 117.085 24.086 L125.449 32.53 Q121.702 34.143 117.772 35.011 Q113.843 35.878 109.611 35.878 Z M101.107 -11.523 Q104.585 -15 109.65 -15 Q114.715 -15 118.174 -11.523 Q121.631 -8.045 121.631 -2.98 Q121.631 -2.532 121.063 0.858 L141.363 21.277 L133.865 28.61 L113.526 8.433 Q112.564 8.756 109.65 9.04 Q104.585 9.04 101.107 5.563 Q97.63 2.085 97.63 -2.98 Q97.63 -8.045 101.107 -11.523 Z M25.561 -42.164 V-80.633 L77.4 -100.088 L129.277 -80.633 V-47.013 Q124.611 -48.939 119.665 -50.044 Q114.718 -51.149 109.611 -51.149 Q89.67 -51.149 75.61 -37.247 Q61.552 -23.346 61.359 -3.443 Q61.359 5.17 64.218 13.1 Q67.077 21.029 72.395 27.706 Q51.761 20.38 38.661 0.695 Q25.561 -18.989 25.561 -42.164 Z"/></g><g id="Regular-L" transform="matrix(1 0 0 1 1378.56 1556)"><path d="M109.65 34.914 Q93.767 34.914 82.681 23.908 Q71.595 12.903 71.595 -2.98 Q71.595 -18.863 82.681 -29.868 Q93.767 -40.874 109.65 -40.874 Q125.372 -40.874 136.458 -29.868 Q147.544 -18.863 147.544 -2.98 Q147.544 1.213 146.657 5.163 Q145.77 9.114 144.238 12.742 L137.062 5.728 Q137.708 3.712 137.99 1.495 Q138.272 -0.722 138.272 -2.98 Q138.272 -14.993 129.847 -23.297 Q121.421 -31.602 109.489 -31.602 Q97.556 -31.602 89.212 -23.297 Q80.867 -14.993 80.867 -2.98 Q80.867 8.953 89.212 17.297 Q97.556 25.642 109.489 25.642 Q111.666 25.642 113.963 25.319 Q116.261 24.997 118.358 24.433 L125.372 31.528 Q121.663 33.14 117.753 34.027 Q113.843 34.914 109.65 34.914 Z M101.628 -11.002 Q104.893 -14.267 109.65 -14.267 Q114.407 -14.267 117.672 -11.002 Q120.938 -7.737 120.938 -2.98 Q120.938 -2.416 120.293 1.051 L140.207 21.046 L133.596 27.416 L113.681 7.663 Q112.794 7.985 109.65 8.308 Q104.893 8.308 101.628 5.042 Q98.362 1.777 98.362 -2.98 Q98.362 -7.737 101.628 -11.002 Z M26.526 -42.164 V-79.977 L77.4 -99.085 L128.274 -79.977 V-46.356 Q123.84 -48.13 119.164 -49.138 Q114.487 -50.146 109.65 -50.146 Q89.978 -50.146 76.15 -36.399 Q62.323 -22.652 62.323 -2.98 Q62.323 5.324 65.105 12.984 Q67.886 20.643 73.127 27.013 Q52.648 19.918 39.587 0.406 Q26.526 -19.105 26.526 -42.164 Z"/></g><g id="Light-L" transform="matrix(1 0 0 1 1082.77 1556)"><path d="M109.65 31.998 Q94.915 31.998 84.759 21.877 Q74.604 11.755 74.604 -2.98 Q74.604 -17.715 84.759 -27.837 Q94.915 -37.958 109.65 -37.958 Q124.163 -37.958 134.395 -27.837 Q144.628 -17.715 144.628 -2.98 Q144.628 0.468 143.959 3.705 Q143.288 6.943 142.129 9.92 L136.629 4.487 Q137.087 2.751 137.324 0.843 Q137.559 -1.064 137.559 -2.98 Q137.559 -14.684 129.366 -22.786 Q121.173 -30.889 109.582 -30.889 Q97.959 -30.889 89.816 -22.786 Q81.673 -14.684 81.673 -2.98 Q81.673 8.643 89.816 16.786 Q97.959 24.929 109.582 24.929 Q111.387 24.929 113.343 24.668 Q115.3 24.408 117.148 23.936 L122.519 29.449 Q119.43 30.658 116.264 31.329 Q113.098 31.998 109.65 31.998 Z M102.652 -9.978 Q105.514 -12.84 109.65 -12.84 Q113.786 -12.84 116.648 -9.978 Q119.51 -7.116 119.51 -2.98 Q119.51 -2.385 118.68 0.99 L137.354 19.651 L132.262 24.563 L113.651 6.05 Q112.794 6.434 109.65 6.88 Q105.514 6.88 102.652 4.018 Q99.79 1.156 99.79 -2.98 Q99.79 -7.116 102.652 -9.978 Z M29.472 -41.854 V-77.898 L77.4 -95.86 L125.328 -77.898 V-46.698 Q121.576 -47.975 117.645 -48.735 Q113.712 -49.494 109.65 -49.494 Q90.256 -49.494 76.661 -35.935 Q63.068 -22.374 63.068 -2.98 Q63.068 4.176 65.182 10.783 Q67.298 17.387 71.484 23.105 Q53.021 15.762 41.246 -2.291 Q29.472 -20.345 29.472 -41.854 Z"/></g><g id="Thin-L" transform="matrix(1 0 0 1 787.282 1556)"><path d="M109.65 29.085 Q96.061 29.085 86.836 19.847 Q77.611 10.609 77.611 -2.98 Q77.611 -16.569 86.836 -25.807 Q96.061 -35.045 109.65 -35.045 Q122.953 -35.045 132.333 -25.807 Q141.715 -16.569 141.715 -2.98 Q141.715 -0.276 141.261 2.248 Q140.808 4.773 140.021 7.098 L136.195 3.247 Q136.467 1.79 136.656 0.192 Q136.845 -1.405 136.845 -2.98 Q136.845 -14.372 128.886 -22.274 Q120.925 -30.175 109.674 -30.175 Q98.362 -30.175 90.421 -22.274 Q82.479 -14.372 82.479 -2.98 Q82.479 8.332 90.421 16.273 Q98.362 24.215 109.674 24.215 Q111.108 24.215 112.723 24.016 Q114.339 23.818 115.939 23.441 L119.667 27.372 Q117.198 28.178 114.776 28.631 Q112.354 29.085 109.65 29.085 Z M103.674 -8.956 Q106.133 -11.415 109.65 -11.415 Q113.167 -11.415 115.626 -8.956 Q118.085 -6.497 118.085 -2.98 Q118.085 -2.354 117.068 0.927 L134.502 18.255 L130.929 21.711 L113.62 4.438 Q112.794 4.884 109.65 5.455 Q106.133 5.455 103.674 2.996 Q101.215 0.537 101.215 -2.98 Q101.215 -6.497 103.674 -8.956 Z M32.418 -41.543 V-75.821 L77.4 -92.635 L122.382 -75.821 V-47.038 Q119.312 -47.82 116.124 -48.332 Q112.936 -48.843 109.65 -48.843 Q90.535 -48.843 77.174 -35.469 Q63.811 -22.095 63.811 -2.98 Q63.811 3.03 65.259 8.58 Q66.708 14.132 69.841 19.198 Q53.393 11.607 42.905 -4.989 Q32.418 -21.585 32.418 -41.543 Z"/></g><g id="Ultralight-L" transform="matrix(1 0 0 1 491.205 1556)"><path d="M109.65 27.335 Q96.75 27.335 88.083 18.628 Q79.416 9.92 79.416 -2.98 Q79.416 -15.88 88.083 -24.587 Q96.75 -33.295 109.65 -33.295 Q122.228 -33.295 131.096 -24.587 Q139.965 -15.88 139.965 -2.98 Q139.965 -0.722 139.643 1.374 Q139.32 3.47 138.756 5.405 L135.934 2.503 Q136.095 1.213 136.256 -0.198 Q136.417 -1.609 136.417 -2.98 Q136.417 -14.187 128.597 -21.967 Q120.776 -29.747 109.731 -29.747 Q98.604 -29.747 90.784 -21.967 Q82.963 -14.187 82.963 -2.98 Q82.963 8.146 90.784 15.967 Q98.604 23.788 109.731 23.788 Q110.94 23.788 112.351 23.626 Q113.762 23.465 115.213 23.143 L117.954 26.126 Q115.858 26.69 113.883 27.013 Q111.907 27.335 109.65 27.335 Z M104.288 -8.342 Q106.506 -10.559 109.65 -10.559 Q112.794 -10.559 115.012 -8.342 Q117.229 -6.124 117.229 -2.98 Q117.229 -2.335 116.1 0.89 L132.789 17.418 L130.129 19.998 L113.601 3.47 Q112.794 3.954 109.65 4.599 Q106.506 4.599 104.288 2.382 Q102.071 0.164 102.071 -2.98 Q102.071 -6.124 104.288 -8.342 Z M34.185 -41.357 V-74.575 L77.4 -90.7 L120.615 -74.575 V-47.243 Q117.954 -47.727 115.213 -48.09 Q112.472 -48.452 109.65 -48.452 Q90.703 -48.452 77.481 -35.19 Q64.258 -21.927 64.258 -2.98 Q64.258 2.341 65.306 7.259 Q66.354 12.178 68.854 16.854 Q53.616 9.114 43.9 -6.608 Q34.185 -22.33 34.185 -41.357 Z"/></g><g id="Bold-M" transform="matrix(1 0 0 1 2281.8 1126)"><path d="M84.875 22.77 Q71.125 22.77 61.469 13.145 Q51.812 3.52 51.812 -10.23 Q51.812 -23.98 61.469 -33.605 Q71.125 -43.23 84.875 -43.23 Q98.688 -43.23 108.344 -33.605 Q118 -23.98 118 -10.23 Q118 -6.98 117.438 -3.886 Q116.875 -0.792 115.688 2.145 L102.25 -11.855 Q102.438 -12.23 102.531 -12.699 Q102.625 -13.167 102.625 -13.605 Q101.375 -20.042 96.5 -24.136 Q91.625 -28.23 84.812 -28.23 Q77.25 -28.23 72.031 -23.074 Q66.812 -17.917 66.812 -10.23 Q66.812 -3.417 70.969 1.489 Q75.125 6.395 81.562 7.52 Q82 7.52 82.469 7.395 Q82.938 7.27 83.312 7.145 L96.562 20.583 Q93.938 21.645 90.969 22.208 Q88 22.77 84.875 22.77 Z M76.031 -19.199 Q79.688 -22.855 85 -22.855 Q90.188 -22.855 93.844 -19.199 Q97.5 -15.542 97.5 -10.23 Q97.5 -10.292 97.375 -8.355 L113.812 8.083 L103.375 18.833 L86.812 2.27 Q86.188 2.395 85 2.395 Q79.688 2.395 76.031 -1.261 Q72.375 -4.917 72.375 -10.23 Q72.375 -15.542 76.031 -19.199 Z M16.875 -39.73 V-72.23 L60 -88.355 L103.125 -72.23 V-48.417 Q98.938 -50.417 94.25 -51.511 Q89.562 -52.605 84.875 -52.605 Q67.812 -52.605 55.625 -40.886 Q43.438 -29.167 42.562 -12.23 Q42.562 -5.23 44.781 1.395 Q47 8.02 50.25 14.27 Q35.312 7.208 26.094 -7.667 Q16.875 -22.542 16.875 -39.73 Z"/></g><g id="Semibold-M" transform="matrix(1 0 0 1 1985.97 1126)"><path d="M84.929 20.923 Q71.94 20.923 62.828 11.841 Q53.715 2.759 53.715 -10.23 Q53.715 -23.219 62.828 -32.301 Q71.94 -41.382 84.929 -41.382 Q97.926 -41.382 107.04 -32.301 Q116.153 -23.219 116.153 -10.23 Q116.153 -7.034 115.562 -4.049 Q114.972 -1.064 113.785 1.765 L102.956 -9.464 Q103.199 -10.11 103.293 -10.77 Q103.386 -11.429 103.386 -12.137 Q102.679 -19.281 97.451 -24.055 Q92.222 -28.827 84.866 -28.827 Q77.088 -28.827 71.677 -23.454 Q66.269 -18.08 66.269 -10.23 Q66.269 -2.874 71.078 2.359 Q75.886 7.59 83.03 8.226 Q83.739 8.226 84.397 8.101 Q85.058 7.976 85.704 7.798 L96.454 18.68 Q93.829 19.798 90.915 20.36 Q88 20.923 84.929 20.923 Z M77.01 -18.22 Q80.285 -21.496 85 -21.496 Q89.644 -21.496 92.92 -18.22 Q96.196 -14.945 96.196 -10.23 Q96.196 -10.13 95.963 -8.029 L111.639 7.648 L102.886 16.605 L87.139 0.803 Q86.623 0.928 85 1.036 Q80.285 1.036 77.01 -2.24 Q73.734 -5.515 73.734 -10.23 Q73.734 -14.945 77.01 -18.22 Z M18.723 -39.73 V-70.98 L60 -86.452 L101.278 -70.98 V-47.222 Q97.47 -48.896 93.299 -49.826 Q89.127 -50.757 84.929 -50.757 Q68.356 -50.757 56.63 -39.31 Q44.905 -27.864 44.41 -11.36 Q44.41 -4.904 46.411 1.233 Q48.413 7.368 51.663 12.966 Q36.998 6.338 27.86 -8.211 Q18.723 -22.76 18.723 -39.73 Z"/></g><g id="Medium-M" transform="matrix(1 0 0 1 1689.91 1126)"><path d="M84.97 19.536 Q72.551 19.536 63.846 10.863 Q55.141 2.189 55.141 -10.23 Q55.141 -22.649 63.846 -31.322 Q72.551 -39.996 84.97 -39.996 Q97.356 -39.996 106.061 -31.322 Q114.766 -22.649 114.766 -10.23 Q114.766 -7.075 114.156 -4.171 Q113.546 -1.267 112.359 1.479 L103.486 -7.67 Q103.769 -8.521 103.862 -9.322 Q103.956 -10.124 103.956 -11.037 Q103.657 -18.711 98.165 -23.994 Q92.671 -29.276 84.907 -29.276 Q76.965 -29.276 71.412 -23.74 Q65.861 -18.202 65.861 -10.23 Q65.861 -2.466 71.159 3.01 Q76.456 8.488 84.13 8.756 Q85.044 8.756 85.845 8.631 Q86.646 8.506 87.498 8.286 L96.373 17.254 Q93.748 18.411 90.874 18.974 Q88 19.536 84.97 19.536 Z M77.744 -17.486 Q80.734 -20.477 85 -20.477 Q89.236 -20.477 92.228 -17.486 Q95.218 -14.496 95.218 -10.23 Q95.218 -10.007 94.903 -7.784 L110.009 7.321 L102.519 14.933 L87.384 -0.297 Q86.949 -0.172 85 0.018 Q80.734 0.018 77.744 -2.974 Q74.752 -5.964 74.752 -10.23 Q74.752 -14.496 77.744 -17.486 Z M20.109 -39.73 V-70.042 L60 -85.026 L99.891 -70.042 V-46.325 Q96.37 -47.755 92.585 -48.562 Q88.801 -49.371 84.97 -49.371 Q68.764 -49.371 57.385 -38.127 Q46.005 -26.885 45.796 -10.709 Q45.796 -4.659 47.635 1.11 Q49.472 6.879 52.722 11.988 Q38.261 5.686 29.185 -8.619 Q20.109 -22.922 20.109 -39.73 Z"/></g><g id="Regular-M" transform="matrix(1 0 0 1 1394.06 1126)"><path d="M85 18.52 Q73 18.52 64.594 10.145 Q56.188 1.77 56.188 -10.23 Q56.188 -22.23 64.594 -30.605 Q73 -38.98 85 -38.98 Q96.938 -38.98 105.344 -30.605 Q113.75 -22.23 113.75 -10.23 Q113.75 -7.105 113.125 -4.261 Q112.5 -1.417 111.312 1.27 L103.875 -6.355 Q104.188 -7.355 104.281 -8.261 Q104.375 -9.167 104.375 -10.23 Q104.375 -18.292 98.688 -23.949 Q93 -29.605 84.938 -29.605 Q76.875 -29.605 71.219 -23.949 Q65.562 -18.292 65.562 -10.23 Q65.562 -2.167 71.219 3.489 Q76.875 9.145 84.938 9.145 Q86 9.145 86.906 9.02 Q87.812 8.895 88.812 8.645 L96.312 16.208 Q93.688 17.395 90.844 17.958 Q88 18.52 85 18.52 Z M78.281 -16.949 Q81.062 -19.73 85 -19.73 Q88.938 -19.73 91.719 -16.949 Q94.5 -14.167 94.5 -10.23 Q94.5 -9.917 94.125 -7.605 L108.812 7.083 L102.25 13.708 L87.562 -1.105 Q87.188 -0.98 85 -0.73 Q81.062 -0.73 78.281 -3.511 Q75.5 -6.292 75.5 -10.23 Q75.5 -14.167 78.281 -16.949 Z M21.125 -39.73 V-69.355 L60 -83.98 L98.875 -69.355 V-45.667 Q95.562 -46.917 92.062 -47.636 Q88.562 -48.355 85 -48.355 Q69.062 -48.355 57.938 -37.261 Q46.812 -26.167 46.812 -10.23 Q46.812 -4.48 48.531 1.02 Q50.25 6.52 53.5 11.27 Q39.188 5.208 30.156 -8.917 Q21.125 -23.042 21.125 -39.73 Z"/></g><g id="Light-M" transform="matrix(1 0 0 1 1098.18 1126)"><path d="M85 16.26 Q73.938 16.26 66.205 8.546 Q58.471 0.833 58.471 -10.23 Q58.471 -21.292 66.205 -29.006 Q73.938 -36.72 85 -36.72 Q96 -36.72 103.745 -29.006 Q111.49 -21.292 111.49 -10.23 Q111.49 -7.634 110.985 -5.247 Q110.48 -2.86 109.581 -0.629 L104.019 -6.307 Q104.284 -7.282 104.39 -8.237 Q104.495 -9.191 104.495 -10.23 Q104.495 -18.34 98.771 -24.032 Q93.047 -29.725 84.961 -29.725 Q76.851 -29.725 71.159 -24.032 Q65.466 -18.34 65.466 -10.23 Q65.466 -2.12 71.159 3.573 Q76.851 9.265 84.961 9.265 Q85.976 9.265 86.93 9.14 Q87.885 9.015 88.885 8.789 L94.438 14.453 Q92.245 15.375 89.882 15.818 Q87.519 16.26 85 16.26 Z M79.267 -15.962 Q81.64 -18.336 85 -18.336 Q88.36 -18.336 90.733 -15.962 Q93.106 -13.59 93.106 -10.23 Q93.106 -9.894 92.586 -7.509 L106.409 6.289 L101.505 11.255 L87.683 -2.644 Q87.284 -2.47 85 -2.124 Q81.64 -2.124 79.267 -4.497 Q76.894 -6.87 76.894 -10.23 Q76.894 -13.59 79.267 -15.962 Z M23.409 -39.73 V-67.792 L60 -81.527 L96.591 -67.792 V-45.211 Q93.808 -46.124 90.885 -46.65 Q87.961 -47.177 85 -47.177 Q69.567 -47.177 58.791 -36.42 Q48.015 -25.662 48.015 -10.23 Q48.015 -5.225 49.361 -0.422 Q50.706 4.38 53.331 8.625 Q40.101 2.611 31.755 -10.649 Q23.409 -23.907 23.409 -39.73 Z"/></g><g id="Thin-M" transform="matrix(1 0 0 1 802.565 1126)"><path d="M85 14.001 Q74.875 14.001 67.815 6.948 Q60.755 -0.105 60.755 -10.23 Q60.755 -20.355 67.815 -27.407 Q74.875 -34.461 85 -34.461 Q95.062 -34.461 102.146 -27.407 Q109.231 -20.355 109.231 -10.23 Q109.231 -8.162 108.846 -6.232 Q108.461 -4.302 107.851 -2.527 L104.164 -6.259 Q104.38 -7.211 104.498 -8.214 Q104.615 -9.215 104.615 -10.23 Q104.615 -18.389 98.856 -24.117 Q93.096 -29.845 84.985 -29.845 Q76.828 -29.845 71.099 -24.117 Q65.37 -18.389 65.37 -10.23 Q65.37 -2.071 71.099 3.658 Q76.828 9.385 84.985 9.385 Q85.953 9.385 86.954 9.26 Q87.956 9.135 88.956 8.934 L92.562 12.698 Q90.802 13.356 88.921 13.679 Q87.039 14.001 85 14.001 Z M80.252 -14.977 Q82.216 -16.941 85 -16.941 Q87.784 -16.941 89.748 -14.977 Q91.711 -13.014 91.711 -10.23 Q91.711 -9.87 91.047 -7.412 L104.005 5.496 L100.76 8.804 L87.802 -4.182 Q87.38 -3.961 85 -3.519 Q82.216 -3.519 80.252 -5.482 Q78.289 -7.446 78.289 -10.23 Q78.289 -13.014 80.252 -14.977 Z M25.692 -39.73 V-66.23 L60 -79.076 L94.308 -66.23 V-44.754 Q92.052 -45.331 89.706 -45.665 Q87.36 -45.999 85 -45.999 Q70.073 -45.999 59.644 -35.579 Q49.216 -25.157 49.216 -10.23 Q49.216 -5.97 50.19 -1.865 Q51.164 2.241 53.164 5.981 Q41.015 0.015 33.354 -12.379 Q25.692 -24.774 25.692 -39.73 Z"/></g><g id="Ultralight-M" transform="matrix(1 0 0 1 506.415 1126)"><path d="M85 12.645 Q75.438 12.645 68.781 5.989 Q62.125 -0.667 62.125 -10.23 Q62.125 -19.792 68.781 -26.449 Q75.438 -33.105 85 -33.105 Q94.5 -33.105 101.188 -26.449 Q107.875 -19.792 107.875 -10.23 Q107.875 -8.48 107.562 -6.824 Q107.25 -5.167 106.812 -3.667 L104.25 -6.23 Q104.438 -7.167 104.562 -8.199 Q104.688 -9.23 104.688 -10.23 Q104.688 -18.417 98.906 -24.167 Q93.125 -29.917 85 -29.917 Q76.812 -29.917 71.062 -24.167 Q65.312 -18.417 65.312 -10.23 Q65.312 -2.042 71.062 3.708 Q76.812 9.458 85 9.458 Q85.938 9.458 86.969 9.333 Q88 9.208 89 9.02 L91.438 11.645 Q89.938 12.145 88.344 12.395 Q86.75 12.645 85 12.645 Z M80.844 -14.386 Q82.562 -16.105 85 -16.105 Q87.438 -16.105 89.156 -14.386 Q90.875 -12.667 90.875 -10.23 Q90.875 -9.855 90.125 -7.355 L102.562 5.02 L100.312 7.333 L87.875 -5.105 Q87.438 -4.855 85 -4.355 Q82.562 -4.355 80.844 -6.074 Q79.125 -7.792 79.125 -10.23 Q79.125 -12.667 80.844 -14.386 Z M27.062 -39.73 V-65.292 L60 -77.605 L92.938 -65.292 V-44.48 Q91 -44.855 89 -45.074 Q87 -45.292 85 -45.292 Q70.375 -45.292 60.156 -35.074 Q49.938 -24.855 49.938 -10.23 Q49.938 -6.417 50.688 -2.73 Q51.438 0.958 53.062 4.395 Q41.562 -1.542 34.312 -13.417 Q27.062 -25.292 27.062 -39.73 Z"/></g><g id="Bold-S" transform="matrix(1 0 0 1 2294.23 696)"><path d="M66.177 9.743 Q55.329 9.743 47.71 2.149 Q40.091 -5.445 40.091 -16.294 Q40.091 -27.143 47.71 -34.737 Q55.329 -42.331 66.177 -42.331 Q77.075 -42.331 84.694 -34.737 Q92.313 -27.143 92.313 -16.294 Q92.313 -13.335 91.771 -10.5 Q91.228 -7.664 89.995 -5.051 L80.182 -15.012 Q80.527 -15.899 80.749 -16.96 Q80.971 -18.02 80.971 -18.957 Q79.985 -24.431 75.941 -27.858 Q71.898 -31.285 66.128 -31.285 Q59.767 -31.285 55.452 -27.019 Q51.137 -22.754 51.137 -16.294 Q51.137 -10.524 54.614 -6.456 Q58.09 -2.388 63.564 -1.5 Q64.501 -1.5 65.561 -1.747 Q66.621 -1.993 67.509 -2.289 L76.977 7.327 Q74.61 8.461 71.873 9.102 Q69.136 9.743 66.177 9.743 Z M59.742 -22.828 Q62.38 -25.466 66.276 -25.466 Q70.073 -25.466 72.711 -22.828 Q75.35 -20.19 75.35 -16.294 Q75.35 -16.738 75.35 -15.012 L88.22 -2.141 L80.577 5.847 L67.509 -7.122 Q66.72 -6.925 66.276 -7.122 Q62.38 -7.122 59.742 -9.76 Q57.104 -12.398 57.104 -16.294 Q57.104 -20.19 59.742 -22.828 Z M14.103 -38.682 V-62.845 L47.34 -75.568 L80.577 -62.845 V-45.734 Q77.273 -47.41 73.574 -48.175 Q69.876 -48.939 66.177 -48.939 Q53.11 -48.939 43.691 -39.89 Q34.272 -30.841 33.582 -17.872 Q33.582 -12.546 35.234 -7.664 Q36.886 -2.782 39.154 2.05 Q27.96 -3.423 21.032 -14.617 Q14.103 -25.811 14.103 -38.682 Z"/></g><g id="Semibold-S" transform="matrix(1 0 0 1 1998.1 696)"><path d="M66.22 8.285 Q55.972 8.285 48.782 1.12 Q41.592 -6.046 41.592 -16.294 Q41.592 -26.542 48.782 -33.708 Q55.972 -40.873 66.22 -40.873 Q76.475 -40.873 83.666 -33.708 Q90.855 -26.542 90.855 -16.294 Q90.855 -13.378 90.291 -10.628 Q89.727 -7.878 88.494 -5.351 L80.739 -13.125 Q81.128 -14.227 81.35 -15.438 Q81.572 -16.648 81.572 -17.799 Q81.014 -23.83 76.692 -27.794 Q72.369 -31.756 66.17 -31.756 Q59.639 -31.756 55.173 -27.319 Q50.708 -22.882 50.708 -16.294 Q50.708 -10.095 54.699 -5.77 Q58.691 -1.445 64.722 -0.943 Q65.873 -0.943 67.083 -1.19 Q68.294 -1.436 69.396 -1.774 L76.891 5.826 Q74.524 7.003 71.831 7.644 Q69.136 8.285 66.22 8.285 Z M60.514 -22.056 Q62.852 -24.394 66.276 -24.394 Q69.644 -24.394 71.982 -22.056 Q74.321 -19.718 74.321 -16.294 Q74.321 -16.61 74.235 -14.754 L86.505 -2.485 L80.191 4.09 L67.766 -8.28 Q67.063 -8.082 66.276 -8.194 Q62.852 -8.194 60.514 -10.532 Q58.176 -12.87 58.176 -16.294 Q58.176 -19.718 60.514 -22.056 Z M15.561 -38.682 V-61.859 L47.34 -74.067 L79.119 -61.859 V-44.791 Q76.115 -46.21 72.824 -46.845 Q69.533 -47.481 66.22 -47.481 Q53.539 -47.481 44.484 -38.646 Q35.43 -29.813 35.039 -17.186 Q35.039 -12.289 36.52 -7.793 Q38 -3.297 40.269 1.022 Q29.29 -4.11 22.425 -15.046 Q15.561 -25.983 15.561 -38.682 Z"/></g><g id="Medium-S" transform="matrix(1 0 0 1 1701.85 696)"><path d="M66.252 7.192 Q56.454 7.192 49.586 0.348 Q42.717 -6.496 42.717 -16.294 Q42.717 -26.092 49.586 -32.936 Q56.454 -39.78 66.252 -39.78 Q76.025 -39.78 82.893 -32.936 Q89.762 -26.092 89.762 -16.294 Q89.762 -13.41 89.182 -10.725 Q88.602 -8.039 87.369 -5.576 L81.158 -11.71 Q81.578 -12.973 81.8 -14.296 Q82.021 -15.618 82.021 -16.931 Q81.786 -23.38 77.255 -27.745 Q72.723 -32.11 66.203 -32.11 Q59.542 -32.11 54.964 -27.545 Q50.387 -22.979 50.387 -16.294 Q50.387 -9.774 54.764 -5.256 Q59.14 -0.737 65.59 -0.525 Q66.902 -0.525 68.225 -0.771 Q69.547 -1.018 70.811 -1.389 L76.827 4.7 Q74.46 5.909 71.798 6.551 Q69.136 7.192 66.252 7.192 Z M61.093 -21.477 Q63.206 -23.59 66.276 -23.59 Q69.323 -23.59 71.436 -21.477 Q73.549 -19.364 73.549 -16.294 Q73.549 -16.513 73.399 -14.561 L85.219 -2.742 L79.901 2.77 L67.96 -9.148 Q67.32 -8.95 66.276 -8.998 Q63.206 -8.998 61.093 -11.111 Q58.98 -13.224 58.98 -16.294 Q58.98 -19.364 61.093 -21.477 Z M16.655 -38.682 V-61.119 L47.34 -72.941 L78.025 -61.119 V-44.083 Q75.247 -45.309 72.261 -45.848 Q69.275 -46.387 66.252 -46.387 Q53.86 -46.387 45.08 -37.713 Q36.298 -29.04 36.133 -16.672 Q36.133 -12.096 37.485 -7.889 Q38.837 -3.683 41.105 0.249 Q30.287 -4.624 23.471 -15.368 Q16.655 -26.111 16.655 -38.682 Z"/></g><g id="Regular-S" transform="matrix(1 0 0 1 1405.73 696)"><path d="M66.276 6.39 Q56.808 6.39 50.175 -0.218 Q43.543 -6.826 43.543 -16.294 Q43.543 -25.762 50.175 -32.37 Q56.808 -38.978 66.276 -38.978 Q75.695 -38.978 82.327 -32.37 Q88.96 -25.762 88.96 -16.294 Q88.96 -13.434 88.368 -10.796 Q87.776 -8.157 86.543 -5.741 L81.464 -10.672 Q81.908 -12.053 82.13 -13.459 Q82.352 -14.864 82.352 -16.294 Q82.352 -23.05 77.667 -27.71 Q72.983 -32.37 66.227 -32.37 Q59.471 -32.37 54.811 -27.71 Q50.151 -23.05 50.151 -16.294 Q50.151 -9.538 54.811 -4.878 Q59.471 -0.218 66.227 -0.218 Q67.657 -0.218 69.062 -0.465 Q70.468 -0.711 71.848 -1.106 L76.78 3.875 Q74.413 5.108 71.774 5.749 Q69.136 6.39 66.276 6.39 Z M61.517 -21.053 Q63.465 -23 66.276 -23 Q69.087 -23 71.035 -21.053 Q72.983 -19.105 72.983 -16.294 Q72.983 -16.442 72.785 -14.42 L84.275 -2.93 L79.689 1.804 L68.101 -9.785 Q67.509 -9.587 66.276 -9.587 Q63.465 -9.587 61.517 -11.535 Q59.57 -13.483 59.57 -16.294 Q59.57 -19.105 61.517 -21.053 Z M17.457 -38.682 V-60.577 L47.34 -72.116 L77.223 -60.577 V-43.564 Q74.61 -44.649 71.848 -45.117 Q69.087 -45.586 66.276 -45.586 Q54.096 -45.586 45.515 -37.03 Q36.935 -28.474 36.935 -16.294 Q36.935 -11.954 38.193 -7.96 Q39.45 -3.966 41.718 -0.317 Q31.018 -5.001 24.237 -15.604 Q17.457 -26.206 17.457 -38.682 Z"/></g><g id="Light-S" transform="matrix(1 0 0 1 1109.75 696)"><path d="M66.276 4.607 Q57.548 4.607 51.447 -1.48 Q45.345 -7.566 45.345 -16.294 Q45.345 -25.022 51.447 -31.108 Q57.548 -37.195 66.276 -37.195 Q74.955 -37.195 81.066 -31.108 Q87.177 -25.022 87.177 -16.294 Q87.177 -13.851 86.68 -11.574 Q86.182 -9.296 85.177 -7.239 L81.578 -10.635 Q81.984 -11.996 82.216 -13.44 Q82.447 -14.883 82.447 -16.294 Q82.447 -23.087 77.733 -27.776 Q73.02 -32.465 66.245 -32.465 Q59.452 -32.465 54.764 -27.776 Q50.075 -23.087 50.075 -16.294 Q50.075 -9.501 54.764 -4.812 Q59.452 -0.123 66.245 -0.123 Q67.638 -0.123 69.081 -0.37 Q70.525 -0.617 71.906 -0.992 L75.3 2.49 Q73.274 3.514 71.016 4.06 Q68.756 4.607 66.276 4.607 Z M62.295 -20.275 Q63.921 -21.901 66.276 -21.901 Q68.631 -21.901 70.257 -20.275 Q71.883 -18.649 71.883 -16.294 Q71.883 -16.423 71.571 -14.344 L82.379 -3.557 L79.101 -0.131 L68.195 -10.999 Q67.585 -10.763 66.276 -10.687 Q63.921 -10.687 62.295 -12.313 Q60.669 -13.939 60.669 -16.294 Q60.669 -18.649 62.295 -20.275 Z M19.259 -38.682 V-59.344 L47.34 -70.181 L75.421 -59.344 V-43.204 Q73.225 -44.022 70.919 -44.339 Q68.612 -44.657 66.276 -44.657 Q54.494 -44.657 46.189 -36.366 Q37.884 -28.076 37.884 -16.294 Q37.884 -12.542 38.847 -9.098 Q39.81 -5.654 41.585 -2.404 Q31.739 -7.05 25.499 -16.97 Q19.259 -26.888 19.259 -38.682 Z"/></g><g id="Thin-S" transform="matrix(1 0 0 1 814.015 696)"><path d="M66.276 2.824 Q58.287 2.824 52.717 -2.741 Q47.147 -8.305 47.147 -16.294 Q47.147 -24.283 52.717 -29.847 Q58.287 -35.412 66.276 -35.412 Q74.215 -35.412 79.804 -29.847 Q85.394 -24.283 85.394 -16.294 Q85.394 -14.268 84.992 -12.351 Q84.59 -10.434 83.813 -8.737 L81.692 -10.596 Q82.06 -11.94 82.301 -13.421 Q82.541 -14.901 82.541 -16.294 Q82.541 -23.126 77.8 -27.843 Q73.058 -32.559 66.264 -32.559 Q59.433 -32.559 54.716 -27.843 Q49.999 -23.126 49.999 -16.294 Q49.999 -9.462 54.716 -4.745 Q59.433 -0.029 66.264 -0.029 Q67.619 -0.029 69.1 -0.275 Q70.581 -0.522 71.962 -0.878 L73.821 1.105 Q72.136 1.921 70.257 2.373 Q68.378 2.824 66.276 2.824 Z M63.073 -19.497 Q64.375 -20.8 66.276 -20.8 Q68.177 -20.8 69.479 -19.497 Q70.782 -18.195 70.782 -16.294 Q70.782 -16.404 70.357 -14.268 L80.482 -4.182 L78.513 -2.065 L68.29 -12.213 Q67.661 -11.94 66.276 -11.788 Q64.375 -11.788 63.073 -13.091 Q61.77 -14.393 61.77 -16.294 Q61.77 -18.195 63.073 -19.497 Z M21.06 -38.682 V-58.111 L47.34 -68.247 L73.62 -58.111 V-42.843 Q71.84 -43.397 69.989 -43.562 Q68.138 -43.727 66.276 -43.727 Q54.893 -43.727 46.862 -35.702 Q38.832 -27.677 38.832 -16.294 Q38.832 -13.13 39.501 -10.236 Q40.171 -7.342 41.453 -4.49 Q32.459 -9.098 26.76 -18.335 Q21.06 -27.572 21.06 -38.682 Z"/></g><g id="Ultralight-S" transform="matrix(1 0 0 1 517.792 696)"><path d="M66.276 1.754 Q58.731 1.754 53.479 -3.497 Q48.228 -8.749 48.228 -16.294 Q48.228 -23.839 53.479 -29.091 Q58.731 -34.342 66.276 -34.342 Q73.772 -34.342 79.048 -29.091 Q84.324 -23.839 84.324 -16.294 Q84.324 -14.519 83.979 -12.817 Q83.634 -11.116 82.993 -9.637 L81.76 -10.574 Q82.105 -11.905 82.352 -13.409 Q82.598 -14.913 82.598 -16.294 Q82.598 -23.148 77.84 -27.882 Q73.081 -32.616 66.276 -32.616 Q59.422 -32.616 54.688 -27.882 Q49.954 -23.148 49.954 -16.294 Q49.954 -9.44 54.688 -4.706 Q59.422 0.028 66.276 0.028 Q67.607 0.028 69.111 -0.218 Q70.615 -0.465 71.996 -0.81 L72.933 0.275 Q71.454 0.965 69.802 1.36 Q68.15 1.754 66.276 1.754 Z M63.539 -19.031 Q64.649 -20.14 66.276 -20.14 Q67.903 -20.14 69.013 -19.031 Q70.122 -17.921 70.122 -16.294 Q70.122 -16.393 69.629 -14.223 L79.344 -4.558 L78.16 -3.226 L68.347 -12.941 Q67.706 -12.645 66.276 -12.448 Q64.649 -12.448 63.539 -13.557 Q62.43 -14.667 62.43 -16.294 Q62.43 -17.921 63.539 -19.031 Z M22.141 -38.682 V-57.371 L47.34 -67.086 L72.539 -57.371 V-42.627 Q71.01 -43.021 69.432 -43.095 Q67.854 -43.169 66.276 -43.169 Q55.131 -43.169 47.266 -35.304 Q39.401 -27.439 39.401 -16.294 Q39.401 -13.483 39.894 -10.919 Q40.387 -8.355 41.373 -5.741 Q32.891 -10.327 27.516 -19.154 Q22.141 -27.981 22.141 -38.682 Z"/></g></g></svg>