<svg xmlns="http://www.w3.org/2000/svg" version="1.1" width="3300" height="2000"><g id="Notes"><style>
    text {
      font-family: monospace;
      text-anchor: middle;
    }
    text.emphasis {
      font-weight:bold;
    }
    text.lanchor {
      text-anchor: start;
    }
  </style><rect height="2200" id="artboard" fill="white" width="3300" x="0" y="0"/><line id="" style="fill:none;stroke:black;stroke-width:0.5;" x1="263" x2="3036" y1="292" y2="292"/><text class="lanchor emphasis" transform="matrix(1 0 0 1 263 322)">Weight/Scale Variations</text><text transform="matrix(1 0 0 1 559.711 322)">Ultralight</text><text transform="matrix(1 0 0 1 856.422 322)">Thin</text><text transform="matrix(1 0 0 1 1153.13 322)">Light</text><text transform="matrix(1 0 0 1 1449.84 322)">Regular</text><text transform="matrix(1 0 0 1 1746.56 322)">Medium</text><text transform="matrix(1 0 0 1 2043.27 322)">Semibold</text><text transform="matrix(1 0 0 1 2339.98 322)">Bold</text><text transform="matrix(1 0 0 1 2636.69 322)">Heavy</text><text transform="matrix(1 0 0 1 2933.4 322)">Black</text><text id="template-version" style="text-anchor: end;" transform="matrix(1 0 0 1 3036 1933)">Template v.1.0</text><text class="lanchor" transform="matrix(1 0 0 1 263 726)">Small</text><text class="lanchor" transform="matrix(1 0 0 1 263 1156)">Medium</text><text class="lanchor" transform="matrix(1 0 0 1 263 1586)">Large</text></g><g id="Guides"><g id="H-reference" style="fill:#27AAE1;stroke:none;" transform="matrix(1 0 0 1 339 696)"><path d="M 54.9316 0 L 57.666 0 L 30.5664 -70.459 L 28.0762 -70.459 L 0.976562 0 L 3.66211 0 L 12.9395 -24.4629 L 45.7031 -24.4629 Z M 29.1992 -67.0898 L 29.4434 -67.0898 L 44.8242 -26.709 L 13.8184 -26.709 Z"/></g><line id="Baseline-S" style="fill:none;stroke:#27AAE1;opacity:1;stroke-width:0.577;" x1="263" x2="3036" y1="696" y2="696"/><line id="Capline-S" style="fill:none;stroke:#27AAE1;opacity:1;stroke-width:0.577;" x1="263" x2="3036" y1="625.541" y2="625.541"/><g id="H-reference" style="fill:#27AAE1;stroke:none;" transform="matrix(1 0 0 1 339 1126)"><path d="M 54.9316 0 L 57.666 0 L 30.5664 -70.459 L 28.0762 -70.459 L 0.976562 0 L 3.66211 0 L 12.9395 -24.4629 L 45.7031 -24.4629 Z M 29.1992 -67.0898 L 29.4434 -67.0898 L 44.8242 -26.709 L 13.8184 -26.709 Z"/></g><line id="Baseline-M" style="fill:none;stroke:#27AAE1;opacity:1;stroke-width:0.577;" x1="263" x2="3036" y1="1126" y2="1126"/><line id="Capline-M" style="fill:none;stroke:#27AAE1;opacity:1;stroke-width:0.577;" x1="263" x2="3036" y1="1055.54" y2="1055.54"/><g id="H-reference" style="fill:#27AAE1;stroke:none;" transform="matrix(1 0 0 1 339 1556)"><path d="M 54.9316 0 L 57.666 0 L 30.5664 -70.459 L 28.0762 -70.459 L 0.976562 0 L 3.66211 0 L 12.9395 -24.4629 L 45.7031 -24.4629 Z M 29.1992 -67.0898 L 29.4434 -67.0898 L 44.8242 -26.709 L 13.8184 -26.709 Z"/></g><line id="Baseline-L" style="fill:none;stroke:#27AAE1;opacity:1;stroke-width:0.577;" x1="263" x2="3036" y1="1556" y2="1556"/><line id="Capline-L" style="fill:none;stroke:#27AAE1;opacity:1;stroke-width:0.577;" x1="263" x2="3036" y1="1485.54" y2="1485.54"/><rect height="119.336" id="left-margin" style="fill:darkred;stroke:none;opacity:0.4;" width="12.4512" x="1394.06" y="1030.79"/><rect height="119.336" id="right-margin" style="fill:darkgreen;stroke:none;opacity:0.4;" width="12.4512" x="1502.5112" y="1030.79"/><rect x="1406.5112" y="1045" width="96" height="96" fill="none" stroke="blue" stroke-dasharray="5"/><rect x="1394.06" y="1030.79" width="120.9024" height="119.336" fill="none" stroke="blue"/></g><g id="Symbols"><g id="Bold-L" transform="matrix(1 0 0 1 2266 1556)"><path d="M22.656 26.045 V-96.666 H132.386 V26.045 H22.656 Z M37.249 11.452 H117.632 V-81.912 H37.249 V11.452 Z M71.192 -27.329  62.888 -35.956  54.099 -27.167  77.4 -3.867  100.701 -27.167  91.913 -35.794  83.689 -27.329 V-58.531 H71.192 V-27.329 Z"/></g><g id="Semibold-L" transform="matrix(1 0 0 1 1970.27 1556)"><path d="M24.408 24.292 V-94.844 H130.564 V24.292 H24.408 Z M36.688 12.013 H118.193 V-82.473 H36.688 V12.013 Z M71.893 -25.716  61.976 -35.815  54.169 -28.009  77.4 -4.778  100.631 -28.009  92.824 -35.725  82.987 -25.716 V-59.092 H71.893 V-25.716 Z"/></g><g id="Medium-L" transform="matrix(1 0 0 1 1674.31 1556)"><path d="M25.723 22.978 V-93.477 H129.197 V22.978 H25.723 Z M36.267 12.434 H118.614 V-82.894 H36.267 V12.434 Z M72.419 -24.507  61.293 -35.711  54.222 -28.64  77.4 -5.462  100.578 -28.64  93.507 -35.672  82.462 -24.507 V-59.513 H72.419 V-24.507 Z"/></g><g id="Regular-L" transform="matrix(1 0 0 1 1378.56 1556)"><path d="M26.687 22.014 V-92.474 H128.194 V22.014 H26.687 Z M35.959 12.742 H118.922 V-83.202 H35.959 V12.742 Z M72.804 -23.62  60.791 -35.633  54.261 -29.102  77.4 -5.963  100.539 -29.102  94.009 -35.633  82.076 -23.62 V-59.821 H72.804 V-23.62 Z"/></g><g id="Light-L" transform="matrix(1 0 0 1 1082.77 1556)"><path d="M29.602 19.098 V-89.558 H125.341 V19.098 H29.602 Z M36.671 12.029 H118.27 V-82.489 H36.671 V12.029 Z M73.983 -22.38  60.73 -35.602  55.718 -30.654  77.461 -8.909  99.082 -30.53  94.07 -35.509  81.052 -22.38 V-57.805 H73.983 V-22.38 Z"/></g><g id="Thin-L" transform="matrix(1 0 0 1 787.282 1556)"><path d="M32.516 16.185 V-86.645 H122.489 V16.185 H32.516 Z M37.386 11.315 H117.619 V-81.775 H37.386 V11.315 Z M75.162 -21.14  60.667 -35.572  57.176 -32.203  77.524 -11.855  97.624 -31.955  94.133 -35.385  80.03 -21.14 V-55.789 H75.162 V-21.14 Z"/></g><g id="Ultralight-L" transform="matrix(1 0 0 1 491.205 1556)"><path d="M34.266 14.435 V-84.895 H120.776 V14.435 H34.266 Z M37.813 10.888 H117.229 V-81.347 H37.813 V10.888 Z M75.868 -20.395  60.63 -35.552  58.05 -33.134  77.561 -13.622  96.75 -32.811  94.17 -35.311  79.416 -20.395 V-54.58 H75.868 V-20.395 Z"/></g><g id="Bold-M" transform="matrix(1 0 0 1 2281.8 1126)"><path d="M17.062 12.77 V-83.23 H103 V12.77 H17.062 Z M32.062 -2.23 H88 V-68.23 H32.062 V-2.23 Z M53.688 -36.98  49.375 -41.355  40.5 -32.48  60 -12.98  79.5 -32.48  70.625 -41.292  66.312 -36.98 V-51.98 H53.688 V-36.98 Z"/></g><g id="Semibold-M" transform="matrix(1 0 0 1 1985.97 1126)"><path d="M18.91 10.923 V-81.382 H101.153 V10.923 H18.91 Z M31.465 -1.632 H88.597 V-68.827 H31.465 V-1.632 Z M54.394 -35.295  48.451 -41.246  40.554 -33.35  60 -13.904  79.446 -33.35  71.549 -41.239  65.606 -35.295 V-52.577 H54.394 V-35.295 Z"/></g><g id="Medium-M" transform="matrix(1 0 0 1 1689.91 1126)"><path d="M20.296 9.536 V-79.996 H99.766 V9.536 H20.296 Z M31.016 -1.184 H89.046 V-69.276 H31.016 V-1.184 Z M54.924 -34.031  47.759 -41.165  40.595 -34.001  60 -14.596  79.405 -34.001  72.241 -41.197  65.076 -34.031 V-53.026 H54.924 V-34.031 Z"/></g><g id="Regular-M" transform="matrix(1 0 0 1 1394.06 1126)"><path d="M21.312 8.52 V-78.98 H98.75 V8.52 H21.312 Z M30.688 -0.855 H89.375 V-69.605 H30.688 V-0.855 Z M55.312 -33.105  47.25 -41.105  40.625 -34.48  60 -15.105  79.375 -34.48  72.75 -41.167  64.688 -33.105 V-53.355 H55.312 V-33.105 Z"/></g><g id="Light-M" transform="matrix(1 0 0 1 1098.18 1126)"><path d="M23.573 6.26 V-76.72 H96.539 V6.26 H23.573 Z M30.567 -0.735 H89.544 V-69.725 H30.567 V-0.735 Z M56.562 -30.124  47.203 -39.446  42.236 -34.48  60.047 -16.667  77.764 -34.384  72.797 -39.389  63.557 -30.124 V-51.792 H56.562 V-30.124 Z"/></g><g id="Thin-M" transform="matrix(1 0 0 1 802.565 1126)"><path d="M25.831 4.001 V-74.461 H94.328 V4.001 H25.831 Z M30.448 -0.615 H89.711 V-69.845 H30.448 V-0.615 Z M57.812 -27.144  47.154 -37.787  43.846 -34.48  60.096 -18.23  76.154 -34.287  72.846 -37.61  62.428 -27.144 V-50.23 H57.812 V-27.144 Z"/></g><g id="Ultralight-M" transform="matrix(1 0 0 1 506.415 1126)"><path d="M27.188 2.645 V-73.105 H93 V2.645 H27.188 Z M30.375 -0.542 H89.812 V-69.917 H30.375 V-0.542 Z M58.562 -25.355  47.125 -36.792  44.812 -34.48  60.125 -19.167  75.188 -34.23  72.875 -36.542  61.75 -25.355 V-49.292 H58.562 V-25.355 Z"/></g><g id="Bold-S" transform="matrix(1 0 0 1 2294.23 696)"><path d="M16.618 0.275 V-70.735 H78.111 V0.275 H16.618 Z M27.664 -10.771 H67.065 V-59.689 H27.664 V-10.771 Z M42.754 -36.709  40.042 -39.569  33.532 -33.06  47.34 -19.253  61.148 -33.06  54.638 -39.422  51.926 -36.709 V-46.868 H42.754 V-36.709 Z"/></g><g id="Semibold-S" transform="matrix(1 0 0 1 1998.1 696)"><path d="M18.076 -1.183 V-69.277 H76.653 V-1.183 H18.076 Z M27.193 -10.3 H67.536 V-60.16 H27.193 V-10.3 Z M43.311 -35.38  39.313 -39.484  33.575 -33.747  47.34 -19.982  61.105 -33.747  55.367 -39.379  51.369 -35.38 V-47.339 H43.311 V-35.38 Z"/></g><g id="Medium-S" transform="matrix(1 0 0 1 1701.85 696)"><path d="M19.17 -2.276 V-68.184 H75.56 V-2.276 H19.17 Z M26.839 -9.946 H67.89 V-60.514 H26.839 V-9.946 Z M43.729 -34.383  38.767 -39.42  33.607 -34.261  47.34 -20.528  61.073 -34.261  55.913 -39.347  50.951 -34.383 V-47.693 H43.729 V-34.383 Z"/></g><g id="Regular-S" transform="matrix(1 0 0 1 1405.73 696)"><path d="M19.972 -3.078 V-67.382 H74.758 V-3.078 H19.972 Z M26.579 -9.686 H68.15 V-60.774 H26.579 V-9.686 Z M44.036 -33.652  38.365 -39.372  33.631 -34.638  47.34 -20.929  61.049 -34.638  56.315 -39.323  50.644 -33.652 V-47.953 H44.036 V-33.652 Z"/></g><g id="Light-S" transform="matrix(1 0 0 1 1109.75 696)"><path d="M21.755 -4.861 V-65.599 H73.013 V-4.861 H21.755 Z M26.485 -9.591 H68.283 V-60.869 H26.485 V-9.591 Z M45.022 -31.3  38.328 -38.063  34.902 -34.638  47.377 -22.162  59.778 -34.562  56.352 -37.92  49.752 -31.3 V-46.72 H45.022 V-31.3 Z"/></g><g id="Thin-S" transform="matrix(1 0 0 1 814.015 696)"><path d="M23.537 -6.644 V-63.816 H71.268 V-6.644 H23.537 Z M26.39 -9.497 H68.415 V-60.963 H26.39 V-9.497 Z M46.009 -28.949  38.289 -36.755  36.173 -34.638  47.416 -23.395  58.507 -34.486  56.391 -36.516  48.861 -28.949 V-45.487 H46.009 V-28.949 Z"/></g><g id="Ultralight-S" transform="matrix(1 0 0 1 517.792 696)"><path d="M24.607 -7.714 V-62.746 H70.221 V-7.714 H24.607 Z M26.333 -9.44 H68.495 V-61.02 H26.333 V-9.44 Z M46.6 -27.537  38.267 -35.97  36.935 -34.638  47.439 -24.135  57.745 -34.441  56.413 -35.674  48.326 -27.537 V-44.747 H46.6 V-27.537 Z"/></g></g></svg>