<svg xmlns="http://www.w3.org/2000/svg" height="48" viewBox="0 -960 960 960" width="48"><path d="M153.07-353.07v-254.36V-353.07ZM120-287.43q-13.17 0-22.87-9.7-9.7-9.7-9.7-22.87v-320q0-13.17 9.7-23.12 9.7-9.95 22.87-9.95h452.09q14.17 0 23.62 9.45 9.44 9.45 9.44 23.62 0 14.17-9.44 23.37-9.45 9.2-23.62 9.2H153.07v254.36h396.32q14.18 0 23.62 9.45 9.45 9.45 9.45 23.62 0 14.17-9.45 23.37-9.44 9.2-23.62 9.2H120Zm583.72-160H609.2q-11.2 0-15.67-8.95-4.46-8.95 2.49-17.4l131.39-163.57q4.48-4.98 9.45-6.1 4.97-1.12 10.19 1.12 5.23 2.24 7.34 7.09 2.11 4.85 1.61 11.07l-19.72 111.1h95.02q10.7 0 15.17 9.2 4.46 9.2-1.99 17.15L712.83-323.15q-4.72 5.48-9.69 6.1-4.97.62-10.19-1.62-5.23-2.24-7.34-6.59-2.11-4.35-.87-11.07l18.98-111.1Z"/></svg>