<svg xmlns="http://www.w3.org/2000/svg" height="48" viewBox="0 -960 960 960" width="48"><path d="M159.15-359.15v-242.7 242.7ZM120-281.85q-15.86 0-27.01-11.14Q81.85-304.14 81.85-320v-320q0-15.86 11.14-27.51 11.15-11.64 27.01-11.64h439.17q15.86 0 27.51 11.64 11.65 11.65 11.65 27.51 0 15.86-11.65 27.01-11.65 11.14-27.51 11.14H159.15v242.7h376.31q15.86 0 27 11.6 11.15 11.59 11.15 27.55t-11.15 27.05q-11.14 11.1-27 11.1H120Zm577.37-160h-94.52q-12.55 0-17.99-10.6-5.45-10.59 3.03-20.07l142.07-177.26q5.28-5.94 11.73-7.47 6.46-1.53 11.58 1.73t7.98 8.36q2.86 5.09 2.86 12.33l-20.48 115.68h93.52q12.55 0 17.99 11.1 5.45 11.09-2.03 20.57L710.28-310.22q-5.52 5.94-11.97 6.97-6.46 1.03-11.58-2.23t-7.98-7.86q-2.86-4.59-1.62-12.83l20.24-115.68Z"/></svg>