<svg xmlns="http://www.w3.org/2000/svg" height="20" viewBox="0 -960 960 960" width="20"><path d="M148.19-315.5q-12.69 0-18.69-6-6-6-6-18.12v-280.76q0-12.12 6-18.37 6-6.25 18.79-6.25H607.5q3.8 0 5.4 2.6 1.6 2.6 1.6 6.4L513-460.5q-25.5 43.5 0 85.5t74.32 42q3.18 0 5.93 2.54 2.75 2.54 2.75 6.25t-2.6 6.21q-2.6 2.5-6.4 2.5H148.19Zm582.31-129h-80q-7.37 0-10.94-6.25Q636-457 640-463.5l55.94-119.97q2.56-4.53 6.81-6.53t8-.17q3.75 1.84 6 5.59t1.75 8.58l-9 60H790q6.88 0 10.44 6.5 3.56 6.5.06 12.5l-56.44 119.97q-2.56 5.03-6.81 7.03t-8 .17q-3.75-1.84-6-5.59T722-384.5l8.5-60Z"/></svg>