<svg xmlns="http://www.w3.org/2000/svg" height="24" viewBox="0 -960 960 960" width="24"><path d="M181.48-381.48v-197.04 210.74-13.7ZM120-258.52q-25.17 0-43.32-18.16Q58.52-294.83 58.52-320v-320q0-25.17 18.16-43.32 18.15-18.16 43.32-18.16h418.74q25.16 0 43.32 18.16 18.16 18.15 18.16 43.32t-18.16 43.32q-18.16 18.16-43.32 18.16H181.48v197.04h327q25.16 0 43.32 18.04 18.16 18.05 18.16 43.44 0 25.39-18.16 43.44-18.16 18.04-43.32 18.04H120Zm549.83-160h-90.31q-19.42 0-28.26-17.26-8.83-17.26 3.87-32.52l184.26-230.79q8.23-8.99 18.37-10.56 10.15-1.57 19 2.43t14.2 12.2q5.34 8.19 3.34 20.32l-24.13 133.22h90.31q19.42 0 28.26 17.26 8.83 17.26-3.87 32.52L700.61-260.91q-8.23 8.99-18.37 10.56-10.15 1.57-19-2.43t-14.2-12.2q-5.34-8.19-3.34-20.32l24.13-133.22Z"/></svg>