<svg xmlns="http://www.w3.org/2000/svg" height="20" viewBox="0 -960 960 960" width="20"><path d="M148.19-314q-13.19 0-19.69-6.5-6.5-6.5-6.5-19.12v-280.76q0-12.62 6.5-19.12 6.5-6.5 19.79-6.5H603q4.3 0 6.15 2.85Q611-640.3 611-636L509-460q-25 43 0 84.5t73.32 41.5q3.68 0 6.68 2.79 3 2.79 3 7t-2.85 7.21q-2.85 3-7.15 3H148.19ZM729-443h-80q-7.37 0-11.19-6.5Q634-456 638-463l58.44-122.97Q699-591 703.5-593t8.5-.17q4 1.84 6.5 5.84T720-578l-9 61h80q7.38 0 11.19 6.5Q806-504 802-497l-58.44 122.97Q741-369 736.5-367t-8.5.17q-4-1.84-6.5-5.84T720-382l9-61Z"/></svg>