<svg xmlns="http://www.w3.org/2000/svg" height="20" viewBox="0 -960 960 960" width="20"><path d="M181-373v-214 214Zm-48.81 98q-22.28 0-35.73-13.46Q83-301.91 83-323.62v-312.76q0-21.71 13.46-35.16Q109.91-685 132.29-685h441.97q20.39 0 34.69 14.25 14.31 14.24 14.31 34.54 0 20.3-14.31 34.75Q594.65-587 574.26-587H181v214h361.87q20.39 0 34.69 14.25 14.31 14.24 14.31 34.54 0 20.3-14.31 34.75Q563.26-275 542.87-275H132.19Zm550.55-144h-85.31q-15.33 0-22.12-13.67-6.79-13.68 3.04-26.07l155.74-211.92q6.26-8.3 14.52-9.58 8.26-1.28 14.96 1.68 6.69 2.96 11.04 10.16 4.35 7.2 2.35 16.79L757.26-541h85.31q15.33 0 22.12 13.67 6.79 13.68-3.04 26.07L705.91-289.33q-6.26 8.29-14.52 9.57-8.26 1.28-14.96-1.68-6.69-2.96-11.04-10.16-4.35-7.2-2.35-16.79L682.74-419Z"/></svg>