<svg xmlns="http://www.w3.org/2000/svg" height="48" viewBox="0 -960 960 960" width="48"><path d="M126.15-298.42q-11.49 0-19.61-8.12t-8.12-19.61v-307.7q0-11.49 8.12-19.95 8.12-8.47 19.61-8.47h454.31q9.8 0 15.65 6.24 5.85 6.23 5.85 16.03L487.85-486.31q-33.54 45.23-8.32 94.64 25.22 49.4 81.16 49.4 9.8 0 16.04 6.24 6.23 6.24 6.23 16.04 0 9.8-6.23 15.68-6.24 5.89-16.04 5.89H126.15Zm590.62-154.23h-91.73q-9.68 0-13.4-7.47-3.72-7.46 1.61-14.72L714.54-613.5q3.66-4.4 7.98-5.84 4.33-1.43 8.79.38 4.46 1.81 6.4 6.15 1.94 4.35 2.02 9.46l-16.5 95.31h92.42q8.99 0 12.71 7.81 3.72 7.81-.91 14.38L725.46-347.19q-3.66 5.09-7.98 6.03-4.33.93-8.79-.88-4.46-1.81-6.4-5.65-1.94-3.85-1.33-9.66l15.81-95.3Z"/></svg>