<svg xmlns="http://www.w3.org/2000/svg" height="48" viewBox="0 -960 960 960" width="48"><path d="M126.15-291.31q-14.6 0-24.72-10.12t-10.12-24.72v-307.7q0-14.6 10.12-25.22t24.72-10.62h439.54q11.92 0 20.42 8.89 8.5 8.89 8.5 20.8L477.38-482q-31.23 41.92-7.81 87.12 23.41 45.19 75.05 45.19 11.91 0 20.3 8.89t8.39 20.81q0 11.91-8.39 20.3-8.39 8.38-20.3 8.38H126.15Zm582.7-154.23h-91.93q-11.29 0-16.26-9.61-4.97-9.62 2.16-18.19l115.03-155.5q4.65-5.91 10.63-7.84 5.98-1.93 10.6 1.37 4.61 3.31 7.3 7.81 2.7 4.5 3.08 11.12l-17.31 100.92h90.93q11.29 0 16.26 10.11 4.97 10.12-1.16 18.69l-116.03 155.5q-4.65 5.91-10.63 7.34-5.98 1.43-10.6-1.87-4.61-3.31-7.3-7.31-2.7-4-2.08-11.62l17.31-100.92Z"/></svg>