<svg xmlns="http://www.w3.org/2000/svg" height="20" viewBox="0 -960 960 960" width="20"><path d="M138.34-300.12q-14.53 0-22.38-7.84-7.84-7.85-7.84-21.81v-300.46q0-13.96 7.84-21.9 7.85-7.95 22.48-7.95h468.75q9.96 0 16.63 7.07 6.68 7.06 6.68 17.01L518.54-466.35q-25.81 38.89-3.39 78.58 22.43 39.69 67.86 39.69 9.34 0 16.55 7 7.21 7.01 7.21 16.87 0 9.86-7.06 16.98-7.06 7.11-17.02 7.11H138.34Zm574.01-138.23h-84.62q-9.22 0-13.4-8.25-4.17-8.25 1.36-15.67l99.63-154.43q3.79-5.14 8.81-6.53 5.02-1.38 9.23.45 4.22 1.83 7.08 6.35 2.87 4.52 1.44 10.59l-14.23 83.99h84.81q9.03 0 13.21 8.35 4.17 8.35-1.17 15.58L724.68-343.5q-3.79 5.34-8.81 6.73-5.02 1.38-9.23-.45-4.22-1.83-7.08-6.35-2.87-4.52-1.25-10.78l14.04-84Z"/></svg>