<svg xmlns="http://www.w3.org/2000/svg" height="20" viewBox="0 -960 960 960" width="20"><path d="M196-388v-184 216-32Zm-63.81 128q-27.79 0-45.99-18.2Q68-296.4 68-323.62v-312.76q0-27.22 18.2-45.42 18.2-18.2 46.09-18.2H547q25.9 0 44.95 18.99Q611-662.02 611-636.21t-19.05 45.01Q572.9-572 547-572H196v184h316q25.9 0 44.95 18.79 19.05 18.79 19.05 45T556.95-279Q537.9-260 512-260H132.19ZM665-404h-83q-19.67 0-28.83-18-9.17-18 3.83-34l183.44-246.97q8.73-9.78 19.64-11.41Q771-716 779.5-712.17q8.5 3.84 14 12.84T797-678l-22 122h83q19.67 0 28.83 18 9.17 18-3.83 34L699.56-257.03q-8.73 9.78-19.64 11.4-10.92 1.63-19.42-2.2-8.5-3.84-14-12.84T643-282l22-122Z"/></svg>