<svg xmlns="http://www.w3.org/2000/svg" height="40" viewBox="0 -960 960 960" width="40"><path d="M132.31-304.14q-12.05 0-20.11-8.06-8.06-8.06-8.06-20.11v-295.38q0-12.05 8.06-20.47 8.06-8.42 20.11-8.42h451.1q7.33 0 11.19 4.62 3.85 4.63 3.85 11.96l-109.3 159.69q-31.92 46.23-5.84 94.98 26.08 48.75 81.74 48.75 7.33 0 11.96 4.63 4.62 4.62 4.62 11.96 0 7.34-4.62 11.59-4.63 4.26-11.96 4.26H132.31ZM723.59-452.6h-88.22q-9.47 0-13.42-7.45-3.95-7.45 1-14.75l81.02-126.19q3.37-4.45 7.98-6.28t9.04-.09q4.42 1.74 6.84 6.22 2.41 4.47 2.57 9.61l-13.99 83.41h88.94q8.75 0 12.7 7.81 3.95 7.81-.29 14.39l-81.73 126.19q-3.37 5.17-7.98 6.67t-9.04-.25q-4.42-1.74-6.84-5.88-2.41-4.14-1.85-10l13.27-83.41Z"/></svg>