<svg xmlns="http://www.w3.org/2000/svg" height="24" viewBox="0 -960 960 960" width="24"><path d="M126.15-292.12q-14.34 0-24.19-9.84-9.84-9.85-9.84-24.19v-307.7q0-14.34 9.84-24.28 9.85-9.95 24.19-9.95h461.04q11.66 0 19.48 8.22 7.83 8.21 7.83 19.86L497.54-482.35q-30.81 41.89-7.39 88.08 23.43 46.19 75.54 46.19 11.66 0 19.87 8.22 8.21 8.21 8.21 19.86 0 11.65-8.21 19.77-8.21 8.11-19.87 8.11H126.15Zm583.2-154.23h-90.62q-10.84 0-15.71-9.25-4.86-9.25 1.67-17.67l112.19-153.46q4.23-5.11 9.75-6.5 5.52-1.38 10.73.62 5.22 2 8.58 7.02 3.37 5.01 1.94 11.75l-17.23 99.99h90.81q10.65 0 15.52 9.35 4.86 9.35-1.48 17.58L723.12-333.46q-4.23 5.3-9.75 6.69-5.52 1.38-10.73-.62-5.22-2-8.58-7.02-3.37-5.01-1.75-11.94l17.04-100Z"/></svg>