<svg xmlns="http://www.w3.org/2000/svg" height="20" viewBox="0 -960 960 960" width="20"><path d="M132.19-282.5q-19.34 0-30.52-11.17-11.17-11.18-11.17-29.95v-312.76q0-18.77 11.17-29.95 11.18-11.17 30.62-11.17h455.67q17.45 0 29.47 12.02 12.03 12.03 12.03 29.48L506.83-465.41q-22.85 32.13-4.79 66.02 18.07 33.89 56.8 33.89 16.83 0 29.01 11.96 12.17 11.97 12.17 29.33T588-294.67q-12.03 12.17-29.48 12.17H132.19Zm559.35-144h-86.28q-13.05 0-18.7-11.55-5.65-11.56 2.55-21.99l141.72-194.65q5.28-6.98 12.24-8.1 6.95-1.12 12.67 1.19t9.58 8.53q3.85 6.21 1.85 14.5L748.46-533.5h86.28q13.05 0 18.7 11.55 5.65 11.56-2.55 21.99L709.17-305.31q-5.28 6.98-12.24 8.1-6.95 1.12-12.67-1.19t-9.58-8.53q-3.85-6.21-1.85-14.5l18.71-105.07Z"/></svg>