<svg xmlns="http://www.w3.org/2000/svg" height="48" viewBox="0 -960 960 960" width="48"><path d="M162.09-362.09v-236.82V-362.09ZM120-278.91q-17.03 0-29.06-12.03Q78.91-302.97 78.91-320v-320q0-17.03 12.03-29.56 12.03-12.53 29.06-12.53h433.96q17.03 0 29.56 12.53 12.52 12.53 12.52 29.56t-12.52 29.06q-12.53 12.03-29.56 12.03H162.09v236.82h367.17q17.04 0 29.06 12.42 12.03 12.41 12.03 29.67t-12.03 29.17q-12.02 11.92-29.06 11.92H120Zm573.78-160h-93.87q-13.29 0-19.34-11.42-6.05-11.41 3.08-21.54L731.26-656.3q5.66-5.86 12.74-7.43 7.09-1.57 12.37 1.36 5.28 2.93 8.63 8.85 3.35 5.91 3.35 13.48l-21.13 117.95h92.87q13.29 0 19.34 11.92 6.05 11.91-2.08 22.04L709.3-303.7q-6.22 5.86-13.3 6.93-7.09 1.07-12.37-1.86-5.28-2.93-8.63-8.35-3.35-5.41-1.78-13.98l20.56-117.95Z"/></svg>