<svg xmlns="http://www.w3.org/2000/svg" height="48" viewBox="0 -960 960 960" width="48"><path d="M132.31-305.35q-11.48 0-19.22-7.74-7.74-7.74-7.74-19.22v-295.38q0-11.48 7.74-19.67 7.74-8.18 19.22-8.18h449.11q7.1 0 10.55 4.22 3.45 4.22 3.45 11.32L486.69-481.12q-32.57 46.97-6.13 96.27 26.44 49.31 82.82 49.31 7.1 0 11.32 4.23 4.22 4.22 4.22 11.32 0 7.11-4.22 10.87-4.22 3.77-11.32 3.77H132.31Zm592.73-148.46h-88.46q-9.36 0-13.05-7.17-3.68-7.17.96-14.2l79.09-123.32q3.31-4.31 7.71-6.17 4.4-1.87 8.58-.25 4.17 1.61 6.3 6.05 2.14 4.45 2.79 9.18l-14 82.61h89.35q8.47 0 12.16 7.62 3.68 7.61-.08 13.76l-79.97 123.32q-3.31 5.19-7.71 6.55-4.4 1.37-8.58-.25-4.17-1.61-6.3-5.55-2.14-3.95-1.91-9.56l13.12-82.62Z"/></svg>