<svg xmlns="http://www.w3.org/2000/svg" height="20" viewBox="0 -960 960 960" width="20"><path d="M479.95-464q22.37 0 37.71-15.13t15.34-37.5Q533-539 517.87-555q-15.13-16-37.5-16-22.37 0-38.87 15.79-16.5 15.79-16.5 38.16 0 22.37 16.29 37.71T479.95-464ZM449-260h61l149 149q-42 20-86 30.5T480.15-70q-48.86 0-93.5-11Q342-92 300-112l149-148Zm30.79-630q84.21 0 159.07 32.2 74.87 32.2 130.8 88.14 55.94 55.93 88.14 130.65T890-480q0 92.88-37 171.94T751-173L618-307q38-30 60-75.11T700-480q0-91.67-64.24-155.83-64.23-64.17-156-64.17Q388-700 324-635.83 260-571.67 260-480q0 52.78 22.07 97.18Q304.13-338.42 342-308L208-174q-65-56-101.5-135.28T70-480q0-84.29 32.2-159.01 32.2-74.72 88.14-130.65 55.93-55.94 130.58-88.14T479.79-890Zm.21 287q51.5 0 87.25 35.75T603-480q0 51.5-35.75 87.25T480-357q-51.5 0-87.25-35.75T357-480q0-51.5 35.75-87.25T480-603ZM121.79-47Q144-47 160-62.79t16-38Q176-123 160.21-139t-38-16Q100-155 84-139.21t-16 38Q68-79 83.79-63t38 16Zm-94 108Q50 61 66 45.21t16-38Q82-15 66.21-31t-38-16Q6-47-10-31.21t-16 38Q-26 29-10.21 45t38 16ZM838.21-47Q816-47 800-62.79t-16-38Q784-123 799.79-139t38-16Q860-155 876-139.21t16 38Q892-79 876.21-63t-38 16Zm94 108Q910 61 894 45.21t-16-38Q878-15 893.79-31t38-16Q954-47 970-31.21t16 38Q986 29 970.21 45t-38 16Z"/></svg>