<svg xmlns="http://www.w3.org/2000/svg" height="48" viewBox="0 -960 960 960" width="48"><path d="M479.67-481q18.16 0 30.25-11.34Q522-503.68 522-521.84q0-17.16-12.08-29.91-12.09-12.75-30.25-12.75-17.17 0-29.67 12.81t-12.5 29.35q0 18.66 12.5 30T479.67-481ZM380.5-208.5h200l89.5 89.61Q627.5-95.2 579.14-82.6 530.78-70 480.15-70q-50.81 0-99.48-11.75T289-117.5l91.5-91ZM479.46-891q85.54 0 160.04 32.5Q714-826 770-770t88.5 130.37Q891-565.26 891-480.11q0 95.28-39.75 176.45Q811.5-222.5 744-166.5l-98-97.22q47.86-37.24 76.68-93.49Q751.5-413.46 751.5-480q0-113.08-79.38-192.54T479.76-752Q368-752 288-672.64q-80 79.35-80 192.29 0 67.08 29.16 122.53 29.16 55.44 77.34 93.1L217-167.5q-67.84-56.18-107.42-137.28T70-480.1q0-85.05 31.83-159.53 31.84-74.49 87.75-130.43Q245.5-826 320.21-858.5q74.7-32.5 159.25-32.5Zm.92 216q81.78 0 138.2 56.46 56.42 56.46 56.42 138Q675-399 618.54-342q-56.46 57-138 57Q399-285 342-341.9q-57-56.9-57-138.48 0-81.78 56.9-138.2Q398.8-675 480.38-675ZM106.5-48.5q17 0 29.75-12t12.75-30q0-17-12.81-29.75T107-133q-18.5 0-30.5 12.81T64.5-91q0 18.5 12 30.5t30 12ZM10 58.5q17.5 0 30.25-12T53 16.5q0-17-12.75-29.75T10.5-26q-18 0-30 12.81T-31.5 16q0 18.5 12.06 30.5T10 58.5Zm844-107q-17.5 0-30-12t-12.5-30q0-17 12.5-29.75T853.5-133q18 0 30.25 12.81T896-91q0 18.5-12.31 30.5T854-48.5Zm95.51 107q-17.01 0-29.01-12t-12-30q0-17 12-29.75T949.51-26q18.01 0 30.75 12.81Q993-.38 993 16q0 18.5-12.74 30.5t-30.75 12Z"/></svg>