<svg xmlns="http://www.w3.org/2000/svg" height="40" viewBox="0 -960 960 960" width="40"><path d="M480.16-482q14.49 0 25-10.56t10.51-24.67q0-15.1-10.65-25.77-10.64-10.67-24.86-10.67-15.49 0-25.99 10.61-10.5 10.61-10.5 25.55 0 14.23 10.5 24.87T480.16-482ZM368.67-246.67H591l73 72q-40.67 25-86.83 38.5-46.17 13.5-97 13.5-50.84 0-97.25-13.31Q336.5-149.28 296-174l72.67-72.67Zm110.8-590.66q73.23 0 138.38 28 65.15 28 114.29 77.19t77.17 114.08q28.02 64.88 28.02 138.06 0 87.32-37.5 159.66T698.67-200l-87.34-87.33Q657-318 685.5-368.62 714-419.23 714-480q0-97.53-68.2-166.26Q577.61-715 480.14-715T315-646.26Q247.33-577.53 247.33-480q0 60.77 27.84 111.38Q303-318 349.33-287.33L262-200q-64.33-48-101.83-120.34T122.67-480q0-73.19 28.16-138.1Q179-683 227.62-732.14q48.62-49.14 113.12-77.17 64.5-28.02 138.73-28.02Zm.86 164.66q80.34 0 136.84 56t56.5 136.34q0 80.66-56.5 136.5Q560.67-288 480.33-288q-80.66 0-136.5-55.83Q288-399.67 288-480.33q0-80.34 55.83-136.34 55.84-56 136.5-56ZM124.67-86q15.33 0 25.66-10.83 10.34-10.84 10.34-25.17 0-15.33-10.34-25.67Q140-158 124.67-158q-14.34 0-25.17 10.33Q88.67-137.33 88.67-122q0 14.33 10.83 25.17Q110.33-86 124.67-86Zm-100 100Q40 14 50.33 3.17 60.67-7.67 60.67-22q0-15.33-10.34-25.67Q40-58 24.67-58 10.33-58-.5-47.67-11.33-37.33-11.33-22q0 14.33 10.83 25.17Q10.33 14 24.67 14ZM835.33-86Q820-86 809.67-96.83q-10.34-10.84-10.34-25.17 0-15.33 10.34-25.67Q820-158 835.33-158q14.34 0 25.17 10.33 10.83 10.34 10.83 25.67 0 14.33-10.83 25.17Q849.67-86 835.33-86Zm100 100Q920 14 909.67 3.17 899.33-7.67 899.33-22q0-15.33 10.34-25.67Q920-58 935.33-58q14.34 0 25.17 10.33Q971.33-37.33 971.33-22q0 14.33-10.83 25.17Q949.67 14 935.33 14Z"/></svg>