<svg xmlns="http://www.w3.org/2000/svg" height="48" viewBox="0 -960 960 960" width="48"><path d="M480.16-484.77q15.62 0 25.88-10.34 10.27-10.35 10.27-25.39 0-14.81-10.47-25.85-10.46-11.03-25.68-11.03-15.39 0-25.93 10.95t-10.54 25.51q0 15.22 10.54 25.69 10.54 10.46 25.93 10.46ZM355.31-226h250.61L674-158.31q-42.69 26.85-91.69 41.08Q533.31-103 480-103t-102.39-13.73q-49.08-13.73-91.61-40.58L355.31-226Zm124-631q78.13 0 146.95 29.46t120.28 81Q798-695 827.5-626.5 857-558 857-480q0 87.43-36.08 161.52t-98.46 125.02l-86.54-85.93q44.77-34.3 71.92-86.74Q735-418.56 735-480q0-106.1-74.4-180.74-74.4-74.64-180.42-74.64-106.03 0-179.91 74.64T226.39-480q0 61.44 26.46 113.87 26.46 52.44 72.23 86.74l-86.54 85.93q-62.77-50.93-99.15-125.02Q103-392.57 103-480q0-78.03 29.96-146.55 29.96-68.53 81.26-119.99 51.3-51.46 119.25-80.96Q401.42-857 479.31-857Zm1.19 181q81.5 0 139 57T677-480.5q0 81.5-57.5 138.81t-139 57.31q-81.5 0-138.81-57.31T284.38-480.5q0-81.5 57.31-138.5t138.81-57ZM127.69-89.39q15.23 0 25.77-10.42T164-125.69q0-15.23-10.54-25.77T127.69-162q-15.46 0-25.88 10.54-10.42 10.54-10.42 25.77 0 15.46 10.42 25.88 10.42 10.42 25.88 10.42Zm-95 95q15.23 0 25.77-10.42T69-30.69q0-15.23-10.54-25.77T32.69-67Q17.23-67 6.81-56.46-3.61-45.92-3.61-30.69q0 15.46 10.42 25.88Q17.23 5.61 32.69 5.61Zm799.62-95q-15.23 0-25.77-10.42T796-125.69q0-15.23 10.54-25.77T832.31-162q15.46 0 25.88 10.54 10.42 10.54 10.42 25.77 0 15.46-10.42 25.88-10.42 10.42-25.88 10.42Zm95 95q-15.23 0-25.77-10.42T891-30.69q0-15.23 10.54-25.77T927.31-67q15.46 0 25.88 10.54 10.42 10.54 10.42 25.77 0 15.46-10.42 25.88-10.42 10.42-25.88 10.42Z"/></svg>