<svg xmlns="http://www.w3.org/2000/svg" height="48" viewBox="0 -960 960 960" width="48"><path d="M479.97-482.87q18.1 0 29.41-10.83 11.32-10.83 11.32-28.35 0-16.52-11.52-28.8-11.51-12.28-29.21-12.28-17.1 0-28.6 12.23t-11.5 28.15q0 17.97 11.5 28.93 11.5 10.95 28.6 10.95ZM366.09-208.74h229.82l78.48 78.48q-42.74 25.74-92.54 39.04-49.81 13.31-101.77 13.31-52.52 0-102.21-12.62-49.69-12.61-92.83-38.73l81.05-79.48Zm112.95-673.91q83.58 0 157.18 31.85 73.61 31.84 128.13 86.45 54.53 54.6 86.42 127.8 31.88 73.2 31.88 156.55 0 91.97-37.48 171.01-37.47 79.03-102.87 133.03l-92.82-91.82q46.26-37 74.24-92.34Q751.7-415.46 751.7-480q0-112.67-79.5-192.18-79.5-79.52-192.16-79.52-112.04 0-191.39 79.46-79.35 79.45-79.35 192.04 0 64.29 27.52 119.45 27.52 55.17 74.7 92.4l-92.82 91.83q-65.59-54.67-103.19-133.34-37.6-78.67-37.6-170.14 0-83.4 31.69-156.65t86.53-127.74q54.84-54.49 127.31-86.38 72.46-31.88 155.6-31.88Zm1.7 206.08q81.16 0 138.71 57.33Q677-561.9 677-480.74q0 81.17-57.55 139.24-57.55 58.07-138.71 58.07-81.17 0-139.24-58.07-58.07-58.07-58.07-139.24 0-81.16 58.07-138.5 58.07-57.33 139.24-57.33ZM117.93-67.61q16.85 0 28.63-11.28 11.79-11.28 11.79-29.13 0-16.85-11.82-28.63-11.82-11.78-28.31-11.78-18.13 0-29.42 11.81-11.28 11.82-11.28 28.32 0 18.13 11.28 29.41 11.29 11.28 29.13 11.28ZM23.78 31.91q17.13 0 28.92-11.28Q64.48 9.35 64.48-8.5q0-16.85-11.78-28.63-11.79-11.78-28.64-11.78-17.84 0-29.13 11.82-11.28 11.81-11.28 28.31 0 18.13 11.32 29.41Q6.29 31.91 23.78 31.91Zm818.57-99.52q-17.13 0-28.91-11.28-11.79-11.28-11.79-29.13 0-16.85 11.79-28.63 11.78-11.78 28.63-11.78 17.84 0 29.13 11.81 11.28 11.82 11.28 28.32 0 18.13-11.32 29.41-11.32 11.28-28.81 11.28Zm93.59 99.52q-16.85 0-28.35-11.28T896.09-8.5q0-16.85 11.5-28.63 11.5-11.78 28.35-11.78 17.85 0 29.41 11.82 11.56 11.81 11.56 28.31 0 18.13-11.56 29.41-11.56 11.28-29.41 11.28Z"/></svg>