<svg xmlns="http://www.w3.org/2000/svg" height="40" viewBox="0 -960 960 960" width="40"><path d="M480.16-477.33q19.49 0 32.16-12.73Q525-502.79 525-521.89q0-18.44-12.81-32.11-12.81-13.67-32.03-13.67-18.83 0-32.33 13.61t-13.5 31.88q0 19.23 13.5 32.04 13.5 12.81 32.33 12.81ZM356-211.33h249.67l82.66 82.66q-46 28-98.5 43t-109.66 15q-57.17 0-109.75-14.47Q317.84-99.62 272-128l84-83.33Zm123.47-678q85.23 0 159.88 32 74.65 32 130.29 87.69 55.64 55.69 87.67 130.08 32.02 74.38 32.02 159.56 0 89.66-35.5 166.99-35.5 77.34-97.16 133.34l-98.67-98q42-37 66.83-89.45 24.84-52.45 24.84-112.88 0-112.19-78.7-190.93-78.7-78.74-190.83-78.74-112.14 0-190.64 78.74Q211-592.19 211-480q0 60.43 24.5 112.88 24.5 52.45 67.17 89.45l-98.67 98q-61.67-56-97.5-133.34Q70.67-390.34 70.67-480q0-85.19 32.33-159.6 32.33-74.4 88.12-130.04 55.79-55.64 129.79-87.67 74-32.02 158.56-32.02Zm.86 224.66q77 0 131.17 53.67 54.17 53.67 54.17 130.67 0 77-54.17 131t-131.17 54q-77 0-131-54t-54-131q0-77 54-130.67 54-53.67 131-53.67ZM120-72q18.67 0 32-13 13.33-13 13.33-32.33 0-18.67-13.33-32-13.33-13.34-32-13.34-19.33 0-32.33 13.34-13 13.33-13 32 0 19.33 13 32.33T120-72ZM20 28q18.67 0 32-13Q65.33 2 65.33-17.33q0-18.67-13.33-32-13.33-13.34-32-13.34-19.33 0-32.33 13.34-13 13.33-13 32 0 19.33 13 32.33T20 28ZM840-72q-18.67 0-32-13-13.33-13-13.33-32.33 0-18.67 13.33-32 13.33-13.34 32-13.34 19.33 0 32.33 13.34 13 13.33 13 32 0 19.33-13 32.33T840-72ZM940 28q-18.67 0-32-13-13.33-13-13.33-32.33 0-18.67 13.33-32 13.33-13.34 32-13.34 19.33 0 32.33 13.34 13 13.33 13 32 0 19.33-13 32.33T940 28Z"/></svg>