<svg xmlns="http://www.w3.org/2000/svg" height="48" viewBox="0 -960 960 960" width="48"><path d="M479.82-482q18.83 0 30.5-10.76 11.68-10.77 11.68-29 0-17.24-11.88-29.74-11.87-12.5-30.3-12.5-17.82 0-29.32 12.47-11.5 12.48-11.5 28.85 0 18.91 11.5 29.8Q462-482 479.82-482ZM380-207h202l85 85q-41 24-89.5 36t-97.35 12q-49.86 0-98.09-11.31Q333.84-96.62 292-121l88-86Zm98.84-680q84.21 0 158.69 32.5Q712-822 766.96-766.96q54.96 55.04 87.5 129.05Q887-563.9 887-480q0 94.58-39 175.79T741-169l-95-94q48-37 77.5-93.68Q753-413.36 753-480q0-113-80.02-193-80.01-80-193.04-80Q368-753 288-673.1t-80 192.75q0 66.17 29.07 122.55Q266.13-301.42 315-264l-95 94q-68.34-55.18-107.17-135.75T74-480q0-83.98 31.83-158.05 31.84-74.07 87.19-128.97 55.34-54.9 128.47-87.44T478.84-887Zm2.08 210q80.91 0 138.5 57.58Q677-561.83 677-480.92q0 80.92-57.58 139.42-57.59 58.5-138.5 58.5-80.92 0-139.42-58.5Q283-400 283-480.92q0-80.91 58.5-138.5Q400-677 480.92-677ZM112.5-55Q130-55 142-66.5t12-30q0-17.5-12.06-29.5T113-138q-19 0-30.5 12.06T71-97q0 19 11.5 30.5t30 11.5ZM19 48q18 0 30-11.5t12-30Q61-11 49-23T19.5-35Q1-35-10.5-22.94T-22 6q0 19 11.56 30.5Q1.13 48 19 48ZM848-55q-18 0-30-11.5t-12-30q0-17.5 12-29.5t29.5-12q18.5 0 30 12.06T889-97q0 19-11.56 30.5T848-55Zm92.51 103Q923 48 911.5 36.5T900 6.5Q900-11 911.5-23t29.01-12q18.51 0 30.5 12.06Q983-10.88 983 6q0 19-11.99 30.5T940.51 48Z"/></svg>