<svg xmlns="http://www.w3.org/2000/svg" height="40" viewBox="0 -960 960 960" width="40"><path d="M115.86-63.15q19.14 0 32.71-13.24t13.57-33.05q0-19.15-13.58-32.72t-32.63-13.57q-19.89 0-33.13 13.58-13.23 13.58-13.23 32.63 0 19.89 13.23 33.13 13.24 13.24 33.06 13.24ZM15.78 39.48q19.22 0 32.79-13.24Q62.15 13 62.15-6.81q0-19.15-13.58-32.72Q35-53.1 15.86-53.1q-19.82 0-33.05 13.58-13.24 13.58-13.24 32.63 0 19.89 13.25 33.13 13.24 13.24 32.96 13.24Zm464.34-516.02q-19.34 0-33-12.81t-13.66-32.43q0-18.95 13.66-32.86 13.66-13.9 33-13.9 20.01 0 32.96 13.85 12.96 13.86 12.96 32.55 0 19.82-13.09 32.71t-32.83 12.89Zm-70.43 213.39-73.6 72.18q32.67 16.6 68.69 25.77 36.02 9.18 75.21 9.18 39.36 0 76.13-8.76 36.78-8.76 69.46-26.19l-72.94-72.18H409.69Zm70.13-540.83q-66.92 0-125.86 25.4-58.95 25.4-102.94 69.48-44 44.07-69.5 103.31T156.02-480q0 71.11 28.66 132.86 28.65 61.75 77.36 105.76l76.09-75.42q-35.09-29.91-55.08-71.73-19.99-41.82-19.99-91.47 0-91.34 63.27-154.47 63.27-63.14 154-63.14 90.88 0 154.08 63.14 63.2 63.13 63.2 154.47 0 49.59-20.32 91.15-20.31 41.55-55.42 71.39l76.09 75.42q48.63-44.02 77.32-105.31 28.7-61.29 28.7-132.65 0-66.69-25.36-126.05-25.35-59.35-69.37-103.1-44.02-43.76-103.38-69.29-59.36-25.54-126.05-25.54Zm-.09 192.33q-54.9 0-93.19 38.18-38.29 38.17-38.29 93.74 0 54.9 38.07 93.14t93.27 38.24q55.86 0 93.96-38.37 38.1-38.38 38.1-93.08 0-55.37-38.18-93.61-38.17-38.24-93.74-38.24Zm.36 543.79q-85.39 0-160.5-32.34-75.1-32.34-131.29-88.36-56.19-56.03-88.74-131.02Q67-394.57 67-479.92q0-85.54 32.55-160.85 32.54-75.32 88.84-131.39 56.29-56.07 130.91-88.53 74.62-32.47 160.08-32.47 85.88 0 161.29 32.44 75.4 32.44 131.48 88.61 56.08 56.18 88.54 131.27 32.47 75.09 32.47 160.89 0 85.38-32.51 160.26-32.5 74.88-88.64 130.95-56.14 56.06-131.19 88.47-75.06 32.41-160.73 32.41Zm364.13 4.71q-19.22 0-32.79-13.24t-13.57-33.05q0-19.15 13.57-32.72t32.71-13.57q19.82 0 33.06 13.58 13.23 13.58 13.23 32.63 0 19.89-13.24 33.13-13.25 13.24-32.97 13.24Zm99.93 102.63q-19.15 0-32.64-13.24-13.5-13.24-13.5-33.05 0-19.15 13.5-32.72Q925-53.1 944.15-53.1q19.81 0 33.13 13.58 13.31 13.58 13.31 32.63 0 19.89-13.31 33.13-13.32 13.24-33.13 13.24Z"/></svg>