<svg xmlns="http://www.w3.org/2000/svg" height="40" viewBox="0 -960 960 960" width="40"><path d="m126.9-219.37-54.92-62.56 86.84-81.12q-19.27-23.54-37.47-48.39-18.21-24.84-34.07-49.34h104.81q6.22 6.87 11.97 14.89 5.74 8.02 11.24 15.69 15.97-22.14 29.94-42.87 13.97-20.73 26.68-45.31H27.83v-84.24h134.68v-65.22h84.81v65.22h165.72v84.24h-46.51q-18.89 42.1-43.84 79.93-24.95 37.83-52.7 73.68 15.32 14.81 28.93 26.4 13.61 11.6 28.43 24.35l-39.41 81.98q-18.88-15.63-36.91-31.44-18.02-15.82-37.13-36.16l-87 80.27ZM283.99-22.22l150.55-358.03h98.55L684.24-22.22h-90.49l-27.27-66.76h-167.2L373-22.22h-89.01Zm140.61-136.3h115.23l-58.61-147.13-56.62 147.13Zm202.07-404.49h164.66v-75.77h-58.87v20.66h-47.49v-124.46h47.49v20.67h58.87v-75.77H626.67v234.67Zm305.5 135.53H497.49v-237.29h-51.4v-77.81h47.49v20.67h58.3v-75.77H387.22v132.91h-43.91v-77.27h-98.43v-190.8h687.29v505.36Z"/></svg>