<svg xmlns="http://www.w3.org/2000/svg" height="20" viewBox="0 -960 960 960" width="20"><path d="m153-282-39-48 57-44q-16-21-34-44.5T102-465h83.38q7.62 9 13.62 18.5 6 9.5 12.21 20.5Q227-447 243-469t27-48H60v-60h95.22v-51H217v51.5h167v60.5h-40q-18 39-43.5 73.5T250-376q11 9 10 10t15 10l-36.42 54Q223-315 222.5-316q-.5-1-13.5-13l-56 47Zm65 250 144.6-341H439L585-32h-68.67l-27.77-62H312l-28.65 62H218Zm114-112h137l-67-171-70 171Zm254-405h140v-52h-40v20h-61v-120h61v23h40v-55H586v184Zm265 118H421v-181h18v-89h63v23h39v-55H399v121h-90v-71h-36v-169h578v421Z"/></svg>