<svg xmlns="http://www.w3.org/2000/svg" height="20" viewBox="0 -960 960 960" width="20"><path d="m147.23-252.69-44.54-52.85 67.62-55.08q-17.85-22.61-36.77-47.96-18.92-25.34-36.16-50.42h89.61q7.86 10.15 14.55 20.69 6.69 10.54 13.82 22.23 16.49-21.69 32.49-44.61 16-22.93 27.23-49.39H48v-67.38h107.45v-53.31h69.17v53.81h176.92v67.88h-46.23q-18.23 40.39-43.85 76.62-25.61 36.23-52 69.61 10.77 9 11.5 11.5.73 2.5 16.04 11.27l-39.19 61.62q-15.12-12.77-17.93-16.08-2.8-3.31-16.5-16l-66.15 57.85Zm83.92 226.23 143.91-343.77h84.71L604.85-26.46h-75.83l-26.61-60.62H331.15l-27.03 60.62h-72.97Zm122.08-116.85h127.54l-62.39-162.46-65.15 162.46Zm92-284.92v-59.39h358.39v-317H330.77v115.85h-59.39V-864H863v435.77H445.23Zm358.39-59.39v-317 317ZM398.08-619.85h47.38v-82.07h55.62v21.61h46.38v-61H398.08v121.46Zm191.61 69.93h147.39v-58.46h-47.39v19.07h-53.61v-112.61h53.61v21.61h47.39v-61H589.69v191.39Z"/></svg>