<svg xmlns="http://www.w3.org/2000/svg" height="24" viewBox="0 -960 960 960" width="24"><path d="m122-146-72-77 110-95q-27-32-51.5-66.5T64-456h124q9 16 19.5 32t22.5 30q20-24 35.5-51.5T294-502H0v-105h155v-64h106v64h231v105h-84q-21 49-49 93.5T299-323q17 14 38 29t38 27l-55 98q-21-16-46.5-35.5T229-243l-107 97ZM325-1l148-370h130L750-1H636l-19-51H456L437-1H325Zm162-137h99l-50-136-49 136Zm143-428h180v-88h-76v20h-29v-104h29v20h76v-88H630v240Zm330 154H551v-245h-81v-81h29v20h75v-88H394v149h-44v-90H244v-213h716v548Z"/></svg>