<svg xmlns="http://www.w3.org/2000/svg" height="24" viewBox="0 -960 960 960" width="24"><path d="M159.5-281 140-304l95.5-92.5q-18-22.5-34.75-46T169-491h38.5q11 18 23 35t25.5 33.5q26-31 48.25-63T340.5-556H97v-30.5h145V-638h30.5v51.5h160v30.5H375q-16 45.5-42.25 84.75T275.5-396q15 17 28.75 31t30.25 28.5l-12 31q-18.5-17-34.5-32.75T255-373l-95.5 92Zm134 216.5 140.5-343h31.5l142 343H574L536-160H365l-39.5 95.5h-32Zm82-121.5H525l-75-186.5L375.5-186ZM608-555.5h145.5v-50H727v23.5h-92.5v-152H727v25.5h26.5v-52H608v205Zm255 103H470.5v-166H413V-734h92.5v25.5H532v-52H386.5v142h-78V-690H276v-173.5h587v411Z"/></svg>