<svg xmlns="http://www.w3.org/2000/svg" height="24" viewBox="0 -960 960 960" width="24"><path d="m139.62-178.85-33.77-33.92 135.3-132.54q-24.92-29.31-45.38-60.23-20.46-30.92-37.08-64.46h49.62q13.61 25.08 29.46 48.35 15.84 23.26 35.31 45.11 30.84-34.85 54.84-73.31 24-38.46 38.62-81.69H60v-47.69h189.62v-56.15h47.69v56.15h201.46v47.69h-85.62q-16.61 51.69-43.92 97.81-27.31 46.11-64 87.81 14.38 17 35 37 20.61 19.99 35.77 34.38l-18.39 48.31q-17.77-16.39-41.92-40.04-24.15-23.66-43-44.5L139.62-178.85ZM343.08-49.23l136.15-355.39h51.15L666.92-49.23h-50.08l-34.92-94.31H428.07l-34.69 94.31h-50.3Zm100.53-135.92h122.77l-61.69-166.24-61.08 166.24Zm180.24-373.31h167.69v-69.23h-47.69v21.54h-72.31v-132.31h72.31v22.31h47.69v-70H623.85v227.69ZM900-444.62H559.61v-182.3H439.23v-111.54h72.31v22.31h47.69v-70H391.54v159.23h-48.85v-63.46h-60V-900H900v455.38Z"/></svg>