<svg xmlns="http://www.w3.org/2000/svg" height="20" viewBox="0 -960 960 960" width="20"><path d="m138.48-191.54-57.89-65.29 98.69-90.84q-21.93-25.5-42.35-54.54-20.41-29.03-36.61-57.53h105.56q7.79 11.78 15.62 23.2 7.82 11.41 16.45 23.32 18-23.72 33.2-48.15 15.2-24.43 27.57-50.46H35.39v-87.43h146.63v-62.26h88.78v62.76h178.85v87.93h-54.72q-18.26 42.68-43.54 83.13-25.28 40.46-55.33 77.27 15.7 14.8 30.29 27.81 14.58 13.01 32.78 25.38l-42.51 85.41q-18.84-16-38.68-33.22-19.83-17.23-41.27-38.54l-98.19 92.05ZM307.89-26.46l141.95-342.15h104.64L696.76-26.46h-94.07l-23.84-60.32H424.24l-23.81 60.32h-92.54ZM450.02-159H552.5l-51.24-133.95L450.02-159ZM588-542.39h162v-72.52h-62.04v15h-38.48v-94.96h38.48v16H750v-73.52H588v210Zm288.61 125.22H499.3v-241.44h-66v-36.26h40.48v16h61.48v-73.52h-164v93.78h-30.41v-69.96h-95.7v-149.04h631.46v460.44Z"/></svg>