<svg xmlns="http://www.w3.org/2000/svg" height="20" viewBox="0 -960 960 960" width="20"><path d="M143-182.5 101.5-228l123-122.5Q202-376 183-404.75T149.5-462h69.38q10.62 18 22.12 34.5 11.5 16.5 25.21 33.5Q291-424.5 311-456t33.5-66H58v-62h177.72v-60h62.78v60.5H470v62.5h-61.5q-16 45.5-41 88.5t-59 81.5q14 16.5 30 33.75T371-286.5L346.58-222q-16.58-16-37.83-37.75T265.5-304.5L143-182.5Zm187.5 134L465.1-385H533L668.5-48.5h-64.67L572.06-132H426.5l-31.15 83.5H330.5Zm115-136.5h107L499-328l-53.5 143ZM588-539h162v-68h-53v15h-56v-104h56v16h53v-69H588v210Zm266 106H527v-216H422v-47h58v16h53v-69H369v100h-22.5v-53h-81v-153H854v422Z"/></svg>