<svg xmlns="http://www.w3.org/2000/svg" height="40" viewBox="0 -960 960 960" width="40"><path d="m118-193.33-64.67-72.34 86.67-75q-21.67-26.66-42.5-54.83-20.83-28.17-38.83-57.17h120.66q6.34 8 12.74 17.6 6.4 9.6 13.26 18.4 15.34-20.66 28.5-41.83 13.17-21.17 25.5-45.5H6.67v-97h131v-64.67h98V-601H426v97h-57.33q-20.34 44.33-46.34 83.5-26 39.17-54 76.17 16.34 14 32 25.33 15.67 11.33 32 24l-49.66 91.33Q262.33-219 242.5-234.5 222.67-250 203.67-269L118-193.33ZM289-7.67l152-368h118.67l151.66 368h-106l-22.33-55H414l-21 55H289Zm154-135.66h110.33l-56-144.67L443-143.33Zm69.33-273.34v-98.66h343v-340h-510V-739h-98.66v-214.33h706.66v536.66h-441Zm343-98.66v-340 340Zm-456.66-139h66.66v-90.34H501v21.34h65.67v-81.34h-168v150.34Zm236 88.33h168v-81.33H736V-626h-35.67v-118.67H736v21.34h66.67v-81.34h-168V-566Z"/></svg>