<svg xmlns="http://www.w3.org/2000/svg" height="20" viewBox="0 -960 960 960" width="20"><path d="m128-155-63-69 103-92q-24-28-46-59.5T82-439h110.38Q201-425 210-411q9 14 19.21 28Q248-407 264-433t28-54H8v-92h148.22v-61H250v61.5h210v92.5h-67q-19 45-45 87t-57 80q10 9 16.5 16.5T327-287l-48.42 87Q265-212 254.5-223 244-234 228-249l-100 94ZM275-8l141.6-353H529L671-8h-99.67l-22.77-56H395L373.35-8H275Zm149-133h96l-47-134-49 134Zm178-412h172v-80h-72v16h-29v-88h29v17h72v-81H602v216Zm301 134H526v-227h-59v-59h31v17h71v-81H395v123h-41v-62h-88v-196h637v485Z"/></svg>