<svg xmlns="http://www.w3.org/2000/svg" height="24" viewBox="0 -960 960 960" width="24"><path d="m134.48-186.54-60.89-66.29 105.69-97.84q-22.93-27.5-43.85-57.04-20.91-29.53-38.11-60.03H204.5q8.17 12.78 17 25.2 8.82 12.41 18.24 24.32 19.21-24.72 34.91-50.15 15.7-25.43 29.07-53.46H27.39v-90.43H181.8v-65.26h91v65.26h195.85v90.43h-66.72q-19.26 45.68-45.54 87.63-26.28 41.96-57.33 80.77 15.7 14.8 33.29 29.31 17.58 14.51 32.78 26.88l-43.09 87.41q-19.26-16-41.6-35.22-22.33-19.23-41.77-39.54l-104.19 98.05ZM312.89-18.46l147.35-356.15h107.24L714.76-18.46h-96.39l-25.09-64.32H433.24l-25.15 64.32h-95.2ZM460.02-156H565.5l-53.24-137.95L460.02-156Zm63.28-269.17v-91h318.31v-326.44H328.15v86.04h-91v-177.04h695.46v508.44H523.3Zm318.31-91v-326.44 326.44ZM377.26-674.61h66.04v-60.26h43.48v19h65.48v-80.52h-175v121.78ZM618-562.39h175v-80.52h-66.04v19h-43.48v-110.96h43.48v19H793v-80.52H618v234Z"/></svg>