<svg xmlns="http://www.w3.org/2000/svg" height="24" viewBox="0 -960 960 960" width="24"><path d="m120-154-81-87 93-75q-26-32-50-65.5T36-451h144q8 11 15.5 23.5T211-405q15-20 28-42t25-46H-15v-119h134v-65h120v65h234v119h-77q-23 47-50.5 89T289-322q15 10 30.5 20t31.5 20l-65 109q-20-15-40-29t-36-29l-90 77ZM292 14l153-372h149L746 14H616l-15-38H435l-16 38H292Zm178-134h96l-48-131-48 131Zm161-451h182v-91h-82v20h-19v-98h19v20h82v-91H631v240Zm344 164H532v-258h-52v-75h19v20h81v-91H398v146h-50v-96H236v-214h739v568Z"/></svg>