<svg xmlns="http://www.w3.org/2000/svg" height="24" viewBox="0 -960 960 960" width="24"><path d="m149-277-42-49 64-51q-17-23-35.5-47T99-473h85q8 10 15 20.5t14 21.5q17-22 33.5-45t28.5-51H52v-63h103v-54h64v54h184v63h-52q-19 42-45.5 78T253-379q11 9 13 11.5t15 11.5l-37 56q-16-13-19-16l-14-14-62 53Zm74 253 150-355h79L603-24h-71l-29-66H321l-30 66h-68Zm119-117h140l-69-175-71 175Zm103-298v-64h398v-341H329v133h-64v-197h642v469H445Zm398-64v-341 341ZM405-628h44v-113h66v26h43v-62H405v149Zm211 59h153v-60h-44v24h-66v-136h66v26h44v-62H616v208Z"/></svg>