<svg xmlns="http://www.w3.org/2000/svg" height="40" viewBox="0 -960 960 960" width="40"><path d="m146.97-251.03-23.41-26.15 103.36-100.64q-19.59-23.69-37.05-48.87-17.46-25.18-32.72-51.36h42.47q11.94 18.43 24.38 36.59 12.44 18.15 26.77 35.25 26.77-31.59 49.08-64.53 22.3-32.95 35.87-71.52H80v-35.38h153.85v-53.13h35.38v53.13h167.28v35.38h-61.95q-16.23 46.47-42.62 87.03-26.4 40.56-58.68 77.33 14.77 17.52 30.16 32.58 15.4 15.06 31.19 29.83l-13.76 35.62q-18.54-16.77-35.93-34.07-17.38-17.29-35.07-36.83l-102.88 99.74ZM301.56-58.46l140.23-350.77h36.65L619.59-58.46h-38.31l-37-95.49H376.56l-37.38 95.49h-37.62Zm87.08-126.72h142.9L459.9-368.56l-71.26 183.38Zm109.05-264.05v-35.39h346.93v-360H319.49v163.85H284.1V-880H880v430.77H497.69Zm346.93-35.39v-360 360ZM395.33-613.85h32.31v-126h85.44v25.44h32.3v-57.74H395.33v158.3Zm224.47 56.77h150.05v-56.2h-32.31v23.9H652.1v-150.47h85.44v25.44h32.31v-57.74H619.8v215.07Z"/></svg>