<svg xmlns="http://www.w3.org/2000/svg" height="24" viewBox="0 -960 960 960" width="24"><path d="M139-177.5 94.5-224l130-129.5q-23.5-27.5-43-56.75t-35-59.75h71q11 19 23.5 36.5t27 34.5q26-31.5 46.5-64t35-69H50v-65h185.5v-63h65v63H489v65h-73.5q-17 48.5-43 93t-61 85q14 16.5 33 35.25T377-286.5L352-220q-17-16-40.75-39.75T267.5-305.5L139-177.5Zm196.5 137 140-350.5H546L686.5-40.5h-67l-33-87.5h-151L403-40.5h-67.5Zm120-141.5h110L510-329l-54.5 147ZM618-559h175v-76h-57v19h-61v-120h61v19h57v-76H618v234Zm292 118H551v-224H432v-71h61v19h57v-76H375v128h-28.5v-65h-89v-181H910v470Z"/></svg>