<svg xmlns="http://www.w3.org/2000/svg" height="24" viewBox="0 -960 960 960" width="24"><path d="M468.58-125.38q-8.73 0-16.08-4.43-7.35-4.42-11.81-12.15-16.77-28.92-45.42-46.79-28.65-17.87-64.19-17.87-37.04 0-67.87 17.68-30.83 17.67-47.83 47.86-3.96 7.23-11.55 11.46-7.6 4.24-15.18 4.24h-9.07q-7.04 0-11.31-4.27-4.27-4.27-4.27-11.31l.77-655.96h-20.96q-7.43 0-12.54-5.37-5.12-5.36-5.12-13.29 0-7.04 5.37-12.65 5.36-5.62 13.29-5.62h670.77q7.04 0 12.65 5.62 5.62 5.61 5.62 12.65 0 7.93-5.62 13.29-5.61 5.37-12.65 5.37h-20.35v655.19q0 7.04-4.65 11.69-4.66 4.66-11.31 4.66h-9.54q-7.96 0-15.42-4.68-7.46-4.67-11.43-11.9-16.88-29.81-47.65-47.23-30.77-17.43-67.19-17.43-36.66 0-65.64 17.87-28.98 17.87-45.98 46.79-4.46 7.23-11.42 11.9-6.96 4.68-15.69 4.68h-20.73Zm30.07-671.54h-36.92v555.07h36.92v-555.07Z"/></svg>