<svg xmlns="http://www.w3.org/2000/svg" height="20" viewBox="0 -960 960 960" width="20"><path d="M469.31-115.62q-10.23 0-17.8-5.26-7.58-5.26-12.08-13.47-14.43-26.04-40.78-41.96-26.34-15.92-58.13-15.92-33.6 0-60.73 16.07-27.14 16.08-42.48 42.47-4.23 7.23-12.01 12.65-7.78 5.42-16.53 5.42h-21.08q-10.68 0-17.57-6.89-6.89-6.88-6.89-17.57l.39-651.92H141q-9.38 0-17.19-7.47Q116-806.93 116-818q0-9.38 7.47-17.69Q130.93-844 142-844h676q9.38 0 17.69 8.31T844-817.5q0 10.27-8.31 17.88Q827.38-792 818-792h-21.62v651.54q0 10.68-7.08 17.76-7.08 7.08-17.76 7.08h-22.31q-9.85 0-17.02-5.12-7.18-5.13-11.3-13.14-13.83-25.89-41.83-42.12-28-16.23-59.69-16.23-32.7 0-59.43 16.42-26.73 16.42-40.9 41.93-4.23 8.01-11.18 13.14-6.96 5.12-17.19 5.12h-21.38ZM215.62-188q17.15-19 40.38-32.58 23.23-13.57 51.23-17.75V-792h-91.61v604Zm143.61-53.77q27.15 3.23 51.58 15.77 24.42 12.54 42.19 32.46V-792h-93.77v550.23ZM506-194.31q18.15-19.15 41.38-31.69 23.24-12.54 51.01-15.77V-792H506v597.69ZM744.38-187v-605h-93v553.29q27.39 4.17 51.12 17.94Q726.23-207 744.38-187ZM307.23-792h-91.61 91.61ZM453-792h-93.77H453Zm145.39 0H506h92.39Zm145.99 0h-93 93ZM506-792h-53 53Z"/></svg>