<svg xmlns="http://www.w3.org/2000/svg" height="24" viewBox="0 -960 960 960" width="24"><path d="M467-48q-18 0-31-11t-21-28q-14-28-41-45t-60-17q-34 0-60.5 17T213-87q-8 16-21.5 27.5T161-48h-21q-22 0-37.5-15.5T87-101v-705q-22 0-37.5-15T34-859q0-22 15.5-37.5T87-912h785q22 0 37.5 15.5T925-859q0 23-15.5 38T872-806v705q0 22-15.5 37.5T819-48h-20q-18 0-31-11t-21-28q-13-28-40-45t-61-17q-33 0-60 17t-41 45q-8 16-21.5 27.5T493-48h-26ZM193-221q15-10 31.5-17t34.5-12l-1-556h-65v585Zm172-30q17 5 33 11t30 15l-1-581h-63l1 555Zm169 25q14-8 30-14.5t33-10.5l-1-555h-63l1 580Zm232 5v-585h-64v556q17 5 33.5 12t30.5 17ZM259-806h-66 66Zm169 0h-64 64Zm169 0h-64 64Zm169 0h-64 64Zm-233 0H427h107-1Z"/></svg>