<svg xmlns="http://www.w3.org/2000/svg" height="24" viewBox="0 -960 960 960" width="24"><path d="M459.54-107.69q-9.12 0-17.04-4.72-7.92-4.71-13.15-12.82-16.39-25.46-43.21-41.02-26.83-15.56-59.1-15.56-33.77 0-61.81 15.46t-45.04 41.81q-4.73 7.62-12.9 12.23-8.17 4.62-16.71 4.62h-17.54q-11.27 0-18.9-7.64-7.64-7.63-7.64-18.9l.39-661.73h-11.74q-11.46 0-19.26-8.06-7.81-8.06-7.81-20.02 0-11.27 8.06-19.57 8.05-8.31 20.01-8.31h687.89q11.27 0 19.57 8.31 8.31 8.3 8.31 19.57 0 11.96-8.31 20.02-8.3 8.06-19.57 8.06h-10.93v661.34q0 11.27-7.82 19.1-7.83 7.83-18.91 7.83h-18.76q-8.74 0-16.97-4.97-8.23-4.96-12.96-12.57-16.69-26.16-44.57-41.37-27.89-15.21-60.85-15.21-33.58 0-60.44 15.56-26.87 15.56-43.87 41.02-5.23 7.61-12.96 12.57-7.73 4.97-16.85 4.97h-38.61Zm48.54-688.27h-55.96v561.04h55.96v-561.04Z"/></svg>