<svg xmlns="http://www.w3.org/2000/svg" height="48" viewBox="0 -960 960 960" width="48"><path d="M459.44-85q-8.68 0-15.81-4.25-7.13-4.25-11.13-11.56-17-30.19-45.97-48.94-28.97-18.75-65.03-18.75-37.47 0-67.73 18.5-30.27 18.5-47.27 49.17-3.6 7.19-9.77 11.51Q190.55-85 182.5-85h-29q-12.25 0-20.62-8.38-8.38-8.37-8.38-20.62v-703.5H113q-11.5 0-19.75-8.31T85-846.4q0-11.1 8.34-19.85Q101.68-875 114-875h732.5q10.92 0 19.71 8.8 8.79 8.81 8.79 20.5 0 11.7-8.79 19.95t-19.71 8.25h-11V-114q0 12.25-8.41 20.62Q818.67-85 807-85h-31q-8.5 0-14.96-4.32Q754.58-93.63 751-101q-16.08-30.32-45.95-48.91-29.88-18.59-66.55-18.59-37.14 0-66.82 19-29.68 19-46.18 48.5-4.32 6.83-10.55 11.41Q508.72-85 500.04-85h-40.6ZM182-164.5q20-22.5 47.25-37.5T288-222.27V-817.5H182v653Zm163.5-59.74q30 5.24 57 18.24 27 13 49 34v-645.5h-106v593.26ZM509-173.5q20-20 46.48-32.64 26.47-12.63 58.02-18.09V-817.5H509v644Zm269 10v-654H671v594.74q31.5 5.76 58.75 21.01Q757-186.5 778-163.5Zm-490-654H182h106Zm163.5 0h-106 106Zm162 0H509h104.5Zm164.5 0H671h107Zm-269 0h-57.5H509Z"/></svg>