<svg xmlns="http://www.w3.org/2000/svg" height="40" viewBox="0 -960 960 960" width="40"><path d="M467.38-56.75q-14.94 0-26.68-9.01-11.74-9.02-18.38-23.72-14.11-30.88-42.57-49.1-28.45-18.22-63.11-18.22-35.88 0-64.07 18.3-28.2 18.3-42.55 48.28-6.93 13.5-17.87 23.48-10.93 9.99-25.87 9.99h-25.56q-18.29 0-31.29-12.89-13.01-12.89-13.01-32.08v-712.27h-7.01q-18.21 0-31.14-13.08-12.92-13.08-12.92-32.12 0-18.02 12.89-31.12 12.88-13.1 31.83-13.1h779.52q18.69 0 31.83 13.26 13.14 13.26 13.14 31.61 0 18.64-13.02 31.6-13.02 12.95-31.39 12.95h-6.74v712.27q0 19.19-12.97 32.08-12.97 12.89-31.49 12.89h-24.99q-15.62 0-26.52-9.27-10.91-9.27-17.57-23.54-13.27-30.8-42.19-49.02-28.93-18.22-64.08-18.22-35.4 0-63.78 18.87-28.38 18.87-42.81 48.69-7.09 13.43-18.2 22.96-11.11 9.53-25.87 9.53h-25.56Zm-281.7-140.08q16.55-15.79 37.2-26.81 20.66-11.03 44.32-16.72l-.76-573.63h-80.76v617.16Zm170.94-46.16q21.83 5.08 42.18 14.07t37 22.87l-.1-607.94h-79.85l.77 571Zm168.44 36.18q16.22-12.89 36.11-22.12 19.9-9.24 43.47-13.82l-1-571.24h-78.68l.1 607.18Zm248.93 9.51v-616.69H692.9v573.8q23.4 4.85 44.14 16.09 20.73 11.25 36.95 26.8ZM267.2-813.99h-81.52H267.2Zm168.6 0h-79.95H435.8Zm168.84 0H524.96h79.68Zm169.35 0H692.9h81.09Zm-249.03 0H435.7h89.36-.1Z"/></svg>