<svg xmlns="http://www.w3.org/2000/svg" height="20" viewBox="0 -960 960 960" width="20"><path d="M484.62-103.23q-16.47 0-26.77-9.18-10.3-9.19-16.03-23.63-12.82-30.73-40.01-50.08-27.19-19.34-62.67-19.34-36.29 0-64.74 18.81-28.44 18.8-40.78 50.27-5.47 12.46-16.48 22.8-11.01 10.35-24.6 10.35h-17.16q-11.06 0-18.49-7.43-7.43-7.42-7.43-18.49l.77-668.85H119q-9.77 0-19.38-8.08Q90-814.16 90-827q0-9.77 8.58-19.38Q107.16-856 119-856h721q9.77 0 19.38 9.62 9.62 9.61 9.62 19.88 0 12.04-9.62 20.27Q849.77-798 840-798h-31.23v668.08q0 11.07-7.81 18.88-7.81 7.81-18.88 7.81h-14.62q-15.69 0-24.91-9.05-9.21-9.05-14.56-23.29-9.84-30.97-40.34-50.43-30.5-19.46-67.26-19.46-34.01 0-62.47 19.84-28.46 19.85-39.63 50.05-5.46 13.24-15.45 22.79-9.99 9.55-25.46 9.55h7.24ZM509-798h-59l1 533.46h59L509-798Z"/></svg>