<svg xmlns="http://www.w3.org/2000/svg" height="24" viewBox="0 -960 960 960" width="24"><path d="M451.93-81.87q-12.34 0-22.29-6.79-9.94-6.8-17.14-17.42-15.04-20.83-38.7-33.13-23.66-12.29-51.28-12.29-28.59 0-52.16 12.17-23.58 12.18-39.62 33.24-6.96 10.34-17.25 17.28-10.29 6.94-22.42 6.94h-27.2q-17.65 0-30.33-12.67-12.67-12.68-12.67-30.33v-667.26h-2.02q-17.42 0-29.59-12.58-12.17-12.57-12.17-30.66 0-17.65 12.33-30.21 12.34-12.55 30.43-12.55h720.3q17.65 0 30.33 12.79 12.67 12.8 12.67 30.7t-12.43 30.21q-12.44 12.3-29.85 12.3h-1.74v667.26q0 17.65-12.67 30.33-12.68 12.67-30.33 12.67h-28.48q-12.13 0-22.72-7.02-10.59-7.02-17.21-17.46-15.07-21.06-38.71-33.11-23.65-12.04-51.79-12.04-28.59 0-52.14 12.53-23.56 12.54-39.84 33.1-7.44 9.91-17.38 16.96-9.95 7.04-22.06 7.04h-53.87ZM206.87-200.61q15.33-11.59 33.56-19.88 18.24-8.29 38.37-12.82v-558.82h-71.93v591.52Zm157.93-32.42q19.87 4.53 38.11 12.71 18.24 8.19 34.09 20.28v-592.09h-72.2v559.1ZM523-200.3q15.09-12.35 33.05-20.04 17.97-7.69 38.65-12.44v-559.35H523v591.83Zm230.13.21v-592.04H680.7v559.08q19.87 4.53 38.1 12.82 18.24 8.3 34.33 20.14ZM278.8-792.13h-71.93 71.93Zm158.2 0H364.8 437Zm157.7 0H523h71.7Zm158.43 0H680.7h72.43Zm-230.13 0h-86 86Z"/></svg>