<svg xmlns="http://www.w3.org/2000/svg" height="40" viewBox="0 -960 960 960" width="40"><path d="M477.67-132.67q-8.5 0-15.5-4.41-7-4.42-10.34-12.59-17-33.66-48.41-54.25Q372-224.5 332.5-224.5q-41 0-75.17 20.5-34.16 20.5-51.16 55.67-2.84 7-9.75 11.33-6.92 4.33-14.25 4.33h-2.67q-3.83 0-5.92-2.08-2.08-2.08-2.08-5.92l1-662.5h-27.83q-5 0-8-3.41-3-3.42-3-8.59 0-4.16 3.41-7.66 3.42-3.5 8.59-3.5h669.5q4.16 0 7.66 3.5t3.5 7.66q0 5.17-3.5 8.59-3.5 3.41-7.66 3.41H787.5v661.5q0 3.84-2.58 6.42-2.59 2.58-5.59 2.58h-2.66q-8.17 0-14.84-4.5-6.66-4.5-9.5-12.5-17.33-34-51.16-54.41-33.84-20.42-74.34-20.42-41.16 0-72.58 20.75t-48.75 54.08q-3.33 7-9.83 12t-15 5h-3ZM492-803.17h-23.17v556.5H492v-556.5Z"/></svg>