<svg xmlns="http://www.w3.org/2000/svg" height="20" viewBox="0 -960 960 960" width="20"><path d="M454.93-97.87q-12.34 0-21.13-6.13t-15.25-15.73q-13.09-18.18-34.25-28.98-21.16-10.79-45.87-10.79-25.5 0-46.4 10.52t-35.29 28.89q-5.96 8.34-15.3 15.28-9.34 6.94-20.37 6.94h-37.2q-15.95 0-27.48-11.52-11.52-11.53-11.52-27.48v-647.26h-14.02q-14.42 0-26.09-11.43-11.67-11.42-11.67-27.81 0-14.65 11.18-26.71 11.19-12.05 27.58-12.05h696.3q14.65 0 26.83 12.29 12.17 12.3 12.17 27.7 0 15.4-11.93 26.71-11.94 11.3-26.35 11.3h-13.74v647.26q0 15.95-11.52 27.48-11.53 11.52-27.48 11.52h-38.48q-12.13 0-20.86-6.23-8.73-6.22-14.24-15.43-11.9-17.88-34.04-28.93-22.15-11.04-46.9-11.04-24.98 0-46.53 11.53-21.56 11.54-35.01 28.92-6.43 8.69-14.79 14.93-8.37 6.25-20.48 6.25h-49.87Zm-232.06-96.74q14.33-12.59 31.56-22.38 17.24-9.79 37.37-14.27v-552.87h-68.93v589.52Zm146.93-40.42q18.87 3.53 37.11 11.21 18.24 7.69 33.09 19.78v-580.09h-70.2v549.1ZM519-204.3q15.09-11.35 32.05-19.04 16.97-7.69 36.65-11.44v-549.35H519v579.83Zm218.13 10.21v-590.04H666.7v552.14q19.87 4.47 37.6 14.76 17.74 10.3 32.83 23.14ZM291.8-784.13h-68.93 68.93Zm148.2 0H369.8 440Zm147.7 0H519h68.7Zm149.43 0H666.7h70.43Zm-218.13 0h-79 79Z"/></svg>