<svg xmlns="http://www.w3.org/2000/svg" height="40" viewBox="0 -960 960 960" width="40"><path d="M462.94-73.3q-11.82 0-21.38-6.9-9.56-6.89-15.1-17.55-15.87-29.13-44.04-46.75t-62.74-17.62q-35.9 0-64.63 17.75-28.73 17.75-44.93 46.63-5.79 10.34-14.68 17.39-8.9 7.05-20.56 7.05h-23.7q-16.17 0-27.02-10.86-10.86-10.85-10.86-27.02v-699.76h-7.34q-15.26 0-25.95-10.98-10.69-10.97-10.69-27.14 0-15.5 10.73-26.65 10.74-11.15 26.91-11.15h746.08q15.5 0 26.69 11.31 11.19 11.31 11.19 26.81 0 16.17-10.95 26.98-10.95 10.82-26.37 10.82h-6.74v699.76q0 16.17-10.94 27.02-10.93 10.86-27.1 10.86h-24.99q-11.82 0-21.13-6.98-9.32-6.97-15.02-17.55-15.22-29.05-43.81-46.67-28.59-17.62-63.31-17.62-35.74 0-64.12 17.94-28.37 17.94-44.66 46.67-5.78 10.26-14.93 17.23-9.15 6.98-20.89 6.98h-33.02Zm54.86-737.64h-75.92v577.62h75.92v-577.62Z"/></svg>