<svg xmlns="http://www.w3.org/2000/svg" height="20" viewBox="0 -960 960 960" width="20"><path d="M489-115q-16 0-25.84-8.84-9.84-8.83-15.11-22.81Q435-179 407-199.5 379-220 341.91-220q-37.91 0-67.74 19.84Q244.35-180.31 232-147q-5 12-15.55 22T193-115h-13q-8.3 0-13.65-5.35T161-134l1-664h-37q-7 0-15-6.35T102-821q0-7 6.85-15t16.15-8h709q7 0 15 8t8 15.5q0 9.5-8 16t-15 6.5h-37v663q0 8.3-5.85 14.15T777-115h-10q-15 0-23.64-8.7-8.64-8.71-13.52-22.48Q720-179 688-199.5T617.39-220q-35.39 0-64.89 21t-40.67 52.82q-5 12.77-14.41 21.98Q488-115 473-115h16Zm-281-87q17-24 43.5-40.5t57.5-19.45L308-798H208v596Zm147-66q32 2 59.5 18t42.5 43l-1-591H354l1 530Zm149 58q17-23 43-40t57-18l-1-530H503l1 588Zm247 8v-596H650v534.06q31 2.94 58 20.44t43 41.5ZM309-798H208h101Zm148 0H354h103Zm147 0H503h101Zm147 0H650h101Zm-248 0h-47 48-1Z"/></svg>