<svg xmlns="http://www.w3.org/2000/svg" height="20" viewBox="0 -960 960 960" width="20"><path d="M459.5-72q-20.72 0-34.45-11.84-13.73-11.83-24-28.29-10.05-14.37-27.02-22.12-16.97-7.75-37.12-7.75-19.41 0-34.99 7.09-15.57 7.1-26.92 20.91-10.52 15.18-24.81 28.59T216.5-72h-41q-22.8 0-39.65-16.85Q119-105.7 119-128.5V-775h-12.5Q86-775 69-792.13T52-832.5Q52-854 68.13-871t39.37-17h745q21.5 0 39 18t17.5 40.25q0 22.25-16.5 38.5t-37 16.25H841v646.5q0 22.8-16.85 39.65Q807.3-72 784.5-72h-40q-20.5 0-34.18-11.93t-22.98-28.75Q680-126 662.04-134t-38.15-8q-18.89 0-36.64 9.25t-28.92 22.07q-11 14.77-24.3 26.73Q520.72-72 501-72h-41.5ZM232-222q9-6.5 18.25-13.25t20.25-9.71V-775H232v553Zm151.5-29.01q10.5 2.01 20.75 5.51t18.25 9.5v-539h-39v523.99Zm153 15.51q9-4.5 17.98-8.39 8.97-3.88 19.52-6.11v-525h-37.5v539.5ZM728-223v-552h-40v528.56q11.5 2.94 21.25 10.19T728-223ZM270.5-775H232h38.5Zm152 0h-39 39Zm151.5 0h-37.5H574Zm154 0h-40 40Zm-191.5 0h-114 114Z"/></svg>