<svg xmlns="http://www.w3.org/2000/svg" height="20" viewBox="0 -960 960 960" width="20"><path d="M471-50q-24 0-40.34-14.84-16.34-14.83-27.61-35.81Q394-120 374.5-130.5T331.91-141q-22.91 0-40.24 10.34Q274.35-120.31 264-102q-12 19-28.55 35.5T195-50h-34q-26.3 0-45.15-18.35Q97-86.7 97-114v-668H87q-24 0-43.5-19.35T24-847q0-26 18.35-44.5T87-910h785q26 0 45 19.5t19 46q0 24.5-18.5 43.5T875-782h-13v668q0 27.3-18.35 45.65Q825.3-50 798-50h-32q-24 0-40.14-15.2-16.14-15.21-26.02-35.98Q693-119 673-130t-43.61-11q-22.39 0-41.89 12t-29.67 29.82q-12 19.77-27.91 34.48Q514-50 491-50h-20ZM225-237q8-6 15.5-11.5t16.5-8.45V-782h-32v545Zm160-27q7 3 15.5 5t14.5 5v-528h-30v518Zm159 10q8-1 15-4t15-5l-1-519h-29v528Zm190 15v-543h-32v524.06q9 2.94 17 8.44t15 10.5ZM257-782h-32 32Zm158 0h-30 30Zm159 0h-30 30Zm160 0h-32 32Zm-190 0H415h129Z"/></svg>