<svg xmlns="http://www.w3.org/2000/svg" height="48" viewBox="0 -960 960 960" width="48"><path d="M479.31-103.23q-11.23 0-20.35-6.62-9.11-6.61-13.34-18.61-15-36.31-47.04-57.96-32.04-21.66-72.35-21.66-41.31 0-75 21.66-33.69 21.65-48.69 57.73-4.23 10.23-12.73 17.84-8.5 7.62-19.73 7.62h-9.31q-7.31 0-12.81-5.5-5.5-5.5-5.5-13.81l.77-689.69h-24.85q-8.84 0-15.11-6.27T97-834.62q0-7.84 6.27-14.61t16.11-6.77h721.24q8.84 0 15.61 6.77t6.77 14.61q0 9.85-6.77 16.12-6.77 6.27-15.61 6.27h-23.85v688.92q0 8.31-5.89 14.19-5.88 5.89-13.19 5.89h-7.77q-12.23 0-20.34-6.62-8.12-6.61-12.35-18.61-14.77-36.31-48.96-57.96-34.19-21.66-75.27-21.66-41.31 0-72.96 22.16-31.66 22.15-47.42 57.46-4.24 10.23-12.85 17.73-8.62 7.5-19.85 7.5h-.61Zm23.07-709h-43.76v560.85h43.76v-560.85Z"/></svg>