<svg xmlns="http://www.w3.org/2000/svg" height="48" viewBox="0 -960 960 960" width="48"><path d="M460.64-79.02q-10.59 0-19.04-5.45-8.45-5.44-13.17-14.66-16.28-29.48-44.41-47.39-28.14-17.91-62.76-17.91-36.27 0-65.22 17.66-28.95 17.66-45.24 47.37-4.55 8.63-12.04 14.51-7.49 5.87-17.22 5.87h-29.95q-13.93 0-23.5-9.57t-9.57-23.5v-703.26h-11.26q-12.93 0-22.38-9.62-9.45-9.63-9.45-23.59 0-12.77 9.42-22.71 9.41-9.95 23.41-9.95h743.98q12.6 0 22.58 10.12 9.98 10.12 9.98 23.49t-9.74 22.82q-9.74 9.44-22.34 9.44h-11v703.26q0 13.93-9.73 23.5t-23.08 9.57h-31.24q-10.41 0-18.07-5.63-7.65-5.63-12.19-14.68-15.12-29.6-44.04-47.35t-64.39-17.75q-35.7 0-64.55 18.52-28.84 18.52-44.63 46.82-5.27 8.26-12.7 14.17-7.43 5.9-18.02 5.9h-38.44Zm-276.49-91.94q18.81-21.06 44.14-35.22 25.34-14.17 54.69-19.44v-589.73h-98.83v644.39Zm164.7-57.11q27.85 5 53.05 16.93 25.21 11.92 45.53 31.49v-635.7h-98.58v587.28Zm164.22 47.16q18.56-18.33 43.24-30.13 24.69-11.8 54.08-16.78v-587.53h-97.32v634.44Zm262.78 10.48v-644.92h-99.83v589.24q29.35 5.52 54.81 19.94 25.45 14.41 45.02 35.74ZM282.98-815.35H184.15h98.83Zm164.45 0h-98.58 98.58Zm162.96 0h-97.32 97.32Zm165.46 0h-99.83 99.83Zm-262.78 0h-65.64 65.64Z"/></svg>