<svg xmlns="http://www.w3.org/2000/svg" height="48" viewBox="0 -960 960 960" width="48"><path d="M480.19-131q-8.93 0-16.08-4.63-7.15-4.63-10.11-12.51-17-35.36-49.22-56.61T331.92-226q-41.89 0-76.9 21.25Q220-183.5 203-146.67q-2.77 7.4-9.26 11.53-6.5 4.14-14.24 4.14h-2q-3.25 0-5.37-2.13-2.13-2.12-2.13-5.37l1-667.5h-28.5q-5 0-7.75-3.25-2.75-3.26-2.75-8.15 0-4.1 3.28-7.35t8.22-3.25h674q3.92 0 7.21 3.3 3.29 3.31 3.29 7.25 0 4.95-3.29 8.2-3.29 3.25-7.21 3.25H789v666.5q0 3.25-2.7 5.87-2.7 2.63-4.8 2.63h-2q-8.58 0-14.82-4.65t-9.18-12.85q-17.58-34.82-51.76-56.16Q669.56-226 627.5-226q-41.66 0-74.08 21.5t-49.92 56.17q-3.32 6.66-9.55 11.99-6.23 5.34-15.15 5.34h1.39ZM193-177q21-29.5 53.75-47.75t72.75-21.33V-806H193v629Zm148.5-70.07Q381-244 414-223.75T469.5-169v-637h-128v558.93Zm150 74.57q20.7-31.55 52.83-51.41 32.12-19.86 73.67-23.15V-806H491.5v633.5ZM767-176v-630H640v559.42q39.5 4.08 72.25 22.08T767-176ZM319.5-806H193h126.5Zm150 0h-128 128Zm148.5 0H491.5 618Zm149 0H640h127Zm-275.5 0h-22 22Z"/></svg>