<svg xmlns="http://www.w3.org/2000/svg" height="40" viewBox="0 -960 960 960" width="40"><path d="M478.67-131q-8.34 0-15.5-4.67-7.17-4.66-10.5-12.66-17-34.34-48.67-55.5Q372.33-225 332-225q-41.67 0-76.17 21.17-34.5 21.16-51.5 56.5Q201-140 194.17-135.5q-6.84 4.5-14.84 4.5H178q-3.67 0-5.83-2.17Q170-135.33 170-139l1-665h-28q-4.33 0-7.67-3.33Q132-810.67 132-816q0-4.33 3.33-8.17Q138.67-828 144-828h672q4.33 0 8.17 3.83Q828-820.33 828-816q0 5.33-3.83 8.67Q820.33-804 816-804h-27v664q0 3.67-2.67 6.33Q783.67-131 780-131h-1.33q-8 0-14.84-4.67-6.83-4.66-10.16-12.66-17-34.67-51.17-55.67T627-225q-41.33 0-73.17 21.17-31.83 21.16-49.5 55.5-3.33 7.33-10 12.33-6.66 5-15 5h-.66ZM492-804h-24v556.33h24V-804Z"/></svg>