<svg xmlns="http://www.w3.org/2000/svg" height="40" viewBox="0 -960 960 960" width="40"><path d="M467.19-54.15q-16.26 0-29.1-9.93-12.83-9.93-20.34-26.05-13.34-29.36-40.61-46.06-27.26-16.69-59.63-16.69-33.94 0-60.34 16.88-26.39 16.88-40.3 45.01-8.07 14.37-20.12 25.61-12.05 11.23-28.74 11.23H141.7q-19.98 0-33.93-13.67-13.96-13.67-13.96-34.88v-706.72h-6.58q-19.4 0-33.36-14.36-13.96-14.35-13.96-34.76 0-19.87 13.68-33.78 13.67-13.91 34.31-13.91h783.87q20.53 0 34.54 14.29 14.01 14.29 14.01 34.16 0 19.84-13.73 34.1-13.72 14.26-33.5 14.26h-6.86v706.72q0 21.21-13.86 34.88-13.86 13.67-34.4 13.67h-25.42q-16.93 0-29.19-10.4-12.26-10.41-19.58-25.77-12.72-29.17-40.18-45.87-27.46-16.69-60.54-16.69-33.8 0-60.59 17.78-26.79 17.78-40.89 45.53-8.07 14.74-20.27 25.08-12.19 10.34-28.5 10.34h-25.62Zm61.17-755.27h-96.81l-.23 564.65h96.81l.23-564.65Z"/></svg>