<svg xmlns="http://www.w3.org/2000/svg" height="48" viewBox="0 -960 960 960" width="48"><path d="M466.89-102.69q-8.5 0-15.5-4.35t-10.62-12.23q-17-31.92-47.25-51.64-30.25-19.71-67.98-19.71-39.23 0-71.31 19.56-32.08 19.56-49.08 52.37-3.11 7-9.55 11.5-6.45 4.5-14.25 4.5h-18.62q-9.04 0-14.88-5.85-5.85-5.85-5.85-14.88l.39-689.66h-18.04q-9 0-15.14-6.32-6.13-6.33-6.13-15.95 0-8.3 6.33-14.94 6.32-6.63 15.94-6.63h710q8.3 0 14.94 6.63 6.63 6.64 6.63 14.94 0 9.62-6.63 15.95-6.64 6.32-14.94 6.32h-17.74v689.27q0 9.04-6.03 15.08-6.04 6.04-14.39 6.04h-19.84q-8.5 0-15-4.35t-9.62-12.23q-16.58-32.23-48.31-51.79-31.73-19.56-70.15-19.56-39.42 0-69.89 19.96-30.46 19.97-47.34 51.39-3.62 7-10.12 11.79-6.5 4.79-15 4.79h-25.03Zm35.38-710.39h-43.85v580.23h43.85v-580.23Z"/></svg>