<svg xmlns="http://www.w3.org/2000/svg" height="48" viewBox="0 -960 960 960" width="48"><path d="M467.44-61.17q-13.65 0-25.37-8.13t-17.85-22.4q-13.87-31.73-42.68-49.69-28.8-17.96-62.84-17.96-36.14 0-64.33 18.24-28.2 18.24-42.63 48.41-6.78 12.32-16.93 21.92-10.16 9.61-24.42 9.61h-28.13q-17.01 0-29.05-11.76-12.04-11.75-12.04-30.33v-712.39H90.74q-16.7 0-28.61-12.61-11.91-12.6-11.91-30.04 0-16.83 11.75-28.96 11.76-12.13 29.77-12.13h776.52q17.83 0 29.96 12.41 12.13 12.41 12.13 29.74 0 16.63-11.85 29.11t-29.11 12.48h-10v712.39q0 18.58-12.04 30.33-12.03 11.76-29.61 11.76h-27.57q-14.69 0-25.09-8.79-10.4-8.78-16.69-21.74-13.43-31.73-42.67-49.69-29.24-17.96-63.85-17.96-35.81 0-64.23 19.31-28.42 19.3-42.86 48.91-7.01 12.52-17.27 21.24-10.25 8.72-24.47 8.72h-25.6ZM184.35-186.35q16.74-18.3 38.63-30.89 21.89-12.59 47.5-18.85l-.44-579.56h-85.69v629.3Zm169.87-53.28q23.04 5.24 45 15.33 21.95 10.08 39.13 25.82l.56-617.17h-85.13l.44 576.02Zm167.3 40.72q16.74-14.74 37.91-25.11 21.18-10.37 47.35-15.04l-1-576.59h-83.69l-.57 616.74Zm254.13 11.43v-628.17h-86.69v580.14q25.61 4.68 47.78 17.49 22.17 12.8 38.91 30.54ZM270.48-815.65h-86.13 86.13Zm167.87 0h-84.57 85.13-.56Zm168.43 0H521.52 606.78Zm168.87 0h-86.69 86.69Zm-253.56 0H438.35h83.74Z"/></svg>