<svg xmlns="http://www.w3.org/2000/svg" height="40" viewBox="0 -960 960 960" width="40"><path d="M480.5-97.9q-13.08 0-23.14-7.76-10.07-7.76-15.03-20.78-14.92-35.33-46.18-56.71-31.25-21.39-70.98-21.39-40.58 0-73.43 21.26-32.84 21.25-47.51 56.69-5.11 11.95-14.66 20.32-9.55 8.37-22.01 8.37h-8.59q-8.96 0-15.57-6.61-6.61-6.61-6.61-16.23l.77-689.41h-22.97q-10.15 0-17.71-7.35-7.55-7.35-7.55-18.58 0-9.48 7.52-17.37 7.51-7.88 18.41-7.88h729.15q10.15 0 18.04 7.88 7.88 7.89 7.88 17.45 0 11.33-7.88 18.59-7.89 7.26-18.04 7.26H822.1v688.64q0 9.63-6.99 16.62t-15.96 6.99h-6.71q-13.43 0-22.43-7.81-8.99-7.82-14.14-20.73-14.18-35.59-47.57-56.84-33.39-21.26-74.3-21.26-39.59 0-71.09 21.72t-46.68 56.38q-5.19 11.53-14.68 20.04-9.5 8.5-22.24 8.5h1.19Zm-291.76-96.38q18.95-23.59 47.02-39.1 28.06-15.52 60.83-19.73l-1-557.04H188.74v615.87Zm159.03-60.89q32.9 3.53 60.85 19.73 27.94 16.21 46.46 43l-.34-617.71H346.77l1 554.98Zm158.49 60.2q18.61-24.26 45.84-40.63 27.23-16.37 61.21-19.57l-1-554.98H505.92l.34 615.18Zm264.66.69v-615.87H663.49v556.79q32.69 3.54 60.75 19.51 28.07 15.98 46.68 39.57ZM296.59-810.15H188.74h107.85Zm158.49 0H346.77h108.31Zm158.23 0H505.92h107.39Zm157.61 0H663.49h107.43Zm-265 0h-51.18 51.52-.34Z"/></svg>