<svg xmlns="http://www.w3.org/2000/svg" version="1.1" width="3300" height="2000"><g id="Notes"><style>
    text {
      font-family: monospace;
      text-anchor: middle;
    }
    text.emphasis {
      font-weight:bold;
    }
    text.lanchor {
      text-anchor: start;
    }
  </style><rect height="2200" id="artboard" fill="white" width="3300" x="0" y="0"/><line id="" style="fill:none;stroke:black;stroke-width:0.5;" x1="263" x2="3036" y1="292" y2="292"/><text class="lanchor emphasis" transform="matrix(1 0 0 1 263 322)">Weight/Scale Variations</text><text transform="matrix(1 0 0 1 559.711 322)">Ultralight</text><text transform="matrix(1 0 0 1 856.422 322)">Thin</text><text transform="matrix(1 0 0 1 1153.13 322)">Light</text><text transform="matrix(1 0 0 1 1449.84 322)">Regular</text><text transform="matrix(1 0 0 1 1746.56 322)">Medium</text><text transform="matrix(1 0 0 1 2043.27 322)">Semibold</text><text transform="matrix(1 0 0 1 2339.98 322)">Bold</text><text transform="matrix(1 0 0 1 2636.69 322)">Heavy</text><text transform="matrix(1 0 0 1 2933.4 322)">Black</text><text id="template-version" style="text-anchor: end;" transform="matrix(1 0 0 1 3036 1933)">Template v.1.0</text><text class="lanchor" transform="matrix(1 0 0 1 263 726)">Small</text><text class="lanchor" transform="matrix(1 0 0 1 263 1156)">Medium</text><text class="lanchor" transform="matrix(1 0 0 1 263 1586)">Large</text></g><g id="Guides"><g id="H-reference" style="fill:#27AAE1;stroke:none;" transform="matrix(1 0 0 1 339 696)"><path d="M 54.9316 0 L 57.666 0 L 30.5664 -70.459 L 28.0762 -70.459 L 0.976562 0 L 3.66211 0 L 12.9395 -24.4629 L 45.7031 -24.4629 Z M 29.1992 -67.0898 L 29.4434 -67.0898 L 44.8242 -26.709 L 13.8184 -26.709 Z"/></g><line id="Baseline-S" style="fill:none;stroke:#27AAE1;opacity:1;stroke-width:0.577;" x1="263" x2="3036" y1="696" y2="696"/><line id="Capline-S" style="fill:none;stroke:#27AAE1;opacity:1;stroke-width:0.577;" x1="263" x2="3036" y1="625.541" y2="625.541"/><g id="H-reference" style="fill:#27AAE1;stroke:none;" transform="matrix(1 0 0 1 339 1126)"><path d="M 54.9316 0 L 57.666 0 L 30.5664 -70.459 L 28.0762 -70.459 L 0.976562 0 L 3.66211 0 L 12.9395 -24.4629 L 45.7031 -24.4629 Z M 29.1992 -67.0898 L 29.4434 -67.0898 L 44.8242 -26.709 L 13.8184 -26.709 Z"/></g><line id="Baseline-M" style="fill:none;stroke:#27AAE1;opacity:1;stroke-width:0.577;" x1="263" x2="3036" y1="1126" y2="1126"/><line id="Capline-M" style="fill:none;stroke:#27AAE1;opacity:1;stroke-width:0.577;" x1="263" x2="3036" y1="1055.54" y2="1055.54"/><g id="H-reference" style="fill:#27AAE1;stroke:none;" transform="matrix(1 0 0 1 339 1556)"><path d="M 54.9316 0 L 57.666 0 L 30.5664 -70.459 L 28.0762 -70.459 L 0.976562 0 L 3.66211 0 L 12.9395 -24.4629 L 45.7031 -24.4629 Z M 29.1992 -67.0898 L 29.4434 -67.0898 L 44.8242 -26.709 L 13.8184 -26.709 Z"/></g><line id="Baseline-L" style="fill:none;stroke:#27AAE1;opacity:1;stroke-width:0.577;" x1="263" x2="3036" y1="1556" y2="1556"/><line id="Capline-L" style="fill:none;stroke:#27AAE1;opacity:1;stroke-width:0.577;" x1="263" x2="3036" y1="1485.54" y2="1485.54"/><rect height="119.336" id="left-margin" style="fill:darkred;stroke:none;opacity:0.4;" width="12.4512" x="1394.06" y="1030.79"/><rect height="119.336" id="right-margin" style="fill:darkgreen;stroke:none;opacity:0.4;" width="12.4512" x="1502.5112" y="1030.79"/><rect x="1406.5112" y="1045" width="96" height="96" fill="none" stroke="blue" stroke-dasharray="5"/><rect x="1394.06" y="1030.79" width="120.9024" height="119.336" fill="none" stroke="blue"/></g><g id="Symbols"><g id="Bold-L" transform="matrix(1 0 0 1 2266 1556)"><path d="M18.866 7.501  9.514 -3.141  22.253 -14.751 Q19.189 -18.782 16.206 -22.733 Q13.223 -26.684 10.32 -30.876 H28.541 Q29.67 -30.07 30.452 -28.715 Q31.236 -27.363 32.089 -26.361 Q34.185 -29.586 36.443 -32.65 Q38.7 -35.714 40.474 -39.745 H2.419 V-54.096 H22.575 V-64.416 H37.087 V-54.096 H64.339 V-39.745 H56.921 Q53.696 -32.811 49.665 -26.845 Q45.634 -20.879 41.441 -15.074 Q44.021 -12.816 46.359 -10.962 Q48.697 -9.107 51.439 -7.011 L44.344 6.695 Q40.958 4.276 37.894 1.777 Q34.83 -0.722 31.766 -3.786 L18.866 7.501 Z M45.311 39.59  69.983 -19.427 H87.236 L111.907 39.59 H96.055 L92.074 29.915 H64.5 L60.791 39.59 H45.311 Z M68.854 17.821 H87.72 L78.045 -6.527 L68.854 17.821 Z M109.972 -48.936 H121.583 Q124.646 -48.936 126.743 -50.871 Q128.839 -52.806 128.839 -56.031 V-61.352 H119.164 V-57.805 Q119.164 -57.805 119.164 -57.805 Q119.164 -57.805 119.164 -57.805 H112.391 Q112.391 -57.805 112.391 -57.805 Q112.391 -57.805 112.391 -57.805 V-78.445 Q112.391 -78.445 112.391 -78.445 Q112.391 -78.445 112.391 -78.445 H119.164 Q119.164 -78.445 119.164 -78.445 Q119.164 -78.445 119.164 -78.445 V-74.897 H128.839 V-79.896 Q128.839 -83.121 126.743 -85.217 Q124.646 -87.314 121.583 -87.314 H109.972 Q106.748 -87.314 104.732 -85.217 Q102.716 -83.121 102.716 -79.896 V-56.031 Q102.716 -52.806 104.732 -50.871 Q106.748 -48.936 109.972 -48.936 Z M137.546 -25.716 H80.464 V-62.642 H74.175 V-78.445 Q74.175 -78.445 74.175 -78.445 Q74.175 -78.445 74.175 -78.445 H80.948 Q80.948 -78.445 80.948 -78.445 Q80.948 -78.445 80.948 -78.445 V-74.897 H90.461 V-79.896 Q90.461 -83.062 88.426 -85.187 Q86.39 -87.314 83.366 -87.314 H71.595 Q68.41 -87.314 66.456 -85.187 Q64.5 -83.062 64.5 -79.896 V-62.642 H56.276 V-75.704 H40.474 V-95.86 Q40.474 -101.665 45.05 -105.938 Q49.628 -110.211 55.617 -110.211 H137.561 Q143.642 -110.211 148.092 -105.938 Q152.543 -101.665 152.543 -95.86 V-40.39 Q152.543 -34.195 148.092 -29.956 Q143.642 -25.716 137.546 -25.716 Z"/></g><g id="Semibold-L" transform="matrix(1 0 0 1 1970.27 1556)"><path d="M19.007 7.501  10.215 -2.58  23.375 -14.821 Q20.38 -18.642 17.433 -22.557 Q14.485 -26.474 11.792 -30.526 H28.891 Q30.02 -29.58 30.849 -28.217 Q31.676 -26.856 32.579 -25.731 Q34.886 -29.165 37.213 -32.369 Q39.542 -35.573 41.385 -39.676 H2.769 V-53.185 H23.486 V-63.505 H37.157 V-53.185 H64.129 V-39.676 H56.781 Q53.696 -32.811 49.7 -26.81 Q45.703 -20.809 41.372 -15.074 Q43.671 -12.886 45.553 -11.242 Q47.435 -9.598 49.826 -7.713 L43.292 5.292 Q40.256 3.014 37.718 0.726 Q35.18 -1.564 32.256 -4.488 L19.007 7.501 Z M43.77 39.309  68.23 -19.568 H84.222 L108.753 39.309 H93.952 L89.62 28.793 H62.257 L58.268 39.309 H43.77 Z M66.47 17.4 H85.406 L75.731 -7.158 L66.47 17.4 Z M109.832 -49.146 H122.073 Q124.996 -49.146 127.059 -51.081 Q129.119 -53.016 129.119 -56.031 V-61.493 H119.585 V-57.945 Q119.585 -57.945 119.585 -57.945 Q119.585 -57.945 119.585 -57.945 H112.322 Q112.322 -57.945 112.322 -57.945 Q112.322 -57.945 112.322 -57.945 V-78.726 Q112.322 -78.726 112.322 -78.726 Q112.322 -78.726 112.322 -78.726 H119.585 Q119.585 -78.726 119.585 -78.726 Q119.585 -78.726 119.585 -78.726 V-75.178 H129.119 V-80.386 Q129.119 -83.402 127.059 -85.463 Q124.996 -87.523 122.073 -87.523 H109.832 Q106.817 -87.523 104.801 -85.463 Q102.786 -83.402 102.786 -80.386 V-56.031 Q102.786 -53.016 104.801 -51.081 Q106.817 -49.146 109.832 -49.146 Z M137.967 -26.627 H80.885 V-62.712 H74.315 V-78.726 Q74.315 -78.726 74.315 -78.726 Q74.315 -78.726 74.315 -78.726 H81.578 Q81.578 -78.726 81.578 -78.726 Q81.578 -78.726 81.578 -78.726 V-75.178 H90.951 V-80.386 Q90.951 -83.42 88.952 -85.472 Q86.951 -87.523 84.068 -87.523 H71.664 Q68.62 -87.523 66.701 -85.472 Q64.781 -83.42 64.781 -80.386 V-62.712 H56.486 V-74.793 H41.385 V-96.281 Q41.385 -101.805 45.69 -105.833 Q49.994 -109.861 55.686 -109.861 H137.982 Q143.725 -109.861 147.924 -105.833 Q152.122 -101.805 152.122 -96.281 V-40.39 Q152.122 -34.575 147.924 -30.602 Q143.725 -26.627 137.967 -26.627 Z"/></g><g id="Medium-L" transform="matrix(1 0 0 1 1674.31 1556)"><path d="M19.111 7.501  10.741 -2.159  24.215 -14.874 Q21.274 -18.537 18.353 -22.427 Q15.432 -26.316 12.897 -30.263 H29.154 Q30.283 -29.211 31.145 -27.845 Q32.008 -26.477 32.948 -25.257 Q35.412 -28.849 37.792 -32.16 Q40.172 -35.469 42.069 -39.622 H3.032 V-52.501 H24.17 V-62.821 H37.21 V-52.501 H63.971 V-39.622 H56.676 Q53.696 -32.811 49.726 -26.784 Q45.756 -20.756 41.319 -15.074 Q43.408 -12.939 44.948 -11.452 Q46.488 -9.967 48.617 -8.238 L42.504 4.241 Q39.73 2.067 37.587 -0.063 Q35.443 -2.195 32.626 -5.013 L19.111 7.501 Z M42.612 39.1  66.916 -19.673 H81.96 L106.386 39.1 H92.375 L87.78 27.953 H60.574 L56.375 39.1 H42.612 Z M64.682 17.084 H83.671 L73.996 -7.632 L64.682 17.084 Z M109.727 -49.304 H122.442 Q125.259 -49.304 127.294 -51.239 Q129.329 -53.174 129.329 -56.031 V-61.598 H119.901 V-58.05 Q119.901 -58.05 119.901 -58.05 Q119.901 -58.05 119.901 -58.05 H112.269 Q112.269 -58.05 112.269 -58.05 Q112.269 -58.05 112.269 -58.05 V-78.935 Q112.269 -78.935 112.269 -78.935 Q112.269 -78.935 112.269 -78.935 H119.901 Q119.901 -78.935 119.901 -78.935 Q119.901 -78.935 119.901 -78.935 V-75.388 H129.329 V-80.756 Q129.329 -83.611 127.294 -85.646 Q125.259 -87.681 122.442 -87.681 H109.727 Q106.87 -87.681 104.854 -85.646 Q102.839 -83.611 102.839 -80.756 V-56.031 Q102.839 -53.174 104.854 -51.239 Q106.87 -49.304 109.727 -49.304 Z M138.283 -27.311 H81.201 V-62.765 H74.42 V-78.935 Q74.42 -78.935 74.42 -78.935 Q74.42 -78.935 74.42 -78.935 H82.052 Q82.052 -78.935 82.052 -78.935 Q82.052 -78.935 82.052 -78.935 V-75.388 H91.321 V-80.756 Q91.321 -83.689 89.345 -85.685 Q87.372 -87.681 84.593 -87.681 H71.718 Q68.778 -87.681 66.885 -85.685 Q64.99 -83.689 64.99 -80.756 V-62.765 H56.644 V-74.109 H42.069 V-96.597 Q42.069 -101.91 46.169 -105.754 Q50.27 -109.599 55.739 -109.599 H138.298 Q143.788 -109.599 147.797 -105.754 Q151.806 -101.91 151.806 -96.597 V-40.39 Q151.806 -34.859 147.797 -31.086 Q143.788 -27.311 138.283 -27.311 Z"/></g><g id="Regular-L" transform="matrix(1 0 0 1 1378.56 1556)"><path d="M19.189 7.501  11.126 -1.851  24.832 -14.912 Q21.93 -18.46 19.027 -22.33 Q16.125 -26.2 13.706 -30.07 H29.348 Q30.476 -28.941 31.363 -27.571 Q32.25 -26.2 33.218 -24.91 Q35.797 -28.619 38.216 -32.005 Q40.635 -35.391 42.57 -39.584 H3.225 V-52 H24.671 V-62.32 H37.249 V-52 H63.855 V-39.584 H56.599 Q53.696 -32.811 49.746 -26.764 Q45.795 -20.717 41.28 -15.074 Q43.215 -12.977 44.505 -11.607 Q45.795 -10.236 47.73 -8.624 L41.925 3.47 Q39.345 1.374 37.491 -0.642 Q35.636 -2.657 32.895 -5.399 L19.189 7.501 Z M41.764 38.945  65.951 -19.75 H80.303 L104.651 38.945 H91.218 L86.43 27.335 H59.34 L54.986 38.945 H41.764 Z M63.371 16.854 H82.399 L72.724 -7.979 L63.371 16.854 Z M109.65 -49.42 H122.711 Q125.453 -49.42 127.468 -51.355 Q129.484 -53.29 129.484 -56.031 V-61.675 H120.131 V-58.127 Q120.131 -58.127 120.131 -58.127 Q120.131 -58.127 120.131 -58.127 H112.23 Q112.23 -58.127 112.23 -58.127 Q112.23 -58.127 112.23 -58.127 V-79.09 Q112.23 -79.09 112.23 -79.09 Q112.23 -79.09 112.23 -79.09 H120.131 Q120.131 -79.09 120.131 -79.09 Q120.131 -79.09 120.131 -79.09 V-75.542 H129.484 V-81.025 Q129.484 -83.766 127.468 -85.782 Q125.453 -87.797 122.711 -87.797 H109.65 Q106.909 -87.797 104.893 -85.782 Q102.877 -83.766 102.877 -81.025 V-56.031 Q102.877 -53.29 104.893 -51.355 Q106.909 -49.42 109.65 -49.42 Z M138.514 -27.812 H81.431 V-62.804 H74.498 V-79.09 Q74.498 -79.09 74.498 -79.09 Q74.498 -79.09 74.498 -79.09 H82.399 Q82.399 -79.09 82.399 -79.09 Q82.399 -79.09 82.399 -79.09 V-75.542 H91.59 V-81.025 Q91.59 -83.887 89.636 -85.843 Q87.68 -87.797 84.979 -87.797 H71.756 Q68.894 -87.797 67.02 -85.843 Q65.145 -83.887 65.145 -81.025 V-62.804 H56.76 V-73.607 H42.57 V-96.827 Q42.57 -101.987 46.521 -105.696 Q50.471 -109.405 55.778 -109.405 H138.528 Q143.835 -109.405 147.705 -105.696 Q151.575 -101.987 151.575 -96.827 V-40.39 Q151.575 -35.069 147.705 -31.441 Q143.835 -27.812 138.514 -27.812 Z"/></g><g id="Light-L" transform="matrix(1 0 0 1 1082.77 1556)"><path d="M21.111 2.849  14.351 -5.076  27.19 -17.083 Q24.412 -20.569 21.57 -24.346 Q18.731 -28.122 16.249 -31.931 H29.72 Q31.034 -30.554 32.108 -28.904 Q33.18 -27.255 34.272 -25.779 Q37.038 -29.61 39.735 -33.277 Q42.433 -36.942 44.307 -41.506 H6.45 V-51.906 H26.78 V-61.575 H37.373 V-51.939 H63.855 V-41.506 H56.413 Q53.572 -34.733 49.497 -28.749 Q45.423 -22.764 40.97 -17.268 Q42.967 -15.087 44.195 -13.808 Q45.423 -12.531 47.482 -10.857 L42.422 -0.81 Q39.717 -2.969 38.111 -4.704 Q36.505 -6.44 33.95 -9.058 L21.111 2.849 Z M41.019 37.457  65.021 -20.495 H77.139 L101.302 37.457 H89.873 L84.817 25.289 H56.983 L52.195 37.457 H41.019 Z M60.456 16.481 H81.344 L70.802 -10.273 L60.456 16.481 Z M109.029 -49.11 H119.548 Q122.535 -49.11 124.769 -51.263 Q127.002 -53.416 127.002 -56.404 V-60 H119.201 V-57.258 Q119.201 -56.887 118.891 -56.576 Q118.58 -56.267 118.209 -56.267 H110.369 Q109.997 -56.267 109.687 -56.576 Q109.377 -56.887 109.377 -57.258 V-77.477 Q109.377 -77.85 109.687 -78.16 Q109.997 -78.469 110.369 -78.469 H118.209 Q118.58 -78.469 118.891 -78.16 Q119.201 -77.85 119.201 -77.477 V-74.612 H127.002 V-78.172 Q127.002 -81.16 124.769 -83.394 Q122.535 -85.627 119.548 -85.627 H109.029 Q105.978 -85.627 103.777 -83.394 Q101.575 -81.16 101.575 -78.172 V-56.404 Q101.575 -53.416 103.777 -51.263 Q105.978 -49.11 109.029 -49.11 Z M135.971 -28.557 H77.958 V-60.695 H72.822 V-77.477 Q72.822 -77.85 73.133 -78.16 Q73.443 -78.469 73.815 -78.469 H81.654 Q82.026 -78.469 82.337 -78.16 Q82.647 -77.85 82.647 -77.477 V-74.612 H90.287 V-78.172 Q90.287 -81.281 88.115 -83.453 Q85.941 -85.627 82.994 -85.627 H72.314 Q69.205 -85.627 67.114 -83.453 Q65.021 -81.281 65.021 -78.172 V-60.695 H54.217 V-72.056 H43.252 V-94.346 Q43.252 -99.196 46.954 -102.687 Q50.657 -106.18 55.718 -106.18 H135.982 Q141.044 -106.18 144.696 -102.687 Q148.35 -99.196 148.35 -94.346 V-40.39 Q148.35 -35.378 144.696 -31.968 Q141.044 -28.557 135.971 -28.557 Z"/></g><g id="Thin-L" transform="matrix(1 0 0 1 787.282 1556)"><path d="M23.035 -1.801  17.576 -8.301  29.546 -19.253 Q26.892 -22.677 24.113 -26.361 Q21.335 -30.046 18.792 -33.792 H30.092 Q31.592 -32.166 32.851 -30.238 Q34.111 -28.309 35.327 -26.647 Q38.278 -30.604 41.256 -34.548 Q44.232 -38.492 46.043 -43.43 H9.675 V-51.815 H28.888 V-60.832 H37.497 V-51.876 H63.855 V-43.43 H56.226 Q53.448 -36.657 49.249 -30.734 Q45.05 -24.81 40.659 -19.465 Q42.718 -17.194 43.884 -16.011 Q45.05 -14.825 47.233 -13.089 L42.917 -5.089 Q40.09 -7.31 38.731 -8.766 Q37.373 -10.223 35.004 -12.716 L23.035 -1.801 Z M40.275 35.968  64.09 -21.238 H73.977 L97.953 35.968 H88.528 L83.205 23.242 H54.627 L49.404 35.968 H40.275 Z M57.542 16.109 H80.29 L68.878 -12.568 L57.542 16.109 Z M108.41 -48.799 H116.385 Q119.62 -48.799 122.071 -51.171 Q124.522 -53.542 124.522 -56.776 V-58.326 H118.27 V-56.391 Q118.27 -55.647 117.651 -55.027 Q117.03 -54.406 116.285 -54.406 H108.508 Q107.765 -54.406 107.144 -55.027 Q106.525 -55.647 106.525 -56.391 V-75.865 Q106.525 -76.61 107.144 -77.229 Q107.765 -77.85 108.508 -77.85 H116.285 Q117.03 -77.85 117.651 -77.229 Q118.27 -76.61 118.27 -75.865 V-73.682 H124.522 V-75.32 Q124.522 -78.553 122.071 -81.006 Q119.62 -83.457 116.385 -83.457 H108.41 Q105.048 -83.457 102.66 -81.006 Q100.273 -78.553 100.273 -75.32 V-56.776 Q100.273 -53.542 102.66 -51.171 Q105.048 -48.799 108.41 -48.799 Z M133.428 -29.301 H74.485 V-58.587 H71.148 V-75.865 Q71.148 -76.61 71.769 -77.229 Q72.388 -77.85 73.133 -77.85 H80.91 Q81.654 -77.85 82.275 -77.229 Q82.895 -76.61 82.895 -75.865 V-73.682 H88.986 V-75.32 Q88.986 -78.674 86.594 -81.065 Q84.203 -83.457 81.009 -83.457 H72.872 Q69.518 -83.457 67.207 -81.065 Q64.897 -78.674 64.897 -75.32 V-58.587 H51.674 V-70.507 H43.934 V-91.866 Q43.934 -96.405 47.388 -99.68 Q50.844 -102.955 55.659 -102.955 H133.438 Q138.253 -102.955 141.689 -99.68 Q145.125 -96.405 145.125 -91.866 V-40.39 Q145.125 -35.69 141.689 -32.495 Q138.253 -29.301 133.428 -29.301 Z"/></g><g id="Ultralight-L" transform="matrix(1 0 0 1 491.205 1556)"><path d="M24.188 -4.592  19.511 -10.236  30.96 -20.556 Q28.38 -23.942 25.639 -27.571 Q22.898 -31.199 20.317 -34.907 H30.315 Q31.928 -33.134 33.298 -31.037 Q34.669 -28.941 35.959 -27.167 Q39.023 -31.199 42.167 -35.311 Q45.311 -39.422 47.085 -44.582 H11.61 V-51.758 H30.154 V-60.385 H37.571 V-51.839 H63.855 V-44.582 H56.115 Q53.374 -37.81 49.101 -31.924 Q44.828 -26.039 40.474 -20.78 Q42.57 -18.46 43.699 -17.331 Q44.828 -16.202 47.085 -14.429 L43.215 -7.656 Q40.312 -9.914 39.103 -11.204 Q37.894 -12.494 35.636 -14.912 L24.188 -4.592 Z M39.829 35.075  63.532 -21.685 H72.079 L95.944 35.075 H87.72 L82.237 22.014 H53.212 L47.73 35.075 H39.829 Z M55.793 15.886 H79.657 L67.725 -13.945 L55.793 15.886 Z M108.038 -48.614 H114.487 Q117.869 -48.614 120.452 -51.115 Q123.034 -53.617 123.034 -56.999 V-57.321 H117.713 V-55.87 Q117.713 -54.902 116.906 -54.096 Q116.1 -53.29 115.133 -53.29 H107.392 Q106.425 -53.29 105.619 -54.096 Q104.812 -54.902 104.812 -55.87 V-74.897 Q104.812 -75.865 105.619 -76.671 Q106.425 -77.477 107.392 -77.477 H115.133 Q116.1 -77.477 116.906 -76.671 Q117.713 -75.865 117.713 -74.897 V-73.124 H123.034 V-73.607 Q123.034 -76.989 120.452 -79.572 Q117.869 -82.154 114.487 -82.154 H108.038 Q104.49 -82.154 101.991 -79.572 Q99.491 -76.989 99.491 -73.607 V-56.999 Q99.491 -53.617 101.991 -51.115 Q104.49 -48.614 108.038 -48.614 Z M131.903 -29.747 H72.401 V-57.321 H70.144 V-74.897 Q70.144 -75.865 70.95 -76.671 Q71.756 -77.477 72.724 -77.477 H80.464 Q81.431 -77.477 82.237 -76.671 Q83.044 -75.865 83.044 -74.897 V-73.124 H88.204 V-73.607 Q88.204 -77.11 85.682 -79.632 Q83.16 -82.154 79.819 -82.154 H73.207 Q69.704 -82.154 67.264 -79.632 Q64.823 -77.11 64.823 -73.607 V-57.321 H50.149 V-69.576 H44.344 V-90.377 Q44.344 -94.731 47.649 -97.876 Q50.955 -101.02 55.623 -101.02 H131.911 Q136.579 -101.02 139.884 -97.876 Q143.19 -94.731 143.19 -90.377 V-40.39 Q143.19 -35.875 139.884 -32.811 Q136.579 -29.747 131.903 -29.747 Z"/></g><g id="Bold-M" transform="matrix(1 0 0 1 2281.8 1126)"><path d="M15 5.52  4.875 -5.355  16.5 -14.73 Q13.25 -18.73 10.25 -22.917 Q7.25 -27.105 4.5 -31.605 H22.5 Q23.5 -30.23 24.438 -28.667 Q25.375 -27.105 26.375 -25.855 Q28.25 -28.355 29.875 -31.105 Q31.5 -33.855 33 -36.855 H-1.875 V-51.73 H14.875 V-59.855 H29.875 V-51.73 H59.125 V-36.855 H49.5 Q46.625 -30.98 43.188 -25.73 Q39.75 -20.48 36.125 -15.48 Q38 -14.23 39.938 -12.98 Q41.875 -11.73 43.875 -10.48 L35.75 3.145 Q33.25 1.27 30.75 -0.48 Q28.25 -2.23 26.25 -4.105 L15 5.52 Z M36.5 26.52  55.625 -19.98 H74.25 L93.25 26.52 H77 L75.125 21.77 H54.375 L52.375 26.52 H36.5 Z M58.75 9.77 H70.75 L64.75 -6.605 L58.75 9.77 Z M87.875 -46.605 H92.625 Q96.375 -46.605 99 -49.23 Q101.625 -51.855 101.625 -55.605 V-57.98 H91.375 V-55.48 Q91.375 -55.48 91.375 -55.48 Q91.375 -55.48 91.375 -55.48 H89 Q89 -55.48 89 -55.48 Q89 -55.48 89 -55.48 V-67.73 Q89 -67.73 89 -67.73 Q89 -67.73 89 -67.73 H91.375 Q91.375 -67.73 91.375 -67.73 Q91.375 -67.73 91.375 -67.73 V-65.23 H101.625 V-67.605 Q101.625 -71.355 99 -73.98 Q96.375 -76.605 92.625 -76.605 H87.875 Q84 -76.605 81.438 -73.98 Q78.875 -71.355 78.875 -67.605 V-55.605 Q78.875 -51.855 81.438 -49.23 Q84 -46.605 87.875 -46.605 Z M106.875 -26.105 H66.5 V-58.355 H60 V-67.73 Q60 -67.73 60 -67.73 Q60 -67.73 60 -67.73 H62.375 Q62.375 -67.73 62.375 -67.73 Q62.375 -67.73 62.375 -67.73 V-65.23 H72.5 V-67.605 Q72.5 -71.355 69.875 -73.98 Q67.25 -76.605 63.5 -76.605 H58.75 Q55 -76.605 52.375 -73.98 Q49.75 -71.355 49.75 -67.605 V-58.355 H43.5 V-70.355 H29.5 V-82.23 Q29.5 -88.48 33.875 -92.792 Q38.25 -97.105 44.375 -97.105 H106.875 Q113.125 -97.105 117.5 -92.792 Q121.875 -88.48 121.875 -82.23 V-41.105 Q121.875 -34.855 117.5 -30.48 Q113.125 -26.105 106.875 -26.105 Z"/></g><g id="Semibold-M" transform="matrix(1 0 0 1 1985.97 1126)"><path d="M15.217 5.738  5.907 -4.214  18.456 -14.839 Q15.261 -18.73 12.342 -22.864 Q9.424 -26.996 6.836 -31.387 H23.098 Q24.152 -29.795 25.225 -28.097 Q26.299 -26.399 27.462 -24.931 Q29.609 -27.702 31.424 -30.725 Q33.239 -33.746 34.794 -37.072 H-1.06 V-50.642 H16.886 V-58.714 H30.581 V-50.642 H59.451 V-37.072 H49.718 Q47.005 -31.142 43.595 -25.811 Q40.185 -20.48 36.396 -15.48 Q38 -14.284 39.611 -13.089 Q41.222 -11.892 42.896 -10.751 L35.641 1.786 Q33.468 0.075 31.348 -1.621 Q29.229 -3.317 27.337 -5.137 L15.217 5.738 Z M35.847 25.759  54.646 -20.469 H71.424 L90.153 25.759 H75.424 L73.06 19.814 H52.69 L50.31 25.759 H35.847 Z M56.794 8.791 H68.956 L62.903 -7.964 L56.794 8.791 Z M87.44 -46.714 H93.331 Q96.864 -46.714 99.354 -49.202 Q101.843 -51.692 101.843 -55.225 V-57.926 H91.919 V-55.426 Q91.919 -55.426 91.919 -55.426 Q91.919 -55.426 91.919 -55.426 H88.729 Q88.729 -55.426 88.729 -55.426 Q88.729 -55.426 88.729 -55.426 V-68.001 Q88.729 -68.001 88.729 -68.001 Q88.729 -68.001 88.729 -68.001 H91.919 Q91.919 -68.001 91.919 -68.001 Q91.919 -68.001 91.919 -68.001 V-65.501 H101.843 V-68.202 Q101.843 -71.735 99.354 -74.225 Q96.864 -76.714 93.331 -76.714 H87.44 Q83.838 -76.714 81.384 -74.225 Q78.929 -71.735 78.929 -68.202 V-55.225 Q78.929 -51.692 81.384 -49.202 Q83.838 -46.714 87.44 -46.714 Z M107.31 -27.192 H67.479 V-58.192 H59.837 V-68.001 Q59.837 -68.001 59.837 -68.001 Q59.837 -68.001 59.837 -68.001 H63.028 Q63.028 -68.001 63.028 -68.001 Q63.028 -68.001 63.028 -68.001 V-65.501 H72.826 V-68.202 Q72.826 -71.735 70.338 -74.225 Q67.847 -76.714 64.315 -76.714 H58.424 Q54.891 -76.714 52.403 -74.225 Q49.913 -71.735 49.913 -68.202 V-58.192 H43.826 V-68.996 H30.695 V-82.665 Q30.695 -88.371 34.69 -92.33 Q38.685 -96.29 44.321 -96.29 H107.31 Q113.016 -96.29 117.011 -92.33 Q121.005 -88.371 121.005 -82.665 V-40.887 Q121.005 -35.181 117.011 -31.186 Q113.016 -27.192 107.31 -27.192 Z"/></g><g id="Medium-M" transform="matrix(1 0 0 1 1689.91 1126)"><path d="M15.38 5.9  6.683 -3.357  19.924 -14.92 Q16.769 -18.73 13.911 -22.822 Q11.054 -26.915 8.59 -31.225 H23.546 Q24.641 -29.469 25.816 -27.669 Q26.991 -25.869 28.277 -24.239 Q30.628 -27.214 32.585 -30.439 Q34.544 -33.665 36.139 -37.235 H-0.449 V-49.827 H18.394 V-57.857 H31.111 V-49.827 H59.696 V-37.235 H49.88 Q47.291 -31.265 43.901 -25.872 Q40.511 -20.48 36.6 -15.48 Q38 -14.325 39.366 -13.17 Q40.734 -12.015 42.163 -10.955 L35.56 0.768 Q33.63 -0.822 31.796 -2.477 Q29.962 -4.132 28.152 -5.912 L15.38 5.9 Z M35.359 25.189  53.913 -20.836 H69.305 L87.829 25.189 H74.241 L71.511 18.346 H51.426 L48.761 25.189 H35.359 Z M55.326 8.058 H67.611 L61.516 -8.982 L55.326 8.058 Z M87.114 -46.795 H93.861 Q97.231 -46.795 99.619 -49.182 Q102.005 -51.57 102.005 -54.939 V-57.885 H92.326 V-55.385 Q92.326 -55.385 92.326 -55.385 Q92.326 -55.385 92.326 -55.385 H88.525 Q88.525 -55.385 88.525 -55.385 Q88.525 -55.385 88.525 -55.385 V-68.205 Q88.525 -68.205 88.525 -68.205 Q88.525 -68.205 88.525 -68.205 H92.326 Q92.326 -68.205 92.326 -68.205 Q92.326 -68.205 92.326 -68.205 V-65.705 H102.005 V-68.651 Q102.005 -72.021 99.619 -74.407 Q97.231 -76.795 93.861 -76.795 H87.114 Q83.715 -76.795 81.343 -74.407 Q78.97 -72.021 78.97 -68.651 V-54.939 Q78.97 -51.57 81.343 -49.182 Q83.715 -46.795 87.114 -46.795 Z M107.636 -28.007 H68.213 V-58.07 H59.715 V-68.205 Q59.715 -68.205 59.715 -68.205 Q59.715 -68.205 59.715 -68.205 H63.516 Q63.516 -68.205 63.516 -68.205 Q63.516 -68.205 63.516 -68.205 V-65.705 H73.071 V-68.651 Q73.071 -72.021 70.684 -74.407 Q68.296 -76.795 64.926 -76.795 H58.179 Q54.81 -76.795 52.422 -74.407 Q50.035 -72.021 50.035 -68.651 V-58.07 H44.071 V-67.977 H31.593 V-82.991 Q31.593 -88.29 35.301 -91.984 Q39.011 -95.679 44.28 -95.679 H107.636 Q112.935 -95.679 116.644 -91.984 Q120.354 -88.29 120.354 -82.991 V-40.725 Q120.354 -35.426 116.644 -31.716 Q112.935 -28.007 107.636 -28.007 Z"/></g><g id="Regular-M" transform="matrix(1 0 0 1 1394.06 1126)"><path d="M15.5 6.02  7.25 -2.73  21 -14.98 Q17.875 -18.73 15.062 -22.792 Q12.25 -26.855 9.875 -31.105 H23.875 Q25 -29.23 26.25 -27.355 Q27.5 -25.48 28.875 -23.73 Q31.375 -26.855 33.438 -30.23 Q35.5 -33.605 37.125 -37.355 H0 V-49.23 H19.5 V-57.23 H31.5 V-49.23 H59.875 V-37.355 H50 Q47.5 -31.355 44.125 -25.917 Q40.75 -20.48 36.75 -15.48 Q38 -14.355 39.188 -13.23 Q40.375 -12.105 41.625 -11.105 L35.5 0.02 Q33.75 -1.48 32.125 -3.105 Q30.5 -4.73 28.75 -6.48 L15.5 6.02 Z M35 24.77  53.375 -21.105 H67.75 L86.125 24.77 H73.375 L70.375 17.27 H50.5 L47.625 24.77 H35 Z M54.25 7.52 H66.625 L60.5 -9.73 L54.25 7.52 Z M86.875 -46.855 H94.25 Q97.5 -46.855 99.812 -49.167 Q102.125 -51.48 102.125 -54.73 V-57.855 H92.625 V-55.355 Q92.625 -55.355 92.625 -55.355 Q92.625 -55.355 92.625 -55.355 H88.375 Q88.375 -55.355 88.375 -55.355 Q88.375 -55.355 88.375 -55.355 V-68.355 Q88.375 -68.355 88.375 -68.355 Q88.375 -68.355 88.375 -68.355 H92.625 Q92.625 -68.355 92.625 -68.355 Q92.625 -68.355 92.625 -68.355 V-65.855 H102.125 V-68.98 Q102.125 -72.23 99.812 -74.542 Q97.5 -76.855 94.25 -76.855 H86.875 Q83.625 -76.855 81.312 -74.542 Q79 -72.23 79 -68.98 V-54.73 Q79 -51.48 81.312 -49.167 Q83.625 -46.855 86.875 -46.855 Z M107.875 -28.605 H68.75 V-57.98 H59.625 V-68.355 Q59.625 -68.355 59.625 -68.355 Q59.625 -68.355 59.625 -68.355 H63.875 Q63.875 -68.355 63.875 -68.355 Q63.875 -68.355 63.875 -68.355 V-65.855 H73.25 V-68.98 Q73.25 -72.23 70.938 -74.542 Q68.625 -76.855 65.375 -76.855 H58 Q54.75 -76.855 52.438 -74.542 Q50.125 -72.23 50.125 -68.98 V-57.98 H44.25 V-67.23 H32.25 V-83.23 Q32.25 -88.23 35.75 -91.73 Q39.25 -95.23 44.25 -95.23 H107.875 Q112.875 -95.23 116.375 -91.73 Q119.875 -88.23 119.875 -83.23 V-40.605 Q119.875 -35.605 116.375 -32.105 Q112.875 -28.605 107.875 -28.605 Z"/></g><g id="Light-M" transform="matrix(1 0 0 1 1098.18 1126)"><path d="M16.703 -0.086  9.606 -7.826  21.144 -17.769 Q18.404 -21.182 15.784 -24.86 Q13.164 -28.537 10.836 -32.355 H23.539 Q24.615 -30.72 25.721 -29.061 Q26.826 -27.404 28.01 -25.797 Q30.365 -28.779 32.428 -31.961 Q34.49 -35.144 36.068 -38.797 H2.5 V-49.134 H19.453 V-56.652 H29.914 V-49.134 H56.221 V-38.797 H47.644 Q45.193 -33.086 41.841 -28.009 Q38.49 -22.932 34.779 -18.22 Q36.076 -17.095 36.904 -16.282 Q37.73 -15.471 39.125 -14.422 L33.576 -4.884 Q31.73 -6.432 30.586 -7.576 Q29.442 -8.721 27.836 -10.326 L16.703 -0.086 Z M32.26 23.616  50.779 -21.682 H63.422 L81.99 23.616 H70.73 L67.49 15.828 H46.509 L43.297 23.616 H32.26 Z M49.826 7.376 H64.172 L57.086 -11.654 L49.826 7.376 Z M86.297 -46.662 H91.75 Q95.047 -46.662 97.433 -49.047 Q99.817 -51.432 99.817 -54.73 V-56.316 H91.856 V-54.394 Q91.856 -54.105 91.615 -53.865 Q91.375 -53.624 91.086 -53.624 H86.836 Q86.547 -53.624 86.308 -53.865 Q86.067 -54.105 86.067 -54.394 V-67.394 Q86.067 -67.681 86.308 -67.922 Q86.547 -68.162 86.836 -68.162 H91.086 Q91.375 -68.162 91.615 -67.922 Q91.856 -67.681 91.856 -67.394 V-65.374 H99.817 V-67.056 Q99.817 -70.355 97.433 -72.74 Q95.047 -75.124 91.75 -75.124 H86.297 Q83 -75.124 80.615 -72.74 Q78.231 -70.355 78.231 -67.056 V-54.73 Q78.231 -51.432 80.615 -49.047 Q83 -46.662 86.297 -46.662 Z M105.808 -29.182 H63.701 V-56.345 H58.279 V-67.394 Q58.279 -67.681 58.519 -67.922 Q58.76 -68.162 59.047 -68.162 H63.297 Q63.586 -68.162 63.828 -67.922 Q64.067 -67.681 64.067 -67.394 V-65.374 H71.904 V-67.056 Q71.904 -70.355 69.519 -72.74 Q67.135 -75.124 63.836 -75.124 H58.385 Q55.086 -75.124 52.703 -72.74 Q50.318 -70.355 50.318 -67.056 V-56.345 H42.086 V-66.027 H32.586 V-81.306 Q32.586 -86.066 35.966 -89.397 Q39.346 -92.73 44.154 -92.73 H105.808 Q110.615 -92.73 113.995 -89.397 Q117.375 -86.066 117.375 -81.306 V-40.605 Q117.375 -35.845 113.995 -32.514 Q110.615 -29.182 105.808 -29.182 Z"/></g><g id="Thin-M" transform="matrix(1 0 0 1 802.565 1126)"><path d="M17.904 -6.191  11.961 -12.922  21.289 -20.557 Q18.933 -23.634 16.505 -26.927 Q14.078 -30.22 11.797 -33.605 H23.203 Q24.231 -32.211 25.192 -30.769 Q26.154 -29.326 27.144 -27.865 Q29.356 -30.701 31.419 -33.691 Q33.481 -36.682 35.01 -40.24 H5 V-49.037 H19.404 V-56.076 H28.328 V-49.037 H52.568 V-40.24 H45.289 Q42.885 -34.816 39.557 -30.1 Q36.231 -25.384 32.807 -20.961 Q34.154 -19.836 34.62 -19.336 Q35.086 -18.836 36.625 -17.74 L31.654 -9.787 Q29.711 -11.384 29.047 -12.047 Q28.385 -12.711 26.922 -14.172 L17.904 -6.191 Z M29.519 22.463  48.182 -22.259 H59.096 L77.856 22.463 H68.086 L64.606 14.385 H42.519 L38.971 22.463 H29.519 Z M45.404 7.231 H61.721 L53.672 -13.576 L45.404 7.231 Z M85.721 -46.47 H89.25 Q92.596 -46.47 95.052 -48.927 Q97.51 -51.384 97.51 -54.73 V-54.777 H91.086 V-53.432 Q91.086 -52.855 90.606 -52.374 Q90.125 -51.894 89.547 -51.894 H85.297 Q84.721 -51.894 84.24 -52.374 Q83.76 -52.855 83.76 -53.432 V-66.432 Q83.76 -67.009 84.24 -67.49 Q84.721 -67.97 85.297 -67.97 H89.547 Q90.125 -67.97 90.606 -67.49 Q91.086 -67.009 91.086 -66.432 V-64.894 H97.51 V-65.134 Q97.51 -68.48 95.052 -70.936 Q92.596 -73.394 89.25 -73.394 H85.721 Q82.375 -73.394 79.919 -70.936 Q77.461 -68.48 77.461 -65.134 V-54.73 Q77.461 -51.384 79.919 -48.927 Q82.375 -46.47 85.721 -46.47 Z M103.74 -29.759 H58.654 V-54.711 H56.932 V-66.432 Q56.932 -67.009 57.414 -67.49 Q57.894 -67.97 58.471 -67.97 H62.721 Q63.297 -67.97 63.779 -67.49 Q64.26 -67.009 64.26 -66.432 V-64.894 H70.558 V-65.134 Q70.558 -68.48 68.101 -70.936 Q65.644 -73.394 62.297 -73.394 H58.769 Q55.422 -73.394 52.966 -70.936 Q50.51 -68.48 50.51 -65.134 V-54.711 H39.922 V-64.826 H32.922 V-79.384 Q32.922 -83.902 36.182 -87.066 Q39.443 -90.23 44.057 -90.23 H103.74 Q108.356 -90.23 111.615 -87.066 Q114.875 -83.902 114.875 -79.384 V-40.605 Q114.875 -36.086 111.615 -32.922 Q108.356 -29.759 103.74 -29.759 Z"/></g><g id="Ultralight-M" transform="matrix(1 0 0 1 506.415 1126)"><path d="M18.625 -9.855  13.375 -15.98  21.375 -22.23 Q19.25 -25.105 16.938 -28.167 Q14.625 -31.23 12.375 -34.355 H23 Q24 -33.105 24.875 -31.792 Q25.75 -30.48 26.625 -29.105 Q28.75 -31.855 30.812 -34.73 Q32.875 -37.605 34.375 -41.105 H6.5 V-48.98 H19.375 V-55.73 H27.375 V-48.98 H50.375 V-41.105 H43.875 Q41.5 -35.855 38.188 -31.355 Q34.875 -26.855 31.625 -22.605 Q33 -21.48 33.25 -21.167 Q33.5 -20.855 35.125 -19.73 L30.5 -12.73 Q28.5 -14.355 28.125 -14.73 Q27.75 -15.105 26.375 -16.48 L18.625 -9.855 Z M27.875 21.77  46.625 -22.605 H56.5 L75.375 21.77 H66.5 L62.875 13.52 H40.125 L36.375 21.77 H27.875 Z M42.75 7.145 H60.25 L51.625 -14.73 L42.75 7.145 Z M85.375 -46.355 H87.75 Q91.125 -46.355 93.625 -48.855 Q96.125 -51.355 96.125 -54.73 V-53.855 H90.625 V-52.855 Q90.625 -52.105 90 -51.48 Q89.375 -50.855 88.625 -50.855 H84.375 Q83.625 -50.855 83 -51.48 Q82.375 -52.105 82.375 -52.855 V-65.855 Q82.375 -66.605 83 -67.23 Q83.625 -67.855 84.375 -67.855 H88.625 Q89.375 -67.855 90 -67.23 Q90.625 -66.605 90.625 -65.855 V-64.605 H96.125 V-63.98 Q96.125 -67.355 93.625 -69.855 Q91.125 -72.355 87.75 -72.355 H85.375 Q82 -72.355 79.5 -69.855 Q77 -67.355 77 -63.98 V-54.73 Q77 -51.355 79.5 -48.855 Q82 -46.355 85.375 -46.355 Z M102.5 -30.105 H55.625 V-53.73 H56.125 V-65.855 Q56.125 -66.605 56.75 -67.23 Q57.375 -67.855 58.125 -67.855 H62.375 Q63.125 -67.855 63.75 -67.23 Q64.375 -66.605 64.375 -65.855 V-64.605 H69.75 V-63.98 Q69.75 -67.355 67.25 -69.855 Q64.75 -72.355 61.375 -72.355 H59 Q55.625 -72.355 53.125 -69.855 Q50.625 -67.355 50.625 -63.98 V-53.73 H38.625 V-64.105 H33.125 V-78.23 Q33.125 -82.605 36.312 -85.667 Q39.5 -88.73 44 -88.73 H102.5 Q107 -88.73 110.188 -85.667 Q113.375 -82.605 113.375 -78.23 V-40.605 Q113.375 -36.23 110.188 -33.167 Q107 -30.105 102.5 -30.105 Z"/></g><g id="Bold-S" transform="matrix(1 0 0 1 2294.23 696)"><path d="M12.229 -3.571  4.537 -12.053  13.019 -18.76 Q10.553 -21.718 8.235 -24.973 Q5.918 -28.228 3.846 -31.581 H17.889 Q18.64 -30.595 19.281 -29.46 Q19.922 -28.326 20.633 -27.34 Q21.993 -29.214 23.226 -31.285 Q24.459 -33.356 25.544 -35.526 H-0.69 V-46.966 H11.758 V-53.081 H23.374 V-46.917 H44.776 V-35.427 H38.365 Q36.195 -31.088 33.582 -27.093 Q30.968 -23.099 28.207 -19.351 Q29.686 -18.365 30.919 -17.527 Q32.152 -16.688 34.026 -15.702 L27.672 -5.149 Q25.741 -6.629 24.015 -7.812 Q22.289 -8.996 20.514 -10.574 L12.229 -3.571 Z M28.305 12.702  42.862 -22.606 H57.301 L71.799 12.702 H59.208 L57.849 9.349 H42.014 L40.569 12.702 H28.305 Z M45.367 -0.021 H54.54 L50.003 -12.546 L45.367 -0.021 Z M66.177 -42.232 H69.15 Q71.978 -42.232 73.959 -44.246 Q75.941 -46.261 75.941 -49.136 V-50.418 H68.249 V-48.84 Q68.249 -48.84 68.249 -48.84 Q68.249 -48.84 68.249 -48.84 H66.868 Q66.868 -48.84 66.868 -48.84 Q66.868 -48.84 66.868 -48.84 V-56.927 Q66.868 -56.927 66.868 -56.927 Q66.868 -56.927 66.868 -56.927 H68.249 Q68.249 -56.927 68.249 -56.927 Q68.249 -56.927 68.249 -56.927 V-55.251 H75.941 V-56.78 Q75.941 -59.591 73.957 -61.564 Q71.973 -63.535 69.142 -63.535 H66.148 Q63.219 -63.535 61.246 -61.549 Q59.274 -59.563 59.274 -56.73 V-49.136 Q59.274 -46.261 61.238 -44.246 Q63.204 -42.232 66.177 -42.232 Z M79.985 -27.241 H50.102 V-51.898 H46.354 V-56.927 Q46.354 -56.927 46.354 -56.927 Q46.354 -56.927 46.354 -56.927 H47.882 Q47.882 -56.927 47.882 -56.927 Q47.882 -56.927 47.882 -56.927 V-55.251 H55.526 V-56.78 Q55.526 -59.591 53.54 -61.564 Q51.553 -63.535 48.721 -63.535 H45.479 Q42.606 -63.535 40.634 -61.76 Q38.661 -59.985 38.661 -57.125 V-51.898 H34.322 V-60.182 H24.065 V-67.973 Q24.065 -72.412 27.221 -75.469 Q30.377 -78.526 34.617 -78.526 H79.985 Q84.324 -78.526 87.48 -75.469 Q90.636 -72.412 90.636 -67.973 V-37.893 Q90.636 -33.455 87.48 -30.348 Q84.324 -27.241 79.985 -27.241 Z"/></g><g id="Semibold-S" transform="matrix(1 0 0 1 1998.1 696)"><path d="M12.401 -3.4  5.351 -11.153  14.562 -18.845 Q12.14 -21.718 9.886 -24.931 Q7.633 -28.142 5.69 -31.409 H18.36 Q19.155 -30.251 19.903 -29.011 Q20.651 -27.769 21.49 -26.611 Q23.065 -28.699 24.448 -30.985 Q25.831 -33.27 26.959 -35.697 H-0.047 V-46.108 H13.345 V-52.181 H23.931 V-46.059 H45.033 V-35.599 H38.537 Q36.495 -31.216 33.903 -27.158 Q31.311 -23.099 28.421 -19.351 Q29.686 -18.408 30.662 -17.613 Q31.637 -16.817 33.253 -15.916 L27.586 -6.221 Q25.913 -7.572 24.487 -8.713 Q23.061 -9.854 21.372 -11.388 L12.401 -3.4 Z M27.791 12.101  42.09 -22.992 H55.071 L69.355 12.101 H57.964 L56.22 7.805 H40.685 L38.94 12.101 H27.791 Z M43.824 -0.793 H53.124 L48.545 -13.618 L43.824 -0.793 Z M65.834 -42.318 H69.707 Q72.363 -42.318 74.238 -44.226 Q76.113 -46.133 76.113 -48.836 V-50.376 H68.678 V-48.798 Q68.678 -48.798 68.678 -48.798 Q68.678 -48.798 68.678 -48.798 H66.654 Q66.654 -48.798 66.654 -48.798 Q66.654 -48.798 66.654 -48.798 V-57.142 Q66.654 -57.142 66.654 -57.142 Q66.654 -57.142 66.654 -57.142 H68.678 Q68.678 -57.142 68.678 -57.142 Q68.678 -57.142 68.678 -57.142 V-55.465 H76.113 V-57.251 Q76.113 -59.892 74.235 -61.756 Q72.358 -63.621 69.699 -63.621 H65.805 Q63.09 -63.621 61.204 -61.742 Q59.316 -59.864 59.316 -57.202 V-48.836 Q59.316 -46.133 61.196 -44.226 Q63.076 -42.318 65.834 -42.318 Z M80.328 -28.099 H50.874 V-51.769 H46.226 V-57.142 Q46.226 -57.142 46.226 -57.142 Q46.226 -57.142 46.226 -57.142 H48.397 Q48.397 -57.142 48.397 -57.142 Q48.397 -57.142 48.397 -57.142 V-55.465 H55.783 V-57.251 Q55.783 -59.892 53.904 -61.756 Q52.026 -63.621 49.364 -63.621 H45.222 Q42.52 -63.621 40.655 -61.953 Q38.789 -60.285 38.789 -57.596 V-51.769 H34.579 V-59.11 H25.007 V-68.317 Q25.007 -72.326 27.864 -75.104 Q30.72 -77.883 34.575 -77.883 H80.328 Q84.239 -77.883 87.095 -75.104 Q89.95 -72.326 89.95 -68.317 V-37.721 Q89.95 -33.712 87.095 -30.905 Q84.239 -28.099 80.328 -28.099 Z"/></g><g id="Medium-S" transform="matrix(1 0 0 1 1701.85 696)"><path d="M12.529 -3.272  5.963 -10.477  15.72 -18.91 Q13.329 -21.718 11.124 -24.898 Q8.919 -28.078 7.073 -31.281 H18.714 Q19.541 -29.994 20.369 -28.672 Q21.197 -27.351 22.133 -26.065 Q23.869 -28.313 25.364 -30.759 Q26.861 -33.206 28.02 -35.826 H0.435 V-45.465 H14.534 V-51.505 H24.35 V-45.416 H45.226 V-35.727 H38.665 Q36.721 -31.313 34.145 -27.206 Q31.569 -23.099 28.582 -19.351 Q29.686 -18.44 30.468 -17.677 Q31.251 -16.913 32.674 -16.077 L27.521 -7.025 Q26.041 -8.28 24.841 -9.388 Q23.64 -10.497 22.015 -12 L12.529 -3.272 Z M27.405 11.651  41.511 -23.282 H53.4 L67.522 11.651 H57.031 L54.998 6.647 H39.688 L37.717 11.651 H27.405 Z M42.666 -1.372 H52.063 L47.451 -14.422 L42.666 -1.372 Z M65.577 -42.382 H70.125 Q72.652 -42.382 74.447 -44.209 Q76.241 -46.036 76.241 -48.61 V-50.343 H68.999 V-48.765 Q68.999 -48.765 68.999 -48.765 Q68.999 -48.765 68.999 -48.765 H66.493 Q66.493 -48.765 66.493 -48.765 Q66.493 -48.765 66.493 -48.765 V-57.302 Q66.493 -57.302 66.493 -57.302 Q66.493 -57.302 66.493 -57.302 H68.999 Q68.999 -57.302 68.999 -57.302 Q68.999 -57.302 68.999 -57.302 V-55.626 H76.241 V-57.605 Q76.241 -60.117 74.444 -61.901 Q72.648 -63.685 70.117 -63.685 H65.547 Q62.994 -63.685 61.171 -61.887 Q59.349 -60.088 59.349 -57.556 V-48.61 Q59.349 -46.036 61.163 -44.209 Q62.979 -42.382 65.577 -42.382 Z M80.586 -28.742 H51.453 V-51.673 H46.129 V-57.302 Q46.129 -57.302 46.129 -57.302 Q46.129 -57.302 46.129 -57.302 H48.783 Q48.783 -57.302 48.783 -57.302 Q48.783 -57.302 48.783 -57.302 V-55.626 H55.977 V-57.605 Q55.977 -60.117 54.178 -61.901 Q52.379 -63.685 49.846 -63.685 H45.028 Q42.456 -63.685 40.671 -62.097 Q38.886 -60.511 38.886 -57.95 V-51.673 H34.772 V-58.306 H25.715 V-68.574 Q25.715 -72.262 28.346 -74.831 Q30.977 -77.401 34.542 -77.401 H80.586 Q84.174 -77.401 86.805 -74.831 Q89.436 -72.262 89.436 -68.574 V-37.593 Q89.436 -33.905 86.805 -31.323 Q84.174 -28.742 80.586 -28.742 Z"/></g><g id="Regular-S" transform="matrix(1 0 0 1 1405.73 696)"><path d="M12.624 -3.177  6.411 -9.982  16.569 -18.957 Q14.202 -21.718 12.032 -24.874 Q9.863 -28.03 8.087 -31.186 H18.973 Q19.824 -29.806 20.711 -28.425 Q21.599 -27.044 22.606 -25.663 Q24.459 -28.03 26.037 -30.595 Q27.615 -33.159 28.799 -35.92 H0.789 V-44.994 H15.407 V-51.01 H24.656 V-44.945 H45.367 V-35.822 H38.76 Q36.886 -31.384 34.322 -27.241 Q31.757 -23.099 28.7 -19.351 Q29.686 -18.464 30.327 -17.724 Q30.968 -16.984 32.25 -16.195 L27.475 -7.615 Q26.136 -8.798 25.1 -9.883 Q24.065 -10.968 22.486 -12.448 L12.624 -3.177 Z M27.122 11.321  41.087 -23.494 H52.173 L66.177 11.321 H56.347 L54.102 5.798 H38.957 L36.822 11.321 H27.122 Z M41.817 -1.796 H51.285 L46.65 -15.012 L41.817 -1.796 Z M65.388 -42.43 H70.432 Q72.865 -42.43 74.6 -44.197 Q76.336 -45.965 76.336 -48.446 V-50.32 H69.235 V-48.742 Q69.235 -48.742 69.235 -48.742 Q69.235 -48.742 69.235 -48.742 H66.375 Q66.375 -48.742 66.375 -48.742 Q66.375 -48.742 66.375 -48.742 V-57.421 Q66.375 -57.421 66.375 -57.421 Q66.375 -57.421 66.375 -57.421 H69.235 Q69.235 -57.421 69.235 -57.421 Q69.235 -57.421 69.235 -57.421 V-55.744 H76.336 V-57.864 Q76.336 -60.282 74.598 -62.008 Q72.86 -63.733 70.424 -63.733 H65.359 Q62.923 -63.733 61.148 -61.993 Q59.372 -60.253 59.372 -57.815 V-48.446 Q59.372 -45.965 61.14 -44.197 Q62.908 -42.43 65.388 -42.43 Z M80.774 -29.214 H51.877 V-51.602 H46.058 V-57.421 Q46.058 -57.421 46.058 -57.421 Q46.058 -57.421 46.058 -57.421 H49.066 Q49.066 -57.421 49.066 -57.421 Q49.066 -57.421 49.066 -57.421 V-55.744 H56.118 V-57.864 Q56.118 -60.282 54.378 -62.008 Q52.638 -63.733 50.2 -63.733 H44.887 Q42.409 -63.733 40.683 -62.204 Q38.957 -60.675 38.957 -58.21 V-51.602 H34.913 V-57.716 H26.234 V-68.762 Q26.234 -72.214 28.7 -74.631 Q31.166 -77.047 34.519 -77.047 H80.774 Q84.127 -77.047 86.593 -74.631 Q89.058 -72.214 89.058 -68.762 V-37.498 Q89.058 -34.046 86.593 -31.63 Q84.127 -29.214 80.774 -29.214 Z"/></g><g id="Light-S" transform="matrix(1 0 0 1 1109.75 696)"><path d="M13.573 -7.995  8.27 -14.003  16.682 -21.157 Q14.619 -23.653 12.601 -26.506 Q10.583 -29.358 8.846 -32.173 H18.708 Q19.52 -30.981 20.294 -29.771 Q21.067 -28.562 21.922 -27.295 Q23.662 -29.548 25.24 -31.961 Q26.818 -34.373 27.964 -37.059 H2.762 V-44.918 H15.37 V-50.554 H23.405 V-44.869 H42.485 V-36.96 H36.901 Q35.065 -32.75 32.52 -28.891 Q29.974 -25.034 27.145 -21.513 Q28.168 -20.626 28.525 -20.132 Q28.881 -19.64 30.278 -18.813 L25.957 -11.484 Q24.542 -12.706 23.886 -13.411 Q23.23 -14.117 21.766 -15.482 L13.573 -7.995 Z M24.96 10.411  39.039 -23.949 H48.758 L62.915 10.411 H54.261 L51.825 4.66 H35.808 L33.407 10.411 H24.96 Z M38.327 -1.91 H49.35 L43.956 -16.53 L38.327 -1.91 Z M64.933 -42.278 H68.46 Q70.93 -42.278 72.722 -44.102 Q74.515 -45.928 74.515 -48.446 V-49.106 H68.628 V-47.983 Q68.628 -47.755 68.438 -47.566 Q68.249 -47.376 68.021 -47.376 H65.161 Q64.933 -47.376 64.743 -47.566 Q64.554 -47.755 64.554 -47.983 V-56.662 Q64.554 -56.889 64.743 -57.079 Q64.933 -57.269 65.161 -57.269 H68.021 Q68.249 -57.269 68.438 -57.079 Q68.628 -56.889 68.628 -56.662 V-55.364 H74.515 V-56.347 Q74.515 -58.802 72.72 -60.585 Q70.925 -62.367 68.452 -62.367 H64.903 Q62.43 -62.367 60.597 -60.571 Q58.766 -58.774 58.766 -56.297 V-48.446 Q58.766 -45.928 60.59 -44.102 Q62.415 -42.278 64.933 -42.278 Z M79.143 -29.67 H47.893 V-50.312 H44.996 V-56.662 Q44.996 -56.889 45.185 -57.079 Q45.375 -57.269 45.602 -57.269 H48.61 Q48.838 -57.269 49.028 -57.079 Q49.218 -56.889 49.218 -56.662 V-55.364 H55.055 V-56.347 Q55.055 -58.802 53.259 -60.585 Q51.463 -62.367 48.986 -62.367 H45.191 Q42.674 -62.367 40.892 -60.782 Q39.109 -59.196 39.109 -56.692 V-50.312 H33.206 V-56.768 H26.5 V-67.245 Q26.5 -70.507 28.87 -72.79 Q31.241 -75.074 34.443 -75.074 H79.143 Q82.344 -75.074 84.715 -72.79 Q87.086 -70.507 87.086 -67.245 V-37.498 Q87.086 -34.236 84.715 -31.953 Q82.344 -29.67 79.143 -29.67 Z"/></g><g id="Thin-S" transform="matrix(1 0 0 1 814.015 696)"><path d="M14.521 -12.812  10.128 -18.024  16.797 -23.358 Q15.036 -25.587 13.17 -28.137 Q11.304 -30.685 9.604 -33.159 H18.442 Q19.217 -32.158 19.877 -31.118 Q20.537 -30.079 21.24 -28.926 Q22.866 -31.065 24.444 -33.326 Q26.022 -35.587 27.13 -38.197 H4.734 V-44.842 H15.331 V-50.1 H22.153 V-44.793 H39.602 V-38.098 H35.042 Q33.245 -34.115 30.718 -30.541 Q28.192 -26.968 25.589 -23.676 Q26.651 -22.788 26.723 -22.542 Q26.795 -22.295 28.305 -21.43 L24.44 -15.353 Q22.949 -16.613 22.672 -16.939 Q22.396 -17.265 21.045 -18.517 L14.521 -12.812 Z M22.797 9.5  36.99 -24.404 H45.345 L59.653 9.5 H52.175 L49.55 3.522 H32.66 L29.994 9.5 H22.797 Z M34.837 -2.024 H47.416 L41.263 -18.047 L34.837 -2.024 Z M64.478 -42.126 H66.487 Q68.996 -42.126 70.845 -44.008 Q72.695 -45.889 72.695 -48.446 V-47.891 H68.021 V-47.225 Q68.021 -46.769 67.642 -46.389 Q67.262 -46.011 66.807 -46.011 H63.946 Q63.492 -46.011 63.112 -46.389 Q62.733 -46.769 62.733 -47.225 V-55.904 Q62.733 -56.358 63.112 -56.738 Q63.492 -57.117 63.946 -57.117 H66.807 Q67.262 -57.117 67.642 -56.738 Q68.021 -56.358 68.021 -55.904 V-54.986 H72.695 V-54.83 Q72.695 -57.323 70.842 -59.162 Q68.991 -61.002 66.479 -61.002 H64.448 Q61.937 -61.002 60.048 -59.149 Q58.158 -57.295 58.158 -54.78 V-48.446 Q58.158 -45.889 60.04 -44.008 Q61.922 -42.126 64.478 -42.126 Z M77.511 -30.124 H43.911 V-49.023 H43.933 V-55.904 Q43.933 -56.358 44.313 -56.738 Q44.692 -57.117 45.148 -57.117 H48.156 Q48.61 -57.117 48.99 -56.738 Q49.37 -56.358 49.37 -55.904 V-54.986 H53.993 V-54.83 Q53.993 -57.323 52.14 -59.162 Q50.287 -61.002 47.772 -61.002 H45.494 Q42.939 -61.002 41.1 -59.359 Q39.261 -57.716 39.261 -55.175 V-49.023 H31.499 V-55.82 H26.765 V-65.728 Q26.765 -68.8 29.041 -70.951 Q31.317 -73.102 34.367 -73.102 H77.511 Q80.562 -73.102 82.837 -70.951 Q85.113 -68.8 85.113 -65.728 V-37.498 Q85.113 -34.426 82.837 -32.275 Q80.562 -30.124 77.511 -30.124 Z"/></g><g id="Ultralight-S" transform="matrix(1 0 0 1 517.792 696)"><path d="M15.09 -15.702  11.243 -20.436  16.865 -24.677 Q15.287 -26.748 13.512 -29.115 Q11.736 -31.482 10.06 -33.751 H18.283 Q19.035 -32.863 19.626 -31.926 Q20.218 -30.989 20.831 -29.904 Q22.388 -31.975 23.966 -34.145 Q25.544 -36.315 26.629 -38.879 H5.918 V-44.797 H15.309 V-49.826 H21.402 V-44.747 H37.872 V-38.78 H33.927 Q32.152 -34.934 29.637 -31.532 Q27.122 -28.129 24.656 -24.973 Q25.741 -24.085 25.643 -23.987 Q25.544 -23.888 27.122 -23 L23.53 -17.675 Q21.993 -18.957 21.944 -19.055 Q21.895 -19.154 20.613 -20.338 L15.09 -15.702 Z M21.5 8.954  35.761 -24.677 H43.296 L57.696 8.954 H50.923 L48.184 2.839 H30.771 L27.945 8.954 H21.5 Z M32.744 -2.092 H46.255 L39.647 -18.957 L32.744 -2.092 Z M64.205 -42.035 H65.304 Q67.835 -42.035 69.718 -43.95 Q71.602 -45.867 71.602 -48.446 V-47.164 H67.657 V-46.769 Q67.657 -46.177 67.164 -45.684 Q66.671 -45.191 66.079 -45.191 H63.219 Q62.627 -45.191 62.134 -45.684 Q61.641 -46.177 61.641 -46.769 V-55.448 Q61.641 -56.04 62.134 -56.533 Q62.627 -57.026 63.219 -57.026 H66.079 Q66.671 -57.026 67.164 -56.533 Q67.657 -56.04 67.657 -55.448 V-54.758 H71.602 V-53.919 Q71.602 -56.435 69.716 -58.309 Q67.83 -60.182 65.296 -60.182 H64.175 Q61.641 -60.182 59.717 -58.294 Q57.794 -56.407 57.794 -53.87 V-48.446 Q57.794 -45.867 59.71 -43.95 Q61.626 -42.035 64.205 -42.035 Z M76.533 -30.397 H41.521 V-48.248 H43.296 V-55.448 Q43.296 -56.04 43.79 -56.533 Q44.283 -57.026 44.874 -57.026 H47.882 Q48.474 -57.026 48.967 -56.533 Q49.46 -56.04 49.46 -55.448 V-54.758 H53.356 V-53.919 Q53.356 -56.435 51.468 -58.309 Q49.581 -60.182 47.044 -60.182 H45.676 Q43.099 -60.182 41.225 -58.505 Q39.351 -56.829 39.351 -54.265 V-48.248 H30.475 V-55.251 H26.925 V-64.817 Q26.925 -67.776 29.144 -69.847 Q31.363 -71.918 34.322 -71.918 H76.533 Q79.492 -71.918 81.711 -69.847 Q83.93 -67.776 83.93 -64.817 V-37.498 Q83.93 -34.54 81.711 -32.468 Q79.492 -30.397 76.533 -30.397 Z"/></g></g></svg>