<svg xmlns="http://www.w3.org/2000/svg" height="20" viewBox="0 -960 960 960" width="20"><path d="M318.15-216q-42.69 0-72.42-29.73Q216-275.46 216-318.15v-323.31q0-41.69 29.73-71.12Q275.46-742 318.15-744h323.31q42.08 2 71.31 31.23Q742-683.54 744-641.46v323.31q-2 42.69-31.42 72.42Q683.15-216 641.46-216H318.15Zm0 52h323.31q64.62 0 109.58-44.77Q796-253.54 796-318.15v-323.31q0-64.62-44.96-109.58Q706.08-796 641.46-796H318.15q-64.61 0-109.38 44.96Q164-706.08 164-641.46v323.31q0 64.23 44.96 109.19Q253.92-164 318.15-164Zm-5.61-339.15-44.31-31.77q41.46-47.69 94.85-70.08 53.38-22.38 116.92-22.38 64.31 0 117.31 22.38 53 22.39 96.46 70.08l-46.31 31.77q-31.61-34.77-74.61-53.5-43-18.74-92.85-18.74-49.85 0-93.04 18.54-43.19 18.54-74.42 53.7Zm96.38 98.53L368.77-438q21.69-23.69 50.31-37.04 28.61-13.34 60.54-13.34 31.92 0 61.61 13.34 29.69 13.35 51.38 37.04l-41.53 33.38q-15.16-16.15-32.54-23.96-17.39-7.81-38.54-7.81t-38.73 7.81q-17.58 7.81-32.35 23.96Zm49.43 90.27q-8.96-8.96-8.96-21.65 0-12.69 8.96-21.65 8.96-8.96 21.65-8.96 12.69 0 21.65 8.96 8.96 8.96 8.96 21.65 0 12.69-8.96 21.65-8.96 8.96-21.65 8.96-12.69 0-21.65-8.96ZM480-480Z"/></svg>