<svg xmlns="http://www.w3.org/2000/svg" height="24" viewBox="0 -960 960 960" width="24"><path d="M277.5-216q-26 0-43.75-17.75T216-277.5v-405q0-26 17.75-43.75T277.5-744h405q26 0 43.75 17.75T744-682.5v405q0 26-17.75 43.75T682.5-216h-405Zm0 120h405q76 0 128.75-52.75T864-277.5v-405q0-76-52.75-128.75T682.5-864h-405q-76 0-128.75 52.75T96-682.5v405q0 76 52.75 128.75T277.5-96Zm44-444-70-72q48-43 106-63T480-695q64.5 0 121.75 19.5T707-614l-69 74q-31.5-30-73.5-43T480-596q-43.5 0-85 13t-73.5 43ZM427-416.5 361-492q25-19 55.75-29.5T481-532q32.5 0 63.75 10.5T601-492l-68 74.5q-12-9-24.5-13.25t-27-4.25q-15.5 0-29 4.25T427-416.5ZM448-290q-13.5-13.5-13.5-32t13.5-31.5q13.5-13 32-13t32 13q13.5 13 13.5 31.5T512-290q-13.5 13.5-32 13.5T448-290Zm32-190Z"/></svg>