<svg xmlns="http://www.w3.org/2000/svg" height="24" viewBox="0 -960 960 960" width="24"><path d="M292.31-160h374.61q55.23 0 94.16-38.54Q800-237.08 800-292.31v-374.61q0-55.23-38.92-94.16Q722.15-800 666.92-800H292.31q-55.23 0-93.77 38.92Q160-722.15 160-666.92v374.61q0 54.46 38.92 93.39Q237.85-160 292.31-160Zm1.77-351.31-29.62-26.54q38.92-46.38 96.19-69.65 57.27-23.27 119.35-23.27 61.62 0 118.62 23.27 57 23.27 95.92 69.65l-29.62 26.54q-34.23-39.54-82.73-59.5-48.5-19.96-102.19-19.96t-102.58 19.58q-48.88 19.57-83.34 59.88Zm104.77 107.08L369.54-432q21.38-23.38 50.11-36.08 28.73-12.69 60.58-12.69 31.85 0 60.73 12.69 28.89 12.7 50.27 36.08l-29.08 27.77q-16.3-17.31-37.57-26.92-21.27-9.62-44.58-9.62t-44.46 9.62q-21.16 9.61-36.69 26.92Zm60.34 105.04q-8.42-8.43-8.42-20.81 0-12.38 8.42-20.81 8.43-8.42 20.81-8.42 12.38 0 20.81 8.42 8.42 8.43 8.42 20.81 0 12.38-8.42 20.81-8.43 8.42-20.81 8.42-12.38 0-20.81-8.42Z"/></svg>