<svg xmlns="http://www.w3.org/2000/svg" height="20" viewBox="0 -960 960 960" width="20"><path d="M312.54-227.22q-36.04 0-60.68-24.64t-24.64-60.68v-334.92q0-35.04 24.64-59.18t60.68-26.14h334.92q35.04 2 59.18 26.14t26.14 59.18v334.92q-2 36.04-26.14 60.68t-59.18 24.64H312.54Zm0 92.44h334.92q74.78 0 126.27-51.49 51.49-51.49 51.49-126.27v-334.92q0-74.78-51.49-126.27-51.49-51.49-126.27-51.49H312.54q-74.78 0-126.27 51.49-51.49 51.49-51.49 126.27v334.92q0 74.78 51.49 126.27 51.49 51.49 126.27 51.49Zm18.53-386.26-65.05-53.44q46.39-45.48 98.28-65.09 51.9-19.61 115.7-19.61 65.37 0 116.45 19.33 51.07 19.33 99.46 64.24l-66.48 54.57q-29.37-29.48-68.26-43.53-38.89-14.04-81.17-14.04-42.85 0-81.46 14.04-38.6 14.05-67.47 43.53Zm94.23 106.28-57.78-56.5q23-20.48 51.84-32.22 28.84-11.74 60.64-11.74 31.24 0 61.64 11.74 30.4 11.74 53.4 32.22l-60.91 55.93q-12.87-11.61-24.91-16.03-12.05-4.42-28.15-4.42-16.68 0-29.79 4.42t-25.98 16.6Zm28.09 104.24q-11.41-11.41-11.41-26.61t11.41-26.33q11.41-11.13 26.61-11.13t26.61 11.13q11.41 11.13 11.41 26.33 0 15.2-11.41 26.61T480-299.11q-15.2 0-26.61-11.41ZM480-480Z"/></svg>