<svg xmlns="http://www.w3.org/2000/svg" height="20" viewBox="0 -960 960 960" width="20"><path d="M308.04-222.22q-36.04 0-60.93-24.89t-24.89-60.93v-343.92q0-35.04 24.89-59.43t60.93-26.39h343.92q35.04 2 59.43 26.39t26.39 59.43v343.92q-2 36.04-26.39 60.93t-59.43 24.89H308.04Zm0 97.44h343.92q76.78 0 130.02-53.24 53.24-53.24 53.24-130.02v-343.92q0-76.78-53.24-130.02-53.24-53.24-130.02-53.24H308.04q-76.78 0-130.02 53.24-53.24 53.24-53.24 130.02v343.92q0 76.78 53.24 130.02 53.24 53.24 130.02 53.24Zm16.53-394.26-66.05-58.44q46.39-45.48 101.28-66.59 54.9-21.11 120.2-21.11 65.87 0 120.2 20.83 54.32 20.83 102.71 65.74l-67.48 59.57q-30.87-29.48-70.76-45.03-39.89-15.54-84.67-15.54-45.35 0-84.96 15.54-39.6 15.55-70.47 45.03Zm98.73 108.78-60.78-61q24-21.48 54.09-33.72 30.09-12.24 63.39-12.24 32.74 0 63.89 12.24t55.15 33.72l-62.91 60.43q-12.87-11.61-25.91-16.78-13.05-5.17-29.65-5.17-17.18 0-30.79 5.17t-26.48 17.35Zm28.09 101.74q-11.91-11.91-11.91-28.61t11.91-28.33q11.91-11.63 28.61-11.63t28.61 11.63q11.91 11.63 11.91 28.33 0 16.7-11.91 28.61T480-296.61q-16.7 0-28.61-11.91ZM480-480Z"/></svg>