<svg xmlns="http://www.w3.org/2000/svg" height="40" viewBox="0 -960 960 960" width="40"><path d="M282.36-189.51q-39 0-65.92-26.93-26.93-26.92-26.93-65.92v-394.67q0-39 26.93-66.56 26.92-27.56 65.92-27.56h394.67q39.1 0 66.61 27.51 27.51 27.51 27.51 66.61v394.67q0 39-27.56 65.92-27.56 26.93-66.56 26.93H282.36Zm0 50.84h394.67q60.07 0 102.19-41.8 42.11-41.81 42.11-101.89v-394.67q0-60.59-41.86-102.44-41.85-41.86-102.44-41.86H282.36q-60.08 0-101.89 42.11-41.8 42.12-41.8 102.19v394.67q0 59.31 42.19 101.5t101.5 42.19Zm25.61-402.87-37.35-36.02q44.56-40.7 96.76-60.14 52.21-19.45 112.62-19.45 61.26 0 112.53 18.87t96.34 59.38l-37.02 37.36Q618.8-576.03 572.49-591q-46.31-14.97-92.49-14.97-47.18 0-93.04 14.59-45.86 14.59-78.99 49.84Zm102.11 116.72-33.26-38.26q21.23-18.56 47.39-29.09 26.15-10.52 56.02-10.52 29.03 0 56.41 10.69 27.39 10.69 49.28 28.92l-35.18 37.93q-15.28-13.8-32.29-20.08-17.01-6.28-37.3-6.28-21.28 0-38.92 6.28t-32.15 20.41Zm47.64 125.77q-9.21-9.21-9.21-22.28 0-13.08 9.21-22.29 9.2-9.2 22.28-9.2 13.08 0 22.28 9.2 9.21 9.21 9.21 22.29 0 13.07-9.21 22.28-9.2 9.2-22.28 9.2-13.08 0-22.28-9.2ZM480-480Z"/></svg>