<svg xmlns="http://www.w3.org/2000/svg" height="48" viewBox="0 -960 960 960" width="48"><path d="M268-177q-38 0-64.5-26.5T177-268v-425q0-38 26.5-64.5T268-784h425q37 0 64 27t27 64v425q0 38-26.5 64.5T693-177H268Zm0 73h425q68 0 115.5-48T856-268v-425q0-68-47.5-115.5T693-856H268q-68 0-116 47.5T104-693v425q0 68 48 116t116 48Zm28-427-54-49q49-48 109.5-72T480-676q69 0 129.5 23T719-581l-54 50q-35-38-84.5-55T480-603q-52 0-100.5 17T296-531Zm112 124-50-52q25-23 56.5-36.5T481-509q35 0 67 13.5t58 36.5l-52 52q-15-14-33-21.5t-39-7.5q-22 0-40.5 7.5T408-407Zm47.5 110.5Q446-306 446-321t9.5-24.5Q465-355 480-355t24.5 9.5Q514-336 514-321t-9.5 24.5Q495-287 480-287t-24.5-9.5ZM480-480Z"/></svg>