<svg xmlns="http://www.w3.org/2000/svg" height="24" viewBox="0 -960 960 960" width="24"><path d="M274.15-193q-33.69 0-57.42-23.73Q193-240.46 193-274.15v-411.31q0-33.69 23.73-57.62Q240.46-767 274.15-767h411.31q34.08 0 57.81 23.73Q767-719.54 767-685.46v411.31q0 33.69-23.92 57.42Q719.15-193 685.46-193H274.15Zm0 85h411.31q69.62 0 118.08-48.27Q852-204.54 852-274.15v-411.31q0-69.62-48.46-118.08Q755.08-852 685.46-852H274.15q-69.61 0-117.88 48.46Q108-755.08 108-685.46v411.31q0 69.23 48.46 117.69Q204.92-108 274.15-108Zm42.39-436.15-58.31-62.77q46.46-40.69 102.85-60.08 56.38-19.38 118.92-19.38 62.31 0 117.81 18.88 55.5 18.89 101.96 58.58l-57.31 64.77q-32.61-29.77-75.61-43-43-13.24-86.85-13.24-44.85 0-87.54 13.04-42.69 13.04-75.92 43.2Zm105.38 122.53L366.77-487q23.69-19.69 52.81-30.04 29.11-10.34 61.04-10.34 30.92 0 60.61 10.84 29.69 10.85 53.38 29.54l-56.53 64.38q-13.16-9.15-27.04-13.96-13.89-4.81-30.04-4.81-17.15 0-31.73 4.81-14.58 4.81-27.35 14.96Zm27.93 129.77q-12.46-12.46-12.46-30.15 0-17.69 12.46-30.15 12.46-12.46 30.15-12.46 17.69 0 30.15 12.46 12.46 12.46 12.46 30.15 0 17.69-12.46 30.15-12.46 12.46-30.15 12.46-17.69 0-30.15-12.46ZM480-480Z"/></svg>