<svg xmlns="http://www.w3.org/2000/svg" height="40" viewBox="0 -960 960 960" width="40"><path d="M268-182.33q-35.67 0-60.67-25t-25-60.67v-424.67q0-35.66 25-60.66t60.67-25h424.67q35 0 60.33 25.33t25.33 60.33V-268q0 35.67-25 60.67t-60.66 25H268Zm0 83.66h424.67q70.33 0 119.5-49.5 49.16-49.5 49.16-119.83v-424.67q0-70.33-49.16-119.5-49.17-49.16-119.5-49.16H268q-70.33 0-119.83 49.16-49.5 49.17-49.5 119.5V-268q0 70.33 49.5 119.83T268-98.67Zm34.33-434.66-59.66-58.34Q291.33-638 352-661.17q60.67-23.16 128-23.16 67.67 0 128.17 22.33 60.5 22.33 109.16 69L658-533.33q-34.33-35-81.67-51-47.33-16-96.33-16-50 0-96.5 16t-81.17 51Zm111.34 124.66L357.33-470q25.34-22.67 57-35.5Q446-518.33 481-518.33q34.67 0 66.67 13t58 35.33l-58 61q-14-12-30.5-18.67-16.5-6.66-35.5-6.66-20 0-37 6.66-17 6.67-31 19Zm38.66 115q-11-11-11-27.66 0-16.67 11-27.67T480-360q16.67 0 27.67 11t11 27.67q0 16.66-11 27.66t-27.67 11q-16.67 0-27.67-11ZM480-480Z"/></svg>