<svg xmlns="http://www.w3.org/2000/svg" height="24" viewBox="0 -960 960 960" width="24"><path d="M289.89-204.04q-35.7 0-60.77-25.08-25.08-25.07-25.08-60.77v-380.03q0-35.5 25.08-60.77 25.07-25.27 60.77-25.27h380.03q35.89 0 60.96 25.08 25.08 25.07 25.08 60.96v380.03q0 35.7-25.27 60.77-25.27 25.08-60.77 25.08H289.89Zm0 55.96h380.03q58.81 0 100.41-41.4 41.59-41.41 41.59-100.41v-380.03q0-58.81-41.59-100.41-41.6-41.59-100.41-41.59H289.89q-59 0-100.41 41.59-41.4 41.6-41.4 100.41v380.03q0 58.81 41.5 100.31t100.31 41.5Zm7.99-358.69-41.49-36.73q40.46-48.69 99.92-72.86 59.46-24.18 123.69-24.18 63.81 0 123.13 24.18 59.33 24.17 99.98 72.86l-41.49 36.73q-33.31-38.77-81.1-58.29-47.79-19.52-100.52-19.52t-100.62 19.33q-47.88 19.33-81.5 58.48Zm105.66 108.42L362.81-437q23.08-24.88 53.54-38.33 30.46-13.44 64.27-13.44 33.8 0 64.24 13.44 30.45 13.45 53.52 38.33l-40.92 38.65q-14.96-16.15-35.13-25.3-20.18-9.16-41.83-9.16-21.85 0-42.02 9.16-20.17 9.15-34.94 25.3Zm53.52 101.29q-9.56-9.56-9.56-22.94t9.56-23.04q9.56-9.65 22.94-9.65t23.04 9.65q9.65 9.66 9.65 23.04 0 13.38-9.65 22.94-9.66 9.56-23.04 9.56-13.38 0-22.94-9.56ZM480-480Z"/></svg>