<svg xmlns="http://www.w3.org/2000/svg" height="24" viewBox="0 -960 960 960" width="24"><path d="M296-172h367q52 0 88.5-36t36.5-88v-367q0-52-36.5-88.5T663-788H296q-52 0-88 36.5T172-663v367q0 51 36.5 87.5T296-172Zm-1-343-22-18q38-45 92.5-67T480-622q60 0 114 22t92 67l-22 18q-34-40-82.5-59.5T480-594q-53 0-102 19t-83 60Zm102 105-21-19q20-22 47-34t57-12q30 0 57.5 12t47.5 34l-21 19q-17-18-38.5-27.5T480-447q-24 0-45.5 9.5T397-410Zm64.5 108.5Q454-309 454-320t7.5-18.5Q469-346 480-346t18.5 7.5Q506-331 506-320t-7.5 18.5Q491-294 480-294t-18.5-7.5Z"/></svg>