<svg xmlns="http://www.w3.org/2000/svg" height="48" viewBox="0 -960 960 960" width="48"><path d="M294.5-194q-42.5 0-71.5-29t-29-71.5v-371q0-41.5 29-71t71.5-29.5h371q41.5 0 71 29.5t29.5 71v371q0 42.5-29.5 71.5t-71 29h-371Zm0 22h371q50 0 86.25-35.75T788-294.5v-371q0-50.5-36-86.5t-86.5-36h-371q-51 0-86.75 36.25T172-665.5v371q0 50.5 36 86.5t86.5 36Zm-1-347-19-13q39-44.5 92.25-66.75T480-621q61 0 113 22.25T686-532l-19 13q-34-41-84.25-60.5T480-599q-52.5 0-102.5 19t-84 61ZM395-412.5 378-427q20.5-21.5 46-33.25T480-472q30.5 0 57 12t47 33l-18 14.5q-16-19-38.5-28.25t-47-9.25q-25.5 0-47.5 9.25t-38 28.25Zm69.25 108.25Q457.5-311 457.5-320t6.75-16.25Q471-343.5 480-343.5t16.25 7.25Q503.5-329 503.5-320t-7.25 15.75Q489-297.5 480-297.5t-15.75-6.75ZM480-480Z"/></svg>