<svg xmlns="http://www.w3.org/2000/svg" version="1.1" width="3300" height="2000"><g id="Notes"><style>
    text {
      font-family: monospace;
      text-anchor: middle;
    }
    text.emphasis {
      font-weight:bold;
    }
    text.lanchor {
      text-anchor: start;
    }
  </style><rect height="2200" id="artboard" fill="white" width="3300" x="0" y="0"/><line id="" style="fill:none;stroke:black;stroke-width:0.5;" x1="263" x2="3036" y1="292" y2="292"/><text class="lanchor emphasis" transform="matrix(1 0 0 1 263 322)">Weight/Scale Variations</text><text transform="matrix(1 0 0 1 559.711 322)">Ultralight</text><text transform="matrix(1 0 0 1 856.422 322)">Thin</text><text transform="matrix(1 0 0 1 1153.13 322)">Light</text><text transform="matrix(1 0 0 1 1449.84 322)">Regular</text><text transform="matrix(1 0 0 1 1746.56 322)">Medium</text><text transform="matrix(1 0 0 1 2043.27 322)">Semibold</text><text transform="matrix(1 0 0 1 2339.98 322)">Bold</text><text transform="matrix(1 0 0 1 2636.69 322)">Heavy</text><text transform="matrix(1 0 0 1 2933.4 322)">Black</text><text id="template-version" style="text-anchor: end;" transform="matrix(1 0 0 1 3036 1933)">Template v.1.0</text><text class="lanchor" transform="matrix(1 0 0 1 263 726)">Small</text><text class="lanchor" transform="matrix(1 0 0 1 263 1156)">Medium</text><text class="lanchor" transform="matrix(1 0 0 1 263 1586)">Large</text></g><g id="Guides"><g id="H-reference" style="fill:#27AAE1;stroke:none;" transform="matrix(1 0 0 1 339 696)"><path d="M 54.9316 0 L 57.666 0 L 30.5664 -70.459 L 28.0762 -70.459 L 0.976562 0 L 3.66211 0 L 12.9395 -24.4629 L 45.7031 -24.4629 Z M 29.1992 -67.0898 L 29.4434 -67.0898 L 44.8242 -26.709 L 13.8184 -26.709 Z"/></g><line id="Baseline-S" style="fill:none;stroke:#27AAE1;opacity:1;stroke-width:0.577;" x1="263" x2="3036" y1="696" y2="696"/><line id="Capline-S" style="fill:none;stroke:#27AAE1;opacity:1;stroke-width:0.577;" x1="263" x2="3036" y1="625.541" y2="625.541"/><g id="H-reference" style="fill:#27AAE1;stroke:none;" transform="matrix(1 0 0 1 339 1126)"><path d="M 54.9316 0 L 57.666 0 L 30.5664 -70.459 L 28.0762 -70.459 L 0.976562 0 L 3.66211 0 L 12.9395 -24.4629 L 45.7031 -24.4629 Z M 29.1992 -67.0898 L 29.4434 -67.0898 L 44.8242 -26.709 L 13.8184 -26.709 Z"/></g><line id="Baseline-M" style="fill:none;stroke:#27AAE1;opacity:1;stroke-width:0.577;" x1="263" x2="3036" y1="1126" y2="1126"/><line id="Capline-M" style="fill:none;stroke:#27AAE1;opacity:1;stroke-width:0.577;" x1="263" x2="3036" y1="1055.54" y2="1055.54"/><g id="H-reference" style="fill:#27AAE1;stroke:none;" transform="matrix(1 0 0 1 339 1556)"><path d="M 54.9316 0 L 57.666 0 L 30.5664 -70.459 L 28.0762 -70.459 L 0.976562 0 L 3.66211 0 L 12.9395 -24.4629 L 45.7031 -24.4629 Z M 29.1992 -67.0898 L 29.4434 -67.0898 L 44.8242 -26.709 L 13.8184 -26.709 Z"/></g><line id="Baseline-L" style="fill:none;stroke:#27AAE1;opacity:1;stroke-width:0.577;" x1="263" x2="3036" y1="1556" y2="1556"/><line id="Capline-L" style="fill:none;stroke:#27AAE1;opacity:1;stroke-width:0.577;" x1="263" x2="3036" y1="1485.54" y2="1485.54"/><rect height="119.336" id="left-margin" style="fill:darkred;stroke:none;opacity:0.4;" width="12.4512" x="1394.06" y="1030.79"/><rect height="119.336" id="right-margin" style="fill:darkgreen;stroke:none;opacity:0.4;" width="12.4512" x="1502.5112" y="1030.79"/><rect x="1406.5112" y="1045" width="96" height="96" fill="none" stroke="blue" stroke-dasharray="5"/><rect x="1394.06" y="1030.79" width="120.9024" height="119.336" fill="none" stroke="blue"/></g><g id="Symbols"><g id="Bold-L" transform="matrix(1 0 0 1 2266 1556)"><path d="M38.7 -76.187 H116.1 Q119.099 -76.187 121.308 -73.978 Q123.517 -71.769 123.517 -68.77 Q123.517 -65.609 121.308 -63.562 Q119.099 -61.514 116.1 -61.514 H38.7 Q35.701 -61.514 33.572 -63.562 Q31.444 -65.609 31.444 -68.77 Q31.444 -71.769 33.572 -73.978 Q35.701 -76.187 38.7 -76.187 Z M51.6 -100.697 H103.2 Q106.199 -100.697 108.408 -98.408 Q110.618 -96.118 110.618 -93.119 Q110.618 -90.119 108.408 -87.991 Q106.199 -85.862 103.2 -85.862 H51.6 Q48.601 -85.862 46.472 -87.991 Q44.344 -90.119 44.344 -93.119 Q44.344 -96.118 46.472 -98.408 Q48.601 -100.697 51.6 -100.697 Z M34.669 -37.165 Q34.669 -37.165 36.765 -23.62 Q38.861 -10.075 42.892 15.08 Q42.892 15.08 42.892 15.08 Q42.892 15.08 42.892 15.08 L34.669 -37.165 Z M72.562 29.915 H30.476 L16.77 -51.839 H138.191 L135.687 -37.004 Q134.966 -37.004 129.726 -37.084 Q124.485 -37.165 118.68 -37.165 H34.669 L42.892 15.08 H70.789 Q70.144 18.95 70.869 22.739 Q71.595 26.529 72.562 29.915 Z M111.907 45.395  111.101 37.333 Q107.715 36.526 105.054 34.994 Q102.394 33.463 100.136 31.044 L93.041 34.43 L86.269 23.626 L92.558 18.466 Q91.429 15.456 91.429 12.527 Q91.429 9.598 92.558 6.211 L86.269 1.213 L93.041 -9.752 L100.136 -6.366 Q102.394 -8.624 105.054 -10.075 Q107.715 -11.526 111.101 -12.494 L111.907 -20.556 H124.219 L125.291 -12.494 Q128.384 -11.588 131.191 -10.106 Q133.999 -8.624 136.256 -6.366 L143.19 -9.752 L150.124 1.213 L143.674 6.211 Q144.641 9.544 144.641 12.473 Q144.641 15.403 143.674 18.466 L150.124 23.626 L143.19 34.43 L136.256 31.044 Q133.838 33.463 131.082 35.025 Q128.326 36.586 125.291 37.333 L124.219 45.395 H111.907 Z M129.081 23.626 Q133.515 19.111 133.515 12.519 Q133.515 5.929 129.081 1.393 Q124.646 -3.141 118.035 -3.141 Q111.424 -3.141 106.909 1.393 Q102.394 5.929 102.394 12.519 Q102.394 19.111 106.909 23.626 Q111.424 28.141 118.035 28.141 Q124.646 28.141 129.081 23.626 Z"/></g><g id="Semibold-L" transform="matrix(1 0 0 1 1970.27 1556)"><path d="M38.7 -75.697 H116.1 Q118.846 -75.697 120.867 -73.677 Q122.887 -71.656 122.887 -68.91 Q122.887 -66.072 120.867 -64.179 Q118.846 -62.285 116.1 -62.285 H38.7 Q35.954 -62.285 34.014 -64.179 Q32.074 -66.072 32.074 -68.91 Q32.074 -71.656 34.014 -73.677 Q35.954 -75.697 38.7 -75.697 Z M51.6 -98.875 H103.2 Q105.946 -98.875 107.967 -96.81 Q109.987 -94.744 109.987 -91.996 Q109.987 -89.25 107.967 -87.311 Q105.946 -85.372 103.2 -85.372 H51.6 Q48.854 -85.372 46.914 -87.311 Q44.974 -89.25 44.974 -91.996 Q44.974 -94.744 46.914 -96.81 Q48.854 -98.875 51.6 -98.875 Z M33.687 -39.198 Q33.687 -39.198 35.854 -25.197 Q38.02 -11.197 42.191 14.659 Q42.191 14.659 42.191 14.659 Q42.191 14.659 42.191 14.659 L33.687 -39.198 Z M73.124 28.162 H30.897 L17.4 -52.61 H137.561 L135.303 -39.037 Q134.545 -39.037 129.376 -39.118 Q124.204 -39.198 118.82 -39.198 H33.687 L42.191 14.659 H70.929 Q70.634 18.249 71.36 21.653 Q72.085 25.057 73.124 28.162 Z M111.907 43.573  110.961 35.019 Q107.646 34.212 104.914 32.647 Q102.184 31.079 99.927 28.73 L92.411 32.116 L85.638 21.383 L92.348 16.012 Q91.288 13.05 91.288 10.097 Q91.288 7.143 92.348 3.897 L85.638 -1.382 L92.411 -12.276 L99.927 -8.89 Q102.253 -11.078 104.95 -12.563 Q107.646 -14.05 110.961 -15.017 L111.907 -23.641 H123.984 L125.151 -15.017 Q128.231 -14.084 131.009 -12.581 Q133.789 -11.078 136.187 -8.89 L143.611 -12.276 L150.474 -1.382 L143.674 3.897 Q144.572 7.114 144.572 10.067 Q144.572 13.019 143.674 16.012 L150.474 21.383 L143.611 32.116 L136.187 28.73 Q133.768 31.079 130.983 32.663 Q128.199 34.248 125.151 35.019 L123.984 43.573 H111.907 Z M129.15 21.348 Q133.725 16.728 133.725 10.057 Q133.725 3.388 129.15 -1.243 Q124.577 -5.876 117.895 -5.876 Q111.214 -5.876 106.593 -1.243 Q101.973 3.388 101.973 10.057 Q101.973 16.728 106.593 21.348 Q111.214 25.968 117.895 25.968 Q124.577 25.968 129.15 21.348 Z"/></g><g id="Medium-L" transform="matrix(1 0 0 1 1674.31 1556)"><path d="M38.7 -75.328 H116.1 Q118.657 -75.328 120.536 -73.451 Q122.413 -71.573 122.413 -69.015 Q122.413 -66.419 120.536 -64.642 Q118.657 -62.863 116.1 -62.863 H38.7 Q36.143 -62.863 34.345 -64.642 Q32.548 -66.419 32.548 -69.015 Q32.548 -71.573 34.345 -73.451 Q36.143 -75.328 38.7 -75.328 Z M51.6 -97.508 H103.2 Q105.757 -97.508 107.636 -95.61 Q109.513 -93.714 109.513 -91.156 Q109.513 -88.599 107.636 -86.801 Q105.757 -85.003 103.2 -85.003 H51.6 Q49.043 -85.003 47.245 -86.801 Q45.448 -88.599 45.448 -91.156 Q45.448 -93.714 47.245 -95.61 Q49.043 -97.508 51.6 -97.508 Z M32.951 -40.724 Q32.951 -40.724 35.17 -26.381 Q37.389 -12.037 41.665 14.343 Q41.665 14.343 41.665 14.343 Q41.665 14.343 41.665 14.343 L32.951 -40.724 Z M73.545 26.848 H31.213 L17.875 -53.188 H137.087 L135.016 -40.563 Q134.229 -40.563 129.113 -40.643 Q123.995 -40.724 118.925 -40.724 H32.951 L41.665 14.343 H71.034 Q71.003 17.723 71.729 20.838 Q72.454 23.952 73.545 26.848 Z M111.907 42.205  110.856 33.284 Q107.592 32.477 104.809 30.884 Q102.026 29.291 99.769 26.995 L91.937 30.381 L85.164 19.7 L92.19 14.172 Q91.184 11.244 91.184 8.274 Q91.184 5.303 92.19 2.162 L85.164 -3.327 L91.937 -14.169 L99.769 -10.783 Q102.149 -12.918 104.871 -14.43 Q107.592 -15.943 110.856 -16.91 L111.907 -25.955 H123.808 L125.046 -16.91 Q128.116 -15.957 130.874 -14.438 Q133.631 -12.918 136.134 -10.783 L143.927 -14.169 L150.737 -3.327 L143.674 2.162 Q144.519 5.291 144.519 8.261 Q144.519 11.231 143.674 14.172 L150.737 19.7 L143.927 30.381 L136.134 26.995 Q133.715 29.291 130.909 30.892 Q128.102 32.492 125.046 33.284 L123.808 42.205 H111.907 Z M129.203 19.639 Q133.883 14.94 133.883 8.211 Q133.883 1.482 129.203 -3.222 Q124.524 -7.926 117.79 -7.926 Q111.056 -7.926 106.357 -3.222 Q101.657 1.482 101.657 8.211 Q101.657 14.94 106.357 19.639 Q111.056 24.337 117.79 24.337 Q124.524 24.337 129.203 19.639 Z"/></g><g id="Regular-L" transform="matrix(1 0 0 1 1378.56 1556)"><path d="M38.7 -75.059 H116.1 Q118.519 -75.059 120.293 -73.285 Q122.066 -71.511 122.066 -69.092 Q122.066 -66.674 120.293 -64.981 Q118.519 -63.287 116.1 -63.287 H38.7 Q36.281 -63.287 34.588 -64.981 Q32.895 -66.674 32.895 -69.092 Q32.895 -71.511 34.588 -73.285 Q36.281 -75.059 38.7 -75.059 Z M51.6 -96.505 H103.2 Q105.619 -96.505 107.392 -94.731 Q109.166 -92.957 109.166 -90.539 Q109.166 -88.12 107.392 -86.427 Q105.619 -84.734 103.2 -84.734 H51.6 Q49.181 -84.734 47.488 -86.427 Q45.795 -88.12 45.795 -90.539 Q45.795 -92.957 47.488 -94.731 Q49.181 -96.505 51.6 -96.505 Z M32.411 -41.841 Q32.411 -41.841 34.669 -27.248 Q36.926 -12.655 41.28 14.113 Q41.28 14.113 41.28 14.113 Q41.28 14.113 41.28 14.113 L32.411 -41.841 Z M73.853 25.884 H31.444 L18.221 -53.612 H136.74 L134.805 -41.68 Q133.999 -41.68 128.919 -41.761 Q123.84 -41.841 119.002 -41.841 H32.411 L41.28 14.113 H71.111 Q71.273 17.338 71.998 20.24 Q72.724 23.143 73.853 25.884 Z M111.907 41.203  110.779 32.011 Q107.554 31.205 104.732 29.593 Q101.91 27.98 99.653 25.723 L91.59 29.109 L84.817 18.466 L92.074 12.823 Q91.106 9.92 91.106 6.937 Q91.106 3.954 92.074 0.89 L84.817 -4.754 L91.59 -15.557 L99.653 -12.171 Q102.071 -14.267 104.812 -15.799 Q107.554 -17.331 110.779 -18.299 L111.907 -27.651 H123.679 L124.969 -18.299 Q128.032 -17.331 130.774 -15.799 Q133.515 -14.267 136.095 -12.171 L144.157 -15.557 L150.93 -4.754 L143.674 0.89 Q144.48 3.954 144.48 6.937 Q144.48 9.92 143.674 12.823 L150.93 18.466 L144.157 29.109 L136.095 25.723 Q133.676 27.98 130.854 29.593 Q128.032 31.205 124.969 32.011 L123.679 41.203 H111.907 Z M129.242 18.386 Q133.999 13.629 133.999 6.856 Q133.999 0.084 129.242 -4.673 Q124.485 -9.43 117.713 -9.43 Q110.94 -9.43 106.183 -4.673 Q101.426 0.084 101.426 6.856 Q101.426 13.629 106.183 18.386 Q110.94 23.143 117.713 23.143 Q124.485 23.143 129.242 18.386 Z"/></g><g id="Light-L" transform="matrix(1 0 0 1 1082.77 1556)"><path d="M38.7 -71.834 H116.1 Q118.022 -71.834 119.456 -70.4 Q120.888 -68.968 120.888 -67.046 Q120.888 -65.061 119.456 -63.741 Q118.022 -62.418 116.1 -62.418 H38.7 Q36.715 -62.418 35.394 -63.741 Q34.074 -65.061 34.074 -67.046 Q34.074 -68.968 35.394 -70.4 Q36.715 -71.834 38.7 -71.834 Z M51.6 -91.295 H103.2 Q105.122 -91.295 106.556 -89.863 Q107.988 -88.43 107.988 -86.507 Q107.988 -84.523 106.556 -83.202 Q105.122 -81.881 103.2 -81.881 H51.6 Q49.615 -81.881 48.294 -83.202 Q46.974 -84.523 46.974 -86.507 Q46.974 -88.43 48.294 -89.863 Q49.615 -91.295 51.6 -91.295 Z M33.403 -42.957 Q33.403 -42.957 35.599 -28.736 Q37.795 -14.516 42.025 11.26 Q42.025 11.26 42.025 11.26 Q42.025 11.26 42.025 11.26 L33.403 -42.957 Z M72.798 20.674 H34.172 L22.004 -52.372 H132.957 L131.393 -42.796 Q130.65 -42.796 125.849 -42.876 Q121.049 -42.957 117.08 -42.957 H33.403 L42.025 11.26 H71.05 Q71.024 13.803 71.501 16.146 Q71.979 18.49 72.798 20.674 Z M111.969 35.372  111.151 27.669 Q107.739 26.925 104.793 25.313 Q101.849 23.7 99.653 21.195 L92.83 24.147 L87.36 15.738 L93.438 11.025 Q92.285 7.811 92.285 4.549 Q92.285 1.287 93.438 -2.087 L87.36 -6.8 L92.83 -15.309 L99.653 -12.357 Q101.886 -14.764 104.812 -16.296 Q107.739 -17.828 111.151 -18.671 L111.969 -26.535 H121.384 L122.302 -18.671 Q125.551 -17.828 128.479 -16.296 Q131.406 -14.764 133.8 -12.357 L140.56 -15.309 L146.093 -6.8 L139.952 -2.087 Q140.945 1.287 140.945 4.549 Q140.945 7.811 139.952 11.025 L146.093 15.738 L140.56 24.147 L133.8 21.195 Q131.443 23.7 128.497 25.313 Q125.551 26.925 122.302 27.669 L121.384 35.372 H111.969 Z M127.784 15.749 Q132.386 11.147 132.386 4.499 Q132.386 -2.15 127.784 -6.752 Q123.182 -11.352 116.564 -11.352 Q109.948 -11.352 105.346 -6.752 Q100.744 -2.15 100.744 4.499 Q100.744 11.147 105.346 15.749 Q109.948 20.351 116.564 20.351 Q123.182 20.351 127.784 15.749 Z"/></g><g id="Thin-L" transform="matrix(1 0 0 1 787.282 1556)"><path d="M38.7 -68.609 H116.1 Q117.527 -68.609 118.619 -67.517 Q119.709 -66.425 119.709 -65 Q119.709 -63.449 118.619 -62.501 Q117.527 -61.551 116.1 -61.551 H38.7 Q37.149 -61.551 36.201 -62.501 Q35.252 -63.449 35.252 -65 Q35.252 -66.425 36.201 -67.517 Q37.149 -68.609 38.7 -68.609 Z M51.6 -86.087 H103.2 Q104.627 -86.087 105.719 -84.995 Q106.809 -83.903 106.809 -82.476 Q106.809 -80.925 105.719 -79.977 Q104.627 -79.029 103.2 -79.029 H51.6 Q50.049 -79.029 49.101 -79.977 Q48.152 -80.925 48.152 -82.476 Q48.152 -83.903 49.101 -84.995 Q50.049 -86.087 51.6 -86.087 Z M34.396 -44.075 Q34.396 -44.075 36.53 -30.225 Q38.663 -16.377 42.768 8.407 Q42.768 8.407 42.768 8.407 Q42.768 8.407 42.768 8.407 L34.396 -44.075 Z M71.743 15.465 H36.902 L25.787 -51.132 H129.174 L127.983 -43.913 Q127.3 -43.913 122.779 -43.994 Q118.258 -44.075 115.157 -44.075 H34.396 L42.768 8.407 H70.987 Q70.776 10.267 71.006 12.053 Q71.235 13.84 71.743 15.465 Z M112.032 29.543  111.524 23.328 Q107.926 22.646 104.856 21.033 Q101.786 19.421 99.653 16.668 L94.07 19.185 L89.903 13.008 L94.802 9.225 Q93.464 5.703 93.464 2.161 Q93.464 -1.38 94.802 -5.063 L89.903 -8.846 L94.07 -15.061 L99.653 -12.544 Q101.699 -15.259 104.812 -16.791 Q107.926 -18.323 111.524 -19.044 L112.032 -25.418 H119.09 L119.635 -19.044 Q123.071 -18.323 126.185 -16.791 Q129.298 -15.259 131.506 -12.544 L136.963 -15.061 L141.255 -8.846 L136.232 -5.063 Q137.409 -1.38 137.409 2.161 Q137.409 5.703 136.232 9.225 L141.255 13.008 L136.963 19.185 L131.506 16.668 Q129.211 19.421 126.141 21.033 Q123.071 22.646 119.635 23.328 L119.09 29.543 H112.032 Z M126.326 13.114 Q130.774 8.667 130.774 2.143 Q130.774 -4.381 126.326 -8.829 Q121.881 -13.276 115.418 -13.276 Q108.955 -13.276 104.509 -8.829 Q100.062 -4.381 100.062 2.143 Q100.062 8.667 104.509 13.114 Q108.955 17.56 115.418 17.56 Q121.881 17.56 126.326 13.114 Z"/></g><g id="Ultralight-L" transform="matrix(1 0 0 1 491.205 1556)"><path d="M38.7 -66.674 H116.1 Q117.229 -66.674 118.116 -65.787 Q119.002 -64.9 119.002 -63.771 Q119.002 -62.481 118.116 -61.756 Q117.229 -61.03 116.1 -61.03 H38.7 Q37.41 -61.03 36.684 -61.756 Q35.959 -62.481 35.959 -63.771 Q35.959 -64.9 36.684 -65.787 Q37.41 -66.674 38.7 -66.674 Z M51.6 -82.96 H103.2 Q104.329 -82.96 105.216 -82.073 Q106.103 -81.186 106.103 -80.057 Q106.103 -78.767 105.216 -78.042 Q104.329 -77.316 103.2 -77.316 H51.6 Q50.31 -77.316 49.584 -78.042 Q48.859 -78.767 48.859 -80.057 Q48.859 -81.186 49.584 -82.073 Q50.31 -82.96 51.6 -82.96 Z M34.991 -44.744 Q34.991 -44.744 37.087 -31.118 Q39.184 -17.492 43.215 6.695 Q43.215 6.695 43.215 6.695 Q43.215 6.695 43.215 6.695 L34.991 -44.744 Z M71.111 12.339 H38.539 L28.058 -50.387 H126.904 L125.936 -44.582 Q125.291 -44.582 120.938 -44.663 Q116.584 -44.744 114.004 -44.744 H34.991 L43.215 6.695 H70.95 Q70.627 8.146 70.708 9.598 Q70.789 11.049 71.111 12.339 Z M112.069 26.045  111.746 20.724 Q108.038 20.079 104.893 18.466 Q101.749 16.854 99.653 13.951 L94.815 16.209 L91.429 11.371 L95.621 8.146 Q94.17 4.438 94.17 0.729 Q94.17 -2.98 95.621 -6.85 L91.429 -10.075 L94.815 -14.912 L99.653 -12.655 Q101.588 -15.557 104.812 -17.089 Q108.038 -18.621 111.746 -19.266 L112.069 -24.749 H117.713 L118.035 -19.266 Q121.583 -18.621 124.808 -17.089 Q128.032 -15.557 130.129 -12.655 L134.805 -14.912 L138.352 -10.075 L133.999 -6.85 Q135.289 -2.98 135.289 0.729 Q135.289 4.438 133.999 8.146 L138.352 11.371 L134.805 16.209 L130.129 13.951 Q127.871 16.854 124.727 18.466 Q121.583 20.079 118.035 20.724 L117.713 26.045 H112.069 Z M125.453 11.533 Q129.806 7.179 129.806 0.729 Q129.806 -5.721 125.453 -10.075 Q121.099 -14.429 114.729 -14.429 Q108.36 -14.429 104.006 -10.075 Q99.653 -5.721 99.653 0.729 Q99.653 7.179 104.006 11.533 Q108.36 15.886 114.729 15.886 Q121.099 15.886 125.453 11.533 Z"/></g><g id="Bold-M" transform="matrix(1 0 0 1 2281.8 1126)"><path d="M30 -68.355 H90 Q93.45 -68.355 95.975 -65.83 Q98.5 -63.305 98.5 -59.855 Q98.5 -56.405 95.975 -53.88 Q93.45 -51.355 90 -51.355 H30 Q26.55 -51.355 24.025 -53.88 Q21.5 -56.405 21.5 -59.855 Q21.5 -63.305 24.025 -65.83 Q26.55 -68.355 30 -68.355 Z M40 -90.355 H80 Q83.45 -90.355 85.975 -87.83 Q88.5 -85.305 88.5 -81.855 Q88.5 -78.405 85.975 -75.88 Q83.45 -73.355 80 -73.355 H40 Q36.55 -73.355 34.025 -75.88 Q31.5 -78.405 31.5 -81.855 Q31.5 -85.305 34.025 -87.83 Q36.55 -90.355 40 -90.355 Z M31.5 -29.48 Q31.5 -29.48 33 -20.167 Q34.5 -10.855 36.625 2.77 Q36.625 2.77 36.625 2.77 Q36.625 2.77 36.625 2.77 L31.5 -29.48 Z M50.125 19.77 H22.375 L11.25 -46.48 H108.75 L105.809 -29.355 Q105.375 -29.355 101.375 -29.417 Q97.375 -29.48 92.5 -29.48 H31.5 L36.625 2.77 H50.5 Q49.5 7.02 49.438 11.27 Q49.375 15.52 50.125 19.77 Z M85.125 41.27  83.375 32.27 Q82.375 32.02 81.5 31.52 Q80.625 31.02 79.75 30.395 L71.125 33.02 L64 20.645 L70.875 14.77 Q70.75 13.811 70.75 12.729 Q70.75 11.645 70.875 10.645 L64 4.77 L71.125 -7.48 L79.75 -4.98 Q80.625 -5.605 81.5 -6.042 Q82.375 -6.48 83.375 -6.73 L85.125 -15.73 H99.544 L101.5 -6.73 Q102.397 -6.527 103.324 -6.066 Q104.25 -5.605 105 -4.98 L113.5 -7.48 L120.75 4.77 L113.75 10.645 Q113.875 11.604 113.875 12.686 Q113.875 13.77 113.75 14.77 L120.75 20.645 L113.5 33.02 L105 30.395 Q104.125 31.02 103.239 31.544 Q102.353 32.068 101.5 32.27 L99.544 41.27 H85.125 Z M98.688 19.145 Q101.25 16.52 101.25 12.785 Q101.25 9.051 98.688 6.41 Q96.125 3.77 92.375 3.77 Q88.625 3.77 86 6.41 Q83.375 9.051 83.375 12.785 Q83.375 16.52 86 19.145 Q88.625 21.77 92.375 21.77 Q96.125 21.77 98.688 19.145 Z"/></g><g id="Semibold-M" transform="matrix(1 0 0 1 1985.97 1126)"><path d="M30 -67.702 H90 Q93.146 -67.702 95.415 -65.434 Q97.685 -63.164 97.685 -60.017 Q97.685 -56.872 95.415 -54.602 Q93.146 -52.334 90 -52.334 H30 Q26.854 -52.334 24.585 -54.602 Q22.315 -56.872 22.315 -60.017 Q22.315 -63.164 24.585 -65.434 Q26.854 -67.702 30 -67.702 Z M40 -88.072 H80 Q83.146 -88.072 85.415 -85.802 Q87.685 -83.534 87.685 -80.387 Q87.685 -77.242 85.415 -74.972 Q83.146 -72.702 80 -72.702 H40 Q36.854 -72.702 34.585 -74.972 Q32.315 -77.242 32.315 -80.387 Q32.315 -83.534 34.585 -85.802 Q36.854 -88.072 40 -88.072 Z M30.359 -32.034 Q30.359 -32.034 31.94 -22.232 Q33.521 -12.431 35.81 2.173 Q35.81 2.173 35.81 2.173 Q35.81 2.173 35.81 2.173 L30.359 -32.034 Z M51.266 17.543 H22.919 L12.065 -47.404 H107.935 L105.294 -31.909 Q104.831 -31.909 100.912 -31.971 Q96.995 -32.034 92.609 -32.034 H30.359 L35.81 2.173 H51.044 Q50.37 6.041 50.443 9.884 Q50.516 13.726 51.266 17.543 Z M85.179 38.118  83.321 28.793 Q82.321 28.488 81.391 27.988 Q80.463 27.488 79.532 26.863 L70.636 29.434 L63.674 17.439 L70.821 11.401 Q70.75 10.424 70.75 9.323 Q70.75 8.221 70.821 7.221 L63.674 1.184 L70.636 -10.741 L79.532 -8.241 Q80.463 -8.866 81.391 -9.33 Q82.321 -9.795 83.321 -10.099 L85.179 -19.425 H99.09 L101.065 -10.099 Q102.007 -9.821 102.966 -9.344 Q103.924 -8.866 104.782 -8.241 L113.609 -10.741 L120.641 1.184 L113.424 7.221 Q113.495 8.198 113.495 9.299 Q113.495 10.401 113.424 11.401 L120.641 17.439 L113.609 29.434 L104.782 26.863 Q103.854 27.488 102.918 28.001 Q101.981 28.514 101.065 28.793 L99.09 38.118 H85.179 Z M98.715 15.939 Q101.412 13.205 101.412 9.355 Q101.412 5.505 98.715 2.763 Q96.016 0.02 92.157 0.02 Q88.299 0.02 85.565 2.763 Q82.831 5.505 82.831 9.355 Q82.831 13.205 85.565 15.939 Q88.299 18.673 92.157 18.673 Q96.016 18.673 98.715 15.939 Z"/></g><g id="Medium-M" transform="matrix(1 0 0 1 1689.91 1126)"><path d="M30 -67.214 H90 Q92.918 -67.214 94.995 -65.136 Q97.074 -63.057 97.074 -60.14 Q97.074 -57.222 94.995 -55.145 Q92.918 -53.067 90 -53.067 H30 Q27.082 -53.067 25.005 -55.145 Q22.926 -57.222 22.926 -60.14 Q22.926 -63.057 25.005 -65.136 Q27.082 -67.214 30 -67.214 Z M40 -86.36 H80 Q82.918 -86.36 84.995 -84.282 Q87.074 -82.205 87.074 -79.287 Q87.074 -76.37 84.995 -74.291 Q82.918 -72.214 80 -72.214 H40 Q37.083 -72.214 35.005 -74.291 Q32.926 -76.37 32.926 -79.287 Q32.926 -82.205 35.005 -84.282 Q37.083 -86.36 40 -86.36 Z M29.503 -33.95 Q29.503 -33.95 31.145 -23.781 Q32.788 -13.614 35.199 1.724 Q35.199 1.724 35.199 1.724 Q35.199 1.724 35.199 1.724 L29.503 -33.95 Z M52.123 15.87 H23.326 L12.676 -48.096 H107.324 L104.907 -33.825 Q104.424 -33.825 100.566 -33.887 Q96.709 -33.95 92.69 -33.95 H29.503 L35.199 1.724 H51.451 Q51.021 5.308 51.197 8.845 Q51.373 12.381 52.123 15.87 Z M85.22 35.754  83.28 26.183 Q82.28 25.838 81.31 25.338 Q80.34 24.838 79.37 24.213 L70.269 26.743 L63.429 15.034 L70.78 8.874 Q70.75 7.884 70.75 6.769 Q70.75 5.654 70.78 4.654 L63.429 -1.507 L70.269 -13.186 L79.37 -10.686 Q80.34 -11.311 81.31 -11.796 Q82.28 -12.281 83.28 -12.626 L85.22 -22.197 H98.75 L100.739 -12.626 Q101.715 -12.292 102.698 -11.802 Q103.679 -11.311 104.62 -10.686 L113.69 -13.186 L120.56 -1.507 L113.179 4.654 Q113.209 5.644 113.209 6.759 Q113.209 7.874 113.179 8.874 L120.56 15.034 L113.69 26.743 L104.62 24.213 Q103.65 24.838 102.676 25.344 Q101.704 25.849 100.739 26.183 L98.75 35.754 H85.22 Z M98.735 13.534 Q101.535 10.719 101.535 6.783 Q101.535 2.845 98.735 0.026 Q95.935 -2.792 91.995 -2.792 Q88.054 -2.792 85.239 0.026 Q82.424 2.845 82.424 6.783 Q82.424 10.719 85.239 13.534 Q88.054 16.349 91.995 16.349 Q95.935 16.349 98.735 13.534 Z"/></g><g id="Regular-M" transform="matrix(1 0 0 1 1394.06 1126)"><path d="M30 -66.855 H90 Q92.75 -66.855 94.688 -64.917 Q96.625 -62.98 96.625 -60.23 Q96.625 -57.48 94.688 -55.542 Q92.75 -53.605 90 -53.605 H30 Q27.25 -53.605 25.312 -55.542 Q23.375 -57.48 23.375 -60.23 Q23.375 -62.98 25.312 -64.917 Q27.25 -66.855 30 -66.855 Z M40 -85.105 H80 Q82.75 -85.105 84.688 -83.167 Q86.625 -81.23 86.625 -78.48 Q86.625 -75.73 84.688 -73.792 Q82.75 -71.855 80 -71.855 H40 Q37.25 -71.855 35.312 -73.792 Q33.375 -75.73 33.375 -78.48 Q33.375 -81.23 35.312 -83.167 Q37.25 -85.105 40 -85.105 Z M28.875 -35.355 Q28.875 -35.355 30.562 -24.917 Q32.25 -14.48 34.75 1.395 Q34.75 1.395 34.75 1.395 Q34.75 1.395 34.75 1.395 L28.875 -35.355 Z M52.75 14.645 H23.625 L13.125 -48.605 H106.875 L104.625 -35.23 Q104.125 -35.23 100.312 -35.292 Q96.5 -35.355 92.75 -35.355 H28.875 L34.75 1.395 H51.75 Q51.5 4.77 51.75 8.083 Q52 11.395 52.75 14.645 Z M85.25 34.02  83.25 24.27 Q82.25 23.895 81.25 23.395 Q80.25 22.895 79.25 22.27 L70 24.77 L63.25 13.27 L70.75 7.02 Q70.75 6.02 70.75 4.895 Q70.75 3.77 70.75 2.77 L63.25 -3.48 L70 -14.98 L79.25 -12.48 Q80.25 -13.105 81.25 -13.605 Q82.25 -14.105 83.25 -14.48 L85.25 -24.23 H98.5 L100.5 -14.48 Q101.5 -14.105 102.5 -13.605 Q103.5 -13.105 104.5 -12.48 L113.75 -14.98 L120.5 -3.48 L113 2.77 Q113 3.77 113 4.895 Q113 6.02 113 7.02 L120.5 13.27 L113.75 24.77 L104.5 22.27 Q103.5 22.895 102.5 23.395 Q101.5 23.895 100.5 24.27 L98.5 34.02 H85.25 Z M98.75 11.77 Q101.625 8.895 101.625 4.895 Q101.625 0.895 98.75 -1.98 Q95.875 -4.855 91.875 -4.855 Q87.875 -4.855 85 -1.98 Q82.125 0.895 82.125 4.895 Q82.125 8.895 85 11.77 Q87.875 14.645 91.875 14.645 Q95.875 14.645 98.75 11.77 Z"/></g><g id="Light-M" transform="matrix(1 0 0 1 1098.18 1126)"><path d="M30 -64.355 H90 Q92.221 -64.355 93.797 -62.777 Q95.375 -61.201 95.375 -58.98 Q95.375 -56.759 93.797 -55.182 Q92.221 -53.605 90 -53.605 H30 Q27.779 -53.605 26.203 -55.182 Q24.625 -56.759 24.625 -58.98 Q24.625 -61.201 26.203 -62.777 Q27.779 -64.355 30 -64.355 Z M40 -81.066 H80 Q82.221 -81.066 83.797 -79.489 Q85.375 -77.912 85.375 -75.691 Q85.375 -73.47 83.797 -71.894 Q82.221 -70.316 80 -70.316 H40 Q37.779 -70.316 36.203 -71.894 Q34.625 -73.47 34.625 -75.691 Q34.625 -77.912 36.203 -79.489 Q37.779 -81.066 40 -81.066 Z M28.875 -36.894 Q28.875 -36.894 30.539 -26.552 Q32.203 -16.211 34.75 -0.144 Q34.75 -0.144 34.75 -0.144 Q34.75 -0.144 34.75 -0.144 L28.875 -36.894 Z M52.269 10.606 H25.74 L16.058 -47.644 H103.942 L102.125 -36.769 Q101.625 -36.769 98.005 -36.831 Q94.385 -36.894 91.211 -36.894 H28.875 L34.75 -0.144 H51.99 Q51.693 2.559 51.726 5.221 Q51.76 7.885 52.269 10.606 Z M85.586 28.731  84.067 20.52 Q82.635 20.193 81.25 19.5 Q79.865 18.809 78.721 17.75 L71.01 19.963 L65.414 10.674 L71.76 5.481 Q71.471 4 71.471 2.395 Q71.471 0.789 71.76 -0.691 L65.414 -5.884 L71.01 -15.172 L78.721 -12.961 Q79.817 -14.019 81.226 -14.711 Q82.635 -15.404 84.067 -15.73 L85.586 -23.941 H96.336 L97.855 -15.73 Q99.289 -15.404 100.698 -14.711 Q102.106 -14.019 103.201 -12.961 L110.914 -15.172 L116.509 -5.884 L110.164 -0.691 Q110.451 0.789 110.451 2.395 Q110.451 4 110.164 5.481 L116.509 10.674 L110.914 19.963 L103.201 17.75 Q102.058 18.809 100.672 19.5 Q99.289 20.193 97.855 20.52 L96.336 28.731 H85.586 Z M98.125 9.559 Q101.096 6.588 101.096 2.395 Q101.096 -1.797 98.125 -4.769 Q95.154 -7.74 90.961 -7.74 Q86.769 -7.74 83.797 -4.769 Q80.826 -1.797 80.826 2.395 Q80.826 6.588 83.797 9.559 Q86.769 12.53 90.961 12.53 Q95.154 12.53 98.125 9.559 Z"/></g><g id="Thin-M" transform="matrix(1 0 0 1 802.565 1126)"><path d="M30 -61.855 H90 Q91.692 -61.855 92.909 -60.639 Q94.125 -59.422 94.125 -57.73 Q94.125 -56.037 92.909 -54.821 Q91.692 -53.605 90 -53.605 H30 Q28.308 -53.605 27.091 -54.821 Q25.875 -56.037 25.875 -57.73 Q25.875 -59.422 27.091 -60.639 Q28.308 -61.855 30 -61.855 Z M40 -77.029 H80 Q81.692 -77.029 82.909 -75.811 Q84.125 -74.595 84.125 -72.902 Q84.125 -71.211 82.909 -69.995 Q81.692 -68.777 80 -68.777 H40 Q38.307 -68.777 37.091 -69.995 Q35.875 -71.211 35.875 -72.902 Q35.875 -74.595 37.091 -75.811 Q38.307 -77.029 40 -77.029 Z M28.875 -38.432 Q28.875 -38.432 30.515 -28.186 Q32.154 -17.941 34.75 -1.682 Q34.75 -1.682 34.75 -1.682 Q34.75 -1.682 34.75 -1.682 L28.875 -38.432 Z M51.789 6.569 H27.856 L18.99 -46.682 H101.01 L99.625 -38.307 Q99.125 -38.307 95.698 -38.37 Q92.269 -38.432 89.672 -38.432 H28.875 L34.75 -1.682 H52.231 Q51.885 0.348 51.703 2.361 Q51.519 4.376 51.789 6.569 Z M85.922 23.444  84.885 16.77 Q83.019 16.491 81.25 15.606 Q79.481 14.723 78.192 13.231 L72.019 15.155 L67.578 8.078 L72.769 3.943 Q72.192 1.981 72.192 -0.105 Q72.192 -2.191 72.769 -4.152 L67.578 -8.287 L72.019 -15.365 L78.192 -13.441 Q79.385 -14.932 81.203 -15.816 Q83.019 -16.701 84.885 -16.98 L85.922 -23.652 H94.172 L95.211 -16.98 Q97.078 -16.701 98.894 -15.816 Q100.711 -14.932 101.904 -13.441 L108.078 -15.365 L112.519 -8.287 L107.328 -4.152 Q107.904 -2.191 107.904 -0.105 Q107.904 1.981 107.328 3.943 L112.519 8.078 L108.078 15.155 L101.904 13.231 Q100.615 14.723 98.846 15.606 Q97.078 16.491 95.211 16.77 L94.172 23.444 H85.922 Z M97.5 7.348 Q100.567 4.28 100.567 -0.105 Q100.567 -4.49 97.5 -7.557 Q94.433 -10.624 90.047 -10.624 Q85.664 -10.624 82.596 -7.557 Q79.529 -4.49 79.529 -0.105 Q79.529 4.28 82.596 7.348 Q85.664 10.414 90.047 10.414 Q94.433 10.414 97.5 7.348 Z"/></g><g id="Ultralight-M" transform="matrix(1 0 0 1 506.415 1126)"><path d="M30 -60.355 H90 Q91.375 -60.355 92.375 -59.355 Q93.375 -58.355 93.375 -56.98 Q93.375 -55.605 92.375 -54.605 Q91.375 -53.605 90 -53.605 H30 Q28.625 -53.605 27.625 -54.605 Q26.625 -55.605 26.625 -56.98 Q26.625 -58.355 27.625 -59.355 Q28.625 -60.355 30 -60.355 Z M40 -74.605 H80 Q81.375 -74.605 82.375 -73.605 Q83.375 -72.605 83.375 -71.23 Q83.375 -69.855 82.375 -68.855 Q81.375 -67.855 80 -67.855 H40 Q38.625 -67.855 37.625 -68.855 Q36.625 -69.855 36.625 -71.23 Q36.625 -72.605 37.625 -73.605 Q38.625 -74.605 40 -74.605 Z M28.875 -39.355 Q28.875 -39.355 30.5 -29.167 Q32.125 -18.98 34.75 -2.605 Q34.75 -2.605 34.75 -2.605 Q34.75 -2.605 34.75 -2.605 L28.875 -39.355 Z M51.5 4.145 H29.125 L20.75 -46.105 H99.25 L98.125 -39.23 Q97.625 -39.23 94.312 -39.292 Q91 -39.355 88.75 -39.355 H28.875 L34.75 -2.605 H52.375 Q52 -0.98 51.688 0.645 Q51.375 2.27 51.5 4.145 Z M86.125 20.27  85.375 14.52 Q83.25 14.27 81.25 13.27 Q79.25 12.27 77.875 10.52 L72.625 12.27 L68.875 6.52 L73.375 3.02 Q72.625 0.77 72.625 -1.605 Q72.625 -3.98 73.375 -6.23 L68.875 -9.73 L72.625 -15.48 L77.875 -13.73 Q79.125 -15.48 81.188 -16.48 Q83.25 -17.48 85.375 -17.73 L86.125 -23.48 H92.875 L93.625 -17.73 Q95.75 -17.48 97.812 -16.48 Q99.875 -15.48 101.125 -13.73 L106.375 -15.48 L110.125 -9.73 L105.625 -6.23 Q106.375 -3.98 106.375 -1.605 Q106.375 0.77 105.625 3.02 L110.125 6.52 L106.375 12.27 L101.125 10.52 Q99.75 12.27 97.75 13.27 Q95.75 14.27 93.625 14.52 L92.875 20.27 H86.125 Z M97.125 6.02 Q100.25 2.895 100.25 -1.605 Q100.25 -6.105 97.125 -9.23 Q94 -12.355 89.5 -12.355 Q85 -12.355 81.875 -9.23 Q78.75 -6.105 78.75 -1.605 Q78.75 2.895 81.875 6.02 Q85 9.145 89.5 9.145 Q94 9.145 97.125 6.02 Z"/></g><g id="Bold-S" transform="matrix(1 0 0 1 2294.23 696)"><path d="M22.486 -58.999 H72.194 Q74.718 -58.999 76.612 -57.105 Q78.505 -55.211 78.505 -52.687 Q78.505 -50.162 76.612 -48.268 Q74.718 -46.375 72.194 -46.375 H22.486 Q19.962 -46.375 18.068 -48.268 Q16.175 -50.162 16.175 -52.687 Q16.175 -55.211 18.068 -57.105 Q19.962 -58.999 22.486 -58.999 Z M31.955 -76.357 H62.726 Q65.25 -76.357 67.144 -74.463 Q69.038 -72.569 69.038 -70.045 Q69.038 -67.52 67.144 -65.626 Q65.25 -63.733 62.726 -63.733 H31.955 Q29.43 -63.733 27.536 -65.626 Q25.643 -67.52 25.643 -70.045 Q25.643 -72.569 27.536 -74.463 Q29.43 -76.357 31.955 -76.357 Z M26.629 -29.115 Q26.629 -29.115 28.207 -22.31 Q29.785 -15.505 31.955 -6.826 Q31.955 -6.826 31.955 -6.826 Q31.955 -6.826 31.955 -6.826 L26.629 -29.115 Z M40.436 5.798 H21.599 L11.243 -41.739 H83.437 L80.919 -29.017 Q80.379 -29.017 77.618 -29.066 Q74.856 -29.115 71.898 -29.115 H26.629 L31.955 -6.826 H41.521 Q40.634 -3.67 40.338 -0.563 Q40.042 2.543 40.436 5.798 Z M68.15 24.34  66.769 17.633 Q65.783 17.436 64.895 16.943 Q64.008 16.45 63.317 15.759 L56.808 17.732 L51.975 9.25 L56.907 4.615 Q56.709 3.759 56.709 2.708 Q56.709 1.656 56.907 0.768 L51.975 -3.769 L56.808 -12.25 L63.219 -10.475 Q63.909 -11.264 64.846 -11.757 Q65.783 -12.25 66.769 -12.349 L68.249 -19.055 H78.047 L79.689 -12.349 Q80.594 -12.189 81.621 -11.727 Q82.648 -11.264 83.141 -10.475 L89.453 -12.152 L94.384 -3.769 L89.453 0.67 Q89.65 1.525 89.601 2.625 Q89.552 3.727 89.354 4.615 L94.384 9.151 L89.453 17.633 L83.042 15.759 Q82.352 16.45 81.455 16.961 Q80.559 17.473 79.689 17.633 L77.948 24.34 H68.15 Z M77.716 7.129 Q79.492 5.305 79.492 2.654 Q79.492 0.004 77.716 -1.834 Q75.941 -3.67 73.278 -3.67 Q70.615 -3.67 68.791 -1.834 Q66.966 0.004 66.966 2.654 Q66.966 5.305 68.791 7.129 Q70.615 8.954 73.278 8.954 Q75.941 8.954 77.716 7.129 Z"/></g><g id="Semibold-S" transform="matrix(1 0 0 1 1998.1 696)"><path d="M22.486 -58.484 H72.194 Q74.479 -58.484 76.17 -56.792 Q77.862 -55.1 77.862 -52.815 Q77.862 -50.531 76.17 -48.838 Q74.479 -47.147 72.194 -47.147 H22.486 Q20.201 -47.147 18.51 -48.838 Q16.818 -50.531 16.818 -52.815 Q16.818 -55.1 18.51 -56.792 Q20.201 -58.484 22.486 -58.484 Z M31.955 -74.556 H62.726 Q65.011 -74.556 66.702 -72.863 Q68.394 -71.172 68.394 -68.887 Q68.394 -66.603 66.702 -64.91 Q65.011 -63.218 62.726 -63.218 H31.955 Q29.669 -63.218 27.978 -64.91 Q26.286 -66.603 26.286 -68.887 Q26.286 -71.172 27.978 -72.863 Q29.669 -74.556 31.955 -74.556 Z M25.728 -31.13 Q25.728 -31.13 27.37 -23.939 Q29.013 -16.749 31.311 -7.297 Q31.311 -7.297 31.311 -7.297 Q31.311 -7.297 31.311 -7.297 L25.728 -31.13 Z M41.337 4.041 H22.028 L11.886 -42.468 H82.794 L80.513 -31.032 Q79.95 -31.032 77.253 -31.081 Q74.557 -31.13 71.983 -31.13 H25.728 L31.311 -7.297 H41.95 Q41.32 -4.442 41.131 -1.657 Q40.942 1.128 41.337 4.041 Z M68.192 21.852  66.727 14.889 Q65.74 14.649 64.809 14.155 Q63.879 13.662 63.146 12.972 L56.422 14.902 L51.718 6.72 L56.864 1.957 Q56.709 1.087 56.709 0.021 Q56.709 -1.046 56.864 -1.933 L51.718 -6.598 L56.422 -14.824 L63.047 -13.048 Q63.781 -13.837 64.76 -14.351 Q65.74 -14.866 66.727 -15.007 L68.291 -21.971 H77.689 L79.346 -15.007 Q80.287 -14.788 81.339 -14.313 Q82.39 -13.837 82.969 -13.048 L89.539 -14.725 L94.298 -6.598 L89.195 -2.032 Q89.35 -1.163 89.301 -0.048 Q89.252 1.069 89.097 1.957 L94.298 6.622 L89.539 14.803 L82.871 12.972 Q82.138 13.662 81.202 14.166 Q80.266 14.669 79.346 14.889 L77.59 21.852 H68.192 Z M77.738 4.6 Q79.62 2.689 79.62 -0.052 Q79.62 -2.794 77.738 -4.711 Q75.855 -6.629 73.107 -6.629 Q70.358 -6.629 68.448 -4.711 Q66.537 -2.794 66.537 -0.052 Q66.537 2.689 68.448 4.6 Q70.358 6.51 73.107 6.51 Q75.855 6.51 77.738 4.6 Z"/></g><g id="Medium-S" transform="matrix(1 0 0 1 1701.85 696)"><path d="M22.486 -58.098 H72.194 Q74.298 -58.098 75.839 -56.558 Q77.38 -55.016 77.38 -52.911 Q77.38 -50.807 75.839 -49.266 Q74.298 -47.726 72.194 -47.726 H22.486 Q20.382 -47.726 18.841 -49.266 Q17.3 -50.807 17.3 -52.911 Q17.3 -55.016 18.841 -56.558 Q20.382 -58.098 22.486 -58.098 Z M31.955 -73.205 H62.726 Q64.83 -73.205 66.371 -71.664 Q67.912 -70.124 67.912 -68.019 Q67.912 -65.914 66.371 -64.373 Q64.83 -62.832 62.726 -62.832 H31.955 Q29.85 -62.832 28.309 -64.373 Q26.768 -65.914 26.768 -68.019 Q26.768 -70.124 28.309 -71.664 Q29.85 -73.205 31.955 -73.205 Z M25.053 -32.642 Q25.053 -32.642 26.743 -25.161 Q28.434 -17.682 30.829 -7.651 Q30.829 -7.651 30.829 -7.651 Q30.829 -7.651 30.829 -7.651 L25.053 -32.642 Z M42.012 2.721 H22.349 L12.369 -43.014 H82.311 L80.208 -32.543 Q79.629 -32.543 76.98 -32.593 Q74.331 -32.642 72.048 -32.642 H25.053 L30.829 -7.651 H42.272 Q41.834 -5.021 41.726 -2.477 Q41.618 0.067 42.012 2.721 Z M68.225 19.987  66.694 12.83 Q65.708 12.558 64.745 12.065 Q63.783 11.572 63.017 10.881 L56.132 12.779 L51.525 4.823 L56.832 -0.038 Q56.709 -0.917 56.709 -1.994 Q56.709 -3.071 56.832 -3.959 L51.525 -8.722 L56.132 -16.753 L62.919 -14.977 Q63.684 -15.766 64.696 -16.297 Q65.708 -16.828 66.694 -17.001 L68.323 -24.158 H77.421 L79.088 -17.001 Q80.056 -16.738 81.127 -16.253 Q82.197 -15.766 82.841 -14.977 L89.603 -16.654 L94.234 -8.722 L89.002 -4.058 Q89.124 -3.178 89.075 -2.052 Q89.026 -0.925 88.904 -0.038 L94.234 4.724 L89.603 12.68 L82.742 10.881 Q81.977 11.572 81.012 12.07 Q80.047 12.567 79.088 12.83 L77.322 19.987 H68.225 Z M77.754 2.702 Q79.717 0.728 79.717 -2.082 Q79.717 -4.893 77.754 -6.87 Q75.791 -8.848 72.979 -8.848 Q70.165 -8.848 68.19 -6.87 Q66.216 -4.893 66.216 -2.082 Q66.216 0.728 68.19 2.702 Q70.165 4.677 72.979 4.677 Q75.791 4.677 77.754 2.702 Z"/></g><g id="Regular-S" transform="matrix(1 0 0 1 1405.73 696)"><path d="M22.486 -57.815 H72.194 Q74.166 -57.815 75.596 -56.385 Q77.026 -54.955 77.026 -52.982 Q77.026 -51.01 75.596 -49.58 Q74.166 -48.15 72.194 -48.15 H22.486 Q20.514 -48.15 19.084 -49.58 Q17.654 -51.01 17.654 -52.982 Q17.654 -54.955 19.084 -56.385 Q20.514 -57.815 22.486 -57.815 Z M31.955 -72.214 H62.726 Q64.698 -72.214 66.128 -70.784 Q67.558 -69.354 67.558 -67.382 Q67.558 -65.409 66.128 -63.979 Q64.698 -62.549 62.726 -62.549 H31.955 Q29.982 -62.549 28.552 -63.979 Q27.122 -65.409 27.122 -67.382 Q27.122 -69.354 28.552 -70.784 Q29.982 -72.214 31.955 -72.214 Z M24.558 -33.751 Q24.558 -33.751 26.284 -26.058 Q28.01 -18.365 30.475 -7.911 Q30.475 -7.911 30.475 -7.911 Q30.475 -7.911 30.475 -7.911 L24.558 -33.751 Z M42.507 1.754 H22.585 L12.723 -43.416 H81.957 L79.985 -33.652 Q79.393 -33.652 76.78 -33.701 Q74.166 -33.751 72.095 -33.751 H24.558 L30.475 -7.911 H42.507 Q42.212 -5.445 42.162 -3.078 Q42.113 -0.711 42.507 1.754 Z M68.249 18.619  66.671 11.321 Q65.684 11.025 64.698 10.532 Q63.712 10.039 62.923 9.349 L55.92 11.222 L51.384 3.431 L56.808 -1.5 Q56.709 -2.388 56.709 -3.473 Q56.709 -4.558 56.808 -5.445 L51.384 -10.278 L55.92 -18.168 L62.824 -16.393 Q63.613 -17.182 64.649 -17.724 Q65.684 -18.266 66.671 -18.464 L68.347 -25.762 H77.223 L78.9 -18.464 Q79.886 -18.168 80.971 -17.675 Q82.056 -17.182 82.746 -16.393 L89.65 -18.069 L94.187 -10.278 L88.861 -5.544 Q88.96 -4.656 88.91 -3.522 Q88.861 -2.388 88.763 -1.5 L94.187 3.332 L89.65 11.124 L82.648 9.349 Q81.859 10.039 80.873 10.532 Q79.886 11.025 78.9 11.321 L77.125 18.619 H68.249 Z M77.766 1.311 Q79.788 -0.711 79.788 -3.571 Q79.788 -6.431 77.766 -8.453 Q75.744 -10.475 72.884 -10.475 Q70.024 -10.475 68.002 -8.453 Q65.98 -6.431 65.98 -3.571 Q65.98 -0.711 68.002 1.311 Q70.024 3.332 72.884 3.332 Q75.744 3.332 77.766 1.311 Z"/></g><g id="Light-S" transform="matrix(1 0 0 1 1109.75 696)"><path d="M22.486 -55.843 H72.194 Q73.749 -55.843 74.894 -54.697 Q76.04 -53.552 76.04 -51.996 Q76.04 -50.441 74.894 -49.296 Q73.749 -48.15 72.194 -48.15 H22.486 Q20.931 -48.15 19.786 -49.296 Q18.64 -50.441 18.64 -51.996 Q18.64 -53.552 19.786 -54.697 Q20.931 -55.843 22.486 -55.843 Z M31.955 -69.028 H62.726 Q64.281 -69.028 65.426 -67.882 Q66.572 -66.737 66.572 -65.181 Q66.572 -63.626 65.426 -62.481 Q64.281 -61.335 62.726 -61.335 H31.955 Q30.399 -61.335 29.254 -62.481 Q28.108 -63.626 28.108 -65.181 Q28.108 -66.737 29.254 -67.882 Q30.399 -69.028 31.955 -69.028 Z M24.558 -34.965 Q24.558 -34.965 26.265 -27.348 Q27.972 -19.731 30.475 -9.125 Q30.475 -9.125 30.475 -9.125 Q30.475 -9.125 30.475 -9.125 L24.558 -34.965 Z M42.128 -1.432 H24.254 L15.036 -42.657 H79.644 L78.012 -34.866 Q77.421 -34.866 74.959 -34.915 Q72.497 -34.965 70.881 -34.965 H24.558 L30.475 -9.125 H42.697 Q42.363 -7.19 42.143 -5.336 Q41.924 -3.481 42.128 -1.432 Z M68.514 14.446  67.316 8.362 Q65.988 8.104 64.698 7.459 Q63.408 6.815 62.506 5.782 L56.717 7.429 L53.091 1.383 L57.605 -2.714 Q57.278 -3.982 57.278 -5.445 Q57.278 -6.91 57.605 -8.176 L53.091 -12.174 L56.717 -18.32 L62.407 -16.772 Q63.272 -17.903 64.63 -18.597 Q65.988 -19.291 67.316 -19.45 L68.612 -25.534 H75.516 L76.813 -19.45 Q78.142 -19.193 79.549 -18.548 Q80.956 -17.903 81.722 -16.772 L87.412 -18.221 L91.038 -12.174 L86.623 -8.275 Q86.949 -7.008 86.899 -5.495 Q86.85 -3.982 86.525 -2.714 L91.038 1.284 L87.412 7.331 L81.623 5.782 Q80.721 6.815 79.431 7.459 Q78.142 8.104 76.813 8.362 L75.418 14.446 H68.514 Z M77.273 -0.434 Q79.37 -2.532 79.37 -5.544 Q79.37 -8.556 77.273 -10.654 Q75.175 -12.751 72.163 -12.751 Q69.151 -12.751 67.053 -10.654 Q64.955 -8.556 64.955 -5.544 Q64.955 -2.532 67.053 -0.434 Q69.151 1.664 72.163 1.664 Q75.175 1.664 77.273 -0.434 Z"/></g><g id="Thin-S" transform="matrix(1 0 0 1 814.015 696)"><path d="M22.486 -53.87 H72.194 Q73.332 -53.87 74.193 -53.009 Q75.054 -52.148 75.054 -51.01 Q75.054 -49.872 74.193 -49.011 Q73.332 -48.15 72.194 -48.15 H22.486 Q21.348 -48.15 20.487 -49.011 Q19.626 -49.872 19.626 -51.01 Q19.626 -52.148 20.487 -53.009 Q21.348 -53.87 22.486 -53.87 Z M31.955 -65.842 H62.726 Q63.864 -65.842 64.725 -64.98 Q65.586 -64.119 65.586 -62.981 Q65.586 -61.844 64.725 -60.983 Q63.864 -60.121 62.726 -60.121 H31.955 Q30.816 -60.121 29.955 -60.983 Q29.094 -61.844 29.094 -62.981 Q29.094 -64.119 29.955 -64.98 Q30.816 -65.842 31.955 -65.842 Z M24.558 -36.179 Q24.558 -36.179 26.246 -28.637 Q27.934 -21.096 30.475 -10.339 Q30.475 -10.339 30.475 -10.339 Q30.475 -10.339 30.475 -10.339 L24.558 -36.179 Z M41.749 -4.618 H25.924 L17.35 -41.899 H77.33 L76.04 -36.08 Q75.448 -36.08 73.138 -36.129 Q70.828 -36.179 69.667 -36.179 H24.558 L30.475 -10.339 H42.887 Q42.515 -8.935 42.125 -7.592 Q41.733 -6.249 41.749 -4.618 Z M68.779 10.275  67.961 5.404 Q66.291 5.184 64.698 4.387 Q63.105 3.591 62.088 2.217 L57.513 3.636 L54.798 -0.666 L58.401 -3.928 Q57.848 -5.574 57.848 -7.418 Q57.848 -9.261 58.401 -10.907 L54.798 -14.071 L57.513 -18.472 L61.99 -17.151 Q62.931 -18.624 64.611 -19.469 Q66.291 -20.315 67.961 -20.436 L68.878 -25.306 H73.809 L74.727 -20.436 Q76.397 -20.216 78.126 -19.419 Q79.856 -18.624 80.698 -17.151 L85.175 -18.373 L87.89 -14.071 L84.386 -11.006 Q84.939 -9.36 84.889 -7.467 Q84.84 -5.574 84.287 -3.928 L87.89 -0.765 L85.175 3.538 L80.599 2.217 Q79.582 3.591 77.99 4.387 Q76.397 5.184 74.727 5.404 L73.71 10.275 H68.779 Z M76.78 -2.179 Q78.953 -4.352 78.953 -7.516 Q78.953 -10.68 76.78 -12.854 Q74.606 -15.027 71.442 -15.027 Q68.279 -15.027 66.105 -12.854 Q63.932 -10.68 63.932 -7.516 Q63.932 -4.352 66.105 -2.179 Q68.279 -0.006 71.442 -0.006 Q74.606 -0.006 76.78 -2.179 Z"/></g><g id="Ultralight-S" transform="matrix(1 0 0 1 517.792 696)"><path d="M22.486 -52.687 H72.194 Q73.081 -52.687 73.772 -51.996 Q74.462 -51.306 74.462 -50.418 Q74.462 -49.531 73.772 -48.84 Q73.081 -48.15 72.194 -48.15 H22.486 Q21.599 -48.15 20.909 -48.84 Q20.218 -49.531 20.218 -50.418 Q20.218 -51.306 20.909 -51.996 Q21.599 -52.687 22.486 -52.687 Z M31.955 -63.93 H62.726 Q63.613 -63.93 64.303 -63.239 Q64.994 -62.549 64.994 -61.661 Q64.994 -60.774 64.303 -60.083 Q63.613 -59.393 62.726 -59.393 H31.955 Q31.067 -59.393 30.377 -60.083 Q29.686 -60.774 29.686 -61.661 Q29.686 -62.549 30.377 -63.239 Q31.067 -63.93 31.955 -63.93 Z M24.558 -36.907 Q24.558 -36.907 26.234 -29.411 Q27.911 -21.916 30.475 -11.067 Q30.475 -11.067 30.475 -11.067 Q30.475 -11.067 30.475 -11.067 L24.558 -36.907 Z M41.521 -6.53 H26.925 L18.739 -41.443 H75.941 L74.856 -36.808 Q74.265 -36.808 72.046 -36.857 Q69.827 -36.907 68.939 -36.907 H24.558 L30.475 -11.067 H43.001 Q42.606 -9.982 42.113 -8.946 Q41.62 -7.911 41.521 -6.53 Z M68.939 7.771  68.347 3.628 Q66.473 3.431 64.698 2.543 Q62.923 1.656 61.838 0.078 L57.992 1.36 L55.822 -1.895 L58.879 -4.656 Q58.189 -6.53 58.189 -8.601 Q58.189 -10.672 58.879 -12.546 L55.822 -15.209 L57.992 -18.562 L61.739 -17.379 Q62.726 -19.055 64.599 -19.992 Q66.473 -20.929 68.347 -21.028 L69.038 -25.17 H72.785 L73.476 -21.028 Q75.35 -20.831 77.273 -19.943 Q79.196 -19.055 80.084 -17.379 L83.831 -18.464 L86.001 -15.209 L83.042 -12.645 Q83.733 -10.771 83.683 -8.651 Q83.634 -6.53 82.944 -4.656 L86.001 -1.993 L83.831 1.261 L79.985 0.078 Q78.9 1.656 77.125 2.543 Q75.35 3.431 73.476 3.628 L72.687 7.771 H68.939 Z M76.484 -3.226 Q78.703 -5.445 78.703 -8.7 Q78.703 -11.954 76.484 -14.174 Q74.265 -16.393 71.01 -16.393 Q67.755 -16.393 65.536 -14.174 Q63.317 -11.954 63.317 -8.7 Q63.317 -5.445 65.536 -3.226 Q67.755 -1.007 71.01 -1.007 Q74.265 -1.007 76.484 -3.226 Z"/></g></g></svg>