<svg xmlns="http://www.w3.org/2000/svg" version="1.1" width="3300" height="2000"><g id="Notes"><style>
    text {
      font-family: monospace;
      text-anchor: middle;
    }
    text.emphasis {
      font-weight:bold;
    }
    text.lanchor {
      text-anchor: start;
    }
  </style><rect height="2200" id="artboard" fill="white" width="3300" x="0" y="0"/><line id="" style="fill:none;stroke:black;stroke-width:0.5;" x1="263" x2="3036" y1="292" y2="292"/><text class="lanchor emphasis" transform="matrix(1 0 0 1 263 322)">Weight/Scale Variations</text><text transform="matrix(1 0 0 1 559.711 322)">Ultralight</text><text transform="matrix(1 0 0 1 856.422 322)">Thin</text><text transform="matrix(1 0 0 1 1153.13 322)">Light</text><text transform="matrix(1 0 0 1 1449.84 322)">Regular</text><text transform="matrix(1 0 0 1 1746.56 322)">Medium</text><text transform="matrix(1 0 0 1 2043.27 322)">Semibold</text><text transform="matrix(1 0 0 1 2339.98 322)">Bold</text><text transform="matrix(1 0 0 1 2636.69 322)">Heavy</text><text transform="matrix(1 0 0 1 2933.4 322)">Black</text><text id="template-version" style="text-anchor: end;" transform="matrix(1 0 0 1 3036 1933)">Template v.1.0</text><text class="lanchor" transform="matrix(1 0 0 1 263 726)">Small</text><text class="lanchor" transform="matrix(1 0 0 1 263 1156)">Medium</text><text class="lanchor" transform="matrix(1 0 0 1 263 1586)">Large</text></g><g id="Guides"><g id="H-reference" style="fill:#27AAE1;stroke:none;" transform="matrix(1 0 0 1 339 696)"><path d="M 54.9316 0 L 57.666 0 L 30.5664 -70.459 L 28.0762 -70.459 L 0.976562 0 L 3.66211 0 L 12.9395 -24.4629 L 45.7031 -24.4629 Z M 29.1992 -67.0898 L 29.4434 -67.0898 L 44.8242 -26.709 L 13.8184 -26.709 Z"/></g><line id="Baseline-S" style="fill:none;stroke:#27AAE1;opacity:1;stroke-width:0.577;" x1="263" x2="3036" y1="696" y2="696"/><line id="Capline-S" style="fill:none;stroke:#27AAE1;opacity:1;stroke-width:0.577;" x1="263" x2="3036" y1="625.541" y2="625.541"/><g id="H-reference" style="fill:#27AAE1;stroke:none;" transform="matrix(1 0 0 1 339 1126)"><path d="M 54.9316 0 L 57.666 0 L 30.5664 -70.459 L 28.0762 -70.459 L 0.976562 0 L 3.66211 0 L 12.9395 -24.4629 L 45.7031 -24.4629 Z M 29.1992 -67.0898 L 29.4434 -67.0898 L 44.8242 -26.709 L 13.8184 -26.709 Z"/></g><line id="Baseline-M" style="fill:none;stroke:#27AAE1;opacity:1;stroke-width:0.577;" x1="263" x2="3036" y1="1126" y2="1126"/><line id="Capline-M" style="fill:none;stroke:#27AAE1;opacity:1;stroke-width:0.577;" x1="263" x2="3036" y1="1055.54" y2="1055.54"/><g id="H-reference" style="fill:#27AAE1;stroke:none;" transform="matrix(1 0 0 1 339 1556)"><path d="M 54.9316 0 L 57.666 0 L 30.5664 -70.459 L 28.0762 -70.459 L 0.976562 0 L 3.66211 0 L 12.9395 -24.4629 L 45.7031 -24.4629 Z M 29.1992 -67.0898 L 29.4434 -67.0898 L 44.8242 -26.709 L 13.8184 -26.709 Z"/></g><line id="Baseline-L" style="fill:none;stroke:#27AAE1;opacity:1;stroke-width:0.577;" x1="263" x2="3036" y1="1556" y2="1556"/><line id="Capline-L" style="fill:none;stroke:#27AAE1;opacity:1;stroke-width:0.577;" x1="263" x2="3036" y1="1485.54" y2="1485.54"/><rect height="119.336" id="left-margin" style="fill:darkred;stroke:none;opacity:0.4;" width="12.4512" x="1394.06" y="1030.79"/><rect height="119.336" id="right-margin" style="fill:darkgreen;stroke:none;opacity:0.4;" width="12.4512" x="1502.5112" y="1030.79"/><rect x="1406.5112" y="1045" width="96" height="96" fill="none" stroke="blue" stroke-dasharray="5"/><rect x="1394.06" y="1030.79" width="120.9024" height="119.336" fill="none" stroke="blue"/></g><g id="Symbols"><g id="Bold-L" transform="matrix(1 0 0 1 2266 1556)"><path d="M38.7 -76.187 H116.1 Q119.244 -76.187 121.381 -74.051 Q123.517 -71.914 123.517 -68.77 Q123.517 -65.626 121.381 -63.529 Q119.244 -61.433 116.1 -61.433 H38.7 Q35.717 -61.433 33.54 -63.529 Q31.363 -65.626 31.363 -68.77 Q31.363 -71.914 33.54 -74.051 Q35.717 -76.187 38.7 -76.187 Z M51.6 -101.181 H103.2 Q106.344 -101.181 108.481 -98.964 Q110.618 -96.747 110.618 -93.602 Q110.618 -90.619 108.481 -88.442 Q106.344 -86.266 103.2 -86.266 H51.6 Q48.617 -86.266 46.44 -88.442 Q44.263 -90.619 44.263 -93.602 Q44.263 -96.747 46.44 -98.964 Q48.617 -101.181 51.6 -101.181 Z M34.588 -36.601 Q34.588 -36.601 36.684 -23.177 Q38.781 -9.752 42.892 15.564 Q42.892 15.564 42.892 15.564 Q42.892 15.564 42.892 15.564 L34.588 -36.601 Z M71.998 30.479 H30.315 L16.689 -51.355 H138.111 L135.611 -36.439 Q134.966 -36.439 129.685 -36.52 Q124.404 -36.601 118.358 -36.601 H34.588 L42.892 15.564 H70.224 Q69.902 19.353 70.386 23.143 Q70.869 26.932 71.998 30.479 Z M111.504 46.363  110.618 38.219 Q107.473 37.413 104.732 35.801 Q101.991 34.188 99.814 32.011 L92.719 35.317 L85.785 24.352 L92.154 19.273 Q91.106 16.289 91.106 13.306 Q91.106 10.323 92.154 7.179 L85.785 2.261 L92.719 -8.866 L99.814 -5.56 Q101.991 -7.576 104.732 -9.188 Q107.473 -10.801 110.618 -11.607 L111.504 -19.75 H123.84 L124.888 -11.607 Q127.952 -10.801 130.774 -9.188 Q133.596 -7.576 135.853 -5.56 L142.787 -8.866 L149.882 2.261 L143.351 7.179 Q144.319 10.323 144.319 13.306 Q144.319 16.289 143.351 19.273 L149.882 24.352 L142.787 35.317 L135.853 32.011 Q133.596 34.188 130.774 35.801 Q127.952 37.413 124.888 38.219 L123.84 46.363 H111.504 Z M128.678 24.271 Q133.192 19.676 133.192 13.226 Q133.192 6.776 128.678 2.261 Q124.163 -2.254 117.713 -2.254 Q111.263 -2.254 106.667 2.261 Q102.071 6.776 102.071 13.226 Q102.071 19.676 106.667 24.271 Q111.263 28.867 117.713 28.867 Q124.163 28.867 128.678 24.271 Z"/></g><g id="Semibold-L" transform="matrix(1 0 0 1 1970.27 1556)"><path d="M38.7 -75.136 H116.1 Q118.754 -75.136 120.539 -73.349 Q122.326 -71.564 122.326 -68.91 Q122.326 -66.327 120.539 -64.545 Q118.754 -62.765 116.1 -62.765 H38.7 Q36.207 -62.765 34.382 -64.545 Q32.555 -66.327 32.555 -68.91 Q32.555 -71.564 34.382 -73.349 Q36.207 -75.136 38.7 -75.136 Z M51.6 -97.676 H103.2 Q105.854 -97.676 107.639 -95.844 Q109.426 -94.012 109.426 -91.36 Q109.426 -88.867 107.639 -87.04 Q105.854 -85.214 103.2 -85.214 H51.6 Q49.107 -85.214 47.282 -87.04 Q45.455 -88.867 45.455 -91.36 Q45.455 -94.012 47.282 -95.844 Q49.107 -97.676 51.6 -97.676 Z M32.976 -40.316 Q32.976 -40.316 35.177 -26.331 Q37.378 -12.347 41.701 14.582 Q41.701 14.582 41.701 14.582 Q41.701 14.582 41.701 14.582 L32.976 -40.316 Z M74.733 27.045 H31.226 L17.952 -52.687 H136.848 L134.77 -40.226 Q134.125 -40.226 128.915 -40.271 Q123.703 -40.316 118.217 -40.316 H32.976 L41.701 14.582 H71.906 Q72.076 17.881 72.804 21.004 Q73.533 24.128 74.733 27.045 Z M111.714 39.632  110.898 31.769 Q107.613 30.894 104.696 29.21 Q101.781 27.529 99.464 25.211 L92.649 28.446 L86.346 18.603 L92.504 13.734 Q91.456 10.61 91.456 7.417 Q91.456 4.225 92.504 1.009 L86.346 -3.769 L92.649 -13.772 L99.464 -10.538 Q101.85 -12.694 104.732 -14.376 Q107.613 -16.059 110.898 -16.935 L111.714 -24.868 H122.718 L123.696 -16.935 Q126.901 -16.059 129.827 -14.376 Q132.754 -12.694 135.223 -10.538 L141.945 -13.772 L148.34 -3.769 L142.089 1.009 Q143.056 4.225 143.056 7.417 Q143.056 10.61 142.089 13.734 L148.34 18.603 L141.945 28.446 L135.223 25.211 Q132.825 27.529 129.863 29.21 Q126.901 30.894 123.696 31.769 L122.718 39.632 H111.714 Z M128.468 18.628 Q133.123 13.927 133.123 7.337 Q133.123 0.746 128.468 -3.909 Q123.813 -8.564 117.222 -8.564 Q110.632 -8.564 105.932 -3.909 Q101.23 0.746 101.23 7.337 Q101.23 13.927 105.932 18.628 Q110.632 23.328 117.222 23.328 Q123.813 23.328 128.468 18.628 Z"/></g><g id="Medium-L" transform="matrix(1 0 0 1 1674.31 1556)"><path d="M38.7 -74.348 H116.1 Q118.385 -74.348 119.909 -72.824 Q121.433 -71.302 121.433 -69.015 Q121.433 -66.853 119.909 -65.308 Q118.385 -63.765 116.1 -63.765 H38.7 Q36.576 -63.765 35.012 -65.308 Q33.448 -66.853 33.448 -69.015 Q33.448 -71.302 35.012 -72.824 Q36.576 -74.348 38.7 -74.348 Z M51.6 -95.047 H103.2 Q105.485 -95.047 107.009 -93.504 Q108.533 -91.963 108.533 -89.676 Q108.533 -87.552 107.009 -85.988 Q105.485 -84.426 103.2 -84.426 H51.6 Q49.476 -84.426 47.912 -85.988 Q46.348 -87.552 46.348 -89.676 Q46.348 -91.963 47.912 -93.504 Q49.476 -95.047 51.6 -95.047 Z M31.766 -43.104 Q31.766 -43.104 34.046 -28.698 Q36.326 -14.292 40.808 13.846 Q40.808 13.846 40.808 13.846 Q40.808 13.846 40.808 13.846 L31.766 -43.104 Z M76.782 24.468 H31.91 L18.899 -53.687 H135.901 L134.139 -43.065 Q133.494 -43.065 128.336 -43.084 Q123.177 -43.104 118.112 -43.104 H31.766 L40.808 13.846 H73.169 Q73.706 16.776 74.618 19.4 Q75.531 22.025 76.782 24.468 Z M111.872 34.585  111.108 26.932 Q107.718 26.003 104.671 24.268 Q101.623 22.533 99.201 20.111 L92.596 23.294 L86.767 14.291 L92.767 9.58 Q91.719 6.352 91.719 3.001 Q91.719 -0.352 92.767 -3.619 L86.767 -8.29 L92.596 -17.454 L99.201 -14.271 Q101.746 -16.531 104.732 -18.266 Q107.718 -20.002 111.108 -20.932 L111.872 -28.706 H121.878 L122.803 -20.932 Q126.112 -20.002 129.118 -18.266 Q132.123 -16.531 134.749 -14.271 L141.315 -17.454 L147.183 -8.29 L141.142 -3.619 Q142.11 -0.352 142.11 3.001 Q142.11 6.352 141.142 9.58 L147.183 14.291 L141.315 23.294 L134.749 20.111 Q132.246 22.533 129.179 24.268 Q126.112 26.003 122.803 26.932 L121.878 34.585 H111.872 Z M128.31 14.395 Q133.07 9.615 133.07 2.92 Q133.07 -3.775 128.31 -8.537 Q123.55 -13.297 116.853 -13.297 Q110.158 -13.297 105.378 -8.537 Q100.599 -3.775 100.599 2.92 Q100.599 9.615 105.378 14.395 Q110.158 19.174 116.853 19.174 Q123.55 19.174 128.31 14.395 Z"/></g><g id="Regular-L" transform="matrix(1 0 0 1 1378.56 1556)"><path d="M38.7 -73.769 H116.1 Q118.116 -73.769 119.446 -72.438 Q120.776 -71.108 120.776 -69.092 Q120.776 -67.238 119.446 -65.867 Q118.116 -64.497 116.1 -64.497 H38.7 Q36.846 -64.497 35.475 -65.867 Q34.104 -67.238 34.104 -69.092 Q34.104 -71.108 35.475 -72.438 Q36.846 -73.769 38.7 -73.769 Z M51.6 -93.119 H103.2 Q105.216 -93.119 106.546 -91.788 Q107.876 -90.458 107.876 -88.442 Q107.876 -86.588 106.546 -85.217 Q105.216 -83.847 103.2 -83.847 H51.6 Q49.746 -83.847 48.375 -85.217 Q47.004 -86.588 47.004 -88.442 Q47.004 -90.458 48.375 -91.788 Q49.746 -93.119 51.6 -93.119 Z M30.879 -45.147 Q30.879 -45.147 33.218 -30.433 Q35.556 -15.719 40.151 13.306 Q40.151 13.306 40.151 13.306 Q40.151 13.306 40.151 13.306 L30.879 -45.147 Z M78.287 22.578 H32.411 L19.592 -54.419 H135.208 L133.676 -45.147 Q133.031 -45.147 127.912 -45.147 Q122.792 -45.147 118.035 -45.147 H30.879 L40.151 13.306 H74.094 Q74.901 15.967 75.949 18.224 Q76.997 20.482 78.287 22.578 Z M111.988 30.883  111.263 23.384 Q107.796 22.417 104.651 20.643 Q101.507 18.869 99.008 16.37 L92.558 19.514 L87.075 11.129 L92.961 6.534 Q91.913 3.228 91.913 -0.239 Q91.913 -3.706 92.961 -7.011 L87.075 -11.607 L92.558 -20.153 L99.008 -17.009 Q101.668 -19.347 104.732 -21.121 Q107.796 -22.894 111.263 -23.862 L111.988 -31.521 H121.26 L122.147 -23.862 Q125.533 -22.894 128.597 -21.121 Q131.661 -19.347 134.402 -17.009 L140.852 -20.153 L146.334 -11.607 L140.449 -7.011 Q141.416 -3.706 141.416 -0.239 Q141.416 3.228 140.449 6.534 L146.334 11.129 L140.852 19.514 L134.402 16.37 Q131.822 18.869 128.678 20.643 Q125.533 22.417 122.147 23.384 L121.26 30.883 H111.988 Z M128.194 11.291 Q133.031 6.453 133.031 -0.319 Q133.031 -7.092 128.194 -11.929 Q123.356 -16.767 116.584 -16.767 Q109.811 -16.767 104.974 -11.929 Q100.136 -7.092 100.136 -0.319 Q100.136 6.453 104.974 11.291 Q109.811 16.128 116.584 16.128 Q123.356 16.128 128.194 11.291 Z"/></g><g id="Light-L" transform="matrix(1 0 0 1 1082.77 1556)"><path d="M38.7 -70.637 H116.1 Q117.682 -70.637 118.686 -69.631 Q119.691 -68.626 119.691 -67.046 Q119.691 -65.563 118.686 -64.565 Q117.682 -63.566 116.1 -63.566 H38.7 Q37.218 -63.566 36.22 -64.565 Q35.22 -65.563 35.22 -67.046 Q35.22 -68.626 36.22 -69.631 Q37.218 -70.637 38.7 -70.637 Z M51.6 -88.002 H103.2 Q104.782 -88.002 105.786 -86.998 Q106.791 -85.993 106.791 -84.411 Q106.791 -82.929 105.786 -81.93 Q104.782 -80.931 103.2 -80.931 H51.6 Q50.118 -80.931 49.12 -81.93 Q48.12 -82.929 48.12 -84.411 Q48.12 -85.993 49.12 -86.998 Q50.118 -88.002 51.6 -88.002 Z M31.965 -46.201 Q31.965 -46.201 34.256 -31.844 Q36.547 -17.486 40.958 10.36 Q40.958 10.36 40.958 10.36 Q40.958 10.36 40.958 10.36 L31.965 -46.201 Z M77.078 17.429 H35.078 L23.283 -53.271 H131.517 L130.327 -46.201 Q129.776 -46.201 124.935 -46.201 Q120.094 -46.201 116.237 -46.201 H31.965 L40.958 10.36 H73.94 Q74.498 12.4 75.313 14.146 Q76.128 15.893 77.078 17.429 Z M112.174 25.548  111.727 19.447 Q108.075 18.54 104.822 16.767 Q101.568 14.993 99.162 12.276 L93.83 15.017 L89.587 8.741 L94.388 4.983 Q93.153 1.398 93.153 -2.348 Q93.153 -6.094 94.388 -9.678 L89.587 -13.437 L93.83 -19.811 L99.162 -17.07 Q101.607 -19.719 104.84 -21.477 Q108.075 -23.236 111.727 -24.08 L112.174 -30.343 H119.244 L119.789 -24.08 Q123.332 -23.236 126.551 -21.462 Q129.769 -19.689 132.356 -17.07 L137.627 -19.811 L141.931 -13.437 L137.069 -9.678 Q138.191 -6.094 138.191 -2.348 Q138.191 1.398 137.069 4.983 L141.931 8.741 L137.627 15.017 L132.356 12.276 Q129.837 14.993 126.584 16.767 Q123.332 18.54 119.789 19.447 L119.244 25.548 H112.174 Z M126.921 8.933 Q131.604 4.252 131.604 -2.398 Q131.604 -9.046 126.921 -13.727 Q122.24 -18.41 115.623 -18.41 Q109.005 -18.41 104.322 -13.727 Q99.64 -9.046 99.64 -2.398 Q99.64 4.252 104.322 8.933 Q109.005 13.616 115.623 13.616 Q122.24 13.616 126.921 8.933 Z"/></g><g id="Thin-L" transform="matrix(1 0 0 1 787.282 1556)"><path d="M38.7 -67.504 H116.1 Q117.248 -67.504 117.927 -66.825 Q118.606 -66.146 118.606 -65 Q118.606 -63.889 117.927 -63.263 Q117.248 -62.636 116.1 -62.636 H38.7 Q37.591 -62.636 36.963 -63.263 Q36.338 -63.889 36.338 -65 Q36.338 -66.146 36.963 -66.825 Q37.591 -67.504 38.7 -67.504 Z M51.6 -82.886 H103.2 Q104.348 -82.886 105.027 -82.207 Q105.706 -81.528 105.706 -80.38 Q105.706 -79.271 105.027 -78.643 Q104.348 -78.018 103.2 -78.018 H51.6 Q50.491 -78.018 49.863 -78.643 Q49.238 -79.271 49.238 -80.38 Q49.238 -81.528 49.863 -82.207 Q50.491 -82.886 51.6 -82.886 Z M33.05 -47.256 Q33.05 -47.256 35.294 -33.255 Q37.541 -19.253 41.764 7.414 Q41.764 7.414 41.764 7.414 Q41.764 7.414 41.764 7.414 L33.05 -47.256 Z M75.868 12.282 H37.745 L26.972 -52.124 H127.828 L126.978 -47.256 Q126.52 -47.256 121.958 -47.256 Q117.396 -47.256 114.438 -47.256 H33.05 L41.764 7.414 H73.785 Q74.094 8.835 74.678 10.068 Q75.26 11.304 75.868 12.282 Z M112.361 20.216  112.193 15.507 Q108.354 14.664 104.993 12.89 Q101.631 11.116 99.317 8.183 L95.1 10.521 L92.098 6.353 L95.813 3.433 Q94.393 -0.431 94.393 -4.455 Q94.393 -8.482 95.813 -12.345 L92.098 -15.266 L95.1 -19.471 L99.317 -17.133 Q101.544 -20.092 104.95 -21.833 Q108.354 -23.576 112.193 -24.296 L112.361 -29.164 H117.229 L117.434 -24.296 Q121.129 -23.576 124.504 -21.803 Q127.878 -20.029 130.309 -17.133 L134.402 -19.471 L137.527 -15.266 L133.689 -12.345 Q134.966 -8.482 134.966 -4.455 Q134.966 -0.431 133.689 3.433 L137.527 6.353 L134.402 10.521 L130.309 8.183 Q127.852 11.116 124.491 12.89 Q121.129 14.664 117.434 15.507 L117.229 20.216 H112.361 Z M125.651 6.577 Q130.179 2.049 130.179 -4.475 Q130.179 -10.999 125.651 -15.527 Q121.123 -20.053 114.662 -20.053 Q108.199 -20.053 103.671 -15.527 Q99.145 -10.999 99.145 -4.475 Q99.145 2.049 103.671 6.577 Q108.199 11.105 114.662 11.105 Q121.123 11.105 125.651 6.577 Z"/></g><g id="Ultralight-L" transform="matrix(1 0 0 1 491.205 1556)"><path d="M38.7 -65.626 H116.1 Q116.987 -65.626 117.471 -65.142 Q117.954 -64.658 117.954 -63.771 Q117.954 -62.884 117.471 -62.481 Q116.987 -62.078 116.1 -62.078 H38.7 Q37.813 -62.078 37.41 -62.481 Q37.007 -62.884 37.007 -63.771 Q37.007 -64.658 37.41 -65.142 Q37.813 -65.626 38.7 -65.626 Z M51.6 -79.816 H103.2 Q104.087 -79.816 104.571 -79.332 Q105.054 -78.848 105.054 -77.961 Q105.054 -77.074 104.571 -76.671 Q104.087 -76.268 103.2 -76.268 H51.6 Q50.713 -76.268 50.31 -76.671 Q49.907 -77.074 49.907 -77.961 Q49.907 -78.848 50.31 -79.332 Q50.713 -79.816 51.6 -79.816 Z M33.701 -47.888 Q33.701 -47.888 35.918 -34.101 Q38.136 -20.314 42.248 5.647 Q42.248 5.647 42.248 5.647 Q42.248 5.647 42.248 5.647 L33.701 -47.888 Z M75.142 9.194 H39.345 L29.186 -51.436 H125.614 L124.969 -47.888 Q124.566 -47.888 120.172 -47.888 Q115.778 -47.888 113.359 -47.888 H33.701 L42.248 5.647 H73.691 Q73.853 6.695 74.296 7.622 Q74.739 8.549 75.142 9.194 Z M112.472 17.015 V13.145 Q108.521 12.339 105.095 10.565 Q101.668 8.791 99.411 5.728 L95.863 7.824 L93.606 4.921 L96.669 2.503 Q95.138 -1.529 95.138 -5.721 Q95.138 -9.914 96.669 -13.945 L93.606 -16.364 L95.863 -19.266 L99.411 -17.17 Q101.507 -20.314 105.014 -22.048 Q108.521 -23.781 112.472 -24.426 V-28.457 H116.019 V-24.426 Q119.809 -23.781 123.276 -22.007 Q126.743 -20.234 129.081 -17.17 L132.467 -19.266 L134.886 -16.364 L131.661 -13.945 Q133.031 -9.914 133.031 -5.721 Q133.031 -1.529 131.661 2.503 L134.886 4.921 L132.467 7.824 L129.081 5.728 Q126.662 8.791 123.235 10.565 Q119.809 12.339 116.019 13.145 V17.015 H112.472 Z M124.888 5.163 Q129.322 0.729 129.322 -5.721 Q129.322 -12.171 124.888 -16.606 Q120.454 -21.04 114.084 -21.04 Q107.715 -21.04 103.281 -16.606 Q98.846 -12.171 98.846 -5.721 Q98.846 0.729 103.281 5.163 Q107.715 9.598 114.084 9.598 Q120.454 9.598 124.888 5.163 Z"/></g><g id="Bold-M" transform="matrix(1 0 0 1 2281.8 1126)"><path d="M30 -67.417 H90 Q93.062 -67.417 95.312 -65.167 Q97.562 -62.917 97.562 -59.855 Q97.562 -56.792 95.312 -54.542 Q93.062 -52.292 90 -52.292 H30 Q26.938 -52.292 24.688 -54.542 Q22.438 -56.792 22.438 -59.855 Q22.438 -62.917 24.688 -65.167 Q26.938 -67.417 30 -67.417 Z M40 -88.167 H80 Q83.062 -88.167 85.312 -85.917 Q87.562 -83.667 87.562 -80.605 Q87.562 -77.542 85.312 -75.292 Q83.062 -73.042 80 -73.042 H40 Q36.938 -73.042 34.688 -75.292 Q32.438 -77.542 32.438 -80.605 Q32.438 -83.667 34.688 -85.917 Q36.938 -88.167 40 -88.167 Z M30.375 -31.667 Q30.375 -31.667 31.844 -22.292 Q33.312 -12.917 35.875 2.458 Q35.875 2.458 35.875 2.458 Q35.875 2.458 35.875 2.458 L30.375 -31.667 Z M53.25 17.583 H23.125 L12.375 -46.792 H107.625 L105 -31.542 Q104.562 -31.542 100.531 -31.605 Q96.5 -31.667 91.625 -31.667 H30.375 L35.875 2.458 H52.5 Q52 6.27 52.094 10.051 Q52.188 13.833 53.25 17.583 Z M84.938 33.895  83.438 26.145 Q82.25 25.77 81.156 25.114 Q80.062 24.458 79.062 23.77 L71.688 26.145 L65.438 15.395 L71.312 10.395 Q71 9.083 71 7.77 Q71 6.458 71.312 5.145 L65.438 0.145 L71.688 -10.48 L79.062 -8.23 Q80.062 -8.917 81.156 -9.511 Q82.25 -10.105 83.438 -10.48 L84.938 -18.23 H97.438 L99.062 -10.48 Q100.25 -10.105 101.375 -9.542 Q102.5 -8.98 103.438 -8.23 L110.688 -10.48 L117.062 0.145 L111.062 5.145 Q111.375 6.458 111.375 7.77 Q111.375 9.083 111.062 10.395 L117.062 15.395 L110.688 26.145 L103.438 23.77 Q102.438 24.458 101.344 25.114 Q100.25 25.77 99.062 26.145 L97.438 33.895 H84.938 Z M97.625 14.208 Q100.25 11.52 100.25 7.77 Q100.25 4.02 97.625 1.395 Q95 -1.23 91.25 -1.23 Q87.5 -1.23 84.812 1.395 Q82.125 4.02 82.125 7.77 Q82.125 11.52 84.812 14.208 Q87.5 16.895 91.25 16.895 Q95 16.895 97.625 14.208 Z"/></g><g id="Semibold-M" transform="matrix(1 0 0 1 1985.97 1126)"><path d="M30 -66.33 H90 Q92.574 -66.33 94.442 -64.461 Q96.312 -62.591 96.312 -60.017 Q96.312 -57.445 94.442 -55.575 Q92.574 -53.705 90 -53.705 H30 Q27.426 -53.705 25.558 -55.575 Q23.688 -57.445 23.688 -60.017 Q23.688 -62.591 25.558 -64.461 Q27.426 -66.33 30 -66.33 Z M40 -84.581 H80 Q82.574 -84.581 84.442 -82.711 Q86.312 -80.841 86.312 -78.269 Q86.312 -75.695 84.442 -73.825 Q82.574 -71.955 80 -71.955 H40 Q37.426 -71.955 35.557 -73.825 Q33.688 -75.695 33.688 -78.269 Q33.688 -80.841 35.557 -82.711 Q37.426 -84.581 40 -84.581 Z M28.745 -35.526 Q28.745 -35.526 30.323 -25.58 Q31.9 -15.635 34.68 1.425 Q34.68 1.425 34.68 1.425 Q34.68 1.425 34.68 1.425 L28.745 -35.526 Z M56.076 14.05 H24.049 L13.679 -48.151 H106.321 L104.13 -35.455 Q103.692 -35.455 99.744 -35.49 Q95.794 -35.526 91.516 -35.526 H28.745 L34.68 1.425 H54.239 Q54.174 4.694 54.594 7.85 Q55.014 11.006 56.076 14.05 Z M85.155 26.939  83.709 19.461 Q82.359 18.978 81.129 18.294 Q79.9 17.61 78.736 16.76 L71.634 19.026 L66.035 9.471 L71.692 4.635 Q71.38 3.159 71.38 1.684 Q71.38 0.208 71.692 -1.267 L66.035 -6.105 L71.634 -15.589 L78.736 -13.392 Q79.9 -14.244 81.129 -14.891 Q82.359 -15.54 83.709 -16.022 L85.155 -23.501 H96.296 L97.812 -16.022 Q99.162 -15.54 100.424 -14.922 Q101.685 -14.306 102.785 -13.392 L109.817 -15.589 L115.486 -6.105 L109.759 -1.267 Q110.071 0.208 110.071 1.684 Q110.071 3.159 109.759 4.635 L115.486 9.471 L109.817 19.026 L102.785 16.76 Q101.623 17.61 100.392 18.294 Q99.162 18.978 97.812 19.461 L96.296 26.939 H85.155 Z M97.435 8.393 Q100.196 5.596 100.196 1.684 Q100.196 -2.23 97.435 -4.99 Q94.674 -7.751 90.761 -7.751 Q86.847 -7.751 84.051 -4.99 Q81.255 -2.23 81.255 1.684 Q81.255 5.596 84.051 8.393 Q86.847 11.189 90.761 11.189 Q94.674 11.189 97.435 8.393 Z"/></g><g id="Medium-M" transform="matrix(1 0 0 1 1689.91 1126)"><path d="M30 -65.515 H90 Q92.206 -65.515 93.791 -63.931 Q95.375 -62.346 95.375 -60.14 Q95.375 -57.934 93.791 -56.35 Q92.206 -54.765 90 -54.765 H30 Q27.794 -54.765 26.209 -56.35 Q24.625 -57.934 24.625 -60.14 Q24.625 -62.346 26.209 -63.931 Q27.794 -65.515 30 -65.515 Z M40 -81.89 H80 Q82.206 -81.89 83.791 -80.306 Q85.375 -78.722 85.375 -76.515 Q85.375 -74.309 83.791 -72.725 Q82.206 -71.14 80 -71.14 H40 Q37.794 -71.14 36.209 -72.725 Q34.625 -74.309 34.625 -76.515 Q34.625 -78.722 36.209 -80.306 Q37.794 -81.89 40 -81.89 Z M27.521 -38.42 Q27.521 -38.42 29.181 -28.046 Q30.84 -17.672 33.782 0.65 Q33.782 0.65 33.782 0.65 Q33.782 0.65 33.782 0.65 L27.521 -38.42 Z M58.195 11.4 H24.741 L14.658 -49.17 H105.343 L103.479 -38.39 Q103.041 -38.39 99.153 -38.405 Q95.264 -38.42 91.435 -38.42 H27.521 L33.782 0.65 H55.544 Q55.804 3.511 56.469 6.199 Q57.133 8.888 58.195 11.4 Z M85.317 21.721  83.912 14.446 Q82.44 13.881 81.109 13.178 Q79.778 12.474 78.491 11.501 L71.593 13.686 L66.484 5.029 L71.979 0.314 Q71.666 -1.284 71.666 -2.882 Q71.666 -4.48 71.979 -6.077 L66.484 -10.792 L71.593 -19.42 L78.491 -17.265 Q79.778 -18.237 81.109 -18.927 Q82.44 -19.616 83.912 -20.181 L85.317 -27.455 H95.44 L96.875 -20.181 Q98.347 -19.616 99.71 -18.959 Q101.074 -18.3 102.296 -17.265 L109.166 -19.42 L114.304 -10.792 L108.78 -6.077 Q109.093 -4.48 109.093 -2.882 Q109.093 -1.284 108.78 0.314 L114.304 5.029 L109.166 13.686 L102.296 11.501 Q101.011 12.474 99.679 13.178 Q98.347 13.881 96.875 14.446 L95.44 21.721 H85.317 Z M97.293 4.031 Q100.155 1.154 100.155 -2.882 Q100.155 -6.917 97.293 -9.78 Q94.429 -12.642 90.394 -12.642 Q86.359 -12.642 83.481 -9.78 Q80.604 -6.917 80.604 -2.882 Q80.604 1.154 83.481 4.031 Q86.359 6.909 90.394 6.909 Q94.429 6.909 97.293 4.031 Z"/></g><g id="Regular-M" transform="matrix(1 0 0 1 1394.06 1126)"><path d="M30 -64.917 H90 Q91.938 -64.917 93.312 -63.542 Q94.688 -62.167 94.688 -60.23 Q94.688 -58.292 93.312 -56.917 Q91.938 -55.542 90 -55.542 H30 Q28.062 -55.542 26.688 -56.917 Q25.312 -58.292 25.312 -60.23 Q25.312 -62.167 26.688 -63.542 Q28.062 -64.917 30 -64.917 Z M40 -79.917 H80 Q81.938 -79.917 83.312 -78.542 Q84.688 -77.167 84.688 -75.23 Q84.688 -73.292 83.312 -71.917 Q81.938 -70.542 80 -70.542 H40 Q38.062 -70.542 36.688 -71.917 Q35.312 -73.292 35.312 -75.23 Q35.312 -77.167 36.688 -78.542 Q38.062 -79.917 40 -79.917 Z M26.625 -40.542 Q26.625 -40.542 28.344 -29.855 Q30.062 -19.167 33.125 0.083 Q33.125 0.083 33.125 0.083 Q33.125 0.083 33.125 0.083 L26.625 -40.542 Z M59.75 9.458 H25.25 L15.375 -49.917 H104.625 L103 -40.542 Q102.562 -40.542 98.719 -40.542 Q94.875 -40.542 91.375 -40.542 H26.625 L33.125 0.083 H56.5 Q57 2.645 57.844 4.989 Q58.688 7.333 59.75 9.458 Z M85.438 17.895  84.062 10.77 Q82.5 10.145 81.094 9.426 Q79.688 8.708 78.312 7.645 L71.562 9.77 L66.812 1.77 L72.188 -2.855 Q71.875 -4.542 71.875 -6.23 Q71.875 -7.917 72.188 -9.605 L66.812 -14.23 L71.562 -22.23 L78.312 -20.105 Q79.688 -21.167 81.094 -21.886 Q82.5 -22.605 84.062 -23.23 L85.438 -30.355 H94.812 L96.188 -23.23 Q97.75 -22.605 99.188 -21.917 Q100.625 -21.23 101.938 -20.105 L108.688 -22.23 L113.438 -14.23 L108.062 -9.605 Q108.375 -7.917 108.375 -6.23 Q108.375 -4.542 108.062 -2.855 L113.438 1.77 L108.688 9.77 L101.938 7.645 Q100.562 8.708 99.156 9.426 Q97.75 10.145 96.188 10.77 L94.812 17.895 H85.438 Z M97.188 0.833 Q100.125 -2.105 100.125 -6.23 Q100.125 -10.355 97.188 -13.292 Q94.25 -16.23 90.125 -16.23 Q86 -16.23 83.062 -13.292 Q80.125 -10.355 80.125 -6.23 Q80.125 -2.105 83.062 0.833 Q86 3.77 90.125 3.77 Q94.25 3.77 97.188 0.833 Z"/></g><g id="Light-M" transform="matrix(1 0 0 1 1098.18 1126)"><path d="M30 -62.49 H90 Q91.456 -62.49 92.483 -61.462 Q93.51 -60.436 93.51 -58.98 Q93.51 -57.524 92.483 -56.509 Q91.456 -55.495 90 -55.495 H30 Q28.544 -55.495 27.529 -56.509 Q26.515 -57.524 26.515 -58.98 Q26.515 -60.436 27.529 -61.462 Q28.544 -62.49 30 -62.49 Z M40 -75.951 H80 Q81.456 -75.951 82.483 -74.925 Q83.51 -73.897 83.51 -72.441 Q83.51 -70.985 82.483 -69.97 Q81.456 -68.956 80 -68.956 H40 Q38.544 -68.956 37.529 -69.97 Q36.515 -70.985 36.515 -72.441 Q36.515 -73.897 37.529 -74.925 Q38.544 -75.951 40 -75.951 Z M26.698 -42.032 Q26.698 -42.032 28.404 -31.43 Q30.11 -20.826 33.172 -1.529 Q33.172 -1.529 33.172 -1.529 Q33.172 -1.529 33.172 -1.529 L26.698 -42.032 Z M59.149 5.466 H27.317 L18.236 -49.027 H101.764 L100.547 -42.032 Q100.135 -42.032 96.483 -42.032 Q92.831 -42.032 89.933 -42.032 H26.698 L33.172 -1.529 H56.669 Q57.072 0.409 57.711 2.14 Q58.351 3.871 59.149 5.466 Z M85.87 12.991  84.953 7.333 Q82.956 6.755 81.177 5.844 Q79.399 4.934 77.904 3.463 L72.596 5.323 L68.953 -0.562 L73.245 -4.201 Q72.644 -6.345 72.644 -8.514 Q72.644 -10.682 73.245 -12.826 L68.953 -16.466 L72.596 -22.35 L77.904 -20.49 Q79.351 -21.985 81.154 -22.884 Q82.956 -23.782 84.953 -24.36 L85.87 -30.019 H92.865 L93.784 -24.36 Q95.755 -23.782 97.576 -22.904 Q99.399 -22.024 100.831 -20.49 L106.139 -22.35 L109.784 -16.466 L105.49 -12.826 Q106.067 -10.682 106.067 -8.514 Q106.067 -6.345 105.49 -4.201 L109.784 -0.562 L106.139 5.323 L100.831 3.463 Q99.312 4.934 97.534 5.844 Q95.755 6.755 93.784 7.333 L92.865 12.991 H85.87 Z M96.706 -1.162 Q99.74 -4.196 99.74 -8.514 Q99.74 -12.831 96.706 -15.865 Q93.672 -18.899 89.356 -18.899 Q85.039 -18.899 82.005 -15.865 Q78.971 -12.831 78.971 -8.514 Q78.971 -4.196 82.005 -1.162 Q85.039 1.871 89.356 1.871 Q93.672 1.871 96.706 -1.162 Z"/></g><g id="Thin-M" transform="matrix(1 0 0 1 802.565 1126)"><path d="M30 -60.061 H90 Q90.976 -60.061 91.654 -59.384 Q92.331 -58.706 92.331 -57.73 Q92.331 -56.754 91.654 -56.1 Q90.976 -55.446 90 -55.446 H30 Q29.024 -55.446 28.37 -56.1 Q27.716 -56.754 27.716 -57.73 Q27.716 -58.706 28.37 -59.384 Q29.024 -60.061 30 -60.061 Z M40 -71.985 H80 Q80.976 -71.985 81.654 -71.307 Q82.331 -70.629 82.331 -69.652 Q82.331 -68.677 81.654 -68.024 Q80.976 -67.37 80 -67.37 H40 Q39.024 -67.37 38.37 -68.024 Q37.716 -68.677 37.716 -69.652 Q37.716 -70.629 38.37 -71.307 Q39.024 -71.985 40 -71.985 Z M26.769 -43.524 Q26.769 -43.524 28.464 -33.004 Q30.159 -22.485 33.221 -3.139 Q33.221 -3.139 33.221 -3.139 Q33.221 -3.139 33.221 -3.139 L26.769 -43.524 Z M58.547 1.476 H29.385 L21.096 -48.139 H98.904 L98.096 -43.524 Q97.706 -43.524 94.248 -43.524 Q90.789 -43.524 88.49 -43.524 H26.769 L33.221 -3.139 H56.836 Q57.144 -1.826 57.579 -0.709 Q58.015 0.41 58.547 1.476 Z M86.302 8.088  85.841 3.895 Q83.414 3.366 81.263 2.263 Q79.11 1.16 77.495 -0.72 L73.63 0.876 L71.091 -2.894 L74.302 -5.547 Q73.414 -8.149 73.414 -10.797 Q73.414 -13.446 74.302 -16.047 L71.091 -18.701 L73.63 -22.47 L77.495 -20.874 Q79.015 -22.802 81.214 -23.881 Q83.414 -24.961 85.841 -25.49 L86.302 -29.682 H90.919 L91.38 -25.49 Q93.76 -24.961 95.966 -23.889 Q98.172 -22.816 99.726 -20.874 L103.591 -22.47 L106.13 -18.701 L102.919 -16.047 Q103.76 -13.446 103.76 -10.797 Q103.76 -8.149 102.919 -5.547 L106.13 -2.894 L103.591 0.876 L99.726 -0.72 Q98.062 1.16 95.911 2.263 Q93.76 3.366 91.38 3.895 L90.919 8.088 H86.302 Z M96.226 -3.157 Q99.356 -6.287 99.356 -10.797 Q99.356 -15.307 96.226 -18.436 Q93.096 -21.566 88.586 -21.566 Q84.078 -21.566 80.948 -18.436 Q77.817 -15.307 77.817 -10.797 Q77.817 -6.287 80.948 -3.157 Q84.078 -0.027 88.586 -0.027 Q93.096 -0.027 96.226 -3.157 Z"/></g><g id="Ultralight-M" transform="matrix(1 0 0 1 506.415 1126)"><path d="M30 -58.605 H90 Q90.688 -58.605 91.156 -58.136 Q91.625 -57.667 91.625 -56.98 Q91.625 -56.292 91.156 -55.855 Q90.688 -55.417 90 -55.417 H30 Q29.312 -55.417 28.875 -55.855 Q28.438 -56.292 28.438 -56.98 Q28.438 -57.667 28.875 -58.136 Q29.312 -58.605 30 -58.605 Z M40 -69.605 H80 Q80.688 -69.605 81.156 -69.136 Q81.625 -68.667 81.625 -67.98 Q81.625 -67.292 81.156 -66.855 Q80.688 -66.417 80 -66.417 H40 Q39.312 -66.417 38.875 -66.855 Q38.438 -67.292 38.438 -67.98 Q38.438 -68.667 38.875 -69.136 Q39.312 -69.605 40 -69.605 Z M26.812 -44.417 Q26.812 -44.417 28.5 -33.949 Q30.188 -23.48 33.25 -4.105 Q33.25 -4.105 33.25 -4.105 Q33.25 -4.105 33.25 -4.105 L26.812 -44.417 Z M58.188 -0.917 H30.625 L22.812 -47.605 H97.188 L96.625 -44.417 Q96.25 -44.417 92.906 -44.417 Q89.562 -44.417 87.625 -44.417 H26.812 L33.25 -4.105 H56.938 Q57.188 -3.167 57.5 -2.417 Q57.812 -1.667 58.188 -0.917 Z M86.562 5.145  86.375 1.833 Q83.688 1.333 81.312 0.114 Q78.938 -1.105 77.25 -3.23 L74.25 -1.792 L72.375 -4.292 L74.938 -6.355 Q73.875 -9.23 73.875 -12.167 Q73.875 -15.105 74.938 -17.98 L72.375 -20.042 L74.25 -22.542 L77.25 -21.105 Q78.812 -23.292 81.25 -24.48 Q83.688 -25.667 86.375 -26.167 L86.562 -29.48 H89.75 L89.938 -26.167 Q92.562 -25.667 95 -24.48 Q97.438 -23.292 99.062 -21.105 L102.062 -22.542 L103.938 -20.042 L101.375 -17.98 Q102.375 -15.105 102.375 -12.167 Q102.375 -9.23 101.375 -6.355 L103.938 -4.292 L102.062 -1.792 L99.062 -3.23 Q97.312 -1.105 94.938 0.114 Q92.562 1.333 89.938 1.833 L89.75 5.145 H86.562 Z M95.938 -4.355 Q99.125 -7.542 99.125 -12.167 Q99.125 -16.792 95.938 -19.98 Q92.75 -23.167 88.125 -23.167 Q83.5 -23.167 80.312 -19.98 Q77.125 -16.792 77.125 -12.167 Q77.125 -7.542 80.312 -4.355 Q83.5 -1.167 88.125 -1.167 Q92.75 -1.167 95.938 -4.355 Z"/></g><g id="Bold-S" transform="matrix(1 0 0 1 2294.23 696)"><path d="M22.486 -58.259 H72.194 Q74.413 -58.259 76.089 -56.582 Q77.766 -54.906 77.766 -52.687 Q77.766 -50.468 76.089 -48.791 Q74.413 -47.114 72.194 -47.114 H22.486 Q20.267 -47.114 18.591 -48.791 Q16.914 -50.468 16.914 -52.687 Q16.914 -54.906 18.591 -56.582 Q20.267 -58.259 22.486 -58.259 Z M31.955 -74.631 H62.726 Q64.945 -74.631 66.621 -72.954 Q68.298 -71.277 68.298 -69.058 Q68.298 -66.839 66.621 -65.163 Q64.945 -63.486 62.726 -63.486 H31.955 Q29.735 -63.486 28.059 -65.163 Q26.382 -66.839 26.382 -69.058 Q26.382 -71.277 28.059 -72.954 Q29.735 -74.631 31.955 -74.631 Z M25.741 -30.841 Q25.741 -30.841 27.294 -23.987 Q28.848 -17.132 31.363 -7.073 Q31.363 -7.073 31.363 -7.073 Q31.363 -7.073 31.363 -7.073 L25.741 -30.841 Z M42.902 4.072 H22.191 L12.131 -41.986 H82.549 L80.281 -30.743 Q79.738 -30.743 76.952 -30.792 Q74.166 -30.841 71.207 -30.841 H25.741 L31.363 -7.073 H43.099 Q42.606 -4.262 42.433 -1.525 Q42.261 1.212 42.902 4.072 Z M68.002 18.521  66.818 12.8 Q65.684 12.505 64.624 11.888 Q63.564 11.272 62.775 10.532 L57.252 12.307 L53.11 5.108 L57.252 1.163 Q56.907 0.028 56.907 -1.204 Q56.907 -2.437 57.252 -3.571 L53.11 -7.418 L57.252 -14.617 L62.676 -13.039 Q63.465 -13.878 64.575 -14.494 Q65.684 -15.11 66.818 -15.308 L68.101 -21.028 H76.385 L77.766 -15.308 Q78.9 -15.012 80.084 -14.469 Q81.267 -13.927 81.908 -13.039 L87.234 -14.519 L91.475 -7.418 L87.332 -3.67 Q87.678 -2.536 87.628 -1.254 Q87.579 0.028 87.234 1.163 L91.475 5.009 L87.234 12.209 L81.809 10.532 Q81.02 11.272 79.96 11.888 Q78.9 12.505 77.766 12.8 L76.286 18.521 H68.002 Z M76.878 3.234 Q78.703 1.36 78.703 -1.303 Q78.703 -3.966 76.878 -5.79 Q75.054 -7.615 72.391 -7.615 Q69.728 -7.615 67.854 -5.79 Q65.98 -3.966 65.98 -1.303 Q65.98 1.36 67.854 3.234 Q69.728 5.108 72.391 5.108 Q75.054 5.108 76.878 3.234 Z"/></g><g id="Semibold-S" transform="matrix(1 0 0 1 1998.1 696)"><path d="M22.486 -57.401 H72.194 Q74.027 -57.401 75.403 -56.025 Q76.78 -54.648 76.78 -52.815 Q76.78 -50.982 75.403 -49.606 Q74.027 -48.229 72.194 -48.229 H22.486 Q20.653 -48.229 19.277 -49.606 Q17.9 -50.982 17.9 -52.815 Q17.9 -54.648 19.277 -56.025 Q20.653 -57.401 22.486 -57.401 Z M31.955 -71.801 H62.726 Q64.559 -71.801 65.935 -70.424 Q67.312 -69.048 67.312 -67.215 Q67.312 -65.382 65.935 -64.005 Q64.559 -62.628 62.726 -62.628 H31.955 Q30.121 -62.628 28.745 -64.005 Q27.368 -65.382 27.368 -67.215 Q27.368 -69.048 28.745 -70.424 Q30.121 -71.801 31.955 -71.801 Z M24.455 -33.886 Q24.455 -33.886 26.094 -26.581 Q27.733 -19.276 30.42 -7.887 Q30.42 -7.887 30.42 -7.887 Q30.42 -7.887 30.42 -7.887 L24.455 -33.886 Z M45.132 1.285 H22.919 L13.16 -43.058 H81.52 L79.594 -33.83 Q79.052 -33.83 76.331 -33.857 Q73.609 -33.886 71.121 -33.886 H24.455 L30.42 -7.887 H44.471 Q44.321 -5.505 44.406 -3.262 Q44.491 -1.018 45.132 1.285 Z M68.174 13.032  67.032 7.527 Q65.77 7.145 64.602 6.507 Q63.436 5.869 62.517 5.001 L57.209 6.691 L53.581 0.434 L57.552 -3.382 Q57.206 -4.645 57.206 -6.006 Q57.206 -7.368 57.552 -8.631 L53.581 -12.349 L57.209 -18.648 L62.419 -17.113 Q63.337 -18.08 64.553 -18.739 Q65.77 -19.399 67.032 -19.681 L68.272 -25.187 H75.485 L76.78 -19.681 Q78.042 -19.3 79.333 -18.714 Q80.624 -18.129 81.393 -17.113 L86.547 -18.55 L90.231 -12.349 L86.304 -8.729 Q86.649 -7.467 86.6 -6.056 Q86.55 -4.645 86.205 -3.382 L90.231 0.335 L86.547 6.592 L81.295 5.001 Q80.377 5.869 79.21 6.507 Q78.042 7.145 76.78 7.527 L75.386 13.032 H68.174 Z M76.728 -1.354 Q78.66 -3.314 78.66 -6.105 Q78.66 -8.897 76.728 -10.828 Q74.796 -12.76 72.005 -12.76 Q69.213 -12.76 67.253 -10.828 Q65.294 -8.897 65.294 -6.105 Q65.294 -3.314 67.253 -1.354 Q69.213 0.605 72.005 0.605 Q74.796 0.605 76.728 -1.354 Z"/></g><g id="Medium-S" transform="matrix(1 0 0 1 1701.85 696)"><path d="M22.486 -56.758 H72.194 Q73.737 -56.758 74.889 -55.607 Q76.04 -54.455 76.04 -52.911 Q76.04 -51.368 74.889 -50.217 Q73.737 -49.065 72.194 -49.065 H22.486 Q20.943 -49.065 19.791 -50.217 Q18.64 -51.368 18.64 -52.911 Q18.64 -54.455 19.791 -55.607 Q20.943 -56.758 22.486 -56.758 Z M31.955 -69.678 H62.726 Q64.269 -69.678 65.421 -68.527 Q66.572 -67.376 66.572 -65.831 Q66.572 -64.288 65.421 -63.137 Q64.269 -61.985 62.726 -61.985 H31.955 Q30.411 -61.985 29.259 -63.137 Q28.108 -64.288 28.108 -65.831 Q28.108 -67.376 29.259 -68.527 Q30.411 -69.678 31.955 -69.678 Z M23.49 -36.169 Q23.49 -36.169 25.194 -28.526 Q26.897 -20.884 29.712 -8.499 Q29.712 -8.499 29.712 -8.499 Q29.712 -8.499 29.712 -8.499 L23.49 -36.169 Z M46.803 -0.806 H23.466 L13.932 -43.862 H80.748 L79.08 -36.145 Q78.538 -36.145 75.864 -36.157 Q73.191 -36.169 71.057 -36.169 H23.49 L29.712 -8.499 H45.501 Q45.607 -6.438 45.885 -4.565 Q46.162 -2.69 46.803 -0.806 Z M68.302 8.916  67.193 3.57 Q65.834 3.124 64.587 2.47 Q63.339 1.817 62.324 0.852 L57.177 2.477 L53.935 -3.071 L57.777 -6.791 Q57.432 -8.151 57.432 -9.609 Q57.432 -11.067 57.777 -12.426 L53.935 -16.047 L57.177 -21.671 L62.225 -20.168 Q63.24 -21.231 64.537 -21.924 Q65.834 -22.615 67.193 -22.962 L68.4 -28.307 H74.809 L76.04 -22.962 Q77.399 -22.516 78.77 -21.899 Q80.142 -21.28 81.008 -20.168 L86.034 -21.572 L89.298 -16.047 L85.532 -12.525 Q85.877 -11.165 85.827 -9.659 Q85.778 -8.151 85.433 -6.791 L89.298 -3.17 L86.034 2.379 L80.909 0.852 Q79.895 1.817 78.647 2.47 Q77.399 3.124 76.04 3.57 L74.71 8.916 H68.302 Z M76.616 -4.795 Q78.628 -6.819 78.628 -9.708 Q78.628 -12.596 76.616 -14.608 Q74.603 -16.619 71.715 -16.619 Q68.827 -16.619 66.804 -14.608 Q64.78 -12.596 64.78 -9.708 Q64.78 -6.819 66.804 -4.795 Q68.827 -2.772 71.715 -2.772 Q74.603 -2.772 76.616 -4.795 Z"/></g><g id="Regular-S" transform="matrix(1 0 0 1 1405.73 696)"><path d="M22.486 -56.286 H72.194 Q73.525 -56.286 74.511 -55.3 Q75.497 -54.314 75.497 -52.982 Q75.497 -51.651 74.511 -50.665 Q73.525 -49.679 72.194 -49.679 H22.486 Q21.155 -49.679 20.169 -50.665 Q19.183 -51.651 19.183 -52.982 Q19.183 -54.314 20.169 -55.3 Q21.155 -56.286 22.486 -56.286 Z M31.955 -68.121 H62.726 Q64.057 -68.121 65.043 -67.135 Q66.029 -66.149 66.029 -64.817 Q66.029 -63.486 65.043 -62.5 Q64.057 -61.514 62.726 -61.514 H31.955 Q30.623 -61.514 29.637 -62.5 Q28.651 -63.486 28.651 -64.817 Q28.651 -66.149 29.637 -67.135 Q30.623 -68.121 31.955 -68.121 Z M22.782 -37.844 Q22.782 -37.844 24.533 -29.954 Q26.284 -22.064 29.193 -8.946 Q29.193 -8.946 29.193 -8.946 Q29.193 -8.946 29.193 -8.946 L22.782 -37.844 Z M48.03 -2.339 H23.867 L14.498 -44.451 H80.182 L78.703 -37.844 Q78.16 -37.844 75.522 -37.844 Q72.884 -37.844 71.01 -37.844 H22.782 L29.193 -8.946 H46.255 Q46.551 -7.122 46.97 -5.519 Q47.389 -3.917 48.03 -2.339 Z M68.396 5.897  67.312 0.67 Q65.882 0.176 64.575 -0.489 Q63.268 -1.155 62.183 -2.191 L57.153 -0.613 L54.194 -5.642 L57.942 -9.292 Q57.597 -10.722 57.597 -12.25 Q57.597 -13.779 57.942 -15.209 L54.194 -18.76 L57.153 -23.888 L62.084 -22.409 Q63.169 -23.543 64.525 -24.258 Q65.882 -24.973 67.312 -25.367 L68.495 -30.595 H74.314 L75.497 -25.367 Q76.928 -24.874 78.358 -24.233 Q79.788 -23.592 80.725 -22.409 L85.656 -23.789 L88.615 -18.76 L84.965 -15.308 Q85.311 -13.878 85.261 -12.3 Q85.212 -10.722 84.867 -9.292 L88.615 -5.741 L85.656 -0.711 L80.626 -2.191 Q79.541 -1.155 78.234 -0.489 Q76.928 0.176 75.497 0.67 L74.215 5.897 H68.396 Z M76.533 -7.319 Q78.604 -9.39 78.604 -12.349 Q78.604 -15.308 76.533 -17.379 Q74.462 -19.45 71.503 -19.45 Q68.544 -19.45 66.473 -17.379 Q64.402 -15.308 64.402 -12.349 Q64.402 -9.39 66.473 -7.319 Q68.544 -5.248 71.503 -5.248 Q74.462 -5.248 76.533 -7.319 Z"/></g><g id="Light-S" transform="matrix(1 0 0 1 1109.75 696)"><path d="M22.486 -54.371 H72.194 Q73.145 -54.371 73.856 -53.659 Q74.568 -52.948 74.568 -51.996 Q74.568 -51.045 73.856 -50.342 Q73.145 -49.641 72.194 -49.641 H22.486 Q21.535 -49.641 20.833 -50.342 Q20.131 -51.045 20.131 -51.996 Q20.131 -52.948 20.833 -53.659 Q21.535 -54.371 22.486 -54.371 Z M31.955 -64.992 H62.726 Q63.677 -64.992 64.388 -64.281 Q65.1 -63.569 65.1 -62.617 Q65.1 -61.665 64.388 -60.963 Q63.677 -60.262 62.726 -60.262 H31.955 Q31.003 -60.262 30.301 -60.963 Q29.599 -61.665 29.599 -62.617 Q29.599 -63.569 30.301 -64.281 Q31.003 -64.992 31.955 -64.992 Z M22.84 -39.019 Q22.84 -39.019 24.58 -31.196 Q26.321 -23.372 29.23 -10.218 Q29.23 -10.218 29.23 -10.218 Q29.23 -10.218 29.23 -10.218 L22.84 -39.019 Z M47.556 -5.488 H25.499 L16.755 -43.749 H77.925 L76.768 -39.019 Q76.245 -39.019 73.758 -39.019 Q71.271 -39.019 69.872 -39.019 H22.84 L29.23 -10.218 H46.388 Q46.608 -8.886 46.866 -7.767 Q47.124 -6.647 47.556 -5.488 Z M68.738 2.028  68.014 -2.043 Q66.241 -2.498 64.641 -3.316 Q63.04 -4.133 61.861 -5.491 L57.969 -4.122 L55.883 -7.483 L58.777 -10.354 Q58.204 -12.144 58.204 -14.052 Q58.204 -15.961 58.777 -17.751 L55.883 -20.524 L57.969 -23.983 L61.762 -22.713 Q62.904 -24.188 64.573 -25.045 Q66.241 -25.902 68.014 -26.259 L68.836 -30.329 H72.777 L73.601 -26.259 Q75.353 -25.803 77.086 -25.011 Q78.82 -24.219 79.852 -22.713 L83.645 -23.884 L85.732 -20.524 L82.936 -17.849 Q83.49 -16.059 83.441 -14.102 Q83.391 -12.144 82.837 -10.354 L85.732 -7.581 L83.645 -4.22 L79.753 -5.491 Q78.555 -4.133 76.954 -3.316 Q75.353 -2.498 73.601 -2.043 L72.679 2.028 H68.738 Z M76.153 -8.893 Q78.3 -11.04 78.3 -14.151 Q78.3 -17.262 76.153 -19.409 Q74.006 -21.556 70.897 -21.556 Q67.786 -21.556 65.639 -19.409 Q63.492 -17.262 63.492 -14.151 Q63.492 -11.04 65.639 -8.893 Q67.786 -6.746 70.897 -6.746 Q74.006 -6.746 76.153 -8.893 Z"/></g><g id="Thin-S" transform="matrix(1 0 0 1 814.015 696)"><path d="M22.486 -52.455 H72.194 Q72.767 -52.455 73.202 -52.019 Q73.638 -51.583 73.638 -51.01 Q73.638 -50.437 73.202 -50.02 Q72.767 -49.603 72.194 -49.603 H22.486 Q21.913 -49.603 21.496 -50.02 Q21.079 -50.437 21.079 -51.01 Q21.079 -51.583 21.496 -52.019 Q21.913 -52.455 22.486 -52.455 Z M31.955 -61.863 H62.726 Q63.299 -61.863 63.734 -61.427 Q64.17 -60.99 64.17 -60.417 Q64.17 -59.845 63.734 -59.428 Q63.299 -59.01 62.726 -59.01 H31.955 Q31.381 -59.01 30.964 -59.428 Q30.547 -59.845 30.547 -60.417 Q30.547 -60.99 30.964 -61.427 Q31.381 -61.863 31.955 -61.863 Z M22.896 -40.196 Q22.896 -40.196 24.628 -32.438 Q26.36 -24.681 29.269 -11.488 Q29.269 -11.488 29.269 -11.488 Q29.269 -11.488 29.269 -11.488 L22.896 -40.196 Z M47.082 -8.636 H27.13 L19.012 -43.048 H75.668 L74.834 -40.196 Q74.329 -40.196 71.994 -40.196 Q69.66 -40.196 68.734 -40.196 H22.896 L29.269 -11.488 H46.52 Q46.664 -10.65 46.761 -10.015 Q46.859 -9.378 47.082 -8.636 Z M69.079 -1.841  68.715 -4.755 Q66.602 -5.172 64.708 -6.142 Q62.812 -7.11 61.538 -8.791 L58.784 -7.63 L57.57 -9.322 L59.611 -11.416 Q58.811 -13.567 58.811 -15.854 Q58.811 -18.141 59.611 -20.292 L57.57 -22.287 L58.784 -24.077 L61.439 -23.015 Q62.639 -24.833 64.62 -25.832 Q66.602 -26.832 68.715 -27.151 L69.178 -30.064 H71.242 L71.704 -27.151 Q73.779 -26.733 75.816 -25.789 Q77.853 -24.844 78.98 -23.015 L81.635 -23.979 L82.849 -22.287 L80.907 -20.391 Q81.669 -18.24 81.62 -15.903 Q81.571 -13.567 80.808 -11.416 L82.849 -9.421 L81.635 -7.728 L78.881 -8.791 Q77.569 -7.11 75.674 -6.142 Q73.779 -5.172 71.704 -4.755 L71.143 -1.841 H69.079 Z M75.775 -10.467 Q77.998 -12.69 77.998 -15.953 Q77.998 -19.215 75.775 -21.437 Q73.552 -23.66 70.289 -23.66 Q67.028 -23.66 64.805 -21.437 Q62.582 -19.215 62.582 -15.953 Q62.582 -12.69 64.805 -10.467 Q67.028 -8.244 70.289 -8.244 Q73.552 -8.244 75.775 -10.467 Z"/></g><g id="Ultralight-S" transform="matrix(1 0 0 1 517.792 696)"><path d="M22.486 -51.306 H72.194 Q72.539 -51.306 72.81 -51.035 Q73.081 -50.763 73.081 -50.418 Q73.081 -50.073 72.81 -49.826 Q72.539 -49.58 72.194 -49.58 H22.486 Q22.141 -49.58 21.895 -49.826 Q21.648 -50.073 21.648 -50.418 Q21.648 -50.763 21.895 -51.035 Q22.141 -51.306 22.486 -51.306 Z M31.955 -59.985 H62.726 Q63.071 -59.985 63.342 -59.714 Q63.613 -59.442 63.613 -59.097 Q63.613 -58.752 63.342 -58.505 Q63.071 -58.259 62.726 -58.259 H31.955 Q31.609 -58.259 31.363 -58.505 Q31.116 -58.752 31.116 -59.097 Q31.116 -59.442 31.363 -59.714 Q31.609 -59.985 31.955 -59.985 Z M22.93 -40.901 Q22.93 -40.901 24.656 -33.184 Q26.382 -25.466 29.292 -12.25 Q29.292 -12.25 29.292 -12.25 Q29.292 -12.25 29.292 -12.25 L22.93 -40.901 Z M46.798 -10.524 H28.108 L20.366 -42.627 H74.314 L73.673 -40.901 Q73.18 -40.901 70.936 -40.901 Q68.692 -40.901 68.051 -40.901 H22.93 L29.292 -12.25 H46.6 Q46.699 -11.708 46.699 -11.363 Q46.699 -11.018 46.798 -10.524 Z M69.284 -4.163  69.136 -6.382 Q66.818 -6.777 64.747 -7.837 Q62.676 -8.897 61.345 -10.771 L59.274 -9.735 L58.583 -10.426 L60.112 -12.053 Q59.175 -14.42 59.175 -16.935 Q59.175 -19.45 60.112 -21.817 L58.583 -23.346 L59.274 -24.135 L61.246 -23.198 Q62.479 -25.22 64.649 -26.304 Q66.818 -27.389 69.136 -27.685 L69.383 -29.904 H70.32 L70.566 -27.685 Q72.835 -27.291 75.054 -26.255 Q77.273 -25.22 78.456 -23.198 L80.429 -24.036 L81.119 -23.346 L79.689 -21.916 Q80.577 -19.549 80.527 -16.984 Q80.478 -14.42 79.59 -12.053 L81.119 -10.524 L80.429 -9.834 L78.358 -10.771 Q76.977 -8.897 74.906 -7.837 Q72.835 -6.777 70.566 -6.382 L70.221 -4.163 H69.284 Z M75.547 -11.412 Q77.815 -13.68 77.815 -17.034 Q77.815 -20.387 75.547 -22.655 Q73.278 -24.924 69.925 -24.924 Q66.572 -24.924 64.303 -22.655 Q62.035 -20.387 62.035 -17.034 Q62.035 -13.68 64.303 -11.412 Q66.572 -9.144 69.925 -9.144 Q73.278 -9.144 75.547 -11.412 Z"/></g></g></svg>