<svg xmlns="http://www.w3.org/2000/svg" version="1.1" width="3300" height="2000"><g id="Notes"><style>
    text {
      font-family: monospace;
      text-anchor: middle;
    }
    text.emphasis {
      font-weight:bold;
    }
    text.lanchor {
      text-anchor: start;
    }
  </style><rect height="2200" id="artboard" fill="white" width="3300" x="0" y="0"/><line id="" style="fill:none;stroke:black;stroke-width:0.5;" x1="263" x2="3036" y1="292" y2="292"/><text class="lanchor emphasis" transform="matrix(1 0 0 1 263 322)">Weight/Scale Variations</text><text transform="matrix(1 0 0 1 559.711 322)">Ultralight</text><text transform="matrix(1 0 0 1 856.422 322)">Thin</text><text transform="matrix(1 0 0 1 1153.13 322)">Light</text><text transform="matrix(1 0 0 1 1449.84 322)">Regular</text><text transform="matrix(1 0 0 1 1746.56 322)">Medium</text><text transform="matrix(1 0 0 1 2043.27 322)">Semibold</text><text transform="matrix(1 0 0 1 2339.98 322)">Bold</text><text transform="matrix(1 0 0 1 2636.69 322)">Heavy</text><text transform="matrix(1 0 0 1 2933.4 322)">Black</text><text id="template-version" style="text-anchor: end;" transform="matrix(1 0 0 1 3036 1933)">Template v.1.0</text><text class="lanchor" transform="matrix(1 0 0 1 263 726)">Small</text><text class="lanchor" transform="matrix(1 0 0 1 263 1156)">Medium</text><text class="lanchor" transform="matrix(1 0 0 1 263 1586)">Large</text></g><g id="Guides"><g id="H-reference" style="fill:#27AAE1;stroke:none;" transform="matrix(1 0 0 1 339 696)"><path d="M 54.9316 0 L 57.666 0 L 30.5664 -70.459 L 28.0762 -70.459 L 0.976562 0 L 3.66211 0 L 12.9395 -24.4629 L 45.7031 -24.4629 Z M 29.1992 -67.0898 L 29.4434 -67.0898 L 44.8242 -26.709 L 13.8184 -26.709 Z"/></g><line id="Baseline-S" style="fill:none;stroke:#27AAE1;opacity:1;stroke-width:0.577;" x1="263" x2="3036" y1="696" y2="696"/><line id="Capline-S" style="fill:none;stroke:#27AAE1;opacity:1;stroke-width:0.577;" x1="263" x2="3036" y1="625.541" y2="625.541"/><g id="H-reference" style="fill:#27AAE1;stroke:none;" transform="matrix(1 0 0 1 339 1126)"><path d="M 54.9316 0 L 57.666 0 L 30.5664 -70.459 L 28.0762 -70.459 L 0.976562 0 L 3.66211 0 L 12.9395 -24.4629 L 45.7031 -24.4629 Z M 29.1992 -67.0898 L 29.4434 -67.0898 L 44.8242 -26.709 L 13.8184 -26.709 Z"/></g><line id="Baseline-M" style="fill:none;stroke:#27AAE1;opacity:1;stroke-width:0.577;" x1="263" x2="3036" y1="1126" y2="1126"/><line id="Capline-M" style="fill:none;stroke:#27AAE1;opacity:1;stroke-width:0.577;" x1="263" x2="3036" y1="1055.54" y2="1055.54"/><g id="H-reference" style="fill:#27AAE1;stroke:none;" transform="matrix(1 0 0 1 339 1556)"><path d="M 54.9316 0 L 57.666 0 L 30.5664 -70.459 L 28.0762 -70.459 L 0.976562 0 L 3.66211 0 L 12.9395 -24.4629 L 45.7031 -24.4629 Z M 29.1992 -67.0898 L 29.4434 -67.0898 L 44.8242 -26.709 L 13.8184 -26.709 Z"/></g><line id="Baseline-L" style="fill:none;stroke:#27AAE1;opacity:1;stroke-width:0.577;" x1="263" x2="3036" y1="1556" y2="1556"/><line id="Capline-L" style="fill:none;stroke:#27AAE1;opacity:1;stroke-width:0.577;" x1="263" x2="3036" y1="1485.54" y2="1485.54"/><rect height="119.336" id="left-margin" style="fill:darkred;stroke:none;opacity:0.4;" width="12.4512" x="1394.06" y="1030.79"/><rect height="119.336" id="right-margin" style="fill:darkgreen;stroke:none;opacity:0.4;" width="12.4512" x="1502.5112" y="1030.79"/><rect x="1406.5112" y="1045" width="96" height="96" fill="none" stroke="blue" stroke-dasharray="5"/><rect x="1394.06" y="1030.79" width="120.9024" height="119.336" fill="none" stroke="blue"/></g><g id="Symbols"><g id="Bold-L" transform="matrix(1 0 0 1 2266 1556)"><path d="M38.7 -76.349 H116.1 Q119.325 -76.349 121.502 -74.172 Q123.679 -71.995 123.679 -68.77 Q123.679 -65.545 121.502 -63.368 Q119.325 -61.191 116.1 -61.191 H38.7 Q35.636 -61.191 33.379 -63.368 Q31.121 -65.545 31.121 -68.77 Q31.121 -71.995 33.379 -74.172 Q35.636 -76.349 38.7 -76.349 Z M51.6 -101.343 H103.2 Q106.425 -101.343 108.602 -99.085 Q110.779 -96.827 110.779 -93.602 Q110.779 -90.539 108.602 -88.281 Q106.425 -86.024 103.2 -86.024 H51.6 Q48.536 -86.024 46.279 -88.281 Q44.021 -90.539 44.021 -93.602 Q44.021 -96.827 46.279 -99.085 Q48.536 -101.343 51.6 -101.343 Z M34.83 -36.359 Q34.83 -36.359 36.926 -22.894 Q39.023 -9.43 43.054 15.403 Q43.054 15.403 43.054 15.403 Q43.054 15.403 43.054 15.403 L34.83 -36.359 Z M71.595 30.721 H30.154 L16.448 -51.516 H138.352 L135.773 -36.197 Q135.127 -36.197 129.887 -36.278 Q124.646 -36.359 118.68 -36.359 H34.83 L43.054 15.403 H69.983 Q69.66 19.273 70.063 23.143 Q70.466 27.013 71.595 30.721 Z M111.746 47.653  110.779 39.268 Q107.715 38.461 105.054 36.849 Q102.394 35.236 100.136 33.14 L92.719 36.526 L85.624 25.239 L92.235 19.918 Q91.267 17.015 91.267 14.032 Q91.267 11.049 92.235 7.985 L85.624 2.825 L92.719 -8.624 L100.136 -5.237 Q102.394 -7.172 105.054 -8.785 Q107.715 -10.397 110.779 -11.204 L111.746 -19.589 H124.485 L125.614 -11.204 Q128.678 -10.397 131.419 -8.785 Q134.16 -7.172 136.417 -5.237 L143.674 -8.624 L150.93 2.825 L144.157 7.985 Q145.125 11.049 145.125 14.032 Q145.125 17.015 144.157 19.918 L150.93 25.239 L143.674 36.526 L136.417 33.14 Q134.16 35.236 131.419 36.849 Q128.678 38.461 125.614 39.268 L124.485 47.653 H111.746 Z M129.161 24.997 Q133.676 20.401 133.676 13.951 Q133.676 7.501 129.161 2.986 Q124.646 -1.529 118.196 -1.529 Q111.746 -1.529 107.151 2.986 Q102.555 7.501 102.555 13.951 Q102.555 20.401 107.151 24.997 Q111.746 29.593 118.196 29.593 Q124.646 29.593 129.161 24.997 Z"/></g><g id="Semibold-L" transform="matrix(1 0 0 1 1970.27 1556)"><path d="M38.7 -75.297 H116.1 Q118.835 -75.297 120.66 -73.47 Q122.487 -71.645 122.487 -68.91 Q122.487 -66.246 120.66 -64.384 Q118.835 -62.523 116.1 -62.523 H38.7 Q36.126 -62.523 34.22 -64.384 Q32.313 -66.246 32.313 -68.91 Q32.313 -71.645 34.22 -73.47 Q36.126 -75.297 38.7 -75.297 Z M51.6 -97.837 H103.2 Q105.935 -97.837 107.76 -95.965 Q109.587 -94.093 109.587 -91.36 Q109.587 -88.786 107.76 -86.878 Q105.935 -84.972 103.2 -84.972 H51.6 Q49.026 -84.972 47.12 -86.878 Q45.213 -88.786 45.213 -91.36 Q45.213 -94.093 47.12 -95.965 Q49.026 -97.837 51.6 -97.837 Z M33.218 -40.074 Q33.218 -40.074 35.419 -26.048 Q37.62 -12.025 41.862 14.42 Q41.862 14.42 41.862 14.42 Q41.862 14.42 41.862 14.42 L33.218 -40.074 Z M74.33 27.287 H31.065 L17.71 -52.848 H137.09 L134.931 -39.984 Q134.286 -39.984 129.116 -40.029 Q123.945 -40.074 118.54 -40.074 H33.218 L41.862 14.42 H71.664 Q71.834 17.8 72.482 21.004 Q73.13 24.208 74.33 27.287 Z M111.956 40.922  111.059 32.818 Q107.855 31.942 105.019 30.258 Q102.184 28.577 99.786 26.34 L92.649 29.655 L86.185 19.49 L92.585 14.379 Q91.617 11.336 91.617 8.143 Q91.617 4.95 92.585 1.816 L86.185 -3.204 L92.649 -13.531 L99.786 -10.215 Q102.253 -12.291 105.054 -13.972 Q107.855 -15.656 111.059 -16.531 L111.956 -24.707 H123.363 L124.422 -16.531 Q127.626 -15.656 130.472 -13.972 Q133.318 -12.291 135.787 -10.215 L142.832 -13.531 L149.388 -3.204 L142.895 1.816 Q143.862 4.95 143.862 8.143 Q143.862 11.336 142.895 14.379 L149.388 19.49 L142.832 29.655 L135.787 26.34 Q133.389 28.577 130.508 30.258 Q127.626 31.942 124.422 32.818 L123.363 40.922 H111.956 Z M128.952 19.353 Q133.607 14.653 133.607 8.062 Q133.607 1.472 128.952 -3.183 Q124.296 -7.838 117.706 -7.838 Q111.116 -7.838 106.415 -3.183 Q101.713 1.472 101.713 8.062 Q101.713 14.653 106.415 19.353 Q111.116 24.054 117.706 24.054 Q124.296 24.054 128.952 19.353 Z"/></g><g id="Medium-L" transform="matrix(1 0 0 1 1674.31 1556)"><path d="M38.7 -74.509 H116.1 Q118.466 -74.509 120.03 -72.945 Q121.594 -71.382 121.594 -69.015 Q121.594 -66.772 120.03 -65.147 Q118.466 -63.523 116.1 -63.523 H38.7 Q36.496 -63.523 34.851 -65.147 Q33.206 -66.772 33.206 -69.015 Q33.206 -71.382 34.851 -72.945 Q36.496 -74.509 38.7 -74.509 Z M51.6 -95.209 H103.2 Q105.566 -95.209 107.13 -93.625 Q108.694 -92.043 108.694 -89.676 Q108.694 -87.472 107.13 -85.827 Q105.566 -84.184 103.2 -84.184 H51.6 Q49.396 -84.184 47.751 -85.827 Q46.106 -87.472 46.106 -89.676 Q46.106 -92.043 47.751 -93.625 Q49.396 -95.209 51.6 -95.209 Z M32.008 -42.862 Q32.008 -42.862 34.288 -28.416 Q36.568 -13.969 40.969 13.685 Q40.969 13.685 40.969 13.685 Q40.969 13.685 40.969 13.685 L32.008 -42.862 Z M76.379 24.71 H31.749 L18.657 -53.848 H136.143 L134.3 -42.823 Q133.655 -42.823 128.537 -42.843 Q123.419 -42.862 118.435 -42.862 H32.008 L40.969 13.685 H72.927 Q73.464 16.696 74.296 19.4 Q75.128 22.106 76.379 24.71 Z M112.114 35.875  111.269 27.98 Q107.96 27.051 104.993 25.316 Q102.026 23.581 99.524 21.24 L92.596 24.503 L86.606 15.178 L92.848 10.225 Q91.88 7.077 91.88 3.726 Q91.88 0.374 92.848 -2.812 L86.606 -7.726 L92.596 -17.212 L99.524 -13.948 Q102.149 -16.128 105.054 -17.863 Q107.96 -19.598 111.269 -20.529 L112.114 -28.545 H122.523 L123.529 -20.529 Q126.838 -19.598 129.763 -17.863 Q132.688 -16.128 135.313 -13.948 L142.202 -17.212 L148.231 -7.726 L141.948 -2.812 Q142.916 0.374 142.916 3.726 Q142.916 7.077 141.948 10.225 L148.231 15.178 L142.202 24.503 L135.313 21.24 Q132.81 23.581 129.824 25.316 Q126.838 27.051 123.529 27.98 L122.523 35.875 H112.114 Z M128.794 15.12 Q133.554 10.341 133.554 3.646 Q133.554 -3.049 128.794 -7.811 Q124.034 -12.571 117.337 -12.571 Q110.642 -12.571 105.862 -7.811 Q101.083 -3.049 101.083 3.646 Q101.083 10.341 105.862 15.12 Q110.642 19.9 117.337 19.9 Q124.034 19.9 128.794 15.12 Z"/></g><g id="Regular-L" transform="matrix(1 0 0 1 1378.56 1556)"><path d="M38.7 -73.93 H116.1 Q118.196 -73.93 119.567 -72.559 Q120.938 -71.189 120.938 -69.092 Q120.938 -67.157 119.567 -65.706 Q118.196 -64.255 116.1 -64.255 H38.7 Q36.765 -64.255 35.314 -65.706 Q33.863 -67.157 33.863 -69.092 Q33.863 -71.189 35.314 -72.559 Q36.765 -73.93 38.7 -73.93 Z M51.6 -93.28 H103.2 Q105.296 -93.28 106.667 -91.909 Q108.038 -90.539 108.038 -88.442 Q108.038 -86.507 106.667 -85.056 Q105.296 -83.605 103.2 -83.605 H51.6 Q49.665 -83.605 48.214 -85.056 Q46.763 -86.507 46.763 -88.442 Q46.763 -90.539 48.214 -91.909 Q49.665 -93.28 51.6 -93.28 Z M31.121 -44.905 Q31.121 -44.905 33.459 -30.151 Q35.797 -15.396 40.312 13.145 Q40.312 13.145 40.312 13.145 Q40.312 13.145 40.312 13.145 L31.121 -44.905 Z M77.884 22.82 H32.25 L19.35 -54.58 H135.45 L133.838 -44.905 Q133.192 -44.905 128.113 -44.905 Q123.034 -44.905 118.358 -44.905 H31.121 L40.312 13.145 H73.853 Q74.659 15.886 75.626 18.224 Q76.594 20.563 77.884 22.82 Z M112.23 32.173  111.424 24.433 Q108.038 23.465 104.974 21.691 Q101.91 19.918 99.33 17.499 L92.558 20.724 L86.914 12.016 L93.041 7.179 Q92.074 3.954 92.074 0.487 Q92.074 -2.98 93.041 -6.205 L86.914 -11.042 L92.558 -19.911 L99.33 -16.686 Q102.071 -18.944 105.054 -20.717 Q108.038 -22.491 111.424 -23.459 L112.23 -31.36 H121.905 L122.873 -23.459 Q126.259 -22.491 129.242 -20.717 Q132.225 -18.944 134.966 -16.686 L141.739 -19.911 L147.382 -11.042 L141.255 -6.205 Q142.222 -2.98 142.222 0.487 Q142.222 3.954 141.255 7.179 L147.382 12.016 L141.739 20.724 L134.966 17.499 Q132.386 19.918 129.322 21.691 Q126.259 23.465 122.873 24.433 L121.905 32.173 H112.23 Z M128.678 12.016 Q133.515 7.179 133.515 0.406 Q133.515 -6.366 128.678 -11.204 Q123.84 -16.041 117.068 -16.041 Q110.295 -16.041 105.457 -11.204 Q100.62 -6.366 100.62 0.406 Q100.62 7.179 105.457 12.016 Q110.295 16.854 117.068 16.854 Q123.84 16.854 128.678 12.016 Z"/></g><g id="Light-L" transform="matrix(1 0 0 1 1082.77 1556)"><path d="M38.7 -70.705 H116.1 Q117.7 -70.705 118.73 -69.675 Q119.759 -68.646 119.759 -67.046 Q119.759 -65.545 118.73 -64.466 Q117.7 -63.386 116.1 -63.386 H38.7 Q37.199 -63.386 36.12 -64.466 Q35.041 -65.545 35.041 -67.046 Q35.041 -68.646 36.12 -69.675 Q37.199 -70.705 38.7 -70.705 Z M51.6 -88.07 H103.2 Q104.8 -88.07 105.83 -87.041 Q106.859 -86.011 106.859 -84.411 Q106.859 -82.91 105.83 -81.831 Q104.8 -80.752 103.2 -80.752 H51.6 Q50.099 -80.752 49.02 -81.831 Q47.941 -82.91 47.941 -84.411 Q47.941 -86.011 49.02 -87.041 Q50.099 -88.07 51.6 -88.07 Z M32.113 -46.021 Q32.113 -46.021 34.39 -31.639 Q36.667 -17.257 41.057 10.292 Q41.057 10.292 41.057 10.292 Q41.057 10.292 41.057 10.292 L32.113 -46.021 Z M76.829 17.61 H34.978 L23.133 -53.34 H131.667 L130.425 -46.021 Q129.843 -46.021 125.043 -46.021 Q120.243 -46.021 116.435 -46.021 H32.113 L41.057 10.292 H73.791 Q74.41 12.352 75.13 14.13 Q75.849 15.91 76.829 17.61 Z M112.291 26.342  111.796 20.09 Q108.223 19.185 105.035 17.412 Q101.849 15.638 99.33 12.971 L93.798 15.762 L89.457 9.288 L94.405 5.381 Q93.252 1.845 93.252 -1.901 Q93.252 -5.647 94.405 -9.182 L89.457 -13.089 L93.798 -19.663 L99.33 -16.872 Q101.886 -19.44 105.054 -21.214 Q108.223 -22.988 111.796 -23.831 L112.291 -30.244 H119.61 L120.205 -23.831 Q123.777 -22.988 126.947 -21.214 Q130.116 -19.44 132.672 -16.872 L138.141 -19.663 L142.545 -13.089 L137.533 -9.182 Q138.688 -5.647 138.688 -1.901 Q138.688 1.845 137.533 5.381 L142.545 9.288 L138.141 15.762 L132.672 12.971 Q130.153 15.638 126.965 17.412 Q123.777 19.185 120.205 20.09 L119.61 26.342 H112.291 Z M127.22 9.38 Q131.903 4.697 131.903 -1.951 Q131.903 -8.6 127.22 -13.282 Q122.537 -17.963 115.919 -17.963 Q109.303 -17.963 104.621 -13.282 Q99.938 -8.6 99.938 -1.951 Q99.938 4.697 104.621 9.38 Q109.303 14.063 115.919 14.063 Q122.537 14.063 127.22 9.38 Z"/></g><g id="Thin-L" transform="matrix(1 0 0 1 787.282 1556)"><path d="M38.7 -67.48 H116.1 Q117.205 -67.48 117.893 -66.791 Q118.58 -66.103 118.58 -65 Q118.58 -63.932 117.893 -63.226 Q117.205 -62.518 116.1 -62.518 H38.7 Q37.633 -62.518 36.926 -63.226 Q36.22 -63.932 36.22 -65 Q36.22 -66.103 36.926 -66.791 Q37.633 -67.48 38.7 -67.48 Z M51.6 -82.862 H103.2 Q104.305 -82.862 104.993 -82.173 Q105.68 -81.485 105.68 -80.38 Q105.68 -79.313 104.993 -78.606 Q104.305 -77.9 103.2 -77.9 H51.6 Q50.533 -77.9 49.826 -78.606 Q49.12 -79.313 49.12 -80.38 Q49.12 -81.485 49.826 -82.173 Q50.533 -82.862 51.6 -82.862 Z M33.106 -47.138 Q33.106 -47.138 35.32 -33.127 Q37.534 -19.118 41.801 7.44 Q41.801 7.44 41.801 7.44 Q41.801 7.44 41.801 7.44 L33.106 -47.138 Z M75.775 12.402 H37.708 L26.916 -52.1 H127.884 L127.015 -47.138 Q126.494 -47.138 121.973 -47.138 Q117.451 -47.138 114.512 -47.138 H33.106 L41.801 7.44 H73.728 Q74.162 8.815 74.635 10.038 Q75.105 11.26 75.775 12.402 Z M112.354 20.513  112.169 15.749 Q108.41 14.906 105.098 13.132 Q101.786 11.358 99.33 8.445 L95.038 10.8 L92 6.558 L95.77 3.581 Q94.431 -0.263 94.431 -4.289 Q94.431 -8.314 95.77 -12.158 L92 -15.135 L95.038 -19.415 L99.33 -17.059 Q101.699 -19.935 105.054 -21.709 Q108.41 -23.483 112.169 -24.204 L112.354 -29.127 H117.316 L117.538 -24.204 Q121.297 -23.483 124.653 -21.709 Q128.008 -19.935 130.377 -17.059 L134.544 -19.415 L137.708 -15.135 L133.813 -12.158 Q135.152 -8.314 135.152 -4.289 Q135.152 -0.263 133.813 3.581 L137.708 6.558 L134.544 10.8 L130.377 8.445 Q127.921 11.358 124.609 13.132 Q121.297 14.906 117.538 15.749 L117.316 20.513 H112.354 Z M125.762 6.745 Q130.29 2.217 130.29 -4.307 Q130.29 -10.831 125.762 -15.359 Q121.236 -19.887 114.773 -19.887 Q108.31 -19.887 103.784 -15.359 Q99.256 -10.831 99.256 -4.307 Q99.256 2.217 103.784 6.745 Q108.31 11.271 114.773 11.271 Q121.236 11.271 125.762 6.745 Z"/></g><g id="Ultralight-L" transform="matrix(1 0 0 1 491.205 1556)"><path d="M38.7 -65.545 H116.1 Q116.906 -65.545 117.39 -65.061 Q117.874 -64.577 117.874 -63.771 Q117.874 -62.965 117.39 -62.481 Q116.906 -61.997 116.1 -61.997 H38.7 Q37.894 -61.997 37.41 -62.481 Q36.926 -62.965 36.926 -63.771 Q36.926 -64.577 37.41 -65.061 Q37.894 -65.545 38.7 -65.545 Z M51.6 -79.735 H103.2 Q104.006 -79.735 104.49 -79.251 Q104.974 -78.767 104.974 -77.961 Q104.974 -77.155 104.49 -76.671 Q104.006 -76.187 103.2 -76.187 H51.6 Q50.794 -76.187 50.31 -76.671 Q49.826 -77.155 49.826 -77.961 Q49.826 -78.767 50.31 -79.251 Q50.794 -79.735 51.6 -79.735 Z M33.701 -47.807 Q33.701 -47.807 35.878 -34.021 Q38.055 -20.234 42.248 5.728 Q42.248 5.728 42.248 5.728 Q42.248 5.728 42.248 5.728 L33.701 -47.807 Z M75.142 9.275 H39.345 L29.186 -51.355 H125.614 L124.969 -47.807 Q124.485 -47.807 120.131 -47.807 Q115.778 -47.807 113.359 -47.807 H33.701 L42.248 5.728 H73.691 Q74.014 6.695 74.336 7.582 Q74.659 8.469 75.142 9.275 Z M112.391 17.015 V13.145 Q108.521 12.339 105.135 10.565 Q101.749 8.791 99.33 5.728 L95.782 7.824 L93.525 4.921 L96.589 2.503 Q95.138 -1.529 95.138 -5.721 Q95.138 -9.914 96.589 -13.945 L93.525 -16.364 L95.782 -19.266 L99.33 -17.17 Q101.588 -20.234 105.054 -22.007 Q108.521 -23.781 112.391 -24.426 V-28.457 H115.939 V-24.426 Q119.809 -23.781 123.276 -22.007 Q126.743 -20.234 129 -17.17 L132.386 -19.266 L134.805 -16.364 L131.58 -13.945 Q133.031 -9.914 133.031 -5.721 Q133.031 -1.529 131.58 2.503 L134.805 4.921 L132.386 7.824 L129 5.728 Q126.581 8.791 123.195 10.565 Q119.809 12.339 115.939 13.145 V17.015 H112.391 Z M124.888 5.163 Q129.322 0.729 129.322 -5.721 Q129.322 -12.171 124.888 -16.606 Q120.454 -21.04 114.084 -21.04 Q107.715 -21.04 103.281 -16.606 Q98.846 -12.171 98.846 -5.721 Q98.846 0.729 103.281 5.163 Q107.715 9.598 114.084 9.598 Q120.454 9.598 124.888 5.163 Z"/></g><g id="Bold-M" transform="matrix(1 0 0 1 2281.8 1126)"><path d="M30 -67.73 H90 Q93.25 -67.73 95.562 -65.417 Q97.875 -63.105 97.875 -59.855 Q97.875 -56.605 95.562 -54.292 Q93.25 -51.98 90 -51.98 H30 Q26.75 -51.98 24.438 -54.292 Q22.125 -56.605 22.125 -59.855 Q22.125 -63.105 24.438 -65.417 Q26.75 -67.73 30 -67.73 Z M40 -88.48 H80 Q83.25 -88.48 85.562 -86.167 Q87.875 -83.855 87.875 -80.605 Q87.875 -77.355 85.562 -75.042 Q83.25 -72.73 80 -72.73 H40 Q36.75 -72.73 34.438 -75.042 Q32.125 -77.355 32.125 -80.605 Q32.125 -83.855 34.438 -86.167 Q36.75 -88.48 40 -88.48 Z M30.75 -31.355 Q30.75 -31.355 32.25 -21.917 Q33.75 -12.48 36.125 2.145 Q36.125 2.145 36.125 2.145 Q36.125 2.145 36.125 2.145 L30.75 -31.355 Z M52.625 17.895 H22.875 L12 -47.105 H108 L105.25 -31.23 Q104.875 -31.23 100.875 -31.292 Q96.875 -31.355 92.125 -31.355 H30.75 L36.125 2.145 H52.125 Q51.5 6.145 51.562 10.083 Q51.625 14.02 52.625 17.895 Z M85.375 35.895  83.75 27.77 Q82.625 27.395 81.625 26.77 Q80.625 26.145 79.625 25.52 L71.75 28.02 L65.25 16.77 L71.5 11.395 Q71.25 10.145 71.25 8.895 Q71.25 7.645 71.5 6.395 L65.25 1.02 L71.75 -10.105 L79.625 -7.73 Q80.625 -8.355 81.625 -8.917 Q82.625 -9.48 83.75 -9.855 L85.375 -17.98 H98.5 L100.25 -9.855 Q101.375 -9.48 102.375 -8.917 Q103.375 -8.355 104.375 -7.73 L112.125 -10.105 L118.75 1.02 L112.375 6.395 Q112.625 7.645 112.625 8.895 Q112.625 10.145 112.375 11.395 L118.75 16.77 L112.125 28.02 L104.375 25.52 Q103.375 26.145 102.375 26.77 Q101.375 27.395 100.25 27.77 L98.5 35.895 H85.375 Z M98.375 15.333 Q101 12.645 101 8.895 Q101 5.145 98.375 2.52 Q95.75 -0.105 92 -0.105 Q88.25 -0.105 85.562 2.52 Q82.875 5.145 82.875 8.895 Q82.875 12.645 85.562 15.333 Q88.25 18.02 92 18.02 Q95.75 18.02 98.375 15.333 Z"/></g><g id="Semibold-M" transform="matrix(1 0 0 1 1985.97 1126)"><path d="M30 -66.642 H90 Q92.761 -66.642 94.692 -64.711 Q96.625 -62.779 96.625 -60.017 Q96.625 -57.257 94.692 -55.325 Q92.761 -53.392 90 -53.392 H30 Q27.239 -53.392 25.308 -55.325 Q23.375 -57.257 23.375 -60.017 Q23.375 -62.779 25.308 -64.711 Q27.239 -66.642 30 -66.642 Z M40 -84.894 H80 Q82.761 -84.894 84.692 -82.961 Q86.625 -81.029 86.625 -78.269 Q86.625 -75.507 84.692 -73.575 Q82.761 -71.642 80 -71.642 H40 Q37.239 -71.642 35.307 -73.575 Q33.375 -75.507 33.375 -78.269 Q33.375 -81.029 35.307 -82.961 Q37.239 -84.894 40 -84.894 Z M29.12 -35.214 Q29.12 -35.214 30.729 -25.205 Q32.337 -15.197 34.93 1.113 Q34.93 1.113 34.93 1.113 Q34.93 1.113 34.93 1.113 L29.12 -35.214 Z M55.451 14.363 H23.799 L13.304 -48.464 H106.696 L104.38 -35.142 Q104.005 -35.142 100.088 -35.177 Q96.169 -35.214 92.016 -35.214 H29.12 L34.93 1.113 H53.864 Q53.674 4.569 54.062 7.881 Q54.451 11.194 55.451 14.363 Z M85.593 28.939  84.021 21.086 Q82.734 20.603 81.597 19.95 Q80.463 19.298 79.299 18.51 L71.696 20.901 L65.847 10.846 L71.88 5.635 Q71.63 4.221 71.63 2.809 Q71.63 1.395 71.88 -0.017 L65.847 -5.23 L71.696 -15.214 L79.299 -12.892 Q80.463 -13.681 81.597 -14.297 Q82.734 -14.915 84.021 -15.397 L85.593 -23.251 H97.359 L99 -15.397 Q100.287 -14.915 101.424 -14.297 Q102.56 -13.681 103.722 -12.892 L111.255 -15.214 L117.174 -5.23 L111.071 -0.017 Q111.321 1.395 111.321 2.809 Q111.321 4.221 111.071 5.635 L117.174 10.846 L111.255 20.901 L103.722 18.51 Q102.56 19.298 101.424 19.95 Q100.287 20.603 99 21.086 L97.359 28.939 H85.593 Z M98.185 9.518 Q100.946 6.721 100.946 2.809 Q100.946 -1.105 98.185 -3.865 Q95.424 -6.626 91.511 -6.626 Q87.597 -6.626 84.801 -3.865 Q82.005 -1.105 82.005 2.809 Q82.005 6.721 84.801 9.518 Q87.597 12.314 91.511 12.314 Q95.424 12.314 98.185 9.518 Z"/></g><g id="Medium-M" transform="matrix(1 0 0 1 1689.91 1126)"><path d="M30 -65.827 H90 Q92.394 -65.827 94.041 -64.181 Q95.688 -62.534 95.688 -60.14 Q95.688 -57.746 94.041 -56.1 Q92.394 -54.452 90 -54.452 H30 Q27.606 -54.452 25.959 -56.1 Q24.312 -57.746 24.312 -60.14 Q24.312 -62.534 25.959 -64.181 Q27.606 -65.827 30 -65.827 Z M40 -82.202 H80 Q82.394 -82.202 84.041 -80.556 Q85.688 -78.91 85.688 -76.515 Q85.688 -74.121 84.041 -72.475 Q82.394 -70.827 80 -70.827 H40 Q37.606 -70.827 35.959 -72.475 Q34.312 -74.121 34.312 -76.515 Q34.312 -78.91 35.959 -80.556 Q37.606 -82.202 40 -82.202 Z M27.896 -38.107 Q27.896 -38.107 29.587 -27.671 Q31.277 -17.235 34.032 0.338 Q34.032 0.338 34.032 0.338 Q34.032 0.338 34.032 0.338 L27.896 -38.107 Z M57.57 11.713 H24.491 L14.283 -49.482 H105.718 L103.729 -38.077 Q103.354 -38.077 99.496 -38.092 Q95.639 -38.107 91.935 -38.107 H27.896 L34.032 0.338 H55.169 Q55.304 3.386 55.938 6.23 Q56.57 9.075 57.57 11.713 Z M85.755 23.721  84.225 16.071 Q82.815 15.506 81.578 14.834 Q80.34 14.161 79.054 13.251 L71.655 15.561 L66.296 6.404 L72.166 1.314 Q71.916 -0.221 71.916 -1.757 Q71.916 -3.292 72.166 -4.827 L66.296 -9.917 L71.655 -19.045 L79.054 -16.765 Q80.34 -17.675 81.578 -18.334 Q82.815 -18.991 84.225 -19.556 L85.755 -27.205 H96.502 L98.062 -19.556 Q99.472 -18.991 100.71 -18.334 Q101.949 -17.675 103.234 -16.765 L110.604 -19.045 L115.991 -9.917 L110.093 -4.827 Q110.343 -3.292 110.343 -1.757 Q110.343 -0.221 110.093 1.314 L115.991 6.404 L110.604 15.561 L103.234 13.251 Q101.949 14.161 100.71 14.834 Q99.472 15.506 98.062 16.071 L96.502 23.721 H85.755 Z M98.043 5.156 Q100.905 2.279 100.905 -1.757 Q100.905 -5.792 98.043 -8.655 Q95.179 -11.517 91.144 -11.517 Q87.109 -11.517 84.231 -8.655 Q81.354 -5.792 81.354 -1.757 Q81.354 2.279 84.231 5.156 Q87.109 8.034 91.144 8.034 Q95.179 8.034 98.043 5.156 Z"/></g><g id="Regular-M" transform="matrix(1 0 0 1 1394.06 1126)"><path d="M30 -65.23 H90 Q92.125 -65.23 93.562 -63.792 Q95 -62.355 95 -60.23 Q95 -58.105 93.562 -56.667 Q92.125 -55.23 90 -55.23 H30 Q27.875 -55.23 26.438 -56.667 Q25 -58.105 25 -60.23 Q25 -62.355 26.438 -63.792 Q27.875 -65.23 30 -65.23 Z M40 -80.23 H80 Q82.125 -80.23 83.562 -78.792 Q85 -77.355 85 -75.23 Q85 -73.105 83.562 -71.667 Q82.125 -70.23 80 -70.23 H40 Q37.875 -70.23 36.438 -71.667 Q35 -73.105 35 -75.23 Q35 -77.355 36.438 -78.792 Q37.875 -80.23 40 -80.23 Z M27 -40.23 Q27 -40.23 28.75 -29.48 Q30.5 -18.73 33.375 -0.23 Q33.375 -0.23 33.375 -0.23 Q33.375 -0.23 33.375 -0.23 L27 -40.23 Z M59.125 9.77 H25 L15 -50.23 H105 L103.25 -40.23 Q102.875 -40.23 99.062 -40.23 Q95.25 -40.23 91.875 -40.23 H27 L33.375 -0.23 H56.125 Q56.5 2.52 57.312 5.02 Q58.125 7.52 59.125 9.77 Z M85.875 19.895  84.375 12.395 Q82.875 11.77 81.562 11.083 Q80.25 10.395 78.875 9.395 L71.625 11.645 L66.625 3.145 L72.375 -1.855 Q72.125 -3.48 72.125 -5.105 Q72.125 -6.73 72.375 -8.355 L66.625 -13.355 L71.625 -21.855 L78.875 -19.605 Q80.25 -20.605 81.562 -21.292 Q82.875 -21.98 84.375 -22.605 L85.875 -30.105 H95.875 L97.375 -22.605 Q98.875 -21.98 100.188 -21.292 Q101.5 -20.605 102.875 -19.605 L110.125 -21.855 L115.125 -13.355 L109.375 -8.355 Q109.625 -6.73 109.625 -5.105 Q109.625 -3.48 109.375 -1.855 L115.125 3.145 L110.125 11.645 L102.875 9.395 Q101.5 10.395 100.188 11.083 Q98.875 11.77 97.375 12.395 L95.875 19.895 H85.875 Z M97.938 1.958 Q100.875 -0.98 100.875 -5.105 Q100.875 -9.23 97.938 -12.167 Q95 -15.105 90.875 -15.105 Q86.75 -15.105 83.812 -12.167 Q80.875 -9.23 80.875 -5.105 Q80.875 -0.98 83.812 1.958 Q86.75 4.895 90.875 4.895 Q95 4.895 97.938 1.958 Z"/></g><g id="Light-M" transform="matrix(1 0 0 1 1098.18 1126)"><path d="M30 -62.73 H90 Q91.596 -62.73 92.672 -61.652 Q93.75 -60.576 93.75 -58.98 Q93.75 -57.384 92.672 -56.307 Q91.596 -55.23 90 -55.23 H30 Q28.404 -55.23 27.328 -56.307 Q26.25 -57.384 26.25 -58.98 Q26.25 -60.576 27.328 -61.652 Q28.404 -62.73 30 -62.73 Z M40 -76.191 H80 Q81.596 -76.191 82.672 -75.114 Q83.75 -74.037 83.75 -72.441 Q83.75 -70.845 82.672 -69.769 Q81.596 -68.691 80 -68.691 H40 Q38.404 -68.691 37.328 -69.769 Q36.25 -70.845 36.25 -72.441 Q36.25 -74.037 37.328 -75.114 Q38.404 -76.191 40 -76.191 Z M27 -41.769 Q27 -41.769 28.726 -31.115 Q30.453 -20.461 33.375 -1.769 Q33.375 -1.769 33.375 -1.769 Q33.375 -1.769 33.375 -1.769 L27 -41.769 Z M58.644 5.731 H27.115 L17.933 -49.269 H102.067 L100.75 -41.769 Q100.375 -41.769 96.755 -41.769 Q93.135 -41.769 90.336 -41.769 H27 L33.375 -1.769 H56.365 Q56.693 0.309 57.289 2.159 Q57.885 4.01 58.644 5.731 Z M86.211 14.606  85.192 8.645 Q83.26 8.068 81.562 7.188 Q79.865 6.309 78.346 4.875 L72.635 6.838 L68.789 0.549 L73.385 -3.394 Q72.846 -5.5 72.846 -7.605 Q72.846 -9.711 73.385 -11.816 L68.789 -15.759 L72.635 -22.047 L78.346 -20.086 Q79.817 -21.519 81.539 -22.399 Q83.26 -23.279 85.192 -23.855 L86.211 -29.816 H93.711 L94.73 -23.855 Q96.664 -23.279 98.385 -22.399 Q100.106 -21.519 101.576 -20.086 L107.289 -22.047 L111.134 -15.759 L106.539 -11.816 Q107.076 -9.711 107.076 -7.605 Q107.076 -5.5 106.539 -3.394 L111.134 0.549 L107.289 6.838 L101.576 4.875 Q100.058 6.309 98.36 7.188 Q96.664 8.068 94.73 8.645 L93.711 14.606 H86.211 Z M97.312 -0.254 Q100.346 -3.287 100.346 -7.605 Q100.346 -11.922 97.312 -14.956 Q94.279 -17.99 89.961 -17.99 Q85.644 -17.99 82.61 -14.956 Q79.576 -11.922 79.576 -7.605 Q79.576 -3.287 82.61 -0.254 Q85.644 2.78 89.961 2.78 Q94.279 2.78 97.312 -0.254 Z"/></g><g id="Thin-M" transform="matrix(1 0 0 1 802.565 1126)"><path d="M30 -60.23 H90 Q91.067 -60.23 91.784 -59.514 Q92.5 -58.797 92.5 -57.73 Q92.5 -56.662 91.784 -55.946 Q91.067 -55.23 90 -55.23 H30 Q28.933 -55.23 28.216 -55.946 Q27.5 -56.662 27.5 -57.73 Q27.5 -58.797 28.216 -59.514 Q28.933 -60.23 30 -60.23 Z M40 -72.154 H80 Q81.067 -72.154 81.784 -71.436 Q82.5 -70.72 82.5 -69.652 Q82.5 -68.586 81.784 -67.87 Q81.067 -67.152 80 -67.152 H40 Q38.932 -67.152 38.216 -67.87 Q37.5 -68.586 37.5 -69.652 Q37.5 -70.72 38.216 -71.436 Q38.932 -72.154 40 -72.154 Z M27 -43.307 Q27 -43.307 28.703 -32.749 Q30.404 -22.191 33.375 -3.307 Q33.375 -3.307 33.375 -3.307 Q33.375 -3.307 33.375 -3.307 L27 -43.307 Z M58.164 1.694 H29.231 L20.865 -48.307 H99.135 L98.25 -43.307 Q97.875 -43.307 94.448 -43.307 Q91.019 -43.307 88.797 -43.307 H27 L33.375 -3.307 H56.606 Q56.885 -1.902 57.265 -0.701 Q57.644 0.501 58.164 1.694 Z M86.547 9.319  86.01 4.895 Q83.644 4.366 81.562 3.294 Q79.481 2.223 77.817 0.356 L73.644 2.03 L70.953 -2.047 L74.394 -4.932 Q73.567 -7.519 73.567 -10.105 Q73.567 -12.691 74.394 -15.277 L70.953 -18.162 L73.644 -22.24 L77.817 -20.566 Q79.385 -22.432 81.515 -23.504 Q83.644 -24.576 86.01 -25.105 L86.547 -29.527 H91.547 L92.086 -25.105 Q94.453 -24.576 96.581 -23.504 Q98.711 -22.432 100.279 -20.566 L104.453 -22.24 L107.144 -18.162 L103.703 -15.277 Q104.529 -12.691 104.529 -10.105 Q104.529 -7.519 103.703 -4.932 L107.144 -2.047 L104.453 2.03 L100.279 0.356 Q98.615 2.223 96.534 3.294 Q94.453 4.366 92.086 4.895 L91.547 9.319 H86.547 Z M96.688 -2.465 Q99.817 -5.595 99.817 -10.105 Q99.817 -14.615 96.688 -17.745 Q93.558 -20.874 89.047 -20.874 Q84.539 -20.874 81.409 -17.745 Q78.279 -14.615 78.279 -10.105 Q78.279 -5.595 81.409 -2.465 Q84.539 0.664 89.047 0.664 Q93.558 0.664 96.688 -2.465 Z"/></g><g id="Ultralight-M" transform="matrix(1 0 0 1 506.415 1126)"><path d="M30 -58.73 H90 Q90.75 -58.73 91.25 -58.23 Q91.75 -57.73 91.75 -56.98 Q91.75 -56.23 91.25 -55.73 Q90.75 -55.23 90 -55.23 H30 Q29.25 -55.23 28.75 -55.73 Q28.25 -56.23 28.25 -56.98 Q28.25 -57.73 28.75 -58.23 Q29.25 -58.73 30 -58.73 Z M40 -69.73 H80 Q80.75 -69.73 81.25 -69.23 Q81.75 -68.73 81.75 -67.98 Q81.75 -67.23 81.25 -66.73 Q80.75 -66.23 80 -66.23 H40 Q39.25 -66.23 38.75 -66.73 Q38.25 -67.23 38.25 -67.98 Q38.25 -68.73 38.75 -69.23 Q39.25 -69.73 40 -69.73 Z M27 -44.23 Q27 -44.23 28.688 -33.73 Q30.375 -23.23 33.375 -4.23 Q33.375 -4.23 33.375 -4.23 Q33.375 -4.23 33.375 -4.23 L27 -44.23 Z M57.875 -0.73 H30.5 L22.625 -47.73 H97.375 L96.75 -44.23 Q96.375 -44.23 93.062 -44.23 Q89.75 -44.23 87.875 -44.23 H27 L33.375 -4.23 H56.75 Q57 -3.23 57.25 -2.417 Q57.5 -1.605 57.875 -0.73 Z M86.75 6.145  86.5 2.645 Q83.875 2.145 81.562 0.958 Q79.25 -0.23 77.5 -2.355 L74.25 -0.855 L72.25 -3.605 L75 -5.855 Q74 -8.73 74 -11.605 Q74 -14.48 75 -17.355 L72.25 -19.605 L74.25 -22.355 L77.5 -20.855 Q79.125 -22.98 81.5 -24.167 Q83.875 -25.355 86.5 -25.855 L86.75 -29.355 H90.25 L90.5 -25.855 Q93.125 -25.355 95.5 -24.167 Q97.875 -22.98 99.5 -20.855 L102.75 -22.355 L104.75 -19.605 L102 -17.355 Q103 -14.48 103 -11.605 Q103 -8.73 102 -5.855 L104.75 -3.605 L102.75 -0.855 L99.5 -2.355 Q97.75 -0.23 95.438 0.958 Q93.125 2.145 90.5 2.645 L90.25 6.145 H86.75 Z M96.312 -3.792 Q99.5 -6.98 99.5 -11.605 Q99.5 -16.23 96.312 -19.417 Q93.125 -22.605 88.5 -22.605 Q83.875 -22.605 80.688 -19.417 Q77.5 -16.23 77.5 -11.605 Q77.5 -6.98 80.688 -3.792 Q83.875 -0.605 88.5 -0.605 Q93.125 -0.605 96.312 -3.792 Z"/></g><g id="Bold-S" transform="matrix(1 0 0 1 2294.23 696)"><path d="M22.486 -58.505 H72.194 Q74.561 -58.505 76.286 -56.78 Q78.012 -55.054 78.012 -52.687 Q78.012 -50.32 76.286 -48.594 Q74.561 -46.868 72.194 -46.868 H22.486 Q20.12 -46.868 18.394 -48.594 Q16.668 -50.32 16.668 -52.687 Q16.668 -55.054 18.394 -56.78 Q20.12 -58.505 22.486 -58.505 Z M31.955 -74.877 H62.726 Q65.093 -74.877 66.818 -73.151 Q68.544 -71.425 68.544 -69.058 Q68.544 -66.691 66.818 -64.965 Q65.093 -63.239 62.726 -63.239 H31.955 Q29.588 -63.239 27.862 -64.965 Q26.136 -66.691 26.136 -69.058 Q26.136 -71.425 27.862 -73.151 Q29.588 -74.877 31.955 -74.877 Z M26.037 -30.595 Q26.037 -30.595 27.615 -23.691 Q29.193 -16.787 31.56 -7.319 Q31.56 -7.319 31.56 -7.319 Q31.56 -7.319 31.56 -7.319 L26.037 -30.595 Z M42.409 4.319 H21.993 L11.835 -42.232 H82.845 L80.478 -30.496 Q79.985 -30.496 77.223 -30.545 Q74.462 -30.595 71.602 -30.595 H26.037 L31.56 -7.319 H42.803 Q42.212 -4.36 42.014 -1.5 Q41.817 1.36 42.409 4.319 Z M68.347 20.099  67.065 14.083 Q65.98 13.787 64.994 13.195 Q64.008 12.603 63.219 11.913 L57.301 13.787 L52.962 6.193 L57.4 1.952 Q57.104 0.867 57.104 -0.317 Q57.104 -1.5 57.4 -2.585 L52.962 -6.727 L57.301 -14.321 L63.12 -12.645 Q63.909 -13.434 64.945 -14.026 Q65.98 -14.617 67.065 -14.815 L68.446 -20.831 H77.223 L78.703 -14.815 Q79.788 -14.519 80.873 -13.976 Q81.957 -13.434 82.648 -12.645 L88.368 -14.223 L92.806 -6.727 L88.368 -2.684 Q88.664 -1.599 88.615 -0.366 Q88.565 0.867 88.269 1.952 L92.806 6.094 L88.368 13.688 L82.549 11.913 Q81.76 12.603 80.774 13.195 Q79.788 13.787 78.703 14.083 L77.125 20.099 H68.347 Z M77.47 4.121 Q79.294 2.248 79.294 -0.415 Q79.294 -3.078 77.47 -4.903 Q75.645 -6.727 72.983 -6.727 Q70.32 -6.727 68.446 -4.903 Q66.572 -3.078 66.572 -0.415 Q66.572 2.248 68.446 4.121 Q70.32 5.995 72.983 5.995 Q75.645 5.995 77.47 4.121 Z"/></g><g id="Semibold-S" transform="matrix(1 0 0 1 1998.1 696)"><path d="M22.486 -57.647 H72.194 Q74.175 -57.647 75.6 -56.222 Q77.026 -54.796 77.026 -52.815 Q77.026 -50.834 75.6 -49.408 Q74.175 -47.982 72.194 -47.982 H22.486 Q20.505 -47.982 19.08 -49.408 Q17.654 -50.834 17.654 -52.815 Q17.654 -54.796 19.08 -56.222 Q20.505 -57.647 22.486 -57.647 Z M31.955 -72.048 H62.726 Q64.707 -72.048 66.132 -70.622 Q67.558 -69.195 67.558 -67.215 Q67.558 -65.234 66.132 -63.808 Q64.707 -62.381 62.726 -62.381 H31.955 Q29.973 -62.381 28.548 -63.808 Q27.122 -65.234 27.122 -67.215 Q27.122 -69.195 28.548 -70.622 Q29.973 -72.048 31.955 -72.048 Z M24.751 -33.639 Q24.751 -33.639 26.415 -26.285 Q28.079 -18.931 30.617 -8.134 Q30.617 -8.134 30.617 -8.134 Q30.617 -8.134 30.617 -8.134 L24.751 -33.639 Z M44.639 1.531 H22.722 L12.864 -43.304 H81.816 L79.792 -33.583 Q79.298 -33.583 76.602 -33.611 Q73.905 -33.639 71.516 -33.639 H24.751 L30.617 -8.134 H44.175 Q43.927 -5.604 43.987 -3.237 Q44.047 -0.87 44.639 1.531 Z M68.519 14.61  67.279 8.809 Q66.066 8.427 64.972 7.814 Q63.879 7.2 62.961 6.382 L57.259 8.17 L53.433 1.519 L57.7 -2.593 Q57.404 -3.807 57.404 -5.119 Q57.404 -6.431 57.7 -7.645 L53.433 -11.659 L57.259 -18.352 L62.863 -16.718 Q63.781 -17.636 64.923 -18.27 Q66.066 -18.906 67.279 -19.188 L68.617 -24.99 H76.323 L77.716 -19.188 Q78.93 -18.807 80.122 -18.221 Q81.314 -17.636 82.133 -16.718 L87.682 -18.254 L91.562 -11.659 L87.339 -7.743 Q87.635 -6.53 87.586 -5.168 Q87.537 -3.807 87.241 -2.593 L91.562 1.42 L87.682 8.071 L82.034 6.382 Q81.117 7.2 80.023 7.814 Q78.93 8.427 77.716 8.809 L76.224 14.61 H68.519 Z M77.32 -0.467 Q79.252 -2.426 79.252 -5.217 Q79.252 -8.009 77.32 -9.941 Q75.388 -11.873 72.597 -11.873 Q69.805 -11.873 67.845 -9.941 Q65.885 -8.009 65.885 -5.217 Q65.885 -2.426 67.845 -0.467 Q69.805 1.493 72.597 1.493 Q75.388 1.493 77.32 -0.467 Z"/></g><g id="Medium-S" transform="matrix(1 0 0 1 1701.85 696)"><path d="M22.486 -57.004 H72.194 Q73.885 -57.004 75.086 -55.804 Q76.286 -54.603 76.286 -52.911 Q76.286 -51.22 75.086 -50.02 Q73.885 -48.819 72.194 -48.819 H22.486 Q20.795 -48.819 19.594 -50.02 Q18.394 -51.22 18.394 -52.911 Q18.394 -54.603 19.594 -55.804 Q20.795 -57.004 22.486 -57.004 Z M31.955 -69.924 H62.726 Q64.417 -69.924 65.618 -68.724 Q66.818 -67.524 66.818 -65.831 Q66.818 -64.14 65.618 -62.94 Q64.417 -61.738 62.726 -61.738 H31.955 Q30.263 -61.738 29.062 -62.94 Q27.862 -64.14 27.862 -65.831 Q27.862 -67.524 29.062 -68.724 Q30.263 -69.924 31.955 -69.924 Z M23.785 -35.922 Q23.785 -35.922 25.514 -28.231 Q27.242 -20.539 29.909 -8.745 Q29.909 -8.745 29.909 -8.745 Q29.909 -8.745 29.909 -8.745 L23.785 -35.922 Z M46.31 -0.559 H23.269 L13.636 -44.108 H81.044 L79.278 -35.899 Q78.785 -35.899 76.136 -35.911 Q73.486 -35.922 71.452 -35.922 H23.785 L29.909 -8.745 H45.205 Q45.213 -6.537 45.466 -4.54 Q45.719 -2.542 46.31 -0.559 Z M68.647 10.494  67.44 4.852 Q66.13 4.406 64.956 3.777 Q63.783 3.148 62.768 2.233 L57.226 3.957 L53.787 -1.986 L57.925 -6.002 Q57.63 -7.312 57.63 -8.722 Q57.63 -10.13 57.925 -11.44 L53.787 -15.357 L57.226 -21.375 L62.669 -19.773 Q63.684 -20.787 64.907 -21.455 Q66.13 -22.122 67.44 -22.469 L68.746 -28.109 H75.647 L76.977 -22.469 Q78.287 -22.023 79.559 -21.406 Q80.832 -20.787 81.747 -19.773 L87.168 -21.277 L90.629 -15.357 L86.567 -11.538 Q86.863 -10.229 86.814 -8.771 Q86.764 -7.312 86.468 -6.002 L90.629 -2.085 L87.168 3.858 L81.649 2.233 Q80.635 3.148 79.46 3.777 Q78.287 4.406 76.977 4.852 L75.549 10.494 H68.647 Z M77.208 -3.908 Q79.22 -5.931 79.22 -8.82 Q79.22 -11.708 77.208 -13.72 Q75.195 -15.732 72.307 -15.732 Q69.419 -15.732 67.395 -13.72 Q65.372 -11.708 65.372 -8.82 Q65.372 -5.931 67.395 -3.908 Q69.419 -1.884 72.307 -1.884 Q75.195 -1.884 77.208 -3.908 Z"/></g><g id="Regular-S" transform="matrix(1 0 0 1 1405.73 696)"><path d="M22.486 -56.533 H72.194 Q73.673 -56.533 74.708 -55.497 Q75.744 -54.462 75.744 -52.982 Q75.744 -51.503 74.708 -50.468 Q73.673 -49.432 72.194 -49.432 H22.486 Q21.007 -49.432 19.972 -50.468 Q18.936 -51.503 18.936 -52.982 Q18.936 -54.462 19.972 -55.497 Q21.007 -56.533 22.486 -56.533 Z M31.955 -68.368 H62.726 Q64.205 -68.368 65.24 -67.332 Q66.276 -66.297 66.276 -64.817 Q66.276 -63.338 65.24 -62.303 Q64.205 -61.267 62.726 -61.267 H31.955 Q30.475 -61.267 29.44 -62.303 Q28.404 -63.338 28.404 -64.817 Q28.404 -66.297 29.44 -67.332 Q30.475 -68.368 31.955 -68.368 Z M23.078 -37.597 Q23.078 -37.597 24.854 -29.658 Q26.629 -21.718 29.39 -9.193 Q29.39 -9.193 29.39 -9.193 Q29.39 -9.193 29.39 -9.193 L23.078 -37.597 Z M47.537 -2.092 H23.67 L14.202 -44.698 H80.478 L78.9 -37.597 Q78.407 -37.597 75.793 -37.597 Q73.18 -37.597 71.404 -37.597 H23.078 L29.39 -9.193 H45.959 Q46.157 -7.22 46.551 -5.495 Q46.946 -3.769 47.537 -2.092 Z M68.742 7.475  67.558 1.952 Q66.177 1.459 64.945 0.817 Q63.712 0.176 62.627 -0.81 L57.203 0.867 L54.047 -4.558 L58.09 -8.503 Q57.794 -9.883 57.794 -11.363 Q57.794 -12.842 58.09 -14.223 L54.047 -18.069 L57.203 -23.592 L62.528 -22.014 Q63.613 -23.099 64.895 -23.789 Q66.177 -24.48 67.558 -24.874 L68.84 -30.397 H75.152 L76.434 -24.874 Q77.815 -24.381 79.147 -23.74 Q80.478 -23.099 81.464 -22.014 L86.79 -23.494 L89.946 -18.069 L86.001 -14.321 Q86.297 -12.941 86.248 -11.412 Q86.198 -9.883 85.902 -8.503 L89.946 -4.656 L86.79 0.768 L81.366 -0.81 Q80.281 0.176 79.048 0.817 Q77.815 1.459 76.434 1.952 L75.054 7.475 H68.742 Z M77.125 -6.431 Q79.196 -8.503 79.196 -11.461 Q79.196 -14.42 77.125 -16.491 Q75.054 -18.562 72.095 -18.562 Q69.136 -18.562 67.065 -16.491 Q64.994 -14.42 64.994 -11.461 Q64.994 -8.503 67.065 -6.431 Q69.136 -4.36 72.095 -4.36 Q75.054 -4.36 77.125 -6.431 Z"/></g><g id="Light-S" transform="matrix(1 0 0 1 1109.75 696)"><path d="M22.486 -54.56 H72.194 Q73.256 -54.56 74.006 -53.809 Q74.758 -53.058 74.758 -51.996 Q74.758 -50.934 74.006 -50.184 Q73.256 -49.432 72.194 -49.432 H22.486 Q21.424 -49.432 20.674 -50.184 Q19.922 -50.934 19.922 -51.996 Q19.922 -53.058 20.674 -53.809 Q21.424 -54.56 22.486 -54.56 Z M31.955 -65.181 H62.726 Q63.788 -65.181 64.538 -64.43 Q65.29 -63.679 65.29 -62.617 Q65.29 -61.555 64.538 -60.804 Q63.788 -60.053 62.726 -60.053 H31.955 Q30.892 -60.053 30.142 -60.804 Q29.39 -61.555 29.39 -62.617 Q29.39 -63.679 30.142 -64.43 Q30.892 -65.181 31.955 -65.181 Z M23.078 -38.811 Q23.078 -38.811 24.835 -30.948 Q26.591 -23.084 29.39 -10.407 Q29.39 -10.407 29.39 -10.407 Q29.39 -10.407 29.39 -10.407 L23.078 -38.811 Z M47.158 -5.279 H25.339 L16.516 -43.94 H78.164 L76.928 -38.811 Q76.434 -38.811 73.973 -38.811 Q71.511 -38.811 70.19 -38.811 H23.078 L29.39 -10.407 H46.149 Q46.308 -8.965 46.532 -7.752 Q46.756 -6.538 47.158 -5.279 Z M69.007 3.302  68.203 -1.007 Q66.481 -1.463 64.945 -2.256 Q63.408 -3.048 62.21 -4.376 L57.999 -2.926 L55.754 -6.606 L58.887 -9.717 Q58.363 -11.477 58.363 -13.335 Q58.363 -15.194 58.887 -16.954 L55.754 -19.966 L57.999 -23.744 L62.111 -22.394 Q63.272 -23.82 64.877 -24.662 Q66.481 -25.505 68.203 -25.861 L69.106 -30.17 H73.445 L74.347 -25.861 Q76.07 -25.406 77.724 -24.613 Q79.378 -23.82 80.44 -22.394 L84.552 -23.646 L86.797 -19.966 L83.763 -17.052 Q84.286 -15.293 84.237 -13.385 Q84.187 -11.477 83.665 -9.717 L86.797 -6.705 L84.552 -3.025 L80.341 -4.376 Q79.143 -3.048 77.606 -2.256 Q76.07 -1.463 74.347 -1.007 L73.346 3.302 H69.007 Z M76.632 -8.176 Q78.779 -10.323 78.779 -13.434 Q78.779 -16.545 76.632 -18.692 Q74.485 -20.839 71.374 -20.839 Q68.263 -20.839 66.116 -18.692 Q63.969 -16.545 63.969 -13.434 Q63.969 -10.323 66.116 -8.176 Q68.263 -6.029 71.374 -6.029 Q74.485 -6.029 76.632 -8.176 Z"/></g><g id="Thin-S" transform="matrix(1 0 0 1 814.015 696)"><path d="M22.486 -52.588 H72.194 Q72.839 -52.588 73.305 -52.122 Q73.772 -51.655 73.772 -51.01 Q73.772 -50.365 73.305 -49.898 Q72.839 -49.432 72.194 -49.432 H22.486 Q21.841 -49.432 21.375 -49.898 Q20.909 -50.365 20.909 -51.01 Q20.909 -51.655 21.375 -52.122 Q21.841 -52.588 22.486 -52.588 Z M31.955 -61.996 H62.726 Q63.371 -61.996 63.837 -61.528 Q64.303 -61.062 64.303 -60.417 Q64.303 -59.773 63.837 -59.306 Q63.371 -58.839 62.726 -58.839 H31.955 Q31.309 -58.839 30.843 -59.306 Q30.377 -59.773 30.377 -60.417 Q30.377 -61.062 30.843 -61.528 Q31.309 -61.996 31.955 -61.996 Z M23.078 -40.025 Q23.078 -40.025 24.816 -32.237 Q26.553 -24.449 29.39 -11.621 Q29.39 -11.621 29.39 -11.621 Q29.39 -11.621 29.39 -11.621 L23.078 -40.025 Z M46.779 -8.464 H27.008 L18.829 -43.181 H75.851 L74.955 -40.025 Q74.462 -40.025 72.152 -40.025 Q69.841 -40.025 68.976 -40.025 H23.078 L29.39 -11.621 H46.339 Q46.46 -10.71 46.514 -10.009 Q46.566 -9.306 46.779 -8.464 Z M69.272 -0.87  68.848 -3.966 Q66.784 -4.383 64.945 -5.328 Q63.105 -6.272 61.793 -7.941 L58.795 -6.719 L57.461 -8.655 L59.683 -10.931 Q58.932 -13.07 58.932 -15.308 Q58.932 -17.546 59.683 -19.685 L57.461 -21.862 L58.795 -23.896 L61.694 -22.773 Q62.931 -24.541 64.858 -25.534 Q66.784 -26.528 68.848 -26.847 L69.371 -29.942 H71.738 L72.262 -26.847 Q74.326 -26.43 76.301 -25.485 Q78.278 -24.541 79.416 -22.773 L82.314 -23.797 L83.649 -21.862 L81.525 -19.783 Q82.276 -17.644 82.227 -15.357 Q82.177 -13.07 81.427 -10.931 L83.649 -8.753 L82.314 -6.818 L79.317 -7.941 Q78.004 -6.272 76.165 -5.328 Q74.326 -4.383 72.262 -3.966 L71.639 -0.87 H69.272 Z M76.139 -9.921 Q78.362 -12.144 78.362 -15.406 Q78.362 -18.669 76.139 -20.892 Q73.915 -23.114 70.653 -23.114 Q67.391 -23.114 65.168 -20.892 Q62.945 -18.669 62.945 -15.406 Q62.945 -12.144 65.168 -9.921 Q67.391 -7.699 70.653 -7.699 Q73.915 -7.699 76.139 -9.921 Z"/></g><g id="Ultralight-S" transform="matrix(1 0 0 1 517.792 696)"><path d="M22.486 -51.404 H72.194 Q72.588 -51.404 72.884 -51.109 Q73.18 -50.813 73.18 -50.418 Q73.18 -50.024 72.884 -49.728 Q72.588 -49.432 72.194 -49.432 H22.486 Q22.092 -49.432 21.796 -49.728 Q21.5 -50.024 21.5 -50.418 Q21.5 -50.813 21.796 -51.109 Q22.092 -51.404 22.486 -51.404 Z M31.955 -60.083 H62.726 Q63.12 -60.083 63.416 -59.788 Q63.712 -59.492 63.712 -59.097 Q63.712 -58.703 63.416 -58.407 Q63.12 -58.111 62.726 -58.111 H31.955 Q31.56 -58.111 31.264 -58.407 Q30.968 -58.703 30.968 -59.097 Q30.968 -59.492 31.264 -59.788 Q31.56 -60.083 31.955 -60.083 Z M23.078 -40.753 Q23.078 -40.753 24.804 -33.011 Q26.53 -25.269 29.39 -12.349 Q29.39 -12.349 29.39 -12.349 Q29.39 -12.349 29.39 -12.349 L23.078 -40.753 Z M46.551 -10.376 H28.01 L20.218 -42.725 H74.462 L73.772 -40.753 Q73.278 -40.753 71.059 -40.753 Q68.84 -40.753 68.249 -40.753 H23.078 L29.39 -12.349 H46.452 Q46.551 -11.757 46.502 -11.363 Q46.452 -10.968 46.551 -10.376 Z M69.432 -3.374  69.235 -5.741 Q66.966 -6.136 64.945 -7.171 Q62.923 -8.207 61.542 -10.081 L59.274 -8.996 L58.485 -9.883 L60.161 -11.659 Q59.274 -14.026 59.274 -16.491 Q59.274 -18.957 60.161 -21.324 L58.485 -23 L59.274 -23.987 L61.443 -23 Q62.726 -24.973 64.846 -26.058 Q66.966 -27.143 69.235 -27.439 L69.531 -29.806 H70.714 L71.01 -27.439 Q73.278 -27.044 75.448 -26.009 Q77.618 -24.973 78.801 -23 L80.971 -23.888 L81.76 -23 L80.182 -21.422 Q81.07 -19.055 81.02 -16.541 Q80.971 -14.026 80.084 -11.659 L81.76 -9.982 L80.971 -9.094 L78.703 -10.081 Q77.322 -8.207 75.3 -7.171 Q73.278 -6.136 71.01 -5.741 L70.615 -3.374 H69.432 Z M75.843 -10.968 Q78.111 -13.237 78.111 -16.59 Q78.111 -19.943 75.843 -22.211 Q73.574 -24.48 70.221 -24.48 Q66.868 -24.48 64.599 -22.211 Q62.331 -19.943 62.331 -16.59 Q62.331 -13.237 64.599 -10.968 Q66.868 -8.7 70.221 -8.7 Q73.574 -8.7 75.843 -10.968 Z"/></g></g></svg>