<svg xmlns="http://www.w3.org/2000/svg" height="40" viewBox="0 -960 960 960" width="40"><path d="M461.41-145.95 197.49-344.64q-49.31-36.95-64.95-94.28-15.64-57.34 6.15-114.49l96.64-251.47q2.88-8.11 9.47-11.92 6.58-3.82 14.35-3.82 8.27 0 14.93 4.79 6.66 4.78 10.2 13.55l64.9 198.95h262.61l64.61-198.95q2.86-8.77 9.52-13.55 6.66-4.79 15.59-4.79 7.1 0 13.68 3.82 6.58 3.81 10.12 11.92l95.02 251.47q21.77 57.15 6.13 114.49-15.64 57.33-64.28 94.28L498.03-145.95q-9.24 6.57-18.65 6.57-9.41 0-17.97-6.57Z"/></svg>