<svg xmlns="http://www.w3.org/2000/svg" version="1.1" width="3300" height="2000"><g id="Notes"><style>
    text {
      font-family: monospace;
      text-anchor: middle;
    }
    text.emphasis {
      font-weight:bold;
    }
    text.lanchor {
      text-anchor: start;
    }
  </style><rect height="2200" id="artboard" fill="white" width="3300" x="0" y="0"/><line id="" style="fill:none;stroke:black;stroke-width:0.5;" x1="263" x2="3036" y1="292" y2="292"/><text class="lanchor emphasis" transform="matrix(1 0 0 1 263 322)">Weight/Scale Variations</text><text transform="matrix(1 0 0 1 559.711 322)">Ultralight</text><text transform="matrix(1 0 0 1 856.422 322)">Thin</text><text transform="matrix(1 0 0 1 1153.13 322)">Light</text><text transform="matrix(1 0 0 1 1449.84 322)">Regular</text><text transform="matrix(1 0 0 1 1746.56 322)">Medium</text><text transform="matrix(1 0 0 1 2043.27 322)">Semibold</text><text transform="matrix(1 0 0 1 2339.98 322)">Bold</text><text transform="matrix(1 0 0 1 2636.69 322)">Heavy</text><text transform="matrix(1 0 0 1 2933.4 322)">Black</text><text id="template-version" style="text-anchor: end;" transform="matrix(1 0 0 1 3036 1933)">Template v.1.0</text><text class="lanchor" transform="matrix(1 0 0 1 263 726)">Small</text><text class="lanchor" transform="matrix(1 0 0 1 263 1156)">Medium</text><text class="lanchor" transform="matrix(1 0 0 1 263 1586)">Large</text></g><g id="Guides"><g id="H-reference" style="fill:#27AAE1;stroke:none;" transform="matrix(1 0 0 1 339 696)"><path d="M 54.9316 0 L 57.666 0 L 30.5664 -70.459 L 28.0762 -70.459 L 0.976562 0 L 3.66211 0 L 12.9395 -24.4629 L 45.7031 -24.4629 Z M 29.1992 -67.0898 L 29.4434 -67.0898 L 44.8242 -26.709 L 13.8184 -26.709 Z"/></g><line id="Baseline-S" style="fill:none;stroke:#27AAE1;opacity:1;stroke-width:0.577;" x1="263" x2="3036" y1="696" y2="696"/><line id="Capline-S" style="fill:none;stroke:#27AAE1;opacity:1;stroke-width:0.577;" x1="263" x2="3036" y1="625.541" y2="625.541"/><g id="H-reference" style="fill:#27AAE1;stroke:none;" transform="matrix(1 0 0 1 339 1126)"><path d="M 54.9316 0 L 57.666 0 L 30.5664 -70.459 L 28.0762 -70.459 L 0.976562 0 L 3.66211 0 L 12.9395 -24.4629 L 45.7031 -24.4629 Z M 29.1992 -67.0898 L 29.4434 -67.0898 L 44.8242 -26.709 L 13.8184 -26.709 Z"/></g><line id="Baseline-M" style="fill:none;stroke:#27AAE1;opacity:1;stroke-width:0.577;" x1="263" x2="3036" y1="1126" y2="1126"/><line id="Capline-M" style="fill:none;stroke:#27AAE1;opacity:1;stroke-width:0.577;" x1="263" x2="3036" y1="1055.54" y2="1055.54"/><g id="H-reference" style="fill:#27AAE1;stroke:none;" transform="matrix(1 0 0 1 339 1556)"><path d="M 54.9316 0 L 57.666 0 L 30.5664 -70.459 L 28.0762 -70.459 L 0.976562 0 L 3.66211 0 L 12.9395 -24.4629 L 45.7031 -24.4629 Z M 29.1992 -67.0898 L 29.4434 -67.0898 L 44.8242 -26.709 L 13.8184 -26.709 Z"/></g><line id="Baseline-L" style="fill:none;stroke:#27AAE1;opacity:1;stroke-width:0.577;" x1="263" x2="3036" y1="1556" y2="1556"/><line id="Capline-L" style="fill:none;stroke:#27AAE1;opacity:1;stroke-width:0.577;" x1="263" x2="3036" y1="1485.54" y2="1485.54"/><rect height="119.336" id="left-margin" style="fill:darkred;stroke:none;opacity:0.4;" width="12.4512" x="1394.06" y="1030.79"/><rect height="119.336" id="right-margin" style="fill:darkgreen;stroke:none;opacity:0.4;" width="12.4512" x="1502.5112" y="1030.79"/><rect x="1406.5112" y="1045" width="96" height="96" fill="none" stroke="blue" stroke-dasharray="5"/><rect x="1394.06" y="1030.79" width="120.9024" height="119.336" fill="none" stroke="blue"/></g><g id="Symbols"><g id="Bold-L" transform="matrix(1 0 0 1 2266 1556)"><path d="M15.319 33.301 V-88.604 H8.869 V-103.922 H146.093 V-88.604 H139.643 V33.301 H121.421 Q120.447 26.629 115.452 22.064 Q110.456 17.499 103.608 17.499 Q96.589 17.499 91.509 22.094 Q86.43 26.69 85.463 33.301 H69.338 Q68.239 26.629 63.316 22.064 Q58.393 17.499 51.455 17.499 Q44.344 17.499 39.429 22.064 Q34.514 26.629 33.54 33.301 H15.319 Z M30.476 10.888 Q32.895 8.308 35.959 6.292 Q39.023 4.276 42.57 3.43 V-88.604 H30.476 V10.888 Z M57.889 3.096 Q61.275 3.631 64.308 5.068 Q67.34 6.503 69.821 8.63 V-88.604 H57.889 V3.096 Z M84.979 8.791 Q87.412 6.653 90.387 5.142 Q93.364 3.631 96.911 3.297 V-88.604 H84.979 V8.791 Z M124.324 10.726 V-88.604 H112.069 V3.47 Q115.655 4.181 118.78 6.163 Q121.905 8.146 124.324 10.726 Z"/></g><g id="Semibold-L" transform="matrix(1 0 0 1 1970.27 1556)"><path d="M17.072 31.548 V-89.234 H10.622 V-102.1 H144.27 V-89.234 H137.82 V31.548 H122.263 Q120.728 25.018 115.557 20.662 Q110.387 16.307 103.434 16.307 Q96.308 16.307 91.124 20.692 Q85.94 25.078 84.48 31.548 H70.249 Q68.73 25.018 63.628 20.662 Q58.524 16.307 51.523 16.307 Q44.344 16.307 39.219 20.662 Q34.093 25.018 32.558 31.548 H17.072 Z M29.846 12.71 Q32.685 9.71 36.275 7.484 Q39.864 5.258 44.042 4.41 V-89.234 H29.846 V12.71 Z M56.907 4.154 Q60.994 4.823 64.566 6.547 Q68.138 8.269 71.013 10.873 V-89.234 H56.907 V4.154 Z M83.787 10.894 Q86.635 8.283 90.174 6.518 Q93.714 4.754 97.822 4.284 V-89.234 H83.787 V10.894 Z M124.954 12.689 V-89.234 H110.597 V4.452 Q114.797 5.274 118.456 7.446 Q122.115 9.618 124.954 12.689 Z"/></g><g id="Medium-L" transform="matrix(1 0 0 1 1674.31 1556)"><path d="M18.386 30.234 V-89.708 H11.936 V-100.733 H142.903 V-89.708 H136.453 V30.234 H122.893 Q120.938 23.808 115.636 19.611 Q110.334 15.414 103.303 15.414 Q96.099 15.414 90.835 19.64 Q85.571 23.868 83.745 30.234 H70.932 Q69.099 23.808 63.86 19.611 Q58.622 15.414 51.571 15.414 Q44.344 15.414 39.061 19.611 Q33.777 23.808 31.823 30.234 H18.386 Z M29.372 14.077 Q32.527 10.762 36.51 8.377 Q40.495 5.994 45.147 5.147 V-89.708 H29.372 V14.077 Z M56.171 4.945 Q60.785 5.716 64.761 7.656 Q68.738 9.594 71.906 12.556 V-89.708 H56.171 V4.945 Z M82.894 12.473 Q86.051 9.507 90.015 7.551 Q93.977 5.594 98.506 5.024 V-89.708 H82.894 V12.473 Z M125.428 14.161 V-89.708 H109.492 V5.187 Q114.154 6.094 118.212 8.407 Q122.273 10.723 125.428 14.161 Z"/></g><g id="Regular-L" transform="matrix(1 0 0 1 1378.56 1556)"><path d="M19.35 29.27 V-90.055 H12.9 V-99.73 H141.9 V-90.055 H135.45 V29.27 H123.356 Q121.092 22.92 115.694 18.839 Q110.295 14.758 103.208 14.758 Q95.944 14.758 90.623 18.869 Q85.301 22.981 83.205 29.27 H71.434 Q69.368 22.92 64.031 18.839 Q58.695 14.758 51.608 14.758 Q44.344 14.758 38.945 18.839 Q33.546 22.92 31.283 29.27 H19.35 Z M29.025 15.08 Q32.411 11.533 36.684 9.033 Q40.958 6.534 45.956 5.687 V-90.055 H29.025 V15.08 Z M55.631 5.526 Q60.63 6.373 64.903 8.469 Q69.176 10.565 72.562 13.79 V-90.055 H55.631 V5.526 Z M82.237 13.629 Q85.624 10.404 89.897 8.308 Q94.17 6.211 99.008 5.566 V-90.055 H82.237 V13.629 Z M125.775 15.241 V-90.055 H108.683 V5.728 Q113.681 6.695 118.035 9.114 Q122.389 11.533 125.775 15.241 Z"/></g><g id="Light-L" transform="matrix(1 0 0 1 1082.77 1556)"><path d="M22.514 26.106 V-89.186 H16.125 V-96.505 H138.675 V-89.186 H132.286 V26.106 H123.171 Q120.844 19.571 115.27 15.428 Q109.695 11.284 102.471 11.284 Q95.138 11.284 89.692 15.457 Q84.247 19.632 82.026 26.106 H72.612 Q70.484 19.571 65.024 15.428 Q59.564 11.284 52.34 11.284 Q44.944 11.284 39.369 15.428 Q33.795 19.571 31.468 26.106 H22.514 Z M29.831 14.522 Q33.28 10.478 37.924 7.793 Q42.57 5.107 48.065 4.396 V-89.186 H29.831 V14.522 Z M55.383 4.234 Q60.94 4.945 65.648 7.538 Q70.355 10.131 73.741 14.162 V-89.186 H55.383 V4.234 Z M81.059 13.938 Q84.508 9.97 89.152 7.408 Q93.798 4.847 99.256 4.263 V-89.186 H81.059 V13.938 Z M124.969 14.745 V-89.186 H106.573 V4.425 Q112.069 5.207 116.795 7.904 Q121.52 10.602 124.969 14.745 Z"/></g><g id="Thin-L" transform="matrix(1 0 0 1 787.282 1556)"><path d="M25.676 22.944 V-88.318 H19.35 V-93.28 H135.45 V-88.318 H129.124 V22.944 H122.984 Q120.596 16.223 114.845 12.018 Q109.097 7.811 101.736 7.811 Q94.331 7.811 88.762 12.047 Q83.192 16.283 80.848 22.944 H73.791 Q71.601 16.223 66.016 12.018 Q60.432 7.811 53.071 7.811 Q45.542 7.811 39.793 12.018 Q34.043 16.223 31.655 22.944 H25.676 Z M30.637 13.964 Q34.148 9.423 39.164 6.553 Q44.183 3.681 50.173 3.104 V-88.318 H30.637 V13.964 Z M55.135 2.944 Q61.251 3.52 66.391 6.608 Q71.534 9.697 74.92 14.535 V-88.318 H55.135 V2.944 Z M79.88 14.25 Q83.39 9.536 88.409 6.51 Q93.425 3.483 99.504 2.962 V-88.318 H79.88 V14.25 Z M124.163 14.25 V-88.318 H104.466 V3.123 Q110.456 3.718 115.555 6.695 Q120.652 9.672 124.163 14.25 Z"/></g><g id="Ultralight-L" transform="matrix(1 0 0 1 491.205 1556)"><path d="M27.574 21.046 V-87.797 H21.285 V-91.345 H133.515 V-87.797 H127.226 V21.046 H122.873 Q120.447 14.212 114.592 9.97 Q108.737 5.728 101.294 5.728 Q93.847 5.728 88.204 10.001 Q82.56 14.274 80.141 21.046 H74.498 Q72.271 14.212 66.611 9.97 Q60.953 5.728 53.511 5.728 Q45.901 5.728 40.046 9.97 Q34.191 14.212 31.766 21.046 H27.574 Z M31.121 13.629 Q34.669 8.791 39.909 5.808 Q45.15 2.825 51.439 2.328 V-87.797 H31.121 V13.629 Z M54.986 2.169 Q61.436 2.664 66.838 6.05 Q72.24 9.436 75.626 14.758 V-87.797 H54.986 V2.169 Z M79.174 14.435 Q82.721 9.275 87.962 5.969 Q93.203 2.664 99.653 2.18 V-87.797 H79.174 V14.435 Z M123.679 13.951 V-87.797 H103.2 V2.341 Q109.489 2.825 114.81 5.969 Q120.131 9.114 123.679 13.951 Z"/></g><g id="Bold-M" transform="matrix(1 0 0 1 2281.8 1126)"><path d="M10.75 19.02 V-73.73 H5.75 V-89.48 H114.25 V-73.73 H109.25 V19.02 H92.375 Q92 14.27 88.625 10.958 Q85.25 7.645 80.435 7.645 Q75.5 7.645 71.938 10.958 Q68.375 14.27 67.875 19.02 H52 Q51.625 14.27 48.125 10.958 Q44.625 7.645 39.81 7.645 Q34.875 7.645 31.5 10.958 Q28.125 14.27 27.75 19.02 H10.75 Z M26.5 -4.605 Q27.75 -5.23 28.938 -5.855 Q30.125 -6.48 31.5 -6.855 V-73.73 H26.5 V-4.605 Z M47.25 -7.105 Q48.625 -6.73 49.812 -6.292 Q51 -5.855 52.125 -5.23 V-73.73 H47.25 V-7.105 Z M67.875 -5.105 Q69 -5.73 70.188 -6.167 Q71.375 -6.605 72.75 -6.98 V-73.73 H67.875 V-5.105 Z M93.5 -4.73 V-73.73 H88.5 V-6.855 Q89.869 -6.514 91.06 -5.935 Q92.25 -5.355 93.5 -4.73 Z"/></g><g id="Semibold-M" transform="matrix(1 0 0 1 1985.97 1126)"><path d="M12.598 17.173 V-74.382 H7.598 V-87.632 H112.403 V-74.382 H107.403 V17.173 H93.245 Q92.326 12.585 88.734 9.49 Q85.141 6.395 80.246 6.395 Q75.229 6.395 71.558 9.49 Q67.886 12.585 66.896 17.173 H52.979 Q52.114 12.585 48.451 9.49 Q44.788 6.395 39.892 6.395 Q34.875 6.395 31.282 9.49 Q27.69 12.585 26.771 17.173 H12.598 Z M25.848 -2.702 Q27.479 -3.762 29.264 -4.577 Q31.049 -5.392 33.021 -5.876 V-74.382 H25.848 V-2.702 Z M46.271 -6.017 Q48.299 -5.535 50.057 -4.797 Q51.815 -4.061 53.375 -2.947 V-74.382 H46.271 V-6.017 Z M66.625 -2.931 Q68.185 -4.045 69.942 -4.755 Q71.701 -5.464 73.729 -5.947 V-74.382 H66.625 V-2.931 Z M94.153 -2.719 V-74.382 H86.979 V-5.876 Q89.002 -5.412 90.763 -4.622 Q92.521 -3.834 94.153 -2.719 Z"/></g><g id="Medium-M" transform="matrix(1 0 0 1 1689.91 1126)"><path d="M13.984 15.786 V-74.871 H8.984 V-86.246 H111.016 V-74.871 H106.016 V15.786 H93.896 Q92.571 11.321 88.815 8.39 Q85.06 5.458 80.104 5.458 Q75.025 5.458 71.271 8.39 Q67.519 11.321 66.162 15.786 H53.712 Q52.481 11.321 48.696 8.39 Q44.91 5.458 39.955 5.458 Q34.875 5.458 31.12 8.39 Q27.364 11.321 26.038 15.786 H13.984 Z M25.359 -1.276 Q27.275 -2.662 29.509 -3.62 Q31.741 -4.577 34.163 -5.142 V-74.871 H25.359 V-1.276 Z M45.538 -5.202 Q48.054 -4.637 50.24 -3.677 Q52.426 -2.716 54.312 -1.235 V-74.871 H45.538 V-5.202 Z M65.688 -1.301 Q67.574 -2.781 69.76 -3.695 Q71.946 -4.607 74.463 -5.172 V-74.871 H65.688 V-1.301 Z M94.641 -1.211 V-74.871 H85.838 V-5.142 Q88.351 -4.586 90.539 -3.639 Q92.725 -2.692 94.641 -1.211 Z"/></g><g id="Regular-M" transform="matrix(1 0 0 1 1394.06 1126)"><path d="M15 14.77 V-75.23 H10 V-85.23 H110 V-75.23 H105 V14.77 H94.375 Q92.75 10.395 88.875 7.583 Q85 4.77 80 4.77 Q74.875 4.77 71.062 7.583 Q67.25 10.395 65.625 14.77 H54.25 Q52.75 10.395 48.875 7.583 Q45 4.77 40 4.77 Q34.875 4.77 31 7.583 Q27.125 10.395 25.5 14.77 H15 Z M25 -0.23 Q27.125 -1.855 29.688 -2.917 Q32.25 -3.98 35 -4.605 V-75.23 H25 V-0.23 Z M45 -4.605 Q47.875 -3.98 50.375 -2.855 Q52.875 -1.73 55 0.02 V-75.23 H45 V-4.605 Z M65 -0.105 Q67.125 -1.855 69.625 -2.917 Q72.125 -3.98 75 -4.605 V-75.23 H65 V-0.105 Z M95 -0.105 V-75.23 H85 V-4.605 Q87.875 -3.98 90.375 -2.917 Q92.875 -1.855 95 -0.105 Z"/></g><g id="Light-M" transform="matrix(1 0 0 1 1098.18 1126)"><path d="M17.453 12.318 V-75.23 H12.5 V-82.73 H107.5 V-75.23 H102.547 V12.318 H94.567 Q92.894 7.655 88.779 4.698 Q84.664 1.741 79.422 1.741 Q74.106 1.741 70.101 4.698 Q66.096 7.655 64.422 12.318 H55.453 Q53.856 7.655 49.836 4.698 Q45.818 1.741 40.578 1.741 Q35.211 1.741 31.096 4.698 Q26.981 7.655 25.308 12.318 H17.453 Z M24.953 0.395 Q27.269 -1.855 30.312 -3.326 Q33.356 -4.797 36.779 -5.326 V-75.23 H24.953 V0.395 Z M44.279 -5.326 Q47.875 -4.797 50.928 -3.167 Q53.981 -1.537 56.25 1.03 V-75.23 H44.279 V-5.326 Z M63.75 0.856 Q66.019 -1.662 69.047 -3.23 Q72.078 -4.797 75.674 -5.326 V-75.23 H63.75 V0.856 Z M95.047 0.569 V-75.23 H83.172 V-5.326 Q86.672 -4.797 89.701 -3.302 Q92.731 -1.807 95.047 0.569 Z"/></g><g id="Thin-M" transform="matrix(1 0 0 1 802.565 1126)"><path d="M19.904 9.866 V-75.23 H15 V-80.23 H105 V-75.23 H100.096 V9.866 H94.76 Q93.039 4.914 88.683 1.814 Q84.328 -1.287 78.846 -1.287 Q73.336 -1.287 69.14 1.814 Q64.942 4.914 63.221 9.866 H56.654 Q54.961 4.914 50.797 1.814 Q46.635 -1.287 41.154 -1.287 Q35.547 -1.287 31.192 1.814 Q26.836 4.914 25.115 9.866 H19.904 Z M24.904 1.02 Q27.414 -1.855 30.938 -3.735 Q34.461 -5.615 38.557 -6.047 V-75.23 H24.904 V1.02 Z M43.557 -6.047 Q47.875 -5.615 51.481 -3.48 Q55.086 -1.345 57.5 2.039 V-75.23 H43.557 V-6.047 Z M62.5 1.818 Q64.914 -1.47 68.471 -3.542 Q72.029 -5.615 76.346 -6.047 V-75.23 H62.5 V1.818 Z M95.096 1.241 V-75.23 H81.346 V-6.047 Q85.471 -5.615 89.029 -3.686 Q92.586 -1.759 95.096 1.241 Z"/></g><g id="Ultralight-M" transform="matrix(1 0 0 1 506.415 1126)"><path d="M21.375 8.395 V-75.23 H16.5 V-78.73 H103.5 V-75.23 H98.625 V8.395 H94.875 Q93.125 3.27 88.625 0.083 Q84.125 -3.105 78.5 -3.105 Q72.875 -3.105 68.562 0.083 Q64.25 3.27 62.5 8.395 H57.375 Q55.625 3.27 51.375 0.083 Q47.125 -3.105 41.5 -3.105 Q35.75 -3.105 31.25 0.083 Q26.75 3.27 25 8.395 H21.375 Z M24.875 1.395 Q27.5 -1.855 31.312 -3.98 Q35.125 -6.105 39.625 -6.48 V-75.23 H24.875 V1.395 Z M43.125 -6.48 Q47.875 -6.105 51.812 -3.667 Q55.75 -1.23 58.25 2.645 V-75.23 H43.125 V-6.48 Z M61.75 2.395 Q64.25 -1.355 68.125 -3.73 Q72 -6.105 76.75 -6.48 V-75.23 H61.75 V2.395 Z M95.125 1.645 V-75.23 H80.25 V-6.48 Q84.75 -6.105 88.625 -3.917 Q92.5 -1.73 95.125 1.645 Z"/></g><g id="Bold-S" transform="matrix(1 0 0 1 2294.23 696)"><path d="M10.849 5.995 V-64.817 H6.115 V-76.455 H88.565 V-64.817 H83.831 V5.995 H70.221 Q70.024 2.543 67.661 0.176 Q65.298 -2.191 61.885 -2.191 Q58.485 -2.191 55.871 0.176 Q53.258 2.543 53.024 5.995 H41.62 Q41.422 2.543 38.931 0.176 Q36.439 -2.191 32.988 -2.191 Q29.588 -2.191 27.171 0.176 Q24.755 2.543 24.558 5.995 H10.849 Z M22.486 -10.376 Q23.473 -10.968 24.262 -11.708 Q25.051 -12.448 26.136 -12.738 V-64.817 H22.486 V-10.376 Z M37.773 -13.138 Q38.76 -12.941 39.662 -12.651 Q40.564 -12.362 41.422 -11.954 V-64.817 H37.773 V-13.138 Z M53.159 -11.757 Q54.047 -12.152 54.885 -12.497 Q55.723 -12.842 56.709 -13.039 V-64.817 H53.159 V-11.757 Z M72.194 -10.475 V-64.817 H68.446 V-12.738 Q69.526 -12.474 70.367 -11.771 Q71.207 -11.067 72.194 -10.475 Z"/></g><g id="Semibold-S" transform="matrix(1 0 0 1 1998.1 696)"><path d="M12.306 4.538 V-65.332 H7.572 V-74.998 H87.108 V-65.332 H82.374 V4.538 H70.907 Q70.281 1.214 67.746 -0.981 Q65.212 -3.177 61.736 -3.177 Q58.271 -3.177 55.571 -0.981 Q52.872 1.214 52.252 4.538 H42.392 Q41.808 1.214 39.188 -0.981 Q36.567 -3.177 33.053 -3.177 Q29.588 -3.177 27 -0.981 Q24.412 1.214 23.785 4.538 H12.306 Z M21.972 -8.875 Q23.259 -9.81 24.519 -10.7 Q25.78 -11.59 27.336 -11.965 V-65.332 H21.972 V-8.875 Z M37.001 -12.28 Q38.502 -11.998 39.855 -11.472 Q41.207 -10.947 42.409 -10.154 V-65.332 H37.001 V-12.28 Z M52.173 -10.042 Q53.403 -10.822 54.692 -11.382 Q55.981 -11.942 57.482 -12.225 V-65.332 H52.173 V-10.042 Z M72.708 -8.888 V-65.332 H67.245 V-11.965 Q68.842 -11.605 70.132 -10.735 Q71.421 -9.867 72.708 -8.888 Z"/></g><g id="Medium-S" transform="matrix(1 0 0 1 1701.85 696)"><path d="M13.4 3.444 V-65.718 H8.666 V-73.904 H86.014 V-65.718 H81.28 V3.444 H71.421 Q70.474 0.217 67.811 -1.849 Q65.148 -3.917 61.624 -3.917 Q58.11 -3.917 55.345 -1.849 Q52.582 0.217 51.673 3.444 H42.971 Q42.098 0.217 39.381 -1.849 Q36.664 -3.917 33.102 -3.917 Q29.588 -3.917 26.871 -1.849 Q24.154 0.217 23.206 3.444 H13.4 Z M21.586 -7.75 Q23.098 -8.942 24.712 -9.945 Q26.326 -10.947 28.236 -11.386 V-65.718 H21.586 V-7.75 Z M36.422 -11.637 Q38.309 -11.29 39.999 -10.588 Q41.69 -9.885 43.148 -8.802 V-65.718 H36.422 V-11.637 Z M51.433 -8.756 Q52.921 -9.825 54.548 -10.546 Q56.174 -11.266 58.061 -11.613 V-65.718 H51.433 V-8.756 Z M73.094 -7.699 V-65.718 H66.345 V-11.386 Q68.328 -10.953 69.956 -9.959 Q71.582 -8.966 73.094 -7.699 Z"/></g><g id="Regular-S" transform="matrix(1 0 0 1 1405.73 696)"><path d="M14.202 2.642 V-66.001 H9.468 V-73.102 H85.212 V-66.001 H80.478 V2.642 H71.799 Q70.615 -0.514 67.858 -2.486 Q65.1 -4.459 61.542 -4.459 Q57.992 -4.459 55.181 -2.486 Q52.37 -0.514 51.249 2.642 H43.395 Q42.31 -0.514 39.523 -2.486 Q36.735 -4.459 33.138 -4.459 Q29.588 -4.459 26.777 -2.486 Q23.966 -0.514 22.782 2.642 H14.202 Z M21.303 -6.925 Q22.98 -8.305 24.854 -9.39 Q26.727 -10.475 28.897 -10.962 V-66.001 H21.303 V-6.925 Z M35.998 -11.165 Q38.168 -10.771 40.106 -9.939 Q42.044 -9.107 43.691 -7.812 V-66.001 H35.998 V-11.165 Z M50.891 -7.812 Q52.567 -9.094 54.441 -9.933 Q56.315 -10.771 58.485 -11.165 V-66.001 H50.891 V-7.812 Z M73.377 -6.826 V-66.001 H65.684 V-10.962 Q67.953 -10.475 69.827 -9.39 Q71.7 -8.305 73.377 -6.826 Z"/></g><g id="Light-S" transform="matrix(1 0 0 1 1109.75 696)"><path d="M16.137 0.707 V-66.001 H11.441 V-71.129 H83.24 V-66.001 H78.543 V0.707 H71.951 Q70.729 -2.676 67.782 -4.763 Q64.835 -6.849 61.086 -6.849 Q57.385 -6.849 54.422 -4.763 Q51.46 -2.676 50.3 0.707 H44.344 Q43.183 -2.676 40.281 -4.763 Q37.38 -6.849 33.594 -6.849 Q29.853 -6.849 26.853 -4.763 Q23.852 -2.676 22.63 0.707 H16.137 Z M21.266 -6.431 Q23.093 -8.305 25.347 -9.713 Q27.6 -11.12 30.301 -11.531 V-66.001 H21.266 V-6.431 Z M35.429 -11.735 Q38.168 -11.416 40.542 -10.185 Q42.917 -8.955 44.677 -7.015 V-66.001 H35.429 V-11.735 Z M49.904 -7.054 Q51.694 -8.942 53.985 -10.179 Q56.277 -11.416 59.016 -11.735 V-66.001 H49.904 V-7.054 Z M73.414 -6.294 V-66.001 H64.242 V-11.531 Q67.004 -11.12 69.295 -9.694 Q71.587 -8.268 73.414 -6.294 Z"/></g><g id="Thin-S" transform="matrix(1 0 0 1 814.015 696)"><path d="M18.071 -1.227 V-66.001 H13.413 V-69.157 H81.267 V-66.001 H76.609 V-1.227 H72.103 Q70.843 -4.839 67.706 -7.038 Q64.569 -9.238 60.632 -9.238 Q56.777 -9.238 53.664 -7.038 Q50.549 -4.839 49.351 -1.227 H45.292 Q44.055 -4.839 41.04 -7.038 Q38.025 -9.238 34.048 -9.238 Q30.118 -9.238 26.929 -7.038 Q23.738 -4.839 22.479 -1.227 H18.071 Z M21.227 -5.938 Q23.207 -8.305 25.84 -10.035 Q28.472 -11.765 31.704 -12.1 V-66.001 H21.227 V-5.938 Z M34.86 -12.304 Q38.168 -12.061 40.979 -10.432 Q43.789 -8.803 45.663 -6.219 V-66.001 H34.86 V-12.304 Z M48.918 -6.295 Q50.822 -8.791 53.531 -10.426 Q56.239 -12.061 59.547 -12.304 V-66.001 H48.918 V-6.295 Z M73.453 -5.764 V-66.001 H62.801 V-12.1 Q66.056 -11.765 68.764 -9.997 Q71.473 -8.229 73.453 -5.764 Z"/></g><g id="Ultralight-S" transform="matrix(1 0 0 1 517.792 696)"><path d="M19.232 -2.388 V-66.001 H14.597 V-67.973 H80.084 V-66.001 H75.448 V-2.388 H72.194 Q70.911 -6.136 67.661 -8.404 Q64.41 -10.672 60.358 -10.672 Q56.413 -10.672 53.208 -8.404 Q50.003 -6.136 48.783 -2.388 H45.861 Q44.579 -6.136 41.495 -8.404 Q38.411 -10.672 34.322 -10.672 Q30.278 -10.672 26.974 -8.404 Q23.67 -6.136 22.388 -2.388 H19.232 Z M21.204 -5.642 Q23.276 -8.305 26.136 -10.229 Q28.996 -12.152 32.546 -12.442 V-66.001 H21.204 V-5.642 Z M34.519 -12.645 Q38.168 -12.448 41.24 -10.58 Q44.312 -8.713 46.255 -5.741 V-66.001 H34.519 V-12.645 Z M48.326 -5.84 Q50.299 -8.7 53.258 -10.574 Q56.216 -12.448 59.865 -12.645 V-66.001 H48.326 V-5.84 Z M73.476 -5.445 V-66.001 H61.937 V-12.442 Q65.487 -12.152 68.446 -10.179 Q71.404 -8.207 73.476 -5.445 Z"/></g></g></svg>