<svg xmlns="http://www.w3.org/2000/svg" version="1.1" width="3300" height="2000"><g id="Notes"><style>
    text {
      font-family: monospace;
      text-anchor: middle;
    }
    text.emphasis {
      font-weight:bold;
    }
    text.lanchor {
      text-anchor: start;
    }
  </style><rect height="2200" id="artboard" fill="white" width="3300" x="0" y="0"/><line id="" style="fill:none;stroke:black;stroke-width:0.5;" x1="263" x2="3036" y1="292" y2="292"/><text class="lanchor emphasis" transform="matrix(1 0 0 1 263 322)">Weight/Scale Variations</text><text transform="matrix(1 0 0 1 559.711 322)">Ultralight</text><text transform="matrix(1 0 0 1 856.422 322)">Thin</text><text transform="matrix(1 0 0 1 1153.13 322)">Light</text><text transform="matrix(1 0 0 1 1449.84 322)">Regular</text><text transform="matrix(1 0 0 1 1746.56 322)">Medium</text><text transform="matrix(1 0 0 1 2043.27 322)">Semibold</text><text transform="matrix(1 0 0 1 2339.98 322)">Bold</text><text transform="matrix(1 0 0 1 2636.69 322)">Heavy</text><text transform="matrix(1 0 0 1 2933.4 322)">Black</text><text id="template-version" style="text-anchor: end;" transform="matrix(1 0 0 1 3036 1933)">Template v.1.0</text><text class="lanchor" transform="matrix(1 0 0 1 263 726)">Small</text><text class="lanchor" transform="matrix(1 0 0 1 263 1156)">Medium</text><text class="lanchor" transform="matrix(1 0 0 1 263 1586)">Large</text></g><g id="Guides"><g id="H-reference" style="fill:#27AAE1;stroke:none;" transform="matrix(1 0 0 1 339 696)"><path d="M 54.9316 0 L 57.666 0 L 30.5664 -70.459 L 28.0762 -70.459 L 0.976562 0 L 3.66211 0 L 12.9395 -24.4629 L 45.7031 -24.4629 Z M 29.1992 -67.0898 L 29.4434 -67.0898 L 44.8242 -26.709 L 13.8184 -26.709 Z"/></g><line id="Baseline-S" style="fill:none;stroke:#27AAE1;opacity:1;stroke-width:0.577;" x1="263" x2="3036" y1="696" y2="696"/><line id="Capline-S" style="fill:none;stroke:#27AAE1;opacity:1;stroke-width:0.577;" x1="263" x2="3036" y1="625.541" y2="625.541"/><g id="H-reference" style="fill:#27AAE1;stroke:none;" transform="matrix(1 0 0 1 339 1126)"><path d="M 54.9316 0 L 57.666 0 L 30.5664 -70.459 L 28.0762 -70.459 L 0.976562 0 L 3.66211 0 L 12.9395 -24.4629 L 45.7031 -24.4629 Z M 29.1992 -67.0898 L 29.4434 -67.0898 L 44.8242 -26.709 L 13.8184 -26.709 Z"/></g><line id="Baseline-M" style="fill:none;stroke:#27AAE1;opacity:1;stroke-width:0.577;" x1="263" x2="3036" y1="1126" y2="1126"/><line id="Capline-M" style="fill:none;stroke:#27AAE1;opacity:1;stroke-width:0.577;" x1="263" x2="3036" y1="1055.54" y2="1055.54"/><g id="H-reference" style="fill:#27AAE1;stroke:none;" transform="matrix(1 0 0 1 339 1556)"><path d="M 54.9316 0 L 57.666 0 L 30.5664 -70.459 L 28.0762 -70.459 L 0.976562 0 L 3.66211 0 L 12.9395 -24.4629 L 45.7031 -24.4629 Z M 29.1992 -67.0898 L 29.4434 -67.0898 L 44.8242 -26.709 L 13.8184 -26.709 Z"/></g><line id="Baseline-L" style="fill:none;stroke:#27AAE1;opacity:1;stroke-width:0.577;" x1="263" x2="3036" y1="1556" y2="1556"/><line id="Capline-L" style="fill:none;stroke:#27AAE1;opacity:1;stroke-width:0.577;" x1="263" x2="3036" y1="1485.54" y2="1485.54"/><rect height="119.336" id="left-margin" style="fill:darkred;stroke:none;opacity:0.4;" width="12.4512" x="1394.06" y="1030.79"/><rect height="119.336" id="right-margin" style="fill:darkgreen;stroke:none;opacity:0.4;" width="12.4512" x="1502.5112" y="1030.79"/><rect x="1406.5112" y="1045" width="96" height="96" fill="none" stroke="blue" stroke-dasharray="5"/><rect x="1394.06" y="1030.79" width="120.9024" height="119.336" fill="none" stroke="blue"/></g><g id="Symbols"><g id="Bold-L" transform="matrix(1 0 0 1 2266 1556)"><path d="M132.548 -49.742 V-77.477 Q132.548 -77.477 132.548 -77.477 Q132.548 -77.477 132.548 -77.477 H104.812 V-91.022 H130.774 Q137.137 -91.022 141.615 -86.545 Q146.093 -82.067 146.093 -75.704 V-49.742 H132.548 Z M8.869 -49.742 V-75.704 Q8.869 -82.067 13.298 -86.545 Q17.729 -91.022 24.026 -91.022 H49.988 V-77.477 H22.253 Q22.253 -77.477 22.253 -77.477 Q22.253 -77.477 22.253 -77.477 V-49.742 H8.869 Z M24.026 20.401 Q17.729 20.401 13.298 15.97 Q8.869 11.541 8.869 5.244 V-20.717 H22.253 V7.018 Q22.253 7.018 22.253 7.018 Q22.253 7.018 22.253 7.018 H49.988 V20.401 H24.026 Z M60.791 -6.205 V-64.416 L106.586 -35.23 L60.791 -6.205 Z M102.877 42.331 V32.656 H154.477 V42.331 H102.877 Z M128.194 22.014  103.039 -3.302  109.811 -10.075  123.517 3.47 V-28.619 H133.192 V3.47 L146.899 -10.075 L153.671 -3.302 L128.194 22.014 Z"/></g><g id="Semibold-L" transform="matrix(1 0 0 1 1970.27 1556)"><path d="M132.407 -49.742 V-77.337 Q132.407 -77.337 132.407 -77.337 Q132.407 -77.337 132.407 -77.337 H104.812 V-89.2 H131.404 Q136.684 -89.2 140.476 -85.406 Q144.27 -81.614 144.27 -76.334 V-49.742 H132.407 Z M10.622 -49.742 V-76.334 Q10.622 -81.614 14.387 -85.406 Q18.154 -89.2 23.396 -89.2 H49.988 V-77.337 H22.393 Q22.393 -77.337 22.393 -77.337 Q22.393 -77.337 22.393 -77.337 V-49.742 H10.622 Z M23.396 18.648 Q18.154 18.648 14.387 14.883 Q10.622 11.116 10.622 5.874 V-20.717 H22.393 V6.877 Q22.393 6.877 22.393 6.877 Q22.393 6.877 22.393 6.877 H49.988 V18.648 H23.396 Z M61.212 -6.906 V-63.645 L105.815 -35.23 L61.212 -6.906 Z M101.055 42.262 V32.587 H152.655 V42.262 H101.055 Z M126.372 22.364  101.217 -2.953  107.989 -9.725  121.695 3.82 V-28.269 H131.37 V3.82 L145.077 -9.725 L151.849 -2.953 L126.372 22.364 Z"/></g><g id="Medium-L" transform="matrix(1 0 0 1 1674.31 1556)"><path d="M132.302 -49.742 V-77.232 Q132.302 -77.232 132.302 -77.232 Q132.302 -77.232 132.302 -77.232 H104.812 V-87.833 H131.878 Q136.345 -87.833 139.623 -84.553 Q142.903 -81.275 142.903 -76.808 V-49.742 H132.302 Z M11.936 -49.742 V-76.808 Q11.936 -81.275 15.204 -84.553 Q18.471 -87.833 22.922 -87.833 H49.988 V-77.232 H22.498 Q22.498 -77.232 22.498 -77.232 Q22.498 -77.232 22.498 -77.232 V-49.742 H11.936 Z M22.922 17.334 Q18.471 17.334 15.204 14.066 Q11.936 10.799 11.936 6.348 V-20.717 H22.498 V6.772 Q22.498 6.772 22.498 6.772 Q22.498 6.772 22.498 6.772 H49.988 V17.334 H22.922 Z M61.528 -7.432 V-63.067 L105.237 -35.23 L61.528 -7.432 Z M99.688 42.209 V32.534 H151.288 V42.209 H99.688 Z M125.004 22.627  99.849 -2.69  106.622 -9.462  120.328 4.083 V-28.006 H130.003 V4.083 L143.709 -9.462 L150.482 -2.69 L125.004 22.627 Z"/></g><g id="Regular-L" transform="matrix(1 0 0 1 1378.56 1556)"><path d="M132.225 -49.742 V-77.155 Q132.225 -77.155 132.225 -77.155 Q132.225 -77.155 132.225 -77.155 H104.812 V-86.83 H132.225 Q136.095 -86.83 138.998 -83.927 Q141.9 -81.025 141.9 -77.155 V-49.742 H132.225 Z M12.9 -49.742 V-77.155 Q12.9 -81.025 15.803 -83.927 Q18.705 -86.83 22.575 -86.83 H49.988 V-77.155 H22.575 Q22.575 -77.155 22.575 -77.155 Q22.575 -77.155 22.575 -77.155 V-49.742 H12.9 Z M22.575 16.37 Q18.705 16.37 15.803 13.468 Q12.9 10.565 12.9 6.695 V-20.717 H22.575 V6.695 Q22.575 6.695 22.575 6.695 Q22.575 6.695 22.575 6.695 H49.988 V16.37 H22.575 Z M61.759 -7.817 V-62.642 L104.812 -35.23 L61.759 -7.817 Z M98.685 42.17 V32.495 H150.285 V42.17 H98.685 Z M124.001 22.82  98.846 -2.496  105.619 -9.269  119.325 4.276 V-27.812 H129 V4.276 L142.706 -9.269 L149.479 -2.496 L124.001 22.82 Z"/></g><g id="Light-L" transform="matrix(1 0 0 1 1082.77 1556)"><path d="M131.356 -49.309 V-74.302 Q131.356 -75.046 130.737 -75.667 Q130.116 -76.286 129.372 -76.286 H104.379 V-83.605 H129.372 Q133.167 -83.605 135.921 -80.851 Q138.675 -78.097 138.675 -74.302 V-49.309 H131.356 Z M16.125 -49.309 V-74.302 Q16.125 -78.097 18.879 -80.851 Q21.633 -83.605 25.428 -83.605 H50.421 V-76.286 H25.428 Q24.684 -76.286 24.063 -75.667 Q23.444 -75.046 23.444 -74.302 V-49.309 H16.125 Z M25.428 13.145 Q21.633 13.145 18.879 10.391 Q16.125 7.637 16.125 3.842 V-21.151 H23.444 V3.842 Q23.444 4.586 24.063 5.207 Q24.684 5.826 25.428 5.826 H50.421 V13.145 H25.428 Z M63.247 -10.36 V-60.1 L102.27 -35.23 L63.247 -10.36 Z M100.67 40.558 V33.24 H149.045 V40.558 H100.67 Z M124.498 22.075  101.389 -1.132  106.549 -6.292  120.938 8.059 V-24.96 H128.255 V8.059 L142.645 -6.292 L147.803 -1.132 L124.498 22.075 Z"/></g><g id="Thin-L" transform="matrix(1 0 0 1 787.282 1556)"><path d="M130.488 -48.875 V-71.45 Q130.488 -72.938 129.248 -74.178 Q128.008 -75.418 126.52 -75.418 H103.945 V-80.38 H126.52 Q130.237 -80.38 132.844 -77.774 Q135.45 -75.167 135.45 -71.45 V-48.875 H130.488 Z M19.35 -48.875 V-71.45 Q19.35 -75.167 21.956 -77.774 Q24.563 -80.38 28.28 -80.38 H50.855 V-75.418 H28.28 Q26.792 -75.418 25.552 -74.178 Q24.312 -72.938 24.312 -71.45 V-48.875 H19.35 Z M28.28 9.92 Q24.563 9.92 21.956 7.314 Q19.35 4.707 19.35 0.99 V-21.585 H24.312 V0.99 Q24.312 2.478 25.552 3.718 Q26.792 4.958 28.28 4.958 H50.855 V9.92 H28.28 Z M64.735 -12.903 V-57.557 L99.727 -35.23 L64.735 -12.903 Z M102.655 38.945 V33.983 H147.805 V38.945 H102.655 Z M124.993 21.332  103.932 0.232  107.48 -3.315  122.55 11.842 V-22.107 H127.512 V11.842 L142.582 -3.315 L146.13 0.232 L124.993 21.332 Z"/></g><g id="Ultralight-L" transform="matrix(1 0 0 1 491.205 1556)"><path d="M129.968 -48.614 V-69.737 Q129.968 -71.672 128.355 -73.285 Q126.743 -74.897 124.808 -74.897 H103.684 V-78.445 H124.808 Q128.481 -78.445 130.998 -75.928 Q133.515 -73.411 133.515 -69.737 V-48.614 H129.968 Z M21.285 -48.614 V-69.737 Q21.285 -73.411 23.802 -75.928 Q26.321 -78.445 29.992 -78.445 H51.116 V-74.897 H29.992 Q28.058 -74.897 26.445 -73.285 Q24.832 -71.672 24.832 -69.737 V-48.614 H21.285 Z M29.992 7.985 Q26.321 7.985 23.802 5.468 Q21.285 2.949 21.285 -0.722 V-21.846 H24.832 V-0.722 Q24.832 1.213 26.445 2.825 Q28.058 4.438 29.992 4.438 H51.116 V7.985 H29.992 Z M65.629 -14.429 V-56.031 L98.201 -35.23 L65.629 -14.429 Z M103.845 37.978 V34.43 H147.06 V37.978 H103.845 Z M125.291 20.885  105.457 1.051  108.038 -1.529  123.517 14.113 V-20.395 H127.065 V14.113 L142.545 -1.529 L145.125 1.051 L125.291 20.885 Z"/></g><g id="Bold-M" transform="matrix(1 0 0 1 2281.8 1126)"><path d="M100.375 -45.23 V-65.605 Q100.375 -65.605 100.375 -65.605 Q100.375 -65.605 100.375 -65.605 H80 V-79.48 H98.5 Q105.125 -79.48 109.688 -74.917 Q114.25 -70.355 114.25 -63.73 V-45.23 H100.375 Z M5.75 -45.23 V-63.73 Q5.75 -70.355 10.312 -74.917 Q14.875 -79.48 21.5 -79.48 H40 V-65.605 H19.625 Q19.625 -65.605 19.625 -65.605 Q19.625 -65.605 19.625 -65.605 V-45.23 H5.75 Z M21.5 9.02 Q14.875 9.02 10.312 4.458 Q5.75 -0.105 5.75 -6.73 V-25.23 H19.625 V-4.855 Q19.625 -4.855 19.625 -4.855 Q19.625 -4.855 19.625 -4.855 H40 V9.02 H21.5 Z M46.5 -10.98 V-59.48 L84.25 -35.23 L46.5 -10.98 Z M79.25 24.77 V14.77 H119.25 V24.77 H79.25 Z M99.25 9.02  79.25 -10.98  86.25 -17.98  94.25 -10.23 V-30.98 H104.25 V-10.23 L112.25 -17.98 L119.25 -10.98 L99.25 9.02 Z"/></g><g id="Semibold-M" transform="matrix(1 0 0 1 1985.97 1126)"><path d="M100.213 -45.23 V-65.442 Q100.213 -65.442 100.213 -65.442 Q100.213 -65.442 100.213 -65.442 H80 V-77.632 H99.153 Q104.69 -77.632 108.546 -73.776 Q112.403 -69.92 112.403 -64.382 V-45.23 H100.213 Z M7.598 -45.23 V-64.382 Q7.598 -69.92 11.454 -73.776 Q15.31 -77.632 20.848 -77.632 H40 V-65.442 H19.788 Q19.788 -65.442 19.788 -65.442 Q19.788 -65.442 19.788 -65.442 V-45.23 H7.598 Z M20.848 7.173 Q15.31 7.173 11.454 3.316 Q7.598 -0.54 7.598 -6.077 V-25.23 H19.788 V-5.017 Q19.788 -5.017 19.788 -5.017 Q19.788 -5.017 19.788 -5.017 H40 V7.173 H20.848 Z M46.935 -11.741 V-58.719 L83.489 -35.23 L46.935 -11.741 Z M77.403 24.716 V14.716 H117.403 V24.716 H77.403 Z M97.403 9.346  77.403 -10.654  84.403 -17.654  92.403 -9.904 V-30.654 H102.403 V-9.904 L110.403 -17.654 L117.403 -10.654 L97.403 9.346 Z"/></g><g id="Medium-M" transform="matrix(1 0 0 1 1689.91 1126)"><path d="M100.09 -45.23 V-65.32 Q100.09 -65.32 100.09 -65.32 Q100.09 -65.32 100.09 -65.32 H80 V-76.246 H99.641 Q104.364 -76.246 107.69 -72.92 Q111.016 -69.594 111.016 -64.871 V-45.23 H100.09 Z M8.984 -45.23 V-64.871 Q8.984 -69.594 12.31 -72.92 Q15.636 -76.246 20.359 -76.246 H40 V-65.32 H19.91 Q19.91 -65.32 19.91 -65.32 Q19.91 -65.32 19.91 -65.32 V-45.23 H8.984 Z M20.359 5.786 Q15.636 5.786 12.31 2.46 Q8.984 -0.866 8.984 -5.589 V-25.23 H19.91 V-5.14 Q19.91 -5.14 19.91 -5.14 Q19.91 -5.14 19.91 -5.14 H40 V5.786 H20.359 Z M47.261 -12.311 V-58.149 L82.919 -35.23 L47.261 -12.311 Z M76.016 24.675 V14.675 H116.016 V24.675 H76.016 Z M96.016 9.591  76.016 -10.409  83.016 -17.409  91.016 -9.659 V-30.409 H101.016 V-9.659 L109.016 -17.409 L116.016 -10.409 L96.016 9.591 Z"/></g><g id="Regular-M" transform="matrix(1 0 0 1 1394.06 1126)"><path d="M100 -45.23 V-65.23 Q100 -65.23 100 -65.23 Q100 -65.23 100 -65.23 H80 V-75.23 H100 Q104.125 -75.23 107.062 -72.292 Q110 -69.355 110 -65.23 V-45.23 H100 Z M10 -45.23 V-65.23 Q10 -69.355 12.938 -72.292 Q15.875 -75.23 20 -75.23 H40 V-65.23 H20 Q20 -65.23 20 -65.23 Q20 -65.23 20 -65.23 V-45.23 H10 Z M20 4.77 Q15.875 4.77 12.938 1.833 Q10 -1.105 10 -5.23 V-25.23 H20 V-5.23 Q20 -5.23 20 -5.23 Q20 -5.23 20 -5.23 H40 V4.77 H20 Z M47.5 -12.73 V-57.73 L82.5 -35.23 L47.5 -12.73 Z M75 24.645 V14.645 H115 V24.645 H75 Z M95 9.77  75 -10.23  82 -17.23  90 -9.48 V-30.23 H100 V-9.48 L108 -17.23 L115 -10.23 L95 9.77 Z"/></g><g id="Light-M" transform="matrix(1 0 0 1 1098.18 1126)"><path d="M100 -45.23 V-63.691 Q100 -64.269 99.519 -64.749 Q99.039 -65.23 98.461 -65.23 H80 V-72.73 H98.461 Q102.25 -72.73 104.875 -70.105 Q107.5 -67.48 107.5 -63.691 V-45.23 H100 Z M12.5 -45.23 V-63.691 Q12.5 -67.48 15.125 -70.105 Q17.75 -72.73 21.539 -72.73 H40 V-65.23 H21.539 Q20.961 -65.23 20.481 -64.749 Q20 -64.269 20 -63.691 V-45.23 H12.5 Z M21.539 2.27 Q17.75 2.27 15.125 -0.355 Q12.5 -2.98 12.5 -6.769 V-25.23 H20 V-6.769 Q20 -6.191 20.481 -5.711 Q20.961 -5.23 21.539 -5.23 H40 V2.27 H21.539 Z M48.75 -15.037 V-55.422 L80.192 -35.23 L48.75 -15.037 Z M76.924 23.443 V15.944 H114.422 V23.443 H76.924 Z M95.674 9.193  77.404 -9.076  82.674 -14.345  91.924 -5.249 V-27.826 H99.422 V-5.249 L108.674 -14.345 L113.942 -9.076 L95.674 9.193 Z"/></g><g id="Thin-M" transform="matrix(1 0 0 1 802.565 1126)"><path d="M100 -45.23 V-62.152 Q100 -63.307 99.039 -64.269 Q98.078 -65.23 96.922 -65.23 H80 V-70.23 H96.922 Q100.375 -70.23 102.688 -67.917 Q105 -65.605 105 -62.152 V-45.23 H100 Z M15 -45.23 V-62.152 Q15 -65.605 17.312 -67.917 Q19.625 -70.23 23.078 -70.23 H40 V-65.23 H23.078 Q21.922 -65.23 20.961 -64.269 Q20 -63.307 20 -62.152 V-45.23 H15 Z M23.078 -0.23 Q19.625 -0.23 17.312 -2.542 Q15 -4.855 15 -8.307 V-25.23 H20 V-8.307 Q20 -7.152 20.961 -6.191 Q21.922 -5.23 23.078 -5.23 H40 V-0.23 H23.078 Z M50 -17.345 V-53.115 L77.885 -35.23 L50 -17.345 Z M78.846 22.241 V17.241 H113.846 V22.241 H78.846 Z M96.346 8.616  79.808 -7.922  83.346 -11.461  93.846 -1.019 V-25.422 H98.846 V-1.019 L109.346 -11.461 L112.885 -7.922 L96.346 8.616 Z"/></g><g id="Ultralight-M" transform="matrix(1 0 0 1 506.415 1126)"><path d="M100 -45.23 V-61.23 Q100 -62.73 98.75 -63.98 Q97.5 -65.23 96 -65.23 H80 V-68.73 H96 Q99.25 -68.73 101.375 -66.605 Q103.5 -64.48 103.5 -61.23 V-45.23 H100 Z M16.5 -45.23 V-61.23 Q16.5 -64.48 18.625 -66.605 Q20.75 -68.73 24 -68.73 H40 V-65.23 H24 Q22.5 -65.23 21.25 -63.98 Q20 -62.73 20 -61.23 V-45.23 H16.5 Z M24 -1.73 Q20.75 -1.73 18.625 -3.855 Q16.5 -5.98 16.5 -9.23 V-25.23 H20 V-9.23 Q20 -7.73 21.25 -6.48 Q22.5 -5.23 24 -5.23 H40 V-1.73 H24 Z M50.75 -18.73 V-51.73 L76.5 -35.23 L50.75 -18.73 Z M80 21.52 V18.02 H113.5 V21.52 H80 Z M96.75 8.27  81.25 -7.23  83.75 -9.73  95 1.52 V-23.98 H98.5 V1.52 L109.75 -9.73 L112.25 -7.23 L96.75 8.27 Z"/></g><g id="Bold-S" transform="matrix(1 0 0 1 2294.23 696)"><path d="M78.407 -42.331 V-56.829 Q78.407 -56.829 78.407 -56.829 Q78.407 -56.829 78.407 -56.829 H63.909 V-66.987 H76.928 Q81.829 -66.987 85.197 -63.619 Q88.565 -60.251 88.565 -55.349 V-42.331 H78.407 Z M6.115 -42.331 V-55.349 Q6.115 -60.251 9.483 -63.619 Q12.851 -66.987 17.753 -66.987 H30.771 V-56.829 H16.273 Q16.273 -56.829 16.273 -56.829 Q16.273 -56.829 16.273 -56.829 V-42.331 H6.115 Z M17.728 -3.473 Q12.821 -3.473 9.468 -6.841 Q6.115 -10.209 6.115 -15.11 V-28.326 H16.273 V-13.631 Q16.273 -13.631 16.273 -13.631 Q16.273 -13.631 16.273 -13.631 H30.771 V-3.473 H17.728 Z M37.083 -17.28 V-53.18 L65.29 -35.23 L37.083 -17.28 Z M64.895 12.209 V5.108 H93.299 V12.209 H64.895 Z M79.097 -0.317  64.895 -14.519  69.925 -19.549  75.547 -13.927 V-28.721 H82.648 V-13.927 L88.269 -19.549 L93.299 -14.519 L79.097 -0.317 Z"/></g><g id="Semibold-S" transform="matrix(1 0 0 1 1998.1 696)"><path d="M78.279 -42.331 V-56.701 Q78.279 -56.701 78.279 -56.701 Q78.279 -56.701 78.279 -56.701 H63.909 V-65.53 H77.442 Q81.486 -65.53 84.297 -62.719 Q87.108 -59.908 87.108 -55.864 V-42.331 H78.279 Z M7.572 -42.331 V-55.864 Q7.572 -59.908 10.383 -62.719 Q13.194 -65.53 17.238 -65.53 H30.771 V-56.701 H16.401 Q16.401 -56.701 16.401 -56.701 Q16.401 -56.701 16.401 -56.701 V-42.331 H7.572 Z M17.213 -4.93 Q13.164 -4.93 10.368 -7.741 Q7.572 -10.552 7.572 -14.596 V-28.326 H16.401 V-13.759 Q16.401 -13.759 16.401 -13.759 Q16.401 -13.759 16.401 -13.759 H30.771 V-4.93 H17.213 Z M37.426 -17.881 V-52.579 L64.689 -35.23 L37.426 -17.881 Z M63.438 12.166 V5.065 H91.842 V12.166 H63.438 Z M77.64 -0.059  63.438 -14.261  68.467 -19.291  74.089 -13.67 V-28.463 H81.19 V-13.67 L86.812 -19.291 L91.842 -14.261 L77.64 -0.059 Z"/></g><g id="Medium-S" transform="matrix(1 0 0 1 1701.85 696)"><path d="M78.182 -42.331 V-56.604 Q78.182 -56.604 78.182 -56.604 Q78.182 -56.604 78.182 -56.604 H63.909 V-64.436 H77.828 Q81.229 -64.436 83.621 -62.043 Q86.014 -59.651 86.014 -56.25 V-42.331 H78.182 Z M8.666 -42.331 V-56.25 Q8.666 -59.651 11.059 -62.043 Q13.451 -64.436 16.852 -64.436 H30.771 V-56.604 H16.498 Q16.498 -56.604 16.498 -56.604 Q16.498 -56.604 16.498 -56.604 V-42.331 H8.666 Z M16.827 -6.024 Q13.422 -6.024 11.044 -8.417 Q8.666 -10.809 8.666 -14.21 V-28.326 H16.498 V-13.856 Q16.498 -13.856 16.498 -13.856 Q16.498 -13.856 16.498 -13.856 H30.771 V-6.024 H16.827 Z M37.684 -18.331 V-52.129 L64.239 -35.23 L37.684 -18.331 Z M62.344 12.134 V5.033 H90.748 V12.134 H62.344 Z M76.546 0.134  62.344 -14.068  67.374 -19.098  72.995 -13.476 V-28.27 H80.096 V-13.476 L85.718 -19.098 L90.748 -14.068 L76.546 0.134 Z"/></g><g id="Regular-S" transform="matrix(1 0 0 1 1405.73 696)"><path d="M78.111 -42.331 V-56.533 Q78.111 -56.533 78.111 -56.533 Q78.111 -56.533 78.111 -56.533 H63.909 V-63.634 H78.111 Q81.04 -63.634 83.126 -61.548 Q85.212 -59.462 85.212 -56.533 V-42.331 H78.111 Z M9.468 -42.331 V-56.533 Q9.468 -59.462 11.554 -61.548 Q13.64 -63.634 16.569 -63.634 H30.771 V-56.533 H16.569 Q16.569 -56.533 16.569 -56.533 Q16.569 -56.533 16.569 -56.533 V-42.331 H9.468 Z M16.544 -6.826 Q13.61 -6.826 11.539 -8.912 Q9.468 -10.998 9.468 -13.927 V-28.326 H16.569 V-13.927 Q16.569 -13.927 16.569 -13.927 Q16.569 -13.927 16.569 -13.927 H30.771 V-6.826 H16.544 Z M37.872 -18.661 V-51.799 L63.909 -35.23 L37.872 -18.661 Z M61.542 12.11 V5.009 H89.946 V12.11 H61.542 Z M75.744 0.275  61.542 -13.927  66.572 -18.957  72.194 -13.335 V-28.129 H79.294 V-13.335 L84.916 -18.957 L89.946 -13.927 L75.744 0.275 Z"/></g><g id="Light-S" transform="matrix(1 0 0 1 1109.75 696)"><path d="M78.111 -42.331 V-55.319 Q78.111 -55.775 77.731 -56.153 Q77.353 -56.533 76.897 -56.533 H63.909 V-61.661 H76.897 Q79.561 -61.661 81.4 -59.822 Q83.24 -57.983 83.24 -55.319 V-42.331 H78.111 Z M11.441 -42.331 V-55.319 Q11.441 -57.983 13.28 -59.822 Q15.119 -61.661 17.783 -61.661 H30.771 V-56.533 H17.783 Q17.327 -56.533 16.949 -56.153 Q16.569 -55.775 16.569 -55.319 V-42.331 H11.441 Z M17.758 -8.798 Q15.09 -8.798 13.265 -10.638 Q11.441 -12.477 11.441 -15.141 V-28.326 H16.569 V-15.141 Q16.569 -14.685 16.949 -14.307 Q17.327 -13.927 17.783 -13.927 H30.771 V-8.798 H17.758 Z M38.858 -20.482 V-49.978 L62.088 -35.23 L38.858 -20.482 Z M63.06 11.161 V6.034 H89.49 V11.161 H63.06 Z M76.276 -0.181  63.439 -13.017  67.103 -16.681  73.711 -9.997 V-26.232 H78.839 V-9.997 L85.448 -16.681 L89.112 -13.017 L76.276 -0.181 Z"/></g><g id="Thin-S" transform="matrix(1 0 0 1 814.015 696)"><path d="M78.111 -42.331 V-54.105 Q78.111 -55.016 77.353 -55.775 Q76.594 -56.533 75.683 -56.533 H63.909 V-59.689 H75.683 Q78.081 -59.689 79.674 -58.096 Q81.267 -56.503 81.267 -54.105 V-42.331 H78.111 Z M13.413 -42.331 V-54.105 Q13.413 -56.503 15.006 -58.096 Q16.599 -59.689 18.997 -59.689 H30.771 V-56.533 H18.997 Q18.086 -56.533 17.327 -55.775 Q16.569 -55.016 16.569 -54.105 V-42.331 H13.413 Z M18.972 -10.771 Q16.569 -10.771 14.991 -12.364 Q13.413 -13.957 13.413 -16.355 V-28.326 H16.569 V-16.355 Q16.569 -15.444 17.327 -14.685 Q18.086 -13.927 18.997 -13.927 H30.771 V-10.771 H18.972 Z M39.845 -22.302 V-48.158 L60.268 -35.23 L39.845 -22.302 Z M64.577 10.213 V7.057 H89.036 V10.213 H64.577 Z M76.806 -0.635  65.335 -12.106  67.634 -14.405  75.228 -6.659 V-24.336 H78.384 V-6.659 L85.978 -14.405 L88.277 -12.106 L76.806 -0.635 Z"/></g><g id="Ultralight-S" transform="matrix(1 0 0 1 517.792 696)"><path d="M78.111 -42.331 V-53.377 Q78.111 -54.56 77.125 -55.547 Q76.139 -56.533 74.955 -56.533 H63.909 V-58.505 H74.955 Q77.194 -58.505 78.639 -57.061 Q80.084 -55.616 80.084 -53.377 V-42.331 H78.111 Z M14.597 -42.331 V-53.377 Q14.597 -55.616 16.041 -57.061 Q17.486 -58.505 19.725 -58.505 H30.771 V-56.533 H19.725 Q18.541 -56.533 17.555 -55.547 Q16.569 -54.56 16.569 -53.377 V-42.331 H14.597 Z M19.7 -11.954 Q17.457 -11.954 16.027 -13.399 Q14.597 -14.844 14.597 -17.083 V-28.326 H16.569 V-17.083 Q16.569 -15.899 17.555 -14.913 Q18.541 -13.927 19.725 -13.927 H30.771 V-11.954 H19.7 Z M40.436 -23.395 V-47.065 L59.175 -35.23 L40.436 -23.395 Z M65.487 9.644 V7.672 H88.763 V9.644 H65.487 Z M77.125 -0.908  66.473 -11.56  67.953 -13.039  76.139 -4.656 V-23.198 H78.111 V-4.656 L86.297 -13.039 L87.776 -11.56 L77.125 -0.908 Z"/></g></g></svg>