<svg xmlns="http://www.w3.org/2000/svg" height="48" viewBox="0 -960 960 960" width="48"><path d="M184.65-275.54v90.89V-775.35-275.54Zm501.34 156.52H275.3q-64.94 0-110.61-45.67T119.02-275.3v-410.69q0-64.86 45.67-110.04 45.67-45.19 110.61-45.19h199.4q13.34 0 22.95 9.8t9.61 23.2q0 13.98-9.61 23.43-9.61 9.44-22.95 9.44H275.4q-37.4 0-64.07 26.17-26.68 26.16-26.68 62.66v411.18q0 37.01 26.67 63.85 26.67 26.84 63.78 26.84h411.42q36.5 0 62.66-26.84 26.17-26.84 26.17-64.05V-474.7q0-13.34 9.62-22.95t23.35-9.61q13.73 0 23.31 9.61 9.59 9.61 9.59 22.95v199.4q0 64.94-45.36 110.61t-109.87 45.67Zm68.46-461.61q-5.8 0-7.73-5.68-15.34-58.94-58.41-102.14-43.07-43.2-102.03-58.36-5.65-1.9-5.65-7.59 0-6.64 5.64-7.59 59.02-15.71 102.1-58.59 43.09-42.87 58.32-101.76 1.9-5.79 7.66-5.79 5.8 0 7.45 5.68 15.81 58.65 58.71 101.91t101.69 58.33q5.69.94 5.69 7.53 0 5.7-5.67 7.6-58.66 15.43-101.72 58.45-43.07 43.02-58.39 102.31-.96 5.69-7.66 5.69Z"/></svg>