<svg xmlns="http://www.w3.org/2000/svg" height="20" viewBox="0 -960 960 960" width="20"><path d="M227.78-313.11v85.33-504.44 419.11Zm419.11 178.33H312.54q-74.78 0-126.27-51.49-51.49-51.49-51.49-126.27v-334.92q0-74.78 51.49-126.27 51.49-51.49 126.27-51.49h132.87q18.89 0 32.7 13.75 13.8 13.74 13.8 32.54 0 18.8-13.8 32.76-13.81 13.95-32.7 13.95H312.54q-35.14 0-59.95 25.21-24.81 25.22-24.81 59.91v334.2q0 34.69 24.81 59.91 24.81 25.21 59.75 25.21H647.1q34.69 0 59.91-25.21 25.21-25.22 25.21-60.12v-132.3q0-18.89 13.74-32.7 13.75-13.8 32.55-13.8 18.79 0 32.75 13.8 13.96 13.81 13.96 32.7v132.87q0 74.78-51.9 126.27-51.9 51.49-126.43 51.49Zm107.64-445.7q-6.02 0-8.03-5.94-14.35-59.24-57.81-102.86-43.45-43.61-103.18-57.78-5.6-1.78-5.6-7.76 0-7.03 5.95-8.03 59.24-14.35 102.85-57.81 43.62-43.45 58.01-102.93 1.8-5.85 8.45-5.85 6.71 0 7.12 5.95 15.19 58.83 58.43 102.23 43.23 43.39 102.2 58.19 5.95.99 5.95 7.97 0 6.03-5.94 8.04-59.24 14.35-102.86 57.8-43.61 43.46-57.68 103.18-.88 5.6-7.86 5.6Z"/></svg>