<svg xmlns="http://www.w3.org/2000/svg" height="24" viewBox="0 -960 960 960" width="24"><path d="M710.13-552q-6.02 0-8.02-5.94-13.89-53.75-52.07-92.07-38.17-38.31-92.08-52.07-5.96-1.97-5.96-7.88 0-6.94 5.94-7.93 53.92-14.29 92.17-52.35 38.26-38.06 51.99-91.8 1.97-5.96 7.87-5.96 6.94 0 7.92 5.94 14.29 53.42 52.45 91.81 38.16 38.4 91.7 52.18 5.96.99 5.96 7.89 0 5.97-5.94 7.96-53.42 13.9-91.74 52.06Q732-612 718.08-557.96q-.99 5.96-7.95 5.96Zm-49.34 375H298.5q-51.24 0-86.37-35.13T177-298.5v-362.29q0-50.71 35.13-86.46Q247.26-783 298.5-783h163.53q8.28 0 14.12 6.25Q482-770.5 480.5-762q-6 57.5 13.5 112.25t60.5 95.25q40.5 41 95.25 60.5t112.28 13.64q8.47-.64 14.72 4.58 6.25 5.23 6.25 13.72v163.56q0 51.24-35.75 86.37T660.79-177Z"/></svg>