<svg xmlns="http://www.w3.org/2000/svg" height="24" viewBox="0 -960 960 960" width="24"><path d="M750.39-564.48q-5.92 0-7.89-5.94-16.35-63.24-62.81-109.86-46.45-46.61-109.82-62.84-5.96-1.96-5.96-7.84 0-6.9 5.95-7.89 63.24-16.35 109.85-62.81 46.62-46.45 62.85-109.82 1.96-5.96 7.83-5.96 6.49 0 7.9 5.95 16.35 63.24 62.8 109.85 46.45 46.62 109.83 62.85 5.95.98 5.95 7.83 0 5.92-5.94 7.9-63.24 16.35-109.86 62.8-46.61 46.46-62.84 109.83-.98 5.95-7.84 5.95Zm-71.5 453.7H280.54q-70.78 0-120.27-49.49-49.49-49.49-49.49-120.27v-398.92q0-70.78 49.49-120.27 49.49-49.49 120.27-49.49h174.44q15.26 0 23.55 12.71 8.3 12.71 3.03 27.6-22.21 68.52-5.81 139.55 16.4 71.03 69.49 124.12 52.52 52.52 123.84 69.21 71.31 16.68 139.87-5.39 14.85-4.91 27.56 3.31 12.71 8.22 12.71 23.13v174.44q0 70.78-49.77 120.27-49.78 49.49-120.56 49.49Z"/></svg>