<svg xmlns="http://www.w3.org/2000/svg" height="48" viewBox="0 -960 960 960" width="48"><path d="M733.75-572q-5.92 0-7.89-5.73-13.79-55.29-53.23-95.08-39.43-39.8-94.7-54.26-5.93-2.05-5.93-8.18 0-6.91 5.54-7.86 55.35-13.7 94.84-52.82 39.48-39.13 53.83-93.99 2.04-6.08 8.28-6.08 7.24 0 7.15 5.91 13.89 55.12 53.55 94.38t95.25 53.53q5.56.99 5.56 7.88 0 5.91-5.55 7.94-55.47 14.29-94.96 53.78-39.49 39.49-53.85 94.85-.98 5.73-7.89 5.73ZM671-156H288q-55.4 0-93.7-38.3Q156-232.6 156-288v-383q0-55 38.3-94t93.7-39h175q10.08 0 16.54 8 6.46 8 2.55 18.24Q469-718 486.5-657 504-596 550-550t107 63.5q61 17.5 121 4.5 10-3 18 3.56 8 6.56 8 15.44v175q0 55.4-38.94 93.7Q726.13-156 671-156Z"/></svg>