<svg xmlns="http://www.w3.org/2000/svg" height="48" viewBox="0 -960 960 960" width="48"><path d="M769-592q-5.73 0-7.64-5.73-15.29-60.29-59.3-104.51-44-44.22-104.33-60.12-5.73-1.97-5.73-7.89 0-6.91 5.54-7.86 60.32-15.23 104.32-59.07 44-43.83 59.82-103.91 1.97-5.91 8.01-5.91t6.95 5.73q15.89 60.3 60.07 104.29 44.17 43.99 104.73 59.8 5.56.96 5.56 7.63 0 5.72-5.55 7.69-60.47 15.79-104.69 59.8-44.22 44-60.12 104.33-.95 5.73-7.64 5.73Zm-76 488H268q-68.4 0-116.2-47.8T104-268v-425q0-68 47.8-115.5T268-856h229q10.77 0 16.88 10 6.12 10 1.21 20.24Q487-760 500.5-689.5 514-619 567-567q52 53 122.5 66.5T826-515q10-5 20 1.52T856-497v229q0 68.4-47.44 116.2Q761.13-104 693-104Z"/></svg>