<svg xmlns="http://www.w3.org/2000/svg" height="40" viewBox="0 -960 960 960" width="40"><path d="M723-561.54q-5.92 0-7.89-5.82-14.24-54.83-53.54-94.21-39.3-39.37-94.11-53.65-5.92-1.98-5.92-7.91 0-6.79 5.82-7.76 54.85-14.23 94.18-53.46 39.33-39.23 53.59-93.94 1.97-5.92 7.9-5.92 6.69 0 7.86 5.92 13.99 54.74 53.32 93.96 39.32 39.22 94.17 53.44 5.83.98 5.83 7.89 0 5.92-5.83 7.89-54.83 14.24-94.05 53.57t-53.44 94.18q-.98 5.82-7.89 5.82ZM669.03-160H290.36q-54.09 0-92.23-38.13Q160-236.27 160-290.36v-378.67q0-54.41 38.13-92.69Q236.27-800 290.36-800h181.82q8.72 0 14.39 6.7 5.66 6.71 3.35 15.27-10.82 59.21 7.21 117.68 18.02 58.48 61.13 102.09 43.61 43.11 102.09 61.13 58.47 18.03 117.68 7.21 8.56-1.47 15.27 3.76 6.7 5.22 6.7 13.98v181.82q0 54.09-38.28 92.23Q723.44-160 669.03-160Z"/></svg>