<svg xmlns="http://www.w3.org/2000/svg" height="24" viewBox="0 -960 960 960" width="24"><path d="M200-286.15V-200v-560 473.85ZM673.46-140H286.15q-60.61 0-103.38-42.77Q140-225.54 140-286.15v-387.31q0-60.45 42.77-103.49Q225.54-820 286.15-820h163.31q12.75 0 21.38 8.63 8.62 8.63 8.62 21.38 0 12.76-8.62 21.37-8.63 8.62-21.38 8.62H286.15q-35.53 0-60.84 25.42Q200-709.16 200-673.46v387.31q0 35.53 25.31 60.84Q250.62-200 286.15-200h387.31q35.7 0 61.12-25.31Q760-250.62 760-286.15v-163.31q0-12.75 8.63-21.38 8.63-8.62 21.38-8.62 12.76 0 21.37 8.62 8.62 8.63 8.62 21.38v163.31q0 60.61-43.05 103.38Q733.91-140 673.46-140Zm56.15-417.69q-6 0-8-6-15.23-58.31-57.42-100.5t-100.5-57.42q-6-2-6-8 0-7 6-8 58.31-15.24 100.5-57.43t57.42-100.5q2-6 8-6 6.39 0 8 6 15.24 58.31 57.43 100.5t100.5 57.43q6 1 6 8 0 6-6 8-58.31 15.23-100.5 57.42t-57.43 100.5q-1 6-8 6Z"/></svg>