<svg xmlns="http://www.w3.org/2000/svg" height="48" viewBox="0 -960 960 960" width="48"><path d="M191.35-290.59v99.24-577.3 478.06Zm478.28 129.44H290.35q-53.72 0-91.46-37.74-37.74-37.74-37.74-91.46v-379.28q0-52.92 37.74-91.07 37.74-38.15 91.46-38.15h187.23q5.79 0 10.22 4.5 4.43 4.49 4.43 10.37 0 6.9-4.43 11.11-4.43 4.22-10.22 4.22H290.35q-40.79 0-69.9 28.6-29.1 28.6-29.1 69.72v380.28q0 40.49 29.1 69.6 29.11 29.1 69.6 29.1h380.28q41.12 0 69.72-29.1 28.6-29.11 28.6-69.9v-187.23q0-5.79 4.43-10.22 4.43-4.43 10.89-4.43 6.45 0 10.66 4.43 4.22 4.43 4.22 10.22v187.23q0 53.72-38.15 91.46-38.15 37.74-91.07 37.74Zm54.78-403q-5.96 0-7.95-5.68-14.09-54.45-52.98-93.57-38.89-39.13-93.49-53.13-5.84-1.95-5.84-7.78 0-6.66 5.68-7.61 54.77-14.78 93.71-53.36 38.95-38.57 52.89-92.74 1.94-5.83 7.74-5.83 6.62 0 7.75 5.82 14.43 53.72 53.33 92.75 38.89 39.03 92.91 53 5.69.98 5.69 7.78 0 5.87-5.68 7.83-53.86 14.13-92.75 53.03-38.9 38.9-53.12 93.8-.98 5.69-7.89 5.69Z"/></svg>