<svg xmlns="http://www.w3.org/2000/svg" height="20" viewBox="0 -960 960 960" width="20"><path d="M222.78-308.61v85.83V-737.22v428.61Zm428.61 183.83H308.04q-76.78 0-130.02-53.24-53.24-53.24-53.24-130.02v-343.92q0-76.78 53.24-130.02 53.24-53.24 130.02-53.24h128.87q20.39 0 34.7 14.25 14.3 14.24 14.3 34.54 0 20.3-14.3 34.76-14.31 14.45-34.7 14.45H308.04q-35.64 0-60.45 25.21-24.81 25.22-24.81 60.62v342.78q0 35.4 24.81 60.62 24.81 25.21 60.45 25.21h343.35q35.4 0 60.62-25.21 25.21-25.22 25.21-60.62v-128.3q0-20.39 14.24-34.7 14.25-14.3 34.55-14.3 20.29 0 34.75 14.3 14.46 14.31 14.46 34.7v128.87q0 76.78-53.65 130.02-53.65 53.24-130.18 53.24Zm109.14-459.7q-6.1 0-8.14-6-14.56-59.82-58.61-103.87-44.04-44.04-104.22-58.55-5.65-1.81-5.65-7.92 0-7.12 6-8.14 59.83-14.56 103.87-58.61 44.05-44.04 58.77-103.97 1.84-5.9 8.62-5.9 6.79 0 7.22 6 15.41 59.42 59.24 103.25 43.82 43.82 103.24 58.95 6 1.02 6 8.14 0 6.11-6 8.14-59.83 14.57-103.87 58.61-44.04 44.05-58.44 104.23-.9 5.64-8.03 5.64Z"/></svg>