<svg xmlns="http://www.w3.org/2000/svg" height="40" viewBox="0 -960 960 960" width="40"><path d="M190-279.17V-190v-580V-279.17Zm491.69 152.5H279.17q-63.18 0-107.84-44.66-44.66-44.66-44.66-107.84v-402.52q0-63.14 44.66-107.39t107.84-44.25h193.66q12.95 0 22.23 9.31 9.27 9.3 9.27 22.3 0 13.39-9.27 22.55-9.28 9.17-22.23 9.17H279.17q-36.5 0-62.84 25.88-26.33 25.88-26.33 62v403.16q0 36.29 26.33 62.63Q242.67-190 278.96-190h403.16q36.12 0 62-26.33Q770-242.67 770-279.17v-193.66q0-12.95 9.28-22.23 9.29-9.27 22.5-9.27 13.22 0 22.39 9.27 9.16 9.28 9.16 22.23v193.66q0 63.18-44.25 107.84-44.25 44.66-107.39 44.66Zm62.39-444q-5.8 0-7.74-5.76-15.37-58.83-58.14-101.75-42.77-42.91-101.76-58.17-5.77-1.9-5.77-7.62 0-6.73 5.76-7.69 58.94-15.64 101.82-58.33 42.87-42.69 58.11-101.57 1.9-5.77 7.62-5.77 5.76 0 7.68 5.76 15.64 58.61 58.4 101.58t101.5 58.24q5.77.95 5.77 7.63 0 5.77-5.76 7.7-58.61 15.39-101.53 58.15-42.92 42.75-58.28 101.83-.96 5.77-7.68 5.77Z"/></svg>