<svg xmlns="http://www.w3.org/2000/svg" height="40" viewBox="0 -960 960 960" width="40"><path d="M721.49-560.41q-5.98 0-7.97-5.77-14.17-54.72-53.26-94.02-39.09-39.3-93.97-53.37-5.88-1.95-5.88-7.8 0-6.76 5.77-7.72 54.98-14.73 94.14-53.59 39.16-38.85 53.19-93.4 1.94-5.87 7.78-5.87 6.65 0 7.8 5.86 14.5 54.15 53.59 93.41 39.1 39.26 93.49 53.31 5.78.98 5.78 7.81 0 5.9-5.77 7.87-54.24 14.2-93.39 53.29-39.15 39.1-53.4 94.21-.99 5.78-7.9 5.78Zm-53.67 397.59H291.99q-53.87 0-91.52-37.65t-37.65-91.52v-375.83q0-53.42 37.65-91.39t91.52-37.97h182.14q7.99 0 13.61 6.51 5.62 6.5 3.59 14.9-9.92 58.36 7.83 115.74 17.75 57.38 60.72 100.15 42.77 42.97 100.15 60.72t115.77 7.97q8.37-1.44 14.87 3.6 6.51 5.04 6.51 13.45v182.15q0 53.87-37.97 91.52t-91.39 37.65Z"/></svg>