<svg xmlns="http://www.w3.org/2000/svg" height="20" viewBox="0 -960 960 960" width="20"><path d="M719.63-568.92q-5.99 0-7.99-5.95-12.32-51.28-48.82-87.93-36.5-36.64-87.94-48.84-5.96-1.96-5.96-7.86 0-6.94 5.95-7.93 51.41-12.64 88.01-49.04 36.6-36.41 48.77-87.73 1.97-5.95 7.86-5.95 7.71 0 7.92 5.94 13.64 51.03 49.62 87.23 35.99 36.21 87.15 49.43 5.95.98 5.95 7.88 0 5.95-5.94 7.94-51.03 12.33-87.68 48.82-36.65 36.49-48.97 88.03-.99 5.96-7.93 5.96Zm-87.44 378.77H327.27q-58.18 0-97.65-39.47-39.47-39.47-39.47-97.65v-304.92q0-57.77 39.47-97.71 39.47-39.95 97.65-39.95h157.18q7.97 0 12.99 5.83 5.02 5.83 5.18 14.02-1.31 50 18.17 96.44t53.09 79.68q34.24 34.61 80.18 53.59 45.94 18.98 95.97 17.82 8.16-.11 13.99 4.85t5.83 13.15v157.2q0 58.18-39.95 97.65-39.94 39.47-97.71 39.47Z"/></svg>