<svg xmlns="http://www.w3.org/2000/svg" height="20" viewBox="0 -960 960 960" width="20"><path d="M750.75-594q-6.19 0-8.25-6-12.5-54-50.97-92.47Q653.07-730.93 599-744q-6-2.06-6-8.25 0-7.22 6-8.25 54-12.5 92.41-50.85 38.41-38.36 51.46-92.27Q745-910 751.5-910q8.5 0 7.5 6 14.06 54.04 52.01 91.99Q848.96-774.06 903-760q6 1.03 6 8.25 0 6.19-6 8.25-54 12.5-92.47 50.97Q772.07-654.07 759-600q-1.03 6-8.25 6ZM642-164H316q-65 0-108.5-43.5T164-316v-327q0-65 43.5-109T316-796h149q12 0 18.5 10t3.5 21q-10 57 9 113.5t59 96.5q41 41 97 59.5t113 8.5q12-3 21.5 4.08T796-464v148q0 65-44.67 108.5T642-164Z"/></svg>