<svg xmlns="http://www.w3.org/2000/svg" height="40" viewBox="0 -960 960 960" width="40"><path d="M196.67-270.91V-196.67v-566.66V-270.91Zm494 180.24H269.33q-75.31 0-126.99-51.67-51.67-51.68-51.67-126.99v-422q0-74.34 51.67-126.5Q194.02-870 269.33-870H420q22.85 0 37.76 15.34 14.91 15.34 14.91 37.88 0 22.53-14.91 37.99T420-763.33H269.59q-30.75 0-51.84 21.56-21.08 21.56-21.08 51.1v419.34q0 30.11 21.06 52.38 21.07 22.28 51.6 22.28h421.34q29.54 0 51.1-22.28 21.56-22.27 21.56-52.38V-420q0-22.85 15.78-37.76 15.77-14.91 37.4-14.91 23.04 0 38.26 14.91Q870-442.85 870-420v150.67q0 75.31-53.07 126.99-53.08 51.67-126.26 51.67Zm83.25-496q-5.89 0-7.85-5.82-15.49-64.04-62.87-111.28-47.38-47.24-110.73-63.32Q587-769.07 587-775q0-7.11 5.32-8.1 63.11-16.37 110.48-63.09 47.38-46.72 63.83-110.47 2.06-6.34 8.5-6.34 5.69 0 6.63 5.82 16.28 64.22 63.55 111.19 47.26 46.97 110.92 63.37 5.44.99 5.44 7.92 0 5.94-5.48 7.87-63.96 16.28-111.05 63.19-47.09 46.91-63.38 111.15-.98 5.82-7.84 5.82Z"/></svg>