<svg xmlns="http://www.w3.org/2000/svg" height="40" viewBox="0 -960 960 960" width="40"><path d="M480.12-476.54q20.01 0 32.96-12.81 12.96-12.81 12.96-32.43 0-18.95-13.09-32.86-13.09-13.9-32.83-13.9-19.34 0-33 13.85-13.66 13.86-13.66 32.55 0 19.82 13.66 32.71t33 12.89ZM364.37-209.82h232.85l87.29 87.29q-45.21 26.96-96.95 41.25Q535.82-67 480.2-67q-55.85 0-107.63-13.8-51.78-13.8-96.98-41.14l88.78-87.88Zm115.01-683.34q85.88 0 161.29 32.44 75.4 32.44 131.48 88.57 56.08 56.13 88.54 131.24Q893.16-565.8 893.16-480q0 91.49-36.46 170.3-36.45 78.82-99.87 135.05l-100.5-99.83q43.19-37.08 68.9-90.42 25.71-53.34 25.71-115.1 0-112.61-79.14-191.77-79.15-79.17-191.72-79.17-112.4 0-191.38 79.15-78.98 79.15-78.98 191.73 0 61.61 25.4 114.89 25.39 53.27 69.22 90.45l-100.5 99.84q-63.47-56.51-100.16-135.2Q67-388.77 67-480q0-85.83 32.55-160.96 32.54-75.13 88.84-131.2 56.29-56.07 130.91-88.53 74.62-32.47 160.08-32.47Zm1.02 228.17q76.91 0 131.13 53.84t54.22 130.75q0 76.91-54.22 131.15-54.22 54.24-131.13 54.24t-131.15-54.24q-54.24-54.24-54.24-131.15t54.24-130.75q54.24-53.84 131.15-53.84ZM115.86-63.15q19.14 0 32.71-13.24t13.57-33.05q0-19.15-13.58-32.72t-32.63-13.57q-19.89 0-33.13 13.58-13.23 13.58-13.23 32.63 0 19.89 13.23 33.13 13.24 13.24 33.06 13.24ZM15.78 39.48q19.22 0 32.79-13.24Q62.15 13 62.15-6.81q0-19.15-13.58-32.72Q35-53.1 15.86-53.1q-19.82 0-33.05 13.58-13.24 13.58-13.24 32.63 0 19.89 13.25 33.13 13.24 13.24 32.96 13.24ZM844.22-63.15q-19.22 0-32.79-13.24t-13.57-33.05q0-19.15 13.57-32.72t32.71-13.57q19.82 0 33.06 13.58 13.23 13.58 13.23 32.63 0 19.89-13.24 33.13-13.25 13.24-32.97 13.24Zm99.93 102.63q-19.15 0-32.64-13.24-13.5-13.24-13.5-33.05 0-19.15 13.5-32.72Q925-53.1 944.15-53.1q19.81 0 33.13 13.58 13.31 13.58 13.31 32.63 0 19.89-13.31 33.13-13.32 13.24-33.13 13.24Z"/></svg>