<svg xmlns="http://www.w3.org/2000/svg" height="20" viewBox="0 -960 960 960" width="20"><path d="M479.95-471.69q16.98 0 29.63-12.44 12.65-12.44 12.65-29.42 0-17.76-12.44-30.68-12.44-12.92-29.42-12.92-17.75 0-31.18 12.71-13.42 12.71-13.42 30.46 0 16.99 13.21 29.64 13.21 12.65 30.97 12.65ZM406-281.54h146.46l119.39 118.62q-43.93 24.69-90.81 38.8Q534.15-110 480.5-110q-53.65 0-101.51-13.92-47.85-13.93-91.61-39L406-281.54ZM479.79-850q74.98 0 142.53 29.12 67.56 29.13 118.5 80.06 50.93 50.94 80.06 118.35Q850-555.06 850-480q0 85.91-35.31 157.99-35.31 72.09-96.38 121.93L598.62-320.77q36.38-26.15 58.23-67.82 21.84-41.67 21.84-91.41 0-82.85-57.9-141.16-57.9-58.3-140.73-58.3-82.83 0-140.79 58.3-57.96 58.31-57.96 141.16 0 49.74 21.84 91.41 21.85 41.67 58.23 67.82L240.69-200.08q-61.07-49.84-95.88-121.93Q110-394.09 110-480q0-75.06 28.74-142.47t79.67-118.35q50.94-50.93 118.28-80.06Q404.03-850 479.79-850Zm.21 229.54q59.19 0 100.33 40.63 41.13 40.64 41.13 99.83 0 59.96-41.13 100.21-41.14 40.25-100.33 40.25-59.96 0-100.21-40.25-40.25-40.25-40.25-100.21 0-59.19 40.25-99.83 40.25-40.63 100.21-40.63ZM129.79-82.77q17.59 0 30.52-13.1 12.92-13.09 12.92-29.92 0-17.59-12.71-30.52-12.71-12.92-30.31-12.92-16.83 0-30.13 12.71-13.31 12.71-13.31 30.31 0 16.83 13.1 30.13 13.09 13.31 29.92 13.31Zm-102 102q17.59 0 30.52-13.1Q71.23-6.96 71.23-23.79q0-17.59-12.71-30.52-12.71-12.92-30.31-12.92-16.83 0-30.13 12.71-13.31 12.71-13.31 30.31 0 16.83 13.1 30.13 13.09 13.31 29.92 13.31Zm802.42-102q-17.59 0-30.52-13.1-12.92-13.09-12.92-29.92 0-17.59 12.71-30.52 12.71-12.92 30.31-12.92 16.83 0 30.13 12.71 13.31 12.71 13.31 30.31 0 16.83-13.1 30.13-13.09 13.31-29.92 13.31Zm102 102q-17.59 0-30.52-13.1-12.92-13.09-12.92-29.92 0-17.59 12.71-30.52 12.71-12.92 30.31-12.92 16.83 0 30.13 12.71 13.31 12.71 13.31 30.31 0 16.83-13.1 30.13-13.09 13.31-29.92 13.31Z"/></svg>