<svg xmlns="http://www.w3.org/2000/svg" height="20" viewBox="0 -960 960 960" width="20"><path d="M129.79-72Q152-72 168-87.79t16-38Q184-148 168.21-164t-38-16Q108-180 92-164.21t-16 38Q76-104 91.79-88t38 16Zm-102 102Q50 30 66 14.21t16-38Q82-46 66.21-62t-38-16Q6-78-10-62.21t-16 38Q-26-2-10.21 14t38 16Zm452.58-494q-22.37 0-38.87-15.13-16.5-15.13-16.5-37.5Q425-539 441.29-555q16.29-16 38.66-16 22.37 0 37.71 15.79T533-517.05q0 22.37-15.13 37.71T480.37-464ZM406-260l-61 61q31 15 64.75 23 33.76 8 70 8 36.25 0 70.75-8t65.5-23l-62-61H406Zm73.84-532q-63.84 0-120.86 24.75-57.01 24.75-99.5 67.5Q217-657 192.5-600.6 168-544.19 168-480.04q0 65.04 25.12 123.08Q218.24-298.92 262-256l65-65q-32-30-50-70.48-18-40.48-18-88.71Q259-573 323.23-637q64.22-64 157-64Q573-701 637-636.88q64 64.12 64 156.75 0 48.13-18 88.63-18 40.5-50 70.5l65 65q43.76-42.82 68.88-100.03Q792-413.25 792-480q0-64.21-24.85-120.66-24.85-56.46-67.37-99-42.51-42.54-99.3-67.44T479.84-792Zm.04 190Q429-602 393-566.38q-36 35.62-36 86.5t35.82 86.38q35.83 35.5 87 35.5 51.18 0 86.68-35.62 35.5-35.62 35.5-86.5t-35.62-86.38q-35.62-35.5-86.5-35.5Zm.33 530Q395-72 320.37-104.1q-74.64-32.1-130.4-87.37-55.77-55.26-87.87-129.45T70-480.05q0-84.95 32.1-159.58 32.1-74.64 87.87-130.4 55.76-55.77 130.18-87.87Q394.57-890 479.79-890q85.21 0 159.84 32.1 74.64 32.1 130.4 87.87 55.77 55.76 87.87 130.18Q890-565.43 890-480.21q0 85.21-32.1 159.34-32.1 74.14-87.87 129.4-55.76 55.27-130.18 87.37Q565.43-72 480.21-72Zm350 0Q808-72 792-87.79t-16-38Q776-148 791.79-164t38-16Q852-180 868-164.21t16 38Q884-104 868.21-88t-38 16Zm102 102Q910 30 894 14.21t-16-38Q878-46 893.79-62t38-16Q954-78 970-62.21t16 38Q986-2 970.21 14t-38 16Z"/></svg>