<svg xmlns="http://www.w3.org/2000/svg" height="20" viewBox="0 -960 960 960" width="20"><path d="M102.79-19Q128-19 146-36.79t18-43Q164-105 146.21-123t-43-18Q78-141 60-123.21t-18 43Q42-55 59.79-37t43 18Zm-106 119Q22 100 40 82.21t18-43Q58 14 40.21-4t-43-18Q-28-22-46-4.21t-18 43Q-64 64-46.21 82t43 18Zm483.74-558q-25.53 0-44.03-16.47-18.5-16.48-18.5-42Q418-542 436.29-560t43.82-18q25.52 0 42.71 17.79Q540-542.42 540-516.89q0 25.52-16.97 42.21Q506.05-458 480.53-458ZM404-249l-53 52q29.59 14 62.05 21 32.46 7 66.7 7 34.25 0 67.8-7 33.54-7 62.45-21l-54-52H404Zm75.7-542q-63.7 0-120.66 24.13-56.96 24.14-99 67Q218-657 193.5-600 169-542.99 169-480.04q0 62.04 21.62 116.58T252-266l57-57q-29-30-44.5-70.43-15.5-40.43-15.5-86.76 0-96.43 67.42-163.62Q383.83-711 480.23-711q96.39 0 163.58 67.31Q711-576.38 711-480.13q0 46.23-15.5 86.68Q680-353 651-323l57 57q38.76-42.82 60.88-97.03Q791-417.25 791-480q0-63.1-24.23-120.25-24.24-57.14-66.87-99.54-42.63-42.41-100.07-66.81Q542.39-791 479.7-791Zm.36 187Q428-604 392-568.06t-36 88Q356-428 391.65-392q35.64 36 88 36Q532-356 568-391.94q36-35.94 36-88T568.06-568q-35.94-36-88-36Zm.37 562Q389-42 309.37-76.6q-79.64-34.6-139.4-93.87-59.77-59.26-93.87-138.74Q42-388.68 42-479.84 42-570 76.1-650.13q34.1-80.14 93.87-139.4 59.76-59.27 138.97-93.87Q388.15-918 479.57-918q90.43 0 170.56 34.6 80.14 34.6 139.4 93.87 59.27 59.26 93.87 138.97Q918-570.85 918-480.43q0 91.43-34.6 171.06-34.6 79.64-93.87 138.9-59.26 59.27-138.97 93.87Q570.85-42 480.43-42Zm376.78 23Q832-19 814-36.79t-18-43Q796-105 813.79-123t43-18Q882-141 900-123.21t18 43Q918-55 900.21-37t-43 18Zm106 119Q938 100 920 82.21t-18-43Q902 14 919.79-4t43-18Q988-22 1006-4.21t18 43Q1024 64 1006.21 82t-43 18Z"/></svg>