<svg xmlns="http://www.w3.org/2000/svg" height="40" viewBox="0 -960 960 960" width="40"><path d="M156.92-130.77q11.11 0 18.63-7.84 7.53-7.84 7.53-18.31 0-11.11-7.53-18.63-7.52-7.53-18.37-7.53-10.74 0-18.58 7.53-7.83 7.52-7.83 18.37 0 10.74 7.84 18.58 7.84 7.83 18.31 7.83Zm-80 80q11.11 0 18.63-7.84 7.53-7.84 7.53-18.31 0-11.11-7.53-18.63-7.52-7.53-18.37-7.53-10.74 0-18.58 7.53-7.83 7.52-7.83 18.37 0 10.74 7.84 18.58 7.84 7.83 18.31 7.83ZM480-491.59q-11.1 0-18.63-7.84-7.52-7.84-7.52-18.31 0-11.11 7.52-18.63 7.53-7.53 18.37-7.53 10.75 0 18.58 7.53 7.83 7.52 7.83 18.37 0 10.74-7.84 18.58-7.84 7.83-18.31 7.83Zm-68.79 179.8-77.65 77.48q32.65 19.52 69.49 29.99 36.85 10.47 76.95 10.47t77.03-10.47q36.92-10.47 69.56-29.99l-78.18-77.48h-137.2Zm68.69-454.36q-59.03 0-111.34 22.48-52.3 22.49-91.02 61.39-38.72 38.9-61.21 91.04-22.48 52.14-22.48 111.07 0 69.73 30.34 128.12 30.35 58.38 81.17 98.02l84.31-84.15q-35.44-22.46-56.66-59.76-21.22-37.29-21.22-82.06 0-70.21 49.11-119.46Q410-648.72 480-648.72q70.21 0 119.46 49.26 49.26 49.25 49.26 119.46 0 44.77-21.48 82.37-21.47 37.6-56.91 60.07l84.31 83.64q51.01-39.2 81.26-97.86 30.25-58.66 30.25-128.39 0-58.93-22.48-111.07-22.49-52.14-61.39-91.04-38.9-38.9-91.12-61.39-52.23-22.48-111.26-22.48Zm-.05 151.28q-56.2 0-95.21 39.46-39 39.46-39 95.56 0 56.2 39 95.21 39.01 39 95.21 39 56.1 0 95.56-39 39.46-39.01 39.46-95.21 0-56.1-39.46-95.56t-95.56-39.46Zm.01 454.87q-66.01 0-124.32-25.04-58.31-25.04-101.89-68.61-43.57-43.58-68.61-101.85Q160-413.78 160-479.74q0-66.64 25.04-124.91 25.04-58.27 68.61-101.77 43.58-43.5 101.85-68.54Q413.78-800 479.74-800q66.64 0 124.91 25.04 58.27 25.04 101.77 68.54 43.5 43.5 68.54 101.69Q800-546.54 800-479.86q0 66.01-25.04 124.32-25.04 58.31-68.54 101.98-43.5 43.67-101.69 68.62Q546.54-160 479.86-160Zm323.22 29.23q-11.11 0-18.63-7.84-7.53-7.84-7.53-18.31 0-11.11 7.53-18.63 7.52-7.53 18.37-7.53 10.74 0 18.58 7.53 7.83 7.52 7.83 18.37 0 10.74-7.84 18.58-7.84 7.83-18.31 7.83Zm80 80q-11.11 0-18.63-7.84-7.53-7.84-7.53-18.31 0-11.11 7.53-18.63 7.52-7.53 18.37-7.53 10.74 0 18.58 7.53 7.83 7.52 7.83 18.37 0 10.74-7.84 18.58-7.84 7.83-18.31 7.83Z"/></svg>