<svg xmlns="http://www.w3.org/2000/svg" height="40" viewBox="0 -960 960 960" width="40"><path d="M480-490.77q11.96 0 20.39-8.17 8.43-8.16 8.43-20.12 0-11.94-8.43-20.38T480-547.88q-11.94 0-20.12 8.44-8.17 8.44-8.17 20.38 0 11.96 8.17 20.12 8.18 8.17 20.12 8.17ZM365.29-247.89h229.67l55.45 55.21q-37.78 22.88-80.83 35.41-43.04 12.53-89.58 12.53-46.71 0-89.81-11.97-43.11-11.97-80.37-34.92l55.47-56.26Zm114.65-567.37q69.56 0 130.52 26.49 60.96 26.49 106.39 71.92 45.43 45.43 71.92 106.46 26.49 61.03 26.49 130.28 0 79.38-33.88 146.52-33.88 67.14-90.82 113.09l-73-72.74q43.11-31.22 68.78-80.04Q712.01-422.1 712.01-480q0-96.79-67.71-164.84Q576.58-712.9 480-712.9q-96.67 0-164.45 68.06-67.78 68.05-67.78 164.84 0 57.9 25.81 106.72 25.82 48.82 69.38 80.04L270.1-220.5q-57.19-45.95-91.27-113.14-34.09-67.19-34.09-146.46 0-69.15 26.52-130.24 26.52-61.08 71.86-106.51 45.34-45.43 106.31-71.92 60.97-26.49 130.51-26.49Zm.02 150.75q76.69 0 130.62 53.96 53.93 53.97 53.93 130.41 0 76.58-53.96 130.47-53.97 53.9-130.41 53.9-76.58 0-130.47-53.79-53.9-53.8-53.9-130.4 0-76.69 53.79-130.62 53.8-53.93 130.4-53.93ZM155.13-126.83q11.93 0 20.38-8.17 8.44-8.17 8.44-20.13 0-11.93-8.44-20.38-8.45-8.44-20.38-8.44-11.96 0-20.13 8.44-8.17 8.45-8.17 20.38 0 11.96 8.17 20.13 8.17 8.17 20.13 8.17Zm-80 80q11.93 0 20.38-8.17 8.44-8.17 8.44-20.13 0-11.93-8.44-20.38-8.45-8.44-20.38-8.44-11.96 0-20.13 8.44-8.17 8.45-8.17 20.38Q46.83-63.17 55-55q8.17 8.17 20.13 8.17Zm729.74-80q-11.93 0-20.11-8.17t-8.18-20.13q0-11.93 8.18-20.38 8.18-8.44 20.11-8.44 11.96 0 20.39 8.44 8.43 8.45 8.43 20.38 0 11.96-8.43 20.13-8.43 8.17-20.39 8.17Zm80 80q-11.93 0-20.11-8.17t-8.18-20.13q0-11.93 8.18-20.38 8.18-8.44 20.11-8.44 11.96 0 20.39 8.44 8.43 8.45 8.43 20.38 0 11.96-8.43 20.13-8.43 8.17-20.39 8.17Z"/></svg>