<svg xmlns="http://www.w3.org/2000/svg" height="40" viewBox="0 -960 960 960" width="40"><path d="M540.67-341.93q25.16-25 23.66-59.67t-29.66-53.17q-60.88-40.78-122.78-82.56-61.9-41.79-123.65-83.74-15.1-10.18-27.56 2.05-12.45 12.22-2.31 27.32 41.28 61.59 83.22 123.41 41.94 61.81 83.18 122.36 19.63 28.66 54.69 29.38 35.06.72 61.21-25.38ZM198.08-150.67q-22.81 0-42.23-10.42-19.41-10.42-30.96-29.95-27.84-47.49-40.77-100.82-12.93-53.34-12.93-109.57-.73-83.46 32.22-157.48 32.94-74.01 89.15-129.59 56.22-55.59 130.85-88.03t157.36-32.44q84.37 0 158.98 32.22 74.61 32.23 129.94 87.87 55.33 55.65 87.31 130.36 31.97 74.72 31.97 159.09 0 55.71-14.15 108.13-14.15 52.42-40.96 100.26-10.49 19.91-30.51 30.14-20.02 10.23-42.02 10.23H198.08Z"/></svg>