<svg xmlns="http://www.w3.org/2000/svg" height="40" viewBox="0 -960 960 960" width="40"><path d="M534.9-348.08q22.09-21.73 20.49-52.55-1.6-30.82-26.48-47.13-60.1-40.37-120.22-81.61-60.11-41.24-120.15-82.77-10.76-7.01-19.68 1.6t-1.31 19.34q40.62 60.06 82.28 120.07 41.67 60 82.81 119.05 17.08 25.39 48.09 26.39 31 1.01 54.17-22.39ZM200.18-184.77q-14.37 0-26.28-5.97-11.91-5.98-19.62-18.27-24.86-43.88-37.05-92.84-12.19-48.96-12.19-100.51-.29-76.11 29.98-143.88 30.26-67.77 81.96-118.54 51.71-50.77 119.91-80.62 68.2-29.86 144.19-29.86 77.68 0 145.7 29.66 68.01 29.65 118.81 80.59 50.79 50.95 80.23 119.1 29.44 68.16 29.44 145.8 0 51.26-12.95 98.94-12.94 47.68-37.03 90.56-6.76 12.67-19.44 19.26-12.69 6.58-25.84 6.58H200.18Z"/></svg>