<svg xmlns="http://www.w3.org/2000/svg" height="20" viewBox="0 -960 960 960" width="20"><path d="M521-371q14-14 13-35.5T515-441q-48-31-95.5-66t-93.32-69.29Q316-584 308.5-576.5t.32 17.89q34.76 46.74 70.47 92.68Q415-420 449.94-376.13 464-359 484-357t37-14ZM191-244q-4.85 0-8.92-2.5Q178-249 175-253q-16-28.54-21-62.47T149-384q0-43.66 9-84.81 9-41.15 28-80.19 3.05-2.62 6.53-2.31Q196-551 200-549q4 2 4 6.35t-2 7.65q-18 36-25.5 73.83T169-384q0 31.53 5.5 61.26Q180-293 191.05-264H769q11-29 17-58.72t6-61.28q0-129.67-91.45-220.84Q609.09-696 479-696q-22.89 0-44.92 2.71-22.04 2.71-44.08 8.29-4 2-8.5-.5t-4.5-7q0-4.5 1.44-7.45 1.45-2.94 6.56-4.05 24-6 47.04-9t44.96-3q69.09 0 130.54 25.5Q669-665 714-620.5q45 44.5 71.5 105.32Q812-454.36 812-386.46q0 34.54-5.5 68.5T784-257q-3.09 6-7.24 9.5-4.16 3.5-8.76 3.5H191Zm297-159Z"/></svg>