<svg xmlns="http://www.w3.org/2000/svg" height="40" viewBox="0 -960 960 960" width="40"><path d="M525.67-357q17.16-16.5 15.41-41.17-1.75-24.66-21.39-37.49-52.52-36.67-103.75-74.03-51.23-37.35-102.8-75.21-9.86-6.77-18.25 1.48t-.61 18.03q36.55 51.89 74.62 102.97 38.06 51.09 75.43 101.42 14.82 20.13 39.02 21.15 24.21 1.02 42.32-17.15ZM202.33-214q-7.49 0-13.13-2.33-5.64-2.34-10.2-8.17-22.5-40.21-33.67-85.64-11.16-45.43-11.16-92.79-.49-70.69 27-133.3 27.5-62.6 74.99-109.13 47.49-46.53 110.69-73.75 63.19-27.22 133.82-27.22 72.11 0 134.55 27.5 62.45 27.5 109.45 74.08T799-535.22q27.33 62.94 27.33 134.94 0 47.12-11.91 90.7-11.92 43.58-33.75 80.93-2.92 6.82-9.9 10.73-6.97 3.92-12.9 3.92H202.33Z"/></svg>