<svg xmlns="http://www.w3.org/2000/svg" height="24" viewBox="0 -960 960 960" width="24"><path d="M534.23-349.08q21.42-21.73 19.83-51.88-1.6-30.15-25.82-46.47-57.28-38.95-114.75-78.67-57.47-39.71-114.95-79.42-12.17-8.09-22.45 2.04-10.28 10.13-1.93 22.28 39.73 57.16 79.61 114.23 39.88 57.07 79.54 113.89 17.08 24.72 47.58 25.73 30.5 1 53.34-21.73ZM207.54-187.77q-15.94 0-29-6.35-13.07-6.34-20.85-19.53-25.27-44.21-37.5-92.88-12.23-48.66-12.23-99.54.12-75.37 30.39-141.9t81.13-116.26q50.87-49.73 118.24-78.71 67.37-28.98 142.28-28.98 77.02 0 144.66 29.15 67.65 29.16 118.15 79.56 50.5 50.4 79.8 117.89 29.31 67.5 29.31 144.47 0 49.92-12.48 96.73t-36.83 88.87q-7.84 13.83-21.38 20.65-13.54 6.83-28.51 6.83H207.54Z"/></svg>