<svg xmlns="http://www.w3.org/2000/svg" height="40" viewBox="0 -960 960 960" width="40"><path d="M541.7-341.54q24.68-25.33 23.63-60.24-1.05-34.91-29.63-53.16-63.88-40.67-127.96-83.86-64.07-43.19-128.3-86.86-12.5-8.28-23.14 2.03-10.65 10.31-2.27 22.87 43.09 64.25 86.6 128.23 43.5 63.98 85.74 126.99 18.67 28.67 53.92 29.42t61.41-25.42ZM198.51-159.8q-20.56 0-37.93-9.17t-27.65-26.86q-26.97-46.72-39.84-99.01-12.87-52.29-12.87-106.92 0-45.89 10.86-89.77 10.86-43.88 32.75-84.46 6.24-13.01 20.32-15.6 14.09-2.59 27.06 5.79 12.16 8.92 15.81 23.09 3.65 14.18-3.02 27.4-17.36 30.68-24.4 64.62-7.04 33.94-7.04 69.6 0 44.94 10.31 88.24 10.3 43.3 34.57 80.86H762.3q22.63-38.26 33.97-80.87 11.34-42.62 11.34-86.98 0-136.12-95.16-231.95-95.16-95.82-231.36-95.82-26.3 0-51.49 4.45-25.19 4.44-49.26 12.57-15.08 5.08-29.25-.65-14.18-5.73-20.97-19.78-6.97-13.67-1.86-27.78 5.11-14.12 19.57-18.4 33.42-11.46 67.35-17.1 33.92-5.65 67.25-5.65 82.56.16 154.87 31.75 72.3 31.59 126.21 86.02 53.9 54.43 85.17 127.22 31.27 72.78 31.27 155.26 0 54.49-13.82 105.7-13.83 51.2-39.82 98.15-9.79 17.87-27.56 26.96t-37.42 9.09H198.51Zm287.53-235.64Z"/></svg>