<svg xmlns="http://www.w3.org/2000/svg" height="20" viewBox="0 -960 960 960" width="20"><path d="M530-362q14-15 13.5-39.5T523-438q-50-26-97.5-63t-93.32-74.29Q318-587 307-575.5t-.18 25.89q36.76 46.74 74.47 92.68Q419-411 451.94-367.13q15.15 19.06 37.1 21.1Q511-344 530-362ZM179-212q-10.07 0-18.53-5.5Q152-223 147-231q-17-32.54-23-71.06-6-38.53-6-77.94 0-45.02 8.5-87.49Q135-509.96 152-551q4.05-7.62 11.53-7.81Q171-559 180.5-555t11.5 12.85q2 8.85-1 17.15-15.63 34.7-21.82 71.18Q163-417.34 163-380q0 32.22 5 62.61T182.05-257H777q10-31 16-60.72t6-62.5q0-133.45-92.95-228.12Q613.09-703 479-703q-18.89 0-37.88 1.39-19 1.4-38.12 4.61-9 4-18.5-1T373-712.5q-2-9.5.44-16.95 2.45-7.44 12.56-9.55 24-4.5 47.04-6.75T477-748q76 0 143.5 28.5T737-642q49 49 78 116.82t29 143.01q0 39.29-6.5 77.73Q831-266 811-235q-5.09 10-13.43 16.5-8.35 6.5-17.57 6.5H179Zm314-185Z"/></svg>