<svg xmlns="http://www.w3.org/2000/svg" height="20" viewBox="0 -960 960 960" width="20"><path d="M524.85-364.15q19.53-19.54 18.03-48t-24.03-44.16Q466.46-492 412.62-529.58q-53.85-37.59-107.19-74.68-10.97-7.58-20.81 1.45-9.85 9.04-2.19 20.99 37.42 54.28 74.86 107.41 37.44 53.13 74.4 105.26 15.46 23.53 43.49 24.53 28.02 1 49.67-19.53ZM191.62-212q-13.55 0-24.97-6.5-11.42-6.5-18.11-18.5-19.08-32.52-25.62-70.8-6.53-38.28-6.53-77.43Q116-460.77 144.58-527q28.58-66.23 77.69-115.35 49.12-49.11 115.65-77.38Q404.46-748 479-748q75.94 0 142.39 28.46 66.46 28.46 115.57 77.58 49.12 49.11 78.08 115.07Q844-460.94 844-386q0 39.07-7.04 77.3-7.04 38.24-25.88 70.16-7.34 12.77-18.75 19.65Q780.92-212 768-212H191.62Z"/></svg>