<svg xmlns="http://www.w3.org/2000/svg" height="24" viewBox="0 -960 960 960" width="24"><path d="M538.83-340.74q26-26 24.28-61.06-1.72-35.07-30.28-55.5-56.61-41.92-114.68-80.79-58.06-38.87-117.06-77.74-18.52-12.39-34.2 3.29-15.67 15.67-3.28 34.19 38.87 59.03 77.74 117.58t79.48 116.03q20 29 56 29.5t62-25.5ZM203.87-140.78q-26.52 0-49.54-12.05-23.03-12.04-36.29-35-29.13-49.69-43.41-104.79-14.28-55.09-14.28-112.81 0-32.32 5.3-63.7 5.31-31.39 15.91-61.7 6.57-20.08 27.09-27.56t39.89 2.22q19.37 9.69 27.42 29.71 8.04 20.03 2.04 41.68-6.17 20.04-9.2 40.21-3.02 20.16-3.02 41.14 0 41.73 10.66 81.67 10.65 39.94 31.95 75.54h543.09q19.87-35.43 30.8-73.9 10.94-38.47 10.94-79.31 0-130.74-91.52-222.27-91.53-91.52-222.27-91.52-21.39 0-42 3.31-20.6 3.3-41.08 9.48-21.65 5.56-41.74-2.48-20.09-8.05-29.78-28.13-9.7-20.09-2-40.4 7.69-20.3 28.34-26.87 30.47-10.17 62.78-15.26 32.31-5.08 65.48-5.08 87.04 0 163.07 32.95 76.03 32.95 133.18 89.95 57.15 57.01 90.06 133.11 32.91 76.09 32.91 163.21 0 56.54-14.56 109.94-14.57 53.4-42.26 101.66-12.7 22.96-36.25 35-23.55 12.05-49.58 12.05H203.87ZM481.83-396.3Z"/></svg>