<svg xmlns="http://www.w3.org/2000/svg" height="24" viewBox="0 -960 960 960" width="24"><path d="M544.76-334.48Q571-361.24 569.5-398.5q-1.5-37.26-31.59-57.32-60.24-40.51-120.57-81.71-60.34-41.2-121.64-83.4-19.2-13.72-35.78 3.23-16.57 16.96-3.62 36.16 41.53 61.55 82.69 122.26 41.16 60.71 81.97 120.8 20.88 30.7 58.46 31.23 37.58.53 65.34-27.23ZM194.2-124.65q-28.34 0-52.46-13.1-24.13-13.1-37.85-37.29-29.24-52.24-44.24-109.72-15-57.47-15-117.48 0-35.14 5.78-69.28 5.79-34.13 16.83-66.94 7-21.43 28.44-28.15 21.43-6.72 42.25 3.76 21.05 10.24 29.27 31.56 8.21 21.31 1.45 43.99-5.67 21.02-8.76 42.94-3.08 21.92-3.08 44.12 0 43.57 10.64 84.91 10.64 41.33 31.4 78.74h562.02q19.76-37.52 31.02-77.16 11.26-39.64 11.26-82.75 0-135.21-94.04-230.94-94.04-95.73-229.37-95.73-21.35 0-42.5 3.2-21.16 3.21-41.56 8.88-22.68 7-44.11-1.71-21.44-8.72-31.8-30.16-10.36-21.43-2.9-42.76 7.45-21.33 29.18-28.3 32.16-10.78 65.9-15.94 33.75-5.15 67.79-5.15 90.58 0 169.7 34.64 79.12 34.63 138.15 94.09 59.02 59.47 93.26 139.41 34.24 79.95 34.24 170.97 0 59.16-15.03 114.92-15.04 55.77-44.37 106.07-13.56 24.4-37.98 37.38-24.41 12.98-51.4 12.98H194.2Zm290.28-267.59Z"/></svg>