<svg xmlns="http://www.w3.org/2000/svg" height="40" viewBox="0 -960 960 960" width="40"><path d="M544.33-335.67q26-26.33 25-63.16-1-36.84-31-56.84-65.33-42.66-131-87.16-65.66-44.5-132-89.5-14.66-9.67-26.5 2.33-11.83 12-2.5 26.67 44 66.33 88 132.16 44 65.84 88 131.17 19.34 31.33 56.67 32 37.33.67 65.33-27.67Zm-356 197q-23 0-42.33-10.83T115-180q-27.67-50-41.67-105t-14-113.67q-.66-85 33.34-161.83 34-76.83 92-134.67 58-57.83 134.83-92 76.83-34.16 161.83-34.16 87.34 0 163.84 33.5t133.33 91.16Q835.33-639 868.33-561.5q33 77.5 33 164.83 0 58.34-15 112.84t-42 103.83q-11 19.67-30.66 30.5Q794-138.67 772-138.67H188.33Z"/></svg>