<svg xmlns="http://www.w3.org/2000/svg" height="48" viewBox="0 -960 960 960" width="48"><path d="M547-336q25-26 24.5-63t-31.18-55.93Q472-496 404-542q-68-46-136-93-12-8-22.5 2t-2.5 22q46 69.36 92 136.68Q381-407 425-340q19.09 30.93 56.54 31.47Q519-308 547-336ZM186-144q-21.49 0-38.75-10Q130-164 119-182q-27-49-40.5-103.47T65-397q0-52.02 12.5-101.51T116-593q6-13 20.33-14.5 14.32-1.5 27.3 7.48 12.63 8.98 15.5 23.5Q182-562 175-549q-20.63 33.7-29.32 72.81Q137-437.08 137-397q0 47.85 11 93.93Q159-257 184-217h592q24-41 36-86.57 12-45.58 12-93.94 0-142.58-99.5-244.54Q625-744 482-744q-24.71 0-49.32 4.68-24.6 4.69-47.68 11.32-15.87 5-30.43-1.5Q340-736 334-750t-1-28q5-14 20-19 33-9.5 66.33-14.25T484-816q85.99 0 161.1 33.72 75.1 33.72 131 90.5Q832-635 864-559q32 76 32 162.17 0 57.4-15 111.62Q866-231 840-182q-10 18-28.03 28-18.04 10-37.97 10H186Zm302-248Z"/></svg>