<svg xmlns="http://www.w3.org/2000/svg" height="20" viewBox="0 -960 960 960" width="20"><path d="M532.31-359q16.07-17.08 15.46-43.88-.62-26.81-22.46-40.43-52.08-28.54-102.12-66.23-50.04-37.69-98.69-75.73-14.81-11.88-26.5.31-11.69 12.19-.73 27.2 37.41 49.56 75.76 98.27 38.35 48.72 72.91 95.36 16.3 21.14 40.91 23.06 24.61 1.92 45.46-17.93ZM179.23-200q-13.34 0-24.55-7-11.22-7-17.6-18-18.16-34.03-24.73-74.19-6.58-40.15-6.58-81.27 0-45.1 8.61-87.65Q123-510.65 140-551.69q4.96-10.01 14.87-11.09 9.9-1.07 21.48 4.32 11.57 5.38 14.38 16.43 2.81 11.04-1.11 21.88-14.71 33.55-20.78 68.81-6.07 35.26-6.07 71.34 0 32.22 5.23 62.61T182.27-257H777q10-31 16-60.72t6-62.5q0-133.45-92.95-228.12Q613.09-703 479-703q-19.13 0-38.36 1.58-19.22 1.57-38.56 5.11-11.31 4.69-23-1-11.7-5.69-15.08-17.38-3.38-11.69-.12-21.46 3.27-9.77 15.43-12.77 25.15-5.66 50.04-8.37 24.88-2.71 48.11-2.71 78.54 0 148 29.54t120.08 80.27q50.61 50.73 80.54 120.51Q856-459.9 856-382.06q0 41.01-7.08 81.07-7.07 40.07-27.77 72.91-6.68 12.54-17.78 20.31Q792.27-200 780-200H179.23Zm311.92-198.15Z"/></svg>