<svg xmlns="http://www.w3.org/2000/svg" height="40" viewBox="0 -960 960 960" width="40"><path d="M542.45-339.12q25.62-26 24.43-61.54-1.2-35.54-30.43-55.02-62.03-40.67-124.66-82.87-62.63-42.2-125.72-85.16-15.39-10.3-28.35 2.33-12.97 12.63-2.29 28.02 42.21 63.35 84.78 126.08l84.24 124.16q19.33 29 55.33 29.84 36 .83 62.67-25.84ZM195.58-144.17q-23.66 0-43.72-11t-32.14-31.21q-28.17-48.65-41.93-103.15-13.76-54.5-13.76-111.24 0-43.62 9.82-85.29 9.83-41.68 29.19-80.65 6.57-16.29 23.52-20.58 16.95-4.29 33.2 5.41 15.65 9.38 20.94 26.47 5.3 17.09-1.37 33.9-15.37 28.19-21.36 58.86-5.98 30.66-5.98 62.55 0 44.51 10.65 87.44 10.65 42.92 34.04 80.91h566.18q21.91-38.77 33.36-80.85 11.46-42.09 11.46-86.35 0-136.64-95.04-232.69-95.05-96.04-231.87-96.04-22.53 0-43.89 3.49t-42.59 9.75q-18.43 5.19-35.81-2.29-17.38-7.47-24.89-24.81-7.5-17.33-1.06-34.18 6.45-16.85 24.47-21.77 31.51-9.22 63.05-13.68 31.54-4.47 62.05-4.47 86.18.38 161.21 33.28 75.04 32.91 131.29 89.54 56.26 56.63 88.65 132.31 32.39 75.67 32.39 161.6 0 56.66-14.57 110.18-14.56 53.51-41.73 102.31-11.14 20.62-31.81 31.44-20.68 10.81-43.53 10.81H195.58Zm289.87-250.51Z"/></svg>