<svg xmlns="http://www.w3.org/2000/svg" height="20" viewBox="0 -960 960 960" width="20"><path d="M534.83-357.74q21.5-22 20.53-53.31-.97-31.32-26.53-48.75-53.61-33.42-107.68-70.79-54.06-37.37-107.15-74.29-16.43-11.34-29.86 2.09-13.42 13.42-2.08 30.03 36.92 53.44 74.79 106.49 37.87 53.05 74.91 103.4 18.07 25.13 48.32 26.88t54.75-21.75ZM194.37-182.28q-22.42 0-41.99-10.8-19.58-10.79-29.84-30.75-21.13-35.19-27.91-77.31-6.78-42.12-6.78-85.29 0-42.74 8.3-82.99 8.31-40.26 24.91-78.91 7.57-17.08 25.05-21.56t34.93 5.22q17.37 9.69 22.67 26.91 5.29 17.22-.71 35.98-12.17 28.04-17.45 57.42-5.27 29.37-5.27 59.93 0 28.4 4.66 55.75 4.65 27.36 13.95 53.96h561.59q9.87-27.93 14.8-54.64 4.94-26.71 4.94-55.07 0-124.92-88.23-212.36-88.23-87.43-213.56-87.43-20.2 0-39.65 2.06-19.45 2.05-38.93 7.23-18.61 5.56-36.72-1.73-18.11-7.3-25.8-24.88-7.7-17.59-2-34.65 5.69-17.05 24.34-22.12 27.47-9.67 57.63-14.01 30.17-4.33 61.13-4.33 81.63 0 153.61 30.45 71.99 30.45 125.14 83.45 53.15 53.01 84.31 124.18 31.16 71.16 31.16 152.21 0 42.97-7.81 84.62-7.82 41.65-29.01 77.91-11.2 19.96-30.72 30.75-19.53 10.8-41.11 10.8H194.37ZM485.83-406.3Z"/></svg>