<svg xmlns="http://www.w3.org/2000/svg" height="20" viewBox="0 -960 960 960" width="20"><path d="M515-374q14-14 12.5-36T509-444q-45-32-91.4-66.52-46.39-34.52-92.29-68.55Q316-586 308-578.5q-8 7.5-.88 17.77Q342-514 376.15-468.67 410.29-423.33 444-379q13 18 33.86 19 20.87 1 37.14-14ZM191-244q-4.83 0-8.92-2.5Q178-249 175-253q-16-28.54-21-62.47T149-384q-1-70 24.5-131t70-105.5Q288-665 349-690.5T479-716q69.44 0 130.22 26t105.28 70.5q44.5 44.5 71 104.78T812-386q0 34.38-5.5 68.19Q801-284 784-257q-3.09 6-7.14 9.5-4.06 3.5-8.86 3.5H191Z"/></svg>