<svg xmlns="http://www.w3.org/2000/svg" height="40" viewBox="0 -960 960 960" width="40"><path d="M542-339.43q26-26 24.5-61.34-1.5-35.33-30.5-54.66-61.71-41.45-124.28-83.57-62.56-42.12-125.31-84.23-15.77-10.68-28.64 1.88-12.87 12.55-2.57 28.32 42.12 62.75 84.31 125.32 42.19 62.57 83.92 124.28 20.14 29 55.95 29.71 35.81.72 62.62-25.71ZM195.58-144.17q-23.48 0-43.56-11-20.08-11-32.3-31.21-28.17-48.65-41.93-102.98-13.76-54.34-13.76-111.41-.23-84.62 33.38-159.8 33.6-75.18 90.82-132.02 57.22-56.83 132.85-89.94t159.69-33.11q86.2 0 161.81 32.73 75.61 32.72 131.94 89.53 56.34 56.81 88.73 132.61 32.39 75.8 32.39 162 0 56.55-14.57 110.05-14.56 53.5-41.88 102.34-10.99 20.58-31.75 31.4-20.77 10.81-43.44 10.81H195.58Z"/></svg>