<svg xmlns="http://www.w3.org/2000/svg" height="24" viewBox="0 -960 960 960" width="24"><path d="M543.87-334.7q26-27 24.72-63.65Q567.3-435 537.87-455q-57.48-39.17-115.24-79.41-57.76-40.24-116.8-80.42-20.83-15.26-39.16 3-18.32 18.27-4.06 39.66 40.3 59.04 79.76 117.02 39.46 57.98 79.2 115.45 21.13 30.87 58 31.87 36.86 1 64.3-26.87ZM195.83-120.09q-29.83 0-55.66-13.91-25.82-13.91-40.52-39.74-29.56-52.56-44.56-110.41-15-57.85-15-118.42 0-89.82 35.28-169.45T170.78-711q60.13-59.35 140.05-93.85 79.91-34.5 168.6-34.5 91.7 0 171.61 34.78 79.92 34.79 139.55 94.92 59.63 60.13 94.19 140.76 34.57 80.63 34.57 172.32 0 59.57-15 115.92t-45.13 106.91q-14.13 26.39-39.96 40.02-25.83 13.63-55.22 13.63H195.83Z"/></svg>