<svg xmlns="http://www.w3.org/2000/svg" height="48" viewBox="0 -960 960 960" width="48"><path d="M546.52-336.72q25-25.76 24.62-62.4-.38-36.64-31.15-55.86-67.03-40.06-133.73-85.27-66.69-45.2-133.48-91.88-12.48-8.24-23.81 2.48-11.34 10.72-2.62 23.19 45.52 68.4 90.91 134.33 45.4 65.93 88.46 131.41 18.88 30.7 55.96 31.23 37.08.53 64.84-27.23ZM187.43-142.8q-22.36 0-40.3-10.36-17.94-10.36-29.33-29.08-27.47-49-40.85-103.61-13.38-54.61-13.38-111.39 0-51.21 11.9-99.91 11.9-48.7 37.42-92.5 6-13.72 21.26-15.82 15.26-2.1 29.12 7.36 13.51 9.02 16.84 24.48 3.32 15.46-3.44 29.17-20.01 32.55-28.29 70.47-8.27 37.91-8.27 76.75 0 46.73 10.64 92.23 10.64 45.49 35.88 85.14h586.71q23.79-40.52 35.67-85.59 11.88-45.08 11.88-92.45 0-141.37-98.66-242.18-98.66-100.8-240.47-100.8-23.77 0-47.05 4.32-23.28 4.33-45.17 10.48-16.82 4.76-32.34-2.09-15.53-6.86-21.77-21.82-6.23-14.96-.94-29.79 5.29-14.83 21.62-19.6 32.4-9.02 64.84-13.41 32.43-4.4 62.81-4.4 86.41.24 161.74 33.86 75.33 33.61 131.39 90.62 56.07 57 88.19 132.97t32.12 162.53q0 57.6-15.04 111.9-15.03 54.29-41.03 103.08-10.41 19.2-29.22 29.32-18.8 10.12-39.58 10.12h-584.9Zm300.81-249.68Z"/></svg>