<svg xmlns="http://www.w3.org/2000/svg" height="48" viewBox="0 -960 960 960" width="48"><path d="M544.76-339.3q24.44-25.5 24-61.04-.43-35.53-30-53.53-65.24-38.04-129.65-82.16-64.41-44.12-128.95-89.62-12.92-8.76-24.28 2.1-11.36 10.85-2.12 23.86 43.96 64.84 88.87 129.15 44.92 64.32 86.13 127.24 18.5 29 54 29.75t62-25.75ZM193.43-150.87q-21.73 0-39.9-9.98-18.17-9.98-28.97-28.3-27.69-47.13-40.44-100.68-12.75-53.55-12.75-109.1 0-50.19 12.09-97.9 12.08-47.71 36.82-91.32 6.57-13.39 21.19-15.59 14.63-2.19 28.9 7 12.79 9.73 16.46 24.95 3.67 15.22-3.33 28.42-20.48 32.77-27.94 69.32-7.47 36.56-7.47 75.12 0 45.03 9.9 89.38 9.9 44.36 34.84 82.53h573.59q23.06-39.44 34.53-83.35 11.46-43.91 11.46-88.84 0-138.6-96.05-235.9-96.06-97.3-234.93-97.3-23.94 0-46.5 3.58-22.56 3.59-44.67 10.4-16.23 5-31.69-1.66t-22.09-22.19q-6.91-14.96-1.35-29.83 5.57-14.87 21.78-18.48 32.53-9.24 64.52-13.89 31.98-4.65 62-4.65 84.75.56 158.5 32.91 73.76 32.34 128.6 88.07 54.84 55.74 86.72 130.2 31.88 74.47 31.88 158.93 0 56.17-14.31 108.95-14.32 52.79-40.72 100.85-9.86 18.96-28.62 28.66-18.75 9.69-39.48 9.69H193.43Zm295.33-243Z"/></svg>