<svg xmlns="http://www.w3.org/2000/svg" height="20" viewBox="0 -960 960 960" width="20"><path d="M523.31-368q16.07-16.08 14.96-39.88-1.12-23.81-20.96-38.43-50.08-33.54-100.12-69.23-50.04-35.69-98.69-70.73-10.81-7.88-19 .31t-.23 19.2q35.41 49.56 71.76 98.27 36.35 48.72 72.91 95.36 15.21 19.21 37.87 21.09 22.65 1.89 41.5-15.96ZM191.23-232q-8.12 0-14.94-4-6.83-4-11.21-11-17.16-30.03-22.73-65.59-5.58-35.57-5.58-71.87 0-43.74 9.11-84.97Q155-510.65 174-549.69q3.96-5.01 9.87-5.59 5.9-.57 11.98 2.82 6.07 3.38 6.88 9.93.81 6.54-2.11 12.38-17.08 34.84-24.47 71.46-7.38 36.61-7.38 74.69 0 31.53 5.73 61.26Q180.23-293 191.27-264H769q11-29 17-58.72t6-61.28q0-129.67-91.45-220.84Q609.09-696 479-696q-23.13 0-45.39 2.89-22.27 2.9-44.53 8.8-6.31 2.69-13-.5-6.7-3.19-8.08-9.88-1.38-6.69.88-11.96 2.27-5.27 9.43-7.27 25.15-7.16 50.04-10.62 24.88-3.46 49.11-3.46 71.63 0 135.05 26.54 63.41 26.54 110.03 72.77 46.61 46.23 74.04 109.01Q824-456.9 824-386.35q0 36.26-6.08 71.84-6.07 35.59-23.77 64.43-4.68 8.54-11.59 13.31Q775.64-232 768-232H191.23Zm294.92-172.15Z"/></svg>