<svg xmlns="http://www.w3.org/2000/svg" height="48" viewBox="0 -960 960 960" width="48"><path d="M542.5-341q25-25.5 24-60.75t-30-53.25q-67.5-42-135-87.25T266.59-633q-10.09-6.5-18.34 1.25t-1.84 17.93q45.09 67.68 90.59 135T426.5-345q18.5 29 54 29.75t62-25.75ZM194-165q-17.78 0-32.73-8-14.96-8-24.27-23.5-26-46-38.75-97.52Q85.5-345.53 85.5-399.5q0-51.92 13.5-101.31t40.5-94.69q6-10 17.28-10.5 11.29-.5 21.22 7 9 8.5 10.75 20.1 1.75 11.59-5.25 21.4Q161-522 152-481.88q-9 40.12-9 82.38 0 47.29 10.75 92.65Q164.5-261.5 190-222.5h579.87q24.13-40 35.88-85.09 11.75-45.1 11.75-91.91 0-140.01-97.75-239-97.75-99-237.75-99-27.85 0-54.68 5-26.82 5-52.32 13.5-12.27 5-23.77.04-11.51-4.97-16.73-16.54-5.5-11-1.25-22.25T349-772.5q34.5-11.5 68.33-17Q451.15-795 484-795q81.27 0 152.35 31.46t124.11 85.25q53.04 53.79 83.79 125.79Q875-480.5 875-399.36q0 54.13-13.75 105Q847.5-243.5 822-196.5q-8.5 15.5-23.8 23.5-15.29 8-32.2 8H194Zm292.5-230Z"/></svg>