<svg xmlns="http://www.w3.org/2000/svg" height="24" viewBox="0 -960 960 960" width="24"><path d="M540-342.93q24.5-25 23-59t-29-52.5q-56.41-38.74-113.89-77.98-57.48-39.24-115.52-78.48-17.52-11.89-32.73 3.06-15.21 14.96-3.32 32.48 39.24 57.55 78.45 114.77 39.21 57.23 78.44 113.65 19.64 28 54.39 28.71 34.75.72 60.18-24.71ZM207.37-150.28q-25.52 0-47.54-11.3-22.03-11.29-34.29-33.25-28.13-48.19-41.41-101.73-13.28-53.55-13.28-109.87-.07-83.59 33.06-156.48 33.13-72.89 88.89-127.69 55.76-54.79 129.94-86.42 74.17-31.63 156.69-31.63 84.46 0 159.14 31.91 74.67 31.91 130.21 87.46 55.55 55.54 87.71 129.96 32.16 74.43 32.16 158.89 0 54.76-13.81 106.55-13.82 51.79-41.01 99.05-12.2 21.96-34.47 33.25-22.27 11.3-47.36 11.3H207.37Z"/></svg>