<svg xmlns="http://www.w3.org/2000/svg" height="48" viewBox="0 -960 960 960" width="48"><path d="M546.5-338q24-25.5 24-61.25t-30-53.75q-63.5-35-125.54-78.25Q352.93-574.5 290.59-620q-15.09-10.5-28.84 2.75t-2.34 28.43q43.09 62.64 87.56 124.65Q391.44-402.16 430.5-342q18.5 29 54 29.75t62-25.75ZM193-140q-24.78 0-45.42-11.5t-32.58-32q-29-48-41.75-103.11T60.5-398.5q0-48.86 11-95.28t34-88.72q7-16 24.2-19.5 17.19-3.5 34.8 7 15.7 10.68 20.85 28.69 5.15 18-1.85 33.81-18.92 30.66-25.21 64.48Q152-434.21 152-398.5q0 43.29 9.25 86.88 9.25 43.59 33.75 81.12h568.76q22.24-39 33.49-82 11.25-43 11.25-86.49 0-137.52-94.75-233.51-94.75-96-232.75-96-20.94 0-40.22 2.5-19.28 2.5-38.78 8-19.27 5-37.77-2.96-18.51-7.97-26.23-26.54-8-18-1.42-35.66 6.59-17.65 26.42-21.34 31.01-7.5 61.58-11.5 30.57-4 58.42-4 87.41 1 163.23 34.02t132.04 90.25q56.23 57.23 88.98 133.59Q900-485.78 900-398.75q0 57.73-14.75 111.99t-41.84 103.14Q832.5-162 811.08-151q-21.41 11-45.08 11H193Zm297.5-253Z"/></svg>