<svg xmlns="http://www.w3.org/2000/svg" height="40" viewBox="0 -960 960 960" width="40"><path d="M526-356q17-17 15.5-41.83Q540-422.67 520-436q-52.33-36.67-103.9-74.02-51.56-37.36-103.79-75.05-9.98-7.26-18.31 1.07-8.33 8.33-.88 18.27 37.88 52.06 75.69 103.4Q406.62-411 444-360q15 20 39.36 21 24.37 1 42.64-17ZM201.33-212q-7.16 0-13.08-2.67-5.92-2.66-10.92-8.66-22.33-40.88-33.83-86.31T132-402.67q0-71 27.67-134 27.66-63 75.5-109.83 47.83-46.83 111.16-74.17Q409.67-748 480.67-748q72.44 0 135.38 27.5Q679-693 726-646t74.5 110.28Q828-472.44 828-400q0 47.05-11.83 90.86-11.84 43.81-34.17 81.81-3.42 7.33-10.14 11.33-6.73 4-13.19 4H201.33Z"/></svg>