<svg xmlns="http://www.w3.org/2000/svg" height="40" viewBox="0 -960 960 960" width="40"><path d="M529.69-352.31q19.08-19.07 17.58-46.33-1.5-27.26-23.58-41.98-55.41-38.2-110.38-77.09t-110.46-78.03q-10.44-7.36-19.08 1.16-8.64 8.53-1.14 18.94 39.29 55.36 78.57 110.15 39.28 54.8 78.18 109.18 15.93 22.08 42.98 23.08 27.05 1 47.33-19.08ZM200.18-200q-9.97 0-18.33-4.09-8.36-4.09-14.59-12.63-23.34-42.36-35.34-89.35-12-46.98-12-96.29.08-73.23 28.9-138.35 28.82-65.11 78.38-113.75 49.57-48.64 114.98-77.09Q407.59-760 480.82-760q74.88 0 140.03 28.42 65.15 28.43 113.8 77.23 48.66 48.81 77 114.22Q840-474.73 840-399.85q0 48.81-12.33 94.36-12.34 45.54-35.52 85.7-4.86 9.56-13.95 14.67-9.1 5.12-18.3 5.12H200.18Z"/></svg>