<svg xmlns="http://www.w3.org/2000/svg" height="40" viewBox="0 -960 960 960" width="40"><path d="M545.39-336.84q25.52-25.77 24.88-62.18-.65-36.41-31.31-56.21-62.8-38.61-125.43-81.39-62.63-42.79-125.72-87.32-15.69-10.61-30.03 3.27-14.33 13.89-3.11 29.58 43.53 64.59 86.59 126.7 43.05 62.11 83.96 123.55 19.26 30.39 56 30.91 36.74.52 64.17-26.91ZM191.54-134.15q-25.65 0-46.84-11.86-21.19-11.87-34.03-33.61-28.61-50.19-42.42-106.06-13.82-55.87-13.82-113.55 0-44.56 9-87.15 8.99-42.59 28.82-81.1 6.33-17.59 25.15-22.1 18.82-4.51 36.4 5.94 17.53 9.58 23.23 28.43 5.69 18.86-.74 36.98-14.24 26.89-20.14 57.6-5.9 30.72-5.9 62.06 0 44.15 10.15 87.36t34.01 81.53h570.95q22.15-38.87 33.6-81.29 11.46-42.41 11.46-86.96 0-137.5-95.93-235-95.92-97.49-233.72-97.49-21.37 0-41.91 3.41-20.55 3.41-40.09 8.53-20.41 5.29-39.42-2.84-19.02-8.13-27.01-26.77-7.99-18.63-1.51-36.99 6.48-18.36 26.61-23.64 31.4-8.85 62.88-12.9 31.48-4.05 61.78-4.05 88.49.38 165.55 34.3 77.05 33.92 134.49 92.16 57.44 58.24 90.48 135.7 33.05 77.47 33.05 166.2 0 58.5-15.08 113.49-15.08 54.99-42.34 104.23-12.09 22.65-34.03 34.05-21.93 11.39-46.18 11.39h-576.5Zm295.88-258.79Z"/></svg>