<svg xmlns="http://www.w3.org/2000/svg" height="48" viewBox="0 -960 960 960" width="48"><path d="M537.85-343.15q22.53-22.54 21.53-55t-27.53-50.16q-61.62-40.3-122.93-82.93-61.3-42.62-123.49-85.94-12.35-7.97-22.16 2.03t-1.76 22.33q42.26 62.13 84.62 123.41 42.37 61.28 84.56 122.26 17.46 27.53 49.99 28.03 32.52.5 57.17-24.03ZM189.08-164q-16.71 0-30.39-7.69-13.69-7.7-22.77-21.85-25.46-46.51-38.19-97.99Q85-343 85-398.15q-1-80.16 30.58-152.5 31.58-72.35 86.19-126.77 54.62-54.42 127.15-86.5Q401.46-796 481.62-796q81.93 0 153.7 31.46 71.76 31.46 125.06 85.39 53.31 53.92 84.46 126.87Q876-479.32 876-397.38q0 55.07-14.23 106.11t-38.69 96.19q-7.73 14.54-22.1 22.81-14.37 8.27-30.06 8.27H189.08Z"/></svg>