<svg xmlns="http://www.w3.org/2000/svg" height="40" viewBox="0 -960 960 960" width="40"><path d="M540.67-341.5q25.16-25 23.66-59.67-1.5-34.66-29.66-53.16-57.84-39.34-116.84-79.67t-118-80.83q-18-12.5-32.91 2.33-14.92 14.83-2.75 32.83 39.83 58.84 80.25 117.75Q384.83-403 424.33-345.5q20.5 28.67 55.42 29.17t60.92-25.17Zm-343.17 203q-26 0-48.17-12.08-22.16-12.09-35.16-34.09-29-48.5-42-103.5T59.17-401Q58-487.5 91.67-563.83q33.66-76.34 91.33-133.59t134.83-90.41Q395-821 480.33-821q86.84 0 163.84 33.17 77 33.16 134 90.33t89.91 134.42Q901-485.83 901-399q0 57.17-14.58 111.25-14.59 54.08-42.42 103.08-11.5 22.67-34.42 34.42-22.91 11.75-48.25 11.75H197.5Z"/></svg>