<svg xmlns="http://www.w3.org/2000/svg" height="20" viewBox="0 -960 960 960" width="20"><path d="M291-110v-192h117v192H291Zm0-274v-192h117v192H291Zm0-274v-192h117v192H291ZM43-110l113-740h117L160-110H43Zm668.5-3.5Q707-117 704-122l-4-7q-23-42-60.5-71.5T576-269q-15-22-22-47.83T547-370q0-72 51.85-122t123.64-50q72.8 0 124.15 51Q898-440 898-367q0 26-8 51t-22 47q-26 39-63.5 68.5T744-129l-4 7q-2 5-7 8.5t-11 3.5q-6 0-10.5-3.5ZM773-315q21-21 21-51t-21-51q-21-21-51-21t-51 21q-21 21-21 51t21 51q21 21 51 21t51-21ZM484-464l-58-386h118l42 279q-33 18-59 45.5T484-464Z"/></svg>