<svg xmlns="http://www.w3.org/2000/svg" height="24" viewBox="0 -960 960 960" width="24"><path d="M308.13-100.78v-187.13h105.44v187.13H308.13Zm0-285.65v-187.14h105.44v187.14H308.13Zm0-285.66v-187.13h105.44v187.13H308.13ZM50.04-100.78l109.61-758.44h105.44L155.48-100.78H50.04Zm647.68-3q-5.5-3-8.5-9l-4-9q-23-48-64-82.5t-70-78.5q-17-25.44-24.72-54.62-7.72-29.19-7.72-59.38 0-78 56.92-130.5 56.91-52.5 135.8-52.5 77.88 0 132.8 56 54.92 56 54.92 135 0 29-8 56t-24 50q-29 44-70.5 78.5t-63.5 82.5l-4 9q-3 6-8.5 9t-11.5 3q-6 0-11.5-3Zm68-230.5q23.5-23.5 23.5-56.5t-23.5-56.5q-23.5-23.5-56.5-23.5t-56.5 23.5q-23.5 23.5-23.5 56.5t23.5 56.5q23.5 23.5 56.5 23.5t56.5-23.5Zm-265.5-229.11-43.61-295.83h106l32.22 221.48q-27.92 12.7-51.85 31.35-23.94 18.65-42.76 43Z"/></svg>