<svg xmlns="http://www.w3.org/2000/svg" height="48" viewBox="0 -960 960 960" width="48"><path d="M342.08-144v-121.85h42.77V-144h-42.77Zm0-275.69v-121.85h42.77v121.85h-42.77Zm0-273.93V-816h42.77v122.38h-42.77ZM71.38-144l106.7-672h42.54L113.38-144h-42Zm615.29-3.03q-3.8-3.03-7.13-7.1l-3.53-7.59q-20.29-40.51-54.58-69.63-34.3-29.11-58.23-66.19-15.58-21.38-22.16-46.42-6.58-25.04-6.58-50.61 0-65.89 48.14-110.24 48.14-44.34 114.86-44.34 66.46 0 112.5 47.18Q856-454.78 856-388.21q0 24.44-6.85 47.66-6.84 23.23-20.53 43.01-24.62 37.81-59.74 66.06-35.11 28.25-53.3 69.37l-3.31 7.85q-2.48 4.13-6.64 7.2-4.17 3.06-9.66 3.06-5.5 0-9.3-3.03Zm56.21-194.7q20.04-20.04 20.04-47.65 0-27.62-20.04-47.66-20.03-20.04-47.65-20.04-27.61 0-47.65 20.04t-20.04 47.66q0 27.61 20.04 47.65t47.65 20.04q27.62 0 47.65-20.04ZM541.92-583.69 505.08-816h43l32.15 208.23q-11.31 5.53-20.88 11.38-9.58 5.85-17.43 12.7Z"/></svg>