<svg xmlns="http://www.w3.org/2000/svg" height="40" viewBox="0 -960 960 960" width="40"><path d="M348.67-172v-97.67h24V-172h-24Zm0-259v-97.67h24V-431h-24Zm0-258.33V-788h24v98.67h-24ZM109-172l93-616h24l-94 616h-23Zm558.2-2.72q-4.1-2.73-7.19-6.85l-3.22-7.17Q638.32-227 605.4-254.5 572.47-282 549.59-317q-13.92-20-19.76-44-5.83-24-5.83-47.94 0-62.26 45.48-104.16T678-555q63 0 106.5 44.55Q828-465.91 828-403.07q0 23.07-6.5 45.16Q815-335.82 802-317q-23.3 35.32-56.65 62.16Q712-228 694.95-189.15l-3.1 7.41q-2.32 4.2-6.25 6.97-3.93 2.77-9.11 2.77t-9.29-2.72ZM721-359q19-19 19-45t-19-45q-19-19-45-19t-45 19q-19 19-19 45t19 45q19 19 45 19t45-19ZM523.33-601.33l-28-186.67h23L544-615.33q-5.67 4.22-10.5 7.28-4.83 3.05-10.17 6.72Z"/></svg>