<svg xmlns="http://www.w3.org/2000/svg" height="24" viewBox="0 -960 960 960" width="24"><path d="M323-130v-153h75v153h-75Zm0-273.5v-153h75v153h-75Zm0-273.5v-153h75v153h-75ZM80.5-130 181-830h75L155.5-130h-75Zm592.75-3.25Q668-136.5 665.5-142l-4-8.5q-23-46.5-62.75-80.25T530.5-307.5q-17-25.5-24.75-54t-7.75-58q0-76 55.75-127.25T686.5-598q76.5 0 130 54.75T870-411.5q0 28-7.75 54.5T839-307.5q-28.5 43-68.5 76.75T708-150.5l-4 8.5q-2.5 5.5-8 8.75T684.5-130q-6 0-11.25-3.25ZM739.75-358q22.75-23 22.75-55.5t-22.75-55.25Q717-491.5 684.5-491.5t-55.25 22.75Q606.5-446 606.5-413.5t22.75 55.5q22.75 23 55.25 23t55.25-23ZM498.5-599 465-830h75l26 181.5q-18.5 10-35.5 22t-32 27.5Z"/></svg>