<svg xmlns="http://www.w3.org/2000/svg" height="20" viewBox="0 -960 960 960" width="20"><path d="M332-184v-98.62h32V-184h-32Zm0-246.31v-98.61h32v98.61h-32Zm0-246.31V-776h32v99.38h-32ZM121.38-184l89.08-592h32l-89.84 592h-31.24Zm547.17-3.03q-3.68-3.03-6.24-7.1l-3.4-5.59q-19.6-34.51-51.02-58.63-31.43-24.11-52.81-56.19-12.7-18.38-18.27-40.04-5.58-21.65-5.58-43.99 0-59.89 43.14-101.74 43.14-41.84 102.86-41.84 61.46 0 104.12 42.18Q824-457.78 824-397.21q0 21.44-6.85 42.66-6.84 21.23-18.53 40.01-21.62 31.81-52.85 55.68-31.23 23.86-50.42 58.9l-3.31 5.7q-1.48 4.13-5.53 7.2-4.05 3.06-9.16 3.06t-8.8-3.03Zm50.83-166.2q17.54-17.54 17.54-42.15 0-24.62-17.54-42.16-17.53-17.54-42.15-17.54-24.61 0-42.15 17.54t-17.54 42.16q0 24.61 17.54 42.15t42.15 17.54q24.62 0 42.15-17.54ZM489.92-527.77 453.54-776h31.23L515-571.08q-9 10.39-14.88 20.96-5.89 10.58-10.2 22.35Z"/></svg>