<svg xmlns="http://www.w3.org/2000/svg" height="20" viewBox="0 -960 960 960" width="20"><path d="M121.43-135.87q-33.53 0-58.26-24.73-24.74-24.73-24.74-58.27v-446.67h83v446.67h606.7v83h-606.7ZM842.15-624v-120.72H721.43v-79.41h117.14q34.78 0 58.89 24.26t24.11 58.74V-624h-79.42Zm-648.72 0v-117.13q0-34.78 24.26-58.89t58.75-24.11h117.13v79.41H272.85V-624h-79.42Zm528 333.13v-79.41h120.72V-491h79.42v117.13q0 34.78-24.26 58.89t-58.74 24.11H721.43Zm-444.99 0q-34.79 0-58.9-24.26t-24.11-58.74V-491h79.42v120.72h120.72v79.41H276.44ZM485.5-413.5l224.24-144-224.24-144v288Z"/></svg>