<svg xmlns="http://www.w3.org/2000/svg" height="24" viewBox="0 -960 960 960" width="24"><path d="M144.62-169.23q-26.85 0-45.74-18.89Q80-207 80-233.85v-403.07h40v403.07q0 10.77 6.92 17.7 6.93 6.92 17.7 6.92H720v40H144.62ZM840-640v-95.38q0-9.24-7.69-16.93-7.69-7.69-16.93-7.69H720v-40h95.38q27.62 0 46.12 18.5Q880-763 880-735.38V-640h-40Zm-640 0v-95.38q0-27.62 18.5-46.12Q237-800 264.62-800H360v40h-95.38q-9.24 0-16.93 7.69-7.69 7.69-7.69 16.93V-640h-40Zm520 350.77v-40h95.38q9.24 0 16.93-7.69 7.69-7.7 7.69-16.93v-95.38h40v95.38q0 27.62-18.5 46.12-18.5 18.5-46.12 18.5H720Zm-455.38 0q-27.62 0-46.12-18.5-18.5-18.5-18.5-46.12v-95.38h40v95.38q0 9.23 7.69 16.93 7.69 7.69 16.93 7.69H360v40h-95.38Zm223.07-132.31 194.39-123.08-194.39-123.07v246.15Z"/></svg>