<svg xmlns="http://www.w3.org/2000/svg" height="24" viewBox="0 -960 960 960" width="24"><path d="M133.39-110.78q-41.66 0-71.33-29.67t-29.67-71.33v-447.96h101v447.96h635.83v101H133.39ZM835.09-637v-119.7h-120.2v-92.52h111.72q42.24 0 71.62 29.38 29.38 29.38 29.38 71.62V-637h-92.52Zm-626.7 0v-111.22q0-42.24 29.38-71.62 29.38-29.38 71.62-29.38h111.22v92.52h-119.7V-637h-92.52Zm506.5 350.22v-92.53h120.2V-499h92.52v111.22q0 42.24-29.38 71.62-29.38 29.38-71.62 29.38H714.89Zm-405.5 0q-42.24 0-71.62-29.38-29.38-29.38-29.38-71.62V-499h92.52v119.69h119.7v92.53H309.39ZM492.5-414l241.07-154L492.5-722v308Z"/></svg>