<svg xmlns="http://www.w3.org/2000/svg" height="24" viewBox="0 -960 960 960" width="24"><path d="M157-189q-23.97 0-40.73-16.77Q99.5-222.53 99.5-246.5v-375H125v375q0 14 9 23t23 9h546v25.5H157Zm678-449.5v-87q0-12-10-22t-22-10h-87V-783h87q24.44 0 40.97 16.53 16.53 16.53 16.53 40.79v87.18H835Zm-632.5 0v-87.18q0-24.26 16.53-40.79Q235.56-783 259.82-783H347v25.5h-87q-12 0-22 10t-10 22v87h-25.5ZM716-292v-25.5h87q12 0 22-10t10-22v-87h25.5v87.18q0 24.26-16.53 40.79Q827.44-292 803-292h-87Zm-456.18 0q-24.26 0-40.79-16.53-16.53-16.53-16.53-40.79v-87.18H228v87q0 12 10 22t22 10h87v25.5h-87.18ZM490-428.5l173.5-109-173.5-109v218Z"/></svg>