<svg xmlns="http://www.w3.org/2000/svg" height="24" viewBox="0 -960 960 960" width="24"><path d="M118.31-112.62q-41.92 0-70.12-28.19Q20-169 20-210.92v-397.54h86v397.54q0 5.38 3.46 8.84t8.85 3.46H772v86H118.31ZM854-644v-109.69q0-4.62-3.85-8.46-3.84-3.85-8.46-3.85H731v-86h110.69q41.03 0 69.67 28.64T940-753.69V-644h-86Zm-668 0v-109.69q0-41.03 28.64-69.67Q243.27-852 284.31-852H394v86H284.31q-4.62 0-8.47 3.85-3.84 3.84-3.84 8.46V-644h-86Zm545 365.38v-85.99h110.69q4.62 0 8.46-3.85 3.85-3.85 3.85-8.46v-109.69h86v109.69q0 41.03-28.64 69.67-28.64 28.63-69.67 28.63H731Zm-446.69 0q-41.04 0-69.67-28.63Q186-335.89 186-376.92v-109.69h86v109.69q0 4.61 3.84 8.46 3.85 3.85 8.47 3.85H394v85.99H284.31Zm207.54-137.15 232.69-149.54-232.69-149.53v299.07Z"/></svg>