<svg xmlns="http://www.w3.org/2000/svg" height="40" viewBox="0 -960 960 960" width="40"><path d="M122.57-144.62q-25.71 0-44.14-18.43T60-207.18V-668.2h50.26v461.02q0 5.38 3.46 8.85 3.46 3.46 8.85 3.46h636.92v50.25H122.57Zm727.17-500.25v-112.56q0-4.62-3.84-8.47-3.85-3.84-8.47-3.84H724.87V-820h112.56q25.79 0 44.18 18.39T900-757.43v112.56h-50.26Zm-669.23 0v-112.56q0-25.79 18.39-44.18T243.08-820h112.56v50.26H243.08q-4.62 0-8.47 3.84-3.84 3.85-3.84 8.47v112.56h-50.26Zm544.36 379.74v-50.25h112.56q4.62 0 8.47-3.85 3.84-3.85 3.84-8.46v-112.57H900v112.57q0 25.79-18.39 44.17-18.39 18.39-44.18 18.39H724.87Zm-481.79 0q-25.79 0-44.18-18.39-18.39-18.38-18.39-44.17v-112.57h50.26v112.57q0 4.61 3.84 8.46 3.85 3.85 8.47 3.85h112.56v50.25H243.08Zm235.89-141.85L692-542.97 478.97-678.82v271.84Z"/></svg>