<svg xmlns="http://www.w3.org/2000/svg" height="48" viewBox="0 -960 960 960" width="48"><path d="M96.35-102.8q-32.75 0-55.15-22.39t-22.4-54.92v-497.52h77.55v497.52h721.08v77.31H96.35Zm770.17-548.72v-131h-131v-74.91h128.37q30.5 0 53.9 23.34 23.41 23.35 23.41 54.2v128.37h-74.68Zm-710.17 0v-128.37q0-30.85 23.28-54.2 23.28-23.34 54.02-23.34h128.37v74.91h-131v131h-74.67Zm579.17 411.41v-74.67h131v-131.24h74.68v128.37q0 30.84-23.41 54.19-23.4 23.35-53.9 23.35H735.52Zm-501.87 0q-30.74 0-54.02-23.35-23.28-23.35-23.28-54.19v-128.37h74.67v131.24h131v74.67H233.65Zm243.22-158.24 235.56-151.8-235.56-150.81v302.61Z"/></svg>