<svg xmlns="http://www.w3.org/2000/svg" height="48" viewBox="0 -960 960 960" width="48"><path d="M100.91-101.17q-35.48 0-59.61-24.12-24.13-24.11-24.13-59.06v-496.87h83.74v496.87h718.48v83.18H100.91Zm764.96-549.7v-131h-131v-77.52h124.78q32.91 0 58.04 25 25.14 25 25.14 58.74v124.78h-76.96Zm-704.96 0v-124.78q0-33.74 24.84-58.74t58.34-25h124.78v77.52h-131v131h-76.96Zm573.96 406.52v-76.95h131v-131.57h76.96v124.78q0 33.74-25.14 58.74-25.13 25-58.04 25H734.87Zm-490.78 0q-33.5 0-58.34-25-24.84-25-24.84-58.74v-124.78h76.96v131.57h131v76.95H244.09Zm236.69-158.56 233.61-150.18-233.61-149.17v299.35Z"/></svg>