<svg xmlns="http://www.w3.org/2000/svg" height="40" viewBox="0 -960 960 960" width="40"><path d="M116.35-110.84q-35.35 0-60.27-24.91-24.92-24.92-24.92-59.9v-481.73h85.19v481.73H796.2v84.81H116.35ZM851-644.67v-126.65H724.18v-78.22h119.85q34.67 0 59.74 24.99 25.07 24.98 25.07 60.2v119.68H851Zm-671.32 0v-119.68q0-35.22 24.87-60.2 24.88-24.99 59.94-24.99h119.68v78.22H257.52v126.65h-77.84Zm544.5 385.69v-77.85H851v-127.03h77.84v119.69q0 35.22-25.07 60.2-25.07 24.99-59.74 24.99H724.18Zm-459.69 0q-35.06 0-59.94-24.99-24.87-24.98-24.87-60.2v-119.69h77.84v127.03h126.65v77.85H264.49Zm219.42-147.09 231.73-148.67-231.73-148v296.67Z"/></svg>