<svg xmlns="http://www.w3.org/2000/svg" version="1.1" width="3300" height="2000"><g id="Notes"><style>
    text {
      font-family: monospace;
      text-anchor: middle;
    }
    text.emphasis {
      font-weight:bold;
    }
    text.lanchor {
      text-anchor: start;
    }
  </style><rect height="2200" id="artboard" fill="white" width="3300" x="0" y="0"/><line id="" style="fill:none;stroke:black;stroke-width:0.5;" x1="263" x2="3036" y1="292" y2="292"/><text class="lanchor emphasis" transform="matrix(1 0 0 1 263 322)">Weight/Scale Variations</text><text transform="matrix(1 0 0 1 559.711 322)">Ultralight</text><text transform="matrix(1 0 0 1 856.422 322)">Thin</text><text transform="matrix(1 0 0 1 1153.13 322)">Light</text><text transform="matrix(1 0 0 1 1449.84 322)">Regular</text><text transform="matrix(1 0 0 1 1746.56 322)">Medium</text><text transform="matrix(1 0 0 1 2043.27 322)">Semibold</text><text transform="matrix(1 0 0 1 2339.98 322)">Bold</text><text transform="matrix(1 0 0 1 2636.69 322)">Heavy</text><text transform="matrix(1 0 0 1 2933.4 322)">Black</text><text id="template-version" style="text-anchor: end;" transform="matrix(1 0 0 1 3036 1933)">Template v.1.0</text><text class="lanchor" transform="matrix(1 0 0 1 263 726)">Small</text><text class="lanchor" transform="matrix(1 0 0 1 263 1156)">Medium</text><text class="lanchor" transform="matrix(1 0 0 1 263 1586)">Large</text></g><g id="Guides"><g id="H-reference" style="fill:#27AAE1;stroke:none;" transform="matrix(1 0 0 1 339 696)"><path d="M 54.9316 0 L 57.666 0 L 30.5664 -70.459 L 28.0762 -70.459 L 0.976562 0 L 3.66211 0 L 12.9395 -24.4629 L 45.7031 -24.4629 Z M 29.1992 -67.0898 L 29.4434 -67.0898 L 44.8242 -26.709 L 13.8184 -26.709 Z"/></g><line id="Baseline-S" style="fill:none;stroke:#27AAE1;opacity:1;stroke-width:0.577;" x1="263" x2="3036" y1="696" y2="696"/><line id="Capline-S" style="fill:none;stroke:#27AAE1;opacity:1;stroke-width:0.577;" x1="263" x2="3036" y1="625.541" y2="625.541"/><g id="H-reference" style="fill:#27AAE1;stroke:none;" transform="matrix(1 0 0 1 339 1126)"><path d="M 54.9316 0 L 57.666 0 L 30.5664 -70.459 L 28.0762 -70.459 L 0.976562 0 L 3.66211 0 L 12.9395 -24.4629 L 45.7031 -24.4629 Z M 29.1992 -67.0898 L 29.4434 -67.0898 L 44.8242 -26.709 L 13.8184 -26.709 Z"/></g><line id="Baseline-M" style="fill:none;stroke:#27AAE1;opacity:1;stroke-width:0.577;" x1="263" x2="3036" y1="1126" y2="1126"/><line id="Capline-M" style="fill:none;stroke:#27AAE1;opacity:1;stroke-width:0.577;" x1="263" x2="3036" y1="1055.54" y2="1055.54"/><g id="H-reference" style="fill:#27AAE1;stroke:none;" transform="matrix(1 0 0 1 339 1556)"><path d="M 54.9316 0 L 57.666 0 L 30.5664 -70.459 L 28.0762 -70.459 L 0.976562 0 L 3.66211 0 L 12.9395 -24.4629 L 45.7031 -24.4629 Z M 29.1992 -67.0898 L 29.4434 -67.0898 L 44.8242 -26.709 L 13.8184 -26.709 Z"/></g><line id="Baseline-L" style="fill:none;stroke:#27AAE1;opacity:1;stroke-width:0.577;" x1="263" x2="3036" y1="1556" y2="1556"/><line id="Capline-L" style="fill:none;stroke:#27AAE1;opacity:1;stroke-width:0.577;" x1="263" x2="3036" y1="1485.54" y2="1485.54"/><rect height="119.336" id="left-margin" style="fill:darkred;stroke:none;opacity:0.4;" width="12.4512" x="1394.06" y="1030.79"/><rect height="119.336" id="right-margin" style="fill:darkgreen;stroke:none;opacity:0.4;" width="12.4512" x="1502.5112" y="1030.79"/><rect x="1406.5112" y="1045" width="96" height="96" fill="none" stroke="blue" stroke-dasharray="5"/><rect x="1394.06" y="1030.79" width="120.9024" height="119.336" fill="none" stroke="blue"/></g><g id="Symbols"><g id="Bold-L" transform="matrix(1 0 0 1 2266 1556)"><path d="M36.604 38.945 H66.274 Q62.997 35.83 61.007 31.985 Q59.017 28.141 58.221 23.626 H36.604 Q36.604 23.626 36.604 23.626 Q36.604 23.626 36.604 23.626 L36.765 -54.902 Q36.765 -54.902 36.765 -54.902 Q36.765 -54.902 36.604 -54.902 L70.789 -88.442 Q70.789 -88.442 70.789 -88.442 Q70.789 -88.442 70.789 -88.442 L105.296 -54.741 Q105.296 -54.741 105.296 -54.741 Q105.296 -54.741 105.296 -54.741 V-29.102 Q108.844 -29.747 112.867 -29.51 Q116.89 -29.275 120.615 -28.296 V-54.58 Q120.615 -57.482 119.325 -60.385 Q118.035 -63.287 115.939 -65.222 L81.109 -99.407 Q78.84 -101.504 76.184 -102.713 Q73.53 -103.922 70.627 -103.922 Q67.564 -103.922 64.823 -102.794 Q62.081 -101.665 59.663 -99.407 L25.8 -65.384 Q23.543 -63.126 22.494 -60.304 Q21.446 -57.482 21.446 -54.58 V23.949 Q21.446 29.915 25.961 34.43 Q30.476 38.945 36.604 38.945 Z M71.031 -56.837 Q67.564 -56.837 65.069 -59.142 Q62.575 -61.446 62.888 -65.061 Q62.57 -68.286 65 -70.544 Q67.43 -72.801 71.111 -72.801 Q74.498 -72.801 76.997 -70.544 Q79.496 -68.286 79.013 -65.061 Q79.496 -61.514 76.997 -59.176 Q74.498 -56.837 71.031 -56.837 Z M89.816 39.106 Q80.206 39.106 73.482 32.335 Q66.758 25.564 66.758 15.886 Q66.758 7.253 72.321 0.846 Q77.884 -5.56 86.591 -6.85 Q89.978 -13.139 96.105 -16.606 Q102.233 -20.072 109.371 -20.072 Q118.424 -20.072 126.13 -15.961 Q133.838 -11.849 134.966 -3.625 H135.289 Q142.706 -2.335 147.141 3.797 Q151.575 9.93 151.575 17.665 Q151.575 26.572 145.815 32.84 Q140.055 39.106 131.741 39.106 H89.816 Z M89.816 25.561 H130.129 Q133.354 25.561 135.773 23.223 Q138.191 20.885 138.191 17.423 Q138.191 14.229 135.773 11.832 Q133.354 9.436 130.129 9.436 H123.679 L124.808 9.114 Q124.969 2.664 120.28 -2.012 Q115.592 -6.689 109.266 -6.689 Q104.329 -6.689 100.62 -3.717 Q96.911 -0.745 95.138 3.954 L94.654 6.211 H89.816 Q85.704 6.211 82.923 9.09 Q80.141 11.968 80.141 16.023 Q80.141 20.079 82.923 22.82 Q85.704 25.561 89.816 25.561 Z"/></g><g id="Semibold-L" transform="matrix(1 0 0 1 1970.27 1556)"><path d="M36.043 34.738 H64.452 Q61.757 32.066 60.001 28.843 Q58.247 25.618 57.376 21.873 H36.043 Q36.043 21.873 36.043 21.873 Q36.043 21.873 36.043 21.873 L36.135 -55.112 Q36.135 -55.112 36.135 -55.112 Q36.135 -55.112 36.043 -55.112 L70.579 -89.144 Q70.579 -89.144 70.579 -89.144 Q70.579 -89.144 70.579 -89.144 L105.296 -54.882 Q105.296 -54.882 105.296 -54.882 Q105.296 -54.882 105.296 -54.882 V-30.294 Q108.354 -30.589 111.714 -30.244 Q115.074 -29.901 118.161 -28.998 V-54.72 Q118.161 -57.133 117.047 -59.614 Q115.932 -62.096 114.186 -63.75 L79.287 -98.285 Q77.368 -100.101 75.097 -101.101 Q72.829 -102.1 70.418 -102.1 Q67.844 -102.1 65.524 -101.146 Q63.204 -100.193 61.204 -98.285 L26.922 -63.912 Q25.015 -62.004 24.142 -59.603 Q23.268 -57.202 23.268 -54.79 V22.056 Q23.268 27.18 27.048 30.96 Q30.826 34.738 36.043 34.738 Z M70.715 -57.258 Q67.214 -57.258 64.752 -59.613 Q62.289 -61.967 62.467 -65.551 Q62.288 -68.847 64.698 -71.174 Q67.109 -73.503 70.761 -73.503 Q74.217 -73.503 76.681 -71.174 Q79.146 -68.847 78.872 -65.551 Q79.146 -62.004 76.681 -59.632 Q74.217 -57.258 70.715 -57.258 Z M87.222 34.83 Q78.214 34.83 71.995 28.585 Q65.775 22.339 65.775 13.292 Q65.775 5.047 71.234 -0.992 Q76.692 -7.032 84.979 -7.972 Q88.084 -14.121 93.897 -17.588 Q99.709 -21.055 106.667 -21.055 Q115.22 -21.055 122.39 -16.872 Q129.561 -12.69 130.83 -4.747 H131.153 Q138.361 -4.017 142.864 1.727 Q147.368 7.472 147.368 14.999 Q147.368 23.189 142.114 29.009 Q136.861 34.83 129.147 34.83 H87.222 Z M87.222 22.967 H127.534 Q130.759 22.967 133.178 20.629 Q135.597 18.29 135.597 14.83 Q135.597 11.636 133.178 9.238 Q130.759 6.842 127.534 6.842 H121.084 L121.723 5.96 Q121.815 -0.281 117.306 -4.781 Q112.798 -9.283 106.63 -9.283 Q101.875 -9.283 98.237 -6.516 Q94.597 -3.751 92.895 0.729 L92.059 3.617 H87.222 Q83.11 3.617 80.328 6.461 Q77.547 9.304 77.547 13.395 Q77.547 17.484 80.328 20.225 Q83.11 22.967 87.222 22.967 Z"/></g><g id="Medium-L" transform="matrix(1 0 0 1 1674.31 1556)"><path d="M35.622 31.584 H63.084 Q60.828 29.244 59.248 26.484 Q57.668 23.725 56.741 20.559 H35.622 Q35.622 20.559 35.622 20.559 Q35.622 20.559 35.622 20.559 L35.66 -55.27 Q35.66 -55.27 35.66 -55.27 Q35.66 -55.27 35.622 -55.27 L70.421 -89.67 Q70.421 -89.67 70.421 -89.67 Q70.421 -89.67 70.421 -89.67 L105.296 -54.986 Q105.296 -54.986 105.296 -54.986 Q105.296 -54.986 105.296 -54.986 V-31.187 Q107.984 -31.22 110.848 -30.796 Q113.712 -30.37 116.321 -29.523 V-54.825 Q116.321 -56.87 115.337 -59.035 Q114.354 -61.203 112.872 -62.646 L77.919 -97.445 Q76.263 -99.05 74.283 -99.891 Q72.303 -100.733 70.26 -100.733 Q68.054 -100.733 66.05 -99.911 Q64.044 -99.088 62.362 -97.445 L27.762 -62.807 Q26.119 -61.164 25.378 -59.077 Q24.636 -56.992 24.636 -54.948 V20.637 Q24.636 25.131 27.862 28.357 Q31.089 31.584 35.622 31.584 Z M70.479 -57.574 Q66.951 -57.574 64.513 -59.966 Q62.076 -62.357 62.151 -65.921 Q62.075 -69.268 64.471 -71.648 Q66.867 -74.028 70.499 -74.028 Q74.007 -74.028 76.445 -71.648 Q78.883 -69.268 78.767 -65.921 Q78.883 -62.373 76.445 -59.974 Q74.007 -57.574 70.479 -57.574 Z M85.277 31.623 Q76.721 31.623 70.881 25.771 Q65.04 19.919 65.04 11.347 Q65.04 3.393 70.419 -2.372 Q75.799 -8.137 83.769 -8.812 Q86.665 -14.856 92.24 -18.323 Q97.816 -21.79 104.64 -21.79 Q112.817 -21.79 119.585 -17.555 Q126.354 -13.321 127.728 -5.587 H128.05 Q135.1 -5.279 139.657 0.174 Q144.214 5.629 144.214 12.998 Q144.214 20.65 139.339 26.137 Q134.466 31.623 127.202 31.623 H85.277 Z M85.277 21.022 H125.59 Q128.815 21.022 131.233 18.684 Q133.652 16.346 133.652 12.884 Q133.652 9.689 131.233 7.293 Q128.815 4.897 125.59 4.897 H119.14 L119.409 3.593 Q119.448 -2.49 115.074 -6.858 Q110.703 -11.228 104.651 -11.228 Q100.035 -11.228 96.448 -8.616 Q92.862 -6.003 91.211 -1.69 L90.115 1.672 H85.277 Q81.165 1.672 78.384 4.489 Q75.602 7.306 75.602 11.423 Q75.602 15.54 78.384 18.281 Q81.165 21.022 85.277 21.022 Z"/></g><g id="Regular-L" transform="matrix(1 0 0 1 1378.56 1556)"><path d="M35.314 29.27 H62.081 Q60.146 27.174 58.695 24.755 Q57.244 22.336 56.276 19.595 H35.314 Q35.314 19.595 35.314 19.595 Q35.314 19.595 35.314 19.595 V-55.386 Q35.314 -55.386 35.314 -55.386 Q35.314 -55.386 35.314 -55.386 L70.305 -90.055 Q70.305 -90.055 70.305 -90.055 Q70.305 -90.055 70.305 -90.055 L105.296 -55.064 Q105.296 -55.064 105.296 -55.064 Q105.296 -55.064 105.296 -55.064 V-31.844 Q107.715 -31.682 110.214 -31.199 Q112.714 -30.715 114.971 -29.909 V-54.902 Q114.971 -56.676 114.084 -58.611 Q113.198 -60.546 111.907 -61.836 L76.916 -96.827 Q75.454 -98.279 73.685 -99.004 Q71.918 -99.73 70.144 -99.73 Q68.209 -99.73 66.435 -99.004 Q64.661 -98.279 63.21 -96.827 L28.38 -61.997 Q26.929 -60.546 26.284 -58.692 Q25.639 -56.837 25.639 -55.064 V19.595 Q25.639 23.626 28.461 26.448 Q31.283 29.27 35.314 29.27 Z M70.305 -57.805 Q66.758 -57.805 64.339 -60.224 Q61.92 -62.642 61.92 -66.19 Q61.92 -69.576 64.305 -71.995 Q66.691 -74.414 70.305 -74.414 Q73.853 -74.414 76.271 -71.995 Q78.69 -69.576 78.69 -66.19 Q78.69 -62.642 76.271 -60.224 Q73.853 -57.805 70.305 -57.805 Z M83.85 29.27 Q75.626 29.27 70.063 23.707 Q64.5 18.144 64.5 9.92 Q64.5 2.18 69.821 -3.383 Q75.142 -8.946 82.883 -9.43 Q85.624 -15.396 91.026 -18.863 Q96.428 -22.33 103.153 -22.33 Q111.054 -22.33 117.529 -18.057 Q124.001 -13.784 125.453 -6.205 H125.775 Q132.709 -6.205 137.304 -0.964 Q141.9 4.276 141.9 11.533 Q141.9 18.789 137.304 24.029 Q132.709 29.27 125.775 29.27 H83.85 Z M83.85 19.595 H124.163 Q127.388 19.595 129.806 17.257 Q132.225 14.919 132.225 11.457 Q132.225 8.262 129.806 5.866 Q127.388 3.47 124.163 3.47 H117.713 V1.858 Q117.713 -4.109 113.439 -8.382 Q109.166 -12.655 103.2 -12.655 Q98.685 -12.655 95.138 -10.156 Q91.59 -7.656 89.978 -3.464 L88.688 0.245 H83.85 Q79.738 0.245 76.957 3.043 Q74.175 5.84 74.175 9.976 Q74.175 14.113 76.957 16.854 Q79.738 19.595 83.85 19.595 Z"/></g><g id="Light-L" transform="matrix(1 0 0 1 1082.77 1556)"><path d="M38.29 26.045 H58.793 Q57.355 24.445 56.268 22.617 Q55.181 20.788 54.415 18.726 H38.29 Q37.423 18.726 36.802 18.107 Q36.183 17.486 36.183 16.618 V-54.828 Q36.183 -55.201 36.338 -55.604 Q36.492 -56.007 36.802 -56.255 L69.375 -88.628 Q69.933 -89.186 70.769 -89.155 Q71.608 -89.125 72.227 -88.567 L104.924 -55.994 Q105.235 -55.685 105.358 -55.343 Q105.482 -55.002 105.482 -54.567 V-33.829 Q107.343 -33.605 109.215 -33.201 Q111.087 -32.798 112.862 -32.266 V-54.441 Q112.862 -56.242 112.072 -58.073 Q111.283 -59.903 109.985 -61.215 L77.289 -93.788 Q75.902 -95.178 74.202 -95.841 Q72.503 -96.505 70.726 -96.505 Q68.83 -96.505 67.086 -95.81 Q65.343 -95.115 64.016 -93.788 L31.544 -61.315 Q30.154 -59.925 29.539 -58.14 Q28.927 -56.355 28.927 -54.567 V16.68 Q28.927 20.587 31.655 23.317 Q34.383 26.045 38.29 26.045 Z M70.832 -58.984 Q67.812 -58.984 65.734 -61.061 Q63.657 -63.139 63.657 -66.19 Q63.657 -69.08 65.701 -71.158 Q67.746 -73.235 70.832 -73.235 Q73.853 -73.235 75.962 -71.158 Q78.069 -69.08 78.008 -66.19 Q78.069 -63.139 75.962 -61.061 Q73.853 -58.984 70.832 -58.984 Z M82.237 26.045 Q74.757 26.045 69.629 20.916 Q64.5 15.786 64.5 8.308 Q64.5 1.13 69.479 -3.952 Q74.46 -9.035 81.704 -9.43 Q84.26 -15.396 89.599 -18.863 Q94.939 -22.33 101.607 -22.33 Q109.442 -22.33 115.792 -17.996 Q122.14 -13.66 123.282 -6.205 H124.287 Q130.475 -6.205 134.576 -1.398 Q138.675 3.407 138.675 9.951 Q138.675 16.494 134.539 21.269 Q130.403 26.045 124.163 26.045 H82.237 Z M82.237 18.726 H122.55 Q126.11 18.726 128.734 16.172 Q131.356 13.616 131.356 9.844 Q131.356 6.314 128.734 3.713 Q126.11 1.113 122.55 1.113 H117.03 L117.34 0.369 Q117.464 -6.031 112.757 -10.522 Q108.05 -15.012 101.588 -15.012 Q96.721 -15.012 92.791 -12.357 Q88.862 -9.703 87.249 -5.139 L86.269 -2.112 H82.237 Q77.874 -2.112 74.846 0.903 Q71.818 3.918 71.818 8.395 Q71.818 12.748 74.846 15.738 Q77.874 18.726 82.237 18.726 Z"/></g><g id="Thin-L" transform="matrix(1 0 0 1 787.282 1556)"><path d="M41.267 22.82 H55.507 Q54.564 21.715 53.841 20.479 Q53.117 19.242 52.555 17.858 H41.267 Q39.53 17.858 38.29 16.618 Q37.05 15.378 37.05 13.642 V-54.27 Q37.05 -55.014 37.36 -55.82 Q37.671 -56.626 38.29 -57.123 L68.444 -87.202 Q69.56 -88.318 71.235 -88.257 Q72.909 -88.194 74.151 -87.078 L104.551 -56.925 Q105.172 -56.304 105.42 -55.622 Q105.669 -54.94 105.669 -54.072 V-35.814 Q106.97 -35.528 108.216 -35.206 Q109.461 -34.883 110.755 -34.622 V-53.98 Q110.755 -55.809 110.061 -57.534 Q109.368 -59.261 108.062 -60.596 L77.661 -90.75 Q76.352 -92.077 74.72 -92.679 Q73.088 -93.28 71.308 -93.28 Q69.449 -93.28 67.738 -92.616 Q66.025 -91.953 64.823 -90.75 L34.706 -60.633 Q33.379 -59.306 32.795 -57.589 Q32.213 -55.873 32.213 -54.072 V13.766 Q32.213 17.549 34.849 20.184 Q37.484 22.82 41.267 22.82 Z M71.36 -60.162 Q68.867 -60.162 67.13 -61.898 Q65.393 -63.634 65.393 -66.19 Q65.393 -68.585 67.096 -70.321 Q68.799 -72.056 71.36 -72.056 Q73.853 -72.056 75.65 -70.321 Q77.45 -68.585 77.326 -66.19 Q77.45 -63.634 75.65 -61.898 Q73.853 -60.162 71.36 -60.162 Z M80.625 22.82 Q73.89 22.82 69.196 18.124 Q64.5 13.43 64.5 6.695 Q64.5 0.082 69.139 -4.52 Q73.778 -9.122 80.525 -9.43 Q82.895 -15.396 88.173 -18.863 Q93.451 -22.33 100.062 -22.33 Q107.829 -22.33 114.055 -17.933 Q120.28 -13.535 121.112 -6.205 H122.798 Q128.244 -6.205 131.846 -1.832 Q135.45 2.54 135.45 8.369 Q135.45 14.2 131.774 18.51 Q128.097 22.82 122.55 22.82 H80.625 Z M80.625 17.858 H120.938 Q124.832 17.858 127.66 15.086 Q130.488 12.315 130.488 8.233 Q130.488 4.368 127.66 1.562 Q124.832 -1.243 120.938 -1.243 H116.348 L116.968 -1.119 Q117.216 -7.955 112.075 -12.661 Q106.933 -17.368 99.975 -17.368 Q94.757 -17.368 90.444 -14.559 Q86.132 -11.749 84.519 -6.813 L83.85 -4.468 H80.625 Q76.01 -4.468 72.737 -1.237 Q69.462 1.996 69.462 6.814 Q69.462 11.384 72.737 14.62 Q76.01 17.858 80.625 17.858 Z"/></g><g id="Ultralight-L" transform="matrix(1 0 0 1 491.205 1556)"><path d="M43.054 20.885 H53.535 Q52.89 20.079 52.385 19.195 Q51.881 18.313 51.439 17.338 H43.054 Q40.796 17.338 39.184 15.725 Q37.571 14.113 37.571 11.855 V-53.935 Q37.571 -54.902 37.974 -55.951 Q38.377 -56.999 39.184 -57.644 L67.886 -86.346 Q69.338 -87.797 71.514 -87.717 Q73.691 -87.636 75.304 -86.185 L104.329 -57.482 Q105.135 -56.676 105.457 -55.789 Q105.78 -54.902 105.78 -53.774 V-37.004 Q106.748 -36.681 107.617 -36.407 Q108.486 -36.133 109.489 -36.036 V-53.704 Q109.489 -55.547 108.855 -57.212 Q108.22 -58.874 106.909 -60.224 L77.884 -88.926 Q76.621 -90.216 75.031 -90.781 Q73.44 -91.345 71.658 -91.345 Q69.821 -91.345 68.128 -90.7 Q66.435 -90.055 65.306 -88.926 L36.604 -60.224 Q35.314 -58.934 34.749 -57.258 Q34.185 -55.583 34.185 -53.774 V12.016 Q34.185 15.725 36.765 18.305 Q39.345 20.885 43.054 20.885 Z M71.676 -60.869 Q69.499 -60.869 67.967 -62.401 Q66.435 -63.932 66.435 -66.19 Q66.435 -68.286 67.933 -69.818 Q69.433 -71.35 71.676 -71.35 Q73.853 -71.35 75.465 -69.818 Q77.078 -68.286 76.916 -66.19 Q77.078 -63.932 75.465 -62.401 Q73.853 -60.869 71.676 -60.869 Z M79.657 20.885 Q73.369 20.885 68.934 16.451 Q64.5 12.016 64.5 5.728 Q64.5 -0.548 68.934 -4.862 Q73.369 -9.175 79.819 -9.43 Q82.076 -15.396 87.317 -18.863 Q92.558 -22.33 99.135 -22.33 Q106.862 -22.33 113.014 -17.896 Q119.164 -13.461 119.809 -6.205 H121.905 Q126.904 -6.205 130.209 -2.093 Q133.515 2.019 133.515 7.421 Q133.515 12.823 130.114 16.854 Q126.713 20.885 121.583 20.885 H79.657 Z M79.657 17.338 H119.97 Q124.066 17.338 127.017 14.435 Q129.968 11.533 129.968 7.264 Q129.968 3.199 127.017 0.271 Q124.066 -2.657 119.97 -2.657 H115.939 L116.745 -2.012 Q117.068 -9.107 111.666 -13.945 Q106.264 -18.782 99.008 -18.782 Q93.578 -18.782 89.036 -15.88 Q84.495 -12.977 82.883 -7.817 L82.399 -5.882 H79.657 Q74.893 -5.882 71.471 -2.52 Q68.047 0.842 68.047 5.865 Q68.047 10.565 71.471 13.951 Q74.893 17.338 79.657 17.338 Z"/></g><g id="Bold-M" transform="matrix(1 0 0 1 2281.8 1126)"><path d="M31.25 24.77 H49.125 Q46.25 21.52 44.562 17.52 Q42.875 13.52 42.375 9.02 H31.375 Q31.375 9.02 31.375 9.02 Q31.375 9.02 31.375 9.02 V-49.355 Q31.375 -49.355 31.375 -49.355 Q31.375 -49.355 31.375 -49.355 L55.75 -73.605 Q55.75 -73.605 55.75 -73.605 Q55.75 -73.605 55.75 -73.605 L79.875 -49.48 Q79.875 -49.48 79.875 -49.48 Q79.875 -49.48 79.875 -49.48 V-32.23 Q83.75 -32.98 87.812 -32.792 Q91.875 -32.605 95.75 -31.605 V-49.355 Q95.75 -52.48 94.562 -55.355 Q93.375 -58.23 91.25 -60.355 L66.75 -84.855 Q64.375 -87.105 61.562 -88.292 Q58.75 -89.48 55.75 -89.48 Q52.75 -89.48 49.875 -88.355 Q47 -87.23 44.625 -84.855 L20.125 -60.355 Q18 -58.23 16.812 -55.355 Q15.625 -52.48 15.625 -49.355 V9.27 Q15.625 15.645 20.25 20.208 Q24.875 24.77 31.25 24.77 Z M55.688 -49.105 Q52.625 -49.105 50.562 -51.167 Q48.5 -53.23 48.5 -56.355 Q48.5 -59.355 50.562 -61.417 Q52.625 -63.48 55.75 -63.48 Q58.75 -63.48 60.812 -61.417 Q62.875 -59.355 62.875 -56.355 Q62.875 -53.23 60.812 -51.167 Q58.75 -49.105 55.688 -49.105 Z M71.125 24.895 Q63.25 24.895 57.75 19.395 Q52.25 13.895 52.25 6.02 Q52.25 -0.98 56.688 -6.167 Q61.125 -11.355 68 -12.355 Q70.875 -17.23 75.688 -20.042 Q80.5 -22.855 86.125 -22.855 Q93.25 -22.855 99.312 -19.73 Q105.375 -16.605 106.5 -9.98 Q112.5 -8.73 116.25 -3.792 Q120 1.145 120 7.395 Q120 14.554 115.25 19.725 Q110.5 24.895 103.625 24.895 H71.125 Z M71.125 11.02 H102.375 Q103.875 11.02 105 9.895 Q106.125 8.77 106.125 7.27 Q106.125 5.645 105 4.583 Q103.875 3.52 102.375 3.52 H95.25 L94.375 -2.355 Q93.875 -5.23 91.49 -7.105 Q89.106 -8.98 86.125 -8.98 Q83.5 -8.98 81.562 -7.292 Q79.625 -5.605 78.625 -3.23 L76.875 1.02 H71.125 Q69 1.02 67.562 2.458 Q66.125 3.895 66.125 6.02 Q66.125 8.145 67.562 9.583 Q69 11.02 71.125 11.02 Z"/></g><g id="Semibold-M" transform="matrix(1 0 0 1 1985.97 1126)"><path d="M30.706 20.423 H47.278 Q44.946 17.661 43.502 14.314 Q42.06 10.966 41.505 7.173 H30.777 Q30.777 7.173 30.777 7.173 Q30.777 7.173 30.777 7.173 L30.723 -49.572 Q30.723 -49.572 30.723 -49.572 Q30.723 -49.572 30.777 -49.572 L55.532 -74.311 Q55.532 -74.311 55.532 -74.311 Q55.532 -74.311 55.532 -74.311 L79.875 -49.642 Q79.875 -49.642 79.875 -49.642 Q79.875 -49.642 79.875 -49.642 V-33.48 Q83.206 -33.904 86.59 -33.607 Q89.972 -33.311 93.196 -32.311 V-49.517 Q93.25 -52.154 92.252 -54.567 Q91.255 -56.98 89.456 -58.834 L64.847 -83.714 Q62.854 -85.637 60.475 -86.635 Q58.097 -87.632 55.532 -87.632 Q53.021 -87.632 50.581 -86.67 Q48.141 -85.709 46.201 -83.714 L21.32 -58.834 Q19.521 -57.035 18.524 -54.649 Q17.527 -52.262 17.527 -49.572 V7.314 Q17.527 12.819 21.364 16.621 Q25.201 20.423 30.706 20.423 Z M55.389 -49.54 Q52.299 -49.54 50.236 -51.656 Q48.174 -53.774 48.065 -56.899 Q48.174 -59.952 50.236 -62.07 Q52.299 -64.186 55.424 -64.186 Q58.479 -64.186 60.514 -62.07 Q62.549 -59.952 62.712 -56.899 Q62.549 -53.774 60.514 -51.656 Q58.479 -49.54 55.389 -49.54 Z M68.463 20.493 Q61.239 20.493 56.255 15.51 Q51.271 10.526 51.271 3.303 Q51.271 -3.262 55.574 -8.07 Q59.875 -12.876 66.37 -13.55 Q68.864 -18.262 73.405 -21.075 Q77.946 -23.887 83.299 -23.887 Q89.881 -23.887 95.4 -20.681 Q100.919 -17.475 102.206 -11.175 Q108.044 -10.469 111.847 -5.912 Q115.653 -1.355 115.653 4.624 Q115.653 11.115 111.419 15.804 Q107.185 20.493 100.963 20.493 H68.463 Z M68.463 8.303 H99.713 Q101.213 8.303 102.338 7.205 Q103.463 6.108 103.463 4.553 Q103.463 2.983 102.338 1.893 Q101.213 0.803 99.713 0.803 H92.588 L91.169 -5.616 Q90.614 -8.327 88.397 -10.012 Q86.18 -11.697 83.407 -11.697 Q81 -11.697 79.118 -10.2 Q77.234 -8.702 76.289 -6.545 L74.213 -1.697 H68.463 Q66.338 -1.697 64.9 -0.26 Q63.462 1.178 63.462 3.303 Q63.462 5.428 64.9 6.865 Q66.338 8.303 68.463 8.303 Z"/></g><g id="Medium-M" transform="matrix(1 0 0 1 1689.91 1126)"><path d="M30.299 17.161 H45.891 Q43.968 14.768 42.708 11.909 Q41.449 9.05 40.854 5.786 H30.329 Q30.329 5.786 30.329 5.786 Q30.329 5.786 30.329 5.786 L30.234 -49.735 Q30.234 -49.735 30.234 -49.735 Q30.234 -49.735 30.329 -49.735 L55.37 -74.841 Q55.37 -74.841 55.37 -74.841 Q55.37 -74.841 55.37 -74.841 L79.875 -49.765 Q79.875 -49.765 79.875 -49.765 Q79.875 -49.765 79.875 -49.765 V-34.417 Q82.799 -34.596 85.672 -34.219 Q88.546 -33.841 91.28 -32.841 V-49.64 Q91.375 -51.909 90.52 -53.976 Q89.666 -56.042 88.111 -57.692 L63.421 -82.857 Q61.712 -84.537 59.66 -85.391 Q57.609 -86.246 55.37 -86.246 Q53.225 -86.246 51.111 -85.406 Q48.998 -84.567 47.384 -82.857 L22.218 -57.692 Q20.663 -56.137 19.809 -54.119 Q18.954 -52.1 18.954 -49.735 V5.846 Q18.954 10.7 22.2 13.93 Q25.446 17.161 30.299 17.161 Z M55.165 -49.866 Q52.054 -49.866 49.991 -52.024 Q47.929 -54.181 47.739 -57.306 Q47.929 -60.401 49.991 -62.559 Q52.054 -64.716 55.179 -64.716 Q58.275 -64.716 60.29 -62.559 Q62.304 -60.401 62.59 -57.306 Q62.304 -54.181 60.29 -52.024 Q58.275 -49.866 55.165 -49.866 Z M66.465 17.191 Q59.731 17.191 55.135 12.595 Q50.538 7.999 50.538 1.265 Q50.538 -4.975 54.737 -9.496 Q58.938 -14.017 65.146 -14.447 Q67.356 -19.037 71.692 -21.85 Q76.03 -24.662 81.18 -24.662 Q87.354 -24.662 92.465 -21.395 Q97.576 -18.126 98.986 -12.072 Q104.701 -11.774 108.546 -7.501 Q112.391 -3.23 112.391 2.545 Q112.391 8.536 108.545 12.864 Q104.699 17.191 98.965 17.191 H66.465 Z M66.465 6.265 H97.715 Q99.215 6.265 100.34 5.188 Q101.465 4.11 101.465 2.515 Q101.465 0.985 100.34 -0.125 Q99.215 -1.235 97.715 -1.235 H90.59 L88.764 -8.061 Q88.169 -10.651 86.076 -12.194 Q83.985 -13.735 81.37 -13.735 Q79.125 -13.735 77.282 -12.381 Q75.44 -11.026 74.535 -9.031 L72.215 -3.735 H66.465 Q64.34 -3.735 62.903 -2.297 Q61.465 -0.86 61.465 1.265 Q61.465 3.39 62.903 4.828 Q64.34 6.265 66.465 6.265 Z"/></g><g id="Regular-M" transform="matrix(1 0 0 1 1394.06 1126)"><path d="M30 14.77 H44.875 Q43.25 12.645 42.125 10.145 Q41 7.645 40.375 4.77 H30 Q30 4.77 30 4.77 Q30 4.77 30 4.77 L29.875 -49.855 Q29.875 -49.855 29.875 -49.855 Q29.875 -49.855 30 -49.855 L55.25 -75.23 Q55.25 -75.23 55.25 -75.23 Q55.25 -75.23 55.25 -75.23 L79.875 -49.855 Q79.875 -49.855 79.875 -49.855 Q79.875 -49.855 79.875 -49.855 V-35.105 Q82.5 -35.105 85 -34.667 Q87.5 -34.23 89.875 -33.23 V-49.73 Q90 -51.73 89.25 -53.542 Q88.5 -55.355 87.125 -56.855 L62.375 -82.23 Q60.875 -83.73 59.062 -84.48 Q57.25 -85.23 55.25 -85.23 Q53.375 -85.23 51.5 -84.48 Q49.625 -83.73 48.25 -82.23 L22.875 -56.855 Q21.5 -55.48 20.75 -53.73 Q20 -51.98 20 -49.855 V4.77 Q20 9.145 22.812 11.958 Q25.625 14.77 30 14.77 Z M55 -50.105 Q51.875 -50.105 49.812 -52.292 Q47.75 -54.48 47.5 -57.605 Q47.75 -60.73 49.812 -62.917 Q51.875 -65.105 55 -65.105 Q58.125 -65.105 60.125 -62.917 Q62.125 -60.73 62.5 -57.605 Q62.125 -54.48 60.125 -52.292 Q58.125 -50.105 55 -50.105 Z M65 14.77 Q58.625 14.77 54.312 10.458 Q50 6.145 50 -0.23 Q50 -6.23 54.125 -10.542 Q58.25 -14.855 64.25 -15.105 Q66.25 -19.605 70.438 -22.417 Q74.625 -25.23 79.625 -25.23 Q85.5 -25.23 90.312 -21.917 Q95.125 -18.605 96.625 -12.73 Q102.25 -12.73 106.125 -8.667 Q110 -4.605 110 1.02 Q110 6.645 106.438 10.708 Q102.875 14.77 97.5 14.77 H65 Z M65 4.77 H96.25 Q97.75 4.77 98.875 3.708 Q100 2.645 100 1.02 Q100 -0.48 98.875 -1.605 Q97.75 -2.73 96.25 -2.73 H89.125 L87 -9.855 Q86.375 -12.355 84.375 -13.792 Q82.375 -15.23 79.875 -15.23 Q77.75 -15.23 75.938 -13.98 Q74.125 -12.73 73.25 -10.855 L70.75 -5.23 H65 Q62.875 -5.23 61.438 -3.792 Q60 -2.355 60 -0.23 Q60 1.895 61.438 3.333 Q62.875 4.77 65 4.77 Z"/></g><g id="Light-M" transform="matrix(1 0 0 1 1098.18 1126)"><path d="M31.586 12.27 H43.193 Q42 10.674 41.139 8.8 Q40.276 6.925 39.797 4.77 H31.586 Q30.914 4.77 30.456 4.289 Q30 3.809 29.953 3.135 L29.875 -49.711 Q29.875 -49.999 29.995 -50.287 Q30.115 -50.576 30.433 -50.816 L54.336 -74.797 Q54.769 -75.23 55.394 -75.206 Q56.019 -75.182 56.549 -74.749 L80.067 -50.769 Q80.308 -50.529 80.404 -50.264 Q80.5 -49.999 80.5 -49.662 V-35.97 Q82.5 -35.874 84.351 -35.532 Q86.201 -35.191 88.047 -34.48 V-49.565 Q88.125 -51.394 87.45 -53.052 Q86.775 -54.712 85.539 -56.086 L61.943 -80.066 Q60.586 -81.422 58.929 -82.076 Q57.271 -82.73 55.443 -82.73 Q53.76 -82.73 52.029 -82.052 Q50.299 -81.374 49.068 -80.066 L25.086 -56.086 Q23.808 -54.806 23.154 -53.206 Q22.5 -51.606 22.5 -49.662 V3.184 Q22.5 7.125 25.073 9.698 Q27.645 12.27 31.586 12.27 Z M55.289 -51.74 Q52.693 -51.74 50.919 -53.591 Q49.144 -55.441 48.99 -58.037 Q49.144 -60.634 50.919 -62.485 Q52.693 -64.336 55.289 -64.336 Q57.885 -64.336 59.62 -62.485 Q61.356 -60.634 61.586 -58.037 Q61.356 -55.441 59.62 -53.591 Q57.885 -51.74 55.289 -51.74 Z M63.75 12.27 Q57.951 12.27 53.976 8.294 Q50 4.318 50 -1.48 Q50 -6.995 53.86 -10.959 Q57.721 -14.924 63.336 -15.152 Q65.24 -19.652 69.38 -22.441 Q73.519 -25.23 78.541 -25.23 Q84.442 -25.23 89.183 -21.87 Q93.922 -18.509 95.086 -12.73 H95.711 Q100.711 -12.73 104.105 -9.004 Q107.5 -5.279 107.5 -0.206 Q107.5 4.866 104.294 8.568 Q101.088 12.27 96.25 12.27 H63.75 Z M63.75 4.77 H95 Q97.029 4.77 98.515 3.323 Q100 1.876 100 -0.23 Q100 -2.259 98.515 -3.745 Q97.029 -5.23 95 -5.23 H89.172 L87.865 -10.095 Q87.481 -13.461 84.808 -15.595 Q82.135 -17.73 78.672 -17.73 Q75.89 -17.73 73.517 -16.191 Q71.144 -14.654 70.172 -12.105 L68.346 -7.73 H63.75 Q61.094 -7.73 59.296 -5.907 Q57.5 -4.086 57.5 -1.456 Q57.5 1.174 59.296 2.973 Q61.094 4.77 63.75 4.77 Z"/></g><g id="Thin-M" transform="matrix(1 0 0 1 802.565 1126)"><path d="M33.172 9.77 H41.51 Q40.75 8.703 40.151 7.454 Q39.554 6.206 39.221 4.77 H33.172 Q31.828 4.77 30.914 3.809 Q30 2.848 29.904 1.501 L29.875 -49.566 Q29.875 -50.144 30.115 -50.72 Q30.356 -51.297 30.865 -51.777 L53.422 -74.365 Q54.289 -75.23 55.539 -75.182 Q56.789 -75.134 57.846 -74.269 L80.26 -51.682 Q80.74 -51.201 80.933 -50.672 Q81.125 -50.144 81.125 -49.47 V-36.836 Q82.5 -36.644 83.703 -36.399 Q84.904 -36.152 86.221 -35.73 V-49.4 Q86.25 -51.057 85.65 -52.564 Q85.051 -54.07 83.953 -55.316 L61.51 -77.902 Q60.297 -79.115 58.795 -79.672 Q57.292 -80.23 55.635 -80.23 Q54.144 -80.23 52.557 -79.624 Q50.971 -79.019 49.885 -77.902 L27.297 -55.316 Q26.115 -54.134 25.558 -52.682 Q25 -51.232 25 -49.47 V1.598 Q25 5.106 27.331 7.439 Q29.664 9.77 33.172 9.77 Z M55.578 -53.374 Q53.51 -53.374 52.024 -54.889 Q50.539 -56.402 50.481 -58.47 Q50.539 -60.537 52.024 -62.052 Q53.51 -63.566 55.578 -63.566 Q57.644 -63.566 59.115 -62.052 Q60.586 -60.537 60.672 -58.47 Q60.586 -56.402 59.115 -54.889 Q57.644 -53.374 55.578 -53.374 Z M62.5 9.77 Q57.279 9.77 53.64 6.13 Q50 2.491 50 -2.73 Q50 -7.76 53.596 -11.376 Q57.193 -14.991 62.422 -15.201 Q64.231 -19.701 68.323 -22.465 Q72.414 -25.23 77.457 -25.23 Q83.385 -25.23 88.052 -21.821 Q92.721 -18.412 93.547 -12.73 H94.797 Q99.172 -12.73 102.086 -9.34 Q105 -5.951 105 -1.432 Q105 3.088 102.15 6.429 Q99.3 9.77 95 9.77 H62.5 Z M62.5 4.77 H93.75 Q96.308 4.77 98.154 2.939 Q100 1.106 100 -1.48 Q100 -4.037 98.154 -5.884 Q96.308 -7.73 93.75 -7.73 H89.221 L88.731 -10.336 Q88.586 -14.566 85.24 -17.399 Q81.894 -20.23 77.471 -20.23 Q74.031 -20.23 71.097 -18.402 Q68.164 -16.576 67.096 -13.355 L65.942 -10.23 H62.5 Q59.312 -10.23 57.156 -8.024 Q55 -5.816 55 -2.682 Q55 0.453 57.156 2.611 Q59.312 4.77 62.5 4.77 Z"/></g><g id="Ultralight-M" transform="matrix(1 0 0 1 506.415 1126)"><path d="M34.125 8.27 H40.5 Q40 7.52 39.56 6.648 Q39.12 5.774 38.875 4.77 H34.125 Q32.375 4.77 31.188 3.52 Q30 2.27 29.875 0.52 V-49.48 Q29.875 -50.23 30.188 -50.98 Q30.5 -51.73 31.125 -52.355 L52.875 -74.105 Q54 -75.23 55.625 -75.167 Q57.25 -75.105 58.625 -73.98 L80.375 -52.23 Q81 -51.605 81.25 -50.917 Q81.5 -50.23 81.5 -49.355 V-37.355 Q82.5 -37.105 83.312 -36.917 Q84.125 -36.73 85.125 -36.48 V-49.301 Q85.125 -50.855 84.571 -52.27 Q84.016 -53.684 83 -54.855 L61.25 -76.605 Q60.125 -77.73 58.715 -78.23 Q57.305 -78.73 55.75 -78.73 Q54.375 -78.73 52.875 -78.167 Q51.375 -77.605 50.375 -76.605 L28.625 -54.855 Q27.5 -53.73 27 -52.369 Q26.5 -51.007 26.5 -49.355 V0.645 Q26.5 3.895 28.688 6.083 Q30.875 8.27 34.125 8.27 Z M55.75 -54.355 Q54 -54.355 52.688 -55.667 Q51.375 -56.98 51.375 -58.73 Q51.375 -60.48 52.688 -61.792 Q54 -63.105 55.75 -63.105 Q57.5 -63.105 58.812 -61.792 Q60.125 -60.48 60.125 -58.73 Q60.125 -56.98 58.812 -55.667 Q57.5 -54.355 55.75 -54.355 Z M61.75 8.27 Q56.875 8.27 53.438 4.833 Q50 1.395 50 -3.48 Q50 -8.22 53.438 -11.626 Q56.875 -15.032 61.875 -15.23 Q63.625 -19.73 67.688 -22.48 Q71.75 -25.23 76.808 -25.23 Q82.75 -25.23 87.375 -21.792 Q92 -18.355 92.625 -12.73 H94.25 Q98.25 -12.73 100.875 -9.542 Q103.5 -6.355 103.5 -2.167 Q103.5 2.02 100.864 5.145 Q98.228 8.27 94.25 8.27 H61.75 Z M61.75 4.77 H93 Q95.875 4.77 97.938 2.708 Q100 0.645 100 -2.23 Q100 -5.105 97.938 -7.167 Q95.875 -9.23 93 -9.23 H89.25 V-10.48 Q89.25 -15.23 85.5 -18.48 Q81.75 -21.73 76.75 -21.73 Q72.916 -21.73 69.645 -19.73 Q66.375 -17.73 65.25 -14.105 L64.5 -11.73 H61.75 Q58.244 -11.73 55.873 -9.292 Q53.5 -6.855 53.5 -3.417 Q53.5 0.02 55.873 2.395 Q58.244 4.77 61.75 4.77 Z"/></g><g id="Bold-S" transform="matrix(1 0 0 1 2294.23 696)"><path d="M27.023 10.532 H38.069 Q35.9 8.066 34.568 5.129 Q33.237 2.192 32.842 -1.106 H27.122 Q27.122 -1.106 27.122 -1.106 Q27.122 -1.106 27.122 -1.106 L27.221 -45.98 Q27.221 -45.98 27.221 -45.98 Q27.221 -45.98 27.122 -45.98 L45.367 -64.719 Q45.367 -64.719 45.367 -64.719 Q45.367 -64.719 45.367 -64.719 L63.909 -46.079 Q63.909 -46.079 63.909 -46.079 Q63.909 -46.079 63.909 -46.079 V-35.131 Q66.769 -35.526 69.777 -35.181 Q72.785 -34.835 75.645 -34.046 V-46.079 Q75.547 -48.446 74.708 -50.566 Q73.87 -52.687 72.194 -54.166 L53.356 -73.102 Q51.581 -74.779 49.552 -75.617 Q47.524 -76.455 45.367 -76.455 Q43.132 -76.455 40.995 -75.617 Q38.858 -74.779 37.083 -73.102 L18.837 -54.166 Q17.161 -52.489 16.322 -50.375 Q15.484 -48.259 15.484 -45.98 V-0.908 Q15.484 3.628 18.985 7.08 Q22.486 10.532 27.023 10.532 Z M45.417 -43.81 Q43.001 -43.81 41.275 -45.438 Q39.549 -47.065 39.746 -49.531 Q39.549 -51.799 41.275 -53.426 Q43.001 -55.054 45.466 -55.054 Q47.833 -55.054 49.608 -53.426 Q51.384 -51.799 51.088 -49.531 Q51.384 -47.065 49.608 -45.438 Q47.833 -43.81 45.417 -43.81 Z M54.54 10.631 Q48.326 10.631 43.987 6.291 Q39.647 1.952 39.647 -4.262 Q39.647 -9.489 42.803 -13.483 Q45.959 -17.477 51.088 -18.661 Q53.06 -23.395 57.252 -26.009 Q61.443 -28.622 66.671 -28.622 Q72.983 -28.622 77.864 -25.318 Q82.746 -22.014 83.24 -16.393 Q87.678 -15.012 90.39 -11.32 Q93.102 -7.629 93.102 -2.98 Q93.102 2.669 88.96 6.65 Q84.818 10.631 79.393 10.631 H54.54 Z M54.54 0.472 H79.393 Q80.813 0.472 81.878 -0.613 Q82.944 -1.697 82.944 -3.086 Q82.944 -4.558 82.007 -5.445 Q81.07 -6.333 79.689 -6.53 L74.166 -7.023 L74.265 -11.461 Q73.87 -14.321 71.643 -16.393 Q69.417 -18.464 66.473 -18.464 Q63.317 -18.464 61.295 -16.146 Q59.274 -13.828 58.386 -10.87 L58.189 -9.39 L53.849 -8.897 Q52.074 -8.601 50.94 -7.27 Q49.806 -5.938 49.806 -4.262 Q49.806 -2.25 51.167 -0.889 Q52.528 0.472 54.54 0.472 Z"/></g><g id="Semibold-S" transform="matrix(1 0 0 1 1998.1 696)"><path d="M26.594 7.102 H36.612 Q34.871 5.022 33.732 2.6 Q32.594 0.177 32.156 -2.563 H26.65 Q26.65 -2.563 26.65 -2.563 Q26.65 -2.563 26.65 -2.563 L26.706 -46.152 Q26.706 -46.152 26.706 -46.152 Q26.706 -46.152 26.65 -46.152 L45.196 -65.276 Q45.196 -65.276 45.196 -65.276 Q45.196 -65.276 45.196 -65.276 L63.909 -46.207 Q63.909 -46.207 63.909 -46.207 Q63.909 -46.207 63.909 -46.207 V-36.118 Q66.34 -36.255 68.813 -35.824 Q71.284 -35.393 73.63 -34.604 V-46.207 Q73.574 -48.188 72.886 -49.945 Q72.197 -51.7 70.778 -52.966 L51.855 -72.202 Q50.381 -73.621 48.695 -74.309 Q47.01 -74.998 45.196 -74.998 Q43.347 -74.998 41.553 -74.287 Q39.759 -73.578 38.327 -72.202 L19.78 -52.966 Q18.361 -51.547 17.673 -49.817 Q16.985 -48.088 16.985 -46.152 V-2.452 Q16.985 1.398 19.864 4.251 Q22.744 7.102 26.594 7.102 Z M45.181 -44.154 Q42.743 -44.154 41.017 -45.823 Q39.291 -47.494 39.403 -49.96 Q39.291 -52.27 41.017 -53.941 Q42.743 -55.611 45.209 -55.611 Q47.619 -55.611 49.373 -53.941 Q51.126 -52.27 50.96 -49.96 Q51.126 -47.494 49.373 -45.823 Q47.619 -44.154 45.181 -44.154 Z M52.439 7.157 Q46.739 7.157 42.807 3.226 Q38.875 -0.706 38.875 -6.406 Q38.875 -11.29 41.925 -14.984 Q44.973 -18.678 49.802 -19.604 Q51.473 -24.21 55.451 -26.823 Q59.428 -29.437 64.441 -29.437 Q70.325 -29.437 74.777 -26.069 Q79.23 -22.701 79.852 -17.335 Q84.162 -16.384 86.916 -12.992 Q89.672 -9.601 89.672 -5.166 Q89.672 -0.045 85.937 3.556 Q82.202 7.157 77.292 7.157 H52.439 Z M52.439 -1.672 H77.292 Q78.713 -1.672 79.778 -2.735 Q80.843 -3.798 80.843 -5.23 Q80.843 -6.658 79.906 -7.568 Q78.969 -8.477 77.588 -8.674 L72.065 -9.167 L71.735 -14.035 Q71.297 -16.765 69.203 -18.687 Q67.108 -20.608 64.329 -20.608 Q61.345 -20.608 59.366 -18.44 Q57.387 -16.272 56.543 -13.485 L56.088 -11.534 L51.749 -11.041 Q49.973 -10.745 48.839 -9.414 Q47.705 -8.082 47.705 -6.406 Q47.705 -4.394 49.066 -3.033 Q50.427 -1.672 52.439 -1.672 Z"/></g><g id="Medium-S" transform="matrix(1 0 0 1 1701.85 696)"><path d="M26.273 4.529 H35.518 Q34.099 2.739 33.104 0.702 Q32.111 -1.335 31.642 -3.657 H26.296 Q26.296 -3.657 26.296 -3.657 Q26.296 -3.657 26.296 -3.657 L26.32 -46.28 Q26.32 -46.28 26.32 -46.28 Q26.32 -46.28 26.296 -46.28 L45.068 -65.694 Q45.068 -65.694 45.068 -65.694 Q45.068 -65.694 45.068 -65.694 L63.909 -46.304 Q63.909 -46.304 63.909 -46.304 Q63.909 -46.304 63.909 -46.304 V-36.857 Q66.019 -36.801 68.089 -36.306 Q70.159 -35.811 72.119 -35.022 V-46.304 Q72.095 -47.995 71.519 -49.478 Q70.944 -50.961 69.717 -52.065 L50.73 -71.526 Q49.48 -72.753 48.052 -73.328 Q46.624 -73.904 45.068 -73.904 Q43.507 -73.904 41.971 -73.29 Q40.434 -72.678 39.26 -71.526 L20.488 -52.065 Q19.261 -50.838 18.686 -49.398 Q18.111 -47.96 18.111 -46.28 V-3.61 Q18.111 -0.273 20.524 2.127 Q22.937 4.529 26.273 4.529 Z M45.005 -44.411 Q42.55 -44.411 40.824 -46.113 Q39.098 -47.816 39.145 -50.281 Q39.098 -52.624 40.824 -54.327 Q42.55 -56.029 45.015 -56.029 Q47.458 -56.029 49.196 -54.327 Q50.933 -52.624 50.863 -50.281 Q50.933 -47.816 49.196 -46.113 Q47.458 -44.411 45.005 -44.411 Z M50.863 4.552 Q45.55 4.552 41.924 0.926 Q38.296 -2.701 38.296 -8.013 Q38.296 -12.641 41.265 -16.11 Q44.233 -19.578 48.836 -20.312 Q50.284 -24.821 54.1 -27.435 Q57.917 -30.048 62.769 -30.048 Q68.33 -30.048 72.462 -26.632 Q76.593 -23.215 77.311 -18.044 Q81.524 -17.413 84.312 -14.247 Q87.099 -11.081 87.099 -6.806 Q87.099 -2.079 83.67 1.237 Q80.24 4.552 75.716 4.552 H50.863 Z M50.863 -3.279 H75.716 Q77.137 -3.279 78.202 -4.327 Q79.267 -5.374 79.267 -6.838 Q79.267 -8.234 78.33 -9.159 Q77.393 -10.085 76.012 -10.282 L70.489 -10.775 L69.837 -15.964 Q69.368 -18.599 67.372 -20.408 Q65.377 -22.215 62.722 -22.215 Q59.865 -22.215 57.919 -20.161 Q55.972 -18.106 55.159 -15.447 L54.512 -13.142 L50.173 -12.649 Q48.397 -12.353 47.263 -11.022 Q46.129 -9.69 46.129 -8.013 Q46.129 -6.001 47.49 -4.64 Q48.851 -3.279 50.863 -3.279 Z"/></g><g id="Regular-S" transform="matrix(1 0 0 1 1405.73 696)"><path d="M26.037 2.642 H34.716 Q33.532 1.064 32.645 -0.69 Q31.757 -2.443 31.264 -4.459 H26.037 Q26.037 -4.459 26.037 -4.459 Q26.037 -4.459 26.037 -4.459 V-46.375 Q26.037 -46.375 26.037 -46.375 Q26.037 -46.375 26.037 -46.375 L44.973 -66.001 Q44.973 -66.001 44.973 -66.001 Q44.973 -66.001 44.973 -66.001 L63.909 -46.375 Q63.909 -46.375 63.909 -46.375 Q63.909 -46.375 63.909 -46.375 V-37.4 Q65.783 -37.202 67.558 -36.66 Q69.333 -36.118 71.01 -35.329 V-46.375 Q71.01 -47.854 70.517 -49.136 Q70.024 -50.418 68.939 -51.404 L49.904 -71.031 Q48.819 -72.116 47.58 -72.609 Q46.341 -73.102 44.973 -73.102 Q43.625 -73.102 42.278 -72.56 Q40.929 -72.017 39.943 -71.031 L21.007 -51.404 Q19.922 -50.32 19.429 -49.093 Q18.936 -47.865 18.936 -46.375 V-4.459 Q18.936 -1.5 21.007 0.571 Q23.078 2.642 26.037 2.642 Z M44.874 -44.599 Q42.409 -44.599 40.683 -46.325 Q38.957 -48.051 38.957 -50.517 Q38.957 -52.884 40.683 -54.61 Q42.409 -56.336 44.874 -56.336 Q47.34 -56.336 49.066 -54.61 Q50.792 -52.884 50.792 -50.517 Q50.792 -48.051 49.066 -46.325 Q47.34 -44.599 44.874 -44.599 Z M49.707 2.642 Q44.677 2.642 41.275 -0.761 Q37.872 -4.163 37.872 -9.193 Q37.872 -13.631 40.781 -16.935 Q43.691 -20.239 48.129 -20.831 Q49.411 -25.269 53.11 -27.882 Q56.808 -30.496 61.542 -30.496 Q66.868 -30.496 70.763 -27.044 Q74.659 -23.592 75.448 -18.562 Q79.59 -18.168 82.401 -15.167 Q85.212 -12.166 85.212 -8.009 Q85.212 -3.571 82.007 -0.465 Q78.801 2.642 74.561 2.642 H49.707 Z M49.707 -4.459 H74.561 Q75.981 -4.459 77.046 -5.495 Q78.111 -6.53 78.111 -8.017 Q78.111 -9.39 77.174 -10.327 Q76.237 -11.264 74.856 -11.461 L69.333 -11.954 L68.446 -17.379 Q67.953 -19.943 66.029 -21.669 Q64.106 -23.395 61.542 -23.395 Q58.781 -23.395 56.857 -21.422 Q54.934 -19.45 54.145 -16.886 L53.356 -14.321 L49.017 -13.828 Q47.241 -13.532 46.107 -12.201 Q44.973 -10.87 44.973 -9.193 Q44.973 -7.181 46.334 -5.82 Q47.695 -4.459 49.707 -4.459 Z"/></g><g id="Light-S" transform="matrix(1 0 0 1 1109.75 696)"><path d="M27.289 0.67 H33.389 Q32.546 -0.491 31.867 -1.751 Q31.186 -3.01 30.808 -4.459 H27.289 Q26.758 -4.459 26.397 -4.839 Q26.037 -5.217 26 -5.749 L26.037 -46.261 Q26.037 -46.488 26.132 -46.716 Q26.226 -46.944 26.378 -47.133 L44.252 -65.66 Q44.593 -66.001 45.086 -65.982 Q45.58 -65.964 45.998 -65.621 L64.061 -47.096 Q64.25 -46.906 64.326 -46.697 Q64.402 -46.488 64.402 -46.223 V-38.082 Q65.783 -37.809 67.046 -37.343 Q68.309 -36.876 69.568 -36.315 V-46.244 Q69.531 -47.589 69.097 -48.75 Q68.663 -49.911 67.687 -50.798 L49.563 -69.324 Q48.592 -70.295 47.474 -70.712 Q46.358 -71.129 45.125 -71.129 Q43.929 -71.129 42.695 -70.644 Q41.461 -70.158 40.588 -69.324 L22.752 -50.798 Q21.743 -49.788 21.326 -48.679 Q20.909 -47.57 20.909 -46.223 V-5.711 Q20.909 -3.094 22.79 -1.212 Q24.672 0.67 27.289 0.67 Z M45.102 -45.889 Q43.054 -45.889 41.556 -47.35 Q40.057 -48.81 40.132 -50.858 Q40.057 -52.808 41.556 -54.269 Q43.054 -55.729 45.102 -55.729 Q47.151 -55.729 48.667 -54.269 Q50.185 -52.808 50.071 -50.858 Q50.185 -48.81 48.667 -47.35 Q47.151 -45.889 45.102 -45.889 Z M48.721 0.67 Q44.146 0.67 41.009 -2.468 Q37.872 -5.605 37.872 -10.179 Q37.872 -14.235 40.572 -17.263 Q43.274 -20.293 47.408 -20.868 Q48.614 -25.306 52.275 -27.901 Q55.935 -30.496 60.687 -30.496 Q66.033 -30.496 69.872 -27.007 Q73.71 -23.516 74.234 -18.562 H74.727 Q78.376 -18.168 80.807 -15.432 Q83.24 -12.696 83.24 -8.977 Q83.24 -4.975 80.315 -2.153 Q77.391 0.67 73.574 0.67 H48.721 Z M48.721 -4.459 H73.574 Q75.412 -4.459 76.762 -5.798 Q78.111 -7.137 78.111 -9.004 Q78.111 -10.794 76.89 -12.016 Q75.668 -13.237 73.87 -13.434 L69.371 -13.927 L69.128 -17.568 Q68.825 -20.816 66.371 -23.091 Q63.917 -25.367 60.593 -25.367 Q57.313 -25.367 54.948 -23.167 Q52.582 -20.968 51.717 -17.872 L51.46 -16.294 L48.03 -15.801 Q45.836 -15.505 44.418 -13.87 Q43.001 -12.236 43.001 -10.161 Q43.001 -7.75 44.645 -6.104 Q46.29 -4.459 48.721 -4.459 Z"/></g><g id="Thin-S" transform="matrix(1 0 0 1 814.015 696)"><path d="M28.54 -1.303 H32.061 Q31.56 -2.047 31.088 -2.812 Q30.616 -3.578 30.354 -4.459 H28.54 Q27.479 -4.459 26.758 -5.217 Q26.037 -5.976 25.961 -7.038 L26.037 -46.147 Q26.037 -46.602 26.226 -47.057 Q26.417 -47.513 26.719 -47.891 L43.531 -65.319 Q44.215 -66.001 45.201 -65.964 Q46.187 -65.925 47.021 -65.243 L64.213 -47.817 Q64.591 -47.437 64.743 -47.02 Q64.895 -46.602 64.895 -46.071 V-38.766 Q65.783 -38.417 66.534 -38.026 Q67.285 -37.634 68.127 -37.301 V-46.114 Q68.051 -47.323 67.676 -48.364 Q67.303 -49.404 66.436 -50.19 L49.222 -67.616 Q48.364 -68.475 47.37 -68.816 Q46.374 -69.157 45.277 -69.157 Q44.232 -69.157 43.112 -68.728 Q41.992 -68.3 41.233 -67.616 L24.496 -50.19 Q23.563 -49.257 23.222 -48.266 Q22.881 -47.275 22.881 -46.071 V-6.962 Q22.881 -4.687 24.572 -2.994 Q26.265 -1.303 28.54 -1.303 Z M45.33 -47.178 Q43.699 -47.178 42.427 -48.374 Q41.157 -49.568 41.309 -51.199 Q41.157 -52.732 42.427 -53.927 Q43.699 -55.122 45.33 -55.122 Q46.96 -55.122 48.269 -53.927 Q49.578 -52.732 49.35 -51.199 Q49.578 -49.568 48.269 -48.374 Q46.96 -47.178 45.33 -47.178 Z M47.735 -1.303 Q43.615 -1.303 40.744 -4.175 Q37.872 -7.046 37.872 -11.165 Q37.872 -14.838 40.364 -17.593 Q42.857 -20.347 46.687 -20.907 Q47.818 -25.345 51.441 -27.92 Q55.063 -30.496 59.832 -30.496 Q65.199 -30.496 68.98 -26.968 Q72.763 -23.44 73.02 -18.562 H74.006 Q77.162 -18.168 79.215 -15.697 Q81.267 -13.228 81.267 -9.945 Q81.267 -6.378 78.624 -3.841 Q75.981 -1.303 72.588 -1.303 H47.735 Z M47.735 -4.459 H72.588 Q74.843 -4.459 76.477 -6.101 Q78.111 -7.744 78.111 -9.99 Q78.111 -12.197 76.605 -13.703 Q75.099 -15.209 72.884 -15.406 L69.409 -15.899 L69.812 -17.759 Q69.697 -21.688 66.712 -24.514 Q63.727 -27.34 59.645 -27.34 Q55.846 -27.34 53.039 -24.912 Q50.231 -22.485 49.29 -18.858 L49.563 -18.266 L47.044 -17.773 Q44.431 -17.477 42.729 -15.54 Q41.028 -13.601 41.028 -11.128 Q41.028 -8.319 42.956 -6.389 Q44.884 -4.459 47.735 -4.459 Z"/></g><g id="Ultralight-S" transform="matrix(1 0 0 1 517.792 696)"><path d="M29.292 -2.486 H31.264 Q30.968 -2.98 30.621 -3.449 Q30.274 -3.919 30.081 -4.459 H29.292 Q27.911 -4.459 26.974 -5.445 Q26.037 -6.431 25.938 -7.812 L26.037 -46.079 Q26.037 -46.67 26.284 -47.262 Q26.53 -47.854 26.925 -48.347 L43.099 -65.113 Q43.987 -66.001 45.269 -65.952 Q46.551 -65.902 47.636 -65.015 L64.303 -48.248 Q64.797 -47.755 64.994 -47.213 Q65.191 -46.67 65.191 -45.98 V-39.175 Q65.783 -38.78 66.227 -38.435 Q66.671 -38.09 67.262 -37.893 V-46.036 Q67.164 -47.164 66.825 -48.132 Q66.486 -49.1 65.684 -49.826 L49.017 -66.593 Q48.228 -67.382 47.306 -67.678 Q46.384 -67.973 45.367 -67.973 Q44.414 -67.973 43.362 -67.579 Q42.31 -67.184 41.62 -66.593 L25.544 -49.826 Q24.656 -48.939 24.36 -48.019 Q24.065 -47.098 24.065 -45.98 V-7.714 Q24.065 -5.642 25.643 -4.064 Q27.221 -2.486 29.292 -2.486 Z M45.466 -47.953 Q44.085 -47.953 42.951 -48.988 Q41.817 -50.024 42.014 -51.404 Q41.817 -52.687 42.951 -53.722 Q44.085 -54.758 45.466 -54.758 Q46.847 -54.758 48.03 -53.722 Q49.214 -52.687 48.918 -51.404 Q49.214 -50.024 48.03 -48.988 Q46.847 -47.953 45.466 -47.953 Z M47.143 -2.486 Q43.296 -2.486 40.584 -5.199 Q37.872 -7.911 37.872 -11.757 Q37.872 -15.201 40.239 -17.79 Q42.606 -20.379 46.255 -20.929 Q47.34 -25.367 50.94 -27.932 Q54.54 -30.496 59.319 -30.496 Q64.698 -30.496 68.446 -26.945 Q72.194 -23.395 72.292 -18.562 H73.574 Q76.434 -18.168 78.259 -15.857 Q80.084 -13.546 80.084 -10.524 Q80.084 -7.22 77.609 -4.853 Q75.134 -2.486 71.996 -2.486 H47.143 Z M47.143 -4.459 H71.996 Q74.501 -4.459 76.306 -6.284 Q78.111 -8.108 78.111 -10.582 Q78.111 -13.039 76.434 -14.716 Q74.758 -16.393 72.292 -16.59 L69.432 -17.083 L70.221 -17.872 Q70.221 -22.211 66.917 -25.367 Q63.613 -28.523 59.076 -28.523 Q54.967 -28.523 51.893 -25.959 Q48.819 -23.395 47.833 -19.45 H48.425 L46.452 -18.957 Q43.587 -18.661 41.716 -16.541 Q39.845 -14.42 39.845 -11.708 Q39.845 -8.66 41.943 -6.56 Q44.041 -4.459 47.143 -4.459 Z"/></g></g></svg>