<svg xmlns="http://www.w3.org/2000/svg" height="24" viewBox="0 -960 960 960" width="24"><path d="M470-559.97q-4 4.02-4 9.97v75q0 5.52 4.04 9.26 4.03 3.74 10 3.74 5.96 0 9.96-4.02 4-4.03 4-9.98v-74q0-5.95-4.04-9.97-4.03-4.03-10-4.03-5.96 0-9.96 4.03ZM355.98-256q-4.03 4-9.98 4h-92q-5.95 0-9.98-4.04-4.02-4.03-4.02-10 0-5.96 4.02-9.96 4.03-4 9.98-4h92q5.95 0 9.98 4.04 4.02 4.03 4.02 10 0 5.96-4.02 9.96Zm359.99 0q-4.02 4-9.97 4h-93q-5.53 0-9.26-4.04-3.74-4.03-3.74-10 0-5.96 4.03-9.96 4.02-4 9.97-4h92q5.95 0 9.97 4.04 4.03 4.03 4.03 10 0 5.96-4.03 9.96ZM294-462q22 0 36.5-14.5t14.5-36q0-21.5-14.5-36t-36-14.5q-21.5 0-36.5 14.69-15 14.68-15 35.31 0 22 14.98 36.5T294-462Zm371.68 1q21.32 0 36.82-15.18t15.5-36.5Q718-534 702.61-549t-37-15Q644-564 629-549t-15 36.32q0 21.32 15.18 36.5t36.5 15.18ZM192-358q-26 0-43-17t-17-43.1v-189.8q0-26.1 17-43.1t43-17h576q26 0 43 17t17 43.1v189.8q0 26.1-17 43.1t-43 17H192Zm0-28h576q14 0 23-9t9-23v-190q0-14-9-23t-23-9H192q-14 0-23 9t-9 23v190q0 14 9 23t23 9Zm288-127Z"/></svg>