<svg xmlns="http://www.w3.org/2000/svg" height="40" viewBox="0 -960 960 960" width="40"><path d="M451.75-572.6q-11.54 11.79-11.54 28.33v63.2q0 16.92 11.66 28.46t28.25 11.54q16.58 0 28.48-11.62 11.9-11.63 11.9-28.54v-63.04q0-16.54-12.02-28.33-12.01-11.8-28.6-11.8-16.58 0-28.13 11.8Zm-99.57 407.07q-12.64 12.37-30.31 12.37h-86.41q-17.66 0-29.95-12.48-12.29-12.49-12.29-30.04 0-17.55 12.29-29.92 12.29-12.37 29.95-12.37h86.41q17.67 0 30.31 12.49 12.64 12.48 12.64 30.03t-12.64 29.92Zm402 0q-12.64 12.37-30.31 12.37H637.3q-17.67 0-30.12-12.48-12.46-12.49-12.46-30.04 0-17.55 12.46-29.92 12.45-12.37 30.12-12.37h86.57q17.67 0 30.31 12.49 12.64 12.48 12.64 30.03t-12.64 29.92ZM279.8-441.07q30.52 0 51.17-20.86 20.66-20.86 20.66-50.5 0-30.01-20.66-50.99-20.65-20.98-50.84-20.98-30.21 0-51.02 20.84-20.81 20.85-20.81 50.86 0 29.63 20.71 50.63 20.72 21 50.79 21Zm400.11.5q30.17 0 51.09-21.03 20.91-21.03 20.91-50.83 0-30.18-20.91-51.16-20.92-20.97-50.75-20.97-30.38 0-51.36 20.84t-20.98 51.02q0 29.8 20.89 50.97 20.88 21.16 51.11 21.16Zm-524.26 144.6q-35.09 0-59.95-25.05t-24.86-60.14v-272.61q0-35.09 24.86-60.14 24.86-25.05 59.95-25.05h648.7q35.09 0 60.14 25.05 25.05 25.05 25.05 60.14v272.61q0 35.09-25.05 60.14-25.05 25.05-60.14 25.05h-648.7Z"/></svg>