<svg xmlns="http://www.w3.org/2000/svg" height="20" viewBox="0 -960 960 960" width="20"><path d="M442-543.18q-16 15.83-16 38.09v35.83Q426-447 441.79-431q15.79 16 38 16T518-430.82q16-15.83 16-38.09v-35.83Q534-527 518.21-543q-15.79-16-38-16T442-543.18ZM396.68-95.5Q379.35-78 355.09-78h-85.83Q245-78 227.5-95.29q-17.5-17.29-17.5-41.5t17.32-41.71q17.33-17.5 41.59-17.5h85.83q24.26 0 41.76 17.29 17.5 17.29 17.5 41.5T396.68-95.5Zm336 0Q715.35-78 691.09-78h-85.83Q581-78 563.5-95.29q-17.5-17.29-17.5-41.5t17.32-41.71q17.33-17.5 41.59-17.5h85.83q24.26 0 41.76 17.29 17.5 17.29 17.5 41.5T732.68-95.5ZM302.21-415q30.79 0 51.29-21.21t20.5-51Q374-517 353.29-538t-51.5-21Q272-559 251-537.79t-21 51Q230-457 251.21-436t51 21Zm356 0Q688-415 709-436.21t21-51Q730-517 708.79-538t-51-21Q628-559 607-537.79t-21 51Q586-457 607.21-436t51 21ZM180-244q-53 0-85.5-32.5T62-362v-270q0-53 32.5-85.5T180-750h600q53 0 85.5 32.5T898-632v270q0 53-32.5 85.5T780-244H180Z"/></svg>