<svg xmlns="http://www.w3.org/2000/svg" height="40" viewBox="0 -960 960 960" width="40"><path d="M449.37-590.84q-12.63 12.96-12.63 30.97v76.44q0 18.54 12.75 30.81 12.75 12.28 30.62 12.28 17.86 0 30.92-12.6 13.06-12.6 13.06-30.82v-76.11q0-18.01-13.18-30.97-13.17-12.96-31.04-12.96-17.86 0-30.5 12.96ZM345.12-158.91q-13.13 12.79-31.33 12.79h-86.14q-18.2 0-31.25-12.91-13.04-12.91-13.04-31.37t13.04-31.72q13.05-13.26 31.25-13.26h86.14q18.2 0 31.33 13.38 13.13 13.37 13.13 31.84 0 18.46-13.13 31.25Zm418.65 0q-13.12 12.79-31.33 12.79h-85.9q-18.53 0-31.41-12.91-12.88-12.91-12.88-31.37t12.88-31.72q12.88-13.26 31.41-13.26h85.9q18.21 0 31.33 13.38 13.13 13.37 13.13 31.84 0 18.46-13.13 31.25Zm-486.1-281.43q34.03 0 58.05-23.97 24.03-23.97 24.03-57.31 0-33.77-23.92-57.97-23.93-24.21-57.82-24.21-34.97 0-58.46 24.02-23.49 24.01-23.49 57.86 0 33.68 23.48 57.63 23.49 23.95 58.13 23.95Zm404.34 0q34.95 0 58.52-23.97t23.57-57.31q0-33.77-23.47-57.97-23.46-24.21-58.27-24.21-33.98 0-57.96 24.02-23.99 24.01-23.99 57.86 0 33.68 23.98 57.63 23.99 23.95 57.62 23.95Zm-536 147.63q-36.4 0-62.83-26.29-26.43-26.3-26.43-63.13v-284.02q0-36.41 26.43-62.92 26.43-26.5 62.83-26.5h667.98q36.4 0 62.91 26.5 26.51 26.51 26.51 62.92v284.02q0 36.83-26.51 63.13-26.51 26.29-62.91 26.29H146.01Z"/></svg>