<svg xmlns="http://www.w3.org/2000/svg" height="40" viewBox="0 -960 960 960" width="40"><path d="M468.4-564.44q-4.26 4.72-4.26 11.85v75.68q0 7.03 4.41 11.17t11.6 4.14q7.2 0 11.81-4.37 4.62-4.36 4.62-11.49v-75.13q0-7.13-4.77-11.85-4.77-4.73-11.96-4.73-7.2 0-11.45 4.73Zm-117.23 317q-4.98 4.62-11.61 4.62h-89.48q-7.13 0-11.5-4.93-4.36-4.92-4.36-11.44t4.36-11.29q4.37-4.78 11.5-4.78h89.48q6.63 0 11.61 4.77 4.97 4.77 4.97 11.6 0 6.84-4.97 11.45Zm370.45 0q-4.72 4.62-11.85 4.62h-90.04q-6.8 0-11.3-4.77-4.51-4.77-4.51-11.6 0-6.84 4.73-11.45 4.72-4.62 11.85-4.62h89.27q7.13 0 11.85 4.77 4.73 4.77 4.73 11.6 0 6.84-4.73 11.45ZM289.42-461.6q23.81 0 39.5-15.01 15.68-15.01 15.68-37.77 0-22.92-15.68-38.47-15.69-15.55-38.53-15.55-22.85 0-38.36 15.47-15.5 15.46-15.5 37.63 0 23.24 15.36 38.47 15.37 15.23 37.53 15.23Zm380.05 1.27q23.4 0 39.26-15.79 15.86-15.78 15.86-38.4 0-22.63-15.75-38.53-15.75-15.9-38.91-15.9-23.16 0-39.2 15.65-16.04 15.64-16.04 38.26 0 22.63 16.09 38.67 16.09 16.04 38.69 16.04ZM179.7-352.87q-23.42 0-40.15-16.73-16.73-16.74-16.73-40.35v-210.16q0-23.61 16.73-40.34 16.73-16.73 40.15-16.73h600.6q23.42 0 40.15 16.73 16.73 16.73 16.73 40.34v210.16q0 23.61-16.73 40.35-16.73 16.73-40.15 16.73H179.7Zm.17-32.44h600.26q10.77 0 17.69-6.92 6.92-6.92 6.92-17.69v-210.21q0-10.77-6.92-17.69-6.92-6.92-17.69-6.92H179.87q-10.77 0-17.69 6.92-6.92 6.92-6.92 17.69v210.21q0 10.77 6.92 17.69 6.92 6.92 17.69 6.92ZM480-515.03Z"/></svg>