<svg xmlns="http://www.w3.org/2000/svg" height="20" viewBox="0 -960 960 960" width="20"><path d="M452.62-571.7Q441-560.25 441-544.24v74.9q0 15.85 11.42 26.86 11.42 11.02 27.38 11.02 15.97 0 27.58-11.45Q519-454.36 519-470.37v-73.52q0-16.01-11.42-27.64-11.42-11.62-27.38-11.62-15.97 0-27.58 11.45Zm-76.07 409.08Q365.1-151 349.09-151h-79.44q-16.01 0-27.64-11.42-11.62-11.42-11.62-27.38 0-15.97 11.45-27.58Q253.28-229 269.3-229h79.44q16.01 0 27.64 11.42Q388-206.16 388-190.2q0 15.97-11.45 27.58Zm342.61 0Q707.72-151 691.7-151h-79.82q-15.85 0-27.37-11.42Q573-173.84 573-189.8q0-15.97 11.45-27.58Q595.9-229 611.91-229h79.44q16.01 0 27.64 11.42 11.62 11.42 11.62 27.38 0 15.97-11.45 27.58ZM307.6-431.46q31.55 0 53.59-22.25 22.04-22.25 22.04-53.62 0-31.36-22.25-53.4t-53.62-22.04q-32.36 0-54.09 22.32-21.73 22.33-21.73 53.35 0 31.56 21.94 53.6 21.93 22.04 54.12 22.04Zm345.1.38q32.3 0 54.22-22.51t21.92-53.81q0-31.29-22.09-53.52-22.09-22.23-54.5-22.23-31.4 0-53.63 22.44-22.23 22.44-22.23 53.74 0 31.29 22.51 53.59 22.51 22.3 53.8 22.3ZM174.31-291.62q-41.31 0-65.81-24.5T84-381.96v-250.69q0-41.35 24.5-65.85Q133-723 174.31-723h611.38q41.31 0 65.81 24.5t24.5 65.85v250.69q0 41.34-24.5 65.84t-65.81 24.5H174.31Z"/></svg>