<svg xmlns="http://www.w3.org/2000/svg" height="48" viewBox="0 -960 960 960" width="48"><path d="M472-559.34q-2.5 3.17-2.5 8.34v74.5q0 4.75 2.73 7.37 2.73 2.63 8 2.63t8.27-2.66q3-2.66 3-7.84v-74q0-5.17-3.23-8.34-3.23-3.16-8.5-3.16t-7.77 3.16ZM352.85-255q-3.65 3-7.85 3h-93q-5.18 0-7.84-3.23t-2.66-8q0-4.77 2.66-7.77t7.84-3h93q4.2 0 7.85 3.23 3.65 3.23 3.65 8t-3.65 7.77Zm363.49 0q-3.17 3-8.34 3h-93.5q-4.75 0-7.62-3.23-2.88-3.23-2.88-8t3.16-7.77q3.17-3 8.34-3H708q5.17 0 8.34 3.23 3.16 3.23 3.16 8t-3.16 7.77ZM291.66-466.5q21.34 0 35.59-13.05 14.25-13.04 14.25-33.75 0-21.2-14.25-34.7-14.25-13.5-34.59-13.5-20.83 0-34.5 13.48-13.66 13.49-13.66 33.82 0 21.2 13.5 34.45 13.5 13.25 33.66 13.25Zm376.02 1.5q21.29 0 35.31-13.98Q717-492.96 717-513.48T702.99-548q-14.01-14-35.25-14-20.74 0-35.24 13.8-14.5 13.79-14.5 34.32 0 20.52 14.59 34.7Q647.19-465 667.68-465ZM186-360q-22.27 0-38.14-15.86Q132-391.73 132-414.1v-199.8q0-22.38 15.86-38.24Q163.73-668 186-668h588q22.28 0 38.14 15.86T828-613.9v199.8q0 22.37-15.86 38.24Q796.28-360 774-360H186Z"/></svg>