<svg xmlns="http://www.w3.org/2000/svg" height="20" viewBox="0 -960 960 960" width="20"><path d="M474-534.9q-2.5 2.6-2.5 6.31v65.83q0 3.28 2.32 5.52 2.33 2.24 6 2.24 3.68 0 6.43-2.35 2.75-2.35 2.75-6.06v-64.83q0-3.71-2.57-6.48-2.58-2.78-6.25-2.78-3.68 0-6.18 2.6Zm-92.1 283.15q-2.6 2.75-6.31 2.75h-82.83q-3.71 0-6.24-2.57-2.52-2.58-2.52-6 0-3.43 2.35-6.18 2.35-2.75 6.06-2.75h82.83q3.71 0 6.49 2.57 2.77 2.58 2.77 6 0 3.43-2.6 6.18Zm292 0q-2.6 2.75-6.31 2.75h-83.83q-3.29 0-5.77-2.57-2.49-2.58-2.49-6 0-3.43 2.6-6.18 2.6-2.75 6.31-2.75h82.83q3.71 0 6.48 2.57 2.78 2.58 2.78 6 0 3.43-2.6 6.18ZM316.21-455q18.29 0 29.79-11.71t11.5-29q0-17.79-11.71-29.29t-29.5-11.5q-17.79 0-29.54 11.9T275-495.79q0 17.79 11.94 29.29 11.95 11.5 29.27 11.5Zm327.68 1.5q17.61 0 30.11-12.39 12.5-12.4 12.5-30 0-17.61-12.6-29.61t-30.5-12q-17.9 0-29.9 12.21t-12 29.82q0 17.61 12.39 29.79 12.4 12.18 30 12.18ZM202.5-353q-24.5 0-37-12.5T153-402.6v-186.8q0-24.6 12.5-37.1t37-12.5h555q24.5 0 37 12.5t12.5 37.1v186.8q0 24.6-12.5 37.1t-37 12.5h-555Z"/></svg>