<svg xmlns="http://www.w3.org/2000/svg" height="48" viewBox="0 -960 960 960" width="48"><path d="M450.5-566.13q-12 12.38-12 29.63v54q0 18.25 12.18 30.37Q462.85-440 480.18-440q17.32 0 30.07-12.13Q523-464.25 523-482.5v-54q0-17.25-12.93-29.63-12.92-12.37-30.25-12.37-17.32 0-29.32 12.37Zm-95.87 432.88Q340.75-120 321.5-120h-91q-19.25 0-32.37-13.43Q185-146.85 185-165.93q0-19.07 13.13-32.32 13.12-13.25 32.37-13.25h91q19.25 0 33.13 13.43 13.87 13.42 13.87 32.5 0 19.07-13.87 32.32Zm407 0Q747.75-120 728.5-120h-91q-19.25 0-32.62-13.43-13.38-13.42-13.38-32.5 0-19.07 13.38-32.32 13.37-13.25 32.62-13.25h91q19.25 0 33.13 13.43 13.87 13.42 13.87 32.5 0 19.07-13.87 32.32ZM278-440q29.5 0 49.5-20.05 20-20.04 20-48.75 0-29.7-20-49.7-20-20-49-20-30 0-49.75 19.8Q209-538.91 209-509.2q0 28.7 19.61 48.95Q248.21-440 278-440Zm404 .5q29.5 0 49.5-20.3 20-20.29 20-49 0-29.7-20-49.7-20-20-49-20-30 0-50 19.8-20 19.79-20 49.5 0 28.7 19.86 49.2 19.85 20.5 49.64 20.5ZM151.5-278q-38 0-64.75-27.25T60-370.5v-293q0-38 26.75-65.25T151.5-756h657q38 0 65.25 27.25T901-663.5v293q0 38-27.25 65.25T808.5-278h-657Z"/></svg>