<svg xmlns="http://www.w3.org/2000/svg" height="20" viewBox="0 -960 960 960" width="20"><path d="M474-534.9q-2.5 2.6-2.5 6.31v65.83q0 3.51 2.32 5.63 2.33 2.13 6 2.13 3.68 0 6.43-2.35 2.75-2.35 2.75-6.06v-64.83q0-3.71-2.57-6.48-2.58-2.78-6.25-2.78-3.68 0-6.18 2.6Zm-92.1 283.15q-2.6 2.75-6.31 2.75h-82.83q-3.71 0-6.24-2.68-2.52-2.69-2.52-5.89 0-3.21 2.35-6.07 2.35-2.86 6.06-2.86h82.83q3.71 0 6.49 2.57 2.77 2.58 2.77 6 0 3.43-2.6 6.18Zm292 0q-2.6 2.75-6.31 2.75h-83.83q-3.29 0-5.77-2.57-2.49-2.58-2.49-6 0-3.43 2.6-6.18 2.6-2.75 6.31-2.75h82.83q3.71 0 6.48 2.57 2.78 2.58 2.78 6 0 3.43-2.6 6.18ZM315.96-455q18.54 0 30.04-11.61 11.5-11.62 11.5-29.06 0-17.66-11.71-29.24-11.71-11.59-29.5-11.59t-29.54 11.88Q275-512.74 275-496.06q0 18.06 11.92 29.56 11.91 11.5 29.04 11.5Zm327.75 1.5q17.79 0 30.29-12.43t12.5-29.88q0-17.45-12.52-29.57-12.52-12.12-30.5-12.12t-29.98 12.25q-12 12.24-12 29.7 0 17.45 12.4 29.75t29.81 12.3ZM202.28-353q-24.22 0-36.75-12.53-12.53-12.53-12.53-37v-186.94q0-24.47 12.53-37Q178.06-639 202.28-639h555.44q24.22 0 36.75 12.53 12.53 12.53 12.53 37v186.94q0 24.47-12.53 37Q781.94-353 757.72-353H202.28Zm.22-17.5h555q14 0 23-9t9-23v-187q0-14-9-23t-23-9h-555q-14 0-23 9t-9 23v187q0 14 9 23t23 9ZM480-496Z"/></svg>