<svg xmlns="http://www.w3.org/2000/svg" height="48" viewBox="0 -960 960 960" width="48"><path d="M453.65-587.46q-10.85 11.32-10.85 26.87v76.83q0 16.47 11.04 26.95t26.34 10.48q15.3 0 26.78-10.85 11.47-10.85 11.47-26.58v-76.83q0-15.55-11.6-26.87t-26.97-11.32q-15.37 0-26.21 11.32ZM340.63-169.72q-11.39 10.96-27 10.96h-86.15q-15.64 0-26.9-11.14-11.25-11.13-11.25-27.05t11.25-27.52q11.26-11.6 26.9-11.6h86.15q15.61 0 27 11.78 11.39 11.77 11.39 27.69 0 15.92-11.39 26.88Zm418.65 0q-11.39 10.96-27 10.96h-85.91q-15.97 0-27.06-11.14-11.09-11.13-11.09-27.05t11.09-27.52q11.09-11.6 27.06-11.6h85.91q15.61 0 27 11.78 11.39 11.77 11.39 27.69 0 15.92-11.39 26.88ZM274.9-446.33q32.38 0 54.78-22.17 22.41-22.17 22.41-53.31 0-31.65-22.18-54.31-22.18-22.66-54.04-22.66-32.91 0-54.7 22.24-21.78 22.25-21.78 53.95 0 31.7 21.8 53.98 21.81 22.28 53.71 22.28Zm409.14 0q33 0 54.91-22.17 21.9-22.17 21.9-53.31 0-31.65-21.78-54.31-21.77-22.66-53.94-22.66-32.41 0-54.7 22.24-22.28 22.25-22.28 53.95 0 31.7 22.21 53.98 22.21 22.28 53.68 22.28ZM140.11-302.07q-30.75 0-54.03-23.03T62.8-379.61v-289.72q0-30.84 23.28-54.19 23.28-23.35 54.03-23.35h679.78q30.85 0 54.2 23.35 23.34 23.35 23.34 54.19v289.72q0 31.48-23.34 54.51-23.35 23.03-54.2 23.03H140.11Zm0-77.54h679.78v-289.72H140.11v289.72ZM480-523.85Z"/></svg>