<svg xmlns="http://www.w3.org/2000/svg" height="24" viewBox="0 -960 960 960" width="24"><path d="M450.51-578.12q-12.31 12.32-12.31 29.49v69.89q0 17.17 12.31 29.24 12.32 12.07 29.49 12.07 17.17 0 29.49-12.32 12.31-12.32 12.31-29.49v-69.39q0-17.17-12.31-29.49-12.32-12.31-29.49-12.31-17.17 0-29.49 12.31ZM355-195.41q-12.67 12.67-30.33 12.67h-81.34q-17.66 0-30.33-12.67-12.67-12.68-12.67-30.33T213-256.06q12.67-12.68 30.33-12.68h81.34q17.66 0 30.33 12.68 12.67 12.67 12.67 30.32T355-195.41Zm392 0q-12.67 12.67-30.33 12.67h-81.84q-17.66 0-30.33-12.67-12.67-12.68-12.67-30.33t12.67-30.32q12.67-12.68 30.33-12.68h81.84q17.66 0 30.33 12.68 12.67 12.67 12.67 30.32T747-195.41ZM284.48-437.43q32.24 0 54.37-22.5 22.13-22.5 22.13-54t-22.13-54q-22.13-22.5-54.37-22.5-31.5 0-54 22.5t-22.5 54q0 31.5 22.5 54t54 22.5Zm391.04.5q31.5 0 54.25-22.5t22.75-54.5q0-32-22.75-54.5t-54.25-22.5q-32 0-54.5 22.5t-22.5 54.5q0 32 22.5 54.5t54.5 22.5ZM167.87-309.74q-35.78 0-60.89-25.11t-25.11-60.89v-241.17q0-35.79 25.11-60.89 25.11-25.11 60.89-25.11h624.26q35.78 0 60.89 25.11 25.11 25.1 25.11 60.89v241.17q0 35.78-25.11 60.89t-60.89 25.11H167.87Z"/></svg>