<svg xmlns="http://www.w3.org/2000/svg" height="20" viewBox="0 -960 960 960" width="20"><path d="M438.5-549.48Q421-531.95 421-508.09v37.83q0 23.96 17.29 41.11t41.5 17.15q24.21 0 41.71-16.82 17.5-16.83 17.5-42.09v-36.83q0-23.86-17.29-41.56-17.29-17.7-41.5-17.7t-41.71 17.52ZM396.98-73.5Q377.95-55 352.09-55h-87.83q-25.86 0-45.06-18.29-19.2-18.29-19.2-45T219.02-164q19.03-19 44.89-19h87.83q25.86 0 45.06 18.79 19.2 18.79 19.2 45.5T396.98-73.5Zm344 0Q721.95-55 696.09-55h-86.83Q582-55 563.5-73.29q-18.5-18.29-18.5-45T563.32-164q18.33-19 45.59-19h86.83q25.86 0 45.06 18.79 19.2 18.79 19.2 45.5T740.98-73.5ZM302.51-412q33.49 0 55.99-22.64t22.5-54.44q0-32.92-22.42-55.42-22.41-22.5-55.59-22.5-32.99 0-55.49 22.58t-22.5 55q0 32.42 22.51 54.92t55 22.5Zm354.5 0q32.99 0 55.49-22.64t22.5-54.44q0-32.92-22.51-55.42t-55-22.5Q625-567 602-544.42t-23 55q0 32.42 22.92 54.92 22.91 22.5 55.09 22.5ZM178-231q-57.12 0-92.56-35.44Q50-301.88 50-359v-281q0-57.13 35.44-92.56Q120.88-768 178-768h604q57.13 0 92.56 35.44Q910-697.13 910-640v281q0 57.12-35.44 92.56Q839.13-231 782-231H178Zm0-128h604v-281H178v281Zm302-140Z"/></svg>