<svg xmlns="http://www.w3.org/2000/svg" height="20" viewBox="0 -960 960 960" width="20"><path d="M456.5-560.68q-10 9.83-10 23.59v70.33q0 13.76 9.79 23.51 9.79 9.75 23.5 9.75t23.71-9.82q10-9.83 10-23.59v-69.83q0-13.76-9.79-23.76-9.79-10-23.5-10t-23.71 9.82ZM374.68-212q-9.83 10-23.59 10h-69.83q-13.76 0-23.76-9.79-10-9.79-10-23.5t9.82-23.71q9.83-10 23.59-10h69.83q13.76 0 23.76 9.79 10 9.79 10 23.5T374.68-212Zm328 0q-9.83 10-23.59 10h-70.33Q595-202 585-211.79q-10-9.79-10-23.5t9.82-23.71q9.83-10 23.59-10h70.33q13.76 0 23.76 9.79 10 9.79 10 23.5T702.68-212ZM304.21-433.5q28.79 0 48.54-20.21t19.75-48.5q0-28.29-19.96-48.29t-48.75-20q-28.29 0-48.29 20.21t-20 48.5q0 28.29 20.21 48.29t48.5 20Zm352 .5q28.29 0 48.54-20.21t20.25-49Q725-531 704.54-551t-48.75-20Q627-571 607-550.79t-20 49Q587-473 607.21-453t49 20ZM173-318q-31 0-49-18t-18-49v-234q0-31 18-49t49-18h614q31 0 49 18t18 49v234q0 31-18 49t-49 18H173Z"/></svg>