<svg xmlns="http://www.w3.org/2000/svg" height="48" viewBox="0 -960 960 960" width="48"><path d="M464.87-573.69q-6.25 6.7-6.25 15.69v78.62q0 9.21 6.46 14.91 6.47 5.7 15.12 5.7 8.65 0 15.42-6.41 6.76-6.41 6.76-14.97V-558q0-8.99-6.98-15.69-6.99-6.69-15.63-6.69-8.65 0-14.9 6.69ZM348.68-216.25q-6.79 6.25-14.6 6.25h-92.46q-8.57 0-14.98-6.47t-6.41-15.11q0-8.65 6.41-15.42t14.98-6.77h92.46q7.81 0 14.6 6.99 6.78 6.98 6.78 15.63t-6.78 14.9Zm385.45 0q-6.41 6.25-14.98 6.25h-93.23q-8.23 0-14.42-6.47-6.19-6.47-6.19-15.11 0-8.65 6.41-15.42t14.97-6.77h92.46q8.57 0 14.98 6.99 6.41 6.98 6.41 15.63t-6.41 14.9ZM288.8-458.77q26.12 0 44.12-17.24 18-17.24 18-42.69T333-561.88q-17.92-17.74-43.45-17.74-26.53 0-43.77 17.6-17.24 17.59-17.24 42.66 0 26.13 17.29 43.36 17.3 17.23 42.97 17.23Zm382.09.77q26.71 0 44.41-17.76 17.7-17.77 17.7-43.08t-17.62-43.43q-17.62-18.11-44.46-18.11-25.84 0-43.84 17.83-18 17.83-18 43.43 0 25.61 18.25 43.37Q645.58-458 670.89-458ZM172.38-335.15q-28.05 0-48.22-19.85Q104-374.84 104-403.61v-231.93q0-28.13 20.16-48.3Q144.33-704 172.38-704h615.24q28.05 0 48.22 20.16Q856-663.67 856-635.54v231.93q0 28.77-20.16 48.61-20.17 19.85-48.22 19.85H172.38Z"/></svg>