<svg xmlns="http://www.w3.org/2000/svg" height="20" viewBox="0 -960 960 960" width="20"><path d="M441.54-563.91q-16.19 16.13-16.19 38.43v54.78q0 22.4 15.98 38.16 15.99 15.76 38.46 15.76t38.67-15.74q16.19-15.74 16.19-38.83v-53.78q0-22.3-15.98-38.6-15.99-16.31-38.46-16.31t-38.67 16.13ZM386.85-104.8q-16.99 16.76-40.41 16.76h-82.18q-23.43 0-40.58-16.55-17.16-16.55-17.16-40.44 0-23.88 16.98-40.93Q240.48-203 263.91-203h82.18q23.42 0 40.58 16.83 17.16 16.84 17.16 40.72 0 23.89-16.98 40.65Zm350.08 0q-16.98 16.76-40.41 16.76h-81.61q-24.21 0-40.98-16.55-16.76-16.55-16.76-40.44 0-23.88 16.59-40.93Q590.34-203 614.56-203h81.61q23.43 0 40.59 16.83 17.15 16.84 17.15 40.72 0 23.89-16.98 40.65ZM302.16-416.78q34.71 0 58.51-23.92 23.81-23.92 23.81-57.51 0-34.22-23.81-58.03-23.81-23.8-58.2-23.8-34.64 0-58.23 23.88-23.59 23.89-23.59 57.83t23.69 57.74q23.68 23.81 57.82 23.81Zm355.37 0q34.64 0 58.23-23.92 23.59-23.92 23.59-57.51 0-34.22-23.69-58.03-23.68-23.8-57.82-23.8t-58.23 23.88q-24.09 23.89-24.09 57.83t24.09 57.74q24.09 23.81 57.92 23.81ZM171.04-251q-51.3 0-83.12-31.83-31.83-31.83-31.83-83.13v-276.21q0-51.3 31.83-83.13 31.82-31.83 83.12-31.83h617.92q51.3 0 83.12 31.83 31.83 31.83 31.83 83.13v276.21q0 51.3-31.83 83.13Q840.26-251 788.96-251H171.04Zm0-114.96h617.92v-276.21H171.04v276.21ZM480-503.78Z"/></svg>