<svg xmlns="http://www.w3.org/2000/svg" height="24" viewBox="0 -960 960 960" width="24"><path d="M442.5-605.5Q427-590 427-568v85q0 22 15.5 37t37.5 15q22 0 37.5-15.5T533-484v-84q0-22-15.5-37.5T480-621q-22 0-37.5 15.5Zm-94 451Q333-139 311-139h-83q-22 0-37.5-15.5T175-192q0-22 15.5-37.5T228-245h83q22 0 37.5 15.5T364-192q0 22-15.5 37.5Zm422 0Q755-139 733-139h-83q-22 0-37.5-15.5T597-192q0-22 15.5-37.5T650-245h83q22 0 37.5 15.5T786-192q0 22-15.5 37.5ZM282-431q39 0 67-28t28-67q0-39-28-67t-67-28q-40 0-67.5 28T187-526q0 39 27.5 67t67.5 28Zm396 0q40 0 67.5-28t27.5-67q0-39-27.5-67T678-621q-39 0-67 28t-28 67q0 39 28 67t67 28ZM154-285q-44 0-75-31t-31-75v-270q0-44 31-75t75-31h652q44 0 75 31t31 75v270q0 44-31 75t-75 31H154Z"/></svg>