<svg xmlns="http://www.w3.org/2000/svg" height="20" viewBox="0 -960 960 960" width="20"><path d="M452.62-571.7Q441-560.25 441-544.24v74.9q0 15.95 11.42 26.91 11.42 10.97 27.38 10.97 15.97 0 27.58-11.45Q519-454.36 519-470.37v-73.52q0-16.01-11.42-27.64-11.42-11.62-27.38-11.62-15.97 0-27.58 11.45Zm-76.07 409.08Q365.1-151 349.09-151h-79.44q-16.01 0-27.64-11.42-11.62-11.42-11.62-27.38 0-15.97 11.45-27.58Q253.28-229 269.3-229h79.44q16.01 0 27.64 11.42Q388-206.16 388-190.2q0 15.97-11.45 27.58Zm342.61 0Q707.72-151 691.7-151h-79.82q-15.85 0-27.37-11.42Q573-173.84 573-189.8q0-15.97 11.45-27.58Q595.9-229 611.91-229h79.44q16.01 0 27.64 11.42 11.62 11.42 11.62 27.38 0 15.97-11.45 27.58ZM307.1-431.46q32.05 0 54.09-22.12 22.04-22.12 22.04-53.61 0-31.5-22.16-53.54-22.15-22.04-53.71-22.04-32.36 0-54.09 22.19-21.73 22.19-21.73 53.35 0 31.69 21.94 53.73 21.93 22.04 53.62 22.04Zm345.6.38q32.3 0 54.22-22.38t21.92-53.8q0-31.43-22.09-53.66-22.09-22.23-54-22.23-31.9 0-54.13 22.31-22.23 22.31-22.23 53.73 0 31.43 22.41 53.73 22.42 22.3 53.9 22.3ZM174.31-291.62q-41.03 0-65.67-24.63Q84-340.89 84-381.96v-250.69q0-41.07 24.64-65.71Q133.28-723 174.31-723h611.38q41.03 0 65.67 24.64T876-632.65v250.69q0 41.07-24.64 65.71-24.64 24.63-65.67 24.63H174.31Zm0-77.99h611.38q5.39 0 8.85-3.47 3.46-3.46 3.46-8.84v-250.77q0-5.39-3.46-8.85t-8.85-3.46H174.31q-5.39 0-8.85 3.46t-3.46 8.85v250.77q0 5.38 3.46 8.84 3.46 3.47 8.85 3.47ZM480-507.31Z"/></svg>