<svg xmlns="http://www.w3.org/2000/svg" height="40" viewBox="0 -960 960 960" width="40"><path d="M447.33-564.38q-13.5 13.8-13.5 32.71v50.17q0 19.89 13.68 33.28 13.67 13.39 32.67 13.39 18.99 0 32.99-13.59 14-13.58 14-33.25v-50q0-18.91-13.98-32.71-13.98-13.79-33.17-13.79t-32.69 13.79Zm-86.79 437.55Q345.25-112 324.33-112H233q-21 0-35.75-15.02-14.75-15.03-14.75-35.76 0-20.74 14.75-35.65 14.75-14.9 35.75-14.9h91.33q20.92 0 36.21 14.95t15.29 35.83q0 20.88-15.29 35.72Zm402 0Q747.25-112 726.33-112h-91.5q-21 0-35.91-14.95Q584-141.9 584-162.78q0-20.89 14.92-35.72 14.91-14.83 35.91-14.83h91.5q20.92 0 36.21 14.95t15.29 35.83q0 20.88-15.29 35.72Zm-482.04-308q30.83 0 51.42-20.83 20.58-20.82 20.58-50.42 0-30.25-20.58-51.17-20.59-20.92-50.84-20.92-30.58 0-51.25 20.74-20.66 20.74-20.66 50.67 0 29.93 20.54 50.93t50.79 21Zm398.31.5q30.69 0 51.61-21.1 20.91-21.09 20.91-50.71 0-30.29-20.83-51.24-20.84-20.95-50.83-20.95-30.67 0-51.5 20.76-20.84 20.76-20.84 50.71 0 29.96 20.77 51.24 20.76 21.29 50.71 21.29ZM160-271.33q-42.33 0-71.83-29.7t-29.5-72.3v-283.34q0-42.6 29.5-72.3 29.5-29.7 71.83-29.7h640q42.6 0 72.3 29.7 29.7 29.7 29.7 72.3v283.34q0 42.6-29.7 72.3-29.7 29.7-72.3 29.7H160Zm0-102h640v-283.34H160v283.34ZM480-515Z"/></svg>