<svg xmlns="http://www.w3.org/2000/svg" height="20" viewBox="0 -960 960 960" width="20"><path d="M456.5-560.68q-10 9.83-10 23.59v70.33q0 13.99 9.79 23.62 9.79 9.64 23.5 9.64t23.71-9.82q10-9.83 10-23.59v-69.83q0-13.76-9.79-23.76-9.79-10-23.5-10t-23.71 9.82ZM374.68-212q-9.83 10-23.59 10h-69.83q-13.76 0-23.76-9.79-10-9.79-10-23.5t9.82-23.71q9.83-10 23.59-10h69.83q13.76 0 23.76 9.79 10 9.79 10 23.5T374.68-212Zm328 0q-9.83 10-23.59 10h-70.33Q595-202 585-211.79q-10-9.79-10-23.5t9.82-23.71q9.83-10 23.59-10h70.33q13.76 0 23.76 9.79 10 9.79 10 23.5T702.68-212ZM304.21-433.5q28.79 0 48.54-20.17 19.75-20.18 19.75-48.5 0-28.33-19.96-48.33t-48.5-20q-28.54 0-48.54 20.17-20 20.18-20 48.5 0 28.33 20.18 48.33 20.19 20 48.53 20Zm351.82.5q28.47 0 48.72-20.33T725-502.21q0-28.55-20.38-48.67t-49-20.12Q627-571 607-550.67q-20 20.33-20 48.88 0 28.55 20.28 48.67Q627.55-433 656.03-433ZM173-318q-30.94 0-48.97-18.03Q106-354.06 106-385v-234q0-30.94 18.03-48.97Q142.06-686 173-686h614q30.94 0 48.97 18.03Q854-649.94 854-619v234q0 30.94-18.03 48.97Q817.94-318 787-318H173Zm0-67h614v-234H173v234Zm307-117Z"/></svg>