<svg xmlns="http://www.w3.org/2000/svg" height="40" viewBox="0 -960 960 960" width="40"><path d="M446-567.58q-14 14.08-14 33.91v51.34q0 20.5 14.12 34.58 14.11 14.08 34 14.08 19.88 0 34.21-14.08 14.34-14.08 14.34-34.58v-51.34q0-19.83-14.45-33.91-14.45-14.09-34.34-14.09-19.88 0-33.88 14.09ZM359.75-120.5q-15.58 15.17-37.42 15.17h-92.66q-21.84 0-37.09-15.29-15.25-15.28-15.25-37.16 0-21.89 15.25-37.05Q207.83-210 229.67-210h92.66q21.84 0 37.42 15.28 15.58 15.29 15.58 37.17 0 21.88-15.58 37.05Zm407.33 0q-15.58 15.17-37.41 15.17H637q-21.83 0-37.08-15.29-15.25-15.28-15.25-37.16 0-21.89 15.25-37.05Q615.17-210 637-210h92.67q21.83 0 37.41 15.28 15.59 15.29 15.59 37.17 0 21.88-15.59 37.05ZM278-433.67q31.33 0 52.67-21.69Q352-477.06 352-507.53q0-31.14-21.33-52.64-21.34-21.5-52.34-21.5-31.33 0-52.83 21.37-21.5 21.36-21.5 52.5 0 30.47 21.4 52.3 21.41 21.83 52.6 21.83Zm404 0q31 0 52.5-21.69 21.5-21.7 21.5-52.17 0-31.14-21.5-52.64t-52.17-21.5q-31.33 0-52.83 21.37-21.5 21.36-21.5 52.5 0 30.47 21.4 52.3 21.41 21.83 52.6 21.83ZM156.67-267.33q-43.67 0-74.17-30.84Q52-329 52-372.67V-660q0-43.67 30.5-74.5t74.17-30.83h646.66q43.67 0 74.5 30.83 30.84 30.83 30.84 74.5v287.33q0 43.67-30.84 74.5-30.83 30.84-74.5 30.84H156.67Z"/></svg>