<svg xmlns="http://www.w3.org/2000/svg" height="24" viewBox="0 -960 960 960" width="24"><path d="M450.51-578.12q-12.31 12.32-12.31 29.49v69.89q0 17.4 12.31 29.35 12.32 11.96 29.49 11.96 17.17 0 29.49-12.32 12.31-12.32 12.31-29.49v-69.39q0-17.17-12.31-29.49-12.32-12.31-29.49-12.31-17.17 0-29.49 12.31ZM355-195.41q-12.67 12.67-30.33 12.67h-81.34q-17.66 0-30.33-12.67-12.67-12.68-12.67-30.33T213-256.06q12.67-12.68 30.33-12.68h81.34q17.66 0 30.33 12.68 12.67 12.67 12.67 30.32T355-195.41Zm392 0q-12.67 12.67-30.33 12.67h-81.84q-17.66 0-30.33-12.67-12.67-12.68-12.67-30.33t12.67-30.32q12.67-12.68 30.33-12.68h81.84q17.66 0 30.33 12.68 12.67 12.67 12.67 30.32T747-195.41ZM284.48-437.43q32.24 0 54.37-22.46 22.13-22.47 22.13-54 0-31.54-22.13-54.04t-54.12-22.5q-31.75 0-54.25 22.46t-22.5 54q0 31.54 22.47 54.04t54.03 22.5Zm390.86.5q31.68 0 54.43-22.62t22.75-54.38q0-31.77-22.67-54.39-22.66-22.61-54.5-22.61-31.83 0-54.33 22.61-22.5 22.62-22.5 54.39 0 31.76 22.57 54.38 22.56 22.62 54.25 22.62ZM167.87-309.74q-35.72 0-60.86-25.14t-25.14-60.86v-241.17q0-35.72 25.14-60.86t60.86-25.14h624.26q35.72 0 60.86 25.14t25.14 60.86v241.17q0 35.72-25.14 60.86t-60.86 25.14H167.87Zm0-86h624.26v-241.17H167.87v241.17ZM480-516.33Z"/></svg>