<svg xmlns="http://www.w3.org/2000/svg" height="24" viewBox="0 -960 960 960" width="24"><path d="M449.62-594.53Q437-581.9 437-564.15v83.07q0 17.69 12.63 29.65 12.63 11.97 30.38 11.97 17.76 0 30.37-12.63Q523-464.71 523-482.46v-81.69q0-17.75-12.63-30.38-12.63-12.62-30.38-12.62-17.76 0-30.37 12.62Zm-98.24 422.91Q338.75-159 321-159h-87.61q-17.75 0-30.38-12.63-12.62-12.63-12.62-30.38 0-17.76 12.62-30.37Q215.64-245 233.39-245H321q17.75 0 30.38 12.63Q364-219.74 364-201.99q0 17.76-12.62 30.37Zm406.61 0Q745.36-159 727.61-159h-88q-17.58 0-30.1-12.63Q597-184.26 597-202.01q0-17.76 12.62-30.37Q622.25-245 640-245h87.61q17.75 0 30.38 12.63 12.62 12.63 12.62 30.38 0 17.76-12.62 30.37Zm-471.1-267.84q35.26 0 59.8-24.41 24.54-24.4 24.54-59.11t-24.44-59.25q-24.45-24.54-59.21-24.54-35.58 0-59.81 24.48-24.23 24.48-24.23 58.85 0 34.9 24.22 59.44 24.23 24.54 59.13 24.54Zm385.6.38q35.51 0 59.93-24.67 24.42-24.66 24.42-59.3t-24.38-59.37q-24.38-24.73-59.49-24.73-35.12 0-59.85 24.59-24.73 24.6-24.73 59.24t24.7 59.44q24.71 24.8 59.4 24.8ZM166.31-299.62q-41.03 0-69.67-28.63Q68-356.89 68-397.96v-250.69q0-41.07 28.64-69.71Q125.28-747 166.31-747h627.38q41.03 0 69.67 28.64T892-648.65v250.69q0 41.07-28.64 69.71-28.64 28.63-69.67 28.63H166.31Zm0-85.99h627.38q5.39 0 8.85-3.47 3.46-3.46 3.46-8.84v-250.77q0-5.39-3.46-8.85t-8.85-3.46H166.31q-5.39 0-8.85 3.46t-3.46 8.85v250.77q0 5.38 3.46 8.84 3.46 3.47 8.85 3.47ZM480-523.31Z"/></svg>