<svg xmlns="http://www.w3.org/2000/svg" height="40" viewBox="0 -960 960 960" width="40"><path d="M462-575.95q-7.13 7.22-7.13 17.9v78.9q0 10.51 7.27 17.63 7.26 7.11 17.99 7.11 10.74 0 17.87-7.23 7.13-7.22 7.13-17.9v-78.51q0-10.68-7.27-17.9-7.26-7.23-17.99-7.23-10.74 0-17.87 7.23ZM345.47-227.13q-7.35 7.13-17.78 7.13H242q-10.68 0-17.9-7.26-7.23-7.27-7.23-18 0-10.74 7.23-17.87 7.22-7.13 17.9-7.13h85.69q10.43 0 17.78 7.27 7.35 7.26 7.35 18 0 10.73-7.35 17.86Zm390.02 0q-7.22 7.13-17.9 7.13h-86.08q-10.51 0-17.63-7.26-7.11-7.27-7.11-18 0-10.74 7.22-17.87 7.23-7.13 17.91-7.13h85.69q10.68 0 17.9 7.27 7.23 7.26 7.23 18 0 10.73-7.23 17.86ZM282.32-454.41q27.37 0 46.05-18.62 18.68-18.62 18.68-45.44 0-26.81-18.68-45.57-18.68-18.75-45.52-18.75-26.84 0-45.83 18.69t-18.99 45.17q0 27.01 18.88 45.76 18.89 18.76 45.41 18.76Zm394.74.38q27.14 0 46.01-18.88 18.88-18.88 18.88-45.63 0-26.74-18.86-45.69t-45.82-18.95q-26.96 0-46.04 18.81-19.08 18.82-19.08 45.56 0 26.75 19.07 45.77 19.06 19.01 45.84 19.01ZM162.57-337.59q-25.79 0-44.18-18.39T100-400.19V-637.4q0-25.82 18.39-44.21T162.57-700h634.86q25.79 0 44.18 18.39T860-637.4v237.21q0 25.82-18.39 44.21t-44.18 18.39H162.57Z"/></svg>