<svg xmlns="http://www.w3.org/2000/svg" height="48" viewBox="0 -960 960 960" width="48"><path d="M450.5-566.06q-12 12.43-12 29.56v54q0 18.48 12.26 30.49Q463.03-440 480.26-440q17.24 0 29.99-12.13Q523-464.25 523-482.5v-54q0-17.13-12.71-29.56-12.72-12.44-30.25-12.44-17.54 0-29.54 12.44Zm-95.94 432.81Q340.63-120 321.5-120h-91q-19.25 0-32.37-13.53Q185-147.07 185-165.93q0-18.85 13.13-32.21 13.12-13.36 32.37-13.36h91q19.13 0 33.06 13.43 13.94 13.42 13.94 32.5 0 19.07-13.94 32.32Zm407 0Q747.63-120 728.5-120h-91q-19.25 0-32.62-13.43-13.38-13.42-13.38-32.5 0-19.07 13.38-32.32 13.37-13.25 32.62-13.25h91q19.13 0 33.06 13.43 13.94 13.42 13.94 32.5 0 19.07-13.94 32.32ZM277.75-440q29.75 0 49.75-20.01 20-20 20-48.62 0-29.62-20-49.75-20-20.12-49-20.12-30 0-49.75 19.88t-19.75 49q0 29.12 19.58 49.37Q248.16-440 277.75-440Zm403.56.5q30.19 0 50.19-20.33 20-20.33 20-48.88 0-29.55-19.92-49.67t-49-20.12q-30.08 0-50.08 19.83t-20 48.88q0 29.05 19.86 49.67t48.95 20.62ZM151.5-278q-38.02 0-64.76-27.03Q60-332.07 60-370.5v-293q0-38.43 26.74-65.47Q113.48-756 151.5-756h657q38.43 0 65.47 27.03Q901-701.93 901-663.5v293q0 38.43-27.03 65.47Q846.93-278 808.5-278h-657Zm0-92.5h657v-293h-657v293ZM480-517Z"/></svg>