<svg xmlns="http://www.w3.org/2000/svg" height="48" viewBox="0 -960 960 960" width="48"><path d="M457.35-579.06q-8.96 9.33-8.96 22.78v74.54q0 13.69 9.13 22.77 9.14 9.08 22.66 9.08t22.84-9.08q9.33-9.08 9.33-22.77v-74.54q0-13.45-9.5-22.78-9.51-9.33-23.03-9.33-13.52 0-22.47 9.33ZM341.31-194.12q-9.69 9.45-23.61 9.45h-83.4q-13.92 0-23.24-9.62-9.32-9.63-9.32-23.37 0-13.75 9.32-23.2 9.32-9.44 23.24-9.44h83.4q13.92 0 23.61 9.62t9.69 23.37q0 13.75-9.69 23.19Zm407 0q-9.69 9.45-23.61 9.45h-83.4q-13.92 0-23.49-9.62-9.57-9.63-9.57-23.37 0-13.75 9.57-23.2 9.57-9.44 23.49-9.44h83.4q13.92 0 23.61 9.62t9.69 23.37q0 13.75-9.69 23.19ZM276.48-449.89q29.5 0 49.5-20.05 20-20.04 20-48.75 0-28.94-20-49.32t-49-20.38q-29.24 0-49.37 20.18-20.13 20.17-20.13 49.12 0 28.7 19.98 48.95 19.99 20.25 49.02 20.25Zm406.28.5q29.5 0 49.5-20.3 20-20.29 20-49 0-28.94-20-49.32t-49-20.38q-29.24 0-49.62 20.18-20.38 20.17-20.38 49.12 0 28.7 20.24 49.2 20.23 20.5 49.26 20.5ZM144.65-316.8q-26.58 0-46.11-19.65-19.52-19.64-19.52-46.22v-276.26q0-26.59 19.52-46.23 19.53-19.64 46.11-19.64h670.7q26.58 0 46.23 19.64 19.64 19.64 19.64 46.23v276.26q0 26.58-19.64 46.22-19.65 19.65-46.23 19.65h-670.7Z"/></svg>