<svg xmlns="http://www.w3.org/2000/svg" height="40" viewBox="0 -960 960 960" width="40"><path d="M462.16-576.98q-7.42 7.72-7.42 18.21v79.46q0 10.53 7.57 17.35 7.56 6.81 17.83 6.81t18.03-7.53q7.75-7.52 7.75-17.73v-78.36q0-10.49-7.91-18.21-7.91-7.71-18.17-7.71-10.27 0-17.68 7.71Zm-111.63 369.9q-7.77 7.41-17.48 7.41h-92.38q-10.21 0-17.74-7.56-7.52-7.57-7.52-17.83 0-10.27 7.52-18.03 7.53-7.76 17.74-7.76h92.38q9.71 0 17.48 7.91 7.78 7.91 7.78 18.18t-7.78 17.68Zm387.38 0q-7.52 7.41-17.73 7.41h-93.15q-9.89 0-17.19-7.56-7.3-7.57-7.3-17.83 0-10.27 7.52-18.03 7.53-7.76 17.73-7.76h92.39q10.21 0 17.73 7.91 7.53 7.91 7.53 18.18t-7.53 17.68ZM290.12-455.15q27.6 0 46.62-18.52 19.03-18.52 19.03-45.54t-18.97-45.87q-18.98-18.84-46.05-18.84-28.07 0-46.55 18.8-18.48 18.8-18.48 45.34 0 27.6 18.51 46.11 18.51 18.52 45.89 18.52Zm379.47.77q28.14 0 47.06-19.05 18.91-19.04 18.91-45.92 0-26.88-18.83-46.11t-47.14-19.23q-27.31 0-46.46 19.04-19.16 19.04-19.16 46.12 0 27.07 19.37 46.11t46.25 19.04Zm-495.13 126.2q-31.58 0-53.68-21.9-22.11-21.89-22.11-53.97V-635.8q0-31.65 22.11-53.76 22.1-22.11 53.68-22.11h611.08q31.58 0 53.68 22.11 22.11 22.11 22.11 53.76v231.75q0 32.08-22.11 53.97-22.1 21.9-53.68 21.9H174.46Z"/></svg>