<svg xmlns="http://www.w3.org/2000/svg" height="24" viewBox="0 -960 960 960" width="24"><path d="M461-576.97q-8 8.02-8 18.97v80q0 10.52 8.04 17.76 8.03 7.24 19 7.24 10.96 0 18.96-8.02 8-8.03 8-18.98v-78q0-10.95-8.04-18.97-8.03-8.03-19-8.03-10.96 0-18.96 8.03ZM355.98-199q-8.03 8-18.98 8h-95q-10.95 0-18.98-8.04-8.02-8.03-8.02-19 0-10.96 8.02-18.96 8.03-8 18.98-8h95q10.95 0 18.98 8.04 8.02 8.03 8.02 19 0 10.96-8.02 18.96Zm381.99 0q-8.02 8-18.97 8h-96q-10.53 0-18.26-8.04-7.74-8.03-7.74-19 0-10.96 8.03-18.96 8.02-8 18.97-8h95q10.95 0 18.97 8.04 8.03 8.03 8.03 19 0 10.96-8.03 18.96ZM296-453q28 0 47-19t19-46.5q0-27.5-19-46.5t-46.5-19q-28.5 0-47.5 19.19-19 19.18-19 45.81 0 28 18.98 47T296-453Zm367.68 1q28.32 0 47.82-19.68t19.5-47q0-27.32-19.39-46.82t-48-19.5q-27.61 0-47.11 19.5T597-518.68q0 27.32 19.68 47t47 19.68ZM186-323q-37 0-61.5-24.5T100-409.1v-219.8q0-37.1 24.5-61.6T186-715h588q37 0 61.5 24.5t24.5 61.6v219.8q0 37.1-24.5 61.6T774-323H186Z"/></svg>