<svg xmlns="http://www.w3.org/2000/svg" height="48" viewBox="0 -960 960 960" width="48"><path d="M452.5-578.44q-11.33 11.86-11.33 27.96v67.05q0 17.21 11.51 28.3t27.48 11.09q15.97 0 28.1-11.18t12.13-28.21v-67.05q0-16.1-12.3-27.96-12.31-11.86-28.28-11.86-15.98 0-27.31 11.86ZM346.45-155.05q-12.42 11.62-29.23 11.62h-89.09q-16.81 0-28.95-11.79t-12.14-29.18q0-17.38 12.14-29.79 12.14-12.42 28.95-12.42h89.09q16.81 0 29.23 12.59 12.42 12.59 12.42 29.97 0 17.39-12.42 29Zm414.09 0q-12.43 11.62-29.24 11.62h-88.52q-17.6 0-29.34-11.79-11.74-11.79-11.74-29.18 0-17.38 11.74-29.79 11.74-12.42 29.34-12.42h88.52q16.81 0 29.24 12.59 12.42 12.59 12.42 29.97 0 17.39-12.42 29ZM275.66-444.04q30.64 0 52.23-21.35 21.59-21.35 21.59-51.01 0-30.86-21.39-52.38-21.4-21.52-51.83-21.52-32 0-52.8 21.23-20.81 21.24-20.81 52.11 0 30.31 20.76 51.61 20.76 21.31 52.25 21.31Zm408.44 0q31.64 0 52.73-21.35 21.08-21.35 21.08-51.01 0-30.86-20.89-52.38-20.89-21.52-52.33-21.52-30.99 0-52.3 21.23-21.3 21.24-21.3 52.11 0 30.31 21.26 51.61 21.25 21.31 51.75 21.31ZM144.35-292.61q-33.75 0-58.46-24.67-24.72-24.68-24.72-59.07v-290.69q0-33.75 24.72-58.75 24.71-24.99 58.46-24.99h671.3q33.75 0 58.75 24.99 24.99 25 24.99 58.75v290.69q0 34.39-24.99 59.07-25 24.67-58.75 24.67h-671.3Z"/></svg>