<svg xmlns="http://www.w3.org/2000/svg" height="24" viewBox="0 -960 960 960" width="24"><path d="M465.73-566.56q-5.73 5.75-5.73 14.25v76.16q0 8.17 5.76 13.7 5.76 5.53 14.27 5.53t14.24-5.75q5.73-5.75 5.73-14.25v-75.39q0-8.5-5.76-14.25t-14.27-5.75q-8.51 0-14.24 5.75ZM354.25-245.73Q348.5-240 340-240h-89.23q-8.5 0-14.25-5.76t-5.75-14.27q0-8.51 5.75-14.24t14.25-5.73H340q8.5 0 14.25 5.76t5.75 14.27q0 8.51-5.75 14.24Zm369.23 0q-5.75 5.73-14.25 5.73h-90q-8.17 0-13.7-5.76-5.53-5.76-5.53-14.27t5.75-14.24Q611.5-280 620-280h89.23q8.5 0 14.25 5.76t5.75 14.27q0 8.51-5.75 14.24ZM290.77-456.92q24.54 0 41.11-16.58 16.58-16.58 16.58-40.73t-16.58-40.73q-16.57-16.58-40.73-16.58-24.15 0-41.11 16.72t-16.96 40.2q0 24.54 16.94 41.12 16.95 16.58 40.75 16.58Zm378.22.77q24.01 0 41.36-17.1 17.34-17.11 17.34-41.12 0-24.01-17.26-40.98-17.26-16.96-41.5-16.96t-41.2 16.96q-16.96 16.97-16.96 40.98 0 24.01 17.1 41.12 17.1 17.1 41.12 17.1ZM184.62-349.23q-27.62 0-46.12-18.5-18.5-18.5-18.5-46.19v-201.39q0-27.69 18.5-46.19Q157-680 184.62-680h590.76q27.62 0 46.12 18.5Q840-643 840-615.31v201.39q0 27.69-18.5 46.19-18.5 18.5-46.12 18.5H184.62Z"/></svg>