<svg xmlns="http://www.w3.org/2000/svg" height="48" viewBox="0 -960 960 960" width="48"><path d="M236.96-146.92h486.88q3.47 0 5.2-3.08t.19-6.15l-68.15-105.62h-43.47v12.38q0 9.55-6.48 15.57-6.48 6.01-15.34 6.01-8.53 0-15.28-6.01-6.74-6.02-6.74-15.57v-12.38H299.35l-67.77 105.62q-1.93 3.07-.1 6.15 1.83 3.08 5.48 3.08Zm380.65-394.5h106.23q3.47 0 5.2-2.98t.19-6.25l-68.15-105.62h-43.47v114.85Zm0 197.07h106.23q3.47 0 5.2-2.59 1.73-2.6.19-6.25l-68.15-105.62h-43.47v114.46Zm-380.65 0h336.81v-114.46H299.35l-67.77 105.62q-1.93 3.65-.1 6.25 1.83 2.59 5.48 2.59Zm0-197.07h336.81v-114.85H299.35l-67.77 105.62q-1.93 3.27-.1 6.25 1.83 2.98 5.48 2.98Zm2.2 438.34q-22.97 0-39.56-16.59-16.6-16.6-16.6-39.56v-497.04h-51.5q-12.24 0-20.33-7.74-8.09-7.75-8.09-19.99v-71.89q0-42.08 29.19-71.56 29.2-29.47 71.77-29.47h552.12q41.39 0 71.08 29.66 29.68 29.66 29.68 71.11V-684q0 12.24-8.14 19.99-8.14 7.74-19.59 7.74h-51.77v497.04q0 22.96-16.59 39.56-16.6 16.59-39.56 16.59H239.16Z"/></svg>