<svg xmlns="http://www.w3.org/2000/svg" height="40" viewBox="0 -960 960 960" width="40"><path d="M217.8-150.58h525.45l-50.77-71.91h-45.15v-1.97q-5.3 12.52-16.08 19.66-10.77 7.13-25.25 7.13-13.99 0-25.48-7.13-11.49-7.14-16.8-19.66v1.97H268.57l-50.77 71.91Zm436.19-419.97h89.26l-50.69-71.25h-38.57v71.25ZM186.65-809.42q-15.55 0-25.81 9.85-10.26 9.85-10.26 25.09v35.87h658.84v-35.75q0-15.19-9.9-25.13-9.91-9.93-25.17-9.93h-587.7Zm-36.07 70.81h658.84-658.84Zm503.41 378.97h89.26l-50.69-71.91h-38.57v71.91Zm-436.19 0h339.37v-71.91h-288.6l-50.77 71.91Zm0-210.91h339.37v-71.25h-288.6l-50.77 71.25Zm13.45 516.4q-40.42 0-68.43-28-28.01-28.01-28.01-68.43V-641.8H102.7q-21.04 0-34.8-14.15-13.75-14.15-13.75-34.77v-84.19q0-55.05 38.23-93.19 38.23-38.13 94.27-38.13h587.7q55.28 0 93.58 38.13 38.3 38.14 38.3 93.19v84.19q0 20.62-13.96 34.77-13.96 14.15-34.3 14.15h-31.74v491.22q0 40.42-28.12 68.43-28.12 28-68.69 28H231.25Z"/></svg>