<svg xmlns="http://www.w3.org/2000/svg" height="40" viewBox="0 -960 960 960" width="40"><path d="M240.19-152.63h479.92q3.47 0 5.26-3.08 1.8-3.07.13-6.15l-63.86-99.79h-43.17v13.15q0 10.25-7.06 16.96-7.07 6.72-16.78 6.72-9.51 0-16.77-6.72-7.27-6.71-7.27-16.96v-13.15H298.41l-63.6 99.79q-1.92 3.08-.1 6.15 1.83 3.08 5.48 3.08Zm378.28-390.36h101.64q3.47 0 5.26-2.98 1.8-2.98.13-6.25l-63.86-99.79h-43.17v109.02Zm0 195.05h101.64q3.47 0 5.26-2.66 1.8-2.66.13-6.18l-63.86-99.93h-43.17v108.77Zm-378.28 0h330.4v-108.77H298.41l-63.6 99.93q-1.92 3.52-.1 6.18 1.83 2.66 5.48 2.66Zm0-195.05h330.4v-109.02H298.41l-63.6 99.79q-1.92 3.27-.1 6.25 1.83 2.98 5.48 2.98Zm4.3 438.25q-24.73 0-42.46-17.74-17.73-17.73-17.73-42.46v-487.07h-49.2q-12.94 0-21.65-8.45-8.71-8.44-8.71-21.39v-71.17q0-42.68 29.51-72.46 29.51-29.78 72.52-29.78h546.49q42.02 0 72.01 29.97 29.99 29.97 29.99 72.01v71.43q0 12.95-8.75 21.39-8.75 8.45-21.09 8.45h-49.66v487.07q0 24.73-17.74 42.46-17.73 17.74-42.46 17.74H244.49Z"/></svg>