<svg xmlns="http://www.w3.org/2000/svg" height="48" viewBox="0 -960 960 960" width="48"><path d="M219.63-147.59h522.3l-62.63-88.47h-43.15v-1.48q-3.39 9.99-12.44 15.85-9.05 5.86-20.55 5.86-10.75 0-19.89-5.86t-13.1-15.85v1.48H282.26l-62.63 88.47ZM641.8-559.67h100.13l-62.63-88.48h-37.5v88.48ZM191.61-812.41q-19.71 0-31.86 12.78-12.16 12.79-12.16 31.11v43.08h664.82v-43.2q0-18.36-12.62-31.07-12.62-12.7-31.4-12.7H191.61Zm-44.02 86.97h664.82-664.82ZM641.8-352.85h100.13l-62.63-88.48h-37.5v88.48Zm-422.17 0h344.89v-88.48H282.26l-62.63 88.48Zm0-206.82h344.89v-88.48H282.26l-62.63 88.48Zm8.46 488.8q-32.23 0-54.47-22.25-22.25-22.24-22.25-54.47v-500.56h-41.89q-16.21 0-27.41-10.95t-11.2-27.73v-81.9q0-50.37 35.03-85.67 35.03-35.3 85.71-35.3H768.4q50.2 0 85.75 35.39 35.55 35.38 35.55 85.43v82.05q0 16.78-11.56 27.73t-27.12 10.95H810.2v500.56q0 32.23-22.42 54.47-22.41 22.25-54.87 22.25H228.09Z"/></svg>