<svg xmlns="http://www.w3.org/2000/svg" height="40" viewBox="0 -960 960 960" width="40"><path d="M268.5-156.83h423q9 0 13.67-8 4.66-8 .33-16L649.33-283.5h-52.5v20.33q0 5.32-3.45 8.25-3.45 2.92-7.88 2.92-4.69 0-8.26-2.92-3.57-2.93-3.57-8.25v-20.33H310l-55.5 102.67q-5 8-.25 16t14.25 8Zm328.33-372h94.67q9 0 13.67-7.75 4.66-7.75.33-16.25L649.33-655.5h-52.5v126.67Zm0 185h94.67q9 0 13.67-6.92 4.66-6.92.33-16.08l-56.17-103h-52.5v126Zm-328.33 0h305.17v-126H310l-55.5 103q-5 9.16-.25 16.08 4.75 6.92 14.25 6.92Zm0-185h305.17V-655.5H310l-55.5 102.67q-5 8.5-.25 16.25t14.25 7.75Zm-.83 395.16q-22.49 0-38.83-16.34-16.34-16.33-16.34-38.82V-655.5h-50.83q-12.32 0-20.16-7.43-7.84-7.42-7.84-19.74v-57.38q0-36.06 24.82-61.17 24.83-25.11 61.51-25.11h520.34q34.94 0 60.47 25.47 25.52 25.47 25.52 60.38v57.81q0 12.32-7.9 19.74-7.9 7.43-19.26 7.43h-52.34v466.67q0 22.49-16.34 38.82-16.33 16.34-38.82 16.34h-424Z"/></svg>