<svg xmlns="http://www.w3.org/2000/svg" height="40" viewBox="0 -960 960 960" width="40"><path d="M222.5-150H738l-68.67-98H632v8.67q0 13.33-9.32 22.41-9.33 9.09-22.35 9.09-12.52 0-22.09-9.09-9.57-9.08-9.57-22.41V-248h-277.5l-68.67 98ZM632-551.83h106l-68.67-98H632v98ZM198.5-810q-20.95 0-34.72 14.2Q150-781.59 150-761.18v48.01h660v-48.07q0-20.43-14.2-34.59Q781.59-810 761.33-810H198.5ZM150-713.17h660-660ZM632-350.5h106l-68.67-98H632v98Zm-409.5 0h346.17v-98h-277.5l-68.67 98Zm0-201.33h346.17v-98h-277.5l-68.67 98ZM230-86.67q-26.13 0-44.73-18.6-18.6-18.6-18.6-44.73v-499.83H118.5q-13.33 0-22.58-9.09-9.25-9.08-9.25-22.41v-79.8q0-46.81 32.43-79.51 32.43-32.69 79.4-32.69h562.84q46.44 0 79.22 32.77 32.77 32.78 32.77 79.28v79.95q0 13.33-9.27 22.41-9.28 9.09-22.23 9.09h-48V-150q0 26.13-18.6 44.73-18.6 18.6-44.73 18.6H230Z"/></svg>