<svg xmlns="http://www.w3.org/2000/svg" height="40" viewBox="0 -960 960 960" width="40"><path d="M216.67-142.67H744l-60-85.66h-36.67v.66q-2.66 15.17-13.59 24.75-10.93 9.59-27.09 9.59-15.65 0-27.48-9.59-11.84-9.58-14.5-24.75v-.66h-288l-60 85.66Zm431.66-421.66H744l-60-85h-35.67v85Zm0 211.66H744l-60-85.66h-35.67v85.66Zm-431.66 0h347.66v-85.66H276.67l-60 85.66Zm0-211.66h347.66v-85H276.67l-60 85Zm6.66 505.66q-35.5 0-59.75-24.25t-24.25-59.75v-506.66H101q-17.83 0-30.08-12.25t-12.25-30.09v-84q0-52.36 36.69-89.01 36.7-36.65 89.97-36.65h590.34q52.36 0 89.01 36.65 36.65 36.65 36.65 89.01v84q0 17.84-12.24 30.09t-29.42 12.25h-38.34v506.66q0 35.5-24.25 59.75t-59.75 24.25h-514Z"/></svg>