<svg xmlns="http://www.w3.org/2000/svg" height="48" viewBox="0 -960 960 960" width="48"><path d="M218.98-144.65h523.28l-69.48-98.59h-39.89v3.41q-1.43 11.3-10.16 18.47-8.72 7.16-20.38 7.16-10.91 0-19.89-7.16-8.98-7.17-10.66-18.47v-3.41H288.46l-69.48 98.59Zm416.3-409.15h106.98l-69.48-98.59h-37.5v98.59ZM193.57-815.35q-21.5 0-35.21 14.24t-13.71 34.7v48.15h670.7v-48.24q0-20.5-14.17-34.67-14.17-14.18-34.75-14.18H193.57Zm-48.92 97.09h670.7-670.7Zm490.63 369.65h106.98l-69.48-98.59h-37.5v98.59Zm-416.3 0h350.43v-98.59H288.46l-69.48 98.59Zm0-205.19h350.43v-98.59H288.46l-69.48 98.59Zm6.17 474.78q-27.32 0-46.47-19.16-19.16-19.15-19.16-46.47v-507.74h-47.43q-13.93 0-23.5-9.32t-9.57-23.49v-81.24q0-47.79 33.22-81.29 33.22-33.49 81.33-33.49h572.87q47.49 0 81.13 33.58 33.65 33.57 33.65 81.04v81.4q0 14.17-9.75 23.49-9.74 9.32-23.06 9.32h-46.69v507.74q0 27.32-19.23 46.47-19.23 19.16-46.64 19.16h-510.7Z"/></svg>