<svg xmlns="http://www.w3.org/2000/svg" height="40" viewBox="0 -960 960 960" width="40"><path d="M257.88-155.26h444.35q6.92 0 10.51-6.15t.26-12.31l-59.05-101.59h-49v17.64q0 7.13-4.83 11.5-4.82 4.36-11.2 4.36-6.49 0-11.45-4.36-4.96-4.37-4.96-11.5v-17.64H305.65l-58.53 101.59q-3.85 6.16-.2 12.31 3.66 6.15 10.96 6.15Zm347.07-378.88h97.28q6.92 0 10.51-5.96t.26-12.5l-59.05-101.59h-49v120.05Zm-389.91-270.6q-26.13 0-42.96 17.26-16.82 17.26-16.82 42.19v58.66h649.48v-58.3q0-24.99-17.33-42.4-17.34-17.41-42.23-17.41H215.04Zm-59.78 118.11h649.48-649.48Zm449.69 341.26h97.28q6.92 0 10.51-5.32t.26-12.37l-59.05-101.85h-49v119.54Zm-347.07 0h314.63v-119.54H305.65l-58.53 101.85q-3.85 7.05-.2 12.37 3.66 5.32 10.96 5.32Zm0-188.77h314.63v-120.05H305.65L247.12-552.6q-3.85 6.54-.2 12.5 3.66 5.96 10.96 5.96Zm1.09 411.32q-23.13 0-40.09-16.96-16.96-16.96-16.96-40.09v-474.32H151.7q-12.35 0-20.62-7.91-8.26-7.9-8.26-20.26v-62.86q0-38.16 26.71-65.06 26.71-26.9 65.51-26.9h530.15q37.59 0 64.79 27.16 27.2 27.15 27.2 64.86v62.8q0 12.36-8.32 20.26-8.31 7.91-19.85 7.91h-51.33v474.32q0 23.13-16.96 40.09-16.96 16.96-40.09 16.96H258.97Z"/></svg>