<svg xmlns="http://www.w3.org/2000/svg" height="40" viewBox="0 -960 960 960" width="40"><path d="M255.13-153.85h449.64q6.92 0 10.51-6.15t.26-12.31l-58.77-101.02h-50.41v19.89q0 7.2-4.87 12.06-4.86 4.87-12.05 4.87-6.49 0-11.71-4.87-5.22-4.86-5.22-12.06v-19.89H302.62l-58.26 101.02q-3.85 6.16 0 12.31 3.84 6.15 10.77 6.15Zm351.23-380.92h98.41q6.92 0 10.51-6.15 3.59-6.16.26-12.31l-58.77-101.03h-50.41v119.49ZM213.13-806.15q-25.2 0-42.24 16.97-17.04 16.97-17.04 42.05v59.03h652.3v-58.46q0-25.06-17.04-42.32-17.04-17.27-42.24-17.27H213.13ZM153.85-688.1h652.3-652.3Zm452.51 343.23h98.41q6.92 0 10.51-5.51 3.59-5.52.26-12.18l-58.77-101.29h-50.41v118.98Zm-351.23 0h317.38v-118.98H302.62l-58.26 101.29q-3.85 6.66 0 12.18 3.84 5.51 10.77 5.51Zm0-189.9h317.38v-119.49H302.62l-58.26 101.03q-3.85 6.15 0 12.31 3.84 6.15 10.77 6.15ZM257.85-120q-23.72 0-41.09-17.37-17.38-17.37-17.38-41.09v-475.8h-50.15q-12.42 0-20.83-8.4-8.4-8.4-8.4-20.83v-63.69q0-38.67 27.16-65.75Q174.32-840 213.13-840h533.74q38.29 0 65.71 27.42Q840-785.16 840-746.75v63.26q0 12.43-8.4 20.83-8.41 8.4-20.83 8.4H760v475.8q0 23.72-17.37 41.09Q725.26-120 701.54-120H257.85Z"/></svg>