<svg xmlns="http://www.w3.org/2000/svg" height="48" viewBox="0 -960 960 960" width="48"><path d="M236.96-146.92h486.88q3.47 0 5.2-3.08t.19-6.15l-68.15-105.62h-43.47v12.38q0 9.53-6.49 15.56-6.49 6.02-15.33 6.02-8.53 0-15.28-6.02-6.74-6.03-6.74-15.56v-12.38H299.35l-67.77 105.62q-1.93 3.07-.1 6.15 1.83 3.08 5.48 3.08Zm380.65-394.5h106.23q3.47 0 5.2-2.98t.19-6.25l-68.15-105.62h-43.47v114.85ZM204.04-813.08q-24.97 0-41.04 16.53-16.08 16.52-16.08 40.35v56.09h666.16v-55.9q0-23.91-16.58-40.49-16.58-16.58-40.35-16.58H204.04Zm-57.12 112.97h666.16-666.16Zm470.69 355.76h106.23q3.47 0 5.2-2.59 1.73-2.6.19-6.25l-68.15-105.62h-43.47v114.46Zm-380.65 0h336.81v-114.46H299.35l-67.77 105.62q-1.93 3.65-.1 6.25 1.83 2.59 5.48 2.59Zm0-197.07h336.81v-114.85H299.35l-67.77 105.62q-1.93 3.27-.1 6.25 1.83 2.98 5.48 2.98Zm2.2 438.34q-22.87 0-39.51-16.64Q183-136.37 183-159.23v-497.04h-51.5q-12.14 0-20.28-7.79-8.14-7.8-8.14-19.94v-72.05q0-41.88 29.26-71.38 29.26-29.49 71.7-29.49h552.12q41.39 0 71.08 29.66 29.68 29.66 29.68 71.17V-684q0 12.14-8.19 19.94-8.19 7.79-19.54 7.79h-51.77v497.04q0 22.86-16.64 39.51-16.65 16.64-39.51 16.64H239.16Z"/></svg>