<svg xmlns="http://www.w3.org/2000/svg" height="40" viewBox="0 -960 960 960" width="40"><path d="M268.5-156.83h423q9 0 13.67-8 4.66-8 .33-16L649.33-283.5h-52.5v20.33q0 5.27-3.47 8.22-3.48 2.95-7.86 2.95-4.69 0-8.26-2.95-3.57-2.95-3.57-8.22v-20.33H310l-55.5 102.67q-5 8-.25 16t14.25 8Zm328.33-372h94.67q9 0 13.67-7.75 4.66-7.75.33-16.25L649.33-655.5h-52.5v126.67ZM220-803.17q-27.68 0-45.42 18.18-17.75 18.19-17.75 44.47v61.85h646.34v-61.37q0-26.36-18.28-44.74-18.28-18.39-44.56-18.39H220Zm-63.17 124.5h646.34-646.34Zm440 334.84h94.67q9 0 13.67-6.92 4.66-6.92.33-16.08l-56.17-103h-52.5v126Zm-328.33 0h305.17v-126H310l-55.5 103q-5 9.16-.25 16.08 4.75 6.92 14.25 6.92Zm0-185h305.17V-655.5H310l-55.5 102.67q-5 8.5-.25 16.25t14.25 7.75Zm-.83 395.16q-22.24 0-38.71-16.46-16.46-16.46-16.46-38.7V-655.5h-50.83q-12.07 0-20.04-7.55-7.96-7.55-7.96-19.62v-57.78q0-35.56 24.99-60.72 24.99-25.16 61.34-25.16h520.34q34.94 0 60.47 25.47 25.52 25.47 25.52 60.53v57.66q0 12.07-8.03 19.62-8.02 7.55-19.13 7.55h-52.34v466.67q0 22.24-16.46 38.7-16.46 16.46-38.7 16.46h-424Z"/></svg>