<svg xmlns="http://www.w3.org/2000/svg" height="48" viewBox="0 -960 960 960" width="48"><path d="M215.13-144.35h531.3l-60.08-85.13h-44.92v-.69q-4.26 11.49-13.64 17.85-9.39 6.36-22.15 6.36-12 0-21.97-6.36-9.97-6.36-14.24-17.85v.69H275.22l-60.09 85.13Zm432.39-419.74h98.91l-60-84.13h-38.91v84.13ZM186.7-815.65q-18.39 0-30.37 11.7t-11.98 29.68v42.31h671.3v-42.15q0-17.91-11.74-29.73-11.74-11.81-29.61-11.81H186.7Zm-42.35 83.69h671.3-671.3Zm503.17 378.74h98.91l-60-85.13h-38.91v85.13Zm-432.39 0h348.65v-85.13H275.22l-60.09 85.13Zm0-210.87h348.65v-84.13H275.22l-60.09 84.13Zm10.22 502.92q-34.74 0-58.96-24.22t-24.22-58.96v-503.87h-38.91q-18.58 0-30.33-12.15-11.76-12.15-11.76-30.5v-84q0-52.21 36.07-88.37 36.08-36.15 89.46-36.15h587.6q52.45 0 88.77 36.15 36.32 36.16 36.32 88.37v84q0 18.35-12.06 30.5-12.06 12.15-29.59 12.15h-38.35v503.87q0 34.74-24.38 58.96-24.39 24.22-59.36 24.22h-510.3Z"/></svg>