<svg xmlns="http://www.w3.org/2000/svg" height="24" viewBox="0 -960 960 960" width="24"><path d="M272.5-162.5h414q9 0 14-8t0-16l-52.5-98h-51.5v19q0 5.5-3.79 9T584-253q-5 0-9-3.5t-4-9v-19H311l-52.5 98q-5 8-.25 16t14.25 8Zm324-367h90q9 0 14-7.75t0-16.25l-52.5-98h-51.5v122Zm0 183h90q9 0 14-7.25t0-15.75l-52.5-99h-51.5v122Zm-324 0H571v-122H311l-52.5 99q-5 8.5-.25 15.75t14.25 7.25Zm0-183H571v-122H311l-52.5 98q-5 8.5-.25 16.25t14.25 7.75ZM273-137q-23.97 0-40.73-16.77-16.77-16.76-16.77-40.73v-457H166q-12.5 0-20.75-8T137-680v-56.77Q137-773 161.73-798T223-823h514q35.17 0 60.58 25.36Q823-772.28 823-737.2v57.2q0 12.5-8.29 20.5t-20.21 8h-51v457q0 23.97-16.77 40.73Q709.97-137 686-137H273Z"/></svg>