<svg xmlns="http://www.w3.org/2000/svg" height="24" viewBox="0 -960 960 960" width="24"><path d="M257.38-154h444.47q6.92 0 10.77-6.15 3.84-6.16 0-12.31l-40.93-76.08h-45.23v2.31q-4 9.54-11.75 15.27-7.74 5.73-19.27 5.73-10.75 0-19.86-5.73-9.12-5.73-13.12-15.27v-2.31H287.54l-40.92 76.08q-3.85 6.15 0 12.31 3.84 6.15 10.76 6.15Zm370.08-398.69h74.39q6.92 0 10.77-6.16 3.84-6.15 0-12.3l-40.93-76.08h-44.23v94.54Zm0 199.46h74.39q6.92 0 10.77-5.77 3.84-5.77 0-11.92l-40.93-76.85h-44.23v94.54Zm-370.08 0h304.08v-94.54H287.54l-40.92 76.85q-3.85 6.15 0 11.92 3.84 5.77 10.76 5.77Zm0-199.46h304.08v-94.54H287.54l-40.92 76.08q-3.85 6.15 0 12.3 3.84 6.16 10.76 6.16ZM257.85-88q-38.85 0-64.73-25.88-25.89-25.89-25.89-64.74v-468.61h-33.92q-18.93 0-32.12-13.19Q88-673.62 88-692.54v-67.08q0-47.08 32.94-79.73Q153.88-872 201.38-872h558.24q46.31 0 79.34 33.04Q872-805.93 872-759.62v67.08q0 18.92-13.19 32.12-13.19 13.19-32.12 13.19H792v468.61q0 38.85-25.88 64.74Q740.23-88 701.38-88H257.85Z"/></svg>