<svg xmlns="http://www.w3.org/2000/svg" height="20" viewBox="0 -960 960 960" width="20"><path d="M296.5-170.5h366q9 0 14-8t0-16l-50.5-90h-47.5v-1q-2 1.45-3.51 1.98-1.52.52-2.99.52-2.03 0-4.01-.52-1.99-.53-3.99-1.98v1H333l-50.5 90q-5 8-.25 16t14.25 8Zm284-376h82q9 0 14-7.75t0-16.25l-50.5-90-45.5 1v113ZM239-789.5q-29.61 0-49.06 19.91-19.44 19.9-19.44 48.74V-677h619v-43.65q0-28.75-19.91-48.8-19.9-20.05-48.59-20.05H239ZM170.5-677h619-619Zm410 318.5h82q9 0 14-7.25t0-15.75l-50.5-91h-45.5v114Zm-284 0H563v-114H333l-50.5 91q-5 8.5-.25 15.75t14.25 7.25Zm0-187H563v-114H333l-50.5 90q-5 8.5-.25 16.25t14.25 7.75Zm.22 392.5q-20.44 0-34.83-14.54-14.39-14.54-14.39-34.96v-457H178q-10.55 0-17.77-6.97Q153-673.45 153-684v-37.17q0-35.73 24.9-60.78Q202.79-807 239-807h482q35.17 0 60.58 25.36Q807-756.28 807-721.05V-684q0 10.55-7.26 17.53-7.27 6.97-17.24 6.97h-71v457q0 20.42-14.55 34.96Q682.39-153 661.96-153H296.72Z"/></svg>