<svg xmlns="http://www.w3.org/2000/svg" height="40" viewBox="0 -960 960 960" width="40"><path d="M218.67-156.67h524L699-218h-51.67v-4q-7.33 10.5-17.99 15.75-10.66 5.25-23.85 5.25-12.7 0-23.93-5.25T563-222v4H262.33l-43.66 61.33Zm439.66-418.66h84.34L699.14-636h-40.81v60.67Zm0 210.33h84.34l-43.53-61.33h-40.81V-365Zm-439.66 0h333v-61.33H262.33L218.67-365Zm0-210.33h333V-636H262.33l-43.66 60.67Zm18.66 524.66q-44.2 0-75.1-30.9-30.9-30.9-30.9-75.1V-636H104q-23.5 0-38.42-15.62Q50.67-667.23 50.67-690v-84.33q0-57.11 39.41-96.39Q129.5-910 187.67-910h585.66q57.53 0 97.1 39.28Q910-831.44 910-774.33V-690q0 22.77-15.28 38.38Q879.43-636 856.67-636H830v479.33q0 44.2-31.1 75.1-31.09 30.9-75.57 30.9h-486Z"/></svg>