<svg xmlns="http://www.w3.org/2000/svg" height="40" viewBox="0 -960 960 960" width="40"><path d="M266.67-156H693q9 0 13.67-8 4.66-8 .33-16l-56-102.33h-53.33v21.66q0 5.15-3.43 8.58-3.42 3.42-8.57 3.42-4.34 0-8.17-3.42-3.83-3.43-3.83-8.58v-21.66H308L252.67-180q-5 8 0 16t14 8Zm331-373H693q9 0 13.67-8 4.66-8 .33-16l-56-102.33h-53.33V-529Zm0 185.67H693q9 0 13.67-7.17 4.66-7.17.33-15.83L651-469h-53.33v125.67Zm-331 0h307V-469H308l-55.33 102.67q-5 8.66 0 15.83t14 7.17Zm0-185.67h307v-126.33H308L252.67-553q-5 8 0 16t14 8Zm.33 397q-22.83 0-39.42-16.58Q211-165.17 211-188v-467.33h-51q-12.15 0-20.08-7.93-7.92-7.92-7.92-20.07v-58q0-36.45 25.11-61.56T218.67-828h522.66q35.45 0 61.06 25.61T828-741.33v58q0 12.15-7.92 20.07-7.93 7.93-20.08 7.93h-52V-188q0 22.83-16.58 39.42Q714.83-132 692-132H267Z"/></svg>