<svg xmlns="http://www.w3.org/2000/svg" height="40" viewBox="0 -960 960 960" width="40"><path d="M217.14-146.01h526.54l-56.09-79.85h-40.26v-.45q-3.78 14.05-14.64 22.6-10.87 8.54-26.31 8.54-14.95 0-26.64-8.54-11.69-8.55-15.47-22.6v.45H273.24l-56.1 79.85Zm433.58-420.95h92.96l-56.06-79.19h-36.9v79.19ZM185.89-813.99q-16.7 0-28.29 11.14-11.59 11.13-11.59 27.88v39.41h667.98v-39.26q0-16.69-11.24-27.93-11.24-11.24-27.64-11.24H185.89Zm-39.88 78.43h667.98-667.98Zm504.71 379.94h92.96l-56.06-79.84h-36.9v79.84Zm-433.58 0H561.3v-79.84H273.24l-56.1 79.84Zm0-211.34H561.3v-79.19H273.24l-56.1 79.19Zm9.54 510.21q-37.58 0-63.42-25.84-25.84-25.84-25.84-63.42v-500.14h-35.7q-19.19 0-32.08-13.05-12.89-13.06-12.89-32.07v-84.08q0-53.49 37.35-90.78 37.34-37.28 91.79-37.28h589.22q53.6 0 90.95 37.28 37.35 37.29 37.35 90.78v84.08q0 19.01-12.97 32.07-12.97 13.05-31.49 13.05h-35.54v500.14q0 37.58-25.89 63.42-25.89 25.84-63.53 25.84H226.68Z"/></svg>