<svg xmlns="http://www.w3.org/2000/svg" height="40" viewBox="0 -960 960 960" width="40"><path d="M240.19-152.63h479.92q3.47 0 5.26-3.08 1.8-3.07.13-6.15l-63.86-99.79h-43.17v13.15q0 10.23-7.07 16.95-7.08 6.73-16.77 6.73-9.51 0-16.77-6.73-7.27-6.72-7.27-16.95v-13.15H298.41l-63.6 99.79q-1.92 3.08-.1 6.15 1.83 3.08 5.48 3.08Zm378.28-390.36h101.64q3.47 0 5.26-2.98 1.8-2.98.13-6.25l-63.86-99.79h-43.17v109.02Zm-411.7-264.38q-23.54 0-38.84 15.73-15.3 15.74-15.3 38.4v53.34h654.74v-53.18q0-22.71-15.77-38.5t-38.34-15.79H206.77ZM152.63-699.9h654.74-654.74Zm465.84 351.96h101.64q3.47 0 5.26-2.66 1.8-2.66.13-6.18l-63.86-99.93h-43.17v108.77Zm-378.28 0h330.4v-108.77H298.41l-63.6 99.93q-1.92 3.52-.1 6.18 1.83 2.66 5.48 2.66Zm0-195.05h330.4v-109.02H298.41l-63.6 99.79q-1.92 3.27-.1 6.25 1.83 2.98 5.48 2.98Zm4.3 438.25q-24.63 0-42.41-17.79-17.78-17.78-17.78-42.41v-487.07h-49.2q-12.84 0-21.6-8.5-8.76-8.49-8.76-21.34v-71.33q0-42.48 29.57-72.28 29.57-29.8 72.46-29.8h546.49q42.02 0 72.01 29.97 29.99 29.97 29.99 72.07v71.37q0 12.85-8.8 21.34-8.8 8.5-21.04 8.5h-49.66v487.07q0 24.63-17.79 42.41-17.78 17.79-42.41 17.79H244.49Z"/></svg>