<svg xmlns="http://www.w3.org/2000/svg" height="24" viewBox="0 -960 960 960" width="24"><path d="M268-154h423q9 0 14-8t0-16l-40-80h-48v3q-4 6.95-10.04 10.98-6.05 4.02-14.98 4.02-7.98 0-15.48-4.02Q569-248.05 565-255v-3H294l-40 80q-5 8 0 16t14 8Zm350-392h73q9 0 14-8t0-16l-40-80h-47v104ZM206-806q-21.5 0-36.75 14.66Q154-776.67 154-755v51h652v-50.53Q806-776 791.34-791q-14.67-15-36.34-15H206Zm-52 102h652-652Zm464 354h73q9 0 14-7.5t0-15.5l-40-81h-47v104Zm-350 0h296v-104H294l-40 81q-5 8 0 15.5t14 7.5Zm0-196h296v-104H294l-40 80q-5 8 0 16t14 8Zm-3 446q-36.75 0-61.37-24.63Q179-149.25 179-186v-464h-36q-17.75 0-30.37-12.63Q100-675.25 100-693v-62.4q0-43.58 30.92-74.09Q161.83-860 206-860h549q43.08 0 74.04 30.96Q860-798.08 860-754.85V-693q0 17.75-12.62 30.37Q834.75-650 817-650h-37v464q0 36.75-24.62 61.37Q730.75-100 694-100H265Z"/></svg>