<svg xmlns="http://www.w3.org/2000/svg" height="40" viewBox="0 -960 960 960" width="40"><path d="M255.13-153.85h449.64q6.92 0 10.51-6.15t.26-12.31l-58.77-101.02h-50.41v19.89q0 7.23-4.85 12.08-4.84 4.85-12.07 4.85-6.49 0-11.71-4.85-5.22-4.85-5.22-12.08v-19.89H302.62l-58.26 101.02q-3.85 6.16 0 12.31 3.84 6.15 10.77 6.15Zm351.23-380.92h98.41q6.92 0 10.51-6.15 3.59-6.16.26-12.31l-58.77-101.03h-50.41v119.49Zm0 189.9h98.41q6.92 0 10.51-5.51 3.59-5.52.26-12.18l-58.77-101.29h-50.41v118.98Zm-351.23 0h317.38v-118.98H302.62l-58.26 101.29q-3.85 6.66 0 12.18 3.84 5.51 10.77 5.51Zm0-189.9h317.38v-119.49H302.62l-58.26 101.03q-3.85 6.15 0 12.31 3.84 6.15 10.77 6.15ZM257.85-120q-23.91 0-41.19-17.28-17.28-17.27-17.28-41.18v-475.8h-50.15q-12.61 0-20.92-8.3-8.31-8.31-8.31-20.93v-63.38q0-39.06 27.03-66.1Q174.07-840 213.13-840h533.74q38.29 0 65.71 27.42Q840-785.16 840-746.87v63.38q0 12.62-8.31 20.93-8.31 8.3-20.92 8.3H760v475.8q0 23.91-17.28 41.18Q725.45-120 701.54-120H257.85Z"/></svg>