<svg xmlns="http://www.w3.org/2000/svg" height="40" viewBox="0 -960 960 960" width="40"><path d="M216.67-146.67H744l-68-96.66h-40.67v14q0 14.16-9.58 23.75Q616.17-196 602-196q-13.67 0-23.5-9.58-9.83-9.59-9.83-23.75v-14h-284l-68 96.66ZM635.33-554H744l-68-96.67h-40.67V-554ZM194.67-813.33q-20.4 0-34.2 13.8-13.8 13.8-13.8 34.2v48h666.66v-47.96q0-20.38-13.8-34.21-13.8-13.83-34.2-13.83H194.67Zm-48 96h666.66-666.66ZM635.33-350H744l-68-96.67h-40.67V-350Zm-418.66 0h352v-96.67h-284l-68 96.67Zm0-204h352v-96.67h-284l-68 96.67Zm10.66 474q-27.5 0-47.08-19.58-19.58-19.59-19.58-47.09v-504h-47.34q-14.16 0-23.75-9.58Q80-669.83 80-684v-81.33q0-47.78 33.44-81.23Q146.89-880 194.67-880h570.66q47.78 0 81.23 33.44Q880-813.11 880-765.33V-684q0 14.17-9.58 23.75-9.59 9.58-23.75 9.58H800v504q0 27.5-19.58 47.09Q760.83-80 733.33-80h-506Z"/></svg>