<svg xmlns="http://www.w3.org/2000/svg" height="48" viewBox="0 -960 960 960" width="48"><path d="M255.42-151.35h449.77q6.93 0 10.39-6.15 3.46-6.15.38-12.31l-61.81-105.23h-49.42v17.77q0 6.85-4.48 10.75-4.49 3.9-10.42 3.9-6.03 0-10.66-3.9t-4.63-10.75v-17.77H305.69l-61.04 105.23q-3.84 6.16-.19 12.31 3.66 6.15 10.96 6.15Zm349.31-382h100.46q6.93 0 10.39-5.96 3.46-5.96.38-12.5l-61.81-105.23h-49.42v123.69Zm0 190.16h100.46q6.93 0 10.39-5.19 3.46-5.2.38-12.5l-61.81-105.24h-49.42v122.93Zm-349.31 0h319.12v-122.93H305.69l-61.04 105.24q-3.84 7.3-.19 12.5 3.66 5.19 10.96 5.19Zm0-190.16h319.12v-123.69H305.69l-61.04 105.23q-3.84 6.54-.19 12.5 3.66 5.96 10.96 5.96Zm-.11 412.2q-22.21 0-38.51-16.31-16.3-16.3-16.3-38.5v-481.08H149q-12.23 0-20.04-7.36-7.81-7.37-7.81-19.6v-63.02q0-38.26 26.5-65.04 26.49-26.79 65.43-26.79h534.24q37.28 0 64.4 27.08 27.13 27.08 27.13 64.39V-684q0 12.23-7.88 19.6-7.87 7.36-19.09 7.36h-52.53v481.08q0 22.2-16.31 38.5-16.3 16.31-38.5 16.31H255.31Z"/></svg>