<svg xmlns="http://www.w3.org/2000/svg" height="20" viewBox="0 -960 960 960" width="20"><path d="M263.69-168h432.23q3.46 0 5.39-3.08 1.92-3.07 0-6.15l-52.46-78.54h-42.62v1.15q-2 8.77-8.32 14.39-6.31 5.61-15.68 5.61-9.41 0-16.2-5.61-6.8-5.62-8.8-14.39v-1.15H310.77l-52.46 78.54q-1.92 3.08 0 6.15 1.92 3.08 5.38 3.08Zm344.54-397.85h87.69q3.46 0 5.39-3.07 1.92-3.08 0-6.16l-52.46-78.54-40.62 1v86.77Zm0 199.24h87.69q3.46 0 5.39-2.89 1.92-2.88 0-5.96l-52.46-78.93h-40.62v87.78Zm-344.54 0h292.54v-87.78H310.77l-52.46 78.93q-1.92 3.08 0 5.96 1.92 2.89 5.38 2.89Zm0-198.24h292.54v-87.77H310.77l-52.46 78.54q-1.92 3.08 0 6.16 1.92 3.07 5.38 3.07ZM275.64-116q-26.64 0-45.33-18.84-18.69-18.85-18.69-45.47v-472.31h-63.46q-13.77 0-22.96-9.19-9.2-9.2-9.2-22.96v-51.54q0-45 31.35-76.34Q178.69-844 223.69-844h512.62q44.61 0 76.15 31.54Q844-780.92 844-736.31v51.54q0 13.76-9.2 22.96-9.19 9.19-22.96 9.19H748v472.31q0 26.62-18.86 45.47Q710.29-116 683.65-116H275.64Z"/></svg>