<svg xmlns="http://www.w3.org/2000/svg" height="48" viewBox="0 -960 960 960" width="48"><path d="M216-150h530l-54-76h-51v-2q-6 9.75-15.2 14.37-9.19 4.63-20.81 4.63-10.86 0-20.43-4.63Q575-218.25 569-228v2H270l-54 76Zm435-418h95l-53.86-75H651v75ZM188-810q-17.3 0-27.65 10.2Q150-789.6 150-773.32V-735h660v-38.18q0-16.23-10.11-26.53Q789.77-810 773-810H188Zm-38 75h660-660Zm501 377h95l-53.86-76H651v76Zm-435 0h343v-76H270l-54 76Zm0-210h343v-75H270l-54 75Zm15 509q-37.8 0-64.4-26.6Q140-112.2 140-150v-493h-35q-20.75 0-33.37-13.33Q59-669.65 59-690v-84q0-53.92 36.96-90.96Q132.92-902 188-902h585q54.33 0 91.67 37.04Q902-827.92 902-774v84q0 20.35-13.17 33.67Q875.65-643 856-643h-34v493q0 37.8-26.89 64.4Q768.21-59 730-59H231Z"/></svg>