<svg xmlns="http://www.w3.org/2000/svg" height="20" viewBox="0 -960 960 960" width="20"><path d="m194.62-42-63.08-40.23Q180.85-172 193.39-274q12.53-102 12.53-206 0-103-12.53-205.69-12.54-102.69-61.85-191.08L194.62-918q19.15 33.54 31.84 67.69 12.69 34.16 24.69 70.31h79.47q64-1.38 106.96 44.73 42.96 46.12 42.96 111.89V-338q0 67.15-42.96 112.38-42.96 45.23-106.96 45.23h-79.47q-12 36.16-25 70-13 33.85-31.53 68.39Zm528.46-281.23L572.62-480l150.46-156.38 54.15 53.76L719.54-518H873v78H719.54l57.69 62.62-54.15 54.15ZM268-257h61.62q30.07 0 51.5-23.88 21.42-23.89 21.42-57.12v-284.38q0-31.85-21.42-55.74Q359.69-702 329.62-702h-60.24q8.24 55.23 10.7 109.46 2.46 54.23 2.46 112.54 0 56.92-2.66 112.04Q277.23-312.85 268-257Zm14.54-223Z"/></svg>