<svg xmlns="http://www.w3.org/2000/svg" height="40" viewBox="0 -960 960 960" width="40"><path d="M187.54-49.49 146.23-75.9q56.69-94.15 62.9-195.25 6.2-101.11 6.2-208.85 0-106.74-6.2-208.73-6.21-101.99-62.9-195.04l41.31-26.9q19.1 31.88 31.64 63.55 12.54 31.68 23.03 65.79h78.25q60.85-.26 102.87 44.88 42.03 45.14 42.03 110.35v291.46q0 65.61-42.03 110.83-42.02 45.22-102.87 45.22h-78.25q-10.49 32.59-23.15 64.91-12.65 32.32-31.52 64.19Zm527.54-282.43L576.23-480l138.85-147.82 36.1 35.85-77.59 87.05h186.9v51.18h-186.9l77.59 85.56-36.1 36.26ZM252.79-229.67h67.34q39.25 0 66.65-30.88 27.4-30.89 27.4-74.94v-290.46q0-42.77-27.4-73.49-27.4-30.71-66.65-30.71h-66.41q9.46 59.92 10.66 121.43 1.21 61.51 1.21 128.72 0 66.95-1.24 128.97-1.25 62.03-11.56 121.36ZM265.59-480Z"/></svg>