<svg xmlns="http://www.w3.org/2000/svg" height="24" viewBox="0 -960 960 960" width="24"><path d="m202.15-73.31-46.53-30.81q48.42-88.27 57.59-182.32 9.18-94.06 9.18-193.56 0-98.81-9.18-192.9-9.17-94.1-57.59-182.18l46.53-31.11q15.27 28.15 26.47 56.42 11.19 28.27 19.5 57.85h79.42q59.5.31 101.19 43.52t41.69 105.48v286.96q0 61.84-41.69 104.92t-101.19 43.08h-79.12q-8.3 29.77-19.46 58.23-11.15 28.46-26.81 56.42Zm507.39-263.04L570.42-480l139.12-142.96 39.23 39.54-71 75.34h174.65v55.96H677.77l71 76.04-39.23 39.73Z"/></svg>