<svg xmlns="http://www.w3.org/2000/svg" height="20" viewBox="0 -960 960 960" width="20"><path d="m199.23-57-46.15-29.46Q204.69-177 213.77-276.5q9.08-99.5 9.08-203.5 0-103-9.08-203.38-9.08-100.39-60.69-189.16L199.23-903q20.31 35.08 33.19 70.38 12.89 35.31 24.89 72.62h77.92q59-1.77 97.92 41.46 38.93 43.23 38.93 104.77V-348q0 63.31-38.93 105.27-38.92 41.96-97.92 41.96h-77.92q-12 37.31-25 72.5T199.23-57Zm516.92-280.46L582.23-480l133.92-141.77 40.31 39.54L691.08-508H853v58H691.08l65.38 72.23-40.31 40.31Z"/></svg>