<svg xmlns="http://www.w3.org/2000/svg" height="20" viewBox="0 -960 960 960" width="20"><path d="m209.93-48.67-76.41-49.57q44.2-83.37 59.14-183.4Q207.61-381.67 207.61-480q0-98.39-14.95-198.17-14.94-99.79-59.14-183.16l76.41-50.06q17.77 31.69 30.4 65.24 12.63 33.54 23.82 68.93h72.52q64.72-.5 109.21 46.09 44.49 46.59 44.49 112.3v277.16q0 66.28-44.49 112.33-44.49 46.06-109.21 46.06h-72.02q-11.19 36.39-24.36 69.15-13.16 32.76-30.36 65.46Zm508.4-268.35L560.61-480l157.72-162.48 64.58 64.52-46.19 51.46h134.74v93H736.72l46.19 51.39-64.58 65.09Z"/></svg>