<svg xmlns="http://www.w3.org/2000/svg" height="48" viewBox="0 -960 960 960" width="48"><path d="m171.91-14.09-63.34-39.63q57.52-94.8 67.38-204.16Q185.8-367.24 185.8-480q0-111.76-9.85-221.5-9.86-109.74-67.38-205.02l63.34-40.39q19 31 32.48 63.36 13.48 32.35 24.24 66.12h79.85q68.48 0 117.19 50.59 48.72 50.6 48.72 123.32v325.28q0 73.72-48.72 124.58-48.71 50.86-117.19 50.86h-79.85q-10.76 33.23-24.62 65.47-13.86 32.24-32.1 63.24Zm560.61-294.28L568.65-480l163.87-171.87 54.11 54.11-70.61 79.37H898.2v77.3H716.02l70.61 77.61-54.11 55.11Zm-485.93 87.5h62.13q36.8 0 62.46-28.16 25.67-28.17 25.67-69.45v-323.8q0-41.29-25.67-69.45-25.66-28.16-62.46-28.16h-61.13q10.76 63.52 12.64 128.3 1.88 64.79 1.88 131.59t-2.38 131.59q-2.38 64.78-13.14 127.54ZM262.11-480Z"/></svg>