<svg xmlns="http://www.w3.org/2000/svg" height="24" viewBox="0 -960 960 960" width="24"><path d="m192.43-28.17-87.91-57.57q46.7-86.87 62.39-189.65 15.7-102.78 15.7-204.61 0-101.39-15.7-204.17-15.69-102.79-62.39-189.66l87.91-57.56q15.27 26.69 26.9 54.74 11.63 28.04 21.32 57.43h76.52q72.22 1 123.46 52.59 51.24 51.59 51.24 124.8v325.66q0 72.78-51.24 124.58-51.24 51.81-123.46 51.81h-76.52q-9.69 29.39-21.61 57.15-11.91 27.76-26.61 54.46Zm530.4-270.35L543.61-480l179.22-181.48 74.08 74.52L745.22-533h151.74v106H745.22l51.69 54.39-74.08 74.09Z"/></svg>