<svg xmlns="http://www.w3.org/2000/svg" height="20" viewBox="0 -960 960 960" width="20"><path d="M259-16h85q22 0 33.5-19.5T379-76q-7-17-10-35.5t-3-37.5q0-63 35.5-115t93.5-74q20-40 55.5-67.5T633-443q19-4 37-4.5t37 1.5q19 1 33.5-11t14.5-31v-108q-1-20-8-38t-22-31L523-868q-15-15-32.5-21.5T455-896q-19 0-37.5 7.5T385-868L188-664q-15 15-21.5 33.5T160-594v479q0 40 29.5 69.5T259-16Zm197-532q-30 0-52.5-21.5T383-621q-2-29 20.5-50.5T456-693q30 0 53 21.5t20 50.5q3 30-20 51.5T456-548ZM571-16q-56 0-94.5-38.5T438-149q0-48 30.5-84.5T547-279q16-47 56-73t91-26q58 0 101 34t53 86q43 8 69.5 42t26.5 79q0 50-36.5 85.5T823-16H571Z"/></svg>