<svg xmlns="http://www.w3.org/2000/svg" height="48" viewBox="0 -960 960 960" width="48"><path d="M439.26-466.3ZM223.22-33.78h143.34q16.97 0 29.81-12.32 12.85-12.33 12.85-29.78 0-16.28-12.85-28.96-12.84-12.68-29.81-12.68H222.78v-486.22l215.48-211.35L654.61-602.3v126.47q0 16.99 12.61 29.32 12.6 12.34 28.11 12.34 18.76 0 30.89-12.88 12.13-12.88 12.13-29.54v-125.62q-.44-15.25-7.22-31.22-6.78-15.96-19.04-27.09L495.04-875.57q-12.72-11.13-27.67-17.47-14.96-6.35-30.04-6.35-17.9 0-32.75 6.06-14.85 6.07-28.23 17.76L163.43-661.09q-12.13 12.7-17.97 27.83-5.85 15.13-5.85 31.3v484.57q0 33.39 24.82 58.5 24.83 25.11 58.79 25.11Zm215.54-579.44q-22.8 0-38.59-14.68-15.79-14.69-14.82-38.23-.98-21.74 14.49-36.76t39.2-15.02q22.53 0 38.83 15.02 16.3 15.02 13.17 36.76 3.13 23.3-13.17 38.11-16.3 14.8-39.11 14.8Zm112.98 580q-57.73 0-96.61-39.6-38.87-39.6-38.87-96.32 0-50.74 33.78-88.75 33.79-38.02 86.61-45.28 18.57-37.57 55.51-59.07 36.95-21.5 80.42-21.5 52.91 0 97.78 25.72 44.86 25.72 54.16 74.41h2q44.7 5.39 72.2 42.45t27.5 82.65q0 52.02-33.3 88.66-33.3 36.63-81.18 36.63h-260Zm0-77.52h250q19.01 0 33.26-13.76 14.26-13.77 14.26-34.78 0-19-14.26-33.25-14.25-14.25-33.26-14.25h-42.48l5.87-3.57q1.44-40.13-27.02-68.28t-66.58-28.15q-30.23 0-53.29 18.61-23.07 18.61-32.2 46.56l-2.82 14.83h-31.48q-25.21 0-41.87 16.96-16.65 16.97-16.65 41.35 0 24.38 16.65 41.06 16.66 16.67 41.87 16.67Zm120 0Z"/></svg>