<svg xmlns="http://www.w3.org/2000/svg" height="40" viewBox="0 -960 960 960" width="40"><path d="M440.78-475.22ZM231.41-70.72h115.68q14.22 0 25.16-10.55t10.94-25.83q0-14.33-10.94-25.27-10.94-10.93-25.16-10.93h-115.6v-457.35l208.64-206.72L649.5-599.11v113.96q0 14.92 10.48 25.35 10.48 10.43 25.64 10.43 14.92 0 25.81-10.6 10.9-10.59 10.9-25.94v-112.7q.08-13.83-6.17-27.41-6.25-13.57-16.04-23.73L489.95-858.67q-10.92-10.67-23.91-16.09-12.99-5.43-26.58-5.43-14.33 0-27.51 5.56-13.17 5.55-24.49 15.98l-207.6 207.57q-10.94 10.78-15.87 24.45t-4.93 27.09v456.71q0 29.53 21.33 50.82t51.02 21.29Zm208.8-540.69q-21.93 0-37.43-14.91-15.49-14.92-14.69-37.38-.8-21.48 14.55-36.41 15.36-14.93 37.75-14.93 21.81 0 37.43 14.93 15.62 14.93 14.74 36.36.88 22.33-14.77 37.34-15.64 15-37.58 15Zm84.76 540.92q-52.49 0-88.56-36.11-36.08-36.12-36.08-88.74 0-48.8 33.04-84.1 33.03-35.3 82.69-39.76 18.03-36.89 52.48-58.64 34.45-21.75 76.42-21.75 50.58 0 92.44 26.47 41.86 26.48 49.97 74.09h3.33q43.05 2.07 70.82 35.71 27.76 33.64 27.76 78.53 0 47.03-30.03 80.67-30.03 33.63-74.28 33.63h-260Zm0-69.63h250q17.93 0 31.38-12.91 13.46-12.92 13.46-32.56 0-17.89-13.46-31.21-13.45-13.32-31.38-13.32H730.8l.92-12.92q-.93-35.39-26.25-61.23-25.33-25.85-60.47-25.85-27.75 0-48.24 17.08-20.49 17.08-30.23 42.9l-6.73 20.02h-34.83q-23.44 0-39.31 16.22-15.86 16.21-15.86 39.25 0 23.03 15.86 38.78 15.87 15.75 39.31 15.75Zm120 0Z"/></svg>