<svg xmlns="http://www.w3.org/2000/svg" height="20" viewBox="0 -960 960 960" width="20"><path d="M459.2-453.85ZM262.11-8.59h97.35q20.34 0 36.46-15.12 16.12-15.13 16.12-37.16 0-20.74-16.12-36.81-16.12-16.08-36.46-16.08h-97.87V-593.8L456.2-793.93l199.37 199.89v103.69q0 20.26 15.17 36.01 15.18 15.75 37.04 15.75 21.05 0 37.12-15.28 16.08-15.28 16.08-37.29V-594.8q-1-21.44-8.86-40.75-7.86-19.32-23.05-33.04L528.98-869.43q-16.2-14.96-34.98-22.44-18.79-7.48-37.8-7.48-20.34 0-40.09 7.86-19.74 7.86-35.18 22.06l-194.6 201.6q-15.72 15.96-22.82 35.6t-7.1 39.35v478.6q0 42.39 31.66 74.04 31.65 31.65 74.04 31.65ZM457.2-550.15q-29.29 0-50.95-20.67-21.66-20.66-19.66-49.94-2-28.04 19.66-48.71 21.66-20.66 51.07-20.66 29.16 0 51.44 20.66 22.28 20.67 18.81 48.71 3.47 29.28-18.81 49.94-22.28 20.67-51.56 20.67ZM572.91-8.35q-58.39 0-98.44-40.29-40.06-40.29-40.06-98.21 0-49.32 30.86-87.07 30.86-37.75 80.3-47.95 16.95-47.48 57.96-73.48 41-26 92.96-26 59.42 0 104.29 33.76 44.87 33.76 53.92 86.96 43.71 9.91 70.21 45.07 26.5 35.15 26.5 80.86 0 52.63-38.22 89.49-38.23 36.86-88.28 36.86h-252Zm0-101.58h252q9.97 0 17.44-7.17 7.48-7.16 7.48-17.39 0-9.9-6.18-16.08-6.17-6.19-15.74-8.19l-67.08-5 5.24-40.76q-2.24-29.48-22.48-52.36-20.24-22.88-49.68-22.88-34 0-54.24 27.26-20.24 27.26-25.71 60.02l7.04 4.72-55.09 5q-13.43 3-21.67 13.29-8.24 10.3-8.24 22.56 0 15.65 10.54 26.31 10.54 10.67 26.37 10.67Zm120 0Z"/></svg>