<svg xmlns="http://www.w3.org/2000/svg" height="40" viewBox="0 -960 960 960" width="40"><path d="M439.37-462.8ZM225.79-22.44h144.19q18.33 0 31.73-12.95 13.39-12.95 13.39-31.78 0-18.04-13.39-31.36-13.4-13.33-31.73-13.33H225.11v-490.77L438.7-813.75l214.53 212.21v131.27q0 18.33 13.14 31.27 13.13 12.93 30.79 12.93 19.22 0 32.39-13.28 13.18-13.29 13.18-31.69v-130.57q-.51-16.78-7.87-33.71-7.37-16.93-19.74-29.15L500.54-877.64q-13.56-12.3-29.87-19.03-16.31-6.74-32.59-6.74-18.07 0-34.45 6.62-16.38 6.61-29.91 19.15L161.28-664.38q-12.89 13.13-19.16 29.85t-6.27 33.46v488.69q0 36.75 26.51 63.34 26.52 26.6 63.43 26.6Zm213.25-575.37q-25.62 0-43.69-17.37-18.07-17.38-17.41-43.39-.67-25.05 17.24-42.71 17.9-17.66 43.98-17.66 25.49 0 43.94 17.66t16.64 42.71q1.81 25.95-16.64 43.36-18.45 17.4-44.06 17.4ZM565-22.2q-56.52 0-94.87-38.64-38.36-38.64-38.36-94.66 0-50.6 33.87-88.11t85.48-43.55q18.81-37.65 55.07-59.32 36.26-21.67 79.66-21.67 51.77 0 95.11 25.68 43.34 25.67 54.55 73.88h1.33q44.72 4.26 72.72 40.59 28 36.32 28 82.82 0 50.56-32.54 86.77Q872.49-22.2 825-22.2H565Zm0-86.47h250q14.5 0 25.37-10.41 10.88-10.4 10.88-26.38 0-14.63-10.88-25.5-10.87-10.87-25.37-10.87h-52.75l3.42-16.42q.43-34.14-23.56-58.86t-57.17-24.72q-28.11 0-48.35 18.5-20.24 18.5-27.39 44.79l-2.45 16.71H565q-20.08 0-33.5 13.48-13.41 13.48-13.41 33.22t13.41 33.1q13.42 13.36 33.5 13.36Zm120 0Z"/></svg>