<svg xmlns="http://www.w3.org/2000/svg" height="40" viewBox="0 -960 960 960" width="40"><path d="M439.82-480.38ZM242.54-100h90.59q10.07 0 17.6-7.22 7.53-7.22 7.53-17.91 0-10.08-7.53-17.6-7.53-7.53-17.6-7.53h-90.59q-5.39 0-9.17-3.84-3.78-3.85-3.91-9.23v-436.31q0-2.31.96-4.74.96-2.44 2.89-4.11l198.41-197.79q3.46-3.46 8.59-3.27 5.13.19 9.1 3.65l197.9 198.62q1.92 1.92 2.69 4.04.77 2.11.77 4.8v108.18q0 10.5 7.35 17.51 7.36 7.01 17.79 7.01 10.45 0 17.97-7.23 7.53-7.22 7.53-17.9v-106.95q.2-12.15-4.86-24.15-5.06-11.99-13.73-21.08l-198.1-198.62q-9.41-9.35-20.83-13.84-11.41-4.49-23.74-4.49-12.23 0-24.05 4.68t-20.59 13.65l-198.2 198.21q-9.15 9.15-13.44 20.8-4.28 11.65-4.28 24.22v435.49q0 26.67 18.14 44.81T242.54-100Zm197.87-522.23q-19.54 0-32.86-13.53-13.32-13.52-13.73-33.06.41-18.87 13.59-32.4 13.19-13.52 33-13.52 19.28 0 32.63 13.52 13.34 13.53 13.7 32.4-.36 19.54-13.7 33.06-13.35 13.53-32.63 13.53ZM510-100q-46.39 0-78.19-31.81Q400-163.62 400-210q0-44.38 30.88-75.96 30.89-31.59 75.81-33.83 15.64-36.67 48.76-58.44Q588.56-400 629.62-400q48.03 0 86.92 26.88 38.9 26.89 46.72 73.12h5.82Q808-300 834-270.19q26 29.8 26 70.38t-25.65 70.19Q808.7-100 770-100H510Zm0-50.26h250q20.03 0 34.88-14.42 14.86-14.42 14.86-35.63 0-19.9-14.86-34.67-14.85-14.77-34.88-14.77h-38.36l-2.2-16.05q-.52-35.43-27.11-59.69-26.59-24.26-62.54-24.26-27.54 0-50.11 15.08-22.58 15.08-31.84 40.75l-8.92 24.17H510q-25.12 0-42.43 17.33-17.32 17.32-17.32 42.85 0 25.01 17.32 42.16 17.31 17.15 42.43 17.15Zm120 0Z"/></svg>