<svg xmlns="http://www.w3.org/2000/svg" height="48" viewBox="0 -960 960 960" width="48"><path d="M444.5-481ZM267-132h54.66q3.86 0 7.1-3.27 3.24-3.26 3.24-8.13 0-4.1-3.24-7.35t-7.1-3.25H267q-14 0-24-10t-10-24v-408.41q0-6 2.5-12.5t7.5-10.5L421-797q9-9 22.5-8.5T467-796l180.5 178q4.5 5 6.75 10.5t2.25 12.5v99q0 5.1 3.56 8.05 3.56 2.95 7.12 2.95 4.82 0 8.32-3.29 3.5-3.3 3.5-8.21v-99q.5-11-3.55-21.04-4.06-10.03-11.95-18.96L483.06-813.33q-7.63-7.67-17.48-11.17-9.84-3.5-21.45-3.5-11.13 0-21.63 4-10.5 4-17.58 10.61L227.5-635.5q-8 8.5-11.75 18.89T212-595v408q0 23 16 39t39 16Zm177.96-507q-13.96 0-23.71-9.32-9.75-9.33-8.75-23.5-1-13.18 8.63-22.68 9.62-9.5 23.67-9.5 13.2 0 23.45 9.5T477-672q1.5 14-8.79 23.5-10.3 9.5-23.25 9.5Zm49.54 507q-40 0-67.25-27.25T400-226.48q0-38.84 27.29-65.37 27.29-26.54 67.71-28.65 13.5-36.5 46.5-58t73.57-21.5q47.25 0 85.59 27.5T743-300h13q31 0 51.5 25.61t20.5 58.7Q828-182 806.62-157t-52.12 25h-260Zm0-22h250q24.4 0 42.95-17.71Q806-189.42 806-216.97q0-24.21-18.55-42.62Q768.9-278 744.5-278H719l5 4q2.5-44.5-31-74.25T614.23-378q-33.9 0-61.82 18-27.91 18-38.41 50l-3 12h-16.5q-29.76 0-51.13 21.04Q422-255.91 422-225.21q0 28.71 21.37 49.96T494.5-154Zm120 0Z"/></svg>