<svg xmlns="http://www.w3.org/2000/svg" height="48" viewBox="0 -960 960 960" width="48"><path d="M443-462ZM229.5-25h135.16q17.73 0 32.04-13.7Q411-52.39 411-71.29q0-17.71-14.3-31.96-14.31-14.25-32.04-14.25H229.5v-483.91L440-807.5 654-600v117.5q0 18.56 13.5 32.28 13.49 13.72 32.1 13.72 19.4 0 33.15-13.9t13.75-33.1v-116q0-17.5-7.99-34.69-7.99-17.19-20.51-29.31L502.03-873.92q-13.6-12.58-29.57-19.83Q456.5-901 439-901q-18.5 0-35 7t-31.58 20.11L164.5-665q-14 14-20.25 31.25T138-599.5v484q0 35.5 27.5 63t64 27.5Zm212.21-589q-20.71 0-36.18-13.7-15.47-13.71-12.53-35.71-2.97-19.59 12.15-33.09Q420.27-710 442.3-710q20.2 0 35.95 13.5Q494-683 490-663.5q4 21.5-11.79 35.5-15.8 14-36.5 14ZM553.5-24q-59.1 0-100.55-41.74-41.45-41.74-41.45-101.24 0-53.06 34.14-92.28Q479.79-298.49 534-307q21-38.5 59-60t82.13-21.5q56.38 0 104.38 25.75Q827.5-337 833.5-286.5h3.5q45 8 71.5 45.83t26.5 84.95q0 54.99-35.51 93.36Q863.98-24 813.5-24h-260Zm0-81.5h250q20.4 0 35.7-14.71 15.3-14.71 15.3-37.26 0-20.21-15.3-35.37Q823.9-208 803.5-208h-39l10.5 6q1.5-42.5-28.83-74.25Q715.85-308 674.19-308q-32.69 0-56.19 20.43T583-236v8h-29.5q-26.14 0-43.82 18.45Q492-191.11 492-165.8q0 25.3 17.68 42.8 17.68 17.5 43.82 17.5Zm120 0Z"/></svg>