<svg xmlns="http://www.w3.org/2000/svg" height="24" viewBox="0 -960 960 960" width="24"><path d="M235 0h111q24 0 36-21t2-44q-5-16-7.5-33t-2.5-35q0-70 41.5-126T523-335q23-30 55-51.5t70-31.5q14-4 27-6t27-2q21-1 36.5-14t15.5-33v-126q0-21-8-40.5T723-674L516-881q-16-16-35.5-23.5T441-912q-20 0-40 8t-35 23L158-673q-15 15-22.5 35t-7.5 40v491q0 45 31 76t76 31Zm206-572q-30 0-51.5-21.5T368-645q0-30 21.5-51.5T441-718q30 0 51.5 21.5T514-645q0 30-21.5 51.5T441-572ZM587 0q-56 0-94.5-38.5T454-133q0-51 34-88.5t85-42.5q19-38 55-60t79-22q51 0 93 25.5t56 73.5q46 4 75 40t29 84q0 50-32.5 86.5T847 0H587Z"/></svg>