<svg xmlns="http://www.w3.org/2000/svg" height="24" viewBox="0 -960 960 960" width="24"><path d="M445.62-456.77ZM260.38-40h99.7q12.77 0 22.88-9.38 10.12-9.38 10.12-23.25 0-13.14-10.12-23.25Q372.85-106 360.08-106h-100.7q-10.76 0-18.07-7.69-7.31-7.69-8.08-18.46v-464.54q0-4.62 1.92-9.23 1.93-4.62 5.77-8.46l185.46-184.7q6.93-6.92 16.93-6.54 10 .39 18.46 7.31l189.31 184.69q3.84 3.85 5.38 8.08t1.54 9.62v125.15q0 13.62 9.39 23.19 9.39 9.58 23.27 9.58 13.88 0 23.99-9.49 10.12-9.48 10.12-23.51v-125.69q-.77-17.93-8.07-34.98-7.29-17.05-19.08-30.02L509.08-846.38q-13.7-12.7-30.72-19.16-17.02-6.46-34.28-6.46-16.93 0-34.62 6.85-17.69 6.84-30.38 18.77l-185.7 185.69q-13.46 13.46-19.42 31.07-5.96 17.6-5.96 34.7v462.54q0 38.07 27.15 65.23Q222.31-40 260.38-40Zm185.24-558.15q-21.54 0-38.43-16.12-16.88-16.11-15.34-37.65-1.54-21.54 15.34-37.66 16.89-16.11 38.43-16.11 21.53 0 38.8 16.11 17.27 16.12 14.96 37.66 2.31 21.54-14.96 37.65-17.27 16.12-38.8 16.12ZM567-40q-46.77 0-79.88-33.12Q454-106.23 454-153q0-43.24 29.77-75.17 29.77-31.92 74.61-36.6 17.47-38 52.81-59.61Q646.53-346 690-346q51.08 0 91.92 26.27 40.85 26.27 49.46 72.73h10q36 4 57.31 34.62Q920-181.77 920-142.62q0 41.48-26.8 72.05T827-40H567Zm0-66h250q15.26 0 26.13-10.65Q854-127.31 854-142.56 854-158 843.13-169q-10.87-11-26.13-11h-49.23l10.08-6.85q1.84-36.84-24.93-65Q726.15-280 687.77-280q-33.52 0-57.49 22.12-23.97 22.11-29.51 54.88l6.77 3H567q-19.97 0-33.49 13.92Q520-172.17 520-152.62q0 19.56 13.51 33.09Q547.03-106 567-106Zm120 0Z"/></svg>