<svg xmlns="http://www.w3.org/2000/svg" height="24" viewBox="0 -960 960 960" width="24"><path d="M250 0h53q29 0 43.5-25.5T349-79q-5-17-8-35t-3-36q0-76 43.5-135T495-367q27-35 64-57.5t80-31.5q15-3 30.5-4t31.5 0q26 1 45.5-15.5T766-517v-76q0-25-9.5-48T730-681L534-877q-19-19-41.5-28t-46.5-9q-24 0-47 9t-42 28L161-681q-17 17-26.5 40t-9.5 48v469q0 51 37 87.5T250 0Zm196-591q-25 0-41.5-16.5T388-649q0-24 16.5-40.5T446-706q24 0 40.5 16.5T503-649q0 25-16.5 41.5T446-591ZM569 1q-63 0-107-44t-44-107q0-56 35.5-97.5T544-297q23-39 61.5-61.5T689-381q57 0 105.5 25t57.5 78q48 10 78 49.5t30 89.5q0 57-38 98.5T829 1H569Z"/></svg>