<svg xmlns="http://www.w3.org/2000/svg" height="20" viewBox="0 -960 960 960" width="20"><path d="M292-68h33q18 0 27.5-15.5T355-116q-6-14-7.5-30t-1.5-29q0-58 31-107t85-72q21-42 57.5-71t88.5-39q19-4 37-4.5t37 1.5q15 0 25-9.5t10-24.5v-92q-2-16-7.5-31T692-649L514-823q-12-12-26.5-16.5T459-844q-15 0-30.5 6T402-823L234-648q-13 13-17.5 28.5T212-590v442q0 31 24.5 55.5T292-68Zm170-514q-19 0-35.5-14.5T414-630q-4-18 12.5-32.5T462-677q19 0 36.5 14.5T510-630q6 19-11.5 33.5T462-582Zm83 514q-44 0-75.5-31.5T438-175q0-38 25-67t65-38q14-47 53-72.5t90-25.5q59 0 100.5 35t44.5 85h13q30 8 46.5 35t16.5 60q0 39-29 67t-66 28H545Z"/></svg>