<svg xmlns="http://www.w3.org/2000/svg" height="40" viewBox="0 -960 960 960" width="40"><path d="M439.5-480ZM229.33-86.67h115.61q12.41 0 21.9-9.13 9.49-9.13 9.49-22.64 0-12.56-9.49-22.06-9.49-9.5-21.9-9.5H229.33v-451.44l210-208.56L649.5-599.67V-483q0 13.09 9.08 22.04 9.08 8.96 22.5 8.96 12.92 0 22.42-9.15 9.5-9.15 9.5-22.68v-115.34q.17-12-5.41-23.94-5.57-11.93-14.09-21.06L483.02-854.44q-9.57-9.56-21.04-14.23-11.48-4.66-23.31-4.66-12.5 0-24.09 4.91-11.58 4.92-21.3 13.99L184.17-645.5q-9.67 9.5-13.92 21.5T166-600.33V-150q0 26.33 18.5 44.83t44.83 18.5ZM439.05-613q-22.05 0-37.47-15.11-15.41-15.11-15.08-37.5-.33-21.72 14.98-36.89 15.31-15.17 37.64-15.17 22.05 0 37.55 15.17 15.5 15.17 15.33 36.83.17 22.34-15.36 37.5Q461.11-613 439.05-613Zm76.12 526.33q-50.17 0-84.34-34.16-34.16-34.17-34.16-84.4 0-47.27 32.59-81.18 32.6-33.91 80.74-37.09 16.83-36.33 50.17-58.08 33.33-21.75 74.5-21.75 48.64 0 88.49 26.75 39.84 26.75 48.51 73.25H775q42.33 0 70.33 32.19 28 32.2 28 76.22 0 44.42-28.12 76.34-28.12 31.91-70.04 31.91h-260Zm0-63.33h250q17.93 0 31.38-12.87Q810-175.75 810-195.48q0-17.81-13.45-31.16Q783.1-240 765.17-240H721l-1-15q-1.17-34.67-25.83-59.83Q669.5-340 635.01-340q-27.01 0-47.26 16.33-20.25 16.34-29.75 41.34L550-260h-34.83q-23.45 0-39.31 16.13Q460-227.74 460-204.62t15.86 38.87Q491.72-150 515.17-150Zm120 0Z"/></svg>