<svg xmlns="http://www.w3.org/2000/svg" height="24" viewBox="0 -960 960 960" width="24"><path d="M245-90h62q17 0 25.5-14.75T333-135q-6.5-17-9.75-34.75T320-207.5q0-65 39.25-115.75T460.5-392q32.5-45.5 78.75-66.25T640.5-479q8 .5 15.5.75t15 2.25q17.5 3 31.25-6.75T716-509v-85.5q.5-15-5.25-28.5t-16.25-24.5L497-847.5q-11.5-11.5-25-17t-28-5.5q-14.5 0-28.25 5.75T391-847.5l-199.5 199q-11 10.5-16.25 24T170-596v431q0 32 21.5 53.5T245-90Zm198-509q-24 0-40.25-16.5T385.5-656q1-24 17.25-40.5T443-713q23.5 0 39.5 16.5T500-656q-1.5 24-17.5 40.5T443-599Zm69.5 509Q463-90 429-124t-34-83.5q0-47 32.5-80.75T508-324.5q16.5-36 49.5-58.25T631-405q47.5 0 86.25 26.75T766-305h3q43 0 72 32t29 75.5q0 44-27.75 75.75T772.5-90h-260Z"/></svg>