<svg xmlns="http://www.w3.org/2000/svg" height="20" viewBox="0 -960 960 960" width="20"><path d="M464-481ZM299.5-153h9q1.5 0 5-2.59T317-162q0-1.5-3.5-5t-5-3.5h-9q-14 0-23.5-10t-10.5-24v-385q0-6 2.5-12t7.5-11l162.5-168q9-9 22-8.5t24 9.5L653-611q4.5 5 6.75 10.5T662-588v72.56q0 2.61 2.48 5.77 2.48 3.17 6.15 3.17 2.37 0 6.12-2.59 3.75-2.58 3.75-6.41v-74q-1-10.5-4.3-19.79-3.31-9.28-11.2-16.21L496.03-793.92q-7.53-7.58-16.48-10.33T461.13-807q-9.8 0-19.71 3.75-9.92 3.75-16.92 9.25l-161 168q-9 9-11.75 18.08-2.75 9.09-2.75 19.42v385q0 19.5 15.5 35t35 15.5Zm163-456q-13.5 0-25-9.91t-8.5-23.5Q426-655 437.53-665q11.54-10 24.72-10Q476-675 488-665t8 22.5q4 13.5-8 23.5t-25.5 10Zm12 456q-39 0-66-27t-27-66.21q0-34.11 23.64-59.9Q428.79-331.9 466-338q11-45 47.5-70.75t84.87-25.75q54.43 0 92.78 36t38.35 85H744q28 4 45.5 27.25 17.5 23.24 17.5 53.06 0 32.69-24.88 56.44T726.5-153h-252Zm0-17.5h252q25.4 0 44.2-18.71 18.8-18.71 18.8-44.87 0-24.92-17.5-42.42T729.5-296l-28-5H713q.5-47-34.25-81.5T595.57-417q-43.74 0-75.41 28-31.66 28-42.16 70l9-6-19.5 5q-29.69 3-49.09 25.1Q399-272.81 399-245.15q0 31.05 21.71 52.85 21.7 21.8 53.79 21.8Zm120 0Z"/></svg>