<svg xmlns="http://www.w3.org/2000/svg" height="40" viewBox="0 -960 960 960" width="40"><path d="M269-132h23.33q12.67 0 19.34-10.83 6.66-10.84 1.66-22.5-5-14.67-7.16-30.34Q304-211.33 304-226q0-61.33 35.17-109.83 35.16-48.5 93.5-67.84 30.33-43 77.66-67.66Q557.67-496 614-496q8.67 0 17.17.33 8.5.34 17.16 1.67 12.67 2 22-5.67 9.34-7.66 9.34-19.33v-75.33q0-11.34-4.17-22.17-4.17-10.83-12.17-19.17l-178-176.66q-8.33-8.34-18.83-12Q456-828 444.67-828q-11 0-22 4.17-11 4.16-18.34 11.5L227.67-635.67q-8.34 8.34-12 19Q212-606 212-594.33V-189q0 24 16.5 40.5T269-132Zm176.33-505q-14 0-23.83-9.83-9.83-9.84-9.83-23.84 0-13.33 9.83-23.16 9.83-9.84 23.83-9.84 13.34 0 23.5 9.84 10.17 9.83 9.5 23.16.67 14-9.5 23.84-10.16 9.83-23.5 9.83ZM494-132q-39 0-66.5-27.5T400-226q0-38.67 27.5-65.33Q455-318 495-320q14-36.67 46.5-58.33Q574-400 614.67-400q48 0 85.66 27.5 37.67 27.5 42 72.5h13q31.34 0 52 25.5Q828-249 828-216q0 34-21 59t-53 25H494Z"/></svg>