<svg xmlns="http://www.w3.org/2000/svg" height="24" viewBox="0 -960 960 960" width="24"><path d="M268.46-126.15h22.77q13.92 0 21.27-12.06t1.65-24.87q-5.34-15.07-7.44-30.52-2.09-15.44-2.09-31.21 0-61.54 35.98-110.75t95.67-68.36q32.11-45.5 79.52-68.37 47.4-22.86 105.09-22.86 7.62.11 15.5.36 7.89.25 15.77 2.25 14.43 2.23 25.1-5.98 10.67-8.21 10.67-21.63v-72.81q.12-12.31-4.67-23.89-4.79-11.57-12.98-20.65L490.85-816.35q-9.2-9.19-20.77-13.34-11.58-4.16-23.77-4.16-11.81 0-23.64 4.6-11.82 4.6-20.52 12.9L223.81-638.12q-9.46 9.35-13.56 20.74-4.1 11.38-4.1 24.07v404.85q0 26.23 18.04 44.27 18.04 18.04 44.27 18.04Zm178-499q-15.92 0-27.75-11.5t-11.29-27.43q-.54-15.92 11.29-27.42 11.83-11.5 27.75-11.5 15.81 0 27.58 11.5 11.77 11.5 11.34 27.42.43 15.93-11.34 27.43t-27.58 11.5Zm49.12 499q-41.43 0-70.04-28.62-28.62-28.61-28.62-70.04 0-39.69 28.46-67.86 28.47-28.18 70.31-30.68 14.58-36 47.19-57.86 32.62-21.87 72.74-21.87 47.88 0 85.48 27.33 37.59 27.33 42.98 72.67h11.84q33.77 0 55.85 26.81t22.08 61.46q0 35.93-22.37 62.29-22.36 26.37-55.9 26.37h-260Z"/></svg>