<svg xmlns="http://www.w3.org/2000/svg" height="20" viewBox="0 -960 960 960" width="20"><path d="M266.35 1.52h62.39q25.96 0 39.72-23.45 13.76-23.46 2.06-48.42-7-17.56-10-36.35-3-18.78-3-37.21 0-67.52 36.63-121.79 36.63-54.26 98.02-78.52 21.13-40 56.07-67.78 34.93-27.78 81.37-39.48 21.26-4 41.8-4.5 20.55-.5 41.81 2.07 21.82 1 38.87-13.55 17.04-14.54 17.04-36.93v-88.78q-1-23.4-9.13-44.5-8.13-21.11-25.39-35.81L537.13-871.39q-17.83-17.26-38.15-24.89-20.33-7.63-41.15-7.63-22.96 0-44 8.34-21.05 8.35-38.44 24.18L184.04-673.04q-16.69 17.26-24.61 38.58-7.91 21.33-7.91 43.29v477.87q0 45.65 34.59 80.24Q220.7 1.52 266.35 1.52Zm192.48-554.61q-28.31 0-48.83-19.52t-18.52-47.82q-2-26.74 18.52-46.27 20.52-19.52 48.83-19.52 28.3 0 49.6 19.52 21.31 19.53 17.18 46.27 4.13 28.3-17.18 47.82-21.3 19.52-49.6 19.52ZM575.52 2.09q-61.65 0-103.82-42.74-42.18-42.74-42.18-103.26 0-51.39 31.35-90.72t82.74-51.15q18.26-48.13 60.24-74.13 41.98-26 95.24-26 61.95 0 109.48 33.43 47.52 33.44 55.26 88.26 44.69 12.52 71.19 49.35t26.5 83.52q0 55.09-40.45 94.26-40.46 39.18-93.55 39.18h-252Z"/></svg>