<svg xmlns="http://www.w3.org/2000/svg" height="40" viewBox="0 -960 960 960" width="40"><path d="M234.23-48.98h96.54q19.27 0 28.91-16.96t-.24-34.88q-8.94-18.88-13.19-38.95Q342-159.85 342-181.8q0-66.63 39.81-118.08 39.8-51.45 103.43-69.15 28.26-40.46 67.07-61.34 38.81-20.89 88.52-25.22 11.54-1.16 23.6-.62 12.06.54 24.83 1.98 18.05 1.2 31.92-10.09 13.86-11.28 13.86-28.8v-104.73q-.02-16.33-7.2-32.19-7.19-15.87-18.7-27.32L499.39-864.49q-12.7-12.7-27.78-18.87-15.08-6.18-31.06-6.18-16.83 0-32.18 6.43-15.36 6.42-28.79 18.62l-205.59 205.8q-12.68 12.52-18.53 28.47-5.85 15.96-5.85 31.77v465.41q0 33.87 25.19 58.96 25.19 25.1 59.43 25.1Zm208.12-560.25q-22.34 0-37.93-14.71t-14.15-37.21q-1.45-21.1 14.07-35.7 15.52-14.6 38.01-14.6 21.27 0 37.05 14.6 15.78 14.6 13.92 35.7 1.86 22.34-13.92 37.13-15.78 14.79-37.05 14.79Zm95.99 560.81q-55.67 0-94.34-38.78-38.67-38.77-38.67-94.6 0-50.93 33.71-88.14 33.7-37.2 85.28-43.39 19.66-37.65 55.63-59.4t79.38-21.75q53.4 0 97.76 26.09 44.35 26.09 51.69 75.23h3.34q44.03 4.9 71.46 40.47 27.44 35.57 27.44 81.46 0 50.69-32.6 86.75-32.59 36.06-80.08 36.06h-260Z"/></svg>