<svg xmlns="http://www.w3.org/2000/svg" height="40" viewBox="0 -960 960 960" width="40"><path d="M223-26.67h134.33q18.67 0 28-16.33 9.34-16.33 0-34.67-8.33-18-12.16-37.33-3.84-19.33-3.84-40.67 0-66 39.84-117.66 39.83-51.67 102.5-69 23.66-33.34 57.66-55.17T646-426q12-2 24.67-2.67 12.66-.66 25.33-.66 17 .33 29.83-10.34 12.84-10.66 12.84-27.33v-135.33q-.67-15.67-7.34-31.84-6.66-16.16-19-27.83L496-877q-12.67-12-28.17-18.17-15.5-6.16-30.83-6.16-16.67 0-32.33 6.33-15.67 6.33-28 18L162-661.67q-12.33 12.34-18.17 28.34-5.83 16-5.83 31.33v490.33q0 35 25 60t60 25Zm215.33-568.66q-26.66 0-45.5-18.17-18.83-18.17-18.16-44.83-.67-26 18.16-44.5 18.84-18.5 45.5-18.5 26 0 45.17 18.5t17.83 44.5q1.34 26.66-17.83 44.83-19.17 18.17-45.17 18.17ZM565-26.67q-54.67 0-91.83-37.16Q436-101 436-155.67q0-49.66 33.67-86.16 33.66-36.5 84-41.5 18.33-37.34 53.66-59Q642.67-364 685.67-364q51 0 92.66 25.83Q820-312.33 832-265h1.33q44 2.67 72 38t28 81.33q0 48.67-31.16 83.84Q871-26.67 825-26.67H565Z"/></svg>