<svg xmlns="http://www.w3.org/2000/svg" height="48" viewBox="0 -960 960 960" width="48"><path d="M536.92-346.39q21.93-22.42 20.83-53.63-1.1-31.21-26.83-47.48-78.77-49.96-158.94-106.81-80.17-56.84-156.94-110.19 52.15 77.58 109.54 157.56Q381.96-426.96 434-350.39q17.27 25.74 48.38 26.39 31.12.65 54.54-22.39ZM166.04-183.27q-31.62-56.04-46.94-103.88-15.33-47.85-15.52-113.31-.69-77.42 30.11-145.52 30.81-68.1 82.52-119.6 51.71-51.5 120.35-81.42 68.63-29.92 145.06-29.92 77.84 0 146.13 29.9 68.29 29.91 119.23 81.12 50.94 51.21 80.44 119.79 29.5 68.57 29.5 146.42 0 64.15-17.08 113.23-17.07 49.07-46.57 103.19H166.04Z"/></svg>