<svg xmlns="http://www.w3.org/2000/svg" height="20" viewBox="0 -960 960 960" width="20"><path d="M530-362q14-15 13.5-41T523-438q-81-45-150-101.5T232-651q54 72 111.5 143.5t108.26 140.35q15.33 19.08 37.28 21.12Q511-344 530-362ZM157-212q-25-48-31-81.5t-8-86.19Q116-432 128-482t40-93l33 31q-22 38-30 79.3t-8 84.21q0 33.02 5 63.25Q173-287 182.05-257H777q10-31 16-60.72t6-62.5q0-133.45-92.95-228.12Q613.09-703 479-703q-32.89 0-63.94 5Q384-693 354-679l-39-33q37.72-18.18 80.36-27.09t83.57-8.91q76.48 0 143.27 29 66.8 29 115.3 78T815-524.9q29 67.1 29 142.9 0 54.2-9.5 89.1Q825-258 799-212H157Zm336-185Z"/></svg>