<svg xmlns="http://www.w3.org/2000/svg" height="20" viewBox="0 -960 960 960" width="20"><path d="M533.83-355.74q23-23 21.78-55.85-1.22-32.84-27.78-50.71-83.22-57-161.83-109.37Q287.39-624.04 206.87-680q55.52 80.96 108.39 160.63t111.33 158.48q19.24 26.15 50.74 27.65 31.5 1.5 56.5-22.5ZM139.7-172.78Q105.74-233 91.83-274.04q-13.92-41.05-14.48-111.39-.57-64.53 18.5-126.27 19.06-61.74 58.89-113.56l60.52 87.04q-21.3 35.31-30.89 74.94-9.59 39.64-9.59 79.85 0 29.26 5.66 57.43 5.65 28.18 14.95 55.78h569.09q9.87-28.43 15.3-56.12 5.44-27.69 5.44-57.09 0-127.42-89.48-216.6-89.48-89.19-217.31-89.19-30.9 0-60.56 5.37-29.65 5.37-57.52 18.24l-92.18-62.52q47.11-29.57 100.61-44.05 53.49-14.47 109.65-14.47 84.13 0 157.61 31.45 73.49 31.45 128.14 85.95 54.65 54.51 86.56 127.43 31.91 72.91 31.91 156.39 0 71.21-14.76 111.67-14.76 40.46-48.59 100.98H139.7ZM482.83-406.3Z"/></svg>