<svg xmlns="http://www.w3.org/2000/svg" height="20" viewBox="0 -960 960 960" width="20"><path d="M537-356q21.5-22 20.75-55T531-458.5Q443-511 363.75-568.25T202.5-683.5Q261-602 318.75-521.25t114.9 160q18.35 25.25 48.6 27T537-356ZM137.31-167.5Q101-231 88-271.5T73.5-386Q72-453.5 91.25-518t61.25-117.5L224-537q-21.5 34-30 73.23-8.5 39.23-8.5 79.77 0 26.66 4 52.81 4 26.16 12 51.69H757q9-27.5 13.5-52.65T775-384q0-123.18-86.7-209.09Q601.59-679 478-679q-30.15 0-59.07 4.25Q390-670.5 362.5-656.5l-104-73.5q49.26-31.7 105.19-46.35Q419.63-791 478-791q84.73 0 159.43 31.56 74.69 31.57 129.88 86.5Q822.5-618 854.75-544.07T887-386.21q0 73.58-15.5 115.39Q856-229 821.5-167.5H137.31ZM488-405Z"/></svg>