<svg xmlns="http://www.w3.org/2000/svg" height="48" viewBox="0 -960 960 960" width="48"><path d="M545.87-337.7q25-25.43 24.78-61.58-.22-36.15-31.52-55.84-88.7-52.88-177.47-116.01-88.78-63.13-175.49-122.13 58.13 88 121.26 177.06 63.14 89.07 119.27 174.5 19.03 30.39 55.31 30.92 36.27.52 63.86-26.92ZM139.9-141.17q-39.16-67.57-58.73-122.13-19.56-54.57-19.56-134-.44-67.4 19.22-130.53 19.65-63.13 62.34-117.13l54.35 71.61q-29.87 39.44-41.52 84.27-11.65 44.84-11.65 91.16 0 45.69 10.15 90.33t35.72 83.81h579.5q23.5-39.87 35.21-84.26 11.72-44.39 11.72-90.41 0-139.72-97.52-238.96-97.52-99.24-238.33-99.24-47.26 0-91.96 14.52-44.69 14.52-84.75 40.22l-74.61-51.35q54.13-41.57 118.99-63.57 64.87-22 133.15-22 86.2 0 162.39 33.07 76.2 33.08 132.72 90.29 56.53 57.21 89.31 134.02 32.79 76.8 32.79 163.88 0 76.83-21.68 133.52-21.67 56.69-57.85 122.88H139.9Zm348.67-251.96Z"/></svg>