<svg xmlns="http://www.w3.org/2000/svg" height="24" viewBox="0 -960 960 960" width="24"><path d="M538.2-344.04q24.5-25 22.87-58.86-1.64-33.86-28.87-52.88-81.63-57.5-166.2-113.52-84.57-56.03-166.48-111.7 55.41 82.17 111.44 166.48 56.02 84.3 113.12 166.38 19.12 28.1 53.87 28.85t60.25-24.75ZM157.53-161.37q-35.99-64.13-56.08-116.71-20.1-52.57-19.84-128.68.26-57.41 17.75-111.71 17.49-54.29 49.68-102.49l52.92 79.83q-17.79 31.28-26.19 65.9-8.4 34.61-8.4 70.47 0 42.18 10.14 82.2t32.42 75.43h540.16q20.52-35.26 31.28-73.92 10.76-38.66 10.76-79.71 0-129.55-91.41-220.46-91.42-90.91-220.96-90.91-37.04 0-72.59 8.27-35.54 8.27-67.56 25.79l-79.81-52.91q48.98-32.95 104.59-49.93 55.61-16.98 115.37-16.98 82.21 0 154.7 31.11t126.61 85.18q54.13 54.06 85.47 126.33 31.35 72.27 31.35 154.3 0 74.21-20.46 125.7-20.45 51.49-55.15 113.9H157.53ZM483.2-397.28Z"/></svg>