<svg xmlns="http://www.w3.org/2000/svg" height="20" viewBox="0 -960 960 960" width="20"><path d="M536-354q23-23 22-56.5T530-461q-88-57-169-113.5T196-690q59 84 116 166.5t116.76 164.35Q448-333 479.5-331.5 511-330 536-354ZM131-158q-37-65-52-108T63-385q-1-68 18.5-133T143-637l74 104q-20 34-28.5 72.48Q180-422.04 180-383q0 27.53 5 54.5t13 53.5h563q9-28 14-54.13 5-26.13 5-53.87 0-125.67-87.95-213.34Q604.09-684 478-684q-29.12 0-57.06 4.5T366-663l-110-76q49.72-32.18 106.17-47.09Q418.63-801 478-801q87.23 0 163.43 32.56 76.19 32.57 132.88 89Q831-623 864-547.32T897-385q0 76-16.5 119.5T828-158H131Zm354-247Z"/></svg>