<svg xmlns="http://www.w3.org/2000/svg" height="24" viewBox="0 -960 960 960" width="24"><path d="M528.31-353q19.07-19.08 17.46-45.77-1.62-26.69-23.46-42.54-72.85-53.54-148.62-106.92-75.77-53.39-148.54-105.31 51.7 73 105.85 148.66Q385.15-429.23 438-357q16.15 22.08 43.31 22.96 27.15.89 47-18.96Zm-350 153q-28.08-51.46-43.43-98.15-15.34-46.7-15.11-106.31 0-73.85 29.27-138.81 29.27-64.96 78.61-113.19 49.35-48.23 114.81-75.89Q407.92-760 480-760q74.54 0 140.12 28.42 65.57 28.43 114.3 77.16 48.73 48.73 77.16 114.3Q840-474.54 840-400q0 58.62-15.88 103.96-15.89 45.35-43.97 96.04H178.31Z"/></svg>