<svg xmlns="http://www.w3.org/2000/svg" height="20" viewBox="0 -960 960 960" width="20"><path d="M527.96-364.62q18.42-18.92 17.27-46.76-1.15-27.85-23.27-41.85-73.92-49.04-143.34-96.79-69.43-47.75-139.2-97.59 49.16 70.07 97.89 140.19 48.73 70.11 100.73 137.8 16.27 21.73 42.38 23.58 26.12 1.85 47.54-18.58ZM167.5-219.77q-26.23-46.92-34.04-79.75-7.8-32.83-8.5-86.52-.19-74.81 27.23-139.48 27.43-64.67 75.64-112.42t112.98-74.87q64.77-27.11 138.19-27.11 73.85 0 139.08 27.65 65.23 27.66 113.23 75.56 48 47.9 76.3 112.48 28.31 64.58 28.31 137.42 0 55.39-9.38 87.35-9.39 31.96-35.62 79.69H167.5Z"/></svg>