<svg xmlns="http://www.w3.org/2000/svg" height="48" viewBox="0 -960 960 960" width="48"><path d="M531.35-351.77q18.84-19.35 17.65-46.52-1.19-27.17-23.65-41.71-74.54-48.42-150.39-104.12Q299.12-599.81 226.58-652q50.8 73.15 107.32 148.62 56.52 75.46 107.6 147.61 15.54 22.46 42.52 23.02 26.98.56 47.33-19.02ZM177.58-201.54q-28.73-50.08-42.14-95.52-13.4-45.44-13.79-104.36-.88-74.35 28.48-138.79 29.37-64.44 78.29-113.44 48.93-49 114.2-77.1 65.26-28.1 138.61-28.1 74.19 0 139.02 28.56 64.83 28.56 113.46 76.98 48.64 48.43 76.89 113.83t28.25 139.6q0 57.8-15.16 103.71-15.15 45.9-42.15 94.63H177.58Z"/></svg>