<svg xmlns="http://www.w3.org/2000/svg" height="40" viewBox="0 -960 960 960" width="40"><path d="M545.39-336.84q25.52-25.77 24.88-62.18-.65-36.41-31.52-56.2-90.03-55.59-179.85-119.19-89.82-63.6-178.19-123.98 59.51 89.38 122.94 179.72 63.44 90.35 121.57 177.83 19.55 30.39 56.09 30.91 36.55.52 64.08-26.91ZM136.47-134.15q-40.05-69.98-61.04-126.23-21-56.26-21-138.58-.28-66.78 19.06-129.36 19.34-62.58 60.03-116.62l61.86 84.82q-25.02 36.73-35.08 77.83-10.05 41.11-10.05 83.36 0 44.64 10.15 87.79 10.15 43.14 34.01 81.46h570.95q22.15-38.87 33.6-81.29 11.46-42.41 11.46-86.96 0-137.5-95.93-235-95.92-97.49-234.14-97.49-42.96 0-83.73 12.23-40.78 12.24-77.97 34.32l-87.49-59.85q53.98-40.28 118.02-61.11 64.03-20.84 131.67-20.84 87.98 0 165.42 33.66 77.45 33.65 135.05 91.82 57.59 58.18 90.97 136.23 33.38 78.05 33.38 166.73 0 79.92-22.66 137.56-22.66 57.65-60.43 125.52H136.47Zm350.95-258.79Z"/></svg>