<svg xmlns="http://www.w3.org/2000/svg" height="24" viewBox="0 -960 960 960" width="24"><path d="M544.76-334.48Q571-361.24 569.5-398.5q-1.5-37.26-31.5-57.26-91.72-61-182.82-124.08-91.09-63.07-181.81-125.55 60.96 91.48 123.53 183.57 62.58 92.1 124.06 183.34 20.88 30.7 58.46 31.23 37.58.53 65.34-27.23ZM131.57-124.65q-40.2-73.2-63.56-132.18-23.36-58.97-23.36-145.14 0-64.23 18.88-124.56 18.88-60.34 54.6-113.82l70.02 102.46q-16.28 32.28-23.8 67.09t-7.52 70.12q0 44.25 10.64 85.46 10.64 41.22 31.4 78.63h562.02q19.76-37.52 31.02-77.16 11.26-39.64 11.26-82.75 0-135.21-94.04-230.94-94.04-95.73-229.37-95.73-35.67 0-69.9 8.14-34.23 8.14-65.99 23.66l-104.46-70.02q52.72-36.72 114.01-55.22 61.29-18.5 126.25-18.5 90.62 0 169.76 34.64 79.15 34.63 138.18 94.09 59.02 59.47 93.26 139.41 34.24 79.95 34.24 170.73 0 84.43-23.98 143.03-23.98 58.6-63.81 128.56H131.57Zm352.91-267.59Z"/></svg>