<svg xmlns="http://www.w3.org/2000/svg" height="48" viewBox="0 -960 960 960" width="48"><path d="M542.5-341q25-25.5 24-60.75t-30.31-53.37Q453.5-506.5 369.07-564.5q-84.43-58-165.57-112.5 53.5 82 111.75 166.5t111.14 165.41q19.11 29.09 54.36 29.84T542.5-341ZM154.77-165Q120-227 102.75-277.25T85.5-399.5q-.5-62.5 19.25-121t58.25-109l37.5 49.5Q169-541.5 156-494.75t-13 95.25q0 47.29 10.75 92.65Q164.5-261.5 190-222.5h580q24-40 35.75-85.09 11.75-45.1 11.75-91.91 0-140.01-97.75-239-97.75-99-237.75-99-50.53 0-97.45 14.84T296.5-680l-51-33.5q50.54-39.52 110.93-60.51Q416.83-795 482-795q81.5 0 153.25 31.25t125 85.25q53.25 54 84 125.75T875-399.71q0 70.58-19 122.89Q837-224.5 805-165H154.77ZM486.5-395Z"/></svg>