<svg xmlns="http://www.w3.org/2000/svg" height="24" viewBox="0 -960 960 960" width="24"><path d="M532.96-349.62q21.42-21.92 19.77-51.76-1.65-29.85-25.77-46.85-75.92-54.04-154.84-107.79-78.93-53.75-154.7-106.59 52.16 76.07 106.39 154.69 54.23 78.61 108.11 154.2 17.39 24.83 48 25.68 30.62.85 53.04-21.58ZM172.25-187.77q-30.98-55.92-47.79-104.25-16.8-48.33-16.5-114 .12-49.82 14.29-96.99 14.17-47.18 40.37-90.33l35.5 50.88q-17.74 32-25.97 66.77-8.23 34.77-8.23 70.88 0 43.34 10.21 84.21 10.22 40.87 33.43 76.87h545.16q21.05-35.5 32.15-75.2 11.09-39.7 11.09-81.86 0-131.1-92.44-223.14-92.44-92.03-223.52-92.03-37.83 0-73.93 8.46-36.11 8.46-68.8 25.88l-51.15-34.73q43.88-26.89 92.86-41.23 48.98-14.34 101.02-14.34 77.02 0 144.66 29.15 67.65 29.16 118.15 79.56 50.5 50.4 79.8 117.89 29.31 67.5 29.31 144.33 0 64.43-17.35 111.47-17.34 47.04-47.65 101.75H172.25ZM484.5-396.08Z"/></svg>