<svg xmlns="http://www.w3.org/2000/svg" height="24" viewBox="0 -960 960 960" width="24"><path d="M541.15-339q22.54-23.54 21.23-57.38-1.3-33.85-28.23-50.77-87.92-56.77-173.8-118.96-85.89-62.2-171.27-122.66 58.84 86 120.92 173.08Q372.08-428.62 430-343q19.08 27.54 52.65 28.23 33.58.69 58.5-24.23Zm-397 191q-35.53-66.23-55.46-121.08-19.92-54.84-20.3-132.15 0-84.92 32.88-159.65 32.89-74.73 88.81-130.35 55.92-55.61 131.15-88.19T480-812q85.77 0 160.81 32.96t130.65 89.08q55.62 56.11 88.08 132.15T892-396q0 75.31-21.19 130.23-21.2 54.92-56.73 117.77H144.15Z"/></svg>