<svg xmlns="http://www.w3.org/2000/svg" height="48" viewBox="0 -960 960 960" width="48"><path d="M544.76-339.3q24.44-25.5 24-61.32-.43-35.81-30-53.25-87.52-51.5-174.56-113.46-87.05-61.95-171.44-119.28 56.89 84.83 119.1 172.15 62.21 87.33 116.9 171.16 18.44 29 53.97 29.75t62.03-25.75ZM146.02-150.87q-37.32-65.96-55.71-118.18-18.38-52.23-18.94-129.88-.5-84.46 32.6-159.04 33.09-74.57 89.01-130.27 55.91-55.7 130.45-88.29 74.55-32.6 158-32.6 84.33 0 158.91 32.38 74.57 32.38 129.8 88.08 55.23 55.69 87.11 130.55 31.88 74.86 31.88 159.19 0 74.45-20.69 129.81-20.7 55.36-54.96 118.25H146.02Z"/></svg>