<svg xmlns="http://www.w3.org/2000/svg" height="40" viewBox="0 -960 960 960" width="40"><path d="M535.6-347.59q21.76-22.13 20.48-52.88-1.29-30.76-26.67-47.31-77.63-51.28-157.34-107.1-79.71-55.81-156.24-108.99 52.16 77.08 108.49 156.6 56.33 79.53 108.91 155.71 17.39 25.5 48.33 26.21 30.95.72 54.04-22.24ZM168.25-184.77q-31.54-56-47.36-103.95-15.82-47.94-15.85-113.59-.3-53.19 15.03-103.34 15.33-50.16 45.49-95.13l31.71 41.24q-23.83 35.05-34.09 75.44-10.26 40.38-10.26 81.93 0 45.4 10.51 88.71 10.51 43.32 34.87 80.81h563.6q22.54-37.73 34-80.31 11.47-42.58 11.47-87.08 0-135.84-95.21-231.59-95.21-95.74-231.08-95.74-43.86 0-85.12 11.49-41.27 11.5-77.92 33.42l-42.33-29.04q45.63-30.69 97.72-47.22 52.09-16.54 107.65-16.54 77.59 0 145.65 29.66 68.06 29.65 118.86 80.59 50.79 50.95 80.23 119.1 29.44 68.16 29.44 145.67 0 64.27-17.15 112.72-17.14 48.45-46.96 102.75h-622.9Zm318.22-209.82Z"/></svg>