<svg xmlns="http://www.w3.org/2000/svg" height="40" viewBox="0 -960 960 960" width="40"><path d="M545.39-336.84q25.52-25.77 24.88-62.18-.65-36.41-31.31-56.12-90.24-55.67-180.1-119.27-89.87-63.6-178.15-123.98 59.51 89.38 122.94 179.72 63.44 90.35 121.57 177.83 19.39 30.43 56.06 30.93 36.68.5 64.11-26.93ZM136.16-134.15q-39.74-69.98-60.73-126.23-21-56.26-21-138.85-.66-88.07 33.62-165.59 34.28-77.51 92.75-135.53 58.48-58.03 135.97-91.67 77.49-33.65 164-33.65 88.27 0 165.62 33.6 77.35 33.59 134.94 91.82 57.58 58.24 90.96 136.49 33.38 78.25 33.38 166.53 0 79.65-22.59 137.45-22.59 57.79-60.24 125.63H136.16Z"/></svg>