<svg xmlns="http://www.w3.org/2000/svg" height="40" viewBox="0 -960 960 960" width="40"><path d="M530.54-352.59q18.68-19.18 17.36-46.03-1.31-26.84-23.36-41.37-73.98-49.14-149.41-104.18-75.42-55.05-147.63-107.07 50.81 72.65 106.72 147.78 55.92 75.14 107.14 146.87 15.54 22.13 42.35 22.81 26.82.69 46.83-18.81ZM179.22-203.04q-28.48-50.16-42.12-95.51-13.64-45.35-13.86-104.09-.71-73.94 28.39-138.1 29.11-64.16 77.87-112.57 48.76-48.42 113.7-76.15 64.94-27.72 137.62-27.72 73.86 0 138.56 28.31 64.71 28.31 113.13 76.52 48.43 48.22 76.55 113.29 28.12 65.07 28.12 138.93 0 57.63-15.19 102.96-15.19 45.32-42.18 94.13H179.22Z"/></svg>