<svg xmlns="http://www.w3.org/2000/svg" height="40" viewBox="0 -960 960 960" width="40"><path d="M527.5-355.67Q544.33-373 543-397.5q-1.33-24.5-21.5-37.83-71.67-47.84-144.5-102.42T234.5-643.67q50 70 105.67 142.5 55.66 72.5 106 141.5 14.5 20.17 38.83 20.84 24.33.66 42.5-16.84ZM185.83-214q-26.66-46.67-39-90.42-12.33-43.75-12.66-98.41-.84-72.17 27.33-134.25 28.17-62.09 75.25-109 47.08-46.92 110.08-73.59 63-26.66 133.84-26.66 71.66 0 134.33 27.5 62.67 27.5 109.67 74.08T799-535q27.33 63.17 27.33 134.83 0 53.67-14 97.17T773-214H185.83Z"/></svg>