<svg xmlns="http://www.w3.org/2000/svg" height="48" viewBox="0 -960 960 960" width="48"><path d="M545.87-337.7q25-25.43 24.78-61.58-.22-36.15-31.22-55.72-89-53-177.84-116.13-88.85-63.13-175.42-122.13 58.13 88 121.26 177.06 63.14 89.07 119.27 174.5 18.87 30.44 55.3 30.94 36.43.5 63.87-26.94ZM139.43-141.17q-38.69-67.57-58.26-122.13-19.56-54.57-19.56-134.27-1-86.69 32.78-163.26 33.78-76.56 91.57-134.06 57.78-57.5 134.06-90.72t161.41-33.22q86.57 0 162.64 33 76.06 33 132.63 90.29 56.56 57.28 89.34 134.34 32.79 77.07 32.79 163.63 0 76.57-21.57 133.42-21.56 56.85-57.69 122.98H139.43Z"/></svg>