<svg xmlns="http://www.w3.org/2000/svg" height="40" viewBox="0 -960 960 960" width="40"><path d="M533.67-349.67Q550-367 549.33-394q-.66-27-22.66-39.67-79.67-48-156.5-108.5-76.84-60.5-152.17-116.5 55 76 116 153.34Q395-428 446.67-353.67q15.33 22 41.16 22.67 25.84.67 45.84-18.67Zm-364.34 159q-29.33-53-43-100.33-13.66-47.33-14.66-109-.67-77.33 28.5-144.5 29.16-67.17 79.16-117.5T337-740.83q67.67-28.5 143.67-28.5 76.33 0 143.5 29.5 67.16 29.5 116.83 79.33t79 118.33q29.33 68.5 29.33 144.84 0 59.66-16.16 107.66-16.17 48-44.84 99h-619Z"/></svg>