<svg xmlns="http://www.w3.org/2000/svg" height="40" viewBox="0 -960 960 960" width="40"><path d="M540.67-342.33q24.83-25.34 23.58-60Q563-437 534.67-455.5 453-509 368.92-565.58q-84.09-56.59-164.75-110.92 53.5 81.5 110.25 165.42 56.75 83.91 110.91 164.75 19 28.66 54.09 29.41 35.08.75 61.25-25.41ZM157.17-166.5q-34.5-61.83-52.5-112.5T86.83-402q-.33-79.83 31.92-150.92Q151-624 205.33-677.42q54.34-53.41 125.75-84.66 71.42-31.25 150.25-31.25 81.17 0 152.67 31 71.5 31 124.67 84.66 53.16 53.67 83.91 125.09 30.75 71.41 30.75 152.58 0 70.83-19.16 122.25Q835-226.33 802.5-166.5H157.17Z"/></svg>