<svg xmlns="http://www.w3.org/2000/svg" height="20" viewBox="0 -960 960 960" width="20"><path d="M540-349q23-24 22-59.5T533-461q-89-56-170-112T198-688q57 85 113 168t114.76 165.85q20.33 28.08 53.78 29.62Q513-323 540-349ZM128-160q-34-63-48-106T65-381.73Q64-449 84-513q20-64 61-118l60 85q-23 38-33 80.3t-10 85.21q0 33.02 6 63.25Q174-287 183-257h594q10-31 16-60.72t6-62.5q0-133.45-92.95-228.12Q613.09-703 479-703q-32.89 0-64.44 6Q383-691 354-677l-91-62q47.72-30.18 103.36-45.59Q422-800 478.93-800q87.03 0 163.05 33Q718-734 774-677.5q56 56.5 89 132.82T896-382q0 74.2-15.5 117.1Q865-222 830-160H128Zm357-242Z"/></svg>