<svg xmlns="http://www.w3.org/2000/svg" height="20" viewBox="0 -960 960 960" width="20"><path d="M533.2-359.04q21.5-22 20.37-53.86-1.14-31.86-26.37-47.88-79.63-52.5-154.7-102.52-75.07-50.03-150.98-102.7 52.41 76.17 102.94 151.98 50.52 75.8 105.38 149.73 18.36 25.25 48.61 27t54.75-21.75ZM152.53-193.37q-30.99-55.13-42.08-92.21-11.1-37.07-11.84-101.18-.74-61.41 17.75-120.21 18.49-58.79 56.68-107.99l47.92 68.83q-23.79 36.28-34.19 77.53-10.4 41.25-10.4 83.84 0 29.7 5.14 57.96t15.42 55.67h566.16q10.52-28.26 15.78-56.14 5.26-27.89 5.26-57.49 0-126.23-89.37-214.8-89.37-88.57-216-88.57-33.28 0-65.2 5.77-31.93 5.77-60.95 21.29l-72.81-49.91q44.7-27.13 95.45-41.02 50.75-13.89 103.51-13.89 79.3 0 149.24 29.61 69.95 29.61 121.57 81.18 51.63 51.56 81.97 120.65 30.35 69.09 30.35 147.48 0 65.21-12.46 101.7-12.45 36.49-43.15 91.9H152.53ZM484.2-407.28Z"/></svg>