<svg xmlns="http://www.w3.org/2000/svg" height="48" viewBox="0 -960 960 960" width="48"><path d="M536.23-347.54q18.08-19.08 17.58-48t-24.58-43.31q-80.54-48.38-159.31-108.46-78.77-60.07-155.54-116 54.7 78 115.16 156.89Q390-427.54 441.92-351.54q16.16 24.08 44.31 24.58 28.15.5 50-20.58ZM165.38-184q-30.84-54.69-45.23-102.92-14.38-48.23-15.15-112.39-1-78.07 29.04-146.38t81.38-120.04q51.35-51.73 120.04-81Q404.15-776 481.23-776q77.54 0 145.73 29.92 68.19 29.93 118.81 80.77 50.61 50.85 80.42 120.43Q856-475.31 856-397.77q0 62.15-16.77 111.23-16.77 49.08-46.38 102.54H165.38Z"/></svg>