<svg xmlns="http://www.w3.org/2000/svg" height="20" viewBox="0 -960 960 960" width="20"><path d="M539.43-350.13Q563-373.57 562-408.5q-1-34.93-29-51.93-90.7-56-173.11-114.55-82.41-58.54-168.11-118.67 59.26 86.13 117.81 170.54 58.54 84.41 118.43 167.83 19.84 27.54 52.41 29.06 32.57 1.52 59-23.91ZM124.61-152.09q-36.83-65.82-51.68-109.95-14.84-44.13-15.84-120.26-1-69.53 18.71-135.5 19.72-65.98 62.42-121.11l71.87 100.26q-21.31 36.3-30.18 76.58-8.87 40.27-8.87 81.13 0 30.08 5.16 58.47 5.15 28.39 13.58 56.99h579.87q9.44-29.87 14.87-57.56 5.44-27.69 5.44-57.84 0-129.75-90.7-221.41-90.69-91.67-220.83-91.67-30.56 0-59.89 5.16-29.32 5.15-57.76 18.02l-106.26-73.87q49.42-31.88 106.93-47.29 57.51-15.41 116.87-15.41 88.61 0 166.02 33.32 77.4 33.32 134.64 90.91 57.24 57.6 90.8 134.97 33.57 77.37 33.57 165.58 0 77.11-16.63 121.67-16.63 44.55-53.59 108.81H124.61Zm361.52-250.48Z"/></svg>