<svg xmlns="http://www.w3.org/2000/svg" height="24" viewBox="0 -960 960 960" width="24"><path d="M126.15-292.12q-14.34 0-24.19-9.84-9.84-9.85-9.84-24.19v-307.7q0-14.34 9.84-24.28 9.85-9.95 24.19-9.95h461.04q11.66 0 19.87 8.22 8.21 8.21 8.21 19.86 0 11.65-8.21 19.77-8.21 8.11-19.87 8.11H388.08v264.04h177.61q11.66 0 19.87 8.22 8.21 8.21 8.21 19.86 0 11.65-8.21 19.77-8.21 8.11-19.87 8.11H126.15Zm583.2-154.23h-90.62q-10.84 0-15.71-9.25-4.86-9.25 1.67-17.67l119.89-166.92q3.84-4.35 8.4-5.16 4.56-.8 8.62.81 4.05 1.62 7.03 5.68 2.98 4.05 1.56 9.63l-19.54 115.38h90.81q10.65 0 15.52 9.35 4.86 9.35-1.48 17.58L715.42-320q-3.84 4.54-8.4 5.35-4.56.8-8.62-.81-4.05-1.62-7.03-5.68-2.98-4.05-1.37-9.82l19.35-115.39Z"/></svg>