<svg xmlns="http://www.w3.org/2000/svg" height="48" viewBox="0 -960 960 960" width="48"><path d="M126.15-298.42q-11.49 0-19.61-8.12t-8.12-19.61v-307.7q0-11.49 8.12-19.95 8.12-8.47 19.61-8.47h454.31q9.8 0 16.03 6.24 6.24 6.24 6.24 16.04 0 9.8-6.24 15.68-6.23 5.89-16.03 5.89H382.27v276.15h178.42q9.8 0 16.04 6.24 6.23 6.24 6.23 16.04 0 9.8-6.23 15.68-6.24 5.89-16.04 5.89H126.15Zm590.62-154.23h-91.73q-9.68 0-13.4-7.47-3.72-7.46 1.61-14.72L718.77-621q3.04-4.11 6.95-5.11 3.92-1 8 .76 4.09 1.77 5.68 5.39 1.6 3.61 1.68 8.15l-17.85 103.77h92.42q8.99 0 12.71 7.81 3.72 7.81-.91 14.38L721.23-339.5q-3.04 4.61-7 5.11t-7.94-1.01q-3.98-1.52-5.64-4.89-1.65-3.36-1.03-8.6l17.15-103.76Z"/></svg>