<svg xmlns="http://www.w3.org/2000/svg" height="48" viewBox="0 -960 960 960" width="48"><path d="M136-309.5q-11.47 0-18.99-7.51-7.51-7.51-7.51-18.99v-288q0-11.47 7.51-19.49 7.52-8.01 18.99-8.01h446q5.47 0 8.49 3.02 3.01 3.02 3.01 8.5t-3.01 7.98q-3.02 2.5-8.49 2.5H371.5v298H565q5.47 0 8.49 3.02 3.01 3.02 3.01 8.5t-3.01 7.98q-3.02 2.5-8.49 2.5H136Zm594-145h-86.5q-9.17 0-12.83-7-3.67-7 .57-13.89L708-609q1.5-3.5 4.88-4.5t6.4.39q3.02 1.4 4.37 4 1.35 2.61 2.35 5.61l-16 97h87.5q8.17 0 11.83 7.5 3.67 7.5.43 13.39L732-351.5q-1.5 4-5 4.5t-6.25-.25q-2.75-.75-4.25-3.5t-1.5-6.75l15-97Z"/></svg>