<svg xmlns="http://www.w3.org/2000/svg" height="24" viewBox="0 -960 960 960" width="24"><path d="M120-263.41q-23.43 0-40.01-16.58T63.41-320v-320q0-23.43 16.58-40.01T120-696.59h427.54q23.44 0 40.01 16.58 16.58 16.58 16.58 40.01t-16.58 40.01q-16.57 16.58-40.01 16.58H416.59v206.82h102q23.43 0 40.01 16.58 16.57 16.58 16.57 40.01t-16.57 40.01q-16.58 16.58-40.01 16.58H120Zm555.7-160h-91.29q-17.95 0-26.05-15.96-8.1-15.96 3.62-29.91l175.45-219.37q7.48-8.48 16.7-9.98 9.22-1.5 17.58 2.5 8.36 4 13.21 11.22 4.86 7.21 2.86 18.69L764.3-536.59h91.29q17.95 0 26.05 15.96 8.1 15.96-3.62 29.91L702.57-271.35q-7.48 8.48-16.7 9.98-9.22 1.5-17.58-2.5-8.36-4-13.21-11.22-4.86-7.21-2.86-18.69l23.48-129.63Z"/></svg>