<svg xmlns="http://www.w3.org/2000/svg" height="24" viewBox="0 -960 960 960" width="24"><path d="M132.31-301.73q-13.19 0-21.89-8.69-8.69-8.7-8.69-21.89v-295.38q0-13.19 8.69-22.08 8.7-8.88 21.89-8.88h455.07q7.81 0 13.24 5.42 5.42 5.42 5.42 13.23 0 7.81-5.42 13.04-5.43 5.23-13.24 5.23H378.65v283.08h189.73q7.81 0 13.24 5.42 5.42 5.42 5.42 13.23 0 7.81-5.42 13.04-5.43 5.23-13.24 5.23H132.31Zm588.38-148.46h-87.73q-9.69 0-14.17-8t1.09-15.85l100.27-158.84q2.7-3.2 5.81-3.81 3.12-.62 5.73.61 2.62 1.23 4.83 3.85 2.21 2.61 1.36 6.27l-18.57 115.77h88.11q9.31 0 13.79 8.19 4.48 8.19-.71 15.65L719.85-327.5q-2.7 3.58-5.81 4.19-3.12.62-5.73-.61-2.62-1.23-4.83-3.85-2.21-2.61-.98-6.65l18.19-115.77Z"/></svg>