<svg xmlns="http://www.w3.org/2000/svg" height="48" viewBox="0 -960 960 960" width="48"><path d="m365.59-369 30.03-28.74-41.74-40.83h110.25q45.74 0 77.81-32.4Q574-503.37 574-548.65q0-46.43-32.77-78.39T463.3-659H294v40.35h170.87q27.8 0 47.96 20.95Q533-576.75 533-549q0 30-20.23 50-20.24 20-48.14 20H354.68l40.44-41.84L366-548l-87 89 86.59 90ZM252.54-139q-41.54 0-76.94-23.19-35.4-23.2-55.6-60.81H-21v-345h125.4L184-802h423l125.33 212.18L982-568v345H840q-19 38-54.01 61-35 23-78 23-42.99 0-77.49-23.19Q596-185.39 575-223H385q-20.19 37.61-56.06 60.81Q293.07-139 252.54-139Z"/></svg>