<svg xmlns="http://www.w3.org/2000/svg" height="40" viewBox="0 -960 960 960" width="40"><path d="m367.19-365.55 33.73-33.13-36.08-36.57h99.6q46.33 0 78.94-32.69 32.61-32.7 32.61-79.39 0-47.3-32.52-80.2-32.52-32.9-79.11-32.9H292.22v47.44h172.54q26.64 0 45.22 19.22 18.59 19.21 18.59 46.4 0 26.91-18.56 45.81-18.55 18.89-45.21 18.89h-99.79l35.76-36.79-33.42-33.19-92.47 93.88 92.31 93.22ZM253.9-144.17q-42.09 0-76.88-23.03-34.79-23.02-53.79-60.13H-15.83v-338.64h123.96L188.7-796.2h416.08l124.2 209.63 247.22 20.5v338.58H836.65q-19.07 37.56-53.74 60.44-34.66 22.88-77 22.88t-76.95-23.03q-34.6-23.02-54.05-60.29H384.9q-19.07 37.56-54 60.44-34.92 22.88-77 22.88Zm.73-87.58q24.25 0 41.45-17.64 17.2-17.64 17.2-42.84v-23.22h334.49v23.22q0 25.2 17.32 42.84 17.32 17.64 42.06 17.64 24.05 0 41.25-17.64 17.19-17.64 17.19-42.84v-23.22h123.32v-169.59l-212.11-18.1-120.99-205.11H252.33L169.7-478.01H71.75v162.56h123.7v23.22q0 25.2 17.26 42.84 17.26 17.64 41.92 17.64ZM480-470Z"/></svg>