<svg xmlns="http://www.w3.org/2000/svg" height="20" viewBox="0 -960 960 960" width="20"><path d="m387-405 13-15-54-50h110.69q32.29 0 56.3-23.42 24.01-23.41 24.01-56 0-33.58-23.47-57.08-23.46-23.5-56.69-23.5H330v19h127q24.07 0 42.54 18.4Q518-574.19 518-549.05 518-525 499.54-507q-18.47 18-42.54 18H346l54-53-13-12-75 74 75 75ZM285.55-236q-32.55 0-59.75-20.35Q198.6-276.7 181-306H68v-255h103l72-187h333l110 169 205 16v257H777q-16.6 29.3-43.8 49.65Q706-236 674-236t-58.64-20.35Q588.73-276.7 571.41-306H388q-17 29-43.2 49.5-26.21 20.5-59.25 20.5Zm1.69-45q27.76 0 46.26-18.29Q352-317.58 352-341v-10h257v10q0 23.42 19.75 41.71T675.47-281q27.97 0 46.75-18.29T741-341v-10h107v-171l-186-13-108-168H276l-73 187h-88v165h106v10q0 23.42 19.49 41.71Q259.97-281 287.24-281ZM481-492Z"/></svg>