<svg xmlns="http://www.w3.org/2000/svg" height="40" viewBox="0 -960 960 960" width="40"><path d="m375.13-387.62 19.25-19.35-41.71-40.09h113.6q38.81 0 67.14-27.11 28.32-27.11 28.32-64.93 0-37.87-28.24-65.7-28.23-27.83-67.08-27.83h-152.9v27.4h152.76q27.53 0 47.59 19.48 20.05 19.48 20.05 46.65 0 27.1-20.05 46.15-20.06 19.05-47.59 19.05h-113.6l41.71-40.56-19.25-19.04-74.82 72.88 74.82 73Zm-105.32 184.8q-35.32 0-63.27-21.15-27.95-21.16-43.85-53.07H42.82v-255.73h108.81l74.77-204.41h355.84l114.81 184.81 220.13 17.53v257.76h-120.5q-15.32 32.11-43.11 53.18-27.79 21.08-63.16 21.08t-63.1-21.15q-27.73-21.16-43.25-53.11H375.92q-15.5 32.11-43.46 53.18-27.95 21.08-62.65 21.08Z"/></svg>