<svg xmlns="http://www.w3.org/2000/svg" height="40" viewBox="0 -960 960 960" width="40"><path d="m372.56-379.48 24.97-24.67-39.03-38.3h107.38q41.83 0 71.53-29.14 29.7-29.13 29.7-70.46 0-41.27-29.74-70.89-29.74-29.62-71.41-29.62h-160.2v35.28h160.12q26.94 0 46.3 19.07 19.36 19.08 19.36 46.16 0 26.72-19.36 45.58t-46.3 18.86H358.5l39.03-38.45L372.56-541l-81.74 81.03 81.74 80.49ZM264.49-184.74q-37.41 0-67.55-21.83t-46.6-55.62H24.74v-280.19H138.4l76.72-212.88h373.92l117.82 192.82L935.26-544v281.79H809.34q-15.99 34.22-46.18 55.84-30.19 21.63-67.62 21.63-37.44 0-67.47-21.83t-46.12-55.64H378.21q-16.25 34.22-46.52 55.84-30.27 21.63-67.2 21.63Z"/></svg>