<svg xmlns="http://www.w3.org/2000/svg" height="20" viewBox="0 -960 960 960" width="20"><path d="m382.69-387.15 27.16-28.54-45.39-43.85h91.62q38.44 0 65.83-27.72 27.4-27.73 27.4-67.08 0-39.74-27.16-67.54-27.16-27.81-65.92-27.81H314v39.31h142.38q21.62 0 37.93 16.55 16.31 16.56 16.31 39.86 0 22.2-16.31 38.66-16.31 16.46-37.93 16.46h-91.92l45.39-45.61-27.16-26.77-91 91.85 91 92.23ZM277.55-204q-36.86 0-68.36-20.97-31.51-20.96-49.73-53.95H36v-301.16h111.62L223.31-780h365.61l114.31 181.31L923-580.85v301.93H799.15q-17.83 32.99-49.34 53.95Q718.31-204 682-204t-67.25-20.97q-30.95-20.96-48.88-53.95H394.15q-18.23 32.69-48.74 53.8Q314.9-204 277.55-204Zm1.69-77q22.84 0 37.65-15.83 14.8-15.83 14.8-37.4v-21.69h297.62v21.69q0 21.57 16.05 37.4Q661.42-281 683.47-281q22.43 0 37.83-15.83 15.39-15.83 15.39-37.4v-21.69H848v-154.39l-187.85-14.23L548.46-703H277.85l-76.08 199.92H115v147.16h110.31v21.69q0 21.57 15.79 37.4Q256.89-281 279.24-281ZM481-492Z"/></svg>