<svg xmlns="http://www.w3.org/2000/svg" height="24" viewBox="0 -960 960 960" width="24"><path d="m370.3-362.17 40.13-40.13-30.13-29.07h84.56q46.97 0 80.15-32.56 33.19-32.57 33.19-80.23 0-47.67-33-80.76-32.99-33.1-80.27-33.1H292.17v57.19h173q23.33 0 40.11 16.57 16.79 16.56 16.79 39.85 0 23.28-16.77 39.84Q488.53-488 465.14-488H380.3l30.13-29.13-40.13-40.07-97.13 97.77 97.13 97.26ZM260.17-150.78q-41.82 0-76.8-21.57-34.98-21.56-54.81-58.13H-9.22v-339.09h122.39l78.76-219.65h412.48l121.33 200.15 243.48 19.57v339.02h-138.6q-19.47 36.64-54.7 58.17-35.22 21.53-77.04 21.53-41.81 0-76.79-21.57-34.98-21.56-54.72-58.13H392.15q-19.82 36.57-55 58.13-35.17 21.57-76.98 21.57Zm.63-100.44q20.79 0 34.9-14.37 14.1-14.36 14.1-34.89v-30.43h340.4v30.43q0 20.53 14.55 34.89 14.55 14.37 35.33 14.37 20.79 0 34.9-14.37 14.11-14.36 14.11-34.89v-30.43h119.69v-145.92l-202.54-16.93-116.89-195.02H263.59l-79.63 219.65H91.22v138.22h119.69v30.43q0 20.53 14.55 34.89 14.55 14.37 35.34 14.37ZM480-470Z"/></svg>