<svg xmlns="http://www.w3.org/2000/svg" height="40" viewBox="0 -960 960 960" width="40"><path d="m375.13-387.62 19.25-19.35-41.71-40.09h113.6q38.41 0 66.94-27.07 28.52-27.07 28.52-64.85 0-37.99-28.43-65.82-28.44-27.83-66.89-27.83h-152.9v27.4h152.76q27.41 0 47.52 19.53 20.12 19.53 20.12 46.6 0 27.39-20.12 46.3-20.11 18.9-47.52 18.9h-113.6l41.71-40.56-19.25-19.04-74.82 72.88 74.82 73Zm-105.32 184.8q-35.16 0-63.19-21.15-28.03-21.16-43.97-53.03H42.82v-255.77h108.54l74.93-204.41h355.95l114.81 184.81 220.13 17.45v257.84H796.43q-14.97 32.18-42.81 53.22-27.84 21.04-63.21 21.04-35.37 0-63.1-21.15-27.73-21.16-43.16-53.11H375.94q-15.52 32.11-43.45 53.18-27.94 21.08-62.68 21.08Zm.22-32.44q33.52 0 56.38-21.8t22.86-50.86v-1.59H611.6v1.59q0 29.06 23.12 50.86t56.11 21.8q33.48 0 56.26-21.8t22.78-50.86v-1.59H884.9v-194.62l-207.06-17.34-113.66-183.27H250.86l-76.4 204.41h-99.2v190.82h115.02v1.59q0 29.06 23.39 50.86t56.36 21.8ZM480-470Z"/></svg>