<svg xmlns="http://www.w3.org/2000/svg" height="20" viewBox="0 -960 960 960" width="20"><path d="m380-376 36-37-40-40h79.69q42.29 0 71.8-30.42 29.51-30.41 29.51-74 0-43.58-29.47-74.08-29.46-30.5-71.69-30.5H304v52h152q20.07 0 35.04 15.4Q506-579.19 506-557.05q0 21.05-14.96 36.55Q476.07-505 456-505h-80l40-41-36-36-101 103 101 103ZM272.55-184q-39.55 0-73.75-21.35T146-262H16v-330h117l78-208h386l117 189 229 19v330H813q-18.6 35.3-52.8 56.65Q726-184 687-184t-72.64-21.35Q580.73-226.7 562.41-262H398q-19 35-52.2 56.5-33.21 21.5-73.25 21.5Zm1.69-97q19.76 0 32.26-14.29Q319-309.58 319-330v-29h323v29q0 20.42 13.75 34.71T688.47-281q18.97 0 32.25-14.29Q734-309.58 734-330v-29h114v-144l-189-15-114-185H279l-78 208h-86v136h113v29q0 20.42 13.49 34.71Q254.97-281 274.24-281ZM481-492Z"/></svg>