<svg xmlns="http://www.w3.org/2000/svg" height="24" viewBox="0 -960 960 960" width="24"><path d="m373-381 21-23-43-40h114.69q40.22 0 69.76-28.97Q565-501.93 565-542.47 565-584 536-613t-70.16-29H308v31h158q27 0 47.5 20.45Q534-570.09 534-542q0 27-20.5 47T466-475H351l43-42-21-21-79 78 79 79ZM263.55-180Q226-180 196-202.5T147-258H20v-287h115l77-215h379l119 195 230 18v289H812q-18 33-48 55.5T697-180q-37 0-67-22.5T581-258H379q-18 33-47.95 55.5-29.94 22.5-67.5 22.5Zm.69-53Q294-233 315-253.04q21-20.04 21-45.96v-12h289v12q0 25.92 21.5 45.96T697.47-233q30.47 0 51-20.04T769-299v-12h118v-187l-209-16-116-193H251l-78 215H74v181h118v12q0 25.92 21.24 45.96 21.23 20.04 51 20.04ZM480-470Z"/></svg>