<svg xmlns="http://www.w3.org/2000/svg" height="40" viewBox="0 -960 960 960" width="40"><path d="m371.9-380.87 21.57-22.25-42.81-40.94H465.9q40.98 0 70.55-29.27 29.58-29.26 29.58-69.77 0-41.72-29.75-71.03-29.74-29.31-70.26-29.31H306.77v30.98H465.9q27.36 0 47.96 20.65t20.6 48.48q0 28.1-20.59 47.98-20.6 19.89-47.95 19.89H350.85l42.48-41.95-21.43-21-78.95 78.13 78.95 79.41Zm-109.08 202.2q-38.12 0-68.07-22.75-29.95-22.76-48.71-56.03H18.67v-287.11H134.5l76.78-216.77h379.59l119.59 196.38 230.87 18.9v288.56H813.19q-17.19 33.72-47.21 56.27-30.01 22.55-67.77 22.55-37.77 0-67.45-22.75-29.68-22.76-48.25-56.07H377.72q-17.92 33.46-47.85 56.14t-67.05 22.68Z"/></svg>