<svg xmlns="http://www.w3.org/2000/svg" height="40" viewBox="0 -960 960 960" width="40"><path d="m365.85-362.83 34.35-34.08-36.96-37.31h101.28q47.34 0 80.5-33.72 33.15-33.72 33.15-81.98 0-48.4-33.57-81.96-33.57-33.56-80.15-33.56H289.49v48.56h175.64q26 0 45.1 19.84t19.1 47.32q0 27.74-19.11 47.02-19.12 19.27-45.16 19.27H363.51l36.52-37.53-34.11-33.97L272.07-459l93.78 96.17ZM250.84-136.75q-42.6 0-77.93-24.02-35.33-24.02-55.12-61.42H-23.25v-345.53h126.84l81.16-235.69H607.2l125.97 214.05 250.24 21.21v345.79h-141.2q-19.07 38.34-54.34 61.97-35.27 23.64-78.26 23.64t-77.98-24.02q-34.98-24.02-54.88-61.59H383.93q-19.86 38.08-55.17 61.84-35.32 23.77-77.92 23.77Zm.93-88.69q24.7 0 42.28-18.27 17.57-18.27 17.57-44.37v-23.36h338.34v23.36q0 26.1 18.06 44.37 18.05 18.27 43.17 18.27 24.41 0 41.8-18.27 17.39-18.27 17.39-44.37v-23.36h125.51v-174.74l-215.39-18.7-123.17-210.34H248.74l-83.07 235.68H65.78v168.1h125.66v23.36q0 26.1 17.6 44.37 17.59 18.27 42.73 18.27ZM480-470Z"/></svg>