<svg xmlns="http://www.w3.org/2000/svg" height="40" viewBox="0 -960 960 960" width="40"><path d="m368.04-366.96 33.12-32.48-35.46-36.24h99.09q46.21 0 78.32-32.41 32.11-32.4 32.11-78.8 0-46.41-32.03-78.89-32.04-32.48-78.46-32.48h-171.1v46.61H464.8q26.56 0 45 18.88t18.44 45.88q0 26.57-18.43 45.4-18.44 18.82-44.98 18.82h-99.06l35.32-36.14-32.98-33.08-91.81 92.8 91.74 92.13ZM255.47-153.3q-41.05 0-74.81-22.92-33.75-22.91-51.63-59.64H-6.7v-323.59h121.68l80.24-227.41h405.65L723.8-580.09l243.06 20.21v324.02H830.89q-17.88 37.24-51.6 59.9-33.73 22.66-74.89 22.66-41.16 0-74.84-22.92-33.68-22.91-51.71-59.64H382.07q-17.87 37.24-51.71 59.9-33.84 22.66-74.89 22.66Z"/></svg>