<svg xmlns="http://www.w3.org/2000/svg" height="24" viewBox="0 -960 960 960" width="24"><path d="m372-365 39-39-29-28.5h83.5q46.33 0 78.67-32 32.33-32 32.33-78.25t-32.33-78.5q-32.34-32.25-78.67-32.25H295v55.5h170.5q23 0 39.5 16t16.5 39q0 23-16.5 39t-39.5 16H382l29-28-39-39.5-96 95.5 96 95ZM263.5-170q-39.5 0-72.5-21t-50-57H10v-308h117.3l78.2-214h391L715-575.5l235 19V-248H818.75q-16.65 36.07-49.95 57.04Q735.5-170 696-170t-72.5-21q-33-21-49.92-57H386.5q-17 36-50.25 57t-72.75 21Zm.56-75q25.44 0 42.94-17.5 17.5-17.5 17.5-42.5v-18h311v18q0 25 17.81 42.5t43.25 17.5q25.44 0 42.94-17.5Q757-280 757-305v-18h118v-164l-204.8-17.5L555-695H258.5L180-481H85v158h118v18q0 25 17.81 42.5t43.25 17.5ZM480-470Z"/></svg>