<svg xmlns="http://www.w3.org/2000/svg" height="20" viewBox="0 -960 960 960" width="20"><path d="m386.69-395.15 25.16-25.54-43.39-41.85h87.92q36.23 0 62.08-25.26t25.85-61.07q0-36.21-25.66-61.51-25.66-25.31-62.27-25.31H322v35.31h134.38q21.62 0 36.93 15.1 15.31 15.1 15.31 36.31 0 21.2-15.31 36.16-15.31 14.96-36.93 14.96h-87.92l43.39-42.61-25.16-24.77-86 84.85 86 85.23ZM287-236q-33.31 0-61.81-18.97-28.51-18.96-43.73-49.95H68v-259.16h102.62L243.31-748h333.61l108.31 166.31L891-564.85v259.93H777.15q-14.83 30.99-43.34 49.95Q705.31-236 672-236t-61.25-18.97q-27.95-18.96-42.88-49.95H391.15q-15.23 30.69-42.79 49.8Q320.79-236 287-236Zm1-52q26.08 0 43.39-17.29 17.3-17.29 17.3-40.94v-10.69h262.62v10.69q0 23.65 18.05 40.94Q647.42-288 673-288q25.96 0 43.83-17.29 17.86-17.29 17.86-40.94v-10.69H841v-160.39l-183.85-14.23L550.46-696H279.85l-73.08 183.92H121v155.16h105.31v10.69q0 23.65 18.06 40.94Q262.42-288 288-288Zm193-204Z"/></svg>