<svg xmlns="http://www.w3.org/2000/svg" height="20" viewBox="0 -960 960 960" width="20"><path d="m385.28-387.8 31.48-31.48-40.48-38.74h79.95q38.67 0 65.83-26.69 27.16-26.69 27.16-65.59 0-38.9-27.08-66-27.08-27.11-65.88-27.11H315.8v44.21h140.56q20.21 0 34.8 14.19 14.58 14.19 14.58 34.36t-14.58 34.41Q476.59-502 456.35-502h-80.07l40.48-39.48-31.48-30.74-92.48 92.46 92.48 91.96ZM284.09-217.87q-35.48 0-66.52-19.09t-47.83-51.63H49.87v-289.15h107.45l73.44-188.39h354.09l110.69 170.89L909.13-578v289.41H788.78q-16.45 32.62-47.77 51.67-31.31 19.05-66.79 19.05-35.48 0-65.96-19.09-30.47-19.09-46.9-51.63H397.89q-17.19 32.24-47.51 51.48-30.32 19.24-66.29 19.24Zm1.59-77.76q21.47 0 35.04-14.43 13.56-14.42 13.56-35.03v-21.26h291.44v21.26q0 20.61 14.68 35.03 14.68 14.43 35.65 14.43t35.29-14.43q14.31-14.42 14.31-35.03v-21.26h107.72V-506.7l-180.84-14.25-107.92-167.42H285.65l-73.98 188.39h-83.04v133.63h106.72v21.26q0 20.61 14.68 35.03 14.68 14.43 35.65 14.43ZM481-492Z"/></svg>