<svg xmlns="http://www.w3.org/2000/svg" height="20" viewBox="0 -960 960 960" width="20"><path d="M379.43-376 416-413.1l-40.77-39.88h79.68q42.27 0 72.18-30.17Q557-513.31 557-557.13q0-43.58-29.84-73.94-29.85-30.36-72.16-30.36H304v52h151.92q20.06 0 35.07 15.47Q506-578.48 506-556.77q0 21.34-15.07 36.84-15.06 15.5-35.29 15.5h-80.38l40.81-41.48-36.64-35.52L279.57-479l99.86 103ZM272.61-176.09q-40.18 0-75.51-21.06-35.33-21.07-55.62-56.37H8.09v-346.39h118.69l77.44-208h396.74l117.56 189 232.39 19.56v345.83H816.96q-20.3 35.3-55.4 56.37-35.09 21.06-75.17 21.06-40.09 0-74.85-21.06-34.77-21.07-54.79-56.37H402.52q-20.69 35-54.97 56.22-34.28 21.21-74.94 21.21Zm1.76-113.39q15.67 0 25.63-11.65 9.96-11.66 9.96-28.3v-38.05h340.52v38.05q0 16.64 11.31 28.3 11.32 11.65 26.81 11.65 14.88 0 25.9-11.65 11.02-11.66 11.02-28.3v-38.05h114v-127.44l-185.61-14.6-114-185H284.65l-78 208h-83.17v119.04h113v38.05q0 16.64 11.05 28.3 11.05 11.65 26.84 11.65ZM481-492Z"/></svg>