<svg xmlns="http://www.w3.org/2000/svg" height="48" viewBox="0 -960 960 960" width="48"><path d="m376-393 15-15-44-42.5h119.5q37 0 64.5-25.96 27.5-25.95 27.5-61.54 0-35.5-27.5-62.5t-64.15-27H318v21.5h148.5q28.45 0 49.22 20.09Q536.5-565.82 536.5-538q0 28-20.78 47.5Q494.95-471 466.5-471H347l44-43-15-14.5-70 67.5 70 68ZM272-212q-34.38 0-60.94-21-26.56-21-42.17-51.93H52V-527h106.4l73.93-201H578.5L692-546.5l216 17.29V-285H790.28q-14.78 31-41.06 52t-60.72 21q-34.44 0-60.72-21t-41.28-52H373.54Q358.5-254 332-233t-60 21Z"/></svg>