<svg xmlns="http://www.w3.org/2000/svg" height="20" viewBox="0 -960 960 960" width="20"><path d="m392-415.5 9.5-10.5-53-48.5h109q28.9 0 50.95-20.2 22.05-20.2 22.05-48 0-28.8-21.55-49.55Q487.4-613 457.35-613H340.5v13h117q23.86 0 41.68 16.95t17.82 40q0 23.05-17.82 39.55Q481.36-487 457.5-487h-109l53-50.5-9.5-8.5-68 65 68 65.5ZM297-273q-28.44 0-52.42-18.1T206.5-336H105v-207h92.7l68.13-168H562.5l103 151L854-545.62V-336H751.42q-13.42 26.87-37.17 44.94Q690.5-273 662-273t-51.64-18.1q-23.13-18.1-36.87-44.9H385.54q-14.04 26.5-37.01 44.75Q325.55-273 297-273Zm1.06-17.5q31.44 0 52.44-19.75 21-19.75 21-45.25v2H589v-2q0 25.5 21.85 45.25 21.86 19.75 52.5 19.75 31.65 0 52.9-19.75t21.25-45.25v2h101v-176l-180.3-13-102.2-151H279.5l-69.5 168h-86.5v172h100v-2q0 25.5 21.91 45.25 21.92 19.75 52.65 19.75ZM481-492Z"/></svg>