<svg xmlns="http://www.w3.org/2000/svg" height="20" viewBox="0 -960 960 960" width="20"><path d="m386-389 31-31-40-38.5h79.5q38.4 0 65.2-26.45 26.8-26.45 26.8-64.75t-26.8-65.05q-26.8-26.75-65.2-26.75H317v43.5h139.5q20.07 0 34.54 13.95 14.46 13.95 14.46 34T491.04-516q-14.47 14-34.54 14H377l40-39-31-30.5-92 91.5 92 91ZM285.5-226q-34.5 0-64.7-18.85Q190.6-263.7 175-296H58v-276h105.3l73.2-186h345L691-589.5l210 17V-296H783.75Q768.5-263.63 738-244.81 707.5-226 673-226t-64.14-18.85Q579.23-263.7 563.99-296H395.5q-16 32-45.51 51-29.5 19-64.49 19Zm1.56-67q23.44 0 38.44-15.75 15-15.75 15-38.25v-16h279v16q0 22.5 16.06 38.25t39 15.75q22.94 0 38.69-15.75Q729-324.5 729-347v-16h107v-148l-181.8-14.5L547-691H283.5L210-505h-84v142h106v16q0 22.5 16.06 38.25t39 15.75ZM481-492Z"/></svg>