<svg xmlns="http://www.w3.org/2000/svg" height="20" viewBox="0 -960 960 960" width="20"><path d="m387-405 13-15-54-50h111q32.07 0 56.03-23.45Q537-516.9 537-548.95q0-34.05-23.47-57.55Q490.07-630 457-630H330v19h127q24.07 0 42.54 18.45Q518-574.1 518-549.05 518-525 499.54-507q-18.47 18-42.54 18H346l54-53-13-12-75 74 75 75ZM286-236q-33 0-60.2-20.35Q198.6-276.7 181-306H68v-255h103l72-187h333l110 169 205 16v257H777q-16.6 29.3-43.8 49.65Q706-236 674-236t-58.64-20.35Q588.73-276.7 571.41-306H388q-17 29-43.26 49.5Q318.49-236 286-236Z"/></svg>