<svg xmlns="http://www.w3.org/2000/svg" height="24" viewBox="0 -960 960 960" width="24"><path d="m370-360 42-42-27-28h80q48 0 81.5-33.5T580-545q0-48-33.5-81.5T465-660H290v60h175q23 0 39 16t16 39q0 23-16 39t-39 16h-80l27-27-42-43-100 100 100 100ZM260-160q-41 0-75-21.5T134-240H0v-320h120l80-220h400l120 200 240 20v320H826q-17 37-51 58.5T700-160q-41 0-75-21.5T574-240H386q-17 37-51 58.5T260-160Zm0-80q25 0 42.5-17.5T320-300v-20h320v20q0 25 17.5 42.5T700-240q25 0 42.5-17.5T760-300v-20h120v-166l-208-18-117-196H256l-80 220H80v160h120v20q0 25 17.5 42.5T260-240Zm220-230Z"/></svg>