<svg xmlns="http://www.w3.org/2000/svg" height="48" viewBox="0 -960 960 960" width="48"><path d="m366-368 29.2-28.56-40.49-41.04h110.17q45.96 0 78.04-32.76Q575-503.12 575-550.06q0-46.94-32.67-79.44T464.84-662H293v41h172.2q27.51 0 47.66 21.03Q533-578.95 533-550q0 29.44-20.14 49.72Q492.73-480 465.22-480H355l40-41-29-29-89 91 89 91ZM250.59-144q-41.59 0-75.49-24.69-33.9-24.7-52.99-61.07H-16V-560h125.4L190-796h413l126 214 247 21v331H838q-18 38-52 62t-76 24q-42 0-75.5-24.69Q601-193.39 582-230H379q-19.19 37.61-53 61.81Q292.18-144 250.59-144Zm.88-73Q280-217 300-237.71T320-288v-15h322v15q0 29.58 20.53 50.29Q683.05-217 711.71-217q28.23 0 47.76-20.71Q779-258.42 779-288v-15h126v-190.71L686-513 562-724H243l-83 236H57v185h126v15q0 29.58 19.97 50.29t48.5 20.71ZM480-470Z"/></svg>