<svg xmlns="http://www.w3.org/2000/svg" height="20" viewBox="0 -960 960 960" width="20"><path d="M480-467.92q54.23 0 91.61-37.2Q609-542.31 609-596.54q0-54.23-37.39-91.81-37.38-37.57-91.61-37.57t-91.61 37.57Q351-650.77 351-596.54q0 54.23 37.39 91.42 37.38 37.2 91.61 37.2Zm-.21-52q-31.85 0-54.32-22.56T403-596.85q0-31.81 22.68-54.25t54.53-22.44q31.85 0 54.32 22.65Q557-628.23 557-596.42t-22.68 54.15q-22.68 22.35-54.53 22.35Zm0 187.07q12.52 0 21.67-8.74 9.15-8.74 9.15-21.66 0-12.52-8.94-21.67-8.94-9.16-21.65-9.16-12.71 0-21.67 8.95-8.96 8.94-8.96 21.65 0 12.71 8.74 21.67t21.66 8.96ZM617.08-116H342.54v-52h34.02q23.9 0 43.29-13.15 19.38-13.16 27.23-35.54H236V-844h488v627.31H512.92q7.85 22.38 27.13 35.54Q559.34-168 583.44-168h33.64v52Z"/></svg>