<svg xmlns="http://www.w3.org/2000/svg" height="40" viewBox="0 -960 960 960" width="40"><path d="M479.64-463.83q59.69 0 100.69-40.47t41-99.42q0-59.45-40.99-100.78t-100.12-41.33q-59.6 0-100.24 41.33-40.65 41.33-40.65 100.61T380-504.22q40.66 40.39 99.64 40.39Zm.43-84.67q-23.07 0-39.57-16.02-16.5-16.01-16.5-38.7 0-23.24 16.29-40.26t39.36-17.02q23.07 0 39.71 16.67T536-603.74q0 23.41-16.43 39.32-16.43 15.92-39.5 15.92Zm.28 218.5q16.15 0 27.65-10.66 11.5-10.67 11.5-27.34 0-15.73-11.58-27.2-11.59-11.47-27.65-11.47-15.57 0-26.5 11.45-10.94 11.44-10.94 27.3 0 16.82 10.94 27.37T480.35-330ZM663.67-21H297v-84.67h57.45q34.76 0 54.76-22.73 20.01-22.73 25.12-54.1H178.67V-902H782v719.5H526.17q5.31 31.17 24.89 54 19.59 22.83 54.94 22.83h57.67V-21Z"/></svg>