<svg xmlns="http://www.w3.org/2000/svg" height="40" viewBox="0 -960 960 960" width="40"><path d="M480-451q64.92 0 110.63-45.53 45.7-45.53 45.7-109.47 0-65.33-45.57-111.33-45.56-46-110.43-46-64.58 0-110.29 46-45.71 46-45.71 111t45.73 110.16Q415.79-451 480-451Zm.09-77.67q-31.67 0-54.88-22.95T402-606q0-32.39 23.12-56.03 23.13-23.64 55.12-23.64 32 0 54.88 23.56Q558-638.55 558-606.27q0 32.27-22.89 54.94-22.88 22.66-55.02 22.66ZM480.01-319q16.4 0 27.53-10.88 11.13-10.89 11.13-27.46 0-16.07-11.21-27.53-11.22-11.46-27.79-11.46-16.07 0-27.2 11.46-11.14 11.46-11.14 27.86 0 16.41 11.14 27.21Q463.6-319 480.01-319ZM659.33-27.67h-358v-84H350q34.48 0 57.57-21.16 23.1-21.17 30.76-52.84H178.67v-715.66h602.66v715.66H521.67q7.66 31.67 30.26 52.84 22.59 21.16 57.73 21.16h49.67v84Z"/></svg>