<svg xmlns="http://www.w3.org/2000/svg" height="40" viewBox="0 -960 960 960" width="40"><path d="M479.75-448.5q63.91 0 108.41-44.41 44.51-44.42 44.51-107.59 0-63.67-44.5-108.5-44.49-44.83-107.84-44.83-63.82 0-108.41 44.83-44.59 44.83-44.59 108.33t44.61 107.84q44.61 44.33 107.81 44.33Zm.26-63.33q-36.84 0-63.09-25.93t-26.25-62.54q0-37.16 26.1-63.68 26.1-26.52 62.94-26.52 36.85 0 63.23 26.38 26.39 26.37 26.39 63.41 0 37.04-26.23 62.96-26.24 25.92-63.09 25.92Zm.32 183.83q13.17 0 22.34-9.03 9.16-9.03 9.16-22.64 0-12.66-9.25-22.16t-22.66-9.5q-12.92 0-22.17 9.52-9.25 9.53-9.25 22.56 0 13.42 9.31 22.33 9.3 8.92 22.52 8.92Zm161 241.33h-322V-150h39.84q28.7 0 51.04-16.23 22.34-16.24 32.12-40.94H206.67v-666.16h546.66v666.16H517.5q9.83 24.67 32.16 40.92Q571.98-150 600.67-150h40.66v63.33Z"/></svg>