<svg xmlns="http://www.w3.org/2000/svg" height="24" viewBox="0 -960 960 960" width="24"><path d="M480-470.85q54.05 0 91.52-37.09Q609-545.03 609-599.08q0-54.46-37.48-92.61-37.47-38.16-91.52-38.16t-91.52 38.16Q351-653.54 351-599.08t37.48 91.35q37.47 36.88 91.52 36.88Zm0-57q-29.7 0-50.85-20.9Q408-569.66 408-599.27q0-30.04 21.15-51.42 21.15-21.39 50.85-21.39 29.7 0 50.85 21.39Q552-629.3 552-599.27q0 30.04-21.15 50.73-21.15 20.69-50.85 20.69Zm0 199.16q15.02 0 26.12-10.71 11.11-10.7 11.11-26.52 0-15.02-11.11-26.13-11.1-11.1-26.5-11.1t-26.13 11.1q-10.72 11.11-10.72 26.51 0 15.4 10.7 26.12 10.71 10.73 26.53 10.73ZM648.15-41H311.08v-66H360q38.92 0 63.69-26.81 24.77-26.81 29.46-66.57H208V-872h544v671.62H506.85q4.69 39.76 28.76 66.57Q559.68-107 599-107h49.15v66Z"/></svg>