<svg xmlns="http://www.w3.org/2000/svg" height="48" viewBox="0 -960 960 960" width="48"><path d="M479.65-458.91q61.83 0 104.26-42.05Q626.35-543 626.35-603.6q0-61.33-42.43-104.39-42.42-43.05-103.52-43.05-61.57 0-103.87 43.05-42.31 43.06-42.31 104.14t42.34 103.01q42.34 41.93 103.09 41.93Zm.39-68.24q-31.97 0-54.78-22.25-22.8-22.24-22.8-53.78 0-32.35 22.56-55.7 22.56-23.36 54.53-23.36 31.97 0 54.98 23.04 23.01 23.03 23.01 55.38 0 32.34-22.76 54.5-22.77 22.17-54.74 22.17Zm.47 196.52q13.69 0 23.07-8.89t9.38-22.97q0-12.89-9.51-22.66-9.5-9.76-23.16-9.76-12.9 0-22.26 9.76-9.36 9.76-9.36 22.88 0 14.17 9.39 22.9 9.38 8.74 22.45 8.74ZM655.8-51.65H305.2v-68.24h49.49q34.43 0 57.81-21.87 23.38-21.86 30.54-52.8H190.87V-889.7H769.7v695.14H517.52q7.08 30.75 30.24 52.71 23.15 21.96 58.07 21.96h49.97v68.24Z"/></svg>