<svg xmlns="http://www.w3.org/2000/svg" height="40" viewBox="0 -960 960 960" width="40"><path d="M266.01-272.62h427.98v-541.37H266.01v541.37Zm213.96-181.09q64.01 0 108.95-44.59t44.94-107.51q0-64.33-44.8-109.49t-108.75-45.16q-63.68 0-108.51 45.16-44.84 45.16-44.84 109.15 0 63.99 44.86 108.22 44.85 44.22 108.15 44.22Zm.13-80.14q-29.32 0-51.04-21.54t-21.72-50.47q0-29.9 21.62-52.1 21.61-22.21 51.27-22.21 29.66 0 51.05 22.08 21.38 22.07 21.38 51.93 0 29.85-21.38 51.08-21.38 21.23-51.18 21.23Zm-.09 212.94q16.88 0 28.09-10.8 11.2-10.79 11.2-27.74 0-16.45-11.29-28.02t-28.13-11.57q-16.35 0-27.53 11.57-11.18 11.58-11.18 28.15 0 16.98 11.18 27.69 11.18 10.72 27.66 10.72ZM661.33-23.68H299.34v-85.28h50.91q34.79 0 56.97-21.52 22.17-21.53 29.44-52.88H176.75v-720.05h606.66v720.05H523.5q7.06 31.31 28.88 52.86 21.82 21.54 57.12 21.54h51.83v85.28ZM480-605.84Z"/></svg>