<svg xmlns="http://www.w3.org/2000/svg" height="48" viewBox="0 -960 960 960" width="48"><path d="M271.35-258.35h417.3v-550.3h-417.3v550.3Zm208.59-210.73q53.03 0 90.24-36.33 37.2-36.34 37.2-88.9 0-52.73-37.1-90.75t-90.16-38.02q-52.97 0-89.85 38.02-36.89 38.02-36.89 90.69 0 52.68 36.83 88.99 36.82 36.3 89.73 36.3Zm-.02-30.19q-40.35 0-68.35-27.54-27.99-27.54-27.99-67.81 0-40.17 27.8-68.83 27.8-28.67 68.15-28.67 40.35 0 69.01 28.57 28.65 28.56 28.65 68.67 0 40.73-28.46 68.17-28.46 27.44-68.81 27.44Zm.2 157.85q10.07 0 17.36-6.8 7.29-6.8 7.29-17.53 0-9.52-7.42-16.92-7.43-7.41-17.73-7.41-10.35 0-16.93 7.53-6.57 7.52-6.57 17.3 0 10.35 6.62 17.09 6.63 6.74 17.38 6.74Zm148.61 220.27h-298v-30.2h38.19q33.6 0 59.79-21.74 26.18-21.74 34.44-55.06h-222v-610.7h477.7v610.7H497.23q7.96 33.27 34.15 55.03 26.2 21.77 60.75 21.77h36.6v30.2ZM480-594.69Z"/></svg>