<svg xmlns="http://www.w3.org/2000/svg" height="20" viewBox="0 -960 960 960" width="20"><path d="M291.08-263.12h377.84v-525.8H291.08v525.8Zm188.86-219.07q46.79 0 78.58-31.06 31.79-31.07 31.79-78.48 0-46.85-31.69-78.96-31.68-32.12-78.62-32.12-46.85 0-78.58 32.12-31.73 32.11-31.73 79.15 0 47.04 31.73 78.19 31.73 31.16 78.52 31.16Zm-.09-28.93q-33.86 0-57.55-23.4-23.68-23.4-23.68-57.56 0-33.55 23.83-57.29 23.84-23.75 57.7-23.75t57.55 23.9q23.68 23.89 23.68 57.44 0 34.16-23.83 57.41-23.84 23.25-57.7 23.25Zm-.06 166.35q9.09 0 16.59-6.67 7.5-6.66 7.5-16.81 0-8.9-7.28-16.4-7.29-7.5-17.02-7.5t-16.41 7.37q-6.67 7.37-6.67 16.74 0 9.37 6.47 16.32 6.48 6.95 16.82 6.95Zm127.29 202.62H352.15v-28.93h31.75q27.37 0 49.75-17.36 22.39-17.37 28.97-45.75H262.15v-583.66h435.7v583.66H497.27q6.19 28.38 28.38 45.75 22.18 17.36 50.23 17.36h31.2v28.93ZM480-591.73Z"/></svg>