<svg xmlns="http://www.w3.org/2000/svg" height="20" viewBox="0 -960 960 960" width="20"><path d="M480-487q45 0 75-29.5t30-74.5q0-45-30-75.5T480-697q-45 0-75 30.5T375-591q0 45 30 74.5t75 29.5Zm-.21-20q-35.15 0-59.97-24.71T395-591.47q0-35.04 25.03-59.79Q445.06-676 480.21-676t59.97 24.96q24.82 24.95 24.82 60 0 35.04-25.03 59.54T479.79-507Zm0 160q8.21 0 15.21-6.26 7-6.27 7-15.53 0-8.21-6.79-15.21t-15.5-7q-8.71 0-15.21 6.79t-6.5 15.5q0 8.71 6.26 15.21 6.27 6.5 15.53 6.5ZM606-148H353v-20h31.56Q414-168 438-187q24-19 30-50H268v-575h424v575H492q6 31 29.74 50t53.7 19H606v20Z"/></svg>