<svg xmlns="http://www.w3.org/2000/svg" height="24" viewBox="0 -960 960 960" width="24"><path d="M479.94-466.19q52.79 0 89.58-36.06 36.79-36.07 36.79-89.48 0-52.85-36.69-89.96-36.68-37.12-89.62-37.12-52.85 0-89.58 37.12-36.73 37.11-36.73 90.15 0 53.04 36.73 89.19 36.73 36.16 89.52 36.16Zm.12-36.93q-37.07 0-63.26-25.68-26.18-25.69-26.18-63.07 0-36.76 26.12-63 26.13-26.25 63.2-26.25 37.07 0 63.26 26.19 26.18 26.18 26.18 62.94 0 37.37-26.12 63.12-26.13 25.75-63.2 25.75ZM480-340.77q10.88 0 19.38-7.88 8.5-7.87 8.5-19.81 0-10.69-8.5-19.19-8.5-8.5-20.01-8.5-11.52 0-19.2 8.58-7.67 8.58-7.67 19.74 0 11.16 7.69 19.11 7.68 7.95 19.81 7.95Zm143.08 214.62H336.15v-36.93h36.2q29.92 0 53.3-18.86 23.39-18.87 31.97-48.25H246.15v-603.66h467.7v603.66H502.27q8.19 29.38 31.38 48.25 23.18 18.86 53.78 18.86h35.65v36.93Z"/></svg>