<svg xmlns="http://www.w3.org/2000/svg" height="40" viewBox="0 -960 960 960" width="40"><path d="M479.69-457.17q61.52 0 104.04-42.18 42.53-42.18 42.53-102.97 0-61.28-42.51-104.14-42.52-42.85-103.48-42.85-61.44 0-103.8 42.85-42.35 42.86-42.35 103.97 0 61.12 42.37 103.22 42.38 42.1 103.2 42.1Zm.36-75.39q-29.06 0-49.8-20.33-20.74-20.32-20.74-49.06 0-29.29 20.55-50.44 20.56-21.15 49.62-21.15t49.93 20.89q20.88 20.89 20.88 50.23 0 29.33-20.69 49.6-20.7 20.26-49.75 20.26Zm.29 203.43q14.86 0 25.34-9.96 10.49-9.95 10.49-25.29 0-14.4-10.57-25.01Q495.03-400 480.12-400q-14.42 0-24.62 10.61-10.2 10.61-10.2 25.24 0 15.34 10.23 25.18t24.81 9.84ZM653.96-49.55H306.71v-75.39h49.79q32.13 0 53.15-19.91 21.02-19.91 28.16-48.37H190.84v-696.32h578.7v696.32H522.4q7.28 28.34 28.05 48.31 20.78 19.97 53.23 19.97h50.28v75.39Z"/></svg>