<svg xmlns="http://www.w3.org/2000/svg" height="24" viewBox="0 -960 960 960" width="24"><path d="M480-458.92q59.82 0 101.91-41.9Q624-542.72 624-602.54q0-60.23-42.09-102.81-42.09-42.57-101.91-42.57-59.82 0-101.91 42.57Q336-662.77 336-602.54q0 60.23 42.09 101.92 42.09 41.7 101.91 41.7Zm0-77q-27.64 0-47.32-19.56T413-602.64q0-28.01 19.68-47.95 19.68-19.95 47.32-19.95t47.32 19.95Q547-630.64 547-602.63q0 28.02-19.68 47.36-19.68 19.35-47.32 19.35Zm0 216.07q17.71 0 30.16-12.25t12.45-30.36q0-17.71-12.45-30.16-12.45-12.46-30.35-12.46-17.9 0-30.16 12.46-12.26 12.45-12.26 30.35 0 17.9 12.25 30.16 12.25 12.26 30.36 12.26ZM655.08-21H304.54v-86H355q35.46 0 57.35-23.15 21.88-23.16 27.73-57.54H188V-892h584v704.31H519.92q5.85 34.38 27.13 57.54Q568.34-107 604-107h51.08v86Z"/></svg>