<svg xmlns="http://www.w3.org/2000/svg" height="24" viewBox="0 -960 960 960" width="24"><path d="M480-454.91q62.99 0 107.32-44.17 44.33-44.16 44.33-106.92 0-63.17-44.33-107.63-44.33-44.46-107.32-44.46-62.99 0-107.32 44.46-44.33 44.46-44.33 107.63 0 63.17 44.33 107.13 44.33 43.96 107.32 43.96Zm0-105.48q-18.51 0-32.06-13.78-13.55-13.77-13.55-31.91 0-18.56 13.55-32.54 13.55-13.99 32.06-13.99t32.06 13.91q13.55 13.9 13.55 32.63 0 18.72-13.55 32.2-13.55 13.48-32.06 13.48Zm.01 244.87q21.52 0 35.89-13.97 14.36-13.97 14.36-35.45 0-21.47-14.36-35.72-14.37-14.25-35.61-14.25-21.24 0-35.33 14.28-14.09 14.29-14.09 35.41 0 21.76 14.13 35.73 14.13 13.97 35.01 13.97ZM669.35 15.96h-378.7V-95.7h59.21q33.84 0 50.29-20.91 16.46-20.91 21.76-49.91H160.09v-753.39h639.82v753.39H538.09q5.3 29 21.54 49.91Q575.87-95.7 609-95.7h60.35V15.96Z"/></svg>