<svg xmlns="http://www.w3.org/2000/svg" height="48" viewBox="0 -960 960 960" width="48"><path d="M480-478q49.59 0 84.79-33.94Q600-545.89 600-594.5q0-50.5-35-86T480-716q-49.59 0-83.79 35.5Q362-645 362-595t34.12 83.5Q430.24-478 480-478Zm.04-30q-35.98 0-62.01-25.89Q392-559.77 392-595.26q0-36.3 25.9-63.02Q443.8-685 480.28-685q36.48 0 62.6 26.71 26.12 26.71 26.12 63t-26.13 61.79Q516.74-508 480.04-508Zm-.53 167q10.91 0 19.2-7.41 8.29-7.42 8.29-19.1 0-10.91-8.43-19.2T479.01-395q-11.41 0-18.71 8.29-7.3 8.29-7.3 19.7t7.28 18.71q7.27 7.3 19.23 7.3ZM635-93H324v-35h43q38.38 0 66.19-26.5Q461-181 467-222H236v-622h488v622H493q6 41 33.35 67.5 27.36 26.5 67.63 26.5H635v35Z"/></svg>