<svg xmlns="http://www.w3.org/2000/svg" height="48" viewBox="0 -960 960 960" width="48"><path d="M264.65-267.37h430.7v-547.98h-430.7v547.98Zm215.06-186.98q63.07 0 106.48-43.24 43.42-43.24 43.42-105.09 0-62.58-43.4-106.61-43.4-44.04-105.75-44.04-62.82 0-106.33 44.04-43.5 44.03-43.5 106.36 0 62.34 43.54 105.46 43.53 43.12 105.54 43.12Zm.3-62.04q-36.02 0-61.68-25.16-25.66-25.17-25.66-60.79 0-36.45 25.45-62.58 25.44-26.12 61.46-26.12 36.01 0 61.88 25.88 25.87 25.88 25.87 62.23 0 36.34-25.65 61.44-25.65 25.1-61.67 25.1Zm.49 186.41q12.72 0 21.45-8.47 8.72-8.46 8.72-21.59 0-11.95-8.85-21.13t-21.7-9.18q-12.09 0-20.95 9.2-8.87 9.2-8.87 21.49 0 13.06 8.92 21.37 8.91 8.31 21.28 8.31ZM649.28-70.89H311.72v-62.04h44.3q32.78 0 56.81-19.91t32.5-48.9H199.02v-679.48h562.2v679.48H514.91q8.48 28.88 32.4 48.84 23.93 19.97 56.89 19.97h45.08v62.04ZM480-602.72Z"/></svg>