<svg xmlns="http://www.w3.org/2000/svg" height="20" viewBox="0 -960 960 960" width="20"><path d="M285.83-280.59h388.34v-513.58H285.83v513.58ZM480-466.35q58.49 0 99.19-40.63 40.7-40.63 40.7-99.02 0-58.8-40.7-99.73-40.7-40.92-99.19-40.92-58.49 0-99.19 40.92-40.7 40.93-40.7 99.73 0 58.8 40.7 99.23 40.7 40.42 99.19 40.42Zm-.21-92.58q-19.38 0-33.12-14.05-13.74-14.05-13.74-33.27 0-19.63 13.96-33.72 13.95-14.1 33.32-14.1 19.38 0 33.12 14.28 13.74 14.27 13.74 33.98 0 19.7-13.96 33.29-13.95 13.59-33.32 13.59Zm0 242.02q19.09 0 32.13-12.66 13.04-12.67 13.04-31.73 0-19.07-12.83-32.06-12.83-12.99-31.8-12.99-18.96 0-31.88 12.8-12.93 12.79-12.93 31.71 0 19.18 12.73 32.06 12.73 12.87 31.54 12.87ZM649.11-9.83H310.89v-100.39h50.6q30.23 0 47.15-18.6 16.93-18.59 21.21-46.59h-249.2v-723.94h598.7v723.94h-249.2q4.28 28 20.83 46.59 16.54 18.6 46.46 18.6h51.67V-9.83ZM480-606Z"/></svg>