<svg xmlns="http://www.w3.org/2000/svg" height="24" viewBox="0 -960 960 960" width="24"><path d="M480-450.17q63.17 0 107.63-44.46 44.46-44.46 44.46-107.63 0-63.17-44.46-107.63-44.46-44.46-107.63-44.46-63.17 0-107.63 44.46-44.46 44.46-44.46 107.63 0 63.17 44.46 107.63 44.46 44.46 107.63 44.46Zm0-94.7q-23.67 0-40.53-16.8t-16.86-40.39q0-23.59 16.86-40.59 16.86-17 40.53-17t40.53 16.92q16.86 16.91 16.86 40.67t-16.86 40.47q-16.86 16.72-40.53 16.72Zm.01 223.74q18.69 0 31.88-12.8 13.2-12.8 13.2-31.72 0-18.92-13.2-31.72-13.19-12.8-31.88-12.8-18.69 0-31.33 12.8-12.64 12.8-12.64 31.72 0 18.92 12.64 31.72 12.64 12.8 31.33 12.8ZM655.26-35.35H304.74v-94.69h51.87q27.52 0 43.32-15.24 15.81-15.24 23.42-37.76H180.78v-716.18h598.44v716.18H536.65q8.18 22.52 23.7 37.76 15.52 15.24 43.04 15.24h51.87v94.69Z"/></svg>