<svg xmlns="http://www.w3.org/2000/svg" height="20" viewBox="0 -960 960 960" width="20"><path d="M290.5-258.5h379v-531h-379v531ZM480-489q43.5 0 72.75-28.38T582-590q0-43.5-29.12-73.25T480-693q-43.5 0-72.75 29.75T378-589.75q0 43.75 29.25 72.25T480-489Zm-.15-17.5q-35.21 0-59.78-24.15t-24.57-59.76q0-34.81 24.72-59.45t59.93-24.64q35.21 0 59.78 24.79t24.57 59.6q0 35.61-24.72 59.61t-59.93 24Zm-.06 157q7.71 0 14.46-5.8 6.75-5.79 6.75-14.74 0-7.46-6.54-14.21-6.54-6.75-15-6.75t-14.21 6.65q-5.75 6.65-5.75 14.64t5.55 14.1q5.54 6.11 14.74 6.11ZM603.5-153h-248v-17.5h31.06Q416-170.5 440-190q24-19.5 30-51H273v-566h414v566H490q5.5 31.5 29.24 51t54.07 19.5h30.19v17.5ZM480-590Z"/></svg>