<svg xmlns="http://www.w3.org/2000/svg" height="40" viewBox="0 -960 960 960" width="40"><path d="M273.85-260.21h412.3v-545.94h-412.3v545.94ZM480-466.77q53.79 0 91.26-36.98 37.46-36.98 37.46-90.04 0-54.06-37.46-91.98-37.47-37.92-91.18-37.92-53.72 0-91 37.92-37.29 37.92-37.29 91.64t37.25 90.54q37.24 36.82 90.96 36.82Zm.04-33.85q-39.11 0-66.76-27.42-27.64-27.43-27.64-66.21 0-39.12 27.56-66.97 27.55-27.86 66.67-27.86 39.11 0 67.06 27.83 27.94 27.83 27.94 66.91t-27.85 66.4q-27.86 27.32-66.98 27.32Zm.04 160.83q10.41 0 18.24-7.52 7.83-7.52 7.83-18.64 0-10.33-7.92-18.24-7.92-7.91-18.61-7.91-10.72 0-18.25 7.91-7.52 7.91-7.52 18.7 0 10.8 7.5 18.25 7.51 7.45 18.73 7.45ZM628.26-120H331.13v-33.85h37.59q32.48 0 57.7-20.41 25.22-20.41 33.76-52.1H240V-840h480v613.64H499.82q8.54 31.69 33.71 52.1 25.18 20.41 58.26 20.41h36.47V-120ZM480-594.05Z"/></svg>