<svg xmlns="http://www.w3.org/2000/svg" height="40" viewBox="0 -960 960 960" width="40"><path d="M479.89-462.33q61.11 0 103.61-41.59t42.5-101.3q0-61.11-42.36-103.61t-103.42-42.5q-60.78 0-102.83 42.5-42.06 42.5-42.06 103.28 0 60.77 42.08 102 42.07 41.22 102.48 41.22Zm.26-88q-21.89 0-38.85-17.04-16.97-17.05-16.97-38.05 0-21.97 16.82-39.61 16.81-17.64 39.04-17.64 22.22 0 38.85 17.36 16.63 17.35 16.63 39.5 0 22.14-16.58 38.81t-38.94 16.67ZM480.02-327q18.39 0 29.85-10.52 11.46-10.51 11.46-28.65 0-17.64-11.54-29.57-11.55-11.93-29.27-11.93-17.22 0-28.54 11.94-11.31 11.94-11.31 29.06 0 18.8 11.33 29.24Q463.33-327 480.02-327ZM667.67-11H293v-89.33h58.03q35.79 0 55.04-22.67 19.26-22.67 25.26-53H170.67v-734H790v734H529.33q5.15 30.17 24.5 52.92t55.16 22.75h58.68V-11Z"/></svg>