<svg xmlns="http://www.w3.org/2000/svg" height="24" viewBox="0 -960 960 960" width="24"><path d="M479.85-454.85q58.26 0 99.28-40.53t41.02-99.24q0-58.42-40.96-99.48-40.96-41.05-99.19-41.05-58.42 0-99.29 41.05-40.86 41.06-40.86 99.58 0 58.52 40.86 99.1 40.87 40.57 99.14 40.57Zm.21-55.96q-34.81 0-59.53-24.44-24.72-24.43-24.72-59.4 0-34.67 24.65-59.41 24.66-24.75 59.48-24.75 34.81 0 59.53 24.69 24.72 24.68 24.72 59.34 0 34.97-24.65 59.47-24.66 24.5-59.48 24.5ZM480-332.89q13.19 0 22.94-9.32 9.75-9.33 9.75-23.27 0-13.1-9.75-22.85-9.75-9.75-23.38-9.75-13.64 0-22.85 9.8-9.21 9.79-9.21 23.24 0 13.46 9.23 22.81 9.24 9.34 23.27 9.34Zm149.04 224.81H330.58v-55.96h37.34q26.47 0 47.16-15.31 20.69-15.3 30.23-39.5H228.08v-633.07h503.84v633.07H514.38q9.35 24.2 29.94 39.5 20.6 15.31 47.4 15.31h37.32v55.96Z"/></svg>