<svg xmlns="http://www.w3.org/2000/svg" height="40" viewBox="0 -960 960 960" width="40"><path d="M480-473q50.33 0 85.33-34.33 35-34.32 35-84 0-50.67-35-86.17T480-713q-50.33 0-85 35.5t-34.67 85.83q0 50.34 34.61 84.5Q429.55-473 480-473Zm.03-24q-39.73 0-67.71-27.78-27.99-27.79-27.99-67.14 0-39.63 27.9-67.86Q440.13-688 479.85-688q39.73 0 68.11 28.21 28.37 28.22 28.37 67.84 0 39.62-28.29 67.28Q519.75-497 480.03-497ZM480-344.33q9.33 0 16.67-6.9 7.33-6.9 7.33-17.1 0-9.34-7.43-16.67-7.42-7.33-17.07-7.33-9.83 0-16.67 7.33-6.83 7.33-6.83 17.17 0 9.83 6.81 16.66 6.81 6.84 17.19 6.84ZM623.33-132H335.67v-24h36.66q33.59 0 59.8-21.83 26.2-21.84 34.2-55.84H252V-828h456v594.33H493.67q8 34 34.15 55.84Q553.97-156 588.33-156h35v24Z"/></svg>