<svg xmlns="http://www.w3.org/2000/svg" height="40" viewBox="0 -960 960 960" width="40"><path d="M480-516.64ZM144.17-710q0-28.14 15.67-50.92 15.66-22.78 41.61-32.47l247.68-92.6q15.2-5.65 30.87-5.65 15.67 0 30.87 5.65l247.68 92.6q25.95 9.69 41.8 32.47Q816.2-738.14 816.2-710v67.49q0 18.88-13.04 31.38-13.04 12.51-31.56 12.51-18.51 0-31.22-12.44-12.7-12.43-12.7-30.88V-710L480-803.26 232.32-710v189.33q0 83.54 35.06 159.99 35.07 76.45 98.76 129.43 13.22 12.86 12.44 30.76-.78 17.91-13.64 30.75-12.85 12.84-30.69 12.36-17.83-.48-31.05-13.33-75.59-63.91-117.31-157.01-41.72-93.09-41.72-192.95V-710ZM863.3-96.36q-13.35 12.87-31.11 12.53-17.76-.33-30.96-12.87l-100.2-99.68q-5.46 1.67-21.03 2.92-35.89 0-61.21-25.37-25.33-25.37-25.33-61.31 0-35.95 25.31-61.17 25.3-25.23 61.5-25.23 35.63 0 60.67 25.25 25.03 25.25 25.03 61.37 0 1.61-2.53 20.57l99.86 100.92q13.02 13.19 13.02 31.29T863.3-96.36ZM422.94-280q0-106.66 74.72-181.43 74.71-74.77 181.91-74.77 103.52 0 177.35 70.94 73.82 70.94 78.72 172.64 0 18.5-13.1 31.57-13.11 13.06-31.66 13.06t-31.25-13.06q-12.7-13.07-12.7-31.57-4.9-66.16-52.95-110.89-48.05-44.74-115.37-44.74-69.58 0-118.65 48.74Q510.9-350.77 510.9-280q0 67.12 45.01 114.95 45.02 47.83 110.8 52.17 18.5 0 31.29 12.82 12.78 12.82 12.78 31.55 0 18.74-12.78 31.45-12.79 12.7-31.29 12.7-102.45-4.9-173.11-78.48-70.66-73.58-70.66-177.16Z"/></svg>