<svg xmlns="http://www.w3.org/2000/svg" height="40" viewBox="0 -960 960 960" width="40"><path d="M480-496.17ZM202.54-691.18q0-17.73 10.32-32.66 10.33-14.93 27-21.16l220.41-81.82q9.97-3.36 19.73-3.36t20.45 3.36L720.86-745q15.95 6.23 26.28 21.16 10.32 14.93 10.32 32.96v113.5q0 7.12-4.92 11.49-4.93 4.36-11.45 4.36t-11.29-4.36q-4.77-4.37-4.77-11.49v-114.27q0-7.31-4.23-13.66-4.24-6.34-11.93-9.42l-220.41-81.99q-3.84-1.54-8.46-1.54-4.62 0-8.46 1.54l-220.41 81.88q-7.69 3.07-11.93 9.42-4.23 6.35-4.23 13.65v173.67q0 98.31 43.47 181.43 43.46 83.11 123.57 139.35 5.23 4.42 6.4 10.74 1.17 6.31-2.28 11.9-3.45 5.59-10.36 6.72-6.91 1.13-12.14-2.58-85.71-57.69-133.4-151.15-47.69-93.46-47.69-196.41v-173.08ZM822.03-138.1q-5.73 4.81-12.14 4.64-6.4-.17-10.77-5.07l-95.4-94.68q-4.66 2.44-23.72 5.98-21.77 0-37.27-15.71-15.5-15.72-15.5-37.37t15.59-37.06q15.59-15.4 37.49-15.4 21.9 0 37.18 15.49 15.28 15.48 15.28 37.23 0 3.32-5.98 23.88l94.99 94.26q4.64 5.7 4.7 12.21.06 6.5-4.45 11.6ZM482.88-279.94q0-83.24 56.63-140.24 56.63-57 139.89-57 82.43 0 140.11 56.96 57.67 56.95 57.67 140.22 0 7.13-4.93 11.49-4.92 4.37-11.44 4.37t-11.29-4.37q-4.78-4.36-4.78-11.49 0-69.02-48.49-116.88-48.5-47.86-116.61-47.86-68.1 0-116.21 47.83T515.32-280.1q0 68.63 48.09 116.73 48.08 48.11 116.82 48.11 6.23 0 10.96 4.83 4.73 4.82 4.73 11.19 0 7.19-4.81 11.8-4.81 4.62-11.16 4.62-83.21 0-140.14-56.94-56.93-56.93-56.93-140.18Z"/></svg>