<svg xmlns="http://www.w3.org/2000/svg" height="20" viewBox="0 -960 960 960" width="20"><path d="M480-525.57ZM148.78-689.91q0-31.17 17.02-56.11 17.03-24.94 45.94-35.76l233.22-89.18q16.95-6.69 35.04-6.69t35.04 6.69l233.22 89.18q28.91 10.82 45.94 35.74 17.02 24.92 17.02 56.06v23.78q0 20.5-14.25 34.68-14.24 14.17-34.54 14.17-20.3 0-34.76-13.83-14.45-13.82-14.45-34.34v-24.39L480-779.09l-233.22 89.18V-515q0 66.7 25.44 129.74 25.43 63.04 70.87 111.65 13.4 15.43 11.5 35.35-1.9 19.91-17.55 33.17-15.65 13.26-35.74 11.72-20.08-1.54-33.35-17.2-57-61.87-88.08-140.86-31.09-78.99-31.09-163.57v-174.91Zm703.79 582.48q-14.96 14.95-34.71 14.95-19.76 0-34.38-14.95l-95.87-95.31q-7.13 2-15.61.87-35.92 0-61.02-25.17-25.11-25.17-25.11-61.17 0-36.01 25.17-60.96 25.17-24.96 61.17-24.96 35.44 0 60.4 25.11 24.96 25.1 24.96 61.02 0-2.7-.87 15.61l95.87 95.87q14.39 14.3 14.39 34.5 0 20.19-14.39 34.59ZM412.22-288q0-107.91 75.65-183.57 75.65-75.65 183.56-75.65 104.53 0 179.05 71.13 74.52 71.13 80.17 172.83 0 20.09-14.53 34.82-14.52 14.74-34.82 14.74t-34.76-14.59q-14.45-14.58-14.45-34.97-5.66-62.65-50.98-104.59-45.33-41.93-109.68-41.93-67.73 0-114.76 46.74Q509.65-356.3 509.65-288q0 64.35 42.22 109.96 42.22 45.6 104.87 50.69 20.39 0 34.69 14.25 14.31 14.24 14.31 34.54 0 20.3-14.31 34.76-14.3 14.45-34.69 14.45Q553.91-35 483.06-109.52 412.22-184.04 412.22-288Z"/></svg>