<svg xmlns="http://www.w3.org/2000/svg" height="48" viewBox="0 -960 960 960" width="48"><path d="M480-507.31Zm-315-201q0-22.82 12.69-41.08 12.68-18.25 33.77-26.99l244.31-91.08q11.61-4 24.23-4 12.62 0 25.23 4l244.31 91.08q20.11 8.28 32.78 26.68Q795-731.31 795-708.31v94.77q0 12.65-8.57 21.17-8.57 8.52-20.32 8.52-11.73 0-20.61-7.02-8.89-7.02-8.89-21.67v-96.15q0-3.85-2.11-6.92-2.12-3.08-5.96-4.62l-244.31-92.08q-1.92-.77-4.23-.77-2.31 0-4.23.77l-244.31 92.05q-3.84 1.54-5.96 4.61-2.11 3.08-2.11 6.93v187.64q0 94.63 41.04 177.69 41.05 83.06 116.42 139.31 8.3 8.46 8.42 20.39.11 11.92-7.15 20.73-7.27 8.8-19.89 8.92-12.61.12-20.92-7.35-83.54-61.92-129.92-158.27Q165-416.02 165-521.08v-187.23Zm683.77 597.58q-9.08 8.57-20.5 8.57t-19.12-9.07L703.62-214.77q-3.73 2.38-23.21 5.15-30.16 0-50.47-20.67-20.32-20.67-20.32-50.09 0-29.41 20.36-50.21 20.36-20.79 49.95-20.79 29.6 0 50.03 20.97 20.42 20.96 20.42 50.41 0 4.52-4.15 23.62l102.54 104.15q9.07 9.42 9.07 21.17 0 11.75-9.07 20.33ZM443.39-279.67q0-99.25 68.04-167.79Q579.48-516 678.78-516q98.88 0 168.05 68.31Q916-379.38 916-280q0 11.67-8.77 20.18-8.76 8.51-20.87 8.51-12.12 0-19.93-8.51-7.82-8.51-7.82-20.18 0-75.13-52.51-126.87-52.52-51.74-126.97-51.74-74.44 0-126.4 51.65-51.96 51.65-51.96 126.15t52.09 126.46q52.1 51.96 126.52 51.96 12.22 0 20.46 8.86t8.24 21.1q0 12.25-8.25 20.34T679.38-44q-98.71 0-167.35-68.21-68.64-68.22-68.64-167.46Z"/></svg>