<svg xmlns="http://www.w3.org/2000/svg" height="20" viewBox="0 -960 960 960" width="20"><path d="M852.57-107.43q-14.96 14.95-34.71 14.95-19.76 0-34.38-14.95l-95.87-95.31q-7.13 2-15.61.87-35.92 0-61.02-25.17-25.11-25.17-25.11-61.17 0-36.01 25.17-60.96 25.17-24.96 61.17-24.96 35.44 0 60.4 25.11 24.96 25.1 24.96 61.02 0-2.7-.87 15.61l95.87 95.87q14.39 14.3 14.39 34.5 0 20.19-14.39 34.59ZM148.78-515v-174.91q0-31.17 17.02-56.11 17.03-24.94 45.94-35.76l233.22-89.18q16.95-6.69 35.04-6.69t35.04 6.69l233.22 89.18q28.91 10.82 45.94 35.76 17.02 24.94 17.02 56.11v25.13q0 26.78-22.07 43.3-22.08 16.52-49.15 9.26-17.57-4-34.38-5.5-16.82-1.5-34.19-1.5-135.08 0-230.89 93.83-95.8 93.82-99.76 228.31 0 31.6 6.22 61.67 6.22 30.06 16.65 60.19 6.7 16.05-6.18 26.05-12.87 10-25.43 1.17-85.64-64.16-134.45-161.93Q148.78-407.7 148.78-515Zm263.44 227q0-107.91 75.65-183.57 75.65-75.65 183.56-75.65 104.53 0 179.05 71.13 74.52 71.13 80.17 172.83 0 20.09-14.53 34.82-14.52 14.74-34.82 14.74t-34.76-14.59q-14.45-14.58-14.45-34.97-5.66-62.65-50.98-104.59-45.33-41.93-109.68-41.93-67.73 0-114.76 46.74Q509.65-356.3 509.65-288q0 64.35 42.22 109.96 42.22 45.6 104.87 50.69 20.39 0 34.69 14.25 14.31 14.24 14.31 34.54 0 20.3-14.31 34.76-14.3 14.45-34.69 14.45Q553.91-35 483.06-109.52 412.22-184.04 412.22-288Z"/></svg>