<svg xmlns="http://www.w3.org/2000/svg" height="40" viewBox="0 -960 960 960" width="40"><path d="M480-501.49ZM180-702.92q0-20 11.33-36.01 11.34-16 29.31-23.2l237.44-88.38q11.36-4.21 21.92-4.21 10.56 0 21.92 4.21l237.44 88.38q17.97 7.2 29.31 23.2Q780-722.92 780-702.92v104.33q0 10.68-7.26 17.91-7.27 7.22-18 7.22-10.74 0-17.87-7.22-7.13-7.23-7.13-17.91v-104.72q0-3.84-2.11-6.92-2.12-3.08-5.96-4.62L484.23-803.9q-1.92-.77-4.23-.77-2.31 0-4.23.77l-237.44 89.05q-3.84 1.54-5.96 4.62-2.11 3.08-2.11 6.92v183.93q0 95.51 41.76 178.93 41.77 83.43 118.31 139.94 8.65 6.41 9.99 16.48 1.35 10.08-4.93 18.72-6.29 8.64-16.45 9.89-10.17 1.24-18.81-5.17-84.92-61.46-132.53-157.61Q180-414.35 180-519.38v-183.54ZM837.77-121.9q-7.82 7.49-17.8 7.16-9.97-.34-17.53-7.49l-98.77-98.31q-4.19 2.05-23.67 4.82-26.52 0-45.4-18.97t-18.88-45.39q0-26.43 18.91-45.32 18.9-18.88 45.45-18.88 26.55 0 45.38 18.88 18.82 18.88 18.82 45.4 0 3.38-4.82 23.67l98.31 98.71q7.82 8.05 7.82 18.14t-7.82 17.58ZM459.59-279.91q0-91.88 64.08-155.99Q587.75-500 679.78-500q91.76 0 155.99 64.04T900-280q0 10.68-7.26 17.9-7.27 7.23-18 7.23-10.74 0-17.87-7.23-7.13-7.22-7.13-17.9 0-70.52-50.04-120.13t-120.3-49.61q-70.27 0-119.91 49.6t-49.64 120.1q0 70.5 49.61 120.14t120.13 49.64q10.7 0 17.91 7.27 7.22 7.26 7.22 18 0 10.73-7.23 17.86-7.22 7.13-17.9 7.13-91.92 0-155.96-64.01t-64.04-155.9Z"/></svg>