<svg xmlns="http://www.w3.org/2000/svg" height="20" viewBox="0 -960 960 960" width="20"><path d="M480-499.69ZM208-677.31q0-18.27 9.71-32.89 9.71-14.62 26.29-21.03l215.38-82q10.7-4.23 20.62-4.23 9.92 0 20.62 4.23l215.38 82q16.58 6.41 26.29 21.01 9.71 14.6 9.71 32.85v88.57q0 6.92-4.55 11.67-4.54 4.75-11.27 4.75-6.72 0-11.45-4.69-4.73-4.69-4.73-11.61v-89.4q0-7.69-4.23-13.84-4.23-6.16-11.92-9.23l-215.39-82q-3.84-1.54-8.46-1.54-4.62 0-8.46 1.54l-215.39 82q-7.69 3.07-11.92 9.23-4.23 6.15-4.23 13.84V-515q0 89.54 38.9 165.86 38.91 76.32 109.72 130.37 5.75 4.39 6.3 10.27.54 5.88-4.07 11.5-4.62 5.62-11.16 6.62T367.54-194q-75.39-56.08-117.46-141.44Q208-420.81 208-515v-162.31Zm602.54 527.85q-5.62 5.61-11.44 5.61-5.82 0-11.1-5.61l-95.46-94.69q-6.22 2.77-20.54 4.3-19.86 0-34.01-14.17-14.14-14.17-14.14-34.08 0-19.9 14.17-33.98 14.17-14.07 34.08-14.07 19.9 0 33.98 14.14 14.07 14.15 14.07 34.01 0-.78-4.3 20.54l94.69 94.69q5.61 5.53 5.61 11.61 0 6.08-5.61 11.7ZM472-287.82q0-83.26 58.28-141.72Q588.56-488 671.82-488q83.26 0 141.72 58.33Q872-371.33 872-288q0 6.5-4.55 11.25-4.54 4.75-11.27 4.75-6.72 0-11.45-4.6Q840-281.2 840-288q0-70-49-119t-119-49q-70 0-119 49t-49 119q0 70 49 119t119 49q6.84 0 11.42 4.55 4.58 4.54 4.58 11.27 0 6.72-4.6 11.45Q678.8-88 672-88q-83.33 0-141.67-58.28Q472-204.56 472-287.82Z"/></svg>