<svg xmlns="http://www.w3.org/2000/svg" height="48" viewBox="0 -960 960 960" width="48"><path d="M865.26-94.74q-12.69 12.7-29.46 12.41-16.76-.28-27.89-12.41L702.3-198.35q-5.69 2-21.89 3.44-36.12 0-60.81-24.91-24.69-24.91-24.69-60.4 0-35.49 24.69-60.68 24.69-25.19 60.18-25.19 36.06 0 60.4 25.34 24.34 25.34 24.34 60.75 0 2.17-1.87 21.74l102.61 105.17q13.26 12.13 12.98 29.39-.28 17.27-12.98 28.96ZM141.04-522.86v-193.05q0-26.61 14.94-48.31 14.94-21.7 39.85-31.3l255.78-95.74q13.13-4.57 28.39-4.57t29.39 4.57l255.78 95.74q23.93 9.14 39.14 30.98t15.21 48.63v83.3q0 22.99-18.98 37.39-18.97 14.39-42.93 5.7-19.05-3.87-38.24-6.87-19.2-3-39.94-3-132.4 0-224.41 90.59-92.02 90.58-94.85 222.17 0 40.29 10.5 80.35 10.5 40.06 30.37 75.06 4.44 13.26-3.69 22.11t-19.83 1.15q-110.17-61.69-173.32-175.7-63.16-114-63.16-239.2Zm278.57 243.1q0-108.94 75.35-184.28 75.34-75.35 183.53-75.35 105.93 0 180.87 71.51 74.94 71.5 79.47 176.58 0 17.28-12.1 29.46-12.1 12.19-30.03 12.19t-29.27-12.19q-11.34-12.18-11.34-29.46-4.53-70.57-55.09-117.96-50.57-47.39-121.96-47.39-73.65 0-125.17 50.99-51.52 50.99-51.52 124.91 0 71.1 48.02 121.49t117.89 54.35q17.81 0 29.45 11.9 11.64 11.91 11.64 30.25 0 18.35-11.64 29.97-11.64 11.62-29.45 11.62-104.41-4.53-176.53-78.51t-72.12-180.08Z"/></svg>