<svg xmlns="http://www.w3.org/2000/svg" height="40" viewBox="0 -960 960 960" width="40"><path d="M852-108q-10 10-23.5 9.67Q815-98.67 805-108L703.67-209q-4.34 1.67-23.67 3.67-31 0-52.83-21.84Q605.33-249 605.33-280t21.84-52.83Q649-354.67 680-354.67t52.83 21.84Q754.67-311 754.67-280q0 3.67-3.67 23.67l101 101.66q10 10 10 23.67 0 13.67-10 23ZM160-520.67v-193.66q0-21 12.17-38 12.16-17 31.16-24.67l253.34-94.67q12-4.33 23.33-4.33 11.33 0 23.33 4.33L756.67-777q19 7.67 31.16 24.67 12.17 17 12.17 38V-613q0 19-15 29.5t-33.67 5.5q-17.66-4.33-35.16-6.5-17.5-2.17-36.17-2.17-128 0-217.67 89.34Q372.67-408 372.67-280q0 38 9.5 74.17 9.5 36.16 26.83 69.16 5 9.34-2.17 16.84-7.16 7.5-15.83 2.83-108-59-169.5-170.17Q160-398.33 160-520.67ZM439.33-280q0-100 70.34-170Q580-520 680-520q100 0 170 70t70 170q0 14.33-9.5 23.83-9.5 9.5-23.83 9.5-14.34 0-23.84-9.5t-9.5-23.83q0-72-51-122.67-51-50.66-123-50.66t-122.66 50.66Q506-352 506-280t50.67 122.67q50.66 50.66 122.66 50.66 14.34 0 23.84 9.5t9.5 23.84q0 14.33-9.5 23.83-9.5 9.5-23.84 9.5-100 0-170-70t-70-170Z"/></svg>