<svg xmlns="http://www.w3.org/2000/svg" height="40" viewBox="0 -960 960 960" width="40"><path d="M814.42-146.17q-4.42 3.84-9 3.67-4.59-.17-7.38-3.76l-94.2-93.41Q699.15-237 680-233q-19.88 0-33.44-13.71Q633-260.41 633-279.96q0-19.54 13.55-33.29Q660.09-327 679.96-327q19.86 0 33.45 13.56Q727-299.88 727-280q0 3.67-6.67 23.67l93.84 93q3.33 4.28 3.33 8.97t-3.08 8.19ZM213.5-517.33V-684.5q0-17.27 10.07-31.87 10.07-14.61 26.1-20.63L461-815.17q9.58-3.16 19-3.16t19.83 3.16L711.17-737q15.19 6.02 25.26 20.63 10.07 14.6 10.07 31.87v92.17q0 15.72-11.83 24.86-11.84 9.14-26.5 7.14-7.5-.5-14.35-.84-6.85-.33-13.82-.33-117.33 0-199.25 82.02T398.83-280q0 22.38 3.34 43.86 3.33 21.47 11.33 41.97 2.67 9.43-4.33 15.13-7 5.71-14.67.37-85.5-54.66-133.25-146.21-47.75-91.54-47.75-192.45ZM494-279.88q0-78.95 53.33-132.7 53.32-53.75 132.1-53.75 77.9 0 132.4 53.66Q866.33-359 866.33-280q0 5.43-3.29 8.3-3.3 2.87-8.34 2.87-5.03 0-8.28-2.87-3.25-2.87-3.25-8.3 0-68.32-47.84-115.74-47.84-47.43-115.09-47.43-67.74 0-115.41 47.4-47.66 47.39-47.66 115.66 0 67.94 47.59 115.61t115.57 47.67q4.65 0 7.91 3.29 3.26 3.3 3.26 7.92 0 5.45-3.28 8.7-3.29 3.25-7.89 3.25-79.16 0-132.75-53.63Q494-200.93 494-279.88Z"/></svg>