<svg xmlns="http://www.w3.org/2000/svg" height="20" viewBox="0 -960 960 960" width="20"><path d="M480-536.91ZM128.96-692.78q0-36.58 20.35-65.83 20.34-29.26 53.95-42l236.09-90.61q19.26-8.13 40.65-8.13 21.39 0 40.65 8.13l236.09 90.61q33.61 12.74 53.95 41.98 20.35 29.23 20.35 65.78v-2.52q0 23.58-16.94 40.45-16.95 16.88-40.32 16.88-22.74 0-40.22-14.33-17.47-14.33-17.47-41.88v1.47L480-782.83l-236.09 89.98V-515q0 59.45 20.05 116.98 20.04 57.54 56.56 105.58 14.27 19.17 10.72 42.39-3.54 23.22-22.94 37.64-19.39 14.41-43 11.21-23.61-3.19-38.3-22.58-47.09-63.31-72.57-137.78-25.47-74.47-25.47-153.44v-177.78ZM866.65-92.35q-16.82 16.83-39.88 17.05-23.06.21-39.99-17.05l-100.61-99.04q-4.69 1-14.17-.13-40.1 0-68.79-28.26-28.69-28.25-28.69-68.44t28.75-68.72q28.75-28.54 69.22-28.54 39.9 0 67.66 28.69 27.76 28.69 27.76 68.79 0-.83.13 15.17l98.61 99.61q16.83 16.61 17.05 40.11.21 23.5-17.05 40.76ZM391.52-287.9q0-116.49 81.54-198.25 81.55-81.76 198.17-81.76 113.23 0 193.85 76.79 80.62 76.79 86.27 187.86 0 23.16-16.83 40.6-16.84 17.44-40.79 17.44-23.96 0-40.43-17.29t-16.47-40.75q-5.66-64.96-52.42-108.33-46.76-43.37-113.19-43.37-69.83 0-118.28 48.18-48.46 48.17-48.46 118.56 0 66.44 43.61 113.48 43.61 47.04 108.21 52.13 23.57 0 40.03 16.55 16.45 16.55 16.45 40.51 0 23.95-16.45 40.42Q679.87-8.65 656.3-8.65 545.04-14.3 468.28-94.83T391.52-287.9Z"/></svg>