<svg xmlns="http://www.w3.org/2000/svg" height="20" viewBox="0 -960 960 960" width="20"><path d="M863.39-95.61q-15.19 15.2-36.3 15.58-21.1.38-36.72-15.58L687.8-196.93q-3.71 1-15.8.52-38.15 0-65.37-26.79-27.22-26.79-27.22-65.02t27.28-65.3q27.28-27.07 65.51-27.07 38.23 0 64.69 27.22T763.35-288q0 .8-.52 16.8l100.56 101.57q15.2 15.63 15.58 36.85.38 21.21-15.58 37.17ZM134.17-515v-181.37q0-33.53 18.56-60.23 18.56-26.71 49.23-38.47l240.65-92.56q17.96-7.48 37.39-7.48t37.39 7.48l240.65 92.56q30.67 11.76 49.23 38.47 18.56 26.7 18.56 60.23v12.96q0 28.91-24.58 47.11-24.57 18.19-53.68 9.47-18.94-4.76-37.65-6.64-18.71-1.88-38.16-1.88-143.88 0-244.66 100.64-100.77 100.64-102.45 242.85 0 32.04 6 62.66 6 30.61 16.52 61.85 7.24 17.39-5.75 28.01-12.99 10.62-26.12.67-86.05-67.16-133.59-167.22Q134.17-405.96 134.17-515Zm262.24 227.24q0-114.67 80.08-195.13t194.8-80.46q113.53 0 193.48 78.26 79.95 78.26 82.34 190.63 0 21.44-15.37 37.13-15.36 15.7-37.2 15.7-21.83 0-36.84-15.55-15-15.54-15-37.28-2.4-70.17-51.6-117.94-49.21-47.77-119.6-47.77-72.07 0-121.99 49.8T499.59-288.5q0 70.63 47.94 119.96 47.95 49.32 117.25 51.47 21.84 0 36.71 15.25 14.88 15.25 14.88 37.2 0 21.72-14.88 36.72-14.87 15.01-36.71 15.01-112.2-2.39-190.28-82.14-78.09-79.74-78.09-192.73Z"/></svg>