<svg xmlns="http://www.w3.org/2000/svg" height="20" viewBox="0 -960 960 960" width="20"><path d="M845.32-114.43q-14.21 14.45-32.71 14.45-18.51 0-32.75-14.55l-92.91-92.21q-7.04 2-14.95.87-34.27 0-58.2-24.02-23.93-24.03-23.93-58.43t24.02-58.1q24.03-23.71 58.43-23.71 33.83 0 57.54 23.93t23.71 58.2q0-3.2-.87 15.61l92.37 92.37q13.39 13.8 13.64 32.75.25 18.94-13.39 32.84ZM157.78-515v-171.41q0-29.65 16.05-53.37 16.04-23.72 43.41-34l229.22-88.18q16.2-6.69 33.54-6.69t33.54 6.69l229.22 88.18q27.37 10.28 43.41 34 16.05 23.72 16.05 53.37v38.13q0 25.28-20.82 41.55-20.83 16.27-46.9 9.01-16.57-3.5-31.9-5-15.34-1.5-31.17-1.5-128.58 0-220.39 89.47-91.8 89.47-95.76 217.67 0 32.11 6.72 62.67 6.72 30.56 18.15 60.69 6.7 15.43-5.18 24.99-11.87 9.56-23.93 1.23-90.14-60.66-141.7-159.72-51.56-99.06-51.56-207.78Zm263.94 226.88q0-103.79 72.88-176.45 72.88-72.65 176.83-72.65 100.03 0 171.8 68.22 71.77 68.21 77.42 165.74 0 18.59-14.03 32.82-14.02 14.24-32.82 14.24t-32.76-14.09q-13.95-14.08-13.95-32.97-5.66-61.15-49.48-101.34-43.83-40.18-106.68-40.18-66.23 0-111.51 44.99Q514.15-354.8 514.15-288q0 62.85 40.47 106.71 40.47 43.85 101.62 48.94 18.89 0 32.69 13.75 13.81 13.74 13.81 32.54 0 18.8-13.81 32.76-13.8 13.95-32.69 13.95-98.33-5.65-166.43-77.29-68.09-71.64-68.09-171.48Z"/></svg>