<svg xmlns="http://www.w3.org/2000/svg" height="40" viewBox="0 -960 960 960" width="40"><path d="M480-497.64ZM200-691.51q0-18.84 10.58-33.9 10.58-15.07 27.37-21.85l221.54-82.1q10.72-4.08 20.51-4.08 9.79 0 20.51 4.08l221.54 82.1q16.79 6.78 27.37 21.85Q760-710.35 760-691.51v109.33q0 7.19-4.91 12.06-4.91 4.86-12.17 4.86-7.25 0-12.01-4.86-4.76-4.87-4.76-12.06v-110.1q0-7.69-4.23-13.85-4.23-6.15-11.92-9.23l-221.54-82.77q-3.84-1.54-8.46-1.54-4.62 0-8.46 1.54L250-715.36q-7.69 3.08-11.92 9.23-4.23 6.16-4.23 13.85v174.18q0 97.69 42.53 179.71Q318.91-256.38 397-199.36q5.95 4.49 6.97 10.98 1.03 6.48-3.2 12.43-4.23 5.95-11.06 6.94-6.84.98-12.79-3.5-83.51-58.26-130.21-150.89Q200-416.04 200-518.1v-173.41Zm623.54 555.38q-5.64 5.31-12.09 4.98-6.45-.34-11.58-5.31l-96.2-95.62q-4.04 2.44-23.67 5.98-22.23 0-38.07-15.96-15.83-15.97-15.83-37.97t15.84-37.93q15.84-15.94 38.09-15.94 22.24 0 38.05 15.83Q733.9-302.23 733.9-280q0 3.38-5.98 23.67l95.62 95.77q5.64 5.91 5.64 12.52 0 6.6-5.64 11.91ZM479.85-279.82q0-83.77 57.96-141.98Q595.77-480 679.56-480q83.52 0 141.98 58.08Q880-363.85 880-280q0 7.19-4.91 12.06-4.91 4.86-12.17 4.86-7.25 0-12.01-4.86-4.76-4.87-4.76-12.06 0-69.04-48.92-117.6-48.92-48.55-117.61-48.55-68.7 0-117.31 48.53-48.62 48.53-48.62 117.54 0 69 48.56 117.62 48.56 48.61 117.6 48.61 7.23 0 12.07 4.91 4.85 4.91 4.85 12.17t-4.87 12.01Q687.04-80 679.85-80 596-80 537.92-138.02q-58.07-58.03-58.07-141.8Z"/></svg>