<svg xmlns="http://www.w3.org/2000/svg" height="48" viewBox="0 -960 960 960" width="48"><path d="M480-510ZM145-721q0-23.47 13.12-42.25Q171.23-782.03 193-791l262-98q12-4 25-4t26 4l262 98q20.79 8.51 33.89 27.43Q815-744.65 815-721v94q0 15.75-10.66 26.37Q793.67-590 778.82-590 764-590 753-599.13q-11-9.12-11-26.87v-95l-262-99-262 98.97V-523q0 94.24 41.5 180.12Q301-257 377-201q11 10 11.5 25t-8.5 26.5q-9 11.5-24.5 12T329-146q-87-65-135.5-166.24Q145-413.48 145-523v-198ZM863-96.5Q852-86 837.5-86T813-97L704-204q-4 2-23.59 4-34.12 0-57.27-23.42Q600-246.85 600-280.43q0-33.59 23.2-57.08Q646.41-361 679.99-361q33.59 0 56.8 23.79Q760-313.41 760-280q0 4.57-3 24l106 108q11 11.27 11 26.14 0 14.86-11 25.36ZM423-279.76Q423-387 497.29-461.5 571.58-536 679.06-536q107.06 0 182 74.33Q936-387.33 936-280q0 14.77-10.86 25.39Q914.28-244 899.07-244t-25.14-10.61Q864-265.23 864-280q0-77.35-54.2-130.67Q755.6-464 678.8-464t-130.3 53.25q-53.5 53.25-53.5 130t53.67 130.25Q602.35-97 679-97q15.3 0 25.65 10.95Q715-75.1 715-59.75q0 15.34-10.35 25.55Q694.3-24 679-24q-106.67 0-181.33-74.26Q423-172.53 423-279.76Z"/></svg>