<svg xmlns="http://www.w3.org/2000/svg" height="48" viewBox="0 -960 960 960" width="48"><path d="M480-511.91ZM143.33-718.85q0-24.81 13.83-44.83t37.04-29.23l259.37-97.05q12.47-4.24 26.43-4.24 13.96 0 27.43 4.24l259.37 97.05q22.23 8.75 36.17 28.91 13.94 20.16 13.94 45.15v88.02q0 16.85-11.45 28-11.45 11.16-27.13 11.16-16.24 0-27.6-10.22-11.36-10.22-11.36-27.94v-89.02L480-816.65l-259.37 97.77V-523q0 92 40.54 176.25 40.55 84.25 114.4 138.82 11.23 10.71 11.14 26.67-.1 15.96-9.82 27.58-9.72 11.61-26.05 11.76-16.34.14-27.82-9.58-85.09-64.52-132.39-164.1-47.3-99.59-47.3-207.4v-195.85ZM863.96-95.54q-11.82 11.21-27.23 11.09-15.4-.12-25.88-11.59L703.28-201.61q-4.71 2-22.87 3.76-34.84 0-58.7-24.14t-23.86-58.44q0-34.31 23.88-58.51 23.88-24.21 58.46-24.21 34.34 0 58.03 24.46 23.69 24.46 23.69 58.74 0 3.33-2.52 22.99l104.57 106.81q11.95 11.75 11.83 27.57-.12 15.82-11.83 27.04ZM421.57-279.82q0-107.82 74.65-182.72 74.65-74.89 182.8-74.89 106.3 0 181.28 73.13 74.98 73.14 76.9 179.52 0 15.63-11.46 27.01t-27.75 11.38q-16.28 0-26.81-11.38-10.53-11.38-10.53-27.01-1.91-74.48-54.68-125.3-52.76-50.81-127.29-50.81-75.25 0-127.91 52.27-52.66 52.26-52.66 127.99 0 74.25 51.24 126.43 51.24 52.18 125.11 53.85 16.16 0 27.15 11.43 11 11.43 11 27.97t-11 27.34Q690.62-22.8 674.46-22.8q-105.73-1.92-179.31-76.12t-73.58-180.9Z"/></svg>