<svg xmlns="http://www.w3.org/2000/svg" height="24" viewBox="0 -960 960 960" width="24"><path d="M868.75-91q-18.25 18.5-42.5 18.5t-42.87-18.6L694.34-180q-4.91 1-14.34 1-42.35 0-71.67-29.36Q579-237.71 579-280.11q0-42.39 29.36-71.64Q637.71-381 680.11-381q41.39 0 70.64 29.33Q780-322.35 780-280q0-.5-1 15l89.5 89.5q17 17.5 17.25 42.25t-17 42.25ZM135-516v-176.5q0-38.48 21.52-69.26 21.53-30.79 56.98-44.24l224-84q20.25-8 42.5-8t42.5 8l224 84q35.45 13.45 56.98 44.24Q825-730.98 825-692.5v14q0 33.5-27.25 53.75T736.5-613.5q-15-2.5-29.02-4Q693.47-619 679-619q-136.5 0-234 93.64T340.5-296q0 33.51 6.5 66.5 6.5 33 18.5 64 8 20.38-7.5 31.94-15.5 11.56-31 1.06-89.5-66.5-140.75-169.29Q135-404.59 135-516Zm279.5 235.88Q414.5-390 491.73-467T679-544q103.5 0 178.75 69.08Q933-405.83 943-307q0 24.5-18.5 43t-43 18.5q-24.5 0-42.5-18.5t-18-43q-10-51.5-49-84.25T678.5-424q-60.5 0-102.25 41.25T534.5-280q0 54.5 33.25 93.75T652.5-138q24.5 0 42.5 18t18 42.5Q713-53 695-35t-42.5 18Q552-27 483.25-102.12t-68.75-178Z"/></svg>