<svg xmlns="http://www.w3.org/2000/svg" height="40" viewBox="0 -960 960 960" width="40"><path d="M480-527ZM130-707.33q0-33.75 18.99-61.21t50.68-39.13l244-91.33q16.66-6.33 36.33-6.33 19.67 0 37 6.33l244 91.33q31.03 11.36 50.35 38.92 19.32 27.55 19.32 61.42V-666q0 22.77-16.04 37.88Q798.6-613 777.16-613 754-613 739-628.12q-15-15.13-15-36.88v-42.33l-244-91-244 90.95v186.71q0 75.13 30.5 145.57 30.5 70.43 85.17 119.43Q365-239.33 362-217.5q-3 21.83-18.67 35.33-15.66 13.5-37.49 11.17-21.84-2.33-36.17-18Q203-252.67 166.5-339.7 130-426.74 130-520.67v-186.66ZM872.67-86.67Q856.4-71 835.03-71.33 813.67-71.67 799-87l-100.33-98.67q-5.67 1.34-18.4 2-40.08 0-68.51-28.45-28.43-28.45-28.43-68.17 0-39.73 28.36-68.39 28.36-28.65 69.03-28.65 39.66 0 67.14 28.72 27.47 28.73 27.47 68.75 0-.09-.66 18.19l98 100.34q16.66 15.18 16.33 37.09-.33 21.91-16.33 37.57ZM409-280q0-112.78 78.36-191.39Q565.72-550 678.92-550q106.92 0 184.17 71.17 77.24 71.16 85.91 176.5 0 21.45-15.57 37.55-15.58 16.11-38.24 16.11-22.66 0-37.43-16.11Q843-280.88 843-302.33q-8.67-61.57-54.63-101.95-45.97-40.39-109.84-40.39-67.86 0-116.03 47.43-48.17 47.42-48.17 117.07 0 63.21 40.96 109.19t102.38 53.65q21.83 0 37.08 15.13T710-63.98q0 23.09-15.25 38.03Q679.5-11 657.67-11 552.5-19.67 480.75-96.17 409-172.67 409-280Z"/></svg>