<svg xmlns="http://www.w3.org/2000/svg" height="24" viewBox="0 -960 960 960" width="24"><path d="M480-498ZM212-682q0-19.26 10.88-34.66Q233.75-732.07 251-739l208-77q11-4 21-4t21 4l208 77q17.25 6.93 28.13 22.34Q748-701.26 748-682v103q0 5.95-4.04 9.97-4.03 4.03-10 4.03-5.96 0-9.96-4.03-4-4.02-4-9.97v-104q0-10-5.5-18T699-713l-208-77q-5-2-11-2t-11 2l-208 77q-10 4-15.5 12t-5.5 18v167q0 95 40.33 173.17Q320.65-264.66 395-208q5 4 5.5 9t-3.5 10q-4 5-9.5 5.5T377-187q-78-57-121.5-144.5T212-516v-166Zm603 537q-5 5-10 5t-10-5l-92-92q-3.29 2-23 6-20.21 0-34.61-14.35Q631-259.7 631-279.85t14.35-34.65q14.35-14.5 34.5-14.5t34.65 14.39Q729-300.21 729-280q0 3.29-6 23l92 92q5 5 5 10t-5 10ZM492-279.76Q492-358 546.76-413q54.77-55 133-55Q758-468 813-413.17q55 54.84 55 133.17 0 5.95-4.04 9.98-4.03 4.02-10 4.02-5.96 0-9.96-4.02-4-4.03-4-9.98 0-66-47-113t-113-47q-66 0-113 47t-47 113q0 66 47 113t113 47q6 0 10 4.04 4 4.03 4 10 0 5.96-4.03 9.96-4.02 4-9.97 4-78.33 0-133.17-54.76-54.83-54.77-54.83-133Z"/></svg>