<svg xmlns="http://www.w3.org/2000/svg" height="20" viewBox="0 -960 960 960" width="20"><path d="M480-511.24ZM168.87-689.35q0-24.76 13.44-44.56 13.43-19.81 36.23-28.46l233.13-89.8q13.93-5.72 28.33-5.72 14.4 0 28.33 5.72l233.13 89.8q22.8 8.65 36.23 28.44 13.44 19.78 13.44 44.52v59.13q0 16.06-11.46 27.62-11.47 11.55-27.33 11.55-15.86 0-27.54-11.37-11.67-11.37-11.67-27.45v-59.42L480-778.65l-233.13 89.19V-515q0 76.71 32.76 149.04t92.02 121.39q12.1 10.67 12.33 26.57.24 15.89-10.65 27.85-10.9 11.95-27.05 12.38-16.15.42-28.11-10.47-71-60.52-110.15-147-39.15-86.47-39.15-179.76v-174.35Zm668.62 567.09q-11.92 12.17-27.49 12.17-15.57 0-27.54-12.27l-93.56-93.18q-6.38 2-16.9 1.52-30.68 0-52.33-21.74-21.65-21.75-21.65-52.56 0-30.81 21.74-52.23 21.75-21.43 52.56-21.43 30.57 0 52 21.65 21.42 21.65 21.42 52.33 0-2.22-1.52 17.57l93.02 93.02q11.43 11.84 11.68 27.53.25 15.68-11.43 27.62ZM433.13-288.12q0-99.23 69.62-168.62t169.01-69.39q97.41 0 166.58 67.56 69.16 67.56 71.55 164.11 0 15.66-11.58 27.45t-27.45 11.79q-15.86 0-27.53-11.64-11.68-11.64-11.68-27.6-2.39-65.39-48.33-109.65-45.95-44.26-112.06-44.26-67.54 0-113.96 46.29-46.41 46.3-46.41 114.08 0 66.11 44.38 111.92 44.38 45.82 109.77 47.97 15.96 0 27.48 11.46 11.52 11.47 11.52 27.33 0 15.86-11.52 27.54Q681-50.11 665.04-50.11q-96.69-2.39-164.3-71.42-67.61-69.03-67.61-166.59Z"/></svg>