<svg xmlns="http://www.w3.org/2000/svg" height="48" viewBox="0 -960 960 960" width="48"><path d="M858.92-101.33Q847.35-90 831.89-90.25t-26.9-11.17L702.58-202.7q-6.54 2-22.58 3.44-33.87 0-57.31-23.47-23.43-23.46-23.43-57.38 0-33.91 23.47-57.27 23.46-23.36 57.38-23.36 33.91 0 56.99 23.43 23.07 23.44 23.07 57.31 0 1.8-2.87 22.17l101.37 102.44q10.83 11.82 11.08 27.53t-10.83 26.53ZM150.37-523v-190.54q0-24.2 13.63-44.6 13.63-20.41 36.3-28.56l252.92-94.8q13.07-4.63 26.78-4.63t27.28 4.63l252.92 94.8q22.17 8.15 36.08 28.56 13.92 20.4 13.92 44.6v95.67q0 21.59-17.53 34.51-17.52 12.92-39.17 5.66-18.5-3.93-36.8-6.71-18.3-2.79-37.27-2.79-125.95 0-215.09 87.41-89.14 87.4-91.97 213.01 0 41 10.72 80.85 10.71 39.84 31.15 74.91 5.06 11.83-2.73 20.06-7.79 8.22-18.62 1.96-113.04-58.39-177.78-173.05Q150.37-396.72 150.37-523ZM429.3-280.12q0-104.6 72.69-177.09 72.69-72.49 177.44-72.49 100.9 0 173.04 69.18 72.14 69.19 76.66 169.22 0 16.45-11.36 27.56t-27.56 11.11q-16.21 0-27.29-11.11-11.07-11.11-11.07-27.56-4.52-69.42-53.95-115.55-49.42-46.13-119.47-46.13-71.73 0-122.07 49.81-50.34 49.8-50.34 123.17 0 69.48 46.66 118.68 46.67 49.21 115.02 53.17 15.95 0 27.03 11.07Q705.8-86 705.8-70.04q0 17.02-11.07 28.09-11.08 11.08-27.03 11.08-100.27-4.52-169.33-76-69.07-71.47-69.07-173.25Z"/></svg>