<svg xmlns="http://www.w3.org/2000/svg" height="48" viewBox="0 -960 960 960" width="48"><path d="M834.54-125.46q-7.16 7.15-15.5 7.15-8.35 0-13.73-7.15L703.23-225.54q-3.45 2.77-22.82 6.31-26.49 0-43.83-17.71-17.35-17.71-17.35-43.17 0-25.45 17.31-43.55 17.31-18.11 43.12-18.11 25.82 0 43.46 18 17.65 17.99 17.65 43.77 0 4.89-5.31 23.23l99.08 100.31q7.15 7.29 7.15 16.07 0 8.77-7.15 14.93ZM185-519.01v-176.61q0-21.91 12.38-39.74 12.38-17.84 32.54-26.41l226.62-84.15q11.23-4 23.46-4t24.46 4l226.62 84.15q19.17 8.11 31.55 26.09Q775-717.71 775-695.62v80.31q0 18.5-15.46 30.6-15.46 12.09-33.92 7.4-11.72-1.92-22.63-3.38-10.92-1.46-22.99-1.46-126.25 0-214.32 88.2-88.06 88.21-88.06 214.11 0 27.17 5.11 53.89 5.12 26.72 16.89 51.72 3.46 11.82-4.31 18.64t-17 .05Q286.85-214 235.92-312.68 185-411.35 185-519.01Zm278.77 239.43q0-91.27 62.01-153.84Q587.79-496 678.49-496q90.7 0 154.11 62.28Q896-371.44 896-280q0 8.81-6.49 15.1-6.5 6.28-15.69 6.28t-14.89-6.28q-5.7-6.29-5.7-15.1 0-72.91-50.6-123.07t-122.92-50.16q-72.33 0-122.75 50.05t-50.42 122.31q0 72.25 50.51 122.68 50.51 50.42 122.72 50.42 9.38 0 15.38 6.59 6 6.58 6 15.91 0 9.32-6.02 15.3Q689.11-64 679.77-64 589-64 526.38-126.16q-62.61-62.16-62.61-153.42Z"/></svg>