<svg xmlns="http://www.w3.org/2000/svg" height="48" viewBox="0 -960 960 960" width="48"><path d="M863-97q-11 11-25.5 11T813-97L704-204q-4 2-23.59 4-34.42 0-57.42-23.21Q600-246.42 600-280.22t22.99-57.29Q645.98-361 679.78-361t57.01 23.64Q760-313.71 760-280q0 5-3 24l106 108q11 11 11 26t-11 25ZM145-522.86V-721q0-23.22 13.24-42.09Q171.48-781.96 193-791l262-98q12-4 25-4t26 4l262 98q20.54 8.58 33.77 27.59Q815-744.39 815-721v98q0 20.17-17 32.58Q781-578 761-585q-20.18-5-39.94-8-19.76-3-41.06-3-132.4 0-224.7 92Q363-412 363-279.84q0 40.85 10.5 80.35Q384-160 405-125q5 11-2 19t-17 2q-113-60-177-175.98-64-115.99-64-242.88Zm278 243.1Q423-387 497.5-461.5 572-536 679.06-536t182 74.33Q936-387.33 936-280q0 15.02-10.68 25.51Q914.63-244 899.25-244q-15.39 0-25.32-10.49T864-280q0-77.35-53.96-130.67-53.96-53.33-131-53.33-77.04 0-130.54 53.25-53.5 53.25-53.5 130t53.67 130.25Q602.35-97 679-97q15.55 0 25.78 10.78Q715-75.45 715-59.93T704.78-34.2Q694.55-24 679-24q-106.67 0-181.33-74.26Q423-172.53 423-279.76Z"/></svg>