<svg xmlns="http://www.w3.org/2000/svg" height="48" viewBox="0 -960 960 960" width="48"><path d="M848.77-111.23q-9.08 9.07-20.5 9.07t-19.12-9.07L703.62-214.77q-3.73 2.38-23.21 5.15-30.46 0-50.62-20.46-20.17-20.46-20.17-50.08 0-29.63 20.15-50.43 20.14-20.79 49.95-20.79 29.81 0 50.24 20.82 20.42 20.81 20.42 50.56 0 4.95-4.15 23.62l102.54 104.15q9.07 9.15 9.07 21.03 0 11.89-9.07 19.97ZM165-520.93v-187.38q0-22.56 12.81-40.91 12.81-18.36 33.65-27.16l244.31-91.08q11.61-4 24.23-4 12.62 0 25.23 4l244.31 91.08q19.86 8.34 32.66 26.84 12.8 18.49 12.8 41.23v89.16q0 19.33-16.23 31.59-16.23 12.25-35.46 6.41-15.95-3.46-31.29-5.7-15.33-2.23-32.02-2.23-129.32 0-219.51 90.11-90.18 90.1-90.18 219.13 0 34.01 7.81 67.12 7.8 33.1 24.19 63.1 4.23 11.41-3.16 18.82-7.38 7.41-17 1.03Q279.92-189 222.46-296.33 165-403.66 165-520.93Zm278.39 241.26q0-99.25 68.25-167.79Q579.9-516 678.78-516q98.88 0 168.05 68.31Q916-379.38 916-280q0 11.92-8.59 20.31-8.59 8.38-20.88 8.38t-20.1-8.38q-7.82-8.39-7.82-20.31 0-75.13-52.28-126.87-52.28-51.74-126.96-51.74-74.68 0-126.64 51.65-51.96 51.65-51.96 126.15t52.09 126.46q52.1 51.96 126.52 51.96 12.47 0 20.58 8.68 8.12 8.68 8.12 21.11 0 12.42-8.13 20.51Q691.83-44 679.38-44q-98.71 0-167.35-68.21-68.64-68.22-68.64-167.46Z"/></svg>