<svg xmlns="http://www.w3.org/2000/svg" height="20" viewBox="0 -960 960 960" width="20"><path d="M810.54-149.46q-5.62 5.61-11.44 5.61-5.82 0-11.1-5.61l-95.46-94.69q-6.22 2.77-20.54 4.3-19.86 0-34.01-14.17-14.14-14.17-14.14-34.08 0-19.9 14.17-33.98 14.17-14.07 34.08-14.07 19.9 0 33.98 14.14 14.07 14.15 14.07 34.01 0-.78-4.3 20.54l94.69 94.69q5.61 5.53 5.61 11.61 0 6.08-5.61 11.7ZM208-515v-162.31q0-18.27 9.71-32.89 9.71-14.62 26.29-21.03l215.38-82q10.7-4.23 20.62-4.23 9.92 0 20.62 4.23l215.38 82q16.58 6.41 26.29 21.03 9.71 14.62 9.71 32.89v72.23q0 15.39-11.91 25.46-11.9 10.08-27.78 7.39-10.85-2.46-20.36-2.81-9.51-.34-19.95-.34-119.23 0-203.31 84.07-84.07 84.08-84.07 203.27 0 21.97 3.8 42.54 3.81 20.58 9.43 42.65 3.46 10.19-4.31 15.91-7.76 5.71-15.39.48-79.95-55.59-125.05-143.33Q208-417.54 208-515Zm264 227.18q0-83.26 58.28-141.72Q588.56-488 671.82-488q83.26 0 141.72 58.33Q872-371.33 872-288q0 6.5-4.55 11.25-4.54 4.75-11.27 4.75-6.72 0-11.45-4.6Q840-281.2 840-288q0-70-49-119t-119-49q-70 0-119 49t-49 119q0 70 49 119t119 49q6.84 0 11.42 4.55 4.58 4.54 4.58 11.27 0 6.72-4.6 11.45Q678.8-88 672-88q-83.33 0-141.67-58.28Q472-204.56 472-287.82Z"/></svg>