<svg xmlns="http://www.w3.org/2000/svg" height="24" viewBox="0 -960 960 960" width="24"><path d="M480-521.07ZM149.78-696.41q0-31.96 18.05-57.53 18.04-25.56 47.41-36.84l229.22-86.18q17.2-6.69 35.54-6.69t35.54 6.69l229.22 86.18q29.37 11.28 47.41 36.84 18.05 25.57 18.05 57.53v43.63q0 20.58-14.96 35.26-14.96 14.67-35.54 14.67-20.59 0-35.55-14.39-14.95-14.39-14.95-34.98v-44.19L480-782.09l-229.22 85.56V-516q0 72.19 28.19 139.48 28.18 67.3 79.62 116.41 14.26 15.15 12.93 35.71-1.33 20.55-16.48 34.81-15.15 14.26-35.74 12.72-20.58-1.54-34.85-16.7-64.5-62.87-99.58-147.37-35.09-84.51-35.09-175.06v-180.41Zm708.54 594.98q-15.21 15.45-35.55 15.45-20.34 0-35.91-15.55l-89.91-90.21q-4.04 1-16.95 1.87-37.57 0-63.85-26.31t-26.28-63.93q0-37.61 26.31-63.81 26.31-26.21 63.93-26.21 37.04 0 63.25 26.28T769.57-280q0 .8-1.87 17.61l90.37 90.37q14.39 14.89 14.64 35.29t-14.39 35.3Zm-428.6-178.69q0-103.79 72.88-176.45 72.88-72.65 176.83-72.65 100.03 0 171.8 68.22 71.77 68.21 77.42 165.74 0 20.59-15.24 35.82-15.24 15.24-35.82 15.24-20.59 0-35.55-15.24-14.95-15.23-14.95-35.82-5.66-57.15-47.48-95.34-41.83-38.18-100.68-38.18-62.23 0-105.51 42.99Q530.15-342.8 530.15-280q0 58.85 38.47 100.71 38.47 41.85 95.62 46.94 20.59 0 35.54 14.96 14.96 14.96 14.96 35.54 0 20.59-14.96 35.55-14.95 14.95-35.54 14.95-98.33-5.65-166.43-77.29-68.09-71.64-68.09-171.48Z"/></svg>