<svg xmlns="http://www.w3.org/2000/svg" height="40" viewBox="0 -960 960 960" width="40"><path d="M480-510.12ZM153.3-712.5q0-24.12 13.6-43.53t35.64-27.9l250.94-93.79q13.35-4.9 26.52-4.9t26.52 4.9l250.94 93.79q22.04 8.49 35.72 27.9 13.68 19.41 13.68 43.53v85.86q0 16.16-11.07 26.98t-27.1 10.82q-16.04 0-26.89-10.79-10.86-10.79-10.86-26.77v-86.1L480-806.96 229.06-712.5v191.83q0 89.19 38.49 170.48 38.49 81.28 108.7 136.01 12.13 10.25 12.76 25.71.64 15.46-9.61 27.43-10.25 11.97-25.58 12.63-15.33.66-27.46-9.58-81.79-64.35-127.43-161.23-45.63-96.88-45.63-201.45V-712.5Zm703.48 609.62q-11.42 11.02-26.72 10.68-15.3-.33-26.65-11.02L702.55-203.66q-4.81 1.67-22.55 3.35-32.95 0-56.32-23.41-23.37-23.41-23.37-56.42 0-33.01 23.39-56.28 23.38-23.27 56.5-23.27 32.87 0 56.06 23.34 23.19 23.33 23.19 56.38 0 2.63-3.19 22.36l100.52 101.35q11.28 11.46 11.28 26.95 0 15.48-11.28 26.43ZM432.4-280q0-102.82 72.11-174.84 72.1-72.02 175.31-72.02 101.49 0 173.11 70.4 71.61 70.4 73.69 171.12 0 16-11.1 27.06-11.09 11.06-27.14 11.06t-26.9-11.06q-10.86-11.06-10.86-27.06-2.07-69.53-51.91-117.69-49.85-48.15-119.78-48.15-70.88 0-120.87 49.85-49.99 49.85-49.99 121.33 0 69.94 48.28 119.4 48.27 49.47 117.64 51.3 16 0 26.94 10.98 10.94 10.97 10.94 27.1 0 16.13-10.94 26.98-10.94 10.86-26.94 10.86-101.03-2.08-171.31-73.59Q432.4-178.49 432.4-280Z"/></svg>