<svg xmlns="http://www.w3.org/2000/svg" height="20" viewBox="0 -960 960 960" width="20"><path d="M480-516.69ZM178-681.31q0-26.72 14.45-48.09 14.45-21.38 38.55-30.83l219.38-84q14.7-6.23 29.62-6.23 14.92 0 29.62 6.23l219.38 84q24.1 9.45 38.55 30.8Q782-708.07 782-681.37v47.57q0 11.92-8.55 20.67-8.54 8.75-20.27 8.75-9.72 0-19.45-5.19-9.73-5.19-9.73-23.11v-49.4q0-7.69-4.23-13.84-4.23-6.16-11.92-9.23l-219.39-84q-3.84-1.54-8.46-1.54-4.62 0-8.46 1.54l-219.39 83.93q-7.69 3.08-11.92 9.23-4.23 6.16-4.23 13.85V-515q0 78.54 30.4 145.86 30.41 67.32 87.22 121.37 7.75 10.39 5.8 21.27-1.96 10.88-12.57 18.5-10.62 7.62-22.66 6.12-12.04-1.5-19.65-12.12-60.39-58.08-93.46-136.94Q178-429.81 178-515v-166.31Zm654.54 554.85q-8.62 8.61-19.44 9.11-10.82.5-20.1-9.11L690.54-227.15q-3.22 1.77-18.54 3.3-26.88 0-46.02-18.67-19.13-18.67-19.13-45.59 0-26.91 19.16-45.98 19.17-19.06 46.08-19.06 26.91 0 45.49 19.13 18.57 19.14 18.57 46.02 0 2.22-3.3 19.54l99.69 100.69q8.61 9.53 9.11 20.61t-9.11 20.7ZM440-287.58q0-96.5 67.28-164.46Q574.56-520 671.35-520q96.79 0 164.72 67.67Q904-384.67 904-288q0 11.5-8.55 20.25-8.54 8.75-20.34 8.75-11.79 0-19.95-8.6T847-288q0-74-51-125t-124.5-51Q598-464 547-413t-51 124.5q0 73.5 51.06 124.5 51.05 51 123.94 51 11.94 0 19.97 8.55Q699-95.91 699-84.11q0 11.79-8.05 19.95T671-56q-96.25 0-163.63-67.55Q440-191.09 440-287.58Z"/></svg>