<svg xmlns="http://www.w3.org/2000/svg" height="48" viewBox="0 -960 960 960" width="48"><path d="M815.75-145q-4.25 3.5-8.75 3.25t-6.62-3.35L704.34-240q-5.19 3-24.34 7-20.04 0-33.52-13.71Q633-260.41 633-279.96q0-19.54 13.47-33.29T679.96-327q20.01 0 33.53 13.48Q727-300.04 727-280q0 3.86-7 24l95.5 94.5q3 4.18 3 8.84t-2.75 7.66ZM212-518v-168.5q0-16.79 9.91-31.22 9.91-14.44 25.59-20.28l214-79q9.25-3 18.5-3t19.5 3l214 79q14.68 5.84 24.59 20.28Q748-703.29 748-686.5v95q0 15.33-11.75 24.17-11.75 8.83-25.75 6.83-8-.5-15.52-1-7.51-.5-14.98-.5-117.5 0-199.5 82.21T398.5-280q0 23.22 3.5 45.36t12.5 43.14q2.5 8.95-4.25 14.72-6.75 5.78-14.25.28-87-54.5-135.5-147.04Q212-416.09 212-518Zm280.5 238.12q0-80.12 53.49-134.12 53.5-54 133.27-54Q758-468 813-414.08q55 53.91 55 134.08 0 5.43-3.05 7.96-3.06 2.54-8 2.54-4.95 0-7.95-2.54-3-2.53-3-7.96 0-69.73-48.63-117.86-48.64-48.14-117-48.14-68.87 0-117.37 48.09t-48.5 117.75q0 69.16 48.39 117.66T680.5-114q4.47 0 7.49 3.05 3.01 3.06 3.01 7.5 0 5.45-3.04 8.45-3.04 3-7.46 3-80.33 0-134.17-53.88-53.83-53.88-53.83-134Z"/></svg>