<svg xmlns="http://www.w3.org/2000/svg" height="40" viewBox="0 -960 960 960" width="40"><path d="M868.1-91.57q-13.21 13.21-31.16 13.26-17.95.05-30.58-13.26l-104.9-103.48q-3.39 1.33-21.19 3.01-37.24 0-62.9-25.64-25.67-25.65-25.67-62.47t25.66-62.82q25.67-25.99 62.49-25.99 36.98 0 62.43 26.09 25.44 26.1 25.44 62.87 0 4.14-2.18 21.63L868.1-153.98q13.37 13.23 13.42 31.42.04 18.2-13.42 30.99Zm-730.49-429v-194.12q0-28.38 16.16-51.27 16.15-22.9 42.35-33.34l253.13-94.88q14.63-5.32 30.75-5.32 16.12 0 31.42 5.32l253.13 94.88q25.54 10.14 41.77 33.13 16.23 22.98 16.23 51.48v67.18q0 24.88-20.7 39.94-20.71 15.07-45.62 7.02-18.78-4.27-37.59-6.89-18.81-2.63-38.88-2.63-137.56 0-233.27 95.15-95.71 95.14-97.07 231.84 0 38.08 9 75.44t26.52 71.1q5.59 14.12-3.92 23.39-9.51 9.27-21.31 1.48-104.31-63.8-163.21-175.45-58.89-111.65-58.89-233.45Zm278.24 240.81q0-110.2 76.6-186.92 76.59-76.73 186.53-76.73 108.89 0 185.5 74.85 76.61 74.84 78.69 183.22 0 18.47-13.05 31.5-13.05 13.04-31.9 13.04-18.85 0-31.2-13.04-12.35-13.03-12.35-31.5-2.08-71.71-52.83-120.85-50.75-49.13-122.65-49.13-73.09 0-124.17 50.8-51.09 50.8-51.09 123.85 0 71.79 49.51 122.35 49.5 50.57 120.46 52.4 18.85 0 31.4 12.99 12.56 12.99 12.56 32.04 0 18.98-12.56 31.52-12.55 12.54-31.4 12.54-107.87-2.08-182.96-78.09t-75.09-184.84Z"/></svg>