<svg xmlns="http://www.w3.org/2000/svg" height="20" viewBox="0 -960 960 960" width="20"><path d="M832.54-126.46q-8.62 8.61-19.44 9.11-10.82.5-20.1-9.11L690.54-227.15q-3.22 1.77-18.54 3.3-26.88 0-46.02-18.67-19.13-18.67-19.13-45.59 0-26.91 19.16-45.98 19.17-19.06 46.08-19.06 26.91 0 45.49 19.13 18.57 19.14 18.57 46.02 0 2.22-3.3 19.54l99.69 100.69q8.61 9.53 9.11 20.61t-9.11 20.7ZM178-515v-166.31q0-26.72 14.45-48.09 14.45-21.38 38.55-30.83l219.38-84q14.7-6.23 29.62-6.23 14.92 0 29.62 6.23l219.38 84q24.1 9.45 38.55 30.83Q782-708.03 782-681.31v32.23q0 22.39-18.91 37.46-18.9 15.08-41.78 9.39-13.03-3.46-24.79-4.31-11.76-.84-24.52-.84-132.63 0-226.01 94.07-93.37 94.08-93.37 225.27 0 22.98 3.3 44.55 3.31 21.57 8.93 45.64 5.46 15.19-5.31 22.91-10.76 7.71-21.39-.52-76.95-61.59-118.55-151.33Q178-416.54 178-515Zm262 227.42q0-96.5 67.28-164.46Q574.56-520 671.35-520q96.79 0 164.72 67.67Q904-384.67 904-288q0 11.5-8.55 20.25-8.54 8.75-20.34 8.75-11.79 0-19.95-8.6T847-288q0-74-51-125t-124.5-51Q598-464 547-413t-51 124.5q0 73.5 51.06 124.5 51.05 51 123.94 51 11.94 0 19.97 8.55Q699-95.91 699-84.11q0 11.79-8.05 19.95T671-56q-96.25 0-163.63-67.55Q440-191.09 440-287.58Z"/></svg>