<svg xmlns="http://www.w3.org/2000/svg" height="20" viewBox="0 -960 960 960" width="20"><path d="M480-536ZM134-686q0-37.69 20.5-67.85Q175-784 210-797l228-87q20-8 42-8t42 8l228 87q35 13 55.5 43.13 20.5 30.14 20.5 67.8v-5.34Q826-667 808.71-650q-17.29 17-41.5 17t-41.71-16.44Q708-665.87 708-690.3v4.3l-228-87-228 87v171q0 58 20 113t55 101q15.14 19.78 11.07 43.39T314-219q-20 15-44 11.5T231-231q-47-61-72-133.91-25-72.9-25-150.09v-171ZM863-97q-18 18-41.67 18-23.66 0-41.33-18l-95-94q-8 2-13 0-40.7 0-68.85-28.21-28.15-28.21-28.15-69T603.21-357q28.21-28 69-28Q712-385 740-356.85q28 28.15 28 68.85v13l95 95q17 16.91 17 41.45Q880-114 863-97ZM397-288q0-114 80-194t194-80q108 0 186 72t88 175q0 24-17.79 42t-42 18q-24.21 0-41.71-17.85T826-315q-10-57-52.5-93.5T671-445q-66 0-111.5 45T514-288q0 60 37 103t94 52q24.3 0 41.65 17.29Q704-98.42 704-74.21T686.65-32.5Q669.3-15 645-15q-105-10-176.5-88T397-288Z"/></svg>