<svg xmlns="http://www.w3.org/2000/svg" height="48" viewBox="0 -960 960 960" width="48"><path d="M823.37-137.27q-5.29 4.65-11.41 4.4-6.11-.25-9.74-4.5L704.45-234q-5.24 2.77-24.45 6.31-22.19 0-37.25-15.24-15.06-15.24-15.06-37.06t15.06-37.07q15.06-15.25 37.24-15.25t37.25 15.06q15.07 15.06 15.07 37.25 0 3.77-6.31 24.23l97.12 96.46q4.15 5.3 4.21 11.59.05 6.3-3.96 10.45ZM201.04-519.15v-174.5q0-17.07 10.05-31.64T237-745.85l224.15-83.03Q470.63-832 480-832q9.37 0 19.73 3.12l224.15 83.03q14.98 5.99 25.03 20.56 10.05 14.57 10.05 31.64v101.8q0 15.61-12.04 24.54t-26.5 6.23q-10.42-1.42-20.36-2.38t-20.06-.96q-118.54 0-201.4 82.88-82.87 82.89-82.87 201.54 0 27.32 5.23 53.35t17 50.15q2.96 8.7-3.44 14.72-6.4 6.01-14.02.86-93.92-54.62-146.69-152.53-52.77-97.91-52.77-205.7Zm280.27 239.21q0-84.33 57.01-141.62 57.01-57.29 141.11-57.29 83.07 0 141.24 57.25 58.18 57.24 58.18 141.6 0 7.06-4.26 10.86-4.25 3.79-10.88 3.79-6.63 0-10.84-3.79-4.22-3.8-4.22-10.86 0-70.83-49.46-119.74-49.47-48.91-119.14-48.91-70.05 0-119.3 48.87-49.25 48.88-49.25 119.66 0 70.27 49.16 119.52 49.17 49.25 119.49 49.25 6.22 0 10.44 4.26 4.22 4.25 4.22 10.44 0 7.07-4.24 11.28-4.24 4.22-10.42 4.22-84.41 0-141.62-57.23-57.22-57.22-57.22-141.56Z"/></svg>