<svg xmlns="http://www.w3.org/2000/svg" height="40" viewBox="0 -960 960 960" width="40"><path d="M519.33-319.67q34-14.66 43.34-48.66Q572-402.33 552-430q-65.67-88.67-128.33-178Q361-697.33 299.33-788.67q29.34 107.34 56 212.5Q382-471 408.67-363.33q8.33 35 42.83 47.33 34.5 12.33 67.83-3.67ZM194-130.67q-27.33 0-50-12.66-22.67-12.67-36.67-36-29.33-50.34-43-106.17-13.66-55.83-13.66-114.17-.67-88 33.5-166.16 34.16-78.17 93.5-136.84 59.33-58.66 138-92.5Q394.33-829 480.33-829q89 0 167 33.67 78 33.66 136.17 92.33 58.17 58.67 91.83 137.5Q909-486.67 909-397.67q0 58.67-15 114-15 55.34-43.33 104.34-12.34 25-35.67 36.83-23.33 11.83-50 11.83H194Z"/></svg>