<svg xmlns="http://www.w3.org/2000/svg" height="24" viewBox="0 -960 960 960" width="24"><path d="M515.15-327.31q25.77-13.92 33.43-40.46 7.65-26.54-9.73-49.61-58.62-81.08-114.54-162.7-55.93-81.61-108.93-166.77 30.62 96 57.77 190.89 27.16 94.88 50.85 191.65 6.69 29.08 34.88 40.39 28.2 11.3 56.27-3.39ZM192.23-168q-16.23 0-30-7.5T140.08-196q-25.16-47.38-38.23-98.62-13.08-51.23-13.08-105.84-.77-80.08 30.38-152.04 31.16-71.96 84.39-124.69 53.23-52.73 124.81-83.77Q399.92-792 480-792q81.54 0 153.12 31.42 71.57 31.43 124.3 84.66 52.73 53.23 83.66 125.8Q872-477.54 872-396q0 52.85-13.08 102.96-13.07 50.12-39.77 93.96-7.61 14.54-21.38 22.81T768-168H192.23Z"/></svg>