<svg xmlns="http://www.w3.org/2000/svg" height="40" viewBox="0 -960 960 960" width="40"><path d="M521-316.33q34.33-16.34 45.17-51Q577-402 555-430.67q-64-86-126.67-171.66-62.66-85.67-123.66-174 26.66 104.66 52 207.16 25.33 102.5 50 207.17 8.33 36 43.83 49.33 35.5 13.34 70.5-3.66ZM188.33-138.67q-23 0-42.33-10.83T115-180q-27.67-50-41.67-105t-14-113.67q-.66-85 33.34-161.83 34-76.83 92-134.67 58-57.83 134.83-92 76.83-34.16 161.83-34.16 87.34 0 163.84 33.5t133.33 91.16Q835.33-639 868.33-561.5q33 77.5 33 164.83 0 58.34-15 112.84t-42 103.83q-11 19.67-30.66 30.5Q794-138.67 772-138.67H188.33Z"/></svg>