<svg xmlns="http://www.w3.org/2000/svg" height="40" viewBox="0 -960 960 960" width="40"><path d="M202.33-213.5q-7.19 0-13.34-2.33-6.16-2.34-9.99-8.5-21.5-39.84-33.42-84.5-11.91-44.67-11.58-91.2 0-75.2 29.75-142.5t85.58-116.8l8.5 25.83q-50.04 45.67-75.35 105.8-25.31 60.14-25.31 127.73 0 43.27 10.68 84.87t34.1 78.43h556.44q21.91-37.5 33.34-78.87 11.44-41.36 11.44-84.56 0-134.71-94.15-228.97-94.14-94.26-228.35-94.26-10.58 0-20.31.77-9.72.78-19.86 2.23l-14.33-21.06q14.05-2.22 26.94-3.66 12.89-1.45 27.63-1.45 70.65 0 134.32 27.49 63.67 27.5 110.23 74.05 46.57 46.56 73.81 109.86 27.23 63.29 27.23 135.26 0 45.51-11.41 89.26-11.42 43.75-34.25 82.25-3.5 6.16-9.23 10.5-5.74 4.33-13.44 4.33H202.33Zm307.5-130q20.76-10.77 26.96-33.64 6.21-22.86-6.14-42.68-51.98-72.85-100.9-146.1-48.92-73.25-97.75-147.91 26.67 85.66 51.5 169.83 24.83 84.17 49.55 169.52 6.68 24.21 30.18 33.43 23.49 9.22 46.6-2.45Zm-24.66-48.17Z"/></svg>