<svg xmlns="http://www.w3.org/2000/svg" height="48" viewBox="0 -960 960 960" width="48"><path d="M520.63-321.24q32-14.93 41.65-47.93 9.65-33-10.85-60.5Q487.67-513 427.26-598.71q-60.41-85.7-119.48-172.79 28.39 101.89 53.84 202.85 25.45 100.95 49.45 203.91 7.43 35.07 41.5 47.57 34.06 12.5 68.06-4.07Zm-327.2 170.37q-21.45 0-39.56-9.98-18.11-9.98-29.31-28.3-27.69-47.13-40.44-100.36-12.75-53.23-12.75-109.42-1.07-83.4 31.78-157.97 32.85-74.58 89.3-130.56 56.44-55.98 131.3-88.82 74.86-32.85 157.68-32.85 84.33 0 158.91 32.38 74.57 32.38 129.8 88.08 55.23 55.69 87.11 130.55 31.88 74.86 31.88 159.19 0 56.19-14.31 108.92-14.32 52.73-40.95 100.86-9.63 18.89-28.52 28.59-18.89 9.69-39.35 9.69H193.43Z"/></svg>