<svg xmlns="http://www.w3.org/2000/svg" height="40" viewBox="0 -960 960 960" width="40"><path d="M196.09-153.3q-20.92 0-39.27-9.79t-29.05-28.15q-27.47-47.47-41.05-100.3-13.58-52.84-13.32-107.79 0-100.52 46.24-188.84 46.24-88.33 129.08-145.54l19.95 80.56q-56.89 46.69-88.2 113.14-31.32 66.46-31.32 140.78 0 45.16 11.1 88.24 11.09 43.08 34.77 81.93h570.05q22.52-39.19 34.2-82.14 11.67-42.95 11.67-88.13 0-138.22-96.03-234.92-96.03-96.69-233.58-96.69-15.64 0-30.61 1.5-14.98 1.5-30.18 5.26l-48.58-66.96q27.11-7.29 54.38-11.5 27.28-4.22 54.99-4.22 84.17 0 158.23 32.23 74.07 32.22 128.92 87.3 54.85 55.09 86.61 129.35 31.77 74.26 31.77 158.55 0 55.05-14.24 107.3t-40.8 100.89q-9.96 18.36-28.27 28.15T764-153.3H196.09Zm321.47-170.25q33.25-15.51 44.23-49.17 10.97-33.66-9.71-62.25-61.1-83.36-121.65-166.53-60.55-83.17-121.71-166.56 23.93 101.26 48.56 200.43 24.63 99.17 50.96 200.08 8.43 34.57 42.17 47.07t67.15-3.07ZM483-394.74Z"/></svg>