<svg xmlns="http://www.w3.org/2000/svg" height="40" viewBox="0 -960 960 960" width="40"><path d="M201.53-202.54q-9.81 0-18.29-3.68-8.48-3.68-13.51-12.19-22.69-41.29-34.8-87.42-12.11-46.13-11.81-94.19 0-80.44 33.25-151.95 33.25-71.52 94.73-122.4l10.31 35.45q-52.16 45.97-79.01 107.77-26.85 61.8-26.85 131.17 0 43.79 10.7 85.75t34.39 79.26h559.03q22.17-37.85 33.62-79.61 11.45-41.76 11.45-85.49 0-135.44-94.51-230.2-94.51-94.76-229.41-94.76-12.06 0-23.4.99-11.34.99-22.96 2.98l-20.37-28.95q16.94-3.3 33.02-5.38 16.08-2.07 33.78-2.07 73.05 0 138.6 28.35t113.57 76.46q48.02 48.11 76.07 113.36 28.05 65.25 28.05 139.43 0 47.26-11.88 92.6-11.88 45.35-35.4 85.77-4.69 8.52-12.82 13.73-8.12 5.22-18.31 5.22H201.53ZM511.6-339.31q23.39-11.78 30.63-36.97 7.23-25.18-6.93-46.85-53.9-74.54-105.07-149.58-51.17-75.03-102.35-151.16 25.98 88.47 50.54 175.49 24.57 87.01 49.28 175.24 7.09 26.43 32.75 36.39t51.15-2.56Zm-26.82-53.09Z"/></svg>