<svg xmlns="http://www.w3.org/2000/svg" height="20" viewBox="0 -960 960 960" width="20"><path d="M515.76-329.48q30.76-15.76 39.4-47.02 8.64-31.26-10.88-58.02-58.71-80.96-116.45-162.65-57.74-81.7-114.74-164.9 27.95 97.96 51.43 194.42Q388-471.2 410.48-373q8 33.76 40.26 47.02 32.26 13.26 65.02-3.5ZM181.2-156.65q-25.2 0-46.9-12.6-21.69-12.6-33.41-34.79-22.24-39.24-30.74-85.1-8.5-45.86-8.5-93.1-1-87.19 31.62-164.17 32.62-76.98 89.1-133.84t133.58-89.86q77.09-33 162.81-33 87.72 0 164.32 33.12 76.59 33.12 133.07 90.1 56.48 56.98 89.72 133.96 33.24 76.97 33.24 163.69 0 47.24-9 93.1-9 45.86-32.48 85.1-12.48 22.43-33.67 34.91-21.2 12.48-45.63 12.48H181.2Z"/></svg>