<svg xmlns="http://www.w3.org/2000/svg" height="20" viewBox="0 -960 960 960" width="20"><path d="M191.62-212q-13.34 0-24.56-6.81-11.21-6.81-18.52-18.19-19.08-34.08-25.81-71.89-6.73-37.8-7.11-77.11 0-86.31 38.19-162.27Q192-624.23 260.92-675.54l15.77 56.46q-52.23 45-80.65 105.88-28.42 60.88-28.42 129.2 0 30.82 6.5 60.91Q180.63-293 191.64-264h577.33q11.02-29 17.02-58.96Q792-352.93 792-384q0-130-90.97-221-90.96-91-222.03-91-7.26 0-14.15.27-6.9.27-14.16 1.35l-34.53-48.31q15.9-2.48 31.42-3.9Q463.1-748 479-748q75.74 0 142.35 28.44 66.61 28.43 115.89 77.17 49.27 48.75 78.01 114.64Q844-461.85 844-386q0 38.54-6.54 76.54-6.54 38-26.38 70.92-7.31 11.38-18.53 18.96Q781.34-212 768-212H191.62Zm316.46-136.15q25.38-12.47 32.96-38.73 7.57-26.27-8.07-48.96l-98.32-142.2q-48.96-70.8-100.96-140.88 22.31 85 43.3 168.19 20.98 83.19 45.01 166.58 7.94 27.79 33.74 38.31 25.8 10.53 52.34-2.31Zm-27.93-55.77Z"/></svg>