<svg xmlns="http://www.w3.org/2000/svg" height="20" viewBox="0 -960 960 960" width="20"><path d="M184.62-188q-17.34 0-33.56-9.81-16.21-9.81-25.52-25.19-20.08-37.08-27.81-77.89Q90-341.69 88.62-384q0-93.87 42.69-176.55t117.61-136.99l22.77 84.46q-50.23 45-77.65 104.88-27.42 59.88-27.42 126.2 0 30.82 6.5 58.91Q179.63-295 188.64-266h582.33q10.06-27.75 15.55-56.34Q792-350.93 792-382q0-130-90.97-221-90.96-91-222.03-91-5.46 0-10.65.1-5.19.11-10.66.52l-50.53-71.31q17.9-3.39 35.42-5.35Q460.1-772 479-772q80.81 0 151.89 30.44 71.07 30.43 124.35 83.17 53.27 52.75 84.01 123.03Q870-465.08 870-384.24q0 41.78-7.04 83.28t-29.88 76.42q-9.31 15.38-25.53 25.96Q791.34-188 774-188H184.62Zm329.46-147.15q26.38-14.47 33.46-41.73 7.07-27.27-10.57-50.96-55.36-76.39-108.82-154.2-53.46-77.8-105.46-157.88 29.31 92 52.8 182.69 23.48 90.69 44.54 183.03 6.91 30.84 35.71 42.86 28.8 12.03 58.34-3.81Zm-31.93-57.77Z"/></svg>