<svg xmlns="http://www.w3.org/2000/svg" height="48" viewBox="0 -960 960 960" width="48"><path d="M193.76-158.52q-18.93 0-35.75-8.84-16.81-8.84-26.27-25.53-27.47-47.23-40.21-99.69-12.75-52.46-12.75-106.92 0-102.17 47.71-191.09 47.71-88.93 132.88-145.15l17.13 69.11q-63.26 47.76-97.67 117.92-34.42 70.17-34.42 149.32 0 46.65 10.76 90.93 10.76 44.29 36.16 84.31h577.11q23.65-40.02 35.28-84.28 11.63-44.26 11.63-91.11 0-140-97.15-238.16-97.16-98.15-236.2-98.15-19.3 0-38.26 2.17-18.97 2.17-37.61 6.59l-41.02-56.75q28.81-8.37 57.78-13.12 28.97-4.76 59.22-4.76 82.22 0 155.5 32.05 73.28 32.04 127.1 86.31 53.81 54.27 85.16 127.55 31.35 73.28 31.35 156.38 0 54.39-13.74 106.47t-40.22 100.07q-8.96 16.69-25.48 25.53-16.53 8.84-35.78 8.84H193.76Zm326.22-164.02q32-15.26 42.14-48.3t-10.38-60.95Q489.3-513 429.71-596.42 370.11-679.85 311.37-764q26.43 99.93 50.9 198.61 24.47 98.67 48.37 199.35 7.86 34.74 41.52 47.24 33.65 12.5 67.82-3.74Zm-35.48-69.03Z"/></svg>