<svg xmlns="http://www.w3.org/2000/svg" height="40" viewBox="0 -960 960 960" width="40"><path d="M201.33-212q-7.02 0-13.51-2.5t-10.49-8.83q-21.33-40.34-33.33-85Q132-353 132-400q0-75.33 30-142.83 30-67.5 86-116.84l8.67 26.34q-49.34 45.66-75 106.05Q156-466.89 156-400q0 43.33 11.02 85 11.01 41.67 33.72 79h558.52q21.7-37.67 33.22-79.17T804-400q0-135.15-94.33-229.57-94.34-94.43-229-94.43-10.65 0-19.89.67-9.24.66-19.45 2.66l-15.33-22q14.06-2.6 27.11-3.97 13.06-1.36 27.56-1.36 71.38 0 135.07 27.53 63.7 27.53 110.58 74.38 46.87 46.86 74.27 110.37Q828-472.21 828-400q0 45.67-11.5 89.67t-34.5 83q-3.33 6.33-9.56 10.83-6.24 4.5-13.77 4.5H201.33Zm308-131.33q21.34-11 28-34 6.67-23-6.68-42.66Q479-493.67 429.67-567 380.33-640.33 331-715q26.33 86 51.33 170.5t50.32 170.01q6.42 24.72 30.05 33.77 23.63 9.05 46.63-2.61Zm-24.66-48.34Z"/></svg>