<svg xmlns="http://www.w3.org/2000/svg" height="48" viewBox="0 -960 960 960" width="48"><path d="M197-200q-9.44 0-17.72-4T166-216q-22-41-34.5-87.5T119-399q0-79.96 32.5-151.48T244-672l12 38q-51 46-76.5 107.03T154-399q0 43 11.02 84.5 11.01 41.5 33.05 79.5h563.97q20.97-36.75 32.46-78.87Q806-356 806-399q0-135.72-95-230.86Q616-725 481-725q-10.83 0-19.83.67-8.99.66-19.17 2.33l-22-31q15.58-3.82 29.83-5.41Q464.08-760 481-760q73.5 0 139.53 28.59 66.02 28.59 114.34 77.38 48.32 48.8 77.22 114.2Q841-474.44 841-399.06q0 48.06-11.5 93.56T793-220q-4 8-12.4 14t-17.6 6H197Zm316-137q22-11 28-35t-8-43.71Q478-492 426.5-568.5 375-645 326-726q30 90 56 178.5t50.23 177.99q5.84 26.41 31.3 35.96Q489-324 513-337Zm-27-49Z"/></svg>