<svg xmlns="http://www.w3.org/2000/svg" height="24" viewBox="0 -960 960 960" width="24"><path d="M207.54-187.27q-15.58 0-28.96-6-13.39-6-20.89-19.58-24.27-43.57-36.94-90.77-12.67-47.19-12.36-97.14 0-85.11 36.44-161.08Q181.27-637.81 247.38-691l15.97 61.12q-48.25 45-73.63 104.28-25.37 59.28-25.37 124.87 0 41.67 10.35 81.83 10.35 40.17 32.91 75.67H752.7q21.06-36.19 32.16-76.11 11.1-39.91 11.1-81.3 0-132.05-92.03-224.09Q611.9-716.77 480-716.77q-10.06 0-20.17.65-10.11.66-20.18 2.27l-36.61-50.26q19.15-3.66 38.29-6.14 19.14-2.48 38.67-2.48 77.18 0 145.07 29.33 67.88 29.33 118.09 79.61 50.22 50.28 79.49 118.09 29.27 67.81 29.27 144.91 0 49.41-12.48 96.35t-36.83 90.05q-7.5 13.58-20.88 20.35-13.38 6.77-28.96 6.77H207.54Zm304.04-147.69q28.11-13.07 37.26-41.82 9.16-28.76-7.84-53.18-55.31-77.42-109.56-154.33-54.25-76.9-109.82-153.98 22.92 92.08 47 182.96 24.07 90.89 49.7 182.16 8.17 28.99 36.44 40.01 28.28 11.02 56.82-1.82ZM482.65-396Z"/></svg>