<svg xmlns="http://www.w3.org/2000/svg" height="40" viewBox="0 -960 960 960" width="40"><path d="M514.05-331.85q28.72-13.87 38.26-43.43 9.54-29.57-8.31-54.44-56.8-79.13-112.59-157.38-55.79-78.26-112.31-156.82 23.88 94.41 48.16 186.81 24.28 92.39 50.23 186.26 7.77 30.62 37.48 41.77 29.72 11.16 59.08-2.77ZM198.26-180q-14.72 0-27.12-6.46t-20.68-19.23q-25-45.03-37.83-94.44Q99.8-349.54 99.8-401.85q.2-76.94 30.94-145.59 30.75-68.64 83.2-120.29 52.45-51.65 121.32-81.96Q404.13-780 481.08-780q78.77 0 147.68 29.96 68.91 29.96 120.32 81.78t81.16 120.86Q860-478.36 860-399.59q0 51.59-13.17 100.1-13.16 48.52-37.75 92.26-7.23 13.28-20.26 20.25-13.03 6.98-26.87 6.98H198.26Z"/></svg>