<svg xmlns="http://www.w3.org/2000/svg" height="48" viewBox="0 -960 960 960" width="48"><path d="M194-164.5q-17.5 0-33-8T137-196q-27-46.5-39.5-98.25T85-399.5q0-100.56 46.75-187.78T262-730l14.5 60.5q-64.21 48-99.11 119-34.89 71-34.89 151 0 47.5 11 92.25T190.13-222h579.75q24.12-40.5 35.87-85.18 11.75-44.69 11.75-92.36 0-140.96-97.75-239.71T482-738q-20.01 0-39.58 2.17-19.56 2.16-38.92 6.83l-36-49.34q28.33-7.89 56.67-12.52 28.33-4.64 57.94-4.64 81.05 0 153.24 31.45 72.19 31.44 125.17 85 52.98 53.55 83.73 125.65Q875-481.31 875-399.33q0 53.33-13.5 104.69Q848-243.27 822-196q-8 15.5-23.25 23.5t-32.75 8H194Zm325.5-159q32-15.5 42.5-48.5t-10.03-60.98Q490.5-513 431.5-594.75 372.5-676.5 314-758.5 339-660 362.75-563t47.65 196.01q8.1 34.49 41.52 46.99t67.58-3.5Zm-35-69.5Z"/></svg>