<svg xmlns="http://www.w3.org/2000/svg" height="24" viewBox="0 -960 960 960" width="24"><path d="M509.15-340.31q24.77-11.92 32.93-37.46 8.15-25.54-7.23-47.61-52.62-76.08-104.04-150.7-51.43-74.61-104.43-149.77 23.62 89 48.27 176.39 24.66 87.38 51.35 175.15 7.69 26.08 32.88 35.89 25.2 9.8 50.27-1.89ZM204.23-200q-11.23 0-20.5-4.5T168.08-218q-24.16-43.38-36.23-90.12-12.08-46.73-12.08-96.34.23-73.08 29.38-138.04 29.16-64.96 78.39-113.19 49.23-48.23 114.31-76.27Q406.92-760 480-760q74.54 0 140.12 28.42 65.57 28.43 114.3 77.16 48.73 48.73 77.16 114.3Q840-474.54 840-400q0 47.85-12.08 93.46-12.07 45.62-35.77 85.46-5.61 10.54-15.38 15.81Q767-200 756-200H204.23Z"/></svg>