<svg xmlns="http://www.w3.org/2000/svg" height="20" viewBox="0 -960 960 960" width="20"><path d="M512.15-341.31q21.77-12.92 26.93-35.96 5.15-23.04-10.23-43.11-52.62-73.08-102.04-148.2-49.43-75.11-96.43-153.27 31.62 87 55.77 172.89 24.16 85.88 43.85 173.65 5.69 27.08 30.88 37.89 25.2 10.8 51.27-3.89ZM179.23-200q-13.23 0-24.5-7t-17.65-18q-18.16-34.38-24.73-74.12-6.58-39.73-6.58-81.34-1.77-79.08 26.88-149.04 28.66-69.96 78.89-120.69 50.23-50.73 119.81-80.27Q400.92-760 479-760q78.54 0 147.62 29.92 69.07 29.93 119.3 80.66 50.23 50.73 80.16 120.3Q856-459.54 856-382q0 40.85-7.08 80.96-7.07 40.12-27.77 72.96-6.61 12.54-17.38 20.31T780-200H179.23Z"/></svg>