<svg xmlns="http://www.w3.org/2000/svg" height="20" viewBox="0 -960 960 960" width="20"><path d="M508.08-348.15q25.38-12.47 32.96-38.73 7.57-26.27-8.12-48.81-49.31-71.54-98.27-142.35-48.96-70.8-100.96-140.88 22.31 85 43.39 168.19 21.07 83.19 44.92 166.58 7.85 27.53 33.69 38.19 25.85 10.65 52.39-2.19ZM191.62-212q-13.62 0-25-6.5-11.39-6.5-18.08-18.5-19.08-32.69-25.62-70.81-6.53-38.11-6.53-77.42Q116-460.77 144.58-527q28.58-66.23 77.69-115.35 49.12-49.11 115.65-77.38Q404.46-748 479-748q75.77 0 142.31 28.46t115.65 77.58q49.12 49.11 78.08 115.15T844-386q0 38.92-7.04 77.23t-25.88 70.23q-7.31 12.77-18.7 19.65Q781-212 768-212H191.62Z"/></svg>