<svg xmlns="http://www.w3.org/2000/svg" height="20" viewBox="0 -960 960 960" width="20"><path d="M193-248.5q-4.35 0-7.92-2-3.58-2-6.08-5.5-15.5-30.5-20.75-63.5T152-386.36q0-73.2 30.25-138.17Q212.5-589.5 268-636l8.5 19.5q-51.71 45-79.36 104.64-27.64 59.63-27.64 127.55 0 30.77 6.02 60.29 6.01 29.52 17.68 58.02h573.61q11.15-28.5 16.92-58.07 5.77-29.57 5.77-60.23 0-128.7-90.44-219.2T479-694q-6.51 0-13.25.33l-13.25.67-11-17.5q9.75-.14 18.67-.57 8.91-.43 18.83-.43 68.11 0 128.02 25.55 59.9 25.54 104.22 69.34 44.31 43.79 70.04 102.94Q807-454.52 807-386.33q0 32.33-4.75 65.58T780-260q-2.5 3.5-6.08 7.5-3.57 4-7.92 4H193Zm312.5-110q17.09-9.77 20.79-28.64 3.71-18.86-7.24-35.51Q474-487 432.25-553.25T348-686.5q27 76 48.91 150.5 21.91 74.5 42.49 150.01 5.73 21.68 25.42 30.08 19.68 8.41 40.68-2.59Zm-23-39.5Z"/></svg>