<svg xmlns="http://www.w3.org/2000/svg" height="40" viewBox="0 -960 960 960" width="40"><path d="M511.6-339.31q23.32-11.96 30.59-37.06 7.27-25.09-6.87-46.44-53.92-74.86-105.09-149.9-51.17-75.03-102.35-151.16 25.98 88.47 50.54 175.49 24.57 87.01 49.4 175.35 6.92 26.4 32.66 36.32 25.74 9.92 51.12-2.6ZM201.53-203.04q-10.21 0-18.22-3.7-8.02-3.7-13.58-11.95-23.38-41.94-34.94-88.36-11.55-46.42-11.55-95.59-.42-72.83 28.12-137.36 28.54-64.53 77.68-112.69 49.14-48.16 114.13-76.32 64.98-28.17 137.65-28.17 73.86 0 138.56 28.31 64.71 28.31 113.13 76.52 48.43 48.22 76.55 113.29 28.12 65.07 28.12 138.93 0 48.45-12.3 93.64-12.3 45.18-34.98 84.72-4.3 8.9-13.37 13.82-9.07 4.91-17.76 4.91H201.53Z"/></svg>