<svg xmlns="http://www.w3.org/2000/svg" height="40" viewBox="0 -960 960 960" width="40"><path d="M520.6-317.13q34.26-15.94 44.73-50.44 10.47-34.51-11.05-62.94-64.4-86.63-127.06-173.18-62.67-86.54-123.83-175.59 27.31 105.3 52.96 208.44Q382-467.7 407.15-362.32q8.33 35.76 43.59 48.86 35.26 13.09 69.86-3.67ZM189.69-136.75q-24.04 0-44.17-11.28-20.13-11.27-32.35-31.81-28.07-50.08-41.99-105.28-13.92-55.2-13.92-113.79-.67-85.71 33.37-162.87 34.04-77.15 92.36-135.18t135.59-92.12q77.28-34.09 162.51-34.09 87.74 0 164.59 33.54 76.86 33.54 134.02 91.45 57.15 57.9 90.31 135.72 33.16 77.82 33.16 165.55 0 58.42-15 113.12t-42.32 103.95q-11.32 20.94-31.86 32.01-20.55 11.08-43.66 11.08H189.69Z"/></svg>