<svg xmlns="http://www.w3.org/2000/svg" height="48" viewBox="0 -960 960 960" width="48"><path d="M512.58-338.5q23.15-12.04 30.38-37.35 7.23-25.3-6.73-46.65-54.58-75.12-106.08-150.52T327.46-725.04q26.54 88.89 51.06 176.27 24.52 87.39 49.29 176.39 6.84 26.8 33.04 36.8 26.19 10 51.73-2.92ZM199-201.54q-9.81 0-17.5-3.58-7.69-3.57-13.35-11.76-23.3-41.77-34.9-88.41-11.6-46.63-11.6-96.13-.5-73.08 28.04-138.1t78.1-113.63q49.56-48.62 114.96-77.16 65.4-28.54 138.48-28.54 74.19 0 139.02 28.56 64.83 28.56 113.46 76.98 48.64 48.43 76.89 113.83t28.25 139.6q0 49.11-12.6 94.67t-35.02 85.25q-3.88 8.58-12.85 13.5-8.96 4.92-17 4.92H199Z"/></svg>