<svg xmlns="http://www.w3.org/2000/svg" height="48" viewBox="0 -960 960 960" width="48"><path d="M199-201.04q-9.38 0-17.59-3.77-8.22-3.77-13.26-11.96-22.77-41.11-34.88-87.86-12.12-46.75-11.73-95.15 0-81.82 34.06-154.23 34.05-72.41 97.17-123.3l9.5 32.81q-54.6 46.46-82.57 109.87-27.97 63.42-27.97 134.9 0 44.76 10.82 87.53 10.82 42.78 35.04 80.97h565.22q22.7-38.58 34.27-81.2 11.57-42.62 11.57-87.46 0-136.93-95.61-232.91-95.62-95.97-231.81-95.97-13.52 0-25.92 1.21-12.4 1.2-25.27 3.56l-18.69-26.65q17.75-3.79 34.48-6.05 16.73-2.26 35.51-2.26 72.83 0 138.86 28.58 66.03 28.58 114.16 76.83 48.13 48.26 76.31 113.85t28.18 140.17q0 47.76-11.97 93.46-11.96 45.7-35.65 86.22-4.54 8.2-12.21 13.5-7.67 5.31-17.64 5.31H199ZM512.58-338.5q23.22-11.86 30.41-37.26 7.2-25.39-6.78-47.22-54.56-74.64-106.06-150.04-51.5-75.4-102.69-152.02 26.54 88.89 51.06 176.27 24.52 87.39 49.17 176.21 7.02 26.9 33.1 36.94 26.08 10.04 51.79-2.88Zm-27.31-53.35Z"/></svg>