<svg xmlns="http://www.w3.org/2000/svg" height="40" viewBox="0 -960 960 960" width="40"><path d="M509.33-343.33q21.34-11 28-34 6.67-23-6.66-42.34-51.67-74-101-147.33-49.34-73.33-98.67-148 26.33 86 51.33 170.5t50.34 170.17q6.33 24.66 30 33.66 23.66 9 46.66-2.66ZM201.33-212q-7.33 0-13.16-2.67-5.84-2.66-10.84-8.66-22.33-41.34-33.83-86.34t-11.5-93q0-71 27.67-134 27.66-63 75.5-109.83 47.83-46.83 111.16-74.17Q409.67-748 480.67-748q72 0 135.16 27.5Q679-693 726-646t74.5 110.5Q828-472 828-400q0 46.67-11.83 90.67-11.84 44-34.17 82-3.33 7.33-10 11.33t-13.33 4H201.33Z"/></svg>