<svg xmlns="http://www.w3.org/2000/svg" height="40" viewBox="0 -960 960 960" width="40"><path d="M192-144q-22.67 0-42.5-10.83-19.83-10.84-30.83-30.5-28-48.34-42-102.34T62.67-398q0-103.83 48-194.91 48-91.09 133-149.09l22 89.67q-57.34 47-88.17 113.76T146.67-398q0 45.33 11.33 88t34 82h576.07q21.98-38.41 33.62-81.54 11.64-43.13 11.64-88.46 0-139.33-96.66-236.67Q620-732 481.33-732q-15.15 0-29.55 1.33-14.4 1.34-29.11 4.67L369-799.67q27.89-7.72 55.56-12.03 27.66-4.3 56.77-4.3 86.22 0 162.05 32.96 75.83 32.95 132.06 89.83 56.23 56.88 89.06 132.6 32.83 75.71 32.83 162.49 0 56.45-14.16 110.03-14.17 53.58-42.5 102.76-10.34 19.66-30.5 30.5Q790-144 768-144H192Zm329-172.33q34.33-16.34 45.17-51Q577-402 555-431.14q-64-85.53-126.67-171.19-62.66-85.67-123.66-174 26.66 104.66 52 207.16 25.33 102.5 50.18 206.98Q415-326 450.5-312.67q35.5 13.34 70.5-3.66Zm-36.67-73Z"/></svg>