<svg xmlns="http://www.w3.org/2000/svg" height="40" viewBox="0 -960 960 960" width="40"><path d="M518.32-322.03q33.14-15.29 43.63-48.86 10.48-33.57-10.18-61.91Q489.13-518.33 427.6-604q-61.53-85.67-122.9-172.32 26.1 103.44 51.81 205.1 25.72 101.67 52.06 205.19 8.1 34.9 42.16 47.4 34.07 12.5 67.59-3.4ZM195.58-144.17q-23.48 0-43.56-11-20.08-11-32.3-31.21-28.17-48.65-41.93-102.98-13.76-54.34-13.76-111.41-.23-84.62 33.38-159.8 33.6-75.18 90.82-132.02 57.22-56.83 132.85-89.94t159.69-33.11q86.2 0 161.81 32.73 75.61 32.72 131.94 89.53 56.34 56.81 88.73 132.61 32.39 75.8 32.39 162 0 56.55-14.57 110.05-14.56 53.5-41.88 102.34-10.99 20.58-31.75 31.4-20.77 10.81-43.44 10.81H195.58Z"/></svg>