<svg xmlns="http://www.w3.org/2000/svg" height="24" viewBox="0 -960 960 960" width="24"><path d="M509.65-340.92q23.66-11.81 31-36.48 7.35-24.68-7.15-46.02-52.62-74.35-103.12-148.66-50.5-74.3-101.65-149.46 24.85 87.66 49.5 173.92 24.65 86.27 49.62 173.31 7.07 25.58 31.9 35.33t49.9-1.94ZM206.58-206.04q-11 0-19.66-3.94-8.65-3.94-14.04-12.33-23.53-42.27-35-88.27-11.46-46-11.46-94.5-.27-72.34 28.27-135.88 28.54-63.54 76.85-110.79Q279.85-699 344-726.42q64.15-27.43 136-27.43 73.19 0 137.65 27.81 64.47 27.81 112.47 75.62 48 47.8 75.86 112.21 27.87 64.4 27.87 137.59 0 47.12-11.72 91.56-11.71 44.44-34.9 83.68-5.11 9.53-14.4 14.44-9.29 4.9-19.29 4.9H206.58Z"/></svg>