<svg xmlns="http://www.w3.org/2000/svg" height="24" viewBox="0 -960 960 960" width="24"><path d="M197.62-156q-20.7 0-39.74-9.81-19.03-9.81-29.34-28.19-26.08-47.08-40.31-98.39Q74-343.69 73.62-398q0-93.87 41.19-177.55t114.11-140.99l23.77 93.46q-45.23 45-69.15 103.38-23.92 58.38-23.92 121.7 0 42 11 81 11.01 39 31.02 75h556.33q20.06-35.75 31.05-74.87Q800-356 800-398q0-134-93-227t-227-93q-7.51 0-14.65.27-7.14.27-14.66 1.35l-55.53-77.31q21.15-4.76 41.92-7.53Q457.85-804 480-804q83.92 0 157.74 31.93 73.81 31.92 129.11 87.22 55.3 55.3 87.22 129.04Q886-482.08 886-398.24q0 53.78-13.54 105.28t-41.38 97.42q-10.31 18.38-29.35 28.96Q782.69-156 762-156H197.62Zm319.46-165.15q30.38-15.47 39.96-46.23 9.57-30.77-10.12-57.31-61.31-84.54-121.27-168.85-59.96-84.3-117.96-171.38 28.31 101 54.89 200.69 26.57 99.69 51.45 201.03 7.84 32.54 39.68 45.22 31.83 12.67 63.37-3.17Zm-32.93-65.77Z"/></svg>