<svg xmlns="http://www.w3.org/2000/svg" height="48" viewBox="0 -960 960 960" width="48"><path d="M519.98-322.54q32-15.26 42.14-48.26t-10.36-60.5Q489.3-513 429.71-596.42 370.11-679.85 311.37-764q26.43 99.93 50.9 198.61 24.47 98.67 48.47 199.35 7.76 34.74 41.5 47.24t67.74-3.74ZM193.76-159.02q-19.17 0-35.49-8.84-16.31-8.84-26.53-25.53-26.72-46.48-39.47-98.57-12.75-52.08-12.75-107.3-.74-81.44 31.62-154.38 32.36-72.95 87.83-127.78 55.46-54.84 128.53-87.2t154.26-32.36q82.7 0 155.64 31.73 72.95 31.73 127.03 86.45 54.09 54.71 85.32 127.78 31.23 73.06 31.23 155.76 0 55.22-13.99 106.8-13.99 51.59-39.97 99.07-8.98 16.93-25.91 25.65-16.94 8.72-35.11 8.72H193.76Z"/></svg>