<svg xmlns="http://www.w3.org/2000/svg" height="40" viewBox="0 -960 960 960" width="40"><path d="M509.83-343.5q20.67-11 26.92-33.75t-6.08-42.25q-52-73.17-100.92-146.42-48.92-73.25-97.75-147.91 26.67 85.66 51.5 169.83 24.83 84.17 49.67 169.67 6.5 24.16 30.08 33.33 23.58 9.17 46.58-2.5ZM202.33-214q-7.66 0-13.33-2.33-5.67-2.34-10-8.17-22.5-40.67-33.67-85.67-11.16-45-11.16-92.66-.5-70.84 27-133.42 27.5-62.58 75.08-109.17 47.58-46.58 110.67-73.75 63.08-27.16 133.75-27.16 71.66 0 134.33 27.5 62.67 27.5 109.67 74.08T799-535q27.33 63.17 27.33 134.83 0 46.84-11.91 90.5Q802.5-266 780.67-228.5q-2.84 6.67-9.75 10.58Q764-214 758-214H202.33Z"/></svg>