<svg xmlns="http://www.w3.org/2000/svg" height="20" viewBox="0 -960 960 960" width="20"><path d="M495.92-124.08q-28.43 0-44.35-15.91-15.92-15.92-15.92-44.36v-207.73q0-28.43 15.92-44.35 15.92-15.92 44.35-15.92h327.73q28.44 0 44.36 15.92 15.91 15.92 15.91 44.35v207.73q0 28.44-15.91 44.36-15.92 15.91-44.36 15.91H495.92Zm0-47.96h327.73q5.39 0 8.85-3.46t3.46-8.85v-103.88H483.61v103.88q0 5.39 3.47 8.85 3.46 3.46 8.84 3.46Zm-12.31-164.15h352.35v-55.89q0-5.38-3.46-8.84-3.46-3.47-8.85-3.47H495.92q-5.38 0-8.84 3.47-3.47 3.46-3.47 8.84v55.89ZM480-514.5ZM327.27-210.58q-63.03-58.3-97.52-138.41Q195.27-429.1 195.27-515v-168.5q0-18.98 10.37-34.47 10.37-15.5 27.9-22.18l233.81-89.49q6.92-2.63 12.65-2.63t12.86 2.64l233.79 89.48q17.34 6.68 27.71 22.08 10.37 15.41 10.37 34.35v131.29q0 10.01-7.02 17.22-7.01 7.21-16.65 7.21-9.87 0-17.08-7.09-7.21-7.09-7.21-17.09v-131.63q0-3.65-2.12-6.82-2.11-3.18-5.96-4.72l-224.46-85.69q-1.92-.77-4.23-.77-2.31 0-4.23.77l-224.46 85.57q-3.85 1.54-5.96 4.71-2.12 3.17-2.12 6.83v168.91q0 78.87 31.44 149.08 31.45 70.21 85.33 120.4 7.5 6.53 7.81 15.63.31 9.1-6.5 16.52-7 7.62-16.81 8.81-9.81 1.19-17.23-6Z"/></svg>