<svg xmlns="http://www.w3.org/2000/svg" height="20" viewBox="0 -960 960 960" width="20"><path d="M494-106q-30.94 0-48.97-18.03Q427-142.06 427-173v-221q0-30.94 18.03-48.97Q463.06-461 494-461h341q30.94 0 48.97 18.03Q902-424.94 902-394v221q0 30.94-18.03 48.97Q865.94-106 835-106H494Zm0-67h341v-101H494v101Zm0-168h341v-53H494v53Zm-14-173.5ZM314-197.7q-65.15-61.18-101.07-144.64Q177-425.79 177-515v-176.5q0-21.17 11.52-38.11 11.53-16.94 30.98-24.39l246.12-94.48q7.88-3.02 14.38-3.02 6.5 0 14.38 3.02L740.5-754q19.45 7.45 30.98 24.3Q783-712.86 783-691.8v129.95q0 13.85-9.79 23.85-9.79 10-23.5 10T726-537.88q-10-9.88-10-23.73V-691.5L480-782l-236 90.37v176.59q0 78.54 31.25 148.44Q306.5-296.69 360-246.5q10.58 9.03 10.79 22.27.21 13.23-9.29 23.73T338.25-189q-13.75 1-24.25-8.7Z"/></svg>