<svg xmlns="http://www.w3.org/2000/svg" height="20" viewBox="0 -960 960 960" width="20"><path d="M526.61-50.78q-44.31 0-71.15-26.85-26.85-26.85-26.85-71.15v-202.44q0-44.3 26.85-71.15 26.84-26.85 71.15-26.85h310q44.3 0 71.15 26.85 26.85 26.85 26.85 71.15v202.44q0 44.3-26.85 71.15-26.85 26.85-71.15 26.85h-310Zm-5.65-92.35h321.3v-84.69h-321.3v84.69Zm0-165.74h321.3v-48h-321.3v48ZM148.78-515v-174.91q0-31.17 17.02-56.11 17.03-24.94 45.94-35.76l246.61-94.25q11.39-4.19 21.65-4.19 10.26 0 21.65 4.19l246.61 94.25q28.91 10.82 45.94 35.67 17.02 24.84 17.02 55.9v119.64q0 20.44-14.31 34.9-14.31 14.45-34.69 14.45H526.61q-77.31 0-123.65 46.35-46.35 46.35-46.35 123.65v124.26q0 30.35-26.5 42.96t-48.02-7.48q-61.98-63.91-97.64-147.86-35.67-83.95-35.67-175.66Z"/></svg>