<svg xmlns="http://www.w3.org/2000/svg" height="20" viewBox="0 -960 960 960" width="20"><path d="M494-106q-30.94 0-48.97-18.03Q427-142.06 427-173v-221q0-30.94 18.03-48.97Q463.06-461 494-461h341q30.94 0 48.97 18.03Q902-424.94 902-394v221q0 30.94-18.03 48.97Q865.94-106 835-106H494Zm0-67h341v-101H494v101Zm0-168h341v-53H494v53ZM177-515v-176.5q0-21.17 11.52-38.11 11.53-16.94 30.98-24.39l246.12-94.48q7.88-3.02 14.38-3.02 6.5 0 14.38 3.02L740.5-754q19.45 7.45 30.98 24.3Q783-712.86 783-691.8v129.95q0 13.85-9.85 23.85-9.85 10-23.65 10H494q-61.5 0-97.75 36.25T360-394v164.5q-.5 21.5-19 30t-34-5.5q-60.04-59.59-95.02-140.55Q177-426.51 177-515Z"/></svg>