<svg xmlns="http://www.w3.org/2000/svg" height="20" viewBox="0 -960 960 960" width="20"><path d="M544-36q-41.03 0-65.67-24.64t-24.64-65.67V-306q0-41.03 24.64-65.67T544-396.31h297.69q41.03 0 65.67 24.64T932-306v179.69q0 41.03-24.64 65.67T841.69-36H544Zm-10-68h317.69q5.39 0 8.85-3.46t3.46-8.85v-79.85H521.69v79.85q0 5.39 3.46 8.85T534-104Zm-12.31-160.15H864V-316q0-5.39-3.46-8.85t-8.85-3.46H534q-5.39 0-8.85 3.46t-3.46 8.85v51.85ZM158-515v-175.15q0-28.83 15.9-52.01 15.89-23.18 42.1-33.45l244.92-93.56q10.23-4.67 19.08-4.67 8.85 0 19.08 4.67L744-775.61q26.21 10.27 42.1 33.35 15.9 23.09 15.9 51.81v169.68q0 18.08-13.2 31.42Q775.61-476 757.61-476H544q-77.88 0-123.94 46.06T374-306v104.69q-1.38 24.23-21.69 35.42-20.31 11.2-39.08-3.34-71.84-64.01-113.54-154.36Q158-413.93 158-515Z"/></svg>