<svg xmlns="http://www.w3.org/2000/svg" height="40" viewBox="0 -960 960 960" width="40"><path d="M548.66-22.44q-36.14 0-62.7-26.61-26.56-26.61-26.56-62.81V-308q0-35.97 26.56-62.62 26.56-26.64 62.7-26.64H859.4q35.97 0 62.62 26.64 26.64 26.65 26.64 62.62v196.14q0 36.2-26.64 62.81-26.65 26.61-62.62 26.61H548.66Zm-6.91-82.12h324.79v-79.12H541.75v79.12Zm0-157.25h324.79v-53.34H541.75v53.34ZM480-502.31ZM338.57-123.47q-94.71-67.49-147.84-174.66-53.12-107.18-53.12-222.54v-194.02q0-28.46 16.07-51.33 16.08-22.88 42.44-33.28l265.02-98.63q8.62-3.9 18.72-3.9t19.83 3.9l264.86 98.63q25.71 10.08 41.85 33.04 16.15 22.96 16.15 51.7v205.71q0 18.58-13.18 31.75-13.18 13.17-31.62 13.17-18.77 0-31.69-13.05-12.93-13.06-12.93-31.95v-205.76L480-810l-253.13 95.38v193.95q0 101.29 45.2 187.19 45.2 85.89 120.66 138.68 14.73 11.12 17.14 29.53 2.4 18.42-8.89 33.1-11.45 14.77-29.86 17.29-18.42 2.53-32.55-8.59Z"/></svg>