<svg xmlns="http://www.w3.org/2000/svg" height="48" viewBox="0 -960 960 960" width="48"><path d="M545-29q-37.17 0-64.09-27.21Q454-83.41 454-121v-205q0-36.13 26.91-63.56Q507.83-417 545-417h309q36.13 0 63.56 27.44Q945-362.13 945-326v205q0 37.59-27.44 64.79Q890.13-29 854-29H545Zm-5-85h320v-88H540v88Zm0-158h320v-60H540v60ZM138-523v-189q0-28.83 16.24-52.9Q170.48-788.96 198-799l263-97q8-4 18.93-4t21.07 4l262 97q26.54 9.57 43.27 33.75Q823-741.06 823-711.81v188.91q0 19.4-13.75 32.65T777-477H545q-61.81 0-106.41 44.59Q394-387.81 394-326l1 146q1 30-24 43.5t-48-4.5q-83-66-134-167.68Q138-410.35 138-523Z"/></svg>