<svg xmlns="http://www.w3.org/2000/svg" height="24" viewBox="0 -960 960 960" width="24"><path d="M575 31q-57.12 0-96.56-39.44Q439-47.88 439-105v-167q0-57.13 39.44-96.56Q517.88-408 575-408h264q57.13 0 96.56 39.44Q975-329.13 975-272v167q0 57.12-39.44 96.56Q896.13 31 839 31H575ZM562-91h291v-53H562v53Zm0-155h291v-40H562v40Zm-82-273ZM262-159q-70-71-109-164.01-39-93.02-39-192.99v-182q0-43.06 24.74-77.51T203-825l247-92q15-6 30-6t30 6l247 92q39.52 15.04 64.26 49.49Q846-741.06 846-698v142.01Q846-528 825.8-508q-20.2 20-47.8 20-29 0-48.5-20.2T710-556.04V-698l-230-85-230 85.42V-516q0 77 30 144.5T359-254q20 20 19.5 48T358-158.5Q338-139 310-139t-48-20Z"/></svg>