<svg xmlns="http://www.w3.org/2000/svg" height="24" viewBox="0 -960 960 960" width="24"><path d="M563.59 7.41q-46.93 0-80.05-33.12-33.13-33.12-33.13-80.05v-173.85q0-46.93 33.13-80.05 33.12-33.12 80.05-33.12h286.82q46.93 0 80.05 33.12 33.13 33.12 33.13 80.05v173.85q0 46.93-33.13 80.05-33.12 33.12-80.05 33.12H563.59ZM552.87-94.8h308.5v-58.33h-308.5v58.33Zm0-155.77h308.5v-40h-308.5v40ZM480-510.63ZM295.48-139.98q-79.89-70.24-124.6-169.72-44.71-99.48-44.71-206.3v-190.37q0-35.74 20.56-64.34t53.23-41.36l255.37-95.8q11.95-5.24 24.67-5.24 12.72 0 24.67 5.24l255.37 95.8q32.67 12.76 53.23 41.36 20.56 28.6 20.56 64.34v176.97q0 23.47-16.63 40.04-16.62 16.58-39.96 16.58-23.67 0-40.13-16.63-16.46-16.62-16.46-40v-176.96L480-796.7l-240.65 90.38V-516q0 86.89 35.7 162.76 35.71 75.87 95.36 128.15 17.72 15.44 19.12 38.87 1.4 23.44-14.03 41.04-15.43 17.59-38.87 19.11-23.43 1.53-41.15-13.91Z"/></svg>