<svg xmlns="http://www.w3.org/2000/svg" height="20" viewBox="0 -960 960 960" width="20"><path d="M516.61-60.78q-42.24 0-67.62-25.38-25.38-25.38-25.38-67.62v-207.44q0-42.24 25.38-67.62 25.38-25.38 67.62-25.38h315q42.24 0 67.62 25.38 25.38 25.38 25.38 67.62v207.44q0 42.24-25.38 67.62-25.38 25.38-67.62 25.38h-315Zm-5.65-87.35h326.3v-89.69h-326.3v89.69Zm0-165.74h326.3v-53h-326.3v53ZM157.78-515v-171.41q0-29.65 16.05-53.37 16.04-23.72 43.41-34l242.73-92.79q11.27-4.15 20.03-4.15 8.76 0 20.03 4.15l242.73 92.79q27.37 10.28 43.41 33.9 16.05 23.63 16.05 53.17v118.64q0 18.94-13.81 32.9-13.81 13.95-32.69 13.95H516.61q-72.81 0-116.4 43.6-43.6 43.6-43.6 116.4v127.76q-.5 28.85-25.5 40.46t-45.02-7.48q-59.48-62.41-93.89-143.94-34.42-81.52-34.42-170.58Z"/></svg>