<svg xmlns="http://www.w3.org/2000/svg" height="40" viewBox="0 -960 960 960" width="40"><path d="M515.26-104.74q-24.61 0-42.4-17.8-17.8-17.79-17.8-42.4v-199.8q0-24.61 17.8-42.4 17.79-17.8 42.4-17.8h319.8q24.61 0 42.4 17.8 17.8 17.79 17.8 42.4v199.8q0 24.61-17.8 42.4-17.79 17.8-42.4 17.8h-319.8Zm0-47.89h319.8q5.39 0 8.85-3.46t3.46-8.85v-95.96H502.95v95.96q0 5.39 3.46 8.85t8.85 3.46Zm-12.31-156.15h344.42v-55.96q0-5.39-3.46-8.85t-8.85-3.46h-319.8q-5.39 0-8.85 3.46t-3.46 8.85v55.96ZM184.27-519.41v-182.34q0-18.51 11.01-34.19 11.02-15.67 28.23-22.39l244.08-91.19q5.61-2.16 12.46-2.16 6.86 0 13.21 2.19l243.75 91.16q16.69 6.72 27.71 22.39 11.01 15.68 11.01 34.41v171.43q0 12.53-8.55 21.06-8.56 8.53-20.51 8.53H515.26q-56.08 0-95.93 39.84-39.84 39.85-39.84 95.93l.41 159.55q.97 16.68-13.66 24.03-14.64 7.35-27.09-2.43-70.66-59.57-112.77-148.07t-42.11-187.75Z"/></svg>