<svg xmlns="http://www.w3.org/2000/svg" height="20" viewBox="0 -960 960 960" width="20"><path d="M544-16q-43.72 0-70.86-27.14T446-114v-192q0-43.73 27.14-70.86Q500.28-404 544-404h310q43.72 0 70.86 27.14Q952-349.73 952-306v192q0 43.72-27.14 70.86T854-16H544Zm-10-88h330v-76H534v76Zm0-164h330v-48H534v48ZM138-515v-184q0-31.14 17.24-56.05Q172.48-779.96 201-791l258-98.94q11-5.06 21-5.06t21 5.06L759-791q28.52 11.04 45.76 35.86T822-699.3v173.91q0 20.39-14.35 34.89T773-476H544q-76.73 0-123.36 46.64Q374-382.73 374-306v112q-1 30-26.5 43.5T299-155q-74.54-67.09-117.77-161.47Q138-410.86 138-515Z"/></svg>