<svg xmlns="http://www.w3.org/2000/svg" height="40" viewBox="0 -960 960 960" width="40"><path d="M532.17-48.98q-35.06 0-59.93-24.99-24.88-24.98-24.88-60.2v-205.36q0-34.67 24.88-59.75 24.87-25.07 59.93-25.07h315.19q34.67 0 59.74 25.07 25.07 25.08 25.07 59.75v205.36q0 35.22-25.07 60.2-25.07 24.99-59.74 24.99H532.17Zm-4.52-80.29h324.23v-87.25H527.65v87.25Zm0-158.12h324.23v-56.67H527.65v56.67ZM150.17-520.67v-187.3q0-26.65 15.11-48.77 15.1-22.13 40-31.32l256.82-95.89q8.47-3.42 17.9-3.42 9.43 0 18.65 3.44l256.4 95.87q24.57 9.19 39.86 31.32 15.29 22.12 15.29 48.91v177.58q0 17.83-12.6 30.2-12.61 12.37-30.01 12.37H532.17q-60.6 0-104.37 43.77t-43.77 104.38l.67 145.49q.79 27.46-22.92 39.47-23.7 12.01-43.87-4.54-76.32-64.74-122.03-160.18-45.71-95.44-45.71-201.38Z"/></svg>