<svg xmlns="http://www.w3.org/2000/svg" height="40" viewBox="0 -960 960 960" width="40"><path d="M520-120q-24.58 0-41.52-16.94-16.94-16.94-16.94-41.52V-360q0-24.58 16.94-41.52 16.94-16.94 41.52-16.94h301.54q24.58 0 41.52 16.94Q880-384.58 880-360v181.54q0 24.58-16.94 41.52Q846.12-120 821.54-120H520Zm0-33.85h301.54q10.77 0 17.69-6.92 6.92-6.92 6.92-17.69v-93.85H495.38v93.85q0 10.77 6.93 17.69 6.92 6.92 17.69 6.92Zm-24.62-152.3h350.77V-360q0-10.77-6.92-17.69-6.92-6.93-17.69-6.93H520q-10.77 0-17.69 6.93-6.93 6.92-6.93 17.69v53.85ZM200-518.1v-173.41q0-18.47 10.76-33.67 10.76-15.2 27.19-22.08l229.69-85.18q5.86-2.07 12.47-2.07t12.76 2.07l229.18 85.18q16.43 6.88 27.19 22.08Q760-709.98 760-691.51v156.13q0 11.24-8.22 19.46-8.23 8.23-19.47 8.23H520q-62.23 0-104.96 42.73T372.31-360l.15 142.64q.9 12.51-10.36 18.07-11.25 5.55-20.46-2.58-64.9-56.85-103.27-139.54Q200-424.1 200-518.1Z"/></svg>