<svg xmlns="http://www.w3.org/2000/svg" height="48" viewBox="0 -960 960 960" width="48"><path d="M518.85-121.15q-22.41 0-38.61-16.2t-16.2-38.61v-185.19q0-22.41 16.2-38.61t38.61-16.2h305.19q22.41 0 38.61 16.2t16.2 38.61v185.19q0 22.41-16.2 38.61t-38.61 16.2H518.85Zm0-30.2h305.19q10.77 0 17.69-6.92 6.92-6.92 6.92-17.69v-97.5H494.23v97.5q0 10.77 6.92 17.69 6.93 6.92 17.7 6.92Zm-24.62-152.3h354.42v-57.5q0-10.77-6.92-17.7-6.92-6.92-17.69-6.92H518.85q-10.77 0-17.7 6.92-6.92 6.93-6.92 17.7v57.5ZM480-507.96ZM361.96-187.35q-76.8-57.45-118.86-146.66-42.06-89.2-42.06-185.14v-174.87q0-16.76 10.02-31.31 10.02-14.55 25.94-20.52l232.28-86.47q4.26-1.95 10.74-1.95t12.47 2.01l231.39 86.41q15.04 5.97 25.06 20.52t10.02 31.68v176.57q0 6.85-4.47 11.2-4.46 4.34-10.37 4.34-6.93 0-11.14-4.34-4.21-4.35-4.21-11.2v-177.46q0-7.31-4.23-13.65-4.23-6.35-11.92-9.43l-224.16-83.42q-3.84-1.54-8.46-1.54-4.62 0-8.46 1.54l-224.16 83.41q-7.69 3.08-11.92 9.43-4.23 6.34-4.23 13.65v175.49q0 93.03 39.79 174.16t107.44 132.59q4.35 4.31 6.27 10.23 1.92 5.93-1.5 10.54-3.53 4.73-10.23 6.71-6.69 1.98-11.04-2.52Z"/></svg>