<svg xmlns="http://www.w3.org/2000/svg" height="20" viewBox="0 -960 960 960" width="20"><path d="M552.48 1.52q-51.3 0-83.13-31.83t-31.83-83.12v-186.92q0-51.3 31.83-83.13 31.83-31.82 83.13-31.82h293.04q51.3 0 83.13 31.82 31.83 31.83 31.83 83.13v186.92q0 51.29-31.83 83.12-31.83 31.83-83.13 31.83H552.48Zm-11.7-102.69h317v-72.05h-317v72.05Zm0-163.44h317v-48h-317v48ZM480-513.22ZM287.13-158.13Q212.48-225.7 170.72-319.8q-41.76-94.11-41.76-195.2v-177.78q0-36.58 20.35-65.83 20.34-29.26 53.95-42l251.78-96.11q13.26-5.63 24.96-5.63 11.7 0 24.96 5.63l251.78 96.11q33.61 12.74 53.95 41.9 20.35 29.17 20.35 65.63v147.93q0 23.76-16.94 40.8-16.95 17.05-40.32 17.05-24.17 0-40.93-17.04-16.76-17.04-16.76-40.59v-147.85L480-782.83l-236.09 90.26V-515q0 81.65 33.26 152.09 33.26 70.43 88.35 120.43 17.77 15.93 18.32 39.05.55 23.13-15.84 40.54t-39.78 19.28q-23.4 1.87-41.09-14.52Z"/></svg>