<svg xmlns="http://www.w3.org/2000/svg" height="40" viewBox="0 -960 960 960" width="40"><path d="M546.67-26.67q-33.73 0-58.87-25.13-25.13-25.14-25.13-58.87V-308q0-33.73 25.13-58.86Q512.94-392 546.67-392h316q33.72 0 58.86 25.14 25.14 25.13 25.14 58.86v197.33q0 33.73-25.14 58.87-25.14 25.13-58.86 25.13h-316ZM540-104h329.33v-80H540v80Zm0-157.33h329.33v-53.34H540v53.34ZM140-520.67V-717q0-26.63 15.24-48.13 15.24-21.5 39.76-31.54l267.33-99.66q8.34-3.67 17.62-3.67 9.29 0 18.38 3.67l267.34 99.66q23.86 9.73 39.1 31.31Q820-743.78 820-716.87v215.9q0 17.64-12.16 29.97-12.16 12.33-29.51 12.33H546.67q-61.15 0-105.91 44.76T396-308l.67 140.67q.66 27-22.17 39.83-22.83 12.83-44.5-2.5-87-67-138.5-171T140-520.67Z"/></svg>