<svg xmlns="http://www.w3.org/2000/svg" height="40" viewBox="0 -960 960 960" width="40"><path d="M546.67-20q-42.33 0-71.83-29.7-29.51-29.7-29.51-72.3v-196.67q0-41.62 29.51-71.48Q504.34-420 546.67-420h298.66q41.63 0 71.48 29.85 29.86 29.86 29.86 71.48V-122q0 42.6-29.86 72.3Q886.96-20 845.33-20H546.67Zm-8-93.33h314.66v-80H538.67v80Zm0-156.67h314.66v-56.67H538.67V-270ZM138-520.67v-183.97q0-32.01 17.86-58.62 17.85-26.62 47.97-37.41l254.79-94.88q10.21-4.28 21.38-4.28 11.17 0 22.42 4.3l254.08 94.86q29.79 10.79 47.98 37.41 18.19 26.61 18.19 58.76v170.33q0 21.17-15.24 36-15.23 14.84-35.93 14.84H546.67q-67.87 0-116.27 48.4-48.4 48.4-48.4 116.26l.67 122.17q.5 32.24-27.34 46.2-27.83 13.97-50.89-5.91-75.61-66.62-121.02-162.4Q138-414.39 138-520.67Z"/></svg>