<svg xmlns="http://www.w3.org/2000/svg" height="40" viewBox="0 -960 960 960" width="40"><path d="M546.67-78.67q-30.58 0-51.96-21.38-21.38-21.38-21.38-51.95v-156q0-30.58 21.38-51.95 21.38-21.38 51.96-21.38h274.66q30.58 0 51.96 21.38 21.38 21.37 21.38 51.95v156q0 30.57-21.38 51.95-21.38 21.38-51.96 21.38H546.67ZM540-113.33h288q14 0 23-9t9-23V-226H508v80.67q0 14 9 23t23 9Zm-32-147.34h352v-54q0-14-9-23t-23-9H540q-14 0-23 9t-9 23v54ZM192-517.33v-170q0-23.33 13.41-42.49Q218.83-748.99 240-758l225.33-83q7.29-3.33 14.77-3.33 7.47 0 15.9 3.33l224.67 83q20.52 8.7 33.92 27.94Q768-710.82 768-687.21v174.9q0 13.63-10.5 24.3-10.5 10.68-23.83 10.68h-187q-71.85 0-120.6 48.74-48.74 48.74-48.74 120.59v100.33q-.33 14.67-12.66 21.5-12.34 6.84-23-2.16-68.67-59-109.17-144.84Q192-419 192-517.33Z"/></svg>