<svg xmlns="http://www.w3.org/2000/svg" height="20" viewBox="0 -960 960 960" width="20"><path d="M504-136q-27.62 0-42.12-14.5-14.5-14.5-14.5-42.12V-384q0-27.62 14.5-42.12 14.5-14.5 42.12-14.5h311.38q27.62 0 42.12 14.5Q872-411.62 872-384v191.38q0 27.62-14.5 42.12Q843-136 815.38-136H504Zm0-32h311.38q10.77 0 17.7-6.92 6.92-6.93 6.92-17.7v-103.69H479.38v103.69q0 10.77 6.93 17.7Q493.23-168 504-168Zm-24.62-160.31H840V-384q0-10.77-6.92-17.69-6.93-6.93-17.7-6.93H504q-10.77 0-17.69 6.93-6.93 6.92-6.93 17.69v55.69ZM208-515v-162.31q0-18.07 9.81-32.77 9.81-14.69 26.19-21.15l223.85-85.17q6.46-2.29 12.15-2.29t12.15 2.29L716-731.23q16.38 6.46 26.19 21.06 9.81 14.6 9.81 32.56v122.49q0 10.74-8.04 18.93T725.23-528H504q-68.31 0-106.15 37.85Q360-452.31 360-384v146.38q-.77 11.47-10.38 16.35-9.62 4.89-18.16-3.19-57.15-54.93-90.31-130.24Q208-430.01 208-515Z"/></svg>