<svg xmlns="http://www.w3.org/2000/svg" height="40" viewBox="0 -960 960 960" width="40"><path d="M520-132q-23.85 0-39.92-16.07Q464-164.15 464-188v-172q0-23.85 16.08-39.92Q496.15-416 520-416h292q23.85 0 39.93 16.08Q868-383.85 868-360v172q0 23.85-16.07 39.93Q835.85-132 812-132H520Zm0-24h292q14 0 23-9t9-23v-94H488v94q0 14 9 23t23 9Zm-32-150h356v-54q0-14-9-23t-23-9H520q-14 0-23 9t-9 23v54Zm-8-205.67Zm-126.33 305q-68-57.33-104.84-139.52Q212-428.37 212-517.33v-167.34q0-17.87 10.26-32.47 10.25-14.6 26.07-21.19l220-81.34q5.43-2 11.72-2 6.28 0 12.28 2l219.34 81.34q15.82 6.59 26.07 21.19Q748-702.54 748-684.67V-524q0 5.15-3.46 8.58-3.46 3.42-8.67 3.42-5.2 0-8.54-3.42Q724-518.85 724-524v-161.67q0-10-5.5-18t-15.5-12l-212-79q-5-2-11-2t-11 2l-212 79q-10 4-15.5 12t-5.5 18v168.34q0 86.33 35.83 163.16 35.84 76.84 96.17 128.84 3.33 3.33 4.5 7.83t-2.17 8.5q-2.66 3.33-8 4.5-5.33 1.17-8.66-2.17Z"/></svg>