<svg xmlns="http://www.w3.org/2000/svg" height="40" viewBox="0 -960 960 960" width="40"><path d="M546.67-46.67q-32.52 0-56.21-23.69-23.69-23.69-23.69-56.21V-308q0-32.51 23.69-56.21 23.69-23.69 56.21-23.69h300.1q32.51 0 56.2 23.69 23.69 23.7 23.69 56.21v181.43q0 32.52-23.69 56.21-23.69 23.69-56.2 23.69h-300.1ZM540-107.59h313.43q5.39 0 8.85-3.46t3.46-8.85v-80.26H527.69v80.26q0 5.39 3.46 8.85t8.85 3.46Zm-12.31-153.49h338.05v-53.59q0-5.38-3.46-8.84-3.46-3.47-8.85-3.47H540q-5.39 0-8.85 3.47-3.46 3.46-3.46 8.84v53.59ZM160-519.38v-186.21q0-25.36 14.54-45.96t37.77-30.24l251.18-93.26q7.93-3.54 16.52-3.54t17.43 3.54l250.92 93.26q22.58 9.33 37.11 30.01Q800-731.1 800-705.46v200.13q0 16.1-11.52 27.79-11.52 11.69-27.33 11.69H546.67q-65.27 0-111.56 46.29-46.29 46.29-46.29 111.56l.41 125.15q.28 22.26-18.51 32.78-18.8 10.53-36.23-2.37-79.95-63.92-127.22-160.93Q160-410.38 160-519.38Z"/></svg>