<svg xmlns="http://www.w3.org/2000/svg" height="24" viewBox="0 -960 960 960" width="24"><path d="M532.61-44.78q-42.24 0-71.62-29.38-29.38-29.38-29.38-71.62v-191.44q0-42.24 29.38-71.62 29.38-29.38 71.62-29.38h299q42.24 0 71.62 29.38 29.38 29.38 29.38 71.62v191.44q0 42.24-29.38 71.62-29.38 29.38-71.62 29.38h-299Zm-5.65-95.35h310.3v-73.69h-310.3v73.69Zm0-157.74h310.3v-45h-310.3v45ZM149.78-516v-180.41q0-31.96 18.05-57.53 18.04-25.56 47.41-36.84l242.73-90.85q11.27-4.09 22.03-4.09 10.76 0 22.03 4.09l242.73 90.85q29.37 11.28 47.41 36.84 18.05 25.57 18.05 57.53v132.69q0 20.59-14.96 35.55-14.96 14.95-35.54 14.95H532.61q-72.81 0-124.4 51.6-51.6 51.6-51.6 124.4v109.76q.5 31.85-27.5 44.46t-50.02-8.48q-59.94-64.32-94.62-148.46-34.69-84.15-34.69-176.06Z"/></svg>