<svg xmlns="http://www.w3.org/2000/svg" height="20" viewBox="0 -960 960 960" width="20"><path d="M544-36q-41.03 0-65.67-24.64t-24.64-65.67V-306q0-41.03 24.64-65.67T544-396.31h297.69q41.03 0 65.67 24.64T932-306v179.69q0 41.03-24.64 65.67T841.69-36H544Zm-10-68h317.69q5.39 0 8.85-3.46t3.46-8.85v-79.85H521.69v79.85q0 5.39 3.46 8.85T534-104Zm-12.31-160.15H864V-316q0-5.39-3.46-8.85t-8.85-3.46H534q-5.39 0-8.85 3.46t-3.46 8.85v51.85ZM480-507ZM325.85-158.62q-79.31-63.92-123.58-158.98Q158-412.67 158-515v-175.15q0-28.83 15.9-52.01 15.89-23.18 42.1-33.45l244.92-93.56q10.23-4.67 19.08-4.67 8.85 0 19.08 4.67L744-775.61q26.21 10.27 42.1 33.35 15.9 23.09 15.9 51.81v175.06q0 16.16-11.41 27.77Q779.19-476 763.21-476q-15.98 0-27.59-11.5Q724-498.99 724-515.14v-175.4q0-3.84-2.12-6.92-2.11-3.08-5.96-4.62l-231.69-89q-1.92-.77-4.23-.77-2.31 0-4.23.77l-231.69 88.94q-3.85 1.54-5.96 4.61-2.12 3.08-2.12 6.93V-515q0 89 37.5 165.65Q311-272.69 374-221q13 9.84 14.96 25.15 1.96 15.31-8.34 28.23-10.31 12.93-26.08 16.12-15.77 3.19-28.69-7.12Z"/></svg>