<svg xmlns="http://www.w3.org/2000/svg" height="48" viewBox="0 -960 960 960" width="48"><path d="M531.96-51.09q-31.48 0-54.1-22.78-22.62-22.79-22.62-54.5v-212.32q0-30.89 22.62-53.8 22.62-22.92 54.1-22.92h323.28q30.88 0 53.8 22.92 22.92 22.91 22.92 53.8v212.32q0 31.71-22.92 54.5-22.92 22.78-53.8 22.78H531.96ZM528-123.85h331.2v-94.02H528v94.02Zm0-158.3h331.2v-62.5H528v62.5Zm-48-220.18Zm-129.59 366.7Q256.49-198.7 203.43-304.2 150.37-409.69 150.37-523v-190.75q0-24.25 13.51-44.56 13.5-20.31 36.42-28.39l263.87-98.41q6.78-3.09 15.69-3.09 8.9 0 17.1 3.12L760.2-786.7q22.42 8.08 36.21 28.39Q810.2-738 810.2-713.54v200.02q0 16.2-11.62 27.41-11.63 11.2-27.28 11.2-16.23 0-27.31-11.2-11.08-11.21-11.08-27.41v-200.14L480-808.85l-252.91 95.46v190.45q0 102.89 45.99 189.11 45.99 86.22 124.66 137.53 12.76 10.39 14.41 25.72 1.65 15.33-7.67 27.84-10.39 13.33-25.73 15.51-15.33 2.19-28.34-8.4Z"/></svg>