<svg xmlns="http://www.w3.org/2000/svg" height="24" viewBox="0 -960 960 960" width="24"><path d="M560 0q-43.72 0-74.86-31.14T454-106v-176q0-43.73 31.14-74.86Q516.28-388 560-388h294q43.72 0 74.86 31.14Q960-325.73 960-282v176q0 43.72-31.14 74.86T854 0H560Zm-10-96h314v-60H550v60Zm0-156h314v-40H550v40Zm-70-256ZM306-134q-83-70-129.5-171.51Q130-407.03 130-516v-193q0-33.45 19.24-60.2Q168.48-795.96 199-808l258-97q11-5 23-5t23 5l258 97q30.52 12.04 49.76 38.8Q830-742.45 830-709v187.96q0 22.04-15.5 37.54T777-468q-22 0-37.5-15.5T724-521.04V-709l-244-92-244 91.94V-516q0 90 37.5 168.5T374-216q17 14 19 36t-12 39q-14 17-36 19t-39-12Z"/></svg>