<svg xmlns="http://www.w3.org/2000/svg" height="24" viewBox="0 -960 960 960" width="24"><path d="M511.92-108.08q-28.43 0-48.35-19.91-19.92-19.92-19.92-48.36v-191.73q0-28.43 19.92-48.35t48.35-19.92h311.73q28.44 0 48.36 19.92 19.91 19.92 19.91 48.35v191.73q0 28.44-19.91 48.36-19.92 19.91-48.36 19.91H511.92Zm0-55.96h311.73q5.39 0 8.85-3.46t3.46-8.85v-87.88H499.61v87.88q0 5.39 3.47 8.85 3.46 3.46 8.84 3.46Zm-12.31-156.15h336.35v-47.89q0-5.38-3.46-8.84-3.46-3.47-8.85-3.47H511.92q-5.38 0-8.84 3.47-3.47 3.46-3.47 8.84v47.89ZM187.27-516.03v-177.48q0-21.28 12.37-38.62 12.37-17.34 31.9-25.02l233.81-87.55q6.92-2.57 14.65-2.57t14.86 2.58l233.79 87.54q19.34 7.68 31.71 25.02 12.37 17.34 12.37 38.71v139.96q0 13.77-9.85 23.61-9.84 9.85-23.42 9.85H511.92q-63.44 0-107.68 44.24Q360-431.52 360-368.08v138.43q.31 18.92-16.34 26.3-16.65 7.39-30.2-5.15-58.25-58.78-92.22-138.81t-33.97-168.72Z"/></svg>