<svg xmlns="http://www.w3.org/2000/svg" height="20" viewBox="0 -960 960 960" width="20"><path d="M513.57-76.87q-37.79 0-60.4-22.61-22.6-22.61-22.6-60.39v-210.26q0-37.78 22.6-60.39 22.61-22.61 60.4-22.61h325q37.78 0 60.39 22.61t22.61 60.39v210.26q0 37.78-22.61 60.39t-60.39 22.61h-325Zm-2.4-80.61h329.79v-91.22H511.17v91.22Zm0-167.04h329.79v-48H511.17v48ZM480-515.67ZM300.72-187.52q-67.05-63.72-103.95-149.62-36.9-85.89-36.9-177.86v-177.85q0-26.28 14.41-47.3 14.42-21.02 38.76-30.22l248.57-95.22q9.43-3.54 18.39-3.54t18.39 3.54l248.57 95.22q24.34 9.2 38.76 30.13 14.41 20.93 14.41 47.09v126.17q0 17.5-11.96 29.68-11.97 12.17-29.33 12.17t-29.54-12.06q-12.17-12.05-12.17-29.55v-126.11L480-783.65l-237.13 90.92V-515q0 78.33 31.3 147.95 31.31 69.62 84.4 119.83 12.51 11.45 12.61 28.33.1 16.89-11.81 29.32-11.91 12.44-29.07 13.2-17.15.76-29.58-11.15Z"/></svg>