<svg xmlns="http://www.w3.org/2000/svg" height="20" viewBox="0 -960 960 960" width="20"><path d="M480-536.91ZM379.22-91.48q-112.13-60.26-181.2-175.02-69.06-114.76-69.06-248.5v-256.09L480-905.91l351.04 134.82v167.57q-27.13-13.64-55.9-22.15-28.77-8.51-59.05-12.37v-54.74L480-782.83l-236.09 89.98V-515q0 62.33 20.25 118.63t56.36 103.93q-1.39 55.35 13.39 106.27 14.79 50.91 45.31 94.69ZM671.43-8.09q-116.82 0-198.37-81.52-81.54-81.53-81.54-198.15 0-116.63 81.54-198.39 81.55-81.76 197.9-81.76 117.49 0 199.22 81.57 81.73 81.58 81.73 198.28 0 29.74-5.43 57.4Q941.04-203 930.61-177l-98.78-98.48q2-7.22 3.5-14.17t1.5-13.61q-5.66-64.96-52.42-108.33-46.76-43.37-112.91-43.37-70.11 0-118.56 48.18-48.46 48.17-48.46 118.28 0 66.72 43.71 113.76 43.7 47.04 108.11 52.13 6.66 0 13.61-1.5 6.95-1.5 13.61-3.5l96.65 97.22q-24.87 10.43-52.21 16.37-27.34 5.93-56.53 5.93Zm-68.16-348.85q28.75-28.54 68.93-28.54 40.19 0 67.95 28.69 27.76 28.69 27.76 68.79 0-.83.13 15.17l138.83 139.26L827-52.13 686.17-191.39q-4.69 1-14.17-.13-40.1 0-68.79-28.26-28.69-28.25-28.69-68.44t28.75-68.72Z"/></svg>