<svg xmlns="http://www.w3.org/2000/svg" height="40" viewBox="0 -960 960 960" width="40"><path d="M480-507Zm-71 366q-96.67-52.67-156.83-153.53Q192-395.39 192-517.33V-738.4l288-108.27 288 108v168q-9.56-3.86-20.36-6.69-10.8-2.83-20.97-4.31v-128.66L480-802.67l-246.67 92.29v193.05q0 93.35 41.34 174.84Q316-261 385-212.33q1.33 20.33 7.67 37.66Q399-157.33 409-141Zm270.67 70.33q-88.42 0-148.71-60.36-60.29-60.36-60.29-148.5t60.09-148.97q60.1-60.83 148.22-60.83 87.45 0 148.9 60.62t61.45 148.37q0 16.12-2.66 30.56-2.67 14.45-6.34 27.78l-33.66-33.33q.66-6.02 1.5-12.34.83-6.31.83-12.33 0-70.9-49.31-120.12-49.3-49.21-119.83-49.21T560-400.17q-49.33 49.17-49.33 119.5 0 70.34 49.47 119.67 49.46 49.33 119.53 49.33 5.35 0 12-.5 6.64-.5 12.66-1.83l33.34 35.33q-14.43 3.2-28.72 5.6-14.3 2.4-29.28 2.4Zm-41.33-251.17q17.01-17.49 41.36-17.49 24.35 0 41.49 17.48 17.14 17.49 17.14 41.85 0 5.62-5.66 22.67l112 113-29 29.33-113.34-113q-2.28 2.33-22.06 6.33-24.83 0-41.88-16.99-17.06-16.99-17.06-41.34 0-24.35 17.01-41.84Z"/></svg>