<svg xmlns="http://www.w3.org/2000/svg" height="24" viewBox="0 -960 960 960" width="24"><path d="M680-8Q566-8 487-87.26q-79-79.27-79-192.5Q408-393 487-472.5 566-552 679.53-552t193 79.32Q952-393.37 952-280.06q0 26.06-5 49.56-5 23.5-13 46.5l-87-88v-8q0-70-49-119t-118.5-49Q610-448 561-399t-49 118.5q0 69.5 49.06 118.5 49.05 49 117.94 49h8l88 88q-23 8-46.62 12.5Q704.75-8 680-8Zm-68.51-340.51Q639.98-377 679.99-377 720-377 748-348.51q28 28.5 28 68.51 0 6-2 20l137 138-74 74-138-138-19 2q-40.01 0-68.51-28Q583-240 583-280.01q0-40.01 28.49-68.5ZM130-516v-266l350-132 350 132v184q-35-17-72.91-25.5T680-632q-147.4 0-249.7 103Q328-426 328-280q0 53.94 16.05 105.59Q360.09-122.76 391-78q-117-59-189-178.3-72-119.29-72-259.7Z"/></svg>