<svg xmlns="http://www.w3.org/2000/svg" height="24" viewBox="0 -960 960 960" width="24"><path d="M480-538ZM387-80q-117-61-189-180t-72-256v-267l354-132 354 132v185q-29-14-60.5-23T708-633v-63l-228-85-228 85v180q0 62 19.5 117.5T326-296q-2 58 13.5 113T387-80ZM679-6Q565-6 485-86t-80-194q0-114 80-194t194-80q115 0 195 80t80 194q0 24-3.5 47T939-188L826-307q-10-53-50.5-87.5T679-429q-62 0-105.5 43T530-280q0 56 35 97t88 50L766-20q-20 7-42 10.5T679-6Zm-73.5-348.5Q636-385 680-385q43 0 73.5 30.5T784-280l-1 15 137 137-88 89-137-137q-5 1-15 1-44 0-74.5-30.5T575-280q0-44 30.5-74.5Z"/></svg>