<svg xmlns="http://www.w3.org/2000/svg" height="24" viewBox="0 -960 960 960" width="24"><path d="M679.76-41.87q-99.35 0-168.99-69.39-69.64-69.39-69.64-168.74 0-99.35 69.64-168.74 69.64-69.39 168.99-69.39 99.09 0 168.73 69.39 69.64 69.39 69.64 168.74 0 25.24-4.88 48.47t-14.38 45.2l-70.98-73.19q2.26-6.81 3.01-13.22.75-6.41.75-13.72-2.39-61.39-46.33-103.65-43.95-42.26-106.06-42.26-63.54 0-107.96 44.29-44.41 44.3-44.41 108.08 0 62.11 42.38 105.92 42.38 43.82 103.77 45.97 7.31 0 13.72-1 6.41-1 13.22-2.76l71 71.74q-21 9.26-43.99 13.76-22.99 4.5-47.23 4.5Zm-57.81-296.18q23.92-23.93 58.05-23.93 33.89 0 57.82 23.93 23.92 23.92 23.92 58.05 0 1.78-2.52 19.57l120.85 120.84-59.92 60.89-121.08-121.84q-3.48 1-19.07 2.52-34.13 0-58.05-23.93-23.93-23.92-23.93-58.05 0-34.13 23.93-58.05ZM160.87-516v-242.5L480-878.37 799.13-758.5v189.74q-28.17-11.44-58.45-17.9-30.27-6.47-60.92-6.47-129.65 0-220.68 89.95-91.04 89.94-92.71 219.35 0 48.4 14.71 94.55 14.7 46.15 40.7 87.02-115.69-50.41-188.3-164.85Q160.87-381.54 160.87-516Z"/></svg>