<svg xmlns="http://www.w3.org/2000/svg" height="20" viewBox="0 -960 960 960" width="20"><path d="M480-496Zm-68 317q-85-49-138.5-138.33Q220-406.67 220-515v-193l260-100 260 100v147q-4.65-.9-9.68-2.1-5.04-1.19-10.32-1.9v-130l-240-91-240 91v180q0 95.24 44.77 177.67Q329.54-254.9 403-207q3 8 4.5 14.5T412-179Zm260 79q-78.33 0-133.17-54.76-54.83-54.77-54.83-133Q484-366 538.76-421q54.77-55 133-55Q750-476 805-421.17q55 54.84 55 133.17 0 17.69-3 33.85-3 16.15-9 30.15l-15-13q3-12 5-25.5t2-25.5q0-70-49-119t-119-49q-70 0-119 49t-49 119q0 70 49 119t119 49q12 0 25.5-2t25.5-5l13 14q-14.43 6.2-30.43 9.6-16 3.4-33.57 3.4Zm-28.94-217q12.06-12 29-12Q689-329 701-316.96q12 12.05 12 28.96 0-.71-5 21l101 101-14 15-102-101q-6.29 3-21 5-16.91 0-28.96-12.06-12.04-12.06-12.04-29Q631-305 643.06-317Z"/></svg>