<svg xmlns="http://www.w3.org/2000/svg" height="24" viewBox="0 -960 960 960" width="24"><path d="M480-521.07ZM413.3-94.43q-117.32-53.03-190.42-169.42-73.1-116.39-73.1-252.15v-250L480-889.78 810.22-766v190.06q-23.65-10.39-48.9-17.4-25.25-7.01-52.1-9.51v-93.56L480-782.09l-229.22 85.56V-516q0 75.13 29.12 141.67 29.12 66.55 78.69 114.22 2.04 45 15.73 86.93 13.69 41.94 38.98 78.75Zm266.13 63.65q-103.95 0-176.83-72.77-72.88-72.77-72.88-176.57 0-103.79 72.88-176.45 72.88-72.65 176.83-72.65 103.98 0 176.89 72.74 72.9 72.73 72.9 176.48 0 25.51-4.72 49.42t-14.22 46.54l-86.63-89.83q1.94-5.17 2.69-10.45.75-5.27.75-10.94-5.66-57.15-47.48-95.34-41.83-38.18-100.68-38.18-62.23 0-105.51 42.99Q530.15-342.8 530.15-280q0 58.85 38.47 100.71 38.47 41.85 95.62 46.94 5.67 0 10.94-1 5.28-1 10.45-2.43l86 87.06q-21 8.94-44.37 13.44-23.37 4.5-47.83 4.5Zm-63.25-313.14q26.31-26.21 63.93-26.21 37.04 0 63.25 26.28T769.57-280q0 .8-1.87 17.61l125.41 125.41-70.02 71.66-126.22-126.42q-4.02 1-16.87 1.87-37.57 0-63.85-26.31t-26.28-63.93q0-37.61 26.31-63.81Z"/></svg>