<svg xmlns="http://www.w3.org/2000/svg" height="24" viewBox="0 -960 960 960" width="24"><path d="M680-48q-97.08 0-164.54-67.73Q448-183.45 448-279.76q0-96.32 67.46-164.28Q582.92-512 679.53-512t164.54 67.78Q912-376.45 912-280.06q0 18.37-3.46 35.33-3.46 16.96-7.62 33.04l-54.69-54.16q0-3.12.39-7.07.38-3.96.38-7.08 0-70-49-119t-118.5-49Q610-448 561-399t-49 118.5q0 69.5 49.06 118.5 49.05 49 117.94 49 3.12 0 7.08-.38 3.95-.39 7.07-.39l54.16 55.69q-16.08 4.16-32.78 7.12Q697.83-48 680-48Zm-51.59-283.59q21.57-21.56 51.58-21.56 30.01 0 51.09 21.57 21.07 21.57 21.07 51.58 0 6-4.3 21.54l120.84 121.84-45.54 46.31-122.61-121.84q0 .77-20.54 4.3-30.01 0-51.58-21.07-21.57-21.08-21.57-51.09 0-30.01 21.56-51.58ZM170-516v-238.31l310-116.61 310 116.61v168.62q-25.77-11.62-53.68-16.66-27.91-5.03-56.32-5.03-136.63 0-232.01 96.07-95.37 96.08-95.37 231.31 0 41.64 10.27 81.74 10.28 40.11 31.19 76.41-100.85-56.69-162.46-162.14Q170-389.44 170-516Z"/></svg>