<svg xmlns="http://www.w3.org/2000/svg" height="24" viewBox="0 -960 960 960" width="24"><path d="M480-501.69Zm-63.92 353.84q-95.85-50.69-155.96-149.84Q200-396.85 200-516v-216.31l280-104.61 280 104.61v168.62q-9.5-3.31-19.5-5.38t-20.5-3.31V-705l-240-89.23L240-705v189q0 93.77 41.85 175.46Q323.69-258.85 393-209.15q3.46 16.53 9.15 31.73 5.7 15.19 13.93 29.57ZM680-80q-83.33 0-141.67-58.28Q480-196.56 480-279.82q0-83.26 58.28-141.72Q596.56-480 679.82-480q83.26 0 141.72 58.33Q880-363.33 880-280q0 15.65-2.46 29.94-2.46 14.29-6.62 27.37l-32.69-34.16q1-5.77 1.39-11.57.38-5.81.38-11.58 0-66-47-113t-113-47q-66 0-113 47t-47 113q0 66 47 113t113 47q5.77 0 11.58-.38 5.8-.39 11.57-1.39l33.16 33.69q-13.41 4.31-27.49 6.2Q694.75-80 680-80Zm-39.69-239.58q16.46-16.57 39.57-16.57 23.12 0 39.7 16.49 16.57 16.5 16.57 39.66 0 3.22-5.3 22.54l106.84 106.84-28.54 28.31-106.61-106.84q-3.22 1.77-22.54 5.3-23.16 0-39.66-16.46-16.49-16.46-16.49-39.57 0-23.12 16.46-39.7Z"/></svg>