<svg xmlns="http://www.w3.org/2000/svg" height="20" viewBox="0 -960 960 960" width="20"><path d="M671-2Q552-2 468.5-85.26 385-168.53 385-287.76 385-407 468.5-490.5 552-574 670.53-574q120.53 0 204 83.32Q958-407.37 958-288.06q0 29.06-5 57.06-5 28-15 54L824-292q2-6.35 3.5-12t1.5-11q-10-58-53.5-95.5t-104-37.5q-67.5 0-114 46T511-288.5q0 61.5 38.06 105.5 38.05 44 95.94 53 5.35 0 11-1.5t11-3.5L778-23q-24 10-51.12 15.5Q699.75-2 671-2Zm-72.51-359.51Q628.98-392 671.99-392q43.01 0 72.51 30.49Q774-331.01 774-288q0-3 1 13l141 141-89 91-143-141q-6 1-12-1-43.01 0-73.51-30Q568-245 568-288.01q0-43.01 30.49-73.5ZM122-515v-260l358-137 358 137v168q-39-21-81.41-30T671-646q-145.4 0-247.7 99.5Q321-447 314-304q0 57.94 17.05 111.09Q348.09-139.76 374-88q-113-62-182.5-177.8Q122-381.59 122-515Z"/></svg>