<svg xmlns="http://www.w3.org/2000/svg" height="40" viewBox="0 -960 960 960" width="40"><path d="M480-521.17Zm-56.33 442.5q-127.17-52.16-206.42-175.5Q138-377.5 138-520.67V-775l342-128 342.67 128v202.5q-24.34-11.33-49.75-19.08-25.42-7.75-52.25-10.59V-704.5L480-795l-240.67 90.39v183.94q0 82 33.59 152.84Q306.5-297 363.83-248.5q2 46.33 17.12 89.38 15.11 43.05 42.72 80.45Zm255.33 60q-109.71 0-185.94-75.95t-76.23-185.5q0-109.55 76.23-185.71Q569.29-542 679-542q109.17 0 186.08 76.25Q942-389.5 942-280q0 26.61-5.17 52.22-5.16 25.61-14.66 49.11l-89.5-91.66q3.16-7.34 4.58-15.75 1.42-8.42 1.42-16.25-8.67-60.84-53.17-99.75Q741-441 678.17-441q-66.84 0-113.59 46.08-46.75 46.09-46.75 114.92 0 62.17 39.59 106.75Q597-128.67 656.83-121q7.5 0 16.25-1.67 8.75-1.66 16.42-3.66l87.67 88.5q-23 9.5-47.47 14.33-24.48 4.83-50.7 4.83Zm-64.98-327.41Q641.05-373 680.11-373q38.72 0 65.31 26.99Q772-319.02 772-280q0 .17-1.67 18.33l132.84 133.84-70.5 71.66L698.6-189.33q-6.56 1.66-18.6 2.33-39.02 0-66.01-27.02Q587-241.05 587-280.11t27.02-65.97Z"/></svg>