<svg xmlns="http://www.w3.org/2000/svg" height="20" viewBox="0 -960 960 960" width="20"><path d="M480-529.5ZM397-102q-113.5-55.5-183.75-168.83Q143-384.17 143-515v-245l337-129 337 129v173.5q-26-12-54.28-20.75Q734.43-616 704-618.5v-64L480-768l-224 85.39V-515q0 64.24 23.52 121.17 23.52 56.93 63.98 101.33-1 52 11.78 100.22Q368.06-144.07 397-102Zm274 78q-110.04 0-187.27-77.12t-77.23-187Q406.5-398 483.73-475T671-552q110.5 0 187.75 77.08Q936-397.83 936-288q0 30.19-5.5 58.85-5.5 28.65-18 55.15L813-275q3.5-9 5.75-19.75T821-315q-10-55.5-51-90.25T670.5-440q-64.5 0-108.25 43.25T518.5-288q0 58.5 35.25 99.75T644.5-138q9.5 0 20.25-2.5t19.75-5.5l96 97.5q-24 11.5-51.8 18Q700.89-24 671-24Zm-64.93-330.25Q633.14-381 672.32-381q38.18 0 64.93 26.97Q764-327.05 764-288v13l130.5 130.5-77.5 81L684.27-195q-7.9 2-12.27 0-39.05 0-66.03-27.07Q579-249.14 579-288.32t27.07-65.93Z"/></svg>