<svg xmlns="http://www.w3.org/2000/svg" height="20" viewBox="0 -960 960 960" width="20"><path d="M480-517.74Zm-78.22 401.48q-107.19-53.91-174.55-162.68Q159.87-387.71 159.87-515v-234.5L480-872.37 800.13-749.5v167.24q-19.39-8.44-40.17-14.39-20.79-5.96-42.83-8.96v-87.24L480-783.65l-237.13 90.8V-515q0 76.22 30.04 144.23 30.04 68 82.24 117.7 3.33 37.5 14.93 71.89 11.59 34.38 31.7 64.92Zm269.98 76.39q-103.35 0-175.74-72.39-72.39-72.39-72.39-175.74 0-103.35 72.39-175.74 72.39-72.39 175.74-72.39 103.59 0 175.98 72.39 72.39 72.39 72.39 175.74 0 27.49-4.88 52.84-4.88 25.36-15.88 48.83l-68.48-69.19q2.76-9.81 4.26-19.47 1.5-9.66 1.5-19.47-2.39-66.89-49.83-112.9-47.45-46.01-115.06-46.01-69.04 0-117.21 48.04-48.16 48.05-48.16 117.33 0 67.61 46.13 115.17 46.13 47.57 113.02 49.72 9.81 0 19.47-1.5 9.66-1.5 19.47-4.26l68 67.24q-23 10.76-48.24 16.26-25.24 5.5-52.48 5.5ZM616.91-343.3q22.88-22.68 55.3-22.68 32.18 0 54.86 22.83 22.67 22.82 22.67 55.15 0-1.72-1.52 17.57l125.35 125.34-58.42 58.89-125.58-125.34q-6.48 2-17.57 1.52-32.33 0-55.15-22.89-22.83-22.88-22.83-55.3t22.89-55.09Z"/></svg>