<svg xmlns="http://www.w3.org/2000/svg" height="40" viewBox="0 -960 960 960" width="40"><path d="M680-82.82q-83.18 0-140.15-57T482.88-280q0-83.18 56.97-140.18t140.15-57q81.83 0 139.51 57 57.67 57 57.67 140.18 0 16.69-2.9 32.28-2.9 15.58-7.78 29.93l-25.65-25.88q1.7-8.56 2.8-17.84 1.09-9.27 1.09-18.49 0-68.86-48.27-116.8-48.26-47.94-116.41-47.94-68.52 0-116.63 47.94T515.32-280q0 68.53 48.11 116.63 48.11 48.11 116.63 48.11 8.5 0 17.86-1.15 9.35-1.15 18.63-3.26l25.03 26.3q-14.9 5.09-29.93 7.82-15.03 2.73-31.65 2.73Zm-37.37-234.55q15.41-15.4 37.37-15.4 21.96 0 37.37 15.4 15.4 15.41 15.4 37.37 0 3.55-5.98 23.67l106.63 106.06-23.42 23.1-106.12-106.04q-4.53 2.44-23.88 5.98-21.96 0-37.37-15.4-15.4-15.41-15.4-37.37 0-21.96 15.4-37.37ZM202.54-518.1v-212.39L480-834.26l277.46 103.77v176.27q-18.7-4.77-38.14-7.77Q699.88-565 680-565q-118.83 0-201.88 83.08-83.06 83.09-83.06 201.92 0 36.21 8.59 70.1 8.58 33.9 26.86 64.82-100.39-47.29-164.18-148.96-63.79-101.67-63.79-224.06Z"/></svg>