<svg xmlns="http://www.w3.org/2000/svg" height="24" viewBox="0 -960 960 960" width="24"><path d="M680-50q-96 0-163.25-67T449.5-280q0-96 67.25-163T680-510q95.5 0 162.75 67T910-280q0 25-5 47.75T890.5-188L831-249q2.5-8 3.25-15.25T835-280q0-64.5-45.5-109.75T679.5-435q-64.5 0-109.75 45.25T524.5-280q0 64.5 45.25 109.75T679.5-125q8.5 0 15.75-1t15.25-3l60 60.5q-21 9.5-43.75 14T680-50Zm-53.75-283.75Q648.5-356 680-356t53.75 22.25Q756-311.5 756-280q0 2.5-3 21l117.5 117.5-52.5 53L700.5-207q-3 1-20.5 3-31.5 0-53.75-22.25T604-280q0-31.5 22.25-53.75ZM169-516v-237l311-117 311 117v189.5q-26.5-10-54.5-15.75T680-585q-127.5 0-216.5 88.75T374.5-280q0 46 13.75 90T428-108q-114.5-48.5-186.75-161.5T169-516Z"/></svg>