<svg xmlns="http://www.w3.org/2000/svg" height="40" viewBox="0 -960 960 960" width="40"><path d="M480-509.31Zm-68.38 382.69Q308.56-179.2 244.28-285.07 180-390.93 180-518.1v-228.76l300-112.88 300 112.61v175.08q-11.95-5.12-25.13-8.83-13.19-3.71-26.05-5.71v-125.28L480-805.21l-248.82 93.3v193.81q0 92.43 40.29 173.3 40.3 80.88 107.92 130.39 2.1 24.95 10.62 46.47 8.53 21.53 21.61 41.32Zm268.05 67.95q-93.26 0-157.21-63.95-63.95-63.96-63.95-156.96 0-93.01 63.77-157.38 63.77-64.37 156.75-64.37 92.48 0 157.39 64.2 64.91 64.19 64.91 156.79 0 18.48-3.28 35.24-3.28 16.77-8.1 32.33l-41.51-41.18q.97-6.4 1.84-12.95.87-6.54.87-13.1 0-71.82-50-121.66-49.99-49.83-121.44-49.83-71.45 0-121.4 49.79-49.95 49.78-49.95 121.03 0 71.26 50.08 121.21 50.09 49.95 121.07 49.95 5.89 0 12.85-.54 6.95-.54 13.36-2.03l41.33 42.87q-16.56 4.47-33.24 7.5-16.67 3.04-34.14 3.04ZM633.91-326.3q18.82-19.26 45.82-19.26 27.01 0 45.92 19.28T744.56-280q0 5.55-4.97 22.67l117.15 118.3-36 35.95-118.41-118q-2.37 2.11-22.06 5.64-27.47 0-46.32-18.79-18.85-18.8-18.85-45.8 0-27.01 18.81-46.27Z"/></svg>