<svg xmlns="http://www.w3.org/2000/svg" height="24" viewBox="0 -960 960 960" width="24"><path d="M480-534.35ZM388.13-76.09q-117.48-59.95-189.72-179.73Q126.17-375.59 126.17-516v-268.15L480-917.35l353.83 133.2v184.24q-26.85-13.01-55.15-20.87-28.29-7.86-58.03-12.05v-73.54L480-796.7l-240.65 90.27V-516q0 68.65 22.58 130.92 22.59 62.28 62.48 112.32.57 54.11 17.19 103.96 16.62 49.84 46.53 92.71ZM679.76-4.65q-115.19 0-195.27-80.22-80.08-80.22-80.08-194.89 0-114.67 80.08-195.13t194.8-80.46q115.2 0 195.63 80.27 80.43 80.28 80.43 195.02 0 25.82-4.76 49.44Q945.83-207 938.07-184l-95.37-97.09V-286.46q-2.4-66.17-49.6-111.94-47.21-45.77-113.6-45.77-68.07 0-115.99 47.8T515.59-280.5q0 66.63 45.94 113.96 45.95 47.32 111.25 49.47h5.13l95.89 96.14q-22.52 7.76-46.02 12.02-23.51 4.26-48.02 4.26Zm-70.78-346.37q29.57-29.57 71.01-29.57 41.44 0 70.4 29.57 28.96 29.57 28.96 71.02 0 4.8-1.52 18.8l138.19 138.96L837-42.98 697.8-181.93q-.71 0-17.8 1.52-41.45 0-71.02-29.08-29.57-29.08-29.57-70.52t29.57-71.01Z"/></svg>