<svg xmlns="http://www.w3.org/2000/svg" height="24" viewBox="0 -960 960 960" width="24"><path d="M679.43-30.78q-103.91 0-176.81-72.65-72.9-72.66-72.9-176.57t72.9-176.57q72.9-72.65 176.81-72.65 103.98 0 176.89 72.65 72.9 72.66 72.9 176.57 0 25.57-4.72 49.45-4.72 23.88-14.22 46.51l-86.63-89.83q1.94-5.17 2.69-10.45.75-5.27.75-10.94-5.66-57.15-47.48-95.34-41.83-38.18-100.68-38.18-62.23 0-105.51 42.99Q530.15-342.8 530.15-280q0 58.85 38.47 100.71 38.47 41.85 95.62 46.94 5.67 0 10.94-1 5.28-1 10.45-2.43l86 87.06q-21 8.94-44.31 13.44-23.32 4.5-47.89 4.5Zm-63.35-313.14q26.2-26.21 63.92-26.21 37.15 0 63.36 26.21 26.21 26.2 26.21 63.92 0 .8-1.87 17.61l125.41 125.41-70.02 71.66-125.98-126.42q-4.13 1-17.11 1.87-37.72 0-63.92-26.21-26.21-26.2-26.21-63.92t26.21-63.92ZM149.78-516v-250L480-889.78 810.22-766v190.06q-30.46-13.39-63.83-20.83-33.37-7.45-66.96-7.45-132.58 0-226.39 91.58-93.8 91.57-97.76 223.6 0 51.65 16.01 100.74 16.01 49.08 42.01 93.87-117.32-53.03-190.42-169.42-73.1-116.39-73.1-252.15Z"/></svg>