<svg xmlns="http://www.w3.org/2000/svg" height="40" viewBox="0 -960 960 960" width="40"><path d="M680-46.67q-97.67 0-165.92-67.83-68.25-67.83-68.25-165.5t68.25-165.5q68.25-67.83 165.92-67.83 96.83 0 165.08 67.83 68.25 67.83 68.25 165.5 0 25.67-5.33 49.58-5.33 23.92-14.83 46.09l-49.5-49.34q3.5-11 4.91-22.58Q850-267.83 850-280q0-71.17-50-120.58Q750-450 679.17-450q-70.84 0-120.42 49.42-49.58 49.41-49.58 120.58 0 70.83 49.58 120.42Q608.33-110 679.17-110q11.83 0 23.75-1.67 11.91-1.66 23.25-4.66l49 49.5q-22.34 9.83-46.09 15-23.75 5.16-49.08 5.16Zm-51.08-284.41Q649.83-352 680-352q30.17 0 51.08 20.92Q752-310.17 752-280q0 3.17-3.67 23.67l121.5 121.83-44.83 44-121.5-121.17Q698.83-210 680-208q-30.17 0-51.08-20.92Q608-249.83 608-280q0-30.17 20.92-51.08ZM166-520.67V-756l314-118 314 118v202.17q-27.17-10.67-55.83-16.75-28.67-6.09-58.17-6.09-123.83 0-210.67 86.42Q382.5-403.83 382.5-280q0 49.67 16.08 96 16.09 46.33 46.42 85.33-122.83-45.5-200.92-163.83Q166-380.83 166-520.67Z"/></svg>