<svg xmlns="http://www.w3.org/2000/svg" height="24" viewBox="0 -960 960 960" width="24"><path d="M480-515Zm-85 380q-96-56-154.5-157.3Q182-393.59 182-516v-230l298-112 298 112v164q-12.83-5.71-26.33-9.29-13.5-3.57-27.67-5.71v-112l-244-91-244 90.94V-516q0 86 36 161.5T367-231q0 27 7 51t21 45Zm285 75q-92.33 0-156.17-64.03Q460-188.06 460-279.53t63.76-155.97Q587.53-500 679.29-500q91.77 0 156.24 64.15Q900-371.7 900-280.06q0 16.51-3 31.28-3 14.78-6 28.78l-45-44q0-3.35.5-8t.5-8q0-70-49-119t-118.5-49Q610-448 561-399t-49 118.5q0 69.5 49.06 118.5 49.05 49 117.94 49 3.35 0 8-.5t8-.5l44 46q-14.43 3.2-29.05 5.6Q695.32-60 680-60Zm-46.66-266.51Q652.68-346 679.84-346T726-326.61q19 19.38 19 46.61 0 6.29-5 22l116 117-37 38-118-117q-.29 1-21 5-27.23 0-46.61-18.85Q614-252.7 614-279.86q0-27.16 19.34-46.65Z"/></svg>