<svg xmlns="http://www.w3.org/2000/svg" height="24" viewBox="0 -960 960 960" width="24"><path d="M680-28q-105.54 0-178.77-73.5Q428-174.99 428-279.76q0-104.78 73.23-178.51Q574.46-532 679.53-532q105.07 0 178.77 73.55Q932-384.91 932-280.06q0 22.21-4.23 42.44-4.23 20.23-10.31 39.77l-70.84-71.07q0-2.74.19-5.54T847-280q0-70-49-119t-118.5-49Q610-448 561-399t-49 118.5q0 69.5 49.06 118.5 49.05 49 117.94 49 2.74 0 5.54-.19t5.54-.19l71.07 71.84q-19.54 6.08-39.7 9.81Q701.29-28 680-28Zm-60.05-312.05q25.03-25.03 60.04-25.03t59.55 25.04q24.54 25.03 24.54 60.04 0 6-3.16 20.77l128.92 129.92-59.76 60.15-130.31-129.92q0 .39-19.77 3.16-35.01 0-60.04-24.54-25.04-24.54-25.04-59.55t25.03-60.04ZM150-516v-252.15l330-124.31 330 124.31v176.3q-30.39-14.3-63.3-21.07t-66.7-6.77q-142.02 0-240.85 99.54-98.84 99.54-98.84 240.15 0 47.79 13.16 93.67t39.07 86.41q-108.92-57.85-175.73-170.22Q150-382.51 150-516Z"/></svg>