<svg xmlns="http://www.w3.org/2000/svg" height="24" viewBox="0 -960 960 960" width="24"><path d="M417.95-108.08q-24.65 0-45.97-9.54-21.33-9.54-35.59-28.8l-187.2-240.04q-6.38-8.81-5.83-19.26.56-10.46 8.18-18.05 14.5-14.5 35.29-16.86 20.79-2.37 38.9 8.4l89.16 55.12v-256.62q0-11.27 8.01-19.67 8.02-8.41 19.87-8.41 11.27 0 19.67 8.41 8.41 8.4 8.41 19.67v296.34q0 20.02-17.4 29.84-17.39 9.82-34.22-.53l-73.5-44.69 134.35 171.15q6.15 9.35 16.29 13.47 10.13 4.11 21.36 4.11h212.02q35.37 0 60.79-24.99t25.42-61.93v-153.29q0-20.33-13.85-34.44-13.86-14.12-34.21-14.12h-62.44q-11.63 0-19.76-8.27-8.12-8.26-8.12-19.72 0-11.46 8.12-19.72 8.13-8.25 19.76-8.25h62.5q43.06 0 73.51 30.76 30.45 30.77 30.45 73.7v153.35q0 59.83-41.79 101.36-41.79 41.52-100.66 41.52H417.95Zm36.4-352.95q-8.12-8.22-8.12-19.85v-220.5q0-11.27 8.02-19.68 8.01-8.4 19.87-8.4 11.26 0 19.67 8.4 8.4 8.41 8.4 19.68v220.5q0 11.63-8.22 19.85-8.23 8.22-19.87 8.22t-19.75-8.22Zm-34.83-374.62q-42.25 0-78.68 16.01-36.44 16.02-63.8 43.33-28.81 28.81-44.27 67.06Q217.31-671 218-630.61q-.23 12.18-7.52 21.74-7.29 9.56-18.53 11.18-11.25 1.61-20.66-5.52-9.4-7.14-9.6-18.4-3.04-53.2 17.5-104.93 20.54-51.73 58.12-89.31 34.91-35.11 81.77-55.44 46.86-20.32 100.58-20.32 53.43 0 100.09 20.32 46.66 20.32 81.6 55.44 38.84 39.24 57.44 87.66 18.59 48.42 16.55 103.27-.38 11.65-9.01 18.9-8.64 7.25-20.29 5.73-11.66-1.52-18.62-10.24-6.95-8.72-7.65-20.58-.49-42.35-14.22-78.49-13.74-36.13-43.74-66.71-27.59-27.31-63.81-43.33-36.22-16.01-78.48-16.01Zm61.32 512.84Z"/></svg>