<svg xmlns="http://www.w3.org/2000/svg" height="24" viewBox="0 -960 960 960" width="24"><path d="M416-100q-24 0-46-10t-36-30L142-386q-6-9-6-18.5t7-16.5q15-15 35.5-17.5T217-430l95 60v-247q0-9 7.5-17.5T338-643q10 0 18.5 8.5T365-617v138h100v-208q0-9 7.5-17.5T491-713q10 0 18.5 8.5T518-687v208h156q43 0 74 30.5t31 73.5v130q0 61-42.5 103T634-100H416Zm12-755q-47 0-85.5 16.5T273-793q-31 29-48.5 70T209-640q-1 12-8.5 21T183-608q-10 2-17.5-6t-7.5-17q-2-61 14-108t62-91q37-36 86.5-57T428-908q58 0 107 21t86 57q41 39 61 89t17 107q0 11-7.5 18t-18.5 6q-11-1-18.5-9.5T646-640q0-45-14.5-83T584-793q-31-29-70.5-45.5T428-855Z"/></svg>