<svg xmlns="http://www.w3.org/2000/svg" height="20" viewBox="0 -960 960 960" width="20"><path d="M457.55-153q-13.18 0-26.11-6-12.94-6-21.44-16.5L218.5-398q-9-9.5-3.04-13.45 5.96-3.94 11.54-9.55 7.5-7.5 15.75-8.25T261.5-428l106 50.5v-271q0-2.8 2.38-5.9 2.39-3.1 5.91-3.1 2.71 0 5.96 3.1t3.25 5.9V-404q0 13.25-9.42 20.37-9.42 7.13-21.58 3.63l-156.5-78L423-187q7 7.5 15.83 12 8.82 4.5 18.67 4.5h146.71q36.99 0 63.14-26.18 26.15-26.17 26.15-63.82v-155.36q0-18.84-12.79-31.74-12.8-12.9-31.38-12.9H611q-3.75 0-6.12-2.68-2.38-2.69-2.38-5.89 0-3.21 2.38-6.07Q607.25-478 611-478h38.5q24.96 0 43.23 18.58Q711-440.83 711-416v155.5q0 45.02-31.26 76.26Q648.47-153 603.81-153H457.55Zm17.95-310.13q-2.5-2.62-2.5-6.37V-692q0-2.8 2.38-5.9 2.39-3.1 5.91-3.1 2.71 0 5.96 3.1t3.25 5.9v222.5q0 3.75-2.57 6.37-2.58 2.63-6.25 2.63-3.68 0-6.18-2.63ZM430.08-837.5q-39.58 0-72.28 14.48T298.5-782Q267-750.5 253-711.75T244-630q1 4.1-2.75 7.05t-6.2 3.95q-2.45 1-4-2.25-1.55-3.25-2.05-4.75-5.5-52.5 6.5-91.5T285-794q28.51-28.98 65.43-44.99Q387.34-855 430.44-855q42.8 0 79.49 15.99 36.69 16 65.57 45.01 31 32 47.75 76.5T634.5-627q-1 3.56-3.06 5.78t-5.94 1.47q-3.5-.75-5.86-4.12-2.35-3.37-2.64-7.08 1.94-45.05-10.23-81.88-12.16-36.83-43.27-69.17-27.13-26.54-60.7-41.02-33.56-14.48-72.72-14.48Zm15.92 511Z"/></svg>