<svg xmlns="http://www.w3.org/2000/svg" height="48" viewBox="0 -960 960 960" width="48"><path d="M412.78-58q-30.99 0-56.89-11.5Q330-81 313-105L107-366q-11-13.37-10.5-29.69.5-16.31 14.25-31.06 20.25-19.29 48.5-22.27Q187.51-452 212-439l74 47v-233q0-17.83 12.48-31.41Q310.96-670 330.37-670 350-670 363-656.41q13 13.58 13 31.41v308q0 21-17.5 32.5T323-282l-67-41 127.02 161.52q4.23 8.13 12.93 10.81 8.7 2.67 16.54 2.67H646q33.24 0 56.62-23.25Q726-194.5 726-228v-167q0-14.5-11.49-26.25Q703.03-433 688-433h-45q-19.07 0-32.04-12.86Q598-458.72 598-478.59q0-19.87 12.61-32.64T643-524h45q53.5 0 91.75 38.37Q818-447.25 818-395v167q0 71.19-50.97 120.59Q716.06-58 646-58H412.78ZM454-445.63q-13-12.62-13-33.37v-219q0-17.82 13.27-31.41Q467.53-743 487.14-743q18.86 0 32.36 13.59T533-698v221q0 18.1-12.73 31.05t-33 12.95Q467-433 454-445.63ZM429.41-856q-44.41 0-85.56 17.13Q302.7-821.75 274-794q-26 24-43.5 61T210-662q-4 20-14.5 36t-27.84 16q-19.56 4-34.61-8.25T119-649q-1-60 22-114t67-95q42.35-41.54 98.87-64.77Q363.39-946 428.5-946q65.5 0 122.83 23.15Q608.66-899.71 649-858q44 42 65.5 94.5T739-653q-1 18.11-14.25 31.06-13.26 12.94-32.56 10.44-19.19-2.5-31.31-16.42Q648.76-641.83 646-662q-1.94-39.17-16.97-72.22Q614-767.28 586-795q-30.86-28-71.11-44.5-40.26-16.5-85.48-16.5ZM491-314Z"/></svg>