<svg xmlns="http://www.w3.org/2000/svg" height="48" viewBox="0 -960 960 960" width="48"><path d="M414.42-78.02q-27.48 0-50.76-10.61-23.27-10.61-39.25-31.57L122.96-376.13q-7.96-9.64-7.29-21.69.68-12.05 10.03-21.57 16.69-16.46 39.94-18.95 23.24-2.49 44.06 9.23l91.26 56.39v-263.24q0-13.12 9.21-22.97t23.05-9.85q13.24 0 23.18 9.85 9.95 9.85 9.95 22.97v321.48q0 17.71-15.4 26.3t-30.52.09l-87.8-52.93L375.7-160.58q6.03 9.47 16.4 13.32 10.37 3.85 22.16 3.85h228.67q37 0 63.85-26.04t26.85-63.62v-163.45q0-19.98-14.54-34.45-14.55-14.46-34.8-14.46h-66.92q-13.98 0-23.27-9.74-9.3-9.73-9.3-23.29 0-13.57 9.33-23.09 9.32-9.52 23.24-9.52h67.09q47.5 0 81.15 33.58 33.65 33.58 33.65 80.97v163.45q0 64.93-46.1 109.99-46.09 45.06-110.63 45.06H414.42Zm37.54-376.99q-9.2-9.57-9.2-23.49v-229.2q0-13.22 9.35-23.14t23.18-9.92q13.21 0 23.16 9.92 9.94 9.92 9.94 23.14v229.44q0 13.88-9.44 23.35-9.44 9.48-23.62 9.48-14.18 0-23.37-9.58Zm-32.3-402.53q-44.81 0-84.78 17.36-39.98 17.37-69.27 46.42-28.54 28.06-46.93 69.64-18.38 41.58-17.33 81.66.04 14.71-8.42 25.63-8.45 10.92-21.47 12.92-13.28 2.48-24.25-6.41t-10.99-22.94q-2.79-58.46 18.46-112.11t63.45-95.37q38.24-38.29 90.3-60.36 52.06-22.07 111.46-22.07 59.11 0 110.49 22.09 51.37 22.09 89.69 60.58 41.97 42 62.45 94 20.48 52 19.94 110 .24 14.29-10.23 23.18t-24.6 7.02q-13.17-1.87-21.89-11.89t-9.39-24.53q-.2-43.86-15.47-82.3-15.27-38.44-46.31-69.74-30.37-29.3-70.23-46.04t-84.68-16.74Zm63.97 545.84Z"/></svg>