<svg xmlns="http://www.w3.org/2000/svg" height="48" viewBox="0 -960 960 960" width="48"><path d="M415-116q-22 0-42-9t-32-27L153-393q-5-6-5.5-12t5.5-11q11-12 29-14t33 7l107 66v-268q0-6 4.5-11.5T339-642q6 0 11.5 5.5T356-625v146h106v-214q0-6 5-11.5t12-5.5q7 0 12.5 5.5T497-693v214h172q38 0 66.5 27.5T764-386v136q0 56-39.5 95T629-116H415Zm7-738q-46 0-86 17t-69 46q-33 32-50.5 78T202-623q-1 8-5.5 14.5T186-602q-7 1-11.5-4t-4.5-11q-5-58 11.5-106.5T241-814q34-35 80.5-54.5T422-888q54 0 100 19.5t81 54.5q39 40 56.5 89.5T675-620q-1 7-6 11.5t-11 4.5q-8-1-12.5-6.5T641-624q1-50-13-91t-50-76q-31-29-70.5-46T422-854Z"/></svg>