<svg xmlns="http://www.w3.org/2000/svg" height="48" viewBox="0 -960 960 960" width="48"><path d="M413-58q-31 0-57-11.5T313-105L107-366q-11-14-10.5-30t14.5-31q20-19 48.5-22t52.5 10l74 47v-233q0-17 12.5-31t32.5-14q19 0 32 14t13 31v147h65v-220q0-18 13.5-31.5T487-743q19 0 32.5 13.5T533-698v220h155q53 0 91.5 38.5T818-349v121q0 71-51 120.5T646-58H413Zm16-798q-44 0-85 17t-70 45q-26 24-43.5 61T210-662q-4 20-14.5 36T168-610q-20 4-35-8t-14-31q-1-60 22-114t67-95q42-42 99-65t122-23q65 0 122 23t98 65q44 42 65.5 94.5T739-653q-1 18-14.5 31T692-611q-19-3-31-17t-15-34q-2-39-17-72t-43-61q-31-28-71-44.5T429-856Z"/></svg>