<svg xmlns="http://www.w3.org/2000/svg" height="20" viewBox="0 -960 960 960" width="20"><path d="M458.83-64q-24.88 0-47.36-10.5Q389-85 373-104L154-360q-18-20.63-11-40.31 7-19.69 22.75-35.44Q184-454 207.5-457t46.5 7l65 25v-222q0-19.3 13.72-33.65 13.72-14.35 34-14.35t34.78 14.35Q416-666.3 416-647v308q0 22.5-18 34.75T359-301l-35-5 123 140q2.86 2.29 5.51 3.64Q455.15-161 459-161h177q26.7 0 46.35-19.27Q702-199.55 702-227v-176q0-6.38-4.9-10.69T686-418h-5q-20.4 0-34.2-14.29-13.8-14.29-13.8-34.57t14.35-34.21Q661.7-515 682-515h4q47.08 0 80.04 32.67Q799-449.67 799-403v176q0 68.26-47.58 115.63Q703.84-64 636-64H458.83Zm19.67-368.35Q464-446.7 464-467v-232q0-19.3 13.72-33.65 13.72-14.35 34-14.35t34.78 14.35Q561-718.3 561-699v233q0 20.4-13.72 34.2-13.72 13.8-34 13.8t-34.78-14.35ZM441.52-855Q401-855 368-841q-33 14-60 39-24 22-36.5 48T254-696q-3 21.07-16 37.03Q225-643 205-640q-20 3-34.5-10T157-681q2-59 20-103.5t61-85.5q39.99-38.71 92.31-60.35Q382.62-952 442.12-952q59.88 0 111.57 21.65Q605.39-908.71 645-870q38 36 61 85t24 102q1 20.06-14.12 32.53Q700.75-638 680.19-640q-20.19-2-33.69-18.5Q633-675 631-696.45q-4-31.55-17.45-58.13Q600.11-781.16 577-802q-26.62-25-61-39-34.37-14-74.48-14ZM514-320Z"/></svg>