<svg xmlns="http://www.w3.org/2000/svg" height="40" viewBox="0 -960 960 960" width="40"><path d="M415.21-70.17q-29.42 0-54.45-11.47-25.03-11.46-42.01-34.06L118.63-371.13q-9.95-12.67-9.19-28.14.75-15.47 12.59-27.61 19.2-18.64 45.65-21.62 26.45-2.99 49.83 10.4l75.6 47.38v-236.55q0-17.16 11.84-29.59 11.83-12.42 29.69-12.42 17.31 0 30.01 12.42 12.71 12.43 12.71 29.59v309.47q0 20.87-17.59 31.53-17.59 10.67-35.84 1.36l-59.97-36.26 120.72 152.88q4.67 7.6 12.67 10.73 8.01 3.14 17.73 3.14h226.85q32.53 0 56.2-23.12t23.67-56.69v-163.12q0-15.99-11.44-27.62-11.44-11.62-27.52-11.62h-50.98q-17.82 0-29.94-12.56-12.12-12.56-12.12-30.07 0-17.51 12.29-29.76 12.29-12.24 29.95-12.24h50.91q51.22 0 87.35 36.3 36.12 36.29 36.12 87.57v163.12q0 68.7-48.33 116.38-48.33 47.68-116.5 47.68H415.21Zm38.26-378.88q-12.2-12.45-12.2-30.12V-698.7q0-17.31 12.06-29.85 12.06-12.53 29.88-12.53 17.28 0 29.98 12.53 12.7 12.54 12.7 29.85v220.1q0 17.66-12.06 29.83-12.07 12.18-30.11 12.18-18.05 0-30.25-12.46Zm-26.82-399q-43.79 0-82.63 16.32-38.84 16.32-67.42 44.13-25.86 24.92-42.84 60.73-16.98 35.81-18.57 71.41-2.12 18.37-12.83 32.61-10.71 14.24-27.55 16.62-17.26 3.13-31.33-8.04-14.07-11.17-13.27-28.82-.95-58.64 20.89-111.12 21.85-52.48 64.53-93.63 40.24-39.5 94.51-62.17 54.27-22.66 116.46-22.66 61.9 0 115.64 22.67 53.75 22.68 93.99 62.33 42.13 41.33 63.46 92.23 21.33 50.91 22.42 108.62.75 17.91-12.63 29.49-13.39 11.58-31.19 9.37-17.17-2.21-28.47-15.51-11.29-13.3-13.46-31.73-2.01-38.9-16.47-72.17-14.45-33.27-42.51-60.9-29.53-27.98-68.23-43.88-38.71-15.9-82.5-15.9Zm66.65 530.37Z"/></svg>