<svg xmlns="http://www.w3.org/2000/svg" height="20" viewBox="0 -960 960 960" width="20"><path d="M458.23-84q-21.92 0-42.31-9.54-20.38-9.54-34.46-26.62L168.23-369.23q-15.69-18.31-9.07-33.77 6.61-15.46 19.92-28.77 15.69-15.69 35.34-18.11 19.66-2.43 39.58 5.65l76.15 32.31v-231.23q0-14.39 11.12-26.2 11.12-11.8 26.88-11.8 15.39 0 27.2 11.8 11.8 11.81 11.8 26.2v164.77h63.39v-215.23q0-14.39 11.11-26.2 11.12-11.8 26.89-11.8 15.38 0 27.19 11.8 11.81 11.81 11.81 26.2v215.23h130.77q41.61 0 71.15 29.03Q779-420.31 779-378.69v144.77q0 62.61-43.66 106.26Q691.69-84 629.08-84H458.23Zm-17-771q-41.77 0-75.15 14.19-33.39 14.19-61.16 39.96-26.31 24.31-39.57 53.97-13.27 29.65-15.58 64.73-2.23 16.77-13.12 29.5-10.88 12.73-26.26 15.34-15.39 2.62-26.24-8.27-10.84-10.88-10.23-24.27.47-59.38 15.77-101.19 15.31-41.8 59.08-83.57 37.69-36.7 86.62-57.04Q384.31-932 441.23-932t105.35 20.35q48.42 20.34 86.11 57.04 36.85 34.84 58.69 83.07 21.85 48.23 20.93 100.08.61 15.77-11.43 25.77-12.03 10-27.8 8.38-15.77-1.61-26.77-14.84t-12.62-30q-2.46-35.85-15.77-65.23-13.3-29.39-39-53.47-27.77-25.77-62.34-39.96Q482-855 441.23-855Z"/></svg>