<svg xmlns="http://www.w3.org/2000/svg" height="24" viewBox="0 -960 960 960" width="24"><path d="M416.5-56q-32 0-60.5-13.5T308.5-108l-197-254Q98-380.5 99-402.75T116-441q24-23 56.25-26.75T232.5-455l46 30v-186q0-24.5 17.25-42T338-670.5q24.5 0 42.5 17.5t18 42v130.5h40V-682q0-24.5 17.25-42T498-741.5q24.5 0 42.5 17.5t18 42v201.5h121q58 0 98.75 41.5T819-339.5V-237q0 76-52.25 128.5T639.5-56h-223Zm23-773.5q-41.5 0-78 14.25t-64 39.75q-20.5 19.5-35 44t-20.5 52q-6 25-21 45.25T181.5-610q-24.5 4-44.25-11.25T119.5-661q2.5-59 25.75-109.25t66.25-90.25q44-41 102.25-65t125.75-24q66 0 124 24t102 65q42 40 65.25 88.5t26.75 106.5q2 24.5-17 41.25T697-610.5q-24.5-3-40.5-22.75t-21-44.75q-5-29.5-18.25-53.25T581.5-775.5q-27.5-25.5-64-39.75t-78-14.25Z"/></svg>