<svg xmlns="http://www.w3.org/2000/svg" height="24" viewBox="0 -960 960 960" width="24"><path d="M416-34q-35 0-65-14t-51-41L94-353q-15-21-14-46t19-44q26-24 61.5-28.5T226-458l41 27v-178q0-27 19.5-47t47.5-20q29 0 48.5 20t19.5 47v130h40v-204q0-27 19.5-46.5T509-749q28 0 48 19.5t20 46.5v204h113q63 0 107 44.5T841-328v101q0 81-56.5 137T649-34H416Zm27-807q-43 0-80.5 15T296-786q-20 18-35 41.5T238-695q-7 29-23 51.5T171-617q-28 4-50-13t-20-44q4-61 29-113.5t70-93.5q47-44 109-69t134-25q71 0 133 25t108 69q45 41 69.5 91.5T783-679q1 27-19.5 45.5T715-618q-28-3-46-25t-23-50q-6-28-20.5-51T590-786q-29-25-66.5-40T443-841Z"/></svg>