<svg xmlns="http://www.w3.org/2000/svg" height="20" viewBox="0 -960 960 960" width="20"><path d="M458.23-116q-17.92 0-34.81-7.54-16.88-7.54-28.96-21.62L191.23-381.23q-12.69-14.31-6.07-25.27 6.61-10.96 16.92-21.27 11.69-11.69 26.34-13.11 14.66-1.43 30.58 3.65l88.15 38.31v-257.23q0-10.39 7.62-18.2 7.62-7.8 18.38-7.8 10.39 0 18.2 7.8 7.8 7.81 7.8 18.2v175.77h63.39v-222.23q0-10.39 7.61-18.2 7.62-7.8 18.39-7.8 10.38 0 18.19 7.8 7.81 7.81 7.81 18.2v222.23h149.77q34.61 0 59.15 24.53Q748-431.31 748-396.69v149.77q0 54.61-38.16 92.76Q671.69-116 617.08-116H458.23Zm-27-724q-38.77 0-71.15 14.19-32.39 14.19-58.16 39.96-27.31 27.31-40.57 60.47-13.27 33.15-12.58 71.23-.23 10.77-7.62 19.5-7.38 8.73-17.76 10.34-10.39 1.62-18.24-5.27-7.84-6.88-8.23-16.27-2.53-51.38 14.77-96.19 17.31-44.8 53.08-80.57 32.69-32.7 75.12-51.04Q382.31-892 431.23-892t91.35 18.35q42.42 18.34 75.11 51.04 33.85 33.84 52.69 80.07 18.85 46.23 15.93 95.08-.39 10.77-8.43 17.27-8.03 6.5-18.8 4.88-10.77-1.61-17.77-10.34t-7.62-19.5q-.46-38.85-13.27-71.23-12.8-32.39-39.5-59.47-25.77-25.77-58.34-39.96Q470-840 431.23-840Z"/></svg>