<svg xmlns="http://www.w3.org/2000/svg" height="48" viewBox="0 -960 960 960" width="48"><path d="M414.26-78.02q-27.19 0-50.53-10.61t-39.32-31.57L122.96-376.13q-7.96-9.7-7.21-21.76.75-12.07 9.95-21.5 16.69-16.46 40-18.95 23.3-2.49 44 9.23l91.26 56.39v-263.24q0-12.93 9.07-22.88 9.08-9.94 23.25-9.94 13.18 0 23.12 9.94 9.95 9.95 9.95 22.88v157.46h76.41v-229.2q0-13.17 9.2-23.12 9.19-9.94 23.37-9.94 13.17 0 23.12 9.94 9.94 9.95 9.94 23.12v229.2h176.07q47.17 0 80.99 33.68 33.81 33.69 33.81 80.86v130.89q0 64.92-46.06 109.98-46.07 45.07-110.48 45.07H414.26Zm5.59-779.52q-45 0-84.87 17.26-39.87 17.26-69.37 46.52-28.54 28.06-46.93 69.64-18.38 41.58-17.33 81.66.04 14.68-8.42 25.61-8.45 10.94-20.89 12.94-14.17 2.48-24.99-6.35-10.81-8.83-10.83-23-2.79-58.46 18.46-112.11t63.45-95.13q38.2-38.46 90.25-60.57 52.05-22.1 111.47-22.1 58.91 0 110.22 22.1 51.3 22.11 90 60.57 41.97 42 62.45 94 20.48 52 19.94 110 .24 14.17-10.21 23.12-10.45 8.95-24.62 6.95-13.17-1.74-21.87-11.81-8.69-10.06-9.41-24.48-.22-43.82-15.48-82.28t-46.3-69.76q-30.24-29.26-70.11-46.02-39.87-16.76-84.61-16.76Z"/></svg>