<svg xmlns="http://www.w3.org/2000/svg" height="48" viewBox="0 -960 960 960" width="48"><path d="M414.88-102.46q-24.07 0-44.65-9.29t-34.73-27.94l-193.77-247q-5.65-6.58-5.29-14.73.37-8.16 6.64-14.43 13-13 32.44-15.25 19.44-2.25 36.44 7.79l103.16 63.16v-276.7q0-8.8 5.98-15.53 5.98-6.73 15.59-6.73 8.81 0 15.54 6.73 6.73 6.73 6.73 15.53v157.58h90v-226.96q0-8.81 5.98-15.54 5.98-6.73 15.6-6.73 8.81 0 15.54 6.73 6.73 6.73 6.73 15.54v226.96h182.61q41.27 0 71.08 29.56 29.81 29.56 29.81 70.82v136.12q0 58.77-41.68 99.54-41.67 40.77-99.75 40.77h-220Zm2-751.42q-45.19 0-84.65 17.4-39.46 17.4-68.58 46.52-31.03 31.04-49.34 75.92-18.31 44.89-15.16 88.23 1 10.31-4.67 17.6-5.67 7.29-13.98 8.9-9.42 1.23-16.52-4.59-7.09-5.83-7.4-15.25-4.66-56.16 15.15-108.77 19.81-52.62 60.23-93.04 34.89-35.77 82.5-56.27 47.62-20.5 102.42-20.5 54.12 0 101.08 20.5t82.92 56.27q39.97 41.23 58.43 91.88 18.46 50.66 16.57 106.73-.38 9.81-7.23 15.45-6.84 5.63-16.27 4.4-9.19-.92-14.76-7.56-5.58-6.63-5.2-16.25.89-47.8-14.04-89.02-14.92-41.21-48.26-75.25-30.2-29.11-69.47-46.21-39.27-17.09-83.77-17.09Z"/></svg>