<svg xmlns="http://www.w3.org/2000/svg" height="24" viewBox="0 -960 960 960" width="24"><path d="M416-34q-35.05 0-65.03-14Q321-62 300-89L94-353q-15-20.4-14-45.7 1-25.3 18.75-44.05 26.25-24.29 61.75-28.77T226-458l41 27v-178q0-27.38 19.17-47.19T333.68-676q29.32 0 48.82 19.81T402-609v297q0 29.5-24 45.25T327-263l14 9 63.02 79.52q1.81 3.7 4.9 5.09Q412-168 415.73-168H649q22.99 0 39.99-17.31Q706-202.63 706-227v-168q0-6.67-4.9-11.84Q696.2-412 690-412h-7q-27.45 0-46.72-19.5Q617-451 617-479.82q0-28.81 19.5-47.5Q656-546 685-546h5q62.92 0 106.96 44.46Q841-457.08 841-395v168q0 80.82-56.58 136.91T649-34H416Zm46-397.5Q442-451 442-480v-203q0-26.95 19.17-46.47Q480.33-749 508.67-749 537-749 557-729.47q20 19.52 20 46.47v205q0 27.45-19.17 46.73Q538.67-412 510.33-412 482-412 462-431.5ZM442.91-841q-42.91 0-80.41 15T296-786q-20 18-35 41.5T238-695q-7 29-23 51.5T171-617q-28 4-50-13t-20-44q4-61 29-113.5t70-93.5q46.87-43.39 108.89-68.7Q370.9-975 442.26-975q71.74 0 133.93 25.15Q638.39-924.71 684-881q45 41 69.5 91.5T783-679q1 27-19.31 45.5-20.32 18.5-48.5 15.5Q687-621 669-643q-18-22-23-50-6-28-20.5-51.14T590-786q-28.62-25-66.4-40t-80.69-15ZM524-324Z"/></svg>