<svg xmlns="http://www.w3.org/2000/svg" height="48" viewBox="0 -960 960 960" width="48"><path d="M413.76-61.8q-28.72 0-53.96-11.5-25.23-11.5-41.47-33.98L110.8-369.8q-9.47-11.72-8.97-25.82t12.21-25.29q17.72-18.24 43.56-20.86 25.83-2.62 48.31 9.62l86.94 53.85v-255.07q0-14.72 10.6-26.43 10.59-11.72 27.55-11.72 15.2 0 26.67 11.72 11.48 11.71 11.48 26.43v156.13h76.42v-229.89q0-14.96 11.21-26.55 11.22-11.6 27.18-11.6 15.95 0 27.55 11.6 11.6 11.59 11.6 26.55v229.89H691.8q50.72 0 87.32 35.84 36.6 35.83 36.6 86.31v128.61q0 68.72-49.1 116.7-49.1 47.98-117.58 47.98H413.76Zm9.15-804.09q-45.52 0-86.52 17.38-41 17.38-70.76 46.9-28.28 27.04-46.54 67.85-18.26 40.8-18.98 79.37-1.72 16.96-11.08 30.29-9.36 13.34-24.07 14.1-16.96 3.24-29.3-7.24-12.33-10.48-12.09-26.43-1.77-60.76 20.09-115.15 21.86-54.38 65.86-96.9Q250-896.2 305.1-919.2t117.81-23q62.72 0 117.44 23t94.95 63.48q43.24 42.76 64.74 96.02 21.5 53.27 22.22 112.79-.24 15.71-12.22 26.43-11.97 10.72-27.93 8.72-15.96-2.24-26.06-14.34-10.09-12.1-11.57-29.05-.48-42.81-16.24-79.99-15.76-37.19-46.81-67.47-31-29.52-71.76-46.4-40.76-16.88-86.76-16.88Z"/></svg>