<svg xmlns="http://www.w3.org/2000/svg" height="40" viewBox="0 -960 960 960" width="40"><path d="M415.33-119.85q-21.54 0-40.89-8.57-19.36-8.58-32.36-25.91l-186.9-239.11q-4.08-5.71-3.85-11.97.23-6.26 4.87-10.9 11.72-11.72 28.74-13.41 17.01-1.69 32.03 7.16l106.31 65v-275.57q0-6.49 4.87-11.7 4.86-5.22 12.06-5.22 6.48 0 11.7 5.22 5.22 5.21 5.22 11.7v284.77q0 16.82-14.73 25.23t-29.61-.31l-115.82-69.97 171.98 218.44q7.87 11.31 20.46 16.3 12.59 4.98 25.92 4.98h211.95q41.17 0 69.94-28.32Q726-210.33 726-251.59v-152.67q0-24.66-17.26-41.71-17.27-17.06-42.18-17.06h-64.82q-7.19 0-12.05-4.9-4.87-4.91-4.87-12.17t4.87-12.02q4.86-4.75 12.05-4.75h64.82q38.36 0 65.82 27.27 27.47 27.27 27.47 65.34v152.67q0 55.17-38.94 93.46-38.95 38.28-93.63 38.28H415.33Zm43.48-348.04q-4.76-4.87-4.76-12.06v-220.41q0-6.49 4.87-11.7 4.86-5.22 12.05-5.22 6.49 0 11.71 5.22 5.22 5.21 5.22 11.7v220.41q0 7.19-4.91 12.06-4.91 4.86-12.17 4.86t-12.01-4.86Zm-41.49-378.42q-44.36 0-83.1 16.96-38.75 16.96-67.55 45.79-31.59 31.59-49.43 76.74-17.83 45.15-13.83 89.59.85 7.41-3.6 13.32t-11.16 7.14q-6.2.72-11.62-3.81-5.41-4.52-6.34-11.16-4.9-54.05 14.08-105.52 18.97-51.46 57.64-90.12 33.41-34.24 78.24-53.51 44.84-19.26 96.68-19.26 51.85 0 96.44 19.26 44.59 19.27 78.33 53.51 38.85 39.35 56.36 88.46 17.51 49.1 13.87 104.1-.77 7.49-5.64 11.63-4.88 4.14-11.74 3.42-7.26-1.23-11.53-6.21-4.27-4.97-4.16-12.25 1.54-48.31-12.78-89.69-14.32-41.37-48.56-75.8-29.51-29-67.88-45.79-38.37-16.8-82.72-16.8Zm44.5 528.77Z"/></svg>