<svg xmlns="http://www.w3.org/2000/svg" height="40" viewBox="0 -960 960 960" width="40"><path d="M414.5-58q-31.33 0-58.17-12.33Q329.5-82.67 311.5-107l-202-258.33q-11.83-15.17-11-33.42.83-18.25 14.83-32.92 21.67-20.66 51.25-24.08 29.59-3.42 55.25 11.42l64 41V-618q0-19.83 14.09-34.83 14.08-15 35.41-15 20.5 0 35.67 15 15.17 15 15.17 34.83v138.83h56.66V-690q0-20.5 14.42-35.5t35.75-15q20.5 0 35.67 15 15.16 15 15.16 35.5v210.83h143q54.34 0 93.25 39.34Q817-400.5 817-346.17v114.84q0 72.66-50.92 123Q715.17-58 643.17-58H414.5Zm19-788.17q-43.83 0-82.83 15.75t-67.84 43.25Q259-765 242.17-732.67 225.33-700.33 222-668.5q-4 21.67-16.67 38.75-12.66 17.08-32.16 19.75-21.17 4-37.75-9.25-16.59-13.25-14.92-34.42.5-60.66 22.42-111.91 21.91-51.25 66.91-93.25 42.67-41.34 100.09-64.84 57.41-23.5 123.58-23.5 65.33 0 122.17 23.5 56.83 23.5 99.83 64.84 43 41.33 65.42 92.16 22.41 50.84 25.25 108.84 1.33 21.16-14.5 35.25-15.84 14.08-37 11.75-20.5-2.67-34.17-18.75-13.67-16.09-17.33-38.09-3.34-35.5-17.42-65.25-14.08-29.75-40.25-54.91-29.83-27.5-68.83-42.92-39-15.42-83.17-15.42Z"/></svg>