<svg xmlns="http://www.w3.org/2000/svg" height="20" viewBox="0 -960 960 960" width="20"><path d="M457.5-153q-13 0-26-6T410-175.5L218.5-398q-9-9.5-3-13.5T227-421q7.5-7.5 15.75-8.25T261.5-428l106 50.5v-271q0-2.5 2.5-5.75t6-3.25q2.5 0 5.75 3.25t3.25 5.75v167h88V-692q0-2.5 2.5-5.75t6-3.25q2.5 0 5.75 3.25t3.25 5.75v210.5h159q25 0 43.25 18.5T711-419.5v159q0 45-31.25 76.25T604-153H457.5Zm-27-684.5q-40 0-72.75 14.5t-59.25 41Q267-750.5 253-711.75T244-630q1 4-2.75 7t-6.25 4q-2.5 1-4-2.25t-2-4.75q-5.5-52.5 6.5-91.5T285-794q28.5-28.5 65.25-44.75T430.5-855q42.5 0 79.25 16.25T575.5-794q31 32 47.75 76.5T634.5-627q-1 3.5-3.25 5.75T625.5-620q-3.5-.5-6-3.75t-2.5-6.75q2-45.5-10.25-82.25T563.5-782q-27-26.5-60.25-41t-72.75-14.5Z"/></svg>