<svg xmlns="http://www.w3.org/2000/svg" height="20" viewBox="0 -960 960 960" width="20"><path d="M457-116q-17 0-34-8t-28-22L191-384q-12-14-6-23t15-18q12-12 25.5-13.5T254-435l94 44v-246q0-7 6.5-14.5T370-659q8 0 15.5 7.5T393-637v158h88v-206q0-7 6.5-14.5T503-707q8 0 15.5 7.5T526-685v206h140q33 0 57 23.5t24 56.5v154q0 54-37.5 91.5T618-116H457Zm-17-739q-43 0-77 14.5T300-799q-30 28-44.5 63.5T243-660q-1 10-8.5 17.5T219-633q-8 2-13-5.5t-5-13.5q-2-60 9-97.5t56-80.5q34-33 78-51.5t96-18.5q52 0 95.5 18.5T613-830q35 33 55 80t16 97q0 9-6.5 15t-15.5 5q-9-1-16-9t-8-18q0-42-13-76t-43-63q-29-27-64.5-41.5T440-855Z"/></svg>