<svg xmlns="http://www.w3.org/2000/svg" height="24" viewBox="0 -960 960 960" width="24"><path d="M416.46-120q-21.84 0-41.61-8.58-19.77-8.57-32.93-26.73L156.46-392.46q-4.38-6.62-4.15-14.04.23-7.42 5.84-13.04 12.39-12.38 30.2-14.23 17.8-1.85 33.65 7.31l100.31 61.61v-267.46q0-7.77 5.75-13.88 5.75-6.12 14.25-6.12 7.77 0 13.88 6.12 6.12 6.11 6.12 13.88v282q0 18.77-16.27 28.16-16.27 9.38-32.42-.31l-99.31-59.92 158.84 202.23q7.31 10.3 19.08 15.23Q404-160 416.46-160h209.69q39.16 0 66.5-26.98Q720-213.96 720-253.85v-151.53q0-23.54-15.92-39.47-15.93-15.92-39.46-15.92h-60.77q-8.5 0-14.25-5.76-5.75-5.75-5.75-14.27 0-8.51 5.75-14.24t14.25-5.73h60.77q39.23 0 67.3 28.08Q760-444.62 760-405.38v151.53q0 56.05-39.32 94.95-39.31 38.9-94.53 38.9H416.46Zm42.35-346.52q-5.73-5.75-5.73-14.25v-218.46q0-7.77 5.75-13.89 5.75-6.11 14.25-6.11 7.77 0 13.88 6.11 6.12 6.12 6.12 13.89v218.46q0 8.5-5.76 14.25t-14.27 5.75q-8.51 0-14.24-5.75ZM418.37-840q-43.45 0-80.72 16.38-37.27 16.39-65.8 44.93-30.62 30.61-47.66 72.92-17.04 42.31-13.65 85.46.54 8.54-4.73 15.5-5.27 6.96-13.04 8.19-7.77 1.24-14.46-4.03-6.69-5.27-7.46-13.04-4.08-52.77 15.53-104.39 19.62-51.61 57.16-89.15 33.4-33.72 78.24-53.25Q366.62-880 418.46-880q51.85 0 96.68 19.52 44.84 19.53 78.24 53.25 38.7 38.69 56.39 87.15 17.69 48.46 13.85 103.16-.77 8.54-6.35 13.54t-14.12 3.76q-8.53-1.23-13.41-7.32-4.87-6.09-5.36-14.37 1.08-45.69-13.03-84.96-14.12-39.27-46.5-72.42-28.54-28.54-65.78-44.93Q461.82-840 418.37-840Zm48.78 519.23Z"/></svg>