<svg xmlns="http://www.w3.org/2000/svg" height="48" viewBox="0 -960 960 960" width="48"><path d="M415.48-120.92q-22.49 0-41.08-8.33T343-154.88l-187.04-239.5q-4.31-4.77-4.37-10.22-.07-5.45 4.56-10.09 10.5-10.5 27.64-12.75 17.13-2.25 31.63 6.82l109.31 66.81v-279.38q0-6.12 4.21-10.83 4.22-4.71 10.44-4.71 6.12 0 10.83 4.71t4.71 10.83v285.34q0 16.37-13.9 23.67-13.9 7.3-27.79-.44l-125.27-75.46 178.95 226.76Q375-161.25 388-156.18q13 5.06 27.27 5.06h212.71q41.46 0 70.95-28.99 29.49-28.99 29.49-70.93v-152.77q0-25.84-18.07-43.27-18.08-17.42-43.3-17.42h-67.28q-6.81 0-10.73-4.62-3.92-4.62-3.92-10.69 0-6.07 3.92-10.48 3.92-4.4 10.73-4.4h67.58q37.18 0 64.22 26.9 27.05 26.89 27.05 63.87v152.88q0 54.49-38.78 92.3-38.77 37.82-92.4 37.82H415.48Zm43.21-347.95q-3.77-4.36-3.77-11.17v-220.42q0-6.12 4.22-10.83 4.21-4.71 10.44-4.71 6.11 0 10.82 4.71 4.72 4.71 4.72 10.83v220.42q0 6.81-4.43 11.17-4.43 4.37-11.33 4.37t-10.67-4.37Zm-41.88-380.4q-44.71 0-84.09 17.41-39.39 17.42-67.91 45.94-32.58 32.57-50.69 79.09-18.12 46.52-13.81 91.21 1 7.65-2.85 12.71-3.84 5.06-10.01 6.29-5.4.47-10.29-3.44-4.89-3.9-5.01-10.25-5.8-54.81 12.56-105.79 18.37-50.98 58.21-91.07 32.79-34.17 77.62-53.23 44.82-19.06 96.66-19.06 51.54 0 95.77 19.06t78.3 53.48q38.42 40.46 55.35 89.77 16.92 49.3 14.65 103.46-.77 7.23-5.24 10.69-4.46 3.46-10.76 3.44-6.89-.79-10.38-5.25-3.49-4.47-3.04-11.31 1.22-50.11-13.06-92.29-14.28-42.18-49.06-77.74-30.51-28.78-69.37-45.95-38.85-17.17-83.55-17.17Zm41.88 533Z"/></svg>