<svg xmlns="http://www.w3.org/2000/svg" height="24" viewBox="0 -960 960 960" width="24"><path d="M416.71-137q-20.34 0-38.27-8-17.94-8-29.44-24.5L169.5-400q-3-4.5-3.04-8.95-.04-4.44 3.54-8.05 10.5-10.5 25.75-12.25T224.5-423l107 66.5v-272q0-4.5 3.59-8.75 3.6-4.25 8.91-4.25 4.5 0 8.75 4.25t4.25 8.75V-362q0 17.25-14.42 25.37-14.42 8.13-28.58-.37l-121.5-73L369-185q8 11.5 20.75 17t26.75 5.5h203.71q40.29 0 68.79-28.18 28.5-28.17 28.5-69.82v-147.36q0-25.64-17.39-43.14-17.4-17.5-42.78-17.5H595q-5.45 0-8.97-3.89-3.53-3.9-3.53-8.9 0-4.99 3.53-8.85Q589.55-494 595-494h62.5q34.96 0 60.23 25.58Q743-442.83 743-408v147.5q0 51.72-36.26 87.61Q670.47-137 619.81-137h-203.1Zm43.79-335.27q-3.5-3.78-3.5-9.23V-694q0-4.5 3.59-8.75 3.6-4.25 8.91-4.25 4.5 0 8.75 4.25t4.25 8.75v212.5q0 5.45-3.79 9.23-3.78 3.77-9.25 3.77-5.46 0-8.96-3.77ZM418.08-837.5q-43.58 0-80.78 16.48T271.5-776Q239-743.5 222-699.25T210-610q1 6.03-2.75 10.52-3.75 4.48-8.2 5.48-4.45 1-8.5-2.75T186-605q-5.5-53.5 11.5-102t55.5-87q31.51-31.98 73.81-50.49T418.32-863q48.92 0 91.11 18.49 42.19 18.5 74.07 50.51 37 38 53.75 85.5T649.5-608q-1 5.5-4.25 8.75t-8.75 2.5q-5.5-.75-8.36-4.62-2.85-3.87-3.14-9.13 1.94-48.5-11.78-89.25Q599.5-740.5 565.5-776q-29.13-28.54-66.49-45.02-37.35-16.48-80.93-16.48Zm36.92 515Z"/></svg>