<svg xmlns="http://www.w3.org/2000/svg" height="20" viewBox="0 -960 960 960" width="20"><path d="M457.29-136q-14.67 0-29.44-6.58-14.77-6.57-24.93-18.73L205.46-390.46q-10.38-11.62-4.15-18.54t13.84-14.54q9.39-9.38 20.2-10.23 10.8-.85 23.65 2.31l99.31 45.61v-266.46q0-6.07 4.54-11.03 4.54-4.97 11.25-4.97 5.98 0 11.09 4.97 5.12 4.96 5.12 11.03v260q0 14.77-11.27 23.16-11.27 8.38-25.42 3.69l-134.31-64.92 207.84 248.23q6.31 6.3 14.16 10.23 7.84 3.92 16.15 3.92h152.69q35.86 0 60.85-24.98 25-24.98 25-60.87v-159.53q0-16.74-11.32-28.07-11.33-11.32-28.06-11.32h-36.77q-6.8 0-11.4-4.55-4.6-4.54-4.6-11.27 0-6.72 4.6-11.45 4.6-4.73 11.4-4.73h36.77q29.23 0 50.3 21.08Q728-442.62 728-413.38v159.53q0 49.35-34.32 83.6Q659.37-136 610.15-136H457.29Zm16.52-321.37q-4.73-4.6-4.73-11.4v-228.46q0-6.07 4.54-11.04 4.54-4.96 11.25-4.96 5.98 0 11.09 4.96 5.12 4.97 5.12 11.04v228.46q0 6.8-4.55 11.4-4.55 4.6-11.27 4.6t-11.45-4.6ZM430.37-840q-39.45 0-72.22 14.38-32.77 14.39-59.3 40.93-29.62 29.61-43.66 66.42-14.04 36.81-10.65 77.96.54 6.61-4.73 12.04-5.27 5.42-11.04 6.65-5.77 1.24-9.96-3.53-4.19-4.77-4.96-9.54-4.08-51.77 10.53-93.89 14.62-42.11 51.16-78.65 30.4-30.72 69.86-47.75Q384.85-872 430.58-872q45.73 0 85.06 17.02 39.34 17.03 69.74 47.75 32.7 32.69 50.39 78.15 17.69 45.46 12.85 93.16-.77 6.59-5.16 10.56-4.39 3.98-11.31 2.74-6.53-1.23-10.91-6.82-4.37-5.59-4.86-12.32 1.08-42.24-11.48-77.59t-42.05-65.34q-26.54-26.54-60-40.93Q469.4-840 430.37-840Zm27.78 515.23Z"/></svg>