<svg xmlns="http://www.w3.org/2000/svg" version="1.1" width="3300" height="2000"><g id="Notes"><style>
    text {
      font-family: monospace;
      text-anchor: middle;
    }
    text.emphasis {
      font-weight:bold;
    }
    text.lanchor {
      text-anchor: start;
    }
  </style><rect height="2200" id="artboard" fill="white" width="3300" x="0" y="0"/><line id="" style="fill:none;stroke:black;stroke-width:0.5;" x1="263" x2="3036" y1="292" y2="292"/><text class="lanchor emphasis" transform="matrix(1 0 0 1 263 322)">Weight/Scale Variations</text><text transform="matrix(1 0 0 1 559.711 322)">Ultralight</text><text transform="matrix(1 0 0 1 856.422 322)">Thin</text><text transform="matrix(1 0 0 1 1153.13 322)">Light</text><text transform="matrix(1 0 0 1 1449.84 322)">Regular</text><text transform="matrix(1 0 0 1 1746.56 322)">Medium</text><text transform="matrix(1 0 0 1 2043.27 322)">Semibold</text><text transform="matrix(1 0 0 1 2339.98 322)">Bold</text><text transform="matrix(1 0 0 1 2636.69 322)">Heavy</text><text transform="matrix(1 0 0 1 2933.4 322)">Black</text><text id="template-version" style="text-anchor: end;" transform="matrix(1 0 0 1 3036 1933)">Template v.1.0</text><text class="lanchor" transform="matrix(1 0 0 1 263 726)">Small</text><text class="lanchor" transform="matrix(1 0 0 1 263 1156)">Medium</text><text class="lanchor" transform="matrix(1 0 0 1 263 1586)">Large</text></g><g id="Guides"><g id="H-reference" style="fill:#27AAE1;stroke:none;" transform="matrix(1 0 0 1 339 696)"><path d="M 54.9316 0 L 57.666 0 L 30.5664 -70.459 L 28.0762 -70.459 L 0.976562 0 L 3.66211 0 L 12.9395 -24.4629 L 45.7031 -24.4629 Z M 29.1992 -67.0898 L 29.4434 -67.0898 L 44.8242 -26.709 L 13.8184 -26.709 Z"/></g><line id="Baseline-S" style="fill:none;stroke:#27AAE1;opacity:1;stroke-width:0.577;" x1="263" x2="3036" y1="696" y2="696"/><line id="Capline-S" style="fill:none;stroke:#27AAE1;opacity:1;stroke-width:0.577;" x1="263" x2="3036" y1="625.541" y2="625.541"/><g id="H-reference" style="fill:#27AAE1;stroke:none;" transform="matrix(1 0 0 1 339 1126)"><path d="M 54.9316 0 L 57.666 0 L 30.5664 -70.459 L 28.0762 -70.459 L 0.976562 0 L 3.66211 0 L 12.9395 -24.4629 L 45.7031 -24.4629 Z M 29.1992 -67.0898 L 29.4434 -67.0898 L 44.8242 -26.709 L 13.8184 -26.709 Z"/></g><line id="Baseline-M" style="fill:none;stroke:#27AAE1;opacity:1;stroke-width:0.577;" x1="263" x2="3036" y1="1126" y2="1126"/><line id="Capline-M" style="fill:none;stroke:#27AAE1;opacity:1;stroke-width:0.577;" x1="263" x2="3036" y1="1055.54" y2="1055.54"/><g id="H-reference" style="fill:#27AAE1;stroke:none;" transform="matrix(1 0 0 1 339 1556)"><path d="M 54.9316 0 L 57.666 0 L 30.5664 -70.459 L 28.0762 -70.459 L 0.976562 0 L 3.66211 0 L 12.9395 -24.4629 L 45.7031 -24.4629 Z M 29.1992 -67.0898 L 29.4434 -67.0898 L 44.8242 -26.709 L 13.8184 -26.709 Z"/></g><line id="Baseline-L" style="fill:none;stroke:#27AAE1;opacity:1;stroke-width:0.577;" x1="263" x2="3036" y1="1556" y2="1556"/><line id="Capline-L" style="fill:none;stroke:#27AAE1;opacity:1;stroke-width:0.577;" x1="263" x2="3036" y1="1485.54" y2="1485.54"/><rect height="119.336" id="left-margin" style="fill:darkred;stroke:none;opacity:0.4;" width="12.4512" x="1394.06" y="1030.79"/><rect height="119.336" id="right-margin" style="fill:darkgreen;stroke:none;opacity:0.4;" width="12.4512" x="1502.5112" y="1030.79"/><rect x="1406.5112" y="1045" width="96" height="96" fill="none" stroke="blue" stroke-dasharray="5"/><rect x="1394.06" y="1030.79" width="120.9024" height="119.336" fill="none" stroke="blue"/></g><g id="Symbols"><g id="Bold-L" transform="matrix(1 0 0 1 2266 1556)"><path d="M24.026 20.401 Q17.729 20.401 13.298 16.128 Q8.869 11.855 8.869 5.566 V-75.704 Q8.869 -80.586 11.631 -84.514 Q14.392 -88.442 19.027 -90.055 H22.253 L61.114 -51.194 H24.026 V5.244 Q24.026 5.244 24.026 5.244 Q24.026 5.244 24.026 5.244 H72.24 Q75.405 5.244 77.692 7.45 Q79.98 9.654 79.98 12.852 Q79.98 16.048 77.692 18.224 Q75.405 20.401 72.24 20.401 H24.026 Z M146.093 -75.704 V-58.772 Q146.093 -55.588 143.829 -53.392 Q141.563 -51.194 138.433 -51.194 H130.774 H74.981 L35.153 -91.022 H47.73 L57.083 -71.834 Q58.329 -69.35 60.843 -67.931 Q63.355 -66.512 66.054 -66.512 Q71.247 -66.512 74.001 -71.098 Q76.755 -75.684 74.498 -80.541 L69.338 -91.022 H94.654 L104.006 -71.834 Q105.253 -69.35 107.686 -67.931 Q110.118 -66.512 112.925 -66.512 Q118.277 -66.512 121.058 -71.018 Q123.84 -75.523 121.421 -80.38 L116.261 -91.022 H130.774 Q137.137 -91.022 141.615 -86.545 Q146.093 -82.067 146.093 -75.704 Z M132.87 6.695  109.811 -16.364  125.936 -32.489 Q127.731 -34.367 129.924 -35.201 Q132.117 -36.036 134.483 -36.036 Q136.74 -36.036 139.006 -35.069 Q141.271 -34.101 143.029 -32.327 L148.995 -26.361 Q150.874 -24.563 151.707 -22.365 Q152.543 -20.168 152.543 -17.97 Q152.543 -15.557 151.575 -13.3 Q150.608 -11.042 148.834 -9.269 L132.87 6.695 Z M101.749 14.758 H105.941 L108.36 12.339 L104.168 8.146 L101.749 10.565 V14.758 Z M140.592 42.412 Q138.352 42.493 136.534 40.674 L117.713 21.853 L114.81 24.916 Q113.831 25.884 112.573 26.368 Q111.314 26.851 110.134 26.851 H97.234 Q94.049 26.851 91.853 24.653 Q89.655 22.457 89.655 19.273 V6.373 Q89.655 5.192 90.139 3.933 Q90.623 2.675 91.59 1.696 L94.654 -1.367 L3.87 -92.151 Q2.258 -93.796 2.177 -96.118 Q2.096 -98.44 3.896 -100.214 Q5.695 -101.987 8.008 -101.987 Q10.32 -101.987 12.047 -100.261 L144.641 32.334 Q146.254 34.18 146.334 36.483 Q146.415 38.784 144.624 40.558 Q142.834 42.331 140.592 42.412 Z"/></g><g id="Semibold-L" transform="matrix(1 0 0 1 1970.27 1556)"><path d="M23.396 18.648 Q18.154 18.648 14.387 14.972 Q10.622 11.294 10.622 6.056 V-76.334 Q10.622 -80.83 13.418 -84.285 Q16.214 -87.741 20.569 -88.652 H23.794 L60.624 -51.824 H23.396 V5.874 Q23.396 5.874 23.396 5.874 Q23.396 5.874 23.396 5.874 H73.782 Q76.465 5.874 78.363 7.729 Q80.261 9.585 80.261 12.29 Q80.261 14.996 78.363 16.822 Q76.465 18.648 73.782 18.648 H23.396 Z M144.27 -76.334 V-58.211 Q144.27 -55.518 142.385 -53.671 Q140.5 -51.824 137.837 -51.824 H131.404 H74.491 L37.115 -89.2 H49.692 L59.045 -70.012 Q60.291 -67.528 62.718 -66.109 Q65.145 -64.69 67.833 -64.69 Q72.999 -64.69 75.754 -69.207 Q78.508 -73.725 76.25 -78.508 L71.019 -89.2 H94.444 L103.797 -70.012 Q105.041 -67.528 107.423 -66.109 Q109.805 -64.69 112.553 -64.69 Q117.856 -64.69 120.602 -69.162 Q123.35 -73.633 121 -78.418 L115.771 -89.2 H131.404 Q136.684 -89.2 140.476 -85.406 Q144.27 -81.614 144.27 -76.334 Z M131.467 5.153  109.881 -16.433  125.936 -32.489 Q127.581 -34.182 129.592 -34.933 Q131.604 -35.686 133.712 -35.686 Q135.829 -35.686 137.88 -34.824 Q139.931 -33.961 141.557 -32.327 L147.523 -26.361 Q149.216 -24.713 149.967 -22.701 Q150.72 -20.687 150.72 -18.674 Q150.72 -16.54 149.858 -14.456 Q148.995 -12.374 147.362 -10.741 L131.467 5.153 Z M100.978 14.056 H106.011 L108.641 11.428 L103.606 6.393 L100.978 9.023 V14.056 Z M138.602 39.258 Q136.459 39.338 134.8 37.679 L116.871 19.75 L113.407 23.375 Q112.504 24.271 111.427 24.686 Q110.35 25.098 109.292 25.098 H96.323 Q93.628 25.098 91.782 23.252 Q89.936 21.406 89.936 18.711 V5.742 Q89.936 4.684 90.348 3.607 Q90.763 2.53 91.659 1.627 L95.284 -1.929 L5.832 -91.38 Q4.291 -92.945 4.246 -95.131 Q4.199 -97.318 5.852 -98.951 Q7.503 -100.585 9.683 -100.585 Q11.862 -100.585 13.469 -98.979 L142.398 29.95 Q143.94 31.626 143.987 33.767 Q144.032 35.91 142.389 37.544 Q140.745 39.177 138.602 39.258 Z"/></g><g id="Medium-L" transform="matrix(1 0 0 1 1674.31 1556)"><path d="M22.922 17.334 Q18.471 17.334 15.204 14.104 Q11.936 10.873 11.936 6.426 V-76.808 Q11.936 -81.012 14.759 -84.115 Q17.581 -87.215 21.727 -87.601 H24.952 L60.254 -52.298 H22.922 V6.348 Q22.922 6.348 22.922 6.348 Q22.922 6.348 22.922 6.348 H74.939 Q77.26 6.348 78.866 7.94 Q80.47 9.531 80.47 11.87 Q80.47 14.208 78.866 15.77 Q77.26 17.334 74.939 17.334 H22.922 Z M142.903 -76.808 V-57.79 Q142.903 -55.465 141.303 -53.882 Q139.704 -52.298 137.39 -52.298 H131.878 H74.122 L38.587 -87.833 H51.165 L60.517 -68.644 Q61.764 -66.161 64.126 -64.742 Q66.488 -63.323 69.167 -63.323 Q74.314 -63.323 77.068 -67.788 Q79.822 -72.255 77.564 -76.982 L72.282 -87.833 H94.286 L103.639 -68.644 Q104.885 -66.161 107.228 -64.742 Q109.571 -63.323 112.274 -63.323 Q117.54 -63.323 120.26 -67.769 Q122.981 -72.216 120.684 -76.945 L115.402 -87.833 H131.878 Q136.345 -87.833 139.623 -84.553 Q142.903 -81.275 142.903 -76.808 Z M130.416 3.996  109.934 -16.486  125.936 -32.489 Q127.47 -34.042 129.343 -34.732 Q131.217 -35.423 133.133 -35.423 Q135.145 -35.423 137.037 -34.64 Q138.928 -33.856 140.452 -32.327 L146.418 -26.361 Q147.971 -24.828 148.663 -22.952 Q149.353 -21.077 149.353 -19.202 Q149.353 -17.275 148.569 -15.324 Q147.786 -13.374 146.257 -11.846 L130.416 3.996 Z M100.399 13.53 H106.064 L108.85 10.744 L103.185 5.079 L100.399 7.866 V13.53 Z M137.109 36.891 Q135.04 36.971 133.5 35.433 L116.24 18.171 L112.356 22.217 Q111.509 23.062 110.568 23.423 Q109.627 23.784 108.662 23.784 H95.639 Q93.312 23.784 91.729 22.201 Q90.145 20.617 90.145 18.29 V5.268 Q90.145 4.304 90.506 3.362 Q90.868 2.42 91.713 1.574 L95.758 -2.35 L7.305 -90.802 Q5.816 -92.308 5.797 -94.393 Q5.778 -96.478 7.318 -98.005 Q8.859 -99.533 10.939 -99.533 Q13.019 -99.533 14.537 -98.016 L140.715 28.162 Q142.205 29.709 142.224 31.731 Q142.243 33.753 140.712 35.281 Q139.178 36.81 137.109 36.891 Z"/></g><g id="Regular-L" transform="matrix(1 0 0 1 1378.56 1556)"><path d="M22.575 16.37 Q18.705 16.37 15.803 13.468 Q12.9 10.565 12.9 6.695 V-77.155 Q12.9 -81.146 15.743 -83.989 Q18.584 -86.83 22.575 -86.83 H25.8 L59.985 -52.645 H22.575 V6.695 Q22.575 6.695 22.575 6.695 Q22.575 6.695 22.575 6.695 H75.788 Q77.843 6.695 79.235 8.095 Q80.625 9.493 80.625 11.562 Q80.625 13.629 79.235 14.999 Q77.843 16.37 75.788 16.37 H22.575 Z M141.9 -77.155 V-57.482 Q141.9 -55.427 140.51 -54.037 Q139.118 -52.645 137.062 -52.645 H132.225 H73.853 L39.668 -86.83 H52.245 L61.598 -67.641 Q62.844 -65.158 65.158 -63.739 Q67.473 -62.32 70.144 -62.32 Q75.278 -62.32 78.032 -66.748 Q80.786 -71.176 78.529 -75.865 L73.207 -86.83 H94.17 L103.523 -67.641 Q104.769 -65.158 107.083 -63.739 Q109.398 -62.32 112.069 -62.32 Q117.309 -62.32 120.01 -66.748 Q122.711 -71.176 120.454 -75.865 L115.133 -86.83 H132.225 Q136.095 -86.83 138.998 -83.927 Q141.9 -81.025 141.9 -77.155 Z M129.645 3.148  109.972 -16.525  125.936 -32.489 Q127.388 -33.94 129.161 -34.585 Q130.935 -35.23 132.709 -35.23 Q134.644 -35.23 136.417 -34.504 Q138.191 -33.779 139.643 -32.327 L145.609 -26.361 Q147.06 -24.91 147.705 -23.136 Q148.35 -21.362 148.35 -19.589 Q148.35 -17.815 147.624 -15.961 Q146.899 -14.106 145.447 -12.655 L129.645 3.148 Z M99.975 13.145 H106.103 L109.005 10.243 L102.877 4.115 L99.975 7.018 V13.145 Z M136.014 35.156 Q133.999 35.236 132.548 33.785 L115.778 17.015 L111.585 21.369 Q110.779 22.175 109.937 22.498 Q109.097 22.82 108.199 22.82 H95.138 Q93.082 22.82 91.692 21.428 Q90.3 20.038 90.3 17.983 V4.921 Q90.3 4.023 90.623 3.183 Q90.945 2.341 91.751 1.535 L96.105 -2.657 L8.385 -90.377 Q6.934 -91.84 6.934 -93.849 Q6.934 -95.86 8.393 -97.311 Q9.854 -98.762 11.86 -98.762 Q13.867 -98.762 15.319 -97.311 L139.481 26.851 Q140.933 28.303 140.933 30.238 Q140.933 32.173 139.481 33.624 Q138.03 35.075 136.014 35.156 Z"/></g><g id="Light-L" transform="matrix(1 0 0 1 1082.77 1556)"><path d="M25.428 13.145 Q21.633 13.145 18.879 10.391 Q16.125 7.637 16.125 3.842 V-74.302 Q16.125 -78.106 18.905 -80.856 Q21.685 -83.605 25.49 -83.605 H28.406 L57.379 -54.63 H23.444 V3.842 Q23.444 4.71 24.002 5.268 Q24.56 5.826 25.428 5.826 H75.602 Q77.16 5.826 78.209 6.885 Q79.261 7.945 79.261 9.515 Q79.261 11.086 78.209 12.115 Q77.16 13.145 75.602 13.145 H25.428 Z M138.675 -74.302 V-59.158 Q138.675 -57.289 137.345 -55.959 Q136.016 -54.63 134.147 -54.63 H131.356 H72.364 L43.45 -83.605 H54.478 L62.528 -67.145 Q63.711 -64.724 65.993 -63.336 Q68.273 -61.948 70.905 -61.948 Q75.96 -61.948 78.621 -66.284 Q81.283 -70.618 79.087 -75.244 L75.005 -83.605 H94.852 L102.902 -67.145 Q104.087 -64.724 106.37 -63.336 Q108.653 -61.948 111.2 -61.948 Q116.352 -61.948 119.004 -66.284 Q121.657 -70.618 119.462 -75.244 L115.381 -83.605 H129.372 Q133.167 -83.605 135.921 -80.851 Q138.675 -78.097 138.675 -74.302 Z M127.35 0.232  110.406 -16.649  126.06 -32.303 Q127.263 -33.506 128.665 -33.996 Q130.066 -34.485 131.469 -34.485 Q132.968 -34.485 134.402 -33.916 Q135.834 -33.345 136.975 -32.203 L142.942 -26.176 Q144.083 -24.971 144.604 -23.57 Q145.125 -22.169 145.125 -20.767 Q145.125 -19.366 144.524 -17.915 Q143.922 -16.464 142.842 -15.261 L127.35 0.232 Z M98.735 11.905 H104.862 L109.129 7.637 L103.002 1.509 L98.735 5.777 V11.905 Z M135.456 32.395 Q133.937 32.445 132.857 31.366 L114.537 13.045 L109.476 18.205 Q108.732 18.95 107.921 19.273 Q107.112 19.595 106.277 19.595 H95.695 Q93.704 19.595 92.374 18.265 Q91.045 16.936 91.045 14.943 V4.363 Q91.045 3.528 91.367 2.717 Q91.69 1.907 92.433 1.163 L97.593 -3.898 L10.867 -90.687 Q9.786 -91.785 9.756 -93.296 Q9.725 -94.805 10.844 -95.916 Q11.962 -97.026 13.461 -97.026 Q14.959 -97.026 16.125 -95.947 L138.117 26.045 Q139.135 27.153 139.165 28.64 Q139.196 30.126 138.086 31.236 Q136.975 32.347 135.456 32.395 Z"/></g><g id="Thin-L" transform="matrix(1 0 0 1 787.282 1556)"><path d="M28.28 9.92 Q24.563 9.92 21.956 7.314 Q19.35 4.707 19.35 0.99 V-71.45 Q19.35 -75.068 22.069 -77.724 Q24.786 -80.38 28.404 -80.38 H31.01 L54.775 -56.615 H24.312 V0.99 Q24.312 2.725 25.428 3.842 Q26.545 4.958 28.28 4.958 H75.415 Q76.476 4.958 77.186 5.678 Q77.897 6.397 77.897 7.469 Q77.897 8.543 77.186 9.231 Q76.476 9.92 75.415 9.92 H28.28 Z M135.45 -71.45 V-60.832 Q135.45 -59.151 134.181 -57.882 Q132.914 -56.615 131.233 -56.615 H130.488 H70.876 L47.233 -80.38 H56.71 L63.458 -66.65 Q64.581 -64.29 66.827 -62.933 Q69.073 -61.575 71.666 -61.575 Q76.642 -61.575 79.211 -65.818 Q81.778 -70.06 79.645 -74.625 L76.805 -80.38 H95.534 L102.282 -66.65 Q103.405 -64.29 105.657 -62.933 Q107.91 -61.575 110.332 -61.575 Q115.392 -61.575 117.998 -65.818 Q120.602 -70.06 118.469 -74.625 L115.629 -80.38 H126.52 Q130.237 -80.38 132.844 -77.774 Q135.45 -75.167 135.45 -71.45 Z M125.056 -2.682  110.84 -16.773  126.185 -32.116 Q127.139 -33.072 128.17 -33.406 Q129.198 -33.742 130.229 -33.742 Q131.295 -33.742 132.386 -33.326 Q133.478 -32.911 134.308 -32.079 L140.275 -25.989 Q141.107 -25.034 141.503 -24.004 Q141.9 -22.975 141.9 -21.946 Q141.9 -20.916 141.423 -19.868 Q140.945 -18.82 140.238 -17.865 L125.056 -2.682 Z M97.495 10.665 H103.622 L109.253 5.033 L103.126 -1.095 L97.495 4.537 V10.665 Z M134.899 29.636 Q133.875 29.654 133.168 28.948 L113.297 9.077 L107.368 15.043 Q106.686 15.725 105.906 16.048 Q105.127 16.37 104.353 16.37 H96.253 Q94.325 16.37 93.057 15.101 Q91.788 13.834 91.788 11.905 V3.805 Q91.788 3.031 92.111 2.253 Q92.433 1.474 93.115 0.79 L99.082 -5.138 L13.347 -90.998 Q12.639 -91.732 12.578 -92.741 Q12.516 -93.751 13.293 -94.52 Q14.071 -95.289 15.061 -95.289 Q16.051 -95.289 16.931 -94.583 L136.753 25.239 Q137.335 26.001 137.398 27.04 Q137.459 28.08 136.69 28.848 Q135.921 29.617 134.899 29.636 Z"/></g><g id="Ultralight-L" transform="matrix(1 0 0 1 491.205 1556)"><path d="M29.992 7.985 Q26.321 7.985 23.802 5.468 Q21.285 2.949 21.285 -0.722 V-69.737 Q21.285 -73.245 23.967 -75.846 Q26.647 -78.445 30.154 -78.445 H32.572 L53.212 -57.805 H24.832 V-0.722 Q24.832 1.535 26.284 2.986 Q27.735 4.438 29.992 4.438 H75.304 Q76.066 4.438 76.571 4.952 Q77.078 5.468 77.078 6.242 Q77.078 7.018 76.571 7.501 Q76.066 7.985 75.304 7.985 H29.992 Z M133.515 -69.737 V-61.836 Q133.515 -60.269 132.283 -59.037 Q131.051 -57.805 129.484 -57.805 H129.968 H69.983 L49.504 -78.445 H58.05 L64.016 -66.351 Q65.101 -64.029 67.327 -62.691 Q69.554 -61.352 72.122 -61.352 Q77.052 -61.352 79.564 -65.539 Q82.076 -69.725 79.98 -74.252 L77.884 -78.445 H95.944 L101.91 -66.351 Q102.995 -64.029 105.229 -62.691 Q107.463 -61.352 109.811 -61.352 Q114.818 -61.352 117.393 -65.539 Q119.97 -69.725 117.874 -74.252 L115.778 -78.445 H124.808 Q128.481 -78.445 130.998 -75.928 Q133.515 -73.411 133.515 -69.737 Z M123.679 -4.431  111.101 -16.847  126.259 -32.005 Q127.065 -32.811 127.871 -33.053 Q128.678 -33.295 129.484 -33.295 Q130.29 -33.295 131.177 -32.972 Q132.064 -32.65 132.709 -32.005 L138.675 -25.877 Q139.32 -25.071 139.643 -24.265 Q139.965 -23.459 139.965 -22.652 Q139.965 -21.846 139.562 -21.04 Q139.159 -20.234 138.675 -19.427 L123.679 -4.431 Z M96.75 9.92 H102.877 L109.328 3.47 L103.2 -2.657 L96.75 3.793 V9.92 Z M134.563 27.98 Q133.838 27.98 133.354 27.496 L112.553 6.695 L106.103 13.145 Q105.457 13.79 104.696 14.113 Q103.937 14.435 103.2 14.435 H96.589 Q94.699 14.435 93.467 13.203 Q92.235 11.973 92.235 10.081 V3.47 Q92.235 2.733 92.558 1.974 Q92.88 1.213 93.525 0.568 L99.975 -5.882 L14.835 -91.184 Q14.351 -91.7 14.271 -92.409 Q14.19 -93.119 14.762 -93.683 Q15.336 -94.247 16.02 -94.247 Q16.706 -94.247 17.415 -93.764 L135.934 24.755 Q136.256 25.311 136.337 26.082 Q136.417 26.851 135.853 27.416 Q135.289 27.98 134.563 27.98 Z"/></g><g id="Bold-M" transform="matrix(1 0 0 1 2281.8 1126)"><path d="M21.5 9.02 Q14.875 9.02 10.312 4.583 Q5.75 0.145 5.75 -6.355 V-63.73 Q5.75 -68.855 8.625 -72.855 Q11.5 -76.855 16.25 -78.605 L51.125 -43.73 H21.5 V-6.73 Q21.5 -6.73 21.5 -6.73 Q21.5 -6.73 21.5 -6.73 H51.375 Q54.625 -6.73 56.938 -4.417 Q59.25 -2.105 59.25 1.145 Q59.25 4.395 56.938 6.708 Q54.625 9.02 51.375 9.02 H21.5 Z M114.25 -63.73 V-51.605 Q114.25 -48.355 111.938 -46.042 Q109.625 -43.73 106.375 -43.73 H98.5 H65.375 L29.5 -79.48 H39.5 L47.5 -63.355 Q48.5 -61.605 50.216 -60.542 Q51.932 -59.48 53.914 -59.48 Q57.875 -59.48 59.875 -62.831 Q61.875 -66.182 60.125 -69.73 L55.25 -79.48 H71 L79.125 -63.342 Q80 -61.605 81.716 -60.542 Q83.433 -59.48 85.414 -59.48 Q89.375 -59.48 91.375 -62.79 Q93.375 -66.1 91.625 -69.605 L86.625 -79.48 H98.5 Q105.125 -79.48 109.688 -74.917 Q114.25 -70.355 114.25 -63.73 Z M105.75 -3.605  86.875 -22.355  97.625 -33.105 Q99.125 -34.627 100.959 -35.304 Q102.791 -35.98 104.625 -35.98 Q106.625 -35.98 108.444 -35.23 Q110.263 -34.48 111.75 -32.98 L116.375 -28.355 Q117.897 -26.855 118.574 -25.021 Q119.25 -23.189 119.25 -21.355 Q119.25 -19.355 118.562 -17.542 Q117.875 -15.73 116.375 -14.23 L105.75 -3.605 Z M79.25 4.02 H82.125 L79.25 1.145 V4.02 Z M107.424 26.895 Q105 26.895 103.215 25.11 L90.125 12.02 Q89.116 13.02 87.855 13.52 Q86.595 14.02 85.25 14.02 H77.125 Q73.875 14.02 71.562 11.708 Q69.25 9.395 69.25 6.145 V-1.98 Q69.25 -3.325 69.75 -4.585 Q70.25 -5.846 71.25 -6.855 L2 -76.105 Q0.25 -77.871 0.25 -80.301 Q0.25 -82.73 2.014 -84.48 Q3.776 -86.23 6.201 -86.23 Q8.625 -86.23 10.375 -84.48 L111.625 16.77 Q113.375 18.576 113.375 20.986 Q113.375 23.395 111.611 25.145 Q109.849 26.895 107.424 26.895 Z"/></g><g id="Semibold-M" transform="matrix(1 0 0 1 1985.97 1126)"><path d="M20.848 7.173 Q15.31 7.173 11.454 3.388 Q7.598 -0.399 7.598 -5.866 V-64.382 Q7.598 -69.072 10.5 -72.61 Q13.402 -76.149 17.88 -77.137 L50.636 -44.382 H20.848 V-6.077 Q20.848 -6.077 20.848 -6.077 Q20.848 -6.077 20.848 -6.077 H52.951 Q55.712 -6.077 57.644 -4.146 Q59.576 -2.214 59.576 0.548 Q59.576 3.308 57.644 5.24 Q55.712 7.173 52.951 7.173 H20.848 Z M112.403 -64.382 V-51.007 Q112.403 -48.246 110.47 -46.314 Q108.537 -44.382 105.778 -44.382 H99.153 H64.886 L31.565 -77.632 H41.565 L49.565 -61.452 Q50.511 -59.702 52.188 -58.667 Q53.864 -57.632 55.799 -57.632 Q59.669 -57.632 61.695 -60.912 Q63.722 -64.192 61.972 -67.665 L56.989 -77.632 H70.782 L78.907 -61.446 Q79.782 -59.702 81.459 -58.667 Q83.136 -57.632 85.071 -57.632 Q88.94 -57.632 90.94 -60.889 Q92.94 -64.146 91.19 -67.594 L86.136 -77.632 H99.153 Q104.69 -77.632 108.546 -73.776 Q112.403 -69.92 112.403 -64.382 Z M104.282 -5.181  86.929 -22.409  97.625 -33.105 Q98.963 -34.455 100.596 -35.054 Q102.23 -35.654 103.864 -35.654 Q105.646 -35.654 107.272 -34.985 Q108.899 -34.317 110.229 -32.98 L114.854 -28.355 Q116.203 -27.017 116.802 -25.384 Q117.403 -23.75 117.403 -22.116 Q117.403 -20.387 116.796 -18.737 Q116.19 -17.089 114.854 -15.751 L104.282 -5.181 Z M78.489 3.259 H82.179 L82.396 3.041 L78.706 -0.649 L78.489 -0.431 V3.259 Z M105.365 23.689 Q103.097 23.689 101.436 22.028 L89.255 9.846 L88.713 10.39 Q87.816 11.281 86.696 11.726 Q85.575 12.173 84.38 12.173 H76.201 Q73.44 12.173 71.509 10.24 Q69.576 8.308 69.576 5.548 V-2.632 Q69.576 -3.827 70.021 -4.947 Q70.468 -6.067 71.359 -6.964 L71.903 -7.452 L4.011 -75.344 Q2.37 -76.995 2.37 -79.265 Q2.37 -81.535 4.019 -83.176 Q5.668 -84.817 7.934 -84.817 Q10.201 -84.817 11.842 -83.176 L109.289 14.27 Q110.93 15.944 110.93 18.175 Q110.93 20.406 109.281 22.048 Q107.632 23.689 105.365 23.689 Z"/></g><g id="Medium-M" transform="matrix(1 0 0 1 1689.91 1126)"><path d="M20.359 5.786 Q15.636 5.786 12.31 2.49 Q8.984 -0.806 8.984 -5.499 V-64.871 Q8.984 -69.235 11.906 -72.427 Q14.829 -75.619 19.104 -76.037 L50.269 -44.871 H20.359 V-5.589 Q20.359 -5.589 20.359 -5.589 Q20.359 -5.589 20.359 -5.589 H54.134 Q56.528 -5.589 58.174 -3.942 Q59.821 -2.295 59.821 0.099 Q59.821 2.493 58.174 4.14 Q56.528 5.786 54.134 5.786 H20.359 Z M111.016 -64.871 V-50.559 Q111.016 -48.165 109.37 -46.517 Q107.722 -44.871 105.329 -44.871 H99.641 H64.519 L33.114 -76.246 H43.114 L51.114 -60.026 Q52.019 -58.276 53.666 -57.261 Q55.312 -56.246 57.212 -56.246 Q61.014 -56.246 63.061 -59.472 Q65.109 -62.7 63.359 -66.116 L58.294 -76.246 H70.62 L78.745 -60.024 Q79.62 -58.276 81.266 -57.261 Q82.914 -56.246 84.814 -56.246 Q88.614 -56.246 90.614 -59.464 Q92.614 -62.68 90.864 -66.086 L85.769 -76.246 H99.641 Q104.364 -76.246 107.69 -72.92 Q111.016 -69.594 111.016 -64.871 Z M103.183 -6.364  86.97 -22.45  97.625 -33.105 Q98.84 -34.325 100.324 -34.867 Q101.809 -35.409 103.294 -35.409 Q104.912 -35.409 106.394 -34.802 Q107.875 -34.195 109.088 -32.98 L113.713 -28.355 Q114.933 -27.14 115.474 -25.656 Q116.016 -24.171 116.016 -22.686 Q116.016 -21.162 115.471 -19.635 Q114.926 -18.107 113.713 -16.892 L103.183 -6.364 Z M77.919 2.689 H82.22 L82.6 2.308 L78.299 -1.994 L77.919 -1.614 V2.689 Z M103.82 21.284 Q101.671 21.284 100.103 19.715 L88.604 8.216 L87.653 9.166 Q86.84 9.976 85.825 10.381 Q84.811 10.786 83.729 10.786 H75.509 Q73.114 10.786 71.468 9.14 Q69.821 7.493 69.821 5.099 V-3.121 Q69.821 -4.204 70.225 -5.219 Q70.63 -6.234 71.44 -7.045 L72.391 -7.901 L5.519 -74.774 Q3.959 -76.337 3.959 -78.487 Q3.959 -80.637 5.522 -82.197 Q7.085 -83.757 9.234 -83.757 Q11.384 -83.757 12.943 -82.197 L107.535 12.395 Q109.095 13.969 109.095 16.066 Q109.095 18.164 107.532 19.724 Q105.969 21.284 103.82 21.284 Z"/></g><g id="Regular-M" transform="matrix(1 0 0 1 1394.06 1126)"><path d="M20 4.77 Q15.875 4.77 12.938 1.833 Q10 -1.105 10 -5.23 V-65.23 Q10 -69.355 12.938 -72.292 Q15.875 -75.23 20 -75.23 L50 -45.23 H20 V-5.23 Q20 -5.23 20 -5.23 Q20 -5.23 20 -5.23 H55 Q57.125 -5.23 58.562 -3.792 Q60 -2.355 60 -0.23 Q60 1.895 58.562 3.333 Q57.125 4.77 55 4.77 H20 Z M110 -65.23 V-50.23 Q110 -48.105 108.562 -46.667 Q107.125 -45.23 105 -45.23 H100 H64.25 L34.25 -75.23 H44.25 L52.25 -58.98 Q53.125 -57.23 54.75 -56.23 Q56.375 -55.23 58.25 -55.23 Q62 -55.23 64.062 -58.417 Q66.125 -61.605 64.375 -64.98 L59.25 -75.23 H70.5 L78.625 -58.98 Q79.5 -57.23 81.125 -56.23 Q82.75 -55.23 84.625 -55.23 Q88.375 -55.23 90.375 -58.417 Q92.375 -61.605 90.625 -64.98 L85.5 -75.23 H100 Q104.125 -75.23 107.062 -72.292 Q110 -69.355 110 -65.23 Z M102.375 -7.23  87 -22.48  97.625 -33.105 Q98.75 -34.23 100.125 -34.73 Q101.5 -35.23 102.875 -35.23 Q104.375 -35.23 105.75 -34.667 Q107.125 -34.105 108.25 -32.98 L112.875 -28.355 Q114 -27.23 114.5 -25.855 Q115 -24.48 115 -23.105 Q115 -21.73 114.5 -20.292 Q114 -18.855 112.875 -17.73 L102.375 -7.23 Z M77.5 2.27 H82.25 L82.75 1.77 L78 -2.98 L77.5 -2.48 V2.27 Z M102.688 19.52 Q100.625 19.52 99.125 18.02 L88.125 7.02 L86.875 8.27 Q86.125 9.02 85.188 9.395 Q84.25 9.77 83.25 9.77 H75 Q72.875 9.77 71.438 8.333 Q70 6.895 70 4.77 V-3.48 Q70 -4.48 70.375 -5.417 Q70.75 -6.355 71.5 -7.105 L72.75 -8.23 L6.625 -74.355 Q5.125 -75.855 5.125 -77.917 Q5.125 -79.98 6.625 -81.48 Q8.125 -82.98 10.188 -82.98 Q12.25 -82.98 13.75 -81.48 L106.25 11.02 Q107.75 12.52 107.75 14.52 Q107.75 16.52 106.25 18.02 Q104.75 19.52 102.688 19.52 Z"/></g><g id="Light-M" transform="matrix(1 0 0 1 1098.18 1126)"><path d="M21.539 2.27 Q17.75 2.27 15.125 -0.355 Q12.5 -2.98 12.5 -6.769 V-63.691 Q12.5 -67.431 15.174 -70.081 Q17.846 -72.73 21.586 -72.73 H22.02 L47.019 -47.73 H20 V-6.769 Q20 -6.095 20.433 -5.662 Q20.865 -5.23 21.539 -5.23 H55.865 Q57.461 -5.23 58.539 -4.152 Q59.615 -3.076 59.615 -1.48 Q59.615 0.116 58.539 1.193 Q57.461 2.27 55.865 2.27 H21.539 Z M107.5 -63.691 V-52.154 Q107.5 -50.316 106.206 -49.024 Q104.914 -47.73 103.076 -47.73 H100 H61.221 L36.221 -72.73 H44.971 L51.769 -58.98 Q52.644 -57.23 54.269 -56.23 Q55.894 -55.23 57.769 -55.23 Q61.519 -55.23 63.557 -58.417 Q65.596 -61.605 63.846 -64.98 L59.971 -72.73 H71.703 L78.578 -58.98 Q79.453 -57.23 81.078 -56.23 Q82.703 -55.23 84.578 -55.23 Q88.328 -55.23 90.328 -58.417 Q92.328 -61.605 90.578 -64.98 L86.703 -72.73 H98.461 Q102.25 -72.73 104.875 -70.105 Q107.5 -67.48 107.5 -63.691 Z M100.067 -9.009  86.856 -22.095  97.721 -32.961 Q98.654 -33.894 99.74 -34.274 Q100.826 -34.652 101.914 -34.652 Q103.076 -34.652 104.188 -34.211 Q105.297 -33.769 106.183 -32.884 L110.808 -28.211 Q111.692 -27.277 112.096 -26.191 Q112.5 -25.105 112.5 -24.019 Q112.5 -22.932 112.096 -21.807 Q111.692 -20.682 110.808 -19.75 L100.067 -9.009 Z M76.539 1.309 H81.289 L83.328 -0.73 L78.578 -5.48 L76.539 -3.441 V1.309 Z M103 17.356 Q101.49 17.356 100.328 16.193 L87.596 3.463 L85.144 5.914 Q84.442 6.616 83.625 6.943 Q82.808 7.27 81.904 7.27 H75.096 Q73.164 7.27 71.87 5.976 Q70.578 4.684 70.578 2.75 V-4.057 Q70.578 -4.961 70.904 -5.777 Q71.231 -6.595 71.933 -7.297 L74.385 -9.672 L8.5 -75.557 Q7.385 -76.672 7.361 -78.206 Q7.336 -79.74 8.5 -80.902 Q9.664 -82.066 11.174 -82.066 Q12.682 -82.066 13.846 -80.902 L105.672 10.924 Q106.789 12.039 106.812 13.534 Q106.836 15.03 105.672 16.193 Q104.51 17.356 103 17.356 Z"/></g><g id="Thin-M" transform="matrix(1 0 0 1 802.565 1126)"><path d="M23.078 -0.23 Q19.625 -0.23 17.312 -2.542 Q15 -4.855 15 -8.307 V-62.152 Q15 -65.509 17.409 -67.87 Q19.817 -70.23 23.172 -70.23 H24.039 L44.039 -50.23 H20 V-8.307 Q20 -6.961 20.865 -6.095 Q21.731 -5.23 23.078 -5.23 H56.731 Q57.797 -5.23 58.515 -4.514 Q59.231 -3.797 59.231 -2.73 Q59.231 -1.662 58.515 -0.946 Q57.797 -0.23 56.731 -0.23 H23.078 Z M105 -62.152 V-54.076 Q105 -52.527 103.851 -51.379 Q102.703 -50.23 101.154 -50.23 H100 H58.193 L38.193 -70.23 H45.693 L51.289 -58.98 Q52.164 -57.23 53.789 -56.23 Q55.414 -55.23 57.289 -55.23 Q61.039 -55.23 63.053 -58.417 Q65.067 -61.605 63.318 -64.98 L60.693 -70.23 H72.904 L78.529 -58.98 Q79.404 -57.23 81.029 -56.23 Q82.654 -55.23 84.529 -55.23 Q88.279 -55.23 90.279 -58.417 Q92.279 -61.605 90.529 -64.98 L87.904 -70.23 H96.922 Q100.375 -70.23 102.688 -67.917 Q105 -65.605 105 -62.152 Z M97.76 -10.787  86.711 -21.711  97.817 -32.816 Q98.558 -33.557 99.356 -33.816 Q100.154 -34.076 100.953 -34.076 Q101.779 -34.076 102.625 -33.754 Q103.471 -33.432 104.115 -32.787 L108.74 -28.066 Q109.385 -27.326 109.692 -26.527 Q110 -25.73 110 -24.932 Q110 -24.134 109.692 -23.321 Q109.385 -22.509 108.74 -21.769 L97.76 -10.787 Z M75.578 0.348 H80.328 L83.904 -3.23 L79.154 -7.98 L75.578 -4.402 V0.348 Z M103.312 15.193 Q102.356 15.193 101.529 14.366 L87.067 -0.095 L83.414 3.559 Q82.76 4.213 82.062 4.491 Q81.365 4.77 80.558 4.77 H75.192 Q73.453 4.77 72.302 3.621 Q71.154 2.473 71.154 0.731 V-4.634 Q71.154 -5.441 71.433 -6.139 Q71.711 -6.836 72.365 -7.49 L76.019 -11.115 L10.375 -76.759 Q9.644 -77.49 9.596 -78.495 Q9.547 -79.499 10.375 -80.326 Q11.203 -81.152 12.159 -81.152 Q13.115 -81.152 13.943 -80.326 L105.096 10.828 Q105.828 11.559 105.875 12.549 Q105.922 13.539 105.096 14.366 Q104.269 15.193 103.312 15.193 Z"/></g><g id="Ultralight-M" transform="matrix(1 0 0 1 506.415 1126)"><path d="M24 -1.73 Q20.75 -1.73 18.625 -3.855 Q16.5 -5.98 16.5 -9.23 V-61.23 Q16.5 -64.355 18.75 -66.542 Q21 -68.73 24.125 -68.73 H25.25 L42.25 -51.73 H20 V-9.23 Q20 -7.48 21.125 -6.355 Q22.25 -5.23 24 -5.23 H57.25 Q58 -5.23 58.5 -4.73 Q59 -4.23 59 -3.48 Q59 -2.73 58.5 -2.23 Q58 -1.73 57.25 -1.73 H24 Z M103.5 -61.23 V-55.23 Q103.5 -53.855 102.438 -52.792 Q101.375 -51.73 100 -51.73 H56.375 L39.375 -68.73 H46.125 L51 -58.98 Q51.875 -57.23 53.5 -56.23 Q55.125 -55.23 57 -55.23 Q60.75 -55.23 62.75 -58.417 Q64.75 -61.605 63 -64.98 L61.125 -68.73 H73.625 L78.5 -58.98 Q79.375 -57.23 81 -56.23 Q82.625 -55.23 84.5 -55.23 Q88.25 -55.23 90.25 -58.417 Q92.25 -61.605 90.5 -64.98 L88.625 -68.73 H96 Q99.25 -68.73 101.375 -66.605 Q103.5 -64.48 103.5 -61.23 Z M96.375 -11.855  86.625 -21.48  97.875 -32.73 Q98.5 -33.355 99.125 -33.542 Q99.75 -33.73 100.375 -33.73 Q101 -33.73 101.688 -33.48 Q102.375 -33.23 102.875 -32.73 L107.5 -27.98 Q108 -27.355 108.25 -26.73 Q108.5 -26.105 108.5 -25.48 Q108.5 -24.855 108.25 -24.23 Q108 -23.605 107.5 -22.98 L96.375 -11.855 Z M75 -0.23 H79.75 L84.25 -4.73 L79.5 -9.48 L75 -4.98 V-0.23 Z M103.5 13.895 Q102.875 13.895 102.25 13.27 L86.75 -2.23 L82.375 2.145 Q81.75 2.77 81.125 3.02 Q80.5 3.27 79.75 3.27 H75.25 Q73.625 3.27 72.562 2.208 Q71.5 1.145 71.5 -0.48 V-4.98 Q71.5 -5.73 71.75 -6.355 Q72 -6.98 72.625 -7.605 L77 -11.98 L11.5 -77.48 Q11 -77.98 10.938 -78.667 Q10.875 -79.355 11.5 -79.98 Q12.125 -80.605 12.75 -80.605 Q13.375 -80.605 14 -79.98 L104.75 10.77 Q105.25 11.27 105.312 11.958 Q105.375 12.645 104.75 13.27 Q104.125 13.895 103.5 13.895 Z"/></g><g id="Bold-S" transform="matrix(1 0 0 1 2294.23 696)"><path d="M17.753 -3.473 Q12.92 -3.473 9.517 -6.777 Q6.115 -10.081 6.115 -14.815 V-55.349 Q6.115 -59.068 8.151 -61.992 Q10.188 -64.916 13.61 -66.297 H15.977 L41.127 -41.147 H17.753 V-15.11 Q17.753 -15.11 17.753 -15.11 Q17.753 -15.11 17.753 -15.11 H43.296 Q45.693 -15.11 47.404 -13.405 Q49.115 -11.7 49.115 -9.312 Q49.115 -6.925 47.404 -5.199 Q45.693 -3.473 43.296 -3.473 H17.753 Z M88.565 -55.349 V-46.966 Q88.565 -44.57 86.854 -42.859 Q85.143 -41.147 82.746 -41.147 H76.928 H51.285 L25.347 -66.987 H31.757 L37.675 -55.251 Q38.267 -54.166 39.402 -53.476 Q40.538 -52.785 41.848 -52.785 Q44.381 -52.785 45.565 -54.887 Q46.748 -56.989 45.663 -59.294 L41.817 -66.987 H54.836 L60.753 -55.241 Q61.246 -54.166 62.381 -53.476 Q63.517 -52.785 64.827 -52.785 Q67.332 -52.785 68.579 -54.854 Q69.827 -56.924 68.742 -59.196 L64.797 -66.987 H76.928 Q81.829 -66.987 85.197 -63.585 Q88.565 -60.182 88.565 -55.349 Z M81.957 -10.574  68.051 -24.48  77.519 -33.849 Q78.531 -34.894 79.768 -35.357 Q81.004 -35.822 82.23 -35.822 Q83.566 -35.822 84.78 -35.329 Q85.994 -34.835 86.987 -33.849 L91.327 -29.411 Q92.371 -28.399 92.835 -27.162 Q93.299 -25.927 93.299 -24.701 Q93.299 -23.344 92.827 -22.144 Q92.353 -20.946 91.327 -19.943 L81.957 -10.574 Z M62.923 -5.445 H65.487 L65.093 -5.051 L62.528 -7.615 L62.923 -8.009 V-5.445 Z M82.834 11.025 Q81.168 11.025 79.859 9.715 L70.714 0.67 L71.602 -0.218 Q70.904 0.472 70.008 0.867 Q69.112 1.261 68.094 1.261 H62.035 Q59.639 1.261 57.927 -0.45 Q56.216 -2.161 56.216 -4.558 V-10.616 Q56.216 -11.635 56.611 -12.53 Q57.005 -13.427 57.696 -14.124 L56.808 -13.335 L4.34 -66.001 Q3.057 -67.296 3.057 -68.967 Q3.057 -70.636 4.35 -71.918 Q5.642 -73.201 7.374 -73.201 Q9.106 -73.201 10.356 -71.918 L85.875 3.601 Q87.184 4.955 87.135 6.708 Q87.086 8.461 85.793 9.743 Q84.501 11.025 82.834 11.025 Z"/></g><g id="Semibold-S" transform="matrix(1 0 0 1 1998.1 696)"><path d="M17.238 -4.93 Q13.263 -4.93 10.418 -7.72 Q7.572 -10.51 7.572 -14.429 V-55.864 Q7.572 -59.239 9.631 -61.799 Q11.689 -64.359 14.896 -65.139 H17.263 L40.741 -41.662 H17.238 V-14.596 Q17.238 -14.596 17.238 -14.596 Q17.238 -14.596 17.238 -14.596 H44.54 Q46.551 -14.596 47.961 -13.191 Q49.373 -11.786 49.373 -9.784 Q49.373 -7.783 47.961 -6.357 Q46.551 -4.93 44.54 -4.93 H17.238 Z M87.108 -55.864 V-46.495 Q87.108 -44.484 85.696 -43.073 Q84.285 -41.662 82.275 -41.662 H77.442 H50.899 L26.976 -65.53 H33.387 L39.304 -53.75 Q39.853 -52.665 40.957 -51.996 Q42.061 -51.328 43.335 -51.328 Q45.797 -51.328 47.001 -53.373 Q48.206 -55.419 47.121 -57.665 L43.189 -65.53 H54.664 L60.581 -53.745 Q61.075 -52.665 62.179 -51.996 Q63.283 -51.328 64.557 -51.328 Q66.989 -51.328 68.237 -53.354 Q69.483 -55.382 68.398 -57.609 L64.411 -65.53 H77.442 Q81.486 -65.53 84.297 -62.684 Q87.108 -59.839 87.108 -55.864 Z M80.8 -11.817  68.094 -24.522  77.519 -33.849 Q78.402 -34.758 79.482 -35.161 Q80.561 -35.564 81.629 -35.564 Q82.795 -35.564 83.856 -35.135 Q84.918 -34.707 85.787 -33.849 L90.126 -29.411 Q91.034 -28.528 91.438 -27.448 Q91.842 -26.37 91.842 -25.301 Q91.842 -24.158 91.433 -23.088 Q91.024 -22.018 90.126 -21.143 L80.8 -11.817 Z M62.322 -6.046 H65.529 L65.307 -5.823 L62.099 -9.03 L62.322 -9.253 V-6.046 Z M81.21 8.495 Q79.667 8.495 78.455 7.283 L70.028 -1.046 L70.487 -1.504 Q69.879 -0.9 69.094 -0.549 Q68.308 -0.196 67.408 -0.196 H61.306 Q59.295 -0.196 57.885 -1.608 Q56.474 -3.019 56.474 -5.029 V-11.131 Q56.474 -12.031 56.825 -12.816 Q57.177 -13.602 57.781 -14.21 L57.323 -13.807 L5.926 -65.4 Q4.73 -66.605 4.73 -68.149 Q4.73 -69.694 5.932 -70.89 Q7.135 -72.086 8.742 -72.086 Q10.35 -72.086 11.513 -70.89 L84.03 1.628 Q85.255 2.878 85.206 4.49 Q85.157 6.103 83.955 7.299 Q82.752 8.495 81.21 8.495 Z"/></g><g id="Medium-S" transform="matrix(1 0 0 1 1701.85 696)"><path d="M16.852 -6.024 Q13.521 -6.024 11.093 -8.428 Q8.666 -10.831 8.666 -14.139 V-56.25 Q8.666 -59.367 10.74 -61.655 Q12.814 -63.941 15.862 -64.271 H18.229 L40.451 -42.048 H16.852 V-14.21 Q16.852 -14.21 16.852 -14.21 Q16.852 -14.21 16.852 -14.21 H45.473 Q47.194 -14.21 48.38 -13.03 Q49.566 -11.85 49.566 -10.138 Q49.566 -8.426 48.38 -7.224 Q47.194 -6.024 45.473 -6.024 H16.852 Z M86.014 -56.25 V-46.141 Q86.014 -44.42 84.828 -43.233 Q83.642 -42.048 81.921 -42.048 H77.828 H50.609 L28.198 -64.436 H34.608 L40.526 -52.624 Q41.043 -51.54 42.124 -50.887 Q43.204 -50.234 44.45 -50.234 Q46.858 -50.234 48.079 -52.237 Q49.3 -54.241 48.215 -56.443 L44.219 -64.436 H54.536 L60.453 -52.623 Q60.946 -51.54 62.026 -50.887 Q63.107 -50.234 64.354 -50.234 Q66.732 -50.234 67.979 -52.23 Q69.226 -54.225 68.141 -56.42 L64.121 -64.436 H77.828 Q81.229 -64.436 83.621 -62.009 Q86.014 -59.581 86.014 -56.25 Z M79.932 -12.75  68.126 -24.555  77.519 -33.849 Q78.306 -34.655 79.267 -35.013 Q80.228 -35.371 81.179 -35.371 Q82.216 -35.371 83.164 -34.991 Q84.11 -34.611 84.887 -33.849 L89.226 -29.411 Q90.032 -28.624 90.39 -27.663 Q90.748 -26.702 90.748 -25.751 Q90.748 -24.77 90.388 -23.795 Q90.027 -22.822 89.226 -22.044 L79.932 -12.75 Z M61.872 -6.496 H65.562 L65.467 -6.402 L61.778 -10.091 L61.872 -10.186 V-6.496 Z M79.991 6.598 Q78.542 6.598 77.403 5.459 L69.514 -2.332 L69.651 -2.47 Q69.109 -1.929 68.406 -1.61 Q67.705 -1.29 66.893 -1.29 H60.76 Q59.038 -1.29 57.852 -2.476 Q56.667 -3.662 56.667 -5.383 V-11.517 Q56.667 -12.328 56.986 -13.03 Q57.305 -13.733 57.846 -14.274 L57.708 -14.161 L7.116 -64.951 Q5.984 -66.086 5.984 -67.536 Q5.984 -68.985 7.119 -70.118 Q8.253 -71.25 9.768 -71.25 Q11.283 -71.25 12.381 -70.118 L82.648 0.149 Q83.808 1.319 83.758 2.826 Q83.709 4.333 82.575 5.466 Q81.44 6.598 79.991 6.598 Z"/></g><g id="Regular-S" transform="matrix(1 0 0 1 1405.73 696)"><path d="M16.569 -6.826 Q13.709 -6.826 11.588 -8.946 Q9.468 -11.067 9.468 -13.927 V-56.533 Q9.468 -59.462 11.554 -61.548 Q13.64 -63.634 16.569 -63.634 H18.936 L40.239 -42.331 H16.569 V-13.927 Q16.569 -13.927 16.569 -13.927 Q16.569 -13.927 16.569 -13.927 H46.157 Q47.665 -13.927 48.686 -12.912 Q49.707 -11.897 49.707 -10.397 Q49.707 -8.897 48.686 -7.862 Q47.665 -6.826 46.157 -6.826 H16.569 Z M85.212 -56.533 V-45.881 Q85.212 -44.373 84.191 -43.352 Q83.17 -42.331 81.662 -42.331 H78.111 H50.397 L29.094 -63.634 H35.505 L41.422 -51.799 Q41.916 -50.714 42.979 -50.073 Q44.042 -49.432 45.269 -49.432 Q47.636 -49.432 48.869 -51.404 Q50.102 -53.377 49.017 -55.547 L44.973 -63.634 H54.441 L60.358 -51.799 Q60.852 -50.714 61.915 -50.073 Q62.978 -49.432 64.205 -49.432 Q66.543 -49.432 67.79 -51.404 Q69.038 -53.377 67.953 -55.547 L63.909 -63.634 H78.111 Q81.04 -63.634 83.126 -61.514 Q85.212 -59.393 85.212 -56.533 Z M79.294 -13.434  68.15 -24.578  77.519 -33.849 Q78.235 -34.58 79.11 -34.906 Q79.985 -35.23 80.849 -35.23 Q81.791 -35.23 82.655 -34.885 Q83.519 -34.54 84.226 -33.849 L88.565 -29.411 Q89.296 -28.695 89.622 -27.82 Q89.946 -26.945 89.946 -26.082 Q89.946 -25.218 89.622 -24.314 Q89.296 -23.412 88.565 -22.705 L79.294 -13.434 Z M61.542 -6.826 H65.586 L61.542 -10.87 V-6.826 Z M79.097 5.206 Q77.716 5.206 76.632 4.121 L69.136 -3.275 L69.038 -3.177 Q68.544 -2.684 67.903 -2.388 Q67.262 -2.092 66.516 -2.092 H60.358 Q58.85 -2.092 57.829 -3.113 Q56.808 -4.134 56.808 -5.642 V-11.8 Q56.808 -12.546 57.104 -13.187 Q57.4 -13.828 57.893 -14.321 L57.992 -14.42 L7.989 -64.62 Q6.904 -65.705 6.904 -67.086 Q6.904 -68.467 7.989 -69.551 Q9.074 -70.636 10.52 -70.636 Q11.966 -70.636 13.019 -69.551 L81.634 -0.936 Q82.746 0.176 82.697 1.606 Q82.648 3.037 81.563 4.121 Q80.478 5.206 79.097 5.206 Z"/></g><g id="Light-S" transform="matrix(1 0 0 1 1109.75 696)"><path d="M17.783 -8.798 Q15.188 -8.798 13.314 -10.672 Q11.441 -12.546 11.441 -15.141 V-55.319 Q11.441 -57.944 13.318 -59.803 Q15.195 -61.661 17.821 -61.661 H20.53 L37.887 -44.303 H16.569 V-15.141 Q16.569 -14.609 16.91 -14.268 Q17.251 -13.927 17.783 -13.927 H46.839 Q47.931 -13.927 48.667 -13.197 Q49.403 -12.466 49.403 -11.383 Q49.403 -10.301 48.667 -9.55 Q47.931 -8.798 46.839 -8.798 H17.783 Z M83.24 -55.319 V-47.399 Q83.24 -46.117 82.332 -45.211 Q81.426 -44.303 80.144 -44.303 H78.111 H48.008 L30.65 -61.661 H36.074 L41.043 -51.799 Q41.536 -50.714 42.599 -50.073 Q43.662 -49.432 44.889 -49.432 Q47.256 -49.432 48.47 -51.404 Q49.684 -53.377 48.599 -55.547 L45.542 -61.661 H55.39 L60.321 -51.799 Q60.814 -50.714 61.877 -50.073 Q62.941 -49.432 64.167 -49.432 Q66.506 -49.432 67.752 -51.404 Q69 -53.377 67.915 -55.547 L64.858 -61.661 H76.897 Q79.561 -61.661 81.4 -59.788 Q83.24 -57.914 83.24 -55.319 Z M77.474 -14.837  68.036 -24.275  77.595 -33.736 Q78.159 -34.315 78.806 -34.545 Q79.453 -34.774 80.09 -34.774 Q80.767 -34.774 81.422 -34.525 Q82.078 -34.274 82.594 -33.773 L86.934 -29.298 Q87.475 -28.734 87.724 -28.086 Q87.974 -27.439 87.974 -26.802 Q87.974 -26.166 87.724 -25.51 Q87.475 -24.853 86.934 -24.298 L77.474 -14.837 Z M60.784 -7.584 H64.827 L66.041 -8.798 L61.998 -12.842 L60.784 -11.628 V-7.584 Z M79.344 3.499 Q78.399 3.499 77.58 2.679 L68.719 -6.082 L67.672 -5.036 Q67.217 -4.58 66.671 -4.323 Q66.124 -4.064 65.453 -4.064 H60.434 Q59.077 -4.064 58.17 -4.972 Q57.264 -5.878 57.264 -7.236 V-12.255 Q57.264 -12.926 57.521 -13.471 Q57.779 -14.018 58.234 -14.473 L59.282 -15.558 L9.468 -65.569 Q8.687 -66.35 8.668 -67.314 Q8.648 -68.277 9.468 -69.096 Q10.288 -69.915 11.297 -69.915 Q12.308 -69.915 13.094 -69.096 L81.178 -1.012 Q81.988 -0.203 81.957 0.828 Q81.927 1.861 81.107 2.679 Q80.289 3.499 79.344 3.499 Z"/></g><g id="Thin-S" transform="matrix(1 0 0 1 814.015 696)"><path d="M18.997 -10.771 Q16.668 -10.771 15.04 -12.398 Q13.413 -14.026 13.413 -16.355 V-54.105 Q13.413 -56.427 15.082 -58.059 Q16.75 -59.689 19.072 -59.689 H22.123 L35.536 -46.276 H16.569 V-16.355 Q16.569 -15.293 17.251 -14.609 Q17.935 -13.927 18.997 -13.927 H47.522 Q48.196 -13.927 48.649 -13.481 Q49.1 -13.035 49.1 -12.37 Q49.1 -11.704 48.649 -11.237 Q48.196 -10.771 47.522 -10.771 H18.997 Z M81.267 -54.105 V-48.916 Q81.267 -47.862 80.474 -47.069 Q79.681 -46.276 78.627 -46.276 H78.111 H45.618 L32.205 -59.689 H36.643 L40.664 -51.799 Q41.157 -50.714 42.22 -50.073 Q43.284 -49.432 44.51 -49.432 Q46.877 -49.432 48.072 -51.404 Q49.267 -53.377 48.182 -55.547 L46.111 -59.689 H56.338 L60.283 -51.799 Q60.776 -50.714 61.839 -50.073 Q62.902 -49.432 64.129 -49.432 Q66.467 -49.432 67.715 -51.404 Q68.962 -53.377 67.877 -55.547 L65.806 -59.689 H75.683 Q78.081 -59.689 79.674 -58.062 Q81.267 -56.434 81.267 -54.105 Z M75.653 -16.241  67.922 -23.972  77.671 -33.621 Q78.083 -34.049 78.504 -34.185 Q78.923 -34.32 79.331 -34.32 Q79.743 -34.32 80.189 -34.164 Q80.636 -34.009 80.963 -33.697 L85.303 -29.183 Q85.655 -28.771 85.827 -28.352 Q86.001 -27.932 86.001 -27.523 Q86.001 -27.114 85.827 -26.704 Q85.655 -26.295 85.303 -25.891 L75.653 -16.241 Z M60.025 -8.343 H64.069 L66.496 -10.771 L62.452 -14.815 L60.025 -12.386 V-8.343 Z M79.59 1.792 Q79.082 1.792 78.528 1.239 L68.302 -8.889 L66.307 -6.894 Q65.889 -6.477 65.438 -6.257 Q64.986 -6.037 64.391 -6.037 H60.51 Q59.305 -6.037 58.511 -6.83 Q57.718 -7.623 57.718 -8.829 V-12.71 Q57.718 -13.305 57.938 -13.756 Q58.158 -14.208 58.575 -14.625 L60.571 -16.696 L10.947 -66.517 Q10.469 -66.995 10.432 -67.542 Q10.393 -68.087 10.947 -68.641 Q11.502 -69.194 12.076 -69.194 Q12.65 -69.194 13.17 -68.641 L80.724 -1.088 Q81.23 -0.582 81.218 0.051 Q81.206 0.684 80.653 1.239 Q80.098 1.792 79.59 1.792 Z"/></g><g id="Ultralight-S" transform="matrix(1 0 0 1 517.792 696)"><path d="M19.725 -11.954 Q17.555 -11.954 16.076 -13.434 Q14.597 -14.913 14.597 -17.083 V-53.377 Q14.597 -55.517 16.14 -57.011 Q17.683 -58.505 19.824 -58.505 H23.078 L34.124 -47.459 H16.569 V-17.083 Q16.569 -15.702 17.457 -14.815 Q18.344 -13.927 19.725 -13.927 H47.932 Q48.356 -13.927 48.637 -13.652 Q48.918 -13.377 48.918 -12.961 Q48.918 -12.546 48.637 -12.25 Q48.356 -11.954 47.932 -11.954 H19.725 Z M80.084 -53.377 V-49.826 Q80.084 -48.909 79.359 -48.184 Q78.634 -47.459 77.716 -47.459 H78.111 H44.184 L33.138 -58.505 H36.984 L40.436 -51.799 Q40.929 -50.714 41.993 -50.073 Q43.056 -49.432 44.283 -49.432 Q46.65 -49.432 47.833 -51.404 Q49.017 -53.377 47.932 -55.547 L46.452 -58.505 H56.907 L60.26 -51.799 Q60.753 -50.714 61.816 -50.073 Q62.879 -49.432 64.106 -49.432 Q66.445 -49.432 67.691 -51.404 Q68.939 -53.377 67.854 -55.547 L66.375 -58.505 H74.955 Q77.194 -58.505 78.639 -57.026 Q80.084 -55.547 80.084 -53.377 Z M74.561 -17.083  67.854 -23.789  77.716 -33.553 Q78.038 -33.89 78.321 -33.969 Q78.604 -34.046 78.876 -34.046 Q79.128 -34.046 79.449 -33.948 Q79.771 -33.849 79.985 -33.652 L84.324 -29.115 Q84.562 -28.794 84.69 -28.511 Q84.818 -28.228 84.818 -27.955 Q84.818 -27.683 84.69 -27.421 Q84.562 -27.16 84.324 -26.847 L74.561 -17.083 Z M59.57 -8.798 H63.613 L66.769 -11.954 L62.726 -15.998 L59.57 -12.842 V-8.798 Z M79.738 0.768 Q79.492 0.768 79.097 0.374 L68.051 -10.574 L65.487 -8.009 Q65.093 -7.615 64.698 -7.418 Q64.303 -7.22 63.754 -7.22 H60.556 Q59.441 -7.22 58.716 -7.945 Q57.992 -8.67 57.992 -9.785 V-12.983 Q57.992 -13.532 58.189 -13.927 Q58.386 -14.321 58.781 -14.716 L61.345 -17.379 L11.835 -67.086 Q11.539 -67.382 11.49 -67.678 Q11.441 -67.973 11.835 -68.368 Q12.229 -68.762 12.542 -68.762 Q12.854 -68.762 13.216 -68.368 L80.45 -1.133 Q80.774 -0.81 80.774 -0.415 Q80.774 -0.021 80.379 0.374 Q79.985 0.768 79.738 0.768 Z"/></g></g></svg>