<svg xmlns="http://www.w3.org/2000/svg" version="1.1" width="3300" height="2000"><g id="Notes"><style>
    text {
      font-family: monospace;
      text-anchor: middle;
    }
    text.emphasis {
      font-weight:bold;
    }
    text.lanchor {
      text-anchor: start;
    }
  </style><rect height="2200" id="artboard" fill="white" width="3300" x="0" y="0"/><line id="" style="fill:none;stroke:black;stroke-width:0.5;" x1="263" x2="3036" y1="292" y2="292"/><text class="lanchor emphasis" transform="matrix(1 0 0 1 263 322)">Weight/Scale Variations</text><text transform="matrix(1 0 0 1 559.711 322)">Ultralight</text><text transform="matrix(1 0 0 1 856.422 322)">Thin</text><text transform="matrix(1 0 0 1 1153.13 322)">Light</text><text transform="matrix(1 0 0 1 1449.84 322)">Regular</text><text transform="matrix(1 0 0 1 1746.56 322)">Medium</text><text transform="matrix(1 0 0 1 2043.27 322)">Semibold</text><text transform="matrix(1 0 0 1 2339.98 322)">Bold</text><text transform="matrix(1 0 0 1 2636.69 322)">Heavy</text><text transform="matrix(1 0 0 1 2933.4 322)">Black</text><text id="template-version" style="text-anchor: end;" transform="matrix(1 0 0 1 3036 1933)">Template v.1.0</text><text class="lanchor" transform="matrix(1 0 0 1 263 726)">Small</text><text class="lanchor" transform="matrix(1 0 0 1 263 1156)">Medium</text><text class="lanchor" transform="matrix(1 0 0 1 263 1586)">Large</text></g><g id="Guides"><g id="H-reference" style="fill:#27AAE1;stroke:none;" transform="matrix(1 0 0 1 339 696)"><path d="M 54.9316 0 L 57.666 0 L 30.5664 -70.459 L 28.0762 -70.459 L 0.976562 0 L 3.66211 0 L 12.9395 -24.4629 L 45.7031 -24.4629 Z M 29.1992 -67.0898 L 29.4434 -67.0898 L 44.8242 -26.709 L 13.8184 -26.709 Z"/></g><line id="Baseline-S" style="fill:none;stroke:#27AAE1;opacity:1;stroke-width:0.577;" x1="263" x2="3036" y1="696" y2="696"/><line id="Capline-S" style="fill:none;stroke:#27AAE1;opacity:1;stroke-width:0.577;" x1="263" x2="3036" y1="625.541" y2="625.541"/><g id="H-reference" style="fill:#27AAE1;stroke:none;" transform="matrix(1 0 0 1 339 1126)"><path d="M 54.9316 0 L 57.666 0 L 30.5664 -70.459 L 28.0762 -70.459 L 0.976562 0 L 3.66211 0 L 12.9395 -24.4629 L 45.7031 -24.4629 Z M 29.1992 -67.0898 L 29.4434 -67.0898 L 44.8242 -26.709 L 13.8184 -26.709 Z"/></g><line id="Baseline-M" style="fill:none;stroke:#27AAE1;opacity:1;stroke-width:0.577;" x1="263" x2="3036" y1="1126" y2="1126"/><line id="Capline-M" style="fill:none;stroke:#27AAE1;opacity:1;stroke-width:0.577;" x1="263" x2="3036" y1="1055.54" y2="1055.54"/><g id="H-reference" style="fill:#27AAE1;stroke:none;" transform="matrix(1 0 0 1 339 1556)"><path d="M 54.9316 0 L 57.666 0 L 30.5664 -70.459 L 28.0762 -70.459 L 0.976562 0 L 3.66211 0 L 12.9395 -24.4629 L 45.7031 -24.4629 Z M 29.1992 -67.0898 L 29.4434 -67.0898 L 44.8242 -26.709 L 13.8184 -26.709 Z"/></g><line id="Baseline-L" style="fill:none;stroke:#27AAE1;opacity:1;stroke-width:0.577;" x1="263" x2="3036" y1="1556" y2="1556"/><line id="Capline-L" style="fill:none;stroke:#27AAE1;opacity:1;stroke-width:0.577;" x1="263" x2="3036" y1="1485.54" y2="1485.54"/><rect height="119.336" id="left-margin" style="fill:darkred;stroke:none;opacity:0.4;" width="12.4512" x="1394.06" y="1030.79"/><rect height="119.336" id="right-margin" style="fill:darkgreen;stroke:none;opacity:0.4;" width="12.4512" x="1502.5112" y="1030.79"/><rect x="1406.5112" y="1045" width="96" height="96" fill="none" stroke="blue" stroke-dasharray="5"/><rect x="1394.06" y="1030.79" width="120.9024" height="119.336" fill="none" stroke="blue"/></g><g id="Symbols"><g id="Bold-L" transform="matrix(1 0 0 1 2266 1556)"><path d="M135.611 -12.816  140.449 -17.976  134.483 -23.942  129.484 -18.944  135.611 -12.816 Z M132.87 6.695  109.811 -16.364  125.936 -32.489 Q127.71 -34.262 129.887 -35.149 Q132.064 -36.036 134.483 -36.036 Q136.74 -36.036 138.998 -35.069 Q141.255 -34.101 143.029 -32.327 L148.995 -26.361 Q150.769 -24.587 151.656 -22.411 Q152.543 -20.234 152.543 -17.976 Q152.543 -15.557 151.575 -13.3 Q150.608 -11.042 148.834 -9.269 L132.87 6.695 Z M140.61 42.412 Q138.352 42.493 136.579 40.719 L117.713 21.853 L114.81 24.916 Q113.843 25.884 112.633 26.368 Q111.424 26.851 110.134 26.851 H97.234 Q94.009 26.851 91.832 24.674 Q89.655 22.498 89.655 19.273 V6.373 Q89.655 5.083 90.139 3.873 Q90.623 2.664 91.59 1.696 L94.654 -1.367 L3.87 -92.151 Q2.258 -93.764 2.177 -96.102 Q2.096 -98.44 3.87 -100.214 Q5.644 -101.987 7.982 -101.987 Q10.32 -101.987 12.094 -100.214 L144.641 32.334 Q146.254 34.108 146.334 36.446 Q146.415 38.784 144.641 40.558 Q142.868 42.331 140.61 42.412 Z M24.026 20.401 Q17.738 20.401 13.303 16.128 Q8.869 11.855 8.869 5.566 V-75.704 Q8.869 -80.702 11.61 -84.572 Q14.351 -88.442 19.027 -90.055 H22.253 L95.944 -16.364 L84.495 -4.915 Q82.399 -2.819 81.189 0.084 Q79.98 2.986 79.98 6.05 V12.823 Q79.98 16.048 77.722 18.224 Q75.465 20.401 72.24 20.401 H24.026 Z M103.039 -23.136  35.153 -91.022 H47.73 L57.083 -71.834 Q58.373 -69.415 60.791 -67.964 Q63.21 -66.512 65.951 -66.512 Q71.273 -66.512 74.014 -71.108 Q76.755 -75.704 74.498 -80.541 L69.338 -91.022 H94.654 L104.006 -71.834 Q105.296 -69.415 107.634 -67.964 Q109.972 -66.512 112.875 -66.512 Q118.196 -66.512 121.018 -71.027 Q123.84 -75.542 121.421 -80.38 L116.261 -91.022 H130.774 Q137.062 -91.022 141.578 -86.507 Q146.093 -81.992 146.093 -75.704 V-52.484 Q146.093 -49.097 143.432 -47.162 Q140.771 -45.227 137.385 -45.872 Q135.773 -46.034 134.402 -45.953 Q133.031 -45.872 131.741 -45.711 Q128.194 -45.227 125.13 -43.696 Q122.066 -42.164 119.164 -39.261 L103.039 -23.136 Z"/></g><g id="Semibold-L" transform="matrix(1 0 0 1 1970.27 1556)"><path d="M134.349 -13.026  139.678 -18.678  133.712 -24.644  128.221 -19.153  134.349 -13.026 Z M131.467 5.153  109.881 -16.433  125.936 -32.489 Q127.57 -34.122 129.571 -34.904 Q131.574 -35.686 133.712 -35.686 Q135.829 -35.686 137.875 -34.824 Q139.923 -33.961 141.557 -32.327 L147.523 -26.361 Q149.156 -24.728 149.938 -22.727 Q150.72 -20.724 150.72 -18.678 Q150.72 -16.54 149.858 -14.456 Q148.995 -12.374 147.362 -10.741 L131.467 5.153 Z M138.612 39.258 Q136.459 39.338 134.826 37.705 L116.871 19.75 L113.407 23.375 Q112.511 24.271 111.477 24.686 Q110.442 25.098 109.292 25.098 H96.323 Q93.588 25.098 91.763 23.272 Q89.936 21.446 89.936 18.711 V5.742 Q89.936 4.592 90.348 3.557 Q90.763 2.523 91.659 1.627 L95.284 -1.929 L5.832 -91.38 Q4.291 -92.922 4.246 -95.12 Q4.199 -97.318 5.832 -98.951 Q7.466 -100.585 9.664 -100.585 Q11.862 -100.585 13.497 -98.951 L142.398 29.95 Q143.94 31.584 143.987 33.746 Q144.032 35.91 142.398 37.544 Q140.765 39.177 138.612 39.258 Z M23.396 18.648 Q18.158 18.648 14.39 14.972 Q10.622 11.294 10.622 6.056 V-76.334 Q10.622 -80.912 13.398 -84.327 Q16.173 -87.741 20.569 -88.652 H23.794 L96.013 -16.433 L84.074 -4.494 Q82.329 -2.749 81.294 -0.302 Q80.261 2.145 80.261 4.718 V12.261 Q80.261 14.996 78.388 16.822 Q76.516 18.648 73.782 18.648 H23.396 Z M103.108 -23.206  37.115 -89.2 H49.692 L59.045 -70.012 Q60.335 -67.593 62.684 -66.142 Q65.032 -64.69 67.773 -64.69 Q73.025 -64.69 75.767 -69.215 Q78.508 -73.741 76.25 -78.508 L71.019 -89.2 H94.444 L103.797 -70.012 Q105.087 -67.593 107.389 -66.142 Q109.692 -64.69 112.525 -64.69 Q117.775 -64.69 120.562 -69.17 Q123.35 -73.649 121 -78.418 L115.771 -89.2 H131.404 Q136.642 -89.2 140.455 -85.385 Q144.27 -81.572 144.27 -76.334 V-50.942 Q144.27 -48.115 142.064 -46.497 Q139.86 -44.878 137.035 -45.452 Q135.352 -45.684 133.876 -45.637 Q132.401 -45.592 130.97 -45.361 Q127.704 -44.878 124.814 -43.451 Q121.926 -42.023 119.164 -39.261 L103.108 -23.206 Z"/></g><g id="Medium-L" transform="matrix(1 0 0 1 1674.31 1556)"><path d="M133.402 -13.184  139.099 -19.203  133.133 -25.17  127.275 -19.311  133.402 -13.184 Z M130.416 3.996  109.934 -16.486  125.936 -32.489 Q127.465 -34.017 129.335 -34.72 Q131.204 -35.423 133.133 -35.423 Q135.145 -35.423 137.035 -34.64 Q138.923 -33.856 140.452 -32.327 L146.418 -26.361 Q147.947 -24.833 148.65 -22.962 Q149.353 -21.093 149.353 -19.203 Q149.353 -17.275 148.569 -15.324 Q147.786 -13.374 146.257 -11.846 L130.416 3.996 Z M137.114 36.891 Q135.04 36.971 133.512 35.443 L116.24 18.171 L112.356 22.217 Q111.511 23.062 110.609 23.423 Q109.706 23.784 108.662 23.784 H95.639 Q93.272 23.784 91.709 22.22 Q90.145 20.658 90.145 18.29 V5.268 Q90.145 4.223 90.506 3.322 Q90.868 2.419 91.713 1.574 L95.758 -2.35 L7.305 -90.802 Q5.816 -92.292 5.797 -94.385 Q5.778 -96.478 7.305 -98.005 Q8.833 -99.533 10.926 -99.533 Q13.019 -99.533 14.548 -98.005 L140.715 28.162 Q142.205 29.691 142.224 31.723 Q142.243 33.753 140.715 35.281 Q139.186 36.81 137.114 36.891 Z M22.922 17.334 Q18.474 17.334 15.204 14.104 Q11.936 10.873 11.936 6.426 V-76.808 Q11.936 -81.07 14.738 -84.144 Q17.541 -87.215 21.727 -87.601 H24.952 L96.066 -16.486 L83.758 -4.178 Q82.276 -2.696 81.373 -0.59 Q80.47 1.514 80.47 3.718 V11.84 Q80.47 14.208 78.888 15.77 Q77.305 17.334 74.939 17.334 H22.922 Z M103.161 -23.259  38.587 -87.833 H51.165 L60.517 -68.644 Q61.807 -66.225 64.103 -64.774 Q66.4 -63.323 69.141 -63.323 Q74.339 -63.323 77.081 -67.796 Q79.822 -72.269 77.564 -76.982 L72.282 -87.833 H94.286 L103.639 -68.644 Q104.929 -66.225 107.205 -64.774 Q109.482 -63.323 112.262 -63.323 Q117.459 -63.323 120.22 -67.777 Q122.981 -72.23 120.684 -76.945 L115.402 -87.833 H131.878 Q136.326 -87.833 139.615 -84.545 Q142.903 -81.256 142.903 -76.808 V-49.784 Q142.903 -47.38 141.039 -45.997 Q139.176 -44.615 136.772 -45.136 Q135.036 -45.421 133.481 -45.402 Q131.927 -45.382 130.392 -45.098 Q127.334 -44.615 124.579 -43.267 Q121.821 -41.919 119.164 -39.261 L103.161 -23.259 Z"/></g><g id="Regular-L" transform="matrix(1 0 0 1 1378.56 1556)"><path d="M132.709 -13.3  138.675 -19.589  132.709 -25.555  126.581 -19.427  132.709 -13.3 Z M129.645 3.148  109.972 -16.525  125.936 -32.489 Q127.388 -33.94 129.161 -34.585 Q130.935 -35.23 132.709 -35.23 Q134.644 -35.23 136.417 -34.504 Q138.191 -33.779 139.643 -32.327 L145.609 -26.361 Q147.06 -24.91 147.705 -23.136 Q148.35 -21.362 148.35 -19.589 Q148.35 -17.815 147.624 -15.961 Q146.899 -14.106 145.447 -12.655 L129.645 3.148 Z M136.014 35.156 Q133.999 35.236 132.548 33.785 L115.778 17.015 L111.585 21.369 Q110.779 22.175 109.972 22.498 Q109.166 22.82 108.199 22.82 H95.138 Q93.041 22.82 91.671 21.449 Q90.3 20.079 90.3 17.983 V4.921 Q90.3 3.954 90.623 3.148 Q90.945 2.341 91.751 1.535 L96.105 -2.657 L8.385 -90.377 Q6.934 -91.829 6.934 -93.844 Q6.934 -95.86 8.385 -97.311 Q9.836 -98.762 11.852 -98.762 Q13.867 -98.762 15.319 -97.311 L139.481 26.851 Q140.933 28.303 140.933 30.238 Q140.933 32.173 139.481 33.624 Q138.03 35.075 136.014 35.156 Z M22.575 16.37 Q18.705 16.37 15.803 13.468 Q12.9 10.565 12.9 6.695 V-77.155 Q12.9 -81.186 15.722 -84.008 Q18.544 -86.83 22.575 -86.83 H25.8 L96.105 -16.525 L83.528 -3.947 Q82.237 -2.657 81.431 -0.803 Q80.625 1.051 80.625 2.986 V11.533 Q80.625 13.629 79.254 14.999 Q77.884 16.37 75.788 16.37 H22.575 Z M103.2 -23.297  39.668 -86.83 H52.245 L61.598 -67.641 Q62.888 -65.222 65.145 -63.771 Q67.403 -62.32 70.144 -62.32 Q75.304 -62.32 78.045 -66.754 Q80.786 -71.189 78.529 -75.865 L73.207 -86.83 H94.17 L103.523 -67.641 Q104.812 -65.222 107.07 -63.771 Q109.328 -62.32 112.069 -62.32 Q117.229 -62.32 119.97 -66.754 Q122.711 -71.189 120.454 -75.865 L115.133 -86.83 H132.225 Q136.095 -86.83 138.998 -83.927 Q141.9 -81.025 141.9 -77.155 V-48.936 Q141.9 -46.84 140.287 -45.631 Q138.675 -44.421 136.579 -44.905 Q134.805 -45.227 133.192 -45.227 Q131.58 -45.227 129.968 -44.905 Q127.065 -44.421 124.404 -43.131 Q121.744 -41.841 119.164 -39.261 L103.2 -23.297 Z"/></g><g id="Light-L" transform="matrix(1 0 0 1 1082.77 1556)"><path d="M131.469 -14.54  137.435 -20.767  131.469 -26.795  125.341 -20.668  131.469 -14.54 Z M127.35 0.232  110.406 -16.649  126.06 -32.303 Q127.263 -33.443 128.665 -33.964 Q130.066 -34.485 131.469 -34.485 Q132.968 -34.485 134.402 -33.916 Q135.834 -33.345 136.975 -32.203 L142.942 -26.176 Q144.083 -24.971 144.604 -23.57 Q145.125 -22.169 145.125 -20.767 Q145.125 -19.366 144.554 -17.915 Q143.983 -16.464 142.842 -15.261 L127.35 0.232 Z M135.456 32.395 Q133.937 32.445 132.857 31.366 L114.537 13.045 L109.476 18.205 Q108.732 18.95 107.957 19.273 Q107.181 19.595 106.277 19.595 H95.695 Q93.662 19.595 92.353 18.286 Q91.045 16.978 91.045 14.943 V4.363 Q91.045 3.457 91.367 2.683 Q91.69 1.907 92.433 1.163 L97.593 -3.898 L10.867 -90.687 Q9.786 -91.767 9.756 -93.286 Q9.725 -94.805 10.834 -95.916 Q11.945 -97.026 13.464 -97.026 Q14.983 -97.026 16.125 -95.947 L138.117 26.045 Q139.135 27.124 139.165 28.625 Q139.196 30.126 138.086 31.236 Q136.975 32.347 135.456 32.395 Z M25.428 13.145 Q21.62 13.145 18.873 10.397 Q16.125 7.65 16.125 3.842 V-74.302 Q16.125 -78.147 18.886 -80.877 Q21.645 -83.605 25.49 -83.605 H28.406 L94.43 -17.58 L82.1 -5.188 Q80.81 -3.96 80.036 -2.167 Q79.261 -0.376 79.261 1.498 V8.493 Q79.261 10.528 77.951 11.836 Q76.644 13.145 74.609 13.145 H25.428 Z M101.773 -24.6  43.45 -83.605 H54.478 L62.528 -67.145 Q63.757 -64.789 65.982 -63.368 Q68.209 -61.948 70.889 -61.948 Q75.986 -61.948 78.634 -66.29 Q81.283 -70.631 79.087 -75.244 L75.005 -83.605 H94.852 L102.902 -67.145 Q104.13 -64.789 106.357 -63.368 Q108.583 -61.948 111.2 -61.948 Q116.298 -61.948 118.978 -66.29 Q121.657 -70.631 119.462 -75.244 L115.381 -83.605 H129.372 Q133.18 -83.605 135.927 -80.857 Q138.675 -78.11 138.675 -74.302 V-50.052 Q138.675 -48.08 137.156 -46.903 Q135.635 -45.724 133.602 -46.145 Q132.077 -46.406 130.65 -46.376 Q129.223 -46.343 127.858 -46.021 Q125.204 -45.537 122.823 -44.371 Q120.441 -43.205 118.233 -40.998 L101.773 -24.6 Z"/></g><g id="Thin-L" transform="matrix(1 0 0 1 787.282 1556)"><path d="M130.229 -15.78  136.195 -21.946  130.229 -28.035  124.101 -21.908  130.229 -15.78 Z M125.056 -2.682  110.84 -16.773  126.185 -32.116 Q127.139 -32.948 128.17 -33.345 Q129.198 -33.742 130.229 -33.742 Q131.295 -33.742 132.386 -33.326 Q133.478 -32.911 134.308 -32.079 L140.275 -25.989 Q141.107 -25.034 141.503 -24.004 Q141.9 -22.975 141.9 -21.946 Q141.9 -20.916 141.484 -19.868 Q141.07 -18.82 140.238 -17.865 L125.056 -2.682 Z M134.899 29.636 Q133.875 29.654 133.168 28.948 L113.297 9.077 L107.368 15.043 Q106.686 15.725 105.941 16.048 Q105.196 16.37 104.353 16.37 H96.253 Q94.281 16.37 93.035 15.124 Q91.788 13.877 91.788 11.905 V3.805 Q91.788 2.962 92.111 2.217 Q92.433 1.474 93.115 0.79 L99.082 -5.138 L13.347 -90.998 Q12.639 -91.705 12.578 -92.729 Q12.516 -93.751 13.284 -94.52 Q14.053 -95.289 15.077 -95.289 Q16.101 -95.289 16.931 -94.583 L136.753 25.239 Q137.335 25.945 137.398 27.013 Q137.459 28.08 136.69 28.848 Q135.921 29.617 134.899 29.636 Z M28.28 9.92 Q24.534 9.92 21.943 7.327 Q19.35 4.736 19.35 0.99 V-71.45 Q19.35 -75.109 22.048 -77.744 Q24.745 -80.38 28.404 -80.38 H31.01 L92.756 -18.634 L80.675 -6.428 Q79.385 -5.262 78.64 -3.531 Q77.897 -1.801 77.897 0.01 V5.455 Q77.897 7.427 76.65 8.674 Q75.404 9.92 73.43 9.92 H28.28 Z M100.347 -25.902  47.233 -80.38 H56.71 L63.458 -66.65 Q64.624 -64.355 66.819 -62.965 Q69.015 -61.575 71.632 -61.575 Q76.668 -61.575 79.224 -65.824 Q81.778 -70.073 79.645 -74.625 L76.805 -80.38 H95.534 L102.282 -66.65 Q103.448 -64.355 105.643 -62.965 Q107.839 -61.575 110.332 -61.575 Q115.368 -61.575 117.985 -65.824 Q120.602 -70.073 118.469 -74.625 L115.629 -80.38 H126.52 Q130.266 -80.38 132.857 -77.787 Q135.45 -75.196 135.45 -71.45 V-51.17 Q135.45 -49.32 134.023 -48.174 Q132.597 -47.025 130.625 -47.385 Q129.347 -47.585 128.107 -47.522 Q126.867 -47.461 125.751 -47.138 Q123.343 -46.655 121.241 -45.611 Q119.14 -44.57 117.303 -42.735 L100.347 -25.902 Z"/></g><g id="Ultralight-L" transform="matrix(1 0 0 1 491.205 1556)"><path d="M129.484 -16.525  135.45 -22.652  129.484 -28.78  123.356 -22.652  129.484 -16.525 Z M123.679 -4.431  111.101 -16.847  126.259 -32.005 Q127.065 -32.65 127.871 -32.972 Q128.678 -33.295 129.484 -33.295 Q130.29 -33.295 131.177 -32.972 Q132.064 -32.65 132.709 -32.005 L138.675 -25.877 Q139.32 -25.071 139.643 -24.265 Q139.965 -23.459 139.965 -22.652 Q139.965 -21.846 139.643 -21.04 Q139.32 -20.234 138.675 -19.427 L123.679 -4.431 Z M134.563 27.98 Q133.838 27.98 133.354 27.496 L112.553 6.695 L106.103 13.145 Q105.457 13.79 104.732 14.113 Q104.006 14.435 103.2 14.435 H96.589 Q94.654 14.435 93.444 13.226 Q92.235 12.016 92.235 10.081 V3.47 Q92.235 2.664 92.558 1.938 Q92.88 1.213 93.525 0.568 L99.975 -5.882 L14.835 -91.184 Q14.351 -91.667 14.271 -92.393 Q14.19 -93.119 14.754 -93.683 Q15.319 -94.247 16.044 -94.247 Q16.77 -94.247 17.415 -93.764 L135.934 24.755 Q136.256 25.239 136.337 26.045 Q136.417 26.851 135.853 27.416 Q135.289 27.98 134.563 27.98 Z M29.992 7.985 Q26.284 7.985 23.784 5.486 Q21.285 2.986 21.285 -0.722 V-69.737 Q21.285 -73.285 23.946 -75.865 Q26.606 -78.445 30.154 -78.445 H32.572 L91.751 -19.266 L79.819 -7.172 Q78.529 -6.044 77.803 -4.351 Q77.078 -2.657 77.078 -0.884 V3.631 Q77.078 5.566 75.868 6.776 Q74.659 7.985 72.724 7.985 H29.992 Z M99.491 -26.684  49.504 -78.445 H58.05 L64.016 -66.351 Q65.145 -64.094 67.322 -62.723 Q69.499 -61.352 72.079 -61.352 Q77.078 -61.352 79.577 -65.545 Q82.076 -69.737 79.98 -74.252 L77.884 -78.445 H95.944 L101.91 -66.351 Q103.039 -64.094 105.216 -62.723 Q107.392 -61.352 109.811 -61.352 Q114.81 -61.352 117.39 -65.545 Q119.97 -69.737 117.874 -74.252 L115.778 -78.445 H124.808 Q128.516 -78.445 131.016 -75.946 Q133.515 -73.446 133.515 -69.737 V-51.839 Q133.515 -50.065 132.144 -48.936 Q130.774 -47.807 128.839 -48.13 Q127.71 -48.291 126.581 -48.211 Q125.453 -48.13 124.485 -47.807 Q122.228 -47.324 120.293 -46.356 Q118.358 -45.389 116.745 -43.776 L99.491 -26.684 Z"/></g><g id="Bold-M" transform="matrix(1 0 0 1 2281.8 1126)"><path d="M105.875 -17.73  109.25 -21.355  104.625 -25.98  101.125 -22.48  105.875 -17.73 Z M105.75 -3.605  86.875 -22.355  97.625 -33.105 Q99.125 -34.605 100.938 -35.292 Q102.75 -35.98 104.625 -35.98 Q106.625 -35.98 108.438 -35.23 Q110.25 -34.48 111.75 -32.98 L116.375 -28.355 Q117.875 -26.855 118.562 -25.042 Q119.25 -23.23 119.25 -21.355 Q119.25 -19.355 118.562 -17.542 Q117.875 -15.73 116.375 -14.23 L105.75 -3.605 Z M107.438 26.895 Q105 26.895 103.25 25.145 L90.125 12.02 Q89.125 13.02 87.875 13.52 Q86.625 14.02 85.25 14.02 H77.125 Q73.875 14.02 71.562 11.708 Q69.25 9.395 69.25 6.145 V-1.98 Q69.25 -3.355 69.75 -4.605 Q70.25 -5.855 71.25 -6.855 L2 -76.105 Q0.25 -77.855 0.25 -80.292 Q0.25 -82.73 2 -84.48 Q3.75 -86.23 6.188 -86.23 Q8.625 -86.23 10.375 -84.48 L111.625 16.77 Q113.375 18.52 113.375 20.958 Q113.375 23.395 111.625 25.145 Q109.875 26.895 107.438 26.895 Z M21.5 9.02 Q14.875 9.02 10.312 4.583 Q5.75 0.145 5.75 -6.355 V-63.73 Q5.75 -68.855 8.625 -72.855 Q11.5 -76.855 16.25 -78.605 L72.5 -22.23 L63.875 -13.605 Q61.625 -11.355 60.438 -8.48 Q59.25 -5.605 59.25 -2.48 V1.145 Q59.25 4.395 56.938 6.708 Q54.625 9.02 51.375 9.02 H21.5 Z M79.75 -29.48  29.5 -79.48 H39.5 L47.5 -63.355 Q48.5 -61.605 50.188 -60.542 Q51.875 -59.48 53.875 -59.48 Q57.875 -59.48 59.875 -62.855 Q61.875 -66.23 60.125 -69.73 L55.25 -79.48 H71 L79.125 -63.355 Q80 -61.605 81.688 -60.542 Q83.375 -59.48 85.375 -59.48 Q89.375 -59.48 91.375 -62.792 Q93.375 -66.105 91.625 -69.605 L86.625 -79.48 H98.5 Q105.125 -79.48 109.688 -74.917 Q114.25 -70.355 114.25 -63.73 V-52.855 Q114.25 -49.48 111.562 -47.417 Q108.875 -45.355 105.375 -45.855 Q104.375 -45.855 103.375 -45.792 Q102.375 -45.73 101.375 -45.605 Q98.25 -45.105 95.5 -43.792 Q92.75 -42.48 90.5 -40.23 L79.75 -29.48 Z"/></g><g id="Semibold-M" transform="matrix(1 0 0 1 1985.97 1126)"><path d="M104.571 -17.947  108.489 -22.116  103.864 -26.741  99.821 -22.697  104.571 -17.947 Z M104.282 -5.181  86.929 -22.409  97.625 -33.105 Q98.963 -34.442 100.584 -35.047 Q102.206 -35.654 103.864 -35.654 Q105.646 -35.654 107.269 -34.985 Q108.891 -34.317 110.229 -32.98 L114.854 -28.355 Q116.19 -27.017 116.796 -25.396 Q117.403 -23.774 117.403 -22.116 Q117.403 -20.387 116.796 -18.737 Q116.19 -17.089 114.854 -15.751 L104.282 -5.181 Z M105.373 23.689 Q103.097 23.689 101.456 22.048 L89.255 9.846 L88.713 10.39 Q87.821 11.281 86.706 11.726 Q85.593 12.173 84.38 12.173 H76.201 Q73.44 12.173 71.509 10.24 Q69.576 8.308 69.576 5.548 V-2.632 Q69.576 -3.844 70.021 -4.959 Q70.468 -6.072 71.359 -6.964 L71.903 -7.452 L4.011 -75.344 Q2.37 -76.985 2.37 -79.26 Q2.37 -81.535 4.011 -83.176 Q5.652 -84.817 7.926 -84.817 Q10.201 -84.817 11.842 -83.176 L109.289 14.27 Q110.93 15.911 110.93 18.159 Q110.93 20.406 109.289 22.048 Q107.647 23.689 105.373 23.689 Z M20.848 7.173 Q15.31 7.173 11.454 3.388 Q7.598 -0.399 7.598 -5.866 V-64.382 Q7.598 -69.072 10.5 -72.61 Q13.402 -76.149 17.88 -77.137 L72.609 -22.339 L63.44 -13.17 Q61.571 -11.301 60.574 -8.887 Q59.576 -6.475 59.576 -3.839 V0.548 Q59.576 3.308 57.644 5.24 Q55.712 7.173 52.951 7.173 H20.848 Z M79.804 -29.534  31.565 -77.632 H41.565 L49.565 -61.452 Q50.511 -59.702 52.171 -58.667 Q53.831 -57.632 55.778 -57.632 Q59.669 -57.632 61.695 -60.926 Q63.722 -64.219 61.972 -67.665 L56.989 -77.632 H70.782 L78.907 -61.452 Q79.782 -59.702 81.442 -58.667 Q83.104 -57.632 85.049 -57.632 Q88.94 -57.632 90.94 -60.89 Q92.94 -64.149 91.19 -67.594 L86.136 -77.632 H99.153 Q104.69 -77.632 108.546 -73.776 Q112.403 -69.92 112.403 -64.382 V-51.279 Q112.403 -48.447 110.176 -46.711 Q107.951 -44.975 105.049 -45.42 Q103.94 -45.475 102.831 -45.439 Q101.722 -45.404 100.614 -45.225 Q97.761 -44.779 95.174 -43.547 Q92.588 -42.317 90.5 -40.23 L79.804 -29.534 Z"/></g><g id="Medium-M" transform="matrix(1 0 0 1 1689.91 1126)"><path d="M103.593 -18.11  107.919 -22.686  103.294 -27.311  98.843 -22.86  103.593 -18.11 Z M103.183 -6.364  86.97 -22.45  97.625 -33.105 Q98.84 -34.32 100.319 -34.865 Q101.799 -35.409 103.294 -35.409 Q104.912 -35.409 106.392 -34.802 Q107.873 -34.195 109.088 -32.98 L113.713 -28.355 Q114.926 -27.14 115.471 -25.661 Q116.016 -24.181 116.016 -22.686 Q116.016 -21.162 115.471 -19.635 Q114.926 -18.107 113.713 -16.892 L103.183 -6.364 Z M103.824 21.284 Q101.671 21.284 100.111 19.724 L88.604 8.216 L87.653 9.166 Q86.843 9.976 85.83 10.381 Q84.817 10.786 83.729 10.786 H75.509 Q73.114 10.786 71.468 9.14 Q69.821 7.493 69.821 5.099 V-3.121 Q69.821 -4.211 70.225 -5.224 Q70.63 -6.235 71.44 -7.045 L72.391 -7.901 L5.519 -74.774 Q3.959 -76.334 3.959 -78.485 Q3.959 -80.637 5.519 -82.197 Q7.079 -83.757 9.231 -83.757 Q11.384 -83.757 12.943 -82.197 L107.535 12.395 Q109.095 13.955 109.095 16.06 Q109.095 18.164 107.535 19.724 Q105.975 21.284 103.824 21.284 Z M20.359 5.786 Q15.636 5.786 12.31 2.49 Q8.984 -0.806 8.984 -5.499 V-64.871 Q8.984 -69.235 11.906 -72.427 Q14.829 -75.619 19.104 -76.037 L72.69 -22.42 L63.114 -12.844 Q61.53 -11.26 60.675 -9.194 Q59.821 -7.126 59.821 -4.857 V0.099 Q59.821 2.493 58.174 4.14 Q56.528 5.786 54.134 5.786 H20.359 Z M79.845 -29.575  33.114 -76.246 H43.114 L51.114 -60.026 Q52.019 -58.276 53.659 -57.261 Q55.299 -56.246 57.204 -56.246 Q61.014 -56.246 63.061 -59.479 Q65.109 -62.711 63.359 -66.116 L58.294 -76.246 H70.62 L78.745 -60.026 Q79.62 -58.276 81.26 -57.261 Q82.9 -56.246 84.804 -56.246 Q88.614 -56.246 90.614 -59.464 Q92.614 -62.681 90.864 -66.086 L85.769 -76.246 H99.641 Q104.364 -76.246 107.69 -72.92 Q111.016 -69.594 111.016 -64.871 V-50.096 Q111.016 -47.672 109.138 -46.181 Q107.259 -44.689 104.804 -45.094 Q103.614 -45.189 102.424 -45.174 Q101.234 -45.159 100.044 -44.939 Q97.394 -44.534 94.929 -43.365 Q92.465 -42.195 90.5 -40.23 L79.845 -29.575 Z"/></g><g id="Regular-M" transform="matrix(1 0 0 1 1394.06 1126)"><path d="M102.875 -18.23  107.5 -23.105  102.875 -27.73  98.125 -22.98  102.875 -18.23 Z M102.375 -7.23  87 -22.48  97.625 -33.105 Q98.75 -34.23 100.125 -34.73 Q101.5 -35.23 102.875 -35.23 Q104.375 -35.23 105.75 -34.667 Q107.125 -34.105 108.25 -32.98 L112.875 -28.355 Q114 -27.23 114.5 -25.855 Q115 -24.48 115 -23.105 Q115 -21.73 114.5 -20.292 Q114 -18.855 112.875 -17.73 L102.375 -7.23 Z M102.688 19.52 Q100.625 19.52 99.125 18.02 L88.125 7.02 L86.875 8.27 Q86.125 9.02 85.188 9.395 Q84.25 9.77 83.25 9.77 H75 Q72.875 9.77 71.438 8.333 Q70 6.895 70 4.77 V-3.48 Q70 -4.48 70.375 -5.417 Q70.75 -6.355 71.5 -7.105 L72.75 -8.23 L6.625 -74.355 Q5.125 -75.855 5.125 -77.917 Q5.125 -79.98 6.625 -81.48 Q8.125 -82.98 10.188 -82.98 Q12.25 -82.98 13.75 -81.48 L106.25 11.02 Q107.75 12.52 107.75 14.52 Q107.75 16.52 106.25 18.02 Q104.75 19.52 102.688 19.52 Z M20 4.77 Q15.875 4.77 12.938 1.833 Q10 -1.105 10 -5.23 V-65.23 Q10 -69.355 12.938 -72.292 Q15.875 -75.23 20 -75.23 L72.75 -22.48 L62.875 -12.605 Q61.5 -11.23 60.75 -9.417 Q60 -7.605 60 -5.605 V-0.23 Q60 1.895 58.562 3.333 Q57.125 4.77 55 4.77 H20 Z M79.875 -29.605  34.25 -75.23 H44.25 L52.25 -58.98 Q53.125 -57.23 54.75 -56.23 Q56.375 -55.23 58.25 -55.23 Q62 -55.23 64.062 -58.417 Q66.125 -61.605 64.375 -64.98 L59.25 -75.23 H70.5 L78.625 -58.98 Q79.5 -57.23 81.125 -56.23 Q82.75 -55.23 84.625 -55.23 Q88.375 -55.23 90.375 -58.417 Q92.375 -61.605 90.625 -64.98 L85.5 -75.23 H100 Q104.125 -75.23 107.062 -72.292 Q110 -69.355 110 -65.23 V-49.23 Q110 -47.105 108.375 -45.792 Q106.75 -44.48 104.625 -44.855 Q103.375 -44.98 102.125 -44.98 Q100.875 -44.98 99.625 -44.73 Q97.125 -44.355 94.75 -43.23 Q92.375 -42.105 90.5 -40.23 L79.875 -29.605 Z"/></g><g id="Light-M" transform="matrix(1 0 0 1 1098.18 1126)"><path d="M101.914 -19.191  106.539 -24.019  101.914 -28.691  97.164 -23.941  101.914 -19.191 Z M100.067 -9.009  86.856 -22.095  97.721 -32.961 Q98.654 -33.845 99.74 -34.249 Q100.826 -34.652 101.914 -34.652 Q103.076 -34.652 104.188 -34.211 Q105.297 -33.769 106.183 -32.884 L110.808 -28.211 Q111.692 -27.277 112.096 -26.191 Q112.5 -25.105 112.5 -24.019 Q112.5 -22.932 112.12 -21.807 Q111.74 -20.682 110.808 -19.75 L100.067 -9.009 Z M103 17.356 Q101.49 17.356 100.328 16.193 L87.596 3.463 L85.144 5.914 Q84.442 6.616 83.625 6.943 Q82.808 7.27 81.904 7.27 H75.096 Q73.164 7.27 71.87 5.976 Q70.578 4.684 70.578 2.75 V-4.057 Q70.578 -4.961 70.904 -5.777 Q71.231 -6.595 71.933 -7.297 L74.385 -9.672 L8.5 -75.557 Q7.385 -76.672 7.361 -78.206 Q7.336 -79.74 8.5 -80.902 Q9.664 -82.066 11.174 -82.066 Q12.682 -82.066 13.846 -80.902 L105.672 10.924 Q106.789 12.039 106.812 13.534 Q106.836 15.03 105.672 16.193 Q104.51 17.356 103 17.356 Z M21.539 2.27 Q17.75 2.27 15.125 -0.355 Q12.5 -2.98 12.5 -6.769 V-63.691 Q12.5 -67.431 15.174 -70.081 Q17.846 -72.73 21.586 -72.73 H22.02 L71.933 -22.816 L62.25 -13.134 Q61.019 -11.904 60.318 -10.235 Q59.615 -8.566 59.615 -6.759 V-2.25 Q59.615 -0.316 58.322 0.976 Q57.029 2.27 55.096 2.27 H21.539 Z M78.817 -29.652  36.221 -72.73 H44.971 L51.769 -58.98 Q52.644 -57.23 54.269 -56.23 Q55.894 -55.23 57.769 -55.23 Q61.519 -55.23 63.557 -58.417 Q65.596 -61.605 63.846 -64.98 L59.971 -72.73 H71.703 L78.578 -58.98 Q79.453 -57.23 81.078 -56.23 Q82.703 -55.23 84.578 -55.23 Q88.328 -55.23 90.328 -58.417 Q92.328 -61.605 90.578 -64.98 L86.703 -72.73 H98.461 Q102.25 -72.73 104.875 -70.105 Q107.5 -67.48 107.5 -63.691 V-49.182 Q107.5 -47.297 106.043 -46.105 Q104.586 -44.912 102.654 -45.24 Q101.547 -45.365 100.466 -45.34 Q99.385 -45.316 98.279 -45.066 Q96.067 -44.691 94.005 -43.711 Q91.942 -42.73 90.26 -41.047 L78.817 -29.652 Z"/></g><g id="Thin-M" transform="matrix(1 0 0 1 802.565 1126)"><path d="M100.953 -20.152  105.578 -24.932  100.953 -29.652  96.203 -24.902  100.953 -20.152 Z M97.76 -10.787  86.711 -21.711  97.817 -32.816 Q98.558 -33.461 99.356 -33.769 Q100.154 -34.076 100.953 -34.076 Q101.779 -34.076 102.625 -33.754 Q103.471 -33.432 104.115 -32.787 L108.74 -28.066 Q109.385 -27.326 109.692 -26.527 Q110 -25.73 110 -24.932 Q110 -24.134 109.74 -23.321 Q109.481 -22.509 108.74 -21.769 L97.76 -10.787 Z M103.312 15.193 Q102.356 15.193 101.529 14.366 L87.067 -0.095 L83.414 3.559 Q82.76 4.213 82.062 4.491 Q81.365 4.77 80.558 4.77 H75.192 Q73.453 4.77 72.302 3.621 Q71.154 2.473 71.154 0.731 V-4.634 Q71.154 -5.441 71.433 -6.139 Q71.711 -6.836 72.365 -7.49 L76.019 -11.115 L10.375 -76.759 Q9.644 -77.49 9.596 -78.495 Q9.547 -79.499 10.375 -80.326 Q11.203 -81.152 12.159 -81.152 Q13.115 -81.152 13.943 -80.326 L105.096 10.828 Q105.828 11.559 105.875 12.549 Q105.922 13.539 105.096 14.366 Q104.269 15.193 103.312 15.193 Z M23.078 -0.23 Q19.625 -0.23 17.312 -2.542 Q15 -4.855 15 -8.307 V-62.152 Q15 -65.509 17.409 -67.87 Q19.817 -70.23 23.172 -70.23 H24.039 L71.115 -23.152 L61.625 -13.662 Q60.539 -12.576 59.885 -11.052 Q59.231 -9.527 59.231 -7.912 V-4.269 Q59.231 -2.527 58.081 -1.379 Q56.932 -0.23 55.193 -0.23 H23.078 Z M77.76 -29.701  38.193 -70.23 H45.693 L51.289 -58.98 Q52.164 -57.23 53.789 -56.23 Q55.414 -55.23 57.289 -55.23 Q61.039 -55.23 63.053 -58.417 Q65.067 -61.605 63.318 -64.98 L60.693 -70.23 H72.904 L78.529 -58.98 Q79.404 -57.23 81.029 -56.23 Q82.654 -55.23 84.529 -55.23 Q88.279 -55.23 90.279 -58.417 Q92.279 -61.605 90.529 -64.98 L87.904 -70.23 H96.922 Q100.375 -70.23 102.688 -67.917 Q105 -65.605 105 -62.152 V-49.134 Q105 -47.49 103.711 -46.417 Q102.422 -45.345 100.683 -45.624 Q99.721 -45.749 98.808 -45.701 Q97.894 -45.652 96.933 -45.402 Q95.01 -45.027 93.26 -44.191 Q91.51 -43.355 90.019 -41.865 L77.76 -29.701 Z"/></g><g id="Ultralight-M" transform="matrix(1 0 0 1 506.415 1126)"><path d="M100.375 -20.73  105 -25.48  100.375 -30.23  95.625 -25.48  100.375 -20.73 Z M96.375 -11.855  86.625 -21.48  97.875 -32.73 Q98.5 -33.23 99.125 -33.48 Q99.75 -33.73 100.375 -33.73 Q101 -33.73 101.688 -33.48 Q102.375 -33.23 102.875 -32.73 L107.5 -27.98 Q108 -27.355 108.25 -26.73 Q108.5 -26.105 108.5 -25.48 Q108.5 -24.855 108.312 -24.23 Q108.125 -23.605 107.5 -22.98 L96.375 -11.855 Z M103.5 13.895 Q102.875 13.895 102.25 13.27 L86.75 -2.23 L82.375 2.145 Q81.75 2.77 81.125 3.02 Q80.5 3.27 79.75 3.27 H75.25 Q73.625 3.27 72.562 2.208 Q71.5 1.145 71.5 -0.48 V-4.98 Q71.5 -5.73 71.75 -6.355 Q72 -6.98 72.625 -7.605 L77 -11.98 L11.5 -77.48 Q11 -77.98 10.938 -78.667 Q10.875 -79.355 11.5 -79.98 Q12.125 -80.605 12.75 -80.605 Q13.375 -80.605 14 -79.98 L104.75 10.77 Q105.25 11.27 105.312 11.958 Q105.375 12.645 104.75 13.27 Q104.125 13.895 103.5 13.895 Z M24 -1.73 Q20.75 -1.73 18.625 -3.855 Q16.5 -5.98 16.5 -9.23 V-61.23 Q16.5 -64.355 18.75 -66.542 Q21 -68.73 24.125 -68.73 H25.25 L70.625 -23.355 L61.25 -13.98 Q60.25 -12.98 59.625 -11.542 Q59 -10.105 59 -8.605 V-5.48 Q59 -3.855 57.938 -2.792 Q56.875 -1.73 55.25 -1.73 H24 Z M77.125 -29.73  39.375 -68.73 H46.125 L51 -58.98 Q51.875 -57.23 53.5 -56.23 Q55.125 -55.23 57 -55.23 Q60.75 -55.23 62.75 -58.417 Q64.75 -61.605 63 -64.98 L61.125 -68.73 H73.625 L78.5 -58.98 Q79.375 -57.23 81 -56.23 Q82.625 -55.23 84.5 -55.23 Q88.25 -55.23 90.25 -58.417 Q92.25 -61.605 90.5 -64.98 L88.625 -68.73 H96 Q99.25 -68.73 101.375 -66.605 Q103.5 -64.48 103.5 -61.23 V-49.105 Q103.5 -47.605 102.312 -46.605 Q101.125 -45.605 99.5 -45.855 Q98.625 -45.98 97.812 -45.917 Q97 -45.855 96.125 -45.605 Q94.375 -45.23 92.812 -44.48 Q91.25 -43.73 89.875 -42.355 L77.125 -29.73 Z"/></g><g id="Bold-S" transform="matrix(1 0 0 1 2294.23 696)"><path d="M83.141 -21.127  86.593 -24.677  82.155 -29.115  78.703 -25.565  83.141 -21.127 Z M81.957 -10.574  68.051 -24.48  77.519 -33.849 Q78.505 -34.835 79.738 -35.329 Q80.971 -35.822 82.253 -35.822 Q83.535 -35.822 84.768 -35.329 Q86.001 -34.835 86.987 -33.849 L91.327 -29.411 Q92.313 -28.425 92.806 -27.192 Q93.299 -25.959 93.299 -24.677 Q93.299 -23.296 92.806 -22.113 Q92.313 -20.929 91.327 -19.943 L81.957 -10.574 Z M82.845 11.025 Q81.168 11.025 79.886 9.743 L70.714 0.67 L71.602 -0.218 Q70.911 0.472 70.024 0.867 Q69.136 1.261 68.051 1.261 H62.035 Q59.668 1.261 57.942 -0.465 Q56.216 -2.191 56.216 -4.558 V-10.574 Q56.216 -11.659 56.611 -12.546 Q57.005 -13.434 57.696 -14.124 L56.808 -13.335 L4.34 -66.001 Q3.057 -67.283 3.057 -68.96 Q3.057 -70.636 4.34 -71.918 Q5.622 -73.201 7.348 -73.201 Q9.074 -73.201 10.356 -71.918 L85.902 3.628 Q87.184 4.91 87.135 6.686 Q87.086 8.461 85.804 9.743 Q84.522 11.025 82.845 11.025 Z M17.753 -3.473 Q12.92 -3.473 9.517 -6.777 Q6.115 -10.081 6.115 -14.815 V-55.349 Q6.115 -59.097 8.137 -62.007 Q10.158 -64.916 13.61 -66.297 H15.977 L57.794 -24.283 L52.567 -19.055 Q50.792 -17.28 49.954 -15.16 Q49.115 -13.039 49.115 -10.771 V-9.292 Q49.115 -6.925 47.389 -5.199 Q45.663 -3.473 43.296 -3.473 H17.753 Z M63.021 -29.51  25.347 -66.987 H31.757 L37.675 -55.251 Q38.267 -54.166 39.401 -53.476 Q40.535 -52.785 41.817 -52.785 Q44.381 -52.785 45.565 -54.906 Q46.748 -57.026 45.663 -59.294 L41.817 -66.987 H54.836 L60.753 -55.251 Q61.246 -54.166 62.38 -53.476 Q63.515 -52.785 64.797 -52.785 Q67.361 -52.785 68.594 -54.856 Q69.827 -56.927 68.742 -59.196 L64.797 -66.987 H76.928 Q81.859 -66.987 85.212 -63.585 Q88.565 -60.182 88.565 -55.349 V-48.248 Q88.565 -45.881 86.543 -44.353 Q84.522 -42.824 81.957 -43.12 Q81.366 -43.12 80.873 -43.021 Q80.379 -42.923 79.788 -42.824 Q77.618 -42.331 75.843 -41.394 Q74.067 -40.457 72.489 -38.879 L63.021 -29.51 Z"/></g><g id="Semibold-S" transform="matrix(1 0 0 1 1998.1 696)"><path d="M82.112 -21.298  85.992 -25.278  81.554 -29.716  77.674 -25.736  82.112 -21.298 Z M80.8 -11.817  68.094 -24.522  77.519 -33.849 Q78.377 -34.707 79.459 -35.135 Q80.542 -35.564 81.653 -35.564 Q82.763 -35.564 83.846 -35.135 Q84.929 -34.707 85.787 -33.849 L90.126 -29.411 Q90.984 -28.553 91.413 -27.471 Q91.842 -26.388 91.842 -25.278 Q91.842 -24.111 91.413 -23.056 Q90.984 -22.001 90.126 -21.143 L80.8 -11.817 Z M81.216 8.495 Q79.667 8.495 78.471 7.299 L70.028 -1.046 L70.487 -1.504 Q69.883 -0.9 69.102 -0.549 Q68.321 -0.196 67.365 -0.196 H61.306 Q59.325 -0.196 57.9 -1.623 Q56.474 -3.049 56.474 -5.029 V-11.089 Q56.474 -12.044 56.825 -12.825 Q57.177 -13.605 57.781 -14.21 L57.323 -13.807 L5.926 -65.4 Q4.73 -66.597 4.73 -68.145 Q4.73 -69.694 5.926 -70.89 Q7.123 -72.086 8.719 -72.086 Q10.317 -72.086 11.513 -70.89 L84.059 1.656 Q85.255 2.852 85.206 4.477 Q85.157 6.103 83.96 7.299 Q82.764 8.495 81.216 8.495 Z M17.238 -4.93 Q13.263 -4.93 10.418 -7.72 Q7.572 -10.51 7.572 -14.429 V-55.864 Q7.572 -59.269 9.616 -61.813 Q11.659 -64.359 14.896 -65.139 H17.263 L57.88 -24.368 L52.224 -18.712 Q50.749 -17.238 50.061 -15.481 Q49.373 -13.726 49.373 -11.843 V-9.763 Q49.373 -7.783 47.947 -6.357 Q46.521 -4.93 44.54 -4.93 H17.238 Z M63.064 -29.552  26.976 -65.53 H33.387 L39.304 -53.75 Q39.853 -52.665 40.966 -51.996 Q42.078 -51.328 43.318 -51.328 Q45.797 -51.328 47.001 -53.384 Q48.206 -55.439 47.121 -57.665 L43.189 -65.53 H54.664 L60.581 -53.75 Q61.075 -52.665 62.187 -51.996 Q63.3 -51.328 64.539 -51.328 Q67.018 -51.328 68.25 -53.355 Q69.483 -55.384 68.398 -57.609 L64.411 -65.53 H77.442 Q81.516 -65.53 84.312 -62.684 Q87.108 -59.839 87.108 -55.864 V-47.005 Q87.108 -45.067 85.45 -43.796 Q83.793 -42.524 81.7 -42.777 Q81.022 -42.82 80.443 -42.742 Q79.865 -42.665 79.187 -42.524 Q77.232 -42.074 75.585 -41.201 Q73.939 -40.329 72.489 -38.879 L63.064 -29.552 Z"/></g><g id="Medium-S" transform="matrix(1 0 0 1 1701.85 696)"><path d="M81.34 -21.426  85.542 -25.727  81.104 -30.166  76.902 -25.865  81.34 -21.426 Z M79.932 -12.75  68.126 -24.555  77.519 -33.849 Q78.281 -34.611 79.25 -34.991 Q80.221 -35.371 81.203 -35.371 Q82.184 -35.371 83.155 -34.991 Q84.125 -34.611 84.887 -33.849 L89.226 -29.411 Q89.986 -28.65 90.367 -27.68 Q90.748 -26.71 90.748 -25.727 Q90.748 -24.722 90.367 -23.764 Q89.986 -22.805 89.226 -22.044 L79.932 -12.75 Z M79.994 6.598 Q78.542 6.598 77.41 5.466 L69.514 -2.332 L69.651 -2.47 Q69.11 -1.929 68.41 -1.61 Q67.71 -1.29 66.851 -1.29 H60.76 Q59.067 -1.29 57.867 -2.49 Q56.667 -3.692 56.667 -5.383 V-11.474 Q56.667 -12.334 56.986 -13.034 Q57.305 -13.734 57.846 -14.274 L57.708 -14.161 L7.116 -64.951 Q5.984 -66.083 5.984 -67.534 Q5.984 -68.985 7.116 -70.118 Q8.248 -71.25 9.749 -71.25 Q11.25 -71.25 12.381 -70.118 L82.675 0.176 Q83.808 1.309 83.758 2.821 Q83.709 4.333 82.577 5.466 Q81.445 6.598 79.994 6.598 Z M16.852 -6.024 Q13.521 -6.024 11.093 -8.428 Q8.666 -10.831 8.666 -14.139 V-56.25 Q8.666 -59.397 10.725 -61.669 Q12.785 -63.941 15.862 -64.271 H18.229 L57.944 -24.433 L51.966 -18.455 Q50.717 -17.205 50.141 -15.723 Q49.566 -14.24 49.566 -12.647 V-10.117 Q49.566 -8.426 48.365 -7.224 Q47.164 -6.024 45.473 -6.024 H16.852 Z M63.096 -29.585  28.198 -64.436 H34.608 L40.526 -52.624 Q41.043 -51.54 42.14 -50.887 Q43.236 -50.234 44.443 -50.234 Q46.858 -50.234 48.079 -52.242 Q49.3 -54.25 48.215 -56.443 L44.219 -64.436 H54.536 L60.453 -52.624 Q60.946 -51.54 62.043 -50.887 Q63.14 -50.234 64.346 -50.234 Q66.76 -50.234 67.993 -52.23 Q69.226 -54.226 68.141 -56.42 L64.121 -64.436 H77.828 Q81.258 -64.436 83.636 -62.009 Q86.014 -59.581 86.014 -56.25 V-46.072 Q86.014 -44.455 84.63 -43.377 Q83.246 -42.298 81.507 -42.519 Q80.765 -42.594 80.122 -42.533 Q79.479 -42.472 78.737 -42.298 Q76.942 -41.88 75.392 -41.057 Q73.843 -40.232 72.489 -38.879 L63.096 -29.585 Z"/></g><g id="Regular-S" transform="matrix(1 0 0 1 1405.73 696)"><path d="M80.774 -21.521  85.212 -26.058  80.774 -30.496  76.336 -25.959  80.774 -21.521 Z M79.294 -13.434  68.15 -24.578  77.519 -33.849 Q78.21 -34.54 79.097 -34.885 Q79.985 -35.23 80.873 -35.23 Q81.76 -35.23 82.648 -34.885 Q83.535 -34.54 84.226 -33.849 L88.565 -29.411 Q89.256 -28.721 89.601 -27.833 Q89.946 -26.945 89.946 -26.058 Q89.946 -25.17 89.601 -24.283 Q89.256 -23.395 88.565 -22.705 L79.294 -13.434 Z M79.097 5.206 Q77.716 5.206 76.632 4.121 L69.136 -3.275 L69.038 -3.177 Q68.544 -2.684 67.903 -2.388 Q67.262 -2.092 66.473 -2.092 H60.358 Q58.879 -2.092 57.844 -3.128 Q56.808 -4.163 56.808 -5.642 V-11.757 Q56.808 -12.546 57.104 -13.187 Q57.4 -13.828 57.893 -14.321 L57.992 -14.42 L7.989 -64.62 Q6.904 -65.705 6.904 -67.086 Q6.904 -68.467 7.989 -69.551 Q9.074 -70.636 10.504 -70.636 Q11.934 -70.636 13.019 -69.551 L81.662 -0.908 Q82.746 0.176 82.697 1.606 Q82.648 3.037 81.563 4.121 Q80.478 5.206 79.097 5.206 Z M16.569 -6.826 Q13.709 -6.826 11.588 -8.946 Q9.468 -11.067 9.468 -13.927 V-56.533 Q9.468 -59.492 11.539 -61.563 Q13.61 -63.634 16.569 -63.634 H18.936 L57.992 -24.48 L51.778 -18.266 Q50.693 -17.182 50.2 -15.899 Q49.707 -14.617 49.707 -13.237 V-10.376 Q49.707 -8.897 48.671 -7.862 Q47.636 -6.826 46.157 -6.826 H16.569 Z M63.12 -29.608  29.094 -63.634 H35.505 L41.422 -51.799 Q41.916 -50.714 43.001 -50.073 Q44.085 -49.432 45.269 -49.432 Q47.636 -49.432 48.869 -51.404 Q50.102 -53.377 49.017 -55.547 L44.973 -63.634 H54.441 L60.358 -51.799 Q60.852 -50.714 61.937 -50.073 Q63.021 -49.432 64.205 -49.432 Q66.572 -49.432 67.805 -51.404 Q69.038 -53.377 67.953 -55.547 L63.909 -63.634 H78.111 Q81.07 -63.634 83.141 -61.514 Q85.212 -59.393 85.212 -56.533 V-45.388 Q85.212 -44.008 84.029 -43.071 Q82.845 -42.134 81.366 -42.331 Q80.577 -42.43 79.886 -42.38 Q79.196 -42.331 78.407 -42.134 Q76.73 -41.739 75.251 -40.95 Q73.772 -40.161 72.489 -38.879 L63.12 -29.608 Z"/></g><g id="Light-S" transform="matrix(1 0 0 1 1109.75 696)"><path d="M80.015 -22.28  84.454 -26.779  80.015 -31.254  75.577 -26.718  80.015 -22.28 Z M77.474 -14.837  68.036 -24.275  77.595 -33.736 Q78.134 -34.236 78.793 -34.505 Q79.453 -34.774 80.114 -34.774 Q80.735 -34.774 81.415 -34.525 Q82.093 -34.274 82.594 -33.773 L86.934 -29.298 Q87.435 -28.758 87.704 -28.098 Q87.974 -27.439 87.974 -26.779 Q87.974 -26.119 87.723 -25.478 Q87.472 -24.837 86.934 -24.298 L77.474 -14.837 Z M79.344 3.499 Q78.399 3.499 77.58 2.679 L68.719 -6.082 L67.672 -5.036 Q67.217 -4.58 66.671 -4.323 Q66.124 -4.064 65.411 -4.064 H60.434 Q59.107 -4.064 58.185 -4.987 Q57.264 -5.908 57.264 -7.236 V-12.213 Q57.264 -12.926 57.521 -13.471 Q57.779 -14.018 58.234 -14.473 L59.282 -15.558 L9.468 -65.569 Q8.687 -66.35 8.668 -67.314 Q8.648 -68.277 9.468 -69.096 Q10.288 -69.915 11.282 -69.915 Q12.275 -69.915 13.094 -69.096 L81.206 -0.984 Q81.988 -0.203 81.957 0.828 Q81.927 1.861 81.107 2.679 Q80.289 3.499 79.344 3.499 Z M17.783 -8.798 Q15.188 -8.798 13.314 -10.672 Q11.441 -12.546 11.441 -15.141 V-55.319 Q11.441 -57.974 13.304 -59.818 Q15.166 -61.661 17.821 -61.661 H20.53 L57.346 -24.745 L51.285 -18.684 Q50.314 -17.713 49.859 -16.545 Q49.403 -15.376 49.403 -14.147 V-11.97 Q49.403 -10.642 48.482 -9.721 Q47.56 -8.798 46.232 -8.798 H17.783 Z M62.286 -29.646  30.65 -61.661 H36.074 L41.043 -51.799 Q41.536 -50.714 42.621 -50.073 Q43.706 -49.432 44.889 -49.432 Q47.256 -49.432 48.47 -51.404 Q49.684 -53.377 48.599 -55.547 L45.542 -61.661 H55.39 L60.321 -51.799 Q60.814 -50.714 61.899 -50.073 Q62.984 -49.432 64.167 -49.432 Q66.534 -49.432 67.767 -51.404 Q69 -53.377 67.915 -55.547 L64.858 -61.661 H76.897 Q79.59 -61.661 81.415 -59.788 Q83.24 -57.914 83.24 -55.319 V-45.351 Q83.24 -44.16 82.188 -43.317 Q81.138 -42.475 79.81 -42.635 Q79.135 -42.733 78.577 -42.664 Q78.02 -42.596 77.345 -42.399 Q75.896 -42.005 74.663 -41.33 Q73.43 -40.654 72.3 -39.524 L62.286 -29.646 Z"/></g><g id="Thin-S" transform="matrix(1 0 0 1 814.015 696)"><path d="M79.257 -23.038  83.695 -27.5  79.257 -32.013  74.819 -27.476  79.257 -23.038 Z M75.653 -16.241  67.922 -23.972  77.671 -33.621 Q78.058 -33.933 78.491 -34.126 Q78.923 -34.32 79.356 -34.32 Q79.712 -34.32 80.182 -34.164 Q80.653 -34.009 80.963 -33.697 L85.303 -29.183 Q85.614 -28.797 85.808 -28.364 Q86.001 -27.932 86.001 -27.5 Q86.001 -27.067 85.845 -26.672 Q85.69 -26.278 85.303 -25.891 L75.653 -16.241 Z M79.59 1.792 Q79.082 1.792 78.528 1.239 L68.302 -8.889 L66.307 -6.894 Q65.889 -6.477 65.438 -6.257 Q64.986 -6.037 64.349 -6.037 H60.51 Q59.335 -6.037 58.526 -6.845 Q57.718 -7.652 57.718 -8.829 V-12.668 Q57.718 -13.305 57.938 -13.756 Q58.158 -14.208 58.575 -14.625 L60.571 -16.696 L10.947 -66.517 Q10.469 -66.995 10.432 -67.542 Q10.393 -68.087 10.947 -68.641 Q11.502 -69.194 12.059 -69.194 Q12.616 -69.194 13.17 -68.641 L80.751 -1.06 Q81.23 -0.582 81.218 0.051 Q81.206 0.684 80.653 1.239 Q80.098 1.792 79.59 1.792 Z M18.997 -10.771 Q16.668 -10.771 15.04 -12.398 Q13.413 -14.026 13.413 -16.355 V-54.105 Q13.413 -56.457 15.067 -58.074 Q16.721 -59.689 19.072 -59.689 H22.123 L56.701 -25.01 L50.792 -19.101 Q49.935 -18.244 49.518 -17.19 Q49.1 -16.134 49.1 -15.057 V-13.563 Q49.1 -12.386 48.292 -11.579 Q47.484 -10.771 46.308 -10.771 H18.997 Z M61.451 -29.684  32.205 -59.689 H36.643 L40.664 -51.799 Q41.157 -50.714 42.242 -50.073 Q43.327 -49.432 44.51 -49.432 Q46.877 -49.432 48.072 -51.404 Q49.267 -53.377 48.182 -55.547 L46.111 -59.689 H56.338 L60.283 -51.799 Q60.776 -50.714 61.861 -50.073 Q62.945 -49.432 64.129 -49.432 Q66.496 -49.432 67.729 -51.404 Q68.962 -53.377 67.877 -55.547 L65.806 -59.689 H75.683 Q78.111 -59.689 79.689 -58.062 Q81.267 -56.434 81.267 -54.105 V-45.312 Q81.267 -44.311 80.349 -43.564 Q79.431 -42.816 78.255 -42.938 Q77.694 -43.036 77.269 -42.949 Q76.844 -42.862 76.282 -42.664 Q75.062 -42.27 74.075 -41.709 Q73.089 -41.147 72.11 -40.169 L61.451 -29.684 Z"/></g><g id="Ultralight-S" transform="matrix(1 0 0 1 517.792 696)"><path d="M78.801 -23.494  83.24 -27.932  78.801 -32.468  74.363 -27.932  78.801 -23.494 Z M74.561 -17.083  67.854 -23.789  77.716 -33.553 Q78.012 -33.751 78.308 -33.899 Q78.604 -34.046 78.9 -34.046 Q79.097 -34.046 79.442 -33.948 Q79.788 -33.849 79.985 -33.652 L84.324 -29.115 Q84.522 -28.819 84.67 -28.523 Q84.818 -28.228 84.818 -27.932 Q84.818 -27.636 84.719 -27.389 Q84.62 -27.143 84.324 -26.847 L74.561 -17.083 Z M79.738 0.768 Q79.492 0.768 79.097 0.374 L68.051 -10.574 L65.487 -8.009 Q65.093 -7.615 64.698 -7.418 Q64.303 -7.22 63.712 -7.22 H60.556 Q59.471 -7.22 58.731 -7.96 Q57.992 -8.7 57.992 -9.785 V-12.941 Q57.992 -13.532 58.189 -13.927 Q58.386 -14.321 58.781 -14.716 L61.345 -17.379 L11.835 -67.086 Q11.539 -67.382 11.49 -67.678 Q11.441 -67.973 11.835 -68.368 Q12.229 -68.762 12.525 -68.762 Q12.821 -68.762 13.216 -68.368 L80.478 -1.106 Q80.774 -0.81 80.774 -0.415 Q80.774 -0.021 80.379 0.374 Q79.985 0.768 79.738 0.768 Z M19.725 -11.954 Q17.555 -11.954 16.076 -13.434 Q14.597 -14.913 14.597 -17.083 V-53.377 Q14.597 -55.547 16.125 -57.026 Q17.654 -58.505 19.824 -58.505 H23.078 L56.315 -25.17 L50.496 -19.351 Q49.707 -18.562 49.312 -17.576 Q48.918 -16.59 48.918 -15.604 V-14.519 Q48.918 -13.434 48.178 -12.694 Q47.439 -11.954 46.354 -11.954 H19.725 Z M60.95 -29.707  33.138 -58.505 H36.984 L40.436 -51.799 Q40.929 -50.714 42.014 -50.073 Q43.099 -49.432 44.283 -49.432 Q46.65 -49.432 47.833 -51.404 Q49.017 -53.377 47.932 -55.547 L46.452 -58.505 H56.907 L60.26 -51.799 Q60.753 -50.714 61.838 -50.073 Q62.923 -49.432 64.106 -49.432 Q66.473 -49.432 67.706 -51.404 Q68.939 -53.377 67.854 -55.547 L66.375 -58.505 H74.955 Q77.223 -58.505 78.653 -57.026 Q80.084 -55.547 80.084 -53.377 V-45.29 Q80.084 -44.402 79.245 -43.712 Q78.407 -43.021 77.322 -43.12 Q76.829 -43.219 76.484 -43.12 Q76.139 -43.021 75.645 -42.824 Q74.561 -42.43 73.722 -41.936 Q72.884 -41.443 71.996 -40.556 L60.95 -29.707 Z"/></g></g></svg>