<svg xmlns="http://www.w3.org/2000/svg" version="1.1" width="3300" height="2000"><g id="Notes"><style>
    text {
      font-family: monospace;
      text-anchor: middle;
    }
    text.emphasis {
      font-weight:bold;
    }
    text.lanchor {
      text-anchor: start;
    }
  </style><rect height="2200" id="artboard" fill="white" width="3300" x="0" y="0"/><line id="" style="fill:none;stroke:black;stroke-width:0.5;" x1="263" x2="3036" y1="292" y2="292"/><text class="lanchor emphasis" transform="matrix(1 0 0 1 263 322)">Weight/Scale Variations</text><text transform="matrix(1 0 0 1 559.711 322)">Ultralight</text><text transform="matrix(1 0 0 1 856.422 322)">Thin</text><text transform="matrix(1 0 0 1 1153.13 322)">Light</text><text transform="matrix(1 0 0 1 1449.84 322)">Regular</text><text transform="matrix(1 0 0 1 1746.56 322)">Medium</text><text transform="matrix(1 0 0 1 2043.27 322)">Semibold</text><text transform="matrix(1 0 0 1 2339.98 322)">Bold</text><text transform="matrix(1 0 0 1 2636.69 322)">Heavy</text><text transform="matrix(1 0 0 1 2933.4 322)">Black</text><text id="template-version" style="text-anchor: end;" transform="matrix(1 0 0 1 3036 1933)">Template v.1.0</text><text class="lanchor" transform="matrix(1 0 0 1 263 726)">Small</text><text class="lanchor" transform="matrix(1 0 0 1 263 1156)">Medium</text><text class="lanchor" transform="matrix(1 0 0 1 263 1586)">Large</text></g><g id="Guides"><g id="H-reference" style="fill:#27AAE1;stroke:none;" transform="matrix(1 0 0 1 339 696)"><path d="M 54.9316 0 L 57.666 0 L 30.5664 -70.459 L 28.0762 -70.459 L 0.976562 0 L 3.66211 0 L 12.9395 -24.4629 L 45.7031 -24.4629 Z M 29.1992 -67.0898 L 29.4434 -67.0898 L 44.8242 -26.709 L 13.8184 -26.709 Z"/></g><line id="Baseline-S" style="fill:none;stroke:#27AAE1;opacity:1;stroke-width:0.577;" x1="263" x2="3036" y1="696" y2="696"/><line id="Capline-S" style="fill:none;stroke:#27AAE1;opacity:1;stroke-width:0.577;" x1="263" x2="3036" y1="625.541" y2="625.541"/><g id="H-reference" style="fill:#27AAE1;stroke:none;" transform="matrix(1 0 0 1 339 1126)"><path d="M 54.9316 0 L 57.666 0 L 30.5664 -70.459 L 28.0762 -70.459 L 0.976562 0 L 3.66211 0 L 12.9395 -24.4629 L 45.7031 -24.4629 Z M 29.1992 -67.0898 L 29.4434 -67.0898 L 44.8242 -26.709 L 13.8184 -26.709 Z"/></g><line id="Baseline-M" style="fill:none;stroke:#27AAE1;opacity:1;stroke-width:0.577;" x1="263" x2="3036" y1="1126" y2="1126"/><line id="Capline-M" style="fill:none;stroke:#27AAE1;opacity:1;stroke-width:0.577;" x1="263" x2="3036" y1="1055.54" y2="1055.54"/><g id="H-reference" style="fill:#27AAE1;stroke:none;" transform="matrix(1 0 0 1 339 1556)"><path d="M 54.9316 0 L 57.666 0 L 30.5664 -70.459 L 28.0762 -70.459 L 0.976562 0 L 3.66211 0 L 12.9395 -24.4629 L 45.7031 -24.4629 Z M 29.1992 -67.0898 L 29.4434 -67.0898 L 44.8242 -26.709 L 13.8184 -26.709 Z"/></g><line id="Baseline-L" style="fill:none;stroke:#27AAE1;opacity:1;stroke-width:0.577;" x1="263" x2="3036" y1="1556" y2="1556"/><line id="Capline-L" style="fill:none;stroke:#27AAE1;opacity:1;stroke-width:0.577;" x1="263" x2="3036" y1="1485.54" y2="1485.54"/><rect height="119.336" id="left-margin" style="fill:darkred;stroke:none;opacity:0.4;" width="12.4512" x="1394.06" y="1030.79"/><rect height="119.336" id="right-margin" style="fill:darkgreen;stroke:none;opacity:0.4;" width="12.4512" x="1502.5112" y="1030.79"/><rect x="1406.5112" y="1045" width="96" height="96" fill="none" stroke="blue" stroke-dasharray="5"/><rect x="1394.06" y="1030.79" width="120.9024" height="119.336" fill="none" stroke="blue"/></g><g id="Symbols"><g id="Bold-L" transform="matrix(1 0 0 1 2266 1556)"><path d="M117.874 -103.922 Q124.237 -103.922 128.715 -99.445 Q133.192 -94.967 133.192 -88.604 V18.144 Q133.192 24.441 128.715 28.872 Q124.237 33.301 117.874 33.301 H36.926 Q30.629 33.301 26.2 28.872 Q21.769 24.441 21.769 18.144 V-88.604 Q21.769 -94.967 26.2 -99.445 Q30.629 -103.922 36.926 -103.922 H117.874 Z M117.874 -88.604 H36.926 Q36.926 -88.604 36.926 -88.604 Q36.926 -88.604 36.926 -88.604 V18.144 Q36.926 18.144 36.926 18.144 Q36.926 18.144 36.926 18.144 H117.874 Q117.874 18.144 117.874 18.144 Q117.874 18.144 117.874 18.144 V-88.604 Q117.874 -88.604 117.874 -88.604 Q117.874 -88.604 117.874 -88.604 Z M105.619 -65.384 H49.181 V-5.56 H105.619 V-65.384 Z M90.461 -50.065 V-29.586 H64.5 V-50.065 H90.461 Z M77.485 1.858 Q75.638 1.858 74.422 3.101 Q73.207 4.344 73.207 6.245 Q73.207 8.146 74.42 9.436 Q75.633 10.726 77.485 10.726 Q79.335 10.726 80.625 9.439 Q81.915 8.154 81.915 6.302 Q81.915 4.449 80.625 3.152 Q79.335 1.858 77.485 1.858 Z M77.485 -81.509 Q75.638 -81.509 74.422 -80.266 Q73.207 -79.022 73.207 -77.121 Q73.207 -75.22 74.42 -73.93 Q75.633 -72.64 77.485 -72.64 Q79.335 -72.64 80.625 -73.927 Q81.915 -75.212 81.915 -77.065 Q81.915 -78.917 80.625 -80.214 Q79.335 -81.509 77.485 -81.509 Z"/></g><g id="Semibold-L" transform="matrix(1 0 0 1 1970.27 1556)"><path d="M118.504 -102.1 Q123.784 -102.1 127.576 -98.306 Q131.37 -94.514 131.37 -89.234 V18.774 Q131.37 24.016 127.576 27.783 Q123.784 31.548 118.504 31.548 H36.296 Q31.054 31.548 27.287 27.783 Q23.522 24.016 23.522 18.774 V-89.234 Q23.522 -94.514 27.287 -98.306 Q31.054 -102.1 36.296 -102.1 H118.504 Z M118.504 -89.234 H36.296 Q36.296 -89.234 36.296 -89.234 Q36.296 -89.234 36.296 -89.234 V18.774 Q36.296 18.774 36.296 18.774 Q36.296 18.774 36.296 18.774 H118.504 Q118.504 18.774 118.504 18.774 Q118.504 18.774 118.504 18.774 V-89.234 Q118.504 -89.234 118.504 -89.234 Q118.504 -89.234 118.504 -89.234 Z M104.216 -65.945 H50.653 V-4.859 H104.216 V-65.945 Z M91.443 -53.079 V-28.395 H63.518 V-53.079 H91.443 Z M77.485 3.049 Q75.847 3.049 74.773 4.139 Q73.698 5.231 73.698 6.898 Q73.698 8.567 74.772 9.717 Q75.846 10.867 77.485 10.867 Q79.125 10.867 80.275 9.718 Q81.425 8.57 81.425 6.93 Q81.425 5.291 80.275 4.17 Q79.125 3.049 77.485 3.049 Z M77.485 -81.578 Q75.847 -81.578 74.773 -80.488 Q73.698 -79.398 73.698 -77.729 Q73.698 -76.062 74.772 -74.912 Q75.846 -73.762 77.485 -73.762 Q79.125 -73.762 80.275 -74.909 Q81.425 -76.057 81.425 -77.697 Q81.425 -79.338 80.275 -80.459 Q79.125 -81.578 77.485 -81.578 Z"/></g><g id="Medium-L" transform="matrix(1 0 0 1 1674.31 1556)"><path d="M118.978 -100.733 Q123.445 -100.733 126.723 -97.453 Q130.003 -94.175 130.003 -89.708 V19.248 Q130.003 23.699 126.723 26.966 Q123.445 30.234 118.978 30.234 H35.822 Q31.371 30.234 28.104 26.966 Q24.836 23.699 24.836 19.248 V-89.708 Q24.836 -94.175 28.104 -97.453 Q31.371 -100.733 35.822 -100.733 H118.978 Z M118.978 -89.708 H35.822 Q35.822 -89.708 35.822 -89.708 Q35.822 -89.708 35.822 -89.708 V19.248 Q35.822 19.248 35.822 19.248 Q35.822 19.248 35.822 19.248 H118.978 Q118.978 19.248 118.978 19.248 Q118.978 19.248 118.978 19.248 V-89.708 Q118.978 -89.708 118.978 -89.708 Q118.978 -89.708 118.978 -89.708 Z M103.165 -66.366 H51.758 V-4.333 H103.165 V-66.366 Z M92.179 -55.341 V-27.501 H62.783 V-55.341 H92.179 Z M77.485 3.942 Q76.005 3.942 75.036 4.92 Q74.067 5.895 74.067 7.388 Q74.067 8.883 75.036 9.926 Q76.004 10.971 77.485 10.971 Q78.967 10.971 80.012 9.928 Q81.056 8.885 81.056 7.403 Q81.056 5.921 80.012 4.933 Q78.967 3.942 77.485 3.942 Z M77.485 -81.631 Q76.005 -81.631 75.036 -80.656 Q74.067 -79.679 74.067 -78.185 Q74.067 -76.692 75.036 -75.647 Q76.004 -74.602 77.485 -74.602 Q78.967 -74.602 80.012 -75.647 Q81.056 -76.691 81.056 -78.172 Q81.056 -79.654 80.012 -80.643 Q78.967 -81.631 77.485 -81.631 Z"/></g><g id="Regular-L" transform="matrix(1 0 0 1 1378.56 1556)"><path d="M119.325 -99.73 Q123.195 -99.73 126.097 -96.827 Q129 -93.925 129 -90.055 V19.595 Q129 23.465 126.097 26.368 Q123.195 29.27 119.325 29.27 H35.475 Q31.605 29.27 28.703 26.368 Q25.8 23.465 25.8 19.595 V-90.055 Q25.8 -93.925 28.703 -96.827 Q31.605 -99.73 35.475 -99.73 H119.325 Z M119.325 -90.055 H35.475 Q35.475 -90.055 35.475 -90.055 Q35.475 -90.055 35.475 -90.055 V19.595 Q35.475 19.595 35.475 19.595 Q35.475 19.595 35.475 19.595 H119.325 Q119.325 19.595 119.325 19.595 Q119.325 19.595 119.325 19.595 V-90.055 Q119.325 -90.055 119.325 -90.055 Q119.325 -90.055 119.325 -90.055 Z M102.394 -66.674 H52.568 V-3.947 H102.394 V-66.674 Z M92.719 -56.999 V-26.845 H62.242 V-56.999 H92.719 Z M77.485 4.599 Q76.121 4.599 75.228 5.49 Q74.336 6.384 74.336 7.748 Q74.336 9.114 75.228 10.081 Q76.121 11.049 77.485 11.049 Q78.851 11.049 79.819 10.081 Q80.786 9.114 80.786 7.748 Q80.786 6.384 79.819 5.49 Q78.851 4.599 77.485 4.599 Z M77.485 -81.67 Q76.121 -81.67 75.228 -80.778 Q74.336 -79.885 74.336 -78.521 Q74.336 -77.155 75.228 -76.187 Q76.121 -75.22 77.485 -75.22 Q78.851 -75.22 79.819 -76.187 Q80.786 -77.155 80.786 -78.521 Q80.786 -79.885 79.819 -80.778 Q78.851 -81.67 77.485 -81.67 Z"/></g><g id="Light-L" transform="matrix(1 0 0 1 1082.77 1556)"><path d="M116.534 -96.505 Q120.328 -96.505 123.082 -93.751 Q125.836 -90.997 125.836 -87.202 V16.742 Q125.836 20.537 123.082 23.291 Q120.328 26.045 116.534 26.045 H38.328 Q34.533 26.045 31.779 23.291 Q29.025 20.537 29.025 16.742 V-87.202 Q29.025 -90.997 31.779 -93.751 Q34.533 -96.505 38.328 -96.505 H116.534 Z M116.472 -89.186 H38.266 Q37.397 -89.186 36.839 -88.628 Q36.281 -88.07 36.281 -87.202 V16.742 Q36.281 17.61 36.839 18.168 Q37.397 18.726 38.266 18.726 H116.472 Q117.34 18.726 117.93 18.168 Q118.519 17.61 118.519 16.742 L118.456 -87.202 Q118.456 -88.07 117.898 -88.628 Q117.34 -89.186 116.472 -89.186 Z M100.409 -64.627 H54.677 V-6.057 H100.409 V-64.627 Z M93.091 -57.308 V-26.1 H61.994 V-57.308 H93.091 Z M77.424 2.923 Q76.06 2.923 75.073 3.91 Q74.088 4.895 74.088 6.26 Q74.088 7.75 75.073 8.748 Q76.06 9.746 77.424 9.746 Q78.913 9.746 79.912 8.748 Q80.91 7.75 80.91 6.26 Q80.91 4.895 79.912 3.91 Q78.913 2.923 77.424 2.923 Z M77.424 -80.367 Q76.06 -80.367 75.073 -79.414 Q74.088 -78.461 74.088 -77.031 Q74.088 -75.542 75.073 -74.512 Q76.06 -73.483 77.424 -73.483 Q78.913 -73.483 79.912 -74.512 Q80.91 -75.542 80.91 -77 Q80.91 -78.458 79.912 -79.412 Q78.913 -80.367 77.424 -80.367 Z"/></g><g id="Thin-L" transform="matrix(1 0 0 1 787.282 1556)"><path d="M113.743 -93.28 Q117.461 -93.28 120.068 -90.674 Q122.674 -88.067 122.674 -84.35 V13.89 Q122.674 17.607 120.068 20.214 Q117.461 22.82 113.743 22.82 H41.18 Q37.463 22.82 34.856 20.214 Q32.25 17.607 32.25 13.89 V-84.35 Q32.25 -88.067 34.856 -90.674 Q37.463 -93.28 41.18 -93.28 H113.743 Z M113.62 -88.318 H41.057 Q39.321 -88.318 38.203 -87.202 Q37.087 -86.085 37.087 -84.35 V13.89 Q37.087 15.625 38.203 16.742 Q39.321 17.858 41.057 17.858 H113.62 Q115.355 17.858 116.534 16.742 Q117.713 15.625 117.713 13.89 L117.588 -84.35 Q117.588 -86.085 116.472 -87.202 Q115.355 -88.318 113.62 -88.318 Z M98.424 -62.581 H56.784 V-8.164 H98.424 V-62.581 Z M93.464 -57.62 V-25.357 H61.746 V-57.62 H93.464 Z M77.363 1.25 Q75.997 1.25 74.918 2.328 Q73.84 3.407 73.84 4.771 Q73.84 6.385 74.918 7.414 Q75.997 8.445 77.363 8.445 Q78.975 8.445 80.004 7.414 Q81.035 6.385 81.035 4.771 Q81.035 3.407 80.004 2.328 Q78.975 1.25 77.363 1.25 Z M77.363 -79.066 Q75.997 -79.066 74.918 -78.05 Q73.84 -77.036 73.84 -75.542 Q73.84 -73.93 74.918 -72.838 Q75.997 -71.747 77.363 -71.747 Q78.975 -71.747 80.004 -72.838 Q81.035 -73.93 81.035 -75.481 Q81.035 -77.032 80.004 -78.048 Q78.975 -79.066 77.363 -79.066 Z"/></g><g id="Ultralight-L" transform="matrix(1 0 0 1 491.205 1556)"><path d="M112.069 -91.345 Q115.742 -91.345 118.259 -88.828 Q120.776 -86.311 120.776 -82.637 V12.178 Q120.776 15.849 118.259 18.368 Q115.742 20.885 112.069 20.885 H42.892 Q39.221 20.885 36.702 18.368 Q34.185 15.849 34.185 12.178 V-82.637 Q34.185 -86.311 36.702 -88.828 Q39.221 -91.345 42.892 -91.345 H112.069 Z M111.907 -87.797 H42.731 Q40.474 -87.797 39.023 -86.346 Q37.571 -84.895 37.571 -82.637 V12.178 Q37.571 14.435 39.023 15.886 Q40.474 17.338 42.731 17.338 H111.907 Q114.165 17.338 115.697 15.886 Q117.229 14.435 117.229 12.178 L117.068 -82.637 Q117.068 -84.895 115.616 -86.346 Q114.165 -87.797 111.907 -87.797 Z M97.234 -61.352 H58.05 V-9.43 H97.234 V-61.352 Z M93.686 -57.805 V-24.91 H61.598 V-57.805 H93.686 Z M77.324 0.245 Q75.96 0.245 74.825 1.379 Q73.691 2.514 73.691 3.878 Q73.691 5.566 74.825 6.614 Q75.96 7.663 77.324 7.663 Q79.013 7.663 80.061 6.614 Q81.109 5.566 81.109 3.878 Q81.109 2.514 80.061 1.379 Q79.013 0.245 77.324 0.245 Z M77.324 -78.284 Q75.96 -78.284 74.825 -77.232 Q73.691 -76.181 73.691 -74.651 Q73.691 -72.962 74.825 -71.834 Q75.96 -70.705 77.324 -70.705 Q79.013 -70.705 80.061 -71.834 Q81.109 -72.962 81.109 -74.57 Q81.109 -76.176 80.061 -77.231 Q79.013 -78.284 77.324 -78.284 Z"/></g><g id="Bold-M" transform="matrix(1 0 0 1 2281.8 1126)"><path d="M88.5 -89.48 Q95.125 -89.48 99.688 -84.917 Q104.25 -80.355 104.25 -73.73 V3.27 Q104.25 9.895 99.688 14.458 Q95.125 19.02 88.5 19.02 H31.5 Q24.875 19.02 20.312 14.458 Q15.75 9.895 15.75 3.27 V-73.73 Q15.75 -80.355 20.312 -84.917 Q24.875 -89.48 31.5 -89.48 H88.5 Z M88.5 -73.73 H31.5 Q31.5 -73.73 31.5 -73.73 Q31.5 -73.73 31.5 -73.73 V3.27 Q31.5 3.27 31.5 3.27 Q31.5 3.27 31.5 3.27 H88.5 Q88.5 3.27 88.5 3.27 Q88.5 3.27 88.5 3.27 V-73.73 Q88.5 -73.73 88.5 -73.73 Q88.5 -73.73 88.5 -73.73 Z M83.375 -58.855 H36.5 V-11.855 H83.375 V-58.855 Z M67.625 -43.105 V-33.105 H52.25 V-43.105 H67.625 Z M59.938 -9.23 Q57.875 -9.23 56.5 -7.821 Q55.125 -6.414 55.125 -4.259 Q55.125 -2.105 56.506 -0.667 Q57.888 0.77 60 0.77 Q62 0.77 63.438 -0.639 Q64.875 -2.046 64.875 -4.201 Q64.875 -6.355 63.438 -7.792 Q62 -9.23 59.938 -9.23 Z M59.938 -71.23 Q57.875 -71.23 56.5 -69.821 Q55.125 -68.414 55.125 -66.259 Q55.125 -64.105 56.506 -62.73 Q57.888 -61.355 60 -61.355 Q62 -61.355 63.438 -62.739 Q64.875 -64.122 64.875 -66.239 Q64.875 -68.355 63.438 -69.792 Q62 -71.23 59.938 -71.23 Z"/></g><g id="Semibold-M" transform="matrix(1 0 0 1 1985.97 1126)"><path d="M89.153 -87.632 Q94.69 -87.632 98.546 -83.776 Q102.403 -79.92 102.403 -74.382 V3.923 Q102.403 9.46 98.546 13.316 Q94.69 17.173 89.153 17.173 H30.848 Q25.31 17.173 21.454 13.316 Q17.598 9.46 17.598 3.923 V-74.382 Q17.598 -79.92 21.454 -83.776 Q25.31 -87.632 30.848 -87.632 H89.153 Z M89.153 -74.382 H30.848 Q30.848 -74.382 30.848 -74.382 Q30.848 -74.382 30.848 -74.382 V3.923 Q30.848 3.923 30.848 3.923 Q30.848 3.923 30.848 3.923 H89.153 Q89.153 3.923 89.153 3.923 Q89.153 3.923 89.153 3.923 V-74.382 Q89.153 -74.382 89.153 -74.382 Q89.153 -74.382 89.153 -74.382 Z M81.907 -59.452 H38.021 V-11.149 H81.907 V-59.452 Z M68.657 -46.202 V-31.855 H51.271 V-46.202 H68.657 Z M59.965 -8.035 Q58.093 -8.035 56.854 -6.776 Q55.614 -5.519 55.614 -3.594 Q55.614 -1.67 56.856 -0.396 Q58.1 0.879 60 0.879 Q61.837 0.879 63.111 -0.379 Q64.386 -1.637 64.386 -3.561 Q64.386 -5.485 63.111 -6.76 Q61.837 -8.035 59.965 -8.035 Z M59.965 -71.339 Q58.093 -71.339 56.854 -70.081 Q55.614 -68.822 55.614 -66.899 Q55.614 -64.975 56.856 -63.735 Q58.1 -62.496 60 -62.496 Q61.837 -62.496 63.111 -63.74 Q64.386 -64.984 64.386 -66.887 Q64.386 -68.79 63.111 -70.064 Q61.837 -71.339 59.965 -71.339 Z"/></g><g id="Medium-M" transform="matrix(1 0 0 1 1689.91 1126)"><path d="M89.641 -86.246 Q94.364 -86.246 97.69 -82.92 Q101.016 -79.594 101.016 -74.871 V4.411 Q101.016 9.134 97.69 12.46 Q94.364 15.786 89.641 15.786 H30.359 Q25.636 15.786 22.31 12.46 Q18.984 9.134 18.984 4.411 V-74.871 Q18.984 -79.594 22.31 -82.92 Q25.636 -86.246 30.359 -86.246 H89.641 Z M89.641 -74.871 H30.359 Q30.359 -74.871 30.359 -74.871 Q30.359 -74.871 30.359 -74.871 V4.411 Q30.359 4.411 30.359 4.411 Q30.359 4.411 30.359 4.411 H89.641 Q89.641 4.411 89.641 4.411 Q89.641 4.411 89.641 4.411 V-74.871 Q89.641 -74.871 89.641 -74.871 Q89.641 -74.871 89.641 -74.871 Z M80.808 -59.901 H39.163 V-10.619 H80.808 V-59.901 Z M69.433 -48.526 V-30.917 H50.538 V-48.526 H69.433 Z M59.985 -7.137 Q58.255 -7.137 57.119 -5.992 Q55.981 -4.847 55.981 -3.096 Q55.981 -1.344 57.12 -0.192 Q58.259 0.96 60 0.96 Q61.715 0.96 62.866 -0.185 Q64.019 -1.33 64.019 -3.081 Q64.019 -4.834 62.866 -5.985 Q61.715 -7.137 59.985 -7.137 Z M59.985 -71.42 Q58.255 -71.42 57.119 -70.275 Q55.981 -69.13 55.981 -67.379 Q55.981 -65.626 57.12 -64.49 Q58.259 -63.352 60 -63.352 Q61.715 -63.352 62.866 -64.491 Q64.019 -65.631 64.019 -67.374 Q64.019 -69.116 62.866 -70.267 Q61.715 -71.42 59.985 -71.42 Z"/></g><g id="Regular-M" transform="matrix(1 0 0 1 1394.06 1126)"><path d="M90 -85.23 Q94.125 -85.23 97.062 -82.292 Q100 -79.355 100 -75.23 V4.77 Q100 8.895 97.062 11.833 Q94.125 14.77 90 14.77 H30 Q25.875 14.77 22.938 11.833 Q20 8.895 20 4.77 V-75.23 Q20 -79.355 22.938 -82.292 Q25.875 -85.23 30 -85.23 H90 Z M90 -75.23 H30 Q30 -75.23 30 -75.23 Q30 -75.23 30 -75.23 V4.77 Q30 4.77 30 4.77 Q30 4.77 30 4.77 H90 Q90 4.77 90 4.77 Q90 4.77 90 4.77 V-75.23 Q90 -75.23 90 -75.23 Q90 -75.23 90 -75.23 Z M80 -60.23 H40 V-10.23 H80 V-60.23 Z M70 -50.23 V-30.23 H50 V-50.23 H70 Z M60 -6.48 Q58.375 -6.48 57.312 -5.417 Q56.25 -4.355 56.25 -2.73 Q56.25 -1.105 57.312 -0.042 Q58.375 1.02 60 1.02 Q61.625 1.02 62.688 -0.042 Q63.75 -1.105 63.75 -2.73 Q63.75 -4.355 62.688 -5.417 Q61.625 -6.48 60 -6.48 Z M60 -71.48 Q58.375 -71.48 57.312 -70.417 Q56.25 -69.355 56.25 -67.73 Q56.25 -66.105 57.312 -65.042 Q58.375 -63.98 60 -63.98 Q61.625 -63.98 62.688 -65.042 Q63.75 -66.105 63.75 -67.73 Q63.75 -69.355 62.688 -70.417 Q61.625 -71.48 60 -71.48 Z"/></g><g id="Light-M" transform="matrix(1 0 0 1 1098.18 1126)"><path d="M88.51 -82.73 Q92.297 -82.73 94.922 -80.105 Q97.547 -77.48 97.547 -73.691 V3.231 Q97.547 7.02 94.922 9.645 Q92.297 12.27 88.51 12.27 H31.539 Q27.75 12.27 25.125 9.645 Q22.5 7.02 22.5 3.231 V-73.691 Q22.5 -77.48 25.125 -80.105 Q27.75 -82.73 31.539 -82.73 H88.51 Z M88.461 -75.23 H31.49 Q30.817 -75.23 30.385 -74.797 Q29.953 -74.365 29.953 -73.691 V3.231 Q29.953 3.905 30.385 4.338 Q30.817 4.77 31.49 4.77 H88.461 Q89.135 4.77 89.591 4.338 Q90.047 3.905 90.047 3.231 L90 -73.691 Q90 -74.365 89.567 -74.797 Q89.135 -75.23 88.461 -75.23 Z M78.269 -58.451 H41.828 V-12.057 H78.269 V-58.451 Z M70.769 -50.951 V-29.269 H49.326 V-50.951 H70.769 Z M60 -7.201 Q58.471 -7.201 57.456 -6.186 Q56.443 -5.172 56.443 -3.644 Q56.443 -2.115 57.456 -1.1 Q58.471 -0.086 60 -0.086 Q61.529 -0.086 62.544 -1.1 Q63.557 -2.115 63.557 -3.644 Q63.557 -5.172 62.544 -6.186 Q61.529 -7.201 60 -7.201 Z M60 -70.422 Q58.471 -70.422 57.456 -69.407 Q56.443 -68.394 56.443 -66.865 Q56.443 -65.336 57.456 -64.297 Q58.471 -63.259 60 -63.259 Q61.529 -63.259 62.544 -64.297 Q63.557 -65.336 63.557 -66.865 Q63.557 -68.394 62.544 -69.407 Q61.529 -70.422 60 -70.422 Z"/></g><g id="Thin-M" transform="matrix(1 0 0 1 802.565 1126)"><path d="M87.019 -80.23 Q90.471 -80.23 92.784 -77.917 Q95.096 -75.605 95.096 -72.152 V1.693 Q95.096 5.145 92.784 7.458 Q90.471 9.77 87.019 9.77 H33.078 Q29.625 9.77 27.312 7.458 Q25 5.145 25 1.693 V-72.152 Q25 -75.605 27.312 -77.917 Q29.625 -80.23 33.078 -80.23 H87.019 Z M86.922 -75.23 H32.981 Q31.635 -75.23 30.769 -74.365 Q29.904 -73.499 29.904 -72.152 V1.693 Q29.904 3.039 30.769 3.905 Q31.635 4.77 32.981 4.77 H86.922 Q88.269 4.77 89.183 3.905 Q90.096 3.039 90.096 1.693 L90 -72.152 Q90 -73.499 89.135 -74.365 Q88.269 -75.23 86.922 -75.23 Z M76.539 -56.672 H43.654 V-13.884 H76.539 V-56.672 Z M71.539 -51.672 V-28.307 H48.654 V-51.672 H71.539 Z M60 -7.922 Q58.568 -7.922 57.601 -6.956 Q56.635 -5.99 56.635 -4.557 Q56.635 -3.124 57.601 -2.157 Q58.568 -1.191 60 -1.191 Q61.432 -1.191 62.399 -2.157 Q63.365 -3.124 63.365 -4.557 Q63.365 -5.99 62.399 -6.956 Q61.432 -7.922 60 -7.922 Z M60 -69.365 Q58.568 -69.365 57.601 -68.399 Q56.635 -67.432 56.635 -65.999 Q56.635 -64.566 57.601 -63.552 Q58.568 -62.537 60 -62.537 Q61.432 -62.537 62.399 -63.552 Q63.365 -64.566 63.365 -65.999 Q63.365 -67.432 62.399 -68.399 Q61.432 -69.365 60 -69.365 Z"/></g><g id="Ultralight-M" transform="matrix(1 0 0 1 506.415 1126)"><path d="M86.125 -78.73 Q89.375 -78.73 91.5 -76.605 Q93.625 -74.48 93.625 -71.23 V0.77 Q93.625 4.02 91.5 6.145 Q89.375 8.27 86.125 8.27 H34 Q30.75 8.27 28.625 6.145 Q26.5 4.02 26.5 0.77 V-71.23 Q26.5 -74.48 28.625 -76.605 Q30.75 -78.73 34 -78.73 H86.125 Z M86 -75.23 H33.875 Q32.125 -75.23 31 -74.105 Q29.875 -72.98 29.875 -71.23 V0.77 Q29.875 2.52 31 3.645 Q32.125 4.77 33.875 4.77 H86 Q87.75 4.77 88.938 3.645 Q90.125 2.52 90.125 0.77 L90 -71.23 Q90 -72.98 88.875 -74.105 Q87.75 -75.23 86 -75.23 Z M75.5 -55.605 H44.75 V-14.98 H75.5 V-55.605 Z M72 -52.105 V-27.73 H48.25 V-52.105 H72 Z M60 -8.355 Q58.625 -8.355 57.688 -7.417 Q56.75 -6.48 56.75 -5.105 Q56.75 -3.73 57.688 -2.792 Q58.625 -1.855 60 -1.855 Q61.375 -1.855 62.312 -2.792 Q63.25 -3.73 63.25 -5.105 Q63.25 -6.48 62.312 -7.417 Q61.375 -8.355 60 -8.355 Z M60 -68.73 Q58.625 -68.73 57.688 -67.792 Q56.75 -66.855 56.75 -65.48 Q56.75 -64.105 57.688 -63.105 Q58.625 -62.105 60 -62.105 Q61.375 -62.105 62.312 -63.105 Q63.25 -64.105 63.25 -65.48 Q63.25 -66.855 62.312 -67.792 Q61.375 -68.73 60 -68.73 Z"/></g><g id="Bold-S" transform="matrix(1 0 0 1 2294.23 696)"><path d="M67.46 -76.455 Q72.687 -76.455 75.892 -73.25 Q79.097 -70.045 79.097 -64.817 V-5.642 Q79.097 -0.415 75.892 2.79 Q72.687 5.995 67.46 5.995 H27.221 Q21.993 5.995 18.788 2.79 Q15.583 -0.415 15.583 -5.642 V-64.817 Q15.583 -70.045 18.788 -73.25 Q21.993 -76.455 27.221 -76.455 H67.46 Z M67.46 -64.817 H27.221 Q27.221 -64.817 27.221 -64.817 Q27.221 -64.817 27.221 -64.817 V-5.642 Q27.221 -5.642 27.221 -5.642 Q27.221 -5.642 27.221 -5.642 H67.46 Q67.46 -5.642 67.46 -5.642 Q67.46 -5.642 67.46 -5.642 V-64.817 Q67.46 -64.817 67.46 -64.817 Q67.46 -64.817 67.46 -64.817 Z M64.205 -53.081 H30.377 V-17.576 H64.205 V-53.081 Z M52.567 -41.443 V-32.764 H42.014 V-41.443 H52.567 Z M47.291 -14.913 Q45.92 -14.913 45.003 -13.969 Q44.085 -13.027 44.085 -11.583 Q44.085 -10.14 45.008 -9.173 Q45.93 -8.207 47.34 -8.207 Q48.662 -8.207 49.628 -9.151 Q50.595 -10.093 50.595 -11.537 Q50.595 -12.98 49.628 -13.947 Q48.662 -14.913 47.291 -14.913 Z M47.291 -62.253 Q45.92 -62.253 45.003 -61.309 Q44.085 -60.367 44.085 -58.923 Q44.085 -57.48 45.008 -56.563 Q45.93 -55.645 47.34 -55.645 Q48.662 -55.645 49.628 -56.569 Q50.595 -57.494 50.595 -58.907 Q50.595 -60.32 49.628 -61.287 Q48.662 -62.253 47.291 -62.253 Z"/></g><g id="Semibold-S" transform="matrix(1 0 0 1 1998.1 696)"><path d="M67.974 -74.998 Q72.343 -74.998 74.991 -72.349 Q77.64 -69.701 77.64 -65.332 V-5.128 Q77.64 -0.759 74.991 1.889 Q72.343 4.538 67.974 4.538 H26.706 Q22.337 4.538 19.689 1.889 Q17.04 -0.759 17.04 -5.128 V-65.332 Q17.04 -69.701 19.689 -72.349 Q22.337 -74.998 26.706 -74.998 H67.974 Z M67.974 -65.332 H26.706 Q26.706 -65.332 26.706 -65.332 Q26.706 -65.332 26.706 -65.332 V-5.128 Q26.706 -5.128 26.706 -5.128 Q26.706 -5.128 26.706 -5.128 H67.974 Q67.974 -5.128 67.974 -5.128 Q67.974 -5.128 67.974 -5.128 V-65.332 Q67.974 -65.332 67.974 -65.332 Q67.974 -65.332 67.974 -65.332 Z M63.047 -53.553 H31.577 V-17.019 H63.047 V-53.553 Z M53.382 -43.887 V-31.778 H41.242 V-43.887 H53.382 Z M47.312 -13.97 Q46.091 -13.97 45.282 -13.145 Q44.471 -12.32 44.471 -11.058 Q44.471 -9.797 45.284 -8.959 Q46.097 -8.121 47.34 -8.121 Q48.533 -8.121 49.371 -8.945 Q50.209 -9.771 50.209 -11.032 Q50.209 -12.294 49.371 -13.132 Q48.533 -13.97 47.312 -13.97 Z M47.312 -62.339 Q46.091 -62.339 45.282 -61.515 Q44.471 -60.689 44.471 -59.428 Q44.471 -58.166 45.284 -57.356 Q46.097 -56.546 47.34 -56.546 Q48.533 -56.546 49.371 -57.359 Q50.209 -58.173 50.209 -59.419 Q50.209 -60.663 49.371 -61.501 Q48.533 -62.339 47.312 -62.339 Z"/></g><g id="Medium-S" transform="matrix(1 0 0 1 1701.85 696)"><path d="M68.36 -73.904 Q72.086 -73.904 74.316 -71.674 Q76.546 -69.444 76.546 -65.718 V-4.742 Q76.546 -1.016 74.316 1.214 Q72.086 3.444 68.36 3.444 H26.32 Q22.594 3.444 20.364 1.214 Q18.134 -1.016 18.134 -4.742 V-65.718 Q18.134 -69.444 20.364 -71.674 Q22.594 -73.904 26.32 -73.904 H68.36 Z M68.36 -65.718 H26.32 Q26.32 -65.718 26.32 -65.718 Q26.32 -65.718 26.32 -65.718 V-4.742 Q26.32 -4.742 26.32 -4.742 Q26.32 -4.742 26.32 -4.742 H68.36 Q68.36 -4.742 68.36 -4.742 Q68.36 -4.742 68.36 -4.742 V-65.718 Q68.36 -65.718 68.36 -65.718 Q68.36 -65.718 68.36 -65.718 Z M62.179 -53.907 H32.477 V-16.601 H62.179 V-53.907 Z M53.993 -45.721 V-31.038 H40.663 V-45.721 H53.993 Z M47.328 -13.262 Q46.22 -13.262 45.491 -12.527 Q44.761 -11.791 44.761 -10.665 Q44.761 -9.539 45.492 -8.798 Q46.223 -8.057 47.34 -8.057 Q48.437 -8.057 49.177 -8.793 Q49.919 -9.528 49.919 -10.654 Q49.919 -11.78 49.177 -12.521 Q48.437 -13.262 47.328 -13.262 Z M47.328 -62.403 Q46.22 -62.403 45.491 -61.667 Q44.761 -60.932 44.761 -59.806 Q44.761 -58.68 45.492 -57.951 Q46.223 -57.221 47.34 -57.221 Q48.437 -57.221 49.177 -57.952 Q49.919 -58.684 49.919 -59.802 Q49.919 -60.921 49.177 -61.661 Q48.437 -62.403 47.328 -62.403 Z"/></g><g id="Regular-S" transform="matrix(1 0 0 1 1405.73 696)"><path d="M68.643 -73.102 Q71.898 -73.102 73.821 -71.179 Q75.744 -69.256 75.744 -66.001 V-4.459 Q75.744 -1.204 73.821 0.719 Q71.898 2.642 68.643 2.642 H26.037 Q22.782 2.642 20.859 0.719 Q18.936 -1.204 18.936 -4.459 V-66.001 Q18.936 -69.256 20.859 -71.179 Q22.782 -73.102 26.037 -73.102 H68.643 Z M68.643 -66.001 H26.037 Q26.037 -66.001 26.037 -66.001 Q26.037 -66.001 26.037 -66.001 V-4.459 Q26.037 -4.459 26.037 -4.459 Q26.037 -4.459 26.037 -4.459 H68.643 Q68.643 -4.459 68.643 -4.459 Q68.643 -4.459 68.643 -4.459 V-66.001 Q68.643 -66.001 68.643 -66.001 Q68.643 -66.001 68.643 -66.001 Z M61.542 -54.166 H33.138 V-16.294 H61.542 V-54.166 Z M54.441 -47.065 V-30.496 H40.239 V-47.065 H54.441 Z M47.34 -12.743 Q46.314 -12.743 45.644 -12.073 Q44.973 -11.402 44.973 -10.376 Q44.973 -9.351 45.644 -8.68 Q46.314 -8.009 47.34 -8.009 Q48.366 -8.009 49.036 -8.68 Q49.707 -9.351 49.707 -10.376 Q49.707 -11.402 49.036 -12.073 Q48.366 -12.743 47.34 -12.743 Z M47.34 -62.45 Q46.314 -62.45 45.644 -61.78 Q44.973 -61.109 44.973 -60.083 Q44.973 -59.058 45.644 -58.387 Q46.314 -57.716 47.34 -57.716 Q48.366 -57.716 49.036 -58.387 Q49.707 -59.058 49.707 -60.083 Q49.707 -61.109 49.036 -61.78 Q48.366 -62.45 47.34 -62.45 Z"/></g><g id="Light-S" transform="matrix(1 0 0 1 1109.75 696)"><path d="M67.467 -71.129 Q70.456 -71.129 72.132 -69.453 Q73.809 -67.776 73.809 -64.787 V-5.673 Q73.809 -2.684 72.132 -1.007 Q70.456 0.67 67.467 0.67 H27.251 Q24.262 0.67 22.585 -1.007 Q20.909 -2.684 20.909 -5.673 V-64.787 Q20.909 -67.776 22.585 -69.453 Q24.262 -71.129 27.251 -71.129 H67.467 Z M67.429 -66.001 H27.213 Q26.682 -66.001 26.341 -65.66 Q26 -65.319 26 -64.787 V-5.673 Q26 -5.141 26.341 -4.8 Q26.682 -4.459 27.213 -4.459 H67.429 Q67.961 -4.459 68.32 -4.8 Q68.68 -5.141 68.68 -5.673 L68.643 -64.787 Q68.643 -65.319 68.302 -65.66 Q67.961 -66.001 67.429 -66.001 Z M60.176 -52.763 H34.58 V-17.736 H60.176 V-52.763 Z M55.048 -47.634 V-29.738 H39.707 V-47.634 H55.048 Z M47.34 -13.313 Q46.39 -13.313 45.757 -12.679 Q45.125 -12.047 45.125 -11.097 Q45.125 -10.148 45.757 -9.515 Q46.39 -8.882 47.34 -8.882 Q48.29 -8.882 48.923 -9.515 Q49.555 -10.148 49.555 -11.097 Q49.555 -12.047 48.923 -12.679 Q48.29 -13.313 47.34 -13.313 Z M47.34 -61.616 Q46.39 -61.616 45.757 -60.983 Q45.125 -60.351 45.125 -59.401 Q45.125 -58.451 45.757 -57.799 Q46.39 -57.147 47.34 -57.147 Q48.29 -57.147 48.923 -57.799 Q49.555 -58.451 49.555 -59.401 Q49.555 -60.351 48.923 -60.983 Q48.29 -61.616 47.34 -61.616 Z"/></g><g id="Thin-S" transform="matrix(1 0 0 1 814.015 696)"><path d="M66.291 -69.157 Q69.015 -69.157 70.445 -67.727 Q71.875 -66.297 71.875 -63.573 V-6.887 Q71.875 -4.163 70.445 -2.733 Q69.015 -1.303 66.291 -1.303 H28.465 Q25.741 -1.303 24.311 -2.733 Q22.881 -4.163 22.881 -6.887 V-63.573 Q22.881 -66.297 24.311 -67.727 Q25.741 -69.157 28.465 -69.157 H66.291 Z M66.215 -66.001 H28.389 Q27.327 -66.001 26.644 -65.319 Q25.961 -64.635 25.961 -63.573 V-6.887 Q25.961 -5.825 26.644 -5.141 Q27.327 -4.459 28.389 -4.459 H66.215 Q67.277 -4.459 67.998 -5.141 Q68.719 -5.825 68.719 -6.887 L68.643 -63.573 Q68.643 -64.635 67.961 -65.319 Q67.277 -66.001 66.215 -66.001 Z M58.811 -51.359 H36.021 V-19.177 H58.811 V-51.359 Z M55.655 -48.203 V-28.979 H39.177 V-48.203 H55.655 Z M47.34 -13.882 Q46.466 -13.882 45.871 -13.287 Q45.277 -12.692 45.277 -11.818 Q45.277 -10.944 45.871 -10.349 Q46.466 -9.754 47.34 -9.754 Q48.214 -9.754 48.809 -10.349 Q49.403 -10.944 49.403 -11.818 Q49.403 -12.692 48.809 -13.287 Q48.214 -13.882 47.34 -13.882 Z M47.34 -60.782 Q46.466 -60.782 45.871 -60.187 Q45.277 -59.592 45.277 -58.718 Q45.277 -57.844 45.871 -57.212 Q46.466 -56.578 47.34 -56.578 Q48.214 -56.578 48.809 -57.212 Q49.403 -57.844 49.403 -58.718 Q49.403 -59.592 48.809 -60.187 Q48.214 -60.782 47.34 -60.782 Z"/></g><g id="Ultralight-S" transform="matrix(1 0 0 1 517.792 696)"><path d="M65.586 -67.973 Q68.15 -67.973 69.432 -66.691 Q70.714 -65.409 70.714 -62.845 V-7.615 Q70.714 -5.051 69.432 -3.769 Q68.15 -2.486 65.586 -2.486 H29.193 Q26.629 -2.486 25.347 -3.769 Q24.065 -5.051 24.065 -7.615 V-62.845 Q24.065 -65.409 25.347 -66.691 Q26.629 -67.973 29.193 -67.973 H65.586 Z M65.487 -66.001 H29.094 Q27.714 -66.001 26.826 -65.113 Q25.938 -64.226 25.938 -62.845 V-7.615 Q25.938 -6.234 26.826 -5.347 Q27.714 -4.459 29.094 -4.459 H65.487 Q66.868 -4.459 67.805 -5.347 Q68.742 -6.234 68.742 -7.615 L68.643 -62.845 Q68.643 -64.226 67.755 -65.113 Q66.868 -66.001 65.487 -66.001 Z M57.992 -50.517 H36.886 V-20.042 H57.992 V-50.517 Z M56.019 -48.544 V-28.523 H38.858 V-48.544 H56.019 Z M47.34 -14.223 Q46.512 -14.223 45.94 -13.651 Q45.367 -13.079 45.367 -12.25 Q45.367 -11.422 45.94 -10.85 Q46.512 -10.278 47.34 -10.278 Q48.168 -10.278 48.74 -10.85 Q49.312 -11.422 49.312 -12.25 Q49.312 -13.079 48.74 -13.651 Q48.168 -14.223 47.34 -14.223 Z M47.34 -60.281 Q46.512 -60.281 45.94 -59.709 Q45.367 -59.137 45.367 -58.308 Q45.367 -57.48 45.94 -56.858 Q46.512 -56.237 47.34 -56.237 Q48.168 -56.237 48.74 -56.858 Q49.312 -57.48 49.312 -58.308 Q49.312 -59.137 48.74 -59.709 Q48.168 -60.281 47.34 -60.281 Z"/></g></g></svg>