<svg xmlns="http://www.w3.org/2000/svg" height="24" viewBox="0 -960 960 960" width="24"><path d="M583-548q0-50-34.5-85T464-668H316q-13 0-22 9.5t-9 22.5q0 13 9 22t22 9h148q24 0 40.5 17t16.5 40q0 24-16.5 41T464-490h-82l7-7q9-9 9-22t-9-22q-9-9-22-9t-22 9l-37 38q-18 19-18 44t18 44l37 38q9 9 22 9t22-9q9-9 9-22t-9-22l-7-7h82q49 0 84-34.5t35-85.5ZM254-126q-45 0-82.5-22.5T112-209H29q-26 0-44.5-18.5T-34-272v-186q0-53 36.5-89.5T92-584h3l57-161q11-31 38-50t60-19h306q28 0 51.5 13.5T645-763l94 159 129 11q53 5 89.5 44t36.5 92v185q0 26-18.5 44.5T931-209h-84q-22 38-59.5 60.5T705-126q-45 0-82.5-22.5T563-209H396q-22 38-59.5 60.5T254-126Z"/></svg>