<svg xmlns="http://www.w3.org/2000/svg" height="40" viewBox="0 -960 960 960" width="40"><path d="M562.36-539.67q0-38.82-28.24-66.62-28.25-27.81-68.35-27.81H325.79q-5.56 0-9.62 3.93-4.07 3.94-4.07 9.76 0 5.56 4.07 10.09 4.06 4.52 9.62 4.52h139.98q27.87 0 47.61 19.44 19.75 19.44 19.75 46.69 0 27.11-19.75 46.16-19.74 19.05-47.61 19.05H353.51l30.72-30.62q4.18-4.18 4.18-10.05 0-5.87-4.18-10.05-4.18-3.67-10.05-3.67-5.87 0-9.54 3.67l-44.74 44.05q-8.72 9.23-8.72 21.19 0 11.97 8.72 20.68l44.74 44.05q3.51 3.52 9.46 3.47 5.95-.05 10.13-4.23 4.18-4.8 4.18-10.36 0-5.57-4.95-9.75L353.51-446h112.26q39.85 0 68.22-27.55 28.37-27.55 28.37-66.12ZM268.72-200q-35.46 0-63.59-21.29-28.13-21.3-44.36-53.53H69.23q-12.79 0-21.01-8.22Q40-291.26 40-304.05v-171.39q0-24.69 16.88-41.57 16.89-16.89 41.58-16.89h50.77l62.67-170.43q6.54-16.11 21.01-25.89 14.47-9.78 31.81-9.78H551.9q14.79 0 27.27 7.32 12.47 7.32 21.01 19.78l98.28 159.62 162.59 12.61q24.69 2.08 41.82 20.75Q920-501.26 920-476.56v172.51q0 12.79-8.22 21.01-8.22 8.22-21.01 8.22h-92.31q-15.46 32.38-43.59 53.6Q726.74-200 691.54-200q-35.21 0-63.33-21.29-28.13-21.3-44.36-53.53H375.38q-15.46 32.38-43.59 53.6Q303.67-200 268.72-200Z"/></svg>