<svg xmlns="http://www.w3.org/2000/svg" height="40" viewBox="0 -960 960 960" width="40"><path d="M575.99-547.33q0-47.3-32.52-80.2-32.51-32.9-79.09-32.9H315.55q-9.92 0-16.63 6.85-6.7 6.84-6.7 16.46 0 10.15 6.56 17.08 6.57 6.92 16.61 6.92h149.34q26.62 0 45.23 19.28 18.61 19.28 18.61 46.47 0 26.91-18.55 45.81-18.55 18.89-45.22 18.89h-99.79l19.24-19.9q7-7.17 7-16.74 0-9.57-7-16.74-7.62-6.94-17.14-6.94t-16.66 7l-44.88 46.35q-13.02 13.22-13.02 30.76 0 17.55 13.02 30.75l44.88 46.35q6.47 6.33 16.32 6.66 9.86.34 17.29-6.33 7.19-6.91 7.19-16.62t-7-17.34l-19.24-19.84h99.51q46.25 0 78.86-32.69 32.61-32.7 32.61-79.39ZM253.9-144.17q-42.09 0-76.88-23.03-34.79-23.02-53.86-60.29H28.25q-18.5 0-31.29-12.79-12.79-12.78-12.79-31.28v-206.27q0-36.04 25.86-62.09 25.85-26.05 62.29-26.05h35.81l61.35-173.7q9.42-25.39 31.22-40.96 21.8-15.57 49.33-15.57h307.1q22.49 0 41.78 11.13 19.29 11.14 31.31 30.85l98.64 167.58 157.95 13.35q36.42 3.09 62.91 31.52 26.48 28.44 26.48 64.86v205.35q0 18.5-12.99 31.28-13 12.79-31.46 12.79h-95.1q-19.07 37.56-53.74 60.44-34.66 22.88-77 22.88t-76.95-23.03q-34.6-23.02-54.05-60.29H384.9q-19.07 37.56-54 60.44-34.92 22.88-77 22.88Zm.73-87.58q24.25 0 41.45-17.64 17.2-17.64 17.2-42.84 0-9.29 6.15-16.25 6.16-6.97 15.45-6.97h289.67q9.29 0 16.25 6.97 6.97 6.96 6.97 16.25 0 25.2 17.32 42.84 17.32 17.64 42.06 17.64 24.05 0 41.25-17.64 17.19-17.64 17.19-42.84 0-9.29 6.39-16.25 6.39-6.97 15.79-6.97h101.14v-169.59l-190.03-16.21q-11.11-1.18-20.04-6.67-8.92-5.49-13.91-14.65L555.81-708.25h-303.6l-71.89 200.7q-4.8 13.2-16.17 21.37-11.37 8.17-25.34 8.17H71.75v162.56h100.48q9.29 0 16.25 6.97 6.97 6.96 6.97 16.25 0 25.2 17.26 42.84 17.26 17.64 41.92 17.64ZM480-470Z"/></svg>