<svg xmlns="http://www.w3.org/2000/svg" height="40" viewBox="0 -960 960 960" width="40"><path d="M574.83-546.96q0-46.76-32.36-79.48-32.37-32.73-78.24-32.73H316.02q-9.68 0-16.01 6.72-6.34 6.72-6.34 15.6 0 9.85 6.09 16.52 6.09 6.66 15.97 6.66h149.21q26.91 0 46.07 19.72 19.16 19.71 19.16 47.12 0 27.12-19.12 46.31-19.13 19.19-45.9 19.19H362l21.67-22.34q6.5-6.81 6.5-15.79t-6.5-16.16q-7.6-6.38-16.51-6.38-8.91 0-15.71 6.55l-38.95 41.28q-15.17 15.66-15.17 35.5t15.17 35l39 41.34q6.08 5.66 15.33 6.08 9.24.42 16.5-5.92 6.84-6.76 6.75-15.99-.08-9.23-6.58-17.05L362-436.5h102.66q45.45 0 77.81-32.13t32.36-78.33ZM254.27-138.67q-42.44 0-78.02-22.83T120-221.67H29.5q-21 0-35.92-14.91-14.91-14.92-14.91-35.92v-198.17q0-41.68 29.47-71.51Q37.61-572 80-572h24.17L164-741.5q10.12-26.86 33.59-43.68Q221.05-802 250.5-802h306.75q24.25 0 44.93 11.98 20.67 11.98 33.52 33.12l96.63 164.4 142.17 12.17q42 3.5 74.75 38.16Q982-507.5 982-465.47v192.97q0 21-15.32 35.92-15.31 14.91-35.85 14.91h-91.16q-20.34 37.34-55.87 60.17t-78.58 22.83q-43.05 0-78.22-22.83t-56.17-60.17H389.19q-20.69 37.34-56.65 60.17-35.96 22.83-78.27 22.83ZM255.54-239q21.39 0 36.51-15.65 15.12-15.66 15.12-38.02 0-12.03 7.66-21.01 7.67-8.99 19.55-8.99h290.08q12.07 0 21.06 8.99 8.98 8.98 8.98 21.01 0 22.36 15.35 38.02Q685.2-239 707.26-239q21.07 0 36.24-15.65 15.17-15.66 15.17-38.02 0-12.03 8.03-21.01 8.03-8.99 20.47-8.99h94.5v-156.66l-184-15.34q-12.39-1.39-23-7.52-10.62-6.13-16-17.31L552.33-701H257.28l-70.61 195.5q-5.5 15.5-18.68 25-13.17 9.5-28.82 9.5H79v148.33h93.67q12.03 0 21.01 8.99 8.99 8.98 8.99 21.01 0 22.36 15.38 38.02Q233.43-239 255.54-239ZM480-470Z"/></svg>