<svg xmlns="http://www.w3.org/2000/svg" height="24" viewBox="0 -960 960 960" width="24"><path d="M577.22-543.72q0-46.48-32.49-79.08-32.49-32.61-79.47-32.61H321.54q-12 0-19.87 7.99-7.87 7.99-7.87 19.99 0 12 7.87 20.11 7.87 8.12 19.87 8.12h143.72q23.24 0 39.86 16.24t16.62 39.24q0 23.24-16.62 39.48T465.26-488h-83.98l9.24-9.24q8.5-8.5 8.5-19.49 0-10.99-8.5-19.49-8.5-8.5-19.49-8.5-10.99 0-19.49 8.5l-46.65 46.13q-12.93 13.18-12.93 30.46t12.93 30.46l46.65 46.13q8.5 8 19.49 8.25 10.99.25 19.49-8.25 8.5-8.5 8.25-19.99-.25-11.49-8.75-19.99l-8.74-9h83.98q46.74 0 79.35-32.24 32.61-32.24 32.61-79.46ZM262.07-161.87q-40.46 0-74.3-21.24-33.84-21.24-52.03-57.48H44.87q-17.65 0-30.33-12.67-12.67-12.67-12.67-30.33v-192.15q0-35.78 25.11-60.89t60.89-25.11h33.65L180.3-723.8q8.98-24.68 30.29-39.5 21.3-14.83 47.48-14.83h295.41q22.17 0 40.87 10.47 18.69 10.46 29.91 29.4l95.28 157.02 154.42 12.78q35.78 2.98 59.97 29.05 24.2 26.06 24.2 61.84v193.98q0 17.66-12.67 30.33-12.68 12.67-30.33 12.67h-91.11q-18.19 36.24-52.28 57.48-34.09 21.24-74.54 21.24-40.46 0-74.3-21.24-33.83-21.24-52.03-57.48H388.89q-18.19 36.24-52.28 57.48-34.09 21.24-74.54 21.24Z"/></svg>