<svg xmlns="http://www.w3.org/2000/svg" height="24" viewBox="0 -960 960 960" width="24"><path d="M578.2-544.7q0-47.13-32.82-80.22-32.81-33.1-80.45-33.1H320.24q-12 0-20.03 8.31-8.04 8.32-8.04 20.32t8.04 20.28q8.03 8.28 20.03 8.28h144.69q23.57 0 40.35 16.57 16.79 16.56 16.79 39.56 0 23.57-16.79 40.13Q488.5-488 464.93-488H380.3l9.57-9.57q8.5-8.5 8.5-19.81 0-11.32-8.5-19.82t-19.82-8.5q-11.31 0-19.81 8.5l-42.09 42.22q-14.89 15.46-14.89 35.51 0 20.06 14.89 35.51l42.09 42.22q8.5 8 19.81 8.25 11.32.25 19.82-8.25t8.25-20.31q-.25-11.82-8.75-20.32l-9.07-9h84.63q47.07 0 80.17-32.56 33.1-32.57 33.1-80.77ZM260.11-150.78q-41.76 0-76.74-21.57-34.98-21.56-54.81-58.13H41.28q-20.58 0-35.54-14.95-14.96-14.96-14.96-35.55v-187.58q0-42.31 29.35-71.66 29.35-29.35 71.65-29.35h21.59l57.8-160.1q9.63-26.96 33.06-43.25 23.42-16.3 51.88-16.3h298.02q24.46 0 44.78 11.45 20.33 11.44 32.53 32.33l94.3 156.37 142.02 11.81q42.31 3.63 71.88 35.24 29.58 31.61 29.58 73.91v187.13q0 20.59-14.96 35.55-14.96 14.95-35.54 14.95h-87.85q-19.83 36.57-55.05 58.13-35.23 21.57-76.99 21.57t-76.74-21.57q-34.98-21.56-54.81-58.13H392.15q-19.82 36.57-55.05 58.13-35.23 21.57-76.99 21.57Z"/></svg>