<svg xmlns="http://www.w3.org/2000/svg" height="24" viewBox="0 -960 960 960" width="24"><path d="M562.65-537.62q0-38.69-28.21-66.32-28.21-27.64-68.17-27.64H328.65q-6.61 0-11.09 4.29-4.48 4.29-4.48 11.29 0 6.23 4.48 11.35 4.48 5.11 11.09 5.11h137.62q26.08 0 45.08 18.31t19 43.61q0 25.31-19 43.24-19 17.92-45.08 17.92H360.08l27.07-26.31q4.66-4.65 4.66-10.98t-4.66-11.37q-4.65-4.65-10.98-4.65-6.32 0-10.98 4.65l-43.46 42.47q-9.58 9.57-9.58 22.32t9.58 21.95l43.46 42.46q4.66 4.54 10.98 4.21 6.33-.33 10.98-4.98 4.66-5.43 4.6-11.68-.06-6.25-5.48-11.28l-26.19-25.16h106.19q39.19 0 67.79-27.19 28.59-27.19 28.59-65.62Zm-290.3 331.47q-34.89 0-63.08-20.43-28.19-20.42-44.04-52.19H77.12q-13.2 0-22.08-8.88-8.89-8.89-8.89-22.08v-162.42q0-26 17.77-43.77 17.77-17.77 43.77-17.77h46.35l61.04-164.27q6.57-16.08 21.13-25.98 14.56-9.91 32.14-9.91h281.96q15.11 0 27.81 7.25 12.69 7.25 20.88 19.75l96.38 154.04 156.58 12.35q26 2.11 43.94 21.42 17.95 19.31 17.95 45.31v164q0 13.19-8.89 22.08-8.88 8.88-21.69 8.88H794q-15.46 31.77-43.52 52.19-28.06 20.43-62.94 20.43-34.89 0-62.89-20.43-28-20.42-43.84-52.19h-202Q363.35-247 335.1-226.58q-28.25 20.43-62.75 20.43Z"/></svg>