<svg xmlns="http://www.w3.org/2000/svg" height="48" viewBox="0 -960 960 960" width="48"><path d="M570.5-546.19q0-43.81-30.92-74.81t-74.33-31H317.5q-8.23 0-13.12 4.98-4.88 4.99-4.88 12.75 0 7.77 4.88 13.52 4.89 5.75 13.12 5.75h147.86q28.16 0 47.9 20.07Q533-574.85 533-546q0 28.44-19.85 48.22Q493.31-478 465.5-478h-110l26.5-27.5q5.5-5.5 5.5-12.98 0-7.47-5.5-13.52-5.5-5.5-13-5.5t-13.08 5.58L304.5-479.5q-9 8.83-9 20.42 0 11.58 9 20.08l51.5 52.5q4.5 4.5 12.5 5t13.5-4.75q5.5-5.25 5.5-13.11 0-7.87-5.5-14.14l-26.5-27h110q43.66 0 74.33-30.69 30.67-30.7 30.67-75ZM257-165q-39.25 0-71.38-23.25Q153.5-211.5 136.5-247H34q-12.25 0-20.62-8.38Q5-263.75 5-276v-216.5q0-23.03 17.23-40.27Q39.47-550 62.5-550H124l63.5-179.5q7.93-20.28 25.51-32.89Q230.58-775 253-775h303.37q18.63 0 34.38 8.75 15.75 8.75 25.3 25.4L717.5-571 896-556q22.5 2 40.75 21.5T955-492.45V-276q0 12.25-8.41 20.62-8.42 8.38-20.09 8.38h-103q-16.5 36.5-48.75 59.25T703-165q-39.5 0-71.5-23.25T583-247H377.54q-17.04 36.5-49.26 59.25T257-165Zm.96-57.5q30.69 0 51.61-21.58 20.93-21.59 20.93-52.42 0-3.1 1.5-5.55 1.5-2.45 5.07-2.45h285.86q3.17 0 5.62 2.45t2.45 5.55q0 30.83 21.34 52.42 21.33 21.58 51.95 21.58 30.21 0 51.21-21.58 21-21.59 21-52.42 0-3.1 1.45-5.55 1.45-2.45 5.55-2.45h115v-193l-201.5-18q-7.58-1.09-13.25-4.41-5.68-3.31-8.75-9.09L563-717.5H245.03L170.5-512q-3 9-10.08 14.25-7.07 5.25-16.42 5.25H62.5v188h114q3.1 0 5.55 2.45 2.45 2.45 2.45 5.55 0 30.83 21.38 52.42 21.39 21.58 52.08 21.58ZM480-470Z"/></svg>