<svg xmlns="http://www.w3.org/2000/svg" height="48" viewBox="0 -960 960 960" width="48"><path d="M569.61-546.64q0-43.44-31.22-74.01-31.23-30.58-73.48-30.58h-148q-6.99 0-11.41 4.64-4.42 4.63-4.42 11.97 0 6.96 4.7 12.21 4.71 5.26 11.84 5.26h147.86q27.81 0 48.44 21.06 20.62 21.06 20.62 49.55 0 29.44-20.59 49.53-20.58 20.09-48.34 20.09H351.15l30.23-30.85q4.85-5.34 4.85-11.53 0-6.19-4.85-12.28-5.84-4.65-13-4.65-7.15 0-11.61 4.46L311.23-484q-10.61 11.2-10.61 25.19 0 13.99 10.61 23.66l45.24 47.46q4.11 5.15 11.68 4.96 7.57-.19 13.23-5.23 4.85-4.85 4.85-11.71 0-6.86-5.23-12.1l-29.85-30.21h114.36q42.98 0 73.54-30.6 30.56-30.6 30.56-74.06ZM256.94-164q-39.26 0-70.77-23.73-31.51-23.74-50.32-58.43h-96q-15.36 0-25.6-10.24Q4-266.65 4-282v-197.69q0-28.26 21.22-49.47 21.22-21.22 49.47-21.22h48.93l63.61-179.77q8.1-20.52 25.74-33.18Q230.6-776 252.54-776h304.15q18.5 0 34.15 8.97 15.64 8.96 25.93 24.8l101.46 170.62 163.31 12.84q28.61 3 51.54 27.92Q956-505.92 956-477.31V-282q0 15.35-10.23 25.6-10.24 10.24-24.62 10.24h-97.38q-17.23 35.7-48.84 58.93Q743.32-164 703.65-164t-70.77-23.73q-31.11-23.74-49.73-58.43H377.46q-18.41 35.31-49.84 58.73Q296.19-164 256.94-164Zm.68-58.39q30.46 0 51.61-21.12 21.16-21.13 21.16-50.26 0-3.75 2.34-7.26 2.35-3.51 6.42-3.51h282.31q3.75 0 6.76 3.51t3.01 7.26q0 29.13 21.68 50.26 21.68 21.12 52.06 21.12 30.36 0 51.04-21.12 20.68-21.13 20.68-50.26 0-3.75 2.35-7.26 2.34-3.51 7.42-3.51h112.77v-182.15q0-5-3.27-8.66-3.27-3.65-8.27-3.65l-186.38-16.46q-9.84-.37-16.91-4.57-7.07-4.19-10.32-11.66L563.15-718.61H244.67l-72.44 202.76q-4 10.62-13.27 16.73-9.27 6.12-19.57 6.12h-64.7q-5.38 0-8.84 3.65-3.46 3.66-3.46 8.66v176.15h111.76q3.76 0 7.27 3.51 3.5 3.51 3.5 7.26 0 29.13 21.27 50.26 21.27 21.12 51.43 21.12ZM480-470Z"/></svg>