<svg xmlns="http://www.w3.org/2000/svg" height="20" viewBox="0 -960 960 960" width="20"><path d="M557-556.92q0-43.58-30.09-73.83T454.99-661H329.01q-10.9 0-17.95 7.83-7.06 7.82-7.06 18.26 0 10.88 7.41 18.39 7.4 7.52 18.73 7.52h125.31q20.2 0 35.38 15.53Q506-577.94 506-556.55q0 21.55-15.08 37.05-15.08 15.5-35.33 15.5H375l23-23q7-8.01 7-18.68 0-10.68-7-18.32-7.43-7-19-7t-19 7l-37 41q-19 19-19 43.5t19 43.5l38 41q7.44 8 18.45 8 11.01 0 18.9-8 6.65-7.86 6.65-17.82T398-431l-23-22h79.84q42.14 0 72.15-29.96Q557-512.92 557-556.92ZM272.65-170q-40.65 0-76.85-20.85Q159.6-211.7 138-247H65.82q-27.22 0-45.52-19.05Q2-285.1 2-311v-167q0-57.13 35.44-92.56Q72.88-606 130-606h-8l54-138q9.93-31.92 35.59-50.96Q237.25-814 269.67-814H549q27.17 0 51.1 14.23Q624.02-785.54 637-762l85 137 105 10q56 5 93 44.5t37 96.5v163.07q0 25.87-18.3 44.9Q920.4-247 893.18-247H820q-21.6 35.3-57.39 56.15Q726.83-170 685.91-170q-40.91 0-76.55-20.85-35.63-20.85-56.95-56.15H406q-22 35-57.1 56-35.11 21-76.25 21Zm1.82-126q12.53 0 20.53-9.63 8-9.62 8-23.37 0-18.8 13.2-31.9Q329.4-374 348-374h265q19 0 31.5 13.1t12.5 31.42q0 14.73 9.44 24.1 9.45 9.38 22.27 9.38 11.73 0 21.01-9.63Q719-315.25 719-329q0-18.8 12.5-31.9Q744-374 763-374h70v-115l-152-12q-14.76-2-27.58-9.53-12.81-7.52-20.11-21.44L536-688H289l-63 166q-6 19-22.91 30.5t-37.5 11.5H130v106h68q18.8 0 31.9 13.1 13.1 13.1 13.1 31.42 0 14.73 9.18 24.1 9.18 9.38 22.29 9.38ZM481-492Z"/></svg>