<svg xmlns="http://www.w3.org/2000/svg" height="20" viewBox="0 -960 960 960" width="20"><path d="M557-557.13q0-43.58-29.8-73.94t-71.78-30.36H328.84q-10.95 0-17.89 7.63-6.95 7.64-6.95 18.46 0 11.06 7.39 18.48 7.39 7.43 18.69 7.43h125.61q20.15 0 35.23 15.47Q506-578.48 506-556.77q0 21.34-15.03 36.84-15.03 15.5-35.2 15.5h-80.34l22.57-23q7-7.92 7-18.47 0-10.55-7-18.1-7.24-7.43-19-7.43T360-564l-41.78 45.35q-16.83 17.26-16.83 39.15 0 21.89 16.83 39.15L361-395q7.41 8 18.37 8 10.97 0 18.83-8 6.8-7.67 6.8-17.82T398-431l-22.57-22h79.78q42.2 0 72-30.16Q557-513.32 557-557.13ZM272.61-176.09q-40.18 0-75.51-21.06-35.33-21.07-55.62-56.37H65.39q-24.18 0-40.74-17.01-16.56-17-16.56-40.47v-173.96q0-51.3 31.83-83.12 31.82-31.83 83.12-31.83h3.74l55.31-142.35q9.53-30.06 33.43-47.86 23.9-17.79 54.15-17.79H549q25.43 0 47.83 13.26t34.95 35.69l86.74 140.05 116.31 10.43q50.78 4.57 83.43 39.72 32.65 35.15 32.65 86.5v171.33q0 23.43-16.56 40.42-16.56 16.99-40.74 16.99h-76.65q-20.3 35.3-55.4 56.37-35.09 21.06-75.17 21.06-40.09 0-74.85-21.06-34.77-21.07-54.79-56.37H402.52q-20.69 35-54.97 56.22-34.28 21.21-74.94 21.21Zm1.76-113.39q15.67 0 25.63-11.65 9.96-11.66 9.96-28.3 0-16.28 11.24-27.17 11.24-10.88 27.23-10.88H613q16.39 0 26.94 10.88 10.54 10.89 10.54 26.68 0 17.63 11.31 29.04 11.32 11.4 26.81 11.4 14.88 0 25.9-11.65 11.02-11.66 11.02-28.3 0-16.28 10.54-27.17 10.55-10.88 26.94-10.88h76.52v-127.61l-157.65-12.87q-13.43-1.65-24.73-8.48-11.31-6.83-18.18-19.01l-99.05-159.07H284.65l-64.74 170.35q-5.13 17.26-20.3 27.45-15.17 10.2-33.58 10.2h-42.55v119.04h74.95q16.28 0 27.17 10.88 10.88 10.89 10.88 26.68 0 17.63 11.05 29.04 11.05 11.4 26.84 11.4ZM481-492Z"/></svg>