<svg xmlns="http://www.w3.org/2000/svg" height="24" viewBox="0 -960 960 960" width="24"><path d="M564.62-538.85q0-40.3-28.89-68.42-28.88-28.11-69.96-28.11H326.92q-6.84 0-11.88 4.65-5.04 4.65-5.04 12.27 0 6.84 5.04 12.27 5.04 5.42 11.88 5.42h138.85q26.08 0 44.77 18.31 18.69 18.31 18.69 43.61 0 25.31-18.69 43.23-18.69 17.93-44.77 17.93H361.92l25.23-24.46q5.16-5.16 5.16-12.16t-5.16-12.15q-5.15-5.16-12.15-5.16t-12.15 5.16l-44.08 43.08q-9.69 9.69-9.69 23.11t9.69 23.12l44.08 43.07q5.15 5.16 12.15 4.77 7-.38 12.15-5.54 5.16-5.92 5.16-12.53 0-6.62-5.93-11.77l-24.46-23.93h103.85q40.31 0 69.58-28.11 29.27-28.12 29.27-67.66ZM270-200q-35.62 0-64.23-20.73-28.62-20.73-44.85-53.12H72.31q-13.93 0-23.12-9.19Q40-292.23 40-306.15v-165.39q0-27.61 18.5-46.11t46.12-18.5h44.61l61.54-166.23q6.69-17.08 21.81-27.35Q247.69-740 266-740h284.92q15.62 0 28.73 7.81 13.12 7.81 21.81 20.42l97 156.39L857-542.92q27.62 2.23 45.31 21.54Q920-502.08 920-474.46v168.31q0 13.92-9.19 23.11t-23.12 9.19h-89.38q-15.46 32.39-44.08 53.12Q725.62-200 690-200q-35.62 0-64.23-20.73-28.62-20.73-44.85-53.12H378.31q-15.46 32.39-44.08 53.12Q305.62-200 270-200Zm0-40q31.15 0 53.27-20.58 22.11-20.57 22.11-47.88 0-1.85 1.39-3.62 1.38-1.77 3.23-1.77h259.23q1.85 0 3.62 1.77t1.77 3.62q0 27.31 22.11 47.88Q658.85-240 690-240q31.92 0 53.65-20.58 21.73-20.57 21.73-47.88 0-1.85 1.39-3.62 1.38-1.77 3.23-1.77h110v-163.69q0-10-6.54-16.92-6.54-6.92-16.54-7.69l-166.23-13.7q-8.46-1-14.54-4.84-6.07-3.85-10.3-10.31L561.92-700H253.69l-68.46 183.23q-3.46 9.69-11.92 15.15-8.46 5.47-18.39 5.47h-50.3q-10.77 0-17.7 6.92Q80-482.31 80-471.54v157.69h109.23q1.85 0 3.62 1.77t1.77 3.62q0 27.31 22.11 47.88Q238.85-240 270-240Zm210-230Z"/></svg>