<svg xmlns="http://www.w3.org/2000/svg" height="24" viewBox="0 -960 960 960" width="24"><path d="M585-550q0-51.71-35.28-87.57-35.29-35.86-85.29-35.86H313.08q-13.79 0-22.43 9.24-8.65 9.25-8.65 22.76 0 13.75 9.15 22.87 9.14 9.13 22.93 9.13h150.35q23.33 0 40.45 17.57Q522-574.29 522-550q0 24.57-17.08 42.07t-40.36 17.5h-84.13l7.57-8q9-8.88 9-22.29 0-13.4-9-22.28-9-9.43-22.5-9.43T343-543l-39.78 41.35q-17.83 18.26-17.83 42.65 0 24.39 17.83 42.65L343-375q8.8 10 22.1 10t23.1-10q8.8-9 8.8-22t-9-22l-7.57-8h84.16q49.84 0 85.13-35.74Q585-498.48 585-550ZM251-120.09q-45.57 0-83.7-23.21-38.13-23.22-59.82-62.22H21.57q-25.96 0-43.72-18.16-17.76-18.15-17.76-43.32v-193.96q0-51.57 35.69-87.26 35.69-35.69 87.26-35.69h7.74l59.31-167.35q10.52-31.42 36.8-50.04 26.28-18.61 59.11-18.61h312q27.26 0 50.74 13.13t37.04 36.82l96.74 165.05 133.31 11.43q50.78 4.57 87.43 43.72 36.65 39.15 36.65 90.5V-267q0 25.17-17.76 43.32-17.76 18.16-43.72 18.16h-86.47q-21.7 39-59.65 62.22-37.96 23.21-82.98 23.21-45.03 0-83.16-23.21-38.13-23.22-59.82-62.22H393.52q-21.69 39-59.82 62.22-38.13 23.21-82.7 23.21Z"/></svg>