<svg xmlns="http://www.w3.org/2000/svg" height="48" viewBox="0 -960 960 960" width="48"><path d="M561.27-540.04q0-37.27-28.42-65.19-28.42-27.92-66.73-27.92H325.96q-5.92 0-9.08 3.26-3.15 3.27-3.15 8.91 0 4.86 3.15 8.88 3.16 4.02 9.08 4.02h140.07q28.76 0 49.21 20.15 20.45 20.14 20.45 48.08 0 28.44-20.63 47.84-20.64 19.39-48.79 19.39H348.96l33.81-34.03q3.19-3.34 3.19-8.61t-3.19-9.05q-3.19-2.81-8.58-2.81-5.38 0-7.94 2.56l-44.83 44.29q-8.61 9.24-8.61 20.57t8.61 19.16l44.96 44.42q2.13 2.58 7.66 2.5 5.54-.07 8.73-3.4 3.19-4.1 3.38-8.92.2-4.82-3.77-9.1l-33.42-33.15h117.31q38.28 0 66.64-27.01t28.36-64.84ZM268.54-201.15q-35.32 0-63.26-21.52-27.93-21.52-43.78-53.56H69q-12.23 0-20.04-7.81-7.81-7.81-7.81-20.04v-173.53q0-22.36 16.17-38.53t38.64-16.17h54.58l62.73-172.57q6.65-14.76 20.48-24.36 13.83-9.61 31.17-9.61h287.12q14.11 0 26.54 6.87 12.42 6.88 20.55 19.59l98.75 160.24 164.66 13.07q22.11 2.39 39.21 20.73 17.1 18.35 17.1 40.56v173.71q0 12.23-7.88 20.04-7.87 7.81-19.09 7.81h-94.17q-15.03 32.24-42.64 53.66-27.62 21.42-63.22 21.42-35.61 0-63.21-21.52t-42.95-53.56H374.5q-15.54 32.27-43.33 53.67-27.79 21.41-62.63 21.41Zm.19-30.2q34.53 0 57.77-22.41 23.23-22.42 23.23-52.36 0 .6-.42.15-.43-.45-.65-.45h262.3q-.48 0-.03.45.45.45.45-.15 0 29.94 23.49 52.36 23.48 22.41 57.34 22.41 34.21 0 57.52-22.41 23.31-22.42 23.31-52.36 0 .6-.51.15-.51-.45.2-.45h116.15V-482.5q0-10-6.53-17.31-6.54-7.31-16.54-7.31l-172.66-14.92q-7.25-1.16-12.82-4.31-5.57-3.15-8.41-8.42L565.31-708.65H247.94l-70.13 188.57q-3.39 8.62-10.09 13.29-6.7 4.67-14.87 4.67H95.96q-10.77 0-17.69 7.31-6.92 7.31-6.92 17.31v171.08h115.53q-.59 0-.14.45.45.45.45-.15 0 29.94 23.87 52.36 23.87 22.41 57.67 22.41ZM480-470Z"/></svg>