<svg xmlns="http://www.w3.org/2000/svg" height="20" viewBox="0 -960 960 960" width="20"><path d="M544.31-548.87q0-36.21-25.53-61.51-25.52-25.31-61.93-25.31H339.46q-7.32 0-12.39 4.88-5.07 4.87-5.07 12.58 0 7.32 5.07 12.58 5.07 5.27 12.39 5.27h116.92q21.62 0 36.93 15.1 15.31 15.1 15.31 36.31 0 21.2-15.31 36.16-15.31 14.96-36.93 14.96h-87.92l30.62-30.23q5.07-5.44 5.07-12.76 0-7.31-5.07-12.39-5.08-5.08-13.08-5.08t-13.08 5.08l-49.53 50.54q-9.85 9.84-9.85 22.31 0 12.46 9.85 22.3l50.53 50.54q5.44 5.08 12.76 4.89 7.32-.2 12.4-5.27 5.07-5.47 5.07-12.59 0-7.13-5.46-12.57l-30.23-29.46h87.92q36.23 0 62.08-25.26t25.85-61.07ZM287-236q-33.31 0-61.81-18.97-28.51-18.96-43.73-49.95H99.98q-13.69 0-22.83-9.2-9.15-9.2-9.15-22.96v-162.69q0-30.31 17-47.31 17-17 47.31-17h38.31l56.77-141.61q6.86-19.18 22.42-30.74Q265.37-748 284.67-748h258.79q16.86 0 31.39 9.16 14.53 9.15 23.38 23.46l87 133.69L831-569.46q30.31 2.61 45.15 19.27Q891-533.54 891-503.23v166.22q0 13.73-9.15 22.91-9.14 9.18-22.83 9.18h-81.87q-14.83 30.99-43.34 49.95Q705.31-236 672-236t-61.25-18.97q-27.95-18.96-42.88-49.95H391.15q-15.23 30.69-42.79 49.8Q320.79-236 287-236Zm1-52q26.08 0 43.39-17.29 17.3-17.29 17.3-40.94 0-4.92 3.4-7.81 3.39-2.88 7.91-2.88h240.61q4.93 0 7.81 2.88 2.89 2.89 2.89 7.32 0 24.64 18.05 41.68Q647.42-288 673-288q25.96 0 43.83-17.29 17.86-17.29 17.86-40.94 0-4.92 2.69-7.81 2.7-2.88 7.62-2.88h96v-148.85q0-5-3.27-8.46-3.27-3.46-8.27-3.85l-156.61-12.84q-7.7-.82-13.5-4.34-5.81-3.51-10.11-9.71L550.46-696H279.85l-65.23 163.61q-3.24 9.85-11.38 15.08t-18.18 5.23h-51.75q-5.39 0-8.85 3.46-3.46 3.47-3.46 8.85v142.85h94.62q4.92 0 7.8 2.88 2.89 2.89 2.89 7.32 0 24.64 18.06 41.68Q262.42-288 288-288Zm193-204Z"/></svg>