<svg xmlns="http://www.w3.org/2000/svg" height="24" viewBox="0 -960 960 960" width="24"><path d="M580.72-545.72q0-48.48-33.74-82.33-33.74-33.86-82.22-33.86H319.04q-13 0-21.62 8.74-8.62 8.74-8.62 21.74 0 13 8.62 21.61 8.62 8.62 21.62 8.62h145.72q23.24 0 39.36 16.24t16.12 39.24q0 23.24-16.12 39.48T464.76-490h-80.48l6.24-6.24q9-9 9-21.24 0-12.24-9-21.24-9-9-21.24-9-12.24 0-21.24 9l-47.65 47.13q-13.43 13.68-13.43 32.21t13.43 32.21l47.65 47.13q9 9 21.24 9 12.24 0 21.24-9 9-9 9-21.24 0-12.24-9-21.24l-6.24-7h80.48q48.24 0 82.1-33.74 33.86-33.74 33.86-82.46ZM258.57-151.87q-41.96 0-76.8-21.74-34.84-21.74-53.03-58.98H37.37q-19.15 0-32.33-13.17-13.17-13.17-13.17-32.33v-196.65q0-37.78 26.61-64.39t64.39-26.61h31.15L173.3-731.3q9.48-25.68 31.54-41.25 22.05-15.58 49.73-15.58h299.91q22.67 0 42.37 11.22 19.69 11.21 31.41 30.65l96.28 160.52 157.92 13.28q37.78 3.48 61.72 29.55 23.95 26.06 23.95 63.84v200.98q0 19.16-13.17 32.33-13.18 13.17-32.33 13.17h-91.61q-18.19 37.24-53.03 58.98-34.84 21.74-76.79 21.74-41.96 0-76.8-21.74-34.83-21.74-53.03-58.98H388.39q-18.19 37.24-53.03 58.98-34.84 21.74-76.79 21.74Z"/></svg>