<svg xmlns="http://www.w3.org/2000/svg" height="20" viewBox="0 -960 960 960" width="20"><path d="M536.62-545.8q0-32.35-23.22-54.97-23.22-22.61-56.17-22.61H342.92q-4.24 0-7.58 2.95t-3.34 7.97q0 4.24 3.34 7.97 3.34 3.72 7.58 3.72h113.85q23.15 0 39.8 16.26 16.66 16.25 16.66 38.61t-16.66 38.28q-16.65 15.93-39.8 15.93h-99.85l40.23-39.46q3.16-3.52 3.16-8.34t-3.16-7.97q-3.15-3.16-8.65-3.16t-8.65 3.16l-46.08 47.08q-8.69 8.69-8.69 19.61t8.69 19.62l47.08 47.07q3.51 3.16 8.33 2.77 4.82-.38 7.97-3.54 3.16-3.92 3.16-8.35 0-4.44-3.93-7.95l-39.46-37.93h99.85q32.38 0 56.11-22.56 23.74-22.57 23.74-54.16ZM292-256q-30.62 0-56.43-18.58-25.82-18.58-40.65-47.27h-78.79q-12.15 0-20.14-8.04T88-350.15v-145.39q0-27.61 14.5-42.11t42.12-14.5h40.61l57.54-141.23q5.7-15.72 18.57-25.17 12.87-9.45 28.33-9.45h252.25q14.17 0 26.01 7.81 11.84 7.81 19.53 19.42l87 131.39L816-557.92q27.62 2.23 41.31 17.54Q871-525.08 871-497.46v147.37q0 12.2-7.99 20.22t-20.14 8.02h-79.56q-14.06 28.69-39.88 47.27Q697.62-256 667-256t-55.87-18.58q-25.25-18.58-39.8-47.27H387.31q-14.46 28.39-39.34 47.12Q323.1-256 292-256Zm1-32q29.15 0 48.77-18.83 19.61-18.82 19.61-43.63 0-1.85 1.09-2.62 1.08-.77 2.53-.77h230.23q1.85 0 2.62.77t.77 2.13q0 25.8 20.36 44.37Q639.35-288 668-288q29.42 0 49.4-18.83 19.98-18.82 19.98-43.63 0-1.85.39-2.62.38-.77 2.23-.77h101v-147.69q0-10-6.54-16.92-6.54-6.92-16.54-7.69l-146.23-11.7q-6.92-.81-11.77-3.75-4.84-2.94-8.76-8.37L553.92-696H278.69l-64.46 158.23q-2.46 8.69-9.83 13.15-7.38 4.47-15.88 4.47h-42.9q-10.77 0-17.7 6.92-6.92 6.92-6.92 17.69v141.69h99.23q1.85 0 2.62.77t.77 2.13q0 25.8 20.36 44.37Q264.35-288 293-288Zm188-204Z"/></svg>