<svg xmlns="http://www.w3.org/2000/svg" height="40" viewBox="0 -960 960 960" width="40"><path d="M566.03-543.33q0-41.49-29.75-70.8-29.74-29.31-70.51-29.31H321.46q-6.56 0-10.63 4.11-4.06 4.1-4.06 10.92 0 6.56 4.23 11.26 4.23 4.69 10.79 4.69h143.98q27.87 0 48.28 20.6t20.41 48.53q0 28.1-20.41 47.98-20.41 19.89-48.28 19.89H350.85l31.71-31.95q4.18-4.18 4.18-10.38 0-6.21-4.18-11.06-4.84-4-11.55-4-6.7 0-10.37 4l-41.08 42.39q-11.05 11.9-11.05 27.02 0 15.13 11.05 25.85l41.08 42.38q3.51 4.52 10.13 4.13 6.61-.38 11.79-4.89 4.18-4.8 4.18-11.03 0-6.23-4.95-10.41l-30.94-30.92h114.92q41.18 0 70.72-29.05 29.54-29.06 29.54-69.95ZM263.05-178.67q-38.13 0-68.26-22.62-30.12-22.63-48.69-56.2H56.9q-16.46 0-27.35-10.88-10.88-10.89-10.88-27.35v-173.05q0-31.69 22.05-53.74t53.74-22.05h39.77l63-174.44q7.54-19.1 24.18-30.72 16.64-11.61 36.64-11.61h296.51q17.47 0 31.94 8.48 14.47 8.49 24.35 22.95l99.61 164.95 150.26 11.28q31.69 3.08 56.15 29.58 24.46 26.5 24.46 58.19v170.18q0 16.46-10.88 27.35-10.89 10.88-26.68 10.88h-90.64q-17.13 33.72-47.26 56.27-30.13 22.55-67.66 22.55-37.54 0-67.34-22.62-29.79-22.63-48.36-56.2H377.72q-17.8 33.72-47.93 56.27-30.12 22.55-66.74 22.55Z"/></svg>