<svg xmlns="http://www.w3.org/2000/svg" height="40" viewBox="0 -960 960 960" width="40"><path d="M578.33-550q0-48.67-33.33-82.33Q511.67-666 465-666H313q-10.67 0-17.17 6.67-6.5 6.66-6.5 17.33 0 10.67 6.67 17.67 6.67 7 17.33 7H465q26.33 0 45.33 19.83t19 47.5q0 27.33-19 46.83T465-483.67H363.67l19.66-20.66q7-7 7-16.67 0-9.67-7-17.33-7.66-7.34-17.83-7.34-10.17 0-17.17 7.34l-48 50.33Q288-475.33 288-458.67 288-442 300.33-430l48 50.33q6.34 7.34 16.67 7.34 10.33 0 18.33-7.34 7-6.33 7-16.66 0-10.34-7-17.34l-19.66-20.66H465q47.33 0 80.33-33.67t33-82ZM251-138.67q-43 0-78-24.16-35-24.17-54.33-61.84H21q-18 0-30.17-12.16Q-21.33-249-21.33-267v-214.33q0-34 25-59t59-25H105l63-180.34q9.33-25 30.33-40.33 21-15.33 47.67-15.33h312.67q22.33 0 41.16 10.66 18.84 10.67 30.5 30L732-587l163.33 13.33q34 3.34 60 31.5 26 28.17 26 62.17v213q0 18-12.16 30.17-12.17 12.16-29.5 12.16h-98.34q-18.66 38.34-53.66 62.17T710-138.67q-42.67 0-77.33-24.16-34.67-24.17-54-61.84H382.33Q363-186.33 328-162.5t-77 23.83Z"/></svg>