<svg xmlns="http://www.w3.org/2000/svg" version="1.1" width="3300" height="2000"><g id="Notes"><style>
    text {
      font-family: monospace;
      text-anchor: middle;
    }
    text.emphasis {
      font-weight:bold;
    }
    text.lanchor {
      text-anchor: start;
    }
  </style><rect height="2200" id="artboard" fill="white" width="3300" x="0" y="0"/><line id="" style="fill:none;stroke:black;stroke-width:0.5;" x1="263" x2="3036" y1="292" y2="292"/><text class="lanchor emphasis" transform="matrix(1 0 0 1 263 322)">Weight/Scale Variations</text><text transform="matrix(1 0 0 1 559.711 322)">Ultralight</text><text transform="matrix(1 0 0 1 856.422 322)">Thin</text><text transform="matrix(1 0 0 1 1153.13 322)">Light</text><text transform="matrix(1 0 0 1 1449.84 322)">Regular</text><text transform="matrix(1 0 0 1 1746.56 322)">Medium</text><text transform="matrix(1 0 0 1 2043.27 322)">Semibold</text><text transform="matrix(1 0 0 1 2339.98 322)">Bold</text><text transform="matrix(1 0 0 1 2636.69 322)">Heavy</text><text transform="matrix(1 0 0 1 2933.4 322)">Black</text><text id="template-version" style="text-anchor: end;" transform="matrix(1 0 0 1 3036 1933)">Template v.1.0</text><text class="lanchor" transform="matrix(1 0 0 1 263 726)">Small</text><text class="lanchor" transform="matrix(1 0 0 1 263 1156)">Medium</text><text class="lanchor" transform="matrix(1 0 0 1 263 1586)">Large</text></g><g id="Guides"><g id="H-reference" style="fill:#27AAE1;stroke:none;" transform="matrix(1 0 0 1 339 696)"><path d="M 54.9316 0 L 57.666 0 L 30.5664 -70.459 L 28.0762 -70.459 L 0.976562 0 L 3.66211 0 L 12.9395 -24.4629 L 45.7031 -24.4629 Z M 29.1992 -67.0898 L 29.4434 -67.0898 L 44.8242 -26.709 L 13.8184 -26.709 Z"/></g><line id="Baseline-S" style="fill:none;stroke:#27AAE1;opacity:1;stroke-width:0.577;" x1="263" x2="3036" y1="696" y2="696"/><line id="Capline-S" style="fill:none;stroke:#27AAE1;opacity:1;stroke-width:0.577;" x1="263" x2="3036" y1="625.541" y2="625.541"/><g id="H-reference" style="fill:#27AAE1;stroke:none;" transform="matrix(1 0 0 1 339 1126)"><path d="M 54.9316 0 L 57.666 0 L 30.5664 -70.459 L 28.0762 -70.459 L 0.976562 0 L 3.66211 0 L 12.9395 -24.4629 L 45.7031 -24.4629 Z M 29.1992 -67.0898 L 29.4434 -67.0898 L 44.8242 -26.709 L 13.8184 -26.709 Z"/></g><line id="Baseline-M" style="fill:none;stroke:#27AAE1;opacity:1;stroke-width:0.577;" x1="263" x2="3036" y1="1126" y2="1126"/><line id="Capline-M" style="fill:none;stroke:#27AAE1;opacity:1;stroke-width:0.577;" x1="263" x2="3036" y1="1055.54" y2="1055.54"/><g id="H-reference" style="fill:#27AAE1;stroke:none;" transform="matrix(1 0 0 1 339 1556)"><path d="M 54.9316 0 L 57.666 0 L 30.5664 -70.459 L 28.0762 -70.459 L 0.976562 0 L 3.66211 0 L 12.9395 -24.4629 L 45.7031 -24.4629 Z M 29.1992 -67.0898 L 29.4434 -67.0898 L 44.8242 -26.709 L 13.8184 -26.709 Z"/></g><line id="Baseline-L" style="fill:none;stroke:#27AAE1;opacity:1;stroke-width:0.577;" x1="263" x2="3036" y1="1556" y2="1556"/><line id="Capline-L" style="fill:none;stroke:#27AAE1;opacity:1;stroke-width:0.577;" x1="263" x2="3036" y1="1485.54" y2="1485.54"/><rect height="119.336" id="left-margin" style="fill:darkred;stroke:none;opacity:0.4;" width="12.4512" x="1394.06" y="1030.79"/><rect height="119.336" id="right-margin" style="fill:darkgreen;stroke:none;opacity:0.4;" width="12.4512" x="1502.5112" y="1030.79"/><rect x="1406.5112" y="1045" width="96" height="96" fill="none" stroke="blue" stroke-dasharray="5"/><rect x="1394.06" y="1030.79" width="120.9024" height="119.336" fill="none" stroke="blue"/></g><g id="Symbols"><g id="Bold-L" transform="matrix(1 0 0 1 2266 1556)"><path d="M88.123 -12.332 Q91.993 -16.444 91.993 -22.29 Q91.993 -28.135 87.156 -30.876 Q72.482 -39.181 58.131 -49.662 Q43.779 -60.143 29.751 -69.737 Q39.345 -55.709 49.867 -41.277 Q60.388 -26.845 69.418 -12.977 Q72.321 -8.301 78.085 -8.18 Q83.85 -8.059 88.123 -12.332 Z M22.494 19.595 Q16.125 8.469 13.021 -0.198 Q9.917 -8.866 9.756 -22.088 Q9.675 -36.197 15.117 -48.573 Q20.559 -60.949 29.751 -70.141 Q38.942 -79.332 51.278 -84.693 Q63.613 -90.055 77.561 -90.055 Q91.509 -90.055 103.885 -84.693 Q116.261 -79.332 125.412 -70.141 Q134.563 -60.949 139.844 -48.493 Q145.125 -36.036 145.125 -22.088 Q145.125 -9.591 141.578 -0.279 Q138.03 9.033 132.225 19.595 H22.494 Z"/></g><g id="Semibold-L" transform="matrix(1 0 0 1 1970.27 1556)"><path d="M87.843 -12.542 Q91.784 -16.654 91.713 -22.43 Q91.643 -28.204 86.875 -31.017 Q72.762 -39.321 58.727 -49.312 Q44.69 -59.301 31.083 -68.546 Q40.256 -54.867 50.287 -40.787 Q60.319 -26.705 69.138 -13.187 Q72.111 -8.511 77.84 -8.39 Q83.569 -8.269 87.843 -12.542 Z M23.546 17.842 Q17.528 7.206 14.562 -1.214 Q11.599 -9.636 11.508 -22.157 Q11.428 -35.777 16.765 -47.803 Q22.101 -59.827 31.118 -68.809 Q40.134 -77.79 52.153 -83.045 Q64.174 -88.302 77.631 -88.302 Q91.229 -88.302 103.255 -83.081 Q115.279 -77.86 124.185 -68.878 Q133.091 -59.898 138.232 -47.827 Q143.372 -35.756 143.372 -22.157 Q143.372 -10.152 140.036 -1.226 Q136.698 7.701 131.174 17.842 H23.546 Z"/></g><g id="Medium-L" transform="matrix(1 0 0 1 1674.31 1556)"><path d="M87.633 -12.7 Q91.625 -16.812 91.503 -22.535 Q91.38 -28.258 86.665 -31.121 Q72.972 -39.426 59.174 -49.049 Q45.374 -58.671 32.082 -67.653 Q40.94 -54.237 50.603 -40.417 Q60.266 -26.6 68.928 -13.345 Q71.953 -8.669 77.656 -8.548 Q83.36 -8.427 87.633 -12.7 Z M24.334 16.528 Q18.579 6.26 15.72 -1.977 Q12.861 -10.215 12.823 -22.211 Q12.742 -35.461 18 -47.224 Q23.259 -58.987 32.144 -67.809 Q41.027 -76.633 52.811 -81.81 Q64.595 -86.988 77.684 -86.988 Q91.019 -86.988 102.781 -81.872 Q114.544 -76.755 123.264 -67.931 Q131.986 -59.11 137.022 -47.327 Q142.058 -35.546 142.058 -22.211 Q142.058 -10.573 138.878 -1.935 Q135.698 6.701 130.385 16.528 H24.334 Z"/></g><g id="Regular-L" transform="matrix(1 0 0 1 1378.56 1556)"><path d="M87.478 -12.816 Q91.509 -16.928 91.348 -22.612 Q91.187 -28.296 86.511 -31.199 Q73.127 -39.503 59.501 -48.856 Q45.876 -58.208 32.814 -66.996 Q41.441 -53.774 50.834 -40.148 Q60.227 -26.522 68.773 -13.461 Q71.837 -8.785 77.521 -8.664 Q83.205 -8.543 87.478 -12.816 Z M24.913 15.564 Q19.35 5.566 16.568 -2.537 Q13.787 -10.639 13.787 -22.249 Q13.706 -35.23 18.907 -46.8 Q24.107 -58.369 32.895 -67.077 Q41.683 -75.784 53.293 -80.904 Q64.903 -86.024 77.722 -86.024 Q90.864 -86.024 102.434 -80.985 Q114.004 -75.946 122.59 -67.238 Q131.177 -58.531 136.135 -46.961 Q141.094 -35.391 141.094 -22.249 Q141.094 -10.881 138.03 -2.456 Q134.966 5.969 129.806 15.564 H24.913 Z"/></g><g id="Light-L" transform="matrix(1 0 0 1 1082.77 1556)"><path d="M86.578 -13.685 Q90.115 -17.301 89.937 -22.333 Q89.76 -27.366 85.611 -29.989 Q72.909 -38.045 59.982 -47.212 Q47.054 -56.378 34.675 -64.981 Q43.084 -52.471 52.339 -39.574 Q61.591 -26.677 69.983 -14.33 Q72.767 -10.18 77.784 -10.075 Q82.802 -9.97 86.578 -13.685 Z M26.774 12.618 Q21.675 3.581 19.205 -4.133 Q16.733 -11.849 16.702 -22.404 Q16.591 -34.888 21.558 -45.869 Q26.526 -56.85 34.864 -65.155 Q43.202 -73.459 54.27 -78.284 Q65.337 -83.108 77.661 -83.108 Q90.213 -83.108 101.225 -78.287 Q112.236 -73.464 120.451 -65.206 Q128.665 -56.949 133.421 -45.89 Q138.178 -34.833 138.178 -22.28 Q138.178 -11.936 135.424 -4.022 Q132.672 3.891 127.915 12.618 H26.774 Z"/></g><g id="Thin-L" transform="matrix(1 0 0 1 787.282 1556)"><path d="M85.68 -14.553 Q88.718 -17.673 88.526 -22.054 Q88.334 -26.435 84.713 -28.78 Q72.693 -36.588 60.462 -45.569 Q48.233 -54.549 36.536 -62.965 Q44.728 -51.17 53.841 -39 Q62.955 -26.832 71.192 -15.198 Q73.698 -11.576 78.048 -11.486 Q82.399 -11.396 85.68 -14.553 Z M28.635 9.672 Q24.002 1.596 21.84 -5.731 Q19.679 -13.058 19.616 -22.559 Q19.474 -34.548 24.208 -44.939 Q28.944 -55.33 36.833 -63.231 Q44.723 -71.132 55.247 -75.663 Q65.771 -80.195 77.598 -80.195 Q89.561 -80.195 100.015 -75.589 Q110.469 -70.984 118.311 -63.176 Q126.154 -55.367 130.709 -44.821 Q135.265 -34.275 135.265 -22.311 Q135.265 -12.99 132.82 -5.587 Q130.377 1.814 126.023 9.672 H28.635 Z"/></g><g id="Ultralight-L" transform="matrix(1 0 0 1 491.205 1556)"><path d="M85.14 -15.074 Q87.881 -17.896 87.68 -21.887 Q87.478 -25.877 84.172 -28.054 Q72.562 -35.714 60.751 -44.582 Q48.939 -53.451 37.652 -61.756 Q45.714 -50.387 54.744 -38.657 Q63.774 -26.926 71.918 -15.719 Q74.256 -12.413 78.206 -12.332 Q82.157 -12.252 85.14 -15.074 Z M29.751 7.904 Q25.397 0.406 23.422 -6.689 Q21.446 -13.784 21.366 -22.652 Q21.204 -34.343 25.8 -44.381 Q30.396 -54.419 38.015 -62.078 Q45.634 -69.737 55.833 -74.091 Q66.032 -78.445 77.561 -78.445 Q89.171 -78.445 99.29 -73.97 Q109.408 -69.496 117.027 -61.957 Q124.646 -54.419 129.081 -44.179 Q133.515 -33.94 133.515 -22.33 Q133.515 -13.622 131.257 -6.527 Q129 0.568 124.888 7.904 H29.751 Z"/></g><g id="Bold-M" transform="matrix(1 0 0 1 2281.8 1126)"><path d="M67.75 -17.855 Q70.812 -20.98 70.656 -25.355 Q70.5 -29.73 67 -31.917 Q55.75 -39.105 44.656 -47.011 Q33.562 -54.917 22.562 -62.542 Q30.25 -51.605 38.156 -40.449 Q46.062 -29.292 53.5 -18.355 Q55.875 -14.855 60.219 -14.761 Q64.562 -14.667 67.75 -17.855 Z M17.812 7.833 Q12.625 -1.23 9.875 -8.23 Q7.125 -15.23 7.062 -25.98 Q7.062 -36.917 11.281 -46.449 Q15.5 -55.98 22.688 -63.011 Q29.875 -70.042 39.469 -74.074 Q49.062 -78.105 59.875 -78.105 Q70.812 -78.105 80.5 -73.98 Q90.188 -69.855 97.375 -62.667 Q104.562 -55.48 108.719 -45.824 Q112.875 -36.167 112.875 -25.23 Q112.875 -14.917 109.938 -7.824 Q107 -0.73 102.188 7.833 H17.812 Z"/></g><g id="Semibold-M" transform="matrix(1 0 0 1 1985.97 1126)"><path d="M67.479 -18.072 Q70.541 -21.197 70.358 -25.491 Q70.174 -29.784 66.729 -32.08 Q56.076 -39.267 45.281 -46.657 Q34.486 -54.047 23.921 -61.292 Q31.174 -50.735 38.564 -39.932 Q45.954 -29.13 53.229 -18.572 Q55.604 -15.072 59.947 -14.979 Q64.291 -14.885 67.479 -18.072 Z M18.9 5.985 Q14.092 -2.48 11.479 -9.235 Q8.864 -15.991 8.856 -26.034 Q8.856 -36.482 12.992 -45.661 Q17.13 -54.839 24.128 -61.652 Q31.125 -68.466 40.365 -72.389 Q49.606 -76.311 59.929 -76.311 Q70.486 -76.311 79.821 -72.322 Q89.155 -68.334 96.097 -61.39 Q103.041 -54.447 107.061 -45.145 Q111.081 -35.841 111.081 -25.284 Q111.081 -15.57 108.361 -8.856 Q105.641 -2.142 101.1 5.985 H18.9 Z"/></g><g id="Medium-M" transform="matrix(1 0 0 1 1689.91 1126)"><path d="M67.275 -18.235 Q70.338 -21.36 70.134 -25.592 Q69.929 -29.825 66.525 -32.202 Q56.321 -39.39 45.75 -46.392 Q35.179 -53.396 24.94 -60.355 Q31.866 -50.084 38.87 -39.545 Q45.873 -29.007 53.025 -18.735 Q55.4 -15.235 59.744 -15.141 Q64.088 -15.047 67.275 -18.235 Z M19.715 4.599 Q15.193 -3.417 12.681 -9.99 Q10.169 -16.561 10.201 -26.075 Q10.201 -36.156 14.277 -45.07 Q18.354 -53.982 25.207 -60.634 Q32.062 -67.284 41.038 -71.125 Q50.014 -74.966 59.97 -74.966 Q70.241 -74.966 79.311 -71.079 Q88.38 -67.192 95.14 -60.432 Q101.9 -53.672 105.817 -44.635 Q109.736 -35.596 109.736 -25.325 Q109.736 -16.059 107.179 -9.631 Q104.623 -3.202 100.285 4.599 H19.715 Z"/></g><g id="Regular-M" transform="matrix(1 0 0 1 1394.06 1126)"><path d="M67.125 -18.355 Q70.188 -21.48 69.969 -25.667 Q69.75 -29.855 66.375 -32.292 Q56.5 -39.48 46.094 -46.199 Q35.688 -52.917 25.688 -59.667 Q32.375 -49.605 39.094 -39.261 Q45.812 -28.917 52.875 -18.855 Q55.25 -15.355 59.594 -15.261 Q63.938 -15.167 67.125 -18.355 Z M20.312 3.583 Q16 -4.105 13.562 -10.542 Q11.125 -16.98 11.188 -26.105 Q11.188 -35.917 15.219 -44.636 Q19.25 -53.355 26 -59.886 Q32.75 -66.417 41.531 -70.199 Q50.312 -73.98 60 -73.98 Q70.062 -73.98 78.938 -70.167 Q87.812 -66.355 94.438 -59.73 Q101.062 -53.105 104.906 -44.261 Q108.75 -35.417 108.75 -25.355 Q108.75 -16.417 106.312 -10.199 Q103.875 -3.98 99.688 3.583 H20.312 Z"/></g><g id="Light-M" transform="matrix(1 0 0 1 1098.18 1126)"><path d="M66.62 -18.932 Q69.297 -21.672 69.091 -25.402 Q68.885 -29.134 65.87 -31.259 Q56.38 -38.014 46.515 -44.732 Q36.649 -51.451 27.177 -58.056 Q33.697 -48.547 40.476 -38.72 Q47.255 -28.894 54.005 -19.432 Q56.164 -16.341 59.99 -16.235 Q63.818 -16.129 66.62 -18.932 Z M21.562 1.299 Q17.659 -5.691 15.557 -11.732 Q13.457 -17.774 13.495 -25.985 Q13.471 -35.461 17.274 -43.795 Q21.078 -52.129 27.479 -58.347 Q33.88 -64.566 42.289 -68.144 Q50.697 -71.72 60 -71.72 Q69.606 -71.72 78.073 -68.076 Q86.539 -64.431 92.851 -58.131 Q99.164 -51.831 102.826 -43.384 Q106.49 -34.936 106.49 -25.331 Q106.49 -17.282 104.317 -11.412 Q102.144 -5.542 98.365 1.299 H21.562 Z"/></g><g id="Thin-M" transform="matrix(1 0 0 1 802.565 1126)"><path d="M66.115 -19.509 Q68.409 -21.865 68.214 -25.139 Q68.019 -28.412 65.365 -30.225 Q56.26 -36.547 46.935 -43.266 Q37.61 -49.985 28.669 -56.446 Q35.019 -47.49 41.859 -38.18 Q48.697 -28.87 55.135 -20.009 Q57.078 -17.326 60.388 -17.209 Q63.697 -17.09 66.115 -19.509 Z M22.812 -0.985 Q19.317 -7.277 17.552 -12.922 Q15.789 -18.566 15.803 -25.865 Q15.755 -35.004 19.329 -42.954 Q22.904 -50.902 28.956 -56.809 Q35.01 -62.715 43.046 -66.089 Q51.081 -69.461 60 -69.461 Q69.149 -69.461 77.206 -65.985 Q85.265 -62.509 91.265 -56.532 Q97.265 -50.557 100.748 -42.506 Q104.231 -34.456 104.231 -25.307 Q104.231 -18.149 102.323 -12.626 Q100.414 -7.105 97.044 -0.985 H22.812 Z"/></g><g id="Ultralight-M" transform="matrix(1 0 0 1 506.415 1126)"><path d="M65.812 -19.855 Q67.875 -21.98 67.688 -24.98 Q67.5 -27.98 65.062 -29.605 Q56.188 -35.667 47.188 -42.386 Q38.188 -49.105 29.562 -55.48 Q35.812 -46.855 42.688 -37.855 Q49.562 -28.855 55.812 -20.355 Q57.625 -17.917 60.625 -17.792 Q63.625 -17.667 65.812 -19.855 Z M23.562 -2.355 Q20.312 -8.23 18.75 -13.636 Q17.188 -19.042 17.188 -25.792 Q17.125 -34.73 20.562 -42.449 Q24 -50.167 29.844 -55.886 Q35.688 -61.605 43.5 -64.855 Q51.312 -68.105 60 -68.105 Q68.875 -68.105 76.688 -64.73 Q84.5 -61.355 90.312 -55.574 Q96.125 -49.792 99.5 -41.98 Q102.875 -34.167 102.875 -25.292 Q102.875 -18.667 101.125 -13.355 Q99.375 -8.042 96.25 -2.355 H23.562 Z"/></g><g id="Bold-S" transform="matrix(1 0 0 1 2294.23 696)"><path d="M52.962 -23 Q55.082 -25.17 55.008 -28.425 Q54.934 -31.679 52.37 -33.11 Q43.691 -38.287 35.875 -43.934 Q28.059 -49.58 19.972 -55.3 Q25.741 -47.262 31.437 -39.298 Q37.132 -31.334 42.803 -23.494 Q44.579 -21.028 47.562 -20.855 Q50.545 -20.683 52.962 -23 Z M13.561 -4.41 Q9.961 -10.672 8.679 -14.667 Q7.397 -18.661 7.249 -25.959 Q7.249 -34.49 10.282 -41.813 Q13.314 -49.136 18.689 -54.487 Q24.065 -59.837 31.387 -62.87 Q38.71 -65.902 47.143 -65.902 Q55.477 -65.902 62.873 -62.796 Q70.27 -59.689 75.695 -54.265 Q81.119 -48.84 84.3 -41.517 Q87.48 -34.194 87.48 -25.959 Q87.48 -18.71 85.952 -14.593 Q84.423 -10.475 81.02 -4.41 H13.561 Z"/></g><g id="Semibold-S" transform="matrix(1 0 0 1 1998.1 696)"><path d="M52.748 -23.172 Q54.868 -25.342 54.772 -28.532 Q54.677 -31.722 52.156 -33.238 Q43.948 -38.416 36.368 -43.655 Q28.788 -48.894 21.044 -54.314 Q26.47 -46.576 31.758 -38.891 Q37.047 -31.206 42.589 -23.665 Q44.364 -21.2 47.348 -21.027 Q50.331 -20.854 52.748 -23.172 Z M14.419 -5.867 Q11.119 -11.659 9.944 -15.46 Q8.769 -19.262 8.664 -26.002 Q8.664 -34.147 11.632 -41.192 Q14.6 -48.236 19.826 -53.414 Q25.051 -58.593 32.095 -61.54 Q39.139 -64.487 47.185 -64.487 Q55.219 -64.487 62.338 -61.488 Q69.456 -58.489 74.687 -53.257 Q79.919 -48.026 82.992 -40.982 Q86.065 -33.937 86.065 -26.002 Q86.065 -19.225 84.708 -15.407 Q83.351 -11.59 80.162 -5.867 H14.419 Z"/></g><g id="Medium-S" transform="matrix(1 0 0 1 1701.85 696)"><path d="M52.587 -23.3 Q54.707 -25.47 54.596 -28.612 Q54.483 -31.754 51.995 -33.334 Q44.142 -38.512 36.738 -43.445 Q29.334 -48.38 21.847 -53.574 Q27.016 -46.062 32 -38.585 Q36.982 -31.109 42.428 -23.793 Q44.204 -21.328 47.187 -21.155 Q50.171 -20.983 52.587 -23.3 Z M15.062 -6.961 Q11.987 -12.398 10.893 -16.055 Q9.798 -19.711 9.725 -26.034 Q9.725 -33.89 12.646 -40.725 Q15.566 -47.56 20.678 -52.611 Q25.79 -57.66 32.625 -60.543 Q39.461 -63.426 47.218 -63.426 Q55.026 -63.426 61.936 -60.507 Q68.844 -57.588 73.931 -52.501 Q79.018 -47.414 82.011 -40.579 Q85.004 -33.744 85.004 -26.034 Q85.004 -19.611 83.775 -16.019 Q82.547 -12.426 79.519 -6.961 H15.062 Z"/></g><g id="Regular-S" transform="matrix(1 0 0 1 1405.73 696)"><path d="M52.468 -23.395 Q54.589 -25.565 54.466 -28.671 Q54.342 -31.778 51.877 -33.405 Q44.283 -38.583 37.009 -43.293 Q29.735 -48.002 22.437 -53.032 Q27.418 -45.684 32.176 -38.361 Q36.935 -31.038 42.31 -23.888 Q44.085 -21.422 47.069 -21.25 Q50.052 -21.077 52.468 -23.395 Z M15.533 -7.763 Q12.624 -12.941 11.588 -16.491 Q10.553 -20.042 10.504 -26.058 Q10.504 -33.701 13.388 -40.383 Q16.273 -47.065 21.303 -52.021 Q26.333 -56.977 33.015 -59.812 Q39.697 -62.648 47.241 -62.648 Q54.885 -62.648 61.641 -59.788 Q68.396 -56.927 73.377 -51.947 Q78.358 -46.966 81.292 -40.285 Q84.226 -33.603 84.226 -26.058 Q84.226 -19.894 83.092 -16.467 Q81.957 -13.039 79.048 -7.763 H15.533 Z"/></g><g id="Light-S" transform="matrix(1 0 0 1 1109.75 696)"><path d="M52.07 -23.851 Q53.887 -25.717 53.773 -28.462 Q53.66 -31.209 51.478 -32.59 Q44.188 -37.426 37.341 -42.136 Q30.494 -46.845 23.613 -51.761 Q28.461 -44.85 33.267 -37.934 Q38.073 -31.02 43.202 -24.344 Q44.806 -22.201 47.381 -22.018 Q49.958 -21.836 52.07 -23.851 Z M16.52 -9.565 Q13.933 -14.192 13.162 -17.43 Q12.393 -20.668 12.324 -25.963 Q12.305 -33.341 15.01 -39.719 Q17.715 -46.097 22.47 -50.807 Q27.224 -55.516 33.612 -58.191 Q40 -60.865 47.241 -60.865 Q54.525 -60.865 60.958 -58.138 Q67.391 -55.41 72.125 -50.686 Q76.859 -45.961 79.651 -39.592 Q82.443 -33.223 82.443 -26.039 Q82.443 -20.576 81.518 -17.424 Q80.591 -14.272 78.004 -9.565 H16.52 Z"/></g><g id="Thin-S" transform="matrix(1 0 0 1 814.015 696)"><path d="M51.672 -24.305 Q53.186 -25.869 53.081 -28.254 Q52.976 -30.64 51.08 -31.774 Q44.093 -36.27 37.673 -40.979 Q31.252 -45.688 24.789 -50.49 Q29.504 -44.016 34.358 -37.508 Q39.211 -31.001 44.093 -24.798 Q45.527 -22.978 47.695 -22.786 Q49.863 -22.594 51.672 -24.305 Z M17.506 -11.367 Q15.242 -15.444 14.737 -18.369 Q14.233 -21.293 14.145 -25.869 Q14.107 -32.98 16.631 -39.056 Q19.156 -45.13 23.635 -49.593 Q28.116 -54.056 34.21 -56.569 Q40.303 -59.082 47.241 -59.082 Q54.164 -59.082 60.275 -56.488 Q66.386 -53.893 70.874 -49.424 Q75.361 -44.956 78.01 -38.9 Q80.66 -32.844 80.66 -26.02 Q80.66 -21.26 79.943 -18.382 Q79.226 -15.505 76.962 -11.367 H17.506 Z"/></g><g id="Ultralight-S" transform="matrix(1 0 0 1 517.792 696)"><path d="M51.433 -24.578 Q52.764 -25.959 52.666 -28.129 Q52.567 -30.299 50.841 -31.285 Q44.036 -35.575 37.872 -40.285 Q31.708 -44.994 25.495 -49.728 Q30.13 -43.514 35.012 -37.252 Q39.894 -30.989 44.628 -25.072 Q45.959 -23.444 47.882 -23.247 Q49.806 -23.05 51.433 -24.578 Z M18.098 -12.448 Q16.027 -16.195 15.681 -18.932 Q15.336 -21.669 15.238 -25.811 Q15.188 -32.764 17.605 -38.657 Q20.021 -44.55 24.336 -48.865 Q28.651 -53.18 34.568 -55.596 Q40.486 -58.012 47.241 -58.012 Q53.948 -58.012 59.865 -55.497 Q65.783 -52.982 70.122 -48.668 Q74.462 -44.353 77.026 -38.485 Q79.59 -32.616 79.59 -26.009 Q79.59 -21.669 78.999 -18.957 Q78.407 -16.245 76.336 -12.448 H18.098 Z"/></g></g></svg>