<svg xmlns="http://www.w3.org/2000/svg" version="1.1" width="3300" height="2000"><g id="Notes"><style>
    text {
      font-family: monospace;
      text-anchor: middle;
    }
    text.emphasis {
      font-weight:bold;
    }
    text.lanchor {
      text-anchor: start;
    }
  </style><rect height="2200" id="artboard" fill="white" width="3300" x="0" y="0"/><line id="" style="fill:none;stroke:black;stroke-width:0.5;" x1="263" x2="3036" y1="292" y2="292"/><text class="lanchor emphasis" transform="matrix(1 0 0 1 263 322)">Weight/Scale Variations</text><text transform="matrix(1 0 0 1 559.711 322)">Ultralight</text><text transform="matrix(1 0 0 1 856.422 322)">Thin</text><text transform="matrix(1 0 0 1 1153.13 322)">Light</text><text transform="matrix(1 0 0 1 1449.84 322)">Regular</text><text transform="matrix(1 0 0 1 1746.56 322)">Medium</text><text transform="matrix(1 0 0 1 2043.27 322)">Semibold</text><text transform="matrix(1 0 0 1 2339.98 322)">Bold</text><text transform="matrix(1 0 0 1 2636.69 322)">Heavy</text><text transform="matrix(1 0 0 1 2933.4 322)">Black</text><text id="template-version" style="text-anchor: end;" transform="matrix(1 0 0 1 3036 1933)">Template v.1.0</text><text class="lanchor" transform="matrix(1 0 0 1 263 726)">Small</text><text class="lanchor" transform="matrix(1 0 0 1 263 1156)">Medium</text><text class="lanchor" transform="matrix(1 0 0 1 263 1586)">Large</text></g><g id="Guides"><g id="H-reference" style="fill:#27AAE1;stroke:none;" transform="matrix(1 0 0 1 339 696)"><path d="M 54.9316 0 L 57.666 0 L 30.5664 -70.459 L 28.0762 -70.459 L 0.976562 0 L 3.66211 0 L 12.9395 -24.4629 L 45.7031 -24.4629 Z M 29.1992 -67.0898 L 29.4434 -67.0898 L 44.8242 -26.709 L 13.8184 -26.709 Z"/></g><line id="Baseline-S" style="fill:none;stroke:#27AAE1;opacity:1;stroke-width:0.577;" x1="263" x2="3036" y1="696" y2="696"/><line id="Capline-S" style="fill:none;stroke:#27AAE1;opacity:1;stroke-width:0.577;" x1="263" x2="3036" y1="625.541" y2="625.541"/><g id="H-reference" style="fill:#27AAE1;stroke:none;" transform="matrix(1 0 0 1 339 1126)"><path d="M 54.9316 0 L 57.666 0 L 30.5664 -70.459 L 28.0762 -70.459 L 0.976562 0 L 3.66211 0 L 12.9395 -24.4629 L 45.7031 -24.4629 Z M 29.1992 -67.0898 L 29.4434 -67.0898 L 44.8242 -26.709 L 13.8184 -26.709 Z"/></g><line id="Baseline-M" style="fill:none;stroke:#27AAE1;opacity:1;stroke-width:0.577;" x1="263" x2="3036" y1="1126" y2="1126"/><line id="Capline-M" style="fill:none;stroke:#27AAE1;opacity:1;stroke-width:0.577;" x1="263" x2="3036" y1="1055.54" y2="1055.54"/><g id="H-reference" style="fill:#27AAE1;stroke:none;" transform="matrix(1 0 0 1 339 1556)"><path d="M 54.9316 0 L 57.666 0 L 30.5664 -70.459 L 28.0762 -70.459 L 0.976562 0 L 3.66211 0 L 12.9395 -24.4629 L 45.7031 -24.4629 Z M 29.1992 -67.0898 L 29.4434 -67.0898 L 44.8242 -26.709 L 13.8184 -26.709 Z"/></g><line id="Baseline-L" style="fill:none;stroke:#27AAE1;opacity:1;stroke-width:0.577;" x1="263" x2="3036" y1="1556" y2="1556"/><line id="Capline-L" style="fill:none;stroke:#27AAE1;opacity:1;stroke-width:0.577;" x1="263" x2="3036" y1="1485.54" y2="1485.54"/><rect height="119.336" id="left-margin" style="fill:darkred;stroke:none;opacity:0.4;" width="12.4512" x="1394.06" y="1030.79"/><rect height="119.336" id="right-margin" style="fill:darkgreen;stroke:none;opacity:0.4;" width="12.4512" x="1502.5112" y="1030.79"/><rect x="1406.5112" y="1045" width="96" height="96" fill="none" stroke="blue" stroke-dasharray="5"/><rect x="1394.06" y="1030.79" width="120.9024" height="119.336" fill="none" stroke="blue"/></g><g id="Symbols"><g id="Bold-L" transform="matrix(1 0 0 1 2266 1556)"><path d="M77.371 -35.552 Q74.498 -35.552 72.643 -37.288 Q70.789 -39.024 70.789 -41.964 Q70.789 -44.744 72.643 -46.759 Q74.498 -48.775 77.371 -48.775 Q80.407 -48.775 82.289 -46.764 Q84.172 -44.752 84.172 -42.112 Q84.172 -39.063 82.257 -37.307 Q80.343 -35.552 77.371 -35.552 Z M65.803 -0.884  54.503 10.081 Q59.435 12.661 65.292 14.193 Q71.148 15.725 77.418 15.725 Q83.85 15.725 89.739 14.354 Q95.629 12.984 100.62 10.081 L89.479 -0.884 H65.803 Z M77.355 -86.185 Q66.83 -86.185 57.563 -82.25 Q48.298 -78.316 41.483 -71.366 Q34.669 -64.416 30.557 -54.988 Q26.445 -45.56 26.445 -35.23 Q26.445 -23.781 30.96 -14.187 Q35.475 -4.592 43.054 2.18 L54.986 -9.591 Q49.359 -14.184 46.287 -20.816 Q43.215 -27.448 43.215 -35.23 Q43.215 -49.712 53.235 -59.645 Q63.257 -69.576 77.481 -69.576 Q91.851 -69.576 101.799 -59.645 Q111.746 -49.712 111.746 -35.23 Q111.746 -27.506 108.602 -20.887 Q105.457 -14.267 99.814 -9.752 L111.746 2.019 Q119.325 -4.754 123.84 -14.343 Q128.355 -23.934 128.355 -35.23 Q128.355 -45.6 124.437 -55.062 Q120.52 -64.526 113.576 -71.394 Q106.635 -78.263 97.176 -82.225 Q87.718 -86.185 77.355 -86.185 Z M77.361 -57.321 Q68.115 -57.321 61.793 -50.962 Q55.47 -44.6 55.47 -35.191 Q55.47 -25.945 61.736 -19.542 Q68.001 -13.139 77.295 -13.139 Q86.752 -13.139 93.122 -19.547 Q99.491 -25.955 99.491 -35.154 Q99.491 -44.515 93.132 -50.918 Q86.77 -57.321 77.361 -57.321 Z M77.427 30.399 Q63.771 30.399 51.91 25.255 Q40.046 20.111 31.134 11.197 Q22.22 2.285 17.076 -9.617 Q11.933 -21.517 11.933 -35.124 Q11.933 -48.67 17.065 -60.664 Q22.199 -72.658 31.124 -81.51 Q40.048 -90.365 51.84 -95.612 Q63.632 -100.859 77.213 -100.859 Q90.792 -100.859 102.802 -95.618 Q114.81 -90.377 123.672 -81.491 Q132.535 -72.606 137.782 -60.678 Q143.029 -48.751 143.029 -35.19 Q143.029 -21.629 137.772 -9.677 Q132.515 2.274 123.646 11.184 Q114.776 20.095 102.852 25.247 Q90.927 30.399 77.427 30.399 Z"/></g><g id="Semibold-L" transform="matrix(1 0 0 1 1970.27 1556)"><path d="M77.395 -35.693 Q74.638 -35.693 72.783 -37.439 Q70.929 -39.185 70.929 -42.011 Q70.929 -44.674 72.783 -46.655 Q74.638 -48.635 77.395 -48.635 Q80.314 -48.635 82.138 -46.663 Q83.963 -44.691 83.963 -42.123 Q83.963 -39.226 82.105 -37.458 Q80.249 -35.693 77.395 -35.693 Z M65.867 -1.164  53.941 10.431 Q59.113 13.151 65.061 14.719 Q71.008 16.286 77.418 16.286 Q83.919 16.286 89.948 14.845 Q95.976 13.405 101.181 10.431 L89.415 -1.164 H65.867 Z M77.365 -86.746 Q66.728 -86.746 57.368 -82.733 Q48.009 -78.721 41.059 -71.708 Q34.108 -64.697 29.996 -55.222 Q25.884 -45.745 25.884 -35.23 Q25.884 -23.641 30.575 -13.766 Q35.265 -3.891 43.123 3.022 L55.617 -9.311 Q49.842 -13.94 46.633 -20.627 Q43.425 -27.314 43.425 -35.23 Q43.425 -49.599 53.366 -59.482 Q63.307 -69.367 77.481 -69.367 Q91.738 -69.367 101.637 -59.482 Q111.537 -49.599 111.537 -35.23 Q111.537 -27.348 108.252 -20.703 Q104.967 -14.058 99.183 -9.472 L111.677 2.86 Q119.535 -4.052 124.225 -13.889 Q128.916 -23.723 128.916 -35.23 Q128.916 -45.779 124.917 -55.283 Q120.917 -64.787 113.915 -71.732 Q106.914 -78.677 97.413 -82.712 Q87.91 -86.746 77.365 -86.746 Z M77.35 -57.252 Q68.156 -57.252 61.814 -50.894 Q55.47 -44.536 55.47 -35.18 Q55.47 -25.986 61.768 -19.597 Q68.067 -13.208 77.308 -13.208 Q86.711 -13.208 93.065 -19.615 Q99.422 -26.019 99.422 -35.167 Q99.422 -44.474 93.064 -50.863 Q86.706 -57.252 77.35 -57.252 Z M77.411 29.628 Q63.981 29.628 52.213 24.547 Q40.443 19.466 31.62 10.642 Q22.794 1.819 17.679 -9.97 Q12.563 -21.758 12.563 -35.174 Q12.563 -48.601 17.673 -60.449 Q22.783 -72.3 31.626 -81.086 Q40.469 -89.874 52.155 -95.017 Q63.839 -100.157 77.245 -100.157 Q90.722 -100.157 102.59 -95.021 Q114.46 -89.887 123.251 -81.07 Q132.044 -72.255 137.187 -60.453 Q142.327 -48.651 142.327 -35.193 Q142.327 -21.804 137.175 -10.012 Q132.025 1.782 123.221 10.612 Q114.418 19.44 102.621 24.534 Q90.826 29.628 77.411 29.628 Z"/></g><g id="Medium-L" transform="matrix(1 0 0 1 1674.31 1556)"><path d="M77.413 -35.798 Q74.743 -35.798 72.888 -37.554 Q71.034 -39.308 71.034 -42.044 Q71.034 -44.621 72.888 -46.576 Q74.743 -48.53 77.413 -48.53 Q80.243 -48.53 82.025 -46.587 Q83.805 -44.644 83.805 -42.131 Q83.805 -39.347 81.992 -37.573 Q80.178 -35.798 77.413 -35.798 Z M65.916 -1.374  53.52 10.694 Q58.872 13.521 64.887 15.114 Q70.903 16.707 77.418 16.707 Q83.973 16.707 90.105 15.214 Q96.237 13.721 101.602 10.694 L89.368 -1.374 H65.916 Z M77.373 -87.167 Q66.653 -87.167 57.223 -83.095 Q47.793 -79.024 40.74 -71.966 Q33.687 -64.906 29.575 -55.396 Q25.463 -45.885 25.463 -35.23 Q25.463 -23.536 30.286 -13.45 Q35.107 -3.365 43.176 3.652 L56.091 -9.101 Q50.205 -13.756 46.895 -20.485 Q43.583 -27.214 43.583 -35.23 Q43.583 -49.514 53.464 -59.361 Q63.344 -69.209 77.481 -69.209 Q91.653 -69.209 101.515 -59.361 Q111.379 -49.514 111.379 -35.23 Q111.379 -27.229 107.989 -20.564 Q104.598 -13.9 98.709 -9.262 L111.624 3.491 Q119.693 -3.527 124.514 -13.547 Q129.337 -23.565 129.337 -35.23 Q129.337 -45.913 125.275 -55.448 Q121.215 -64.982 114.17 -71.985 Q107.125 -78.987 97.59 -83.076 Q88.055 -87.167 77.373 -87.167 Z M77.34 -57.199 Q68.186 -57.199 61.828 -50.842 Q55.47 -44.486 55.47 -35.17 Q55.47 -26.016 61.793 -19.639 Q68.115 -13.261 77.318 -13.261 Q86.68 -13.261 93.025 -19.665 Q99.369 -26.069 99.369 -35.175 Q99.369 -44.444 93.012 -50.821 Q86.656 -57.199 77.34 -57.199 Z M77.4 29.049 Q64.139 29.049 52.44 24.016 Q40.74 18.982 31.982 10.225 Q23.226 1.469 18.131 -10.235 Q13.037 -21.938 13.037 -35.211 Q13.037 -48.548 18.129 -60.29 Q23.222 -72.03 32.003 -80.769 Q40.785 -89.507 52.39 -94.568 Q63.995 -99.632 77.271 -99.632 Q90.669 -99.632 102.432 -94.575 Q114.197 -89.518 122.937 -80.756 Q131.677 -71.992 136.738 -60.283 Q141.802 -48.577 141.802 -35.196 Q141.802 -21.938 136.729 -10.262 Q131.656 1.414 122.902 10.181 Q114.149 18.95 102.449 23.999 Q90.748 29.049 77.4 29.049 Z"/></g><g id="Regular-L" transform="matrix(1 0 0 1 1378.56 1556)"><path d="M77.426 -35.875 Q74.82 -35.875 72.966 -37.636 Q71.111 -39.397 71.111 -42.07 Q71.111 -44.582 72.966 -46.517 Q74.82 -48.452 77.426 -48.452 Q80.193 -48.452 81.941 -46.532 Q83.689 -44.61 83.689 -42.138 Q83.689 -39.435 81.909 -37.655 Q80.128 -35.875 77.426 -35.875 Z M65.951 -1.529  53.212 10.888 Q58.695 13.79 64.76 15.403 Q70.826 17.015 77.418 17.015 Q84.011 17.015 90.219 15.483 Q96.428 13.951 101.91 10.888 L89.332 -1.529 H65.951 Z M77.379 -87.475 Q66.596 -87.475 57.115 -83.36 Q47.633 -79.246 40.506 -72.153 Q33.379 -65.061 29.267 -55.525 Q25.155 -45.987 25.155 -35.23 Q25.155 -23.459 30.073 -13.219 Q34.991 -2.98 43.215 4.115 L56.438 -8.946 Q50.471 -13.622 47.085 -20.382 Q43.699 -27.142 43.699 -35.23 Q43.699 -49.451 53.535 -59.271 Q63.371 -69.092 77.481 -69.092 Q91.59 -69.092 101.426 -59.271 Q111.263 -49.451 111.263 -35.23 Q111.263 -27.142 107.796 -20.463 Q104.329 -13.784 98.362 -9.107 L111.585 3.954 Q119.809 -3.141 124.727 -13.295 Q129.645 -23.451 129.645 -35.23 Q129.645 -46.011 125.54 -55.568 Q121.434 -65.126 114.357 -72.171 Q107.28 -79.214 97.721 -83.345 Q88.162 -87.475 77.379 -87.475 Z M77.334 -57.16 Q68.209 -57.16 61.839 -50.805 Q55.47 -44.45 55.47 -35.164 Q55.47 -26.039 61.81 -19.669 Q68.152 -13.3 77.324 -13.3 Q86.657 -13.3 92.994 -19.703 Q99.33 -26.105 99.33 -35.183 Q99.33 -44.421 92.975 -50.791 Q86.62 -57.16 77.334 -57.16 Z M77.392 28.625 Q64.255 28.625 52.606 23.626 Q40.958 18.628 32.25 9.92 Q23.543 1.213 18.463 -10.428 Q13.384 -22.07 13.384 -35.238 Q13.384 -48.509 18.463 -60.172 Q23.543 -71.834 32.279 -80.535 Q41.016 -89.236 52.563 -94.241 Q64.108 -99.246 77.289 -99.246 Q90.631 -99.246 102.318 -94.247 Q114.004 -89.249 122.705 -80.524 Q131.406 -71.8 136.411 -60.161 Q141.416 -48.522 141.416 -35.198 Q141.416 -22.035 136.401 -10.446 Q131.386 1.145 122.669 9.867 Q113.951 18.59 102.321 23.607 Q90.692 28.625 77.392 28.625 Z"/></g><g id="Light-L" transform="matrix(1 0 0 1 1082.77 1556)"><path d="M77.426 -35.999 Q74.944 -35.999 73.245 -37.668 Q71.545 -39.337 71.545 -41.761 Q71.545 -44.149 73.245 -45.929 Q74.944 -47.708 77.395 -47.708 Q79.945 -47.708 81.599 -45.942 Q83.255 -44.176 83.255 -41.859 Q83.255 -39.374 81.567 -37.686 Q79.878 -35.999 77.426 -35.999 Z M65.89 -3.762  52.406 9.46 Q58.013 12.611 64.295 14.379 Q70.578 16.146 77.418 16.146 Q84.26 16.146 90.653 14.459 Q97.048 12.773 102.655 9.46 L89.208 -3.762 H65.89 Z M77.366 -86.606 Q66.782 -86.606 57.426 -82.554 Q48.069 -78.501 41.096 -71.502 Q34.124 -64.503 30.073 -55.151 Q26.024 -45.798 26.024 -35.251 Q26.024 -23.335 31.065 -13.158 Q36.107 -2.98 44.455 3.991 L58.671 -10.125 Q52.705 -14.429 49.318 -20.909 Q45.932 -27.39 45.932 -35.23 Q45.932 -48.561 55.109 -57.742 Q64.287 -66.922 77.481 -66.922 Q90.7 -66.922 99.896 -57.742 Q109.092 -48.561 109.092 -35.23 Q109.092 -27.39 105.595 -20.927 Q102.095 -14.466 96.129 -10.162 L110.345 3.892 Q118.715 -3.025 123.746 -13.176 Q128.776 -23.327 128.776 -35.251 Q128.776 -45.821 124.733 -55.194 Q120.689 -64.568 113.705 -71.519 Q106.72 -78.471 97.335 -82.539 Q87.951 -86.606 77.366 -86.606 Z M77.316 -57.345 Q68.11 -57.345 61.728 -50.899 Q55.346 -44.45 55.346 -35.146 Q55.346 -25.94 61.699 -19.558 Q68.054 -13.176 77.306 -13.176 Q86.657 -13.176 93.086 -19.592 Q99.515 -26.006 99.515 -35.164 Q99.515 -44.421 93.069 -50.884 Q86.62 -57.345 77.316 -57.345 Z M77.376 25.4 Q64.905 25.4 53.83 20.68 Q42.755 15.96 34.483 7.687 Q26.21 -0.585 21.409 -11.649 Q16.609 -22.711 16.609 -35.207 Q16.609 -47.807 21.409 -58.89 Q26.21 -69.973 34.512 -78.271 Q42.815 -86.569 53.782 -91.295 Q64.748 -96.021 77.258 -96.021 Q89.929 -96.021 101.036 -91.301 Q112.143 -86.582 120.441 -78.26 Q128.739 -69.939 133.465 -58.889 Q138.191 -47.84 138.191 -35.182 Q138.191 -22.685 133.455 -11.67 Q128.719 -0.655 120.405 7.646 Q112.09 15.946 101.049 20.672 Q90.01 25.4 77.376 25.4 Z"/></g><g id="Thin-L" transform="matrix(1 0 0 1 787.282 1556)"><path d="M77.426 -36.123 Q75.068 -36.123 73.524 -37.7 Q71.979 -39.276 71.979 -41.449 Q71.979 -43.715 73.524 -45.339 Q75.068 -46.964 77.363 -46.964 Q79.696 -46.964 81.259 -45.353 Q82.821 -43.742 82.821 -41.58 Q82.821 -39.311 81.225 -37.718 Q79.628 -36.123 77.426 -36.123 Z M65.827 -5.994  51.6 8.035 Q57.331 11.433 63.831 13.356 Q70.329 15.278 77.418 15.278 Q84.508 15.278 91.087 13.437 Q97.668 11.594 103.398 8.035 L89.084 -5.994 H65.827 Z M77.355 -85.738 Q66.969 -85.738 57.736 -81.747 Q48.502 -77.758 41.685 -70.852 Q34.867 -63.945 30.879 -54.777 Q26.892 -45.608 26.892 -35.27 Q26.892 -23.21 32.058 -13.095 Q37.225 -2.98 45.695 3.867 L60.903 -11.304 Q54.936 -15.235 51.55 -21.437 Q48.164 -27.638 48.164 -35.23 Q48.164 -47.672 56.683 -56.212 Q65.201 -64.752 77.481 -64.752 Q89.811 -64.752 98.366 -56.212 Q106.922 -47.672 106.922 -35.23 Q106.922 -27.638 103.392 -21.393 Q99.864 -15.148 93.897 -11.217 L109.105 3.83 Q117.622 -2.911 122.764 -13.057 Q127.908 -23.202 127.908 -35.27 Q127.908 -45.632 123.927 -54.822 Q119.944 -64.01 113.054 -70.868 Q106.162 -77.726 96.952 -81.733 Q87.741 -85.738 77.355 -85.738 Z M77.297 -57.532 Q68.012 -57.532 61.617 -50.991 Q55.222 -44.45 55.222 -35.127 Q55.222 -25.842 61.588 -19.447 Q67.956 -13.052 77.287 -13.052 Q86.657 -13.052 93.18 -19.481 Q99.702 -25.908 99.702 -35.146 Q99.702 -44.421 93.161 -50.976 Q86.62 -57.532 77.297 -57.532 Z M77.36 22.175 Q65.553 22.175 55.054 17.734 Q44.555 13.293 36.715 5.455 Q28.877 -2.385 24.355 -12.868 Q19.834 -23.351 19.834 -35.177 Q19.834 -47.106 24.355 -57.61 Q28.877 -68.112 36.744 -76.007 Q44.613 -83.903 55.001 -88.349 Q65.388 -92.796 77.227 -92.796 Q89.228 -92.796 99.756 -88.355 Q110.282 -83.915 118.177 -75.997 Q126.073 -68.078 130.519 -57.618 Q134.966 -47.158 134.966 -35.164 Q134.966 -23.333 130.509 -12.894 Q126.052 -2.453 118.141 5.424 Q110.229 13.301 99.778 17.739 Q89.328 22.175 77.36 22.175 Z"/></g><g id="Ultralight-L" transform="matrix(1 0 0 1 491.205 1556)"><path d="M77.426 -36.197 Q75.142 -36.197 73.691 -37.718 Q72.24 -39.24 72.24 -41.264 Q72.24 -43.454 73.691 -44.986 Q75.142 -46.517 77.345 -46.517 Q79.548 -46.517 81.054 -45 Q82.56 -43.481 82.56 -41.412 Q82.56 -39.274 81.02 -37.736 Q79.479 -36.197 77.426 -36.197 Z M65.79 -7.334  51.116 7.179 Q56.921 10.726 63.55 12.742 Q70.181 14.758 77.418 14.758 Q84.656 14.758 91.348 12.823 Q98.04 10.888 103.845 7.179 L89.01 -7.334 H65.79 Z M77.348 -85.217 Q67.08 -85.217 57.921 -81.264 Q48.762 -77.311 42.038 -70.46 Q35.314 -63.61 31.363 -54.553 Q27.413 -45.495 27.413 -35.283 Q27.413 -23.136 32.653 -13.058 Q37.894 -2.98 46.44 3.793 L62.242 -12.01 Q56.276 -15.719 52.89 -21.753 Q49.504 -27.787 49.504 -35.23 Q49.504 -47.138 57.628 -55.293 Q65.751 -63.449 77.481 -63.449 Q89.278 -63.449 97.448 -55.293 Q105.619 -47.138 105.619 -35.23 Q105.619 -27.787 102.071 -21.672 Q98.524 -15.557 92.558 -11.849 L108.36 3.793 Q116.966 -2.841 122.176 -12.984 Q127.388 -23.128 127.388 -35.283 Q127.388 -45.519 123.443 -54.596 Q119.499 -63.674 112.664 -70.478 Q105.828 -77.279 96.721 -81.249 Q87.615 -85.217 77.348 -85.217 Z M77.286 -57.644 Q67.952 -57.644 61.551 -51.047 Q55.148 -44.45 55.148 -35.116 Q55.148 -25.782 61.522 -19.381 Q67.896 -12.977 77.277 -12.977 Q86.657 -12.977 93.236 -19.413 Q99.814 -25.848 99.814 -35.135 Q99.814 -44.421 93.217 -51.032 Q86.62 -57.644 77.286 -57.644 Z M77.35 20.24 Q65.943 20.24 55.788 15.967 Q45.634 11.694 38.055 4.115 Q30.476 -3.464 26.123 -13.598 Q21.769 -23.734 21.769 -35.157 Q21.769 -46.685 26.123 -56.841 Q30.476 -66.996 38.084 -74.649 Q45.692 -82.302 55.733 -86.582 Q65.772 -90.861 77.208 -90.861 Q88.807 -90.861 98.987 -86.588 Q109.166 -82.315 116.819 -74.638 Q124.472 -66.962 128.752 -56.855 Q133.031 -46.748 133.031 -35.154 Q133.031 -23.723 128.742 -13.627 Q124.453 -3.531 116.784 4.092 Q109.113 11.716 99.016 15.978 Q88.918 20.24 77.35 20.24 Z"/></g><g id="Bold-M" transform="matrix(1 0 0 1 2281.8 1126)"><path d="M60.04 -32.48 Q56.625 -32.48 54.188 -34.69 Q51.75 -36.901 51.75 -40.315 Q51.75 -43.73 54.188 -46.105 Q56.625 -48.48 60.04 -48.48 Q63.454 -48.48 65.728 -46.105 Q68 -43.73 68 -40.315 Q68 -36.901 65.728 -34.69 Q63.454 -32.48 60.04 -32.48 Z M51.25 -5.355  43.625 2.145 Q47.449 3.895 51.506 4.77 Q55.564 5.645 59.969 5.645 Q64.375 5.645 68.569 4.77 Q72.761 3.895 76.5 2.145 L68.875 -5.355 H51.25 Z M59.962 -76.105 Q51.5 -76.105 44.021 -72.951 Q36.544 -69.796 31.021 -64.201 Q25.5 -58.605 22.312 -51.079 Q19.125 -43.554 19.125 -35.23 Q19.125 -26.98 22.062 -19.792 Q25 -12.605 30.375 -6.98 L38.125 -14.73 Q34.375 -18.73 32.25 -23.974 Q30.125 -29.217 30.125 -35.23 Q30.125 -47.682 38.836 -56.394 Q47.547 -65.105 60 -65.105 Q72.453 -65.105 81.164 -56.394 Q89.875 -47.682 89.875 -35.23 Q89.875 -29.217 87.75 -23.974 Q85.625 -18.73 81.875 -14.73 L89.625 -6.98 Q94.875 -12.605 97.875 -19.77 Q100.875 -26.934 100.875 -35.23 Q100.875 -43.571 97.721 -51.112 Q94.566 -58.654 88.971 -64.191 Q83.375 -69.73 75.838 -72.917 Q68.299 -76.105 59.962 -76.105 Z M60.008 -50.73 Q53.5 -50.73 49 -46.237 Q44.5 -41.745 44.5 -35.237 Q44.5 -28.73 48.956 -24.23 Q53.411 -19.73 59.956 -19.73 Q66.5 -19.73 71 -24.222 Q75.5 -28.715 75.5 -35.222 Q75.5 -41.73 71.007 -46.23 Q66.515 -50.73 60.008 -50.73 Z M60.054 22.52 Q48 22.52 37.5 17.958 Q27 13.395 19.125 5.583 Q11.25 -2.23 6.75 -12.71 Q2.25 -23.19 2.25 -35.21 Q2.25 -47.105 6.75 -57.667 Q11.25 -68.23 19.125 -76.042 Q27 -83.855 37.446 -88.417 Q47.894 -92.98 59.946 -92.98 Q71.875 -92.98 82.438 -88.417 Q93 -83.855 100.812 -76.042 Q108.625 -68.23 113.188 -57.721 Q117.75 -47.211 117.75 -35.284 Q117.75 -23.23 113.188 -12.73 Q108.625 -2.23 100.812 5.583 Q93 13.395 82.491 17.958 Q71.981 22.52 60.054 22.52 Z"/></g><g id="Semibold-M" transform="matrix(1 0 0 1 1985.97 1126)"><path d="M60.031 -32.806 Q56.788 -32.806 54.459 -34.944 Q52.13 -37.081 52.13 -40.324 Q52.13 -43.567 54.459 -45.834 Q56.788 -48.1 60.031 -48.1 Q63.274 -48.1 65.446 -45.834 Q67.62 -43.567 67.62 -40.324 Q67.62 -37.081 65.446 -34.944 Q63.274 -32.806 60.031 -32.806 Z M51.359 -5.952  43.299 2.036 Q47.199 3.841 51.328 4.77 Q55.455 5.699 59.969 5.699 Q64.484 5.699 68.729 4.77 Q72.974 3.841 76.826 2.036 L68.766 -5.952 H51.359 Z M59.97 -76.159 Q51.5 -76.159 44.019 -72.971 Q36.538 -69.784 30.991 -64.195 Q25.446 -58.605 22.259 -51.111 Q19.071 -43.619 19.071 -35.23 Q19.071 -26.817 22.199 -19.439 Q25.326 -12.061 30.919 -6.436 L39.104 -14.621 Q35.19 -18.621 32.929 -23.867 Q30.669 -29.114 30.669 -35.23 Q30.669 -47.486 39.206 -56.024 Q47.744 -64.561 60 -64.561 Q72.256 -64.561 80.794 -56.024 Q89.331 -47.486 89.331 -35.23 Q89.331 -29.114 87.071 -23.867 Q84.81 -18.621 80.896 -14.621 L89.081 -6.436 Q94.604 -12.061 97.766 -19.389 Q100.929 -26.716 100.929 -35.23 Q100.929 -43.631 97.741 -51.135 Q94.554 -58.639 88.965 -64.185 Q83.375 -69.73 75.873 -72.945 Q68.37 -76.159 59.97 -76.159 Z M59.998 -50.621 Q53.554 -50.621 49.054 -46.146 Q44.554 -41.671 44.554 -35.227 Q44.554 -28.784 49.02 -24.311 Q53.485 -19.839 59.965 -19.839 Q66.446 -19.839 70.919 -24.314 Q75.391 -28.789 75.391 -35.232 Q75.391 -41.676 70.916 -46.149 Q66.441 -50.621 59.998 -50.621 Z M60.041 20.89 Q48.326 20.89 38.097 16.463 Q27.87 12.036 20.212 4.441 Q12.554 -3.154 8.162 -13.346 Q3.771 -23.539 3.771 -35.221 Q3.771 -46.834 8.162 -57.097 Q12.554 -67.36 20.212 -74.982 Q27.87 -82.605 38.056 -87.031 Q48.242 -91.459 59.959 -91.459 Q71.604 -91.459 81.868 -87.031 Q92.13 -82.605 99.752 -74.982 Q107.375 -67.36 111.801 -57.139 Q116.229 -46.916 116.229 -35.271 Q116.229 -23.556 111.801 -13.355 Q107.375 -3.154 99.752 4.441 Q92.13 12.036 81.909 16.463 Q71.686 20.89 60.041 20.89 Z"/></g><g id="Medium-M" transform="matrix(1 0 0 1 1689.91 1126)"><path d="M60.025 -33.051 Q56.91 -33.051 54.663 -35.134 Q52.416 -37.216 52.416 -40.33 Q52.416 -43.445 54.663 -45.63 Q56.91 -47.814 60.025 -47.814 Q63.139 -47.814 65.236 -45.63 Q67.334 -43.445 67.334 -40.33 Q67.334 -37.216 65.236 -35.134 Q63.139 -33.051 60.025 -33.051 Z M51.44 -6.401  43.054 1.955 Q47.013 3.8 51.193 4.77 Q55.374 5.74 59.969 5.74 Q64.565 5.74 68.849 4.77 Q73.134 3.8 77.071 1.955 L68.685 -6.401 H51.44 Z M59.976 -76.2 Q51.5 -76.2 44.016 -72.987 Q36.532 -69.775 30.969 -64.19 Q25.405 -58.605 22.218 -51.136 Q19.03 -43.667 19.03 -35.23 Q19.03 -26.695 22.3 -19.174 Q25.571 -11.654 31.326 -6.029 L39.837 -14.54 Q35.801 -18.54 33.439 -23.789 Q31.076 -29.036 31.076 -35.23 Q31.076 -47.339 39.484 -55.746 Q47.891 -64.154 60 -64.154 Q72.109 -64.154 80.516 -55.746 Q88.924 -47.339 88.924 -35.23 Q88.924 -29.036 86.561 -23.789 Q84.199 -18.54 80.162 -14.54 L88.674 -6.029 Q94.4 -11.654 97.685 -19.104 Q100.97 -26.554 100.97 -35.23 Q100.97 -43.676 97.757 -51.152 Q94.545 -58.627 88.96 -64.179 Q83.375 -69.73 75.899 -72.965 Q68.422 -76.2 59.976 -76.2 Z M59.99 -50.54 Q53.595 -50.54 49.095 -46.077 Q44.595 -41.616 44.595 -35.22 Q44.595 -28.825 49.068 -24.372 Q53.54 -19.92 59.972 -19.92 Q66.405 -19.92 70.858 -24.382 Q75.31 -28.844 75.31 -35.24 Q75.31 -41.635 70.847 -46.087 Q66.386 -50.54 59.99 -50.54 Z M60.032 19.666 Q48.571 19.666 38.546 15.343 Q28.521 11.018 21.027 3.585 Q13.533 -3.846 9.223 -13.824 Q4.912 -23.801 4.912 -35.23 Q4.912 -46.63 9.223 -56.669 Q13.533 -66.709 21.027 -74.187 Q28.521 -81.667 38.513 -85.992 Q48.505 -90.317 59.968 -90.317 Q71.4 -90.317 81.439 -85.992 Q91.479 -81.667 98.957 -74.187 Q106.438 -66.709 110.763 -56.702 Q115.088 -46.695 115.088 -35.262 Q115.088 -23.801 110.763 -13.824 Q106.438 -3.846 98.957 3.585 Q91.479 11.018 81.472 15.343 Q71.465 19.666 60.032 19.666 Z"/></g><g id="Regular-M" transform="matrix(1 0 0 1 1394.06 1126)"><path d="M60.02 -33.23 Q57 -33.23 54.812 -35.272 Q52.625 -37.315 52.625 -40.335 Q52.625 -43.355 54.812 -45.48 Q57 -47.605 60.02 -47.605 Q63.04 -47.605 65.082 -45.48 Q67.125 -43.355 67.125 -40.335 Q67.125 -37.315 65.082 -35.272 Q63.04 -33.23 60.02 -33.23 Z M51.5 -6.73  42.875 1.895 Q46.875 3.77 51.094 4.77 Q55.314 5.77 59.969 5.77 Q64.625 5.77 68.938 4.77 Q73.25 3.77 77.25 1.895 L68.625 -6.73 H51.5 Z M59.98 -76.23 Q51.5 -76.23 44.015 -72.999 Q36.53 -69.767 30.953 -64.186 Q25.375 -58.605 22.188 -51.154 Q19 -43.704 19 -35.23 Q19 -26.605 22.375 -18.98 Q25.75 -11.355 31.625 -5.73 L40.375 -14.48 Q36.25 -18.48 33.812 -23.73 Q31.375 -28.98 31.375 -35.23 Q31.375 -47.23 39.688 -55.542 Q48 -63.855 60 -63.855 Q72 -63.855 80.312 -55.542 Q88.625 -47.23 88.625 -35.23 Q88.625 -28.98 86.188 -23.73 Q83.75 -18.48 79.625 -14.48 L88.375 -5.73 Q94.25 -11.355 97.625 -18.895 Q101 -26.434 101 -35.23 Q101 -43.709 97.769 -51.164 Q94.537 -58.62 88.956 -64.175 Q83.375 -69.73 75.918 -72.98 Q68.461 -76.23 59.98 -76.23 Z M59.985 -50.48 Q53.625 -50.48 49.125 -46.027 Q44.625 -41.575 44.625 -35.215 Q44.625 -28.855 49.102 -24.417 Q53.581 -19.98 59.977 -19.98 Q66.375 -19.98 70.812 -24.432 Q75.25 -28.885 75.25 -35.245 Q75.25 -41.605 70.797 -46.042 Q66.345 -50.48 59.985 -50.48 Z M60.026 18.77 Q48.75 18.77 38.875 14.52 Q29 10.27 21.625 2.958 Q14.25 -4.355 10 -14.174 Q5.75 -23.994 5.75 -35.236 Q5.75 -46.48 10 -56.355 Q14.25 -66.23 21.625 -73.605 Q29 -80.98 38.849 -85.23 Q48.696 -89.48 59.974 -89.48 Q71.25 -89.48 81.125 -85.23 Q91 -80.98 98.375 -73.605 Q105.75 -66.23 110 -56.381 Q114.25 -46.534 114.25 -35.256 Q114.25 -23.98 110 -14.167 Q105.75 -4.355 98.375 2.958 Q91 10.27 81.151 14.52 Q71.304 18.77 60.026 18.77 Z"/></g><g id="Light-M" transform="matrix(1 0 0 1 1098.18 1126)"><path d="M60.02 -33.711 Q57.289 -33.711 55.294 -35.585 Q53.299 -37.46 53.299 -40.142 Q53.299 -42.874 55.294 -44.806 Q57.289 -46.74 60.02 -46.74 Q62.703 -46.74 64.578 -44.806 Q66.451 -42.874 66.451 -40.142 Q66.451 -37.46 64.578 -35.585 Q62.703 -33.711 60.02 -33.711 Z M51.26 -8.605  41.481 1.174 Q45.721 3.385 50.325 4.578 Q54.929 5.77 59.969 5.77 Q65.01 5.77 69.706 4.578 Q74.404 3.385 78.644 1.174 L68.769 -8.605 H51.26 Z M59.98 -76.23 Q51.5 -76.23 44.015 -72.999 Q36.53 -69.767 30.953 -64.186 Q25.375 -58.605 22.188 -51.154 Q19 -43.704 19 -35.23 Q19 -26.316 22.591 -18.524 Q26.183 -10.73 32.394 -5.105 L42.539 -15.249 Q38.27 -18.912 35.76 -23.995 Q33.25 -29.076 33.25 -35.23 Q33.25 -46.461 41.01 -54.22 Q48.769 -61.98 60 -61.98 Q71.231 -61.98 78.99 -54.22 Q86.75 -46.461 86.75 -35.23 Q86.75 -29.076 84.24 -23.97 Q81.73 -18.865 77.461 -15.201 L87.606 -5.056 Q93.817 -10.681 97.409 -18.414 Q101 -26.145 101 -35.23 Q101 -43.709 97.769 -51.164 Q94.537 -58.62 88.956 -64.175 Q83.375 -69.73 75.918 -72.98 Q68.461 -76.23 59.98 -76.23 Z M59.985 -51.105 Q53.336 -51.105 48.669 -46.46 Q44 -41.816 44 -35.215 Q44 -28.566 48.646 -23.961 Q53.292 -19.355 59.977 -19.355 Q66.615 -19.355 71.245 -23.975 Q75.875 -28.596 75.875 -35.245 Q75.875 -41.845 71.23 -46.475 Q66.586 -51.105 59.985 -51.105 Z M60.026 16.27 Q49.279 16.27 39.861 12.236 Q30.442 8.203 23.38 1.203 Q16.317 -5.797 12.284 -15.16 Q8.25 -24.522 8.25 -35.236 Q8.25 -45.951 12.284 -55.369 Q16.317 -64.787 23.38 -71.85 Q30.442 -78.912 39.834 -82.946 Q49.225 -86.98 59.974 -86.98 Q70.721 -86.98 80.139 -82.946 Q89.558 -78.912 96.62 -71.85 Q103.683 -64.787 107.716 -55.396 Q111.75 -46.005 111.75 -35.256 Q111.75 -24.509 107.716 -15.154 Q103.683 -5.797 96.62 1.203 Q89.558 8.203 80.166 12.236 Q70.775 16.27 60.026 16.27 Z"/></g><g id="Thin-M" transform="matrix(1 0 0 1 802.565 1126)"><path d="M60.02 -34.191 Q57.578 -34.191 55.774 -35.897 Q53.971 -37.604 53.971 -39.951 Q53.971 -42.394 55.774 -44.134 Q57.578 -45.874 60.02 -45.874 Q62.366 -45.874 64.073 -44.134 Q65.779 -42.394 65.779 -39.951 Q65.779 -37.604 64.073 -35.897 Q62.366 -34.191 60.02 -34.191 Z M51.019 -10.48  40.086 0.453 Q44.568 3.001 49.556 4.385 Q54.544 5.77 59.969 5.77 Q65.394 5.77 70.476 4.385 Q75.558 3.001 80.039 0.453 L68.914 -10.48 H51.019 Z M59.98 -76.23 Q51.5 -76.23 44.015 -72.999 Q36.53 -69.767 30.953 -64.186 Q25.375 -58.605 22.188 -51.154 Q19 -43.704 19 -35.23 Q19 -26.027 22.808 -18.066 Q26.615 -10.105 33.164 -4.48 L44.703 -16.019 Q40.289 -19.345 37.706 -24.259 Q35.125 -29.172 35.125 -35.23 Q35.125 -45.691 42.331 -52.899 Q49.539 -60.105 60 -60.105 Q70.461 -60.105 77.669 -52.899 Q84.875 -45.691 84.875 -35.23 Q84.875 -29.172 82.294 -24.211 Q79.711 -19.249 75.297 -15.922 L86.836 -4.384 Q93.385 -10.009 97.192 -17.932 Q101 -25.857 101 -35.23 Q101 -43.709 97.769 -51.164 Q94.537 -58.62 88.956 -64.175 Q83.375 -69.73 75.918 -72.98 Q68.461 -76.23 59.98 -76.23 Z M59.985 -51.73 Q53.047 -51.73 48.211 -46.894 Q43.375 -42.056 43.375 -35.215 Q43.375 -28.277 48.19 -23.504 Q53.004 -18.73 59.977 -18.73 Q66.856 -18.73 71.677 -23.519 Q76.5 -28.307 76.5 -35.245 Q76.5 -42.086 71.664 -46.907 Q66.826 -51.73 59.985 -51.73 Z M60.026 13.77 Q49.807 13.77 40.846 9.953 Q31.885 6.135 25.135 -0.552 Q18.385 -7.24 14.568 -16.145 Q10.75 -25.051 10.75 -35.236 Q10.75 -45.422 14.568 -54.384 Q18.385 -63.345 25.135 -70.095 Q31.885 -76.845 40.82 -80.662 Q49.754 -84.48 59.974 -84.48 Q70.192 -84.48 79.154 -80.662 Q88.115 -76.845 94.865 -70.095 Q101.615 -63.345 105.433 -54.41 Q109.25 -45.476 109.25 -35.256 Q109.25 -25.037 105.433 -16.139 Q101.615 -7.24 94.865 -0.552 Q88.115 6.135 79.18 9.953 Q70.246 13.77 60.026 13.77 Z"/></g><g id="Ultralight-M" transform="matrix(1 0 0 1 506.415 1126)"><path d="M60.02 -34.48 Q57.75 -34.48 56.062 -36.085 Q54.375 -37.69 54.375 -39.835 Q54.375 -42.105 56.062 -43.73 Q57.75 -45.355 60.02 -45.355 Q62.165 -45.355 63.77 -43.73 Q65.375 -42.105 65.375 -39.835 Q65.375 -37.69 63.77 -36.085 Q62.165 -34.48 60.02 -34.48 Z M50.875 -11.605  39.25 0.02 Q43.875 2.77 49.094 4.27 Q54.314 5.77 59.969 5.77 Q65.625 5.77 70.938 4.27 Q76.25 2.77 80.875 0.02 L69 -11.605 H50.875 Z M59.98 -76.23 Q51.5 -76.23 44.015 -72.999 Q36.53 -69.767 30.953 -64.186 Q25.375 -58.605 22.188 -51.154 Q19 -43.704 19 -35.23 Q19 -25.855 22.938 -17.792 Q26.875 -9.73 33.625 -4.105 L46 -16.48 Q41.5 -19.605 38.875 -24.417 Q36.25 -29.23 36.25 -35.23 Q36.25 -45.23 43.125 -52.105 Q50 -58.98 60 -58.98 Q70 -58.98 76.875 -52.105 Q83.75 -45.23 83.75 -35.23 Q83.75 -29.23 81.125 -24.355 Q78.5 -19.48 74 -16.355 L86.375 -3.98 Q93.125 -9.605 97.062 -17.645 Q101 -25.684 101 -35.23 Q101 -43.709 97.769 -51.164 Q94.537 -58.62 88.956 -64.175 Q83.375 -69.73 75.918 -72.98 Q68.461 -76.23 59.98 -76.23 Z M59.985 -52.105 Q52.875 -52.105 47.938 -47.152 Q43 -42.2 43 -35.215 Q43 -28.105 47.915 -23.23 Q52.831 -18.355 59.977 -18.355 Q67 -18.355 71.938 -23.245 Q76.875 -28.135 76.875 -35.245 Q76.875 -42.23 71.922 -47.167 Q66.97 -52.105 59.985 -52.105 Z M60.026 12.27 Q50.125 12.27 41.438 8.583 Q32.75 4.895 26.188 -1.605 Q19.625 -8.105 15.938 -16.736 Q12.25 -25.369 12.25 -35.236 Q12.25 -45.105 15.938 -53.792 Q19.625 -62.48 26.188 -69.042 Q32.75 -75.605 41.411 -79.292 Q50.071 -82.98 59.974 -82.98 Q69.875 -82.98 78.562 -79.292 Q87.25 -75.605 93.812 -69.042 Q100.375 -62.48 104.062 -53.819 Q107.75 -45.159 107.75 -35.256 Q107.75 -25.355 104.062 -16.73 Q100.375 -8.105 93.812 -1.605 Q87.25 4.895 78.589 8.583 Q69.929 12.27 60.026 12.27 Z"/></g><g id="Bold-S" transform="matrix(1 0 0 1 2294.23 696)"><path d="M47.392 -33.06 Q44.874 -33.06 43.05 -34.685 Q41.225 -36.31 41.225 -38.827 Q41.225 -41.345 43.029 -43.12 Q44.833 -44.895 47.351 -44.895 Q49.868 -44.895 51.563 -43.141 Q53.258 -41.386 53.258 -38.868 Q53.258 -36.351 51.584 -34.705 Q49.909 -33.06 47.392 -33.06 Z M39.845 -12.448  34.617 -7.319 Q37.536 -5.938 40.737 -5.248 Q43.938 -4.558 47.315 -4.558 Q50.693 -4.558 54.002 -5.248 Q57.31 -5.938 60.161 -7.319 L54.836 -12.448 H39.845 Z M47.31 -65.902 Q41.028 -65.902 35.41 -63.523 Q29.793 -61.142 25.646 -56.915 Q21.5 -52.687 19.084 -47.065 Q16.668 -41.442 16.668 -35.234 Q16.668 -29.115 18.8 -23.736 Q20.932 -18.357 24.854 -14.124 L30.475 -19.746 Q27.615 -22.705 26.086 -26.692 Q24.558 -30.679 24.558 -35.249 Q24.558 -44.759 31.207 -51.386 Q37.855 -58.012 47.363 -58.012 Q56.869 -58.012 63.496 -51.374 Q70.122 -44.735 70.122 -35.243 Q70.122 -30.683 68.594 -26.694 Q67.065 -22.705 64.205 -19.746 L69.827 -14.124 Q73.649 -18.347 75.831 -23.694 Q78.012 -29.041 78.012 -35.23 Q78.012 -41.453 75.623 -47.09 Q73.232 -52.725 69.028 -56.907 Q64.823 -61.089 59.158 -63.496 Q53.493 -65.902 47.31 -65.902 Z M47.346 -47.459 Q42.212 -47.459 38.661 -43.915 Q35.111 -40.37 35.111 -35.236 Q35.111 -30.101 38.626 -26.551 Q42.141 -23 47.305 -23 Q52.468 -23 56.019 -26.545 Q59.57 -30.09 59.57 -35.224 Q59.57 -40.358 56.025 -43.909 Q52.48 -47.459 47.346 -47.459 Z M47.382 7.968 Q38.365 7.968 30.512 4.555 Q22.657 1.143 16.763 -4.703 Q10.868 -10.547 7.505 -18.386 Q4.142 -26.224 4.142 -35.214 Q4.142 -44.106 7.505 -52.009 Q10.868 -59.913 16.763 -65.757 Q22.657 -71.603 30.469 -75.015 Q38.281 -78.428 47.298 -78.428 Q56.216 -78.428 64.119 -75.015 Q72.023 -71.603 77.867 -65.757 Q83.713 -59.913 87.125 -52.051 Q90.538 -44.19 90.538 -35.272 Q90.538 -26.255 87.125 -18.402 Q83.713 -10.547 77.867 -4.703 Q72.023 1.143 64.161 4.555 Q56.3 7.968 47.382 7.968 Z"/></g><g id="Semibold-S" transform="matrix(1 0 0 1 1998.1 696)"><path d="M47.385 -33.318 Q45.003 -33.318 43.264 -34.885 Q41.525 -36.452 41.525 -38.834 Q41.525 -41.217 43.243 -42.906 Q44.961 -44.595 47.344 -44.595 Q49.726 -44.595 51.341 -42.927 Q52.958 -41.258 52.958 -38.875 Q52.958 -36.493 51.362 -34.906 Q49.767 -33.318 47.385 -33.318 Z M39.93 -12.919  34.36 -7.405 Q37.338 -5.981 40.596 -5.248 Q43.853 -4.515 47.315 -4.515 Q50.779 -4.515 54.128 -5.248 Q57.478 -5.981 60.419 -7.405 L54.75 -12.919 H39.93 Z M47.316 -65.945 Q41.028 -65.945 35.407 -63.538 Q29.788 -61.132 25.623 -56.91 Q21.458 -52.687 19.042 -47.091 Q16.625 -41.494 16.625 -35.234 Q16.625 -28.987 18.907 -23.457 Q21.19 -17.928 25.283 -13.695 L31.247 -19.66 Q28.258 -22.619 26.622 -26.608 Q24.987 -30.598 24.987 -35.249 Q24.987 -44.604 31.499 -51.094 Q38.011 -57.583 47.363 -57.583 Q56.714 -57.583 63.204 -51.082 Q69.693 -44.58 69.693 -35.243 Q69.693 -30.602 68.058 -26.61 Q66.422 -22.619 63.433 -19.66 L69.397 -13.695 Q73.434 -17.918 75.745 -23.394 Q78.055 -28.87 78.055 -35.23 Q78.055 -41.501 75.638 -47.107 Q73.222 -52.713 69.023 -56.902 Q64.823 -61.089 59.186 -63.518 Q53.549 -65.945 47.316 -65.945 Z M47.338 -47.374 Q42.254 -47.374 38.703 -43.843 Q35.153 -40.312 35.153 -35.228 Q35.153 -30.144 38.677 -26.615 Q42.2 -23.086 47.312 -23.086 Q52.426 -23.086 55.955 -26.617 Q59.484 -30.148 59.484 -35.232 Q59.484 -40.316 55.953 -43.845 Q52.422 -47.374 47.338 -47.374 Z M47.373 6.682 Q38.623 6.682 30.983 3.376 Q23.344 0.071 17.62 -5.603 Q11.897 -11.276 8.62 -18.888 Q5.343 -26.499 5.343 -35.223 Q5.343 -43.892 8.62 -51.559 Q11.897 -59.226 17.62 -64.922 Q23.344 -70.617 30.95 -73.922 Q38.556 -77.227 47.307 -77.227 Q56.002 -77.227 63.669 -73.922 Q71.336 -70.617 77.032 -64.922 Q82.727 -59.226 86.032 -51.592 Q89.337 -43.957 89.337 -35.263 Q89.337 -26.513 86.032 -18.895 Q82.727 -11.276 77.032 -5.603 Q71.336 0.071 63.702 3.376 Q56.067 6.682 47.373 6.682 Z"/></g><g id="Medium-S" transform="matrix(1 0 0 1 1701.85 696)"><path d="M47.38 -33.511 Q45.099 -33.511 43.425 -35.035 Q41.751 -36.558 41.751 -38.839 Q41.751 -41.12 43.404 -42.745 Q45.058 -44.37 47.339 -44.37 Q49.619 -44.37 51.176 -42.766 Q52.732 -41.161 52.732 -38.88 Q52.732 -36.6 51.196 -35.055 Q49.661 -33.511 47.38 -33.511 Z M39.994 -13.273  34.167 -7.469 Q37.191 -6.013 40.49 -5.248 Q43.789 -4.483 47.315 -4.483 Q50.843 -4.483 54.223 -5.248 Q57.604 -6.013 60.612 -7.469 L54.686 -13.273 H39.994 Z M47.321 -65.977 Q41.028 -65.977 35.406 -63.551 Q29.784 -61.125 25.605 -56.906 Q21.425 -52.687 19.009 -47.109 Q16.593 -41.532 16.593 -35.234 Q16.593 -28.89 18.987 -23.248 Q21.383 -17.607 25.604 -13.374 L31.826 -19.596 Q28.74 -22.555 27.024 -26.546 Q25.308 -30.536 25.308 -35.249 Q25.308 -44.488 31.718 -50.875 Q38.127 -57.262 47.363 -57.262 Q56.598 -57.262 62.985 -50.863 Q69.372 -44.463 69.372 -35.243 Q69.372 -30.54 67.656 -26.548 Q65.94 -22.555 62.854 -19.596 L69.076 -13.374 Q73.273 -17.597 75.681 -23.169 Q78.087 -28.741 78.087 -35.23 Q78.087 -41.536 75.651 -47.12 Q73.215 -52.704 69.019 -56.897 Q64.823 -61.089 59.207 -63.533 Q53.591 -65.977 47.321 -65.977 Z M47.332 -47.31 Q42.286 -47.31 38.736 -43.789 Q35.185 -40.269 35.185 -35.222 Q35.185 -30.176 38.714 -26.663 Q42.243 -23.15 47.318 -23.15 Q52.394 -23.15 55.907 -26.671 Q59.42 -30.191 59.42 -35.238 Q59.42 -40.284 55.899 -43.797 Q52.379 -47.31 47.332 -47.31 Z M47.366 5.716 Q38.816 5.716 31.337 2.492 Q23.858 -0.733 18.263 -6.278 Q12.669 -11.823 9.456 -19.265 Q6.243 -26.706 6.243 -35.23 Q6.243 -43.731 9.456 -51.221 Q12.669 -58.712 18.263 -64.295 Q23.858 -69.877 31.31 -73.102 Q38.764 -76.327 47.314 -76.327 Q55.841 -76.327 63.331 -73.102 Q70.822 -69.877 76.405 -64.295 Q81.987 -58.712 85.212 -51.248 Q88.437 -43.783 88.437 -35.256 Q88.437 -26.706 85.212 -19.265 Q81.987 -11.823 76.405 -6.278 Q70.822 -0.733 63.358 2.492 Q55.893 5.716 47.366 5.716 Z"/></g><g id="Regular-S" transform="matrix(1 0 0 1 1405.73 696)"><path d="M47.376 -33.652 Q45.17 -33.652 43.543 -35.144 Q41.916 -36.636 41.916 -38.843 Q41.916 -41.049 43.522 -42.627 Q45.129 -44.205 47.335 -44.205 Q49.541 -44.205 51.054 -42.648 Q52.567 -41.09 52.567 -38.884 Q52.567 -36.678 51.075 -35.165 Q49.583 -33.652 47.376 -33.652 Z M40.042 -13.532  34.026 -7.516 Q37.083 -6.037 40.412 -5.248 Q43.741 -4.459 47.315 -4.459 Q50.891 -4.459 54.293 -5.248 Q57.696 -6.037 60.753 -7.516 L54.638 -13.532 H40.042 Z M47.324 -66.001 Q41.028 -66.001 35.404 -63.56 Q29.782 -61.119 25.591 -56.903 Q21.402 -52.687 18.985 -47.124 Q16.569 -41.561 16.569 -35.234 Q16.569 -28.819 19.046 -23.095 Q21.524 -17.371 25.84 -13.138 L32.25 -19.549 Q29.094 -22.507 27.319 -26.5 Q25.544 -30.492 25.544 -35.249 Q25.544 -44.402 31.879 -50.714 Q38.212 -57.026 47.363 -57.026 Q56.512 -57.026 62.824 -50.702 Q69.136 -44.378 69.136 -35.243 Q69.136 -30.496 67.361 -26.502 Q65.586 -22.507 62.43 -19.549 L68.84 -13.138 Q73.156 -17.361 75.634 -23.003 Q78.111 -28.647 78.111 -35.23 Q78.111 -41.563 75.66 -47.13 Q73.209 -52.698 69.016 -56.894 Q64.823 -61.089 59.222 -63.545 Q53.621 -66.001 47.324 -66.001 Z M47.328 -47.262 Q42.31 -47.262 38.76 -43.749 Q35.209 -40.236 35.209 -35.218 Q35.209 -30.2 38.742 -26.699 Q42.276 -23.198 47.322 -23.198 Q52.37 -23.198 55.871 -26.711 Q59.372 -30.224 59.372 -35.242 Q59.372 -40.26 55.859 -43.761 Q52.346 -47.262 47.328 -47.262 Z M47.361 5.009 Q38.957 5.009 31.596 1.843 Q24.235 -1.323 18.736 -6.774 Q13.235 -12.224 10.07 -19.541 Q6.904 -26.858 6.904 -35.235 Q6.904 -43.613 10.07 -50.974 Q13.235 -58.335 18.736 -63.834 Q24.235 -69.335 31.575 -72.5 Q38.914 -75.666 47.319 -75.666 Q55.723 -75.666 63.084 -72.5 Q70.445 -69.335 75.944 -63.834 Q81.445 -58.335 84.61 -50.995 Q87.776 -43.656 87.776 -35.251 Q87.776 -26.847 84.61 -19.536 Q81.445 -12.224 75.944 -6.774 Q70.445 -1.323 63.105 1.843 Q55.766 5.009 47.361 5.009 Z"/></g><g id="Light-S" transform="matrix(1 0 0 1 1109.75 696)"><path d="M47.376 -34.032 Q45.398 -34.032 43.923 -35.391 Q42.447 -36.751 42.447 -38.691 Q42.447 -40.669 43.902 -42.095 Q45.357 -43.522 47.335 -43.522 Q49.275 -43.522 50.656 -42.117 Q52.036 -40.711 52.036 -38.732 Q52.036 -36.792 50.676 -35.411 Q49.316 -34.032 47.376 -34.032 Z M39.852 -15.012  32.926 -8.085 Q36.173 -6.341 39.805 -5.4 Q43.437 -4.459 47.315 -4.459 Q51.194 -4.459 54.9 -5.4 Q58.606 -6.341 61.853 -8.085 L54.752 -15.012 H39.852 Z M47.324 -66.001 Q41.028 -66.001 35.404 -63.56 Q29.782 -61.119 25.591 -56.903 Q21.402 -52.687 18.985 -47.124 Q16.569 -41.561 16.569 -35.234 Q16.569 -28.592 19.217 -22.734 Q21.865 -16.878 26.446 -12.645 L33.958 -20.155 Q30.688 -22.849 28.856 -26.709 Q27.023 -30.568 27.023 -35.249 Q27.023 -43.796 32.921 -49.671 Q38.82 -55.547 47.363 -55.547 Q55.906 -55.547 61.781 -49.659 Q67.657 -43.771 67.657 -35.243 Q67.657 -30.572 65.824 -26.691 Q63.992 -22.811 60.722 -20.118 L68.234 -12.606 Q72.815 -16.83 75.463 -22.625 Q78.111 -28.419 78.111 -35.23 Q78.111 -41.563 75.66 -47.13 Q73.209 -52.698 69.016 -56.894 Q64.823 -61.089 59.222 -63.545 Q53.621 -66.001 47.324 -66.001 Z M47.328 -47.755 Q42.082 -47.755 38.4 -44.09 Q34.716 -40.427 34.716 -35.218 Q34.716 -29.972 38.382 -26.339 Q42.048 -22.705 47.322 -22.705 Q52.559 -22.705 56.212 -26.35 Q59.865 -29.996 59.865 -35.242 Q59.865 -40.449 56.2 -44.102 Q52.537 -47.755 47.328 -47.755 Z M47.361 3.037 Q39.374 3.037 32.374 0.041 Q25.373 -2.954 20.12 -8.158 Q14.867 -13.362 11.871 -20.319 Q8.876 -27.275 8.876 -35.235 Q8.876 -43.196 11.871 -50.196 Q14.867 -57.197 20.12 -62.45 Q25.373 -67.703 32.353 -70.699 Q39.332 -73.694 47.319 -73.694 Q55.306 -73.694 62.306 -70.699 Q69.307 -67.703 74.56 -62.45 Q79.813 -57.197 82.809 -50.217 Q85.804 -43.238 85.804 -35.251 Q85.804 -27.264 82.809 -20.313 Q79.813 -13.362 74.56 -8.158 Q69.307 -2.954 62.327 0.041 Q55.348 3.037 47.361 3.037 Z"/></g><g id="Thin-S" transform="matrix(1 0 0 1 814.015 696)"><path d="M47.376 -34.41 Q45.626 -34.41 44.301 -35.637 Q42.978 -36.864 42.978 -38.539 Q42.978 -40.29 44.281 -41.565 Q45.583 -42.839 47.335 -42.839 Q49.01 -42.839 50.257 -41.585 Q51.505 -40.332 51.505 -38.581 Q51.505 -36.906 50.278 -35.658 Q49.051 -34.41 47.376 -34.41 Z M39.662 -16.491  31.825 -8.655 Q35.262 -6.644 39.199 -5.552 Q43.134 -4.459 47.315 -4.459 Q51.497 -4.459 55.507 -5.552 Q59.516 -6.644 62.953 -8.655 L54.866 -16.491 H39.662 Z M47.324 -66.001 Q41.028 -66.001 35.404 -63.56 Q29.782 -61.119 25.591 -56.903 Q21.402 -52.687 18.985 -47.124 Q16.569 -41.561 16.569 -35.234 Q16.569 -28.364 19.388 -22.374 Q22.207 -16.385 27.054 -12.152 L35.665 -20.763 Q32.281 -23.19 30.391 -26.917 Q28.503 -30.644 28.503 -35.249 Q28.503 -43.188 33.964 -48.628 Q39.426 -54.067 47.363 -54.067 Q55.298 -54.067 60.738 -48.615 Q66.177 -43.164 66.177 -35.243 Q66.177 -30.648 64.289 -26.881 Q62.399 -23.114 59.015 -20.687 L67.626 -12.076 Q72.473 -16.299 75.292 -22.245 Q78.111 -28.191 78.111 -35.23 Q78.111 -41.563 75.66 -47.13 Q73.209 -52.698 69.016 -56.894 Q64.823 -61.089 59.222 -63.545 Q53.621 -66.001 47.324 -66.001 Z M47.328 -48.248 Q41.854 -48.248 38.039 -44.433 Q34.223 -40.616 34.223 -35.218 Q34.223 -29.744 38.022 -25.978 Q41.82 -22.211 47.322 -22.211 Q52.75 -22.211 56.554 -25.99 Q60.358 -29.768 60.358 -35.242 Q60.358 -40.64 56.543 -44.444 Q52.726 -48.248 47.328 -48.248 Z M47.361 1.064 Q39.791 1.064 33.152 -1.761 Q26.511 -4.585 21.504 -9.542 Q16.498 -14.5 13.673 -21.096 Q10.849 -27.692 10.849 -35.235 Q10.849 -42.779 13.673 -49.418 Q16.498 -56.059 21.504 -61.066 Q26.511 -66.072 33.13 -68.897 Q39.749 -71.721 47.319 -71.721 Q54.889 -71.721 61.528 -68.897 Q68.169 -66.072 73.176 -61.066 Q78.182 -56.059 81.007 -49.44 Q83.831 -42.821 83.831 -35.251 Q83.831 -27.681 81.007 -21.091 Q78.182 -14.5 73.176 -9.542 Q68.169 -4.585 61.55 -1.761 Q54.931 1.064 47.361 1.064 Z"/></g><g id="Ultralight-S" transform="matrix(1 0 0 1 517.792 696)"><path d="M47.376 -34.638 Q45.762 -34.638 44.529 -35.785 Q43.296 -36.932 43.296 -38.448 Q43.296 -40.063 44.508 -41.246 Q45.721 -42.43 47.335 -42.43 Q48.851 -42.43 50.019 -41.267 Q51.186 -40.104 51.186 -38.49 Q51.186 -36.974 50.039 -35.806 Q48.892 -34.638 47.376 -34.638 Z M39.549 -17.379  31.166 -8.996 Q34.716 -6.826 38.834 -5.642 Q42.952 -4.459 47.315 -4.459 Q51.68 -4.459 55.871 -5.642 Q60.063 -6.826 63.613 -8.996 L54.934 -17.379 H39.549 Z M47.324 -66.001 Q41.028 -66.001 35.404 -63.56 Q29.782 -61.119 25.591 -56.903 Q21.402 -52.687 18.985 -47.124 Q16.569 -41.561 16.569 -35.234 Q16.569 -28.228 19.49 -22.158 Q22.412 -16.089 27.418 -11.856 L36.689 -21.127 Q33.237 -23.395 31.313 -27.042 Q29.39 -30.689 29.39 -35.249 Q29.39 -42.824 34.591 -48.002 Q39.79 -53.18 47.363 -53.18 Q54.934 -53.18 60.112 -47.99 Q65.29 -42.8 65.29 -35.243 Q65.29 -30.693 63.367 -26.995 Q61.443 -23.296 57.992 -21.028 L67.262 -11.757 Q72.268 -15.98 75.19 -22.017 Q78.111 -28.055 78.111 -35.23 Q78.111 -41.563 75.66 -47.13 Q73.209 -52.698 69.016 -56.894 Q64.823 -61.089 59.222 -63.545 Q53.621 -66.001 47.324 -66.001 Z M47.328 -48.544 Q41.718 -48.544 37.823 -44.637 Q33.927 -40.729 33.927 -35.218 Q33.927 -29.608 37.805 -25.762 Q41.684 -21.916 47.322 -21.916 Q52.863 -21.916 56.759 -25.774 Q60.654 -29.632 60.654 -35.242 Q60.654 -40.753 56.747 -44.649 Q52.839 -48.544 47.328 -48.544 Z M47.361 -0.119 Q40.042 -0.119 33.618 -2.842 Q27.194 -5.564 22.336 -10.374 Q17.476 -15.182 14.754 -21.563 Q12.032 -27.943 12.032 -35.235 Q12.032 -42.528 14.754 -48.952 Q17.476 -55.376 22.336 -60.234 Q27.194 -65.094 33.597 -67.816 Q39.999 -70.538 47.319 -70.538 Q54.638 -70.538 61.062 -67.816 Q67.486 -65.094 72.344 -60.234 Q77.204 -55.376 79.926 -48.973 Q82.648 -42.571 82.648 -35.251 Q82.648 -27.932 79.926 -21.558 Q77.204 -15.182 72.344 -10.374 Q67.486 -5.564 61.083 -2.842 Q54.681 -0.119 47.361 -0.119 Z"/></g></g></svg>