<svg xmlns="http://www.w3.org/2000/svg" version="1.1" width="3300" height="2000"><g id="Notes"><style>
    text {
      font-family: monospace;
      text-anchor: middle;
    }
    text.emphasis {
      font-weight:bold;
    }
    text.lanchor {
      text-anchor: start;
    }
  </style><rect height="2200" id="artboard" fill="white" width="3300" x="0" y="0"/><line id="" style="fill:none;stroke:black;stroke-width:0.5;" x1="263" x2="3036" y1="292" y2="292"/><text class="lanchor emphasis" transform="matrix(1 0 0 1 263 322)">Weight/Scale Variations</text><text transform="matrix(1 0 0 1 559.711 322)">Ultralight</text><text transform="matrix(1 0 0 1 856.422 322)">Thin</text><text transform="matrix(1 0 0 1 1153.13 322)">Light</text><text transform="matrix(1 0 0 1 1449.84 322)">Regular</text><text transform="matrix(1 0 0 1 1746.56 322)">Medium</text><text transform="matrix(1 0 0 1 2043.27 322)">Semibold</text><text transform="matrix(1 0 0 1 2339.98 322)">Bold</text><text transform="matrix(1 0 0 1 2636.69 322)">Heavy</text><text transform="matrix(1 0 0 1 2933.4 322)">Black</text><text id="template-version" style="text-anchor: end;" transform="matrix(1 0 0 1 3036 1933)">Template v.1.0</text><text class="lanchor" transform="matrix(1 0 0 1 263 726)">Small</text><text class="lanchor" transform="matrix(1 0 0 1 263 1156)">Medium</text><text class="lanchor" transform="matrix(1 0 0 1 263 1586)">Large</text></g><g id="Guides"><g id="H-reference" style="fill:#27AAE1;stroke:none;" transform="matrix(1 0 0 1 339 696)"><path d="M 54.9316 0 L 57.666 0 L 30.5664 -70.459 L 28.0762 -70.459 L 0.976562 0 L 3.66211 0 L 12.9395 -24.4629 L 45.7031 -24.4629 Z M 29.1992 -67.0898 L 29.4434 -67.0898 L 44.8242 -26.709 L 13.8184 -26.709 Z"/></g><line id="Baseline-S" style="fill:none;stroke:#27AAE1;opacity:1;stroke-width:0.577;" x1="263" x2="3036" y1="696" y2="696"/><line id="Capline-S" style="fill:none;stroke:#27AAE1;opacity:1;stroke-width:0.577;" x1="263" x2="3036" y1="625.541" y2="625.541"/><g id="H-reference" style="fill:#27AAE1;stroke:none;" transform="matrix(1 0 0 1 339 1126)"><path d="M 54.9316 0 L 57.666 0 L 30.5664 -70.459 L 28.0762 -70.459 L 0.976562 0 L 3.66211 0 L 12.9395 -24.4629 L 45.7031 -24.4629 Z M 29.1992 -67.0898 L 29.4434 -67.0898 L 44.8242 -26.709 L 13.8184 -26.709 Z"/></g><line id="Baseline-M" style="fill:none;stroke:#27AAE1;opacity:1;stroke-width:0.577;" x1="263" x2="3036" y1="1126" y2="1126"/><line id="Capline-M" style="fill:none;stroke:#27AAE1;opacity:1;stroke-width:0.577;" x1="263" x2="3036" y1="1055.54" y2="1055.54"/><g id="H-reference" style="fill:#27AAE1;stroke:none;" transform="matrix(1 0 0 1 339 1556)"><path d="M 54.9316 0 L 57.666 0 L 30.5664 -70.459 L 28.0762 -70.459 L 0.976562 0 L 3.66211 0 L 12.9395 -24.4629 L 45.7031 -24.4629 Z M 29.1992 -67.0898 L 29.4434 -67.0898 L 44.8242 -26.709 L 13.8184 -26.709 Z"/></g><line id="Baseline-L" style="fill:none;stroke:#27AAE1;opacity:1;stroke-width:0.577;" x1="263" x2="3036" y1="1556" y2="1556"/><line id="Capline-L" style="fill:none;stroke:#27AAE1;opacity:1;stroke-width:0.577;" x1="263" x2="3036" y1="1485.54" y2="1485.54"/><rect height="119.336" id="left-margin" style="fill:darkred;stroke:none;opacity:0.4;" width="12.4512" x="1394.06" y="1030.79"/><rect height="119.336" id="right-margin" style="fill:darkgreen;stroke:none;opacity:0.4;" width="12.4512" x="1502.5112" y="1030.79"/><rect x="1406.5112" y="1045" width="96" height="96" fill="none" stroke="blue" stroke-dasharray="5"/><rect x="1394.06" y="1030.79" width="120.9024" height="119.336" fill="none" stroke="blue"/></g><g id="Symbols"><g id="Bold-L" transform="matrix(1 0 0 1 2266 1556)"><path d="M68.854 17.821 H87.72 L78.045 -6.527 L68.854 17.821 Z M109.972 -48.936 H121.583 Q124.646 -48.936 126.743 -50.871 Q128.839 -52.806 128.839 -56.031 V-58.127 Q128.839 -59.901 127.399 -61.433 Q125.957 -62.965 123.921 -62.965 Q121.884 -62.965 120.523 -61.433 Q119.164 -59.901 119.164 -58.127 V-57.805 Q119.164 -57.805 119.164 -57.805 Q119.164 -57.805 119.164 -57.805 H112.391 Q112.391 -57.805 112.391 -57.805 Q112.391 -57.805 112.391 -57.805 V-78.445 Q112.391 -78.445 112.391 -78.445 Q112.391 -78.445 112.391 -78.445 H119.164 Q119.164 -78.445 119.164 -78.445 Q119.164 -78.445 119.164 -78.445 V-78.122 Q119.164 -76.005 120.52 -74.644 Q121.874 -73.285 123.906 -73.285 Q125.936 -73.285 127.388 -74.644 Q128.839 -76.005 128.839 -78.122 V-79.896 Q128.839 -83.121 126.743 -85.217 Q124.646 -87.314 121.583 -87.314 H109.972 Q106.748 -87.314 104.732 -85.217 Q102.716 -83.121 102.716 -79.896 V-56.031 Q102.716 -52.806 104.732 -50.871 Q106.748 -48.936 109.972 -48.936 Z M41.441 -15.074 Q44.021 -12.816 46.359 -10.962 Q48.697 -9.107 51.439 -7.011 L44.344 6.695 Q40.958 4.276 37.894 1.777 Q34.83 -0.722 31.766 -3.786 L24.349 2.503 Q22.077 4.599 19.1 4.518 Q16.125 4.438 14.029 2.18 Q12.094 -0.077 12.336 -3.061 Q12.578 -6.044 14.835 -8.14 L22.253 -14.59 Q21.578 -15.767 20.625 -16.872 Q19.672 -17.976 18.866 -19.105 Q16.125 -22.169 17.012 -24.91 Q17.899 -27.651 20.076 -29.425 Q22.253 -31.199 25.477 -31.037 Q28.703 -30.876 30.799 -27.812 Q30.96 -27.651 31.444 -27.087 Q31.928 -26.522 32.089 -26.361 Q34.185 -29.586 36.443 -32.65 Q38.7 -35.714 40.474 -39.745 H9.675 Q6.45 -39.745 4.434 -41.79 Q2.419 -43.834 2.419 -46.771 Q2.419 -49.742 4.515 -51.919 Q6.611 -54.096 9.675 -54.096 H22.575 V-57.16 Q22.575 -60.224 24.591 -62.32 Q26.606 -64.416 29.831 -64.416 Q33.056 -64.416 35.072 -62.401 Q37.087 -60.385 37.087 -57.16 V-54.096 H57.244 Q60.211 -54.096 62.275 -51.919 Q64.339 -49.742 64.339 -46.759 Q64.339 -43.776 62.275 -41.761 Q60.211 -39.745 57.244 -39.745 H56.921 Q53.696 -32.811 49.665 -26.845 Q45.634 -20.879 41.441 -15.074 Z M64.5 29.915  62.242 35.236 Q61.436 37.171 59.864 38.381 Q58.292 39.59 55.954 39.59 Q52.205 39.59 50.129 36.446 Q48.053 33.301 49.504 29.754 L67.725 -14.429 Q68.531 -16.686 70.708 -18.057 Q72.885 -19.427 75.23 -19.427 H81.736 Q84.081 -19.427 86.201 -18.118 Q88.323 -16.807 89.332 -14.59 L107.876 29.915 Q109.328 33.463 107.13 36.526 Q104.93 39.59 101.268 39.59 Q98.846 39.59 96.939 38.316 Q95.029 37.042 94.331 34.914 L92.074 29.915 H64.5 Z M137.546 -25.716 H88.043 Q84.495 -25.716 82.479 -27.812 Q80.464 -29.909 80.464 -32.972 V-53.129 Q80.464 -57.308 77.763 -59.975 Q75.062 -62.642 71.111 -62.642 H74.175 V-78.445 Q74.175 -78.445 74.175 -78.445 Q74.175 -78.445 74.175 -78.445 H80.786 Q80.786 -78.445 80.786 -78.445 Q80.786 -78.445 80.786 -78.445 V-78.122 Q80.786 -76.026 82.223 -74.656 Q83.658 -73.285 85.609 -73.285 Q87.559 -73.285 89.01 -74.644 Q90.461 -76.005 90.461 -78.122 V-79.896 Q90.461 -83.121 88.365 -85.217 Q86.269 -87.314 83.366 -87.314 H71.595 Q68.37 -87.314 66.435 -85.208 Q64.5 -83.102 64.5 -79.896 V-62.642 H56.276 V-75.704 H47.891 Q44.505 -75.704 42.489 -77.719 Q40.474 -79.735 40.474 -83.282 V-95.86 Q40.474 -101.665 45.05 -105.938 Q49.628 -110.211 55.631 -110.211 H137.546 Q143.642 -110.211 148.092 -105.938 Q152.543 -101.665 152.543 -95.86 V-40.39 Q152.543 -34.195 148.092 -29.956 Q143.642 -25.716 137.546 -25.716 Z"/></g><g id="Semibold-L" transform="matrix(1 0 0 1 1970.27 1556)"><path d="M66.47 17.4 H85.406 L75.731 -7.158 L66.47 17.4 Z M109.832 -49.146 H122.073 Q124.996 -49.146 127.059 -51.081 Q129.119 -53.016 129.119 -56.031 V-58.268 Q129.119 -60.111 127.708 -61.573 Q126.299 -63.034 124.271 -63.034 Q122.244 -63.034 120.913 -61.573 Q119.585 -60.111 119.585 -58.268 V-57.945 Q119.585 -57.945 119.585 -57.945 Q119.585 -57.945 119.585 -57.945 H112.322 Q112.322 -57.945 112.322 -57.945 Q112.322 -57.945 112.322 -57.945 V-78.726 Q112.322 -78.726 112.322 -78.726 Q112.322 -78.726 112.322 -78.726 H119.585 Q119.585 -78.726 119.585 -78.726 Q119.585 -78.726 119.585 -78.726 V-78.403 Q119.585 -76.294 120.912 -74.965 Q122.239 -73.635 124.262 -73.635 Q126.286 -73.635 127.704 -74.965 Q129.119 -76.294 129.119 -78.403 V-80.386 Q129.119 -83.402 127.059 -85.463 Q124.996 -87.523 122.073 -87.523 H109.832 Q106.817 -87.523 104.801 -85.463 Q102.786 -83.402 102.786 -80.386 V-56.031 Q102.786 -53.016 104.801 -51.081 Q106.817 -49.146 109.832 -49.146 Z M41.372 -15.074 Q43.671 -12.886 45.553 -11.242 Q47.435 -9.598 49.826 -7.713 L43.292 5.292 Q40.256 3.014 37.718 0.726 Q35.18 -1.564 32.256 -4.488 L24.139 2.712 Q22.012 4.739 19.174 4.623 Q16.335 4.507 14.45 2.39 Q12.584 0.272 12.826 -2.499 Q13.068 -5.273 15.116 -7.229 L23.375 -14.73 Q22.572 -15.956 21.578 -17.107 Q20.584 -18.257 19.708 -19.455 Q17.247 -22.238 18.028 -24.841 Q18.81 -27.442 20.917 -29.109 Q23.023 -30.778 26.003 -30.652 Q28.983 -30.526 31.008 -27.603 Q31.31 -27.301 31.794 -26.701 Q32.277 -26.102 32.579 -25.731 Q34.886 -29.165 37.213 -32.369 Q39.542 -35.573 41.385 -39.676 H9.606 Q6.59 -39.676 4.679 -41.601 Q2.769 -43.528 2.769 -46.309 Q2.769 -49.181 4.725 -51.184 Q6.681 -53.185 9.606 -53.185 H23.486 V-56.67 Q23.486 -59.522 25.397 -61.514 Q27.308 -63.505 30.321 -63.505 Q33.337 -63.505 35.248 -61.594 Q37.157 -59.684 37.157 -56.67 V-53.185 H57.384 Q60.183 -53.185 62.155 -51.149 Q64.129 -49.112 64.129 -46.303 Q64.129 -43.496 62.155 -41.585 Q60.183 -39.676 57.384 -39.676 H56.781 Q53.696 -32.811 49.7 -26.81 Q45.703 -20.809 41.372 -15.074 Z M62.257 28.793  59.719 35.167 Q58.913 37.031 57.392 38.171 Q55.873 39.309 53.711 39.309 Q50.189 39.309 48.209 36.341 Q46.23 33.371 47.611 30.034 L66.112 -14.85 Q66.919 -16.896 68.92 -18.233 Q70.923 -19.568 73.088 -19.568 H79.15 Q81.317 -19.568 83.286 -18.302 Q85.256 -17.035 86.178 -15.011 L104.932 30.196 Q106.314 33.532 104.229 36.421 Q102.145 39.309 98.743 39.309 Q96.463 39.309 94.718 38.098 Q92.974 36.887 92.298 34.914 L89.62 28.793 H62.257 Z M137.967 -26.627 H87.762 Q84.635 -26.627 82.76 -28.548 Q80.885 -30.47 80.885 -33.253 V-53.759 Q80.885 -57.665 78.306 -60.188 Q75.728 -62.712 72.022 -62.712 H74.315 V-78.726 Q74.315 -78.726 74.315 -78.726 Q74.315 -78.726 74.315 -78.726 H81.417 Q81.417 -78.726 81.417 -78.726 Q81.417 -78.726 81.417 -78.726 V-78.403 Q81.417 -76.307 82.824 -74.972 Q84.232 -73.635 86.177 -73.635 Q88.12 -73.635 89.536 -74.965 Q90.951 -76.294 90.951 -78.403 V-80.386 Q90.951 -83.402 88.891 -85.463 Q86.83 -87.523 84.068 -87.523 H71.664 Q68.58 -87.523 66.68 -85.492 Q64.781 -83.46 64.781 -80.386 V-62.712 H56.486 V-74.793 H48.172 Q45.135 -74.793 43.26 -76.668 Q41.385 -78.543 41.385 -81.67 V-96.281 Q41.385 -101.805 45.69 -105.833 Q49.994 -109.861 55.701 -109.861 H137.967 Q143.725 -109.861 147.924 -105.833 Q152.122 -101.805 152.122 -96.281 V-40.39 Q152.122 -34.575 147.924 -30.602 Q143.725 -26.627 137.967 -26.627 Z"/></g><g id="Medium-L" transform="matrix(1 0 0 1 1674.31 1556)"><path d="M64.682 17.084 H83.671 L73.996 -7.632 L64.682 17.084 Z M109.727 -49.304 H122.442 Q125.259 -49.304 127.294 -51.239 Q129.329 -53.174 129.329 -56.031 V-58.373 Q129.329 -60.269 127.942 -61.678 Q126.555 -63.088 124.533 -63.088 Q122.513 -63.088 121.207 -61.678 Q119.901 -60.269 119.901 -58.373 V-58.05 Q119.901 -58.05 119.901 -58.05 Q119.901 -58.05 119.901 -58.05 H112.269 Q112.269 -58.05 112.269 -58.05 Q112.269 -58.05 112.269 -58.05 V-78.935 Q112.269 -78.935 112.269 -78.935 Q112.269 -78.935 112.269 -78.935 H119.901 Q119.901 -78.935 119.901 -78.935 Q119.901 -78.935 119.901 -78.935 V-78.613 Q119.901 -76.512 121.205 -75.205 Q122.511 -73.898 124.53 -73.898 Q126.549 -73.898 127.939 -75.205 Q129.329 -76.512 129.329 -78.613 V-80.756 Q129.329 -83.611 127.294 -85.646 Q125.259 -87.681 122.442 -87.681 H109.727 Q106.87 -87.681 104.854 -85.646 Q102.839 -83.611 102.839 -80.756 V-56.031 Q102.839 -53.174 104.854 -51.239 Q106.87 -49.304 109.727 -49.304 Z M41.319 -15.074 Q43.408 -12.939 44.948 -11.452 Q46.488 -9.967 48.617 -8.238 L42.504 4.241 Q39.73 2.067 37.587 -0.063 Q35.443 -2.195 32.626 -5.013 L23.981 2.87 Q21.965 4.844 19.229 4.702 Q16.493 4.56 14.766 2.548 Q12.953 0.535 13.195 -2.079 Q13.437 -4.694 15.325 -6.545 L24.215 -14.835 Q23.318 -16.098 22.293 -17.283 Q21.267 -18.466 20.338 -19.718 Q18.087 -22.291 18.79 -24.787 Q19.494 -27.284 21.548 -28.874 Q23.602 -30.462 26.398 -30.363 Q29.193 -30.263 31.166 -27.445 Q31.573 -27.038 32.056 -26.413 Q32.54 -25.786 32.948 -25.257 Q35.412 -28.849 37.792 -32.16 Q40.172 -35.469 42.069 -39.622 H9.552 Q6.695 -39.622 4.863 -41.461 Q3.032 -43.299 3.032 -45.964 Q3.032 -48.76 4.883 -50.631 Q6.734 -52.501 9.552 -52.501 H24.17 V-56.301 Q24.17 -58.997 26.002 -60.909 Q27.833 -62.821 30.691 -62.821 Q33.546 -62.821 35.378 -60.99 Q37.21 -59.158 37.21 -56.301 V-52.501 H57.489 Q60.162 -52.501 62.067 -50.57 Q63.971 -48.638 63.971 -45.961 Q63.971 -43.286 62.067 -41.454 Q60.162 -39.622 57.489 -39.622 H56.676 Q53.696 -32.811 49.726 -26.784 Q45.756 -20.756 41.319 -15.074 Z M60.574 27.953  57.826 35.114 Q57.02 36.926 55.539 38.013 Q54.059 39.1 52.027 39.1 Q48.678 39.1 46.771 36.262 Q44.863 33.424 46.192 30.244 L64.903 -15.166 Q65.709 -17.054 67.58 -18.363 Q69.45 -19.673 71.482 -19.673 H77.21 Q79.243 -19.673 81.099 -18.439 Q82.957 -17.205 83.811 -15.327 L102.723 30.405 Q104.051 33.585 102.054 36.342 Q100.056 39.1 96.848 39.1 Q94.675 39.1 93.053 37.936 Q91.43 36.773 90.772 34.914 L87.78 27.953 H60.574 Z M138.283 -27.311 H87.552 Q84.74 -27.311 82.97 -29.101 Q81.201 -30.891 81.201 -33.463 V-54.233 Q81.201 -57.931 78.714 -60.348 Q76.228 -62.765 72.706 -62.765 H74.42 V-78.935 Q74.42 -78.935 74.42 -78.935 Q74.42 -78.935 74.42 -78.935 H81.891 Q81.891 -78.935 81.891 -78.935 Q81.891 -78.935 81.891 -78.935 V-78.613 Q81.891 -76.516 83.278 -75.207 Q84.663 -73.898 86.601 -73.898 Q88.541 -73.898 89.931 -75.205 Q91.321 -76.512 91.321 -78.613 V-80.756 Q91.321 -83.611 89.286 -85.646 Q87.251 -87.681 84.593 -87.681 H71.718 Q68.738 -87.681 66.864 -85.706 Q64.99 -83.729 64.99 -80.756 V-62.765 H56.644 V-74.109 H48.381 Q45.61 -74.109 43.839 -75.88 Q42.069 -77.65 42.069 -80.461 V-96.597 Q42.069 -101.91 46.169 -105.754 Q50.27 -109.599 55.754 -109.599 H138.283 Q143.788 -109.599 147.797 -105.754 Q151.806 -101.91 151.806 -96.597 V-40.39 Q151.806 -34.859 147.797 -31.086 Q143.788 -27.311 138.283 -27.311 Z"/></g><g id="Regular-L" transform="matrix(1 0 0 1 1378.56 1556)"><path d="M63.371 16.854 H82.399 L72.724 -7.979 L63.371 16.854 Z M109.65 -49.42 H122.711 Q125.453 -49.42 127.468 -51.355 Q129.484 -53.29 129.484 -56.031 V-58.45 Q129.484 -60.385 128.113 -61.756 Q126.743 -63.126 124.727 -63.126 Q122.711 -63.126 121.421 -61.756 Q120.131 -60.385 120.131 -58.45 V-58.127 Q120.131 -58.127 120.131 -58.127 Q120.131 -58.127 120.131 -58.127 H112.23 Q112.23 -58.127 112.23 -58.127 Q112.23 -58.127 112.23 -58.127 V-79.09 Q112.23 -79.09 112.23 -79.09 Q112.23 -79.09 112.23 -79.09 H120.131 Q120.131 -79.09 120.131 -79.09 Q120.131 -79.09 120.131 -79.09 V-78.767 Q120.131 -76.671 121.421 -75.381 Q122.711 -74.091 124.727 -74.091 Q126.743 -74.091 128.113 -75.381 Q129.484 -76.671 129.484 -78.767 V-81.025 Q129.484 -83.766 127.468 -85.782 Q125.453 -87.797 122.711 -87.797 H109.65 Q106.909 -87.797 104.893 -85.782 Q102.877 -83.766 102.877 -81.025 V-56.031 Q102.877 -53.29 104.893 -51.355 Q106.909 -49.42 109.65 -49.42 Z M41.28 -15.074 Q43.215 -12.977 44.505 -11.607 Q45.795 -10.236 47.73 -8.624 L41.925 3.47 Q39.345 1.374 37.491 -0.642 Q35.636 -2.657 32.895 -5.399 L23.865 2.986 Q21.93 4.921 19.269 4.76 Q16.609 4.599 14.996 2.664 Q13.223 0.729 13.464 -1.771 Q13.706 -4.27 15.48 -6.044 L24.832 -14.912 Q23.865 -16.202 22.817 -17.412 Q21.769 -18.621 20.801 -19.911 Q18.705 -22.33 19.35 -24.749 Q19.995 -27.167 22.011 -28.699 Q24.026 -30.231 26.687 -30.151 Q29.348 -30.07 31.283 -27.329 Q31.766 -26.845 32.25 -26.2 Q32.734 -25.555 33.218 -24.91 Q35.797 -28.619 38.216 -32.005 Q40.635 -35.391 42.57 -39.584 H9.514 Q6.772 -39.584 4.999 -41.357 Q3.225 -43.131 3.225 -45.711 Q3.225 -48.452 4.999 -50.226 Q6.772 -52 9.514 -52 H24.671 V-56.031 Q24.671 -58.611 26.445 -60.466 Q28.219 -62.32 30.96 -62.32 Q33.701 -62.32 35.475 -60.546 Q37.249 -58.772 37.249 -56.031 V-52 H57.566 Q60.146 -52 62.001 -50.146 Q63.855 -48.291 63.855 -45.711 Q63.855 -43.131 62.001 -41.357 Q60.146 -39.584 57.566 -39.584 H56.599 Q53.696 -32.811 49.746 -26.764 Q45.795 -20.717 41.28 -15.074 Z M59.34 27.335  56.438 35.075 Q55.631 36.849 54.18 37.897 Q52.729 38.945 50.794 38.945 Q47.569 38.945 45.714 36.204 Q43.86 33.463 45.15 30.399 L64.016 -15.396 Q64.823 -17.17 66.596 -18.46 Q68.37 -19.75 70.305 -19.75 H75.788 Q77.722 -19.75 79.496 -18.541 Q81.27 -17.331 82.076 -15.557 L101.104 30.56 Q102.394 33.624 100.459 36.284 Q98.524 38.945 95.46 38.945 Q93.364 38.945 91.832 37.816 Q90.3 36.688 89.655 34.914 L86.43 27.335 H59.34 Z M138.514 -27.812 H87.398 Q84.817 -27.812 83.124 -29.506 Q81.431 -31.199 81.431 -33.617 V-54.58 Q81.431 -58.127 79.013 -60.466 Q76.594 -62.804 73.207 -62.804 H74.498 V-79.09 Q74.498 -79.09 74.498 -79.09 Q74.498 -79.09 74.498 -79.09 H82.237 Q82.237 -79.09 82.237 -79.09 Q82.237 -79.09 82.237 -79.09 V-78.767 Q82.237 -76.671 83.608 -75.381 Q84.979 -74.091 86.914 -74.091 Q88.849 -74.091 90.219 -75.381 Q91.59 -76.671 91.59 -78.767 V-81.025 Q91.59 -83.766 89.574 -85.782 Q87.559 -87.797 84.979 -87.797 H71.756 Q68.854 -87.797 66.999 -85.862 Q65.145 -83.927 65.145 -81.025 V-62.804 H56.76 V-73.607 H48.536 Q45.956 -73.607 44.263 -75.301 Q42.57 -76.994 42.57 -79.574 V-96.827 Q42.57 -101.987 46.521 -105.696 Q50.471 -109.405 55.793 -109.405 H138.514 Q143.835 -109.405 147.705 -105.696 Q151.575 -101.987 151.575 -96.827 V-40.39 Q151.575 -35.069 147.705 -31.441 Q143.835 -27.812 138.514 -27.812 Z"/></g><g id="Light-L" transform="matrix(1 0 0 1 1082.77 1556)"><path d="M60.456 16.481 H81.344 L70.802 -10.273 L60.456 16.481 Z M109.029 -49.11 H119.548 Q122.535 -49.11 124.769 -51.263 Q127.002 -53.416 127.002 -56.404 V-58.016 Q127.002 -59.598 125.849 -60.741 Q124.698 -61.886 123.022 -61.886 Q121.347 -61.886 120.273 -60.741 Q119.201 -59.598 119.201 -58.016 V-57.258 Q119.201 -56.887 118.891 -56.576 Q118.58 -56.267 118.209 -56.267 H110.369 Q109.997 -56.267 109.687 -56.576 Q109.377 -56.887 109.377 -57.258 V-77.477 Q109.377 -77.85 109.687 -78.16 Q109.997 -78.469 110.369 -78.469 H118.209 Q118.58 -78.469 118.891 -78.16 Q119.201 -77.85 119.201 -77.477 V-76.597 Q119.201 -74.854 120.273 -73.79 Q121.345 -72.727 123.021 -72.727 Q124.696 -72.727 125.849 -73.79 Q127.002 -74.854 127.002 -76.597 V-78.172 Q127.002 -81.16 124.769 -83.394 Q122.535 -85.627 119.548 -85.627 H109.029 Q105.978 -85.627 103.777 -83.394 Q101.575 -81.16 101.575 -78.172 V-56.404 Q101.575 -53.416 103.745 -51.263 Q105.917 -49.11 109.029 -49.11 Z M40.97 -17.268 Q42.967 -15.087 44.195 -13.808 Q45.423 -12.531 47.482 -10.857 L42.422 -0.81 Q39.717 -2.969 38.111 -4.704 Q36.505 -6.44 33.95 -9.058 L25.044 -0.984 Q23.373 0.642 21.138 0.511 Q18.903 0.38 17.602 -1.243 Q16.075 -2.93 16.317 -5.026 Q16.559 -7.123 18.023 -8.65 L27.19 -17.083 Q26.035 -18.621 24.832 -20.11 Q23.63 -21.598 22.477 -23.199 Q20.627 -25.245 21.18 -27.322 Q21.732 -29.401 23.468 -30.715 Q25.205 -32.029 27.432 -31.981 Q29.657 -31.931 31.407 -29.562 Q32.103 -28.698 32.821 -27.716 Q33.54 -26.734 34.272 -25.779 Q37.038 -29.61 39.735 -33.277 Q42.433 -36.942 44.307 -41.506 H11.747 Q9.44 -41.506 7.945 -43.001 Q6.45 -44.495 6.45 -46.642 Q6.45 -49.01 7.945 -50.475 Q9.44 -51.939 11.747 -51.939 H26.78 V-56.297 Q26.78 -58.426 28.275 -60.001 Q29.77 -61.575 32.076 -61.575 Q34.383 -61.575 35.878 -60.082 Q37.373 -58.587 37.373 -56.297 V-51.939 H58.558 Q60.704 -51.939 62.28 -50.363 Q63.855 -48.788 63.855 -46.642 Q63.855 -44.495 62.28 -43.001 Q60.704 -41.506 58.558 -41.506 H56.413 Q53.572 -34.733 49.497 -28.749 Q45.423 -22.764 40.97 -17.268 Z M56.983 25.289  53.522 34.132 Q52.779 35.67 51.574 36.563 Q50.371 37.457 48.699 37.457 Q45.93 37.457 44.368 35.119 Q42.805 32.78 43.91 30.213 L63.334 -16.823 Q64.016 -18.349 65.529 -19.421 Q67.043 -20.495 68.63 -20.495 H73.369 Q74.931 -20.495 76.457 -19.502 Q77.982 -18.51 78.664 -16.985 L98.251 30.312 Q99.354 32.942 97.711 35.199 Q96.068 37.457 93.462 37.457 Q91.627 37.457 90.344 36.513 Q89.06 35.572 88.539 34.045 L84.817 25.289 H56.983 Z M135.971 -28.557 H83.739 Q81.222 -28.557 79.59 -30.189 Q77.958 -31.821 77.958 -34.175 V-52.782 Q77.958 -56.215 75.638 -58.455 Q73.317 -60.695 70.044 -60.695 H72.822 V-77.477 Q72.822 -77.85 73.133 -78.16 Q73.443 -78.469 73.815 -78.469 H81.493 Q81.865 -78.469 82.176 -78.16 Q82.486 -77.85 82.486 -77.477 V-76.597 Q82.486 -74.854 83.639 -73.79 Q84.792 -72.727 86.386 -72.727 Q87.98 -72.727 89.134 -73.79 Q90.287 -74.854 90.287 -76.597 V-78.172 Q90.287 -81.16 88.086 -83.394 Q85.883 -85.627 82.994 -85.627 H72.314 Q69.165 -85.627 67.093 -83.474 Q65.021 -81.322 65.021 -78.172 V-60.695 H54.217 V-72.056 H48.909 Q46.453 -72.056 44.852 -73.688 Q43.252 -75.32 43.252 -77.713 V-94.346 Q43.252 -99.196 46.954 -102.687 Q50.657 -106.18 55.733 -106.18 H135.968 Q141.044 -106.18 144.696 -102.687 Q148.35 -99.196 148.35 -94.346 V-40.39 Q148.35 -35.378 144.696 -31.968 Q141.044 -28.557 135.971 -28.557 Z"/></g><g id="Thin-L" transform="matrix(1 0 0 1 787.282 1556)"><path d="M57.542 16.109 H80.29 L68.878 -12.568 L57.542 16.109 Z M108.41 -48.799 H116.385 Q119.62 -48.799 122.071 -51.171 Q124.522 -53.542 124.522 -56.776 V-57.582 Q124.522 -58.81 123.587 -59.727 Q122.652 -60.646 121.318 -60.646 Q119.983 -60.646 119.127 -59.727 Q118.27 -58.81 118.27 -57.582 V-56.391 Q118.27 -55.647 117.651 -55.027 Q117.03 -54.406 116.285 -54.406 H108.508 Q107.765 -54.406 107.144 -55.027 Q106.525 -55.647 106.525 -56.391 V-75.865 Q106.525 -76.61 107.144 -77.229 Q107.765 -77.85 108.508 -77.85 H116.285 Q117.03 -77.85 117.651 -77.229 Q118.27 -76.61 118.27 -75.865 V-74.427 Q118.27 -73.037 119.125 -72.2 Q119.98 -71.363 121.315 -71.363 Q122.65 -71.363 123.585 -72.2 Q124.522 -73.037 124.522 -74.427 V-75.32 Q124.522 -78.553 122.071 -81.006 Q119.62 -83.457 116.385 -83.457 H108.41 Q105.048 -83.457 102.66 -81.006 Q100.273 -78.553 100.273 -75.32 V-56.776 Q100.273 -53.542 102.599 -51.171 Q104.924 -48.799 108.41 -48.799 Z M40.659 -19.465 Q42.718 -17.194 43.884 -16.011 Q45.05 -14.825 47.233 -13.089 L42.917 -5.089 Q40.09 -7.31 38.731 -8.766 Q37.373 -10.223 35.004 -12.716 L26.222 -4.952 Q24.816 -3.638 23.007 -3.736 Q21.198 -3.836 20.206 -5.15 Q18.928 -6.589 19.169 -8.282 Q19.411 -9.975 20.566 -11.254 L29.546 -19.253 Q28.206 -21.04 26.848 -22.807 Q25.49 -24.575 24.15 -26.485 Q22.551 -28.159 23.009 -29.896 Q23.468 -31.633 24.926 -32.731 Q26.384 -33.829 28.175 -33.809 Q29.968 -33.792 31.531 -31.794 Q32.44 -30.549 33.393 -29.231 Q34.346 -27.912 35.327 -26.647 Q38.278 -30.604 41.256 -34.548 Q44.232 -38.492 46.043 -43.43 H13.979 Q12.107 -43.43 10.891 -44.644 Q9.675 -45.86 9.675 -47.572 Q9.675 -49.568 10.891 -50.723 Q12.107 -51.876 13.979 -51.876 H28.888 V-56.565 Q28.888 -58.239 30.104 -59.535 Q31.32 -60.832 33.193 -60.832 Q35.065 -60.832 36.281 -59.616 Q37.497 -58.4 37.497 -56.565 V-51.876 H59.551 Q61.262 -51.876 62.559 -50.579 Q63.855 -49.283 63.855 -47.572 Q63.855 -45.86 62.559 -44.644 Q61.262 -43.43 59.551 -43.43 H56.226 Q53.448 -36.657 49.249 -30.734 Q45.05 -24.81 40.659 -19.465 Z M54.627 23.242  50.608 33.19 Q49.926 34.491 48.97 35.23 Q48.015 35.968 46.604 35.968 Q44.292 35.968 43.022 34.033 Q41.751 32.098 42.67 30.026 L62.652 -18.249 Q63.21 -19.527 64.463 -20.382 Q65.716 -21.238 66.956 -21.238 H70.95 Q72.14 -21.238 73.419 -20.463 Q74.696 -19.689 75.254 -18.41 L95.399 30.063 Q96.316 32.26 94.965 34.114 Q93.614 35.968 91.464 35.968 Q89.89 35.968 88.855 35.212 Q87.82 34.454 87.422 33.177 L83.205 23.242 H54.627 Z M133.428 -29.301 H80.08 Q77.626 -29.301 76.055 -30.871 Q74.485 -32.442 74.485 -34.733 V-50.983 Q74.485 -54.303 72.263 -56.444 Q70.041 -58.587 66.882 -58.587 H71.148 V-75.865 Q71.148 -76.61 71.769 -77.229 Q72.388 -77.85 73.133 -77.85 H80.749 Q81.493 -77.85 82.113 -77.229 Q82.734 -76.61 82.734 -75.865 V-74.427 Q82.734 -73.037 83.669 -72.2 Q84.603 -71.363 85.858 -71.363 Q87.112 -71.363 88.049 -72.2 Q88.986 -73.037 88.986 -74.427 V-75.32 Q88.986 -78.553 86.598 -81.006 Q84.21 -83.457 81.009 -83.457 H72.872 Q69.478 -83.457 67.186 -81.086 Q64.897 -78.714 64.897 -75.32 V-58.587 H51.674 V-70.507 H49.281 Q46.948 -70.507 45.442 -72.077 Q43.934 -73.648 43.934 -75.852 V-91.866 Q43.934 -96.405 47.388 -99.68 Q50.844 -102.955 55.675 -102.955 H133.423 Q138.253 -102.955 141.689 -99.68 Q145.125 -96.405 145.125 -91.866 V-40.39 Q145.125 -35.69 141.689 -32.495 Q138.253 -29.301 133.428 -29.301 Z"/></g><g id="Ultralight-L" transform="matrix(1 0 0 1 491.205 1556)"><path d="M55.793 15.886 H79.657 L67.725 -13.945 L55.793 15.886 Z M108.038 -48.614 H114.487 Q117.869 -48.614 120.452 -51.115 Q123.034 -53.617 123.034 -56.999 V-57.321 Q123.034 -58.337 122.229 -59.119 Q121.424 -59.901 120.294 -59.901 Q119.164 -59.901 118.438 -59.119 Q117.713 -58.337 117.713 -57.321 V-55.87 Q117.713 -54.902 116.906 -54.096 Q116.1 -53.29 115.133 -53.29 H107.392 Q106.425 -53.29 105.619 -54.096 Q104.812 -54.902 104.812 -55.87 V-74.897 Q104.812 -75.865 105.619 -76.671 Q106.425 -77.477 107.392 -77.477 H115.133 Q116.1 -77.477 116.906 -76.671 Q117.713 -75.865 117.713 -74.897 V-73.124 Q117.713 -71.947 118.437 -71.245 Q119.161 -70.544 120.291 -70.544 Q121.421 -70.544 122.228 -71.245 Q123.034 -71.947 123.034 -73.124 V-73.607 Q123.034 -76.989 120.452 -79.572 Q117.869 -82.154 114.487 -82.154 H108.038 Q104.49 -82.154 101.991 -79.572 Q99.491 -76.989 99.491 -73.607 V-56.999 Q99.491 -53.617 101.91 -51.115 Q104.329 -48.614 108.038 -48.614 Z M40.474 -20.78 Q42.57 -18.46 43.699 -17.331 Q44.828 -16.202 47.085 -14.429 L43.215 -7.656 Q40.312 -9.914 39.103 -11.204 Q37.894 -12.494 35.636 -14.912 L26.929 -7.334 Q25.682 -6.205 24.129 -6.286 Q22.575 -6.366 21.769 -7.495 Q20.64 -8.785 20.882 -10.236 Q21.124 -11.687 22.091 -12.816 L30.96 -20.556 Q29.509 -22.491 28.058 -24.426 Q26.606 -26.361 25.155 -28.457 Q23.704 -29.909 24.107 -31.441 Q24.51 -32.972 25.8 -33.94 Q27.09 -34.907 28.622 -34.907 Q30.154 -34.907 31.605 -33.134 Q32.642 -31.662 33.737 -30.139 Q34.83 -28.619 35.959 -27.167 Q39.023 -31.199 42.167 -35.311 Q45.311 -39.422 47.085 -44.582 H15.319 Q13.706 -44.582 12.658 -45.631 Q11.61 -46.679 11.61 -48.13 Q11.61 -49.904 12.658 -50.871 Q13.706 -51.839 15.319 -51.839 H30.154 V-56.725 Q30.154 -58.127 31.202 -59.256 Q32.25 -60.385 33.863 -60.385 Q35.475 -60.385 36.523 -59.337 Q37.571 -58.289 37.571 -56.725 V-51.839 H60.146 Q61.598 -51.839 62.726 -50.71 Q63.855 -49.581 63.855 -48.13 Q63.855 -46.679 62.726 -45.631 Q61.598 -44.582 60.146 -44.582 H56.115 Q53.374 -37.81 49.101 -31.924 Q44.828 -26.039 40.474 -20.78 Z M53.212 22.014  48.859 32.624 Q48.214 33.785 47.407 34.43 Q46.601 35.075 45.347 35.075 Q43.31 35.075 42.214 33.382 Q41.119 31.689 41.925 29.915 L62.242 -19.105 Q62.726 -20.234 63.823 -20.959 Q64.919 -21.685 65.951 -21.685 H69.499 Q70.466 -21.685 71.595 -21.04 Q72.724 -20.395 73.207 -19.266 L93.686 29.915 Q94.493 31.85 93.317 33.463 Q92.14 35.075 90.265 35.075 Q88.849 35.075 87.962 34.43 Q87.075 33.785 86.752 32.656 L82.237 22.014 H53.212 Z M131.903 -29.747 H77.884 Q75.47 -29.747 73.935 -31.281 Q72.401 -32.814 72.401 -35.069 V-49.904 Q72.401 -53.156 70.237 -55.238 Q68.075 -57.321 64.984 -57.321 H70.144 V-74.897 Q70.144 -75.865 70.95 -76.671 Q71.756 -77.477 72.724 -77.477 H80.303 Q81.27 -77.477 82.076 -76.671 Q82.883 -75.865 82.883 -74.897 V-73.124 Q82.883 -71.947 83.687 -71.245 Q84.492 -70.544 85.542 -70.544 Q86.591 -70.544 87.398 -71.245 Q88.204 -71.947 88.204 -73.124 V-73.607 Q88.204 -76.989 85.704 -79.572 Q83.205 -82.154 79.819 -82.154 H73.207 Q69.663 -82.154 67.243 -79.653 Q64.823 -77.15 64.823 -73.607 V-57.321 H50.149 V-69.576 H49.504 Q47.246 -69.576 45.795 -71.11 Q44.344 -72.645 44.344 -74.736 V-90.377 Q44.344 -94.731 47.649 -97.876 Q50.955 -101.02 55.639 -101.02 H131.894 Q136.579 -101.02 139.884 -97.876 Q143.19 -94.731 143.19 -90.377 V-40.39 Q143.19 -35.875 139.884 -32.811 Q136.579 -29.747 131.903 -29.747 Z"/></g><g id="Bold-M" transform="matrix(1 0 0 1 2281.8 1126)"><path d="M58.75 9.77 H70.75 L64.75 -6.605 L58.75 9.77 Z M87.875 -46.605 H92.625 Q96.375 -46.605 99 -49.23 Q101.625 -51.855 101.625 -55.605 V-55.48 Q101.625 -57.605 100.125 -59.105 Q98.625 -60.605 96.5 -60.605 Q94.375 -60.605 92.875 -59.105 Q91.375 -57.605 91.375 -55.48 Q91.375 -55.48 91.375 -55.48 Q91.375 -55.48 91.375 -55.48 H89 Q89 -55.48 89 -55.48 Q89 -55.48 89 -55.48 V-67.73 Q89 -67.73 89 -67.73 Q89 -67.73 89 -67.73 H91.375 Q91.375 -67.73 91.375 -67.73 Q91.375 -67.73 91.375 -67.73 Q91.375 -65.605 92.875 -64.105 Q94.375 -62.605 96.5 -62.605 Q98.625 -62.605 100.125 -64.105 Q101.625 -65.605 101.625 -67.73 V-67.605 Q101.625 -71.355 99 -73.98 Q96.375 -76.605 92.625 -76.605 H87.875 Q84 -76.605 81.438 -73.98 Q78.875 -71.355 78.875 -67.605 V-55.605 Q78.875 -51.855 81.438 -49.23 Q84 -46.605 87.875 -46.605 Z M36.125 -15.48 Q38 -14.23 39.938 -12.98 Q41.875 -11.73 43.875 -10.48 L35.75 3.145 Q33.25 1.27 30.75 -0.48 Q28.25 -2.23 26.25 -4.105 L20.375 0.77 Q18.125 2.77 15.188 2.645 Q12.25 2.52 10.125 0.27 Q8 -2.105 8.188 -5.23 Q8.375 -8.355 10.875 -10.48 L16.5 -14.73 Q15.625 -15.98 14.625 -17.23 Q13.625 -18.48 12.5 -19.73 Q10.125 -22.98 11 -25.855 Q11.875 -28.73 14.188 -30.355 Q16.5 -31.98 19.562 -31.792 Q22.625 -31.605 24.625 -28.355 Q25 -27.73 25.5 -27.042 Q26 -26.355 26.375 -25.855 Q28.25 -28.355 29.875 -31.105 Q31.5 -33.855 33 -36.855 H5.5 Q2.375 -36.855 0.25 -38.98 Q-1.875 -41.105 -1.875 -44.23 Q-1.875 -47.23 0.312 -49.48 Q2.5 -51.73 5.625 -51.73 H14.875 V-52.355 Q14.875 -55.48 17.062 -57.667 Q19.25 -59.855 22.375 -59.855 Q25.5 -59.855 27.688 -57.667 Q29.875 -55.48 29.875 -52.355 V-51.73 H51.75 Q54.875 -51.73 57 -49.48 Q59.125 -47.23 59.125 -44.167 Q59.125 -41.105 57 -38.98 Q54.875 -36.855 51.75 -36.855 H49.5 Q46.625 -30.98 43.188 -25.73 Q39.75 -20.48 36.125 -15.48 Z M54.375 21.77  54.125 21.895 Q53.375 24.02 51.562 25.27 Q49.75 26.52 47.5 26.52 Q43.5 26.52 41.375 23.333 Q39.25 20.145 40.75 16.52 L53.375 -14.605 Q54.375 -16.98 56.562 -18.48 Q58.75 -19.98 61.5 -19.98 H68.375 Q71.125 -19.98 73.312 -18.542 Q75.5 -17.105 76.5 -14.605 L89.25 16.395 Q90.75 20.02 88.562 23.27 Q86.375 26.52 82.375 26.52 Q80 26.52 78 25.208 Q76 23.895 75.25 21.645 L75.125 21.77 H54.375 Z M106.875 -26.105 H75 Q71.375 -26.105 68.938 -28.605 Q66.5 -31.105 66.5 -34.605 V-47.73 Q66.5 -52.23 63.375 -55.292 Q60.25 -58.355 55.75 -58.355 H60 V-67.73 Q60 -67.73 60 -67.73 Q60 -67.73 60 -67.73 H62.25 Q62.25 -67.73 62.25 -67.73 Q62.25 -67.73 62.25 -67.73 Q62.25 -65.605 63.75 -64.105 Q65.25 -62.605 67.375 -62.605 Q69.5 -62.605 71 -64.105 Q72.5 -65.605 72.5 -67.73 V-67.605 Q72.5 -71.355 69.875 -73.98 Q67.25 -76.605 63.5 -76.605 H58.75 Q55 -76.605 52.375 -73.98 Q49.75 -71.355 49.75 -67.605 V-58.355 H43.5 V-70.355 H38 Q34.375 -70.355 31.938 -72.792 Q29.5 -75.23 29.5 -78.855 V-82.23 Q29.5 -88.48 33.875 -92.792 Q38.25 -97.105 44.375 -97.105 H106.875 Q113.125 -97.105 117.5 -92.792 Q121.875 -88.48 121.875 -82.23 V-41.105 Q121.875 -34.855 117.5 -30.48 Q113.125 -26.105 106.875 -26.105 Z"/></g><g id="Semibold-M" transform="matrix(1 0 0 1 1985.97 1126)"><path d="M56.794 8.791 H68.956 L62.903 -7.964 L56.794 8.791 Z M87.44 -46.714 H93.331 Q96.864 -46.714 99.354 -49.202 Q101.843 -51.692 101.843 -55.225 V-55.426 Q101.843 -57.496 100.396 -58.942 Q98.951 -60.387 96.88 -60.387 Q94.81 -60.387 93.364 -58.942 Q91.919 -57.496 91.919 -55.426 Q91.919 -55.426 91.919 -55.426 Q91.919 -55.426 91.919 -55.426 H88.729 Q88.729 -55.426 88.729 -55.426 Q88.729 -55.426 88.729 -55.426 V-68.001 Q88.729 -68.001 88.729 -68.001 Q88.729 -68.001 88.729 -68.001 H91.919 Q91.919 -68.001 91.919 -68.001 Q91.919 -68.001 91.919 -68.001 Q91.919 -65.931 93.364 -64.485 Q94.81 -63.04 96.88 -63.04 Q98.951 -63.04 100.396 -64.485 Q101.843 -65.931 101.843 -68.001 V-68.202 Q101.843 -71.735 99.354 -74.225 Q96.864 -76.714 93.331 -76.714 H87.44 Q83.838 -76.714 81.384 -74.225 Q78.929 -71.735 78.929 -68.202 V-55.225 Q78.929 -51.692 81.384 -49.202 Q83.838 -46.714 87.44 -46.714 Z M36.396 -15.48 Q38 -14.284 39.611 -13.089 Q41.222 -11.892 42.896 -10.751 L35.641 1.786 Q33.468 0.075 31.348 -1.621 Q29.229 -3.317 27.337 -5.137 L20.104 1.314 Q18.071 3.205 15.377 3.053 Q12.685 2.9 10.723 0.868 Q8.761 -1.29 8.921 -4.116 Q9.081 -6.942 11.31 -8.904 L18.456 -14.892 Q17.364 -16.306 16.229 -17.719 Q15.092 -19.132 13.912 -20.6 Q11.81 -23.524 12.604 -26.154 Q13.396 -28.784 15.519 -30.246 Q17.641 -31.709 20.405 -31.521 Q23.169 -31.334 25.005 -28.409 Q25.544 -27.512 26.179 -26.607 Q26.815 -25.702 27.462 -24.931 Q29.609 -27.702 31.424 -30.725 Q33.239 -33.746 34.794 -37.072 H5.718 Q2.864 -37.072 0.902 -39.007 Q-1.06 -40.942 -1.06 -43.795 Q-1.06 -46.577 0.938 -48.61 Q2.935 -50.642 5.787 -50.642 H16.886 V-51.866 Q16.886 -54.719 18.883 -56.716 Q20.88 -58.714 23.734 -58.714 Q26.587 -58.714 28.584 -56.716 Q30.581 -54.719 30.581 -51.866 V-50.642 H52.674 Q55.528 -50.642 57.489 -48.61 Q59.451 -46.577 59.451 -43.76 Q59.451 -40.942 57.489 -39.007 Q55.528 -37.072 52.674 -37.072 H49.718 Q47.005 -31.142 43.595 -25.811 Q40.185 -20.48 36.396 -15.48 Z M52.69 19.814  51.951 21.515 Q51.255 23.476 49.551 24.618 Q47.847 25.759 45.815 25.759 Q42.196 25.759 40.261 22.844 Q38.326 19.928 39.663 16.629 L52.614 -15.584 Q53.505 -17.741 55.475 -19.105 Q57.446 -20.469 59.924 -20.469 H66.147 Q68.625 -20.469 70.595 -19.14 Q72.565 -17.811 73.456 -15.584 L86.479 16.504 Q87.815 19.803 85.817 22.781 Q83.821 25.759 80.201 25.759 Q78.044 25.759 76.261 24.555 Q74.479 23.351 73.782 21.319 L73.06 19.814 H52.69 Z M107.31 -27.192 H75.162 Q71.919 -27.192 69.699 -29.447 Q67.479 -31.702 67.479 -34.876 V-48.274 Q67.479 -52.447 64.544 -55.32 Q61.609 -58.192 57.435 -58.192 H59.837 V-68.001 Q59.837 -68.001 59.837 -68.001 Q59.837 -68.001 59.837 -68.001 H62.903 Q62.903 -68.001 62.903 -68.001 Q62.903 -68.001 62.903 -68.001 Q62.903 -65.931 64.347 -64.485 Q65.794 -63.04 67.864 -63.04 Q69.935 -63.04 71.38 -64.485 Q72.826 -65.931 72.826 -68.001 V-68.202 Q72.826 -71.735 70.338 -74.225 Q67.847 -76.714 64.315 -76.714 H58.424 Q54.891 -76.714 52.403 -74.225 Q49.913 -71.735 49.913 -68.202 V-58.192 H43.826 V-68.996 H38.38 Q35.136 -68.996 32.916 -71.216 Q30.695 -73.436 30.695 -76.681 V-82.665 Q30.695 -88.371 34.69 -92.33 Q38.685 -96.29 44.321 -96.29 H107.31 Q113.016 -96.29 117.011 -92.33 Q121.005 -88.371 121.005 -82.665 V-40.887 Q121.005 -35.181 117.011 -31.186 Q113.016 -27.192 107.31 -27.192 Z"/></g><g id="Medium-M" transform="matrix(1 0 0 1 1689.91 1126)"><path d="M55.326 8.058 H67.611 L61.516 -8.982 L55.326 8.058 Z M87.114 -46.795 H93.861 Q97.231 -46.795 99.619 -49.182 Q102.005 -51.57 102.005 -54.939 V-55.385 Q102.005 -57.415 100.6 -58.82 Q99.196 -60.225 97.166 -60.225 Q95.136 -60.225 93.731 -58.82 Q92.326 -57.415 92.326 -55.385 Q92.326 -55.385 92.326 -55.385 Q92.326 -55.385 92.326 -55.385 H88.525 Q88.525 -55.385 88.525 -55.385 Q88.525 -55.385 88.525 -55.385 V-68.205 Q88.525 -68.205 88.525 -68.205 Q88.525 -68.205 88.525 -68.205 H92.326 Q92.326 -68.205 92.326 -68.205 Q92.326 -68.205 92.326 -68.205 Q92.326 -66.176 93.731 -64.771 Q95.136 -63.366 97.166 -63.366 Q99.196 -63.366 100.6 -64.771 Q102.005 -66.176 102.005 -68.205 V-68.651 Q102.005 -72.021 99.619 -74.407 Q97.231 -76.795 93.861 -76.795 H87.114 Q83.715 -76.795 81.343 -74.407 Q78.97 -72.021 78.97 -68.651 V-54.939 Q78.97 -51.57 81.343 -49.182 Q83.715 -46.795 87.114 -46.795 Z M36.6 -15.48 Q38 -14.325 39.366 -13.17 Q40.734 -12.015 42.163 -10.955 L35.56 0.768 Q33.63 -0.822 31.796 -2.477 Q29.962 -4.132 28.152 -5.912 L19.9 1.721 Q18.03 3.531 15.52 3.359 Q13.011 3.186 11.171 1.316 Q9.331 -0.679 9.471 -3.28 Q9.611 -5.882 11.636 -7.721 L19.924 -15.015 Q18.669 -16.551 17.431 -18.086 Q16.192 -19.621 14.973 -21.251 Q13.074 -23.931 13.806 -26.377 Q14.537 -28.825 16.517 -30.165 Q18.497 -31.505 21.036 -31.317 Q23.576 -31.13 25.291 -28.45 Q25.951 -27.35 26.689 -26.281 Q27.426 -25.214 28.277 -24.239 Q30.628 -27.214 32.585 -30.439 Q34.544 -33.665 36.139 -37.235 H5.88 Q3.231 -37.235 1.391 -39.027 Q-0.449 -40.82 -0.449 -43.469 Q-0.449 -46.089 1.406 -47.959 Q3.261 -49.827 5.91 -49.827 H18.394 V-51.499 Q18.394 -54.149 20.249 -56.002 Q22.104 -57.857 24.753 -57.857 Q27.402 -57.857 29.256 -56.002 Q31.111 -54.149 31.111 -51.499 V-49.827 H53.366 Q56.016 -49.827 57.856 -47.959 Q59.696 -46.089 59.696 -43.454 Q59.696 -40.82 57.856 -39.027 Q56.016 -37.235 53.366 -37.235 H49.88 Q47.291 -31.265 43.901 -25.872 Q40.511 -20.48 36.6 -15.48 Z M51.426 18.346  50.321 21.229 Q49.666 23.069 48.044 24.129 Q46.421 25.189 44.551 25.189 Q41.218 25.189 39.425 22.476 Q37.634 19.765 38.847 16.71 L52.044 -16.317 Q52.854 -18.311 54.66 -19.574 Q56.468 -20.836 58.741 -20.836 H64.475 Q66.75 -20.836 68.558 -19.589 Q70.364 -18.341 71.174 -16.317 L84.4 16.585 Q85.614 19.64 83.76 22.414 Q81.905 25.189 78.571 25.189 Q76.576 25.189 74.956 24.066 Q73.338 22.944 72.683 21.074 L71.511 18.346 H51.426 Z M107.636 -28.007 H75.285 Q72.326 -28.007 70.269 -30.079 Q68.213 -32.151 68.213 -35.08 V-48.681 Q68.213 -52.61 65.42 -55.34 Q62.627 -58.07 58.699 -58.07 H59.715 V-68.205 Q59.715 -68.205 59.715 -68.205 Q59.715 -68.205 59.715 -68.205 H63.391 Q63.391 -68.205 63.391 -68.205 Q63.391 -68.205 63.391 -68.205 Q63.391 -66.176 64.796 -64.771 Q66.201 -63.366 68.231 -63.366 Q70.261 -63.366 71.666 -64.771 Q73.071 -66.176 73.071 -68.205 V-68.651 Q73.071 -72.021 70.684 -74.407 Q68.296 -76.795 64.926 -76.795 H58.179 Q54.81 -76.795 52.422 -74.407 Q50.035 -72.021 50.035 -68.651 V-58.07 H44.071 V-67.977 H38.666 Q35.706 -67.977 33.65 -70.034 Q31.593 -72.091 31.593 -75.051 V-82.991 Q31.593 -88.29 35.301 -91.984 Q39.011 -95.679 44.28 -95.679 H107.636 Q112.935 -95.679 116.644 -91.984 Q120.354 -88.29 120.354 -82.991 V-40.725 Q120.354 -35.426 116.644 -31.716 Q112.935 -28.007 107.636 -28.007 Z"/></g><g id="Regular-M" transform="matrix(1 0 0 1 1394.06 1126)"><path d="M54.25 7.52 H66.625 L60.5 -9.73 L54.25 7.52 Z M86.875 -46.855 H94.25 Q97.5 -46.855 99.812 -49.167 Q102.125 -51.48 102.125 -54.73 V-55.355 Q102.125 -57.355 100.75 -58.73 Q99.375 -60.105 97.375 -60.105 Q95.375 -60.105 94 -58.73 Q92.625 -57.355 92.625 -55.355 Q92.625 -55.355 92.625 -55.355 Q92.625 -55.355 92.625 -55.355 H88.375 Q88.375 -55.355 88.375 -55.355 Q88.375 -55.355 88.375 -55.355 V-68.355 Q88.375 -68.355 88.375 -68.355 Q88.375 -68.355 88.375 -68.355 H92.625 Q92.625 -68.355 92.625 -68.355 Q92.625 -68.355 92.625 -68.355 Q92.625 -66.355 94 -64.98 Q95.375 -63.605 97.375 -63.605 Q99.375 -63.605 100.75 -64.98 Q102.125 -66.355 102.125 -68.355 V-68.98 Q102.125 -72.23 99.812 -74.542 Q97.5 -76.855 94.25 -76.855 H86.875 Q83.625 -76.855 81.312 -74.542 Q79 -72.23 79 -68.98 V-54.73 Q79 -51.48 81.312 -49.167 Q83.625 -46.855 86.875 -46.855 Z M36.75 -15.48 Q38 -14.355 39.188 -13.23 Q40.375 -12.105 41.625 -11.105 L35.5 0.02 Q33.75 -1.48 32.125 -3.105 Q30.5 -4.73 28.75 -6.48 L19.75 2.02 Q18 3.77 15.625 3.583 Q13.25 3.395 11.5 1.645 Q9.75 -0.23 9.875 -2.667 Q10 -5.105 11.875 -6.855 L21 -15.105 Q19.625 -16.73 18.312 -18.355 Q17 -19.98 15.75 -21.73 Q14 -24.23 14.688 -26.542 Q15.375 -28.855 17.25 -30.105 Q19.125 -31.355 21.5 -31.167 Q23.875 -30.98 25.5 -28.48 Q26.25 -27.23 27.062 -26.042 Q27.875 -24.855 28.875 -23.73 Q31.375 -26.855 33.438 -30.23 Q35.5 -33.605 37.125 -37.355 H6 Q3.5 -37.355 1.75 -39.042 Q0 -40.73 0 -43.23 Q0 -45.73 1.75 -47.48 Q3.5 -49.23 6 -49.23 H19.5 V-51.23 Q19.5 -53.73 21.25 -55.48 Q23 -57.23 25.5 -57.23 Q28 -57.23 29.75 -55.48 Q31.5 -53.73 31.5 -51.23 V-49.23 H53.875 Q56.375 -49.23 58.125 -47.48 Q59.875 -45.73 59.875 -43.23 Q59.875 -40.73 58.125 -39.042 Q56.375 -37.355 53.875 -37.355 H50 Q47.5 -31.355 44.125 -25.917 Q40.75 -20.48 36.75 -15.48 Z M50.5 17.27  49.125 21.02 Q48.5 22.77 46.938 23.77 Q45.375 24.77 43.625 24.77 Q40.5 24.77 38.812 22.208 Q37.125 19.645 38.25 16.77 L51.625 -16.855 Q52.375 -18.73 54.062 -19.917 Q55.75 -21.105 57.875 -21.105 H63.25 Q65.375 -21.105 67.062 -19.917 Q68.75 -18.73 69.5 -16.855 L82.875 16.645 Q84 19.52 82.25 22.145 Q80.5 24.77 77.375 24.77 Q75.5 24.77 74 23.708 Q72.5 22.645 71.875 20.895 L70.375 17.27 H50.5 Z M107.875 -28.605 H75.375 Q72.625 -28.605 70.688 -30.542 Q68.75 -32.48 68.75 -35.23 V-48.98 Q68.75 -52.73 66.062 -55.355 Q63.375 -57.98 59.625 -57.98 V-68.355 Q59.625 -68.355 59.625 -68.355 Q59.625 -68.355 59.625 -68.355 H63.75 Q63.75 -68.355 63.75 -68.355 Q63.75 -68.355 63.75 -68.355 Q63.75 -66.355 65.125 -64.98 Q66.5 -63.605 68.5 -63.605 Q70.5 -63.605 71.875 -64.98 Q73.25 -66.355 73.25 -68.355 V-68.98 Q73.25 -72.23 70.938 -74.542 Q68.625 -76.855 65.375 -76.855 H58 Q54.75 -76.855 52.438 -74.542 Q50.125 -72.23 50.125 -68.98 V-57.98 H44.25 V-67.23 H38.875 Q36.125 -67.23 34.188 -69.167 Q32.25 -71.105 32.25 -73.855 V-83.23 Q32.25 -88.23 35.75 -91.73 Q39.25 -95.23 44.25 -95.23 H107.875 Q112.875 -95.23 116.375 -91.73 Q119.875 -88.23 119.875 -83.23 V-40.605 Q119.875 -35.605 116.375 -32.105 Q112.875 -28.605 107.875 -28.605 Z"/></g><g id="Light-M" transform="matrix(1 0 0 1 1098.18 1126)"><path d="M49.826 7.376 H64.172 L57.086 -11.654 L49.826 7.376 Z M86.297 -46.662 H91.75 Q95.047 -46.662 97.433 -49.047 Q99.817 -51.432 99.817 -54.73 V-54.777 Q99.817 -56.441 98.659 -57.6 Q97.5 -58.759 95.836 -58.759 Q94.172 -58.759 93.014 -57.6 Q91.856 -56.441 91.856 -54.777 V-54.394 Q91.856 -54.105 91.615 -53.865 Q91.375 -53.624 91.086 -53.624 H86.836 Q86.547 -53.624 86.308 -53.865 Q86.067 -54.105 86.067 -54.394 V-67.394 Q86.067 -67.681 86.308 -67.922 Q86.547 -68.162 86.836 -68.162 H91.086 Q91.375 -68.162 91.615 -67.922 Q91.856 -67.681 91.856 -67.394 V-66.912 Q91.856 -65.249 93.014 -64.09 Q94.172 -62.931 95.836 -62.931 Q97.5 -62.931 98.659 -64.09 Q99.817 -65.249 99.817 -66.912 V-67.056 Q99.817 -70.355 97.433 -72.74 Q95.047 -75.124 91.75 -75.124 H86.297 Q83 -75.124 80.615 -72.74 Q78.231 -70.355 78.231 -67.056 V-54.73 Q78.231 -51.432 80.567 -49.047 Q82.904 -46.662 86.297 -46.662 Z M34.779 -18.22 Q36.076 -17.095 36.904 -16.282 Q37.73 -15.471 39.125 -14.422 L33.576 -4.884 Q31.73 -6.432 30.586 -7.576 Q29.442 -8.721 27.836 -10.326 L20.424 -3.605 Q18.865 -2.096 16.802 -2.259 Q14.74 -2.422 13.231 -3.98 Q11.721 -5.662 11.87 -7.764 Q12.02 -9.865 13.654 -11.375 L21.144 -17.894 Q19.914 -19.375 18.769 -20.855 Q17.625 -22.336 16.375 -23.894 Q14.769 -26.105 15.336 -28.154 Q15.904 -30.201 17.586 -31.355 Q19.269 -32.509 21.38 -32.394 Q23.49 -32.279 25.019 -30.019 Q25.721 -28.912 26.461 -27.894 Q27.201 -26.875 28.01 -25.797 Q30.365 -28.779 32.428 -31.961 Q34.49 -35.144 36.068 -38.797 H7.731 Q5.52 -38.797 4.01 -40.269 Q2.5 -41.74 2.5 -43.904 Q2.5 -46.115 4.01 -47.624 Q5.52 -49.134 7.731 -49.134 H19.453 V-51.422 Q19.453 -53.586 20.985 -55.12 Q22.519 -56.652 24.683 -56.652 Q26.846 -56.652 28.38 -55.12 Q29.914 -53.586 29.914 -51.422 V-49.134 H50.99 Q53.154 -49.134 54.688 -47.6 Q56.221 -46.066 56.221 -43.904 Q56.221 -41.74 54.688 -40.269 Q53.154 -38.797 50.99 -38.797 H47.644 Q45.193 -33.086 41.841 -28.009 Q38.49 -22.932 34.779 -18.22 Z M46.509 15.828  44.701 20.346 Q44.125 21.905 42.779 22.76 Q41.432 23.616 39.875 23.616 Q37.086 23.616 35.615 21.366 Q34.144 19.116 35.172 16.578 L49.221 -17.961 Q49.922 -19.595 51.394 -20.639 Q52.865 -21.682 54.701 -21.682 H59.5 Q61.336 -21.682 62.807 -20.662 Q64.279 -19.644 64.98 -18.009 L79.076 16.453 Q80.105 18.991 78.571 21.304 Q77.039 23.616 74.25 23.616 Q72.567 23.616 71.284 22.698 Q70 21.78 69.422 20.27 L67.49 15.828 H46.509 Z M105.808 -29.182 H69.846 Q67.287 -29.182 65.495 -30.975 Q63.701 -32.769 63.701 -35.326 V-48.066 Q63.701 -51.527 61.23 -53.936 Q58.759 -56.345 55.297 -56.345 H58.279 V-67.394 Q58.279 -67.681 58.519 -67.922 Q58.76 -68.162 59.047 -68.162 H63.172 Q63.461 -68.162 63.703 -67.922 Q63.943 -67.681 63.943 -67.394 V-66.912 Q63.943 -65.249 65.101 -64.09 Q66.26 -62.931 67.922 -62.931 Q69.586 -62.931 70.745 -64.09 Q71.904 -65.249 71.904 -66.912 V-67.056 Q71.904 -70.355 69.519 -72.74 Q67.135 -75.124 63.836 -75.124 H58.385 Q55.086 -75.124 52.703 -72.74 Q50.318 -70.355 50.318 -67.056 V-56.345 H42.086 V-66.027 H38.635 Q36.172 -66.027 34.38 -67.821 Q32.586 -69.615 32.586 -72.076 V-81.306 Q32.586 -86.066 35.966 -89.397 Q39.346 -92.73 44.154 -92.73 H105.808 Q110.615 -92.73 113.995 -89.397 Q117.375 -86.066 117.375 -81.306 V-40.605 Q117.375 -35.845 113.995 -32.514 Q110.615 -29.182 105.808 -29.182 Z"/></g><g id="Thin-M" transform="matrix(1 0 0 1 802.565 1126)"><path d="M45.404 7.231 H61.721 L53.672 -13.576 L45.404 7.231 Z M85.721 -46.47 H89.25 Q92.596 -46.47 95.052 -48.927 Q97.51 -51.384 97.51 -54.73 V-54.201 Q97.51 -55.527 96.567 -56.47 Q95.625 -57.412 94.297 -57.412 Q92.971 -57.412 92.029 -56.47 Q91.086 -55.527 91.086 -54.201 V-53.432 Q91.086 -52.855 90.606 -52.374 Q90.125 -51.894 89.547 -51.894 H85.297 Q84.721 -51.894 84.24 -52.374 Q83.76 -52.855 83.76 -53.432 V-66.432 Q83.76 -67.009 84.24 -67.49 Q84.721 -67.97 85.297 -67.97 H89.547 Q90.125 -67.97 90.606 -67.49 Q91.086 -67.009 91.086 -66.432 V-65.47 Q91.086 -64.144 92.029 -63.201 Q92.971 -62.259 94.297 -62.259 Q95.625 -62.259 96.567 -63.201 Q97.51 -64.144 97.51 -65.47 V-65.134 Q97.51 -68.48 95.052 -70.936 Q92.596 -73.394 89.25 -73.394 H85.721 Q82.375 -73.394 79.919 -70.936 Q77.461 -68.48 77.461 -65.134 V-54.73 Q77.461 -51.384 79.823 -48.927 Q82.183 -46.47 85.721 -46.47 Z M32.807 -20.961 Q34.154 -19.836 34.62 -19.336 Q35.086 -18.836 36.625 -17.74 L31.654 -9.787 Q29.711 -11.384 29.047 -12.047 Q28.385 -12.711 26.922 -14.172 L21.096 -9.23 Q19.731 -7.961 17.981 -8.1 Q16.231 -8.24 14.961 -9.605 Q13.693 -11.095 13.865 -12.86 Q14.039 -14.624 15.432 -15.894 L21.289 -20.682 Q20.203 -22.019 19.226 -23.355 Q18.25 -24.691 17 -26.057 Q15.539 -27.98 15.985 -29.764 Q16.433 -31.547 17.922 -32.605 Q19.414 -33.662 21.26 -33.62 Q23.106 -33.576 24.539 -31.557 Q25.192 -30.595 25.86 -29.745 Q26.529 -28.894 27.144 -27.865 Q29.356 -30.701 31.419 -33.691 Q33.481 -36.682 35.01 -40.24 H9.461 Q7.539 -40.24 6.269 -41.495 Q5 -42.749 5 -44.576 Q5 -46.499 6.269 -47.769 Q7.539 -49.037 9.461 -49.037 H19.404 V-51.615 Q19.404 -53.441 20.721 -54.759 Q22.039 -56.076 23.865 -56.076 Q25.692 -56.076 27.01 -54.759 Q28.328 -53.441 28.328 -51.615 V-49.037 H48.106 Q49.932 -49.037 51.25 -47.72 Q52.568 -46.402 52.568 -44.576 Q52.568 -42.749 51.25 -41.495 Q49.932 -40.24 48.106 -40.24 H45.289 Q42.885 -34.816 39.557 -30.1 Q36.231 -25.384 32.807 -20.961 Z M42.519 14.385  40.279 19.674 Q39.75 21.039 38.62 21.751 Q37.49 22.463 36.125 22.463 Q33.672 22.463 32.419 20.525 Q31.164 18.588 32.096 16.385 L46.818 -19.066 Q47.471 -20.461 48.726 -21.36 Q49.981 -22.259 51.529 -22.259 H55.75 Q57.299 -22.259 58.553 -21.407 Q59.807 -20.557 60.461 -19.162 L75.279 16.26 Q76.211 18.463 74.894 20.463 Q73.578 22.463 71.125 22.463 Q69.635 22.463 68.567 21.689 Q67.5 20.914 66.971 19.645 L64.606 14.385 H42.519 Z M103.74 -29.759 H64.317 Q61.953 -29.759 60.303 -31.407 Q58.654 -33.057 58.654 -35.422 V-47.152 Q58.654 -50.326 56.399 -52.519 Q54.144 -54.711 50.971 -54.711 H56.932 V-66.432 Q56.932 -67.009 57.414 -67.49 Q57.894 -67.97 58.471 -67.97 H62.596 Q63.172 -67.97 63.654 -67.49 Q64.135 -67.009 64.135 -66.432 V-65.47 Q64.135 -64.144 65.078 -63.201 Q66.019 -62.259 67.346 -62.259 Q68.672 -62.259 69.615 -63.201 Q70.558 -64.144 70.558 -65.47 V-65.134 Q70.558 -68.48 68.101 -70.936 Q65.644 -73.394 62.297 -73.394 H58.769 Q55.422 -73.394 52.966 -70.936 Q50.51 -68.48 50.51 -65.134 V-54.711 H39.922 V-64.826 H38.394 Q36.221 -64.826 34.572 -66.475 Q32.922 -68.124 32.922 -70.297 V-79.384 Q32.922 -83.902 36.182 -87.066 Q39.443 -90.23 44.057 -90.23 H103.74 Q108.356 -90.23 111.615 -87.066 Q114.875 -83.902 114.875 -79.384 V-40.605 Q114.875 -36.086 111.615 -32.922 Q108.356 -29.759 103.74 -29.759 Z"/></g><g id="Ultralight-M" transform="matrix(1 0 0 1 506.415 1126)"><path d="M42.75 7.145 H60.25 L51.625 -14.73 L42.75 7.145 Z M85.375 -46.355 H87.75 Q91.125 -46.355 93.625 -48.855 Q96.125 -51.355 96.125 -54.73 V-53.855 Q96.125 -54.98 95.312 -55.792 Q94.5 -56.605 93.375 -56.605 Q92.25 -56.605 91.438 -55.792 Q90.625 -54.98 90.625 -53.855 V-52.855 Q90.625 -52.105 90 -51.48 Q89.375 -50.855 88.625 -50.855 H84.375 Q83.625 -50.855 83 -51.48 Q82.375 -52.105 82.375 -52.855 V-65.855 Q82.375 -66.605 83 -67.23 Q83.625 -67.855 84.375 -67.855 H88.625 Q89.375 -67.855 90 -67.23 Q90.625 -66.605 90.625 -65.855 V-64.605 Q90.625 -63.48 91.438 -62.667 Q92.25 -61.855 93.375 -61.855 Q94.5 -61.855 95.312 -62.667 Q96.125 -63.48 96.125 -64.605 V-63.98 Q96.125 -67.355 93.625 -69.855 Q91.125 -72.355 87.75 -72.355 H85.375 Q82 -72.355 79.5 -69.855 Q77 -67.355 77 -63.98 V-54.73 Q77 -51.355 79.375 -48.855 Q81.75 -46.355 85.375 -46.355 Z M31.625 -22.605 Q33 -21.48 33.25 -21.167 Q33.5 -20.855 35.125 -19.73 L30.5 -12.73 Q28.5 -14.355 28.125 -14.73 Q27.75 -15.105 26.375 -16.48 L21.5 -12.605 Q20.25 -11.48 18.688 -11.605 Q17.125 -11.73 16 -12.98 Q14.875 -14.355 15.062 -15.917 Q15.25 -17.48 16.5 -18.605 L21.375 -22.355 Q20.375 -23.605 19.5 -24.855 Q18.625 -26.105 17.375 -27.355 Q16 -29.105 16.375 -30.73 Q16.75 -32.355 18.125 -33.355 Q19.5 -34.355 21.188 -34.355 Q22.875 -34.355 24.25 -32.48 Q24.875 -31.605 25.5 -30.855 Q26.125 -30.105 26.625 -29.105 Q28.75 -31.855 30.812 -34.73 Q32.875 -37.605 34.375 -41.105 H10.5 Q8.75 -41.105 7.625 -42.23 Q6.5 -43.355 6.5 -44.98 Q6.5 -46.73 7.625 -47.855 Q8.75 -48.98 10.5 -48.98 H19.375 V-51.73 Q19.375 -53.355 20.562 -54.542 Q21.75 -55.73 23.375 -55.73 Q25 -55.73 26.188 -54.542 Q27.375 -53.355 27.375 -51.73 V-48.98 H46.375 Q48 -48.98 49.188 -47.792 Q50.375 -46.605 50.375 -44.98 Q50.375 -43.355 49.188 -42.23 Q48 -41.105 46.375 -41.105 H43.875 Q41.5 -35.855 38.188 -31.355 Q34.875 -26.855 31.625 -22.605 Z M40.125 13.52  37.625 19.27 Q37.125 20.52 36.125 21.145 Q35.125 21.77 33.875 21.77 Q31.625 21.77 30.5 20.02 Q29.375 18.27 30.25 16.27 L45.375 -19.73 Q46 -20.98 47.125 -21.792 Q48.25 -22.605 49.625 -22.605 H53.5 Q54.875 -22.605 56 -21.855 Q57.125 -21.105 57.75 -19.855 L73 16.145 Q73.875 18.145 72.688 19.958 Q71.5 21.77 69.25 21.77 Q67.875 21.77 66.938 21.083 Q66 20.395 65.5 19.27 L62.875 13.52 H40.125 Z M102.5 -30.105 H61 Q58.75 -30.105 57.188 -31.667 Q55.625 -33.23 55.625 -35.48 V-46.605 Q55.625 -49.605 53.5 -51.667 Q51.375 -53.73 48.375 -53.73 H56.125 V-65.855 Q56.125 -66.605 56.75 -67.23 Q57.375 -67.855 58.125 -67.855 H62.25 Q63 -67.855 63.625 -67.23 Q64.25 -66.605 64.25 -65.855 V-64.605 Q64.25 -63.48 65.062 -62.667 Q65.875 -61.855 67 -61.855 Q68.125 -61.855 68.938 -62.667 Q69.75 -63.48 69.75 -64.605 V-63.98 Q69.75 -67.355 67.25 -69.855 Q64.75 -72.355 61.375 -72.355 H59 Q55.625 -72.355 53.125 -69.855 Q50.625 -67.355 50.625 -63.98 V-53.73 H38.625 V-64.105 H38.25 Q36.25 -64.105 34.688 -65.667 Q33.125 -67.23 33.125 -69.23 V-78.23 Q33.125 -82.605 36.312 -85.667 Q39.5 -88.73 44 -88.73 H102.5 Q107 -88.73 110.188 -85.667 Q113.375 -82.605 113.375 -78.23 V-40.605 Q113.375 -36.23 110.188 -33.167 Q107 -30.105 102.5 -30.105 Z"/></g><g id="Bold-S" transform="matrix(1 0 0 1 2294.23 696)"><path d="M45.367 -0.021 H54.54 L50.003 -12.546 L45.367 -0.021 Z M66.177 -42.232 H69.15 Q71.978 -42.232 73.959 -44.246 Q75.941 -46.261 75.941 -49.136 V-49.432 Q75.941 -50.911 74.758 -52.095 Q73.574 -53.278 72.095 -53.278 Q70.615 -53.278 69.432 -52.095 Q68.249 -50.911 68.249 -49.432 V-48.84 Q68.249 -48.84 68.249 -48.84 Q68.249 -48.84 68.249 -48.84 H66.868 Q66.868 -48.84 66.868 -48.84 Q66.868 -48.84 66.868 -48.84 V-56.927 Q66.868 -56.927 66.868 -56.927 Q66.868 -56.927 66.868 -56.927 H68.249 Q68.249 -56.927 68.249 -56.927 Q68.249 -56.927 68.249 -56.927 V-56.237 Q68.249 -54.758 69.432 -53.574 Q70.615 -52.391 72.095 -52.391 Q73.574 -52.391 74.758 -53.574 Q75.941 -54.758 75.941 -56.237 V-56.73 Q75.941 -59.563 73.957 -61.549 Q71.973 -63.535 69.142 -63.535 H66.148 Q63.219 -63.535 61.246 -61.549 Q59.274 -59.563 59.274 -56.73 V-49.136 Q59.274 -46.261 61.238 -44.246 Q63.204 -42.232 66.177 -42.232 Z M28.207 -19.351 Q29.686 -18.365 30.919 -17.527 Q32.152 -16.688 34.026 -15.702 L27.672 -5.149 Q25.741 -6.629 24.015 -7.812 Q22.289 -8.996 20.514 -10.574 L16.47 -7.22 Q14.794 -5.741 12.427 -5.84 Q10.06 -5.938 8.482 -7.615 Q6.904 -9.39 7.052 -11.856 Q7.2 -14.321 9.074 -15.899 L13.019 -18.751 Q12.328 -19.647 11.687 -20.584 Q11.046 -21.521 10.158 -22.376 Q8.284 -24.874 8.975 -27.044 Q9.665 -29.214 11.391 -30.496 Q13.117 -31.778 15.533 -31.729 Q17.95 -31.679 19.528 -29.115 Q19.824 -28.622 20.12 -28.178 Q20.415 -27.734 20.637 -27.34 Q21.993 -29.214 23.226 -31.285 Q24.459 -33.356 25.544 -35.526 H4.89 Q2.466 -35.526 0.888 -37.153 Q-0.69 -38.78 -0.69 -41.176 Q-0.69 -43.478 1.002 -45.205 Q2.693 -46.931 5.115 -46.931 H11.736 V-47.262 Q11.736 -49.629 13.462 -51.355 Q15.188 -53.081 17.555 -53.081 Q19.922 -53.081 21.648 -51.355 Q23.374 -49.629 23.374 -47.253 V-46.966 H39.157 Q41.521 -46.966 43.148 -45.191 Q44.776 -43.416 44.776 -41.098 Q44.776 -38.78 43.099 -37.104 Q41.422 -35.427 39.056 -35.427 H38.365 Q36.195 -31.088 33.582 -27.093 Q30.968 -23.099 28.207 -19.351 Z M42.014 9.349  41.906 9.181 Q41.324 10.828 39.992 11.765 Q38.661 12.702 36.886 12.702 Q33.73 12.702 32.053 10.218 Q30.377 7.735 31.56 4.91 L41.127 -18.365 Q41.916 -20.14 43.642 -21.373 Q45.367 -22.606 47.468 -22.606 H52.735 Q54.836 -22.606 56.561 -21.472 Q58.287 -20.338 59.076 -18.464 L68.742 4.91 Q69.925 7.771 68.214 10.236 Q66.503 12.702 63.373 12.702 Q61.515 12.702 59.951 11.666 Q58.386 10.631 57.794 8.954 L57.893 9.349 H42.014 Z M79.985 -27.241 H56.413 Q53.721 -27.241 51.911 -29.1 Q50.102 -30.96 50.102 -33.553 V-44.106 Q50.102 -47.41 47.808 -49.654 Q45.515 -51.898 42.212 -51.898 H46.354 V-56.927 Q46.354 -56.927 46.354 -56.927 Q46.354 -56.927 46.354 -56.927 H47.833 Q47.833 -56.927 47.833 -56.927 Q47.833 -56.927 47.833 -56.927 V-56.237 Q47.833 -54.758 49.017 -53.574 Q50.2 -52.391 51.68 -52.391 Q53.159 -52.391 54.342 -53.574 Q55.526 -54.758 55.526 -56.237 V-56.73 Q55.526 -59.563 53.54 -61.549 Q51.553 -63.535 48.721 -63.535 H45.479 Q42.606 -63.535 40.634 -61.76 Q38.661 -59.985 38.661 -57.125 V-51.898 H34.322 V-60.182 H30.397 Q27.714 -60.182 25.889 -61.992 Q24.065 -63.802 24.065 -66.494 V-67.973 Q24.065 -72.412 27.221 -75.469 Q30.377 -78.526 34.617 -78.526 H79.985 Q84.324 -78.526 87.48 -75.469 Q90.636 -72.412 90.636 -67.973 V-37.893 Q90.636 -33.455 87.48 -30.348 Q84.324 -27.241 79.985 -27.241 Z"/></g><g id="Semibold-S" transform="matrix(1 0 0 1 1998.1 696)"><path d="M43.824 -0.793 H53.124 L48.545 -13.618 L43.824 -0.793 Z M65.834 -42.318 H69.707 Q72.363 -42.318 74.238 -44.226 Q76.113 -46.133 76.113 -48.836 V-49.39 Q76.113 -50.826 74.972 -51.967 Q73.832 -53.107 72.395 -53.107 Q70.959 -53.107 69.818 -51.967 Q68.678 -50.826 68.678 -49.39 V-48.798 Q68.678 -48.798 68.678 -48.798 Q68.678 -48.798 68.678 -48.798 H66.654 Q66.654 -48.798 66.654 -48.798 Q66.654 -48.798 66.654 -48.798 V-57.142 Q66.654 -57.142 66.654 -57.142 Q66.654 -57.142 66.654 -57.142 H68.678 Q68.678 -57.142 68.678 -57.142 Q68.678 -57.142 68.678 -57.142 V-56.451 Q68.678 -55.015 69.818 -53.874 Q70.959 -52.734 72.395 -52.734 Q73.832 -52.734 74.972 -53.874 Q76.113 -55.015 76.113 -56.451 V-57.202 Q76.113 -59.864 74.235 -61.742 Q72.358 -63.621 69.699 -63.621 H65.805 Q63.09 -63.621 61.204 -61.742 Q59.316 -59.864 59.316 -57.202 V-48.836 Q59.316 -46.133 61.196 -44.226 Q63.076 -42.318 65.834 -42.318 Z M28.421 -19.351 Q29.686 -18.408 30.662 -17.613 Q31.637 -16.817 33.253 -15.916 L27.586 -6.221 Q25.913 -7.572 24.487 -8.713 Q23.061 -9.854 21.372 -11.388 L16.256 -6.791 Q14.751 -5.398 12.577 -5.518 Q10.403 -5.639 8.953 -7.144 Q7.504 -8.747 7.631 -10.977 Q7.757 -13.207 9.417 -14.656 L14.562 -18.879 Q13.7 -19.905 12.952 -20.97 Q12.204 -22.036 11.273 -23.062 Q9.614 -25.303 10.24 -27.28 Q10.866 -29.256 12.442 -30.41 Q14.018 -31.564 16.198 -31.515 Q18.379 -31.465 19.828 -29.158 Q20.253 -28.451 20.655 -27.835 Q21.058 -27.22 21.495 -26.611 Q23.065 -28.699 24.448 -30.985 Q25.831 -33.27 26.959 -35.697 H5.061 Q2.851 -35.697 1.402 -37.175 Q-0.047 -38.652 -0.047 -40.833 Q-0.047 -42.963 1.495 -44.519 Q3.037 -46.074 5.243 -46.074 H13.323 V-46.877 Q13.323 -49.029 14.898 -50.605 Q16.474 -52.181 18.627 -52.181 Q20.78 -52.181 22.355 -50.605 Q23.931 -49.029 23.931 -46.867 V-46.108 H39.887 Q42.036 -46.108 43.534 -44.505 Q45.033 -42.901 45.033 -40.777 Q45.033 -38.652 43.485 -37.126 Q41.937 -35.599 39.784 -35.599 H38.537 Q36.495 -31.216 33.903 -27.158 Q31.311 -23.099 28.421 -19.351 Z M40.685 7.805  40.191 8.88 Q39.651 10.399 38.406 11.25 Q37.16 12.101 35.556 12.101 Q32.701 12.101 31.174 9.833 Q29.648 7.563 30.702 4.996 L40.526 -19.137 Q41.229 -20.741 42.784 -21.866 Q44.339 -22.992 46.225 -22.992 H50.976 Q52.863 -22.992 54.417 -21.943 Q55.972 -20.895 56.675 -19.236 L66.555 4.996 Q67.609 7.599 66.049 9.851 Q64.488 12.101 61.658 12.101 Q59.972 12.101 58.578 11.151 Q57.186 10.202 56.636 8.697 L56.264 7.805 H40.685 Z M80.328 -28.099 H56.542 Q54.15 -28.099 52.512 -29.765 Q50.874 -31.431 50.874 -33.767 V-44.535 Q50.874 -47.582 48.731 -49.676 Q46.587 -51.769 43.541 -51.769 H46.226 V-57.142 Q46.226 -57.142 46.226 -57.142 Q46.226 -57.142 46.226 -57.142 H48.348 Q48.348 -57.142 48.348 -57.142 Q48.348 -57.142 48.348 -57.142 V-56.451 Q48.348 -55.015 49.488 -53.874 Q50.629 -52.734 52.065 -52.734 Q53.502 -52.734 54.642 -53.874 Q55.783 -55.015 55.783 -56.451 V-57.202 Q55.783 -59.864 53.904 -61.742 Q52.026 -63.621 49.364 -63.621 H45.222 Q42.52 -63.621 40.655 -61.953 Q38.789 -60.285 38.789 -57.596 V-51.769 H34.579 V-59.11 H30.697 Q28.314 -59.11 26.661 -60.748 Q25.007 -62.386 25.007 -64.779 V-68.317 Q25.007 -72.326 27.864 -75.104 Q30.72 -77.883 34.575 -77.883 H80.328 Q84.239 -77.883 87.095 -75.104 Q89.95 -72.326 89.95 -68.317 V-37.721 Q89.95 -33.712 87.095 -30.905 Q84.239 -28.099 80.328 -28.099 Z"/></g><g id="Medium-S" transform="matrix(1 0 0 1 1701.85 696)"><path d="M42.666 -1.372 H52.063 L47.451 -14.422 L42.666 -1.372 Z M65.577 -42.382 H70.125 Q72.652 -42.382 74.447 -44.209 Q76.241 -46.036 76.241 -48.61 V-49.357 Q76.241 -50.761 75.133 -51.87 Q74.025 -52.979 72.621 -52.979 Q71.216 -52.979 70.108 -51.87 Q68.999 -50.761 68.999 -49.357 V-48.765 Q68.999 -48.765 68.999 -48.765 Q68.999 -48.765 68.999 -48.765 H66.493 Q66.493 -48.765 66.493 -48.765 Q66.493 -48.765 66.493 -48.765 V-57.302 Q66.493 -57.302 66.493 -57.302 Q66.493 -57.302 66.493 -57.302 H68.999 Q68.999 -57.302 68.999 -57.302 Q68.999 -57.302 68.999 -57.302 V-56.612 Q68.999 -55.208 70.108 -54.1 Q71.216 -52.991 72.621 -52.991 Q74.025 -52.991 75.133 -54.1 Q76.241 -55.208 76.241 -56.612 V-57.556 Q76.241 -60.088 74.444 -61.887 Q72.648 -63.685 70.117 -63.685 H65.547 Q62.994 -63.685 61.171 -61.887 Q59.349 -60.088 59.349 -57.556 V-48.61 Q59.349 -46.036 61.163 -44.209 Q62.979 -42.382 65.577 -42.382 Z M28.582 -19.351 Q29.686 -18.44 30.468 -17.677 Q31.251 -16.913 32.674 -16.077 L27.521 -7.025 Q26.041 -8.28 24.841 -9.388 Q23.64 -10.497 22.015 -12 L16.096 -6.47 Q14.719 -5.14 12.689 -5.277 Q10.66 -5.413 9.307 -6.79 Q7.954 -8.265 8.065 -10.317 Q8.175 -12.371 9.674 -13.723 L15.72 -18.976 Q14.73 -20.098 13.901 -21.26 Q13.072 -22.422 12.109 -23.576 Q10.611 -25.625 11.189 -27.456 Q11.766 -29.289 13.23 -30.346 Q14.693 -31.403 16.696 -31.354 Q18.7 -31.305 20.053 -29.19 Q20.574 -28.322 21.057 -27.578 Q21.541 -26.834 22.138 -26.065 Q23.869 -28.313 25.364 -30.759 Q26.861 -33.206 28.02 -35.826 H5.191 Q3.141 -35.826 1.788 -37.191 Q0.435 -38.556 0.435 -40.575 Q0.435 -42.578 1.865 -44.004 Q3.294 -45.431 5.34 -45.431 H14.513 V-46.587 Q14.513 -48.579 15.976 -50.042 Q17.44 -51.505 19.431 -51.505 Q21.423 -51.505 22.886 -50.042 Q24.35 -48.579 24.35 -46.578 V-45.465 H40.433 Q42.422 -45.465 43.824 -43.991 Q45.226 -42.515 45.226 -40.535 Q45.226 -38.556 43.775 -37.141 Q42.323 -35.727 40.331 -35.727 H38.665 Q36.721 -31.313 34.145 -27.206 Q31.569 -23.099 28.582 -19.351 Z M39.688 6.647  38.904 8.655 Q38.398 10.077 37.216 10.864 Q36.035 11.651 34.559 11.651 Q31.929 11.651 30.515 9.543 Q29.101 7.435 30.059 5.06 L40.076 -19.716 Q40.715 -21.191 42.14 -22.236 Q43.567 -23.282 45.293 -23.282 H49.658 Q51.384 -23.282 52.81 -22.297 Q54.235 -21.313 54.874 -19.815 L64.915 5.06 Q65.873 7.471 64.425 9.561 Q62.976 11.651 60.372 11.651 Q58.814 11.651 57.55 10.766 Q56.285 9.88 55.768 8.503 L55.042 6.647 H39.688 Z M80.586 -28.742 H56.638 Q54.472 -28.742 52.962 -30.263 Q51.453 -31.785 51.453 -33.928 V-44.857 Q51.453 -47.71 49.422 -49.691 Q47.391 -51.673 44.538 -51.673 H46.129 V-57.302 Q46.129 -57.302 46.129 -57.302 Q46.129 -57.302 46.129 -57.302 H48.734 Q48.734 -57.302 48.734 -57.302 Q48.734 -57.302 48.734 -57.302 V-56.612 Q48.734 -55.208 49.842 -54.1 Q50.951 -52.991 52.355 -52.991 Q53.76 -52.991 54.868 -54.1 Q55.977 -55.208 55.977 -56.612 V-57.556 Q55.977 -60.088 54.178 -61.887 Q52.379 -63.685 49.846 -63.685 H45.028 Q42.456 -63.685 40.671 -62.097 Q38.886 -60.511 38.886 -57.95 V-51.673 H34.772 V-58.306 H30.923 Q28.764 -58.306 27.24 -59.815 Q25.715 -61.325 25.715 -63.493 V-68.574 Q25.715 -72.262 28.346 -74.831 Q30.977 -77.401 34.542 -77.401 H80.586 Q84.174 -77.401 86.805 -74.831 Q89.436 -72.262 89.436 -68.574 V-37.593 Q89.436 -33.905 86.805 -31.323 Q84.174 -28.742 80.586 -28.742 Z"/></g><g id="Regular-S" transform="matrix(1 0 0 1 1405.73 696)"><path d="M41.817 -1.796 H51.285 L46.65 -15.012 L41.817 -1.796 Z M65.388 -42.43 H70.432 Q72.865 -42.43 74.6 -44.197 Q76.336 -45.965 76.336 -48.446 V-49.333 Q76.336 -50.714 75.251 -51.799 Q74.166 -52.884 72.785 -52.884 Q71.404 -52.884 70.32 -51.799 Q69.235 -50.714 69.235 -49.333 V-48.742 Q69.235 -48.742 69.235 -48.742 Q69.235 -48.742 69.235 -48.742 H66.375 Q66.375 -48.742 66.375 -48.742 Q66.375 -48.742 66.375 -48.742 V-57.421 Q66.375 -57.421 66.375 -57.421 Q66.375 -57.421 66.375 -57.421 H69.235 Q69.235 -57.421 69.235 -57.421 Q69.235 -57.421 69.235 -57.421 V-56.73 Q69.235 -55.349 70.32 -54.265 Q71.404 -53.18 72.785 -53.18 Q74.166 -53.18 75.251 -54.265 Q76.336 -55.349 76.336 -56.73 V-57.815 Q76.336 -60.253 74.598 -61.993 Q72.86 -63.733 70.424 -63.733 H65.359 Q62.923 -63.733 61.148 -61.993 Q59.372 -60.253 59.372 -57.815 V-48.446 Q59.372 -45.965 61.14 -44.197 Q62.908 -42.43 65.388 -42.43 Z M28.7 -19.351 Q29.686 -18.464 30.327 -17.724 Q30.968 -16.984 32.25 -16.195 L27.475 -7.615 Q26.136 -8.798 25.1 -9.883 Q24.065 -10.968 22.486 -12.448 L15.977 -6.234 Q14.695 -4.952 12.772 -5.1 Q10.849 -5.248 9.567 -6.53 Q8.284 -7.911 8.383 -9.834 Q8.482 -11.757 9.863 -13.039 L16.569 -19.047 Q15.484 -20.239 14.597 -21.472 Q13.709 -22.705 12.723 -23.954 Q11.342 -25.861 11.884 -27.587 Q12.427 -29.312 13.808 -30.299 Q15.188 -31.285 17.062 -31.236 Q18.936 -31.186 20.218 -29.214 Q20.81 -28.228 21.352 -27.389 Q21.895 -26.551 22.61 -25.663 Q24.459 -28.03 26.037 -30.595 Q27.615 -33.159 28.799 -35.92 H5.284 Q3.353 -35.92 2.071 -37.202 Q0.789 -38.485 0.789 -40.387 Q0.789 -42.295 2.136 -43.627 Q3.482 -44.958 5.411 -44.958 H15.386 V-46.375 Q15.386 -48.248 16.766 -49.629 Q18.147 -51.01 20.021 -51.01 Q21.895 -51.01 23.276 -49.629 Q24.656 -48.248 24.656 -46.366 V-44.994 H40.834 Q42.705 -44.994 44.036 -43.613 Q45.367 -42.232 45.367 -40.358 Q45.367 -38.485 43.987 -37.153 Q42.606 -35.822 40.732 -35.822 H38.76 Q36.886 -31.384 34.322 -27.241 Q31.757 -23.099 28.7 -19.351 Z M38.957 5.798  37.961 8.49 Q37.477 9.842 36.343 10.581 Q35.209 11.321 33.828 11.321 Q31.363 11.321 30.031 9.331 Q28.7 7.34 29.588 5.108 L39.746 -20.14 Q40.338 -21.521 41.669 -22.507 Q43.001 -23.494 44.608 -23.494 H48.691 Q50.299 -23.494 51.63 -22.557 Q52.962 -21.62 53.553 -20.239 L63.712 5.108 Q64.599 7.376 63.233 9.349 Q61.867 11.321 59.428 11.321 Q57.965 11.321 56.795 10.483 Q55.625 9.644 55.131 8.362 L54.145 5.798 H38.957 Z M80.774 -29.214 H56.709 Q54.707 -29.214 53.292 -30.629 Q51.877 -32.044 51.877 -34.046 V-45.092 Q51.877 -47.805 49.929 -49.703 Q47.981 -51.602 45.269 -51.602 H46.058 V-57.421 Q46.058 -57.421 46.058 -57.421 Q46.058 -57.421 46.058 -57.421 H49.017 Q49.017 -57.421 49.017 -57.421 Q49.017 -57.421 49.017 -57.421 V-56.73 Q49.017 -55.349 50.102 -54.265 Q51.186 -53.18 52.567 -53.18 Q53.948 -53.18 55.033 -54.265 Q56.118 -55.349 56.118 -56.73 V-57.815 Q56.118 -60.253 54.378 -61.993 Q52.638 -63.733 50.2 -63.733 H44.887 Q42.409 -63.733 40.683 -62.204 Q38.957 -60.675 38.957 -58.21 V-51.602 H34.913 V-57.716 H31.088 Q29.094 -57.716 27.664 -59.132 Q26.234 -60.547 26.234 -62.549 V-68.762 Q26.234 -72.214 28.7 -74.631 Q31.166 -77.047 34.519 -77.047 H80.774 Q84.127 -77.047 86.593 -74.631 Q89.058 -72.214 89.058 -68.762 V-37.498 Q89.058 -34.046 86.593 -31.63 Q84.127 -29.214 80.774 -29.214 Z"/></g><g id="Light-S" transform="matrix(1 0 0 1 1109.75 696)"><path d="M38.327 -1.91 H49.35 L43.956 -16.53 L38.327 -1.91 Z M64.933 -42.278 H68.46 Q70.93 -42.278 72.722 -44.102 Q74.515 -45.928 74.515 -48.446 V-48.878 Q74.515 -49.993 73.601 -50.907 Q72.687 -51.822 71.571 -51.822 Q70.456 -51.822 69.541 -50.907 Q68.628 -49.993 68.628 -48.878 V-47.983 Q68.628 -47.755 68.438 -47.566 Q68.249 -47.376 68.021 -47.376 H65.161 Q64.933 -47.376 64.743 -47.566 Q64.554 -47.755 64.554 -47.983 V-56.662 Q64.554 -56.889 64.743 -57.079 Q64.933 -57.269 65.161 -57.269 H68.021 Q68.249 -57.269 68.438 -57.079 Q68.628 -56.889 68.628 -56.662 V-55.592 Q68.628 -54.477 69.541 -53.562 Q70.456 -52.648 71.571 -52.648 Q72.687 -52.648 73.601 -53.562 Q74.515 -54.477 74.515 -55.592 V-56.297 Q74.515 -58.774 72.72 -60.571 Q70.925 -62.367 68.452 -62.367 H64.903 Q62.43 -62.367 60.597 -60.571 Q58.766 -58.774 58.766 -56.297 V-48.446 Q58.766 -45.928 60.552 -44.102 Q62.339 -42.278 64.933 -42.278 Z M27.145 -21.513 Q28.168 -20.626 28.525 -20.132 Q28.881 -19.64 30.278 -18.813 L25.957 -11.484 Q24.542 -12.706 23.886 -13.411 Q23.23 -14.117 21.766 -15.482 L16.509 -10.672 Q15.378 -9.581 13.701 -9.709 Q12.024 -9.838 10.933 -10.968 Q9.84 -12.197 9.957 -13.855 Q10.076 -15.513 11.266 -16.606 L16.682 -21.247 Q15.712 -22.326 14.956 -23.444 Q14.202 -24.564 13.216 -25.661 Q11.948 -27.34 12.396 -28.858 Q12.844 -30.375 14.073 -31.285 Q15.302 -32.195 16.967 -32.203 Q18.632 -32.211 19.838 -30.428 Q20.393 -29.555 20.878 -28.85 Q21.363 -28.145 21.927 -27.295 Q23.662 -29.548 25.24 -31.961 Q26.818 -34.373 27.964 -37.059 H6.65 Q4.947 -37.059 3.854 -38.17 Q2.762 -39.282 2.762 -40.918 Q2.762 -42.598 3.919 -43.74 Q5.076 -44.882 6.776 -44.882 H15.348 V-46.527 Q15.348 -48.135 16.557 -49.345 Q17.767 -50.554 19.376 -50.554 Q20.984 -50.554 22.195 -49.345 Q23.405 -48.135 23.405 -46.518 V-44.918 H38.558 Q40.163 -44.918 41.324 -43.708 Q42.485 -42.498 42.485 -40.89 Q42.485 -39.282 41.275 -38.121 Q40.064 -36.96 38.456 -36.96 H36.901 Q35.065 -32.75 32.52 -28.891 Q29.974 -25.034 27.145 -21.513 Z M35.808 4.66  34.47 7.959 Q34.026 9.159 33.062 9.784 Q32.098 10.411 30.87 10.411 Q28.669 10.411 27.508 8.667 Q26.348 6.923 27.159 4.956 L37.849 -21.013 Q38.403 -22.204 39.563 -23.076 Q40.724 -23.949 42.105 -23.949 H45.732 Q47.112 -23.949 48.273 -23.144 Q49.434 -22.341 49.987 -21.149 L60.715 4.956 Q61.526 6.959 60.332 8.685 Q59.137 10.411 56.963 10.411 Q55.651 10.411 54.651 9.686 Q53.652 8.962 53.196 7.869 L51.869 4.66 H35.808 Z M79.143 -29.67 H52.347 Q50.496 -29.67 49.195 -30.97 Q47.893 -32.272 47.893 -34.122 V-44.372 Q47.893 -46.856 46.116 -48.584 Q44.339 -50.312 41.854 -50.312 H44.996 V-56.662 Q44.996 -56.889 45.185 -57.079 Q45.375 -57.269 45.602 -57.269 H48.561 Q48.789 -57.269 48.979 -57.079 Q49.169 -56.889 49.169 -56.662 V-55.592 Q49.169 -54.477 50.083 -53.562 Q50.997 -52.648 52.111 -52.648 Q53.227 -52.648 54.141 -53.562 Q55.055 -54.477 55.055 -55.592 V-56.297 Q55.055 -58.774 53.259 -60.571 Q51.463 -62.367 48.986 -62.367 H45.191 Q42.674 -62.367 40.892 -60.782 Q39.109 -59.196 39.109 -56.692 V-50.312 H33.206 V-56.768 H30.898 Q29.132 -56.768 27.816 -58.07 Q26.5 -59.371 26.5 -61.146 V-67.245 Q26.5 -70.507 28.87 -72.79 Q31.241 -75.074 34.443 -75.074 H79.143 Q82.344 -75.074 84.715 -72.79 Q87.086 -70.507 87.086 -67.245 V-37.498 Q87.086 -34.236 84.715 -31.953 Q82.344 -29.67 79.143 -29.67 Z"/></g><g id="Thin-S" transform="matrix(1 0 0 1 814.015 696)"><path d="M34.837 -2.024 H47.416 L41.263 -18.047 L34.837 -2.024 Z M64.478 -42.126 H66.487 Q68.996 -42.126 70.845 -44.008 Q72.695 -45.889 72.695 -48.446 V-48.423 Q72.695 -49.272 71.951 -50.016 Q71.207 -50.759 70.357 -50.759 Q69.508 -50.759 68.764 -50.016 Q68.021 -49.272 68.021 -48.423 V-47.225 Q68.021 -46.769 67.642 -46.389 Q67.262 -46.011 66.807 -46.011 H63.946 Q63.492 -46.011 63.112 -46.389 Q62.733 -46.769 62.733 -47.225 V-55.904 Q62.733 -56.358 63.112 -56.738 Q63.492 -57.117 63.946 -57.117 H66.807 Q67.262 -57.117 67.642 -56.738 Q68.021 -56.358 68.021 -55.904 V-54.454 Q68.021 -53.605 68.764 -52.861 Q69.508 -52.118 70.357 -52.118 Q71.207 -52.118 71.951 -52.861 Q72.695 -53.605 72.695 -54.454 V-54.78 Q72.695 -57.295 70.842 -59.149 Q68.991 -61.002 66.479 -61.002 H64.448 Q61.937 -61.002 60.048 -59.149 Q58.158 -57.295 58.158 -54.78 V-48.446 Q58.158 -45.889 59.964 -44.008 Q61.77 -42.126 64.478 -42.126 Z M25.589 -23.676 Q26.651 -22.788 26.723 -22.542 Q26.795 -22.295 28.305 -21.43 L24.44 -15.353 Q22.949 -16.613 22.672 -16.939 Q22.396 -17.265 21.045 -18.517 L17.039 -15.11 Q16.061 -14.208 14.631 -14.318 Q13.201 -14.428 12.298 -15.406 Q11.395 -16.483 11.531 -17.876 Q11.668 -19.268 12.669 -20.171 L16.797 -23.446 Q15.94 -24.412 15.317 -25.417 Q14.695 -26.422 13.709 -27.368 Q12.556 -28.819 12.908 -30.128 Q13.261 -31.437 14.338 -32.271 Q15.416 -33.106 16.873 -33.171 Q18.329 -33.235 19.46 -31.642 Q19.976 -30.883 20.404 -30.311 Q20.833 -29.738 21.245 -28.926 Q22.866 -31.065 24.444 -33.326 Q26.022 -35.587 27.13 -38.197 H8.016 Q6.54 -38.197 5.636 -39.138 Q4.734 -40.077 4.734 -41.449 Q4.734 -42.901 5.702 -43.854 Q6.669 -44.807 8.141 -44.807 H15.31 V-46.678 Q15.31 -48.021 16.349 -49.06 Q17.389 -50.1 18.731 -50.1 Q20.074 -50.1 21.114 -49.06 Q22.153 -48.021 22.153 -46.669 V-44.842 H36.282 Q37.621 -44.842 38.612 -43.802 Q39.602 -42.763 39.602 -41.421 Q39.602 -40.077 38.562 -39.088 Q37.523 -38.098 36.181 -38.098 H35.042 Q33.245 -34.115 30.718 -30.541 Q28.192 -26.968 25.589 -23.676 Z M32.66 3.522  30.981 7.428 Q30.574 8.476 29.781 8.989 Q28.988 9.5 27.911 9.5 Q25.976 9.5 24.987 8.003 Q23.996 6.506 24.732 4.804 L35.953 -21.885 Q36.469 -22.887 37.459 -23.646 Q38.449 -24.404 39.601 -24.404 H42.774 Q43.927 -24.404 44.916 -23.732 Q45.906 -23.062 46.422 -22.06 L57.718 4.804 Q58.454 6.542 57.43 8.021 Q56.406 9.5 54.497 9.5 Q53.337 9.5 52.508 8.89 Q51.68 8.278 51.262 7.376 L49.594 3.522 H32.66 Z M77.511 -30.124 H47.985 Q46.287 -30.124 45.098 -31.312 Q43.911 -32.5 43.911 -34.198 V-43.651 Q43.911 -45.908 42.304 -47.465 Q40.698 -49.023 38.441 -49.023 H43.933 V-55.904 Q43.933 -56.358 44.313 -56.738 Q44.692 -57.117 45.148 -57.117 H48.106 Q48.561 -57.117 48.941 -56.738 Q49.32 -56.358 49.32 -55.904 V-54.454 Q49.32 -53.605 50.064 -52.861 Q50.807 -52.118 51.657 -52.118 Q52.506 -52.118 53.25 -52.861 Q53.993 -53.605 53.993 -54.454 V-54.78 Q53.993 -57.295 52.14 -59.149 Q50.287 -61.002 47.772 -61.002 H45.494 Q42.939 -61.002 41.1 -59.359 Q39.261 -57.716 39.261 -55.175 V-49.023 H31.499 V-55.82 H30.708 Q29.17 -55.82 27.968 -57.007 Q26.765 -58.195 26.765 -59.742 V-65.728 Q26.765 -68.8 29.041 -70.951 Q31.317 -73.102 34.367 -73.102 H77.511 Q80.562 -73.102 82.837 -70.951 Q85.113 -68.8 85.113 -65.728 V-37.498 Q85.113 -34.426 82.837 -32.275 Q80.562 -30.124 77.511 -30.124 Z"/></g><g id="Ultralight-S" transform="matrix(1 0 0 1 517.792 696)"><path d="M32.744 -2.092 H46.255 L39.647 -18.957 L32.744 -2.092 Z M64.205 -42.035 H65.304 Q67.835 -42.035 69.718 -43.95 Q71.602 -45.867 71.602 -48.446 V-48.15 Q71.602 -48.84 70.961 -49.481 Q70.32 -50.122 69.629 -50.122 Q68.939 -50.122 68.298 -49.481 Q67.657 -48.84 67.657 -48.15 V-46.769 Q67.657 -46.177 67.164 -45.684 Q66.671 -45.191 66.079 -45.191 H63.219 Q62.627 -45.191 62.134 -45.684 Q61.641 -46.177 61.641 -46.769 V-55.448 Q61.641 -56.04 62.134 -56.533 Q62.627 -57.026 63.219 -57.026 H66.079 Q66.671 -57.026 67.164 -56.533 Q67.657 -56.04 67.657 -55.448 V-53.771 Q67.657 -53.081 68.298 -52.44 Q68.939 -51.799 69.629 -51.799 Q70.32 -51.799 70.961 -52.44 Q71.602 -53.081 71.602 -53.771 V-53.87 Q71.602 -56.407 69.716 -58.294 Q67.83 -60.182 65.296 -60.182 H64.175 Q61.641 -60.182 59.717 -58.294 Q57.794 -56.407 57.794 -53.87 V-48.446 Q57.794 -45.867 59.611 -43.95 Q61.429 -42.035 64.205 -42.035 Z M24.656 -24.973 Q25.741 -24.085 25.643 -23.987 Q25.544 -23.888 27.122 -23 L23.53 -17.675 Q21.993 -18.957 21.944 -19.055 Q21.895 -19.154 20.613 -20.338 L17.358 -17.773 Q16.47 -16.984 15.188 -17.083 Q13.906 -17.182 13.117 -18.069 Q12.328 -19.055 12.476 -20.288 Q12.624 -21.521 13.512 -22.31 L16.865 -24.767 Q16.076 -25.663 15.533 -26.6 Q14.991 -27.537 14.005 -28.392 Q12.92 -29.707 13.216 -30.89 Q13.512 -32.074 14.498 -32.863 Q15.484 -33.652 16.816 -33.751 Q18.147 -33.849 19.232 -32.37 Q19.725 -31.679 20.12 -31.186 Q20.514 -30.693 20.835 -29.904 Q22.388 -31.975 23.966 -34.145 Q25.544 -36.315 26.629 -38.879 H8.835 Q7.496 -38.879 6.707 -39.717 Q5.918 -40.556 5.918 -41.768 Q5.918 -43.084 6.772 -43.923 Q7.625 -44.761 8.961 -44.761 H15.287 V-46.769 Q15.287 -47.953 16.224 -48.89 Q17.161 -49.826 18.344 -49.826 Q19.528 -49.826 20.465 -48.89 Q21.402 -47.953 21.402 -46.76 V-44.797 H34.916 Q36.097 -44.797 36.984 -43.86 Q37.872 -42.923 37.872 -41.739 Q37.872 -40.556 36.935 -39.668 Q35.998 -38.78 34.815 -38.78 H33.927 Q32.152 -34.934 29.637 -31.532 Q27.122 -28.129 24.656 -24.973 Z M30.771 2.839  28.887 7.11 Q28.503 8.066 27.812 8.51 Q27.122 8.954 26.136 8.954 Q24.36 8.954 23.473 7.605 Q22.585 6.256 23.276 4.713 L34.815 -22.409 Q35.308 -23.296 36.195 -23.987 Q37.083 -24.677 38.099 -24.677 H40.998 Q42.014 -24.677 42.902 -24.085 Q43.79 -23.494 44.283 -22.606 L55.92 4.713 Q56.611 6.291 55.689 7.623 Q54.766 8.954 53.018 8.954 Q51.949 8.954 51.223 8.412 Q50.496 7.869 50.102 7.08 L48.228 2.839 H30.771 Z M76.533 -30.397 H45.367 Q43.76 -30.397 42.641 -31.517 Q41.521 -32.636 41.521 -34.244 V-43.219 Q41.521 -45.339 40.017 -46.794 Q38.513 -48.248 36.393 -48.248 H43.296 V-55.448 Q43.296 -56.04 43.79 -56.533 Q44.283 -57.026 44.874 -57.026 H47.833 Q48.425 -57.026 48.918 -56.533 Q49.411 -56.04 49.411 -55.448 V-53.771 Q49.411 -53.081 50.052 -52.44 Q50.693 -51.799 51.384 -51.799 Q52.074 -51.799 52.715 -52.44 Q53.356 -53.081 53.356 -53.771 V-53.87 Q53.356 -56.407 51.468 -58.294 Q49.581 -60.182 47.044 -60.182 H45.676 Q43.099 -60.182 41.225 -58.505 Q39.351 -56.829 39.351 -54.265 V-48.248 H30.475 V-55.251 H30.594 Q29.193 -55.251 28.059 -56.37 Q26.925 -57.49 26.925 -58.9 V-64.817 Q26.925 -67.776 29.144 -69.847 Q31.363 -71.918 34.322 -71.918 H76.533 Q79.492 -71.918 81.711 -69.847 Q83.93 -67.776 83.93 -64.817 V-37.498 Q83.93 -34.54 81.711 -32.468 Q79.492 -30.397 76.533 -30.397 Z"/></g></g></svg>