<svg xmlns="http://www.w3.org/2000/svg" height="40" viewBox="0 -960 960 960" width="40"><path d="M176.3-105.13q-14.29 0-22.92-7.91-8.64-7.91-8.64-24.45v-672.92h-15.79q-10.42 0-17.31-6.89-6.9-6.89-6.9-16.92 0-10.04 6.9-17.05 6.89-7.02 17.31-7.02h702.63q9.81 0 16.74 7.05 6.94 7.06 6.94 16.63 0 10.42-6.94 17.31-6.93 6.89-16.74 6.89h-16.26v672.92q-.59 16.54-9.34 24.45t-22.45 7.91q-72.97 0-132.75-62.98t-73.69-130.11H382.37q-14.06 67.13-73.75 130.11-59.68 62.98-132.32 62.98Zm16.33-53.45q64.15-17.32 105.95-68.68 41.79-51.35 41.79-118.75v-464.4H192.63v651.83ZM388.26-346.1h183.48v-464.31H388.26v464.31Zm379.2 187.14v-651.45H619.63v464.43q0 67.14 41.27 118.52 41.27 51.38 106.56 68.5ZM340.37-810.41H192.63h147.74Zm427.09 0H619.63h147.83Z"/></svg>