<svg xmlns="http://www.w3.org/2000/svg" height="20" viewBox="0 -960 960 960" width="20"><path d="M172.31-84.39q-16.46 0-28.39-9.53Q132-103.46 132-127.71V-798h-23q-16.07 0-27.53-11.4Q70-820.81 70-836.79t11.47-27.59Q92.93-876 109-876h741q16.07 0 27.53 11.41Q889-853.19 889-837.21q0 15.98-11.47 27.59Q866.07-798 850-798h-22v670.29q0 24.25-12.42 33.79-12.43 9.53-28.89 9.53-72.38 0-137-58.34-64.61-58.35-85.38-124.27H394.69q-20.77 65.92-85.88 124.27-65.12 58.34-136.5 58.34ZM210-175.85q55.62-15.03 88.12-61.24 32.5-46.22 32.5-105.91v-455H210v622.15ZM408.61-345h141.78v-453H408.61v453ZM750-176.23V-798H628.38v455q0 59.31 32.7 105.81 32.69 46.5 88.92 60.96ZM330.62-798H210h120.62ZM750-798H628.38 750Z"/></svg>