<svg xmlns="http://www.w3.org/2000/svg" height="48" viewBox="0 -960 960 960" width="48"><path d="M159.85-84.39q-16.62 0-26.23-8.8Q124-102 124-120.62v-700.84h-17.31q-12.92 0-21.3-8.39Q77-838.23 77-850.46q0-12.23 8.39-20.81 8.38-8.57 21.3-8.57h746.62q11.92 0 20.8 8.57 8.89 8.58 8.89 20.12 0 12.92-8.89 21.3-8.88 8.39-20.8 8.39h-17.93v700.84q-.38 18.62-10 27.43-9.61 8.8-24.84 8.8-76.62 0-140.62-63.88T580-282.31H380q-16.92 70.16-80.92 134.04-64 63.88-139.23 63.88Zm228.23-256.3h183.84v-481.16H388.08v481.16Z"/></svg>