<svg xmlns="http://www.w3.org/2000/svg" height="24" viewBox="0 -960 960 960" width="24"><path d="M152.7-71.87q-18.2 0-29.52-10.84-11.31-10.83-11.31-32.99v-681.43q-18.91 0-31.97-13.29-13.05-13.3-13.05-32.45 0-19.15 13.17-32.21 13.18-13.05 32.33-13.05h735.3q19.15 0 32.21 13.29 13.05 13.3 13.05 32.45 0 19.15-12.93 32.21-12.94 13.05-31.85 13.05v681.43q-.76 22.16-12.31 32.99-11.56 10.84-29.75 10.84-76.77 0-145.32-64.45-68.55-64.44-90.71-131.96H388.72q-22.15 67.52-90.71 131.96-68.55 64.45-145.31 64.45Zm251.84-287.17h150.92v-438.33H404.54v438.33Z"/></svg>