<svg xmlns="http://www.w3.org/2000/svg" height="20" viewBox="0 -960 960 960" width="20"><path d="M202.27-124.46q-12.85 0-21.52-7.23t-8.67-24.55v-632.53h-23.93q-9.95 0-17.01-7-7.06-7-7.06-16.77t7.06-16.98q7.06-7.21 17.01-7.21h663.89q9.73 0 16.81 7.02 7.07 7.01 7.07 16.65 0 9.87-7.07 17.08-7.08 7.21-16.81 7.21h-23.31v632.53q-1 17.32-9.96 24.55-8.95 7.23-21.47 7.23-68.15 0-124.34-58.29t-70-120.6H396.5q-13.96 62.31-70.06 120.6-56.09 58.29-124.17 58.29Zm17.77-52.5q58.61-17.84 96.61-64.75 38-46.9 38-109.6v-437.46H220.04v611.81Zm182.57-174.35h154.78v-437.46H402.61v437.46Zm337.85 173.96v-611.42H605.35v437.49q0 62.44 37.34 109.55 37.35 47.12 97.77 64.38ZM354.65-788.77H220.04h134.61Zm385.81 0H605.35h135.11Z"/></svg>