<svg xmlns="http://www.w3.org/2000/svg" height="24" viewBox="0 -960 960 960" width="24"><path d="M181.27-108.46q-14.85 0-24.02-8.73t-9.17-26.65v-652.93h-11.93q-11.65 0-19.86-8.21-8.21-8.21-8.21-19.77 0-11.56 8.21-19.77 8.21-8.21 19.86-8.21h687.89q11.43 0 19.66 8.23 8.22 8.22 8.22 19.65 0 11.66-8.22 19.87-8.23 8.21-19.66 8.21h-11.31v652.93q-1 17.92-10.46 26.65-9.45 8.73-23.97 8.73-71.15 0-130.84-61.29t-74.5-125.6H386.5q-14.96 64.31-74.56 125.6-59.59 61.29-130.67 61.29Zm22.77-63.5q58.61-18.81 96.61-67.73t38-111.62v-445.46H204.04v624.81Zm190.57-179.35h170.78v-445.46H394.61v445.46Zm361.85 178.96v-624.42H621.35v445.49q0 62.44 37.34 111.59 37.35 49.15 97.77 67.34ZM338.65-796.77H204.04h134.61Zm417.81 0H621.35h135.11Z"/></svg>