<svg xmlns="http://www.w3.org/2000/svg" height="20" viewBox="0 -960 960 960" width="20"><path d="M167.83-76.78q-17.83 0-30.44-10.48-12.61-10.48-12.61-34.97v-662.99h-12q-19.82 0-33.84-14.53-14.03-14.52-14.03-34.82t14.31-34.47q14.3-14.18 34.69-14.18h732.18q20.39 0 34.41 14.53 14.02 14.53 14.02 34.83 0 20.29-13.74 34.47-13.74 14.17-33.56 14.17h-12v662.99q-.44 24.49-13.61 34.97t-31 10.48q-73.44 0-140.61-59.33-67.17-59.32-91.26-124.19H399.7q-24.09 64.87-91.27 124.19-67.17 59.33-140.6 59.33Zm54.95-119.48q47.22-20.77 72.87-64.52 25.65-43.74 25.65-96.96v-427.48h-98.52v588.96Zm195.96-161.48h122.52v-427.48H418.74v427.48Zm318.48 161.48v-588.96H638.7v427.48q0 53.22 24.93 97.44 24.94 44.23 73.59 64.04ZM321.3-785.22H222.78h98.52Zm415.92 0H638.7h98.52Z"/></svg>