<svg xmlns="http://www.w3.org/2000/svg" height="40" viewBox="0 -960 960 960" width="40"><path d="M138-50.67q-21 0-34.17-12.16Q90.67-75 90.67-99.33v-707.34h-7q-22.34 0-37.17-15.83-14.83-15.83-14.83-38.61 0-22.77 15.33-37.5 15.33-14.72 38-14.72h789.67q22.91 0 37.95 15.33 15.05 15.33 15.05 38.27 0 21.61-15.05 37.34-15.04 15.72-35.95 15.72h-7.34v707.34q.34 24.33-14 36.5-14.33 12.16-34 12.16-80 0-151.16-62-71.17-62-97.17-131.66H385.67q-26.67 69.66-98 131.66-71.34 62-149.67 62ZM407-350h145.67v-457.67H407V-350Z"/></svg>