<svg xmlns="http://www.w3.org/2000/svg" height="40" viewBox="0 -960 960 960" width="40"><path d="M138.51-56.75q-18.72 0-30.24-10.52T96.75-99.84v-717.48h-7q-19.03 0-31.84-13.04-12.8-13.05-12.8-31.93 0-18.89 12.92-31.67 12.93-12.78 32.04-12.78h779.52q18.67 0 31.78 12.92 13.11 12.93 13.11 31.6 0 18.87-13.11 31.88-13.11 13.02-31.3 13.02h-7.33v717.48q.08 22.05-11.85 32.57-11.92 10.52-29.81 10.52-81.01 0-151.67-66.06-70.66-66.06-93.11-138.26H383.13q-23.12 72.2-93.94 138.26-70.83 66.06-150.68 66.06Zm47.5-108.02q56.69-19.74 89.89-70.86 33.2-51.11 33.2-113.53v-468.16H186.01v652.55Zm212.11-185.48h163.42v-467.07H398.12v467.07Zm375.2 185.48v-652.55h-122.6v468.16q0 62.36 32.38 113.87 32.37 51.51 90.22 70.52ZM309.1-817.32H186.01 309.1Zm464.22 0h-122.6 122.6Z"/></svg>