<svg xmlns="http://www.w3.org/2000/svg" height="24" viewBox="0 -960 960 960" width="24"><path d="M146.83-60.78q-19.83 0-32.94-11.98t-13.11-37.07v-683.39q-21.52 0-36.69-15.74-15.18-15.74-15.18-37.82 0-22.09 15.46-37.26 15.45-15.18 37.54-15.18h756.18q22.09 0 37.26 15.74 15.17 15.74 15.17 37.83 0 22.08-14.89 37.26-14.89 15.17-36.41 15.17v683.39q-.44 25.09-14.11 37.07t-33.5 11.98q-76.44 0-147.11-62.33-70.67-62.32-95.76-129.19H389.7q-25.09 66.87-95.77 129.19-70.67 62.33-147.1 62.33Zm263.91-296.96h138.52v-436.04H410.74v436.04Z"/></svg>