<svg xmlns="http://www.w3.org/2000/svg" height="40" viewBox="0 -960 960 960" width="40"><path d="M176.3-105.13q-14.29 0-22.92-7.91-8.64-7.91-8.64-24.27v-673.1h-15.79q-10.42 0-17.31-6.89-6.9-6.89-6.9-16.92 0-10.04 6.9-17.05 6.89-7.02 17.31-7.02h702.63q9.89 0 16.78 7.02 6.9 7.01 6.9 16.66 0 10.42-6.9 17.31-6.89 6.89-16.78 6.89h-16.26v673.1q-.59 16.36-9.31 24.27t-22.55 7.91q-72.9 0-132.68-62.98t-73.65-130.11H382.37q-14.06 67.13-73.75 130.11-59.68 62.98-132.32 62.98ZM388.26-346.1h183.48v-464.7H388.26v464.7Z"/></svg>