<svg xmlns="http://www.w3.org/2000/svg" height="20" viewBox="0 -960 960 960" width="20"><path d="M218.04-142.92q-11.69 0-19.79-6.46-8.1-6.47-8.1-22.69v-617.47h-33.34q-6.11 0-10.38-4.21-4.28-4.21-4.28-10.04 0-5.83 4.28-10.25 4.27-4.42 10.38-4.42h646.77q5.66 0 9.96 4.24 4.31 4.24 4.31 9.82 0 6.02-4.31 10.44-4.3 4.42-9.96 4.42h-33.12v617.47q-1 16.22-9.41 22.69-8.42 6.46-19.45 6.46-63.79 0-115.18-54.83-51.38-54.83-61-114.44H394q-9.92 59.61-61.12 114.44-51.19 54.83-114.84 54.83Zm1.04-27.5q63.23-12.65 106.23-58.98 43-46.33 43-111.72v-448.42H219.08v619.12Zm178.15-170.7h165.54v-448.42H397.23v448.42Zm344.19 169.93v-618.35H591.69v448.47q0 64.89 42.44 111.15 42.45 46.27 107.29 58.73ZM368.31-789.54H219.08h149.23Zm373.11 0H591.69h149.73Z"/></svg>