<svg xmlns="http://www.w3.org/2000/svg" height="24" viewBox="0 -960 960 960" width="24"><path d="M133.04-44.65q-20.71 0-34.55-12.6-13.84-12.6-13.84-39.79v-705.13h-1q-23.19 0-39.65-16.7-16.46-16.7-16.46-40.25t16.58-39.89q16.58-16.34 40.01-16.34h790.74q23.67 0 40.01 16.58 16.34 16.57 16.34 40.25 0 23.19-16.34 39.77-16.34 16.58-39.53 16.58v705.13q.24 27.19-14.34 39.79-14.58 12.6-35.29 12.6-79.52 0-153.5-63.57-73.98-63.56-101.42-133.61H387.96q-27.44 70.05-101.92 133.61-74.47 63.57-153 63.57Zm64.79-138.57q48.37-20.76 73.59-67.96 25.23-47.21 25.23-101.82v-449.17h-98.82v618.95Zm211.76-171.54h139.82v-447.41H409.59v447.41Zm352.58 171.54v-618.95h-99.82V-353q0 54.61 25.23 102.43 25.22 47.83 74.59 67.35ZM296.65-802.17H197.83h98.82Zm465.52 0H662.35h99.82Z"/></svg>