<svg xmlns="http://www.w3.org/2000/svg" height="24" viewBox="0 -960 960 960" width="24"><path d="M161.2-81.87q-17.2 0-28.27-10.34-11.06-10.33-11.06-31.49v-669.43h-2.5q-17.41 0-29.97-12.79-12.55-12.8-12.55-30.45t12.67-30.21q12.68-12.55 30.33-12.55h720.3q17.65 0 30.21 12.79 12.55 12.8 12.55 30.45t-12.43 30.21q-12.44 12.55-29.85 12.55h-1.5v669.43q-.76 21.16-12.31 31.49-11.56 10.34-28.75 10.34-75.27 0-141.32-63.2-66.05-63.19-87.21-129.71H389.72q-21.15 66.52-87.21 129.71-66.05 63.2-141.31 63.2Zm46.67-103.09Q259-208 288.89-255.71q29.89-47.7 29.89-104.83v-432.59H207.87v608.17Zm196.67-175.58h150.92v-432.59H404.54v432.59Zm348.09 175.58v-608.17H641.22v432.59q0 57.13 29.26 105.33 29.26 48.21 82.15 70.25ZM318.78-793.13H207.87h110.91Zm433.85 0H641.22h111.41Z"/></svg>