<svg xmlns="http://www.w3.org/2000/svg" height="40" viewBox="0 -960 960 960" width="40"><path d="M145.38-64.17q-17.83 0-29.52-10.13-11.69-10.12-11.69-32.08v-704.63h-6.66q-18.48 0-30.9-12.99-12.42-12.99-12.42-31.62 0-18.63 12.7-31.28 12.7-12.64 31.37-12.64h763.48q18.62 0 31.25 12.99 12.63 12.98 12.63 31.62 0 18.63-12.35 31.27-12.35 12.65-30.4 12.65h-7.33v704.63q-.15 21.96-12.4 32.08-12.26 10.13-29.7 10.13-78.82 0-147.74-64.71-68.92-64.7-91.25-134.61H383.99q-22.34 69.91-91.26 134.61-68.92 64.71-147.35 64.71Zm46.94-107.12q55.3-20.49 87.8-70.15 32.49-49.66 32.49-110.01v-459.56H192.32v639.72Zm207.87-180.16h159.62v-459.56H400.19v459.56Zm366.82 180.16v-639.72H647.77v459.56q0 60.2 31.4 110.29t87.84 69.87Zm-454.4-639.72H192.32h120.29Zm454.4 0H647.77h119.24Z"/></svg>