<svg xmlns="http://www.w3.org/2000/svg" height="20" viewBox="0 -960 960 960" width="20"><path d="M152.74-56.09q-19.7 0-34.18-11.91-14.47-11.91-14.47-40.14v-680.82h-13q-23.13 0-39.74-17.11-16.61-17.12-16.61-41 0-23.89 16.89-40.37 16.9-16.47 40.59-16.47h774.56q24.26 0 40.59 16.83 16.33 16.83 16.33 41 0 23.04-16.33 40.08t-39.46 17.04h-12v680.82q.57 28.23-14.97 40.14-15.55 11.91-35.24 11.91-75.87 0-147-58.61-71.13-58.6-99.53-125.34H399.26Q370.87-173.3 299.24-114.7q-71.63 58.61-146.5 58.61Zm66.3-140.61q44.79-19.46 66.92-62.21 22.13-42.74 22.13-94.09v-435.96h-89.05v592.26Zm203.44-157.73h114.04v-434.53H422.48v434.53ZM740.96-196.7v-592.26h-90.05V-353q0 51.35 22.13 94.85 22.13 43.51 67.92 61.45ZM308.09-788.96h-89.05 89.05Zm432.87 0h-90.05 90.05Z"/></svg>