<svg xmlns="http://www.w3.org/2000/svg" height="24" viewBox="0 -960 960 960" width="24"><path d="M712.13-878.13q35.72 0 60.86 25.14t25.14 60.86v624.26q0 35.72-25.14 60.86t-60.86 25.14H248.37q-35.72 0-60.86-25.14t-25.14-60.86v-624.26q0-35.72 25.14-60.86t60.86-25.14h463.76Zm0 86H248.37v624.26h463.76v-624.26Zm-71.17 120.26H319.3v382.76h321.66v-382.76Zm-86 86V-445H405.3v-140.87h149.66Zm-75.14 327.11q-12.78 0-21.12 8.66-8.35 8.66-8.35 21.42 0 12.77 8.42 21.23 8.41 8.47 21.29 8.47 12.66 0 21.12-8.45 8.47-8.46 8.47-21.38 0-12.52-8.52-21.23-8.53-8.72-21.31-8.72Zm0-503.26q-12.78 0-21.12 8.66-8.35 8.66-8.35 21.42 0 12.77 8.42 21.11 8.41 8.35 21.29 8.35 12.66 0 21.12-8.4 8.47-8.41 8.47-21.27 0-12.44-8.52-21.15-8.53-8.72-21.31-8.72ZM480-480Z"/></svg>