<svg xmlns="http://www.w3.org/2000/svg" height="48" viewBox="0 -960 960 960" width="48"><path d="M739.89-897.43q30.85 0 54.2 23.34 23.34 23.35 23.34 54.2v679.78q0 30.75-23.34 54.03-23.35 23.28-54.2 23.28H220.11q-30.75 0-54.03-23.28t-23.28-54.03v-679.78q0-30.85 23.28-54.2 23.28-23.34 54.03-23.34h519.78Zm-92.22 209.52H314.09v414.34h333.58v-414.34Zm-77.3 77.54v175.98H390.63v-175.98h179.74ZM480.75-193.8q-10.92 0-17.95 7.36-7.04 7.37-7.04 16.95 0 12.06 6.85 19.11 6.85 7.05 17.62 7.05 10.77 0 18.51-6.76 7.74-6.77 7.74-18.82 0-9.59-7.41-17.24-7.41-7.65-18.32-7.65Zm0-624.35q-10.92 0-17.95 6.91-7.04 6.92-7.04 17.79 0 11.87 6.85 18.94 6.85 7.08 17.62 7.08 10.77 0 18.51-6.84 7.74-6.83 7.74-18.63 0-10.8-7.41-18.03-7.41-7.22-18.32-7.22Z"/></svg>