<svg xmlns="http://www.w3.org/2000/svg" height="24" viewBox="0 -960 960 960" width="24"><path d="M712.13-878.13q35.72 0 60.86 25.14t25.14 60.86v624.26q0 35.72-25.14 60.86t-60.86 25.14H248.37q-35.72 0-60.86-25.14t-25.14-60.86v-624.26q0-35.72 25.14-60.86t60.86-25.14h463.76ZM640.96-681.2H319.3v401.66h321.66V-681.2Zm-85.76 85.77v151.15H405.07v-151.15H555.2ZM480-210.72q-12.96 0-21.42 8.66-8.47 8.67-8.47 21.43t8.47 21.23q8.47 8.47 21.42 8.47 12.96 0 21.42-8.46 8.47-8.45 8.47-21.38 0-12.51-8.47-21.23T480-210.72Zm0-598.58q-12.96 0-21.42 8.66-8.47 8.66-8.47 21.42 0 12.76 8.47 21.23t21.42 8.47q12.96 0 21.42-8.46 8.47-8.45 8.47-21.38 0-12.51-8.47-21.23-8.47-8.71-21.42-8.71Z"/></svg>