<svg xmlns="http://www.w3.org/2000/svg" height="40" viewBox="0 -960 960 960" width="40"><path d="M727.68-896.2q36.6 0 62.56 25.96t25.96 62.56v655.36q0 36.44-25.96 62.29-25.96 25.86-62.56 25.86H232.32q-36.44 0-62.29-25.86-25.86-25.85-25.86-62.29v-655.36q0-36.6 25.86-62.56 25.85-25.96 62.29-25.96h495.36Zm-78.39 206.34H310.81v418.48h338.48v-418.48Zm-87.58 87.96v160.48H398.77V-601.9h162.94Zm-81.19 405.99q-12.02 0-19.87 7.9-7.84 7.9-7.84 19.51 0 12.37 7.79 20.52t19.7 8.15q11.92 0 20.26-8.02 8.34-8.02 8.34-20.39 0-11.61-8.18-19.64-8.17-8.03-20.2-8.03Zm0-625.5q-12.02 0-19.87 7.87-7.84 7.86-7.84 19.89 0 12.03 7.79 20.18t19.7 8.15q11.92 0 20.26-8.1 8.34-8.1 8.34-20.01 0-11.92-8.18-19.95-8.17-8.03-20.2-8.03Z"/></svg>