<svg xmlns="http://www.w3.org/2000/svg" height="48" viewBox="0 -960 960 960" width="48"><path d="M704.92-838.85q22.47 0 38.58 16.12 16.12 16.11 16.12 38.52v608.42q0 22.41-16.12 38.52-16.11 16.12-38.58 16.12H256.46q-22.99 0-38.9-16.12-15.91-16.11-15.91-38.52v-608.42q0-22.41 15.91-38.52 15.91-16.12 38.9-16.12h448.46Zm-94.73 189.43H352.85v336.57h257.34v-336.57ZM580-619.23v200.08H383.04v-200.08H580ZM479.96-239.46q-8.16 0-14.73 6.6-6.58 6.6-6.58 15.17 0 10.11 6.54 16.19 6.53 6.08 14.73 6.08 9.73 0 16.25-6.05 6.52-6.04 6.52-15.89 0-8.45-6.27-15.28-6.27-6.82-16.46-6.82Zm.76-527q-8.15 0-14.72 6.21-6.58 6.22-6.58 15.56 0 10.11 6.54 16.19 6.53 6.08 14.73 6.08 9.73 0 16.25-6.05 6.52-6.04 6.52-15.89 0-9.22-6.27-15.66-6.27-6.44-16.47-6.44Z"/></svg>