<svg xmlns="http://www.w3.org/2000/svg" height="40" viewBox="0 -960 960 960" width="40"><path d="M697-849.33q30.57 0 51.95 21.38 21.38 21.38 21.38 51.95v592q0 30.57-21.38 51.95-21.38 21.38-51.95 21.38H264q-30.57 0-51.95-21.38-21.38-21.38-21.38-51.95v-592q0-30.57 21.38-51.95 21.38-21.38 51.95-21.38h433ZM696-808H263q-14 0-23 9t-9 23v592q0 14 9 23t23 9h433q14 0 23.5-9t9.5-23l-1-592q0-14-9-23t-23-9Zm-78.33 151h-272v352.33h272V-657Zm-41.34 41.33v193H387v-193h189.33ZM479.84-259q-12.13 0-21.32 9.01-9.19 9.02-9.19 21.11 0 14.21 9.04 22.71 9.03 8.5 21.16 8.5 13.47 0 22.3-8.26 8.84-8.27 8.84-22.15 0-12.54-8.68-21.73-8.68-9.19-22.15-9.19Zm0-504.33q-12.13 0-21.32 8.67-9.19 8.66-9.19 21.45 0 14.21 9.04 23.21 9.03 9 21.16 9 13.47 0 22.3-8.77 8.84-8.76 8.84-22.31 0-13.54-8.68-22.4-8.68-8.85-22.15-8.85ZM480-480Z"/></svg>