<svg xmlns="http://www.w3.org/2000/svg" height="20" viewBox="0 -960 960 960" width="20"><path d="M692.96-903.91q51.3 0 83.12 31.83 31.83 31.82 31.83 83.12v617.92q0 51.3-31.83 83.12-31.82 31.83-83.12 31.83H267.04q-51.3 0-83.12-31.83-31.83-31.82-31.83-83.12v-617.92q0-51.3 31.83-83.12 31.82-31.83 83.12-31.83h425.92Zm-40.05 202.43H306.52v442.83h346.39v-442.83ZM538.96-587.52v139.04H420.48v-139.04h118.48Zm-58.83 394.17q-15.66 0-26.03 10-10.36 10-10.36 25.49 0 15.49 10.13 25.98 10.12 10.49 25.61 10.49t26.13-10.13q10.65-10.12 10.65-25.61t-10.24-25.85q-10.23-10.37-25.89-10.37Zm0-645.39q-15.66 0-26.03 10.17-10.36 10.17-10.36 25.73 0 15.55 10.13 26.09 10.12 10.53 25.61 10.53t26.13-10.17q10.65-10.17 10.65-25.72 0-15.56-10.24-26.09-10.23-10.54-25.89-10.54Z"/></svg>