<svg xmlns="http://www.w3.org/2000/svg" height="40" viewBox="0 -960 960 960" width="40"><path d="M715.5-855.26q24.61 0 42.38 17.77 17.76 17.76 17.76 42.34v630.3q0 24.58-17.76 42.34-17.77 17.77-42.38 17.77H245.44q-24.87 0-42.53-17.77-17.67-17.76-17.67-42.34v-630.3q0-24.58 17.67-42.34 17.66-17.77 42.53-17.77H715.5Zm-94 194.15H340.44v360.67H621.5v-360.67Zm-47.88 47.88v186.85h-185.3v-186.85h185.3Zm-93.44 387.97q-9.13 0-15.52 6.53-6.39 6.53-6.39 15.8 0 9.79 6.41 16.13 6.4 6.35 15.53 6.35 9.65 0 16.26-6.36 6.61-6.35 6.61-16.04 0-9.13-6.5-15.77-6.5-6.64-16.4-6.64Zm.39-555.61q-9.14 0-15.53 6.4-6.39 6.4-6.39 15.93 0 9.78 6.41 16.13t15.54 6.35q9.64 0 16.25-6.36 6.61-6.36 6.61-16.04 0-9.39-6.5-15.9-6.49-6.51-16.39-6.51Z"/></svg>