<svg xmlns="http://www.w3.org/2000/svg" height="40" viewBox="0 -960 960 960" width="40"><path d="M724.35-889.54q35.22 0 60.2 24.99 24.99 24.98 24.99 60.2v648.7q0 35.06-24.99 59.94-24.98 24.87-60.2 24.87h-488.2q-35.06 0-59.94-24.87-24.87-24.88-24.87-59.94v-648.7q0-35.22 24.87-60.2 24.88-24.99 59.94-24.99h488.2Zm0 85.19h-488.2v648.7h488.2v-648.7Zm-78.56 136.27H314.81v373.86h330.98v-373.86Zm-84.81 85.19v140.32H400v-140.32h160.98Zm-80.71 331.17q-11.11 0-18.27 7.53-7.17 7.53-7.17 18.81 0 11.28 7.26 18.85 7.26 7.57 18.36 7.57 10.91 0 18.65-7.58 7.73-7.58 7.73-18.7 0-11.08-7.72-18.78-7.72-7.7-18.84-7.7Zm0-511.36q-11.11 0-18.27 7.53-7.17 7.53-7.17 18.81 0 11.28 7.26 18.75 7.26 7.48 18.36 7.48 10.91 0 18.65-7.55 7.73-7.54 7.73-18.6 0-11.03-7.72-18.72-7.72-7.7-18.84-7.7ZM480-480Z"/></svg>