<svg xmlns="http://www.w3.org/2000/svg" height="48" viewBox="0 -960 960 960" width="48"><path d="M735.35-881.22q26.66 0 46.27 19.6 19.6 19.61 19.6 46.27v670.7q0 26.57-19.6 46.1-19.61 19.53-46.27 19.53h-510.2q-26.57 0-46.1-19.53t-19.53-46.1v-670.7q0-26.66 19.53-46.27 19.53-19.6 46.1-19.6h510.2Zm-98.07 203.7h-313.3v393.3h313.3v-393.3Zm-65.39 65.63v180.3H389.61v-180.3h182.28Zm-91.23 409.48q-8.81 0-14.32 5.82-5.51 5.83-5.51 14.33 0 8.98 5.61 14.96 5.61 5.97 14.19 5.97 8.59 0 14.94-5.99 6.34-6 6.34-14.83 0-8.5-6.22-14.38-6.22-5.88-15.03-5.88Zm0-598q-8.81 0-14.32 5.8-5.51 5.81-5.51 14.57 0 8.76 5.61 14.74 5.61 5.97 14.19 5.97 8.59 0 14.94-6.04 6.34-6.05 6.34-14.59 0-8.69-6.22-14.57-6.22-5.88-15.03-5.88Z"/></svg>