<svg xmlns="http://www.w3.org/2000/svg" height="40" viewBox="0 -960 960 960" width="40"><path d="M706.31-861.33q31.3 0 53.55 22.24 22.24 22.25 22.24 53.55v611.08q0 31.3-22.24 53.55-22.25 22.24-53.55 22.24H254.46q-31.3 0-53.55-22.24-22.24-22.25-22.24-53.55v-611.08q0-31.3 22.24-53.55 22.25-22.24 53.55-22.24h451.85Zm-.77 51.18H253.69q-10.77 0-17.69 6.92-6.92 6.92-6.92 17.69v611.08q0 10.77 6.92 17.69 6.92 6.92 17.69 6.92h451.85q10.77 0 18.08-6.92 7.3-6.92 7.3-17.69l-.77-611.08q0-10.77-6.92-17.69-6.92-6.92-17.69-6.92Zm-80.18 145.23H337.51v368.41h287.85v-368.41Zm-51.18 51.18v187.69H388.69v-187.69h185.49ZM480-253.69q-12.29 0-21.32 8.86-9.04 8.86-9.04 21.11 0 14.05 8.88 22.55t21.17 8.5q13.31 0 22.14-8.26 8.84-8.27 8.84-21.99 0-12.7-8.68-21.74-8.68-9.03-21.99-9.03Zm0-514.57q-12.29 0-21.32 8.6-9.04 8.59-9.04 21.37 0 14.06 8.88 22.94 8.88 8.89 21.17 8.89 13.31 0 22.14-8.65 8.84-8.66 8.84-22.12 0-13.47-8.68-22.25T480-768.26ZM480-480Z"/></svg>