<svg xmlns="http://www.w3.org/2000/svg" height="40" viewBox="0 -960 960 960" width="40"><path d="M692.31-826.33q22.83 0 38.93 16.09 16.09 16.1 16.09 38.85v582.78q0 22.75-16.09 38.85-16.1 16.09-38.93 16.09H269.33q-23.5 0-39.33-16.09-15.83-16.1-15.83-38.85v-582.78q0-22.75 15.83-38.85 15.83-16.09 39.33-16.09h422.98Zm-1.14 23.16H268.33q-14 0-23 9t-9 23v582.34q0 14 9 23t23 9h422.84q14 0 23.5-9t9.5-23l-1-582.34q0-14-9-23t-23-9Zm-88.34 161.34h-242.5v321.5h242.5v-321.5Zm-23.16 23.16v201H383.5v-201h196.17Zm-99.97 356q-8.65 0-15.76 7.26-7.11 7.25-7.11 16.41 0 10.5 7.2 17 7.19 6.5 16 6.5 10.14 0 17.05-6.61 6.92-6.61 6.92-16.91 0-8.93-6.83-16.29-6.83-7.36-17.47-7.36Zm0-483.83q-8.65 0-15.76 6.91-7.11 6.9-7.11 16.76 0 10.5 7.2 17.5 7.19 7 16 7 10.14 0 17.05-7.11 6.92-7.11 6.92-17.08 0-9.93-6.83-16.96-6.83-7.02-17.47-7.02ZM480-480Z"/></svg>