<svg xmlns="http://www.w3.org/2000/svg" height="24" viewBox="0 -960 960 960" width="24"><path d="M726-912q43.72 0 74.86 31.14T832-806v652q0 43.72-31.14 74.86T726-48H234q-43.73 0-74.86-31.14Q128-110.28 128-154v-652q0-43.72 31.14-74.86Q190.27-912 234-912h492Zm-65 211H299v443h362v-443ZM556-596v148H404v-148h152Zm-75.77 403q-17.23 0-28.73 11.27-11.5 11.26-11.5 28.5 0 17.23 11.27 28.73 11.26 11.5 28.5 11.5 17.23 0 28.73-11.27 11.5-11.26 11.5-28.5 0-17.23-11.27-28.73-11.26-11.5-28.5-11.5Zm0-653q-17.23 0-28.73 11.27-11.5 11.26-11.5 28.5 0 17.23 11.27 28.73 11.26 11.5 28.5 11.5 17.23 0 28.73-11.27 11.5-11.26 11.5-28.5 0-17.23-11.27-28.73-11.26-11.5-28.5-11.5Z"/></svg>