<svg xmlns="http://www.w3.org/2000/svg" height="20" viewBox="0 -960 960 960" width="20"><path d="M684.22-873.22q42.24 0 67.62 25.38 25.38 25.38 25.38 67.62v600.44q0 42.24-25.38 67.62-25.38 25.38-67.62 25.38H276.28q-42.24 0-67.62-25.38-25.38-25.38-25.38-67.62v-600.44q0-42.24 25.38-67.62 25.38-25.38 67.62-25.38h407.94Zm-50.46 190.89H326.17v403.59h307.59v-403.59Zm-92.43 92.44v147.09H418.61v-147.09h122.72ZM480.07-210.2q-11.73 0-19.48 7.87-7.74 7.86-7.74 19.41 0 11.54 7.67 19.28 7.67 7.75 19.41 7.75 11.73 0 19.48-7.66 7.74-7.65 7.74-19.36 0-11.29-7.67-19.29t-19.41-8Zm0-594.48q-11.73 0-19.48 7.87-7.74 7.86-7.74 19.41 0 11.54 7.67 19.28 7.67 7.75 19.41 7.75 11.73 0 19.48-7.66 7.74-7.65 7.74-19.36 0-11.29-7.67-19.29t-19.41-8Z"/></svg>