<svg xmlns="http://www.w3.org/2000/svg" height="20" viewBox="0 -960 960 960" width="20"><path d="M693.13-872.13q37.78 0 60.39 22.61t22.61 60.39v618.26q0 37.78-22.61 60.39t-60.39 22.61H266.87q-37.78 0-60.39-22.61t-22.61-60.39v-618.26q0-37.78 22.61-60.39t60.39-22.61h426.26Zm0 83H266.87v618.26h426.26v-618.26Zm-62.67 119.76H329.3v378.26h301.16v-378.26Zm-83 83v148.87H412.3v-148.87h135.16Zm-67.58 329.11q-11.24 0-18.63 7.46-7.4 7.46-7.4 18.87 0 11.42 7.41 18.93 7.41 7.52 18.74 7.52 11.12 0 18.63-7.46 7.52-7.46 7.52-18.87 0-11.42-7.52-18.93-7.51-7.52-18.75-7.52Zm0-498.26q-11.24 0-18.63 7.46-7.4 7.46-7.4 18.87 0 11.42 7.41 18.81 7.41 7.4 18.74 7.4 11.12 0 18.63-7.41 7.52-7.42 7.52-18.76 0-11.34-7.52-18.85-7.51-7.52-18.75-7.52ZM480-480Z"/></svg>