<svg xmlns="http://www.w3.org/2000/svg" height="48" viewBox="0 -960 960 960" width="48"><path d="M708.38-856q27.79 0 48.09 20.3 20.3 20.3 20.3 48.08v615.24q0 27.78-20.3 48.08-20.3 20.3-48.09 20.3h-456q-27.78 0-48.08-20.3-20.3-20.3-20.3-48.08v-615.24q0-27.78 20.3-48.08 20.3-20.3 48.08-20.3h456Zm-.76 43.77h-456q-10.77 0-17.7 6.92-6.92 6.93-6.92 17.69v615.24q0 10.76 6.92 17.69 6.93 6.92 17.7 6.92h456q10.76 0 18.07-6.92 7.31-6.93 7.31-17.69l-.77-615.24q0-10.76-6.92-17.69-6.93-6.92-17.69-6.92Zm-86.24 151.61H342.15v359.47h279.23v-359.47Zm-43.76 43.77v194.08h-191.7v-194.08h191.7Zm-97.74 365.08q-10.58 0-18.77 8.04t-8.19 18.57q0 13.24 8.08 20.62 8.07 7.39 18.65 7.39 12.12 0 20-7.16 7.89-7.15 7.89-19.88 0-11.2-7.77-19.39-7.77-8.19-19.89-8.19Zm0-512.08q-10.58 0-18.77 7.65-8.19 7.64-8.19 18.96 0 13.24 8.08 21.01 8.07 7.77 18.65 7.77 12.12 0 20-7.54 7.89-7.54 7.89-19.89 0-12.35-7.77-20.15-7.77-7.81-19.89-7.81ZM480-480Z"/></svg>