<svg xmlns="http://www.w3.org/2000/svg" height="48" viewBox="0 -960 960 960" width="48"><path d="M732.41-889.7q31.71 0 54.5 22.79t22.79 54.5v664.82q0 31.48-22.79 54.1t-54.5 22.62H228.09q-31.48 0-54.1-22.62t-22.62-54.1v-664.82q0-31.71 22.62-54.5t54.1-22.79h504.32ZM643.8-684.37H317.13v406.67H643.8v-406.67Zm-76.15 76.72v171.17h-173.8v-171.17h173.8Zm-86.88 410.13q-9.9 0-16.06 6.57-6.17 6.56-6.17 15.79 0 10.36 6.26 16.99 6.26 6.63 15.83 6.63t16.73-6.58q7.16-6.57 7.16-16.78 0-9.23-6.93-15.92-6.93-6.7-16.82-6.7Zm0-613q-9.9 0-16.06 6.51-6.17 6.52-6.17 16.36 0 9.85 6.26 16.48 6.26 6.63 15.83 6.63t16.73-6.7q7.16-6.69 7.16-16.21 0-9.68-6.93-16.37-6.93-6.7-16.82-6.7Z"/></svg>