<svg xmlns="http://www.w3.org/2000/svg" height="40" viewBox="0 -960 960 960" width="40"><path d="M702.31-840q24.57 0 41.52 16.94 16.94 16.94 16.94 41.52v603.08q0 24.58-16.94 41.52Q726.88-120 702.31-120H258.46q-24.58 0-41.52-16.94Q200-153.88 200-178.46v-603.08q0-24.58 16.94-41.52Q233.88-840 258.46-840h443.85Zm-.77 33.85H257.69q-10.77 0-17.69 6.92-6.92 6.92-6.92 17.69v603.08q0 10.77 6.92 17.69 6.92 6.92 17.69 6.92h443.85q10.77 0 18.08-6.92 7.3-6.92 7.3-17.69l-.77-603.08q0-10.77-6.92-17.69-6.92-6.92-17.69-6.92Zm-90.51 155.89H351.18v339.08h259.85v-339.08Zm-33.85 33.85v195.69H385.03v-195.69h192.15Zm-97.34 360.05q-9.46 0-16.5 7.04-7.03 7.03-7.03 16.5 0 10.49 7.03 17.32 7.04 6.83 16.5 6.83 10.49 0 17.33-6.83 6.83-6.83 6.83-17.32 0-9.47-6.83-16.5-6.84-7.04-17.33-7.04Zm0-495.9q-9.46 0-16.5 6.77-7.03 6.78-7.03 16.77 0 10.49 7.03 17.71 7.04 7.21 16.5 7.21 10.49 0 17.33-7.21 6.83-7.22 6.83-17.45 0-10.24-6.83-17.02-6.84-6.78-17.33-6.78ZM480-480Z"/></svg>