<svg xmlns="http://www.w3.org/2000/svg" height="24" viewBox="0 -960 960 960" width="24"><path d="M695-860q36.72 0 61.36 24.64T781-774v588q0 36.73-24.64 61.36Q731.72-100 695-100H266q-36.73 0-61.36-24.64Q180-149.27 180-186v-588q0-36.72 24.64-61.36Q229.27-860 266-860h429Zm-70 196H337v368h288v-368Zm-53 53v183H390v-183h182Zm-91.58 377q-15.42 0-25.92 10.08-10.5 10.08-10.5 25.5t10.08 25.92q10.08 10.5 25.5 10.5t25.92-10.08q10.5-10.08 10.5-25.5t-10.08-25.92q-10.08-10.5-25.5-10.5Zm1-564q-15.42 0-25.92 10.08-10.5 10.08-10.5 25.5t10.08 25.92q10.08 10.5 25.5 10.5t25.92-10.08q10.5-10.08 10.5-25.5t-10.08-25.92q-10.08-10.5-25.5-10.5Z"/></svg>