<svg xmlns="http://www.w3.org/2000/svg" height="24" viewBox="0 -960 960 960" width="24"><path d="M714.08-892q41.03 0 69.67 28.64 28.63 28.64 28.63 69.67v627.38q0 41.03-28.63 69.67Q755.11-68 714.08-68H246.31q-41.03 0-69.67-28.64T148-166.31v-627.38q0-41.03 28.64-69.67T246.31-892h467.77Zm-.39 86H245.92q-5.38 0-8.84 3.46t-3.46 8.85v627.38q0 5.39 3.46 8.85t8.84 3.46h467.77q5.39 0 9.04-3.46 3.65-3.46 3.65-8.85L726-793.69q0-5.39-3.46-8.85t-8.85-3.46Zm-66.54 118.23H313.62v415.15h333.53v-415.15Zm-86 86v161.46H399.61v-161.46h161.54Zm-80.92 350q-16.46 0-27.58 10.88-11.11 10.89-11.11 27.35t10.88 27.58q10.88 11.11 27.35 11.11 16.46 0 27.58-10.88 11.11-10.88 11.11-27.35 0-16.46-10.88-27.57-10.88-11.12-27.35-11.12Zm0-533.77q-16.46 0-27.58 10.88-11.11 10.89-11.11 27.35t10.88 27.77q10.88 11.31 27.35 11.31 16.46 0 27.58-11.08 11.11-11.07 11.11-27.53 0-16.47-10.88-27.58-10.88-11.12-27.35-11.12ZM480-480Z"/></svg>