<svg xmlns="http://www.w3.org/2000/svg" height="20" viewBox="0 -960 960 960" width="20"><path d="M698.17-899.35q46.93 0 76.06 29.12 29.12 29.13 29.12 76.06v628.34q0 46.93-29.12 76.06-29.13 29.12-76.06 29.12H261.83q-46.93 0-76.06-29.12-29.12-29.13-29.12-76.06v-628.34q0-46.93 29.12-76.06 29.13-29.12 76.06-29.12h436.34Zm-49.82 202.76H311.41v433.7h336.94v-433.7ZM544.17-592.41v148.82H415.59v-148.82h128.58Zm-63.98 395.8q-15.07 0-25.11 9.75t-10.04 24.75q0 14.99 9.81 25.08 9.8 10.1 24.8 10.1 14.99 0 25.15-9.81 10.16-9.8 10.16-24.8 0-14.99-9.85-25.03-9.86-10.04-24.92-10.04Zm0-635.93q-15.07 0-25.11 9.82t-10.04 24.84q0 15.03 9.81 25.14 9.8 10.11 24.8 10.11 14.99 0 25.15-9.82 10.16-9.83 10.16-24.85 0-15.02-9.85-25.13-9.86-10.11-24.92-10.11Z"/></svg>