<svg xmlns="http://www.w3.org/2000/svg" height="40" viewBox="0 -960 960 960" width="40"><path d="M723.33-908.67q43.98 0 74.66 30.68t30.68 74.66v646.66q0 43.7-30.68 74.19Q767.31-52 723.33-52H236.67q-43.7 0-74.19-30.48Q132-112.97 132-156.67v-646.66q0-43.98 30.48-74.66 30.49-30.68 74.19-30.68h486.66ZM659-700H300.67v438.33H659V-700ZM555.33-595.67v147H405v-147h150.33Zm-74.68 407q-13.6 0-22.46 8.96-8.86 8.96-8.86 21.83 0 14.21 8.77 23.38 8.76 9.17 22.16 9.17 13.41 0 22.91-8.94 9.5-8.93 9.5-23.14 0-12.88-9.21-22.07-9.2-9.19-22.81-9.19Zm0-647.66q-13.6 0-22.46 8.89-8.86 8.9-8.86 22.5 0 13.61 8.77 22.77 8.76 9.17 22.16 9.17 13.41 0 22.91-9.07 9.5-9.08 9.5-22.48t-9.21-22.59q-9.2-9.19-22.81-9.19Z"/></svg>