<svg xmlns="http://www.w3.org/2000/svg" height="40" viewBox="0 -960 960 960" width="40"><path d="M121.8-77.39q17.38 0 29.56-12.17t12.18-29.57q0-17.38-12.18-29.56t-29.44-12.18q-17.53 0-29.7 12.18-12.17 12.18-12.17 29.43 0 17.54 12.17 29.71 12.17 12.16 29.58 12.16Zm-100 100q17.38 0 29.56-12.17t12.18-29.57q0-17.38-12.18-29.56T21.92-60.87q-17.53 0-29.7 12.18-12.17 12.18-12.17 29.43 0 17.54 12.17 29.71Q4.39 22.61 21.8 22.61Zm458.36-501.74q-17.54 0-29.89-11.9-12.35-11.89-12.35-29.07 0-17.16 12.35-29.67 12.35-12.51 29.76-12.51 17.7 0 29.54 12.45 11.84 12.46 11.84 29.32 0 17.43-11.98 29.41-11.98 11.97-29.27 11.97ZM409.1-278.9l-81.82 80.75q34.49 18.92 72.74 29.41 38.25 10.48 79.97 10.48 41.73 0 80.69-10.15t73.45-29.74l-81.92-80.75H409.1Zm70.71-522.84q-66.37 0-125.02 25.37-58.65 25.37-102.35 69.19-43.7 43.82-68.94 102.36-25.24 58.53-25.24 124.74 0 73.03 30.42 135.89 30.42 62.86 81.5 106.68L356-322.92q-36.05-27.57-56.74-67.91-20.69-40.35-20.69-89.17 0-85.06 58.63-143.71 58.64-58.65 143.13-58.65 84.61 0 143.32 58.65 58.71 58.65 58.71 143.71 0 48.82-21.16 89.16-21.15 40.33-57.2 67.89l85.82 85.16q51.17-43.6 81.55-106.19 30.37-62.58 30.37-136.1 0-66.32-25.33-124.95-25.34-58.64-69.1-102.19-43.75-43.55-102.44-69.04-58.69-25.48-125.06-25.48Zm-.2 187.97q-55.79 0-94.62 39.05-38.84 39.04-38.84 95.11 0 55.79 38.66 94.45 38.66 38.67 94.74 38.67 56.37 0 95.29-38.84 38.93-38.85 38.93-94.44 0-55.87-39.05-94.94-39.04-39.06-95.11-39.06ZM479.97-92q-80.22 0-151.12-30.27t-123.94-83.14q-53.04-52.87-83.64-123.57-30.6-70.7-30.6-150.95 0-80.66 30.6-151.6 30.6-70.93 83.76-124.07 53.16-53.14 123.55-83.44 70.38-30.29 150.76-30.29 81.05 0 152.08 30.27 71.04 30.27 124.18 83.5 53.14 53.24 83.44 123.97 30.29 70.73 30.29 151.72 0 80.33-30.33 150.82-30.34 70.48-83.55 123.47-53.21 52.98-123.9 83.28Q560.86-92 479.97-92ZM838.2-77.39q-17.38 0-29.56-12.17t-12.18-29.57q0-17.38 12.18-29.56t29.44-12.18q17.53 0 29.7 12.18 12.17 12.18 12.17 29.43 0 17.54-12.17 29.71-12.17 12.16-29.58 12.16Zm100 100q-17.38 0-29.56-12.17t-12.18-29.57q0-17.38 12.18-29.56t29.44-12.18q17.53 0 29.7 12.18 12.17 12.18 12.17 29.43 0 17.54-12.17 29.71-12.17 12.16-29.58 12.16Z"/></svg>