<svg xmlns="http://www.w3.org/2000/svg" height="20" viewBox="0 -960 960 960" width="20"><path d="M179.79-151.5q11.79 0 20.34-8.44 8.56-8.45 8.56-19.85 0-11.79-8.35-20.34-8.34-8.56-20.13-8.56-11.4 0-20.06 8.35-8.65 8.34-8.65 20.13 0 11.4 8.44 20.06 8.45 8.65 19.85 8.65Zm-72 72q11.79 0 20.34-8.44 8.56-8.45 8.56-19.85 0-11.79-8.35-20.34-8.34-8.56-20.13-8.56-11.4 0-20.06 8.35-8.65 8.34-8.65 20.13 0 11.4 8.44 20.06 8.45 8.65 19.85 8.65Zm372.42-405.65q-11.79 0-20.25-8.45-8.46-8.44-8.46-19.84 0-11.79 8.25-20.35 8.25-8.56 20.04-8.56 11.4 0 20.15 8.35 8.75 8.35 8.75 20.14 0 11.4-8.54 20.05-8.54 8.66-19.94 8.66Zm-70.63 177.3-55.73 55.51q27.92 15.76 60 24.03 32.07 8.27 66.15 8.27 34.08 0 66.31-8.13 32.23-8.14 60.34-24.14l-56.8-55.54H409.58Zm70.36-432.11q-53.13 0-100.44 20.47-47.32 20.48-82.81 56.2-35.5 35.73-56.08 82.79-20.57 47.05-20.57 100.57 0 60.43 25.2 112.16 25.19 51.74 68.06 87.66l63.05-62.97q-31.96-22.5-50.23-58.32-18.27-35.83-18.27-78.79 0-71.74 50.33-121.85 50.34-50.11 122.04-50.11t121.82 50.23q50.11 50.23 50.11 121.79 0 42.86-18.27 78.9-18.27 36.04-50.23 58.54l63.05 62.96q42.87-35.82 68.06-87.57 25.2-51.75 25.2-112.63 0-53.64-20.57-100.63-20.58-46.99-56.07-82.72-35.5-35.73-82.87-56.21-47.37-20.47-100.51-20.47Zm-.03 136.07q-51.8 0-87.95 36.24-36.15 36.24-36.15 87.74 0 51.8 36.11 87.95 36.12 36.15 88.1 36.15 51.6 0 87.73-36.11 36.14-36.12 36.14-88.1 0-51.6-36.24-87.73-36.24-36.14-87.74-36.14Zm.32 431.81q-63.99 0-120.15-24.16-56.15-24.15-97.92-65.92t-65.92-97.78q-24.16-56.02-24.16-120.12 0-64.09 24.16-119.96 24.15-55.86 65.92-97.72 41.77-41.87 97.78-66.02 56.02-24.16 120.12-24.16 64.09 0 119.96 24.16 55.86 24.15 97.72 66.02 41.87 41.86 66.02 97.72 24.16 55.87 24.16 119.79 0 63.99-24.16 120.15-24.15 56.15-66.02 97.92-41.86 41.77-97.72 65.92-55.87 24.16-119.79 24.16Zm299.98 20.58q-11.79 0-20.25-8.44-8.46-8.45-8.46-19.85 0-11.79 8.25-20.34 8.25-8.56 20.04-8.56 11.4 0 20.15 8.35 8.75 8.34 8.75 20.13 0 11.4-8.54 20.06-8.54 8.65-19.94 8.65Zm72 72q-11.79 0-20.25-8.44-8.46-8.45-8.46-19.85 0-11.79 8.25-20.34 8.25-8.56 20.04-8.56 11.4 0 20.15 8.35 8.75 8.34 8.75 20.13 0 11.4-8.54 20.06-8.54 8.65-19.94 8.65Z"/></svg>