<svg xmlns="http://www.w3.org/2000/svg" height="24" viewBox="0 -960 960 960" width="24"><path d="M103.54-35.33q24.72 0 42.2-17.47 17.48-17.48 17.48-42.2 0-24.72-17.48-42.2-17.48-17.47-42.2-17.47-24.71 0-42.19 17.47Q43.87-119.72 43.87-95q0 24.72 17.48 42.2 17.48 17.47 42.19 17.47ZM-7.41 78.74q24.71 0 42.19-17.48 17.48-17.48 17.48-42.19 0-24.72-17.48-42.2Q17.3-40.61-7.41-40.61q-24.72 0-42.2 17.48-17.48 17.48-17.48 42.2 0 24.71 17.48 42.19 17.48 17.48 42.2 17.48ZM480.2-462.57q-24.92 0-42.9-16.66-17.97-16.66-17.97-41.57 0-24.92 17.97-42.4 17.98-17.47 42.9-17.47 24.91 0 41.69 17.47 16.78 17.48 16.78 42.4 0 24.91-16.78 41.57t-41.69 16.66Zm-68.68 213.2-67.09 66.85q31.67 14.76 65.11 22.52 33.45 7.76 70.21 7.76 36.77 0 71.04-7.76 34.28-7.76 65.78-22.52l-67.09-66.85H411.52Zm68.29-558.39q-67.81 0-127.68 25.7-59.87 25.7-104.38 70.38-44.51 44.68-70.01 104.43-25.5 59.75-25.5 127.25 0 68.28 26.16 128.45 26.17 60.16 72.21 105.16l68.09-68.09q-32.29-32-51.19-73.99-18.9-41.98-18.9-91.53 0-96.87 67.26-164.13 67.26-67.26 164.13-67.26 96.87 0 164.13 67.26 67.26 67.26 67.26 164.13 0 49.55-18.9 91.53-18.9 41.99-51.19 73.99l68.09 68.09q45.81-45 72.09-104.6 26.28-59.6 26.28-129.01 0-67.57-25.7-127.38-25.7-59.8-70.38-104.21Q667-756 607.19-781.88q-59.81-25.88-127.38-25.88Zm.11 205.28q-51.16 0-87.16 35.7-36 35.69-36 86.86 0 51.16 35.78 86.78 35.78 35.62 87.24 35.62 51.46 0 87.08-35.7 35.62-35.69 35.62-86.86 0-51.16-35.7-86.78-35.69-35.62-86.86-35.62Zm.34 561.65q-91.69 0-171.89-34.59-80.2-34.6-140.15-94.06-59.96-59.45-94.44-139.27Q39.3-388.57 39.3-480q0-91.2 34.48-171.51 34.48-80.32 94.44-140.15 59.95-59.84 139.88-94.44 79.94-34.6 171.64-34.6 91.46 0 171.77 34.6 80.32 34.6 140.15 94.44 59.84 59.83 94.44 139.88 34.6 80.06 34.6 171.52 0 91.69-34.6 171.51t-94.44 139.27q-59.83 59.46-139.88 94.06-80.06 34.59-171.52 34.59Zm376.2 5.5q-24.72 0-42.2-17.47-17.48-17.48-17.48-42.2 0-24.72 17.48-42.2 17.48-17.47 42.2-17.47 24.71 0 42.19 17.47 17.48 17.48 17.48 42.2 0 24.72-17.48 42.2-17.48 17.47-42.19 17.47ZM967.41 78.74q-24.71 0-42.19-17.48-17.48-17.48-17.48-42.19 0-24.72 17.48-42.2 17.48-17.48 42.19-17.48 24.72 0 42.2 17.48 17.48 17.48 17.48 42.2 0 24.71-17.48 42.19-17.48 17.48-42.2 17.48Z"/></svg>