<svg xmlns="http://www.w3.org/2000/svg" height="20" viewBox="0 -960 960 960" width="20"><path d="M147.01-89.17q19.16 0 32.77-13.4 13.61-13.4 13.61-32.56 0-19.17-13.4-32.78t-32.56-13.61q-19.17 0-32.78 13.4t-13.61 32.56q0 19.17 13.4 32.78t32.57 13.61ZM62.57 3.18q19.17 0 32.78-13.4 13.6-13.4 13.6-32.57 0-19.16-13.39-32.77-13.4-13.61-32.57-13.61t-32.78 13.4q-13.6 13.4-13.6 32.56 0 19.17 13.39 32.78Q43.4 3.18 62.57 3.18ZM480.3-470.96q-19.26 0-33.15-13.02-13.89-13.03-13.89-32.29 0-19.25 13.68-32.86t32.94-13.61q19.26 0 32.49 13.4 13.24 13.4 13.24 32.65 0 19.26-13.03 32.5-13.02 13.23-32.28 13.23Zm-72.13 198.79-46.56 46.56q26.9 13 56.86 19.5t61.53 6.5q31.57 0 61.72-6.5 30.16-6.5 57.24-19.5l-47.13-46.56H408.17Zm71.75-488.22q-57.31 0-108.52 22.24-51.22 22.25-89.37 60.68-38.16 38.43-60.29 89.11-22.13 50.68-22.13 108.32 0 59.04 22.21 110.93 22.2 51.89 61.83 90.07l51.57-51.57q-29.87-27.69-46.46-66.21-16.59-38.52-16.59-83.37 0-86.38 60.86-147.01 60.85-60.63 147.2-60.63 86.34 0 146.97 60.75 60.63 60.76 60.63 146.95 0 44.75-16.59 83.29-16.59 38.54-46.46 66.23l51.57 51.57q39.06-38.08 61.55-89.83 22.49-51.75 22.49-111.13 0-57.71-22.35-108.45-22.34-50.75-60.53-89.03-38.2-38.29-89.24-60.6-51.04-22.31-108.35-22.31Zm.18 158.69q-50.67 0-86.23 35.47-35.57 35.47-35.57 86.13 0 50.67 35.47 86.23 35.47 35.57 86.13 35.57 50.67 0 86.23-35.47 35.57-35.47 35.57-86.13 0-50.67-35.47-86.23-35.47-35.57-86.13-35.57Zm.02 499.53q-78.6 0-147.36-29.71-68.77-29.71-119.97-80.91-51.2-51.2-80.91-119.85-29.71-68.64-29.71-147.24 0-78.6 29.71-147.36 29.71-68.77 80.91-119.97 51.2-51.2 119.85-80.91 68.64-29.71 147.24-29.71 78.6 0 147.36 29.71 68.77 29.71 119.97 80.91 51.2 51.2 80.91 119.85 29.71 68.64 29.71 147.24 0 78.6-29.71 147.36-29.71 68.77-80.91 119.97-51.2 51.2-119.85 80.91-68.64 29.71-147.24 29.71Zm332.87 13q-19.16 0-32.77-13.4-13.61-13.4-13.61-32.56 0-19.17 13.4-32.78t32.56-13.61q19.17 0 32.78 13.4t13.61 32.56q0 19.17-13.4 32.78t-32.57 13.61Zm84.44 92.35q-19.17 0-32.78-13.4-13.6-13.4-13.6-32.57 0-19.16 13.39-32.77 13.4-13.61 32.57-13.61t32.78 13.4q13.6 13.4 13.6 32.56 0 19.17-13.39 32.78-13.4 13.61-32.57 13.61Z"/></svg>