<svg xmlns="http://www.w3.org/2000/svg" height="20" viewBox="0 -960 960 960" width="20"><path d="M129.79-86Q146-86 158-98.29t12-27.5Q170-142 158.21-154t-28-12q-15.21 0-27.71 11.79t-12.5 28Q90-111 102.29-98.5t27.5 12.5Zm-102 102Q44 16 56 3.71t12-27.5Q68-40 56.21-52t-28-12Q13-64 .5-52.21t-12.5 28Q-12-9 .29 3.5T27.79 16Zm452.58-490q-16.37 0-28.87-11.63t-12.5-27Q439-529 451.29-541t28.66-12q15.37 0 27.21 11.79Q519-529.42 519-513.05q0 15.37-11.63 27.21-11.63 11.84-27 11.84ZM401-299l-85 85q36 22 77.75 34 41.76 12 86 12 44.25 0 86.75-12t78.5-34l-88-85H401Zm78.84-493q-63.84 0-120.86 24.75-57.01 24.75-99.5 67.5Q217-657 192.5-600.6 168-544.19 168-480.04q0 71.04 29.62 132.58Q227.24-285.92 278-243l94-94q-35-23-54.5-59.98T298-480.19q0-76.81 52.73-129.31 52.72-52.5 129.5-52.5 76.77 0 129.27 52.62Q662-556.76 662-480.13q0 46.13-19.5 83.63Q623-359 588-336l94 94q50.76-42.82 80.38-104.03Q792-407.25 792-480q0-64.21-24.85-120.66-24.85-56.46-67.37-99-42.51-42.54-99.3-67.44T479.84-792Zm.04 177q-56.88 0-96.38 39.62-39.5 39.62-39.5 95.5Q344-423 383.32-384q39.33 39 96.5 39 56.18 0 95.68-39.12 39.5-39.12 39.5-96 0-55.88-39.62-95.38-39.62-39.5-95.5-39.5Zm.33 491q-74.21 0-139.34-27.6-65.14-27.6-114.4-76.37-49.27-48.76-76.87-113.45T122-480.05q0-73.95 27.6-139.08 27.6-65.14 76.87-114.4 49.26-49.27 114.18-76.87Q405.57-838 479.79-838q74.21 0 139.34 27.6 65.14 27.6 114.4 76.87 49.27 49.26 76.87 114.18Q838-554.43 838-480.21q0 74.21-27.6 138.84-27.6 64.64-76.87 113.4-49.26 48.77-114.18 76.37Q554.43-124 480.21-124Zm350 38Q814-86 802-98.29t-12-27.5Q790-142 801.79-154t28-12q15.21 0 27.71 11.79t12.5 28q0 15.21-12.29 27.71T830.21-86Zm102 102Q916 16 904 3.71t-12-27.5Q892-40 903.79-52t28-12Q947-64 959.5-52.21t12.5 28Q972-9 959.71 3.5T932.21 16Z"/></svg>