<svg xmlns="http://www.w3.org/2000/svg" height="48" viewBox="0 -960 960 960" width="48"><path d="M480.08-483.52q17.55 0 28.6-10.89 11.04-10.88 11.04-27.85 0-15.98-11.24-28.1-11.25-12.12-28.4-12.12-16.56 0-28.06 12.05t-11.5 27.63q0 17.27 11.5 28.27 11.5 11.01 28.06 11.01ZM355.65-210.04h250.7l73.58 73.58q-44.04 27.05-94.82 41.33-50.78 14.28-105.08 14.28-54.53 0-105.31-13.59t-94.89-41.02l75.82-74.58ZM479.2-879.39q83.09 0 156.04 31.36 72.96 31.36 127.16 85.63 54.2 54.28 85.59 126.88 31.4 72.59 31.4 155.52 0 90.02-36.34 167.42-36.33 77.41-99.77 131.41l-91.19-90.2q44.95-37 71.79-91.33 26.84-54.33 26.84-117.3 0-112.43-79.11-191.57-79.11-79.15-191.49-79.15-112.12 0-190.98 79.12-78.86 79.12-78.86 191.52 0 62.86 26.36 117.12 26.35 54.25 72.27 91.35l-91.19 90.2q-63.52-54.29-100.2-131.54Q80.85-390.2 80.85-480q0-82.96 31.58-155.59 31.58-72.63 86.04-126.82 54.46-54.19 126.43-85.58 71.97-31.4 154.3-31.4Zm1.4 203.15q81.36 0 138.88 57.14Q677-561.96 677-480.6t-57.52 139.1q-57.52 57.74-138.88 57.74-81.36 0-139.1-57.74-57.74-57.74-57.74-139.1 0-81.36 57.74-138.5t139.1-57.14Z"/></svg>