<svg xmlns="http://www.w3.org/2000/svg" height="24" viewBox="0 -960 960 960" width="24"><path d="M480-488.81q-11.65 0-19.58-8.31-7.92-8.3-7.92-19.19 0-11.65 7.92-19.77 7.93-8.11 19.58-8.11 10.88 0 19.38 8.11 8.5 8.12 8.5 19.77 0 10.89-8.5 19.19-8.5 8.31-19.38 8.31Zm-66.35 175.12-72.96 72.6q30.85 18.42 66 28.22 35.16 9.79 73.31 9.79 38.15 0 73.37-9.77 35.21-9.77 66.44-28.27l-73.62-72.57H413.65Zm66.3-443.23q-57.33 0-107.69 21.64-50.35 21.65-88.11 59.41-37.77 37.75-59.42 88.18-21.65 50.43-21.65 107.78 0 66.91 28.9 123.04 28.9 56.14 77.62 94.14l79.09-78.92q-33.92-22-54.46-58.2-20.54-36.19-20.54-80.15 0-69.36 48.48-117.83 48.47-48.48 117.82-48.48 69.36 0 117.84 48.48 48.48 48.47 48.48 117.83 0 43.96-20.54 80.54-20.54 36.58-54.46 58.58l79.09 78.92q48.72-38 77.62-94.53 28.9-56.52 28.9-123.49 0-57.4-21.65-107.76-21.65-50.35-59.41-88.11-37.76-37.77-88.17-59.42-50.41-21.65-107.74-21.65Zm-.04 147.65q-54.19 0-91.74 37.89t-37.55 91.47q0 54.19 37.54 91.74t91.94 37.55q53.63 0 91.4-37.54t37.77-91.94q0-53.63-37.89-91.4t-91.47-37.77Zm.32 443.12q-65.25 0-122.55-24.62-57.3-24.61-99.8-67.11t-67.11-99.64q-24.62-57.13-24.62-122.46 0-65.33 24.62-122.29 24.61-56.96 67.11-99.65 42.5-42.7 99.64-67.31 57.13-24.62 122.46-24.62 65.33 0 122.29 24.62 56.96 24.61 99.65 67.31 42.7 42.69 67.31 99.63 24.62 56.95 24.62 122.06 0 65.25-24.62 122.55-24.61 57.3-67.31 99.8-42.69 42.5-99.63 67.11-56.95 24.62-122.06 24.62Z"/></svg>