<svg xmlns="http://www.w3.org/2000/svg" height="20" viewBox="0 -960 960 960" width="20"><path d="M480.37-465.5q-20.87 0-36.87-14.63-16-14.63-16-35.5 0-20.87 15.79-36.37 15.79-15.5 36.66-15.5 20.87 0 35.71 15.29t14.84 36.16q0 20.87-14.63 35.71t-35.5 14.84ZM406.5-266 359-218.6q27.59 13.1 58.29 19.85Q448-192 480-192t63.3-6.5q31.29-6.5 59.2-20l-49-47.5h-147Zm73.29-502q-58.79 0-111.37 22.78-52.58 22.79-92 62.5Q237-643 214.5-591.02 192-539.03 192-479.91q0 57.91 20.87 109.7 20.87 51.79 59.13 91.71l53-53q-29-28-44-65.93-15-37.93-15-82.76 0-88.94 62.66-151.38Q391.32-694 480.22-694t151.34 62.56Q694-568.89 694-480.13q0 44.73-15 82.68-15 37.95-44 65.95l53 53q37.26-39.82 58.63-91.39 21.37-51.58 21.37-110 0-59.38-22.88-111.38-22.89-52-62.37-91.47-39.48-39.46-91.83-62.36Q538.58-768 479.79-768Zm.3 166.5q-50.59 0-86.34 35.41t-35.75 86q0 50.59 35.51 86.34Q429.03-358 479.76-358q50.74 0 86.24-35.51 35.5-35.52 35.5-86.25 0-50.74-35.41-86.24-35.41-35.5-86-35.5Zm.35 521.5q-82.94 0-155.82-31.1-72.89-31.1-127.65-85.87-54.77-54.76-85.87-127.32Q80-396.84 80-479.92t31.1-155.71q31.1-72.64 85.87-127.4 54.76-54.77 127.32-85.87Q396.84-880 479.92-880t155.71 31.1q72.64 31.1 127.4 85.87 54.77 54.76 85.87 127.2T880-480.44q0 82.94-31.1 155.82-31.1 72.89-85.87 127.65-54.76 54.77-127.2 85.87T480.44-80Z"/></svg>