<svg xmlns="http://www.w3.org/2000/svg" height="40" viewBox="0 -960 960 960" width="40"><path d="M480-490.77q-11.94 0-20.12-8.17-8.17-8.17-8.17-20.12 0-11.94 8.17-20.38 8.18-8.44 19.99-8.44 12.09 0 20.52 8.44t8.43 20.25q0 12.09-8.43 20.25-8.44 8.17-20.39 8.17Zm-67.4 190.36-71.99 71.12q31.49 17.61 66.42 27.13 34.92 9.53 72.97 9.53t73.33-9.41q35.29-9.42 66.97-27.32l-71.74-71.05H412.6Zm67.3-466.96q-59.32 0-111.63 22.45-52.3 22.45-91.52 61.58-39.22 39.14-61.67 91.6-22.45 52.47-22.45 111.77 0 68.11 29.27 125.82 29.27 57.7 78.09 97.52l77.05-76.55q-34.86-24.42-55.74-62.68-20.89-38.26-20.89-84.24 0-74.82 52.45-127.28 52.46-52.47 127.25-52.47 74.9 0 127.32 52.47 52.42 52.46 52.42 127.28 0 45.98-21.02 84.23-21.01 38.24-55.87 62.66l77.05 76.3q48.92-39.6 78.14-97.24 29.22-57.64 29.22-125.72 0-59.54-22.45-111.93-22.45-52.38-61.58-91.53-39.14-39.14-91.63-61.59-52.48-22.45-111.81-22.45Zm-.06 155.38q-54.6 0-93.07 38.6-38.48 38.6-38.48 93.55 0 54.6 38.37 93.07 38.37 38.48 93.28 38.48 55.06 0 93.55-38.37 38.5-38.37 38.5-93.28 0-55.06-38.6-93.55-38.6-38.5-93.55-38.5Zm.32 467.25q-69.24 0-130.56-26.4-61.33-26.39-106.7-71.76-45.37-45.37-71.76-106.49-26.4-61.13-26.4-130.41 0-69.94 26.4-130.88 26.39-60.93 71.76-106.36 45.37-45.43 106.49-71.82 61.13-26.4 130.41-26.4 69.94 0 130.88 26.4 60.93 26.39 106.36 71.82 45.43 45.43 71.82 106.29 26.4 60.87 26.4 130.59 0 69.24-26.4 130.56-26.39 61.33-71.82 106.75-45.43 45.42-106.29 71.76-60.87 26.35-130.59 26.35Z"/></svg>