<svg xmlns="http://www.w3.org/2000/svg" height="48" viewBox="0 -960 960 960" width="48"><path d="M479.81-486.22q15.7 0 26.12-9.89 10.42-9.89 10.42-25.58 0-14.7-10.42-25.71-10.42-11.01-26.12-11.01-14.7 0-25.46 11.04-10.76 11.05-10.76 25.39 0 15.98 10.76 25.87t25.46 9.89ZM367.89-217.63h225.22l73.41 73.52q-41.63 24.13-88.9 37.16-47.27 13.04-97.54 13.04-50.43 0-97.95-12.19-47.52-12.18-89.22-36.62l74.98-74.91Zm111.77-649.02q80.56 0 150.71 30.54t122.67 83.07q52.53 52.52 83.07 122.6 30.54 70.08 30.54 150.33 0 89.19-37.14 165.36-37.14 76.16-100.29 129.12l-87.57-86.79q46.12-35.93 73.42-89.97 27.3-54.03 27.3-117.61 0-109.28-76.69-186.07-76.69-76.8-185.81-76.8-108.39 0-185.57 76.74-77.17 76.74-77.17 185.93 0 63.89 27.61 117.47t74.11 89.75l-87.07 86.79q-63.34-53.06-100.61-129.22-37.26-76.16-37.26-164.69 0-80.12 30.17-150.31 30.17-70.18 82.75-122.67 52.58-52.49 122.93-83.03 70.35-30.54 149.9-30.54Zm.54 192.52q81.16 0 137.55 56.42 56.38 56.43 56.38 137.35 0 80.93-56.42 137.71-56.43 56.78-137.35 56.78-80.93 0-137.71-56.68-56.78-56.69-56.78-137.65 0-81.16 56.68-137.55 56.69-56.38 137.65-56.38Z"/></svg>