<svg xmlns="http://www.w3.org/2000/svg" height="24" viewBox="0 -960 960 960" width="24"><path d="M480.16-471.69q-19.54 0-33.97-13.65-14.42-13.65-14.42-32.43 0-19.54 14.42-33.46 14.43-13.92 33.97-13.92 18.77 0 32.42 13.92 13.65 13.92 13.65 33.46 0 18.78-13.65 32.43-13.65 13.65-32.42 13.65ZM408.15-282l-87.46 87.46q35.85 20.39 75.76 31.46 39.9 11.08 83.3 11.08t84.06-11.08q40.65-11.07 76.5-31.46l-89-87.46H408.15Zm71.69-526q-67.84 0-127.72 25.85-59.88 25.85-104.5 70.5T177.5-607.39Q152-547.79 152-480q0 73.62 30.46 137.31T265.31-234l92.31-92.31q-35.31-26.61-55.97-65.92Q281-431.54 281-480q0-83.69 57.65-141.35Q396.31-679 480-679t141.35 57.65Q679-563.69 679-480q0 48.46-20.65 88.15-20.66 39.7-55.97 66.31l92.31 92.31q52.39-45 82.85-108.39Q808-405.02 808-480q0-67.83-25.85-127.47-25.85-59.65-70.5-104.09Q667-756 607.34-782q-59.65-26-127.5-26Zm.04 196q-55.5 0-94.19 38.69Q347-534.61 347-479.88q0 55.5 38.52 93.69Q424.03-348 479.82-348q55.03 0 93.6-38.31Q612-424.62 612-480.12q0-54.73-38.69-93.3Q534.61-612 479.88-612Zm.33 524q-81.75 0-153.44-30.54t-125.69-84.04q-54-53.5-84.54-124.74Q86-398.57 86-480.05q0-81.49 30.54-153.18 30.54-71.69 84.54-125.69 54-54 125.48-84.54Q398.03-874 479.79-874q81.75 0 153.44 30.54t125.69 84.54q54 54 84.54 125.48Q874-561.97 874-480.21q0 81.75-30.54 152.94t-84.54 124.69q-54 53.5-125.48 84.04Q561.97-88 480.21-88Z"/></svg>