<svg xmlns="http://www.w3.org/2000/svg" height="24" viewBox="0 -960 960 960" width="24"><path d="M480.16-474q-18.16 0-31.66-12.84t-13.5-30Q435-535 448.5-548t31.66-13q17.16 0 30 13T523-516.84q0 17.16-12.84 30t-30 12.84ZM407-291l-93 93q37 22 78.75 34 41.76 12 87 12 45.25 0 87.75-12t79.5-34l-95-93H407Zm72.84-517q-67.84 0-127.72 25.85-59.88 25.85-104.5 70.5T177.5-607.39Q152-547.79 152-480q0 75 31.5 139.5T269-231l99-99q-36-25-57-63.5T290-480q0-80 55-135t135-55q80 0 135 55t55 135q0 48-21 87t-57 64l99 99q54-45 85.5-109.32Q808-403.63 808-480q0-67.83-25.85-127.47-25.85-59.65-70.5-104.09Q667-756 607.34-782q-59.65-26-127.5-26Zm.04 193q-56.88 0-96.38 39.62-39.5 39.62-39.5 95.5Q344-423 383.32-384q39.33 39 96.5 39 56.18 0 95.68-39.12 39.5-39.12 39.5-96 0-55.88-39.62-95.38-39.62-39.5-95.5-39.5Zm.33 515Q401-100 331.5-129.5 262-159 209.5-211t-82-121.05Q98-401.11 98-480.05 98-559 127.5-628.5q29.5-69.5 82-122t121.79-82q69.28-29.5 148.5-29.5 79.21 0 148.71 29.5 69.5 29.5 122 82t82 121.79q29.5 69.28 29.5 148.5Q862-401 832.5-332q-29.5 69-82 121t-121.79 81.5Q559.43-100 480.21-100Z"/></svg>