<svg xmlns="http://www.w3.org/2000/svg" version="1.1" width="3300" height="2000"><g id="Notes"><style>
    text {
      font-family: monospace;
      text-anchor: middle;
    }
    text.emphasis {
      font-weight:bold;
    }
    text.lanchor {
      text-anchor: start;
    }
  </style><rect height="2200" id="artboard" fill="white" width="3300" x="0" y="0"/><line id="" style="fill:none;stroke:black;stroke-width:0.5;" x1="263" x2="3036" y1="292" y2="292"/><text class="lanchor emphasis" transform="matrix(1 0 0 1 263 322)">Weight/Scale Variations</text><text transform="matrix(1 0 0 1 559.711 322)">Ultralight</text><text transform="matrix(1 0 0 1 856.422 322)">Thin</text><text transform="matrix(1 0 0 1 1153.13 322)">Light</text><text transform="matrix(1 0 0 1 1449.84 322)">Regular</text><text transform="matrix(1 0 0 1 1746.56 322)">Medium</text><text transform="matrix(1 0 0 1 2043.27 322)">Semibold</text><text transform="matrix(1 0 0 1 2339.98 322)">Bold</text><text transform="matrix(1 0 0 1 2636.69 322)">Heavy</text><text transform="matrix(1 0 0 1 2933.4 322)">Black</text><text id="template-version" style="text-anchor: end;" transform="matrix(1 0 0 1 3036 1933)">Template v.1.0</text><text class="lanchor" transform="matrix(1 0 0 1 263 726)">Small</text><text class="lanchor" transform="matrix(1 0 0 1 263 1156)">Medium</text><text class="lanchor" transform="matrix(1 0 0 1 263 1586)">Large</text></g><g id="Guides"><g id="H-reference" style="fill:#27AAE1;stroke:none;" transform="matrix(1 0 0 1 339 696)"><path d="M 54.9316 0 L 57.666 0 L 30.5664 -70.459 L 28.0762 -70.459 L 0.976562 0 L 3.66211 0 L 12.9395 -24.4629 L 45.7031 -24.4629 Z M 29.1992 -67.0898 L 29.4434 -67.0898 L 44.8242 -26.709 L 13.8184 -26.709 Z"/></g><line id="Baseline-S" style="fill:none;stroke:#27AAE1;opacity:1;stroke-width:0.577;" x1="263" x2="3036" y1="696" y2="696"/><line id="Capline-S" style="fill:none;stroke:#27AAE1;opacity:1;stroke-width:0.577;" x1="263" x2="3036" y1="625.541" y2="625.541"/><g id="H-reference" style="fill:#27AAE1;stroke:none;" transform="matrix(1 0 0 1 339 1126)"><path d="M 54.9316 0 L 57.666 0 L 30.5664 -70.459 L 28.0762 -70.459 L 0.976562 0 L 3.66211 0 L 12.9395 -24.4629 L 45.7031 -24.4629 Z M 29.1992 -67.0898 L 29.4434 -67.0898 L 44.8242 -26.709 L 13.8184 -26.709 Z"/></g><line id="Baseline-M" style="fill:none;stroke:#27AAE1;opacity:1;stroke-width:0.577;" x1="263" x2="3036" y1="1126" y2="1126"/><line id="Capline-M" style="fill:none;stroke:#27AAE1;opacity:1;stroke-width:0.577;" x1="263" x2="3036" y1="1055.54" y2="1055.54"/><g id="H-reference" style="fill:#27AAE1;stroke:none;" transform="matrix(1 0 0 1 339 1556)"><path d="M 54.9316 0 L 57.666 0 L 30.5664 -70.459 L 28.0762 -70.459 L 0.976562 0 L 3.66211 0 L 12.9395 -24.4629 L 45.7031 -24.4629 Z M 29.1992 -67.0898 L 29.4434 -67.0898 L 44.8242 -26.709 L 13.8184 -26.709 Z"/></g><line id="Baseline-L" style="fill:none;stroke:#27AAE1;opacity:1;stroke-width:0.577;" x1="263" x2="3036" y1="1556" y2="1556"/><line id="Capline-L" style="fill:none;stroke:#27AAE1;opacity:1;stroke-width:0.577;" x1="263" x2="3036" y1="1485.54" y2="1485.54"/><rect height="119.336" id="left-margin" style="fill:darkred;stroke:none;opacity:0.4;" width="12.4512" x="1394.06" y="1030.79"/><rect height="119.336" id="right-margin" style="fill:darkgreen;stroke:none;opacity:0.4;" width="12.4512" x="1502.5112" y="1030.79"/><rect x="1406.5112" y="1045" width="96" height="96" fill="none" stroke="blue" stroke-dasharray="5"/><rect x="1394.06" y="1030.79" width="120.9024" height="119.336" fill="none" stroke="blue"/></g><g id="Symbols"><g id="Bold-L" transform="matrix(1 0 0 1 2266 1556)"><path d="M66.561 32.818 Q61.564 32.818 57.387 30.963 Q53.212 29.109 50.471 25.239 L13.223 -22.007 L17.899 -26.587 Q21.124 -29.747 25.679 -30.231 Q30.236 -30.715 34.185 -28.619 L46.117 -21.04 V-58.611 Q46.117 -61.486 48.13 -63.676 Q50.142 -65.867 53.272 -65.867 Q56.438 -65.867 58.534 -63.676 Q60.63 -61.486 60.63 -58.611 V0.406 L41.28 -9.914 L61.762 16.131 Q62.444 17.442 63.847 17.874 Q65.25 18.305 66.514 18.305 H104.168 Q109.527 18.305 113.297 14.556 Q117.068 10.807 117.068 5.405 V-21.524 Q117.068 -23.862 115.284 -25.757 Q113.499 -27.651 111.009 -27.651 H96.428 V-34.988 V-42.325 H110.94 Q119.567 -42.325 125.735 -36.138 Q131.903 -29.949 131.903 -21.524 V5.405 Q131.903 16.884 123.684 24.85 Q115.465 32.818 104.168 32.818 H66.561 Z M71.111 -27.651 V-70.382 Q71.111 -73.277 73.251 -75.457 Q75.389 -77.639 78.551 -77.639 Q81.593 -77.639 83.769 -75.447 Q85.946 -73.256 85.946 -70.382 V-27.651 H71.111 Z M19.49 -55.064 Q19.189 -56.837 19.108 -58.531 Q19.027 -60.224 19.027 -62.231 Q19.027 -82.101 33.608 -96.237 Q48.19 -110.373 69.262 -110.373 Q90.076 -110.373 104.701 -96.328 Q119.325 -82.283 119.325 -62.241 Q119.325 -60.546 119.083 -58.127 Q118.841 -55.709 118.841 -55.709 L104.329 -56.999 Q104.329 -56.999 104.571 -59.095 Q104.812 -61.191 104.812 -62.32 Q104.812 -76.047 94.226 -85.954 Q83.642 -95.86 69.179 -95.86 Q54.209 -95.86 43.955 -85.948 Q33.701 -76.036 33.701 -62.301 Q33.701 -61.03 33.701 -59.767 Q33.701 -58.503 34.185 -57.321 L19.49 -55.064 Z"/></g><g id="Semibold-L" transform="matrix(1 0 0 1 1970.27 1556)"><path d="M66.646 32.468 Q61.844 32.468 57.739 30.613 Q53.633 28.759 50.961 25.029 L13.924 -21.938 L18.155 -26.044 Q21.193 -29.117 25.521 -29.565 Q29.849 -30.014 33.624 -27.988 L46.748 -19.777 V-59.382 Q46.748 -61.988 48.604 -63.999 Q50.46 -66.008 53.29 -66.008 Q56.088 -66.008 58.044 -63.999 Q60 -61.988 60 -59.382 V1.458 L40.509 -9.564 L61.27 16.796 Q62.039 18.208 63.591 18.677 Q65.14 19.147 66.604 19.147 H104.448 Q110.155 19.147 114.171 15.22 Q118.19 11.294 118.19 5.545 V-21.454 Q118.19 -24.099 116.174 -26.155 Q114.16 -28.212 111.33 -28.212 H96.568 V-34.919 V-41.624 H111.29 Q119.683 -41.624 125.688 -35.649 Q131.693 -29.675 131.693 -21.454 V5.545 Q131.693 16.818 123.648 24.642 Q115.605 32.468 104.448 32.468 H66.646 Z M71.532 -28.212 V-71.224 Q71.532 -73.841 73.474 -75.846 Q75.413 -77.848 78.284 -77.848 Q81.031 -77.848 83.034 -75.839 Q85.035 -73.83 85.035 -71.224 V-28.212 H71.532 Z M19.939 -55.204 Q19.61 -56.907 19.529 -58.635 Q19.448 -60.364 19.448 -62.304 Q19.448 -82.031 33.733 -96.026 Q48.019 -110.023 68.665 -110.023 Q89.094 -110.023 103.439 -96.078 Q117.783 -82.134 117.783 -62.31 Q117.783 -60.687 117.542 -58.268 Q117.3 -55.849 117.3 -55.849 L104.048 -57.068 Q104.048 -57.068 104.29 -59.13 Q104.532 -61.191 104.532 -62.389 Q104.532 -76.521 93.912 -86.646 Q83.29 -96.771 68.647 -96.771 Q53.566 -96.771 43.213 -86.638 Q32.86 -76.505 32.86 -62.364 Q32.86 -61.03 32.86 -59.743 Q32.86 -58.456 33.343 -57.252 L19.939 -55.204 Z"/></g><g id="Medium-L" transform="matrix(1 0 0 1 1674.31 1556)"><path d="M66.711 32.205 Q62.054 32.205 58.002 30.35 Q53.949 28.496 51.331 24.871 L14.45 -21.885 L18.347 -25.636 Q21.246 -28.643 25.403 -29.065 Q29.56 -29.488 33.203 -27.514 L47.222 -18.831 V-59.961 Q47.222 -62.365 48.959 -64.239 Q50.697 -66.113 53.303 -66.113 Q55.825 -66.113 57.674 -64.239 Q59.525 -62.365 59.525 -59.961 V2.246 L39.93 -9.301 L60.901 17.294 Q61.736 18.782 63.397 19.281 Q65.06 19.777 66.67 19.777 H104.658 Q110.626 19.777 114.828 15.719 Q119.03 11.66 119.03 5.65 V-21.401 Q119.03 -24.276 116.843 -26.455 Q114.657 -28.633 111.57 -28.633 H96.673 V-34.866 V-41.098 H111.553 Q119.772 -41.098 125.652 -35.283 Q131.535 -29.469 131.535 -21.401 V5.65 Q131.535 16.77 123.622 24.487 Q115.71 32.205 104.658 32.205 H66.711 Z M71.848 -28.633 V-71.855 Q71.848 -74.264 73.64 -76.136 Q75.433 -78.006 78.082 -78.006 Q80.61 -78.006 82.481 -76.133 Q84.351 -74.261 84.351 -71.855 V-28.633 H71.848 Z M20.276 -55.309 Q19.926 -56.96 19.845 -58.714 Q19.764 -60.469 19.764 -62.359 Q19.764 -81.978 33.827 -95.868 Q47.89 -109.76 68.218 -109.76 Q88.355 -109.76 102.491 -95.891 Q116.626 -82.023 116.626 -62.364 Q116.626 -60.791 116.384 -58.373 Q116.142 -55.954 116.142 -55.954 L103.839 -57.121 Q103.839 -57.121 104.08 -59.156 Q104.322 -61.191 104.322 -62.443 Q104.322 -76.876 93.675 -87.165 Q83.028 -97.455 68.249 -97.455 Q53.084 -97.455 42.655 -87.156 Q32.229 -76.857 32.229 -62.41 Q32.229 -61.03 32.229 -59.725 Q32.229 -58.423 32.713 -57.199 L20.276 -55.309 Z"/></g><g id="Regular-L" transform="matrix(1 0 0 1 1378.56 1556)"><path d="M66.758 32.011 Q62.209 32.011 58.194 30.157 Q54.18 28.303 51.6 24.755 L14.835 -21.846 L18.487 -25.337 Q21.285 -28.296 25.316 -28.699 Q29.348 -29.102 32.895 -27.167 L47.569 -18.137 V-60.385 Q47.569 -62.642 49.22 -64.416 Q50.871 -66.19 53.311 -66.19 Q55.631 -66.19 57.405 -64.416 Q59.179 -62.642 59.179 -60.385 V2.825 L39.506 -9.107 L60.63 17.66 Q61.514 19.203 63.257 19.722 Q65 20.24 66.72 20.24 H104.812 Q110.971 20.24 115.308 16.085 Q119.648 11.928 119.648 5.728 V-21.362 Q119.648 -24.407 117.334 -26.674 Q115.02 -28.941 111.746 -28.941 H96.75 V-34.827 V-40.712 H111.746 Q119.836 -40.712 125.627 -35.016 Q131.419 -29.317 131.419 -21.362 V5.728 Q131.419 16.734 123.603 24.373 Q115.787 32.011 104.812 32.011 H66.758 Z M72.079 -28.941 V-72.317 Q72.079 -74.575 73.762 -76.349 Q75.446 -78.122 77.935 -78.122 Q80.303 -78.122 82.076 -76.349 Q83.85 -74.575 83.85 -72.317 V-28.941 H72.079 Z M20.522 -55.386 Q20.156 -56.999 20.076 -58.772 Q19.995 -60.546 19.995 -62.399 Q19.995 -81.939 33.896 -95.754 Q47.796 -109.566 67.891 -109.566 Q87.815 -109.566 101.796 -95.754 Q115.778 -81.941 115.778 -62.402 Q115.778 -60.869 115.536 -58.45 Q115.294 -56.031 115.294 -56.031 L103.684 -57.16 Q103.684 -57.16 103.926 -59.176 Q104.168 -61.191 104.168 -62.481 Q104.168 -77.137 93.501 -87.546 Q82.836 -97.956 67.957 -97.956 Q52.729 -97.956 42.248 -87.536 Q31.766 -77.115 31.766 -62.444 Q31.766 -61.03 31.766 -59.713 Q31.766 -58.397 32.25 -57.16 L20.522 -55.386 Z"/></g><g id="Light-L" transform="matrix(1 0 0 1 1082.77 1556)"><path d="M66.819 28.723 Q62.642 28.723 58.938 27.025 Q55.235 25.326 52.903 22.027 L17.936 -22.404 L20.845 -25.152 Q23.27 -27.738 26.867 -28.111 Q30.463 -28.482 33.577 -26.734 L49.244 -17.083 V-59.703 Q49.244 -61.464 50.555 -62.897 Q51.868 -64.329 53.808 -64.329 Q55.631 -64.329 57.063 -62.897 Q58.497 -61.464 58.497 -59.703 V-0.4 L36.467 -13.697 L60.133 16.42 Q61.141 18.087 63.026 18.698 Q64.911 19.31 66.782 19.31 H103.51 Q109.908 19.31 114.375 14.993 Q118.841 10.676 118.841 4.239 V-21.983 Q118.841 -25.368 116.331 -27.806 Q113.822 -30.244 110.258 -30.244 H96.935 V-34.951 V-39.658 H110.258 Q117.608 -39.658 122.932 -34.429 Q128.255 -29.199 128.255 -21.983 V4.239 Q128.255 14.491 120.986 21.607 Q113.717 28.723 103.51 28.723 H66.819 Z M73.009 -30.244 V-71.263 Q73.009 -73.024 74.354 -74.457 Q75.699 -75.889 77.687 -75.889 Q79.558 -75.889 80.991 -74.457 Q82.423 -73.024 82.423 -71.263 V-30.244 H73.009 Z M23.157 -55.077 Q22.823 -56.565 22.712 -58.236 Q22.601 -59.906 22.601 -61.717 Q22.601 -80.117 35.743 -93.198 Q48.886 -106.278 67.949 -106.278 Q86.848 -106.278 100.041 -93.198 Q113.235 -80.119 113.235 -61.72 Q113.235 -60.311 112.993 -57.986 Q112.751 -55.659 112.751 -55.659 L103.56 -56.539 Q103.56 -56.539 103.771 -58.532 Q103.982 -60.525 103.982 -61.799 Q103.982 -76.352 93.378 -86.688 Q82.776 -97.026 67.989 -97.026 Q52.853 -97.026 42.433 -86.685 Q32.015 -76.344 32.015 -61.786 Q32.015 -60.364 32.015 -59.061 Q32.015 -57.76 32.435 -56.539 L23.157 -55.077 Z"/></g><g id="Thin-L" transform="matrix(1 0 0 1 787.282 1556)"><path d="M66.882 25.437 Q63.076 25.437 59.683 23.892 Q56.289 22.349 54.204 19.297 L21.037 -22.962 L23.201 -24.965 Q25.255 -27.18 28.417 -27.521 Q31.581 -27.862 34.259 -26.3 L50.918 -16.028 V-59.021 Q50.918 -60.285 51.892 -61.377 Q52.864 -62.468 54.304 -62.468 Q55.631 -62.468 56.723 -61.377 Q57.815 -60.285 57.815 -59.021 V-3.625 L33.429 -18.286 L59.638 15.18 Q60.769 16.971 62.796 17.675 Q64.823 18.379 66.845 18.379 H102.208 Q108.845 18.379 113.441 13.903 Q118.035 9.425 118.035 2.751 V-22.603 Q118.035 -26.329 115.329 -28.938 Q112.622 -31.545 108.77 -31.545 H97.122 V-35.075 V-38.603 H108.77 Q115.381 -38.603 120.236 -33.842 Q125.093 -29.08 125.093 -22.603 V2.751 Q125.093 12.25 118.37 18.844 Q111.648 25.437 102.208 25.437 H66.882 Z M73.94 -31.545 V-70.208 Q73.94 -71.474 74.946 -72.566 Q75.952 -73.657 77.439 -73.657 Q78.814 -73.657 79.906 -72.566 Q80.997 -71.474 80.997 -70.208 V-31.545 H73.94 Z M25.79 -54.765 Q25.49 -56.131 25.347 -57.697 Q25.205 -59.264 25.205 -61.035 Q25.205 -78.293 37.591 -90.642 Q49.976 -102.992 68.006 -102.992 Q85.882 -102.992 98.287 -90.644 Q110.692 -78.295 110.692 -61.038 Q110.692 -59.753 110.45 -57.52 Q110.208 -55.286 110.208 -55.286 L103.435 -55.92 Q103.435 -55.92 103.616 -57.889 Q103.795 -59.859 103.795 -61.117 Q103.795 -75.567 93.257 -85.83 Q82.718 -96.095 68.022 -96.095 Q52.977 -96.095 42.62 -85.833 Q32.263 -75.572 32.263 -61.127 Q32.263 -59.696 32.263 -58.411 Q32.263 -57.125 32.622 -55.92 L25.79 -54.765 Z"/></g><g id="Ultralight-L" transform="matrix(1 0 0 1 491.205 1556)"><path d="M66.919 23.465 Q63.337 23.465 60.129 22.014 Q56.921 20.563 54.986 17.66 L22.898 -23.297 L24.615 -24.854 Q26.445 -26.845 29.348 -27.167 Q32.25 -27.49 34.669 -26.039 L51.922 -15.396 V-58.611 Q51.922 -59.579 52.693 -60.466 Q53.462 -61.352 54.601 -61.352 Q55.631 -61.352 56.518 -60.466 Q57.405 -59.579 57.405 -58.611 V-5.56 L31.605 -21.04 L59.34 14.435 Q60.546 16.301 62.659 17.062 Q64.769 17.821 66.882 17.821 H101.426 Q108.208 17.821 112.88 13.248 Q117.551 8.674 117.551 1.858 V-22.975 Q117.551 -26.906 114.728 -29.617 Q111.903 -32.327 107.876 -32.327 H97.234 V-35.149 V-37.971 H107.876 Q114.044 -37.971 118.62 -33.49 Q123.195 -29.009 123.195 -22.975 V1.858 Q123.195 10.905 116.8 17.186 Q110.406 23.465 101.426 23.465 H66.919 Z M74.498 -32.327 V-69.576 Q74.498 -70.544 75.301 -71.431 Q76.104 -72.317 77.29 -72.317 Q78.368 -72.317 79.254 -71.431 Q80.141 -70.544 80.141 -69.576 V-32.327 H74.498 Z M27.371 -54.58 Q27.09 -55.87 26.929 -57.374 Q26.768 -58.881 26.768 -60.625 Q26.768 -77.199 38.7 -89.11 Q50.631 -101.02 68.041 -101.02 Q85.301 -101.02 97.234 -89.11 Q109.166 -77.2 109.166 -60.628 Q109.166 -59.417 108.924 -57.241 Q108.683 -55.064 108.683 -55.064 L103.361 -55.547 Q103.361 -55.547 103.523 -57.503 Q103.684 -59.459 103.684 -60.707 Q103.684 -75.096 93.183 -85.316 Q82.684 -95.537 68.041 -95.537 Q53.051 -95.537 42.731 -85.324 Q32.411 -75.11 32.411 -60.732 Q32.411 -59.297 32.411 -58.019 Q32.411 -56.744 32.734 -55.547 L27.371 -54.58 Z"/></g><g id="Bold-M" transform="matrix(1 0 0 1 2281.8 1126)"><path d="M52 20.52 Q47.619 20.52 43.871 18.77 Q40.125 17.02 37.5 13.645 L7.125 -25.23 L12.377 -30.532 Q15.625 -33.605 20.062 -34.167 Q24.5 -34.73 28.25 -32.48 L33.375 -29.105 V-51.355 Q33.375 -54.777 35.771 -57.254 Q38.167 -59.73 41.71 -59.73 Q45.375 -59.73 47.812 -57.254 Q50.25 -54.777 50.25 -51.355 V-3.855 L42.625 -6.98 L50.502 2.96 Q50.729 3.423 51.115 3.596 Q51.5 3.77 51.966 3.77 H81.125 Q83.999 3.77 86.124 1.606 Q88.25 -0.559 88.25 -3.605 V-24.605 Q88.25 -25.439 87.68 -26.085 Q87.11 -26.73 86.267 -26.73 H77.125 V-35.105 V-43.48 H86.25 Q94.115 -43.48 99.62 -37.922 Q105.125 -32.365 105.125 -24.605 V-3.605 Q105.125 6.498 98.052 13.509 Q90.98 20.52 81.125 20.52 H52 Z M55.25 -26.73 V-60.605 Q55.25 -63.974 57.646 -66.414 Q60.041 -68.855 63.584 -68.855 Q67.125 -68.855 69.625 -66.414 Q72.125 -63.974 72.125 -60.605 V-26.73 H55.25 Z M13 -50.98 Q12.75 -52.48 12.625 -53.98 Q12.5 -55.48 12.5 -57.146 Q12.5 -73.702 25 -85.404 Q37.5 -97.105 55.445 -97.105 Q73.125 -97.105 85.625 -85.43 Q98.125 -73.755 98.125 -57.105 Q98.125 -55.73 97.938 -53.667 Q97.75 -51.605 97.75 -51.605 L80.875 -53.355 Q80.875 -53.355 81.062 -54.821 Q81.25 -56.287 81.25 -57.139 Q81.25 -66.73 73.676 -73.542 Q66.103 -80.355 55.43 -80.355 Q44.5 -80.355 36.938 -73.542 Q29.375 -66.73 29.375 -57.116 Q29.375 -56.23 29.375 -55.355 Q29.375 -54.48 29.625 -53.605 L13 -50.98 Z"/></g><g id="Semibold-M" transform="matrix(1 0 0 1 1985.97 1126)"><path d="M52.109 19.759 Q47.89 19.759 44.279 18.091 Q40.669 16.423 38.153 13.156 L8.158 -25.176 L12.901 -29.947 Q15.896 -32.844 20.062 -33.38 Q24.229 -33.915 27.761 -31.774 L34.245 -27.637 V-52.334 Q34.245 -55.409 36.41 -57.651 Q38.576 -59.892 41.779 -59.892 Q45.049 -59.892 47.269 -57.651 Q49.489 -55.409 49.489 -52.334 V-3.149 L41.43 -7.197 L49.904 3.53 Q50.241 4.133 50.816 4.359 Q51.391 4.585 52.09 4.585 H81.287 Q84.543 4.585 86.94 2.206 Q89.338 -0.174 89.338 -3.605 V-24.605 Q89.338 -25.792 88.51 -26.641 Q87.684 -27.491 86.463 -27.491 H76.907 V-35.077 V-42.665 H86.468 Q94.015 -42.665 99.299 -37.367 Q104.581 -32.071 104.581 -24.605 V-3.605 Q104.581 6.179 97.726 12.969 Q90.871 19.759 81.287 19.759 H52.109 Z M55.576 -27.491 V-61.584 Q55.576 -64.629 57.741 -66.85 Q59.907 -69.072 63.109 -69.072 Q66.31 -69.072 68.565 -66.85 Q70.821 -64.629 70.821 -61.584 V-27.491 H55.576 Z M13.706 -51.034 Q13.456 -52.48 13.359 -53.98 Q13.261 -55.48 13.261 -57.075 Q13.261 -73.322 25.326 -84.806 Q37.391 -96.29 54.711 -96.29 Q71.821 -96.29 83.914 -84.82 Q96.005 -73.351 96.005 -57.051 Q96.005 -55.676 95.817 -53.64 Q95.63 -51.605 95.63 -51.605 L80.386 -53.246 Q80.386 -53.246 80.574 -54.705 Q80.761 -56.165 80.761 -57.085 Q80.761 -67.056 73.132 -74.086 Q65.505 -81.116 54.722 -81.116 Q43.739 -81.116 36.123 -74.086 Q28.505 -67.056 28.505 -57.061 Q28.505 -56.121 28.505 -55.21 Q28.505 -54.299 28.755 -53.387 L13.706 -51.034 Z"/></g><g id="Medium-M" transform="matrix(1 0 0 1 1689.91 1126)"><path d="M52.19 19.189 Q48.094 19.189 44.585 17.581 Q41.076 15.974 38.641 12.789 L8.932 -25.135 L13.294 -29.509 Q16.1 -32.274 20.062 -32.789 Q24.025 -33.304 27.394 -31.244 L34.896 -26.537 V-53.067 Q34.896 -55.882 36.89 -57.949 Q38.883 -60.015 41.829 -60.015 Q44.804 -60.015 46.861 -57.949 Q48.919 -55.882 48.919 -53.067 V-2.619 L40.532 -7.36 L49.454 3.956 Q49.876 4.665 50.593 4.931 Q51.31 5.196 52.182 5.196 H81.41 Q84.951 5.196 87.551 2.656 Q90.153 0.115 90.153 -3.605 V-24.605 Q90.153 -26.057 89.132 -27.06 Q88.114 -28.061 86.608 -28.061 H76.745 V-35.057 V-42.054 H86.63 Q93.94 -42.054 99.058 -36.951 Q104.174 -31.85 104.174 -24.605 V-3.605 Q104.174 5.94 97.481 12.564 Q90.79 19.189 81.41 19.189 H52.19 Z M55.821 -28.061 V-62.317 Q55.821 -65.12 57.814 -67.177 Q59.806 -69.235 62.752 -69.235 Q65.699 -69.235 67.77 -67.177 Q69.843 -65.12 69.843 -62.317 V-28.061 H55.821 Z M14.236 -51.075 Q13.986 -52.48 13.909 -53.98 Q13.831 -55.48 13.831 -57.021 Q13.831 -73.037 25.57 -84.357 Q37.309 -95.679 54.161 -95.679 Q70.843 -95.679 82.629 -84.364 Q94.416 -73.049 94.416 -57.01 Q94.416 -55.635 94.229 -53.62 Q94.041 -51.605 94.041 -51.605 L80.019 -53.165 Q80.019 -53.165 80.206 -54.619 Q80.394 -56.072 80.394 -57.044 Q80.394 -67.301 72.725 -74.494 Q65.056 -81.686 54.194 -81.686 Q43.169 -81.686 35.511 -74.494 Q27.854 -67.301 27.854 -57.021 Q27.854 -56.04 27.854 -55.101 Q27.854 -54.162 28.104 -53.225 L14.236 -51.075 Z"/></g><g id="Regular-M" transform="matrix(1 0 0 1 1394.06 1126)"><path d="M52.25 18.77 Q48.244 18.77 44.809 17.208 Q41.375 15.645 39 12.52 L9.5 -25.105 L13.581 -29.186 Q16.25 -31.855 20.062 -32.355 Q23.875 -32.855 27.125 -30.855 L35.375 -25.73 V-53.605 Q35.375 -56.23 37.241 -58.167 Q39.108 -60.105 41.866 -60.105 Q44.625 -60.105 46.562 -58.167 Q48.5 -56.23 48.5 -53.605 V-2.23 L39.875 -7.48 L49.125 4.27 Q49.608 5.056 50.429 5.35 Q51.25 5.645 52.25 5.645 H81.5 Q85.25 5.645 88 2.986 Q90.75 0.326 90.75 -3.605 V-24.605 Q90.75 -26.251 89.59 -27.366 Q88.43 -28.48 86.714 -28.48 H76.625 V-35.042 V-41.605 H86.75 Q93.885 -41.605 98.88 -36.646 Q103.875 -31.689 103.875 -24.605 V-3.605 Q103.875 5.765 97.302 12.268 Q90.73 18.77 81.5 18.77 H52.25 Z M56 -28.48 V-62.855 Q56 -65.48 57.866 -67.417 Q59.733 -69.355 62.491 -69.355 Q65.25 -69.355 67.188 -67.417 Q69.125 -65.48 69.125 -62.855 V-28.48 H56 Z M14.625 -51.105 Q14.375 -52.48 14.312 -53.98 Q14.25 -55.48 14.25 -56.982 Q14.25 -72.827 25.75 -84.029 Q37.249 -95.23 53.758 -95.23 Q70.125 -95.23 81.688 -84.029 Q93.25 -72.826 93.25 -56.98 Q93.25 -55.605 93.062 -53.605 Q92.875 -51.605 92.875 -51.605 L79.75 -53.105 Q79.75 -53.105 79.938 -54.555 Q80.125 -56.005 80.125 -57.014 Q80.125 -67.48 72.426 -74.792 Q64.728 -82.105 53.805 -82.105 Q42.75 -82.105 35.062 -74.792 Q27.375 -67.48 27.375 -56.991 Q27.375 -55.98 27.375 -55.021 Q27.375 -54.064 27.625 -53.105 L14.625 -51.105 Z"/></g><g id="Light-M" transform="matrix(1 0 0 1 1098.18 1126)"><path d="M52.154 16.27 Q48.532 16.27 45.362 14.828 Q42.193 13.385 40.057 10.5 L11.953 -25.394 L15.216 -28.657 Q17.596 -31.037 20.927 -31.465 Q24.26 -31.894 27.125 -30.134 L36.769 -24.095 V-53.124 Q36.769 -55.172 38.276 -56.774 Q39.782 -58.374 42.01 -58.374 Q44.193 -58.374 45.794 -56.774 Q47.394 -55.172 47.394 -53.124 V-5.115 L35.644 -12.192 L48.26 3.885 Q48.886 4.815 49.913 5.23 Q50.938 5.645 52.154 5.645 H80.635 Q84.769 5.645 87.76 2.736 Q90.75 -0.171 90.75 -4.47 V-24.941 Q90.75 -26.997 89.314 -28.387 Q87.876 -29.779 85.752 -29.779 H76.865 V-35.09 V-40.402 H85.789 Q92.251 -40.402 96.812 -35.877 Q101.375 -31.351 101.375 -24.941 V-4.47 Q101.375 4.215 95.282 10.243 Q89.19 16.27 80.635 16.27 H52.154 Z M56.818 -29.779 V-62.181 Q56.818 -64.23 58.324 -65.831 Q59.831 -67.431 62.059 -67.431 Q64.24 -67.431 65.841 -65.831 Q67.442 -64.23 67.442 -62.181 V-29.779 H56.818 Z M16.549 -50.961 Q16.346 -52.24 16.26 -53.644 Q16.174 -55.047 16.174 -56.501 Q16.174 -71.51 27.071 -82.12 Q37.97 -92.73 53.657 -92.73 Q69.211 -92.73 80.149 -82.12 Q91.086 -71.509 91.086 -56.499 Q91.086 -55.269 90.899 -53.34 Q90.711 -51.412 90.711 -51.412 L80.135 -52.624 Q80.135 -52.624 80.297 -54.074 Q80.461 -55.525 80.461 -56.534 Q80.461 -67.199 72.634 -74.651 Q64.806 -82.105 53.701 -82.105 Q42.461 -82.105 34.63 -74.657 Q26.797 -67.21 26.797 -56.529 Q26.797 -55.499 26.797 -54.541 Q26.797 -53.582 27.047 -52.624 L16.549 -50.961 Z"/></g><g id="Thin-M" transform="matrix(1 0 0 1 802.565 1126)"><path d="M52.057 13.77 Q48.82 13.77 45.915 12.448 Q43.01 11.126 41.115 8.481 L14.404 -25.682 L16.85 -28.129 Q18.942 -30.22 21.794 -30.576 Q24.644 -30.932 27.125 -29.412 L38.164 -22.461 V-52.644 Q38.164 -54.115 39.311 -55.379 Q40.459 -56.644 42.155 -56.644 Q43.76 -56.644 45.024 -55.379 Q46.289 -54.115 46.289 -52.644 V-7.999 L31.414 -16.902 L47.394 3.501 Q48.166 4.575 49.395 5.11 Q50.625 5.645 52.057 5.645 H79.769 Q84.289 5.645 87.519 2.488 Q90.75 -0.669 90.75 -5.336 V-25.277 Q90.75 -27.742 89.036 -29.409 Q87.324 -31.076 84.791 -31.076 H77.106 V-35.139 V-39.201 H84.828 Q90.616 -39.201 94.745 -35.109 Q98.875 -31.015 98.875 -25.277 V-5.336 Q98.875 2.665 93.263 8.218 Q87.65 13.77 79.769 13.77 H52.057 Z M57.635 -31.076 V-61.509 Q57.635 -62.98 58.782 -64.245 Q59.93 -65.509 61.626 -65.509 Q63.231 -65.509 64.495 -64.245 Q65.76 -62.98 65.76 -61.509 V-31.076 H57.635 Z M18.471 -50.816 Q18.317 -51.999 18.206 -53.307 Q18.096 -54.615 18.096 -56.021 Q18.096 -70.194 28.394 -80.211 Q38.691 -90.23 53.559 -90.23 Q68.297 -90.23 78.61 -80.211 Q88.922 -70.191 88.922 -56.019 Q88.922 -54.932 88.735 -53.076 Q88.547 -51.22 88.547 -51.22 L80.519 -52.144 Q80.519 -52.144 80.659 -53.594 Q80.797 -55.044 80.797 -56.052 Q80.797 -66.917 72.841 -74.511 Q64.886 -82.105 53.597 -82.105 Q42.172 -82.105 34.197 -74.522 Q26.221 -66.939 26.221 -56.066 Q26.221 -55.019 26.221 -54.06 Q26.221 -53.101 26.471 -52.144 L18.471 -50.816 Z"/></g><g id="Ultralight-M" transform="matrix(1 0 0 1 506.415 1126)"><path d="M52 12.27 Q48.994 12.27 46.246 11.02 Q43.5 9.77 41.75 7.27 L15.875 -25.855 L17.831 -27.811 Q19.75 -29.73 22.312 -30.042 Q24.875 -30.355 27.125 -28.98 L39 -21.48 V-52.355 Q39 -53.48 39.931 -54.542 Q40.864 -55.605 42.241 -55.605 Q43.5 -55.605 44.562 -54.542 Q45.625 -53.48 45.625 -52.355 V-9.73 L28.875 -19.73 L46.875 3.27 Q47.733 4.431 49.085 5.038 Q50.438 5.645 52 5.645 H79.25 Q84 5.645 87.375 2.339 Q90.75 -0.967 90.75 -5.855 V-25.48 Q90.75 -28.189 88.871 -30.022 Q86.993 -31.855 84.214 -31.855 H77.25 V-35.167 V-38.48 H84.25 Q89.635 -38.48 93.505 -34.646 Q97.375 -30.814 97.375 -25.48 V-5.855 Q97.375 1.735 92.051 7.003 Q86.726 12.27 79.25 12.27 H52 Z M58.125 -31.855 V-61.105 Q58.125 -62.23 59.056 -63.292 Q59.989 -64.355 61.366 -64.355 Q62.625 -64.355 63.688 -63.292 Q64.75 -62.23 64.75 -61.105 V-31.855 H58.125 Z M19.625 -50.73 Q19.5 -51.855 19.375 -53.105 Q19.25 -54.355 19.25 -55.732 Q19.25 -69.402 29.188 -79.066 Q39.124 -88.73 53.499 -88.73 Q67.75 -88.73 77.688 -79.066 Q87.625 -69.401 87.625 -55.73 Q87.625 -54.73 87.438 -52.917 Q87.25 -51.105 87.25 -51.105 L80.75 -51.855 Q80.75 -51.855 80.875 -53.305 Q81 -54.755 81 -55.764 Q81 -66.749 72.966 -74.427 Q64.933 -82.105 53.535 -82.105 Q42 -82.105 33.938 -74.441 Q25.875 -66.777 25.875 -55.789 Q25.875 -54.73 25.875 -53.771 Q25.875 -52.814 26.125 -51.855 L19.625 -50.73 Z"/></g><g id="Bold-S" transform="matrix(1 0 0 1 2294.23 696)"><path d="M45.055 7.179 Q42.305 7.179 39.842 5.995 Q37.379 4.812 35.604 2.741 L10.454 -26.847 L15.387 -31.918 Q17.654 -34.046 20.465 -34.392 Q23.276 -34.737 25.938 -33.553 L29.883 -32.468 V-49.925 Q29.883 -52.457 31.655 -54.298 Q33.426 -56.138 36.044 -56.138 Q38.76 -56.138 40.584 -54.3 Q42.409 -52.461 42.409 -49.931 V-16.393 L34.124 -17.675 L45.172 -5.295 Q45.252 -5.325 45.169 -5.286 Q45.086 -5.248 45.045 -5.248 H62.43 Q64.372 -5.248 65.816 -6.758 Q67.262 -8.269 67.262 -10.278 V-27.636 Q67.262 -27.624 67.266 -27.679 Q67.27 -27.734 67.276 -27.734 H62.824 V-33.948 V-40.161 H67.262 Q72.481 -40.161 76.135 -36.467 Q79.788 -32.772 79.788 -27.636 V-10.278 Q79.788 -2.968 74.701 2.105 Q69.613 7.179 62.43 7.179 H45.055 Z M45.17 -27.734 V-55.054 Q45.17 -57.544 46.942 -59.357 Q48.712 -61.168 51.33 -61.168 Q53.948 -61.168 55.822 -59.357 Q57.696 -57.544 57.696 -55.054 V-27.734 H45.17 Z M14.202 -50.122 Q14.103 -51.109 13.955 -52.193 Q13.808 -53.278 13.808 -54.49 Q13.808 -66.472 22.878 -74.866 Q31.95 -83.26 44.971 -83.26 Q57.794 -83.26 66.818 -74.887 Q75.843 -66.514 75.843 -54.458 Q75.843 -53.476 75.793 -52.391 Q75.744 -51.306 75.547 -50.418 L63.12 -51.898 Q63.219 -52.588 63.268 -53.252 Q63.317 -53.915 63.317 -54.507 Q63.317 -61.248 57.93 -66.041 Q52.544 -70.834 44.959 -70.834 Q37.182 -70.834 31.757 -66.036 Q26.333 -61.237 26.333 -54.471 Q26.333 -53.771 26.382 -53.229 Q26.431 -52.687 26.53 -52.095 L14.202 -50.122 Z"/></g><g id="Semibold-S" transform="matrix(1 0 0 1 1998.1 696)"><path d="M45.141 6.578 Q42.519 6.578 40.163 5.46 Q37.808 4.34 36.118 2.355 L11.269 -26.804 L15.801 -31.457 Q17.868 -33.446 20.465 -33.77 Q23.061 -34.094 25.553 -32.996 L30.57 -31.311 V-50.697 Q30.57 -52.956 32.159 -54.612 Q33.748 -56.267 36.099 -56.267 Q38.502 -56.267 40.155 -54.614 Q41.808 -52.96 41.808 -50.703 V-15.835 L33.181 -17.846 L44.7 -4.846 Q44.867 -4.765 44.935 -4.685 Q45.001 -4.605 45.143 -4.605 H62.558 Q64.801 -4.605 66.46 -6.285 Q68.12 -7.965 68.12 -10.278 V-27.636 Q68.12 -27.902 67.921 -28.118 Q67.723 -28.335 67.43 -28.335 H62.653 V-33.926 V-39.518 H67.434 Q72.403 -39.518 75.881 -36.029 Q79.359 -32.54 79.359 -27.636 V-10.278 Q79.359 -3.219 74.443 1.679 Q69.528 6.578 62.558 6.578 H45.141 Z M45.428 -28.335 V-55.826 Q45.428 -58.061 47.017 -59.7 Q48.606 -61.34 50.956 -61.34 Q53.305 -61.34 54.985 -59.7 Q56.667 -58.061 56.667 -55.826 V-28.335 H45.428 Z M14.759 -50.165 Q14.661 -51.109 14.534 -52.193 Q14.408 -53.278 14.408 -54.434 Q14.408 -66.173 23.135 -74.395 Q31.863 -82.617 44.392 -82.617 Q56.766 -82.617 65.468 -74.406 Q74.17 -66.195 74.17 -54.416 Q74.17 -53.433 74.121 -52.369 Q74.071 -51.306 73.874 -50.418 L62.734 -51.812 Q62.833 -52.502 62.882 -53.16 Q62.932 -53.819 62.932 -54.465 Q62.932 -61.506 57.502 -66.469 Q52.073 -71.434 44.402 -71.434 Q36.581 -71.434 31.114 -66.465 Q25.646 -61.495 25.646 -54.427 Q25.646 -53.686 25.696 -53.115 Q25.745 -52.544 25.844 -51.923 L14.759 -50.165 Z"/></g><g id="Medium-S" transform="matrix(1 0 0 1 1701.85 696)"><path d="M45.205 6.128 Q42.68 6.128 40.405 5.057 Q38.129 3.986 36.504 2.065 L11.88 -26.772 L16.11 -31.11 Q18.029 -32.996 20.465 -33.304 Q22.901 -33.612 25.263 -32.578 L31.084 -30.443 V-51.276 Q31.084 -53.33 32.537 -54.847 Q33.99 -56.363 36.138 -56.363 Q38.309 -56.363 39.834 -54.848 Q41.358 -53.334 41.358 -51.282 V-15.417 L32.473 -17.975 L44.345 -4.509 Q44.579 -4.345 44.758 -4.233 Q44.937 -4.123 45.216 -4.123 H62.654 Q65.123 -4.123 66.943 -5.929 Q68.763 -7.737 68.763 -10.278 V-27.636 Q68.763 -28.111 68.412 -28.449 Q68.062 -28.785 67.544 -28.785 H62.524 V-33.91 V-39.036 H67.562 Q72.343 -39.036 75.691 -35.7 Q79.037 -32.366 79.037 -27.636 V-10.278 Q79.037 -3.408 74.25 1.36 Q69.464 6.128 62.654 6.128 H45.205 Z M45.621 -28.785 V-56.405 Q45.621 -58.448 47.074 -59.958 Q48.526 -61.468 50.675 -61.468 Q52.823 -61.468 54.358 -59.958 Q55.895 -58.448 55.895 -56.405 V-28.785 H45.621 Z M15.177 -50.197 Q15.079 -51.109 14.968 -52.193 Q14.858 -53.278 14.858 -54.392 Q14.858 -65.948 23.329 -74.041 Q31.799 -82.135 43.958 -82.135 Q55.993 -82.135 64.454 -74.046 Q72.916 -65.957 72.916 -54.383 Q72.916 -53.401 72.867 -52.353 Q72.818 -51.306 72.621 -50.418 L62.444 -51.748 Q62.543 -52.438 62.592 -53.092 Q62.642 -53.746 62.642 -54.432 Q62.642 -61.699 57.181 -66.791 Q51.719 -71.884 43.984 -71.884 Q36.131 -71.884 30.632 -66.786 Q25.133 -61.688 25.133 -54.396 Q25.133 -53.622 25.182 -53.029 Q25.231 -52.436 25.33 -51.795 L15.177 -50.197 Z"/></g><g id="Regular-S" transform="matrix(1 0 0 1 1405.73 696)"><path d="M45.252 5.798 Q42.798 5.798 40.581 4.762 Q38.365 3.727 36.787 1.853 L12.328 -26.748 L16.337 -30.856 Q18.147 -32.666 20.465 -32.962 Q22.782 -33.257 25.051 -32.271 L31.461 -29.806 V-51.7 Q31.461 -53.604 32.815 -55.019 Q34.168 -56.434 36.168 -56.434 Q38.168 -56.434 39.598 -55.021 Q41.028 -53.608 41.028 -51.706 V-15.11 L31.955 -18.069 L44.085 -4.262 Q44.367 -4.036 44.629 -3.903 Q44.889 -3.769 45.269 -3.769 H62.726 Q65.359 -3.769 67.297 -5.669 Q69.235 -7.571 69.235 -10.278 V-27.636 Q69.235 -28.265 68.773 -28.69 Q68.312 -29.115 67.628 -29.115 H62.43 V-33.899 V-38.682 H67.657 Q72.3 -38.682 75.551 -35.46 Q78.801 -32.239 78.801 -27.636 V-10.278 Q78.801 -3.546 74.109 1.126 Q69.416 5.798 62.726 5.798 H45.252 Z M45.762 -29.115 V-56.829 Q45.762 -58.732 47.115 -60.148 Q48.468 -61.563 50.468 -61.563 Q52.468 -61.563 53.899 -60.148 Q55.329 -58.732 55.329 -56.829 V-29.115 H45.762 Z M15.484 -50.221 Q15.386 -51.109 15.287 -52.193 Q15.188 -53.278 15.188 -54.361 Q15.188 -65.782 23.47 -73.782 Q31.751 -81.781 43.64 -81.781 Q55.427 -81.781 63.712 -73.782 Q71.996 -65.781 71.996 -54.359 Q71.996 -53.377 71.947 -52.341 Q71.898 -51.306 71.7 -50.418 L62.232 -51.7 Q62.331 -52.391 62.38 -53.042 Q62.43 -53.693 62.43 -54.409 Q62.43 -61.84 56.944 -67.028 Q51.46 -72.214 43.677 -72.214 Q35.801 -72.214 30.278 -67.022 Q24.755 -61.829 24.755 -54.372 Q24.755 -53.574 24.804 -52.966 Q24.854 -52.358 24.952 -51.7 L15.484 -50.221 Z"/></g><g id="Light-S" transform="matrix(1 0 0 1 1109.75 696)"><path d="M45.176 3.826 Q43.026 3.826 41.018 2.885 Q39.01 1.944 37.621 0.259 L14.263 -26.976 L17.627 -30.439 Q19.209 -32.021 21.147 -32.259 Q23.086 -32.499 25.051 -31.702 L32.561 -28.516 V-51.321 Q32.561 -52.769 33.631 -53.919 Q34.7 -55.068 36.281 -55.068 Q37.827 -55.068 38.991 -53.92 Q40.155 -52.773 40.155 -51.328 V-17.387 L28.616 -21.787 L43.403 -4.566 Q43.798 -4.226 44.22 -3.997 Q44.643 -3.769 45.193 -3.769 H62.043 Q64.979 -3.769 67.107 -5.866 Q69.235 -7.963 69.235 -10.96 V-27.901 Q69.235 -28.853 68.555 -29.496 Q67.875 -30.14 66.87 -30.14 H62.619 V-33.936 V-37.733 H66.898 Q71.011 -37.733 73.919 -34.853 Q76.829 -31.972 76.829 -27.901 V-10.96 Q76.829 -4.769 72.515 -0.472 Q68.201 3.826 62.043 3.826 H45.176 Z M46.407 -30.14 V-56.297 Q46.407 -57.746 47.476 -58.896 Q48.546 -60.045 50.127 -60.045 Q51.672 -60.045 52.836 -58.896 Q54.001 -57.746 54.001 -56.297 V-30.14 H46.407 Z M17.002 -50.108 Q16.941 -50.919 16.823 -51.928 Q16.706 -52.937 16.706 -53.982 Q16.706 -64.743 24.513 -72.276 Q32.32 -79.808 43.562 -79.808 Q54.706 -79.808 62.498 -72.276 Q70.289 -64.742 70.289 -53.98 Q70.289 -53.112 70.24 -52.132 Q70.19 -51.154 69.993 -50.266 L62.536 -51.321 Q62.635 -52.011 62.664 -52.662 Q62.695 -53.314 62.695 -54.03 Q62.695 -61.618 57.109 -66.916 Q51.522 -72.214 43.595 -72.214 Q35.573 -72.214 29.937 -66.915 Q24.299 -61.616 24.299 -54.007 Q24.299 -53.195 24.349 -52.587 Q24.398 -51.978 24.496 -51.321 L17.002 -50.108 Z"/></g><g id="Thin-S" transform="matrix(1 0 0 1 814.015 696)"><path d="M45.1 1.853 Q43.253 1.853 41.454 1.007 Q39.655 0.162 38.456 -1.334 L16.197 -27.204 L18.916 -30.022 Q20.271 -31.376 21.831 -31.558 Q23.389 -31.741 25.051 -31.133 L33.662 -27.227 V-50.942 Q33.662 -51.935 34.448 -52.819 Q35.234 -53.703 36.396 -53.703 Q37.485 -53.703 38.384 -52.821 Q39.283 -51.938 39.283 -50.948 V-19.662 L25.279 -25.504 L42.719 -4.868 Q43.23 -4.416 43.813 -4.092 Q44.396 -3.769 45.117 -3.769 H61.36 Q64.6 -3.769 66.917 -6.063 Q69.235 -8.356 69.235 -11.644 V-28.166 Q69.235 -29.441 68.336 -30.302 Q67.439 -31.164 66.111 -31.164 H62.809 V-33.975 V-36.785 H66.14 Q69.721 -36.785 72.288 -34.247 Q74.856 -31.707 74.856 -28.166 V-11.644 Q74.856 -5.992 70.921 -2.069 Q66.986 1.853 61.36 1.853 H45.1 Z M47.052 -31.164 V-55.767 Q47.052 -56.76 47.838 -57.645 Q48.624 -58.528 49.786 -58.528 Q50.876 -58.528 51.774 -57.645 Q52.674 -56.76 52.674 -55.767 V-31.164 H47.052 Z M18.519 -49.993 Q18.496 -50.729 18.359 -51.663 Q18.223 -52.596 18.223 -53.603 Q18.223 -63.704 25.556 -70.77 Q32.889 -77.836 43.483 -77.836 Q53.985 -77.836 61.284 -70.77 Q68.582 -63.702 68.582 -53.601 Q68.582 -52.846 68.533 -51.924 Q68.483 -51.002 68.286 -50.114 L62.839 -50.942 Q62.938 -51.632 62.949 -52.283 Q62.96 -52.934 62.96 -53.65 Q62.96 -61.396 57.273 -66.806 Q51.584 -72.214 43.513 -72.214 Q35.345 -72.214 29.595 -66.809 Q23.845 -61.402 23.845 -53.642 Q23.845 -52.816 23.894 -52.207 Q23.943 -51.599 24.042 -50.942 L18.519 -49.993 Z"/></g><g id="Ultralight-S" transform="matrix(1 0 0 1 517.792 696)"><path d="M45.055 0.67 Q43.39 0.67 41.715 -0.119 Q40.042 -0.908 38.957 -2.289 L17.358 -27.34 L19.69 -29.771 Q20.909 -30.989 22.24 -31.137 Q23.571 -31.285 25.051 -30.792 L34.322 -26.452 V-50.714 Q34.322 -51.434 34.937 -52.159 Q35.553 -52.884 36.464 -52.884 Q37.28 -52.884 38.02 -52.161 Q38.76 -51.438 38.76 -50.72 V-21.028 L23.276 -27.734 L42.31 -5.051 Q42.888 -4.529 43.569 -4.149 Q44.248 -3.769 45.072 -3.769 H60.95 Q64.373 -3.769 66.804 -6.18 Q69.235 -8.591 69.235 -12.053 V-28.326 Q69.235 -29.794 68.206 -30.786 Q67.177 -31.778 65.656 -31.778 H62.923 V-33.997 V-36.216 H65.684 Q68.947 -36.216 71.31 -33.882 Q73.673 -31.548 73.673 -28.326 V-12.053 Q73.673 -6.725 69.966 -3.028 Q66.257 0.67 60.95 0.67 H45.055 Z M47.439 -31.778 V-55.448 Q47.439 -56.168 48.054 -56.893 Q48.67 -57.618 49.581 -57.618 Q50.397 -57.618 51.137 -56.893 Q51.877 -56.168 51.877 -55.448 V-31.778 H47.439 Z M19.429 -49.925 Q19.429 -50.615 19.281 -51.503 Q19.133 -52.391 19.133 -53.375 Q19.133 -63.08 26.182 -69.866 Q33.231 -76.652 43.435 -76.652 Q53.553 -76.652 60.556 -69.866 Q67.558 -63.079 67.558 -53.373 Q67.558 -52.687 67.509 -51.799 Q67.46 -50.911 67.262 -50.024 L63.021 -50.714 Q63.12 -51.404 63.12 -52.055 Q63.12 -52.706 63.12 -53.422 Q63.12 -61.263 57.371 -66.739 Q51.621 -72.214 43.464 -72.214 Q35.209 -72.214 29.39 -66.745 Q23.571 -61.275 23.571 -53.423 Q23.571 -52.588 23.621 -51.979 Q23.67 -51.372 23.769 -50.714 L19.429 -49.925 Z"/></g></g></svg>