<svg xmlns="http://www.w3.org/2000/svg" height="40" viewBox="0 -960 960 960" width="40"><path d="M113.33-143.25q-17.66 0-29.95-12.32t-12.29-30.04q0-17.72 12.29-30.09 12.29-12.36 29.95-12.36h733.34q17.66 0 30.12 12.48 12.45 12.49 12.45 30.2 0 17.72-12.45 29.92-12.46 12.21-30.12 12.21H113.33Zm174.29-248.13h384.76q-21.76-61.77-73.55-99.67-51.79-37.9-118.83-37.9-67.04 0-118.83 37.9-51.79 37.9-73.55 99.67Zm-96.53 80.29q.34-123.37 83.88-210.76 83.54-87.39 205.03-87.39t205.03 87.39q83.54 87.39 84.21 210.76H191.09ZM480-391.38Z"/></svg>