<svg xmlns="http://www.w3.org/2000/svg" height="24" viewBox="0 -960 960 960" width="24"><path d="M120-172.12q-11.65 0-19.77-8.11-8.11-8.12-8.11-19.77t8.11-19.86q8.12-8.22 19.77-8.22h720q11.65 0 19.86 8.22 8.22 8.21 8.22 19.86 0 11.65-8.22 19.77-8.21 8.11-19.86 8.11H120Zm173.77-225.96h372.46q-23.81-55.61-73.96-89.82-50.15-34.22-112.27-34.22T367.73-487.9q-50.15 34.21-73.96 89.82Zm-69.35 55.96q7.54-100.69 80.83-168.32 73.29-67.64 174.75-67.64t174.75 67.64q73.29 67.63 81.02 168.32H224.42ZM480-398.08Z"/></svg>