<svg xmlns="http://www.w3.org/2000/svg" height="48" viewBox="0 -960 960 960" width="48"><path d="M110-141.96q-16.81 0-28.95-12.07T68.91-183.2q0-17.1 12.14-29.52 12.14-12.41 28.95-12.41h740q17.23 0 29.66 12.59t12.43 29.69q0 17.1-12.43 29-12.43 11.89-29.66 11.89H110Zm172.96-246.17h395.08q-20-64.44-73.96-104.59-53.96-40.15-123.89-40.15t-124.08 40.15q-54.15 40.15-73.15 104.59Zm-94.05 79.22q0-125.01 83.26-214.09 83.26-89.09 207.83-89.09 123.2 0 207.64 89.09 84.45 89.08 84.45 214.09H188.91ZM480-388.13Z"/></svg>