<svg xmlns="http://www.w3.org/2000/svg" height="40" viewBox="0 -960 960 960" width="40"><path d="M115.13-149.21q-13.72 0-23.59-9.9-9.87-9.91-9.87-23.67 0-13.76 9.87-23.89 9.87-10.12 23.59-10.12h729.74q14 0 24.06 10.25Q879-196.3 879-182.53q0 13.76-10.07 23.54-10.06 9.78-24.06 9.78H115.13Zm182-250.05h366.41q-22.1-54.84-71.34-88.5-49.23-33.65-112.07-33.65-62.85 0-112.21 33.65-49.36 33.66-70.79 88.5Zm-83.15 67.59q6.92-109 80.42-183.16Q367.9-589 480-589q106.43 0 183.1 74.17 76.67 74.16 83.59 183.16H213.98ZM480-399.26Z"/></svg>