<svg xmlns="http://www.w3.org/2000/svg" height="20" viewBox="0 -960 960 960" width="20"><path d="M132-165.73q-6.11 0-10.19-4.02-4.08-4.02-4.08-10.04t4.08-10.44q4.08-4.42 10.19-4.42h696q6.11 0 10.38 4.21 4.27 4.21 4.27 10.23 0 6.02-4.27 10.25T828-165.73H132Zm141.54-192.92h412.92q-22.61-65.23-78.67-106.16-56.06-40.92-127.79-40.92t-127.79 40.92q-56.06 40.93-78.67 106.16Zm-35.19 28.92q14.07-88.89 82.41-146.9 68.33-58.02 159-58.02 90.66 0 159.24 57.84 68.58 57.85 83.04 147.08H238.35ZM480-358.65Z"/></svg>