<svg xmlns="http://www.w3.org/2000/svg" height="40" viewBox="0 -960 960 960" width="40"><path d="M115.13-176.32q-10.25 0-16.97-6.75-6.71-6.75-6.71-17.05t6.71-17.19q6.72-6.89 16.97-6.89h729.74q10.25 0 17.23 7.01t6.98 17.31q0 10.3-6.98 16.93-6.98 6.63-17.23 6.63H115.13ZM280.9-389.33h398.2q-21.57-63.46-75.56-102.66-53.99-39.2-123.54-39.2-69.55 0-123.54 39.2-53.99 39.2-75.56 102.66Zm-57.14 47.88q6.87-101.02 80.66-169.33 73.79-68.3 175.58-68.3t175.58 68.3q73.79 68.31 81.19 169.33H223.76ZM480-389.33Z"/></svg>