<svg xmlns="http://www.w3.org/2000/svg" height="24" viewBox="0 -960 960 960" width="24"><path d="M120-149.59q-17.65 0-30.33-12.67Q77-174.93 77-192.59q0-17.65 12.67-30.32 12.68-12.68 30.33-12.68h720q17.65 0 30.33 12.68Q883-210.24 883-192.59q0 17.66-12.67 30.33-12.68 12.67-30.33 12.67H120Zm179.46-251.02h361.08q-24.47-53.61-72.57-86.19-48.1-32.59-107.97-32.59T372.03-486.8q-48.1 32.58-72.57 86.19ZM197-317q1-119.33 82.82-202.66Q361.63-603 480-603t200.18 83.34Q762-436.33 763-317H197Zm283-83.61Z"/></svg>