<svg xmlns="http://www.w3.org/2000/svg" height="20" viewBox="0 -960 960 960" width="20"><path d="M132-115.98q-18.89 0-32.69-13.74-13.81-13.75-13.81-32.55 0-18.79 13.81-32.75 13.8-13.96 32.69-13.96h696q18.89 0 32.69 13.75 13.81 13.74 13.81 32.54 0 18.8-13.81 32.76-13.8 13.95-32.69 13.95H132Zm155.26-248.87h385.48q-24.13-60.35-75.29-97.32-51.17-36.98-117.45-36.98t-117.45 36.98q-51.16 36.97-75.29 97.32ZM181.5-277.5q1-127.54 86.87-218.27 85.86-90.73 211.39-90.73 125.52 0 211.63 90.56 86.11 90.55 87.11 218.44h-597ZM480-364.85Z"/></svg>