<svg xmlns="http://www.w3.org/2000/svg" height="20" viewBox="0 -960 960 960" width="20"><path d="M424.77-136 194.23-401.62 230.62-440l127.69 54.15v-282.46h32v315.16l-171-77.23L438.77-168H696v-284.77h-92.15v-32H728V-136H424.77Zm44.31-316.77v-260.46h32v260.46h-32ZM213.77-618.69q-1.23-7.46-2.12-15.93-.88-8.46-.88-17.65 0-91.65 63.86-155.69Q338.49-872 430.83-872q91.55 0 155.05 64.04 63.5 64.04 63.5 155.69 0 7.65-.5 15.5t-2.5 16.85l-30.23-5.39q1-7 1.12-13.5.11-6.5.11-13.69 0-77.81-54.58-132.66Q508.21-840 430.76-840q-78.38 0-133.18 54.81-54.81 54.82-54.81 132.59 0 8.29.5 14.79t1.5 13.5l-31 5.62Zm244.38 293.92Z"/></svg>