<svg xmlns="http://www.w3.org/2000/svg" height="20" viewBox="0 -960 960 960" width="20"><path d="M397.81-50 106-395l95-99 102 42v-240h127v403l-84-13 114 126h222v-228h-45v-126h172v480H397.81ZM458-404v-339h127v339H458ZM144-631q-1-10-2.5-21t-1.5-23.29q0-121.49 91.97-206.6Q323.95-967 455.98-967 586-967 677.5-882.1T769-674.96q0 9.96-.5 20.96t-2.5 20l-126-15q1-7 1.5-13.73t.5-12.73q0-68.35-54.62-116.95Q532.77-841 455.86-841 377-841 322-792.35q-55 48.65-55 117.26 0 7.09.5 12.59T269-651l-125 20Zm371 303Z"/></svg>