<svg xmlns="http://www.w3.org/2000/svg" height="48" viewBox="0 -960 960 960" width="48"><path d="M360.07-83.39 111.23-400.46 165-454.23l140.39 86.77v-293h57.38v182.69h90v-254.38h58.38v254.38h284.23v394.38H360.07ZM143.61-603.08q-2.07-9.23-2.76-19.59t-.69-21.59q0-114.11 81.5-195.23 81.51-81.12 199.73-81.12 117.2 0 199.02 81.12 81.82 81.11 81.82 195.21 0 8.74-1.5 23.16l-1.5 14.43-57-5.46 1.31-12.36q1.31-12.36 1.31-20.26 0-90.25-65.76-154.35-65.75-64.11-157.45-64.11-93.87 0-158.49 64.13-64.61 64.13-64.61 154.41v16.9q0 8.07 2.61 15.64l-57.54 9.07Z"/></svg>