<svg xmlns="http://www.w3.org/2000/svg" height="48" viewBox="0 -960 960 960" width="48"><path d="M352.99-61.8 89.61-397.24l65.87-66.11 137.37 85.05v-293.22h76.3v194.28h76.42v-268.04h77.54v268.04h292.61V-61.8H352.99ZM125.74-604.52q-2.17-10.24-2.67-21.12t-.5-22.6q0-121.67 87.23-207.81 87.24-86.15 213.14-86.15 125 0 212.66 86.06 87.66 86.05 87.66 207.87 0 9.75-1.5 24.75l-1.5 15-76.3-7.24 1.5-12.59q1.5-12.59 1.5-20.41 0-89.51-66.03-153.32-66.03-63.81-157.68-63.81-94.05 0-158.72 63.87-64.66 63.87-64.66 153.46v16.65q0 8.08 3 15.67l-77.13 11.72Z"/></svg>