<svg xmlns="http://www.w3.org/2000/svg" height="40" viewBox="0 -960 960 960" width="40"><path d="M349.55-58 82.33-399.67l79.67-82 121.83 78.34v-264.5h100.34v412.16L280.33-309l119.5 150.67H716v-270H598.5v-101H817V-58H349.55Zm91.28-370.33V-740.5h101v312.17h-101ZM121.91-602.5q-1.08-10.5-2.16-21.5t-1.08-23.84q0-124.26 91.76-211.79 91.76-87.54 223.49-87.54 130.67 0 222.13 87.62Q747.5-771.94 747.5-648q0 10.33-1.5 26l-1.5 15.67-100.17-10.17 1.42-11.89q1.42-11.89 1.42-19.7 0-81-62.61-139.54-62.62-58.54-151.17-58.54-88.94 0-151.66 58.61Q219-728.95 219-647.83q0 8.5.42 15.8.41 7.31 2.25 14.36l-99.76 15.17ZM498.67-320Z"/></svg>