<svg xmlns="http://www.w3.org/2000/svg" height="24" viewBox="0 -960 960 960" width="24"><path d="M358.6-81.87 107.15-403.76l69.46-70.17 121.67 75.56v-275.17h85.76v193.04h55.22v-262.52h85.76v262.52h271.91v398.63H358.6ZM144.07-595.93q-2.27-10.5-2.75-21.24-.49-10.74-.49-22.22 0-116 82.78-197.84t201.43-81.84q117.71 0 200.6 81.96 82.88 81.96 82.88 197.72 0 10-1.5 24.86l-1.5 14.86-85.26-9.46 1.25-11.23q1.25-11.23 1.25-19.12 0-80.24-57.69-137.03-57.69-56.79-139.86-56.79-82.91 0-140.76 56.84-57.86 56.84-57.86 137.16 0 7.91.25 15.42t1.75 14.77l-84.52 13.18Z"/></svg>