<svg xmlns="http://www.w3.org/2000/svg" height="20" viewBox="0 -960 960 960" width="20"><path d="M410.91-87.87 146.15-396.76l67.46-70.17 116.17 46.56v-274.67h82.76v389.47l-114.78-41.3 152.63 176.24h241.78V-426.5h-86.43v-82.76h169.19v421.39H410.91Zm44.85-338.63v-317.02h82.76v317.02h-82.76ZM176.07-622.43q-1.77-9-2.5-19.24-.74-10.24-.74-20.68 0-108.15 76.91-183.68 76.92-75.54 187.35-75.54 109.48 0 186.2 75.61 76.73 75.6 76.73 183.61 0 9.96-.5 19.32t-2.5 18.36l-81.76-10.96q1-7 1.5-13.41t.5-13.54q0-72.95-52.65-124.59-52.64-51.63-127.64-51.63-75.67 0-128.52 51.69-52.86 51.69-52.86 124.72 0 8 .5 14.26t1.5 13.02l-81.52 12.68Zm319.52 297Z"/></svg>