<svg xmlns="http://www.w3.org/2000/svg" height="40" viewBox="0 -960 960 960" width="40"><path d="m347.33-51.33-271.66-347 81.66-84L280.67-404v-267.33h103.66v192.66H441v-266h104.33v266h278.34v427.34H347.33Zm-230.75-552q-1.25-11-2.25-22.34-1-11.33-1-24.07 0-126.3 93.29-215.28Q299.9-954 433-954q133.41 0 226.37 89.24 92.96 89.25 92.96 214.76 0 11-1.5 26.67l-1.5 15.66L645.67-618l1.5-11.91q1.5-11.92 1.5-20.09 0-82.09-63.04-140.88-63.04-58.79-152.91-58.79-89.27 0-152.49 58.82Q217-732.04 217-649.92q0 8.59.33 16.14.34 7.56 2.34 14.78l-103.09 15.67Z"/></svg>