<svg xmlns="http://www.w3.org/2000/svg" height="20" viewBox="0 -960 960 960" width="20"><path d="M401.44-56.09 114.26-394.57l87.17-90.3 108.53 44.61V-693.3h113.95v214.73h36.7v-266.17h113.96v266.17h230.08v422.48H401.44ZM149.65-631.43q-1-9.57-2.28-20.57-1.28-11-1.28-22.72 0-119.02 88.54-202.39 88.55-83.37 215.2-83.37 125.74 0 213.98 83.38 88.23 83.37 88.23 202.57 0 9.96-.5 20.75-.5 10.78-2.5 19.78l-112.95-14.13q1-7 1.5-13.6t.5-13.3q0-71.39-55.05-121.72-55.05-50.34-132.83-50.34-79.3 0-134.73 50.39-55.44 50.39-55.44 122.05 0 7.52.5 13.31.5 5.79 1.5 12.08l-112.39 17.83Z"/></svg>