<svg xmlns="http://www.w3.org/2000/svg" height="20" viewBox="0 -960 960 960" width="20"><path d="M417.01-104 164.23-398.62 216.62-453l124.69 54.15v-268.46h57v188.54h78.77v-237.46h57v237.46H759V-104H417.01ZM187.77-629.69q-.23-7.46-1.62-16.93-1.38-9.46-1.38-19.67 0-102.42 74.35-174.06Q333.48-912 440.89-912q106.49 0 180.49 71.65 74 71.66 74 174.08 0 7.65-.5 17t-2.5 18.35l-55.23-8.39q1-7 1.12-13.6.11-6.6.11-13.86 0-78.54-57.67-133.39Q523.03-855 441.2-855q-82.82 0-141.12 54.81-58.31 54.82-58.31 133.5 0 8.38.5 14.55t1.5 12.83l-56 9.62Z"/></svg>