<svg xmlns="http://www.w3.org/2000/svg" height="24" viewBox="0 -960 960 960" width="24"><path d="M355.89-71.87 97.15-401.76l72.46-73.17 124.17 75.56v-279.67h90.76V-480h55.22v-269.52h90.76V-480h276.41v408.13H355.89ZM136.07-597.43q-2.77-11-3-22.24-.24-11.24-.24-22.72 0-119.11 84.96-203.14 84.97-84.04 206.75-84.04 121.03 0 206.25 84.16 85.23 84.15 85.23 203.02 0 11-1.5 25.86l-1.5 14.86-90.76-9.96 1.5-11.38q1.5-11.38 1.5-19.38 0-81.33-58.62-138.87-58.62-57.54-142.1-57.54-84.24 0-142.59 57.54-58.36 57.54-58.36 138.87v15.76q0 7.76 2 15.52l-89.52 13.68Z"/></svg>