<svg xmlns="http://www.w3.org/2000/svg" height="40" viewBox="0 -960 960 960" width="40"><path d="m374.04-133.67-215.37-274 31.5-31.5 140.66 87v-290H354V-311L182.17-414 384.5-156.83h338.67v-312h-138V-492h161.16v358.33H374.04ZM458-468.83V-708h23.17v239.17H458Zm-273.74-125q-1.76-8.5-2.68-17.56-.91-9.05-.91-18.85 0-97.28 68.7-166.85 68.7-69.58 168.21-69.58 98.44 0 167.18 69.6 68.74 69.59 68.74 166.9 0 8.34-1.5 21.09l-1.5 12.75L628-599l1.17-12.02q1.16-12.02 1.16-19.24 0-88.06-62.73-150.65T417.63-843.5q-89.63 0-151.71 62.55-62.09 62.55-62.09 150.59 0 8.69.42 16.77t1.58 15.9l-21.57 3.86ZM453-319.5Z"/></svg>