<svg xmlns="http://www.w3.org/2000/svg" height="24" viewBox="0 -960 960 960" width="24"><path d="m356.62-68-261-333.31L165.31-471l128.84 80.08v-274.23h85v186.77h75.39v-259.23h85v259.23H811V-68H356.62ZM132.39-605.85q-1.62-10.23-2.31-21.46t-.69-22.86q0-120.07 87.18-204.95Q303.76-940 429.26-940q124.43 0 211.93 84.88 87.5 84.89 87.5 204.97 0 9.84-1.5 25.27l-1.5 15.42-84.61-9.69 1.3-11.6q1.31-11.61 1.31-19.68 0-85.32-62.62-144.94Q518.45-855 429.61-855q-89.92 0-152.57 59.58-62.66 59.58-62.66 145.03v15.9q0 7.67 2 15.34l-83.99 13.3Z"/></svg>