<svg xmlns="http://www.w3.org/2000/svg" height="24" viewBox="0 -960 960 960" width="24"><path d="M355.91-71.87 97.15-401.76l72.46-73.17 124.17 75.56v-279.67h90.76v433.47l-91.78-53.3 107.63 136.24h315.78V-434.5H585.74v-90.76h221.19v453.39H355.91Zm83.85-362.63v-315.02h90.76v315.02h-90.76ZM136.07-597.43q-2.77-11-3-22.24-.24-11.24-.24-22.72 0-119.11 84.94-203.14 84.95-84.04 206.89-84.04 120.91 0 206.13 84.11 85.23 84.1 85.23 203.07 0 11-1.5 25.86l-1.5 14.86-90.76-9.96 1.5-11.41q1.5-11.41 1.5-19.35 0-81.33-58.62-138.87-58.62-57.54-142.1-57.54-84.24 0-142.59 57.54-58.36 57.54-58.36 138.87v15.76q0 7.76 2 15.52l-89.52 13.68Zm368.52 276Z"/></svg>