<svg xmlns="http://www.w3.org/2000/svg" height="24" viewBox="0 -960 960 960" width="24"><path d="M362.01-88 115.23-403.62 172.62-461l132.69 83.15v-273.46h65v389.16l-119-71.23L392.77-153H726v-293.77H616.85v-65H791V-88H362.01Zm99.07-358.77v-275.46h65v275.46h-65ZM147.77-604.69q-1.23-9.46-2.12-19.93-.88-10.46-.88-21.71 0-113.38 82.38-193.52Q309.53-920 428.47-920q117.91 0 200.41 80.15 82.5 80.16 82.5 193.54 0 8.69-1.5 23.54l-1.5 14.85-64.23-7.39 1.12-11.6q1.11-11.6 1.11-19.67 0-86.92-63.65-147.67Q519.09-855 428.78-855q-91.4 0-155.2 60.66-63.81 60.67-63.81 147.65v16.05q0 7.67 2 15.33l-64 10.62Zm341.38 287.92Z"/></svg>