<svg xmlns="http://www.w3.org/2000/svg" height="48" viewBox="0 -960 960 960" width="48"><path d="M359.71-84 112-399l53.5-53.5 140 86v-303H363V-263l-138.5-84 163 205.5h349v-308h-156V-507H794v423H359.71ZM443-449.5V-741h57.5v291.5H443Zm-298.73-149Q142-609 141.5-619.25t-.5-21.36q0-114.09 80.16-194.74T416.39-916q113.88 0 194.5 80.68 80.61 80.68 80.61 194.82 0 9.5-1.5 24l-1.5 14.5-57.5-6 1.5-12.35q1.5-12.35 1.5-20.24 0-89.8-63.88-153.85-63.88-64.06-153.45-64.06-91.17 0-154.67 64.17-63.5 64.17-63.5 154.16 0 8.67.5 16.92.5 8.25 2.5 16.25l-57.23 8.5ZM481-310.5Z"/></svg>