<svg xmlns="http://www.w3.org/2000/svg" height="20" viewBox="0 -960 960 960" width="20"><path d="m409.39-86.78-265.3-311.65 73.26-76.96 108.45 44.61v-257.46h92.44v376.63l-108.8-34.17 144.71 166.56h227.81V-422h-73.89v-92.44h166.32v427.66h-365ZM454.93-422v-314.37h92.44V-422h-92.44ZM174.61-622.89q-.94-8.5-2.25-18.57-1.32-10.06-1.32-21.15 0-109.28 79.44-185.39 79.43-76.11 193.46-76.11 112.86 0 191.64 76.27 78.79 76.27 78.79 185.23 0 8.96-.5 18.81-.5 9.84-2.5 18.84l-90.93-11.76q1-7 1.25-13.14.25-6.14.25-13.08 0-69.57-51.89-119.15-51.88-49.58-126.22-49.58-74.66 0-127.5 49.68-52.85 49.69-52.85 119.43 0 7.91.75 13.59.75 5.69 1.25 11.62l-90.87 14.46Zm321.87 292.5Z"/></svg>