<svg xmlns="http://www.w3.org/2000/svg" height="40" viewBox="0 -960 960 960" width="40"><path d="M355.7-72.64 99.25-399.09l64.17-64.73 133.48 81.89v-291.94h75.51v195.2h69.35v-267.01h75.67v267.01h287.72v406.03H355.7ZM135.3-599.28q-2.21-11-2.71-21.82-.49-10.83-.49-22.23 0-118.26 84.17-201.78 84.17-83.53 204.81-83.53 119.95 0 204.43 83.59 84.47 83.58 84.47 201.64 0 10.5-1.5 25.28l-1.5 14.77-75.52-7.79 1.5-12.11q1.5-12.1 1.5-20.15 0-86.78-62.4-148.17-62.4-61.38-151.05-61.38-88.81 0-151.1 61.42-62.29 61.43-62.29 148.27 0 8.53.33 16.68t2.33 15.96l-74.98 11.35Z"/></svg>