<svg xmlns="http://www.w3.org/2000/svg" height="20" viewBox="0 -960 960 960" width="20"><path d="M404.21-60.65 120.46-394.24l81.3-83.78 113.41 46.56v-262.82h104.18v216.04h43.22v-267.8h104.17v267.8h234.65v417.59H404.21ZM153.89-631.76q-1-9.24-2.12-20.24-1.12-11-1.12-22.29 0-117.17 85.91-199.23 85.9-82.07 209.03-82.07 122.15 0 207.94 82.07 85.8 82.07 85.8 199.32 0 9.96-.5 20.58-.5 10.62-2.5 19.62l-103.18-13.48q1-7 1.5-13.6t.5-13.62q0-73.68-55.37-125.31-55.38-51.64-133.81-51.64-79.62 0-135.38 51.69-55.76 51.69-55.76 125.63 0 7.85.5 13.86t1.5 12.51l-102.94 16.2Z"/></svg>