<svg xmlns="http://www.w3.org/2000/svg" height="40" viewBox="0 -960 960 960" width="40"><path d="M351.73-56.09 83.56-397.91l72.68-73 132.05 81.89v-284.76h88.26v196.21h69.35v-269.97h89.08v269.97h286.63v421.48H351.73ZM121.79-605.27q-2.12-10.57-2.66-21.82-.54-11.26-.54-23.18 0-123.82 89.47-211.44t218.29-87.62q127.86 0 217.73 87.56 89.87 87.56 89.87 211.51 0 10.17-1.5 25.54l-1.5 15.37-88.26-8.98 1.5-12.26q1.5-12.26 1.5-20.09 0-87.02-64.47-148.74-64.47-61.73-154.54-61.73-92.1 0-155.63 61.77-63.53 61.76-63.53 148.9v16.21q0 7.9 2.67 15.46l-88.4 13.54Z"/></svg>