<svg xmlns="http://www.w3.org/2000/svg" height="40" viewBox="0 -960 960 960" width="40"><path d="M349.71-53.48 79.32-398.23l77.25-78 128.02 80.36v-277.14h95.44v430.24l-102.07-56.36L397.1-149.01h329.77v-281.34H604.33v-95.91h219.02v472.78H349.71Zm94.23-376.87v-316.1h96.48v316.1h-96.48ZM118.98-604.72q-2.02-10.9-2.62-22.05-.59-11.14-.59-23.42 0-124.88 91.23-213.37 91.23-88.48 222.78-88.48 130.09 0 221.64 88.23 91.55 88.23 91.55 213.66 0 10.38-1.5 25.81l-1.5 15.43-95.43-9.42 1.5-12.42q1.5-12.41 1.5-19.82 0-85.01-64.25-145.62-64.26-60.61-153.55-60.61-91.64 0-154.76 60.64-63.11 60.64-63.11 145.76v15.77q0 7.75 2.67 15.17l-95.56 14.74Zm383.74 290.58Z"/></svg>