<svg xmlns="http://www.w3.org/2000/svg" height="40" viewBox="0 -960 960 960" width="40"><path d="M179.7-322.82q-23.42 0-40.15-16.74-16.73-16.75-16.73-40.26v-200.36q0-23.51 16.73-40.26 16.73-16.74 40.15-16.74h600.6q23.42 0 40.15 16.74 16.73 16.75 16.73 40.26v200.36q0 23.51-16.73 40.26-16.73 16.74-40.15 16.74H179.7Zm.17-32.44h600.26q10.77 0 17.69-6.92 6.92-6.92 6.92-17.69v-200.26q0-10.77-6.92-17.69-6.92-6.92-17.69-6.92H179.87q-10.77 0-17.69 6.92-6.92 6.92-6.92 17.69v200.26q0 10.77 6.92 17.69 6.92 6.92 17.69 6.92Zm-24.61 0v-249.48 249.48Z"/></svg>