<svg xmlns="http://www.w3.org/2000/svg" height="48" viewBox="0 -960 960 960" width="48"><path d="M613.5-452 597-467l167-168.5q9-9 9-22.75t-9-23.25L703.5-742q-9.5-9-23.25-9t-22.75 9L489-575.5l-15.5-16 170-168.5q15.5-16 37.5-16t38.5 16l62 62q15.5 16.5 15.75 39.25T781.5-620l-168 168ZM798-130.5 544.5-383l-179 179q-16.5 16-41.21 16t-40.75-15.88L271-217.5 214.5-160h-71l91.5-92.5-7.5-8.5Q209-277.91 209-302.45 209-327 227.5-345L405-522.5l-275-276 15-15 668 668-15 15ZM239.5-281l63 63q9 10 21.75 10t22.25-10L528-399.5l-107-108L239.5-325q-9.5 9-9.5 22t9.5 22ZM543-521Zm-69 67.5Z"/></svg>