<svg xmlns="http://www.w3.org/2000/svg" height="20" viewBox="0 -960 960 960" width="20"><path d="m679.15-386.17-72.26-75.26 198.76-199.53-90.56-91.8-198.52 199.52-74.03-73.5 198.29-199.28q31.07-31.39 74.1-31.39 43.03 0 74.23 31.2l90.51 90.99q30.4 31.67 30.4 73.9 0 42.23-30.4 74.62L679.15-386.17Zm95.31 333.06L560.15-267.17 427.26-134.28q-26.63 24.63-64.31 27.01-37.69 2.38-62.32-22.25l2.24 2.24-12.31 12.06H49.17l133-132.76 2 1.76q-25.87-24.63-24.49-63.33 1.39-38.71 28.25-63.58L321.3-506.5 52.11-775.46l68.76-68.76 722.35 722.35-68.76 68.76ZM270-307.67l91.57 91.56 124.56-125.56-90.56-91.57L270-307.67Zm291.61-199.29Zm-121 120Z"/></svg>