<svg xmlns="http://www.w3.org/2000/svg" height="24" viewBox="0 -960 960 960" width="24"><path d="m670.22-401.3-63.89-64.9 192.71-191.71-102.8-103.05-192.48 192.48-63.65-64.89 192.24-191.48q27.39-27.35 63.91-27.35 36.52 0 63.87 27.35l102.8 103.05q27.35 27.39 27.35 63.91 0 36.52-27.35 63.87L670.22-401.3ZM789.13-53.13 555.59-286.67 407.41-138.5q-26.87 26.87-63.77 26.87-36.9 0-63.77-26.87l-1.52-1.52-28.63 28.39h-200l128.63-128.39-1.76-1.76q-27.11-27.11-27.11-63.65 0-36.55 27.11-63.66L325-517.5 53.13-789.13l59.39-59.39 736 736-59.39 59.39Zm-548.41-252.3 102.8 102.8L491.7-350.8 388.89-453.61 240.72-305.43Zm314.32-212.29ZM440.17-402.09Z"/></svg>