<svg xmlns="http://www.w3.org/2000/svg" height="40" viewBox="0 -960 960 960" width="40"><path d="m640.41-429.15-180.67-180 181.93-181.67q22.61-23.28 52.84-23.28 30.23 0 53.52 23.28l73.74 73.74q22.61 23.29 22.54 54.08-.08 30.79-22.69 54.08L640.41-429.15ZM806.08-86.1l-253.9-253.39-169.95 169.95q-18.92 18.92-48.92 19.59-30 .67-48.77-18.26l-9.23-9.74-43.18 43.18H96.28l110.44-111.1-5.59-6.1q-20.41-19.9-20.17-49.74.25-29.83 21.32-50.24l168.98-168.46-285.49-286 35.67-35.67 720.3 720.31-35.66 35.67Z"/></svg>