<svg xmlns="http://www.w3.org/2000/svg" height="40" viewBox="0 -960 960 960" width="40"><path d="m629.2-423.41-34.39-33.44 191.74-192.29q3.46-3.46 3.46-8.75t-3.46-8.94l-90.61-90.62q-3.66-3.46-8.95-3.46-5.29 0-8.75 3.46L486.22-565.73l-33.46-34.58 193.93-193.44q17.17-17.36 42.49-17.13 25.32.24 42.7 17.6l89.45 89.92q17.17 17.86 17.06 44.37-.11 26.5-17.47 43.86L629.2-423.41ZM800.22-89.3 547.53-341.73 380.17-174.37q-18.68 18.34-48.22 18.34t-47.71-18.29l-9.8-10.09-44.71 45.23H101.84L210.15-248.5l-5.1-5.36q-20.42-19.77-20.22-49.3.21-29.53 20.63-49.62l165.38-165.64L88.8-800.72l33.43-33.43 711.42 711.42-33.43 33.43ZM233-294.59l91.41 90.94q3.46 3.71 8.37 3.71 4.9 0 8.55-3.71l172.21-172.48-108.33-108.59L233-311.51q-3.65 3.46-3.65 8.46 0 5 3.65 8.46Zm307.72-216.76Zm-81.68 81.13Z"/></svg>