<svg xmlns="http://www.w3.org/2000/svg" height="24" viewBox="0 -960 960 960" width="24"><path d="m616-453-18.5-18 160-160.5q9-9 9-22.75t-9-23.25l-57-57q-9.5-9-23.25-9t-22.75 9l-160 160-18-18.5L638-754.5q16.5-17 40-16.75T718.5-754l58.5 59q16.5 17.5 16.75 40.75T777-614L616-453Zm170.5 317.5-244-244-173 173Q352-189 328.14-189q-23.85 0-40.62-17.42L277-217l-52.5 53h-78l91.5-92.5-8-8q-17.5-17.5-17.5-41t17.5-41l172.5-173L135-787l18-18 651.5 651.5-18 18ZM248-283l59 58.5q9 9 21.75 9t22.25-9L524-398 421-501 248-327q-9.5 9-9.5 22t9.5 22Zm298-239.5Zm-73.5 73Z"/></svg>