<svg xmlns="http://www.w3.org/2000/svg" height="24" viewBox="0 -960 960 960" width="24"><path d="m697.09-379.96-86.44-86.43 198.44-197.87-102.61-103.17-197.87 197.86-85.87-87 197.3-197.3q37.39-37.65 86.31-37.65 48.91 0 86.56 37.65L894.96-750.7q37.65 36.88 37.65 86.05 0 49.17-37.65 86.82L697.09-379.96Zm95.17 356.61L566.09-248.96 427.44-110.3q-32.22 32.21-79.11 32.93-46.9.72-79.11-31.5l.56.57-24.17 23.6H7.96l143-142.43v-.57q-32.79-32.21-32.57-78.47.22-46.27 33-79.05L291.17-525 22.35-793.26l74.43-74.44L866.7-97.78l-74.44 74.43ZM245-305.96l102.61 102.61 132.61-132.61-102.61-102.61L245-305.96Zm314.35-212.3Zm-131 131Z"/></svg>