<svg xmlns="http://www.w3.org/2000/svg" height="24" viewBox="0 -960 960 960" width="24"><path d="M631.15-442.62 470.31-603.46l168.15-167.92q19.39-19.39 45.23-19.39 25.85 0 45.23 19.39l70.16 70.15q19.38 19.38 19.38 45.23 0 25.85-19.38 45.23L631.15-442.62Zm159.31 329.7L545.85-357.54 376.92-188.62q-19.38 19.39-45.23 19.39-25.84 0-45.23-19.39l-8.15-8.15-46 46H121.54l101.38-101.38-6.61-6.62q-19.39-19.38-19.39-45.23 0-25.85 19.39-45.23l168.92-168.92-272.31-272.31L141.46-819 819-141.46l-28.54 28.54Z"/></svg>