<svg xmlns="http://www.w3.org/2000/svg" height="40" viewBox="0 -960 960 960" width="40"><path d="m633.92-423.41-35.79-35.33 191.74-191.8q3.46-3.46 3.46-8.84 0-5.39-3.46-8.85l-91.59-91.59q-3.46-3.46-8.84-3.46-5.39 0-8.85 3.46l-192 191.74-35.38-36 193.46-193q18.3-18.3 44.25-18.3t44.26 18.3l90.87 90.88q18.31 18.3 18.1 45.53-.2 27.23-18.51 45.54L633.92-423.41ZM803.54-84.05 548.92-338.41 380.61-170.1q-19.12 19.12-48.79 19.12-29.67 0-49.05-19.12l-9.28-9.54-44.26 44.25H95.64L206.36-246.1l-5.13-5.39q-20.87-20.61-20.66-50.28.2-29.67 21.07-50.54l166.82-166.56L84.05-803.54l35.34-35.33 719.48 719.48-35.33 35.34ZM231.08-293.64l92.35 92.36q3.47 3.72 8.47 3.72t8.46-3.72l173.18-172.93-109.28-109.53-173.18 173.18q-3.46 3.46-3.46 8.46 0 5 3.46 8.46Zm312.48-220.08Zm-85 84.95Z"/></svg>