<svg xmlns="http://www.w3.org/2000/svg" height="40" viewBox="0 -960 960 960" width="40"><path d="m666.83-386.59-68.76-67.42L810.8-666.17 701.14-776.39 488.61-564.9l-67.52-68.27 213.3-213.31q28.87-29.85 68.07-29.85 39.21 0 69.44 29.85l107.09 108.22q29.18 29.08 28.85 70.03-.33 40.95-29.52 70.81L666.83-386.59ZM806.72-37.15 561.91-281.39 409.09-128.57q-27.09 27.09-71.73 27.48-44.64.38-70.75-26.71l-6.48-6.1-38.38 37.81H33.44L165.3-228.06l-2-2.94q-29.65-28.88-29.43-72.36.22-43.48 30.54-73.13l151.95-151.58L36.81-807.06l57.68-57.68L864.41-94.83l-57.69 57.68ZM227.96-303.58l110.03 110.03 156.78-156.78-110.03-110.03-156.78 156.78Zm315.76-206.3Zm-105.2 104.53Z"/></svg>