<svg xmlns="http://www.w3.org/2000/svg" height="24" viewBox="0 -960 960 960" width="24"><path d="m659.72-401.3-60.39-60.9 192.71-192.21-101.3-101.55-191.98 192.98-60.15-61.89 193.24-192.98q25.39-25.35 60.66-24.85 35.27.5 60.12 25.85l99.8 101.05q25.35 25.89 25.35 61.16 0 35.27-25.35 60.62L659.72-401.3ZM782.13-63.63 552.09-293.67 405.91-147.5q-25.37 25.37-61.77 25.37-36.4 0-61.77-25.37l-2.02-2.02-30.13 29.89h-188l124.13-124.89-2.26-2.26q-25.61-25.61-25.61-61.65 0-36.05 25.61-61.66L330-516 63.13-782.63l55.39-55.39 719 719-55.39 55.39Zm-537.91-243.8 100.8 99.8L491.7-354.3 390.89-455.11 244.22-307.43Zm304.82-205.29ZM441.17-404.59Z"/></svg>