<svg xmlns="http://www.w3.org/2000/svg" height="40" viewBox="0 -960 960 960" width="40"><path d="m652.59-411.08-47.8-46.33 196.75-197.13Q805-658 805-663.38q0-5.39-3.46-8.85l-92.92-92.92q-3.47-3.46-8.85-3.46-5.39 0-8.85 3.46l-197 196.07-47.38-47L645-814.41q23.22-24.31 55.71-24.31t56.8 24.31l92.21 92.21q23.64 23.94 23.43 57.35-.2 33.41-23.84 57.72L652.59-411.08ZM811.2-57.39 555.26-313.08 390.95-148.77q-20.46 20.46-53.8 21.13-33.33.66-53.38-19.8l-7.95-8.2-36.26 36.25H67.31l121.72-122.38-3.8-4.05q-22.2-21.95-21.83-55.12.37-33.16 23.24-55.37l162.82-162.56L57.05-811.54l47.34-47.33 754.15 754.15-47.34 47.33ZM234.74-292.31l93.69 93.69q3.47 3.72 8.47 3.72t8.46-3.72l162.51-162.25-110.61-110.88-162.52 162.52q-3.46 3.46-3.46 8.46 0 5 3.46 8.46ZM549.9-513.38Zm-98 96.94Z"/></svg>