<svg xmlns="http://www.w3.org/2000/svg" height="48" viewBox="0 -960 960 960" width="48"><path d="m650.72-392.85-55.35-53.35 220.52-220.28-114.8-115.04-220.52 219.28-54.11-54.35 222.28-222.28q22.26-23.67 54.52-23.67 32.26 0 56.17 23.67L871-726.83q22.67 23.14 22.17 57.58-.5 34.45-23.17 58.12L650.72-392.85ZM819.17-38.83 558.2-299.57 395.35-136.72q-21.92 21.92-61.38 22.3-39.47.38-60.19-21.54l-10-9.76-40.58 40.35H47.8l127.29-128.04-3-3.48q-25.16-24.78-24.77-63.36.38-38.58 26.53-63.73l160.32-160.09-295.34-295.1 50.28-50.29L869.46-89.11l-50.29 50.28Zm-599.41-261.6L334.8-185.39l169.53-169.52-115.05-115.05-169.52 169.53Zm319.09-204.29Zm-93.28 92.29Z"/></svg>