<svg xmlns="http://www.w3.org/2000/svg" height="20" viewBox="0 -960 960 960" width="20"><path d="M216.6-182q-11.31-5-19.73-13.4L102-290q-18-18-17.5-41.5T103-373q18-18 40.5-17.5T183-372l-3-3v-315.13q0-23.87 17.29-41.37 17.29-17.5 41.5-17.5t41.71 17.35Q298-714.3 298-690v315l-4 3q18-18 40.5-18t40.5 18q18 18 18 41.5T375-289l-93.65 93.65Q273-187 261.68-182q-11.32 5-22.54 5-11.22 0-22.54-5ZM522-211q-24.3 0-41.65-17.29Q463-245.58 463-269.79t17.35-41.71Q497.7-329 522-329h317q24.3 0 41.65 17.29Q898-294.42 898-270.21t-17.35 41.71Q863.3-211 839-211H522Zm0-210q-24.3 0-41.65-17.29Q463-455.58 463-479.79t17.35-41.71Q497.7-539 522-539h317q24.3 0 41.65 17.29Q898-504.42 898-480.21t-17.35 41.71Q863.3-421 839-421H522Zm0-210q-24.3 0-41.65-17.29Q463-665.58 463-689.79t17.35-41.71Q497.7-749 522-749h317q24.3 0 41.65 17.29Q898-714.42 898-690.21t-17.35 41.71Q863.3-631 839-631H522Z"/></svg>