<svg xmlns="http://www.w3.org/2000/svg" height="24" viewBox="0 -960 960 960" width="24"><path d="M208-141q-13-6-22-15L79-264q-20-19-19.5-47.5T80-360q20-19 47-19t46 20l-7-6v-367q0-29 20-48.5t48.5-19.5q28.5 0 48 19.5T302-732v367l-6 6q19-20 46-20t48 20q19 20 19 48t-19 47L283-156q-9 9-22 15t-26.5 6q-13.5 0-26.5-6Zm320-19q-29 0-48.5-19.5t-19.5-48q0-28.5 19.5-48.5t48.5-20h330q29 0 48.5 20t19.5 48.5q0 28.5-19.5 48T858-160H528Zm0-252q-29 0-48.5-20T460-480q0-28 19.5-48t48.5-20h330q29 0 48.5 20t19.5 48q0 28-19.5 48T858-412H528Zm0-252q-29 0-48.5-20T460-732.5q0-28.5 19.5-48T528-800h330q29 0 48.5 19.5t19.5 48q0 28.5-19.5 48.5T858-664H528Z"/></svg>