<svg xmlns="http://www.w3.org/2000/svg" height="40" viewBox="0 -960 960 960" width="40"><path d="M218.93-172.12q-6.71-2.35-12.44-8.24L99.59-287.78q-10.52-11.02-10.56-26.47-.05-15.45 11.38-26.72 10.44-10.44 25.57-10.57 15.14-.13 25.74 10.39l43.5 41.9v-429.36q0-16 10.97-26.94 10.97-10.94 27.02-10.94 16.05 0 26.99 10.94 10.93 10.94 10.93 26.94v429.36l42.83-41.9q10.35-10.52 25.57-10.52 15.21 0 26.56 10.85 11.03 10.36 10.69 26.19-.33 15.83-10.69 26.85L259.85-181.03q-5.89 5.89-12.6 8.58-6.71 2.68-14.17 2.68-7.45 0-14.15-2.35Zm301.68-21.39q-16.16 0-27.1-10.98-10.94-10.97-10.94-27.1 0-16.13 10.94-26.98 10.94-10.86 27.1-10.86h328.21q16 0 27.02 10.97 11.02 10.98 11.02 27.11t-11.02 26.98q-11.02 10.86-27.02 10.86H520.61Zm0-248.61q-16.16 0-27.1-10.98-10.94-10.97-10.94-27.02 0-16.05 10.94-26.9 10.94-10.86 27.1-10.86h328.21q16 0 27.02 10.98 11.02 10.97 11.02 27.02 0 16.05-11.02 26.9-11.02 10.86-27.02 10.86H520.61Zm0-248.45q-16.16 0-27.1-10.97-10.94-10.98-10.94-27.11t10.94-26.98q10.94-10.86 27.1-10.86h328.21q16 0 27.02 10.98 11.02 10.97 11.02 27.1 0 16.13-11.02 26.98-11.02 10.86-27.02 10.86H520.61Z"/></svg>