<svg xmlns="http://www.w3.org/2000/svg" height="24" viewBox="0 -960 960 960" width="24"><path d="M215-152q-12-5-21-14L89-271q-18-18-18-44t19-45q18-18 43-18t43 18v-366q0-26 18.5-44.5T239-789q26 0 44.5 18.5T302-726v366q18-18 43-18t44 19q18 18 18 44t-18 44L284-166q-9 9-21 14t-24 5q-12 0-24-5Zm311-19q-26 0-44.5-18.5T463-234q0-26 18.5-44.5T526-297h325q26 0 44.5 18.5T914-234q0 26-18.5 44.5T851-171H526Zm0-246q-26 0-44.5-18.5T463-480q0-26 18.5-44.5T526-543h325q26 0 44.5 18.5T914-480q0 26-18.5 44.5T851-417H526Zm0-246q-26 0-44.5-18.5T463-726q0-26 18.5-44.5T526-789h325q26 0 44.5 18.5T914-726q0 26-18.5 44.5T851-663H526Z"/></svg>