<svg xmlns="http://www.w3.org/2000/svg" height="40" viewBox="0 -960 960 960" width="40"><path d="M237.08-231.83q-4.41-2-8.21-7.19L142.17-323q-3.84-2.83-3-7.78.83-4.95 3.61-9 3.72-3.11 7.8-2.83 4.09.28 6.59 2.44l79.5 75.34v-435q0-5.27 2.99-8.64 3-3.36 8.34-3.36 5.33 0 8.58 3.36 3.25 3.37 3.25 8.64v435l79-75.34q2.5-2.16 7.17-2.16t7.38 2.22q2.95 2.94 2.95 8.11t-2.83 8l-85.94 85.03q-4.56 4.47-9.29 6.8-4.73 2.34-10.75 2.34t-10.44-2Zm276.25-16.67q-5.26 0-8.63-3.41-3.37-3.42-3.37-8.34t3.37-8.17q3.37-3.25 8.63-3.25h301.5q5.27 0 8.64 3.42 3.36 3.41 3.36 8.33t-3.36 8.17q-3.37 3.25-8.64 3.25h-301.5Zm0-218.83q-5.26 0-8.63-3.42-3.37-3.41-3.37-8.33t3.37-8.17q3.37-3.25 8.63-3.25h301.5q5.27 0 8.64 3.41 3.36 3.42 3.36 8.34t-3.36 8.17q-3.37 3.25-8.64 3.25h-301.5Zm0-219.34q-5.26 0-8.63-2.99-3.37-3-3.37-8.34 0-5.33 3.37-8.58t8.63-3.25h301.5q5.27 0 8.64 3.41 3.36 3.41 3.36 8.75t-3.36 8.17q-3.37 2.83-8.64 2.83h-301.5Z"/></svg>