<svg xmlns="http://www.w3.org/2000/svg" height="40" viewBox="0 -960 960 960" width="40"><path d="M224.75-183.5q-5.42-1.83-10.25-7L109.33-296q-9-9.17-8.91-21.92.08-12.75 9.49-22.49 8.92-8.59 21.26-8.76 12.33-.16 21.5 8.34l52.5 50.16v-432q0-13.33 9.11-22.58 9.12-9.25 22.5-9.25 13.39 0 22.55 9.25 9.17 9.25 9.17 22.58v432l51.5-50.16q9-8.5 21.42-8.5 12.41 0 21.91 8.83 9.67 9 9.34 21.92-.34 12.91-9.34 22.58L259.17-191.17q-5.17 5.17-10.68 7.34-5.5 2.16-11.91 2.16t-11.83-1.83Zm294.42-21.83q-13.34 0-22.59-9.29-9.25-9.28-9.25-22.5 0-13.21 9.25-22.38 9.25-9.17 22.59-9.17H842q13.33 0 22.58 9.29 9.25 9.28 9.25 22.5 0 13.21-9.25 22.38-9.25 9.17-22.58 9.17H519.17Zm0-242.67q-13.34 0-22.59-9.28-9.25-9.29-9.25-22.5 0-13.22 9.25-22.39 9.25-9.16 22.59-9.16H842q13.33 0 22.58 9.28 9.25 9.28 9.25 22.5t-9.25 22.38Q855.33-448 842-448H519.17Zm0-243.17q-13.34 0-22.59-9.11-9.25-9.12-9.25-22.5 0-13.39 9.25-22.55 9.25-9.17 22.59-9.17H842q13.33 0 22.58 9.28 9.25 9.29 9.25 22.67 0 13.38-9.25 22.38-9.25 9-22.58 9H519.17Z"/></svg>