<svg xmlns="http://www.w3.org/2000/svg" height="40" viewBox="0 -960 960 960" width="40"><path d="M236.33-230.33q-4.66-2-8.96-6.86L140.67-322q-4.34-3.33-3.5-8.03.83-4.7 4.11-8.91 3.89-3.62 8.14-3.34 4.25.28 6.91 2.95L235-264.67V-701q0-5.1 3.5-8.55 3.49-3.45 8.66-3.45t8.51 3.45Q259-706.1 259-701v436.33l79-74.66q3-2.67 7.5-2.67t7.72 2.72q3.45 2.95 3.45 7.95t-3.34 8.33l-86.77 85.87q-4.23 4.13-9.2 6.46-4.98 2.34-10.67 2.34-5.69 0-10.36-2ZM513-247q-5.1 0-8.55-3.5-3.45-3.49-3.45-8.66t3.45-8.51Q507.9-271 513-271h303q5.1 0 8.55 3.5 3.45 3.49 3.45 8.66t-3.45 8.51Q821.1-247 816-247H513Zm0-220q-5.1 0-8.55-3.5-3.45-3.49-3.45-8.66t3.45-8.51Q507.9-491 513-491h303q5.1 0 8.55 3.5 3.45 3.49 3.45 8.66t-3.45 8.51Q821.1-467 816-467H513Zm0-220q-5.1 0-8.55-3.5-3.45-3.49-3.45-8.66t3.45-8.51Q507.9-711 513-711h303q5.1 0 8.55 3.5 3.45 3.49 3.45 8.66t-3.45 8.51Q821.1-687 816-687H513Z"/></svg>