<svg xmlns="http://www.w3.org/2000/svg" height="20" viewBox="0 -960 960 960" width="20"><path d="M226.7-202.96q-8.89-3.91-15.5-10.5l-91.94-91.67q-14.96-14.46-14.42-32.58.53-18.12 14.99-32.57 14.45-14.46 31.76-14.18 17.3.29 31.19 14.74L197.93-356v-324.52q0-18.46 13.75-32.42 13.75-13.95 32.54-13.95 18.8 0 32.76 13.8 13.96 13.81 13.96 32.7V-356l14.15-13.72q14.95-14.45 32.01-14.45 17.05 0 31.51 14.45 14.96 14.96 14.96 32.8 0 17.83-14.96 32.79l-90.72 90.72q-6.54 6.54-15.44 10.45-8.89 3.92-17.87 3.92t-17.88-3.92Zm292.19-29.65q-18.89 0-32.69-13.74-13.81-13.75-13.81-32.55 0-18.8 13.81-32.75 13.8-13.96 32.69-13.96h308.33q18.88 0 32.69 13.75 13.81 13.74 13.81 32.54 0 18.8-13.81 32.76-13.81 13.95-32.69 13.95H518.89Zm0-200.39q-18.89 0-32.69-13.75-13.81-13.74-13.81-32.54 0-18.8 13.81-32.75Q500-526 518.89-526h308.33q18.88 0 32.69 13.75 13.81 13.74 13.81 32.54 0 18.8-13.81 32.75Q846.1-433 827.22-433H518.89Zm0-200.89q-18.89 0-32.69-13.75-13.81-13.74-13.81-32.54 0-18.8 13.81-32.76 13.8-13.95 32.69-13.95h308.33q18.88 0 32.69 13.74 13.81 13.75 13.81 32.55 0 18.8-13.81 32.75-13.81 13.96-32.69 13.96H518.89Z"/></svg>