<svg xmlns="http://www.w3.org/2000/svg" height="20" viewBox="0 -960 960 960" width="20"><path d="M219.1-220.62q-7.28-3.61-13.89-10.13l-85.06-84.33q-10.38-9.61-8.61-20.65 1.77-11.04 10.15-19.42 10.85-10.85 21-9.47 10.16 1.39 18 12l45.23 42.93v-374.29q0-11.37 8.55-20.12 8.55-8.75 20.27-8.75 11.72 0 20.45 8.6 8.73 8.6 8.73 20.4v374.16l45-43.93q9.23-10.61 19.58-10.61 10.35 0 19.33 8.85 9.48 9.35 9.48 20.14 0 10.78-9.62 20.39l-82.83 84.11q-6.55 6.51-13.93 10.12-7.39 3.62-15.97 3.62-8.58 0-15.86-3.62Zm296.52-26.53q-11.8 0-20.4-8.55-8.6-8.55-8.6-20.27 0-11.72 8.6-20.45 8.6-8.73 20.4-8.73H827q11.8 0 20.4 8.54 8.6 8.55 8.6 20.27 0 11.72-8.6 20.46-8.6 8.73-20.4 8.73H515.62Zm0-203.08q-11.8 0-20.4-8.55-8.6-8.55-8.6-20.27 0-11.72 8.6-20.45 8.6-8.73 20.4-8.73H827q11.8 0 20.4 8.55 8.6 8.54 8.6 20.27 0 11.72-8.6 20.45-8.6 8.73-20.4 8.73H515.62Zm0-203.08q-11.8 0-20.4-8.54-8.6-8.55-8.6-20.27 0-11.73 8.6-20.46t20.4-8.73H827q11.8 0 20.4 8.55 8.6 8.55 8.6 20.27 0 11.72-8.6 20.45-8.6 8.73-20.4 8.73H515.62Z"/></svg>