<svg xmlns="http://www.w3.org/2000/svg" height="48" viewBox="0 -960 960 960" width="48"><path d="M219.84-176.22q-5.71-1.98-10.45-7.45l-107.24-107.5q-9.43-9.7-9.06-22.99.37-13.3 10.17-23.36 9.33-8.83 21.76-8.83 12.44 0 21.63 8.94l53.05 50.54V-728.7q0-13.92 9.37-23.49 9.37-9.57 23.37-9.57 13.99 0 23.56 9.57 9.57 9.57 9.57 23.49v441.83l51.54-50.54q9.19-8.94 22-8.94 12.8 0 22.5 8.94 10.19 9.19 9.69 22.62-.5 13.42-9.69 23.62l-105.74 106.5q-5.48 5.47-11.2 7.95-5.72 2.48-12.42 2.48-6.71 0-12.41-1.98Zm300.36-22.02q-14.17 0-23.74-9.62-9.57-9.62-9.57-23.49t9.57-23.31q9.57-9.45 23.74-9.45h328.21q13.93 0 23.62 9.62 9.69 9.62 9.69 23.49t-9.69 23.32q-9.69 9.44-23.62 9.44H520.2Zm0-248.69q-14.17 0-23.74-9.63-9.57-9.62-9.57-23.37 0-13.74 9.57-23.19 9.57-9.45 23.74-9.45h328.21q13.93 0 23.62 9.63 9.69 9.62 9.69 23.37 0 13.74-9.69 23.19-9.69 9.45-23.62 9.45H520.2Zm0-248.96q-14.17 0-23.74-9.37-9.57-9.37-9.57-23.49t9.57-23.57q9.57-9.44 23.74-9.44h328.21q13.93 0 23.62 9.62 9.69 9.62 9.69 23.74t-9.69 23.31q-9.69 9.2-23.62 9.2H520.2Z"/></svg>