<svg xmlns="http://www.w3.org/2000/svg" height="40" viewBox="0 -960 960 960" width="40"><path d="M209.87-155.84q-9.1-3.94-14.91-10.8L86.42-276.46q-14.78-13.18-14.28-33.43t15.19-34.57q14.26-13.03 32.93-13 18.67.03 32.22 13.91l28.36 27.22v-419.03q0-20.37 14.07-34.46 14.08-14.09 34.21-14.09 20.14 0 34.34 14.09 14.19 14.09 14.19 34.46v419.03l27.6-26.99q13.17-14.55 32.36-14.55 19.19 0 33.93 13.88 13.84 14.41 13.5 34.38-.33 19.97-13.5 33.15L263.43-167.3q-6.18 6.85-15.19 11.13-9 4.27-19.13 4.27-10.14 0-19.24-3.94Zm314.45-20.91q-21.41 0-35.17-13.79-13.76-13.8-13.76-34.12 0-20.33 13.76-34.62t35.17-14.29h333.65q20.37 0 34.32 14.41 13.94 14.41 13.94 34.73 0 20.33-13.94 34-13.95 13.68-34.32 13.68H524.32Zm0-255.37q-21.41 0-35.17-14.07-13.76-14.07-13.76-33.93 0-19.85 13.76-34.14t35.17-14.29h333.65q20.37 0 34.32 14.41 13.94 14.4 13.94 34.26 0 19.85-13.94 33.81-13.95 13.95-34.32 13.95H524.32Zm0-254.98q-21.41 0-35.17-14.07-13.76-14.08-13.76-34.4 0-20.33 13.76-34.34 13.76-14 35.17-14h333.65q20.37 0 34.32 14.12 13.94 14.13 13.94 34.45 0 20.33-13.94 34.28-13.95 13.96-34.32 13.96H524.32Z"/></svg>