<svg xmlns="http://www.w3.org/2000/svg" height="40" viewBox="0 -960 960 960" width="40"><path d="M216.1-164.78q-8.11-3.06-14.39-9.71L94.48-282.01Q81.9-294.88 82.01-313q.12-18.12 13.61-31.23 12.29-12.29 29.66-12.36 17.36-.08 29.71 12.5l33.71 32.23v-418.49q0-18.5 12.82-31.28 12.82-12.79 31.36-12.79 18.55 0 31.45 12.79 12.89 12.78 12.89 31.28v418.49l33.04-32.23q12.2-12.58 29.75-12.58 17.56 0 30.76 12.92 12.87 12.2 12.53 30.53-.33 18.34-12.53 31.21L264.2-175.16q-6.65 6.65-14.67 10.04-8.01 3.4-16.66 3.4t-16.77-3.06Zm306.25-20.8q-18.88 0-31.67-12.82-12.78-12.82-12.78-31.56t12.78-31.44q12.79-12.7 31.67-12.7h329.4q18.5 0 31.48 12.82 12.97 12.82 12.97 31.56 0 18.73-12.97 31.44-12.98 12.7-31.48 12.7h-329.4Zm0-250.35q-18.88 0-31.67-12.82-12.78-12.82-12.78-31.37t12.78-31.25q12.79-12.7 31.67-12.7h329.4q18.5 0 31.48 12.82 12.97 12.82 12.97 31.37t-12.97 31.25q-12.98 12.7-31.48 12.7h-329.4Zm0-249.97q-18.88 0-31.67-12.82-12.78-12.82-12.78-31.56 0-18.73 12.78-31.44 12.79-12.7 31.67-12.7h329.4q18.5 0 31.48 12.82 12.97 12.82 12.97 31.56t-12.97 31.44q-12.98 12.7-31.48 12.7h-329.4Z"/></svg>