<svg xmlns="http://www.w3.org/2000/svg" height="24" viewBox="0 -960 960 960" width="24"><path d="M217.5-190.62q-7.96-3.61-15.16-10.73l-95.19-94.73q-10.38-9.61-9.11-23.15 1.27-13.54 10.65-22.92 10.85-10.85 23.5-9.97 12.66.89 21.5 11.5l48.23 45.93v-425.16q0-13.5 9.76-23.25t23.27-9.75q13.51 0 23.24 9.75 9.73 9.75 9.73 23.25v425.16l49-46.93q9.23-10.61 22.08-10.61 12.85 0 22.83 9.85 9.48 9.35 9.48 22.64 0 13.28-9.62 22.89l-94.18 95.46q-7.2 7.16-15.27 10.77-8.06 3.62-17.42 3.62-9.36 0-17.32-3.62Zm302.12-16.53q-13.5 0-23.25-9.76t-9.75-23.27q0-13.51 9.75-23.24 9.75-9.73 23.25-9.73H839q13.5 0 23.25 9.75 9.75 9.76 9.75 23.27t-9.75 23.25q-9.75 9.73-23.25 9.73H519.62Zm0-239.08q-13.5 0-23.25-9.76t-9.75-23.27q0-13.51 9.75-23.24 9.75-9.73 23.25-9.73H839q13.5 0 23.25 9.76 9.75 9.75 9.75 23.27 0 13.51-9.75 23.24-9.75 9.73-23.25 9.73H519.62Zm0-239.08q-13.5 0-23.25-9.76-9.75-9.75-9.75-23.26 0-13.52 9.75-23.25t23.25-9.73H839q13.5 0 23.25 9.76t9.75 23.27q0 13.51-9.75 23.24-9.75 9.73-23.25 9.73H519.62Z"/></svg>