<svg xmlns="http://www.w3.org/2000/svg" version="1.1" width="3300" height="2000"><g id="Notes"><style>
    text {
      font-family: monospace;
      text-anchor: middle;
    }
    text.emphasis {
      font-weight:bold;
    }
    text.lanchor {
      text-anchor: start;
    }
  </style><rect height="2200" id="artboard" fill="white" width="3300" x="0" y="0"/><line id="" style="fill:none;stroke:black;stroke-width:0.5;" x1="263" x2="3036" y1="292" y2="292"/><text class="lanchor emphasis" transform="matrix(1 0 0 1 263 322)">Weight/Scale Variations</text><text transform="matrix(1 0 0 1 559.711 322)">Ultralight</text><text transform="matrix(1 0 0 1 856.422 322)">Thin</text><text transform="matrix(1 0 0 1 1153.13 322)">Light</text><text transform="matrix(1 0 0 1 1449.84 322)">Regular</text><text transform="matrix(1 0 0 1 1746.56 322)">Medium</text><text transform="matrix(1 0 0 1 2043.27 322)">Semibold</text><text transform="matrix(1 0 0 1 2339.98 322)">Bold</text><text transform="matrix(1 0 0 1 2636.69 322)">Heavy</text><text transform="matrix(1 0 0 1 2933.4 322)">Black</text><text id="template-version" style="text-anchor: end;" transform="matrix(1 0 0 1 3036 1933)">Template v.1.0</text><text class="lanchor" transform="matrix(1 0 0 1 263 726)">Small</text><text class="lanchor" transform="matrix(1 0 0 1 263 1156)">Medium</text><text class="lanchor" transform="matrix(1 0 0 1 263 1586)">Large</text></g><g id="Guides"><g id="H-reference" style="fill:#27AAE1;stroke:none;" transform="matrix(1 0 0 1 339 696)"><path d="M 54.9316 0 L 57.666 0 L 30.5664 -70.459 L 28.0762 -70.459 L 0.976562 0 L 3.66211 0 L 12.9395 -24.4629 L 45.7031 -24.4629 Z M 29.1992 -67.0898 L 29.4434 -67.0898 L 44.8242 -26.709 L 13.8184 -26.709 Z"/></g><line id="Baseline-S" style="fill:none;stroke:#27AAE1;opacity:1;stroke-width:0.577;" x1="263" x2="3036" y1="696" y2="696"/><line id="Capline-S" style="fill:none;stroke:#27AAE1;opacity:1;stroke-width:0.577;" x1="263" x2="3036" y1="625.541" y2="625.541"/><g id="H-reference" style="fill:#27AAE1;stroke:none;" transform="matrix(1 0 0 1 339 1126)"><path d="M 54.9316 0 L 57.666 0 L 30.5664 -70.459 L 28.0762 -70.459 L 0.976562 0 L 3.66211 0 L 12.9395 -24.4629 L 45.7031 -24.4629 Z M 29.1992 -67.0898 L 29.4434 -67.0898 L 44.8242 -26.709 L 13.8184 -26.709 Z"/></g><line id="Baseline-M" style="fill:none;stroke:#27AAE1;opacity:1;stroke-width:0.577;" x1="263" x2="3036" y1="1126" y2="1126"/><line id="Capline-M" style="fill:none;stroke:#27AAE1;opacity:1;stroke-width:0.577;" x1="263" x2="3036" y1="1055.54" y2="1055.54"/><g id="H-reference" style="fill:#27AAE1;stroke:none;" transform="matrix(1 0 0 1 339 1556)"><path d="M 54.9316 0 L 57.666 0 L 30.5664 -70.459 L 28.0762 -70.459 L 0.976562 0 L 3.66211 0 L 12.9395 -24.4629 L 45.7031 -24.4629 Z M 29.1992 -67.0898 L 29.4434 -67.0898 L 44.8242 -26.709 L 13.8184 -26.709 Z"/></g><line id="Baseline-L" style="fill:none;stroke:#27AAE1;opacity:1;stroke-width:0.577;" x1="263" x2="3036" y1="1556" y2="1556"/><line id="Capline-L" style="fill:none;stroke:#27AAE1;opacity:1;stroke-width:0.577;" x1="263" x2="3036" y1="1485.54" y2="1485.54"/><rect height="119.336" id="left-margin" style="fill:darkred;stroke:none;opacity:0.4;" width="12.4512" x="1394.06" y="1030.79"/><rect height="119.336" id="right-margin" style="fill:darkgreen;stroke:none;opacity:0.4;" width="12.4512" x="1502.5112" y="1030.79"/><rect x="1406.5112" y="1045" width="96" height="96" fill="none" stroke="blue" stroke-dasharray="5"/><rect x="1394.06" y="1030.79" width="120.9024" height="119.336" fill="none" stroke="blue"/></g><g id="Symbols"><g id="Bold-L" transform="matrix(1 0 0 1 2266 1556)"><path d="M75.375 32.656 Q72.962 32.656 70.827 31.205 Q68.692 29.754 67.564 27.174 Q65.468 22.336 61.033 19.756 Q56.599 17.176 51.6 17.176 Q46.122 17.176 41.928 19.837 Q37.733 22.498 35.475 27.013 Q34.172 29.138 32.324 30.897 Q30.476 32.656 27.896 32.656 H23.22 Q20.197 32.656 18.081 30.62 Q15.964 28.585 15.964 25.239 V-88.442 H14.351 Q11.449 -88.442 9.353 -90.721 Q7.256 -92.998 7.256 -96.021 Q7.256 -99.085 9.293 -101.181 Q11.328 -103.277 14.513 -103.277 H140.287 Q143.513 -103.277 145.609 -101.101 Q147.705 -98.924 147.705 -95.779 Q147.705 -92.957 145.689 -90.7 Q143.674 -88.442 140.61 -88.442 H138.998 V25.239 Q138.998 28.585 136.882 30.62 Q134.765 32.656 131.58 32.656 H127.065 Q124.485 32.656 122.563 31.029 Q120.639 29.404 119.486 27.174 Q117.39 22.336 112.956 19.756 Q108.521 17.176 103.361 17.176 Q97.937 17.176 93.635 20.079 Q89.332 22.981 87.075 27.335 Q85.733 29.565 83.905 31.11 Q82.076 32.656 79.503 32.656 H75.375 Z M30.637 11.21 Q33.056 8.469 36.201 6.614 Q39.345 4.76 43.054 3.751 V-88.442 H30.637 V11.21 Z M57.889 3.109 Q61.114 3.954 64.339 5.405 Q67.564 6.856 69.983 9.114 L70.144 -88.442 H57.889 V3.109 Z M84.656 9.114 Q87.075 7.018 90.139 5.486 Q93.203 3.954 97.073 3.27 L96.911 -88.442 H84.817 L84.656 9.114 Z M124.163 10.888 V-88.442 H111.585 V3.913 Q115.294 4.599 118.519 6.453 Q121.744 8.308 124.163 10.888 Z"/></g><g id="Semibold-L" transform="matrix(1 0 0 1 1970.27 1556)"><path d="M75.375 32.306 Q73.174 32.306 71.284 30.995 Q69.394 29.684 68.405 27.383 Q66.169 22.267 61.523 19.371 Q56.879 16.475 51.39 16.475 Q45.563 16.475 41.017 19.416 Q36.47 22.357 34.143 27.222 Q33.05 29.209 31.413 30.757 Q29.775 32.306 27.475 32.306 H22.939 Q20.197 32.306 18.255 30.41 Q16.314 28.515 16.314 25.519 V-89.354 H14.632 Q11.939 -89.354 10.018 -91.387 Q8.098 -93.419 8.098 -96.231 Q8.098 -98.945 9.993 -100.901 Q11.889 -102.857 14.793 -102.857 H140.007 Q142.882 -102.857 144.838 -100.856 Q146.794 -98.854 146.794 -96.06 Q146.794 -93.378 144.883 -91.366 Q142.972 -89.354 140.189 -89.354 H138.577 V25.519 Q138.577 28.515 136.635 30.41 Q134.695 32.306 131.861 32.306 H127.415 Q125.046 32.306 123.369 30.889 Q121.692 29.473 120.678 27.383 Q118.512 22.267 113.797 19.371 Q109.082 16.475 103.502 16.475 Q97.727 16.475 93.144 19.589 Q88.562 22.701 86.233 27.475 Q85.103 29.494 83.448 30.9 Q81.796 32.306 79.503 32.306 H75.375 Z M29.726 12.121 Q32.426 9.17 35.956 7.14 Q39.485 5.11 43.615 4.1 L43.544 -89.354 H29.726 V12.121 Z M57.118 3.53 Q60.833 4.375 64.374 6.002 Q67.914 7.627 70.684 10.165 L70.774 -89.354 H57.047 L57.118 3.53 Z M84.095 10.096 Q86.794 7.719 90.208 6.047 Q93.623 4.375 97.843 3.622 L97.682 -89.354 H84.187 L84.095 10.096 Z M125.074 11.939 V-89.354 H111.095 V4.194 Q115.224 4.949 118.799 7.014 Q122.374 9.078 125.074 11.939 Z"/></g><g id="Medium-L" transform="matrix(1 0 0 1 1674.31 1556)"><path d="M75.375 32.044 Q73.33 32.044 71.626 30.837 Q69.92 29.631 69.036 27.541 Q66.695 22.214 61.893 19.082 Q57.089 15.949 51.232 15.949 Q45.142 15.949 40.333 19.1 Q35.523 22.252 33.143 27.38 Q32.21 29.26 30.729 30.652 Q29.249 32.044 27.159 32.044 H22.73 Q20.197 32.044 18.387 30.252 Q16.576 28.462 16.576 25.729 V-90.037 H14.841 Q12.308 -90.037 10.518 -91.885 Q8.728 -93.735 8.728 -96.389 Q8.728 -98.84 10.518 -100.691 Q12.31 -102.541 15.003 -102.541 H139.797 Q142.408 -102.541 144.259 -100.672 Q146.11 -98.801 146.11 -96.27 Q146.11 -93.694 144.278 -91.866 Q142.447 -90.037 139.873 -90.037 H138.261 V25.729 Q138.261 28.462 136.451 30.252 Q134.642 32.044 132.07 32.044 H127.678 Q125.467 32.044 123.974 30.784 Q122.481 29.526 121.571 27.541 Q119.352 22.214 114.428 19.082 Q109.503 15.949 103.606 15.949 Q97.569 15.949 92.777 19.219 Q87.983 22.491 85.603 27.58 Q84.629 29.443 83.107 30.742 Q81.586 32.044 79.503 32.044 H75.375 Z M29.043 12.805 Q31.952 9.696 35.772 7.535 Q39.59 5.373 44.036 4.363 L43.913 -90.037 H29.043 V12.805 Z M56.539 3.846 Q60.624 4.691 64.4 6.448 Q68.177 8.206 71.21 10.954 L71.248 -90.037 H56.417 L56.539 3.846 Z M83.674 10.831 Q86.585 8.245 90.261 6.468 Q93.939 4.691 98.422 3.884 L98.261 -90.037 H83.713 L83.674 10.831 Z M125.757 12.727 V-90.037 H110.726 V4.404 Q115.171 5.212 119.009 7.435 Q122.848 9.657 125.757 12.727 Z"/></g><g id="Regular-L" transform="matrix(1 0 0 1 1378.56 1556)"><path d="M75.375 31.85 Q73.446 31.85 71.876 30.721 Q70.305 29.593 69.499 27.658 Q67.08 22.175 62.162 18.869 Q57.244 15.564 51.116 15.564 Q44.832 15.564 39.832 18.869 Q34.83 22.175 32.411 27.496 Q31.592 29.299 30.228 30.575 Q28.864 31.85 26.929 31.85 H22.575 Q20.197 31.85 18.484 30.136 Q16.77 28.423 16.77 25.884 V-90.539 H14.996 Q12.578 -90.539 10.884 -92.253 Q9.191 -93.965 9.191 -96.505 Q9.191 -98.762 10.905 -100.536 Q12.618 -102.31 15.158 -102.31 H139.643 Q142.061 -102.31 143.835 -100.536 Q145.609 -98.762 145.609 -96.424 Q145.609 -93.925 143.835 -92.232 Q142.061 -90.539 139.643 -90.539 H138.03 V25.884 Q138.03 28.423 136.318 30.136 Q134.603 31.85 132.225 31.85 H127.871 Q125.775 31.85 124.417 30.707 Q123.058 29.565 122.228 27.658 Q119.97 22.175 114.891 18.869 Q109.811 15.564 103.684 15.564 Q97.453 15.564 92.506 18.95 Q87.559 22.336 85.14 27.658 Q84.282 29.404 82.857 30.626 Q81.431 31.85 79.503 31.85 H75.375 Z M28.541 13.306 Q31.605 10.081 35.636 7.824 Q39.668 5.566 44.344 4.557 L44.183 -90.539 H28.541 V13.306 Z M56.115 4.076 Q60.469 4.921 64.419 6.776 Q68.37 8.63 71.595 11.533 V-90.539 H55.954 L56.115 4.076 Z M83.366 11.371 Q86.43 8.63 90.3 6.776 Q94.17 4.921 98.846 4.076 L98.685 -90.539 H83.366 V11.371 Z M126.259 13.306 V-90.539 H110.456 V4.558 Q115.133 5.405 119.164 7.743 Q123.195 10.081 126.259 13.306 Z"/></g><g id="Light-L" transform="matrix(1 0 0 1 1082.77 1556)"><path d="M76.383 28.686 Q74.501 28.686 72.959 27.582 Q71.419 26.476 70.677 24.557 Q68.259 18.887 63.216 15.49 Q58.174 12.09 51.853 12.09 Q45.392 12.09 40.172 15.49 Q34.954 18.887 32.535 24.457 Q31.768 26.221 30.413 27.454 Q29.059 28.686 27.177 28.686 H24.25 Q22.491 28.686 21.182 27.377 Q19.871 26.066 19.871 24.147 L19.934 -89.67 H17.043 Q15.12 -89.67 13.769 -91.043 Q12.416 -92.416 12.416 -94.459 Q12.416 -96.22 13.79 -97.651 Q15.162 -99.085 17.204 -99.085 H137.596 Q139.518 -99.085 140.95 -97.651 Q142.384 -96.22 142.384 -94.409 Q142.384 -92.374 140.95 -91.022 Q139.518 -89.67 137.596 -89.67 H134.866 V24.086 Q134.866 26.005 133.526 27.346 Q132.185 28.686 130.427 28.686 H127.623 Q125.583 28.686 124.264 27.567 Q122.943 26.447 122.166 24.557 Q119.846 18.887 114.558 15.49 Q109.271 12.09 102.877 12.09 Q96.49 12.09 91.435 15.57 Q86.38 19.048 83.9 24.557 Q83.103 26.24 81.709 27.464 Q80.315 28.686 78.434 28.686 H76.383 Z M29.348 12.748 Q32.474 9.09 36.876 6.614 Q41.28 4.139 46.453 3.265 L46.292 -89.67 H29.348 V12.748 Z M55.867 2.846 Q60.841 3.557 65.195 5.876 Q69.549 8.196 72.774 11.966 V-89.67 H55.705 L55.867 2.846 Z M82.188 11.681 Q85.314 8.196 89.555 5.876 Q93.798 3.557 99.095 2.846 L98.933 -89.67 H82.188 V11.681 Z M125.453 12.748 V-89.67 H108.347 V3.267 Q113.52 3.978 117.924 6.534 Q122.326 9.09 125.453 12.748 Z"/></g><g id="Thin-L" transform="matrix(1 0 0 1 787.282 1556)"><path d="M77.39 25.524 Q75.555 25.524 74.044 24.441 Q72.533 23.359 71.856 21.456 Q69.437 15.601 64.271 12.11 Q59.105 8.617 52.59 8.617 Q45.95 8.617 40.514 12.11 Q35.078 15.601 32.66 21.419 Q31.944 23.143 30.599 24.333 Q29.252 25.524 27.425 25.524 H25.924 Q24.786 25.524 23.88 24.616 Q22.972 23.71 22.972 22.41 L23.096 -88.802 H19.089 Q17.663 -88.802 16.652 -89.834 Q15.641 -90.868 15.641 -92.412 Q15.641 -93.677 16.673 -94.768 Q17.707 -95.86 19.25 -95.86 H135.55 Q136.975 -95.86 138.067 -94.768 Q139.159 -93.677 139.159 -92.393 Q139.159 -90.824 138.067 -89.813 Q136.975 -88.802 135.55 -88.802 H131.704 V22.286 Q131.704 23.586 130.735 24.555 Q129.766 25.524 128.628 25.524 H127.375 Q125.393 25.524 124.109 24.428 Q122.827 23.33 122.103 21.456 Q119.722 15.601 114.226 12.11 Q108.729 8.617 102.071 8.617 Q95.528 8.617 90.364 12.19 Q85.201 15.762 82.66 21.456 Q81.925 23.078 80.562 24.3 Q79.198 25.524 77.363 25.524 H77.39 Z M30.154 12.19 Q33.342 8.096 38.116 5.405 Q42.892 2.714 48.56 1.974 L48.399 -88.802 H30.154 V12.19 Z M55.618 1.617 Q61.214 2.193 65.971 4.978 Q70.727 7.762 73.952 12.4 V-88.802 H55.457 L55.618 1.617 Z M81.009 11.992 Q84.197 7.762 88.812 4.978 Q93.425 2.193 99.343 1.617 L99.182 -88.802 H81.009 V11.992 Z M124.646 12.19 V-88.802 H106.24 V1.975 Q111.907 2.552 116.684 5.324 Q121.458 8.096 124.646 12.19 Z"/></g><g id="Ultralight-L" transform="matrix(1 0 0 1 491.205 1556)"><path d="M77.995 23.626 Q76.187 23.626 74.694 22.557 Q73.201 21.488 72.562 19.595 Q70.144 13.629 64.903 10.081 Q59.663 6.534 53.032 6.534 Q46.284 6.534 40.719 10.081 Q35.153 13.629 32.734 19.595 Q32.048 21.296 30.71 22.46 Q29.37 23.626 27.574 23.626 H26.929 Q26.163 23.626 25.498 22.96 Q24.832 22.296 24.832 21.369 L24.994 -88.281 H20.317 Q19.189 -88.281 18.383 -89.11 Q17.576 -89.939 17.576 -91.184 Q17.576 -92.151 18.405 -93.038 Q19.234 -93.925 20.479 -93.925 H134.321 Q135.45 -93.925 136.337 -93.038 Q137.224 -92.151 137.224 -91.184 Q137.224 -89.894 136.337 -89.087 Q135.45 -88.281 134.321 -88.281 H129.806 V21.208 Q129.806 22.135 129.061 22.88 Q128.315 23.626 127.549 23.626 H127.226 Q125.278 23.626 124.017 22.543 Q122.758 21.461 122.066 19.595 Q119.648 13.629 114.026 10.081 Q108.405 6.534 101.588 6.534 Q94.95 6.534 89.723 10.162 Q84.495 13.79 81.915 19.595 Q81.218 21.18 79.874 22.402 Q78.529 23.626 76.723 23.626 H77.995 Z M30.637 11.855 Q33.863 7.501 38.861 4.679 Q43.86 1.858 49.826 1.2 L49.665 -88.281 H30.637 V11.855 Z M55.47 0.879 Q61.436 1.374 66.435 4.438 Q71.434 7.501 74.659 12.661 V-88.281 H55.309 L55.47 0.879 Z M80.303 12.178 Q83.528 7.501 88.365 4.438 Q93.203 1.374 99.491 0.879 L99.33 -88.281 H80.303 V12.178 Z M124.163 11.855 V-88.281 H104.974 V1.2 Q110.94 1.696 115.939 4.599 Q120.938 7.501 124.163 11.855 Z"/></g><g id="Bold-M" transform="matrix(1 0 0 1 2281.8 1126)"><path d="M58.5 20.52 Q55.5 20.52 53.312 18.583 Q51.125 16.645 49.625 13.895 Q48.25 11.145 45.5 9.645 Q42.75 8.145 39.5 8.145 Q36.25 8.145 33.75 9.645 Q31.25 11.145 29.75 13.77 Q28.125 16.395 25.938 18.458 Q23.75 20.52 20.625 20.52 H17.625 Q14.125 20.52 11.625 18.083 Q9.125 15.645 9.125 12.02 V-73.98 H9.375 Q6 -73.98 3.5 -76.542 Q1 -79.105 1 -82.605 Q1 -86.23 3.438 -88.605 Q5.875 -90.98 9.375 -90.98 H110.5 Q114.125 -90.98 116.562 -88.48 Q119 -85.98 119 -82.355 Q119 -78.98 116.625 -76.48 Q114.25 -73.98 110.875 -73.98 H110.75 V12.02 Q110.75 15.645 108.312 18.083 Q105.875 20.52 102.25 20.52 H99.5 Q96.5 20.52 94.25 18.52 Q92 16.52 90.625 13.77 Q89.375 11.145 86.688 9.645 Q84 8.145 80.625 8.145 Q77.375 8.145 74.688 9.77 Q72 11.395 70.375 14.02 Q68.75 16.645 66.562 18.583 Q64.375 20.52 61.5 20.52 H58.5 Z M26.125 -5.605 Q27.25 -6.23 28.312 -6.73 Q29.375 -7.23 30.5 -7.605 V-73.98 H26.125 V-5.605 Z M47.5 -7.98 Q48.5 -7.48 49.562 -7.167 Q50.625 -6.855 51.5 -6.48 V-73.98 H47.5 V-7.98 Z M68.5 -6.48 Q69.5 -6.73 70.5 -7.105 Q71.5 -7.48 72.625 -7.855 L72.5 -73.98 H68.5 V-6.48 Z M93.75 -5.855 V-73.98 H89.5 V-7.605 Q90.625 -7.23 91.688 -6.792 Q92.75 -6.355 93.75 -5.855 Z"/></g><g id="Semibold-M" transform="matrix(1 0 0 1 1985.97 1126)"><path d="M58.446 19.759 Q55.771 19.759 53.829 18.066 Q51.886 16.374 50.604 13.895 Q49.065 10.819 46.044 9.048 Q43.021 7.275 39.391 7.275 Q35.706 7.275 32.854 9.048 Q30 10.819 28.391 13.824 Q27.038 16.178 25.067 17.969 Q23.098 19.759 20.407 19.759 H17.571 Q14.396 19.759 12.141 17.539 Q9.886 15.319 9.886 12.074 V-74.85 H10.027 Q6.924 -74.85 4.669 -77.112 Q2.413 -79.376 2.413 -82.605 Q2.413 -85.85 4.633 -88.035 Q6.854 -90.219 10.027 -90.219 H109.847 Q113.093 -90.219 115.312 -87.964 Q117.532 -85.709 117.532 -82.464 Q117.532 -79.306 115.347 -77.077 Q113.162 -74.85 110.06 -74.85 H109.989 V12.074 Q109.989 15.319 107.769 17.539 Q105.549 19.759 102.304 19.759 H99.662 Q96.989 19.759 95.011 18.031 Q93.032 16.303 91.82 13.824 Q90.407 10.819 87.421 9.048 Q84.435 7.275 80.679 7.275 Q77.049 7.275 74.062 9.118 Q71.076 10.96 69.396 13.966 Q68.044 16.319 66.074 18.039 Q64.104 19.759 61.554 19.759 H58.446 Z M25.255 -4.41 Q26.706 -5.306 28.204 -5.969 Q29.701 -6.632 31.315 -7.116 L31.261 -74.85 H25.255 V-4.41 Z M46.685 -7.382 Q48.174 -6.827 49.644 -6.325 Q51.114 -5.822 52.37 -5.121 L52.315 -74.85 H46.63 L46.685 -7.382 Z M67.739 -5.176 Q69.065 -5.751 70.5 -6.317 Q71.935 -6.882 73.495 -7.311 L73.37 -74.85 H67.685 L67.739 -5.176 Z M94.62 -4.551 V-74.85 H88.739 V-7.116 Q90.299 -6.632 91.796 -6.005 Q93.294 -5.376 94.62 -4.551 Z"/></g><g id="Medium-M" transform="matrix(1 0 0 1 1689.91 1126)"><path d="M58.405 19.189 Q55.975 19.189 54.216 17.679 Q52.456 16.17 51.337 13.895 Q49.676 10.574 46.451 8.599 Q43.225 6.624 39.31 6.624 Q35.299 6.624 32.181 8.599 Q29.062 10.574 27.372 13.865 Q26.223 16.015 24.416 17.601 Q22.609 19.189 20.245 19.189 H17.53 Q14.6 19.189 12.529 17.131 Q10.456 15.074 10.456 12.115 V-75.501 H10.516 Q7.616 -75.501 5.545 -77.541 Q3.473 -79.58 3.473 -82.605 Q3.473 -85.564 5.53 -87.606 Q7.588 -89.649 10.516 -89.649 H109.359 Q112.317 -89.649 114.375 -87.576 Q116.433 -85.505 116.433 -82.545 Q116.433 -79.551 114.39 -77.526 Q112.347 -75.501 109.449 -75.501 H109.419 V12.115 Q109.419 15.074 107.361 17.131 Q105.304 19.189 102.345 19.189 H99.785 Q97.356 19.189 95.581 17.664 Q93.808 16.14 92.718 13.865 Q91.183 10.574 87.971 8.599 Q84.761 6.624 80.72 6.624 Q76.804 6.624 73.594 8.629 Q70.384 10.634 68.662 13.925 Q67.514 16.074 65.706 17.631 Q63.9 19.189 61.595 19.189 H58.405 Z M24.604 -3.512 Q26.299 -4.614 28.122 -5.399 Q29.946 -6.184 31.926 -6.749 L31.831 -75.501 H24.604 V-3.512 Z M46.074 -6.934 Q47.929 -6.339 49.705 -5.694 Q51.481 -5.047 53.021 -4.102 L52.926 -75.501 H45.979 L46.074 -6.934 Z M67.169 -4.197 Q68.739 -5.017 70.5 -5.726 Q72.261 -6.434 74.146 -6.904 L74.021 -75.501 H67.074 L67.169 -4.197 Z M95.271 -3.572 V-75.501 H88.169 V-6.749 Q90.054 -6.184 91.877 -5.414 Q93.701 -4.642 95.271 -3.572 Z"/></g><g id="Regular-M" transform="matrix(1 0 0 1 1394.06 1126)"><path d="M58.375 18.77 Q56.125 18.77 54.5 17.395 Q52.875 16.02 51.875 13.895 Q50.125 10.395 46.75 8.27 Q43.375 6.145 39.25 6.145 Q35 6.145 31.688 8.27 Q28.375 10.395 26.625 13.895 Q25.625 15.895 23.938 17.333 Q22.25 18.77 20.125 18.77 H17.5 Q14.75 18.77 12.812 16.833 Q10.875 14.895 10.875 12.145 V-75.98 Q8.125 -75.98 6.188 -77.855 Q4.25 -79.73 4.25 -82.605 Q4.25 -85.355 6.188 -87.292 Q8.125 -89.23 10.875 -89.23 H109 Q111.75 -89.23 113.688 -87.292 Q115.625 -85.355 115.625 -82.605 Q115.625 -79.73 113.688 -77.855 Q111.75 -75.98 109 -75.98 V12.145 Q109 14.895 107.062 16.833 Q105.125 18.77 102.375 18.77 H99.875 Q97.625 18.77 96 17.395 Q94.375 16.02 93.375 13.895 Q91.75 10.395 88.375 8.27 Q85 6.145 80.75 6.145 Q76.625 6.145 73.25 8.27 Q69.875 10.395 68.125 13.895 Q67.125 15.895 65.438 17.333 Q63.75 18.77 61.625 18.77 H58.375 Z M24.125 -2.855 Q26 -4.105 28.062 -4.98 Q30.125 -5.855 32.375 -6.48 L32.25 -75.98 H24.125 V-2.855 Z M45.625 -6.605 Q47.75 -5.98 49.75 -5.23 Q51.75 -4.48 53.5 -3.355 L53.375 -75.98 H45.5 L45.625 -6.605 Z M66.75 -3.48 Q68.5 -4.48 70.5 -5.292 Q72.5 -6.105 74.625 -6.605 L74.5 -75.98 H66.625 L66.75 -3.48 Z M95.75 -2.855 V-75.98 H87.75 V-6.48 Q89.875 -5.855 91.938 -4.98 Q94 -4.105 95.75 -2.855 Z"/></g><g id="Light-M" transform="matrix(1 0 0 1 1098.18 1126)"><path d="M59.289 16.318 Q57.135 16.318 55.606 15.015 Q54.078 13.713 53.174 11.684 Q51.375 7.846 47.831 5.481 Q44.289 3.116 39.828 3.116 Q35.24 3.116 31.64 5.458 Q28.039 7.799 26.289 11.684 Q25.385 13.588 23.794 14.953 Q22.203 16.318 20.221 16.318 H18.461 Q16.289 16.318 14.784 14.813 Q13.279 13.309 13.279 11.135 L13.328 -75.98 H12.125 Q9.953 -75.98 8.351 -77.495 Q6.75 -79.009 6.75 -81.355 Q6.75 -83.527 8.328 -85.129 Q9.904 -86.73 12.125 -86.73 H107.75 Q109.922 -86.73 111.524 -85.129 Q113.125 -83.527 113.125 -81.355 Q113.125 -79.009 111.524 -77.495 Q109.922 -75.98 107.75 -75.98 H106.547 V11.088 Q106.547 13.26 105.019 14.789 Q103.49 16.318 101.317 16.318 H99.779 Q97.672 16.318 96.169 15.015 Q94.664 13.713 93.76 11.684 Q92.135 7.799 88.448 5.458 Q84.76 3.116 80.125 3.116 Q75.711 3.116 72.12 5.481 Q68.529 7.846 66.779 11.684 Q65.875 13.588 64.308 14.953 Q62.74 16.318 60.711 16.318 H59.289 Z M24.078 -2.23 Q26.096 -4.105 28.688 -5.365 Q31.279 -6.624 34.154 -7.154 L34.029 -75.98 H24.078 V-2.23 Z M44.904 -7.326 Q47.797 -6.797 50.351 -5.542 Q52.904 -4.287 54.75 -2.297 L54.625 -75.98 H44.779 L44.904 -7.326 Z M65.5 -2.519 Q67.394 -4.287 69.922 -5.605 Q72.453 -6.922 75.299 -7.326 L75.174 -75.98 H65.375 L65.5 -2.519 Z M95.797 -2.23 V-75.98 H85.922 V-7.201 Q88.721 -6.672 91.312 -5.389 Q93.904 -4.105 95.797 -2.23 Z"/></g><g id="Thin-M" transform="matrix(1 0 0 1 802.565 1126)"><path d="M60.203 13.866 Q58.144 13.866 56.711 12.635 Q55.279 11.405 54.471 9.473 Q52.625 5.299 48.914 2.693 Q45.203 0.088 40.404 0.088 Q35.481 0.088 31.591 2.645 Q27.703 5.203 25.953 9.473 Q25.144 11.28 23.649 12.573 Q22.154 13.866 20.317 13.866 H19.422 Q17.828 13.866 16.755 12.794 Q15.682 11.723 15.682 10.126 L15.779 -75.98 H13.375 Q11.779 -75.98 10.515 -77.134 Q9.25 -78.287 9.25 -80.105 Q9.25 -81.701 10.466 -82.965 Q11.682 -84.23 13.375 -84.23 H106.5 Q108.096 -84.23 109.36 -82.965 Q110.625 -81.701 110.625 -80.105 Q110.625 -78.287 109.36 -77.134 Q108.096 -75.98 106.5 -75.98 H104.096 V10.03 Q104.096 11.626 102.976 12.746 Q101.856 13.866 100.26 13.866 H99.683 Q97.721 13.866 96.336 12.635 Q94.953 11.405 94.144 9.473 Q92.519 5.203 88.519 2.645 Q84.519 0.088 79.5 0.088 Q74.797 0.088 70.99 2.693 Q67.183 5.299 65.433 9.473 Q64.625 11.28 63.178 12.573 Q61.731 13.866 59.797 13.866 H60.203 Z M24.029 -1.605 Q26.192 -4.105 29.312 -5.749 Q32.432 -7.394 35.932 -7.826 L35.807 -75.98 H24.029 V-1.605 Z M44.182 -8.047 Q47.846 -7.615 50.953 -5.855 Q54.057 -4.095 56 -1.24 L55.875 -75.98 H44.057 L44.182 -8.047 Z M64.25 -1.557 Q66.289 -4.095 69.346 -5.917 Q72.404 -7.74 75.971 -8.047 L75.846 -75.98 H64.125 L64.25 -1.557 Z M95.846 -1.605 V-75.98 H84.096 V-7.922 Q87.567 -7.49 90.688 -5.797 Q93.808 -4.105 95.846 -1.605 Z"/></g><g id="Ultralight-M" transform="matrix(1 0 0 1 506.415 1126)"><path d="M60.75 12.395 Q58.75 12.395 57.375 11.208 Q56 10.02 55.25 8.145 Q53.375 3.77 49.562 1.02 Q45.75 -1.73 40.75 -1.73 Q35.625 -1.73 31.562 0.958 Q27.5 3.645 25.75 8.145 Q25 9.895 23.562 11.145 Q22.125 12.395 20.375 12.395 H20 Q18.75 12.395 17.938 11.583 Q17.125 10.77 17.125 9.52 L17.25 -75.98 H14.125 Q12.875 -75.98 11.812 -76.917 Q10.75 -77.855 10.75 -79.355 Q10.75 -80.605 11.75 -81.667 Q12.75 -82.73 14.125 -82.73 H105.75 Q107 -82.73 108.062 -81.667 Q109.125 -80.605 109.125 -79.355 Q109.125 -77.855 108.062 -76.917 Q107 -75.98 105.75 -75.98 H102.625 V9.395 Q102.625 10.645 101.75 11.52 Q100.875 12.395 99.625 12.395 Q97.75 12.395 96.438 11.208 Q95.125 10.02 94.375 8.145 Q92.75 3.645 88.562 0.958 Q84.375 -1.73 79.125 -1.73 Q74.25 -1.73 70.312 1.02 Q66.375 3.77 64.625 8.145 Q63.875 9.895 62.5 11.145 Q61.125 12.395 59.25 12.395 H60.75 Z M24 -1.23 Q26.25 -4.105 29.688 -5.98 Q33.125 -7.855 37 -8.23 L36.875 -75.98 H24 V-1.23 Z M43.75 -8.48 Q47.875 -8.105 51.312 -6.042 Q54.75 -3.98 56.75 -0.605 L56.625 -75.98 H43.625 L43.75 -8.48 Z M63.5 -0.98 Q65.625 -3.98 69 -6.105 Q72.375 -8.23 76.375 -8.48 L76.25 -75.98 H63.375 L63.5 -0.98 Z M95.875 -1.23 V-75.98 H83 V-8.355 Q86.875 -7.98 90.312 -6.042 Q93.75 -4.105 95.875 -1.23 Z"/></g><g id="Bold-S" transform="matrix(1 0 0 1 2294.23 696)"><path d="M46.452 7.179 Q44.085 7.179 42.474 5.715 Q40.862 4.253 39.751 2.183 Q38.858 0.275 36.935 -0.761 Q35.012 -1.796 32.735 -1.796 Q30.475 -1.796 28.766 -0.776 Q27.058 0.244 26.037 2.05 Q24.854 3.924 23.221 5.551 Q21.589 7.179 19.232 7.179 H15.879 Q13.285 7.179 11.426 5.369 Q9.567 3.559 9.567 0.867 V-65.015 H8.58 Q6.213 -65.015 4.29 -66.923 Q2.367 -68.832 2.367 -71.425 Q2.367 -73.99 4.177 -75.814 Q5.987 -77.639 8.58 -77.639 H86.001 Q88.565 -77.639 90.439 -75.716 Q92.313 -73.792 92.313 -71.179 Q92.313 -68.762 90.488 -66.889 Q88.664 -65.015 86.297 -65.015 H85.015 V0.867 Q85.015 3.559 83.205 5.369 Q81.395 7.179 78.703 7.179 H75.547 Q73.18 7.179 71.588 5.68 Q69.996 4.18 69.022 2.131 Q68.347 0.374 66.375 -0.711 Q64.402 -1.796 62.074 -1.796 Q59.865 -1.796 57.942 -0.613 Q56.019 0.571 55.016 2.328 Q53.832 4.278 52.263 5.729 Q50.693 7.179 48.425 7.179 H46.452 Z M22.191 -11.264 Q22.98 -11.856 23.719 -12.398 Q24.459 -12.941 25.347 -13.232 V-65.015 H22.191 V-11.264 Z M37.971 -13.927 Q38.661 -13.631 39.499 -13.434 Q40.338 -13.237 40.929 -12.941 V-65.015 H37.971 V-13.927 Z M53.652 -12.941 Q54.441 -13.039 55.131 -13.335 Q55.822 -13.631 56.611 -13.828 L56.512 -65.015 H53.652 V-12.941 Z M72.391 -11.461 V-65.015 H69.235 V-13.329 Q70.122 -13.039 70.911 -12.497 Q71.7 -11.954 72.391 -11.461 Z"/></g><g id="Semibold-S" transform="matrix(1 0 0 1 1998.1 696)"><path d="M46.41 6.578 Q44.299 6.578 42.881 5.308 Q41.462 4.038 40.522 2.183 Q39.501 0.018 37.364 -1.232 Q35.226 -2.483 32.649 -2.483 Q30.046 -2.483 28.059 -1.248 Q26.072 -0.013 24.965 2.093 Q23.995 3.753 22.535 5.166 Q21.074 6.578 19.06 6.578 H15.836 Q13.499 6.578 11.833 4.94 Q10.167 3.302 10.167 0.909 V-65.701 H9.095 Q6.942 -65.701 5.212 -67.373 Q3.481 -69.046 3.481 -71.425 Q3.481 -73.69 5.12 -75.364 Q6.759 -77.038 9.095 -77.038 H85.486 Q87.751 -77.038 89.453 -75.308 Q91.155 -73.578 91.155 -71.265 Q91.155 -69.02 89.48 -67.36 Q87.806 -65.701 85.654 -65.701 H84.414 V0.909 Q84.414 3.302 82.776 4.94 Q81.138 6.578 78.745 6.578 H75.675 Q73.565 6.578 72.189 5.293 Q70.811 4.008 69.965 2.174 Q69.162 0.116 66.954 -1.183 Q64.745 -2.483 62.117 -2.483 Q59.608 -2.483 57.449 -1.127 Q55.29 0.228 54.245 2.285 Q53.275 4.021 51.877 5.3 Q50.479 6.578 48.467 6.578 H46.41 Z M21.504 -10.321 Q22.551 -11.127 23.634 -11.798 Q24.716 -12.469 25.99 -12.845 L25.947 -65.701 H21.504 V-10.321 Z M37.328 -13.456 Q38.404 -13.116 39.563 -12.769 Q40.723 -12.422 41.616 -11.869 L41.572 -65.701 H37.284 L37.328 -13.456 Z M53.051 -11.912 Q54.098 -12.267 55.131 -12.714 Q56.165 -13.16 57.297 -13.399 L57.199 -65.701 H53.009 L53.051 -11.912 Z M73.077 -10.433 V-65.701 H68.634 V-12.944 Q69.865 -12.568 70.997 -11.876 Q72.129 -11.182 73.077 -10.433 Z"/></g><g id="Medium-S" transform="matrix(1 0 0 1 1701.85 696)"><path d="M46.377 6.128 Q44.46 6.128 43.187 5.003 Q41.913 3.877 41.101 2.183 Q39.984 -0.176 37.686 -1.586 Q35.387 -2.996 32.585 -2.996 Q29.725 -2.996 27.528 -1.601 Q25.332 -0.206 24.161 2.125 Q23.352 3.624 22.021 4.876 Q20.689 6.128 18.932 6.128 H15.804 Q13.66 6.128 12.139 4.618 Q10.617 3.108 10.617 0.942 V-66.215 H9.481 Q7.489 -66.215 5.904 -67.711 Q4.318 -69.206 4.318 -71.425 Q4.318 -73.464 5.828 -75.026 Q7.338 -76.588 9.481 -76.588 H85.101 Q87.139 -76.588 88.713 -75.003 Q90.287 -73.418 90.287 -71.329 Q90.287 -69.213 88.725 -67.714 Q87.163 -66.215 85.172 -66.215 H83.964 V0.942 Q83.964 3.108 82.454 4.618 Q80.944 6.128 78.778 6.128 H75.772 Q73.855 6.128 72.638 5.004 Q71.422 3.88 70.673 2.206 Q69.773 -0.077 67.388 -1.537 Q65.003 -2.996 62.149 -2.996 Q59.415 -2.996 57.079 -1.513 Q54.744 -0.03 53.666 2.253 Q52.857 3.828 51.588 4.978 Q50.318 6.128 48.5 6.128 H46.377 Z M20.99 -9.613 Q22.229 -10.581 23.569 -11.348 Q24.91 -12.115 26.472 -12.556 L26.397 -66.215 H20.99 V-9.613 Z M36.845 -13.102 Q38.21 -12.731 39.612 -12.271 Q41.013 -11.811 42.13 -11.065 L42.055 -66.215 H36.77 L36.845 -13.102 Z M52.602 -11.14 Q53.84 -11.688 55.131 -12.247 Q56.422 -12.806 57.811 -13.078 L57.712 -66.215 H52.527 L52.602 -11.14 Z M73.591 -9.66 V-66.215 H68.184 V-12.654 Q69.672 -12.214 71.061 -11.409 Q72.451 -10.603 73.591 -9.66 Z"/></g><g id="Regular-S" transform="matrix(1 0 0 1 1405.73 696)"><path d="M46.354 5.798 Q44.579 5.798 43.411 4.778 Q42.243 3.759 41.526 2.183 Q40.338 -0.317 37.921 -1.845 Q35.505 -3.374 32.537 -3.374 Q29.489 -3.374 27.139 -1.861 Q24.789 -0.347 23.571 2.149 Q22.881 3.53 21.643 4.664 Q20.406 5.798 18.837 5.798 H15.78 Q13.778 5.798 12.363 4.383 Q10.947 2.967 10.947 0.965 V-66.593 H9.764 Q7.89 -66.593 6.411 -67.959 Q4.931 -69.325 4.931 -71.425 Q4.931 -73.299 6.347 -74.779 Q7.762 -76.258 9.764 -76.258 H84.818 Q86.691 -76.258 88.171 -74.779 Q89.65 -73.299 89.65 -71.376 Q89.65 -69.354 88.171 -67.973 Q86.691 -66.593 84.818 -66.593 H83.634 V0.965 Q83.634 2.967 82.219 4.383 Q80.803 5.798 78.801 5.798 H75.843 Q74.067 5.798 72.969 4.792 Q71.87 3.785 71.191 2.23 Q70.221 -0.218 67.706 -1.796 Q65.191 -3.374 62.172 -3.374 Q59.274 -3.374 56.808 -1.796 Q54.342 -0.218 53.241 2.23 Q52.55 3.686 51.376 4.743 Q50.2 5.798 48.524 5.798 H46.354 Z M20.613 -9.094 Q21.993 -10.179 23.522 -11.018 Q25.051 -11.856 26.826 -12.344 L26.727 -66.593 H20.613 V-9.094 Z M36.491 -12.842 Q38.069 -12.448 39.647 -11.905 Q41.225 -11.363 42.507 -10.475 L42.409 -66.593 H36.393 L36.491 -12.842 Z M52.271 -10.574 Q53.652 -11.264 55.131 -11.905 Q56.611 -12.546 58.189 -12.842 L58.09 -66.593 H52.173 L52.271 -10.574 Z M73.969 -9.094 V-66.593 H67.854 V-12.442 Q69.531 -11.954 71.109 -11.067 Q72.687 -10.179 73.969 -9.094 Z"/></g><g id="Light-S" transform="matrix(1 0 0 1 1109.75 696)"><path d="M47.075 3.863 Q45.375 3.863 44.284 2.9 Q43.191 1.938 42.55 0.438 Q41.324 -2.328 38.774 -4.046 Q36.226 -5.764 32.992 -5.764 Q29.678 -5.764 27.101 -4.08 Q24.523 -2.396 23.306 0.404 Q22.692 1.709 21.53 2.786 Q20.368 3.863 18.913 3.863 H16.538 Q14.992 3.863 13.918 2.789 Q12.844 1.716 12.844 0.168 L12.882 -66.593 H10.75 Q9.332 -66.593 8.118 -67.675 Q6.904 -68.756 6.904 -70.439 Q6.904 -71.857 8.035 -73.071 Q9.165 -74.285 10.75 -74.285 H83.831 Q85.249 -74.285 86.464 -73.071 Q87.678 -71.857 87.678 -70.39 Q87.678 -68.785 86.464 -67.689 Q85.249 -66.593 83.831 -66.593 H81.699 V0.131 Q81.699 1.677 80.606 2.77 Q79.513 3.863 77.967 3.863 H75.767 Q74.105 3.863 73.102 2.914 Q72.098 1.964 71.494 0.484 Q70.525 -2.267 67.763 -4.015 Q65.002 -5.764 61.679 -5.764 Q58.553 -5.764 55.916 -3.996 Q53.28 -2.229 52.179 0.484 Q51.564 1.866 50.484 2.865 Q49.403 3.863 47.803 3.863 H47.075 Z M20.575 -8.601 Q22.069 -10.179 24.015 -11.321 Q25.961 -12.462 28.229 -12.875 L28.131 -66.593 H20.575 V-8.601 Z M35.922 -13.411 Q38.107 -13.093 40.122 -12.152 Q42.136 -11.211 43.494 -9.641 L43.395 -66.593 H35.824 L35.922 -13.411 Z M51.285 -9.815 Q52.779 -11.112 54.676 -12.152 Q56.573 -13.191 58.72 -13.411 L58.622 -66.593 H51.186 L51.285 -9.815 Z M74.006 -8.601 V-66.593 H66.412 V-13.011 Q68.62 -12.6 70.615 -11.389 Q72.611 -10.179 74.006 -8.601 Z"/></g><g id="Thin-S" transform="matrix(1 0 0 1 814.015 696)"><path d="M47.796 1.929 Q46.171 1.929 45.155 1.024 Q44.14 0.117 43.574 -1.307 Q42.31 -4.338 39.629 -6.246 Q36.947 -8.153 33.448 -8.153 Q29.869 -8.153 27.063 -6.298 Q24.258 -4.444 23.041 -1.34 Q22.501 -0.112 21.415 0.908 Q20.33 1.929 18.989 1.929 H17.297 Q16.206 1.929 15.473 1.196 Q14.74 0.464 14.74 -0.627 L14.816 -66.593 H11.736 Q10.773 -66.593 9.825 -67.39 Q8.876 -68.187 8.876 -69.453 Q8.876 -70.416 9.722 -71.364 Q10.569 -72.313 11.736 -72.313 H82.845 Q83.809 -72.313 84.756 -71.364 Q85.705 -70.416 85.705 -69.404 Q85.705 -68.216 84.756 -67.404 Q83.809 -66.593 82.845 -66.593 H79.765 V-0.703 Q79.765 0.388 78.995 1.159 Q78.224 1.929 77.133 1.929 H75.691 Q74.143 1.929 73.234 1.036 Q72.326 0.144 71.798 -1.261 Q70.828 -4.315 67.819 -6.234 Q64.811 -8.153 61.186 -8.153 Q57.832 -8.153 55.025 -6.197 Q52.218 -4.239 51.116 -1.261 Q50.578 0.045 49.593 0.987 Q48.607 1.929 47.082 1.929 H47.796 Z M20.537 -8.108 Q22.145 -10.179 24.508 -11.624 Q26.871 -13.07 29.633 -13.406 L29.534 -66.593 H20.537 V-8.108 Z M35.353 -13.98 Q38.145 -13.738 40.596 -12.398 Q43.046 -11.059 44.48 -8.806 L44.381 -66.593 H35.254 L35.353 -13.98 Z M50.299 -9.057 Q51.907 -10.96 54.221 -12.398 Q56.535 -13.836 59.251 -13.98 L59.152 -66.593 H50.2 L50.299 -9.057 Z M74.045 -8.108 V-66.593 H64.971 V-13.58 Q67.71 -13.245 70.122 -11.712 Q72.535 -10.179 74.045 -8.108 Z"/></g><g id="Ultralight-S" transform="matrix(1 0 0 1 517.792 696)"><path d="M48.228 0.768 Q46.65 0.768 45.679 -0.104 Q44.709 -0.975 44.189 -2.353 Q42.902 -5.544 40.14 -7.566 Q37.379 -9.587 33.721 -9.587 Q29.982 -9.587 27.04 -7.631 Q24.099 -5.673 22.881 -2.388 Q22.388 -1.204 21.347 -0.218 Q20.307 0.768 19.035 0.768 H17.753 Q16.934 0.768 16.406 0.24 Q15.879 -0.287 15.879 -1.106 L15.977 -66.593 H12.328 Q11.638 -66.593 10.849 -67.219 Q10.06 -67.845 10.06 -68.861 Q10.06 -69.551 10.735 -70.34 Q11.411 -71.129 12.328 -71.129 H82.253 Q82.944 -71.129 83.733 -70.34 Q84.522 -69.551 84.522 -68.812 Q84.522 -67.875 83.733 -67.234 Q82.944 -66.593 82.253 -66.593 H78.604 V-1.204 Q78.604 -0.386 78.027 0.191 Q77.45 0.768 76.632 0.768 H75.645 Q74.166 0.768 73.314 -0.09 Q72.462 -0.949 71.98 -2.307 Q71.01 -5.544 67.854 -7.566 Q64.698 -9.587 60.89 -9.587 Q57.4 -9.587 54.49 -7.516 Q51.581 -5.445 50.479 -2.307 Q49.986 -1.048 49.058 -0.139 Q48.129 0.768 46.65 0.768 H48.228 Z M20.514 -7.812 Q22.191 -10.179 24.804 -11.807 Q27.418 -13.434 30.475 -13.725 L30.377 -66.593 H20.514 V-7.812 Z M35.012 -14.321 Q38.168 -14.124 40.88 -12.546 Q43.592 -10.968 45.072 -8.305 L44.973 -66.593 H34.913 L35.012 -14.321 Z M49.707 -8.601 Q51.384 -10.87 53.948 -12.546 Q56.512 -14.223 59.57 -14.321 L59.471 -66.593 H49.608 L49.707 -8.601 Z M74.067 -7.812 V-66.593 H64.106 V-13.921 Q67.164 -13.631 69.827 -11.905 Q72.489 -10.179 74.067 -7.812 Z"/></g></g></svg>