<svg xmlns="http://www.w3.org/2000/svg" version="1.1" width="3300" height="2000"><g id="Notes"><style>
    text {
      font-family: monospace;
      text-anchor: middle;
    }
    text.emphasis {
      font-weight:bold;
    }
    text.lanchor {
      text-anchor: start;
    }
  </style><rect height="2200" id="artboard" fill="white" width="3300" x="0" y="0"/><line id="" style="fill:none;stroke:black;stroke-width:0.5;" x1="263" x2="3036" y1="292" y2="292"/><text class="lanchor emphasis" transform="matrix(1 0 0 1 263 322)">Weight/Scale Variations</text><text transform="matrix(1 0 0 1 559.711 322)">Ultralight</text><text transform="matrix(1 0 0 1 856.422 322)">Thin</text><text transform="matrix(1 0 0 1 1153.13 322)">Light</text><text transform="matrix(1 0 0 1 1449.84 322)">Regular</text><text transform="matrix(1 0 0 1 1746.56 322)">Medium</text><text transform="matrix(1 0 0 1 2043.27 322)">Semibold</text><text transform="matrix(1 0 0 1 2339.98 322)">Bold</text><text transform="matrix(1 0 0 1 2636.69 322)">Heavy</text><text transform="matrix(1 0 0 1 2933.4 322)">Black</text><text id="template-version" style="text-anchor: end;" transform="matrix(1 0 0 1 3036 1933)">Template v.1.0</text><text class="lanchor" transform="matrix(1 0 0 1 263 726)">Small</text><text class="lanchor" transform="matrix(1 0 0 1 263 1156)">Medium</text><text class="lanchor" transform="matrix(1 0 0 1 263 1586)">Large</text></g><g id="Guides"><g id="H-reference" style="fill:#27AAE1;stroke:none;" transform="matrix(1 0 0 1 339 696)"><path d="M 54.9316 0 L 57.666 0 L 30.5664 -70.459 L 28.0762 -70.459 L 0.976562 0 L 3.66211 0 L 12.9395 -24.4629 L 45.7031 -24.4629 Z M 29.1992 -67.0898 L 29.4434 -67.0898 L 44.8242 -26.709 L 13.8184 -26.709 Z"/></g><line id="Baseline-S" style="fill:none;stroke:#27AAE1;opacity:1;stroke-width:0.577;" x1="263" x2="3036" y1="696" y2="696"/><line id="Capline-S" style="fill:none;stroke:#27AAE1;opacity:1;stroke-width:0.577;" x1="263" x2="3036" y1="625.541" y2="625.541"/><g id="H-reference" style="fill:#27AAE1;stroke:none;" transform="matrix(1 0 0 1 339 1126)"><path d="M 54.9316 0 L 57.666 0 L 30.5664 -70.459 L 28.0762 -70.459 L 0.976562 0 L 3.66211 0 L 12.9395 -24.4629 L 45.7031 -24.4629 Z M 29.1992 -67.0898 L 29.4434 -67.0898 L 44.8242 -26.709 L 13.8184 -26.709 Z"/></g><line id="Baseline-M" style="fill:none;stroke:#27AAE1;opacity:1;stroke-width:0.577;" x1="263" x2="3036" y1="1126" y2="1126"/><line id="Capline-M" style="fill:none;stroke:#27AAE1;opacity:1;stroke-width:0.577;" x1="263" x2="3036" y1="1055.54" y2="1055.54"/><g id="H-reference" style="fill:#27AAE1;stroke:none;" transform="matrix(1 0 0 1 339 1556)"><path d="M 54.9316 0 L 57.666 0 L 30.5664 -70.459 L 28.0762 -70.459 L 0.976562 0 L 3.66211 0 L 12.9395 -24.4629 L 45.7031 -24.4629 Z M 29.1992 -67.0898 L 29.4434 -67.0898 L 44.8242 -26.709 L 13.8184 -26.709 Z"/></g><line id="Baseline-L" style="fill:none;stroke:#27AAE1;opacity:1;stroke-width:0.577;" x1="263" x2="3036" y1="1556" y2="1556"/><line id="Capline-L" style="fill:none;stroke:#27AAE1;opacity:1;stroke-width:0.577;" x1="263" x2="3036" y1="1485.54" y2="1485.54"/><rect height="119.336" id="left-margin" style="fill:darkred;stroke:none;opacity:0.4;" width="12.4512" x="1394.06" y="1030.79"/><rect height="119.336" id="right-margin" style="fill:darkgreen;stroke:none;opacity:0.4;" width="12.4512" x="1502.5112" y="1030.79"/><rect x="1406.5112" y="1045" width="96" height="96" fill="none" stroke="blue" stroke-dasharray="5"/><rect x="1394.06" y="1030.79" width="120.9024" height="119.336" fill="none" stroke="blue"/></g><g id="Symbols"><g id="Bold-L" transform="matrix(1 0 0 1 2266 1556)"><path d="M88.688 38.945 Q82.391 38.945 77.961 34.467 Q73.53 29.989 73.53 23.626 V-8.946 Q73.53 -15.074 77.961 -19.589 Q82.391 -24.104 88.688 -24.104 H138.03 Q144.157 -24.104 148.673 -19.589 Q153.188 -15.074 153.188 -8.946 V23.626 Q153.188 29.989 148.673 34.467 Q144.157 38.945 138.03 38.945 H88.688 Z M87.559 24.916 H139.159 Q139.159 24.916 139.159 24.916 Q139.159 24.916 139.159 24.916 V11.21 H87.559 V24.916 Q87.559 24.916 87.559 24.916 Q87.559 24.916 87.559 24.916 Z M87.559 -0.4 H139.159 V-10.075 Q139.159 -10.075 139.159 -10.075 Q139.159 -10.075 139.159 -10.075 H87.559 Q87.559 -10.075 87.559 -10.075 Q87.559 -10.075 87.559 -10.075 V-0.4 Z M21.769 -42.164 V-72.64 Q21.769 -77.477 24.429 -81.509 Q27.09 -85.54 31.605 -87.152 L74.175 -102.955 Q75.626 -103.6 77.4 -103.6 Q79.174 -103.6 80.786 -102.955 L123.195 -87.152 Q127.71 -85.54 130.451 -81.509 Q133.192 -77.477 133.192 -72.64 V-41.357 Q133.192 -38.132 130.925 -35.956 Q128.658 -33.779 125.453 -33.779 H88.688 Q78.521 -33.779 71.189 -26.445 Q63.855 -19.113 63.855 -8.946 L64.016 13.79 Q64.177 18.628 59.985 20.885 Q55.793 23.143 52.084 20.24 Q38.377 9.436 30.073 -7.121 Q21.769 -23.676 21.769 -42.164 Z"/></g><g id="Semibold-L" transform="matrix(1 0 0 1 1970.27 1556)"><path d="M86.585 34.738 Q81.343 34.738 77.576 30.945 Q73.811 27.153 73.811 21.873 V-11.96 Q73.811 -17.107 77.576 -20.921 Q81.343 -24.734 86.585 -24.734 H138.311 Q143.456 -24.734 147.27 -20.921 Q151.085 -17.107 151.085 -11.96 V21.873 Q151.085 27.153 147.27 30.945 Q143.456 34.738 138.311 34.738 H86.585 Z M85.946 22.602 H138.949 Q138.949 22.602 138.949 22.602 Q138.949 22.602 138.949 22.602 V7.845 H85.946 V22.602 Q85.946 22.602 85.946 22.602 Q85.946 22.602 85.946 22.602 Z M85.946 -2.924 H138.949 V-12.599 Q138.949 -12.599 138.949 -12.599 Q138.949 -12.599 138.949 -12.599 H85.946 Q85.946 -12.599 85.946 -12.599 Q85.946 -12.599 85.946 -12.599 V-2.924 Z M23.522 -42.164 V-73.13 Q23.522 -77.197 25.797 -80.562 Q28.072 -83.927 31.815 -85.33 L74.665 -101.273 Q75.907 -101.778 77.4 -101.778 Q78.893 -101.778 80.225 -101.273 L122.985 -85.33 Q126.728 -83.927 129.048 -80.562 Q131.37 -77.197 131.37 -73.13 V-40.796 Q131.37 -38.063 129.492 -36.236 Q127.615 -34.409 124.891 -34.409 H86.585 Q77.473 -34.409 70.803 -27.742 Q64.136 -21.072 64.136 -11.96 L64.297 14.14 Q64.527 18.278 60.932 20.255 Q57.334 22.231 54.046 19.819 Q40.2 9.296 31.861 -7.213 Q23.522 -23.722 23.522 -42.164 Z"/></g><g id="Medium-L" transform="matrix(1 0 0 1 1674.31 1556)"><path d="M85.006 31.584 Q80.557 31.584 77.289 28.304 Q74.02 25.026 74.02 20.559 V-14.222 Q74.02 -18.633 77.289 -21.92 Q80.557 -25.208 85.006 -25.208 H138.52 Q142.93 -25.208 146.218 -21.92 Q149.506 -18.633 149.506 -14.222 V20.559 Q149.506 25.026 146.218 28.304 Q142.93 31.584 138.52 31.584 H85.006 Z M84.737 20.867 H138.791 Q138.791 20.867 138.791 20.867 Q138.791 20.867 138.791 20.867 V5.321 H84.737 V20.867 Q84.737 20.867 84.737 20.867 Q84.737 20.867 84.737 20.867 Z M84.737 -4.817 H138.791 V-14.492 Q138.791 -14.492 138.791 -14.492 Q138.791 -14.492 138.791 -14.492 H84.737 Q84.737 -14.492 84.737 -14.492 Q84.737 -14.492 84.737 -14.492 V-4.817 Z M24.836 -42.164 V-73.499 Q24.836 -76.987 26.822 -79.853 Q28.807 -82.718 31.973 -83.963 L75.034 -100.011 Q76.116 -100.41 77.4 -100.41 Q78.684 -100.41 79.804 -100.011 L122.827 -83.963 Q125.993 -82.718 127.997 -79.853 Q130.003 -76.987 130.003 -73.499 V-40.375 Q130.003 -38.01 128.418 -36.446 Q126.833 -34.883 124.47 -34.883 H85.006 Q76.687 -34.883 70.516 -28.712 Q64.345 -22.543 64.345 -14.222 L64.506 14.403 Q64.79 18.015 61.641 19.78 Q58.492 21.548 55.518 19.503 Q41.567 9.191 33.201 -7.282 Q24.836 -23.757 24.836 -42.164 Z"/></g><g id="Regular-L" transform="matrix(1 0 0 1 1378.56 1556)"><path d="M83.85 29.27 Q79.98 29.27 77.078 26.368 Q74.175 23.465 74.175 19.595 V-15.88 Q74.175 -19.75 77.078 -22.652 Q79.98 -25.555 83.85 -25.555 H138.675 Q142.545 -25.555 145.447 -22.652 Q148.35 -19.75 148.35 -15.88 V19.595 Q148.35 23.465 145.447 26.368 Q142.545 29.27 138.675 29.27 H83.85 Z M83.85 19.595 H138.675 Q138.675 19.595 138.675 19.595 Q138.675 19.595 138.675 19.595 V3.47 H83.85 V19.595 Q83.85 19.595 83.85 19.595 Q83.85 19.595 83.85 19.595 Z M83.85 -6.205 H138.675 V-15.88 Q138.675 -15.88 138.675 -15.88 Q138.675 -15.88 138.675 -15.88 H83.85 Q83.85 -15.88 83.85 -15.88 Q83.85 -15.88 83.85 -15.88 V-6.205 Z M25.8 -42.164 V-73.769 Q25.8 -76.832 27.574 -79.332 Q29.348 -81.831 32.089 -82.96 L75.304 -99.085 Q76.271 -99.407 77.4 -99.407 Q78.529 -99.407 79.496 -99.085 L122.711 -82.96 Q125.453 -81.831 127.226 -79.332 Q129 -76.832 129 -73.769 V-40.067 Q129 -37.971 127.629 -36.601 Q126.259 -35.23 124.163 -35.23 H83.85 Q76.11 -35.23 70.305 -29.425 Q64.5 -23.62 64.5 -15.88 L64.661 14.596 Q64.984 17.821 62.162 19.434 Q59.34 21.046 56.599 19.273 Q42.57 9.114 34.185 -7.334 Q25.8 -23.781 25.8 -42.164 Z"/></g><g id="Light-L" transform="matrix(1 0 0 1 1082.77 1556)"><path d="M83.85 26.045 Q80.056 26.045 77.302 23.291 Q74.547 20.537 74.547 16.742 V-15.88 Q74.547 -19.674 77.302 -22.428 Q80.056 -25.183 83.85 -25.183 H135.822 Q139.617 -25.183 142.371 -22.428 Q145.125 -19.674 145.125 -15.88 V16.742 Q145.125 20.537 142.371 23.291 Q139.617 26.045 135.822 26.045 H83.85 Z M83.85 18.726 H135.822 Q136.69 18.726 137.248 18.168 Q137.806 17.61 137.806 16.742 V0.864 H81.865 V16.742 Q81.865 17.61 82.423 18.168 Q82.981 18.726 83.85 18.726 Z M81.865 -6.453 H137.806 V-15.88 Q137.806 -16.749 137.248 -17.307 Q136.69 -17.865 135.822 -17.865 H83.85 Q82.981 -17.865 82.423 -17.307 Q81.865 -16.749 81.865 -15.88 V-6.453 Z M29.025 -41.854 V-71.722 Q29.025 -74.665 30.737 -77.086 Q32.45 -79.508 35.065 -80.603 L75.428 -95.612 Q76.36 -95.934 77.413 -95.934 Q78.467 -95.934 79.435 -95.612 L119.735 -80.603 Q122.35 -79.508 124.063 -77.086 Q125.775 -74.665 125.775 -71.722 V-41.495 Q125.775 -39.585 124.466 -38.276 Q123.156 -36.967 121.247 -36.967 H83.85 Q75.207 -36.967 68.986 -30.744 Q62.763 -24.523 62.763 -15.88 L62.863 11.433 Q63.123 13.975 60.859 15.215 Q58.595 16.457 56.537 14.993 Q43.997 5.331 36.51 -9.752 Q29.025 -24.836 29.025 -41.854 Z"/></g><g id="Thin-L" transform="matrix(1 0 0 1 787.282 1556)"><path d="M83.85 22.82 Q80.132 22.82 77.526 20.214 Q74.92 17.607 74.92 13.89 V-15.88 Q74.92 -19.598 77.526 -22.204 Q80.132 -24.81 83.85 -24.81 H132.97 Q136.687 -24.81 139.294 -22.204 Q141.9 -19.598 141.9 -15.88 V13.89 Q141.9 17.607 139.294 20.214 Q136.687 22.82 132.97 22.82 H83.85 Z M83.85 17.858 H132.97 Q134.705 17.858 135.822 16.742 Q136.938 15.625 136.938 13.89 V-1.74 H79.88 V13.89 Q79.88 15.625 80.997 16.742 Q82.113 17.858 83.85 17.858 Z M79.88 -6.702 H136.938 V-15.88 Q136.938 -17.617 135.822 -18.733 Q134.705 -19.85 132.97 -19.85 H83.85 Q82.113 -19.85 80.997 -18.733 Q79.88 -17.617 79.88 -15.88 V-6.702 Z M32.25 -41.543 V-69.676 Q32.25 -72.498 33.901 -74.841 Q35.552 -77.186 38.042 -78.247 L75.552 -92.138 Q76.449 -92.461 77.426 -92.461 Q78.405 -92.461 79.372 -92.138 L116.758 -78.247 Q119.248 -77.186 120.899 -74.841 Q122.55 -72.498 122.55 -69.676 V-42.92 Q122.55 -41.199 121.302 -39.951 Q120.054 -38.703 118.333 -38.703 H83.85 Q74.306 -38.703 67.665 -32.065 Q61.027 -25.424 61.027 -15.88 L61.064 8.27 Q61.262 10.131 59.558 10.999 Q57.852 11.868 56.475 10.713 Q45.423 1.548 38.837 -12.171 Q32.25 -25.89 32.25 -41.543 Z"/></g><g id="Ultralight-L" transform="matrix(1 0 0 1 491.205 1556)"><path d="M83.85 20.885 Q80.178 20.885 77.66 18.368 Q75.142 15.849 75.142 12.178 V-15.88 Q75.142 -19.552 77.66 -22.07 Q80.178 -24.587 83.85 -24.587 H131.257 Q134.931 -24.587 137.448 -22.07 Q139.965 -19.552 139.965 -15.88 V12.178 Q139.965 15.849 137.448 18.368 Q134.931 20.885 131.257 20.885 H83.85 Z M83.85 17.338 H131.257 Q133.515 17.338 134.966 15.886 Q136.417 14.435 136.417 12.178 V-3.302 H78.69 V12.178 Q78.69 14.435 80.141 15.886 Q81.593 17.338 83.85 17.338 Z M78.69 -6.85 H136.417 V-15.88 Q136.417 -18.137 134.966 -19.589 Q133.515 -21.04 131.257 -21.04 H83.85 Q81.593 -21.04 80.141 -19.589 Q78.69 -18.137 78.69 -15.88 V-6.85 Z M34.185 -41.357 V-68.447 Q34.185 -71.197 35.799 -73.495 Q37.413 -75.791 39.829 -76.832 L75.626 -90.055 Q76.502 -90.377 77.434 -90.377 Q78.368 -90.377 79.335 -90.055 L114.971 -76.832 Q117.387 -75.791 119.001 -73.495 Q120.615 -71.197 120.615 -68.447 V-43.776 Q120.615 -42.169 119.404 -40.956 Q118.191 -39.745 116.584 -39.745 H83.85 Q73.764 -39.745 66.875 -32.855 Q59.985 -25.966 59.985 -15.88 V6.373 Q60.146 7.824 58.776 8.469 Q57.405 9.114 56.438 8.146 Q46.279 -0.722 40.232 -13.622 Q34.185 -26.522 34.185 -41.357 Z"/></g><g id="Bold-M" transform="matrix(1 0 0 1 2281.8 1126)"><path d="M70 24.77 Q63.375 24.77 58.812 20.208 Q54.25 15.645 54.25 9.02 V-12.98 Q54.25 -19.605 58.812 -24.167 Q63.375 -28.73 70 -28.73 H104.25 Q110.875 -28.73 115.438 -24.167 Q120 -19.605 120 -12.98 V9.02 Q120 15.645 115.438 20.208 Q110.875 24.77 104.25 24.77 H70 Z M68.75 10.27 H105.5 Q105.5 10.27 105.5 10.27 Q105.5 10.27 105.5 10.27 V2.77 H68.75 V10.27 Q68.75 10.27 68.75 10.27 Q68.75 10.27 68.75 10.27 Z M68.75 -9.23 H105.5 V-14.23 Q105.5 -14.23 105.5 -14.23 Q105.5 -14.23 105.5 -14.23 H68.75 Q68.75 -14.23 68.75 -14.23 Q68.75 -14.23 68.75 -14.23 V-9.23 Z M15.75 -39.73 V-62.23 Q15.75 -67.23 18.562 -71.23 Q21.375 -75.23 26 -76.98 L56.5 -88.355 Q58.25 -88.98 60 -88.98 Q61.75 -88.98 63.5 -88.355 L94 -76.98 Q98.625 -75.23 101.438 -71.23 Q104.25 -67.23 104.25 -62.23 V-46.605 Q104.25 -43.355 101.938 -41.042 Q99.625 -38.73 96.375 -38.73 H70 Q59.25 -38.73 51.75 -31.23 Q44.25 -23.73 44.25 -12.98 V-3.23 Q44.375 1.645 40.062 3.645 Q35.75 5.645 32.375 2.395 Q24.625 -6.105 20.188 -16.98 Q15.75 -27.855 15.75 -39.73 Z"/></g><g id="Semibold-M" transform="matrix(1 0 0 1 1985.97 1126)"><path d="M67.826 20.423 Q62.288 20.423 58.432 16.566 Q54.576 12.71 54.576 7.173 V-16.132 Q54.576 -21.67 58.432 -25.526 Q62.288 -29.382 67.826 -29.382 H104.576 Q110.114 -29.382 113.97 -25.526 Q117.826 -21.67 117.826 -16.132 V7.173 Q117.826 12.71 113.97 16.566 Q110.114 20.423 104.576 20.423 H67.826 Z M67.12 7.879 H105.282 Q105.282 7.879 105.282 7.879 Q105.282 7.879 105.282 7.879 V-0.707 H67.12 V7.879 Q67.12 7.879 67.12 7.879 Q67.12 7.879 67.12 7.879 Z M67.12 -11.839 H105.282 V-16.839 Q105.282 -16.839 105.282 -16.839 Q105.282 -16.839 105.282 -16.839 H67.12 Q67.12 -16.839 67.12 -16.839 Q67.12 -16.839 67.12 -16.839 V-11.839 Z M17.598 -39.73 V-62.719 Q17.598 -66.904 19.975 -70.251 Q22.354 -73.6 26.218 -75.077 L57.044 -86.616 Q58.468 -87.132 60 -87.132 Q61.532 -87.132 62.956 -86.616 L93.782 -75.077 Q97.646 -73.6 100.025 -70.251 Q102.403 -66.904 102.403 -62.719 V-46.007 Q102.403 -43.246 100.47 -41.314 Q98.537 -39.382 95.778 -39.382 H67.826 Q58.163 -39.382 51.37 -32.589 Q44.576 -25.795 44.576 -16.132 V-2.85 Q44.701 1.319 41.014 3.02 Q37.326 4.721 34.386 1.96 Q26.581 -6.267 22.09 -17.089 Q17.598 -27.909 17.598 -39.73 Z"/></g><g id="Medium-M" transform="matrix(1 0 0 1 1689.91 1126)"><path d="M66.196 17.161 Q61.472 17.161 58.146 13.835 Q54.821 10.509 54.821 5.786 V-18.496 Q54.821 -23.219 58.146 -26.545 Q61.472 -29.871 66.196 -29.871 H104.821 Q109.544 -29.871 112.87 -26.545 Q116.196 -23.219 116.196 -18.496 V5.786 Q116.196 10.509 112.87 13.835 Q109.544 17.161 104.821 17.161 H66.196 Z M65.896 6.085 H105.12 Q105.12 6.085 105.12 6.085 Q105.12 6.085 105.12 6.085 V-3.317 H65.896 V6.085 Q65.896 6.085 65.896 6.085 Q65.896 6.085 65.896 6.085 Z M65.896 -13.795 H105.12 V-18.795 Q105.12 -18.795 105.12 -18.795 Q105.12 -18.795 105.12 -18.795 H65.896 Q65.896 -18.795 65.896 -18.795 Q65.896 -18.795 65.896 -18.795 V-13.795 Z M18.984 -39.73 V-63.086 Q18.984 -66.659 21.035 -69.517 Q23.087 -72.376 26.38 -73.651 L57.451 -85.311 Q58.63 -85.746 60 -85.746 Q61.37 -85.746 62.549 -85.311 L93.62 -73.651 Q96.912 -72.376 98.965 -69.517 Q101.016 -66.659 101.016 -63.086 V-45.559 Q101.016 -43.165 99.37 -41.517 Q97.722 -39.871 95.329 -39.871 H66.196 Q57.347 -39.871 51.084 -33.607 Q44.821 -27.344 44.821 -18.496 V-2.564 Q44.946 1.074 41.727 2.551 Q38.509 4.029 35.894 1.634 Q28.049 -6.39 23.516 -17.17 Q18.984 -27.95 18.984 -39.73 Z"/></g><g id="Regular-M" transform="matrix(1 0 0 1 1394.06 1126)"><path d="M65 14.77 Q60.875 14.77 57.938 11.833 Q55 8.895 55 4.77 V-20.23 Q55 -24.355 57.938 -27.292 Q60.875 -30.23 65 -30.23 H105 Q109.125 -30.23 112.062 -27.292 Q115 -24.355 115 -20.23 V4.77 Q115 8.895 112.062 11.833 Q109.125 14.77 105 14.77 H65 Z M65 4.77 H105 Q105 4.77 105 4.77 Q105 4.77 105 4.77 V-5.23 H65 V4.77 Q65 4.77 65 4.77 Q65 4.77 65 4.77 Z M65 -15.23 H105 V-20.23 Q105 -20.23 105 -20.23 Q105 -20.23 105 -20.23 H65 Q65 -20.23 65 -20.23 Q65 -20.23 65 -20.23 V-15.23 Z M20 -39.73 V-63.355 Q20 -66.48 21.812 -68.98 Q23.625 -71.48 26.5 -72.605 L57.75 -84.355 Q58.75 -84.73 60 -84.73 Q61.25 -84.73 62.25 -84.355 L93.5 -72.605 Q96.375 -71.48 98.188 -68.98 Q100 -66.48 100 -63.355 V-45.23 Q100 -43.105 98.562 -41.667 Q97.125 -40.23 95 -40.23 H65 Q56.75 -40.23 50.875 -34.355 Q45 -28.48 45 -20.23 V-2.355 Q45.125 0.895 42.25 2.208 Q39.375 3.52 37 1.395 Q29.125 -6.48 24.562 -17.23 Q20 -27.98 20 -39.73 Z"/></g><g id="Light-M" transform="matrix(1 0 0 1 1098.18 1126)"><path d="M65 12.27 Q61.211 12.27 58.586 9.645 Q55.961 7.02 55.961 3.231 V-20.23 Q55.961 -24.019 58.586 -26.644 Q61.211 -29.269 65 -29.269 H103.461 Q107.25 -29.269 109.875 -26.644 Q112.5 -24.019 112.5 -20.23 V3.231 Q112.5 7.02 109.875 9.645 Q107.25 12.27 103.461 12.27 H65 Z M65 4.77 H103.461 Q104.135 4.77 104.567 4.338 Q105 3.905 105 3.231 V-7.25 H63.461 V3.231 Q63.461 3.905 63.894 4.338 Q64.326 4.77 65 4.77 Z M63.461 -14.749 H105 V-20.23 Q105 -20.904 104.567 -21.336 Q104.135 -21.769 103.461 -21.769 H65 Q64.326 -21.769 63.894 -21.336 Q63.461 -20.904 63.461 -20.23 V-14.749 Z M22.5 -39.73 V-62.249 Q22.5 -65.086 24.145 -67.369 Q25.789 -69.652 28.375 -70.681 L57.99 -81.759 Q58.894 -82.085 60 -82.085 Q61.106 -82.085 62.01 -81.759 L91.625 -70.681 Q94.211 -69.652 95.855 -67.369 Q97.5 -65.086 97.5 -62.249 V-44.652 Q97.5 -42.816 96.206 -41.524 Q94.914 -40.23 93.076 -40.23 H65 Q56.606 -40.23 50.803 -34.427 Q45 -28.624 45 -20.23 V-3.269 Q45.078 -0.74 42.851 0.284 Q40.625 1.309 38.779 -0.384 Q31.24 -7.874 26.87 -18.12 Q22.5 -28.365 22.5 -39.73 Z"/></g><g id="Thin-M" transform="matrix(1 0 0 1 802.565 1126)"><path d="M65 9.77 Q61.547 9.77 59.235 7.458 Q56.922 5.145 56.922 1.693 V-20.23 Q56.922 -23.682 59.235 -25.995 Q61.547 -28.307 65 -28.307 H101.922 Q105.375 -28.307 107.688 -25.995 Q110 -23.682 110 -20.23 V1.693 Q110 5.145 107.688 7.458 Q105.375 9.77 101.922 9.77 H65 Z M65 4.77 H101.922 Q103.269 4.77 104.135 3.905 Q105 3.039 105 1.693 V-9.269 H61.922 V1.693 Q61.922 3.039 62.789 3.905 Q63.654 4.77 65 4.77 Z M61.922 -14.269 H105 V-20.23 Q105 -21.576 104.135 -22.441 Q103.269 -23.307 101.922 -23.307 H65 Q63.654 -23.307 62.789 -22.441 Q61.922 -21.576 61.922 -20.23 V-14.269 Z M25 -39.73 V-61.144 Q25 -63.691 26.476 -65.759 Q27.953 -67.826 30.25 -68.759 L58.231 -79.162 Q59.039 -79.441 60 -79.441 Q60.961 -79.441 61.769 -79.162 L89.75 -68.759 Q92.047 -67.826 93.524 -65.759 Q95 -63.691 95 -61.144 V-44.076 Q95 -42.527 93.851 -41.379 Q92.703 -40.23 91.154 -40.23 H65 Q56.461 -40.23 50.731 -34.499 Q45 -28.769 45 -20.23 V-4.182 Q45.029 -2.374 43.453 -1.639 Q41.875 -0.902 40.557 -2.162 Q33.356 -9.269 29.177 -19.009 Q25 -28.749 25 -39.73 Z"/></g><g id="Ultralight-M" transform="matrix(1 0 0 1 506.415 1126)"><path d="M65 8.27 Q61.75 8.27 59.625 6.145 Q57.5 4.02 57.5 0.77 V-20.23 Q57.5 -23.48 59.625 -25.605 Q61.75 -27.73 65 -27.73 H101 Q104.25 -27.73 106.375 -25.605 Q108.5 -23.48 108.5 -20.23 V0.77 Q108.5 4.02 106.375 6.145 Q104.25 8.27 101 8.27 H65 Z M65 4.77 H101 Q102.75 4.77 103.875 3.645 Q105 2.52 105 0.77 V-10.48 H61 V0.77 Q61 2.52 62.125 3.645 Q63.25 4.77 65 4.77 Z M61 -13.98 H105 V-20.23 Q105 -21.98 103.875 -23.105 Q102.75 -24.23 101 -24.23 H65 Q63.25 -24.23 62.125 -23.105 Q61 -21.98 61 -20.23 V-13.98 Z M26.5 -39.73 V-60.48 Q26.5 -62.855 27.875 -64.792 Q29.25 -66.73 31.375 -67.605 L58.375 -77.605 Q59.125 -77.855 60 -77.855 Q60.875 -77.855 61.625 -77.605 L88.625 -67.605 Q90.75 -66.73 92.125 -64.792 Q93.5 -62.855 93.5 -60.48 V-43.73 Q93.5 -42.355 92.438 -41.292 Q91.375 -40.23 90 -40.23 H65 Q56.375 -40.23 50.688 -34.542 Q45 -28.855 45 -20.23 V-4.73 Q45 -3.355 43.812 -2.792 Q42.625 -2.23 41.625 -3.23 Q34.625 -10.105 30.562 -19.542 Q26.5 -28.98 26.5 -39.73 Z"/></g><g id="Bold-S" transform="matrix(1 0 0 1 2294.23 696)"><path d="M53.652 10.532 Q48.425 10.532 45.22 7.327 Q42.014 4.121 42.014 -1.106 V-20.042 Q42.014 -25.269 45.22 -28.474 Q48.425 -31.679 53.652 -31.679 H82.253 Q87.48 -31.679 90.686 -28.474 Q93.891 -25.269 93.891 -20.042 V-1.106 Q93.891 4.121 90.686 7.327 Q87.48 10.532 82.253 10.532 H53.652 Z M52.666 -0.119 H83.24 Q83.24 -0.119 83.24 -0.119 Q83.24 -0.119 83.24 -0.119 V-7.615 H52.666 V-0.119 Q52.666 -0.119 52.666 -0.119 Q52.666 -0.119 52.666 -0.119 Z M52.666 -16.294 H83.24 V-21.028 Q83.24 -21.028 83.24 -21.028 Q83.24 -21.028 83.24 -21.028 H52.666 Q52.666 -21.028 52.666 -21.028 Q52.666 -21.028 52.666 -21.028 V-16.294 Z M13.216 -38.682 V-55.547 Q13.216 -59.264 15.238 -62.238 Q17.259 -65.212 20.711 -66.494 L44.776 -75.66 Q46.157 -76.159 47.34 -76.159 Q48.524 -76.159 49.904 -75.66 L73.969 -66.494 Q77.421 -65.212 79.442 -62.247 Q81.464 -59.283 81.464 -55.576 V-44.634 Q81.464 -42.232 79.753 -40.506 Q78.042 -38.78 75.645 -38.78 H53.652 Q45.17 -38.78 40.042 -33.652 Q34.913 -28.523 34.913 -20.042 V-10.574 Q34.913 -7.023 31.807 -5.544 Q28.7 -4.064 26.234 -6.431 Q20.165 -12.95 16.69 -21.272 Q13.216 -29.595 13.216 -38.682 Z"/></g><g id="Semibold-S" transform="matrix(1 0 0 1 1998.1 696)"><path d="M51.937 7.102 Q47.567 7.102 44.92 4.454 Q42.272 1.806 42.272 -2.563 V-22.529 Q42.272 -26.898 44.92 -29.546 Q47.567 -32.194 51.937 -32.194 H82.511 Q86.88 -32.194 89.528 -29.546 Q92.176 -26.898 92.176 -22.529 V-2.563 Q92.176 1.806 89.528 4.454 Q86.88 7.102 82.511 7.102 H51.937 Z M51.38 -2.006 H83.068 Q83.068 -2.006 83.068 -2.006 Q83.068 -2.006 83.068 -2.006 V-10.359 H51.38 V-2.006 Q51.38 -2.006 51.38 -2.006 Q51.38 -2.006 51.38 -2.006 Z M51.38 -18.352 H83.068 V-23.086 Q83.068 -23.086 83.068 -23.086 Q83.068 -23.086 83.068 -23.086 H51.38 Q51.38 -23.086 51.38 -23.086 Q51.38 -23.086 51.38 -23.086 V-18.352 Z M14.673 -38.682 V-55.932 Q14.673 -59.007 16.352 -61.466 Q18.032 -63.926 20.883 -64.993 L45.205 -74.288 Q46.328 -74.702 47.34 -74.702 Q48.352 -74.702 49.475 -74.288 L73.797 -64.993 Q76.648 -63.926 78.328 -61.475 Q80.007 -59.025 80.007 -55.962 V-44.162 Q80.007 -42.147 78.595 -40.72 Q77.184 -39.295 75.174 -39.295 H51.937 Q44.312 -39.295 39.742 -34.724 Q35.171 -30.153 35.171 -22.529 V-10.274 Q35.171 -7.281 32.557 -6.037 Q29.944 -4.793 27.821 -6.775 Q21.708 -13.078 18.191 -21.357 Q14.673 -29.637 14.673 -38.682 Z"/></g><g id="Medium-S" transform="matrix(1 0 0 1 1701.85 696)"><path d="M50.651 4.529 Q46.924 4.529 44.694 2.299 Q42.465 0.069 42.465 -3.657 V-24.394 Q42.465 -28.12 44.694 -30.35 Q46.924 -32.58 50.651 -32.58 H82.704 Q86.43 -32.58 88.66 -30.35 Q90.89 -28.12 90.89 -24.394 V-3.657 Q90.89 0.069 88.66 2.299 Q86.43 4.529 82.704 4.529 H50.651 Z M50.414 -3.421 H82.94 Q82.94 -3.421 82.94 -3.421 Q82.94 -3.421 82.94 -3.421 V-12.418 H50.414 V-3.421 Q50.414 -3.421 50.414 -3.421 Q50.414 -3.421 50.414 -3.421 Z M50.414 -19.896 H82.94 V-24.63 Q82.94 -24.63 82.94 -24.63 Q82.94 -24.63 82.94 -24.63 H50.414 Q50.414 -24.63 50.414 -24.63 Q50.414 -24.63 50.414 -24.63 V-19.896 Z M15.767 -38.682 V-56.222 Q15.767 -58.814 17.188 -60.887 Q18.611 -62.96 21.011 -63.868 L45.526 -73.259 Q46.456 -73.608 47.34 -73.608 Q48.224 -73.608 49.154 -73.259 L73.669 -63.868 Q76.069 -62.96 77.492 -60.896 Q78.913 -58.832 78.913 -56.252 V-43.808 Q78.913 -42.082 77.727 -40.881 Q76.541 -39.681 74.82 -39.681 H50.651 Q43.669 -39.681 39.516 -35.528 Q35.364 -31.375 35.364 -24.394 V-10.048 Q35.364 -7.474 33.12 -6.407 Q30.877 -5.34 29.011 -7.032 Q22.866 -13.174 19.317 -21.422 Q15.767 -29.67 15.767 -38.682 Z"/></g><g id="Regular-S" transform="matrix(1 0 0 1 1405.73 696)"><path d="M49.707 2.642 Q46.452 2.642 44.529 0.719 Q42.606 -1.204 42.606 -4.459 V-25.762 Q42.606 -29.017 44.529 -30.94 Q46.452 -32.863 49.707 -32.863 H82.845 Q86.1 -32.863 88.023 -30.94 Q89.946 -29.017 89.946 -25.762 V-4.459 Q89.946 -1.204 88.023 0.719 Q86.1 2.642 82.845 2.642 H49.707 Z M49.707 -4.459 H82.845 Q82.845 -4.459 82.845 -4.459 Q82.845 -4.459 82.845 -4.459 V-13.927 H49.707 V-4.459 Q49.707 -4.459 49.707 -4.459 Q49.707 -4.459 49.707 -4.459 Z M49.707 -21.028 H82.845 V-25.762 Q82.845 -25.762 82.845 -25.762 Q82.845 -25.762 82.845 -25.762 H49.707 Q49.707 -25.762 49.707 -25.762 Q49.707 -25.762 49.707 -25.762 V-21.028 Z M16.569 -38.682 V-56.434 Q16.569 -58.672 17.802 -60.463 Q19.035 -62.253 21.106 -63.042 L45.762 -72.504 Q46.551 -72.806 47.34 -72.806 Q48.129 -72.806 48.918 -72.504 L73.574 -63.042 Q75.645 -62.253 76.878 -60.472 Q78.111 -58.691 78.111 -56.464 V-43.549 Q78.111 -42.035 77.09 -41 Q76.069 -39.964 74.561 -39.964 H49.707 Q43.198 -39.964 39.351 -36.118 Q35.505 -32.271 35.505 -25.762 V-9.883 Q35.505 -7.615 33.532 -6.678 Q31.56 -5.741 29.883 -7.22 Q23.715 -13.246 20.142 -21.469 Q16.569 -29.693 16.569 -38.682 Z"/></g><g id="Light-S" transform="matrix(1 0 0 1 1109.75 696)"><path d="M49.707 0.67 Q46.718 0.67 45.041 -1.007 Q43.364 -2.684 43.364 -5.673 V-25.762 Q43.364 -28.751 45.041 -30.428 Q46.718 -32.105 49.707 -32.105 H81.631 Q84.62 -32.105 86.297 -30.428 Q87.974 -28.751 87.974 -25.762 V-5.673 Q87.974 -2.684 86.297 -1.007 Q84.62 0.67 81.631 0.67 H49.707 Z M49.707 -4.459 H81.631 Q82.163 -4.459 82.504 -4.8 Q82.845 -5.141 82.845 -5.673 V-15.521 H48.493 V-5.673 Q48.493 -5.141 48.834 -4.8 Q49.175 -4.459 49.707 -4.459 Z M48.493 -20.648 H82.845 V-25.762 Q82.845 -26.294 82.504 -26.635 Q82.163 -26.976 81.631 -26.976 H49.707 Q49.175 -26.976 48.834 -26.635 Q48.493 -26.294 48.493 -25.762 V-20.648 Z M18.541 -38.682 V-55.562 Q18.541 -57.573 19.642 -59.192 Q20.742 -60.811 22.585 -61.524 L45.951 -70.456 Q46.664 -70.719 47.34 -70.719 Q48.016 -70.719 48.729 -70.456 L72.095 -61.524 Q73.938 -60.811 75.038 -59.201 Q76.139 -57.59 76.139 -55.591 V-43.094 Q76.139 -41.807 75.231 -40.886 Q74.325 -39.964 73.043 -39.964 H49.707 Q43.084 -39.964 39.294 -36.175 Q35.505 -32.385 35.505 -25.762 V-10.604 Q35.468 -8.905 34.007 -8.196 Q32.546 -7.486 31.287 -8.624 Q25.385 -14.345 21.963 -22.171 Q18.541 -29.996 18.541 -38.682 Z"/></g><g id="Thin-S" transform="matrix(1 0 0 1 814.015 696)"><path d="M49.707 -1.303 Q46.983 -1.303 45.553 -2.733 Q44.123 -4.163 44.123 -6.887 V-25.762 Q44.123 -28.486 45.553 -29.916 Q46.983 -31.346 49.707 -31.346 H80.417 Q83.141 -31.346 84.571 -29.916 Q86.001 -28.486 86.001 -25.762 V-6.887 Q86.001 -4.163 84.571 -2.733 Q83.141 -1.303 80.417 -1.303 H49.707 Z M49.707 -4.459 H80.417 Q81.479 -4.459 82.163 -5.141 Q82.845 -5.825 82.845 -6.887 V-17.114 H47.279 V-6.887 Q47.279 -5.825 47.962 -5.141 Q48.645 -4.459 49.707 -4.459 Z M47.279 -20.27 H82.845 V-25.762 Q82.845 -26.824 82.163 -27.507 Q81.479 -28.19 80.417 -28.19 H49.707 Q48.645 -28.19 47.962 -27.507 Q47.279 -26.824 47.279 -25.762 V-20.27 Z M20.514 -38.682 V-54.69 Q20.514 -56.472 21.482 -57.922 Q22.449 -59.37 24.065 -60.008 L46.142 -68.407 Q46.779 -68.633 47.34 -68.633 Q47.901 -68.633 48.538 -68.407 L70.615 -60.008 Q72.231 -59.37 73.198 -57.931 Q74.166 -56.491 74.166 -54.719 V-42.639 Q74.166 -41.579 73.373 -40.772 Q72.58 -39.964 71.526 -39.964 H49.707 Q42.97 -39.964 39.238 -36.231 Q35.505 -32.499 35.505 -25.762 V-11.325 Q35.429 -10.194 34.481 -9.713 Q33.532 -9.23 32.69 -10.027 Q27.054 -15.445 23.783 -22.872 Q20.514 -30.3 20.514 -38.682 Z"/></g><g id="Ultralight-S" transform="matrix(1 0 0 1 517.792 696)"><path d="M49.707 -2.486 Q47.143 -2.486 45.861 -3.769 Q44.579 -5.051 44.579 -7.615 V-25.762 Q44.579 -28.326 45.861 -29.608 Q47.143 -30.89 49.707 -30.89 H79.689 Q82.253 -30.89 83.535 -29.608 Q84.818 -28.326 84.818 -25.762 V-7.615 Q84.818 -5.051 83.535 -3.769 Q82.253 -2.486 79.689 -2.486 H49.707 Z M49.707 -4.459 H79.689 Q81.07 -4.459 81.957 -5.347 Q82.845 -6.234 82.845 -7.615 V-18.069 H46.551 V-7.615 Q46.551 -6.234 47.439 -5.347 Q48.326 -4.459 49.707 -4.459 Z M46.551 -20.042 H82.845 V-25.762 Q82.845 -27.143 81.957 -28.03 Q81.07 -28.918 79.689 -28.918 H49.707 Q48.326 -28.918 47.439 -28.03 Q46.551 -27.143 46.551 -25.762 V-20.042 Z M21.698 -38.682 V-54.166 Q21.698 -55.812 22.585 -57.159 Q23.473 -58.505 24.952 -59.097 L46.255 -67.179 Q46.847 -67.382 47.34 -67.382 Q47.833 -67.382 48.425 -67.179 L69.728 -59.097 Q71.207 -58.505 72.095 -57.168 Q72.983 -55.831 72.983 -54.196 V-42.366 Q72.983 -41.443 72.258 -40.704 Q71.533 -39.964 70.615 -39.964 H49.707 Q42.902 -39.964 39.203 -36.266 Q35.505 -32.567 35.505 -25.762 V-11.757 Q35.406 -10.968 34.765 -10.623 Q34.124 -10.278 33.532 -10.87 Q28.055 -16.106 24.876 -23.293 Q21.698 -30.482 21.698 -38.682 Z"/></g></g></svg>