<svg xmlns="http://www.w3.org/2000/svg" height="20" viewBox="0 -960 960 960" width="20"><path d="M227-50.78v-98h217.44v98H227Zm288.56 0v-98H733v98H515.56Zm-401.26-146 125.4-686.44h480.6l125.96 686.44H114.3Zm117.53-98h496.91l-90.48-490.44H321.74l-89.91 490.44Zm248.17-48q57.17 0 96.63-39.46 39.46-39.46 39.46-96.63 0-57.17-39.46-96.63-39.46-39.46-96.63-39.46-57.17 0-96.63 39.46-39.46 39.46-39.46 96.63 0 57.17 39.46 96.63 39.46 39.46 96.63 39.46Zm-.21-86.7q-20.46 0-34.82-14.51t-14.36-34.89q0-20.38 14.57-34.88 14.57-14.5 35.03-14.5t34.82 14.63q14.36 14.63 14.36 35.17 0 20.55-14.57 34.76-14.57 14.22-35.03 14.22Zm-.56-233.48q16.9 0 29.1-11.59 12.19-11.59 12.19-28.72t-11.98-28.93Q496.55-744 479.66-744q-16.9 0-28.54 11.59t-11.64 28.72q0 17.13 11.43 28.93t28.32 11.8Zm.77 184.09Z"/></svg>