<svg xmlns="http://www.w3.org/2000/svg" height="20" viewBox="0 -960 960 960" width="20"><path d="M260.19-114.08v-47.96h176.04v47.96H260.19Zm263.58 0v-47.96H700v47.96H523.77Zm-359.11-110 103.07-611.84h424.69l103.42 611.84H164.66Zm56.61-47.96h517.46l-86.85-515.92H308.62l-87.35 515.92Zm259.07-71.08q52.08 0 87.95-35.86 35.86-35.87 35.86-88.29 0-52.42-35.86-88.29-35.87-35.86-88.05-35.86t-88.29 35.86q-36.1 35.87-36.1 88.29 0 52.42 36.06 88.29 36.06 35.86 88.43 35.86Zm-.14-47.96q-31.65 0-54.02-22.43-22.37-22.44-22.37-54.14 0-31.71 22.58-53.76 22.59-22.05 54.32-22.05 31.43 0 53.46 22.34 22.02 22.34 22.02 53.9 0 31.57-22.32 53.86-22.32 22.28-53.67 22.28Zm-.41-270.65q11.4 0 20.15-8.12 8.75-8.12 8.75-20.27 0-11.3-8.54-20.05t-20.38-8.75q-11.85 0-20.06 8.58-8.21 8.58-8.21 20.25 0 11.66 8.02 20.01 8.03 8.35 20.27 8.35Zm.21 194.46Z"/></svg>