<svg xmlns="http://www.w3.org/2000/svg" height="40" viewBox="0 -960 960 960" width="40"><path d="M206.54-36.33v-67.59h198.07v67.59H206.54Zm348.85 0v-67.59h198.74v67.59H555.39ZM135.21-163.67l109.84-717.66h469.72L834.2-163.67H135.21Zm77.46-67.59H754l-97.1-582.48H302.77l-90.1 582.48ZM480-304.08q59.15 0 100.75-41.3 41.61-41.3 41.61-99.59 0-59.28-41.47-101.09-41.46-41.81-100.68-41.81-58.95 0-100.3 41.67-41.34 41.67-41.34 100.89 0 58.95 41.33 100.09 41.34 41.14 100.1 41.14Zm.07-61.25q-32.68 0-56.47-23.72-23.78-23.72-23.78-56.23 0-32.94 23.7-56.81 23.69-23.86 56.7-23.86 33.01 0 56.61 23.9 23.61 23.91 23.61 56.66 0 32.76-23.61 56.41t-56.76 23.65Zm-.19-294.59q14.61 0 24.9-9.86 10.3-9.85 10.3-24.9 0-14.14-10.38-24.77-10.38-10.63-25.22-10.63-14.6 0-24.58 10.64-9.98 10.63-9.98 25.3t9.97 24.44q9.97 9.78 24.99 9.78Zm.12 214.15Z"/></svg>