<svg xmlns="http://www.w3.org/2000/svg" height="24" viewBox="0 -960 960 960" width="24"><path d="M177 0v-126h245V0H177Zm361 0v-126h245V0H538ZM94-166l126-748h520l127 748H94Zm386-166q61 0 103.5-42.5T626-478q0-61-42.5-103.5T480-624q-61 0-103.5 42.5T334-478q0 61 42.5 103.5T480-332Zm0-106q-16.5 0-28.25-11.65-11.75-11.64-11.75-28Q440-494 451.75-506T480-518q16.5 0 28.25 11.85Q520-494.29 520-477.65q0 16.65-11.75 28.15T480-438Zm-.98-226q19.98 0 34.48-13.8Q528-691.6 528-712q0-20.4-14.5-34.2Q499-760 479.02-760q-19.98 0-33.5 13.8T432-712q0 20.4 13.52 34.2 13.52 13.8 33.5 13.8Z"/></svg>