<svg xmlns="http://www.w3.org/2000/svg" height="40" viewBox="0 -960 960 960" width="40"><path d="M204.43-48.98v-85.19h206.12v85.19H204.43Zm345.4 0v-85.19h206.08v85.19H549.83ZM126.44-190.84l109.99-698.7h486.99l111.87 698.7H126.44Zm98.42-84.81h509.85l-83.73-528.7H308.52l-83.66 528.7Zm255.41-53.34q61.44 0 103.71-42.31 42.28-42.31 42.28-103.28 0-61.33-42.28-103.94-42.27-42.61-103.37-42.61-61.11 0-103.8 42.61t-42.69 103.61q0 61.62 42.71 103.77 42.72 42.15 103.44 42.15Zm.13-75.76q-28.91 0-49.9-20.36-20.99-20.35-20.99-49.27 0-29.04 20.93-50.2 20.94-21.16 49.84-21.16 28.9 0 49.56 20.98 20.65 20.97 20.65 50.22 0 29.26-20.59 49.52-20.59 20.27-49.5 20.27Zm-.62-269.71q14.85 0 25.34-9.96 10.48-9.95 10.48-25.48 0-14.59-10.57-25.01-10.57-10.42-25.48-10.42-14.41 0-24.62 10.44-10.2 10.45-10.2 25.41 0 15.34 10.23 25.18t24.82 9.84Zm.22 199.21Z"/></svg>