<svg xmlns="http://www.w3.org/2000/svg" height="48" viewBox="0 -960 960 960" width="48"><path d="M195-30v-92h210v92H195Zm361 0v-92h210v92H556ZM117-182l118.6-720H725l119 720H117Zm362.83-151q61.17 0 103.67-41.62T626-476q0-60.59-42.29-103.29Q541.41-622 480.33-622q-60.67 0-102.5 42.5T336-476.5q0 60.74 41.86 102.12Q419.73-333 479.83-333Zm.39-77q-26.3 0-46.76-20.41Q413-450.82 413-476.15q0-25.02 20.24-46.94Q453.48-545 480.28-545t46.76 21.64Q547-501.72 547-476.07t-19.89 45.86Q507.23-410 480.22-410Zm-1.19-272q16.39 0 26.18-8.72 9.79-8.73 9.79-25.79 0-16.31-9.92-25.9-9.91-9.59-25.55-9.59-14.89 0-24.71 9.59t-9.82 26.4q0 16.81 9.81 25.41 9.8 8.6 24.22 8.6Z"/></svg>