<svg xmlns="http://www.w3.org/2000/svg" height="24" viewBox="0 -960 960 960" width="24"><path d="M220-100v-40h172.31v40H220Zm347.69 0v-40H740v40H567.69Zm-400-100 104.16-640h416.61l103.85 640H167.69Zm46.54-40h530.54l-91.23-560H305.46l-91.23 560ZM480-326.15q54.46 0 92.23-37.77T610-456.15q0-54.47-37.77-92.23-37.77-37.77-92.23-37.77t-92.23 37.77Q350-510.62 350-456.15q0 54.46 37.77 92.23T480-326.15Zm0-40q-37.12 0-63.56-26.54Q390-419.23 390-456.5t26.44-63.46q26.44-26.19 63.56-26.19 37.13 0 63.56 26.38Q570-493.39 570-456.35q0 37.04-26.44 63.62-26.43 26.58-63.56 26.58Zm0-304.62q11.62 0 20.42-8.4 8.81-8.41 8.81-20.83 0-11.62-8.81-20.42-8.8-8.81-20.8-8.81t-20.43 8.81q-8.42 8.8-8.42 20.8t8.4 20.43q8.41 8.42 20.83 8.42Zm0 214.62Z"/></svg>