<svg xmlns="http://www.w3.org/2000/svg" height="20" viewBox="0 -960 960 960" width="20"><path d="M252.5-106v-67H442v67H252.5Zm265.5 0v-67h189.5v67H518ZM143.5-226 252-854h456l109 628H143.5Zm79.5-67h514l-85.5-494H309l-86 494Zm257.34-48Q538-341 578-381t40-98q0-58-40-98t-97.66-40q-57.67 0-98 40Q342-537 342-479t40.34 98q40.33 40 98 40Zm-.14-67q-29.2 0-50.2-20.92-21-20.92-21-50.29 0-29.38 21.21-50.08Q451.42-550 480.71-550t49.79 20.9q20.5 20.9 20.5 50.25t-20.8 50.1Q509.41-408 480.2-408Zm-.41-257q13.71 0 23.71-9.57t10-23.72q0-13.71-9.79-23.71t-23.75-10q-13.96 0-23.71 9.79t-9.75 23.75q0 13.96 9.57 23.71t23.72 9.75Zm.21 186Z"/></svg>