<svg xmlns="http://www.w3.org/2000/svg" height="48" viewBox="0 -960 960 960" width="48"><path d="M221.5-93.08v-43.84h170.42v43.84H221.5Zm346.58 0v-43.84h171.11v43.84H568.08Zm-409.89-110 103.73-653.84h436.31l104.69 653.84H158.19Zm49.66-43.84h543.3l-90.57-566.16H298.92l-91.07 566.16Zm272.49-77.7q58.32 0 98.84-40.56 40.51-40.56 40.51-97.93 0-58.86-40.51-99.68-40.52-40.82-98.63-40.82-58.11 0-98.99 40.82-40.87 40.82-40.87 99.18 0 58.35 40.81 98.67 40.82 40.32 98.84 40.32Zm-.03-43.84q-39.72 0-67.75-27.71-28.02-27.71-28.02-67.31 0-40.27 28-68.28 27.99-28.01 67.65-28.01 39.35 0 67.5 28 28.16 28.01 28.16 68.02 0 40.02-28.07 67.65-28.06 27.64-67.47 27.64Zm0-312.08q11.04 0 18.81-7.48 7.76-7.48 7.76-19.06 0-10-7.89-18.27-7.9-8.26-19.18-8.26-10.93 0-18.46 8.35-7.54 8.36-7.54 18.88 0 11.1 7.6 18.47 7.59 7.37 18.9 7.37ZM480-464.31Z"/></svg>