<svg xmlns="http://www.w3.org/2000/svg" height="24" viewBox="0 -960 960 960" width="24"><path d="M226-106v-28h164v28H226Zm344 0v-28h164v28H570Zm-388-94 99.4-628H679l99 628H182Zm298-128q51 0 86-35t35-86q0-51-35-86t-86-35q-51 0-86 35t-35 86q0 51 35 86t86 35Zm0-28q-38.36 0-65.68-27.45-27.32-27.45-27.32-66T414.32-515q27.32-27 65.68-27 38.36 0 65.68 27.24Q573-487.51 573-449.26q0 38.26-27.32 65.76Q518.36-356 480-356Zm0-312q10 0 18-7.47 8-7.48 8-18.53 0-10-8-18t-18.5-8q-10.5 0-18 8t-7.5 18.5q0 10.5 7.48 18 7.47 7.5 18.52 7.5Z"/></svg>