<svg xmlns="http://www.w3.org/2000/svg" height="48" viewBox="0 -960 960 960" width="48"><path d="M218.62-60v-43.77h179.07V-60H218.62Zm343.69 0v-43.77h180.07V-60H562.31ZM162.77-173l101.46-683h431.85l108.38 683H162.77Zm48.61-43.77h542.24l-95.7-595.46H302.08l-90.7 595.46ZM480-312.15q53.05 0 90.56-36.87 37.52-36.87 37.52-88.83 0-53.43-37.31-91.06t-90.65-37.63q-52.94 0-89.68 37.42-36.75 37.43-36.75 90.77 0 52.94 36.69 89.57 36.68 36.63 89.62 36.63Zm.06-38.77q-35.68 0-61.64-26.11-25.96-26.1-25.96-61.55 0-35.95 25.83-62.07 25.82-26.12 62.01-26.12t62.1 26.27q25.91 26.27 25.91 61.94t-25.92 61.66q-25.93 25.98-62.33 25.98Zm-.44-309.46q11.72 0 20.36-7.89 8.64-7.88 8.64-20.25 0-10.82-8.78-19.96-8.77-9.14-20.72-9.14-11.98 0-19.86 9.16-7.88 9.15-7.88 20.85 0 11.7 7.86 19.46 7.86 7.77 20.38 7.77Zm.38 221.15Z"/></svg>