<svg xmlns="http://www.w3.org/2000/svg" height="40" viewBox="0 -960 960 960" width="40"><path d="M202.12-64.06v-75.91H397.8v75.91H202.12Zm360.24 0v-75.91h195.52v75.91H562.36ZM123.57-193.3l117.71-693.56h477.37L837.34-193.3H123.57Zm356.4-129.09q64.33 0 109.16-44.94 44.83-44.93 44.83-108.35 0-64.14-44.83-109.3t-108.82-45.16q-63.99 0-109.05 45.16-45.06 45.16-45.06 108.97 0 64.06 45.08 108.84t108.69 44.78Zm.13-71.93q-33.79 0-57.96-23.87-24.17-23.88-24.17-57.41 0-33.89 24.07-58.34 24.06-24.44 57.86-24.44 33.79 0 57.96 24.33 24.17 24.32 24.17 58.25t-24.07 57.71q-24.06 23.77-57.86 23.77Zm0-289.16q14.71 0 24.77-9.97 10.06-9.98 10.06-24.96 0-14.48-10.14-24.7-10.15-10.22-24.95-10.22-14.3 0-24.53 10.22-10.24 10.22-10.24 25.04 0 14.81 10.23 24.7 10.22 9.89 24.8 9.89Z"/></svg>