<svg xmlns="http://www.w3.org/2000/svg" height="48" viewBox="0 -960 960 960" width="48"><path d="M198.91-34.35v-83.74h203.92v83.74H198.91Zm358.83 0v-83.74h204.35v83.74H557.74ZM119.17-178.09l117.04-721.3h487.92l120.74 721.3h-725.7ZM479.9-321.26q62.66 0 106.34-43.07 43.67-43.06 43.67-104.28 0-62.33-43.47-106.34-43.47-44.01-106.04-44.01-62.15 0-105.45 43.81-43.3 43.8-43.3 106.04 0 62.19 43.33 105.02t104.92 42.83Zm.28-73.09q-29.95 0-52.7-22.54-22.74-22.55-22.74-51.8 0-29.44 22.56-53.09 22.56-23.65 53.02-23.65 30.45 0 52.7 23.44 22.24 23.44 22.24 53.16 0 29.71-22.21 52.09-22.2 22.39-52.87 22.39Zm-.73-284.61q15.53 0 25.32-9.03 9.8-9.03 9.8-25.04 0-15.27-9.92-25.16-9.92-9.9-25.13-9.9-14.47 0-24.28 9.9-9.81 9.89-9.81 25.66 0 15.76 9.81 24.67 9.8 8.9 24.21 8.9Z"/></svg>