<svg xmlns="http://www.w3.org/2000/svg" height="20" viewBox="0 -960 960 960" width="20"><path d="m137.54-136 140.61-346.92v-103.85H94.92L212-824h165.08l117.07 237.23h-185v103.85L451.31-136h-33.93L309.92-396.85V-136h-32v-260.85L170.46-136h-32.92Zm550.77-155.38q-40.85 0-66.66-28.97-25.8-28.96-25.42-70.57H500q0-46.62 24-86.85t63.15-68.38q3.23-35.47 26.97-62.31 23.73-26.85 58.96-30.92V-824h32v184.62q34.23 4.07 57.84 30.92 23.62 26.84 28.62 62.31 38.38 27.15 62.88 67.38t24.5 87.85h-98q-.38 41.61-26.57 70.57-26.2 28.97-66.04 28.97Zm0-32.77q25.23 0 42.73-19.62 17.5-19.61 21.5-47.15H625.38q2.47 27.54 19.58 47.15 17.12 19.62 43.35 19.62Z"/></svg>