<svg xmlns="http://www.w3.org/2000/svg" height="48" viewBox="0 -960 960 960" width="48"><path d="M34.65-61.17 220.43-526v-79.78H9.91l166.24-293.61h167.37l165.52 293.61H298.09V-526L482.74-61.17h-83.78L298.52-311.91v250.74h-78.65v-248.87L120-61.17H34.65Zm672.49-167.31q-56 0-96.92-35.63t-50.89-90.46H455.7q0-59.86 28.28-112.88 28.28-53.02 78.25-88.97 5.03-43.15 31.97-77.93 26.93-34.78 70.93-46.62v-218.42h82.61v217.13q42.43 11.56 69.11 46.97t33.19 78.26q47.92 36.63 77.46 89.16 29.54 52.53 29.54 113.3H851.57q-10.57 54.83-50.61 90.46-40.05 35.63-93.82 35.63ZM562.26-427.65h287.78q-9.9-16.39-18.47-34.88-8.57-18.49-25.48-29.95l-32.57-22.81-3.39-40.1q-3.51-23.46-21.73-39.97-18.22-16.51-42.38-16.51-24.69 0-42.42 16.64-17.74 16.65-20.99 40.4l-3.88 39.68-33.64 22.67q-16.61 11.74-25.45 30.49-8.84 18.76-17.38 34.34ZM152-688.39h214.52l-71.25-128.83h-70.5L152-688.39Zm555.07 385.22q22.24 0 39.39-14.35 17.15-14.35 26.71-37.05H639.13q8.57 22.7 26.4 37.05 17.84 14.35 41.54 14.35Zm-1.42-124.48ZM259.26-688.39Z"/></svg>