<svg xmlns="http://www.w3.org/2000/svg" height="24" viewBox="0 -960 960 960" width="24"><path d="m-3.65-44.65 200.02-505.39v-43.13H-22.74l182.35-322.18h183.06l182.35 322.18H304.91v43.13L504.7-44.65H386.67l-81.52-206.52v206.52H195.37v-205l-80.76 205H-3.65Zm717.19-169.52q-59.43 0-102.25-40.08Q568.48-294.33 560-354H450.43q0-62 27.62-117.24 27.62-55.24 77.86-92.24 5-44.24 31.64-79.6 26.65-35.35 68.65-50.31v-221.96h112.93v220.96q42 14.72 69.02 50.31 27.02 35.6 32.02 80.6 50.24 37 78.24 92.24 28 55.24 28 117.24H865.85q-8.24 59.67-50.94 99.75-42.69 40.08-101.37 40.08Zm0-108.4q14.48 0 25.96-8.35 11.48-8.36 16.24-23.08h-85.39q4.76 14.72 16.62 23.08 11.86 8.35 26.57 8.35Z"/></svg>