<svg xmlns="http://www.w3.org/2000/svg" height="40" viewBox="0 -960 960 960" width="40"><path d="m14-52 197.33-496.67v-46H-7l176-314h178.67l176.66 314H306v46L502-52H398.67L306-286v234h-95.67v-232.67L117.33-52H14Zm701-166q-59 0-103.17-38.83-44.16-38.84-55.5-97.84H456q0-60.33 28-114.16 28-53.84 78.33-89.84 5-44 31.5-79.66 26.5-35.67 68.84-50v-220.34h103.66v220q42.34 13.67 68.5 49.84 26.17 36.16 31.84 80.16 49.33 36 77.83 89.5t28.5 114.5H871q-10.33 59-53.67 97.84Q774-218 715-218Zm0-88q21.67 0 38.83-13.5 17.17-13.5 24.5-35.17h-127q7.34 21.67 24.5 35.17Q693-306 715-306Z"/></svg>