<svg xmlns="http://www.w3.org/2000/svg" height="40" viewBox="0 -960 960 960" width="40"><path d="m62.19-73.3 171.97-427.94v-104.59H30.28l159.77-281.03h160.91l159.93 281.03H307.01v104.59L477.65-73.3h-78.98l-91.91-228.93V-73.3h-73.6v-227.6L141.17-73.3H62.19Zm629.22-163.47q-53.92 0-95.17-33.63-41.25-33.64-54.11-86.8h-93.74q0-58.56 27.62-110.37 27.62-51.8 76.18-87.04 5-42.22 32.39-74.97 27.38-32.75 68.96-44.55v-212.73h75.51v212.65q41.32 11.64 68.37 44.51 27.06 32.87 32.22 75.09 48.32 35.24 76.44 86.71 28.12 51.47 28.12 110.7h-95.41q-12.62 53.16-53.16 86.8-40.54 33.63-94.22 33.63Zm0-71.77q23.19 0 42.01-13.5 18.81-13.5 28.94-35.16H620.14q10.12 21.66 28.94 35.16 18.81 13.5 42.33 13.5Z"/></svg>