<svg xmlns="http://www.w3.org/2000/svg" height="20" viewBox="0 -960 960 960" width="20"><path d="m155-153 134-329v-107.5H114.5L221-807h154.5l107 217.5h-177V-482L442-153h-18.5L307-434v281h-17.5v-281.5L172.5-153H155Zm529.09-146.5q-37.59 0-60.09-28t-20-67h-96.5q0-44.36 23.75-81.93Q555-514 592.07-540.78 595-575.5 618.25-602t58.25-28v-177H694v177q34 1.5 57.31 27.86 23.32 26.35 28.19 61.14 36.79 26.2 60.9 63.67 24.1 37.47 24.1 82.83h-99q1.5 39-21.5 67t-59.91 28ZM524-412h323q-.81-33.94-22.16-60.22-21.34-26.28-48.09-46.59L763-530.5l-2-18q-5.03-26-26.76-44.5-21.74-18.5-49.11-18.5-27.38 0-48.39 18.02-21.02 18.02-24.74 43.98l-2.6 18.93-15.09 10.56Q566-499.5 545.45-472.53 524.91-445.56 524-412ZM151-616h293.5l-86.99-163.5H238.5L151-616Zm533.16 298.5q28.02 0 46.68-23t22.66-54h-136q1.5 31 19.69 54t46.97 23Zm1.34-94.5ZM297-616Z"/></svg>