<svg xmlns="http://www.w3.org/2000/svg" height="20" viewBox="0 -960 960 960" width="20"><path d="m116.77-116 148.31-368.46v-96.93H71.46L202-844h178.54l130.54 262.61h-195v96.93L465.15-116h-55.46l-93.23-228.93V-116h-52v-228.93L171.23-116h-54.46Zm575.28-167.69q-43.82 0-73.47-29.73-29.66-29.73-31.96-74.04H490q0-49.31 24-92.42 24-43.12 64.64-72.97 4.05-36.46 28.17-63.88 24.11-27.42 59.73-34.96V-844h52v192.31q34.61 7.54 58.44 34.96 23.82 27.43 28.79 63.65 40.98 29.28 65.34 72.29 24.35 43.02 24.35 93.33h-98q-2.69 44.31-32.54 74.04-29.84 29.73-72.87 29.73ZM553.69-439.46h277.7q-5.93-21.08-20.47-37.66-14.53-16.57-32.01-30.39l-21.68-16.34-3.23-27q-3.77-22.3-21.27-38.03-17.5-15.74-40.32-15.74-22.81 0-40.05 15.55t-20.51 37.84l-3.28 27.25-22.3 16.04q-18.58 13.86-32.97 30.85-14.39 16.99-19.61 37.63ZM167.85-642.38h245.84L341.46-782h-102l-71.61 139.62Zm524.29 306.3q20.63 0 35.63-14.8 15-14.81 19-36.58H637.69q3.23 21.77 18.04 36.58 14.81 14.8 36.41 14.8Zm.4-103.38ZM290.08-642.38Z"/></svg>