<svg xmlns="http://www.w3.org/2000/svg" height="20" viewBox="0 -960 960 960" width="20"><path d="m16.35-60.65 192.02-488.39v-20.13H-14.74l166.35-330.18h215.06l166.35 330.18H307.91v20.13L501.7-60.65H392.67l-83.52-211.52v211.52H207.37v-210l-82.76 210H16.35Zm713.19-189.52q-51.43 0-84.75-37.58Q611.48-325.33 612-378H490.43q0-56 25.12-105.74 25.12-49.74 70.36-83.74 4-40.24 28.14-73.1 24.15-32.85 62.15-45.81v-212.96h104.93v211.96q38 12.72 62.02 45.81 24.02 33.1 29.02 74.1 45.24 33 70.74 82.74Q968.41-435 968.41-378H845.85q.76 52.67-32.44 90.25-33.19 37.58-83.87 37.58Zm0-100.4q9.48 0 15.46-7.85 5.98-7.86 3.74-19.58h-39.39q-2.24 11.72 4.12 19.58 6.36 7.85 16.07 7.85Z"/></svg>