<svg xmlns="http://www.w3.org/2000/svg" height="40" viewBox="0 -960 960 960" width="40"><path d="M20.67-58.67 215.33-548.5V-594H.17l173.08-308h175.08l173.84 308H306.5v45.5l194 489.83h-99.83L307.17-294v235.33h-92.34v-234.66L120.5-58.67H20.67ZM712.71-222.5q-57.84 0-100.44-38.25-42.6-38.25-53.08-95.75H457.83q0-59.52 27.75-112.51t77.48-88.16q4.77-43.33 30.77-79 26-35.66 68.17-49.33V-902h100.33v216.17q41.84 13 67.93 48.96 26.09 35.97 31.74 79.4 48.17 35.47 76.58 88.01Q967-416.93 967-356.5H863.5q-9.67 57.5-51.75 95.75t-99.04 38.25ZM589-440.83h246.83q-6.08-11.49-11.54-24.08-5.46-12.59-16.73-19.49l-36.29-25.93-4.6-46.34q-2.81-20.52-18.45-34.09-15.64-13.57-35.72-13.57-20.88 0-36.17 14.16-15.3 14.17-18.33 34.5l-4.68 45.36-37.65 25.81q-11.34 7-16.1 19.61-4.77 12.61-10.57 24.06Zm-415.67-253.5h175.34L290.81-801h-58.06l-59.42 106.67Zm538.96 387.66q22.08 0 38.73-13.91 16.65-13.92 23.81-35.92H650.5q6.83 22 23.58 35.92 16.74 13.91 38.21 13.91ZM712-440.83Zm-451.17-253.5Z"/></svg>