<svg xmlns="http://www.w3.org/2000/svg" height="20" viewBox="0 -960 960 960" width="20"><path d="m20-62 196-499v3H-11l170-340h220l170 340H321v-3L517-62H402l-80-205v205H215v-205L134-62H20Zm712.93-184Q678-246 640-285q-38-39-41-95H492q0-55 24.5-104t70.07-81.78Q591-606 614-638.5t60-47.5v-212h117v211q37 15 59.5 48t27.5 73q45.29 32.2 70.15 80.98Q973-436.24 973-380H865q-2 56-39.5 95t-92.57 39ZM647-477h172q-1.19-2.95-3.09-4.97-1.91-2.03-4-3L774-513l-5-49q-3-14-12.99-23.5t-23.13-9.5q-13.67 0-23.78 10-10.1 10-13.1 24l-4.66 47.87-39.53 28.12q-2.81 1.01-3.54 3.25-.72 2.25-1.27 4.76ZM197-684h143l-37.63-87H235l-38 87Zm535.84 340Q747-344 757-354t9-26h-67q-1 16 9 26t24.84 10Zm.16-133ZM268-684Z"/></svg>