<svg xmlns="http://www.w3.org/2000/svg" height="24" viewBox="0 -960 960 960" width="24"><path d="m-3.65-44.65 199.26-505.39v-42.13H-22.74l182.47-323.18h182.94l182.35 323.18H305.91v42.13L504.7-44.65H386.67l-80.76-206.52v206.52H195.37v-205l-80.76 205H-3.65Zm717.22-169.52q-59.46 0-102.28-40.08Q568.48-294.33 560-354H450.43q0-62.11 27.62-117.25 27.62-55.13 77.72-92.39 5.14-44.08 31.78-79.44 26.65-35.35 68.65-49.96v-222.31h112.93v220.96q42 14.72 69.03 50.34 27.03 35.62 32.01 80.57 50.14 37.26 78.19 92.42Q976.41-415.9 976.41-354H865.85q-8.24 59.67-50.94 99.75-42.69 40.08-101.34 40.08ZM601-452.59h225.09q-4.85-7.31-10.64-14.43-5.79-7.11-13.38-13.11l-36.81-26.8-4.59-44.98q-3.76-18.05-16.46-31.21-12.7-13.16-30.94-13.16-18.37 0-31.89 12.89t-15.21 31.72l-4.88 44.8-36.75 26.74q-8.08 6.33-13.95 12.9-5.87 6.57-9.59 14.64ZM170.46-705.11h160.61l-53.86-98.3h-52.3l-54.45 98.3Zm543.52 382.54q14.04 0 25.52-8.35 11.48-8.36 16.24-23.08h-85.39q4.76 14.72 16.75 23.08 11.98 8.35 26.88 8.35Zm-.44-130.02ZM250.76-705.11Z"/></svg>