<svg xmlns="http://www.w3.org/2000/svg" height="48" viewBox="0 -960 960 960" width="48"><path d="m50.78-70.87 178.96-446.78v-88.5H23.63L183.87-889.7h162.37l161.3 283.55H300.93v88.5L479.39-70.87H401.5L301.43-320.26v249.39h-72.19v-247.89L128.67-70.87H50.78Zm649.05-164.19q-52.89 0-92.87-34.4-39.98-34.39-51.35-87.34H455.59q0-58.13 28.03-110.05 28.03-51.91 76.66-86.98 5-42.63 31.94-77.11 26.93-34.47 69.5-45.67V-889.7h76.15v213.09q42.07 10.63 69 45.39 26.94 34.76 32.5 77.39 47.57 35.07 76.35 86.48 28.78 51.42 28.78 110.55H841.98q-10.8 52.95-50.03 87.34-39.23 34.4-92.12 34.4Zm0-67.74q23.87 0 42.49-15.25t27.92-38.75H630.41q8.81 23.5 27.43 38.75 18.62 15.25 41.99 15.25Z"/></svg>