<svg xmlns="http://www.w3.org/2000/svg" height="40" viewBox="0 -960 960 960" width="40"><path d="m77.33-80 164-406.33v-123H42L197-880h155l154.67 270.67H307.33v123L470-80h-71.33L307-307.33V-80h-66.67v-226L148.67-80H77.33Zm606.98-162.67q-52.64 0-92.98-32-40.33-32-53.66-83.33H446q0-58 27.5-109.17 27.5-51.16 75.5-86.47 5-41.36 32.67-73.19 27.66-31.84 69-42.84V-880h66.66v210.33q41 11 68.34 42.84Q813-595 818-553.64q48 35.31 76 86.14T922-358h-93.33q-13.34 51.33-53 83.33-39.67 32-91.36 32Zm-155.98-182h310.34Q826-444 813.67-463.5q-12.34-19.5-31-33.17l-27.34-19-4-33q-2.66-25.66-22.16-43.16-19.5-17.5-45.5-17.5T638-591.83q-19.67 17.5-21.67 43.16l-4 33-27 19Q566-483 553.33-463.5q-12.66 19.5-25 38.83ZM156.67-676H392l-79-137.33h-77.59L156.67-676ZM684-309.33q23.67 0 43-13.5T757.33-358h-147q11 21.67 30.45 35.17t43.22 13.5Zm-1-115.34ZM274-676Z"/></svg>