<svg xmlns="http://www.w3.org/2000/svg" height="40" viewBox="0 -960 960 960" width="40"><path d="m118.36-120 148.61-363.77v-131.2H87.9L219.05-840h130.13L480-614.97H300.15v131.2L448.97-120h-36.46L300.59-392.21V-120h-33.85v-271.38L154.31-120h-35.95Zm555.91-136.51q-47.73 0-81.91-30.98-34.18-30.97-42.13-78.46h-87.31q0-52.61 26.99-98.27 26.99-45.65 71.14-76.88 4.23-39.54 30.62-69.71 26.38-30.16 66.43-34.75V-840h33.85v194.44q39.2 4.59 65.95 34.81 26.75 30.22 31.64 69.42 43.38 31.46 70.87 76.69 27.49 45.22 27.49 98.69h-89.23q-8.72 47.49-43.13 78.46-34.41 30.98-81.27 30.98ZM500.38-399.79h347.77q-4.46-32.42-24.35-59.48-19.9-27.06-46.77-46.88l-20.41-14.64-2.47-24.03q-3.69-29.26-26.65-48.94-22.96-19.68-52.81-19.68-29.84 0-52.69 19.31-22.85 19.31-25.41 48.54l-3.23 24.8-19.57 13.87q-28.3 19.82-48.41 47.27-20.1 27.44-25 59.86ZM145.64-648.82h276.62l-92.34-157.33h-91.99l-92.29 157.33Zm528.83 357.69q31.15 0 54.71-21.58 23.56-21.57 34.56-53.24H586.23q9.46 31.67 32.73 53.24 23.27 21.58 55.51 21.58Zm-.44-108.66Zm-390.8-249.03Z"/></svg>