<svg xmlns="http://www.w3.org/2000/svg" height="48" viewBox="0 -960 960 960" width="48"><path d="M263-156q-27.5 0-47.25-19.75T196-223v-514q0-27.5 19.75-47.25T263-804h435q27.5 0 47.25 19.75T765-737v514q0 27.5-19.75 47.25T698-156H263Zm0-35h436q14 0 23-9t9-23v-515q0-14-9-23t-23-9H263q-14 0-23.5 9t-9.5 23v515q0 14 9.5 23t23.5 9Zm201-212-68-68q-4.5-4-11.15-4.5t-12.55 5.2q-6.3 5.3-6.3 12.8 0 7.5 6 11.5l86 86q9 11 22.82 11T505-360l83-84q5-3.75 5.5-11.53.5-7.79-6.11-13.63-7.19-4.84-12.56-4.84-5.36 0-9.83 5l-66 66v-173q0-7.17-5.69-12.59-5.7-5.41-12.52-5.41-6.83 0-11.81 5.41Q464-583.17 464-576v173Zm235 212H230h501-32Z"/></svg>