<svg xmlns="http://www.w3.org/2000/svg" height="48" viewBox="0 -960 960 960" width="48"><path d="M225.15-119.02q-26.57 0-46.1-19.53t-19.53-46.1v-590.7q0-26.66 19.53-46.27 19.53-19.6 46.1-19.6h510.2q26.66 0 46.27 19.6 19.6 19.61 19.6 46.27v590.7q0 26.57-19.6 46.1-19.61 19.53-46.27 19.53h-510.2Zm-.24-65.39h510.68v-591.18H224.91v591.18Zm224.2-229.09-47.54-47.54q-9.36-9.72-21.74-9.6-12.38.12-21.32 9.26-9.79 9.86-9.79 22.28 0 12.43 9.71 21.64L456.89-319q9.69 10.2 23.15 10.2 13.46 0 23.57-10.2l98.46-98.46q9.21-9.15 9.21-21.78t-9.06-22.7q-10.24-8.82-22.35-8.82-12.11 0-20.7 8.98l-47.78 48.28v-186.2q0-12.56-9.19-21.72-9.19-9.17-22.42-9.17-13.24 0-21.95 9.17-8.72 9.16-8.72 21.72v186.2Zm286.48 229.09H224.91h510.68Z"/></svg>