<svg xmlns="http://www.w3.org/2000/svg" height="48" viewBox="0 -960 960 960" width="48"><path d="M220.11-102.8q-30.93 0-54.12-23.19-23.19-23.19-23.19-54.12v-599.78q0-31.02 23.19-54.28t54.12-23.26h519.78q31.02 0 54.28 23.26t23.26 54.28v599.78q0 30.93-23.26 54.12-23.26 23.19-54.28 23.19H220.11Zm223.41-326.4-33.8-33.8q-11.24-10.48-25.48-10.24-14.24.24-25 11-11 11.3-11 26.51t11 25.21l94.09 94.09q10.56 11.47 26.71 11.47 16.16 0 27.63-11.47l93.09-94.09q11-10 11-25.12 0-15.12-12-27.6-11.24-10.24-24.71-10.24-13.48 0-23.53 10.24l-34.04 34.04v-167.32q0-15.18-11.17-26.33Q495.15-634 479.95-634q-15.19 0-25.81 11.15t-10.62 26.33v167.32Z"/></svg>