<svg xmlns="http://www.w3.org/2000/svg" height="40" viewBox="0 -960 960 960" width="40"><path d="M269.33-173.67q-23.5 0-39.33-16.09-15.83-16.1-15.83-38.89v-502.7q0-22.79 15.83-38.89 15.83-16.09 39.33-16.09h422.98q22.83 0 38.93 16.09 16.09 16.1 16.09 38.89v502.7q0 22.79-16.09 38.89-16.1 16.09-38.93 16.09H269.33Zm0-23.16h422.84q14 0 23-9t9-23v-502.34q0-14-9-23t-23-9H269.33q-14 0-23.5 9t-9.5 23v502.34q0 14 9.5 23t23.5 9Zm200.5-195.5L385.17-477q-3.34-2.83-8.35-3.33-5.02-.5-8.49 2.83-4.33 3.67-4.33 8.5t4.33 7.67L462-367.67q7.77 9.34 19.05 9.34 11.27 0 19.78-9.34l91.67-91.66q2.5-2.5 3-7.68t-2.5-8.6q-4.96-3.22-9.46-3.22-4.51 0-8.21 3.33L493-392.33v-194q0-4.36-3.38-7.77-3.38-3.4-8.75-3.4t-8.2 3.4q-2.84 3.41-2.84 7.77v194Zm222.34 195.5H236.33h487.84-32Z"/></svg>