<svg xmlns="http://www.w3.org/2000/svg" height="24" viewBox="0 -960 960 960" width="24"><path d="M248.37-121.87q-35.72 0-60.86-25.14t-25.14-60.86v-544.26q0-35.72 25.14-60.86t60.86-25.14h463.76q35.72 0 60.86 25.14t25.14 60.86v544.26q0 35.72-25.14 60.86t-60.86 25.14H248.37Zm-.24-85.76h464.24v-544.74H248.13v544.74Zm191.26-262.78L410-499.8q-11.6-11.72-27.74-11.72-16.15 0-28.77 12.62-12.03 12.03-12.03 28.73 0 16.69 11.95 28.65l96.02 96.02q13.08 13.17 30.52 13.17 17.44 0 30.62-13.17l96.02-96.02q11.95-11.9 11.95-28.49 0-16.6-12.43-29.53-12.31-11.98-28.35-11.98t-28.02 11.98l-29.13 29.13v-111.35q0-16.7-11.96-28.65-11.95-11.96-28.65-11.96t-28.65 11.96q-11.96 11.95-11.96 28.65v111.35Zm272.98 262.78H248.13h464.24Z"/></svg>