<svg xmlns="http://www.w3.org/2000/svg" height="24" viewBox="0 -960 960 960" width="24"><path d="M252.31-140Q222-140 201-161q-21-21-21-51.31v-535.38Q180-778 201-799q21-21 51.31-21h455.77q30.3 0 51.3 21 21 21 21 51.31v535.38q0 30.31-21 51.31-21 21-51.3 21H252.31Zm0-60h455.77q5.38 0 8.84-3.46t3.46-8.85v-535.38q0-5.39-3.46-8.85t-8.84-3.46H252.31q-5.39 0-9.04 3.46-3.65 3.46-3.65 8.85v535.38q0 5.39 3.65 8.85t9.04 3.46Zm198.08-247.23-53.31-53.31q-8.31-8.31-20.58-8.5-12.27-.19-21.58 9.12-8.69 8.69-8.69 21.07 0 12.39 8.69 21.08l100.16 100.15q10.84 10.85 25.3 10.85 14.47 0 25.31-10.85L605.08-457q8.3-8.31 8.5-20.58.19-12.27-8.5-21.57-9.31-9.31-21.39-9.31-12.07 0-21.38 9.31l-51.93 51.92v-147.38q0-12.77-8.61-21.39-8.62-8.61-21.39-8.61-12.76 0-21.38 8.61-8.61 8.62-8.61 21.39v147.38ZM708.08-200H239.62 720.38h-12.3Z"/></svg>