<svg xmlns="http://www.w3.org/2000/svg" height="20" viewBox="0 -960 960 960" width="20"><path d="M276-110q-53 0-85.5-32.5T158-228v-504q0-53 32.5-85.5T276-850h408q53 0 85.5 32.5T802-732v504q0 53-32.5 85.5T684-110H276Zm-1-117h410v-506H275v506Zm156-278 4 4q-13.5-14-31.92-14-18.41 0-33.78 15.7Q354-484 354-464.5q0 19.5 15 34.5l69.14 69.14Q456.36-343 480.36-343T522-361l69-69q15-14.75 15-35.04T588-502q-13.07-13-31.03-13-17.97 0-30.95 12.98L529-505v-59.07q0-20.27-14.29-34.6Q500.42-613 480.21-613t-34.71 14.33q-14.5 14.33-14.5 34.6V-505Zm254 278H275h410Z"/></svg>