<svg xmlns="http://www.w3.org/2000/svg" height="40" viewBox="0 -960 960 960" width="40"><path d="M242.57-140q-25.79 0-44.18-18.39T180-202.57v-554.86q0-25.79 18.39-44.18T242.57-820h475.25q25.79 0 44.18 18.39 18.38 18.39 18.38 44.18v554.86q0 25.79-18.38 44.18Q743.61-140 717.82-140H242.57Zm0-50.26h475.25q5.38 0 8.85-3.46 3.46-3.46 3.46-8.85v-554.86q0-5.39-3.46-8.85-3.47-3.46-8.85-3.46H242.57q-5.39 0-9.04 3.46-3.66 3.46-3.66 8.85v554.86q0 5.39 3.66 8.85 3.65 3.46 9.04 3.46ZM455.26-418l-61.57-61.56q-7.23-7.23-17.41-7.43-10.18-.19-17.97 7.63-7.62 7.36-7.62 17.57 0 10.2 7.62 17.56l100.15 100.15q9.41 9.62 21.95 9.62t21.9-9.62l99.38-99.38q7.23-7.23 7.42-17.5.2-10.28-7.16-17.73-8.18-7.72-18.17-7.72-9.99 0-17.68 7.82L505.51-418v-181.49q0-10.7-7.25-17.91-7.25-7.21-18-7.21t-17.87 7.21q-7.13 7.21-7.13 17.91V-418Zm262.56 227.74H229.87h500.26H717.82Z"/></svg>