<svg xmlns="http://www.w3.org/2000/svg" height="48" viewBox="0 -960 960 960" width="48"><path d="M225.15-119.02q-26.63 0-46.13-19.5-19.5-19.5-19.5-46.13v-590.7q0-26.73 19.5-46.3 19.5-19.57 46.13-19.57h510.2q26.73 0 46.3 19.57 19.57 19.57 19.57 46.3v590.7q0 26.63-19.57 46.13-19.57 19.5-46.3 19.5h-510.2ZM449.11-413.5l-47.54-47.54q-9.48-9.72-21.7-9.6-12.22.12-21.44 9.34-9.71 9.78-9.71 22.2 0 12.43 9.71 21.64L456.89-319q9.78 10.2 23.2 10.2 13.41 0 23.52-10.2l98.46-98.46q9.21-9.21 9.21-21.65 0-12.44-9.69-22.67-9.51-8.98-21.57-8.98t-20.85 8.98l-47.78 48.28v-186.2q0-12.81-9.01-21.85-9.02-9.04-22.43-9.04t-22.12 9.04q-8.72 9.04-8.72 21.85v186.2Z"/></svg>