<svg xmlns="http://www.w3.org/2000/svg" height="40" viewBox="0 -960 960 960" width="40"><path d="M232.32-104.17q-36.44 0-62.29-25.86-25.86-25.85-25.86-62.29v-575.36q0-36.6 25.86-62.56 25.85-25.96 62.29-25.96h495.36q36.6 0 62.56 25.96t25.96 62.56v575.36q0 36.44-25.96 62.29-25.96 25.86-62.56 25.86H232.32Zm-.57-87.58h496.5v-576.5h-496.5v576.5Zm208.7-255.76-30.38-30.37q-10.7-11.37-26.2-11.18-15.5.19-27.26 12.09-11.73 11.83-11.73 27.89 0 16.07 11.56 27.62l92.13 92.13q13.54 13.2 31.6 13.2 18.06 0 31.26-13.2l92.13-92.13q11.56-11.41 11.56-27.63t-12.61-29.13q-11.62-11.03-26.64-11.03-15.02 0-25.71 11.14l-30.61 30.6v-147.85q0-16.51-11.57-28.03-11.58-11.52-28.17-11.52-16.59 0-27.98 11.52-11.38 11.52-11.38 28.03v147.85Zm287.8 255.76h-496.5 496.5Z"/></svg>