<svg xmlns="http://www.w3.org/2000/svg" height="48" viewBox="0 -960 960 960" width="48"><path d="M266.5-172q-22.77 0-38.39-15.88-15.61-15.88-15.61-37.94v-508.36q0-22.06 15.61-37.94Q243.73-788 266.5-788h428.65q22.09 0 37.97 15.88Q749-756.24 749-734.18v508.36q0 22.06-15.88 37.94Q717.24-172 695.15-172H266.5Zm0-22H695q14 0 23-9t9-23v-508q0-14-9-23t-23-9H266.5q-14 0-23.5 9t-9.5 23v508q0 14 9.5 23t23.5 9Zm204-194-86-86q-3-2.5-7.9-3t-8.1 2.5q-4 3-4 8t4 7l94 94q7.5 9.5 18.59 9.5t19.41-9.5l92-92q2-2 2.5-7.14t-1.87-8.02q-5.06-2.84-9.45-2.84-4.38 0-7.68 3L492.5-388v-201.5q0-4.07-3.19-7.29-3.2-3.21-8.5-3.21-5.31 0-7.81 3.21-2.5 3.22-2.5 7.29V-388ZM695-194H233.5 727h-32Z"/></svg>