<svg xmlns="http://www.w3.org/2000/svg" height="40" viewBox="0 -960 960 960" width="40"><path d="M245.44-144.74q-24.81 0-42.5-17.8-17.7-17.79-17.7-42.33v-550.26q0-24.54 17.7-42.33 17.69-17.8 42.5-17.8H715.5q24.55 0 42.35 17.8 17.79 17.79 17.79 42.33v550.26q0 24.54-17.79 42.33-17.8 17.8-42.35 17.8H245.44Zm0-47.89h470.01q5.38 0 8.84-3.46 3.47-3.46 3.47-8.85v-550.12q0-5.39-3.47-8.85-3.46-3.46-8.84-3.46H245.44q-5.39 0-9.04 3.46-3.66 3.46-3.66 8.85v550.12q0 5.39 3.66 8.85 3.65 3.46 9.04 3.46Zm211.27-220.62-62.52-62.52q-7.23-7.04-17.05-7.23-9.81-.19-16.91 6.94-7.61 7.36-7.61 17.11 0 9.76 7.61 16.59l99.21 99.21q8.72 9.64 20.92 9.64 12.21 0 21.5-9.64l98.43-98.44q6.71-6.71 6.9-16.6.19-9.9-6.4-17.21-8.27-7.02-17.89-7.02-9.61 0-16.8 7.13l-61.51 62.04v-180.57q0-9.65-7.01-16.66-7.02-7.02-17.32-7.02t-16.93 7.02q-6.62 7.01-6.62 16.66v180.57Zm258.74 220.62H232.74h495.02-12.31Z"/></svg>