<svg xmlns="http://www.w3.org/2000/svg" height="24" viewBox="0 -960 960 960" width="24"><path d="M242.87-111.87q-37.78 0-64.39-26.61t-26.61-64.39v-554.26q0-37.78 26.61-64.39t64.39-26.61h474.26q37.78 0 64.39 26.61t26.61 64.39v554.26q0 37.78-26.61 64.39t-64.39 26.61H242.87Zm194.02-368.54L409.5-507.8q-11.72-11.72-29.05-11.72-17.34 0-30.54 13.19-11.95 11.96-11.95 30.16 0 18.19 11.95 30.15L447.93-348q13.68 13.67 32.07 13.67T512.07-348l98.02-98.02q11.95-11.96 11.95-29.77 0-17.82-12.67-31.25-12.48-12.48-29.82-12.48-17.33 0-29.81 12.48l-26.63 26.63v-113.85q0-18.2-12.46-30.65-12.45-12.46-30.65-12.46t-30.65 12.46q-12.46 12.45-12.46 30.65v113.85Z"/></svg>