<svg xmlns="http://www.w3.org/2000/svg" height="48" viewBox="0 -960 960 960" width="48"><path d="M232-100q-38.08 0-64.79-26.71-26.71-26.71-26.71-64.79v-577q0-38.49 26.71-65.5 26.71-27 64.79-27h496.5q38.49 0 65.5 27 27 27.01 27 65.5v577q0 38.08-27 64.79Q766.99-100 728.5-100H232Zm209.5-331-27-27q-11-12-25.5-11.5t-26 12q-12 12.27-12 27.63 0 15.37 12 26.87l84 84q13.86 14 33.23 14 19.36 0 33.27-14l84-84q11.5-11.5 11.5-26.98 0-15.49-13.5-29.52-11.03-10.5-24.92-10.5-13.88 0-23.58 10.5L519-431v-155q0-15.65-11.44-27.07-11.45-11.43-27.75-11.43-16.31 0-27.31 11.43-11 11.42-11 27.07v155Z"/></svg>