<svg xmlns="http://www.w3.org/2000/svg" height="40" viewBox="0 -960 960 960" width="40"><path d="M230.5-126.67q-25.63 0-44.48-18.85-18.85-18.85-18.85-44.48v-580q0-25.63 18.85-44.48 18.85-18.85 44.48-18.85H730q25.63 0 44.48 18.85 18.85 18.85 18.85 44.48v580q0 25.63-18.85 44.48-18.85 18.85-44.48 18.85H230.5Zm0-63.33H730v-580H230.5v580Zm218-236.33L399.83-475q-9.66-9.67-22.48-9.67t-22.18 9.5q-9.67 9.67-9.67 22.5 0 12.84 9.67 22.17l102.66 102.67q9.32 9.83 22.11 9.83t22.56-9.83L605.17-430.5q9.33-9.33 9.33-22.18 0-12.84-8.83-22.59-10.36-9.4-23.16-9.4-12.81 0-22.18 9.5l-48.5 48.84V-598.5q0-12.95-9.28-22.23-9.28-9.27-22.67-9.27-13.38 0-22.38 9.27-9 9.28-9 22.23v172.17ZM730-190H230.5 730Z"/></svg>