<svg xmlns="http://www.w3.org/2000/svg" height="24" viewBox="0 -960 960 960" width="24"><path d="M246.78-100.78q-44.3 0-75.15-30.85-30.85-30.85-30.85-75.15v-546.44q0-44.3 30.85-75.15 30.85-30.85 75.15-30.85h466.44q44.3 0 75.15 30.85 30.85 30.85 30.85 75.15v546.44q0 44.3-30.85 75.15-30.85 30.85-75.15 30.85H246.78Zm185.87-389.74L417-506.17q-12.7-12.7-31.17-12.7-18.48 0-33.31 14.83-13.26 13.26-13.26 33.08 0 19.83 13.26 33.09L442.39-348q15.96 15.96 37.61 15.96T517.61-348l89.87-89.87q13.26-13.26 13.26-32.87t-14.96-35q-13.13-13.13-31.61-13.13-18.47 0-31.61 13.13l-15.21 15.22v-95.91q0-19.83-13.76-33.59-13.76-13.76-33.59-13.76-19.83 0-33.59 13.76-13.76 13.76-13.76 33.59v95.91Z"/></svg>