<svg xmlns="http://www.w3.org/2000/svg" height="48" viewBox="0 -960 960 960" width="48"><path d="M252.38-144q-28.23 0-48.3-20.08Q184-184.15 184-212.38v-535.24q0-28.23 20.08-48.3Q224.15-816 252.38-816h456q28.24 0 48.31 20.08 20.08 20.07 20.08 48.3v535.24q0 28.23-20.08 48.3Q736.62-144 708.38-144h-456Zm207-264.77L399-469.15q-6.38-5.39-14.62-5.77-8.23-.39-15.38 6.77-7.15 6.38-7.15 15.61t7.15 14.62l88.31 88.3q9.23 11 23.46 11t24.46-11L591-436.38q6.38-5.39 6.77-14.62.38-9.23-7.77-16.62-7.15-6.15-14.5-6.15t-13.5 6.15l-58.85 58.85v-172.08q0-8.84-6.77-15.61-6.76-6.77-15.61-6.77t-15.12 6.77q-6.27 6.77-6.27 15.61v172.08Z"/></svg>