<svg xmlns="http://www.w3.org/2000/svg" height="20" viewBox="0 -960 960 960" width="20"><path d="M270.78-124.78q-44.3 0-71.15-26.85-26.85-26.85-26.85-71.15v-514.44q0-44.3 26.85-71.15 26.85-26.85 71.15-26.85h418.44q44.3 0 71.15 26.85 26.85 26.85 26.85 71.15v514.44q0 44.3-26.85 71.15-26.85 26.85-71.15 26.85H270.78Zm-.56-97.44h419.56v-515.56H270.22v515.56Zm166.43-269.3L425-503.17q-12.41-12.7-29.2-12.7t-30.11 13.65q-13.43 13.44-13.43 30.76 0 17.33 13.26 30.59l80.01 80.01q15.02 14.82 34.75 14.82 19.74 0 34.33-14.96l79.87-79.87q13.26-13.12 13.26-30.96 0-17.85-14.96-31.91-12.02-12.13-28.55-12.13t-28.64 12.11l-12.24 12.24v-82.99q0-18.09-12.55-30.68t-30.59-12.59q-18.04 0-30.8 12.59-12.76 12.59-12.76 30.68v82.99Zm253.13 269.3H270.22h419.56Z"/></svg>