<svg xmlns="http://www.w3.org/2000/svg" height="48" viewBox="0 -960 960 960" width="48"><path d="M228.09-110.87q-31.48 0-54.1-22.62t-22.62-54.1v-584.82q0-31.71 22.62-54.5t54.1-22.79h504.32q31.71 0 54.5 22.79t22.79 54.5v584.82q0 31.48-22.79 54.1t-54.5 22.62H228.09Zm-.57-76.15h505.46v-585.96H227.52v585.96ZM445.85-421l-38.74-38.74q-9.85-10.69-23.29-10.41-13.43.28-23.26 10.3-10.86 11.02-10.86 24.71 0 13.68 10.69 23.88L452.65-319q11.56 11.83 27.51 11.83 15.95 0 27.69-11.83l92.26-92.26q10.19-10.05 10.19-24.03 0-13.97-10.69-25.67-11.02-9.47-23.85-9.47-12.83 0-21.8 9.63L514.65-421v-172.83q0-13.78-10.23-23.96-10.23-10.19-24.7-10.19-14.48 0-24.18 10.19-9.69 10.18-9.69 23.96V-421Zm287.13 233.98H227.52h505.46Z"/></svg>