<svg xmlns="http://www.w3.org/2000/svg" height="20" viewBox="0 -960 960 960" width="20"><path d="M282.62-152q-38.35 0-60.48-22.14Q200-196.27 200-234.62v-490.76q0-38.35 22.14-60.48Q244.27-808 282.62-808h395.53q38.34 0 60.48 22.14 22.14 22.13 22.14 60.48v490.76q0 38.35-22.14 60.48Q716.49-152 678.15-152H282.62Zm-1-57h397.53q10.77 0 17.7-6.92 6.92-6.93 6.92-17.7v-492.76q0-10.77-6.92-17.7-6.93-6.92-17.7-6.92H281.62q-10.77 0-18.08 6.92-7.31 6.93-7.31 17.7v492.76q0 10.77 7.31 17.7 7.31 6.92 18.08 6.92Zm170.15-242.46-30.62-30.62q-8.11-8.61-18.07-9-9.95-.38-19.93 9.93-10.69 10.69-10.69 20.96 0 10.27 10.39 20.65l69.44 69.45q12.37 12.55 28.57 12.55 16.2 0 28.52-12.69L577.15-438q9.62-9.37 10-21.2.39-11.83-13-23.11-7.68-7.61-16.8-7.61-9.12 0-16.71 7.59l-30.87 30.87v-99.84q0-11.81-8.52-20.37t-20.27-8.56q-11.75 0-20.48 8.56t-8.73 20.37v99.84ZM679.15-209H256.23 703.77 679.15Z"/></svg>