<svg xmlns="http://www.w3.org/2000/svg" height="40" viewBox="0 -960 960 960" width="40"><path d="M242.57-140q-25.85 0-44.21-18.36T180-202.57v-554.86q0-25.85 18.36-44.21T242.57-820h475.25q25.85 0 44.2 18.36 18.36 18.36 18.36 44.21v554.86q0 25.85-18.36 44.21Q743.67-140 717.82-140H242.57Zm212.69-278-61.57-61.56q-7.23-7.23-17.4-7.43-10.16-.19-17.98 7.63-7.62 7.36-7.62 17.57 0 10.2 7.62 17.56l100.15 100.15q9.36 9.62 21.92 9.62 12.57 0 21.93-9.62l99.38-99.38q7.23-7.23 7.42-17.4.2-10.17-7.42-17.73-7.82-7.82-17.79-7.82-9.98 0-17.8 7.82L505.51-418v-181.49q0-10.87-7.13-18-7.12-7.12-18-7.12-10.87 0-17.99 7.12-7.13 7.13-7.13 18V-418Z"/></svg>