<svg xmlns="http://www.w3.org/2000/svg" height="40" viewBox="0 -960 960 960" width="40"><path d="M771.32-588.7q-5.84 0-7.79-5.82-15.64-62.38-61.33-108.14-45.69-45.77-107.94-62.13-5.74-1.98-5.74-7.92 0-6.99 5.61-7.96 62.17-15.83 107.84-61.24 45.67-45.42 61.98-107.71 2.01-6.02 8.14-6.02 6.2 0 7.14 5.82 16.27 62.43 62.02 108.01 45.74 45.58 108.18 61.97 5.64.98 5.64 7.8 0 5.85-5.65 7.82-62.45 16.08-108.18 61.66-45.73 45.58-62.13 108.04-.98 5.82-7.79 5.82ZM691.93-96.75H268.32q-71.73 0-121.65-49.92T96.75-268.32v-424.03q0-71.29 49.92-121.17 49.92-49.89 121.65-49.89h250.23q-46.15 74.13-35.79 160.6t71.97 148.08q61.61 61.61 148.08 71.97 86.47 10.36 160.6-35.79v250.23q0 71.73-50.19 121.65-50.18 49.92-121.29 49.92Z"/></svg>