<svg xmlns="http://www.w3.org/2000/svg" height="20" viewBox="0 -960 960 960" width="20"><path d="M714.13-568q-6.02 0-8.02-5.94-11.89-49.75-47.07-85.07-35.17-35.31-85.08-47.07-5.96-1.97-5.96-7.88 0-6.94 5.94-7.93 49.92-12.29 85.17-47.35 35.26-35.06 46.99-84.8 1.97-5.96 7.87-5.96 7.94 0 7.92 5.94 13.29 49.42 47.95 84.31 34.66 34.9 84.2 47.68 5.96.99 5.96 7.89 0 5.97-5.94 7.96-49.42 11.9-84.74 47.06Q734-624 722.08-573.96q-.99 5.96-7.95 5.96Zm-85.34 367H330.5q-55.24 0-92.37-37.13T201-330.5v-298.29q0-54.71 37.13-92.46Q275.26-759 330.5-759h167q-1 53.5 18.75 102t56 84.75q36.25 36.25 84.75 56t102 18.75v167q0 55.24-37.75 92.37T628.79-201Z"/></svg>