<svg xmlns="http://www.w3.org/2000/svg" height="48" viewBox="0 -960 960 960" width="48"><path d="M182.39-276.25V-182.39v-595.22 501.36ZM684.54-124H275.69q-63.4 0-107.54-44.15Q124-212.29 124-275.69v-408.85q0-62.83 44.15-107.14Q212.29-836 275.69-836h216.08v58.39H275.29q-38.6 0-65.75 27.2t-27.15 65.87v407.85q0 39.19 27.05 66.75 27.06 27.55 66.25 27.55h408.85q38.67 0 65.87-27.59 27.2-27.6 27.2-66.71v-215.08H836v216.08q0 63.4-44.25 107.54Q747.49-124 684.54-124Zm70.9-460.31q-5.8 0-7.74-5.73-14.71-58.37-56.96-100.88-42.24-42.52-100.63-57.86-5.8-2-5.8-8.01 0-6.91 5.54-7.86 58.41-14.64 100.67-56.66 42.26-42.02 57.51-100.1 2.01-5.97 8.12-5.97 6.51 0 7.03 5.8 15.12 58.3 57.56 100.47 42.44 42.17 101.08 57.39 5.56.97 5.56 7.73 0 5.79-5.55 7.79-58.55 15.21-100.94 57.48-42.4 42.27-57.71 100.68-.97 5.73-7.74 5.73Z"/></svg>