<svg xmlns="http://www.w3.org/2000/svg" height="40" viewBox="0 -960 960 960" width="40"><path d="M772.33-585.67q-5.82 0-7.76-5.82-16.32-63.38-63.44-110.47-47.11-47.08-110.09-63.61-5.71-1.94-5.71-7.76 0-6.67 5.72-7.62 63.15-16.25 110.07-63.14 46.92-46.9 63.45-110.42 1.94-5.82 7.76-5.82 6.83 0 7.77 5.82 16.52 63.52 63.2 110.54 46.69 47.01 110.21 63.21 5.82.95 5.82 7.59 0 5.7-5.82 7.6-63.52 16.53-110.21 63.54-46.68 47.01-63.2 110.54-.97 5.82-7.77 5.82ZM690-92H270.33q-74.42 0-126.38-51.95Q92-195.91 92-270.33v-420q0-74.67 51.95-126.5 51.96-51.84 126.38-51.84h244q-52 75.67-42.83 167.17 9.17 91.5 73.83 156.17Q610-480.67 701.5-471.5q91.5 9.17 167.17-42.83v244q0 74.42-52.34 126.38Q764-92 690-92Z"/></svg>