<svg xmlns="http://www.w3.org/2000/svg" height="20" viewBox="0 -960 960 960" width="20"><path d="M723.23-571.38q-6 0-8-6-12.46-51.62-49.35-88.5-36.88-36.89-88.5-49.35-6-2-6-8 0-7 6-8 51.62-12.46 88.5-49.35 36.89-36.88 49.35-88.5 2-6 8-6 7.77 0 8 6 13.46 51.62 49.85 88 36.38 36.39 88 49.85 6 1 6 8 0 6-6 8-51.62 12.46-88.5 49.35-36.89 36.88-49.35 88.5-1 6-8 6ZM634.92-184H324.31q-59.23 0-99.77-40.54T184-324.31v-310.61q0-59.23 40.54-100.16Q265.08-776 324.31-776h176.07q-6.92 57.08 11.66 110.92 18.58 53.85 58.88 94.16 40.31 40.3 94.16 58.88 53.84 18.58 110.92 11.66v176.07q0 59.23-40.92 99.77Q694.15-184 634.92-184Z"/></svg>