<svg xmlns="http://www.w3.org/2000/svg" height="20" viewBox="0 -960 960 960" width="20"><path d="M221-316.5v95.5V-739v422.5ZM643.5-154h-327q-68 0-115.25-47.25T154-316.5v-327q0-68 47.25-115.25T316.5-806H510v67H316.5q-39.1 0-67.3 28.2-28.2 28.2-28.2 67.09v327.42q0 38.89 28.2 67.09 28.2 28.2 67.09 28.2h327.42q38.89 0 67.09-28.2 28.2-28.2 28.2-67.3V-510h67v193.5q0 68-47.25 115.25T643.5-154ZM738-572q-5.92 0-7.89-5.94-13.79-56.42-54.7-97.49-40.91-41.07-97.81-54.96-5.6-1.74-5.6-7.61 0-6.91 5.94-7.89 56.42-13.79 97.49-54.7 41.07-40.91 54.96-97.81 1.74-5.6 8.11-5.6 6.42 0 7.39 5.94 14.63 56.01 55.33 96.86 40.69 40.86 96.82 55.37 5.96.98 5.96 7.83 0 5.92-5.94 7.89-56.42 13.79-97.49 54.7-41.07 40.91-54.85 97.81-.87 5.6-7.72 5.6Z"/></svg>