<svg xmlns="http://www.w3.org/2000/svg" height="48" viewBox="0 -960 960 960" width="48"><path d="M755.44-584.31q-5.8 0-7.74-5.73-14.71-58.37-56.96-100.88-42.24-42.52-100.63-57.86-5.8-2-5.8-8.01 0-6.91 5.54-7.86 58.41-14.64 100.67-56.66 42.26-42.02 57.51-100.1 2.01-5.97 8.12-5.97 6.51 0 7.03 5.8 15.12 58.3 57.56 100.47 42.44 42.17 101.08 57.39 5.56.97 5.56 7.73 0 5.79-5.55 7.79-58.55 15.21-100.94 57.48-42.4 42.27-57.71 100.68-.97 5.73-7.74 5.73ZM684.54-124H275.69q-63.4 0-107.54-44.15Q124-212.29 124-275.69v-408.85q0-63 44.15-107.23Q212.29-836 275.69-836h238.92q-34.69 68.46-21.88 144.85 12.81 76.38 67.42 131 54.62 54.61 131 67.42 76.39 12.81 144.85-21.88v238.92q0 63.4-44.17 107.54Q747.66-124 684.54-124Z"/></svg>