<svg xmlns="http://www.w3.org/2000/svg" height="20" viewBox="0 -960 960 960" width="20"><path d="M138.34-300.12q-14.53 0-22.38-7.84-7.84-7.85-7.84-21.81v-300.46q0-13.96 7.84-21.9 7.85-7.95 22.48-7.95h468.75q9.96 0 17.02 7 7.06 7.01 7.06 16.87 0 9.86-7.06 16.98-7.06 7.11-17.02 7.11H252.08v264.04h330.61q9.96 0 17.02 7 7.06 7.01 7.06 16.87 0 9.86-7.06 16.98-7.06 7.11-17.02 7.11H138.34Zm574.01-138.23h-84.62q-9.22 0-13.4-8.25-4.17-8.25 1.36-15.67l107.32-167.89q3.41-4.38 7.47-5.19 4.06-.8 7.12.65 3.05 1.44 5.53 5 2.48 3.56 1.06 8.47l-16.54 99.38h84.81q9.03 0 13.21 8.35 4.17 8.35-1.17 15.58L716.99-330.03q-3.41 4.57-7.47 5.38-4.06.8-7.12-.65-3.05-1.44-5.53-5-2.48-3.56-.87-8.66l16.35-99.39Z"/></svg>