<svg xmlns="http://www.w3.org/2000/svg" height="24" viewBox="0 -960 960 960" width="24"><path d="M126.15-277q-20.46 0-34.8-14.35Q77-305.69 77-326.15v-307.7q0-20.46 14.35-34.8Q105.69-683 126.15-683h429.77q17.77 0 30.39 12.62 12.61 12.61 12.61 30.38t-12.61 30.38Q573.69-597 555.92-597H243v234h287.62q17.76 0 30.38 12.62 12.61 12.61 12.61 30.38T561-289.62Q548.38-277 530.62-277H126.15Zm565.77-154.23h-89.3q-15.46 0-22.58-13.65-7.12-13.66 2.73-25.89l140.92-188.31q6.23-7.61 14.16-9.5 7.92-1.88 15.53 2.12 7.62 4 11.73 9.92 4.12 5.93 2.5 16.16l-19.53 111.61h89.3q15.46 0 22.58 13.65 7.12 13.66-2.73 25.89L716.31-300.92q-6.23 7.61-14.16 9.5-7.92 1.88-15.53-2.12-7.62-4-11.73-9.92-4.12-5.93-2.5-16.16l19.53-111.61Z"/></svg>