<svg xmlns="http://www.w3.org/2000/svg" height="48" viewBox="0 -960 960 960" width="48"><path d="M136-303q-13.97 0-23.49-9.51Q103-322.02 103-336v-288q0-13.97 9.51-23.99Q122.03-658 136-658h434q6.97 0 12.49 5.52 5.51 5.52 5.51 12.5T582.49-628q-5.52 5-12.49 5H218v285h334q6.97 0 11.99 5.52 5.01 5.52 5.01 12.5T563.99-308q-5.02 5-11.99 5H136Zm587-145h-87q-10.17 0-15.08-9-4.92-9 .82-16.89L706-614q3-5 8.38-7 5.38-2 9.15 1.14 3.77 3.15 6.12 6.5Q732-610 733-605l-15 92h86q10.17 0 15.08 9.5 4.92 9.5.18 17.39L734-346q-3 5-8.5 6.5t-9-1q-3.5-2.5-6-6T708-356l15-92Z"/></svg>