<svg xmlns="http://www.w3.org/2000/svg" height="20" viewBox="0 -960 960 960" width="20"><path d="M132.19-271.41q-23.62 0-38.2-14.58-14.58-14.58-14.58-37.63v-312.76q0-23.05 14.58-37.63 14.58-14.58 38.3-14.58h435.25q21.74 0 37.16 15.37 15.43 15.36 15.43 37.01 0 21.64-15.43 37.22-15.42 15.58-37.16 15.58H280.59v206.82h255q21.73 0 37.16 15.37 15.42 15.36 15.42 37.01 0 21.64-15.42 37.22-15.43 15.58-37.16 15.58h-403.4Zm546.51-144h-85.29q-16.33 0-23.74-14.96t3.31-27.91l162.89-220.34q7.04-8.51 15.76-10.01 8.72-1.5 16.08 2.33 7.36 3.84 11.71 10.55 4.36 6.72 2.36 17.53L761.3-544.59h85.29q16.33 0 23.74 14.96t-3.31 27.91L704.13-281.38q-7.04 8.51-15.76 10.01-8.72 1.5-16.08-2.33-7.36-3.84-11.71-10.55-4.36-6.72-2.36-17.53l20.48-113.63Z"/></svg>