<svg xmlns="http://www.w3.org/2000/svg" height="40" viewBox="0 -960 960 960" width="40"><path d="M136-308q-11.65 0-19.82-8.18Q108-324.35 108-336v-288q0-11.65 8.18-19.82Q124.35-652 136-652h446.33q5.32 0 8.66 3.35 3.34 3.34 3.34 8.66t-3.34 8.66q-3.34 3.33-8.66 3.33H212v296h353q5.32 0 8.66 3.35 3.34 3.34 3.34 8.66t-3.34 8.66Q570.32-308 565-308H136Zm592.67-145H642q-8.44 0-12.56-7.17-4.11-7.16.05-14.42l87.84-151.74q1.34-3 3.42-3.5 2.09-.5 4.27.59 2.18 1.1 3.41 2.67 1.24 1.57.9 3.9l-18 115.67H798q8.44 0 12.56 7.17 4.11 7.16-.05 14.42l-87.84 151.74q-1.34 3-3.5 3.5-2.17.5-4.17-.5t-3.33-2.66q-1.34-1.67-1-4l18-115.67Z"/></svg>