<svg xmlns="http://www.w3.org/2000/svg" height="20" viewBox="0 -960 960 960" width="20"><path d="M144.5-308q-14.12 0-21.31-7.19-7.19-7.19-7.19-20.73v-288.16q0-13.54 7.19-20.73 7.19-7.19 21.4-7.19h457.26q6.83 0 11.42 4.52 4.58 4.52 4.58 11.27t-4.58 11.48q-4.59 4.73-11.42 4.73H244v280h335.23q6.84 0 11.42 4.52t4.58 11.27q0 6.75-4.58 11.48T579.23-308H144.5Zm577.35-132.46h-81.62q-8.3 0-12.34-7.31-4.04-7.31.65-14.77l75.28-136.58q3.03-5.26 7.87-7.03 4.85-1.77 9.08.06t6.96 6.18q2.73 4.35 1.5 10.14l-11.08 70.23h81.62q8.3 0 12.34 7.31 4.04 7.31-.65 14.77l-75.28 136.58q-3.03 5.26-7.87 7.03-4.85 1.77-9.08-.06t-6.96-6.18q-2.73-4.35-1.5-10.14l11.08-70.23Z"/></svg>