<svg xmlns="http://www.w3.org/2000/svg" height="48" viewBox="0 -960 960 960" width="48"><path d="M480.16-484q17.16 0 28-10.92t10.84-27.5Q519-538 507.96-550q-11.04-12-27.8-12-16.16 0-27.66 11.91-11.5 11.92-11.5 27.25 0 16.76 11.5 27.8T480.16-484ZM348-211h266l70 70q-45 28-96.5 43T480-83q-56 0-107.58-14.31T276-140l72-71Zm131.31-666q82.74 0 155.22 31 72.47 31 126.43 85.04 53.96 54.04 85 126.19T877-480q0 88.58-35.5 164.79T744-185l-90-89q44-37 70-90.59T750-480q0-112.25-78.82-191.13-78.83-78.87-191-78.87Q368-750 289.5-671.13 211-592.25 211-480q0 61.82 25.5 115.41Q262-311 307-274l-90 89q-62-54-98-130.21Q83-391.42 83-480q0-82.65 31.5-154.82Q146-707 200.18-760.96q54.18-53.96 125.79-85Q397.57-877 479.31-877Zm1.19 201q81.5 0 139 57T677-480.5q0 81.5-57.5 139t-139 57.5q-81.5 0-139-57.5t-57.5-139q0-81.5 57.5-138.5t139-57Z"/></svg>