<svg xmlns="http://www.w3.org/2000/svg" height="20" viewBox="0 -960 960 960" width="20"><path d="M480.25-476.17q-16.92 0-28.86-11.45-11.93-11.45-11.93-28.37t11.72-28.74q11.72-11.81 28.65-11.81 16.92 0 28.58 11.6 11.66 11.61 11.66 28.53t-11.45 28.58q-11.45 11.66-28.37 11.66ZM409.8-281.3l-46.23 46.23q26.37 13 55.78 19.5t60.65 6.5q31.24 0 60.73-6.5t55.94-19.5L550.2-281.3H409.8Zm70.16-469.63q-55.39 0-104.83 21.47-49.44 21.46-86.27 58.55-36.84 37.08-58.32 86.1-21.47 49.02-21.47 104.77 0 59.04 23.02 110.44t63.3 88.27l51.24-51.24q-30.52-26.71-47.92-64.92-17.41-38.21-17.41-82.7 0-82.59 58.19-140.55 58.18-57.96 140.74-57.96 82.55 0 140.51 58.08 57.96 58.09 57.96 140.49 0 44.39-17.41 82.62-17.4 38.23-47.92 64.94l51.24 51.24q40.04-36.77 63.18-88.03T750.93-480q0-55.79-21.57-104.84-21.56-49.05-58.41-86.08-36.85-37.02-86.22-58.52-49.37-21.49-104.77-21.49Zm.08 150.21q-50.28 0-85.52 35.2-35.24 35.2-35.24 85.48t35.2 85.52q35.2 35.24 85.48 35.24t85.52-35.2q35.24-35.2 35.24-85.48t-35.2-85.52q-35.2-35.24-85.48-35.24Zm.01 474.42q-73.64 0-138-27.92-64.36-27.91-112.14-75.69T154.22-342q-27.92-64.31-27.92-137.95 0-73.64 27.92-138 27.91-64.36 75.69-112.14T342-805.78q64.31-27.92 137.95-27.92 73.64 0 138 27.92 64.36 27.91 112.14 75.69T805.78-618q27.92 64.31 27.92 137.95 0 73.64-27.92 138-27.91 64.36-75.69 112.14T618-154.22q-64.31 27.92-137.95 27.92Z"/></svg>