<svg xmlns="http://www.w3.org/2000/svg" height="20" viewBox="0 -960 960 960" width="20"><path d="M480.37-464q-22.37 0-38.87-15.13-16.5-15.13-16.5-37.5Q425-539 441.29-555q16.29-16 38.66-16 22.37 0 37.71 15.79T533-517.05q0 22.37-15.13 37.71T480.37-464ZM406-260l-47 47q27.59 13 58.29 19.5Q448-187 480-187t63.05-6.5Q574.09-200 602-213l-48-47H406Zm73.85-513q-59.85 0-113.43 23.28-53.58 23.29-93.5 63.5Q233-646 210-593.1q-23 52.9-23 113.06 0 59.04 21.12 111.58T268-276l52-52q-29-29-44.5-67.93-15.5-38.93-15.5-84.26 0-91.43 64.42-155.62Q388.83-700 480.23-700q91.39 0 155.58 64.31Q700-571.38 700-480.13q0 45.23-15.5 84.18Q669-357 640-328l52 52q37.76-39.82 59.38-92.22Q773-420.62 773-480q0-60.27-23.38-113.27-23.39-53-63.37-92.97-39.98-39.96-93.26-63.36Q539.71-773 479.85-773Zm.33 170Q429-603 393-567.18q-36 35.83-36 87Q357-429 392.82-393q35.83 36 87 36Q531-357 567-392.82q36-35.83 36-87Q603-531 567.18-567q-35.83-36-87-36Zm.03 533Q395-70 320.37-102.1q-74.64-32.1-130.4-87.87-55.77-55.76-87.87-130.18Q70-394.57 70-479.79q0-85.21 32.1-159.84 32.1-74.64 87.87-130.4 55.76-55.77 130.18-87.87Q394.57-890 479.79-890q85.21 0 159.84 32.1 74.64 32.1 130.4 87.87 55.77 55.76 87.87 130.18Q890-565.43 890-480.21q0 85.21-32.1 159.84-32.1 74.64-87.87 130.4-55.76 55.77-130.18 87.87Q565.43-70 480.21-70Z"/></svg>