<svg xmlns="http://www.w3.org/2000/svg" height="40" viewBox="0 -960 960 960" width="40"><path d="M480-488q-13.67 0-23.5-9.5t-9.83-23.83q0-13.67 9.83-23.5 9.83-9.84 23.5-9.84 14.33 0 23.83 9.84 9.5 9.83 9.5 23.5 0 14.33-9.5 23.83-9.5 9.5-23.83 9.5Zm-67 204.67-65.33 64.66Q378-203 411-194.83q33 8.16 69 8.16t69.33-8.16Q582.67-203 613-218.67l-64.33-64.66H413Zm67-490q-60.67 0-114 23t-93.33 62.66q-40 39.67-63 93.34-23 53.66-23 114.33 0 67 28.16 125Q243-297 291-256.33l68.67-68q-34.67-27.34-55.5-67.84-20.84-40.5-20.84-87.83 0-81.67 57.5-139.17 57.5-57.5 139.17-57.5 81.67 0 139.17 57.5 57.5 57.5 57.5 139.17 0 47.33-20.84 87.5-20.83 40.17-55.5 67.5L669-257q48-40.67 76.17-98.33Q773.33-413 773.33-480q0-60.67-23-114.33-23-53.67-62.66-93.34-39.67-39.66-93.34-62.66-53.66-23-114.33-23ZM480-610q-54 0-92 37.67-38 37.66-38 92.33 0 54 38 92t92 38q54.67 0 92.33-38Q610-426 610-480q0-54.67-37.67-92.33Q534.67-610 480-610Zm0 490q-74.33 0-139.83-28.5-65.5-28.5-114.34-77.33Q177-274.67 148.5-340.17T120-480q0-75 28.5-140.5t77.33-114q48.84-48.5 114.34-77T480-840q75 0 140.5 28.5t114 77q48.5 48.5 77 114T840-480q0 74.33-28.5 139.83-28.5 65.5-77 114.34Q686-177 620.5-148.5T480-120Z"/></svg>