<svg xmlns="http://www.w3.org/2000/svg" height="24" viewBox="0 -960 960 960" width="24"><path d="M245-125q-5 15-11 30t-12 29q-10 23-33.5 29T142-44q-22-13-30-37t2-47q32-80 44-172t12-180q0-88-11.5-179T115-830q-10-24-3-48.5t30-37.5q23-13 47-5.5t34 30.5q6 14 11.5 28.5T245-834h70q77 1 131.5 56.5T501-644v330q0 78-54.5 133.5T315-125h-70Zm525-292 3 3q17 19 16 44t-20 44q-18 18-44 18t-44-19L574-436q-18-18-18-44t18-44l107-109q18-19 44-19t46 20q18 18 18.5 42.5T773-546l-3 3h77q26 0 44.5 18.5T910-480q0 26-18.5 44.5T847-417h-77Z"/></svg>