<svg xmlns="http://www.w3.org/2000/svg" height="48" viewBox="0 -960 960 960" width="48"><path d="M232.22-141.17q-8.57 25-17.78 48.37-9.22 23.37-20.09 47.23-8.13 13.7-24.39 17.77-16.26 4.06-30.39-5.07-14.14-9.13-18.55-25.39-4.41-16.26 4.28-30.96 43.87-88.74 50.87-188.61 7-99.87 7-202.17 0-100.74-7.28-200.89-7.28-100.15-50.59-189.46-8.69-15.26-3.28-31.24 5.41-15.98 18.55-25.11 13.13-9.13 30.17-4.56 17.04 4.56 24.61 18.26 10.87 22.87 19.87 46.02 9 23.15 17 47.59h76.91q69.13 0 118.83 51.41 49.69 51.41 49.69 125.11v324.3q0 74.7-49.69 126.05-49.7 51.35-118.83 51.35h-76.91Zm490.65-297.31 41.52 45.96q10.57 12.69 10.07 29.45-.5 16.77-12.2 28.9-13.13 12.69-30.39 12.41-17.26-.28-28.96-12.85l-110.87-117q-11.69-11.13-11.69-28.39 0-17.26 11.69-29.39l110.87-116q11.26-11.13 29.52-11.35 18.27-.22 30.83 11.35 12.26 12.26 11.98 28.74-.28 16.48-10.41 28.17l-41.96 46.83h134.3q17.83 0 30.24 11.91 12.42 11.91 12.42 29.96 0 18.04-12.42 29.67-12.41 11.63-30.24 11.63h-134.3ZM251.48-225.35h58.22q35.17 0 59.69-26.74 24.52-26.74 24.52-67.04V-641.3q0-40.31-24.52-67.33-24.52-27.02-59.69-27.02h-57.22q10.43 62.87 12.15 126.67 1.72 63.81 1.72 128.98 0 65.17-2.22 129.26-2.22 64.09-12.65 125.39ZM266.35-480Z"/></svg>