<svg xmlns="http://www.w3.org/2000/svg" height="20" viewBox="0 -960 960 960" width="20"><path d="M259-202.5q-6.5 23.5-14.25 45.25T227-113q-5 13-17.25 16.25T184-99q-13-5.5-16.5-18.25t1-25.75q33-79 44-164.25t11-172.75q0-86.5-10.5-172t-43.5-163.5q-5.5-13-1.75-26T184.5-860q13-5.5 25.25-1.5t17.25 17q9.5 21 17.75 42.5t13.75 44h81q58.5-.5 98.75 41t40.25 101v271.5q0 59.5-40.25 100.75T339.5-202.5H259Zm445.5-244 36 38q10.5 11 9.75 23.25T739-362.5q-11 11-23.5 11t-23.5-11L599.5-457q-10-10.5-10-23t10-23l93-94.5q10-10.5 23.25-10t23.75 11q10.5 10 10.25 22.5T740-551l-35.5 37.5H821q13.5 0 23.5 10t10 23.5q0 13.5-10 23.5t-23.5 10H704.5Zm-431 177h66q29 0 50.5-21.75t21.5-53.25V-616q0-30-21.5-52.5T339.5-691H274q9.5 52.5 13 104.5t3.5 106.5q0 54-3.75 106T273.5-269.5Zm17-210.5Z"/></svg>