<svg xmlns="http://www.w3.org/2000/svg" height="20" viewBox="0 -960 960 960" width="20"><path d="M257.31-200.77q-8.54 30.46-17.85 59.15-9.31 28.7-25.46 59.93-3.92 10.31-15.12 12.11-11.19 1.81-23.26-3.34-12.08-5.16-12.24-15.85-.15-10.69 2.77-22 40.7-87.61 47.81-179.73 7.12-92.12 7.12-189.5 0-95.62-6.62-188.88-6.61-93.27-48.08-179.12-3.92-9.54-2.5-21.23 1.43-11.69 11.74-16.85 10.3-5.15 21.11-2.84 10.81 2.3 16.5 13.61 15.39 29.46 26.46 56.77 11.08 27.31 17.62 58.54h77.92q59-1.77 97.92 41.46 38.93 43.23 38.93 104.77V-348q0 63.31-38.93 105.27-38.92 41.96-97.92 41.96h-77.92ZM691.08-450l47.23 52.08q8.61 11.38 8.11 21.04-.5 9.65-10.11 19.26-11.39 11.39-21.04 10.5-9.65-.88-19.27-12.26l-86.92-92q-10.93-12.7-10.93-28.62 0-15.92 10.93-28.62l86.92-92q7.85-9.61 19.77-10 11.92-.38 22.54 10.24 9.61 7.84 9.11 18.26-.5 10.43-7.34 20.04l-49 54.08H824q11.54 0 20.27 8.73T853-479q0 11.54-8.73 20.27T824-450H691.08ZM268-258.77h66.23q33.15 0 56.5-25.88 23.35-25.89 23.35-63.35v-264.77q0-35.69-23.35-62.46Q367.38-702 334.23-702h-64.46q7.46 54.46 8.38 107.92.93 53.46.93 114.08 0 58.85-1.31 112.69-1.31 53.85-9.77 108.54ZM279.08-480Z"/></svg>