<svg xmlns="http://www.w3.org/2000/svg" height="48" viewBox="0 -960 960 960" width="48"><path d="M237-139q-9 25-18 47.5T200-46q-9 15-27 19.5T140-32q-15-10-20-28t4-34q42-87 50-186t8-200q0-99-8-198.5T124-866q-10-17-3.5-34.5T141-928q14-10 33-5t27 20q10 22 19 44.5t17 46.5h73q70 0 121 52.5T482-642v323q0 76-51 128t-121 52h-73Zm495-296 35 39q11 14 10.5 32.5T764-332q-14 14-33 13.5T699-332L589-449q-13-12-13-31t13-32l110-116q13-12 33-12t33 12q14 14 13.5 32T767-565l-35 39h123q20 0 33.5 13t13.5 33q0 20-13.5 32.5T855-435H732Z"/></svg>