<svg xmlns="http://www.w3.org/2000/svg" height="20" viewBox="0 -960 960 960" width="20"><path d="M251.15-180.39q-7.76 26.23-15.92 51.08-8.15 24.85-21.23 51.46-5.46 14.16-20.31 17.31-14.84 3.15-30.38-3.92-15.54-7.08-17.62-21.42-2.07-14.35 2.39-29.5 36.84-85.31 46.65-177.62 9.81-92.31 9.81-187 0-93.31-9.31-186.19-9.31-92.89-46.54-176.81-5.46-13.77-2.5-29.12 2.97-15.34 17.12-22.42 14.15-7.07 28.81-3.42 14.65 3.65 21.5 18.81 12.69 25.23 22.23 48.88 9.54 23.66 15.3 50.27h79.47q64-1.38 106.96 44.73 42.96 46.12 42.96 111.89V-338q0 67.15-42.96 112.38-42.96 45.23-106.96 45.23h-79.47ZM719.54-440l32.61 35.54q11.31 13.69 10.81 27.77-.5 14.07-12.81 26.38-13.69 13.69-27.77 13-14.07-.69-26.38-14.38l-93.46-97q-12.46-13.85-12.46-31.31t12.46-31.31l93.46-97q10.92-12.3 26.88-12.5 15.97-.19 29.27 13.12 12.31 10.92 11.81 25.38-.5 14.46-10.42 26.77l-34 37.54H834q15.77 0 27.38 11.62Q873-494.77 873-479t-11.62 27.38Q849.77-440 834-440H719.54ZM268-258.38h61.62q30.07 0 51.5-23.2 21.42-23.19 21.42-56.42v-284.38q0-31.85-21.42-55.74Q359.69-702 329.62-702h-60.24q8.24 55.23 10.7 109.46 2.46 54.23 2.46 112.54 0 56.92-2.66 111.35-2.65 54.42-11.88 110.27ZM282.54-480Z"/></svg>