<svg xmlns="http://www.w3.org/2000/svg" height="24" viewBox="0 -960 960 960" width="24"><path d="M236.15-147.39q-6.76 21.23-13.92 42.58-7.15 21.35-18.23 42.96-6.46 15.16-23.31 19.31-16.84 4.15-32.38-4.92-15.54-9.08-19.81-24.92-4.27-15.85 2.58-32 40.23-87.31 49.04-182.62 8.8-95.31 8.8-193 0-96.31-9-191.19-9-94.89-48.23-181.81-6.46-15.77-2.5-32.62 3.97-16.84 19.12-25.92 15.15-9.07 31.81-4.42 16.65 4.65 24.5 20.81 10.69 21.23 18.23 41.38 7.54 20.16 13.3 41.77h78.47q70-.38 117.96 50.23 47.96 50.62 47.96 123.39V-321q0 73.15-47.96 123.38-47.96 50.23-117.96 50.23h-78.47ZM719.54-436l35.61 38.54q11.31 13.69 11.31 30.27 0 16.57-13.31 29.88-13.69 13.69-30.77 13-17.07-.69-29.38-14.38l-103.46-107q-13.46-14.85-13.46-34.31t13.46-34.31l103.46-107q11.92-13.3 29.88-13.5 17.97-.19 32.27 14.12 12.31 11.92 12.31 28.38t-10.92 29.77l-37 40.54H846q17.77 0 30.38 12.62Q889-496.77 889-479t-12.62 30.38Q863.77-436 846-436H719.54Z"/></svg>