<svg xmlns="http://www.w3.org/2000/svg" height="20" viewBox="0 -960 960 960" width="20"><path d="M262.31-232.77q-7.54 28.46-16.35 54.65-8.81 26.2-22.96 54.43-1.92 6.31-8.12 7.61-6.19 1.31-13.26-.84-7.08-2.16-8.12-8.35-1.04-6.19 1.65-12.5 40.47-83.61 47.58-167.23 7.12-83.62 7.12-175 0-89.62-7-174.38-7-84.77-47.47-166.62-2.92-5.54-1.5-12.23 1.43-6.69 7.74-8.85 6.3-2.15 12.11-.34 5.81 1.8 8.5 8.11 13.39 26.46 23.46 52.27 10.08 25.81 16.62 54.04h82.92q50-.77 83.92 35.46 33.93 36.23 33.93 87.77V-356q0 52.31-33.93 87.77-33.92 35.46-83.92 35.46h-82.92ZM656.08-464l62.23 66.08q5.61 6.38 5.11 11.54-.5 5.15-6.11 10.76-6.39 6.39-11.54 6-5.15-.38-10.77-6.76l-80.92-84q-7.93-8.7-7.93-19.62 0-10.92 7.93-19.62l80.92-84q4.85-5.61 10.77-5.5 5.92.12 11.54 5.74 5.61 4.84 5.61 10.76 0 5.93-4.84 11.54l-62 65.08H808q6.54 0 11.27 4.73Q824-486.54 824-480q0 6.54-4.73 11.27Q814.54-464 808-464H656.08Z"/></svg>