<svg xmlns="http://www.w3.org/2000/svg" height="24" viewBox="0 -960 960 960" width="24"><path d="M246.39-161.37q-5.5 18.5-12.37 36.75-6.87 18.25-14.87 35.75-6.95 15.91-23.12 20.4-16.16 4.49-31.81-4.2-14.92-8.7-20.77-25.1-5.86-16.4 1.35-32.32 35.29-80.76 45.41-170.2 10.12-89.45 10.12-179.71 0-89.5-10-178.2-10-88.69-44.53-169.45-7.21-16.92-2.1-33.57 5.1-16.65 21.02-25.35 15.91-8.69 32.19-3.21 16.29 5.48 23.24 21.39 7.5 17 13.87 34.88 6.37 17.88 11.87 35.38h76.41q67.13.5 114.18 48.65 47.04 48.15 47.04 117.28v305.9q0 68.37-47.04 116.65-47.05 48.28-114.18 48.28h-75.91ZM718.13-437l31.11 33.11q11.93 12.91 11.44 29.69-.48 16.79-13.66 29.96-12.67 12.67-30.32 12.67-17.66 0-30.33-12.91L583.15-450.17q-12.43-12.94-12.43-29.83t12.43-29.83l103.72-105.69q12.43-13.18 30.08-12.8 17.64.39 31.05 13.8 12.17 12.43 12.42 28.97.25 16.53-11.44 29.7L718.13-523h116.54q17.66 0 30.33 12.67 12.67 12.68 12.67 30.33T865-449.67Q852.33-437 834.67-437H718.13ZM267.28-247.37h54.79q31.32 0 53.39-23.55 22.06-23.56 22.06-56.62v-305.18q0-32.56-22.06-55.99-22.07-23.42-53.39-23.42h-55.05q11.02 57.26 15.16 115.54 4.15 58.29 4.15 116.59 0 58.57-4.01 116.97-4.02 58.4-15.04 115.66ZM286.33-480Z"/></svg>