<svg xmlns="http://www.w3.org/2000/svg" height="20" viewBox="0 -960 960 960" width="20"><path d="M252.35-152.09q-7 21.44-14 41.59-7 20.15-15.87 41.02-8.7 20.83-30.31 25.89-21.6 5.07-43.43-5.63-21.83-10.69-27.46-32.37-5.63-21.67 3.07-43.5 32.3-80.74 45.08-172.95 12.79-92.22 12.79-181.96 0-88.74-12.79-181.24-12.78-92.5-44.08-172.24-8.7-21.39-3.07-43.78 5.63-22.39 26.46-33.09 20.83-10.69 42.72-4.85 21.89 5.85 31.02 27.68 8.87 19.87 16.87 39.02 8 19.15 13 40.59h74.22q71.82-1 121.37 50.54 49.54 51.54 49.54 124.94V-328q0 74.39-49.54 125.15-49.55 50.76-121.37 50.76h-74.22Zm515.43-270 5 5.44q15.7 18.82 14.92 40.72-.79 21.89-18.61 39.15-18.26 18.26-40.16 17.76-21.89-.5-39.71-18.76l-99.44-102.57q-16.26-16.69-16.26-39.65 0-22.96 16.26-39.65l99.44-102.57q16.82-17.26 40.5-17.26 23.67 0 41.93 18.26 17.83 16.83 17.33 38.44t-15.76 39.43l-5.44 6.31h74.52q23.96 0 40.72 17.04 16.76 17.04 16.76 40.72 0 23.67-16.76 40.43-16.76 16.76-40.72 16.76h-74.52Z"/></svg>