<svg xmlns="http://www.w3.org/2000/svg" height="24" viewBox="0 -960 960 960" width="24"><path d="M254-135.5q-5.5 18.5-12.75 36.75T226-63q-10 22-32.25 27.25T149-43q-21-12.5-28-35.75t2.5-45.25q33-80 43.5-173.25T177.5-480q0-89.5-10-182t-43-172.5q-9.5-23-3.25-46.5t28.25-36q22-12.5 44.75-5.5t32.75 29q7.5 17 14.25 34.5t12.25 35h65q75.5.5 128.25 55.5T499.5-636v313.5q0 77.5-52.75 132.25T318.5-135.5H254Zm507.5-284 6 8q16.5 19 15.25 42.25T763-327.5q-18 18-42.5 18t-42.5-19L572.5-438q-17-17.5-17-42t17-42l106-109.5q17-18.5 42.25-18.5t44.75 19.5q17.5 17 17.75 40T768-549l-6.5 8.5H840q24.5 0 42.5 18t18 42.5q0 24.5-18 42.5t-42.5 18h-78.5Zm-479 163h35q26 0 43.5-19.75t17.5-48.25V-635q0-28-17.5-48t-43.5-20H283q9.5 56.5 12.5 112.5t3 110.5q0 54-3.25 110.5t-12.75 113Zm16-223.5Z"/></svg>