<svg xmlns="http://www.w3.org/2000/svg" height="24" viewBox="0 -960 960 960" width="24"><path d="m243-113-12 32q-6 16-12 31-11 24-37 30.5T132-27q-24-14-32-40t3-51q33-81 44.5-176T159-480q0-90-11.5-184.5T104-840q-11-26-3.5-52.5T132-933q24-14 50.5-6.5T220-907l12 30q6 15 11 31h68q80 0 136.5 58T504-647v336q0 83-56.5 140.5T311-113h-68Zm540-299-2-2q17 21 16.5 48T776-319q-20 20-47.5 19.5T681-320L572-433q-19-19-19-47t19-47l109-113q20-20 48.5-20t49.5 21q20 20 20 46t-18 47l2-2h70q29 0 48.5 20t19.5 48.5q0 28.5-19.5 48T853-412h-70ZM277-249h33q25 0 41.5-18.5T368-313v-333q0-27-16.5-45.5T310-710h-33q10 59 14 117t4 113q0 55-4 113.5T277-249Zm18-231Z"/></svg>