<svg xmlns="http://www.w3.org/2000/svg" height="20" viewBox="0 -960 960 960" width="20"><path d="M245-160q-7 22-14 43t-17 43q-7 18-25.5 22.5T151-56q-19-9-23.5-27t2.5-37q34-83 46.5-175.5T189-480q0-91-12.5-183.5T131-838q-7-18-2.5-37t22.5-28q18-9 36.5-4t26.5 24q10 21 18 41t13 42h81q69-1 116 48t47 119v305q0 71-47 119.5T326-160h-81Zm503-270 18 19q14 16 13.5 34.5T764-343q-16 16-34.5 15.5T696-344L596-446q-14-15-14-34t14-34l100-102q14-15 34-15t36 16q15 14 14.5 32.5T767-549l-19 21h96q20 0 34.5 14.5T893-479q0 20-14.5 34.5T844-430h-96Z"/></svg>