<svg xmlns="http://www.w3.org/2000/svg" height="40" viewBox="0 -960 960 960" width="40"><path d="M235.23-143.84q-6.71 21.38-14.64 41.86-7.92 20.47-17.92 40.47-7.22 16.11-24.01 20-16.79 3.9-32.75-5.21-15.39-9.12-20.19-25.93-4.79-16.81 2.42-32.91 40.21-86.44 48.99-182.03 8.78-95.6 8.78-192.41 0-96-8.61-191.26-8.62-95.26-48.82-181.41-7.36-16.43-2.5-33.74 4.87-17.32 20.6-26.43 15.72-9.12 32.8-4.34 17.07 4.77 24.29 20.87 9.33 20 17.28 40.06 7.95 20.05 14.28 40.05h77.65q69.76.33 119.1 51.5 49.34 51.16 49.34 123.25v322.9q0 72.99-49.34 123.85t-119.1 50.86h-77.65Zm491.38-292.09 35.03 37.7q11.64 13.43 11.26 30.98-.38 17.55-13.58 30.76-12.87 13.24-31.2 13.06-18.34-.19-31.21-13.25L588.26-449.13q-12.35-13.01-12.35-30.87t12.35-30.87l108.65-111.78q12.35-13.21 31.06-13.13 18.71.07 32.1 13.46 12.58 12.35 12.89 29.73.32 17.39-11.09 30.59l-35.26 37.93H851.2q18.67 0 31.56 12.7 12.89 12.7 12.89 31.37t-12.89 31.37q-12.89 12.7-31.56 12.7H726.61Z"/></svg>