<svg xmlns="http://www.w3.org/2000/svg" height="40" viewBox="0 -960 960 960" width="40"><path d="M239-131.67q-7 21.67-15 42-8 20.34-18 40.34-8.67 19-28.5 23.33-19.83 4.33-38.83-6.67-18-11-23.67-31-5.67-20 3-39 39.33-86 48.33-183.33 9-97.33 9-194 0-96-8.83-193t-48.17-183q-8.66-19.33-3-39.83 5.67-20.5 24-31.5 18.34-11 38.67-5.5 20.33 5.5 29 24.5 9.33 20 17.5 39.83t14.5 39.83h72q73.67.34 125.83 54.84Q489-719.33 489-643.33v326.66q0 77.34-52.17 131.17-52.16 53.83-125.83 53.83h-72Zm508.33-296 23 25.67q13.67 16.33 13 37-.66 20.67-16.33 36.33-15.33 16-37 15.67-21.67-.33-37-16L583.33-443.33q-14.66-15.34-14.66-36.67 0-21.33 14.66-36.67L693-630.33Q707.67-646 730-646t38.33 16q15.34 14.67 15.5 35.17.17 20.5-12.83 36.16l-23.67 26.34h106.34q22 0 37.5 15.16 15.5 15.17 15.5 37.17t-15.5 37.17q-15.5 15.16-37.5 15.16H747.33ZM264.33-237h46.34q30.66 0 51.83-23.33 21.17-23.34 21.17-57.67v-323.67q0-34.33-21.17-58-21.17-23.66-51.83-23.66H265q10.33 60.66 12.67 121.5Q280-541 280-480q0 60.33-2.67 121.67-2.66 61.33-13 121.33ZM280-480Z"/></svg>