<svg xmlns="http://www.w3.org/2000/svg" height="24" viewBox="0 -960 960 960" width="24"><path d="M248.42-187.96q-6.27 22.15-13.98 43.67-7.71 21.52-18.21 42.87-4.46 10.34-15.25 13.44-10.79 3.09-21.02-2.67-9.73-5.77-13.5-16.47-3.77-10.69 1.39-21.03 39.65-83.31 47.25-171.18 7.59-87.86 7.59-180.67 0-91.62-7.59-179.12-7.6-87.5-46.64-170.61-5.15-10.96-1.84-21.9 3.3-10.95 13.75-16.72 10.44-5.76 21.03-2.01 10.6 3.75 15.45 14.09 9.8 20.66 17.4 41.83 7.6 21.17 13.87 42.52h79.42q59.5.31 101.19 43.52t41.69 105.48v286.96q0 61.84-41.69 104.92t-101.19 43.08h-79.12Zm429.35-264.16 53.04 56.58q7.8 8.69 7.55 19.5t-9.05 19.42q-8.5 8.7-20.06 8.5-11.56-.19-19.67-8.88l-96.16-99.31q-9.84-10.34-9.84-23.69 0-13.35 9.84-23.69l96.66-99.5q7.92-8.62 19.42-8.31 11.5.31 20.31 8.92 7.8 8.12 8.05 18.96.25 10.85-7.36 19.66l-52.73 55.88h146.58q11.65 0 19.86 8.22 8.21 8.21 8.21 19.86 0 11.65-8.21 19.77-8.21 8.11-19.86 8.11H677.77Zm-416.23 208.2h66q35.88 0 61.4-27.25 25.52-27.25 25.52-65.79v-286.96q0-37.66-25.52-64.85-25.52-27.19-61.4-27.19h-66.31q10.92 56.92 14.17 115.54 3.25 58.61 3.25 120.42 0 62.12-3.09 120.83-3.1 58.71-14.02 115.25ZM278.65-480Z"/></svg>