<svg xmlns="http://www.w3.org/2000/svg" height="24" viewBox="0 -960 960 960" width="24"><path d="M252.85-206.42q-7.04 25.8-15.72 50.59-8.67 24.79-21.67 49.98-2.92 6.7-10.25 8.64-7.33 1.94-14.29-2.1-6.46-4.04-8.5-11.17-2.04-7.14 1.77-13.83 43.31-85.61 48.5-173.09 5.19-87.48 5.19-182.6 0-93.73-5.19-181.23-5.19-87.5-48.27-172.73-3.8-6.92-1.94-14.31 1.87-7.38 8.75-11.42 6.89-4.04 13.83-1.54t10.63 9.19q12.12 24.31 21.06 48.66 8.94 24.34 15.98 49.53h78.85q54.5.12 92.63 40.54 38.14 40.43 38.14 98.46v270.43q0 58.19-38.14 98.09-38.13 39.91-92.63 39.91h-78.73Zm398.19-255.31 67.08 72.15q5.11 6.39 4.86 13.25-.25 6.87-6.36 12.6-6 6.38-13.62 6-7.62-.39-12.85-6.77l-89.8-94.12q-8.7-9.19-8.7-21.38t8.7-21.38l90.3-94.5q4.85-5.74 12.6-5.62 7.75.12 13.87 5.85 5.11 5.23 5.36 12.42.25 7.19-4.48 13.31l-66.96 71.27h164.65q7.81 0 13.23 5.42 5.43 5.42 5.43 13.23 0 7.81-5.43 13.04-5.42 5.23-13.23 5.23H651.04ZM260.58-243.35h71q38.77 0 66.3-29.75 27.54-29.75 27.54-72.32v-270.43q0-41.3-27.54-71.19-27.53-29.88-66.3-29.88h-71.12q10.35 56.34 12.35 114.57 2 58.23 2 122.35 0 64.23-1.94 122.65-1.95 58.43-12.29 114ZM274.81-480Z"/></svg>