<svg xmlns="http://www.w3.org/2000/svg" height="24" viewBox="0 -960 960 960" width="24"><path d="M237.39-150.87q-5 15-10.62 30-5.62 15-11.62 29-6.95 16.91-24.37 22.15-17.41 5.24-33.56-3.95-15.92-9.2-22.39-26.35-6.48-17.15.47-34.07 33.53-80.76 45.15-168.95 11.62-88.2 11.62-176.96 0-88-11.12-175.2-11.12-87.19-44.65-167.95-7.71-17.92-1.85-35.57 5.85-17.65 22.77-26.85 16.91-9.19 34.44-3.21 17.54 5.98 24.49 22.89 6 14 11.12 28.88 5.12 14.88 10.12 28.88h81.41q68.63 1 117.43 49.65 48.79 48.65 48.79 118.28v322.4q0 68.87-48.79 117.9-48.8 49.03-117.43 49.03h-81.41ZM726.63-434.5l28.11 28.11q12.43 12.91 12.19 31.44-.23 18.54-13.91 32.21-12.67 12.67-31.82 12.67-19.16 0-31.83-12.91L584.65-448.17q-13.43-13.44-13.43-31.83t13.43-31.83l104.72-105.19q13.43-13.68 31.83-13.3 18.39.39 32.3 14.3 12.67 13.43 13.17 31.47.5 18.03-12.69 31.7l-27.35 27.35h115.04q19.16 0 32.33 13.17 13.17 13.18 13.17 32.33T874-447.67q-13.17 13.17-32.33 13.17H726.63Z"/></svg>