<svg xmlns="http://www.w3.org/2000/svg" height="48" viewBox="0 -960 960 960" width="48"><path d="M234.41-159.52q-7.74 26.24-17.24 51.12-9.5 24.88-22.5 49.88-5.71 11.43-18.27 14.17-12.55 2.74-24.49-4.22-11.19-6.95-13.92-19.76-2.73-12.8 2.99-24.24 44.52-89.76 51.14-187.59Q198.74-378 198.74-480q0-101-6.62-198.84-6.62-97.83-51.14-187.33-5.72-11.94-2.49-24.74 3.23-12.81 14.67-19.76 11.45-6.96 24.12-3.6 12.68 3.36 18.39 14.79 12 24.5 21.62 48.88 9.62 24.38 17.12 49.38h79.63q64.92 0 110.6 48.43 45.69 48.42 45.69 116.83v310.42q0 70.15-45.69 118.08-45.68 47.94-110.6 47.94h-79.63Zm464.87-287.91 53.52 58.52q8.46 10.43 8.09 23.24-.37 12.8-10.06 22.5-10.2 10.43-23.62 10.31-13.43-.12-23.62-10.31L595.11-457.13q-9.2-9.7-9.2-22.87 0-13.17 9.2-22.87l108.98-113.46q8.69-9.69 22.99-9.69 14.29 0 24.49 9.69 8.93 9.2 9.31 22 .38 12.81-7.84 22.5l-53.76 58.76H849.7q14.17 0 23.73 9.45Q883-494.17 883-480q0 14.17-9.57 23.37-9.56 9.2-23.73 9.2H699.28ZM249.59-226.15h64.45q37.57 0 63.99-28.8 26.43-28.79 26.43-70.83v-309.7q0-41.54-26.43-70.7-26.42-29.17-63.99-29.17h-64.21q11.02 61.76 12.78 125.28 1.76 63.53 1.76 130.07 0 66.3-2.51 129.7-2.51 63.39-12.27 124.15ZM264.37-480Z"/></svg>