<svg xmlns="http://www.w3.org/2000/svg" height="20" viewBox="0 -960 960 960" width="20"><path d="M256.15-212.39q-6.76 24.23-14.42 46.58-7.65 22.35-18.73 45.96-3.46 10.16-13.31 12.81-9.84 2.65-20.38-1.42-10.54-4.08-13.31-13.92-2.77-9.85 1.08-20 36.23-81.31 46.04-165.12 9.8-83.81 9.8-172.5 0-87.31-9.5-171.69-9.5-84.39-45.73-164.31-4.46-9.77-1.5-20.12 2.97-10.34 13.12-14.42 10.15-4.07 19.81-.92 9.65 3.15 13.5 13.31 10.69 22.23 19.23 44.38 8.54 22.16 14.3 45.77h84.47q55-.38 92.96 38.73 37.96 39.12 37.96 94.89V-346q0 56.15-37.96 94.88t-92.96 38.73h-84.47ZM684.54-454l47.61 49.54q8.31 8.69 7.81 18.27-.5 9.57-8.81 17.88-8.69 8.69-18.27 8.5-9.57-.19-17.88-8.88l-87.46-89q-9.46-9.85-9.46-22.31 0-12.46 9.46-22.31l87.46-89q7.92-8.3 17.88-8 9.97.31 18.27 8.62 8.31 7.92 8.31 17.88 0 9.96-7.92 18.27l-47 48.54H818q10.77 0 18.38 7.62Q844-490.77 844-480t-7.62 18.38Q828.77-454 818-454H684.54Z"/></svg>