<svg xmlns="http://www.w3.org/2000/svg" height="20" viewBox="0 -960 960 960" width="20"><path d="M263.42-220.96q-7.27 27.15-15.98 52.17-8.71 25.02-21.21 51.37-3.46 9.34-12.25 11.44-8.79 2.09-19.02-1.67-9.73-3.77-11.5-12.97-1.77-9.19 1.39-18.53 36.65-81.31 45.25-166.18 8.59-84.86 8.59-174.67 0-88.62-8.09-174.12-8.1-85.5-45.14-165.61-4.15-8.96-1.84-18.4 2.3-9.45 11.75-13.22 9.44-3.76 18.03-1.01 8.6 2.75 12.45 12.09 11.8 24.66 21.4 49.33 9.6 24.67 15.87 51.02h80.42q53.5-.69 90.19 38.02t36.69 93.98v254.96q0 55.84-36.69 93.92t-90.19 38.08h-80.12Zm414.35-235.16 50.04 53.58q7.8 8.69 7.05 17t-8.55 15.92q-8.5 8.7-17.06 8.5-8.56-.19-16.67-8.88l-86.16-89.31q-8.84-9.34-8.84-20.69 0-11.35 8.84-20.69l86.66-89.5q6.92-7.62 16.42-7.31 9.5.31 17.31 7.92 7.8 7.12 7.55 15.96-.25 8.85-6.86 16.66l-49.73 52.88h134.58q9.65 0 16.86 7.22 7.21 7.21 7.21 16.86 0 9.65-7.21 16.77-7.21 7.11-16.86 7.11H677.77Zm-405.23 187.2h71q31.88 0 55.4-24.25t23.52-59.79v-254.96q0-33.66-23.52-58.85-23.52-25.19-55.4-25.19h-70.31q8.92 51.92 11.17 103.54 2.25 51.61 2.25 108.42 0 56.12-2.59 107.83-2.6 51.71-11.52 103.25ZM286.65-480Z"/></svg>