<svg xmlns="http://www.w3.org/2000/svg" height="20" viewBox="0 -960 960 960" width="20"><path d="M260-158q-6 20-13 38.5T232-82q-9 22-30.5 27T157-61q-22-11-28.5-33.5T131-139q30-78 43-167t13-174q0-85-12.5-174T132-820q-9-22-3-45t28-34q22-11 44-4.5t31 28.5q8 18 15.5 36t12.5 37h71q71 0 120.5 51T501-629v298q0 72-49.5 122.5T331-158h-71Zm510-263q17 19 15.5 41.5T766-339q-18 18-41 18t-41-19l-97-99q-17-17-17-41t17-41l97-99q17-18 41-18t43 19q18 17 18 39.5T770-539h65q24 0 41.5 17.5T894-480q0 24-17.5 41.5T835-421h-65Z"/></svg>