<svg xmlns="http://www.w3.org/2000/svg" height="24" viewBox="0 -960 960 960" width="24"><path d="M246-180q-8 28-17 55.5T204-68q-4 9-15 11t-21-4q-10-6-11-16t3-20q46-91 50.5-186t4.5-197q0-100-4.5-195.5T160-861q-4-9-2.5-20t10.5-17q9-6 19.5-3.5T204-889q15 28 25 54t17 55h76q62-1 103.5 45T467-623v286q0 67-41.5 112T322-180h-76Zm428-272 59 65q7 10 7 19.5t-9 18.5q-10 10-20 9t-18-11l-93-99q-11-13-11-30t11-30l93-99q7-9 18.5-9.5T733-609q8 7 8 17t-6 19l-61 67h156q11 0 19 8t8 19q0 11-8 19t-19 8H674ZM257-234h64q39 0 65.5-30.5T413-338v-285q0-42-26.5-72.5T321-726h-63q9 59 10 119t1 127q0 66-1 126.5T257-234Zm12-246Z"/></svg>