<svg xmlns="http://www.w3.org/2000/svg" height="40" viewBox="0 -960 960 960" width="40"><path d="M227.33-138.33Q220-116 211.67-93.83q-8.34 22.16-19 44.5-7.34 14.33-23.5 18.5Q153-26.67 138-35.67T119-60.5q-4-15.83 3.33-31.17 42-89 50.5-188.16 8.5-99.17 8.5-200.17 0-100-8.5-198.83-8.5-98.84-50.16-187.84-7.34-15.33-2.84-31.5 4.5-16.16 18.84-25.16 14.33-9 30.83-4.34 16.5 4.67 24.17 19.34 10.66 21.66 18.66 43.16 8 21.5 15 43.84h81.34q70.33 0 119.66 51.16 49.34 51.17 49.34 124.84v329.66q0 74.34-49.34 125.84-49.33 51.5-119.66 51.5h-81.34Zm496-299 40.34 44q11.33 12.66 11 29.33-.34 16.67-12.34 29.33-13.33 12.67-30.5 12.5-17.16-.16-28.83-13.5L591.67-451Q580-463 580-480t11.67-29.67L703-624.33q11-12 29-12.34 18-.33 31.67 12.67 11.66 11.67 11.66 28.17t-10.66 28.5l-41.34 46h135.34q17.33 0 29.83 12.16Q901-497 901-479.33q0 17.66-12.5 29.83-12.5 12.17-29.83 12.17H723.33ZM247.67-223h60.66q35.67 0 60.5-27.17 24.84-27.16 24.84-65.83v-328.67q0-38.66-24.84-65.66-24.83-27-60.5-27h-60q11 63 14 127.33t3 130q0 65.67-3.16 130-3.17 64.33-14.5 127Zm17.66-257Z"/></svg>