<svg xmlns="http://www.w3.org/2000/svg" height="24" viewBox="0 -960 960 960" width="24"><path d="M244-169.5q-5.5 18.5-12.25 36.75T217-97q-6 14-20.25 18.25T169-82q-13-7.5-18.5-21.75t1-28.25q36-81 46-169.25t10-178.75q0-89.5-10-177t-45-168.5q-6.5-15-1.75-29.5t18.75-22q14-7.5 28.25-2.5t20.25 19q7.5 17 13.75 35T243.5-790h80q64.5.5 109.75 46.5T478.5-631v303.5q0 65.5-45.25 111.75T323.5-169.5H244Zm460.5-273 39 41q10.5 11 10.25 25.75T742-349.5q-11 11-26.5 11t-26.5-11L586.5-454q-11-11.5-11-26t11-26l103-104.5q11-11.5 26.25-11t26.75 12q10.5 11 10.75 25.5T743-558l-38.5 40.5H833q15.5 0 26.5 11t11 26.5q0 15.5-11 26.5t-26.5 11H704.5Zm-442 198h61q33 0 56.5-24.75t23.5-59.25V-632q0-34-23.5-58.5T323.5-715H262q11.5 57.5 16 116.5t4.5 118.5q0 60-4.25 119T262.5-244.5Zm20-235.5Z"/></svg>