<svg xmlns="http://www.w3.org/2000/svg" height="40" viewBox="0 -960 960 960" width="40"><path d="M484.28-296.64v-367.23h122.31q83.25 0 127.31 48.93 44.05 48.94 44.05 134.58 0 85.9-44.57 134.81-44.56 48.91-126.79 48.91H484.28Zm49.49-49.13h72.05q61.9 0 92.47-34.69 30.58-34.69 30.58-99.9 0-65.2-30.58-99.77-30.57-34.56-92.47-34.56h-72.05v268.92Zm-237.05 57.36q-49.51 0-80.33-25.9t-36.85-74.87l47.54-12.08q5 30.05 22.82 47.36t47.61 17.31q31.06 0 49.32-17.6 18.27-17.61 18.27-48.04 0-28.9-19.5-45.8-19.5-16.89-53.19-16.89h-28.2v-47.85h26.18q28.43 0 45.53-15.23 17.11-15.23 17.11-41.13 0-25.64-15.81-40.29-15.81-14.66-43.65-14.66-25.26 0-41.41 12.96-16.16 12.97-21.11 37.4l-46.25-6.05q5.79-42.02 35.93-66.97 30.14-24.95 73.04-24.95 47.77 0 78.27 26.7 30.5 26.71 30.5 69.38 0 28.07-12.04 48.12-12.04 20.05-34.7 33.05v2.82q28.05 11.85 43.32 35.04 15.26 23.2 15.26 55.07 0 53.23-31.93 83.16-31.94 29.94-85.73 29.94Z"/></svg>