<svg xmlns="http://www.w3.org/2000/svg" height="20" viewBox="0 -960 960 960" width="20"><path d="M489-323v-316h107.28q78.72 0 116.22 42T750-480q0 75-36.5 116t-117.28 41H489Zm51-44h52.45Q646-367 672-398t26-82q0-51-26-82t-79.55-31H540v226Zm-213 52q-43.68 0-70.84-21.5Q229-358 222-402l49-12q3.61 25.73 20.3 39.86Q308-360 332.81-360q22.93 0 35.56-14Q381-388 381-413.47 381-441 363.33-455q-17.68-14-42.33-14h-26v-41h24.5q21.5 0 38-12t16.5-36.5q0-20.5-13.86-34.5-13.85-14-35.96-14-18.18 0-33.68 14.5T273-560l-47-5.08q7-32.92 34.38-57.42Q287.75-647 326-647q42.68 0 69.34 26.21Q422-594.58 422-562.96q0 17.96-9.5 34.46T379-495.22v5.22q26 13 39.5 28.5T432-411q0 46.16-29.14 71.08T327-315Z"/></svg>