<svg xmlns="http://www.w3.org/2000/svg" version="1.1" width="3300" height="2000"><g id="Notes"><style>
    text {
      font-family: monospace;
      text-anchor: middle;
    }
    text.emphasis {
      font-weight:bold;
    }
    text.lanchor {
      text-anchor: start;
    }
  </style><rect height="2200" id="artboard" fill="white" width="3300" x="0" y="0"/><line id="" style="fill:none;stroke:black;stroke-width:0.5;" x1="263" x2="3036" y1="292" y2="292"/><text class="lanchor emphasis" transform="matrix(1 0 0 1 263 322)">Weight/Scale Variations</text><text transform="matrix(1 0 0 1 559.711 322)">Ultralight</text><text transform="matrix(1 0 0 1 856.422 322)">Thin</text><text transform="matrix(1 0 0 1 1153.13 322)">Light</text><text transform="matrix(1 0 0 1 1449.84 322)">Regular</text><text transform="matrix(1 0 0 1 1746.56 322)">Medium</text><text transform="matrix(1 0 0 1 2043.27 322)">Semibold</text><text transform="matrix(1 0 0 1 2339.98 322)">Bold</text><text transform="matrix(1 0 0 1 2636.69 322)">Heavy</text><text transform="matrix(1 0 0 1 2933.4 322)">Black</text><text id="template-version" style="text-anchor: end;" transform="matrix(1 0 0 1 3036 1933)">Template v.1.0</text><text class="lanchor" transform="matrix(1 0 0 1 263 726)">Small</text><text class="lanchor" transform="matrix(1 0 0 1 263 1156)">Medium</text><text class="lanchor" transform="matrix(1 0 0 1 263 1586)">Large</text></g><g id="Guides"><g id="H-reference" style="fill:#27AAE1;stroke:none;" transform="matrix(1 0 0 1 339 696)"><path d="M 54.9316 0 L 57.666 0 L 30.5664 -70.459 L 28.0762 -70.459 L 0.976562 0 L 3.66211 0 L 12.9395 -24.4629 L 45.7031 -24.4629 Z M 29.1992 -67.0898 L 29.4434 -67.0898 L 44.8242 -26.709 L 13.8184 -26.709 Z"/></g><line id="Baseline-S" style="fill:none;stroke:#27AAE1;opacity:1;stroke-width:0.577;" x1="263" x2="3036" y1="696" y2="696"/><line id="Capline-S" style="fill:none;stroke:#27AAE1;opacity:1;stroke-width:0.577;" x1="263" x2="3036" y1="625.541" y2="625.541"/><g id="H-reference" style="fill:#27AAE1;stroke:none;" transform="matrix(1 0 0 1 339 1126)"><path d="M 54.9316 0 L 57.666 0 L 30.5664 -70.459 L 28.0762 -70.459 L 0.976562 0 L 3.66211 0 L 12.9395 -24.4629 L 45.7031 -24.4629 Z M 29.1992 -67.0898 L 29.4434 -67.0898 L 44.8242 -26.709 L 13.8184 -26.709 Z"/></g><line id="Baseline-M" style="fill:none;stroke:#27AAE1;opacity:1;stroke-width:0.577;" x1="263" x2="3036" y1="1126" y2="1126"/><line id="Capline-M" style="fill:none;stroke:#27AAE1;opacity:1;stroke-width:0.577;" x1="263" x2="3036" y1="1055.54" y2="1055.54"/><g id="H-reference" style="fill:#27AAE1;stroke:none;" transform="matrix(1 0 0 1 339 1556)"><path d="M 54.9316 0 L 57.666 0 L 30.5664 -70.459 L 28.0762 -70.459 L 0.976562 0 L 3.66211 0 L 12.9395 -24.4629 L 45.7031 -24.4629 Z M 29.1992 -67.0898 L 29.4434 -67.0898 L 44.8242 -26.709 L 13.8184 -26.709 Z"/></g><line id="Baseline-L" style="fill:none;stroke:#27AAE1;opacity:1;stroke-width:0.577;" x1="263" x2="3036" y1="1556" y2="1556"/><line id="Capline-L" style="fill:none;stroke:#27AAE1;opacity:1;stroke-width:0.577;" x1="263" x2="3036" y1="1485.54" y2="1485.54"/><rect height="119.336" id="left-margin" style="fill:darkred;stroke:none;opacity:0.4;" width="12.4512" x="1394.06" y="1030.79"/><rect height="119.336" id="right-margin" style="fill:darkgreen;stroke:none;opacity:0.4;" width="12.4512" x="1502.5112" y="1030.79"/><rect x="1406.5112" y="1045" width="96" height="96" fill="none" stroke="blue" stroke-dasharray="5"/><rect x="1394.06" y="1030.79" width="120.9024" height="119.336" fill="none" stroke="blue"/></g><g id="Symbols"><g id="Bold-L" transform="matrix(1 0 0 1 2266 1556)"><path d="M77.332 -32.811 Q87.033 -32.811 93.665 -39.295 Q100.297 -45.781 100.297 -55.359 Q100.297 -64.981 93.667 -71.713 Q87.036 -78.445 77.373 -78.445 Q67.794 -78.445 61.228 -71.713 Q54.664 -64.981 54.664 -55.319 Q54.664 -45.818 61.228 -39.314 Q67.794 -32.811 77.332 -32.811 Z M77.39 -45.147 Q73.127 -45.147 70.063 -48.09 Q66.999 -51.031 66.999 -55.272 Q66.999 -59.672 70.039 -62.81 Q73.079 -65.948 77.342 -65.948 Q81.605 -65.948 84.703 -62.859 Q87.801 -59.769 87.801 -55.32 Q87.801 -51.032 84.727 -48.09 Q81.654 -45.147 77.39 -45.147 Z M77.403 -11.284 Q79.899 -11.284 81.552 -12.789 Q83.205 -14.293 83.205 -16.807 Q83.205 -19.089 81.552 -20.79 Q79.899 -22.491 77.484 -22.491 Q75.23 -22.491 73.614 -20.797 Q71.998 -19.1 71.998 -16.888 Q71.998 -14.284 73.612 -12.784 Q75.226 -11.284 77.403 -11.284 Z M107.151 37.978 H47.811 V25.642 H56.908 Q62.86 25.642 66.469 21.696 Q70.076 17.749 70.95 12.339 H43.779 Q37.649 12.339 33.337 8.027 Q29.025 3.715 29.025 -2.416 V-88.201 Q29.025 -94.397 33.337 -98.758 Q37.649 -103.116 43.779 -103.116 H111.021 Q117.217 -103.116 121.578 -98.758 Q125.936 -94.397 125.936 -88.201 V-2.416 Q125.936 3.715 121.578 8.027 Q117.217 12.339 111.021 12.339 H84.011 Q84.853 17.7 88.399 21.67 Q91.945 25.642 98.04 25.642 H107.151 V37.978 Z"/></g><g id="Semibold-L" transform="matrix(1 0 0 1 1970.27 1556)"><path d="M77.344 -31.829 Q87.314 -31.829 94.155 -38.571 Q100.999 -45.313 100.999 -55.16 Q100.999 -65.05 94.157 -71.993 Q87.317 -78.935 77.384 -78.935 Q67.536 -78.935 60.715 -71.993 Q53.893 -65.05 53.893 -55.12 Q53.893 -45.352 60.715 -38.59 Q67.536 -31.829 77.344 -31.829 Z M77.384 -42.833 Q72.251 -42.833 68.573 -46.403 Q64.897 -49.971 64.897 -55.093 Q64.897 -60.374 68.555 -64.107 Q72.214 -67.841 77.348 -67.841 Q82.483 -67.841 86.193 -64.139 Q89.903 -60.437 89.903 -55.128 Q89.903 -49.981 86.211 -46.408 Q82.518 -42.833 77.384 -42.833 Z M77.402 -11.144 Q79.69 -11.144 81.202 -12.558 Q82.715 -13.971 82.715 -16.282 Q82.715 -18.36 81.202 -19.935 Q79.69 -21.509 77.447 -21.509 Q75.367 -21.509 73.857 -19.935 Q72.348 -18.362 72.348 -16.327 Q72.348 -13.961 73.862 -12.553 Q75.375 -11.144 77.402 -11.144 Z M105.748 33.841 H49.213 V22.838 H57.194 Q62.791 22.838 66.538 19.311 Q70.286 15.786 71.44 10.797 H43.149 Q38.073 10.797 34.425 7.148 Q30.778 3.501 30.778 -1.574 V-88.831 Q30.778 -93.944 34.425 -97.619 Q38.073 -101.294 43.149 -101.294 H111.651 Q116.764 -101.294 120.439 -97.619 Q124.114 -93.944 124.114 -88.831 V-1.574 Q124.114 3.501 120.439 7.148 Q116.764 10.797 111.651 10.797 H83.45 Q84.592 15.756 88.304 19.297 Q92.014 22.838 97.69 22.838 H105.748 V33.841 Z"/></g><g id="Medium-L" transform="matrix(1 0 0 1 1674.31 1556)"><path d="M77.353 -31.094 Q87.523 -31.094 94.523 -38.028 Q101.525 -44.963 101.525 -55.012 Q101.525 -65.103 94.526 -72.203 Q87.528 -79.304 77.394 -79.304 Q67.344 -79.304 60.328 -72.203 Q53.314 -65.103 53.314 -54.972 Q53.314 -45 60.328 -38.047 Q67.344 -31.094 77.353 -31.094 Z M77.381 -41.098 Q71.593 -41.098 67.456 -45.137 Q63.318 -49.177 63.318 -54.957 Q63.318 -60.899 67.443 -65.081 Q71.566 -69.26 77.353 -69.26 Q83.139 -69.26 87.31 -65.1 Q91.482 -60.938 91.482 -54.985 Q91.482 -49.193 87.323 -45.145 Q83.166 -41.098 77.381 -41.098 Z M77.4 -11.039 Q79.532 -11.039 80.939 -12.384 Q82.346 -13.729 82.346 -15.886 Q82.346 -17.813 80.939 -19.294 Q79.532 -20.774 77.419 -20.774 Q75.47 -20.774 74.041 -19.29 Q72.611 -17.807 72.611 -15.906 Q72.611 -13.719 74.049 -12.379 Q75.486 -11.039 77.4 -11.039 Z M104.696 30.739 H50.265 V20.735 H57.408 Q62.738 20.735 66.591 17.525 Q70.444 14.314 71.809 9.639 H42.675 Q38.39 9.639 35.241 6.49 Q32.092 3.341 32.092 -0.943 V-89.305 Q32.092 -93.604 35.241 -96.766 Q38.39 -99.927 42.675 -99.927 H112.125 Q116.424 -99.927 119.586 -96.766 Q122.747 -93.604 122.747 -89.305 V-0.943 Q122.747 3.341 119.586 6.49 Q116.424 9.639 112.125 9.639 H83.029 Q84.397 14.296 88.231 17.515 Q92.067 20.735 97.427 20.735 H104.696 V30.739 Z"/></g><g id="Regular-L" transform="matrix(1 0 0 1 1378.56 1556)"><path d="M77.36 -30.554 Q87.678 -30.554 94.794 -37.629 Q101.91 -44.705 101.91 -54.902 Q101.91 -65.142 94.796 -72.358 Q87.681 -79.574 77.4 -79.574 Q67.203 -79.574 60.046 -72.358 Q52.89 -65.142 52.89 -54.862 Q52.89 -44.744 60.046 -37.649 Q67.203 -30.554 77.36 -30.554 Z M77.376 -39.826 Q71.111 -39.826 66.637 -44.21 Q62.162 -48.594 62.162 -54.859 Q62.162 -61.285 66.627 -65.793 Q71.092 -70.302 77.356 -70.302 Q83.621 -70.302 88.13 -65.803 Q92.638 -61.306 92.638 -54.878 Q92.638 -48.614 88.139 -44.22 Q83.642 -39.826 77.376 -39.826 Z M77.4 -10.962 Q79.416 -10.962 80.746 -12.257 Q82.076 -13.552 82.076 -15.598 Q82.076 -17.412 80.746 -18.823 Q79.416 -20.234 77.4 -20.234 Q75.546 -20.234 74.175 -18.816 Q72.804 -17.399 72.804 -15.598 Q72.804 -13.542 74.186 -12.252 Q75.568 -10.962 77.4 -10.962 Z M103.926 28.464 H51.036 V19.192 H57.566 Q62.699 19.192 66.63 16.212 Q70.56 13.234 72.079 8.791 H42.328 Q38.624 8.791 35.841 6.006 Q33.056 3.223 33.056 -0.481 V-89.652 Q33.056 -93.356 35.841 -96.139 Q38.624 -98.924 42.328 -98.924 H112.472 Q116.176 -98.924 118.959 -96.139 Q121.744 -93.356 121.744 -89.652 V-0.481 Q121.744 3.223 118.959 6.006 Q116.176 8.791 112.472 8.791 H82.721 Q84.253 13.226 88.18 16.209 Q92.106 19.192 97.234 19.192 H103.926 V28.464 Z"/></g><g id="Light-L" transform="matrix(1 0 0 1 1082.77 1556)"><path d="M77.376 -32.011 Q86.809 -32.011 93.367 -38.46 Q99.925 -44.908 99.925 -54.282 Q99.925 -63.654 93.377 -70.326 Q86.828 -77 77.369 -77 Q68.041 -77 61.488 -70.326 Q54.936 -63.654 54.936 -54.227 Q54.936 -44.961 61.481 -38.486 Q68.025 -32.011 77.376 -32.011 Z M77.371 -39.081 Q71.018 -39.081 66.512 -43.484 Q62.007 -47.888 62.007 -54.27 Q62.007 -60.799 66.503 -65.334 Q70.998 -69.868 77.352 -69.868 Q83.703 -69.868 88.28 -65.337 Q92.856 -60.806 92.856 -54.266 Q92.856 -47.901 88.289 -43.491 Q83.724 -39.081 77.371 -39.081 Z M77.369 -11.923 Q79.23 -11.923 80.483 -13.11 Q81.734 -14.298 81.734 -16.202 Q81.734 -17.876 80.481 -19.179 Q79.229 -20.482 77.4 -20.482 Q75.607 -20.482 74.393 -19.166 Q73.177 -17.852 73.177 -16.233 Q73.177 -14.3 74.404 -13.111 Q75.629 -11.923 77.369 -11.923 Z M102.653 25.548 H52.184 V18.479 H58.527 Q63.826 18.479 67.891 15.236 Q71.955 11.994 73.382 7.085 H45.026 Q41.367 7.085 38.669 4.404 Q35.972 1.722 35.972 -1.969 V-86.954 Q35.972 -90.613 38.669 -93.311 Q41.367 -96.008 45.021 -96.008 H109.779 Q113.433 -96.008 116.131 -93.311 Q118.828 -90.613 118.828 -86.954 V-1.969 Q118.828 1.722 116.131 4.404 Q113.433 7.085 109.774 7.085 H81.449 Q82.858 11.986 86.906 15.232 Q90.955 18.479 96.357 18.479 H102.653 V25.548 Z"/></g><g id="Thin-L" transform="matrix(1 0 0 1 787.282 1556)"><path d="M77.39 -33.469 Q85.941 -33.469 91.942 -39.289 Q97.94 -45.11 97.94 -53.662 Q97.94 -62.165 91.958 -68.296 Q85.975 -74.427 77.339 -74.427 Q68.878 -74.427 62.931 -68.296 Q56.983 -62.165 56.983 -53.592 Q56.983 -45.178 62.915 -39.323 Q68.847 -33.469 77.39 -33.469 Z M77.366 -38.337 Q70.926 -38.337 66.388 -42.76 Q61.852 -47.183 61.852 -53.68 Q61.852 -60.314 66.379 -64.874 Q70.905 -69.434 77.345 -69.434 Q83.785 -69.434 88.43 -64.869 Q93.072 -60.306 93.072 -53.653 Q93.072 -47.187 88.439 -42.762 Q83.806 -38.337 77.366 -38.337 Z M77.339 -12.884 Q79.043 -12.884 80.219 -13.964 Q81.394 -15.043 81.394 -16.807 Q81.394 -18.342 80.217 -19.536 Q79.04 -20.73 77.4 -20.73 Q75.67 -20.73 74.609 -19.516 Q73.549 -18.304 73.549 -16.868 Q73.549 -15.058 74.62 -13.971 Q75.692 -12.884 77.339 -12.884 Z M101.383 22.635 H53.33 V17.765 H59.488 Q64.952 17.765 69.15 14.259 Q73.351 10.754 74.683 5.381 H47.724 Q44.11 5.381 41.498 2.801 Q38.885 0.222 38.885 -3.457 V-84.256 Q38.885 -87.87 41.498 -90.482 Q44.11 -93.095 47.714 -93.095 H107.086 Q110.69 -93.095 113.302 -90.482 Q115.915 -87.87 115.915 -84.256 V-3.457 Q115.915 0.222 113.302 2.801 Q110.69 5.381 107.076 5.381 H80.178 Q81.462 10.746 85.633 14.254 Q89.805 17.765 95.481 17.765 H101.383 V22.635 Z"/></g><g id="Ultralight-L" transform="matrix(1 0 0 1 491.205 1556)"><path d="M77.4 -34.343 Q85.421 -34.343 91.085 -39.787 Q96.75 -45.232 96.75 -53.29 Q96.75 -61.272 91.106 -67.077 Q85.463 -72.882 77.319 -72.882 Q69.379 -72.882 63.795 -67.077 Q58.211 -61.272 58.211 -53.209 Q58.211 -45.308 63.776 -39.826 Q69.342 -34.343 77.4 -34.343 Z M77.363 -37.891 Q70.869 -37.891 66.314 -42.325 Q61.759 -46.759 61.759 -53.327 Q61.759 -60.022 66.304 -64.598 Q70.85 -69.173 77.342 -69.173 Q83.835 -69.173 88.518 -64.59 Q93.203 -60.006 93.203 -53.285 Q93.203 -46.759 88.529 -42.325 Q83.855 -37.891 77.363 -37.891 Z M77.319 -13.461 Q78.932 -13.461 80.061 -14.476 Q81.189 -15.491 81.189 -17.17 Q81.189 -18.621 80.059 -19.75 Q78.929 -20.879 77.4 -20.879 Q75.707 -20.879 74.739 -19.726 Q73.772 -18.574 73.772 -17.251 Q73.772 -15.512 74.751 -14.487 Q75.729 -13.461 77.319 -13.461 Z M100.62 20.885 H54.019 V17.338 H60.066 Q65.627 17.338 69.907 13.672 Q74.188 10.009 75.465 4.357 H49.343 Q45.756 4.357 43.196 1.84 Q40.635 -0.679 40.635 -4.351 V-82.637 Q40.635 -86.224 43.196 -88.784 Q45.756 -91.345 49.33 -91.345 H105.47 Q109.044 -91.345 111.604 -88.784 Q114.165 -86.224 114.165 -82.637 V-4.351 Q114.165 -0.679 111.604 1.84 Q109.044 4.357 105.457 4.357 H79.416 Q80.625 10.001 84.869 13.669 Q89.115 17.338 94.955 17.338 H100.62 V20.885 Z"/></g><g id="Bold-M" transform="matrix(1 0 0 1 2281.8 1126)"><path d="M59.969 -32.917 Q67.312 -32.917 72.406 -37.98 Q77.5 -43.042 77.5 -50.417 Q77.5 -57.792 72.407 -62.855 Q67.316 -67.917 60 -67.917 Q52.625 -67.917 47.562 -62.855 Q42.5 -57.792 42.5 -50.417 Q42.5 -43.042 47.562 -37.98 Q52.625 -32.917 59.969 -32.917 Z M60.008 -45.542 Q58 -45.542 56.562 -46.959 Q55.125 -48.376 55.125 -50.365 Q55.125 -52.355 56.555 -53.824 Q57.985 -55.292 59.992 -55.292 Q62 -55.292 63.438 -53.85 Q64.875 -52.407 64.875 -50.381 Q64.875 -48.355 63.445 -46.949 Q62.015 -45.542 60.008 -45.542 Z M60.002 -16.105 Q62.312 -16.105 64.062 -17.74 Q65.812 -19.375 65.812 -21.792 Q65.812 -24.155 64.062 -25.817 Q62.312 -27.48 59.971 -27.48 Q57.63 -27.48 56.034 -25.817 Q54.438 -24.155 54.438 -21.761 Q54.438 -19.367 56.038 -17.736 Q57.638 -16.105 60.002 -16.105 Z M82.75 23.395 H37.25 V10.77 H44.688 Q48.562 10.77 50.438 8.364 Q52.312 5.958 52.875 2.583 H37.125 Q30.758 2.583 26.379 -1.796 Q22 -6.175 22 -12.542 V-73.105 Q22 -79.472 26.379 -83.851 Q30.758 -88.23 37.125 -88.23 H82.875 Q89.243 -88.23 93.621 -83.851 Q98 -79.472 98 -73.105 V-12.542 Q98 -6.175 93.621 -1.796 Q89.243 2.583 82.875 2.583 H67.062 Q67.75 5.958 69.562 8.364 Q71.375 10.77 75.25 10.77 H82.75 V23.395 Z"/></g><g id="Semibold-M" transform="matrix(1 0 0 1 1985.97 1126)"><path d="M59.969 -31.939 Q67.584 -31.939 72.922 -37.246 Q78.261 -42.554 78.261 -50.2 Q78.261 -57.846 72.924 -63.154 Q67.588 -68.461 60 -68.461 Q52.354 -68.461 47.046 -63.154 Q41.739 -57.846 41.739 -50.2 Q41.739 -42.554 47.046 -37.246 Q52.354 -31.939 59.969 -31.939 Z M60.008 -43.151 Q57.104 -43.151 55.028 -45.212 Q52.951 -47.274 52.951 -50.167 Q52.951 -53.061 55.02 -55.155 Q57.087 -57.249 59.992 -57.249 Q62.896 -57.249 64.972 -55.174 Q67.049 -53.097 67.049 -50.182 Q67.049 -47.267 64.98 -45.21 Q62.913 -43.151 60.008 -43.151 Z M60.001 -15.996 Q62.15 -15.996 63.736 -17.506 Q65.324 -19.016 65.324 -21.249 Q65.324 -23.426 63.736 -24.964 Q62.15 -26.501 59.97 -26.501 Q57.79 -26.501 56.304 -24.964 Q54.818 -23.426 54.818 -21.217 Q54.818 -19.009 56.307 -17.502 Q57.799 -15.996 60.001 -15.996 Z M81.282 19.101 H38.718 V7.89 H45.014 Q48.454 7.89 50.491 5.891 Q52.53 3.893 53.419 0.953 H36.472 Q31.192 0.953 27.52 -2.72 Q23.848 -6.392 23.848 -11.672 V-73.757 Q23.848 -79.037 27.52 -82.71 Q31.192 -86.382 36.472 -86.382 H83.528 Q88.808 -86.382 92.48 -82.71 Q96.153 -79.037 96.153 -73.757 V-11.672 Q96.153 -6.392 92.48 -2.72 Q88.808 0.953 83.528 0.953 H66.519 Q67.479 3.893 69.481 5.891 Q71.484 7.89 74.924 7.89 H81.282 V19.101 Z"/></g><g id="Medium-M" transform="matrix(1 0 0 1 1689.91 1126)"><path d="M59.969 -31.205 Q67.787 -31.205 73.31 -36.696 Q78.831 -42.186 78.831 -50.037 Q78.831 -57.887 73.311 -63.377 Q67.791 -68.869 60 -68.869 Q52.15 -68.869 46.659 -63.377 Q41.169 -57.887 41.169 -50.037 Q41.169 -42.186 46.659 -36.696 Q52.15 -31.205 59.969 -31.205 Z M60.008 -41.357 Q56.431 -41.357 53.876 -43.902 Q51.321 -46.446 51.321 -50.019 Q51.321 -53.591 53.867 -56.154 Q56.415 -58.716 59.992 -58.716 Q63.569 -58.716 66.124 -56.166 Q68.679 -53.615 68.679 -50.034 Q68.679 -46.452 66.132 -43.905 Q63.585 -41.357 60.008 -41.357 Z M60 -15.915 Q62.028 -15.915 63.491 -17.331 Q64.956 -18.747 64.956 -20.841 Q64.956 -22.88 63.491 -24.324 Q62.028 -25.767 59.969 -25.767 Q57.911 -25.767 56.508 -24.324 Q55.104 -22.88 55.104 -20.81 Q55.104 -18.74 56.511 -17.327 Q57.919 -15.915 60 -15.915 Z M80.183 15.881 H39.818 V5.729 H45.259 Q48.373 5.729 50.532 4.036 Q52.693 2.344 53.826 -0.271 H35.984 Q31.519 -0.271 28.376 -3.414 Q25.234 -6.556 25.234 -11.021 V-74.246 Q25.234 -78.711 28.376 -81.854 Q31.519 -84.996 35.984 -84.996 H84.016 Q88.481 -84.996 91.624 -81.854 Q94.766 -78.711 94.766 -74.246 V-11.021 Q94.766 -6.556 91.624 -3.414 Q88.481 -0.271 84.016 -0.271 H66.111 Q67.275 2.344 69.42 4.036 Q71.565 5.729 74.679 5.729 H80.183 V15.881 Z"/></g><g id="Regular-M" transform="matrix(1 0 0 1 1394.06 1126)"><path d="M59.969 -30.667 Q67.938 -30.667 73.594 -36.292 Q79.25 -41.917 79.25 -49.917 Q79.25 -57.917 73.595 -63.542 Q67.941 -69.167 60 -69.167 Q52 -69.167 46.375 -63.542 Q40.75 -57.917 40.75 -49.917 Q40.75 -41.917 46.375 -36.292 Q52 -30.667 59.969 -30.667 Z M60.008 -40.042 Q55.938 -40.042 53.031 -42.941 Q50.125 -45.84 50.125 -49.91 Q50.125 -53.98 53.024 -56.886 Q55.922 -59.792 59.992 -59.792 Q64.062 -59.792 66.969 -56.894 Q69.875 -53.995 69.875 -49.925 Q69.875 -45.855 66.976 -42.949 Q64.078 -40.042 60.008 -40.042 Z M60 -15.855 Q61.938 -15.855 63.312 -17.202 Q64.688 -18.55 64.688 -20.542 Q64.688 -22.48 63.312 -23.855 Q61.938 -25.23 59.969 -25.23 Q58 -25.23 56.656 -23.855 Q55.312 -22.48 55.312 -20.511 Q55.312 -18.542 56.66 -17.199 Q58.008 -15.855 60 -15.855 Z M79.375 13.52 H40.625 V4.145 H45.438 Q48.312 4.145 50.562 2.676 Q52.812 1.208 54.125 -1.167 H35.625 Q31.758 -1.167 29.004 -3.921 Q26.25 -6.675 26.25 -10.542 V-74.605 Q26.25 -78.472 29.004 -81.226 Q31.758 -83.98 35.625 -83.98 H84.375 Q88.243 -83.98 90.996 -81.226 Q93.75 -78.472 93.75 -74.605 V-10.542 Q93.75 -6.675 90.996 -3.921 Q88.243 -1.167 84.375 -1.167 H65.812 Q67.125 1.208 69.375 2.676 Q71.625 4.145 74.5 4.145 H79.375 V13.52 Z"/></g><g id="Light-M" transform="matrix(1 0 0 1 1098.18 1126)"><path d="M59.981 -32.086 Q67.264 -32.086 72.391 -37.152 Q77.519 -42.219 77.519 -49.557 Q77.519 -56.86 72.399 -61.992 Q67.279 -67.124 60 -67.124 Q52.697 -67.124 47.589 -61.992 Q42.481 -56.86 42.481 -49.545 Q42.481 -42.23 47.589 -37.157 Q52.697 -32.086 59.981 -32.086 Z M60.008 -39.081 Q55.672 -39.081 52.575 -42.136 Q49.476 -45.19 49.476 -49.549 Q49.476 -53.917 52.566 -57 Q55.657 -60.081 59.992 -60.081 Q64.328 -60.081 67.425 -57.007 Q70.524 -53.934 70.524 -49.565 Q70.524 -45.206 67.434 -42.144 Q64.343 -39.081 60.008 -39.081 Z M60 -16.841 Q61.649 -16.841 62.867 -18.007 Q64.086 -19.175 64.086 -20.915 Q64.086 -22.552 62.867 -23.771 Q61.649 -24.99 59.969 -24.99 Q58.24 -24.99 57.089 -23.765 Q55.938 -22.541 55.938 -20.884 Q55.938 -19.177 57.093 -18.009 Q58.249 -16.841 60 -16.841 Z M78.63 11.26 H41.322 V4.265 H45.99 Q49.299 4.265 51.885 2.351 Q54.471 0.439 55.664 -2.586 H37.044 Q33.489 -2.586 30.999 -5.062 Q28.51 -7.539 28.51 -11.12 V-73.186 Q28.51 -76.741 30.999 -79.231 Q33.489 -81.72 37.04 -81.72 H82.96 Q86.511 -81.72 89.001 -79.231 Q91.49 -76.741 91.49 -73.186 V-11.12 Q91.49 -7.539 89.001 -5.062 Q86.511 -2.586 82.956 -2.586 H64.297 Q65.466 0.439 68.029 2.351 Q70.591 4.265 73.965 4.265 H78.63 V11.26 Z"/></g><g id="Thin-M" transform="matrix(1 0 0 1 802.565 1126)"><path d="M59.992 -33.504 Q66.591 -33.504 71.19 -38.011 Q75.789 -42.52 75.789 -49.196 Q75.789 -55.802 71.203 -60.441 Q66.618 -65.081 60 -65.081 Q53.394 -65.081 48.803 -60.441 Q44.211 -55.802 44.211 -49.172 Q44.211 -42.542 48.803 -38.024 Q53.394 -33.504 59.992 -33.504 Z M60.008 -38.12 Q55.409 -38.12 52.117 -41.33 Q48.828 -44.541 48.828 -49.189 Q48.828 -53.855 52.11 -57.112 Q55.394 -60.37 59.992 -60.37 Q64.591 -60.37 67.882 -57.12 Q71.172 -53.871 71.172 -49.204 Q71.172 -44.557 67.89 -41.339 Q64.606 -38.12 60.008 -38.12 Z M60 -17.826 Q61.36 -17.826 62.422 -18.814 Q63.485 -19.8 63.485 -21.287 Q63.485 -22.624 62.422 -23.686 Q61.36 -24.749 59.969 -24.749 Q58.481 -24.749 57.521 -23.676 Q56.562 -22.604 56.562 -21.256 Q56.562 -19.814 57.525 -18.82 Q58.489 -17.826 60 -17.826 Z M77.885 9.001 H42.019 V4.385 H46.544 Q50.284 4.385 53.206 2.028 Q56.13 -0.331 57.203 -4.004 H38.461 Q35.219 -4.004 32.994 -6.204 Q30.769 -8.402 30.769 -11.696 V-71.769 Q30.769 -75.011 32.994 -77.236 Q35.219 -79.461 38.454 -79.461 H81.546 Q84.781 -79.461 87.006 -77.236 Q89.231 -75.011 89.231 -71.769 V-11.696 Q89.231 -8.402 87.006 -6.204 Q84.781 -4.004 81.539 -4.004 H62.784 Q63.807 -0.331 66.683 2.028 Q69.558 4.385 73.429 4.385 H77.885 V9.001 Z"/></g><g id="Ultralight-M" transform="matrix(1 0 0 1 506.415 1126)"><path d="M60 -34.355 Q66.188 -34.355 70.469 -38.527 Q74.75 -42.7 74.75 -48.98 Q74.75 -55.167 70.485 -59.511 Q66.22 -63.855 60 -63.855 Q53.812 -63.855 49.531 -59.511 Q45.25 -55.167 45.25 -48.949 Q45.25 -42.73 49.531 -38.542 Q53.812 -34.355 60 -34.355 Z M60.008 -37.542 Q55.25 -37.542 51.844 -40.847 Q48.438 -44.152 48.438 -48.972 Q48.438 -53.819 51.836 -57.18 Q55.235 -60.542 59.992 -60.542 Q64.75 -60.542 68.156 -57.189 Q71.562 -53.834 71.562 -48.987 Q71.562 -44.167 68.164 -40.855 Q64.765 -37.542 60.008 -37.542 Z M60 -18.417 Q61.188 -18.417 62.156 -19.296 Q63.125 -20.175 63.125 -21.511 Q63.125 -22.667 62.156 -23.636 Q61.188 -24.605 59.969 -24.605 Q58.625 -24.605 57.781 -23.622 Q56.938 -22.64 56.938 -21.48 Q56.938 -20.195 57.785 -19.306 Q58.633 -18.417 60 -18.417 Z M77.438 7.645 H42.438 V4.458 H46.875 Q50.875 4.458 54 1.833 Q57.125 -0.792 58.125 -4.855 H39.312 Q36.258 -4.855 34.191 -6.889 Q32.125 -8.921 32.125 -12.042 V-70.917 Q32.125 -73.972 34.191 -76.039 Q36.258 -78.105 39.303 -78.105 H80.698 Q83.743 -78.105 85.809 -76.039 Q87.875 -73.972 87.875 -70.917 V-12.042 Q87.875 -8.921 85.809 -6.889 Q83.743 -4.855 80.688 -4.855 H61.875 Q62.812 -0.792 65.875 1.833 Q68.938 4.458 73.109 4.458 H77.438 V7.645 Z"/></g><g id="Bold-S" transform="matrix(1 0 0 1 2294.23 696)"><path d="M47.315 -34.983 Q52.518 -34.983 56.044 -38.485 Q59.57 -41.986 59.57 -47.213 Q59.57 -52.44 56.045 -55.941 Q52.521 -59.442 47.34 -59.442 Q42.113 -59.442 38.612 -55.941 Q35.111 -52.44 35.111 -47.213 Q35.111 -41.986 38.612 -38.485 Q42.113 -34.983 47.315 -34.983 Z M47.325 -44.156 Q46.058 -44.156 45.17 -45.048 Q44.283 -45.94 44.283 -47.193 Q44.283 -48.446 45.185 -49.358 Q46.087 -50.27 47.355 -50.27 Q48.622 -50.27 49.51 -49.358 Q50.397 -48.445 50.397 -47.164 Q50.397 -45.881 49.495 -45.019 Q48.593 -44.156 47.325 -44.156 Z M47.321 -20.535 Q48.967 -20.535 50.249 -21.706 Q51.532 -22.876 51.532 -24.607 Q51.532 -26.295 50.27 -27.508 Q49.009 -28.721 47.338 -28.721 Q45.667 -28.721 44.507 -27.528 Q43.346 -26.336 43.346 -24.624 Q43.346 -22.912 44.489 -21.723 Q45.632 -20.535 47.321 -20.535 Z M63.712 9.447 H30.968 V0.275 H36.399 Q39.203 0.275 40.584 -1.476 Q41.965 -3.226 42.212 -5.79 H30.081 Q25.057 -5.79 21.996 -8.851 Q18.936 -11.911 18.936 -16.912 V-64.347 Q18.936 -69.348 21.996 -72.409 Q25.057 -75.469 30.081 -75.469 H64.599 Q69.623 -75.469 72.684 -72.409 Q75.744 -69.348 75.744 -64.347 V-16.912 Q75.744 -11.911 72.684 -8.851 Q69.623 -5.79 64.599 -5.79 H52.419 Q52.764 -3.226 54.096 -1.476 Q55.427 0.275 58.232 0.275 H63.712 V9.447 Z"/></g><g id="Semibold-S" transform="matrix(1 0 0 1 1998.1 696)"><path d="M47.315 -34.211 Q52.732 -34.211 56.451 -37.906 Q60.17 -41.6 60.17 -47.041 Q60.17 -52.482 56.452 -56.177 Q52.735 -59.871 47.34 -59.871 Q41.899 -59.871 38.204 -56.177 Q34.51 -52.482 34.51 -47.041 Q34.51 -41.6 38.204 -37.906 Q41.899 -34.211 47.315 -34.211 Z M47.325 -42.269 Q45.351 -42.269 43.959 -43.669 Q42.568 -45.07 42.568 -47.036 Q42.568 -49.003 43.974 -50.408 Q45.38 -51.814 47.355 -51.814 Q49.329 -51.814 50.721 -50.401 Q52.112 -48.99 52.112 -47.007 Q52.112 -45.023 50.706 -43.647 Q49.3 -42.269 47.325 -42.269 Z M47.32 -20.449 Q48.839 -20.449 49.992 -21.521 Q51.146 -22.593 51.146 -24.178 Q51.146 -25.72 50.013 -26.834 Q48.881 -27.949 47.337 -27.949 Q45.794 -27.949 44.72 -26.855 Q43.646 -25.762 43.646 -24.195 Q43.646 -22.629 44.702 -21.539 Q45.759 -20.449 47.32 -20.449 Z M62.554 6.059 H32.126 V-1.997 H36.655 Q39.118 -1.997 40.627 -3.426 Q42.137 -4.855 42.641 -7.077 H29.566 Q25.4 -7.077 22.897 -9.58 Q20.394 -12.083 20.394 -16.227 V-64.861 Q20.394 -69.005 22.897 -71.508 Q25.4 -74.011 29.566 -74.011 H65.114 Q69.28 -74.011 71.783 -71.508 Q74.286 -69.005 74.286 -64.861 V-16.227 Q74.286 -12.083 71.783 -9.58 Q69.28 -7.077 65.114 -7.077 H51.99 Q52.55 -4.855 54.032 -3.426 Q55.513 -1.997 57.976 -1.997 H62.554 V6.059 Z"/></g><g id="Medium-S" transform="matrix(1 0 0 1 1701.85 696)"><path d="M47.315 -33.632 Q52.893 -33.632 56.757 -37.472 Q60.62 -41.31 60.62 -46.913 Q60.62 -52.515 56.758 -56.354 Q52.896 -60.193 47.34 -60.193 Q41.738 -60.193 37.899 -56.354 Q34.06 -52.515 34.06 -46.913 Q34.06 -41.31 37.899 -37.472 Q41.738 -33.632 47.315 -33.632 Z M47.325 -40.854 Q44.82 -40.854 43.051 -42.636 Q41.281 -44.417 41.281 -46.919 Q41.281 -49.421 43.066 -51.196 Q44.85 -52.972 47.355 -52.972 Q49.86 -52.972 51.629 -51.186 Q53.399 -49.398 53.399 -46.889 Q53.399 -44.38 51.614 -42.617 Q49.83 -40.854 47.325 -40.854 Z M47.319 -20.385 Q48.742 -20.385 49.799 -21.383 Q50.856 -22.381 50.856 -23.857 Q50.856 -25.289 49.82 -26.329 Q48.784 -27.37 47.336 -27.37 Q45.889 -27.37 44.88 -26.35 Q43.871 -25.331 43.871 -23.873 Q43.871 -22.417 44.863 -21.401 Q45.854 -20.385 47.319 -20.385 Z M61.686 3.519 H32.994 V-3.703 H36.848 Q39.054 -3.703 40.659 -4.89 Q42.265 -6.077 42.962 -8.042 H29.18 Q25.657 -8.042 23.572 -10.127 Q21.487 -12.212 21.487 -15.712 V-65.248 Q21.487 -68.748 23.572 -70.833 Q25.657 -72.918 29.18 -72.918 H65.5 Q69.023 -72.918 71.108 -70.833 Q73.193 -68.748 73.193 -65.248 V-15.712 Q73.193 -12.212 71.108 -10.127 Q69.023 -8.042 65.5 -8.042 H51.669 Q52.39 -6.077 53.983 -4.89 Q55.577 -3.703 57.782 -3.703 H61.686 V3.519 Z"/></g><g id="Regular-S" transform="matrix(1 0 0 1 1405.73 696)"><path d="M47.315 -33.208 Q53.011 -33.208 56.981 -37.153 Q60.95 -41.098 60.95 -46.818 Q60.95 -52.539 56.982 -56.484 Q53.014 -60.429 47.34 -60.429 Q41.62 -60.429 37.675 -56.484 Q33.73 -52.539 33.73 -46.818 Q33.73 -41.098 37.675 -37.153 Q41.62 -33.208 47.315 -33.208 Z M47.325 -39.816 Q44.431 -39.816 42.384 -41.877 Q40.338 -43.939 40.338 -46.833 Q40.338 -49.728 42.399 -51.774 Q44.46 -53.821 47.355 -53.821 Q50.249 -53.821 52.296 -51.76 Q54.342 -49.698 54.342 -46.804 Q54.342 -43.909 52.281 -41.863 Q50.22 -39.816 47.325 -39.816 Z M47.319 -20.338 Q48.671 -20.338 49.658 -21.281 Q50.644 -22.225 50.644 -23.621 Q50.644 -24.973 49.678 -25.959 Q48.713 -26.945 47.336 -26.945 Q45.959 -26.945 44.998 -25.98 Q44.036 -25.014 44.036 -23.638 Q44.036 -22.261 44.98 -21.299 Q45.924 -20.338 47.319 -20.338 Z M61.049 1.656 H33.631 V-4.952 H36.99 Q39.006 -4.952 40.683 -5.963 Q42.359 -6.974 43.198 -8.749 H28.897 Q25.846 -8.749 24.067 -10.527 Q22.289 -12.306 22.289 -15.334 V-65.531 Q22.289 -68.559 24.067 -70.338 Q25.846 -72.116 28.897 -72.116 H65.783 Q68.834 -72.116 70.613 -70.338 Q72.391 -68.559 72.391 -65.531 V-15.334 Q72.391 -12.306 70.613 -10.527 Q68.834 -8.749 65.783 -8.749 H51.433 Q52.271 -6.974 53.948 -5.963 Q55.625 -4.952 57.64 -4.952 H61.049 V1.656 Z"/></g><g id="Light-S" transform="matrix(1 0 0 1 1109.75 696)"><path d="M47.325 -34.328 Q52.479 -34.328 56.032 -37.832 Q59.584 -41.336 59.584 -46.534 Q59.584 -51.704 56.038 -55.261 Q52.491 -58.816 47.34 -58.816 Q42.17 -58.816 38.632 -55.261 Q35.096 -51.704 35.096 -46.525 Q35.096 -41.345 38.632 -37.836 Q42.17 -34.328 47.325 -34.328 Z M47.325 -39.058 Q44.221 -39.058 42.024 -41.242 Q39.826 -43.427 39.826 -46.549 Q39.826 -49.679 42.039 -51.864 Q44.252 -54.049 47.355 -54.049 Q50.459 -54.049 52.656 -51.848 Q54.854 -49.649 54.854 -46.519 Q54.854 -43.397 52.641 -41.227 Q50.428 -39.058 47.325 -39.058 Z M47.319 -21.116 Q48.444 -21.116 49.307 -21.917 Q50.17 -22.718 50.17 -23.915 Q50.17 -25.03 49.327 -25.893 Q48.485 -26.756 47.336 -26.756 Q46.149 -26.756 45.339 -25.91 Q44.529 -25.063 44.529 -23.932 Q44.529 -22.762 45.321 -21.938 Q46.113 -21.116 47.319 -21.116 Z M60.461 -0.127 H34.181 V-4.857 H37.426 Q39.784 -4.857 41.726 -6.219 Q43.668 -7.58 44.412 -9.869 H30.017 Q27.212 -9.869 25.642 -11.428 Q24.072 -12.987 24.072 -15.79 V-64.411 Q24.072 -67.193 25.642 -68.763 Q27.212 -70.333 30.014 -70.333 H64.666 Q67.468 -70.333 69.038 -68.763 Q70.608 -67.193 70.608 -64.411 V-15.79 Q70.608 -12.987 69.038 -11.428 Q67.468 -9.869 64.663 -9.869 H50.238 Q50.962 -7.58 52.886 -6.219 Q54.809 -4.857 57.218 -4.857 H60.461 V-0.127 Z"/></g><g id="Thin-S" transform="matrix(1 0 0 1 814.015 696)"><path d="M47.334 -35.446 Q51.949 -35.446 55.084 -38.509 Q58.219 -41.574 58.219 -46.249 Q58.219 -50.87 55.094 -54.037 Q51.969 -57.205 47.34 -57.205 Q42.719 -57.205 39.59 -54.037 Q36.461 -50.87 36.461 -46.231 Q36.461 -41.591 39.59 -38.519 Q42.719 -35.446 47.334 -35.446 Z M47.325 -38.299 Q44.013 -38.299 41.663 -40.607 Q39.314 -42.915 39.314 -46.264 Q39.314 -49.629 41.678 -51.953 Q44.043 -54.276 47.355 -54.276 Q50.667 -54.276 53.017 -51.938 Q55.366 -49.6 55.366 -46.235 Q55.366 -42.885 53.002 -40.592 Q50.637 -38.299 47.325 -38.299 Z M47.319 -21.893 Q48.216 -21.893 48.955 -22.553 Q49.695 -23.212 49.695 -24.209 Q49.695 -25.086 48.977 -25.826 Q48.258 -26.566 47.336 -26.566 Q46.339 -26.566 45.68 -25.839 Q45.022 -25.112 45.022 -24.225 Q45.022 -23.264 45.662 -22.578 Q46.303 -21.893 47.319 -21.893 Z M59.873 -1.91 H34.731 V-4.763 H37.862 Q40.562 -4.763 42.769 -6.475 Q44.977 -8.188 45.626 -10.987 H31.135 Q28.577 -10.987 27.216 -12.328 Q25.855 -13.669 25.855 -16.246 V-63.292 Q25.855 -65.828 27.216 -67.189 Q28.577 -68.55 31.129 -68.55 H63.551 Q66.103 -68.55 67.464 -67.189 Q68.825 -65.828 68.825 -63.292 V-16.246 Q68.825 -13.669 67.464 -12.328 Q66.103 -10.987 63.545 -10.987 H49.043 Q49.654 -8.188 51.823 -6.475 Q53.993 -4.763 56.796 -4.763 H59.873 V-1.91 Z"/></g><g id="Ultralight-S" transform="matrix(1 0 0 1 517.792 696)"><path d="M47.34 -36.118 Q51.63 -36.118 54.515 -38.917 Q57.4 -41.716 57.4 -46.079 Q57.4 -50.369 54.528 -53.303 Q51.656 -56.237 47.34 -56.237 Q43.05 -56.237 40.165 -53.303 Q37.28 -50.369 37.28 -46.054 Q37.28 -41.739 40.165 -38.928 Q43.05 -36.118 47.34 -36.118 Z M47.325 -37.844 Q43.888 -37.844 41.447 -40.225 Q39.006 -42.607 39.006 -46.094 Q39.006 -49.601 41.462 -52.006 Q43.918 -54.413 47.355 -54.413 Q50.792 -54.413 53.233 -51.991 Q55.674 -49.571 55.674 -46.064 Q55.674 -42.578 53.218 -40.211 Q50.762 -37.844 47.325 -37.844 Z M47.319 -22.359 Q48.08 -22.359 48.745 -22.933 Q49.411 -23.507 49.411 -24.385 Q49.411 -25.121 48.766 -25.787 Q48.121 -26.452 47.336 -26.452 Q46.452 -26.452 45.885 -25.797 Q45.318 -25.141 45.318 -24.402 Q45.318 -23.565 45.868 -22.962 Q46.417 -22.359 47.319 -22.359 Z M59.52 -2.98 H35.061 V-4.706 H38.124 Q41.028 -4.706 43.395 -6.629 Q45.762 -8.552 46.354 -11.659 H31.807 Q29.396 -11.659 28.16 -12.869 Q26.925 -14.078 26.925 -16.518 V-62.621 Q26.925 -65.009 28.16 -66.245 Q29.396 -67.48 31.799 -67.48 H62.881 Q65.284 -67.48 66.52 -66.245 Q67.755 -65.009 67.755 -62.621 V-16.518 Q67.755 -14.078 66.52 -12.869 Q65.284 -11.659 62.873 -11.659 H48.326 Q48.869 -8.552 51.186 -6.629 Q53.504 -4.706 56.543 -4.706 H59.52 V-2.98 Z"/></g></g></svg>