<svg xmlns="http://www.w3.org/2000/svg" version="1.1" width="3300" height="2000"><g id="Notes"><style>
    text {
      font-family: monospace;
      text-anchor: middle;
    }
    text.emphasis {
      font-weight:bold;
    }
    text.lanchor {
      text-anchor: start;
    }
  </style><rect height="2200" id="artboard" fill="white" width="3300" x="0" y="0"/><line id="" style="fill:none;stroke:black;stroke-width:0.5;" x1="263" x2="3036" y1="292" y2="292"/><text class="lanchor emphasis" transform="matrix(1 0 0 1 263 322)">Weight/Scale Variations</text><text transform="matrix(1 0 0 1 559.711 322)">Ultralight</text><text transform="matrix(1 0 0 1 856.422 322)">Thin</text><text transform="matrix(1 0 0 1 1153.13 322)">Light</text><text transform="matrix(1 0 0 1 1449.84 322)">Regular</text><text transform="matrix(1 0 0 1 1746.56 322)">Medium</text><text transform="matrix(1 0 0 1 2043.27 322)">Semibold</text><text transform="matrix(1 0 0 1 2339.98 322)">Bold</text><text transform="matrix(1 0 0 1 2636.69 322)">Heavy</text><text transform="matrix(1 0 0 1 2933.4 322)">Black</text><text id="template-version" style="text-anchor: end;" transform="matrix(1 0 0 1 3036 1933)">Template v.1.0</text><text class="lanchor" transform="matrix(1 0 0 1 263 726)">Small</text><text class="lanchor" transform="matrix(1 0 0 1 263 1156)">Medium</text><text class="lanchor" transform="matrix(1 0 0 1 263 1586)">Large</text></g><g id="Guides"><g id="H-reference" style="fill:#27AAE1;stroke:none;" transform="matrix(1 0 0 1 339 696)"><path d="M 54.9316 0 L 57.666 0 L 30.5664 -70.459 L 28.0762 -70.459 L 0.976562 0 L 3.66211 0 L 12.9395 -24.4629 L 45.7031 -24.4629 Z M 29.1992 -67.0898 L 29.4434 -67.0898 L 44.8242 -26.709 L 13.8184 -26.709 Z"/></g><line id="Baseline-S" style="fill:none;stroke:#27AAE1;opacity:1;stroke-width:0.577;" x1="263" x2="3036" y1="696" y2="696"/><line id="Capline-S" style="fill:none;stroke:#27AAE1;opacity:1;stroke-width:0.577;" x1="263" x2="3036" y1="625.541" y2="625.541"/><g id="H-reference" style="fill:#27AAE1;stroke:none;" transform="matrix(1 0 0 1 339 1126)"><path d="M 54.9316 0 L 57.666 0 L 30.5664 -70.459 L 28.0762 -70.459 L 0.976562 0 L 3.66211 0 L 12.9395 -24.4629 L 45.7031 -24.4629 Z M 29.1992 -67.0898 L 29.4434 -67.0898 L 44.8242 -26.709 L 13.8184 -26.709 Z"/></g><line id="Baseline-M" style="fill:none;stroke:#27AAE1;opacity:1;stroke-width:0.577;" x1="263" x2="3036" y1="1126" y2="1126"/><line id="Capline-M" style="fill:none;stroke:#27AAE1;opacity:1;stroke-width:0.577;" x1="263" x2="3036" y1="1055.54" y2="1055.54"/><g id="H-reference" style="fill:#27AAE1;stroke:none;" transform="matrix(1 0 0 1 339 1556)"><path d="M 54.9316 0 L 57.666 0 L 30.5664 -70.459 L 28.0762 -70.459 L 0.976562 0 L 3.66211 0 L 12.9395 -24.4629 L 45.7031 -24.4629 Z M 29.1992 -67.0898 L 29.4434 -67.0898 L 44.8242 -26.709 L 13.8184 -26.709 Z"/></g><line id="Baseline-L" style="fill:none;stroke:#27AAE1;opacity:1;stroke-width:0.577;" x1="263" x2="3036" y1="1556" y2="1556"/><line id="Capline-L" style="fill:none;stroke:#27AAE1;opacity:1;stroke-width:0.577;" x1="263" x2="3036" y1="1485.54" y2="1485.54"/><rect height="119.336" id="left-margin" style="fill:darkred;stroke:none;opacity:0.4;" width="12.4512" x="1394.06" y="1030.79"/><rect height="119.336" id="right-margin" style="fill:darkgreen;stroke:none;opacity:0.4;" width="12.4512" x="1502.5112" y="1030.79"/><rect x="1406.5112" y="1045" width="96" height="96" fill="none" stroke="blue" stroke-dasharray="5"/><rect x="1394.06" y="1030.79" width="120.9024" height="119.336" fill="none" stroke="blue"/></g><g id="Symbols"><g id="Bold-L" transform="matrix(1 0 0 1 2266 1556)"><path d="M4.676 32.656  35.475 -44.26 V-54.902 H0.968 L28.058 -103.277 H55.954 L83.205 -54.902 H48.697 V-44.26 L79.174 32.656 H64.823 L48.697 -7.495 V32.656 H35.314 V-7.334 L19.35 32.656 H4.676 Z M114.649 5.889 Q105.457 5.889 98.524 0.003 Q91.59 -5.882 89.816 -15.074 H73.691 Q73.691 -24.587 78.287 -33.214 Q82.883 -41.841 90.945 -47.646 Q91.751 -54.58 96.024 -60.224 Q100.297 -65.867 107.392 -68.125 V-103.277 H121.905 V-68.125 Q128.678 -66.19 132.87 -60.385 Q137.062 -54.58 138.191 -47.646 Q145.931 -41.841 150.688 -33.295 Q155.445 -24.749 155.445 -15.074 H138.998 Q137.224 -5.882 130.451 0.003 Q123.679 5.889 114.649 5.889 Z M114.649 -6.366 Q118.358 -6.366 121.341 -8.785 Q124.324 -11.204 125.936 -15.074 H103.2 Q104.651 -11.204 107.634 -8.785 Q110.618 -6.366 114.649 -6.366 Z"/></g><g id="Semibold-L" transform="matrix(1 0 0 1 1970.27 1556)"><path d="M5.587 32.306  35.615 -42.647 V-55.673 H1.598 L28.198 -102.857 H55.393 L82.083 -55.673 H48.067 V-42.647 L77.842 32.306 H64.332 L48.067 -8.125 V32.306 H35.454 V-7.824 L19.35 32.306 H5.587 Z M113.947 5.328 Q105.037 5.328 98.419 -0.418 Q91.8 -6.163 90.166 -15.004 H73.482 Q73.482 -24.587 78.042 -33.179 Q82.602 -41.772 90.664 -47.577 Q91.471 -54.511 95.815 -60.119 Q100.157 -65.727 107.252 -67.775 V-102.857 H120.573 V-67.844 Q127.415 -65.98 131.714 -60.28 Q136.011 -54.58 137.069 -47.577 Q144.809 -41.772 149.566 -33.26 Q154.323 -24.749 154.323 -15.004 H137.316 Q135.611 -6.163 129.155 -0.418 Q122.697 5.328 113.947 5.328 Z M113.947 -6.716 Q117.516 -6.716 120.325 -9.03 Q123.132 -11.344 124.674 -15.004 H103.06 Q104.442 -11.344 107.284 -9.03 Q110.127 -6.716 113.947 -6.716 Z"/></g><g id="Medium-L" transform="matrix(1 0 0 1 1674.31 1556)"><path d="M6.271 32.044  35.72 -41.438 V-56.252 H2.072 L28.303 -102.541 H54.972 L81.243 -56.252 H47.593 V-41.438 L76.842 32.044 H63.963 L47.593 -8.6 V32.044 H35.559 V-8.193 L19.35 32.044 H6.271 Z M113.422 4.907 Q104.721 4.907 98.34 -0.734 Q91.958 -6.373 90.429 -14.951 H73.324 Q73.324 -24.587 77.858 -33.153 Q82.392 -41.719 90.455 -47.524 Q91.261 -54.457 95.657 -60.04 Q100.052 -65.622 107.147 -67.512 V-102.541 H119.573 V-67.635 Q126.468 -65.822 130.846 -60.201 Q135.223 -54.58 136.229 -47.524 Q143.969 -41.719 148.726 -33.234 Q153.483 -24.749 153.483 -14.951 H136.053 Q134.402 -6.373 128.181 -0.734 Q121.961 4.907 113.422 4.907 Z M113.422 -6.979 Q116.885 -6.979 119.562 -9.214 Q122.239 -11.449 123.727 -14.951 H102.955 Q104.284 -11.449 107.022 -9.214 Q109.758 -6.979 113.422 -6.979 Z"/></g><g id="Regular-L" transform="matrix(1 0 0 1 1378.56 1556)"><path d="M6.772 31.85  35.797 -40.551 V-56.676 H2.419 L28.38 -102.31 H54.664 L80.625 -56.676 H47.246 V-40.551 L76.11 31.85 H63.694 L47.246 -8.946 V31.85 H35.636 V-8.462 L19.35 31.85 H6.772 Z M113.036 4.599 Q104.49 4.599 98.282 -0.964 Q92.074 -6.527 90.623 -14.912 H73.207 Q73.207 -24.587 77.722 -33.134 Q82.237 -41.68 90.3 -47.485 Q91.106 -54.419 95.541 -59.982 Q99.975 -65.545 107.07 -67.319 V-102.31 H118.841 V-67.48 Q125.775 -65.706 130.209 -60.143 Q134.644 -54.58 135.611 -47.485 Q143.351 -41.68 148.108 -33.214 Q152.865 -24.749 152.865 -14.912 H135.127 Q133.515 -6.527 127.468 -0.964 Q121.421 4.599 113.036 4.599 Z M113.036 -7.172 Q116.422 -7.172 119.002 -9.349 Q121.583 -11.526 123.034 -14.912 H102.877 Q104.168 -11.526 106.828 -9.349 Q109.489 -7.172 113.036 -7.172 Z"/></g><g id="Light-L" transform="matrix(1 0 0 1 1082.77 1556)"><path d="M10.06 28.625  37.844 -40.366 V-56.925 H6.078 L30.241 -99.085 H54.602 L78.764 -56.925 H46.937 V-40.366 L74.683 28.625 H64.748 L46.998 -15.025 V28.625 H37.745 V-14.603 L20.095 28.625 H10.06 Z M112.167 3.544 Q103.932 3.544 98.158 -1.956 Q92.383 -7.458 91.367 -15.595 H74.448 Q74.448 -24.836 78.901 -32.948 Q83.353 -41.059 91.106 -46.555 Q91.851 -53.303 96.161 -58.71 Q100.472 -64.118 107.442 -65.397 V-99.085 H116.856 V-65.558 Q123.605 -64.279 127.976 -58.871 Q132.349 -53.464 133.317 -46.555 Q140.684 -41.059 145.38 -33.029 Q150.074 -24.997 150.074 -15.595 H132.833 Q131.593 -7.458 125.886 -1.956 Q120.181 3.544 112.167 3.544 Z M112.167 -5.932 Q116.113 -5.932 119.002 -8.698 Q121.892 -11.465 123.343 -15.595 H100.955 Q102.121 -11.465 105.061 -8.698 Q108 -5.932 112.167 -5.932 Z"/></g><g id="Thin-L" transform="matrix(1 0 0 1 787.282 1556)"><path d="M13.347 25.4  39.89 -40.179 V-57.173 H9.736 L32.102 -95.86 H54.54 L76.903 -57.173 H46.625 V-40.179 L73.257 25.4 H65.803 L46.75 -21.101 V25.4 H39.853 V-20.742 L20.838 25.4 H13.347 Z M111.3 2.49 Q103.374 2.49 98.034 -2.949 Q92.695 -8.388 92.111 -16.277 H75.688 Q75.688 -25.084 80.08 -32.761 Q84.471 -40.44 91.913 -45.624 Q92.595 -52.185 96.781 -57.439 Q100.967 -62.692 107.815 -63.473 V-95.86 H114.871 V-63.634 Q121.434 -62.854 125.744 -57.6 Q130.055 -52.347 131.022 -45.624 Q138.017 -40.44 142.65 -32.842 Q147.283 -25.245 147.283 -16.277 H130.538 Q129.669 -8.388 124.304 -2.949 Q118.941 2.49 111.3 2.49 Z M111.3 -4.692 Q115.802 -4.692 119.002 -8.046 Q122.203 -11.402 123.655 -16.277 H99.032 Q100.075 -11.402 103.294 -8.046 Q106.512 -4.692 111.3 -4.692 Z"/></g><g id="Ultralight-L" transform="matrix(1 0 0 1 491.205 1556)"><path d="M15.319 23.465  41.119 -40.067 V-57.321 H11.933 L33.218 -93.925 H54.503 L75.788 -57.321 H46.44 V-40.067 L72.401 23.465 H66.435 L46.601 -24.749 V23.465 H41.119 V-24.426 L21.285 23.465 H15.319 Z M110.779 1.858 Q103.039 1.858 97.959 -3.544 Q92.88 -8.946 92.558 -16.686 H76.433 Q76.433 -25.232 80.786 -32.65 Q85.14 -40.067 92.396 -45.066 Q93.041 -51.516 97.153 -56.676 Q101.265 -61.836 108.038 -62.32 V-93.925 H113.681 V-62.481 Q120.131 -61.997 124.404 -56.837 Q128.678 -51.677 129.645 -45.066 Q136.417 -40.067 141.013 -32.731 Q145.609 -25.394 145.609 -16.686 H129.161 Q128.516 -8.946 123.356 -3.544 Q118.196 1.858 110.779 1.858 Z M110.779 -3.947 Q115.616 -3.947 119.002 -7.656 Q122.389 -11.365 123.84 -16.686 H97.879 Q98.846 -11.365 102.233 -7.656 Q105.619 -3.947 110.779 -3.947 Z"/></g><g id="Bold-M" transform="matrix(1 0 0 1 2281.8 1126)"><path d="M-3.5 20.52  23.5 -47.98 V-47.855 H-5.125 L19 -90.98 H43.5 L67.625 -47.855 H38.875 V-47.98 L65.75 20.52 H49 L39 -5.105 V20.52 H23.375 V-5.105 L13.375 20.52 H-3.5 Z M91 -0.48 Q83 -0.48 77.125 -5.917 Q71.25 -11.355 70 -19.48 H56.875 Q56.875 -27.23 60.375 -34.23 Q63.875 -41.23 70.25 -45.855 Q70.875 -51.48 74.062 -56.042 Q77.25 -60.605 82.5 -62.855 V-90.98 H99.375 V-62.98 Q104.625 -60.855 107.812 -56.167 Q111 -51.48 111.625 -45.855 Q118 -41.23 121.5 -34.23 Q125 -27.23 125 -19.48 H111.75 Q110.625 -11.355 104.812 -5.917 Q99 -0.48 91 -0.48 Z M91 -14.98 Q93 -14.98 94.625 -16.167 Q96.25 -17.355 96.75 -19.48 H85.125 Q85.625 -17.355 87.25 -16.167 Q88.875 -14.98 91 -14.98 Z"/></g><g id="Semibold-M" transform="matrix(1 0 0 1 1985.97 1126)"><path d="M-1.761 19.759  24.098 -45.697 V-48.725 H-3.821 L19.544 -90.219 H43.12 L66.484 -48.725 H38.44 V-45.697 L64.229 19.759 H48.62 L38.511 -5.975 V19.759 H23.973 V-5.866 L13.919 19.759 H-1.761 Z M89.968 -1.35 Q82.294 -1.35 76.718 -6.542 Q71.141 -11.735 70 -19.48 H56.549 Q56.549 -27.23 60.021 -34.176 Q63.495 -41.121 69.815 -45.746 Q70.44 -51.317 73.709 -55.797 Q76.979 -60.279 82.229 -62.311 V-90.219 H97.528 V-62.436 Q102.778 -60.475 106.074 -55.922 Q109.37 -51.371 109.995 -45.746 Q116.315 -41.121 119.815 -34.176 Q123.315 -27.23 123.315 -19.48 H109.739 Q108.669 -11.735 103.127 -6.542 Q97.588 -1.35 89.968 -1.35 Z M89.968 -15.306 Q91.859 -15.306 93.375 -16.412 Q94.891 -17.517 95.446 -19.48 H84.364 Q84.919 -17.517 86.463 -16.412 Q88.005 -15.306 89.968 -15.306 Z"/></g><g id="Medium-M" transform="matrix(1 0 0 1 1689.91 1126)"><path d="M-0.456 19.189  24.546 -43.985 V-49.376 H-2.842 L19.951 -89.649 H42.834 L65.627 -49.376 H38.114 V-43.985 L63.087 19.189 H48.334 L38.144 -6.626 V19.189 H24.421 V-6.436 L14.326 19.189 H-0.456 Z M89.192 -2.001 Q81.764 -2.001 76.411 -7.011 Q71.06 -12.021 70 -19.48 H56.304 Q56.304 -27.23 59.756 -34.135 Q63.209 -41.04 69.489 -45.665 Q70.114 -51.195 73.444 -55.615 Q76.775 -60.034 82.025 -61.904 V-89.649 H96.141 V-62.029 Q101.391 -60.189 104.769 -55.74 Q108.146 -51.29 108.771 -45.665 Q115.051 -41.04 118.551 -34.135 Q122.051 -27.23 122.051 -19.48 H108.231 Q107.201 -12.021 101.864 -7.011 Q96.528 -2.001 89.192 -2.001 Z M89.192 -15.551 Q91.002 -15.551 92.438 -16.595 Q93.873 -17.64 94.468 -19.48 H83.794 Q84.389 -17.64 85.871 -16.595 Q87.354 -15.551 89.192 -15.551 Z"/></g><g id="Regular-M" transform="matrix(1 0 0 1 1394.06 1126)"><path d="M0.5 18.77  24.875 -42.73 V-49.855 H-2.125 L20.25 -89.23 H42.625 L65 -49.855 H37.875 V-42.73 L62.25 18.77 H48.125 L37.875 -7.105 V18.77 H24.75 V-6.855 L14.625 18.77 H0.5 Z M88.625 -2.48 Q81.375 -2.48 76.188 -7.355 Q71 -12.23 70 -19.48 H56.125 Q56.125 -27.23 59.562 -34.105 Q63 -40.98 69.25 -45.605 Q69.875 -51.105 73.25 -55.48 Q76.625 -59.855 81.875 -61.605 V-89.23 H95.125 V-61.73 Q100.375 -59.98 103.812 -55.605 Q107.25 -51.23 107.875 -45.605 Q114.125 -40.98 117.625 -34.105 Q121.125 -27.23 121.125 -19.48 H107.125 Q106.125 -12.23 100.938 -7.355 Q95.75 -2.48 88.625 -2.48 Z M88.625 -15.73 Q90.375 -15.73 91.75 -16.73 Q93.125 -17.73 93.75 -19.48 H83.375 Q84 -17.73 85.438 -16.73 Q86.875 -15.73 88.625 -15.73 Z"/></g><g id="Light-M" transform="matrix(1 0 0 1 1098.18 1126)"><path d="M3.096 16.27  26.51 -42.537 V-50.529 H0.807 L21.5 -86.73 H42.193 L62.885 -50.529 H37.01 V-42.537 L60.519 16.27 H49.086 L37.057 -13.596 V16.27 H26.433 V-13.346 L14.529 16.27 H3.096 Z M88.144 -3.441 Q81.279 -3.441 76.573 -8.22 Q71.865 -12.999 71.203 -19.912 H57.375 Q57.375 -27.326 60.812 -33.84 Q64.25 -40.355 70.26 -44.74 Q70.836 -50.144 74.164 -54.446 Q77.49 -58.749 82.692 -60.066 V-86.73 H93.442 V-60.191 Q98.644 -58.874 102.058 -54.571 Q105.471 -50.269 106.096 -44.74 Q112.058 -40.355 115.558 -33.84 Q119.058 -27.326 119.058 -19.912 H105.058 Q104.346 -12.999 99.615 -8.22 Q94.885 -3.441 88.144 -3.441 Z M88.144 -14.24 Q90.471 -14.24 92.159 -15.84 Q93.846 -17.441 94.471 -19.912 H81.836 Q82.365 -17.441 84.091 -15.84 Q85.817 -14.24 88.144 -14.24 Z"/></g><g id="Thin-M" transform="matrix(1 0 0 1 802.565 1126)"><path d="M5.692 13.77  28.144 -42.345 V-51.201 H3.74 L22.75 -84.23 H41.76 L60.769 -51.201 H36.144 V-42.345 L58.789 13.77 H50.047 L36.24 -20.086 V13.77 H28.115 V-19.836 L14.432 13.77 H5.692 Z M87.664 -4.402 Q81.183 -4.402 76.956 -9.086 Q72.731 -13.769 72.404 -20.345 H58.625 Q58.625 -27.422 62.062 -33.576 Q65.5 -39.73 71.269 -43.874 Q71.797 -49.182 75.078 -53.412 Q78.356 -57.644 83.51 -58.527 V-84.23 H91.76 V-58.652 Q96.914 -57.769 100.302 -53.537 Q103.692 -49.307 104.317 -43.874 Q109.99 -39.73 113.49 -33.576 Q116.99 -27.422 116.99 -20.345 H102.99 Q102.567 -13.769 98.294 -9.086 Q94.019 -4.402 87.664 -4.402 Z M87.664 -12.749 Q90.567 -12.749 92.567 -14.951 Q94.567 -17.152 95.192 -20.345 H80.297 Q80.731 -17.152 82.745 -14.951 Q84.76 -12.749 87.664 -12.749 Z"/></g><g id="Ultralight-M" transform="matrix(1 0 0 1 506.415 1126)"><path d="M7.25 12.27  29.125 -42.23 V-51.605 H5.5 L23.5 -82.73 H41.5 L59.5 -51.605 H35.625 V-42.23 L57.75 12.27 H50.625 L35.75 -23.98 V12.27 H29.125 V-23.73 L14.375 12.27 H7.25 Z M87.375 -4.98 Q81.125 -4.98 77.188 -9.605 Q73.25 -14.23 73.125 -20.605 H59.375 Q59.375 -27.48 62.812 -33.417 Q66.25 -39.355 71.875 -43.355 Q72.375 -48.605 75.625 -52.792 Q78.875 -56.98 84 -57.605 V-82.73 H90.75 V-57.73 Q95.875 -57.105 99.25 -52.917 Q102.625 -48.73 103.25 -43.355 Q108.75 -39.355 112.25 -33.417 Q115.75 -27.48 115.75 -20.605 H101.75 Q101.5 -14.23 97.5 -9.605 Q93.5 -4.98 87.375 -4.98 Z M87.375 -11.855 Q90.625 -11.855 92.812 -14.417 Q95 -16.98 95.625 -20.605 H79.375 Q79.75 -16.98 81.938 -14.417 Q84.125 -11.855 87.375 -11.855 Z"/></g><g id="Bold-S" transform="matrix(1 0 0 1 2294.23 696)"><path d="M-0.789 7.179  19.725 -45.191 V-42.824 H-3.255 L14.202 -77.639 H36.689 L54.145 -42.824 H30.968 V-45.191 L51.581 7.179 H39.253 L31.166 -13.532 V7.179 H19.626 V-13.532 L11.539 7.179 H-0.789 Z M73.377 -11.363 Q67.854 -11.363 64.156 -15.406 Q60.457 -19.45 60.358 -25.17 H48.819 Q48.819 -30.693 51.334 -35.674 Q53.849 -40.654 58.386 -44.008 Q58.781 -48.051 61.049 -51.404 Q63.317 -54.758 67.065 -56.336 V-77.639 H79.59 V-56.434 Q83.338 -54.955 85.557 -51.503 Q87.776 -48.051 88.269 -44.008 Q92.806 -40.753 95.321 -35.772 Q97.836 -30.792 97.836 -25.17 H86.198 Q86.198 -19.45 82.549 -15.406 Q78.9 -11.363 73.377 -11.363 Z M73.377 -22.014 Q74.462 -22.014 75.202 -22.902 Q75.941 -23.789 75.645 -25.17 H71.01 Q70.714 -23.789 71.454 -22.902 Q72.194 -22.014 73.377 -22.014 Z"/></g><g id="Semibold-S" transform="matrix(1 0 0 1 1998.1 696)"><path d="M0.583 6.578  20.196 -43.39 V-43.511 H-2.226 L14.631 -77.038 H36.389 L53.245 -43.511 H30.625 V-43.39 L50.381 6.578 H38.953 L30.78 -14.219 V6.578 H20.098 V-14.133 L11.968 6.578 H0.583 Z M72.562 -12.049 Q67.297 -12.049 63.834 -15.899 Q60.371 -19.75 60.358 -25.17 H48.562 Q48.562 -30.693 51.055 -35.631 Q53.549 -40.569 58.043 -43.922 Q58.437 -47.923 60.77 -51.211 Q63.103 -54.5 66.851 -55.907 V-77.038 H78.133 V-56.005 Q81.88 -54.655 84.185 -51.31 Q86.49 -47.965 86.983 -43.922 Q91.477 -40.667 93.992 -35.73 Q96.507 -30.792 96.507 -25.17 H84.611 Q84.655 -19.75 81.22 -15.899 Q77.786 -12.049 72.562 -12.049 Z M72.562 -22.272 Q73.561 -22.272 74.215 -23.095 Q74.869 -23.918 74.617 -25.17 H70.409 Q70.157 -23.918 70.832 -23.095 Q71.507 -22.272 72.562 -22.272 Z"/></g><g id="Medium-S" transform="matrix(1 0 0 1 1701.85 696)"><path d="M1.613 6.128  20.55 -42.039 V-44.024 H-1.454 L14.953 -76.588 H36.163 L52.569 -44.024 H30.368 V-42.039 L49.48 6.128 H38.727 L30.49 -14.733 V6.128 H20.452 V-14.583 L12.29 6.128 H1.613 Z M71.951 -12.563 Q66.879 -12.563 63.592 -16.269 Q60.307 -19.976 60.358 -25.17 H48.369 Q48.369 -30.693 50.846 -35.599 Q53.324 -40.504 57.785 -43.858 Q58.18 -47.826 60.561 -51.067 Q62.942 -54.307 66.69 -55.585 V-76.588 H77.039 V-55.684 Q80.787 -54.429 83.156 -51.166 Q85.525 -47.901 86.018 -43.858 Q90.48 -40.603 92.994 -35.697 Q95.509 -30.792 95.509 -25.17 H83.422 Q83.497 -19.976 80.223 -16.269 Q76.949 -12.563 71.951 -12.563 Z M71.951 -22.465 Q72.886 -22.465 73.476 -23.239 Q74.065 -24.014 73.844 -25.17 H69.96 Q69.739 -24.014 70.366 -23.239 Q70.993 -22.465 71.951 -22.465 Z"/></g><g id="Regular-S" transform="matrix(1 0 0 1 1405.73 696)"><path d="M2.367 5.798  20.81 -41.049 V-44.402 H-0.888 L15.188 -76.258 H35.998 L52.074 -44.402 H30.179 V-41.049 L48.819 5.798 H38.562 L30.278 -15.11 V5.798 H20.711 V-14.913 L12.525 5.798 H2.367 Z M71.503 -12.941 Q66.572 -12.941 63.416 -16.541 Q60.26 -20.14 60.358 -25.17 H48.228 Q48.228 -30.693 50.693 -35.575 Q53.159 -40.457 57.597 -43.81 Q57.992 -47.755 60.408 -50.961 Q62.824 -54.166 66.572 -55.349 V-76.258 H76.237 V-55.448 Q79.985 -54.265 82.401 -51.059 Q84.818 -47.854 85.311 -43.81 Q89.749 -40.556 92.264 -35.674 Q94.779 -30.792 94.779 -25.17 H82.549 Q82.648 -20.14 79.492 -16.541 Q76.336 -12.941 71.503 -12.941 Z M71.503 -22.606 Q72.391 -22.606 72.933 -23.346 Q73.476 -24.085 73.278 -25.17 H69.629 Q69.432 -24.085 70.024 -23.346 Q70.615 -22.606 71.503 -22.606 Z"/></g><g id="Light-S" transform="matrix(1 0 0 1 1109.75 696)"><path d="M4.415 3.826  22.1 -40.897 V-44.934 H1.426 L16.175 -74.285 H35.657 L50.405 -44.934 H29.497 V-40.897 L47.453 3.826 H39.321 L29.633 -20.232 V3.826 H22.039 V-20.035 L12.449 3.826 H4.415 Z M71.123 -13.699 Q66.496 -13.699 63.72 -17.223 Q60.942 -20.747 61.307 -25.511 H49.214 Q49.214 -30.769 51.68 -35.366 Q54.145 -39.964 58.394 -43.128 Q58.75 -46.997 61.129 -50.145 Q63.507 -53.293 67.217 -54.135 V-74.285 H74.91 V-54.234 Q78.619 -53.392 81.016 -50.244 Q83.414 -47.096 83.907 -43.128 Q88.117 -40.063 90.632 -35.465 Q93.147 -30.868 93.147 -25.511 H80.918 Q81.244 -20.747 78.448 -17.223 Q75.653 -13.699 71.123 -13.699 Z M71.123 -21.43 Q72.467 -21.43 73.256 -22.643 Q74.045 -23.858 73.847 -25.511 H68.415 Q68.142 -23.858 68.962 -22.643 Q69.781 -21.43 71.123 -21.43 Z"/></g><g id="Thin-S" transform="matrix(1 0 0 1 814.015 696)"><path d="M6.464 1.853  23.389 -40.745 V-45.464 H3.74 L17.161 -72.313 H35.316 L48.736 -45.464 H28.813 V-40.745 L46.088 1.853 H40.079 L28.988 -25.353 V1.853 H23.366 V-25.155 L12.373 1.853 H6.464 Z M70.745 -14.458 Q66.42 -14.458 64.022 -17.907 Q61.626 -21.354 62.255 -25.853 H50.2 Q50.2 -30.845 52.666 -35.158 Q55.131 -39.471 59.19 -42.444 Q59.508 -46.239 61.85 -49.329 Q64.19 -52.421 67.862 -52.921 V-72.313 H73.582 V-53.02 Q77.254 -52.52 79.632 -49.428 Q82.011 -46.337 82.504 -42.444 Q86.486 -39.569 89.001 -35.257 Q91.516 -30.944 91.516 -25.853 H79.287 Q79.841 -21.354 77.406 -17.907 Q74.97 -14.458 70.745 -14.458 Z M70.745 -20.254 Q72.543 -20.254 73.578 -21.942 Q74.614 -23.63 74.417 -25.853 H67.201 Q66.853 -23.63 67.899 -21.942 Q68.947 -20.254 70.745 -20.254 Z"/></g><g id="Ultralight-S" transform="matrix(1 0 0 1 517.792 696)"><path d="M7.693 0.67  24.163 -40.654 V-45.783 H5.128 L17.753 -71.129 H35.111 L47.735 -45.783 H28.404 V-40.654 L45.269 0.67 H40.535 L28.601 -28.425 V0.67 H24.163 V-28.228 L12.328 0.67 H7.693 Z M70.517 -14.913 Q66.375 -14.913 64.205 -18.316 Q62.035 -21.718 62.824 -26.058 H50.792 Q50.792 -30.89 53.258 -35.033 Q55.723 -39.175 59.668 -42.035 Q59.964 -45.783 62.282 -48.84 Q64.599 -51.898 68.249 -52.193 V-71.129 H72.785 V-52.292 Q76.434 -51.996 78.801 -48.939 Q81.168 -45.881 81.662 -42.035 Q85.508 -39.274 88.023 -35.131 Q90.538 -30.989 90.538 -26.058 H78.308 Q78.999 -21.718 76.78 -18.316 Q74.561 -14.913 70.517 -14.913 Z M70.517 -19.549 Q72.588 -19.549 73.772 -21.521 Q74.955 -23.494 74.758 -26.058 H66.473 Q66.079 -23.494 67.262 -21.521 Q68.446 -19.549 70.517 -19.549 Z"/></g></g></svg>