<svg xmlns="http://www.w3.org/2000/svg" version="1.1" width="3300" height="2000"><g id="Notes"><style>
    text {
      font-family: monospace;
      text-anchor: middle;
    }
    text.emphasis {
      font-weight:bold;
    }
    text.lanchor {
      text-anchor: start;
    }
  </style><rect height="2200" id="artboard" fill="white" width="3300" x="0" y="0"/><line id="" style="fill:none;stroke:black;stroke-width:0.5;" x1="263" x2="3036" y1="292" y2="292"/><text class="lanchor emphasis" transform="matrix(1 0 0 1 263 322)">Weight/Scale Variations</text><text transform="matrix(1 0 0 1 559.711 322)">Ultralight</text><text transform="matrix(1 0 0 1 856.422 322)">Thin</text><text transform="matrix(1 0 0 1 1153.13 322)">Light</text><text transform="matrix(1 0 0 1 1449.84 322)">Regular</text><text transform="matrix(1 0 0 1 1746.56 322)">Medium</text><text transform="matrix(1 0 0 1 2043.27 322)">Semibold</text><text transform="matrix(1 0 0 1 2339.98 322)">Bold</text><text transform="matrix(1 0 0 1 2636.69 322)">Heavy</text><text transform="matrix(1 0 0 1 2933.4 322)">Black</text><text id="template-version" style="text-anchor: end;" transform="matrix(1 0 0 1 3036 1933)">Template v.1.0</text><text class="lanchor" transform="matrix(1 0 0 1 263 726)">Small</text><text class="lanchor" transform="matrix(1 0 0 1 263 1156)">Medium</text><text class="lanchor" transform="matrix(1 0 0 1 263 1586)">Large</text></g><g id="Guides"><g id="H-reference" style="fill:#27AAE1;stroke:none;" transform="matrix(1 0 0 1 339 696)"><path d="M 54.9316 0 L 57.666 0 L 30.5664 -70.459 L 28.0762 -70.459 L 0.976562 0 L 3.66211 0 L 12.9395 -24.4629 L 45.7031 -24.4629 Z M 29.1992 -67.0898 L 29.4434 -67.0898 L 44.8242 -26.709 L 13.8184 -26.709 Z"/></g><line id="Baseline-S" style="fill:none;stroke:#27AAE1;opacity:1;stroke-width:0.577;" x1="263" x2="3036" y1="696" y2="696"/><line id="Capline-S" style="fill:none;stroke:#27AAE1;opacity:1;stroke-width:0.577;" x1="263" x2="3036" y1="625.541" y2="625.541"/><g id="H-reference" style="fill:#27AAE1;stroke:none;" transform="matrix(1 0 0 1 339 1126)"><path d="M 54.9316 0 L 57.666 0 L 30.5664 -70.459 L 28.0762 -70.459 L 0.976562 0 L 3.66211 0 L 12.9395 -24.4629 L 45.7031 -24.4629 Z M 29.1992 -67.0898 L 29.4434 -67.0898 L 44.8242 -26.709 L 13.8184 -26.709 Z"/></g><line id="Baseline-M" style="fill:none;stroke:#27AAE1;opacity:1;stroke-width:0.577;" x1="263" x2="3036" y1="1126" y2="1126"/><line id="Capline-M" style="fill:none;stroke:#27AAE1;opacity:1;stroke-width:0.577;" x1="263" x2="3036" y1="1055.54" y2="1055.54"/><g id="H-reference" style="fill:#27AAE1;stroke:none;" transform="matrix(1 0 0 1 339 1556)"><path d="M 54.9316 0 L 57.666 0 L 30.5664 -70.459 L 28.0762 -70.459 L 0.976562 0 L 3.66211 0 L 12.9395 -24.4629 L 45.7031 -24.4629 Z M 29.1992 -67.0898 L 29.4434 -67.0898 L 44.8242 -26.709 L 13.8184 -26.709 Z"/></g><line id="Baseline-L" style="fill:none;stroke:#27AAE1;opacity:1;stroke-width:0.577;" x1="263" x2="3036" y1="1556" y2="1556"/><line id="Capline-L" style="fill:none;stroke:#27AAE1;opacity:1;stroke-width:0.577;" x1="263" x2="3036" y1="1485.54" y2="1485.54"/><rect height="119.336" id="left-margin" style="fill:darkred;stroke:none;opacity:0.4;" width="12.4512" x="1394.06" y="1030.79"/><rect height="119.336" id="right-margin" style="fill:darkgreen;stroke:none;opacity:0.4;" width="12.4512" x="1502.5112" y="1030.79"/><rect x="1406.5112" y="1045" width="96" height="96" fill="none" stroke="blue" stroke-dasharray="5"/><rect x="1394.06" y="1030.79" width="120.9024" height="119.336" fill="none" stroke="blue"/></g><g id="Symbols"><g id="Bold-L" transform="matrix(1 0 0 1 2266 1556)"><path d="M8.869 1.051 V-71.672 H146.093 V1.051 H8.869 Z M24.026 -14.267 H130.774 V-56.354 H24.026 V-14.267 Z"/></g><g id="Semibold-L" transform="matrix(1 0 0 1 1970.27 1556)"><path d="M10.622 -0.702 V-69.85 H144.27 V-0.702 H10.622 Z M23.396 -13.566 H131.404 V-56.984 H23.396 V-13.566 Z"/></g><g id="Medium-L" transform="matrix(1 0 0 1 1674.31 1556)"><path d="M11.936 -2.016 V-68.483 H142.903 V-2.016 H11.936 Z M22.922 -13.04 H131.878 V-57.458 H22.922 V-13.04 Z"/></g><g id="Regular-L" transform="matrix(1 0 0 1 1378.56 1556)"><path d="M12.9 -2.98 V-67.48 H141.9 V-2.98 H12.9 Z M22.575 -12.655 H132.225 V-57.805 H22.575 V-12.655 Z"/></g><g id="Light-L" transform="matrix(1 0 0 1 1082.77 1556)"><path d="M16.125 -6.205 V-64.255 H138.675 V-6.205 H16.125 Z M23.444 -13.524 H131.356 V-56.936 H23.444 V-13.524 Z"/></g><g id="Thin-L" transform="matrix(1 0 0 1 787.282 1556)"><path d="M19.35 -9.43 V-61.03 H135.45 V-9.43 H19.35 Z M24.312 -14.392 H130.488 V-56.068 H24.312 V-14.392 Z"/></g><g id="Ultralight-L" transform="matrix(1 0 0 1 491.205 1556)"><path d="M21.285 -11.365 V-59.095 H133.515 V-11.365 H21.285 Z M24.832 -14.912 H129.968 V-55.547 H24.832 V-14.912 Z"/></g><g id="Bold-M" transform="matrix(1 0 0 1 2281.8 1126)"><path d="M5.75 -6.105 V-64.48 H114.25 V-6.105 H5.75 Z M21.5 -21.855 H98.5 V-48.73 H21.5 V-21.855 Z"/></g><g id="Semibold-M" transform="matrix(1 0 0 1 1985.97 1126)"><path d="M7.598 -7.899 V-62.632 H112.403 V-7.899 H7.598 Z M20.848 -21.149 H99.153 V-49.382 H20.848 V-21.149 Z"/></g><g id="Medium-M" transform="matrix(1 0 0 1 1689.91 1126)"><path d="M8.984 -9.244 V-61.246 H111.016 V-9.244 H8.984 Z M20.359 -20.619 H99.641 V-49.871 H20.359 V-20.619 Z"/></g><g id="Regular-M" transform="matrix(1 0 0 1 1394.06 1126)"><path d="M10 -10.23 V-60.23 H110 V-10.23 H10 Z M20 -20.23 H100 V-50.23 H20 V-20.23 Z"/></g><g id="Light-M" transform="matrix(1 0 0 1 1098.18 1126)"><path d="M12.5 -12.73 V-57.73 H107.5 V-12.73 H12.5 Z M20 -20.23 H100 V-50.23 H20 V-20.23 Z"/></g><g id="Thin-M" transform="matrix(1 0 0 1 802.565 1126)"><path d="M15 -15.23 V-55.23 H105 V-15.23 H15 Z M20 -20.23 H100 V-50.23 H20 V-20.23 Z"/></g><g id="Ultralight-M" transform="matrix(1 0 0 1 506.415 1126)"><path d="M16.5 -16.73 V-53.73 H103.5 V-16.73 H16.5 Z M20 -20.23 H100 V-50.23 H20 V-20.23 Z"/></g><g id="Bold-S" transform="matrix(1 0 0 1 2294.23 696)"><path d="M6.115 -13.039 V-57.519 H88.565 V-13.039 H6.115 Z M17.753 -24.677 H76.928 V-45.881 H17.753 V-24.677 Z"/></g><g id="Semibold-S" transform="matrix(1 0 0 1 1998.1 696)"><path d="M7.572 -14.455 V-56.062 H87.108 V-14.455 H7.572 Z M17.238 -24.12 H77.442 V-46.396 H17.238 V-24.12 Z"/></g><g id="Medium-S" transform="matrix(1 0 0 1 1701.85 696)"><path d="M8.666 -15.516 V-54.968 H86.014 V-15.516 H8.666 Z M16.852 -23.702 H77.828 V-46.782 H16.852 V-23.702 Z"/></g><g id="Regular-S" transform="matrix(1 0 0 1 1405.73 696)"><path d="M9.468 -16.294 V-54.166 H85.212 V-16.294 H9.468 Z M16.569 -23.395 H78.111 V-47.065 H16.569 V-23.395 Z"/></g><g id="Light-S" transform="matrix(1 0 0 1 1109.75 696)"><path d="M11.441 -18.266 V-52.193 H83.24 V-18.266 H11.441 Z M16.569 -23.395 H78.111 V-47.065 H16.569 V-23.395 Z"/></g><g id="Thin-S" transform="matrix(1 0 0 1 814.015 696)"><path d="M13.413 -20.239 V-50.221 H81.267 V-20.239 H13.413 Z M16.569 -23.395 H78.111 V-47.065 H16.569 V-23.395 Z"/></g><g id="Ultralight-S" transform="matrix(1 0 0 1 517.792 696)"><path d="M14.597 -21.422 V-49.037 H80.084 V-21.422 H14.597 Z M16.569 -23.395 H78.111 V-47.065 H16.569 V-23.395 Z"/></g></g></svg>