<svg xmlns="http://www.w3.org/2000/svg" version="1.1" width="3300" height="2000"><g id="Notes"><style>
    text {
      font-family: monospace;
      text-anchor: middle;
    }
    text.emphasis {
      font-weight:bold;
    }
    text.lanchor {
      text-anchor: start;
    }
  </style><rect height="2200" id="artboard" fill="white" width="3300" x="0" y="0"/><line id="" style="fill:none;stroke:black;stroke-width:0.5;" x1="263" x2="3036" y1="292" y2="292"/><text class="lanchor emphasis" transform="matrix(1 0 0 1 263 322)">Weight/Scale Variations</text><text transform="matrix(1 0 0 1 559.711 322)">Ultralight</text><text transform="matrix(1 0 0 1 856.422 322)">Thin</text><text transform="matrix(1 0 0 1 1153.13 322)">Light</text><text transform="matrix(1 0 0 1 1449.84 322)">Regular</text><text transform="matrix(1 0 0 1 1746.56 322)">Medium</text><text transform="matrix(1 0 0 1 2043.27 322)">Semibold</text><text transform="matrix(1 0 0 1 2339.98 322)">Bold</text><text transform="matrix(1 0 0 1 2636.69 322)">Heavy</text><text transform="matrix(1 0 0 1 2933.4 322)">Black</text><text id="template-version" style="text-anchor: end;" transform="matrix(1 0 0 1 3036 1933)">Template v.1.0</text><text class="lanchor" transform="matrix(1 0 0 1 263 726)">Small</text><text class="lanchor" transform="matrix(1 0 0 1 263 1156)">Medium</text><text class="lanchor" transform="matrix(1 0 0 1 263 1586)">Large</text></g><g id="Guides"><g id="H-reference" style="fill:#27AAE1;stroke:none;" transform="matrix(1 0 0 1 339 696)"><path d="M 54.9316 0 L 57.666 0 L 30.5664 -70.459 L 28.0762 -70.459 L 0.976562 0 L 3.66211 0 L 12.9395 -24.4629 L 45.7031 -24.4629 Z M 29.1992 -67.0898 L 29.4434 -67.0898 L 44.8242 -26.709 L 13.8184 -26.709 Z"/></g><line id="Baseline-S" style="fill:none;stroke:#27AAE1;opacity:1;stroke-width:0.577;" x1="263" x2="3036" y1="696" y2="696"/><line id="Capline-S" style="fill:none;stroke:#27AAE1;opacity:1;stroke-width:0.577;" x1="263" x2="3036" y1="625.541" y2="625.541"/><g id="H-reference" style="fill:#27AAE1;stroke:none;" transform="matrix(1 0 0 1 339 1126)"><path d="M 54.9316 0 L 57.666 0 L 30.5664 -70.459 L 28.0762 -70.459 L 0.976562 0 L 3.66211 0 L 12.9395 -24.4629 L 45.7031 -24.4629 Z M 29.1992 -67.0898 L 29.4434 -67.0898 L 44.8242 -26.709 L 13.8184 -26.709 Z"/></g><line id="Baseline-M" style="fill:none;stroke:#27AAE1;opacity:1;stroke-width:0.577;" x1="263" x2="3036" y1="1126" y2="1126"/><line id="Capline-M" style="fill:none;stroke:#27AAE1;opacity:1;stroke-width:0.577;" x1="263" x2="3036" y1="1055.54" y2="1055.54"/><g id="H-reference" style="fill:#27AAE1;stroke:none;" transform="matrix(1 0 0 1 339 1556)"><path d="M 54.9316 0 L 57.666 0 L 30.5664 -70.459 L 28.0762 -70.459 L 0.976562 0 L 3.66211 0 L 12.9395 -24.4629 L 45.7031 -24.4629 Z M 29.1992 -67.0898 L 29.4434 -67.0898 L 44.8242 -26.709 L 13.8184 -26.709 Z"/></g><line id="Baseline-L" style="fill:none;stroke:#27AAE1;opacity:1;stroke-width:0.577;" x1="263" x2="3036" y1="1556" y2="1556"/><line id="Capline-L" style="fill:none;stroke:#27AAE1;opacity:1;stroke-width:0.577;" x1="263" x2="3036" y1="1485.54" y2="1485.54"/><rect height="119.336" id="left-margin" style="fill:darkred;stroke:none;opacity:0.4;" width="12.4512" x="1394.06" y="1030.79"/><rect height="119.336" id="right-margin" style="fill:darkgreen;stroke:none;opacity:0.4;" width="12.4512" x="1502.5112" y="1030.79"/><rect x="1406.5112" y="1045" width="96" height="96" fill="none" stroke="blue" stroke-dasharray="5"/><rect x="1394.06" y="1030.79" width="120.9024" height="119.336" fill="none" stroke="blue"/></g><g id="Symbols"><g id="Bold-L" transform="matrix(1 0 0 1 2266 1556)"><path d="M17.738 20.401 Q14.775 20.401 12.627 18.279 Q10.481 16.157 10.481 13.119 Q10.481 10.081 12.627 7.904 Q14.775 5.728 17.738 5.728 H137.062 Q140.094 5.728 142.287 7.933 Q144.48 10.138 144.48 13.176 Q144.48 16.215 142.287 18.308 Q140.094 20.401 137.062 20.401 H17.738 Z M29.831 -7.011 Q29.831 -27.54 43.538 -42.351 Q57.244 -57.16 77.4 -57.16 Q97.663 -57.16 111.396 -42.351 Q125.13 -27.54 125.13 -7.011 H29.831 Z"/></g><g id="Semibold-L" transform="matrix(1 0 0 1 1970.27 1556)"><path d="M17.738 19.279 Q15.027 19.279 13.069 17.333 Q11.112 15.386 11.112 12.629 Q11.112 9.872 13.069 7.869 Q15.027 5.868 17.738 5.868 H137.062 Q139.841 5.868 141.845 7.898 Q143.85 9.928 143.85 12.685 Q143.85 15.443 141.845 17.362 Q139.841 19.279 137.062 19.279 H17.738 Z M30.462 -7.642 Q30.462 -27.8 43.887 -42.164 Q57.313 -56.53 77.4 -56.53 Q97.266 -56.53 110.882 -42.164 Q124.5 -27.8 124.5 -7.642 H30.462 Z"/></g><g id="Medium-L" transform="matrix(1 0 0 1 1674.31 1556)"><path d="M17.738 18.439 Q15.216 18.439 13.401 16.623 Q11.586 14.807 11.586 12.261 Q11.586 9.714 13.401 7.843 Q15.216 5.973 17.738 5.973 H137.062 Q139.652 5.973 141.515 7.872 Q143.375 9.77 143.375 12.318 Q143.375 14.866 141.515 16.652 Q139.652 18.439 137.062 18.439 H17.738 Z M30.936 -8.116 Q30.936 -27.993 44.15 -42.025 Q57.366 -56.055 77.4 -56.055 Q96.968 -56.055 110.497 -42.025 Q124.025 -27.993 124.025 -8.116 H30.936 Z"/></g><g id="Regular-L" transform="matrix(1 0 0 1 1378.56 1556)"><path d="M17.738 17.821 Q15.354 17.821 13.643 16.102 Q11.933 14.383 11.933 11.99 Q11.933 9.598 13.643 7.824 Q15.354 6.05 17.738 6.05 H137.062 Q139.514 6.05 141.271 7.853 Q143.029 9.654 143.029 12.047 Q143.029 14.441 141.271 16.131 Q139.514 17.821 137.062 17.821 H17.738 Z M31.283 -8.462 Q31.283 -28.135 44.344 -41.922 Q57.405 -55.709 77.4 -55.709 Q96.75 -55.709 110.214 -41.922 Q123.679 -28.135 123.679 -8.462 H31.283 Z"/></g><g id="Light-L" transform="matrix(1 0 0 1 1082.77 1556)"><path d="M18.171 16.643 Q16.289 16.643 14.917 15.262 Q13.545 13.882 13.545 11.987 Q13.545 10.094 14.917 8.661 Q16.289 7.229 18.171 7.229 H136.629 Q138.578 7.229 139.997 8.693 Q141.416 10.157 141.416 12.05 Q141.416 13.945 139.997 15.293 Q138.578 16.643 136.629 16.643 H18.171 Z M34.88 -11.687 Q35.996 -28.941 47.848 -40.712 Q59.7 -52.484 77.4 -52.484 Q94.455 -52.484 106.71 -40.712 Q118.965 -28.941 120.081 -11.687 H34.88 Z"/></g><g id="Thin-L" transform="matrix(1 0 0 1 787.282 1556)"><path d="M18.605 15.464 Q17.225 15.464 16.191 14.422 Q15.158 13.379 15.158 11.984 Q15.158 10.589 16.191 9.498 Q17.225 8.407 18.605 8.407 H136.195 Q137.643 8.407 138.723 9.533 Q139.804 10.66 139.804 12.053 Q139.804 13.448 138.723 14.456 Q137.643 15.464 136.195 15.464 H18.605 Z M38.477 -14.912 Q40.709 -29.747 51.352 -39.503 Q61.994 -49.259 77.4 -49.259 Q92.161 -49.259 103.206 -39.503 Q114.252 -29.747 116.484 -14.912 H38.477 Z"/></g><g id="Ultralight-L" transform="matrix(1 0 0 1 491.205 1556)"><path d="M18.866 14.758 Q17.786 14.758 16.955 13.917 Q16.125 13.077 16.125 11.982 Q16.125 10.888 16.955 10.001 Q17.786 9.114 18.866 9.114 H135.934 Q137.083 9.114 137.959 10.038 Q138.836 10.962 138.836 12.057 Q138.836 13.151 137.959 13.954 Q137.083 14.758 135.934 14.758 H18.866 Z M40.635 -16.847 Q43.538 -30.231 53.454 -38.777 Q63.371 -47.324 77.4 -47.324 Q90.784 -47.324 101.104 -38.777 Q111.424 -30.231 114.326 -16.847 H40.635 Z"/></g><g id="Bold-M" transform="matrix(1 0 0 1 2281.8 1126)"><path d="M15 13.395 Q11.55 13.395 9.025 10.895 Q6.5 8.395 6.5 4.895 Q6.5 1.395 9.025 -1.105 Q11.55 -3.605 15 -3.605 H105 Q108.45 -3.605 110.975 -1.105 Q113.5 1.395 113.5 4.895 Q113.5 8.395 110.975 10.895 Q108.45 13.395 105 13.395 H15 Z M21.5 -11.73 Q21.5 -28.894 32.312 -41.312 Q43.125 -53.73 60 -53.73 Q76.332 -53.73 87.416 -41.312 Q98.5 -28.894 98.5 -11.73 H21.5 Z"/></g><g id="Semibold-M" transform="matrix(1 0 0 1 1985.97 1126)"><path d="M15 11.765 Q11.854 11.765 9.585 9.509 Q7.315 7.254 7.315 4.08 Q7.315 0.906 9.585 -1.35 Q11.854 -3.605 15 -3.605 H105 Q108.146 -3.605 110.415 -1.35 Q112.685 0.906 112.685 4.08 Q112.685 7.254 110.415 9.509 Q108.146 11.765 105 11.765 H15 Z M22.315 -12.545 Q22.315 -29.204 32.829 -41.059 Q43.343 -52.915 60 -52.915 Q75.861 -52.915 86.774 -41.059 Q97.685 -29.204 97.685 -12.545 H22.315 Z"/></g><g id="Medium-M" transform="matrix(1 0 0 1 1689.91 1126)"><path d="M15 10.541 Q12.082 10.541 10.005 8.47 Q7.926 6.398 7.926 3.469 Q7.926 0.539 10.005 -1.532 Q12.082 -3.605 15 -3.605 H105 Q107.918 -3.605 109.995 -1.532 Q112.074 0.539 112.074 3.469 Q112.074 6.398 109.995 8.47 Q107.918 10.541 105 10.541 H15 Z M22.926 -13.156 Q22.926 -29.435 33.216 -40.869 Q43.505 -52.304 60 -52.304 Q75.509 -52.304 86.291 -40.869 Q97.074 -29.435 97.074 -13.156 H22.926 Z"/></g><g id="Regular-M" transform="matrix(1 0 0 1 1394.06 1126)"><path d="M15 9.645 Q12.25 9.645 10.312 7.708 Q8.375 5.77 8.375 3.02 Q8.375 0.27 10.312 -1.667 Q12.25 -3.605 15 -3.605 H105 Q107.75 -3.605 109.688 -1.667 Q111.625 0.27 111.625 3.02 Q111.625 5.77 109.688 7.708 Q107.75 9.645 105 9.645 H15 Z M23.375 -13.605 Q23.375 -29.605 33.5 -40.73 Q43.625 -51.855 60 -51.855 Q75.25 -51.855 85.938 -40.73 Q96.625 -29.605 96.625 -13.605 H23.375 Z"/></g><g id="Light-M" transform="matrix(1 0 0 1 1098.18 1126)"><path d="M15 8.395 Q12.781 8.395 11.204 6.816 Q9.625 5.238 9.625 3.019 Q9.625 0.799 11.204 -0.777 Q12.781 -2.355 15 -2.355 H105 Q107.219 -2.355 108.796 -0.776 Q110.375 0.803 110.375 3.021 Q110.375 5.241 108.796 6.818 Q107.219 8.395 105 8.395 H15 Z M26.164 -16.105 Q27.029 -30.23 36.216 -39.792 Q45.404 -49.355 60 -49.355 Q73.471 -49.355 83.221 -39.792 Q92.971 -30.23 93.836 -16.105 H26.164 Z"/></g><g id="Thin-M" transform="matrix(1 0 0 1 802.565 1126)"><path d="M15 7.145 Q13.312 7.145 12.094 5.925 Q10.875 4.705 10.875 3.016 Q10.875 1.328 12.094 0.111 Q13.312 -1.105 15 -1.105 H105 Q106.688 -1.105 107.906 0.115 Q109.125 1.335 109.125 3.024 Q109.125 4.713 107.906 5.929 Q106.688 7.145 105 7.145 H15 Z M28.953 -18.605 Q30.683 -30.855 38.932 -38.855 Q47.182 -46.855 60 -46.855 Q71.692 -46.855 80.505 -38.855 Q89.317 -30.855 91.047 -18.605 H28.953 Z"/></g><g id="Ultralight-M" transform="matrix(1 0 0 1 506.415 1126)"><path d="M15 6.395 Q13.631 6.395 12.629 5.39 Q11.625 4.386 11.625 3.015 Q11.625 1.645 12.629 0.645 Q13.631 -0.355 15 -0.355 H105 Q106.369 -0.355 107.371 0.65 Q108.375 1.654 108.375 3.025 Q108.375 4.395 107.371 5.395 Q106.369 6.395 105 6.395 H15 Z M30.625 -20.105 Q32.875 -31.23 40.562 -38.292 Q48.25 -45.355 60 -45.355 Q70.625 -45.355 78.875 -38.292 Q87.125 -31.23 89.375 -20.105 H30.625 Z"/></g><g id="Bold-S" transform="matrix(1 0 0 1 2294.23 696)"><path d="M13.019 4.713 Q10.464 4.713 8.585 2.86 Q6.707 1.007 6.707 -1.578 Q6.707 -4.163 8.585 -6.037 Q10.464 -7.911 13.019 -7.911 H81.662 Q84.216 -7.911 86.095 -6.058 Q87.974 -4.205 87.974 -1.62 Q87.974 0.965 86.095 2.839 Q84.216 4.713 81.662 4.713 H13.019 Z M16.175 -13.532 Q16.175 -27.371 24.928 -37.416 Q33.682 -47.459 47.316 -47.459 Q60.522 -47.459 69.514 -37.432 Q78.505 -27.405 78.505 -13.532 H16.175 Z"/></g><g id="Semibold-S" transform="matrix(1 0 0 1 1998.1 696)"><path d="M13.019 3.427 Q10.704 3.427 9.027 1.766 Q7.35 0.106 7.35 -2.221 Q7.35 -4.549 9.027 -6.23 Q10.704 -7.911 13.019 -7.911 H81.662 Q83.976 -7.911 85.653 -6.251 Q87.33 -4.59 87.33 -2.263 Q87.33 0.065 85.653 1.745 Q83.976 3.427 81.662 3.427 H13.019 Z M16.818 -14.176 Q16.818 -27.615 25.336 -37.215 Q33.854 -46.816 47.316 -46.816 Q60.15 -46.816 69.007 -37.232 Q77.862 -27.649 77.862 -14.176 H16.818 Z"/></g><g id="Medium-S" transform="matrix(1 0 0 1 1701.85 696)"><path d="M13.019 2.462 Q10.884 2.462 9.359 0.947 Q7.832 -0.569 7.832 -2.703 Q7.832 -4.839 9.359 -6.374 Q10.884 -7.911 13.019 -7.911 H81.662 Q83.796 -7.911 85.321 -6.395 Q86.848 -4.88 86.848 -2.745 Q86.848 -0.611 85.321 0.926 Q83.796 2.462 81.662 2.462 H13.019 Z M17.3 -14.658 Q17.3 -27.798 25.642 -37.065 Q33.982 -46.334 47.316 -46.334 Q59.872 -46.334 68.626 -37.083 Q77.38 -27.831 77.38 -14.658 H17.3 Z"/></g><g id="Regular-S" transform="matrix(1 0 0 1 1405.73 696)"><path d="M13.019 1.754 Q11.016 1.754 9.601 0.345 Q8.186 -1.064 8.186 -3.058 Q8.186 -5.051 9.601 -6.481 Q11.016 -7.911 13.019 -7.911 H81.662 Q83.664 -7.911 85.079 -6.502 Q86.494 -5.092 86.494 -3.099 Q86.494 -1.106 85.079 0.324 Q83.664 1.754 81.662 1.754 H13.019 Z M17.654 -15.012 Q17.654 -27.932 25.865 -36.956 Q34.077 -45.98 47.316 -45.98 Q59.668 -45.98 68.347 -36.973 Q77.026 -27.965 77.026 -15.012 H17.654 Z"/></g><g id="Light-S" transform="matrix(1 0 0 1 1109.75 696)"><path d="M13.019 0.768 Q11.436 0.768 10.304 -0.358 Q9.172 -1.484 9.172 -3.059 Q9.172 -4.634 10.304 -5.779 Q11.436 -6.925 13.019 -6.925 H81.662 Q83.244 -6.925 84.376 -5.798 Q85.508 -4.672 85.508 -3.098 Q85.508 -1.523 84.376 -0.378 Q83.244 0.768 81.662 0.768 H13.019 Z M19.854 -16.984 Q20.537 -28.425 28.009 -36.216 Q35.48 -44.008 47.316 -44.008 Q58.265 -44.008 66.204 -36.233 Q74.143 -28.458 74.826 -16.984 H19.854 Z"/></g><g id="Thin-S" transform="matrix(1 0 0 1 814.015 696)"><path d="M13.019 -0.218 Q11.855 -0.218 11.007 -1.061 Q10.158 -1.904 10.158 -3.06 Q10.158 -4.216 11.007 -5.077 Q11.855 -5.938 13.019 -5.938 H81.662 Q82.825 -5.938 83.673 -5.095 Q84.522 -4.253 84.522 -3.096 Q84.522 -1.94 83.673 -1.079 Q82.825 -0.218 81.662 -0.218 H13.019 Z M22.055 -18.957 Q23.419 -28.918 30.152 -35.477 Q36.884 -42.035 47.316 -42.035 Q56.861 -42.035 64.061 -35.493 Q71.261 -28.952 72.625 -18.957 H22.055 Z"/></g><g id="Ultralight-S" transform="matrix(1 0 0 1 517.792 696)"><path d="M13.019 -0.81 Q12.106 -0.81 11.429 -1.482 Q10.75 -2.156 10.75 -3.06 Q10.75 -3.966 11.429 -4.656 Q12.106 -5.347 13.019 -5.347 H81.662 Q82.574 -5.347 83.252 -4.674 Q83.93 -4 83.93 -3.096 Q83.93 -2.191 83.252 -1.5 Q82.574 -0.81 81.662 -0.81 H13.019 Z M23.374 -20.14 Q25.149 -29.214 31.438 -35.033 Q37.726 -40.852 47.316 -40.852 Q56.019 -40.852 62.775 -35.05 Q69.531 -29.247 71.306 -20.14 H23.374 Z"/></g></g></svg>