<svg xmlns="http://www.w3.org/2000/svg" height="48" viewBox="0 -960 960 960" width="48"><path d="M212.08-121.15q-38.45 0-64.69-26.33-26.24-26.32-26.24-64.83v-115.15q13.35 13.27 30.95 20.4 17.59 7.14 36.17 7.14h649.81v178.77h-626Zm626-509.81q-16.08-14.69-37.45-21.46-21.37-6.77-42.51-6.77H121.54v-179.66h624.77q37.56 0 64.66 26.49 27.11 26.49 27.11 64.55v116.85ZM186.88-330.5q-27.82 0-46.77-18.02-18.96-18.02-18.96-45.98 0-30.3 15.7-49.59 15.69-19.29 37.15-28.37L576.31-629h182.04q37.05 0 58.39 24.44 21.34 24.44 21.34 54.21v.58q0 43.73-19.71 69.46-19.72 25.73-59.25 39.66L457.58-330.5h-270.7Zm105.85-403.24q6.65-6.55 6.65-14.93 0-8.37-6.55-15.46-6.55-7.1-15.36-7.1-8.82 0-15.47 6.99-6.65 7-6.65 15.37t6.55 15.02q6.55 6.66 15.36 6.66 8.82 0 15.47-6.55Zm1.77 538.9q6.65-6.18 6.65-14.79 0-8.6-6.55-15.83t-15.36-7.23q-8.82 0-15.47 7.14-6.65 7.15-6.65 15.75 0 8.61 6.55 14.88 6.55 6.27 15.36 6.27 8.82 0 15.47-6.19Zm38.44-197.58q6.79-6.18 6.79-15.23 0-9.04-6.7-15.83-6.71-6.79-15.75-6.79-9.05 0-15.32 6.7-6.27 6.71-6.27 15.75 0 9.05 6.19 15.32 6.18 6.27 15.23 6.27 9.04 0 15.83-6.19Zm162.43-341.32q7.09-6.55 7.09-14.93 0-8.37-6.99-15.46-7-7.1-15.37-7.1t-15.02 6.99q-6.66 7-6.66 15.37t6.55 15.02q6.56 6.66 14.93 6.66 8.37 0 15.47-6.55Zm0 277.8q7.09-6.55 7.09-15.36 0-8.82-6.99-15.47-7-6.65-15.37-6.65t-15.02 6.55q-6.66 6.55-6.66 15.36 0 8.82 6.55 15.47 6.56 6.66 14.93 6.66 8.37 0 15.47-6.56Zm0 261.1q7.09-6.18 7.09-14.79 0-8.6-6.99-15.83-7-7.23-15.37-7.23t-15.02 7.14q-6.66 7.15-6.66 15.75 0 8.61 6.55 14.88 6.56 6.27 14.93 6.27 8.37 0 15.47-6.19Zm152.05-319q6.66-6.18 6.66-15.23t-6.55-15.83q-6.56-6.79-15.37-6.79-8.81 0-15.47 6.7-6.65 6.7-6.65 15.75t6.55 15.32q6.55 6.27 15.36 6.27 8.82 0 15.47-6.19Zm48.04-219.9q6.66-6.55 6.66-14.93 0-8.37-6.56-15.46-6.55-7.1-15.36-7.1-8.82 0-15.47 6.99-6.65 7-6.65 15.37t6.55 15.02q6.55 6.66 15.36 6.66 8.82 0 15.47-6.55Zm0 538.9q6.66-6.18 6.66-14.79 0-8.6-6.56-15.83-6.55-7.23-15.36-7.23-8.82 0-15.47 7.14-6.65 7.15-6.65 15.75 0 8.61 6.55 14.88 6.55 6.27 15.36 6.27 8.82 0 15.47-6.19Z"/></svg>