<svg xmlns="http://www.w3.org/2000/svg" height="20" viewBox="0 -960 960 960" width="20"><path d="M204.41-86.78q-49.01 0-83.32-34.44-34.31-34.44-34.31-82.63v-81.08q10.57 12.02 26.18 16.4 15.6 4.38 30.43 4.38h729.83v177.37H204.41Zm668.81-589.79q-14.33-12.02-32.63-15.08-18.31-3.07-35.83-3.07H86.28v-178.5h669.81q49.22 0 83.17 34.31 33.96 34.31 33.96 83.32v79.02Zm-719.2 335.31q-27.46 0-47.35-15.18-19.89-15.19-19.89-41.6v-21.48q0-42.9 24-69.78 24-26.88 45.55-34.74l255.28-94.64h384.28q36.23 0 56.78 18.55 20.55 18.54 20.55 49.76v26.48q0 43.41-19.83 67.21-19.82 23.79-57.72 35.86l-218.13 79.56H154.02Zm149.77-427.55q6.25-6.31 6.25-15.25 0-8.94-6.3-15.19-6.31-6.25-15.25-6.25-8.95 0-15.2 6.31-6.25 6.3-6.25 15.25 0 8.94 6.31 15.19t15.25 6.25q8.94 0 15.19-6.31Zm0 608q6.25-6.3 6.25-15.25 0-8.94-6.3-15.19-6.31-6.25-15.25-6.25-8.95 0-15.2 6.31t-6.25 15.25q0 8.94 6.31 15.19t15.25 6.25q8.94 0 15.19-6.31Zm42.48-252.89q6.25-6.31 6.25-15.25 0-8.94-6.31-15.19-6.3-6.25-15.25-6.25-8.94 0-15.19 6.31-6.25 6.3-6.25 15.25 0 8.94 6.31 15.19t15.25 6.25q8.94 0 15.19-6.31Zm148.98-355.11q6.25-6.31 6.25-15.25 0-8.94-6.31-15.19t-15.25-6.25q-8.94 0-15.19 6.31-6.25 6.3-6.25 15.25 0 8.94 6.31 15.19t15.25 6.25q8.94 0 15.19-6.31Zm5.65 298.5q6.25-6.31 6.25-15.25 0-8.94-6.31-15.19-6.3-6.25-15.25-6.25-8.94 0-15.19 6.31t-6.25 15.25q0 8.94 6.31 15.19t15.25 6.25q8.94 0 15.19-6.31Zm-5.65 309.5q6.25-6.3 6.25-15.25 0-8.94-6.31-15.19t-15.25-6.25q-8.94 0-15.19 6.31t-6.25 15.25q0 8.94 6.31 15.19t15.25 6.25q8.94 0 15.19-6.31Zm154.63-353.41q6.25-6.31 6.25-15.25 0-8.94-6.31-15.19t-15.25-6.25q-8.94 0-15.19 6.31-6.25 6.3-6.25 15.25 0 8.94 6.31 15.19t15.25 6.25q8.94 0 15.19-6.31Zm36.83-254.59q6.25-6.31 6.25-15.25 0-8.94-6.31-15.19t-15.25-6.25q-8.94 0-15.19 6.31-6.25 6.3-6.25 15.25 0 8.94 6.3 15.19 6.31 6.25 15.25 6.25 8.95 0 15.2-6.31Zm0 608q6.25-6.3 6.25-15.25 0-8.94-6.31-15.19t-15.25-6.25q-8.94 0-15.19 6.31t-6.25 15.25q0 8.94 6.3 15.19 6.31 6.25 15.25 6.25 8.95 0 15.2-6.31Z"/></svg>