<svg xmlns="http://www.w3.org/2000/svg" height="40" viewBox="0 -960 960 960" width="40"><path d="M212.46-120q-38.36 0-65.41-27.05Q120-174.1 120-213.13V-402.1q0-25.09 15.32-44.19 15.32-19.09 38.35-27.86l362.51-140.82H120V-840h625.95q38.81 0 66.05 27.05 27.23 27.05 27.23 66.08v213.13q0 29.21-16.41 53.67-16.4 24.47-43.72 34.15L499.46-344.1h339.77V-120H212.46Zm0-33.85h592.92v-156.41H212.46q-16.49 0-32.01-4.55-15.53-4.55-26.6-16.73v118.31q0 25.44 17.07 42.41 17.08 16.97 41.54 16.97Zm592.92-474.53v-118.29q0-25.54-17.05-42.51t-42.38-16.97h-592.1v157.33h592.1q16.59 0 31.83 4.77 15.25 4.77 27.6 15.67ZM212.46-344.1h188.01l365.66-133.13q17.74-7.1 28.5-21.98 10.75-14.87 10.75-33.87v-23.13q0-24.91-17.05-41.84-17.05-16.92-42.38-16.92H629.74L185.79-442.92q-13.07 5.36-22.12 15.47-9.05 10.12-9.05 23.76v5.59q0 23.02 17.35 38.51 17.36 15.49 40.49 15.49Zm48.68-366.48q-7.09-6.93-7.09-16.75t6.94-16.91q6.93-7.09 16.75-7.09t16.91 6.93q7.09 6.94 7.09 16.76t-6.93 16.91q-6.94 7.09-16.76 7.09t-16.91-6.94Zm1.69 494.98q-7.09-6.94-7.09-16.76t6.94-16.91q6.93-7.09 16.75-7.09 9.83 0 16.92 6.94 7.09 6.93 7.09 16.75t-6.94 16.91q-6.93 7.09-16.76 7.09-9.82 0-16.91-6.93Zm38.11-180.94q-6.84-6.69-6.84-16.66 0-9.98 6.69-17.16t16.67-7.18q9.98 0 17.16 7.04 7.17 7.03 7.17 17.01t-7.03 16.81q-7.04 6.83-17.01 6.83-9.98 0-16.81-6.69Zm162.3-314.29q-7.09-7.04-7.09-17.01 0-9.98 6.94-16.81 6.93-6.84 16.75-6.84 9.83 0 16.92 6.69 7.09 6.69 7.09 16.67t-6.94 17.16q-6.93 7.17-16.75 7.17-9.83 0-16.92-7.03Zm0 256.97q-7.09-6.93-7.09-16.75 0-9.83 6.94-16.92 6.93-7.09 16.75-7.09 9.83 0 16.92 6.94 7.09 6.93 7.09 16.76 0 9.82-6.94 16.91-6.93 7.09-16.75 7.09-9.83 0-16.92-6.94Zm0 238.26q-7.09-6.94-7.09-16.76t6.94-16.91q6.93-7.09 16.75-7.09 9.83 0 16.92 6.94 7.09 6.93 7.09 16.75t-6.94 16.91q-6.93 7.09-16.75 7.09-9.83 0-16.92-6.93Zm151.9-295.76q-7.09-6.69-7.09-16.66 0-9.98 6.94-17.16 6.93-7.18 16.75-7.18t16.91 7.04q7.09 7.03 7.09 17.01t-6.93 16.81q-6.94 6.83-16.76 6.83t-16.91-6.69Zm47.74-199.47q-7.08-7.04-7.08-17.01 0-9.98 6.93-16.81 6.93-6.84 16.76-6.84 9.82 0 16.91 6.69t7.09 16.67q0 9.98-6.94 17.16-6.93 7.17-16.75 7.17-9.83 0-16.92-7.03Zm0 495.23q-7.08-6.94-7.08-16.76t6.93-16.91q6.93-7.09 16.76-7.09 9.82 0 16.91 6.94 7.09 6.93 7.09 16.75t-6.94 16.91q-6.93 7.09-16.75 7.09-9.83 0-16.92-6.93Z"/></svg>