<svg xmlns="http://www.w3.org/2000/svg" height="20" viewBox="0 -960 960 960" width="20"><path d="M188.57-56.09q-55.2 0-93.84-38.76T56.09-188v-71.39q9.13 12.69 24.12 16.98 15 4.28 28.96 4.28h794.74v182.04H188.57Zm715.34-645.82q-12.26-11.26-28.49-15.05-16.23-3.78-31.51-3.78H55.09v-183.17H772q55.71 0 93.81 38.64t38.1 93.84v69.52ZM119.43-336.7q-26.39 0-44.87-15.29-18.47-15.29-18.47-40.53V-414q0-48.09 27.74-79.44 27.74-31.34 50.91-39.65l244.11-90.08h455.76q29.56 0 49.43 19.06 19.87 19.07 19.87 52.33v34.69q0 45.09-21.82 69.2-21.83 24.11-65.26 38.11L617.31-336.7H119.43ZM293-795.61q7-7 7-17t-7-17q-7-7-16.72-7-9.71 0-17 7-7.28 7-7.28 17t7.28 17q7.29 7 17 7 9.72 0 16.72-7Zm.11 664.5q6.89-7.28 6.89-17.11 0-9.83-6.89-16.72-6.89-6.89-16.72-6.89-9.82 0-17.11 6.89-7.28 6.89-7.28 16.72 0 9.83 7.28 17.11 7.29 7.28 17.11 7.28 9.83 0 16.72-7.28Zm44.8-272.19q7-7 7-17t-7-17q-7-7-17-7t-17 7q-7 7-7 17t7 17q7 7 17 7t17-7Zm158.37-392.31q7.29-7 7.29-17t-7.29-17q-7.28-7-17-7-9.71 0-16.71 7t-7 17q0 10 7 17t16.71 7q9.72 0 17-7ZM501.94-463q7.28-7 7.28-17t-7.28-17q-7.29-7-17-7-9.72 0-16.72 7-7 7-7 17t7 17q7 7 16.72 7 9.71 0 17-7Zm-5.66 331.89q7.29-7.28 7.29-17.11 0-9.83-7.29-16.72-7.28-6.89-17.11-6.89-9.83 0-16.72 6.89-6.88 6.89-6.88 16.72 0 9.83 6.88 17.11 6.89 7.28 16.72 7.28 9.83 0 17.11-7.28ZM660.3-507.78q7-7 7-17t-7-17q-7-7-17-7t-17 7q-7 7-7 17t7 17q7 7 17 7t17-7ZM700-795.61q7-7 7-17t-7-17q-7-7-17-7t-17 7q-7 7-7 17t7 17q7 7 17 7t17-7Zm0 664.5q7-7.28 7-17 0-9.72-7-16.72-7-7-17-7t-17 7q-7 7-7 16.72 0 9.72 7 17 7 7.28 17 7.28t17-7.28Z"/></svg>