<svg xmlns="http://www.w3.org/2000/svg" height="40" viewBox="0 -960 960 960" width="40"><path d="M203.23-100q-42.84 0-73.04-30.19Q100-160.39 100-203.9v-196.15q0-27.88 17.24-49.43 17.25-21.55 43.09-31.6l337.26-131.07H100V-860h655.31q43.4 0 73.85 30.19 30.45 30.2 30.45 73.71v220.56q0 32.61-18.45 59.84-18.45 27.23-49.11 38.24l-248.49 90.41h316.05V-100H203.23Zm0-50.26h606.13V-296.8H203.23q-14.74 0-28.26-3.52-13.51-3.53-24.71-12.12v108.49q0 22.89 15.45 38.29 15.46 15.4 37.52 15.4Zm606.13-497.1V-756q0-22.94-15.61-38.34-15.61-15.4-38.44-15.4H150.26v147.33h605.05q14.79 0 28.5 3.55 13.7 3.55 25.55 11.5ZM203.23-347.05H395.9l377.66-137.23q16.21-6.39 26-19.82 9.8-13.44 9.8-30.77v-23.9q0-22.62-15.61-38-15.61-15.38-38.44-15.38H636.54L178.23-434.46q-11.54 4.84-19.56 13.82-8.03 8.97-8.03 20.79v3.8q0 20.84 15.68 34.92 15.68 14.08 36.91 14.08Zm51.76-372.32q-6.96-6.88-6.96-16.63 0-9.74 6.88-16.7 6.88-6.97 16.63-6.97 9.74 0 16.7 6.89 6.97 6.88 6.97 16.63 0 9.74-6.89 16.7-6.88 6.96-16.63 6.96-9.74 0-16.7-6.88Zm1.18 512.15q-6.96-6.88-6.96-16.63 0-9.74 6.88-16.7 6.88-6.96 16.63-6.96 9.74 0 16.7 6.88 6.96 6.88 6.96 16.63 0 9.74-6.88 16.7-6.88 6.97-16.63 6.97-9.74 0-16.7-6.89Zm39.38-187.47q-6.83-6.76-6.83-16.58 0-9.82 6.76-16.83 6.76-7 16.58-7 9.83 0 16.83 6.93 7.01 6.94 7.01 16.76t-6.94 16.65q-6.93 6.84-16.75 6.84t-16.66-6.77Zm167.82-325.14q-6.96-6.94-6.96-16.76t6.88-16.65q6.89-6.84 16.63-6.84 9.75 0 16.71 6.77 6.96 6.76 6.96 16.58 0 9.82-6.88 16.83-6.89 7-16.63 7-9.75 0-16.71-6.93Zm0 266.15q-6.96-6.88-6.96-16.63 0-9.74 6.88-16.7 6.89-6.96 16.63-6.96 9.75 0 16.71 6.88 6.96 6.88 6.96 16.63 0 9.74-6.88 16.7-6.89 6.96-16.63 6.96-9.75 0-16.71-6.88Zm0 246.46q-6.96-6.88-6.96-16.63 0-9.74 6.88-16.7 6.89-6.96 16.63-6.96 9.75 0 16.71 6.88 6.96 6.88 6.96 16.63 0 9.74-6.88 16.7-6.89 6.97-16.63 6.97-9.75 0-16.71-6.89ZM620.65-513.1q-6.96-6.76-6.96-16.58 0-9.82 6.89-16.83 6.88-7 16.62-7 9.75 0 16.71 6.93 6.96 6.94 6.96 16.76t-6.88 16.65q-6.89 6.84-16.63 6.84-9.74 0-16.71-6.77Zm49.54-206.73q-6.96-6.94-6.96-16.76t6.88-16.65q6.89-6.84 16.63-6.84 9.75 0 16.71 6.77 6.96 6.76 6.96 16.58 0 9.82-6.88 16.83-6.89 7-16.63 7-9.75 0-16.71-6.93Zm0 512.61q-6.96-6.88-6.96-16.63 0-9.74 6.88-16.7 6.89-6.96 16.63-6.96 9.75 0 16.71 6.88 6.96 6.88 6.96 16.63 0 9.74-6.88 16.7-6.89 6.97-16.63 6.97-9.75 0-16.71-6.89Z"/></svg>