<svg xmlns="http://www.w3.org/2000/svg" height="24" viewBox="0 -960 960 960" width="24"><path d="M199.38-88q-46.41 0-78.89-32.66Q88-153.31 88-199.62V-288q10.54 17.15 29.15 24.62 18.62 7.46 38.23 7.46h715.85V-88H199.38Zm671.85-585.69q-14.08-17.46-33.61-23.66-19.54-6.19-40.47-6.19H87V-872h671.85q46.82 0 79.6 32.49 32.78 32.48 32.78 78.89v86.93Zm-718.61 352q-25.39 0-45-18.23Q88-358.15 88-385.85q0-37.93 20.12-64.89 20.11-26.95 45.5-37.57l385.3-150.23h257.23q33.64 0 54.36 25.46t20.72 59.62v20q0 41.08-14.08 64.04-14.07 22.96-61.3 39.19L500.16-321.69H152.62Zm134.57-446.74q7.73-7.59 7.73-19.2 0-11.6-7.58-19.33-7.59-7.73-19.2-7.73-11.6 0-19.33 7.59-7.73 7.58-7.73 19.19 0 11.6 7.58 19.33 7.59 7.73 19.2 7.73 11.6 0 19.33-7.58Zm1.54 615.3q7.73-7.58 7.73-19.19 0-11.6-7.59-19.33-7.58-7.73-19.19-7.73-11.6 0-19.33 7.58-7.73 7.59-7.73 19.2 0 11.6 7.58 19.33 7.59 7.73 19.2 7.73 11.6 0 19.33-7.59Zm39.69-223q7.73-7.58 7.73-19.19 0-11.6-7.58-19.33-7.59-7.73-19.2-7.73-11.6 0-19.33 7.58-7.73 7.59-7.73 19.2 0 11.6 7.59 19.33 7.58 7.73 19.19 7.73 11.6 0 19.33-7.59Zm169.77-392.3q7.73-7.59 7.73-19.2 0-11.6-7.58-19.33-7.59-7.73-19.2-7.73-11.6 0-19.33 7.59-7.73 7.58-7.73 19.19 0 11.6 7.58 19.33 7.59 7.73 19.2 7.73 11.6 0 19.33-7.58Zm0 317q7.73-7.59 7.73-19.2 0-11.6-7.58-19.33-7.59-7.73-19.2-7.73-11.6 0-19.33 7.59-7.73 7.58-7.73 19.19 0 11.6 7.58 19.33 7.59 7.73 19.2 7.73 11.6 0 19.33-7.58Zm0 298.3q7.73-7.58 7.73-19.19 0-11.6-7.58-19.33-7.59-7.73-19.2-7.73-11.6 0-19.33 7.58-7.73 7.59-7.73 19.2 0 11.6 7.58 19.33 7.59 7.73 19.2 7.73 11.6 0 19.33-7.59Zm159.77-358.23q7.73-7.58 7.73-19.19 0-11.6-7.59-19.33-7.58-7.74-19.19-7.74-11.6 0-19.33 7.59-7.73 7.59-7.73 19.19 0 11.61 7.58 19.34 7.59 7.73 19.2 7.73 11.6 0 19.33-7.59Zm49.92-257.07q7.74-7.59 7.74-19.2 0-11.6-7.59-19.33-7.59-7.73-19.19-7.73-11.61 0-19.34 7.59-7.73 7.58-7.73 19.19 0 11.6 7.59 19.33 7.58 7.73 19.19 7.73 11.6 0 19.33-7.58Zm0 615.3q7.74-7.58 7.74-19.19 0-11.6-7.59-19.33-7.59-7.73-19.19-7.73-11.61 0-19.34 7.58-7.73 7.59-7.73 19.2 0 11.6 7.59 19.33 7.58 7.73 19.19 7.73 11.6 0 19.33-7.59Z"/></svg>