<svg xmlns="http://www.w3.org/2000/svg" height="20" viewBox="0 -960 960 960" width="20"><path d="M227-153q-31.29 0-52.65-21.75Q153-196.5 153-227v-190.76q0-22.15 10.5-39.45Q174-474.5 195-481.5L489-590H153v-217h580q29.5 0 50.25 20.35Q804-766.29 806-736.5v201q-1 22.08-13.76 41.02-12.77 18.93-33.74 25.98l-270.5 99h318V-153H227Zm0-17.5h561.5V-352H226.8q-15.3 0-31.13-5.25-15.83-5.25-25.17-19.25v149.33q0 23.67 16.25 40.17T227-170.5ZM788.5-584v-149.42q0-23.58-16.39-39.83-16.4-16.25-40.11-16.25H170.5v182h561.69q14.81 0 30.31 5.25Q778-597 788.5-584ZM227-369.5h209.81l315.69-115q16.78-5.9 26.89-19.45 10.11-13.55 10.11-31.55v1.79q0-23.29-16.5-39.79T733-590H550L201.84-464.44Q188-459.5 179.75-450.5t-8.25 23v6.5q0 21.44 16.7 36.47 16.7 15.03 38.8 15.03Zm63.25-315.62q-5.75-5.62-5.75-13t5.62-13.13q5.62-5.75 13-5.75t13.13 5.62q5.75 5.62 5.75 13t-5.62 13.13q-5.62 5.75-13 5.75t-13.13-5.62Zm2 436q-5.75-5.62-5.75-12.75t5.62-13.13q5.62-6 13-6t13.13 5.87q5.75 5.87 5.75 13t-5.62 12.88q-5.62 5.75-13 5.75t-13.13-5.62Zm44.5-176q-5.75-5.62-5.75-12.75t5.62-13.13q5.62-6 13-6t13.13 5.87q5.75 5.87 5.75 13t-5.62 12.88q-5.62 5.75-13 5.75t-13.13-5.62Zm130.5-260.5q-5.75-5.62-5.75-12.75t5.62-13.13q5.62-6 12.75-6t13.13 5.87q6 5.87 6 13t-5.87 12.88q-5.87 5.75-13 5.75t-12.88-5.62Zm0 217.5q-5.75-5.62-5.75-13t5.62-13.13q5.62-5.75 12.75-5.75t13.13 5.62q6 5.62 6 13t-5.87 13.13q-5.87 5.75-13 5.75t-12.88-5.62Zm0 219q-5.75-5.62-5.75-12.75t5.62-13.13q5.62-6 12.75-6t13.13 5.87q6 5.87 6 13t-5.87 12.88q-5.87 5.75-13 5.75t-12.88-5.62Zm130-262.5q-5.75-5.62-5.75-13t5.62-13.13q5.62-5.75 13-5.75t13.13 5.62q5.75 5.62 5.75 13t-5.62 13.13q-5.62 5.75-13 5.75t-13.13-5.62Zm43.5-174q-5.75-5.62-5.75-12.75t5.62-13.13q5.62-6 13-6t13.13 5.87q5.75 5.87 5.75 13t-5.62 12.88q-5.62 5.75-13 5.75t-13.13-5.62Zm0 436.5q-5.75-5.62-5.75-12.75t5.62-13.13q5.62-6 13-6t13.13 5.87q5.75 5.87 5.75 13t-5.62 12.88q-5.62 5.75-13 5.75t-13.13-5.62Z"/></svg>