<svg xmlns="http://www.w3.org/2000/svg" height="48" viewBox="0 -960 960 960" width="48"><path d="M209-116q-37.83 0-65.42-27.38Q116-170.75 116-209v-101q12 17 32.3 26 20.3 9 40.7 9h654v159H209Zm634-534q-16-18-38.9-25.5T758-683H116v-161h633q39.08 0 66.54 27.58Q843-788.83 843-750v100ZM186-311q-28.62 0-49.31-19.5T116-381q0-36.71 18-60.86Q152-466 170-475l448-174h139q39.77 0 62.89 28Q843-593 843-559v10q0 44-16 69t-59 39L413-311H186Zm105-436.29q7-6.29 7-16T291.21-780q-6.79-7-16-7T259-780.21q-7 6.79-7 16.5t6.79 16.21q6.79 6.5 16 6.5t16.21-6.29Zm2 567.98q7-6.32 7-15.83t-6.79-16.69q-6.79-7.17-16-7.17T261-212.01q-7 6.99-7 16.5t6.79 16.01q6.79 6.5 16 6.5t16.21-6.31Zm38.83-201.5q7.17-5.82 7.17-15.83t-6.99-17.19q-6.99-7.17-16.5-7.17t-16.01 6.99q-6.5 6.99-6.5 17t6.31 16.01q6.32 6 15.83 6t16.69-5.81ZM495.8-747.29q7.2-6.29 7.2-15.8 0-9.51-6.99-16.71-6.99-7.2-16.5-7.2t-16.01 6.99q-6.5 6.99-6.5 16.5t6.29 16.01q6.29 6.5 15.8 6.5 9.51 0 16.71-6.29Zm.2 292.5q7-6.79 7-16T496.21-487q-6.79-7-16.5-7t-16.21 6.79q-6.5 6.79-6.5 16t6.29 16.21q6.29 7 16 7t16.71-6.79Zm0 275.48q7-6.32 7-15.83t-6.79-16.69q-6.79-7.17-16.5-7.17t-16.21 6.99q-6.5 6.99-6.5 16.5t6.29 16.01q6.29 6.5 16 6.5t16.71-6.31Zm153-333.5q7-5.82 7-15.83t-6.79-17.19q-6.79-7.17-16-7.17T617-546.01q-7 6.99-7 17t6.79 16.01q6.79 6 16 6t16.21-5.81Zm48.8-234.48q7.2-6.29 7.2-15.8 0-9.51-6.99-16.71-6.99-7.2-16.5-7.2t-16.01 6.99q-6.5 6.99-6.5 16.5t6.29 16.01q6.29 6.5 15.8 6.5 9.51 0 16.71-6.29Zm.2 567.98q7-6.32 7-15.83t-6.79-16.69q-6.79-7.17-16.5-7.17t-16.21 6.99q-6.5 6.99-6.5 16.5t6.29 16.01q6.29 6.5 16 6.5t16.71-6.31Z"/></svg>