<svg xmlns="http://www.w3.org/2000/svg" height="40" viewBox="0 -960 960 960" width="40"><path d="M186.33-52q-56.41 0-95.37-39.26Q52-130.53 52-187v-209.67q0-36.86 22.5-66.26 22.5-29.4 57.83-42.74l231.01-89H52v-314h720.33q56.75 0 96.54 39.46 39.8 39.46 39.8 96.21v233.67q0 43.4-24.13 78.61-24.13 35.2-64.21 49.72L693-364.33h215.67V-52H186.33Zm0-95.67h626v-121h-626q-11.1 0-20.38-2.5T147.67-280v93q0 16.65 11.34 27.99t27.32 11.34Zm626-533V-773q0-16.65-11.67-27.99-11.68-11.34-28.33-11.34H147.67v122h624.69q10.41 0 20.69 1.66 10.28 1.67 19.28 8Zm-626 325h201.69l398.31-145.66q11.67-4.34 18.84-14.25 7.16-9.9 7.16-22.76v-25.29q0-16.52-11.67-27.78-11.68-11.26-28.33-11.26H649L166-416q-7 2.67-11.5 8.61-4.5 5.94-4.5 13.62v2q0 15.1 10.7 25.6 10.7 10.5 25.63 10.5Zm56.5-379.16q-6.5-6.84-6.5-16.5 0-9.67 6.5-16.5 6.5-6.84 16.5-6.84t16.84 6.84Q283-761 283-751.33q0 9.66-6.83 16.5-6.84 6.83-16.84 6.83t-16.5-6.83Zm.67 542.66q-6.5-6.83-6.5-16.5 0-9.66 6.5-16.5Q250-232 260-232t16.83 6.83q6.84 6.84 6.84 16.5 0 9.67-6.84 16.5-6.83 6.84-16.83 6.84-10 0-16.5-6.84Zm42.47-199q-6.97-6.5-6.97-16.36 0-9.87 6.97-16.84 6.96-6.96 16.83-6.96 9.87 0 16.37 6.96 6.5 6.97 6.5 16.84 0 9.86-6.5 16.36t-16.37 6.5q-9.87 0-16.83-6.5ZM463.5-735.5q-6.83-6.83-6.83-16.5t6.83-16.5q6.83-6.83 16.5-6.83t16.5 6.83q6.83 6.83 6.83 16.5t-6.83 16.5q-6.83 6.83-16.5 6.83t-16.5-6.83Zm0 282q-6.83-6.83-6.83-16.5t6.83-16.5q6.83-6.83 16.5-6.83t16.5 6.83q6.83 6.83 6.83 16.5t-6.83 16.5q-6.83 6.83-16.5 6.83t-16.5-6.83Zm0 261.33q-6.83-6.83-6.83-16.5 0-9.66 6.83-16.5Q470.33-232 480-232t16.5 6.83q6.83 6.84 6.83 16.5 0 9.67-6.83 16.5-6.83 6.84-16.5 6.84t-16.5-6.84ZM630.17-516.5q-6.5-6.5-6.5-16.37 0-9.87 6.5-16.83 6.5-6.97 16.36-6.97 9.87 0 16.84 6.97 6.96 6.96 6.96 16.83 0 9.87-6.96 16.37-6.97 6.5-16.84 6.5-9.86 0-16.36-6.5Zm53-219q-6.84-6.83-6.84-16.5t6.84-16.5q6.83-6.83 16.83-6.83 10 0 16.5 6.83T723-752q0 9.67-6.5 16.5t-16.5 6.83q-10 0-16.83-6.83Zm0 543.33q-6.84-6.83-6.84-16.5 0-9.66 6.84-16.5Q690-232 700-232q10 0 16.5 6.83 6.5 6.84 6.5 16.5 0 9.67-6.5 16.5-6.5 6.84-16.5 6.84t-16.83-6.84Z"/></svg>