<svg xmlns="http://www.w3.org/2000/svg" height="24" viewBox="0 -960 960 960" width="24"><path d="M218.96-126.15q-39.02 0-65.91-27.23-26.9-27.24-26.9-65.7v-184.87q0-25.02 15.27-44.31 15.27-19.28 39-28.09l344.43-134.3H126.04v-223.2h614.11q38.47 0 65.7 26.9 27.23 26.89 27.23 65.53v209.11q0 29.3-16.59 53.46t-43.76 34l-262.46 95.77h322.81v222.93H218.96Zm0-36.93h577.08v-149.07H218.76q-15.8 0-30.63-4.45-14.82-4.44-25.17-16.02v113.38q0 23.7 16.04 39.93t39.96 16.23Zm577.08-464.69v-113.57q0-23.62-16.07-39.6t-39.82-15.98H162.96v149.34h577.38q15.43 0 29.6 4.89 14.18 4.88 26.1 14.92ZM218.96-349.08h182.55l357.53-130.5q16.56-6.46 26.84-20.34 10.27-13.89 10.27-32.39v-22.55q0-23.33-16.23-39.56-16.23-16.23-39.77-16.23H626.46L193.42-441.79q-12.46 4.48-21.02 14.06-8.55 9.58-8.55 22.31v5.11q0 21.83 16.38 36.53 16.39 14.7 38.73 14.7Zm45.79-354.82q-7.37-7.28-7.37-18.02 0-10.73 7.28-18.1 7.29-7.36 18.02-7.36 10.74 0 18.11 7.28 7.36 7.28 7.36 18.01 0 10.74-7.28 18.11-7.28 7.36-18.02 7.36-10.73 0-18.1-7.28Zm1.54 483.5q-7.37-7.28-7.37-17.82 0-10.55 7.28-18.11 7.28-7.55 18.02-7.55 10.74 0 18.11 7.47 7.36 7.47 7.36 18.02 0 10.54-7.28 17.91-7.28 7.36-18.02 7.36-10.74 0-18.1-7.28Zm37.08-176.76q-7.37-7.29-7.37-17.83 0-10.55 7.28-18.11 7.28-7.55 18.02-7.55 10.74 0 18.1 7.47 7.37 7.47 7.37 18.02 0 10.54-7.28 17.91-7.28 7.37-18.02 7.37-10.74 0-18.1-7.28Zm158.8-307.24q-7.36-7.28-7.36-17.82 0-10.55 7.28-18.11 7.28-7.55 17.83-7.55 10.54 0 18.1 7.47 7.56 7.47 7.56 18.02 0 10.54-7.48 17.91-7.47 7.36-18.02 7.36-10.54 0-17.91-7.28Zm0 251.43q-7.36-7.28-7.36-18.02 0-10.74 7.28-18.11 7.28-7.36 17.83-7.36 10.54 0 18.1 7.28 7.56 7.28 7.56 18.02 0 10.74-7.48 18.1-7.47 7.37-18.02 7.37-10.54 0-17.91-7.28Zm0 232.57q-7.36-7.28-7.36-17.82 0-10.55 7.28-18.11 7.28-7.55 17.83-7.55 10.54 0 18.1 7.47 7.56 7.47 7.56 18.02 0 10.54-7.48 17.91-7.47 7.36-18.02 7.36-10.54 0-17.91-7.28ZM610.6-509.28q-7.37-7.28-7.37-18.02 0-10.74 7.28-18.1 7.28-7.37 18.02-7.37 10.74 0 18.1 7.28 7.37 7.28 7.37 18.02 0 10.74-7.28 18.1-7.28 7.37-18.02 7.37-10.74 0-18.1-7.28Zm46.3-195.12q-7.36-7.28-7.36-17.82 0-10.55 7.28-18.11 7.28-7.55 18.02-7.55 10.74 0 18.1 7.47 7.37 7.47 7.37 18.02 0 10.54-7.28 17.91-7.28 7.36-18.02 7.36-10.74 0-18.11-7.28Zm0 484q-7.36-7.28-7.36-17.82 0-10.55 7.28-18.11 7.28-7.55 18.02-7.55 10.74 0 18.1 7.47 7.37 7.47 7.37 18.02 0 10.54-7.28 17.91-7.28 7.36-18.02 7.36-10.74 0-18.11-7.28Z"/></svg>