<svg xmlns="http://www.w3.org/2000/svg" height="40" viewBox="0 -960 960 960" width="40"><path d="M189.67-64.17q-52.47 0-88.98-36.69-36.52-36.68-36.52-89.47v-206.92q0-34.16 21.05-61.22 21.05-27.05 53.49-39.52l266.22-103.05H64.17V-896.2H769q52.95 0 90.07 36.79 37.13 36.8 37.13 89.74v231.21q0 40.18-22.55 73.12-22.55 32.95-59.98 46.51L647.2-358.1h249v293.93H189.67Zm0-83.06h623.1v-127.81h-623.1q-11.93 0-22.18-2.5-10.24-2.5-20.26-8.26v95.47q0 18.25 12.43 30.67 12.42 12.43 30.01 12.43Zm623.1-527.2v-95.24q0-18.25-12.76-30.67-12.76-12.43-31.01-12.43H147.23v128.67h621.78q11.54 0 22.64 1.95 11.1 1.96 21.12 7.72ZM189.67-353.2h199.79l394.55-143.79q12.98-4.91 20.87-15.73 7.89-10.81 7.89-24.89v-25.02q0-18.18-12.76-30.56-12.76-12.38-31.01-12.38H646.54L168.03-420.35q-8.31 3.39-13.89 10.16-5.59 6.76-5.59 15.45v2q0 16.65 12.14 28.1 12.13 11.44 28.98 11.44Zm55.77-378.74q-6.64-6.83-6.64-16.5 0-9.66 6.64-16.49 6.65-6.84 16.5-6.84 9.86 0 16.69 6.84 6.83 6.83 6.83 16.49 0 9.67-6.83 16.5-6.83 6.84-16.69 6.84-9.85 0-16.5-6.84Zm.67 536.87q-6.65-6.83-6.65-16.49 0-9.67 6.65-16.5 6.64-6.84 16.5-6.84 9.85 0 16.69 6.84 6.83 6.83 6.83 16.5 0 9.66-6.83 16.49-6.84 6.84-16.69 6.84-9.86 0-16.5-6.84Zm41.68-196.82q-6.91-6.65-6.91-16.43t6.91-16.69q6.91-6.9 16.69-6.9 9.78 0 16.43 6.9 6.64 6.91 6.64 16.69 0 9.78-6.64 16.43-6.65 6.64-16.43 6.64t-16.69-6.64ZM463.5-732.6q-6.83-6.84-6.83-16.5 0-9.67 6.83-16.5t16.5-6.83q9.67 0 16.5 6.83t6.83 16.5q0 9.66-6.83 16.5-6.83 6.83-16.5 6.83t-16.5-6.83Zm0 279.1q-6.83-6.83-6.83-16.5t6.83-16.5q6.83-6.83 16.5-6.83t16.5 6.83q6.83 6.83 6.83 16.5t-6.83 16.5q-6.83 6.83-16.5 6.83t-16.5-6.83Zm0 258.43q-6.83-6.83-6.83-16.49 0-9.67 6.83-16.5 6.83-6.84 16.5-6.84t16.5 6.84q6.83 6.83 6.83 16.5 0 9.66-6.83 16.49-6.83 6.84-16.5 6.84t-16.5-6.84Zm164.93-320.71q-6.65-6.64-6.65-16.42 0-9.78 6.65-16.69 6.64-6.91 16.42-6.91 9.78 0 16.69 6.91 6.91 6.91 6.91 16.69 0 9.78-6.91 16.42-6.91 6.65-16.69 6.65-9.78 0-16.42-6.65ZM680.7-732.6q-6.83-6.84-6.83-16.5 0-9.67 6.83-16.5 6.84-6.83 16.69-6.83 9.86 0 16.5 6.83 6.65 6.83 6.65 16.5 0 9.66-6.65 16.5-6.64 6.83-16.5 6.83-9.85 0-16.69-6.83Zm0 537.53q-6.83-6.83-6.83-16.49 0-9.67 6.83-16.5 6.84-6.84 16.69-6.84 9.86 0 16.5 6.84 6.65 6.83 6.65 16.5 0 9.66-6.65 16.49-6.64 6.84-16.5 6.84-9.85 0-16.69-6.84Z"/></svg>