<svg xmlns="http://www.w3.org/2000/svg" version="1.1" width="3300" height="2000"><g id="Notes"><style>
    text {
      font-family: monospace;
      text-anchor: middle;
    }
    text.emphasis {
      font-weight:bold;
    }
    text.lanchor {
      text-anchor: start;
    }
  </style><rect height="2200" id="artboard" fill="white" width="3300" x="0" y="0"/><line id="" style="fill:none;stroke:black;stroke-width:0.5;" x1="263" x2="3036" y1="292" y2="292"/><text class="lanchor emphasis" transform="matrix(1 0 0 1 263 322)">Weight/Scale Variations</text><text transform="matrix(1 0 0 1 559.711 322)">Ultralight</text><text transform="matrix(1 0 0 1 856.422 322)">Thin</text><text transform="matrix(1 0 0 1 1153.13 322)">Light</text><text transform="matrix(1 0 0 1 1449.84 322)">Regular</text><text transform="matrix(1 0 0 1 1746.56 322)">Medium</text><text transform="matrix(1 0 0 1 2043.27 322)">Semibold</text><text transform="matrix(1 0 0 1 2339.98 322)">Bold</text><text transform="matrix(1 0 0 1 2636.69 322)">Heavy</text><text transform="matrix(1 0 0 1 2933.4 322)">Black</text><text id="template-version" style="text-anchor: end;" transform="matrix(1 0 0 1 3036 1933)">Template v.1.0</text><text class="lanchor" transform="matrix(1 0 0 1 263 726)">Small</text><text class="lanchor" transform="matrix(1 0 0 1 263 1156)">Medium</text><text class="lanchor" transform="matrix(1 0 0 1 263 1586)">Large</text></g><g id="Guides"><g id="H-reference" style="fill:#27AAE1;stroke:none;" transform="matrix(1 0 0 1 339 696)"><path d="M 54.9316 0 L 57.666 0 L 30.5664 -70.459 L 28.0762 -70.459 L 0.976562 0 L 3.66211 0 L 12.9395 -24.4629 L 45.7031 -24.4629 Z M 29.1992 -67.0898 L 29.4434 -67.0898 L 44.8242 -26.709 L 13.8184 -26.709 Z"/></g><line id="Baseline-S" style="fill:none;stroke:#27AAE1;opacity:1;stroke-width:0.577;" x1="263" x2="3036" y1="696" y2="696"/><line id="Capline-S" style="fill:none;stroke:#27AAE1;opacity:1;stroke-width:0.577;" x1="263" x2="3036" y1="625.541" y2="625.541"/><g id="H-reference" style="fill:#27AAE1;stroke:none;" transform="matrix(1 0 0 1 339 1126)"><path d="M 54.9316 0 L 57.666 0 L 30.5664 -70.459 L 28.0762 -70.459 L 0.976562 0 L 3.66211 0 L 12.9395 -24.4629 L 45.7031 -24.4629 Z M 29.1992 -67.0898 L 29.4434 -67.0898 L 44.8242 -26.709 L 13.8184 -26.709 Z"/></g><line id="Baseline-M" style="fill:none;stroke:#27AAE1;opacity:1;stroke-width:0.577;" x1="263" x2="3036" y1="1126" y2="1126"/><line id="Capline-M" style="fill:none;stroke:#27AAE1;opacity:1;stroke-width:0.577;" x1="263" x2="3036" y1="1055.54" y2="1055.54"/><g id="H-reference" style="fill:#27AAE1;stroke:none;" transform="matrix(1 0 0 1 339 1556)"><path d="M 54.9316 0 L 57.666 0 L 30.5664 -70.459 L 28.0762 -70.459 L 0.976562 0 L 3.66211 0 L 12.9395 -24.4629 L 45.7031 -24.4629 Z M 29.1992 -67.0898 L 29.4434 -67.0898 L 44.8242 -26.709 L 13.8184 -26.709 Z"/></g><line id="Baseline-L" style="fill:none;stroke:#27AAE1;opacity:1;stroke-width:0.577;" x1="263" x2="3036" y1="1556" y2="1556"/><line id="Capline-L" style="fill:none;stroke:#27AAE1;opacity:1;stroke-width:0.577;" x1="263" x2="3036" y1="1485.54" y2="1485.54"/><rect height="119.336" id="left-margin" style="fill:darkred;stroke:none;opacity:0.4;" width="12.4512" x="1394.06" y="1030.79"/><rect height="119.336" id="right-margin" style="fill:darkgreen;stroke:none;opacity:0.4;" width="12.4512" x="1502.5112" y="1030.79"/><rect x="1406.5112" y="1045" width="96" height="96" fill="none" stroke="blue" stroke-dasharray="5"/><rect x="1394.06" y="1030.79" width="120.9024" height="119.336" fill="none" stroke="blue"/></g><g id="Symbols"><g id="Bold-L" transform="matrix(1 0 0 1 2266 1556)"><path d="M22.575 32.656 V-61.514 H9.514 V-82.515 Q9.514 -91.197 15.474 -97.237 Q21.433 -103.277 30.315 -103.277 H124.646 Q133.407 -103.277 139.428 -97.258 Q145.447 -91.237 145.447 -82.496 V-61.514 H132.565 V32.656 H22.575 Z M37.249 17.983 H117.713 V-0.722 H37.249 V17.983 Z M37.249 -15.557 H117.713 V-34.746 H104.974 V-30.392 Q104.974 -27.309 102.832 -25.223 Q100.689 -23.136 97.692 -23.136 Q94.493 -23.136 92.316 -25.223 Q90.139 -27.309 90.139 -30.392 V-34.746 H37.249 V-15.557 Z M37.249 -49.42 H90.139 V-61.514 H37.249 V-49.42 Z M104.974 -49.42 H117.713 V-61.514 H104.974 V-49.42 Z"/></g><g id="Semibold-L" transform="matrix(1 0 0 1 1970.27 1556)"><path d="M22.925 32.306 V-62.355 H9.864 V-82.671 Q9.864 -91.098 15.68 -96.977 Q21.498 -102.857 30.105 -102.857 H124.856 Q133.313 -102.857 139.17 -96.99 Q145.027 -91.124 145.027 -82.662 V-62.355 H132.144 V32.306 H22.925 Z M36.338 18.894 H118.624 V-1.284 H36.338 V18.894 Z M36.338 -14.787 H118.624 V-35.377 H104.413 V-29.551 Q104.413 -26.735 102.47 -24.831 Q100.528 -22.927 97.751 -22.927 Q94.913 -22.927 92.912 -24.831 Q90.91 -26.735 90.91 -29.551 V-35.377 H36.338 V-14.787 Z M36.338 -48.79 H90.91 V-62.355 H36.338 V-48.79 Z M104.413 -48.79 H118.624 V-62.355 H104.413 V-48.79 Z"/></g><g id="Medium-L" transform="matrix(1 0 0 1 1674.31 1556)"><path d="M23.188 32.044 V-62.986 H10.127 V-82.789 Q10.127 -91.024 15.836 -96.782 Q21.545 -102.541 29.947 -102.541 H125.014 Q133.244 -102.541 138.978 -96.79 Q144.711 -91.039 144.711 -82.787 V-62.986 H131.83 V32.044 H23.188 Z M35.654 19.577 H119.307 V-1.705 H35.654 V19.577 Z M35.654 -14.208 H119.307 V-35.851 H103.992 V-28.92 Q103.992 -26.305 102.199 -24.538 Q100.406 -22.769 97.795 -22.769 Q95.229 -22.769 93.359 -24.538 Q91.488 -26.305 91.488 -28.92 V-35.851 H35.654 V-14.208 Z M35.654 -48.315 H91.488 V-62.986 H35.654 V-48.315 Z M103.992 -48.315 H119.307 V-62.986 H103.992 V-48.315 Z"/></g><g id="Regular-L" transform="matrix(1 0 0 1 1378.56 1556)"><path d="M23.381 31.85 V-63.449 H10.32 V-82.875 Q10.32 -90.969 15.951 -96.639 Q21.58 -102.31 29.831 -102.31 H125.13 Q133.192 -102.31 138.836 -96.642 Q144.48 -90.976 144.48 -82.879 V-63.449 H131.598 V31.85 H23.381 Z M35.153 20.079 H119.809 V-2.012 H35.153 V20.079 Z M35.153 -13.784 H119.809 V-36.197 H103.684 V-28.457 Q103.684 -25.99 102 -24.321 Q100.317 -22.652 97.827 -22.652 Q95.46 -22.652 93.686 -24.321 Q91.913 -25.99 91.913 -28.457 V-36.197 H35.153 V-13.784 Z M35.153 -47.969 H91.913 V-63.449 H35.153 V-47.969 Z M103.684 -47.969 H119.809 V-63.449 H103.684 V-47.969 Z"/></g><g id="Light-L" transform="matrix(1 0 0 1 1082.77 1556)"><path d="M26.482 28.625 V-63.51 H13.545 V-81.259 Q13.545 -88.654 18.705 -93.869 Q23.865 -99.085 31.444 -99.085 H123.517 Q130.867 -99.085 136.061 -93.877 Q141.255 -88.668 141.255 -81.268 V-63.51 H128.366 V28.625 H26.482 Z M35.897 19.21 H118.94 V-4.122 H35.897 V19.21 Z M35.897 -13.535 H118.94 V-37.128 H101.45 V-28.706 Q101.45 -26.739 100.106 -25.41 Q98.761 -24.08 96.774 -24.08 Q94.902 -24.08 93.469 -25.41 Q92.037 -26.739 92.037 -28.706 V-37.128 H35.897 V-13.535 Z M35.897 -46.542 H92.037 V-63.51 H35.897 V-46.542 Z M101.45 -46.542 H118.94 V-63.51 H101.45 V-46.542 Z"/></g><g id="Thin-L" transform="matrix(1 0 0 1 787.282 1556)"><path d="M29.583 25.4 V-63.573 H16.77 V-79.643 Q16.77 -86.338 21.459 -91.098 Q26.15 -95.86 33.056 -95.86 H121.905 Q128.54 -95.86 133.286 -91.11 Q138.03 -86.361 138.03 -79.658 V-63.573 H125.135 V25.4 H29.583 Z M36.641 18.342 H118.072 V-6.229 H36.641 V18.342 Z M36.641 -13.287 H118.072 V-38.058 H99.219 V-28.954 Q99.219 -27.488 98.213 -26.497 Q97.206 -25.505 95.72 -25.505 Q94.344 -25.505 93.252 -26.497 Q92.161 -27.488 92.161 -28.954 V-38.058 H36.641 V-13.287 Z M36.641 -45.116 H92.161 V-63.573 H36.641 V-45.116 Z M99.219 -45.116 H118.072 V-63.573 H99.219 V-45.116 Z"/></g><g id="Ultralight-L" transform="matrix(1 0 0 1 491.205 1556)"><path d="M31.444 23.465 V-63.61 H18.705 V-78.672 Q18.705 -84.948 23.112 -89.437 Q27.521 -93.925 34.024 -93.925 H120.938 Q127.146 -93.925 131.62 -89.45 Q136.095 -84.976 136.095 -78.692 V-63.61 H123.195 V23.465 H31.444 Z M37.087 17.821 H117.551 V-7.495 H37.087 V17.821 Z M37.087 -13.139 H117.551 V-38.616 H97.879 V-29.102 Q97.879 -27.937 97.076 -27.15 Q96.273 -26.361 95.086 -26.361 Q94.009 -26.361 93.122 -27.15 Q92.235 -27.937 92.235 -29.102 V-38.616 H37.087 V-13.139 Z M37.087 -44.26 H92.235 V-63.61 H37.087 V-44.26 Z M97.879 -44.26 H117.551 V-63.61 H97.879 V-44.26 Z"/></g><g id="Bold-M" transform="matrix(1 0 0 1 2281.8 1126)"><path d="M14.25 20.52 V-52.98 H4.25 V-72.112 Q4.25 -80.032 9.791 -85.506 Q15.334 -90.98 23.375 -90.98 H96.75 Q104.74 -90.98 110.245 -85.492 Q115.75 -80.006 115.75 -72.057 V-52.98 H105.75 V20.52 H14.25 Z M31.25 3.52 H88.75 V-5.605 H31.25 V3.52 Z M31.25 -22.605 H88.75 V-31.98 H84.125 V-31.73 Q84.125 -28.277 81.728 -25.941 Q79.329 -23.605 75.915 -23.605 Q72.25 -23.605 69.688 -25.941 Q67.125 -28.277 67.125 -31.73 V-31.98 H31.25 V-22.605 Z M31.25 -48.98 H67.125 V-52.98 H31.25 V-48.98 Z M84.125 -48.98 H88.75 V-52.98 H84.125 V-48.98 Z"/></g><g id="Semibold-M" transform="matrix(1 0 0 1 1985.97 1126)"><path d="M15.011 19.759 V-53.85 H5.011 V-72.106 Q5.011 -79.684 10.33 -84.951 Q15.65 -90.219 23.321 -90.219 H96.804 Q104.422 -90.219 109.706 -84.946 Q114.989 -79.674 114.989 -72.077 V-53.85 H104.989 V19.759 H15.011 Z M30.38 4.39 H89.62 V-6.42 H30.38 V4.39 Z M30.38 -21.79 H89.62 V-32.795 H83.364 V-30.915 Q83.364 -27.785 81.198 -25.667 Q79.03 -23.551 75.901 -23.551 Q72.63 -23.551 70.312 -25.667 Q67.995 -27.785 67.995 -30.915 V-32.795 H30.38 V-21.79 Z M30.38 -48.165 H67.995 V-53.85 H30.38 V-48.165 Z M83.364 -48.165 H89.62 V-53.85 H83.364 V-48.165 Z"/></g><g id="Medium-M" transform="matrix(1 0 0 1 1689.91 1126)"><path d="M15.581 19.189 V-54.501 H5.581 V-72.101 Q5.581 -79.421 10.735 -84.535 Q15.889 -89.649 23.28 -89.649 H96.845 Q104.185 -89.649 109.301 -84.536 Q114.419 -79.424 114.419 -72.094 V-54.501 H104.419 V19.189 H15.581 Z M29.729 5.041 H90.271 V-7.031 H29.729 V5.041 Z M29.729 -21.179 H90.271 V-33.406 H82.794 V-30.304 Q82.794 -27.416 80.8 -25.462 Q78.806 -23.51 75.891 -23.51 Q72.916 -23.51 70.781 -25.462 Q68.646 -27.416 68.646 -30.304 V-33.406 H29.729 V-21.179 Z M29.729 -47.554 H68.646 V-54.501 H29.729 V-47.554 Z M82.794 -47.554 H90.271 V-54.501 H82.794 V-47.554 Z"/></g><g id="Regular-M" transform="matrix(1 0 0 1 1394.06 1126)"><path d="M16 18.77 V-54.98 H6 V-72.097 Q6 -79.23 11.031 -84.23 Q16.062 -89.23 23.25 -89.23 H96.875 Q104.01 -89.23 109.005 -84.235 Q114 -79.24 114 -72.105 V-54.98 H104 V18.77 H16 Z M29.25 5.52 H90.75 V-7.48 H29.25 V5.52 Z M29.25 -20.73 H90.75 V-33.855 H82.375 V-29.855 Q82.375 -27.146 80.509 -25.312 Q78.642 -23.48 75.884 -23.48 Q73.125 -23.48 71.125 -25.312 Q69.125 -27.146 69.125 -29.855 V-33.855 H29.25 V-20.73 Z M29.25 -47.105 H69.125 V-54.98 H29.25 V-47.105 Z M82.375 -47.105 H90.75 V-54.98 H82.375 V-47.105 Z"/></g><g id="Light-M" transform="matrix(1 0 0 1 1098.18 1126)"><path d="M18.453 16.27 V-55.557 H8.5 V-71.136 Q8.5 -77.627 13.082 -82.179 Q17.665 -86.73 24.211 -86.73 H95.914 Q102.376 -86.73 106.938 -82.167 Q111.5 -77.606 111.5 -71.121 V-55.557 H101.5 V16.27 H18.453 Z M29.203 5.52 H90.75 V-9.259 H29.203 V5.52 Z M29.203 -20.009 H90.75 V-34.961 H80.404 V-29.999 Q80.404 -27.821 78.897 -26.347 Q77.39 -24.874 75.162 -24.874 Q72.981 -24.874 71.317 -26.347 Q69.654 -27.821 69.654 -29.999 V-34.961 H29.203 V-20.009 Z M29.203 -45.711 H69.654 V-55.557 H29.203 V-45.711 Z M80.404 -45.711 H90.75 V-55.557 H80.404 V-45.711 Z"/></g><g id="Thin-M" transform="matrix(1 0 0 1 802.565 1126)"><path d="M20.904 13.77 V-56.134 H11 V-70.175 Q11 -76.025 15.134 -80.127 Q19.267 -84.23 25.172 -84.23 H94.953 Q100.741 -84.23 104.87 -80.1 Q109 -75.971 109 -70.136 V-56.134 H99 V13.77 H20.904 Z M29.154 5.52 H90.75 V-11.037 H29.154 V5.52 Z M29.154 -19.287 H90.75 V-36.066 H78.433 V-30.144 Q78.433 -28.496 77.285 -27.382 Q76.138 -26.269 74.441 -26.269 Q72.836 -26.269 71.51 -27.382 Q70.183 -28.496 70.183 -30.144 V-36.066 H29.154 V-19.287 Z M29.154 -44.316 H70.183 V-56.134 H29.154 V-44.316 Z M78.433 -44.316 H90.75 V-56.134 H78.433 V-44.316 Z"/></g><g id="Ultralight-M" transform="matrix(1 0 0 1 506.415 1126)"><path d="M22.375 12.27 V-56.48 H12.5 V-69.597 Q12.5 -75.064 16.365 -78.896 Q20.229 -82.73 25.75 -82.73 H94.375 Q99.76 -82.73 103.63 -78.86 Q107.5 -74.99 107.5 -69.546 V-56.48 H97.5 V12.27 H22.375 Z M29.125 5.52 H90.75 V-12.105 H29.125 V5.52 Z M29.125 -18.855 H90.75 V-36.73 H77.25 V-30.23 Q77.25 -28.902 76.319 -28.004 Q75.386 -27.105 74.009 -27.105 Q72.75 -27.105 71.625 -28.004 Q70.5 -28.902 70.5 -30.23 V-36.73 H29.125 V-18.855 Z M29.125 -43.48 H70.5 V-56.48 H29.125 V-43.48 Z M77.25 -43.48 H90.75 V-56.48 H77.25 V-43.48 Z"/></g><g id="Bold-S" transform="matrix(1 0 0 1 2294.23 696)"><path d="M14.399 7.179 V-50.024 H4.931 V-62.752 Q4.931 -69.001 9.303 -73.32 Q13.676 -77.639 20.021 -77.639 H74.758 Q81.062 -77.639 85.405 -73.309 Q89.749 -68.98 89.749 -62.709 V-50.024 H80.281 V7.179 H14.399 Z M27.023 -5.445 H67.657 V-11.461 H27.023 V-5.445 Z M27.023 -24.085 H67.657 V-31.482 H64.797 V-31.679 Q64.797 -29.123 63.018 -27.393 Q61.239 -25.663 58.713 -25.663 Q55.989 -25.663 54.081 -27.393 Q52.173 -29.123 52.173 -31.679 V-31.482 H27.023 V-24.085 Z M27.023 -44.106 H52.173 V-50.024 H27.023 V-44.106 Z M64.797 -44.106 H67.657 V-50.024 H64.797 V-44.106 Z"/></g><g id="Semibold-S" transform="matrix(1 0 0 1 1998.1 696)"><path d="M15 6.578 V-50.71 H5.532 V-62.747 Q5.532 -68.726 9.728 -72.882 Q13.926 -77.038 19.978 -77.038 H74.8 Q80.811 -77.038 84.98 -72.878 Q89.148 -68.718 89.148 -62.725 V-50.71 H79.68 V6.578 H15 Z M26.337 -4.759 H68.343 V-12.104 H26.337 V-4.759 Z M26.337 -23.442 H68.343 V-32.125 H64.196 V-31.036 Q64.196 -28.735 62.6 -27.177 Q61.004 -25.621 58.703 -25.621 Q56.289 -25.621 54.574 -27.177 Q52.859 -28.735 52.859 -31.036 V-32.125 H26.337 V-23.442 Z M26.337 -43.463 H52.859 V-50.71 H26.337 V-43.463 Z M64.196 -43.463 H68.343 V-50.71 H64.196 V-43.463 Z"/></g><g id="Medium-S" transform="matrix(1 0 0 1 1701.85 696)"><path d="M15.45 6.128 V-51.224 H5.982 V-62.743 Q5.982 -68.519 10.048 -72.554 Q14.114 -76.588 19.946 -76.588 H74.833 Q80.624 -76.588 84.661 -72.555 Q88.698 -68.521 88.698 -62.737 V-51.224 H79.23 V6.128 H15.45 Z M25.823 -4.245 H68.857 V-12.587 H25.823 V-4.245 Z M25.823 -22.96 H68.857 V-32.608 H63.746 V-30.554 Q63.746 -28.444 62.287 -27.016 Q60.827 -25.588 58.695 -25.588 Q56.515 -25.588 54.944 -27.016 Q53.373 -28.444 53.373 -30.554 V-32.608 H25.823 V-22.96 Z M25.823 -42.981 H53.373 V-51.224 H25.823 V-42.981 Z M63.746 -42.981 H68.857 V-51.224 H63.746 V-42.981 Z"/></g><g id="Regular-S" transform="matrix(1 0 0 1 1405.73 696)"><path d="M15.78 5.798 V-51.602 H6.312 V-62.74 Q6.312 -68.368 10.282 -72.313 Q14.251 -76.258 19.922 -76.258 H74.856 Q80.486 -76.258 84.427 -72.317 Q88.368 -68.376 88.368 -62.746 V-51.602 H78.9 V5.798 H15.78 Z M25.445 -3.867 H69.235 V-12.941 H25.445 V-3.867 Z M25.445 -22.606 H69.235 V-32.962 H63.416 V-30.2 Q63.416 -28.231 62.057 -26.897 Q60.698 -25.565 58.689 -25.565 Q56.68 -25.565 55.215 -26.897 Q53.751 -28.231 53.751 -30.2 V-32.962 H25.445 V-22.606 Z M25.445 -42.627 H53.751 V-51.602 H25.445 V-42.627 Z M63.416 -42.627 H69.235 V-51.602 H63.416 V-42.627 Z"/></g><g id="Light-S" transform="matrix(1 0 0 1 1109.75 696)"><path d="M17.715 3.826 V-52.057 H8.284 V-61.982 Q8.284 -67.104 11.9 -70.695 Q15.516 -74.285 20.681 -74.285 H74.098 Q79.197 -74.285 82.796 -70.686 Q86.395 -67.087 86.395 -61.97 V-52.057 H76.928 V3.826 H17.715 Z M25.408 -3.867 H69.235 V-14.344 H25.408 V-3.867 Z M25.408 -22.037 H69.235 V-33.834 H61.861 V-30.314 Q61.861 -28.763 60.786 -27.714 Q59.71 -26.664 58.12 -26.664 Q56.566 -26.664 55.367 -27.714 Q54.168 -28.763 54.168 -30.314 V-33.834 H25.408 V-22.037 Z M25.408 -41.527 H54.168 V-52.057 H25.408 V-41.527 Z M61.861 -41.527 H69.235 V-52.057 H61.861 V-41.527 Z"/></g><g id="Thin-S" transform="matrix(1 0 0 1 814.015 696)"><path d="M19.649 1.853 V-52.512 H10.257 V-61.224 Q10.257 -65.839 13.519 -69.076 Q16.78 -72.313 21.439 -72.313 H73.34 Q77.907 -72.313 81.164 -69.054 Q84.423 -65.797 84.423 -61.193 V-52.512 H74.955 V1.853 H19.649 Z M25.369 -3.867 H69.235 V-15.748 H25.369 V-3.867 Z M25.369 -21.468 H69.235 V-34.706 H60.305 V-30.428 Q60.305 -29.296 59.513 -28.53 Q58.721 -27.765 57.551 -27.765 Q56.452 -27.765 55.519 -28.53 Q54.585 -29.296 54.585 -30.428 V-34.706 H25.369 V-21.468 Z M25.369 -40.427 H54.585 V-52.512 H25.369 V-40.427 Z M60.305 -40.427 H69.235 V-52.512 H60.305 V-40.427 Z"/></g><g id="Ultralight-S" transform="matrix(1 0 0 1 517.792 696)"><path d="M20.81 0.67 V-52.785 H11.441 V-60.768 Q11.441 -65.081 14.49 -68.105 Q17.538 -71.129 21.895 -71.129 H72.884 Q77.133 -71.129 80.186 -68.076 Q83.24 -65.023 83.24 -60.728 V-52.785 H73.772 V0.67 H20.81 Z M25.347 -3.867 H69.235 V-16.59 H25.347 V-3.867 Z M25.347 -21.127 H69.235 V-35.23 H59.372 V-30.496 Q59.372 -29.616 58.751 -29.021 Q58.129 -28.425 57.209 -28.425 Q56.384 -28.425 55.61 -29.021 Q54.836 -29.616 54.836 -30.496 V-35.23 H25.347 V-21.127 Z M25.347 -39.767 H54.836 V-52.785 H25.347 V-39.767 Z M59.372 -39.767 H69.235 V-52.785 H59.372 V-39.767 Z"/></g></g></svg>