<svg xmlns="http://www.w3.org/2000/svg" height="20" viewBox="0 -960 960 960" width="20"><path d="M267.65-178.16q-14.41 0-23.96-7.6-9.54-7.61-10.81-21.89l-87.02-543.26q-1.82-13.43 4.64-22.18 6.47-8.75 18.44-8.75h621.05q12.87 0 19.23 8.73 6.35 8.73 4.71 22.14l-23.92 142.93q-2.24 14.23-11.45 21.71-9.2 7.48-23.91 7.48h-372.3q.46 0-8.31 9.54l29.5 181.74q.69 3.07 9.47 5.92h133.22q1.38 0 9.23-6.04l21.1-130.29q1.48-11.71 8.79-17.92 7.31-6.21 19-6.21h146.18q12.44 0 19.57 8.59 7.13 8.6 5.33 21.16l-49.11 304.71q-1.46 14.19-10.99 21.84-9.52 7.65-23.91 7.65H267.65Z"/></svg>