<svg xmlns="http://www.w3.org/2000/svg" height="40" viewBox="0 -960 960 960" width="40"><path d="M252.25-156q-14.78 0-24.7-7.86-9.92-7.87-12.31-23.8L121-771q-3-14.22 4.56-23.61 7.55-9.39 21.3-9.39h666.06q14.25 0 21.16 9.33 6.92 9.34 4.23 23.84l-24.66 153.5q-2.32 16-12.15 23.66Q791.67-586 776-586H376.44q-1.11 0-9.77 10.33l31 193.67q1.33 4.33 9.79 7h144.53q3.6 0 9.01-7l22.74-139.66q1.93-12.01 10.07-18.51 8.14-6.5 20.74-6.5h157.11q13.51 0 20.92 9.17 7.42 9.17 5.49 22.49l-53.3 327.36q-2.39 15.92-12.48 23.79-10.1 7.86-24.88 7.86H252.25Z"/></svg>