<svg xmlns="http://www.w3.org/2000/svg" height="24" viewBox="0 -960 960 960" width="24"><path d="M270.01-180.31q-14.26 0-23.48-7.46-9.23-7.46-11.28-21.53l-87.2-540q-1.97-13.38 4.76-21.89 6.73-8.5 19.07-8.5h616.26q13.09 0 19.55 8.46 6.46 8.46 4.09 21.66L788.4-606.94q-2.36 14.32-11.37 21.54-9.02 7.21-23.22 7.21H383.19q-.57 0-8.11 9.57l29 179.24q.88 3.38 8.7 7.07h133.67q3.28 0 8.47-7.07l21.36-128.96q1.3-11.54 8.58-17.47 7.27-5.92 18.91-5.92h145.49q13.29 0 19.75 8.55 6.45 8.55 4.81 21.03l-48.68 302.86q-2.41 13.87-11.74 21.43-9.32 7.55-23.05 7.55H270.01Z"/></svg>