<svg xmlns="http://www.w3.org/2000/svg" height="24" viewBox="0 -960 960 960" width="24"><path d="M205.96-88.91q-18.7 0-30.55-9.57-11.85-9.56-14.85-28.26L46.52-831.7q-2.57-17.13 6.28-28.26 8.85-11.13 24.98-11.13h804.44q17.13 0 25.69 11.13 8.57 11.13 5.57 28.26L882.22-646q-3 18.7-14.63 28.26-11.63 9.57-30.33 9.57H352.83q-3.57 0-9.57 12.56l37.83 233.22q0 2.56 11.13 10.56h174.56q4 0 11.13-10.56l26.7-168.57q2-15.13 11.63-22.19 9.63-7.07 24.76-7.07h189.7q17.13 0 26.26 10.85 9.13 10.85 6.56 26.98l-64.08 395.65q-3 18.7-14.85 28.26-11.85 9.57-30.55 9.57H205.96Z"/></svg>