<svg xmlns="http://www.w3.org/2000/svg" height="48" viewBox="0 -960 960 960" width="48"><path d="M278.46-192q-13.5 0-22.48-7.33-8.99-7.32-10.91-20.66l-84.09-519.19q-1.98-12.71 4.45-20.76 6.43-8.06 18.61-8.06h591.98q12.33 0 18.66 8 6.32 8 4.1 20.48l-22.47 137.35q-2.81 14.17-11.38 20.92-8.56 6.75-21.43 6.75h-356q-.5 0-8.5 9.5l28 172q1 3 8.24 7h128.75q3.7 0 8.01-7l20.91-123.61q1.09-10.89 8-16.89t17.95-6H738.8q12.6 0 18.9 8.11 6.3 8.12 4.76 20.44l-46.52 290.97q-2.89 13.09-12.01 20.53-9.11 7.45-21.43 7.45H278.46Z"/></svg>