<svg xmlns="http://www.w3.org/2000/svg" height="40" viewBox="0 -960 960 960" width="40"><path d="M221.48-111.69q-16.91 0-28.22-8.98-11.3-8.97-14.06-27L71.77-811q-3-16.13 5.42-26.72t24.01-10.59h757.26q16.4 0 24.39 10.57 7.99 10.56 4.88 27l-28.74 174.13q-2.74 18.05-13.76 26.94-11.02 8.9-28.62 8.9H361.67q-2.95 0-10.39 12.18l35.31 219.51q.72 3.72 11.03 8.85h164.22q4.1 0 10.24-8.85l25.59-158.85q2.15-13.74 11.33-20.85 9.18-7.12 23.5-7.12h178.54q15.66 0 24.16 10.4 8.49 10.4 6.31 25.57l-60.7 372.27q-2.77 18.02-14.24 26.99-11.48 8.98-28.39 8.98h-516.7Z"/></svg>