<svg xmlns="http://www.w3.org/2000/svg" height="24" viewBox="0 -960 960 960" width="24"><path d="M211.46-96.91q-18.48 0-30.19-9.32-11.71-9.31-14.21-27.51L55.47-824.06q-2.52-16.77 6.07-27.9 8.59-11.13 24.24-11.13h788.29q16.78 0 25.09 11.13 8.32 11.13 5.41 27.88L874.22-642.5q-2.5 18.2-14.13 27.51-11.63 9.32-30.33 9.32H355.33q-3.07 0-9.07 12.06l36.83 229.22q.5 3.56 11.36 9.56h170.33q3.5 0 11.13-9.56l26.24-165.36q1.96-14.84 11.59-21.9 9.63-7.07 24.41-7.07h185.34q16.74 0 25.67 10.85 8.93 10.85 6.41 26.64l-62.63 387.49q-2.5 18.2-14.21 27.51-11.71 9.32-30.19 9.32H211.46Z"/></svg>