<svg xmlns="http://www.w3.org/2000/svg" height="24" viewBox="0 -960 960 960" width="24"><path d="M566-403 428-539v-205h106v161l106 106-74 74ZM128-559h106q0 36 10.5 69t30.5 62q29 42 64.5 77t70.5 70q19 18 35.5 37t33.5 38q15-20 32.5-38.5T547-281q35-35 71.5-70t65.5-77q20-29 31-62.5t11-69.5q1-103-71.5-175T479-806q-45-1-86.5 14.5T318-745h45v106H128v-233h105v61q49-50 113-75.5T479-912q147 0 250 102.5T832-560q0 52-15.5 101T772-368q-39 58-90.5 104T584-166q-17 20-32.5 40T524-83l-8 15q-5 10-15 15.5T480-47q-12 0-22-5.5T443-68l-8-15q-12-23-27-43.5T376-166q-47-52-99-97.5T187-368q-30-42-44.5-90.5T128-559Z"/></svg>