<svg xmlns="http://www.w3.org/2000/svg" height="24" viewBox="0 -960 960 960" width="24"><path d="M554-406 418-535v-196h125v144l100 93-89 88ZM126-544h125q2 29 11.5 55.5T289-438q26 38 58.5 69t65.5 63q17 17 33.5 34t32.5 34q15-17 31-34t33-34q32-32 66.5-63t60.5-69q18-26 28-57t10-64q0-96-67-163t-162-66q-34-1-66 9t-60 30h23v125H126v-250h125v45q48-40 106.5-62.5T479-914q148 0 251 103.5T834-559q0 52-15.5 101T774-367q-40 58-92 104t-98 98q-18 20-33.5 40.5T523-81l-8 15q-5 10-15 15.5T479-45q-12 0-22-5.5T442-66l-8-15q-12-23-27-43.5T375-165q-46-52-98.5-98.5T185-367q-27-40-42-84.5T126-544Z"/></svg>