<svg xmlns="http://www.w3.org/2000/svg" height="40" viewBox="0 -960 960 960" width="40"><path d="M566-418.33 438.67-543.67v-189.66h84v155l102 101.33L566-418.33ZM138.67-557H222q.67 37.33 11.83 72 11.17 34.67 31.84 64.33 30.33 45.34 68.83 82.34t75.5 76q19 19.33 36.17 40Q463.33-201.67 479-180q14.33-22 31.5-42.17 17.17-20.16 36.5-40.16 37-38.34 76.17-75.34 39.16-37 70.16-82.33 20.67-30.33 32.34-65.83 11.66-35.5 11.66-74.17 1-107-74.83-182.33-75.83-75.34-183.5-75-54.33-.34-102.83 20.83-48.5 21.17-83.5 62.17h59v84h-213v-211h83.66v81q47-58.67 114.34-89.84Q404-901.33 479-901.33q142.33 0 242.33 99.5t100 241.83q0 51.33-14.83 98.67-14.83 47.33-43.17 88.66-38.33 56.67-88.16 102-49.84 45.34-94.5 96-17 20-31.84 39.67-14.83 19.67-26.16 41.33l-7.34 15q-5.66 10-15.33 15.17t-20 5.17q-12 0-21.67-5.5-9.66-5.5-14-14.84l-8-15q-11.33-21.66-26-42.16-14.66-20.5-31-38.84-45.66-51.33-96-95.83Q233-315 195.67-372.67q-28.67-40-42.84-87.16Q138.67-507 138.67-557Z"/></svg>