<svg xmlns="http://www.w3.org/2000/svg" height="40" viewBox="0 -960 960 960" width="40"><path d="M553.67-459.67 468-546.33v-133h24v123L571-477l-17.33 17.33ZM212-558.33h24q0 38 9.83 73.16Q255.67-450 275.67-418q31.66 48.67 72.66 88.17t75 85.16q17.67 22 31.67 47t24 51q11-26 25.5-50.5t32.17-47.5q34-44.66 74-84.66t70.66-88q20-31.67 31.34-67.34Q724-520.33 724-559q1-102-71-173.5T479-804q-66 0-123.17 33.33-57.16 33.34-89.83 91.34h78.67v24H212V-788h24v113.33q34.33-70.66 99.67-112Q401-828 479-828q112 0 190.5 78.5T748-559q0 42-12 81t-34 73q-31 48-70.5 86.5T557-235q-13 17-24.5 34.5T513-163l-6 14q-4 8-12 12.5t-16 4.5q-10 0-17-4t-11-13l-6-14q-8-20-19-37.5T402-235q-34-45-75.5-83T256-405q-23-33-33.5-72.5T212-558.33Z"/></svg>