<svg xmlns="http://www.w3.org/2000/svg" height="40" viewBox="0 -960 960 960" width="40"><path d="M557.33-418 428.67-539.8v-186.53h103.66v142.66L631-491.33 557.33-418ZM132-544.67h103q2 31.67 12.83 60.84 10.84 29.16 29.17 55.16 28 41.34 63.83 75.34 35.84 34 70.84 70 17.66 17.66 34.83 37.1 17.17 19.44 32.5 38.9 15-19.35 30.67-38.34 15.66-19 34.66-37.66 34.45-35.35 72.08-69.33 37.63-33.98 66-75.46 18.92-28.55 29.92-61.65 11-33.11 11-69.23.67-102-70.91-173.67-71.59-71.66-173.42-70.66-43.93-1-83.63 15-39.7 16-71.04 46.66h38.34v104.34H132v-231.34h103.67v66.34q47.33-49.34 110.36-77.84 63.02-28.5 132.97-28.5 145.56 0 247.11 102.01Q827.67-704.65 828.67-558.8q0 51.24-15.5 99.52-15.5 48.28-44 89.83-39.3 57.37-90.39 102.85-51.09 45.49-96.28 96.93-17.69 19.78-32.93 40.06-15.24 20.28-27.24 43.28L515-72q-5.67 10-15.49 15.5-9.83 5.5-20.64 5.5-11.78 0-21.61-5.49-9.83-5.48-14.73-15.23l-7.86-14.61q-11.61-23-26.14-43.5Q394-150.33 377-169.67q-45.39-51.26-97.2-97.13-51.8-45.87-90.13-102.87-27-39.33-41.67-83.16-14.67-43.84-16-91.84Z"/></svg>