<svg xmlns="http://www.w3.org/2000/svg" height="24" viewBox="0 -960 960 960" width="24"><path d="m552-459-84.5-86v-132H493v121l77.5 78.5L552-459ZM217-561h25.5q-.5 38 9 73t29.5 67q31 47.5 70.5 86.25t73 83.25q16.5 22 30.5 46.25t23.5 49.75q11-25.5 25-49.25t31-46.75Q568-295 607-334t69-87q19.5-30.5 30.5-65.5t11-72.5q1-99-69.5-168.75T478.5-797.5q-64 0-119.25 32.25T272-677h77v25.5H217V-783h25.5v107.5Q277-743 340-783t138.5-40q110 0 187.25 76.75T743-559q0 41-11.75 79.75T698-407.5q-31 47.5-70 85.75T555-239q-12.5 16.5-23.75 34.25T512-167.5l-5.5 13.5q-4 8.5-12 12.75t-16 4.25q-9.5 0-16.5-4t-10.5-13l-6-13.5q-8.5-19.5-19.5-37T402.5-239q-33-44.5-73.25-82.25T260-407.5q-23-32.5-33-72.25T217-561Z"/></svg>