<svg xmlns="http://www.w3.org/2000/svg" height="20" viewBox="0 -960 960 960" width="20"><path d="M537.31-458.23 454-541.92v-138.69h52v116.76l68.46 68.47-37.15 37.15ZM189-576h52q-5 43.77 5.5 84.65 10.5 40.89 33.5 76.04 29.15 43.31 66.19 76.66 37.04 33.34 71.66 71.8 17.61 19.16 33.03 39.58 15.43 20.43 28.12 42.73 12.85-22.3 28.08-43.04 15.23-20.73 33.23-39.27 34.61-38.07 72.57-71.3 37.97-33.23 65.35-77.16 19-29.77 30.39-64.15Q720-513.85 720-551q.38-100-70.31-170.5T479-791q-53-1-100.46 21.73-47.46 22.73-81.08 64.66h57.92v51.99H188V-820h52v104q41.15-58.77 104.23-93.38Q407.31-844 479-844q122.54 0 207.77 85.23T772-551q0 44.69-12.73 86.38-12.73 41.7-37.19 77.77-32.08 48.7-75.2 86.08-43.11 37.38-81.42 81.23-14.85 16.23-27.58 34.15-12.73 17.93-21.57 37.54l-6.62 14q-4.61 8.23-12.73 13.54-8.11 5.31-17.34 5.31-10.62 0-18.35-4.92-7.73-4.93-12.35-13.93l-6.61-14q-8.85-19.61-21.08-37.34-12.23-17.73-26.08-34.35-37.92-43.08-82.42-80.85-44.5-37.76-76.19-86.46-27.08-41.07-39.31-89.27Q185-524.31 189-576Z"/></svg>