<svg xmlns="http://www.w3.org/2000/svg" height="20" viewBox="0 -960 960 960" width="20"><path d="M536-423 417-535v-181h127v128l83 75-91 90ZM123-561h127q-4 36 7.5 69t30.5 63q27 36 58.5 64.5T411-306q17 16 35 32.5t33 32.5q16-17 31.5-33.5T545-306q32-30 66.5-58t59.5-65q17-27 28-57.5t11-64.5q1-97-67-164.5T479-781q-29-2-56.5 3T366-759h11v127H122v-254h126v62q50-39 109-62.5T479-910q150 0 254.5 104.5T838-551q0 52-15.5 101.5T777-358q-39 57-92 99t-99 93q-19 18-35 39t-27 43l-9 15q-5 9-15 15.5T479-47q-12 0-22-6t-15-16l-9-15q-11-22-26.5-42.5T374-166q-47-48-99.5-92.5T182-358q-29-46-45-96.5T123-561Z"/></svg>