<svg xmlns="http://www.w3.org/2000/svg" height="40" viewBox="0 -960 960 960" width="40"><path d="M424.6-158.52h115.23l-58.61-147.13-56.62 147.13Zm507.57-352.15q0 35.08-25.09 59.14-25.1 24.05-60.55 24.05H540.44q-17.77 0-30.36-12.53-12.59-12.52-12.59-30.03t12.59-30.07q12.59-12.56 30.36-12.56h306.92v-335.36H330.07v63.04q0 17.77-12.59 30.36t-30.36 12.59q-17.61 0-29.93-12.59-12.31-12.59-12.31-30.36v-65.04q0-34.54 25.54-58.68 25.54-24.13 61.09-24.13h515.08q35.39 0 60.49 24.13 25.09 24.14 25.09 58.68v339.36Zm-84.81-2v-335.36 335.36Zm-460.14-152.1h58.87v-77.81h47.49v4.57q0 12.25 8.66 20.76 8.66 8.5 20.82 8.5t20.77-8.5q8.62-8.51 8.62-20.76v-17.06q0-17.23-12.76-29.92-12.76-12.69-30.05-12.69h-79.85q-17.67 0-30.12 12.69t-12.45 29.92v90.3Zm282.02 101.76h79.85q16.79 0 29.52-12.52 12.72-12.51 12.72-30.06v-16.53q0-11.78-8.66-20.69-8.65-8.91-20.81-8.91-12.16 0-20.78 8.91-8.62 8.91-8.62 20.69v4h-47.49v-124.46h47.49v4q0 12.26 8.66 20.76 8.66 8.51 20.82 8.51t20.78-8.51q8.61-8.5 8.61-20.76v-16.49q0-17.16-12.72-29.88-12.73-12.73-29.52-12.73h-79.85q-17.17 0-29.87 12.73-12.7 12.72-12.7 29.88v149.48q0 17.55 12.7 30.06 12.7 12.52 29.87 12.52ZM269.99-364.77q15.32 14.81 28.93 26.4 13.61 11.6 28.43 24.35l-39.41 81.98q-18.88-15.63-36.91-31.44-18.02-15.82-37.13-36.16l-55.4 51.05q-12.9 12.12-30.62 11.5-17.71-.61-29.03-13.82-11.87-13.43-10.55-30.28 1.33-16.84 13.93-28.69l56.59-53.17q-5.74-7.78-11.58-15.3-5.85-7.51-12.82-14.69-13.54-17.4-9.16-33.75 4.38-16.34 17.57-26.17 13.2-9.82 30.98-9.08 17.78.74 30.72 18.51 2.7 2.94 5.53 6.36 2.83 3.43 5.24 6.97 15.97-22.14 29.94-42.87 13.97-20.73 26.68-45.31H70.21q-18.3 0-30.34-12.15t-12.04-29.69q0-17.69 12.32-30.04 12.33-12.36 30.25-12.36h92.11v-22.98q0-17.4 12.2-29.82 12.21-12.42 30.04-12.42t30.2 12.42q12.37 12.42 12.37 29.82v22.98h124.05q17.17 0 29.42 12.37t12.25 30.03q0 17.67-12.25 29.76-12.25 12.08-29.42 12.08h-4.84q-18.89 42.1-43.85 79.93-24.97 37.82-52.69 73.68ZM399.28-88.98 382.3-47.43q-3.92 11.5-14.1 18.35-10.18 6.86-22.6 6.86-22.38 0-34.5-18.3-12.13-18.29-3.16-39.11l114.5-272.09q5.34-12.98 16.92-20.75 11.57-7.78 25.43-7.78h37.83q13.66 0 25.21 7.81 11.54 7.81 17.36 19.98l115.83 274q8.64 20.48-3.51 38.36-12.16 17.88-34.59 17.88-13.49 0-24.37-7.18-10.87-7.18-15.49-19.3l-16.58-40.28h-167.2Z"/></svg>