<svg xmlns="http://www.w3.org/2000/svg" height="48" viewBox="0 -960 960 960" width="48"><path d="M368.5-186h152L444-378l-75.5 192ZM868-500q0 20.5-14.75 34.25T816.5-452h-328q-6.5 0-10.5-4t-4-10.25q0-5.75 4-9.75t10.5-4H816q10 0 17-6t7-14v-320q0-8-7-14t-17-6H338.5q-10.5 0-17.25 6t-6.75 14v130.5q0 6.5-4 10.5t-10.5 4q-7.5 0-10.5-4t-3-10.5V-820q0-20.5 14.75-34.25t36.7-13.75h478.6q21.95 0 36.7 13.75Q868-840.5 868-820v320Zm-28 20v-360 360ZM396-606h25v-117q0-6 5-11t11-5h61q6 0 11 5t5 11v11q0 5.13 3.57 8.32 3.56 3.18 9.03 3.18 5.48 0 8.94-3.18Q539-706.87 539-712v-11.5q0-16.15-12.18-28.32Q514.65-764 498.5-764h-61q-17.23 0-29.36 12.18Q396-739.65 396-723.5V-606Zm261.5 50h61q15.4 0 27.95-12.51Q759-581.03 759-597.5v-8.5q0-5.07-3.55-8.78-3.55-3.72-9-3.72t-8.95 3.72q-3.5 3.71-3.5 8.78v9q0 6-5 11t-11 5h-61q-6 0-11-5t-5-11v-126q0-6 5-11t11-5h61q6 0 11 5t5 11v11q0 5.13 3.57 8.32 3.56 3.18 9.03 3.18 5.48 0 8.94-3.18Q759-706.87 759-712v-11.5q0-15.4-12.55-27.95Q733.9-764 718.5-764h-61q-17.5 0-29.5 12.55t-12 27.95v126q0 16.47 12 28.99Q640-556 657.5-556Zm-393 164.61q15 18.39 29 31.89t29.5 28L312-303q-18.5-17-33.75-32t-31.75-34.5l-83 78q-4.73 4-11.11 4.5-6.39.5-8.89-4-4.5-4.5-3.5-10.25t4-10.25l84.5-80q-14-16-26.5-33.5t-24-36q-4-5.5-2.25-11.5t5.67-9q3.93-3 9.75-2.75 5.83.25 11.33 5.75 10.35 16.86 21.18 32.68Q234.5-430 247-416q26-31 48.75-62.75T331.5-549h-225q-6.6 0-10.55-4Q92-557 92-563.5t3.95-10q3.95-3.5 10.55-3.5h128v-37.8q0-5.05 3.5-9.12 3.5-4.08 10-4.08t10.5 4.08q4 4.07 4 9.12v37.8h144q5.35 0 9.42 4 4.08 4 4.08 10t-4.08 10q-4.07 4-9.42 4h-42q-16 45-42.77 83.99-26.78 39-57.23 73.62Zm94 230.39L323-73.4q-1.5 4.4-5.19 6.65-3.68 2.25-7.26 2.25-8.56 0-12.55-6.5-4-6.5-1-12.5L426.5-404q1-4 4.65-6 3.65-2 7.35-2H450q2.5 0 6.5 2t5.5 5.5L592.5-83q2 6.5-1.89 12.5-3.9 6-11.77 6-4.34 0-8.34-2.25t-4-6.25l-35-88h-173Z"/></svg>