<svg xmlns="http://www.w3.org/2000/svg" height="24" viewBox="0 -960 960 960" width="24"><path d="M363.23-140.31h130.54l-64.39-166.46-66.15 166.46Zm322.54-429.61H714q26.77 0 46.42-19.66 19.66-19.65 19.66-46.42v4.23q0-10.61-7.54-18.15-7.54-7.54-18.16-7.54-10.61 0-18.15 7.54-7.54 7.54-7.54 18.15v6.15q0 4.62-3.84 8.47-3.85 3.84-8.47 3.84h-34q-4.61 0-8.46-3.84-3.84-3.85-3.84-8.47v-104q0-4.61 3.84-8.46 3.85-3.84 8.46-3.84h34q4.62 0 8.47 3.84 3.84 3.85 3.84 8.46v7.7q0 10.61 7.54 18.15 7.54 7.54 18.15 7.54 10.62 0 18.16-7.54 7.54-7.54 7.54-18.15v2.69q0-26.77-19.66-46.42-19.65-19.66-46.42-19.66h-28.23q-26.77 0-46.42 19.66-19.66 19.65-19.66 46.42V-636q0 26.77 18.89 46.42 18.88 19.66 47.19 19.66ZM262.46-365.85q10.77 9 14.5 13 3.73 4 16.04 12.77l-39.77 63.62q-15.54-12.77-20.85-18.08-5.3-5.31-17-17L168.77-272q-10.92 10.15-24.92 9.04-14-1.12-24.16-12.04-10.15-11.92-8.77-26.04 1.39-14.11 12.54-24.27l46.85-38.31q-8.69-10.69-16.5-21.38Q146-395.69 136-406.62q-11.69-15.38-8.12-29.65 3.58-14.27 15.5-22.73 11.93-8.46 26.7-8.12 14.77.35 26.23 16.5 5.23 7.7 10.57 14.5 5.35 6.81 10.27 15.04 17.7-22.69 34.2-46.61 16.5-23.93 28.73-52.39H75.69q-15.38 0-25.54-10.04Q40-540.15 40-554.77q0-15.38 10.15-25.54 10.16-10.15 25.54-10.15h79.54v-20.62q0-14.61 10.54-25.15t25.15-10.54q14.62 0 25.16 10.54 10.54 10.54 10.54 25.15v20.62h158.23q14.61 0 25.15 10.54t10.54 25.15q0 14.62-10.54 24.65-10.54 10.04-25.15 10.04h-22.54q-19.23 43.39-45.85 81.12-26.61 37.73-54 73.11Zm77.69 282.77-17.92 42.31Q318-29.85 308.96-24.15q-9.04 5.69-19.96 5.69-19.62 0-29.65-15.5-10.04-15.5-2.58-33.12l117.77-283.61q5.23-11.16 15.27-18.35 10.04-7.19 22.42-7.19H446q12.39 0 22.42 6.81 10.04 6.8 15.27 17.96L602.23-68.08q7.46 17.62-3.08 33.62-10.53 16-30.15 16-11.92 0-20.46-6.19Q540-30.85 535.77-41l-18.92-42.08h-176.7Zm489.77-353.15H514.54q-18.92 0-32.12-13.19-13.19-13.2-13.19-32.12v-93.84q0-25.39-18.04-42.93t-43.42-17.54h47.69v-93.77q0-4.61 3.85-8.46 3.84-3.84 8.46-3.84h33q4.61 0 8.46 3.84 3.85 3.85 3.85 8.46v7.7q0 10.61 7.54 18.15 7.53 7.54 18.15 7.54 10.61 0 18.15-7.54 7.54-7.54 7.54-18.15v2.69q0-26.77-19.65-46.42-19.66-19.66-46.43-19.66h-28.23q-26.77 0-46.42 19.66-19.65 19.65-19.65 46.42v83.38h-84.7v-80.92h-12.23q-17.38 0-30.57-13.19-13.2-13.19-13.2-30.58v-72.69q0-36.15 26.08-61.46 26.08-25.31 63-25.31h477.46q36.93 0 63 25.31Q919-869.38 919-833.23V-523q0 36.15-26.08 61.46-26.07 25.31-63 25.31Z"/></svg>