<svg xmlns="http://www.w3.org/2000/svg" height="48" viewBox="0 -960 960 960" width="48"><path d="M412.22-153.61h117.43l-60-152.3-57.43 152.3ZM943.39-512q0 35.56-26.03 60.45-26.04 24.9-61.75 24.9H544.57q-18.07 0-30.52-12.09-12.44-12.08-12.44-30.04t12.18-30.59Q525.96-512 544.57-512h314.04v-346.61H341.43v90.31q0 17.7-12.17 30.32-12.18 12.63-30.5 12.63-18.07 0-30.09-12.18-12.02-12.17-12.02-30.77v-90.31q0-35 26.69-59.61 26.68-24.61 62-24.61H855.7q35.62 0 61.66 24.61 26.03 24.61 26.03 59.61V-512Zm-84.78 0v-346.61V-512ZM401.74-650.43h59.13v-99.31h45.04v2.57q0 13.28 8.41 21.42 8.42 8.14 20.78 8.14 12.35 0 21.43-8.14t9.08-21.42v-12.87q0-18.81-13.24-31.54-13.24-12.72-31.02-12.72h-76.92q-18.88 0-30.78 12.72-11.91 12.73-11.91 31.54v109.61Zm279.39 84.13h75.91q18.13 0 30.92-12 12.78-12 12.78-30.7v-13.87q0-11.91-8.94-20.74-8.94-8.82-21.32-8.82t-20.63 8.82q-8.24 8.83-8.24 20.74v2h-45.04v-128.87h45.04v2q0 12.91 8.41 21.24 8.41 8.33 20.77 8.33t21.15-8.15q8.8-8.14 8.8-21.42v-12.3q0-18.7-12.78-31.48-12.79-12.78-30.92-12.78h-75.91q-18.7 0-31.2 12.78t-12.5 31.48V-609q0 18.7 12.5 30.7t31.2 12ZM256.57-355q14.26 13.57 25.93 23.76 11.67 10.2 26.5 21.89l-40.52 80.65q-18.83-14.13-34.57-28.32-15.74-14.2-33.87-32.33L149.7-244.7q-13.19 12.57-30.79 11.85-17.61-.72-29.8-13.85-11.07-13.13-9.57-30.32 1.5-17.2 14.2-29.33l51.22-46.52q-5.39-8-11.35-14.93-5.96-6.94-11.39-14.37-15.26-17.26-10.42-33.4 4.85-16.13 17.92-26.47 13.06-10.35 31.54-9.57 18.48.78 31.04 18.91 1.45 1.81 4.59 5.74 3.14 3.93 5.15 5.87 14.19-21.2 28.69-41.12 14.49-19.92 25.92-45.36H59.57q-19.1 0-30.75-11.72-11.65-11.73-11.65-29.14 0-18.09 11.93-30.51 11.93-12.41 30.47-12.41h86.08v-21.61q0-17.79 11.85-30.09t30.54-12.3q18.7 0 30.55 11.85 11.84 11.85 11.84 30.54v21.61h125.44q17.46 0 29.64 12.58 12.19 12.58 12.19 30.05 0 17.46-12.19 29.31-12.18 11.84-29.64 11.84h-3.74Q333-465 308.22-427.78q-24.79 37.21-51.65 72.78ZM386.09-82.96l-15.74 39.82q-5 11.27-14.42 18.34-9.42 7.06-23.01 7.06-22.45 0-34.34-18.41-11.88-18.42-3.32-39.11L410-353.61q5-12.69 17.33-20.98 12.32-8.28 25.93-8.28h37.83q12.97 0 25.3 7.85 12.33 7.86 18.05 20.41l116.3 280.35q8.57 20.69-4.21 38.61-12.77 17.91-34.09 17.91-14.22 0-25.12-7.66-10.91-7.66-14.93-19.6l-16.61-37.96H386.09Z"/></svg>