<svg xmlns="http://www.w3.org/2000/svg" height="48" viewBox="0 -960 960 960" width="48"><path d="M374.92-159.31h129.54l-65.38-165.92-64.16 165.92Zm301.23-406.77h65.23q18.53 0 32.38-13.35 13.85-13.35 13.85-31.88v-10q0-9.81-7.15-16.9-7.14-7.1-17.53-7.1t-17.05 7.1q-6.65 7.09-6.65 16.9v4.7q0 2.3-1.92 4.23-1.93 1.92-4.23 1.92h-48.62q-2.31 0-4.23-1.92-1.92-1.93-1.92-4.23V-742q0-2.31 1.92-4.23 1.92-1.92 4.23-1.92h48.62q2.3 0 4.23 1.92 1.92 1.92 1.92 4.23v5.46q0 10.81 6.65 17.41 6.65 6.59 17.04 6.59 10.39 0 17.54-6.59 7.15-6.6 7.15-17.41v-9.77q0-18.53-13.85-32.38-13.85-13.85-32.38-13.85h-65.23q-18.92 0-32.57 13.85-13.66 13.85-13.66 32.38v135q0 18.53 13.46 31.88 13.47 13.35 32.77 13.35ZM254.08-368.61q12.38 13.53 20 21.46 7.61 7.92 20.38 18.3l-31.38 62.31q-16.77-13.39-26.73-24.15-9.96-10.77-25.81-27l-55.23 50.07q-10.36 10.08-24.22 9.27-13.86-.81-21.93-10.88-9.47-10.46-7.97-23.46 1.5-13 10.58-22.47l56.85-52.3Q161.46-377 154-386.23q-7.46-9.23-14.61-19.16-11.47-12.69-8.04-25.57 3.42-12.89 14.19-21.04 10.77-8.15 24.58-7.85 13.8.31 24.65 15 4.32 5.36 8.77 11.45 4.46 6.09 9 12.01 17.15-23.76 33.88-46.5 16.73-22.73 28.35-51.03H72.85q-14.31 0-23.58-9.27Q40-537.46 40-550.77q0-14.69 9.27-23.77t23.58-9.08h93.23v-27.03q0-13.2 9.27-22.97 9.27-9.76 23.57-9.76 14.31 0 23.58 9.26 9.27 9.27 9.27 23.47v27.03h131.38q13.31 0 23.08 9.77 9.77 9.77 9.77 23.08 0 13.31-9.77 22.58-9.77 9.27-23.08 9.27h-13.3q-17.62 42-42.89 79.11-25.27 37.12-52.88 71.2Zm99.3 263.92-21.46 54.84q-4.61 9.54-12.08 15.08-7.46 5.54-17.83 5.54-17.17 0-26.86-14.5-9.69-14.5-2.84-30.42l120.46-291.7q4.23-9.46 13.61-16.11 9.39-6.66 19.23-6.66H455q9.69 0 19.15 6.16 9.46 6.15 13.69 15.61L609.31-73.54q6.84 16.31-3.35 30.31t-26.35 14q-11.38 0-19.34-5.85-7.96-5.84-11.19-15.31L526-104.69H353.38Zm489.85-333.93H519.31q-15.61 0-25.73-10.12-10.12-10.12-10.12-24.72v-115.39q0-21.29-14.39-35.18t-34.69-13.89h17.23V-742q0-2.31 1.93-4.23 1.92-1.92 4.23-1.92h47.61q2.31 0 4.24 1.92 1.92 1.92 1.92 4.23v5.46q0 10.81 7.15 17.41 7.15 6.59 17.04 6.59 9.88 0 17.04-6.59 7.15-6.6 7.15-17.41v-9.77q0-18.53-13.65-32.38-13.66-13.85-31.58-13.85h-66.23q-19.53 0-32.38 13.35-12.85 13.35-12.85 32.88v108.39h-67v-70.46h-32.92q-15.23 0-25.16-10.12-9.92-10.12-9.92-24.96v-103.15q0-30.08 22.96-51.73Q314.15-920 345.63-920h497.58q31.48 0 54.13 21.66Q920-876.69 920-846.61V-512q0 31.08-22.66 52.23-22.65 21.15-54.11 21.15Z"/></svg>