<svg xmlns="http://www.w3.org/2000/svg" height="40" viewBox="0 -960 960 960" width="40"><path d="M374.33-186.33H525l-75.33-191-75.34 191ZM868-500q0 20-14.83 34-14.84 14-36.84 14H495q-6 0-10-4t-4-10q0-6 4-10t10-4h321.33q9.67 0 16.67-6 7-6 7-14v-320q0-8-7-14t-16.67-6H338q-9.67 0-16.67 6-7 6-7 14v131q0 6-4 10t-10 4q-6.66 0-10.33-4t-3.67-10v-131q0-20 14.84-34 14.83-14 36.8-14h478.39q21.97 0 36.81 14Q868-840 868-820v320Zm-28 20v-360 360ZM395.33-606h26v-116q0-6 5-11t11-5H498q6 0 11 5t5 11v10.67q0 5.42 3.74 9.04 3.73 3.62 9.33 3.62t9.26-3.62q3.67-3.62 3.67-9.04V-722q0-17.15-12.43-29.58Q515.15-764 498-764h-60.67q-17.15 0-29.57 12.42-12.43 12.43-12.43 29.58v116Zm262 50H718q16.65 0 29.32-12.67Q760-581.35 760-598v-8.67q0-5.42-3.74-9.04-3.73-3.62-9.33-3.62t-9.26 3.62q-3.67 3.62-3.67 9.04v8.67q0 6-5 11t-11 5h-60.67q-6 0-11-5t-5-11v-124q0-6 5-11t11-5H718q6 0 11 5t5 11v10.67q0 5.42 3.74 9.04 3.73 3.62 9.33 3.62t9.26-3.62q3.67-3.62 3.67-9.04V-722q0-16.65-12.68-29.33Q734.65-764 718-764h-60.67q-17.33 0-29.66 12.67-12.34 12.68-12.34 29.33v124q0 16.65 12.34 29.33Q640-556 657.33-556Zm-388 168.07q15 17.93 29.67 32.26 14.67 14.34 31 29.34l-11 28q-19-17-35-32.84Q268-347 251-366l-87.33 82.67q-4.82 4-10.75 4.5-5.92.5-9.25-4.17-4-5.33-3.17-10.83.83-5.5 4.17-9.5L233-387.67q-15-18-27.67-36.16Q192.67-442 180-462q-4-6.33-2.5-11.67 1.5-5.33 6.17-8.66 4.66-3.34 10-2.84 5.33.5 10 6.5 10.95 17.42 23.14 34.05Q239-428 252-411.67q27-31.66 50-65 23-33.33 36.33-72.66H106q-6 0-10-4t-4-10q0-6.67 4-10.34 4-3.66 10-3.66h133v-36.87q0-5.8 4-9.8 4-4 10-4t10 4q4 4 4 9.8v36.87h149.67q6 0 10 4t4 10q0 6-4 10t-10 4h-46.34q-16 46-42.66 85.83-26.67 39.83-58.34 75.57Zm95 226.6-35 88.4q-2 3.93-5.12 6.43-3.13 2.5-7.73 2.5-8.07 0-12.11-6.33-4.04-6.34-1.04-12.67l128.34-321q2-4 5.2-6t6.8-2h11.66q3.34 0 6.67 2t5.33 6L596.67-83q3 7-1.04 13t-12.11 6q-4.85 0-8.19-2.5Q572-69 570.67-73l-35-88.33H364.33Z"/></svg>