<svg xmlns="http://www.w3.org/2000/svg" height="40" viewBox="0 -960 960 960" width="40"><path d="M426.26-145.01h110.73l-56.15-146.22-54.58 146.22Zm525.35-371.41q0 38.93-28.01 66.17Q895.59-423 856.56-423H560.91q-19.63 0-33.1-13.38-13.46-13.38-13.46-32.97 0-19.58 13.44-33.32 13.45-13.75 33.46-13.75h297.32V-858.9H345.81v78.39q0 19.41-13.44 33.16-13.45 13.74-33.17 13.74-19.57 0-32.91-13.44-13.33-13.45-13.33-33.46v-78.39q0-38.63 28.44-65.55 28.44-26.93 67.02-26.93h508.21q38.96 0 66.97 26.93 28.01 26.92 28.01 65.55v342.48Zm-93.04 0V-858.9v342.48ZM400.93-654.85h65.88v-92.37h38.54v1.9q0 14.5 9.48 23.72 9.49 9.22 23.23 9.22t23.74-9.22q10-9.22 10-23.72v-9.3q0-21.96-15.73-37.08-15.72-15.13-37-15.13h-66.98q-22.01 0-36.59 15.13-14.57 15.12-14.57 37.08v99.77Zm286.33 86.69h66.32q21.51 0 36.67-14.64 15.16-14.63 15.16-36.52v-9.78q0-13.58-9.84-23.26-9.84-9.68-23.59-9.68-13.76 0-23.11 9.68t-9.35 23.26v1.33h-38.53v-119.45h38.53v1.34q0 14.12 9.49 23.53 9.48 9.41 23.22 9.41 13.74 0 23.46-9.22t9.72-23.72v-8.74q0-21.89-15.16-37.05-15.16-15.16-36.67-15.16h-66.32q-22.07 0-36.95 15.16-14.88 15.16-14.88 37.05v135.3q0 21.89 14.88 36.52 14.88 14.64 36.95 14.64ZM268.1-344q13.78 12.23 25.86 22.22 12.08 9.98 26.43 20.82l-46.36 87.21q-18.35-13.99-34.49-27.98-16.15-13.98-33.28-30.92l-52.85 46.97q-14.21 13.42-33.13 12.53-18.92-.88-32.28-15.22-12.61-14.34-11.18-33.34 1.43-19 15.83-32.32l53.2-46.99q-6.52-9.14-13.51-17.51-6.99-8.37-13.76-17.24-15.78-19.3-10.44-37.07 5.35-17.77 19.72-28.57 14.37-10.79 34.06-9.77 19.69 1.02 32.96 20.9 2.26 3.57 6.09 8.68 3.84 5.11 6.96 8.34 15.14-21.5 29.66-42.85 14.53-21.35 26.29-47.18H54.96q-20.34 0-33.34-12.95-13-12.95-13-32.22 0-19.48 13.28-33.18 13.28-13.69 33.25-13.69h86.98V-613q0-19.47 13.22-33 13.23-13.52 33.3-13.52 20.07 0 33.3 13.22 13.22 13.23 13.22 33.3v17.67h142.54q19.25 0 32.6 13.81 13.36 13.81 13.36 32.96t-13.36 32.21q-13.35 13.06-32.6 13.06h-10.38q-19.98 44.19-45.6 83.22-25.61 39.03-53.63 76.07ZM397.9-68.52l-12.47 31.08q-5.18 12.74-15.94 20.5-10.76 7.75-25.43 7.75-24.56 0-37.64-20.05-13.09-20.05-3.81-42.64l111.03-271.47q5.71-14.22 19.22-23.38 13.51-9.15 29.11-9.15h41.82q15.17 0 28.69 8.77 13.51 8.78 19.69 23.1L664.44-71.55q9.27 22.59-4.6 42.48-13.87 19.88-37.65 19.88-15.26 0-27.31-8.32-12.05-8.33-16.53-21.69l-13-29.32H397.9Z"/></svg>