<svg xmlns="http://www.w3.org/2000/svg" height="40" viewBox="0 -960 960 960" width="40"><path d="M427.5-142h112.33l-57.16-141.33L427.5-142Zm519.17-375.33q0 42.44-29.99 71.22-29.98 28.78-72.18 28.78H531.17q-21.06 0-36.28-15.12-15.22-15.11-15.22-35.83t15.22-35.89q15.22-15.16 36.28-15.16h314.16V-846h-511.5v35.5q0 21.06-15.22 36.28Q303.39-759 282.33-759q-20.76 0-35.63-15.22-14.87-15.22-14.87-36.28V-848q0-41.5 30.51-70.42 30.5-28.91 72.93-28.91h509.29q42.14 0 72.12 28.91 29.99 28.92 29.99 70.42v330.67Zm-101.34-2V-846v326.67ZM388.67-671h64.66v-71h36.34v5q0 13.31 9.57 22.74 9.57 9.43 22.78 9.43 13.2 0 22.76-9.43 9.55-9.43 9.55-22.74v-11.83q0-20.54-15.44-35.85Q523.45-800 502.83-800H439.5q-21 0-35.92 15.32-14.91 15.31-14.91 35.85V-671ZM677.5-565.33h63.33q20.12 0 35.31-14.84 15.19-14.83 15.19-36v-11.16q0-12.51-9.58-22.51-9.58-9.99-22.79-9.99-13.22 0-22.75 9.99-9.54 10-9.54 22.51v4h-36.34V-742h36.34v4q0 13.31 9.57 22.74 9.57 9.43 22.78 9.43 13.2 0 22.76-9.43 9.55-9.43 9.55-22.74v-10.83q0-20.79-15.19-35.98Q760.95-800 740.83-800H677.5q-20.5 0-35.67 15.19-15.16 15.19-15.16 35.98v132.66q0 21.17 15.16 36 15.17 14.84 35.67 14.84Zm-415.33 201q16.33 13.5 29 22.41 12.66 8.92 28.5 21.09l-51 95.16q-20.34-15.33-37.42-28.25-17.08-12.91-35.75-32.25l-33.67 27q-15.39 14-36.28 13.17-20.88-.83-34.38-16.5-14.34-16.33-12.5-36.58Q80.5-319.33 96-333.5l33.83-27.67q-2.45-4.53-5.81-8.6-3.35-4.06-9.02-6.9-17.17-21.16-11.92-40.91 5.25-19.75 21.2-31.75t37.5-11.34q21.55.67 37.39 22.5-.06-1.84-.2-2.84-.14-.99-1.64-1.66 11.34-17.5 22.34-33.66 11-16.17 22.83-35.67H63.83q-22.06 0-36.28-14.45-14.22-14.45-14.22-35.1 0-21.28 14.72-36.03t36.12-14.75h64v-16.17q0-20.73 14.66-35.62Q157.5-679 178.67-679q21.16 0 36 14.88 14.83 14.89 14.83 35.62v16.17h121q20.33 0 34.92 14.83Q400-582.67 400-561.67t-14.58 35.34Q370.83-512 350.5-512h7.33q-20.33 40.5-45.51 76.66-25.19 36.16-50.15 71.01ZM397.83-60l-10.16 21.7q-4.5 13.97-16.71 22.05t-27.24 8.08q-26.95 0-41.5-21.91-14.55-21.92-3.55-47.09l111.16-257.16q6.5-16.17 20.9-25.75 14.4-9.59 31.46-9.59h47.07q16.86 0 31.13 9.59 14.27 9.58 21.61 24.58L674.5-76q10.67 24.83-3.99 46.33t-41.79 21.5q-16.39 0-29.61-8.6-13.22-8.6-18.94-23.23l-9.34-20h-173Z"/></svg>