<svg xmlns="http://www.w3.org/2000/svg" height="48" viewBox="0 -960 960 960" width="48"><path d="M390.04-181.69H524.5l-68.19-171.39-66.27 171.39Zm506.88-319.23q0 23.57-17.36 39.79-17.37 16.21-42.14 16.21H518.34q-10.8 0-17.88-7.08-7.08-7.08-7.08-17.63 0-10.37 7.08-17.45 7.08-7.07 17.88-7.07h318.27q5.08 0 8.08-2.31t3-5.39v-338.46q0-3.07-3-5.38t-8.08-2.31H333.58q-5.27 0-8.48 2.31-3.22 2.31-3.22 5.38v115.73q0 10.81-7.07 17.89-7.08 7.08-17.89 7.08-11.19 0-17.73-7.08-6.54-7.08-6.54-17.89v-116.65q0-23.58 17.68-39.79 17.67-16.21 42.37-16.21h504.8q24.69 0 42.06 16.21 17.36 16.21 17.36 39.79v340.31Zm-49.23 6.77V-848-494.15ZM392.62-634.61h39.46v-103.16q0-2.31 1.92-4.23 1.92-1.92 4.23-1.92h61.92q2.31 0 4.23 1.92 1.93 1.92 1.93 4.23v6.69q0 8.34 5.73 13.77 5.72 5.43 14.11 5.43t14-5.43q5.62-5.43 5.62-13.77v-19.19q0-13.39-9.86-23.25t-23.26-9.86h-86.23q-14.16 0-23.98 9.86t-9.82 23.25v115.66Zm266.42 75.84h86.23q12.64 0 22.88-10.2 10.23-10.19 10.23-23.61v-17.73q0-8.26-5.71-14.07-5.71-5.81-14.08-5.81-8.36 0-14.01 5.81-5.66 5.81-5.66 14.07v5.93q0 2.3-1.92 4.23-1.92 1.92-4.23 1.92h-61.92q-2.31 0-4.24-1.92-1.92-1.93-1.92-4.23v-133.39q0-2.31 1.92-4.23 1.93-1.92 4.24-1.92h61.92q2.31 0 4.23 1.92 1.92 1.92 1.92 4.23v6.69q0 8.34 5.73 13.77t14.12 5.43q8.38 0 14-5.43 5.61-5.43 5.61-13.77v-19.19q0-12.64-10.23-22.88-10.24-10.23-22.88-10.23h-86.23q-13.81 0-23.81 10.23-10 10.24-10 22.88v157.69q0 13.42 10 23.61 10 10.2 23.81 10.2ZM264.5-378.84q14.38 17.22 27.62 30.57 13.23 13.35 27.5 27.23l-19 50.35q-17.58-16.39-33.91-32.93-16.32-16.54-34.67-37.27l-76.85 73.7q-7.66 7.38-18.58 7.42-10.92.04-16.8-7.85-6.96-7.57-5.96-17.32t7.38-16.71l78.96-77.54q-10.3-12-19.57-24.58-9.27-12.58-18.31-25.85-7.08-9.5-4.56-19.19 2.52-9.69 9.83-15.31 7.31-5.61 17.75-5.21 10.44.41 18.4 10.21 7.01 10.32 14.12 20.34 7.11 10.01 15 19.4 22.3-28.24 41.21-55.06 18.9-26.83 32.21-59.18H88.04q-10.91 0-17.93-7.07-7.03-7.08-7.03-17.89 0-10.5 7.03-17.38 7.02-6.89 17.93-6.89h120.92v-34.54q0-9.84 6.73-17 6.73-7.15 17.54-7.15 10.81 0 17.89 7.15 7.07 7.16 7.07 17v34.54h125.54q9.97 0 17.12 7.08t7.15 17.54q0 10.46-7.15 17.54-7.15 7.07-17.12 7.07h-22.61q-16.62 43.16-41.7 81.38-25.08 38.23-54.92 73.4Zm109.69 239.38-29.65 75.1q-2.43 6.74-8.42 10.69-6 3.94-12.78 3.94-13.4 0-20.45-10.81-7.04-10.81-1.89-22.34l124.27-303.89q2.85-6.77 9.08-10.92 6.23-4.16 13.38-4.16h20.12q6.5 0 12.96 4.16 6.46 4.15 9.5 10.42l125.57 305.5q4.46 11.42-2.48 21.73-6.94 10.31-19.96 10.31-7.56 0-13.86-4.1-6.31-4.09-8.16-10.86l-29.77-74.77H374.19Z"/></svg>