<svg xmlns="http://www.w3.org/2000/svg" height="40" viewBox="0 -960 960 960" width="40"><path d="M437.93-172.25h115.4L494.8-327.06l-56.87 154.81Zm234.61-389.69h92.25q15.5 0 26.69-11.11 11.19-11.11 11.19-26.77v-18.38q0-12.07-8.01-20.17-8.01-8.09-20.25-8.09-12.25 0-20.26 8.09-8.01 8.1-8.01 20.17v1.33h-55.19v-128.81h55.19v1.33q0 12.25 8.01 20.26 8 8 20.24 8 12.24 0 20.26-8 8.02-8.01 8.02-20.26v-18.22q0-15.66-11.19-26.85-11.19-11.19-26.69-11.19h-92.25q-15.5 0-26.68 11.19-11.19 11.19-11.19 26.85v162.75q0 15.66 11.19 26.77 11.18 11.11 26.68 11.11ZM282.03-345.09q14.56 16.28 31.87 32.3 17.32 16.03 31.87 29.71l-29.37 68.25q-17.8-15.84-39.28-36.41-21.48-20.57-41.24-41.35l-87.71 85.1q-10.37 10.04-24.79 9.92-14.41-.12-23.94-11.14-9.69-10.6-8.74-24.64.94-14.04 10.87-23.64l89.15-86.97q-12.19-14.55-22.99-28.82-10.8-14.27-20.75-29.88-9.65-14.4-5.84-27.11 3.81-12.71 14.32-20.24 10.52-7.53 24.42-6.23 13.91 1.29 22.84 15.19 7.48 11.7 16.01 23.44 8.54 11.73 18.05 22.75 23.45-28.78 41.82-57.93 18.36-29.16 32.22-62.37H66.49q-14.74 0-24.6-9.76-9.86-9.77-9.86-24.48 0-14.64 9.98-24.63 9.98-9.98 24.56-9.98h131.2v-27.58q0-14.84 9.86-24.69 9.85-9.86 24.69-9.86 14.83 0 24.69 9.86 9.85 9.85 9.85 24.69v27.58h147.66q14.74 0 24.52 9.86 9.78 9.85 9.78 24.69 0 14.83-9.78 24.57-9.78 9.73-24.52 9.73h-30.64q-17.79 47.12-43.41 89.21-25.62 42.08-58.44 80.86Zm134.5 231.7-22.25 60.08q-3.32 9.35-11.6 15.2-8.28 5.84-18.72 5.84-17.51 0-27.68-14.82-10.17-14.83-3.38-31.22l115.83-293.12q4.3-10.09 13.36-16.42 9.05-6.33 20.15-6.33h28.74q11.09 0 20.09 6.48 9 6.47 13.51 16.36l116.5 293.7q6.78 16.39-3.43 30.88-10.21 14.49-27.79 14.49-10.6 0-19.39-6.28-8.79-6.28-12.4-16l-22.68-58.84H416.53Zm440.35-321.03H581.56q-16.32 0-27.18-10.86-10.85-10.85-10.85-27.02v-116.9q0-22.82-15.66-38.53-15.65-15.7-38.41-15.7h-36.81v-102.25h54.96v1.33q0 12.23 8 20.24 8.01 8.02 20.24 8.02 12.24 0 20.26-8 8.02-8.01 8.02-20.26v-18.22q0-15.66-11.19-26.85-11.19-11.19-26.69-11.19h-92.24q-16.17 0-27.02 10.95-10.86 10.94-10.86 27.09v119.14h-41.38v-65.9h-47.38q-16.17 0-27.02-10.85-10.86-10.86-10.86-27.18v-111.52q0-28.83 21.07-48.96 21.06-20.13 50.85-20.13h515.47q29.72 0 50.4 20.13 20.69 20.13 20.69 48.96v355.21q0 29.06-20.69 49.15-20.68 20.1-50.4 20.1Z"/></svg>