<svg xmlns="http://www.w3.org/2000/svg" height="24" viewBox="0 -960 960 960" width="24"><path d="M454.35-127.83h97.3l-48.43-134.04-48.87 134.04Zm513.69-397.43q0 45.65-31.95 77.61-31.96 31.95-77.61 31.95H593.61q-22.76 0-38.27-15.97-15.51-15.98-15.51-38.81 0-22.82 15.97-38.8 15.98-15.98 38.81-15.98h263.87v-334.22H354.57v54.57q0 22.82-15.98 38.8-15.98 15.98-38.53 15.98-22.54 0-38.52-15.98-15.98-15.98-15.98-38.8v-54.57q0-45.89 31.95-77.44 31.95-31.56 77.06-31.56h503.91q45.65 0 77.61 31.56 31.95 31.55 31.95 77.44v334.22Zm-109.56 0v-334.22 334.22ZM399.3-663.7h79.4v-78.47h25.52v.56q0 16.94 11.63 28.32 11.63 11.38 28.13 11.38t28.35-11.38q11.84-11.38 11.84-28.32v-2.17q0-28.26-20.69-48.18-20.7-19.91-48.96-19.91h-47.13q-28.26 0-48.17 19.91-19.92 19.92-19.92 48.18v80.08Zm300.22 91.83h47.13q28.26 0 48.18-19.91 19.91-19.92 19.91-48.18v-1.61q0-16.93-11.63-28.31-11.63-11.38-28.13-11.38t-28.07 11.38q-11.56 11.38-11.56 28.31h-25.52v-100.6h25.52q0 16.56 11.63 28.13 11.63 11.56 28.13 11.56t28.06-11.38q11.57-11.38 11.57-28.31v-1.61q0-28.26-19.91-48.18-19.92-19.91-48.18-19.91h-47.13q-28.82 0-48.45 19.91-19.64 19.92-19.64 48.18v103.82q0 28.26 19.64 48.18 19.63 19.91 48.45 19.91ZM291.17-322q12.83 9.57 25.72 19.13 12.89 9.57 26.28 18.7l-58.04 100.3q-17.39-13.69-34.35-27.26-16.95-13.57-32.08-28.13l-57.87 51.61q-16.26 15.13-37.81 13.91-21.54-1.22-37.24-17.98-15.69-16.76-14.41-39.37 1.28-22.61 19.11-38.3l57.17-47.91q-8.79-11.45-17.85-22.68-9.06-11.24-18.5-22.98-16.82-23.39-10.47-44.43 6.34-21.04 23.32-32.74 16.98-11.7 39.09-10.2 22.11 1.5 36.8 24.9 3.88 7.1 9.11 14.56 5.23 7.45 10.55 13.26 17.06-22.08 31.63-46.3 14.58-24.22 27.02-50.83H45.74q-22.83 0-38.52-15.39-15.7-15.39-15.7-38.39 0-22.26 15.98-38.52t38.8-16.26h88.79v-9.79q0-22.82 15.97-38.8 15.98-15.98 38.81-15.98 22.83 0 38.8 15.98 15.98 15.98 15.98 38.8v9.79h176.74q22.83 0 38.52 16.28 15.7 16.28 15.7 38.8 0 22.52-15.7 38-15.69 15.48-38.52 15.48h-23.65q-21.7 47.44-48.98 90.09Q321.48-362 291.17-322ZM421.52-39.65l-5.91 13.61q-5.57 15.69-19 24.82-13.44 9.13-30.26 9.13-28.78 0-44.26-23.32-15.48-23.33-4.79-49.72l103.61-257.7q7.13-17.26 23.01-28.17 15.87-10.91 35.47-10.91h49.79q19.6 0 35.47 10.63 15.87 10.63 23 28.45l104.18 256.7q10.69 26.39-5.37 50.22Q670.4 7.91 641.69 7.91q-17.34 0-31.69-9.65-14.34-9.66-19.74-25.87l-5.78-12.04H421.52Z"/></svg>