<svg xmlns="http://www.w3.org/2000/svg" height="24" viewBox="0 -960 960 960" width="24"><path d="M457.41-171H565.5l-54.54-143.17L457.41-171Zm462.16-336.3q0 30.28-21.48 51.64t-53.02 21.36H577.28q-15.65 0-26.82-11.18-11.18-11.17-11.18-26.82 0-15.66 11.18-26.83 11.17-11.17 26.82-11.17h266.29v-334.27H324.89v65.33q0 15.65-11.17 26.83-11.18 11.17-26.83 11.17-15.65 0-26.82-11.17-11.18-11.18-11.18-26.83v-68.33q0-30.28 21.48-51.64t53.02-21.36h521.68q31.54 0 53.02 21.36 21.48 21.36 21.48 51.64v340.27Zm-76-3v-334.27 334.27ZM375.96-669.07h60.82v-66.45h53.59v4.24q0 12.71 8.85 21.56 8.85 8.85 21.56 8.85 12.72 0 21.57-8.85t8.85-21.56v-20.15q0-17.66-12.8-30.33-12.79-12.67-30.44-12.67h-89q-17.66 0-30.33 12.67-12.67 12.67-12.67 30.33v82.36ZM661-560.43h89q17.65 0 30.33-12.68Q793-585.78 793-603.43v-19.92q0-12.72-8.85-21.56-8.85-8.85-21.56-8.85-12.72 0-21.57 8.85-8.85 8.84-8.85 21.56v4h-53.58v-116.17h53.58v4q0 12.72 8.85 21.56 8.85 8.85 21.57 8.85 12.71 0 21.56-8.85 8.85-8.84 8.85-21.56v-19.91q0-17.66-12.67-30.33-12.68-12.67-30.33-12.67h-89q-17.65 0-30.33 12.67Q618-769.09 618-751.43v148q0 17.65 12.67 30.32 12.68 12.68 30.33 12.68ZM306.24-353.76q14.72 15.78 33.12 32.74 18.4 16.95 32.62 29.98l-32.65 75.34q-17.96-16-41.11-37.83-23.16-21.84-42.92-43.12l-90.65 89.22q-11.67 11.19-27.07 10.57-15.41-.62-26.1-12.29-10.68-11.92-10.32-26.94.36-15.02 11.77-25.95l92.44-90.26q-11.85-14.85-22.92-29.58-11.08-14.73-21.36-30.36-10.66-15.89-6.43-29.91t16.14-21.96q11.92-7.93 26.31-6.55 14.39 1.38 24.8 16.75 7.33 11.89 15.8 23.65 8.46 11.76 18.33 23.13 23.13-28.63 41.6-58.14 18.47-29.51 32.49-62.43H78.2q-15.4 0-26.58-11.05-11.19-11.05-11.19-26.71 0-15.39 11.31-26.69 11.3-11.31 26.69-11.31h134.35v-25.95q0-15.66 11.18-26.83 11.17-11.17 26.82-11.17t26.83 11.17q11.17 11.17 11.17 26.83v25.95h153.85q15.65 0 26.71 11.18 11.05 11.17 11.05 26.82 0 15.66-11.05 26.71-11.06 11.05-26.71 11.05h-32.87q-17.96 47.31-44.08 90.73-26.11 43.43-59.44 83.21Zm128.3 244.89-20.95 54.35q-3.98 10.17-13.05 16.76-9.06 6.59-20.24 6.59-19.6 0-30.28-16.15-10.67-16.14-3.24-34.51l112.35-277.69q4.46-11.41 14.25-17.98t22.45-6.57h32.47q12.66 0 22.45 6.7T565-359.26L678.35-81.33q7.43 18.37-3.24 34.26-10.68 15.9-30.28 15.9-11.92 0-21.47-6.46-9.56-6.46-13.77-17.63l-20.22-53.61H434.54Z"/></svg>