<svg xmlns="http://www.w3.org/2000/svg" height="40" viewBox="0 -960 960 960" width="40"><path d="M422.43-170.91h117.4l-59.7-151.48-57.7 151.48ZM921.3-505.67q0 29.56-21.43 50.07-21.44 20.51-51.82 20.51H547.4q-15.31 0-25.92-10.59-10.62-10.58-10.62-25.68t10.62-25.71q10.61-10.6 25.92-10.6h301.48v-341.88H327.24v83.69q0 15.3-10.62 25.92-10.61 10.61-25.92 10.61-15.23 0-25.64-10.61-10.4-10.62-10.4-25.92v-85.69q0-29.33 21.81-49.87 21.82-20.55 52.21-20.55h519.43q30.32 0 51.76 20.55 21.43 20.54 21.43 49.87v345.88Zm-72.42-2v-341.88 341.88ZM386.13-660.09h54.52v-82.92h55.86v4.23q0 11.47 7.98 19.29 7.97 7.81 19.35 7.81 11.38 0 19.29-7.81 7.91-7.82 7.91-19.29v-20.96q0-14.76-10.75-25.48t-25.54-10.72h-92.24q-15.17 0-25.77 10.72-10.61 10.72-10.61 25.48v99.65Zm276.91 98.81h92.25q14.28 0 25.16-10.77 10.88-10.78 10.88-25.6v-20.55q0-11.25-7.96-19.34-7.97-8.09-19.34-8.09-11.37 0-19.29 8.09-7.93 8.09-7.93 19.34v4h-55.86v-128.81h55.86v4q0 11.46 7.97 19.28 7.98 7.81 19.36 7.81 11.37 0 19.28-7.81 7.91-7.82 7.91-19.28v-20.73q0-14.44-10.88-25.32t-25.16-10.88h-92.25q-14.66 0-25.52 10.88-10.85 10.88-10.85 25.32v162.09q0 14.82 10.85 25.6 10.86 10.77 25.52 10.77ZM275.86-365.09q14.56 15.78 28.87 29.39 14.32 13.61 28.38 26.79l-30.71 72.08q-17.8-15.84-36.53-33.83t-38.16-39.09L156-240.65q-11.04 10.7-26.37 10.25-15.33-.46-25.02-11.81-10.02-11.26-9.08-25.55.95-14.29 11.38-24.4l73.65-72.3q-8.2-10.22-15.91-20.32-7.72-10.1-15.67-20.55-10.82-14.57-7.09-28.36 3.73-13.79 14.86-21.98 11.13-8.2 26.08-7.41 14.96.8 25.72 15.53 4.77 6.52 9.82 13.26 5.06 6.75 10.41 13.43 19.45-25.61 35.65-49.77 16.2-24.15 29.55-52.53H74.99q-15.47 0-25.88-10.43-10.41-10.43-10.41-25.64 0-14.98 10.53-25.55 10.53-10.56 25.84-10.56h113.2v-28.09q0-14.9 10.36-25.47 10.35-10.57 25.69-10.57 15.33 0 25.85 10.57 10.52 10.57 10.52 25.47v28.09h126.33q14.8 0 25.3 10.52t10.5 25.69q0 15.17-10.5 25.57t-25.3 10.4h-13.97q-17.8 43.29-42.6 82.37-24.8 39.08-54.59 75.7Zm124.51 254.37-22.09 56.44q-3.48 9.66-12.14 15.58-8.66 5.93-19.12 5.93-18.96 0-29.27-15.57-10.3-15.58-2.85-33.14l117-283.29q4.47-10.58 13.92-17 9.46-6.41 20.92-6.41h30.91q11.26 0 20.76 6.48 9.5 6.47 14.17 16.53L650.91-80.31q7.12 17.22-3.16 32.38-10.28 15.16-29.18 15.16-11.31 0-20.43-6.11-9.12-6.12-12.9-16.34l-22.02-55.5H400.37Z"/></svg>