<svg xmlns="http://www.w3.org/2000/svg" height="24" viewBox="0 -960 960 960" width="24"><path d="M479-184h107l-54-152-53 152Zm441-316q0 25-17 42.5T860-440H630q-13 0-21.5-8.5T600-470q0-13 8.5-21.5T630-500h230v-360H340v130q0 13-8.5 21.5T310-700q-13 0-21.5-8.5T280-730v-130q0-25 17-42.5t43-17.5h520q26 0 43 17.5t17 42.5v360Zm-60 0v-360 360ZM390-640h60v-100h60q0 13 8.5 21.5T540-710q13 0 21.5-8.5T570-740v-20q0-17-11.5-28.5T530-800H430q-17 0-28.5 11.5T390-760v120Zm280 80h100q17 0 28.5-11.5T810-600v-20q0-13-8.5-21.5T780-650q-13 0-21.5 8.5T750-620h-60v-120h60q0 13 8.5 21.5T780-710q13 0 21.5-8.5T810-740v-20q0-17-11.5-28.5T770-800H670q-17 0-28.5 11.5T630-760v160q0 17 11.5 28.5T670-560ZM321-324q14 17 37.5 39.5T396-248l-23 61q-17-16-45-43.5T280-280L151-151q-9 9-21 9t-21-9q-9-9-9-21.5t9-21.5l131-129q-20-23-37.5-46.5T171-419q-7-13-3-23.5t13-15.5q9-5 19.5-3t16.5 13q13 23 28.5 45.5T280-360q32-36 56-76t39-84H70q-12 0-21-8.5T40-550q0-12 9-21t21-9h180v-30q0-13 8.5-21.5T280-640q13 0 21.5 8.5T310-610v30h188q13 0 21.5 8.5T528-550q0 13-8.5 21.5T498-520h-66q-17 54-44.5 103T321-324Zm139 192-26 73q-3 8-10.5 13.5T407-40q-15 0-23.5-12.5T380-79l113-302q3-9 10.5-14t17.5-5h23q10 0 17.5 5.5T572-380L685-79q5 14-3.5 26.5T658-40q-9 0-16.5-5.5T631-60l-26-72H460Z"/></svg>