<svg xmlns="http://www.w3.org/2000/svg" height="40" viewBox="0 -960 960 960" width="40"><path d="M420.83-180h119l-60.5-154.67L420.83-180Zm492.5-322q0 25.5-18.75 43.42-18.75 17.91-45.41 17.91H552.5q-13.5 0-22.67-9.16-9.16-9.17-9.16-22.5 0-13.34 9.16-22.5Q539-504 552.5-504H850v-346.67H325.17v98.84q0 13.5-9.17 22.66-9.17 9.17-22.67 9.17-13.5 0-22.5-9.17-9-9.16-9-22.66v-100.84q0-25.5 19.09-43.41Q300-914 326.61-914h522.62q26.6 0 45.35 17.92 18.75 17.91 18.75 43.41V-502ZM850-504V-850.67-504ZM385.33-656.67h51.34v-86.66h62v4q0 10.89 7.47 18.19 7.47 7.31 18.27 7.31 10.81 0 18.2-7.31 7.39-7.3 7.39-18.19v-23.84q0-12.95-9.27-22.22-9.28-9.28-22.23-9.28H417.17q-13.34 0-22.59 9.28-9.25 9.27-9.25 22.22v106.5ZM658.5-560h101.33q12.45 0 21.98-9.5 9.52-9.5 9.52-22.33v-23.5q0-10.85-7.46-18.34-7.46-7.5-18.25-7.5t-18.2 7.5q-7.42 7.49-7.42 18.34v4h-62v-132h62v4q0 10.89 7.47 18.19 7.47 7.31 18.27 7.31 10.81 0 18.2-7.31 7.39-7.3 7.39-18.19v-23.84q0-12.45-9.52-21.97-9.53-9.53-21.98-9.53H658.5q-12.83 0-22.33 9.53-9.5 9.52-9.5 21.97v171.34q0 12.83 9.5 22.33 9.5 9.5 22.33 9.5ZM280.17-365.33q14 16.5 28.83 31.58 14.83 15.08 28.33 28.58L313-240.33q-17-16-36.25-35.59-19.25-19.58-38.92-41.25l-83.66 82.34q-9.67 9.66-23.25 9.33-13.59-.33-22.09-10.33-8.66-9.67-8-22.09.67-12.41 9.5-21.25l86.17-86.33q-10-12-19.08-24-9.09-12-17.75-24.83-8.84-12.5-5.59-24.42 3.25-11.92 12.87-18.92 9.61-7 22.5-6.16 12.88.83 22.05 13.33 6.28 9.15 12.97 18.33 6.7 9.17 14.2 18.17 22-28.17 39.83-54.83 17.83-26.67 31.67-57.84H78.5q-13.4 0-22.62-9.16-9.21-9.17-9.21-22.67 0-13 9.21-22.25Q65.1-590 78.5-590h128.67v-31.83q0-13.07 9-22.29 9-9.21 22.5-9.21t22.66 9.21q9.17 9.22 9.17 22.29V-590h128q13.06 0 22.28 9.17 9.22 9.16 9.22 22.5 0 13.33-9.22 22.5-9.22 9.16-22.28 9.16h-20.67q-17 44.17-41.68 84.17-24.68 39.99-55.98 77.17Zm121 238.66L375.33-59.3q-3.16 8.3-10.71 13.55-7.54 5.25-16.57 5.25-16.44 0-25.41-13.58-8.97-13.59-2.64-28.75l118.83-291.5q3.84-8.84 11.74-14.25 7.9-5.42 17.6-5.42H494q9.5 0 17.5 5.5t11.83 14L643.5-81.67q6 14.84-2.9 28-8.9 13.17-25.23 13.17-9.7 0-17.54-5.33-7.83-5.34-11-14.17l-26-66.67H401.17Z"/></svg>