<svg xmlns="http://www.w3.org/2000/svg" height="40" viewBox="0 -960 960 960" width="40"><path d="M382.37-184.62h143.75l-72.43-181.97-71.32 181.97Zm494.81-316.23q0 21.66-15.74 36.5-15.73 14.84-38.94 14.84H502.63q-8.12 0-13.44-5.32t-5.32-13.27q0-7.57 5.32-12.89t13.44-5.32h319.09q7.74 0 13.2-4.61 5.46-4.62 5.46-10.77v-323.59q0-6.16-5.46-10.77-5.46-4.62-13.2-4.62H333.73q-8.13 0-13.47 4.62-5.35 4.61-5.35 10.77v117.29q0 8.12-5.32 13.44t-13.44 5.32q-8.62 0-13.33-5.32-4.7-5.32-4.7-13.44v-118.14q0-21.65 15.81-36.49 15.81-14.84 38.98-14.84h489.63q23.17 0 38.9 14.84 15.74 14.84 15.74 36.49v325.28Zm-36.8 14.54v-354.36V-486.31ZM391.1-620.9h31.46v-105.51q0-4.62 3.85-8.46 3.85-3.85 8.46-3.85h61.1q4.62 0 8.47 3.85 3.84 3.84 3.84 8.46v9.64q0 6.56 4.52 10.84 4.51 4.28 11.28 4.28 6.78 0 11.22-4.28t4.44-10.84v-14.47q0-15.63-11.65-27.29-11.65-11.65-27.28-11.65h-70.05q-16.4 0-28.03 11.65-11.63 11.66-11.63 27.29v110.34Zm264.96 64.11h70.06q15.13 0 27.03-11.88t11.9-27.78v-12.22q0-6.51-4.5-11.17-4.51-4.66-11.27-4.66-6.75 0-11.22 4.66-4.47 4.66-4.47 11.17v8.11q0 4.61-3.85 8.46-3.84 3.84-8.46 3.84h-61.1q-4.62 0-8.46-3.84-3.85-3.85-3.85-8.46v-125.85q0-4.62 3.85-8.46 3.84-3.85 8.46-3.85h61.1q4.62 0 8.46 3.85 3.85 3.84 3.85 8.46v9.64q0 6.56 4.51 10.84 4.52 4.28 11.29 4.28 6.78 0 11.22-4.28t4.44-10.84v-14.47q0-15.13-11.9-27.04-11.9-11.9-27.03-11.9h-70.06q-16.42 0-28.03 11.9-11.62 11.91-11.62 27.04v134.79q0 15.9 11.62 27.78 11.61 11.88 28.03 11.88ZM270.94-386.56q14.76 17.6 28.89 31.59 14.13 14 29.43 28.26l-14.34 37.53q-18.15-16.77-34.52-33.02-16.36-16.25-33.72-36.12l-83.41 79.51q-6.07 5.44-14.08 5.68-8.01.25-12.28-5.78-5.33-5.82-4.54-13.11.8-7.29 5.4-12.79l85.14-81.97q-13.08-15.21-24.66-31.44t-22.56-33.29q-5.24-7.5-3.21-14.8 2.03-7.31 7.55-11.42 5.51-4.12 13.01-3.73 7.5.38 13.84 7.76 9.33 14.98 19.31 29.12 9.98 14.14 21.19 27.37 25.08-30.34 46.57-60.98 21.49-30.64 34.93-67.45h-227.3q-8.28 0-13.52-5.32t-5.24-13.44q0-8 5.24-13.02t13.52-5.02h128.53v-36.09q0-7.14 4.97-12.51 4.96-5.37 13.07-5.37 8.12 0 13.44 5.37t5.32 12.51v36.09h140.56q7.3 0 12.67 5.32 5.37 5.33 5.37 13.08 0 7.76-5.37 13.08t-12.67 5.32h-37.2q-16.23 44.94-42.39 84.23-26.16 39.29-56.94 74.85Zm99.07 233.74L336.87-70.3q-2.01 5.33-6.54 8.33-4.53 3.01-9.6 3.01-10.49 0-15.7-8.2-5.21-8.2-1.31-16.7l126.65-312.01q1.78-5.12 6.38-7.97 4.59-2.85 9.88-2.85h15.06q4.5 0 9.3 2.81 4.79 2.8 6.96 7.59L605.81-83.21q3.18 8.68-1.96 16.47-5.14 7.78-15.13 7.78-5.75 0-10.57-3.03-4.82-3.02-5.93-8.14l-32.8-82.69H370.01Z"/></svg>