<svg xmlns="http://www.w3.org/2000/svg" height="40" viewBox="0 -960 960 960" width="40"><path d="M401.6-182.31h131.37l-66.46-168.32-64.91 168.32Zm493.66-319.11q0 23.57-17.25 39.95-17.24 16.38-42.18 16.38H527.56q-10.81 0-18.05-7.24-7.24-7.25-7.24-17.89 0-10.45 7.24-17.69 7.24-7.24 18.05-7.24h307.3q4.54 0 7.43-2.31 2.9-2.31 2.9-5.39v-335.12q0-3.08-2.9-5.39-2.89-2.31-7.43-2.31H330.78q-4.73 0-7.74 2.31-3 2.31-3 5.39v108.06q0 10.81-7.25 18.05-7.24 7.25-18.05 7.25-11.06 0-17.91-7.25-6.85-7.24-6.85-18.05V-839.4q0-23.57 17.44-39.95 17.45-16.38 42.34-16.38h506.12q24.89 0 42.13 16.38 17.25 16.38 17.25 39.95v337.98Zm-50.07 6.27v-350.52 350.52ZM388.22-638.78h41.4v-96.09q0-2.31 1.92-4.23 1.92-1.93 4.23-1.93h61.55q2.31 0 4.23 1.93 1.92 1.92 1.92 4.23v6.82q0 8.72 6 14.51 5.99 5.8 14.78 5.8t14.7-5.8q5.92-5.79 5.92-14.51v-19.15q0-14.29-10.46-24.76-10.47-10.46-24.76-10.46h-85.69q-14.86 0-25.3 10.46-10.44 10.47-10.44 24.76v108.42Zm269.06 80.38h85.69q13.79 0 24.51-10.69 10.71-10.69 10.71-25.05V-612q0-8.68-5.98-14.75-5.98-6.08-14.76-6.08-8.77 0-14.71 6.08-5.95 6.07-5.95 14.75v6.05q0 2.31-1.92 4.23-1.92 1.93-4.23 1.93h-61.55q-2.31 0-4.23-1.93-1.93-1.92-1.93-4.23v-128.92q0-2.31 1.93-4.23 1.92-1.93 4.23-1.93h61.55q2.31 0 4.23 1.93 1.92 1.92 1.92 4.23v6.82q0 8.72 6 14.51 5.99 5.8 14.78 5.8t14.7-5.8q5.92-5.79 5.92-14.51v-19.15q0-13.79-10.71-24.51-10.72-10.71-24.51-10.71h-85.69q-14.63 0-25.18 10.71-10.56 10.72-10.56 24.51v153.06q0 14.36 10.56 25.05 10.55 10.69 25.18 10.69ZM275.55-375.95q14.38 17.05 28.87 31.59 14.48 14.54 28.87 28.42l-19.33 51.18q-17.58-16.38-35.38-34.3-17.81-17.92-36.32-38.69l-83.54 80.93q-7.87 7.55-18.67 7.5-10.79-.04-17.18-8.05-7-7.75-6.27-17.6.73-9.85 7.45-17.02l85.66-84.15q-11.54-13.6-21.88-27.72-10.33-14.12-20.15-29.06-7.04-10-4.4-19.61 2.64-9.61 10.21-15.17 7.56-5.56 17.75-4.95 10.2.61 17.95 10.55 7.8 12.07 16.14 23.72 8.34 11.66 17.7 22.78 23.53-29.26 43.19-57.91 19.66-28.66 33.31-62.64H90.04q-10.84 0-18.07-7.25-7.23-7.24-7.23-18.05 0-10.5 7.23-17.63 7.23-7.14 18.07-7.14h128.6v-33.96q0-10.1 6.98-17.4 6.98-7.29 17.79-7.29 10.81 0 18.05 7.29 7.24 7.3 7.24 17.4v33.96h134.29q10.18 0 17.47 7.25 7.3 7.24 7.3 17.78 0 10.55-7.3 17.79-7.29 7.25-17.47 7.25h-28.94q-16.62 44.55-42.03 84.19-25.42 39.64-56.47 76.01Zm110.04 236.21L356.1-64.8q-2.59 6.81-8.62 10.94-6.04 4.13-13.09 4.13-13.47 0-20.56-10.89-7.09-10.89-1.97-22.73L434.6-385.1q2.81-6.98 9.06-11.11 6.24-4.14 13.74-4.14h20.44q7 0 13.4 4.16 6.4 4.15 9.4 10.79L624.65-82.44q4.59 11.76-2.43 22.23-7.02 10.48-20.17 10.48-7.73 0-14.06-4.18-6.32-4.18-8.47-11.15l-29.39-74.68H385.59Z"/></svg>