<svg xmlns="http://www.w3.org/2000/svg" height="24" viewBox="0 -960 960 960" width="24"><path d="M408.23-186.31h138.54l-69.39-180.46-69.15 180.46ZM880-500q0 21.15-15.08 35.96-15.07 14.81-38 14.81h-290q-7.61 0-12.65-5.04t-5.04-12.65q0-7.62 5.04-12.66t12.65-5.04h290q6.93 0 12.31-4.61 5.39-4.62 5.39-10.77v-329.23q0-6.15-5.39-10.77-5.38-4.62-12.31-4.62H338.46q-6.92 0-12.31 4.62-5.38 4.62-5.38 10.77v130.77q0 7.61-5.04 12.65t-12.65 5.04q-7.62 0-12.66-5.04t-5.04-12.65v-130.77q0-21.15 15.08-35.96 15.08-14.81 38-14.81h488.46q22.93 0 38 14.81Q880-850.38 880-829.23V-500Zm-35.38 15.38v-360 360ZM393.08-613.85h35.38v-110.77q0-4.61 3.85-8.46 3.84-3.84 8.46-3.84h60q4.61 0 8.46 3.84 3.85 3.85 3.85 8.46v7.7q0 7.61 5.04 12.65 5.03 5.04 12.65 5.04 7.61 0 12.65-5.04t5.04-12.65v-12.31q0-17.77-12.65-30.42-12.66-12.66-30.43-12.66h-69.23q-17.77 0-30.42 12.66-12.65 12.65-12.65 30.42v115.38Zm267.69 56.93H730q17.77 0 30.42-12.66 12.66-12.65 12.66-30.42v-10.77q0-7.61-5.04-12.65t-12.66-5.04q-7.61 0-12.65 5.04t-5.04 12.65v6.15q0 4.62-3.84 8.47-3.85 3.84-8.47 3.84h-60q-4.61 0-8.46-3.84-3.84-3.85-3.84-8.47v-120q0-4.61 3.84-8.46 3.85-3.84 8.46-3.84h60q4.62 0 8.47 3.84 3.84 3.85 3.84 8.46v7.7q0 7.61 5.04 12.65t12.65 5.04q7.62 0 12.66-5.04t5.04-12.65v-12.31q0-17.77-12.66-30.42-12.65-12.66-30.42-12.66h-69.23q-17.77 0-30.42 12.66-12.66 12.65-12.66 30.42V-600q0 17.77 12.66 30.42 12.65 12.66 30.42 12.66ZM289.46-367.85q14.77 17 32.5 34.5T356-301.08l-13.77 35.62q-18.54-16.77-38.85-36.58-20.3-19.81-38-39.5L161.77-241q-5.92 5.15-12.92 5.54-7 .38-12.16-5.54-5.15-5.92-4.77-13.04.39-7.11 5.54-12.27l104.85-101.31q-17.69-20.69-32.5-41.88Q195-430.69 181-453.62q-4.69-8.38-2.62-14.65 2.08-6.27 8-9.73 5.93-3.46 12.2-2.62 6.27.85 10.73 8 12.23 20.7 26.57 40.5 14.35 19.81 30.27 39.04 29.7-33.69 53.7-70.61 24-36.93 38.23-79.39H97.69q-7.38 0-12.54-5.04Q80-553.15 80-560.77q0-7.38 5.15-12.54 5.16-5.15 12.54-5.15h151.54v-34.62q0-7.61 5.04-12.65t12.65-5.04q7.62 0 12.66 5.04t5.04 12.65v34.62h167.23q7.61 0 12.65 5.04t5.04 12.65q0 7.62-5.04 12.65-5.04 5.04-12.65 5.04h-57.54q-16.23 49.39-43.35 92.62-27.11 43.23-61.5 82.61Zm106.69 212.77-32.92 85.31q-2.23 4.92-6.27 8.12-4.04 3.19-9.96 3.19-9.62 0-14.65-7.5-5.04-7.5-1.58-16.12l123.77-316.61q2.23-5.16 6.27-7.85 4.04-2.69 9.42-2.69H484q5.39 0 9.42 2.81 4.04 2.8 6.27 7.96L624.23-82.08q3.46 8.62-1.58 16.12-5.03 7.5-14.65 7.5-5.92 0-9.96-3.19-4.04-3.2-6.27-8.35l-32.92-85.08h-162.7Z"/></svg>