<svg xmlns="http://www.w3.org/2000/svg" height="40" viewBox="0 -960 960 960" width="40"><path d="M441.33-140.67h110l-56-144.33-54 144.33ZM955.67-517q0 41.94-30.07 71.31-30.07 29.36-71.93 29.36H560.33q-20.84 0-35.59-14.45Q510-445.22 510-466.28q0-21.05 14.55-35.89Q539.11-517 560.67-517h295v-339h-510v64.33q0 20.96-14.56 35.82Q316.56-741 295.5-741q-20.77 0-35.13-14.55Q246-770.11 246-791.67V-856q0-41.42 30.57-70.21Q307.14-955 348.27-955h505.46q41.8 0 71.87 28.79 30.07 28.79 30.07 70.21v339Zm-100 0v-339 339ZM399.33-655h67.34v-90.33H501v2.33q0 14.61 9.8 24.14 9.8 9.53 23.66 9.53t24.37-9.53q10.5-9.53 10.5-24.14v-8q0-23.08-16.45-38.88-16.45-15.79-38.88-15.79h-61.33q-23.17 0-38.25 15.79-15.09 15.8-15.09 38.88v96ZM689-567h60.67q22.66 0 38.33-15 15.67-15 15.67-38.33v-8.34q0-13.36-10.16-23.51-10.16-10.15-24.04-10.15-13.89 0-23.51 10.15-9.63 10.15-9.63 23.51v1.34H702v-118h34.33v1.33q0 14.31 9.8 23.99 9.8 9.68 23.66 9.68t23.87-9.53q10.01-9.53 10.01-24.14v-7q0-23.33-15.67-39-15.67-15.67-38.33-15.67H689q-23.67 0-38.83 15.67Q635-774.33 635-751v130.67Q635-597 650.17-582q15.16 15 38.83 15ZM267.67-344q15.66 12.67 30.5 23.67 14.83 11 31.5 23l-51 93q-20.67-15-40-30-19.34-15-37.34-32.67L155-228q-15.39 14-35.53 13.33-20.14-.66-34.8-16.16-13.34-15.5-11.84-36.17t17.5-35L136-340q-5.45-8.61-11.89-16.31-6.44-7.69-12.78-15.69-17.66-21.33-11.66-40.33T120.83-443q15.17-11.67 36.67-10.5T193-431q1.24 2.26 4.71 6.65 3.48 4.38 5.29 6.02 13.47-19.83 27.23-39.92Q244-478.33 255.33-503H54.67q-21.94 0-35.8-14.02Q5-531.03 5-551.52 5-572 19.37-587 33.73-602 55-602h78v-14.33q0-21.07 14.17-35.54 14.16-14.46 35.83-14.46 21.67 0 35.83 14.16Q233-638 233-616.33V-602h141.67q20.66 0 34.83 14.99 14.17 14.99 14.17 35.5 0 20.51-14.17 34.51-14.17 14-34.83 14h-7.34q-21 44.33-46.83 83t-52.83 76Zm144 285.33-10 22.53q-5.34 13.47-16.6 21.81Q373.8-6 357.99-6q-26.68 0-40.67-21.5-13.99-21.5-3.99-45.83l109-265.67q6-15.67 20.9-25.33 14.9-9.67 31.8-9.67h45.39q16.46 0 31.27 9.25 14.8 9.25 21.64 25.08L684-73q10 24.33-4.84 45.67Q664.32-6 638.54-6 622-6 608.69-14.88q-13.3-8.87-18.02-23.45L581-58.67H411.67Z"/></svg>