<svg xmlns="http://www.w3.org/2000/svg" height="20" viewBox="0 -960 960 960" width="20"><path d="M453.5-139h99L503-266l-49.5 127ZM894-501q0 40.5-28.75 68.25T796.5-405h-269q-19.9 0-34.7-14.8-14.8-14.8-14.8-34.7 0-19.9 14.8-34.7 14.8-14.8 34.7-14.8H795v-292H328.5v-2.5q0 19.9-14.8 34.7Q298.9-749 279-749q-19.9 0-34.7-14.8-14.8-14.8-14.8-34.7v-.5q0-40.5 28.75-68.25T327-895h469.5q40 0 68.75 27.75T894-799v298Zm-99-3v-292 292ZM373-666h69v-28h27v12q0 13 10.75 23.75t23.75 10.75q13 0 23.75-10.75T538-682v-15.5q0-23.22-17.64-40.36T479.5-755h-48.87Q407-755 390-740q-17 15-17 38.5v35.5Zm273.5 121h46.14q23.17 0 40.26-17.42Q750-579.85 750-603.5V-616q0-13-10.75-23.75T715.5-650.5q-13 0-23.75 10.75T681-616v10h-25v-88h25v11q0 13 10.75 23.75t23.75 10.75q13 0 23.75-10.75T750-683v-14.5q0-23.22-17.12-40.36T692.56-755H646.2q-23.2 0-40.7 17.14Q588-720.72 588-697.5v94q0 23.65 17.42 41.08Q622.85-545 646.5-545Zm-360 195q17 13.5 30.5 23.25t33 21.25L293.58-204q-20.58-16-39.33-29.75T214.5-267.5l-39 34q-16 14-38.75 13t-36.25-17q-15-17-13.5-39.25t18-36.75l39.5-31.91q-5-7.09-9.25-14.09T123-371.67q-17.5-22.83-11.75-43.08T134-447.5q17-12.5 39-12.5t38.5 24.5q2 2 3 3.25t1.75 4.25q12.75-18.5 24.25-37.5t23-38.5H70.08q-22.58 0-37.33-15.5T18-556.79q0-22.34 15.91-38.1 15.9-15.75 38.45-15.75h68.14v-9.86q0-21.5 16.5-38t38-16.5q21.5 0 38 16.5t16.5 38.09v9.41h132.03q21.47 0 36.97 16.5t15.5 38q0 21.5-16 37.5t-37.5 16h4q-20 40.5-45.5 79t-52.5 74Zm136 298-5.6 9.8q-5.4 15.2-17.65 23.95Q387-9.5 370.5-9.5 341-9.5 325-32.93t-4-50.57L422.5-317q7.5-16.5 23-27.75T479.8-356h49.9q18.8 0 34.3 10.5 15.5 10.5 23 27L689.5-82q12 27.5-3.85 50T640.57-9.5q-17.84 0-32.2-9.5Q594-28.5 587.5-44l-3-8h-162Z"/></svg>