<svg xmlns="http://www.w3.org/2000/svg" height="20" viewBox="0 -960 960 960" width="20"><path d="M365.5-189H512l-73-182.5L365.5-189ZM807-481.5q0 15.5-12 26.25t-28.5 10.75H456q-3.9 0-6.7-2.8-2.8-2.8-2.8-6.7 0-3.4 2.8-6.2 2.8-2.8 6.7-2.8h309.5q9 0 16-6t7-14v-286q0-8-7-14t-16-6h-440q-9.5 0-16.25 6t-6.75 14v97.5q0 3.9-2.8 6.7-2.8 2.8-6.7 2.8-3.9 0-6.45-2.8-2.55-2.8-2.55-6.7v-99q0-15.5 12-26.25t28.5-10.75h442q16.5 0 28.5 10.75t12 26.25v289ZM788.5-463v-326 326Zm-408-139.5H403V-678q0-6 5-11t11-5h57.5q6 0 11 5t5 11v19q0 3.5 3.75 7.25t7.5 3.75q3.75 0 7.5-3.75T515-659v-18q0-15.72-11.89-27.61-11.89-11.89-27.61-11.89h-54.87q-16.63 0-28.38 9.75T380.5-681v78.5Zm238.5 67h52.14q15.67 0 27.51-12.17 11.85-12.18 11.85-28.83V-590q0-3.5-3.75-7.5t-7.5-4q-3.75 0-7.5 4T688-590v16q0 6-5 11t-11 5h-55.5q-6 0-11-5t-5-11v-104q0-6 5-11t11-5H672q6 0 11 5t5 11v19q0 3.5 3.75 7.25t7.5 3.75q3.75 0 7.5-3.75t3.75-7.25v-18q0-15.72-11.87-27.61-11.87-11.89-27.57-11.89H618.7q-16.2 0-28.45 11.89T578-677v100.5q0 16.65 12.17 28.83Q602.35-535.5 619-535.5ZM272.5-393q15 17 25.75 29.5t30.25 27l-11.42 29q-18.08-17-31.58-30.75T253-372l-78 75q-4.5 3.5-11.25 3.75T154-297.5q-3-4-2.5-9.75t3.5-9.25l80.5-76.91Q221.5-409 211-426q-10.5-17-22.5-33.67-4.5-6.33-3-11.08t5.5-8.5q4-3.75 10-4.5t11.5 5.75q10 16.5 20.25 30.75t21.5 29.75q24.75-30 46.5-61T335.5-546H118.08q-6.58 0-9.83-4t-3.25-9.79q0-5.84 3.91-9.6 3.9-3.75 10.45-3.75H242V-608q0-5 4.25-9.5T256-622q5.5 0 10 4.5t4.5 9.59v34.41h130.03q4.97 0 8.97 4.5 4 4.5 4 9.75t-4.5 9.75q-4.5 4.5-9.5 4.5H368q-15 42.5-40.25 80.25T272.5-393ZM356-164l-34.1 83.3q-1.9 4.2-4.4 6.2-2.5 2-7 2-9 0-13.25-6.43t-.75-13.57l124-300.5q1.5-3 5-5.75t7.3-2.75h10.9q3.3 0 6.8 2t5.5 5L581.5-91q3 7.5-1.1 13t-12.33 5.5q-4.84 0-8.45-2.5-3.62-2.5-5.12-5.5L522-164H356Z"/></svg>