<svg xmlns="http://www.w3.org/2000/svg" height="48" viewBox="0 -960 960 960" width="48"><path d="M390.04-181.69H524.5l-68.19-171.39-66.27 171.39Zm269-377.08h86.23q12.72 0 22.92-10.2 10.19-10.19 10.19-23.61v-17.73q0-8.5-5.65-14.19-5.64-5.69-14.07-5.69t-14.08 5.69q-5.66 5.69-5.66 14.19v5.93q0 2.3-1.92 4.23-1.92 1.92-4.23 1.92h-61.92q-2.31 0-4.24-1.92-1.92-1.93-1.92-4.23v-133.39q0-2.31 1.92-4.23 1.93-1.92 4.24-1.92h61.92q2.31 0 4.23 1.92 1.92 1.92 1.92 4.23v6.69q0 8.5 5.65 13.85t14.08 5.35q8.43 0 14.08-5.35t5.65-13.85v-19.19q0-12.72-10.19-22.92-10.2-10.19-22.92-10.19h-86.23q-13.81 0-23.81 10.19-10 10.2-10 22.92v157.69q0 13.42 9.81 23.61 9.81 10.2 24 10.2ZM264.5-378.84q14.38 17.22 27.62 30.57 13.23 13.35 27.5 27.23l-19 50.35q-17.58-16.39-33.91-32.93-16.32-16.54-34.67-37.27l-76.85 73.7q-7.66 7.38-18.58 7.42-10.92.04-16.8-8.35-6.96-7.07-5.96-16.82t7.38-16.71l78.96-77.54q-10.3-12-19.57-24.58-9.27-12.58-18.31-25.85-7.08-9.5-4.56-19.19 2.52-9.69 9.9-15.31 7.39-5.61 17.75-5.21 10.37.41 18.33 10.21 7.09 10.09 14.16 20.22 7.07 10.13 14.96 19.52 22.3-28.24 41.21-55.06 18.9-26.83 32.21-59.18H88.04q-10.81 0-17.88-7.07-7.08-7.08-7.08-17.89 0-10.5 7.08-17.38 7.07-6.89 17.88-6.89h120.92v-34.54q0-9.99 6.73-17.07t17.54-7.08q10.81 0 17.89 7.08 7.07 7.08 7.07 17.07v34.54h125.54q10.12 0 17.19 7.08 7.08 7.08 7.08 17.54 0 10.46-7.08 17.54-7.07 7.07-17.19 7.07h-22.61q-16.62 43.16-41.68 81.39-25.06 38.23-54.94 73.39Zm109.69 239.38-29.65 74.81q-2.43 7.03-8.23 10.98-5.81 3.94-12.8 3.94-12.98 0-20.32-10.81T301-82.88l124.27-303.89q2.85-6.77 8.98-10.92 6.13-4.16 13.48-4.16h20.12q6.5 0 12.96 4.16 6.46 4.15 9.5 10.42l125.57 305.5q4.46 11.42-2.63 21.73t-19.87 10.31q-7.5 0-13.8-4.1-6.31-4.09-8.16-10.86l-29.77-74.77H374.19Zm463.23-305.46H521.81q-12.49 0-20.46-7.97-7.97-7.97-7.97-20.46v-119.42q0-17.49-12.08-29.66-12.08-12.18-29.57-12.18h-19.65v-103.16q0-2.31 1.92-4.23 1.92-1.92 4.23-1.92h61.92q2.31 0 4.23 1.92 1.93 1.92 1.93 4.23v6.69q0 8.5 5.65 13.85t14.07 5.35q8.43 0 14.09-5.35 5.65-5.35 5.65-13.85v-19.19q0-12.72-10-22.92-10-10.19-23.12-10.19h-86.23q-14.41 0-24.11 9.69-9.69 9.7-9.69 23.42v115.66h-57.2v-65h-35.8q-12.12 0-19.54-7.87-7.43-7.87-7.43-19.79v-113.96q0-23.58 17.68-39.79 17.67-16.21 42.46-16.21H837.4q24.79 0 42.16 16.21 17.36 16.21 17.36 39.79v340.31q0 23.57-17.36 39.79-17.37 16.21-42.14 16.21Z"/></svg>