<svg xmlns="http://www.w3.org/2000/svg" height="40" viewBox="0 -960 960 960" width="40"><path d="M382.82-152.59h124.61l-62.48-161.36-62.13 161.36Zm543.51-363.08q0 33.08-24.11 56.23-24.12 23.16-57.91 23.16H527.69q-15.36 0-25.44-10.27-10.07-10.27-10.07-25.24 0-14.98 10.27-25.58 10.27-10.6 25.57-10.6h316.29q3.87 0 7.1-2.31 3.23-2.31 3.23-5.39v-331.61q0-3.08-3.23-5.39-3.23-2.3-7.1-2.3H348.15q-4.54 0-7.64 2.3-3.1 2.31-3.1 5.39v97.05q0 14.71-10.27 25.28t-25.58 10.57q-15.56 0-25.7-10.27-10.14-10.27-10.14-25.58v-97.05q0-33.08 24.32-56.23t58.06-23.15h496.26q33.74 0 57.86 23.15 24.11 23.15 24.11 56.23v331.61Zm-71.69 7.7V-854.97v347ZM403-641.59h53.49v-98.85q0-2.3 1.92-4.23 1.92-1.92 4.23-1.92h43.74q2.31 0 4.24 1.92 1.92 1.93 1.92 4.23v4.93q0 11.99 7.6 19.3 7.6 7.31 18.88 7.31 11.27 0 19.14-7.31 7.86-7.31 7.86-19.3v-6.9q0-21.65-15.87-36.99-15.88-15.34-36.79-15.34h-58.69q-21.65 0-36.66 15.34Q403-764.06 403-742.41v100.82Zm277.9 73.72h58.02q21.15 0 36.74-15.26 15.6-15.26 15.6-36.41v-6.79q0-11.51-7.95-19.06-7.94-7.56-19.21-7.56-11.28 0-18.81 7.56-7.52 7.55-7.52 19.06v4.15q0 2.31-1.92 4.23-1.93 1.93-4.24 1.93h-43.74q-2.31 0-4.23-1.93-1.92-1.92-1.92-4.23v-118.26q0-2.3 1.92-4.23 1.92-1.92 4.23-1.92h43.74q2.31 0 4.24 1.92 1.92 1.93 1.92 4.23v4.93q0 11.53 7.6 19.07 7.6 7.54 18.88 7.54 11.27 0 19.14-7.31 7.87-7.31 7.87-19.3v-6.9q0-21.15-15.6-36.74-15.59-15.59-36.74-15.59H680.9q-21.41 0-36.87 15.59-15.47 15.59-15.47 36.74v122.87q0 21.15 15.47 36.41 15.46 15.26 36.87 15.26ZM262.13-360.38q11.72 12.02 19 19.47 7.28 7.45 19.51 17.16l-35.72 66.98q-16.1-13.05-25.79-23.28-9.69-10.23-24.54-25.34L158-254.08q-11.06 10.74-25.8 9.77-14.74-.98-24.48-12.01-10-11.3-8.6-25.57 1.39-14.27 11.8-24.6l57.88-52.26q-8.3-10.47-16.2-20.49-7.91-10.02-16.01-20.79-11.92-14.36-8.13-28.41 3.8-14.05 15.46-22.56 11.67-8.51 26.5-8 14.84.51 26.14 16.33 4.33 6.46 9.41 13.45 5.09 6.99 10.41 13.45 17.72-23.8 34.38-47.44 16.65-23.64 28.6-52.25H69.18q-15.7 0-25.77-9.83-10.07-9.84-10.07-24.83 0-15.88 10.07-25.96 10.07-10.07 25.77-10.07h93.41v-24.13q0-14.63 10.27-25.2 10.27-10.57 25.58-10.57 15.3 0 25.57 10.27t10.27 25.5v24.13h143.8q14.7 0 25.27 10.55 10.57 10.56 10.57 25.25 0 14.68-10.57 24.78-10.57 10.11-25.27 10.11h-17.8q-18.28 43.23-44.06 81.51-25.79 38.28-54.09 73.57Zm97.48 266.74-19.12 48.81q-4.62 10.32-13.12 16.29-8.49 5.97-20.08 5.97-19.02 0-29.14-15.66-10.13-15.67-2.82-33.05L393.1-357.85q4.69-10.66 14.74-17.88 10.05-7.22 21.77-7.22h32.55q11.2 0 21.43 6.82t14.92 17.49L617.07-71.21q7.31 17.65-3.51 33.15-10.83 15.49-29.23 15.49-12 0-20.81-6.45-8.82-6.45-12.34-16.57l-20.54-48.05H359.61Z"/></svg>