<svg xmlns="http://www.w3.org/2000/svg" height="40" viewBox="0 -960 960 960" width="40"><path d="M441.33-140.67h110l-56-144.33-54 144.33ZM689-567h60.67q22.66 0 38.33-15 15.67-15 15.67-38.33v-8.34q0-13-9.96-23.33-9.95-10.33-24.04-10.33T745.96-652q-9.63 10.33-9.63 23.33v1.34H702v-118h34.33v1.33q0 14.42 9.61 24.04 9.6 9.63 23.66 9.63 14.07 0 24.07-9.63 10-9.62 10-24.04v-7q0-23.33-15.67-39-15.67-15.67-38.33-15.67H689q-23.67 0-38.83 15.67Q635-774.33 635-751v130.67Q635-597 650.17-582q15.16 15 38.83 15ZM267.67-344q15.66 12.67 30.5 23.67 14.83 11 31.5 23l-51 93q-20.67-15-40-30-19.34-15-37.34-32.67L155-228q-15.39 14-35.53 13.33-20.14-.66-34.47-16Q71.33-246.33 72.83-267q1.5-20.67 17.5-35L136-340q-5.12-8.2-11.73-16.1-6.6-7.9-12.94-15.9-17.66-21.33-11.66-40.33T120.83-443q15.17-11.67 36.67-10.5T193-431q1.67 2.33 5 6.5t5 6.17q13.67-20 27.33-40 13.67-20 25-44.67H54.67Q33-503 19-517.12T5-551.71Q5-572 19.5-587T55-602h78v-14.33q0-21 14.17-35.5 14.16-14.5 35.83-14.5 21.67 0 35.83 14.16Q233-638 233-616.33V-602h141.67q20.6 0 34.8 15 14.2 15 14.2 35.5t-14.2 34.5q-14.2 14-34.8 14h-7.34q-21 44.33-46.83 83t-52.83 76Zm144 285.33-10 22.34q-5.34 13.66-16.67 22Q373.67-6 358-6q-26.17 0-40.42-21.5t-4.25-45.83l109-265.67q6-15.67 20.84-25.33Q458-374 475.03-374h45.23q17.02 0 31.63 9.25 14.6 9.25 21.44 25.08L684-73q10 24.33-4.92 45.67Q664.15-6 638.35-6 622-6 608.78-14.77q-13.22-8.76-18.11-23.56L581-58.67H411.67Zm442-357.66H564q-24.33 0-39.17-15.34Q510-447 510-469v-118.33q0-29.28-19.5-48.48Q471-655 442.67-655h24v-90.33H500v1.33q0 14.33 9.94 24t23.66 9.67q13.73 0 23.73-9.63 10-9.62 10-24.04v-7q0-23.33-15.66-39Q536-805.67 514-805.67h-61.33q-23.34 0-38.34 15.71-15 15.71-15 38.96v96h-50.66v-86h-49.34q-23.66 0-38.5-14.83Q246-770.67 246-795v-61q0-40.67 30.59-69.83Q307.18-955 348.33-955h505.34q41.86 0 71.93 29.17 30.07 29.16 30.07 69.83v339q0 42.28-30.07 71.47-30.07 29.2-71.93 29.2Z"/></svg>