<svg xmlns="http://www.w3.org/2000/svg" height="40" viewBox="0 -960 960 960" width="40"><path d="M374.33-186.33H525l-75.33-191-75.34 191Zm283-369.67H718q16.65 0 29.32-12.67Q760-581.35 760-598v-8.67q0-5.53-3.66-9.1-3.66-3.56-9.33-3.56-5.68 0-9.34 3.56-3.67 3.57-3.67 9.1v8.67q0 6-5 11t-11 5h-60.67q-6 0-11-5t-5-11v-124q0-6 5-11t11-5H718q6 0 11 5t5 11v10.67q0 5.53 3.66 9.1 3.66 3.56 9.33 3.56 5.68 0 9.34-3.56 3.67-3.57 3.67-9.1V-722q0-16.65-12.68-29.33Q734.65-764 718-764h-60.67q-17.33 0-29.66 12.67-12.34 12.68-12.34 29.33v124q0 16.65 11.67 29.33Q638.67-556 657.33-556Zm-388 168.07q15 17.93 29.67 32.26 14.67 14.34 31 29.34l-11 28q-19-17-35-32.84Q268-347 251-366l-87.33 82.67q-4.82 4-10.75 4.5-5.92.5-9.25-4.5-4-5-3.17-10.5.83-5.5 4.17-9.5L233-387.67q-15-18-27.67-36.16Q192.67-442 180-462q-4-6.33-2.5-11.67 1.5-5.33 6.17-8.66 4.66-3.34 10-2.84 5.33.5 10 6.5 10.95 17.42 23.14 34.05Q239-428 252-411.67q27-31.66 50-65 23-33.33 36.33-72.66H106q-6 0-10-4t-4-10q0-6.67 4-10.34 4-3.66 10-3.66h133v-36.87q0-5.8 4-9.8 4-4 10-4t10 4q4 4 4 9.8v36.87h149.67q6 0 10 4t4 10q0 6-4 10t-10 4h-46.34q-16 46-42.66 85.83-26.67 39.83-58.34 75.57Zm95 226.6-35 88.2q-2 4.13-5 6.63t-7.85 2.5q-7.76 0-11.95-6.33-4.2-6.34-1.2-12.67l128.34-321q2-4 5.2-6t6.8-2h11.66q3.34 0 6.67 2t5.33 6L596.67-83q3 7-1.2 13-4.19 6-11.95 6-4.85 0-8.19-2.5Q572-69 570.67-73l-35-88.33H364.33Zm452-290.67H509q-12.32 0-20.16-7.84T481-480v-84.33q0-17.78-11.94-29.73Q457.11-606 439.33-606h-18v-116q0-6 5-11t11-5H498q6 0 11 5t5 11v10.67q0 5.53 3.66 9.1 3.66 3.56 9.33 3.56 5.68 0 9.34-3.56 3.67-3.57 3.67-9.1V-722q0-16.65-12.33-29.33Q515.33-764 498-764h-60.67q-17.31 0-29.65 12.34-12.35 12.34-12.35 29.66v116h-81v-69h-2q-11 0-18.5-7.84t-7.5-18.16v-119q0-20 14.84-34 14.83-14 36.86-14H816.3q22.03 0 36.87 14Q868-840 868-820v320q0 20-14.83 34-14.84 14-36.84 14Z"/></svg>