<svg xmlns="http://www.w3.org/2000/svg" height="40" viewBox="0 -960 960 960" width="40"><path d="M344.67-155.67H490l-72.33-181.66-73 181.66Zm549.66-360q0 30-22.16 51-22.17 21-53.5 21H473.33q-11.05 0-18.36-7.5-7.3-7.5-7.3-18.16 0-10.67 7.5-18.5 7.5-7.84 18.5-7.84h345q9 0 16.33-6 7.33-6 7.33-14v-307q0-8-7.33-14t-16.33-6H347.33q-9.66 0-16.66 6t-7 14V-725q0 10.4-7.5 18.2-7.5 7.8-18.5 7.8-11.67 0-18.84-7.5-7.16-7.5-7.16-18.5v-97.67q0-30 22.16-51 22.17-21 53.47-21h471.4q31.3 0 53.47 21 22.16 21 22.16 51v307Zm-52 20v-347 347ZM403-620.67h36.67v-105q0-6 5-11t11-5H499q6 0 11 5t5 11V-715q0 8.22 5.24 13.11 5.23 4.89 12.82 4.89t13.1-4.89q5.51-4.89 5.51-13.11v-.33q0-23.49-17.63-40.58Q516.42-773 493.67-773H460q-23.48 0-40.24 17.09T403-715.33v94.66ZM674.33-565h33q22.99 0 40.33-17.01T765-622v1q0-7.73-5.58-12.87-5.58-5.13-13.16-5.13-7.59 0-12.76 5.13-5.17 5.14-5.17 12.87v8.67q0 6-5 11t-11 5H669q-6 0-11-5t-5-11v-113.34q0-6 5-11t11-5h43.33q6 0 11 5t5 11V-715q0 7.76 5.24 12.88 5.24 5.12 12.83 5.12 7.58 0 13.09-4.89T765-715v-.33q0-22.99-17.34-40.33T707.33-773h-33q-23.66 0-40.66 17.34-17 17.34-17 40.33V-622q0 22.98 17 39.99T674.33-565ZM251.67-386.6Q264-374 269.33-368.5q5.34 5.5 19 15.83L260-306q-17.33-13.67-23.33-20t-19-20l-49 41.67q-8.49 7.66-19.08 7-10.59-.67-17.26-8.84-7.33-8.83-5.83-19 1.5-10.16 8.83-17.83L185-385q-8.91-11.51-17.12-22.75Q159.67-419 150.33-431q-9.66-10.67-7-21.33Q146-463 155-469.67q9-6.66 19.83-6.66 10.84 0 20.5 12.33 5.53 8.35 11.86 16.86 6.33 8.5 12.48 16.81 18.33-24 36.83-48.67t29.83-55.33h-195q-11.6 0-18.8-7.07-7.2-7.06-7.2-17.74 0-12.19 7.2-19.19 7.2-7 18.8-7h85v-27.54q0-10.2 7.5-18 7.5-7.8 18.5-7.8t18.5 7.5q7.5 7.5 7.5 18.3v27.54h144q10.4 0 18.2 7.78 7.8 7.79 7.8 18.17 0 10.38-7.8 17.71-7.8 7.34-18.2 7.34H349q-17.67 42-44.17 78.33t-53.16 69.4ZM327-113.33l-24.67 59.4q-4 7.93-9.93 12.26-5.93 4.34-14.97 4.34-14.56 0-21.83-11.67-7.27-11.67-1.6-24.33L378.33-372q3.67-8 11.07-13.17 7.4-5.16 15.6-5.16h25.16q7.51 0 15.17 4.66Q453-381 456.67-373L582-73.67q5.67 13.34-2.3 24.84t-21.92 11.5q-9.45 0-15.7-4.61T533.33-54l-25.66-59.33H327Z"/></svg>