<svg xmlns="http://www.w3.org/2000/svg" height="24" viewBox="0 -960 960 960" width="24"><path d="M424.73-183.54h125.19l-63-162.19-62.19 162.19Zm229.04-374.11h84.61q16.08 0 27.75-11.68 11.68-11.67 11.68-27.94v-18.11q0-9.5-6.52-16.12-6.52-6.61-16.12-6.61-9.59 0-16.11 6.61-6.52 6.62-6.52 16.12v6.3q0 2.31-1.93 4.23-1.92 1.93-4.23 1.93h-60.8q-2.31 0-4.23-1.93-1.93-1.92-1.93-4.23v-120q0-2.3 1.93-4.23 1.92-1.92 4.23-1.92h60.8q2.31 0 4.23 1.92 1.93 1.93 1.93 4.23v7.08q0 9.5 6.52 16.02t16.11 6.52q9.6 0 16.12-6.52 6.52-6.52 6.52-16.02v-19.08q0-16.07-11.68-27.75-11.67-11.67-27.75-11.67h-84.61q-16.27 0-27.94 11.67-11.68 11.68-11.68 27.75v143.81q0 16.27 11.29 27.94 11.29 11.68 28.33 11.68ZM297.65-370.16q14.39 16.7 31.37 33.62 16.98 16.92 31.63 30.81l-20 52.84q-17.57-16.38-38.34-37.05-20.77-20.68-39.62-41.52l-96.92 95.38q-8.27 7.88-18.83 7.67-10.55-.21-17.94-8.48-7.08-8.07-6.88-18.13.19-10.06 7.57-17.64l99.04-97.38q-14-16.81-26.46-34t-23.85-35.5q-6.96-11-4.07-20.44 2.88-9.44 10.96-14.89 8.07-5.44 17.77-4.42 9.69 1.02 17.03 11.21 9.39 15.58 20.18 30.52t23.09 29.52q26-31.31 47.18-63.61 21.17-32.31 35.48-69.58h-252q-10.69 0-18.33-7.58-7.63-7.58-7.63-18.38 0-10.5 7.63-18.14 7.64-7.63 18.33-7.63H238v-32.81q0-10.61 7.48-18.19 7.48-7.58 18.29-7.58 10.81 0 18.38 7.58 7.58 7.58 7.58 18.19v32.81H441.5q10.61 0 18.19 7.58 7.58 7.57 7.58 18.28t-7.58 18.29q-7.58 7.58-18.19 7.58h-41.58q-16.61 47.34-42.71 89.83-26.1 42.48-59.56 81.24Zm110.73 229.85-29.15 74.62q-2.92 6.96-9.04 11.46-6.12 4.5-13.69 4.5-13.62 0-20.79-11.06t-2.13-23.48l119.69-297.5q2.73-7.38 9-11.48 6.27-4.1 14.46-4.1h21.11q8 0 14.27 4.16 6.27 4.15 9.2 11.54L642.19-83.77q4.85 12.42-2.33 23.23-7.17 10.81-20.59 10.81-8.08 0-14.44-4.35-6.37-4.34-9.1-11.73l-28.65-74.5h-158.7Zm424.27-305.11H554.27q-14.35 0-24.29-9.95-9.94-9.94-9.94-24.28v-116.46q0-21.39-14.97-36.2-14.96-14.8-36.34-14.8h-44.04v-81.97q0-2.3 1.92-4.23 1.93-1.92 4.24-1.92h60.8q2.31 0 4.23 1.92 1.93 1.93 1.93 4.23v7.08q0 9.5 6.52 16.02t16.11 6.52q9.6 0 16.12-6.52 6.52-6.52 6.52-16.02v-19.08q0-16.07-11.68-27.75-11.67-11.67-27.75-11.67h-84.61q-16.27 0-27.94 11.67-11.68 11.68-11.68 27.75v93.97h-47.54v-67.5h-34q-13.57 0-23.42-9.85-9.84-9.85-9.84-23.62v-87.65q0-23.58 17-40.29t42.26-16.71h508.77q25.27 0 42.27 16.71 17 16.71 17 40.29v333.31q0 23.57-17 40.29-17 16.71-42.27 16.71Z"/></svg>