<svg xmlns="http://www.w3.org/2000/svg" height="40" viewBox="0 -960 960 960" width="40"><path d="M162.33-284.33v-69.84q47.17-37.16 82.92-65Q281-447 300-469.33q15.67-18.67 26.08-41 10.42-22.34 10.42-50.84 0-32.66-15.67-45.41-15.66-12.75-46.33-12.75-26.67 0-40.33 15.58-13.67 15.58-18 41.92L155.33-567q4.17-44 31.67-79.42 27.5-35.41 88.33-35.41 60 0 92.25 29.25T399.83-566q0 37-14.33 69t-36.83 61.17q-22.84 30-49.84 49.25-27 19.25-56.66 39.91v-.16h165.16v62.5h-245Zm320.17-.17v-389h128.83q91 0 139.75 50.58 48.75 50.59 48.75 143.75 0 93.34-49.58 144-49.58 50.67-138.92 50.67H482.5Zm63.33-63.33h64.67q64.5 0 95.75-31.75T737.5-479q0-67.67-31.25-99.42t-95.75-31.75h-64.67v262.34Z"/></svg>