<svg xmlns="http://www.w3.org/2000/svg" height="40" viewBox="0 -960 960 960" width="40"><path d="M157-281v-66.67q48.33-38.33 84.83-67.83T298-470q16-20 26.33-43.17 10.34-23.16 10.34-49.5 0-32-16.5-46.66Q301.67-624 272-624q-26.67 0-41.67 16.17-15 16.16-19.33 43.83l-61-5q4.67-48 34.83-82.5Q215-686 272.67-686q61 0 93.83 30.33 32.83 30.34 32.83 87.67 0 37.67-14.66 70.33Q370-465 347.33-435.33q-23 30.33-49.5 50.83t-56.16 41.83l.66 1h165V-281H157Zm327-.33v-396.34h132q93 0 142.5 51.67T808-479.33q0 95-50.33 146.5-50.34 51.5-141.67 51.5H484Zm65.33-64H614q66 0 97.83-32.67 31.84-32.67 31.84-101.33 0-68.67-31.84-101.5Q680-613.67 614-613.67h-64.67v268.34Z"/></svg>