<svg xmlns="http://www.w3.org/2000/svg" height="40" viewBox="0 -960 960 960" width="40"><path d="M197.18-299.95v-48.95q46.72-35.51 75.92-62.09 29.21-26.57 50.85-49.98 16.87-20.21 26.67-44.68 9.79-24.48 9.79-50.22 0-31.54-15.17-47.71-15.16-16.16-41.11-16.16-26.31 0-42.94 15.79-16.63 15.8-19.98 44.33l-50.98-5.56q2-41.33 31.17-72.05 29.16-30.72 83.98-30.72 50.98 0 80.21 27.59 29.23 27.59 29.23 76.62 0 35.18-12.69 66.38-12.69 31.21-33.51 57.05-19.54 23.57-47.52 49.3-27.97 25.73-51.69 42.98l.97 1.57h150.54v46.51H197.18Zm291.56.92v-361.79h120.03q85.85 0 129.7 48.24 43.86 48.25 43.86 132.53 0 84.79-43.05 132.91-43.05 48.11-130.51 48.11H488.74Zm54.05-50.25h64.36q59.31 0 89.84-35.68 30.52-35.68 30.52-95.09 0-59.41-30.52-94.71-30.53-35.29-89.84-35.29h-64.36v260.77Z"/></svg>