<svg xmlns="http://www.w3.org/2000/svg" height="20" viewBox="0 -960 960 960" width="20"><path d="M175.16-297.16v-63.38q55.84-42.23 85.69-70.42 29.84-28.19 44-43.81 15.54-15.77 20.69-36.81 5.15-21.03 5.15-37.11 0-25.54-11.5-39.62-11.5-14.07-29.42-14.07-18.92 0-33.69 10.65-14.77 10.65-20.62 37.42l-72.84-7.61q5.08-50.46 38.42-79.08 33.35-28.61 91.12-28.61 53.3 0 85.57 29.11Q410-611.38 410-561.54q0 33.85-10.31 63.08-10.3 29.23-30.3 53.08-16.85 19.69-39.7 42.23-22.84 22.53-46.54 41l3.24 3.84h135.15v61.15H175.16Zm318.69 1.39v-366.61h121q96.23 0 143.26 46.11 47.04 46.12 47.04 136.5t-46.34 137.19q-46.35 46.81-143.96 46.81h-121Zm78.53-72.08h38q60.16 0 87-28.3 26.85-28.31 26.85-83.62t-26.85-82.92q-26.84-27.62-87-27.62h-38v222.46Z"/></svg>