<svg xmlns="http://www.w3.org/2000/svg" height="48" viewBox="0 -960 960 960" width="48"><path d="M206.61-303.77v-45.54q43.24-33.54 72.2-59.46t51.27-48.92q16.77-20.54 27.8-45.46 11.04-24.93 11.04-53.47 0-32.76-15.5-48.69-15.5-15.92-43.5-15.92-27.54 0-44.46 16.54t-19.61 45.07l-44.62-5.23q.92-38.53 28.08-69 27.15-30.46 81.61-30.46 49.16 0 77.23 26.77 28.08 26.77 28.08 74.46 0 34.93-13.23 66.5-13.23 31.58-34.46 57.5-20.46 24.16-48.58 49.46-28.11 25.31-52.5 42.24l.23 1h153.16v42.61H206.61Zm280.16 1v-355.08h117.54q81.54 0 124.04 48t42.5 129.54q0 82.31-41.73 129.93-41.74 47.61-124.81 47.61H486.77Zm46.54-44.31h70.54q58.3 0 89-36.46 30.69-36.46 30.69-96.77 0-60.31-30.69-96.38-30.7-36.08-89-36.08h-70.54v265.69Z"/></svg>