<svg xmlns="http://www.w3.org/2000/svg" height="40" viewBox="0 -960 960 960" width="40"><path d="M194.39-299.01v-54.71q41.71-32.61 74.36-59.13 32.64-26.52 52.98-49.5 16.44-19.82 27.85-43.5t11.41-53.33q0-33.24-15.96-47.31-15.95-14.06-46.87-14.06-27.82 0-42.87 16.58-15.04 16.57-18.03 44.06l-47.18-4.59q2.5-40.15 28.27-72.24 25.77-32.08 80.57-32.08 53.02 0 81.84 27.26 28.82 27.27 28.82 78.44 0 35.79-14.11 67.08-14.11 31.3-36.55 59.05-22.12 28.14-49.16 49.06-27.03 20.92-54.39 40.24l-.32-.36h159.08v49.04H194.39Zm288.56-.23v-362.02h120.11q81.84 0 125.55 48.34 43.72 48.34 43.72 132.54 0 84.99-44.23 133.06-44.23 48.08-125.04 48.08H482.95Zm48.27-48.66h71.84q60.66 0 91.14-33.86 30.48-33.87 30.48-98.36 0-64.5-30.48-98.36-30.48-33.87-91.14-33.87h-71.84v264.45Z"/></svg>