<svg xmlns="http://www.w3.org/2000/svg" height="40" viewBox="0 -960 960 960" width="40"><path d="M121.77-265.36v-79.1q57.75-44.74 94.91-75.56t56.83-55.63q15.62-19.44 24.54-42.23 8.92-22.79 8.92-45.92 0-30.87-15.84-45.53Q275.29-624 248.83-624q-24.41 0-39.88 14.19-15.47 14.19-21.12 42.61l-77.4-6.7q5.42-52.52 39.92-89.85 34.5-37.32 99.14-37.32 66.65 0 103.54 32.87 36.88 32.88 36.88 95.3 0 38.99-13.82 72.5-13.81 33.52-36.29 63.18-21.68 29.21-49.5 51.87-27.82 22.67-56.92 44l1.42 2.32h166.88v73.67H121.77Zm362.8-.15v-426.66h141.42q105.81 0 160.87 54.58 55.05 54.59 55.05 158.82 0 104.23-55.32 158.75-55.33 54.51-160.6 54.51H484.57Zm84.17-79.82h53.93q68.82 0 102.16-32.58 33.34-32.57 33.34-101.05 0-68.47-33.34-100.93-33.34-32.46-102.16-32.46h-53.93v267.02Z"/></svg>