<svg xmlns="http://www.w3.org/2000/svg" height="40" viewBox="0 -960 960 960" width="40"><path d="M92.67-253v-88.67Q158.33-392 196-424t57-56.33q14.67-18.67 22.67-41.17 8-22.5 8-43.5 0-29-15-44t-39-15q-21 0-37.67 13t-22.67 41.33L77.67-578q5.66-56.33 44-95.83 38.33-39.5 109-39.5 71.33 0 111.66 34.83 40.34 34.83 40.34 101.17 0 40.33-13.34 74.83Q356-468 334-439.33q-21 28.66-49.67 53.16-28.66 24.5-57 45.84l2.34 2.66h167.66V-253H92.67ZM486-252v-452.67h148.67q116 0 176.33 57.17 60.33 57.17 60.33 169.5t-59.66 169.17Q752-252 634.67-252H486Zm99.67-94h45q70 0 105-32.67 35-32.66 35-99.66t-35-100.17q-35-33.17-105-33.17h-45V-346Z"/></svg>