<svg xmlns="http://www.w3.org/2000/svg" height="20" viewBox="0 -960 960 960" width="20"><path d="M222.62-320.19v-50.12q39.54-30.92 68.92-56.09 29.38-25.18 43.73-39.56 15.54-16.15 24.54-37.39 9-21.23 9-46.42 0-28.35-12.29-40.65-12.29-12.31-38.83-12.31-22.92 0-36.67 13.5t-17.4 38.65l-45.54-5.92q2.58-39.61 26.69-65.79 24.12-26.17 74.62-26.17 45.5 0 71.3 24.75 25.81 24.75 25.81 68.59 0 32.04-11.9 60.47-11.91 28.42-33.6 52.77-19.54 22.88-41.6 40.05-22.05 17.18-47.75 35.83l.43.54h139.46v45.27H222.62Zm262.3.69v-322.73h106.27q74.81 0 113.89 42.25 39.07 42.25 39.07 118.52 0 76.15-39.38 119.06-39.39 42.9-113.58 42.9H484.92Zm46.12-47.27h60q55.65 0 80.63-28.75 24.98-28.75 24.98-85.85 0-57.09-24.98-85.34t-80.63-28.25h-60v228.19Z"/></svg>