<svg xmlns="http://www.w3.org/2000/svg" height="48" viewBox="0 -960 960 960" width="48"><path d="M266.5-172q-22.77 0-38.39-15.88-15.61-15.88-15.61-37.94v-508.36q0-22.06 15.61-37.94Q243.73-788 266.5-788h428.65q22.09 0 37.97 15.88Q749-756.24 749-734.18v508.36q0 22.06-15.88 37.94Q717.24-172 695.15-172H266.5Zm0-22H695q14 0 23-9t9-23v-508q0-14-9-23t-23-9H266.5q-14 0-23.5 9t-9.5 23v508q0 14 9.5 23t23.5 9Zm204-194L376-482l-16 15 121 121 119-119-16-15.5-91.5 92.5v-212h-22v212ZM695-194H233.5 727h-32Z"/></svg>