<svg xmlns="http://www.w3.org/2000/svg" height="24" viewBox="0 -960 960 960" width="24"><path d="M252.31-140Q222-140 201-161q-21-21-21-51.31v-535.38Q180-778 201-799q21-21 51.31-21h455.77q30.3 0 51.3 21 21 21 21 51.31v535.38q0 30.31-21 51.31-21 21-51.3 21H252.31Zm0-60h455.77q5.38 0 8.84-3.46t3.46-8.85v-535.38q0-5.39-3.46-8.85t-8.84-3.46H252.31q-5.39 0-9.04 3.46-3.65 3.46-3.65 8.85v535.38q0 5.39 3.65 8.85t9.04 3.46Zm198.08-247.23L376-521l-42.15 42.15 146.53 146.54 145.77-145.77L584-520.84l-73.62 73.61v-177.38h-59.99v177.38ZM708.08-200H239.62 720.38h-12.3Z"/></svg>