<svg xmlns="http://www.w3.org/2000/svg" height="48" viewBox="0 -960 960 960" width="48"><path d="M234.69-124q-28.25 0-49.47-21.22T164-194.69v-570.62q0-28.25 21.22-49.47T234.69-836h491q28.25 0 49.47 21.22t21.22 49.47v570.62q0 28.25-21.22 49.47T725.69-124h-491Zm0-58.39h492q5.39 0 8.85-3.46t3.46-8.84v-571.62q0-5.38-3.46-8.84t-8.85-3.46h-492q-5.38 0-9.04 3.46-3.65 3.46-3.65 8.84v571.62q0 5.38 3.65 8.84 3.66 3.46 9.04 3.46Zm217-235.99L385-485.08l-41 40.62 136.38 136.38L617-443.69l-41-40.62-65.92 65.93v-200.23h-58.39v200.23Zm275 235.99H222h517H726.69Z"/></svg>