<svg xmlns="http://www.w3.org/2000/svg" height="24" viewBox="0 -960 960 960" width="24"><path d="M258.62-128q-38.35 0-64.48-26.14Q168-180.27 168-218.62v-522.76q0-38.35 26.14-64.48Q220.27-832 258.62-832h443.53q38.34 0 64.48 26.14 26.14 26.13 26.14 64.48v522.76q0 38.35-26.14 64.48Q740.49-128 702.15-128H258.62Zm-1-65h445.53q10.77 0 17.7-6.92 6.92-6.93 6.92-17.7v-524.76q0-10.77-6.92-17.7-6.93-6.92-17.7-6.92H257.62q-10.77 0-18.08 6.92-7.31 6.93-7.31 17.7v524.76q0 10.77 7.31 17.7 7.31 6.92 18.08 6.92Zm190.15-257.46L393-506l-46.31 46.31 134.08 134.07 132.54-132.53L567-503.69l-53.23 53.23v-145.77h-66v145.77ZM703.15-193H232.23 727.77 703.15Z"/></svg>