<svg xmlns="http://www.w3.org/2000/svg" version="1.1" width="3300" height="2000"><g id="Notes"><style>
    text {
      font-family: monospace;
      text-anchor: middle;
    }
    text.emphasis {
      font-weight:bold;
    }
    text.lanchor {
      text-anchor: start;
    }
  </style><rect height="2200" id="artboard" fill="white" width="3300" x="0" y="0"/><line id="" style="fill:none;stroke:black;stroke-width:0.5;" x1="263" x2="3036" y1="292" y2="292"/><text class="lanchor emphasis" transform="matrix(1 0 0 1 263 322)">Weight/Scale Variations</text><text transform="matrix(1 0 0 1 559.711 322)">Ultralight</text><text transform="matrix(1 0 0 1 856.422 322)">Thin</text><text transform="matrix(1 0 0 1 1153.13 322)">Light</text><text transform="matrix(1 0 0 1 1449.84 322)">Regular</text><text transform="matrix(1 0 0 1 1746.56 322)">Medium</text><text transform="matrix(1 0 0 1 2043.27 322)">Semibold</text><text transform="matrix(1 0 0 1 2339.98 322)">Bold</text><text transform="matrix(1 0 0 1 2636.69 322)">Heavy</text><text transform="matrix(1 0 0 1 2933.4 322)">Black</text><text id="template-version" style="text-anchor: end;" transform="matrix(1 0 0 1 3036 1933)">Template v.1.0</text><text class="lanchor" transform="matrix(1 0 0 1 263 726)">Small</text><text class="lanchor" transform="matrix(1 0 0 1 263 1156)">Medium</text><text class="lanchor" transform="matrix(1 0 0 1 263 1586)">Large</text></g><g id="Guides"><g id="H-reference" style="fill:#27AAE1;stroke:none;" transform="matrix(1 0 0 1 339 696)"><path d="M 54.9316 0 L 57.666 0 L 30.5664 -70.459 L 28.0762 -70.459 L 0.976562 0 L 3.66211 0 L 12.9395 -24.4629 L 45.7031 -24.4629 Z M 29.1992 -67.0898 L 29.4434 -67.0898 L 44.8242 -26.709 L 13.8184 -26.709 Z"/></g><line id="Baseline-S" style="fill:none;stroke:#27AAE1;opacity:1;stroke-width:0.577;" x1="263" x2="3036" y1="696" y2="696"/><line id="Capline-S" style="fill:none;stroke:#27AAE1;opacity:1;stroke-width:0.577;" x1="263" x2="3036" y1="625.541" y2="625.541"/><g id="H-reference" style="fill:#27AAE1;stroke:none;" transform="matrix(1 0 0 1 339 1126)"><path d="M 54.9316 0 L 57.666 0 L 30.5664 -70.459 L 28.0762 -70.459 L 0.976562 0 L 3.66211 0 L 12.9395 -24.4629 L 45.7031 -24.4629 Z M 29.1992 -67.0898 L 29.4434 -67.0898 L 44.8242 -26.709 L 13.8184 -26.709 Z"/></g><line id="Baseline-M" style="fill:none;stroke:#27AAE1;opacity:1;stroke-width:0.577;" x1="263" x2="3036" y1="1126" y2="1126"/><line id="Capline-M" style="fill:none;stroke:#27AAE1;opacity:1;stroke-width:0.577;" x1="263" x2="3036" y1="1055.54" y2="1055.54"/><g id="H-reference" style="fill:#27AAE1;stroke:none;" transform="matrix(1 0 0 1 339 1556)"><path d="M 54.9316 0 L 57.666 0 L 30.5664 -70.459 L 28.0762 -70.459 L 0.976562 0 L 3.66211 0 L 12.9395 -24.4629 L 45.7031 -24.4629 Z M 29.1992 -67.0898 L 29.4434 -67.0898 L 44.8242 -26.709 L 13.8184 -26.709 Z"/></g><line id="Baseline-L" style="fill:none;stroke:#27AAE1;opacity:1;stroke-width:0.577;" x1="263" x2="3036" y1="1556" y2="1556"/><line id="Capline-L" style="fill:none;stroke:#27AAE1;opacity:1;stroke-width:0.577;" x1="263" x2="3036" y1="1485.54" y2="1485.54"/><rect height="119.336" id="left-margin" style="fill:darkred;stroke:none;opacity:0.4;" width="12.4512" x="1394.06" y="1030.79"/><rect height="119.336" id="right-margin" style="fill:darkgreen;stroke:none;opacity:0.4;" width="12.4512" x="1502.5112" y="1030.79"/><rect x="1406.5112" y="1045" width="96" height="96" fill="none" stroke="blue" stroke-dasharray="5"/><rect x="1394.06" y="1030.79" width="120.9024" height="119.336" fill="none" stroke="blue"/></g><g id="Symbols"><g id="Bold-L" transform="matrix(1 0 0 1 2266 1556)"><path d="M70.466 -28.619 H84.495 V-51.516 H70.466 V-28.619 Z M29.186 23.626 V8.469 H59.34 V23.626 H29.186 Z M95.46 23.626 V8.469 H125.614 V23.626 H95.46 Z M44.505 -28.619 Q49.343 -28.619 52.648 -31.973 Q55.954 -35.325 55.954 -40.035 Q55.954 -44.905 52.648 -48.211 Q49.343 -51.516 44.586 -51.516 Q39.668 -51.516 36.362 -48.243 Q33.056 -44.971 33.056 -40.18 Q33.056 -35.391 36.339 -32.005 Q39.621 -28.619 44.505 -28.619 Z M110.214 -28.619 Q115.133 -28.619 118.438 -31.973 Q121.744 -35.325 121.744 -40.035 Q121.744 -44.905 118.438 -48.211 Q115.133 -51.516 110.376 -51.516 Q105.457 -51.516 102.152 -48.243 Q98.846 -44.971 98.846 -40.18 Q98.846 -35.391 102.129 -32.005 Q105.411 -28.619 110.214 -28.619 Z M24.026 -2.174 Q17.729 -2.174 13.298 -6.652 Q8.869 -11.13 8.869 -17.492 V-65.222 Q8.869 -71.585 13.298 -76.063 Q17.729 -80.541 24.026 -80.541 H130.774 Q137.137 -80.541 141.615 -76.063 Q146.093 -71.585 146.093 -65.222 V-17.492 Q146.093 -11.13 141.615 -6.652 Q137.137 -2.174 130.774 -2.174 H24.026 Z M24.026 -17.492 H130.774 Q130.774 -17.492 130.774 -17.492 Q130.774 -17.492 130.774 -17.492 V-65.222 Q130.774 -65.222 130.774 -65.222 Q130.774 -65.222 130.774 -65.222 H24.026 Q24.026 -65.222 24.026 -65.222 Q24.026 -65.222 24.026 -65.222 V-17.492 Q24.026 -17.492 24.026 -17.492 Q24.026 -17.492 24.026 -17.492 Z"/></g><g id="Semibold-L" transform="matrix(1 0 0 1 1970.27 1556)"><path d="M71.377 -29.53 H83.513 V-52.427 H71.377 V-29.53 Z M30.728 17.668 V4.894 H57.727 V17.668 H30.728 Z M97.002 17.668 V4.894 H124.001 V17.668 H97.002 Z M44.365 -29.53 Q49.202 -29.53 52.508 -32.884 Q55.813 -36.236 55.813 -40.946 Q55.813 -45.747 52.508 -49.086 Q49.202 -52.427 44.445 -52.427 Q39.598 -52.427 36.257 -49.12 Q32.916 -45.811 32.916 -41.058 Q32.916 -36.302 36.233 -32.916 Q39.551 -29.53 44.365 -29.53 Z M110.319 -29.53 Q115.202 -29.53 118.507 -32.884 Q121.813 -36.236 121.813 -40.946 Q121.813 -45.747 118.507 -49.086 Q115.202 -52.427 110.445 -52.427 Q105.598 -52.427 102.257 -49.12 Q98.916 -45.811 98.916 -41.058 Q98.916 -36.302 102.234 -32.916 Q105.551 -29.53 110.319 -29.53 Z M23.396 -5.749 Q18.154 -5.749 14.387 -9.541 Q10.622 -13.335 10.622 -18.615 V-64.802 Q10.622 -70.081 14.387 -73.874 Q18.154 -77.668 23.396 -77.668 H131.404 Q136.684 -77.668 140.476 -73.874 Q144.27 -70.081 144.27 -64.802 V-18.615 Q144.27 -13.335 140.476 -9.541 Q136.684 -5.749 131.404 -5.749 H23.396 Z M23.396 -18.615 H131.404 Q131.404 -18.615 131.404 -18.615 Q131.404 -18.615 131.404 -18.615 V-64.802 Q131.404 -64.802 131.404 -64.802 Q131.404 -64.802 131.404 -64.802 H23.396 Q23.396 -64.802 23.396 -64.802 Q23.396 -64.802 23.396 -64.802 V-18.615 Q23.396 -18.615 23.396 -18.615 Q23.396 -18.615 23.396 -18.615 Z"/></g><g id="Medium-L" transform="matrix(1 0 0 1 1674.31 1556)"><path d="M72.061 -30.214 H82.778 V-53.111 H72.061 V-30.214 Z M31.886 13.198 V2.212 H56.518 V13.198 H31.886 Z M98.159 13.198 V2.212 H122.792 V13.198 H98.159 Z M44.26 -30.214 Q49.097 -30.214 52.403 -33.568 Q55.709 -36.92 55.709 -41.63 Q55.709 -46.377 52.403 -49.744 Q49.097 -53.111 44.341 -53.111 Q39.545 -53.111 36.178 -49.776 Q32.811 -46.443 32.811 -41.714 Q32.811 -36.986 36.154 -33.6 Q39.498 -30.214 44.26 -30.214 Z M110.398 -30.214 Q115.255 -30.214 118.561 -33.568 Q121.866 -36.92 121.866 -41.63 Q121.866 -46.377 118.561 -49.744 Q115.255 -53.111 110.498 -53.111 Q105.703 -53.111 102.336 -49.776 Q98.969 -46.443 98.969 -41.714 Q98.969 -36.986 102.313 -33.6 Q105.656 -30.214 110.398 -30.214 Z M22.922 -8.43 Q18.471 -8.43 15.204 -11.71 Q11.936 -14.99 11.936 -19.455 V-64.486 Q11.936 -68.952 15.204 -72.232 Q18.471 -75.51 22.922 -75.51 H131.878 Q136.345 -75.51 139.623 -72.232 Q142.903 -68.952 142.903 -64.486 V-19.455 Q142.903 -14.99 139.623 -11.71 Q136.345 -8.43 131.878 -8.43 H22.922 Z M22.922 -19.455 H131.878 Q131.878 -19.455 131.878 -19.455 Q131.878 -19.455 131.878 -19.455 V-64.486 Q131.878 -64.486 131.878 -64.486 Q131.878 -64.486 131.878 -64.486 H22.922 Q22.922 -64.486 22.922 -64.486 Q22.922 -64.486 22.922 -64.486 V-19.455 Q22.922 -19.455 22.922 -19.455 Q22.922 -19.455 22.922 -19.455 Z"/></g><g id="Regular-L" transform="matrix(1 0 0 1 1378.56 1556)"><path d="M72.562 -30.715 H82.237 V-53.612 H72.562 V-30.715 Z M32.734 9.92 V0.245 H55.631 V9.92 H32.734 Z M99.008 9.92 V0.245 H121.905 V9.92 H99.008 Z M44.183 -30.715 Q49.02 -30.715 52.326 -34.069 Q55.631 -37.421 55.631 -42.131 Q55.631 -46.84 52.326 -50.226 Q49.02 -53.612 44.263 -53.612 Q39.506 -53.612 36.12 -50.258 Q32.734 -46.906 32.734 -42.196 Q32.734 -37.487 36.097 -34.101 Q39.459 -30.715 44.183 -30.715 Z M110.456 -30.715 Q115.294 -30.715 118.599 -34.069 Q121.905 -37.421 121.905 -42.131 Q121.905 -46.84 118.599 -50.226 Q115.294 -53.612 110.537 -53.612 Q105.78 -53.612 102.394 -50.258 Q99.008 -46.906 99.008 -42.196 Q99.008 -37.487 102.371 -34.101 Q105.733 -30.715 110.456 -30.715 Z M22.575 -10.397 Q18.705 -10.397 15.803 -13.3 Q12.9 -16.202 12.9 -20.072 V-64.255 Q12.9 -68.125 15.803 -71.027 Q18.705 -73.93 22.575 -73.93 H132.225 Q136.095 -73.93 138.998 -71.027 Q141.9 -68.125 141.9 -64.255 V-20.072 Q141.9 -16.202 138.998 -13.3 Q136.095 -10.397 132.225 -10.397 H22.575 Z M22.575 -20.072 H132.225 Q132.225 -20.072 132.225 -20.072 Q132.225 -20.072 132.225 -20.072 V-64.255 Q132.225 -64.255 132.225 -64.255 Q132.225 -64.255 132.225 -64.255 H22.575 Q22.575 -64.255 22.575 -64.255 Q22.575 -64.255 22.575 -64.255 V-20.072 Q22.575 -20.072 22.575 -20.072 Q22.575 -20.072 22.575 -20.072 Z"/></g><g id="Light-L" transform="matrix(1 0 0 1 1082.77 1556)"><path d="M73.741 -31.584 H81.059 V-51.628 H73.741 V-31.584 Z M35.091 6.695 V-0.624 H56.313 V6.695 H35.091 Z M98.387 6.695 V-0.624 H119.61 V6.695 H98.387 Z M45.277 -31.584 Q49.578 -31.584 52.48 -34.472 Q55.383 -37.36 55.383 -41.541 Q55.383 -45.724 52.48 -48.644 Q49.578 -51.566 45.39 -51.566 Q41.201 -51.566 38.239 -48.665 Q35.277 -45.766 35.277 -41.638 Q35.277 -37.426 38.215 -34.504 Q41.153 -31.584 45.277 -31.584 Z M109.382 -31.521 Q113.649 -31.521 116.568 -34.451 Q119.486 -37.383 119.486 -41.553 Q119.486 -45.724 116.568 -48.675 Q113.649 -51.628 109.436 -51.628 Q105.222 -51.628 102.239 -48.709 Q99.256 -45.789 99.256 -41.619 Q99.256 -37.447 102.231 -34.485 Q105.204 -31.521 109.382 -31.521 Z M25.428 -12.507 Q21.633 -12.507 18.879 -15.261 Q16.125 -18.015 16.125 -21.816 V-61.396 Q16.125 -65.197 18.879 -67.951 Q21.633 -70.705 25.428 -70.705 H129.372 Q133.167 -70.705 135.921 -67.951 Q138.675 -65.197 138.675 -61.396 V-21.816 Q138.675 -18.015 135.921 -15.261 Q133.167 -12.507 129.372 -12.507 H25.428 Z M25.428 -19.824 H129.372 Q130.24 -19.824 130.798 -20.382 Q131.356 -20.942 131.356 -21.809 V-61.402 Q131.356 -62.27 130.798 -62.828 Q130.24 -63.386 129.372 -63.386 H25.428 Q24.56 -63.386 24.002 -62.828 Q23.444 -62.27 23.444 -61.402 V-21.809 Q23.444 -20.942 24.002 -20.382 Q24.56 -19.824 25.428 -19.824 Z"/></g><g id="Thin-L" transform="matrix(1 0 0 1 787.282 1556)"><path d="M74.92 -32.452 H79.88 V-49.643 H74.92 V-32.452 Z M37.447 3.47 V-1.492 H56.995 V3.47 H37.447 Z M97.767 3.47 V-1.492 H117.316 V3.47 H97.767 Z M46.374 -32.452 Q50.136 -32.452 52.635 -34.875 Q55.135 -37.297 55.135 -40.953 Q55.135 -44.607 52.635 -47.063 Q50.136 -49.52 46.516 -49.52 Q42.896 -49.52 40.358 -47.072 Q37.82 -44.626 37.82 -41.08 Q37.82 -37.363 40.332 -34.907 Q42.844 -32.452 46.374 -32.452 Z M108.308 -32.327 Q112.004 -32.327 114.536 -34.835 Q117.068 -37.342 117.068 -40.975 Q117.068 -44.607 114.536 -47.125 Q112.004 -49.643 108.334 -49.643 Q104.664 -49.643 102.084 -47.158 Q99.504 -44.673 99.504 -41.041 Q99.504 -37.408 102.091 -34.867 Q104.677 -32.327 108.308 -32.327 Z M28.28 -14.614 Q24.563 -14.614 21.956 -17.222 Q19.35 -19.827 19.35 -23.557 V-58.537 Q19.35 -62.267 21.956 -64.874 Q24.563 -67.48 28.28 -67.48 H126.52 Q130.237 -67.48 132.844 -64.874 Q135.45 -62.267 135.45 -58.537 V-23.557 Q135.45 -19.827 132.844 -17.222 Q130.237 -14.614 126.52 -14.614 H28.28 Z M28.28 -19.576 H126.52 Q128.255 -19.576 129.372 -20.693 Q130.488 -21.809 130.488 -23.546 V-58.55 Q130.488 -60.285 129.372 -61.402 Q128.255 -62.518 126.52 -62.518 H28.28 Q26.545 -62.518 25.428 -61.402 Q24.312 -60.285 24.312 -58.55 V-23.546 Q24.312 -21.809 25.428 -20.693 Q26.545 -19.576 28.28 -19.576 Z"/></g><g id="Ultralight-L" transform="matrix(1 0 0 1 491.205 1556)"><path d="M75.626 -32.972 H79.174 V-48.452 H75.626 V-32.972 Z M38.861 1.535 V-2.012 H57.405 V1.535 H38.861 Z M97.395 1.535 V-2.012 H115.939 V1.535 H97.395 Z M47.03 -32.972 Q50.471 -32.972 52.729 -35.117 Q54.986 -37.26 54.986 -40.6 Q54.986 -43.937 52.729 -46.114 Q50.471 -48.291 47.191 -48.291 Q43.913 -48.291 41.628 -46.118 Q39.345 -43.942 39.345 -40.745 Q39.345 -37.326 41.602 -35.149 Q43.86 -32.972 47.03 -32.972 Z M107.663 -32.811 Q111.016 -32.811 113.317 -35.066 Q115.616 -37.32 115.616 -40.629 Q115.616 -43.937 113.317 -46.195 Q111.017 -48.452 107.673 -48.452 Q104.329 -48.452 101.991 -46.227 Q99.653 -44.004 99.653 -40.693 Q99.653 -37.384 102.005 -35.098 Q104.359 -32.811 107.663 -32.811 Z M29.992 -15.88 Q26.321 -15.88 23.802 -18.397 Q21.285 -20.916 21.285 -24.604 V-56.821 Q21.285 -60.511 23.802 -63.028 Q26.321 -65.545 29.992 -65.545 H124.808 Q128.481 -65.545 130.998 -63.028 Q133.515 -60.511 133.515 -56.821 V-24.604 Q133.515 -20.916 130.998 -18.397 Q128.481 -15.88 124.808 -15.88 H29.992 Z M29.992 -19.427 H124.808 Q127.065 -19.427 128.516 -20.879 Q129.968 -22.33 129.968 -24.587 V-56.837 Q129.968 -59.095 128.516 -60.546 Q127.065 -61.997 124.808 -61.997 H29.992 Q27.735 -61.997 26.284 -60.546 Q24.832 -59.095 24.832 -56.837 V-24.587 Q24.832 -22.33 26.284 -20.879 Q27.735 -19.427 29.992 -19.427 Z"/></g><g id="Bold-M" transform="matrix(1 0 0 1 2281.8 1126)"><path d="M52.75 -28.105 H67.25 V-48.105 H52.75 V-28.105 Z M21.25 14.02 V-1.73 H48.75 V14.02 H21.25 Z M71.25 14.02 V-1.73 H98.75 V14.02 H71.25 Z M35.25 -28.105 Q39.5 -28.105 42.375 -31.042 Q45.25 -33.98 45.25 -38.105 Q45.25 -42.23 42.375 -45.167 Q39.5 -48.105 35.25 -48.105 Q31.125 -48.105 28.188 -45.167 Q25.25 -42.23 25.25 -38.105 Q25.25 -33.98 28.188 -31.042 Q31.125 -28.105 35.25 -28.105 Z M84.75 -28.105 Q88.875 -28.105 91.812 -31.042 Q94.75 -33.98 94.75 -38.105 Q94.75 -42.23 91.812 -45.167 Q88.875 -48.105 84.75 -48.105 Q80.625 -48.105 77.688 -45.167 Q74.75 -42.23 74.75 -38.105 Q74.75 -33.98 77.688 -31.042 Q80.625 -28.105 84.75 -28.105 Z M21.5 -6.73 Q14.875 -6.73 10.312 -11.292 Q5.75 -15.855 5.75 -22.48 V-56.23 Q5.75 -62.855 10.312 -67.417 Q14.875 -71.98 21.5 -71.98 H98.5 Q105.125 -71.98 109.688 -67.417 Q114.25 -62.855 114.25 -56.23 V-22.48 Q114.25 -15.855 109.688 -11.292 Q105.125 -6.73 98.5 -6.73 H21.5 Z M21.5 -22.48 H98.5 Q98.5 -22.48 98.5 -22.48 Q98.5 -22.48 98.5 -22.48 V-56.23 Q98.5 -56.23 98.5 -56.23 Q98.5 -56.23 98.5 -56.23 H21.5 Q21.5 -56.23 21.5 -56.23 Q21.5 -56.23 21.5 -56.23 V-22.48 Q21.5 -22.48 21.5 -22.48 Q21.5 -22.48 21.5 -22.48 Z"/></g><g id="Semibold-M" transform="matrix(1 0 0 1 1985.97 1126)"><path d="M53.729 -29.029 H66.271 V-49.029 H53.729 V-29.029 Z M22.88 7.825 V-5.425 H47.12 V7.825 H22.88 Z M72.88 7.825 V-5.425 H97.12 V7.825 H72.88 Z M35.141 -29.029 Q39.337 -29.029 42.239 -31.966 Q45.141 -34.904 45.141 -39.029 Q45.141 -43.154 42.239 -46.091 Q39.337 -49.029 35.141 -49.029 Q31.016 -49.029 28.079 -46.091 Q25.141 -43.154 25.141 -39.029 Q25.141 -34.904 28.079 -31.966 Q31.016 -29.029 35.141 -29.029 Z M84.859 -29.029 Q88.984 -29.029 91.921 -31.966 Q94.859 -34.904 94.859 -39.029 Q94.859 -43.154 91.921 -46.091 Q88.984 -49.029 84.859 -49.029 Q80.734 -49.029 77.796 -46.091 Q74.859 -43.154 74.859 -39.029 Q74.859 -34.904 77.796 -31.966 Q80.734 -29.029 84.859 -29.029 Z M20.848 -10.425 Q15.31 -10.425 11.454 -14.281 Q7.598 -18.137 7.598 -23.675 V-55.795 Q7.598 -61.334 11.454 -65.19 Q15.31 -69.045 20.848 -69.045 H99.153 Q104.69 -69.045 108.546 -65.19 Q112.403 -61.334 112.403 -55.795 V-23.675 Q112.403 -18.137 108.546 -14.281 Q104.69 -10.425 99.153 -10.425 H20.848 Z M20.848 -23.675 H99.153 Q99.153 -23.675 99.153 -23.675 Q99.153 -23.675 99.153 -23.675 V-55.795 Q99.153 -55.795 99.153 -55.795 Q99.153 -55.795 99.153 -55.795 H20.848 Q20.848 -55.795 20.848 -55.795 Q20.848 -55.795 20.848 -55.795 V-23.675 Q20.848 -23.675 20.848 -23.675 Q20.848 -23.675 20.848 -23.675 Z"/></g><g id="Medium-M" transform="matrix(1 0 0 1 1689.91 1126)"><path d="M54.462 -29.721 H65.537 V-49.721 H54.462 V-29.721 Z M24.104 3.178 V-8.197 H45.896 V3.178 H24.104 Z M74.104 3.178 V-8.197 H95.896 V3.178 H74.104 Z M35.06 -29.721 Q39.215 -29.721 42.138 -32.659 Q45.06 -35.596 45.06 -39.721 Q45.06 -43.846 42.138 -46.784 Q39.215 -49.721 35.06 -49.721 Q30.935 -49.721 27.997 -46.784 Q25.06 -43.846 25.06 -39.721 Q25.06 -35.596 27.997 -32.659 Q30.935 -29.721 35.06 -29.721 Z M84.94 -29.721 Q89.065 -29.721 92.002 -32.659 Q94.94 -35.596 94.94 -39.721 Q94.94 -43.846 92.002 -46.784 Q89.065 -49.721 84.94 -49.721 Q80.815 -49.721 77.877 -46.784 Q74.94 -43.846 74.94 -39.721 Q74.94 -35.596 77.877 -32.659 Q80.815 -29.721 84.94 -29.721 Z M20.359 -13.197 Q15.636 -13.197 12.31 -16.524 Q8.984 -19.85 8.984 -24.572 V-55.469 Q8.984 -60.192 12.31 -63.517 Q15.636 -66.844 20.359 -66.844 H99.641 Q104.364 -66.844 107.69 -63.517 Q111.016 -60.192 111.016 -55.469 V-24.572 Q111.016 -19.85 107.69 -16.524 Q104.364 -13.197 99.641 -13.197 H20.359 Z M20.359 -24.572 H99.641 Q99.641 -24.572 99.641 -24.572 Q99.641 -24.572 99.641 -24.572 V-55.469 Q99.641 -55.469 99.641 -55.469 Q99.641 -55.469 99.641 -55.469 H20.359 Q20.359 -55.469 20.359 -55.469 Q20.359 -55.469 20.359 -55.469 V-24.572 Q20.359 -24.572 20.359 -24.572 Q20.359 -24.572 20.359 -24.572 Z"/></g><g id="Regular-M" transform="matrix(1 0 0 1 1394.06 1126)"><path d="M55 -30.23 H65 V-50.23 H55 V-30.23 Z M25 -0.23 V-10.23 H45 V-0.23 H25 Z M75 -0.23 V-10.23 H95 V-0.23 H75 Z M35 -30.23 Q39.125 -30.23 42.062 -33.167 Q45 -36.105 45 -40.23 Q45 -44.355 42.062 -47.292 Q39.125 -50.23 35 -50.23 Q30.875 -50.23 27.938 -47.292 Q25 -44.355 25 -40.23 Q25 -36.105 27.938 -33.167 Q30.875 -30.23 35 -30.23 Z M85 -30.23 Q89.125 -30.23 92.062 -33.167 Q95 -36.105 95 -40.23 Q95 -44.355 92.062 -47.292 Q89.125 -50.23 85 -50.23 Q80.875 -50.23 77.938 -47.292 Q75 -44.355 75 -40.23 Q75 -36.105 77.938 -33.167 Q80.875 -30.23 85 -30.23 Z M20 -15.23 Q15.875 -15.23 12.938 -18.167 Q10 -21.105 10 -25.23 V-55.23 Q10 -59.355 12.938 -62.292 Q15.875 -65.23 20 -65.23 H100 Q104.125 -65.23 107.062 -62.292 Q110 -59.355 110 -55.23 V-25.23 Q110 -21.105 107.062 -18.167 Q104.125 -15.23 100 -15.23 H20 Z M20 -25.23 H100 Q100 -25.23 100 -25.23 Q100 -25.23 100 -25.23 V-55.23 Q100 -55.23 100 -55.23 Q100 -55.23 100 -55.23 H20 Q20 -55.23 20 -55.23 Q20 -55.23 20 -55.23 V-25.23 Q20 -25.23 20 -25.23 Q20 -25.23 20 -25.23 Z"/></g><g id="Light-M" transform="matrix(1 0 0 1 1098.18 1126)"><path d="M56.25 -31.287 H63.75 V-48.499 H56.25 V-31.287 Z M26.924 -2.73 V-10.23 H45 V-2.73 H26.924 Z M75 -2.73 V-10.23 H93.076 V-2.73 H75 Z M35.674 -31.287 Q39.269 -31.287 41.774 -33.792 Q44.279 -36.297 44.279 -39.87 Q44.279 -43.441 41.774 -45.946 Q39.269 -48.451 35.697 -48.451 Q32.125 -48.451 29.596 -45.937 Q27.067 -43.424 27.067 -39.894 Q27.067 -36.297 29.595 -33.792 Q32.124 -31.287 35.674 -31.287 Z M84.311 -31.24 Q87.875 -31.24 90.427 -33.777 Q92.98 -36.315 92.98 -39.877 Q92.98 -43.441 90.433 -45.97 Q87.885 -48.499 84.309 -48.499 Q80.731 -48.499 78.203 -45.97 Q75.674 -43.441 75.674 -39.877 Q75.674 -36.315 78.211 -33.777 Q80.749 -31.24 84.311 -31.24 Z M21.539 -17.057 Q17.75 -17.057 15.125 -19.682 Q12.5 -22.307 12.5 -26.1 V-53.686 Q12.5 -57.48 15.125 -60.105 Q17.75 -62.73 21.539 -62.73 H98.461 Q102.25 -62.73 104.875 -60.105 Q107.5 -57.48 107.5 -53.686 V-26.1 Q107.5 -22.307 104.875 -19.682 Q102.25 -17.057 98.461 -17.057 H21.539 Z M21.539 -24.556 H98.461 Q99.135 -24.556 99.567 -24.99 Q100 -25.422 100 -26.095 V-53.691 Q100 -54.365 99.567 -54.797 Q99.135 -55.23 98.461 -55.23 H21.539 Q20.865 -55.23 20.433 -54.797 Q20 -54.365 20 -53.691 V-26.095 Q20 -25.422 20.433 -24.99 Q20.865 -24.556 21.539 -24.556 Z"/></g><g id="Thin-M" transform="matrix(1 0 0 1 802.565 1126)"><path d="M57.5 -32.345 H62.5 V-46.769 H57.5 V-32.345 Z M28.846 -5.23 V-10.23 H45 V-5.23 H28.846 Z M75 -5.23 V-10.23 H91.154 V-5.23 H75 Z M36.346 -32.345 Q39.414 -32.345 41.485 -34.417 Q43.557 -36.49 43.557 -39.509 Q43.557 -42.527 41.485 -44.6 Q39.414 -46.672 36.394 -46.672 Q33.375 -46.672 31.255 -44.582 Q29.135 -42.492 29.135 -39.557 Q29.135 -36.49 31.253 -34.417 Q33.371 -32.345 36.346 -32.345 Z M83.624 -32.249 Q86.625 -32.249 88.794 -34.386 Q90.961 -36.525 90.961 -39.526 Q90.961 -42.527 88.804 -44.649 Q86.646 -46.769 83.616 -46.769 Q80.586 -46.769 78.466 -44.649 Q76.346 -42.527 76.346 -39.526 Q76.346 -36.525 78.484 -34.386 Q80.621 -32.249 83.624 -32.249 Z M23.078 -18.884 Q19.625 -18.884 17.312 -21.196 Q15 -23.509 15 -26.97 V-52.144 Q15 -55.605 17.312 -57.917 Q19.625 -60.23 23.078 -60.23 H96.922 Q100.375 -60.23 102.688 -57.917 Q105 -55.605 105 -52.144 V-26.97 Q105 -23.509 102.688 -21.196 Q100.375 -18.884 96.922 -18.884 H23.078 Z M23.078 -23.884 H96.922 Q98.269 -23.884 99.135 -24.749 Q100 -25.615 100 -26.961 V-52.152 Q100 -53.499 99.135 -54.365 Q98.269 -55.23 96.922 -55.23 H23.078 Q21.731 -55.23 20.865 -54.365 Q20 -53.499 20 -52.152 V-26.961 Q20 -25.615 20.865 -24.749 Q21.731 -23.884 23.078 -23.884 Z"/></g><g id="Ultralight-M" transform="matrix(1 0 0 1 506.415 1126)"><path d="M58.25 -32.98 H61.75 V-45.73 H58.25 V-32.98 Z M30 -6.73 V-10.23 H45 V-6.73 H30 Z M75 -6.73 V-10.23 H90 V-6.73 H75 Z M36.75 -32.98 Q39.5 -32.98 41.312 -34.792 Q43.125 -36.605 43.125 -39.292 Q43.125 -41.98 41.312 -43.792 Q39.5 -45.605 36.812 -45.605 Q34.125 -45.605 32.25 -43.769 Q30.375 -41.934 30.375 -39.355 Q30.375 -36.605 32.248 -34.792 Q34.12 -32.98 36.75 -32.98 Z M83.21 -32.855 Q85.875 -32.855 87.812 -34.752 Q89.75 -36.65 89.75 -39.315 Q89.75 -41.98 87.826 -43.855 Q85.903 -45.73 83.201 -45.73 Q80.5 -45.73 78.625 -43.855 Q76.75 -41.98 76.75 -39.315 Q76.75 -36.65 78.647 -34.752 Q80.545 -32.855 83.21 -32.855 Z M24 -19.98 Q20.75 -19.98 18.625 -22.105 Q16.5 -24.23 16.5 -27.492 V-51.217 Q16.5 -54.48 18.625 -56.605 Q20.75 -58.73 24 -58.73 H96 Q99.25 -58.73 101.375 -56.605 Q103.5 -54.48 103.5 -51.217 V-27.492 Q103.5 -24.23 101.375 -22.105 Q99.25 -19.98 96 -19.98 H24 Z M24 -23.48 H96 Q97.75 -23.48 98.875 -24.605 Q100 -25.73 100 -27.48 V-51.23 Q100 -52.98 98.875 -54.105 Q97.75 -55.23 96 -55.23 H24 Q22.25 -55.23 21.125 -54.105 Q20 -52.98 20 -51.23 V-27.48 Q20 -25.73 21.125 -24.605 Q22.25 -23.48 24 -23.48 Z"/></g><g id="Bold-S" transform="matrix(1 0 0 1 2294.23 696)"><path d="M42.014 -28.819 H52.666 V-43.021 H42.014 V-28.819 Z M20.711 4.417 V-7.22 H40.831 V4.417 H20.711 Z M53.849 4.417 V-7.22 H73.969 V4.417 H53.849 Z M29.805 -28.819 Q32.842 -28.819 34.864 -30.911 Q36.886 -33.003 36.886 -35.941 Q36.886 -38.879 34.843 -40.95 Q32.801 -43.021 29.764 -43.021 Q26.826 -43.021 24.755 -40.93 Q22.684 -38.838 22.684 -35.9 Q22.684 -32.962 24.776 -30.89 Q26.867 -28.819 29.805 -28.819 Z M64.916 -28.819 Q67.854 -28.819 69.925 -30.911 Q71.996 -33.003 71.996 -35.941 Q71.996 -38.879 69.904 -40.95 Q67.813 -43.021 64.875 -43.021 Q61.937 -43.021 59.865 -40.93 Q57.794 -38.838 57.794 -35.9 Q57.794 -32.962 59.886 -30.89 Q61.978 -28.819 64.916 -28.819 Z M17.753 -11.954 Q12.525 -11.954 9.32 -15.16 Q6.115 -18.365 6.115 -23.592 V-50.221 Q6.115 -55.448 9.32 -58.653 Q12.525 -61.859 17.753 -61.859 H76.928 Q82.155 -61.859 85.36 -58.653 Q88.565 -55.448 88.565 -50.221 V-23.592 Q88.565 -18.365 85.36 -15.16 Q82.155 -11.954 76.928 -11.954 H17.753 Z M17.753 -23.592 H76.928 Q76.928 -23.592 76.928 -23.592 Q76.928 -23.592 76.928 -23.592 V-50.221 Q76.928 -50.221 76.928 -50.221 Q76.928 -50.221 76.928 -50.221 H17.753 Q17.753 -50.221 17.753 -50.221 Q17.753 -50.221 17.753 -50.221 V-23.592 Q17.753 -23.592 17.753 -23.592 Q17.753 -23.592 17.753 -23.592 Z"/></g><g id="Semibold-S" transform="matrix(1 0 0 1 1998.1 696)"><path d="M42.786 -29.548 H51.894 V-43.75 H42.786 V-29.548 Z M21.997 -0.471 V-10.136 H39.545 V-0.471 H21.997 Z M55.135 -0.471 V-10.136 H72.683 V-0.471 H55.135 Z M29.72 -29.548 Q32.714 -29.548 34.756 -31.64 Q36.8 -33.733 36.8 -36.67 Q36.8 -39.608 34.736 -41.679 Q32.672 -43.75 29.678 -43.75 Q26.74 -43.75 24.669 -41.658 Q22.598 -39.567 22.598 -36.629 Q22.598 -33.69 24.69 -31.619 Q26.783 -29.548 29.72 -29.548 Z M65.002 -29.548 Q67.94 -29.548 70.011 -31.64 Q72.082 -33.733 72.082 -36.67 Q72.082 -39.608 69.99 -41.679 Q67.897 -43.75 64.96 -43.75 Q62.022 -43.75 59.951 -41.658 Q57.88 -39.567 57.88 -36.629 Q57.88 -33.69 59.972 -31.619 Q62.064 -29.548 65.002 -29.548 Z M17.238 -14.87 Q12.869 -14.87 10.221 -17.518 Q7.572 -20.166 7.572 -24.535 V-49.878 Q7.572 -54.248 10.221 -56.896 Q12.869 -59.543 17.238 -59.543 H77.442 Q81.811 -59.543 84.459 -56.896 Q87.108 -54.248 87.108 -49.878 V-24.535 Q87.108 -20.166 84.459 -17.518 Q81.811 -14.87 77.442 -14.87 H17.238 Z M17.238 -24.535 H77.442 Q77.442 -24.535 77.442 -24.535 Q77.442 -24.535 77.442 -24.535 V-49.878 Q77.442 -49.878 77.442 -49.878 Q77.442 -49.878 77.442 -49.878 H17.238 Q17.238 -49.878 17.238 -49.878 Q17.238 -49.878 17.238 -49.878 V-24.535 Q17.238 -24.535 17.238 -24.535 Q17.238 -24.535 17.238 -24.535 Z"/></g><g id="Medium-S" transform="matrix(1 0 0 1 1701.85 696)"><path d="M43.365 -30.095 H51.315 V-44.297 H43.365 V-30.095 Z M22.963 -4.137 V-12.323 H38.579 V-4.137 H22.963 Z M56.101 -4.137 V-12.323 H71.717 V-4.137 H56.101 Z M29.656 -30.095 Q32.617 -30.095 34.677 -32.187 Q36.736 -34.279 36.736 -37.217 Q36.736 -40.154 34.656 -42.225 Q32.575 -44.297 29.614 -44.297 Q26.676 -44.297 24.605 -42.205 Q22.534 -40.113 22.534 -37.175 Q22.534 -34.237 24.626 -32.166 Q26.718 -30.095 29.656 -30.095 Z M65.066 -30.095 Q68.004 -30.095 70.075 -32.187 Q72.146 -34.279 72.146 -37.217 Q72.146 -40.154 70.054 -42.225 Q67.962 -44.297 65.024 -44.297 Q62.086 -44.297 60.015 -42.205 Q57.944 -40.113 57.944 -37.175 Q57.944 -34.237 60.036 -32.166 Q62.129 -30.095 65.066 -30.095 Z M16.852 -17.057 Q13.126 -17.057 10.896 -19.287 Q8.666 -21.517 8.666 -25.243 V-49.62 Q8.666 -53.347 10.896 -55.576 Q13.126 -57.806 16.852 -57.806 H77.828 Q81.554 -57.806 83.784 -55.576 Q86.014 -53.347 86.014 -49.62 V-25.243 Q86.014 -21.517 83.784 -19.287 Q81.554 -17.057 77.828 -17.057 H16.852 Z M16.852 -25.243 H77.828 Q77.828 -25.243 77.828 -25.243 Q77.828 -25.243 77.828 -25.243 V-49.62 Q77.828 -49.62 77.828 -49.62 Q77.828 -49.62 77.828 -49.62 H16.852 Q16.852 -49.62 16.852 -49.62 Q16.852 -49.62 16.852 -49.62 V-25.243 Q16.852 -25.243 16.852 -25.243 Q16.852 -25.243 16.852 -25.243 Z"/></g><g id="Regular-S" transform="matrix(1 0 0 1 1405.73 696)"><path d="M43.79 -30.496 H50.891 V-44.698 H43.79 V-30.496 Z M23.67 -6.826 V-13.927 H37.872 V-6.826 H23.67 Z M56.808 -6.826 V-13.927 H71.01 V-6.826 H56.808 Z M29.608 -30.496 Q32.546 -30.496 34.617 -32.588 Q36.689 -34.68 36.689 -37.618 Q36.689 -40.556 34.597 -42.627 Q32.505 -44.698 29.567 -44.698 Q26.629 -44.698 24.558 -42.606 Q22.486 -40.514 22.486 -37.576 Q22.486 -34.638 24.578 -32.567 Q26.67 -30.496 29.608 -30.496 Z M65.113 -30.496 Q68.051 -30.496 70.122 -32.588 Q72.194 -34.68 72.194 -37.618 Q72.194 -40.556 70.102 -42.627 Q68.01 -44.698 65.072 -44.698 Q62.134 -44.698 60.063 -42.606 Q57.992 -40.514 57.992 -37.576 Q57.992 -34.638 60.083 -32.567 Q62.175 -30.496 65.113 -30.496 Z M16.569 -18.661 Q13.314 -18.661 11.391 -20.584 Q9.468 -22.507 9.468 -25.762 V-49.432 Q9.468 -52.687 11.391 -54.61 Q13.314 -56.533 16.569 -56.533 H78.111 Q81.366 -56.533 83.289 -54.61 Q85.212 -52.687 85.212 -49.432 V-25.762 Q85.212 -22.507 83.289 -20.584 Q81.366 -18.661 78.111 -18.661 H16.569 Z M16.569 -25.762 H78.111 Q78.111 -25.762 78.111 -25.762 Q78.111 -25.762 78.111 -25.762 V-49.432 Q78.111 -49.432 78.111 -49.432 Q78.111 -49.432 78.111 -49.432 H16.569 Q16.569 -49.432 16.569 -49.432 Q16.569 -49.432 16.569 -49.432 V-25.762 Q16.569 -25.762 16.569 -25.762 Q16.569 -25.762 16.569 -25.762 Z"/></g><g id="Light-S" transform="matrix(1 0 0 1 1109.75 696)"><path d="M44.776 -31.33 H49.904 V-43.332 H44.776 V-31.33 Z M25.188 -8.798 V-13.927 H37.872 V-8.798 H25.188 Z M56.808 -8.798 V-13.927 H69.492 V-8.798 H56.808 Z M30.14 -31.33 Q32.66 -31.33 34.39 -33.081 Q36.119 -34.832 36.119 -37.334 Q36.119 -39.835 34.369 -41.565 Q32.618 -43.295 30.116 -43.295 Q27.615 -43.295 25.866 -41.537 Q24.118 -39.779 24.118 -37.311 Q24.118 -34.79 25.887 -33.06 Q27.655 -31.33 30.14 -31.33 Z M64.57 -31.293 Q67.065 -31.293 68.832 -33.069 Q70.6 -34.845 70.6 -37.341 Q70.6 -39.835 68.816 -41.583 Q67.031 -43.332 64.525 -43.332 Q62.02 -43.332 60.272 -41.563 Q58.523 -39.793 58.523 -37.298 Q58.523 -34.804 60.299 -33.048 Q62.076 -31.293 64.57 -31.293 Z M17.783 -20.103 Q14.794 -20.103 13.117 -21.78 Q11.441 -23.456 11.441 -26.448 V-48.214 Q11.441 -51.207 13.117 -52.884 Q14.794 -54.56 17.783 -54.56 H76.897 Q79.886 -54.56 81.563 -52.884 Q83.24 -51.207 83.24 -48.214 V-26.448 Q83.24 -23.456 81.563 -21.78 Q79.886 -20.103 76.897 -20.103 H17.783 Z M17.783 -25.23 H76.897 Q77.429 -25.23 77.77 -25.573 Q78.111 -25.914 78.111 -26.444 V-48.218 Q78.111 -48.75 77.77 -49.091 Q77.429 -49.432 76.897 -49.432 H17.783 Q17.251 -49.432 16.91 -49.091 Q16.569 -48.75 16.569 -48.218 V-26.444 Q16.569 -25.914 16.91 -25.573 Q17.251 -25.23 17.783 -25.23 Z"/></g><g id="Thin-S" transform="matrix(1 0 0 1 814.015 696)"><path d="M45.762 -32.165 H48.918 V-41.967 H45.762 V-32.165 Z M26.705 -10.771 V-13.927 H37.872 V-10.771 H26.705 Z M56.808 -10.771 V-13.927 H67.975 V-10.771 H56.808 Z M30.67 -32.165 Q32.774 -32.165 34.162 -33.574 Q35.55 -34.983 35.55 -37.049 Q35.55 -39.114 34.141 -40.502 Q32.732 -41.891 30.666 -41.891 Q28.601 -41.891 27.175 -40.468 Q25.749 -39.044 25.749 -37.045 Q25.749 -34.942 27.195 -33.553 Q28.641 -32.165 30.67 -32.165 Z M64.027 -32.089 Q66.079 -32.089 67.543 -33.55 Q69.007 -35.011 69.007 -37.062 Q69.007 -39.114 67.531 -40.541 Q66.054 -41.967 63.98 -41.967 Q61.906 -41.967 60.48 -40.519 Q59.054 -39.072 59.054 -37.021 Q59.054 -34.97 60.514 -33.529 Q61.976 -32.089 64.027 -32.089 Z M18.997 -21.544 Q16.273 -21.544 14.843 -22.974 Q13.413 -24.404 13.413 -27.135 V-46.997 Q13.413 -49.728 14.843 -51.158 Q16.273 -52.588 18.997 -52.588 H75.683 Q78.407 -52.588 79.837 -51.158 Q81.267 -49.728 81.267 -46.997 V-27.135 Q81.267 -24.404 79.837 -22.974 Q78.407 -21.544 75.683 -21.544 H18.997 Z M18.997 -24.7 H75.683 Q76.745 -24.7 77.429 -25.382 Q78.111 -26.066 78.111 -27.128 V-47.004 Q78.111 -48.066 77.429 -48.75 Q76.745 -49.432 75.683 -49.432 H18.997 Q17.935 -49.432 17.251 -48.75 Q16.569 -48.066 16.569 -47.004 V-27.128 Q16.569 -26.066 17.251 -25.382 Q17.935 -24.7 18.997 -24.7 Z"/></g><g id="Ultralight-S" transform="matrix(1 0 0 1 517.792 696)"><path d="M46.354 -32.666 H48.326 V-41.147 H46.354 V-32.666 Z M27.615 -11.954 V-13.927 H37.872 V-11.954 H27.615 Z M56.808 -11.954 V-13.927 H67.065 V-11.954 H56.808 Z M30.989 -32.666 Q32.842 -32.666 34.026 -33.87 Q35.209 -35.074 35.209 -36.878 Q35.209 -38.682 34.005 -39.865 Q32.801 -41.049 30.997 -41.049 Q29.193 -41.049 27.96 -39.826 Q26.727 -38.603 26.727 -36.886 Q26.727 -35.033 27.979 -33.849 Q29.231 -32.666 30.989 -32.666 Z M63.701 -32.567 Q65.487 -32.567 66.769 -33.838 Q68.051 -35.111 68.051 -36.896 Q68.051 -38.682 66.759 -39.915 Q65.467 -41.147 63.653 -41.147 Q61.838 -41.147 60.605 -39.894 Q59.372 -38.64 59.372 -36.854 Q59.372 -35.068 60.644 -33.818 Q61.916 -32.567 63.701 -32.567 Z M19.725 -22.409 Q17.161 -22.409 15.879 -23.691 Q14.597 -24.973 14.597 -27.547 V-46.266 Q14.597 -48.84 15.879 -50.122 Q17.161 -51.404 19.725 -51.404 H74.955 Q77.519 -51.404 78.801 -50.122 Q80.084 -48.84 80.084 -46.266 V-27.547 Q80.084 -24.973 78.801 -23.691 Q77.519 -22.409 74.955 -22.409 H19.725 Z M19.725 -24.381 H74.955 Q76.336 -24.381 77.223 -25.269 Q78.111 -26.156 78.111 -27.537 V-46.276 Q78.111 -47.657 77.223 -48.544 Q76.336 -49.432 74.955 -49.432 H19.725 Q18.344 -49.432 17.457 -48.544 Q16.569 -47.657 16.569 -46.276 V-27.537 Q16.569 -26.156 17.457 -25.269 Q18.344 -24.381 19.725 -24.381 Z"/></g></g></svg>