<svg xmlns="http://www.w3.org/2000/svg" height="40" viewBox="0 -960 960 960" width="40"><path d="M807.87-563.45v-151.61q0-4.62-3.84-8.47-3.85-3.84-8.47-3.84H643.45v-47.89h152.37q23.99 0 41.96 17.8 17.98 17.79 17.98 42.3v151.71h-47.89Zm-703.13 0v-151.71q0-24.51 17.8-42.3 17.79-17.8 42.3-17.8h151.71v47.89H164.94q-4.62 0-8.47 3.84-3.84 3.85-3.84 8.47v151.61h-47.89Zm60.1 378.71q-24.51 0-42.3-17.8-17.8-17.79-17.8-42.3v-151.71h47.89v151.61q0 4.62 3.84 8.47 3.85 3.84 8.47 3.84h151.61v47.89H164.84Zm228.07-141.44v-307.64L633.82-480 392.91-326.18Zm227 315.95v-47.88h295.26v47.88H619.91Zm146.14-119.13L624.17-271.65l33.48-33.49 85.11 85.01v-197.66h47.88v197.19l84.63-84.54 33.49 33.49-142.71 142.29Z"/></svg>