<svg xmlns="http://www.w3.org/2000/svg" height="48" viewBox="0 -960 960 960" width="48"><path d="M813.58-566.38v-154.39q0-4.61-3.85-8.46-3.85-3.85-8.46-3.85H646.38v-43.84h155.23q21.82 0 38.81 16.73 17 16.73 17 39.33v154.48h-43.84Zm-710.5 0v-154.48q0-22.6 16.73-39.33 16.73-16.73 39.33-16.73h154.48v43.84H159.23q-4.61 0-8.46 3.85-3.85 3.85-3.85 8.46v154.39h-43.84Zm56.06 383.3q-22.6 0-39.33-16.73-16.73-16.73-16.73-39.33v-154.48h43.84v154.39q0 4.61 3.85 8.46 3.85 3.85 8.46 3.85h154.39v43.84H159.14Zm234.01-144.54v-304.76L632.38-480 393.15-327.62ZM623.39-10.19v-43.85h296.92v43.85H623.39Zm146.23-117.5L627.85-270.08l30.77-30.76 89.84 89.92v-205.39h43.85v205.08l89.54-89.61 30.76 30.76-142.99 142.39Z"/></svg>