<svg xmlns="http://www.w3.org/2000/svg" height="24" viewBox="0 -960 960 960" width="24"><path d="M797.2-557v-159.7H637v-92.52h151.72q42.24 0 71.62 29.38 29.38 29.38 29.38 71.62V-557H797.2Zm-726.42 0v-151.22q0-42.24 29.38-71.62 29.38-29.38 71.62-29.38H323v92.52H163.3V-557H70.78Zm101 406.22q-42.24 0-71.62-29.38-29.38-29.38-29.38-71.62V-403h92.52v159.7H323v92.52H171.78Zm206.7-147.31v-363.82L661.91-480 378.48-298.09ZM616.22.07v-75h310v75h-310Zm155-133.46-155-155 52-52 66 65v-168h75v167l65-64 52 52-155 155Z"/></svg>