<svg xmlns="http://www.w3.org/2000/svg" height="20" viewBox="0 -960 960 960" width="20"><path d="M792-552v-119.38q0-9.24-7.69-16.93-7.69-7.69-16.93-7.69H648v-32h119.38q24.32 0 40.47 16.15T824-671.38V-552h-32Zm-656 0v-119.38q0-24.32 16.15-40.47T192.62-728H312v32H192.62q-9.24 0-16.93 7.69-7.69 7.69-7.69 16.93V-552h-32Zm56.37 320Q168-232 152-248.15q-16-16.15-16-40.47V-410h32v121.38q0 9.24 7.69 16.93 7.69 7.69 16.93 7.69H312v32H192.37ZM404-348.92v-262.16L611.08-480 404-348.92ZM654.77-19.23v-32h248v32h-248Zm124-110L662.46-245.54l23.31-23.31 77 78.54v-179.23h32v179.23l77-78.54 23.31 23.31-116.31 116.31Z"/></svg>