<svg xmlns="http://www.w3.org/2000/svg" height="40" viewBox="0 -960 960 960" width="40"><path d="M804-562v-130q0-12-10-22t-22-10H642v-24h130q23.85 0 39.93 16.07Q828-715.85 828-692v130h-24Zm-672 0v-130q0-23.85 16.07-39.93Q164.15-748 188-748h130v24H188q-12 0-22 10t-10 22v130h-24Zm56 350q-23.85 0-39.93-16.07Q132-244.15 132-268v-130h24v130q0 12 10 22t22 10h130v24H188Zm218.67-138v-260L610-480 406.67-350Zm236 324v-24h268v24h-268ZM776-132 652.67-255.33 670-272.67 764-178v-210.67h24V-178l94-94.67 17.33 17.34L776-132Z"/></svg>