<svg xmlns="http://www.w3.org/2000/svg" height="20" viewBox="0 -960 960 960" width="20"><path d="M798.43-554.87v-146.56H650.87v-106.48h139.09q48 0 81.47 33.48 33.48 33.47 33.48 81.47v138.09H798.43Zm-742.34 0v-138.09q0-48 33.48-81.47 33.47-33.48 81.47-33.48h138.09v106.48H162.57v146.56H56.09ZM170.8-152.09q-48.06 0-81.38-33.48-33.33-33.47-33.33-81.47v-140.09h106.48v148.56h146.56v106.48H170.8Zm199.77-135.04v-385.74L672.87-480l-302.3 192.87Zm259 350.78v-88.96h308.69v88.96H629.57ZM783.91-102.7 626.7-259.35l62.78-62.78L739-271.74v-144.83h88.96v146.27l50.39-51.83 62.78 62.78L783.91-102.7Z"/></svg>