<svg xmlns="http://www.w3.org/2000/svg" height="20" viewBox="0 -960 960 960" width="20"><path d="M790-550.5v-111q0-12-10-22t-22-10H646.5V-711h111.74q20.9 0 35.08 14.18t14.18 35.08v111.24H790Zm-637 0v-111.24q0-20.9 14.18-35.08T202.26-711H313.5v17.5h-111q-12 0-22 10t-10 22v111H153ZM202.01-249q-20.95 0-34.98-14.18Q153-277.36 153-298.26V-411.5h17.5v113q0 12 10 22t22 10h111v17.5H202.01ZM411.5-363v-234L597-480 411.5-363Zm251 338v-17.5h231V-25h-231ZM778-137 672.5-242.5l13-13 84 86.5v-189H787v188.5l83.5-86 13 13L778-137Z"/></svg>