<svg xmlns="http://www.w3.org/2000/svg" height="48" viewBox="0 -960 960 960" width="48"><path d="M806.5-563v-131q0-12-10-22t-22-10H643v-22h131.99q21.22 0 37.37 15.88 16.14 15.88 16.14 37.88V-563h-22ZM132-563v-131.24q0-22 15.88-37.88Q163.76-748 185.76-748H317v22H186q-12 0-22 10t-10 22v131h-22Zm53.76 351q-22 0-37.88-15.88Q132-243.76 132-265.76V-397h22v131q0 12 10 22t22 10h131v22H185.76ZM407-351v-258l202 129-202 129ZM644-26.5v-22h268v22H644ZM777-132 654-255l16-16 96 97v-214h22v214l96-97 16 16-123 123Z"/></svg>