<svg xmlns="http://www.w3.org/2000/svg" height="24" viewBox="0 -960 960 960" width="24"><path d="M800-560v-135.38q0-9.24-7.69-16.93-7.69-7.69-16.93-7.69H640v-40h135.38q27.62 0 46.12 18.5Q840-723 840-695.38V-560h-40Zm-680 0v-135.38q0-27.62 18.5-46.12Q157-760 184.62-760H320v40H184.62q-9.24 0-16.93 7.69-7.69 7.69-7.69 16.93V-560h-40Zm64.62 360q-27.62 0-46.12-18.5Q120-237 120-264.62V-400h40v135.38q0 9.24 7.69 16.93 7.69 7.69 16.93 7.69H320v40H184.62ZM400-336.92v-286.16L623.08-480 400-336.92ZM630.77-20.23v-40h280v40h-280Zm140-109L638.46-261.54l28.31-28.31 84 83.54v-195.23h40v195.23l84-83.54 28.31 28.31-132.31 132.31Z"/></svg>