<svg xmlns="http://www.w3.org/2000/svg" height="48" viewBox="0 -960 960 960" width="48"><path d="M822.87-570.87v-171h-172v-77.52h165.78q33.74 0 58.74 25t25 58.74v164.78h-77.52Zm-761.7 0v-164.78q0-33.74 24.84-58.74t58.34-25h164.78v77.52h-171v171H61.17Zm83.18 429.7q-33.5 0-58.34-24.84-24.84-24.84-24.84-58.34v-164.78h76.96v171h171v76.96H144.35ZM377.7-300.39v-359.78L660.17-480 377.7-300.39ZM624.04 14.65v-63.96h324.7v63.96h-324.7Zm159.35-132.78L624.18-277.78l44.78-44.79 83.52 82.4V-438h63.96v198.26l83.39-82.83 44.78 44.79-161.22 159.65Z"/></svg>