<svg xmlns="http://www.w3.org/2000/svg" height="40" viewBox="0 -960 960 960" width="40"><path d="M813.33-566.67v-166.66H646.67V-800h166.66q27 0 46.84 19.83Q880-760.33 880-733.33v166.66h-66.67Zm-733.33 0v-166.66q0-27 19.83-46.84Q119.67-800 146.67-800h166.66v66.67H146.67v166.66H80ZM146.67-160q-27 0-46.84-19.83Q80-199.67 80-226.67v-166.66h66.67v166.66h166.66V-160H146.67ZM382-306.67v-346.66L653.33-480 382-306.67ZM608-.33V-67h320V-.33H608ZM766-120 608.67-278l46.66-46.67 78 76.67v-188H800v188l78-76.67L924.67-278 766-120Z"/></svg>