<svg xmlns="http://www.w3.org/2000/svg" height="48" viewBox="0 -960 960 960" width="48"><path d="M329-104v-158h72v158h-72Zm0-298v-158h72v158h-72Zm0-297v-157h72v157h-72ZM36-104l119-752h71L108-104H36Zm660-3.5q-5-3.5-8-8.5l-4.12-9q-23.71-48-64.07-82.5-40.37-34.5-68.92-78.5-17.89-26-26.39-54.5T516-400q0-78 57-130.5T709-583q78 0 132.5 56T896-392q0 29-8 56t-24 50q-29 45-70 78.5t-63 82.34l-4 9.16q-3 5-8.5 8.5T707-104q-6 0-11-3.5Zm66.5-230Q786-361 786-394t-23.5-56.5Q739-474 706-474t-56.5 23.5Q626-427 626-394t23.5 56.5Q673-314 706-314t56.5-23.5ZM545-586l-43-270h73l36 229q-19 7.84-35.5 17.92Q559-599 545-586Z"/></svg>