<svg xmlns="http://www.w3.org/2000/svg" version="1.1" width="3300" height="2000"><g id="Notes"><style>
    text {
      font-family: monospace;
      text-anchor: middle;
    }
    text.emphasis {
      font-weight:bold;
    }
    text.lanchor {
      text-anchor: start;
    }
  </style><rect height="2200" id="artboard" fill="white" width="3300" x="0" y="0"/><line id="" style="fill:none;stroke:black;stroke-width:0.5;" x1="263" x2="3036" y1="292" y2="292"/><text class="lanchor emphasis" transform="matrix(1 0 0 1 263 322)">Weight/Scale Variations</text><text transform="matrix(1 0 0 1 559.711 322)">Ultralight</text><text transform="matrix(1 0 0 1 856.422 322)">Thin</text><text transform="matrix(1 0 0 1 1153.13 322)">Light</text><text transform="matrix(1 0 0 1 1449.84 322)">Regular</text><text transform="matrix(1 0 0 1 1746.56 322)">Medium</text><text transform="matrix(1 0 0 1 2043.27 322)">Semibold</text><text transform="matrix(1 0 0 1 2339.98 322)">Bold</text><text transform="matrix(1 0 0 1 2636.69 322)">Heavy</text><text transform="matrix(1 0 0 1 2933.4 322)">Black</text><text id="template-version" style="text-anchor: end;" transform="matrix(1 0 0 1 3036 1933)">Template v.1.0</text><text class="lanchor" transform="matrix(1 0 0 1 263 726)">Small</text><text class="lanchor" transform="matrix(1 0 0 1 263 1156)">Medium</text><text class="lanchor" transform="matrix(1 0 0 1 263 1586)">Large</text></g><g id="Guides"><g id="H-reference" style="fill:#27AAE1;stroke:none;" transform="matrix(1 0 0 1 339 696)"><path d="M 54.9316 0 L 57.666 0 L 30.5664 -70.459 L 28.0762 -70.459 L 0.976562 0 L 3.66211 0 L 12.9395 -24.4629 L 45.7031 -24.4629 Z M 29.1992 -67.0898 L 29.4434 -67.0898 L 44.8242 -26.709 L 13.8184 -26.709 Z"/></g><line id="Baseline-S" style="fill:none;stroke:#27AAE1;opacity:1;stroke-width:0.577;" x1="263" x2="3036" y1="696" y2="696"/><line id="Capline-S" style="fill:none;stroke:#27AAE1;opacity:1;stroke-width:0.577;" x1="263" x2="3036" y1="625.541" y2="625.541"/><g id="H-reference" style="fill:#27AAE1;stroke:none;" transform="matrix(1 0 0 1 339 1126)"><path d="M 54.9316 0 L 57.666 0 L 30.5664 -70.459 L 28.0762 -70.459 L 0.976562 0 L 3.66211 0 L 12.9395 -24.4629 L 45.7031 -24.4629 Z M 29.1992 -67.0898 L 29.4434 -67.0898 L 44.8242 -26.709 L 13.8184 -26.709 Z"/></g><line id="Baseline-M" style="fill:none;stroke:#27AAE1;opacity:1;stroke-width:0.577;" x1="263" x2="3036" y1="1126" y2="1126"/><line id="Capline-M" style="fill:none;stroke:#27AAE1;opacity:1;stroke-width:0.577;" x1="263" x2="3036" y1="1055.54" y2="1055.54"/><g id="H-reference" style="fill:#27AAE1;stroke:none;" transform="matrix(1 0 0 1 339 1556)"><path d="M 54.9316 0 L 57.666 0 L 30.5664 -70.459 L 28.0762 -70.459 L 0.976562 0 L 3.66211 0 L 12.9395 -24.4629 L 45.7031 -24.4629 Z M 29.1992 -67.0898 L 29.4434 -67.0898 L 44.8242 -26.709 L 13.8184 -26.709 Z"/></g><line id="Baseline-L" style="fill:none;stroke:#27AAE1;opacity:1;stroke-width:0.577;" x1="263" x2="3036" y1="1556" y2="1556"/><line id="Capline-L" style="fill:none;stroke:#27AAE1;opacity:1;stroke-width:0.577;" x1="263" x2="3036" y1="1485.54" y2="1485.54"/><rect height="119.336" id="left-margin" style="fill:darkred;stroke:none;opacity:0.4;" width="12.4512" x="1394.06" y="1030.79"/><rect height="119.336" id="right-margin" style="fill:darkgreen;stroke:none;opacity:0.4;" width="12.4512" x="1502.5112" y="1030.79"/><rect x="1406.5112" y="1045" width="96" height="96" fill="none" stroke="blue" stroke-dasharray="5"/><rect x="1394.06" y="1030.79" width="120.9024" height="119.336" fill="none" stroke="blue"/></g><g id="Symbols"><g id="Bold-L" transform="matrix(1 0 0 1 2266 1556)"><path d="M134.483 -51.698 Q132.548 -53.653 132.548 -56.515 V-77.477 Q132.548 -77.477 132.548 -77.477 Q132.548 -77.477 132.548 -77.477 H111.424 Q108.502 -77.477 106.657 -79.442 Q104.812 -81.404 104.812 -84.247 Q104.812 -87.09 106.768 -89.057 Q108.723 -91.022 111.585 -91.022 H130.774 Q137.137 -91.022 141.615 -86.545 Q146.093 -82.067 146.093 -75.704 V-56.354 Q146.093 -53.432 144.098 -51.587 Q142.103 -49.742 139.26 -49.742 Q136.417 -49.742 134.483 -51.698 Z M15.533 -49.742 Q12.739 -49.742 10.804 -51.698 Q8.869 -53.653 8.869 -56.515 V-75.704 Q8.869 -82.067 13.298 -86.545 Q17.729 -91.022 24.026 -91.022 H43.376 Q46.3 -91.022 48.143 -89.028 Q49.988 -87.033 49.988 -84.19 Q49.988 -81.347 48.143 -79.412 Q46.3 -77.477 43.376 -77.477 H22.253 Q22.253 -77.477 22.253 -77.477 Q22.253 -77.477 22.253 -77.477 V-56.354 Q22.253 -53.432 20.321 -51.587 Q18.389 -49.742 15.533 -49.742 Z M24.026 20.401 Q17.729 20.401 13.298 15.97 Q8.869 11.541 8.869 5.244 V-14.106 Q8.869 -17.03 10.833 -18.873 Q12.795 -20.717 15.59 -20.717 Q18.386 -20.717 20.319 -18.873 Q22.253 -17.03 22.253 -14.106 V7.018 Q22.253 7.018 22.253 7.018 Q22.253 7.018 22.253 7.018 H43.376 Q46.3 7.018 48.143 8.98 Q49.988 10.941 49.988 13.737 Q49.988 16.531 48.143 18.466 Q46.3 20.401 43.376 20.401 H24.026 Z M60.791 -12.977 V-57.482 Q60.791 -59.579 62.726 -60.627 Q64.661 -61.675 66.758 -60.546 L101.426 -38.616 Q103.2 -37.51 103.2 -35.241 Q103.2 -32.972 101.426 -32.005 L66.758 -9.914 Q64.661 -8.785 62.726 -9.833 Q60.791 -10.881 60.791 -12.977 Z M107.715 42.331 Q105.659 42.331 104.269 40.932 Q102.877 39.534 102.877 37.465 Q102.877 35.398 104.269 34.027 Q105.659 32.656 107.715 32.656 H149.64 Q151.535 32.656 153.007 34.056 Q154.477 35.454 154.477 37.523 Q154.477 39.59 153.007 40.961 Q151.535 42.331 149.64 42.331 H107.715 Z M123.517 3.47 V-23.781 Q123.517 -25.676 124.883 -27.148 Q126.251 -28.619 128.27 -28.619 Q130.29 -28.619 131.741 -27.148 Q133.192 -25.676 133.192 -23.781 V3.47 L143.513 -6.689 Q144.964 -7.979 146.818 -8.059 Q148.673 -8.14 150.285 -6.689 Q151.736 -5.076 151.736 -3.203 Q151.736 -1.329 150.285 0.084 L130.935 19.273 Q129.792 20.401 128.105 20.401 Q126.42 20.401 125.453 19.273 L106.425 0.084 Q104.987 -1.327 104.9 -3.219 Q104.812 -5.108 106.425 -6.689 Q107.836 -8.14 109.711 -8.059 Q111.585 -7.979 113.198 -6.689 L123.517 3.47 Z"/></g><g id="Semibold-L" transform="matrix(1 0 0 1 1970.27 1556)"><path d="M134.097 -51.452 Q132.407 -53.163 132.407 -55.673 V-77.337 Q132.407 -77.337 132.407 -77.337 Q132.407 -77.337 132.407 -77.337 H110.653 Q108.107 -77.337 106.459 -79.055 Q104.812 -80.773 104.812 -83.279 Q104.812 -85.785 106.522 -87.493 Q108.233 -89.2 110.743 -89.2 H131.404 Q136.684 -89.2 140.476 -85.406 Q144.27 -81.614 144.27 -76.334 V-55.583 Q144.27 -53.037 142.534 -51.389 Q140.799 -49.742 138.293 -49.742 Q135.787 -49.742 134.097 -51.452 Z M16.48 -49.742 Q14.001 -49.742 12.311 -51.452 Q10.622 -53.163 10.622 -55.673 V-76.334 Q10.622 -81.614 14.387 -85.406 Q18.154 -89.2 23.396 -89.2 H44.147 Q46.693 -89.2 48.341 -87.464 Q49.988 -85.729 49.988 -83.223 Q49.988 -80.717 48.341 -79.027 Q46.693 -77.337 44.147 -77.337 H22.393 Q22.393 -77.337 22.393 -77.337 Q22.393 -77.337 22.393 -77.337 V-55.583 Q22.393 -53.037 20.693 -51.389 Q18.992 -49.742 16.48 -49.742 Z M23.396 18.648 Q18.154 18.648 14.387 14.883 Q10.622 11.116 10.622 5.874 V-14.877 Q10.622 -17.423 12.339 -19.071 Q14.058 -20.717 16.536 -20.717 Q19.015 -20.717 20.705 -19.071 Q22.393 -17.423 22.393 -14.877 V6.877 Q22.393 6.877 22.393 6.877 Q22.393 6.877 22.393 6.877 H44.147 Q46.693 6.877 48.341 8.595 Q49.988 10.312 49.988 12.79 Q49.988 15.269 48.341 16.959 Q46.693 18.648 44.147 18.648 H23.396 Z M61.212 -12.628 V-57.832 Q61.212 -59.614 62.831 -60.504 Q64.452 -61.394 66.196 -60.406 L101.496 -38.055 Q102.99 -37.115 102.99 -35.254 Q102.99 -33.393 101.496 -32.495 L66.196 -10.054 Q64.452 -9.066 62.831 -9.956 Q61.212 -10.846 61.212 -12.628 Z M105.893 42.262 Q103.837 42.262 102.445 40.862 Q101.055 39.463 101.055 37.395 Q101.055 35.328 102.445 33.958 Q103.837 32.587 105.893 32.587 H147.818 Q149.782 32.587 151.219 33.985 Q152.655 35.385 152.655 37.452 Q152.655 39.521 151.219 40.891 Q149.782 42.262 147.818 42.262 H105.893 Z M121.695 3.82 V-23.431 Q121.695 -25.395 123.076 -26.832 Q124.456 -28.269 126.497 -28.269 Q128.537 -28.269 129.953 -26.832 Q131.37 -25.395 131.37 -23.431 V3.82 L141.69 -6.339 Q143.142 -7.629 145.03 -7.709 Q146.92 -7.79 148.463 -6.339 Q149.914 -4.796 149.914 -2.895 Q149.914 -0.995 148.463 0.434 L128.692 20.043 Q127.72 21.032 126.335 21.032 Q124.948 21.032 124.05 20.043 L104.603 0.434 Q103.229 -0.993 103.144 -2.911 Q103.06 -4.828 104.603 -6.339 Q106.032 -7.79 107.931 -7.709 Q109.832 -7.629 111.375 -6.339 L121.695 3.82 Z"/></g><g id="Medium-L" transform="matrix(1 0 0 1 1674.31 1556)"><path d="M133.808 -51.268 Q132.302 -52.793 132.302 -55.043 V-77.232 Q132.302 -77.232 132.302 -77.232 Q132.302 -77.232 132.302 -77.232 H110.074 Q107.812 -77.232 106.312 -78.766 Q104.812 -80.299 104.812 -82.554 Q104.812 -84.806 106.338 -86.319 Q107.863 -87.833 110.113 -87.833 H131.878 Q136.345 -87.833 139.623 -84.553 Q142.903 -81.275 142.903 -76.808 V-55.004 Q142.903 -52.742 141.361 -51.242 Q139.82 -49.742 137.567 -49.742 Q135.313 -49.742 133.808 -51.268 Z M17.189 -49.742 Q14.948 -49.742 13.442 -51.268 Q11.936 -52.793 11.936 -55.043 V-76.808 Q11.936 -81.275 15.204 -84.553 Q18.471 -87.833 22.922 -87.833 H44.726 Q46.988 -87.833 48.488 -86.291 Q49.988 -84.75 49.988 -82.497 Q49.988 -80.243 48.488 -78.738 Q46.988 -77.232 44.726 -77.232 H22.498 Q22.498 -77.232 22.498 -77.232 Q22.498 -77.232 22.498 -77.232 V-55.004 Q22.498 -52.742 20.972 -51.242 Q19.445 -49.742 17.189 -49.742 Z M22.922 17.334 Q18.471 17.334 15.204 14.066 Q11.936 10.799 11.936 6.348 V-15.456 Q11.936 -17.718 13.469 -19.218 Q15.004 -20.717 17.246 -20.717 Q19.487 -20.717 20.993 -19.218 Q22.498 -17.718 22.498 -15.456 V6.772 Q22.498 6.772 22.498 6.772 Q22.498 6.772 22.498 6.772 H44.726 Q46.988 6.772 48.488 8.306 Q49.988 9.839 49.988 12.081 Q49.988 14.322 48.488 15.828 Q46.988 17.334 44.726 17.334 H22.922 Z M61.528 -12.365 V-58.095 Q61.528 -59.64 62.91 -60.412 Q64.294 -61.185 65.775 -60.301 L101.549 -37.634 Q102.832 -36.818 102.832 -35.264 Q102.832 -33.709 101.549 -32.864 L65.775 -10.159 Q64.294 -9.275 62.91 -10.048 Q61.528 -10.82 61.528 -12.365 Z M104.525 42.209 Q102.47 42.209 101.078 40.809 Q99.688 39.411 99.688 37.342 Q99.688 35.275 101.078 33.904 Q102.47 32.534 104.525 32.534 H146.45 Q148.468 32.534 149.877 33.932 Q151.288 35.331 151.288 37.399 Q151.288 39.467 149.877 40.838 Q148.468 42.209 146.45 42.209 H104.525 Z M120.328 4.083 V-23.168 Q120.328 -25.186 121.718 -26.595 Q123.11 -28.006 125.167 -28.006 Q127.223 -28.006 128.613 -26.595 Q130.003 -25.186 130.003 -23.168 V4.083 L140.323 -6.076 Q141.774 -7.366 143.69 -7.447 Q145.606 -7.527 147.095 -6.076 Q148.547 -4.586 148.547 -2.666 Q148.547 -0.745 147.095 0.697 L127.009 20.622 Q126.167 21.506 125.006 21.506 Q123.843 21.506 122.998 20.622 L103.235 0.697 Q101.91 -0.745 101.828 -2.682 Q101.746 -4.618 103.235 -6.076 Q104.677 -7.527 106.598 -7.447 Q108.518 -7.366 110.008 -6.076 L120.328 4.083 Z"/></g><g id="Regular-L" transform="matrix(1 0 0 1 1378.56 1556)"><path d="M133.596 -51.134 Q132.225 -52.524 132.225 -54.58 V-77.155 Q132.225 -77.155 132.225 -77.155 Q132.225 -77.155 132.225 -77.155 H109.65 Q107.594 -77.155 106.204 -78.555 Q104.812 -79.953 104.812 -82.022 Q104.812 -84.089 106.204 -85.459 Q107.594 -86.83 109.65 -86.83 H132.225 Q136.095 -86.83 138.998 -83.927 Q141.9 -81.025 141.9 -77.155 V-54.58 Q141.9 -52.524 140.5 -51.134 Q139.102 -49.742 137.033 -49.742 Q134.966 -49.742 133.596 -51.134 Z M17.708 -49.742 Q15.641 -49.742 14.271 -51.134 Q12.9 -52.524 12.9 -54.58 V-77.155 Q12.9 -81.025 15.803 -83.927 Q18.705 -86.83 22.575 -86.83 H45.15 Q47.206 -86.83 48.598 -85.43 Q49.988 -84.032 49.988 -81.963 Q49.988 -79.896 48.598 -78.526 Q47.206 -77.155 45.15 -77.155 H22.575 Q22.575 -77.155 22.575 -77.155 Q22.575 -77.155 22.575 -77.155 V-54.58 Q22.575 -52.524 21.175 -51.134 Q19.777 -49.742 17.708 -49.742 Z M22.575 16.37 Q18.705 16.37 15.803 13.468 Q12.9 10.565 12.9 6.695 V-15.88 Q12.9 -17.936 14.3 -19.328 Q15.698 -20.717 17.767 -20.717 Q19.834 -20.717 21.204 -19.328 Q22.575 -17.936 22.575 -15.88 V6.695 Q22.575 6.695 22.575 6.695 Q22.575 6.695 22.575 6.695 H45.15 Q47.206 6.695 48.598 8.095 Q49.988 9.493 49.988 11.562 Q49.988 13.629 48.598 14.999 Q47.206 16.37 45.15 16.37 H22.575 Z M61.759 -12.171 V-58.289 Q61.759 -59.659 62.968 -60.345 Q64.177 -61.03 65.468 -60.224 L101.588 -37.326 Q102.716 -36.601 102.716 -35.27 Q102.716 -33.94 101.588 -33.134 L65.468 -10.236 Q64.177 -9.43 62.968 -10.115 Q61.759 -10.801 61.759 -12.171 Z M103.523 42.17 Q101.467 42.17 100.077 40.77 Q98.685 39.372 98.685 37.303 Q98.685 35.236 100.077 33.866 Q101.467 32.495 103.523 32.495 H145.447 Q147.503 32.495 148.895 33.895 Q150.285 35.293 150.285 37.362 Q150.285 39.429 148.895 40.799 Q147.503 42.17 145.447 42.17 H103.523 Z M119.325 4.276 V-22.975 Q119.325 -25.031 120.725 -26.423 Q122.123 -27.812 124.192 -27.812 Q126.259 -27.812 127.629 -26.423 Q129 -25.031 129 -22.975 V4.276 L139.32 -5.882 Q140.771 -7.172 142.706 -7.253 Q144.641 -7.334 146.093 -5.882 Q147.544 -4.431 147.544 -2.496 Q147.544 -0.561 146.093 0.89 L125.775 21.046 Q125.027 21.853 124.03 21.853 Q123.034 21.853 122.228 21.046 L102.233 0.89 Q100.943 -0.561 100.862 -2.512 Q100.781 -4.463 102.233 -5.882 Q103.684 -7.334 105.619 -7.253 Q107.554 -7.172 109.005 -5.882 L119.325 4.276 Z"/></g><g id="Light-L" transform="matrix(1 0 0 1 1082.77 1556)"><path d="M132.386 -50.358 Q131.356 -51.41 131.356 -52.967 V-74.302 Q131.356 -75.046 130.737 -75.667 Q130.116 -76.286 129.372 -76.286 H108.038 Q106.48 -76.286 105.428 -77.345 Q104.379 -78.405 104.379 -79.975 Q104.379 -81.546 105.428 -82.575 Q106.48 -83.605 108.038 -83.605 H129.372 Q133.167 -83.605 135.921 -80.851 Q138.675 -78.097 138.675 -74.302 V-52.967 Q138.675 -51.41 137.616 -50.358 Q136.558 -49.309 134.986 -49.309 Q133.415 -49.309 132.386 -50.358 Z M19.755 -49.309 Q18.184 -49.309 17.155 -50.358 Q16.125 -51.41 16.125 -52.967 V-74.302 Q16.125 -78.097 18.879 -80.851 Q21.633 -83.605 25.428 -83.605 H46.763 Q48.32 -83.605 49.372 -82.546 Q50.421 -81.488 50.421 -79.916 Q50.421 -78.345 49.372 -77.316 Q48.32 -76.286 46.763 -76.286 H25.428 Q24.684 -76.286 24.063 -75.667 Q23.444 -75.046 23.444 -74.302 V-52.967 Q23.444 -51.41 22.385 -50.358 Q21.325 -49.309 19.755 -49.309 Z M25.428 13.145 Q21.633 13.145 18.879 10.391 Q16.125 7.637 16.125 3.842 V-17.492 Q16.125 -19.05 17.184 -20.102 Q18.242 -21.151 19.814 -21.151 Q21.385 -21.151 22.414 -20.102 Q23.444 -19.05 23.444 -17.492 V3.842 Q23.444 4.586 24.063 5.207 Q24.684 5.826 25.428 5.826 H46.763 Q48.32 5.826 49.372 6.885 Q50.421 7.945 50.421 9.515 Q50.421 11.086 49.372 12.115 Q48.32 13.145 46.763 13.145 H25.428 Z M63.247 -14.529 V-55.931 Q63.247 -57.241 64.426 -57.863 Q65.605 -58.487 66.832 -57.805 L99.169 -37.265 Q100.235 -36.601 100.235 -35.27 Q100.235 -33.94 99.169 -33.195 L66.832 -12.718 Q65.605 -11.973 64.426 -12.597 Q63.247 -13.219 63.247 -14.529 Z M104.329 40.558 Q102.771 40.558 101.72 39.498 Q100.67 38.44 100.67 36.87 Q100.67 35.298 101.72 34.269 Q102.771 33.24 104.329 33.24 H145.386 Q146.944 33.24 147.994 34.298 Q149.045 35.357 149.045 36.928 Q149.045 38.498 147.994 39.527 Q146.944 40.558 145.386 40.558 H104.329 Z M120.938 8.059 V-21.3 Q120.938 -22.859 121.997 -23.909 Q123.055 -24.96 124.625 -24.96 Q126.197 -24.96 127.226 -23.909 Q128.255 -22.859 128.255 -21.3 V8.059 L140.065 -3.712 Q141.144 -4.691 142.645 -4.771 Q144.145 -4.852 145.227 -3.738 Q146.365 -2.57 146.365 -1.132 Q146.365 0.308 145.223 1.448 L126.191 20.379 Q125.523 21.108 124.527 21.108 Q123.53 21.108 122.798 20.379 L103.969 1.448 Q102.989 0.369 102.908 -1.105 Q102.828 -2.578 103.969 -3.712 Q105.111 -4.852 106.549 -4.771 Q107.988 -4.691 109.129 -3.712 L120.938 8.059 Z"/></g><g id="Thin-L" transform="matrix(1 0 0 1 787.282 1556)"><path d="M131.177 -49.584 Q130.488 -50.294 130.488 -51.355 V-71.45 Q130.488 -72.938 129.248 -74.178 Q128.008 -75.418 126.52 -75.418 H106.425 Q105.364 -75.418 104.654 -76.138 Q103.945 -76.857 103.945 -77.929 Q103.945 -79.003 104.654 -79.691 Q105.364 -80.38 106.425 -80.38 H126.52 Q130.237 -80.38 132.844 -77.774 Q135.45 -75.167 135.45 -71.45 V-51.355 Q135.45 -50.294 134.731 -49.584 Q134.012 -48.875 132.939 -48.875 Q131.865 -48.875 131.177 -49.584 Z M21.801 -48.875 Q20.727 -48.875 20.039 -49.584 Q19.35 -50.294 19.35 -51.355 V-71.45 Q19.35 -75.167 21.956 -77.774 Q24.563 -80.38 28.28 -80.38 H48.375 Q49.436 -80.38 50.146 -79.661 Q50.855 -78.942 50.855 -77.869 Q50.855 -76.795 50.146 -76.107 Q49.436 -75.418 48.375 -75.418 H28.28 Q26.792 -75.418 25.552 -74.178 Q24.312 -72.938 24.312 -71.45 V-51.355 Q24.312 -50.294 23.592 -49.584 Q22.873 -48.875 21.801 -48.875 Z M28.28 9.92 Q24.563 9.92 21.956 7.314 Q19.35 4.707 19.35 0.99 V-19.105 Q19.35 -20.166 20.069 -20.876 Q20.788 -21.585 21.861 -21.585 Q22.935 -21.585 23.623 -20.876 Q24.312 -20.166 24.312 -19.105 V0.99 Q24.312 2.478 25.552 3.718 Q26.792 4.958 28.28 4.958 H48.375 Q49.436 4.958 50.146 5.678 Q50.855 6.397 50.855 7.469 Q50.855 8.543 50.146 9.231 Q49.436 9.92 48.375 9.92 H28.28 Z M64.735 -16.885 V-53.575 Q64.735 -54.822 65.884 -55.383 Q67.03 -55.944 68.196 -55.386 L96.75 -37.202 Q97.755 -36.601 97.755 -35.27 Q97.755 -33.94 96.75 -33.258 L68.196 -15.198 Q67.03 -14.516 65.884 -15.077 Q64.735 -15.638 64.735 -16.885 Z M105.135 38.945 Q104.074 38.945 103.364 38.226 Q102.655 37.507 102.655 36.434 Q102.655 35.36 103.364 34.672 Q104.074 33.983 105.135 33.983 H145.323 Q146.384 33.983 147.094 34.703 Q147.805 35.422 147.805 36.494 Q147.805 37.568 147.094 38.256 Q146.384 38.945 145.323 38.945 H105.135 Z M122.55 11.842 V-19.626 Q122.55 -20.687 123.269 -21.396 Q123.988 -22.107 125.061 -22.107 Q126.135 -22.107 126.823 -21.396 Q127.512 -20.687 127.512 -19.626 V11.842 L140.808 -1.542 Q141.516 -2.211 142.582 -2.291 Q143.65 -2.372 144.361 -1.595 Q145.186 -0.71 145.186 0.232 Q145.186 1.175 144.356 2.006 L126.607 19.711 Q126.02 20.364 125.024 20.364 Q124.025 20.364 123.368 19.711 L105.706 2.006 Q105.035 1.3 104.954 0.303 Q104.874 -0.693 105.706 -1.542 Q106.536 -2.372 107.48 -2.291 Q108.421 -2.211 109.253 -1.542 L122.55 11.842 Z"/></g><g id="Ultralight-L" transform="matrix(1 0 0 1 491.205 1556)"><path d="M130.451 -49.12 Q129.968 -49.626 129.968 -50.387 V-69.737 Q129.968 -71.672 128.355 -73.285 Q126.743 -74.897 124.808 -74.897 H105.457 Q104.696 -74.897 104.19 -75.412 Q103.684 -75.928 103.684 -76.702 Q103.684 -77.477 104.19 -77.961 Q104.696 -78.445 105.457 -78.445 H124.808 Q128.481 -78.445 130.998 -75.928 Q133.515 -73.411 133.515 -69.737 V-50.387 Q133.515 -49.626 133.001 -49.12 Q132.485 -48.614 131.711 -48.614 Q130.935 -48.614 130.451 -49.12 Z M23.028 -48.614 Q22.253 -48.614 21.769 -49.12 Q21.285 -49.626 21.285 -50.387 V-69.737 Q21.285 -73.411 23.802 -75.928 Q26.321 -78.445 29.992 -78.445 H49.343 Q50.105 -78.445 50.61 -77.931 Q51.116 -77.415 51.116 -76.641 Q51.116 -75.865 50.61 -75.381 Q50.105 -74.897 49.343 -74.897 H29.992 Q28.058 -74.897 26.445 -73.285 Q24.832 -71.672 24.832 -69.737 V-50.387 Q24.832 -49.626 24.318 -49.12 Q23.802 -48.614 23.028 -48.614 Z M29.992 7.985 Q26.321 7.985 23.802 5.468 Q21.285 2.949 21.285 -0.722 V-20.072 Q21.285 -20.835 21.799 -21.34 Q22.315 -21.846 23.089 -21.846 Q23.865 -21.846 24.349 -21.34 Q24.832 -20.835 24.832 -20.072 V-0.722 Q24.832 1.213 26.445 2.825 Q28.058 4.438 29.992 4.438 H49.343 Q50.105 4.438 50.61 4.952 Q51.116 5.468 51.116 6.242 Q51.116 7.018 50.61 7.501 Q50.105 7.985 49.343 7.985 H29.992 Z M65.629 -18.299 V-52.161 Q65.629 -53.371 66.758 -53.895 Q67.886 -54.419 69.015 -53.935 L95.299 -37.165 Q96.266 -36.601 96.266 -35.27 Q96.266 -33.94 95.299 -33.295 L69.015 -16.686 Q67.886 -16.041 66.758 -16.565 Q65.629 -17.089 65.629 -18.299 Z M105.619 37.978 Q104.858 37.978 104.351 37.463 Q103.845 36.947 103.845 36.173 Q103.845 35.398 104.351 34.914 Q104.858 34.43 105.619 34.43 H145.286 Q146.047 34.43 146.554 34.944 Q147.06 35.46 147.06 36.234 Q147.06 37.01 146.554 37.494 Q146.047 37.978 145.286 37.978 H105.619 Z M123.517 14.113 V-18.621 Q123.517 -19.384 124.032 -19.889 Q124.548 -20.395 125.322 -20.395 Q126.097 -20.395 126.581 -19.889 Q127.065 -19.384 127.065 -18.621 V14.113 L141.255 -0.239 Q141.739 -0.722 142.545 -0.803 Q143.351 -0.884 143.841 -0.308 Q144.48 0.406 144.48 1.051 Q144.48 1.696 143.835 2.341 L126.857 19.311 Q126.317 19.918 125.32 19.918 Q124.324 19.918 123.709 19.311 L106.748 2.341 Q106.264 1.858 106.183 1.148 Q106.103 0.439 106.748 -0.239 Q107.392 -0.884 108.038 -0.803 Q108.683 -0.722 109.328 -0.239 L123.517 14.113 Z"/></g><g id="Bold-M" transform="matrix(1 0 0 1 2281.8 1126)"><path d="M102.438 -47.292 Q100.375 -49.355 100.375 -52.23 V-65.605 Q100.375 -65.605 100.375 -65.605 Q100.375 -65.605 100.375 -65.605 H86.875 Q83.954 -65.605 81.976 -67.667 Q80 -69.73 80 -72.605 Q80 -75.48 82.062 -77.48 Q84.125 -79.48 87 -79.48 H98.5 Q105.125 -79.48 109.688 -74.917 Q114.25 -70.355 114.25 -63.73 V-52.105 Q114.25 -49.184 112.25 -47.206 Q110.25 -45.23 107.375 -45.23 Q104.5 -45.23 102.438 -47.292 Z M12.75 -45.23 Q9.875 -45.23 7.812 -47.292 Q5.75 -49.355 5.75 -52.23 V-63.73 Q5.75 -70.355 10.312 -74.917 Q14.875 -79.48 21.5 -79.48 H33.125 Q36.047 -79.48 38.024 -77.48 Q40 -75.48 40 -72.605 Q40 -69.73 38.024 -67.667 Q36.047 -65.605 33.125 -65.605 H19.625 Q19.625 -65.605 19.625 -65.605 Q19.625 -65.605 19.625 -65.605 V-52.105 Q19.625 -49.184 17.649 -47.206 Q15.672 -45.23 12.75 -45.23 Z M21.5 9.02 Q14.875 9.02 10.312 4.458 Q5.75 -0.105 5.75 -6.73 V-18.355 Q5.75 -21.277 7.812 -23.254 Q9.875 -25.23 12.75 -25.23 Q15.625 -25.23 17.625 -23.254 Q19.625 -21.277 19.625 -18.355 V-4.855 Q19.625 -4.855 19.625 -4.855 Q19.625 -4.855 19.625 -4.855 H33.125 Q36.047 -4.855 38.024 -2.855 Q40 -0.855 40 2.02 Q40 4.895 38.024 6.958 Q36.047 9.02 33.125 9.02 H21.5 Z M46.5 -18.23 V-52.23 Q46.5 -54.542 48.562 -55.699 Q50.625 -56.855 52.625 -55.605 L79.125 -38.605 Q80.875 -37.48 80.875 -35.23 Q80.875 -32.98 79.125 -31.855 L52.625 -14.855 Q50.625 -13.605 48.562 -14.761 Q46.5 -15.917 46.5 -18.23 Z M84.25 24.77 Q82.125 24.77 80.688 23.333 Q79.25 21.895 79.25 19.77 Q79.25 17.645 80.688 16.208 Q82.125 14.77 84.25 14.77 H114.25 Q116.375 14.77 117.812 16.208 Q119.25 17.645 119.25 19.77 Q119.25 21.895 117.812 23.333 Q116.375 24.77 114.25 24.77 H84.25 Z M94.25 -10.23 V-25.98 Q94.25 -28.105 95.688 -29.542 Q97.125 -30.98 99.25 -30.98 Q101.375 -30.98 102.812 -29.542 Q104.25 -28.105 104.25 -25.98 V-10.23 L108.75 -14.605 Q110.125 -15.98 112.188 -15.98 Q114.25 -15.98 115.75 -14.48 Q117.125 -13.105 117.125 -10.98 Q117.125 -8.855 115.75 -7.48 L102 6.27 Q100.875 7.395 99.25 7.395 Q97.625 7.395 96.5 6.27 L82.75 -7.48 Q81.375 -8.855 81.312 -10.917 Q81.25 -12.98 82.75 -14.48 Q84.125 -15.855 86.188 -15.917 Q88.25 -15.98 89.75 -14.605 L94.25 -10.23 Z"/></g><g id="Semibold-M" transform="matrix(1 0 0 1 1985.97 1126)"><path d="M102.002 -47.021 Q100.213 -48.811 100.213 -51.36 V-65.442 Q100.213 -65.442 100.213 -65.442 Q100.213 -65.442 100.213 -65.442 H86.06 Q83.485 -65.442 81.743 -67.232 Q80 -69.024 80 -71.572 Q80 -74.121 81.791 -75.876 Q83.581 -77.632 86.13 -77.632 H99.153 Q104.69 -77.632 108.546 -73.776 Q112.403 -69.92 112.403 -64.382 V-51.29 Q112.403 -48.715 110.646 -46.972 Q108.891 -45.23 106.343 -45.23 Q103.794 -45.23 102.002 -47.021 Z M13.729 -45.23 Q11.179 -45.23 9.389 -47.021 Q7.598 -48.811 7.598 -51.36 V-64.382 Q7.598 -69.92 11.454 -73.776 Q15.31 -77.632 20.848 -77.632 H33.94 Q36.515 -77.632 38.258 -75.876 Q40 -74.121 40 -71.572 Q40 -69.024 38.258 -67.232 Q36.515 -65.442 33.94 -65.442 H19.788 Q19.788 -65.442 19.788 -65.442 Q19.788 -65.442 19.788 -65.442 V-51.29 Q19.788 -48.715 18.046 -46.972 Q16.304 -45.23 13.729 -45.23 Z M20.848 7.173 Q15.31 7.173 11.454 3.316 Q7.598 -0.54 7.598 -6.077 V-19.17 Q7.598 -21.745 9.389 -23.487 Q11.179 -25.23 13.729 -25.23 Q16.277 -25.23 18.032 -23.487 Q19.788 -21.745 19.788 -19.17 V-5.017 Q19.788 -5.017 19.788 -5.017 Q19.788 -5.017 19.788 -5.017 H33.94 Q36.515 -5.017 38.258 -3.262 Q40 -1.507 40 1.041 Q40 3.591 38.258 5.381 Q36.515 7.173 33.94 7.173 H20.848 Z M46.935 -17.85 V-52.61 Q46.935 -54.57 48.671 -55.549 Q50.407 -56.529 52.081 -55.442 L79.179 -38.061 Q80.657 -37.1 80.657 -35.23 Q80.657 -33.36 79.179 -32.399 L52.081 -15.017 Q50.407 -13.931 48.671 -14.911 Q46.935 -15.89 46.935 -17.85 Z M82.403 24.716 Q80.278 24.716 78.84 23.279 Q77.403 21.841 77.403 19.716 Q77.403 17.591 78.84 16.154 Q80.278 14.716 82.403 14.716 H112.403 Q114.528 14.716 115.965 16.154 Q117.403 17.591 117.403 19.716 Q117.403 21.841 115.965 23.279 Q114.528 24.716 112.403 24.716 H82.403 Z M92.403 -9.904 V-25.654 Q92.403 -27.779 93.84 -29.216 Q95.278 -30.654 97.403 -30.654 Q99.528 -30.654 100.965 -29.216 Q102.403 -27.779 102.403 -25.654 V-9.904 L106.903 -14.279 Q108.278 -15.654 110.34 -15.654 Q112.403 -15.654 113.903 -14.154 Q115.278 -12.779 115.278 -10.654 Q115.278 -8.529 113.903 -7.154 L99.718 7.031 Q98.755 7.993 97.403 7.993 Q96.049 7.993 95.088 7.031 L80.903 -7.154 Q79.528 -8.529 79.465 -10.591 Q79.403 -12.654 80.903 -14.154 Q82.278 -15.529 84.34 -15.591 Q86.403 -15.654 87.903 -14.279 L92.403 -9.904 Z"/></g><g id="Medium-M" transform="matrix(1 0 0 1 1689.91 1126)"><path d="M101.676 -46.817 Q100.09 -48.404 100.09 -50.709 V-65.32 Q100.09 -65.32 100.09 -65.32 Q100.09 -65.32 100.09 -65.32 H85.449 Q83.132 -65.32 81.566 -66.906 Q80 -68.494 80 -70.797 Q80 -73.102 81.588 -74.674 Q83.174 -76.246 85.479 -76.246 H99.641 Q104.364 -76.246 107.69 -72.92 Q111.016 -69.594 111.016 -64.871 V-50.679 Q111.016 -48.362 109.444 -46.796 Q107.873 -45.23 105.567 -45.23 Q103.264 -45.23 101.676 -46.817 Z M14.463 -45.23 Q12.158 -45.23 10.571 -46.817 Q8.984 -48.404 8.984 -50.709 V-64.871 Q8.984 -69.594 12.31 -72.92 Q15.636 -76.246 20.359 -76.246 H34.551 Q36.867 -76.246 38.434 -74.674 Q40 -73.102 40 -70.797 Q40 -68.494 38.434 -66.906 Q36.867 -65.32 34.551 -65.32 H19.91 Q19.91 -65.32 19.91 -65.32 Q19.91 -65.32 19.91 -65.32 V-50.679 Q19.91 -48.362 18.344 -46.796 Q16.777 -45.23 14.463 -45.23 Z M20.359 5.786 Q15.636 5.786 12.31 2.46 Q8.984 -0.866 8.984 -5.589 V-19.781 Q8.984 -22.097 10.571 -23.664 Q12.158 -25.23 14.463 -25.23 Q16.766 -25.23 18.339 -23.664 Q19.91 -22.097 19.91 -19.781 V-5.14 Q19.91 -5.14 19.91 -5.14 Q19.91 -5.14 19.91 -5.14 H34.551 Q36.867 -5.14 38.434 -3.569 Q40 -1.996 40 0.308 Q40 2.613 38.434 4.199 Q36.867 5.786 34.551 5.786 H20.359 Z M47.261 -17.564 V-52.896 Q47.261 -54.59 48.752 -55.437 Q50.245 -56.284 51.674 -55.32 L79.22 -37.654 Q80.495 -36.814 80.495 -35.23 Q80.495 -33.646 79.22 -32.806 L51.674 -15.14 Q50.245 -14.176 48.752 -15.022 Q47.261 -15.87 47.261 -17.564 Z M81.016 24.675 Q78.891 24.675 77.454 23.238 Q76.016 21.8 76.016 19.675 Q76.016 17.55 77.454 16.113 Q78.891 14.675 81.016 14.675 H111.016 Q113.141 14.675 114.579 16.113 Q116.016 17.55 116.016 19.675 Q116.016 21.8 114.579 23.238 Q113.141 24.675 111.016 24.675 H81.016 Z M91.016 -9.659 V-25.409 Q91.016 -27.534 92.454 -28.971 Q93.891 -30.409 96.016 -30.409 Q98.141 -30.409 99.579 -28.971 Q101.016 -27.534 101.016 -25.409 V-9.659 L105.516 -14.034 Q106.891 -15.409 108.954 -15.409 Q111.016 -15.409 112.516 -13.909 Q113.891 -12.534 113.891 -10.409 Q113.891 -8.284 112.516 -6.909 L98.005 7.601 Q97.166 8.441 96.016 8.441 Q94.866 8.441 94.028 7.601 L79.516 -6.909 Q78.141 -8.284 78.079 -10.346 Q78.016 -12.409 79.516 -13.909 Q80.891 -15.284 82.954 -15.346 Q85.016 -15.409 86.516 -14.034 L91.016 -9.659 Z"/></g><g id="Regular-M" transform="matrix(1 0 0 1 1394.06 1126)"><path d="M101.438 -46.667 Q100 -48.105 100 -50.23 V-65.23 Q100 -65.23 100 -65.23 Q100 -65.23 100 -65.23 H85 Q82.875 -65.23 81.438 -66.667 Q80 -68.105 80 -70.23 Q80 -72.355 81.438 -73.792 Q82.875 -75.23 85 -75.23 H100 Q104.125 -75.23 107.062 -72.292 Q110 -69.355 110 -65.23 V-50.23 Q110 -48.105 108.562 -46.667 Q107.125 -45.23 105 -45.23 Q102.875 -45.23 101.438 -46.667 Z M15 -45.23 Q12.875 -45.23 11.438 -46.667 Q10 -48.105 10 -50.23 V-65.23 Q10 -69.355 12.938 -72.292 Q15.875 -75.23 20 -75.23 H35 Q37.125 -75.23 38.562 -73.792 Q40 -72.355 40 -70.23 Q40 -68.105 38.562 -66.667 Q37.125 -65.23 35 -65.23 H20 Q20 -65.23 20 -65.23 Q20 -65.23 20 -65.23 V-50.23 Q20 -48.105 18.562 -46.667 Q17.125 -45.23 15 -45.23 Z M20 4.77 Q15.875 4.77 12.938 1.833 Q10 -1.105 10 -5.23 V-20.23 Q10 -22.355 11.438 -23.792 Q12.875 -25.23 15 -25.23 Q17.125 -25.23 18.562 -23.792 Q20 -22.355 20 -20.23 V-5.23 Q20 -5.23 20 -5.23 Q20 -5.23 20 -5.23 H35 Q37.125 -5.23 38.562 -3.792 Q40 -2.355 40 -0.23 Q40 1.895 38.562 3.333 Q37.125 4.77 35 4.77 H20 Z M47.5 -17.355 V-53.105 Q47.5 -54.605 48.812 -55.355 Q50.125 -56.105 51.375 -55.23 L79.25 -37.355 Q80.375 -36.605 80.375 -35.23 Q80.375 -33.855 79.25 -33.105 L51.375 -15.23 Q50.125 -14.355 48.812 -15.105 Q47.5 -15.855 47.5 -17.355 Z M80 24.645 Q77.875 24.645 76.438 23.208 Q75 21.77 75 19.645 Q75 17.52 76.438 16.083 Q77.875 14.645 80 14.645 H110 Q112.125 14.645 113.562 16.083 Q115 17.52 115 19.645 Q115 21.77 113.562 23.208 Q112.125 24.645 110 24.645 H80 Z M90 -9.48 V-25.23 Q90 -27.355 91.438 -28.792 Q92.875 -30.23 95 -30.23 Q97.125 -30.23 98.562 -28.792 Q100 -27.355 100 -25.23 V-9.48 L104.5 -13.855 Q105.875 -15.23 107.938 -15.23 Q110 -15.23 111.5 -13.73 Q112.875 -12.355 112.875 -10.23 Q112.875 -8.105 111.5 -6.73 L96.75 8.02 Q96 8.77 95 8.77 Q94 8.77 93.25 8.02 L78.5 -6.73 Q77.125 -8.105 77.062 -10.167 Q77 -12.23 78.5 -13.73 Q79.875 -15.105 81.938 -15.167 Q84 -15.23 85.5 -13.855 L90 -9.48 Z"/></g><g id="Light-M" transform="matrix(1 0 0 1 1098.18 1126)"><path d="M101.078 -46.307 Q100 -47.384 100 -48.98 V-63.691 Q100 -64.269 99.519 -64.749 Q99.039 -65.23 98.461 -65.23 H83.75 Q82.154 -65.23 81.078 -66.307 Q80 -67.384 80 -68.98 Q80 -70.576 81.078 -71.652 Q82.154 -72.73 83.75 -72.73 H98.461 Q102.25 -72.73 104.875 -70.105 Q107.5 -67.48 107.5 -63.691 V-48.98 Q107.5 -47.384 106.422 -46.307 Q105.346 -45.23 103.75 -45.23 Q102.154 -45.23 101.078 -46.307 Z M16.25 -45.23 Q14.654 -45.23 13.578 -46.307 Q12.5 -47.384 12.5 -48.98 V-63.691 Q12.5 -67.48 15.125 -70.105 Q17.75 -72.73 21.539 -72.73 H36.25 Q37.846 -72.73 38.922 -71.652 Q40 -70.576 40 -68.98 Q40 -67.384 38.922 -66.307 Q37.846 -65.23 36.25 -65.23 H21.539 Q20.961 -65.23 20.481 -64.749 Q20 -64.269 20 -63.691 V-48.98 Q20 -47.384 18.922 -46.307 Q17.846 -45.23 16.25 -45.23 Z M21.539 2.27 Q17.75 2.27 15.125 -0.355 Q12.5 -2.98 12.5 -6.769 V-21.48 Q12.5 -23.076 13.578 -24.152 Q14.654 -25.23 16.25 -25.23 Q17.846 -25.23 18.922 -24.152 Q20 -23.076 20 -21.48 V-6.769 Q20 -6.191 20.481 -5.711 Q20.961 -5.23 21.539 -5.23 H36.25 Q37.846 -5.23 38.922 -4.152 Q40 -3.076 40 -1.48 Q40 0.116 38.922 1.193 Q37.846 2.27 36.25 2.27 H21.539 Z M48.75 -19.182 V-51.277 Q48.75 -52.634 49.919 -53.287 Q51.086 -53.941 52.24 -53.162 L77.23 -37.162 Q78.26 -36.461 78.26 -35.23 Q78.26 -33.999 77.23 -33.297 L52.24 -17.297 Q51.086 -16.519 49.919 -17.172 Q48.75 -17.826 48.75 -19.182 Z M80.674 23.443 Q79.078 23.443 78 22.366 Q76.924 21.289 76.924 19.693 Q76.924 18.098 78 17.02 Q79.078 15.944 80.674 15.944 H110.674 Q112.269 15.944 113.346 17.02 Q114.422 18.098 114.422 19.693 Q114.422 21.289 113.346 22.366 Q112.269 23.443 110.674 23.443 H80.674 Z M91.924 -5.249 V-24.076 Q91.924 -25.672 93 -26.749 Q94.078 -27.826 95.674 -27.826 Q97.269 -27.826 98.346 -26.749 Q99.422 -25.672 99.422 -24.076 V-5.249 L106.039 -11.787 Q107.078 -12.826 108.611 -12.85 Q110.144 -12.874 111.308 -11.71 Q112.394 -10.624 112.394 -9.076 Q112.394 -7.527 111.308 -6.441 L97.279 7.588 Q96.578 8.289 95.674 8.289 Q94.769 8.289 94.067 7.588 L80.039 -6.441 Q79 -7.48 78.938 -9.014 Q78.875 -10.547 80.039 -11.71 Q81.125 -12.797 82.635 -12.835 Q84.144 -12.874 85.308 -11.787 L91.924 -5.249 Z"/></g><g id="Thin-M" transform="matrix(1 0 0 1 802.565 1126)"><path d="M100.716 -45.946 Q100 -46.662 100 -47.73 V-62.152 Q100 -63.307 99.039 -64.269 Q98.078 -65.23 96.922 -65.23 H82.5 Q81.433 -65.23 80.716 -65.946 Q80 -66.662 80 -67.73 Q80 -68.797 80.716 -69.514 Q81.433 -70.23 82.5 -70.23 H96.922 Q100.375 -70.23 102.688 -67.917 Q105 -65.605 105 -62.152 V-47.73 Q105 -46.662 104.284 -45.946 Q103.567 -45.23 102.5 -45.23 Q101.433 -45.23 100.716 -45.946 Z M17.5 -45.23 Q16.433 -45.23 15.716 -45.946 Q15 -46.662 15 -47.73 V-62.152 Q15 -65.605 17.312 -67.917 Q19.625 -70.23 23.078 -70.23 H37.5 Q38.568 -70.23 39.284 -69.514 Q40 -68.797 40 -67.73 Q40 -66.662 39.284 -65.946 Q38.568 -65.23 37.5 -65.23 H23.078 Q21.922 -65.23 20.961 -64.269 Q20 -63.307 20 -62.152 V-47.73 Q20 -46.662 19.284 -45.946 Q18.567 -45.23 17.5 -45.23 Z M23.078 -0.23 Q19.625 -0.23 17.312 -2.542 Q15 -4.855 15 -8.307 V-22.73 Q15 -23.797 15.716 -24.514 Q16.433 -25.23 17.5 -25.23 Q18.567 -25.23 19.284 -24.514 Q20 -23.797 20 -22.73 V-8.307 Q20 -7.152 20.961 -6.191 Q21.922 -5.23 23.078 -5.23 H37.5 Q38.568 -5.23 39.284 -4.514 Q40 -3.797 40 -2.73 Q40 -1.662 39.284 -0.946 Q38.568 -0.23 37.5 -0.23 H23.078 Z M50 -21.009 V-49.451 Q50 -50.662 51.024 -51.22 Q52.047 -51.777 53.106 -51.095 L75.211 -36.97 Q76.144 -36.316 76.144 -35.23 Q76.144 -34.144 75.211 -33.49 L53.106 -19.365 Q52.047 -18.682 51.024 -19.24 Q50 -19.797 50 -21.009 Z M81.346 22.241 Q80.279 22.241 79.562 21.525 Q78.846 20.809 78.846 19.741 Q78.846 18.674 79.562 17.958 Q80.279 17.241 81.346 17.241 H111.346 Q112.414 17.241 113.13 17.958 Q113.846 18.674 113.846 19.741 Q113.846 20.809 113.13 21.525 Q112.414 22.241 111.346 22.241 H81.346 Z M93.846 -1.019 V-22.922 Q93.846 -23.99 94.562 -24.706 Q95.279 -25.422 96.346 -25.422 Q97.414 -25.422 98.13 -24.706 Q98.846 -23.99 98.846 -22.922 V-1.019 L107.578 -9.72 Q108.279 -10.422 109.284 -10.47 Q110.289 -10.519 111.115 -9.691 Q111.914 -8.894 111.914 -7.922 Q111.914 -6.951 111.115 -6.152 L97.808 7.155 Q97.154 7.809 96.346 7.809 Q95.539 7.809 94.885 7.155 L81.578 -6.152 Q80.875 -6.855 80.812 -7.86 Q80.75 -8.865 81.578 -9.691 Q82.375 -10.49 83.331 -10.504 Q84.289 -10.519 85.115 -9.72 L93.846 -1.019 Z"/></g><g id="Ultralight-M" transform="matrix(1 0 0 1 506.415 1126)"><path d="M100.5 -45.73 Q100 -46.23 100 -46.98 V-61.23 Q100 -62.73 98.75 -63.98 Q97.5 -65.23 96 -65.23 H81.75 Q81 -65.23 80.5 -65.73 Q80 -66.23 80 -66.98 Q80 -67.73 80.5 -68.23 Q81 -68.73 81.75 -68.73 H96 Q99.25 -68.73 101.375 -66.605 Q103.5 -64.48 103.5 -61.23 V-46.98 Q103.5 -46.23 103 -45.73 Q102.5 -45.23 101.75 -45.23 Q101 -45.23 100.5 -45.73 Z M18.25 -45.23 Q17.5 -45.23 17 -45.73 Q16.5 -46.23 16.5 -46.98 V-61.23 Q16.5 -64.48 18.625 -66.605 Q20.75 -68.73 24 -68.73 H38.25 Q39 -68.73 39.5 -68.23 Q40 -67.73 40 -66.98 Q40 -66.23 39.5 -65.73 Q39 -65.23 38.25 -65.23 H24 Q22.5 -65.23 21.25 -63.98 Q20 -62.73 20 -61.23 V-46.98 Q20 -46.23 19.5 -45.73 Q19 -45.23 18.25 -45.23 Z M24 -1.73 Q20.75 -1.73 18.625 -3.855 Q16.5 -5.98 16.5 -9.23 V-23.48 Q16.5 -24.23 17 -24.73 Q17.5 -25.23 18.25 -25.23 Q19 -25.23 19.5 -24.73 Q20 -24.23 20 -23.48 V-9.23 Q20 -7.73 21.25 -6.48 Q22.5 -5.23 24 -5.23 H38.25 Q39 -5.23 39.5 -4.73 Q40 -4.23 40 -3.48 Q40 -2.73 39.5 -2.23 Q39 -1.73 38.25 -1.73 H24 Z M50.75 -22.105 V-48.355 Q50.75 -49.48 51.688 -49.98 Q52.625 -50.48 53.625 -49.855 L74 -36.855 Q74.875 -36.23 74.875 -35.23 Q74.875 -34.23 74 -33.605 L53.625 -20.605 Q52.625 -19.98 51.688 -20.48 Q50.75 -20.98 50.75 -22.105 Z M81.75 21.52 Q81 21.52 80.5 21.02 Q80 20.52 80 19.77 Q80 19.02 80.5 18.52 Q81 18.02 81.75 18.02 H111.75 Q112.5 18.02 113 18.52 Q113.5 19.02 113.5 19.77 Q113.5 20.52 113 21.02 Q112.5 21.52 111.75 21.52 H81.75 Z M95 1.52 V-22.23 Q95 -22.98 95.5 -23.48 Q96 -23.98 96.75 -23.98 Q97.5 -23.98 98 -23.48 Q98.5 -22.98 98.5 -22.23 V1.52 L108.5 -8.48 Q109 -8.98 109.688 -9.042 Q110.375 -9.105 111 -8.48 Q111.625 -7.855 111.625 -7.23 Q111.625 -6.605 111 -5.98 L98.125 6.895 Q97.5 7.52 96.75 7.52 Q96 7.52 95.375 6.895 L82.5 -5.98 Q82 -6.48 81.938 -7.167 Q81.875 -7.855 82.5 -8.48 Q83.125 -9.105 83.75 -9.105 Q84.375 -9.105 85 -8.48 L95 1.52 Z"/></g><g id="Bold-S" transform="matrix(1 0 0 1 2294.23 696)"><path d="M79.948 -43.845 Q78.432 -45.359 78.432 -47.459 V-56.829 Q78.432 -56.829 78.432 -56.829 Q78.432 -56.829 78.432 -56.829 H68.939 Q66.802 -56.829 65.355 -58.337 Q63.909 -59.845 63.909 -61.937 Q63.909 -64.028 65.425 -65.508 Q66.941 -66.987 69.043 -66.987 H76.952 Q81.859 -66.987 85.212 -63.622 Q88.565 -60.257 88.565 -55.36 V-47.388 Q88.565 -45.253 87.107 -43.792 Q85.648 -42.331 83.556 -42.331 Q81.464 -42.331 79.948 -43.845 Z M11.264 -42.331 Q9.172 -42.331 7.643 -43.847 Q6.115 -45.363 6.115 -47.465 V-55.374 Q6.115 -60.281 9.48 -63.634 Q12.845 -66.987 17.742 -66.987 H25.714 Q27.85 -66.987 29.31 -65.529 Q30.771 -64.07 30.771 -61.978 Q30.771 -59.886 29.325 -58.37 Q27.878 -56.854 25.741 -56.854 H16.273 Q16.273 -56.854 16.273 -56.854 Q16.273 -56.854 16.273 -56.854 V-47.361 Q16.273 -45.224 14.833 -43.777 Q13.393 -42.331 11.264 -42.331 Z M17.728 -3.473 Q12.821 -3.473 9.468 -6.841 Q6.115 -10.209 6.115 -15.11 V-23.247 Q6.115 -25.406 7.623 -26.866 Q9.131 -28.326 11.223 -28.326 Q13.314 -28.326 14.794 -26.866 Q16.273 -25.406 16.273 -23.247 V-13.631 Q16.273 -13.631 16.273 -13.631 Q16.273 -13.631 16.273 -13.631 H25.741 Q27.878 -13.631 29.325 -12.172 Q30.771 -10.714 30.771 -8.622 Q30.771 -6.53 29.323 -5.001 Q27.875 -3.473 25.735 -3.473 H17.728 Z M37.083 -22.606 V-47.822 Q37.083 -49.58 38.612 -50.394 Q40.14 -51.207 41.62 -50.32 L61.443 -37.696 Q62.726 -36.871 62.726 -35.212 Q62.726 -33.553 61.443 -32.764 L41.62 -20.14 Q40.14 -19.253 38.612 -20.091 Q37.083 -20.929 37.083 -22.606 Z M68.473 12.209 Q66.966 12.209 65.931 11.194 Q64.895 10.179 64.895 8.679 Q64.895 7.179 65.915 6.143 Q66.935 5.108 68.442 5.108 H89.721 Q91.228 5.108 92.264 6.122 Q93.299 7.137 93.299 8.637 Q93.299 10.138 92.279 11.173 Q91.26 12.209 89.753 12.209 H68.473 Z M75.547 -13.927 V-25.156 Q75.547 -26.671 76.562 -27.696 Q77.576 -28.721 79.077 -28.721 Q80.577 -28.721 81.612 -27.696 Q82.648 -26.671 82.648 -25.156 V-13.927 L85.804 -17.083 Q86.889 -18.168 88.319 -18.119 Q89.749 -18.069 90.834 -16.984 Q91.919 -15.899 91.919 -14.519 Q91.919 -13.138 90.834 -12.053 L81.168 -2.388 Q80.379 -1.599 79.097 -1.599 Q77.815 -1.599 77.026 -2.388 L67.361 -12.053 Q66.276 -13.138 66.276 -14.519 Q66.276 -15.899 67.361 -16.984 Q68.446 -18.069 69.876 -18.069 Q71.306 -18.069 72.391 -16.984 L75.547 -13.927 Z"/></g><g id="Semibold-S" transform="matrix(1 0 0 1 1998.1 696)"><path d="M79.605 -43.631 Q78.303 -44.93 78.303 -46.773 V-56.701 Q78.303 -56.701 78.303 -56.701 Q78.303 -56.701 78.303 -56.701 H68.296 Q66.432 -56.701 65.17 -57.994 Q63.909 -59.288 63.909 -61.122 Q63.909 -62.956 65.21 -64.243 Q66.512 -65.53 68.358 -65.53 H77.467 Q81.516 -65.53 84.312 -62.722 Q87.108 -59.915 87.108 -55.875 V-46.745 Q87.108 -44.883 85.842 -43.607 Q84.576 -42.331 82.741 -42.331 Q80.907 -42.331 79.605 -43.631 Z M12.036 -42.331 Q10.201 -42.331 8.887 -43.632 Q7.572 -44.934 7.572 -46.78 V-55.889 Q7.572 -59.938 10.38 -62.734 Q13.187 -65.53 17.227 -65.53 H26.357 Q28.219 -65.53 29.495 -64.264 Q30.771 -62.998 30.771 -61.163 Q30.771 -59.329 29.51 -58.027 Q28.248 -56.725 26.384 -56.725 H16.401 Q16.401 -56.725 16.401 -56.725 Q16.401 -56.725 16.401 -56.725 V-46.718 Q16.401 -44.854 15.147 -43.592 Q13.891 -42.331 12.036 -42.331 Z M17.213 -4.93 Q13.164 -4.93 10.368 -7.741 Q7.572 -10.552 7.572 -14.596 V-23.89 Q7.572 -25.776 8.866 -27.051 Q10.159 -28.326 11.995 -28.326 Q13.829 -28.326 15.115 -27.051 Q16.401 -25.776 16.401 -23.89 V-13.759 Q16.401 -13.759 16.401 -13.759 Q16.401 -13.759 16.401 -13.759 H26.384 Q28.248 -13.759 29.51 -12.494 Q30.771 -11.229 30.771 -9.394 Q30.771 -7.559 29.508 -6.245 Q28.245 -4.93 26.378 -4.93 H17.213 Z M37.426 -22.306 V-48.123 Q37.426 -49.602 38.697 -50.275 Q39.969 -50.95 41.191 -50.191 L61.486 -37.267 Q62.554 -36.571 62.554 -35.212 Q62.554 -33.853 61.486 -33.193 L41.191 -20.269 Q39.969 -19.51 38.697 -20.209 Q37.426 -20.908 37.426 -22.306 Z M67.016 12.166 Q65.509 12.166 64.473 11.151 Q63.438 10.137 63.438 8.636 Q63.438 7.136 64.457 6.101 Q65.477 5.065 66.984 5.065 H88.263 Q89.77 5.065 90.806 6.079 Q91.842 7.094 91.842 8.594 Q91.842 10.095 90.822 11.131 Q89.802 12.166 88.295 12.166 H67.016 Z M74.089 -13.67 V-24.899 Q74.089 -26.414 75.104 -27.439 Q76.119 -28.463 77.619 -28.463 Q79.119 -28.463 80.155 -27.439 Q81.19 -26.414 81.19 -24.899 V-13.67 L84.346 -16.826 Q85.431 -17.91 86.861 -17.861 Q88.291 -17.812 89.376 -16.727 Q90.461 -15.642 90.461 -14.261 Q90.461 -12.881 89.376 -11.796 L79.367 -1.787 Q78.707 -1.127 77.64 -1.127 Q76.571 -1.127 75.912 -1.787 L65.903 -11.796 Q64.818 -12.881 64.818 -14.261 Q64.818 -15.642 65.903 -16.727 Q66.988 -17.812 68.418 -17.812 Q69.848 -17.812 70.933 -16.727 L74.089 -13.67 Z"/></g><g id="Medium-S" transform="matrix(1 0 0 1 1701.85 696)"><path d="M79.348 -43.47 Q78.207 -44.608 78.207 -46.259 V-56.604 Q78.207 -56.604 78.207 -56.604 Q78.207 -56.604 78.207 -56.604 H67.814 Q66.154 -56.604 65.031 -57.736 Q63.909 -58.869 63.909 -60.511 Q63.909 -62.153 65.049 -63.294 Q66.19 -64.436 67.843 -64.436 H77.853 Q81.258 -64.436 83.636 -62.046 Q86.014 -59.657 86.014 -56.261 V-46.262 Q86.014 -44.605 84.893 -43.468 Q83.772 -42.331 82.13 -42.331 Q80.489 -42.331 79.348 -43.47 Z M12.615 -42.331 Q10.973 -42.331 9.82 -43.471 Q8.666 -44.612 8.666 -46.265 V-56.275 Q8.666 -59.68 11.056 -62.058 Q13.445 -64.436 16.841 -64.436 H26.84 Q28.497 -64.436 29.634 -63.315 Q30.771 -62.194 30.771 -60.552 Q30.771 -58.911 29.649 -57.77 Q28.526 -56.629 26.866 -56.629 H16.498 Q16.498 -56.629 16.498 -56.629 Q16.498 -56.629 16.498 -56.629 V-46.236 Q16.498 -44.576 15.382 -43.453 Q14.265 -42.331 12.615 -42.331 Z M16.827 -6.024 Q13.422 -6.024 11.044 -8.417 Q8.666 -10.809 8.666 -14.21 V-24.372 Q8.666 -26.053 9.798 -27.189 Q10.932 -28.326 12.574 -28.326 Q14.215 -28.326 15.357 -27.189 Q16.498 -26.053 16.498 -24.372 V-13.856 Q16.498 -13.856 16.498 -13.856 Q16.498 -13.856 16.498 -13.856 H26.866 Q28.526 -13.856 29.649 -12.736 Q30.771 -11.614 30.771 -9.973 Q30.771 -8.331 29.647 -7.178 Q28.522 -6.024 26.861 -6.024 H16.827 Z M37.684 -22.08 V-48.348 Q37.684 -49.617 38.762 -50.187 Q39.841 -50.757 40.869 -50.095 L61.518 -36.945 Q62.426 -36.346 62.426 -35.212 Q62.426 -34.079 61.518 -33.515 L40.869 -20.365 Q39.841 -19.703 38.762 -20.297 Q37.684 -20.892 37.684 -22.08 Z M65.922 12.134 Q64.415 12.134 63.379 11.119 Q62.344 10.104 62.344 8.604 Q62.344 7.104 63.364 6.068 Q64.383 5.033 65.89 5.033 H87.17 Q88.677 5.033 89.712 6.048 Q90.748 7.062 90.748 8.562 Q90.748 10.063 89.728 11.098 Q88.708 12.134 87.201 12.134 H65.922 Z M72.995 -13.476 V-24.706 Q72.995 -26.221 74.01 -27.245 Q75.025 -28.27 76.525 -28.27 Q78.025 -28.27 79.061 -27.245 Q80.096 -26.221 80.096 -24.706 V-13.476 L83.252 -16.632 Q84.337 -17.717 85.767 -17.668 Q87.197 -17.619 88.282 -16.534 Q89.367 -15.449 89.367 -14.068 Q89.367 -12.687 88.282 -11.602 L78.016 -1.338 Q77.453 -0.773 76.546 -0.773 Q75.638 -0.773 75.075 -1.338 L64.809 -11.602 Q63.725 -12.687 63.725 -14.068 Q63.725 -15.449 64.809 -16.534 Q65.894 -17.619 67.324 -17.619 Q68.754 -17.619 69.839 -16.534 L72.995 -13.476 Z"/></g><g id="Regular-S" transform="matrix(1 0 0 1 1405.73 696)"><path d="M79.159 -43.352 Q78.136 -44.373 78.136 -45.881 V-56.533 Q78.136 -56.533 78.136 -56.533 Q78.136 -56.533 78.136 -56.533 H67.46 Q65.951 -56.533 64.93 -57.548 Q63.909 -58.563 63.909 -60.063 Q63.909 -61.563 64.932 -62.598 Q65.954 -63.634 67.465 -63.634 H78.136 Q81.07 -63.634 83.141 -61.551 Q85.212 -59.468 85.212 -56.544 V-45.909 Q85.212 -44.402 84.197 -43.367 Q83.182 -42.331 81.682 -42.331 Q80.182 -42.331 79.159 -43.352 Z M13.039 -42.331 Q11.539 -42.331 10.504 -43.354 Q9.468 -44.376 9.468 -45.887 V-56.558 Q9.468 -59.492 11.551 -61.563 Q13.634 -63.634 16.558 -63.634 H27.193 Q28.7 -63.634 29.735 -62.619 Q30.771 -61.604 30.771 -60.104 Q30.771 -58.604 29.75 -57.581 Q28.729 -56.558 27.221 -56.558 H16.569 Q16.569 -56.558 16.569 -56.558 Q16.569 -56.558 16.569 -56.558 V-45.881 Q16.569 -44.373 15.554 -43.352 Q14.539 -42.331 13.039 -42.331 Z M16.544 -6.826 Q13.61 -6.826 11.539 -8.912 Q9.468 -10.998 9.468 -13.927 V-24.726 Q9.468 -26.256 10.483 -27.292 Q11.498 -28.326 12.998 -28.326 Q14.498 -28.326 15.533 -27.292 Q16.569 -26.256 16.569 -24.726 V-13.927 Q16.569 -13.927 16.569 -13.927 Q16.569 -13.927 16.569 -13.927 H27.221 Q28.729 -13.927 29.75 -12.912 Q30.771 -11.897 30.771 -10.397 Q30.771 -8.897 29.748 -7.862 Q28.726 -6.826 27.215 -6.826 H16.544 Z M37.872 -21.916 V-48.513 Q37.872 -49.629 38.809 -50.122 Q39.746 -50.615 40.634 -50.024 L61.542 -36.709 Q62.331 -36.181 62.331 -35.212 Q62.331 -34.244 61.542 -33.751 L40.634 -20.436 Q39.746 -19.844 38.809 -20.362 Q37.872 -20.88 37.872 -21.916 Z M65.12 12.11 Q63.613 12.11 62.578 11.095 Q61.542 10.08 61.542 8.58 Q61.542 7.08 62.562 6.045 Q63.582 5.009 65.089 5.009 H86.368 Q87.875 5.009 88.91 6.024 Q89.946 7.039 89.946 8.539 Q89.946 10.039 88.926 11.074 Q87.906 12.11 86.399 12.11 H65.12 Z M72.194 -13.335 V-24.565 Q72.194 -26.08 73.208 -27.104 Q74.223 -28.129 75.723 -28.129 Q77.223 -28.129 78.259 -27.104 Q79.294 -26.08 79.294 -24.565 V-13.335 L82.451 -16.491 Q83.535 -17.576 84.965 -17.527 Q86.395 -17.477 87.48 -16.393 Q88.565 -15.308 88.565 -13.927 Q88.565 -12.546 87.48 -11.461 L77.026 -1.007 Q76.533 -0.514 75.744 -0.514 Q74.955 -0.514 74.462 -1.007 L64.008 -11.461 Q62.923 -12.546 62.923 -13.927 Q62.923 -15.308 64.008 -16.393 Q65.093 -17.477 66.523 -17.477 Q67.953 -17.477 69.038 -16.393 L72.194 -13.335 Z"/></g><g id="Light-S" transform="matrix(1 0 0 1 1109.75 696)"><path d="M78.874 -43.068 Q78.136 -43.803 78.136 -44.895 V-55.319 Q78.136 -55.775 77.757 -56.153 Q77.377 -56.533 76.922 -56.533 H66.473 Q65.381 -56.533 64.646 -57.263 Q63.909 -57.994 63.909 -59.077 Q63.909 -60.159 64.647 -60.91 Q65.385 -61.661 66.479 -61.661 H76.922 Q79.59 -61.661 81.415 -59.825 Q83.24 -57.989 83.24 -55.33 V-44.923 Q83.24 -43.833 82.509 -43.083 Q81.779 -42.331 80.696 -42.331 Q79.613 -42.331 78.874 -43.068 Z M14.025 -42.331 Q12.943 -42.331 12.192 -43.069 Q11.441 -43.807 11.441 -44.901 V-55.344 Q11.441 -58.012 13.277 -59.837 Q15.113 -61.661 17.772 -61.661 H28.179 Q29.269 -61.661 30.019 -60.931 Q30.771 -60.201 30.771 -59.118 Q30.771 -58.035 30.034 -57.296 Q29.299 -56.558 28.207 -56.558 H17.783 Q17.327 -56.558 16.949 -56.179 Q16.569 -55.799 16.569 -55.344 V-44.895 Q16.569 -43.803 15.839 -43.068 Q15.108 -42.331 14.025 -42.331 Z M17.758 -8.798 Q15.09 -8.798 13.265 -10.638 Q11.441 -12.477 11.441 -15.141 V-25.713 Q11.441 -26.825 12.171 -27.576 Q12.901 -28.326 13.984 -28.326 Q15.067 -28.326 15.817 -27.576 Q16.569 -26.825 16.569 -25.713 V-15.141 Q16.569 -14.685 16.949 -14.307 Q17.327 -13.927 17.783 -13.927 H28.207 Q29.299 -13.927 30.034 -13.197 Q30.771 -12.466 30.771 -11.383 Q30.771 -10.301 30.033 -9.55 Q29.295 -8.798 28.201 -8.798 H17.758 Z M38.858 -23.358 V-47.072 Q38.858 -48.074 39.682 -48.491 Q40.504 -48.908 41.316 -48.392 L59.948 -36.557 Q60.662 -36.067 60.662 -35.212 Q60.662 -34.357 59.948 -33.903 L41.316 -22.068 Q40.504 -21.552 39.682 -21.994 Q38.858 -22.435 38.858 -23.358 Z M65.652 11.161 Q64.562 11.161 63.81 10.431 Q63.06 9.701 63.06 8.619 Q63.06 7.536 63.795 6.784 Q64.529 6.034 65.619 6.034 H86.898 Q87.988 6.034 88.74 6.764 Q89.49 7.493 89.49 8.576 Q89.49 9.659 88.756 10.411 Q88.021 11.161 86.931 11.161 H65.652 Z M73.711 -9.997 V-23.653 Q73.711 -24.751 74.441 -25.492 Q75.172 -26.232 76.254 -26.232 Q77.337 -26.232 78.088 -25.492 Q78.839 -24.751 78.839 -23.653 V-9.997 L83.665 -14.86 Q84.484 -15.68 85.497 -15.649 Q86.509 -15.618 87.328 -14.799 Q88.186 -13.942 88.186 -13.017 Q88.186 -12.091 87.328 -11.234 L77.443 -1.348 Q76.989 -0.894 76.276 -0.894 Q75.562 -0.894 75.107 -1.348 L65.222 -11.234 Q64.402 -12.053 64.402 -13.017 Q64.402 -13.98 65.222 -14.799 Q66.079 -15.657 67.073 -15.637 Q68.066 -15.618 68.886 -14.761 L73.711 -9.997 Z"/></g><g id="Thin-S" transform="matrix(1 0 0 1 814.015 696)"><path d="M78.59 -42.783 Q78.136 -43.234 78.136 -43.909 V-54.105 Q78.136 -55.016 77.377 -55.775 Q76.619 -56.533 75.708 -56.533 H65.487 Q64.812 -56.533 64.361 -56.979 Q63.909 -57.425 63.909 -58.09 Q63.909 -58.756 64.363 -59.223 Q64.816 -59.689 65.493 -59.689 H75.708 Q78.111 -59.689 79.689 -58.099 Q81.267 -56.51 81.267 -54.117 V-43.937 Q81.267 -43.264 80.821 -42.797 Q80.375 -42.331 79.71 -42.331 Q79.044 -42.331 78.59 -42.783 Z M15.012 -42.331 Q14.346 -42.331 13.879 -42.785 Q13.413 -43.238 13.413 -43.915 V-54.13 Q13.413 -56.533 15.003 -58.111 Q16.592 -59.689 18.985 -59.689 H29.165 Q29.838 -59.689 30.305 -59.243 Q30.771 -58.797 30.771 -58.132 Q30.771 -57.466 30.319 -57.012 Q29.868 -56.558 29.193 -56.558 H18.997 Q18.086 -56.558 17.327 -55.799 Q16.569 -55.041 16.569 -54.13 V-43.909 Q16.569 -43.234 16.123 -42.783 Q15.677 -42.331 15.012 -42.331 Z M18.972 -10.771 Q16.569 -10.771 14.991 -12.364 Q13.413 -13.957 13.413 -16.355 V-26.699 Q13.413 -27.394 13.859 -27.861 Q14.305 -28.326 14.97 -28.326 Q15.636 -28.326 16.103 -27.861 Q16.569 -27.394 16.569 -26.699 V-16.355 Q16.569 -15.444 17.327 -14.685 Q18.086 -13.927 18.997 -13.927 H29.193 Q29.868 -13.927 30.319 -13.481 Q30.771 -13.035 30.771 -12.37 Q30.771 -11.704 30.317 -11.237 Q29.864 -10.771 29.187 -10.771 H18.972 Z M39.845 -24.798 V-45.63 Q39.845 -46.519 40.554 -46.86 Q41.263 -47.201 41.999 -46.761 L58.355 -36.406 Q58.993 -35.954 58.993 -35.212 Q58.993 -34.472 58.355 -34.054 L41.999 -23.699 Q41.263 -23.259 40.554 -23.625 Q39.845 -23.991 39.845 -24.798 Z M66.182 10.213 Q65.51 10.213 65.043 9.768 Q64.577 9.322 64.577 8.656 Q64.577 7.99 65.027 7.524 Q65.478 7.057 66.151 7.057 H87.43 Q88.103 7.057 88.569 7.503 Q89.036 7.949 89.036 8.615 Q89.036 9.28 88.585 9.747 Q88.134 10.213 87.462 10.213 H66.182 Z M75.228 -6.659 V-22.743 Q75.228 -23.424 75.674 -23.88 Q76.12 -24.336 76.785 -24.336 Q77.451 -24.336 77.918 -23.88 Q78.384 -23.424 78.384 -22.743 V-6.659 L84.879 -13.229 Q85.432 -13.783 86.028 -13.771 Q86.623 -13.76 87.177 -13.206 Q87.807 -12.577 87.807 -12.106 Q87.807 -11.636 87.177 -11.006 L77.86 -1.69 Q77.443 -1.272 76.806 -1.272 Q76.169 -1.272 75.752 -1.69 L66.436 -11.006 Q65.882 -11.56 65.882 -12.106 Q65.882 -12.653 66.436 -13.206 Q67.065 -13.836 67.622 -13.798 Q68.18 -13.76 68.734 -13.13 L75.228 -6.659 Z"/></g><g id="Ultralight-S" transform="matrix(1 0 0 1 517.792 696)"><path d="M78.42 -42.612 Q78.136 -42.893 78.136 -43.317 V-53.377 Q78.136 -54.56 77.149 -55.547 Q76.163 -56.533 74.98 -56.533 H64.895 Q64.471 -56.533 64.19 -56.808 Q63.909 -57.083 63.909 -57.499 Q63.909 -57.914 64.192 -58.21 Q64.475 -58.505 64.901 -58.505 H74.98 Q77.223 -58.505 78.653 -57.064 Q80.084 -55.622 80.084 -53.388 V-43.345 Q80.084 -42.923 79.808 -42.627 Q79.533 -42.331 79.118 -42.331 Q78.703 -42.331 78.42 -42.612 Z M15.603 -42.331 Q15.188 -42.331 14.892 -42.614 Q14.597 -42.897 14.597 -43.323 V-53.402 Q14.597 -55.645 16.038 -57.075 Q17.48 -58.505 19.714 -58.505 H29.757 Q30.179 -58.505 30.475 -58.23 Q30.771 -57.955 30.771 -57.54 Q30.771 -57.125 30.49 -56.842 Q30.209 -56.558 29.785 -56.558 H19.725 Q18.541 -56.558 17.555 -55.571 Q16.569 -54.585 16.569 -53.402 V-43.317 Q16.569 -42.893 16.294 -42.612 Q16.019 -42.331 15.603 -42.331 Z M19.7 -11.954 Q17.457 -11.954 16.027 -13.399 Q14.597 -14.844 14.597 -17.083 V-27.291 Q14.597 -27.735 14.872 -28.031 Q15.147 -28.326 15.562 -28.326 Q15.977 -28.326 16.273 -28.031 Q16.569 -27.735 16.569 -27.291 V-17.083 Q16.569 -15.899 17.555 -14.913 Q18.541 -13.927 19.725 -13.927 H29.785 Q30.209 -13.927 30.49 -13.652 Q30.771 -13.377 30.771 -12.961 Q30.771 -12.546 30.488 -12.25 Q30.205 -11.954 29.779 -11.954 H19.7 Z M40.436 -25.663 V-44.765 Q40.436 -45.586 41.077 -45.881 Q41.718 -46.177 42.409 -45.783 L57.4 -36.315 Q57.992 -35.885 57.992 -35.212 Q57.992 -34.54 57.4 -34.145 L42.409 -24.677 Q41.718 -24.283 41.077 -24.603 Q40.436 -24.924 40.436 -25.663 Z M66.501 9.644 Q66.079 9.644 65.783 9.369 Q65.487 9.094 65.487 8.679 Q65.487 8.264 65.767 7.968 Q66.047 7.672 66.469 7.672 H87.749 Q88.171 7.672 88.467 7.947 Q88.763 8.222 88.763 8.637 Q88.763 9.053 88.482 9.349 Q88.202 9.644 87.78 9.644 H66.501 Z M76.139 -4.656 V-22.198 Q76.139 -22.628 76.414 -22.913 Q76.689 -23.198 77.104 -23.198 Q77.519 -23.198 77.815 -22.913 Q78.111 -22.628 78.111 -22.198 V-4.656 L85.606 -12.25 Q86.001 -12.645 86.346 -12.645 Q86.691 -12.645 87.086 -12.25 Q87.579 -11.757 87.579 -11.56 Q87.579 -11.363 87.086 -10.87 L78.111 -1.895 Q77.716 -1.5 77.125 -1.5 Q76.533 -1.5 76.139 -1.895 L67.164 -10.87 Q66.769 -11.264 66.769 -11.56 Q66.769 -11.856 67.164 -12.25 Q67.657 -12.743 67.953 -12.694 Q68.249 -12.645 68.643 -12.152 L76.139 -4.656 Z"/></g></g></svg>