<svg xmlns="http://www.w3.org/2000/svg" version="1.1" width="3300" height="2000"><g id="Notes"><style>
    text {
      font-family: monospace;
      text-anchor: middle;
    }
    text.emphasis {
      font-weight:bold;
    }
    text.lanchor {
      text-anchor: start;
    }
  </style><rect height="2200" id="artboard" fill="white" width="3300" x="0" y="0"/><line id="" style="fill:none;stroke:black;stroke-width:0.5;" x1="263" x2="3036" y1="292" y2="292"/><text class="lanchor emphasis" transform="matrix(1 0 0 1 263 322)">Weight/Scale Variations</text><text transform="matrix(1 0 0 1 559.711 322)">Ultralight</text><text transform="matrix(1 0 0 1 856.422 322)">Thin</text><text transform="matrix(1 0 0 1 1153.13 322)">Light</text><text transform="matrix(1 0 0 1 1449.84 322)">Regular</text><text transform="matrix(1 0 0 1 1746.56 322)">Medium</text><text transform="matrix(1 0 0 1 2043.27 322)">Semibold</text><text transform="matrix(1 0 0 1 2339.98 322)">Bold</text><text transform="matrix(1 0 0 1 2636.69 322)">Heavy</text><text transform="matrix(1 0 0 1 2933.4 322)">Black</text><text id="template-version" style="text-anchor: end;" transform="matrix(1 0 0 1 3036 1933)">Template v.1.0</text><text class="lanchor" transform="matrix(1 0 0 1 263 726)">Small</text><text class="lanchor" transform="matrix(1 0 0 1 263 1156)">Medium</text><text class="lanchor" transform="matrix(1 0 0 1 263 1586)">Large</text></g><g id="Guides"><g id="H-reference" style="fill:#27AAE1;stroke:none;" transform="matrix(1 0 0 1 339 696)"><path d="M 54.9316 0 L 57.666 0 L 30.5664 -70.459 L 28.0762 -70.459 L 0.976562 0 L 3.66211 0 L 12.9395 -24.4629 L 45.7031 -24.4629 Z M 29.1992 -67.0898 L 29.4434 -67.0898 L 44.8242 -26.709 L 13.8184 -26.709 Z"/></g><line id="Baseline-S" style="fill:none;stroke:#27AAE1;opacity:1;stroke-width:0.577;" x1="263" x2="3036" y1="696" y2="696"/><line id="Capline-S" style="fill:none;stroke:#27AAE1;opacity:1;stroke-width:0.577;" x1="263" x2="3036" y1="625.541" y2="625.541"/><g id="H-reference" style="fill:#27AAE1;stroke:none;" transform="matrix(1 0 0 1 339 1126)"><path d="M 54.9316 0 L 57.666 0 L 30.5664 -70.459 L 28.0762 -70.459 L 0.976562 0 L 3.66211 0 L 12.9395 -24.4629 L 45.7031 -24.4629 Z M 29.1992 -67.0898 L 29.4434 -67.0898 L 44.8242 -26.709 L 13.8184 -26.709 Z"/></g><line id="Baseline-M" style="fill:none;stroke:#27AAE1;opacity:1;stroke-width:0.577;" x1="263" x2="3036" y1="1126" y2="1126"/><line id="Capline-M" style="fill:none;stroke:#27AAE1;opacity:1;stroke-width:0.577;" x1="263" x2="3036" y1="1055.54" y2="1055.54"/><g id="H-reference" style="fill:#27AAE1;stroke:none;" transform="matrix(1 0 0 1 339 1556)"><path d="M 54.9316 0 L 57.666 0 L 30.5664 -70.459 L 28.0762 -70.459 L 0.976562 0 L 3.66211 0 L 12.9395 -24.4629 L 45.7031 -24.4629 Z M 29.1992 -67.0898 L 29.4434 -67.0898 L 44.8242 -26.709 L 13.8184 -26.709 Z"/></g><line id="Baseline-L" style="fill:none;stroke:#27AAE1;opacity:1;stroke-width:0.577;" x1="263" x2="3036" y1="1556" y2="1556"/><line id="Capline-L" style="fill:none;stroke:#27AAE1;opacity:1;stroke-width:0.577;" x1="263" x2="3036" y1="1485.54" y2="1485.54"/><rect height="119.336" id="left-margin" style="fill:darkred;stroke:none;opacity:0.4;" width="12.4512" x="1394.06" y="1030.79"/><rect height="119.336" id="right-margin" style="fill:darkgreen;stroke:none;opacity:0.4;" width="12.4512" x="1502.5112" y="1030.79"/><rect x="1406.5112" y="1045" width="96" height="96" fill="none" stroke="blue" stroke-dasharray="5"/><rect x="1394.06" y="1030.79" width="120.9024" height="119.336" fill="none" stroke="blue"/></g><g id="Symbols"><g id="Bold-L" transform="matrix(1 0 0 1 2266 1556)"><path d="M134.318 -51.537 Q132.548 -53.33 132.548 -56.354 V-77.316 Q132.548 -77.316 132.548 -77.316 Q132.548 -77.316 132.548 -77.316 H111.263 Q108.179 -77.316 106.496 -79.229 Q104.812 -81.141 104.812 -83.955 Q104.812 -86.767 106.607 -88.573 Q108.4 -90.377 111.424 -90.377 H130.774 Q136.879 -90.377 141.244 -86.012 Q145.609 -81.647 145.609 -75.542 V-56.192 Q145.609 -53.109 143.614 -51.426 Q141.619 -49.742 138.854 -49.742 Q136.089 -49.742 134.318 -51.537 Z M15.967 -49.742 Q13.121 -49.742 11.317 -51.537 Q9.514 -53.33 9.514 -56.354 V-75.542 Q9.514 -81.647 13.832 -86.012 Q18.149 -90.377 24.188 -90.377 H43.699 Q46.625 -90.377 48.307 -88.515 Q49.988 -86.651 49.988 -83.839 Q49.988 -81.025 48.307 -79.171 Q46.625 -77.316 43.699 -77.316 H22.414 Q22.414 -77.316 22.414 -77.316 Q22.414 -77.316 22.414 -77.316 V-56.192 Q22.414 -53.109 20.53 -51.426 Q18.647 -49.742 15.967 -49.742 Z M24.188 19.756 Q18.149 19.756 13.832 15.44 Q9.514 11.121 9.514 5.083 V-14.429 Q9.514 -17.355 11.346 -19.037 Q13.177 -20.717 15.943 -20.717 Q18.708 -20.717 20.561 -19.037 Q22.414 -17.355 22.414 -14.429 V6.856 Q22.414 6.856 22.414 6.856 Q22.414 6.856 22.414 6.856 H43.699 Q46.625 6.856 48.307 8.767 Q49.988 10.678 49.988 13.443 Q49.988 16.209 48.307 17.983 Q46.625 19.756 43.699 19.756 H24.188 Z M61.114 -13.3 V-57.16 Q61.114 -59.256 63.049 -60.224 Q64.984 -61.191 66.758 -60.224 L101.265 -38.616 Q102.877 -37.465 102.877 -35.219 Q102.877 -32.972 101.265 -32.166 L66.758 -10.236 Q64.984 -9.269 63.049 -10.236 Q61.114 -11.204 61.114 -13.3 Z M107.876 40.396 Q106.043 40.396 104.701 39.068 Q103.361 37.74 103.361 35.923 Q103.361 34.108 104.701 32.656 Q106.043 31.205 107.876 31.205 H149.64 Q151.381 31.205 152.849 32.65 Q154.316 34.093 154.316 35.957 Q154.316 37.823 152.849 39.109 Q151.381 40.396 149.64 40.396 H107.876 Z M124.001 3.793 V-23.942 Q124.001 -25.616 125.298 -27.037 Q126.593 -28.457 128.361 -28.457 Q130.129 -28.457 131.661 -27.037 Q133.192 -25.616 133.192 -23.942 V3.793 L143.674 -6.689 Q145.085 -7.979 146.799 -8.059 Q148.511 -8.14 150.109 -6.902 Q151.575 -5.308 151.575 -3.48 Q151.575 -1.651 150.124 -0.4 L131.096 18.628 Q129.895 19.756 128.157 19.756 Q126.42 19.756 125.614 18.628 L106.748 -0.4 Q105.283 -1.609 105.209 -3.44 Q105.135 -5.27 106.733 -6.835 Q108.158 -8.14 109.905 -8.059 Q111.65 -7.979 113.198 -6.689 L124.001 3.793 Z"/></g><g id="Semibold-L" transform="matrix(1 0 0 1 1970.27 1556)"><path d="M134.423 -51.642 Q132.688 -53.4 132.688 -56.213 V-77.457 Q132.688 -77.457 132.688 -77.457 Q132.688 -77.457 132.688 -77.457 H111.193 Q108.345 -77.457 106.649 -79.298 Q104.953 -81.141 104.953 -83.792 Q104.953 -86.445 106.712 -88.201 Q108.47 -89.957 111.283 -89.957 H131.685 Q137.169 -89.957 141.179 -85.948 Q145.188 -81.938 145.188 -76.454 V-56.123 Q145.188 -53.275 143.277 -51.579 Q141.366 -49.883 138.764 -49.883 Q136.16 -49.883 134.423 -51.642 Z M16.072 -49.883 Q13.401 -49.883 11.633 -51.642 Q9.864 -53.4 9.864 -56.213 V-76.454 Q9.864 -81.938 13.847 -85.948 Q17.829 -89.957 23.276 -89.957 H43.768 Q46.459 -89.957 48.152 -88.143 Q49.847 -86.329 49.847 -83.676 Q49.847 -81.025 48.152 -79.24 Q46.459 -77.457 43.768 -77.457 H22.273 Q22.273 -77.457 22.273 -77.457 Q22.273 -77.457 22.273 -77.457 V-56.123 Q22.273 -53.275 20.461 -51.579 Q18.647 -49.883 16.072 -49.883 Z M23.276 19.406 Q17.829 19.406 13.847 15.423 Q9.864 11.441 9.864 5.994 V-14.498 Q9.864 -17.189 11.662 -18.882 Q13.458 -20.577 16.081 -20.577 Q18.707 -20.577 20.49 -18.882 Q22.273 -17.189 22.273 -14.498 V6.997 Q22.273 6.997 22.273 6.997 Q22.273 6.997 22.273 6.997 H43.768 Q46.459 6.997 48.152 8.838 Q49.847 10.679 49.847 13.305 Q49.847 15.928 48.152 17.666 Q46.459 19.406 43.768 19.406 H23.276 Z M60.904 -12.318 V-58.142 Q60.904 -60.062 62.663 -60.943 Q64.423 -61.822 66.056 -60.925 L102.036 -38.266 Q103.508 -37.204 103.508 -35.228 Q103.508 -33.253 102.036 -32.447 L66.056 -9.535 Q64.423 -8.638 62.663 -9.517 Q60.904 -10.397 60.904 -12.318 Z M105.703 44.532 Q103.631 44.532 102.129 43.034 Q100.626 41.536 100.626 39.469 Q100.626 37.402 102.129 35.81 Q103.631 34.219 105.703 34.219 H147.747 Q149.796 34.219 151.391 35.82 Q152.984 37.42 152.984 39.513 Q152.984 41.607 151.391 43.07 Q149.796 44.532 147.747 44.532 H105.703 Z M121.337 3.443 V-23.381 Q121.337 -25.363 122.816 -26.909 Q124.296 -28.457 126.336 -28.457 Q128.376 -28.457 130.013 -26.909 Q131.651 -25.363 131.651 -23.381 V3.512 L141.36 -6.199 Q142.929 -7.629 144.914 -7.709 Q146.899 -7.79 148.574 -6.389 Q150.172 -4.717 150.172 -2.632 Q150.172 -0.547 148.582 0.863 L128.782 20.59 Q127.676 21.649 126.136 21.649 Q124.598 21.649 123.792 20.59 L104.224 0.863 Q102.695 -0.523 102.618 -2.616 Q102.54 -4.709 104.216 -6.352 Q105.793 -7.79 107.796 -7.709 Q109.798 -7.629 111.445 -6.199 L121.337 3.443 Z"/></g><g id="Medium-L" transform="matrix(1 0 0 1 1674.31 1556)"><path d="M134.502 -51.721 Q132.793 -53.453 132.793 -56.109 V-77.561 Q132.793 -77.561 132.793 -77.561 Q132.793 -77.561 132.793 -77.561 H111.14 Q108.47 -77.561 106.764 -79.351 Q105.058 -81.141 105.058 -83.671 Q105.058 -86.201 106.791 -87.922 Q108.523 -89.641 111.179 -89.641 H132.369 Q137.387 -89.641 141.129 -85.898 Q144.872 -82.155 144.872 -77.137 V-56.07 Q144.872 -53.4 143.024 -51.694 Q141.176 -49.988 138.694 -49.988 Q136.213 -49.988 134.502 -51.721 Z M16.149 -49.988 Q13.611 -49.988 11.87 -51.721 Q10.127 -53.453 10.127 -56.109 V-77.137 Q10.127 -82.155 13.859 -85.898 Q17.591 -89.641 22.593 -89.641 H43.821 Q46.334 -89.641 48.038 -87.864 Q49.742 -86.085 49.742 -83.555 Q49.742 -81.025 48.038 -79.293 Q46.334 -77.561 43.821 -77.561 H22.169 Q22.169 -77.561 22.169 -77.561 Q22.169 -77.561 22.169 -77.561 V-56.07 Q22.169 -53.4 20.408 -51.694 Q18.649 -49.988 16.149 -49.988 Z M22.593 19.144 Q17.591 19.144 13.859 15.411 Q10.127 11.679 10.127 6.677 V-14.551 Q10.127 -17.064 11.897 -18.768 Q13.668 -20.472 16.186 -20.472 Q18.705 -20.472 20.437 -18.768 Q22.169 -17.064 22.169 -14.551 V7.101 Q22.169 7.101 22.169 7.101 Q22.169 7.101 22.169 7.101 H43.821 Q46.334 7.101 48.038 8.891 Q49.742 10.681 49.742 13.2 Q49.742 15.719 48.038 17.431 Q46.334 19.144 43.821 19.144 H22.593 Z M60.746 -11.583 V-58.877 Q60.746 -60.667 62.375 -61.481 Q64.002 -62.296 65.53 -61.451 L102.615 -38.003 Q103.982 -37.009 103.982 -35.236 Q103.982 -33.463 102.615 -32.656 L65.53 -9.009 Q64.002 -8.164 62.375 -8.978 Q60.746 -9.793 60.746 -11.583 Z M104.072 47.635 Q101.821 47.635 100.199 46.009 Q98.577 44.384 98.577 42.13 Q98.577 39.874 100.199 38.177 Q101.821 36.481 104.072 36.481 H146.328 Q148.608 36.481 150.296 38.197 Q151.985 39.914 151.985 42.18 Q151.985 44.447 150.296 46.042 Q148.608 47.635 146.328 47.635 H104.072 Z M119.34 3.18 V-22.96 Q119.34 -25.174 120.957 -26.816 Q122.574 -28.457 124.817 -28.457 Q127.062 -28.457 128.777 -26.816 Q130.493 -25.174 130.493 -22.96 V3.302 L139.625 -5.829 Q141.311 -7.366 143.501 -7.447 Q145.689 -7.527 147.421 -6.003 Q149.121 -4.273 149.121 -1.995 Q149.121 0.282 147.424 1.809 L127.047 22.062 Q126.012 23.068 124.622 23.068 Q123.23 23.068 122.424 22.062 L102.331 1.809 Q100.754 0.292 100.675 -1.998 Q100.596 -4.288 102.328 -5.987 Q104.018 -7.527 106.214 -7.447 Q108.41 -7.366 110.131 -5.829 L119.34 3.18 Z"/></g><g id="Regular-L" transform="matrix(1 0 0 1 1378.56 1556)"><path d="M134.56 -51.779 Q132.87 -53.492 132.87 -56.031 V-77.639 Q132.87 -77.639 132.87 -77.639 Q132.87 -77.639 132.87 -77.639 H111.101 Q108.562 -77.639 106.849 -79.39 Q105.135 -81.141 105.135 -83.582 Q105.135 -86.024 106.849 -87.717 Q108.562 -89.41 111.101 -89.41 H132.87 Q137.546 -89.41 141.094 -85.862 Q144.641 -82.315 144.641 -77.639 V-56.031 Q144.641 -53.492 142.838 -51.779 Q141.037 -50.065 138.644 -50.065 Q136.25 -50.065 134.56 -51.779 Z M16.207 -50.065 Q13.766 -50.065 12.042 -51.779 Q10.32 -53.492 10.32 -56.031 V-77.639 Q10.32 -82.315 13.867 -85.862 Q17.415 -89.41 22.091 -89.41 H43.86 Q46.242 -89.41 47.954 -87.659 Q49.665 -85.908 49.665 -83.466 Q49.665 -81.025 47.954 -79.332 Q46.242 -77.639 43.86 -77.639 H22.091 Q22.091 -77.639 22.091 -77.639 Q22.091 -77.639 22.091 -77.639 V-56.031 Q22.091 -53.492 20.369 -51.779 Q18.649 -50.065 16.207 -50.065 Z M22.091 18.95 Q17.415 18.95 13.867 15.403 Q10.32 11.855 10.32 7.179 V-14.59 Q10.32 -16.972 12.071 -18.684 Q13.822 -20.395 16.264 -20.395 Q18.705 -20.395 20.398 -18.684 Q22.091 -16.972 22.091 -14.59 V7.179 Q22.091 7.179 22.091 7.179 Q22.091 7.179 22.091 7.179 H43.86 Q46.242 7.179 47.954 8.93 Q49.665 10.681 49.665 13.122 Q49.665 15.564 47.954 17.257 Q46.242 18.95 43.86 18.95 H22.091 Z M60.63 -11.042 V-59.417 Q60.63 -61.111 62.162 -61.877 Q63.694 -62.642 65.145 -61.836 L103.039 -37.81 Q104.329 -36.865 104.329 -35.241 Q104.329 -33.617 103.039 -32.811 L65.145 -8.624 Q63.694 -7.817 62.162 -8.583 Q60.63 -9.349 60.63 -11.042 Z M102.877 49.91 Q100.494 49.91 98.783 48.191 Q97.073 46.472 97.073 44.079 Q97.073 41.686 98.783 39.913 Q100.494 38.139 102.877 38.139 H145.286 Q147.737 38.139 149.495 39.942 Q151.252 41.743 151.252 44.136 Q151.252 46.53 149.495 48.22 Q147.737 49.91 145.286 49.91 H102.877 Z M117.874 2.986 V-22.652 Q117.874 -25.034 119.593 -26.747 Q121.312 -28.457 123.705 -28.457 Q126.097 -28.457 127.871 -26.747 Q129.645 -25.034 129.645 -22.652 V3.148 L138.352 -5.56 Q140.126 -7.172 142.464 -7.253 Q144.803 -7.334 146.576 -5.721 Q148.35 -3.947 148.35 -1.529 Q148.35 0.89 146.576 2.503 L125.775 23.143 Q124.793 24.11 123.509 24.11 Q122.228 24.11 121.421 23.143 L100.943 2.503 Q99.33 0.89 99.249 -1.545 Q99.169 -3.98 100.943 -5.721 Q102.716 -7.334 105.054 -7.253 Q107.392 -7.172 109.166 -5.56 L117.874 2.986 Z"/></g><g id="Light-L" transform="matrix(1 0 0 1 1082.77 1556)"><path d="M133.351 -51.003 Q132.001 -52.377 132.001 -54.419 V-74.786 Q132.001 -75.53 131.382 -76.15 Q130.761 -76.77 130.017 -76.77 H109.489 Q107.447 -76.77 106.073 -78.182 Q104.701 -79.593 104.701 -81.536 Q104.701 -83.481 106.073 -84.832 Q107.447 -86.185 109.489 -86.185 H130.017 Q134.618 -86.185 138.017 -82.786 Q141.416 -79.387 141.416 -74.786 V-54.419 Q141.416 -52.377 139.954 -51.003 Q138.493 -49.631 136.596 -49.631 Q134.7 -49.631 133.351 -51.003 Z M18.254 -49.631 Q16.309 -49.631 14.927 -51.003 Q13.545 -52.377 13.545 -54.419 V-74.786 Q13.545 -79.387 16.944 -82.786 Q20.343 -86.185 24.944 -86.185 H45.473 Q47.358 -86.185 48.728 -84.774 Q50.099 -83.363 50.099 -81.418 Q50.099 -79.474 48.728 -78.122 Q47.358 -76.77 45.473 -76.77 H24.944 Q24.2 -76.77 23.58 -76.15 Q22.96 -75.53 22.96 -74.786 V-54.419 Q22.96 -52.377 21.578 -51.003 Q20.197 -49.631 18.254 -49.631 Z M24.944 15.725 Q20.343 15.725 16.944 12.326 Q13.545 8.927 13.545 4.326 V-16.202 Q13.545 -18.088 14.956 -19.458 Q16.367 -20.829 18.312 -20.829 Q20.256 -20.829 21.608 -19.458 Q22.96 -18.088 22.96 -16.202 V4.326 Q22.96 5.07 23.58 5.69 Q24.2 6.31 24.944 6.31 H45.473 Q47.358 6.31 48.728 7.722 Q50.099 9.133 50.099 11.076 Q50.099 13.021 48.728 14.372 Q47.358 15.725 45.473 15.725 H24.944 Z M62.118 -13.4 V-57.06 Q62.118 -58.692 63.62 -59.395 Q65.121 -60.1 66.509 -59.417 L100.62 -37.749 Q101.847 -36.865 101.847 -35.241 Q101.847 -33.617 100.62 -32.873 L66.509 -11.105 Q65.121 -10.36 63.62 -11.065 Q62.118 -11.768 62.118 -13.4 Z M103.684 48.298 Q101.799 48.298 100.428 46.919 Q99.057 45.54 99.057 43.644 Q99.057 41.748 100.428 40.316 Q101.799 38.884 103.684 38.884 H145.225 Q147.178 38.884 148.595 40.345 Q150.012 41.807 150.012 43.703 Q150.012 45.6 148.595 46.948 Q147.178 48.298 145.225 48.298 H103.684 Z M119.486 6.769 V-20.977 Q119.486 -22.862 120.865 -24.233 Q122.244 -25.605 124.14 -25.605 Q126.036 -25.605 127.468 -24.233 Q128.9 -22.862 128.9 -20.977 V6.93 L139.097 -3.39 Q140.499 -4.691 142.403 -4.771 Q144.306 -4.852 145.71 -3.577 Q147.171 -2.087 147.171 -0.165 Q147.171 1.759 145.707 3.06 L126.191 22.475 Q125.29 23.365 124.006 23.365 Q122.724 23.365 121.992 22.475 L102.679 3.06 Q101.376 1.82 101.296 -0.137 Q101.215 -2.095 102.679 -3.551 Q104.143 -4.852 105.985 -4.771 Q107.826 -4.691 109.29 -3.39 L119.486 6.769 Z"/></g><g id="Thin-L" transform="matrix(1 0 0 1 787.282 1556)"><path d="M132.141 -50.229 Q131.133 -51.261 131.133 -52.806 V-71.934 Q131.133 -73.422 129.893 -74.662 Q128.653 -75.902 127.165 -75.902 H107.876 Q106.331 -75.902 105.299 -76.973 Q104.267 -78.045 104.267 -79.492 Q104.267 -80.938 105.299 -81.949 Q106.331 -82.96 107.876 -82.96 H127.165 Q131.688 -82.96 134.94 -79.709 Q138.191 -76.457 138.191 -71.934 V-52.806 Q138.191 -51.261 137.069 -50.229 Q135.947 -49.197 134.549 -49.197 Q133.149 -49.197 132.141 -50.229 Z M20.298 -49.197 Q18.852 -49.197 17.81 -50.229 Q16.77 -51.261 16.77 -52.806 V-71.934 Q16.77 -76.457 20.021 -79.709 Q23.273 -82.96 27.796 -82.96 H47.085 Q48.472 -82.96 49.502 -81.889 Q50.533 -80.819 50.533 -79.371 Q50.533 -77.924 49.502 -76.913 Q48.472 -75.902 47.085 -75.902 H27.796 Q26.308 -75.902 25.068 -74.662 Q23.828 -73.422 23.828 -71.934 V-52.806 Q23.828 -51.261 22.786 -50.229 Q21.745 -49.197 20.298 -49.197 Z M27.796 12.5 Q23.273 12.5 20.021 9.249 Q16.77 5.997 16.77 1.474 V-17.815 Q16.77 -19.202 17.841 -20.232 Q18.911 -21.263 20.359 -21.263 Q21.806 -21.263 22.817 -20.232 Q23.828 -19.202 23.828 -17.815 V1.474 Q23.828 2.962 25.068 4.202 Q26.308 5.442 27.796 5.442 H47.085 Q48.472 5.442 49.502 6.513 Q50.533 7.585 50.533 9.032 Q50.533 10.478 49.502 11.489 Q48.472 12.5 47.085 12.5 H27.796 Z M63.607 -15.756 V-54.704 Q63.607 -56.273 65.077 -56.915 Q66.546 -57.557 67.873 -56.999 L98.201 -37.686 Q99.367 -36.865 99.367 -35.241 Q99.367 -33.617 98.201 -32.935 L67.873 -13.585 Q66.546 -12.903 65.077 -13.545 Q63.607 -14.187 63.607 -15.756 Z M104.49 46.685 Q103.103 46.685 102.073 45.647 Q101.042 44.608 101.042 43.208 Q101.042 41.81 102.073 40.719 Q103.103 39.627 104.49 39.627 H145.162 Q146.618 39.627 147.695 40.749 Q148.772 41.872 148.772 43.27 Q148.772 44.669 147.695 45.677 Q146.618 46.685 145.162 46.685 H104.49 Z M121.099 10.552 V-19.303 Q121.099 -20.69 122.137 -21.72 Q123.176 -22.752 124.575 -22.752 Q125.973 -22.752 127.065 -21.72 Q128.157 -20.69 128.157 -19.303 V10.713 L139.841 -1.219 Q140.871 -2.211 142.34 -2.291 Q143.811 -2.372 144.844 -1.434 Q145.993 -0.226 145.993 1.2 Q145.993 2.627 144.84 3.618 L126.607 21.807 Q125.785 22.622 124.503 22.622 Q123.219 22.622 122.561 21.807 L104.416 3.618 Q103.423 2.751 103.342 1.271 Q103.261 -0.21 104.416 -1.38 Q105.569 -2.372 106.915 -2.291 Q108.26 -2.211 109.415 -1.219 L121.099 10.552 Z"/></g><g id="Ultralight-L" transform="matrix(1 0 0 1 491.205 1556)"><path d="M131.416 -49.765 Q130.613 -50.594 130.613 -51.839 V-70.221 Q130.613 -72.156 129 -73.769 Q127.388 -75.381 125.453 -75.381 H106.909 Q105.664 -75.381 104.835 -76.249 Q104.006 -77.115 104.006 -78.264 Q104.006 -79.412 104.835 -80.219 Q105.664 -81.025 106.909 -81.025 H125.453 Q129.932 -81.025 133.094 -77.863 Q136.256 -74.701 136.256 -70.221 V-51.839 Q136.256 -50.594 135.339 -49.765 Q134.42 -48.936 133.32 -48.936 Q132.219 -48.936 131.416 -49.765 Z M21.525 -48.936 Q20.377 -48.936 19.54 -49.765 Q18.705 -50.594 18.705 -51.839 V-70.221 Q18.705 -74.701 21.867 -77.863 Q25.031 -81.025 29.509 -81.025 H48.053 Q49.141 -81.025 49.968 -80.157 Q50.794 -79.292 50.794 -78.142 Q50.794 -76.994 49.968 -76.187 Q49.141 -75.381 48.053 -75.381 H29.509 Q27.574 -75.381 25.961 -73.769 Q24.349 -72.156 24.349 -70.221 V-51.839 Q24.349 -50.594 23.512 -49.765 Q22.673 -48.936 21.525 -48.936 Z M29.509 10.565 Q25.031 10.565 21.867 7.403 Q18.705 4.239 18.705 -0.239 V-18.782 Q18.705 -19.871 19.573 -20.698 Q20.438 -21.524 21.588 -21.524 Q22.736 -21.524 23.543 -20.698 Q24.349 -19.871 24.349 -18.782 V-0.239 Q24.349 1.696 25.961 3.309 Q27.574 4.921 29.509 4.921 H48.053 Q49.141 4.921 49.968 5.789 Q50.794 6.655 50.794 7.804 Q50.794 8.953 49.968 9.759 Q49.141 10.565 48.053 10.565 H29.509 Z M64.5 -17.17 V-53.29 Q64.5 -54.822 65.951 -55.427 Q67.403 -56.031 68.692 -55.547 L96.75 -37.649 Q97.879 -36.865 97.879 -35.241 Q97.879 -33.617 96.75 -32.972 L68.692 -15.074 Q67.403 -14.429 65.951 -15.033 Q64.5 -15.638 64.5 -17.17 Z M104.974 45.718 Q103.885 45.718 103.06 44.882 Q102.233 44.049 102.233 42.947 Q102.233 41.848 103.06 40.961 Q103.885 40.074 104.974 40.074 H145.125 Q146.281 40.074 147.155 40.991 Q148.028 41.91 148.028 43.01 Q148.028 44.111 147.155 44.914 Q146.281 45.718 145.125 45.718 H104.974 Z M122.066 12.823 V-18.299 Q122.066 -19.387 122.902 -20.214 Q123.735 -21.04 124.837 -21.04 Q125.936 -21.04 126.823 -20.214 Q127.71 -19.387 127.71 -18.299 V12.984 L140.287 0.084 Q141.094 -0.722 142.303 -0.803 Q143.513 -0.884 144.325 -0.147 Q145.286 0.89 145.286 2.019 Q145.286 3.148 144.319 3.954 L126.857 21.407 Q126.083 22.175 124.799 22.175 Q123.517 22.175 122.903 21.407 L105.457 3.954 Q104.651 3.309 104.571 2.116 Q104.49 0.922 105.457 -0.077 Q106.425 -0.884 107.473 -0.803 Q108.521 -0.722 109.489 0.084 L122.066 12.823 Z"/></g><g id="Bold-M" transform="matrix(1 0 0 1 2281.8 1126)"><path d="M102.938 -47.667 Q100.75 -49.855 100.75 -53.105 V-65.855 Q100.75 -65.855 100.75 -65.855 Q100.75 -65.855 100.75 -65.855 H87.75 Q84.454 -65.855 82.351 -68.105 Q80.25 -70.355 80.25 -73.542 Q80.25 -76.73 82.438 -78.855 Q84.625 -80.98 87.875 -80.98 H98.875 Q106.05 -80.98 110.963 -76.067 Q115.875 -71.155 115.875 -63.98 V-52.98 Q115.875 -49.684 113.688 -47.581 Q111.5 -45.48 108.312 -45.48 Q105.125 -45.48 102.938 -47.667 Z M11.875 -45.48 Q8.625 -45.48 6.438 -47.667 Q4.25 -49.855 4.25 -53.105 V-63.98 Q4.25 -71.155 9.162 -76.067 Q14.075 -80.98 21.25 -80.98 H32.25 Q35.547 -80.98 37.649 -78.855 Q39.75 -76.73 39.75 -73.542 Q39.75 -70.355 37.649 -68.105 Q35.547 -65.855 32.25 -65.855 H19.375 Q19.375 -65.855 19.375 -65.855 Q19.375 -65.855 19.375 -65.855 V-52.98 Q19.375 -49.684 17.186 -47.581 Q14.998 -45.48 11.875 -45.48 Z M21.25 10.52 Q14.075 10.52 9.162 5.608 Q4.25 0.695 4.25 -6.48 V-17.48 Q4.25 -20.777 6.438 -22.879 Q8.625 -24.98 11.812 -24.98 Q15 -24.98 17.188 -22.879 Q19.375 -20.777 19.375 -17.48 V-4.605 Q19.375 -4.605 19.375 -4.605 Q19.375 -4.605 19.375 -4.605 H32.25 Q35.547 -4.605 37.649 -2.417 Q39.75 -0.23 39.75 2.958 Q39.75 6.145 37.649 8.333 Q35.547 10.52 32.25 10.52 H21.25 Z M45.875 -17.605 V-52.855 Q45.875 -55.417 48.062 -56.636 Q50.25 -57.855 52.375 -56.605 L80 -38.855 Q81.875 -37.614 81.875 -35.235 Q81.875 -32.855 80 -31.605 L52.375 -13.855 Q50.25 -12.605 48.062 -13.824 Q45.875 -15.042 45.875 -17.605 Z M83.875 29.395 Q81.55 29.395 79.9 27.76 Q78.25 26.125 78.25 23.823 Q78.25 21.52 79.9 19.833 Q81.55 18.145 83.875 18.145 H114.125 Q116.45 18.145 118.1 19.805 Q119.75 21.465 119.75 23.805 Q119.75 26.145 118.1 27.77 Q116.45 29.395 114.125 29.395 H83.875 Z M93.375 -10.98 V-25.73 Q93.375 -28.055 95.01 -29.705 Q96.645 -31.355 98.948 -31.355 Q101.25 -31.355 102.938 -29.705 Q104.625 -28.055 104.625 -25.73 V-10.855 L108.125 -14.355 Q109.719 -15.98 112.047 -15.98 Q114.375 -15.98 115.989 -14.395 Q117.625 -12.785 117.625 -10.445 Q117.625 -8.105 116 -6.48 L102 7.52 Q100.761 8.77 99.006 8.77 Q97.25 8.77 96 7.52 L82 -6.48 Q80.354 -8.074 80.365 -10.402 Q80.375 -12.73 81.989 -14.344 Q83.625 -15.98 85.963 -15.98 Q88.3 -15.98 89.875 -14.355 L93.375 -10.98 Z"/></g><g id="Semibold-M" transform="matrix(1 0 0 1 1985.97 1126)"><path d="M102.884 -47.667 Q100.804 -49.746 100.804 -52.779 V-65.909 Q100.804 -65.909 100.804 -65.909 Q100.804 -65.909 100.804 -65.909 H87.479 Q84.419 -65.909 82.389 -68.024 Q80.359 -70.137 80.359 -73.135 Q80.359 -76.132 82.438 -78.176 Q84.516 -80.219 87.549 -80.219 H99.745 Q106.191 -80.219 110.653 -75.757 Q115.114 -71.296 115.114 -64.85 V-52.709 Q115.114 -49.649 113.035 -47.619 Q110.956 -45.589 107.959 -45.589 Q104.963 -45.589 102.884 -47.667 Z M12.201 -45.589 Q9.169 -45.589 7.09 -47.667 Q5.011 -49.746 5.011 -52.779 V-64.85 Q5.011 -71.296 9.473 -75.757 Q13.934 -80.219 20.38 -80.219 H32.521 Q35.581 -80.219 37.611 -78.176 Q39.641 -76.132 39.641 -73.135 Q39.641 -70.137 37.611 -68.024 Q35.581 -65.909 32.521 -65.909 H19.321 Q19.321 -65.909 19.321 -65.909 Q19.321 -65.909 19.321 -65.909 V-52.709 Q19.321 -49.649 17.241 -47.619 Q15.161 -45.589 12.201 -45.589 Z M20.38 9.759 Q13.934 9.759 9.473 5.298 Q5.011 0.836 5.011 -5.61 V-17.751 Q5.011 -20.811 7.09 -22.841 Q9.169 -24.871 12.166 -24.871 Q15.162 -24.871 17.241 -22.841 Q19.321 -20.811 19.321 -17.751 V-4.551 Q19.321 -4.551 19.321 -4.551 Q19.321 -4.551 19.321 -4.551 H32.521 Q35.581 -4.551 37.611 -2.471 Q39.641 -0.392 39.641 2.604 Q39.641 5.601 37.611 7.68 Q35.581 9.759 32.521 9.759 H20.38 Z M45.821 -16.735 V-53.725 Q45.821 -56.042 47.791 -57.139 Q49.761 -58.235 51.722 -57.094 L80.597 -38.475 Q82.31 -37.339 82.31 -35.232 Q82.31 -33.126 80.597 -31.985 L51.722 -13.366 Q49.761 -12.225 47.791 -13.321 Q45.821 -14.417 45.821 -16.735 Z M81.755 32.601 Q79.246 32.601 77.471 30.835 Q75.696 29.069 75.696 26.571 Q75.696 24.074 77.471 22.278 Q79.246 20.481 81.755 20.481 H112.222 Q114.733 20.481 116.507 22.263 Q118.282 24.044 118.282 26.561 Q118.282 29.08 116.507 30.84 Q114.733 32.601 112.222 32.601 H81.755 Z M90.875 -11.197 V-25.241 Q90.875 -27.751 92.641 -29.526 Q94.407 -31.301 96.905 -31.301 Q99.403 -31.301 101.199 -29.526 Q102.995 -27.751 102.995 -25.241 V-11.017 L105.897 -13.92 Q107.612 -15.654 110.125 -15.654 Q112.636 -15.654 114.364 -13.942 Q116.104 -12.217 116.104 -9.699 Q116.104 -7.181 114.37 -5.447 L99.664 9.205 Q98.529 10.346 96.965 10.346 Q95.403 10.346 94.261 9.205 L79.609 -5.447 Q77.864 -7.164 77.869 -9.675 Q77.875 -12.186 79.603 -13.914 Q81.343 -15.654 83.86 -15.654 Q86.376 -15.654 88.081 -13.92 L90.875 -11.197 Z"/></g><g id="Medium-M" transform="matrix(1 0 0 1 1689.91 1126)"><path d="M102.843 -47.667 Q100.845 -49.665 100.845 -52.534 V-65.95 Q100.845 -65.95 100.845 -65.95 Q100.845 -65.95 100.845 -65.95 H87.275 Q84.394 -65.95 82.418 -67.962 Q80.44 -69.975 80.44 -72.829 Q80.44 -75.684 82.438 -77.666 Q84.435 -79.649 87.304 -79.649 H100.396 Q106.297 -79.649 110.42 -75.525 Q114.544 -71.402 114.544 -65.501 V-52.505 Q114.544 -49.624 112.546 -47.647 Q110.549 -45.67 107.694 -45.67 Q104.84 -45.67 102.843 -47.667 Z M12.446 -45.67 Q9.576 -45.67 7.579 -47.667 Q5.581 -49.665 5.581 -52.534 V-65.501 Q5.581 -71.402 9.705 -75.525 Q13.828 -79.649 19.729 -79.649 H32.725 Q35.606 -79.649 37.583 -77.666 Q39.56 -75.684 39.56 -72.829 Q39.56 -69.975 37.583 -67.962 Q35.606 -65.95 32.725 -65.95 H19.28 Q19.28 -65.95 19.28 -65.95 Q19.28 -65.95 19.28 -65.95 V-52.505 Q19.28 -49.624 17.282 -47.647 Q15.285 -45.67 12.446 -45.67 Z M19.729 9.189 Q13.828 9.189 9.705 5.065 Q5.581 0.943 5.581 -4.959 V-17.955 Q5.581 -20.836 7.579 -22.812 Q9.576 -24.79 12.431 -24.79 Q15.285 -24.79 17.282 -22.812 Q19.28 -20.836 19.28 -17.955 V-4.51 Q19.28 -4.51 19.28 -4.51 Q19.28 -4.51 19.28 -4.51 H32.725 Q35.606 -4.51 37.583 -2.512 Q39.56 -0.515 39.56 2.339 Q39.56 5.194 37.583 7.191 Q35.606 9.189 32.725 9.189 H19.729 Z M45.78 -16.084 V-54.376 Q45.78 -56.511 47.587 -57.516 Q49.394 -58.521 51.234 -57.461 L81.046 -38.189 Q82.636 -37.131 82.636 -35.231 Q82.636 -33.33 81.046 -32.271 L51.234 -12.999 Q49.394 -11.939 47.587 -12.944 Q45.78 -13.949 45.78 -16.084 Z M80.166 35.006 Q77.517 35.006 75.649 33.141 Q73.78 31.276 73.78 28.633 Q73.78 25.99 75.649 24.113 Q77.517 22.235 80.166 22.235 H110.796 Q113.445 22.235 115.314 24.106 Q117.183 25.978 117.183 28.629 Q117.183 31.281 115.314 33.144 Q113.445 35.006 110.796 35.006 H80.166 Z M89 -11.36 V-24.874 Q89 -27.522 90.865 -29.391 Q92.73 -31.26 95.374 -31.26 Q98.016 -31.26 99.894 -29.391 Q101.771 -27.522 101.771 -24.874 V-11.14 L104.225 -13.594 Q106.034 -15.409 108.683 -15.409 Q111.331 -15.409 113.144 -13.604 Q114.963 -11.792 114.963 -9.14 Q114.963 -6.489 113.146 -4.672 L97.91 10.469 Q96.854 11.529 95.435 11.529 Q94.016 11.529 92.956 10.469 L77.815 -4.672 Q75.995 -6.481 75.998 -9.13 Q76 -11.779 77.812 -13.591 Q79.63 -15.409 82.281 -15.409 Q84.934 -15.409 86.736 -13.594 L89 -11.36 Z"/></g><g id="Regular-M" transform="matrix(1 0 0 1 1394.06 1126)"><path d="M102.812 -47.667 Q100.875 -49.605 100.875 -52.355 V-65.98 Q100.875 -65.98 100.875 -65.98 Q100.875 -65.98 100.875 -65.98 H87.125 Q84.375 -65.98 82.438 -67.917 Q80.5 -69.855 80.5 -72.605 Q80.5 -75.355 82.438 -77.292 Q84.375 -79.23 87.125 -79.23 H100.875 Q106.375 -79.23 110.25 -75.355 Q114.125 -71.48 114.125 -65.98 V-52.355 Q114.125 -49.605 112.188 -47.667 Q110.25 -45.73 107.5 -45.73 Q104.75 -45.73 102.812 -47.667 Z M12.625 -45.73 Q9.875 -45.73 7.938 -47.667 Q6 -49.605 6 -52.355 V-65.98 Q6 -71.48 9.875 -75.355 Q13.75 -79.23 19.25 -79.23 H32.875 Q35.625 -79.23 37.562 -77.292 Q39.5 -75.355 39.5 -72.605 Q39.5 -69.855 37.562 -67.917 Q35.625 -65.98 32.875 -65.98 H19.25 Q19.25 -65.98 19.25 -65.98 Q19.25 -65.98 19.25 -65.98 V-52.355 Q19.25 -49.605 17.312 -47.667 Q15.375 -45.73 12.625 -45.73 Z M19.25 8.77 Q13.75 8.77 9.875 4.895 Q6 1.02 6 -4.48 V-18.105 Q6 -20.855 7.938 -22.792 Q9.875 -24.73 12.625 -24.73 Q15.375 -24.73 17.312 -22.792 Q19.25 -20.855 19.25 -18.105 V-4.48 Q19.25 -4.48 19.25 -4.48 Q19.25 -4.48 19.25 -4.48 H32.875 Q35.625 -4.48 37.562 -2.542 Q39.5 -0.605 39.5 2.145 Q39.5 4.895 37.562 6.833 Q35.625 8.77 32.875 8.77 H19.25 Z M45.75 -15.605 V-54.855 Q45.75 -56.855 47.438 -57.792 Q49.125 -58.73 50.875 -57.73 L81.375 -37.98 Q82.875 -36.98 82.875 -35.23 Q82.875 -33.48 81.375 -32.48 L50.875 -12.73 Q49.125 -11.73 47.438 -12.667 Q45.75 -13.605 45.75 -15.605 Z M79 36.77 Q76.25 36.77 74.312 34.833 Q72.375 32.895 72.375 30.145 Q72.375 27.395 74.312 25.458 Q76.25 23.52 79 23.52 H109.75 Q112.5 23.52 114.438 25.458 Q116.375 27.395 116.375 30.145 Q116.375 32.895 114.438 34.833 Q112.5 36.77 109.75 36.77 H79 Z M87.625 -11.48 V-24.605 Q87.625 -27.355 89.562 -29.292 Q91.5 -31.23 94.25 -31.23 Q97 -31.23 98.938 -29.292 Q100.875 -27.355 100.875 -24.605 V-11.23 L103 -13.355 Q104.875 -15.23 107.625 -15.23 Q110.375 -15.23 112.25 -13.355 Q114.125 -11.48 114.125 -8.73 Q114.125 -5.98 112.25 -4.105 L96.625 11.395 Q95.625 12.395 94.312 12.395 Q93 12.395 92 11.395 L76.5 -4.105 Q74.625 -5.98 74.625 -8.73 Q74.625 -11.48 76.5 -13.355 Q78.375 -15.23 81.125 -15.23 Q83.875 -15.23 85.75 -13.355 L87.625 -11.48 Z"/></g><g id="Light-M" transform="matrix(1 0 0 1 1098.18 1126)"><path d="M102.453 -47.307 Q100.875 -48.884 100.875 -51.105 V-64.441 Q100.875 -65.019 100.394 -65.499 Q99.914 -65.98 99.336 -65.98 H85.875 Q83.654 -65.98 82.078 -67.557 Q80.5 -69.134 80.5 -71.355 Q80.5 -73.576 82.078 -75.152 Q83.654 -76.73 85.875 -76.73 H99.336 Q104.5 -76.73 108.062 -73.167 Q111.625 -69.605 111.625 -64.441 V-51.105 Q111.625 -48.884 110.047 -47.307 Q108.471 -45.73 106.25 -45.73 Q104.029 -45.73 102.453 -47.307 Z M13.875 -45.73 Q11.654 -45.73 10.078 -47.307 Q8.5 -48.884 8.5 -51.105 V-64.441 Q8.5 -69.605 12.062 -73.167 Q15.625 -76.73 20.789 -76.73 H34.125 Q36.346 -76.73 37.922 -75.152 Q39.5 -73.576 39.5 -71.355 Q39.5 -69.134 37.922 -67.557 Q36.346 -65.98 34.125 -65.98 H20.789 Q20.211 -65.98 19.731 -65.499 Q19.25 -65.019 19.25 -64.441 V-51.105 Q19.25 -48.884 17.672 -47.307 Q16.096 -45.73 13.875 -45.73 Z M20.789 6.27 Q15.625 6.27 12.062 2.708 Q8.5 -0.855 8.5 -6.019 V-19.355 Q8.5 -21.576 10.078 -23.152 Q11.654 -24.73 13.875 -24.73 Q16.096 -24.73 17.672 -23.152 Q19.25 -21.576 19.25 -19.355 V-6.019 Q19.25 -5.441 19.731 -4.961 Q20.211 -4.48 20.789 -4.48 H34.125 Q36.346 -4.48 37.922 -2.902 Q39.5 -1.326 39.5 0.895 Q39.5 3.116 37.922 4.693 Q36.346 6.27 34.125 6.27 H20.789 Z M47 -17.432 V-53.027 Q47 -54.884 48.544 -55.725 Q50.086 -56.566 51.74 -55.662 L79.355 -37.787 Q80.76 -36.836 80.76 -35.23 Q80.76 -33.624 79.355 -32.672 L51.74 -14.797 Q50.086 -13.894 48.544 -14.735 Q47 -15.576 47 -17.432 Z M79.674 35.568 Q77.453 35.568 75.875 33.991 Q74.299 32.414 74.299 30.193 Q74.299 27.973 75.875 26.395 Q77.453 24.819 79.674 24.819 H110.424 Q112.644 24.819 114.221 26.395 Q115.797 27.973 115.797 30.193 Q115.797 32.414 114.221 33.991 Q112.644 35.568 110.424 35.568 H79.674 Z M89.549 -7.249 V-23.451 Q89.549 -25.672 91.125 -27.249 Q92.703 -28.826 94.924 -28.826 Q97.144 -28.826 98.721 -27.249 Q100.297 -25.672 100.297 -23.451 V-6.999 L104.539 -11.287 Q106.078 -12.826 108.299 -12.85 Q110.519 -12.874 112.058 -11.335 Q113.644 -9.749 113.644 -7.576 Q113.644 -5.402 112.058 -3.816 L97.154 10.963 Q96.203 11.914 94.986 11.914 Q93.769 11.914 92.817 10.963 L78.039 -3.816 Q76.5 -5.355 76.5 -7.576 Q76.5 -9.797 78.039 -11.335 Q79.625 -12.922 81.823 -12.897 Q84.019 -12.874 85.558 -11.287 L89.549 -7.249 Z"/></g><g id="Thin-M" transform="matrix(1 0 0 1 802.565 1126)"><path d="M102.091 -46.946 Q100.875 -48.162 100.875 -49.855 V-62.902 Q100.875 -64.057 99.914 -65.019 Q98.953 -65.98 97.797 -65.98 H84.625 Q82.933 -65.98 81.716 -67.196 Q80.5 -68.412 80.5 -70.105 Q80.5 -71.797 81.716 -73.014 Q82.933 -74.23 84.625 -74.23 H97.797 Q102.625 -74.23 105.875 -70.98 Q109.125 -67.73 109.125 -62.902 V-49.855 Q109.125 -48.162 107.909 -46.946 Q106.692 -45.73 105 -45.73 Q103.308 -45.73 102.091 -46.946 Z M15.125 -45.73 Q13.432 -45.73 12.216 -46.946 Q11 -48.162 11 -49.855 V-62.902 Q11 -67.73 14.25 -70.98 Q17.5 -74.23 22.328 -74.23 H35.375 Q37.068 -74.23 38.284 -73.014 Q39.5 -71.797 39.5 -70.105 Q39.5 -68.412 38.284 -67.196 Q37.068 -65.98 35.375 -65.98 H22.328 Q21.172 -65.98 20.211 -65.019 Q19.25 -64.057 19.25 -62.902 V-49.855 Q19.25 -48.162 18.034 -46.946 Q16.817 -45.73 15.125 -45.73 Z M22.328 3.77 Q17.5 3.77 14.25 0.52 Q11 -2.73 11 -7.557 V-20.605 Q11 -22.297 12.216 -23.514 Q13.432 -24.73 15.125 -24.73 Q16.817 -24.73 18.034 -23.514 Q19.25 -22.297 19.25 -20.605 V-7.557 Q19.25 -6.402 20.211 -5.441 Q21.172 -4.48 22.328 -4.48 H35.375 Q37.068 -4.48 38.284 -3.264 Q39.5 -2.047 39.5 -0.355 Q39.5 1.338 38.284 2.554 Q37.068 3.77 35.375 3.77 H22.328 Z M48.25 -19.259 V-51.201 Q48.25 -52.912 49.649 -53.657 Q51.047 -54.402 52.606 -53.595 L77.336 -37.595 Q78.644 -36.691 78.644 -35.23 Q78.644 -33.769 77.336 -32.865 L52.606 -16.865 Q51.047 -16.057 49.649 -16.802 Q48.25 -17.547 48.25 -19.259 Z M80.346 34.366 Q78.654 34.366 77.438 33.15 Q76.221 31.934 76.221 30.241 Q76.221 28.549 77.438 27.333 Q78.654 26.116 80.346 26.116 H111.096 Q112.789 26.116 114.005 27.333 Q115.221 28.549 115.221 30.241 Q115.221 31.934 114.005 33.15 Q112.789 34.366 111.096 34.366 H80.346 Z M91.471 -3.019 V-22.297 Q91.471 -23.99 92.688 -25.206 Q93.904 -26.422 95.596 -26.422 Q97.289 -26.422 98.505 -25.206 Q99.721 -23.99 99.721 -22.297 V-2.769 L106.078 -9.22 Q107.279 -10.422 108.971 -10.47 Q110.664 -10.519 111.865 -9.316 Q113.164 -8.019 113.164 -6.422 Q113.164 -4.826 111.865 -3.527 L97.683 10.53 Q96.779 11.434 95.659 11.434 Q94.539 11.434 93.635 10.53 L79.578 -3.527 Q78.375 -4.73 78.375 -6.422 Q78.375 -8.115 79.578 -9.316 Q80.875 -10.615 82.519 -10.566 Q84.164 -10.519 85.365 -9.22 L91.471 -3.019 Z"/></g><g id="Ultralight-M" transform="matrix(1 0 0 1 506.415 1126)"><path d="M101.875 -46.73 Q100.875 -47.73 100.875 -49.105 V-61.98 Q100.875 -63.48 99.625 -64.73 Q98.375 -65.98 96.875 -65.98 H83.875 Q82.5 -65.98 81.5 -66.98 Q80.5 -67.98 80.5 -69.355 Q80.5 -70.73 81.5 -71.73 Q82.5 -72.73 83.875 -72.73 H96.875 Q101.5 -72.73 104.562 -69.667 Q107.625 -66.605 107.625 -61.98 V-49.105 Q107.625 -47.73 106.625 -46.73 Q105.625 -45.73 104.25 -45.73 Q102.875 -45.73 101.875 -46.73 Z M15.875 -45.73 Q14.5 -45.73 13.5 -46.73 Q12.5 -47.73 12.5 -49.105 V-61.98 Q12.5 -66.605 15.562 -69.667 Q18.625 -72.73 23.25 -72.73 H36.125 Q37.5 -72.73 38.5 -71.73 Q39.5 -70.73 39.5 -69.355 Q39.5 -67.98 38.5 -66.98 Q37.5 -65.98 36.125 -65.98 H23.25 Q21.75 -65.98 20.5 -64.73 Q19.25 -63.48 19.25 -61.98 V-49.105 Q19.25 -47.73 18.25 -46.73 Q17.25 -45.73 15.875 -45.73 Z M23.25 2.27 Q18.625 2.27 15.562 -0.792 Q12.5 -3.855 12.5 -8.48 V-21.355 Q12.5 -22.73 13.5 -23.73 Q14.5 -24.73 15.875 -24.73 Q17.25 -24.73 18.25 -23.73 Q19.25 -22.73 19.25 -21.355 V-8.48 Q19.25 -6.98 20.5 -5.73 Q21.75 -4.48 23.25 -4.48 H36.125 Q37.5 -4.48 38.5 -3.48 Q39.5 -2.48 39.5 -1.105 Q39.5 0.27 38.5 1.27 Q37.5 2.27 36.125 2.27 H23.25 Z M49 -20.355 V-50.105 Q49 -51.73 50.312 -52.417 Q51.625 -53.105 53.125 -52.355 L76.125 -37.48 Q77.375 -36.605 77.375 -35.23 Q77.375 -33.855 76.125 -32.98 L53.125 -18.105 Q51.625 -17.355 50.312 -18.042 Q49 -18.73 49 -20.355 Z M80.75 33.645 Q79.375 33.645 78.375 32.645 Q77.375 31.645 77.375 30.27 Q77.375 28.895 78.375 27.895 Q79.375 26.895 80.75 26.895 H111.5 Q112.875 26.895 113.875 27.895 Q114.875 28.895 114.875 30.27 Q114.875 31.645 113.875 32.645 Q112.875 33.645 111.5 33.645 H80.75 Z M92.625 -0.48 V-21.605 Q92.625 -22.98 93.625 -23.98 Q94.625 -24.98 96 -24.98 Q97.375 -24.98 98.375 -23.98 Q99.375 -22.98 99.375 -21.605 V-0.23 L107 -7.98 Q108 -8.98 109.375 -9.042 Q110.75 -9.105 111.75 -8.105 Q112.875 -6.98 112.875 -5.73 Q112.875 -4.48 111.75 -3.355 L98 10.27 Q97.125 11.145 96.062 11.145 Q95 11.145 94.125 10.27 L80.5 -3.355 Q79.5 -4.355 79.5 -5.73 Q79.5 -7.105 80.5 -8.105 Q81.625 -9.23 82.938 -9.167 Q84.25 -9.105 85.25 -7.98 L92.625 -0.48 Z"/></g><g id="Bold-S" transform="matrix(1 0 0 1 2294.23 696)"><path d="M80.343 -44.141 Q78.727 -45.753 78.727 -48.15 V-57.026 Q78.727 -57.026 78.727 -57.026 Q78.727 -57.026 78.727 -57.026 H69.629 Q67.196 -57.026 65.651 -58.682 Q64.106 -60.338 64.106 -62.676 Q64.106 -65.015 65.721 -66.593 Q67.335 -68.171 69.734 -68.171 H77.248 Q82.589 -68.171 86.218 -64.53 Q89.847 -60.888 89.847 -55.558 V-48.079 Q89.847 -45.648 88.241 -44.088 Q86.634 -42.528 84.296 -42.528 Q81.957 -42.528 80.343 -44.141 Z M10.574 -42.528 Q8.186 -42.528 6.559 -44.143 Q4.931 -45.757 4.931 -48.156 V-55.571 Q4.931 -60.912 8.572 -64.541 Q12.214 -68.171 17.544 -68.171 H25.023 Q27.455 -68.171 29.014 -66.613 Q30.574 -65.056 30.574 -62.718 Q30.574 -60.379 29.029 -58.716 Q27.484 -57.051 25.051 -57.051 H16.076 Q16.076 -57.051 16.076 -57.051 Q16.076 -57.051 16.076 -57.051 V-48.051 Q16.076 -45.618 14.468 -44.073 Q12.861 -42.528 10.574 -42.528 Z M17.531 -2.289 Q12.19 -2.289 8.561 -5.933 Q4.931 -9.578 4.931 -14.913 V-22.557 Q4.931 -25.011 6.538 -26.57 Q8.144 -28.129 10.483 -28.129 Q12.821 -28.129 14.449 -26.57 Q16.076 -25.011 16.076 -22.557 V-13.434 Q16.076 -13.434 16.076 -13.434 Q16.076 -13.434 16.076 -13.434 H25.051 Q27.484 -13.434 29.029 -11.827 Q30.574 -10.221 30.574 -7.882 Q30.574 -5.544 29.027 -3.917 Q27.481 -2.289 25.045 -2.289 H17.531 Z M36.59 -22.113 V-48.316 Q36.59 -50.27 38.217 -51.133 Q39.845 -51.996 41.422 -51.109 L62.134 -37.893 Q63.515 -36.977 63.515 -35.216 Q63.515 -33.455 62.134 -32.567 L41.422 -19.351 Q39.845 -18.464 38.217 -19.351 Q36.59 -20.239 36.59 -22.113 Z M68.177 15.858 Q66.513 15.858 65.309 14.687 Q64.106 13.516 64.106 11.876 Q64.106 10.236 65.294 9.003 Q66.481 7.771 68.146 7.771 H89.623 Q91.287 7.771 92.491 8.961 Q93.694 10.151 93.694 11.821 Q93.694 13.491 92.506 14.674 Q91.319 15.858 89.654 15.858 H68.177 Z M74.856 -14.519 V-24.959 Q74.856 -26.632 76.027 -27.824 Q77.198 -29.017 78.838 -29.017 Q80.478 -29.017 81.711 -27.824 Q82.944 -26.632 82.944 -24.959 V-14.42 L85.311 -16.886 Q86.568 -18.168 88.208 -18.119 Q89.847 -18.069 91.022 -16.917 Q92.313 -15.647 92.313 -14.097 Q92.313 -12.546 91.031 -11.264 L81.168 -1.402 Q80.29 -0.514 78.905 -0.514 Q77.519 -0.514 76.632 -1.402 L66.769 -11.264 Q65.47 -12.522 65.528 -14.112 Q65.586 -15.702 66.76 -16.877 Q68.051 -18.168 69.698 -18.119 Q71.345 -18.069 72.489 -16.787 L74.856 -14.519 Z"/></g><g id="Semibold-S" transform="matrix(1 0 0 1 1998.1 696)"><path d="M80.299 -44.141 Q78.771 -45.667 78.771 -47.892 V-57.069 Q78.771 -57.069 78.771 -57.069 Q78.771 -57.069 78.771 -57.069 H69.415 Q67.169 -57.069 65.68 -58.618 Q64.192 -60.166 64.192 -62.355 Q64.192 -64.543 65.721 -66.057 Q67.249 -67.57 69.476 -67.57 H77.933 Q82.7 -67.57 85.973 -64.285 Q89.247 -61.001 89.247 -56.244 V-47.864 Q89.247 -45.62 87.726 -44.117 Q86.205 -42.614 84.017 -42.614 Q81.829 -42.614 80.299 -44.141 Z M10.831 -42.614 Q8.615 -42.614 7.073 -44.143 Q5.532 -45.671 5.532 -47.898 V-56.257 Q5.532 -61.023 8.817 -64.297 Q12.101 -67.57 16.858 -67.57 H25.238 Q27.482 -67.57 28.985 -66.078 Q30.488 -64.585 30.488 -62.396 Q30.488 -60.208 29 -58.65 Q27.511 -57.094 25.265 -57.094 H16.033 Q16.033 -57.094 16.033 -57.094 Q16.033 -57.094 16.033 -57.094 V-47.837 Q16.033 -45.591 14.512 -44.102 Q12.99 -42.614 10.831 -42.614 Z M16.845 -2.89 Q12.079 -2.89 8.805 -6.178 Q5.532 -9.466 5.532 -14.227 V-22.771 Q5.532 -25.038 7.053 -26.54 Q8.573 -28.043 10.762 -28.043 Q12.949 -28.043 14.491 -26.54 Q16.033 -25.038 16.033 -22.771 V-13.391 Q16.033 -13.391 16.033 -13.391 Q16.033 -13.391 16.033 -13.391 H25.265 Q27.511 -13.391 29 -11.871 Q30.488 -10.35 30.488 -8.161 Q30.488 -5.973 28.998 -4.431 Q27.507 -2.89 25.259 -2.89 H16.845 Z M36.547 -21.426 V-49.002 Q36.547 -50.763 38.003 -51.53 Q39.459 -52.296 40.908 -51.494 L62.605 -37.593 Q63.858 -36.76 63.858 -35.214 Q63.858 -33.669 62.605 -32.867 L40.908 -18.966 Q39.459 -18.164 38.003 -18.955 Q36.547 -19.746 36.547 -21.426 Z M66.506 18.387 Q64.695 18.387 63.393 17.113 Q62.091 15.839 62.091 14.045 Q62.091 12.251 63.376 10.932 Q64.662 9.614 66.473 9.614 H88.121 Q89.932 9.614 91.234 10.9 Q92.536 12.185 92.536 13.996 Q92.536 15.806 91.25 17.096 Q89.965 18.387 88.153 18.387 H66.506 Z M72.884 -14.69 V-24.573 Q72.884 -26.391 74.158 -27.682 Q75.432 -28.974 77.226 -28.974 Q79.02 -28.974 80.339 -27.682 Q81.658 -26.391 81.658 -24.573 V-14.548 L83.553 -16.543 Q84.906 -17.91 86.691 -17.861 Q88.476 -17.812 89.74 -16.56 Q91.113 -15.199 91.113 -13.508 Q91.113 -11.817 89.745 -10.449 L79.325 -0.072 Q78.528 0.73 77.294 0.73 Q76.062 0.73 75.26 -0.072 L64.882 -10.449 Q63.506 -11.804 63.559 -13.538 Q63.613 -15.273 64.877 -16.538 Q66.25 -17.91 68.039 -17.861 Q69.827 -17.812 71.074 -16.444 L72.884 -14.69 Z"/></g><g id="Medium-S" transform="matrix(1 0 0 1 1701.85 696)"><path d="M80.267 -44.141 Q78.802 -45.603 78.802 -47.699 V-57.101 Q78.802 -57.101 78.802 -57.101 Q78.802 -57.101 78.802 -57.101 H69.254 Q67.149 -57.101 65.703 -58.57 Q64.256 -60.038 64.256 -62.113 Q64.256 -64.189 65.721 -65.655 Q67.184 -67.12 69.284 -67.12 H78.448 Q82.784 -67.12 85.79 -64.102 Q88.797 -61.084 88.797 -56.758 V-47.703 Q88.797 -45.6 87.34 -44.14 Q85.884 -42.678 83.808 -42.678 Q81.733 -42.678 80.267 -44.141 Z M11.024 -42.678 Q8.936 -42.678 7.459 -44.143 Q5.982 -45.606 5.982 -47.706 V-56.772 Q5.982 -61.107 9 -64.113 Q12.018 -67.12 16.344 -67.12 H25.399 Q27.502 -67.12 28.962 -65.676 Q30.424 -64.231 30.424 -62.155 Q30.424 -60.08 28.977 -58.602 Q27.531 -57.126 25.426 -57.126 H16.001 Q16.001 -57.126 16.001 -57.126 Q16.001 -57.126 16.001 -57.126 V-47.676 Q16.001 -45.571 14.544 -44.125 Q13.088 -42.678 11.024 -42.678 Z M16.33 -3.34 Q11.995 -3.34 8.989 -6.361 Q5.982 -9.382 5.982 -13.713 V-22.931 Q5.982 -25.058 7.438 -26.518 Q8.895 -27.979 10.971 -27.979 Q13.046 -27.979 14.524 -26.518 Q16.001 -25.058 16.001 -22.931 V-13.359 Q16.001 -13.359 16.001 -13.359 Q16.001 -13.359 16.001 -13.359 H25.426 Q27.531 -13.359 28.977 -11.902 Q30.424 -10.446 30.424 -8.37 Q30.424 -6.294 28.976 -4.817 Q27.527 -3.34 25.42 -3.34 H16.33 Z M36.515 -20.913 V-49.517 Q36.515 -51.133 37.842 -51.828 Q39.169 -52.522 40.522 -51.784 L62.959 -37.367 Q64.115 -36.597 64.115 -35.213 Q64.115 -33.83 62.959 -33.093 L40.522 -18.676 Q39.169 -17.938 37.842 -18.657 Q36.515 -19.376 36.515 -20.913 Z M65.251 20.285 Q63.331 20.285 61.955 18.933 Q60.579 17.581 60.579 15.672 Q60.579 13.763 61.939 12.38 Q63.299 10.998 65.22 10.998 H86.996 Q88.916 10.998 90.292 12.355 Q91.668 13.711 91.668 15.627 Q91.668 17.543 90.308 18.914 Q88.948 20.285 87.028 20.285 H65.251 Z M71.404 -14.819 V-24.284 Q71.404 -26.212 72.757 -27.577 Q74.109 -28.942 76.018 -28.942 Q77.927 -28.942 79.309 -27.577 Q80.692 -26.212 80.692 -24.284 V-14.645 L82.234 -16.285 Q83.661 -17.717 85.553 -17.668 Q87.446 -17.619 88.777 -16.293 Q90.212 -14.864 90.212 -13.067 Q90.212 -11.271 88.779 -9.838 L77.941 0.925 Q77.207 1.663 76.087 1.663 Q74.968 1.663 74.23 0.925 L63.467 -9.838 Q62.031 -11.265 62.082 -13.108 Q62.134 -14.952 63.465 -16.283 Q64.899 -17.717 66.794 -17.668 Q68.689 -17.619 70.013 -16.186 L71.404 -14.819 Z"/></g><g id="Regular-S" transform="matrix(1 0 0 1 1405.73 696)"><path d="M80.244 -44.141 Q78.826 -45.556 78.826 -47.558 V-57.125 Q78.826 -57.125 78.826 -57.125 Q78.826 -57.125 78.826 -57.125 H69.136 Q67.134 -57.125 65.719 -58.534 Q64.303 -59.943 64.303 -61.937 Q64.303 -63.93 65.721 -65.36 Q67.138 -66.79 69.142 -66.79 H78.826 Q82.845 -66.79 85.656 -63.967 Q88.467 -61.145 88.467 -57.136 V-47.586 Q88.467 -45.586 87.057 -44.156 Q85.648 -42.725 83.655 -42.725 Q81.662 -42.725 80.244 -44.141 Z M11.165 -42.725 Q9.172 -42.725 7.742 -44.143 Q6.312 -45.56 6.312 -47.564 V-57.149 Q6.312 -61.168 9.135 -63.979 Q11.957 -66.79 15.966 -66.79 H25.516 Q27.516 -66.79 28.946 -65.381 Q30.377 -63.971 30.377 -61.978 Q30.377 -59.985 28.961 -58.568 Q27.546 -57.149 25.544 -57.149 H15.977 Q15.977 -57.149 15.977 -57.149 Q15.977 -57.149 15.977 -57.149 V-47.558 Q15.977 -45.556 14.568 -44.141 Q13.159 -42.725 11.165 -42.725 Z M15.953 -3.67 Q11.934 -3.67 9.123 -6.496 Q6.312 -9.321 6.312 -13.335 V-23.05 Q6.312 -25.073 7.721 -26.503 Q9.131 -27.932 11.124 -27.932 Q13.117 -27.932 14.547 -26.503 Q15.977 -25.073 15.977 -23.05 V-13.335 Q15.977 -13.335 15.977 -13.335 Q15.977 -13.335 15.977 -13.335 H25.544 Q27.546 -13.335 28.961 -11.926 Q30.377 -10.517 30.377 -8.523 Q30.377 -6.53 28.959 -5.1 Q27.542 -3.67 25.538 -3.67 H15.953 Z M36.491 -20.535 V-49.894 Q36.491 -51.404 37.724 -52.046 Q38.957 -52.687 40.239 -51.996 L63.219 -37.202 Q64.303 -36.477 64.303 -35.212 Q64.303 -33.948 63.219 -33.257 L40.239 -18.464 Q38.957 -17.773 37.724 -18.439 Q36.491 -19.105 36.491 -20.535 Z M64.331 21.677 Q62.331 21.677 60.901 20.267 Q59.471 18.858 59.471 16.865 Q59.471 14.872 60.885 13.441 Q62.299 12.011 64.3 12.011 H86.171 Q88.171 12.011 89.601 13.421 Q91.031 14.83 91.031 16.823 Q91.031 18.817 89.617 20.247 Q88.202 21.677 86.202 21.677 H64.331 Z M70.32 -14.913 V-24.072 Q70.32 -26.08 71.729 -27.499 Q73.138 -28.918 75.132 -28.918 Q77.125 -28.918 78.555 -27.499 Q79.985 -26.08 79.985 -24.072 V-14.716 L81.267 -16.097 Q82.746 -17.576 84.719 -17.527 Q86.691 -17.477 88.072 -16.097 Q89.552 -14.617 89.552 -12.743 Q89.552 -10.87 88.072 -9.39 L76.928 1.656 Q76.237 2.346 75.202 2.346 Q74.166 2.346 73.476 1.656 L62.43 -9.39 Q60.95 -10.87 61 -12.793 Q61.049 -14.716 62.43 -16.097 Q63.909 -17.576 65.882 -17.527 Q67.854 -17.477 69.235 -15.998 L70.32 -14.913 Z"/></g><g id="Light-S" transform="matrix(1 0 0 1 1109.75 696)"><path d="M79.959 -43.857 Q78.826 -44.987 78.826 -46.572 V-55.911 Q78.826 -56.366 78.447 -56.745 Q78.068 -57.125 77.612 -57.125 H68.15 Q66.565 -57.125 65.435 -58.249 Q64.303 -59.374 64.303 -60.95 Q64.303 -62.526 65.436 -63.671 Q66.569 -64.817 68.156 -64.817 H77.612 Q81.366 -64.817 83.93 -62.241 Q86.494 -59.665 86.494 -55.922 V-46.599 Q86.494 -45.017 85.369 -43.872 Q84.244 -42.725 82.668 -42.725 Q81.092 -42.725 79.959 -43.857 Z M12.152 -42.725 Q10.576 -42.725 9.431 -43.858 Q8.284 -44.991 8.284 -46.578 V-55.935 Q8.284 -59.689 10.861 -62.253 Q13.437 -64.817 17.18 -64.817 H26.503 Q28.085 -64.817 29.23 -63.692 Q30.377 -62.568 30.377 -60.992 Q30.377 -59.416 29.245 -58.283 Q28.115 -57.149 26.53 -57.149 H17.191 Q16.736 -57.149 16.357 -56.771 Q15.977 -56.391 15.977 -55.935 V-46.572 Q15.977 -44.987 14.853 -43.857 Q13.728 -42.725 12.152 -42.725 Z M17.167 -5.642 Q13.413 -5.642 10.849 -8.222 Q8.284 -10.801 8.284 -14.549 V-24.036 Q8.284 -25.642 9.41 -26.787 Q10.534 -27.932 12.11 -27.932 Q13.686 -27.932 14.831 -26.787 Q15.977 -25.642 15.977 -24.036 V-14.549 Q15.977 -14.094 16.357 -13.715 Q16.736 -13.335 17.191 -13.335 H26.53 Q28.115 -13.335 29.245 -12.211 Q30.377 -11.086 30.377 -9.51 Q30.377 -7.934 29.244 -6.789 Q28.111 -5.642 26.524 -5.642 H17.167 Z M37.477 -21.977 V-48.453 Q37.477 -49.849 38.597 -50.414 Q39.715 -50.979 40.921 -50.365 L61.625 -37.051 Q62.635 -36.363 62.635 -35.212 Q62.635 -34.061 61.625 -33.409 L40.921 -20.095 Q39.715 -19.481 38.597 -20.07 Q37.477 -20.66 37.477 -21.977 Z M64.863 20.728 Q63.28 20.728 62.134 19.604 Q60.989 18.478 60.989 16.903 Q60.989 15.327 62.118 14.181 Q63.247 13.036 64.83 13.036 H86.701 Q88.284 13.036 89.43 14.16 Q90.575 15.285 90.575 16.861 Q90.575 18.437 89.446 19.583 Q88.317 20.728 86.734 20.728 H64.863 Z M71.837 -11.575 V-23.16 Q71.837 -24.751 72.962 -25.886 Q74.087 -27.021 75.662 -27.021 Q77.238 -27.021 78.384 -25.886 Q79.529 -24.751 79.529 -23.16 V-11.378 L82.481 -14.465 Q83.695 -15.68 85.25 -15.649 Q86.805 -15.618 87.92 -14.503 Q89.172 -13.251 89.172 -11.833 Q89.172 -10.414 87.92 -9.162 L77.345 1.315 Q76.693 1.966 75.733 1.966 Q74.773 1.966 74.121 1.315 L63.644 -9.162 Q62.43 -10.376 62.479 -11.883 Q62.528 -13.389 63.644 -14.503 Q64.895 -15.756 66.432 -15.686 Q67.967 -15.618 69.083 -14.367 L71.837 -11.575 Z"/></g><g id="Thin-S" transform="matrix(1 0 0 1 814.015 696)"><path d="M79.675 -43.572 Q78.826 -44.418 78.826 -45.586 V-54.697 Q78.826 -55.608 78.068 -56.366 Q77.309 -57.125 76.399 -57.125 H67.164 Q65.996 -57.125 65.15 -57.965 Q64.303 -58.805 64.303 -59.964 Q64.303 -61.123 65.152 -61.984 Q66 -62.845 67.17 -62.845 H76.398 Q79.886 -62.845 82.204 -60.515 Q84.522 -58.187 84.522 -54.708 V-45.613 Q84.522 -44.447 83.681 -43.586 Q82.841 -42.725 81.682 -42.725 Q80.523 -42.725 79.675 -43.572 Z M13.138 -42.725 Q11.979 -42.725 11.118 -43.574 Q10.257 -44.422 10.257 -45.592 V-54.721 Q10.257 -58.21 12.587 -60.527 Q14.915 -62.845 18.394 -62.845 H27.489 Q28.655 -62.845 29.516 -62.005 Q30.377 -61.164 30.377 -60.006 Q30.377 -58.847 29.53 -57.999 Q28.684 -57.149 27.516 -57.149 H18.405 Q17.494 -57.149 16.736 -56.391 Q15.977 -55.633 15.977 -54.722 V-45.586 Q15.977 -44.418 15.137 -43.572 Q14.297 -42.725 13.138 -42.725 Z M18.381 -7.615 Q14.892 -7.615 12.575 -9.947 Q10.257 -12.28 10.257 -15.763 V-25.022 Q10.257 -26.211 11.097 -27.072 Q11.938 -27.932 13.096 -27.932 Q14.255 -27.932 15.116 -27.072 Q15.977 -26.211 15.977 -25.022 V-15.763 Q15.977 -14.852 16.736 -14.094 Q17.494 -13.335 18.405 -13.335 H27.516 Q28.684 -13.335 29.53 -12.495 Q30.377 -11.655 30.377 -10.496 Q30.377 -9.337 29.528 -8.476 Q28.68 -7.615 27.51 -7.615 H18.381 Z M38.464 -23.418 V-47.011 Q38.464 -48.294 39.469 -48.783 Q40.474 -49.272 41.605 -48.734 L60.032 -36.899 Q60.965 -36.25 60.965 -35.212 Q60.965 -34.176 60.032 -33.561 L41.605 -21.726 Q40.474 -21.188 39.469 -21.702 Q38.464 -22.215 38.464 -23.418 Z M65.393 19.78 Q64.228 19.78 63.367 18.94 Q62.506 18.099 62.506 16.941 Q62.506 15.782 63.351 14.921 Q64.196 14.06 65.362 14.06 H87.233 Q88.399 14.06 89.26 14.9 Q90.121 15.74 90.121 16.899 Q90.121 18.058 89.275 18.919 Q88.43 19.78 87.264 19.78 H65.393 Z M73.354 -8.237 V-22.25 Q73.354 -23.424 74.195 -24.275 Q75.035 -25.125 76.194 -25.125 Q77.353 -25.125 78.214 -24.275 Q79.075 -23.424 79.075 -22.25 V-8.04 L83.695 -12.834 Q84.643 -13.783 85.781 -13.771 Q86.919 -13.76 87.768 -12.91 Q88.793 -11.886 88.793 -10.923 Q88.793 -9.959 87.768 -8.935 L77.762 0.973 Q77.147 1.588 76.264 1.588 Q75.38 1.588 74.766 0.973 L64.858 -8.935 Q63.909 -9.883 63.958 -10.972 Q64.008 -12.061 64.858 -12.91 Q65.882 -13.935 66.981 -13.847 Q68.082 -13.76 68.931 -12.736 L73.354 -8.237 Z"/></g><g id="Ultralight-S" transform="matrix(1 0 0 1 517.792 696)"><path d="M79.505 -43.401 Q78.826 -44.077 78.826 -44.994 V-53.969 Q78.826 -55.152 77.84 -56.138 Q76.854 -57.125 75.67 -57.125 H66.572 Q65.655 -57.125 64.979 -57.794 Q64.303 -58.464 64.303 -59.372 Q64.303 -60.281 64.981 -60.971 Q65.659 -61.661 66.578 -61.661 H75.67 Q78.999 -61.661 81.168 -59.48 Q83.338 -57.298 83.338 -53.98 V-45.021 Q83.338 -44.106 82.668 -43.416 Q81.999 -42.725 81.09 -42.725 Q80.182 -42.725 79.505 -43.401 Z M13.73 -42.725 Q12.821 -42.725 12.131 -43.403 Q11.441 -44.081 11.441 -45 V-53.993 Q11.441 -57.322 13.622 -59.492 Q15.804 -61.661 19.122 -61.661 H28.081 Q28.996 -61.661 29.686 -60.992 Q30.377 -60.322 30.377 -59.414 Q30.377 -58.505 29.701 -57.828 Q29.025 -57.149 28.108 -57.149 H19.133 Q17.95 -57.149 16.963 -56.163 Q15.977 -55.177 15.977 -53.993 V-44.994 Q15.977 -44.077 15.308 -43.401 Q14.638 -42.725 13.73 -42.725 Z M19.109 -8.798 Q15.78 -8.798 13.61 -10.983 Q11.441 -13.168 11.441 -16.491 V-25.614 Q11.441 -26.552 12.11 -27.242 Q12.78 -27.932 13.688 -27.932 Q14.597 -27.932 15.287 -27.242 Q15.977 -26.552 15.977 -25.614 V-16.491 Q15.977 -15.308 16.963 -14.321 Q17.95 -13.335 19.133 -13.335 H28.108 Q29.025 -13.335 29.701 -12.666 Q30.377 -11.996 30.377 -11.088 Q30.377 -10.179 29.699 -9.489 Q29.021 -8.798 28.102 -8.798 H19.109 Z M39.056 -24.283 V-46.146 Q39.056 -47.361 39.992 -47.805 Q40.929 -48.248 42.014 -47.755 L59.076 -36.808 Q59.964 -36.181 59.964 -35.212 Q59.964 -34.244 59.076 -33.652 L42.014 -22.705 Q40.929 -22.211 39.992 -22.68 Q39.056 -23.148 39.056 -24.283 Z M65.712 19.211 Q64.797 19.211 64.106 18.541 Q63.416 17.872 63.416 16.963 Q63.416 16.055 64.09 15.365 Q64.765 14.674 65.68 14.674 H87.551 Q88.467 14.674 89.157 15.344 Q89.847 16.014 89.847 16.922 Q89.847 17.83 89.173 18.521 Q88.498 19.211 87.583 19.211 H65.712 Z M74.265 -6.234 V-21.705 Q74.265 -22.628 74.934 -23.307 Q75.604 -23.987 76.512 -23.987 Q77.421 -23.987 78.111 -23.307 Q78.801 -22.628 78.801 -21.705 V-6.037 L84.423 -11.856 Q85.212 -12.645 86.1 -12.645 Q86.987 -12.645 87.678 -11.954 Q88.565 -11.067 88.565 -10.376 Q88.565 -9.686 87.678 -8.798 L78.012 0.768 Q77.421 1.36 76.582 1.36 Q75.744 1.36 75.152 0.768 L65.586 -8.798 Q64.797 -9.587 64.846 -10.426 Q64.895 -11.264 65.586 -11.954 Q66.473 -12.842 67.312 -12.743 Q68.15 -12.645 68.84 -11.757 L74.265 -6.234 Z"/></g></g></svg>