<svg xmlns="http://www.w3.org/2000/svg" version="1.1" width="3300" height="2000"><g id="Notes"><style>
    text {
      font-family: monospace;
      text-anchor: middle;
    }
    text.emphasis {
      font-weight:bold;
    }
    text.lanchor {
      text-anchor: start;
    }
  </style><rect height="2200" id="artboard" fill="white" width="3300" x="0" y="0"/><line id="" style="fill:none;stroke:black;stroke-width:0.5;" x1="263" x2="3036" y1="292" y2="292"/><text class="lanchor emphasis" transform="matrix(1 0 0 1 263 322)">Weight/Scale Variations</text><text transform="matrix(1 0 0 1 559.711 322)">Ultralight</text><text transform="matrix(1 0 0 1 856.422 322)">Thin</text><text transform="matrix(1 0 0 1 1153.13 322)">Light</text><text transform="matrix(1 0 0 1 1449.84 322)">Regular</text><text transform="matrix(1 0 0 1 1746.56 322)">Medium</text><text transform="matrix(1 0 0 1 2043.27 322)">Semibold</text><text transform="matrix(1 0 0 1 2339.98 322)">Bold</text><text transform="matrix(1 0 0 1 2636.69 322)">Heavy</text><text transform="matrix(1 0 0 1 2933.4 322)">Black</text><text id="template-version" style="text-anchor: end;" transform="matrix(1 0 0 1 3036 1933)">Template v.1.0</text><text class="lanchor" transform="matrix(1 0 0 1 263 726)">Small</text><text class="lanchor" transform="matrix(1 0 0 1 263 1156)">Medium</text><text class="lanchor" transform="matrix(1 0 0 1 263 1586)">Large</text></g><g id="Guides"><g id="H-reference" style="fill:#27AAE1;stroke:none;" transform="matrix(1 0 0 1 339 696)"><path d="M 54.9316 0 L 57.666 0 L 30.5664 -70.459 L 28.0762 -70.459 L 0.976562 0 L 3.66211 0 L 12.9395 -24.4629 L 45.7031 -24.4629 Z M 29.1992 -67.0898 L 29.4434 -67.0898 L 44.8242 -26.709 L 13.8184 -26.709 Z"/></g><line id="Baseline-S" style="fill:none;stroke:#27AAE1;opacity:1;stroke-width:0.577;" x1="263" x2="3036" y1="696" y2="696"/><line id="Capline-S" style="fill:none;stroke:#27AAE1;opacity:1;stroke-width:0.577;" x1="263" x2="3036" y1="625.541" y2="625.541"/><g id="H-reference" style="fill:#27AAE1;stroke:none;" transform="matrix(1 0 0 1 339 1126)"><path d="M 54.9316 0 L 57.666 0 L 30.5664 -70.459 L 28.0762 -70.459 L 0.976562 0 L 3.66211 0 L 12.9395 -24.4629 L 45.7031 -24.4629 Z M 29.1992 -67.0898 L 29.4434 -67.0898 L 44.8242 -26.709 L 13.8184 -26.709 Z"/></g><line id="Baseline-M" style="fill:none;stroke:#27AAE1;opacity:1;stroke-width:0.577;" x1="263" x2="3036" y1="1126" y2="1126"/><line id="Capline-M" style="fill:none;stroke:#27AAE1;opacity:1;stroke-width:0.577;" x1="263" x2="3036" y1="1055.54" y2="1055.54"/><g id="H-reference" style="fill:#27AAE1;stroke:none;" transform="matrix(1 0 0 1 339 1556)"><path d="M 54.9316 0 L 57.666 0 L 30.5664 -70.459 L 28.0762 -70.459 L 0.976562 0 L 3.66211 0 L 12.9395 -24.4629 L 45.7031 -24.4629 Z M 29.1992 -67.0898 L 29.4434 -67.0898 L 44.8242 -26.709 L 13.8184 -26.709 Z"/></g><line id="Baseline-L" style="fill:none;stroke:#27AAE1;opacity:1;stroke-width:0.577;" x1="263" x2="3036" y1="1556" y2="1556"/><line id="Capline-L" style="fill:none;stroke:#27AAE1;opacity:1;stroke-width:0.577;" x1="263" x2="3036" y1="1485.54" y2="1485.54"/><rect height="119.336" id="left-margin" style="fill:darkred;stroke:none;opacity:0.4;" width="12.4512" x="1394.06" y="1030.79"/><rect height="119.336" id="right-margin" style="fill:darkgreen;stroke:none;opacity:0.4;" width="12.4512" x="1502.5112" y="1030.79"/><rect x="1406.5112" y="1045" width="96" height="96" fill="none" stroke="blue" stroke-dasharray="5"/><rect x="1394.06" y="1030.79" width="120.9024" height="119.336" fill="none" stroke="blue"/></g><g id="Symbols"><g id="Bold-L" transform="matrix(1 0 0 1 2266 1556)"><path d="M3.386 33.301  34.669 -45.227 V-54.741 H-0.161 L27.493 -103.922 H55.47 L83.205 -54.741 H48.375 V-45.227 L79.496 33.301 H64.5 L48.375 -7.172 V33.301 H34.508 V-6.85 L18.383 33.301 H3.386 Z M115.208 6.373 Q105.87 6.373 99.053 0.326 Q92.235 -5.721 90.506 -14.912 H73.853 Q73.853 -24.633 78.448 -33.237 Q83.044 -41.841 91.121 -47.646 Q91.913 -54.741 96.266 -60.546 Q100.62 -66.351 107.554 -68.447 V-103.922 H122.55 V-68.447 Q129.484 -66.512 133.757 -60.627 Q138.03 -54.741 138.998 -47.72 Q146.899 -41.841 151.575 -33.337 Q156.251 -24.833 156.251 -14.912 H139.32 Q137.708 -5.721 131.016 0.326 Q124.324 6.373 115.208 6.373 Z M93.364 -27.651 H136.74 Q135.44 -29.925 134.397 -32.497 Q133.354 -35.069 131.096 -36.52 L125.396 -40.511 L124.646 -47.807 Q124.14 -51.4 121.378 -53.796 Q118.616 -56.192 115.052 -56.192 Q111.337 -56.192 108.639 -53.693 Q105.941 -51.194 105.457 -47.646 L104.709 -40.511 L98.846 -36.52 Q96.589 -35.069 95.592 -32.484 Q94.596 -29.901 93.364 -27.651 Z M25.8 -69.737 H57.244 L46.808 -88.765 H36.462 L25.8 -69.737 Z M115.126 -6.366 Q118.901 -6.366 121.774 -8.785 Q124.646 -11.204 125.936 -14.912 H104.329 Q105.619 -11.204 108.52 -8.785 Q111.419 -6.366 115.126 -6.366 Z"/></g><g id="Semibold-L" transform="matrix(1 0 0 1 1970.27 1556)"><path d="M7.382 31.548  36.562 -41.301 V-55.652 H2.923 L29.246 -102.1 H55.751 L82.083 -55.652 H48.444 V-41.301 L77.463 31.548 H64.5 L48.444 -8.504 V31.548 H36.401 V-8.182 L20.345 31.548 H7.382 Z M113.244 4.831 Q104.359 4.831 97.771 -0.797 Q91.184 -6.423 89.295 -15.122 H73.222 Q73.222 -24.683 77.782 -33.122 Q82.342 -41.561 90.274 -47.329 Q91.071 -54.251 95.495 -59.811 Q99.919 -65.369 106.783 -67.256 V-102.1 H119.465 V-67.256 Q126.33 -65.461 130.672 -59.856 Q135.016 -54.251 135.913 -47.371 Q143.745 -41.561 148.385 -33.214 Q153.026 -24.866 153.026 -15.122 H136.656 Q134.834 -6.423 128.387 -0.797 Q121.94 4.831 113.244 4.831 Z M89.368 -26.529 H136.809 Q135.094 -29.357 133.592 -32.423 Q132.091 -35.49 129.343 -37.362 L124.298 -40.879 L123.595 -47.246 Q123.098 -51.17 120.065 -53.822 Q117.032 -56.473 113.089 -56.473 Q109.061 -56.473 106.064 -53.762 Q103.068 -51.053 102.653 -47.156 L101.95 -40.879 L96.813 -37.362 Q93.994 -35.49 92.52 -32.416 Q91.045 -29.343 89.368 -26.529 Z M24.818 -68.335 H60.188 L48.401 -89.326 H36.742 L24.818 -68.335 Z M113.167 -6.576 Q117.053 -6.576 120.078 -8.995 Q123.105 -11.413 124.604 -15.122 H101.734 Q103.235 -11.413 106.288 -8.995 Q109.342 -6.576 113.167 -6.576 Z"/></g><g id="Medium-L" transform="matrix(1 0 0 1 1674.31 1556)"><path d="M10.38 30.234  37.981 -38.357 V-56.336 H5.237 L30.56 -100.733 H55.96 L81.243 -56.336 H48.498 V-38.357 L75.937 30.234 H64.5 L48.498 -9.504 V30.234 H37.82 V-9.182 L21.817 30.234 H10.38 Z M111.772 3.673 Q103.226 3.673 96.81 -1.637 Q90.395 -6.948 88.386 -15.28 H72.748 Q72.748 -24.721 77.282 -33.035 Q81.817 -41.351 89.637 -47.09 Q90.44 -53.882 94.917 -59.258 Q99.393 -64.634 106.204 -66.363 V-100.733 H117.151 V-66.363 Q123.963 -64.673 128.358 -59.277 Q132.754 -53.882 133.599 -47.108 Q141.378 -41.351 145.993 -33.121 Q150.608 -24.892 150.608 -15.28 H134.658 Q132.677 -6.948 126.415 -1.637 Q120.152 3.673 111.772 3.673 Z M86.37 -25.689 H136.863 Q134.834 -28.932 132.989 -32.368 Q131.145 -35.806 128.029 -37.992 L123.476 -41.154 L122.806 -46.825 Q122.316 -50.997 119.08 -53.84 Q115.844 -56.683 111.617 -56.683 Q107.354 -56.683 104.132 -53.816 Q100.91 -50.949 100.551 -46.787 L99.88 -41.154 L95.287 -37.992 Q92.05 -35.806 90.216 -32.365 Q88.383 -28.925 86.37 -25.689 Z M24.083 -67.283 H62.397 L49.596 -89.747 H36.952 L24.083 -67.283 Z M111.696 -6.734 Q115.666 -6.734 118.806 -9.153 Q121.947 -11.571 123.605 -15.28 H99.79 Q101.447 -11.571 104.616 -9.153 Q107.784 -6.734 111.696 -6.734 Z"/></g><g id="Regular-L" transform="matrix(1 0 0 1 1378.56 1556)"><path d="M12.578 29.27  39.023 -36.197 V-56.837 H6.934 L31.524 -99.73 H56.115 L80.625 -56.837 H48.536 V-36.197 L74.82 29.27 H64.5 L48.536 -10.236 V29.27 H38.861 V-9.914 L22.898 29.27 H12.578 Z M110.693 2.825 Q102.394 2.825 96.105 -2.254 Q89.816 -7.334 87.72 -15.396 H72.401 Q72.401 -24.749 76.916 -32.972 Q81.431 -41.196 89.171 -46.914 Q89.978 -53.612 94.493 -58.853 Q99.008 -64.094 105.78 -65.706 V-99.73 H115.455 V-65.706 Q122.228 -64.094 126.662 -58.853 Q131.096 -53.612 131.903 -46.914 Q139.643 -41.196 144.238 -33.053 Q148.834 -24.91 148.834 -15.396 H133.192 Q131.096 -7.334 124.969 -2.254 Q118.841 2.825 110.693 2.825 Z M84.172 -25.071 H136.901 Q134.644 -28.619 132.548 -32.327 Q130.451 -36.036 127.065 -38.455 L122.873 -41.357 L122.228 -46.517 Q121.744 -50.871 118.358 -53.854 Q114.971 -56.837 110.537 -56.837 Q106.103 -56.837 102.716 -53.854 Q99.33 -50.871 99.008 -46.517 L98.362 -41.357 L94.17 -38.455 Q90.623 -36.036 88.526 -32.327 Q86.43 -28.619 84.172 -25.071 Z M23.543 -66.512 H64.016 L50.471 -90.055 H37.107 L23.543 -66.512 Z M110.618 -6.85 Q114.649 -6.85 117.874 -9.269 Q121.099 -11.687 122.873 -15.396 H98.362 Q100.136 -11.687 103.389 -9.269 Q106.641 -6.85 110.618 -6.85 Z"/></g><g id="Light-L" transform="matrix(1 0 0 1 1082.77 1556)"><path d="M15.865 26.045  41.069 -36.012 V-57.086 H10.593 L33.385 -96.505 H56.054 L78.764 -57.086 H48.227 V-36.012 L73.393 26.045 H65.555 L48.288 -16.315 V26.045 H40.97 V-16.054 L23.642 26.045 H15.865 Z M109.79 1.77 Q101.836 1.77 95.981 -3.246 Q90.126 -8.264 88.465 -16.078 H73.641 Q73.641 -24.997 78.095 -32.787 Q82.547 -40.575 89.978 -45.955 Q90.722 -52.497 95.113 -57.581 Q99.504 -62.667 106.152 -63.784 V-96.505 H113.47 V-63.784 Q120.057 -62.667 124.435 -57.574 Q128.811 -52.482 129.608 -45.984 Q136.975 -40.575 141.51 -32.879 Q146.043 -25.181 146.043 -16.078 H130.898 Q129.174 -8.264 123.387 -3.246 Q117.601 1.77 109.79 1.77 Z M82.188 -23.396 H137.211 Q135.698 -27.874 133.012 -32.049 Q130.327 -36.222 126.383 -39.076 L122.687 -41.667 L122.166 -46.145 Q121.62 -50.747 118.016 -53.854 Q114.413 -56.962 109.731 -56.962 Q105.048 -56.962 101.467 -53.885 Q97.887 -50.807 97.519 -46.208 L96.935 -41.667 L93.301 -39.137 Q89.134 -36.285 86.448 -32.079 Q83.763 -27.874 82.188 -23.396 Z M23.109 -64.403 H66.25 L51.835 -89.186 H37.536 L23.109 -64.403 Z M109.766 -5.61 Q114.339 -5.61 117.874 -8.617 Q121.408 -11.626 123.182 -16.078 H96.44 Q98.09 -11.626 101.618 -8.617 Q105.146 -5.61 109.766 -5.61 Z"/></g><g id="Thin-L" transform="matrix(1 0 0 1 787.282 1556)"><path d="M19.152 22.82  43.115 -35.825 V-57.334 H14.251 L35.246 -93.28 H55.991 L76.903 -57.334 H47.915 V-35.825 L71.967 22.82 H66.609 L48.04 -22.391 V22.82 H43.078 V-22.193 L24.386 22.82 H19.152 Z M108.889 0.716 Q101.278 0.716 95.857 -4.239 Q90.437 -9.195 89.208 -16.76 H74.881 Q74.881 -25.245 79.274 -32.6 Q83.665 -39.956 90.784 -44.997 Q91.466 -51.379 95.733 -56.31 Q99.999 -61.241 106.525 -61.86 V-93.28 H111.485 V-61.86 Q117.887 -61.241 122.207 -56.297 Q126.528 -51.353 127.313 -45.053 Q134.308 -39.956 138.78 -32.703 Q143.251 -25.45 143.251 -16.76 H128.603 Q127.25 -9.195 121.805 -4.239 Q116.361 0.716 108.889 0.716 Z M80.203 -21.722 H137.522 Q136.753 -27.13 133.478 -31.77 Q130.203 -36.409 125.701 -39.695 L122.5 -41.978 L122.103 -45.773 Q121.495 -50.623 117.675 -53.854 Q113.855 -57.086 108.924 -57.086 Q103.993 -57.086 100.218 -53.914 Q96.442 -50.742 96.031 -45.897 L95.51 -41.978 L92.433 -39.819 Q87.646 -36.533 84.371 -31.831 Q81.096 -27.13 80.203 -21.722 Z M22.675 -62.296 H68.481 L53.2 -88.318 H37.965 L22.675 -62.296 Z M108.916 -4.37 Q114.028 -4.37 117.874 -7.966 Q121.72 -11.563 123.493 -16.76 H94.517 Q96.044 -11.563 99.848 -7.966 Q103.651 -4.37 108.916 -4.37 Z"/></g><g id="Ultralight-L" transform="matrix(1 0 0 1 491.205 1556)"><path d="M21.124 20.885  44.344 -35.714 V-57.482 H16.448 L36.362 -91.345 H55.954 L75.788 -57.482 H47.73 V-35.714 L71.111 20.885 H67.241 L47.891 -26.039 V20.885 H44.344 V-25.877 L24.832 20.885 H21.124 Z M108.347 0.084 Q100.943 0.084 95.782 -4.834 Q90.623 -9.752 89.655 -17.17 H75.626 Q75.626 -25.394 79.98 -32.489 Q84.334 -39.584 91.267 -44.421 Q91.913 -50.71 96.105 -55.547 Q100.297 -60.385 106.748 -60.707 V-91.345 H110.295 V-60.707 Q116.584 -60.385 120.87 -55.53 Q125.157 -50.675 125.936 -44.495 Q132.709 -39.584 137.143 -32.598 Q141.578 -25.613 141.578 -17.17 H127.226 Q126.097 -9.752 120.857 -4.834 Q115.616 0.084 108.347 0.084 Z M79.013 -20.717 H137.708 Q137.385 -26.684 133.757 -31.602 Q130.129 -36.52 125.291 -40.067 L122.389 -42.164 L122.066 -45.55 Q121.421 -50.549 117.471 -53.854 Q113.52 -57.16 108.441 -57.16 Q103.361 -57.16 99.469 -53.932 Q95.576 -50.704 95.138 -45.711 L94.654 -42.164 L91.913 -40.229 Q86.752 -36.681 83.124 -31.682 Q79.496 -26.684 79.013 -20.717 Z M22.414 -61.03 H69.821 L54.019 -87.797 H38.223 L22.414 -61.03 Z M108.405 -3.625 Q113.843 -3.625 117.874 -7.576 Q121.905 -11.526 123.679 -17.17 H93.364 Q94.815 -11.526 98.785 -7.576 Q102.755 -3.625 108.405 -3.625 Z"/></g><g id="Bold-M" transform="matrix(1 0 0 1 2281.8 1126)"><path d="M0 19.02  25.5 -45.48 V-47.98 H-2.375 L20.875 -89.48 H44.375 L67.625 -47.98 H39.75 V-45.48 L65 19.02 H49.5 L39.75 -5.98 V19.02 H25.375 V-5.98 L15.5 19.02 H0 Z M89.625 -1.48 Q81.75 -1.48 75.812 -6.667 Q69.875 -11.855 68.375 -19.73 H56.5 Q56.5 -27.355 59.875 -34.167 Q63.25 -40.98 69.625 -45.48 Q70.25 -50.98 73.438 -55.355 Q76.625 -59.73 81.75 -61.855 V-89.48 H97.375 V-61.98 Q102.5 -59.855 105.688 -55.417 Q108.875 -50.98 109.5 -45.48 Q115.75 -40.98 119.188 -34.182 Q122.625 -27.385 122.625 -19.73 H110.625 Q109.25 -11.855 103.375 -6.667 Q97.5 -1.48 89.625 -1.48 Z M77.125 -32.855 H102 Q101.726 -33.349 101.426 -33.789 Q101.125 -34.23 100.625 -34.48 L95.375 -38.23 L94.75 -44.73 Q94.5 -46.855 93.064 -48.23 Q91.627 -49.605 89.625 -49.605 Q87.558 -49.605 86.029 -48.167 Q84.5 -46.73 84.25 -44.605 L83.625 -38.23 L78.375 -34.48 Q77.875 -34.23 77.603 -33.789 Q77.33 -33.349 77.125 -32.855 Z M24.5 -63.605 H40.75 L35.296 -73.855 H30 L24.5 -63.605 Z M89.619 -14.73 Q92 -14.73 93.938 -16.042 Q95.875 -17.355 96.625 -19.73 H82.5 Q83.25 -17.355 85.188 -16.042 Q87.125 -14.73 89.619 -14.73 Z"/></g><g id="Semibold-M" transform="matrix(1 0 0 1 1985.97 1126)"><path d="M4.13 17.173  27.456 -41.404 V-48.959 H0.831 L22.669 -87.632 H44.646 L66.484 -48.959 H39.859 V-41.404 L62.935 17.173 H49.5 L39.804 -7.392 V17.173 H27.331 V-7.392 L17.565 17.173 H4.13 Z M87.614 -3.11 Q80.174 -3.11 74.481 -7.836 Q68.787 -12.561 67.18 -19.947 H55.847 Q55.847 -27.409 59.196 -34.059 Q62.544 -40.709 68.755 -45.154 Q69.38 -50.491 72.65 -54.621 Q75.919 -58.751 80.989 -60.66 V-87.632 H94.169 V-60.73 Q99.185 -58.822 102.454 -54.656 Q105.722 -50.491 106.347 -45.154 Q112.489 -40.709 115.9 -34.067 Q119.31 -27.426 119.31 -19.947 H107.854 Q106.315 -12.561 100.657 -7.836 Q95 -3.11 87.614 -3.11 Z M72.995 -31.714 H102.109 Q101.411 -32.754 100.642 -33.682 Q99.875 -34.61 98.831 -35.35 L94.234 -38.61 L93.662 -44.186 Q93.412 -46.637 91.705 -48.257 Q89.996 -49.876 87.614 -49.876 Q85.195 -49.876 83.407 -48.221 Q81.62 -46.567 81.37 -44.116 L80.799 -38.61 L76.255 -35.35 Q75.213 -34.61 74.406 -33.682 Q73.6 -32.754 72.995 -31.714 Z M23.521 -62.137 H43.794 L36.961 -74.452 H30.326 L23.521 -62.137 Z M87.611 -14.947 Q90.097 -14.947 92.171 -16.26 Q94.245 -17.572 95.266 -19.947 H79.838 Q80.859 -17.572 82.933 -16.26 Q85.005 -14.947 87.611 -14.947 Z"/></g><g id="Medium-M" transform="matrix(1 0 0 1 1689.91 1126)"><path d="M7.229 15.786  28.924 -38.347 V-49.692 H3.236 L24.014 -86.246 H44.85 L65.627 -49.692 H39.94 V-38.347 L61.386 15.786 H49.5 L39.845 -8.452 V15.786 H28.799 V-8.452 L19.114 15.786 H7.229 Z M86.106 -4.334 Q78.991 -4.334 73.483 -8.712 Q67.972 -13.091 66.282 -20.11 H55.359 Q55.359 -27.45 58.686 -33.977 Q62.014 -40.505 68.104 -44.909 Q68.729 -50.124 72.059 -54.071 Q75.389 -58.017 80.419 -59.762 V-86.246 H91.764 V-59.792 Q96.699 -58.047 100.029 -54.086 Q103.359 -50.124 103.984 -44.909 Q110.044 -40.505 113.434 -33.981 Q116.824 -27.457 116.824 -20.11 H105.775 Q104.114 -13.091 98.62 -8.712 Q93.125 -4.334 86.106 -4.334 Z M69.896 -30.857 H102.19 Q101.174 -32.307 100.056 -33.601 Q98.938 -34.896 97.486 -36.001 L93.377 -38.896 L92.847 -43.779 Q92.597 -46.475 90.685 -48.277 Q88.772 -50.08 86.106 -50.08 Q83.424 -50.08 81.441 -48.262 Q79.459 -46.445 79.209 -43.749 L78.68 -38.896 L74.666 -36.001 Q73.215 -34.896 72.009 -33.601 Q70.801 -32.307 69.896 -30.857 Z M22.788 -61.037 H46.076 L38.209 -74.901 H30.571 L22.788 -61.037 Z M86.105 -15.11 Q88.671 -15.11 90.846 -16.422 Q93.021 -17.735 94.248 -20.11 H77.84 Q79.065 -17.735 81.24 -16.422 Q83.416 -15.11 86.105 -15.11 Z"/></g><g id="Regular-M" transform="matrix(1 0 0 1 1394.06 1126)"><path d="M9.5 14.77  30 -36.105 V-50.23 H5 L25 -85.23 H45 L65 -50.23 H40 V-36.105 L60.25 14.77 H49.5 L39.875 -9.23 V14.77 H29.875 V-9.23 L20.25 14.77 H9.5 Z M85 -5.23 Q78.125 -5.23 72.75 -9.355 Q67.375 -13.48 65.625 -20.23 H55 Q55 -27.48 58.312 -33.917 Q61.625 -40.355 67.625 -44.73 Q68.25 -49.855 71.625 -53.667 Q75 -57.48 80 -59.105 V-85.23 H90 V-59.105 Q94.875 -57.48 98.25 -53.667 Q101.625 -49.855 102.25 -44.73 Q108.25 -40.355 111.625 -33.917 Q115 -27.48 115 -20.23 H104.25 Q102.5 -13.48 97.125 -9.355 Q91.75 -5.23 85 -5.23 Z M67.625 -30.23 H102.25 Q101 -31.98 99.625 -33.542 Q98.25 -35.105 96.5 -36.48 L92.75 -39.105 L92.25 -43.48 Q92 -46.355 89.938 -48.292 Q87.875 -50.23 85 -50.23 Q82.125 -50.23 80 -48.292 Q77.875 -46.355 77.625 -43.48 L77.125 -39.105 L73.5 -36.48 Q71.75 -35.105 70.25 -33.542 Q68.75 -31.98 67.625 -30.23 Z M22.25 -60.23 H47.75 L39.125 -75.23 H30.75 L22.25 -60.23 Z M85 -15.23 Q87.625 -15.23 89.875 -16.542 Q92.125 -17.855 93.5 -20.23 H76.375 Q77.75 -17.855 80 -16.542 Q82.25 -15.23 85 -15.23 Z"/></g><g id="Light-M" transform="matrix(1 0 0 1 1098.18 1126)"><path d="M12.096 12.27  31.635 -35.912 V-50.904 H7.933 L26.25 -82.73 H44.568 L62.885 -50.904 H39.135 V-35.912 L58.519 12.27 H50.461 L39.057 -15.721 V12.27 H31.558 V-15.721 L20.154 12.27 H12.096 Z M84.516 -6.191 Q78.029 -6.191 73.135 -10.22 Q68.24 -14.249 66.828 -20.662 H56.25 Q56.25 -27.576 59.562 -33.652 Q62.875 -39.73 68.635 -43.865 Q69.211 -48.894 72.539 -52.634 Q75.865 -56.374 80.817 -57.566 V-82.73 H88.317 V-57.566 Q93.144 -56.374 96.498 -52.634 Q99.85 -48.892 100.471 -43.865 Q106.183 -39.73 109.558 -33.652 Q112.933 -27.576 112.933 -20.662 H102.183 Q100.721 -14.249 95.802 -10.22 Q90.885 -6.191 84.516 -6.191 Z M65.461 -28.162 H103.549 Q102.683 -30.922 100.802 -33.182 Q98.924 -35.441 96.5 -37.297 L93.279 -39.586 L92.875 -43.336 Q92.529 -46.499 90.154 -48.652 Q87.779 -50.807 84.567 -50.807 Q81.356 -50.807 78.935 -48.676 Q76.515 -46.545 76.231 -43.384 L75.779 -39.586 L72.683 -37.345 Q70.211 -35.49 68.23 -33.206 Q66.25 -30.922 65.461 -28.162 Z M20.856 -58.402 H49.961 L40.182 -75.23 H30.558 L20.856 -58.402 Z M84.532 -13.74 Q87.721 -13.74 90.284 -15.652 Q92.846 -17.566 94.221 -20.662 H74.836 Q76.115 -17.566 78.654 -15.652 Q81.192 -13.74 84.532 -13.74 Z"/></g><g id="Thin-M" transform="matrix(1 0 0 1 802.565 1126)"><path d="M14.693 9.77  33.269 -35.72 V-51.576 H10.865 L27.5 -80.23 H44.135 L60.769 -51.576 H38.269 V-35.72 L56.789 9.77 H51.422 L38.24 -22.211 V9.77 H33.24 V-22.211 L20.058 9.77 H14.693 Z M84.031 -7.152 Q77.933 -7.152 73.519 -11.086 Q69.106 -15.019 68.029 -21.095 H57.5 Q57.5 -27.672 60.812 -33.389 Q64.125 -39.105 69.644 -42.999 Q70.172 -47.932 73.453 -51.6 Q76.731 -55.269 81.635 -56.027 V-80.23 H86.635 V-56.027 Q91.414 -55.269 94.745 -51.6 Q98.075 -47.931 98.692 -42.999 Q104.115 -39.105 107.49 -33.389 Q110.865 -27.672 110.865 -21.095 H100.115 Q98.942 -15.019 94.481 -11.086 Q90.019 -7.152 84.031 -7.152 Z M63.297 -26.095 H104.846 Q104.365 -29.865 101.981 -32.821 Q99.596 -35.777 96.5 -38.115 L93.808 -40.066 L93.5 -43.191 Q93.058 -46.644 90.37 -49.014 Q87.683 -51.384 84.135 -51.384 Q80.586 -51.384 77.871 -49.06 Q75.156 -46.736 74.836 -43.287 L74.433 -40.066 L71.865 -38.211 Q68.672 -35.874 66.211 -32.87 Q63.75 -29.865 63.297 -26.095 Z M19.461 -56.576 H52.172 L41.24 -75.23 H30.365 L19.461 -56.576 Z M84.065 -12.249 Q87.817 -12.249 90.692 -14.764 Q93.567 -17.277 94.942 -21.095 H73.297 Q74.481 -17.277 77.308 -14.764 Q80.135 -12.249 84.065 -12.249 Z"/></g><g id="Ultralight-M" transform="matrix(1 0 0 1 506.415 1126)"><path d="M16.25 8.27  34.25 -35.605 V-51.98 H12.625 L28.25 -78.73 H43.875 L59.5 -51.98 H37.75 V-35.605 L55.75 8.27 H52 L37.75 -26.105 V8.27 H34.25 V-26.105 L20 8.27 H16.25 Z M83.741 -7.73 Q77.875 -7.73 73.75 -11.605 Q69.625 -15.48 68.75 -21.355 H58.25 Q58.25 -27.73 61.562 -33.23 Q64.875 -38.73 70.25 -42.48 Q70.75 -47.355 74 -50.98 Q77.25 -54.605 82.125 -55.105 V-78.73 H85.625 V-55.105 Q90.375 -54.605 93.692 -50.98 Q97.01 -47.354 97.625 -42.48 Q102.875 -38.73 106.25 -33.23 Q109.625 -27.73 109.625 -21.355 H98.875 Q97.875 -15.48 93.688 -11.605 Q89.5 -7.73 83.741 -7.73 Z M62 -24.855 H105.625 Q105.375 -29.23 102.688 -32.605 Q100 -35.98 96.5 -38.605 L94.125 -40.355 L93.875 -43.105 Q93.375 -46.73 90.5 -49.23 Q87.625 -51.73 83.875 -51.73 Q80.125 -51.73 77.233 -49.29 Q74.34 -46.85 74 -43.23 L73.625 -40.355 L71.375 -38.73 Q67.75 -36.105 65 -32.667 Q62.25 -29.23 62 -24.855 Z M18.625 -55.48 H53.5 L41.875 -75.23 H30.25 L18.625 -55.48 Z M83.785 -11.355 Q87.875 -11.355 90.938 -14.23 Q94 -17.105 95.375 -21.355 H72.375 Q73.5 -17.105 76.5 -14.23 Q79.5 -11.355 83.785 -11.355 Z"/></g><g id="Bold-S" transform="matrix(1 0 0 1 2294.23 696)"><path d="M1.973 5.995  21.303 -43.219 V-42.923 H-1.085 L15.681 -76.455 H37.379 L54.145 -42.923 H31.659 V-43.219 L50.989 5.995 H39.647 L31.757 -14.223 V5.995 H21.204 V-14.223 L13.216 5.995 H1.973 Z M72.285 -12.152 Q66.868 -12.152 63.12 -15.998 Q59.372 -19.844 59.076 -25.367 H48.524 Q48.524 -30.792 50.94 -35.624 Q53.356 -40.457 57.85 -43.69 Q58.287 -47.657 60.556 -50.862 Q62.824 -54.067 66.473 -55.547 V-76.455 H78.012 V-55.645 Q81.662 -54.166 83.881 -50.911 Q86.1 -47.657 86.593 -43.712 Q91.059 -40.536 93.511 -35.725 Q95.962 -30.914 95.962 -25.367 H85.311 Q85.113 -19.844 81.415 -15.998 Q77.716 -12.152 72.285 -12.152 Z M63.81 -34.934 H80.774 Q80.657 -35.225 80.469 -35.424 Q80.281 -35.624 80.075 -35.72 L76.336 -38.485 L75.843 -43.317 Q75.547 -44.698 74.561 -45.635 Q73.576 -46.572 72.28 -46.572 Q70.932 -46.572 69.935 -45.586 Q68.939 -44.599 68.643 -43.219 L68.183 -38.497 L64.285 -35.724 Q64.008 -35.624 63.936 -35.404 Q63.865 -35.182 63.81 -34.934 Z M19.429 -55.349 H33.532 L29.821 -63.93 H23.177 L19.429 -55.349 Z M72.276 -21.817 Q73.673 -21.817 74.659 -22.803 Q75.645 -23.789 75.547 -25.367 H68.939 Q68.84 -23.789 69.827 -22.803 Q70.813 -21.817 72.276 -21.817 Z"/></g><g id="Semibold-S" transform="matrix(1 0 0 1 1998.1 696)"><path d="M5.231 4.538  22.846 -40.002 V-43.695 H1.445 L17.097 -74.998 H37.593 L53.245 -43.695 H31.744 V-40.002 L49.36 4.538 H39.647 L31.8 -15.337 V4.538 H22.748 V-15.337 L14.845 4.538 H5.231 Z M70.698 -13.438 Q65.624 -13.438 62.07 -16.92 Q58.514 -20.402 58.134 -25.539 H48.009 Q48.009 -30.834 50.404 -35.539 Q52.799 -40.243 57.164 -43.433 Q57.601 -47.271 59.934 -50.283 Q62.267 -53.295 65.873 -54.604 V-74.998 H75.483 V-54.659 Q79.046 -53.351 81.329 -50.311 Q83.612 -47.271 84.105 -43.454 Q88.487 -40.322 90.916 -35.634 Q93.347 -30.947 93.347 -25.539 H83.124 Q82.798 -20.402 79.271 -16.92 Q75.744 -13.438 70.698 -13.438 Z M60.552 -34.034 H80.86 Q80.408 -34.756 79.851 -35.34 Q79.294 -35.924 78.659 -36.406 L75.435 -38.784 L74.985 -42.888 Q74.689 -44.526 73.489 -45.657 Q72.289 -46.786 70.693 -46.786 Q69.068 -46.786 67.868 -45.628 Q66.667 -44.471 66.371 -42.833 L65.953 -38.798 L62.612 -36.411 Q61.907 -35.924 61.414 -35.319 Q60.922 -34.712 60.552 -34.034 Z M18.657 -54.192 H35.934 L31.135 -64.401 H23.434 L18.657 -54.192 Z M70.691 -21.989 Q72.172 -21.989 73.266 -22.975 Q74.359 -23.961 74.475 -25.539 H66.838 Q66.954 -23.961 68.047 -22.975 Q69.14 -21.989 70.691 -21.989 Z"/></g><g id="Medium-S" transform="matrix(1 0 0 1 1701.85 696)"><path d="M7.676 3.444  24.004 -37.591 V-44.274 H3.342 L18.158 -73.904 H37.754 L52.569 -44.274 H31.809 V-37.591 L48.138 3.444 H39.647 L31.832 -16.174 V3.444 H23.906 V-16.174 L16.067 3.444 H7.676 Z M69.508 -14.403 Q64.691 -14.403 61.282 -17.612 Q57.871 -20.82 57.425 -25.667 H47.623 Q47.623 -30.867 50.002 -35.475 Q52.381 -40.082 56.649 -43.239 Q57.087 -46.981 59.468 -49.849 Q61.849 -52.716 65.423 -53.896 V-73.904 H73.585 V-53.919 Q77.084 -52.74 79.416 -49.861 Q81.747 -46.981 82.24 -43.261 Q86.557 -40.161 88.971 -35.566 Q91.385 -30.971 91.385 -25.667 H81.484 Q81.061 -20.82 77.663 -17.612 Q74.265 -14.403 69.508 -14.403 Z M58.107 -33.358 H80.924 Q80.221 -34.404 79.388 -35.276 Q78.555 -36.15 77.598 -36.92 L74.76 -39.01 L74.342 -42.567 Q74.046 -44.398 72.685 -45.672 Q71.324 -46.947 69.503 -46.947 Q67.671 -46.947 66.316 -45.661 Q64.961 -44.375 64.665 -42.543 L64.282 -39.023 L61.358 -36.925 Q60.331 -36.15 59.522 -35.255 Q58.713 -34.36 58.107 -33.358 Z M18.078 -53.324 H37.735 L32.119 -64.755 H23.628 L18.078 -53.324 Z M69.503 -22.117 Q71.046 -22.117 72.22 -23.103 Q73.394 -24.089 73.671 -25.667 H65.262 Q65.538 -24.089 66.712 -23.103 Q67.887 -22.117 69.503 -22.117 Z"/></g><g id="Regular-S" transform="matrix(1 0 0 1 1405.73 696)"><path d="M9.468 2.642  24.854 -35.822 V-44.698 H4.734 L18.936 -73.102 H37.872 L52.074 -44.698 H31.856 V-35.822 L47.241 2.642 H39.647 L31.856 -16.787 V2.642 H24.755 V-16.787 L16.963 2.642 H9.468 Z M68.636 -15.11 Q64.008 -15.11 60.704 -18.119 Q57.4 -21.127 56.907 -25.762 H47.34 Q47.34 -30.89 49.707 -35.427 Q52.074 -39.964 56.272 -43.098 Q56.709 -46.769 59.126 -49.531 Q61.542 -52.292 65.093 -53.377 V-73.102 H72.194 V-53.377 Q75.645 -52.292 78.012 -49.531 Q80.379 -46.769 80.873 -43.12 Q85.142 -40.043 87.544 -35.516 Q89.946 -30.989 89.946 -25.762 H80.281 Q79.788 -21.127 76.484 -18.119 Q73.18 -15.11 68.636 -15.11 Z M56.315 -32.863 H80.971 Q80.084 -34.145 79.048 -35.23 Q78.012 -36.315 76.82 -37.298 L74.265 -39.175 L73.87 -42.331 Q73.574 -44.303 72.095 -45.684 Q70.615 -47.065 68.631 -47.065 Q66.646 -47.065 65.179 -45.684 Q63.712 -44.303 63.416 -42.331 L63.055 -39.188 L60.438 -37.302 Q59.175 -36.315 58.135 -35.208 Q57.095 -34.102 56.315 -32.863 Z M17.654 -52.687 H39.056 L32.842 -65.015 H23.769 L17.654 -52.687 Z M68.631 -22.211 Q70.221 -22.211 71.454 -23.198 Q72.687 -24.184 73.081 -25.762 H64.106 Q64.501 -24.184 65.734 -23.198 Q66.966 -22.211 68.631 -22.211 Z"/></g><g id="Light-S" transform="matrix(1 0 0 1 1109.75 696)"><path d="M11.516 0.67  26.144 -35.67 V-45.23 H7.048 L19.922 -71.129 H37.531 L50.405 -45.23 H31.173 V-35.67 L45.875 0.67 H40.406 L31.211 -21.909 V0.67 H26.082 V-21.909 L16.888 0.67 H11.516 Z M68.253 -15.869 Q63.932 -15.869 61.007 -18.801 Q58.082 -21.733 57.855 -26.103 H48.326 Q48.326 -30.966 50.693 -35.218 Q53.06 -39.471 57.068 -42.415 Q57.468 -46.011 59.847 -48.715 Q62.224 -51.419 65.738 -52.163 V-71.129 H70.866 V-52.163 Q74.279 -51.419 76.63 -48.715 Q78.979 -46.01 79.469 -42.438 Q83.511 -39.55 85.913 -35.308 Q88.315 -31.065 88.315 -26.103 H78.649 Q78.384 -21.733 75.44 -18.801 Q72.497 -15.869 68.253 -15.869 Z M54.608 -31.232 H81.996 Q81.411 -33.311 79.977 -34.946 Q78.544 -36.58 76.82 -37.943 L74.682 -39.555 L74.363 -42.218 Q73.991 -44.417 72.265 -45.968 Q70.54 -47.521 68.289 -47.521 Q66.039 -47.521 64.339 -45.987 Q62.639 -44.453 62.316 -42.255 L61.993 -39.568 L59.793 -37.986 Q57.961 -36.619 56.542 -34.943 Q55.122 -33.267 54.608 -31.232 Z M16.554 -51.245 H40.8 L33.676 -65.015 H23.617 L16.554 -51.245 Z M68.262 -21.036 Q70.297 -21.036 71.776 -22.496 Q73.256 -23.956 73.65 -26.103 H62.892 Q63.211 -23.956 64.671 -22.496 Q66.132 -21.036 68.262 -21.036 Z"/></g><g id="Thin-S" transform="matrix(1 0 0 1 814.015 696)"><path d="M13.565 -1.303  27.433 -35.518 V-45.76 H9.361 L20.909 -69.157 H37.19 L48.736 -45.76 H30.49 V-35.518 L44.51 -1.303 H41.164 L30.566 -27.029 V-1.303 H27.41 V-27.029 L16.812 -1.303 H13.565 Z M67.872 -16.627 Q63.856 -16.627 61.31 -19.485 Q58.766 -22.341 58.803 -26.444 H49.312 Q49.312 -31.042 51.68 -35.01 Q54.047 -38.978 57.865 -41.732 Q58.226 -45.252 60.568 -47.899 Q62.908 -50.547 66.383 -50.949 V-69.157 H69.539 V-50.949 Q72.914 -50.547 75.247 -47.899 Q77.578 -45.251 78.066 -41.754 Q81.88 -39.057 84.282 -35.099 Q86.683 -31.141 86.683 -26.444 H77.018 Q76.981 -22.341 74.398 -19.485 Q71.814 -16.627 67.872 -16.627 Z M52.9 -29.6 H83.02 Q82.738 -32.476 80.907 -34.661 Q79.075 -36.845 76.82 -38.588 L75.099 -39.933 L74.856 -42.103 Q74.409 -44.531 72.436 -46.253 Q70.464 -47.975 67.948 -47.975 Q65.432 -47.975 63.5 -46.29 Q61.567 -44.604 61.216 -42.179 L60.931 -39.947 L59.148 -38.668 Q56.747 -36.921 54.949 -34.678 Q53.15 -32.433 52.9 -29.6 Z M15.454 -49.804 H42.545 L34.511 -65.015 H23.465 L15.454 -49.804 Z M67.894 -19.859 Q70.373 -19.859 72.099 -21.794 Q73.825 -23.728 74.219 -26.444 H61.678 Q61.922 -23.728 63.609 -21.794 Q65.298 -19.859 67.894 -19.859 Z"/></g><g id="Ultralight-S" transform="matrix(1 0 0 1 517.792 696)"><path d="M14.794 -2.486  28.207 -35.427 V-46.079 H10.75 L21.5 -67.973 H36.984 L47.735 -46.079 H30.081 V-35.427 L43.691 -2.486 H41.62 L30.179 -30.101 V-2.486 H28.207 V-30.101 L16.766 -2.486 H14.794 Z M67.642 -17.083 Q63.81 -17.083 61.493 -19.894 Q59.175 -22.705 59.372 -26.65 H49.904 Q49.904 -31.088 52.271 -34.885 Q54.638 -38.682 58.344 -41.323 Q58.682 -44.797 61 -47.41 Q63.317 -50.024 66.769 -50.221 V-67.973 H68.742 V-50.221 Q72.095 -50.024 74.417 -47.41 Q76.738 -44.796 77.223 -41.345 Q80.901 -38.761 83.304 -34.974 Q85.705 -31.186 85.705 -26.65 H76.04 Q76.139 -22.705 73.772 -19.894 Q71.404 -17.083 67.642 -17.083 Z M51.877 -28.622 H83.634 Q83.535 -31.975 81.464 -34.49 Q79.393 -37.005 76.82 -38.975 L75.35 -40.161 L75.152 -42.035 Q74.659 -44.599 72.539 -46.424 Q70.418 -48.248 67.744 -48.248 Q65.068 -48.248 62.996 -46.471 Q60.923 -44.694 60.556 -42.134 L60.293 -40.174 L58.762 -39.077 Q56.019 -37.104 53.992 -34.518 Q51.966 -31.932 51.877 -28.622 Z M14.794 -48.939 H43.592 L35.012 -65.015 H23.374 L14.794 -48.939 Z M67.673 -19.154 Q70.418 -19.154 72.292 -21.373 Q74.166 -23.592 74.561 -26.65 H60.95 Q61.148 -23.592 62.972 -21.373 Q64.797 -19.154 67.673 -19.154 Z"/></g></g></svg>