<svg xmlns="http://www.w3.org/2000/svg" version="1.1" width="3300" height="2000"><g id="Notes"><style>
    text {
      font-family: monospace;
      text-anchor: middle;
    }
    text.emphasis {
      font-weight:bold;
    }
    text.lanchor {
      text-anchor: start;
    }
  </style><rect height="2200" id="artboard" fill="white" width="3300" x="0" y="0"/><line id="" style="fill:none;stroke:black;stroke-width:0.5;" x1="263" x2="3036" y1="292" y2="292"/><text class="lanchor emphasis" transform="matrix(1 0 0 1 263 322)">Weight/Scale Variations</text><text transform="matrix(1 0 0 1 559.711 322)">Ultralight</text><text transform="matrix(1 0 0 1 856.422 322)">Thin</text><text transform="matrix(1 0 0 1 1153.13 322)">Light</text><text transform="matrix(1 0 0 1 1449.84 322)">Regular</text><text transform="matrix(1 0 0 1 1746.56 322)">Medium</text><text transform="matrix(1 0 0 1 2043.27 322)">Semibold</text><text transform="matrix(1 0 0 1 2339.98 322)">Bold</text><text transform="matrix(1 0 0 1 2636.69 322)">Heavy</text><text transform="matrix(1 0 0 1 2933.4 322)">Black</text><text id="template-version" style="text-anchor: end;" transform="matrix(1 0 0 1 3036 1933)">Template v.1.0</text><text class="lanchor" transform="matrix(1 0 0 1 263 726)">Small</text><text class="lanchor" transform="matrix(1 0 0 1 263 1156)">Medium</text><text class="lanchor" transform="matrix(1 0 0 1 263 1586)">Large</text></g><g id="Guides"><g id="H-reference" style="fill:#27AAE1;stroke:none;" transform="matrix(1 0 0 1 339 696)"><path d="M 54.9316 0 L 57.666 0 L 30.5664 -70.459 L 28.0762 -70.459 L 0.976562 0 L 3.66211 0 L 12.9395 -24.4629 L 45.7031 -24.4629 Z M 29.1992 -67.0898 L 29.4434 -67.0898 L 44.8242 -26.709 L 13.8184 -26.709 Z"/></g><line id="Baseline-S" style="fill:none;stroke:#27AAE1;opacity:1;stroke-width:0.577;" x1="263" x2="3036" y1="696" y2="696"/><line id="Capline-S" style="fill:none;stroke:#27AAE1;opacity:1;stroke-width:0.577;" x1="263" x2="3036" y1="625.541" y2="625.541"/><g id="H-reference" style="fill:#27AAE1;stroke:none;" transform="matrix(1 0 0 1 339 1126)"><path d="M 54.9316 0 L 57.666 0 L 30.5664 -70.459 L 28.0762 -70.459 L 0.976562 0 L 3.66211 0 L 12.9395 -24.4629 L 45.7031 -24.4629 Z M 29.1992 -67.0898 L 29.4434 -67.0898 L 44.8242 -26.709 L 13.8184 -26.709 Z"/></g><line id="Baseline-M" style="fill:none;stroke:#27AAE1;opacity:1;stroke-width:0.577;" x1="263" x2="3036" y1="1126" y2="1126"/><line id="Capline-M" style="fill:none;stroke:#27AAE1;opacity:1;stroke-width:0.577;" x1="263" x2="3036" y1="1055.54" y2="1055.54"/><g id="H-reference" style="fill:#27AAE1;stroke:none;" transform="matrix(1 0 0 1 339 1556)"><path d="M 54.9316 0 L 57.666 0 L 30.5664 -70.459 L 28.0762 -70.459 L 0.976562 0 L 3.66211 0 L 12.9395 -24.4629 L 45.7031 -24.4629 Z M 29.1992 -67.0898 L 29.4434 -67.0898 L 44.8242 -26.709 L 13.8184 -26.709 Z"/></g><line id="Baseline-L" style="fill:none;stroke:#27AAE1;opacity:1;stroke-width:0.577;" x1="263" x2="3036" y1="1556" y2="1556"/><line id="Capline-L" style="fill:none;stroke:#27AAE1;opacity:1;stroke-width:0.577;" x1="263" x2="3036" y1="1485.54" y2="1485.54"/><rect height="119.336" id="left-margin" style="fill:darkred;stroke:none;opacity:0.4;" width="12.4512" x="1394.06" y="1030.79"/><rect height="119.336" id="right-margin" style="fill:darkgreen;stroke:none;opacity:0.4;" width="12.4512" x="1502.5112" y="1030.79"/><rect x="1406.5112" y="1045" width="96" height="96" fill="none" stroke="blue" stroke-dasharray="5"/><rect x="1394.06" y="1030.79" width="120.9024" height="119.336" fill="none" stroke="blue"/></g><g id="Symbols"><g id="Bold-L" transform="matrix(1 0 0 1 2266 1556)"><path d="M21.856 20.401 Q16.609 10.404 12.658 -0.166 Q8.707 -10.736 8.707 -22.248 Q8.707 -36.341 14.029 -48.927 Q19.35 -61.514 28.622 -70.786 Q37.894 -80.057 50.333 -85.54 Q62.773 -91.022 76.916 -91.022 Q82.129 -91.022 87.102 -90.216 Q92.074 -89.41 97.073 -87.797 L87.559 -74.414 Q84.974 -75.059 82.291 -75.381 Q79.606 -75.704 76.916 -75.704 Q54.825 -75.704 39.345 -60.062 Q23.865 -44.421 23.865 -22.246 Q23.865 -14.979 25.719 -8.013 Q27.574 -1.045 31.145 5.244 H123.517 Q127.388 -1.045 129.081 -7.987 Q130.774 -14.927 130.774 -22.098 Q130.774 -34.424 125.533 -45.308 Q120.293 -56.192 110.618 -63.771 L114.971 -79.735 Q129.484 -70.221 137.788 -54.902 Q146.093 -39.584 146.093 -22.162 Q146.093 -10.691 142.202 -0.124 Q138.311 10.442 132.709 20.401 H21.856 Z M70.627 -9.269 Q76.218 -6.527 81.809 -8.543 Q87.398 -10.559 88.688 -16.364 Q92.532 -33.834 97.06 -50.657 Q101.588 -67.48 106.425 -84.734 Q96.589 -69.899 86.43 -55.547 Q76.271 -41.196 65.629 -27.006 Q62.242 -22.491 63.774 -17.089 Q65.306 -11.687 70.627 -9.269 Z"/></g><g id="Semibold-L" transform="matrix(1 0 0 1 1970.27 1556)"><path d="M22.939 18.648 Q17.941 9.001 14.235 -1.134 Q10.53 -11.268 10.53 -22.214 Q10.53 -35.998 15.746 -48.23 Q20.963 -60.462 29.989 -69.523 Q39.016 -78.585 51.119 -83.892 Q63.225 -89.2 76.986 -89.2 Q81.942 -89.2 86.764 -88.428 Q91.584 -87.657 96.371 -86.185 L88.33 -74.975 Q85.537 -75.689 82.712 -76.012 Q79.885 -76.334 76.986 -76.334 Q54.615 -76.334 38.96 -60.519 Q23.304 -44.702 23.304 -22.212 Q23.304 -14.74 25.194 -7.647 Q27.084 -0.555 30.784 5.874 H123.938 Q127.878 -0.555 129.642 -7.632 Q131.404 -14.711 131.404 -22.128 Q131.404 -34.704 125.989 -45.834 Q120.573 -56.963 110.687 -64.613 L114.2 -78.053 Q128.292 -68.749 136.28 -53.92 Q144.27 -39.094 144.27 -22.166 Q144.27 -11.194 140.668 -1.05 Q137.067 9.094 131.727 18.648 H22.939 Z M70.837 -9.549 Q76.381 -6.877 81.925 -8.893 Q87.467 -10.909 88.757 -16.644 Q92.683 -33.529 96.96 -49.873 Q101.238 -66.217 105.654 -82.981 Q95.887 -68.847 85.904 -54.986 Q75.921 -41.127 65.629 -27.356 Q62.242 -22.841 63.879 -17.439 Q65.516 -12.037 70.837 -9.549 Z"/></g><g id="Medium-L" transform="matrix(1 0 0 1 1674.31 1556)"><path d="M23.752 17.334 Q18.94 7.95 15.419 -1.859 Q11.897 -11.668 11.897 -22.188 Q11.897 -35.741 17.034 -47.708 Q22.172 -59.674 31.015 -68.576 Q39.856 -77.481 51.71 -82.657 Q63.563 -87.833 77.039 -87.833 Q81.802 -87.833 86.509 -87.088 Q91.214 -86.343 95.845 -84.976 L88.908 -75.396 Q85.959 -76.163 83.026 -76.486 Q80.093 -76.808 77.039 -76.808 Q54.457 -76.808 38.671 -60.861 Q22.883 -44.911 22.883 -22.186 Q22.883 -14.561 24.799 -7.374 Q26.714 -0.186 30.513 6.348 H124.254 Q128.247 -0.186 130.063 -7.368 Q131.878 -14.548 131.878 -22.151 Q131.878 -34.914 126.331 -46.229 Q120.783 -57.542 110.74 -65.243 L113.622 -76.791 Q127.399 -67.644 135.15 -53.185 Q142.903 -38.724 142.903 -22.167 Q142.903 -11.571 139.518 -1.745 Q136.134 8.082 130.991 17.334 H23.752 Z M70.995 -9.759 Q76.503 -7.14 82.012 -9.156 Q87.52 -11.171 88.81 -16.854 Q92.796 -33.301 96.885 -49.286 Q100.975 -65.271 105.075 -81.667 Q95.362 -68.059 85.509 -54.565 Q75.659 -41.074 65.629 -27.619 Q62.242 -23.104 63.958 -17.702 Q65.674 -12.3 70.995 -9.759 Z"/></g><g id="Regular-L" transform="matrix(1 0 0 1 1378.56 1556)"><path d="M24.349 16.37 Q19.672 7.179 16.286 -2.391 Q12.9 -11.962 12.9 -22.169 Q12.9 -35.552 17.979 -47.324 Q23.059 -59.095 31.766 -67.883 Q40.474 -76.671 52.142 -81.751 Q63.81 -86.83 77.078 -86.83 Q81.701 -86.83 86.322 -86.104 Q90.945 -85.379 95.46 -84.089 L89.332 -75.704 Q86.269 -76.51 83.258 -76.832 Q80.248 -77.155 77.078 -77.155 Q54.341 -77.155 38.458 -61.111 Q22.575 -45.066 22.575 -22.169 Q22.575 -14.429 24.51 -7.172 Q26.445 0.084 30.315 6.695 H124.485 Q128.516 0.084 130.371 -7.172 Q132.225 -14.429 132.225 -22.169 Q132.225 -35.069 126.581 -46.517 Q120.938 -57.966 110.779 -65.706 L113.198 -75.865 Q126.743 -66.835 134.321 -52.645 Q141.9 -38.455 141.9 -22.169 Q141.9 -11.849 138.675 -2.254 Q135.45 7.34 130.451 16.37 H24.349 Z M71.111 -9.914 Q76.594 -7.334 82.076 -9.349 Q87.559 -11.365 88.849 -17.009 Q92.88 -33.134 96.831 -48.856 Q100.781 -64.577 104.651 -80.702 Q94.976 -67.48 85.221 -54.257 Q75.465 -41.035 65.629 -27.812 Q62.242 -23.297 64.016 -17.896 Q65.79 -12.494 71.111 -9.914 Z"/></g><g id="Light-L" transform="matrix(1 0 0 1 1082.77 1556)"><path d="M26.519 13.145 Q22.091 4.76 19.108 -4.041 Q16.125 -12.842 16.125 -22.23 Q16.125 -34.945 20.919 -46.127 Q25.715 -57.31 34.017 -65.632 Q42.32 -73.954 53.4 -78.779 Q64.481 -83.605 77.139 -83.605 Q80.894 -83.605 84.585 -83.065 Q88.278 -82.526 91.987 -81.546 L87.348 -75.146 Q84.768 -75.786 82.268 -76.036 Q79.77 -76.286 77.139 -76.286 Q54.741 -76.286 39.092 -60.512 Q23.444 -44.739 23.444 -22.23 Q23.444 -14.738 25.347 -7.669 Q27.251 -0.598 30.997 5.826 H123.803 Q127.71 -0.598 129.534 -7.669 Q131.356 -14.738 131.356 -22.23 Q131.356 -34.401 126.239 -45.253 Q121.123 -56.105 111.709 -63.721 L113.694 -71.461 Q125.502 -62.865 132.088 -49.917 Q138.675 -36.967 138.675 -22.23 Q138.675 -12.779 135.822 -3.96 Q132.968 4.858 128.549 13.145 H26.519 Z M71.669 -11.154 Q76.47 -8.822 81.299 -10.625 Q86.128 -12.426 87.36 -17.443 Q91.329 -32.7 95.342 -47.616 Q99.354 -62.531 103.348 -77.85 Q94.355 -65.061 85.314 -52.335 Q76.271 -39.608 66.991 -26.882 Q64.04 -22.925 65.535 -18.175 Q67.03 -13.424 71.669 -11.154 Z"/></g><g id="Thin-L" transform="matrix(1 0 0 1 787.282 1556)"><path d="M28.69 9.92 Q24.51 2.341 21.93 -5.692 Q19.35 -13.724 19.35 -22.293 Q19.35 -34.338 23.86 -44.932 Q28.369 -55.527 36.268 -63.381 Q44.166 -71.237 54.657 -75.809 Q65.148 -80.38 77.202 -80.38 Q80.088 -80.38 82.849 -80.027 Q85.611 -79.674 88.513 -79.003 L85.363 -74.588 Q83.266 -75.064 81.28 -75.241 Q79.293 -75.418 77.202 -75.418 Q55.141 -75.418 39.726 -59.914 Q24.312 -44.412 24.312 -22.293 Q24.312 -15.05 26.184 -8.164 Q28.058 -1.28 31.679 4.958 H123.121 Q126.904 -1.28 128.697 -8.164 Q130.488 -15.05 130.488 -22.293 Q130.488 -33.732 125.899 -43.989 Q121.31 -54.245 112.64 -61.736 L114.189 -67.058 Q124.262 -58.897 129.856 -47.187 Q135.45 -35.478 135.45 -22.293 Q135.45 -13.71 132.97 -5.665 Q130.488 2.378 126.647 9.92 H28.69 Z M72.227 -12.394 Q76.345 -10.31 80.522 -11.899 Q84.698 -13.487 85.872 -17.876 Q89.779 -32.266 93.854 -46.376 Q97.929 -60.485 102.047 -74.997 Q93.736 -62.642 85.406 -50.412 Q77.078 -38.182 68.352 -25.952 Q65.84 -22.553 67.056 -18.454 Q68.27 -14.355 72.227 -12.394 Z"/></g><g id="Ultralight-L" transform="matrix(1 0 0 1 491.205 1556)"><path d="M29.992 7.985 Q25.961 0.89 23.623 -6.682 Q21.285 -14.253 21.285 -22.33 Q21.285 -33.974 25.623 -44.215 Q29.962 -54.456 37.618 -62.031 Q45.274 -69.607 55.412 -74.025 Q65.55 -78.445 77.239 -78.445 Q79.604 -78.445 81.807 -78.203 Q84.011 -77.961 86.43 -77.477 L84.172 -74.252 Q82.365 -74.628 80.686 -74.764 Q79.006 -74.897 77.239 -74.897 Q55.38 -74.897 40.106 -59.556 Q24.832 -44.215 24.832 -22.33 Q24.832 -15.235 26.687 -8.462 Q28.541 -1.69 32.089 4.438 H122.711 Q126.42 -1.69 128.194 -8.462 Q129.968 -15.235 129.968 -22.33 Q129.968 -33.332 125.694 -43.23 Q121.421 -53.129 113.198 -60.546 L114.487 -64.416 Q123.517 -56.515 128.516 -45.55 Q133.515 -34.585 133.515 -22.33 Q133.515 -14.267 131.257 -6.689 Q129 0.89 125.506 7.985 H29.992 Z M72.562 -13.139 Q76.271 -11.204 80.056 -12.663 Q83.839 -14.122 84.979 -18.137 Q88.849 -32.005 92.961 -45.631 Q97.073 -59.256 101.265 -73.285 Q93.364 -61.191 85.463 -49.259 Q77.561 -37.326 69.17 -25.394 Q66.919 -22.33 67.967 -18.621 Q69.015 -14.912 72.562 -13.139 Z"/></g><g id="Bold-M" transform="matrix(1 0 0 1 2281.8 1126)"><path d="M17 9.02 Q12.625 1.02 9.188 -7.48 Q5.75 -15.98 5.75 -25.23 Q5.75 -36.466 10 -46.347 Q14.25 -56.23 21.625 -63.605 Q29 -70.98 38.883 -75.23 Q48.764 -79.48 60 -79.48 Q63.334 -79.48 66.666 -79.042 Q70 -78.605 73.25 -77.73 L63.125 -63.48 Q62.375 -63.605 61.562 -63.667 Q60.75 -63.73 60 -63.73 Q44 -63.73 32.75 -52.48 Q21.5 -41.23 21.5 -25.23 Q21.5 -20.406 22.812 -15.756 Q24.125 -11.105 26.5 -6.73 H93.5 Q96 -10.98 97.25 -15.674 Q98.5 -20.366 98.5 -25.175 Q98.5 -32.73 95.625 -39.73 Q92.75 -46.73 87.5 -52.105 L92 -68.98 Q102.5 -61.23 108.375 -49.73 Q114.25 -38.23 114.25 -25.23 Q114.25 -15.957 110.875 -7.469 Q107.5 1.02 102.875 9.02 H17 Z M55.5 -15.48 Q59.625 -13.605 63.812 -15.167 Q68 -16.73 69.125 -20.98 Q72.75 -34.355 76.188 -47.605 Q79.625 -60.855 83 -74.23 Q75.125 -62.855 67.188 -51.73 Q59.25 -40.605 51.25 -29.355 Q48.75 -25.767 50.062 -21.561 Q51.375 -17.355 55.5 -15.48 Z"/></g><g id="Semibold-M" transform="matrix(1 0 0 1 1985.97 1126)"><path d="M18.087 7.173 Q13.929 -0.392 10.791 -8.459 Q7.652 -16.524 7.652 -25.23 Q7.652 -36.091 11.766 -45.645 Q15.88 -55.197 22.984 -62.301 Q30.087 -69.404 39.64 -73.519 Q49.193 -77.632 60.054 -77.632 Q63.189 -77.632 66.323 -77.222 Q69.456 -76.811 72.544 -76.045 L63.94 -64.077 Q62.972 -64.257 61.998 -64.32 Q61.021 -64.382 60.054 -64.382 Q43.729 -64.382 32.315 -52.969 Q20.902 -41.556 20.902 -25.23 Q20.902 -20.221 22.269 -15.391 Q23.636 -10.561 26.12 -6.077 H93.935 Q96.544 -10.436 97.847 -15.317 Q99.153 -20.199 99.153 -25.199 Q99.153 -33.056 96.141 -40.274 Q93.13 -47.491 87.554 -52.975 L91.239 -67.241 Q101.25 -59.762 106.799 -48.725 Q112.347 -37.686 112.403 -25.23 Q112.403 -16.456 109.299 -8.425 Q106.196 -0.392 101.843 7.173 H18.087 Z M55.718 -15.806 Q59.788 -13.985 63.921 -15.547 Q68.054 -17.11 69.234 -21.306 Q72.859 -34.084 76.051 -46.817 Q79.245 -59.551 82.185 -72.436 Q74.364 -61.767 66.618 -51.16 Q58.87 -40.551 51.25 -29.735 Q48.75 -26.131 50.144 -21.906 Q51.538 -17.681 55.718 -15.806 Z"/></g><g id="Medium-M" transform="matrix(1 0 0 1 1689.91 1126)"><path d="M18.902 5.786 Q14.908 -1.452 11.994 -9.192 Q9.079 -16.931 9.079 -25.23 Q9.079 -35.811 13.091 -45.117 Q17.104 -54.422 24.003 -61.322 Q30.902 -68.221 40.209 -72.234 Q49.514 -76.246 60.095 -76.246 Q63.08 -76.246 66.064 -75.856 Q69.049 -75.466 72.014 -74.781 L64.551 -64.526 Q63.421 -64.746 62.324 -64.809 Q61.225 -64.871 60.095 -64.871 Q43.525 -64.871 31.989 -53.336 Q20.454 -41.801 20.454 -25.23 Q20.454 -20.082 21.861 -15.117 Q23.269 -10.154 25.834 -5.589 H94.261 Q96.951 -10.029 98.296 -15.051 Q99.641 -20.072 99.641 -25.216 Q99.641 -33.301 96.529 -40.681 Q93.416 -48.061 87.595 -53.626 L90.669 -65.936 Q100.312 -58.662 105.616 -47.97 Q110.921 -37.279 111.016 -25.23 Q111.016 -16.83 108.116 -9.141 Q105.218 -1.452 101.067 5.786 H18.902 Z M55.88 -16.051 Q59.91 -14.271 64.002 -15.834 Q68.095 -17.396 69.315 -21.551 Q72.94 -33.88 75.95 -46.226 Q78.959 -58.572 81.574 -71.091 Q73.794 -60.952 66.189 -50.731 Q58.584 -40.51 51.25 -30.021 Q48.75 -26.405 50.205 -22.165 Q51.66 -17.926 55.88 -16.051 Z"/></g><g id="Regular-M" transform="matrix(1 0 0 1 1394.06 1126)"><path d="M19.5 4.77 Q15.625 -2.23 12.875 -9.73 Q10.125 -17.23 10.125 -25.23 Q10.125 -35.605 14.062 -44.73 Q18 -53.855 24.75 -60.605 Q31.5 -67.355 40.625 -71.292 Q49.75 -75.23 60.125 -75.23 Q63 -75.23 65.875 -74.855 Q68.75 -74.48 71.625 -73.855 L65 -64.855 Q63.75 -65.105 62.562 -65.167 Q61.375 -65.23 60.125 -65.23 Q43.375 -65.23 31.75 -53.605 Q20.125 -41.98 20.125 -25.23 Q20.125 -19.98 21.562 -14.917 Q23 -9.855 25.625 -5.23 H94.5 Q97.25 -9.73 98.625 -14.855 Q100 -19.98 100 -25.23 Q100 -33.48 96.812 -40.98 Q93.625 -48.48 87.625 -54.105 L90.25 -64.98 Q99.625 -57.855 104.75 -47.417 Q109.875 -36.98 110 -25.23 Q110 -17.105 107.25 -9.667 Q104.5 -2.23 100.5 4.77 H19.5 Z M56 -16.23 Q60 -14.48 64.062 -16.042 Q68.125 -17.605 69.375 -21.73 Q73 -33.73 75.875 -45.792 Q78.75 -57.855 81.125 -70.105 Q73.375 -60.355 65.875 -50.417 Q58.375 -40.48 51.25 -30.23 Q48.75 -26.605 50.25 -22.355 Q51.75 -18.105 56 -16.23 Z"/></g><g id="Light-M" transform="matrix(1 0 0 1 1098.18 1126)"><path d="M20.99 2.27 Q17.404 -4.154 14.99 -11.026 Q12.578 -17.899 12.578 -25.23 Q12.578 -35.086 16.317 -43.755 Q20.059 -52.424 26.471 -58.836 Q32.884 -65.249 41.553 -68.989 Q50.221 -72.73 60.078 -72.73 Q62.471 -72.73 64.817 -72.451 Q67.164 -72.172 69.558 -71.691 L64.615 -64.902 Q63.451 -65.121 62.346 -65.175 Q61.24 -65.23 60.078 -65.23 Q43.328 -65.23 31.703 -53.605 Q20.078 -41.98 20.078 -25.23 Q20.078 -19.98 21.515 -14.917 Q22.953 -9.855 25.578 -5.23 H94.5 Q97.25 -9.73 98.625 -14.855 Q100 -19.98 100 -25.23 Q100 -33.395 96.885 -40.817 Q93.769 -48.24 87.865 -53.865 L89.961 -62.047 Q98.326 -55.259 102.875 -45.639 Q107.422 -36.019 107.5 -25.23 Q107.5 -17.826 105.11 -10.99 Q102.721 -4.154 99.154 2.27 H20.99 Z M56.193 -16.999 Q59.76 -15.394 63.364 -16.79 Q66.968 -18.187 68.076 -21.874 Q71.558 -33.345 74.505 -44.831 Q77.451 -56.316 80.115 -67.99 Q72.942 -58.431 65.995 -48.806 Q59.049 -39.181 52.211 -29.316 Q50 -26.124 51.26 -22.402 Q52.519 -18.682 56.193 -16.999 Z"/></g><g id="Thin-M" transform="matrix(1 0 0 1 802.565 1126)"><path d="M22.481 -0.23 Q19.183 -6.076 17.106 -12.322 Q15.029 -18.567 15.029 -25.23 Q15.029 -34.567 18.573 -42.78 Q22.116 -50.992 28.191 -57.067 Q34.266 -63.142 42.479 -66.686 Q50.691 -70.23 60.029 -70.23 Q61.943 -70.23 63.76 -70.047 Q65.578 -69.865 67.49 -69.527 L64.231 -64.951 Q63.154 -65.137 62.13 -65.184 Q61.106 -65.23 60.029 -65.23 Q43.279 -65.23 31.654 -53.605 Q20.029 -41.98 20.029 -25.23 Q20.029 -19.98 21.466 -14.917 Q22.904 -9.855 25.529 -5.23 H94.5 Q97.25 -9.73 98.625 -14.855 Q100 -19.98 100 -25.23 Q100 -33.31 96.956 -40.654 Q93.914 -47.999 88.106 -53.624 L89.672 -59.115 Q97.029 -52.662 101 -43.86 Q104.971 -35.057 105 -25.23 Q105 -18.547 102.971 -12.311 Q100.942 -6.076 97.808 -0.23 H22.481 Z M56.385 -17.769 Q59.519 -16.307 62.665 -17.537 Q65.811 -18.769 66.779 -22.019 Q70.115 -32.961 73.135 -43.87 Q76.154 -54.777 79.106 -65.874 Q72.51 -56.509 66.115 -47.196 Q59.721 -37.884 53.172 -28.402 Q51.25 -25.644 52.269 -22.451 Q53.289 -19.259 56.385 -17.769 Z"/></g><g id="Ultralight-M" transform="matrix(1 0 0 1 506.415 1126)"><path d="M23.375 -1.73 Q20.25 -7.23 18.375 -13.1 Q16.5 -18.969 16.5 -25.23 Q16.5 -34.256 19.925 -42.195 Q23.351 -50.134 29.224 -56.006 Q35.096 -61.879 43.035 -65.304 Q50.974 -68.73 60 -68.73 Q61.625 -68.73 63.125 -68.605 Q64.625 -68.48 66.25 -68.23 L64 -64.98 Q62.974 -65.146 62 -65.189 Q61.026 -65.23 60 -65.23 Q43.25 -65.23 31.625 -53.605 Q20 -41.98 20 -25.23 Q20 -19.98 21.438 -14.917 Q22.875 -9.855 25.5 -5.23 H94.5 Q97.25 -9.73 98.625 -14.855 Q100 -19.98 100 -25.23 Q100 -33.259 97 -40.556 Q94 -47.855 88.25 -53.48 L89.5 -57.355 Q96.25 -51.105 99.875 -42.792 Q103.5 -34.48 103.5 -25.23 Q103.5 -18.98 101.688 -13.105 Q99.875 -7.23 97 -1.73 H23.375 Z M56.5 -18.23 Q59.375 -16.855 62.246 -17.986 Q65.116 -19.117 66 -22.105 Q69.25 -32.73 72.312 -43.292 Q75.375 -53.855 78.5 -64.605 Q72.25 -55.355 66.188 -46.23 Q60.125 -37.105 53.75 -27.855 Q52 -25.355 52.875 -22.48 Q53.75 -19.605 56.5 -18.23 Z"/></g><g id="Bold-S" transform="matrix(1 0 0 1 2294.23 696)"><path d="M12.92 -3.473 Q10.06 -8.7 8.038 -14.321 Q6.016 -19.943 6.016 -25.959 Q6.016 -34.529 9.262 -41.985 Q12.507 -49.441 18.141 -55.008 Q23.776 -60.575 31.322 -63.781 Q38.869 -66.987 47.34 -66.987 Q49.65 -66.987 51.959 -66.723 Q54.268 -66.459 56.512 -65.902 L49.017 -55.251 Q48.627 -55.283 48.178 -55.317 Q47.73 -55.349 47.34 -55.349 Q35.005 -55.349 26.33 -46.67 Q17.654 -37.991 17.654 -25.762 Q17.654 -23.034 18.147 -20.404 Q18.64 -17.773 19.528 -15.11 H74.955 Q75.843 -17.773 76.385 -20.401 Q76.928 -23.027 76.928 -25.719 Q76.928 -31.975 74.314 -37.646 Q71.7 -43.317 67.065 -47.558 L70.517 -59.985 Q78.999 -54.166 83.831 -45.191 Q88.664 -36.216 88.565 -25.959 Q88.565 -20.024 86.593 -14.362 Q84.62 -8.7 81.563 -3.473 H12.92 Z M43.987 -21.028 Q47.044 -19.549 50.049 -20.717 Q53.053 -21.887 53.849 -25.072 Q56.328 -34.806 58.738 -44.437 Q61.148 -54.067 63.909 -63.831 Q58.189 -55.448 52.666 -47.262 Q47.143 -39.076 41.342 -30.929 Q39.549 -28.356 40.338 -25.382 Q41.127 -22.409 43.987 -21.028 Z"/></g><g id="Semibold-S" transform="matrix(1 0 0 1 1998.1 696)"><path d="M13.778 -4.93 Q11.088 -9.814 9.303 -15.094 Q7.517 -20.372 7.517 -25.959 Q7.517 -34.233 10.655 -41.43 Q13.794 -48.626 19.213 -53.979 Q24.633 -59.331 31.92 -62.431 Q39.207 -65.53 47.382 -65.53 Q49.535 -65.53 51.687 -65.286 Q53.839 -65.043 55.955 -64.573 L49.66 -55.722 Q49.098 -55.798 48.522 -55.831 Q47.944 -55.864 47.382 -55.864 Q34.791 -55.864 25.987 -47.056 Q17.182 -38.249 17.182 -25.762 Q17.182 -22.888 17.718 -20.116 Q18.255 -17.344 19.228 -14.596 H75.298 Q76.272 -17.344 76.856 -20.12 Q77.442 -22.895 77.442 -25.737 Q77.442 -32.233 74.721 -38.075 Q72 -43.918 67.107 -48.245 L69.916 -58.613 Q78.012 -53.008 82.588 -44.398 Q87.163 -35.787 87.108 -25.959 Q87.108 -20.418 85.349 -15.116 Q83.592 -9.814 80.748 -4.93 H13.778 Z M44.158 -21.285 Q47.172 -19.848 50.135 -21.018 Q53.097 -22.187 53.935 -25.329 Q56.413 -34.591 58.631 -43.814 Q60.848 -53.039 63.266 -62.416 Q57.588 -54.59 52.216 -46.813 Q46.843 -39.034 41.342 -31.229 Q39.549 -28.643 40.402 -25.654 Q41.255 -22.666 44.158 -21.285 Z"/></g><g id="Medium-S" transform="matrix(1 0 0 1 1701.85 696)"><path d="M14.421 -6.024 Q11.861 -10.651 10.252 -15.673 Q8.643 -20.694 8.643 -25.959 Q8.643 -34.012 11.701 -41.013 Q14.758 -48.016 20.017 -53.207 Q25.276 -58.399 32.369 -61.417 Q39.461 -64.436 47.415 -64.436 Q49.45 -64.436 51.483 -64.209 Q53.518 -63.982 55.537 -63.576 L50.142 -56.076 Q49.453 -56.184 48.779 -56.217 Q48.104 -56.25 47.415 -56.25 Q34.63 -56.25 25.729 -47.346 Q16.828 -38.442 16.828 -25.762 Q16.828 -22.778 17.396 -19.901 Q17.965 -17.023 19.002 -14.21 H75.556 Q76.593 -17.023 77.211 -19.909 Q77.828 -22.795 77.828 -25.751 Q77.828 -32.426 75.027 -38.397 Q72.226 -44.368 67.14 -48.758 L69.467 -57.583 Q77.273 -52.14 81.655 -43.802 Q86.037 -35.466 86.014 -25.959 Q86.014 -20.712 84.416 -15.682 Q82.819 -10.651 80.137 -6.024 H14.421 Z M44.287 -21.479 Q47.269 -20.074 50.199 -21.243 Q53.128 -22.412 53.999 -25.522 Q56.479 -34.43 58.55 -43.349 Q60.622 -52.266 62.784 -61.355 Q57.138 -53.947 51.878 -46.474 Q46.617 -39.001 41.342 -31.454 Q39.549 -28.859 40.45 -25.859 Q41.351 -22.859 44.287 -21.479 Z"/></g><g id="Regular-S" transform="matrix(1 0 0 1 1405.73 696)"><path d="M14.892 -6.826 Q12.427 -11.264 10.947 -16.097 Q9.468 -20.929 9.468 -25.959 Q9.468 -33.849 12.467 -40.709 Q15.465 -47.567 20.607 -52.641 Q25.748 -57.715 32.697 -60.674 Q39.647 -63.634 47.439 -63.634 Q49.386 -63.634 51.334 -63.419 Q53.282 -63.204 55.23 -62.845 L50.496 -56.336 Q49.712 -56.467 48.967 -56.5 Q48.223 -56.533 47.439 -56.533 Q34.512 -56.533 25.541 -47.558 Q16.569 -38.583 16.569 -25.762 Q16.569 -22.698 17.161 -19.742 Q17.753 -16.787 18.837 -13.927 H75.744 Q76.829 -16.787 77.47 -19.755 Q78.111 -22.722 78.111 -25.762 Q78.111 -32.567 75.251 -38.633 Q72.391 -44.698 67.164 -49.136 L69.136 -56.829 Q76.73 -51.503 80.971 -43.367 Q85.212 -35.23 85.212 -25.959 Q85.212 -20.929 83.733 -16.097 Q82.253 -11.264 79.689 -6.826 H14.892 Z M44.381 -21.62 Q47.34 -20.239 50.246 -21.408 Q53.152 -22.577 54.047 -25.663 Q56.525 -34.313 58.492 -43.007 Q60.457 -51.7 62.43 -60.577 Q56.808 -53.476 51.63 -46.227 Q46.452 -38.978 41.342 -31.619 Q39.549 -29.017 40.486 -26.009 Q41.422 -23 44.381 -21.62 Z"/></g><g id="Light-S" transform="matrix(1 0 0 1 1109.75 696)"><path d="M16.068 -8.798 Q13.83 -12.782 12.616 -17.119 Q11.403 -21.457 11.403 -25.959 Q11.403 -33.44 14.246 -39.939 Q17.09 -46.438 21.965 -51.246 Q26.839 -56.053 33.429 -58.857 Q40.019 -61.661 47.401 -61.661 Q48.969 -61.661 50.5 -61.522 Q52.031 -61.382 53.599 -61.138 L50.192 -56.373 Q49.476 -56.48 48.797 -56.506 Q48.116 -56.533 47.401 -56.533 Q34.474 -56.533 25.502 -47.558 Q16.532 -38.583 16.532 -25.762 Q16.532 -22.698 17.123 -19.742 Q17.715 -16.787 18.8 -13.927 H75.744 Q76.829 -16.787 77.47 -19.755 Q78.111 -22.722 78.111 -25.762 Q78.111 -32.5 75.308 -38.504 Q72.504 -44.509 67.353 -48.947 L68.908 -54.515 Q75.706 -49.455 79.492 -41.963 Q83.277 -34.472 83.24 -25.959 Q83.24 -21.498 82.044 -17.14 Q80.85 -12.782 78.627 -8.798 H16.068 Z M44.533 -22.226 Q47.151 -20.96 49.695 -21.998 Q52.24 -23.036 53.022 -25.777 Q55.387 -34.009 57.41 -42.247 Q59.432 -50.486 61.633 -58.908 Q56.467 -51.958 51.725 -44.955 Q46.984 -37.953 42.1 -30.898 Q40.535 -28.637 41.282 -26.046 Q42.029 -23.456 44.533 -22.226 Z"/></g><g id="Thin-S" transform="matrix(1 0 0 1 814.015 696)"><path d="M17.245 -10.771 Q15.234 -14.299 14.286 -18.142 Q13.337 -21.985 13.337 -25.959 Q13.337 -33.031 16.026 -39.17 Q18.713 -45.308 23.322 -49.85 Q27.931 -54.391 34.16 -57.04 Q40.39 -59.689 47.363 -59.689 Q48.552 -59.689 49.666 -59.626 Q50.779 -59.562 51.967 -59.431 L49.889 -56.412 Q49.241 -56.493 48.626 -56.512 Q48.011 -56.533 47.363 -56.533 Q34.436 -56.533 25.465 -47.558 Q16.493 -38.583 16.493 -25.762 Q16.493 -22.698 17.085 -19.742 Q17.677 -16.787 18.761 -13.927 H75.744 Q76.829 -16.787 77.47 -19.755 Q78.111 -22.722 78.111 -25.762 Q78.111 -32.433 75.364 -38.375 Q72.619 -44.318 67.543 -48.756 L68.68 -52.201 Q74.682 -47.406 78.012 -40.56 Q81.343 -33.713 81.267 -25.959 Q81.267 -22.068 80.357 -18.183 Q79.446 -14.299 77.565 -10.771 H17.245 Z M44.685 -22.834 Q46.96 -21.681 49.144 -22.588 Q51.326 -23.496 51.998 -25.891 Q54.25 -33.705 56.329 -41.489 Q58.409 -49.272 60.837 -57.238 Q56.126 -50.441 51.82 -43.685 Q47.515 -36.929 42.859 -30.177 Q41.521 -28.258 42.078 -26.085 Q42.637 -23.911 44.685 -22.834 Z"/></g><g id="Ultralight-S" transform="matrix(1 0 0 1 517.792 696)"><path d="M17.95 -11.954 Q16.076 -15.209 15.287 -18.756 Q14.498 -22.301 14.498 -25.959 Q14.498 -32.785 17.093 -38.709 Q19.688 -44.631 24.136 -49.013 Q28.585 -53.394 34.599 -55.95 Q40.613 -58.505 47.34 -58.505 Q48.302 -58.505 49.165 -58.488 Q50.028 -58.47 50.989 -58.407 L49.707 -56.434 Q49.1 -56.5 48.524 -56.516 Q47.947 -56.533 47.34 -56.533 Q34.413 -56.533 25.442 -47.558 Q16.47 -38.583 16.47 -25.762 Q16.47 -22.698 17.062 -19.742 Q17.654 -16.787 18.739 -13.927 H75.744 Q76.829 -16.787 77.47 -19.755 Q78.111 -22.722 78.111 -25.762 Q78.111 -32.393 75.399 -38.298 Q72.687 -44.205 67.657 -48.643 L68.544 -50.813 Q74.067 -46.177 77.125 -39.717 Q80.182 -33.257 80.084 -25.959 Q80.084 -22.409 79.344 -18.809 Q78.604 -15.209 76.928 -11.954 H17.95 Z M44.776 -23.198 Q46.847 -22.113 48.812 -22.942 Q50.779 -23.771 51.384 -25.959 Q53.566 -33.524 55.681 -41.034 Q57.794 -48.544 60.358 -56.237 Q55.92 -49.531 51.877 -42.923 Q47.833 -36.315 43.314 -29.745 Q42.113 -28.03 42.557 -26.107 Q43.001 -24.184 44.776 -23.198 Z"/></g></g></svg>