<svg xmlns="http://www.w3.org/2000/svg" height="24" viewBox="0 -960 960 960" width="24"><path d="M458.3-96.04 155-324.13q-55.52-41.96-73.65-108.76-18.13-66.81 6.56-131.89l111.05-288.18q3.56-9.13 10.84-13.63 7.29-4.5 15.85-4.5 9.13 0 16.91 5.07 7.79 5.06 11.35 15.63l75.22 229.09h301.74l75.22-229.09q3.56-10.57 11.35-15.63 7.78-5.07 16.91-5.07 8.56 0 15.85 4.5 7.28 4.5 10.84 13.63l110.05 288.18q24.69 65.08 6.28 131.89-18.41 66.8-73.93 108.76L499.7-96.04q-9.13 7.13-20.7 7.13-11.57 0-20.7-7.13Z"/></svg>