<svg xmlns="http://www.w3.org/2000/svg" height="40" viewBox="0 -960 960 960" width="40"><path d="M458.33-86.88 147.49-320.52Q90.17-364 71.5-431.9q-18.67-67.9 7.22-135.01l114.09-295.64q3.3-9.22 10.35-13.5 7.05-4.28 15.94-4.28 9.89 0 17.48 5.41 7.59 5.42 11.85 15.68l77.26 234.57h308.98l77.22-234.5q3.94-10.33 11.62-15.75 7.67-5.41 17.39-5.41 8.89 0 15.94 4.28 7.05 4.28 10.35 13.5l113.1 295.64q25.54 66.98 6.88 134.95Q868.5-364 811.4-320.52L500.22-86.92q-9.22 7.25-20.97 7.25-11.75 0-20.92-7.21Z"/></svg>