<svg xmlns="http://www.w3.org/2000/svg" height="20" viewBox="0 -960 960 960" width="20"><path d="M226-301.87V-226v-508 432.13ZM658-98H300q-85.64 0-143.82-58.18Q98-214.36 98-300v-360q0-85 58.18-143.5T300-862h165v128H300.01q-31.61 0-52.81 22.33Q226-689.35 226-658v356q0 31.17 21.2 53.59Q268.4-226 300-226h358q31.35 0 53.67-22.41Q734-270.83 734-301.87V-465h128v165q0 85.64-59.89 143.82Q742.21-98 658-98Zm127.75-502q-6.19 0-8.25-6-14.5-64-61.76-111-47.25-47-111.33-62.08Q599-780.89 599-787q0-7.44 5.73-8.5Q668-811 715.41-857.85q47.41-46.86 62.9-110.85 1.94-6.3 9.19-6.3 6.5 0 6.5 6 15.9 63.63 63.14 110.36 47.23 46.74 110.13 63.14 5.73 1.06 5.73 8.5 0 6.37-5.77 8.41-63.65 14.75-110.91 61.64-47.25 46.88-62.44 111.31-.91 5.64-8.13 5.64Z"/></svg>