<svg xmlns="http://www.w3.org/2000/svg" height="24" viewBox="0 -960 960 960" width="24"><path d="M210-269.87V-210v-540 480.13ZM690-74H268q-81.64 0-137.82-56.18Q74-186.36 74-268v-424q0-81 56.18-137.5T268-886h174v136H268.01q-25.01 0-41.51 17.62Q210-714.75 210-690v420q0 24.57 16.5 42.29Q243-210 268-210h422q24.75 0 42.38-17.71Q750-245.43 750-269.87V-442h136v174q0 81.64-57.89 137.82Q770.21-74 690-74Zm91.75-510q-6.19 0-8.25-6-16.5-68-66.76-118-50.25-50-117.97-66.85Q583-776.89 583-783q0-7.44 5.73-8.5Q656-809 706.41-858.85q50.41-49.86 67.68-117.5Q776.25-983 783-983q6 0 7 6 17.06 68.04 67.51 117.99 50.45 49.95 117.76 67.51 5.73 1.06 5.73 8.5 0 6.37-5.77 8.41-67.65 16.75-117.91 66.64Q807.07-658.07 790-590q-1.03 6-8.25 6Z"/></svg>