<svg xmlns="http://www.w3.org/2000/svg" height="40" viewBox="0 -960 960 960" width="40"><path d="M186.01-269.14v83.13-587.98V-269.14ZM691.93-96.75H268.32q-71.73 0-121.65-49.92T96.75-268.32v-424.03q0-71.29 49.92-121.17 49.92-49.89 121.65-49.89h216.27v89.42H268.04q-34.38 0-58.2 24.16-23.83 24.15-23.83 57.9v422.37q0 34.71 23.75 59.13t58.56 24.42h423.61q33.75 0 57.9-24.42 24.16-24.42 24.16-59v-215.16h89.42v216.27q0 71.73-50.24 121.65T691.93-96.75Zm79.45-491.95q-5.88 0-7.85-5.82-15.64-62.38-61.33-108.14-45.69-45.77-107.94-62.01-5.74-1.99-5.74-7.98 0-7.04 5.61-8.02 62.17-15.83 107.84-61.24 45.67-45.42 61.95-107.6 2.04-6.13 8.29-6.13 6.08 0 7.02 5.82 16.27 62.43 62.02 108.01 45.74 45.58 108.18 61.85 5.64.99 5.64 7.86 0 5.89-5.65 7.88-62.45 16.08-108.18 61.66-45.73 45.58-62.01 108.04-.98 5.82-7.85 5.82Z"/></svg>