<svg xmlns="http://www.w3.org/2000/svg" height="20" viewBox="0 -960 960 960" width="20"><path d="M210-307.03V-210v-540 442.97ZM652.46-132H306.15q-73.61 0-123.88-50.27Q132-232.54 132-306.15v-347.31q0-73.45 50.27-123.99Q232.54-828 306.15-828h178.31v78H306.17q-41.15 0-68.66 28.65Q210-692.7 210-652.46v345.31q0 41.13 27.51 69.14Q265.02-210 306.15-210h346.31q40.24 0 68.89-28.01T750-307.03v-177.43h78v178.31q0 73.61-51.22 123.88Q725.57-132 652.46-132Zm114.9-465.69q-6.18 0-8.25-6-13.73-58.31-55.88-100.47-42.16-42.16-100.9-56.68-5.64-1.84-5.64-8.02 0-7.22 6-8.25Q661-790.85 703.1-832.89q42.11-42.04 56.61-100.62 1.9-6.03 8.9-6.03 7.39 0 7 6 15.14 57.94 57.06 99.87 41.93 41.92 99.87 57.06 6 1.03 6 8.25 0 6.18-6 8.25-58.31 13.73-100.47 55.88-42.16 42.16-56.57 100.9-.92 5.64-8.14 5.64Z"/></svg>