<svg xmlns="http://www.w3.org/2000/svg" height="20" viewBox="0 -960 960 960" width="20"><path d="M210-313.18V-210v-540 436.82ZM645.92-152H312.31q-68.23 0-114.27-46.04Q152-244.08 152-312.31v-334.61q0-67.9 46.04-114.49Q244.08-808 312.31-808h170.61v58h-170.6q-43.69 0-73 30.57Q210-688.85 210-645.92v332.61q0 43.68 29.32 73.49Q268.63-210 312.31-210h333.61q42.93 0 73.51-29.82Q750-269.63 750-313.18v-169.74h58v170.61q0 68.23-47.26 114.27Q713.48-152 645.92-152Zm111.06-443.38q-6.19 0-8.25-6-12.96-55.62-52.81-95.47t-95.89-53.6q-5.65-1.84-5.65-8.03 0-7.22 6-8.25 55.62-12.96 95.42-52.7 39.79-39.74 53.52-95.62 1.91-6.03 8.91-6.03 7.77 0 7 6 14.37 55.25 53.98 94.87 39.62 39.61 94.87 53.98 6 1.03 6 8.25 0 6.19-6 8.25-55.62 12.96-95.47 52.81t-53.5 95.89q-.91 5.65-8.13 5.65Z"/></svg>