<svg xmlns="http://www.w3.org/2000/svg" height="20" viewBox="0 -960 960 960" width="20"><path d="M782.13-600q-6.08 0-8.11-6-14.5-62.7-60.54-108.59-46.04-45.9-108.61-61.13-5.87-2.01-5.87-8.05 0-7.22 5.85-8.25 62.28-15.07 108.39-60.83 46.1-45.77 61.34-108.48 2.08-6.28 8.44-6.28 7.5 0 7.5 6 16.06 62.74 61.71 108.1 45.64 45.36 107.97 61.99 5.84 1.03 5.84 8.25 0 6.19-5.87 8.2-62.5 14.64-108.54 60.47-46.04 45.84-61.39 108.6-1.01 6-8.11 6Zm-123.7 495.91H300q-82.75 0-139.33-56.58-56.58-56.58-56.58-139.33v-360q0-82.39 56.58-139.15 56.58-56.76 139.33-56.76h210.61q-45.35 73.26-34.05 159.69 11.31 86.44 72.27 147.39 60.95 60.96 147.39 72.27 86.43 11.3 159.69-34.05V-300q0 82.75-57.71 139.33-57.71 56.58-139.77 56.58Z"/></svg>