<svg xmlns="http://www.w3.org/2000/svg" height="20" viewBox="0 -960 960 960" width="20"><path d="M220.04-321.89V-220.04v-519.92V-321.89Zm417.8 149.81H321.89q-63.1 0-106.45-43.36-43.36-43.35-43.36-106.45v-315.95q0-62.72 43.36-106.4 43.35-43.68 106.45-43.68h185.42V-739.96H321.89q-41.84 0-71.84 30.12-30.01 30.12-30.01 71.71v316.5q0 41.58 30.01 71.58 30 30.01 71.58 30.01h316.5q41.59 0 71.71-30.01 30.12-30 30.12-71.84v-185.42H787.92v185.42q0 63.1-43.68 106.45-43.68 43.36-106.4 43.36Zm90.98-398.38q-5.96 0-7.95-5.94-13.05-53.85-51.76-92.71-38.7-38.86-93.05-52.01-5.6-1.74-5.6-7.63 0-6.92 5.94-7.91 53.92-13.21 92.75-51.87 38.84-38.66 51.98-92.95 1.74-5.6 8.13-5.6 6.81 0 7.4 5.95 14.06 53.31 52.54 91.98t91.92 52.46q5.96.98 5.96 7.85 0 5.94-5.95 7.92-53.72 13.06-92.58 51.76-38.86 38.7-51.97 93.1-.87 5.6-7.76 5.6Z"/></svg>