<svg xmlns="http://www.w3.org/2000/svg" height="40" viewBox="0 -960 960 960" width="40"><path d="M192.63-285.66v93.03-574.74V-285.66Zm482.13 140.92H285.58q-58.53 0-99.68-41.16-41.16-41.15-41.16-99.68v-389.18q0-58.11 41.16-99.3 41.15-41.2 99.68-41.2h210.93v47.89H285.59q-38.22 0-65.59 27.03-27.37 27.03-27.37 65.08v389.94q0 37.92 27.39 65.3 27.38 27.39 65.3 27.39h389.94q38.05 0 65.08-27.41t27.03-65.62v-210.85h47.89v210.93q0 58.53-41.2 99.68-41.19 41.16-99.3 41.16Zm58.02-420.8q-5.88 0-7.85-5.76-14.77-56.78-55.7-97.89-40.93-41.11-97.86-55.77-5.83-1.92-5.83-7.71 0-6.74 5.76-7.7 56.96-15.19 97.98-55.96t55.65-97.49q1.93-5.82 7.7-5.82 6.21 0 7.74 5.81 15.07 56.38 56 97.49 40.93 41.12 97.49 55.78 5.78.97 5.78 7.72 0 5.84-5.76 7.78-56.43 14.8-97.47 55.73-41.03 40.92-55.83 98.01-.98 5.78-7.8 5.78Z"/></svg>