<svg xmlns="http://www.w3.org/2000/svg" height="24" viewBox="0 -960 960 960" width="24"><path d="M202.87-278.57v75.7-554.26V-278.57Zm478.56 166.7h-403.1q-68.87 0-117.67-48.79-48.79-48.8-48.79-117.67v-403.34q0-68.87 48.79-117.67 48.8-48.79 117.67-48.79h195.02v91H278.33q-31.33 0-53.4 22.24-22.06 22.23-22.06 53.46v402.86q0 31.23 22.06 53.46 22.07 22.24 53.4 22.24h403.1q31.23 0 53.46-22.24 22.24-22.23 22.24-53.46v-194.78h91v195.02q0 68.87-48.97 117.67-48.96 48.79-117.73 48.79Zm65.56-451.72q-6.04 0-8.06-6-16.23-62.19-61.81-107.77-45.58-45.57-107.77-61.69-6-2.02-6-8.06 0-7.06 6-8.06 62.19-16.24 107.77-61.82t61.79-107.66q2.02-6.11 8.14-6.11 6.12 0 7.88 6 16.24 62.19 61.82 107.77t107.77 61.7q6 1 6 8.06 0 6.04-6 8.06-62.19 16.24-107.77 61.81-45.58 45.58-61.7 107.77-1 6-8.06 6Z"/></svg>