<svg xmlns="http://www.w3.org/2000/svg" height="48" viewBox="0 -960 960 960" width="48"><path d="M184.35-270.13v85.78-591.3V-270.13Zm507.52 168.96H269.13q-70.52 0-119.24-48.72t-48.72-119.24v-422.74q0-69.7 48.72-118.61t119.24-48.91h224.52v83.74H268.71q-34.79 0-59.58 24.79-24.78 24.8-24.78 58.99v421.17q0 35.21 24.67 60.78 24.66 25.57 60.11 25.57h422.74q34.19 0 58.99-25.57 24.79-25.57 24.79-60.65v-223.08h83.74v224.52q0 70.52-49.26 119.24t-118.26 48.72Zm77.7-488.57q-5.74 0-7.65-5.73-15.12-61.3-60.22-106.44-45.1-45.15-105.89-60.93-5.51-1.96-5.51-7.83 0-6.93 5.31-7.88 60.71-15.56 105.76-60.14 45.05-44.58 61-105.64 1.99-6.06 8.17-6.06 5.76 0 6.67 5.73 15.88 61.43 60.91 106.27 45.02 44.83 106.3 60.65 5.41.95 5.41 7.62 0 5.73-5.43 7.65-61.4 15.93-106.35 60.74-44.94 44.8-60.84 106.26-.96 5.73-7.64 5.73Z"/></svg>