<svg xmlns="http://www.w3.org/2000/svg" height="24" viewBox="0 -960 960 960" width="24"><path d="M485.5-251v-455h150q122 0 183.75 57T881-478.5q0 113-61.25 170.25T635.5-251h-150ZM599-356h30.5q71.5 0 105-29t33.5-93.5q0-64.5-33.5-93.25t-105-28.75H599V-356ZM236.5-241Q167-241 123-277.75T68.5-384L178-403.5q5 27.5 20.75 43.25T242-344.5q24 0 38.75-12.5t14.75-35q0-26-17.25-38.75T232.5-443.5H197V-536h32.5q29 0 42-9.25t13-33.75q0-18.5-12.25-29.5t-33.25-11q-18 0-33.5 11.75t-19 29.25l-107-11q13-57 55.5-91.75T240.5-716q68.5 0 110 35.75T392-591q0 26.5-10.75 48.5t-37.25 43v6q33 17.5 48 42.25T407-384q0 71-48 107t-122.5 36Z"/></svg>