<svg xmlns="http://www.w3.org/2000/svg" height="40" viewBox="0 -960 960 960" width="40"><path d="M487.56-299.95v-361.13h120.95q85.18 0 128.78 48.37 43.61 48.38 43.61 132.66 0 84.79-42.8 132.45-42.79 47.65-129.59 47.65H487.56Zm54.31-50.25h64.1q58.8 0 89.79-35.22 30.98-35.22 30.98-94.63t-30.98-94.71q-30.99-35.29-89.79-35.29h-64.1v259.85ZM302.1-291.49q-48.69 0-79.5-25.29-30.81-25.3-37.86-74.58l52.41-12.82q4.67 30.1 22.48 46.55 17.81 16.45 47.06 16.45 27.77 0 43.98-16.87 16.2-16.87 16.2-45.41 0-29.8-20-45.76-20-15.96-49.72-15.96h-29.07v-48.03h27.69q26.54 0 43.58-13.79 17.03-13.79 17.03-41.26 0-22.95-15.28-38.42-15.28-15.47-40.97-15.47-22.51 0-39.16 14.42-16.64 14.42-19.87 36.96l-51.18-6.1q5.93-38.39 37.04-65.45 31.12-27.06 74.58-27.06 47.54 0 77.87 28.41 30.33 28.41 30.33 67.07 0 24.16-11.07 44.43-11.08 20.26-36.41 34.6v3.97q29.1 13.03 43.8 33.91 14.71 20.89 14.71 55.63 0 52.46-32.87 81.17-32.87 28.7-85.8 28.7Z"/></svg>