<svg xmlns="http://www.w3.org/2000/svg" height="40" viewBox="0 -960 960 960" width="40"><path d="M486.07-259.81v-437.61h145.7q110.69 0 168.21 55.57 57.51 55.57 57.51 163.85t-56.87 163.23q-56.88 54.96-168.85 54.96h-145.7Zm94-87.73h46.61q69.07 0 103.46-31.97 34.4-31.97 34.4-98.68 0-66.71-34.4-99.3-34.39-32.58-103.46-32.58h-46.61v262.53Zm-328.22 97.92q-64.76 0-105.15-33.81-40.38-33.82-49.47-98.73l90.2-17.04q4.67 29.33 22.12 46.16Q227-336.2 256.56-336.2q27.38 0 43.53-14.68 16.14-14.67 16.14-41.48 0-28.38-18.9-42.55-18.9-14.16-49.71-14.16h-33.98v-79.32h31.32q29.08 0 44.49-11.62 15.41-11.63 15.41-38.42 0-20.54-13.72-33.9-13.72-13.35-38.2-13.35-21.24 0-37.81 12.88-16.57 12.87-20 33.12l-89.14-9.42q9.94-51.36 50.36-84.79 40.43-33.43 97.88-33.43 62.35 0 101.61 33.79t39.26 84.91q0 28.37-11.61 50.01-11.62 21.64-37.71 40.62v5.19q32.99 16.28 48.39 41.15 15.39 24.87 15.39 64.33 0 67.39-44.06 102.54-44.07 35.16-113.65 35.16Z"/></svg>