<svg xmlns="http://www.w3.org/2000/svg" height="40" viewBox="0 -960 960 960" width="40"><path d="M482.26-277.72v-401.99h133.23q96.08 0 147.18 51.85 51.11 51.86 51.11 148.93 0 97.24-51.45 149.23-51.45 51.98-146.84 51.98H482.26Zm71.38-70.19h60.05q65.85 0 97.78-31.67 31.92-31.67 31.92-99.26t-31.92-99.18q-31.93-31.59-97.78-31.59h-60.05v261.7Zm-282.1 79.27q-57.29 0-92.42-30.18-35.13-30.19-42.77-86.73l69.24-15.38q5 29.17 21.91 46.13 16.92 16.97 45.75 16.97 29.87 0 48.02-15.82 18.14-15.81 18.14-44.52 0-28.16-18.2-42.05-18.2-13.89-50.91-13.89h-29.77v-67.43h26.44q27.75 0 43.64-12.61 15.88-12.61 15.88-37.59 0-23.54-14.22-36.05-14.23-12.51-41.76-12.51-23.63 0-39.66 11.25-16.02 11.24-20.38 33.27l-66.89-7.89q7.88-46.1 43.29-75.36 35.41-29.25 83.88-29.25 55.88 0 90.93 30.17 35.06 30.18 35.06 76.05 0 28.94-10.46 49.38-10.47 20.44-34 36.72v3.22q29.36 14.71 43.65 37.54t14.29 57.91q0 61.39-38.23 95.02-38.24 33.63-100.45 33.63Z"/></svg>