<svg xmlns="http://www.w3.org/2000/svg" height="24" viewBox="0 -960 960 960" width="24"><path d="M492.74-248.13v-460.31h152.91q125.05 0 187.5 57.33 62.46 57.33 62.46 173.11 0 115.78-61.67 172.83-61.68 57.04-188.29 57.04H492.74Zm118.43-106.74h26.35q71.83 0 105.74-29.78T777.17-478q0-63.57-33.91-93.63-33.91-30.07-105.74-30.07h-26.35v246.83ZM239.04-237.56q-71.52 0-116.85-37.05-45.32-37.04-55.45-108.13l113.3-19.13q4 28 20.79 43.5 16.78 15.5 44.34 15.5 23 0 36.44-12.15 13.43-12.15 13.43-34.59 0-26-17.56-40.5-17.57-14.5-46-14.5h-37.7v-90.91h35.7q30.13 0 43.35-10.44 13.21-10.43 13.21-34.56 0-17.87-12.71-30.37-12.72-12.5-32.16-12.5-16.87 0-32.43 13.06-15.57 13.07-19 30.94L77.87-590.52q12.69-59.83 56.02-94.15Q177.22-719 244.17-719q68.53 0 110.35 35.54 41.83 35.55 41.83 92.37 0 26-12.29 48.35-12.28 22.35-39.41 43.04v7.57q34.7 15.7 50.76 43.04 16.07 27.35 16.07 70.61 0 70.52-48.68 105.72-48.67 35.2-123.76 35.2Z"/></svg>