<svg xmlns="http://www.w3.org/2000/svg" height="48" viewBox="0 -960 960 960" width="48"><path d="M482.74-265.65v-426.26h142.09q103.52 0 158.56 54.69 55.05 54.7 55.05 159.22t-54.48 158.44q-54.48 53.91-159.13 53.91H482.74Zm81.78-78.22h56.74q67.7 0 102.33-33.06 34.63-33.07 34.63-101.35 0-68.29-34.63-102.13-34.63-33.85-102.33-33.85h-56.74v270.39Zm-306.26 88.22q-61.39 0-99.3-32.2-37.92-32.19-46.48-94.02l78.65-16q5 30 22.78 47.5 17.79 17.5 48.35 17.5 29.57 0 47.07-15.93 17.5-15.94 17.5-44.94 0-29.56-19.57-43.56-19.56-14-51.56-14h-32.14v-73.53h29.14q28.56 0 45.06-12.21 16.5-12.22 16.5-40.35 0-21.87-14.22-35.65-14.21-13.79-41.21-13.79-23.44 0-40.5 12.79-17.07 12.78-20.5 34.21l-77.79-8.56q8.57-47.13 47.55-80.11 38.97-32.98 91.67-32.98 59.26 0 97.24 32.91 37.98 32.92 37.98 81.18 0 29.56-11.28 50.85-11.29 21.28-36.85 39.41v4q32.13 16.56 47.19 40.2 15.07 23.63 15.07 61.19 0 65.83-41.76 100.96-41.76 35.13-108.59 35.13Z"/></svg>