<svg xmlns="http://www.w3.org/2000/svg" height="20" viewBox="0 -960 960 960" width="20"><path d="M491.74-269.13v-419.31h140.19q115.77 0 172.72 51.83 56.96 51.83 56.96 158.61 0 106.78-56.17 157.83-56.18 51.04-173.56 51.04H491.74Zm110.43-98.74h21.81q66.37 0 96.28-25.78 29.91-25.78 29.91-84.35 0-58.57-29.91-84.63-29.91-26.07-96.28-26.07h-21.81v220.83ZM260.04-258.56q-66.2 0-108.18-33.55-41.99-33.54-51.12-99.63l106.3-18.13q3.61 24.73 19.09 38.36 15.48 13.64 39.86 13.64 19.92 0 31.49-10.15 11.56-10.15 11.56-31.06 0-24.53-15.74-36.53t-40.82-12h-33.7v-84.91h31.2q25.63 0 38.85-8.44 13.21-8.43 13.21-31.06 0-16.37-11.57-27.37t-29.11-11q-15.06 0-29.62 12.56-14.57 12.57-17 27.44L110.87-580.6q12.69-53.75 52.4-86.07Q202.97-699 264.17-699q63.2 0 101.69 32.75 38.49 32.76 38.49 84.21 0 22.95-10.79 41.8-10.78 18.85-35.91 40.32v7.79q31.7 15.7 46.26 38.54 14.57 22.85 14.57 64.11 0 65.69-44.82 98.3-44.81 32.62-113.62 32.62Z"/></svg>