<svg xmlns="http://www.w3.org/2000/svg" height="24" viewBox="0 -960 960 960" width="24"><path d="M485.35-299.19v-361.73H605.5q83.61 0 128.19 47.59 44.58 47.6 44.58 132.87 0 85.15-44.89 133.21-44.88 48.06-127.88 48.06H485.35Zm54.8-54.27h64.31q60.65 0 89.98-32.41 29.33-32.4 29.33-94.5 0-62.09-29.33-94.34t-89.98-32.25h-64.31v253.5Zm-242.8 62.5q-50.16 0-81.42-26.29-31.27-26.29-37-75.44l52.99-12.58q4.81 28.46 21.33 44.81 16.52 16.34 44.79 16.34 29.15 0 46.6-16.15 17.44-16.15 17.44-44.38 0-27.16-18.1-42.75-18.09-15.6-50.02-15.6h-27.77v-52.08h25.35q27.04 0 42.88-13.69 15.85-13.69 15.85-37.54 0-23.84-14.71-37.29-14.71-13.44-41.06-13.44-23.77 0-38.44 12-14.67 12-19.79 34.46L185-577.04q6.27-42.65 36.21-67.38 29.95-24.73 73.6-24.73 48.34 0 78.98 26.11 30.63 26.12 30.63 69.04 0 27.58-11.25 46.79t-32.94 32.67v2.42q27.04 11.74 41.54 34.75 14.5 23.02 14.5 53.98 0 53.24-32.48 82.83-32.48 29.6-86.44 29.6Z"/></svg>