<svg xmlns="http://www.w3.org/2000/svg" height="48" viewBox="0 -960 960 960" width="48"><path d="M531.35-351.77q18.84-19.35 17.65-46.52-1.19-27.17-23.65-41.71-74.54-48.42-150.39-104.12Q299.12-599.81 226.58-652q50.8 73.15 107.46 148.62 56.65 75.46 107.46 147.61 15.04 22.46 42.27 23.02 27.23.56 47.58-19.02ZM199-201.54q-9.81 0-17.5-3.58-7.69-3.57-13.35-11.76-23.3-41.77-34.9-88.41-11.6-46.63-11.6-96.13-.5-73.96 26.14-135.7 26.63-61.73 78.79-114.88 49.38-50.62 115.65-78.73 66.27-28.12 139-28.12 74.19 0 139.02 28.56 64.83 28.56 113.46 76.98 48.64 48.43 76.89 113.83t28.25 139.6q0 49.11-12.6 94.67t-35.02 85.25q-3.88 8.58-12.85 13.5-8.96 4.92-17 4.92H199Z"/></svg>