<svg xmlns="http://www.w3.org/2000/svg" height="40" viewBox="0 -960 960 960" width="40"><path d="M540-341q26-26 24.33-61-1.66-35-30.54-55.08-81.46-56.59-166.74-112.59-85.29-56-167.38-111 54 83 110 168.17 56 85.17 112.51 167.67 19.15 28.83 55.15 29.66 36 .84 62.67-25.83ZM196.33-160q-19.51 0-35.92-8.83-16.41-8.84-26.74-25.84Q107-242 93.33-294.28q-13.66-52.28-13.66-107.05Q80-462 99.17-518.67q19.16-56.66 54.83-106.66l42 60q-26.33 36-38 78.5-11.67 42.5-11.67 86.16 0 46.78 11.5 90.89t35.84 83.11h573q23-39.33 34.83-82.88 11.83-43.55 11.83-89.78 0-138.34-96.83-236.17-96.83-97.83-235.17-97.83-45.66 0-88.29 13.06Q350.42-707.22 312-684l-61.33-39.33q50-37.34 108.61-57Q417.88-800 481.33-800q83 0 155.5 31.5t126.67 86.33q54.17 54.84 85.33 127.34Q880-482.33 880-399.33q0 54.46-14 105.89-14 51.44-40 98.77-9.67 17-26.52 25.84Q782.63-160 764-160H196.33ZM483-396Z"/></svg>