<svg xmlns="http://www.w3.org/2000/svg" height="48" viewBox="0 -960 960 960" width="48"><path d="M546.52-336.72q25-25.76 24.62-62.4-.38-36.64-31.38-55.88-89-53-177.36-115.48-88.36-62.48-174.6-121.48 57.48 88 119.46 176.74 61.98 88.74 118.46 174.5 18.76 30.76 55.9 31.26t64.9-27.26ZM187.43-142.8q-21.95 0-40.05-10.36-18.1-10.36-29.58-29.08-27.47-49-40.85-103.12-13.38-54.12-13.38-111.88-.77-87.67 31.26-160.34 32.02-72.66 92.97-134.38 58.72-59.47 133.48-92.36 74.76-32.88 160.48-32.88 86.24 0 161.98 33t131.98 90.12q56.24 57.12 88.86 133.86 32.62 76.74 32.62 162.98 0 58-15 112.12-15 54.12-41.24 102.88-10.24 19.2-28.96 29.32-18.72 10.12-39.67 10.12h-584.9Z"/></svg>