<svg xmlns="http://www.w3.org/2000/svg" height="48" viewBox="0 -960 960 960" width="48"><path d="M545-339q25-25 25-60.5t-31.31-55.62Q450-508 360.57-572 271.14-636 184-695q59 88 122.5 177.5t121.77 174.85q17.95 29.62 53.84 30.13Q518-312 545-339ZM192-139q-25.14 0-45.26-11.5Q126.63-162 114-183q-29-49-42-104.06-13-55.07-13-110.99Q59-466 78-530q19-64 63-118l60 79q-29 39-40 82.38-11 43.38-11 88.21 0 43.57 9.5 87.22Q169-267.53 195-229h569.89q23.11-39 34.61-82.48 11.5-43.48 11.5-87.69 0-137.53-96-234.68T480.22-731q-45.77 0-89.18 14.09Q347.63-702.82 308-678l-82-57q55-42 120.65-64 65.66-22 134.5-22 86.63 0 163.19 33.1 76.57 33.1 133.62 90.5Q835-640 868-562.66q33 77.34 33 165.48 0 57.79-15.14 111.93-15.14 54.14-41.13 102.26Q833-160 811.75-149.5 790.49-139 767-139H192Zm297-255Z"/></svg>