<svg xmlns="http://www.w3.org/2000/svg" height="20" viewBox="0 -960 960 960" width="20"><path d="M530-362q14-15 13.5-40.5T523-438q-81-44-150-101T232-651q54 72 111.5 143.5t108.26 140.35q15.33 19.08 37.28 21.12Q511-344 530-362ZM179-212q-10.07 0-18.53-5.5Q152-223 147-231q-17-32.54-23-71.06-6-38.53-6-77.94-2-52 10-102t40-93l33 31q-22 38-30 79.3t-8 84.21q0 33.02 5 63.25Q173-287 182.05-257H777q10-31 16-60.72t6-62.5q0-133.45-92.95-228.12Q613.09-703 479-703q-32.89 0-63.94 5Q384-693 354-679l-39-33q37.72-18.18 80.36-27.09t83.57-8.91q76.48 0 143.27 29 66.8 29 115.3 78T815-524.9q29 67.1 29 143.19 0 39.13-6.5 77.42T811-235q-5.09 10-13.43 16.5-8.35 6.5-17.57 6.5H179Zm314-185Z"/></svg>