<svg xmlns="http://www.w3.org/2000/svg" height="40" viewBox="0 -960 960 960" width="40"><path d="M541.7-341.54q24.68-25.33 23.63-60.28-1.05-34.94-29.63-53.12-83.82-53.5-169.06-111.96-85.23-58.46-167.5-114.14 55.1 82.85 113.56 168.08 58.45 85.24 113.67 167.42 18.67 28.67 53.92 29.42t61.41-25.42ZM198.51-159.8q-20.42 0-37.76-9.17-17.35-9.17-27.82-26.86-26.97-46.72-39.84-98.8-12.87-52.09-12.87-107.13-.25-81.78 30.92-151.86 31.17-70.09 88-127.42 56.17-57.26 128.55-88.09 72.38-30.82 153.4-30.82 82.53 0 155.34 31.52 72.82 31.52 126.9 86.02 54.08 54.5 85.35 127.32 31.27 72.81 31.27 155.33 0 54.63-13.82 105.8-13.83 51.16-39.88 98.13-9.73 17.85-27.57 26.94-17.85 9.09-37.35 9.09H198.51Z"/></svg>