<svg xmlns="http://www.w3.org/2000/svg" height="40" viewBox="0 -960 960 960" width="40"><path d="M541.46-340.85q21.87-22.87 21.1-56.12-.77-33.26-28.1-50.03-85.82-52.72-170.04-114.14-84.21-61.42-166.93-119.88 56.84 84 118.15 168.82t116.67 167.35q17.74 27.54 50.99 28.11 33.24.56 58.16-24.11Zm-351.2 182.18q-18.39 0-33.62-8.46-15.23-8.46-24.84-23.9-26-47.69-39.17-99.93-13.17-52.25-13.17-108.22-.79-83.05 29.64-153.14 30.44-70.09 88.39-128.7Q254.72-738.67 326.1-770q71.39-31.33 154.98-31.33 83.1 0 156.01 31.96t126.99 86.61q54.07 54.66 85.66 128.7 31.59 74.03 31.59 157.14 0 55.25-14.17 106.93-14.16 51.68-39.75 97.42-8.57 15.95-24.26 24.93-15.69 8.97-33.2 8.97H190.26Z"/></svg>