<svg xmlns="http://www.w3.org/2000/svg" height="48" viewBox="0 -960 960 960" width="48"><path d="M536.92-346.58q21.93-22.23 20.83-53.44-1.1-31.21-27.12-47.53-78.48-49.91-158.58-106.76-80.1-56.84-157.01-110.19 52.15 77.58 109.48 157.56 57.33 79.98 109.74 156.81 16.51 25.48 47.87 26.13 31.37.65 54.79-22.58ZM196.5-183.27q-13.71 0-24.98-5.79-11.28-5.79-18.94-17.63-24.66-43.8-36.83-92.98-12.17-49.19-12.17-100.7-.5-54.9 15.4-106.57 15.91-51.67 48.06-97.56l29.81 36.42q-26.89 36.58-38.16 79.77-11.27 43.19-11.27 87.46 0 46.3 10.66 90.9 10.65 44.6 35.59 82.83h572.82q23.28-38.84 34.93-82.84 11.66-44 11.66-89.71 0-138.2-96.6-235.8-96.6-97.61-234.86-97.61-46.85 0-90.71 13.01-43.86 13.02-82.49 37.19l-37.92-26.2q46.46-32.57 100.13-50.21 53.67-17.63 110.99-17.63 77.87 0 146.14 29.9 68.28 29.91 119.22 81.12 50.94 51.21 80.44 119.7 29.5 68.49 29.5 146.47 0 51.61-13.17 99.88-13.17 48.27-37.14 91.56-6.32 12.1-18.23 18.56-11.9 6.46-24.74 6.46H196.5Zm290.96-210.58Z"/></svg>