<svg xmlns="http://www.w3.org/2000/svg" height="40" viewBox="0 -960 960 960" width="40"><path d="M527.33-355.33q17-17 15.5-41.84-1.5-24.83-21.5-38.16-71.66-49-145-103.5Q303-593.33 233-644.33q51 70 106.5 143t105.83 142q14.34 20 38.84 21 24.5 1 43.16-17ZM201.33-212q-7.33 0-13.16-2.67-5.84-2.66-10.84-8.66-22.33-41.34-33.83-86.34t-11.5-93q0-71.66 25.5-131.33Q183-593.67 233-644.33 282-694 346-721t134.67-27q72 0 135.16 27.5Q679-693 726-646t74.5 110.5Q828-472 828-400q0 46.67-11.83 90.67-11.84 44-34.17 82-3.33 7.33-10 11.33t-13.33 4H201.33Z"/></svg>