<svg xmlns="http://www.w3.org/2000/svg" height="24" viewBox="0 -960 960 960" width="24"><path d="M528.92-354.23q18.35-18.85 16.79-45.04-1.56-26.19-22.79-40.69-72.84-50.58-147.44-104.33T229.35-649.73q50.8 71.65 105.52 146.13 54.71 74.48 106.21 145.37 15.54 21.46 42.02 22.4 26.48.95 45.82-18.4ZM206.58-206.04q-11 0-19.66-3.94-8.65-3.94-14.04-12.33-23.53-42.27-35-88.27-11.46-46-11.46-94.5-.27-71.54 25.98-133 26.25-61.46 76.95-111.65 49.61-49.62 114.52-76.87 64.9-27.25 136.13-27.25 73.19 0 137.65 27.81 64.47 27.81 112.47 75.62 48 47.8 75.86 112.21 27.87 64.4 27.87 137.59 0 47.12-11.72 91.56-11.71 44.44-34.9 83.68-5.11 9.53-14.4 14.44-9.29 4.9-19.29 4.9H206.58Z"/></svg>