<svg xmlns="http://www.w3.org/2000/svg" height="20" viewBox="0 -960 960 960" width="20"><path d="M536.15-354q19.54-20.54 18.73-51.88-.8-31.35-25.73-46.27-85.92-50.77-162.3-107.46-76.39-56.7-155.77-114.16 55.84 80 112.42 158.58 56.58 78.57 112.26 156.04 18.4 24.62 47.44 26.35 29.03 1.72 52.95-21.2ZM179.62-180q-18.79 0-34.59-9.5-15.8-9.5-24.49-25.5-20.08-36.52-27.62-79.39-7.53-42.88-7.53-86.84-1.39-61.23 15.53-119.85 16.93-58.61 52.93-108.38l49.61 64.23q-22.61 38-31.84 79.91-9.24 41.92-9.24 84.83 0 33.02 5.62 63.25Q173.62-287 182.64-257H777q10-31 16-60.72t6-62.5q0-133.45-92.95-228.12Q613.09-703 479-703q-32.89 0-64.25 5.62-31.37 5.61-60.75 19.61l-71-50.84q43.87-25.57 94.51-38.48Q428.15-780 478.93-780q82.97 0 155.44 31.46 72.48 31.46 125.59 85.08 53.12 53.61 84.58 126.39Q876-464.3 876-381.71q0 43.82-8.04 86.53-8.04 42.72-29.88 78.64-9.34 16.77-25.04 26.65Q797.35-180 780-180H179.62Zm308.46-220.08Z"/></svg>