<svg xmlns="http://www.w3.org/2000/svg" height="20" viewBox="0 -960 960 960" width="20"><path d="M523.92-369.23q15.35-15.85 14.29-39.54-1.06-23.69-20.29-36.19-70.84-44.58-135.94-92.83t-130.63-96.94q47.8 65.65 97.02 131.63 49.21 65.98 98.46 128.7 14.79 18.63 36.77 20.57 21.98 1.95 40.32-15.4ZM193.58-238.04q-7.89 0-14.01-3.44t-9.69-9.83q-16.53-28.91-21.5-63.74-4.96-34.84-4.96-69.84-1.27-48.16 10.83-94.58 12.1-46.41 39.48-86.72l20.5 20.27q-22.96 37-32.42 77.92t-9.46 83.38q0 30.93 4.92 60.3 4.92 29.36 16.35 57.36h572.82q11.1-28.5 16.79-57.59 5.69-29.08 5.69-60.02 0-128.37-90.59-218.36-90.59-89.99-219.33-89.99-33.84 0-65.96 5.67-32.12 5.67-62 20.52l-25.31-20.96q35.91-16.45 75.05-25.3 39.14-8.86 78.22-8.86 70.62 0 132.37 26.31t107.25 71.62q45.5 45.3 72.36 106.36 26.87 61.05 26.87 130.86 0 35.34-5.72 69.71-5.71 34.37-22.9 62.49-4.18 7.65-10.61 12.06-6.44 4.4-13.18 4.4H193.58ZM488-404.15Z"/></svg>