<svg xmlns="http://www.w3.org/2000/svg" height="40" viewBox="0 -960 960 960" width="40"><path d="M545.93-335.97q25.42-26.1 24.66-62.94-.75-36.85-31.62-56.42-89.7-55.59-178.93-118.27-89.22-62.68-177.05-122.83 58.64 89.15 120.82 179.01 62.18 89.86 120.5 177.64 19.37 30.51 56.62 31.04 37.24.53 65-27.23ZM189.69-136.75q-24.35 0-44.36-11.28-20-11.27-32.16-31.81-28.07-50.08-41.99-105.65-13.92-55.56-13.92-113.43-.51-65.62 19.21-127.39 19.73-61.76 59.44-115.59l56.75 78.2q-25.78 37.26-36.38 79.49-10.6 42.22-10.6 85.61 0 46.27 10.64 90.26 10.64 44 34.39 82.9h578.48q22.45-39.52 34.12-82.79 11.68-43.26 11.68-89.21 0-139.32-97.13-238.43-97.12-99.12-237.11-99.12-44.16 0-86 12.62-41.84 12.61-79.36 35.35l-80.86-54.75q53.22-39.73 116.5-60.56 63.28-20.84 130.18-20.84 87.45 0 164.44 33.58 77 33.58 134.1 91.45 57.1 57.86 90.26 135.64 33.16 77.77 33.16 166.2 0 57.95-15.04 112.56-15.03 54.62-42.14 103.91-11.46 20.93-32.14 32-20.67 11.08-43.52 11.08H189.69Zm297.3-255.65Z"/></svg>