<svg xmlns="http://www.w3.org/2000/svg" height="24" viewBox="0 -960 960 960" width="24"><path d="M537.31-344q19.07-20.08 17.96-50.27-1.12-30.19-24.96-44.04-84.85-52.54-166.12-114.92-81.27-62.39-162.04-121.31 57.7 81 120.35 163.66Q385.15-428.23 440-348q17.15 24.08 46.31 24.96 29.15.89 51-20.96ZM192.23-168q-16.23 0-30-7.5T140.08-196q-25.16-47.38-38.23-98.62-13.08-51.23-13.08-105.84-.77-82.16 27.85-149.66 28.61-67.5 85.53-124.42 57.62-57.61 125.81-87.54Q396.15-792 480-792q81.54 0 153.12 31.42 71.57 31.43 124.3 84.66 52.73 53.23 83.66 125.8Q872-477.54 872-396q0 52.85-13.08 102.96-13.07 50.12-39.77 93.96-7.61 14.54-21.38 22.81T768-168H192.23Z"/></svg>