<svg xmlns="http://www.w3.org/2000/svg" height="40" viewBox="0 -960 960 960" width="40"><path d="M540.67-342.33q24.83-25.34 23.58-60Q563-437 534.67-455.5 453-509 368.92-565.58q-84.09-56.59-164.75-110.92 53.5 81.5 110.08 165.42 56.58 83.91 111.08 164.75 18.67 28.66 53.92 29.41t61.42-25.41ZM198.83-166.5q-18.66 0-34.5-8.25-15.83-8.25-25.5-24.58-26.33-46.17-39.16-97.34Q86.83-347.83 86.83-402q-.16-78.67 31.09-148.83Q149.17-621 204.17-676.5q54.33-55.67 126.75-86.25 72.41-30.58 150.41-30.58 81.17 0 152.67 31 71.5 31 124.67 84.66 53.16 53.67 83.91 125.09 30.75 71.41 30.75 152.58 0 53.83-13.58 104.08t-39.08 96.59q-9.17 16.33-25.42 24.58t-33.92 8.25h-562.5Z"/></svg>