<svg xmlns="http://www.w3.org/2000/svg" height="20" viewBox="0 -960 960 960" width="20"><path d="M533.2-359.04q21.5-22 20.37-53.36-1.14-31.36-26.37-48.38-79.63-51.5-154.7-102.02-75.07-50.53-150.98-103.2 52.41 76.17 102.94 151.98 50.52 75.8 105.74 149.98 18 25 48.25 26.75t54.75-21.75ZM195.02-193.37q-19.91 0-36.82-9.33-16.92-9.32-25.87-27-20.48-34.21-27.1-74.79-6.62-40.58-6.62-82.27-.74-83.59 30.51-154.09T221.52-666q55.15-49.91 118.78-74.9 63.63-24.99 138.46-24.99 79.17 0 149.23 29.6 70.05 29.59 121.63 81.17t81.92 120.88q30.35 69.31 30.35 147.48 0 41.46-7.49 81.78-7.49 40.33-27.7 75.28-10.22 17.68-26.88 27-16.67 9.33-35.82 9.33H195.02Z"/></svg>