<svg xmlns="http://www.w3.org/2000/svg" height="24" viewBox="0 -960 960 960" width="24"><path d="M545-334q26-27 24.5-64.5T538-456q-91-61-181.5-123T176-703q60 91 121.5 182.5T420-338q21.09 30.93 59.04 31.47Q517-306 545-334ZM193-128q-27.22 0-50.11-12.5T107-176q-29-52-44-109.09Q48-342.19 48-402q0-63 19-122.5T121-637l65 96q-17 33-25 68.67-8 35.66-8 71.84Q153-355 164-313q11 42 32 80h568q20-38 31.5-78.5t11.5-84.72Q807-533 712-630t-232-97q-36.66 0-71.83 8.5T341-694l-98-65q52-36 112.5-54.5T479.93-832q89.94 0 168.51 34.5Q727-763 785.5-704T878-565.5q34 79.5 34 169.79 0 58.75-15 114.23Q882-226 853-176q-13 23-36.19 35.5Q793.63-128 768-128H193Zm291-264Z"/></svg>