<svg xmlns="http://www.w3.org/2000/svg" height="20" viewBox="0 -960 960 960" width="20"><path d="M539.43-350.13Q563-373.57 562-408q-1-34.43-29-52.43-90.7-55-173.11-114.05-82.41-59.04-168.11-119.17 59.26 86.13 117.81 170.54 58.54 84.41 118.67 167.98 19.44 27.43 52.09 28.93 32.65 1.5 59.08-23.93Zm-356.6 198.04q-26.83 0-50.16-13.41-23.32-13.41-36.02-37.24-22.56-39.56-31.06-85.91-8.5-46.35-8.5-93.92-1-96.65 32.15-172.45 33.15-75.81 102.54-138.63 63.83-58.26 130.98-85.98 67.15-27.72 155.67-27.72 88.7 0 166.11 33.28 77.42 33.29 134.55 90.92 57.13 57.63 90.69 135.26 33.57 77.63 33.57 165.32 0 47.57-9 93.92t-33.13 85.91q-13.13 24.39-35.96 37.52-22.83 13.13-49.22 13.13H182.83Z"/></svg>