<svg xmlns="http://www.w3.org/2000/svg" height="24" viewBox="0 -960 960 960" width="24"><path d="M544.43-335.13Q571-361.57 569.5-398.5q-1.5-36.93-31.5-56.93-92.7-61-184.61-125.55-91.91-64.54-183.61-127.67 62.26 92.13 126.31 185.04 64.04 92.91 126.17 184.48 20.44 30.43 57.59 30.93 37.15.5 64.58-26.93Zm-348.6 215.04q-29.83 0-55.66-13.91-25.82-13.91-40.52-39.74-29.56-52.56-44.56-110.41-15-57.85-15-118.42 0-91.65 33.15-167.45 33.15-75.81 96.54-138.63 65.83-65.26 140.48-97.98 74.65-32.72 169.17-32.72 91.7 0 171.61 34.78 79.92 34.79 139.55 94.92 59.63 60.13 94.19 140.76 34.57 80.63 34.57 172.32 0 59.57-15 115.92t-45.13 106.91q-14.13 26.39-39.96 40.02-25.83 13.63-55.22 13.63H195.83Z"/></svg>