<svg xmlns="http://www.w3.org/2000/svg" height="24" viewBox="0 -960 960 960" width="24"><path d="M541.15-339q22.54-23.54 21.23-57.38-1.3-33.85-28.23-50.77-87.92-56.77-173.8-118.96-85.89-62.2-171.27-122.66 58.84 86 120.92 173.08Q372.08-428.62 430-343q19.08 27.54 52.65 28.23 33.58.69 58.5-24.23ZM192.62-148q-21.62 0-40-10-18.39-10-29.08-28-27.08-49.69-41.12-103.81-14.03-54.11-14.03-111.42-.39-84.08 30.92-156.58 31.31-72.5 89.77-130.96 60.31-60.31 132.15-91.77Q393.08-812 480-812q85.77 0 160.81 32.96t130.65 89.08q55.62 56.11 88.08 132.15T892-396q0 55.92-14.04 108.73t-41.88 99.73q-10.31 18.77-28.7 29.15Q789-148 768-148H192.62Z"/></svg>