<svg xmlns="http://www.w3.org/2000/svg" height="24" viewBox="0 -960 960 960" width="24"><path d="M539.83-342.74q24.5-25 23.03-59.35-1.47-34.34-29.03-52.71-85.22-57.5-171.58-116.62-86.36-59.12-170.88-117.08 58.02 84.46 117.14 170.88t117.32 170.88q19 28 53.75 28.75t60.25-24.75ZM207.37-150.28q-25.52 0-47.54-11.3-22.03-11.29-34.29-33.25-28.13-48.19-41.41-101.73-13.28-53.55-13.28-109.87-.07-83.48 31.18-153.98 31.25-70.5 89.34-128.09 60.09-59.52 131.05-89.84 70.97-30.31 157.01-30.31 84.46 0 159.14 31.91 74.67 31.91 130.21 87.46 55.55 55.54 87.71 129.96 32.16 74.43 32.16 158.89 0 54.76-13.81 106.55-13.82 51.79-41.01 99.05-12.2 21.96-34.47 33.25-22.27 11.3-47.36 11.3H207.37Z"/></svg>