<svg xmlns="http://www.w3.org/2000/svg" height="48" viewBox="0 -960 960 960" width="48"><path d="M543.46-340.28q24.76-25.5 24-60.99-.76-35.49-30.31-53.37-84.61-51.38-170.11-111.06-85.51-59.67-168.08-115.37 54.93 83.2 114.61 168.9Q373.24-426.48 427.72-344q18.24 28.72 53.74 29.47t62-25.75Zm-349.7 181.26q-19.44 0-35.67-8.84-16.22-8.84-26.35-25.53-26.72-46.48-39.47-98.76-12.75-52.28-12.75-107.12-.5-63.93 19.25-123.86 19.75-59.94 59.45-111.15l43 56.43q-31.02 38.26-43.55 84.43-12.52 46.18-12.52 94.09 0 46.27 10.39 91.27 10.39 45 35.66 83.65h577.34q23.55-39.76 35.18-84.34 11.63-44.57 11.63-90.63 0-139.4-97.03-237.69-97.04-98.28-236.64-98.28-49.68 0-95.91 14.48t-86.88 41.83l-58.41-39q51.69-40.46 113.38-61.7 61.68-21.24 127.9-21.24 82.77 0 155.64 31.75 72.86 31.74 126.99 86.44 54.13 54.7 85.36 127.73 31.23 73.04 31.23 155.86 0 55-13.99 106.67-13.99 51.66-39.87 99.11-9.08 16.96-25.82 25.68-16.74 8.72-35.3 8.72H193.76Zm293.7-235.5Z"/></svg>