<svg xmlns="http://www.w3.org/2000/svg" height="20" viewBox="0 -960 960 960" width="20"><path d="M534.83-357.74q21.5-22 20.53-53.85-.97-31.84-26.53-48.21-83.22-51.5-160.08-105.12-76.86-53.62-155.38-108.58 55.02 78.46 108.64 156.38t109.58 154.23q18.24 25.15 48.49 26.9 30.25 1.75 54.75-21.75ZM194.37-182.28q-22.54 0-42.05-10.8-19.52-10.79-29.78-30.75-21.13-35.19-27.91-77.29-6.78-42.09-6.78-85.31-1.07-64.03 17.75-125.27 18.81-61.24 58.64-112.06l58.02 81.54q-22.8 35.31-32.39 75.69-9.59 40.39-9.59 82.1 0 28.26 4.66 55.68 4.65 27.43 13.95 54.03h561.59q9.87-27.93 14.8-54.62 4.94-26.69 4.94-55.09 0-124.92-88.23-212.35-88.23-87.44-213.56-87.44-31.9 0-62.56 5.12-30.65 5.12-59.02 19.99l-86.18-60.02q46.61-29.07 99.61-43.3 52.99-14.22 108.15-14.22 81.63 0 153.61 30.45 71.99 30.45 125.14 83.45 53.15 53.01 84.31 124.18 31.16 71.16 31.16 152.14 0 43.04-7.81 84.69-7.82 41.65-29.01 77.91-11.2 19.96-30.6 30.75-19.4 10.8-41.23 10.8H194.37ZM485.83-406.3Z"/></svg>