<svg xmlns="http://www.w3.org/2000/svg" height="20" viewBox="0 -960 960 960" width="20"><path d="M532.2-357.04q23-23 21.62-54.86-1.39-31.86-27.62-51.38-79.63-56-156.45-105.77-76.82-49.78-154.73-103.45 52.91 78.67 102.69 156.23 49.77 77.55 107.25 154.07 19.24 26.16 50.74 27.66 31.5 1.5 56.5-22.5ZM191.52-183.87q-20.93 0-38.83-10.08-17.91-10.07-27.86-28.75-21.48-35.71-29.1-77.81-7.62-42.1-7.62-85.25-.24-61.91 18.5-121.21 18.74-59.29 56.93-109.49l50.42 74.33q-22.29 36.28-32.69 76.78-10.4 40.5-10.4 81.59 0 30.57 6.14 59.64 6.14 29.08 16.42 57.49h573.66q10.52-28.76 16.28-57.62 5.76-28.87 5.76-59.51 0-128.72-90.62-219.04-90.62-90.33-219.75-90.33-32.25 0-63.19 6.02-30.94 6.02-59.46 19.54l-78.81-52.41q45.16-27.62 96.43-41.76 51.27-14.15 105.03-14.15 81.8 0 153.24 30.61 71.45 30.61 124.57 83.68 53.13 53.06 84.22 123.9 31.1 70.84 31.1 151.94 0 43.08-8.24 85.09-8.24 42.02-28.95 77.97-10.72 18.68-28.75 28.75-18.03 10.08-37.95 10.08H191.52ZM481.2-407.28Z"/></svg>