<svg xmlns="http://www.w3.org/2000/svg" height="20" viewBox="0 -960 960 960" width="20"><path d="M527.96-364.62q18.42-18.92 17.27-46.26-1.15-27.35-23.27-42.35-73.92-48.04-143.34-96.29-69.43-48.25-139.2-98.09 49.16 70.07 97.89 140.19 48.73 70.11 100.73 137.8 16.27 21.73 42.38 23.58 26.12 1.85 47.54-18.58ZM194.54-219.77q-13 0-23.58-5.85-10.57-5.84-16.27-17.03-18.27-31.39-24-68.39t-5.73-75q-.88-78.27 27.87-144.25t86.59-117.32q50.31-45.31 110.89-68.81 60.57-23.5 128.69-23.5 73.85 0 139.08 27.65 65.23 27.66 113.23 75.56 48 47.9 76.3 112.48 28.31 64.58 28.31 137.42 0 37.81-6.48 74.66-6.48 36.84-24.83 67.96-6.8 11.77-17.32 18.09-10.52 6.33-22.52 6.33H194.54Z"/></svg>