<svg xmlns="http://www.w3.org/2000/svg" height="40" viewBox="0 -960 960 960" width="40"><path d="M530.26-352.28q19.07-18.82 17.54-46-1.54-27.18-23.73-42.05-73.79-50.77-149.84-105.62-76.06-54.84-148.92-106.77 51.69 73 107.31 148.81 55.61 75.81 107.51 148.06 15.31 21.9 42.46 22.86 27.15.96 47.67-19.29ZM200.18-200q-9.95 0-18.32-4.09-8.37-4.09-14.6-12.63-23.34-42.48-35.34-89.45-12-46.98-12-96.19.08-46.56 12.07-90.41 11.98-43.85 35.6-84.36l24.31 27.18q-20.44 33.44-29.28 71.07-8.85 37.62-8.85 76.16 0 45.35 10.99 88.13 10.98 42.77 34.33 80.74h561.94q21.97-37.79 33.55-79.66 11.57-41.88 11.57-86.34 0-135.13-95.03-230.72-95.04-95.58-230.3-95.58-41.05 0-79.7 10.23-38.65 10.24-74.25 29.36l-29.02-21.65q41.79-25.02 88.07-38.41Q432.2-760 480.82-760q74.69 0 139.94 28.42 65.24 28.43 113.89 77.23 48.66 48.81 77 114.22Q840-474.73 840-399.85q0 48.61-12.33 94.25-12.34 45.65-35.52 85.81-4.99 9.56-13.77 14.67Q769.6-200 759.9-200H200.18ZM487.1-393.18Z"/></svg>