<svg xmlns="http://www.w3.org/2000/svg" height="24" viewBox="0 -960 960 960" width="24"><path d="M544.76-334.48Q571-361.24 569.5-398.5q-1.5-37.26-31.5-57.26-91.72-61-182.82-124.08-91.09-63.07-181.81-125.55 60.96 91.48 123.53 183.57 62.58 92.1 124.06 183.34 20.76 30.76 58.4 31.26t65.4-27.26ZM194.2-124.65q-28.2 0-52.4-13.1-24.19-13.1-37.91-37.29-29.24-52.24-44.24-109.6-15-57.36-15-117.6 0-88.39 33.64-165.17 33.64-76.79 95.08-137.98 64.2-63.96 139.34-96.84t167.05-32.88q90.72 0 169.82 34.62 79.09 34.62 138.07 94.1 58.98 59.48 93.22 139.46 34.24 79.97 34.24 170.69 0 59.24-15 115.1-15 55.86-44.48 106.1-13.48 24.43-37.67 37.41-24.2 12.98-51.63 12.98H194.2Z"/></svg>