<svg xmlns="http://www.w3.org/2000/svg" height="20" viewBox="0 -960 960 960" width="20"><path d="M534.83-357.74q21.5-22 20.53-53.85-.97-31.84-26.53-48.21-83.22-51.5-160.08-105.12-76.86-53.62-155.38-108.58 55.02 78.46 108.64 156.38t109.82 154.38q18 25 48.25 26.75t54.75-21.75ZM194.37-182.28q-22.52 0-42.04-10.8-19.53-10.79-29.79-30.75-21.13-35.19-27.91-77.23-6.78-42.05-6.78-85.37-1.07-88.48 30.18-158.98 31.25-70.5 95.34-128.09 58.09-52.52 121.55-77.84 63.47-25.31 143.51-25.31 81.46 0 153.64 30.41 72.17 30.41 125.21 83.46 53.05 53.04 84.21 124.46 31.16 71.43 31.16 151.89 0 42.76-7.81 84.55-7.82 41.79-29.01 78.05-11.2 19.96-30.47 30.75-19.27 10.8-41.36 10.8H194.37Z"/></svg>