<svg xmlns="http://www.w3.org/2000/svg" height="20" viewBox="0 -960 960 960" width="20"><path d="M207.77-152q-40.89 0-65.37-31.73-24.48-31.73-14.25-70.81l124.77-490.77q7.15-26.73 29.21-44.71Q304.19-808 333.31-808h291.12q30.11 0 51.92 17.98 21.81 17.98 28.96 44.71l125.54 490.77q10.23 39.08-14.25 70.81Q792.12-152 751.23-152H207.77Zm-.77-57h544.46q12.31 0 19.62-9.23 7.3-9.23 4.23-20.77L649.77-731.77q-1.54-8.46-8.85-13.85-7.3-5.38-15.77-5.38H332.31q-8.46 0-15.77 5.38-7.31 5.39-8.85 13.85L183.15-239q-3.07 11.54 4.23 20.77Q194.69-209 207-209Zm243.23-264.15v128.77h58v-128.77L556-423.62l41.31-41.3L479.23-583 362.69-466.46 404-426.92l46.23-46.23ZM751.46-209H200.85h556.77-6.16Z"/></svg>