<svg xmlns="http://www.w3.org/2000/svg" height="40" viewBox="0 -960 960 960" width="40"><path d="M193.33-138.67q-36.43 0-59.82-28.29-23.38-28.3-14.64-64.3l119.18-531.07q5.82-25.52 26.57-42.26t48.66-16.74h333.18q27.43 0 48.17 16.74 20.73 16.74 26.55 42.26l119.95 531.07q8.74 36-14.5 64.3-23.24 28.29-59.45 28.29H193.33Zm-1.77-50.84h575.85q11.8 0 19.1-9.23 7.31-9.23 4.75-20.77L671.31-751.92q-2.05-8.46-9.1-13.85-7.06-5.38-15.52-5.38H311.13q-8.46 0-15.77 5.38-7.31 5.39-8.84 13.85l-118.8 532.41q-3.08 11.54 4.23 20.77 7.31 9.23 19.61 9.23Zm262.41-313.62v178.23h51.18v-178.23L573-434.36l36.1-36.1-129.54-129.36-128 127.82 36.11 35.18 66.3-66.31Zm313.44 313.62h-582 587.9-5.9Z"/></svg>