<svg xmlns="http://www.w3.org/2000/svg" height="40" viewBox="0 -960 960 960" width="40"><path d="M203.33-173.67q-27.26 0-43.71-20.33-16.45-20.32-10.12-47l113.33-502.33q4.24-18.37 19.37-30.69 15.14-12.31 35.47-12.31h324.66q18.79 0 34.15 12.33 15.35 12.33 20.02 30.67L811.33-241q5.5 26.65-10.75 46.99-16.26 20.34-42.41 20.34H203.33Zm-1.66-23.16h555q15.33 0 24.83-12 9.5-12 6.17-27L673.4-738.17q-3.17-11-12.09-18-8.91-7-19.91-7H316.8q-11 0-20.5 7t-11.5 18L170.67-235.83q-4 15 5.5 27t25.5 12Zm266.16-343.5v205.16H491v-205.16l92.67 93.16L600.5-464 479-584.83 359.5-466l16.83 16.33 91.5-90.66Zm288.84 343.5h-563 570.66-7.66Z"/></svg>