<svg xmlns="http://www.w3.org/2000/svg" height="48" viewBox="0 -960 960 960" width="48"><path d="M173.73-143.08q-27.28 0-44.22-20.89-16.93-20.89-10.93-47.57l125.88-561.54q4.46-18.68 19.82-31.26 15.36-12.58 35.72-12.58h360.19q19.2 0 34.77 12.61 15.58 12.62 20.39 31.23l126.76 561.54q5.31 26.77-11.49 47.61-16.8 20.85-43.28 20.85H173.73Zm-1.38-43.84h614.11q5.77 0 9.42-4.62 3.66-4.61 2.5-10.38l-126.2-561.54q-1.35-4.23-4.71-6.92-3.37-2.7-7.6-2.7H298.89q-4.23 0-7.89 2.7-3.65 2.69-4.42 6.92L160.42-201.92q-1.54 5.77 2.12 10.38 3.65 4.62 9.81 4.62Zm285.69-344.31v219.69h43.84v-219.69l81.5 82 31.08-31.08-134.84-134.46-134.08 133.69 31.08 30.58 81.42-80.73Zm328.42 344.31H169.27h620.08-2.89Z"/></svg>