<svg xmlns="http://www.w3.org/2000/svg" height="48" viewBox="0 -960 960 960" width="48"><path d="M190.46-161.15q-26.94 0-43.38-20.28-16.43-20.28-10.43-46.65l118.77-528.07q4.15-18.26 19.21-30.48 15.05-12.22 35.37-12.22h340.38q18.64 0 33.92 12.23 15.28 12.24 19.89 30.47l120.04 528.07q5.12 26.38-11.09 46.65-16.21 20.28-41.95 20.28H190.46Zm-1.77-30.2h581.23q11.54 0 18.85-9.23 7.31-9.23 5-20.77L674.29-749.42q-2.69-8.46-9.42-13.85-6.73-5.38-15.19-5.38H308.77q-8.46 0-15.77 5.38-7.3 5.39-8.84 13.85L164.85-221.35q-3.08 11.54 4.23 20.77 7.3 9.23 19.61 9.23Zm275.89-349.11v214.88h30.19v-214.88l89 89.5 21.65-21.66-126.19-125.42-124.65 123.89L376.23-453l88.35-87.46Zm305.34 349.11H182.54h593.15-5.77Z"/></svg>