<svg xmlns="http://www.w3.org/2000/svg" height="48" viewBox="0 -960 960 960" width="48"><path d="M159.07-102.8q-36.65 0-60.72-29.06-24.07-29.05-15.59-65.21l133.57-600.02q5.92-25.88 27.1-43.11 21.19-17.23 48.96-17.23h374.98q28.02 0 49.06 17.23 21.05 17.23 27.24 43.11l133.57 600.02q8.24 36.16-15.76 65.21-24 29.06-60.55 29.06H159.07Zm-1-77.07h643.86l-133.4-601.26h-377.9L158.07-179.87Zm285.45-321.22v204.81h73.96v-204.81l57.8 59.05L627-493.52 480.5-640.76 334-493.52l51.72 50.48 57.8-58.05Zm358.41 321.22H158.07h643.86Z"/></svg>