<svg xmlns="http://www.w3.org/2000/svg" height="48" viewBox="0 -960 960 960" width="48"><path d="M161.07-119.02q-31.64 0-51.61-24.49Q89.48-168 96.43-199.07l131.81-590.69q5.25-21.98 23.19-36.72 17.93-14.74 41.2-14.74h374.5q22.87 0 40.87 14.8 18.01 14.79 23.76 36.66l132.31 590.69q6.21 31.22-13.65 55.63-19.85 24.42-50.99 24.42H161.07Zm-1.24-65.39h639.34L667.35-775.59H291.63l-131.8 591.18Zm289.28-328.5v217.08h62.28v-217.08l68.5 69.24 43.85-43.61L480-631.02 336.26-487.28l43.85 43.11 69-68.74Zm350.06 328.5H159.83h639.34Z"/></svg>