<svg xmlns="http://www.w3.org/2000/svg" version="1.1" width="3300" height="2000"><g id="Notes"><style>
    text {
      font-family: monospace;
      text-anchor: middle;
    }
    text.emphasis {
      font-weight:bold;
    }
    text.lanchor {
      text-anchor: start;
    }
  </style><rect height="2200" id="artboard" fill="white" width="3300" x="0" y="0"/><line id="" style="fill:none;stroke:black;stroke-width:0.5;" x1="263" x2="3036" y1="292" y2="292"/><text class="lanchor emphasis" transform="matrix(1 0 0 1 263 322)">Weight/Scale Variations</text><text transform="matrix(1 0 0 1 559.711 322)">Ultralight</text><text transform="matrix(1 0 0 1 856.422 322)">Thin</text><text transform="matrix(1 0 0 1 1153.13 322)">Light</text><text transform="matrix(1 0 0 1 1449.84 322)">Regular</text><text transform="matrix(1 0 0 1 1746.56 322)">Medium</text><text transform="matrix(1 0 0 1 2043.27 322)">Semibold</text><text transform="matrix(1 0 0 1 2339.98 322)">Bold</text><text transform="matrix(1 0 0 1 2636.69 322)">Heavy</text><text transform="matrix(1 0 0 1 2933.4 322)">Black</text><text id="template-version" style="text-anchor: end;" transform="matrix(1 0 0 1 3036 1933)">Template v.1.0</text><text class="lanchor" transform="matrix(1 0 0 1 263 726)">Small</text><text class="lanchor" transform="matrix(1 0 0 1 263 1156)">Medium</text><text class="lanchor" transform="matrix(1 0 0 1 263 1586)">Large</text></g><g id="Guides"><g id="H-reference" style="fill:#27AAE1;stroke:none;" transform="matrix(1 0 0 1 339 696)"><path d="M 54.9316 0 L 57.666 0 L 30.5664 -70.459 L 28.0762 -70.459 L 0.976562 0 L 3.66211 0 L 12.9395 -24.4629 L 45.7031 -24.4629 Z M 29.1992 -67.0898 L 29.4434 -67.0898 L 44.8242 -26.709 L 13.8184 -26.709 Z"/></g><line id="Baseline-S" style="fill:none;stroke:#27AAE1;opacity:1;stroke-width:0.577;" x1="263" x2="3036" y1="696" y2="696"/><line id="Capline-S" style="fill:none;stroke:#27AAE1;opacity:1;stroke-width:0.577;" x1="263" x2="3036" y1="625.541" y2="625.541"/><g id="H-reference" style="fill:#27AAE1;stroke:none;" transform="matrix(1 0 0 1 339 1126)"><path d="M 54.9316 0 L 57.666 0 L 30.5664 -70.459 L 28.0762 -70.459 L 0.976562 0 L 3.66211 0 L 12.9395 -24.4629 L 45.7031 -24.4629 Z M 29.1992 -67.0898 L 29.4434 -67.0898 L 44.8242 -26.709 L 13.8184 -26.709 Z"/></g><line id="Baseline-M" style="fill:none;stroke:#27AAE1;opacity:1;stroke-width:0.577;" x1="263" x2="3036" y1="1126" y2="1126"/><line id="Capline-M" style="fill:none;stroke:#27AAE1;opacity:1;stroke-width:0.577;" x1="263" x2="3036" y1="1055.54" y2="1055.54"/><g id="H-reference" style="fill:#27AAE1;stroke:none;" transform="matrix(1 0 0 1 339 1556)"><path d="M 54.9316 0 L 57.666 0 L 30.5664 -70.459 L 28.0762 -70.459 L 0.976562 0 L 3.66211 0 L 12.9395 -24.4629 L 45.7031 -24.4629 Z M 29.1992 -67.0898 L 29.4434 -67.0898 L 44.8242 -26.709 L 13.8184 -26.709 Z"/></g><line id="Baseline-L" style="fill:none;stroke:#27AAE1;opacity:1;stroke-width:0.577;" x1="263" x2="3036" y1="1556" y2="1556"/><line id="Capline-L" style="fill:none;stroke:#27AAE1;opacity:1;stroke-width:0.577;" x1="263" x2="3036" y1="1485.54" y2="1485.54"/><rect height="119.336" id="left-margin" style="fill:darkred;stroke:none;opacity:0.4;" width="12.4512" x="1394.06" y="1030.79"/><rect height="119.336" id="right-margin" style="fill:darkgreen;stroke:none;opacity:0.4;" width="12.4512" x="1502.5112" y="1030.79"/><rect x="1406.5112" y="1045" width="96" height="96" fill="none" stroke="blue" stroke-dasharray="5"/><rect x="1394.06" y="1030.79" width="120.9024" height="119.336" fill="none" stroke="blue"/></g><g id="Symbols"><g id="Bold-L" transform="matrix(1 0 0 1 2266 1556)"><path d="M28.703 40.88  16.77 33.14 Q25.8 18.466 27.574 0.648 Q29.348 -17.17 29.348 -35.23 Q29.348 -53.129 27.574 -70.947 Q25.8 -88.765 16.77 -103.761 L28.703 -111.501 Q31.766 -106.502 34.185 -101.101 Q36.604 -95.699 38.216 -90.377 H49.988 Q61.275 -90.377 69.499 -81.912 Q77.722 -73.446 77.722 -61.352 V-9.269 Q77.722 2.986 69.499 11.371 Q61.275 19.756 49.988 19.756 H38.216 Q36.604 25.239 34.185 30.56 Q31.766 35.881 28.703 40.88 Z M117.874 -6.205  89.978 -35.23  117.874 -64.416  128.194 -54.096  118.035 -42.647 H145.447 V-27.974 H118.035 L128.194 -16.686 L117.874 -6.205 Z"/></g><g id="Semibold-L" transform="matrix(1 0 0 1 1970.27 1556)"><path d="M28.141 40.319  17.191 33.35 Q26.361 18.326 28.03 0.613 Q29.697 -17.101 29.697 -35.23 Q29.697 -53.198 28.03 -70.947 Q26.361 -88.696 17.191 -103.902 L28.141 -110.94 Q31.205 -105.941 33.484 -100.644 Q35.762 -95.349 37.445 -89.957 H49.847 Q60.994 -89.957 69.009 -81.667 Q77.021 -73.377 77.021 -61.493 V-9.199 Q77.021 2.846 69.009 11.126 Q60.994 19.406 49.847 19.406 H37.445 Q35.762 24.818 33.45 30.07 Q31.136 35.32 28.141 40.319 Z M118.014 -6.976  90.96 -35.23  118.014 -63.575  127.423 -54.166  116.563 -41.946 H145.098 V-28.535 H116.563 L127.423 -16.546 L118.014 -6.976 Z"/></g><g id="Medium-L" transform="matrix(1 0 0 1 1674.31 1556)"><path d="M27.72 39.898  17.507 33.508 Q26.782 18.221 28.372 0.587 Q29.96 -17.047 29.96 -35.23 Q29.96 -53.251 28.372 -70.947 Q26.782 -88.642 17.507 -104.006 L27.72 -110.519 Q30.784 -105.52 32.958 -100.302 Q35.132 -95.086 36.867 -89.641 H49.742 Q60.785 -89.641 68.639 -81.483 Q76.495 -73.324 76.495 -61.598 V-9.146 Q76.495 2.741 68.639 10.942 Q60.785 19.144 49.742 19.144 H36.867 Q35.132 24.502 32.897 29.701 Q30.662 34.899 27.72 39.898 Z M118.119 -7.555  91.695 -35.23  118.119 -62.944  126.844 -54.219  115.458 -41.42 H144.835 V-28.956 H115.458 L126.844 -16.441 L118.119 -7.555 Z"/></g><g id="Regular-L" transform="matrix(1 0 0 1 1378.56 1556)"><path d="M27.413 39.59  17.738 33.624 Q27.09 18.144 28.622 0.568 Q30.154 -17.009 30.154 -35.23 Q30.154 -53.29 28.622 -70.947 Q27.09 -88.604 17.738 -104.084 L27.413 -110.211 Q30.476 -105.212 32.572 -100.052 Q34.669 -94.892 36.443 -89.41 H49.665 Q60.63 -89.41 68.37 -81.347 Q76.11 -73.285 76.11 -61.675 V-9.107 Q76.11 2.664 68.37 10.807 Q60.63 18.95 49.665 18.95 H36.443 Q34.669 24.271 32.492 29.431 Q30.315 34.591 27.413 39.59 Z M118.196 -7.979  92.235 -35.23  118.196 -62.481  126.42 -54.257  114.649 -41.035 H144.641 V-29.264 H114.649 L126.42 -16.364 L118.196 -7.979 Z"/></g><g id="Light-L" transform="matrix(1 0 0 1 1082.77 1556)"><path d="M28.84 36.426  21.15 31.639 Q30.439 16.283 31.631 -0.581 Q32.821 -17.443 32.821 -35.23 Q32.821 -52.856 31.631 -69.831 Q30.439 -86.806 21.15 -102.099 L28.84 -106.986 Q31.903 -101.925 33.967 -96.797 Q36.033 -91.667 37.745 -86.185 H50.72 Q60.94 -86.185 68.122 -78.619 Q75.304 -71.052 75.304 -60.124 V-10.596 Q75.304 0.43 68.122 8.079 Q60.94 15.725 50.72 15.725 H37.745 Q36.033 20.983 33.919 26.176 Q31.803 31.366 28.84 36.426 Z M116.708 -10.088  92.98 -35.23  116.708 -60.372  123.319 -53.761  110.927 -39.856 H141.353 V-30.442 H110.927 L123.319 -16.798 L116.708 -10.088 Z"/></g><g id="Thin-L" transform="matrix(1 0 0 1 787.282 1556)"><path d="M30.265 33.264  24.56 29.654 Q33.788 14.422 34.638 -1.727 Q35.488 -17.876 35.488 -35.23 Q35.488 -52.422 34.638 -68.714 Q33.788 -85.006 24.56 -100.114 L30.265 -103.761 Q33.329 -98.638 35.364 -93.541 Q37.397 -88.442 39.047 -82.96 H51.774 Q61.251 -82.96 67.873 -75.889 Q74.498 -68.82 74.498 -58.574 V-12.084 Q74.498 -1.801 67.873 5.349 Q61.251 12.5 51.774 12.5 H39.047 Q37.397 17.697 35.344 22.92 Q33.292 28.141 30.265 33.264 Z M115.22 -12.195  93.723 -35.23  115.22 -58.265  120.218 -53.266  107.207 -38.678 H138.067 V-31.621 H107.207 L120.218 -17.231 L115.22 -12.195 Z"/></g><g id="Ultralight-L" transform="matrix(1 0 0 1 491.205 1556)"><path d="M31.121 31.366  26.606 28.464 Q35.797 13.306 36.443 -2.416 Q37.087 -18.137 37.087 -35.23 Q37.087 -52.161 36.443 -68.044 Q35.797 -83.927 26.606 -98.924 L31.121 -101.826 Q34.185 -96.666 36.201 -91.587 Q38.216 -86.507 39.829 -81.025 H52.406 Q61.436 -81.025 67.725 -74.252 Q74.014 -67.48 74.014 -57.644 V-12.977 Q74.014 -3.141 67.725 3.712 Q61.436 10.565 52.406 10.565 H39.829 Q38.216 15.725 36.201 20.966 Q34.185 26.206 31.121 31.366 Z M114.326 -13.461  94.17 -35.23  114.326 -56.999  118.358 -52.967  104.974 -37.971 H136.095 V-32.327 H104.974 L118.358 -17.492 L114.326 -13.461 Z"/></g><g id="Bold-M" transform="matrix(1 0 0 1 2281.8 1126)"><path d="M23.25 26.395  9.375 17.27 Q15.625 6.395 17.812 -7.667 Q20 -21.73 20 -35.23 Q20 -48.73 17.812 -62.792 Q15.625 -76.855 9.375 -87.73 L23.25 -96.855 Q25.5 -93.23 27.25 -89.23 Q29 -85.23 30.375 -80.98 H38.875 Q48.875 -80.98 55.938 -73.73 Q63 -66.48 63 -56.105 V-14.105 Q63 -3.73 55.938 3.458 Q48.875 10.645 38.875 10.645 H30.375 Q29 14.895 27.188 18.77 Q25.375 22.645 23.25 26.395 Z M91.125 -9.23  65.75 -35.23  91.125 -61.23  103 -49.48  97.875 -43.73 H115.125 V-26.73 H97.875 L103 -21.105 L91.125 -9.23 Z"/></g><g id="Semibold-M" transform="matrix(1 0 0 1 1985.97 1126)"><path d="M22.815 25.254  10.245 17.053 Q16.549 5.906 18.6 -7.912 Q20.652 -21.73 20.652 -35.23 Q20.652 -48.676 18.6 -62.521 Q16.549 -76.366 10.245 -87.459 L22.815 -95.714 Q25.011 -92.089 26.652 -88.225 Q28.294 -84.36 29.669 -80.219 H38.821 Q48.549 -80.219 55.367 -73.214 Q62.185 -66.209 62.185 -56.159 V-14.105 Q62.185 -4.056 55.367 2.914 Q48.549 9.884 38.821 9.884 H29.669 Q28.294 13.971 26.59 17.765 Q24.886 21.558 22.815 25.254 Z M91.179 -10.371  66.891 -35.23  91.179 -60.089  101.912 -49.426  95.972 -42.86 H114.472 V-27.491 H95.972 L101.912 -21.105 L91.179 -10.371 Z"/></g><g id="Medium-M" transform="matrix(1 0 0 1 1689.91 1126)"><path d="M22.489 24.398  10.896 16.89 Q17.241 5.539 19.191 -8.095 Q21.141 -21.73 21.141 -35.23 Q21.141 -48.635 19.191 -62.317 Q17.241 -75.999 10.896 -87.255 L22.489 -94.857 Q24.644 -91.232 26.204 -87.47 Q27.764 -83.709 29.139 -79.649 H38.78 Q48.304 -79.649 54.939 -72.826 Q61.574 -66.005 61.574 -56.2 V-14.105 Q61.574 -4.301 54.939 2.506 Q48.304 9.314 38.78 9.314 H29.139 Q27.764 13.279 26.141 17.01 Q24.519 20.743 22.489 24.398 Z M91.22 -11.227  67.748 -35.23  91.22 -59.232  101.097 -49.385  94.546 -42.209 H113.984 V-28.061 H94.546 L101.097 -21.105 L91.22 -11.227 Z"/></g><g id="Regular-M" transform="matrix(1 0 0 1 1394.06 1126)"><path d="M22.25 23.77  11.375 16.77 Q17.75 5.27 19.625 -8.23 Q21.5 -21.73 21.5 -35.23 Q21.5 -48.605 19.625 -62.167 Q17.75 -75.73 11.375 -87.105 L22.25 -94.23 Q24.375 -90.605 25.875 -86.917 Q27.375 -83.23 28.75 -79.23 H38.75 Q48.125 -79.23 54.625 -72.542 Q61.125 -65.855 61.125 -56.23 V-14.105 Q61.125 -4.48 54.625 2.208 Q48.125 8.895 38.75 8.895 H28.75 Q27.375 12.77 25.812 16.458 Q24.25 20.145 22.25 23.77 Z M91.25 -11.855  68.375 -35.23  91.25 -58.605  100.5 -49.355  93.5 -41.73 H113.625 V-28.48 H93.5 L100.5 -21.105 L91.25 -11.855 Z"/></g><g id="Light-M" transform="matrix(1 0 0 1 1098.18 1126)"><path d="M22.828 21.895  14.068 16.241 Q20.731 4.645 22.174 -8.542 Q23.615 -21.73 23.615 -35.23 Q23.615 -48.605 22.174 -61.879 Q20.731 -75.152 14.068 -86.576 L22.828 -92.355 Q25.096 -88.537 26.62 -84.706 Q28.144 -80.874 29.519 -76.73 H39.328 Q48.078 -76.777 54.072 -70.451 Q60.068 -64.124 60.068 -55.027 V-15.355 Q60.068 -6.211 54.072 0.068 Q48.078 6.346 39.328 6.346 H29.519 Q28.144 10.366 26.581 14.221 Q25.019 18.078 22.828 21.895 Z M90.385 -13.634  69.578 -35.23  90.385 -56.777  97.904 -49.307  89.942 -40.48 H111.125 V-29.73 H89.942 L97.904 -21.152 L90.385 -13.634 Z"/></g><g id="Thin-M" transform="matrix(1 0 0 1 802.565 1126)"><path d="M23.404 20.02  16.76 15.713 Q23.711 4.02 24.721 -8.855 Q25.731 -21.73 25.731 -35.23 Q25.731 -48.605 24.721 -61.59 Q23.711 -74.576 16.76 -86.047 L23.404 -90.48 Q25.817 -86.47 27.365 -82.495 Q28.914 -78.519 30.289 -74.23 H39.904 Q48.029 -74.326 53.519 -68.36 Q59.01 -62.394 59.01 -53.826 V-16.605 Q59.01 -7.941 53.519 -2.071 Q48.029 3.799 39.904 3.799 H30.289 Q28.914 7.963 27.351 11.986 Q25.789 16.01 23.404 20.02 Z M89.519 -15.412  70.779 -35.23  89.519 -54.951  95.308 -49.259  86.385 -39.23 H108.625 V-30.98 H86.385 L95.308 -21.201 L89.519 -15.412 Z"/></g><g id="Ultralight-M" transform="matrix(1 0 0 1 506.415 1126)"><path d="M23.75 18.895  18.375 15.395 Q25.5 3.645 26.25 -9.042 Q27 -21.73 27 -35.23 Q27 -48.605 26.25 -61.417 Q25.5 -74.23 18.375 -85.73 L23.75 -89.355 Q26.25 -85.23 27.812 -81.167 Q29.375 -77.105 30.75 -72.73 H40.25 Q48 -72.855 53.188 -67.105 Q58.375 -61.355 58.375 -53.105 V-17.355 Q58.375 -8.98 53.188 -3.355 Q48 2.27 40.25 2.27 H30.75 Q29.375 6.52 27.812 10.645 Q26.25 14.77 23.75 18.895 Z M89 -16.48  71.5 -35.23  89 -53.855  93.75 -49.23  84.25 -38.48 H107.125 V-31.73 H84.25 L93.75 -21.23 L89 -16.48 Z"/></g><g id="Bold-S" transform="matrix(1 0 0 1 2294.23 696)"><path d="M19.528 11.518  9.271 4.812 Q13.808 -3.473 15.632 -14.223 Q17.457 -24.973 17.457 -35.23 Q17.457 -45.487 15.632 -56.237 Q13.808 -66.987 9.271 -75.272 L19.528 -81.978 Q21.402 -78.822 22.832 -75.321 Q24.262 -71.82 25.445 -68.171 H32.25 Q39.549 -68.269 44.628 -62.993 Q49.707 -57.716 49.707 -50.221 V-20.239 Q49.707 -12.645 44.628 -7.467 Q39.549 -2.289 32.25 -2.289 H25.445 Q24.262 1.459 22.782 4.812 Q21.303 8.165 19.528 11.518 Z M71.898 -16.294  53.455 -35.23  71.898 -54.166  80.675 -45.487  77.223 -41.542 H89.256 V-28.918 H77.223 L80.675 -25.072 L71.898 -16.294 Z"/></g><g id="Semibold-S" transform="matrix(1 0 0 1 1998.1 696)"><path d="M19.185 10.618  9.957 4.64 Q14.536 -3.858 16.253 -14.416 Q17.971 -24.973 17.971 -35.23 Q17.971 -45.445 16.253 -56.023 Q14.536 -66.602 9.957 -75.058 L19.185 -81.078 Q21.016 -77.922 22.36 -74.528 Q23.705 -71.133 24.888 -67.57 H32.208 Q39.291 -67.669 44.178 -62.586 Q49.064 -57.502 49.064 -50.263 V-20.239 Q49.064 -12.902 44.178 -7.896 Q39.291 -2.89 32.208 -2.89 H24.888 Q23.705 0.73 22.311 4.019 Q20.917 7.307 19.185 10.618 Z M71.94 -17.194  54.355 -35.23  71.94 -53.266  79.817 -45.445  75.722 -40.856 H88.741 V-29.519 H75.722 L79.817 -25.072 L71.94 -17.194 Z"/></g><g id="Medium-S" transform="matrix(1 0 0 1 1701.85 696)"><path d="M18.927 9.942  10.471 4.512 Q15.083 -4.148 16.72 -14.56 Q18.357 -24.973 18.357 -35.23 Q18.357 -45.412 16.72 -55.862 Q15.083 -66.312 10.471 -74.897 L18.927 -80.402 Q20.726 -77.246 22.006 -73.932 Q23.286 -70.62 24.47 -67.12 H32.175 Q39.098 -67.219 43.84 -62.28 Q48.582 -57.342 48.582 -50.296 V-20.239 Q48.582 -13.096 43.84 -8.218 Q39.098 -3.34 32.175 -3.34 H24.47 Q23.286 0.183 21.957 3.423 Q20.627 6.664 18.927 9.942 Z M71.973 -17.87  55.031 -35.23  71.973 -52.59  79.174 -45.412  74.597 -40.342 H88.355 V-29.968 H74.597 L79.174 -25.072 L71.973 -17.87 Z"/></g><g id="Regular-S" transform="matrix(1 0 0 1 1405.73 696)"><path d="M18.739 9.447  10.849 4.417 Q15.484 -4.36 17.062 -14.667 Q18.64 -24.973 18.64 -35.23 Q18.64 -45.388 17.062 -55.744 Q15.484 -66.1 10.849 -74.779 L18.739 -79.907 Q20.514 -76.751 21.747 -73.496 Q22.98 -70.242 24.163 -66.79 H32.152 Q38.957 -66.889 43.592 -62.056 Q48.228 -57.223 48.228 -50.32 V-20.239 Q48.228 -13.237 43.592 -8.453 Q38.957 -3.67 32.152 -3.67 H24.163 Q22.98 -0.218 21.698 2.987 Q20.415 6.193 18.739 9.447 Z M71.996 -18.365  55.526 -35.23  71.996 -52.095  78.703 -45.388  73.772 -39.964 H88.072 V-30.299 H73.772 L78.703 -25.072 L71.996 -18.365 Z"/></g><g id="Light-S" transform="matrix(1 0 0 1 1109.75 696)"><path d="M19.194 7.968  12.973 4 Q17.836 -4.853 19.073 -14.913 Q20.309 -24.973 20.309 -35.23 Q20.309 -45.388 19.073 -55.516 Q17.836 -65.644 12.973 -74.361 L19.194 -78.428 Q21.083 -75.12 22.335 -71.752 Q23.586 -68.383 24.77 -64.817 H32.607 Q38.919 -64.954 43.156 -60.406 Q47.393 -55.857 47.393 -49.371 V-21.225 Q47.393 -14.603 43.156 -10.142 Q38.919 -5.681 32.607 -5.681 H24.77 Q23.586 -2.115 22.304 1.223 Q21.022 4.561 19.194 7.968 Z M71.314 -19.769  56.475 -35.23  71.314 -50.653  76.654 -45.351  70.965 -38.978 H86.1 V-31.285 H70.965 L76.654 -25.109 L71.314 -19.769 Z"/></g><g id="Thin-S" transform="matrix(1 0 0 1 814.015 696)"><path d="M19.649 6.488  15.098 3.583 Q20.188 -5.347 21.083 -15.16 Q21.979 -24.973 21.979 -35.23 Q21.979 -45.388 21.083 -55.288 Q20.188 -65.189 15.098 -73.944 L19.649 -76.948 Q21.652 -73.489 22.922 -70.007 Q24.194 -66.525 25.377 -62.845 H33.062 Q38.881 -63.02 42.719 -58.756 Q46.559 -54.492 46.559 -48.423 V-22.211 Q46.559 -15.968 42.719 -11.829 Q38.881 -7.691 33.062 -7.691 H25.377 Q24.194 -4.011 22.912 -0.541 Q21.629 2.93 19.649 6.488 Z M70.63 -21.172  57.422 -35.23  70.63 -49.212  74.606 -45.312  68.158 -37.991 H84.127 V-32.271 H68.158 L74.606 -25.148 L70.63 -21.172 Z"/></g><g id="Ultralight-S" transform="matrix(1 0 0 1 517.792 696)"><path d="M19.922 5.601  16.372 3.332 Q21.599 -5.642 22.289 -15.308 Q22.98 -24.973 22.98 -35.23 Q22.98 -45.388 22.289 -55.152 Q21.599 -64.916 16.372 -73.694 L19.922 -76.061 Q21.993 -72.51 23.276 -68.96 Q24.558 -65.409 25.741 -61.661 H33.335 Q38.858 -61.859 42.458 -57.766 Q46.058 -53.673 46.058 -47.854 V-22.803 Q46.058 -16.787 42.458 -12.842 Q38.858 -8.897 33.335 -8.897 H25.741 Q24.558 -5.149 23.276 -1.599 Q21.993 1.952 19.922 5.601 Z M70.221 -22.014  57.992 -35.23  70.221 -48.347  73.377 -45.29  66.473 -37.4 H82.944 V-32.863 H66.473 L73.377 -25.17 L70.221 -22.014 Z"/></g></g></svg>