<svg xmlns="http://www.w3.org/2000/svg" version="1.1" width="3300" height="2000"><g id="Notes"><style>
    text {
      font-family: monospace;
      text-anchor: middle;
    }
    text.emphasis {
      font-weight:bold;
    }
    text.lanchor {
      text-anchor: start;
    }
  </style><rect height="2200" id="artboard" fill="white" width="3300" x="0" y="0"/><line id="" style="fill:none;stroke:black;stroke-width:0.5;" x1="263" x2="3036" y1="292" y2="292"/><text class="lanchor emphasis" transform="matrix(1 0 0 1 263 322)">Weight/Scale Variations</text><text transform="matrix(1 0 0 1 559.711 322)">Ultralight</text><text transform="matrix(1 0 0 1 856.422 322)">Thin</text><text transform="matrix(1 0 0 1 1153.13 322)">Light</text><text transform="matrix(1 0 0 1 1449.84 322)">Regular</text><text transform="matrix(1 0 0 1 1746.56 322)">Medium</text><text transform="matrix(1 0 0 1 2043.27 322)">Semibold</text><text transform="matrix(1 0 0 1 2339.98 322)">Bold</text><text transform="matrix(1 0 0 1 2636.69 322)">Heavy</text><text transform="matrix(1 0 0 1 2933.4 322)">Black</text><text id="template-version" style="text-anchor: end;" transform="matrix(1 0 0 1 3036 1933)">Template v.1.0</text><text class="lanchor" transform="matrix(1 0 0 1 263 726)">Small</text><text class="lanchor" transform="matrix(1 0 0 1 263 1156)">Medium</text><text class="lanchor" transform="matrix(1 0 0 1 263 1586)">Large</text></g><g id="Guides"><g id="H-reference" style="fill:#27AAE1;stroke:none;" transform="matrix(1 0 0 1 339 696)"><path d="M 54.9316 0 L 57.666 0 L 30.5664 -70.459 L 28.0762 -70.459 L 0.976562 0 L 3.66211 0 L 12.9395 -24.4629 L 45.7031 -24.4629 Z M 29.1992 -67.0898 L 29.4434 -67.0898 L 44.8242 -26.709 L 13.8184 -26.709 Z"/></g><line id="Baseline-S" style="fill:none;stroke:#27AAE1;opacity:1;stroke-width:0.577;" x1="263" x2="3036" y1="696" y2="696"/><line id="Capline-S" style="fill:none;stroke:#27AAE1;opacity:1;stroke-width:0.577;" x1="263" x2="3036" y1="625.541" y2="625.541"/><g id="H-reference" style="fill:#27AAE1;stroke:none;" transform="matrix(1 0 0 1 339 1126)"><path d="M 54.9316 0 L 57.666 0 L 30.5664 -70.459 L 28.0762 -70.459 L 0.976562 0 L 3.66211 0 L 12.9395 -24.4629 L 45.7031 -24.4629 Z M 29.1992 -67.0898 L 29.4434 -67.0898 L 44.8242 -26.709 L 13.8184 -26.709 Z"/></g><line id="Baseline-M" style="fill:none;stroke:#27AAE1;opacity:1;stroke-width:0.577;" x1="263" x2="3036" y1="1126" y2="1126"/><line id="Capline-M" style="fill:none;stroke:#27AAE1;opacity:1;stroke-width:0.577;" x1="263" x2="3036" y1="1055.54" y2="1055.54"/><g id="H-reference" style="fill:#27AAE1;stroke:none;" transform="matrix(1 0 0 1 339 1556)"><path d="M 54.9316 0 L 57.666 0 L 30.5664 -70.459 L 28.0762 -70.459 L 0.976562 0 L 3.66211 0 L 12.9395 -24.4629 L 45.7031 -24.4629 Z M 29.1992 -67.0898 L 29.4434 -67.0898 L 44.8242 -26.709 L 13.8184 -26.709 Z"/></g><line id="Baseline-L" style="fill:none;stroke:#27AAE1;opacity:1;stroke-width:0.577;" x1="263" x2="3036" y1="1556" y2="1556"/><line id="Capline-L" style="fill:none;stroke:#27AAE1;opacity:1;stroke-width:0.577;" x1="263" x2="3036" y1="1485.54" y2="1485.54"/><rect height="119.336" id="left-margin" style="fill:darkred;stroke:none;opacity:0.4;" width="12.4512" x="1394.06" y="1030.79"/><rect height="119.336" id="right-margin" style="fill:darkgreen;stroke:none;opacity:0.4;" width="12.4512" x="1502.5112" y="1030.79"/><rect x="1406.5112" y="1045" width="96" height="96" fill="none" stroke="blue" stroke-dasharray="5"/><rect x="1394.06" y="1030.79" width="120.9024" height="119.336" fill="none" stroke="blue"/></g><g id="Symbols"><g id="Bold-L" transform="matrix(1 0 0 1 2266 1556)"><path d="M24.429 19.676 Q18.299 19.676 13.987 15.52 Q9.675 11.366 9.675 5.244 V-75.381 Q9.675 -80.137 12.366 -83.927 Q15.058 -87.717 19.592 -89.329 H23.059 L61.033 -51.355 H24.429 V4.921 Q24.429 4.921 24.429 4.921 Q24.429 4.921 24.429 4.921 H79.98 V19.676 H24.429 Z M145.286 -75.381 V-51.355 H130.371 H74.336 L35.394 -90.297 H49.907 L63.774 -61.836 L59.421 -66.271 H83.205 L71.595 -90.297 H96.024 L107.651 -66.271 H129.161 L117.471 -90.297 H130.371 Q136.567 -90.297 140.928 -85.938 Q145.286 -81.578 145.286 -75.381 Z M131.903 6.292  109.005 -16.606  125.453 -32.972 Q127.236 -34.6 129.382 -35.519 Q131.527 -36.439 133.879 -36.439 Q136.124 -36.439 138.328 -35.512 Q140.534 -34.585 142.303 -32.811 L148.269 -26.861 Q149.933 -24.991 150.835 -22.867 Q151.736 -20.745 151.736 -18.581 Q151.736 -16.202 150.788 -13.98 Q149.84 -11.758 148.131 -10.098 L131.903 6.292 Z M148.028 35.639  140.287 43.621  117.471 20.804  112.23 26.045 H89.252 V3.067 L94.493 -2.012 L0.968 -95.699 L8.707 -103.681 L148.028 35.639 Z M101.184 14.113 H105.377 L108.118 11.452 L103.845 7.179 L101.184 9.92 V14.113 Z"/></g><g id="Semibold-L" transform="matrix(1 0 0 1 1970.27 1556)"><path d="M23.799 17.923 Q18.723 17.923 15.075 14.364 Q11.428 10.805 11.428 5.734 V-76.012 Q11.428 -80.38 14.155 -83.699 Q16.88 -87.015 21.133 -87.926 H24.6 L60.543 -51.985 H23.799 V5.552 Q23.799 5.552 23.799 5.552 Q23.799 5.552 23.799 5.552 H80.261 V17.923 H23.799 Z M143.464 -76.012 V-51.985 H131.001 H73.846 L37.357 -88.475 H51.169 L64.336 -61.486 L61.383 -64.448 H84.116 L72.506 -88.475 H95.604 L107.259 -64.448 H128.46 L116.769 -88.475 H131.001 Q136.114 -88.475 139.789 -84.8 Q143.464 -81.125 143.464 -76.012 Z M130.5 4.75  109.074 -16.675  125.453 -32.972 Q127.097 -34.472 129.055 -35.28 Q131.012 -36.089 133.109 -36.089 Q135.211 -36.089 137.204 -35.267 Q139.196 -34.445 140.831 -32.811 L146.797 -26.861 Q148.334 -25.131 149.124 -23.194 Q149.914 -21.258 149.914 -19.282 Q149.914 -17.185 149.035 -15.137 Q148.156 -13.09 146.658 -11.57 L130.5 4.75 Z M145.504 32.976  138.254 40.396  116.56 18.771  111.038 24.292 H89.532 V2.786 L95.054 -2.643 L3.141 -94.717 L10.389 -102.139 L145.504 32.976 Z M100.414 13.411 H105.446 L108.328 10.541 L103.284 5.497 L100.414 8.378 V13.411 Z"/></g><g id="Medium-L" transform="matrix(1 0 0 1 1674.31 1556)"><path d="M23.325 16.609 Q19.04 16.609 15.891 13.497 Q12.742 10.384 12.742 6.103 V-76.486 Q12.742 -80.564 15.495 -83.526 Q18.247 -86.49 22.291 -86.875 H25.758 L60.174 -52.46 H23.325 V6.026 Q23.325 6.026 23.325 6.026 Q23.325 6.026 23.325 6.026 H80.47 V16.609 H23.325 Z M142.097 -76.486 V-52.46 H131.475 H73.477 L38.829 -87.107 H52.116 L64.756 -61.224 L62.855 -63.081 H84.8 L73.19 -87.107 H95.287 L106.964 -63.081 H127.934 L116.244 -87.107 H131.475 Q135.774 -87.107 138.936 -83.947 Q142.097 -80.785 142.097 -76.486 Z M129.448 3.593  109.128 -16.728  125.453 -32.972 Q126.991 -34.375 128.808 -35.101 Q130.627 -35.827 132.53 -35.827 Q134.529 -35.827 136.359 -35.083 Q138.191 -34.34 139.726 -32.811 L145.693 -26.861 Q147.134 -25.236 147.84 -23.439 Q148.547 -21.645 148.547 -19.808 Q148.547 -17.92 147.721 -16.004 Q146.894 -14.089 145.556 -12.674 L129.448 3.593 Z M143.611 30.978  136.729 37.978  115.876 17.246  110.145 22.978 H89.742 V2.577 L95.475 -3.117 L4.771 -93.981 L11.652 -100.981 L143.611 30.978 Z M99.835 12.885 H105.499 L108.486 9.857 L102.863 4.234 L99.835 7.221 V12.885 Z"/></g><g id="Regular-L" transform="matrix(1 0 0 1 1378.56 1556)"><path d="M22.978 15.644 Q19.274 15.644 16.491 12.86 Q13.706 10.076 13.706 6.373 V-76.832 Q13.706 -80.698 16.478 -83.4 Q19.25 -86.104 23.139 -86.104 H26.606 L59.904 -52.806 H22.978 V6.373 Q22.978 6.373 22.978 6.373 Q22.978 6.373 22.978 6.373 H80.625 V15.644 H22.978 Z M141.094 -76.832 V-52.806 H131.822 H73.207 L39.909 -86.104 H52.809 L65.064 -61.03 L63.936 -62.078 H85.301 L73.691 -86.104 H95.057 L106.748 -62.078 H127.549 L115.858 -86.104 H131.822 Q135.526 -86.104 138.309 -83.32 Q141.094 -80.536 141.094 -76.832 Z M128.678 2.744  109.166 -16.767  125.453 -32.972 Q126.913 -34.304 128.629 -34.969 Q130.343 -35.633 132.106 -35.633 Q134.028 -35.633 135.742 -34.948 Q137.456 -34.262 138.917 -32.811 L144.883 -26.861 Q146.254 -25.313 146.899 -23.62 Q147.544 -21.927 147.544 -20.193 Q147.544 -18.46 146.757 -16.641 Q145.97 -14.822 144.744 -13.484 L128.678 2.744 Z M142.222 29.512  135.611 36.204  115.374 16.128  109.489 22.014 H89.897 V2.422 L95.782 -3.464 L5.966 -93.441 L12.578 -100.133 L142.222 29.512 Z M99.411 12.5 H105.538 L108.602 9.356 L102.555 3.309 L99.411 6.373 V12.5 Z"/></g><g id="Light-L" transform="matrix(1 0 0 1 1082.77 1556)"><path d="M25.663 12.698 Q22.004 12.698 19.313 10.007 Q16.622 7.316 16.622 3.657 V-74.104 Q16.622 -77.831 19.353 -80.494 Q22.086 -83.158 25.837 -83.158 H28.931 L57.361 -54.728 H23.691 V3.644 Q23.691 4.512 24.25 5.07 Q24.808 5.628 25.676 5.628 H79.261 V12.698 H25.663 Z M138.178 -74.098 V-54.728 H131.109 H71.967 L43.6 -83.158 H55.048 L66.119 -60.688 L64.897 -61.799 H85.922 L75.583 -83.158 H95.491 L105.911 -61.799 H126.339 L115.889 -83.158 H129.124 Q132.796 -83.158 135.487 -80.467 Q138.178 -77.776 138.178 -74.098 Z M126.723 0.016  109.879 -16.828  125.762 -32.631 Q126.976 -33.622 128.344 -34.179 Q129.709 -34.733 131.093 -34.733 Q132.601 -34.733 133.978 -34.188 Q135.355 -33.642 136.559 -32.502 L142.526 -26.519 Q143.556 -25.22 144.091 -23.852 Q144.628 -22.485 144.628 -21.14 Q144.628 -19.794 143.996 -18.347 Q143.364 -16.899 142.46 -15.819 L126.723 0.016 Z M140.238 28.148  135.269 33.288  114.32 12.5  107.721 19.098 H90.797 V2.174 L97.395 -4.364 L8.912 -93.069 L13.942 -98.148 L140.238 28.148 Z M98.419 11.476 H104.546 L108.911 7.092 L102.803 0.984 L98.419 5.349 V11.476 Z"/></g><g id="Thin-L" transform="matrix(1 0 0 1 787.282 1556)"><path d="M28.346 9.752 Q24.733 9.752 22.135 7.155 Q19.535 4.557 19.535 0.942 V-71.374 Q19.535 -74.965 22.228 -77.589 Q24.921 -80.212 28.535 -80.212 H31.258 L54.819 -56.652 H24.405 V0.914 Q24.405 2.651 25.521 3.768 Q26.637 4.884 28.374 4.884 H77.897 V9.752 H28.346 Z M135.265 -71.363 V-56.652 H130.395 H70.727 L47.29 -80.212 H57.286 L67.174 -60.348 L65.858 -61.52 H86.541 L77.474 -80.212 H95.924 L105.074 -61.52 H125.13 L115.919 -80.212 H126.426 Q130.067 -80.212 132.665 -77.615 Q135.265 -75.017 135.265 -71.363 Z M124.77 -2.714  110.593 -16.891  126.073 -32.29 Q127.038 -32.94 128.057 -33.387 Q129.076 -33.835 130.08 -33.835 Q131.174 -33.835 132.215 -33.429 Q133.255 -33.022 134.204 -32.19 L140.17 -26.179 Q140.858 -25.128 141.286 -24.084 Q141.715 -23.043 141.715 -22.085 Q141.715 -21.127 141.237 -20.052 Q140.76 -18.978 140.173 -18.154 L124.77 -2.714 Z M138.253 26.784  134.929 30.375  113.265 8.872  105.954 16.185 H91.695 V1.925 L99.008 -5.262 L11.858 -92.696 L15.306 -96.163 L138.253 26.784 Z M97.426 10.454 H103.553 L109.223 4.828 L103.052 -1.343 L97.426 4.326 V10.454 Z"/></g><g id="Ultralight-L" transform="matrix(1 0 0 1 491.205 1556)"><path d="M29.957 7.985 Q26.369 7.985 23.828 5.442 Q21.285 2.901 21.285 -0.689 V-69.737 Q21.285 -73.245 23.954 -75.846 Q26.622 -78.445 30.154 -78.445 H32.653 L53.293 -57.805 H24.832 V-0.722 Q24.832 1.535 26.284 2.986 Q27.735 4.438 29.992 4.438 H77.078 V7.985 H29.957 Z M133.515 -69.721 V-57.805 H129.968 H69.983 L49.504 -78.445 H58.629 L67.806 -60.143 L66.435 -61.352 H86.914 L78.609 -78.445 H96.186 L104.571 -61.352 H124.404 L115.939 -78.445 H124.808 Q128.431 -78.445 130.972 -75.902 Q133.515 -73.361 133.515 -69.721 Z M123.598 -4.351  111.021 -16.928  126.259 -32.086 Q127.075 -32.531 127.886 -32.913 Q128.695 -33.295 129.472 -33.295 Q130.319 -33.295 131.158 -32.972 Q131.996 -32.65 132.789 -32.005 L138.756 -25.974 Q139.239 -25.071 139.602 -24.225 Q139.965 -23.378 139.965 -22.652 Q139.965 -21.927 139.581 -21.075 Q139.197 -20.224 138.802 -19.555 L123.598 -4.351 Z M137.062 25.964  134.724 28.625  112.633 6.695  104.893 14.435 H92.235 V1.777 L99.975 -5.802 L13.626 -92.474 L16.125 -94.973 L137.062 25.964 Z M96.831 9.839 H102.958 L109.408 3.47 L103.2 -2.738 L96.831 3.712 V9.839 Z"/></g><g id="Bold-M" transform="matrix(1 0 0 1 2281.8 1126)"><path d="M22.125 7.895 Q15.758 7.895 11.379 3.641 Q7 -0.612 7 -6.855 V-63.23 Q7 -68.097 9.781 -71.914 Q12.562 -75.73 17.125 -77.48 H17.438 L50.938 -43.98 H22.125 V-7.23 Q22.125 -7.23 22.125 -7.23 Q22.125 -7.23 22.125 -7.23 H59.25 V7.895 H22.125 Z M113 -63.23 V-43.98 H97.875 H64.375 L29.875 -78.355 H40.375 L50.812 -57.417 L49.125 -59.105 H65.5 L55.938 -78.355 H72.312 L81.938 -59.105 H97.312 L87.75 -78.355 H97.875 Q104.243 -78.355 108.621 -73.976 Q113 -69.597 113 -63.23 Z M104.062 -4.292  85.688 -22.542  96.875 -33.792 Q98.32 -35.116 100.088 -35.86 Q101.854 -36.605 103.657 -36.605 Q105.625 -36.605 107.377 -35.886 Q109.129 -35.167 110.562 -33.73 L115.188 -29.055 Q116.54 -27.542 117.27 -25.834 Q118 -24.126 118 -22.292 Q118 -20.292 117.328 -18.57 Q116.655 -16.847 115.188 -15.417 L104.062 -4.292 Z M114.75 19.833  106.812 27.77  89.438 10.395  87.062 12.77 H68.625 V-5.667 L71 -7.917 L-0.688 -79.73 L7.25 -87.667 L114.75 19.833 Z M78.312 3.083 H81.188 L81.688 2.645 L78.75 -0.292 L78.312 0.208 V3.083 Z"/></g><g id="Semibold-M" transform="matrix(1 0 0 1 1985.97 1126)"><path d="M21.473 6.048 Q16.192 6.048 12.52 2.445 Q8.848 -1.156 8.848 -6.366 V-63.882 Q8.848 -68.315 11.656 -71.669 Q14.465 -75.024 18.755 -76.012 H19.067 L50.449 -44.632 H21.473 V-6.577 Q21.473 -6.577 21.473 -6.577 Q21.473 -6.577 21.473 -6.577 H59.576 V6.048 H21.473 Z M111.153 -63.882 V-44.632 H98.528 H63.886 L31.94 -76.507 H41.679 L51.41 -57.037 L51.19 -57.257 H66.479 L56.916 -76.507 H71.877 L81.502 -57.257 H96.606 L87.044 -76.507 H98.528 Q103.808 -76.507 107.48 -72.835 Q111.153 -69.162 111.153 -63.882 Z M102.595 -5.869  85.741 -22.651  96.875 -33.792 Q98.157 -34.962 99.725 -35.621 Q101.293 -36.279 102.896 -36.279 Q104.646 -36.279 106.206 -35.641 Q107.765 -35.005 109.041 -33.73 L113.666 -29.055 Q114.865 -27.705 115.509 -26.196 Q116.153 -24.687 116.153 -23.054 Q116.153 -21.325 115.561 -19.765 Q114.97 -18.206 113.666 -16.939 L102.595 -5.869 Z M112.141 17.061  104.748 24.455  88.514 8.275  85.868 10.923 H68.951 V-5.994 L71.597 -8.57 L1.595 -78.697 L8.989 -86.091 L112.141 17.061 Z M77.551 2.321 H81.241 L81.905 1.666 L78.206 -2.031 L77.551 -1.369 V2.321 Z"/></g><g id="Medium-M" transform="matrix(1 0 0 1 1689.91 1126)"><path d="M20.984 4.661 Q16.519 4.661 13.376 1.549 Q10.234 -1.564 10.234 -5.999 V-64.371 Q10.234 -68.477 13.062 -71.485 Q15.891 -74.494 19.979 -74.912 H20.291 L50.081 -45.121 H20.984 V-6.089 Q20.984 -6.089 20.984 -6.089 Q20.984 -6.089 20.984 -6.089 H59.821 V4.661 H20.984 Z M109.766 -64.371 V-45.121 H99.016 H63.519 L33.489 -75.121 H42.657 L51.859 -56.751 L52.739 -55.871 H67.213 L57.65 -75.121 H71.551 L81.176 -55.871 H96.076 L86.514 -75.121 H99.016 Q103.481 -75.121 106.624 -71.979 Q109.766 -68.836 109.766 -64.371 Z M101.495 -7.051  85.782 -22.732  96.875 -33.792 Q98.035 -34.847 99.454 -35.441 Q100.871 -36.034 102.326 -36.034 Q103.912 -36.034 105.328 -35.459 Q106.743 -34.882 107.9 -33.73 L112.525 -29.055 Q113.609 -27.827 114.188 -26.469 Q114.766 -25.109 114.766 -23.624 Q114.766 -22.1 114.236 -20.662 Q113.706 -19.225 112.525 -18.08 L101.495 -7.051 Z M110.185 14.983  103.199 21.969  87.821 6.686  84.97 9.536 H69.196 V-6.239 L72.046 -9.059 L3.308 -77.922 L10.294 -84.909 L110.185 14.983 Z M76.981 1.751 H81.282 L82.067 0.933 L77.799 -3.336 L76.981 -2.551 V1.751 Z"/></g><g id="Regular-M" transform="matrix(1 0 0 1 1394.06 1126)"><path d="M20.625 3.645 Q16.758 3.645 14.004 0.891 Q11.25 -1.862 11.25 -5.73 V-64.73 Q11.25 -68.597 14.094 -71.351 Q16.938 -74.105 20.875 -74.105 H21.188 L49.812 -45.48 H20.625 V-5.73 Q20.625 -5.73 20.625 -5.73 Q20.625 -5.73 20.625 -5.73 H60 V3.645 H20.625 Z M108.75 -64.73 V-45.48 H99.375 H63.25 L34.625 -74.105 H43.375 L52.188 -56.542 L53.875 -54.855 H67.75 L58.188 -74.105 H71.312 L80.938 -54.855 H95.688 L86.125 -74.105 H99.375 Q103.243 -74.105 105.996 -71.351 Q108.75 -68.597 108.75 -64.73 Z M100.688 -7.917  85.812 -22.792  96.875 -33.792 Q97.945 -34.762 99.254 -35.309 Q100.562 -35.855 101.907 -35.855 Q103.375 -35.855 104.684 -35.324 Q105.993 -34.792 107.062 -33.73 L111.688 -29.055 Q112.688 -27.917 113.219 -26.667 Q113.75 -25.417 113.75 -24.042 Q113.75 -22.667 113.265 -21.32 Q112.78 -19.972 111.688 -18.917 L100.688 -7.917 Z M108.75 13.458  102.062 20.145  87.312 5.52  84.312 8.52 H69.375 V-6.417 L72.375 -9.417 L4.562 -77.355 L11.25 -84.042 L108.75 13.458 Z M76.562 1.333 H81.312 L82.188 0.395 L77.5 -4.292 L76.562 -3.417 V1.333 Z"/></g><g id="Light-M" transform="matrix(1 0 0 1 1098.18 1126)"><path d="M22.032 1.361 Q18.489 1.361 15.999 -1.129 Q13.51 -3.617 13.51 -7.162 V-63.287 Q13.51 -66.807 16.106 -69.315 Q18.703 -71.821 22.294 -71.821 H22.99 L46.88 -47.932 H20.505 V-7.172 Q20.505 -6.499 20.938 -6.066 Q21.37 -5.634 22.044 -5.634 H59.615 V1.361 H22.032 Z M106.49 -63.282 V-47.932 H99.495 H60.414 L36.524 -71.821 H44.581 L52.716 -55.652 L53.419 -54.927 H67.846 L59.461 -71.821 H72.466 L80.914 -54.927 H95.711 L87.302 -71.821 H97.956 Q101.511 -71.821 104.001 -69.331 Q106.49 -66.842 106.49 -63.282 Z M98.692 -9.552  85.885 -22.36  97.115 -33.527 Q97.994 -34.282 99.032 -34.72 Q100.071 -35.157 101.123 -35.157 Q102.269 -35.157 103.316 -34.735 Q104.364 -34.311 105.235 -33.49 L109.86 -28.79 Q110.644 -27.845 111.067 -26.847 Q111.49 -25.85 111.49 -24.776 Q111.49 -23.701 111.101 -22.642 Q110.713 -21.582 109.868 -20.727 L98.692 -9.552 Z M107.5 12.689  102.519 17.693  86.976 2.226  82.942 6.26 H70.073 V-6.61 L74.106 -10.595 L7.039 -77.787 L12.019 -82.792 L107.5 12.689 Z M75.794 0.539 H80.544 L82.909 -1.841 L78.174 -6.576 L75.794 -4.211 V0.539 Z"/></g><g id="Thin-M" transform="matrix(1 0 0 1 802.565 1126)"><path d="M23.44 -0.922 Q20.219 -0.922 17.994 -3.147 Q15.769 -5.372 15.769 -8.594 V-61.845 Q15.769 -65.019 18.119 -67.277 Q20.469 -69.537 23.711 -69.537 H24.794 L43.947 -50.384 H20.385 V-8.615 Q20.385 -7.269 21.25 -6.402 Q22.115 -5.537 23.461 -5.537 H59.231 V-0.922 H23.44 Z M104.231 -61.836 V-50.384 H99.615 H57.578 L38.422 -69.537 H45.788 L53.245 -54.764 L52.961 -54.999 H67.942 L60.735 -69.537 H73.62 L80.89 -54.999 H95.735 L88.481 -69.537 H96.539 Q99.781 -69.537 102.006 -67.312 Q104.231 -65.087 104.231 -61.836 Z M96.698 -11.186  85.956 -21.927  97.356 -33.264 Q98.041 -33.801 98.811 -34.131 Q99.58 -34.461 100.338 -34.461 Q101.164 -34.461 101.95 -34.146 Q102.736 -33.831 103.409 -33.249 L108.034 -28.526 Q108.601 -27.774 108.916 -27.027 Q109.231 -26.282 109.231 -25.509 Q109.231 -24.735 108.938 -23.964 Q108.645 -23.194 108.047 -22.537 L96.698 -11.186 Z M106.25 11.919  102.976 15.241  86.64 -1.066  81.573 4.001 H70.769 V-6.802 L75.836 -11.774 L9.515 -78.22 L12.789 -81.542 L106.25 11.919 Z M75.024 -0.254 H79.774 L83.63 -4.076 L78.846 -8.86 L75.024 -5.004 V-0.254 Z"/></g><g id="Ultralight-M" transform="matrix(1 0 0 1 506.415 1126)"><path d="M24.285 -2.292 Q21.258 -2.292 19.191 -4.359 Q17.125 -6.425 17.125 -9.454 V-60.98 Q17.125 -63.945 19.326 -66.056 Q21.527 -68.167 24.562 -68.167 H25.875 L42.188 -51.855 H20.312 V-9.48 Q20.312 -7.73 21.438 -6.605 Q22.562 -5.48 24.312 -5.48 H59 V-2.292 H24.285 Z M102.875 -60.967 V-51.855 H99.688 H55.875 L39.562 -68.167 H46.511 L53.562 -54.23 L52.688 -55.042 H68 L61.5 -68.167 H74.312 L80.875 -55.042 H95.75 L89.188 -68.167 H95.688 Q98.743 -68.167 100.809 -66.101 Q102.875 -64.035 102.875 -60.967 Z M95.5 -12.167  86 -21.667  97.5 -33.105 Q98.07 -33.512 98.677 -33.777 Q99.285 -34.042 99.866 -34.042 Q100.5 -34.042 101.13 -33.792 Q101.76 -33.542 102.312 -33.105 L106.938 -28.367 Q107.375 -27.73 107.625 -27.136 Q107.875 -26.542 107.875 -25.949 Q107.875 -25.355 107.64 -24.757 Q107.405 -24.16 106.955 -23.622 L95.5 -12.167 Z M105.5 11.458  103.25 13.77  86.438 -3.042  80.75 2.645 H71.188 V-6.917 L76.875 -12.48 L11 -78.48 L13.25 -80.792 L105.5 11.458 Z M74.562 -0.73 H79.312 L84.062 -5.417 L79.25 -10.23 L74.562 -5.48 V-0.73 Z"/></g><g id="Bold-S" transform="matrix(1 0 0 1 2294.23 696)"><path d="M18.246 -4.36 Q13.616 -4.36 10.359 -7.519 Q7.101 -10.678 7.101 -15.209 V-54.955 Q7.101 -58.47 9.064 -61.249 Q11.026 -64.028 14.301 -65.409 H16.914 L40.979 -41.345 H18.246 V-15.505 Q18.246 -15.505 18.246 -15.505 Q18.246 -15.505 18.246 -15.505 H49.115 V-4.36 H18.246 Z M87.579 -54.955 V-41.345 H76.434 H50.496 L25.643 -66.1 H33.78 L41.866 -49.876 L39.253 -52.489 H50.496 L43.74 -66.1 H56.266 L63.071 -52.489 H72.835 L66.079 -66.1 H76.434 Q81.133 -66.1 84.356 -62.842 Q87.579 -59.584 87.579 -54.955 Z M80.725 -11.215  67.213 -24.529  76.928 -34.392 Q77.87 -35.239 79.054 -35.776 Q80.237 -36.315 81.45 -36.315 Q82.773 -36.315 83.945 -35.846 Q85.116 -35.378 86.05 -34.441 L90.39 -29.963 Q91.26 -28.869 91.786 -27.742 Q92.313 -26.617 92.313 -25.392 Q92.313 -24.036 91.851 -22.925 Q91.391 -21.814 90.39 -20.88 L80.725 -11.215 Z M88.072 5.749  82.401 11.42  70.27 -0.711  69.284 0.275 H55.723 V-13.286 L56.709 -14.174 L2.515 -68.565 L8.186 -74.236 L88.072 5.749 Z M62.183 -6.185 H64.747 L64.846 -6.136 L62.134 -8.848 L62.183 -8.749 V-6.185 Z"/></g><g id="Semibold-S" transform="matrix(1 0 0 1 1998.1 696)"><path d="M17.731 -5.818 Q13.959 -5.818 11.259 -8.463 Q8.559 -11.107 8.559 -14.824 V-55.47 Q8.559 -58.642 10.543 -61.056 Q12.527 -63.471 15.587 -64.251 H18.2 L40.593 -41.86 H17.731 V-14.99 Q17.731 -14.99 17.731 -14.99 Q17.731 -14.99 17.731 -14.99 H49.373 V-5.818 H17.731 Z M86.121 -55.47 V-41.86 H76.949 H50.11 L27.272 -64.642 H34.81 L42.338 -49.576 L40.882 -51.032 H51.268 L44.512 -64.642 H55.922 L62.727 -51.032 H72.277 L65.522 -64.642 H76.949 Q80.79 -64.642 83.455 -61.942 Q86.121 -59.241 86.121 -55.47 Z M79.567 -12.458  67.255 -24.615  76.928 -34.392 Q77.742 -35.118 78.769 -35.588 Q79.795 -36.057 80.85 -36.057 Q82.001 -36.057 83.021 -35.653 Q84.04 -35.25 84.85 -34.441 L89.19 -29.963 Q89.938 -28.997 90.397 -28.028 Q90.855 -27.06 90.855 -25.993 Q90.855 -24.851 90.458 -23.868 Q90.061 -22.886 89.19 -22.08 L79.567 -12.458 Z M86.014 3.562  80.772 8.804  69.541 -2.384  68.341 -1.183 H55.981 V-13.543 L57.181 -14.688 L4.316 -67.751 L9.558 -72.993 L86.014 3.562 Z M61.582 -6.786 H64.79 L65.018 -6.908 L61.705 -10.22 L61.582 -9.993 V-6.786 Z"/></g><g id="Medium-S" transform="matrix(1 0 0 1 1701.85 696)"><path d="M17.345 -6.912 Q14.217 -6.912 11.935 -9.17 Q9.652 -11.429 9.652 -14.534 V-55.855 Q9.652 -58.77 11.653 -60.911 Q13.653 -63.053 16.552 -63.383 H19.166 L40.303 -42.245 H17.345 V-14.605 Q17.345 -14.605 17.345 -14.605 Q17.345 -14.605 17.345 -14.605 H49.566 V-6.912 H17.345 Z M85.028 -55.855 V-42.245 H77.335 H49.82 L28.494 -63.548 H35.581 L42.692 -49.35 L42.104 -49.938 H51.847 L45.091 -63.548 H55.665 L62.47 -49.938 H71.859 L65.103 -63.548 H77.335 Q80.532 -63.548 82.78 -61.266 Q85.028 -58.984 85.028 -55.855 Z M78.699 -13.391  67.288 -24.679  76.928 -34.392 Q77.645 -35.027 78.554 -35.446 Q79.462 -35.864 80.4 -35.864 Q81.422 -35.864 82.328 -35.509 Q83.234 -35.153 83.95 -34.441 L88.289 -29.963 Q88.947 -29.094 89.354 -28.243 Q89.762 -27.392 89.762 -26.443 Q89.762 -25.462 89.413 -24.576 Q89.064 -23.69 88.289 -22.981 L78.699 -13.391 Z M84.47 1.922  79.55 6.842  68.995 -3.637  67.633 -2.276 H56.174 V-13.737 L57.535 -15.074 L5.667 -67.139 L10.587 -72.06 L84.47 1.922 Z M61.133 -7.235 H64.822 L65.146 -7.487 L61.383 -11.249 L61.133 -10.926 V-7.235 Z"/></g><g id="Regular-S" transform="matrix(1 0 0 1 1405.73 696)"><path d="M17.062 -7.714 Q14.405 -7.714 12.43 -9.689 Q10.454 -11.665 10.454 -14.321 V-56.138 Q10.454 -58.864 12.466 -60.805 Q14.478 -62.746 17.259 -62.746 H19.873 L40.091 -42.528 H17.062 V-14.321 Q17.062 -14.321 17.062 -14.321 Q17.062 -14.321 17.062 -14.321 H49.707 V-7.714 H17.062 Z M84.226 -56.138 V-42.528 H77.618 H49.608 L29.39 -62.746 H36.147 L42.951 -49.185 L43.001 -49.136 H52.271 L45.515 -62.746 H55.477 L62.282 -49.136 H71.552 L64.797 -62.746 H77.618 Q80.344 -62.746 82.285 -60.771 Q84.226 -58.795 84.226 -56.138 Z M78.062 -14.075  67.312 -24.726  76.928 -34.392 Q77.574 -34.96 78.397 -35.341 Q79.219 -35.723 80.07 -35.723 Q80.998 -35.723 81.819 -35.403 Q82.642 -35.082 83.289 -34.441 L87.628 -29.963 Q88.22 -29.165 88.59 -28.4 Q88.96 -27.636 88.96 -26.773 Q88.96 -25.91 88.646 -25.094 Q88.333 -24.28 87.628 -23.642 L78.062 -14.075 Z M83.338 0.719  78.653 5.404  68.594 -4.558  67.114 -3.078 H56.315 V-13.878 L57.794 -15.357 L6.657 -66.691 L11.342 -71.376 L83.338 0.719 Z M60.802 -7.566 H64.846 L65.24 -7.911 L61.148 -12.004 L60.802 -11.609 V-7.566 Z"/></g><g id="Light-S" transform="matrix(1 0 0 1 1109.75 696)"><path d="M18.173 -9.516 Q15.771 -9.516 14.004 -11.283 Q12.237 -13.049 12.237 -15.452 V-55 Q12.237 -57.452 14.054 -59.199 Q15.871 -60.944 18.379 -60.944 H21.295 L37.777 -44.463 H16.967 V-15.46 Q16.967 -14.928 17.309 -14.587 Q17.65 -14.246 18.182 -14.246 H49.403 V-9.516 H18.173 Z M82.443 -54.996 V-44.463 H77.713 H47.371 L30.888 -60.944 H37.099 L43.368 -48.483 L42.641 -49.193 H52.347 L46.52 -60.944 H56.387 L62.263 -49.193 H71.571 L65.726 -60.944 H76.498 Q78.978 -60.944 80.711 -59.177 Q82.443 -57.411 82.443 -54.996 Z M76.488 -15.365  67.369 -24.385  77.117 -34.183 Q77.613 -34.581 78.221 -34.877 Q78.831 -35.173 79.45 -35.173 Q80.125 -35.173 80.741 -34.938 Q81.357 -34.702 81.847 -34.252 L86.186 -29.754 Q86.608 -29.107 86.893 -28.542 Q87.177 -27.977 87.177 -27.352 Q87.177 -26.726 86.939 -26.138 Q86.702 -25.55 86.192 -25.07 L76.488 -15.365 Z M82.352 0.112  79.013 3.468  68.328 -7.156  66.033 -4.861 H56.865 V-14.03 L59.16 -16.286 L8.611 -67.033 L11.948 -70.39 L82.352 0.112 Z M60.196 -8.192 H64.239 L65.81 -9.675 L61.679 -13.806 L60.196 -12.236 V-8.192 Z"/></g><g id="Thin-S" transform="matrix(1 0 0 1 814.015 696)"><path d="M19.283 -11.317 Q17.136 -11.317 15.578 -12.876 Q14.02 -14.434 14.02 -16.581 V-53.862 Q14.02 -56.041 15.642 -57.591 Q17.264 -59.143 19.497 -59.143 H22.718 L35.464 -46.397 H16.873 V-16.598 Q16.873 -15.536 17.555 -14.852 Q18.238 -14.17 19.3 -14.17 H49.1 V-11.317 H19.283 Z M80.66 -53.855 V-46.397 H77.807 H45.133 L32.386 -59.143 H38.051 L43.786 -47.782 L42.28 -49.25 H52.423 L47.525 -59.143 H57.297 L62.244 -49.25 H71.59 L66.656 -59.143 H75.38 Q77.613 -59.143 79.137 -57.584 Q80.66 -56.026 80.66 -53.855 Z M74.914 -16.654  67.425 -24.044  77.307 -33.975 Q77.65 -34.201 78.047 -34.412 Q78.443 -34.623 78.83 -34.623 Q79.253 -34.623 79.662 -34.474 Q80.073 -34.324 80.406 -34.061 L84.746 -29.546 Q84.996 -29.051 85.195 -28.684 Q85.394 -28.318 85.394 -27.93 Q85.394 -27.541 85.233 -27.181 Q85.071 -26.821 84.756 -26.498 L74.914 -16.654 Z M81.366 -0.495  79.374 1.534  68.063 -9.754  64.952 -6.644 H57.415 V-14.181 L60.525 -17.216 L10.565 -67.374 L12.556 -69.404 L81.366 -0.495 Z M59.588 -8.817 H63.632 L66.379 -11.439 L62.21 -15.608 L59.588 -12.861 V-8.817 Z"/></g><g id="Ultralight-S" transform="matrix(1 0 0 1 517.792 696)"><path d="M19.95 -12.398 Q17.956 -12.398 16.523 -13.831 Q15.09 -15.264 15.09 -17.26 V-53.18 Q15.09 -55.194 16.595 -56.628 Q18.1 -58.062 20.169 -58.062 H23.571 L34.075 -47.558 H16.816 V-17.28 Q16.816 -15.899 17.703 -15.012 Q18.591 -14.124 19.972 -14.124 H48.918 V-12.398 H19.95 Z M79.59 -53.17 V-47.558 H77.864 H43.79 L33.286 -58.062 H38.623 L44.036 -47.361 L42.064 -49.284 H52.468 L48.129 -58.062 H57.844 L62.232 -49.284 H71.602 L67.213 -58.062 H74.708 Q76.793 -58.062 78.192 -56.629 Q79.59 -55.196 79.59 -53.17 Z M73.969 -17.428  67.46 -23.839  77.421 -33.849 Q77.673 -33.974 77.942 -34.133 Q78.211 -34.293 78.458 -34.293 Q78.729 -34.293 79.015 -34.194 Q79.302 -34.096 79.541 -33.948 L83.881 -29.421 Q84.029 -29.017 84.176 -28.77 Q84.324 -28.523 84.324 -28.277 Q84.324 -28.03 84.208 -27.806 Q84.093 -27.584 83.894 -27.354 L73.969 -17.428 Z M80.774 -0.859  79.59 0.374  67.903 -11.313  64.303 -7.714 H57.745 V-14.272 L61.345 -17.773 L11.736 -67.579 L12.92 -68.812 L80.774 -0.859 Z M59.224 -9.193 H63.268 L66.72 -12.497 L62.528 -16.688 L59.224 -13.237 V-9.193 Z"/></g></g></svg>