<svg xmlns="http://www.w3.org/2000/svg" version="1.1" width="3300" height="2000"><g id="Notes"><style>
    text {
      font-family: monospace;
      text-anchor: middle;
    }
    text.emphasis {
      font-weight:bold;
    }
    text.lanchor {
      text-anchor: start;
    }
  </style><rect height="2200" id="artboard" fill="white" width="3300" x="0" y="0"/><line id="" style="fill:none;stroke:black;stroke-width:0.5;" x1="263" x2="3036" y1="292" y2="292"/><text class="lanchor emphasis" transform="matrix(1 0 0 1 263 322)">Weight/Scale Variations</text><text transform="matrix(1 0 0 1 559.711 322)">Ultralight</text><text transform="matrix(1 0 0 1 856.422 322)">Thin</text><text transform="matrix(1 0 0 1 1153.13 322)">Light</text><text transform="matrix(1 0 0 1 1449.84 322)">Regular</text><text transform="matrix(1 0 0 1 1746.56 322)">Medium</text><text transform="matrix(1 0 0 1 2043.27 322)">Semibold</text><text transform="matrix(1 0 0 1 2339.98 322)">Bold</text><text transform="matrix(1 0 0 1 2636.69 322)">Heavy</text><text transform="matrix(1 0 0 1 2933.4 322)">Black</text><text id="template-version" style="text-anchor: end;" transform="matrix(1 0 0 1 3036 1933)">Template v.1.0</text><text class="lanchor" transform="matrix(1 0 0 1 263 726)">Small</text><text class="lanchor" transform="matrix(1 0 0 1 263 1156)">Medium</text><text class="lanchor" transform="matrix(1 0 0 1 263 1586)">Large</text></g><g id="Guides"><g id="H-reference" style="fill:#27AAE1;stroke:none;" transform="matrix(1 0 0 1 339 696)"><path d="M 54.9316 0 L 57.666 0 L 30.5664 -70.459 L 28.0762 -70.459 L 0.976562 0 L 3.66211 0 L 12.9395 -24.4629 L 45.7031 -24.4629 Z M 29.1992 -67.0898 L 29.4434 -67.0898 L 44.8242 -26.709 L 13.8184 -26.709 Z"/></g><line id="Baseline-S" style="fill:none;stroke:#27AAE1;opacity:1;stroke-width:0.577;" x1="263" x2="3036" y1="696" y2="696"/><line id="Capline-S" style="fill:none;stroke:#27AAE1;opacity:1;stroke-width:0.577;" x1="263" x2="3036" y1="625.541" y2="625.541"/><g id="H-reference" style="fill:#27AAE1;stroke:none;" transform="matrix(1 0 0 1 339 1126)"><path d="M 54.9316 0 L 57.666 0 L 30.5664 -70.459 L 28.0762 -70.459 L 0.976562 0 L 3.66211 0 L 12.9395 -24.4629 L 45.7031 -24.4629 Z M 29.1992 -67.0898 L 29.4434 -67.0898 L 44.8242 -26.709 L 13.8184 -26.709 Z"/></g><line id="Baseline-M" style="fill:none;stroke:#27AAE1;opacity:1;stroke-width:0.577;" x1="263" x2="3036" y1="1126" y2="1126"/><line id="Capline-M" style="fill:none;stroke:#27AAE1;opacity:1;stroke-width:0.577;" x1="263" x2="3036" y1="1055.54" y2="1055.54"/><g id="H-reference" style="fill:#27AAE1;stroke:none;" transform="matrix(1 0 0 1 339 1556)"><path d="M 54.9316 0 L 57.666 0 L 30.5664 -70.459 L 28.0762 -70.459 L 0.976562 0 L 3.66211 0 L 12.9395 -24.4629 L 45.7031 -24.4629 Z M 29.1992 -67.0898 L 29.4434 -67.0898 L 44.8242 -26.709 L 13.8184 -26.709 Z"/></g><line id="Baseline-L" style="fill:none;stroke:#27AAE1;opacity:1;stroke-width:0.577;" x1="263" x2="3036" y1="1556" y2="1556"/><line id="Capline-L" style="fill:none;stroke:#27AAE1;opacity:1;stroke-width:0.577;" x1="263" x2="3036" y1="1485.54" y2="1485.54"/><rect height="119.336" id="left-margin" style="fill:darkred;stroke:none;opacity:0.4;" width="12.4512" x="1394.06" y="1030.79"/><rect height="119.336" id="right-margin" style="fill:darkgreen;stroke:none;opacity:0.4;" width="12.4512" x="1502.5112" y="1030.79"/><rect x="1406.5112" y="1045" width="96" height="96" fill="none" stroke="blue" stroke-dasharray="5"/><rect x="1394.06" y="1030.79" width="120.9024" height="119.336" fill="none" stroke="blue"/></g><g id="Symbols"><g id="Bold-L" transform="matrix(1 0 0 1 2266 1556)"><path d="M24.026 20.401 Q17.729 20.401 13.298 16.128 Q8.869 11.855 8.869 5.566 V-75.704 Q8.869 -80.627 11.61 -84.534 Q14.351 -88.442 19.027 -90.055 H22.253 L61.114 -51.194 H24.026 V5.244 Q24.026 5.244 24.026 5.244 Q24.026 5.244 24.026 5.244 H79.98 V20.401 H24.026 Z M146.093 -75.704 V-51.194 H130.774 H74.981 L35.153 -91.022 H49.343 L62.888 -63.126 L59.663 -66.512 H83.044 L71.111 -91.022 H95.138 L107.006 -66.512 H128.678 L116.745 -91.022 H130.774 Q137.137 -91.022 141.615 -86.545 Q146.093 -82.067 146.093 -75.704 Z M132.87 6.856  109.65 -16.364  125.936 -32.489 Q127.71 -34.233 129.914 -35.135 Q132.117 -36.036 134.483 -36.036 Q136.74 -36.036 139.006 -35.069 Q141.271 -34.101 143.029 -32.327 L148.995 -26.361 Q150.74 -24.587 151.641 -22.383 Q152.543 -20.181 152.543 -17.976 Q152.543 -15.557 151.575 -13.3 Q150.608 -11.042 148.834 -9.269 L132.87 6.856 Z M148.673 36.365  140.61 44.589  117.874 21.853  112.875 26.851 H89.655 V3.631 L94.654 -1.206 L0 -96.021 L8.062 -104.245 L148.673 36.365 Z M101.749 14.758 H105.941 L108.36 12.339 L104.168 8.146 L101.749 10.565 V14.758 Z"/></g><g id="Semibold-L" transform="matrix(1 0 0 1 1970.27 1556)"><path d="M23.396 18.648 Q18.154 18.648 14.387 14.972 Q10.622 11.294 10.622 6.056 V-76.334 Q10.622 -80.87 13.398 -84.305 Q16.173 -87.741 20.569 -88.652 H23.794 L60.624 -51.824 H23.396 V5.874 Q23.396 5.874 23.396 5.874 Q23.396 5.874 23.396 5.874 H80.261 V18.648 H23.396 Z M144.27 -76.334 V-51.824 H131.404 H74.491 L37.115 -89.2 H50.605 L63.449 -62.776 L61.625 -64.69 H83.955 L72.022 -89.2 H94.717 L106.614 -64.69 H127.976 L116.044 -89.2 H131.404 Q136.684 -89.2 140.476 -85.406 Q144.27 -81.614 144.27 -76.334 Z M131.467 5.315  109.719 -16.433  125.936 -32.489 Q127.57 -34.106 129.587 -34.896 Q131.604 -35.686 133.712 -35.686 Q135.829 -35.686 137.88 -34.824 Q139.931 -33.961 141.557 -32.327 L147.523 -26.361 Q149.14 -24.728 149.93 -22.711 Q150.72 -20.693 150.72 -18.678 Q150.72 -16.54 149.822 -14.456 Q148.926 -12.374 147.362 -10.741 L131.467 5.315 Z M146.149 33.701  138.577 41.364  116.963 19.819  111.683 25.098 H89.936 V3.351 L95.215 -1.837 L2.174 -95.039 L9.744 -102.703 L146.149 33.701 Z M100.978 14.056 H106.011 L108.57 11.428 L103.606 6.464 L100.978 9.023 V14.056 Z"/></g><g id="Medium-L" transform="matrix(1 0 0 1 1674.31 1556)"><path d="M22.922 17.334 Q18.471 17.334 15.204 14.104 Q11.936 10.873 11.936 6.426 V-76.808 Q11.936 -81.052 14.738 -84.134 Q17.541 -87.215 21.727 -87.601 H24.952 L60.254 -52.298 H22.922 V6.348 Q22.922 6.348 22.922 6.348 Q22.922 6.348 22.922 6.348 H80.47 V17.334 H22.922 Z M142.903 -76.808 V-52.298 H131.878 H74.122 L38.587 -87.833 H51.552 L63.87 -62.513 L63.097 -63.323 H84.639 L72.706 -87.833 H94.401 L106.319 -63.323 H127.45 L115.518 -87.833 H131.878 Q136.345 -87.833 139.623 -84.553 Q142.903 -81.275 142.903 -76.808 Z M130.416 4.157  109.773 -16.486  125.936 -32.489 Q127.465 -34.011 129.342 -34.717 Q131.217 -35.423 133.133 -35.423 Q135.145 -35.423 137.037 -34.64 Q138.928 -33.856 140.452 -32.327 L146.418 -26.361 Q147.94 -24.833 148.647 -22.956 Q149.353 -21.08 149.353 -19.203 Q149.353 -17.275 148.508 -15.324 Q147.663 -13.374 146.257 -11.846 L130.416 4.157 Z M144.256 31.703  137.051 38.945  116.279 18.294  110.79 23.784 H90.145 V3.141 L95.636 -2.311 L3.804 -94.304 L11.007 -101.546 L144.256 31.703 Z M100.399 13.53 H106.064 L108.728 10.744 L103.185 5.202 L100.399 7.866 V13.53 Z"/></g><g id="Regular-L" transform="matrix(1 0 0 1 1378.56 1556)"><path d="M22.575 16.37 Q18.705 16.37 15.803 13.468 Q12.9 10.565 12.9 6.695 V-77.155 Q12.9 -81.186 15.722 -84.008 Q18.544 -86.83 22.575 -86.83 H25.8 L59.985 -52.645 H22.575 V6.695 Q22.575 6.695 22.575 6.695 Q22.575 6.695 22.575 6.695 H80.625 V16.37 H22.575 Z M141.9 -77.155 V-52.645 H132.225 H73.853 L39.668 -86.83 H52.245 L64.177 -62.32 H85.14 L73.207 -86.83 H94.17 L106.103 -62.32 H127.065 L115.133 -86.83 H132.225 Q136.095 -86.83 138.998 -83.927 Q141.9 -81.025 141.9 -77.155 Z M129.645 3.309  109.811 -16.525  125.936 -32.489 Q127.388 -33.94 129.161 -34.585 Q130.935 -35.23 132.709 -35.23 Q134.644 -35.23 136.417 -34.504 Q138.191 -33.779 139.643 -32.327 L145.609 -26.361 Q147.06 -24.91 147.705 -23.136 Q148.35 -21.362 148.35 -19.589 Q148.35 -17.815 147.544 -15.961 Q146.738 -14.106 145.447 -12.655 L129.645 3.309 Z M142.868 30.238  135.934 37.171  115.778 17.176  110.134 22.82 H90.3 V2.986 L95.944 -2.657 L4.999 -93.764 L11.933 -100.697 L142.868 30.238 Z M99.975 13.145 H106.103 L108.844 10.243 L102.877 4.276 L99.975 7.018 V13.145 Z"/></g><g id="Light-L" transform="matrix(1 0 0 1 1082.77 1556)"><path d="M25.428 13.145 Q21.62 13.145 18.873 10.397 Q16.125 7.65 16.125 3.842 V-74.302 Q16.125 -78.132 18.881 -80.869 Q21.635 -83.605 25.49 -83.605 H28.406 L57.379 -54.63 H23.444 V3.842 Q23.444 4.71 24.002 5.268 Q24.56 5.826 25.428 5.826 H79.261 V13.145 H25.428 Z M138.675 -74.302 V-54.63 H131.356 H72.364 L43.45 -83.605 H54.701 L65.542 -61.451 L65.047 -61.948 H85.822 L75.254 -83.605 H94.915 L105.482 -61.948 H126.01 L115.442 -83.605 H129.372 Q133.18 -83.605 135.927 -80.857 Q138.675 -78.11 138.675 -74.302 Z M127.288 0.393  110.245 -16.649  126.06 -32.303 Q127.263 -33.443 128.658 -33.964 Q130.053 -34.485 131.448 -34.485 Q132.968 -34.485 134.391 -33.916 Q135.813 -33.345 136.975 -32.203 L142.942 -26.176 Q144.083 -24.971 144.604 -23.57 Q145.125 -22.169 145.125 -20.767 Q145.125 -19.366 144.474 -17.915 Q143.822 -16.464 142.842 -15.261 L127.288 0.393 Z M140.634 28.625  135.437 33.883  114.537 13.145  108.087 19.595 H91.045 V2.552 L97.495 -3.836 L8.287 -93.267 L13.545 -98.464 L140.634 28.625 Z M98.735 11.905 H104.862 L109.029 7.637 L103.002 1.609 L98.735 5.777 V11.905 Z"/></g><g id="Thin-L" transform="matrix(1 0 0 1 787.282 1556)"><path d="M28.28 9.92 Q24.534 9.92 21.943 7.327 Q19.35 4.736 19.35 0.99 V-71.45 Q19.35 -75.078 22.038 -77.729 Q24.726 -80.38 28.404 -80.38 H31.01 L54.775 -56.615 H24.312 V0.99 Q24.312 2.725 25.428 3.842 Q26.545 4.958 28.28 4.958 H77.897 V9.92 H28.28 Z M135.45 -71.45 V-56.615 H130.488 H70.876 L47.233 -80.38 H57.157 L66.906 -60.583 L65.914 -61.575 H86.504 L77.3 -80.38 H95.658 L104.862 -61.575 H124.956 L115.753 -80.38 H126.52 Q130.266 -80.38 132.857 -77.787 Q135.45 -75.196 135.45 -71.45 Z M124.932 -2.52  110.679 -16.773  126.185 -32.116 Q127.139 -32.948 128.155 -33.345 Q129.171 -33.742 130.187 -33.742 Q131.295 -33.742 132.364 -33.326 Q133.434 -32.911 134.308 -32.079 L140.275 -25.989 Q141.107 -25.034 141.503 -24.004 Q141.9 -22.975 141.9 -21.946 Q141.9 -20.916 141.403 -19.868 Q140.908 -18.82 140.238 -17.865 L124.932 -2.52 Z M138.402 27.013  134.942 30.597  113.297 9.114  106.041 16.37 H91.788 V2.119 L99.045 -5.015 L11.573 -92.772 L15.158 -96.232 L138.402 27.013 Z M97.495 10.665 H103.622 L109.216 5.033 L103.126 -1.058 L97.495 4.537 V10.665 Z"/></g><g id="Ultralight-L" transform="matrix(1 0 0 1 491.205 1556)"><path d="M29.992 7.985 Q26.284 7.985 23.784 5.486 Q21.285 2.986 21.285 -0.722 V-69.737 Q21.285 -73.245 23.933 -75.846 Q26.58 -78.445 30.154 -78.445 H32.572 L53.212 -57.805 H24.832 V-0.722 Q24.832 1.535 26.284 2.986 Q27.735 4.438 29.992 4.438 H77.078 V7.985 H29.992 Z M133.515 -69.737 V-57.805 H129.968 H69.983 L49.504 -78.445 H58.629 L67.725 -60.062 L66.435 -61.352 H86.914 L78.529 -78.445 H96.105 L104.49 -61.352 H124.324 L115.939 -78.445 H124.808 Q128.516 -78.445 131.016 -75.946 Q133.515 -73.446 133.515 -69.737 Z M123.517 -4.27  110.94 -16.847  126.259 -32.005 Q127.065 -32.65 127.854 -32.972 Q128.642 -33.295 129.431 -33.295 Q130.29 -33.295 131.148 -32.972 Q132.007 -32.65 132.709 -32.005 L138.675 -25.877 Q139.32 -25.071 139.643 -24.265 Q139.965 -23.459 139.965 -22.652 Q139.965 -21.846 139.562 -21.04 Q139.159 -20.234 138.675 -19.427 L123.517 -4.27 Z M137.062 26.045  134.644 28.625  112.553 6.695  104.812 14.435 H92.235 V1.858 L99.975 -5.721 L13.545 -92.474 L16.125 -94.892 L137.062 26.045 Z M96.75 9.92 H102.877 L109.328 3.47 L103.2 -2.657 L96.75 3.793 V9.92 Z"/></g><g id="Bold-M" transform="matrix(1 0 0 1 2281.8 1126)"><path d="M21.5 9.02 Q14.875 9.02 10.312 4.583 Q5.75 0.145 5.75 -6.355 V-63.73 Q5.75 -68.855 8.625 -72.855 Q11.5 -76.855 16.25 -78.605 L51.125 -43.73 H21.5 V-6.73 Q21.5 -6.73 21.5 -6.73 Q21.5 -6.73 21.5 -6.73 H59.25 V9.02 H21.5 Z M114.25 -63.73 V-43.73 H98.5 H65.375 L29.5 -79.48 H39.5 L49.5 -59.48 H65.25 L55.25 -79.48 H71 L81 -59.48 H96.625 L86.625 -79.48 H98.5 Q105.125 -79.48 109.688 -74.917 Q114.25 -70.355 114.25 -63.73 Z M105.625 -3.48  86.75 -22.23  97.625 -33.105 Q99.125 -34.457 100.959 -35.219 Q102.791 -35.98 104.625 -35.98 Q106.625 -35.98 108.444 -35.23 Q110.263 -34.48 111.75 -32.98 L116.375 -28.355 Q117.728 -26.855 118.489 -25.021 Q119.25 -23.189 119.25 -21.355 Q119.25 -19.355 118.562 -17.542 Q117.875 -15.73 116.375 -14.23 L105.625 -3.48 Z M115.75 20.895  107.375 29.27  90.125 12.02  88.125 14.02 H69.25 V-4.855 L71.25 -6.73 L-2.125 -80.23 L6.25 -88.605 L115.75 20.895 Z M79.25 4.02 H82.125 L79.25 1.145 V4.02 Z"/></g><g id="Semibold-M" transform="matrix(1 0 0 1 1985.97 1126)"><path d="M20.848 7.173 Q15.31 7.173 11.454 3.388 Q7.598 -0.399 7.598 -5.866 V-64.382 Q7.598 -69.072 10.5 -72.61 Q13.402 -76.149 17.88 -77.137 L50.636 -44.382 H20.848 V-6.077 Q20.848 -6.077 20.848 -6.077 Q20.848 -6.077 20.848 -6.077 H59.576 V7.173 H20.848 Z M112.403 -64.382 V-44.382 H99.153 H64.886 L31.565 -77.632 H40.804 L50.097 -59.1 L51.565 -57.632 H66.229 L56.229 -77.632 H70.565 L80.565 -57.632 H95.919 L85.919 -77.632 H99.153 Q104.69 -77.632 108.546 -73.776 Q112.403 -69.92 112.403 -64.382 Z M104.157 -5.056  86.804 -22.339  97.625 -33.105 Q98.963 -34.305 100.596 -34.979 Q102.23 -35.654 103.864 -35.654 Q105.646 -35.654 107.272 -34.985 Q108.899 -34.317 110.229 -32.98 L114.854 -28.355 Q116.052 -27.017 116.728 -25.384 Q117.403 -23.75 117.403 -22.116 Q117.403 -20.387 116.796 -18.737 Q116.19 -17.089 114.854 -15.751 L104.157 -5.056 Z M113.141 18.124  105.31 25.955  89.201 9.9  86.93 12.173 H69.576 V-5.181 L71.847 -7.382 L0.158 -79.197 L7.989 -87.029 L113.141 18.124 Z M78.489 3.259 H82.179 L82.343 3.041 L78.706 -0.594 L78.489 -0.431 V3.259 Z"/></g><g id="Medium-M" transform="matrix(1 0 0 1 1689.91 1126)"><path d="M20.359 5.786 Q15.636 5.786 12.31 2.49 Q8.984 -0.806 8.984 -5.499 V-64.871 Q8.984 -69.235 11.906 -72.427 Q14.829 -75.619 19.104 -76.037 L50.269 -44.871 H20.359 V-5.589 Q20.359 -5.589 20.359 -5.589 Q20.359 -5.589 20.359 -5.589 H59.821 V5.786 H20.359 Z M111.016 -64.871 V-44.871 H99.641 H64.519 L33.114 -76.246 H41.782 L50.546 -58.814 L53.114 -56.246 H66.963 L56.962 -76.246 H70.239 L80.239 -56.246 H95.389 L85.389 -76.246 H99.641 Q104.364 -76.246 107.69 -72.92 Q111.016 -69.594 111.016 -64.871 Z M103.058 -6.239  86.845 -22.42  97.625 -33.105 Q98.84 -34.19 100.324 -34.799 Q101.809 -35.409 103.294 -35.409 Q104.912 -35.409 106.394 -34.802 Q107.875 -34.195 109.088 -32.98 L113.713 -28.355 Q114.796 -27.14 115.406 -25.656 Q116.016 -24.171 116.016 -22.686 Q116.016 -21.162 115.471 -19.635 Q114.926 -18.107 113.713 -16.892 L103.058 -6.239 Z M111.185 16.045  103.761 23.469  88.509 8.311  86.032 10.786 H69.821 V-5.426 L72.296 -7.871 L1.87 -78.422 L9.294 -85.846 L111.185 16.045 Z M77.919 2.689 H82.22 L82.505 2.308 L78.299 -1.899 L77.919 -1.614 V2.689 Z"/></g><g id="Regular-M" transform="matrix(1 0 0 1 1394.06 1126)"><path d="M20 4.77 Q15.875 4.77 12.938 1.833 Q10 -1.105 10 -5.23 V-65.23 Q10 -69.355 12.938 -72.292 Q15.875 -75.23 20 -75.23 L50 -45.23 H20 V-5.23 Q20 -5.23 20 -5.23 Q20 -5.23 20 -5.23 H60 V4.77 H20 Z M110 -65.23 V-45.23 H100 H64.25 L34.25 -75.23 H42.5 L50.875 -58.605 L54.25 -55.23 H67.5 L57.5 -75.23 H70 L80 -55.23 H95 L85 -75.23 H100 Q104.125 -75.23 107.062 -72.292 Q110 -69.355 110 -65.23 Z M102.25 -7.105  86.875 -22.48  97.625 -33.105 Q98.75 -34.105 100.125 -34.667 Q101.5 -35.23 102.875 -35.23 Q104.375 -35.23 105.75 -34.667 Q107.125 -34.105 108.25 -32.98 L112.875 -28.355 Q113.875 -27.23 114.438 -25.855 Q115 -24.48 115 -23.105 Q115 -21.73 114.5 -20.292 Q114 -18.855 112.875 -17.73 L102.25 -7.105 Z M109.75 14.52  102.625 21.645  88 7.145  85.375 9.77 H70 V-5.605 L72.625 -8.23 L3.125 -77.855 L10.25 -84.98 L109.75 14.52 Z M77.5 2.27 H82.25 L82.625 1.77 L78 -2.855 L77.5 -2.48 V2.27 Z"/></g><g id="Light-M" transform="matrix(1 0 0 1 1098.18 1126)"><path d="M21.539 2.27 Q17.75 2.27 15.125 -0.355 Q12.5 -2.98 12.5 -6.769 V-63.691 Q12.5 -67.42 15.169 -70.075 Q17.839 -72.73 21.586 -72.73 H22.02 L47.019 -47.73 H20 V-6.769 Q20 -6.095 20.433 -5.662 Q20.865 -5.23 21.539 -5.23 H59.615 V2.27 H21.539 Z M107.5 -63.691 V-47.73 H100 H61.221 L36.221 -72.73 H43.875 L51.644 -57.306 L53.721 -55.23 H67.644 L58.894 -72.73 H71.394 L80.144 -55.23 H95.144 L86.394 -72.73 H98.461 Q102.25 -72.73 104.875 -70.105 Q107.5 -67.48 107.5 -63.691 Z M99.942 -8.884  86.731 -22.095  97.721 -32.961 Q98.654 -33.769 99.735 -34.211 Q100.816 -34.652 101.897 -34.652 Q103.076 -34.652 104.179 -34.211 Q105.281 -33.769 106.183 -32.884 L110.808 -28.211 Q111.615 -27.277 112.058 -26.191 Q112.5 -25.105 112.5 -24.019 Q112.5 -22.932 112.096 -21.807 Q111.692 -20.682 110.808 -19.75 L99.942 -8.884 Z M108.308 13.559  102.961 18.905  87.519 3.539  83.789 7.27 H70.578 V-5.941 L74.308 -9.624 L5.865 -78.191 L11.211 -83.537 L108.308 13.559 Z M76.539 1.309 H81.289 L83.25 -0.73 L78.578 -5.404 L76.539 -3.441 V1.309 Z"/></g><g id="Thin-M" transform="matrix(1 0 0 1 802.565 1126)"><path d="M23.078 -0.23 Q19.625 -0.23 17.312 -2.542 Q15 -4.855 15 -8.307 V-62.152 Q15 -65.485 17.401 -67.857 Q19.801 -70.23 23.172 -70.23 H24.039 L44.039 -50.23 H20 V-8.307 Q20 -6.961 20.865 -6.095 Q21.731 -5.23 23.078 -5.23 H59.231 V-0.23 H23.078 Z M105 -62.152 V-50.23 H100 H58.193 L38.193 -70.23 H45.25 L52.414 -56.009 L53.193 -55.23 H67.789 L60.289 -70.23 H72.789 L80.289 -55.23 H95.289 L87.789 -70.23 H96.922 Q100.375 -70.23 102.688 -67.917 Q105 -65.605 105 -62.152 Z M97.635 -10.662  86.586 -21.711  97.817 -32.816 Q98.558 -33.432 99.345 -33.754 Q100.132 -34.076 100.92 -34.076 Q101.779 -34.076 102.608 -33.754 Q103.438 -33.432 104.115 -32.787 L108.74 -28.066 Q109.356 -27.326 109.677 -26.527 Q110 -25.73 110 -24.932 Q110 -24.134 109.692 -23.321 Q109.385 -22.509 108.74 -21.769 L97.635 -10.662 Z M106.865 12.598  103.297 16.164  87.039 -0.066  82.203 4.77 H71.154 V-6.277 L75.99 -11.019 L8.606 -78.527 L12.172 -82.095 L106.865 12.598 Z M75.578 0.348 H80.328 L83.875 -3.23 L79.154 -7.951 L75.578 -4.402 V0.348 Z"/></g><g id="Ultralight-M" transform="matrix(1 0 0 1 506.415 1126)"><path d="M24 -1.73 Q20.75 -1.73 18.625 -3.855 Q16.5 -5.98 16.5 -9.23 V-61.23 Q16.5 -64.324 18.74 -66.527 Q20.98 -68.73 24.125 -68.73 H25.25 L42.25 -51.73 H20 V-9.23 Q20 -7.48 21.125 -6.355 Q22.25 -5.23 24 -5.23 H59 V-1.73 H24 Z M103.5 -61.23 V-51.73 H100 H56.375 L39.375 -68.73 H46.074 L52.875 -55.23 H67.875 L61.125 -68.73 H73.625 L80.375 -55.23 H95.375 L88.625 -68.73 H96 Q99.25 -68.73 101.375 -66.605 Q103.5 -64.48 103.5 -61.23 Z M96.25 -11.73  86.5 -21.48  97.875 -32.73 Q98.5 -33.23 99.111 -33.48 Q99.722 -33.73 100.334 -33.73 Q101 -33.73 101.665 -33.48 Q102.331 -33.23 102.875 -32.73 L107.5 -27.98 Q108 -27.355 108.25 -26.73 Q108.5 -26.105 108.5 -25.48 Q108.5 -24.855 108.25 -24.23 Q108 -23.605 107.5 -22.98 L96.25 -11.73 Z M106 12.02  103.5 14.52  86.75 -2.23  81.25 3.27 H71.5 V-6.48 L77 -11.855 L10.25 -78.73 L12.75 -81.23 L106 12.02 Z M75 -0.23 H79.75 L84.25 -4.73 L79.5 -9.48 L75 -4.98 V-0.23 Z"/></g><g id="Bold-S" transform="matrix(1 0 0 1 2294.23 696)"><path d="M17.753 -3.473 Q12.92 -3.473 9.517 -6.777 Q6.115 -10.081 6.115 -14.815 V-55.349 Q6.115 -59.068 8.151 -61.992 Q10.188 -64.916 13.61 -66.297 H15.977 L41.127 -41.147 H17.753 V-15.11 Q17.753 -15.11 17.753 -15.11 Q17.753 -15.11 17.753 -15.11 H49.115 V-3.473 H17.753 Z M88.565 -55.349 V-41.147 H76.928 H51.285 L25.347 -66.987 H33.09 L40.831 -51.503 L39.549 -52.785 H50.299 L43.198 -66.987 H55.23 L62.331 -52.785 H72.292 L65.191 -66.987 H76.928 Q81.829 -66.987 85.197 -63.585 Q88.565 -60.182 88.565 -55.349 Z M81.957 -10.574  68.051 -24.283  77.519 -33.849 Q78.505 -34.719 79.741 -35.27 Q80.977 -35.822 82.214 -35.822 Q83.562 -35.822 84.786 -35.329 Q86.011 -34.835 86.987 -33.849 L91.327 -29.411 Q92.197 -28.326 92.748 -27.101 Q93.299 -25.877 93.299 -24.652 Q93.299 -23.296 92.827 -22.115 Q92.353 -20.932 91.327 -19.943 L81.957 -10.574 Z M88.861 6.587  82.845 12.603  70.813 0.571  70.122 1.261 H56.216 V-12.645 L56.907 -13.237 L1.381 -68.96 L7.397 -74.976 L88.861 6.587 Z M62.923 -5.445 H65.487 L65.191 -5.051 L62.528 -7.714 L62.923 -8.009 V-5.445 Z"/></g><g id="Semibold-S" transform="matrix(1 0 0 1 1998.1 696)"><path d="M17.238 -4.93 Q13.263 -4.93 10.418 -7.72 Q7.572 -10.51 7.572 -14.429 V-55.864 Q7.572 -59.239 9.631 -61.799 Q11.689 -64.359 14.896 -65.139 H17.263 L40.741 -41.662 H17.238 V-14.596 Q17.238 -14.596 17.238 -14.596 Q17.238 -14.596 17.238 -14.596 H49.373 V-4.93 H17.238 Z M87.108 -55.864 V-41.662 H77.442 H50.899 L26.976 -65.53 H34.119 L41.302 -51.203 L41.178 -51.328 H51.071 L43.97 -65.53 H54.887 L61.988 -51.328 H71.735 L64.634 -65.53 H77.442 Q81.486 -65.53 84.297 -62.684 Q87.108 -59.839 87.108 -55.864 Z M80.8 -11.817  68.094 -24.368  77.519 -33.849 Q78.377 -34.599 79.455 -35.081 Q80.534 -35.564 81.613 -35.564 Q82.79 -35.564 83.862 -35.135 Q84.935 -34.707 85.787 -33.849 L90.126 -29.411 Q90.875 -28.454 91.358 -27.387 Q91.842 -26.32 91.842 -25.253 Q91.842 -24.111 91.433 -23.058 Q91.024 -22.004 90.126 -21.143 L80.8 -11.817 Z M86.803 4.4  81.216 9.988  70.084 -1.102  69.18 -0.196 H56.474 V-12.902 L57.378 -13.751 L3.182 -68.145 L8.769 -73.732 L86.803 4.4 Z M62.322 -6.046 H65.529 L65.363 -5.823 L62.099 -9.085 L62.322 -9.253 V-6.046 Z"/></g><g id="Medium-S" transform="matrix(1 0 0 1 1701.85 696)"><path d="M16.852 -6.024 Q13.521 -6.024 11.093 -8.428 Q8.666 -10.831 8.666 -14.139 V-56.25 Q8.666 -59.367 10.74 -61.655 Q12.814 -63.941 15.862 -64.271 H18.229 L40.451 -42.048 H16.852 V-14.21 Q16.852 -14.21 16.852 -14.21 Q16.852 -14.21 16.852 -14.21 H49.566 V-6.024 H16.852 Z M86.014 -56.25 V-42.048 H77.828 H50.609 L28.198 -64.436 H34.891 L41.656 -50.977 L42.4 -50.234 H51.65 L44.549 -64.436 H54.629 L61.73 -50.234 H71.317 L64.216 -64.436 H77.828 Q81.229 -64.436 83.621 -62.009 Q86.014 -59.581 86.014 -56.25 Z M79.932 -12.75  68.126 -24.433  77.519 -33.849 Q78.281 -34.508 79.241 -34.939 Q80.202 -35.371 81.162 -35.371 Q82.211 -35.371 83.169 -34.991 Q84.127 -34.611 84.887 -33.849 L89.226 -29.411 Q89.884 -28.551 90.316 -27.602 Q90.748 -26.653 90.748 -25.703 Q90.748 -24.722 90.388 -23.765 Q90.027 -22.808 89.226 -22.044 L79.932 -12.75 Z M85.259 2.76  79.994 8.026  69.538 -2.355  68.471 -1.29 H56.667 V-13.096 L57.732 -14.137 L4.533 -67.534 L9.798 -72.799 L85.259 2.76 Z M61.872 -6.496 H65.562 L65.491 -6.402 L61.778 -10.115 L61.872 -10.186 V-6.496 Z"/></g><g id="Regular-S" transform="matrix(1 0 0 1 1405.73 696)"><path d="M16.569 -6.826 Q13.709 -6.826 11.588 -8.946 Q9.468 -11.067 9.468 -13.927 V-56.533 Q9.468 -59.462 11.554 -61.548 Q13.64 -63.634 16.569 -63.634 H18.936 L40.239 -42.331 H16.569 V-13.927 Q16.569 -13.927 16.569 -13.927 Q16.569 -13.927 16.569 -13.927 H49.707 V-6.826 H16.569 Z M85.212 -56.533 V-42.331 H78.111 H50.397 L29.094 -63.634 H35.457 L41.916 -50.813 L43.296 -49.432 H52.074 L44.973 -63.634 H54.441 L61.542 -49.432 H71.01 L63.909 -63.634 H78.111 Q81.04 -63.634 83.126 -61.514 Q85.212 -59.393 85.212 -56.533 Z M79.294 -13.434  68.15 -24.48  77.519 -33.849 Q78.21 -34.441 79.084 -34.835 Q79.958 -35.23 80.833 -35.23 Q81.787 -35.23 82.661 -34.885 Q83.535 -34.54 84.226 -33.849 L88.565 -29.411 Q89.157 -28.622 89.552 -27.759 Q89.946 -26.896 89.946 -26.033 Q89.946 -25.17 89.622 -24.285 Q89.296 -23.398 88.565 -22.705 L79.294 -13.434 Z M84.127 1.557  79.097 6.587  69.136 -3.275  67.953 -2.092 H56.808 V-13.237 L57.992 -14.42 L5.523 -67.086 L10.553 -72.116 L84.127 1.557 Z M61.542 -6.826 H65.586 L61.542 -10.87 V-6.826 Z"/></g><g id="Light-S" transform="matrix(1 0 0 1 1109.75 696)"><path d="M17.783 -8.798 Q15.188 -8.798 13.314 -10.672 Q11.441 -12.546 11.441 -15.141 V-55.319 Q11.441 -57.935 13.314 -59.798 Q15.189 -61.661 17.821 -61.661 H20.53 L37.887 -44.303 H16.569 V-15.141 Q16.569 -14.609 16.91 -14.268 Q17.251 -13.927 17.783 -13.927 H49.403 V-8.798 H17.783 Z M83.24 -55.319 V-44.303 H78.111 H48.008 L30.65 -61.661 H36.542 L42.522 -49.788 L42.879 -49.432 H52.187 L46.073 -61.661 H55.541 L61.655 -49.432 H71.123 L65.009 -61.661 H76.897 Q79.561 -61.661 81.4 -59.788 Q83.24 -57.914 83.24 -55.319 Z M77.474 -14.837  68.036 -24.176  77.595 -33.736 Q78.134 -34.176 78.777 -34.476 Q79.419 -34.774 80.062 -34.774 Q80.762 -34.774 81.422 -34.525 Q82.081 -34.274 82.594 -33.773 L86.934 -29.298 Q87.374 -28.66 87.674 -28.024 Q87.974 -27.389 87.974 -26.754 Q87.974 -26.119 87.724 -25.479 Q87.475 -24.84 86.934 -24.298 L77.474 -14.837 Z M82.989 0.799  79.363 4.425  68.756 -6.121  66.701 -4.064 H57.264 V-13.502 L59.319 -15.52 L7.685 -67.351 L11.311 -70.978 L82.989 0.799 Z M60.784 -7.584 H64.827 L66.079 -8.798 L61.998 -12.881 L60.784 -11.628 V-7.584 Z"/></g><g id="Thin-S" transform="matrix(1 0 0 1 814.015 696)"><path d="M18.997 -10.771 Q16.668 -10.771 15.04 -12.398 Q13.413 -14.026 13.413 -16.355 V-54.105 Q13.413 -56.409 15.076 -58.049 Q16.738 -59.689 19.072 -59.689 H22.123 L35.536 -46.276 H16.569 V-16.355 Q16.569 -15.293 17.251 -14.609 Q17.935 -13.927 18.997 -13.927 H49.1 V-10.771 H18.997 Z M81.267 -54.105 V-46.276 H78.111 H45.618 L32.205 -59.689 H37.626 L43.13 -48.764 L42.462 -49.432 H52.302 L47.173 -59.689 H56.641 L61.77 -49.432 H71.238 L66.109 -59.689 H75.683 Q78.081 -59.689 79.674 -58.062 Q81.267 -56.434 81.267 -54.105 Z M75.653 -16.241  67.922 -23.873  77.671 -33.621 Q78.058 -33.91 78.469 -34.115 Q78.879 -34.32 79.291 -34.32 Q79.738 -34.32 80.182 -34.164 Q80.626 -34.009 80.963 -33.697 L85.303 -29.183 Q85.592 -28.698 85.796 -28.29 Q86.001 -27.882 86.001 -27.475 Q86.001 -27.067 85.827 -26.674 Q85.655 -26.281 85.303 -25.891 L75.653 -16.241 Z M81.851 0.04  79.628 2.262  68.378 -8.965  65.45 -6.037 H57.718 V-13.767 L60.646 -16.62 L9.848 -67.616 L12.07 -69.839 L81.851 0.04 Z M60.025 -8.343 H64.069 L66.572 -10.771 L62.452 -14.891 L60.025 -12.386 V-8.343 Z"/></g><g id="Ultralight-S" transform="matrix(1 0 0 1 517.792 696)"><path d="M19.725 -11.954 Q17.555 -11.954 16.076 -13.434 Q14.597 -14.913 14.597 -17.083 V-53.377 Q14.597 -55.493 16.132 -56.999 Q17.668 -58.505 19.824 -58.505 H23.078 L34.124 -47.459 H16.569 V-17.083 Q16.569 -15.702 17.457 -14.815 Q18.344 -13.927 19.725 -13.927 H48.918 V-11.954 H19.725 Z M80.084 -53.377 V-47.459 H78.111 H44.184 L33.138 -58.505 H38.277 L43.494 -48.15 L42.212 -49.432 H52.37 L47.833 -58.505 H57.301 L61.838 -49.432 H71.306 L66.769 -58.505 H74.955 Q77.194 -58.505 78.639 -57.026 Q80.084 -55.547 80.084 -53.377 Z M74.561 -17.083  67.854 -23.691  77.716 -33.553 Q78.012 -33.751 78.284 -33.899 Q78.556 -34.046 78.827 -34.046 Q79.124 -34.046 79.438 -33.948 Q79.753 -33.849 79.985 -33.652 L84.324 -29.115 Q84.522 -28.721 84.67 -28.45 Q84.818 -28.178 84.818 -27.907 Q84.818 -27.636 84.69 -27.391 Q84.562 -27.146 84.324 -26.847 L74.561 -17.083 Z M81.168 -0.415  79.788 0.965  68.15 -10.672  64.698 -7.22 H57.992 V-13.927 L61.443 -17.28 L11.145 -67.776 L12.525 -69.157 L81.168 -0.415 Z M59.57 -8.798 H63.613 L66.868 -11.954 L62.726 -16.097 L59.57 -12.842 V-8.798 Z"/></g></g></svg>