<svg xmlns="http://www.w3.org/2000/svg" height="48" viewBox="0 -960 960 960" width="48"><path d="M441.46-324.69q30.77 15.46 62.42 3.8 31.66-11.65 38.89-43.8 24-98.62 49.38-195.12 25.39-96.5 54.54-195.11-56.77 85.31-114.73 167.04-57.96 81.73-118.5 163.65-18.92 24.54-10.15 55 8.77 30.46 38.15 44.54ZM189.08-164q-16.77 0-30.43-7.69-13.65-7.7-22.73-21.85-25.46-46.69-38.19-98Q85-342.85 85-398.15q-1-80.16 30.58-152.5 31.58-72.35 86.19-126.77 54.62-54.42 127.15-86.5Q401.46-796 481.62-796q81.76 0 153.61 31.46 71.85 31.46 125.15 85.39 53.31 53.92 84.46 126.96Q876-479.15 876-397.38q0 54.92-14.23 106.03-14.23 51.12-38.69 96.27-7.7 14.54-22.04 22.81-14.35 8.27-30.12 8.27H189.08Z"/></svg>