<svg xmlns="http://www.w3.org/2000/svg" height="40" viewBox="0 -960 960 960" width="40"><path d="M197.33-196q-10.2 0-19.76-6.5Q168-209 163.33-218q-25.33-40.33-37-86.26-11.66-45.92-11.66-94.29 0-76.07 28.74-142.37 28.73-66.31 78.15-116.08 49.42-49.77 115.76-78.38Q403.66-764 479.09-764q16.85 0 31.13 1.49 14.28 1.48 30.11 5.18l-25.33 37q-10.41-1.34-18.38-1.84-7.98-.5-17.29-.5-134.66 0-229 94.43Q156-533.81 156-398.67q0 42.67 11.31 83.8 11.31 41.12 31.98 77.54h562.43q20.61-37.34 31.95-78Q805-356 805-398.67q0-65.27-25.01-125-25.01-59.74-72.99-105.66l13-45q59.78 50.9 93.06 123.01 33.27 72.12 33.27 152.65-1 49.08-13.66 95.88Q820-256 798.33-214q-6 9-15.48 13.5-9.49 4.5-19.18 4.5H197.33Zm249.34-139q24.66 13.33 50.3 3.45 25.63-9.89 31.53-36.47 23.83-90.98 50.33-180.65 26.5-89.66 57.84-180.66-50 82-102.17 159.66Q482.33-492 426.67-414.8q-14.67 20.13-8.5 44.13 6.16 24 28.5 35.67ZM474-384.67Z"/></svg>