<svg xmlns="http://www.w3.org/2000/svg" height="48" viewBox="0 -960 960 960" width="48"><path d="M448.31-338.5q24.65 12.92 50.84 2.92 26.2-10 33.04-36.8 24.77-89 49.29-176.39 24.52-87.38 51.94-176.27-52.07 76.62-103.57 152.02-51.5 75.4-105.2 150.52-14.84 21.35-7.61 46.65 7.23 25.31 31.27 37.35ZM199-201.54q-9.81 0-17.5-3.58-7.69-3.57-13.35-11.76-23.3-41.77-34.9-88.41-11.6-46.63-11.6-96.13-.5-73.08 28.04-138.1t78.1-113.63q49.56-48.62 114.96-77.16 65.4-28.54 138.48-28.54 74.19 0 139.02 28.56 64.83 28.56 113.46 76.98 48.64 48.43 76.89 113.83t28.25 139.6q0 49.11-12.6 94.67t-35.02 85.25q-3.88 8.58-12.85 13.5-8.96 4.92-17 4.92H199Z"/></svg>