<svg xmlns="http://www.w3.org/2000/svg" height="48" viewBox="0 -960 960 960" width="48"><path d="M189-148q-20 0-38.5-10T123-186q-28-49.27-42-102.39-14-53.13-14-109.43 0-86.25 32.5-161.22Q132-634 187.5-690.5q55.5-56.5 130.3-89Q392.6-812 477.64-812q31.03 0 60.19 4.55Q567-802.91 597-794l-46 63q-19.21-4.33-36.83-6.17Q496.55-739 478-739q-141 0-239.5 99.5T140-398q0 47 11.98 92.13 11.97 45.12 34.95 84.87h587.14Q797-262 809-306.5t12-91.5q0-78.57-34.52-149.09Q751.97-617.61 690-666l18-77q86.68 56.85 136.34 148.42Q894-503.02 894-398q-1 55.62-14.5 109.81Q866-234 839-186q-11 18-29 28t-38 10H189Zm249-169q35 17 70.5 4t43.24-49.27Q576-466 601-567.5 626-669 654-773q-61 88-123 173T405-430.71Q383-402 393.5-367.5T438-317Zm37-72Z"/></svg>