<svg xmlns="http://www.w3.org/2000/svg" height="40" viewBox="0 -960 960 960" width="40"><path d="M201.33-212q-7.53 0-13.77-4.5-6.23-4.5-9.56-10.83-23-39-34.5-83T132-400q0-72.21 27.4-135.72 27.41-63.51 74.5-110.61 47.08-47.11 110.31-74.39Q407.44-748 479.33-748q14.28 0 27.56 1.27 13.28 1.28 27.11 4.06l-14.67 22q-10.87-2-20.11-2.66-9.24-.67-19.89-.67-134.66 0-229 94.43Q156-535.15 156-400q0 43.33 11.5 84.83T200.67-236h558.66Q782-273.33 793-315t11-85q0-66.89-25.67-127.28-25.66-60.39-75-106.05l8.67-26.34q56 49.34 86 116.84T828-400q0 47-12 91.67-12 44.66-33.33 85-4 6.33-10.49 8.83t-13.51 2.5H201.33Zm249.34-131.33q23 11.66 46.63 2.61 23.63-9.05 30.05-33.77Q552.67-460 577.67-544.5 602.67-629 629-715q-49.33 74.67-98.67 148Q481-493.67 429.35-419.99q-13.35 19.66-6.68 42.66 6.66 23 28 34Zm24.66-48.34Z"/></svg>