<svg xmlns="http://www.w3.org/2000/svg" height="40" viewBox="0 -960 960 960" width="40"><path d="M450.67-343.33q23 11.66 46.66 2.66 23.67-9 30-33.66Q552.67-460 577.67-544.5 602.67-629 629-715q-49.33 74.67-98.67 148-49.33 73.33-101 147.33-13.33 19.34-6.66 42.34 6.66 23 28 34ZM201.33-212q-7.33 0-13.16-2.67-5.84-2.66-10.84-8.66-22.33-41.34-33.83-86.34t-11.5-93q0-71 27.67-134 27.66-63 75.5-109.83 47.83-46.83 111.16-74.17Q409.67-748 480.67-748q72 0 135.16 27.5Q679-693 726-646t74.5 110.5Q828-472 828-400q0 46.67-11.83 90.67-11.84 44-34.17 82-3.33 7.33-10 11.33t-13.33 4H201.33Z"/></svg>