<svg xmlns="http://www.w3.org/2000/svg" height="20" viewBox="0 -960 960 960" width="20"><path d="M192-158q-27.97 0-51.48-14.5Q117-187 103-210q-24-40-32.5-85T62-386.39q0-86.74 32.91-162.22 32.9-75.48 90.03-131.93 57.13-56.44 133.65-88.95Q395.11-802 481-802q23.42 0 46.83 2.68 23.42 2.68 46.17 8.32l-76 108q-3.95-.33-8.5-.67-4.55-.33-8.5-.33-125.07 0-213.03 88Q180-508 180-384q0 27.66 5 54.33Q190-303 199-276h562q9-27 14.5-53.64 5.5-26.63 5.5-53.92 0-63.44-26.5-120.94T681-605l35-126q86 59 134.5 150.14Q899-489.72 899-386q-1 46-9.52 90.98Q880.96-250.04 858-210q-15 23-38.68 37.5T769-158H192Zm255-178q31 15 61.47 3.15Q538.93-344.71 547-377q25.18-98 49.59-195Q621-669 649-767q-57 84-114 166.5T419.95-436.15q-17.95 25.85-9.95 56T447-336Zm34-63Z"/></svg>