<svg xmlns="http://www.w3.org/2000/svg" height="24" viewBox="0 -960 960 960" width="24"><path d="M204-200q-11.39 0-20.96-5.65-9.58-5.66-15.19-15.43-23.7-40.84-35.77-86.34Q120-352.92 120-400q0-74.7 28.35-140.4t76.95-114.3q48.6-48.6 114.3-76.95Q405.3-760 480-760q15.31 0 29.85 1.46 14.53 1.46 29.84 4.16l-26.07 36.61q-8.62-1.49-16.81-1.86-8.19-.37-16.81-.37-134 0-227 93t-93 227q0 42 11.5 82.5T204-240h551.77q22-36 33-77t11-83q0-64.64-24.35-123.39-24.34-58.76-70.8-103.76l12.53-43.93q58.85 51.62 90.73 122.04 31.89 70.42 31.89 149.04.23 48.62-12.23 94.23-12.46 45.62-35.62 87.77-5.61 9.77-15.19 13.88-9.57 4.12-20.96 4.12H204Zm246.85-140.31q25.07 11.69 50.24 1.85 25.17-9.85 32.91-35.85 26.69-87.77 51.35-175.15 24.65-87.39 48.27-176.39-53 75.16-104.43 149.77-51.42 74.62-104.04 150.7-15.38 22.07-7.23 47.61 8.16 25.54 32.93 37.46Zm25.84-54.54Z"/></svg>