<svg xmlns="http://www.w3.org/2000/svg" height="20" viewBox="0 -960 960 960" width="20"><path d="M194.46-237.54q-7.3 0-13.49-5.04-6.2-5.04-10.2-11.19-18.19-29.23-23.4-63.81-5.22-34.58-5.22-68.85 0-70.51 26.81-131.7 26.8-61.19 72.75-106.46 45.95-45.27 107.94-71.57 61.99-26.3 131.35-26.3 12.3 0 23.83.89 11.54.89 23.98 1.84l-19.12 27.54q-7.07-.57-14.34-.96-7.28-.39-14.35-.39-129.37 0-219.65 90.34-90.27 90.35-90.27 218.86 0 30.6 5.69 60.05 5.69 29.44 16.8 57.83h573.24q11.11-28.5 17.25-57.92 6.13-29.42 6.13-60.09 0-68.17-28.29-128.28-28.29-60.12-80.59-105.02l10.92-31.73q60.23 47.88 93.56 116.54 33.32 68.65 33.32 146.4-1.26 35.44-6.86 69.83-5.6 34.38-21.75 66.04-4.38 6.15-10.63 9.65-6.24 3.5-13.06 3.5H194.46Zm259.27-117.38q22.69 11.69 44.46 2.55 21.77-9.15 28.07-32.93 21.04-78.05 42.6-155.32 21.56-77.26 47.79-155.92-45.53 68.16-89.53 135.96-44 67.81-90.29 134.01-12.83 18.49-7.98 39.67 4.84 21.17 24.88 31.98Zm24.85-44.58Z"/></svg>