<svg xmlns="http://www.w3.org/2000/svg" height="20" viewBox="0 -960 960 960" width="20"><path d="M447.8-339.61q30.57 14.57 59.88 2.82 29.32-11.75 36.75-42.82 22.5-92.15 45.27-183.74 22.76-91.59 49.28-183.61-54 78.79-107.76 156.87Q477.46-512 422.07-435.54q-17.5 24.5-9.85 53.46 7.65 28.97 35.58 42.47ZM194.37-182.28q-22.52 0-42.04-10.8-19.53-10.79-29.79-30.75-21.13-35.19-27.91-77.23-6.78-42.05-6.78-85.37-1.07-82.59 29.56-153.48 30.63-70.89 83.39-123.69 52.76-52.79 124.94-82.92 72.17-30.13 152.69-30.13 81.46 0 153.64 30.41 72.17 30.41 125.21 83.46 53.05 53.04 84.21 124.46 31.16 71.43 31.16 151.89 0 42.76-7.81 84.55-7.82 41.79-29.01 78.05-11.2 19.96-30.47 30.75-19.27 10.8-41.36 10.8H194.37Z"/></svg>