<svg xmlns="http://www.w3.org/2000/svg" height="20" viewBox="0 -960 960 960" width="20"><path d="M196-201q-17.14 0-32.07-8.5T140-233q-20.5-35-27.25-74.2Q106-346.39 106-387q0-77.91 29.67-145.61 29.67-67.71 80.53-117.79 50.87-50.08 119.42-79.34Q404.17-759 481-759q20.25 0 40.5 2.43t40 6.07l-44.5 61q-8.95-1.33-18-1.92-9.05-.58-18-.58-128.57 0-218.28 89.75Q173-512.5 173-384.85q0 30.34 5.5 59.6Q184-296 195-268h569.5q11.5-28.5 17.25-57.59 5.75-29.09 5.75-59.41 0-69-29.64-130.5Q728.21-577 674-622l19-72.5q76 52.5 118.75 133.72T854.5-387q-.5 40.5-7.25 79.5T820.5-233q-9 15-23.93 23.5T764.5-201H196Zm253.5-142q30 14 58.72 2.4 28.71-11.61 36.88-42.39Q567.68-469.5 588.09-556q20.41-86.5 42.41-174-54 72-105.5 145T421.45-439.65Q404-415 412.5-385.75t37 42.75Zm31-61.5Z"/></svg>