<svg xmlns="http://www.w3.org/2000/svg" height="24" viewBox="0 -960 960 960" width="24"><path d="M448.92-334.15q28.54 12.84 57.39 1.69 28.84-11.16 37.69-40.69 27.85-92.39 51.92-184.58 24.08-92.19 45.39-186.19-58 77.08-113.46 154.38-55.46 77.31-110.77 156.85-17.69 25.54-7.62 55.31 10.08 29.76 39.46 43.23ZM204.62-180q-16.62 0-30.5-7-13.89-7-22.58-21-26.08-45.69-39.12-95.31-13.03-49.61-13.03-101.92.61-76.54 31.69-144.77 31.08-68.23 83.19-119.35 52.12-51.11 120.65-80.88Q403.46-780 480-780q78.77 0 147.81 29.96t120.65 81.58q51.62 51.61 81.58 120.65T860-400q0 50.92-13.04 99.23t-37.88 91.23q-8.31 14.77-22.7 22.15Q772-180 756-180H204.62Z"/></svg>