<svg xmlns="http://www.w3.org/2000/svg" height="24" viewBox="0 -960 960 960" width="24"><path d="M206.46-205.54q-10.65 0-19.67-5.04-9.02-5.04-14.02-14.19-23.19-40.23-34.9-84.81-11.72-44.58-11.72-90.85 0-73.51 27.9-138.15 27.9-64.65 75.72-112.47 47.82-47.83 112.35-75.62 64.52-27.79 137.88-27.79 15.55 0 30.33 1.71 14.79 1.71 30.48 4.02l-24.12 33.54q-9.12-1.23-18.34-1.79t-18.35-.56q-132.31 0-224.61 92.34-92.31 92.35-92.31 224.86 0 41.53 11.19 81.51 11.19 39.98 32.3 76.37h547.24q22.11-35.5 32.75-75.83 10.63-40.34 10.63-82.18 0-65.17-24.79-123.78-24.79-58.62-72.09-103.52l11.92-40.73q58.23 50.88 90.06 120.54 31.82 69.65 31.82 147.4-.26 47.44-12.36 92.33-12.1 44.88-34.25 86.54-5.38 9.15-14.45 12.65t-19.24 3.5H206.46Zm244.27-135.38q24.69 11.69 49.49 1.9 24.81-9.79 32.04-35.28 24.86-87.05 49.51-173.32 24.65-86.26 49.88-173.92-51.53 75.16-102.03 149.46-50.5 74.31-102.74 148.66-14.88 21.34-7.53 46.02 7.34 24.67 31.38 36.48Zm25.85-52.58Z"/></svg>