<svg xmlns="http://www.w3.org/2000/svg" height="48" viewBox="0 -960 960 960" width="48"><path d="M194-150.37q-21.64 0-39.91-9.98-18.26-9.98-28.53-28.3-27.13-48.97-40.91-101.97-13.78-53-13.78-108.88 0-84.81 31.86-159.76 31.86-74.94 87.08-130.28 55.21-55.33 129.49-87.99 74.27-32.67 158.48-32.67 30.89 0 61.07 4.79 30.17 4.78 60.37 13.91l-48.37 67.02q-18.23-4.1-36.38-6.27-18.15-2.16-36.47-2.16-137.74 0-234.08 97.33-96.33 97.34-96.33 236.04 0 45.74 11.46 89.41 11.47 43.67 34.49 83.04h574.13q24.44-39.37 35.12-83.01 10.69-43.65 10.69-89.15 0-77.99-34.02-147.01-34.01-69.02-95.96-116.46l20.72-80.85q87.45 57.2 136.72 148.45 49.26 91.26 49.26 195.62-.5 55.63-13.58 109.13-13.07 53.5-40.12 101.72-11.83 18.32-30.5 28.3t-38.93 9.98H194Zm245.87-170.87q33.5 16.57 67.56 4.07 34.07-12.5 41.61-47.56 23.89-102.97 49.23-203.92 25.34-100.95 54.45-202.85-59.57 87.09-119.98 172.79Q472.33-513 409.09-430.16q-21.02 27.82-11.37 60.9 9.65 33.09 42.15 48.02ZM476-389.61Z"/></svg>