<svg xmlns="http://www.w3.org/2000/svg" height="24" viewBox="0 -960 960 960" width="24"><path d="M207.23-187.27q-15.58 0-28.96-6.77t-20.88-20.35q-24.35-43.11-36.83-90-12.48-46.89-12.48-96.33 0-77.2 29.33-145.1 29.33-67.91 79.61-118.14 50.28-50.23 118.08-79.5 67.81-29.27 144.9-29.27 19.53 0 38.67 2.48t38.48 6.14l-36.8 50.26q-10.07-1.61-20.18-2.27-10.11-.65-20.17-.65-131.9 0-223.93 92.05-92.03 92.04-92.03 224.12 0 41.4 11.09 81.29 11.1 39.89 32.16 76.08h545.36q22.31-35.5 32.75-75.67 10.45-40.16 10.45-81.83 0-65.59-25.47-124.9t-73.73-104.25L712.62-691q66.11 53.19 102.65 129.13 36.53 75.94 36.53 161.09.12 49.97-12.55 97.16-12.67 47.2-36.75 90.77-7.69 13.58-21.1 19.58-13.41 6-28.75 6H207.23Zm241.39-147.69q28.34 12.84 56.62 1.82 28.27-11.02 36.44-40.01 25.63-91.27 49.7-182.16 24.08-90.88 47.2-182.96-55.77 77.08-110.02 153.98-54.25 76.91-109.37 154.33-17.19 24.42-8.02 53.13 9.18 28.71 37.45 41.87ZM477.54-396Z"/></svg>