<svg xmlns="http://www.w3.org/2000/svg" height="48" viewBox="0 -960 960 960" width="48"><path d="M194-139.5q-24.82 0-45.41-11.5Q128-162.5 116-183q-28-50.27-42-104.57-14-54.31-14-112.1 0-86.87 32.51-163.96 32.52-77.09 89.25-133.73 56.74-56.64 133-90.39 76.25-33.75 163.02-33.75 32.05 0 63.39 5 31.33 5 62.83 15L546.5-721q-17.36-3.67-34.42-5.83Q495.01-729 478-729q-136 0-231.25 96.25T151.5-399.54q0 44.26 11.25 87.15Q174-269.5 196.15-231H765.5q24-38.5 34.25-81.3Q810-355.09 810-399.06q0-76.44-33.14-143.94-33.15-67.5-93.36-114.5L709-754q90.5 58.5 141.5 152.86 51 94.36 51 201.64-.5 57.37-14.02 112.16-13.52 54.8-40.98 104.34-14 20.5-35.06 32-21.07 11.5-43.94 11.5H194Zm245-180q33.5 17 68 4.5t41.6-47.99q23.9-106.01 50.54-210 26.65-104 58.36-208.51-60 91-121.5 179.75T409.53-427.98q-21.03 27.68-12.03 60.83 9 33.15 41.5 47.65Zm37-67.5Z"/></svg>