<svg xmlns="http://www.w3.org/2000/svg" height="40" viewBox="0 -960 960 960" width="40"><path d="M446.67-335q24.66 13.33 50.33 3.5 25.67-9.83 31.67-36.17 23.66-91.33 50.16-181 26.5-89.66 57.84-180.66-50 82-102.17 159.66Q482.33-492 426.67-414.33q-14.67 19.66-8.5 43.66 6.16 24 28.5 35.67ZM193.33-190.67q-11 0-19.66-4.66-8.67-4.67-15-13.34-23.34-44-35.17-91.83-11.83-47.83-11.83-99.5-1-75.33 28-143t79.5-117.67q50.5-50 118.33-79.33t143.17-29.33q76.33 0 143.5 29.5 67.16 29.5 116.83 79.33t79 118.33q29.33 68.5 29.33 144.84 0 50.33-12.83 97.5-12.83 47.16-36.17 87.16-4.66 10-14 16-9.33 6-19.66 6H193.33Z"/></svg>