<svg xmlns="http://www.w3.org/2000/svg" height="20" viewBox="0 -960 960 960" width="20"><path d="M192-183.87q-20.87 0-38.43-10.7-17.55-10.69-28.5-28.36-21.72-36.96-29.46-78.54-7.74-41.57-7.74-84.62 0-81.62 31-152.58 31.01-70.97 84.33-123.61 53.32-52.64 125.24-83.24 71.91-30.61 152.56-30.61 20.63 0 41.25 2.3 20.63 2.3 41.1 6.42l-54.7 76.04q-6.99-1.09-13.82-1.43-6.84-.33-13.83-.33-129.63 0-219.88 90.28T170.87-384q0 30.26 5.76 59.43 5.76 29.18 16.28 57.7h573.42q10.52-28.52 16.78-57.78 6.26-29.27 6.26-59.24 0-67.68-28.4-128.22-28.4-60.54-79.97-105.06l23.59-89.48q79.15 55.19 123.46 139.76 44.32 84.56 44.32 180.89-.24 42.96-7.98 84.53-7.75 41.57-29.22 78.54-11.19 17.67-28.78 28.36-17.59 10.7-38.15 10.7H192Zm257.28-156.7q30.24 14.24 59.95 2.39 29.7-11.85 38.53-43.39 25.19-90.39 46.55-180.54 21.36-90.15 43.28-182.06-57 74.87-110.96 150.52Q472.67-518 419.19-441.48q-17.95 26.08-8.81 56.5 9.14 30.41 38.9 44.41ZM481-405.09Z"/></svg>