<svg xmlns="http://www.w3.org/2000/svg" height="24" viewBox="0 -960 960 960" width="24"><path d="M208-160.87q-22.73 0-42.35-9.7-19.63-9.69-30.58-29.36-26.22-46.96-39.71-97.23-13.49-50.28-13.49-103.93 0-82.52 31.36-155.1t85.29-126.41q53.94-53.83 126.47-85.18 72.54-31.35 155.01-31.35 24.38 0 48.75 3.37 24.38 3.37 48.1 8.85l-56.2 77.04q-10.04-1.76-20.32-2.51-10.29-.75-20.33-.75-130.07 0-221.1 91.03t-91.03 221.25q0 40.45 10.76 79.46 10.76 39 31.28 74.52h539.92q22.02-35.02 32.03-74.2 10.01-39.17 10.01-79.82 0-64.68-25.55-123.72-25.54-59.04-73.32-103.56l23.59-92.98q76.15 56.69 118.71 140.98 42.57 84.29 42.57 179.17.26 53.46-13.23 104.03-13.5 50.57-39.97 97.04-11.19 19.67-30.85 29.36-19.67 9.7-42.08 9.7H208Zm237.78-166.7q32.24 14.24 64.23 1.99 31.99-12.25 40.85-44.98 26.4-97.9 50.86-195.55 24.45-97.65 47.37-196.06-60 81.87-118.96 163.52Q471.17-517 411.74-434.83q-19.5 27.43-8.86 60.1 10.64 32.66 42.9 47.16Zm32.72-69.02Z"/></svg>