<svg xmlns="http://www.w3.org/2000/svg" height="48" viewBox="0 -960 960 960" width="48"><path d="M197-200q-9.2 0-17.6-6-8.4-6-12.4-14-25-40-36.5-85.26-11.5-45.26-11.5-93.56 0-75.46 28.4-140.94 28.41-65.47 77.05-114.63 48.64-49.17 114.16-77.39Q404.14-760 478.64-760q17.28 0 31.69 1.45 14.42 1.46 30.67 5.55l-21 31q-12.41-1.67-21.33-2.33-8.91-.67-19.67-.67-135 0-230 95.14T154-399q0 43 11.48 85.13 11.47 42.12 32.45 78.87h565.14q20.93-38 32.43-79.5T807-399q0-66.8-26.02-127.7Q754.97-587.61 705-634l11-38q59.68 49.85 92.84 121.42Q842-479.02 842-399q-1 48.62-13.5 95.31Q816-257 795-216q-6 8-14.28 12T764-200H197Zm250-137q24 13 49.47 3.45 25.46-9.55 31.3-35.96Q552-459 578-547.5 604-636 635-726q-50 81-101.5 157.5T427-415.71Q413-396 419-372t28 35Zm27-49Z"/></svg>