<svg xmlns="http://www.w3.org/2000/svg" height="40" viewBox="0 -960 960 960" width="40"><path d="M196.1-184q-12.92 0-24.93-7.5-12.02-7.5-17.99-18.96-26.03-42.38-38.27-90.01-12.24-47.64-12.24-97.92 0-78.56 29.68-147.06t80.7-119.93q51.01-51.44 119.51-81.03Q401.06-776 478.94-776q19.74 0 37.13 2.11 17.39 2.12 36.11 6.79l-31.87 45.46q-11.6-1.8-21.04-2.49-9.45-.69-20.09-.69-135.59 0-230.46 95.1-94.87 95.09-94.87 231.21 0 43.28 11.38 84.87 11.39 41.59 32.36 78.46h565.74q20.93-37.79 32.34-78.92 11.41-41.13 11.41-84.41 0-67.22-26.44-128.56-26.43-61.34-76.41-107.57l14.92-55.31q65.56 52.52 102.33 129.02 36.78 76.5 36.78 162.42-.93 50.69-13.9 99.18-12.98 48.48-35.95 91.95-7.31 11.46-19.18 17.42-11.87 5.96-24.41 5.96H196.1Zm248.8-146.69q27.05 14.18 54.96 3.5t34.33-39.49q24.07-94.09 50.3-186.72 26.23-92.63 56.64-186.78-52.69 83.46-107.28 162.97-54.59 79.52-112.18 158.64-16.36 22.21-9.12 48.67t32.35 39.21Zm29.48-55.05Z"/></svg>