<svg xmlns="http://www.w3.org/2000/svg" height="24" viewBox="0 -960 960 960" width="24"><path d="M204-180q-16.69 0-30.73-7.58t-22.35-21.96q-24.84-43.92-37.88-91.92Q100-349.46 100-400q0-78.85 29.93-148.2 29.92-69.35 81.22-120.65 51.3-51.3 120.65-81.22Q401.15-780 480-780q19.15 0 37.92 2.23 18.77 2.23 37.92 6.08l-39.53 54.31q-9.31-1.75-18.16-2.18-8.84-.44-18.15-.44-134 0-227 93t-93 227q0 42 11.5 82.5T204-240h551.38q22-36 33-77t11-83q0-65.32-24.92-124.7-24.92-59.38-72.15-104.38l16.77-65.46Q786-640.23 822.69-563.27q36.69 76.96 36.69 163.27.62 51.31-12.61 99.61-13.23 48.31-38.31 92.39-8.31 14.38-22.34 21.19-14.04 6.81-30.74 6.81H204Zm244.92-154.15q28.54 12.84 57.37 1.67 28.84-11.18 37.71-40.67 27.85-92.39 51.92-184.58 24.08-92.19 45.39-186.19-58 77.08-113.46 154.38-55.46 77.31-110.77 156.85-17.69 25.54-7.62 55.31 10.08 29.76 39.46 43.23Zm28.93-63.77Z"/></svg>