<svg xmlns="http://www.w3.org/2000/svg" height="20" viewBox="0 -960 960 960" width="20"><path d="M453.73-354.92q22.69 11.69 44.52 2.44 21.83-9.25 27.9-32.83 20.97-78.04 42.62-155.31 21.65-77.26 47.88-155.92-45.53 68.16-89.53 135.96-44 67.81-90.24 134.16-12.88 18.34-8.03 39.52 4.84 21.17 24.88 31.98ZM193.58-238.04q-8 0-14.16-3.44-6.15-3.44-9.54-9.83-16.53-29.27-21.5-63.77-4.96-34.5-4.96-70-1.27-71.34 24.77-132.88 26.04-61.54 71.35-106.79Q284.85-670 347-695.92q62.15-25.93 132-25.93 70.19 0 132.15 26.31 61.97 26.31 107.47 71.62 45.5 45.3 72.36 106.71 26.87 61.4 26.87 130.59 0 35.12-5.72 69.56-5.71 34.44-22.9 62.68-4.11 7.53-10.4 11.94-6.29 4.4-13.29 4.4H193.58Z"/></svg>