<svg xmlns="http://www.w3.org/2000/svg" version="1.1" width="3300" height="2000"><g id="Notes"><style>
    text {
      font-family: monospace;
      text-anchor: middle;
    }
    text.emphasis {
      font-weight:bold;
    }
    text.lanchor {
      text-anchor: start;
    }
  </style><rect height="2200" id="artboard" fill="white" width="3300" x="0" y="0"/><line id="" style="fill:none;stroke:black;stroke-width:0.5;" x1="263" x2="3036" y1="292" y2="292"/><text class="lanchor emphasis" transform="matrix(1 0 0 1 263 322)">Weight/Scale Variations</text><text transform="matrix(1 0 0 1 559.711 322)">Ultralight</text><text transform="matrix(1 0 0 1 856.422 322)">Thin</text><text transform="matrix(1 0 0 1 1153.13 322)">Light</text><text transform="matrix(1 0 0 1 1449.84 322)">Regular</text><text transform="matrix(1 0 0 1 1746.56 322)">Medium</text><text transform="matrix(1 0 0 1 2043.27 322)">Semibold</text><text transform="matrix(1 0 0 1 2339.98 322)">Bold</text><text transform="matrix(1 0 0 1 2636.69 322)">Heavy</text><text transform="matrix(1 0 0 1 2933.4 322)">Black</text><text id="template-version" style="text-anchor: end;" transform="matrix(1 0 0 1 3036 1933)">Template v.1.0</text><text class="lanchor" transform="matrix(1 0 0 1 263 726)">Small</text><text class="lanchor" transform="matrix(1 0 0 1 263 1156)">Medium</text><text class="lanchor" transform="matrix(1 0 0 1 263 1586)">Large</text></g><g id="Guides"><g id="H-reference" style="fill:#27AAE1;stroke:none;" transform="matrix(1 0 0 1 339 696)"><path d="M 54.9316 0 L 57.666 0 L 30.5664 -70.459 L 28.0762 -70.459 L 0.976562 0 L 3.66211 0 L 12.9395 -24.4629 L 45.7031 -24.4629 Z M 29.1992 -67.0898 L 29.4434 -67.0898 L 44.8242 -26.709 L 13.8184 -26.709 Z"/></g><line id="Baseline-S" style="fill:none;stroke:#27AAE1;opacity:1;stroke-width:0.577;" x1="263" x2="3036" y1="696" y2="696"/><line id="Capline-S" style="fill:none;stroke:#27AAE1;opacity:1;stroke-width:0.577;" x1="263" x2="3036" y1="625.541" y2="625.541"/><g id="H-reference" style="fill:#27AAE1;stroke:none;" transform="matrix(1 0 0 1 339 1126)"><path d="M 54.9316 0 L 57.666 0 L 30.5664 -70.459 L 28.0762 -70.459 L 0.976562 0 L 3.66211 0 L 12.9395 -24.4629 L 45.7031 -24.4629 Z M 29.1992 -67.0898 L 29.4434 -67.0898 L 44.8242 -26.709 L 13.8184 -26.709 Z"/></g><line id="Baseline-M" style="fill:none;stroke:#27AAE1;opacity:1;stroke-width:0.577;" x1="263" x2="3036" y1="1126" y2="1126"/><line id="Capline-M" style="fill:none;stroke:#27AAE1;opacity:1;stroke-width:0.577;" x1="263" x2="3036" y1="1055.54" y2="1055.54"/><g id="H-reference" style="fill:#27AAE1;stroke:none;" transform="matrix(1 0 0 1 339 1556)"><path d="M 54.9316 0 L 57.666 0 L 30.5664 -70.459 L 28.0762 -70.459 L 0.976562 0 L 3.66211 0 L 12.9395 -24.4629 L 45.7031 -24.4629 Z M 29.1992 -67.0898 L 29.4434 -67.0898 L 44.8242 -26.709 L 13.8184 -26.709 Z"/></g><line id="Baseline-L" style="fill:none;stroke:#27AAE1;opacity:1;stroke-width:0.577;" x1="263" x2="3036" y1="1556" y2="1556"/><line id="Capline-L" style="fill:none;stroke:#27AAE1;opacity:1;stroke-width:0.577;" x1="263" x2="3036" y1="1485.54" y2="1485.54"/><rect height="119.336" id="left-margin" style="fill:darkred;stroke:none;opacity:0.4;" width="12.4512" x="1394.06" y="1030.79"/><rect height="119.336" id="right-margin" style="fill:darkgreen;stroke:none;opacity:0.4;" width="12.4512" x="1502.5112" y="1030.79"/><rect x="1406.5112" y="1045" width="96" height="96" fill="none" stroke="blue" stroke-dasharray="5"/><rect x="1394.06" y="1030.79" width="120.9024" height="119.336" fill="none" stroke="blue"/></g><g id="Symbols"><g id="Bold-L" transform="matrix(1 0 0 1 2266 1556)"><path d="M16.125 32.334 V-89.087 H9.675 V-104.003 H145.286 V-89.087 H138.756 V32.495 Q122.953 32.495 110.255 24.07 Q97.556 15.644 92.719 0.809 H61.839 Q57.002 15.564 44.247 23.949 Q31.492 32.334 16.125 32.334 Z M30.879 14.516 Q39.748 11.533 44.908 3.746 Q50.068 -4.041 50.068 -13.934 V-89.087 H30.879 V14.516 Z M64.823 -13.945 H89.978 V-89.087 H64.823 V-13.945 Z M123.84 14.516 V-89.087 H104.893 V-13.922 Q104.893 -4.091 109.852 3.922 Q114.81 11.936 123.84 14.516 Z"/></g><g id="Semibold-L" transform="matrix(1 0 0 1 1970.27 1556)"><path d="M17.878 30.581 V-89.718 H11.428 V-102.181 H143.464 V-89.718 H136.934 V30.742 Q121.481 30.742 109.308 21.896 Q97.135 13.05 92.999 -1.785 H61.63 Q57.423 12.969 45.229 21.775 Q33.034 30.581 17.878 30.581 Z M30.249 15.919 Q39.817 12.724 45.61 4.517 Q51.4 -3.691 51.4 -14.145 V-89.718 H30.249 V15.919 Z M63.771 -14.155 H91.029 V-89.718 H63.771 V-14.155 Z M124.47 15.919 V-89.718 H103.49 V-14.132 Q103.49 -3.714 109.116 4.671 Q114.741 13.058 124.47 15.919 Z"/></g><g id="Medium-L" transform="matrix(1 0 0 1 1674.31 1556)"><path d="M19.192 29.267 V-90.192 H12.742 V-100.814 H142.097 V-90.192 H135.566 V29.428 Q120.376 29.428 108.599 20.266 Q96.819 11.105 93.209 -3.73 H61.472 Q57.739 11.025 45.964 20.145 Q34.191 29.267 19.192 29.267 Z M29.775 16.97 Q39.871 13.617 46.135 5.095 Q52.4 -3.428 52.4 -14.303 V-90.192 H29.775 V16.97 Z M62.983 -14.313 H91.817 V-90.192 H62.983 V-14.313 Z M124.945 16.97 V-90.192 H102.439 V-14.29 Q102.439 -3.43 108.563 5.234 Q114.687 13.898 124.945 16.97 Z"/></g><g id="Regular-L" transform="matrix(1 0 0 1 1378.56 1556)"><path d="M20.156 28.303 V-90.539 H13.706 V-99.811 H141.094 V-90.539 H134.563 V28.464 Q119.567 28.464 108.078 19.071 Q96.589 9.678 93.364 -5.157 H61.356 Q57.969 9.598 46.505 18.95 Q35.04 28.303 20.156 28.303 Z M29.428 17.741 Q39.909 14.274 46.521 5.519 Q53.132 -3.235 53.132 -14.417 V-90.539 H29.428 V17.741 Z M62.404 -14.429 H92.396 V-90.539 H62.404 V-14.429 Z M125.291 17.741 V-90.539 H101.668 V-14.406 Q101.668 -3.222 108.158 5.647 Q114.649 14.516 125.291 17.741 Z"/></g><g id="Light-L" transform="matrix(1 0 0 1 1082.77 1556)"><path d="M23.072 25.387 V-89.608 H16.622 V-96.679 H138.178 V-89.608 H131.711 V25.548 Q117.488 25.548 106.727 16.71 Q95.965 7.874 93.394 -6.149 H61.325 Q58.621 7.83 47.822 16.609 Q37.025 25.387 23.072 25.387 Z M30.141 17.679 Q40.933 14.986 47.978 6.511 Q55.023 -1.964 55.023 -13.208 V-89.608 H30.141 V17.679 Z M62.094 -13.219 H92.706 V-89.608 H62.094 V-13.219 Z M124.64 17.616 V-89.608 H99.777 V-13.194 Q99.777 -1.987 106.748 6.527 Q113.718 15.043 124.64 17.616 Z"/></g><g id="Thin-L" transform="matrix(1 0 0 1 787.282 1556)"><path d="M25.985 22.473 V-88.678 H19.535 V-93.546 H135.265 V-88.678 H128.858 V22.635 Q115.411 22.635 105.377 14.351 Q95.342 6.069 93.425 -7.142 H61.294 Q59.272 6.063 49.141 14.267 Q39.008 22.473 25.985 22.473 Z M30.855 17.616 Q41.956 15.701 49.436 7.504 Q56.915 -0.692 56.915 -11.999 V-88.678 H30.855 V17.616 Z M61.783 -12.01 H93.017 V-88.678 H61.783 V-12.01 Z M123.988 17.492 V-88.678 H97.885 V-11.979 Q97.885 -0.752 105.337 7.409 Q112.788 15.57 123.988 17.492 Z"/></g><g id="Ultralight-L" transform="matrix(1 0 0 1 491.205 1556)"><path d="M27.735 20.724 V-88.12 H21.285 V-91.667 H133.515 V-88.12 H127.146 V20.885 Q114.165 20.885 104.566 12.935 Q94.968 4.986 93.444 -7.737 H61.275 Q59.663 5.002 49.931 12.863 Q40.2 20.724 27.735 20.724 Z M31.283 17.579 Q42.57 16.128 50.31 8.099 Q58.05 0.071 58.05 -11.273 V-88.12 H31.283 V17.579 Z M61.598 -11.284 H93.203 V-88.12 H61.598 V-11.284 Z M123.598 17.418 V-88.12 H96.75 V-11.252 Q96.75 -0.011 104.49 7.938 Q112.23 15.886 123.598 17.418 Z"/></g><g id="Bold-M" transform="matrix(1 0 0 1 2281.8 1126)"><path d="M12 17.77 V-73.23 H7 V-88.355 H113 V-73.23 H108.062 V17.77 Q95.875 17.77 85.531 11.989 Q75.188 6.208 70.688 -4.792 H49.125 Q44.5 6.083 34.206 11.926 Q23.913 17.77 12 17.77 Z M27.125 -0.792 Q32.375 -3.292 34.875 -8.542 Q37.375 -13.792 37.375 -19.917 V-73.23 H27.125 V-0.792 Z M52.5 -19.917 H67.5 V-73.23 H52.5 V-19.917 Z M92.938 -0.792 V-73.23 H82.625 V-19.917 Q82.625 -13.792 85.094 -8.48 Q87.562 -3.167 92.938 -0.792 Z"/></g><g id="Semibold-M" transform="matrix(1 0 0 1 1985.97 1126)"><path d="M13.848 15.923 V-73.882 H8.848 V-86.507 H111.153 V-73.882 H106.215 V15.923 Q94.354 15.923 84.58 9.706 Q74.808 3.49 70.959 -7.51 H48.907 Q44.935 3.42 35.211 9.671 Q25.489 15.923 13.848 15.923 Z M26.473 0.62 Q32.375 -2.097 35.581 -7.755 Q38.788 -13.412 38.788 -20.135 V-73.882 H26.473 V0.62 Z M51.413 -20.135 H68.588 V-73.882 H51.413 V-20.135 Z M93.59 0.62 V-73.882 H81.213 V-20.135 Q81.213 -13.412 84.36 -7.692 Q87.509 -1.972 93.59 0.62 Z"/></g><g id="Medium-M" transform="matrix(1 0 0 1 1689.91 1126)"><path d="M15.234 14.536 V-74.371 H10.234 V-85.121 H109.766 V-74.371 H104.829 V14.536 Q93.213 14.536 83.866 7.994 Q74.521 1.453 71.162 -9.547 H48.745 Q45.261 1.423 35.966 7.979 Q26.67 14.536 15.234 14.536 Z M25.984 1.68 Q32.375 -1.2 36.111 -7.164 Q39.847 -13.126 39.847 -20.297 V-74.371 H25.984 V1.68 Z M50.597 -20.297 H69.403 V-74.371 H50.597 V-20.297 Z M94.079 1.68 V-74.371 H80.153 V-20.297 Q80.153 -13.126 83.81 -7.101 Q87.468 -1.075 94.079 1.68 Z"/></g><g id="Regular-M" transform="matrix(1 0 0 1 1394.06 1126)"><path d="M16.25 13.52 V-74.73 H11.25 V-84.105 H108.75 V-74.73 H103.812 V13.52 Q92.375 13.52 83.344 6.739 Q74.312 -0.042 71.312 -11.042 H48.625 Q45.5 -0.042 36.519 6.739 Q27.538 13.52 16.25 13.52 Z M25.625 2.458 Q32.375 -0.542 36.5 -6.73 Q40.625 -12.917 40.625 -20.417 V-74.73 H25.625 V2.458 Z M50 -20.417 H70 V-74.73 H50 V-20.417 Z M94.438 2.458 V-74.73 H79.375 V-20.417 Q79.375 -12.917 83.406 -6.667 Q87.438 -0.417 94.438 2.458 Z"/></g><g id="Light-M" transform="matrix(1 0 0 1 1098.18 1126)"><path d="M18.51 11.213 V-74.826 H13.51 V-81.821 H106.49 V-74.826 H101.552 V11.26 Q90.764 11.26 82.345 4.789 Q73.925 -1.682 71.625 -12.149 H48.312 Q45.909 -1.701 37.516 4.755 Q29.124 11.213 18.51 11.213 Z M25.505 3.275 Q32.831 0.924 37.581 -5.191 Q42.331 -11.306 42.331 -19.144 V-74.826 H25.505 V3.275 Z M49.326 -19.144 H70.674 V-74.826 H49.326 V-19.144 Z M94.558 3.226 V-74.826 H77.669 V-19.14 Q77.669 -11.335 82.336 -5.191 Q87.005 0.953 94.558 3.226 Z"/></g><g id="Thin-M" transform="matrix(1 0 0 1 802.565 1126)"><path d="M20.769 8.905 V-74.922 H15.769 V-79.537 H104.231 V-74.922 H99.294 V9.001 Q89.154 9.001 81.346 2.84 Q73.537 -3.321 71.938 -13.254 H48 Q46.318 -3.36 38.514 2.773 Q30.71 8.905 20.769 8.905 Z M25.385 4.093 Q33.289 2.39 38.664 -3.652 Q44.039 -9.696 44.039 -17.87 V-74.922 H25.385 V4.093 Z M48.654 -17.87 H71.346 V-74.922 H48.654 V-17.87 Z M94.677 3.996 V-74.922 H75.961 V-17.864 Q75.961 -9.752 81.266 -3.715 Q86.573 2.323 94.677 3.996 Z"/></g><g id="Ultralight-M" transform="matrix(1 0 0 1 506.415 1126)"><path d="M22.125 7.52 V-74.98 H17.125 V-78.167 H102.875 V-74.98 H97.938 V7.645 Q88.188 7.645 80.746 1.67 Q73.306 -4.305 72.125 -13.917 H47.812 Q46.562 -4.355 39.112 1.583 Q31.663 7.52 22.125 7.52 Z M25.312 4.583 Q33.562 3.27 39.312 -2.73 Q45.062 -8.73 45.062 -17.105 V-74.98 H25.312 V4.583 Z M48.25 -17.105 H71.75 V-74.98 H48.25 V-17.105 Z M94.75 4.458 V-74.98 H74.938 V-17.097 Q74.938 -8.804 80.625 -2.829 Q86.312 3.145 94.75 4.458 Z"/></g><g id="Bold-S" transform="matrix(1 0 0 1 2294.23 696)"><path d="M11.835 5.009 V-64.423 H7.101 V-75.568 H87.579 V-64.423 H82.894 V5.009 Q73.673 5.009 65.857 0.645 Q58.041 -3.719 54.772 -12.004 H39.746 Q36.294 -3.818 28.535 0.596 Q20.777 5.009 11.835 5.009 Z M22.98 -8.552 Q27.122 -10.429 29.094 -14.373 Q31.067 -18.316 31.067 -23.148 V-64.423 H22.98 V-8.552 Z M42.212 -23.148 H52.468 V-64.423 H42.212 V-23.148 Z M71.75 -8.552 V-64.423 H63.613 V-23.148 Q63.613 -18.316 65.561 -14.325 Q67.509 -10.334 71.75 -8.552 Z"/></g><g id="Semibold-S" transform="matrix(1 0 0 1 1998.1 696)"><path d="M13.293 3.551 V-64.938 H8.559 V-74.11 H86.121 V-64.938 H81.437 V3.551 Q72.473 3.551 65.106 -1.156 Q57.741 -5.863 54.987 -14.148 H39.574 Q36.637 -5.919 29.329 -1.184 Q22.021 3.551 13.293 3.551 Z M22.465 -7.437 Q27.122 -9.486 29.652 -13.75 Q32.181 -18.016 32.181 -23.32 V-64.938 H22.465 V-7.437 Z M41.353 -23.32 H53.327 V-64.938 H41.353 V-23.32 Z M72.265 -7.437 V-64.938 H62.499 V-23.32 Q62.499 -18.016 64.982 -13.703 Q67.466 -9.391 72.265 -7.437 Z"/></g><g id="Medium-S" transform="matrix(1 0 0 1 1701.85 696)"><path d="M14.386 2.458 V-65.323 H9.652 V-73.016 H85.028 V-65.323 H80.343 V2.458 Q71.572 2.458 64.543 -2.507 Q57.515 -7.471 55.148 -15.756 H39.446 Q36.895 -7.495 29.924 -2.519 Q22.953 2.458 14.386 2.458 Z M22.079 -6.601 Q27.122 -8.778 30.07 -13.284 Q33.018 -17.79 33.018 -23.448 V-65.323 H22.079 V-6.601 Z M40.71 -23.448 H53.97 V-65.323 H40.71 V-23.448 Z M72.65 -6.601 V-65.323 H61.662 V-23.448 Q61.662 -17.79 64.548 -13.237 Q67.434 -8.683 72.65 -6.601 Z"/></g><g id="Regular-S" transform="matrix(1 0 0 1 1405.73 696)"><path d="M15.188 1.656 V-65.606 H10.454 V-72.214 H84.226 V-65.606 H79.541 V1.656 Q70.911 1.656 64.131 -3.497 Q57.35 -8.651 55.266 -16.935 H39.351 Q37.083 -8.651 30.36 -3.497 Q23.637 1.656 15.188 1.656 Z M21.796 -5.988 Q27.122 -8.259 30.377 -12.943 Q33.631 -17.625 33.631 -23.543 V-65.606 H21.796 V-5.988 Z M40.239 -23.543 H54.441 V-65.606 H40.239 V-23.543 Z M72.933 -5.988 V-65.606 H61.049 V-23.543 Q61.049 -17.625 64.23 -12.895 Q67.41 -8.164 72.933 -5.988 Z"/></g><g id="Light-S" transform="matrix(1 0 0 1 1109.75 696)"><path d="M16.971 -0.165 V-65.682 H12.237 V-70.412 H82.443 V-65.682 H77.758 V-0.127 Q69.64 -0.127 63.343 -5.036 Q57.045 -9.945 55.512 -17.808 H39.105 Q37.406 -9.959 31.148 -5.063 Q24.889 -0.165 16.971 -0.165 Z M21.701 -5.343 Q27.482 -7.102 31.23 -11.729 Q34.977 -16.354 34.977 -22.538 V-65.682 H21.701 V-5.343 Z M39.707 -22.538 H54.973 V-65.682 H39.707 V-22.538 Z M73.028 -5.381 V-65.682 H59.703 V-22.535 Q59.703 -16.377 63.385 -11.731 Q67.069 -7.083 73.028 -5.381 Z"/></g><g id="Thin-S" transform="matrix(1 0 0 1 814.015 696)"><path d="M18.754 -1.985 V-65.758 H14.02 V-68.611 H80.66 V-65.758 H75.976 V-1.91 Q68.37 -1.91 62.555 -6.574 Q56.739 -11.237 55.759 -18.68 H38.858 Q37.728 -11.268 31.935 -6.627 Q26.141 -1.985 18.754 -1.985 Z M21.607 -4.698 Q27.843 -5.945 32.084 -10.515 Q36.325 -15.084 36.325 -21.533 V-65.758 H21.607 V-4.698 Z M39.177 -21.533 H55.503 V-65.758 H39.177 V-21.533 Z M73.123 -4.774 V-65.758 H58.355 V-21.528 Q58.355 -15.128 62.541 -10.566 Q66.728 -6.002 73.123 -4.774 Z"/></g><g id="Ultralight-S" transform="matrix(1 0 0 1 517.792 696)"><path d="M19.824 -3.078 V-65.804 H15.09 V-67.53 H79.59 V-65.804 H74.906 V-2.98 Q67.607 -2.98 62.081 -7.497 Q56.557 -12.014 55.907 -19.203 H38.71 Q37.921 -12.053 32.406 -7.566 Q26.892 -3.078 19.824 -3.078 Z M21.55 -4.311 Q28.059 -5.251 32.596 -9.787 Q37.132 -14.321 37.132 -20.929 V-65.804 H21.55 V-4.311 Z M38.858 -20.929 H55.822 V-65.804 H38.858 V-20.929 Z M73.18 -4.41 V-65.804 H57.548 V-20.923 Q57.548 -14.38 62.035 -9.867 Q66.523 -5.354 73.18 -4.41 Z"/></g></g></svg>