<svg xmlns="http://www.w3.org/2000/svg" version="1.1" width="3300" height="2000"><g id="Notes"><style>
    text {
      font-family: monospace;
      text-anchor: middle;
    }
    text.emphasis {
      font-weight:bold;
    }
    text.lanchor {
      text-anchor: start;
    }
  </style><rect height="2200" id="artboard" fill="white" width="3300" x="0" y="0"/><line id="" style="fill:none;stroke:black;stroke-width:0.5;" x1="263" x2="3036" y1="292" y2="292"/><text class="lanchor emphasis" transform="matrix(1 0 0 1 263 322)">Weight/Scale Variations</text><text transform="matrix(1 0 0 1 559.711 322)">Ultralight</text><text transform="matrix(1 0 0 1 856.422 322)">Thin</text><text transform="matrix(1 0 0 1 1153.13 322)">Light</text><text transform="matrix(1 0 0 1 1449.84 322)">Regular</text><text transform="matrix(1 0 0 1 1746.56 322)">Medium</text><text transform="matrix(1 0 0 1 2043.27 322)">Semibold</text><text transform="matrix(1 0 0 1 2339.98 322)">Bold</text><text transform="matrix(1 0 0 1 2636.69 322)">Heavy</text><text transform="matrix(1 0 0 1 2933.4 322)">Black</text><text id="template-version" style="text-anchor: end;" transform="matrix(1 0 0 1 3036 1933)">Template v.1.0</text><text class="lanchor" transform="matrix(1 0 0 1 263 726)">Small</text><text class="lanchor" transform="matrix(1 0 0 1 263 1156)">Medium</text><text class="lanchor" transform="matrix(1 0 0 1 263 1586)">Large</text></g><g id="Guides"><g id="H-reference" style="fill:#27AAE1;stroke:none;" transform="matrix(1 0 0 1 339 696)"><path d="M 54.9316 0 L 57.666 0 L 30.5664 -70.459 L 28.0762 -70.459 L 0.976562 0 L 3.66211 0 L 12.9395 -24.4629 L 45.7031 -24.4629 Z M 29.1992 -67.0898 L 29.4434 -67.0898 L 44.8242 -26.709 L 13.8184 -26.709 Z"/></g><line id="Baseline-S" style="fill:none;stroke:#27AAE1;opacity:1;stroke-width:0.577;" x1="263" x2="3036" y1="696" y2="696"/><line id="Capline-S" style="fill:none;stroke:#27AAE1;opacity:1;stroke-width:0.577;" x1="263" x2="3036" y1="625.541" y2="625.541"/><g id="H-reference" style="fill:#27AAE1;stroke:none;" transform="matrix(1 0 0 1 339 1126)"><path d="M 54.9316 0 L 57.666 0 L 30.5664 -70.459 L 28.0762 -70.459 L 0.976562 0 L 3.66211 0 L 12.9395 -24.4629 L 45.7031 -24.4629 Z M 29.1992 -67.0898 L 29.4434 -67.0898 L 44.8242 -26.709 L 13.8184 -26.709 Z"/></g><line id="Baseline-M" style="fill:none;stroke:#27AAE1;opacity:1;stroke-width:0.577;" x1="263" x2="3036" y1="1126" y2="1126"/><line id="Capline-M" style="fill:none;stroke:#27AAE1;opacity:1;stroke-width:0.577;" x1="263" x2="3036" y1="1055.54" y2="1055.54"/><g id="H-reference" style="fill:#27AAE1;stroke:none;" transform="matrix(1 0 0 1 339 1556)"><path d="M 54.9316 0 L 57.666 0 L 30.5664 -70.459 L 28.0762 -70.459 L 0.976562 0 L 3.66211 0 L 12.9395 -24.4629 L 45.7031 -24.4629 Z M 29.1992 -67.0898 L 29.4434 -67.0898 L 44.8242 -26.709 L 13.8184 -26.709 Z"/></g><line id="Baseline-L" style="fill:none;stroke:#27AAE1;opacity:1;stroke-width:0.577;" x1="263" x2="3036" y1="1556" y2="1556"/><line id="Capline-L" style="fill:none;stroke:#27AAE1;opacity:1;stroke-width:0.577;" x1="263" x2="3036" y1="1485.54" y2="1485.54"/><rect height="119.336" id="left-margin" style="fill:darkred;stroke:none;opacity:0.4;" width="12.4512" x="1394.06" y="1030.79"/><rect height="119.336" id="right-margin" style="fill:darkgreen;stroke:none;opacity:0.4;" width="12.4512" x="1502.5112" y="1030.79"/><rect x="1406.5112" y="1045" width="96" height="96" fill="none" stroke="blue" stroke-dasharray="5"/><rect x="1394.06" y="1030.79" width="120.9024" height="119.336" fill="none" stroke="blue"/></g><g id="Symbols"><g id="Bold-L" transform="matrix(1 0 0 1 2266 1556)"><path d="M77.373 -32.489 Q87.236 -32.489 94.009 -39.192 Q100.781 -45.895 100.781 -55.52 Q100.781 -65.384 94.009 -72.237 Q87.236 -79.09 77.453 -79.09 Q67.67 -79.09 60.925 -72.237 Q54.18 -65.384 54.18 -55.601 Q54.18 -45.818 60.93 -39.153 Q67.681 -32.489 77.373 -32.489 Z M77.435 -45.227 Q73.127 -45.227 70.023 -48.238 Q66.919 -51.249 66.919 -55.477 Q66.919 -59.837 69.987 -63.013 Q73.056 -66.19 77.365 -66.19 Q81.673 -66.19 84.777 -63.071 Q87.881 -59.953 87.881 -55.573 Q87.881 -51.194 84.813 -48.211 Q81.744 -45.227 77.435 -45.227 Z M77.484 -10.881 Q79.98 -10.881 81.673 -12.481 Q83.366 -14.082 83.366 -16.606 Q83.366 -19.008 81.654 -20.75 Q79.94 -22.491 77.484 -22.491 Q75.149 -22.491 73.453 -20.761 Q71.756 -19.032 71.756 -16.606 Q71.756 -14.042 73.44 -12.461 Q75.125 -10.881 77.484 -10.881 Z M107.554 38.784 H47.407 V26.045 H56.586 Q62.52 26.045 66.09 22.175 Q69.66 18.305 70.627 12.984 H28.219 V-103.922 H126.743 V12.984 H84.334 Q85.256 18.265 88.768 22.154 Q92.28 26.045 98.362 26.045 H107.554 V38.784 Z"/></g><g id="Semibold-L" transform="matrix(1 0 0 1 1970.27 1556)"><path d="M77.384 -31.507 Q87.517 -31.507 94.499 -38.468 Q101.483 -45.427 101.483 -55.322 Q101.483 -65.453 94.499 -72.517 Q87.517 -79.58 77.465 -79.58 Q67.414 -79.58 60.411 -72.517 Q53.409 -65.453 53.409 -55.402 Q53.409 -45.352 60.417 -38.429 Q67.423 -31.507 77.384 -31.507 Z M77.429 -42.914 Q72.251 -42.914 68.533 -46.551 Q64.816 -50.189 64.816 -55.298 Q64.816 -60.538 68.504 -64.31 Q72.192 -68.083 77.371 -68.083 Q82.549 -68.083 86.267 -64.352 Q89.984 -60.62 89.984 -55.381 Q89.984 -50.142 86.296 -46.529 Q82.608 -42.914 77.429 -42.914 Z M77.482 -10.741 Q79.77 -10.741 81.323 -12.25 Q82.876 -13.76 82.876 -16.08 Q82.876 -18.279 81.302 -19.895 Q79.73 -21.509 77.447 -21.509 Q75.286 -21.509 73.696 -19.902 Q72.106 -18.292 72.106 -16.044 Q72.106 -13.719 73.69 -12.231 Q75.272 -10.741 77.482 -10.741 Z M106.151 34.648 H48.81 V23.241 H56.871 Q62.451 23.241 66.161 19.792 Q69.87 16.343 71.118 11.442 H29.972 V-102.1 H124.92 V11.442 H83.773 Q84.995 16.32 88.673 19.78 Q92.349 23.241 98.013 23.241 H106.151 V34.648 Z"/></g><g id="Medium-L" transform="matrix(1 0 0 1 1674.31 1556)"><path d="M77.394 -30.771 Q87.726 -30.771 94.868 -37.924 Q102.008 -45.078 102.008 -55.173 Q102.008 -65.506 94.868 -72.727 Q87.726 -79.949 77.474 -79.949 Q67.222 -79.949 60.025 -72.727 Q52.83 -65.506 52.83 -55.254 Q52.83 -45 60.03 -37.886 Q67.232 -30.771 77.394 -30.771 Z M77.424 -41.179 Q71.593 -41.179 67.415 -45.287 Q63.237 -49.394 63.237 -55.162 Q63.237 -61.064 67.391 -65.284 Q71.543 -69.502 77.376 -69.502 Q83.207 -69.502 87.385 -65.313 Q91.563 -61.122 91.563 -55.238 Q91.563 -49.354 87.409 -45.266 Q83.257 -41.179 77.424 -41.179 Z M77.481 -10.636 Q79.612 -10.636 81.06 -12.076 Q82.507 -13.518 82.507 -15.685 Q82.507 -17.733 81.039 -19.253 Q79.572 -20.774 77.419 -20.774 Q75.389 -20.774 73.88 -19.257 Q72.369 -17.738 72.369 -15.624 Q72.369 -13.477 73.877 -12.057 Q75.383 -10.636 77.481 -10.636 Z M105.1 31.545 H49.862 V21.138 H57.086 Q62.397 21.138 66.212 18.003 Q70.028 14.87 71.487 10.284 H31.286 V-100.733 H123.553 V10.284 H83.352 Q84.8 14.861 88.6 17.999 Q92.403 21.138 97.75 21.138 H105.1 V31.545 Z"/></g><g id="Regular-L" transform="matrix(1 0 0 1 1378.56 1556)"><path d="M77.4 -30.231 Q87.881 -30.231 95.138 -37.526 Q102.394 -44.82 102.394 -55.064 Q102.394 -65.545 95.138 -72.882 Q87.881 -80.219 77.481 -80.219 Q67.08 -80.219 59.743 -72.882 Q52.406 -65.545 52.406 -55.144 Q52.406 -44.744 59.748 -37.487 Q67.09 -30.231 77.4 -30.231 Z M77.421 -39.906 Q71.111 -39.906 66.596 -44.358 Q62.081 -48.81 62.081 -55.064 Q62.081 -61.449 66.575 -65.996 Q71.068 -70.544 77.379 -70.544 Q83.689 -70.544 88.204 -66.016 Q92.719 -61.49 92.719 -55.131 Q92.719 -48.775 88.225 -44.341 Q83.732 -39.906 77.421 -39.906 Z M77.481 -10.559 Q79.496 -10.559 80.867 -11.95 Q82.237 -13.34 82.237 -15.396 Q82.237 -17.331 80.848 -18.782 Q79.456 -20.234 77.4 -20.234 Q75.465 -20.234 74.014 -18.782 Q72.562 -17.331 72.562 -15.316 Q72.562 -13.3 74.014 -11.929 Q75.465 -10.559 77.481 -10.559 Z M104.329 29.27 H50.633 V19.595 H57.244 Q62.359 19.595 66.251 16.693 Q70.144 13.79 71.756 9.436 H32.25 V-99.73 H122.55 V9.436 H83.044 Q84.656 13.79 88.549 16.693 Q92.441 19.595 97.556 19.595 H104.329 V29.27 Z"/></g><g id="Light-L" transform="matrix(1 0 0 1 1082.77 1556)"><path d="M77.4 -31.782 Q86.951 -31.782 93.586 -38.394 Q100.223 -45.007 100.223 -54.351 Q100.223 -63.932 93.586 -70.649 Q86.951 -77.366 77.45 -77.366 Q67.949 -77.366 61.294 -70.649 Q54.64 -63.932 54.64 -54.432 Q54.64 -44.929 61.291 -38.357 Q67.944 -31.782 77.4 -31.782 Z M77.416 -39.1 Q71.027 -39.1 66.491 -43.588 Q61.957 -48.075 61.957 -54.398 Q61.957 -60.827 66.47 -65.406 Q70.984 -69.986 77.373 -69.986 Q83.763 -69.986 88.333 -65.419 Q92.904 -60.854 92.904 -54.443 Q92.904 -48.03 88.355 -43.565 Q83.805 -39.1 77.416 -39.1 Z M77.45 -11.675 Q79.248 -11.675 80.525 -12.94 Q81.804 -14.208 81.804 -16.078 Q81.804 -17.828 80.504 -19.155 Q79.206 -20.482 77.369 -20.482 Q75.589 -20.482 74.293 -19.155 Q72.996 -17.828 72.996 -15.998 Q72.996 -14.169 74.291 -12.921 Q75.586 -11.675 77.45 -11.675 Z M102.902 26.045 H51.935 V18.726 H58.298 Q63.578 18.726 67.636 15.544 Q71.695 12.363 73.183 7.514 H35.475 V-96.505 H119.325 V7.514 H81.617 Q83.105 12.363 87.167 15.544 Q91.227 18.726 96.565 18.726 H102.902 V26.045 Z"/></g><g id="Thin-L" transform="matrix(1 0 0 1 787.282 1556)"><path d="M77.4 -33.332 Q86.02 -33.332 92.037 -39.263 Q98.053 -45.192 98.053 -53.637 Q98.053 -62.32 92.037 -68.417 Q86.02 -74.514 77.419 -74.514 Q68.817 -74.514 62.844 -68.417 Q56.871 -62.32 56.871 -53.717 Q56.871 -45.116 62.834 -39.224 Q68.797 -33.332 77.4 -33.332 Z M77.41 -38.294 Q70.942 -38.294 66.388 -42.817 Q61.833 -47.338 61.833 -53.732 Q61.833 -60.206 66.366 -64.816 Q70.9 -69.428 77.368 -69.428 Q83.835 -69.428 88.463 -64.823 Q93.091 -60.219 93.091 -53.753 Q93.091 -47.287 88.484 -42.789 Q83.879 -38.294 77.41 -38.294 Z M77.419 -12.792 Q79 -12.792 80.185 -13.932 Q81.37 -15.074 81.37 -16.76 Q81.37 -18.323 80.162 -19.527 Q78.956 -20.73 77.339 -20.73 Q75.713 -20.73 74.572 -19.527 Q73.43 -18.323 73.43 -16.68 Q73.43 -15.037 74.568 -13.914 Q75.707 -12.792 77.419 -12.792 Z M101.476 22.82 H53.237 V17.858 H59.353 Q64.797 17.858 69.021 14.398 Q73.245 10.937 74.609 5.59 H38.7 V-93.28 H116.1 V5.59 H80.191 Q81.555 10.937 85.785 14.398 Q90.013 17.858 95.571 17.858 H101.476 V22.82 Z"/></g><g id="Ultralight-L" transform="matrix(1 0 0 1 491.205 1556)"><path d="M77.4 -34.262 Q85.463 -34.262 91.106 -39.784 Q96.75 -45.303 96.75 -53.209 Q96.75 -61.352 91.106 -67.077 Q85.463 -72.801 77.4 -72.801 Q69.338 -72.801 63.774 -67.077 Q58.211 -61.352 58.211 -53.29 Q58.211 -45.227 63.76 -39.745 Q69.31 -34.262 77.4 -34.262 Z M77.406 -37.81 Q70.892 -37.81 66.325 -42.352 Q61.759 -46.896 61.759 -53.332 Q61.759 -59.834 66.304 -64.463 Q70.848 -69.092 77.365 -69.092 Q83.881 -69.092 88.541 -64.465 Q93.203 -59.837 93.203 -53.338 Q93.203 -46.84 88.563 -42.325 Q83.923 -37.81 77.406 -37.81 Z M77.4 -13.461 Q78.851 -13.461 79.98 -14.527 Q81.109 -15.595 81.109 -17.17 Q81.109 -18.621 79.957 -19.75 Q78.808 -20.879 77.319 -20.879 Q75.788 -20.879 74.739 -19.75 Q73.691 -18.621 73.691 -17.089 Q73.691 -15.557 74.736 -14.509 Q75.779 -13.461 77.4 -13.461 Z M100.62 20.885 H54.019 V17.338 H59.985 Q65.529 17.338 69.852 13.709 Q74.175 10.081 75.465 4.438 H40.635 V-91.345 H114.165 V4.438 H79.335 Q80.625 10.081 84.955 13.709 Q89.286 17.338 94.976 17.338 H100.62 V20.885 Z"/></g><g id="Bold-M" transform="matrix(1 0 0 1 2281.8 1126)"><path d="M60 -32.48 Q67.625 -32.48 72.938 -37.792 Q78.25 -43.105 78.25 -50.73 Q78.25 -58.355 72.938 -63.667 Q67.625 -68.98 60 -68.98 Q52.375 -68.98 47.062 -63.667 Q41.75 -58.355 41.75 -50.73 Q41.75 -43.105 47.062 -37.792 Q52.375 -32.48 60 -32.48 Z M60 -45.73 Q57.938 -45.73 56.469 -47.186 Q55 -48.641 55 -50.686 Q55 -52.73 56.469 -54.23 Q57.938 -55.73 60 -55.73 Q62.062 -55.73 63.531 -54.249 Q65 -52.766 65 -50.686 Q65 -48.605 63.531 -47.167 Q62.062 -45.73 60 -45.73 Z M60.002 -15.48 Q62.5 -15.48 64.312 -17.205 Q66.125 -18.93 66.125 -21.48 Q66.125 -24.03 64.312 -25.755 Q62.5 -27.48 60.002 -27.48 Q57.505 -27.48 55.815 -25.755 Q54.125 -24.03 54.125 -21.48 Q54.125 -18.93 55.815 -17.205 Q57.505 -15.48 60.002 -15.48 Z M83.375 24.645 H36.625 V11.395 H44.25 Q48.125 11.395 49.938 9.083 Q51.75 6.77 52.375 3.52 H20.75 V-89.48 H99.25 V3.52 H67.625 Q68.375 6.77 70.125 9.083 Q71.875 11.395 75.75 11.395 H83.375 V24.645 Z"/></g><g id="Semibold-M" transform="matrix(1 0 0 1 1985.97 1126)"><path d="M60 -31.501 Q67.896 -31.501 73.454 -37.059 Q79.011 -42.616 79.011 -50.512 Q79.011 -58.409 73.454 -63.966 Q67.896 -69.524 60 -69.524 Q52.104 -69.524 46.546 -63.966 Q40.989 -58.409 40.989 -50.512 Q40.989 -42.616 46.546 -37.059 Q52.104 -31.501 60 -31.501 Z M60 -43.339 Q57.041 -43.339 54.934 -45.439 Q52.826 -47.539 52.826 -50.487 Q52.826 -53.436 54.934 -55.561 Q57.041 -57.686 60 -57.686 Q62.959 -57.686 65.066 -55.571 Q67.174 -53.457 67.174 -50.487 Q67.174 -47.517 65.066 -45.429 Q62.959 -43.339 60 -43.339 Z M60.001 -15.371 Q62.337 -15.371 63.986 -16.971 Q65.636 -18.571 65.636 -20.936 Q65.636 -23.301 63.986 -24.901 Q62.337 -26.501 60.001 -26.501 Q57.665 -26.501 56.085 -24.901 Q54.505 -23.301 54.505 -20.936 Q54.505 -18.571 56.085 -16.971 Q57.665 -15.371 60.001 -15.371 Z M81.907 20.351 H38.093 V8.515 H44.576 Q48.016 8.515 49.991 6.61 Q51.968 4.705 52.919 1.89 H22.598 V-87.632 H97.403 V1.89 H67.081 Q68.104 4.705 70.044 6.61 Q71.984 8.515 75.424 8.515 H81.907 V20.351 Z"/></g><g id="Medium-M" transform="matrix(1 0 0 1 1689.91 1126)"><path d="M60 -30.767 Q68.1 -30.767 73.841 -36.509 Q79.581 -42.249 79.581 -50.35 Q79.581 -58.45 73.841 -64.19 Q68.1 -69.931 60 -69.931 Q51.9 -69.931 46.159 -64.19 Q40.419 -58.45 40.419 -50.35 Q40.419 -42.249 46.159 -36.509 Q51.9 -30.767 60 -30.767 Z M60 -41.545 Q56.369 -41.545 53.782 -44.129 Q51.196 -46.711 51.196 -50.339 Q51.196 -53.966 53.782 -56.56 Q56.369 -59.154 60 -59.154 Q63.631 -59.154 66.218 -56.565 Q68.804 -53.975 68.804 -50.339 Q68.804 -46.702 66.218 -44.124 Q63.631 -41.545 60 -41.545 Z M60 -15.29 Q62.215 -15.29 63.741 -16.796 Q65.269 -18.302 65.269 -20.529 Q65.269 -22.755 63.741 -24.261 Q62.215 -25.767 60 -25.767 Q57.786 -25.767 56.289 -24.261 Q54.791 -22.755 54.791 -20.529 Q54.791 -18.302 56.289 -16.796 Q57.786 -15.29 60 -15.29 Z M80.808 17.131 H39.193 V6.354 H44.821 Q47.935 6.354 50.032 4.755 Q52.13 3.156 53.326 0.666 H23.984 V-86.246 H96.016 V0.666 H66.674 Q67.9 3.156 69.983 4.755 Q72.065 6.354 75.179 6.354 H80.808 V17.131 Z"/></g><g id="Regular-M" transform="matrix(1 0 0 1 1394.06 1126)"><path d="M60 -30.23 Q68.25 -30.23 74.125 -36.105 Q80 -41.98 80 -50.23 Q80 -58.48 74.125 -64.355 Q68.25 -70.23 60 -70.23 Q51.75 -70.23 45.875 -64.355 Q40 -58.48 40 -50.23 Q40 -41.98 45.875 -36.105 Q51.75 -30.23 60 -30.23 Z M60 -40.23 Q55.875 -40.23 52.938 -43.167 Q50 -46.105 50 -50.23 Q50 -54.355 52.938 -57.292 Q55.875 -60.23 60 -60.23 Q64.125 -60.23 67.062 -57.292 Q70 -54.355 70 -50.23 Q70 -46.105 67.062 -43.167 Q64.125 -40.23 60 -40.23 Z M60 -15.23 Q62.125 -15.23 63.562 -16.667 Q65 -18.105 65 -20.23 Q65 -22.355 63.562 -23.792 Q62.125 -25.23 60 -25.23 Q57.875 -25.23 56.438 -23.792 Q55 -22.355 55 -20.23 Q55 -18.105 56.438 -16.667 Q57.875 -15.23 60 -15.23 Z M80 14.77 H40 V4.77 H45 Q47.875 4.77 50.062 3.395 Q52.25 2.02 53.625 -0.23 H25 V-85.23 H95 V-0.23 H66.375 Q67.75 2.02 69.938 3.395 Q72.125 4.77 75 4.77 H80 V14.77 Z"/></g><g id="Light-M" transform="matrix(1 0 0 1 1098.18 1126)"><path d="M60 -31.72 Q67.529 -31.72 72.826 -36.995 Q78.125 -42.269 78.125 -49.797 Q78.125 -57.326 72.826 -62.649 Q67.529 -67.97 60 -67.97 Q52.471 -67.97 47.174 -62.649 Q41.875 -57.326 41.875 -49.797 Q41.875 -42.269 47.174 -36.995 Q52.471 -31.72 60 -31.72 Z M60 -39.22 Q55.617 -39.22 52.496 -42.326 Q49.375 -45.431 49.375 -49.81 Q49.375 -54.187 52.496 -57.305 Q55.617 -60.422 60 -60.422 Q64.382 -60.422 67.504 -57.305 Q70.625 -54.187 70.625 -49.81 Q70.625 -45.431 67.504 -42.326 Q64.382 -39.22 60 -39.22 Z M60 -16.336 Q61.789 -16.336 63.057 -17.58 Q64.326 -18.824 64.326 -20.662 Q64.326 -22.451 63.057 -23.72 Q61.789 -24.99 59.976 -24.99 Q58.164 -24.99 56.919 -23.72 Q55.674 -22.451 55.674 -20.639 Q55.674 -18.826 56.917 -17.581 Q58.161 -16.336 60 -16.336 Z M79.135 12.27 H40.818 V4.77 H45.625 Q48.932 4.77 51.481 2.939 Q54.029 1.106 55.26 -1.816 H27.5 V-82.73 H92.5 V-1.816 H64.74 Q65.971 1.106 68.506 2.939 Q71.043 4.77 74.375 4.77 H79.135 V12.27 Z"/></g><g id="Thin-M" transform="matrix(1 0 0 1 802.565 1126)"><path d="M60 -33.211 Q66.808 -33.211 71.529 -37.884 Q76.25 -42.557 76.25 -49.365 Q76.25 -56.172 71.529 -60.941 Q66.808 -65.711 60 -65.711 Q53.193 -65.711 48.471 -60.941 Q43.75 -56.172 43.75 -49.365 Q43.75 -42.557 48.471 -37.884 Q53.193 -33.211 60 -33.211 Z M60 -38.211 Q55.36 -38.211 52.055 -41.485 Q48.75 -44.759 48.75 -49.389 Q48.75 -54.02 52.055 -57.317 Q55.36 -60.615 60 -60.615 Q64.641 -60.615 67.945 -57.317 Q71.25 -54.02 71.25 -49.389 Q71.25 -44.759 67.945 -41.485 Q64.641 -38.211 60 -38.211 Z M60 -17.441 Q61.453 -17.441 62.553 -18.492 Q63.654 -19.542 63.654 -21.095 Q63.654 -22.547 62.553 -23.649 Q61.453 -24.749 59.953 -24.749 Q58.453 -24.749 57.399 -23.649 Q56.346 -22.547 56.346 -21.047 Q56.346 -19.547 57.396 -18.495 Q58.447 -17.441 60 -17.441 Z M78.269 9.77 H41.635 V4.77 H46.25 Q49.99 4.77 52.899 2.481 Q55.807 0.193 56.894 -3.402 H30 V-80.23 H90 V-3.402 H63.106 Q64.192 0.193 67.076 2.481 Q69.96 4.77 73.75 4.77 H78.269 V9.77 Z"/></g><g id="Ultralight-M" transform="matrix(1 0 0 1 506.415 1126)"><path d="M60 -34.105 Q66.375 -34.105 70.75 -38.417 Q75.125 -42.73 75.125 -49.105 Q75.125 -55.48 70.75 -59.917 Q66.375 -64.355 60 -64.355 Q53.625 -64.355 49.25 -59.917 Q44.875 -55.48 44.875 -49.105 Q44.875 -42.73 49.25 -38.417 Q53.625 -34.105 60 -34.105 Z M60 -37.605 Q55.205 -37.605 51.79 -40.98 Q48.375 -44.355 48.375 -49.137 Q48.375 -53.919 51.79 -57.325 Q55.205 -60.73 60 -60.73 Q64.795 -60.73 68.21 -57.325 Q71.625 -53.919 71.625 -49.137 Q71.625 -44.355 68.21 -40.98 Q64.795 -37.605 60 -37.605 Z M60 -18.105 Q61.25 -18.105 62.25 -19.04 Q63.25 -19.974 63.25 -21.355 Q63.25 -22.605 62.25 -23.605 Q61.25 -24.605 59.938 -24.605 Q58.625 -24.605 57.688 -23.605 Q56.75 -22.605 56.75 -21.292 Q56.75 -19.98 57.685 -19.042 Q58.619 -18.105 60 -18.105 Z M77.75 8.27 H42.125 V4.77 H46.625 Q50.625 4.77 53.75 2.208 Q56.875 -0.355 57.875 -4.355 H31.5 V-78.73 H88.5 V-4.355 H62.125 Q63.125 -0.355 66.218 2.208 Q69.31 4.77 73.375 4.77 H77.75 V8.27 Z"/></g><g id="Bold-S" transform="matrix(1 0 0 1 2294.23 696)"><path d="M47.34 -34.638 Q52.764 -34.638 56.463 -38.337 Q60.161 -42.035 60.161 -47.459 Q60.161 -52.884 56.463 -56.582 Q52.764 -60.281 47.34 -60.281 Q41.916 -60.281 38.217 -56.582 Q34.519 -52.884 34.519 -47.459 Q34.519 -42.035 38.217 -38.337 Q41.916 -34.638 47.34 -34.638 Z M47.319 -44.303 Q46.009 -44.303 45.096 -45.227 Q44.184 -46.15 44.184 -47.446 Q44.184 -48.742 45.117 -49.679 Q46.05 -50.615 47.361 -50.615 Q48.671 -50.615 49.584 -49.672 Q50.496 -48.729 50.496 -47.403 Q50.496 -46.079 49.563 -45.191 Q48.63 -44.303 47.319 -44.303 Z M47.321 -20.042 Q49.115 -20.042 50.447 -21.283 Q51.778 -22.525 51.778 -24.361 Q51.778 -26.196 50.467 -27.458 Q49.157 -28.721 47.363 -28.721 Q45.569 -28.721 44.334 -27.479 Q43.099 -26.237 43.099 -24.402 Q43.099 -22.567 44.313 -21.304 Q45.526 -20.042 47.321 -20.042 Z M64.205 10.433 H30.475 V0.768 H36.053 Q38.858 0.768 40.19 -0.908 Q41.521 -2.585 41.817 -5.051 H17.95 V-76.455 H76.73 V-5.051 H52.863 Q53.258 -2.585 54.54 -0.908 Q55.822 0.768 58.627 0.768 H64.205 V10.433 Z"/></g><g id="Semibold-S" transform="matrix(1 0 0 1 1998.1 696)"><path d="M47.34 -33.866 Q52.978 -33.866 56.87 -37.758 Q60.762 -41.65 60.762 -47.288 Q60.762 -52.926 56.87 -56.818 Q52.978 -60.71 47.34 -60.71 Q41.702 -60.71 37.81 -56.818 Q33.918 -52.926 33.918 -47.288 Q33.918 -41.65 37.81 -37.758 Q41.702 -33.866 47.34 -33.866 Z M47.319 -42.417 Q45.301 -42.417 43.885 -43.848 Q42.469 -45.279 42.469 -47.289 Q42.469 -49.299 43.906 -50.729 Q45.343 -52.159 47.361 -52.159 Q49.379 -52.159 50.795 -50.716 Q52.211 -49.273 52.211 -47.247 Q52.211 -45.221 50.774 -43.819 Q49.337 -42.417 47.319 -42.417 Z M47.32 -19.956 Q48.987 -19.956 50.189 -21.099 Q51.393 -22.242 51.393 -23.932 Q51.393 -25.621 50.21 -26.785 Q49.028 -27.949 47.362 -27.949 Q45.695 -27.949 44.547 -26.805 Q43.399 -25.663 43.399 -23.973 Q43.399 -22.283 44.526 -21.12 Q45.654 -19.956 47.32 -19.956 Z M63.047 7.046 H31.633 V-1.504 H36.31 Q38.772 -1.504 40.232 -2.859 Q41.693 -4.214 42.246 -6.337 H19.407 V-74.998 H75.273 V-6.337 H52.434 Q53.043 -4.214 54.476 -2.859 Q55.908 -1.504 58.37 -1.504 H63.047 V7.046 Z"/></g><g id="Medium-S" transform="matrix(1 0 0 1 1701.85 696)"><path d="M47.34 -33.287 Q53.139 -33.287 57.176 -37.324 Q61.212 -41.36 61.212 -47.16 Q61.212 -52.959 57.176 -56.995 Q53.139 -61.031 47.34 -61.031 Q41.541 -61.031 37.504 -56.995 Q33.468 -52.959 33.468 -47.16 Q33.468 -41.36 37.504 -37.324 Q41.541 -33.287 47.34 -33.287 Z M47.319 -41.002 Q44.771 -41.002 42.977 -42.814 Q41.183 -44.627 41.183 -47.172 Q41.183 -49.717 42.998 -51.517 Q44.812 -53.317 47.361 -53.317 Q49.909 -53.317 51.703 -51.499 Q53.497 -49.683 53.497 -47.13 Q53.497 -44.578 51.682 -42.79 Q49.868 -41.002 47.319 -41.002 Z M47.319 -19.892 Q48.89 -19.892 49.996 -20.961 Q51.103 -22.03 51.103 -23.61 Q51.103 -25.19 50.018 -26.28 Q48.932 -27.37 47.361 -27.37 Q45.791 -27.37 44.708 -26.3 Q43.625 -25.232 43.625 -23.651 Q43.625 -22.071 44.687 -20.982 Q45.749 -19.892 47.319 -19.892 Z M62.179 4.505 H32.501 V-3.209 H36.503 Q38.708 -3.209 40.265 -4.323 Q41.821 -5.436 42.568 -7.302 H20.501 V-73.904 H74.179 V-7.302 H52.112 Q52.883 -5.436 54.427 -4.323 Q55.972 -3.209 58.177 -3.209 H62.179 V4.505 Z"/></g><g id="Regular-S" transform="matrix(1 0 0 1 1405.73 696)"><path d="M47.34 -32.863 Q53.258 -32.863 57.4 -37.005 Q61.542 -41.147 61.542 -47.065 Q61.542 -52.982 57.4 -57.125 Q53.258 -61.267 47.34 -61.267 Q41.422 -61.267 37.28 -57.125 Q33.138 -52.982 33.138 -47.065 Q33.138 -41.147 37.28 -37.005 Q41.422 -32.863 47.34 -32.863 Z M47.319 -39.964 Q44.381 -39.964 42.31 -42.056 Q40.239 -44.148 40.239 -47.086 Q40.239 -50.024 42.331 -52.095 Q44.423 -54.166 47.361 -54.166 Q50.299 -54.166 52.37 -52.074 Q54.441 -49.982 54.441 -47.044 Q54.441 -44.106 52.349 -42.035 Q50.257 -39.964 47.319 -39.964 Z M47.319 -19.844 Q48.819 -19.844 49.855 -20.859 Q50.891 -21.874 50.891 -23.374 Q50.891 -24.874 49.876 -25.91 Q48.861 -26.945 47.361 -26.945 Q45.861 -26.945 44.825 -25.931 Q43.79 -24.916 43.79 -23.416 Q43.79 -21.916 44.804 -20.88 Q45.819 -19.844 47.319 -19.844 Z M61.542 2.642 H33.138 V-4.459 H36.645 Q38.661 -4.459 40.288 -5.396 Q41.916 -6.333 42.803 -8.009 H21.303 V-73.102 H73.377 V-8.009 H51.877 Q52.764 -6.333 54.392 -5.396 Q56.019 -4.459 58.035 -4.459 H61.542 V2.642 Z"/></g><g id="Light-S" transform="matrix(1 0 0 1 1109.75 696)"><path d="M47.34 -34.039 Q52.688 -34.039 56.375 -37.707 Q60.063 -41.375 60.063 -46.724 Q60.063 -52.072 56.375 -55.779 Q52.688 -59.484 47.34 -59.484 Q41.992 -59.484 38.305 -55.779 Q34.617 -52.072 34.617 -46.724 Q34.617 -41.375 38.305 -37.707 Q41.992 -34.039 47.34 -34.039 Z M47.319 -39.167 Q44.178 -39.167 41.962 -41.392 Q39.746 -43.617 39.746 -46.754 Q39.746 -49.892 41.983 -52.105 Q44.22 -54.318 47.361 -54.318 Q50.502 -54.318 52.718 -52.084 Q54.934 -49.849 54.934 -46.712 Q54.934 -43.575 52.697 -41.371 Q50.46 -39.167 47.319 -39.167 Z M47.319 -20.717 Q48.554 -20.717 49.456 -21.579 Q50.359 -22.441 50.359 -23.716 Q50.359 -24.95 49.477 -25.853 Q48.595 -26.756 47.342 -26.756 Q46.088 -26.756 45.205 -25.873 Q44.321 -24.992 44.321 -23.738 Q44.321 -22.485 45.183 -21.601 Q46.045 -20.717 47.319 -20.717 Z M60.86 0.67 H33.783 V-4.459 H37.138 Q39.495 -4.459 41.408 -5.756 Q43.319 -7.054 44.093 -9.261 H23.276 V-71.129 H71.404 V-9.261 H50.587 Q51.361 -7.054 53.262 -5.756 Q55.165 -4.459 57.542 -4.459 H60.86 V0.67 Z"/></g><g id="Thin-S" transform="matrix(1 0 0 1 814.015 696)"><path d="M47.34 -35.215 Q52.119 -35.215 55.351 -38.409 Q58.583 -41.603 58.583 -46.383 Q58.583 -51.162 55.351 -54.431 Q52.119 -57.702 47.34 -57.702 Q42.561 -57.702 39.329 -54.431 Q36.097 -51.162 36.097 -46.383 Q36.097 -41.603 39.329 -38.409 Q42.561 -35.215 47.34 -35.215 Z M47.319 -38.371 Q43.975 -38.371 41.614 -40.728 Q39.253 -43.086 39.253 -46.423 Q39.253 -49.759 41.635 -52.115 Q44.016 -54.47 47.361 -54.47 Q50.706 -54.47 53.066 -52.093 Q55.427 -49.717 55.427 -46.381 Q55.427 -43.044 53.045 -40.708 Q50.664 -38.371 47.319 -38.371 Z M47.319 -21.589 Q48.289 -21.589 49.058 -22.299 Q49.828 -23.008 49.828 -24.057 Q49.828 -25.026 49.079 -25.797 Q48.33 -26.566 47.323 -26.566 Q46.316 -26.566 45.583 -25.817 Q44.852 -25.068 44.852 -24.061 Q44.852 -23.054 45.561 -22.322 Q46.271 -21.589 47.319 -21.589 Z M60.176 -1.303 H34.428 V-4.459 H37.631 Q40.33 -4.459 42.526 -6.117 Q44.722 -7.775 45.382 -10.513 H25.248 V-69.157 H69.432 V-10.513 H49.298 Q49.958 -7.775 52.134 -6.117 Q54.311 -4.459 57.049 -4.459 H60.176 V-1.303 Z"/></g><g id="Ultralight-S" transform="matrix(1 0 0 1 517.792 696)"><path d="M47.34 -35.92 Q51.778 -35.92 54.737 -38.83 Q57.696 -41.739 57.696 -46.177 Q57.696 -50.615 54.737 -53.624 Q51.778 -56.632 47.34 -56.632 Q42.902 -56.632 39.943 -53.624 Q36.984 -50.615 36.984 -46.177 Q36.984 -41.739 39.943 -38.83 Q42.902 -35.92 47.34 -35.92 Z M47.319 -37.893 Q43.853 -37.893 41.405 -40.33 Q38.957 -42.767 38.957 -46.224 Q38.957 -49.68 41.425 -52.121 Q43.894 -54.56 47.361 -54.56 Q50.827 -54.56 53.275 -52.099 Q55.723 -49.638 55.723 -46.181 Q55.723 -42.725 53.255 -40.309 Q50.786 -37.893 47.319 -37.893 Z M47.319 -22.113 Q48.129 -22.113 48.819 -22.73 Q49.51 -23.349 49.51 -24.262 Q49.51 -25.072 48.84 -25.762 Q48.17 -26.452 47.311 -26.452 Q46.452 -26.452 45.811 -25.783 Q45.17 -25.113 45.17 -24.254 Q45.17 -23.395 45.788 -22.754 Q46.406 -22.113 47.319 -22.113 Z M59.767 -2.486 H34.815 V-4.459 H37.927 Q40.831 -4.459 43.198 -6.333 Q45.565 -8.207 46.157 -11.264 H26.431 V-67.973 H68.249 V-11.264 H48.524 Q49.115 -8.207 51.457 -6.333 Q53.798 -4.459 56.753 -4.459 H59.767 V-2.486 Z"/></g></g></svg>