<svg xmlns="http://www.w3.org/2000/svg" height="20" viewBox="0 -960 960 960" width="20"><path d="M228.23-835.92h503.23q43.44 0 73.95 30.51 30.51 30.51 30.51 74.13v79.78h-95.5v527.42H218.89V-651.5h-94.81v-79.87q0-43.65 30.19-74.1 30.19-30.45 73.96-30.45Zm32.42 663.88h438l-57.88-89.38h-38.58v-5.31q-2 7.63-7.93 12.76-5.94 5.12-13.95 5.12-8.49 0-14.78-5.12-6.3-5.13-8.3-12.76v5.31H318.54l-57.89 89.38Zm343.54-391.07h94.46l-57.88-89.39-36.58 1v88.39Zm0 196h94.46l-57.88-89.39h-36.58v89.39Zm-343.54 0h295.58v-89.39H318.54l-57.89 89.39Zm0-195h295.58v-89.39H318.54l-57.89 89.39Z"/></svg>