<svg xmlns="http://www.w3.org/2000/svg" height="48" viewBox="0 -960 960 960" width="48"><path d="M195-876h571q45.58 0 77.79 32.3Q876-811.4 876-765.51v110.13h-79.93V-84H164.23v-571.38H84v-110.07q0-45.86 32-78.2Q148-876 195-876Zm29 733.61h512.61l-66.46-106.23h-42v4.85q-2 10.64-9.53 17.17-7.53 6.52-18.67 6.52-10.41 0-18.8-6.52-8.38-6.53-10.38-17.17v-4.85H290.08L224-142.39Zm405.15-407.76h107.46l-66.46-105.23h-41v105.23ZM195-817.61q-21.76 0-37.19 14.92-15.42 14.93-15.42 37v51.92h675.22v-51.4q0-22.01-15.18-37.23-15.19-15.21-36.43-15.21H195Zm-52.61 103.84h675.22-675.22Zm486.76 367.92h107.46l-66.46-105.84h-41v105.84Zm-405.15 0h346.77v-105.84H290.08L224-345.85Zm0-204.3h346.77v-105.23H290.08L224-550.15Z"/></svg>