<svg xmlns="http://www.w3.org/2000/svg" height="20" viewBox="0 -960 960 960" width="20"><path d="M214.09-872.13h531.82q52.59 0 89.41 36.78 36.81 36.78 36.81 89.32v102.1h-96v556.06H183.87v-556.06h-96v-102.22q0-52.49 36.81-89.24 36.82-36.74 89.41-36.74Zm32.39 701.26h467.04l-47.3-62.2h-41.11v-4.78q-3.91 11.57-13.47 18.87-9.56 7.31-22.8 7.31-13.67 0-23.52-7.31-9.84-7.3-13.99-18.87v4.78H293.78l-47.3 62.2Zm383.74-411.87h83.3l-47.3-62.19-36 1v61.19ZM214.09-789.13q-18.37 0-30.8 12.39-12.42 12.39-12.42 30.71v19.1h618.26v-19.14q0-18.33-12.42-30.7-12.43-12.36-30.8-12.36H214.09Zm-43.22 62.2h618.26-618.26Zm459.35 350.86h83.3l-47.3-62.19h-36v62.19Zm-383.74 0h300.74v-62.19H293.78l-47.3 62.19Zm0-205.67h300.74v-62.19H293.78l-47.3 62.19Z"/></svg>