<svg xmlns="http://www.w3.org/2000/svg" height="40" viewBox="0 -960 960 960" width="40"><path d="M191.83-902h576.18q55.77 0 94.88 38.97Q902-824.07 902-768.34v132.84h-79.43v576.83h-683.9V-635.5h-80v-133.11q0-55.42 38.65-94.4Q135.97-902 191.83-902Zm32.67 742h512.17l-45.34-63.67H643v-8q-6.67 8.67-17.16 13.42t-22.67 4.75q-11.69 0-22.1-4.75-10.4-4.75-18.07-13.42v8H269.83L224.5-160ZM654-571.83h82.67l-45.34-63.67H654v63.67Zm0 207h82.67l-45.34-63.67H654v63.67Zm-429.5 0H552v-63.67H269.83l-45.33 63.67Zm0-207H552v-63.67H269.83l-45.33 63.67Z"/></svg>