<svg xmlns="http://www.w3.org/2000/svg" height="40" viewBox="0 -960 960 960" width="40"><path d="M198.5-873.33h562.84q46.6 0 79.3 32.69 32.69 32.7 32.69 79.46v111.35h-79.42v563.16H166.67v-563.16h-80v-111.35q0-46.76 32.43-79.46 32.43-32.69 79.4-32.69Zm24 723.33H738l-68.67-98H632v8.67q0 13.33-9.32 22.41-9.33 9.09-22.35 9.09-12.52 0-22.09-9.09-9.57-9.08-9.57-22.41V-248h-277.5l-68.67 98ZM632-551.83h106l-68.67-98H632v98Zm0 201.33h106l-68.67-98H632v98Zm-409.5 0h346.17v-98h-277.5l-68.67 98Zm0-201.33h346.17v-98h-277.5l-68.67 98Z"/></svg>