<svg xmlns="http://www.w3.org/2000/svg" height="24" viewBox="0 -960 960 960" width="24"><path d="M207.69-860h544.62q44.61 0 76.15 31.54Q860-796.92 860-752.13v107.51h-80V-100H179.62v-544.62H100v-107.69q0-44.87 31.41-76.28Q162.82-860 207.69-860Zm22 700h500.23l-59.07-95.77h-46.62v21.15q0 12.75-8.63 21.38-8.62 8.62-21.37 8.62-12.38 0-21.19-8.62-8.81-8.63-8.81-21.38v-21.15H288.77L229.69-160Zm394.54-388.85h105.69l-59.07-95.77h-46.62v95.77ZM207.69-800q-20.27 0-33.98 13.71Q160-772.58 160-752.31v47.7h640v-47.56q0-20.21-13.71-34.02Q772.58-800 752.31-800H207.69ZM160-704.61h640-640Zm464.23 350h105.69l-59.07-95.78h-46.62v95.78Zm-394.54 0h334.54v-95.78H288.77l-59.08 95.78Zm0-194.24h334.54v-95.77H288.77l-59.08 95.77Z"/></svg>