<svg xmlns="http://www.w3.org/2000/svg" height="48" viewBox="0 -960 960 960" width="48"><path d="M186.7-899.39h587.6q52.45 0 88.77 36.38 36.32 36.38 36.32 88.86v125.93H819.5v587.05H142.17v-587.05h-81v-125.99q0-52.26 36.07-88.72 36.08-36.46 89.46-36.46Zm28.43 755.04h531.3l-60.08-85.13h-44.92v-.69q-4.26 11.49-13.64 17.85-9.39 6.36-22.15 6.36-12 0-21.97-6.36-9.97-6.36-14.24-17.85v.69H275.22l-60.09 85.13Zm432.39-419.74h98.91l-60-84.13h-38.91v84.13Zm0 210.87h98.91l-60-85.13h-38.91v85.13Zm-432.39 0h348.65v-85.13H275.22l-60.09 85.13Zm0-210.87h348.65v-84.13H275.22l-60.09 84.13Z"/></svg>