<svg xmlns="http://www.w3.org/2000/svg" height="40" viewBox="0 -960 960 960" width="40"><path d="M203.79-861.33h553.42q42.87 0 73.5 30.65 30.62 30.65 30.62 73.91v103.85h-79.98v554.25h-603.3v-554.25H98.67V-756.8q0-43.29 30.41-73.91 30.41-30.62 74.71-30.62Zm31.34 711.48h489.64l-60-108.48h-46.41v6.56q-2.67 8.19-8.88 13.06-6.21 4.86-15.39 4.86-8.47 0-15.69-4.86-7.22-4.87-9.89-13.06v-6.56H294.62l-59.49 108.48ZM619.36-545.1h105.41l-60-107.82h-45.41v107.82ZM203.79-810.15q-22.32 0-38.13 15.24-15.81 15.25-15.81 37.78v53.03h660.3v-52.33q0-22.46-15.45-38.09-15.46-15.63-37.49-15.63H203.79ZM149.85-704.1h660.3-660.3Zm469.51 356.56h105.41l-60-107.97h-45.41v107.97Zm-384.23 0h333.05v-107.97H294.62l-59.49 107.97Zm0-197.56h333.05v-107.82H294.62L235.13-545.1Z"/></svg>