<svg xmlns="http://www.w3.org/2000/svg" height="20" viewBox="0 -960 960 960" width="20"><path d="M217.38-856h526.24q46.31 0 79.34 33.04Q856-789.93 856-743.25v88.02h-96V-104H199.23v-551.23H104v-88.33q0-46.8 33.07-79.62Q170.14-856 217.38-856Zm44 694h436.47l-48.16-86.54h-41.23v-17.69q-6 5.5-11.47 8.25-5.46 2.75-13.55 2.75-7.77 0-14.88-2.75-7.1-2.75-13.1-8.25v17.69H309.54L261.38-162Zm350.08-407.69h86.39l-48.16-86.54-38.23 1v85.54ZM217.38-798q-22.93 0-39.16 15.64Q162-766.73 162-743.62v30.39h636v-29.99q0-22.95-15.64-38.86Q766.73-798 743.62-798H217.38ZM162-713.23h636-636Zm449.46 348h86.39l-48.16-86.54h-38.23v86.54Zm-350.08 0h292.08v-86.54H309.54l-48.16 86.54Zm0-203.46h292.08v-86.54H309.54l-48.16 86.54Z"/></svg>