<svg xmlns="http://www.w3.org/2000/svg" height="24" viewBox="0 -960 960 960" width="24"><path d="M479.75-453.67q60.92 0 103.63-42.46 42.71-42.46 42.71-103.63 0-61.17-42.7-103.63Q540.7-745.85 480-745.85q-61.17 0-103.63 42.46-42.46 42.46-42.46 103.63 0 61.17 42.46 103.63 42.46 42.46 103.38 42.46Zm.31-89.7q-23.23 0-39.84-16.49-16.61-16.49-16.61-39.64 0-23.15 16.55-39.9 16.54-16.75 39.78-16.75 23.23 0 39.84 16.6 16.61 16.61 16.61 39.93t-16.55 39.78q-16.54 16.47-39.78 16.47Zm-.05 217.24q17.19 0 29.88-12.08 12.7-12.08 12.7-29.94 0-17.42-12.7-29.72-12.69-12.3-30.13-12.3-17.44 0-29.33 12.3-11.89 12.3-11.89 29.97 0 17.67 11.92 29.72 11.93 12.05 29.55 12.05ZM650.26-45.35H309.74v-89.69h50.37q27.52 0 43.82-15.99 16.31-15.99 23.42-39.51H291.78q-42.24 0-71.62-29.38-29.38-29.38-29.38-71.62v-496.68q0-42.24 29.38-71.62 29.38-29.38 71.62-29.38h376.44q42.24 0 71.62 29.38 29.38 29.38 29.38 71.62v496.68q0 42.24-29.38 71.62-29.38 29.38-71.62 29.38H532.15q7.68 23.52 23.7 39.51 16.02 15.99 43.54 15.99h50.87v89.69Z"/></svg>