<svg xmlns="http://www.w3.org/2000/svg" height="24" viewBox="0 -960 960 960" width="24"><path d="M480-473q49.5 0 83.75-33.38T598-590q0-49.5-34.12-84.25T480-709q-49.5 0-83.75 34.75T362-589.75q0 49.75 34.25 83.25T480-473Zm.06-25.5q-38.06 0-65.31-26.44t-27.25-65q0-38.77 27.19-65.66 27.19-26.9 65.25-26.9t65.31 26.83q27.25 26.84 27.25 65.61 0 38.56-27.19 65.06t-65.25 26.5Zm-.06 153q9.5 0 17.25-7.03t7.75-17.72q0-9.25-7.75-17t-17.5-7.75q-10.75 0-17.5 7.86T455.5-370q0 10.28 6.78 17.39 6.78 7.11 17.72 7.11ZM619.5-137h-280v-25.5H375q32 0 57-21t33-53.5H314.5q-24.44 0-40.97-16.27Q257-269.53 257-294.5v-471q0-24.44 16.53-40.97Q290.06-823 314.42-823h331.16q24.36 0 40.89 16.53T703-765.5v471q0 24.97-16.53 41.23Q669.94-237 645.5-237H495q7.5 32.5 32 53.5t57.87 21h34.63v25.5Z"/></svg>