<svg xmlns="http://www.w3.org/2000/svg" height="48" viewBox="0 -960 960 960" width="48"><path d="M480-472.23q53.05 0 90.56-36.25 37.52-36.24 37.52-88.67 0-53.85-37.31-91.66-37.31-37.81-91.15-37.81-52.44 0-89.18 37.81-36.75 37.81-36.75 91.66 0 52.84 36.66 88.88Q427-472.23 480-472.23Zm-.07-38.77q-35.27 0-61.37-25.65-26.1-25.64-26.1-60.89 0-37.11 26.1-63.32 26.1-26.22 61.87-26.22 35.78 0 61.83 26.3 26.05 26.31 26.05 63.54 0 35.47-26.2 60.86Q515.92-511 479.93-511Zm-.81 174.15q12.22 0 20.86-7.77 8.64-7.77 8.64-20.35 0-11.6-8.65-20.35-8.65-8.76-20.46-8.76-12.37 0-20.25 8.76-7.88 8.75-7.88 19.97 0 12.98 7.88 20.74 7.88 7.76 19.86 7.76ZM640.31-81H319.15v-43.77h43.93q38.04 0 65.09-25.46 27.06-25.46 33.52-64.62H292.38q-27.78 0-48.08-19.98-20.3-19.98-20.3-48.4v-504.39q0-27.78 20.3-48.08 20.3-20.3 48.08-20.3h375.24q27.78 0 48.08 20.3 20.3 20.3 20.3 48.08v504.39q0 28.42-20.3 48.4-20.3 19.98-48.08 19.98H498.31q6.46 39.16 32.86 64.62 26.41 25.46 66.51 25.46h42.63V-81Z"/></svg>