<svg xmlns="http://www.w3.org/2000/svg" height="40" viewBox="0 -960 960 960" width="40"><path d="M284.94-265.88h390.12q5.39 0 8.85-3.47 3.46-3.46 3.46-8.84v-516.87q0-5.39-3.46-8.85t-8.85-3.46H284.94q-5.39 0-8.85 3.46t-3.46 8.85v516.87q0 5.38 3.46 8.84 3.46 3.47 8.85 3.47Zm194.91-192.43q58.42 0 99.21-40.33 40.79-40.32 40.79-98.33 0-58.22-40.73-99.5-40.73-41.27-98.91-41.27-58.38 0-99.09 41.27-40.71 41.28-40.71 99.43 0 58.14 40.7 98.44 40.7 40.29 98.74 40.29Zm.14-47.88q-37.91 0-64.8-26.43-26.9-26.42-26.9-64.28 0-38.38 26.75-65.48 26.74-27.09 64.65-27.09 37.91 0 65.09 26.98 27.18 26.97 27.18 65.28 0 38.22-27.03 64.62-27.03 26.4-64.94 26.4Zm.22 171.59q11.75 0 20.18-8.11 8.43-8.1 8.43-20.45 0-11.29-8.52-19.92-8.51-8.64-20.38-8.64-12.02 0-20.12 8.7-8.09 8.71-8.09 20.15 0 12.21 8.15 20.24 8.15 8.03 20.35 8.03Zm153.88 229.86H325.94v-47.89h38.68q30.54 0 54.33-18.51 23.8-18.51 32.87-46.86H284.94q-24.61 0-42.4-17.69-17.8-17.69-17.8-42.5v-516.87q0-24.61 17.8-42.4 17.79-17.8 42.37-17.8h390.18q24.58 0 42.37 17.8 17.8 17.79 17.8 42.4v516.87q0 24.81-17.8 42.5Q699.67-218 675.06-218H508.2q8.94 28.32 32.6 46.85 23.67 18.52 54.81 18.52h38.48v47.89ZM480-597.1Z"/></svg>