<svg xmlns="http://www.w3.org/2000/svg" height="20" viewBox="0 -960 960 960" width="20"><path d="M480-477q55 0 92.5-37.21Q610-551.41 610-606q0-55-37.5-92.5T480-736q-55 0-92.5 37.5T350-606q0 55 37.5 92t92.5 37Zm-.21-104q-9.87 0-17.33-8.07-7.46-8.07-7.46-17.29 0-9.63 7.67-17.63 7.68-8.01 17.54-8.01 9.87 0 17.33 8.08 7.46 8.07 7.46 18 0 9.92-7.67 17.42-7.68 7.5-17.54 7.5Zm.02 258q20.59 0 34.39-12.89t13.8-33.4q0-20.51-13.59-34.11-13.59-13.6-33.68-13.6t-33.41 13.45Q434-390.1 434-370.21q0 21.01 13.17 34.11 13.17 13.1 32.64 13.1ZM659 13H301V-95h60.3q32.7 0 46.2-20.5T423-164H298q-57.12 0-92.56-36.14Q170-236.27 170-291.77v-490.46q0-56.9 35.44-92.33Q240.88-910 298-910h364q57.13 0 92.56 35.44Q790-839.13 790-782.23v490.46q0 55.5-35.44 91.63Q719.13-164 662-164H537q2 28 15.5 48.5T597.44-95H659V13Z"/></svg>