<svg xmlns="http://www.w3.org/2000/svg" height="40" viewBox="0 -960 960 960" width="40"><path d="M480-474q49.66 0 84.5-33.64 34.83-33.63 34.83-83.69 0-49.5-34.7-85.09Q529.92-712 479.67-712q-49.33 0-83.83 35.58-34.51 35.59-34.51 85.5 0 49.25 34.43 83.09Q430.18-474 480-474Zm-.14-23.17q-39.53 0-67.44-27.14-27.92-27.15-27.92-67.16 0-40.6 27.85-68.48 27.86-27.88 67.39-27.88t67.98 27.89q28.45 27.89 28.45 68.6 0 39.84-28.39 67.01-28.38 27.16-67.92 27.16Zm-.19 152q9.83 0 17.08-6.54 7.25-6.54 7.25-17.04 0-9.08-7.26-16.33-7.26-7.25-16.82-7.25-10.59 0-16.84 7.38-6.25 7.39-6.25 15.95 0 10.61 6.31 17.22 6.31 6.61 16.53 6.61Zm142.83 211.5h-286v-23.16h36.83q33.66 0 59.69-22.15T467-235.33H308.83q-22.97 0-39.07-15.83-16.09-15.83-16.09-39.34v-480.67q0-22.97 16.09-39.07 16.1-16.09 39-16.09h342.48q22.9 0 39 16.09 16.09 16.1 16.09 39.07v480.67q0 23.51-16.09 39.34-16.1 15.83-39.07 15.83H493.33q7.5 34.16 33.22 56.33 25.71 22.17 60.98 22.17h34.97v23.16Z"/></svg>