<svg xmlns="http://www.w3.org/2000/svg" height="20" viewBox="0 -960 960 960" width="20"><path d="M479.75-469.67q54.92 0 92.63-37.46 37.71-37.46 37.71-92.63 0-55.17-37.7-92.63-37.69-37.46-92.39-37.46-55.17 0-92.63 37.46-37.46 37.46-37.46 92.63 0 55.17 37.46 92.63 37.46 37.46 92.38 37.46Zm.1-81.7q-20.02 0-34.13-14.2-14.11-14.2-14.11-34.14t14.26-34.19q14.26-14.25 34.28-14.25 20.02 0 34.13 14.32 14.11 14.31 14.11 34.42t-14.26 34.07q-14.26 13.97-34.28 13.97Zm-.05 221.24q15.4 0 27.09-10.87 11.7-10.87 11.7-26.94 0-15.63-11.49-26.93-11.48-11.3-27.13-11.3-15.65 0-26.54 11.09-10.89 11.08-10.89 26.97 0 15.88 10.71 26.93 10.72 11.05 26.55 11.05ZM634.26-61.35H325.74v-81.69h45.92q24.97 0 40.27-14.49 15.31-14.49 20.42-37.01H299.78q-42.24 0-67.62-25.38-25.38-25.38-25.38-67.4v-493.12q0-42.02 25.38-67.4 25.38-25.38 67.62-25.38h360.44q42.24 0 67.62 25.38 25.38 25.38 25.38 67.4v493.12q0 42.02-25.38 67.4-25.38 25.38-67.62 25.38H527.15q5.68 22.52 20.7 37.01 15.02 14.49 39.99 14.49h46.42v81.69Z"/></svg>