<svg xmlns="http://www.w3.org/2000/svg" height="40" viewBox="0 -960 960 960" width="40"><path d="M479.97-449.67q64.33 0 109.16-44.72t44.83-108.38q0-64.32-44.83-109.49-44.83-45.16-109.16-45.16-63.65 0-108.71 45.16-45.06 45.17-45.06 109.49 0 63.66 45.06 108.38t108.71 44.72Zm.04-71.76q-33.7 0-57.87-23.8-24.17-23.8-24.17-57.47 0-34.34 24.16-58.56 24.15-24.23 57.86-24.23 33.7 0 57.87 24.18 24.17 24.18 24.17 58.58 0 33.74-24.16 57.52-24.15 23.78-57.86 23.78ZM480-325.15q15.05 0 25.11-9.89 10.06-9.89 10.06-24.95 0-14.4-10.06-24.71-10.06-10.3-25.03-10.3-14.3 0-24.53 10.29-10.24 10.29-10.24 24.64 0 15.14 10.23 25.03 10.22 9.89 24.46 9.89ZM650.01-64.3H310.66v-71.76h44.88q30.45 0 51.72-17.23 21.28-17.22 30.49-42.81H269.06q-31 0-53.38-22.38-22.38-22.38-22.38-53.37v-539.09q0-31.06 22.38-53.49 22.38-22.43 53.38-22.43h421.88q31.06 0 53.49 22.43 22.43 22.43 22.43 53.49v539.09q0 30.99-22.43 53.37t-53.49 22.38H522.41q9.25 25.55 30.43 42.79 21.17 17.25 51.77 17.25h45.4v71.76Z"/></svg>