<svg xmlns="http://www.w3.org/2000/svg" height="24" viewBox="0 -960 960 960" width="24"><path d="M479.94-466.19q52.79 0 89.58-36.06 36.79-36.07 36.79-89.48 0-52.85-36.69-89.96-36.68-37.12-89.62-37.12-52.85 0-89.58 37.12-36.73 37.11-36.73 90.15 0 53.04 36.73 89.19 36.73 36.16 89.52 36.16Zm.12-36.93q-36.79 0-63.12-25.68-26.32-25.69-26.32-62.87 0-37.33 26.26-63.39 26.27-26.06 63.06-26.06 36.79 0 63.12 26 26.32 25.99 26.32 63.33 0 37.17-26.26 62.92-26.27 25.75-63.06 25.75ZM480-340.77q10.88 0 19.38-7.9 8.5-7.89 8.5-19.79 0-10.69-8.5-19.19-8.5-8.5-19.63-8.5-11.9 0-19.58 8.58-7.67 8.58-7.67 19.36 0 11.54 7.7 19.49 7.71 7.95 19.8 7.95Zm143.08 214.62H336.15v-36.93h36.2q29.92 0 53.3-18.86 23.39-18.87 31.97-48.25H307.69q-25.94 0-43.74-17.6-17.8-17.59-17.8-43.94v-480.58q0-25.94 17.8-43.74t43.68-17.8h344.74q25.88 0 43.68 17.8t17.8 43.74v480.58q0 26.35-17.8 43.94-17.8 17.6-43.74 17.6H502.27q8.19 29.38 31.19 48.25 23 18.86 53.97 18.86h35.65v36.93Z"/></svg>