<svg xmlns="http://www.w3.org/2000/svg" height="40" viewBox="0 -960 960 960" width="40"><path d="M480-446q65.33 0 111-45.67 45.67-45.66 45.67-110.33 0-65.33-45.67-111.33t-111-46q-64.67 0-110.67 46t-46 111.33q0 64.67 46 110.33Q415.33-446 480-446Zm0-66.67q-37 0-63.5-26.16Q390-565 390-602q0-37.67 26.5-64.17t63.5-26.5q37 0 63.5 26.5T570-602q0 37-26.5 63.17-26.5 26.16-63.5 26.16Zm0 188q14.33 0 23.83-9.5 9.5-9.5 9.5-23.83 0-13.67-9.5-23.5T480-391.33q-13.67 0-23.5 9.83t-9.83 23.5q0 14.33 9.83 23.83 9.83 9.5 23.5 9.5ZM644.67-80H316v-66.67h40.67q29 0 50.83-15.66Q429.33-178 439.67-202h-173q-27 0-46.84-19.83Q200-241.67 200-268.67v-544.66q0-27 19.83-46.84Q239.67-880 266.67-880h426.66q27 0 46.84 19.83Q760-840.33 760-813.33v544.66q0 27-19.83 46.84Q720.33-202 693.33-202h-173q10.34 24 32.17 39.67 21.83 15.66 50.83 15.66h41.34V-80Z"/></svg>