<svg xmlns="http://www.w3.org/2000/svg" height="40" viewBox="0 -960 960 960" width="40"><path d="M479.89-461.33q61.11 0 103.28-41.72 42.16-41.73 42.16-102.17 0-61.11-42.16-103.61-42.17-42.5-103.28-42.5-60.45 0-102.5 42.5-42.06 42.5-42.06 103.61 0 60.44 42.06 102.17 42.05 41.72 102.5 41.72Zm.17-88q-23.23 0-39.98-16.26-16.75-16.25-16.75-39.33 0-23.75 16.69-40.75 16.7-17 39.92-17 23.23 0 39.98 16.8 16.75 16.79 16.75 40.83 0 23.37-16.69 39.54-16.7 16.17-39.92 16.17Zm-.04 222.66q17.31 0 29.15-11.13Q521-348.93 521-366.33q0-16.74-11.83-28.54-11.84-11.8-28.82-11.8-16.31 0-27.83 11.75T441-366.67q0 17.74 11.47 28.87 11.47 11.13 27.55 11.13ZM667-14.33H293.67v-88h58.28q35.05 0 54.55-22.17t25.17-52.83h-155q-43.7 0-74.19-30.49Q172-238.3 172-282v-521.33q0-43.98 30.48-74.66 30.49-30.68 74.19-30.68h406.66q43.98 0 74.66 30.68t30.68 74.66V-282q0 43.7-30.68 74.18-30.68 30.49-74.66 30.49H529q5.81 30.5 24.91 52.75 19.09 22.25 54.76 22.25H667v88Z"/></svg>