<svg xmlns="http://www.w3.org/2000/svg" height="20" viewBox="0 -960 960 960" width="20"><path d="M201.85-87.87q-47.49 0-80.74-33.24-33.24-33.25-33.24-80.74v-210.67q0-32.96 17.96-58.99 17.95-26.03 48.87-37.51l174.8-62.68H87.87v-300.43h671.28q46.49 0 78.74 32.24 32.24 32.25 34.24 78.74v220.67q-1 34.93-21.04 64.01-20.04 29.07-53.79 40.73l-131.17 47.67h206v300.2H201.85Zm0-80.37h589.91V-307.7H201.85q-8.39 0-16.86-1.5-8.47-1.5-16.75-4.97v112.32q0 13.99 9.81 23.8t23.8 9.81Zm589.91-476.83v-113.08q0-13.99-9.81-23.8t-23.8-9.81H168.24v139.69h589.91q8.39 0 17.36 1.27 8.97 1.26 16.25 5.73Zm-589.91 259.4h222.2l346.38-125.2q10.29-3.52 16.31-11.44t6.02-18.17q0-13.98-9.81-23.79-9.81-9.82-23.8-9.82H570.67l-386.1 139.96q-7.29 2.76-11.45 7.17-4.16 4.41-4.16 11.68 0 12.8 10.06 21.2 10.07 8.41 22.83 8.41Zm67.48-319.24q-7-7-7-17t7-17q7-7 17-7t17 7q7 7 7 17t-7 17q-7 7-17 7t-17-7Zm0 483.82q-7-7-7-17t7-17q7-7 17-7t17 7q7 7 7 17t-7 17q-7 7-17 7t-17-7Zm48.47-193.43q-7-7-7-17t7-17q7-7 17-7t17 7q7 7 7 17t-7 17q-7 7-17 7t-17-7ZM463-704.91q-7-7-7-17t7-17q7-7 17-7t17 7q7 7 7 17t-7 17q-7 7-17 7t-17-7ZM463-463q-7-7-7-17t7-17q7-7 17-7t17 7q7 7 7 17t-7 17q-7 7-17 7t-17-7Zm0 241.91q-7-7-7-17t7-17q7-7 17-7t17 7q7 7 7 17t-7 17q-7 7-17 7t-17-7Zm145.2-290.39q-7-7-7-17t7-17q7-7 17-7t17 7q7 7 7 17t-7 17q-7 7-17 7t-17-7Zm48.47-193.43q-7-7-7-17t7-17q7-7 17-7t17 7q7 7 7 17t-7 17q-7 7-17 7t-17-7Zm0 483.82q-7-7-7-17t7-17q7-7 17-7t17 7q7 7 7 17t-7 17q-7 7-17 7t-17-7Z"/></svg>