<svg xmlns="http://www.w3.org/2000/svg" height="48" viewBox="0 -960 960 960" width="48"><path d="M183.72-62.8q-49.69 0-85.3-35.55-35.62-35.54-35.62-86.37v-97.08q13.24 14.23 31.74 21.73 18.49 7.5 37.22 7.5h765.67V-62.8H183.72Zm713.71-617.68q-17.71-12.48-39.25-19.1-21.54-6.62-43.57-6.62H62.8v-191.23h711.72q51.27 0 87.09 35.79t35.82 86.36v94.8ZM130.72-324.85q-29.2 0-48.56-18.42-19.36-18.42-19.36-48.06v-6.69q0-37.2 22.08-62.08 22.08-24.88 49.36-36.16l357.11-138.65h323.98q35.48 0 58.79 23 23.31 23 23.31 60.24v14.06q0 51.96-33.43 82.68-33.44 30.72-84.76 48.67l-222.91 81.41H130.72Zm140.71-462.97q6.05-5.38 6.05-13.95t-6.05-14.62q-6.05-6.04-14-6.04t-13.95 6.04q-6 6.05-6 14.62t6 13.95q6 5.39 13.95 5.39 7.95 0 14-5.39Zm1.05 644.25q6-6 6-14t-6-14q-6-6-14-6t-14 6q-6 6-6 14t6 14q6 6 14 6t14-6Zm40.28-244.35q6.04-5.38 6.04-13.96 0-8.57-6.04-14.62-6.05-6.04-14.12-6.04t-13.96 6.04q-5.88 6.05-5.88 14.62 0 8.58 5.88 13.96 5.89 5.38 13.96 5.38t14.12-5.38Zm181.16-399.9q6.32-5.38 6.32-13.8 0-8.42-6.32-14.62-6.32-6.19-14.5-6.19t-13.68 6.19q-5.5 6.2-5.5 14.62 0 8.42 5.5 13.8 5.5 5.39 13.68 5.39t14.5-5.39ZM496.03-456q6.12-6 6.12-14t-6.12-14q-6.12-6-14.62-6t-13.88 6q-5.38 6-5.38 14t5.38 14q5.38 6 13.88 6t14.62-6Zm-1.91 312.43q6.12-6 6.12-14.04 0-8.05-6.12-14-6.12-5.96-14.55-5.96t-13.88 5.96q-5.45 5.95-5.45 14 0 8.04 5.45 14.04t13.88 6q8.43 0 14.55-6ZM665.3-517.4q6.05-5.54 6.05-14.11 0-8.58-6.05-14.46-6.05-5.88-14.12-5.88t-13.95 5.88q-5.88 5.88-5.88 14.46 0 8.57 5.88 14.11 5.88 5.55 13.95 5.55t14.12-5.55Zm50.14-270.42q6.08-5.38 6.08-13.75 0-8.37-6.08-14.62-6.07-6.24-14.45-6.24-8.37 0-13.92 6.24-5.55 6.25-5.55 14.62t5.55 13.75q5.55 5.39 13.92 5.39 8.38 0 14.45-5.39Zm.2 644.25q5.88-6 5.88-13.95 0-7.95-5.88-14t-14.45-6.05q-8.57 0-14.12 6.05-5.55 6.05-5.55 14t5.55 13.95q5.55 6 14.12 6t14.45-6Z"/></svg>