<svg xmlns="http://www.w3.org/2000/svg" height="40" viewBox="0 -960 960 960" width="40"><path d="M214.37-122.82q-38.64 0-65.09-26.46-26.46-26.47-26.46-65.32v-114.77q12.95 12.88 30.1 19.62 17.16 6.74 35.36 6.74h648.13v180.19H214.37Zm622.04-506.56q-15.53-14.48-36.11-20.72-20.58-6.25-41.34-6.25H123.04v-180.83h621.22q37.86 0 65.01 26.62 27.14 26.63 27.14 64.88v116.3ZM187.06-335.67q-26.79 0-45.52-17.42-18.72-17.42-18.72-44.6 0-29.09 15.17-47.84 15.16-18.75 38.15-28.14l385.72-150.24h197.26q36.23 0 56.76 23.56 20.53 23.57 20.53 52.16v1.41q0 41.22-17.55 66.17-17.55 24.96-55.98 38.82L472.32-335.67H187.06Zm108.36-394.86q6.89-6.79 6.89-15.89 0-9.09-6.8-16.34-6.79-7.25-16.25-7.25-9.45 0-16.34 7.15-6.89 7.15-6.89 16.25t6.79 15.99q6.79 6.89 16.25 6.89t16.35-6.8Zm1.69 534.2q6.89-6.55 6.89-15.8t-6.79-16.59q-6.8-7.34-16.25-7.34-9.46 0-16.35 7.25-6.89 7.26-6.89 16.51 0 9.25 6.79 15.88 6.8 6.64 16.25 6.64 9.46 0 16.35-6.55Zm37.99-197.4q6.98-6.55 6.98-16.16t-6.9-16.59q-6.89-6.98-16.51-6.98-9.61 0-16.24 6.89-6.64 6.9-6.64 16.51 0 9.61 6.55 16.25 6.55 6.63 16.16 6.63 9.62 0 16.6-6.55Zm161.15-336.8q7.25-6.79 7.25-15.89 0-9.09-7.15-16.34-7.16-7.25-16.25-7.25-9.1 0-15.99 7.15-6.89 7.15-6.89 16.25t6.79 15.99q6.8 6.89 15.89 6.89 9.1 0 16.35-6.8Zm0 274.56q7.25-6.8 7.25-16.25 0-9.46-7.15-16.35-7.16-6.89-16.25-6.89-9.1 0-15.99 6.79-6.89 6.8-6.89 16.25 0 9.46 6.79 16.35 6.8 6.89 15.89 6.89 9.1 0 16.35-6.79Zm0 259.64q7.25-6.55 7.25-15.8t-7.15-16.59q-7.16-7.34-16.25-7.34-9.1 0-15.99 7.25-6.89 7.26-6.89 16.51 0 9.25 6.79 15.88 6.8 6.64 15.89 6.64 9.1 0 16.35-6.55Zm150.91-317.42q6.89-6.55 6.89-16.17 0-9.61-6.79-16.59-6.8-6.98-16.25-6.98-9.46 0-16.35 6.9-6.89 6.89-6.89 16.5 0 9.62 6.79 16.25 6.8 6.63 16.25 6.63 9.46 0 16.35-6.54Zm47.46-216.78q6.89-6.79 6.89-15.89 0-9.09-6.79-16.34-6.8-7.25-16.25-7.25-9.46 0-16.35 7.15-6.89 7.15-6.89 16.25t6.8 15.99q6.79 6.89 16.25 6.89 9.45 0 16.34-6.8Zm0 534.2q6.89-6.55 6.89-15.8t-6.79-16.59q-6.8-7.34-16.25-7.34-9.46 0-16.35 7.25-6.89 7.26-6.89 16.51 0 9.25 6.8 15.88 6.79 6.64 16.25 6.64 9.45 0 16.34-6.55Z"/></svg>