<svg xmlns="http://www.w3.org/2000/svg" height="40" viewBox="0 -960 960 960" width="40"><path d="M190.17-58.67q-55.55 0-93.52-38.59-37.98-38.6-37.98-93.74v-206.59q0-36.44 21.83-65.26 21.83-28.82 57-41.98L370-594.5H58.5V-902h709.83q55.42 0 94.55 38.65Q902-824.71 902-769.5v230.83q0 42.74-23.8 77.03-23.79 34.29-62.7 48.64l-130.67 48H902v306.33H190.17Zm0-92.33h618.66v-121.67H189.97q-10.9 0-20.51-2.75-9.62-2.75-18.63-9.25v93.51q0 16.81 11.51 28.49Q173.85-151 190.17-151Zm618.66-525.67v-92.75q0-16.73-11.81-28.16Q785.2-809 768.33-809h-617.5v122.17h617.72q10.22 0 20.58 1.83 10.37 1.83 19.7 8.33ZM190.17-356.33h199L782.83-500.5q11.84-4.33 19-14.24 7.17-9.91 7.17-22.93V-563q0-16.32-12.01-27.91t-28.66-11.59h-122L169.67-417.94q-6.84 2.61-11.59 8.55-4.75 5.94-4.75 13.78v2.5q0 15.55 10.7 26.17 10.7 10.61 26.14 10.61Zm56.75-375.98q-5.92-6.31-5.92-15.41 0-9.11 5.97-15.36 5.98-6.25 15.42-6.25t15.69 6.3q6.25 6.31 6.25 15.42t-6.31 15.36q-6.3 6.25-15.74 6.25-9.45 0-15.36-6.31Zm.66 534.84q-5.91-6.31-5.91-15.25 0-8.95 5.97-15.36 5.98-6.42 15.42-6.42t15.69 6.48q6.25 6.47 6.25 15.41 0 8.94-6.31 15.19t-15.75 6.25q-9.44 0-15.36-6.3Zm41.8-196.34q-6.38-5.97-6.38-15.12 0-9.14 6.44-15.69 6.44-6.55 15.75-6.55 9.31 0 15.23 6.61 5.91 6.61 5.91 15.75t-5.97 15.06q-5.98 5.92-15.29 5.92-9.31 0-15.69-5.98Zm175.37-339.67q-6.25-6.3-6.25-15.24 0-8.95 6.31-15.36 6.31-6.42 15.25-6.42 8.94 0 15.36 6.47 6.41 6.48 6.41 15.42t-6.47 15.19q-6.48 6.25-15.42 6.25t-15.19-6.31Zm0 278.51q-6.25-6.31-6.25-15.42t6.31-15.36q6.31-6.25 15.25-6.25 8.94 0 15.36 6.31 6.41 6.31 6.41 15.41 0 9.11-6.47 15.36-6.48 6.25-15.42 6.25t-15.19-6.3Zm0 257.5q-6.25-6.31-6.25-15.25 0-8.95 6.31-15.36 6.31-6.42 15.25-6.42 8.94 0 15.36 6.48 6.41 6.47 6.41 15.41 0 8.94-6.47 15.19-6.48 6.25-15.42 6.25t-15.19-6.3Zm164.17-319.84q-5.92-5.97-5.92-15.28 0-9.31 5.97-15.69 5.98-6.39 15.29-6.39 9.31 0 15.69 6.44 6.38 6.44 6.38 15.75 0 9.31-6.44 15.23t-15.75 5.92q-9.31 0-15.22-5.98Zm52.33-216.17q-6.25-6.3-6.25-15.24 0-8.95 6.31-15.36 6.31-6.42 15.75-6.42 9.44 0 15.36 6.47 5.91 6.48 5.91 15.42t-5.97 15.19q-5.98 6.25-15.42 6.25t-15.69-6.31Zm0 536.01q-6.25-6.31-6.25-15.25 0-8.95 6.31-15.36 6.31-6.42 15.75-6.42 9.44 0 15.36 6.48 5.91 6.47 5.91 15.41 0 8.94-5.97 15.19-5.98 6.25-15.42 6.25t-15.69-6.3Z"/></svg>