<svg xmlns="http://www.w3.org/2000/svg" height="20" viewBox="0 -960 960 960" width="20"><path d="M224-148q-31.67 0-53.83-21.95Q148-191.91 148-223v-108q11 11 26 17t30 6h607v160H224Zm587-477q-13-14-30.5-19.5T745-650H148v-162h588q31.67 0 53.33 22.17Q811-767.67 811-736v111ZM213-329q-27 0-46-17t-19-46q0-36.71 17-61.36Q182-478 191-481l396-149h148q35 0 55.5 24t20.5 52q0 37-10.5 57.5T759-466L384-329H213Zm102-387.81q6-5.82 6-14 0-8.19-5.81-14.19-5.82-6-14-6-8.19 0-14.19 5.81-6 5.82-6 14 0 8.19 5.81 14.19 5.82 6 14 6 8.19 0 14.19-5.81Zm2 503q6-5.82 6-14 0-8.19-5.81-14.19-5.82-6-14-6-8.19 0-14.19 5.81-6 5.82-6 14 0 8.19 5.81 14.19 5.82 6 14 6 8.19 0 14.19-5.81Zm45-189q6-5.82 6-14 0-8.19-5.81-14.19-5.82-6-14-6-8.19 0-14.19 5.81-6 5.82-6 14 0 8.19 5.81 14.19 5.82 6 14 6 8.19 0 14.19-5.81Zm132-314q6-5.82 6-14 0-8.19-5.81-14.19-5.82-6-14-6-8.19 0-14.19 5.81-6 5.82-6 14 0 8.19 5.81 14.19 5.82 6 14 6 8.19 0 14.19-5.81Zm0 250q6-5.82 6-14 0-8.19-5.81-14.19-5.82-6-14-6-8.19 0-14.19 5.81-6 5.82-6 14 0 8.19 5.81 14.19 5.82 6 14 6 8.19 0 14.19-5.81Zm0 253q6-5.82 6-14 0-8.19-5.81-14.19-5.82-6-14-6-8.19 0-14.19 5.81-6 5.82-6 14 0 8.19 5.81 14.19 5.82 6 14 6 8.19 0 14.19-5.81Zm132-297q6-5.82 6-14 0-8.19-5.81-14.19-5.82-6-14-6-8.19 0-14.19 5.81-6 5.82-6 14 0 8.19 5.81 14.19 5.82 6 14 6 8.19 0 14.19-5.81Zm44-206q6-5.82 6-14 0-8.19-5.81-14.19-5.82-6-14-6-8.19 0-14.19 5.81-6 5.82-6 14 0 8.19 5.81 14.19 5.82 6 14 6 8.19 0 14.19-5.81Zm0 503q6-5.82 6-14 0-8.19-5.81-14.19-5.82-6-14-6-8.19 0-14.19 5.81-6 5.82-6 14 0 8.19 5.81 14.19 5.82 6 14 6 8.19 0 14.19-5.81Z"/></svg>