<svg xmlns="http://www.w3.org/2000/svg" height="40" viewBox="0 -960 960 960" width="40"><path d="M193.5-70.84q-51.59 0-87.13-35.83-35.53-35.83-35.53-87.64v-93.15q13.52 14.61 32.09 21.13 18.56 6.53 37.64 6.53h748.97v188.96H193.5Zm696.04-603.54q-18.62-14.27-41.37-19.67-22.76-5.39-45.79-5.39H70.67v-190.1H765q51.61 0 88.07 35.99 36.47 35.98 36.47 87.38v91.79ZM140.86-331.07q-29.41 0-49.72-17.36-20.3-17.37-20.3-45.96v-17.71q0-36.39 22.2-59.18 22.21-22.79 50.84-34l316.2-123.29h344.1q38.39 0 61.87 21.5 23.49 21.5 23.49 56.58v21.42q0 50.2-29.59 80.18-29.58 29.98-77.12 46.63l-195.8 71.19H140.86Zm139.61-448.07q6.33-6.12 6.33-15.18 0-9.05-6.39-15.55-6.38-6.49-15.6-6.49-9.22 0-15.28 6.55-6.07 6.55-6.07 15.61 0 9.05 6.12 15.12 6.12 6.06 15.35 6.06 9.22 0 15.54-6.12Zm.67 629.33q6.32-6.12 6.32-15.17 0-9.06-6.38-15.55t-15.6-6.49q-9.23 0-15.29 6.55-6.06 6.55-6.06 15.6 0 9.06 6.12 15.12 6.12 6.06 15.34 6.06 9.22 0 15.55-6.12Zm36.23-249.32q6.33-6.12 6.33-15.35 0-9.22-6.39-15.54-6.38-6.33-15.6-6.33-9.22 0-15.29 6.39-6.06 6.38-6.06 15.6 0 9.22 6.12 15.28 6.12 6.07 15.34 6.07 9.23 0 15.55-6.12Zm178.05-380.01q6.41-6.12 6.41-15.25 0-9.13-6.47-15.55-6.48-6.42-15.42-6.42t-15.19 6.48q-6.25 6.47-6.25 15.6 0 9.13 6.31 15.2 6.31 6.06 15.25 6.06 8.94 0 15.36-6.12Zm4.9 320.83q6.41-6.31 6.41-15.41 0-9.11-6.47-15.36-6.48-6.25-15.61-6.25-9.13 0-15.19 6.3-6.06 6.31-6.06 15.42t6.12 15.36q6.12 6.25 15.25 6.25 9.13 0 15.55-6.31Zm-4.9 308.5q6.41-6.12 6.41-15.25 0-9.13-6.47-15.54-6.48-6.42-15.42-6.42t-15.19 6.47q-6.25 6.48-6.25 15.61 0 9.13 6.31 15.19 6.31 6.06 15.25 6.06 8.94 0 15.36-6.12Zm172.13-366.24q6.32-6.38 6.32-15.6 0-9.23-6.38-15.29-6.39-6.06-15.61-6.06-9.22 0-15.28 6.12-6.06 6.12-6.06 15.34 0 9.22 6.12 15.55 6.12 6.32 15.34 6.32 9.22 0 15.55-6.38Zm42.26-263.09q6.06-6.12 6.06-15.18 0-9.05-6.12-15.55-6.12-6.49-15.34-6.49-9.22 0-15.55 6.55-6.32 6.55-6.32 15.61 0 9.05 6.38 15.12 6.38 6.06 15.6 6.06 9.23 0 15.29-6.12Zm0 629.33q6.06-6.12 6.06-15.17 0-9.06-6.12-15.55t-15.34-6.49q-9.22 0-15.55 6.55-6.32 6.55-6.32 15.6 0 9.06 6.38 15.12 6.38 6.06 15.6 6.06 9.23 0 15.29-6.12Z"/></svg>