<svg xmlns="http://www.w3.org/2000/svg" height="24" viewBox="0 -960 960 960" width="24"><path d="M197.85-71.87q-52.49 0-89.24-36.79-36.74-36.8-36.74-89.95v-117.15q10.24 4.91 21.05 6.89 10.82 1.98 23.01 1.98h772.2v235.02H197.85Zm690.28-572.37q-11.2-4.91-22.73-7.15-11.53-2.24-24.44-2.24H71.87v-234.5h690.28q52.49 0 89.24 36.74 36.74 36.75 36.74 89.24v117.91ZM116.41-389.96q-18.67 0-31.61-11.09-12.93-11.1-12.93-28.78v-9.08q0-22.07 17.25-35.98 17.25-13.91 57.58-29.44l168.39-65.47h526.34q19.85 0 33.28 12.57 13.42 12.58 13.42 32.21v9.09q0 34.34-22.7 61.42-22.69 27.08-60.13 41.31l-64.47 23.24H116.41ZM289.83-749.5q8.5-8.5 8.5-21.5t-8.5-21.5q-8.5-8.5-21.5-8.5t-21.5 8.5q-8.5 8.5-8.5 21.5t8.5 21.5q8.5 8.5 21.5 8.5t21.5-8.5Zm0 582q8.5-8.5 8.5-21.5t-8.5-21.5q-8.5-8.5-21.5-8.5t-21.5 8.5q-8.5 8.5-8.5 21.5t8.5 21.5q8.5 8.5 21.5 8.5t21.5-8.5Zm38.08-242.43q8.5-8.5 8.5-21.5t-8.5-21.5q-8.5-8.5-21.5-8.5t-21.5 8.5q-8.5 8.5-8.5 21.5t8.5 21.5q8.5 8.5 21.5 8.5t21.5-8.5ZM501.5-749.5Q510-758 510-771t-8.5-21.5Q493-801 480-801t-21.5 8.5Q450-784 450-771t8.5 21.5Q467-741 480-741t21.5-8.5Zm2.39 301q8.5-8.5 8.5-21.5t-8.5-21.5q-8.5-8.5-21.5-8.5t-21.5 8.5q-8.5 8.5-8.5 21.5t8.5 21.5q8.5 8.5 21.5 8.5t21.5-8.5Zm-2.39 281Q510-176 510-189t-8.5-21.5Q493-219 480-219t-21.5 8.5Q450-202 450-189t8.5 21.5Q467-159 480-159t21.5-8.5Zm165.98-338.85q8.5-8.5 8.5-21.5t-8.5-21.5q-8.5-8.5-21.5-8.5t-21.5 8.5q-8.5 8.5-8.5 21.5t8.5 21.5q8.5 8.5 21.5 8.5t21.5-8.5Zm45.69-243.15q8.5-8.5 8.5-21.5t-8.5-21.5q-8.5-8.5-21.5-8.5t-21.5 8.5q-8.5 8.5-8.5 21.5t8.5 21.5q8.5 8.5 21.5 8.5t21.5-8.5Zm0 582q8.5-8.5 8.5-21.5t-8.5-21.5q-8.5-8.5-21.5-8.5t-21.5 8.5q-8.5 8.5-8.5 21.5t8.5 21.5q8.5 8.5 21.5 8.5t21.5-8.5Z"/></svg>