<svg xmlns="http://www.w3.org/2000/svg" height="48" viewBox="0 -960 960 960" width="48"><path d="M192.33-79.02q-47.64 0-80.48-33.15-32.83-33.14-32.83-81.16v-102.3q14.5 13.93 32.83 21.04 18.32 7.11 37.54 7.11h731.83v188.46H192.33Zm688.89-586.85q-18.96-13.43-41.54-19.67-22.58-6.24-45.46-6.24H79.02v-189.44h686.65q47.73 0 81.64 33.27 33.91 33.26 33.91 80.78v101.3ZM148.87-328.09q-29.94 0-49.89-18.41-19.96-18.42-19.96-47.74v-6.69q0-34.4 20.03-56.94 20.04-22.54 46.84-33.06L506.8-631.41h288.9q38.38 0 61.95 22.58 23.57 22.59 23.57 58.5v9.44q0 51.65-32.19 81.63-32.18 29.98-81.18 47.17l-230.48 84h-388.5Zm128.39-445.22q5.54-5.44 5.54-12.95 0-7.52-5.6-13.31-5.61-5.8-13.37-5.8-7.76 0-13.15 5.86-5.38 5.85-5.38 13.37 0 7.51 5.44 12.89 5.44 5.38 13.21 5.38 7.76 0 13.31-5.44Zm1 613.5q5.54-5.44 5.54-12.95 0-7.51-5.6-13.31-5.61-5.8-13.37-5.8-7.76 0-13.15 5.86-5.38 5.85-5.38 13.37 0 7.51 5.44 12.89 5.44 5.38 13.21 5.38 7.76 0 13.31-5.44Zm39.06-233.82q5.55-5.44 5.55-13.21 0-7.76-5.61-13.31-5.6-5.55-13.37-5.55-7.76 0-13.14 5.61-5.38 5.61-5.38 13.37 0 7.76 5.44 13.14 5.44 5.38 13.2 5.38 7.76 0 13.31-5.43Zm175.93-379.68q5.75-5.44 5.75-13t-5.81-13.31q-5.81-5.75-13.25-5.75T467-799.56q-5.5 5.81-5.5 13.37t5.56 12.94q5.56 5.38 13 5.38t13.19-5.44Zm1.91 313.75q5.75-5.56 5.75-13.25T495.1-486q-5.8-5.5-13.36-5.5-7.57 0-12.95 5.56-5.38 5.56-5.38 13.25t5.44 13.19q5.44 5.5 13 5.5t13.31-5.56Zm-1.91 299.75q5.75-5.44 5.75-13t-5.81-13.31q-5.81-5.75-13.25-5.75T467-186.06q-5.5 5.81-5.5 13.37t5.56 12.94q5.56 5.38 13 5.38t13.19-5.44ZM660-520.43q5.54-5.61 5.54-13.37 0-7.77-5.6-13.15-5.61-5.38-13.37-5.38-7.77 0-13.15 5.44-5.38 5.44-5.38 13.21 0 7.76 5.44 13.31 5.44 5.54 13.2 5.54 7.77 0 13.32-5.6Zm48.32-252.88q5.38-5.44 5.38-12.95 0-7.52-5.44-13.31-5.44-5.8-13.21-5.8-7.76 0-13.31 5.86-5.54 5.85-5.54 13.37 0 7.51 5.6 12.89 5.61 5.38 13.37 5.38 7.76 0 13.15-5.44Zm0 613.5q5.38-5.44 5.38-12.95 0-7.51-5.44-13.31-5.44-5.8-13.21-5.8-7.76 0-13.31 5.86-5.54 5.85-5.54 13.37 0 7.51 5.6 12.89 5.61 5.38 13.37 5.38 7.76 0 13.15-5.44Z"/></svg>