<svg xmlns="http://www.w3.org/2000/svg" height="20" viewBox="0 -960 960 960" width="20"><path d="M216.23-124.08q-38.57 0-65.36-27.03t-26.79-65.43V-415.6q0-27.14 13.88-48.4 13.89-21.27 39.5-30.42l236.47-86.66H123.77v-254.84h620.31q37.39 0 63.43 25.79 26.03 25.79 28.03 63.17v209.31q-1 27.98-17.3 51.52-16.29 23.53-43.13 32.71l-203.73 74.38h264.16v254.96H216.23Zm0-47.96h571.04v-159.04H216.03q-11.3 0-23.13-3.09-11.82-3.1-21.17-10.64v128.11q0 18.43 13.02 31.55 13.02 13.11 31.48 13.11Zm571.04-443.34v-128.5q0-18.35-12.86-31.22-12.85-12.86-31.33-12.86H171.73v158.92h571.54q11.11 0 23.08 2.94 11.96 2.95 20.92 10.72ZM216.23-379.04h214.43l328.61-119q13.53-4.73 21.42-15.17 7.89-10.44 7.89-24.44v.87q0-18.07-13.12-31.18-13.11-13.12-31.38-13.12H559.23L195.38-449.37q-10.15 3.72-16.55 10.25-6.41 6.54-6.41 17.16v2.81q0 17.13 13.2 28.62 13.19 11.49 30.61 11.49Zm66.02-314.81q-6.06-6.05-6.06-14.39t6.05-14.39q6.04-6.06 14.38-6.06t14.4 6.04q6.06 6.05 6.06 14.39t-6.05 14.4q-6.04 6.05-14.38 6.05t-14.4-6.04Zm.77 456q-6.06-6.05-6.06-14.29 0-8.25 6.05-14.4 6.04-6.15 14.38-6.15t14.4 6.14q6.06 6.14 6.06 14.38 0 8.25-6.05 14.3-6.04 6.06-14.38 6.06t-14.4-6.04Zm46.04-183.39q-6.06-6.04-6.06-14.29 0-8.24 6.04-14.39 6.05-6.16 14.39-6.16t14.4 6.14q6.05 6.14 6.05 14.39 0 8.24-6.04 14.3-6.04 6.06-14.38 6.06t-14.4-6.05Zm136.65-273.11q-6.06-6.05-6.06-14.29 0-8.24 6.05-14.4 6.04-6.15 14.29-6.15 8.24 0 14.39 6.14 6.16 6.14 6.16 14.38 0 8.25-6.14 14.31-6.14 6.05-14.39 6.05-8.24 0-14.3-6.04Zm0 227.96q-6.06-6.04-6.06-14.39 0-8.34 6.05-14.39 6.04-6.06 14.29-6.06 8.24 0 14.39 6.04 6.16 6.05 6.16 14.39t-6.14 14.4q-6.14 6.05-14.39 6.05-8.24 0-14.3-6.04Zm0 228.54q-6.06-6.05-6.06-14.29 0-8.25 6.05-14.4 6.04-6.15 14.29-6.15 8.24 0 14.39 6.14 6.16 6.14 6.16 14.38 0 8.25-6.14 14.3-6.14 6.06-14.39 6.06-8.24 0-14.3-6.04Zm136.46-274.19q-6.05-6.05-6.05-14.39t6.04-14.4q6.04-6.05 14.38-6.05t14.4 6.04q6.06 6.04 6.06 14.38t-6.04 14.4q-6.05 6.06-14.39 6.06t-14.4-6.04Zm45.66-182.31q-6.06-6.05-6.06-14.29 0-8.24 6.04-14.4 6.05-6.15 14.39-6.15t14.4 6.14q6.05 6.14 6.05 14.38 0 8.25-6.04 14.31-6.05 6.05-14.39 6.05t-14.39-6.04Zm0 456.5q-6.06-6.05-6.06-14.29 0-8.25 6.04-14.4 6.05-6.15 14.39-6.15t14.4 6.14q6.05 6.14 6.05 14.38 0 8.25-6.04 14.3-6.05 6.06-14.39 6.06t-14.39-6.04Z"/></svg>