<svg xmlns="http://www.w3.org/2000/svg" height="40" viewBox="0 -960 960 960" width="40"><path d="M184.65-54.15q-54.11 0-92.31-38.1-38.19-38.11-38.19-93.21v-90.79q12.42 13.95 30.27 20.37 17.85 6.43 35.6 6.43h786.21v195.3H184.65Zm721.58-631.24q-16.88-12.51-37.84-18.29-20.96-5.78-42.19-5.78H53.81v-196.77h720.44q55.26 0 93.62 38.48 38.36 38.48 38.36 93.07v89.29ZM120.28-332.17q-28.35 0-47.24-16.97t-18.89-44.73v-17.71q0-38.25 23.94-62.67 23.94-24.43 53.87-36.07l301.03-117.09h394.57q33.36 0 56.02 21.19 22.65 21.19 22.65 56.32v24.64q0 49.87-31.08 80.66-31.08 30.8-80.5 48.38L618.8-332.17H120.28Zm154.23-459.27q6.91-6.31 6.91-16.43 0-10.11-6.91-17.02t-16.4-6.91q-9.5 0-16.43 6.91t-6.93 17.02q0 10.12 6.93 16.43 6.93 6.31 16.43 6.31 9.49 0 16.4-6.31Zm.78 656.16q6.8-6.92 6.8-16.53 0-9.61-6.8-16.41-6.8-6.79-16.4-6.79-9.61 0-16.54 6.79-6.93 6.8-6.93 16.41t6.93 16.53q6.93 6.93 16.54 6.93 9.6 0 16.4-6.93Zm37.56-259.63q6.9-6.31 6.9-16.42 0-10.12-6.9-17.02-6.91-6.91-16.69-6.91-9.78 0-16.43 6.91-6.64 6.9-6.64 17.02 0 10.11 6.64 16.42 6.65 6.32 16.43 6.32t16.69-6.32Zm183.47-396.53q7.25-6.31 7.25-16.37 0-10.06-7.25-17.02-7.25-6.97-16.84-6.97-9.58 0-16.08 6.97-6.5 6.96-6.5 17.02 0 10.06 6.5 16.37 6.5 6.31 16.08 6.31 9.59 0 16.84-6.31Zm5.03 337.94q7.11-6.83 7.11-16.5t-7.11-16.5q-7.12-6.83-17.02-6.83-9.91 0-16.22 6.83-6.31 6.83-6.31 16.5t6.31 16.5q6.31 6.83 16.22 6.83 9.9 0 17.02-6.83Zm-4.9 318.22q7.12-6.92 7.12-16.61 0-9.68-7.12-16.4-7.12-6.72-16.95-6.72-9.82 0-16.21 6.72-6.39 6.72-6.39 16.4 0 9.69 6.39 16.61 6.39 6.93 16.21 6.93 9.83 0 16.95-6.93Zm177.02-376.16q6.91-6.58 6.91-16.69 0-10.12-6.91-16.76-6.91-6.65-16.69-6.65-9.78 0-16.42 6.65-6.65 6.64-6.65 16.76 0 10.11 6.65 16.69 6.64 6.57 16.42 6.57 9.78 0 16.69-6.57Zm44-280q6.78-6.31 6.78-16.3 0-9.98-6.78-17.02-6.78-7.04-16.76-7.04t-16.56 7.04q-6.57 7.04-6.57 17.02 0 9.99 6.57 16.3 6.58 6.31 16.56 6.31 9.98 0 16.76-6.31Zm.13 656.16q6.65-6.92 6.65-16.42 0-9.5-6.65-16.41-6.64-6.9-16.76-6.9-10.11 0-16.69 6.9-6.57 6.91-6.57 16.41t6.57 16.42q6.58 6.93 16.69 6.93 10.12 0 16.76-6.93Z"/></svg>