<svg xmlns="http://www.w3.org/2000/svg" height="48" viewBox="0 -960 960 960" width="48"><path d="M193-84q-45.92 0-77.46-32.21Q84-148.42 84-195v-202.31q0-30.73 17.77-53.21t46.08-34.33l334.61-128.69H84V-876h681q46.01 0 78.31 32.25 32.3 32.25 32.3 77.75l1 227.92q0 34.79-19.94 63.27-19.95 28.48-52.13 40.12l-241.39 88.23h312.46V-84H193Zm1-58.39h623.23v-145.69H193q-14.36 0-27.68-3.36-13.32-3.37-22.93-13.64v110.18q0 21.61 15.17 37.06 15.18 15.45 36.44 15.45Zm623.23-514.53v-109.06q0-21.31-15.47-36.47T765-817.61H142.39v145.69H765q14.07 0 27.46 3.15 13.39 3.16 24.77 11.85ZM193-346.46h200.04l389.5-141.39q16.19-6.61 25.44-19.63t9.25-29.6v-24.23q0-21.4-15.06-36.81-15.06-15.42-37.17-15.42H642.08L168.85-430.69q-11.36 4.41-18.72 12.97-7.36 8.56-7.36 20.05v4.54q0 19.75 14.92 33.21 14.93 13.46 35.31 13.46Zm56.15-383.46q-6.38-6.3-6.38-14.77 0-8.46 6.3-14.85 6.31-6.38 14.77-6.38 8.47 0 14.85 6.3 6.39 6.31 6.39 14.77 0 8.47-6.31 14.85-6.3 6.39-14.77 6.39-8.46 0-14.85-6.31Zm1.39 529.54q-6.39-6.31-6.39-14.77 0-8.47 6.31-14.85 6.3-6.39 14.77-6.39 8.46 0 14.85 6.31 6.38 6.3 6.38 14.77 0 8.46-6.3 14.85-6.31 6.38-14.77 6.38-8.47 0-14.85-6.3Zm40.65-194.39Q285-400.4 285-409.48q0-9.08 6.12-15.53 6.12-6.45 14.7-6.45 8.58 0 15.04 6.38 6.45 6.38 6.45 15.46 0 9.08-6.38 14.77-6.38 5.7-14.96 5.7-8.58 0-14.78-5.62Zm173.54-335.84q-5.88-6.38-5.88-14.96 0-8.58 5.8-14.78 5.8-6.19 14.77-6.19 8.96 0 15.35 6.12 6.38 6.12 6.38 14.71 0 8.58-6.3 15.03-6.3 6.45-15.27 6.45-8.96 0-14.85-6.38Zm0 275.08q-5.88-6.31-5.88-14.77 0-8.47 5.8-14.85 5.8-6.39 14.77-6.39 8.96 0 15.35 6.31 6.38 6.3 6.38 14.76 0 8.47-6.3 14.85-6.3 6.39-15.27 6.39-8.96 0-14.85-6.3Zm0 255.15q-5.88-6.31-5.88-14.77 0-8.47 5.8-14.85 5.8-6.39 14.77-6.39 8.96 0 15.35 6.31 6.38 6.3 6.38 14.77 0 8.46-6.3 14.85-6.3 6.38-15.27 6.38-8.96 0-14.85-6.3Zm162.73-316.55q-6.38-5.62-6.38-14.7 0-9.08 6.3-15.53 6.3-6.46 14.77-6.46 8.46 0 14.85 6.38 6.38 6.38 6.38 15.47 0 9.08-6.3 14.77-6.3 5.69-14.77 5.69-8.46 0-14.85-5.62Zm51.58-213.68q-5.89-6.38-5.89-14.96 0-8.58 5.81-14.78 5.8-6.19 14.77-6.19 8.96 0 15.35 6.12 6.38 6.12 6.38 14.71 0 8.58-6.3 15.03-6.31 6.45-15.27 6.45-8.97 0-14.85-6.38Zm0 530.23q-5.89-6.31-5.89-14.77 0-8.47 5.81-14.85 5.8-6.39 14.77-6.39 8.96 0 15.35 6.31 6.38 6.3 6.38 14.77 0 8.46-6.3 14.85-6.31 6.38-15.27 6.38-8.97 0-14.85-6.3Z"/></svg>