<svg xmlns="http://www.w3.org/2000/svg" height="20" viewBox="0 -960 960 960" width="20"><path d="M195-62q-55.42 0-94.21-38.79Q62-139.58 62-195v-216q0-39.2 21-70.1 21-30.9 58-43.9l101-33H62v-340h704q54.42 0 92.21 37.79Q896-822.42 898-768v226q-1 41.07-24.35 75.15Q850.29-432.76 811-419l-49 18h136v339H195Zm0-107h596v-125H195q-6.43 0-13.22-1.5Q175-297 169-302v107q0 10.75 7.63 18.37Q184.25-169 195-169Zm596-489v-107q0-10.75-7.62-18.38Q775.75-791 765-791H169v126h596q6.43 0 13.72.5Q786-664 791-658ZM195-391h226.03L775-520q8-2 12.5-8.08 4.5-6.07 4.5-13.92 0-10.75-7.62-18.38Q776.75-568 766-568H576L180-425q-5 2-6.5 4.52-1.5 2.53-1.5 7.48 0 9 7.1 15.5T195-391Zm69-320q-7-7-7-17t7-17q7-7 17-7t17 7q7 7 7 17t-7 17q-7 7-17 7t-17-7Zm0 496q-7-7-7-17t7-17q7-7 17-7t17 7q7 7 7 17t-7 17q-7 7-17 7t-17-7Zm50-198q-7-7-7-17t7-17q7-7 17-7t17 7q7 7 7 17t-7 17q-7 7-17 7t-17-7Zm149-298q-7-7-7-17t7-17q7-7 17-7t17 7q7 7 7 17t-7 17q-7 7-17 7t-17-7Zm0 248q-7-7-7-17t7-17q7-7 17-7t17 7q7 7 7 17t-7 17q-7 7-17 7t-17-7Zm0 248q-7-7-7-17t7-17q7-7 17-7t17 7q7 7 7 17t-7 17q-7 7-17 7t-17-7Zm149-298q-7-7-7-17t7-17q7-7 17-7t17 7q7 7 7 17t-7 17q-7 7-17 7t-17-7Zm50-198q-7-7-7-17t7-17q7-7 17-7t17 7q7 7 7 17t-7 17q-7 7-17 7t-17-7Zm0 496q-7-7-7-17t7-17q7-7 17-7t17 7q7 7 7 17t-7 17q-7 7-17 7t-17-7Z"/></svg>