<svg xmlns="http://www.w3.org/2000/svg" height="20" viewBox="0 -960 960 960" width="20"><path d="M189-50q-57.92 0-98.46-40.5Q50-131 50-188v-64q10 14 26.15 18.5T107-229h803v179H189Zm721-658q-14-13-33.1-17t-36.9-4H49v-181h723q58.5 0 98.25 40.54T910-771v63ZM119-328q-29 0-49-15.51Q50-359.03 50-386v-38q0-52 31-84t52-39l228.82-84H832q33 0 55.5 19.5T910-557v46q0 49-24 75.5T819-395l-183 67H119Zm174-475q7-7 7-17t-7-17q-7-7-16.5-7t-17 7q-7.5 7-7.5 17t7.5 17q7.5 7 17 7t16.5-7Zm.2 679.5q6.8-7.5 6.8-17.2t-6.8-16.5q-6.8-6.8-16.5-6.8t-17.2 6.8q-7.5 6.8-7.5 16.5t7.5 17.2q7.5 7.5 17.2 7.5t16.5-7.5ZM334-412q7-7 7-17t-7-17q-7-7-17-7t-17 7q-7 7-7 17t7 17q7 7 17 7t17-7Zm162.5-391q7.5-7 7.5-17t-7.5-17q-7.5-7-17-7t-16.5 7q-7 7-7 17t7 17q7 7 16.5 7t17-7Zm10 340q7.5-7 7.5-17t-7.5-17q-7.5-7-17-7t-16.5 7q-7 7-7 17t7 17q7 7 16.5 7t17-7Zm-10 339.5q7.5-7.5 7.5-17.2t-7.5-16.5q-7.5-6.8-17.2-6.8t-16.5 6.8q-6.8 6.8-6.8 16.5t6.8 17.2q6.8 7.5 16.5 7.5t17.2-7.5ZM669-503q7-7 7-17t-7-17q-7-7-17-7t-17 7q-7 7-7 17t7 17q7 7 17 7t17-7Zm31-300q7-7 7-17t-7-17q-7-7-17-7t-17 7q-7 7-7 17t7 17q7 7 17 7t17-7Zm0 679.5q7-7.5 7-17t-7-16.5q-7-7-17-7t-17 7q-7 7-7 16.5t7 17q7 7.5 17 7.5t17-7.5Z"/></svg>