<svg xmlns="http://www.w3.org/2000/svg" height="40" viewBox="0 -960 960 960" width="40"><path d="M184.65-54.15q-55.19 0-93.02-38.1-37.82-38.11-37.82-93.5l.34-209.96q0-36.09 21.57-64.08 21.57-27.99 56.24-41.91l254.32-97.81H53.81v-306.72h720.44q55.26 0 93.62 38.48 38.36 38.48 38.36 93.07l1 234.68q0 42.29-23.83 76.38-23.83 34.09-62.75 47.84l-151.62 55.71h237.2v305.92H184.65Zm.44-91.34h629.42v-123.23H184.65q-12.03 0-21.46-2.17-9.43-2.17-18.03-8.59v93.51q0 16.6 12.02 28.54 12.02 11.94 27.91 11.94Zm629.42-536.7V-775q0-16.21-11.99-27.86-11.98-11.65-28.27-11.65H145.16l.33 123.66h628.77q10.53 0 20.77 1.73 10.23 1.74 19.48 6.93ZM184.65-355.17H388.1l399.96-145.86q12.2-4.58 19.32-14.74 7.13-10.16 7.13-23.38v-25.02q0-16.01-11.89-27.93-11.89-11.93-28.37-11.93H650.07L164.22-416.3q-7.41 2.41-12.41 8.45-5 6.04-5 14.83v2q0 14.73 10.98 25.29 10.99 10.56 26.86 10.56Zm57.03-381.29q-6.93-7.12-6.93-16.62 0-9.49 6.93-16.21 6.93-6.72 16.61-6.72 9.69 0 16.41 6.72 6.72 6.72 6.72 16.21 0 9.5-6.72 16.62-6.72 7.11-16.41 7.11-9.68 0-16.61-7.11Zm.67 545.75q-6.93-6.72-6.93-16.21 0-9.5 6.93-16.62 6.93-7.11 16.61-7.11t16.41 7.11q6.72 7.12 6.72 16.62 0 9.49-6.72 16.21-6.73 6.72-16.41 6.72t-16.61-6.72Zm42.17-200.31q-6.91-6.31-6.91-16.43 0-10.11 6.91-17.02 6.9-6.91 16.69-6.91 9.78 0 16.42 6.91 6.65 6.91 6.65 17.02 0 10.12-6.65 16.43-6.64 6.31-16.42 6.31-9.79 0-16.69-6.31Zm178.77-346.11q-6.39-7.12-6.39-16.61 0-9.5 6.39-16.22 6.39-6.72 16.21-6.72 9.83 0 16.95 6.72 7.12 6.72 7.12 16.22 0 9.49-7.12 16.61-7.12 7.12-16.95 7.12-9.82 0-16.21-7.12Zm.11 283.63q-6.5-6.83-6.5-16.5t6.5-16.5q6.5-6.83 16.22-6.83 9.71 0 16.83 6.83 7.12 6.83 7.12 16.5t-7.12 16.5q-7.12 6.83-16.83 6.83-9.72 0-16.22-6.83Zm-.11 262.79q-6.39-6.72-6.39-16.21 0-9.5 6.39-16.62 6.39-7.11 16.21-7.11 9.83 0 16.95 7.11 7.12 7.12 7.12 16.62 0 9.49-7.12 16.21-7.12 6.72-16.95 6.72-9.82 0-16.21-6.72Zm167.64-325.94q-6.64-6.31-6.64-16.42 0-10.11 6.64-17.02 6.65-6.91 16.43-6.91t16.69 6.91q6.91 6.91 6.91 17.02t-6.91 16.42q-6.91 6.32-16.69 6.32-9.78 0-16.43-6.32Zm53.15-220.48q-6.5-7.12-6.5-16.5 0-9.38 6.5-16.22 6.5-6.83 16.69-6.83 10.19 0 16.83 6.83 6.65 6.84 6.65 16.22 0 9.38-6.65 16.5-6.64 7.12-16.83 7.12-10.19 0-16.69-7.12Zm0 546.31q-6.5-6.83-6.5-16.22 0-9.38 6.5-16.5 6.5-7.11 16.69-7.11 10.19 0 16.83 7.11 6.65 7.12 6.65 16.5 0 9.39-6.65 16.22-6.64 6.83-16.83 6.83-10.19 0-16.69-6.83Z"/></svg>