<svg xmlns="http://www.w3.org/2000/svg" height="24" viewBox="0 -960 960 960" width="24"><path d="M207.69-100q-44.87 0-76.28-31.33Q100-162.66 100-208.31V-332q10.77 6.08 22.58 9.31 11.81 3.23 25.11 3.23h711.92V-100H207.69Zm651.92-526.85q-11.53-7.23-24.3-10.57-12.77-3.35-27.24-3.35H100V-860h651.92q44.87 0 76.28 31.41 31.41 31.41 31.41 76.28v125.46Zm-712.3 248.01q-19.69 0-33.5-12.62Q100-404.08 100-423.92q0-20.97 14.31-34.95 14.31-13.98 49-27.28l243.16-94.62h401.6q22.77 0 37.16 15.73 14.38 15.73 14.38 35.81 0 32.54-18.03 57.77-18.04 25.23-53.66 38.84l-147.85 53.78H147.31Zm148.04-351.13q8.11-8.04 8.11-20.34t-8.04-20.42q-8.05-8.12-20.35-8.12t-20.42 8.05q-8.11 8.04-8.11 20.34 0 12.31 8.04 20.42 8.05 8.12 20.35 8.12t20.42-8.05Zm.77 541.16q8.11-8.05 8.11-20.35t-8.04-20.42q-8.05-8.11-20.35-8.11t-20.42 8.04q-8.11 8.04-8.11 20.35 0 12.3 8.04 20.41 8.05 8.12 20.35 8.12t20.42-8.04Zm38.84-215q8.12-8.05 8.12-20.35t-8.05-20.42q-8.04-8.11-20.34-8.11t-20.42 8.04q-8.12 8.05-8.12 20.35t8.05 20.42q8.04 8.11 20.34 8.11 12.31 0 20.42-8.04Zm165.39-326.16q8.11-8.04 8.11-20.34t-8.04-20.42q-8.05-8.12-20.35-8.12t-20.42 8.05q-8.11 8.04-8.11 20.34 0 12.31 8.04 20.42 8.05 8.12 20.35 8.12t20.42-8.05Zm0 280q8.11-8.04 8.11-20.34 0-12.31-8.04-20.42-8.05-8.12-20.35-8.12t-20.42 8.05q-8.11 8.04-8.11 20.34 0 12.31 8.04 20.42 8.05 8.12 20.35 8.12t20.42-8.05Zm0 261.16q8.11-8.05 8.11-20.35t-8.04-20.42q-8.05-8.11-20.35-8.11t-20.42 8.04q-8.11 8.04-8.11 20.35 0 12.3 8.04 20.41 8.05 8.12 20.35 8.12t20.42-8.04Zm155.38-319.62q8.12-8.04 8.12-20.34 0-12.31-8.05-20.42-8.04-8.12-20.34-8.12-12.31 0-20.42 8.05-8.12 8.04-8.12 20.34t8.05 20.42q8.04 8.12 20.34 8.12t20.42-8.05Zm48.46-221.54q8.12-8.04 8.12-20.34t-8.05-20.42q-8.04-8.12-20.34-8.12-12.31 0-20.42 8.05-8.12 8.04-8.12 20.34 0 12.31 8.05 20.42 8.04 8.12 20.34 8.12 12.31 0 20.42-8.05Zm0 541.16q8.12-8.05 8.12-20.35t-8.05-20.42q-8.04-8.11-20.34-8.11-12.31 0-20.42 8.04-8.12 8.04-8.12 20.35 0 12.3 8.05 20.41 8.04 8.12 20.34 8.12 12.31 0 20.42-8.04Z"/></svg>