<svg xmlns="http://www.w3.org/2000/svg" height="20" viewBox="0 -960 960 960" width="20"><path d="M200.5-72q-53.54 0-91.02-37.7T72-199.5v-65q11 15.5 29 20.75t35 5.25h752V-72H200.5ZM888-697q-16.5-15.5-38.5-19t-43-3.5h-735V-888H760q53.75 0 90.88 37.48Q888-813.04 888-759.5v62.5ZM147.5-323q-30.5 0-53-16.27T72-385v-38q0-50.29 29-80.64Q130-534 148.5-541l257.82-95.5H798.5q41.4 0 65.45 20.5Q888-595.5 888-559.5v43q0 49.5-22 75.25T803.5-403l-219 80h-437Zm153.25-465.81q6.25-6.31 6.25-15.25 0-8.94-6.31-15.19t-15.25-6.25q-8.94 0-15.19 6.31T264-803.94q0 8.94 6.31 15.19t15.25 6.25q8.94 0 15.19-6.31Zm0 648q6.25-6.31 6.25-15.25 0-8.94-6.31-15.19t-15.25-6.25q-8.94 0-15.19 6.31T264-155.94q0 8.94 6.31 15.19t15.25 6.25q8.94 0 15.19-6.31Zm39-275.5q6.25-6.31 6.25-15.25 0-8.94-6.31-15.19T324.44-453q-8.94 0-15.19 6.31T303-431.44q0 8.94 6.31 15.19t15.25 6.25q8.94 0 15.19-6.31Zm155.5-372.5q6.25-6.31 6.25-15.25 0-8.94-6.31-15.19t-15.25-6.25q-8.94 0-15.19 6.31t-6.25 15.25q0 8.94 6.31 15.19t15.25 6.25q8.94 0 15.19-6.31Zm10 318.5q6.25-6.31 6.25-15.25 0-8.94-6.31-15.19T489.94-507q-8.94 0-15.19 6.31t-6.25 15.25q0 8.94 6.31 15.19t15.25 6.25q8.94 0 15.19-6.31Zm-10 329.5q6.25-6.31 6.25-15.25 0-8.94-6.31-15.19t-15.25-6.25q-8.94 0-15.19 6.31t-6.25 15.25q0 8.94 6.31 15.19t15.25 6.25q8.94 0 15.19-6.31Zm165.5-369.5q6.25-6.31 6.25-15.25 0-8.94-6.31-15.19T645.44-547q-8.94 0-15.19 6.31T624-525.44q0 8.94 6.31 15.19t15.25 6.25q8.94 0 15.19-6.31Zm29-278.5q6.25-6.31 6.25-15.25 0-8.94-6.31-15.19t-15.25-6.25q-8.94 0-15.19 6.31T653-803.94q0 8.94 6.31 15.19t15.25 6.25q8.94 0 15.19-6.31Zm0 648q6.25-6.31 6.25-15.25 0-8.94-6.31-15.19t-15.25-6.25q-8.94 0-15.19 6.31T653-155.94q0 8.94 6.31 15.19t15.25 6.25q8.94 0 15.19-6.31Z"/></svg>