<svg xmlns="http://www.w3.org/2000/svg" height="20" viewBox="0 -960 960 960" width="20"><path d="M200.5-72q-53.54 0-91.02-37.63Q72-147.25 72-201v-211.26q0-38.44 20-68.59 20-30.15 56.5-42.65l103.5-34H71.5V-888H760q52.75 0 89.38 36.48Q886-815.04 888-762.5V-541q-1 39.74-23.85 72.74-22.86 33-60.65 46.26l-54 20H888v330H200.5Zm0-102h585v-126H200.3q-6.23 0-13.34-1.75-7.12-1.75-13.46-7.25v107.83q0 10.92 8.13 19.04 8.12 8.13 18.87 8.13Zm585-478v-107.42q0-10.83-7.77-18.71Q769.96-786 759-786H173.5v126.5h585.69q6.24 0 13.78.5 7.53.5 12.53 7Zm-585 260h222.34L769.5-518.5q8.5-2 13-8.08 4.5-6.07 4.5-14.42v.29q0-10.54-8.12-18.67-8.13-8.12-18.88-8.12H572L185.34-427.94q-4.84 1.94-6.59 4.46-1.75 2.53-1.75 7.98v.5q0 9.44 7.1 16.22 7.1 6.78 16.4 6.78Zm69.75-315.31q-6.25-6.31-6.25-15.25 0-8.94 6.31-15.19t15.25-6.25q8.94 0 15.19 6.31t6.25 15.25q0 8.94-6.31 15.19T285.44-701q-8.94 0-15.19-6.31Zm0 484.5q-6.25-6.31-6.25-15.25 0-8.94 6.31-15.19t15.25-6.25q8.94 0 15.19 6.31t6.25 15.25q0 8.94-6.31 15.19t-15.25 6.25q-8.94 0-15.19-6.31Zm49-194q-6.25-6.31-6.25-15.25 0-8.94 6.31-15.19t15.25-6.25q8.94 0 15.19 6.31t6.25 15.25q0 8.94-6.31 15.19t-15.25 6.25q-8.94 0-15.19-6.31Zm145.5-291q-6.25-6.31-6.25-15.25 0-8.94 6.31-15.19t15.25-6.25q8.94 0 15.19 6.31t6.25 15.25q0 8.94-6.31 15.19t-15.25 6.25q-8.94 0-15.19-6.31Zm0 242.5q-6.25-6.31-6.25-15.25 0-8.94 6.31-15.19t15.25-6.25q8.94 0 15.19 6.31t6.25 15.25q0 8.94-6.31 15.19T479.94-459q-8.94 0-15.19-6.31Zm0 242.5q-6.25-6.31-6.25-15.25 0-8.94 6.31-15.19t15.25-6.25q8.94 0 15.19 6.31t6.25 15.25q0 8.94-6.31 15.19t-15.25 6.25q-8.94 0-15.19-6.31Zm145.5-291.5q-6.25-6.31-6.25-15.25 0-8.94 6.31-15.19t15.25-6.25q8.94 0 15.19 6.31t6.25 15.25q0 8.94-6.31 15.19T625.44-508q-8.94 0-15.19-6.31Zm49-193.5q-6.25-6.31-6.25-15.25 0-8.94 6.31-15.19t15.25-6.25q8.94 0 15.19 6.31t6.25 15.25q0 8.94-6.31 15.19t-15.25 6.25q-8.94 0-15.19-6.31Zm0 485q-6.25-6.31-6.25-15.25 0-8.94 6.31-15.19t15.25-6.25q8.94 0 15.19 6.31t6.25 15.25q0 8.94-6.31 15.19t-15.25 6.25q-8.94 0-15.19-6.31Z"/></svg>