<svg xmlns="http://www.w3.org/2000/svg" height="48" viewBox="0 -960 960 960" width="48"><path d="M194-85q-45.62 0-77.31-31.95Q85-148.9 85-195v-109q14.5 12.5 31.75 19.25T152.5-278H875v193H194Zm681-572.5q-18-12-39-18t-42.5-6H85V-875h679q45.83 0 78.42 31.94Q875-811.13 875-765.5v108Zm-723.5 322q-28.5 0-47.5-18.02T85-399.5q0-31.29 18-52.39Q121-473 149-484l360-140h285.5q36.5 0 58.5 21.75t22 55.75v2.5q0 49.5-31.25 78.5t-79.25 46l-230 84h-383Zm127-429.56q5.5-5.56 5.5-13t-5.56-13.19q-5.56-5.75-13.25-5.75T252-791.19q-5.5 5.81-5.5 13.25t5.56 12.94q5.56 5.5 13.25 5.5t13.19-5.56Zm1 597q5.5-5.56 5.5-13t-5.56-13.19q-5.56-5.75-13.25-5.75T253-194.19q-5.5 5.81-5.5 13.25t5.56 12.94q5.56 5.5 13.25 5.5t13.19-5.56Zm40.5-224.5q5.5-5.56 5.5-13.25T319.94-419q-5.56-5.5-13.25-5.5t-13.19 5.56q-5.5 5.56-5.5 13.25t5.56 13.19q5.56 5.5 13.25 5.5t13.19-5.56Zm173.25-372.5q5.75-5.56 5.75-13t-5.81-13.19q-5.81-5.75-13.25-5.75T467-791.19q-5.5 5.81-5.5 13.25t5.56 12.94q5.56 5.5 13 5.5t13.19-5.56Zm0 305.5q5.75-5.56 5.75-13.25T493.19-486q-5.81-5.5-13.25-5.5T467-485.94q-5.5 5.56-5.5 13.25t5.56 13.19q5.56 5.5 13 5.5t13.19-5.56Zm0 291.5q5.75-5.56 5.75-13t-5.81-13.19q-5.81-5.75-13.25-5.75T467-194.19q-5.5 5.81-5.5 13.25t5.56 12.94q5.56 5.5 13 5.5t13.19-5.56Zm162.25-354q5.5-5.56 5.5-13.25t-5.56-13.19q-5.56-5.5-13.25-5.5T629-548.44q-5.5 5.56-5.5 13.25t5.56 13.19q5.56 5.5 13.25 5.5t13.19-5.56Zm51.5-243q5.5-5.56 5.5-13t-5.56-13.19q-5.56-5.75-13.25-5.75t-13.19 5.81q-5.5 5.81-5.5 13.25t5.56 12.94q5.56 5.5 13.25 5.5t13.19-5.56Zm0 597q5.5-5.56 5.5-13t-5.56-13.19q-5.56-5.75-13.25-5.75t-13.19 5.81q-5.5 5.81-5.5 13.25t5.56 12.94q5.56 5.5 13.25 5.5t13.19-5.56Z"/></svg>