<svg xmlns="http://www.w3.org/2000/svg" height="48" viewBox="0 -960 960 960" width="48"><path d="M217.5-132q-36.29 0-60.9-25.25Q132-182.5 132-218v-185.26q0-23.65 14-40.7 14-17.04 35.5-25.54l383.5-149H132.5V-828H741q35.08 0 60.54 24.85Q827-778.29 827-742.5V-533q0 26.98-15.01 49.72-15.02 22.73-39.49 31.28l-305 111H827v209H217.5Zm0-22h588v-165H217.3q-18.1 0-35.53-5.5T154.5-344v125.64q0 27.86 17.95 46.11T217.5-154Zm588-462v-126.03q0-27.97-18.39-45.97-18.4-18-46.11-18H154.5v165.5h586.69q17.81 0 34.06 6 16.25 6 30.25 18.5Zm-588 275h185.62L763.5-472.5q18.61-7.1 30.06-23.55Q805-512.5 805-532v-23.71q0-26.46-18.25-44.63Q768.5-618.5 741-618.5H626L189.34-448.94q-13.84 5.94-24.09 16.89T155-406.5v7.5q0 25.44 18.7 41.72Q192.4-341 217.5-341ZM265-706.85q-7-6.85-7-16t6.85-16.15q6.85-7 16-7t16.15 6.85q7 6.85 7 16T297.15-707q-6.85 7-16 7T265-706.85Zm2 485.5q-7-6.85-7-15.5t6.85-16.15q6.85-7.5 16-7.5t16.15 7.35q7 7.35 7 16t-6.85 15.65q-6.85 7-16 7T267-221.35Zm37.5-177.52q-6.5-6.37-6.5-15.33 0-8.95 6.37-16.63 6.37-7.67 15.83-7.67 9.45 0 16.63 7.55 7.17 7.54 7.17 16.5 0 8.95-7.05 15.45-7.04 6.5-16.5 6.5-9.45 0-15.95-6.37Zm160-308.68q-7-7.04-7-16 0-8.95 6.85-15.95t15.5-7q8.65 0 16.15 6.87 7.5 6.87 7.5 15.83 0 8.95-7.35 16.13-7.35 7.17-16 7.17t-15.65-7.05Zm0 252.7q-7-6.85-7-16t6.85-16.15q6.85-7 15.5-7t16.15 6.85q7.5 6.85 7.5 16T496.15-455q-7.35 7-16 7t-15.65-6.85Zm0 233.5q-7-6.85-7-15.5t6.85-16.15q6.85-7.5 15.5-7.5t16.15 7.35q7.5 7.35 7.5 16t-7.35 15.65q-7.35 7-16 7t-15.65-6.85ZM613-511.37q-7-6.37-7-15.83 0-9.45 6.85-16.63 6.85-7.17 16-7.17t16.15 7.05q7 7.04 7 16.5 0 9.45-6.85 15.95t-16 6.5q-9.15 0-16.15-6.37Zm47-196.18q-7-7.04-7-16 0-8.95 6.85-15.95t16-7q9.15 0 16.15 6.87 7 6.87 7 15.83 0 8.95-6.85 16.13-6.85 7.17-16 7.17T660-707.55Zm0 486.2q-7-6.85-7-15.5t6.85-16.15q6.85-7.5 16-7.5t16.15 7.35q7 7.35 7 16t-6.85 15.65q-6.85 7-16 7T660-221.35Z"/></svg>