<svg xmlns="http://www.w3.org/2000/svg" height="24" viewBox="0 -960 960 960" width="24"><path d="M199.38-88q-46.82 0-79.6-32.78Q87-153.56 87-200.38l1-198.7q0-31.39 18.38-54.73 18.39-23.34 47.24-34.27l306.07-118.69H87V-872h671.85q46.82 0 79.6 32.49 32.78 32.48 32.78 78.89l1 223.7q0 35.18-20.39 63.88-20.4 28.69-53.69 41.04l-213.38 78.54h286.46V-88H199.38Zm1-66h604.85v-133.46H199.38q-13.04 0-25.33-4.19-12.28-4.2-21.05-15.66v105.93q0 20.13 13.62 33.76Q180.25-154 200.38-154Zm604.85-500.46v-105.16q0-19.71-13.33-33.04Q778.56-806 758.85-806H153l1 133.23h604.85q13.04 0 24.94 4.19 11.9 4.2 21.44 14.12Zm-605.85 301h195.08l379.77-138.85q14.45-5.84 22.72-17.42 8.28-11.57 8.28-27.19v-22.46q0-20.14-12.92-33.77-12.93-13.62-33.46-13.62H638.92L177-428q-9.82 3.56-16.02 11.03-6.21 7.46-6.21 17.48v4.61q0 16.19 13.38 28.8 13.39 12.62 31.23 12.62Zm49.43-366.59q-7.73-7.59-7.73-19.19 0-11.61 7.58-19.34 7.59-7.73 19.2-7.73 11.6 0 19.33 7.59 7.73 7.59 7.73 19.19 0 11.61-7.58 19.34-7.59 7.73-19.2 7.73-11.6 0-19.33-7.59Zm1.54 518.77q-7.73-7.59-7.73-19.19 0-11.61 7.58-19.34 7.59-7.73 19.2-7.73 11.6 0 19.33 7.59 7.73 7.59 7.73 19.19 0 11.61-7.59 19.34-7.58 7.73-19.19 7.73-11.6 0-19.33-7.59Zm39.69-190.23q-7.73-7.59-7.73-19.19 0-11.61 7.59-19.34 7.58-7.73 19.19-7.73 11.6 0 19.33 7.59 7.73 7.59 7.73 19.19 0 11.61-7.58 19.34-7.59 7.73-19.2 7.73-11.6 0-19.33-7.59Zm169.77-328.54q-7.73-7.59-7.73-19.19 0-11.61 7.58-19.34 7.59-7.73 19.2-7.73 11.6 0 19.33 7.59 7.73 7.59 7.73 19.19 0 11.61-7.58 19.34-7.59 7.73-19.2 7.73-11.6 0-19.33-7.59Zm0 268.62q-7.73-7.59-7.73-19.2 0-11.6 7.58-19.33 7.59-7.73 19.2-7.73 11.6 0 19.33 7.59 7.73 7.58 7.73 19.19 0 11.6-7.58 19.33-7.59 7.73-19.2 7.73-11.6 0-19.33-7.58Zm0 250.15q-7.73-7.59-7.73-19.19 0-11.61 7.58-19.34 7.59-7.73 19.2-7.73 11.6 0 19.33 7.59 7.73 7.59 7.73 19.19 0 11.61-7.58 19.34-7.59 7.73-19.2 7.73-11.6 0-19.33-7.59Zm159.77-310.08q-7.73-7.58-7.73-19.19 0-11.6 7.58-19.33 7.59-7.74 19.2-7.74 11.6 0 19.33 7.59 7.73 7.59 7.73 19.19 0 11.61-7.59 19.34-7.58 7.73-19.19 7.73-11.6 0-19.33-7.59Zm49.92-208.69q-7.73-7.59-7.73-19.19 0-11.61 7.59-19.34 7.58-7.73 19.19-7.73 11.6 0 19.33 7.59 7.74 7.59 7.74 19.19 0 11.61-7.59 19.34t-19.19 7.73q-11.61 0-19.34-7.59Zm0 518.77q-7.73-7.59-7.73-19.19 0-11.61 7.59-19.34 7.58-7.73 19.19-7.73 11.6 0 19.33 7.59 7.74 7.59 7.74 19.19 0 11.61-7.59 19.34t-19.19 7.73q-11.61 0-19.34-7.59Z"/></svg>