<svg xmlns="http://www.w3.org/2000/svg" height="20" viewBox="0 -960 960 960" width="20"><path d="M207.35-97.87q-45.62 0-77.55-32.08-31.93-32.07-31.93-77.9v-205.93q0-32.2 16.96-57.48 16.95-25.28 47.37-36.26l177.3-63.68H97.37v-290.93h655.78q44.83 0 75.9 30.93 31.08 30.93 33.08 75.55v216.17q-1 33.6-20.54 61.59-19.54 27.99-51.79 39.15l-136.17 49.67h208.5v291.2H207.35Zm0-75.37h578.91V-313.7H207.15q-8.19 0-16.99-1.75-8.79-1.75-17.42-5.72v113.16q0 14.15 10.31 24.46t24.3 10.31Zm578.91-465.83v-113.5q0-14.07-9.96-24.13-9.95-10.06-24.15-10.06H172.74v140.19h579.6q8.2 0 17.42 1.27 9.22 1.26 16.5 6.23Zm-578.91 252.4h218.51l339.07-122.7q10.79-3.52 16.81-11.44t6.02-18.67v.29q0-13.77-10.31-24.08-10.31-10.32-24.3-10.32H566.67L189.9-437.07q-7.12 2.7-11.53 7.11-4.41 4.41-4.41 12.18v.5q0 13.25 10.06 21.93 10.07 8.68 23.33 8.68Zm68.23-314.55q-6.25-6.31-6.25-15.25 0-8.94 6.3-15.19 6.31-6.25 15.25-6.25 8.95 0 15.2 6.31 6.25 6.3 6.25 15.25 0 8.94-6.31 15.19t-15.25 6.25q-8.94 0-15.19-6.31Zm0 472.32q-6.25-6.3-6.25-15.25 0-8.94 6.3-15.19 6.31-6.25 15.25-6.25 8.95 0 15.2 6.31t6.25 15.25q0 8.94-6.31 15.19t-15.25 6.25q-8.94 0-15.19-6.31Zm47.47-189.43q-6.25-6.31-6.25-15.25 0-8.94 6.31-15.19t15.25-6.25q8.94 0 15.19 6.31 6.25 6.3 6.25 15.25 0 8.94-6.3 15.19-6.31 6.25-15.25 6.25-8.95 0-15.2-6.31Zm141.7-283.39q-6.25-6.31-6.25-15.25 0-8.94 6.31-15.19t15.25-6.25q8.94 0 15.19 6.31 6.25 6.3 6.25 15.25 0 8.94-6.31 15.19t-15.25 6.25q-8.94 0-15.19-6.31Zm0 236.41q-6.25-6.31-6.25-15.25 0-8.94 6.31-15.19t15.25-6.25q8.94 0 15.19 6.31t6.25 15.25q0 8.94-6.31 15.19T479.94-459q-8.94 0-15.19-6.31Zm0 236.41q-6.25-6.3-6.25-15.25 0-8.94 6.31-15.19t15.25-6.25q8.94 0 15.19 6.31t6.25 15.25q0 8.94-6.31 15.19t-15.25 6.25q-8.94 0-15.19-6.31Zm141.7-283.89q-6.25-6.3-6.25-15.25 0-8.94 6.3-15.19 6.31-6.25 15.25-6.25 8.95 0 15.2 6.31t6.25 15.25q0 8.94-6.31 15.19t-15.25 6.25q-8.94 0-15.19-6.31Zm47.47-188.93q-6.25-6.31-6.25-15.25 0-8.94 6.31-15.19t15.25-6.25q8.94 0 15.19 6.31 6.25 6.3 6.25 15.25 0 8.94-6.3 15.19-6.31 6.25-15.25 6.25-8.95 0-15.2-6.31Zm0 472.82q-6.25-6.3-6.25-15.25 0-8.94 6.31-15.19t15.25-6.25q8.94 0 15.19 6.31t6.25 15.25q0 8.94-6.3 15.19-6.31 6.25-15.25 6.25-8.95 0-15.2-6.31Z"/></svg>