<svg xmlns="http://www.w3.org/2000/svg" height="20" viewBox="0 -960 960 960" width="20"><path d="M208-116q-38.75 0-65.87-27.13Q115-170.25 115-209l1-204q0-28.41 13.5-49.71Q143-484 169-493l256-93H115v-258h636q37.75 0 63.88 25.83Q841-792.33 843-755l1 215q-1 27.85-17.51 51.15Q809.97-465.55 783-456l-222 82h282v258H208Zm1-46h588v-166H208q-12.43 0-25.72-5Q169-338 161-352v142q0 20.1 13.95 34.05Q188.9-162 209-162Zm588-448v-141q0-19.67-13.66-33.34Q769.67-798 750-798H161l1 166h588q12.43 0 25.72 4.5Q789-623 797-610ZM208-374h222l337-123q14.78-5.4 22.89-16.58Q798-524.76 798-540v2q0-20.1-13.25-34.05Q771.5-586 751-586H562L186-451q-11.2 4.02-17.1 10.91-5.9 6.89-5.9 18.29v6q0 15.8 13.7 28.8t31.3 13Zm67-326.81q-6-5.82-6-14 0-8.19 5.81-14.19 5.82-6 14-6 8.19 0 14.19 5.81 6 5.82 6 14 0 8.19-5.81 14.19-5.82 6-14 6-8.19 0-14.19-5.81Zm2 470q-6-5.82-6-14 0-8.19 5.81-14.19 5.82-6 14-6 8.19 0 14.19 5.81 6 5.82 6 14 0 8.19-5.81 14.19-5.82 6-14 6-8.19 0-14.19-5.81Zm47-189q-6-5.82-6-14 0-8.19 5.81-14.19 5.82-6 14-6 8.19 0 14.19 5.81 6 5.82 6 14 0 8.19-5.81 14.19-5.82 6-14 6-8.19 0-14.19-5.81Zm141-281q-6-5.82-6-14 0-8.19 5.81-14.19 5.82-6 14-6 8.19 0 14.19 5.81 6 5.82 6 14 0 8.19-5.81 14.19-5.82 6-14 6-8.19 0-14.19-5.81Zm0 234q-6-5.82-6-14 0-8.19 5.81-14.19 5.82-6 14-6 8.19 0 14.19 5.81 6 5.82 6 14 0 8.19-5.81 14.19-5.82 6-14 6-8.19 0-14.19-5.81Zm0 236q-6-5.82-6-14 0-8.19 5.81-14.19 5.82-6 14-6 8.19 0 14.19 5.81 6 5.82 6 14 0 8.19-5.81 14.19-5.82 6-14 6-8.19 0-14.19-5.81Zm141-283q-6-5.82-6-14 0-8.19 5.81-14.19 5.82-6 14-6 8.19 0 14.19 5.81 6 5.82 6 14 0 8.19-5.81 14.19-5.82 6-14 6-8.19 0-14.19-5.81Zm47-187q-6-5.82-6-14 0-8.19 5.81-14.19 5.82-6 14-6 8.19 0 14.19 5.81 6 5.82 6 14 0 8.19-5.81 14.19-5.82 6-14 6-8.19 0-14.19-5.81Zm0 470q-6-5.82-6-14 0-8.19 5.81-14.19 5.82-6 14-6 8.19 0 14.19 5.81 6 5.82 6 14 0 8.19-5.81 14.19-5.82 6-14 6-8.19 0-14.19-5.81Z"/></svg>