<svg xmlns="http://www.w3.org/2000/svg" height="48" viewBox="0 -960 960 960" width="48"><path d="M209-116q-39.25 0-66.12-27.54Q116-171.08 116-211v-190q0-26.68 15-45.34Q146-465 170-475l366-141H116v-228h633q39.08 0 66.54 27.58Q843-788.83 843-750l1 215q0 29.75-16.88 54.12Q810.24-456.51 783-447L501-344h342v228H209Zm1-35h598v-158H209q-16.7 0-32.85-4.75Q160-318.5 151-334v122.98q0 25.12 17.3 42.57T210-151Zm598-477v-121.74q0-24.93-17.16-42.1Q773.67-809 749-809H151v158h598q16.53 0 31.77 5Q796-641 808-628ZM209-344h191.62L769-478q18.11-7.6 28.56-22.59Q808-515.58 808-534v-23q0-24.27-16.75-41.64Q774.5-616 749-616H631L183-443q-13.2 5.02-22.1 15.09-8.9 10.07-8.9 24.08v7Q152-374 169.2-359t39.8 15Zm50-369.79q-7-6.79-7-16t6.79-16.21q6.79-7 16-7t16.21 6.79q7 6.79 7 16T291.21-714q-6.79 7-16 7T259-713.79Zm2 500q-7-6.79-7-16t6.79-16.21q6.79-7 16-7t16.21 6.79q7 6.79 7 16T293.21-214q-6.79 7-16 7T261-213.79Zm38.5-183.02q-6.5-5.82-6.5-15.83t6.31-17.19q6.32-7.17 15.83-7.17t16.69 6.99q7.17 6.99 7.17 17T332.01-397q-6.99 6-16.5 6t-16.01-5.81Zm164-317.18q-6.5-6.99-6.5-16.5t6.29-16.01q6.29-6.5 16-6.5t16.71 6.31q7 6.32 7 15.83t-6.79 16.69q-6.79 7.17-16.5 7.17t-16.21-6.99Zm0 259.2q-6.5-6.79-6.5-16t6.29-16.21q6.29-7 16-7t16.71 6.79q7 6.79 7 16T496.21-455q-6.79 7-16.5 7t-16.21-6.79Zm0 241q-6.5-6.79-6.5-16t6.29-16.21q6.29-7 16-7t16.71 6.79q7 6.79 7 16T496.21-214q-6.79 7-16.5 7t-16.21-6.79ZM617-512.81q-7-5.82-7-15.83t6.79-17.19q6.79-7.17 16-7.17t16.21 6.99q7 6.99 7 17T649.21-513q-6.79 6-16 6T617-512.81Zm48.5-201.18q-6.5-6.99-6.5-16.5t6.29-16.01q6.29-6.5 16-6.5t16.71 6.31q7 6.32 7 15.83t-6.79 16.69q-6.79 7.17-16.5 7.17t-16.21-6.99Zm0 500.2q-6.5-6.79-6.5-16t6.29-16.21q6.29-7 16-7t16.71 6.79q7 6.79 7 16T698.21-214q-6.79 7-16.5 7t-16.21-6.79Z"/></svg>