<svg xmlns="http://www.w3.org/2000/svg" version="1.1" width="3300" height="2000"><g id="Notes"><style>
    text {
      font-family: monospace;
      text-anchor: middle;
    }
    text.emphasis {
      font-weight:bold;
    }
    text.lanchor {
      text-anchor: start;
    }
  </style><rect height="2200" id="artboard" fill="white" width="3300" x="0" y="0"/><line id="" style="fill:none;stroke:black;stroke-width:0.5;" x1="263" x2="3036" y1="292" y2="292"/><text class="lanchor emphasis" transform="matrix(1 0 0 1 263 322)">Weight/Scale Variations</text><text transform="matrix(1 0 0 1 559.711 322)">Ultralight</text><text transform="matrix(1 0 0 1 856.422 322)">Thin</text><text transform="matrix(1 0 0 1 1153.13 322)">Light</text><text transform="matrix(1 0 0 1 1449.84 322)">Regular</text><text transform="matrix(1 0 0 1 1746.56 322)">Medium</text><text transform="matrix(1 0 0 1 2043.27 322)">Semibold</text><text transform="matrix(1 0 0 1 2339.98 322)">Bold</text><text transform="matrix(1 0 0 1 2636.69 322)">Heavy</text><text transform="matrix(1 0 0 1 2933.4 322)">Black</text><text id="template-version" style="text-anchor: end;" transform="matrix(1 0 0 1 3036 1933)">Template v.1.0</text><text class="lanchor" transform="matrix(1 0 0 1 263 726)">Small</text><text class="lanchor" transform="matrix(1 0 0 1 263 1156)">Medium</text><text class="lanchor" transform="matrix(1 0 0 1 263 1586)">Large</text></g><g id="Guides"><g id="H-reference" style="fill:#27AAE1;stroke:none;" transform="matrix(1 0 0 1 339 696)"><path d="M 54.9316 0 L 57.666 0 L 30.5664 -70.459 L 28.0762 -70.459 L 0.976562 0 L 3.66211 0 L 12.9395 -24.4629 L 45.7031 -24.4629 Z M 29.1992 -67.0898 L 29.4434 -67.0898 L 44.8242 -26.709 L 13.8184 -26.709 Z"/></g><line id="Baseline-S" style="fill:none;stroke:#27AAE1;opacity:1;stroke-width:0.577;" x1="263" x2="3036" y1="696" y2="696"/><line id="Capline-S" style="fill:none;stroke:#27AAE1;opacity:1;stroke-width:0.577;" x1="263" x2="3036" y1="625.541" y2="625.541"/><g id="H-reference" style="fill:#27AAE1;stroke:none;" transform="matrix(1 0 0 1 339 1126)"><path d="M 54.9316 0 L 57.666 0 L 30.5664 -70.459 L 28.0762 -70.459 L 0.976562 0 L 3.66211 0 L 12.9395 -24.4629 L 45.7031 -24.4629 Z M 29.1992 -67.0898 L 29.4434 -67.0898 L 44.8242 -26.709 L 13.8184 -26.709 Z"/></g><line id="Baseline-M" style="fill:none;stroke:#27AAE1;opacity:1;stroke-width:0.577;" x1="263" x2="3036" y1="1126" y2="1126"/><line id="Capline-M" style="fill:none;stroke:#27AAE1;opacity:1;stroke-width:0.577;" x1="263" x2="3036" y1="1055.54" y2="1055.54"/><g id="H-reference" style="fill:#27AAE1;stroke:none;" transform="matrix(1 0 0 1 339 1556)"><path d="M 54.9316 0 L 57.666 0 L 30.5664 -70.459 L 28.0762 -70.459 L 0.976562 0 L 3.66211 0 L 12.9395 -24.4629 L 45.7031 -24.4629 Z M 29.1992 -67.0898 L 29.4434 -67.0898 L 44.8242 -26.709 L 13.8184 -26.709 Z"/></g><line id="Baseline-L" style="fill:none;stroke:#27AAE1;opacity:1;stroke-width:0.577;" x1="263" x2="3036" y1="1556" y2="1556"/><line id="Capline-L" style="fill:none;stroke:#27AAE1;opacity:1;stroke-width:0.577;" x1="263" x2="3036" y1="1485.54" y2="1485.54"/><rect height="119.336" id="left-margin" style="fill:darkred;stroke:none;opacity:0.4;" width="12.4512" x="1394.06" y="1030.79"/><rect height="119.336" id="right-margin" style="fill:darkgreen;stroke:none;opacity:0.4;" width="12.4512" x="1502.5112" y="1030.79"/><rect x="1406.5112" y="1045" width="96" height="96" fill="none" stroke="blue" stroke-dasharray="5"/><rect x="1394.06" y="1030.79" width="120.9024" height="119.336" fill="none" stroke="blue"/></g><g id="Symbols"><g id="Bold-L" transform="matrix(1 0 0 1 2266 1556)"><path d="M124.122 -52.645 Q123.227 -52.645 122.931 -53.569 Q120.513 -63.578 113.106 -70.973 Q105.696 -78.368 95.834 -80.978 Q94.976 -81.281 94.976 -82.194 Q94.976 -83.278 95.802 -83.428 Q105.641 -85.977 113.036 -93.257 Q120.431 -100.538 123.035 -110.577 Q123.34 -111.501 124.274 -111.501 Q125.248 -111.501 125.394 -110.577 Q127.957 -100.531 135.323 -93.196 Q142.687 -85.861 152.657 -83.231 Q153.51 -83.083 153.51 -82.041 Q153.51 -81.149 152.652 -80.856 Q142.634 -78.269 135.297 -70.944 Q127.958 -63.62 125.314 -53.569 Q125.165 -52.645 124.122 -52.645 Z M111.424 26.206 H43.538 Q31.903 26.206 23.934 18.236 Q15.964 10.267 15.964 -1.367 V-69.254 Q15.964 -80.702 23.934 -88.765 Q31.903 -96.827 43.538 -96.827 H77.884 Q79.943 -96.827 81.251 -94.812 Q82.56 -92.796 81.446 -90.823 Q76.433 -79.896 78.609 -68.125 Q80.786 -56.354 89.736 -47.404 Q98.362 -38.455 110.214 -36.359 Q122.066 -34.262 133.031 -39.261 Q134.805 -40.067 136.901 -38.829 Q138.998 -37.591 138.998 -35.714 V-1.367 Q138.998 10.267 130.864 18.236 Q122.732 26.206 111.424 26.206 Z"/></g><g id="Semibold-L" transform="matrix(1 0 0 1 1970.27 1556)"><path d="M124.069 -52.926 Q123.163 -52.926 122.86 -53.85 Q120.421 -63.734 113.149 -71.013 Q105.877 -78.293 96.074 -80.883 Q95.186 -81.193 95.186 -82.125 Q95.186 -83.221 96.042 -83.371 Q105.832 -85.88 113.096 -93.069 Q120.36 -100.257 122.942 -110.144 Q123.253 -111.08 124.204 -111.08 Q125.178 -111.08 125.325 -110.156 Q127.886 -100.251 135.147 -93.02 Q142.406 -85.792 152.288 -83.195 Q153.16 -83.044 153.16 -81.988 Q153.16 -81.083 152.285 -80.778 Q142.384 -78.21 135.136 -70.984 Q127.889 -63.76 125.28 -53.85 Q125.128 -52.926 124.069 -52.926 Z M111.564 25.856 H43.397 Q32.026 25.856 24.17 18 Q16.314 10.144 16.314 -1.227 V-69.394 Q16.314 -80.633 24.17 -88.52 Q32.026 -96.407 43.397 -96.407 H78.866 Q80.785 -96.407 81.952 -94.567 Q83.121 -92.727 82.147 -90.892 Q77.344 -80.106 79.52 -68.51 Q81.697 -56.915 90.471 -48.211 Q98.993 -39.437 110.635 -37.305 Q122.276 -35.174 133.101 -39.963 Q134.805 -40.769 136.692 -39.611 Q138.577 -38.455 138.577 -36.696 V-1.227 Q138.577 10.144 130.654 18 Q122.732 25.856 111.564 25.856 Z"/></g><g id="Medium-L" transform="matrix(1 0 0 1 1674.31 1556)"><path d="M124.03 -53.135 Q123.113 -53.135 122.806 -54.061 Q120.354 -63.85 113.183 -71.044 Q106.012 -78.237 96.253 -80.812 Q95.344 -81.127 95.344 -82.072 Q95.344 -83.178 96.221 -83.331 Q105.975 -85.809 113.141 -92.928 Q120.309 -100.046 122.873 -109.819 Q123.187 -110.764 124.151 -110.764 Q125.125 -110.764 125.272 -109.84 Q127.834 -100.041 135.015 -92.89 Q142.197 -85.738 152.01 -83.17 Q152.897 -83.016 152.897 -81.949 Q152.897 -81.033 152.01 -80.722 Q142.195 -78.166 135.016 -71.015 Q127.836 -63.865 125.253 -54.061 Q125.101 -53.135 124.03 -53.135 Z M111.669 25.594 H43.292 Q32.118 25.594 24.347 17.823 Q16.576 10.052 16.576 -1.122 V-69.499 Q16.576 -80.58 24.347 -88.336 Q32.118 -96.091 43.292 -96.091 H79.601 Q81.415 -96.091 82.478 -94.383 Q83.542 -92.674 82.673 -90.945 Q78.027 -80.264 80.204 -68.799 Q82.381 -57.336 91.024 -48.815 Q99.467 -40.172 110.951 -38.015 Q122.434 -35.857 133.154 -40.488 Q134.805 -41.295 136.534 -40.198 Q138.261 -39.102 138.261 -37.431 V-1.122 Q138.261 10.052 130.496 17.823 Q122.732 25.594 111.669 25.594 Z"/></g><g id="Regular-L" transform="matrix(1 0 0 1 1378.56 1556)"><path d="M124.001 -53.29 Q123.077 -53.29 122.769 -54.214 Q120.304 -63.936 113.207 -71.066 Q106.112 -78.197 96.384 -80.761 Q95.46 -81.078 95.46 -82.033 Q95.46 -83.147 96.353 -83.3 Q106.08 -85.756 113.175 -92.825 Q120.27 -99.893 122.821 -109.581 Q123.139 -110.534 124.113 -110.534 Q125.086 -110.534 125.233 -109.61 Q127.795 -99.886 134.919 -92.793 Q142.042 -85.7 151.807 -83.15 Q152.704 -82.995 152.704 -81.92 Q152.704 -80.998 151.809 -80.68 Q142.058 -78.134 134.928 -71.037 Q127.797 -63.942 125.233 -54.214 Q125.08 -53.29 124.001 -53.29 Z M111.746 25.4 H43.215 Q32.185 25.4 24.478 17.692 Q16.77 9.985 16.77 -1.045 V-69.576 Q16.77 -80.541 24.478 -88.201 Q32.185 -95.86 43.215 -95.86 H80.141 Q81.878 -95.86 82.863 -94.247 Q83.85 -92.635 83.058 -90.984 Q78.529 -80.38 80.706 -69.012 Q82.883 -57.644 91.429 -49.259 Q99.814 -40.712 111.182 -38.536 Q122.55 -36.359 133.192 -40.874 Q134.805 -41.68 136.417 -40.629 Q138.03 -39.577 138.03 -37.971 V-1.045 Q138.03 9.985 130.38 17.692 Q122.732 25.4 111.746 25.4 Z"/></g><g id="Light-L" transform="matrix(1 0 0 1 1082.77 1556)"><path d="M121.815 -52.05 Q120.879 -52.05 120.567 -52.974 Q118.195 -62.386 111.382 -69.241 Q104.571 -76.097 95.155 -78.571 Q94.22 -78.893 94.22 -79.862 Q94.22 -80.977 95.113 -81.13 Q104.532 -83.491 111.346 -90.266 Q118.161 -97.042 120.62 -106.407 Q120.944 -107.37 121.929 -107.37 Q122.979 -107.37 123.063 -106.435 Q125.501 -97.034 132.344 -90.234 Q139.188 -83.434 148.643 -80.98 Q149.54 -80.823 149.54 -79.733 Q149.54 -78.8 148.645 -78.477 Q139.204 -76.025 132.369 -69.209 Q125.532 -62.393 123.063 -52.974 Q122.906 -52.05 121.815 -52.05 Z M110.382 22.175 H44.455 Q34.232 22.175 27.114 15.056 Q19.995 7.938 19.995 -2.285 V-68.212 Q19.995 -78.371 27.114 -85.503 Q34.232 -92.635 44.455 -92.635 H78.032 Q79.727 -92.635 80.733 -91.147 Q81.741 -89.658 81.012 -88.007 Q77.413 -77.774 79.836 -66.996 Q82.262 -56.217 90.374 -48.204 Q98.387 -40.092 109.166 -37.666 Q119.944 -35.243 130.216 -38.827 Q131.828 -39.51 133.317 -38.455 Q134.805 -37.402 134.805 -35.862 V-2.285 Q134.805 7.938 127.683 15.056 Q120.56 22.175 110.382 22.175 Z"/></g><g id="Thin-L" transform="matrix(1 0 0 1 787.282 1556)"><path d="M119.628 -50.81 Q118.682 -50.81 118.366 -51.734 Q116.085 -60.835 109.558 -67.417 Q103.029 -73.998 93.928 -76.383 Q92.98 -76.71 92.98 -77.692 Q92.98 -78.805 93.873 -78.959 Q102.984 -81.225 109.518 -87.709 Q116.052 -94.193 118.42 -103.234 Q118.748 -104.208 119.747 -104.208 Q120.87 -104.208 120.892 -103.261 Q123.206 -94.18 129.769 -87.673 Q136.332 -81.167 145.481 -78.808 Q146.378 -78.651 146.378 -77.547 Q146.378 -76.602 145.483 -76.276 Q136.351 -73.915 129.808 -67.38 Q123.264 -60.845 120.892 -51.734 Q120.734 -50.81 119.628 -50.81 Z M109.018 18.95 H45.695 Q36.278 18.95 29.749 12.421 Q23.22 5.892 23.22 -3.525 V-66.848 Q23.22 -76.2 29.749 -82.805 Q36.278 -89.41 45.695 -89.41 H75.925 Q77.574 -89.41 78.603 -88.046 Q79.633 -86.682 78.966 -85.03 Q76.295 -75.17 78.969 -64.981 Q81.642 -54.791 89.32 -47.15 Q96.961 -39.472 107.151 -36.799 Q117.34 -34.125 127.239 -36.781 Q128.852 -37.339 130.216 -36.283 Q131.58 -35.227 131.58 -33.755 V-3.525 Q131.58 5.892 124.985 12.421 Q118.39 18.95 109.018 18.95 Z"/></g><g id="Ultralight-L" transform="matrix(1 0 0 1 491.205 1556)"><path d="M118.317 -50.065 Q117.363 -50.065 117.045 -50.989 Q114.821 -59.904 108.462 -66.321 Q102.104 -72.738 93.191 -75.07 Q92.235 -75.401 92.235 -76.389 Q92.235 -77.503 93.128 -77.656 Q102.054 -79.866 108.421 -86.174 Q114.787 -92.483 117.101 -101.33 Q117.43 -102.31 118.437 -102.31 Q119.604 -102.31 119.589 -101.357 Q121.829 -92.469 128.224 -86.138 Q134.62 -79.808 143.583 -77.507 Q144.48 -77.347 144.48 -76.236 Q144.48 -75.283 143.585 -74.956 Q134.641 -72.651 128.273 -66.284 Q121.905 -59.916 119.589 -50.989 Q119.431 -50.065 118.317 -50.065 Z M108.199 17.015 H46.44 Q37.507 17.015 31.331 10.839 Q25.155 4.663 25.155 -4.27 V-66.029 Q25.155 -74.897 31.331 -81.186 Q37.507 -87.475 46.44 -87.475 H74.659 Q76.284 -87.475 77.326 -86.185 Q78.368 -84.895 77.737 -83.244 Q75.626 -73.607 78.448 -63.771 Q81.27 -53.935 88.688 -46.517 Q96.105 -39.1 105.941 -36.278 Q115.778 -33.456 125.453 -35.552 Q127.065 -36.036 128.355 -34.978 Q129.645 -33.921 129.645 -32.489 V-4.27 Q129.645 4.663 123.366 10.839 Q117.088 17.015 108.199 17.015 Z"/></g><g id="Bold-M" transform="matrix(1 0 0 1 2281.8 1126)"><path d="M97.688 -48.23 Q96.938 -48.23 96.688 -48.98 Q94.625 -57.48 88.343 -63.73 Q82.061 -69.98 73.596 -72.149 Q72.875 -72.396 72.875 -73.136 Q72.875 -74.039 73.591 -74.167 Q82 -76.355 88.301 -82.586 Q94.603 -88.819 96.775 -97.329 Q97.031 -98.105 97.812 -98.105 Q98.625 -98.105 98.75 -97.355 Q100.882 -88.85 107.189 -82.606 Q113.495 -76.362 121.909 -74.105 Q122.625 -73.976 122.625 -73.074 Q122.625 -72.3 121.904 -72.054 Q113.448 -69.96 107.165 -63.724 Q100.884 -57.489 98.688 -48.98 Q98.562 -48.23 97.688 -48.23 Z M86.25 15.52 H33.5 Q23.295 15.52 16.273 8.498 Q9.25 1.475 9.25 -8.73 V-61.73 Q9.25 -71.855 16.273 -78.917 Q23.295 -85.98 33.5 -85.98 H53.875 Q56.375 -85.98 57.75 -83.73 Q59.125 -81.48 57.875 -79.105 Q53.75 -69.355 55.688 -58.917 Q57.625 -48.48 65.438 -40.605 Q73.125 -32.855 83.625 -30.917 Q94.125 -28.98 103.875 -33.105 Q106.25 -34.105 108.5 -32.757 Q110.75 -31.41 110.75 -28.98 V-8.73 Q110.75 1.475 103.541 8.498 Q96.332 15.52 86.25 15.52 Z"/></g><g id="Semibold-M" transform="matrix(1 0 0 1 1985.97 1126)"><path d="M97.266 -48.23 Q96.506 -48.23 96.252 -48.98 Q94.19 -57.317 88.06 -63.429 Q81.93 -69.541 73.609 -71.695 Q72.875 -71.946 72.875 -72.701 Q72.875 -73.604 73.606 -73.732 Q81.891 -75.866 88.03 -81.961 Q94.168 -88.057 96.323 -96.396 Q96.582 -97.181 97.377 -97.181 Q98.19 -97.181 98.315 -96.431 Q100.448 -88.089 106.591 -81.981 Q112.734 -75.874 121.025 -73.67 Q121.755 -73.541 121.755 -72.639 Q121.755 -71.865 121.021 -71.614 Q112.709 -69.534 106.579 -63.43 Q100.449 -57.325 98.28 -48.98 Q98.154 -48.23 97.266 -48.23 Z M86.304 14.759 H33.5 Q23.656 14.759 16.834 7.936 Q10.011 1.114 10.011 -8.73 V-61.73 Q10.011 -71.529 16.834 -78.374 Q23.656 -85.219 33.5 -85.219 H55.07 Q57.354 -85.219 58.593 -83.186 Q59.831 -81.154 58.745 -78.996 Q54.891 -69.464 56.856 -59.325 Q58.82 -49.186 66.389 -41.584 Q73.886 -34.05 84.06 -32.086 Q94.234 -30.121 103.766 -33.975 Q105.979 -34.866 107.984 -33.637 Q109.989 -32.41 109.989 -30.175 V-8.73 Q109.989 1.114 103.025 7.936 Q96.061 14.759 86.304 14.759 Z"/></g><g id="Medium-M" transform="matrix(1 0 0 1 1689.91 1126)"><path d="M96.95 -48.23 Q96.183 -48.23 95.926 -48.98 Q93.864 -57.195 87.847 -63.204 Q81.831 -69.212 73.618 -71.355 Q72.875 -71.61 72.875 -72.375 Q72.875 -73.277 73.618 -73.406 Q81.81 -75.499 87.826 -81.492 Q93.843 -87.486 95.983 -95.695 Q96.246 -96.489 97.051 -96.489 Q97.864 -96.489 97.989 -95.739 Q100.121 -87.519 106.142 -81.512 Q112.164 -75.506 120.361 -73.344 Q121.104 -73.215 121.104 -72.312 Q121.104 -71.54 120.36 -71.285 Q112.156 -69.215 106.139 -63.209 Q100.123 -57.202 97.974 -48.98 Q97.846 -48.23 96.95 -48.23 Z M86.345 14.189 H33.5 Q23.926 14.189 17.254 7.516 Q10.581 0.844 10.581 -8.73 V-61.73 Q10.581 -71.284 17.254 -77.966 Q23.926 -84.649 33.5 -84.649 H55.968 Q58.087 -84.649 59.224 -82.779 Q60.361 -80.909 59.396 -78.915 Q55.748 -69.545 57.733 -59.631 Q59.718 -49.716 67.103 -42.317 Q74.456 -34.947 84.386 -32.962 Q94.315 -30.977 103.685 -34.626 Q105.775 -35.436 107.596 -34.299 Q109.419 -33.16 109.419 -31.072 V-8.73 Q109.419 0.844 102.638 7.516 Q95.858 14.189 86.345 14.189 Z"/></g><g id="Regular-M" transform="matrix(1 0 0 1 1394.06 1126)"><path d="M96.719 -48.23 Q95.945 -48.23 95.688 -48.98 Q93.625 -57.105 87.691 -63.039 Q81.759 -68.971 73.625 -71.105 Q72.875 -71.362 72.875 -72.136 Q72.875 -73.039 73.625 -73.167 Q81.75 -75.23 87.676 -81.149 Q93.603 -87.069 95.734 -95.182 Q96 -95.98 96.812 -95.98 Q97.625 -95.98 97.75 -95.23 Q99.882 -87.1 105.814 -81.169 Q111.745 -75.237 119.875 -73.105 Q120.625 -72.976 120.625 -72.074 Q120.625 -71.3 119.875 -71.042 Q111.75 -68.98 105.816 -63.046 Q99.884 -57.114 97.75 -48.98 Q97.621 -48.23 96.719 -48.23 Z M86.375 13.77 H33.5 Q24.125 13.77 17.562 7.208 Q11 0.645 11 -8.73 V-61.73 Q11 -71.105 17.562 -77.667 Q24.125 -84.23 33.5 -84.23 H56.625 Q58.625 -84.23 59.688 -82.48 Q60.75 -80.73 59.875 -78.855 Q56.375 -69.605 58.375 -59.855 Q60.375 -50.105 67.625 -42.855 Q74.875 -35.605 84.625 -33.605 Q94.375 -31.605 103.625 -35.105 Q105.625 -35.855 107.312 -34.782 Q109 -33.71 109 -31.73 V-8.73 Q109 0.645 102.354 7.208 Q95.707 13.77 86.375 13.77 Z"/></g><g id="Light-M" transform="matrix(1 0 0 1 1098.18 1126)"><path d="M95.42 -47.941 Q94.647 -47.941 94.389 -48.691 Q92.422 -56.48 86.779 -62.125 Q81.134 -67.77 73.336 -69.806 Q72.586 -70.065 72.586 -70.837 Q72.586 -71.74 73.336 -71.869 Q81.125 -73.836 86.763 -79.466 Q92.401 -85.096 94.435 -92.874 Q94.701 -93.672 95.514 -93.672 Q96.375 -93.672 96.451 -92.922 Q98.489 -85.129 104.131 -79.486 Q109.774 -73.844 117.567 -71.806 Q118.317 -71.677 118.317 -70.775 Q118.317 -70.002 117.567 -69.744 Q109.779 -67.777 104.134 -62.134 Q98.489 -56.489 96.451 -48.691 Q96.323 -47.941 95.42 -47.941 Z M85.558 11.27 H34.269 Q25.567 11.27 19.534 5.236 Q13.5 -0.797 13.5 -9.499 V-60.912 Q13.5 -69.615 19.534 -75.672 Q25.567 -81.73 34.269 -81.73 H56.24 Q58.096 -81.73 59.11 -80.124 Q60.125 -78.519 59.346 -76.787 Q56.375 -67.922 58.495 -58.701 Q60.615 -49.48 67.433 -42.662 Q74.25 -35.845 83.471 -33.725 Q92.692 -31.605 101.558 -34.576 Q103.414 -35.23 104.956 -34.205 Q106.5 -33.181 106.5 -31.345 V-9.499 Q106.5 -0.797 100.359 5.236 Q94.218 11.27 85.558 11.27 Z"/></g><g id="Thin-M" transform="matrix(1 0 0 1 802.565 1126)"><path d="M94.123 -47.652 Q93.349 -47.652 93.091 -48.402 Q91.221 -55.855 85.865 -61.211 Q80.509 -66.567 73.047 -68.509 Q72.297 -68.766 72.297 -69.54 Q72.297 -70.442 73.047 -70.571 Q80.5 -72.441 85.85 -77.784 Q91.199 -83.126 93.138 -90.566 Q93.404 -91.365 94.216 -91.365 Q95.125 -91.365 95.154 -90.615 Q97.094 -83.157 102.449 -77.804 Q107.802 -72.449 115.26 -70.509 Q116.01 -70.38 116.01 -69.477 Q116.01 -68.704 115.26 -68.446 Q107.808 -66.576 102.451 -61.22 Q97.095 -55.864 95.154 -48.402 Q95.025 -47.652 94.123 -47.652 Z M84.74 8.77 H35.039 Q27.01 8.77 21.505 3.265 Q16 -2.24 16 -10.269 V-60.095 Q16 -68.124 21.505 -73.677 Q27.01 -79.23 35.039 -79.23 H55.856 Q57.568 -79.23 58.534 -77.769 Q59.5 -76.307 58.818 -74.72 Q56.375 -66.24 58.615 -57.547 Q60.856 -48.855 67.24 -42.47 Q73.625 -36.086 82.317 -33.845 Q91.01 -31.605 99.49 -34.047 Q101.203 -34.605 102.601 -33.629 Q104 -32.652 104 -30.961 V-10.269 Q104 -2.24 98.364 3.265 Q92.728 8.77 84.74 8.77 Z"/></g><g id="Ultralight-M" transform="matrix(1 0 0 1 506.415 1126)"><path d="M93.344 -47.48 Q92.57 -47.48 92.312 -48.23 Q90.5 -55.48 85.316 -60.664 Q80.134 -65.846 72.875 -67.73 Q72.125 -67.987 72.125 -68.761 Q72.125 -69.664 72.875 -69.792 Q80.125 -71.605 85.301 -76.774 Q90.478 -81.944 92.359 -89.182 Q92.625 -89.98 93.438 -89.98 Q94.375 -89.98 94.375 -89.23 Q96.257 -81.975 101.439 -76.794 Q106.62 -71.612 113.875 -69.73 Q114.625 -69.601 114.625 -68.699 Q114.625 -67.925 113.875 -67.667 Q106.625 -65.855 101.441 -60.671 Q96.259 -55.489 94.375 -48.23 Q94.246 -47.48 93.344 -47.48 Z M84.25 7.27 H35.5 Q27.875 7.27 22.688 2.083 Q17.5 -3.105 17.5 -10.73 V-59.605 Q17.5 -67.23 22.688 -72.48 Q27.875 -77.73 35.5 -77.73 H55.625 Q57.25 -77.73 58.188 -76.355 Q59.125 -74.98 58.5 -73.48 Q56.375 -65.23 58.688 -56.855 Q61 -48.48 67.125 -42.355 Q73.25 -36.23 81.625 -33.917 Q90 -31.605 98.25 -33.73 Q99.875 -34.23 101.188 -33.282 Q102.5 -32.335 102.5 -30.73 V-10.73 Q102.5 -3.105 97.166 2.083 Q91.832 7.27 84.25 7.27 Z"/></g><g id="Bold-S" transform="matrix(1 0 0 1 2294.23 696)"><path d="M77.47 -47.065 Q76.878 -47.065 76.681 -47.657 Q75.251 -53.969 70.59 -58.604 Q65.93 -63.239 59.645 -64.753 Q59.076 -64.949 59.076 -65.533 Q59.076 -66.245 59.641 -66.346 Q65.882 -67.875 70.557 -72.495 Q75.233 -77.117 76.75 -83.437 Q76.952 -84.049 77.569 -84.049 Q78.308 -84.049 78.308 -83.458 Q79.892 -77.142 84.523 -72.561 Q89.153 -67.979 95.397 -66.297 Q95.962 -66.195 95.962 -65.483 Q95.962 -64.873 95.393 -64.678 Q89.116 -63.224 84.455 -58.599 Q79.795 -53.976 78.259 -47.657 Q78.16 -47.065 77.47 -47.065 Z M64.895 2.445 H29.588 Q21.141 2.445 15.403 -3.293 Q9.665 -9.031 9.665 -17.477 V-52.982 Q9.665 -61.366 15.403 -67.135 Q21.141 -72.905 29.588 -72.905 H44.48 Q46.354 -72.905 47.34 -71.228 Q48.326 -69.551 47.537 -67.776 Q44.973 -60.971 46.551 -53.771 Q48.129 -46.572 53.405 -41.246 Q58.682 -35.92 65.882 -34.392 Q73.081 -32.863 79.886 -35.427 Q81.662 -36.118 83.338 -35.104 Q85.015 -34.09 85.015 -32.271 V-17.477 Q85.015 -9.031 79.13 -3.293 Q73.245 2.445 64.895 2.445 Z"/></g><g id="Semibold-S" transform="matrix(1 0 0 1 1998.1 696)"><path d="M77.138 -47.065 Q76.538 -47.065 76.338 -47.657 Q74.908 -53.841 70.367 -58.366 Q65.826 -62.893 59.655 -64.395 Q59.076 -64.594 59.076 -65.189 Q59.076 -65.901 59.653 -66.003 Q65.796 -67.489 70.343 -72.002 Q74.89 -76.516 76.393 -82.701 Q76.598 -83.321 77.225 -83.321 Q77.965 -83.321 77.965 -82.729 Q79.549 -76.541 84.051 -72.067 Q88.552 -67.594 94.7 -65.954 Q95.276 -65.852 95.276 -65.14 Q95.276 -64.53 94.697 -64.331 Q88.533 -62.887 83.992 -58.367 Q79.451 -53.846 77.937 -47.657 Q77.838 -47.065 77.138 -47.065 Z M64.938 1.844 H29.588 Q21.426 1.844 15.846 -3.736 Q10.266 -9.316 10.266 -17.477 V-52.982 Q10.266 -61.108 15.846 -66.706 Q21.426 -72.304 29.588 -72.304 H45.423 Q47.126 -72.304 48.005 -70.799 Q48.883 -69.294 48.224 -67.69 Q45.873 -61.057 47.473 -54.093 Q49.072 -47.129 54.156 -42.018 Q59.283 -36.863 66.225 -35.314 Q73.167 -33.763 79.8 -36.114 Q81.447 -36.718 82.931 -35.798 Q84.414 -34.879 84.414 -33.214 V-17.477 Q84.414 -9.316 78.722 -3.736 Q73.031 1.844 64.938 1.844 Z"/></g><g id="Medium-S" transform="matrix(1 0 0 1 1701.85 696)"><path d="M76.888 -47.065 Q76.282 -47.065 76.08 -47.657 Q74.65 -53.744 70.199 -58.189 Q65.748 -62.634 59.662 -64.127 Q59.076 -64.328 59.076 -64.932 Q59.076 -65.644 59.662 -65.746 Q65.732 -67.199 70.183 -71.632 Q74.633 -76.066 76.125 -82.148 Q76.333 -82.774 76.968 -82.774 Q77.708 -82.774 77.708 -82.182 Q79.292 -76.091 83.697 -71.698 Q88.103 -67.304 94.176 -65.696 Q94.762 -65.595 94.762 -64.883 Q94.762 -64.273 94.175 -64.072 Q88.097 -62.636 83.645 -58.193 Q79.194 -53.75 77.696 -47.657 Q77.595 -47.065 76.888 -47.065 Z M64.97 1.394 H29.588 Q21.639 1.394 16.177 -4.067 Q10.716 -9.529 10.716 -17.477 V-52.982 Q10.716 -60.915 16.177 -66.385 Q21.639 -71.854 29.588 -71.854 H46.131 Q47.705 -71.854 48.503 -70.478 Q49.302 -69.101 48.738 -67.626 Q46.549 -61.121 48.165 -54.335 Q49.78 -47.547 54.719 -42.597 Q59.732 -37.571 66.482 -36.005 Q73.231 -34.439 79.736 -36.628 Q81.287 -37.168 82.625 -36.32 Q83.964 -35.471 83.964 -33.922 V-17.477 Q83.964 -9.529 78.417 -4.067 Q72.87 1.394 64.97 1.394 Z"/></g><g id="Regular-S" transform="matrix(1 0 0 1 1405.73 696)"><path d="M76.706 -47.065 Q76.095 -47.065 75.892 -47.657 Q74.462 -53.673 70.076 -58.059 Q65.691 -62.444 59.668 -63.93 Q59.076 -64.133 59.076 -64.744 Q59.076 -65.456 59.668 -65.557 Q65.684 -66.987 70.064 -71.361 Q74.444 -75.736 75.928 -81.744 Q76.139 -82.373 76.78 -82.373 Q77.519 -82.373 77.519 -81.781 Q79.103 -75.761 83.438 -71.426 Q87.772 -67.092 93.792 -65.508 Q94.384 -65.406 94.384 -64.694 Q94.384 -64.084 93.792 -63.881 Q87.776 -62.45 83.39 -58.065 Q79.006 -53.68 77.519 -47.657 Q77.418 -47.065 76.706 -47.065 Z M64.994 1.064 H29.588 Q21.796 1.064 16.421 -4.311 Q11.046 -9.686 11.046 -17.477 V-52.982 Q11.046 -60.774 16.421 -66.149 Q21.796 -71.524 29.588 -71.524 H46.65 Q48.129 -71.524 48.869 -70.242 Q49.608 -68.96 49.115 -67.579 Q47.044 -61.168 48.671 -54.511 Q50.299 -47.854 55.131 -43.021 Q60.063 -38.09 66.671 -36.512 Q73.278 -34.934 79.689 -37.005 Q81.168 -37.498 82.401 -36.701 Q83.634 -35.905 83.634 -34.441 V-17.477 Q83.634 -9.686 78.193 -4.311 Q72.752 1.064 64.994 1.064 Z"/></g><g id="Light-S" transform="matrix(1 0 0 1 1109.75 696)"><path d="M75.681 -46.837 Q75.071 -46.837 74.867 -47.429 Q73.513 -53.18 69.356 -57.338 Q65.198 -61.496 59.44 -62.905 Q58.849 -63.109 58.849 -63.719 Q58.849 -64.431 59.44 -64.532 Q65.191 -65.888 69.343 -70.034 Q73.496 -74.18 74.904 -79.922 Q75.114 -80.552 75.755 -80.552 Q76.533 -80.552 76.495 -79.96 Q78.003 -74.206 82.11 -70.099 Q86.217 -65.992 91.972 -64.483 Q92.564 -64.382 92.564 -63.67 Q92.564 -63.06 91.972 -62.856 Q86.221 -61.502 82.063 -57.345 Q77.905 -53.187 76.495 -47.429 Q76.393 -46.837 75.681 -46.837 Z M64.349 -0.908 H30.194 Q22.934 -0.908 17.976 -5.866 Q13.019 -10.824 13.019 -18.084 V-52.337 Q13.019 -59.598 17.976 -64.575 Q22.934 -69.551 30.194 -69.551 H46.346 Q47.712 -69.551 48.413 -68.383 Q49.115 -67.215 48.698 -65.948 Q47.044 -59.841 48.766 -53.601 Q50.488 -47.361 54.979 -42.869 Q59.57 -38.279 65.76 -36.607 Q71.951 -34.934 78.058 -36.588 Q79.424 -37.005 80.542 -36.246 Q81.662 -35.487 81.662 -34.137 V-18.084 Q81.662 -10.824 76.619 -5.866 Q71.576 -0.908 64.349 -0.908 Z"/></g><g id="Thin-S" transform="matrix(1 0 0 1 814.015 696)"><path d="M74.657 -46.609 Q74.047 -46.609 73.843 -47.201 Q72.565 -52.687 68.635 -56.617 Q64.705 -60.547 59.212 -61.881 Q58.621 -62.085 58.621 -62.695 Q58.621 -63.407 59.212 -63.509 Q64.698 -64.787 68.623 -68.706 Q72.548 -72.626 73.88 -78.101 Q74.09 -78.732 74.731 -78.732 Q75.547 -78.732 75.471 -78.14 Q76.903 -72.65 80.783 -68.771 Q84.662 -64.891 90.151 -63.459 Q90.743 -63.358 90.743 -62.646 Q90.743 -62.035 90.151 -61.832 Q84.666 -60.554 80.735 -56.624 Q76.805 -52.694 75.471 -47.201 Q75.369 -46.609 74.657 -46.609 Z M63.704 -2.881 H30.802 Q24.072 -2.881 19.532 -7.422 Q14.991 -11.962 14.991 -18.692 V-51.692 Q14.991 -58.422 19.532 -63.001 Q24.072 -67.579 30.802 -67.579 H46.043 Q47.295 -67.579 47.958 -66.525 Q48.622 -65.47 48.281 -64.316 Q47.044 -58.513 48.861 -52.691 Q50.678 -46.868 54.828 -42.718 Q59.076 -38.47 64.85 -36.701 Q70.623 -34.934 76.426 -36.171 Q77.679 -36.512 78.684 -35.791 Q79.689 -35.07 79.689 -33.834 V-18.692 Q79.689 -11.962 75.045 -7.422 Q70.4 -2.881 63.704 -2.881 Z"/></g><g id="Ultralight-S" transform="matrix(1 0 0 1 517.792 696)"><path d="M74.043 -46.473 Q73.432 -46.473 73.229 -47.065 Q71.996 -52.391 68.202 -56.185 Q64.409 -59.978 59.076 -61.267 Q58.485 -61.47 58.485 -62.081 Q58.485 -62.793 59.076 -62.894 Q64.402 -64.127 68.19 -67.909 Q71.978 -71.693 73.266 -77.01 Q73.476 -77.639 74.117 -77.639 Q74.955 -77.639 74.856 -77.047 Q76.243 -71.717 79.986 -67.974 Q83.729 -64.232 89.058 -62.845 Q89.65 -62.743 89.65 -62.031 Q89.65 -61.421 89.058 -61.218 Q83.733 -59.985 79.939 -56.191 Q76.145 -52.398 74.856 -47.065 Q74.755 -46.473 74.043 -46.473 Z M63.317 -4.064 H31.166 Q24.755 -4.064 20.465 -8.355 Q16.175 -12.645 16.175 -19.055 V-51.306 Q16.175 -57.716 20.465 -62.056 Q24.755 -66.395 31.166 -66.395 H45.861 Q47.044 -66.395 47.685 -65.409 Q48.326 -64.423 48.03 -63.338 Q47.044 -57.716 48.918 -52.144 Q50.792 -46.572 54.737 -42.627 Q58.781 -38.583 64.303 -36.759 Q69.827 -34.934 75.448 -35.92 Q76.632 -36.216 77.569 -35.518 Q78.505 -34.82 78.505 -33.652 V-19.055 Q78.505 -12.645 74.1 -8.355 Q69.694 -4.064 63.317 -4.064 Z"/></g></g></svg>