<svg xmlns="http://www.w3.org/2000/svg" version="1.1" width="3300" height="2000"><g id="Notes"><style>
    text {
      font-family: monospace;
      text-anchor: middle;
    }
    text.emphasis {
      font-weight:bold;
    }
    text.lanchor {
      text-anchor: start;
    }
  </style><rect height="2200" id="artboard" fill="white" width="3300" x="0" y="0"/><line id="" style="fill:none;stroke:black;stroke-width:0.5;" x1="263" x2="3036" y1="292" y2="292"/><text class="lanchor emphasis" transform="matrix(1 0 0 1 263 322)">Weight/Scale Variations</text><text transform="matrix(1 0 0 1 559.711 322)">Ultralight</text><text transform="matrix(1 0 0 1 856.422 322)">Thin</text><text transform="matrix(1 0 0 1 1153.13 322)">Light</text><text transform="matrix(1 0 0 1 1449.84 322)">Regular</text><text transform="matrix(1 0 0 1 1746.56 322)">Medium</text><text transform="matrix(1 0 0 1 2043.27 322)">Semibold</text><text transform="matrix(1 0 0 1 2339.98 322)">Bold</text><text transform="matrix(1 0 0 1 2636.69 322)">Heavy</text><text transform="matrix(1 0 0 1 2933.4 322)">Black</text><text id="template-version" style="text-anchor: end;" transform="matrix(1 0 0 1 3036 1933)">Template v.1.0</text><text class="lanchor" transform="matrix(1 0 0 1 263 726)">Small</text><text class="lanchor" transform="matrix(1 0 0 1 263 1156)">Medium</text><text class="lanchor" transform="matrix(1 0 0 1 263 1586)">Large</text></g><g id="Guides"><g id="H-reference" style="fill:#27AAE1;stroke:none;" transform="matrix(1 0 0 1 339 696)"><path d="M 54.9316 0 L 57.666 0 L 30.5664 -70.459 L 28.0762 -70.459 L 0.976562 0 L 3.66211 0 L 12.9395 -24.4629 L 45.7031 -24.4629 Z M 29.1992 -67.0898 L 29.4434 -67.0898 L 44.8242 -26.709 L 13.8184 -26.709 Z"/></g><line id="Baseline-S" style="fill:none;stroke:#27AAE1;opacity:1;stroke-width:0.577;" x1="263" x2="3036" y1="696" y2="696"/><line id="Capline-S" style="fill:none;stroke:#27AAE1;opacity:1;stroke-width:0.577;" x1="263" x2="3036" y1="625.541" y2="625.541"/><g id="H-reference" style="fill:#27AAE1;stroke:none;" transform="matrix(1 0 0 1 339 1126)"><path d="M 54.9316 0 L 57.666 0 L 30.5664 -70.459 L 28.0762 -70.459 L 0.976562 0 L 3.66211 0 L 12.9395 -24.4629 L 45.7031 -24.4629 Z M 29.1992 -67.0898 L 29.4434 -67.0898 L 44.8242 -26.709 L 13.8184 -26.709 Z"/></g><line id="Baseline-M" style="fill:none;stroke:#27AAE1;opacity:1;stroke-width:0.577;" x1="263" x2="3036" y1="1126" y2="1126"/><line id="Capline-M" style="fill:none;stroke:#27AAE1;opacity:1;stroke-width:0.577;" x1="263" x2="3036" y1="1055.54" y2="1055.54"/><g id="H-reference" style="fill:#27AAE1;stroke:none;" transform="matrix(1 0 0 1 339 1556)"><path d="M 54.9316 0 L 57.666 0 L 30.5664 -70.459 L 28.0762 -70.459 L 0.976562 0 L 3.66211 0 L 12.9395 -24.4629 L 45.7031 -24.4629 Z M 29.1992 -67.0898 L 29.4434 -67.0898 L 44.8242 -26.709 L 13.8184 -26.709 Z"/></g><line id="Baseline-L" style="fill:none;stroke:#27AAE1;opacity:1;stroke-width:0.577;" x1="263" x2="3036" y1="1556" y2="1556"/><line id="Capline-L" style="fill:none;stroke:#27AAE1;opacity:1;stroke-width:0.577;" x1="263" x2="3036" y1="1485.54" y2="1485.54"/><rect height="119.336" id="left-margin" style="fill:darkred;stroke:none;opacity:0.4;" width="12.4512" x="1394.06" y="1030.79"/><rect height="119.336" id="right-margin" style="fill:darkgreen;stroke:none;opacity:0.4;" width="12.4512" x="1502.5112" y="1030.79"/><rect x="1406.5112" y="1045" width="96" height="96" fill="none" stroke="blue" stroke-dasharray="5"/><rect x="1394.06" y="1030.79" width="120.9024" height="119.336" fill="none" stroke="blue"/></g><g id="Symbols"><g id="Bold-L" transform="matrix(1 0 0 1 2266 1556)"><path d="M124.808 -53.129 Q123.884 -53.129 123.576 -54.053 Q120.997 -64.061 113.552 -71.5 Q106.106 -78.94 96.194 -81.567 Q95.299 -81.875 95.299 -82.799 Q95.299 -83.847 96.199 -83.997 Q106.151 -86.556 113.551 -93.948 Q120.949 -101.339 123.576 -111.384 Q123.884 -112.307 124.808 -112.307 Q125.893 -112.307 126.039 -111.384 Q128.666 -101.339 136.008 -93.919 Q143.348 -86.496 153.392 -83.95 Q154.316 -83.802 154.316 -82.758 Q154.316 -81.864 153.392 -81.567 Q143.348 -78.94 136.008 -71.518 Q128.666 -64.097 126.039 -54.053 Q125.886 -53.129 124.808 -53.129 Z M111.585 26.851 H43.376 Q31.663 26.851 23.491 18.679 Q15.319 10.507 15.319 -1.206 V-69.415 Q15.319 -81.186 23.491 -89.329 Q31.663 -97.472 43.376 -97.472 H77.561 Q79.782 -97.472 81.009 -95.296 Q82.237 -93.119 81.27 -91.184 Q76.11 -80.057 78.287 -68.044 Q80.464 -56.031 89.332 -47.082 Q98.04 -38.294 110.134 -36.117 Q122.228 -33.94 133.354 -39.1 Q135.289 -39.906 137.466 -38.713 Q139.643 -37.52 139.643 -35.391 V-1.206 Q139.643 10.507 131.419 18.679 Q123.195 26.851 111.585 26.851 Z"/></g><g id="Semibold-L" transform="matrix(1 0 0 1 1970.27 1556)"><path d="M123.266 -52.358 Q122.34 -52.358 122.032 -53.282 Q119.504 -63.026 112.314 -70.212 Q105.125 -77.397 95.436 -79.954 Q94.528 -80.262 94.528 -81.186 Q94.528 -82.247 95.437 -82.4 Q105.151 -84.918 112.314 -92.077 Q119.477 -99.237 122.032 -109 Q122.34 -109.924 123.266 -109.924 Q124.28 -109.924 124.498 -109 Q127.054 -99.237 134.184 -92.059 Q141.315 -84.884 151.078 -82.373 Q152.002 -82.221 152.002 -81.164 Q152.002 -80.256 151.078 -79.954 Q141.315 -77.397 134.184 -70.221 Q127.054 -63.046 124.498 -53.282 Q124.343 -52.358 123.266 -52.358 Z M111.235 25.098 H43.726 Q32.653 25.098 24.862 17.308 Q17.072 9.517 17.072 -1.556 V-69.065 Q17.072 -80.204 24.862 -87.926 Q32.653 -95.65 43.726 -95.65 H79.174 Q81.043 -95.65 82.096 -93.859 Q83.149 -92.067 82.392 -90.413 Q77.863 -79.708 80.109 -68.325 Q82.357 -56.942 90.735 -48.519 Q99.022 -40.187 110.45 -37.939 Q121.878 -35.693 132.583 -40.222 Q134.237 -40.888 136.029 -39.868 Q137.82 -38.847 137.82 -37.004 V-1.556 Q137.82 9.517 130.051 17.308 Q122.284 25.098 111.235 25.098 Z"/></g><g id="Medium-L" transform="matrix(1 0 0 1 1674.31 1556)"><path d="M122.108 -51.779 Q121.184 -51.779 120.876 -52.703 Q118.383 -62.249 111.387 -69.244 Q104.388 -76.241 94.867 -78.745 Q93.949 -79.053 93.949 -79.977 Q93.949 -81.048 94.868 -81.201 Q104.4 -83.689 111.385 -90.674 Q118.372 -97.658 120.876 -107.212 Q121.184 -108.136 122.108 -108.136 Q123.071 -108.136 123.342 -107.212 Q125.844 -97.658 132.817 -90.666 Q139.789 -83.674 149.343 -81.191 Q150.267 -81.038 150.267 -79.967 Q150.267 -79.05 149.343 -78.745 Q139.789 -76.241 132.817 -69.249 Q125.844 -62.257 123.342 -52.703 Q123.187 -51.779 122.108 -51.779 Z M110.972 23.784 H43.989 Q33.395 23.784 25.89 16.28 Q18.386 8.775 18.386 -1.819 V-68.802 Q18.386 -79.469 25.89 -86.875 Q33.395 -94.283 43.989 -94.283 H80.383 Q81.989 -94.283 82.912 -92.78 Q83.832 -91.279 83.232 -89.834 Q79.177 -79.445 81.476 -68.535 Q83.776 -57.626 91.787 -49.597 Q99.757 -41.606 110.685 -39.306 Q121.615 -37.007 132.004 -41.062 Q133.449 -41.624 134.95 -40.732 Q136.453 -39.842 136.453 -38.213 V-1.819 Q136.453 8.775 129.026 16.28 Q121.6 23.784 110.972 23.784 Z"/></g><g id="Regular-L" transform="matrix(1 0 0 1 1378.56 1556)"><path d="M121.26 -51.355 Q120.336 -51.355 120.028 -52.279 Q117.563 -61.678 110.705 -68.535 Q103.848 -75.393 94.449 -77.858 Q93.525 -78.166 93.525 -79.09 Q93.525 -80.169 94.449 -80.322 Q103.848 -82.787 110.705 -89.645 Q117.563 -96.502 120.028 -105.901 Q120.336 -106.825 121.26 -106.825 Q122.184 -106.825 122.492 -105.901 Q124.957 -96.502 131.815 -89.645 Q138.672 -82.787 148.071 -80.322 Q148.995 -80.169 148.995 -79.09 Q148.995 -78.166 148.071 -77.858 Q138.672 -75.393 131.815 -68.535 Q124.957 -61.678 122.492 -52.279 Q122.339 -51.355 121.26 -51.355 Z M110.779 22.82 H44.183 Q33.94 22.82 26.645 15.525 Q19.35 8.23 19.35 -2.012 V-68.609 Q19.35 -78.929 26.645 -86.104 Q33.94 -93.28 44.183 -93.28 H81.27 Q82.684 -93.28 83.508 -91.99 Q84.334 -90.7 83.85 -89.41 Q80.141 -79.251 82.479 -68.689 Q84.817 -58.127 92.558 -50.387 Q100.297 -42.647 110.859 -40.309 Q121.421 -37.971 131.58 -41.68 Q132.87 -42.164 134.16 -41.367 Q135.45 -40.571 135.45 -39.1 V-2.012 Q135.45 8.23 128.274 15.525 Q121.099 22.82 110.779 22.82 Z"/></g><g id="Light-L" transform="matrix(1 0 0 1 1082.77 1556)"><path d="M119.073 -50.115 Q118.138 -50.115 117.825 -51.039 Q115.453 -60.129 108.881 -66.711 Q102.307 -73.293 93.22 -75.668 Q92.285 -75.981 92.285 -76.92 Q92.285 -77.998 93.209 -78.152 Q102.3 -80.522 108.876 -87.086 Q115.453 -93.651 117.827 -102.726 Q118.14 -103.661 119.077 -103.661 Q120.076 -103.661 120.322 -102.726 Q122.663 -93.648 129.24 -87.085 Q135.816 -80.522 144.907 -78.152 Q145.831 -77.995 145.831 -76.903 Q145.831 -75.968 144.907 -75.655 Q135.818 -73.283 129.255 -66.706 Q122.692 -60.13 120.322 -51.039 Q120.165 -50.115 119.073 -50.115 Z M109.415 19.595 H45.423 Q35.986 19.595 29.28 12.89 Q22.575 6.184 22.575 -3.253 V-67.245 Q22.575 -76.758 29.28 -83.407 Q35.986 -90.055 45.423 -90.055 H79.161 Q80.533 -90.055 81.378 -88.889 Q82.225 -87.723 81.804 -86.433 Q79.025 -76.645 81.61 -66.674 Q84.197 -56.7 91.503 -49.333 Q98.87 -42.027 108.844 -39.44 Q118.815 -36.855 128.603 -39.634 Q129.893 -39.993 131.059 -39.194 Q132.225 -38.395 132.225 -36.991 V-3.253 Q132.225 6.184 125.577 12.89 Q118.928 19.595 109.415 19.595 Z"/></g><g id="Thin-L" transform="matrix(1 0 0 1 787.282 1556)"><path d="M116.887 -48.875 Q115.94 -48.875 115.624 -49.799 Q113.344 -58.577 107.055 -64.885 Q100.765 -71.194 91.993 -73.48 Q91.045 -73.798 91.045 -74.749 Q91.045 -75.828 91.969 -75.981 Q100.752 -78.256 107.049 -84.529 Q113.344 -90.802 115.628 -99.553 Q115.945 -100.499 116.893 -100.499 Q117.967 -100.499 118.151 -99.553 Q120.368 -90.795 126.665 -84.526 Q132.962 -78.255 141.745 -75.981 Q142.669 -75.823 142.669 -74.717 Q142.669 -73.77 141.745 -73.454 Q132.965 -71.174 126.696 -64.879 Q120.425 -58.582 118.151 -49.799 Q117.993 -48.875 116.887 -48.875 Z M108.05 16.37 H46.663 Q38.032 16.37 31.916 10.254 Q25.8 4.138 25.8 -4.493 V-65.88 Q25.8 -74.588 31.916 -80.709 Q38.032 -86.83 46.663 -86.83 H77.053 Q78.38 -86.83 79.248 -85.788 Q80.117 -84.747 79.757 -83.457 Q77.908 -74.041 80.743 -64.658 Q83.577 -55.275 90.448 -48.278 Q97.445 -41.407 106.828 -38.573 Q116.211 -35.738 125.627 -37.587 Q126.917 -37.823 127.958 -37.021 Q129 -36.22 129 -34.883 V-4.493 Q129 4.138 122.879 10.254 Q116.758 16.37 108.05 16.37 Z"/></g><g id="Ultralight-L" transform="matrix(1 0 0 1 491.205 1556)"><path d="M115.576 -48.13 Q114.621 -48.13 114.304 -49.054 Q112.08 -57.647 105.961 -63.791 Q99.841 -69.934 91.256 -72.168 Q90.3 -72.487 90.3 -73.446 Q90.3 -74.525 91.224 -74.678 Q99.823 -76.897 105.951 -82.994 Q112.08 -89.092 114.309 -97.648 Q114.628 -98.601 115.584 -98.601 Q116.701 -98.601 116.848 -97.648 Q118.991 -89.084 125.12 -82.989 Q131.248 -76.895 139.847 -74.678 Q140.771 -74.52 140.771 -73.406 Q140.771 -72.451 139.847 -72.134 Q131.254 -69.91 125.159 -63.781 Q119.065 -57.653 116.848 -49.054 Q116.69 -48.13 115.576 -48.13 Z M107.231 14.435 H47.407 Q39.261 14.435 33.498 8.672 Q27.735 2.909 27.735 -5.237 V-65.061 Q27.735 -73.285 33.498 -79.09 Q39.261 -84.895 47.407 -84.895 H75.788 Q77.09 -84.895 77.971 -83.927 Q78.851 -82.96 78.529 -81.67 Q77.239 -72.479 80.222 -63.449 Q83.205 -54.419 89.816 -47.646 Q96.589 -41.035 105.619 -38.052 Q114.649 -35.069 123.84 -36.359 Q125.13 -36.52 126.097 -35.717 Q127.065 -34.914 127.065 -33.617 V-5.237 Q127.065 2.909 121.26 8.672 Q115.455 14.435 107.231 14.435 Z"/></g><g id="Bold-M" transform="matrix(1 0 0 1 2281.8 1126)"><path d="M96.125 -47.105 Q95.375 -47.105 95.125 -47.855 Q93 -56.105 86.875 -62.23 Q80.75 -68.355 72.5 -70.48 Q71.75 -70.73 71.75 -71.48 Q71.75 -72.355 72.5 -72.48 Q80.75 -74.605 86.875 -80.73 Q93 -86.855 95.125 -95.105 Q95.375 -95.855 96.125 -95.855 Q97 -95.855 97.125 -95.105 Q99.25 -86.855 105.375 -80.73 Q111.5 -74.605 119.75 -72.48 Q120.5 -72.355 120.5 -71.48 Q120.5 -70.73 119.75 -70.48 Q111.5 -68.355 105.375 -62.23 Q99.25 -56.105 97.125 -47.855 Q97 -47.105 96.125 -47.105 Z M85.75 14.02 H34.125 Q24.375 14.02 17.562 7.208 Q10.75 0.395 10.75 -9.355 V-61.105 Q10.75 -70.855 17.562 -77.667 Q24.375 -84.48 34.125 -84.48 H54.5 Q56.875 -84.48 58.125 -82.417 Q59.375 -80.355 58.375 -78.105 Q54.75 -68.73 56.688 -58.792 Q58.625 -48.855 66.125 -41.355 Q73.5 -33.98 83.5 -31.98 Q93.5 -29.98 102.875 -33.605 Q105.125 -34.48 107.188 -33.23 Q109.25 -31.98 109.25 -29.73 V-9.355 Q109.25 0.395 102.375 7.208 Q95.5 14.02 85.75 14.02 Z"/></g><g id="Semibold-M" transform="matrix(1 0 0 1 1985.97 1126)"><path d="M94.549 -46.29 Q93.799 -46.29 93.549 -47.04 Q91.479 -55.017 85.597 -60.899 Q79.718 -66.779 71.739 -68.85 Q70.989 -69.1 70.989 -69.85 Q70.989 -70.725 71.739 -70.85 Q79.718 -72.92 85.597 -78.801 Q91.479 -84.681 93.549 -92.66 Q93.799 -93.41 94.549 -93.41 Q95.37 -93.41 95.549 -92.66 Q97.62 -84.681 103.5 -78.801 Q109.38 -72.92 117.359 -70.85 Q118.109 -70.725 118.109 -69.85 Q118.109 -69.1 117.359 -68.85 Q109.38 -66.779 103.5 -60.899 Q97.62 -55.017 95.549 -47.04 Q95.424 -46.29 94.549 -46.29 Z M85.424 12.173 H34.505 Q25.407 12.173 19.003 5.768 Q12.598 -0.637 12.598 -9.735 V-60.725 Q12.598 -69.822 19.003 -76.227 Q25.407 -82.632 34.505 -82.632 H56.185 Q58.179 -82.632 59.266 -80.95 Q60.354 -79.267 59.57 -77.344 Q56.544 -68.404 58.562 -59.119 Q60.581 -49.834 67.593 -42.822 Q74.532 -35.882 83.854 -33.827 Q93.174 -31.774 102.114 -34.8 Q104.037 -35.459 105.72 -34.399 Q107.403 -33.339 107.403 -31.415 V-9.735 Q107.403 -0.637 100.963 5.768 Q94.521 12.173 85.424 12.173 Z"/></g><g id="Medium-M" transform="matrix(1 0 0 1 1689.91 1126)"><path d="M93.366 -45.679 Q92.616 -45.679 92.366 -46.429 Q90.338 -54.202 84.64 -59.9 Q78.942 -65.596 71.169 -67.626 Q70.419 -67.876 70.419 -68.626 Q70.419 -69.501 71.169 -69.626 Q78.942 -71.656 84.64 -77.354 Q90.338 -83.051 92.366 -90.825 Q92.616 -91.575 93.366 -91.575 Q94.146 -91.575 94.366 -90.825 Q96.396 -83.051 102.094 -77.354 Q107.791 -71.656 115.565 -69.626 Q116.315 -69.501 116.315 -68.626 Q116.315 -67.876 115.565 -67.626 Q107.791 -65.596 102.094 -59.9 Q96.396 -54.202 94.366 -46.429 Q94.241 -45.679 93.366 -45.679 Z M85.179 10.786 H34.791 Q26.183 10.786 20.082 4.688 Q13.984 -1.412 13.984 -10.021 V-60.439 Q13.984 -69.047 20.082 -75.147 Q26.183 -81.246 34.791 -81.246 H57.449 Q59.157 -81.246 60.123 -79.85 Q61.087 -78.452 60.468 -76.774 Q57.889 -68.159 59.969 -59.364 Q62.049 -50.567 68.692 -43.922 Q75.308 -37.309 84.119 -35.214 Q92.929 -33.119 101.544 -35.697 Q103.222 -36.192 104.62 -35.275 Q106.016 -34.357 106.016 -32.679 V-10.021 Q106.016 -1.412 99.903 4.688 Q93.787 10.786 85.179 10.786 Z"/></g><g id="Regular-M" transform="matrix(1 0 0 1 1394.06 1126)"><path d="M92.5 -45.23 Q91.75 -45.23 91.5 -45.98 Q89.5 -53.605 83.938 -59.167 Q78.375 -64.73 70.75 -66.73 Q70 -66.98 70 -67.73 Q70 -68.605 70.75 -68.73 Q78.375 -70.73 83.938 -76.292 Q89.5 -81.855 91.5 -89.48 Q91.75 -90.23 92.5 -90.23 Q93.25 -90.23 93.5 -89.48 Q95.5 -81.855 101.062 -76.292 Q106.625 -70.73 114.25 -68.73 Q115 -68.605 115 -67.73 Q115 -66.98 114.25 -66.73 Q106.625 -64.73 101.062 -59.167 Q95.5 -53.605 93.5 -45.98 Q93.375 -45.23 92.5 -45.23 Z M85 9.77 H35 Q26.75 9.77 20.875 3.895 Q15 -1.98 15 -10.23 V-60.23 Q15 -68.48 20.875 -74.355 Q26.75 -80.23 35 -80.23 H58.375 Q59.875 -80.23 60.75 -79.042 Q61.625 -77.855 61.125 -76.355 Q58.875 -67.98 61 -59.542 Q63.125 -51.105 69.5 -44.73 Q75.875 -38.355 84.312 -36.23 Q92.75 -34.105 101.125 -36.355 Q102.625 -36.73 103.812 -35.917 Q105 -35.105 105 -33.605 V-10.23 Q105 -1.98 99.125 3.895 Q93.25 9.77 85 9.77 Z"/></g><g id="Light-M" transform="matrix(1 0 0 1 1098.18 1126)"><path d="M91.201 -44.941 Q90.451 -44.941 90.201 -45.691 Q88.297 -52.98 83.024 -58.254 Q77.75 -63.527 70.461 -65.431 Q69.711 -65.681 69.711 -66.431 Q69.711 -67.306 70.461 -67.431 Q77.75 -69.336 83.024 -74.61 Q88.297 -79.884 90.201 -87.172 Q90.451 -87.922 91.201 -87.922 Q92 -87.922 92.201 -87.172 Q94.106 -79.884 99.38 -74.61 Q104.654 -69.336 111.942 -67.431 Q112.692 -67.306 112.692 -66.431 Q112.692 -65.681 111.942 -65.431 Q104.654 -63.527 99.38 -58.254 Q94.106 -52.98 92.201 -45.691 Q92.076 -44.941 91.201 -44.941 Z M84.183 7.27 H35.769 Q28.192 7.27 22.846 1.924 Q17.5 -3.422 17.5 -10.999 V-59.412 Q17.5 -66.99 22.846 -72.36 Q28.192 -77.73 35.769 -77.73 H57.99 Q59.346 -77.73 60.172 -76.686 Q61 -75.644 60.596 -74.287 Q58.875 -66.297 61.12 -58.389 Q63.365 -50.48 69.308 -44.537 Q75.25 -38.595 83.159 -36.35 Q91.067 -34.105 99.058 -35.826 Q100.414 -36.105 101.456 -35.34 Q102.5 -34.576 102.5 -33.22 V-10.999 Q102.5 -3.422 97.13 1.924 Q91.76 7.27 84.183 7.27 Z"/></g><g id="Thin-M" transform="matrix(1 0 0 1 802.565 1126)"><path d="M89.904 -44.652 Q89.154 -44.652 88.904 -45.402 Q87.096 -52.355 82.11 -57.34 Q77.125 -62.326 70.172 -64.134 Q69.422 -64.384 69.422 -65.134 Q69.422 -66.009 70.172 -66.134 Q77.125 -67.941 82.11 -72.927 Q87.096 -77.912 88.904 -84.865 Q89.154 -85.615 89.904 -85.615 Q90.75 -85.615 90.904 -84.865 Q92.711 -77.912 97.698 -72.927 Q102.683 -67.941 109.635 -66.134 Q110.385 -66.009 110.385 -65.134 Q110.385 -64.384 109.635 -64.134 Q102.683 -62.326 97.698 -57.34 Q92.711 -52.355 90.904 -45.402 Q90.779 -44.652 89.904 -44.652 Z M83.365 4.77 H36.539 Q29.635 4.77 24.817 -0.047 Q20 -4.865 20 -11.769 V-58.595 Q20 -65.499 24.817 -70.365 Q29.635 -75.23 36.539 -75.23 H57.606 Q58.818 -75.23 59.596 -74.331 Q60.375 -73.432 60.068 -72.22 Q58.875 -64.615 61.24 -57.235 Q63.606 -49.855 69.115 -44.345 Q74.625 -38.836 82.005 -36.47 Q89.385 -34.105 96.99 -35.297 Q98.203 -35.48 99.101 -34.764 Q100 -34.047 100 -32.836 V-11.769 Q100 -4.865 95.135 -0.047 Q90.269 4.77 83.365 4.77 Z"/></g><g id="Ultralight-M" transform="matrix(1 0 0 1 506.415 1126)"><path d="M89.125 -44.48 Q88.375 -44.48 88.125 -45.23 Q86.375 -51.98 81.562 -56.792 Q76.75 -61.605 70 -63.355 Q69.25 -63.605 69.25 -64.355 Q69.25 -65.23 70 -65.355 Q76.75 -67.105 81.562 -71.917 Q86.375 -76.73 88.125 -83.48 Q88.375 -84.23 89.125 -84.23 Q90 -84.23 90.125 -83.48 Q91.875 -76.73 96.688 -71.917 Q101.5 -67.105 108.25 -65.355 Q109 -65.23 109 -64.355 Q109 -63.605 108.25 -63.355 Q101.5 -61.605 96.688 -56.792 Q91.875 -51.98 90.125 -45.23 Q90 -44.48 89.125 -44.48 Z M82.875 3.27 H37 Q30.5 3.27 26 -1.23 Q21.5 -5.73 21.5 -12.23 V-58.105 Q21.5 -64.605 26 -69.167 Q30.5 -73.73 37 -73.73 H57.375 Q58.5 -73.73 59.25 -72.917 Q60 -72.105 59.75 -70.98 Q58.875 -63.605 61.312 -56.542 Q63.75 -49.48 69 -44.23 Q74.25 -38.98 81.312 -36.542 Q88.375 -34.105 95.75 -34.98 Q96.875 -35.105 97.688 -34.417 Q98.5 -33.73 98.5 -32.605 V-12.23 Q98.5 -5.73 93.938 -1.23 Q89.375 3.27 82.875 3.27 Z"/></g><g id="Bold-S" transform="matrix(1 0 0 1 2294.23 696)"><path d="M76.237 -46.177 Q75.645 -46.177 75.448 -46.769 Q73.969 -52.884 69.432 -57.421 Q64.895 -61.957 58.781 -63.437 Q58.189 -63.634 58.189 -64.226 Q58.189 -64.916 58.781 -65.015 Q64.895 -66.494 69.432 -71.031 Q73.969 -75.568 75.448 -81.682 Q75.645 -82.274 76.237 -82.274 Q77.026 -82.274 77.026 -81.682 Q78.604 -75.568 83.092 -71.08 Q87.579 -66.593 93.694 -65.015 Q94.285 -64.916 94.285 -64.226 Q94.285 -63.634 93.694 -63.437 Q87.579 -61.957 83.042 -57.421 Q78.505 -52.884 77.026 -46.769 Q76.928 -46.177 76.237 -46.177 Z M64.501 1.261 H30.081 Q21.993 1.261 16.421 -4.311 Q10.849 -9.883 10.849 -17.971 V-52.489 Q10.849 -60.577 16.421 -66.149 Q21.993 -71.721 30.081 -71.721 H44.973 Q46.748 -71.721 47.636 -70.193 Q48.524 -68.664 47.932 -66.987 Q45.762 -60.478 47.34 -53.673 Q48.918 -46.868 53.948 -41.838 Q58.978 -36.808 65.783 -35.23 Q72.588 -33.652 79.097 -35.822 Q80.774 -36.413 82.303 -35.477 Q83.831 -34.54 83.831 -32.863 V-17.971 Q83.831 -9.883 78.21 -4.311 Q72.588 1.261 64.501 1.261 Z"/></g><g id="Semibold-S" transform="matrix(1 0 0 1 1998.1 696)"><path d="M74.993 -45.534 Q74.402 -45.534 74.204 -46.126 Q72.768 -52.026 68.424 -56.37 Q64.081 -60.714 58.18 -62.151 Q57.588 -62.348 57.588 -62.94 Q57.588 -63.63 58.18 -63.729 Q64.081 -65.165 68.424 -69.509 Q72.768 -73.853 74.204 -79.753 Q74.402 -80.345 74.993 -80.345 Q75.74 -80.345 75.782 -79.753 Q77.318 -73.853 81.612 -69.558 Q85.906 -65.263 91.807 -63.729 Q92.399 -63.63 92.399 -62.94 Q92.399 -62.348 91.807 -62.151 Q85.906 -60.714 81.563 -56.37 Q77.219 -52.026 75.782 -46.126 Q75.684 -45.534 74.993 -45.534 Z M64.243 -0.196 H30.38 Q22.808 -0.196 17.557 -5.447 Q12.306 -10.698 12.306 -18.27 V-52.19 Q12.306 -59.762 17.557 -65.013 Q22.808 -70.264 30.38 -70.264 H46.302 Q47.777 -70.264 48.536 -69.035 Q49.296 -67.806 48.875 -66.387 Q47.177 -60.221 48.819 -53.93 Q50.461 -47.64 55.106 -42.996 Q59.792 -38.309 66.062 -36.688 Q72.331 -35.067 78.497 -36.765 Q79.916 -37.186 81.145 -36.399 Q82.374 -35.612 82.374 -34.192 V-18.27 Q82.374 -10.698 77.095 -5.447 Q71.816 -0.196 64.243 -0.196 Z"/></g><g id="Medium-S" transform="matrix(1 0 0 1 1701.85 696)"><path d="M74.06 -45.052 Q73.469 -45.052 73.271 -45.644 Q71.868 -51.383 67.669 -55.582 Q63.469 -59.781 57.73 -61.185 Q57.138 -61.382 57.138 -61.974 Q57.138 -62.665 57.73 -62.763 Q63.469 -64.168 67.669 -68.367 Q71.868 -72.566 73.271 -78.305 Q73.469 -78.897 74.06 -78.897 Q74.775 -78.897 74.849 -78.305 Q76.353 -72.566 80.503 -68.416 Q84.653 -64.266 90.392 -62.763 Q90.984 -62.665 90.984 -61.974 Q90.984 -61.382 90.392 -61.185 Q84.653 -59.781 80.453 -55.582 Q76.254 -51.383 74.849 -45.644 Q74.751 -45.052 74.06 -45.052 Z M64.05 -1.29 H30.606 Q23.419 -1.29 18.409 -6.299 Q13.4 -11.309 13.4 -18.496 V-51.964 Q13.4 -59.151 18.409 -64.161 Q23.419 -69.17 30.606 -69.17 H47.3 Q48.549 -69.17 49.212 -68.167 Q49.875 -67.163 49.583 -65.937 Q48.238 -60.027 49.929 -54.124 Q51.619 -48.219 55.974 -43.864 Q60.404 -39.434 66.271 -37.781 Q72.137 -36.128 78.047 -37.473 Q79.273 -37.765 80.277 -37.09 Q81.28 -36.415 81.28 -35.19 V-18.496 Q81.28 -11.309 76.259 -6.299 Q71.237 -1.29 64.05 -1.29 Z"/></g><g id="Regular-S" transform="matrix(1 0 0 1 1405.73 696)"><path d="M73.377 -44.698 Q72.785 -44.698 72.588 -45.29 Q71.207 -50.911 67.114 -55.004 Q63.021 -59.097 57.4 -60.478 Q56.808 -60.675 56.808 -61.267 Q56.808 -61.957 57.4 -62.056 Q63.021 -63.437 67.114 -67.53 Q71.207 -71.623 72.588 -77.244 Q72.785 -77.836 73.377 -77.836 Q74.067 -77.836 74.166 -77.244 Q75.645 -71.623 79.689 -67.579 Q83.733 -63.535 89.354 -62.056 Q89.946 -61.957 89.946 -61.267 Q89.946 -60.675 89.354 -60.478 Q83.733 -59.097 79.64 -55.004 Q75.547 -50.911 74.166 -45.29 Q74.067 -44.698 73.377 -44.698 Z M63.909 -2.092 H30.771 Q23.867 -2.092 19.035 -6.925 Q14.202 -11.757 14.202 -18.661 V-51.799 Q14.202 -58.703 19.035 -63.535 Q23.867 -68.368 30.771 -68.368 H48.03 Q49.115 -68.368 49.707 -67.53 Q50.299 -66.691 50.102 -65.606 Q49.017 -59.886 50.743 -54.265 Q52.468 -48.643 56.611 -44.501 Q60.852 -40.26 66.424 -38.583 Q71.996 -36.907 77.716 -37.991 Q78.801 -38.189 79.64 -37.597 Q80.478 -37.005 80.478 -35.92 V-18.661 Q80.478 -11.757 75.645 -6.925 Q70.813 -2.092 63.909 -2.092 Z"/></g><g id="Light-S" transform="matrix(1 0 0 1 1109.75 696)"><path d="M72.352 -44.47 Q71.761 -44.47 71.563 -45.062 Q70.258 -50.418 66.393 -54.283 Q62.528 -58.148 57.172 -59.453 Q56.58 -59.651 56.58 -60.242 Q56.58 -60.933 57.172 -61.031 Q62.528 -62.337 66.393 -66.202 Q70.258 -70.067 71.563 -75.424 Q71.761 -76.015 72.352 -76.015 Q73.081 -76.015 73.141 -75.424 Q74.546 -70.067 78.362 -66.252 Q82.177 -62.436 87.534 -61.031 Q88.125 -60.933 88.125 -60.242 Q88.125 -59.651 87.534 -59.453 Q82.177 -58.148 78.312 -54.283 Q74.447 -50.418 73.141 -45.062 Q73.043 -44.47 72.352 -44.47 Z M63.264 -4.064 H31.378 Q25.005 -4.064 20.59 -8.48 Q16.175 -12.895 16.175 -19.268 V-51.154 Q16.175 -57.527 20.59 -61.961 Q25.005 -66.395 31.378 -66.395 H47.727 Q48.698 -66.395 49.251 -65.671 Q49.806 -64.947 49.684 -63.975 Q49.017 -58.559 50.837 -53.354 Q52.658 -48.15 56.459 -44.349 Q60.358 -40.449 65.514 -38.678 Q70.669 -36.907 76.085 -37.574 Q77.057 -37.696 77.781 -37.141 Q78.505 -36.588 78.505 -35.617 V-19.268 Q78.505 -12.895 74.071 -8.48 Q69.637 -4.064 63.264 -4.064 Z"/></g><g id="Thin-S" transform="matrix(1 0 0 1 814.015 696)"><path d="M71.329 -44.242 Q70.737 -44.242 70.54 -44.834 Q69.311 -49.925 65.672 -53.562 Q62.035 -57.201 56.944 -58.43 Q56.352 -58.627 56.352 -59.219 Q56.352 -59.909 56.944 -60.008 Q62.035 -61.236 65.672 -64.875 Q69.311 -68.512 70.54 -73.603 Q70.737 -74.195 71.329 -74.195 Q72.095 -74.195 72.118 -73.603 Q73.445 -68.512 77.034 -64.924 Q80.622 -61.335 85.713 -60.008 Q86.305 -59.909 86.305 -59.219 Q86.305 -58.627 85.713 -58.43 Q80.622 -57.201 76.985 -53.562 Q73.346 -49.925 72.118 -44.834 Q72.019 -44.242 71.329 -44.242 Z M62.619 -6.037 H31.985 Q26.144 -6.037 22.145 -10.035 Q18.147 -14.034 18.147 -19.875 V-50.509 Q18.147 -56.351 22.145 -60.387 Q26.144 -64.423 31.985 -64.423 H47.424 Q48.281 -64.423 48.797 -63.813 Q49.312 -63.202 49.267 -62.344 Q49.017 -57.231 50.932 -52.444 Q52.848 -47.657 56.307 -44.197 Q59.865 -40.64 64.603 -38.773 Q69.341 -36.907 74.454 -37.157 Q75.312 -37.202 75.923 -36.687 Q76.533 -36.171 76.533 -35.314 V-19.875 Q76.533 -14.034 72.497 -10.035 Q68.461 -6.037 62.619 -6.037 Z"/></g><g id="Ultralight-S" transform="matrix(1 0 0 1 517.792 696)"><path d="M70.714 -44.106 Q70.122 -44.106 69.925 -44.698 Q68.742 -49.629 65.24 -53.13 Q61.739 -56.632 56.808 -57.815 Q56.216 -58.012 56.216 -58.604 Q56.216 -59.294 56.808 -59.393 Q61.739 -60.577 65.24 -64.078 Q68.742 -67.579 69.925 -72.51 Q70.122 -73.102 70.714 -73.102 Q71.503 -73.102 71.503 -72.51 Q72.785 -67.579 76.237 -64.127 Q79.689 -60.675 84.62 -59.393 Q85.212 -59.294 85.212 -58.604 Q85.212 -58.012 84.62 -57.815 Q79.689 -56.632 76.188 -53.13 Q72.687 -49.629 71.503 -44.698 Q71.404 -44.106 70.714 -44.106 Z M62.232 -7.22 H32.349 Q26.826 -7.22 23.078 -10.968 Q19.331 -14.716 19.331 -20.239 V-50.122 Q19.331 -55.645 23.078 -59.442 Q26.826 -63.239 32.349 -63.239 H47.241 Q48.03 -63.239 48.524 -62.697 Q49.017 -62.155 49.017 -61.366 Q49.017 -56.434 50.989 -51.898 Q52.962 -47.361 56.216 -44.106 Q59.57 -40.753 64.057 -38.83 Q68.544 -36.907 73.476 -36.907 Q74.265 -36.907 74.807 -36.413 Q75.35 -35.92 75.35 -35.131 V-20.239 Q75.35 -14.716 71.552 -10.968 Q67.755 -7.22 62.232 -7.22 Z"/></g></g></svg>