<svg xmlns="http://www.w3.org/2000/svg" height="40" viewBox="0 -960 960 960" width="40"><path d="m666.83-386.59-68.76-67.42L810.8-666.17 701.14-776.39 488.61-564.9l-67.52-68.27 282.05-282.06 245.93 247.06-282.24 281.58ZM337.99-193.55l156.78-156.78-110.03-110.03-156.78 156.78 110.03 110.03Zm100.53-211.8Zm105.2-104.53Zm263 472.73L561.91-281.39 371.32-91.46h-68.38l-42.81-42.44-38.38 37.81H33.44L165.3-228.06l-40.2-41.14v-68.28l191.26-190.59L36.81-807.06l57.68-57.68L864.41-94.83l-57.69 57.68Z"/></svg>