<svg xmlns="http://www.w3.org/2000/svg" version="1.1" width="3300" height="2000"><g id="Notes"><style>
    text {
      font-family: monospace;
      text-anchor: middle;
    }
    text.emphasis {
      font-weight:bold;
    }
    text.lanchor {
      text-anchor: start;
    }
  </style><rect height="2200" id="artboard" fill="white" width="3300" x="0" y="0"/><line id="" style="fill:none;stroke:black;stroke-width:0.5;" x1="263" x2="3036" y1="292" y2="292"/><text class="lanchor emphasis" transform="matrix(1 0 0 1 263 322)">Weight/Scale Variations</text><text transform="matrix(1 0 0 1 559.711 322)">Ultralight</text><text transform="matrix(1 0 0 1 856.422 322)">Thin</text><text transform="matrix(1 0 0 1 1153.13 322)">Light</text><text transform="matrix(1 0 0 1 1449.84 322)">Regular</text><text transform="matrix(1 0 0 1 1746.56 322)">Medium</text><text transform="matrix(1 0 0 1 2043.27 322)">Semibold</text><text transform="matrix(1 0 0 1 2339.98 322)">Bold</text><text transform="matrix(1 0 0 1 2636.69 322)">Heavy</text><text transform="matrix(1 0 0 1 2933.4 322)">Black</text><text id="template-version" style="text-anchor: end;" transform="matrix(1 0 0 1 3036 1933)">Template v.1.0</text><text class="lanchor" transform="matrix(1 0 0 1 263 726)">Small</text><text class="lanchor" transform="matrix(1 0 0 1 263 1156)">Medium</text><text class="lanchor" transform="matrix(1 0 0 1 263 1586)">Large</text></g><g id="Guides"><g id="H-reference" style="fill:#27AAE1;stroke:none;" transform="matrix(1 0 0 1 339 696)"><path d="M 54.9316 0 L 57.666 0 L 30.5664 -70.459 L 28.0762 -70.459 L 0.976562 0 L 3.66211 0 L 12.9395 -24.4629 L 45.7031 -24.4629 Z M 29.1992 -67.0898 L 29.4434 -67.0898 L 44.8242 -26.709 L 13.8184 -26.709 Z"/></g><line id="Baseline-S" style="fill:none;stroke:#27AAE1;opacity:1;stroke-width:0.577;" x1="263" x2="3036" y1="696" y2="696"/><line id="Capline-S" style="fill:none;stroke:#27AAE1;opacity:1;stroke-width:0.577;" x1="263" x2="3036" y1="625.541" y2="625.541"/><g id="H-reference" style="fill:#27AAE1;stroke:none;" transform="matrix(1 0 0 1 339 1126)"><path d="M 54.9316 0 L 57.666 0 L 30.5664 -70.459 L 28.0762 -70.459 L 0.976562 0 L 3.66211 0 L 12.9395 -24.4629 L 45.7031 -24.4629 Z M 29.1992 -67.0898 L 29.4434 -67.0898 L 44.8242 -26.709 L 13.8184 -26.709 Z"/></g><line id="Baseline-M" style="fill:none;stroke:#27AAE1;opacity:1;stroke-width:0.577;" x1="263" x2="3036" y1="1126" y2="1126"/><line id="Capline-M" style="fill:none;stroke:#27AAE1;opacity:1;stroke-width:0.577;" x1="263" x2="3036" y1="1055.54" y2="1055.54"/><g id="H-reference" style="fill:#27AAE1;stroke:none;" transform="matrix(1 0 0 1 339 1556)"><path d="M 54.9316 0 L 57.666 0 L 30.5664 -70.459 L 28.0762 -70.459 L 0.976562 0 L 3.66211 0 L 12.9395 -24.4629 L 45.7031 -24.4629 Z M 29.1992 -67.0898 L 29.4434 -67.0898 L 44.8242 -26.709 L 13.8184 -26.709 Z"/></g><line id="Baseline-L" style="fill:none;stroke:#27AAE1;opacity:1;stroke-width:0.577;" x1="263" x2="3036" y1="1556" y2="1556"/><line id="Capline-L" style="fill:none;stroke:#27AAE1;opacity:1;stroke-width:0.577;" x1="263" x2="3036" y1="1485.54" y2="1485.54"/><rect height="119.336" id="left-margin" style="fill:darkred;stroke:none;opacity:0.4;" width="12.4512" x="1394.06" y="1030.79"/><rect height="119.336" id="right-margin" style="fill:darkgreen;stroke:none;opacity:0.4;" width="12.4512" x="1502.5112" y="1030.79"/><rect x="1406.5112" y="1045" width="96" height="96" fill="none" stroke="blue" stroke-dasharray="5"/><rect x="1394.06" y="1030.79" width="120.9024" height="119.336" fill="none" stroke="blue"/></g><g id="Symbols"><g id="Bold-L" transform="matrix(1 0 0 1 2266 1556)"><path d="M51.922 -28.78 H102.877 V-38.455 H51.922 V-28.78 Z M77.295 -63.61 Q80.404 -63.61 82.612 -65.787 Q84.817 -67.964 84.817 -71.086 Q84.817 -74.207 82.599 -76.326 Q80.378 -78.445 77.237 -78.445 Q74.346 -78.445 72.245 -76.305 Q70.144 -74.167 70.144 -71.005 Q70.144 -67.964 72.23 -65.787 Q74.315 -63.61 77.295 -63.61 Z M17.576 29.109 V-53.29 H1.129 L77.239 -108.438 L153.671 -53.29 H137.385 V29.109 H102.877 V-16.686 H51.922 V29.109 H17.576 Z"/></g><g id="Semibold-L" transform="matrix(1 0 0 1 1970.27 1556)"><path d="M51.361 -29.13 H103.439 V-38.805 H51.361 V-29.13 Z M77.363 -61.648 Q80.124 -61.648 82.155 -63.649 Q84.187 -65.65 84.187 -68.48 Q84.187 -71.308 82.149 -73.229 Q80.109 -75.151 77.295 -75.151 Q74.622 -75.151 72.698 -73.209 Q70.774 -71.268 70.774 -68.399 Q70.774 -65.65 72.698 -63.649 Q74.622 -61.648 77.363 -61.648 Z M20.03 26.235 V-51.047 H1.55 L77.308 -105.633 L153.25 -51.047 H134.861 V26.235 H103.439 V-18.089 H51.361 V26.235 H20.03 Z"/></g><g id="Medium-L" transform="matrix(1 0 0 1 1674.31 1556)"><path d="M50.94 -29.393 H103.86 V-39.068 H50.94 V-29.393 Z M77.415 -60.175 Q79.914 -60.175 81.813 -62.044 Q83.713 -63.915 83.713 -66.524 Q83.713 -69.134 81.81 -70.907 Q79.907 -72.679 77.339 -72.679 Q74.83 -72.679 73.038 -70.886 Q71.248 -69.094 71.248 -66.443 Q71.248 -63.915 73.051 -62.044 Q74.852 -60.175 77.415 -60.175 Z M21.87 24.078 V-49.364 H1.866 L77.361 -103.531 L152.934 -49.364 H132.968 V24.078 H103.86 V-19.14 H50.94 V24.078 H21.87 Z"/></g><g id="Regular-L" transform="matrix(1 0 0 1 1378.56 1556)"><path d="M50.633 -29.586 H104.168 V-39.261 H50.633 V-29.586 Z M77.452 -59.095 Q79.759 -59.095 81.563 -60.869 Q83.366 -62.642 83.366 -65.09 Q83.366 -67.54 81.563 -69.202 Q79.759 -70.866 77.371 -70.866 Q74.981 -70.866 73.288 -69.183 Q71.595 -67.499 71.595 -65.01 Q71.595 -62.642 73.309 -60.869 Q75.022 -59.095 77.452 -59.095 Z M23.22 22.498 V-48.13 H2.096 L77.4 -101.987 L152.704 -48.13 H131.58 V22.498 H104.168 V-19.911 H50.633 V22.498 H23.22 Z"/></g><g id="Light-L" transform="matrix(1 0 0 1 1082.77 1556)"><path d="M51.502 -29.338 H103.361 V-40.253 H51.502 V-29.338 Z M77.482 -58.537 Q79.635 -58.537 81.283 -60.153 Q82.932 -61.77 82.932 -64.097 Q82.932 -66.361 81.285 -67.901 Q79.638 -69.439 77.371 -69.439 Q75.291 -69.439 73.661 -67.883 Q72.029 -66.325 72.029 -64.02 Q72.029 -61.773 73.68 -60.156 Q75.331 -58.537 77.482 -58.537 Z M26.445 19.273 V-48.812 H9.167 L77.4 -98.575 L145.633 -48.812 H128.355 V19.273 H103.361 V-21.648 H51.502 V19.273 H26.445 Z"/></g><g id="Thin-L" transform="matrix(1 0 0 1 787.282 1556)"><path d="M52.369 -29.09 H102.555 V-41.246 H52.369 V-29.09 Z M77.513 -57.979 Q79.511 -57.979 81.004 -59.438 Q82.499 -60.898 82.499 -63.102 Q82.499 -65.182 81.007 -66.598 Q79.517 -68.014 77.371 -68.014 Q75.602 -68.014 74.033 -66.582 Q72.463 -65.152 72.463 -63.029 Q72.463 -60.906 74.052 -59.442 Q75.642 -57.979 77.513 -57.979 Z M29.67 16.048 V-49.494 H16.236 L77.4 -95.165 L138.564 -49.494 H125.13 V16.048 H102.555 V-23.385 H52.369 V16.048 H29.67 Z"/></g><g id="Ultralight-L" transform="matrix(1 0 0 1 491.205 1556)"><path d="M52.89 -28.941 H102.071 V-41.841 H52.89 V-28.941 Z M77.532 -57.644 Q79.437 -57.644 80.838 -59.008 Q82.237 -60.374 82.237 -62.505 Q82.237 -64.476 80.841 -65.816 Q79.445 -67.157 77.371 -67.157 Q75.788 -67.157 74.256 -65.801 Q72.724 -64.447 72.724 -62.436 Q72.724 -60.385 74.277 -59.014 Q75.828 -57.644 77.532 -57.644 Z M31.605 14.113 V-49.904 H20.479 L77.4 -93.119 L134.321 -49.904 H123.195 V14.113 H102.071 V-24.426 H52.89 V14.113 H31.605 Z"/></g><g id="Bold-M" transform="matrix(1 0 0 1 2281.8 1126)"><path d="M38 -27.855 H82 V-35.355 H38 V-27.855 Z M59.88 -51.605 Q63.375 -51.605 65.938 -54.167 Q68.5 -56.73 68.5 -60.271 Q68.5 -63.814 65.927 -66.209 Q63.355 -68.605 59.898 -68.605 Q56.439 -68.605 53.969 -66.209 Q51.5 -63.814 51.5 -60.271 Q51.5 -56.73 53.943 -54.167 Q56.384 -51.605 59.88 -51.605 Z M9.25 22.645 V-46.73 H-10.125 L59.875 -96.605 L130 -46.73 H110.75 V22.645 H82 V-17.855 H38 V22.645 H9.25 Z"/></g><g id="Semibold-M" transform="matrix(1 0 0 1 1985.97 1126)"><path d="M37.674 -28.507 H82.326 V-36.007 H37.674 V-28.507 Z M59.931 -50.192 Q63.104 -50.192 65.394 -52.51 Q67.685 -54.827 67.685 -58.029 Q67.685 -61.23 65.389 -63.396 Q63.093 -65.561 59.941 -65.561 Q56.791 -65.561 54.554 -63.396 Q52.315 -61.23 52.315 -58.029 Q52.315 -54.827 54.538 -52.51 Q56.76 -50.192 59.931 -50.192 Z M12.185 18.841 V-44.719 H-8.658 L59.929 -93.344 L128.532 -44.719 H107.815 V18.841 H82.326 V-19.594 H37.674 V18.841 H12.185 Z"/></g><g id="Medium-M" transform="matrix(1 0 0 1 1689.91 1126)"><path d="M37.429 -28.996 H82.571 V-36.496 H37.429 V-28.996 Z M59.971 -49.132 Q62.9 -49.132 64.986 -51.266 Q67.074 -53.401 67.074 -56.347 Q67.074 -59.294 64.984 -61.286 Q62.895 -63.279 59.975 -63.279 Q57.056 -63.279 54.991 -61.286 Q52.926 -59.294 52.926 -56.347 Q52.926 -53.401 54.985 -51.266 Q57.042 -49.132 59.971 -49.132 Z M14.386 15.988 V-43.211 H-7.558 L59.97 -90.899 L127.433 -43.211 H105.614 V15.988 H82.571 V-20.899 H37.429 V15.988 H14.386 Z"/></g><g id="Regular-M" transform="matrix(1 0 0 1 1394.06 1126)"><path d="M37.25 -29.355 H82.75 V-36.855 H37.25 V-29.355 Z M60 -48.355 Q62.75 -48.355 64.688 -50.355 Q66.625 -52.355 66.625 -55.114 Q66.625 -57.872 64.688 -59.739 Q62.75 -61.605 60 -61.605 Q57.25 -61.605 55.312 -59.739 Q53.375 -57.872 53.375 -55.114 Q53.375 -52.355 55.312 -50.355 Q57.25 -48.355 60 -48.355 Z M16 13.895 V-42.105 H-6.75 L60 -89.105 L126.625 -42.105 H104 V13.895 H82.75 V-21.855 H37.25 V13.895 H16 Z"/></g><g id="Light-M" transform="matrix(1 0 0 1 1098.18 1126)"><path d="M38.068 -29.115 H81.933 V-37.576 H38.068 V-29.115 Z M60.024 -48.402 Q62.461 -48.402 64.206 -50.209 Q65.951 -52.015 65.951 -54.487 Q65.951 -56.959 64.207 -58.632 Q62.464 -60.306 60 -60.306 Q57.586 -60.306 55.818 -58.635 Q54.049 -56.962 54.049 -54.49 Q54.049 -52.019 55.818 -50.211 Q57.586 -48.402 60.024 -48.402 Z M18.5 11.443 V-43.019 H-0.596 L60 -86.412 L120.471 -43.019 H101.5 V11.443 H81.933 V-23.154 H38.068 V11.443 H18.5 Z"/></g><g id="Thin-M" transform="matrix(1 0 0 1 802.565 1126)"><path d="M38.885 -28.874 H81.115 V-38.297 H38.885 V-28.874 Z M60.047 -48.451 Q62.172 -48.451 63.726 -50.064 Q65.279 -51.675 65.279 -53.86 Q65.279 -56.046 63.729 -57.527 Q62.178 -59.009 60 -59.009 Q57.922 -59.009 56.322 -57.53 Q54.721 -56.052 54.721 -53.867 Q54.721 -51.682 56.322 -50.066 Q57.922 -48.451 60.047 -48.451 Z M21 8.991 V-43.932 H5.558 L60 -83.72 L114.317 -43.932 H99 V8.991 H81.115 V-24.451 H38.885 V8.991 H21 Z"/></g><g id="Ultralight-M" transform="matrix(1 0 0 1 506.415 1126)"><path d="M39.375 -28.73 H80.625 V-38.73 H39.375 V-28.73 Z M60.062 -48.48 Q62 -48.48 63.438 -49.975 Q64.875 -51.471 64.875 -53.485 Q64.875 -55.497 63.44 -56.864 Q62.006 -58.23 60 -58.23 Q58.125 -58.23 56.625 -56.869 Q55.125 -55.506 55.125 -53.494 Q55.125 -51.48 56.625 -49.98 Q58.125 -48.48 60.062 -48.48 Z M22.5 7.52 V-44.48 H9.25 L60 -82.105 L110.625 -44.48 H97.5 V7.52 H80.625 V-25.23 H39.375 V7.52 H22.5 Z"/></g><g id="Bold-S" transform="matrix(1 0 0 1 2294.23 696)"><path d="M31.56 -31.384 H63.12 V-36.118 H31.56 V-31.384 Z M47.245 -46.572 Q49.707 -46.572 51.68 -48.48 Q53.652 -50.389 53.652 -53.015 Q53.652 -55.514 51.672 -57.355 Q49.691 -59.196 47.21 -59.196 Q44.727 -59.196 42.877 -57.355 Q41.028 -55.514 41.028 -52.966 Q41.028 -50.418 42.842 -48.495 Q44.654 -46.572 47.245 -46.572 Z M10.454 7.277 V-45.881 H-7.101 L47.241 -82.077 L101.781 -45.881 H84.226 V7.277 H63.12 V-23.494 H31.56 V7.277 H10.454 Z"/></g><g id="Semibold-S" transform="matrix(1 0 0 1 1998.1 696)"><path d="M31.303 -31.898 H63.377 V-36.632 H31.303 V-31.898 Z M47.286 -45.457 Q49.493 -45.457 51.25 -47.173 Q53.009 -48.888 53.009 -51.246 Q53.009 -53.476 51.247 -55.135 Q49.484 -56.794 47.244 -56.794 Q45.006 -56.794 43.339 -55.135 Q41.671 -53.476 41.671 -51.196 Q41.671 -48.917 43.311 -47.187 Q44.951 -45.457 47.286 -45.457 Z M12.77 4.276 V-44.295 H-5.943 L47.284 -79.504 L100.623 -44.295 H81.91 V4.276 H63.377 V-24.865 H31.303 V4.276 H12.77 Z"/></g><g id="Medium-S" transform="matrix(1 0 0 1 1701.85 696)"><path d="M31.109 -32.284 H63.571 V-37.018 H31.109 V-32.284 Z M47.317 -44.621 Q49.332 -44.621 50.929 -46.191 Q52.527 -47.762 52.527 -49.919 Q52.527 -51.948 50.927 -53.471 Q49.328 -54.993 47.271 -54.993 Q45.215 -54.993 43.684 -53.471 Q42.153 -51.948 42.153 -49.87 Q42.153 -47.792 43.664 -46.206 Q45.174 -44.621 47.317 -44.621 Z M14.507 2.025 V-43.105 H-5.075 L47.316 -77.575 L99.755 -43.105 H80.173 V2.025 H63.571 V-25.895 H31.109 V2.025 H14.507 Z"/></g><g id="Regular-S" transform="matrix(1 0 0 1 1405.73 696)"><path d="M30.968 -32.567 H63.712 V-37.301 H30.968 V-32.567 Z M47.34 -44.008 Q49.214 -44.008 50.693 -45.472 Q52.173 -46.937 52.173 -48.946 Q52.173 -50.827 50.693 -52.25 Q49.214 -53.673 47.291 -53.673 Q45.367 -53.673 43.937 -52.25 Q42.507 -50.827 42.507 -48.896 Q42.507 -46.966 43.923 -45.487 Q45.338 -44.008 47.34 -44.008 Z M15.78 0.374 V-42.232 H-4.438 L47.34 -76.159 L99.118 -42.232 H78.9 V0.374 H63.712 V-26.65 H30.968 V0.374 H15.78 Z"/></g><g id="Light-S" transform="matrix(1 0 0 1 1109.75 696)"><path d="M31.613 -32.378 H63.067 V-37.87 H31.613 V-32.378 Z M47.359 -44.045 Q48.986 -44.045 50.314 -45.357 Q51.641 -46.669 51.641 -48.452 Q51.641 -50.106 50.315 -51.377 Q48.988 -52.648 47.291 -52.648 Q45.633 -52.648 44.336 -51.379 Q43.039 -50.109 43.039 -48.404 Q43.039 -46.701 44.321 -45.374 Q45.603 -44.045 47.359 -44.045 Z M17.753 -1.561 V-42.953 H0.417 L47.34 -74.035 L94.263 -42.953 H76.928 V-1.561 H63.067 V-27.674 H31.613 V-1.561 H17.753 Z"/></g><g id="Thin-S" transform="matrix(1 0 0 1 814.015 696)"><path d="M32.258 -32.187 H62.422 V-38.439 H32.258 V-32.187 Z M47.377 -44.084 Q48.758 -44.084 49.935 -45.242 Q51.11 -46.4 51.11 -47.957 Q51.11 -49.386 49.937 -50.505 Q48.762 -51.624 47.291 -51.624 Q45.898 -51.624 44.734 -50.507 Q43.57 -49.391 43.57 -47.913 Q43.57 -46.436 44.72 -45.259 Q45.869 -44.084 47.377 -44.084 Z M19.725 -3.495 V-43.674 H5.272 L47.34 -71.911 L89.408 -43.674 H74.955 V-3.495 H62.422 V-28.698 H32.258 V-3.495 H19.725 Z"/></g><g id="Ultralight-S" transform="matrix(1 0 0 1 517.792 696)"><path d="M32.645 -32.074 H62.035 V-38.78 H32.645 V-32.074 Z M47.389 -44.106 Q48.622 -44.106 49.707 -45.172 Q50.792 -46.24 50.792 -47.661 Q50.792 -48.953 49.709 -49.981 Q48.627 -51.01 47.291 -51.01 Q46.058 -51.01 44.973 -49.985 Q43.888 -48.96 43.888 -47.618 Q43.888 -46.276 44.958 -45.191 Q46.028 -44.106 47.389 -44.106 Z M20.909 -4.656 V-44.106 H8.186 L47.34 -70.636 L86.494 -44.106 H73.772 V-4.656 H62.035 V-29.312 H32.645 V-4.656 H20.909 Z"/></g></g></svg>