<svg xmlns="http://www.w3.org/2000/svg" height="48" viewBox="0 -960 960 960" width="48"><path d="M695.15-828q22.32 0 38.08 15.77Q749-796.47 749-774.22v588.44q0 22.25-15.77 38.01Q717.47-132 695.15-132H266.5q-23 0-38.5-15.77-15.5-15.76-15.5-38.01v-588.44q0-22.25 15.5-38.01Q243.5-828 266.5-828h428.65ZM576-642.5H387.66q-12.41 0-20.03 8.25Q360-626 360-615v267.5q0 12 7.75 19.75T387.5-320h188.34q11.41 0 19.54-7.75 8.12-7.75 8.12-19.75V-615q0-11-8.25-19.25T576-642.5Zm5.5 22v204H382v-204h199.5Zm-101.73 371q-8.2 0-15.24 6.99-7.03 7-7.03 15.75 0 10.76 6.95 17.01 6.96 6.25 15.25 6.25 10.3 0 17.05-6.19 6.75-6.18 6.75-16.64 0-8.6-6.44-15.89-6.44-7.28-17.29-7.28Zm1-509q-8.2 0-15.24 6.49-7.03 6.5-7.03 16.25 0 10.76 6.95 17.01 6.96 6.25 15.25 6.25 10.3 0 17.05-6.19 6.75-6.18 6.75-16.64 0-9.6-6.44-16.39-6.44-6.78-17.29-6.78Z"/></svg>