<svg xmlns="http://www.w3.org/2000/svg" height="24" viewBox="0 -960 960 960" width="24"><path d="M722.17-915.35q46.93 0 80.06 33.12 33.12 33.13 33.12 80.06v644.34q0 46.93-33.12 80.06-33.13 33.12-80.06 33.12H237.83q-46.93 0-80.06-33.12-33.12-33.13-33.12-80.06v-644.34q0-46.93 33.12-80.06 33.13-33.12 80.06-33.12h484.34Zm0 113.18H237.83v644.34h484.34v-644.34ZM607.76-696.02H352q-23.67 0-40.13 16.45-16.46 16.46-16.46 40.14v318.39q0 23.67 16.46 40.13 16.46 16.45 40.13 16.45h255.76q23.67 0 40.13-16.45 16.46-16.46 16.46-40.13v-318.39q0-23.68-16.46-40.14-16.46-16.45-40.13-16.45Zm-56.59 113.17v130.55H408.59v-130.55h142.58Zm-71.06 331.11q-17.44 0-29.14 11.45-11.69 11.45-11.69 29.05 0 17.59 11.47 29.38t29.02 11.79q17.33 0 29.14-11.5 11.81-11.5 11.81-29.1 0-17.59-11.58-29.33-11.58-11.74-29.03-11.74Zm0-538.19q-17.44 0-29.14 11.52-11.69 11.52-11.69 29.14 0 17.52 11.47 29.15 11.47 11.62 29.02 11.62 17.33 0 29.14-11.41 11.81-11.41 11.81-28.86t-11.58-29.31q-11.58-11.85-29.03-11.85ZM480-480Z"/></svg>