<svg xmlns="http://www.w3.org/2000/svg" height="40" viewBox="0 -960 960 960" width="40"><path d="M720-902q42.6 0 72.3 29.7Q822-842.6 822-800v640q0 42.33-29.7 71.83T720-58.67H240.5q-42.33 0-71.83-29.5T139.17-160v-640q0-42.6 29.5-72.3 29.5-29.7 71.83-29.7H720Zm0 102H240.5v640H720v-640ZM604.67-664.17H355.5q-21 0-35.92 14.92-14.91 14.92-14.91 35.92v263.5q0 21 14.91 35.91Q334.5-299 355.5-299h249.17q21 0 35.91-14.92 14.92-14.91 14.92-35.91v-263.5q0-21-14.92-35.92-14.91-14.92-35.91-14.92Zm-50.5 102v111.34h-147.5v-111.34h147.5ZM480.2-259.83q-12.49 0-20.59 8.56-8.11 8.56-8.11 21.42 0 12.85 8.2 21.43 8.2 8.59 20.75 8.59 12.22 0 20.97-8.56 8.75-8.55 8.75-21.16 0-12.57-8.74-21.43-8.74-8.85-21.23-8.85Zm0-502.67q-12.49 0-20.59 8.56-8.11 8.56-8.11 21.42 0 12.85 8.2 21.27t20.75 8.42q12.22 0 20.97-8.49 8.75-8.49 8.75-21 0-12.47-8.74-21.32-8.74-8.86-21.23-8.86ZM480-480Z"/></svg>