<svg xmlns="http://www.w3.org/2000/svg" height="20" viewBox="0 -960 960 960" width="20"><path d="M688.13-862.13q35.72 0 56.86 21.14t21.14 56.86v608.26q0 35.72-21.14 56.86t-56.86 21.14H272.37q-35.72 0-56.86-21.14t-21.14-56.86v-608.26q0-35.72 21.14-56.86t56.86-21.14h415.76ZM586-673.2H374.59q-15.94 0-27.61 11.53-11.68 11.52-11.68 27.47v307.66q0 15.95 11.52 27.47 11.51 11.53 27.44 11.53h211.41q15.94 0 27.61-11.53 11.68-11.52 11.68-27.47V-634.2q0-15.95-11.52-27.47Q601.93-673.2 586-673.2Zm-38.8 77.77v159.15H413.07v-159.15H547.2Zm-67.26 378.71q-10.3 0-17.06 7.02-6.77 7.02-6.77 17.12 0 10.11 6.82 16.88 6.83 6.77 17.13 6.77 10.3 0 17.06-6.81 6.77-6.81 6.77-17.09 0-9.85-6.82-16.87-6.83-7.02-17.13-7.02Zm0-574.58q-10.3 0-17.06 7.01-6.77 7.02-6.77 17.13 0 10.1 6.82 16.87 6.83 6.77 17.13 6.77 10.3 0 17.06-6.81 6.77-6.81 6.77-17.08 0-9.86-6.82-16.88-6.83-7.01-17.13-7.01Z"/></svg>