<svg xmlns="http://www.w3.org/2000/svg" height="24" viewBox="0 -960 960 960" width="24"><path d="M702.15-872q38.34 0 64.48 26.14 26.14 26.13 26.14 64.48v602.76q0 38.35-26.14 64.48Q740.49-88 702.15-88H258.62q-38.35 0-64.48-26.14Q168-140.27 168-178.62v-602.76q0-38.35 26.14-64.48Q220.27-872 258.62-872h443.53ZM588-672.54H373.66q-19.04 0-32.24 13.29-13.19 13.29-13.19 32.02v294.69q0 18.73 13.29 32.02 13.29 13.29 32.02 13.29h214.33q19.05 0 32.25-13.29 13.19-13.29 13.19-32.02v-294.69q0-18.73-13.29-32.02-13.29-13.29-32.02-13.29Zm-19.69 65v174.92H393.23v-174.92h175.08Zm-87.93 383q-15.84 0-26.57 10.36-10.73 10.35-10.73 26.19 0 15.84 10.35 26.57 10.36 10.73 26.19 10.73 15.84 0 26.57-10.36 10.73-10.35 10.73-26.19 0-15.84-10.35-26.57-10.36-10.73-26.19-10.73Zm.76-584.54q-15.83 0-26.56 10.36-10.73 10.35-10.73 26.19 0 15.84 10.35 26.57 10.36 10.73 26.19 10.73 15.84 0 26.57-10.36 10.73-10.35 10.73-26.19 0-15.84-10.35-26.57-10.36-10.73-26.2-10.73Z"/></svg>