<svg xmlns="http://www.w3.org/2000/svg" height="24" viewBox="0 -960 960 960" width="24"><path d="M708-914q53 0 89.5 36.5T834-788v616q0 53-36.5 89.5T708-46H252q-53 0-89.5-36.5T126-172v-616q0-53 36.5-89.5T252-914h456Zm0 126H252v616h456v-616ZM604-669H355q-26 0-44.5 18.5T292-606v250q0 26 18.5 44.5T355-293h249q26 0 44.5-18.5T667-356v-250q0-26-18.5-44.5T604-669Zm-63 126v80H418v-80h123Zm-61.5 271q-16.5 0-27.5 11.27-11 11.26-11 28.5 0 17.23 11.05 28.73T480-192q16 0 27.5-11.27 11.5-11.26 11.5-28.5 0-17.23-11.5-28.73t-28-11.5Zm0-496q-16.5 0-27.5 11.27-11 11.26-11 28.5Q441-711 452.05-700T480-689q16 0 27.5-11.07t11.5-28q0-16.93-11.5-28.43t-28-11.5Zm.5 288Z"/></svg>