<svg xmlns="http://www.w3.org/2000/svg" height="20" viewBox="0 -960 960 960" width="20"><path d="M690.08-876q41.03 0 65.67 24.64 24.63 24.64 24.63 65.67v611.38q0 41.03-24.63 65.67Q731.11-84 690.08-84H270.31q-41.03 0-65.67-24.64T180-174.31v-611.38q0-41.03 24.64-65.67T270.31-876h419.77Zm-.39 78H269.92q-5.38 0-8.84 3.46t-3.46 8.85v611.38q0 5.39 3.46 8.85t8.84 3.46h419.77q5.39 0 9.04-3.46 3.65-3.46 3.65-8.85L702-785.69q0-5.39-3.46-8.85t-8.85-3.46ZM586.04-679.77H375.12q-18.81 0-32.16 13.25-13.34 13.24-13.34 31.91v308.84q0 18.67 13.23 31.91 13.23 13.24 31.88 13.24h210.92q18.81 0 32.16-13.24 13.34-13.24 13.34-31.91v-308.84q0-18.67-13.23-31.91-13.23-13.25-31.88-13.25Zm-32.89 78v169.46H407.61v-169.46h145.54Zm-72.85 348q-13.93 0-23.35 9.11-9.41 9.11-9.41 23.05 0 13.93 9.11 23.35 9.11 9.41 23.05 9.41 13.93 0 23.35-9.11 9.41-9.11 9.41-23.04 0-13.94-9.11-23.35-9.11-9.42-23.05-9.42Zm0-517.77q-13.93 0-23.35 9.11-9.41 9.11-9.41 23.05 0 13.93 9.11 23.54t23.05 9.61q13.93 0 23.35-9.38 9.41-9.37 9.41-23.31 0-13.93-9.11-23.27-9.11-9.35-23.05-9.35ZM480-480Z"/></svg>