<svg xmlns="http://www.w3.org/2000/svg" height="24" viewBox="0 -960 960 960" width="24"><path d="M714.08-892q41.03 0 69.67 28.64 28.63 28.64 28.63 69.67v627.38q0 41.03-28.63 69.67Q755.11-68 714.08-68H246.31q-41.03 0-69.67-28.64T148-166.31v-627.38q0-41.03 28.64-69.67T246.31-892h467.77ZM598-686.77H362.83q-20.52 0-34.87 14.4-14.34 14.39-14.34 34.76v315.84q0 20.37 14.39 34.76 14.39 14.39 34.76 14.39h235.17q20.52 0 34.87-14.39 14.34-14.39 14.34-34.76v-315.84q0-20.37-14.39-34.76-14.4-14.4-34.76-14.4Zm-35.85 85v161.46H398.61v-161.46h163.54Zm-81.85 393q-16.53 0-27.65 10.81-11.11 10.81-11.11 27.35 0 16.53 10.81 27.65 10.81 11.11 27.35 11.11 16.53 0 27.65-10.81 11.11-10.81 11.11-27.34 0-16.54-10.81-27.66-10.81-11.11-27.35-11.11Zm.39-618.77q-16.54 0-27.65 10.81-11.12 10.82-11.12 27.35 0 16.54 10.81 27.65 10.82 11.12 27.35 11.12 16.54 0 27.65-10.82 11.12-10.81 11.12-27.34 0-16.54-10.82-27.65-10.81-11.12-27.34-11.12Z"/></svg>