<svg xmlns="http://www.w3.org/2000/svg" height="20" viewBox="0 -960 960 960" width="20"><path d="M702-896q43.72 0 70.86 27.14T800-798v636q0 43.72-27.14 70.86T702-64H258q-43.73 0-70.86-27.14Q160-118.28 160-162v-636q0-43.72 27.14-70.86Q214.27-896 258-896h444ZM596.04-693H364.28q-20.28 0-34.78 14.35T315-644v329q0 20.3 14.34 34.65Q343.68-266 363.96-266h231.76q20.28 0 34.78-14.35T645-315v-329q0-20.3-14.34-34.65Q616.32-693 596.04-693ZM548-596v156H412v-156h136Zm-67.77 397q-14.63 0-24.43 9.57-9.8 9.56-9.8 24.2 0 14.63 9.57 24.43 9.56 9.8 24.2 9.8 14.63 0 24.43-9.57 9.8-9.56 9.8-24.2 0-14.63-9.57-24.43-9.56-9.8-24.2-9.8Zm0-629q-14.63 0-24.43 9.57-9.8 9.56-9.8 24.2 0 14.63 9.57 24.43 9.56 9.8 24.2 9.8 14.63 0 24.43-9.57 9.8-9.56 9.8-24.2 0-14.63-9.57-24.43-9.56-9.8-24.2-9.8Z"/></svg>