<svg xmlns="http://www.w3.org/2000/svg" height="20" viewBox="0 -960 960 960" width="20"><path d="M678.15-856q38.34 0 60.48 22.14 22.14 22.13 22.14 60.48v586.76q0 38.35-22.14 60.48Q716.49-104 678.15-104H282.62q-38.35 0-60.48-22.14Q200-148.27 200-186.62v-586.76q0-38.35 22.14-60.48Q244.27-856 282.62-856h395.53ZM576.04-664.54H385.95q-17.33 0-29.53 12.14-12.19 12.14-12.19 29.17v286.69q0 17.03 12.13 29.17 12.12 12.14 29.14 12.14h190.09q17.33 0 29.53-12.14 12.19-12.14 12.19-29.17v-286.69q0-17.03-12.13-29.17t-29.14-12.14Zm-15.73 57v182.92H401.23v-182.92h159.08Zm-79.93 377q-13.24 0-22.27 8.66-9.03 8.65-9.03 21.89t8.65 22.27q8.66 9.03 21.89 9.03 13.24 0 22.27-8.66 9.03-8.65 9.03-21.89t-8.65-22.27q-8.66-9.03-21.89-9.03Zm.76-560.54q-13.23 0-22.26 8.66-9.03 8.65-9.03 21.89t8.65 22.27q8.66 9.03 21.89 9.03 13.24 0 22.27-8.66 9.03-8.65 9.03-21.89t-8.65-22.27q-8.66-9.03-21.9-9.03Z"/></svg>