<svg xmlns="http://www.w3.org/2000/svg" height="40" viewBox="0 -960 960 960" width="40"><path d="M730-873.33q25.63 0 44.48 18.85 18.85 18.85 18.85 44.48v660q0 25.63-18.85 44.48Q755.63-86.67 730-86.67H230.5q-25.63 0-44.48-18.85-18.85-18.85-18.85-44.48v-660q0-25.63 18.85-44.48 18.85-18.85 44.48-18.85H730Zm0 63.33H230.5v660H730v-660ZM601.33-673.17h-241.5q-13.33 0-22.58 9.25-9.25 9.25-9.25 22.59v321.5q0 13.33 9.25 22.58 9.25 9.25 22.58 9.25h241.5q13.34 0 22.59-9.25t9.25-22.58v-321.5q0-13.34-9.25-22.59t-22.59-9.25Zm-31.5 63.34v178h-178.5v-178h178.5Zm-89.46 368.66q-9.32 0-15.26 6.19-5.94 6.19-5.94 15.42t6.03 15.48q6.02 6.25 15.25 6.25 9.22 0 15.63-6.32 6.42-6.31 6.42-15.49 0-9.15-6.41-15.34-6.4-6.19-15.72-6.19Zm0-522.66q-9.32 0-15.26 6.19-5.94 6.19-5.94 15.41 0 9.23 6.03 15.48 6.02 6.25 15.25 6.25 9.22 0 15.63-6.31 6.42-6.32 6.42-15.5 0-9.14-6.41-15.33-6.4-6.19-15.72-6.19ZM480-480Z"/></svg>