<svg xmlns="http://www.w3.org/2000/svg" height="24" viewBox="0 -960 960 960" width="24"><path d="M715-870q30.94 0 52.97 22.03Q790-825.94 790-795v630q0 30.94-22.03 52.97Q745.94-90 715-90H245.5q-30.94 0-52.97-22.03Q170.5-134.06 170.5-165v-630q0-30.94 22.03-52.97Q214.56-870 245.5-870H715Zm0 75H245.5v630H715v-630ZM597-674.5H363.5q-15.5 0-26.5 11T326-637v313.5q0 15.5 11 26.5t26.5 11H597q15.5 0 26.5-11t11-26.5V-637q0-15.5-11-26.5t-26.5-11Zm-37.5 75v160H401v-160h158.5Zm-79.56 346q-11.94 0-19.69 8-7.75 8-7.75 19.75t7.81 19.5q7.81 7.75 19.75 7.75 11.94 0 19.69-7.79 7.75-7.79 7.75-19.71 0-11.5-7.81-19.5t-19.75-8Zm0-509q-11.94 0-19.69 8-7.75 8-7.75 19.75t7.81 19.5q7.81 7.75 19.75 7.75 11.94 0 19.69-7.79 7.75-7.79 7.75-19.71 0-11.5-7.81-19.5t-19.75-8ZM480-480Z"/></svg>