<svg xmlns="http://www.w3.org/2000/svg" height="24" viewBox="0 -960 960 960" width="24"><path d="M716.96-919.91q51.3 0 87.12 35.83 35.83 35.82 35.83 87.12v633.92q0 51.3-35.83 87.12-35.82 35.83-87.12 35.83H243.04q-51.3 0-87.12-35.83-35.83-35.82-35.83-87.12v-633.92q0-51.3 35.83-87.12 35.82-35.83 87.12-35.83h473.92ZM607.43-709.48H352q-25.96 0-43.72 17.76-17.76 17.76-17.76 43.72v335.87q0 25.96 17.76 43.72 17.76 17.76 43.72 17.76h255.43q25.96 0 43.72-17.76 17.76-17.76 17.76-43.72V-648q0-25.96-17.76-43.72-17.76-17.76-43.72-17.76Zm-60.47 121.96v131.04H412.48v-131.04h134.48ZM480-187.35q-18.13 0-30.2 11.84-12.06 11.83-12.06 29.78 0 17.96 11.96 30.15 11.95 12.19 29.91 12.19t30.3-11.96q12.35-11.96 12.35-29.91 0-17.96-12.07-30.02-12.07-12.07-30.19-12.07Zm0-669.39q-18.13 0-30.2 12-12.06 12-12.06 30.03 0 18.02 11.96 30.26 11.95 12.23 29.91 12.23t30.3-12q12.35-12 12.35-30.03 0-18.02-12.07-30.25-12.07-12.24-30.19-12.24Z"/></svg>