<svg xmlns="http://www.w3.org/2000/svg" height="40" viewBox="0 -960 960 960" width="40"><path d="M729.42-906.23q39.59 0 68.2 28.61t28.61 68.2v658.84q0 39.43-28.61 67.93-28.61 28.5-68.2 28.5H230.58q-39.43 0-67.93-28.5-28.5-28.5-28.5-67.93v-658.84q0-39.59 28.5-68.2t67.93-28.61h498.84Zm-121.7 209.39H352.38q-20.37 0-34.13 14.09-13.76 14.09-13.76 34.46v335.12q0 21.03 13.76 34.79 13.76 13.76 34.13 13.76h255.34q20.37 0 34.46-13.76 14.1-13.76 14.1-34.79v-335.12q0-20.37-14.1-34.46-14.09-14.09-34.46-14.09Zm-47.55 96.48v156.43H400.3v-156.43h159.87Zm-79.78 409.79q-13.43 0-22.14 9.01-8.71 9-8.71 21.17 0 14.27 8.68 23.08 8.68 8.82 21.83 8.82 13.14 0 22.63-8.58 9.49-8.58 9.49-22.85 0-12.18-9.18-21.41-9.17-9.24-22.6-9.24Zm0-642.4q-13.43 0-22.14 8.8t-8.71 22.13q0 13.99 8.68 22.85 8.68 8.86 21.83 8.86 13.14 0 22.63-8.71 9.49-8.7 9.49-22.58 0-13.21-9.18-22.28-9.17-9.07-22.6-9.07Z"/></svg>