<svg xmlns="http://www.w3.org/2000/svg" height="48" viewBox="0 -960 960 960" width="48"><path d="M732.41-889.7q31.71 0 54.5 22.79t22.79 54.5v664.82q0 31.48-22.79 54.1t-54.5 22.62H228.09q-31.48 0-54.1-22.62t-22.62-54.1v-664.82q0-31.71 22.62-54.5t54.1-22.79h504.32Zm0 77.29H228.09v664.82h504.32v-664.82ZM605.2-667.98H355.74q-16.21 0-27.41 11.2t-11.2 27.41v296.11q0 16.21 11.2 27.41t27.41 11.2H605.2q16.2 0 27.4-11.2t11.2-27.41v-296.11q0-16.21-11.2-27.41t-27.4-11.2Zm-38.11 77.29v153.08H394.41v-153.08h172.68Zm-86.51 346.08q-9.71 0-15.87 6.51-6.17 6.52-6.17 16.36 0 9.85 6.26 16.48 6.26 6.63 15.84 6.63 9.56 0 16.44-6.69 6.88-6.7 6.88-16.22 0-9.67-6.84-16.37-6.83-6.7-16.54-6.7Zm0-519.32q-9.71 0-15.87 6.51-6.17 6.51-6.17 16.36 0 9.84 6.26 16.47 6.26 6.63 15.84 6.63 9.56 0 16.44-6.69 6.88-6.69 6.88-16.21 0-9.68-6.84-16.38-6.83-6.69-16.54-6.69ZM480-480Z"/></svg>