<svg xmlns="http://www.w3.org/2000/svg" height="20" viewBox="0 -960 960 960" width="20"><path d="M689.22-883.22q44.3 0 71.15 26.85 26.85 26.85 26.85 71.15v610.44q0 44.3-26.85 71.15-26.85 26.85-71.15 26.85H270.78q-44.3 0-71.15-26.85-26.85-26.85-26.85-71.15v-610.44q0-44.3 26.85-71.15 26.85-26.85 71.15-26.85h418.44Zm0 98H270.78v610.44h418.44v-610.44ZM590.3-665.78H369.46q-20.37 0-34.83 14.3-14.46 14.31-14.46 34.7v272.43q0 20.39 14.3 34.7 14.29 14.3 34.66 14.3h220.85q20.37 0 34.82-14.3 14.46-14.31 14.46-34.7v-272.43q0-20.39-14.29-34.7-14.3-14.3-34.67-14.3Zm-49.04 98V-445H418.17v-122.78h123.09Zm-61.54 303.34q-12.38 0-20.59 8.37-8.22 8.36-8.22 21.16 0 12.79 8.24 21.28 8.25 8.5 20.85 8.5 12.1 0 20.59-8.36 8.5-8.37 8.5-21.16 0-12.79-8.5-21.29-8.49-8.5-20.87-8.5Zm0-490.43q-12.38 0-20.59 8.36-8.22 8.37-8.22 21.16 0 12.79 8.24 21.01 8.25 8.21 20.85 8.21 12.1 0 20.59-8.25 8.5-8.25 8.5-20.88 0-12.62-8.5-21.11-8.49-8.5-20.87-8.5ZM480-480Z"/></svg>