<svg xmlns="http://www.w3.org/2000/svg" height="20" viewBox="0 -960 960 960" width="20"><path d="M671-844q36.72 0 57.36 20.64T749-766v572q0 36.73-20.64 57.36Q707.72-116 671-116H290q-36.73 0-57.36-20.64Q212-157.27 212-194v-572q0-36.72 20.64-57.36Q253.27-844 290-844h381Zm-1 46H289q-14 0-23 9t-9 23v572q0 14 9 23t23 9h381q14 0 23.5-9t9.5-23l-1-572q0-14-9-23t-23-9Zm-99.96 141H392.45q-16.45 0-27.95 11.47Q353-634.05 353-618v275q0 16.05 11.46 27.52Q375.93-304 391.96-304h177.59q16.45 0 27.95-11.48Q609-326.95 609-343v-275q0-16.05-11.46-27.53Q586.07-657 570.04-657ZM563-611v191H399v-191h164Zm-82.58 348q-12.82 0-21.62 8.38t-8.8 21.2q0 12.82 8.38 21.62t21.2 8.8q12.82 0 21.62-8.38t8.8-21.2q0-12.82-8.38-21.62t-21.2-8.8Zm0-495q-12.82 0-21.62 8.38t-8.8 21.2q0 12.82 8.38 22.12t21.2 9.3q12.82 0 21.62-9.07 8.8-9.06 8.8-21.88 0-12.82-8.38-21.44-8.38-8.61-21.2-8.61ZM480-480Z"/></svg>