<svg xmlns="http://www.w3.org/2000/svg" height="24" viewBox="0 -960 960 960" width="24"><path d="M714.08-892q41.03 0 69.67 28.64 28.63 28.64 28.63 69.67v627.38q0 41.03-28.63 69.67Q755.11-68 714.08-68H246.31q-41.03 0-69.67-28.64T148-166.31v-627.38q0-41.03 28.64-69.67T246.31-892h467.77Zm-.39 86H245.92q-5.38 0-8.84 3.46t-3.46 8.85v627.38q0 5.39 3.46 8.85t8.84 3.46h467.77q5.39 0 9.04-3.46 3.65-3.46 3.65-8.85L726-793.69q0-5.39-3.46-8.85t-8.85-3.46ZM598-687.77H362.83q-20.52 0-34.87 14.4-14.34 14.39-14.34 34.76v316.84q0 20.37 14.39 34.76 14.39 14.39 34.76 14.39h235.17q20.52 0 34.87-14.39 14.34-14.39 14.34-34.76v-316.84q0-20.37-14.39-34.76-14.4-14.4-34.76-14.4Zm-36.85 86v161.46H399.61v-161.46h161.54Zm-80.85 350q-16.53 0-27.65 10.81-11.11 10.81-11.11 27.35 0 16.53 10.81 27.65 10.81 11.11 27.35 11.11 16.53 0 27.65-10.81 11.11-10.81 11.11-27.34 0-16.54-10.81-27.65-10.81-11.12-27.35-11.12Zm0-533.77q-16.53 0-27.65 10.81-11.11 10.81-11.11 27.35 0 16.53 10.81 27.84 10.81 11.31 27.35 11.31 16.53 0 27.65-11.08 11.11-11.07 11.11-27.61 0-16.53-10.81-27.57-10.81-11.05-27.35-11.05ZM480-480Z"/></svg>