<svg xmlns="http://www.w3.org/2000/svg" height="24" viewBox="0 -960 960 960" width="24"><path d="M702.15-872q38.34 0 64.48 26.14 26.14 26.13 26.14 64.48v602.76q0 38.35-26.14 64.48Q740.49-88 702.15-88H258.62q-38.35 0-64.48-26.14Q168-140.27 168-178.62v-602.76q0-38.35 26.14-64.48Q220.27-872 258.62-872h443.53Zm-.77 66H257.85q-10.77 0-17.7 6.92-6.92 6.93-6.92 17.7v602.76q0 10.77 6.92 17.7 6.93 6.92 17.7 6.92h443.53q10.77 0 18.08-6.92 7.31-6.93 7.31-17.7L726-781.38q0-10.77-6.92-17.7-6.93-6.92-17.7-6.92ZM588-673.54H373.66q-19.04 0-32.24 13.29-13.19 13.29-13.19 32.02v295.69q0 18.73 13.29 32.02 13.29 13.29 32.02 13.29h214.33q19.05 0 32.25-13.29 13.19-13.29 13.19-32.02v-295.69q0-18.73-13.29-32.02-13.29-13.29-32.02-13.29Zm-20.69 66v174.92H394.23v-174.92h173.08Zm-86.93 350q-15.84 0-26.57 10.36-10.73 10.35-10.73 26.19 0 15.84 10.35 26.57 10.36 10.73 26.19 10.73 15.84 0 26.57-10.36 10.73-10.35 10.73-26.19 0-15.84-10.35-26.57-10.36-10.73-26.19-10.73Zm0-519.54q-15.84 0-26.57 10.36-10.73 10.35-10.73 26.19 0 15.84 10.35 26.95 10.36 11.12 26.19 11.12 15.84 0 26.57-10.88 10.73-10.89 10.73-26.72 0-15.84-10.35-26.43-10.36-10.59-26.19-10.59ZM480-480Z"/></svg>