<svg xmlns="http://www.w3.org/2000/svg" height="40" viewBox="0 -960 960 960" width="40"><path d="M727.61-880.19q29.68 0 51.13 21.45 21.45 21.45 21.45 51.13v655.22q0 29.62-21.45 51.02-21.45 21.4-51.13 21.4H232.89q-29.62 0-51.02-21.4-21.4-21.4-21.4-51.02v-655.22q0-29.68 21.4-51.13 21.4-21.45 51.02-21.45h494.72ZM602.13-678.75H358.8q-15.17 0-25.77 10.61-10.61 10.6-10.61 25.77v323.33q0 15.17 10.61 25.78 10.6 10.6 25.77 10.6h243.33q15.17 0 25.77-10.6 10.61-10.61 10.61-25.78v-323.33q0-15.17-10.61-25.77-10.6-10.61-25.77-10.61Zm-35.8 72.34v170.59H394.76v-170.59h171.57Zm-85.95 401.23q-10.13 0-16.63 6.83-6.5 6.82-6.5 16.69 0 10.18 6.62 16.99 6.62 6.81 16.61 6.81 9.98 0 17.04-6.87 7.05-6.88 7.05-17.01 0-9.79-7.03-16.61-7.02-6.83-17.16-6.83Zm0-598.2q-10.13 0-16.63 6.82-6.5 6.81-6.5 16.85 0 10.04 6.62 16.84 6.62 6.81 16.61 6.81 9.98 0 17.04-6.9 7.05-6.91 7.05-16.85 0-9.91-7.03-16.74-7.02-6.83-17.16-6.83Z"/></svg>