<svg xmlns="http://www.w3.org/2000/svg" height="24" viewBox="0 -960 960 960" width="24"><path d="M703-904q50.94 0 85.97 35.03T824-783v606q0 50.94-35.03 85.97T703-56H257.5q-50.94 0-85.97-35.03T136.5-177v-606q0-50.94 35.03-85.97T257.5-904H703ZM601-702.5H358.5q-24.5 0-42.5 18T298-642v322.5q0 24.5 18 42.5t42.5 18H601q24.5 0 42.5-18t18-42.5V-642q0-24.5-18-42.5t-42.5-18Zm-59.5 120v123H418v-123h123.5Zm-61.56 387q-15.94 0-26.69 11-10.75 11-10.75 26.75t10.81 26.5q10.81 10.75 26.75 10.75t26.69-10.79Q517.5-142.08 517.5-158q0-15.5-10.81-26.5t-26.75-11Zm0-645q-15.94 0-26.69 11-10.75 11-10.75 26.75t10.81 26.5q10.81 10.75 26.75 10.75t26.69-10.79Q517.5-787.08 517.5-803q0-15.5-10.81-26.5t-26.75-11Z"/></svg>