<svg xmlns="http://www.w3.org/2000/svg" height="20" viewBox="0 -960 960 960" width="20"><path d="M195.52-334.15q-22.47 0-37.92-15.45-15.45-15.45-15.45-38.21v-184.38q0-22.76 15.45-38.21t37.92-15.45h568.96q22.47 0 37.92 15.45 15.45 15.45 15.45 38.21v184.38q0 22.76-15.45 38.21t-37.92 15.45H195.52Zm.17-28.93h568.62q10.77 0 17.69-6.92 6.92-6.92 6.92-17.69v-184.62q0-10.77-6.92-17.69-6.92-6.92-17.69-6.92H195.69q-10.77 0-17.69 6.92-6.92 6.92-6.92 17.69v184.62q0 10.77 6.92 17.69 6.92 6.92 17.69 6.92Zm-24.61 0v-233.84 233.84Z"/></svg>