<svg xmlns="http://www.w3.org/2000/svg" height="48" viewBox="0 -960 960 960" width="48"><path d="M159.15-303.08q-22.61 0-39.34-16.75-16.73-16.74-16.73-39.21v-241.92q0-22.47 16.73-39.21 16.73-16.75 39.34-16.75h641.7q22.61 0 39.34 16.75 16.73 16.74 16.73 39.21v241.92q0 22.47-16.73 39.21-16.73 16.75-39.34 16.75h-641.7Zm.08-43.84h641.54q5.38 0 8.84-3.47 3.47-3.46 3.47-8.84v-241.54q0-5.38-3.47-8.84-3.46-3.47-8.84-3.47H159.23q-5.38 0-8.84 3.47-3.47 3.46-3.47 8.84v241.54q0 5.38 3.47 8.84 3.46 3.47 8.84 3.47Zm-12.31 0v-266.16 266.16Z"/></svg>