<svg xmlns="http://www.w3.org/2000/svg" height="40" viewBox="0 -960 960 960" width="40"><path d="M158.57-278.34q-32.52 0-56.21-23.47-23.69-23.48-23.69-56.42v-243.2q0-32.52 23.69-56.21 23.69-23.69 56.21-23.69h642.86q32.52 0 56.21 23.69 23.69 23.69 23.69 56.21v243.2q0 32.94-23.69 56.42-23.69 23.47-56.21 23.47H158.57Zm0-67.58h642.86q5.39 0 8.85-3.46 3.46-3.47 3.46-8.85v-243.2q0-5.39-3.46-8.85t-8.85-3.46H158.57q-5.39 0-8.85 3.46t-3.46 8.85v243.2q0 5.38 3.46 8.85 3.46 3.46 8.85 3.46Zm-12.31 0v-267.82 267.82Z"/></svg>