<svg xmlns="http://www.w3.org/2000/svg" height="48" viewBox="0 -960 960 960" width="48"><path d="M818.61-569.31v-168.3h-169.3V-796H877v226.69h-58.39Zm-734.61 0V-796h226.69v58.39h-168.3v168.3H84ZM649.31-164v-58.39h169.3v-168.3H877V-164H649.31ZM84-164v-226.69h58.39v168.3h168.3V-164H84Zm396.15-144.77q7 0 7.99-5.55 15.41-58.93 57.73-100.96 42.33-42.03 100.82-57.21 5.54-1.92 5.54-7.68 0-6.98-5.55-7.97-58.59-15.24-101.09-57.53-42.5-42.3-57.84-100.75-.49-5.81-7-5.81-6.11 0-8.11 6.19-15.23 58.25-57.33 100.59-42.1 42.34-100.81 57.61-5.73.97-5.73 7.74 0 5.81 5.73 7.74 58.75 14.91 100.74 57.05 41.99 42.14 57.21 101 1.92 5.54 7.7 5.54Z"/></svg>