<svg xmlns="http://www.w3.org/2000/svg" height="20" viewBox="0 -960 960 960" width="20"><path d="M792-552v-144H648v-32h176v176h-32Zm-656 0v-176h176v32H168v144h-32Zm512 320v-32h144v-146h32v178H648Zm-512 0v-178h32v146h144v32H136Zm344-96.15q7 0 8-6 12.46-51.62 49.35-88.5 36.88-36.89 88.85-49.57 5.65-1.78 5.65-7.78 0-7-6-8-51.21-13.3-87.88-49.97-36.67-36.67-49.97-87.88-.23-6-7.5-6-6.5 0-8.28 5.65-12.68 51.97-49.57 88.85-36.88 36.89-88.85 49.47-5.65.88-5.65 7.88 0 6 6 8 51.62 12.46 88.5 49.35 36.89 36.88 49.57 88.85 1.78 5.65 7.78 5.65Z"/></svg>