<svg xmlns="http://www.w3.org/2000/svg" height="24" viewBox="0 -960 960 960" width="24"><path d="M796.46-557.58v-158.38H637.58v-55.96h214.84v214.34h-55.96Zm-688.38 0v-214.34h214.34v55.96H164.04v158.38h-55.96Zm529.5 369.5v-55.96h158.88v-158.38h55.96v214.34H637.58Zm-529.5 0v-214.34h55.96v158.38h158.38v55.96H108.08Zm371.9-121.61q6.92 0 7.91-5.95 15.21-57.91 56.91-99.77 41.7-41.86 99.51-56.88 6-1.98 6-7.9 0-6.91-6-7.9-57.81-14.78-99.44-56.59-41.64-41.82-56.89-99.67-1.62-5.96-8.01-5.96-5.93 0-7.91 5.95-15.04 57.72-56.7 99.58-41.67 41.86-99.71 56.85-5.96.99-5.96 7.88 0 5.96 5.95 7.94 57.85 15.06 99.7 56.76 41.86 41.71 56.79 99.7 1.97 5.96 7.85 5.96Z"/></svg>