<svg xmlns="http://www.w3.org/2000/svg" height="24" viewBox="0 -960 960 960" width="24"><path d="M807-564v-162H644v-106h269v268H807Zm-759 0v-268h268v106H154v162H48Zm596 436v-106h163v-162h106v268H644Zm-596 0v-268h106v162h162v106H48Zm432.25-161q7.22 0 8.25-6 16.5-65 63.97-112.47Q599.93-454.93 665-472q6-2.06 6-8.25 0-7.22-6-8.25-65-16.5-112.47-63.97Q505.07-599.93 488-665q-1-6-7.5-6t-8.63 6.38q-17.05 64.9-64.46 112.25Q359.99-505.02 295-488q-6 1.03-6 8.25 0 6.19 6 8.25 65 16.5 112.47 63.97Q454.93-360.07 472-295q2.06 6 8.25 6Z"/></svg>