<svg xmlns="http://www.w3.org/2000/svg" height="40" viewBox="0 -960 960 960" width="40"><path d="M809-564.67V-728H644.67v-41.33h205.66v204.66H809Zm-698.33 0v-204.66h204.66V-728H152v163.33h-41.33Zm534 374V-232H809v-163.33h41.33v204.66H644.67Zm-534 0v-204.66H152V-232h163.33v41.33H110.67Zm369.41-124.66q7.16 0 8.18-5.71 14.7-56.97 54.88-96.81 40.19-39.83 96.5-54.31 5.69-1.99 5.69-7.96 0-7.12-5.7-8.14-56.38-14.4-96.7-54.6-40.33-40.19-54.98-96.51.05-5.96-7.28-5.96-6.31 0-8.37 6.33-14.53 56.06-54.42 96.2-39.89 40.13-96.72 54.7-5.83 1.01-5.83 8.02 0 6.01 5.83 8.01 56.85 14.36 96.62 54.22 39.76 39.87 54.31 96.82 2 5.7 7.99 5.7Z"/></svg>