<svg xmlns="http://www.w3.org/2000/svg" height="40" viewBox="0 -960 960 960" width="40"><path d="M803.67-561.5v-161.67H641.5v-23.16h185.33v184.83h-23.16Zm-670 0v-184.83H318.5v23.16H156.83v161.67h-23.16ZM641.5-213.67v-23.16h162.17V-398.5h23.16v184.83H641.5Zm-507.83 0V-398.5h23.16v161.67H318.5v23.16H133.67Zm346.09-109q6.91 0 7.9-5.76 14.81-54.44 52.81-92.35 37.99-37.9 91.04-51.64 5.82-1.96 5.82-7.86 0-6.89-5.82-7.87-53.09-13.59-91.38-51.85-38.29-38.26-52.28-91.42-1-5.91-8-5.91-5.88 0-7.84 5.89-13.7 52.91-51.35 91.03-37.65 38.12-92.22 52.06-5.77 1-5.77 7.97 0 6.03 5.76 8.04 54.17 14.14 91.99 51.84 37.83 37.71 51.5 92.06 1.96 5.77 7.84 5.77Z"/></svg>