<svg xmlns="http://www.w3.org/2000/svg" height="24" viewBox="0 -960 960 960" width="24"><path d="M807-564v-162H644v-66h229v228h-66Zm-719 0v-228h228v66H154v162H88Zm556 396v-66h163v-162h66v228H644Zm-556 0v-228h66v162h162v66H88Zm392.25-137.15q7.22 0 8.25-6 14.96-59.62 57.81-102.47T648.85-472q6-2.06 6-8.25 0-7.22-6-8.25-59.62-14.96-102.47-57.81T488-648.85q-.23-6-7.5-6-6.5 0-8.63 6.39-15.51 59.51-58.31 102.24-42.8 42.74-102.41 58.22-6 1.03-6 8.25 0 6.19 6 8.25 59.62 14.96 102.47 57.81T472-311.15q2.06 6 8.25 6Z"/></svg>