<svg xmlns="http://www.w3.org/2000/svg" height="48" viewBox="0 -960 960 960" width="48"><path d="M810-565v-164H645v-35h200v199h-35Zm-694 0v-199h199v35H151v164h-35Zm529 369v-35h165v-164h35v199H645Zm-529 0v-199h35v164h164v35H116Zm364-122q7.13 0 8.14-5.55 14.79-56.47 54.34-95.49 39.55-39.02 94.98-53.2 5.54-1.95 5.54-7.81 0-7.08-5.55-8.09-55.58-14.35-95.33-53.91-39.75-39.56-54.2-95.01.08-5.94-7.17-5.94-6.21 0-8.24 6.31-14.26 55.14-53.39 94.67-39.14 39.52-95.39 53.88-5.73.98-5.73 7.89 0 5.92 5.73 7.89 56.29 14.29 95.21 53.36 38.91 39.06 53.2 95.46Q474.1-318 480-318Z"/></svg>