<svg xmlns="http://www.w3.org/2000/svg" height="48" viewBox="0 -960 960 960" width="48"><path d="M822.87-570.87v-171h-172v-77.52h249.52v248.52h-77.52Zm-761.7 0v-248.52h247.96v77.52h-171v171H61.17Zm589.7 429.7v-76.96h172v-171h77.52v247.96H650.87Zm-589.7 0v-247.96h76.96v171h171v76.96H61.17Zm418.94-159.57q6.88 0 7.86-5.42 16-61.39 61.06-106.02 45.07-44.63 105.82-60.35 5.41-1.9 5.41-7.58 0-6.89-5.42-7.87-61.05-15.87-106.17-61.05-45.13-45.18-61.03-105.5-.84-5.73-6.89-5.73t-8.04 6.24q-15.98 60.29-60.61 105.39-44.64 45.09-105.76 60.88-5.6.95-5.6 7.61 0 5.71 5.6 7.61 61.21 15.5 105.84 60.28t60.35 106.1q1.9 5.41 7.58 5.41Z"/></svg>