<svg xmlns="http://www.w3.org/2000/svg" height="20" viewBox="0 -960 960 960" width="20"><path d="M793.7-552v-145.7H648v-89.52h235.22V-552H793.7Zm-716.92 0v-235.22H312v89.52H166.3V-552H76.78ZM648-172.78v-89.52h145.7V-410h89.52v237.22H648Zm-571.22 0V-410h89.52v147.7H312v89.52H76.78Zm403.08-130.74q7.12 0 8.14-6 14.57-59.83 58.61-103.87 44.04-44.04 104.23-58.55 5.64-1.81 5.64-7.92 0-7.12-6-8.14-59.42-15.41-103.24-59.24-43.83-43.82-59.24-103.24-.43-6-7.22-6-6.78 0-8.62 5.9-14.73 59.93-58.77 103.97-44.04 44.04-104.23 58.45-5.64.9-5.64 8.02 0 6.1 6 8.14 59.83 14.57 103.87 58.61 44.04 44.04 58.55 104.23 1.81 5.64 7.92 5.64Z"/></svg>