<svg xmlns="http://www.w3.org/2000/svg" height="40" viewBox="0 -960 960 960" width="40"><path d="M814.65-566.67v-167.98H646.67v-81.55H896.2v249.53h-81.55Zm-750.48 0V-816.2h249.16v81.55H145.35v167.98H64.17Zm582.5 422.5v-81.18h167.98v-167.98h81.55v249.16H646.67Zm-582.5 0v-249.16h81.18v167.98h167.98v81.18H64.17Zm415.69-154.19q6.91 0 7.9-5.82 16.09-61.65 61.44-106.81 45.35-45.16 106.62-60.96 5.82-1.98 5.82-7.91 0-6.91-5.82-7.9-61.41-15.98-106.69-61.38-45.28-45.41-61.37-106.68-1.37-5.82-7.48-5.82-6.1 0-8.11 6.08-16.02 61.01-61.18 106.36t-106.81 61.15q-5.82.99-5.82 7.91 0 5.93 5.82 7.9 61.65 16.09 106.81 61.25 45.16 45.16 60.96 106.81 1.98 5.82 7.91 5.82Z"/></svg>