<svg xmlns="http://www.w3.org/2000/svg" height="24" viewBox="0 -960 960 960" width="24"><path d="M795.5-557v-158H637v-75h233.5v233h-75ZM90-557v-233h233v75H165v158H90Zm547 387v-75h158.5v-158h75v233H637Zm-547 0v-233h75v158h158v75H90Zm390-132q6.91 0 7.89-5.94 15.79-60.42 59.7-104.49Q591.5-456.5 652-472.25q6-1.97 6-7.88 0-6.89-6-7.87-60.5-15.5-104.25-59.5T488-652.04q-2-5.96-8-5.96-5.92 0-7.89 5.94-15.79 60.42-59.7 104.49-43.91 44.07-104.45 59.74-5.96.98-5.96 7.83 0 5.92 5.94 7.89 60.42 15.79 104.49 59.7 44.07 43.91 59.74 104.45Q474.13-302 480-302Z"/></svg>