<svg xmlns="http://www.w3.org/2000/svg" height="20" viewBox="0 -960 960 960" width="20"><path d="M489.5-435.5Zm45.5-78Zm-332.72 265q-20.22 0-34.75-14.53Q153-277.56 153-297.79V-662q0-20.42 15.26-34.96t36.24-14.54H239L345.5-605h-175v307q0 14 9 23t23 9H496v17.5H202.28ZM807-661.9v56.9H444L337.5-711.5h54.11L446.5-603l-20-19.5H532l-44-89h98.5l44.5 89h95l-44.5-89h76q21.14 0 35.32 14.53T807-661.9ZM840.5-410l-45-46 45 46ZM750-299.5l-66-65L785-466q2.56-1.26 5.29-2.88 2.72-1.62 5.23-1.62 2.75 0 5.65 1 2.91 1 5.33 2.5l44 45.9q1.5 4.1 3 6.6t1.5 5q0 2.5-1.18 4.77-1.17 2.26-3.18 4.59L750-299.5Zm69 168L807-119 688.5-237.5 652-201h-66.5v-66.5L622-303 119-808l12-12.5 688 689ZM600.5-216h41l35-33.5L634-292l-33.5 35v41Z"/></svg>