<svg xmlns="http://www.w3.org/2000/svg" height="48" viewBox="0 -960 960 960" width="48"><path d="M172.38-185q-28.23 0-48.3-20.08Q104-225.15 104-253.38v-453.24q0-27.69 19.23-48.03Q142.46-775 170.15-775h16.16l398.92 397.92-99.15 99.16V-185h-313.7Zm459.93-237.15L286.92-775h69.85l79.15 149.77-19.15-19.15h134.69L487.38-775h123.85l63.08 130.62h124.61L735.85-775h51.77q28.23 0 48.3 20.08Q856-734.85 856-706.62v163.16q-38.85-17.16-68.54-10.27-29.69 6.88-55 32.19l-100.15 99.39Zm189.31 67.77 33-34.24-37-37.76-34 34 38 38Zm-28.08 86.23-97.16-97.39 91.16-90.15q6.92-6.16 14.31-9.12 7.38-2.96 15.77-2.96 7.61 0 15.38 2.58 7.77 2.57 13.92 8.73l37 38.77q6.16 6.92 9.12 14.31Q896-396 896-388.62q0 8.39-3.08 15.89-3.07 7.5-9.23 14.42l-90.15 90.16ZM874.31-87l-30.46 31.23-132.23-130.46-42 42.23h-97.39v-97.38l42.23-43L56.77-842.85 88-873.31 874.31-87Z"/></svg>