<svg xmlns="http://www.w3.org/2000/svg" height="24" viewBox="0 -960 960 960" width="24"><path d="M176.35-187.27q-28.5 0-48.39-19.89-19.88-19.88-19.88-48.38v-448.92q0-28.31 20.83-48.29 20.82-19.98 49.44-19.98h5.57l389.93 389.92-96.93 96.92v98.62H176.35ZM626.5-434.58 292.19-772.73h64.62l64.92 129.35 5.62 5.8h115.42l-67.08-135.15h104.04l67.58 135.15h118.38l-67.27-135.15h85.23q28.5 0 48.39 19.89 19.88 19.88 19.88 48.38v153.04q-35.65-12.27-70.84-6.96-35.2 5.3-60.62 30.53l-93.96 93.27Zm182.85 76.73 37-38.61-37-37.39-38 38 38 38Zm-18.81 82.77L687.58-377.35l89.34-89.03q6.96-6.58 15.35-9.81 8.38-3.23 17.08-3.23 8.8 0 17.28 3.38 8.48 3.39 15.25 9.96l37 37.7q6.58 7.15 9.81 15.28 3.23 8.14 3.23 16.64 0 8.69-3.04 17.13t-10 15.41l-88.34 88.84ZM860-96.65l-39.85 40.03-124.23-124.34-32.38 32.88H560.58v-102.96l32.88-32.27L56.31-820.46l39.84-40.04L860-96.65Z"/></svg>