<svg xmlns="http://www.w3.org/2000/svg" height="40" viewBox="0 -960 960 960" width="40"><path d="M451.26-402.67Zm107.96-91.13Zm-406.9 349.63q-36.44 0-62.29-25.3-25.86-25.3-25.86-61.53v-496.68q0-31.26 19.22-54.9 19.22-23.64 49.33-30.04h13.34l239.61 239.61H152.32v340.69H490.7v88.15H152.32ZM896.2-727.68v154.67H481L237.62-816.2h80.41l77.88 158.66-3.62-4h131.42l-76-154.66h132.06l75.85 154.66h129.26L708.89-816.2h98.79q36.6 0 62.56 25.96t25.96 62.56Zm-29.42 351.09-37-37 37 37Zm-45.49 144.68-136.19-136L781-463q10.32-9.89 23.01-14.95 12.7-5.06 25.77-5.06 13.51 0 26.33 5.34 12.81 5.35 23.08 15.67l37 37q9.88 10.32 14.95 23.01 5.06 12.7 5.06 25.4 0 13.45-5.32 26.45-5.33 13.01-15.36 23.33l-94.23 94.9Zm84.65 179.17L853.75-.17 721.44-132.06l-27.89 27.89H557.36v-136.19l27.89-27.32L9.41-844.52l52.18-52.57L905.94-52.74ZM626.78-173.59h30.65l11.02-11.45-30.22-30.22-11.45 11.01v30.66Z"/></svg>