<svg xmlns="http://www.w3.org/2000/svg" height="20" viewBox="0 -960 960 960" width="20"><path d="M436-408Zm141.26-75.04ZM174.78-172.78q-40.3 0-69.15-28.28-28.85-28.29-28.85-68.03v-420.13q0-34.22 20.87-60.17 20.87-25.96 53.39-33.87h24l238.05 238.04H174.78v274.44h325.83v98H174.78Zm708.44-516.44v144H516.09l-242.57-242h72.43l72.83 145.26-1.26-1.26h100.31l-72-144h110.69l72 144h98.83l-72-144h129.87q41 0 69.5 28.85t28.5 69.15Zm-11.31 310.13-45-45 45 45Zm-52.65 136.48L690.43-369.87 786-466q8.7-7.6 19.63-12.49 10.94-4.9 21.88-4.9 11.93 0 22.8 4.35 10.88 4.34 19.52 13.04l44 45q7.59 9.7 12.49 20.52t4.9 21.64q0 11.58-4.14 22.26-4.15 10.68-13.25 19.41l-94.57 94.56Zm60.87 164.44-56.65 56.65-112.87-112.44-9.17 9.18H572.61v-128.83l9.17-8.61L32.26-813.74l56.65-56.65L880.13-78.17ZM631.91-184.09h32.52l-1.69 2.26-33.09-33.08 2.26-1.7v32.52Z"/></svg>