<svg xmlns="http://www.w3.org/2000/svg" height="20" viewBox="0 -960 960 960" width="20"><path d="M200-244q-22 0-37-15t-15-37v-368q0-22 15.5-37t37.5-15h33l337 338-75 75v59H200Zm418-180L336-716h53l52 105-13-13h103l-46-92h96l46 92h96l-46-92h83q23 0 37.5 15t14.5 37v110q-23-10-44.5-3T730-534L618-424Zm181 63 45-45-45-46-45 46 45 45Zm-43 65-68-68 100-99q3-2 6-3.5t6-1.5q2 0 5.5 1t5.5 3l44 46q2 3 3.5 6t1.5 6q0 3-1 5.5t-4 5.5l-99 99Zm67 169-14 14-119-117-34 34h-68v-68l34-35-509-511 14-14 696 697Z"/></svg>