<svg xmlns="http://www.w3.org/2000/svg" height="40" viewBox="0 -960 960 960" width="40"><path d="M146.67-160q-27 0-46.84-19.83Q80-199.67 80-226.67v-506.66Q80-761 99.5-780.5t47.17-19.5H160l431.33 431.33-98 98V-160H146.67Zm493-255.67L255.33-800h74L401-654.33l9 9h122L456-800h120l76 154.67h126.67l-76-154.67h110.66q27 0 46.84 19.83Q880-760.33 880-733.33V-536q-39-14.67-77.17-9.67-38.16 5-68.83 35.67l-94.33 94.33ZM823-344l37-39-37-37-38 38 38 38Zm-14 97.33-122.33-122L781-463q9-9 20-13t22-4q12 0 23 4.5t20 13.5l37 37q9 9 13 20t4 22q0 11-4.33 22.5-4.34 11.5-13.34 20.5L809-246.67Zm74.33 170L835.67-29l-122-122.33L683-120H560v-123l31.33-30.33L29-835.67l47.67-47.66L883.33-76.67Z"/></svg>