<svg xmlns="http://www.w3.org/2000/svg" height="20" viewBox="0 -960 960 960" width="20"><path d="M202.5-248.5q-20.5 0-35-14.5T153-298v-364q0-21 15.25-35.25t36.25-14.25H239l331 332-74 74v57H202.5Zm413-175-278-288h55l54 108.5-20-19.5H532l-44-89h98.5l44.5 89h95l-44.5-89h76q21.5 0 35.5 14.5t14 35v108.5q-22.5-9.5-42.5-3T729-535L615.5-423.5Zm180 58.5 45-45-45-46-45 46 45 45ZM750-299l-66.5-66.5L785-466q2.5-1.5 5.5-3t6-1.5q1.5 0 4.75 1t5.25 2.5l44 46q1.5 3 3 5.75T855-410q0 3-1 5.25t-3.5 4.75L750-299Zm69 167.5L807-119 687-236.5 652-201h-66.5v-66.5L621-304 119-808l12-12.5 688 689Z"/></svg>