<svg xmlns="http://www.w3.org/2000/svg" height="48" viewBox="0 -960 960 960" width="48"><path d="M489-420Zm57-97ZM183-197q-27.73 0-47.36-19.64Q116-236.27 116-264v-432q0-26.39 18.77-46.69Q153.55-763 181-763h15l155 155H151v344q0 14 9 23t23 9h298v35H183Zm661-499v87h-35l-354 1-154-155h64.59L441-622l-21-21h134l-59-120h119l58 120h123l-58-120h40q27.72 0 47.36 19.64T844-696Zm6 303-37-38 37 38Zm-65 114-87-86 90-90q6-4.94 12.11-7.47 6.11-2.53 12.22-2.53 6.67 0 12.99 2.5 6.33 2.5 11.68 6.5l37 39q4.94 5.87 7.47 11.94Q884-399 884-392.5q0 6.5-2.97 12.58T874-368l-89 89Zm81 186-24 25-134-134-46 46h-87v-87l46-44L69-841l25-24L866-93Zm-256-98h32l39-38-33-33-38 39v32Z"/></svg>