<svg xmlns="http://www.w3.org/2000/svg" height="20" viewBox="0 -960 960 960" width="20"><path d="M439.22-396.15Zm162.43-78.09ZM165.83-158.17q-42.93 0-74.06-30.89-31.12-30.88-31.12-73.57v-434.02q0-40.04 25.32-70.1 25.31-30.05 63.77-33.4h24l271.43 271.43H165.83v265.37h341.78v105.18H165.83Zm733.52-538.48v166.17H794.17l-246 1.76-273.34-273.11h81.46l101.86 183.57-15.39-15.63h105.63l-83.85-167.94h119.11l83.09 167.94h97.19l-83.08-167.94h113.32q43.63 0 74.41 31.29 30.77 31.29 30.77 73.89Zm-15.87 329.13-45-45 45 45Zm-41.52 131.59L706.89-368.76l87.68-88.67q9.07-8.32 20.76-13.64 11.69-5.32 23.38-5.32 12.75 0 24.61 4.36t21.31 13.6l44 46q8.22 10.18 13.47 21.59 5.25 11.42 5.25 23.57 0 12.47-4.43 24.07-4.42 11.6-14.29 20.83l-86.67 86.44Zm48.97 152.97L822.17-14.2 721.2-115.17l-6.53 6.52H579.61v-135.07l6.52-5.28L19.5-817.87l68.76-68.76L890.93-82.96Zm-247.45-89.56h28.09l-3.24 4.48-29.09-29.09 4.24-3.24v27.85Z"/></svg>