<svg xmlns="http://www.w3.org/2000/svg" height="24" viewBox="0 -960 960 960" width="24"><path d="M186-182q-37 0-61.5-24.5T100-268v-424q0-35 23-60.5t57-25.5h9l395 394-106 106v96H186Zm450-253L302-778h70l93 163-27-27h134l-68-136h120l67 136h120l-67-136h30q37 0 61.5 24.5T860-692v143q-43-22-74-13t-57 35l-93 92Zm195 81 28-29-37-38-29 29 38 38Zm-24 81-96-96 82-81q7-6 14-9t15-3q7 0 15 2.5t14 8.5l37 39q6 7 9 14t3 15q0 8-2.5 15t-9.5 14l-81 81Zm72 185-38 38-129-128-38 38h-96v-96l38-39L51-840l38-38L879-88Z"/></svg>