<svg xmlns="http://www.w3.org/2000/svg" height="48" viewBox="0 -960 960 960" width="48"><path d="M462.89-405.5Zm83.81-89.17Zm-399.11 344.3q-31.48 0-54.1-22.07t-22.62-53.52v-506.95q0-27.09 16.91-47.67 16.9-20.57 43.28-26.22h21.5l222.9 222.89H147.59v356.82h350.15v76.72H147.59ZM889.7-732.91v149H457.96L231.67-810.2h85.66l81.65 167.37-18.31-18.37h140.98l-72-149h143.24l72.28 149h131.48l-72.5-149h88.26q31.71 0 54.5 22.79t22.79 54.5Zm-26.98 351.56-37-37 37 37ZM809.3-232.06 676.43-364.93 778-466q10.2-9.3 22.34-14.31 12.14-5.02 25.14-5.02 13.04 0 25.4 5.1 12.35 5.1 22.49 15.23l37 36.9q9.53 10.73 14.43 22.74 4.9 12.01 4.9 24.26 0 13.01-5.45 25.71-5.45 12.69-14.74 22.12L809.3-232.06Zm93.05 175.04L857.39-11 722.85-145.11l-34.24 34.24H555.24v-133.37l34.24-33.67-570-571 44.95-46.03L902.35-57.02ZM622.72-178.35h31.21l17.87-17.8-31.28-31.28-17.8 17.87v31.21Z"/></svg>