<svg xmlns="http://www.w3.org/2000/svg" height="40" viewBox="0 -960 960 960" width="40"><path d="M443-402.67Zm117.67-88.66ZM156.67-132q-43.7 0-74.19-29.5Q52-191 52-234.33v-489q0-34.02 19-60.85 19-26.82 51-38.15h13.33L389-568.67H156.67v332h332V-132h-332Zm752-591.33v154.66H484.33L224-828.67h85.33L392-660l-13.33-14h138.66l-76-154.67h141.34L658.4-674h131.27l-76-154.67h89.66q43.98 0 74.66 30.68t30.68 74.66ZM872-371.67l-37-37 37 37Zm-41 150.34-146.33-146L781-463q11.33-10.82 25.33-16.58 14-5.75 28.67-5.75 14.67 0 28.88 6 14.22 6 25.45 17.33l37 37q10.83 11.33 16.58 25.33 5.76 14 5.76 28 0 15.34-5.84 29.5-5.83 14.17-17.16 25.5L831-221.33Zm92.33 187L867.67 22l-140-140-26 26H555.33v-146.33l26-25-587-588L50-907.67 923.33-34.33ZM632-168.67h25l10-10-25-25-10 10v25Z"/></svg>