<svg xmlns="http://www.w3.org/2000/svg" height="40" viewBox="0 -960 960 960" width="40"><path d="M174.46-180q-31.69 0-53.74-22.05t-22.05-53.74v-448.42q0-30.74 20.91-53.26Q140.49-780 170.9-780h13.07l402.16 401.15L484-276.72V-180H174.46Zm460.77-246.36L288.79-780h70.83l84.76 156.1-19.69-19.69h133.39L490.69-780h122.57l66.38 136.41h123.08L736.33-780h49.21q31.69 0 53.74 22.05t22.05 53.74v159.75q-41.07-19.08-72.24-11.45-31.17 7.63-57.4 33.86l-96.46 95.69Zm191.05 73.64 31.34-32.56-37-37.77-32.34 32.33 38 38Zm-24.56 85.8L701.49-367.31l87.72-86.72q7.25-6.48 14.97-9.61 7.72-3.13 16.44-3.13 7.94 0 16.21 2.74 8.27 2.75 14.76 9.24l37 38.76q6.49 7.26 9.62 14.98 3.12 7.72 3.12 15.77 0 8.72-3.07 16.55-3.08 7.83-9.82 15.09l-86.72 86.72Zm76.46 181.13-35.82 36.33L712.59-177.8l-38.97 39.13H573.23v-100.38l39.13-39.9-561.9-562.41 36.33-35.82L878.18-85.79Z"/></svg>