<svg xmlns="http://www.w3.org/2000/svg" height="24" viewBox="0 -960 960 960" width="24"><path d="M429.7-391.09Zm168.39-93.48ZM163.04-120.96q-51.3 0-87.12-35.26-35.83-35.26-35.83-86v-473.87q0-43.79 26.52-77.44 26.52-33.64 67.95-41.56l297.4 297.39H163.04v293.79h317.31v122.95H163.04Zm756.87-595.13v176.96H796.96l-251 1.43-301.92-301.34h84.26l99.79 184.6-5.66-6.21h126.22l-88.91-178.39h127.35l88.47 178.39h122.83l-88.48-178.39h87.05q51.3 0 87.12 36.22 35.83 36.23 35.83 86.73Zm-39.78 353.22-37-37 37 37Zm-22.87 136.48L706.65-375.43l80.96-80.96q11.4-10.91 26.02-17.09 14.62-6.17 29.24-6.17 15.96 0 30.61 5.85 14.66 5.84 26.74 17.41l37 38q10.68 11.78 16.69 26.18 6 14.4 6 29.34 0 15.7-5.39 30.44-5.39 14.74-17.3 26.65l-79.96 79.39Zm68.13 182.13-74.43 74.44L725.83-94.96l-14.87 14.87H560.35V-230.7l14.87-13.3L-19-839.78l74.43-74.44L925.39-44.26ZM640.13-159.87h22.48l-.57 1.13-22.47-22.48.56-.56v21.91Z"/></svg>