<svg xmlns="http://www.w3.org/2000/svg" height="24" viewBox="0 -960 960 960" width="24"><path d="M437.5-403Zm134.26-90.54ZM171.78-149.78q-42.24 0-71.62-28.82-29.38-28.81-29.38-70.49v-460.13q0-35.46 22.47-62.29 22.47-26.84 56.79-34.75h2.5l251.05 251.04H171.78v304.44h304.83v101H171.78Zm717.44-559.44v154H511.09l-255.57-255h77.91l77.85 155.76-1.76-1.76h122.31l-76.5-154h119.69l77 154h120.83l-76.5-154h91.87q42.24 0 71.62 29.38 29.38 29.38 29.38 71.62Zm-28.81 326.63-37-37 37 37Zm-39.65 137.48L685.93-379.37 775-468.5q10.26-9.36 22.8-14.63 12.54-5.26 25.37-5.26 14 0 26.48 5.1 12.47 5.09 22.68 15.29l37 37.4q9.59 10.8 14.74 22.87t5.15 25.14q0 13.83-4.73 26.31-4.73 12.47-15.16 22.61l-88.57 88.56Zm76.37 183.44L837.98-2.52 708.11-131.96l-21.17 21.18H551.61v-135.33l21.17-20.61L12.76-827.74l59.15-59.15L897.13-61.67ZM620.41-179.59h29.52l5.31-5.24-29.59-29.58-5.24 5.3v29.52Z"/></svg>