<svg xmlns="http://www.w3.org/2000/svg" height="20" viewBox="0 -960 960 960" width="20"><path d="M487-434Zm51-79ZM200-244q-22 0-37-15t-15-37v-368q0-21.45 15.57-36.72Q179.14-716 201-716h33l112 112H168v308q0 14 9 23t23 9h296v20H200Zm612-420v60H448L336-716h52.11L441-611l-13-13h103l-46-92h96l46 92h96l-46-92h83q22.7 0 37.35 15Q812-686 812-664Zm32 258-45-46 45 46Zm-88 110-68-67 100-100q3-2 5.75-3.5 2.76-1.5 5.51-1.5 3.01 0 6.2 1 3.19 1 5.54 3l44 46q2 4 3.5 6.75t1.5 5.5q0 2.75-1.29 5.23-1.3 2.49-3.71 5.52l-99 99Zm67 169-14 14-118-118-35 35h-68v-68l35-34-510-512 14-14 696 697Zm-219-85h41l33-32-42-42-32 33v41Z"/></svg>