<svg xmlns="http://www.w3.org/2000/svg" height="48" viewBox="0 -960 960 960" width="48"><path d="M454-406Zm94-88ZM150-138q-37.17 0-64.09-25.94Q59-189.88 59-227v-504q0-28.56 16.36-52.28Q91.71-807 120-817h20l235 235H150v353h345v91H150Zm752-593v149H461L220-823h86l79 167-16-18h143l-72-149h146l71.6 149H792l-72-149h90q37.59 0 64.79 27.91Q902-767.19 902-731Zm-33 355-37-37 37 37Zm-49 154L678-363l102-101q10-10.76 23.67-16.38Q817.33-486 832-486q14 0 27.55 6.5T884-464l37 38q10.35 10.71 15.68 24.02Q942-388.67 942-375.5q0 14.5-5.76 28.5-5.77 14-16.24 25L820-222Zm99 184-48 49-142-142-32 32H555v-142l32-30L4-856l48-49L919-38ZM629-173h27l16-15-27-27-16 16v26Z"/></svg>