<svg xmlns="http://www.w3.org/2000/svg" height="40" viewBox="0 -960 960 960" width="40"><path d="M474.65-413.32Zm70.76-94.18ZM164.85-184.27q-24.58 0-42.34-17.76-17.77-17.77-17.77-42.35v-471.16q0-24.79 18.23-42.49 18.22-17.7 43.3-17.7h14.65l181.24 181.24H152.63v350.03q0 5.38 3.46 8.84 3.46 3.47 8.85 3.47h321.73v47.88H164.85ZM855.26-715.5v121.01H458.64L277.65-775.73h68.82l67.47 136.01-3.18-2.65h125.39l-65.1-133.36h116.99l65.6 133.36h123.92l-65.62-133.36h83.12q24.67 0 42.43 17.76 17.77 17.77 17.77 42.47Zm-6.25 321.37-37-37.38 37 37.38ZM787.1-265.81 683.31-369.6l95.61-95.12q7.36-6.11 15.78-9.57 8.42-3.47 16.95-3.47 9.29 0 17.78 3.39 8.48 3.38 15.79 10.29l37 37.26q6.34 7.9 9.69 16.21 3.35 8.31 3.35 16.74 0 8.43-3.66 17.24-3.65 8.81-9.64 15.55l-94.86 95.27Zm79.36 175.62-33.82 34.6-128.06-127.19-38.04 38.04h-104.3v-104.3l38.04-37.65L55.62-832.62l34.07-34.34L866.46-90.19ZM609.01-191.51h38l24.36-24.48-37.88-37.88-24.48 24.36v38Z"/></svg>