<svg xmlns="http://www.w3.org/2000/svg" height="40" viewBox="0 -960 960 960" width="40"><path d="M162.57-180q-25.85 0-44.21-18.36T100-242.57v-474.86q0-25.88 18.54-44.22Q137.08-780 162.95-780h13.21l406.07 406.08-95.56 95.56V-180h-324.1Zm468.38-241.18L276.23-780h67.08l65.38 132.72 3.49 3.49h123.03L468.18-780H582.8l67.02 136.21h124.87L707.67-780h89.76q25.85 0 44.21 18.36T860-717.43v173.87q-35.54-12.88-69.54-7.81-34 5.06-60.95 32.01l-98.56 98.18Zm184.36 69.49 37-38.62-37-37.38-38 38 38 38Zm-21.95 88.23L688.08-368.15l93.69-93.7q7.46-7.07 16.15-10.3 8.69-3.23 17.39-3.23 9.3 0 18.19 3.53 8.88 3.54 15.96 10.62l37 37.38q7.08 7.47 10.31 16.16Q900-399 900-390.31t-3.37 17.69q-3.37 9-10.58 16.46l-92.69 92.7Zm76.9 177.56-35.75 36-127.38-127.33L670.31-140H564.62v-105.69l37.23-36.62L49.9-834.51l36-35.75L870.26-85.9Z"/></svg>