<svg xmlns="http://www.w3.org/2000/svg" height="20" viewBox="0 -960 960 960" width="20"><path d="M482-420Zm86-80ZM194-214q-32.73 0-55.36-22.64Q116-259.27 116-292v-376q0-31.45 20.57-54.72Q157.14-746 188-746h33l166 166H162v288q0 14 9 23t23 9h308v46H194Zm650-454v86h-46l-309 2-166-166h68.11L483-586l-40-40h117l-60-120h116l59 120h96l-59-120h54q33.42 0 55.71 22.64T844-668Zm19 281-45-46 45 46Zm-70 110-86-84 91-92q4.83-3.88 9.83-6.44 4.99-2.56 9.99-2.56 5.45 0 11.14 1.5T839-455l44 47q3.88 5.74 6.44 10.62 2.56 4.88 2.56 10.63 0 5.75-2.24 10.39-2.23 4.64-6.76 9.36l-90 90Zm61 164-32 32-112-113-30 30h-86v-86l30-28L82-822l32-32 740 741Zm-231-80h30l30-28-32-32-28 30v30Z"/></svg>