<svg xmlns="http://www.w3.org/2000/svg" height="40" viewBox="0 -960 960 960" width="40"><path d="M479.51-411.79Zm79.62-96.88ZM174.46-180q-31.42 0-53.6-22.19-22.19-22.19-22.19-53.6v-448.42q0-30.3 20.75-53.05Q140.17-780 170.9-780h13.07l187.59 187.59H149.85v336.62q0 10.76 6.92 17.69 6.92 6.92 17.69 6.92H484V-180H174.46Zm686.87-524.21v110.47h-51.18l-334.28 1.33L288.79-780h70.51l85.08 156.1-19.69-19.69h133.39L490.69-780h122.57l66.38 136.41h123.08L736.33-780h49.21q31.42 0 53.6 22.19 22.19 22.19 22.19 53.6Zm-3.71 318.93-37-37.77 37 37.77Zm-55.75 118.36-100.38-99.39 87.72-87.72q7.2-6.33 15.06-9.53 7.86-3.21 15.72-3.21 8.57 0 16.71 3.08 8.13 3.07 14.89 8.9l37 38.76q6.33 7.09 9.54 14.89 3.2 7.81 3.2 16.19 0 8.39-3.5 16.32-3.5 7.94-9.39 14.99l-86.57 86.72Zm76.31 181.13-35.82 36.33-128.85-129.1-39.89 39.89H573.23v-100.38l39.9-38.13L50.46-841.36l36.33-35.82L878.18-85.79Zm-260.56-97.26h30.33l30.92-30.16-31.1-31.1-30.15 30.93v30.33Z"/></svg>