<svg xmlns="http://www.w3.org/2000/svg" height="48" viewBox="0 -960 960 960" width="48"><path d="M183-197q-28 0-47.5-19.5T116-264v-432q0-27 19-47t46-20h15l383 382-98 98v86H183Zm444-230L301-763h65l75 141-21-21h134l-59-120h119l58 120h123l-58-120h40q28 0 47.5 19.5T844-696v147q-37-16-64.5-9T729-528L627-427Zm190 68 33-34-37-38-34 34 38 38Zm-32 80-87-87 90-89q6-5 12-7.5t13-2.5q6 0 12.5 2t11.5 7l37 39q5 6 7.5 12t2.5 12q0 7-2.5 13t-7.5 12l-89 89Zm81 186-24 25-135-133-45 45h-87v-87l45-46L69-841l25-24L866-93Z"/></svg>