<svg xmlns="http://www.w3.org/2000/svg" height="20" viewBox="0 -960 960 960" width="20"><path d="M467.35-420.42Zm88.26-77.08ZM184.26-219.27q-24.35 0-42.27-17.92-17.91-17.91-17.91-42.27v-401q0-24.86 18.42-42.57 18.42-17.7 43.85-17.7h29.57l167.12 167.11h-211v294.08q0 5.39 3.46 8.85t8.85 3.46h316.57v47.96H184.26Zm651.66-461.15v106.8H480.31L313.19-740.73h62.97l63.57 126.35-7.38-7.2h98.42l-59.08-119.15h100.04l59.58 119.15h94.38l-59.27-119.15h109.23q25.14 0 42.71 17.92 17.56 17.91 17.56 42.39Zm14.43 279.96-45-45.39 45 45.39Zm-74.81 121.88-92.46-91.46 98.84-99.34q5.03-4.04 11.2-7.04 6.18-3 12.46-3 6.84 0 13.09 2.38 6.24 2.39 11.21 6.96l44 45.6q4.27 6.56 7.16 12.29 2.88 5.73 2.88 12.07 0 6.35-2.41 12.31-2.4 5.96-7.57 10.83l-98.4 98.4ZM835-121.65l-33.85 34.03-108.34-107.73-23.27 23.27h-92.96v-92.96l23.27-22.88L87.31-802.46l33.84-34.04L835-121.65Zm-224.65-84.2h41l15.92-15.04-41.88-41.88-15.04 15.92v41Z"/></svg>