<svg xmlns="http://www.w3.org/2000/svg" height="20" viewBox="0 -960 960 960" width="20"><path d="M194-214q-33 0-55.5-22.5T116-292v-376q0-32 20.5-55t51.5-23h33l369 369-88 88v75H194Zm443-209L323-746h69l91 160-40-40h117l-60-120h116l59 120h96l-59-120h54q34 0 56 22.5t22 55.5v124q-36-22-59.5-11.5T740-524L637-423Zm190 72 36-36-45-46-36 37 45 45Zm-35 75-86-87 92-90q5-4 10-6.5t11-2.5q4 0 10 1.5t10 5.5l44 47q4 5 6.5 10t2.5 11q0 6-2 10.5t-7 9.5l-91 91Zm62 163-32 32-114-111-28 28h-86v-86l28-30L82-822l32-32 740 741Z"/></svg>