<svg xmlns="http://www.w3.org/2000/svg" height="24" viewBox="0 -960 960 960" width="24"><path d="M441-386Zm165-98ZM154-130q-43.72 0-74.86-31.14Q48-192.27 48-236v-488q0-43 28.5-74.5T147-830l294 294H154v300h332v106H154Zm758-594v186H806l-251 2-294-294h82l106 188h120l-94-188h120l93 188h120l-93-188h91q43.72 0 74.86 31.14T912-724Zm-33 360-37-37 37 37Zm-24 128L714-376l77-77q10.83-9.88 24.07-15.44 13.24-5.56 26.49-5.56 14.44 0 27.94 5 13.5 5 24.5 16l37 38q9.88 10.74 15.44 23.87Q952-378 952-364q0 14-4.94 27.66Q942.12-322.69 931-312l-76 76Zm54 168L834 7 723-104l-16 16H566v-141l16-15L-6-833l75-75L909-68Zm-270-93h27l-27-27v27Z"/></svg>