<svg xmlns="http://www.w3.org/2000/svg" height="48" viewBox="0 -960 960 960" width="48"><path d="M479.81-413.77Zm60-93.73ZM159.15-182.77q-22.69 0-39.38-16.69t-16.69-39.38v-482.24q0-23.11 16.94-39.63 16.95-16.52 40.21-16.52h19.19l176.31 176.31H146.92v362q0 5.38 3.47 8.84 3.46 3.46 8.84 3.46h332.31v43.85H159.15Zm697.77-538.27v120.12H446.31L270.39-777.23h70.99l68.66 139.35-7.58-6.89h130.39l-64.12-132.46h123.46l64.62 132.46H783.5l-64.81-132.46h82.08q22.77 0 39.46 16.69t16.69 39.5Zm-6.57 328.08-37-37.39 37 37.39Zm-64.47 131.54L681.42-365.88l98.5-98q7.53-6.15 16.01-9.6 8.47-3.44 17.05-3.44 9.35 0 17.89 3.38 8.54 3.39 16.01 10.46l37 37.1q6.39 8.06 9.71 16.54 3.33 8.48 3.33 16.82 0 8.35-3.92 17.32-3.92 8.98-9.53 15.68l-97.59 98.2Zm83.81 174.46-30.81 31.88L708.96-184l-40.92 40.92H563.08v-104.96L604-288.58 55.27-838.69l31.19-31.5L869.69-86.96ZM610.35-190.35h38l27.07-27.19-37.88-37.88-27.19 27.07v38Z"/></svg>