<svg xmlns="http://www.w3.org/2000/svg" height="48" viewBox="0 -960 960 960" width="48"><path d="M147.59-150.37q-31.48 0-54.1-22.05-22.62-22.06-22.62-53.54v-506.95q0-27.39 16.97-47.82 16.96-20.42 43.22-26.07h21.5l441.87 441.87-96.69 96.69v117.87H147.59Zm489.34-254.56L231.67-810.2h85.66l81.65 167.37-18.31-18.37h140.98l-72-149h143.24l72.5 149h131.26l-72.5-149h88.26q31.48 0 54.38 22.91 22.91 22.9 22.91 54.38v203.41q-42.59-18.39-81.01-13.58Q770.26-538.26 738-506L636.93-404.93Zm192.74 58.63 33.05-35.05-37-37-34.05 34.05 38 38ZM809.3-232.56 676.93-364.93 778-466q10.13-9.63 22.29-14.48 12.17-4.85 25.43-4.85 12.63 0 25.07 5.1 12.45 5.1 22.58 15.23l37 37q9.63 10.13 14.48 22.29 4.85 12.17 4.85 24.36 0 13.26-5.35 25.93-5.35 12.66-14.98 22.29L809.3-232.56Zm93.05 175.54L857.39-11 721.78-145.54l-33.17 34.67H555.24v-133.37l34.67-34.24L19.48-848.91l44.95-46.03L902.35-57.02Z"/></svg>