<svg xmlns="http://www.w3.org/2000/svg" height="40" viewBox="0 -960 960 960" width="40"><path d="M459-393.33Zm118.33-95.34ZM142.67-140q-33.73 0-58.87-25.14Q58.67-190.27 58.67-224v-512q0-34.09 22.73-59.05Q104.14-820 138.33-820h13.34L409-562.67H142.67V-224h354.66v84H142.67Zm758.66-596v172h-84l-313 1.33L247-820h84.67L429-638l-8.67-8.67h131.34L466.33-820h133.34L684-646.67h126.67L726.33-820h91q33.73 0 58.87 25.14 25.13 25.13 25.13 58.86ZM873-370.67l-37-37 37 37Zm-39.33 137.34-135-134 89-89q10.27-9.93 22.84-14.8 12.56-4.87 25.12-4.87 13.7 0 26.2 5t22.84 14.67l37 38q9.92 10.16 14.79 22.58 4.87 12.42 4.87 25.42 0 13-5.29 25.93-5.3 12.94-15.04 23.07l-87.33 88Zm70.66 166L844.67-7.67 726.33-126 699-98.67H564v-135L591.33-260 8.67-843.67l59.66-59.66 836 836ZM633-167.67h30.33L674-178.33l-30.33-30.34L633-198v30.33Z"/></svg>