<svg xmlns="http://www.w3.org/2000/svg" height="40" viewBox="0 -960 960 960" width="40"><path d="M454.43-404.67Zm100.62-89.63Zm-399.4 344.13q-35.06 0-59.94-24.32-24.87-24.32-24.87-59.18v-491.34q0-29.89 18.76-52.55 18.76-22.66 47.79-29.06h15.17l232.27 232.27H155.65v339.36H490.7v84.82H155.65Zm733.89-574.84v150.66H475.67L239.62-810.2h83.07l80.39 163.5-12.79-12.84h134.75l-73.5-150.66h135.4l73.84 150.66h127.94L714.88-810.2h89.47q35.22 0 60.2 24.98 24.99 24.99 24.99 60.21Zm-27.59 343.25-37-37 37 37Zm-48.83 145.35L679.6-369.75l97.4-97.08q10.22-9.32 22.49-14.42 12.28-5.1 25.22-5.1 13.36 0 25.76 5.1 12.39 5.1 22.55 15.25l37 37.07q9.55 10.75 14.54 22.78 4.98 12.03 4.98 24.56 0 13.28-5.21 25.9t-14.88 22.28l-96.33 97Zm87.49 177.84-49.69 50.4-132.98-132.55-29.89 29.88H554.03v-134.02l29.88-29.32L17.24-841.86l49.69-50.39L900.61-58.57ZM621.95-178.76h30.65l13.68-13.62-30.71-30.71-13.62 13.68v30.65Z"/></svg>