<svg xmlns="http://www.w3.org/2000/svg" height="40" viewBox="0 -960 960 960" width="40"><path d="M460.62-404.67Zm93.34-91.47ZM152.39-159.3q-29.62 0-51.02-21.17-21.4-21.17-21.4-50.7v-497.11q0-27.81 18.92-48.08 18.93-20.27 46.54-22.98h15.17l221.73 221.73H152.39v345.89h339.83v72.42H152.39Zm727.8-568.98v150.67H473.17L249.84-800.86h79.38l76.79 156.01-5.5-5.34h129.32l-73.5-150.67h128.43l73.94 150.67h126.43L711.3-800.86h96.31q29.68 0 51.13 21.45 21.45 21.45 21.45 51.13Zm-22.15 342.82-37-37 37 37Zm-52.2 141.11L679.93-370.18 777-466.83q9.46-8.62 20.75-13.2 11.3-4.58 23.05-4.58 12.49 0 23.84 4.61 11.34 4.61 20.77 14l37 37.07q8.85 9.99 13.32 21.04 4.46 11.05 4.46 22.6 0 11.87-4.83 23.62-4.83 11.75-13.52 20.65l-96 96.67Zm81.73 171.97L840.49-24.8 713.26-151.27l-31.3 31.3H555.55v-126.41l31.3-31.06L28.54-836.75l47.08-47.57L887.57-72.38ZM618.04-182.46h34.89l14.44-14.7-34.63-34.63-14.7 14.44v34.89Z"/></svg>