<svg xmlns="http://www.w3.org/2000/svg" height="24" viewBox="0 -960 960 960" width="24"><path d="M470.23-406Zm107.31-98ZM178.62-170q-38.35 0-64.48-26.14Q88-222.27 88-260.62v-438.76q0-36.66 24.21-63.64Q136.41-790 172.38-790h6.93l214 214H154v315.38q0 10.77 6.92 17.7 6.93 6.92 17.7 6.92h301.23v66H178.62ZM872-699.38V-578h-66l-299.46 2-214-214H365l96.31 168.77L440.54-642h130.77l-74-148h120l73 148h120l-73-148h44.07q38.35 0 64.48 26.14Q872-737.73 872-699.38Zm-8.38 320.76-37-37.76 37 37.76Zm-45.54 114.16L711.69-369.85l80.85-80.84q7.75-6.81 16.29-10.44 8.54-3.64 17.08-3.64 9.32 0 18.45 3.08 9.14 3.07 16.56 10.23l37 38.77q6.81 7.66 10.44 16.18Q912-388 912-378.62q0 9.39-3.4 18.05-3.41 8.65-10.68 16.26l-79.84 79.85Zm67.84 181.08-46.54 46.53-124.07-124.84L681.62-128H575.23v-106.38l33.69-31.93L37.85-838.38l46.53-46.54L885.92-83.38Zm-262.3-93h27L676-201l-27.77-27.77-24.61 25.39v27Z"/></svg>