<svg xmlns="http://www.w3.org/2000/svg" height="40" viewBox="0 -960 960 960" width="40"><path d="M440.78-461.17ZM229.59-16.68h182.47q-18.7-19.73-30.77-44.1-12.07-24.38-16.82-52.71H229.12l.89-487.73h-.66l210.77-207.64 211.16 208.41v164.38q22.82-3.86 47.81-3.23 24.99.62 49.19 5.92v-166.68q-.29-18.18-7.93-36.49-7.64-18.3-21.42-31.29L506.74-878.51q-14.76-13.17-32.19-20.45-17.43-7.27-35.06-7.27-19.91 0-37.33 6.99-17.41 6.99-32.46 20.73L160.3-668.07q-13.65 14.22-20.52 31.91-6.87 17.7-6.87 36.4v486.4q0 39.14 28.58 67.91 28.58 28.77 68.1 28.77Zm210.86-584.49q-24.64 0-41.67-16.3t-16.39-41.43q-.65-23.74 16.17-40.26t42.17-16.52q24.36 0 41.83 16.52t15 40.26q2.47 24.97-15 41.35-17.47 16.38-42.11 16.38ZM565-16.12q-59.04 0-99.01-40.64-39.98-40.65-39.98-98.64 0-51.87 34.14-90.7 34.14-38.83 87.49-46.28 19.46-38.08 56.83-59.75 37.38-21.67 81.39-21.67 53.55 0 98.93 25.46 45.38 25.45 55.5 74.86h1.33q45.7 6.44 73.7 44.11t28 84.51q0 53.27-34.39 91.01-34.4 37.73-83.93 37.73H565Zm0-89.84h250q15.54 0 27.2-11.19 11.65-11.2 11.65-28.2 0-15.78-11.65-27.38-11.66-11.6-27.2-11.6h-50.15l3.11-16.53q.1-34.79-24.79-59.13-24.88-24.34-58.31-24.34-27.82 0-48.38 18.05-20.57 18.05-28.37 43.83l-3.97 18.12H565q-21.39 0-35.46 14.31-14.06 14.32-14.06 35.02 0 20.69 14.06 34.87 14.07 14.17 35.46 14.17Zm120 0Z"/></svg>