<svg xmlns="http://www.w3.org/2000/svg" height="48" viewBox="0 -960 960 960" width="48"><path d="M437.96-467.28ZM219.63-37.37h193.5q-15.94-15.81-26.54-35.34-10.61-19.53-16.36-42.2H218.52l1.35-490.13h-1l218.09-214.61 219.61 216.37v169.26q17.95-2 37.75-1.27 19.81.73 39.79 5.22v-172.96q-.76-14.05-7.38-29.23-6.62-15.17-17.58-25.65L489.83-875.24q-11.75-10.48-25.86-16.34-14.1-5.85-27.95-5.85-16.26 0-30.3 5.73-14.03 5.74-26.11 16.46L163.76-658.15q-11.48 11.72-16.84 26.19-5.35 14.48-5.35 28.79v487.74q0 31.43 23.19 54.75 23.2 23.31 54.87 23.31Zm217.83-572.26q-23.79 0-40.56-15.73-16.78-15.74-15.79-40.12-.99-23.04 15.53-39.2 16.52-16.17 40.94-16.17 23.66 0 40.94 16.17 17.28 16.16 14.81 39.2 2.47 24.28-14.81 40.07-17.28 15.78-41.06 15.78Zm115.58 572.5q-55.57 0-93.08-37.81-37.5-37.81-37.5-92.89 0-49.74 33.62-86.63 33.62-36.89 84.81-42.84 18.24-37.24 54.13-58.74 35.88-21.5 79.01-21.5 51.45 0 94.53 25.88 43.07 25.88 53.35 73.59h2q43.72 3.44 71.22 39.31 27.5 35.87 27.5 81.34 0 49.53-31.69 84.91-31.68 35.38-77.9 35.38h-260Zm0-74.91h250q17.97 0 31.44-13.03 13.48-13.02 13.48-32.91 0-17.96-13.48-31.42-13.47-13.47-31.44-13.47h-45.08l6.52-3.24q1.76-39.48-25.86-68.12-27.61-28.64-65.67-28.64-30.67 0-53.41 19.12-22.74 19.13-31.21 47.68l-1.2 13.2h-34.09q-23.9 0-39.91 16.08-16 16.08-16 39.55 0 23.48 16 39.34 16.01 15.86 39.91 15.86Zm120 0Z"/></svg>