<svg xmlns="http://www.w3.org/2000/svg" height="48" viewBox="0 -960 960 960" width="48"><path d="M444.5-481ZM267-132h65q-4.14-4.94-7.23-10.3-3.09-5.36-5.93-11.7H267q-14 0-24-10t-10-24l.5-408.41q0-6 2.25-12.5t7.25-10.5L421-797q9-9 22.5-8.5T467-796l180.5 177.92q4.5 5 6.75 10.5t2.25 12.5V-491q5 1.5 10.89 3.2 5.89 1.7 11.61 2.8v-110.07q.5-11.43-3.55-21.47-4.06-10.03-11.95-18.96L483.06-813.33q-7.39-7.67-17.36-11.17-9.96-3.5-21.19-3.5-11.51 0-22.01 4-10.5 4-17.58 10.61L227.5-635.5q-8 8.5-11.75 18.89T212-595v408q0 23 16 39t39 16Zm177.46-507q-13.46 0-23.21-9.32-9.75-9.33-8.75-23.5-1-13.18 8.63-22.68 9.62-9.5 23.17-9.5 13.7 0 23.95 9.5T477-672q1.5 14-8.79 23.5-10.3 9.5-23.75 9.5Zm50.04 507q-40 0-67.25-27.25T400-226.48q0-38.84 27.29-65.37 27.29-26.54 67.71-28.65 13.5-36.5 46.5-58t73.19-21.5q47.63 0 85.97 27.5Q739-345 743-300h13q31 0 51.5 25.61t20.5 58.7Q828-182 806.62-157t-52.12 25h-260Zm0-22h250q24.8 0 43.15-17.71Q806-189.42 806-216.97q0-24.61-18.35-42.82T744.5-278H719l5 4q2.5-44.5-31-74.25T614.23-378q-33.9 0-61.82 18-27.91 18-38.41 50l-3 12h-16.5q-29.76 0-51.13 21.04Q422-255.91 422-225.21q0 28.71 21.37 49.96T494.5-154Zm120 0Z"/></svg>