<svg xmlns="http://www.w3.org/2000/svg" height="40" viewBox="0 -960 960 960" width="40"><path d="M437-480ZM226-80h150.33Q364-94.33 355-111q-9-16.67-14.67-35.67H226l-.33-455.66h.33l212-211L648.33-601v135.33q17 .67 34 3.84 17 3.16 32.67 9.16V-600q.33-12.67-5.33-25.5Q704-638.33 695-647.67L484.33-860q-10.05-10-22.19-15t-24.81-5q-13 0-25.33 5-12.33 5-22 15L178.33-648.33q-9.66 9.66-14.33 22-4.67 12.33-4.67 25.33v454.33q0 28.34 19.17 47.5Q197.67-80 226-80Zm211.33-533q-23 0-38.5-15.83-15.5-15.84-16.16-38.84.66-22.33 16.03-38.16 15.36-15.84 38.63-15.84 23 0 38.34 15.84Q491-690 492-667.67q-1 23-16.33 38.84Q460.33-613 437.33-613ZM520-80q-51 0-85.5-34.5T400-200q0-48 33-82.5t81-37.17q16.67-36.66 50.17-58.5Q597.67-400 638.8-400q48.34 0 87.94 26.5 39.59 26.5 49.59 73.5h1.34q43.66 0 73 32.5Q880-235 880-190t-28.5 77.5Q823-80 780-80H520Zm0-66.67h250q17.33 0 30.33-12.5t13-31.14q0-17.21-13-30.12-13-12.9-30.33-12.9h-45.67L718.67-259Q717-290.33 694-311.83t-54.33-21.5q-24.34 0-43.84 13.66-19.5 13.67-28.5 36l-12 30.34H520q-22.67 0-38 15.4-15.33 15.4-15.33 38.16 0 22.77 15.33 37.94 15.33 15.16 38 15.16Zm120 0Z"/></svg>