<svg xmlns="http://www.w3.org/2000/svg" height="48" viewBox="0 -960 960 960" width="48"><path d="M364.61-103.08q-20.15-23.08-28.92-51.5-8.77-28.42-8.77-58.07 0-60.93 36.69-108.56 36.7-47.64 95.81-63.87 28.58-42.88 72.81-65.44 44.23-22.56 98.58-22.56 16.69.31 34.88 3.43 18.19 3.11 33.31 8.34v-137.88q.19-10.69-4.83-21.56-5.02-10.87-12.52-19.06L478.69-840.88q-8.11-8.12-18.42-12.08-10.31-3.96-21.19-3.96-11.31 0-21.81 4.31-10.5 4.3-18.73 11.73L198.58-640.73q-8.62 8.81-12.37 19.77-3.75 10.96-3.75 21.34v440q0 23.31 16.62 39.93 16.61 16.61 39.92 16.61h125.61Zm75.77-524.23q-18.61 0-31.59-12.58-12.98-12.57-11.98-31.19-1-17.61 11.98-30.19 12.98-12.58 31.59-12.58 17.93 0 31.25 12.58 13.33 12.58 12.14 30.19 1.19 18.62-12.14 31.19-13.32 12.58-31.25 12.58Zm67.66 524.23q-46.46 0-78.02-31.56-31.56-31.55-31.56-78.01 0-44.24 30.73-75.25 30.73-31.02 75.66-34.14 15.65-36.5 48.96-58 33.3-21.5 74.73-21.5 48.92 0 88.15 27.04 39.23 27.04 45.69 72.96h7.16q37.77 0 62.57 29.66 24.81 29.65 24.81 69.23 0 40.96-25.56 70.26-25.55 29.31-63.32 29.31h-260Z"/></svg>