<svg xmlns="http://www.w3.org/2000/svg" height="20" viewBox="0 -960 960 960" width="20"><path d="M360.13-86.87q-22.67-26.22-33.25-57.99-10.58-31.77-10.58-66.68 0-60.16 34.09-108.46t89.76-69.26q28.78-54.07 76.14-80.58 47.36-26.51 109.21-28.66 25.39-.43 52.13 5.34 26.74 5.77 50.61 16.27v-113.89q-.74-16.15-6.33-30.19-5.58-14.03-17.52-24.23L512.37-839.52q-12.17-11.94-25.59-17.27-13.41-5.34-27.82-5.34-15.66 0-29.82 5.97-14.16 5.96-26.07 16.64L216.24-646.2q-12.44 11.94-17.52 26.09-5.09 14.15-5.09 29.07v426.65q0 30.83 23.47 54.17 23.47 23.35 54.29 23.35h88.74Zm99.3-486.22q-24 0-41.25-16.26t-15.77-40.26q-1.48-22.76 15.77-39.02t41.25-16.26q23.27 0 40.89 16.26 17.61 16.26 15.4 39.02 2.21 24-15.4 40.26-17.62 16.26-40.89 16.26Zm48.79 486.46q-52.37 0-88.64-36.27-36.28-36.27-36.28-88.64 0-45.92 29.6-80.34t76.27-42.36q15.18-45.72 53.37-71.97 38.2-26.25 87.9-26.25 56.89 0 99.03 34.89 42.14 34.9 47.42 86.83h3q40.72 6.39 66.98 38.07 26.26 31.67 26.26 73.37 0 46.87-34.02 79.77t-78.89 32.9h-252Z"/></svg>