<svg xmlns="http://www.w3.org/2000/svg" height="20" viewBox="0 -960 960 960" width="20"><path d="M412.04-8.59q-25.95-28.71-37.79-64.39-11.84-35.67-11.84-73.87 0-64.91 35.98-117.87 35.98-52.95 95.41-75.91 20.48-40 55.74-67.62 35.26-27.62 82.03-38.34 30.67-7.24 64.7-5.12t64.71 10.36V-594.8q-1-21.44-8.86-40.75-7.86-19.32-23.05-33.04L528.98-869.43q-16.2-14.96-34.89-22.44-18.7-7.48-37.89-7.48-20.68 0-40.25 7.86-19.58 7.86-35.02 22.06l-194.6 201.6q-15.72 15.96-22.82 35.66-7.1 19.69-7.1 39.37v478.52q0 42.39 31.66 74.04 31.65 31.65 74.04 31.65h149.93Zm45.16-541.56q-29.29 0-50.95-20.67-21.66-20.66-19.66-49.94-2-28.04 19.66-48.71 21.66-20.66 50.95-20.66 29.28 0 51.56 20.66 22.28 20.67 18.81 48.71 3.47 29.28-18.81 49.94-22.28 20.67-51.56 20.67ZM572.91-8.35q-58.39 0-98.44-40.29-40.06-40.29-40.06-98.21 0-49.43 30.86-87.13 30.86-37.69 80.3-47.89 16.95-47.48 57.79-73.48 40.84-26 92.79-26 59.68 0 104.59 33.76 44.91 33.76 53.96 86.96 43.71 9.91 70.21 45.11 26.5 35.19 26.5 80.91 0 52.15-38.17 89.21-38.17 37.05-88.33 37.05h-252Z"/></svg>