<svg xmlns="http://www.w3.org/2000/svg" height="20" viewBox="0 -960 960 960" width="20"><path d="M317-153q-14-18.5-19.5-44.25T292-246q0-53.5 29-98.25t80-66.25q29-55.5 80.25-85T600-525q19.5.5 40.5 5.75t40 12.75v-83q-1-10.5-4.5-20t-11-16L496-794q-7.5-7.5-16.5-10.25T461-807q-10 0-19.75 3.75T424.5-794l-161 168q-9 9-11.75 18.25T249-588.5v385q0 19.5 15.5 35t35 15.5H317Zm145.5-456q-13.5 0-25-10t-8.5-23.5q-3-12.5 8.5-22.5t25-10q13.5 0 25.5 10t8 22.5q4 13.5-8 23.5t-25.5 10Zm12 456q-39 0-66-27t-27-66q0-34.5 23.75-60T466-338q11-45 47.5-70.75T598-434.5q55 0 93.25 36t38.25 85H744q28 4 45.5 27.25T807-234q0 33.5-24.75 57.25T726.5-153h-252Z"/></svg>