<svg xmlns="http://www.w3.org/2000/svg" height="20" viewBox="0 -960 960 960" width="20"><path d="M463-447ZM272 15h137q-23-27-38-59.28T353-113h-80l1-477h-1l187-191 191 190v135q31-6 64.5-4t64.5 8v-139.46q-1-25.54-10-49.04T742-680L548-874q-20-18-42.67-27-22.66-9-45.33-9-25.67 0-48.83 9Q388-892 368-874L181-680q-18 19-27 42.44-9 23.45-9 48.25V-112q0 50 38.5 88.5T272 15Zm189-572q-27 0-46-18t-17-45q-2-25 17-43t46.5-18q26.5 0 46.5 18t15 43q5 27-15 45t-47 18ZM579 16q-66 0-111-46t-45-110q0-53.54 32-95.27T541-291q20-49 63.86-75t98.48-26q65.01 0 115.83 33Q870-326 876-269q46 16 72.5 55.04 26.5 39.05 26.5 86.57 0 59.98-43.72 101.69Q887.56 16 831 16H579Zm0-113h252q12.4 0 21.7-9.27 9.3-9.26 9.3-21.37 0-13.09-8-20.73-8-7.63-20-9.63l-61-5 6-40q-3-31-25.58-53.5Q730.85-279 700-279q-34 0-55 26.5T617-194l4 7-49 5q-16.47 3-26.24 14.98-9.76 11.98-9.76 26.74 0 18.15 12.06 30.72Q560.13-97 579-97Zm120 0Z"/></svg>