<svg xmlns="http://www.w3.org/2000/svg" height="24" viewBox="0 -960 960 960" width="24"><path d="M440.43-474.26ZM242.39-60.87h124.74q-15.39-19.15-25.47-42.02-10.07-22.87-14.83-48.98h-84.2l-.76-444.17h.76l200.33-200.85L639-596.28v122.78q23.39-1.43 46.38 1.59 22.99 3.02 44.86 11.02v-134.39q.76-18.15-6.08-34.69-6.83-16.53-19.27-29.73L507.37-861.02q-13.67-13.44-30.09-20.27-16.41-6.84-34.32-6.84-17.16 0-34.07 6.72-16.91 6.71-29.82 20.39L177.74-659.7q-12.44 12.44-19.27 28.59-6.84 16.15-6.84 35.07v444.65q0 38.83 25.97 64.67 25.97 25.85 64.79 25.85Zm198.93-536.22q-24.89 0-41.39-17.26t-18.02-42.26q1.52-24.76 18.02-42.02t41.5-17.26q24.77 0 40.89 17.26 16.11 17.26 18.4 42.02-2.29 25-18.4 42.26-16.12 17.26-41 17.26Zm90.4 536.46q-53.87 0-90.64-36.77-36.78-36.77-36.78-90.64 0-49.92 33.6-86.09t83.27-39.61q17.68-36.72 52.37-59.22 34.7-22.5 75.9-22.5 49.39 0 90.28 26.14 40.89 26.15 52.17 74.58 45.72 2.39 76.48 36.57 30.76 34.17 30.76 80.37 0 47.93-30.77 82.55t-76.64 34.62h-260Zm0-87.41h250q12 0 21-8.62t9-21.38q0-12.24-9-21.12t-21-8.88h-57l-14.61-54.61q-4.76-20.72-21.5-33.06-16.73-12.33-37.65-12.33-17.96 0-32.7 10.83-14.74 10.84-21.98 26.8l-18.56 42.37h-46q-17 0-28.5 11.5t-11.5 28.5q0 17 11.5 28.5t28.5 11.5Zm120 0Z"/></svg>