<svg xmlns="http://www.w3.org/2000/svg" height="40" viewBox="0 -960 960 960" width="40"><path d="M412.06-16.68q-27.89-28.32-40.3-64.4-12.41-36.08-12.41-74.4 0-69.39 40.54-122.68 40.54-53.29 105.94-72.65 25.25-33.69 59.4-56 34.15-22.32 77.38-29.93 24.53-4.14 52.69-2.84 28.15 1.3 52.98 6.2v-166.5q-.29-18.31-7.93-36.64-7.64-18.33-21.42-31.32L506.74-878.51q-14.74-13.17-32.12-20.45-17.39-7.27-35.17-7.27-19.87 0-37.33 6.99-17.45 6.99-32.42 20.73L160.3-668.07q-13.65 14.22-20.52 31.91-6.87 17.7-6.87 36.61v486.19q0 39.14 28.58 67.91 28.58 28.77 68.1 28.77h182.47Zm28.72-584.49q-24.97 0-42-16.3t-16.39-41.43q-.65-23.74 16.31-40.26 16.95-16.52 42.08-16.52 24.31 0 41.78 16.52 17.47 16.52 15 40.26 2.47 24.97-15 41.35-17.47 16.38-41.78 16.38ZM565-16.12q-59.04 0-99.01-40.64-39.98-40.65-39.98-98.72 0-52.13 34.14-90.79 34.14-38.66 87.49-46.11 19.46-38.08 56.58-59.75 37.13-21.67 81.47-21.67 53.88 0 99.18 25.46 45.3 25.45 55.42 74.86h1.33q45.7 6.44 73.7 44.04 28 37.61 28 84.54 0 52.99-34.27 90.88-34.26 37.9-84.05 37.9H565Z"/></svg>