<svg xmlns="http://www.w3.org/2000/svg" height="20" viewBox="0 -960 960 960" width="20"><path d="M460.31-456.38ZM271.69-36h127.85Q386-52.77 376.61-72.54q-9.4-19.77-12.23-41.46h-93.69q-5.38 0-9.04-3.85-3.65-3.84-4.03-9.23L259-593.85q0-2.3.96-4.61.96-2.31 1.5-4.23l186.23-191.85q3.46-3.46 8.46-3.27 5 .19 9.24 3.66l193.15 191.84q1.92 1.92 2.69 4.04t.77 4.81v145.54q19-4.23 38.81-3.5 19.8.73 39.57 3.42v-146.68q-1.38-18.63-8.28-35.4-6.9-16.78-19.79-28.77L519.54-850.69q-13.85-12.85-30.18-19.08-16.32-6.23-32.82-6.23-17.13 0-34.64 6.92-17.51 6.93-30.36 18.39L205.69-657.85q-14.23 14.24-19.96 31.48-5.73 17.25-5.73 33.91v464.77q0 36.53 27.58 64.11T271.69-36Zm186.62-525.08q-25.77 0-45.96-18.81-20.2-18.8-17.43-44.57-2.77-24.77 17.43-43.58 20.19-18.81 45.96-18.81t46.65 18.81q20.89 18.81 16.73 43.58 4.16 25.77-16.73 44.57-20.88 18.81-46.65 18.81ZM561-36q-51.39 0-87.19-35.81Q438-107.62 438-159q0-44.12 28.38-77.83 28.39-33.72 73.31-42.55 15.23-47 54.96-72.81Q634.37-378 685.67-378q57.87 0 100.29 34.38 42.42 34.39 49.73 85.62h5q38 8 60.65 39.24Q924-187.52 924-146.81q0 45.9-33.65 78.35Q856.7-36 813-36H561Zm0-78h252q13.43 0 23.22-9.58 9.78-9.57 9.78-23.06 0-13.13-8.48-21.74Q829.03-177 816-179l-58.62-5 11.54-22.92q-.07-35.93-24.96-64.5Q719.08-300 682.38-300q-39.26 0-63.74 29.81-24.49 29.8-30.26 68.19l13.39-6-47.77 5q-16.73 3-27.36 15.84Q516-174.32 516-158.81q0 18.92 12.94 31.86Q541.87-114 561-114Zm120 0Z"/></svg>