<svg xmlns="http://www.w3.org/2000/svg" height="40" viewBox="0 -960 960 960" width="40"><path d="M442.64-480.77ZM259.08-120h81.1q-5.92-7.41-10.51-15.86-4.58-8.44-7.8-17.99h-62.79q-10.77 0-18.34-7.69-7.56-7.69-7.82-18.46l-.07-416.95q0-4.61 1.92-9.49 1.92-4.87 5.85-8.2l184.82-184.59q6.92-6.92 17.18-6.54 10.25.39 18.2 7.31l185.46 184.9q3.85 3.84 5.39 8.07 1.54 4.23 1.54 9.62v109.18q9.05 1.69 17.4 3.68 8.35 1.98 17.21 4.19v-116.49q.08-11.97-4.39-23.13-4.46-11.15-12.79-20L485.1-823.33q-8.64-8.72-19.39-12.7-10.75-3.97-22.54-3.97-11.66 0-22.96 4.36-11.31 4.36-19.18 12.31L216.28-638.59q-8.64 8.64-12.54 19.61-3.89 10.96-3.89 23.11v416.64q0 25 17.11 42.11Q234.08-120 259.08-120Zm184.15-511.46q-15.82 0-26.96-11.22t-11.3-27.29q.16-15.41 11.16-26.63 11-11.22 27.1-11.22 15.82 0 27.18 11.22t11.08 26.63q.28 16.07-11.08 27.29-11.36 11.22-27.18 11.22ZM500-120q-41.77 0-70.88-29.12Q400-178.23 400-220q0-40.76 28.77-69.42 28.77-28.67 70.61-30.5 14.62-36.67 47.35-58.37Q579.46-400 620.25-400q47.92 0 86.1 27.27 38.19 27.27 43.83 72.73h10.31q34.18 0 56.84 27.12Q840-245.77 840-209.62q0 36.16-22.8 62.89Q794.4-120 760-120H500Zm0-33.85h250q22.92 0 39.54-16.34 16.61-16.35 16.61-40.12 0-22.8-16.61-39.32-16.62-16.52-39.54-16.52h-31.05l1.26-6.44q.64-39.54-29.54-66.55-30.18-27.01-70.75-27.01-30.75 0-56.4 16.48-25.65 16.49-35.16 45.49l-5.85 18.03H500q-27.58 0-46.87 19.24-19.28 19.25-19.28 47.53 0 27.25 19.28 46.39 19.29 19.14 46.87 19.14Zm120 0Z"/></svg>