<svg xmlns="http://www.w3.org/2000/svg" height="24" viewBox="0 -960 960 960" width="24"><path d="M345.54-100q-17.31-24.92-25.27-52.58-7.96-27.65-7.96-57.42 0-65.08 38.27-116.42 38.27-51.35 99.73-70.73 30.38-41.77 77.77-65.85 47.38-24.08 101.3-24.08 19.47 0 38.12 3.12 18.65 3.11 36.88 9.96v-120.85q.62-14.46-4.8-27.8-5.43-13.35-15.27-24.2L495.54-838.69q-10.85-10.85-24.19-16.08Q458-860 443.54-860q-13.46 0-27.31 5.42-13.84 5.43-23.69 15.89L200.69-646.85q-10.23 10.24-15.46 23.08-5.23 12.85-5.23 28.31v422.77q0 31.53 20.58 52.11T252.69-100h92.85Zm96.77-512.08q-20.77 0-34.96-14.81-14.2-14.8-15.43-35.57 1.23-20.77 15.43-35.58 14.19-14.81 34.96-14.81 20.77 0 34.65 14.81 13.89 14.81 15.73 35.58-1.84 20.77-15.73 35.57-13.88 14.81-34.65 14.81ZM510-100q-46.39 0-78.19-31.81Q400-163.62 400-210q0-44.15 30.88-75.77 30.89-31.61 75.81-33.61 15.23-36 48.35-58.31Q588.15-400 628.15-400q47.39 0 85.31 26.88 37.92 26.89 47.23 73.12h5q40 0 67.15 29.81Q860-240.39 860-200q0 40.77-25.62 70.38Q808.77-100 770-100H510Z"/></svg>