<svg xmlns="http://www.w3.org/2000/svg" height="24" viewBox="0 -960 960 960" width="24"><path d="M367.13-70.87q-21.67-27.22-32.25-58.49-10.58-31.27-10.58-66.18 0-67.16 40.09-119.46t103.76-71.26q31.78-44.07 75.64-64.58 43.86-20.51 96.71-22.66 22.39-.43 44.13 2.84 21.74 3.27 42.61 10.77v-133.89q.26-17.15-6.33-32.69-6.58-15.53-18.52-27.73L505.37-852.52q-13.17-12.94-28.59-19.27-15.41-6.34-31.82-6.34-16.66 0-32.32 6.47-15.66 6.46-28.57 19.14L186.24-655.2q-12.44 11.94-18.52 27.59-6.09 15.65-6.09 32.57v438.65q0 35.83 24.97 60.67 24.97 24.85 60.79 24.85h119.74Zm77.3-526.22q-24 0-40.25-16.26t-16.77-40.26q.52-23.76 16.77-40.02t40.25-16.26q23.27 0 39.39 16.26 16.11 16.26 16.9 40.02-.79 24-16.9 40.26-16.12 16.26-39.39 16.26Zm79.79 526.46q-52.37 0-88.64-36.27-36.28-36.27-36.28-88.64 0-48.92 33.1-84.34t82.77-39.36q18.18-36.72 52.37-58.97 34.2-22.25 75.9-22.25 49.89 0 91.03 26.39 41.14 26.4 50.42 74.33h3q43.72 2.39 72.48 36.07 28.76 33.67 28.76 78.37 0 46.87-30.02 80.77t-74.89 33.9h-260Z"/></svg>