<svg xmlns="http://www.w3.org/2000/svg" height="40" viewBox="0 -960 960 960" width="40"><path d="M445.33-481Zm-175.5 347.33h59.5q-3.97-5.1-7.19-10.8-3.22-5.69-5.76-12.36h-46.55q-14 0-23.83-10-9.83-10-10.17-24l.5-404.58q0-6 2.34-12.34 2.33-6.33 7.16-10.66L422-794.17q9-9 22.33-8.5 13.34.5 23.67 9.5l178.33 176.06q4.5 5 6.75 10.5t2.25 12.5V-493q5.67 1.67 11.68 3.38 6.01 1.72 12.16 3.12v-107.57q.33-11.6-3.81-21.88-4.14-10.29-12.03-19.22L485.05-811.19q-7.77-7.98-18.04-11.56t-21.63-3.58q-11.38 0-22.13 4.08-10.75 4.08-18.13 10.99L229.5-635.33q-8.33 8.66-12.08 19.14-3.75 10.47-3.75 22.02v404.34q0 23.5 16.33 39.83t39.83 16.33ZM445.47-637Q432-637 422-646.52q-10-9.52-9-23.5-1-13.31 8.93-22.98t23.35-9.67q13.72 0 24.05 9.67 10.34 9.67 9 22.83 1.34 13.84-9.03 23.5-10.36 9.67-23.83 9.67Zm47.7 503.33q-39.67 0-66.84-27.16-27.16-27.17-27.16-66.9 0-38.26 27.24-64.88 27.24-26.62 67.59-28.72 13.67-36.34 46.5-57.92t73.08-21.58q47.57 0 85.58 27.5t42.01 72.5h13.5q31 0 51.33 25.51t20.33 58.47q0 33.35-21.21 58.27-21.21 24.91-51.95 24.91h-260Zm0-23.16h250q24.2 0 42.1-17.38 17.9-17.37 17.9-43.77 0-24.07-17.9-41.88-17.9-17.81-42.1-17.81H716.5l4.5 2q1.83-43.33-30.92-72.66-32.75-29.34-77.07-29.34-33.52 0-61.01 18-27.5 18-37.67 49.67l-3 12.33h-18.16q-29.41 0-50.12 20.73-20.72 20.73-20.72 50.42 0 28.35 20.72 49.02 20.71 20.67 50.12 20.67Zm120 0Z"/></svg>