<svg xmlns="http://www.w3.org/2000/svg" height="20" viewBox="0 -960 960 960" width="20"><path d="M371.22-60.78q-24.96-27.2-37-62.07-12.05-34.87-12.05-72.39 0-63.08 35.23-113.51 35.23-50.42 93.19-72.68 27.8-52.11 71.9-78.3 44.1-26.18 103.01-31.27 28.65-2.39 59.47 2.73 30.81 5.12 58.6 15.62V-589.8q-1.07-19.09-7.8-35.9-6.73-16.8-20.62-28.63L523.78-846.37q-14.45-13.89-30.48-20.37-16.02-6.48-33.04-6.48-18.59 0-35.36 6.95-16.77 6.94-31.29 19.9L209.06-655.33q-14.39 13.89-20.62 30.98-6.22 17.09-6.22 34.61v437.09q0 36.04 28.19 63.96 28.2 27.91 64.24 27.91h96.57Zm90.17-509.7q-24 0-41.25-15.93-17.25-15.94-15.12-39.94-2.13-22.43 15.12-38.37 17.25-15.93 41.25-15.93 22.94 0 40.72 15.93 17.78 15.94 14.59 38.37 3.19 24-14.59 39.94-17.78 15.93-40.72 15.93ZM524.2-60.22q-56.29 0-95.66-39.36-39.37-39.37-39.37-95.66 0-48.52 30.42-85.23 30.41-36.7 79.37-46.59 17.45-46.7 57.28-72.95t91.15-26.25q60.16 0 105.56 34.4 45.4 34.4 49.7 88.3h3q41.7 9.65 67.63 43.6 25.94 33.96 25.94 77.29 0 50.78-37.12 86.62-37.12 35.83-85.9 35.83h-252Z"/></svg>