<svg xmlns="http://www.w3.org/2000/svg" height="20" viewBox="0 -960 960 960" width="20"><path d="M462.62-456.77ZM284.38-56h101.7Q376-68.54 368.71-83.3q-7.28-14.77-8.94-30.7h-76.39q-10.76 0-18.07-7.69-7.31-7.69-8.08-18.46L259-592.69q0-4.62 1.92-9.23 1.93-4.62 4-8.46l175.46-180.7q6.93-6.92 16.93-6.54 10 .39 18.46 7.31l184.31 180.69q3.84 3.85 5.38 8.08t1.54 9.62v137.07q14-3.46 28.62-3.5 14.61-.03 30.15.35v-135.36q-1.77-17.26-8.07-32.81-6.29-15.55-18.08-26.52L516.08-833.38q-12.7-11.7-27.78-17.16-15.09-5.46-30.22-5.46-15.59 0-31.95 6.35-16.36 6.34-28.05 16.27l-174.7 181.69q-13.46 13.46-18.42 29.51-4.96 16.05-4.96 31.26v450.54q0 33.07 25.65 58.73Q251.31-56 284.38-56Zm176.24-518.15q-21.54 0-39.43-16.12-17.88-16.11-14.34-37.65-3.54-20.54 14.34-36.66 17.89-16.11 39.43-16.11 21.53 0 40.3 16.11 18.77 16.12 13.46 36.66 5.31 21.54-13.46 37.65-18.77 16.12-40.3 16.12ZM551-56q-46.77 0-79.88-33.12Q438-122.23 438-169q0-40.24 26.27-71.17 26.27-30.92 68.11-39.6 14.47-47 53.81-72.61Q625.53-378 677-378q58.08 0 99.92 34.77 41.85 34.77 46.46 85.23h10q33 8 51.81 36.55Q904-192.91 904-156.62q0 41.48-30.8 71.05T803-56H551Zm0-58h252q17.66 0 30.33-12.65Q846-139.31 846-156.64q0-17.36-11.37-28.86T806-199l-48.23-5 18.08-4.85q1.84-42.84-28.43-77Q717.15-320 672.77-320q-44.52 0-73.49 32.12-28.97 32.11-35.51 75.88l18.77-16-38.54 5q-20.97 3-34.49 18.92Q496-188.17 496-168.62q0 22.96 15.81 38.79Q527.63-114 551-114Zm120 0Z"/></svg>