<svg xmlns="http://www.w3.org/2000/svg" height="20" viewBox="0 -960 960 960" width="20"><path d="M459.39-466.43ZM269.65-50.78h101.57q-17.65-21.09-29.2-45.65-11.54-24.56-15.98-52.35h-55.82l.56-441.96h-.56l188.04-193.91L648-591.3V-489q24.65-1.39 49.72 2.98 25.06 4.37 48.85 12.37V-591.3q-.57-20.09-7.55-37.9-6.98-17.8-21.37-30.63L525.78-854.87q-14.95-14.39-32.04-21.37t-35.48-6.98q-18.75 0-36.94 7.2-18.19 7.19-32.71 21.15L200.56-659.83q-14.39 14.39-21.37 31.93-6.97 17.53-6.97 37.16v443.09q0 39.04 29.19 67.96 29.2 28.91 68.24 28.91Zm188.46-519.7q-24.72 0-42.22-16.93-17.5-16.94-16.37-41.94-1.13-23.43 16.37-40.37 17.5-16.93 42.5-16.93 24.44 0 42.22 16.93 17.78 16.94 16.09 40.37 1.69 25-16.09 41.94-17.78 16.93-42.5 16.93ZM531.7-50.22q-57.79 0-97.66-39.86-39.87-39.87-39.87-97.66 0-49.52 30.92-86.98 30.91-37.45 79.87-46.84 16.95-46.7 57.28-73.2t91.15-26.5q59.66 0 104.81 34.15 45.15 34.15 51.45 88.55 43.7 9.65 71.63 44.04 27.94 34.38 27.94 79.35 0 51.93-37.87 88.44T783.7-50.22h-252Zm0-89.52h252q14.4 0 25.2-10.78 10.8-10.78 10.8-25.3 0-14.48-9.5-23.7-9.5-9.22-23.5-11.22l-56-5-3.35-49.35q-4.44-27.69-25.67-47.17-21.24-19.48-49.42-19.48-30.26 0-50.32 21.98-20.07 21.98-28.63 50.24l-4.61 19.78-44 5q-18 3-29.5 16.5t-11.5 30.5q0 20.4 13.8 34.2 13.8 13.8 34.2 13.8Zm120 0Z"/></svg>