<svg xmlns="http://www.w3.org/2000/svg" height="20" viewBox="0 -960 960 960" width="20"><path d="M386-26q-28-28.5-42-67.5t-14-80q0-67 36.75-120.25T464.5-371q26.5-49.5 66.25-75.25T625.5-481q33-5 69.25-.75T764-467v-121.5q-1.5-23-9.75-43.5t-24.75-34.5L539-855.5Q521.5-872 502-880t-40-8q-22.5 0-42.75 8.25T381-855.5l-181.5 188q-17 16.5-24.75 37.5T167-588v451q0 43 34.5 77T279-26h107Zm78-541q-24 0-41.25-15.5T408.5-622q-3-22 14.25-37.5T464-675q22.5 0 40.5 15.5T518-622q4.5 24-13.5 39.5T464-567Zm81.5 542q-61.5 0-105-43.5t-43.5-105q0-52 31.5-91.75T512-317.5q20.5-48 62.5-74.25T670-418q64.5 0 114.25 33.75T837-294h3q43 14 68.5 51t25.5 82.5q0 56-41.25 95.75T797.5-25h-252Z"/></svg>