<svg xmlns="http://www.w3.org/2000/svg" height="20" viewBox="0 -960 960 960" width="20"><path d="M371.22-50.78q-24.96-28.7-37-63.57-12.05-34.87-12.05-73.39 0-65.08 35.98-117.26 35.98-52.17 94.94-75.43 25.3-47.61 70.15-76.55Q568.09-485.91 624-491q29.65-3.39 61.72 1.48 32.06 4.87 60.85 15.87V-591.3q-.57-20.09-7.55-37.9-6.98-17.8-21.37-30.63L525.78-854.87q-14.95-14.39-31.98-21.37-17.02-6.98-35.54-6.98-19.09 0-37.11 7.2-18.02 7.19-32.54 21.15L200.56-659.83q-14.39 14.39-21.37 31.98-6.97 17.59-6.97 37.11v443.09q0 39.04 29.19 67.96 29.2 28.91 68.24 28.91h101.57Zm87.17-519.7q-25 0-42.5-16.93-17.5-16.94-16.37-41.94-1.13-23.43 16.37-40.37 17.5-16.93 42.5-16.93 24.44 0 42.22 16.93 17.78 16.94 16.09 40.37 1.69 25-16.09 41.94-17.78 16.93-42.22 16.93ZM531.7-50.22q-57.79 0-97.66-39.86-39.87-39.87-39.87-97.66 0-49.52 30.92-86.98 30.91-37.45 79.87-46.84 16.95-46.7 57.28-73.2t91.15-26.5q59.66 0 104.81 34.15 45.15 34.15 51.45 88.55 43.7 9.65 71.63 44.1 27.94 34.46 27.94 79.29 0 51.78-37.87 88.37-37.87 36.58-87.65 36.58h-252Z"/></svg>