<svg xmlns="http://www.w3.org/2000/svg" height="20" viewBox="0 -960 960 960" width="20"><path d="M462-481ZM297-148h20q-3-5-6.52-9.76-3.52-4.76-5.48-10.24h-8q-14 0-23.5-10T263-202l1-388q0-6 2.5-12t6.5-11l164-170q9-9 22-8.5t24 9.5l169 170q5 5 7 10.5t2 12.5v69q6 4 10.5 7.5T682-507v-82.57q-1-11.43-4.43-21.25-3.44-9.81-11.57-17.18L497-798q-8-8-17.34-11-9.35-3-19.66-3-9.67 0-20.33 4Q429-804 422-798L259-628q-9 9-12 18.33-3 9.34-3 20.67v388q0 21 16 37t37 16Zm164-461q-14 0-25.5-10.5T426-644q-2-13 9.5-23.5T461-678q14 0 26 10.5t9 23.5q3 14-9 24.5T461-609Zm17 461q-39 0-66.5-27.5T384-242q0-34.92 24-61.17T469-335q11-45 47.5-71t84.96-26Q656-432 694-396q38 36 39 85h13q29 4 47.5 27.43T812-229.5q0 33.5-25.09 57.5T730-148H478Zm0-20h252q25.4 0 43.7-18.5Q792-205 792-230.08 792-255 775-272t-42-19l-29-5 8-8q0-44-33.5-76T599-412q-41.67 0-72.84 26Q495-360 485-320h6l-20 5q-29.05 3-48.02 24.5Q404-269 404-241.5q0 30.9 21.28 52.2Q446.55-168 478-168Zm120 0Z"/></svg>