<svg xmlns="http://www.w3.org/2000/svg" height="40" viewBox="0 -960 960 960" width="40"><path d="M340.18-122.82q-15.74-21.14-22.58-47.58-6.83-26.43-6.83-52.07 0-60.75 35.75-109.16 35.75-48.42 94.8-66.78 30.14-44.01 76.58-67.38 46.45-23.36 102.81-23.36 17.02.28 33.99 3.09 16.97 2.82 32.27 7.52v-117.04q.3-11.36-4.32-22.2-4.62-10.85-12.35-19.46L484.54-821.3q-8.22-8.21-18.82-12.05-10.6-3.83-22.18-3.83-11.35 0-22.29 4.28-10.94 4.27-18.81 11.6l-183.4 183.62q-8.64 8.86-12.51 19.77-3.86 10.91-3.86 22.32v414.95q0 24.15 16.83 40.99 16.83 16.83 40.99 16.83h79.69Zm104.15-508.64q-15.79 0-27.04-10.94-11.25-10.93-10.41-26.73-.84-15.13 10.41-26.06 11.25-10.94 27.04-10.94 15.17 0 26.7 10.94 11.52 10.93 10.46 26.06 1.06 15.8-10.46 26.73-11.53 10.94-26.7 10.94Zm53.91 508.64q-42.09 0-70.87-28.78t-28.78-70.87q0-40.54 28.63-68.63 28.63-28.08 70.47-30.73 14.4-36.34 47.35-57.96 32.95-21.62 73.55-21.62 48.19 0 86.37 27.33 38.17 27.32 43.25 72.67h11.15q33.61 0 55.72 26.97 22.1 26.98 22.1 61.97 0 36.59-22.7 63.12-22.7 26.53-56.24 26.53h-260Z"/></svg>