<svg xmlns="http://www.w3.org/2000/svg" version="1.1" width="3300" height="2000"><g id="Notes"><style>
    text {
      font-family: monospace;
      text-anchor: middle;
    }
    text.emphasis {
      font-weight:bold;
    }
    text.lanchor {
      text-anchor: start;
    }
  </style><rect height="2200" id="artboard" fill="white" width="3300" x="0" y="0"/><line id="" style="fill:none;stroke:black;stroke-width:0.5;" x1="263" x2="3036" y1="292" y2="292"/><text class="lanchor emphasis" transform="matrix(1 0 0 1 263 322)">Weight/Scale Variations</text><text transform="matrix(1 0 0 1 559.711 322)">Ultralight</text><text transform="matrix(1 0 0 1 856.422 322)">Thin</text><text transform="matrix(1 0 0 1 1153.13 322)">Light</text><text transform="matrix(1 0 0 1 1449.84 322)">Regular</text><text transform="matrix(1 0 0 1 1746.56 322)">Medium</text><text transform="matrix(1 0 0 1 2043.27 322)">Semibold</text><text transform="matrix(1 0 0 1 2339.98 322)">Bold</text><text transform="matrix(1 0 0 1 2636.69 322)">Heavy</text><text transform="matrix(1 0 0 1 2933.4 322)">Black</text><text id="template-version" style="text-anchor: end;" transform="matrix(1 0 0 1 3036 1933)">Template v.1.0</text><text class="lanchor" transform="matrix(1 0 0 1 263 726)">Small</text><text class="lanchor" transform="matrix(1 0 0 1 263 1156)">Medium</text><text class="lanchor" transform="matrix(1 0 0 1 263 1586)">Large</text></g><g id="Guides"><g id="H-reference" style="fill:#27AAE1;stroke:none;" transform="matrix(1 0 0 1 339 696)"><path d="M 54.9316 0 L 57.666 0 L 30.5664 -70.459 L 28.0762 -70.459 L 0.976562 0 L 3.66211 0 L 12.9395 -24.4629 L 45.7031 -24.4629 Z M 29.1992 -67.0898 L 29.4434 -67.0898 L 44.8242 -26.709 L 13.8184 -26.709 Z"/></g><line id="Baseline-S" style="fill:none;stroke:#27AAE1;opacity:1;stroke-width:0.577;" x1="263" x2="3036" y1="696" y2="696"/><line id="Capline-S" style="fill:none;stroke:#27AAE1;opacity:1;stroke-width:0.577;" x1="263" x2="3036" y1="625.541" y2="625.541"/><g id="H-reference" style="fill:#27AAE1;stroke:none;" transform="matrix(1 0 0 1 339 1126)"><path d="M 54.9316 0 L 57.666 0 L 30.5664 -70.459 L 28.0762 -70.459 L 0.976562 0 L 3.66211 0 L 12.9395 -24.4629 L 45.7031 -24.4629 Z M 29.1992 -67.0898 L 29.4434 -67.0898 L 44.8242 -26.709 L 13.8184 -26.709 Z"/></g><line id="Baseline-M" style="fill:none;stroke:#27AAE1;opacity:1;stroke-width:0.577;" x1="263" x2="3036" y1="1126" y2="1126"/><line id="Capline-M" style="fill:none;stroke:#27AAE1;opacity:1;stroke-width:0.577;" x1="263" x2="3036" y1="1055.54" y2="1055.54"/><g id="H-reference" style="fill:#27AAE1;stroke:none;" transform="matrix(1 0 0 1 339 1556)"><path d="M 54.9316 0 L 57.666 0 L 30.5664 -70.459 L 28.0762 -70.459 L 0.976562 0 L 3.66211 0 L 12.9395 -24.4629 L 45.7031 -24.4629 Z M 29.1992 -67.0898 L 29.4434 -67.0898 L 44.8242 -26.709 L 13.8184 -26.709 Z"/></g><line id="Baseline-L" style="fill:none;stroke:#27AAE1;opacity:1;stroke-width:0.577;" x1="263" x2="3036" y1="1556" y2="1556"/><line id="Capline-L" style="fill:none;stroke:#27AAE1;opacity:1;stroke-width:0.577;" x1="263" x2="3036" y1="1485.54" y2="1485.54"/><rect height="119.336" id="left-margin" style="fill:darkred;stroke:none;opacity:0.4;" width="12.4512" x="1394.06" y="1030.79"/><rect height="119.336" id="right-margin" style="fill:darkgreen;stroke:none;opacity:0.4;" width="12.4512" x="1502.5112" y="1030.79"/><rect x="1406.5112" y="1045" width="96" height="96" fill="none" stroke="blue" stroke-dasharray="5"/><rect x="1394.06" y="1030.79" width="120.9024" height="119.336" fill="none" stroke="blue"/></g><g id="Symbols"><g id="Bold-L" transform="matrix(1 0 0 1 2266 1556)"><path d="M8.869 26.851  36.12 -97.472 H118.68 L146.093 26.851 H8.869 Z M70.95 -36.681 V-5.076 H83.85 V-36.681 L92.074 -28.296 L101.104 -37.165 L77.4 -60.869 L53.696 -37.165 L62.726 -28.296 L70.95 -36.681 Z"/></g><g id="Semibold-L" transform="matrix(1 0 0 1 1970.27 1556)"><path d="M10.622 25.098  37.242 -95.65 H117.558 L144.27 25.098 H10.622 Z M71.651 -39.345 V-5.566 H83.149 V-39.345 L92.985 -29.419 L101.034 -37.375 L77.4 -61.009 L53.766 -37.375 L61.815 -29.419 L71.651 -39.345 Z"/></g><g id="Medium-L" transform="matrix(1 0 0 1 1674.31 1556)"><path d="M11.936 23.784  38.082 -94.283 H116.718 L142.903 23.784 H11.936 Z M72.177 -41.343 V-5.936 H82.623 V-41.343 L93.669 -30.259 L100.981 -37.533 L77.4 -61.114 L53.819 -37.533 L61.131 -30.259 L72.177 -41.343 Z"/></g><g id="Regular-L" transform="matrix(1 0 0 1 1378.56 1556)"><path d="M12.9 22.82  38.7 -93.28 H116.1 L141.9 22.82 H12.9 Z M72.562 -42.809 V-6.205 H82.237 V-42.809 L94.17 -30.876 L100.943 -37.649 L77.4 -61.191 L53.858 -37.649 L60.63 -30.876 L72.562 -42.809 Z"/></g><g id="Light-L" transform="matrix(1 0 0 1 1082.77 1556)"><path d="M16.125 19.595  40.685 -90.055 H114.054 L138.675 19.595 H16.125 Z M73.678 -43.987 V-8.314 H80.997 V-43.987 L94.17 -30.815 L99.33 -35.973 L77.339 -57.903 L55.47 -36.098 L60.63 -30.938 L73.678 -43.987 Z"/></g><g id="Thin-L" transform="matrix(1 0 0 1 787.282 1556)"><path d="M19.35 16.37  42.67 -86.83 H112.007 L135.45 16.37 H19.35 Z M74.796 -45.166 V-10.422 H79.757 V-45.166 L94.17 -30.752 L97.718 -34.3 L77.276 -54.617 L57.083 -34.548 L60.63 -31 L74.796 -45.166 Z"/></g><g id="Ultralight-L" transform="matrix(1 0 0 1 491.205 1556)"><path d="M21.285 14.435  43.86 -84.895 H110.779 L133.515 14.435 H21.285 Z M75.465 -45.872 V-11.687 H79.013 V-45.872 L94.17 -30.715 L96.75 -33.295 L77.239 -52.645 L58.05 -33.617 L60.63 -31.037 L75.465 -45.872 Z"/></g><g id="Bold-M" transform="matrix(1 0 0 1 2281.8 1126)"><path d="M5.75 14.02  27.25 -84.48 H92.625 L114.25 14.02 H5.75 Z M53.375 -29.73 V-14.105 H66.625 V-29.73 L70.875 -25.48 L80.125 -34.73 L60 -54.855 L39.875 -34.73 L49.125 -25.48 L53.375 -29.73 Z"/></g><g id="Semibold-M" transform="matrix(1 0 0 1 1985.97 1126)"><path d="M7.598 12.173  28.445 -82.632 H91.484 L112.403 12.173 H7.598 Z M54.081 -32.501 V-14.594 H65.919 V-32.501 L71.799 -26.675 L80.071 -34.947 L60 -55.017 L39.929 -34.947 L48.201 -26.621 L54.081 -32.501 Z"/></g><g id="Medium-M" transform="matrix(1 0 0 1 1689.91 1126)"><path d="M8.984 10.786  29.343 -81.246 H90.627 L111.016 10.786 H8.984 Z M54.611 -34.58 V-14.961 H65.389 V-34.58 L72.491 -27.572 L80.03 -35.11 L60 -55.14 L39.97 -35.11 L47.509 -27.477 L54.611 -34.58 Z"/></g><g id="Regular-M" transform="matrix(1 0 0 1 1394.06 1126)"><path d="M10 9.77  30 -80.23 H90 L110 9.77 H10 Z M55 -36.105 V-15.23 H65 V-36.105 L73 -28.23 L80 -35.23 L60 -55.23 L40 -35.23 L47 -28.105 L55 -36.105 Z"/></g><g id="Light-M" transform="matrix(1 0 0 1 1098.18 1126)"><path d="M12.5 7.27  31.539 -77.73 H88.414 L107.5 7.27 H12.5 Z M56.203 -38.365 V-16.191 H63.701 V-38.365 L73 -29.144 L78.269 -34.412 L59.953 -52.73 L41.731 -34.509 L47 -29.162 L56.203 -38.365 Z"/></g><g id="Thin-M" transform="matrix(1 0 0 1 802.565 1126)"><path d="M15 4.77  33.078 -75.23 H86.828 L105 4.77 H15 Z M57.404 -40.624 V-17.152 H62.404 V-40.624 L73 -30.057 L76.539 -33.595 L59.904 -50.23 L43.461 -33.787 L47 -30.22 L57.404 -40.624 Z"/></g><g id="Ultralight-M" transform="matrix(1 0 0 1 506.415 1126)"><path d="M16.5 3.27  34 -73.73 H85.875 L103.5 3.27 H16.5 Z M58.125 -41.98 V-17.73 H61.625 V-41.98 L73 -30.605 L75.5 -33.105 L59.875 -48.73 L44.5 -33.355 L47 -30.855 L58.125 -41.98 Z"/></g><g id="Bold-S" transform="matrix(1 0 0 1 2294.23 696)"><path d="M6.016 1.261  23.769 -71.721 H70.714 L88.565 1.261 H6.016 Z M42.507 -30.792 V-20.14 H52.173 V-30.792 L54.836 -28.03 L61.641 -34.835 L47.34 -49.136 L33.039 -34.835 L39.845 -28.129 L42.507 -30.792 Z"/></g><g id="Semibold-S" transform="matrix(1 0 0 1 1998.1 696)"><path d="M7.474 -0.196  24.711 -70.264 H69.814 L87.108 -0.196 H7.474 Z M43.065 -32.978 V-20.526 H51.615 V-32.978 L55.564 -28.973 L61.598 -35.007 L47.34 -49.264 L33.082 -35.007 L39.116 -29.029 L43.065 -32.978 Z"/></g><g id="Medium-S" transform="matrix(1 0 0 1 1701.85 696)"><path d="M8.568 -1.29  25.42 -69.17 H69.138 L86.014 -1.29 H8.568 Z M43.483 -34.619 V-20.816 H51.197 V-34.619 L56.111 -29.681 L61.566 -35.135 L47.34 -49.361 L33.114 -35.135 L38.569 -29.705 L43.483 -34.619 Z"/></g><g id="Regular-S" transform="matrix(1 0 0 1 1405.73 696)"><path d="M9.369 -2.092  25.938 -68.368 H68.643 L85.212 -2.092 H9.369 Z M43.79 -35.822 V-21.028 H50.891 V-35.822 L56.512 -30.2 L61.542 -35.23 L47.34 -49.432 L33.138 -35.23 L38.168 -30.2 L43.79 -35.822 Z"/></g><g id="Light-S" transform="matrix(1 0 0 1 1109.75 696)"><path d="M11.342 -4.064  27.152 -66.395 H67.391 L83.24 -4.064 H11.342 Z M44.738 -37.605 V-21.786 H49.866 V-37.605 L56.512 -30.921 L60.176 -34.585 L47.303 -47.459 L34.504 -34.661 L38.168 -31.034 L44.738 -37.605 Z"/></g><g id="Thin-S" transform="matrix(1 0 0 1 814.015 696)"><path d="M13.314 -6.037  28.367 -64.423 H66.14 L81.267 -6.037 H13.314 Z M45.686 -39.387 V-22.545 H48.842 V-39.387 L56.512 -31.642 L58.811 -33.94 L47.264 -45.487 L35.869 -34.092 L38.168 -31.869 L45.686 -39.387 Z"/></g><g id="Ultralight-S" transform="matrix(1 0 0 1 517.792 696)"><path d="M14.498 -7.22  29.094 -63.239 H65.388 L80.084 -7.22 H14.498 Z M46.255 -40.457 V-23 H48.228 V-40.457 L56.512 -32.074 L57.992 -33.553 L47.241 -44.303 L36.689 -33.751 L38.168 -32.37 L46.255 -40.457 Z"/></g></g></svg>