<svg xmlns="http://www.w3.org/2000/svg" version="1.1" width="3300" height="2000"><g id="Notes"><style>
    text {
      font-family: monospace;
      text-anchor: middle;
    }
    text.emphasis {
      font-weight:bold;
    }
    text.lanchor {
      text-anchor: start;
    }
  </style><rect height="2200" id="artboard" fill="white" width="3300" x="0" y="0"/><line id="" style="fill:none;stroke:black;stroke-width:0.5;" x1="263" x2="3036" y1="292" y2="292"/><text class="lanchor emphasis" transform="matrix(1 0 0 1 263 322)">Weight/Scale Variations</text><text transform="matrix(1 0 0 1 559.711 322)">Ultralight</text><text transform="matrix(1 0 0 1 856.422 322)">Thin</text><text transform="matrix(1 0 0 1 1153.13 322)">Light</text><text transform="matrix(1 0 0 1 1449.84 322)">Regular</text><text transform="matrix(1 0 0 1 1746.56 322)">Medium</text><text transform="matrix(1 0 0 1 2043.27 322)">Semibold</text><text transform="matrix(1 0 0 1 2339.98 322)">Bold</text><text transform="matrix(1 0 0 1 2636.69 322)">Heavy</text><text transform="matrix(1 0 0 1 2933.4 322)">Black</text><text id="template-version" style="text-anchor: end;" transform="matrix(1 0 0 1 3036 1933)">Template v.1.0</text><text class="lanchor" transform="matrix(1 0 0 1 263 726)">Small</text><text class="lanchor" transform="matrix(1 0 0 1 263 1156)">Medium</text><text class="lanchor" transform="matrix(1 0 0 1 263 1586)">Large</text></g><g id="Guides"><g id="H-reference" style="fill:#27AAE1;stroke:none;" transform="matrix(1 0 0 1 339 696)"><path d="M 54.9316 0 L 57.666 0 L 30.5664 -70.459 L 28.0762 -70.459 L 0.976562 0 L 3.66211 0 L 12.9395 -24.4629 L 45.7031 -24.4629 Z M 29.1992 -67.0898 L 29.4434 -67.0898 L 44.8242 -26.709 L 13.8184 -26.709 Z"/></g><line id="Baseline-S" style="fill:none;stroke:#27AAE1;opacity:1;stroke-width:0.577;" x1="263" x2="3036" y1="696" y2="696"/><line id="Capline-S" style="fill:none;stroke:#27AAE1;opacity:1;stroke-width:0.577;" x1="263" x2="3036" y1="625.541" y2="625.541"/><g id="H-reference" style="fill:#27AAE1;stroke:none;" transform="matrix(1 0 0 1 339 1126)"><path d="M 54.9316 0 L 57.666 0 L 30.5664 -70.459 L 28.0762 -70.459 L 0.976562 0 L 3.66211 0 L 12.9395 -24.4629 L 45.7031 -24.4629 Z M 29.1992 -67.0898 L 29.4434 -67.0898 L 44.8242 -26.709 L 13.8184 -26.709 Z"/></g><line id="Baseline-M" style="fill:none;stroke:#27AAE1;opacity:1;stroke-width:0.577;" x1="263" x2="3036" y1="1126" y2="1126"/><line id="Capline-M" style="fill:none;stroke:#27AAE1;opacity:1;stroke-width:0.577;" x1="263" x2="3036" y1="1055.54" y2="1055.54"/><g id="H-reference" style="fill:#27AAE1;stroke:none;" transform="matrix(1 0 0 1 339 1556)"><path d="M 54.9316 0 L 57.666 0 L 30.5664 -70.459 L 28.0762 -70.459 L 0.976562 0 L 3.66211 0 L 12.9395 -24.4629 L 45.7031 -24.4629 Z M 29.1992 -67.0898 L 29.4434 -67.0898 L 44.8242 -26.709 L 13.8184 -26.709 Z"/></g><line id="Baseline-L" style="fill:none;stroke:#27AAE1;opacity:1;stroke-width:0.577;" x1="263" x2="3036" y1="1556" y2="1556"/><line id="Capline-L" style="fill:none;stroke:#27AAE1;opacity:1;stroke-width:0.577;" x1="263" x2="3036" y1="1485.54" y2="1485.54"/><rect height="119.336" id="left-margin" style="fill:darkred;stroke:none;opacity:0.4;" width="12.4512" x="1394.06" y="1030.79"/><rect height="119.336" id="right-margin" style="fill:darkgreen;stroke:none;opacity:0.4;" width="12.4512" x="1502.5112" y="1030.79"/><rect x="1406.5112" y="1045" width="96" height="96" fill="none" stroke="blue" stroke-dasharray="5"/><rect x="1394.06" y="1030.79" width="120.9024" height="119.336" fill="none" stroke="blue"/></g><g id="Symbols"><g id="Bold-L" transform="matrix(1 0 0 1 2266 1556)"><path d="M22.575 32.495 V-103.116 H132.386 V32.495 H22.575 Z M49.665 -1.206 H105.135 V-69.657 H49.665 V-1.206 Z M90.542 -54.902 V-29.264 H64.419 V-54.902 H90.542 Z M77.59 19.837 Q79.375 19.837 80.606 18.536 Q81.834 17.234 81.834 15.523 Q81.834 13.705 80.567 12.537 Q79.3 11.371 77.55 11.371 Q75.626 11.371 74.498 12.56 Q73.369 13.746 73.369 15.564 Q73.369 17.257 74.444 18.547 Q75.52 19.837 77.59 19.837 Z M77.51 -82.234 Q79.33 -82.234 80.581 -83.455 Q81.834 -84.676 81.834 -86.387 Q81.834 -88.415 80.567 -89.558 Q79.3 -90.7 77.55 -90.7 Q75.626 -90.7 74.498 -89.536 Q73.369 -88.373 73.369 -86.346 Q73.369 -84.653 74.485 -83.444 Q75.6 -82.234 77.51 -82.234 Z"/></g><g id="Semibold-L" transform="matrix(1 0 0 1 1970.27 1556)"><path d="M24.328 30.742 V-101.294 H130.564 V30.742 H24.328 Z M51.137 -2.609 H103.732 V-68.185 H51.137 V-2.609 Z M91.453 -55.814 V-28.212 H63.508 V-55.814 H91.453 Z M77.555 17.734 Q79.112 17.734 80.193 16.607 Q81.273 15.482 81.273 13.98 Q81.273 12.374 80.165 11.347 Q79.056 10.32 77.55 10.32 Q75.836 10.32 74.847 11.368 Q73.859 12.418 73.859 14.022 Q73.859 15.504 74.812 16.618 Q75.765 17.734 77.555 17.734 Z M77.51 -81.112 Q79.087 -81.112 80.18 -82.192 Q81.273 -83.273 81.273 -84.774 Q81.273 -86.499 80.165 -87.514 Q79.056 -88.526 77.55 -88.526 Q75.836 -88.526 74.847 -87.491 Q73.859 -86.456 73.859 -84.734 Q73.859 -83.25 74.835 -82.181 Q75.81 -81.112 77.51 -81.112 Z"/></g><g id="Medium-L" transform="matrix(1 0 0 1 1674.31 1556)"><path d="M25.642 29.428 V-99.927 H129.197 V29.428 H25.642 Z M52.242 -3.66 H102.681 V-67.08 H52.242 V-3.66 Z M92.137 -56.497 V-27.424 H62.825 V-56.497 H92.137 Z M77.527 16.156 Q78.916 16.156 79.883 15.162 Q80.852 14.167 80.852 12.824 Q80.852 11.378 79.864 10.454 Q78.874 9.531 77.55 9.531 Q75.994 9.531 75.11 10.475 Q74.228 11.42 74.228 12.864 Q74.228 14.19 75.088 15.174 Q75.949 16.156 77.527 16.156 Z M77.51 -80.272 Q78.904 -80.272 79.878 -81.246 Q80.852 -82.221 80.852 -83.565 Q80.852 -85.063 79.864 -85.979 Q78.874 -86.896 77.55 -86.896 Q75.994 -86.896 75.11 -85.958 Q74.228 -85.019 74.228 -83.524 Q74.228 -82.199 75.097 -81.235 Q75.968 -80.272 77.51 -80.272 Z"/></g><g id="Regular-L" transform="matrix(1 0 0 1 1378.56 1556)"><path d="M26.606 28.464 V-98.924 H128.194 V28.464 H26.606 Z M53.051 -4.431 H101.91 V-66.271 H53.051 V-4.431 Z M92.638 -56.999 V-26.845 H62.323 V-56.999 H92.638 Z M77.51 14.999 Q78.771 14.999 79.657 14.101 Q80.544 13.203 80.544 11.976 Q80.544 10.646 79.641 9.799 Q78.74 8.953 77.55 8.953 Q76.11 8.953 75.304 9.82 Q74.498 10.689 74.498 12.016 Q74.498 13.226 75.291 14.113 Q76.084 14.999 77.51 14.999 Z M77.51 -79.654 Q78.771 -79.654 79.657 -80.553 Q80.544 -81.451 80.544 -82.678 Q80.544 -84.008 79.641 -84.855 Q78.74 -85.701 77.55 -85.701 Q76.11 -85.701 75.304 -84.834 Q74.498 -83.965 74.498 -82.637 Q74.498 -81.428 75.291 -80.541 Q76.084 -79.654 77.51 -79.654 Z"/></g><g id="Light-L" transform="matrix(1 0 0 1 1082.77 1556)"><path d="M29.459 25.548 V-96.008 H125.309 V25.548 H29.459 Z M54.943 -6.353 H100.049 V-64.41 H54.943 V-6.353 Z M92.98 -57.341 V-26.132 H62.014 V-57.341 H92.98 Z M77.41 12.829 Q78.85 12.829 79.774 11.858 Q80.699 10.889 80.699 9.567 Q80.699 8.133 79.761 7.163 Q78.822 6.192 77.469 6.192 Q75.986 6.192 75.055 7.18 Q74.125 8.167 74.125 9.614 Q74.125 10.931 75.025 11.881 Q75.925 12.829 77.41 12.829 Z M77.481 -76.987 Q78.895 -76.987 79.828 -77.958 Q80.762 -78.927 80.762 -80.251 Q80.762 -81.744 79.811 -82.684 Q78.861 -83.623 77.492 -83.623 Q76.079 -83.623 75.133 -82.668 Q74.188 -81.714 74.188 -80.233 Q74.188 -78.885 75.134 -77.935 Q76.083 -76.987 77.481 -76.987 Z"/></g><g id="Thin-L" transform="matrix(1 0 0 1 787.282 1556)"><path d="M32.311 22.635 V-93.095 H122.426 V22.635 H32.311 Z M56.834 -8.277 H98.188 V-62.549 H56.834 V-8.277 Z M93.32 -57.681 V-25.418 H61.702 V-57.681 H93.32 Z M77.31 10.659 Q78.927 10.659 79.891 9.617 Q80.854 8.577 80.854 7.158 Q80.854 5.623 79.878 4.528 Q78.904 3.433 77.39 3.433 Q75.862 3.433 74.807 4.541 Q73.753 5.647 73.753 7.211 Q73.753 8.638 74.76 9.647 Q75.767 10.659 77.31 10.659 Z M77.453 -74.32 Q79.019 -74.32 79.999 -75.362 Q80.978 -76.404 80.978 -77.824 Q80.978 -79.48 79.98 -80.514 Q78.983 -81.546 77.434 -81.546 Q76.049 -81.546 74.962 -80.504 Q73.877 -79.461 73.877 -77.831 Q73.877 -76.341 74.98 -75.331 Q76.083 -74.32 77.453 -74.32 Z"/></g><g id="Ultralight-L" transform="matrix(1 0 0 1 491.205 1556)"><path d="M34.024 20.885 V-91.345 H120.696 V20.885 H34.024 Z M57.969 -9.43 H97.073 V-61.433 H57.969 V-9.43 Z M93.525 -57.886 V-24.991 H61.517 V-57.886 H93.525 Z M77.25 9.356 Q78.975 9.356 79.961 8.272 Q80.948 7.188 80.948 5.713 Q80.948 4.115 79.951 2.946 Q78.953 1.777 77.342 1.777 Q75.788 1.777 74.659 2.956 Q73.53 4.134 73.53 5.769 Q73.53 7.261 74.601 8.309 Q75.67 9.356 77.25 9.356 Z M77.437 -72.721 Q79.093 -72.721 80.101 -73.806 Q81.109 -74.891 81.109 -76.366 Q81.109 -78.122 80.082 -79.211 Q79.056 -80.299 77.4 -80.299 Q76.029 -80.299 74.86 -79.204 Q73.691 -78.11 73.691 -76.389 Q73.691 -74.815 74.886 -73.767 Q76.083 -72.721 77.437 -72.721 Z"/></g><g id="Bold-M" transform="matrix(1 0 0 1 2281.8 1126)"><path d="M17 17.77 V-88.23 H102.938 V17.77 H17 Z M37.188 -7.605 H82.625 V-63.042 H37.188 V-7.605 Z M67.625 -48.042 V-32.667 H52.188 V-48.042 H67.625 Z M59.91 9.708 Q61.979 9.708 63.303 8.395 Q64.625 7.083 64.625 5.048 Q64.625 2.979 63.297 1.655 Q61.969 0.333 59.938 0.333 Q57.875 0.333 56.562 1.66 Q55.25 2.989 55.25 5.02 Q55.25 7.083 56.562 8.395 Q57.875 9.708 59.91 9.708 Z M59.91 -70.917 Q61.979 -70.917 63.303 -72.23 Q64.625 -73.542 64.625 -75.577 Q64.625 -77.646 63.297 -78.97 Q61.969 -80.292 59.938 -80.292 Q57.875 -80.292 56.562 -78.965 Q55.25 -77.636 55.25 -75.605 Q55.25 -73.542 56.562 -72.23 Q57.875 -70.917 59.91 -70.917 Z"/></g><g id="Semibold-M" transform="matrix(1 0 0 1 1985.97 1126)"><path d="M18.848 15.923 V-86.382 H101.09 V15.923 H18.848 Z M38.709 -9.072 H81.157 V-61.521 H38.709 V-9.072 Z M68.604 -48.966 V-31.58 H51.264 V-48.966 H68.604 Z M59.91 7.534 Q61.744 7.534 62.913 6.358 Q64.081 5.18 64.081 3.418 Q64.081 1.584 62.907 0.415 Q61.734 -0.755 59.938 -0.755 Q58.146 -0.755 56.97 0.42 Q55.794 1.594 55.794 3.39 Q55.794 5.18 56.97 6.358 Q58.146 7.534 59.91 7.534 Z M59.91 -69.776 Q61.744 -69.776 62.913 -70.952 Q64.081 -72.13 64.081 -73.892 Q64.081 -75.726 62.907 -76.895 Q61.734 -78.065 59.938 -78.065 Q58.146 -78.065 56.97 -76.89 Q55.794 -75.716 55.794 -73.92 Q55.794 -72.13 56.97 -70.952 Q58.146 -69.776 59.91 -69.776 Z"/></g><g id="Medium-M" transform="matrix(1 0 0 1 1689.91 1126)"><path d="M20.234 14.536 V-84.996 H99.704 V14.536 H20.234 Z M39.85 -10.172 H80.058 V-60.38 H39.85 V-10.172 Z M69.338 -49.659 V-30.765 H50.571 V-49.659 H69.338 Z M59.91 5.904 Q61.568 5.904 62.62 4.829 Q63.674 3.754 63.674 2.194 Q63.674 0.538 62.615 -0.516 Q61.556 -1.57 59.938 -1.57 Q58.35 -1.57 57.276 -0.511 Q56.201 0.548 56.201 2.166 Q56.201 3.754 57.276 4.829 Q58.35 5.904 59.91 5.904 Z M59.91 -68.92 Q61.568 -68.92 62.62 -69.995 Q63.674 -71.07 63.674 -72.629 Q63.674 -74.286 62.615 -75.34 Q61.556 -76.392 59.938 -76.392 Q58.35 -76.392 57.276 -75.335 Q56.201 -74.276 56.201 -72.656 Q56.201 -71.07 57.276 -69.995 Q58.35 -68.92 59.91 -68.92 Z"/></g><g id="Regular-M" transform="matrix(1 0 0 1 1394.06 1126)"><path d="M21.25 13.52 V-83.98 H98.688 V13.52 H21.25 Z M40.688 -10.98 H79.25 V-59.542 H40.688 V-10.98 Z M69.875 -50.167 V-30.167 H50.062 V-50.167 H69.875 Z M59.91 4.708 Q61.438 4.708 62.406 3.708 Q63.375 2.708 63.375 1.298 Q63.375 -0.23 62.401 -1.199 Q61.428 -2.167 59.938 -2.167 Q58.5 -2.167 57.5 -1.194 Q56.5 -0.22 56.5 1.27 Q56.5 2.708 57.5 3.708 Q58.5 4.708 59.91 4.708 Z M59.91 -68.292 Q61.438 -68.292 62.406 -69.292 Q63.375 -70.292 63.375 -71.702 Q63.375 -73.23 62.401 -74.199 Q61.428 -75.167 59.938 -75.167 Q58.5 -75.167 57.5 -74.194 Q56.5 -73.22 56.5 -71.73 Q56.5 -70.292 57.5 -69.292 Q58.5 -68.292 59.91 -68.292 Z"/></g><g id="Light-M" transform="matrix(1 0 0 1 1098.18 1126)"><path d="M23.461 11.26 V-81.72 H96.451 V11.26 H23.461 Z M42.346 -12.662 H77.615 V-57.907 H42.346 V-12.662 Z M70.62 -50.912 V-29.23 H49.341 V-50.912 H70.62 Z M59.881 2.593 Q61.354 2.593 62.28 1.638 Q63.206 0.683 63.206 -0.667 Q63.206 -2.129 62.276 -3.097 Q61.346 -4.066 59.924 -4.066 Q58.547 -4.066 57.572 -3.097 Q56.596 -2.127 56.596 -0.696 Q56.596 0.689 57.559 1.64 Q58.521 2.593 59.881 2.593 Z M59.936 -66.514 Q61.39 -66.514 62.322 -67.469 Q63.255 -68.422 63.255 -69.772 Q63.255 -71.235 62.316 -72.204 Q61.377 -73.172 59.941 -73.172 Q58.572 -73.172 57.609 -72.202 Q56.644 -71.234 56.644 -69.801 Q56.644 -68.416 57.62 -67.465 Q58.595 -66.514 59.936 -66.514 Z"/></g><g id="Thin-M" transform="matrix(1 0 0 1 802.565 1126)"><path d="M25.672 9.001 V-79.461 H94.216 V9.001 H25.672 Z M44.005 -14.345 H75.981 V-56.274 H44.005 V-14.345 Z M71.365 -51.657 V-28.292 H48.62 V-51.657 H71.365 Z M59.851 0.476 Q61.271 0.476 62.155 -0.432 Q63.039 -1.342 63.039 -2.631 Q63.039 -4.027 62.153 -4.996 Q61.266 -5.965 59.91 -5.965 Q58.596 -5.965 57.644 -5.001 Q56.693 -4.036 56.693 -2.661 Q56.693 -1.33 57.617 -0.426 Q58.542 0.476 59.851 0.476 Z M59.964 -64.735 Q61.341 -64.735 62.237 -65.644 Q63.135 -66.554 63.135 -67.842 Q63.135 -69.24 62.231 -70.209 Q61.326 -71.177 59.944 -71.177 Q58.644 -71.177 57.716 -70.212 Q56.789 -69.247 56.789 -67.872 Q56.789 -66.541 57.74 -65.637 Q58.691 -64.735 59.964 -64.735 Z"/></g><g id="Ultralight-M" transform="matrix(1 0 0 1 506.415 1126)"><path d="M27 7.645 V-78.105 H92.875 V7.645 H27 Z M45 -15.355 H75 V-55.292 H45 V-15.355 Z M71.812 -52.105 V-27.73 H48.188 V-52.105 H71.812 Z M59.835 -0.792 Q61.221 -0.792 62.079 -1.675 Q62.938 -2.557 62.938 -3.81 Q62.938 -5.167 62.078 -6.136 Q61.218 -7.105 59.901 -7.105 Q58.625 -7.105 57.688 -6.142 Q56.75 -5.181 56.75 -3.841 Q56.75 -2.541 57.653 -1.666 Q58.555 -0.792 59.835 -0.792 Z M59.979 -63.667 Q61.312 -63.667 62.188 -64.55 Q63.062 -65.432 63.062 -66.685 Q63.062 -68.042 62.18 -69.011 Q61.296 -69.98 59.946 -69.98 Q58.688 -69.98 57.781 -69.017 Q56.875 -68.056 56.875 -66.716 Q56.875 -65.416 57.811 -64.541 Q58.749 -63.667 59.979 -63.667 Z"/></g><g id="Bold-S" transform="matrix(1 0 0 1 2294.23 696)"><path d="M16.569 5.009 V-75.469 H78.062 V5.009 H16.569 Z M30.919 -14.223 H63.613 V-56.385 H30.919 V-14.223 Z M52.567 -45.339 V-32.419 H41.965 V-45.339 H52.567 Z M47.269 -1.55 Q48.704 -1.55 49.551 -2.408 Q50.397 -3.266 50.397 -4.635 Q50.397 -6.07 49.547 -6.917 Q48.696 -7.763 47.299 -7.763 Q45.861 -7.763 45.022 -6.913 Q44.184 -6.062 44.184 -4.664 Q44.184 -3.226 45.042 -2.388 Q45.9 -1.55 47.269 -1.55 Z M47.269 -62.796 Q48.704 -62.796 49.551 -63.654 Q50.397 -64.512 50.397 -65.881 Q50.397 -67.316 49.547 -68.163 Q48.696 -69.009 47.299 -69.009 Q45.861 -69.009 45.022 -68.159 Q44.184 -67.308 44.184 -65.91 Q44.184 -64.472 45.042 -63.634 Q45.9 -62.796 47.269 -62.796 Z"/></g><g id="Semibold-S" transform="matrix(1 0 0 1 1998.1 696)"><path d="M18.027 3.551 V-74.011 H76.604 V3.551 H18.027 Z M32.119 -15.381 H62.455 V-55.185 H32.119 V-15.381 Z M53.339 -46.068 V-31.561 H41.236 V-46.068 H53.339 Z M47.269 -3.265 Q48.519 -3.265 49.243 -4.015 Q49.968 -4.767 49.968 -5.921 Q49.968 -7.17 49.24 -7.895 Q48.511 -8.621 47.299 -8.621 Q46.075 -8.621 45.344 -7.891 Q44.613 -7.162 44.613 -5.95 Q44.613 -4.727 45.364 -3.995 Q46.114 -3.265 47.269 -3.265 Z M47.269 -61.895 Q48.519 -61.895 49.243 -62.646 Q49.968 -63.397 49.968 -64.551 Q49.968 -65.801 49.24 -66.526 Q48.511 -67.252 47.299 -67.252 Q46.075 -67.252 45.344 -66.522 Q44.613 -65.793 44.613 -64.581 Q44.613 -63.358 45.364 -62.626 Q46.114 -61.895 47.269 -61.895 Z"/></g><g id="Medium-S" transform="matrix(1 0 0 1 1701.85 696)"><path d="M19.12 2.458 V-72.918 H75.51 V2.458 H19.12 Z M33.02 -16.249 H61.587 V-54.284 H33.02 V-16.249 Z M53.918 -46.614 V-30.918 H40.69 V-46.614 H53.918 Z M47.269 -4.551 Q48.38 -4.551 49.013 -5.221 Q49.647 -5.892 49.647 -6.886 Q49.647 -7.996 49.009 -8.63 Q48.371 -9.264 47.299 -9.264 Q46.235 -9.264 45.585 -8.626 Q44.935 -7.988 44.935 -6.916 Q44.935 -5.853 45.605 -5.202 Q46.275 -4.551 47.269 -4.551 Z M47.269 -61.22 Q48.38 -61.22 49.013 -61.89 Q49.647 -62.561 49.647 -63.554 Q49.647 -64.665 49.009 -65.299 Q48.371 -65.932 47.299 -65.932 Q46.235 -65.932 45.585 -65.295 Q44.935 -64.657 44.935 -63.584 Q44.935 -62.522 45.605 -61.871 Q46.275 -61.22 47.269 -61.22 Z"/></g><g id="Regular-S" transform="matrix(1 0 0 1 1405.73 696)"><path d="M19.922 1.656 V-72.116 H74.708 V1.656 H19.922 Z M33.68 -16.886 H60.95 V-53.624 H33.68 V-16.886 Z M54.342 -47.016 V-30.447 H40.288 V-47.016 H54.342 Z M47.269 -5.495 Q48.277 -5.495 48.844 -6.106 Q49.411 -6.718 49.411 -7.593 Q49.411 -8.601 48.84 -9.168 Q48.269 -9.735 47.299 -9.735 Q46.354 -9.735 45.762 -9.164 Q45.17 -8.593 45.17 -7.623 Q45.17 -6.678 45.782 -6.086 Q46.393 -5.495 47.269 -5.495 Z M47.269 -60.725 Q48.277 -60.725 48.844 -61.336 Q49.411 -61.948 49.411 -62.823 Q49.411 -63.831 48.84 -64.398 Q48.269 -64.965 47.299 -64.965 Q46.354 -64.965 45.762 -64.394 Q45.17 -63.823 45.17 -62.853 Q45.17 -61.908 45.782 -61.316 Q46.393 -60.725 47.269 -60.725 Z"/></g><g id="Light-S" transform="matrix(1 0 0 1 1109.75 696)"><path d="M21.667 -0.127 V-70.333 H72.944 V-0.127 H21.667 Z M34.989 -18.213 H59.66 V-52.334 H34.989 V-18.213 Z M54.93 -47.603 V-29.707 H39.719 V-47.603 H54.93 Z M47.246 -7.163 Q48.211 -7.163 48.744 -7.739 Q49.278 -8.315 49.278 -9.144 Q49.278 -10.099 48.741 -10.666 Q48.205 -11.234 47.288 -11.234 Q46.391 -11.234 45.819 -10.666 Q45.246 -10.098 45.246 -9.174 Q45.246 -8.271 45.828 -7.718 Q46.41 -7.163 47.246 -7.163 Z M47.29 -59.321 Q48.239 -59.321 48.778 -59.897 Q49.316 -60.472 49.316 -61.301 Q49.316 -62.257 48.773 -62.824 Q48.23 -63.391 47.302 -63.391 Q46.411 -63.391 45.848 -62.823 Q45.284 -62.256 45.284 -61.331 Q45.284 -60.428 45.876 -59.874 Q46.468 -59.321 47.29 -59.321 Z"/></g><g id="Thin-S" transform="matrix(1 0 0 1 814.015 696)"><path d="M23.412 -1.91 V-68.55 H71.181 V-1.91 H23.412 Z M36.298 -19.541 H58.371 V-51.045 H36.298 V-19.541 Z M55.518 -48.191 V-28.967 H39.15 V-48.191 H55.518 Z M47.223 -8.833 Q48.146 -8.833 48.646 -9.372 Q49.146 -9.913 49.146 -10.693 Q49.146 -11.597 48.644 -12.165 Q48.142 -12.732 47.277 -12.732 Q46.43 -12.732 45.875 -12.169 Q45.322 -11.604 45.322 -10.725 Q45.322 -9.864 45.874 -9.348 Q46.427 -8.833 47.223 -8.833 Z M47.311 -57.918 Q48.201 -57.918 48.711 -58.457 Q49.222 -58.998 49.222 -59.778 Q49.222 -60.683 48.706 -61.25 Q48.189 -61.817 47.304 -61.817 Q46.467 -61.817 45.933 -61.253 Q45.398 -60.689 45.398 -59.809 Q45.398 -58.948 45.971 -58.433 Q46.544 -57.918 47.311 -57.918 Z"/></g><g id="Ultralight-S" transform="matrix(1 0 0 1 517.792 696)"><path d="M24.459 -2.98 V-67.48 H70.122 V-2.98 H24.459 Z M37.083 -20.338 H57.597 V-50.27 H37.083 V-20.338 Z M55.871 -48.544 V-28.523 H38.809 V-48.544 H55.871 Z M47.21 -9.834 Q48.106 -9.834 48.586 -10.353 Q49.066 -10.872 49.066 -11.623 Q49.066 -12.497 48.585 -13.064 Q48.103 -13.631 47.27 -13.631 Q46.452 -13.631 45.91 -13.069 Q45.367 -12.508 45.367 -11.656 Q45.367 -10.819 45.902 -10.326 Q46.437 -9.834 47.21 -9.834 Z M47.323 -57.075 Q48.178 -57.075 48.671 -57.594 Q49.165 -58.113 49.165 -58.864 Q49.165 -59.738 48.666 -60.305 Q48.165 -60.872 47.305 -60.872 Q46.502 -60.872 45.984 -60.31 Q45.466 -59.749 45.466 -58.897 Q45.466 -58.061 46.027 -57.568 Q46.589 -57.075 47.323 -57.075 Z"/></g></g></svg>