<svg xmlns="http://www.w3.org/2000/svg" height="40" viewBox="0 -960 960 960" width="40"><path d="M561.1-417.58 432.45-541.86v-188.08h95.87v148.22l100.49 96.62-67.71 67.52ZM134.15-550.03h95.2q.85 34.13 12.21 65.6 11.35 31.46 30.14 59.24 29.2 42.89 66.1 78.47 36.9 35.59 72.77 72.33 17.86 18.77 35.6 38.55 17.73 19.78 32.83 40.01 14.9-20.5 31.22-39.72t35.65-38.84q35.56-36.46 73.57-71.56 38.02-35.11 68.1-78.64 19.68-29.51 30.78-63.56 11.1-34.06 11.1-71.28 1-103.61-72.62-176.97-73.62-73.35-177.8-73.02-48.45-.33-91.79 17.44-43.34 17.78-76.27 52.37h47.13v96.25H134.15v-222.87h95.53v72.52q47.19-53.58 112.18-83.05 65-29.47 137.14-29.47 144.35 0 245.79 101.2t101.44 245.71q0 51.47-15.11 99.24-15.12 47.78-43.73 89.42-39.07 57.44-89.81 102.76-50.73 45.33-95.5 96.81-17.96 19.88-32.92 40.27-14.97 20.39-26.3 42.05l-7.53 14.62q-6.04 10-15.89 15.45-9.85 5.45-20.08 5.45-11.88 0-21.73-5.77-9.85-5.78-14.13-14.97l-8.49-14.78q-11.1-21.66-25.79-42.73-14.68-21.07-31.58-39.59-45.89-51.48-96.68-96.75-50.79-45.28-89.44-102.94-27.91-39.06-42.27-84.72-14.35-45.66-15.1-94.53Z"/></svg>