<svg xmlns="http://www.w3.org/2000/svg" height="40" viewBox="0 -960 960 960" width="40"><path d="M563.93-418.01 436.04-542.9v-189h89.02v152.13l101.36 99.34-62.49 62.42ZM136.75-554.05h88.36q.74 35.98 11.99 69.29 11.25 33.31 31.12 62.18 29.85 44.3 67.67 80.7 37.83 36.4 74.35 74.45 18.52 19.09 35.93 39.38 17.4 20.3 32.83 41.35 14.57-21.36 31.38-41.13 16.81-19.76 36.14-39.6 36.39-37.54 75.07-73.74 38.68-36.2 69.29-80.77 20.25-29.99 31.68-64.88 11.43-34.88 11.43-72.94 1-105.57-73.9-180.06-74.9-74.5-181.09-74.17-51.85-.33-98.16 19.4-46.32 19.73-80.44 58.03h53.98v89.18H136.75v-216.03h88.69v77.42q47.08-56.52 113.42-86.97 66.35-30.45 140.14-30.45 143.18 0 243.8 100.22 100.61 100.22 100.61 243.48 0 51.39-14.96 98.91-14.95 47.52-43.4 88.98-38.65 57-88.86 102.33t-94.93 96.34q-17.4 19.94-32.29 39.92-14.89 19.97-26.22 41.64l-7.42 14.84q-5.82 10-15.57 15.28-9.74 5.29-20.03 5.29-11.95 0-21.69-5.62-9.75-5.61-14.06-14.89l-8.2-14.9q-11.24-21.67-25.92-42.41-14.67-20.74-31.24-39.15-45.76-51.4-96.29-96.23-50.53-44.82-88.42-102.49-28.34-39.6-42.59-86.13-14.25-46.53-14.57-96.05Z"/></svg>