<svg xmlns="http://www.w3.org/2000/svg" height="48" viewBox="0 -960 960 960" width="48"><path d="m559.74-430.35-117.28-113.5v-173.67h76.15v141.41l95.19 91.7-54.06 54.06ZM150.87-551.78h75.15q1.07 35.67 12.35 68.57 11.28 32.9 31.15 61.69 29.87 44.3 67.96 80.89 38.09 36.59 74.45 75.83 17.94 18.86 35 40.1 17.07 21.24 31.45 42.94 14.4-21.6 29.76-42.25 15.36-20.65 35.36-40.79 36.18-37.82 75.95-74.39 39.76-36.57 70.38-81.43 19.58-30.27 31.08-65.2 11.5-34.93 11.5-73.31 1-105.61-73.51-179.73-74.52-74.12-180.26-73.55-54.78-.57-102.76 22.15-47.98 22.71-82.4 64.82h58.3v76.72H150.87V-849.7h76.15v84.33q45.13-57.85 111.1-91.09T478.5-889.7q137.72 0 234.18 96.41 96.45 96.41 97.02 234.68 0 48.89-14.6 94.8-14.6 45.9-41.58 85.84-37.46 55.59-85.88 99.57-48.42 43.98-91.05 93.58-16.58 19-31.03 38.76-14.46 19.76-25.27 41.51l-6.65 13.57q-5.68 10.06-15.04 15.37-9.37 5.31-19.77 5.31-11.39 0-20.55-5.49-9.17-5.49-13.59-14.84l-7.45-13.83q-11.23-21.78-25.21-41.72-13.99-19.95-29.92-38.63-43.2-49.83-91.99-93.84-48.79-44-84.99-99.63-27-38.07-40.35-82.03-13.35-43.97-13.91-91.47Z"/></svg>