<svg xmlns="http://www.w3.org/2000/svg" height="20" viewBox="0 -960 960 960" width="20"><path d="M546-427 432-539v-181h98v140l85 84-69 69ZM137-576h98q-5 43 6.5 83t34.5 74q29 41 64 73t70 66q19 17 36 35.5t33 37.5q15-20 32-38.5t36-34.5q35-34 72-66t64-73q19-29 31-62.5t12-70.5q1-103-71.5-175T479-797q-42-2-81 11t-73 41h38v98H136v-225h97v81q49-50 113-77.5T479-896q144 0 244.5 100T824-552q0 51-15 99t-44 89q-37 55-87.5 96.5T582-177q-17 18-32.5 37.5T523-98l-8 15q-5 9-14.5 15T480-62q-12 0-21.5-5.5T444-83l-8-15q-11-22-26-41.5T379-177q-46-47-97-89.5T194-364q-31-47-46-100.5T137-576Z"/></svg>