<svg xmlns="http://www.w3.org/2000/svg" height="20" viewBox="0 -960 960 960" width="20"><path d="m536.57-444.65-95.33-93.65v-153.83H519v121.28l72.96 71.05-55.39 55.15Zm-365.7-131.76h77.26q-5.02 41.82 5.48 81.4 10.5 39.58 32.78 72.88 27.02 39.04 60.94 70.09 33.91 31.04 66.93 65.08 17.26 17.03 33.5 35.3Q464-233.39 478-214.11q13.74-19.28 28.87-38.05Q522-270.93 540-286.96q33.28-34.04 69.8-64.45 36.53-30.42 62.31-70.72 18.02-28.28 29.02-60.82 11-32.53 11-68.05 0-97.54-68.41-165.46Q575.3-784.37 478-783.13q-43.93-1.24-83.97 15.13-40.03 16.37-72.83 47.57h44.63v77.76H169.87v-195.46h77.76v82.26q44.72-48.89 104.51-77.58 59.79-28.68 125.86-28.68 130.35 0 221.12 90.39 90.77 90.39 91.01 220.74 0 46.46-13.36 90.41-13.36 43.96-39.57 81.68-34.46 50.95-80.41 89.93-45.94 38.98-86.4 84.44-15.98 16.74-29.71 35.59-13.72 18.86-22.96 38.84l-6.74 13.74q-5 9-13.49 14.62-8.49 5.62-18.73 5.62-11.24 0-19.23-5.75t-12.99-14.49l-7.24-13.74q-10.23-19.98-23.96-38.47t-27.97-35.96q-40.46-44.48-86.28-84.44-45.83-39.95-79.79-89.93-28.76-43.48-41.6-93.49-12.85-50.01-8.83-104.01Z"/></svg>