<svg xmlns="http://www.w3.org/2000/svg" version="1.1" width="3300" height="2000"><g id="Notes"><style>
    text {
      font-family: monospace;
      text-anchor: middle;
    }
    text.emphasis {
      font-weight:bold;
    }
    text.lanchor {
      text-anchor: start;
    }
  </style><rect height="2200" id="artboard" fill="white" width="3300" x="0" y="0"/><line id="" style="fill:none;stroke:black;stroke-width:0.5;" x1="263" x2="3036" y1="292" y2="292"/><text class="lanchor emphasis" transform="matrix(1 0 0 1 263 322)">Weight/Scale Variations</text><text transform="matrix(1 0 0 1 559.711 322)">Ultralight</text><text transform="matrix(1 0 0 1 856.422 322)">Thin</text><text transform="matrix(1 0 0 1 1153.13 322)">Light</text><text transform="matrix(1 0 0 1 1449.84 322)">Regular</text><text transform="matrix(1 0 0 1 1746.56 322)">Medium</text><text transform="matrix(1 0 0 1 2043.27 322)">Semibold</text><text transform="matrix(1 0 0 1 2339.98 322)">Bold</text><text transform="matrix(1 0 0 1 2636.69 322)">Heavy</text><text transform="matrix(1 0 0 1 2933.4 322)">Black</text><text id="template-version" style="text-anchor: end;" transform="matrix(1 0 0 1 3036 1933)">Template v.1.0</text><text class="lanchor" transform="matrix(1 0 0 1 263 726)">Small</text><text class="lanchor" transform="matrix(1 0 0 1 263 1156)">Medium</text><text class="lanchor" transform="matrix(1 0 0 1 263 1586)">Large</text></g><g id="Guides"><g id="H-reference" style="fill:#27AAE1;stroke:none;" transform="matrix(1 0 0 1 339 696)"><path d="M 54.9316 0 L 57.666 0 L 30.5664 -70.459 L 28.0762 -70.459 L 0.976562 0 L 3.66211 0 L 12.9395 -24.4629 L 45.7031 -24.4629 Z M 29.1992 -67.0898 L 29.4434 -67.0898 L 44.8242 -26.709 L 13.8184 -26.709 Z"/></g><line id="Baseline-S" style="fill:none;stroke:#27AAE1;opacity:1;stroke-width:0.577;" x1="263" x2="3036" y1="696" y2="696"/><line id="Capline-S" style="fill:none;stroke:#27AAE1;opacity:1;stroke-width:0.577;" x1="263" x2="3036" y1="625.541" y2="625.541"/><g id="H-reference" style="fill:#27AAE1;stroke:none;" transform="matrix(1 0 0 1 339 1126)"><path d="M 54.9316 0 L 57.666 0 L 30.5664 -70.459 L 28.0762 -70.459 L 0.976562 0 L 3.66211 0 L 12.9395 -24.4629 L 45.7031 -24.4629 Z M 29.1992 -67.0898 L 29.4434 -67.0898 L 44.8242 -26.709 L 13.8184 -26.709 Z"/></g><line id="Baseline-M" style="fill:none;stroke:#27AAE1;opacity:1;stroke-width:0.577;" x1="263" x2="3036" y1="1126" y2="1126"/><line id="Capline-M" style="fill:none;stroke:#27AAE1;opacity:1;stroke-width:0.577;" x1="263" x2="3036" y1="1055.54" y2="1055.54"/><g id="H-reference" style="fill:#27AAE1;stroke:none;" transform="matrix(1 0 0 1 339 1556)"><path d="M 54.9316 0 L 57.666 0 L 30.5664 -70.459 L 28.0762 -70.459 L 0.976562 0 L 3.66211 0 L 12.9395 -24.4629 L 45.7031 -24.4629 Z M 29.1992 -67.0898 L 29.4434 -67.0898 L 44.8242 -26.709 L 13.8184 -26.709 Z"/></g><line id="Baseline-L" style="fill:none;stroke:#27AAE1;opacity:1;stroke-width:0.577;" x1="263" x2="3036" y1="1556" y2="1556"/><line id="Capline-L" style="fill:none;stroke:#27AAE1;opacity:1;stroke-width:0.577;" x1="263" x2="3036" y1="1485.54" y2="1485.54"/><rect height="119.336" id="left-margin" style="fill:darkred;stroke:none;opacity:0.4;" width="12.4512" x="1394.06" y="1030.79"/><rect height="119.336" id="right-margin" style="fill:darkgreen;stroke:none;opacity:0.4;" width="12.4512" x="1502.5112" y="1030.79"/><rect x="1406.5112" y="1045" width="96" height="96" fill="none" stroke="blue" stroke-dasharray="5"/><rect x="1394.06" y="1030.79" width="120.9024" height="119.336" fill="none" stroke="blue"/></g><g id="Symbols"><g id="Bold-L" transform="matrix(1 0 0 1 2266 1556)"><path d="M24.026 1.051 Q17.729 1.051 13.298 -3.427 Q8.869 -7.905 8.869 -14.267 V-56.354 Q8.869 -62.717 13.298 -67.195 Q17.729 -71.672 24.026 -71.672 H130.774 Q137.137 -71.672 141.615 -67.195 Q146.093 -62.717 146.093 -56.354 V-14.267 Q146.093 -7.905 141.615 -3.427 Q137.137 1.051 130.774 1.051 H24.026 Z M24.026 -14.267 H130.774 Q130.774 -14.267 130.774 -14.267 Q130.774 -14.267 130.774 -14.267 V-56.354 Q130.774 -56.354 130.774 -56.354 Q130.774 -56.354 130.774 -56.354 H24.026 Q24.026 -56.354 24.026 -56.354 Q24.026 -56.354 24.026 -56.354 V-14.267 Q24.026 -14.267 24.026 -14.267 Q24.026 -14.267 24.026 -14.267 Z"/></g><g id="Semibold-L" transform="matrix(1 0 0 1 1970.27 1556)"><path d="M23.396 -0.702 Q18.154 -0.702 14.387 -4.494 Q10.622 -8.287 10.622 -13.566 V-56.984 Q10.622 -62.264 14.387 -66.056 Q18.154 -69.85 23.396 -69.85 H131.404 Q136.684 -69.85 140.476 -66.056 Q144.27 -62.264 144.27 -56.984 V-13.566 Q144.27 -8.287 140.476 -4.494 Q136.684 -0.702 131.404 -0.702 H23.396 Z M23.396 -13.566 H131.404 Q131.404 -13.566 131.404 -13.566 Q131.404 -13.566 131.404 -13.566 V-56.984 Q131.404 -56.984 131.404 -56.984 Q131.404 -56.984 131.404 -56.984 H23.396 Q23.396 -56.984 23.396 -56.984 Q23.396 -56.984 23.396 -56.984 V-13.566 Q23.396 -13.566 23.396 -13.566 Q23.396 -13.566 23.396 -13.566 Z"/></g><g id="Medium-L" transform="matrix(1 0 0 1 1674.31 1556)"><path d="M22.922 -2.016 Q18.471 -2.016 15.204 -5.296 Q11.936 -8.574 11.936 -13.04 V-57.458 Q11.936 -61.925 15.204 -65.203 Q18.471 -68.483 22.922 -68.483 H131.878 Q136.345 -68.483 139.623 -65.203 Q142.903 -61.925 142.903 -57.458 V-13.04 Q142.903 -8.574 139.623 -5.296 Q136.345 -2.016 131.878 -2.016 H22.922 Z M22.922 -13.04 H131.878 Q131.878 -13.04 131.878 -13.04 Q131.878 -13.04 131.878 -13.04 V-57.458 Q131.878 -57.458 131.878 -57.458 Q131.878 -57.458 131.878 -57.458 H22.922 Q22.922 -57.458 22.922 -57.458 Q22.922 -57.458 22.922 -57.458 V-13.04 Q22.922 -13.04 22.922 -13.04 Q22.922 -13.04 22.922 -13.04 Z"/></g><g id="Regular-L" transform="matrix(1 0 0 1 1378.56 1556)"><path d="M22.575 -2.98 Q18.705 -2.98 15.803 -5.882 Q12.9 -8.785 12.9 -12.655 V-57.805 Q12.9 -61.675 15.803 -64.577 Q18.705 -67.48 22.575 -67.48 H132.225 Q136.095 -67.48 138.998 -64.577 Q141.9 -61.675 141.9 -57.805 V-12.655 Q141.9 -8.785 138.998 -5.882 Q136.095 -2.98 132.225 -2.98 H22.575 Z M22.575 -12.655 H132.225 Q132.225 -12.655 132.225 -12.655 Q132.225 -12.655 132.225 -12.655 V-57.805 Q132.225 -57.805 132.225 -57.805 Q132.225 -57.805 132.225 -57.805 H22.575 Q22.575 -57.805 22.575 -57.805 Q22.575 -57.805 22.575 -57.805 V-12.655 Q22.575 -12.655 22.575 -12.655 Q22.575 -12.655 22.575 -12.655 Z"/></g><g id="Light-L" transform="matrix(1 0 0 1 1082.77 1556)"><path d="M25.428 -6.205 Q21.633 -6.205 18.879 -8.959 Q16.125 -11.713 16.125 -15.508 V-54.952 Q16.125 -58.747 18.879 -61.501 Q21.633 -64.255 25.428 -64.255 H129.372 Q133.167 -64.255 135.921 -61.501 Q138.675 -58.747 138.675 -54.952 V-15.508 Q138.675 -11.713 135.921 -8.959 Q133.167 -6.205 129.372 -6.205 H25.428 Z M25.428 -13.524 H129.372 Q130.24 -13.524 130.798 -14.082 Q131.356 -14.64 131.356 -15.508 V-54.952 Q131.356 -55.82 130.798 -56.378 Q130.24 -56.936 129.372 -56.936 H25.428 Q24.56 -56.936 24.002 -56.378 Q23.444 -55.82 23.444 -54.952 V-15.508 Q23.444 -14.64 24.002 -14.082 Q24.56 -13.524 25.428 -13.524 Z"/></g><g id="Thin-L" transform="matrix(1 0 0 1 787.282 1556)"><path d="M28.28 -9.43 Q24.563 -9.43 21.956 -12.036 Q19.35 -14.643 19.35 -18.36 V-52.1 Q19.35 -55.817 21.956 -58.424 Q24.563 -61.03 28.28 -61.03 H126.52 Q130.237 -61.03 132.844 -58.424 Q135.45 -55.817 135.45 -52.1 V-18.36 Q135.45 -14.643 132.844 -12.036 Q130.237 -9.43 126.52 -9.43 H28.28 Z M28.28 -14.392 H126.52 Q128.255 -14.392 129.372 -15.508 Q130.488 -16.625 130.488 -18.36 V-52.1 Q130.488 -53.835 129.372 -54.952 Q128.255 -56.068 126.52 -56.068 H28.28 Q26.545 -56.068 25.428 -54.952 Q24.312 -53.835 24.312 -52.1 V-18.36 Q24.312 -16.625 25.428 -15.508 Q26.545 -14.392 28.28 -14.392 Z"/></g><g id="Ultralight-L" transform="matrix(1 0 0 1 491.205 1556)"><path d="M29.992 -11.365 Q26.321 -11.365 23.802 -13.882 Q21.285 -16.401 21.285 -20.072 V-50.387 Q21.285 -54.061 23.802 -56.578 Q26.321 -59.095 29.992 -59.095 H124.808 Q128.481 -59.095 130.998 -56.578 Q133.515 -54.061 133.515 -50.387 V-20.072 Q133.515 -16.401 130.998 -13.882 Q128.481 -11.365 124.808 -11.365 H29.992 Z M29.992 -14.912 H124.808 Q127.065 -14.912 128.516 -16.364 Q129.968 -17.815 129.968 -20.072 V-50.387 Q129.968 -52.645 128.516 -54.096 Q127.065 -55.547 124.808 -55.547 H29.992 Q27.735 -55.547 26.284 -54.096 Q24.832 -52.645 24.832 -50.387 V-20.072 Q24.832 -17.815 26.284 -16.364 Q27.735 -14.912 29.992 -14.912 Z"/></g><g id="Bold-M" transform="matrix(1 0 0 1 2281.8 1126)"><path d="M21.5 -6.105 Q14.875 -6.105 10.312 -10.667 Q5.75 -15.23 5.75 -21.855 V-48.73 Q5.75 -55.355 10.312 -59.917 Q14.875 -64.48 21.5 -64.48 H98.5 Q105.125 -64.48 109.688 -59.917 Q114.25 -55.355 114.25 -48.73 V-21.855 Q114.25 -15.23 109.688 -10.667 Q105.125 -6.105 98.5 -6.105 H21.5 Z M21.5 -21.855 H98.5 Q98.5 -21.855 98.5 -21.855 Q98.5 -21.855 98.5 -21.855 V-48.73 Q98.5 -48.73 98.5 -48.73 Q98.5 -48.73 98.5 -48.73 H21.5 Q21.5 -48.73 21.5 -48.73 Q21.5 -48.73 21.5 -48.73 V-21.855 Q21.5 -21.855 21.5 -21.855 Q21.5 -21.855 21.5 -21.855 Z"/></g><g id="Semibold-M" transform="matrix(1 0 0 1 1985.97 1126)"><path d="M20.848 -7.899 Q15.31 -7.899 11.454 -11.755 Q7.598 -15.61 7.598 -21.149 V-49.382 Q7.598 -54.92 11.454 -58.776 Q15.31 -62.632 20.848 -62.632 H99.153 Q104.69 -62.632 108.546 -58.776 Q112.403 -54.92 112.403 -49.382 V-21.149 Q112.403 -15.61 108.546 -11.755 Q104.69 -7.899 99.153 -7.899 H20.848 Z M20.848 -21.149 H99.153 Q99.153 -21.149 99.153 -21.149 Q99.153 -21.149 99.153 -21.149 V-49.382 Q99.153 -49.382 99.153 -49.382 Q99.153 -49.382 99.153 -49.382 H20.848 Q20.848 -49.382 20.848 -49.382 Q20.848 -49.382 20.848 -49.382 V-21.149 Q20.848 -21.149 20.848 -21.149 Q20.848 -21.149 20.848 -21.149 Z"/></g><g id="Medium-M" transform="matrix(1 0 0 1 1689.91 1126)"><path d="M20.359 -9.244 Q15.636 -9.244 12.31 -12.57 Q8.984 -15.896 8.984 -20.619 V-49.871 Q8.984 -54.594 12.31 -57.92 Q15.636 -61.246 20.359 -61.246 H99.641 Q104.364 -61.246 107.69 -57.92 Q111.016 -54.594 111.016 -49.871 V-20.619 Q111.016 -15.896 107.69 -12.57 Q104.364 -9.244 99.641 -9.244 H20.359 Z M20.359 -20.619 H99.641 Q99.641 -20.619 99.641 -20.619 Q99.641 -20.619 99.641 -20.619 V-49.871 Q99.641 -49.871 99.641 -49.871 Q99.641 -49.871 99.641 -49.871 H20.359 Q20.359 -49.871 20.359 -49.871 Q20.359 -49.871 20.359 -49.871 V-20.619 Q20.359 -20.619 20.359 -20.619 Q20.359 -20.619 20.359 -20.619 Z"/></g><g id="Regular-M" transform="matrix(1 0 0 1 1394.06 1126)"><path d="M20 -10.23 Q15.875 -10.23 12.938 -13.167 Q10 -16.105 10 -20.23 V-50.23 Q10 -54.355 12.938 -57.292 Q15.875 -60.23 20 -60.23 H100 Q104.125 -60.23 107.062 -57.292 Q110 -54.355 110 -50.23 V-20.23 Q110 -16.105 107.062 -13.167 Q104.125 -10.23 100 -10.23 H20 Z M20 -20.23 H100 Q100 -20.23 100 -20.23 Q100 -20.23 100 -20.23 V-50.23 Q100 -50.23 100 -50.23 Q100 -50.23 100 -50.23 H20 Q20 -50.23 20 -50.23 Q20 -50.23 20 -50.23 V-20.23 Q20 -20.23 20 -20.23 Q20 -20.23 20 -20.23 Z"/></g><g id="Light-M" transform="matrix(1 0 0 1 1098.18 1126)"><path d="M21.539 -12.73 Q17.75 -12.73 15.125 -15.355 Q12.5 -17.98 12.5 -21.769 V-48.691 Q12.5 -52.48 15.125 -55.105 Q17.75 -57.73 21.539 -57.73 H98.461 Q102.25 -57.73 104.875 -55.105 Q107.5 -52.48 107.5 -48.691 V-21.769 Q107.5 -17.98 104.875 -15.355 Q102.25 -12.73 98.461 -12.73 H21.539 Z M21.539 -20.23 H98.461 Q99.135 -20.23 99.567 -20.662 Q100 -21.095 100 -21.769 V-48.691 Q100 -49.365 99.567 -49.797 Q99.135 -50.23 98.461 -50.23 H21.539 Q20.865 -50.23 20.433 -49.797 Q20 -49.365 20 -48.691 V-21.769 Q20 -21.095 20.433 -20.662 Q20.865 -20.23 21.539 -20.23 Z"/></g><g id="Thin-M" transform="matrix(1 0 0 1 802.565 1126)"><path d="M23.078 -15.23 Q19.625 -15.23 17.312 -17.542 Q15 -19.855 15 -23.307 V-47.152 Q15 -50.605 17.312 -52.917 Q19.625 -55.23 23.078 -55.23 H96.922 Q100.375 -55.23 102.688 -52.917 Q105 -50.605 105 -47.152 V-23.307 Q105 -19.855 102.688 -17.542 Q100.375 -15.23 96.922 -15.23 H23.078 Z M23.078 -20.23 H96.922 Q98.269 -20.23 99.135 -21.095 Q100 -21.961 100 -23.307 V-47.152 Q100 -48.499 99.135 -49.365 Q98.269 -50.23 96.922 -50.23 H23.078 Q21.731 -50.23 20.865 -49.365 Q20 -48.499 20 -47.152 V-23.307 Q20 -21.961 20.865 -21.095 Q21.731 -20.23 23.078 -20.23 Z"/></g><g id="Ultralight-M" transform="matrix(1 0 0 1 506.415 1126)"><path d="M24 -16.73 Q20.75 -16.73 18.625 -18.855 Q16.5 -20.98 16.5 -24.23 V-46.23 Q16.5 -49.48 18.625 -51.605 Q20.75 -53.73 24 -53.73 H96 Q99.25 -53.73 101.375 -51.605 Q103.5 -49.48 103.5 -46.23 V-24.23 Q103.5 -20.98 101.375 -18.855 Q99.25 -16.73 96 -16.73 H24 Z M24 -20.23 H96 Q97.75 -20.23 98.875 -21.355 Q100 -22.48 100 -24.23 V-46.23 Q100 -47.98 98.875 -49.105 Q97.75 -50.23 96 -50.23 H24 Q22.25 -50.23 21.125 -49.105 Q20 -47.98 20 -46.23 V-24.23 Q20 -22.48 21.125 -21.355 Q22.25 -20.23 24 -20.23 Z"/></g><g id="Bold-S" transform="matrix(1 0 0 1 2294.23 696)"><path d="M17.753 -13.039 Q12.851 -13.039 9.483 -16.407 Q6.115 -19.775 6.115 -24.677 V-45.881 Q6.115 -50.783 9.483 -54.151 Q12.851 -57.519 17.753 -57.519 H76.928 Q81.829 -57.519 85.197 -54.151 Q88.565 -50.783 88.565 -45.881 V-24.677 Q88.565 -19.775 85.197 -16.407 Q81.829 -13.039 76.928 -13.039 H17.753 Z M17.753 -24.677 H76.928 Q76.928 -24.677 76.928 -24.677 Q76.928 -24.677 76.928 -24.677 V-45.881 Q76.928 -45.881 76.928 -45.881 Q76.928 -45.881 76.928 -45.881 H17.753 Q17.753 -45.881 17.753 -45.881 Q17.753 -45.881 17.753 -45.881 V-24.677 Q17.753 -24.677 17.753 -24.677 Q17.753 -24.677 17.753 -24.677 Z"/></g><g id="Semibold-S" transform="matrix(1 0 0 1 1998.1 696)"><path d="M17.238 -14.455 Q13.194 -14.455 10.383 -17.265 Q7.572 -20.075 7.572 -24.12 V-46.396 Q7.572 -50.44 10.383 -53.251 Q13.194 -56.062 17.238 -56.062 H77.442 Q81.486 -56.062 84.297 -53.251 Q87.108 -50.44 87.108 -46.396 V-24.12 Q87.108 -20.075 84.297 -17.265 Q81.486 -14.455 77.442 -14.455 H17.238 Z M17.238 -24.12 H77.442 Q77.442 -24.12 77.442 -24.12 Q77.442 -24.12 77.442 -24.12 V-46.396 Q77.442 -46.396 77.442 -46.396 Q77.442 -46.396 77.442 -46.396 H17.238 Q17.238 -46.396 17.238 -46.396 Q17.238 -46.396 17.238 -46.396 V-24.12 Q17.238 -24.12 17.238 -24.12 Q17.238 -24.12 17.238 -24.12 Z"/></g><g id="Medium-S" transform="matrix(1 0 0 1 1701.85 696)"><path d="M16.852 -15.516 Q13.451 -15.516 11.059 -17.908 Q8.666 -20.301 8.666 -23.702 V-46.782 Q8.666 -50.183 11.059 -52.575 Q13.451 -54.968 16.852 -54.968 H77.828 Q81.229 -54.968 83.621 -52.575 Q86.014 -50.183 86.014 -46.782 V-23.702 Q86.014 -20.301 83.621 -17.908 Q81.229 -15.516 77.828 -15.516 H16.852 Z M16.852 -23.702 H77.828 Q77.828 -23.702 77.828 -23.702 Q77.828 -23.702 77.828 -23.702 V-46.782 Q77.828 -46.782 77.828 -46.782 Q77.828 -46.782 77.828 -46.782 H16.852 Q16.852 -46.782 16.852 -46.782 Q16.852 -46.782 16.852 -46.782 V-23.702 Q16.852 -23.702 16.852 -23.702 Q16.852 -23.702 16.852 -23.702 Z"/></g><g id="Regular-S" transform="matrix(1 0 0 1 1405.73 696)"><path d="M16.569 -16.294 Q13.64 -16.294 11.554 -18.38 Q9.468 -20.466 9.468 -23.395 V-47.065 Q9.468 -49.994 11.554 -52.08 Q13.64 -54.166 16.569 -54.166 H78.111 Q81.04 -54.166 83.126 -52.08 Q85.212 -49.994 85.212 -47.065 V-23.395 Q85.212 -20.466 83.126 -18.38 Q81.04 -16.294 78.111 -16.294 H16.569 Z M16.569 -23.395 H78.111 Q78.111 -23.395 78.111 -23.395 Q78.111 -23.395 78.111 -23.395 V-47.065 Q78.111 -47.065 78.111 -47.065 Q78.111 -47.065 78.111 -47.065 H16.569 Q16.569 -47.065 16.569 -47.065 Q16.569 -47.065 16.569 -47.065 V-23.395 Q16.569 -23.395 16.569 -23.395 Q16.569 -23.395 16.569 -23.395 Z"/></g><g id="Light-S" transform="matrix(1 0 0 1 1109.75 696)"><path d="M17.783 -18.266 Q15.119 -18.266 13.28 -20.106 Q11.441 -21.945 11.441 -24.609 V-45.851 Q11.441 -48.515 13.28 -50.354 Q15.119 -52.193 17.783 -52.193 H76.897 Q79.561 -52.193 81.4 -50.354 Q83.24 -48.515 83.24 -45.851 V-24.609 Q83.24 -21.945 81.4 -20.106 Q79.561 -18.266 76.897 -18.266 H17.783 Z M17.783 -23.395 H76.897 Q77.429 -23.395 77.77 -23.736 Q78.111 -24.077 78.111 -24.609 V-45.851 Q78.111 -46.383 77.77 -46.724 Q77.429 -47.065 76.897 -47.065 H17.783 Q17.251 -47.065 16.91 -46.724 Q16.569 -46.383 16.569 -45.851 V-24.609 Q16.569 -24.077 16.91 -23.736 Q17.251 -23.395 17.783 -23.395 Z"/></g><g id="Thin-S" transform="matrix(1 0 0 1 814.015 696)"><path d="M18.997 -20.239 Q16.599 -20.239 15.006 -21.832 Q13.413 -23.425 13.413 -25.823 V-44.637 Q13.413 -47.035 15.006 -48.628 Q16.599 -50.221 18.997 -50.221 H75.683 Q78.081 -50.221 79.674 -48.628 Q81.267 -47.035 81.267 -44.637 V-25.823 Q81.267 -23.425 79.674 -21.832 Q78.081 -20.239 75.683 -20.239 H18.997 Z M18.997 -23.395 H75.683 Q76.745 -23.395 77.429 -24.077 Q78.111 -24.761 78.111 -25.823 V-44.637 Q78.111 -45.699 77.429 -46.383 Q76.745 -47.065 75.683 -47.065 H18.997 Q17.935 -47.065 17.251 -46.383 Q16.569 -45.699 16.569 -44.637 V-25.823 Q16.569 -24.761 17.251 -24.077 Q17.935 -23.395 18.997 -23.395 Z"/></g><g id="Ultralight-S" transform="matrix(1 0 0 1 517.792 696)"><path d="M19.725 -21.422 Q17.486 -21.422 16.041 -22.867 Q14.597 -24.312 14.597 -26.551 V-43.909 Q14.597 -46.148 16.041 -47.593 Q17.486 -49.037 19.725 -49.037 H74.955 Q77.194 -49.037 78.639 -47.593 Q80.084 -46.148 80.084 -43.909 V-26.551 Q80.084 -24.312 78.639 -22.867 Q77.194 -21.422 74.955 -21.422 H19.725 Z M19.725 -23.395 H74.955 Q76.336 -23.395 77.223 -24.283 Q78.111 -25.17 78.111 -26.551 V-43.909 Q78.111 -45.29 77.223 -46.177 Q76.336 -47.065 74.955 -47.065 H19.725 Q18.344 -47.065 17.457 -46.177 Q16.569 -45.29 16.569 -43.909 V-26.551 Q16.569 -25.17 17.457 -24.283 Q18.344 -23.395 19.725 -23.395 Z"/></g></g></svg>