<svg xmlns="http://www.w3.org/2000/svg" version="1.1" width="3300" height="2000"><g id="Notes"><style>
    text {
      font-family: monospace;
      text-anchor: middle;
    }
    text.emphasis {
      font-weight:bold;
    }
    text.lanchor {
      text-anchor: start;
    }
  </style><rect height="2200" id="artboard" fill="white" width="3300" x="0" y="0"/><line id="" style="fill:none;stroke:black;stroke-width:0.5;" x1="263" x2="3036" y1="292" y2="292"/><text class="lanchor emphasis" transform="matrix(1 0 0 1 263 322)">Weight/Scale Variations</text><text transform="matrix(1 0 0 1 559.711 322)">Ultralight</text><text transform="matrix(1 0 0 1 856.422 322)">Thin</text><text transform="matrix(1 0 0 1 1153.13 322)">Light</text><text transform="matrix(1 0 0 1 1449.84 322)">Regular</text><text transform="matrix(1 0 0 1 1746.56 322)">Medium</text><text transform="matrix(1 0 0 1 2043.27 322)">Semibold</text><text transform="matrix(1 0 0 1 2339.98 322)">Bold</text><text transform="matrix(1 0 0 1 2636.69 322)">Heavy</text><text transform="matrix(1 0 0 1 2933.4 322)">Black</text><text id="template-version" style="text-anchor: end;" transform="matrix(1 0 0 1 3036 1933)">Template v.1.0</text><text class="lanchor" transform="matrix(1 0 0 1 263 726)">Small</text><text class="lanchor" transform="matrix(1 0 0 1 263 1156)">Medium</text><text class="lanchor" transform="matrix(1 0 0 1 263 1586)">Large</text></g><g id="Guides"><g id="H-reference" style="fill:#27AAE1;stroke:none;" transform="matrix(1 0 0 1 339 696)"><path d="M 54.9316 0 L 57.666 0 L 30.5664 -70.459 L 28.0762 -70.459 L 0.976562 0 L 3.66211 0 L 12.9395 -24.4629 L 45.7031 -24.4629 Z M 29.1992 -67.0898 L 29.4434 -67.0898 L 44.8242 -26.709 L 13.8184 -26.709 Z"/></g><line id="Baseline-S" style="fill:none;stroke:#27AAE1;opacity:1;stroke-width:0.577;" x1="263" x2="3036" y1="696" y2="696"/><line id="Capline-S" style="fill:none;stroke:#27AAE1;opacity:1;stroke-width:0.577;" x1="263" x2="3036" y1="625.541" y2="625.541"/><g id="H-reference" style="fill:#27AAE1;stroke:none;" transform="matrix(1 0 0 1 339 1126)"><path d="M 54.9316 0 L 57.666 0 L 30.5664 -70.459 L 28.0762 -70.459 L 0.976562 0 L 3.66211 0 L 12.9395 -24.4629 L 45.7031 -24.4629 Z M 29.1992 -67.0898 L 29.4434 -67.0898 L 44.8242 -26.709 L 13.8184 -26.709 Z"/></g><line id="Baseline-M" style="fill:none;stroke:#27AAE1;opacity:1;stroke-width:0.577;" x1="263" x2="3036" y1="1126" y2="1126"/><line id="Capline-M" style="fill:none;stroke:#27AAE1;opacity:1;stroke-width:0.577;" x1="263" x2="3036" y1="1055.54" y2="1055.54"/><g id="H-reference" style="fill:#27AAE1;stroke:none;" transform="matrix(1 0 0 1 339 1556)"><path d="M 54.9316 0 L 57.666 0 L 30.5664 -70.459 L 28.0762 -70.459 L 0.976562 0 L 3.66211 0 L 12.9395 -24.4629 L 45.7031 -24.4629 Z M 29.1992 -67.0898 L 29.4434 -67.0898 L 44.8242 -26.709 L 13.8184 -26.709 Z"/></g><line id="Baseline-L" style="fill:none;stroke:#27AAE1;opacity:1;stroke-width:0.577;" x1="263" x2="3036" y1="1556" y2="1556"/><line id="Capline-L" style="fill:none;stroke:#27AAE1;opacity:1;stroke-width:0.577;" x1="263" x2="3036" y1="1485.54" y2="1485.54"/><rect height="119.336" id="left-margin" style="fill:darkred;stroke:none;opacity:0.4;" width="12.4512" x="1394.06" y="1030.79"/><rect height="119.336" id="right-margin" style="fill:darkgreen;stroke:none;opacity:0.4;" width="12.4512" x="1502.5112" y="1030.79"/><rect x="1406.5112" y="1045" width="96" height="96" fill="none" stroke="blue" stroke-dasharray="5"/><rect x="1394.06" y="1030.79" width="120.9024" height="119.336" fill="none" stroke="blue"/></g><g id="Symbols"><g id="Bold-L" transform="matrix(1 0 0 1 2266 1556)"><path d="M87.398 -12.655 Q91.59 -16.847 91.348 -22.491 Q91.106 -28.135 86.43 -31.36 Q76.433 -37.649 66.435 -44.502 Q56.438 -51.355 46.44 -58.127 Q43.86 -59.901 41.764 -57.886 Q39.668 -55.87 41.28 -53.129 Q48.214 -43.131 54.986 -33.214 Q61.759 -23.297 68.37 -13.3 Q71.756 -8.624 77.319 -8.543 Q82.883 -8.462 87.398 -12.655 Z M30.96 19.756 Q26.929 19.756 23.704 17.902 Q20.479 16.048 18.383 12.661 Q13.706 4.76 11.61 -4.028 Q9.514 -12.816 9.514 -22.007 Q9.353 -35.875 14.754 -48.291 Q20.156 -60.707 29.589 -70.06 Q39.023 -79.412 51.519 -84.814 Q64.016 -90.216 77.561 -90.216 Q91.59 -90.216 103.926 -84.895 Q116.261 -79.574 125.453 -70.302 Q134.644 -61.03 139.965 -48.533 Q145.286 -36.036 145.286 -22.007 Q145.286 -12.655 142.868 -3.867 Q140.449 4.921 136.095 12.661 Q134.321 16.37 130.935 18.063 Q127.549 19.756 123.679 19.756 H30.96 Z"/></g><g id="Semibold-L" transform="matrix(1 0 0 1 1970.27 1556)"><path d="M87.538 -12.445 Q91.73 -16.638 91.524 -22.386 Q91.316 -28.135 86.57 -31.36 Q76.223 -37.929 65.838 -44.992 Q55.455 -52.056 45.037 -59.11 Q42.668 -60.672 40.782 -58.832 Q38.897 -56.992 40.369 -54.532 Q47.443 -44.113 54.425 -33.776 Q61.409 -23.438 68.301 -13.09 Q71.547 -8.274 77.284 -8.193 Q83.023 -8.113 87.538 -12.445 Z M30.539 19.406 Q26.788 19.406 23.739 17.657 Q20.688 15.907 18.732 12.731 Q14.196 4.829 12.066 -3.923 Q9.935 -12.676 9.935 -21.938 Q9.773 -35.665 15.175 -48.011 Q20.577 -60.358 29.939 -69.675 Q39.303 -78.992 51.695 -84.429 Q64.086 -89.866 77.631 -89.866 Q91.59 -89.866 103.856 -84.545 Q116.121 -79.224 125.243 -69.986 Q134.363 -60.749 139.649 -48.323 Q144.936 -35.896 144.936 -21.938 Q144.936 -12.586 142.518 -3.831 Q140.099 4.921 135.814 12.731 Q134.112 16.089 130.935 17.747 Q127.758 19.406 124.169 19.406 H30.539 Z"/></g><g id="Medium-L" transform="matrix(1 0 0 1 1674.31 1556)"><path d="M87.643 -12.287 Q91.835 -16.48 91.654 -22.307 Q91.474 -28.135 86.675 -31.36 Q76.065 -38.139 65.392 -45.361 Q54.72 -52.582 43.986 -59.845 Q41.775 -61.251 40.046 -59.542 Q38.318 -57.832 39.685 -55.583 Q46.864 -44.849 54.004 -34.196 Q61.146 -23.543 68.247 -12.932 Q71.389 -8.011 77.258 -7.93 Q83.128 -7.85 87.643 -12.287 Z M30.223 19.144 Q26.684 19.144 23.765 17.473 Q20.846 15.802 18.995 12.784 Q14.566 4.883 12.408 -3.844 Q10.251 -12.571 10.251 -21.885 Q10.089 -35.507 15.491 -47.801 Q20.893 -60.095 30.202 -69.386 Q39.513 -78.676 51.826 -84.14 Q64.139 -89.603 77.684 -89.603 Q91.59 -89.603 103.803 -84.282 Q116.016 -78.961 125.085 -69.75 Q134.154 -60.54 139.414 -48.165 Q144.674 -35.791 144.674 -21.885 Q144.674 -12.532 142.255 -3.806 Q139.836 4.921 135.605 12.784 Q133.954 15.88 130.935 17.512 Q127.916 19.144 124.538 19.144 H30.223 Z"/></g><g id="Regular-L" transform="matrix(1 0 0 1 1378.56 1556)"><path d="M87.72 -12.171 Q91.913 -16.364 91.751 -22.249 Q91.59 -28.135 86.752 -31.36 Q75.949 -38.294 65.064 -45.631 Q54.18 -52.967 43.215 -60.385 Q41.119 -61.675 39.506 -60.062 Q37.894 -58.45 39.184 -56.354 Q46.44 -45.389 53.696 -34.504 Q60.953 -23.62 68.209 -12.816 Q71.273 -7.817 77.239 -7.737 Q83.205 -7.656 87.72 -12.171 Z M29.992 18.95 Q26.606 18.95 23.784 17.338 Q20.963 15.725 19.189 12.823 Q14.835 4.921 12.658 -3.786 Q10.481 -12.494 10.481 -21.846 Q10.32 -35.391 15.722 -47.646 Q21.124 -59.901 30.396 -69.173 Q39.668 -78.445 51.922 -83.927 Q64.177 -89.41 77.722 -89.41 Q91.59 -89.41 103.764 -84.089 Q115.939 -78.767 124.969 -69.576 Q133.999 -60.385 139.239 -48.049 Q144.48 -35.714 144.48 -21.846 Q144.48 -12.494 142.061 -3.786 Q139.643 4.921 135.45 12.823 Q133.838 15.725 130.935 17.338 Q128.032 18.95 124.808 18.95 H29.992 Z"/></g><g id="Light-L" transform="matrix(1 0 0 1 1082.77 1556)"><path d="M86.728 -13.163 Q90.361 -16.798 90.2 -22.032 Q90.039 -27.266 85.761 -30.12 Q75.825 -36.618 65.938 -43.492 Q56.054 -50.365 46.026 -57.35 Q44.034 -58.635 42.452 -57.023 Q40.87 -55.41 42.168 -53.422 Q48.983 -43.404 55.813 -33.522 Q62.646 -23.641 69.449 -13.808 Q72.264 -9.369 77.51 -9.288 Q82.754 -9.207 86.728 -13.163 Z M30.489 15.725 Q27.795 15.725 25.589 14.485 Q23.381 13.243 21.917 10.962 Q17.812 3.462 15.759 -4.839 Q13.706 -13.139 13.706 -22.032 Q13.545 -34.957 18.637 -46.622 Q23.73 -58.289 32.535 -67.064 Q41.343 -75.839 53.038 -81.012 Q64.735 -86.185 77.661 -86.185 Q90.872 -86.185 102.445 -81.112 Q114.017 -76.039 122.611 -67.343 Q131.208 -58.648 136.23 -46.885 Q141.255 -35.12 141.255 -21.908 Q141.255 -13.027 138.96 -4.797 Q136.666 3.433 132.722 10.713 Q131.475 13.058 129.158 14.391 Q126.841 15.725 124.311 15.725 H30.489 Z"/></g><g id="Thin-L" transform="matrix(1 0 0 1 787.282 1556)"><path d="M85.735 -14.156 Q88.812 -17.231 88.65 -21.816 Q88.489 -26.398 84.768 -28.88 Q75.7 -34.945 66.814 -41.354 Q57.927 -47.764 48.835 -54.316 Q46.948 -55.597 45.398 -53.985 Q43.847 -52.372 45.152 -50.491 Q51.526 -41.419 57.932 -32.54 Q64.337 -23.662 70.689 -14.801 Q73.257 -10.918 77.781 -10.838 Q82.304 -10.757 85.735 -14.156 Z M30.984 12.5 Q28.985 12.5 27.392 11.632 Q25.8 10.763 24.647 9.101 Q20.788 2.001 18.86 -5.891 Q16.931 -13.784 16.931 -22.219 Q16.77 -34.524 21.551 -45.6 Q26.334 -56.676 34.675 -64.956 Q43.017 -73.235 54.156 -78.098 Q65.293 -82.96 77.598 -82.96 Q90.156 -82.96 101.125 -78.135 Q112.093 -73.309 120.255 -65.111 Q128.416 -56.912 133.223 -45.721 Q138.03 -34.529 138.03 -21.97 Q138.03 -13.563 135.86 -5.808 Q133.689 1.945 129.992 8.606 Q129.113 10.391 127.383 11.445 Q125.651 12.5 123.816 12.5 H30.984 Z"/></g><g id="Ultralight-L" transform="matrix(1 0 0 1 491.205 1556)"><path d="M85.14 -14.751 Q87.881 -17.492 87.72 -21.685 Q87.559 -25.877 84.172 -28.135 Q75.626 -33.94 67.338 -40.071 Q59.051 -46.201 50.521 -52.495 Q48.697 -53.774 47.166 -52.161 Q45.634 -50.549 46.943 -48.731 Q53.051 -40.229 59.203 -31.952 Q65.353 -23.673 71.434 -15.396 Q73.853 -11.849 77.942 -11.768 Q82.033 -11.687 85.14 -14.751 Z M31.283 10.565 Q29.697 10.565 28.474 9.92 Q27.251 9.275 26.284 7.985 Q22.575 1.125 20.721 -6.523 Q18.866 -14.171 18.866 -22.33 Q18.705 -34.262 23.301 -44.986 Q27.896 -55.709 35.959 -63.691 Q44.021 -71.672 54.825 -76.349 Q65.629 -81.025 77.561 -81.025 Q89.726 -81.025 100.333 -76.349 Q110.94 -71.672 118.841 -63.771 Q126.743 -55.87 131.419 -45.021 Q136.095 -34.172 136.095 -22.007 Q136.095 -13.884 133.999 -6.416 Q131.903 1.051 128.355 7.34 Q127.695 8.791 126.317 9.678 Q124.936 10.565 123.517 10.565 H31.283 Z"/></g><g id="Bold-M" transform="matrix(1 0 0 1 2281.8 1126)"><path d="M67.875 -17.23 Q71.125 -20.605 70.938 -25.105 Q70.75 -29.605 67.125 -32.105 Q60.375 -36.73 53.562 -41.542 Q46.75 -46.355 39.75 -51.105 Q36.875 -53.23 34.312 -50.73 Q31.75 -48.23 33.75 -45.23 Q38.625 -38.23 43.312 -31.417 Q48 -24.605 52.75 -17.855 Q55.5 -14.105 60 -13.98 Q64.5 -13.855 67.875 -17.23 Z M24.75 10.52 Q20.75 10.52 17.25 8.645 Q13.75 6.77 11.75 3.27 Q8 -3.355 6.125 -10.667 Q4.25 -17.98 4.25 -25.605 Q4.25 -37.105 8.688 -47.167 Q13.125 -57.23 20.75 -64.73 Q28.375 -72.23 38.5 -76.542 Q48.625 -80.855 59.875 -80.855 Q71.5 -80.855 81.625 -76.48 Q91.75 -72.105 99.312 -64.48 Q106.875 -56.855 111.25 -46.667 Q115.625 -36.48 115.625 -24.855 Q115.625 -17.355 113.75 -10.23 Q111.875 -3.105 108 3.27 Q106.125 6.895 102.625 8.708 Q99.125 10.52 95.125 10.52 H24.75 Z"/></g><g id="Semibold-M" transform="matrix(1 0 0 1 1985.97 1126)"><path d="M67.984 -17.067 Q71.234 -20.442 71.074 -25.024 Q70.912 -29.605 67.234 -32.105 Q60.049 -37.001 52.829 -42.031 Q45.609 -47.061 38.229 -52.084 Q35.625 -53.991 33.334 -51.709 Q31.044 -49.425 32.826 -46.751 Q37.864 -39.371 42.796 -32.124 Q47.729 -24.876 52.696 -17.692 Q55.337 -13.834 59.946 -13.709 Q64.554 -13.584 67.984 -17.067 Z M24.479 9.759 Q20.75 9.759 17.521 8.02 Q14.294 6.281 12.456 3.053 Q8.761 -3.517 6.886 -10.749 Q5.011 -17.98 5.011 -25.551 Q5.011 -36.779 9.421 -46.732 Q13.831 -56.686 21.348 -64.105 Q28.864 -71.524 38.854 -75.836 Q48.843 -80.149 59.929 -80.149 Q71.391 -80.149 81.38 -75.801 Q91.37 -71.452 98.824 -63.936 Q106.278 -56.42 110.597 -46.341 Q114.919 -36.262 114.919 -24.801 Q114.919 -17.355 113.044 -10.311 Q111.169 -3.267 107.403 3.053 Q105.636 6.351 102.407 8.055 Q99.179 9.759 95.505 9.759 H24.479 Z"/></g><g id="Medium-M" transform="matrix(1 0 0 1 1689.91 1126)"><path d="M68.065 -16.945 Q71.315 -20.32 71.175 -24.962 Q71.035 -29.605 67.315 -32.105 Q59.804 -37.205 52.279 -42.399 Q44.752 -47.591 37.087 -52.817 Q34.688 -54.561 32.6 -52.442 Q30.514 -50.322 32.134 -47.892 Q37.294 -40.227 42.409 -32.654 Q47.525 -25.08 52.655 -17.57 Q55.215 -13.63 59.905 -13.505 Q64.595 -13.38 68.065 -16.945 Z M24.275 9.189 Q20.75 9.189 17.725 7.551 Q14.701 5.914 12.986 2.89 Q9.331 -3.64 7.456 -10.81 Q5.581 -17.98 5.581 -25.51 Q5.581 -36.534 9.971 -46.406 Q14.361 -56.279 21.796 -63.636 Q29.231 -70.994 39.119 -75.306 Q49.005 -79.619 59.97 -79.619 Q71.31 -79.619 81.198 -75.291 Q91.084 -70.964 98.456 -63.529 Q105.829 -56.094 110.109 -46.096 Q114.389 -36.1 114.389 -24.76 Q114.389 -17.355 112.514 -10.372 Q110.639 -3.39 106.954 2.89 Q105.269 5.944 102.245 7.566 Q99.22 9.189 95.791 9.189 H24.275 Z"/></g><g id="Regular-M" transform="matrix(1 0 0 1 1394.06 1126)"><path d="M68.125 -16.855 Q71.375 -20.23 71.25 -24.917 Q71.125 -29.605 67.375 -32.105 Q59.625 -37.355 51.875 -42.667 Q44.125 -47.98 36.25 -53.355 Q34 -54.98 32.062 -52.98 Q30.125 -50.98 31.625 -48.73 Q36.875 -40.855 42.125 -33.042 Q47.375 -25.23 52.625 -17.48 Q55.125 -13.48 59.875 -13.355 Q64.625 -13.23 68.125 -16.855 Z M24.125 8.77 Q20.75 8.77 17.875 7.208 Q15 5.645 13.375 2.77 Q9.75 -3.73 7.875 -10.855 Q6 -17.98 6 -25.48 Q6 -36.355 10.375 -46.167 Q14.75 -55.98 22.125 -63.292 Q29.5 -70.605 39.312 -74.917 Q49.125 -79.23 60 -79.23 Q71.25 -79.23 81.062 -74.917 Q90.875 -70.605 98.188 -63.23 Q105.5 -55.855 109.75 -45.917 Q114 -35.98 114 -24.73 Q114 -17.355 112.125 -10.417 Q110.25 -3.48 106.625 2.77 Q105 5.645 102.125 7.208 Q99.25 8.77 96 8.77 H24.125 Z"/></g><g id="Light-M" transform="matrix(1 0 0 1 1098.18 1126)"><path d="M67.356 -17.624 Q70.172 -20.566 70.047 -24.749 Q69.922 -28.931 66.606 -31.144 Q59.432 -36.105 52.265 -41.177 Q45.096 -46.251 37.804 -51.387 Q35.682 -52.96 33.89 -51.081 Q32.096 -49.201 33.554 -47.082 Q38.606 -39.797 43.599 -32.594 Q48.591 -25.39 53.586 -18.249 Q55.894 -14.682 60.085 -14.557 Q64.275 -14.432 67.356 -17.624 Z M24.078 6.27 Q21.384 6.27 19.081 5.02 Q16.779 3.77 15.443 1.52 Q12.057 -4.67 10.303 -11.455 Q8.549 -18.24 8.549 -25.384 Q8.5 -35.826 12.635 -45.23 Q16.77 -54.634 23.784 -61.586 Q30.799 -68.537 40.178 -72.634 Q49.557 -76.73 60 -76.73 Q70.743 -76.73 80.111 -72.61 Q89.481 -68.49 96.433 -61.475 Q103.385 -54.461 107.442 -44.966 Q111.5 -35.472 111.5 -24.73 Q111.5 -17.721 109.745 -11.13 Q107.99 -4.537 104.51 1.328 Q103.218 3.674 100.916 4.971 Q98.615 6.27 96 6.27 H24.078 Z"/></g><g id="Thin-M" transform="matrix(1 0 0 1 802.565 1126)"><path d="M66.586 -18.394 Q68.971 -20.902 68.846 -24.581 Q68.721 -28.259 65.836 -30.182 Q59.24 -34.855 52.654 -39.689 Q46.068 -44.522 39.356 -49.419 Q37.365 -50.941 35.716 -49.182 Q34.068 -47.422 35.483 -45.435 Q40.336 -38.74 45.071 -32.145 Q49.806 -25.55 54.547 -19.019 Q56.664 -15.884 60.295 -15.759 Q63.926 -15.634 66.586 -18.394 Z M24.029 3.77 Q22.016 3.77 20.288 2.833 Q18.558 1.895 17.51 0.27 Q14.365 -5.609 12.731 -12.054 Q11.096 -18.5 11.096 -25.287 Q11 -35.297 14.894 -44.292 Q18.789 -53.287 25.442 -59.879 Q32.096 -66.47 41.044 -70.35 Q49.99 -74.23 60 -74.23 Q70.235 -74.23 79.161 -70.302 Q88.086 -66.374 94.677 -59.72 Q101.269 -53.066 105.135 -44.016 Q109 -34.965 109 -24.73 Q109 -18.087 107.365 -11.841 Q105.731 -5.595 102.394 -0.115 Q101.434 1.703 99.707 2.736 Q97.981 3.77 96 3.77 H24.029 Z"/></g><g id="Ultralight-M" transform="matrix(1 0 0 1 506.415 1126)"><path d="M66.125 -18.855 Q68.25 -21.105 68.125 -24.48 Q68 -27.855 65.375 -29.605 Q59.125 -34.105 52.888 -38.795 Q46.651 -43.485 40.289 -48.239 Q38.375 -49.73 36.812 -48.042 Q35.25 -46.355 36.64 -44.446 Q41.375 -38.105 45.956 -31.876 Q50.536 -25.646 55.125 -19.48 Q57.125 -16.605 60.42 -16.48 Q63.716 -16.355 66.125 -18.855 Z M24 2.27 Q22.396 2.27 21.01 1.52 Q19.625 0.77 18.75 -0.48 Q15.75 -6.172 14.188 -12.414 Q12.625 -18.655 12.625 -25.23 Q12.5 -34.98 16.25 -43.73 Q20 -52.48 26.438 -58.855 Q32.875 -65.23 41.562 -68.98 Q50.25 -72.73 60 -72.73 Q69.93 -72.73 78.59 -68.917 Q87.25 -65.105 93.625 -58.667 Q100 -52.23 103.75 -43.445 Q107.5 -34.66 107.5 -24.73 Q107.5 -18.307 105.938 -12.269 Q104.375 -6.23 101.125 -0.98 Q100.364 0.52 98.983 1.395 Q97.6 2.27 96 2.27 H24 Z"/></g><g id="Bold-S" transform="matrix(1 0 0 1 2294.23 696)"><path d="M52.468 -22.803 Q54.737 -25.17 54.589 -28.474 Q54.441 -31.778 51.877 -33.553 Q47.143 -36.808 42.212 -40.358 Q37.28 -43.909 32.25 -47.361 Q30.179 -48.939 28.256 -47.114 Q26.333 -45.29 27.812 -43.021 Q31.363 -37.893 34.765 -33.011 Q38.168 -28.129 41.62 -23.395 Q43.592 -20.633 46.798 -20.535 Q50.003 -20.436 52.468 -22.803 Z M18.246 -2.289 Q15.386 -2.289 12.871 -3.719 Q10.356 -5.149 8.975 -7.714 Q6.707 -11.659 5.868 -16.294 Q5.03 -20.929 5.03 -25.663 Q4.931 -34.638 8.186 -42.38 Q11.441 -50.122 17.161 -55.843 Q22.881 -61.563 30.672 -64.817 Q38.464 -68.072 47.143 -68.072 Q56.019 -68.072 63.761 -64.768 Q71.503 -61.464 77.223 -55.695 Q82.944 -49.925 86.297 -42.183 Q89.65 -34.441 89.65 -25.663 Q89.65 -20.929 88.763 -16.294 Q87.875 -11.659 85.409 -7.714 Q84.029 -5.051 81.563 -3.67 Q79.097 -2.289 76.237 -2.289 H18.246 Z"/></g><g id="Semibold-S" transform="matrix(1 0 0 1 1998.1 696)"><path d="M52.554 -22.675 Q54.823 -25.042 54.696 -28.41 Q54.569 -31.778 51.963 -33.553 Q46.885 -37.022 41.633 -40.744 Q36.38 -44.466 31.05 -48.133 Q29.193 -49.54 27.484 -47.887 Q25.776 -46.233 27.083 -44.222 Q30.762 -38.793 34.358 -33.568 Q37.954 -28.343 41.577 -23.267 Q43.464 -20.419 46.755 -20.321 Q50.045 -20.222 52.554 -22.675 Z M18.032 -2.89 Q15.386 -2.89 13.085 -4.212 Q10.785 -5.535 9.532 -7.885 Q7.307 -11.787 6.469 -16.358 Q5.631 -20.929 5.631 -25.621 Q5.532 -34.381 8.765 -42.037 Q11.998 -49.693 17.632 -55.349 Q23.267 -61.006 30.951 -64.26 Q38.635 -67.515 47.185 -67.515 Q55.933 -67.515 63.568 -64.233 Q71.203 -60.949 76.838 -55.266 Q82.472 -49.582 85.782 -41.926 Q89.093 -34.269 89.093 -25.621 Q89.093 -20.929 88.205 -16.358 Q87.318 -11.787 84.938 -7.885 Q83.643 -5.48 81.391 -4.185 Q79.14 -2.89 76.537 -2.89 H18.032 Z"/></g><g id="Medium-S" transform="matrix(1 0 0 1 1701.85 696)"><path d="M52.618 -22.578 Q54.887 -24.945 54.776 -28.362 Q54.666 -31.778 52.027 -33.553 Q46.692 -37.183 41.199 -41.034 Q35.704 -44.884 30.15 -48.712 Q28.453 -49.989 26.905 -48.465 Q25.357 -46.941 26.537 -45.122 Q30.312 -39.469 34.052 -33.986 Q37.793 -28.504 41.545 -23.17 Q43.367 -20.259 46.723 -20.16 Q50.078 -20.061 52.618 -22.578 Z M17.871 -3.34 Q15.386 -3.34 13.245 -4.582 Q11.106 -5.825 9.95 -8.013 Q7.757 -11.883 6.919 -16.406 Q6.08 -20.929 6.08 -25.588 Q5.982 -34.188 9.199 -41.78 Q12.416 -49.372 17.986 -54.98 Q23.557 -60.587 31.161 -63.842 Q38.764 -67.097 47.218 -67.097 Q55.869 -67.097 63.424 -63.83 Q70.977 -60.564 76.548 -54.944 Q82.118 -49.324 85.396 -41.732 Q88.675 -34.141 88.675 -25.588 Q88.675 -20.929 87.787 -16.406 Q86.899 -11.883 84.584 -8.013 Q83.353 -5.801 81.263 -4.57 Q79.172 -3.34 76.763 -3.34 H17.871 Z"/></g><g id="Regular-S" transform="matrix(1 0 0 1 1405.73 696)"><path d="M52.666 -22.507 Q54.934 -24.874 54.836 -28.326 Q54.737 -31.778 52.074 -33.553 Q46.551 -37.301 40.88 -41.246 Q35.209 -45.191 29.489 -49.136 Q27.911 -50.32 26.481 -48.89 Q25.051 -47.459 26.136 -45.783 Q29.982 -39.964 33.828 -34.293 Q37.675 -28.622 41.521 -23.099 Q43.296 -20.14 46.699 -20.042 Q50.102 -19.943 52.666 -22.507 Z M17.753 -3.67 Q15.386 -3.67 13.364 -4.853 Q11.342 -6.037 10.257 -8.108 Q8.087 -11.954 7.249 -16.442 Q6.411 -20.929 6.411 -25.565 Q6.312 -34.046 9.517 -41.591 Q12.723 -49.136 18.246 -54.708 Q23.769 -60.281 31.313 -63.535 Q38.858 -66.79 47.241 -66.79 Q55.822 -66.79 63.317 -63.535 Q70.813 -60.281 76.336 -54.708 Q81.859 -49.136 85.113 -41.591 Q88.368 -34.046 88.368 -25.565 Q88.368 -20.929 87.48 -16.442 Q86.593 -11.954 84.324 -8.108 Q83.141 -6.037 81.168 -4.853 Q79.196 -3.67 76.928 -3.67 H17.753 Z"/></g><g id="Light-S" transform="matrix(1 0 0 1 1109.75 696)"><path d="M52.059 -23.114 Q53.985 -25.14 53.887 -28.193 Q53.788 -31.247 51.467 -32.795 Q46.399 -36.315 41.188 -40.071 Q35.975 -43.827 30.715 -47.584 Q29.238 -48.726 27.923 -47.391 Q26.606 -46.056 27.657 -44.483 Q31.348 -39.13 34.991 -33.939 Q38.634 -28.748 42.28 -23.706 Q43.903 -21.089 46.865 -20.991 Q49.825 -20.892 52.059 -23.114 Z M17.715 -5.642 Q15.886 -5.642 14.315 -6.579 Q12.745 -7.516 11.888 -9.094 Q9.908 -12.696 9.164 -16.915 Q8.422 -21.135 8.422 -25.489 Q8.284 -33.629 11.3 -40.852 Q14.316 -48.074 19.554 -53.362 Q24.793 -58.649 31.996 -61.733 Q39.199 -64.817 47.241 -64.817 Q55.421 -64.817 62.567 -61.715 Q69.713 -58.612 74.951 -53.324 Q80.19 -48.036 83.293 -40.841 Q86.395 -33.646 86.395 -25.565 Q86.395 -21.218 85.603 -17.004 Q84.81 -12.789 82.656 -9.246 Q81.734 -7.592 80.215 -6.618 Q78.695 -5.642 76.928 -5.642 H17.715 Z"/></g><g id="Thin-S" transform="matrix(1 0 0 1 814.015 696)"><path d="M51.452 -23.721 Q53.038 -25.405 52.939 -28.061 Q52.84 -30.716 50.86 -32.037 Q46.247 -35.329 41.494 -38.896 Q36.742 -42.463 31.94 -46.03 Q30.566 -47.133 29.364 -45.893 Q28.161 -44.653 29.179 -43.183 Q32.713 -38.295 36.153 -33.585 Q39.593 -28.875 43.038 -24.313 Q44.51 -22.037 47.03 -21.938 Q49.55 -21.84 51.452 -23.721 Z M17.677 -7.615 Q16.385 -7.615 15.267 -8.305 Q14.149 -8.996 13.52 -10.081 Q11.728 -13.437 11.081 -17.388 Q10.432 -21.34 10.432 -25.413 Q10.257 -33.212 13.083 -40.112 Q15.909 -47.012 20.863 -52.015 Q25.817 -57.018 32.679 -59.932 Q39.541 -62.845 47.241 -62.845 Q55.021 -62.845 61.817 -59.894 Q68.612 -56.942 73.566 -51.939 Q78.52 -46.936 81.472 -40.091 Q84.423 -33.246 84.423 -25.565 Q84.423 -21.507 83.725 -17.565 Q83.027 -13.623 80.986 -10.384 Q80.327 -9.148 79.261 -8.381 Q78.195 -7.615 76.928 -7.615 H17.677 Z"/></g><g id="Ultralight-S" transform="matrix(1 0 0 1 517.792 696)"><path d="M51.088 -24.085 Q52.468 -25.565 52.37 -27.981 Q52.271 -30.397 50.496 -31.581 Q46.157 -34.737 41.679 -38.191 Q37.202 -41.645 32.675 -45.099 Q31.363 -46.177 30.229 -44.994 Q29.094 -43.81 30.092 -42.403 Q33.532 -37.794 36.851 -33.373 Q40.169 -28.951 43.494 -24.677 Q44.874 -22.606 47.129 -22.507 Q49.384 -22.409 51.088 -24.085 Z M17.654 -8.798 Q16.684 -8.798 15.837 -9.341 Q14.991 -9.883 14.498 -10.672 Q12.821 -13.882 12.229 -17.672 Q11.638 -21.462 11.638 -25.367 Q11.441 -32.962 14.153 -39.668 Q16.865 -46.375 21.648 -51.207 Q26.431 -56.04 33.089 -58.851 Q39.746 -61.661 47.241 -61.661 Q54.78 -61.661 61.366 -58.801 Q67.953 -55.941 72.736 -51.109 Q77.519 -46.276 80.379 -39.641 Q83.24 -33.005 83.24 -25.565 Q83.24 -21.681 82.598 -17.903 Q81.957 -14.124 79.985 -11.067 Q79.483 -10.081 78.689 -9.44 Q77.894 -8.798 76.928 -8.798 H17.654 Z"/></g></g></svg>