<svg xmlns="http://www.w3.org/2000/svg" version="1.1" width="3300" height="2000"><g id="Notes"><style>
    text {
      font-family: monospace;
      text-anchor: middle;
    }
    text.emphasis {
      font-weight:bold;
    }
    text.lanchor {
      text-anchor: start;
    }
  </style><rect height="2200" id="artboard" fill="white" width="3300" x="0" y="0"/><line id="" style="fill:none;stroke:black;stroke-width:0.5;" x1="263" x2="3036" y1="292" y2="292"/><text class="lanchor emphasis" transform="matrix(1 0 0 1 263 322)">Weight/Scale Variations</text><text transform="matrix(1 0 0 1 559.711 322)">Ultralight</text><text transform="matrix(1 0 0 1 856.422 322)">Thin</text><text transform="matrix(1 0 0 1 1153.13 322)">Light</text><text transform="matrix(1 0 0 1 1449.84 322)">Regular</text><text transform="matrix(1 0 0 1 1746.56 322)">Medium</text><text transform="matrix(1 0 0 1 2043.27 322)">Semibold</text><text transform="matrix(1 0 0 1 2339.98 322)">Bold</text><text transform="matrix(1 0 0 1 2636.69 322)">Heavy</text><text transform="matrix(1 0 0 1 2933.4 322)">Black</text><text id="template-version" style="text-anchor: end;" transform="matrix(1 0 0 1 3036 1933)">Template v.1.0</text><text class="lanchor" transform="matrix(1 0 0 1 263 726)">Small</text><text class="lanchor" transform="matrix(1 0 0 1 263 1156)">Medium</text><text class="lanchor" transform="matrix(1 0 0 1 263 1586)">Large</text></g><g id="Guides"><g id="H-reference" style="fill:#27AAE1;stroke:none;" transform="matrix(1 0 0 1 339 696)"><path d="M 54.9316 0 L 57.666 0 L 30.5664 -70.459 L 28.0762 -70.459 L 0.976562 0 L 3.66211 0 L 12.9395 -24.4629 L 45.7031 -24.4629 Z M 29.1992 -67.0898 L 29.4434 -67.0898 L 44.8242 -26.709 L 13.8184 -26.709 Z"/></g><line id="Baseline-S" style="fill:none;stroke:#27AAE1;opacity:1;stroke-width:0.577;" x1="263" x2="3036" y1="696" y2="696"/><line id="Capline-S" style="fill:none;stroke:#27AAE1;opacity:1;stroke-width:0.577;" x1="263" x2="3036" y1="625.541" y2="625.541"/><g id="H-reference" style="fill:#27AAE1;stroke:none;" transform="matrix(1 0 0 1 339 1126)"><path d="M 54.9316 0 L 57.666 0 L 30.5664 -70.459 L 28.0762 -70.459 L 0.976562 0 L 3.66211 0 L 12.9395 -24.4629 L 45.7031 -24.4629 Z M 29.1992 -67.0898 L 29.4434 -67.0898 L 44.8242 -26.709 L 13.8184 -26.709 Z"/></g><line id="Baseline-M" style="fill:none;stroke:#27AAE1;opacity:1;stroke-width:0.577;" x1="263" x2="3036" y1="1126" y2="1126"/><line id="Capline-M" style="fill:none;stroke:#27AAE1;opacity:1;stroke-width:0.577;" x1="263" x2="3036" y1="1055.54" y2="1055.54"/><g id="H-reference" style="fill:#27AAE1;stroke:none;" transform="matrix(1 0 0 1 339 1556)"><path d="M 54.9316 0 L 57.666 0 L 30.5664 -70.459 L 28.0762 -70.459 L 0.976562 0 L 3.66211 0 L 12.9395 -24.4629 L 45.7031 -24.4629 Z M 29.1992 -67.0898 L 29.4434 -67.0898 L 44.8242 -26.709 L 13.8184 -26.709 Z"/></g><line id="Baseline-L" style="fill:none;stroke:#27AAE1;opacity:1;stroke-width:0.577;" x1="263" x2="3036" y1="1556" y2="1556"/><line id="Capline-L" style="fill:none;stroke:#27AAE1;opacity:1;stroke-width:0.577;" x1="263" x2="3036" y1="1485.54" y2="1485.54"/><rect height="119.336" id="left-margin" style="fill:darkred;stroke:none;opacity:0.4;" width="12.4512" x="1394.06" y="1030.79"/><rect height="119.336" id="right-margin" style="fill:darkgreen;stroke:none;opacity:0.4;" width="12.4512" x="1502.5112" y="1030.79"/><rect x="1406.5112" y="1045" width="96" height="96" fill="none" stroke="blue" stroke-dasharray="5"/><rect x="1394.06" y="1030.79" width="120.9024" height="119.336" fill="none" stroke="blue"/></g><g id="Symbols"><g id="Bold-L" transform="matrix(1 0 0 1 2266 1556)"><path d="M87.236 -12.816 Q91.348 -16.847 91.106 -22.491 Q90.864 -28.135 86.269 -31.118 Q76.513 -37.649 66.596 -44.381 Q56.679 -51.113 46.843 -57.886 Q44.183 -59.74 42.046 -57.603 Q39.909 -55.467 41.683 -52.806 Q48.294 -42.97 55.067 -33.053 Q61.839 -23.136 68.37 -13.461 Q71.676 -8.785 77.319 -8.704 Q82.963 -8.624 87.236 -12.816 Z M31.121 19.595 Q27.171 19.595 23.865 17.741 Q20.559 15.886 18.544 12.581 Q13.867 4.841 11.812 -3.988 Q9.756 -12.816 9.756 -22.088 Q9.514 -35.956 14.916 -48.332 Q20.317 -60.707 29.63 -69.979 Q38.942 -79.251 51.398 -84.653 Q63.855 -90.055 77.561 -90.055 Q91.509 -90.055 103.885 -84.693 Q116.261 -79.332 125.412 -70.141 Q134.563 -60.949 139.844 -48.493 Q145.125 -36.036 145.125 -22.088 Q145.125 -12.816 142.747 -4.068 Q140.368 4.679 135.934 12.581 Q134.241 16.048 130.774 17.821 Q127.307 19.595 123.517 19.595 H31.121 Z"/></g><g id="Semibold-L" transform="matrix(1 0 0 1 1970.27 1556)"><path d="M87.236 -12.886 Q91.348 -16.917 91.106 -22.561 Q90.864 -28.204 86.269 -31.187 Q76.092 -37.929 65.755 -44.871 Q55.417 -51.815 45.161 -58.797 Q42.92 -60.301 41.135 -58.55 Q39.348 -56.799 40.841 -54.559 Q47.664 -44.302 54.646 -33.964 Q61.63 -23.626 68.439 -13.531 Q71.606 -8.854 77.284 -8.74 Q82.963 -8.624 87.236 -12.886 Z M31.191 17.842 Q27.732 17.842 24.812 16.233 Q21.891 14.624 20.085 11.67 Q15.62 4.07 13.564 -4.513 Q11.508 -13.097 11.508 -22.157 Q11.336 -35.606 16.633 -47.63 Q21.93 -59.656 31.033 -68.683 Q40.134 -77.71 52.205 -83.005 Q64.276 -88.302 77.631 -88.302 Q91.229 -88.302 103.255 -83.081 Q115.279 -77.86 124.185 -68.878 Q133.091 -59.898 138.232 -47.827 Q143.372 -35.756 143.372 -22.157 Q143.372 -13.097 141.065 -4.594 Q138.756 3.909 134.462 11.67 Q132.909 14.716 129.863 16.28 Q126.817 17.842 123.517 17.842 H31.191 Z"/></g><g id="Medium-L" transform="matrix(1 0 0 1 1674.31 1556)"><path d="M87.236 -12.939 Q91.348 -16.97 91.106 -22.614 Q90.864 -28.258 86.269 -31.241 Q75.776 -38.139 65.124 -45.24 Q54.47 -52.34 43.899 -59.48 Q41.973 -60.722 40.451 -59.259 Q38.927 -57.799 40.211 -55.873 Q47.19 -45.302 54.33 -34.648 Q61.472 -23.996 68.493 -13.584 Q71.553 -8.908 77.258 -8.766 Q82.963 -8.624 87.236 -12.939 Z M31.244 16.528 Q28.153 16.528 25.521 15.103 Q22.891 13.677 21.243 10.986 Q16.934 3.491 14.879 -4.909 Q12.823 -13.306 12.823 -22.211 Q12.703 -35.343 17.921 -47.104 Q23.139 -58.868 32.084 -67.709 Q41.027 -76.552 52.809 -81.77 Q64.592 -86.988 77.684 -86.988 Q91.019 -86.988 102.781 -81.872 Q114.544 -76.755 123.264 -67.931 Q131.986 -59.11 137.022 -47.327 Q142.058 -35.546 142.058 -22.211 Q142.058 -13.306 139.802 -4.989 Q137.546 3.33 133.357 10.986 Q131.909 13.716 129.179 15.122 Q126.447 16.528 123.517 16.528 H31.244 Z"/></g><g id="Regular-L" transform="matrix(1 0 0 1 1378.56 1556)"><path d="M87.236 -12.977 Q91.348 -17.009 91.106 -22.652 Q90.864 -28.296 86.269 -31.279 Q75.546 -38.294 64.661 -45.51 Q53.777 -52.726 42.973 -59.982 Q41.28 -61.03 39.95 -59.78 Q38.619 -58.531 39.748 -56.837 Q46.843 -46.034 54.099 -35.149 Q61.356 -24.265 68.531 -13.622 Q71.514 -8.946 77.239 -8.785 Q82.963 -8.624 87.236 -12.977 Z M31.283 15.564 Q28.461 15.564 26.042 14.274 Q23.623 12.984 22.091 10.484 Q17.899 3.067 15.843 -5.197 Q13.787 -13.461 13.787 -22.249 Q13.706 -35.149 18.866 -46.719 Q24.026 -58.289 32.855 -66.996 Q41.683 -75.704 53.253 -80.864 Q64.823 -86.024 77.722 -86.024 Q90.864 -86.024 102.434 -80.985 Q114.004 -75.946 122.59 -67.238 Q131.177 -58.531 136.135 -46.961 Q141.094 -35.391 141.094 -22.249 Q141.094 -13.461 138.877 -5.278 Q136.659 2.906 132.548 10.484 Q131.177 12.984 128.678 14.274 Q126.178 15.564 123.517 15.564 H31.283 Z"/></g><g id="Light-L" transform="matrix(1 0 0 1 1082.77 1556)"><path d="M86.306 -13.877 Q89.921 -17.381 89.665 -22.404 Q89.407 -27.427 85.34 -30.059 Q75.421 -36.681 65.516 -43.454 Q55.609 -50.226 45.721 -57.071 Q44.099 -58.115 42.77 -56.85 Q41.441 -55.585 42.609 -53.967 Q49.231 -44.049 56.094 -34.137 Q62.955 -24.223 69.71 -14.522 Q72.464 -10.375 77.503 -10.212 Q82.542 -10.051 86.306 -13.877 Z M31.686 12.618 Q29.494 12.618 27.667 11.684 Q25.839 10.75 24.604 8.841 Q20.627 1.793 18.665 -6.126 Q16.702 -14.045 16.702 -22.411 Q16.622 -34.743 21.503 -45.773 Q26.384 -56.8 34.786 -65.071 Q43.191 -73.34 54.256 -78.224 Q65.321 -83.108 77.661 -83.108 Q90.24 -83.108 101.238 -78.287 Q112.236 -73.464 120.451 -65.206 Q128.665 -56.949 133.421 -45.905 Q138.178 -34.861 138.178 -22.286 Q138.178 -13.916 136.055 -6.157 Q133.931 1.603 130.066 8.583 Q129.063 10.534 127.088 11.576 Q125.111 12.618 123.137 12.618 H31.686 Z"/></g><g id="Thin-L" transform="matrix(1 0 0 1 787.282 1556)"><path d="M85.375 -14.775 Q88.496 -17.754 88.223 -22.156 Q87.949 -26.56 84.411 -28.838 Q75.297 -35.069 66.369 -41.398 Q57.44 -47.728 48.469 -54.161 Q46.917 -55.201 45.59 -53.919 Q44.263 -52.639 45.468 -51.099 Q51.619 -42.064 58.087 -33.124 Q64.555 -24.183 70.889 -15.42 Q73.414 -11.804 77.768 -11.639 Q82.123 -11.476 85.375 -14.775 Z M32.089 9.672 Q30.528 9.672 29.291 9.094 Q28.054 8.519 27.114 7.198 Q23.357 0.519 21.487 -7.055 Q19.616 -14.627 19.616 -22.57 Q19.539 -34.338 24.139 -44.824 Q28.74 -55.312 36.72 -63.144 Q44.7 -70.978 55.26 -75.586 Q65.821 -80.195 77.598 -80.195 Q89.616 -80.195 100.043 -75.589 Q110.469 -70.984 118.311 -63.176 Q126.154 -55.367 130.709 -44.849 Q135.265 -34.33 135.265 -22.325 Q135.265 -14.369 133.233 -7.034 Q131.201 0.301 127.586 6.684 Q126.949 8.085 125.496 8.878 Q124.045 9.672 122.758 9.672 H32.089 Z"/></g><g id="Ultralight-L" transform="matrix(1 0 0 1 491.205 1556)"><path d="M84.817 -15.316 Q87.639 -17.976 87.357 -22.007 Q87.075 -26.039 83.855 -28.106 Q75.223 -34.101 66.882 -40.166 Q58.54 -46.229 50.118 -52.414 Q48.609 -53.451 47.282 -52.161 Q45.956 -50.871 47.185 -49.376 Q53.051 -40.874 59.284 -32.516 Q65.516 -24.157 71.595 -15.961 Q73.983 -12.66 77.927 -12.497 Q81.871 -12.332 84.817 -15.316 Z M32.331 7.904 Q31.149 7.904 30.267 7.542 Q29.385 7.179 28.622 6.211 Q24.994 -0.245 23.18 -7.611 Q21.366 -14.977 21.366 -22.667 Q21.287 -34.095 25.721 -44.257 Q30.154 -54.419 37.879 -61.989 Q45.605 -69.559 55.862 -74.003 Q66.119 -78.445 77.561 -78.445 Q89.242 -78.445 99.325 -73.97 Q109.408 -69.496 117.027 -61.957 Q124.646 -54.419 129.081 -44.215 Q133.515 -34.011 133.515 -22.348 Q133.515 -14.642 131.54 -7.561 Q129.564 -0.481 126.097 5.542 Q125.68 6.614 124.543 7.259 Q123.405 7.904 122.529 7.904 H32.331 Z"/></g><g id="Bold-M" transform="matrix(1 0 0 1 2281.8 1126)"><path d="M67.5 -18.042 Q70.562 -21.167 70.375 -25.417 Q70.188 -29.667 66.75 -31.98 Q60.188 -36.605 53.438 -41.292 Q46.688 -45.98 39.812 -50.667 Q37.188 -52.48 34.906 -50.23 Q32.625 -47.98 34.438 -45.355 Q39.125 -38.542 43.781 -31.824 Q48.438 -25.105 53.125 -18.542 Q55.688 -15.042 60.031 -14.98 Q64.375 -14.917 67.5 -18.042 Z M25.812 7.833 Q22.188 7.833 19 6.176 Q15.812 4.52 14.062 1.395 Q10.438 -4.792 8.75 -11.73 Q7.062 -18.667 7.062 -25.98 Q7 -36.917 11.25 -46.355 Q15.5 -55.792 22.688 -62.886 Q29.875 -69.98 39.5 -74.042 Q49.125 -78.105 59.875 -78.105 Q70.812 -78.105 80.5 -73.98 Q90.188 -69.855 97.375 -62.667 Q104.562 -55.48 108.719 -45.824 Q112.875 -36.167 112.875 -25.23 Q112.875 -18.167 111.094 -11.449 Q109.312 -4.73 105.75 1.395 Q104.062 4.52 100.844 6.176 Q97.625 7.833 94 7.833 H25.812 Z"/></g><g id="Semibold-M" transform="matrix(1 0 0 1 1985.97 1126)"><path d="M67.5 -18.096 Q70.562 -21.221 70.375 -25.471 Q70.188 -29.721 66.75 -32.034 Q59.699 -36.876 52.514 -41.781 Q45.329 -46.686 38.074 -51.591 Q35.884 -53.077 33.983 -51.209 Q32.081 -49.339 33.568 -47.149 Q38.472 -39.955 43.374 -32.802 Q48.275 -25.649 53.179 -18.596 Q55.634 -15.096 59.977 -15.007 Q64.321 -14.917 67.5 -18.096 Z M25.921 5.985 Q22.731 5.985 19.979 4.573 Q17.225 3.161 15.693 0.416 Q12.176 -5.607 10.516 -12.3 Q8.856 -18.994 8.856 -26.034 Q8.848 -36.482 12.989 -45.594 Q17.13 -54.705 24.1 -61.555 Q31.07 -68.404 40.343 -72.357 Q49.614 -76.311 59.929 -76.311 Q70.486 -76.311 79.821 -72.322 Q89.155 -68.334 96.097 -61.39 Q103.041 -54.447 107.061 -45.145 Q111.081 -35.841 111.081 -25.284 Q111.081 -18.439 109.355 -11.965 Q107.627 -5.491 104.229 0.416 Q102.704 3.161 99.92 4.573 Q97.136 5.985 94 5.985 H25.921 Z"/></g><g id="Medium-M" transform="matrix(1 0 0 1 1689.91 1126)"><path d="M67.5 -18.137 Q70.562 -21.262 70.375 -25.512 Q70.188 -29.762 66.75 -32.075 Q59.331 -37.08 51.821 -42.149 Q44.31 -47.216 36.769 -52.284 Q34.905 -53.526 33.29 -51.942 Q31.674 -50.357 32.916 -48.494 Q37.984 -41.015 43.068 -33.536 Q48.153 -26.056 53.22 -18.637 Q55.593 -15.137 59.936 -15.027 Q64.28 -14.917 67.5 -18.137 Z M26.003 4.599 Q23.139 4.599 20.712 3.37 Q18.285 2.143 16.916 -0.317 Q13.481 -6.219 11.841 -12.729 Q10.201 -19.239 10.201 -26.075 Q10.234 -36.156 14.294 -45.024 Q18.354 -53.89 25.16 -60.556 Q31.968 -67.221 40.974 -71.094 Q49.981 -74.966 59.97 -74.966 Q70.241 -74.966 79.311 -71.079 Q88.38 -67.192 95.14 -60.432 Q101.9 -53.672 105.817 -44.635 Q109.736 -35.596 109.736 -25.325 Q109.736 -18.642 108.05 -12.352 Q106.364 -6.061 103.088 -0.317 Q101.685 2.143 99.228 3.37 Q96.769 4.599 94 4.599 H26.003 Z"/></g><g id="Regular-M" transform="matrix(1 0 0 1 1394.06 1126)"><path d="M67.5 -18.167 Q70.562 -21.292 70.375 -25.542 Q70.188 -29.792 66.75 -32.105 Q59.062 -37.23 51.312 -42.417 Q43.562 -47.605 35.812 -52.792 Q34.188 -53.855 32.781 -52.48 Q31.375 -51.105 32.438 -49.48 Q37.625 -41.792 42.844 -34.074 Q48.062 -26.355 53.25 -18.667 Q55.562 -15.167 59.906 -15.042 Q64.25 -14.917 67.5 -18.167 Z M26.062 3.583 Q23.438 3.583 21.25 2.489 Q19.062 1.395 17.812 -0.855 Q14.438 -6.667 12.812 -13.042 Q11.188 -19.417 11.188 -26.105 Q11.25 -35.917 15.25 -44.605 Q19.25 -53.292 25.938 -59.824 Q32.625 -66.355 41.438 -70.167 Q50.25 -73.98 60 -73.98 Q70.062 -73.98 78.938 -70.167 Q87.812 -66.355 94.438 -59.73 Q101.062 -53.105 104.906 -44.261 Q108.75 -35.417 108.75 -25.355 Q108.75 -18.792 107.094 -12.636 Q105.438 -6.48 102.25 -0.855 Q100.938 1.395 98.719 2.489 Q96.5 3.583 94 3.583 H26.062 Z"/></g><g id="Light-M" transform="matrix(1 0 0 1 1098.18 1126)"><path d="M66.779 -18.865 Q69.456 -21.581 69.257 -25.35 Q69.058 -29.119 66.03 -31.159 Q58.87 -36.027 51.686 -40.992 Q44.502 -45.956 37.318 -50.92 Q35.796 -51.931 34.511 -50.665 Q33.226 -49.399 34.27 -47.88 Q39.236 -40.735 44.221 -33.601 Q49.206 -26.467 54.164 -19.365 Q56.299 -16.275 60.111 -16.149 Q63.924 -16.024 66.779 -18.865 Z M25.942 1.299 Q23.95 1.299 22.317 0.505 Q20.684 -0.287 19.711 -1.936 Q16.552 -7.462 15.024 -13.546 Q13.495 -19.629 13.495 -25.989 Q13.51 -35.41 17.294 -43.726 Q21.078 -52.042 27.435 -58.259 Q33.794 -64.475 42.215 -68.097 Q50.636 -71.72 60 -71.72 Q69.627 -71.72 78.082 -68.076 Q86.539 -64.431 92.851 -58.131 Q99.164 -51.831 102.826 -43.395 Q106.49 -34.957 106.49 -25.336 Q106.49 -19.096 104.93 -13.245 Q103.37 -7.394 100.326 -2.136 Q99.346 -0.407 97.654 0.445 Q95.961 1.299 94.09 1.299 H25.942 Z"/></g><g id="Thin-M" transform="matrix(1 0 0 1 802.565 1126)"><path d="M66.058 -19.561 Q68.351 -21.87 68.14 -25.157 Q67.927 -28.446 65.31 -30.212 Q58.678 -34.826 52.06 -39.567 Q45.441 -44.307 38.822 -49.049 Q37.404 -50.009 36.24 -48.85 Q35.078 -47.691 36.102 -46.281 Q40.846 -39.677 45.599 -33.129 Q50.35 -26.579 55.078 -20.061 Q57.035 -17.382 60.316 -17.255 Q63.599 -17.129 66.058 -19.561 Z M25.823 -0.985 Q24.464 -0.985 23.385 -1.477 Q22.306 -1.97 21.61 -3.019 Q18.669 -8.257 17.235 -14.049 Q15.803 -19.841 15.803 -25.874 Q15.771 -34.904 19.337 -42.849 Q22.904 -50.792 28.934 -56.694 Q34.964 -62.595 42.994 -66.027 Q51.024 -69.461 60 -69.461 Q69.191 -69.461 77.228 -65.985 Q85.265 -62.509 91.265 -56.532 Q97.265 -50.557 100.748 -42.527 Q104.231 -34.499 104.231 -25.317 Q104.231 -19.4 102.766 -13.854 Q101.302 -8.307 98.404 -3.417 Q97.756 -2.211 96.59 -1.597 Q95.422 -0.985 94.18 -0.985 H25.823 Z"/></g><g id="Ultralight-M" transform="matrix(1 0 0 1 506.415 1126)"><path d="M65.625 -19.98 Q67.688 -22.042 67.469 -25.042 Q67.25 -28.042 64.879 -29.645 Q58.562 -34.105 52.284 -38.712 Q46.005 -43.319 39.726 -47.926 Q38.369 -48.855 37.278 -47.761 Q36.188 -46.667 37.203 -45.321 Q41.812 -39.042 46.425 -32.845 Q51.038 -26.646 55.625 -20.48 Q57.476 -18.046 60.44 -17.92 Q63.404 -17.792 65.625 -19.98 Z M25.75 -2.355 Q24.771 -2.355 24.025 -2.667 Q23.279 -2.98 22.75 -3.667 Q19.938 -8.735 18.562 -14.351 Q17.188 -19.967 17.188 -25.804 Q17.126 -34.6 20.564 -42.321 Q24 -50.042 29.832 -55.755 Q35.665 -61.466 43.46 -64.786 Q51.255 -68.105 60 -68.105 Q68.93 -68.105 76.715 -64.73 Q84.5 -61.355 90.312 -55.574 Q96.125 -49.792 99.5 -42.007 Q102.875 -34.222 102.875 -25.306 Q102.875 -19.582 101.469 -14.219 Q100.062 -8.855 97.25 -4.186 Q96.801 -3.292 95.951 -2.824 Q95.1 -2.355 94.234 -2.355 H25.75 Z"/></g><g id="Bold-S" transform="matrix(1 0 0 1 2294.23 696)"><path d="M52.173 -23.444 Q54.293 -25.614 54.145 -28.721 Q53.997 -31.827 51.581 -33.455 Q46.995 -36.709 42.113 -40.161 Q37.231 -43.613 32.3 -47.016 Q30.426 -48.347 28.725 -46.72 Q27.023 -45.092 28.355 -43.12 Q31.757 -38.139 35.135 -33.331 Q38.513 -28.523 41.916 -23.937 Q43.74 -21.373 46.822 -21.324 Q49.904 -21.275 52.173 -23.444 Z M19.084 -4.41 Q16.52 -4.41 14.251 -5.667 Q11.983 -6.925 10.799 -9.193 Q8.63 -12.793 7.939 -17.132 Q7.249 -21.472 7.249 -25.959 Q7.101 -34.49 10.208 -41.739 Q13.314 -48.988 18.689 -54.388 Q24.065 -59.788 31.461 -62.845 Q38.858 -65.902 47.143 -65.902 Q55.477 -65.902 62.873 -62.796 Q70.27 -59.689 75.695 -54.265 Q81.119 -48.84 84.3 -41.517 Q87.48 -34.194 87.48 -25.959 Q87.48 -21.57 86.667 -17.256 Q85.853 -12.941 83.634 -9.193 Q82.401 -6.925 80.157 -5.667 Q77.914 -4.41 75.35 -4.41 H19.084 Z"/></g><g id="Semibold-S" transform="matrix(1 0 0 1 1998.1 696)"><path d="M52.173 -23.487 Q54.293 -25.656 54.145 -28.763 Q53.997 -31.87 51.581 -33.497 Q46.609 -36.923 41.384 -40.547 Q36.159 -44.17 30.928 -47.745 Q29.397 -48.819 27.996 -47.492 Q26.594 -46.165 27.668 -44.535 Q31.242 -39.254 34.814 -34.104 Q38.385 -28.953 41.958 -23.98 Q43.698 -21.416 46.78 -21.346 Q49.862 -21.275 52.173 -23.487 Z M19.17 -5.867 Q16.949 -5.867 15.024 -6.933 Q13.097 -7.997 12.086 -9.965 Q10.002 -13.436 9.333 -17.582 Q8.664 -21.729 8.664 -26.002 Q8.559 -34.147 11.58 -41.139 Q14.6 -48.13 19.804 -53.338 Q25.007 -58.544 32.126 -61.516 Q39.244 -64.487 47.185 -64.487 Q55.219 -64.487 62.338 -61.488 Q69.456 -58.489 74.687 -53.257 Q79.919 -48.026 82.992 -40.982 Q86.065 -33.937 86.065 -26.002 Q86.065 -21.784 85.295 -17.663 Q84.524 -13.541 82.434 -9.965 Q81.329 -7.997 79.429 -6.933 Q77.528 -5.867 75.35 -5.867 H19.17 Z"/></g><g id="Medium-S" transform="matrix(1 0 0 1 1701.85 696)"><path d="M52.173 -23.519 Q54.293 -25.689 54.145 -28.796 Q53.997 -31.902 51.581 -33.53 Q46.319 -37.084 40.838 -40.837 Q35.355 -44.589 29.898 -48.291 Q28.625 -49.173 27.449 -48.071 Q26.273 -46.968 27.154 -45.596 Q30.857 -40.09 34.572 -34.683 Q38.288 -29.274 41.991 -24.012 Q43.665 -21.448 46.747 -21.361 Q49.829 -21.275 52.173 -23.519 Z M19.234 -6.961 Q17.27 -6.961 15.602 -7.881 Q13.934 -8.8 13.051 -10.544 Q11.031 -13.918 10.378 -17.92 Q9.725 -21.923 9.725 -26.034 Q9.652 -33.89 12.609 -40.689 Q15.566 -47.487 20.64 -52.55 Q25.715 -57.611 32.624 -60.518 Q39.534 -63.426 47.218 -63.426 Q55.026 -63.426 61.936 -60.507 Q68.844 -57.588 73.931 -52.501 Q79.018 -47.414 82.011 -40.579 Q85.004 -33.744 85.004 -26.034 Q85.004 -21.945 84.265 -17.969 Q83.526 -13.991 81.533 -10.544 Q80.525 -8.8 78.882 -7.881 Q77.238 -6.961 75.35 -6.961 H19.234 Z"/></g><g id="Regular-S" transform="matrix(1 0 0 1 1405.73 696)"><path d="M52.173 -23.543 Q54.293 -25.713 54.145 -28.819 Q53.997 -31.926 51.581 -33.553 Q46.107 -37.202 40.436 -41.049 Q34.765 -44.895 29.144 -48.692 Q28.059 -49.432 27.048 -48.495 Q26.037 -47.558 26.777 -46.375 Q30.574 -40.704 34.395 -35.107 Q38.217 -29.51 42.014 -24.036 Q43.642 -21.472 46.724 -21.373 Q49.806 -21.275 52.173 -23.543 Z M19.281 -7.763 Q17.506 -7.763 16.027 -8.577 Q14.547 -9.39 13.758 -10.968 Q11.786 -14.272 11.145 -18.168 Q10.504 -22.064 10.504 -26.058 Q10.454 -33.701 13.364 -40.358 Q16.273 -47.016 21.254 -51.972 Q26.234 -56.927 32.99 -59.788 Q39.746 -62.648 47.241 -62.648 Q54.885 -62.648 61.641 -59.788 Q68.396 -56.927 73.377 -51.947 Q78.358 -46.966 81.292 -40.285 Q84.226 -33.603 84.226 -26.058 Q84.226 -22.064 83.511 -18.193 Q82.796 -14.321 80.873 -10.968 Q79.936 -9.39 78.481 -8.577 Q77.026 -7.763 75.35 -7.763 H19.281 Z"/></g><g id="Light-S" transform="matrix(1 0 0 1 1109.75 696)"><path d="M51.604 -24.093 Q53.42 -25.941 53.263 -28.667 Q53.106 -31.394 51.013 -32.807 Q45.955 -36.254 40.731 -39.925 Q35.507 -43.594 30.331 -47.215 Q29.328 -47.914 28.413 -47.063 Q27.498 -46.212 28.223 -45.112 Q31.845 -39.869 35.482 -34.734 Q39.12 -29.599 42.735 -24.586 Q44.222 -22.346 46.885 -22.246 Q49.548 -22.147 51.604 -24.093 Z M19.187 -9.565 Q17.91 -9.565 16.869 -10.142 Q15.826 -10.718 15.256 -11.821 Q13.454 -14.899 12.889 -18.565 Q12.324 -22.23 12.324 -25.966 Q12.237 -33.301 14.976 -39.665 Q17.715 -46.029 22.435 -50.737 Q27.156 -55.444 33.604 -58.154 Q40.051 -60.865 47.241 -60.865 Q54.542 -60.865 60.966 -58.138 Q67.391 -55.41 72.125 -50.686 Q76.859 -45.961 79.651 -39.601 Q82.443 -33.24 82.443 -26.043 Q82.443 -22.303 81.804 -18.673 Q81.164 -15.042 79.355 -11.979 Q78.68 -10.812 77.641 -10.189 Q76.601 -9.565 75.421 -9.565 H19.187 Z"/></g><g id="Thin-S" transform="matrix(1 0 0 1 814.015 696)"><path d="M51.034 -24.643 Q52.548 -26.168 52.382 -28.516 Q52.214 -30.864 50.445 -32.06 Q45.803 -35.306 41.026 -38.8 Q36.248 -42.294 31.519 -45.738 Q30.596 -46.397 29.777 -45.631 Q28.958 -44.865 29.668 -43.851 Q33.115 -39.035 36.569 -34.361 Q40.022 -29.686 43.456 -25.136 Q44.803 -23.219 47.047 -23.119 Q49.292 -23.019 51.034 -24.643 Z M19.092 -11.367 Q18.316 -11.367 17.711 -11.706 Q17.107 -12.045 16.754 -12.675 Q15.124 -15.527 14.634 -18.962 Q14.145 -22.398 14.145 -25.875 Q14.022 -32.901 16.589 -38.973 Q19.156 -45.043 23.618 -49.502 Q28.08 -53.961 34.218 -56.521 Q40.356 -59.082 47.241 -59.082 Q54.197 -59.082 60.291 -56.488 Q66.386 -53.893 70.874 -49.424 Q75.361 -44.956 78.01 -38.917 Q80.66 -32.878 80.66 -26.028 Q80.66 -22.543 80.096 -19.153 Q79.533 -15.763 77.838 -12.99 Q77.426 -12.236 76.801 -11.801 Q76.176 -11.367 75.492 -11.367 H19.092 Z"/></g><g id="Ultralight-S" transform="matrix(1 0 0 1 517.792 696)"><path d="M50.693 -24.973 Q52.025 -26.304 51.852 -28.425 Q51.68 -30.545 50.104 -31.612 Q45.713 -34.737 41.203 -38.126 Q36.692 -41.513 32.232 -44.853 Q31.358 -45.487 30.595 -44.772 Q29.834 -44.057 30.536 -43.093 Q33.878 -38.534 37.221 -34.137 Q40.564 -29.74 43.888 -25.466 Q45.152 -23.743 47.145 -23.644 Q49.138 -23.543 50.693 -24.973 Z M19.035 -12.448 Q18.558 -12.448 18.216 -12.645 Q17.874 -12.842 17.654 -13.187 Q16.125 -15.903 15.681 -19.2 Q15.238 -22.498 15.238 -25.82 Q15.091 -32.662 17.556 -38.557 Q20.021 -44.451 24.327 -48.761 Q28.633 -53.07 34.586 -55.542 Q40.539 -58.012 47.241 -58.012 Q53.991 -58.012 59.887 -55.497 Q65.783 -52.982 70.122 -48.668 Q74.462 -44.353 77.026 -38.506 Q79.59 -32.66 79.59 -26.019 Q79.59 -22.687 79.073 -19.441 Q78.555 -16.195 76.928 -13.597 Q76.672 -13.089 76.297 -12.768 Q75.922 -12.448 75.534 -12.448 H19.035 Z"/></g></g></svg>