<svg xmlns="http://www.w3.org/2000/svg" version="1.1" width="3300" height="2000"><g id="Notes"><style>
    text {
      font-family: monospace;
      text-anchor: middle;
    }
    text.emphasis {
      font-weight:bold;
    }
    text.lanchor {
      text-anchor: start;
    }
  </style><rect height="2200" id="artboard" fill="white" width="3300" x="0" y="0"/><line id="" style="fill:none;stroke:black;stroke-width:0.5;" x1="263" x2="3036" y1="292" y2="292"/><text class="lanchor emphasis" transform="matrix(1 0 0 1 263 322)">Weight/Scale Variations</text><text transform="matrix(1 0 0 1 559.711 322)">Ultralight</text><text transform="matrix(1 0 0 1 856.422 322)">Thin</text><text transform="matrix(1 0 0 1 1153.13 322)">Light</text><text transform="matrix(1 0 0 1 1449.84 322)">Regular</text><text transform="matrix(1 0 0 1 1746.56 322)">Medium</text><text transform="matrix(1 0 0 1 2043.27 322)">Semibold</text><text transform="matrix(1 0 0 1 2339.98 322)">Bold</text><text transform="matrix(1 0 0 1 2636.69 322)">Heavy</text><text transform="matrix(1 0 0 1 2933.4 322)">Black</text><text id="template-version" style="text-anchor: end;" transform="matrix(1 0 0 1 3036 1933)">Template v.1.0</text><text class="lanchor" transform="matrix(1 0 0 1 263 726)">Small</text><text class="lanchor" transform="matrix(1 0 0 1 263 1156)">Medium</text><text class="lanchor" transform="matrix(1 0 0 1 263 1586)">Large</text></g><g id="Guides"><g id="H-reference" style="fill:#27AAE1;stroke:none;" transform="matrix(1 0 0 1 339 696)"><path d="M 54.9316 0 L 57.666 0 L 30.5664 -70.459 L 28.0762 -70.459 L 0.976562 0 L 3.66211 0 L 12.9395 -24.4629 L 45.7031 -24.4629 Z M 29.1992 -67.0898 L 29.4434 -67.0898 L 44.8242 -26.709 L 13.8184 -26.709 Z"/></g><line id="Baseline-S" style="fill:none;stroke:#27AAE1;opacity:1;stroke-width:0.577;" x1="263" x2="3036" y1="696" y2="696"/><line id="Capline-S" style="fill:none;stroke:#27AAE1;opacity:1;stroke-width:0.577;" x1="263" x2="3036" y1="625.541" y2="625.541"/><g id="H-reference" style="fill:#27AAE1;stroke:none;" transform="matrix(1 0 0 1 339 1126)"><path d="M 54.9316 0 L 57.666 0 L 30.5664 -70.459 L 28.0762 -70.459 L 0.976562 0 L 3.66211 0 L 12.9395 -24.4629 L 45.7031 -24.4629 Z M 29.1992 -67.0898 L 29.4434 -67.0898 L 44.8242 -26.709 L 13.8184 -26.709 Z"/></g><line id="Baseline-M" style="fill:none;stroke:#27AAE1;opacity:1;stroke-width:0.577;" x1="263" x2="3036" y1="1126" y2="1126"/><line id="Capline-M" style="fill:none;stroke:#27AAE1;opacity:1;stroke-width:0.577;" x1="263" x2="3036" y1="1055.54" y2="1055.54"/><g id="H-reference" style="fill:#27AAE1;stroke:none;" transform="matrix(1 0 0 1 339 1556)"><path d="M 54.9316 0 L 57.666 0 L 30.5664 -70.459 L 28.0762 -70.459 L 0.976562 0 L 3.66211 0 L 12.9395 -24.4629 L 45.7031 -24.4629 Z M 29.1992 -67.0898 L 29.4434 -67.0898 L 44.8242 -26.709 L 13.8184 -26.709 Z"/></g><line id="Baseline-L" style="fill:none;stroke:#27AAE1;opacity:1;stroke-width:0.577;" x1="263" x2="3036" y1="1556" y2="1556"/><line id="Capline-L" style="fill:none;stroke:#27AAE1;opacity:1;stroke-width:0.577;" x1="263" x2="3036" y1="1485.54" y2="1485.54"/><rect height="119.336" id="left-margin" style="fill:darkred;stroke:none;opacity:0.4;" width="12.4512" x="1394.06" y="1030.79"/><rect height="119.336" id="right-margin" style="fill:darkgreen;stroke:none;opacity:0.4;" width="12.4512" x="1502.5112" y="1030.79"/><rect x="1406.5112" y="1045" width="96" height="96" fill="none" stroke="blue" stroke-dasharray="5"/><rect x="1394.06" y="1030.79" width="120.9024" height="119.336" fill="none" stroke="blue"/></g><g id="Symbols"><g id="Bold-L" transform="matrix(1 0 0 1 2266 1556)"><path d="M87.881 -12.494 Q91.913 -16.525 91.913 -22.249 Q91.913 -27.974 86.906 -31.225 Q76.755 -37.165 66.67 -44.046 Q56.587 -50.924 46.44 -58.289 Q44.183 -59.74 41.925 -57.644 Q39.668 -55.547 41.441 -53.29 Q48.536 -42.757 55.546 -32.839 Q62.555 -22.92 69.015 -13.139 Q71.953 -8.306 77.74 -8.224 Q83.528 -8.14 87.881 -12.494 Z M30.96 19.756 Q26.906 19.756 23.662 17.902 Q20.419 16.048 18.383 12.661 Q13.706 4.76 11.61 -4.118 Q9.514 -12.998 9.514 -22.007 Q9.514 -29.847 11.126 -37.296 Q12.739 -44.744 16.609 -51.194 Q17.576 -53.774 20.517 -54.419 Q23.459 -55.064 26.143 -53.293 Q28.777 -51.816 29.546 -48.844 Q30.315 -45.872 29.348 -43.292 Q26.437 -38.639 25.311 -33.135 Q24.188 -27.634 24.188 -22.007 Q24.188 -15.048 25.719 -8.009 Q27.251 -0.969 31.444 5.244 H123.339 Q127.065 -1.045 128.919 -8.056 Q130.774 -15.067 130.774 -22.196 Q130.774 -44.373 115.294 -60.038 Q99.814 -75.704 77.561 -75.704 Q74.207 -75.704 71.134 -75.191 Q68.06 -74.677 65.145 -73.93 Q61.941 -73.285 58.948 -74.575 Q55.954 -75.865 54.825 -78.767 Q53.696 -81.67 54.699 -84.487 Q55.702 -87.306 59.017 -87.959 Q63.937 -89.168 68.707 -89.692 Q73.475 -90.216 77.884 -90.216 Q92.035 -90.055 104.295 -84.689 Q116.555 -79.322 125.68 -70.015 Q134.805 -60.707 140.046 -48.475 Q145.286 -36.243 145.286 -22.082 Q145.286 -12.69 142.845 -3.893 Q140.404 4.904 136.213 12.663 Q134.321 16.37 130.895 18.063 Q127.467 19.756 123.679 19.756 H30.96 Z"/></g><g id="Semibold-L" transform="matrix(1 0 0 1 1970.27 1556)"><path d="M88.022 -12.284 Q92.053 -16.385 92.017 -22.214 Q91.982 -28.043 87.002 -31.208 Q76.474 -37.446 66.008 -44.558 Q55.541 -51.673 45.037 -59.13 Q42.92 -60.511 40.909 -58.626 Q38.897 -56.739 40.459 -54.622 Q47.695 -43.805 54.881 -33.48 Q62.068 -23.154 68.805 -12.929 Q71.803 -8.029 77.7 -7.943 Q83.597 -7.859 88.022 -12.284 Z M30.539 19.406 Q26.742 19.406 23.699 17.657 Q20.655 15.907 18.732 12.731 Q14.196 4.829 12.066 -4.007 Q9.935 -12.844 9.935 -21.938 Q9.935 -30.015 11.723 -37.696 Q13.51 -45.374 17.52 -52.176 Q18.487 -54.545 21.154 -55.015 Q23.821 -55.485 26.248 -53.854 Q28.622 -52.39 29.259 -49.693 Q29.894 -46.995 28.857 -44.624 Q25.765 -39.631 24.521 -33.779 Q23.276 -27.927 23.276 -21.938 Q23.276 -14.65 24.913 -7.44 Q26.55 -0.231 30.673 6.085 H124.117 Q127.907 -0.344 129.795 -7.501 Q131.685 -14.659 131.685 -22.08 Q131.685 -44.61 115.96 -60.612 Q100.235 -76.615 77.631 -76.615 Q74.004 -76.615 70.54 -75.997 Q67.078 -75.378 63.813 -74.491 Q60.89 -73.775 58.176 -74.96 Q55.464 -76.146 54.404 -78.767 Q53.346 -81.389 54.264 -83.963 Q55.181 -86.538 58.106 -87.257 Q63.2 -88.607 68.233 -89.236 Q73.266 -89.866 77.953 -89.866 Q91.98 -89.774 104.177 -84.377 Q116.373 -78.98 125.448 -69.739 Q134.524 -60.498 139.73 -48.256 Q144.936 -36.012 144.936 -21.967 Q144.936 -12.636 142.505 -3.862 Q140.073 4.912 135.881 12.732 Q134.112 16.089 130.909 17.747 Q127.708 19.406 124.169 19.406 H30.539 Z"/></g><g id="Medium-L" transform="matrix(1 0 0 1 1674.31 1556)"><path d="M88.126 -12.126 Q92.158 -16.28 92.096 -22.188 Q92.035 -28.096 87.073 -31.196 Q76.265 -37.655 65.509 -44.945 Q54.756 -52.234 43.986 -59.761 Q41.973 -61.09 40.146 -59.361 Q38.318 -57.632 39.724 -55.622 Q47.064 -44.592 54.383 -33.961 Q61.704 -23.33 68.647 -12.771 Q71.692 -7.821 77.671 -7.735 Q83.65 -7.65 88.126 -12.126 Z M30.223 19.144 Q26.618 19.144 23.725 17.473 Q20.832 15.802 18.995 12.784 Q14.566 4.883 12.408 -3.923 Q10.251 -12.729 10.251 -21.885 Q10.251 -30.143 12.17 -37.995 Q14.088 -45.848 18.204 -52.911 Q19.171 -55.123 21.632 -55.462 Q24.092 -55.801 26.327 -54.275 Q28.506 -52.821 29.043 -50.328 Q29.578 -47.835 28.488 -45.624 Q25.261 -40.375 23.926 -34.261 Q22.593 -28.148 22.593 -21.885 Q22.593 -14.35 24.308 -7.013 Q26.024 0.322 30.094 6.716 H124.701 Q128.537 0.182 130.453 -7.085 Q132.369 -14.355 132.369 -21.993 Q132.369 -44.789 116.46 -61.045 Q100.551 -77.299 77.684 -77.299 Q73.851 -77.299 70.097 -76.602 Q66.343 -75.904 62.813 -74.912 Q60.101 -74.144 57.599 -75.249 Q55.094 -76.355 54.088 -78.767 Q53.084 -81.18 53.937 -83.571 Q54.79 -85.962 57.423 -86.732 Q62.647 -88.186 67.878 -88.894 Q73.108 -89.603 78.006 -89.603 Q91.94 -89.565 104.087 -84.144 Q116.234 -78.724 125.274 -69.531 Q134.315 -60.34 139.494 -48.09 Q144.674 -35.84 144.674 -21.882 Q144.674 -12.594 142.248 -3.838 Q139.825 4.916 135.632 12.784 Q133.954 15.88 130.92 17.512 Q127.889 19.144 124.538 19.144 H30.223 Z"/></g><g id="Regular-L" transform="matrix(1 0 0 1 1378.56 1556)"><path d="M88.204 -12.01 Q92.235 -16.202 92.154 -22.169 Q92.074 -28.135 87.127 -31.187 Q76.11 -37.81 65.145 -45.227 Q54.18 -52.645 43.215 -60.224 Q41.28 -61.514 39.587 -59.901 Q37.894 -58.289 39.184 -56.354 Q46.601 -45.169 54.019 -34.314 Q61.436 -23.459 68.531 -12.655 Q71.61 -7.668 77.648 -7.58 Q83.689 -7.495 88.204 -12.01 Z M29.992 18.95 Q26.527 18.95 23.744 17.338 Q20.963 15.725 19.189 12.823 Q14.835 4.921 12.658 -3.862 Q10.481 -12.645 10.481 -21.846 Q10.481 -30.234 12.497 -38.215 Q14.513 -46.195 18.705 -53.451 Q19.672 -55.547 21.983 -55.789 Q24.292 -56.031 26.385 -54.583 Q28.422 -53.135 28.885 -50.794 Q29.348 -48.452 28.219 -46.356 Q24.892 -40.922 23.491 -34.616 Q22.091 -28.309 22.091 -21.846 Q22.091 -14.13 23.865 -6.7 Q25.639 0.729 29.67 7.179 H125.13 Q129 0.568 130.935 -6.781 Q132.87 -14.13 132.87 -21.928 Q132.87 -44.92 116.826 -61.361 Q100.781 -77.8 77.722 -77.8 Q73.738 -77.8 69.77 -77.045 Q65.803 -76.289 62.081 -75.22 Q59.522 -74.414 57.174 -75.462 Q54.825 -76.51 53.858 -78.767 Q52.89 -81.025 53.696 -83.282 Q54.503 -85.54 56.921 -86.346 Q62.242 -87.878 67.617 -88.644 Q72.991 -89.41 78.045 -89.41 Q91.911 -89.41 104.022 -83.973 Q116.132 -78.535 125.146 -69.38 Q134.16 -60.224 139.32 -47.969 Q144.48 -35.714 144.48 -21.819 Q144.48 -12.563 142.061 -3.82 Q139.643 4.921 135.45 12.823 Q133.838 15.725 130.93 17.338 Q128.021 18.95 124.808 18.95 H29.992 Z"/></g><g id="Light-L" transform="matrix(1 0 0 1 1082.77 1556)"><path d="M87.335 -12.971 Q90.808 -16.575 90.727 -21.89 Q90.647 -27.205 86.257 -29.885 Q76.049 -35.949 66.045 -42.964 Q56.041 -49.978 46.085 -57.168 Q44.195 -58.474 42.533 -56.862 Q40.87 -55.249 42.185 -53.358 Q49.18 -43.176 56.239 -33.287 Q63.297 -23.397 69.895 -13.585 Q72.664 -9.156 77.99 -9.069 Q83.316 -8.983 87.335 -12.971 Z M30.489 15.725 Q27.74 15.725 25.561 14.485 Q23.381 13.243 21.917 10.962 Q17.812 3.447 15.759 -4.913 Q13.706 -13.274 13.706 -22.032 Q13.706 -29.725 15.412 -37.03 Q17.118 -44.334 20.814 -51.032 Q21.537 -52.671 23.349 -52.893 Q25.161 -53.116 26.882 -52.01 Q28.546 -50.903 28.946 -49.027 Q29.348 -47.15 28.528 -45.487 Q25.511 -40.24 24.236 -34.238 Q22.96 -28.238 22.96 -22.095 Q22.96 -14.55 24.702 -7.282 Q26.445 -0.016 30.355 6.31 H124.448 Q128.194 -0.115 130.098 -7.261 Q132.001 -14.406 132.001 -21.991 Q132.001 -44.595 116.174 -60.764 Q100.347 -76.931 77.661 -76.931 Q73.741 -76.931 69.834 -76.225 Q65.929 -75.518 62.267 -74.475 Q60.143 -73.856 58.29 -74.717 Q56.438 -75.58 55.655 -77.373 Q54.936 -79.227 55.578 -81.043 Q56.218 -82.858 58.224 -83.494 Q63.173 -84.777 68.144 -85.48 Q73.116 -86.185 77.735 -86.185 Q90.963 -86.185 102.587 -81.057 Q114.21 -75.931 122.79 -67.209 Q131.369 -58.487 136.311 -46.821 Q141.255 -35.156 141.255 -21.935 Q141.255 -13.116 138.96 -4.842 Q136.666 3.433 132.722 10.713 Q131.459 13.058 129.158 14.391 Q126.855 15.725 124.311 15.725 H30.489 Z"/></g><g id="Thin-L" transform="matrix(1 0 0 1 787.282 1556)"><path d="M86.467 -13.932 Q89.382 -16.947 89.302 -21.611 Q89.221 -26.274 85.39 -28.582 Q75.986 -34.088 66.943 -40.7 Q57.902 -47.311 48.954 -54.112 Q47.109 -55.436 45.479 -53.824 Q43.847 -52.211 45.184 -50.363 Q51.76 -41.183 58.458 -32.26 Q65.158 -23.335 71.26 -14.516 Q73.717 -10.644 78.33 -10.557 Q82.944 -10.472 86.467 -13.932 Z M30.984 12.5 Q28.952 12.5 27.377 11.632 Q25.8 10.763 24.647 9.101 Q20.788 1.974 18.86 -5.965 Q16.931 -13.903 16.931 -22.219 Q16.931 -29.215 18.326 -35.844 Q19.722 -42.473 22.922 -48.614 Q23.401 -49.794 24.715 -49.997 Q26.029 -50.202 27.377 -49.436 Q28.669 -48.67 29.009 -47.259 Q29.348 -45.848 28.84 -44.62 Q26.132 -39.558 24.979 -33.863 Q23.828 -28.169 23.828 -22.343 Q23.828 -14.971 25.539 -7.864 Q27.251 -0.76 31.041 5.442 H123.766 Q127.388 -0.797 129.261 -7.74 Q131.133 -14.684 131.133 -22.053 Q131.133 -44.27 115.523 -60.167 Q99.914 -76.063 77.598 -76.063 Q73.743 -76.063 69.899 -75.405 Q66.056 -74.749 62.454 -73.732 Q60.762 -73.298 59.406 -73.974 Q58.05 -74.649 57.455 -75.976 Q56.983 -77.428 57.458 -78.801 Q57.934 -80.177 59.525 -80.641 Q64.103 -81.676 68.672 -82.318 Q73.24 -82.96 77.424 -82.96 Q90.016 -82.96 101.152 -78.143 Q112.288 -73.327 120.433 -65.039 Q128.578 -56.75 133.304 -45.674 Q138.03 -34.598 138.03 -22.049 Q138.03 -13.669 135.86 -5.862 Q133.689 1.945 129.992 8.606 Q129.082 10.391 127.386 11.445 Q125.69 12.5 123.816 12.5 H30.984 Z"/></g><g id="Ultralight-L" transform="matrix(1 0 0 1 491.205 1556)"><path d="M85.946 -14.509 Q88.526 -17.17 88.446 -21.443 Q88.365 -25.716 84.869 -27.801 Q75.949 -32.972 67.483 -39.342 Q59.017 -45.711 50.676 -52.279 Q48.859 -53.612 47.246 -52 Q45.634 -50.387 46.983 -48.565 Q53.306 -39.987 59.79 -31.642 Q66.274 -23.297 72.079 -15.074 Q74.351 -11.538 78.535 -11.45 Q82.721 -11.365 85.946 -14.509 Z M31.283 10.565 Q29.681 10.565 28.465 9.92 Q27.251 9.275 26.284 7.985 Q22.575 1.088 20.721 -6.595 Q18.866 -14.28 18.866 -22.33 Q18.866 -28.911 20.076 -35.133 Q21.285 -41.357 24.188 -47.162 Q24.518 -48.069 25.534 -48.261 Q26.55 -48.452 27.675 -47.891 Q28.744 -47.33 29.046 -46.198 Q29.348 -45.066 29.025 -44.099 Q26.505 -39.148 25.426 -33.637 Q24.349 -28.127 24.349 -22.491 Q24.349 -15.222 26.042 -8.214 Q27.735 -1.206 31.452 4.921 H123.356 Q126.904 -1.206 128.758 -8.029 Q130.613 -14.85 130.613 -22.09 Q130.613 -44.076 115.133 -59.809 Q99.653 -75.542 77.561 -75.542 Q73.744 -75.542 69.937 -74.915 Q66.132 -74.286 62.565 -73.285 Q61.135 -72.962 60.077 -73.527 Q59.017 -74.091 58.534 -75.139 Q58.211 -76.349 58.587 -77.458 Q58.964 -78.568 60.308 -78.929 Q64.661 -79.816 68.988 -80.42 Q73.314 -81.025 77.239 -81.025 Q89.447 -81.025 100.291 -76.394 Q111.134 -71.763 119.019 -63.736 Q126.904 -55.709 131.499 -44.986 Q136.095 -34.262 136.095 -22.119 Q136.095 -14.001 133.999 -6.474 Q131.903 1.051 128.355 7.34 Q127.655 8.791 126.322 9.678 Q124.99 10.565 123.517 10.565 H31.283 Z"/></g><g id="Bold-M" transform="matrix(1 0 0 1 2281.8 1126)"><path d="M68 -17.23 Q71.375 -20.48 71.188 -25.042 Q71 -29.605 67.205 -32.135 Q60.375 -36.605 53.495 -41.439 Q46.616 -46.271 39.625 -51.23 Q36.75 -53.23 34.25 -50.73 Q31.75 -48.23 33.75 -45.355 Q38.75 -38.235 43.562 -31.357 Q48.375 -24.48 53 -17.73 Q55.528 -13.984 60.076 -13.92 Q64.625 -13.855 68 -17.23 Z M24.75 10.52 Q20.767 10.52 17.259 8.645 Q13.75 6.77 11.75 3.27 Q8 -3.355 6.125 -10.691 Q4.25 -18.027 4.25 -25.605 Q4.25 -29.512 4.688 -33.309 Q5.125 -37.105 6.125 -40.73 Q7 -43.98 10.25 -45.105 Q13.5 -46.23 16.625 -44.73 Q19.875 -43.355 21.188 -40.167 Q22.5 -36.98 21.75 -33.48 Q21.421 -31.517 21.273 -29.466 Q21.125 -27.414 21.125 -25.355 Q21.125 -20.355 22.312 -15.514 Q23.5 -10.671 26 -6.23 H93.875 Q96.25 -10.73 97.562 -15.344 Q98.875 -19.956 98.875 -24.904 Q98.875 -41.181 87.5 -52.642 Q76.125 -64.105 59.875 -64.105 Q57.864 -64.105 55.936 -63.895 Q54.01 -63.684 52.125 -63.355 Q48.625 -62.48 45.375 -63.855 Q42.125 -65.23 40.688 -68.48 Q39.25 -71.73 40.361 -74.926 Q41.472 -78.122 44.875 -78.98 Q48.564 -80.042 52.282 -80.449 Q56 -80.855 59.875 -80.855 Q71.461 -80.855 81.582 -76.472 Q91.703 -72.089 99.289 -64.472 Q106.875 -56.855 111.25 -46.685 Q115.625 -36.515 115.625 -24.849 Q115.625 -17.287 113.733 -10.204 Q111.84 -3.119 108.04 3.288 Q106.125 6.895 102.582 8.708 Q99.04 10.52 95.125 10.52 H24.75 Z"/></g><g id="Semibold-M" transform="matrix(1 0 0 1 1985.97 1126)"><path d="M68.054 -17.121 Q71.375 -20.426 71.188 -25.042 Q71 -29.659 67.224 -32.176 Q59.995 -36.985 52.736 -42 Q45.479 -47.014 38.104 -52.154 Q35.5 -53.991 33.245 -51.709 Q30.989 -49.425 32.771 -46.822 Q37.88 -39.374 42.884 -32.09 Q47.886 -24.806 52.782 -17.621 Q55.358 -13.822 59.991 -13.757 Q64.625 -13.692 68.054 -17.121 Z M24.479 9.759 Q20.747 9.759 17.52 8.02 Q14.294 6.281 12.456 3.053 Q8.761 -3.517 6.886 -10.767 Q5.011 -18.016 5.011 -25.551 Q5.011 -29.735 5.611 -33.8 Q6.213 -37.866 7.429 -41.762 Q8.304 -44.686 11.229 -45.649 Q14.152 -46.61 16.979 -45.219 Q19.875 -43.899 21.025 -41.01 Q22.174 -38.121 21.37 -35.001 Q20.824 -32.659 20.54 -30.214 Q20.255 -27.769 20.255 -25.301 Q20.255 -20.045 21.525 -15.017 Q22.794 -9.99 25.348 -5.415 H94.581 Q97.011 -10.024 98.377 -14.832 Q99.745 -19.641 99.745 -24.84 Q99.745 -41.474 88.153 -53.224 Q76.56 -64.975 59.929 -64.975 Q57.542 -64.975 55.205 -64.655 Q52.869 -64.336 50.604 -63.79 Q47.484 -62.915 44.56 -64.126 Q41.636 -65.339 40.28 -68.262 Q38.924 -71.186 39.932 -74.08 Q40.941 -76.974 43.951 -77.839 Q47.83 -79.064 51.834 -79.606 Q55.837 -80.149 59.929 -80.149 Q71.365 -80.149 81.354 -75.796 Q91.343 -71.444 98.81 -63.932 Q106.278 -56.42 110.597 -46.351 Q114.919 -36.282 114.919 -24.781 Q114.919 -17.315 113.034 -10.295 Q111.149 -3.276 107.425 3.063 Q105.636 6.351 102.374 8.055 Q99.111 9.759 95.505 9.759 H24.479 Z"/></g><g id="Medium-M" transform="matrix(1 0 0 1 1689.91 1126)"><path d="M68.095 -17.04 Q71.375 -20.385 71.188 -25.042 Q71 -29.7 67.239 -32.207 Q59.709 -37.271 52.167 -42.421 Q44.625 -47.571 36.962 -52.846 Q34.562 -54.561 32.49 -52.442 Q30.419 -50.322 32.038 -47.922 Q37.229 -40.229 42.374 -32.64 Q47.519 -25.051 52.62 -17.54 Q55.23 -13.702 59.928 -13.636 Q64.625 -13.57 68.095 -17.04 Z M24.275 9.189 Q20.733 9.189 17.718 7.551 Q14.701 5.914 12.986 2.89 Q9.331 -3.64 7.456 -10.825 Q5.581 -18.009 5.581 -25.51 Q5.581 -29.902 6.304 -34.17 Q7.027 -38.436 8.408 -42.537 Q9.283 -45.216 11.963 -46.056 Q14.641 -46.896 17.244 -45.586 Q19.875 -44.306 20.902 -41.641 Q21.929 -38.977 21.084 -36.142 Q20.375 -33.515 19.989 -30.775 Q19.604 -28.035 19.604 -25.26 Q19.604 -19.814 20.934 -14.646 Q22.264 -9.48 24.859 -4.804 H95.111 Q97.581 -9.494 98.989 -14.449 Q100.396 -19.404 100.396 -24.792 Q100.396 -41.694 88.641 -53.66 Q76.886 -65.626 59.97 -65.626 Q57.301 -65.626 54.657 -65.226 Q52.013 -64.825 49.462 -64.116 Q46.627 -63.241 43.949 -64.33 Q41.269 -65.42 39.974 -68.1 Q38.679 -70.779 39.611 -73.445 Q40.542 -76.111 43.259 -76.982 Q47.279 -78.33 51.496 -78.975 Q55.715 -79.619 59.97 -79.619 Q71.293 -79.619 81.183 -75.289 Q91.073 -70.96 98.451 -63.527 Q105.829 -56.094 110.109 -46.101 Q114.389 -36.107 114.389 -24.73 Q114.389 -17.335 112.51 -10.365 Q110.63 -3.394 106.964 2.894 Q105.269 5.944 102.216 7.566 Q99.165 9.189 95.791 9.189 H24.275 Z"/></g><g id="Regular-M" transform="matrix(1 0 0 1 1394.06 1126)"><path d="M68.125 -16.98 Q71.375 -20.355 71.188 -25.042 Q71 -29.73 67.25 -32.23 Q59.5 -37.48 51.75 -42.73 Q44 -47.98 36.125 -53.355 Q33.875 -54.98 31.938 -52.98 Q30 -50.98 31.5 -48.73 Q36.75 -40.855 42 -33.042 Q47.25 -25.23 52.5 -17.48 Q55.136 -13.614 59.88 -13.546 Q64.625 -13.48 68.125 -16.98 Z M24.125 8.77 Q20.723 8.77 17.861 7.208 Q15 5.645 13.375 2.77 Q9.75 -3.73 7.875 -10.866 Q6 -18.004 6 -25.48 Q6 -30.025 6.812 -34.44 Q7.625 -38.855 9.125 -43.105 Q10 -45.605 12.5 -46.355 Q15 -47.105 17.438 -45.855 Q19.875 -44.605 20.812 -42.105 Q21.75 -39.605 20.875 -36.98 Q20.046 -34.142 19.585 -31.186 Q19.125 -28.23 19.125 -25.23 Q19.125 -19.644 20.5 -14.374 Q21.875 -9.105 24.5 -4.355 H95.5 Q98 -9.105 99.438 -14.167 Q100.875 -19.23 100.875 -24.757 Q100.875 -41.855 89 -53.98 Q77.125 -66.105 60 -66.105 Q57.125 -66.105 54.255 -65.645 Q51.385 -65.184 48.625 -64.355 Q46 -63.48 43.5 -64.48 Q41 -65.48 39.75 -67.98 Q38.5 -70.48 39.375 -72.98 Q40.25 -75.48 42.75 -76.355 Q46.875 -77.792 51.25 -78.511 Q55.625 -79.23 60 -79.23 Q71.24 -79.23 81.058 -74.917 Q90.875 -70.605 98.188 -63.23 Q105.5 -55.855 109.75 -45.917 Q114 -35.98 114 -24.694 Q114 -17.35 112.125 -10.415 Q110.25 -3.48 106.625 2.77 Q105 5.645 102.101 7.208 Q99.204 8.77 96 8.77 H24.125 Z"/></g><g id="Light-M" transform="matrix(1 0 0 1 1098.18 1126)"><path d="M67.644 -17.605 Q70.461 -20.547 70.297 -24.754 Q70.135 -28.961 66.769 -31.124 Q59.453 -35.845 52.231 -40.951 Q45.01 -46.056 37.725 -51.275 Q35.606 -52.865 33.812 -51.009 Q32.02 -49.152 33.489 -47.032 Q38.605 -39.742 43.721 -32.51 Q48.836 -25.277 53.75 -18.105 Q56.145 -14.671 60.337 -14.58 Q64.529 -14.49 67.644 -17.605 Z M24.078 6.27 Q21.356 6.27 19.067 5.02 Q16.779 3.77 15.443 1.52 Q12.057 -4.67 10.303 -11.466 Q8.549 -18.264 8.549 -25.384 Q8.549 -29.912 9.336 -34.311 Q10.125 -38.711 11.625 -42.961 Q12.31 -44.961 14.304 -45.529 Q16.299 -46.095 18.302 -45.134 Q20.308 -44.172 21.078 -42.129 Q21.846 -40.086 21.164 -37.99 Q20.142 -34.911 19.657 -31.702 Q19.172 -28.494 19.172 -25.23 Q19.172 -19.644 20.5 -14.374 Q21.828 -9.105 24.455 -4.355 H95.5 Q98 -9.105 99.438 -14.167 Q100.875 -19.23 100.875 -24.757 Q100.875 -41.855 89 -53.98 Q77.125 -66.105 60 -66.105 Q57.175 -66.105 54.352 -65.682 Q51.531 -65.26 48.818 -64.499 Q46.674 -63.769 44.63 -64.624 Q42.586 -65.48 41.625 -67.524 Q40.664 -69.566 41.367 -71.582 Q42.071 -73.6 44.144 -74.287 Q48.029 -75.485 52.019 -76.107 Q56.01 -76.73 59.904 -76.73 Q70.615 -76.73 80.024 -72.634 Q89.433 -68.537 96.409 -61.524 Q103.385 -54.509 107.442 -44.98 Q111.5 -35.451 111.5 -24.715 Q111.5 -17.731 109.745 -11.134 Q107.99 -4.537 104.51 1.328 Q103.218 3.674 100.892 4.971 Q98.569 6.27 96 6.27 H24.078 Z"/></g><g id="Thin-M" transform="matrix(1 0 0 1 802.565 1126)"><path d="M67.164 -18.23 Q69.547 -20.74 69.409 -24.465 Q69.269 -28.191 66.289 -30.019 Q59.404 -34.211 52.711 -39.172 Q46.019 -44.134 39.324 -49.195 Q37.336 -50.749 35.688 -49.037 Q34.039 -47.326 35.477 -45.336 Q40.46 -38.63 45.441 -31.979 Q50.422 -25.326 55 -18.73 Q57.155 -15.729 60.794 -15.614 Q64.433 -15.499 67.164 -18.23 Z M24.029 3.77 Q21.989 3.77 20.274 2.833 Q18.558 1.895 17.51 0.27 Q14.365 -5.609 12.731 -12.066 Q11.096 -18.522 11.096 -25.287 Q11.096 -29.8 11.86 -34.184 Q12.625 -38.566 14.125 -42.816 Q14.62 -44.317 16.109 -44.702 Q17.596 -45.086 19.169 -44.412 Q20.74 -43.74 21.341 -42.152 Q21.942 -40.566 21.453 -38.999 Q20.239 -35.68 19.73 -32.219 Q19.221 -28.756 19.221 -25.23 Q19.221 -19.644 20.5 -14.374 Q21.779 -9.105 24.409 -4.355 H95.5 Q98 -9.105 99.438 -14.167 Q100.875 -19.23 100.875 -24.757 Q100.875 -41.855 89 -53.98 Q77.125 -66.105 60 -66.105 Q57.225 -66.105 54.451 -65.72 Q51.678 -65.336 49.01 -64.644 Q47.346 -64.057 45.76 -64.769 Q44.172 -65.48 43.5 -67.066 Q42.828 -68.652 43.36 -70.186 Q43.894 -71.72 45.539 -72.22 Q49.182 -73.177 52.789 -73.704 Q56.394 -74.23 59.807 -74.23 Q69.99 -74.23 78.99 -70.35 Q87.99 -66.47 94.63 -59.816 Q101.269 -53.162 105.135 -44.042 Q109 -34.922 109 -24.737 Q109 -18.111 107.365 -11.854 Q105.731 -5.595 102.394 -0.115 Q101.434 1.703 99.684 2.736 Q97.934 3.77 96 3.77 H24.029 Z"/></g><g id="Ultralight-M" transform="matrix(1 0 0 1 506.415 1126)"><path d="M66.875 -18.605 Q69 -20.855 68.875 -24.292 Q68.75 -27.73 66 -29.355 Q59.375 -33.23 53 -38.105 Q46.625 -42.98 40.284 -47.946 Q38.375 -49.48 36.812 -47.855 Q35.25 -46.23 36.671 -44.317 Q41.572 -37.964 46.474 -31.659 Q51.375 -25.355 55.75 -19.105 Q57.761 -16.364 61.068 -16.234 Q64.375 -16.105 66.875 -18.605 Z M24 2.27 Q22.369 2.27 20.996 1.52 Q19.625 0.77 18.75 -0.48 Q15.75 -6.172 14.188 -12.425 Q12.625 -18.679 12.625 -25.23 Q12.625 -29.732 13.375 -34.106 Q14.125 -38.48 15.625 -42.73 Q16.006 -43.932 17.191 -44.206 Q18.375 -44.48 19.688 -43.98 Q21 -43.48 21.5 -42.167 Q22 -40.855 21.625 -39.605 Q20.296 -36.142 19.773 -32.529 Q19.25 -28.914 19.25 -25.23 Q19.25 -19.644 20.5 -14.374 Q21.75 -9.105 24.381 -4.355 H95.5 Q98 -9.105 99.438 -14.167 Q100.875 -19.23 100.875 -24.757 Q100.875 -41.855 89 -53.98 Q77.125 -66.105 60 -66.105 Q57.255 -66.105 54.51 -65.744 Q51.765 -65.381 49.125 -64.73 Q47.75 -64.23 46.438 -64.855 Q45.125 -65.48 44.625 -66.792 Q44.125 -68.105 44.555 -69.349 Q44.986 -70.591 46.375 -70.98 Q49.875 -71.792 53.25 -72.261 Q56.625 -72.73 59.75 -72.73 Q69.615 -72.73 78.37 -68.98 Q87.125 -65.23 93.562 -58.792 Q100 -52.355 103.75 -43.48 Q107.5 -34.605 107.5 -24.751 Q107.5 -18.34 105.938 -12.285 Q104.375 -6.23 101.125 -0.98 Q100.364 0.52 98.959 1.395 Q97.554 2.27 96 2.27 H24 Z"/></g><g id="Bold-S" transform="matrix(1 0 0 1 2294.23 696)"><path d="M53.159 -22.507 Q55.526 -24.776 55.427 -28.08 Q55.329 -31.384 52.532 -33.281 Q47.439 -36.315 42.355 -39.931 Q37.273 -43.547 32.241 -47.218 Q30.081 -48.742 28.256 -46.917 Q26.431 -45.092 27.955 -42.914 Q31.659 -37.7 35.308 -32.717 Q38.957 -27.734 42.403 -23.013 Q44.304 -20.341 47.449 -20.192 Q50.595 -20.042 53.159 -22.507 Z M18.246 -2.289 Q15.397 -2.289 12.876 -3.719 Q10.356 -5.149 8.975 -7.714 Q6.707 -11.659 5.868 -16.313 Q5.03 -20.967 5.03 -25.663 Q5.03 -29.634 5.622 -33.367 Q6.213 -37.1 7.496 -40.654 Q8.284 -43.021 10.652 -43.712 Q13.019 -44.402 15.386 -43.219 Q17.851 -42.134 18.689 -39.782 Q19.528 -37.429 18.936 -34.835 Q18.183 -32.597 17.869 -30.232 Q17.555 -27.867 17.555 -25.466 Q17.555 -22.751 17.999 -20.091 Q18.443 -17.431 19.232 -14.716 H75.35 Q76.237 -17.576 76.73 -20.153 Q77.223 -22.73 77.223 -25.505 Q77.223 -38.019 68.451 -46.832 Q59.677 -55.645 47.143 -55.645 Q45.86 -55.645 44.631 -55.628 Q43.403 -55.609 42.113 -55.547 Q39.549 -54.856 37.083 -55.941 Q34.617 -57.026 33.68 -59.492 Q32.744 -61.957 33.522 -64.233 Q34.3 -66.508 36.886 -67.086 Q39.402 -67.727 41.945 -67.9 Q44.488 -68.072 47.143 -68.072 Q55.997 -68.072 63.731 -64.762 Q71.466 -61.451 77.205 -55.689 Q82.944 -49.925 86.297 -42.215 Q89.65 -34.504 89.65 -25.658 Q89.65 -20.876 88.749 -16.273 Q87.847 -11.669 85.441 -7.7 Q84.029 -5.051 81.519 -3.67 Q79.01 -2.289 76.237 -2.289 H18.246 Z"/></g><g id="Semibold-S" transform="matrix(1 0 0 1 1998.1 696)"><path d="M53.201 -22.422 Q55.526 -24.733 55.427 -28.08 Q55.329 -31.426 52.546 -33.314 Q47.139 -36.615 41.757 -40.374 Q36.376 -44.133 31.041 -47.947 Q29.094 -49.342 27.463 -47.689 Q25.831 -46.035 27.183 -44.072 Q30.972 -38.598 34.772 -33.295 Q38.571 -27.992 42.231 -22.928 Q44.17 -20.213 47.382 -20.063 Q50.595 -19.914 53.201 -22.422 Z M18.032 -2.89 Q15.382 -2.89 13.084 -4.212 Q10.785 -5.535 9.532 -7.885 Q7.307 -11.787 6.469 -16.373 Q5.631 -20.958 5.631 -25.621 Q5.631 -29.81 6.35 -33.755 Q7.071 -37.701 8.524 -41.469 Q9.313 -43.579 11.424 -44.141 Q13.533 -44.702 15.665 -43.604 Q17.851 -42.563 18.561 -40.446 Q19.27 -38.33 18.636 -36.036 Q17.712 -33.497 17.291 -30.821 Q16.869 -28.147 16.869 -25.424 Q16.869 -22.507 17.378 -19.701 Q17.886 -16.894 18.717 -14.073 H75.907 Q76.838 -17.019 77.373 -19.75 Q77.91 -22.481 77.91 -25.454 Q77.91 -38.251 68.965 -47.291 Q60.02 -56.332 47.185 -56.332 Q45.606 -56.332 44.054 -56.227 Q42.502 -56.124 40.913 -55.89 Q38.648 -55.2 36.44 -56.155 Q34.232 -57.112 33.359 -59.32 Q32.486 -61.528 33.183 -63.565 Q33.881 -65.602 36.157 -66.185 Q38.823 -66.955 41.591 -67.235 Q44.359 -67.515 47.185 -67.515 Q55.921 -67.515 63.551 -64.229 Q71.182 -60.943 76.827 -55.263 Q82.472 -49.582 85.782 -41.951 Q89.093 -34.321 89.093 -25.605 Q89.093 -20.898 88.197 -16.345 Q87.302 -11.794 84.956 -7.877 Q83.643 -5.48 81.355 -4.185 Q79.067 -2.89 76.537 -2.89 H18.032 Z"/></g><g id="Medium-S" transform="matrix(1 0 0 1 1701.85 696)"><path d="M53.234 -22.357 Q55.526 -24.701 55.427 -28.08 Q55.329 -31.459 52.558 -33.338 Q46.913 -36.841 41.308 -40.707 Q35.702 -44.573 30.14 -48.494 Q28.355 -49.792 26.867 -48.268 Q25.381 -46.743 26.604 -44.94 Q30.458 -39.273 34.37 -33.729 Q38.281 -28.185 42.102 -22.863 Q44.07 -20.119 47.332 -19.968 Q50.595 -19.817 53.234 -22.357 Z M17.871 -3.34 Q15.371 -3.34 13.238 -4.582 Q11.106 -5.825 9.95 -8.013 Q7.757 -11.883 6.919 -16.418 Q6.08 -20.952 6.08 -25.588 Q6.08 -29.942 6.897 -34.046 Q7.714 -38.15 9.296 -42.08 Q10.085 -43.997 12.003 -44.462 Q13.919 -44.928 15.874 -43.894 Q17.851 -42.884 18.465 -40.944 Q19.077 -39.005 18.41 -36.936 Q17.358 -34.173 16.856 -31.264 Q16.355 -28.357 16.355 -25.391 Q16.355 -22.324 16.911 -19.408 Q17.467 -16.491 18.331 -13.591 H76.325 Q77.287 -16.601 77.856 -19.447 Q78.424 -22.293 78.424 -25.417 Q78.424 -38.424 69.351 -47.635 Q60.278 -56.846 47.218 -56.846 Q45.416 -56.846 43.621 -56.678 Q41.827 -56.509 40.012 -56.147 Q37.973 -55.457 35.958 -56.316 Q33.942 -57.176 33.117 -59.192 Q32.293 -61.207 32.93 -63.064 Q33.566 -64.921 35.611 -65.51 Q38.388 -66.376 41.325 -66.737 Q44.262 -67.097 47.218 -67.097 Q55.864 -67.097 63.417 -63.828 Q70.969 -60.561 76.544 -54.943 Q82.118 -49.324 85.396 -41.754 Q88.675 -34.183 88.675 -25.565 Q88.675 -20.914 87.784 -16.401 Q86.893 -11.886 84.592 -8.01 Q83.353 -5.801 81.231 -4.57 Q79.108 -3.34 76.763 -3.34 H17.871 Z"/></g><g id="Regular-S" transform="matrix(1 0 0 1 1405.73 696)"><path d="M53.258 -22.31 Q55.526 -24.677 55.427 -28.08 Q55.329 -31.482 52.567 -33.356 Q46.748 -37.005 40.979 -40.95 Q35.209 -44.895 29.48 -48.894 Q27.812 -50.122 26.431 -48.692 Q25.051 -47.262 26.18 -45.577 Q30.081 -39.767 34.075 -34.046 Q38.069 -28.326 42.008 -22.816 Q43.996 -20.049 47.295 -19.897 Q50.595 -19.746 53.258 -22.31 Z M17.753 -3.67 Q15.362 -3.67 13.352 -4.853 Q11.342 -6.037 10.257 -8.108 Q8.087 -11.954 7.249 -16.451 Q6.411 -20.948 6.411 -25.565 Q6.411 -30.038 7.298 -34.26 Q8.186 -38.481 9.863 -42.528 Q10.652 -44.303 12.427 -44.698 Q14.202 -45.092 16.027 -44.106 Q17.851 -43.12 18.394 -41.31 Q18.936 -39.5 18.246 -37.597 Q17.099 -34.668 16.537 -31.589 Q15.977 -28.511 15.977 -25.367 Q15.977 -22.19 16.569 -19.193 Q17.161 -16.195 18.048 -13.237 H76.632 Q77.618 -16.294 78.21 -19.225 Q78.801 -22.156 78.801 -25.389 Q78.801 -38.551 69.634 -47.888 Q60.466 -57.223 47.241 -57.223 Q45.277 -57.223 43.304 -57.008 Q41.332 -56.792 39.351 -56.336 Q37.477 -55.645 35.604 -56.434 Q33.73 -57.223 32.941 -59.097 Q32.152 -60.971 32.744 -62.697 Q33.335 -64.423 35.209 -65.015 Q38.069 -65.952 41.131 -66.371 Q44.192 -66.79 47.241 -66.79 Q55.822 -66.79 63.317 -63.535 Q70.813 -60.281 76.336 -54.708 Q81.859 -49.136 85.113 -41.609 Q88.368 -34.082 88.368 -25.536 Q88.368 -20.925 87.48 -16.44 Q86.593 -11.954 84.324 -8.108 Q83.141 -6.037 81.14 -4.853 Q79.139 -3.67 76.928 -3.67 H17.753 Z"/></g><g id="Light-S" transform="matrix(1 0 0 1 1109.75 696)"><path d="M52.878 -22.803 Q54.805 -24.829 54.725 -27.852 Q54.646 -30.876 52.187 -32.483 Q46.711 -35.715 41.358 -39.547 Q36.006 -43.377 30.742 -47.253 Q29.178 -48.454 27.911 -47.137 Q26.645 -45.82 27.749 -44.237 Q31.544 -38.889 35.433 -33.626 Q39.321 -28.364 42.995 -23.309 Q44.792 -20.883 47.656 -20.712 Q50.519 -20.543 52.878 -22.803 Z M17.715 -5.642 Q15.862 -5.642 14.304 -6.579 Q12.745 -7.516 11.888 -9.094 Q9.908 -12.696 9.164 -16.924 Q8.422 -21.153 8.422 -25.489 Q8.422 -29.95 9.289 -34.158 Q10.158 -38.367 11.835 -42.415 Q12.474 -43.796 13.85 -44.046 Q15.227 -44.296 16.709 -43.537 Q18.192 -42.779 18.603 -41.329 Q19.012 -39.879 18.473 -38.394 Q17.175 -35.274 16.595 -31.996 Q16.015 -28.718 16.015 -25.367 Q16.015 -22.19 16.569 -19.193 Q17.123 -16.195 18.013 -13.237 H76.632 Q77.618 -16.294 78.21 -19.225 Q78.801 -22.156 78.801 -25.389 Q78.801 -38.551 69.634 -47.888 Q60.466 -57.223 47.241 -57.223 Q45.316 -57.223 43.381 -57.038 Q41.447 -56.853 39.503 -56.449 Q38.009 -55.873 36.495 -56.548 Q34.981 -57.223 34.42 -58.737 Q33.859 -60.25 34.316 -61.594 Q34.772 -62.94 36.309 -63.383 Q38.98 -64.131 41.737 -64.474 Q44.495 -64.817 47.165 -64.817 Q55.329 -64.817 62.502 -61.733 Q69.675 -58.649 74.932 -53.362 Q80.19 -48.074 83.293 -40.869 Q86.395 -33.665 86.395 -25.553 Q86.395 -21.226 85.603 -17.007 Q84.81 -12.789 82.656 -9.246 Q81.734 -7.592 80.186 -6.618 Q78.639 -5.642 76.928 -5.642 H17.715 Z"/></g><g id="Thin-S" transform="matrix(1 0 0 1 814.015 696)"><path d="M52.499 -23.296 Q54.084 -24.981 54.024 -27.624 Q53.963 -30.268 51.809 -31.611 Q46.672 -34.426 41.737 -38.143 Q36.802 -41.861 32.004 -45.612 Q30.543 -46.784 29.39 -45.582 Q28.237 -44.379 29.318 -42.899 Q33.008 -38.011 36.79 -33.207 Q40.572 -28.402 43.981 -23.802 Q45.588 -21.717 48.016 -21.528 Q50.443 -21.339 52.499 -23.296 Z M17.677 -7.615 Q16.361 -7.615 15.255 -8.305 Q14.149 -8.996 13.52 -10.081 Q11.728 -13.437 11.081 -17.398 Q10.432 -21.357 10.432 -25.413 Q10.432 -29.861 11.281 -34.057 Q12.131 -38.253 13.808 -42.3 Q14.297 -43.288 15.274 -43.394 Q16.25 -43.5 17.393 -42.968 Q18.534 -42.438 18.811 -41.348 Q19.088 -40.259 18.701 -39.19 Q17.25 -35.881 16.652 -32.403 Q16.053 -28.926 16.053 -25.367 Q16.053 -22.19 16.569 -19.193 Q17.085 -16.195 17.976 -13.237 H76.632 Q77.618 -16.294 78.21 -19.225 Q78.801 -22.156 78.801 -25.389 Q78.801 -38.551 69.634 -47.888 Q60.466 -57.223 47.241 -57.223 Q45.355 -57.223 43.458 -57.068 Q41.563 -56.913 39.655 -56.564 Q38.54 -56.101 37.387 -56.662 Q36.233 -57.223 35.9 -58.376 Q35.566 -59.529 35.888 -60.493 Q36.21 -61.456 37.409 -61.752 Q39.89 -62.31 42.345 -62.578 Q44.798 -62.845 47.089 -62.845 Q54.836 -62.845 61.686 -59.932 Q68.536 -57.018 73.529 -52.015 Q78.52 -47.012 81.472 -40.13 Q84.423 -33.248 84.423 -25.571 Q84.423 -21.526 83.725 -17.575 Q83.027 -13.623 80.986 -10.384 Q80.327 -9.148 79.232 -8.381 Q78.138 -7.615 76.928 -7.615 H17.677 Z"/></g><g id="Ultralight-S" transform="matrix(1 0 0 1 517.792 696)"><path d="M52.271 -23.592 Q53.652 -25.072 53.603 -27.488 Q53.553 -29.904 51.581 -31.088 Q46.65 -33.652 41.965 -37.301 Q37.28 -40.95 32.761 -44.628 Q31.363 -45.783 30.278 -44.649 Q29.193 -43.514 30.26 -42.095 Q33.886 -37.486 37.605 -32.955 Q41.324 -28.425 44.573 -24.098 Q46.067 -22.218 48.232 -22.017 Q50.397 -21.817 52.271 -23.592 Z M17.654 -8.798 Q16.661 -8.798 15.826 -9.341 Q14.991 -9.883 14.498 -10.672 Q12.821 -13.882 12.229 -17.681 Q11.638 -21.481 11.638 -25.367 Q11.638 -29.808 12.476 -33.996 Q13.314 -38.185 14.991 -42.232 Q15.39 -42.984 16.128 -43.003 Q16.865 -43.021 17.802 -42.627 Q18.739 -42.232 18.936 -41.36 Q19.133 -40.487 18.837 -39.668 Q17.296 -36.246 16.685 -32.648 Q16.076 -29.05 16.076 -25.367 Q16.076 -22.19 16.569 -19.193 Q17.062 -16.195 17.955 -13.237 H76.632 Q77.618 -16.294 78.21 -19.225 Q78.801 -22.156 78.801 -25.389 Q78.801 -38.551 69.634 -47.888 Q60.466 -57.223 47.241 -57.223 Q45.378 -57.223 43.505 -57.086 Q41.632 -56.948 39.746 -56.632 Q38.858 -56.237 37.921 -56.73 Q36.984 -57.223 36.787 -58.16 Q36.59 -59.097 36.831 -59.832 Q37.072 -60.566 38.069 -60.774 Q40.436 -61.218 42.709 -61.44 Q44.981 -61.661 47.044 -61.661 Q54.54 -61.661 61.197 -58.851 Q67.854 -56.04 72.687 -51.207 Q77.519 -46.375 80.379 -39.686 Q83.24 -32.997 83.24 -25.582 Q83.24 -21.707 82.598 -17.915 Q81.957 -14.124 79.985 -11.067 Q79.483 -10.081 78.66 -9.44 Q77.837 -8.798 76.928 -8.798 H17.654 Z"/></g></g></svg>