<svg xmlns="http://www.w3.org/2000/svg" version="1.1" width="3300" height="2000"><g id="Notes"><style>
    text {
      font-family: monospace;
      text-anchor: middle;
    }
    text.emphasis {
      font-weight:bold;
    }
    text.lanchor {
      text-anchor: start;
    }
  </style><rect height="2200" id="artboard" fill="white" width="3300" x="0" y="0"/><line id="" style="fill:none;stroke:black;stroke-width:0.5;" x1="263" x2="3036" y1="292" y2="292"/><text class="lanchor emphasis" transform="matrix(1 0 0 1 263 322)">Weight/Scale Variations</text><text transform="matrix(1 0 0 1 559.711 322)">Ultralight</text><text transform="matrix(1 0 0 1 856.422 322)">Thin</text><text transform="matrix(1 0 0 1 1153.13 322)">Light</text><text transform="matrix(1 0 0 1 1449.84 322)">Regular</text><text transform="matrix(1 0 0 1 1746.56 322)">Medium</text><text transform="matrix(1 0 0 1 2043.27 322)">Semibold</text><text transform="matrix(1 0 0 1 2339.98 322)">Bold</text><text transform="matrix(1 0 0 1 2636.69 322)">Heavy</text><text transform="matrix(1 0 0 1 2933.4 322)">Black</text><text id="template-version" style="text-anchor: end;" transform="matrix(1 0 0 1 3036 1933)">Template v.1.0</text><text class="lanchor" transform="matrix(1 0 0 1 263 726)">Small</text><text class="lanchor" transform="matrix(1 0 0 1 263 1156)">Medium</text><text class="lanchor" transform="matrix(1 0 0 1 263 1586)">Large</text></g><g id="Guides"><g id="H-reference" style="fill:#27AAE1;stroke:none;" transform="matrix(1 0 0 1 339 696)"><path d="M 54.9316 0 L 57.666 0 L 30.5664 -70.459 L 28.0762 -70.459 L 0.976562 0 L 3.66211 0 L 12.9395 -24.4629 L 45.7031 -24.4629 Z M 29.1992 -67.0898 L 29.4434 -67.0898 L 44.8242 -26.709 L 13.8184 -26.709 Z"/></g><line id="Baseline-S" style="fill:none;stroke:#27AAE1;opacity:1;stroke-width:0.577;" x1="263" x2="3036" y1="696" y2="696"/><line id="Capline-S" style="fill:none;stroke:#27AAE1;opacity:1;stroke-width:0.577;" x1="263" x2="3036" y1="625.541" y2="625.541"/><g id="H-reference" style="fill:#27AAE1;stroke:none;" transform="matrix(1 0 0 1 339 1126)"><path d="M 54.9316 0 L 57.666 0 L 30.5664 -70.459 L 28.0762 -70.459 L 0.976562 0 L 3.66211 0 L 12.9395 -24.4629 L 45.7031 -24.4629 Z M 29.1992 -67.0898 L 29.4434 -67.0898 L 44.8242 -26.709 L 13.8184 -26.709 Z"/></g><line id="Baseline-M" style="fill:none;stroke:#27AAE1;opacity:1;stroke-width:0.577;" x1="263" x2="3036" y1="1126" y2="1126"/><line id="Capline-M" style="fill:none;stroke:#27AAE1;opacity:1;stroke-width:0.577;" x1="263" x2="3036" y1="1055.54" y2="1055.54"/><g id="H-reference" style="fill:#27AAE1;stroke:none;" transform="matrix(1 0 0 1 339 1556)"><path d="M 54.9316 0 L 57.666 0 L 30.5664 -70.459 L 28.0762 -70.459 L 0.976562 0 L 3.66211 0 L 12.9395 -24.4629 L 45.7031 -24.4629 Z M 29.1992 -67.0898 L 29.4434 -67.0898 L 44.8242 -26.709 L 13.8184 -26.709 Z"/></g><line id="Baseline-L" style="fill:none;stroke:#27AAE1;opacity:1;stroke-width:0.577;" x1="263" x2="3036" y1="1556" y2="1556"/><line id="Capline-L" style="fill:none;stroke:#27AAE1;opacity:1;stroke-width:0.577;" x1="263" x2="3036" y1="1485.54" y2="1485.54"/><rect height="119.336" id="left-margin" style="fill:darkred;stroke:none;opacity:0.4;" width="12.4512" x="1394.06" y="1030.79"/><rect height="119.336" id="right-margin" style="fill:darkgreen;stroke:none;opacity:0.4;" width="12.4512" x="1502.5112" y="1030.79"/><rect x="1406.5112" y="1045" width="96" height="96" fill="none" stroke="blue" stroke-dasharray="5"/><rect x="1394.06" y="1030.79" width="120.9024" height="119.336" fill="none" stroke="blue"/></g><g id="Symbols"><g id="Bold-L" transform="matrix(1 0 0 1 2266 1556)"><path d="M87.881 37.494 Q81.888 37.494 77.547 33.106 Q73.207 28.72 73.207 22.659 V-10.397 Q73.207 -16.223 77.547 -20.647 Q81.888 -25.071 87.881 -25.071 H137.708 Q143.533 -25.071 147.957 -20.647 Q152.381 -16.223 152.381 -10.397 V22.659 Q152.381 28.72 147.957 33.106 Q143.533 37.494 137.708 37.494 H87.881 Z M87.075 23.788 H138.675 Q138.675 23.788 138.675 23.788 Q138.675 23.788 138.675 23.788 V9.598 H87.075 V23.788 Q87.075 23.788 87.075 23.788 Q87.075 23.788 87.075 23.788 Z M87.075 -1.69 H138.675 V-11.365 Q138.675 -11.365 138.675 -11.365 Q138.675 -11.365 138.675 -11.365 H87.075 Q87.075 -11.365 87.075 -11.365 Q87.075 -11.365 87.075 -11.365 V-1.69 Z M77.4 -103.439  132.709 -82.799 V-34.746 H117.874 V-72.64 L77.4 -87.797 L36.926 -72.567 V-42.164 Q36.926 -25.96 44.183 -12.374 Q51.439 1.213 63.532 9.275 V22.659 Q63.532 24.002 63.774 25.347 Q64.016 26.69 64.339 27.658 Q45.374 18.094 33.813 -0.887 Q22.253 -19.866 22.253 -42.164 V-82.792 L77.4 -103.439 Z"/></g><g id="Semibold-L" transform="matrix(1 0 0 1 1970.27 1556)"><path d="M87.531 36.723 Q82.128 36.723 78.124 32.692 Q74.119 28.659 74.119 23.22 V-10.048 Q74.119 -15.353 78.124 -19.407 Q82.128 -23.459 87.531 -23.459 H138.619 Q143.925 -23.459 147.978 -19.407 Q152.031 -15.353 152.031 -10.048 V23.22 Q152.031 28.659 147.978 32.692 Q143.925 36.723 138.619 36.723 H87.531 Z M86.725 24.208 H139.517 Q139.517 24.208 139.517 24.208 Q139.517 24.208 139.517 24.208 V9.878 H86.725 V24.208 Q86.725 24.208 86.725 24.208 Q86.725 24.208 86.725 24.208 Z M86.725 -1.269 H139.517 V-10.944 Q139.517 -10.944 139.517 -10.944 Q139.517 -10.944 139.517 -10.944 H86.725 Q86.725 -10.944 86.725 -10.944 Q86.725 -10.944 86.725 -10.944 V-1.269 Z M77.4 -103.089  132.148 -82.589 V-33.134 H118.645 V-73.27 L77.4 -88.78 L36.155 -73.232 V-42.164 Q36.155 -25.223 43.866 -11.023 Q51.579 3.175 64.444 11.518 V23.22 Q64.444 24.494 64.65 25.697 Q64.858 26.9 65.18 27.867 Q46.117 18.536 34.43 -0.627 Q22.743 -19.79 22.743 -42.164 V-82.557 L77.4 -103.089 Z"/></g><g id="Medium-L" transform="matrix(1 0 0 1 1674.31 1556)"><path d="M87.269 36.144 Q82.31 36.144 78.556 32.379 Q74.802 28.614 74.802 23.641 V-9.785 Q74.802 -14.701 78.556 -18.476 Q82.31 -22.249 87.269 -22.249 H139.302 Q144.22 -22.249 147.994 -18.476 Q151.769 -14.701 151.769 -9.785 V23.641 Q151.769 28.614 147.994 32.379 Q144.22 36.144 139.302 36.144 H87.269 Z M86.462 24.524 H140.147 Q140.147 24.524 140.147 24.524 Q140.147 24.524 140.147 24.524 V10.088 H86.462 V24.524 Q86.462 24.524 86.462 24.524 Q86.462 24.524 86.462 24.524 Z M86.462 -0.953 H140.147 V-10.628 Q140.147 -10.628 140.147 -10.628 Q140.147 -10.628 140.147 -10.628 H86.462 Q86.462 -10.628 86.462 -10.628 Q86.462 -10.628 86.462 -10.628 V-0.953 Z M77.4 -102.826  131.727 -82.431 V-31.924 H119.223 V-73.745 L77.4 -89.515 L35.577 -73.73 V-42.164 Q35.577 -24.67 43.631 -10.01 Q51.684 4.647 65.127 13.201 V23.641 Q65.127 24.861 65.308 25.96 Q65.488 27.058 65.811 28.025 Q46.675 18.868 34.893 -0.432 Q23.112 -19.732 23.112 -42.164 V-82.381 L77.4 -102.826 Z"/></g><g id="Regular-L" transform="matrix(1 0 0 1 1378.56 1556)"><path d="M87.075 35.72 Q82.444 35.72 78.874 32.15 Q75.304 28.58 75.304 23.949 V-9.591 Q75.304 -14.224 78.874 -17.792 Q82.444 -21.362 87.075 -21.362 H139.804 Q144.435 -21.362 148.005 -17.792 Q151.575 -14.224 151.575 -9.591 V23.949 Q151.575 28.58 148.005 32.15 Q144.435 35.72 139.804 35.72 H87.075 Z M86.269 24.755 H140.61 Q140.61 24.755 140.61 24.755 Q140.61 24.755 140.61 24.755 V10.243 H86.269 V24.755 Q86.269 24.755 86.269 24.755 Q86.269 24.755 86.269 24.755 Z M86.269 -0.722 H140.61 V-10.397 Q140.61 -10.397 140.61 -10.397 Q140.61 -10.397 140.61 -10.397 H86.269 Q86.269 -10.397 86.269 -10.397 Q86.269 -10.397 86.269 -10.397 V-0.722 Z M77.4 -102.632  131.419 -82.315 V-31.037 H119.648 V-74.091 L77.4 -90.055 L35.153 -74.096 V-42.164 Q35.153 -24.265 43.457 -9.269 Q51.761 5.728 65.629 14.435 V23.949 Q65.629 25.131 65.79 26.153 Q65.951 27.174 66.274 28.141 Q47.085 19.111 35.233 -0.289 Q23.381 -19.689 23.381 -42.164 V-82.25 L77.4 -102.632 Z"/></g><g id="Light-L" transform="matrix(1 0 0 1 1082.77 1556)"><path d="M87.075 32.495 Q82.52 32.495 79.098 29.073 Q75.676 25.652 75.676 21.096 V-9.591 Q75.676 -14.147 79.098 -17.568 Q82.52 -20.99 87.075 -20.99 H136.951 Q141.507 -20.99 144.928 -17.568 Q148.35 -14.147 148.35 -9.591 V21.096 Q148.35 25.652 144.928 29.073 Q141.507 32.495 136.951 32.495 H87.075 Z M86.269 23.886 H137.757 Q138.625 23.886 139.183 23.328 Q139.741 22.77 139.741 21.902 V7.637 H84.284 V21.902 Q84.284 22.77 84.842 23.328 Q85.4 23.886 86.269 23.886 Z M84.284 -0.971 H139.741 V-10.397 Q139.741 -11.267 139.183 -11.825 Q138.625 -12.382 137.757 -12.382 H86.269 Q85.4 -12.382 84.842 -11.825 Q84.284 -11.267 84.284 -10.397 V-0.971 Z M77.4 -99.098  128.194 -80.02 V-32.774 H118.778 V-73.47 L77.4 -89.063 L36.022 -73.477 V-41.854 Q36.022 -25.01 43.612 -10.757 Q51.203 3.494 63.892 12.078 V20.6 Q63.892 21.287 63.992 21.873 Q64.09 22.46 64.352 22.993 Q47.395 14.087 37 -3.607 Q26.606 -21.301 26.606 -41.854 V-79.956 L77.4 -99.098 Z"/></g><g id="Thin-L" transform="matrix(1 0 0 1 787.282 1556)"><path d="M87.075 29.27 Q82.595 29.27 79.322 25.997 Q76.049 22.723 76.049 18.244 V-9.591 Q76.049 -14.071 79.322 -17.344 Q82.595 -20.618 87.075 -20.618 H134.099 Q138.578 -20.618 141.852 -17.344 Q145.125 -14.071 145.125 -9.591 V18.244 Q145.125 22.723 141.852 25.997 Q138.578 29.27 134.099 29.27 H87.075 Z M86.269 23.018 H134.905 Q136.64 23.018 137.757 21.902 Q138.873 20.785 138.873 19.05 V5.033 H82.299 V19.05 Q82.299 20.785 83.416 21.902 Q84.532 23.018 86.269 23.018 Z M82.299 -1.219 H138.873 V-10.397 Q138.873 -12.134 137.757 -13.25 Q136.64 -14.367 134.905 -14.367 H86.269 Q84.532 -14.367 83.416 -13.25 Q82.299 -12.134 82.299 -10.397 V-1.219 Z M77.4 -95.562  124.969 -77.726 V-34.511 H117.911 V-72.851 L77.4 -88.07 L36.889 -72.856 V-41.543 Q36.889 -25.753 43.766 -12.245 Q50.645 1.262 62.155 9.722 V17.25 Q62.155 17.441 62.193 17.594 Q62.23 17.747 62.428 17.845 Q47.706 9.064 38.768 -6.926 Q29.831 -22.914 29.831 -41.543 V-77.661 L77.4 -95.562 Z"/></g><g id="Ultralight-L" transform="matrix(1 0 0 1 491.205 1556)"><path d="M87.075 27.335 Q82.641 27.335 79.456 24.15 Q76.271 20.966 76.271 16.531 V-9.591 Q76.271 -14.026 79.456 -17.21 Q82.641 -20.395 87.075 -20.395 H132.386 Q136.821 -20.395 140.005 -17.21 Q143.19 -14.026 143.19 -9.591 V16.531 Q143.19 20.966 140.005 24.15 Q136.821 27.335 132.386 27.335 H87.075 Z M86.269 22.498 H133.192 Q135.45 22.498 136.901 21.046 Q138.352 19.595 138.352 17.338 V3.47 H81.109 V17.338 Q81.109 19.595 82.56 21.046 Q84.011 22.498 86.269 22.498 Z M81.109 -1.367 H138.352 V-10.397 Q138.352 -12.655 136.901 -14.106 Q135.45 -15.557 133.192 -15.557 H86.269 Q84.011 -15.557 82.56 -14.106 Q81.109 -12.655 81.109 -10.397 V-1.367 Z M77.4 -93.441  123.034 -76.349 V-35.552 H117.39 V-72.479 L77.4 -87.475 L37.41 -72.484 V-41.357 Q37.41 -26.2 43.86 -13.139 Q50.31 -0.077 61.114 8.308 V15.241 Q61.114 15.133 61.114 15.027 Q61.114 14.919 61.275 14.758 Q47.891 6.05 39.829 -8.916 Q31.766 -23.881 31.766 -41.357 V-76.284 L77.4 -93.441 Z"/></g><g id="Bold-M" transform="matrix(1 0 0 1 2281.8 1126)"><path d="M71.875 28.645 Q64.735 28.645 59.805 23.715 Q54.875 18.785 54.875 11.645 V-9.23 Q54.875 -16.371 59.805 -21.3 Q64.735 -26.23 71.875 -26.23 H104.875 Q112.016 -26.23 116.945 -21.3 Q121.875 -16.371 121.875 -9.23 V11.645 Q121.875 18.785 116.945 23.715 Q112.016 28.645 104.875 28.645 H71.875 Z M70.25 13.395 H106.625 Q106.625 13.395 106.625 13.395 Q106.625 13.395 106.625 13.395 V6.77 H70.25 V13.395 Q70.25 13.395 70.25 13.395 Q70.25 13.395 70.25 13.395 Z M70.25 -5.98 H106.625 V-10.98 Q106.625 -10.98 106.625 -10.98 Q106.625 -10.98 106.625 -10.98 H70.25 Q70.25 -10.98 70.25 -10.98 Q70.25 -10.98 70.25 -10.98 V-5.98 Z M60 -91.23  105.75 -74.105 V-36.23 H88.75 V-62.48 L60 -73.105 L31.25 -62.427 V-39.73 Q31.25 -30.105 35 -21.667 Q38.75 -13.23 44.875 -6.98 V11.645 Q44.875 12.395 45 13.208 Q45.125 14.02 45.125 14.77 Q31.299 6.481 22.774 -8.135 Q14.25 -22.75 14.25 -39.73 V-74.152 L60 -91.23 Z"/></g><g id="Semibold-M" transform="matrix(1 0 0 1 1985.97 1126)"><path d="M71.06 26.96 Q64.647 26.96 60.169 22.481 Q55.69 18.003 55.69 11.591 V-9.774 Q55.69 -16.186 60.169 -20.665 Q64.647 -25.142 71.06 -25.142 H105.69 Q112.103 -25.142 116.581 -20.665 Q121.06 -16.186 121.06 -9.774 V11.591 Q121.06 18.003 116.581 22.481 Q112.103 26.96 105.69 26.96 H71.06 Z M69.597 13.124 H107.222 Q107.222 13.124 107.222 13.124 Q107.222 13.124 107.222 13.124 V6.118 H69.597 V13.124 Q69.597 13.124 69.597 13.124 Q69.597 13.124 69.597 13.124 Z M69.597 -6.306 H107.222 V-11.306 Q107.222 -11.306 107.222 -11.306 Q107.222 -11.306 107.222 -11.306 H69.597 Q69.597 -11.306 69.597 -11.306 Q69.597 -11.306 69.597 -11.306 V-6.306 Z M60 -90.469  104.88 -73.616 V-35.142 H89.511 V-63.077 L60 -74.084 L30.489 -63.051 V-39.73 Q30.489 -29.399 34.646 -20.364 Q38.804 -11.327 45.69 -4.915 V11.591 Q45.69 12.286 45.761 13.018 Q45.831 13.749 45.886 14.444 Q32.093 6.444 23.606 -8.192 Q15.12 -22.829 15.12 -39.73 V-73.642 L60 -90.469 Z"/></g><g id="Medium-M" transform="matrix(1 0 0 1 1689.91 1126)"><path d="M70.449 25.696 Q64.582 25.696 60.443 21.556 Q56.301 17.416 56.301 11.55 V-10.181 Q56.301 -16.047 60.443 -20.187 Q64.582 -24.327 70.449 -24.327 H106.301 Q112.168 -24.327 116.308 -20.187 Q120.449 -16.047 120.449 -10.181 V11.55 Q120.449 17.416 116.308 21.556 Q112.168 25.696 106.301 25.696 H70.449 Z M69.109 12.92 H107.671 Q107.671 12.92 107.671 12.92 Q107.671 12.92 107.671 12.92 V5.629 H69.109 V12.92 Q69.109 12.92 69.109 12.92 Q69.109 12.92 69.109 12.92 Z M69.109 -6.551 H107.671 V-11.551 Q107.671 -11.551 107.671 -11.551 Q107.671 -11.551 107.671 -11.551 H69.109 Q69.109 -11.551 69.109 -11.551 Q69.109 -11.551 69.109 -11.551 V-6.551 Z M60 -89.899  104.229 -73.249 V-34.327 H90.081 V-63.526 L60 -74.817 L29.919 -63.52 V-39.73 Q29.919 -28.869 34.381 -19.385 Q38.845 -9.901 46.301 -3.366 V11.55 Q46.301 12.205 46.331 12.875 Q46.361 13.545 46.456 14.199 Q32.689 6.415 24.23 -8.236 Q15.771 -22.887 15.771 -39.73 V-73.26 L60 -89.899 Z"/></g><g id="Regular-M" transform="matrix(1 0 0 1 1394.06 1126)"><path d="M70 24.77 Q64.535 24.77 60.642 20.878 Q56.75 16.985 56.75 11.52 V-10.48 Q56.75 -15.946 60.642 -19.837 Q64.535 -23.73 70 -23.73 H106.75 Q112.215 -23.73 116.108 -19.837 Q120 -15.946 120 -10.48 V11.52 Q120 16.985 116.108 20.878 Q112.215 24.77 106.75 24.77 H70 Z M68.75 12.77 H108 Q108 12.77 108 12.77 Q108 12.77 108 12.77 V5.27 H68.75 V12.77 Q68.75 12.77 68.75 12.77 Q68.75 12.77 68.75 12.77 Z M68.75 -6.73 H108 V-11.73 Q108 -11.73 108 -11.73 Q108 -11.73 108 -11.73 H68.75 Q68.75 -11.73 68.75 -11.73 Q68.75 -11.73 68.75 -11.73 V-6.73 Z M60 -89.48  103.75 -72.98 V-33.73 H90.5 V-63.855 L60 -75.355 L29.5 -63.862 V-39.73 Q29.5 -28.48 34.188 -18.667 Q38.875 -8.855 46.75 -2.23 V11.52 Q46.75 12.145 46.75 12.77 Q46.75 13.395 46.875 14.02 Q33.125 6.395 24.688 -8.269 Q16.25 -22.931 16.25 -39.73 V-72.98 L60 -89.48 Z"/></g><g id="Light-M" transform="matrix(1 0 0 1 1098.18 1126)"><path d="M70 22.27 Q64.871 22.27 61.291 18.69 Q57.711 15.11 57.711 9.981 V-10.48 Q57.711 -15.609 61.291 -19.189 Q64.871 -22.769 70 -22.769 H105.211 Q110.34 -22.769 113.92 -19.189 Q117.5 -15.609 117.5 -10.48 V9.981 Q117.5 15.11 113.92 18.69 Q110.34 22.27 105.211 22.27 H70 Z M68.75 12.77 H106.461 Q107.135 12.77 107.567 12.338 Q108 11.905 108 11.231 V3.25 H67.211 V11.231 Q67.211 11.905 67.644 12.338 Q68.076 12.77 68.75 12.77 Z M67.211 -6.249 H108 V-11.73 Q108 -12.404 107.567 -12.836 Q107.135 -13.269 106.461 -13.269 H68.75 Q68.076 -13.269 67.644 -12.836 Q67.211 -12.404 67.211 -11.73 V-6.249 Z M60 -86.787  101.25 -71.249 V-33.73 H90.5 V-63.855 L60 -75.307 L29.5 -63.862 V-39.73 Q29.5 -28.48 34.188 -18.667 Q38.875 -8.855 46.75 -2.23 V9.596 Q46.75 9.885 46.75 10.174 Q46.75 10.463 46.779 10.75 Q34.182 3.366 26.466 -10.311 Q18.75 -23.989 18.75 -39.73 V-71.249 L60 -86.787 Z"/></g><g id="Thin-M" transform="matrix(1 0 0 1 802.565 1126)"><path d="M70 19.77 Q65.207 19.77 61.94 16.503 Q58.672 13.236 58.672 8.443 V-10.48 Q58.672 -15.272 61.94 -18.54 Q65.207 -21.807 70 -21.807 H103.672 Q108.466 -21.807 111.733 -18.54 Q115 -15.272 115 -10.48 V8.443 Q115 13.236 111.733 16.503 Q108.466 19.77 103.672 19.77 H70 Z M68.75 12.77 H104.922 Q106.269 12.77 107.135 11.905 Q108 11.039 108 9.693 V1.231 H65.672 V9.693 Q65.672 11.039 66.539 11.905 Q67.404 12.77 68.75 12.77 Z M65.672 -5.769 H108 V-11.73 Q108 -13.076 107.135 -13.941 Q106.269 -14.807 104.922 -14.807 H68.75 Q67.404 -14.807 66.539 -13.941 Q65.672 -13.076 65.672 -11.73 V-5.769 Z M60 -84.095  98.75 -69.519 V-33.73 H90.5 V-63.855 L60 -75.259 L29.5 -63.862 V-39.73 Q29.5 -28.48 34.188 -18.667 Q38.875 -8.855 46.75 -2.23 V7.674 Q46.75 7.626 46.75 7.578 Q46.75 7.53 46.682 7.481 Q35.24 0.338 28.245 -12.355 Q21.25 -25.046 21.25 -39.73 V-69.519 L60 -84.095 Z"/></g><g id="Ultralight-M" transform="matrix(1 0 0 1 506.415 1126)"><path d="M70 18.27 Q65.41 18.27 62.33 15.19 Q59.25 12.11 59.25 7.52 V-10.48 Q59.25 -15.071 62.33 -18.15 Q65.41 -21.23 70 -21.23 H102.75 Q107.34 -21.23 110.42 -18.15 Q113.5 -15.071 113.5 -10.48 V7.52 Q113.5 12.11 110.42 15.19 Q107.34 18.27 102.75 18.27 H70 Z M68.75 12.77 H104 Q105.75 12.77 106.875 11.645 Q108 10.52 108 8.77 V0.02 H64.75 V8.77 Q64.75 10.52 65.875 11.645 Q67 12.77 68.75 12.77 Z M64.75 -5.48 H108 V-11.73 Q108 -13.48 106.875 -14.605 Q105.75 -15.73 104 -15.73 H68.75 Q67 -15.73 65.875 -14.605 Q64.75 -13.48 64.75 -11.73 V-5.48 Z M60 -82.48  97.25 -68.48 V-33.73 H90.5 V-63.855 L60 -75.23 L29.5 -63.862 V-39.73 Q29.5 -28.48 34.188 -18.667 Q38.875 -8.855 46.75 -2.23 V6.52 Q46.75 6.27 46.75 6.02 Q46.75 5.77 46.625 5.52 Q35.875 -1.48 29.312 -13.581 Q22.75 -25.681 22.75 -39.73 V-68.48 L60 -82.48 Z"/></g><g id="Bold-S" transform="matrix(1 0 0 1 2294.23 696)"><path d="M55.131 13.589 Q49.498 13.589 46.003 10.094 Q42.507 6.599 42.507 0.965 V-17.083 Q42.507 -22.717 46.003 -26.212 Q49.498 -29.707 55.131 -29.707 H82.746 Q88.381 -29.707 91.875 -26.212 Q95.37 -22.717 95.37 -17.083 V0.965 Q95.37 6.599 91.875 10.094 Q88.381 13.589 82.746 13.589 H55.131 Z M53.849 2.346 H84.127 Q84.127 2.346 84.127 2.346 Q84.127 2.346 84.127 2.346 V-4.459 H53.849 V2.346 Q53.849 2.346 53.849 2.346 Q53.849 2.346 53.849 2.346 Z M53.849 -13.73 H84.127 V-18.464 Q84.127 -18.464 84.127 -18.464 Q84.127 -18.464 84.127 -18.464 H53.849 Q53.849 -18.464 53.849 -18.464 Q53.849 -18.464 53.849 -18.464 V-13.73 Z M47.34 -77.836  82.648 -64.324 V-36.808 H70.024 V-55.744 L47.34 -64.324 L24.656 -55.703 V-38.682 Q24.656 -31.186 27.615 -24.712 Q30.574 -18.236 35.406 -13.434 V0.965 Q35.406 1.335 35.505 1.754 Q35.604 2.174 35.505 2.543 Q24.892 -3.898 18.462 -14.896 Q12.032 -25.895 12.032 -38.682 V-64.362 L47.34 -77.836 Z"/></g><g id="Semibold-S" transform="matrix(1 0 0 1 1998.1 696)"><path d="M54.488 12.26 Q49.429 12.26 46.29 9.121 Q43.15 5.981 43.15 0.923 V-17.512 Q43.15 -22.571 46.29 -25.711 Q49.429 -28.849 54.488 -28.849 H83.389 Q88.449 -28.849 91.588 -25.711 Q94.727 -22.571 94.727 -17.512 V0.923 Q94.727 5.981 91.588 9.121 Q88.449 12.26 83.389 12.26 H54.488 Z M53.334 2.132 H84.599 Q84.599 2.132 84.599 2.132 Q84.599 2.132 84.599 2.132 V-4.974 H53.334 V2.132 Q53.334 2.132 53.334 2.132 Q53.334 2.132 53.334 2.132 Z M53.334 -13.987 H84.599 V-18.721 Q84.599 -18.721 84.599 -18.721 Q84.599 -18.721 84.599 -18.721 H53.334 Q53.334 -18.721 53.334 -18.721 Q53.334 -18.721 53.334 -18.721 V-13.987 Z M47.34 -77.235  81.961 -63.939 V-35.95 H70.624 V-56.215 L47.34 -65.097 L24.056 -56.195 V-38.682 Q24.056 -30.629 27.336 -23.682 Q30.616 -16.736 36.049 -11.805 V0.923 Q36.049 1.249 36.106 1.604 Q36.161 1.96 36.106 2.286 Q25.518 -3.927 19.118 -14.943 Q12.719 -25.957 12.719 -38.682 V-63.959 L47.34 -77.235 Z"/></g><g id="Medium-S" transform="matrix(1 0 0 1 1701.85 696)"><path d="M54.006 11.263 Q49.378 11.263 46.506 8.391 Q43.633 5.519 43.633 0.89 V-17.834 Q43.633 -22.462 46.506 -25.334 Q49.378 -28.206 54.006 -28.206 H83.872 Q88.5 -28.206 91.372 -25.334 Q94.245 -22.462 94.245 -17.834 V0.89 Q94.245 5.519 91.372 8.391 Q88.5 11.263 83.872 11.263 H54.006 Z M52.949 1.971 H84.953 Q84.953 1.971 84.953 1.971 Q84.953 1.971 84.953 1.971 V-5.359 H52.949 V1.971 Q52.949 1.971 52.949 1.971 Q52.949 1.971 52.949 1.971 Z M52.949 -14.18 H84.953 V-18.914 Q84.953 -18.914 84.953 -18.914 Q84.953 -18.914 84.953 -18.914 H52.949 Q52.949 -18.914 52.949 -18.914 Q52.949 -18.914 52.949 -18.914 V-14.18 Z M47.34 -76.786  81.447 -63.649 V-35.307 H71.074 V-56.569 L47.34 -65.676 L23.606 -56.565 V-38.682 Q23.606 -30.211 27.127 -22.911 Q30.649 -15.61 36.532 -10.583 V0.89 Q36.532 1.185 36.555 1.492 Q36.579 1.799 36.555 2.093 Q25.989 -3.95 19.611 -14.977 Q13.233 -26.005 13.233 -38.682 V-63.658 L47.34 -76.786 Z"/></g><g id="Regular-S" transform="matrix(1 0 0 1 1405.73 696)"><path d="M53.652 10.532 Q49.34 10.532 46.663 7.855 Q43.987 5.179 43.987 0.867 V-18.069 Q43.987 -22.382 46.663 -25.058 Q49.34 -27.734 53.652 -27.734 H84.226 Q88.538 -27.734 91.214 -25.058 Q93.891 -22.382 93.891 -18.069 V0.867 Q93.891 5.179 91.214 7.855 Q88.538 10.532 84.226 10.532 H53.652 Z M52.666 1.853 H85.212 Q85.212 1.853 85.212 1.853 Q85.212 1.853 85.212 1.853 V-5.642 H52.666 V1.853 Q52.666 1.853 52.666 1.853 Q52.666 1.853 52.666 1.853 Z M52.666 -14.321 H85.212 V-19.055 Q85.212 -19.055 85.212 -19.055 Q85.212 -19.055 85.212 -19.055 H52.666 Q52.666 -19.055 52.666 -19.055 Q52.666 -19.055 52.666 -19.055 V-14.321 Z M47.34 -76.455  81.07 -63.437 V-34.835 H71.404 V-56.829 L47.34 -66.1 L23.276 -56.835 V-38.682 Q23.276 -29.904 26.974 -22.345 Q30.672 -14.784 36.886 -9.686 V0.867 Q36.886 1.138 36.886 1.409 Q36.886 1.68 36.886 1.952 Q26.333 -3.966 19.972 -15.002 Q13.61 -26.038 13.61 -38.682 V-63.437 L47.34 -76.455 Z"/></g><g id="Light-S" transform="matrix(1 0 0 1 1109.75 696)"><path d="M53.652 8.56 Q49.605 8.56 47.175 6.129 Q44.745 3.699 44.745 -0.347 V-18.069 Q44.745 -22.116 47.175 -24.546 Q49.605 -26.976 53.652 -26.976 H83.012 Q87.058 -26.976 89.488 -24.546 Q91.919 -22.116 91.919 -18.069 V-0.347 Q91.919 3.699 89.488 6.129 Q87.058 8.56 83.012 8.56 H53.652 Z M52.666 1.853 H83.998 Q84.53 1.853 84.871 1.512 Q85.212 1.171 85.212 0.639 V-7.236 H51.452 V0.639 Q51.452 1.171 51.793 1.512 Q52.134 1.853 52.666 1.853 Z M51.452 -13.942 H85.212 V-19.055 Q85.212 -19.587 84.871 -19.928 Q84.53 -20.27 83.998 -20.27 H52.666 Q52.134 -20.27 51.793 -19.928 Q51.452 -19.587 51.452 -19.055 V-13.942 Z M47.34 -74.331  79.097 -62.071 V-34.835 H71.404 V-56.829 L47.34 -66.062 L23.276 -56.835 V-38.682 Q23.276 -29.904 26.974 -22.345 Q30.672 -14.784 36.886 -9.686 V-0.651 Q36.886 -0.645 36.886 -0.639 Q36.886 -0.633 36.81 -0.628 Q27.167 -6.356 21.375 -16.615 Q15.583 -26.873 15.583 -38.682 V-62.071 L47.34 -74.331 Z"/></g><g id="Thin-S" transform="matrix(1 0 0 1 814.015 696)"><path d="M53.652 6.587 Q49.871 6.587 47.687 4.403 Q45.504 2.221 45.504 -1.561 V-18.069 Q45.504 -21.851 47.687 -24.034 Q49.871 -26.218 53.652 -26.218 H81.798 Q85.58 -26.218 87.762 -24.034 Q89.946 -21.851 89.946 -18.069 V-1.561 Q89.946 2.221 87.762 4.403 Q85.58 6.587 81.798 6.587 H53.652 Z M52.666 1.853 H82.784 Q83.846 1.853 84.53 1.171 Q85.212 0.487 85.212 -0.575 V-8.829 H50.238 V-0.575 Q50.238 0.487 50.921 1.171 Q51.604 1.853 52.666 1.853 Z M50.238 -13.563 H85.212 V-19.055 Q85.212 -20.118 84.53 -20.8 Q83.846 -21.484 82.784 -21.484 H52.666 Q51.604 -21.484 50.921 -20.8 Q50.238 -20.118 50.238 -19.055 V-13.563 Z M47.34 -72.206  77.125 -60.706 V-34.835 H71.404 V-56.829 L47.34 -66.024 L23.276 -56.835 V-38.682 Q23.276 -29.904 26.974 -22.345 Q30.672 -14.784 36.886 -9.686 V-2.168 Q36.886 -2.427 36.886 -2.688 Q36.886 -2.947 36.734 -3.207 Q28.002 -8.745 22.778 -18.226 Q17.555 -27.708 17.555 -38.682 V-60.706 L47.34 -72.206 Z"/></g><g id="Ultralight-S" transform="matrix(1 0 0 1 517.792 696)"><path d="M53.652 5.404 Q50.03 5.404 47.995 3.368 Q45.959 1.332 45.959 -2.289 V-18.069 Q45.959 -21.692 47.995 -23.726 Q50.03 -25.762 53.652 -25.762 H81.07 Q84.691 -25.762 86.727 -23.726 Q88.763 -21.692 88.763 -18.069 V-2.289 Q88.763 1.332 86.727 3.368 Q84.691 5.404 81.07 5.404 H53.652 Z M52.666 1.853 H82.056 Q83.437 1.853 84.324 0.965 Q85.212 0.078 85.212 -1.303 V-9.785 H49.51 V-1.303 Q49.51 0.078 50.397 0.965 Q51.285 1.853 52.666 1.853 Z M49.51 -13.335 H85.212 V-19.055 Q85.212 -20.436 84.324 -21.324 Q83.437 -22.211 82.056 -22.211 H52.666 Q51.285 -22.211 50.397 -21.324 Q49.51 -20.436 49.51 -19.055 V-13.335 Z M47.34 -70.932  75.941 -59.886 V-34.835 H71.404 V-56.829 L47.34 -66.001 L23.276 -56.835 V-38.682 Q23.276 -29.904 26.974 -22.345 Q30.672 -14.784 36.886 -9.686 V-3.078 Q36.886 -3.497 36.886 -3.917 Q36.886 -4.336 36.689 -4.755 Q28.503 -10.179 23.621 -19.194 Q18.739 -28.208 18.739 -38.682 V-59.886 L47.34 -70.932 Z"/></g></g></svg>