<svg xmlns="http://www.w3.org/2000/svg" height="24" viewBox="0 -960 960 960" width="24"><path d="m257.81-334.43-85.66 208.62q-5.27 12.41-16.03 15.88-10.75 3.47-20.45-.38-9.63-3.85-15.36-13.38-5.73-9.54.04-22.81l137.57-338.65v-119.43H131.27q-19.92 0-29.88-17.02-9.97-17.02-.13-34.13l94.2-162.15q9.09-16.18 24.38-25.11 15.28-8.93 33.97-8.93h64.57q18.69 0 33.98 8.93 15.28 8.93 24.56 25.11l94.2 162.15q9.65 17.11-.27 34.13-9.91 17.02-29.74 17.02H313.58v119.43L450.73-146.5q5.38 12.88-.25 22.61-5.63 9.73-15.17 13.58-9.54 3.85-20.38.46-10.84-3.38-16.01-15.96l-85.15-207.81v197.47q0 11.63-8.23 19.85-8.22 8.22-19.86 8.22-11.64 0-19.76-8.22-8.11-8.22-8.11-19.85v-198.28Zm415.32 81.39q-50.01 0-87.4-31.58-37.38-31.57-47.88-80.96H509.5q-20.21 0-35.24-13.77-15.03-13.76-15.03-33.8 0-34.21 32.06-74.84 32.06-40.62 58.57-59.1 4.14-39.49 30.35-69.41 26.21-29.92 65.52-38.65v-168.89q0-11.41 8.23-19.65 8.22-8.23 19.76-8.23 11.55 0 19.76 8.23 8.21 8.24 8.21 19.65v168.89q38.31 8.73 64.82 38.46 26.52 29.73 31.43 69.7 26.71 18.68 59.27 60.23 32.56 41.54 32.56 75.53 0 19.58-15.38 32.61-15.37 13.04-35.58 13.04h-30.54q-10.89 49.39-48.46 80.96-37.58 31.58-86.68 31.58Zm-152.67-168.5h306q-7.04-22.93-22.42-42.1-15.39-19.17-35.33-34.15l-24.4-17.56-2.92-28.69q-2.84-25.31-22.36-42.54-19.53-17.23-45.32-17.23t-45.29 17.05q-19.51 17.04-21.81 42.34l-3.51 29.06-24.06 17.13q-20.58 15.04-36.27 34.36-15.69 19.33-22.31 42.33Zm-352-239h235.27L325.2-795.96h-78.32l-78.42 135.42Zm504.57 351.66q25.58 0 45.64-15.97 20.06-15.96 30.75-40.73H597.58q9.73 24.77 29.53 40.73 19.81 15.97 45.92 15.97Zm.09-112.66ZM286-660.54Z"/></svg>