<svg xmlns="http://www.w3.org/2000/svg" height="24" viewBox="0 -960 960 960" width="24"><path d="M224.92-356.85 123.85-108.69q-5.7 14.77-18.12 18.84-12.42 4.08-24.5-.61t-18.35-15.39q-6.26-10.69-.11-26.46l161.38-404.61v-69.85h-116.3q-26.27 0-39.41-22.65-13.13-22.66.16-45.12l88.02-151.15q11.79-21.35 32.68-33.83Q210.18-872 234.77-872h46.54q24.58 0 45.47 12.48t32.68 33.83l88.02 151.15q13.29 22.46.15 45.12-13.13 22.65-39.4 22.65H290.15v69.85l162.93 404.61q5.38 15-.5 26.08-5.89 11.08-17.96 15.77-12.08 4.69-25.16.61-13.08-4.07-17.46-18.84L290.92-358.85V-121q0 13.5-9.75 23.25Q271.41-88 257.9-88q-13.52 0-23.25-9.75T224.92-121v-235.85Zm476.36 123.47q-51.82 0-85.63-37.47-33.8-37.46-36.42-90.07h-34.88q-26.15 0-45.14-17.17-18.98-17.16-18.98-41.83 0-31.93 33.12-71.73 33.11-39.81 56.8-57.5 4.23-42.47 30.47-76.31 26.23-33.85 67.46-40.92V-839q0-13.5 9.75-23.25 9.76-9.75 23.27-9.75 13.52 0 23.25 9.75t9.73 23.25v171.62q41.23 7.07 68.38 40.92 27.14 33.85 32.08 77.31 23.69 17.69 57.81 58.14 34.11 40.45 34.11 72.55 0 24.58-19.87 41.06-19.88 16.48-46 16.48h-36.67q-3.38 52.61-37.57 90.07-34.2 37.47-85.07 37.47Zm-145.9-182.54h293.39q.15-25.16-15.26-44.99-15.41-19.84-35.51-35.17l-25.95-19.74-3.05-31.87q-5.54-23.62-24.04-41.08-18.5-17.46-43.24-17.46-24.73 0-43.76 16.58-19.03 16.58-21.27 41.19l-3.96 32.64-25.81 18.97q-21.54 15.7-36.73 35.23-15.19 19.54-14.81 45.7ZM141.69-672.77h231.69L296.58-807h-76.66l-78.23 134.23Zm560.28 372.62q22.57 0 38.57-17.62 16-17.61 21-43.15H642.38q3.47 25.54 19.7 43.15 16.24 17.62 39.89 17.62Zm.11-115.77ZM257.15-672.77Z"/></svg>