<svg xmlns="http://www.w3.org/2000/svg" height="48" viewBox="0 -960 960 960" width="48"><path d="M221-314 129-86q-6.26 16.67-20.13 19.83Q95-63 82-67.5q-13-4.5-20-17T61-114l160-399v-99H78q-21 0-31.5-18t-.5-37l110-192q10.29-17.25 26.94-27.13Q199.59-896 219-896h77q18.58 0 35.64 9.87Q348.71-876.25 359-859l110 192q10 19-.5 37T437-612H293v99l160 399q6 17-1 30t-20 17.5q-13 4.5-26.5.5T386-87l-92-230v216q0 15.75-11.18 26.37Q271.65-64 256.81-64q-14.85 0-25.33-10.63Q221-85.25 221-101v-213Zm480.5 81q-53.5 0-92-34.5T562-354h-48.17q-21.67 0-37.25-14.55Q461-383.09 461-404q0-38.81 34.6-84.62Q530.19-534.44 560-556q5-43 32.5-77.5t71.5-45.57V-860q0-14.78 10.66-25.39Q685.32-896 700.16-896T726-885.39q11 10.61 11 25.39v179.93q43 11.07 70.5 45.57T841-556q29 22 64.5 68.5T941-402q0 21.23-16.05 34.62Q908.91-354 887.82-354H838q-10 52-47.5 86.5t-89 34.5ZM547-422h307q-11.56-19.15-22.61-40.26Q820.33-483.36 801-497l-28.41-20.13L769-552q-4-25-23.46-43t-45.36-18q-25.89 0-45.19 17.49Q635.68-578.02 633-552l-3.73 34.87L600-497q-20 14-31 35t-22 40ZM139-685h236l-78.42-139h-77.46L139-685Zm562.44 379q20.88 0 36.72-13.5T763-354H638q8 21 24.79 34.5 16.8 13.5 38.65 13.5ZM700-422ZM257-685Z"/></svg>