<svg xmlns="http://www.w3.org/2000/svg" height="24" viewBox="0 -960 960 960" width="24"><path d="M230.39-265.78 163.87-99.5q-8.81 19.91-25.32 24.89-16.51 4.98-31.94-.74-15.44-5.72-24.39-21.03-8.96-15.32-.24-36.23l149.41-372.33v-90.76H104.22q-26.23 0-39.35-22.63-13.11-22.63-.44-45.5L166-842.39q12.43-21.63 33.03-33.69 20.6-12.05 45.77-12.05h61.31q25.17 0 45.77 12.05 20.6 12.06 33.03 33.69l101.57 178.56q12.67 22.87-.5 45.5-13.18 22.63-39.28 22.63H319.52v90.76l147.41 372.33q8.72 20.91-.23 36.23-8.96 15.31-24.4 21.03-15.43 5.72-31.98.62-16.56-5.1-25.28-25.01l-66.28-166.04v149.85q0 18.72-12.66 31.39-12.65 12.67-31.37 12.67-18.71 0-31.52-12.81-12.82-12.82-12.82-31.49v-149.61Zm458.46 32.95q-56.92 0-100.99-35.03-44.08-35.03-57.6-91.18H515.8q-25.08 0-44.17-17.2-19.09-17.19-19.09-42.35 0-35.43 32.38-77.26 32.38-41.82 59.91-61.58 5-41.72 31.64-73.3 26.64-31.57 66.88-45.53v-166.61q0-19.24 13.17-32.25 13.18-13.01 32.39-13.01t32.2 13.01q13 13.01 13 32.25v166.37q39.48 13.96 66.12 45.65 26.64 31.7 31.64 73.42 27.52 19.76 60.4 62.92 32.88 43.16 32.88 78.68 0 25.12-19.23 40.95-19.23 15.84-44.51 15.84H846.2q-13.29 56.15-57.24 91.18-43.96 35.03-100.11 35.03ZM559.17-445.02h258.35q-8.13-11.6-17.07-21.95-8.95-10.36-20.56-19.2l-32.87-23.16-4.24-39.06q-2-21.57-17.3-35.99-15.3-14.42-36.63-14.42-21.46 0-37.32 14.54t-17.86 36.11l-4.23 38.82-32.11 23.16q-11.61 8.84-21.26 19.2-9.66 10.35-16.9 21.95ZM182.3-686.46h186.31l-62.94-110.91h-61.1L182.3-686.46Zm506.54 367.42q20.53 0 37.93-10.5t27.21-29.5H622.72q9.8 19 27.2 29.5 17.41 10.5 38.92 10.5Zm-.99-125.98ZM275.46-686.46Z"/></svg>