<svg xmlns="http://www.w3.org/2000/svg" height="24" viewBox="0 -960 960 960" width="24"><path d="M209.5-259 142-90.5q-10.5 25-31 31.25T71.5-61q-19-8-30.75-26.5t-1.25-44l170.5-430V-581H95.5Q61-581 43-610.75T42.5-671l96-171.5q16-29 44-45.25T244-904h41q33.5 0 61.5 16.25t44 45.25l96 171.5q17.5 30.5-.5 60.25T433.5-581h-115v19.5l169.5 430q10.5 25.5-1.25 44T456-61q-19 8-39.5 1.25t-31-31.75l-66-166.5v147.5q0 22.5-16 38.5T265-56q-22.5 0-39-16.5t-16.5-39V-259ZM713-216.5q-60.5 0-105.75-40.75T551-358.5h-5.5q-31 0-53.75-20.25T469-429.5q0-33.5 31.75-72.5T558-559.5q4.5-43 29.5-78t65.5-51v-156q0-24.5 18-42t42.5-17.5q24.5 0 42 17.5t17.5 42v155q40.5 16 65.75 51.25T869-559.5q25.5 19 57.75 58.5T959-428q0 30.5-23.5 50T880-358.5h-6.5q-10 60.5-54.75 101.25T713-216.5Zm0-100.5q19 0 34-11.25t20.5-30.25h-109q5.5 19 20.5 30.25T713-317Z"/></svg>