<svg xmlns="http://www.w3.org/2000/svg" height="20" viewBox="0 -960 960 960" width="20"><path d="M236.92-377.85 132.85-121.69q-4.78 12.31-15.47 16.12-10.69 3.8-21.15-.89-10.08-4.69-15.85-12.89-5.76-8.19-.61-21.96l156.38-394.61v-46.85h-131.3q-23.77 0-35.66-19.65-11.88-19.66-.59-40.12l83.02-167.15q9.79-20.35 30.18-33.33Q202.18-856 224.77-856h82.54q22.58 0 42.97 12.98t30.18 33.33l83.02 167.15q11.29 20.46-.6 40.12-11.88 19.65-35.65 19.65H293.15v46.85l158.93 393.61q4.38 13-.5 22.08-4.89 9.08-15.96 13.77-11.08 4.69-22.16 1.61-11.08-3.07-14.46-16.84L294.92-379.85V-133q0 11.8-8.54 20.4-8.55 8.6-20.27 8.6-11.73 0-20.46-8.6t-8.73-20.4v-244.85Zm480.29 108.47q-43.75 0-68.06-34.97-24.3-34.96-17.92-80.57h-53.88q-23.77 0-40.95-15.41-17.17-15.4-17.17-37.55 0-27.97 30.62-63.77 30.61-35.81 50.06-51.54 3.47-38.43 27.21-69.77 23.73-31.35 60.96-36.42V-827q0-11.8 8.54-20.4 8.55-8.6 20.27-8.6 11.73 0 20.46 8.6t8.73 20.4v166.62q37.23 5.07 61.38 36.42 24.14 31.35 28.62 70.68 21.15 15.68 52.27 51.7 31.11 36.02 31.11 63.85 0 21.85-18.06 37.33-18.07 15.48-41.81 15.48h-55.67q5.62 45.61-19.07 80.57-24.7 34.97-67.64 34.97ZM585.38-431.92h266.39q1.15-24.16-13.76-42.49-14.91-18.34-33.1-32.64l-21.86-17.77-3.05-28.87q-6.54-20.62-23.54-36.58-17-15.96-38.86-15.96t-38.77 15.08q-16.9 15.08-20.14 36.69l-3.62 29.51-23.34 17.09q-20.35 14.71-34.08 32.96-13.74 18.26-12.27 42.98ZM142.69-649.77h244.69L316.58-789H214.92l-72.23 139.23Zm575.16 321.62q17.69 0 28.19-17.12 10.5-17.11 8.5-39.65h-73.16q-3.53 22.54 7.2 39.65 10.74 17.12 29.27 17.12Zm1.23-103.77ZM264.15-649.77Z"/></svg>