<svg xmlns="http://www.w3.org/2000/svg" height="20" viewBox="0 -960 960 960" width="20"><path d="m203.78-266.09-69.3 176.61q-10.13 24.83-30.11 30.61-19.98 5.78-38.67-1.78Q47-68.22 35.59-85.7q-11.42-17.47-1.29-42.73l170.05-434.31v-.22H72.13q-33.09 0-49.63-27.74-16.54-27.73-1.28-56.26l95.61-194.47q14.26-27.96 42.21-45.22 27.96-17.26 60.05-17.26h79.69q31.52 0 59.48 17.26 27.96 17.26 42.22 45.22l95.61 194.47q15.26 28.53-1.29 56.26-16.54 27.74-49.06 27.74H311.52v.22L482-129.43q9.57 25.26-1.06 43.23-10.64 17.98-30.33 25.55-19.7 7.56-39.67 2-19.98-5.57-29.11-31.39l-69.31-176.92v156.79q0 22.26-15.91 38.17t-38.18 15.91q-22.26 0-38.45-16.19-16.2-16.2-16.2-38.46v-155.35Zm531.96 21.13q-53.39 0-88.5-39.04T612-378h-31q-30.83 0-52.8-19.41-21.98-19.42-21.98-49.24 0-30.44 30.43-67.24 30.44-36.81 51.87-54.24 4-40.57 27.65-73.91 23.66-33.35 61.66-47.61V-847q0-23.39 16.76-40.15 16.76-16.76 40.43-16.76 23.68 0 40.44 16.47 16.76 16.48 16.76 40.44v156.35q38 13.69 61.37 47.61 23.37 33.91 28.37 74.91 22.43 17.43 53.37 54.96 30.93 37.52 30.93 67.95 0 28.83-22.76 48.02-22.76 19.2-54.15 19.2h-31.44q.44 54.96-34.39 94-34.82 39.04-87.78 39.04Zm0-103.65q10.13 0 16.76-8.35 6.63-8.34 4.07-21.04h-42.66q-2.56 12.7 4.29 21.04 6.84 8.35 17.54 8.35Z"/></svg>