<svg xmlns="http://www.w3.org/2000/svg" height="48" viewBox="0 -960 960 960" width="48"><path d="M229.24-318.76 137.87-92.89q-6.7 16.89-20.52 19.71-13.83 2.81-26.09-1.25Q78.5-78.5 71.02-91.08q-7.48-12.57-.78-29.46l159.5-397.11v-88.5H90.02q-22.15 0-33.23-18.77-11.07-18.78-.25-38.36l106.24-187.74q9.76-18.02 27.57-28.35 17.8-10.33 38.89-10.33h71.63q21.09 0 38.89 10.33 17.81 10.33 28.63 28.35l106.24 187.74q10.33 19.58-1.03 38.36-11.36 18.77-32.45 18.77H300.93v88.5l159.01 397.11q6.13 16.89-1.32 29.96-7.45 13.08-19.99 17.15-12.54 4.06-25.84-.04-13.29-4.09-19.49-20.99l-91.87-225.8v213.61q0 15.32-10.22 25.55-10.23 10.23-25.84 10.23T239.5-81.38q-10.26-10.51-10.26-25.84v-211.54Zm470.59 83.7q-52.89 0-92.87-34.4-39.98-34.39-51.35-87.34h-39.59q-21.45 0-37.28-14.27-15.83-14.26-15.83-35.15 0-37.93 34.25-81.77 34.25-43.84 63.12-65.84 5-42.63 31.94-77.11 26.93-34.47 69.5-45.67v-174.98q0-15.95 11.07-27.03 11.08-11.08 27.29-11.08 16.2 0 27 11.08 10.79 11.08 10.79 27.03v174.98q42.07 10.63 69 45.39 26.94 34.76 32.5 77.39 28.87 21.44 63.34 66.03 34.47 44.58 34.47 83.02 0 21.45-15.83 34.71-15.83 13.27-37.85 13.27h-41.52q-10.8 52.95-50.03 87.34-39.23 34.4-92.12 34.4Zm0-67.74q23.87 0 42.49-15.25t27.92-38.75H630.41q8.81 23.5 27.43 38.75 18.62 15.25 41.99 15.25Z"/></svg>