<svg xmlns="http://www.w3.org/2000/svg" height="40" viewBox="0 -960 960 960" width="40"><path d="M253.54-348.7 158.1-115.46q-4.2 11.48-14.05 14.07-9.84 2.59-18.9-.84-8.79-3.44-13.65-11.89-4.86-8.44-.01-20.27l142.66-350.66v-127.1H119.16q-17.98 0-27.03-15.65-9.05-15.64-.05-31.41l97.64-169.51q8.61-14.51 22.65-22.89 14.04-8.39 31.17-8.39h71.2q17.13 0 31.17 8.39 14.04 8.38 22.65 22.89l97.64 169.51q9 15.77-.05 31.41-9.05 15.65-27.02 15.65H303.74v127.1l141.85 350.66q4.46 11.7-.21 20.41-4.66 8.72-13.46 12.16-8.79 3.43-18.43.31-9.64-3.13-14.1-14.36l-95.6-233.9v224.64q0 10.87-7.12 18-7.13 7.13-18 7.13-10.87 0-18-7.13-7.13-7.13-7.13-18V-348.7Zm425.59 99.11q-50.03 0-87.28-31.49-37.26-31.48-47.9-80.89h-36.72q-18.77 0-32.7-12.77-13.94-12.77-13.94-31.54 0-35.95 33.26-78.46 33.25-42.52 61.18-62.44 4.61-40.64 31.64-71.64 27.02-31 67.72-38.79v-177.26q0-10.87 7.12-18 7.13-7.13 18-7.13 10.87 0 18 7.13 7.13 7.13 7.13 18v177.26q40.1 7.79 67.12 38.79 27.01 31 32.01 71.64 27.92 19.92 61.68 63.35 33.75 43.42 33.75 79.37 0 18.38-14.25 30.43-14.26 12.06-32.77 12.06h-38.51q-11.03 49.41-48.07 80.89-37.04 31.49-86.47 31.49Zm0-50.64q27.51 0 48.96-17.54t32.45-44.2H598.28q10.23 26.66 31.49 44.2 21.26 17.54 49.36 17.54Z"/></svg>