<svg xmlns="http://www.w3.org/2000/svg" height="20" viewBox="0 -960 960 960" width="20"><path d="M245-409 131-130q-3.39 9.55-12 12.77-8.62 3.23-17-.77-8-4-12.5-10t-.5-17l155-390v-51H115q-22.5 0-33.75-18.5t-.47-37.9L159-800q9.13-19.25 28.43-31.63Q206.74-844 228-844h80q21.26 0 40.57 12.37Q367.87-819.25 377-800l78.22 157.6q10.78 19.4-.47 37.9T421-586H289v51l158 389q3 10-.5 17T434-118q-9 4-18 1.5T405-130L291-411v272q0 9.25-6.82 16.12-6.83 6.88-16 6.88-9.18 0-16.18-6.88-7-6.87-7-16.12v-270Zm469.88 135Q673-274 651-308.5T637-387h-56.88q-22.59 0-38.85-14.53Q525-416.07 525-436.96 525-464 555.5-499t49.26-50.03Q608-587 631.5-618t60.5-34v-169q0-9.25 6.82-16.13 6.83-6.87 16-6.87 9.18 0 16.18 6.87 7 6.88 7 16.13v168q37 3 61.04 34 24.04 31.01 28.51 69.87Q848-534.14 879-499.18q31 34.95 31 61.91 0 20.46-17.23 35.37Q875.54-387 852.9-387H794q7 44-15.5 78.5T714.88-274ZM575-422h283q3-29-14.33-50.68-17.34-21.68-38.76-38.29l-19.32-16.16L783-553q-7-22-25.5-39t-41.98-17q-23.48 0-41.8 16.01Q655.41-576.98 652-554l-3.39 26.74-20.8 15.25Q604-495 587.95-473.28 571.91-451.56 575-422ZM136-641h262l-76.35-148H214l-78 148Zm579.61 320Q736-321 748-341t10-46h-84q-4 26 8.12 46t33.49 20ZM717-422ZM266-641Z"/></svg>