<svg xmlns="http://www.w3.org/2000/svg" height="48" viewBox="0 -960 960 960" width="48"><path d="M275.5-422 157-139.5q-1.5 5-6.5 6.5t-8 0q-3-1.5-5.75-5.25t.75-9.25l137.5-336V-618H149.5q-16.5 0-24.5-13.25t1.5-27.75l83-142.5q8-11.5 20-19T255-828h62q13.5 0 25.5 7.5t21 19l83 142.5q8.5 14.5.5 27.75T423.5-618h-127v134.5l137.5 336q2.5 5.5-.25 9.25T429-133q-2 1.5-7.5-.5t-7-6L297.5-423v279.5q0 5.5-3 8.5t-8.5 3q-5.5 0-8-3t-2.5-8.5V-422ZM672-261.5q-45.5 0-77.75-30.25T556-368.5h-39.5q-17 0-29.25-10.75T475-407.5q0-33 32.25-72.25T566-537.5q4-39 29.75-69t66.25-32v-179q0-4.5 3-7.5t8-3q5 0 8 3t3 7.5v179q39 2 65.5 32.25T781-537.5q26.5 18 59.25 58T873-406q0 16.5-13 27t-29 10.5h-41.5q-7 46.5-40 76.75T672-261.5Zm0-22.5q34 0 59-24.5t36.5-60h-188q8.5 35.5 33 60T672-284Z"/></svg>