<svg xmlns="http://www.w3.org/2000/svg" height="40" viewBox="0 -960 960 960" width="40"><path d="M227.88-302.61 144.17-95.43q-7.57 18.1-22.63 21.94-15.06 3.84-28.92-1.1-13.8-4.95-22.13-18.7-8.32-13.75-.79-32.35L228.38-521.4v-78.98H94.75q-24.57 0-36.85-20.83-12.28-20.84-.24-42.33l103.69-183.19q11.14-20.3 30.5-31.55 19.37-11.26 43.03-11.26h65.48q23.44 0 42.98 11.25 19.54 11.25 31.26 31.56l103.7 183.19q11.7 21.49-.64 42.33-12.34 20.83-36.45 20.83H307.08v78.98l158.01 395.76q7.15 18.6-1.15 32.68-8.3 14.09-22.13 19.03-13.82 4.95-28.59.33t-21.94-23.06L307.6-303.28v192.88q0 16.62-11.45 28.09-11.46 11.47-28.32 11.47-16.87 0-28.41-11.82-11.54-11.81-11.54-28.3v-191.65Zm471.36 69.39q-54.82 0-95.82-35.28-41-35.28-52.54-89.45h-30.97q-23.08 0-40.4-15.42-17.32-15.41-17.32-38.43 0-36.41 33.55-79.39 33.56-42.97 61.46-63.66 4.87-42.24 31.36-76.28t68.22-46.25v-170.11q0-17.43 12.49-29.74 12.49-12.31 30.18-12.31 17.68 0 29.63 12.31t11.95 29.74v170.08q41.39 11.59 67.85 45.83 26.46 34.25 31.83 76.9 28.17 20.76 61.97 64.26t33.8 80.22q0 23.09-17.69 37.67-17.7 14.58-40.95 14.58H845.1q-10.98 54.17-51.46 89.45-40.49 35.28-94.4 35.28ZM561.46-433.15h274.95q-8.93-15.24-17.53-31.17-8.6-15.93-23.35-25.87l-31.84-22.68-4.27-40.03q-2.77-22.76-20.26-38.04-17.49-15.28-40.14-15.28-23.1 0-40.33 15.62-17.23 15.61-19.96 38.27l-4.35 39.48-32.77 22.55q-15.1 10.05-23.27 25.98-8.16 15.93-16.88 31.17ZM166.67-684.62h202.29l-67.12-120.29h-67.07l-68.1 120.29Zm532.16 376.5q22.83 0 40.47-13.91 17.64-13.92 26.4-35.92H632.67q8.43 22 26.17 35.92 17.74 13.91 39.99 13.91Zm-.31-125.03ZM267.64-684.62Z"/></svg>