<svg xmlns="http://www.w3.org/2000/svg" height="40" viewBox="0 -960 960 960" width="40"><path d="M274.67-417 159.33-139.67q-1.33 5.34-6.66 7-5.34 1.67-9.67-.33-3.67-2-6.17-5.83-2.5-3.84.5-9.5L274.67-483v-133.67H150.33q-16.33 0-24.66-14-8.34-14 .66-28.33L209-800q8-12.67 20.5-20.33Q242-828 256.67-828H317q14.67 0 27.17 7.67 12.5 7.66 20.5 20.33l82.66 141q9 14.33.67 28.33-8.33 14-24.67 14H298V-483l137.33 334.67q2 5.33 0 9.33t-5.66 6q-3.67 2-9 0-5.34-2-7.34-6.67l-114.66-278V-144q0 5.33-3.34 8.67Q292-132 286.67-132q-5.34 0-8.67-3.33-3.33-3.34-3.33-8.67v-273Zm396.66 156.33q-46.33 0-78.66-30.66-32.34-30.67-38.67-77h-37.33q-17.34 0-29.84-11.34-12.5-11.33-12.5-28.66 0-32.67 32.34-72 32.33-39.34 58-57 4-39 30-68.67t65.66-32.33V-816q0-5.33 3.34-8.67Q667-828 672.33-828q5.34 0 8.67 3.33 3.33 3.34 3.33 8.67v177.67Q723-635.67 749.5-606q26.5 29.67 31.5 68.67 25.67 17.66 58.5 57.5 32.83 39.83 32.83 72.5 0 16.33-13.33 27.66-13.33 11.34-30 11.34h-39.33q-7.34 46.33-40.17 77-32.83 30.66-78.17 30.66Zm0-25q33.67 0 58.5-24 24.84-24 35.84-58.66H579q9 34.66 33.33 58.66 24.34 24 59 24Z"/></svg>