<svg xmlns="http://www.w3.org/2000/svg" height="20" viewBox="0 -960 960 960" width="20"><path d="M289.5-434.5 175-158.5q-1 3.5-5 5t-6-.5q-2.5-2-4.5-3.5t0-6L289-482v-107.5H153.5q-13.5 0-21.25-11.25t-.75-23.75l76.5-154q5.5-12 18-20.25t25.5-8.25H345q13 0 25.5 8.25T389-778.5l76.5 154q6.5 12.5-1.25 23.75T443.5-589.5h-138V-482l131 317.5q1 3.5-.25 6T432-154q-3 2-6.75 1t-4.25-5.5L307-434v272q0 3.5-2.75 6.25T298-153q-3.5 0-6-2.75t-2.5-6.25v-272.5Zm394.5 135q-37.5 0-60-28t-20-67h-53.5q-15.5 0-26.5-9.5t-11-25q0-28 29.25-62.5T592.5-541q2.5-34.5 25.75-61t58.25-28v-168.5q0-3 2.75-5.75t6-2.75q3.25 0 6 2.75t2.75 5.75V-630q34 1.5 57.25 28t28.25 61q22 15 51.25 49.5T860-429q0 13.5-11.5 24t-27 10.5h-56q1.5 39-21.5 67t-60 28Zm0-18q28 0 46.75-23t22.75-54h-136q1.5 31 19.75 54t46.75 23Z"/></svg>