<svg xmlns="http://www.w3.org/2000/svg" height="20" viewBox="0 -960 960 960" width="20"><path d="M236.92-377.85 132.85-121.69q-4.39 12.77-15.47 16.34-11.07 3.58-21.15-1.11-10.08-4.69-15.85-12.89-5.76-8.19-.61-21.96l156.38-394.61v-46.85h-131.3q-23.39 0-35.47-19.65-12.07-19.66-.61-39.81l82.85-167.46q9.69-20.16 30.23-33.23Q202.38-856 224.77-856h82.54q22.38 0 42.92 13.08 20.54 13.07 30.23 33.23l82.85 167.46q11.46 20.15-.62 39.81-12.07 19.65-35.46 19.65H293.15v46.85l158.93 393.61q4.38 13-.5 22.08-4.89 9.08-15.96 13.77-11.08 4.69-22.16 1.61-11.08-3.07-14.46-16.84L294.92-379.85V-133q0 11.54-8.73 20.27T265.92-104q-11.54 0-20.27-8.73T236.92-133v-244.85Zm480.39 108.47q-43.85 0-68.16-34.97-24.3-34.96-17.92-80.57h-54q-24.15 0-41.08-14.93-16.92-14.92-16.92-38.07 0-27.93 30.62-63.73 30.61-35.81 50.3-51.5 3.23-38.47 26.97-69.81 23.73-31.35 60.96-36.42V-827q0-11.54 8.73-20.27t20.27-8.73q11.54 0 20.27 8.73t8.73 20.27v166.62q37.23 5.07 61.34 36.42 24.12 31.34 29.12 70.81 20.69 15.69 51.81 51.73 31.11 36.04 31.11 63.96 0 21.38-17.81 36.96-17.8 15.58-41.96 15.58h-55.77q5.62 45.61-19.07 80.57-24.7 34.97-67.54 34.97Zm0-58.77q18.23 0 28.73-17.12 10.5-17.11 8.5-39.65h-73.16q-3.53 22.54 7.08 39.65 10.62 17.12 28.85 17.12Z"/></svg>