<svg xmlns="http://www.w3.org/2000/svg" height="24" viewBox="0 -960 960 960" width="24"><path d="M245.5-285 176-113.5q-7.5 17-21.5 21.25t-27-.75q-13-5-20.75-18t-.25-30.5l139.5-345V-599H115.5Q94-599 83-617.75T82.5-655l102-177.5q10-18 27-27.75T249-870h69q20.5 0 37.5 9.75t27 27.75l102 177.5q10.5 18.5-.5 37.25T451.5-599h-131v112.5l138.5 345q7.5 17.5-.25 30.5T438-93q-13 5-27 .75t-21.5-21.25l-69-170.5v156.5q0 15.5-11 26.5T283-90q-15.5 0-26.5-11t-11-26.5V-285ZM676-246.5q-52.5 0-93.25-32.25T529-362.5h-24.5q-22 0-38.25-15.25T450-414.5q0-35.5 32.25-77.5T542-553.5q4.5-40 31-70.5t66-42.5v-166q0-15.5 11-26.5t26.5-11q15.5 0 26.5 11t11 26.5v166q38.5 12 65.25 42.25T811-553.5q27.5 20 60.25 63T904-412q0 21.5-16.5 35.5t-38.5 14h-26.5q-13 51.5-53.75 83.75T676-246.5Zm0-74.5q21 0 38.5-11.25t28-30.25h-133q10.5 19 28 30.25T676-321Z"/></svg>