<svg xmlns="http://www.w3.org/2000/svg" height="48" viewBox="0 -960 960 960" width="48"><path d="M238.04-324.96 146.02-98.43q-5.72 14.93-17.91 17.42-12.2 2.49-23.15-1.25Q93.5-86 87.16-96.95q-6.33-10.94-.62-25.88l152-376.56v-111H94.91q-18.89 0-28.33-16.16-9.45-16.17-.25-32.82l107.54-189.04q8.46-15.42 23.49-24.11 15.03-8.7 33.18-8.7h78.48q18.15 0 33.19 8.7 15.03 8.69 24.22 24.11l107.55 189.04q8.69 16.65-.87 32.82-9.57 16.16-27.72 16.16H301.26v111l151.5 376.56q5.48 14.94-.99 26.38Q445.3-85 434.23-81.26q-11.08 3.74-22.9.13-11.83-3.61-17.05-18.54l-92.52-226.79v215.57q0 13.69-9.09 22.78-9.08 9.09-22.9 9.09-13.81 0-22.77-9.21-8.96-9.2-8.96-22.9v-213.83Zm452.66 82.72q-50.94 0-89.78-32.43-38.83-32.44-50.85-83.11h-44.16q-19.17 0-33.37-12.96-14.19-12.96-14.19-31.89 0-38.26 34.25-82.91 34.25-44.66 63.77-66.66 5-41.97 32.26-75.31 27.26-33.34 69.5-43.56v-177.58q0-13.68 9.45-23.12 9.44-9.45 23.37-9.45 13.92 0 23.25 9.45 9.32 9.44 9.32 23.12v177.58q41.74 9.98 69 43.44 27.26 33.46 32.5 75.43 29.52 21.77 64.15 67.17 34.63 45.4 34.63 84.16 0 19.17-14.19 31.13-14.2 11.96-33.61 11.96h-46.41q-11.79 50.67-49.87 83.11-38.09 32.43-89.02 32.43Zm0-61.54q24.52 0 43.79-15.25t29.55-38.75H618.35q9.78 23.5 29.05 38.75 19.27 15.25 43.3 15.25Z"/></svg>