<svg xmlns="http://www.w3.org/2000/svg" height="20" viewBox="0 -960 960 960" width="20"><path d="M282.12-404.85 177.31-151.12q-2.17 5.61-7.96 7.9-5.79 2.3-10.5-.4-4.27-2.69-7.48-6.26-3.22-3.58-.18-10.62l130.66-322.31v-103.34H144.04q-15.6 0-23.4-12.29-7.79-12.29-.62-26.02l81.4-162.81q6.18-13.35 19.34-21.96 13.16-8.62 27.86-8.62h96.15q14.69 0 27.85 8.62 13.16 8.61 19.73 21.96l81.4 162.81q6.79 13.73-.91 26.02-7.71 12.29-23.11 12.29H309.65v103.34L441.46-161.5q2.27 6.27-.25 10.73-2.52 4.46-7.59 7.15-5.08 2.7-10.75 1.18-5.67-1.52-7.52-8.68L311.04-404.23v247.42q0 6.07-4.24 10.36-4.24 4.3-10.23 4.3t-10.22-4.3q-4.23-4.29-4.23-10.36v-248.04Zm403.83 109.27q-39.22 0-63.74-28.4-24.52-28.4-23.52-68.67H547.5q-16.04 0-28.04-10.66-12-10.65-12-26.45 0-28.91 29.37-64.19 29.36-35.28 50.64-50.76 3.03-34.94 26.45-61.79 23.43-26.85 58.54-30.31v-166.77q0-5.62 4.24-9.95 4.24-4.32 10.04-4.32 5.8 0 10.22 4.32 4.42 4.33 4.42 9.95v166.77q34.12 3.46 57.46 30.18 23.34 26.71 27.76 61.86 23.21 15.51 52.57 51.06 29.37 35.54 29.37 63.98 0 14.92-12.35 26t-28.57 11.08h-53.58q.23 40.27-24.67 68.67-24.91 28.4-63.42 28.4Zm-152.03-126h306.5q-2.77-29.43-21.69-52.48-18.92-23.06-42.4-40.98l-16.21-13.15-2.35-20.89q-4.58-24.61-24.93-42.07-20.34-17.47-46.04-17.47t-45.36 17.1q-19.65 17.09-23.21 41.67l-2.81 21.56-17.53 12.31q-24.97 18.1-43.15 41.72-18.18 23.62-20.82 52.68Zm-376-202.5h276.54l-81.57-154.84H239.77l-81.85 154.84Zm528.02 299.31q25.28 0 42.4-20.17 17.12-20.18 21.01-47.71h-124.7q1.97 27.53 18.7 47.71 16.73 20.17 42.59 20.17Zm1.29-96.81ZM295.5-624.08Z"/></svg>