<svg xmlns="http://www.w3.org/2000/svg" height="20" viewBox="0 -960 960 960" width="20"><path d="M221.5-280 151-103.5q-9.91 22.32-28.48 28.41Q103.94-69 86.5-77q-17-8-28.25-24t-1.75-39.5l165.5-420v3.5H92.5q-32.75 0-49.12-26.75Q27-610.5 42.5-639l91-187.5q14-28 41.28-44.75Q202.05-888 234-888h77q31.95 0 59.22 16.75 27.28 16.75 41.28 44.75l91 187.5q15.5 28.5-1.12 55.25Q484.75-557 452.5-557h-131v-3.5l165.5 419q9.5 23.5-1.25 40T457-77q-18 8-36.51 2.25-18.52-5.75-27.99-29.75l-69-174.5v156.5q0 21.03-14.63 35.76Q294.24-72 273.37-72 252.5-72 237-87.35q-15.5-15.35-15.5-36.15V-280Zm507.66 27.5q-52.66 0-88.41-38.25T603-382.5h-24.5q-28.34 0-49.42-18.37Q508-419.24 508-447.46q0-29.21 29.25-64.38 29.25-35.16 50.51-51.69Q591.5-602.5 614-635t59-46.5v-151q0-23.15 16.79-39.32Q706.58-888 729.54-888q22.95 0 39.21 16.18Q785-855.65 785-832.5v150q36.5 14 58.69 46.75 22.19 32.75 26.68 72.29 23.13 16.82 52.38 52Q952-476.27 952-447.27q0 27.62-22.03 46.19Q907.95-382.5 879-382.5h-25.5q-1 53.5-36.25 91.75t-88.09 38.25ZM643-474.5h173.5q-1.5-4.38-3.75-7.69-2.25-3.31-4.84-4.28L771.5-513.5 767-561q-3.09-14-13.78-23.5-10.7-9.5-23.84-9.5-13.67 0-24.01 10-10.34 10-13.37 24l-4.54 46.3-38.65 27.19q-3.81 1.01-4.29 4.5-.47 3.5-1.52 7.51ZM199-678h146l-38.13-88H238l-39 88Zm529.84 333q14.16 0 23.66-10.75t8-26.75h-63q-1.5 16 7.88 26.75Q714.76-345 728.84-345ZM730-474.5ZM271.5-678Z"/></svg>