<svg xmlns="http://www.w3.org/2000/svg" height="24" viewBox="0 -960 960 960" width="24"><path d="M224.92-356.85 123.85-108.69q-5.39 14.77-17.97 18.84-12.57 4.08-24.65-.61-12.08-4.69-18.35-15.39-6.26-10.69-.11-26.46l161.38-404.61v-69.85h-116.3q-26.39 0-39.47-22.65-13.07-22.66.39-44.81l87.85-151.46q11.69-21.16 32.73-33.73Q210.38-872 234.77-872h46.54q24.38 0 45.42 12.58 21.04 12.57 32.73 33.73l87.85 151.46q13.46 22.15.38 44.81-13.07 22.65-39.46 22.65H290.15v69.85l162.93 404.61q5.38 15-.5 26.08-5.89 11.08-17.96 15.77-12.08 4.69-25.16.61-13.08-4.07-17.46-18.84L290.92-358.85V-121q0 13.54-9.73 23.27T257.92-88q-13.54 0-23.27-9.73T224.92-121v-235.85Zm476.39 123.47q-51.85 0-85.66-37.47-33.8-37.46-36.42-90.07h-35q-26.15 0-45.08-16.93-18.92-16.92-18.92-42.07 0-31.93 33.12-71.73 33.11-39.81 56.8-57.5 4.23-42.47 30.47-76.31 26.23-33.85 67.46-40.92V-839q0-13.54 9.73-23.27t23.27-9.73q13.54 0 23.27 9.73t9.73 23.27v171.62q41.23 7.07 68.34 40.92 27.12 33.84 32.12 77.31 23.69 17.69 57.81 58.23 34.11 40.54 34.11 72.46 0 24.38-19.81 40.96-19.8 16.58-45.96 16.58h-36.77q-3.38 52.61-37.57 90.07-34.2 37.47-85.04 37.47Zm0-66.77q23.23 0 39.23-17.62 16-17.61 21-43.15H642.38q3.47 25.54 19.58 43.15 16.12 17.62 39.35 17.62Z"/></svg>