<svg xmlns="http://www.w3.org/2000/svg" height="20" viewBox="0 -960 960 960" width="20"><path d="M286-428 173-154q-1 4-5.5 5.5t-7.5-.5q-3-2-5-4t0-7l131-322v-108H150q-14 0-22-12t-1-25l77-155q6-13 19-21.5t27-8.5h93q14 0 27 8.5t19 21.5l77 155q7 13-1 25t-22 12H305v108l132 321q1 4 0 7t-5 5q-4 2-8 1t-5-6L306-428v270q0 4-3 7t-7 3q-4 0-7-3t-3-7v-270Zm400 132q-39 0-62.5-28.5T602-393h-51q-16 0-27.5-10T512-429q0-28 29.5-63t50.5-50q3-35 26.5-61.5T677-632v-170q0-4 3-7t7-3q4 0 7 3t3 7v170q34 2 57.5 28.5T783-542q22 15 51.5 50t29.5 63q0 14-12 25t-28 11h-53q1 40-23 68.5T686-296Zm0-21q28 0 47-22.5t23-53.5H618q2 31 20.5 53.5T686-317Z"/></svg>