<svg xmlns="http://www.w3.org/2000/svg" height="40" viewBox="0 -960 960 960" width="40"><path d="M212.14-291.44 128.86-83.38q-8.19 19.99-24.43 24.06-16.25 4.07-31.65-1.18-15.4-5.25-24.08-20.34-8.68-15.09-.87-35.4l164.55-412.77v-74.63H77.94q-25.76 0-38.64-22.15-12.88-22.14-.58-44.91l106.89-187.41q12.15-20.99 32.68-33.14 20.54-12.16 44.69-12.16h66q23.44 0 44.28 12.16 20.84 12.15 33.01 33.14L473.15-670.7q12.31 22.77-.57 44.91-12.88 22.15-38.41 22.15H298.74v74.63l164.31 412.77q7.41 20.31-1.07 35.73-8.49 15.42-23.97 20.68-15.47 5.25-31.66.5-16.18-4.74-23.66-24.95l-83.44-209.34v193.18q0 18.41-12.94 31.05t-30.92 12.64q-17.99 0-30.62-12.79-12.63-12.79-12.63-31.14v-190.76Zm494.97 65.99q-56.19 0-96.81-36.68-40.62-36.67-49.76-92.03h-35.8q-25.21 0-43.56-16.8t-18.35-41.13q0-37.3 34.08-81.45 34.07-44.15 62.37-65.11 5.01-43.38 32.06-78.26 27.04-34.89 70.38-47.73v-174.55q0-18.27 12.91-31.24 12.91-12.98 31.43-12.98t31.6 12.81q13.08 12.81 13.08 31.41v173.71q42.51 12.44 69.62 47.57 27.11 35.14 32.92 79.26 27.76 21.16 62.68 66.13 34.93 44.98 34.93 82.53 0 24.69-18.94 40.26-18.94 15.57-43.84 15.57h-37q-9.57 55.36-49.52 92.03-39.95 36.68-94.48 36.68ZM569.3-433.79h274.28q-8.86-14.43-17.45-30.13-8.6-15.71-23.34-26.18l-32.38-23.11-3.87-39.72q-3.78-22.24-20.64-38.21-16.86-15.97-39.71-15.97-23.04 0-39.98 15.72-16.93 15.72-19.44 38.7l-4.16 39.54-32.99 23.05q-15.08 10.8-23.76 26.36-8.68 15.56-16.56 29.95ZM153.15-692.66h204.81l-68.21-122.56h-67.11l-69.49 122.56Zm554.06 381.94q18.98 0 33.74-12.03 14.75-12.03 22.5-31.41H649.1q7.08 19.38 22.57 31.41 15.48 12.03 35.54 12.03Zm-1.1-123.07ZM255.56-692.66Z"/></svg>