<svg xmlns="http://www.w3.org/2000/svg" height="24" viewBox="0 -960 960 960" width="24"><path d="M211.46-304.93 126.92-94.85q-7.69 19.39-23.73 24.43-16.04 5.03-31.57-.81-15.54-5.85-23.93-20.19-8.38-14.35-.3-34.73l163.69-412.31v-62.93H90.92q-28.69 0-42.73-24.57-14.03-24.58.2-48.66l95.92-167.22q12.84-23.08 35.61-36.62T229.39-892h50.76q26.7 0 49.47 13.54 22.76 13.54 35.61 36.62l95.92 167.22q14.23 24.08.2 48.66-14.04 24.57-42.74 24.57H297.08v62.93l164.46 412.31q7.69 20-.5 34.53-8.19 14.54-23.73 20.39-15.54 5.84-32.08.81-16.54-5.04-23.23-24.43l-84.54-212.08V-111q0 17.77-12.61 30.38Q272.23-68 254.46-68q-17.77 0-30.38-12.62-12.62-12.61-12.62-30.38v-193.93Zm493.69 79.24q-54.92 0-92.57-38.23-37.66-38.23-42.96-93.54h-30q-28.08 0-48.54-18.46t-20.46-45.54q0-33.46 33.3-74.62 33.31-41.15 58.16-60 4.61-43.23 31.23-77.65 26.61-34.42 68.23-44.96V-849q0-17.77 12.61-30.38Q686.77-892 704.54-892q17.77 0 30.38 12.62 12.62 12.61 12.62 30.38v169.31q41.61 10.54 68.92 44.96 27.31 34.42 32.31 78.65 24.84 18.85 59.15 61.12 34.31 42.27 34.31 75.73 0 26.69-21.15 44.23-21.16 17.54-49.23 17.54h-31.39q-5.69 55.31-43.54 93.54-37.84 38.23-91.77 38.23Zm0-86.39q18.62 0 32.12-12.8 13.5-12.81 18.5-32.58H654.69q4.23 19.77 18.04 32.58 13.81 12.8 32.42 12.8Z"/></svg>