<svg xmlns="http://www.w3.org/2000/svg" height="20" viewBox="0 -960 960 960" width="20"><path d="M245-409 131-130q-3 10-12 13t-17-1q-8-4-12.5-10t-.5-17l155-390v-51H115q-22 0-33.5-18.5T81-642l78-158q9-19 28.5-31.5T228-844h80q21 0 40.5 12.5T377-800l78 158q11 19-.5 37.5T421-586H289v51l158 389q3 10-.5 17T434-118q-9 4-18 1.5T405-130L291-411v272q0 9-7 16t-16 7q-9 0-16-7t-7-16v-270Zm470 135q-42 0-64-34.5T637-387h-57q-23 0-39-14t-16-36q0-27 30.5-62t49.5-50q3-38 26.5-69t60.5-34v-169q0-9 7-16t16-7q9 0 16 7t7 16v168q37 3 61 34t29 70q20 15 51 50t31 62q0 20-17 35t-40 15h-59q7 44-15.5 78.5T715-274Zm0-47q21 0 33-20t10-46h-84q-4 26 8 46t33 20Z"/></svg>