<svg xmlns="http://www.w3.org/2000/svg" height="48" viewBox="0 -960 960 960" width="48"><path d="M234.08-352.08 131.69-101.77q-4.72 13.2-16.09 15.99-11.37 2.78-21.48-.95Q84-90.46 78.16-100.46q-5.85-10-.62-23.54l156.15-387.85v-101.69H98.77q-20.61 0-30.92-17.42-10.31-17.42-.01-36.19l100.08-173q10.34-16.58 26.26-26.21Q210.1-876 228.62-876h68.92q17.68 0 34.02 9.64 16.33 9.63 26.67 26.21l100.08 173q10.3 18.77 0 36.19-10.31 17.42-30.93 17.42h-136.3v101.69L447.61-124q4.85 13.54-.8 23.84-5.66 10.31-15.58 14.04-9.92 3.73-21.11.31-11.2-3.42-16.04-16.58L292.46-354.7v241.01q0 12.64-9.08 21.16Q274.3-84 262.56-84q-11.75 0-20.12-8.53-8.36-8.52-8.36-21.16v-238.39ZM695.9-239.54q-51.36 0-87.17-34.11-35.81-34.12-42.11-84.58h-46.25q-21.07 0-36.18-14.1t-15.11-34.36q0-36.49 33.86-80.03 33.87-43.54 62.06-63.51 4.55-41.77 31.31-75.35 26.77-33.57 70-41.57v-180.16q0-11.67 8.56-20.18t20.31-8.51q11.74 0 20.63 8.51 8.88 8.51 8.88 20.18v179.16q41.85 8 68.93 41.54 27.09 33.54 33.01 76.25 27.6 20.59 62.33 64.5 34.73 43.9 34.73 80.78 0 20.29-15.81 33.57-15.8 13.28-36.21 13.28h-47.9q-7.69 50.46-43.08 84.58-35.38 34.11-84.79 34.11ZM534.69-411.61h321.23q-6.94-24.93-21.65-48.92-14.71-23.99-37.5-40.32l-25.34-18.2-2.81-30.64q-4.39-26.54-25.2-45.31-20.81-18.77-48.24-18.77-27.43 0-47.94 18.08-20.51 18.07-23.47 45.61l-3.34 31.03-25.82 17.82q-23.84 16.69-38.5 40.77-14.65 24.08-21.42 48.85ZM136.31-671.92h252.54l-83.81-146.69h-83.26l-85.47 146.69Zm559.86 373.61q24.22 0 41.99-17.15 17.76-17.16 26.76-42.77H626.08q7.23 25.61 25.73 42.77 18.5 17.15 44.36 17.15ZM695-411.61ZM262.39-671.92Z"/></svg>