<svg xmlns="http://www.w3.org/2000/svg" height="48" viewBox="0 -960 960 960" width="48"><path d="m256.42-365.08-102.5 248.35q-3.65 10.23-12.34 12.19-8.69 1.96-16-.77-7.62-2.73-12.06-10.17-4.44-7.44-.02-17.87l143.04-351.69v-130.19H118.12q-16.5 0-24.66-13.87-8.15-13.86.43-28.36l98.69-171.73q7.69-12.73 20.31-20.23 12.61-7.5 27.65-7.5h75.23q15.04 0 27.65 7.5 12.62 7.5 21 20.23l98.69 171.73q7.89 14.5-.26 28.36-8.16 13.87-23.97 13.87h-139.3v130.19l142.73 351.69q4.04 10.43-.56 18.18t-11.52 10.48q-6.92 2.73-15.65-.04t-12.08-12.62L300.27-366.39v241.04q0 9.81-6.23 16.04-6.23 6.23-16.04 6.23-9.81 0-15.69-6.23-5.89-6.23-5.89-16.04v-239.73Zm422.96 112.19q-47.96 0-83.75-30.71-35.78-30.71-45.78-78.75h-44.43q-17.3 0-30.02-11.52-12.71-11.51-12.71-29.01 0-36.39 33.48-79.33t62.14-63.6q4.61-40.54 31.44-72.07 26.83-31.54 68.25-38.16v-179.31q0-9.11 6.23-15.34t15.69-6.23q9.46 0 15.69 6.23 6.24 6.23 6.24 15.34v179.31q40.53 6.62 67.65 38.25 27.11 31.64 32.11 71.98 28.66 20.46 62.64 64.16 33.98 43.69 33.98 80.57 0 17.12-13 27.93-13 10.8-29.92 10.8h-46.73q-10.39 48.04-46 78.75-35.62 30.71-83.2 30.71Zm0-43.72q28.47 0 50.24-18.81 21.76-18.81 32.96-46.93H597.96q9.73 28.12 31.31 46.93t50.11 18.81Z"/></svg>