<svg xmlns="http://www.w3.org/2000/svg" height="20" viewBox="0 -960 960 960" width="20"><path d="M221.5-280 151-103.5q-9.5 23-28.5 28.75T86.5-77q-17-8-28.25-24t-1.75-39.5l165.5-420v3.5H92.5Q61-557 44-583.75T42.5-639l91-187.5q14-28 41.5-44.75T234-888h77q31.5 0 59 16.75t41.5 44.75l91 187.5q15.5 28.5-1.5 55.25T452.5-557h-131v-3.5l165.5 419q9.5 23.5-1.25 40T457-77q-18 8-36.5 2.25t-28-29.75l-69-174.5v156.5q0 20.5-15 35.5T273-72q-20.5 0-36-15.5t-15.5-36V-280ZM729-252.5q-52.5 0-88.25-38.25T603-382.5h-24.5q-29 0-49.75-18.25T508-447.5q0-29.5 29.25-64.5T588-563.5q3.5-39 26-71.5t59-46.5v-151q0-22.5 17-39t39.5-16.5q22.5 0 39 16.5t16.5 39v150q36.5 14 58.75 46.75T871-563.5q22.5 17 51.75 52T952-447q0 27.5-21.5 46T879-382.5h-25.5q-1 53.5-36.25 91.75T729-252.5Zm0-92.5q14 0 23.5-10.75t8-26.75h-63q-1.5 16 8 26.75T729-345Z"/></svg>