<svg xmlns="http://www.w3.org/2000/svg" height="24" viewBox="0 -960 960 960" width="24"><path d="m225.15-270.3-68.37 169.8q-9.19 21.52-26.87 26.9-17.67 5.38-34.06-1.31-16.4-6.7-26.41-22.81-10.01-16.11-.81-38.13l157.02-393.04v-59.94H104.2q-28.85 0-43.81-24.96-14.96-24.97-.5-50.25l98.61-174.11q13.39-24.22 36.61-37.64 23.22-13.43 51.06-13.43h53.18q27.85 0 51.06 13.43 23.22 13.42 36.61 37.64l98.61 174.11q14.46 25.28-.5 50.25-14.96 24.96-43.8 24.96H319.37v59.94l156.02 393.04q9.2 22.02-.81 38.13-10.01 16.11-26.41 22.81-16.39 6.69-34.06 1.03-17.68-5.66-26.87-27.18L319.93-269.3v151.41q0 19.46-13.82 33.28-13.83 13.83-33.28 13.83-19.46 0-33.57-14.11t-14.11-33.57V-270.3Zm471.76 40.76q-57.02 0-100.31-37.06-43.3-37.05-55.16-93.64h-13.76q-27.09 0-47.02-18.08-19.92-18.07-19.92-44.66 0-34.37 31.97-74.67 31.96-40.31 58.33-59.24 4.5-41.7 30.16-74.74 25.65-33.04 65.71-47.31v-160.34q0-20.59 14.96-35.26 14.96-14.68 35.54-14.68 20.59 0 35.27 14.68 14.67 14.67 14.67 35.26v159.78q39.63 14.26 65.53 47.34 25.9 33.07 30.9 75.27 26.37 19.43 58.84 60.45 32.47 41.03 32.47 75.4 0 26.58-20.46 43.69-20.45 17.11-48.11 17.11h-15.19q-11.31 56.59-54.32 93.64-43.01 37.06-100.1 37.06Zm0-89.2q19.87 0 35.96-11.25t23.76-30.25H637.2q7.67 19 23.76 30.25 16.08 11.25 35.95 11.25Z"/></svg>