<svg xmlns="http://www.w3.org/2000/svg" height="24" viewBox="0 -960 960 960" width="24"><path d="M218.65-257.3 152.78-92q-9.9 22.52-28.47 28.15-18.57 5.63-35.96-1.06-17.4-6.7-27.66-23.81-10.26-17.11-.56-40.63l159.52-400.04v-60.44H97.7q-30.64 0-45.95-26.21-15.32-26.22-.36-53L151-845.65q14.39-25.22 38.53-39.39 24.14-14.18 53.64-14.18h52.18q29.5 0 53.64 14.18 24.14 14.17 38.53 39.39l99.61 176.61q14.96 26.78-.5 53-15.46 26.21-45.8 26.21H318.87v60.44l157.52 400.04q9.7 23.52-.56 40.63-10.26 17.11-27.66 23.81-17.39 6.69-36.06.78-18.68-5.91-28.37-28.43L318.43-257.3v146.91q0 21.08-14.23 35.35-14.24 14.26-35.29 14.26-21.04 0-35.65-14.61t-14.61-35.57V-257.3Zm482.26 34.26q-59.52 0-105.06-37.81-45.55-37.8-58.41-96.89h-8.26q-27.94 0-49.19-18.83-21.25-18.82-21.25-46.91 0-34.65 32.22-75.57 32.21-40.91 59.08-60.34 5-42.7 31.16-75.74 26.15-33.04 66.71-48.31v-163.34q0-22.29 15.46-37.36 15.46-15.08 37.68-15.08 22.23 0 37.26 15.08 15.04 15.07 15.04 37.36V-684q40.13 15.26 66.28 48.59 26.15 33.32 31.15 76.02 26.87 19.43 59.59 61.45 32.72 42.03 32.72 76.9 0 28-21.59 45.65-21.6 17.65-49.98 17.65h-8.69q-12.31 59.09-57.57 96.89-45.26 37.81-104.35 37.81ZM583.96-451.87h232.91q-5.58-8.32-11.73-15.75-6.14-7.42-14.49-13.34l-36.78-26.08-4.57-44.61q-2-19.61-15.66-32.57-13.67-12.95-32.73-12.95-19.35 0-33.65 13.24-14.3 13.23-16.3 32.84l-4.57 44.05-36.35 26.08q-8.34 5.92-14.79 13.34-6.45 7.43-11.29 15.75ZM188.17-695.26h162.18l-54.66-98.52h-53.08l-54.44 98.52Zm512.72 377.52q19.89 0 36.48-10.5 16.59-10.5 24.76-29.5H638.7q8.17 19 24.76 29.5 16.58 10.5 37.43 10.5Zm-.98-134.13ZM269.26-695.26Z"/></svg>