<svg xmlns="http://www.w3.org/2000/svg" height="24" viewBox="0 -960 960 960" width="24"><path d="M270.12-383.85 168.31-138.12q-3.27 8.16-10.73 10.68-7.46 2.52-13.54-.18-6.46-2.69-10.17-8.76-3.72-6.08.32-15.12l135.66-332.31v-126.34H147.04q-17.66 0-26.92-15.29-9.27-15.29.07-30.71l86.23-147.12q8.08-14.15 22-22.36 13.93-8.22 30.2-8.22h60.15q16.27 0 30.19 8.22 13.92 8.21 22.39 22.36l86.23 147.12q8.96 15.42-.31 30.71-9.27 15.29-26.54 15.29H306.65v126.34L442.46-151.5q3.27 8.27-.25 14.73-3.52 6.46-9.59 9.15-6.08 2.7-13.74.18-7.65-2.52-10.53-10.68L307.04-383.23v238.42q0 7.81-5.42 13.23-5.43 5.43-13.24 5.43-7.8 0-13.03-5.43-5.23-5.42-5.23-13.23v-239.04Zm399.73 124.27q-47.12 0-81.14-30.9t-42.02-78.17H514.5q-18.54 0-32.29-12.37-13.75-12.36-13.75-30.79 0-32.81 31.87-72.11 31.86-39.31 57.44-56.89 3.73-38.84 29.65-68.19 25.93-29.35 65.04-34.81v-171.77q0-7.42 5.42-12.84 5.43-5.43 13.04-5.43 7.62 0 13.04 5.43 5.42 5.42 5.42 12.84v171.77q38.12 5.46 64.49 34.75 26.36 29.29 31.36 68.25 25.58 17.69 57.94 57.62 32.37 39.92 32.37 72.73 0 17.65-14.19 29.73-14.2 12.08-32.73 12.08h-34.58q-8.77 47.27-43.17 78.17-34.41 30.9-81.02 30.9Zm0-37.19q30.23 0 52.92-20.67 22.69-20.68 33.58-51.21h-170.7q8.97 30.53 31.27 51.21 22.31 20.67 52.93 20.67Z"/></svg>