<svg xmlns="http://www.w3.org/2000/svg" height="40" viewBox="0 -960 960 960" width="40"><path d="m768.5-846.33 103 104.66q30 30.5 29.67 74.92-.34 44.42-30.34 74.42l-176 174.83q-15.5 15.5-35.58 15.25T624-417.67l-178.67-180.5Q430.5-613.33 431-633.92q.5-20.58 15.33-35.41L623.17-847q30-30 72.41-29.67 42.42.34 72.92 30.34Zm52.17 767.16q-11.5 11.84-26.5 11.84t-26.5-11.84l-205.5-205.16-148 146.83q-29.84 29.83-79.25 29.83-49.42 0-78.92-29.83l-8.17-8.17-15.16 16q-15.17 16.17-34.84 24.75-19.66 8.59-41.33 8.59H99.67q-16.34 0-22.34-16.17T83-140.33L167.33-225l-3.5-3.83q-32.83-32.5-32-80.25.84-47.75 33.67-80.25L311-535.5 78.33-768.17q-10.66-10.33-11.08-25.75-.42-15.41 11.08-27.25 11.5-11.5 26.17-11.5 14.67 0 26.17 11.5l690 690q10.66 10.67 11.08 25.59.42 14.91-11.08 26.41Z"/></svg>