<svg xmlns="http://www.w3.org/2000/svg" height="20" viewBox="0 -960 960 960" width="20"><path d="m779.5-824 82 84q32 34.5 32 81.25t-32 80.75l-160 158.5Q684-402 662.75-402.75T624-421L460-589.5q-16.5-17.5-15.5-39.25T462-667l156.5-158q33-33 80.75-32.5T779.5-824ZM778-117.5Q765.5-105 749.5-105T721-117.5L560.5-277l-124 122.5q-32.5 30.5-80.25 32t-78.25-29l-1.5-1.5 3.5-2q-16.5 18.5-38 28.25T195.5-117H132q-18 0-24-18.5t6-30.5l74-75-1.5-1.5Q154-274 156-320.25T191.5-398L315-522.5l-199-199q-12-12-12.25-28.25T116-778.5q12.5-12.5 28.5-12.5t28.5 12.5l605 605q12 12 12.25 27.75T778-117.5Z"/></svg>