<svg xmlns="http://www.w3.org/2000/svg" height="24" viewBox="0 -960 960 960" width="24"><path d="m722-758 60 60q18 18 18 42t-18 42L631-463q-4 4-9.5 4.5T611-463q-5-5-5-10t5-10l150-150q9-9 9-23t-9-23l-58-58q-9-9-23-9t-23 9L507-587q-4 4-9.5 4.5T487-587q-5-5-5-10t5-10l151-151q18-18 42-18t42 18Zm78 618q-5 5-10 5t-10-5L544-376 370-202q-18 18-42 18t-42-18l-10-10-34 34q-8 8-19.5 13t-23.5 5h-23q-10 0-13.5-9.5T166-186l68-68-8-8q-18-18-18-42t18-42l174-174-260-260q-4-4-4.5-9.5T140-800q5-5 10-5t10 5l640 640q4 4 4.5 9.5T800-140ZM246-282l60 60q9 9 22 9t22-9l174-174-104-104-174 174q-9 9-9 22t9 22Zm303-243Zm-77 77Z"/></svg>