<svg xmlns="http://www.w3.org/2000/svg" height="20" viewBox="0 -960 960 960" width="20"><path d="m764.72-807.91 84.17 85.73q25.92 28.42 25.92 66.91 0 38.49-25.92 66.4L683.68-424.72q-14.46 14.46-32.02 13.71-17.55-.75-32.01-15.21L468.26-581.24q-13.89-14.46-13.11-32.29.78-17.84 14.68-31.73l162.58-163.65q26.92-26.92 66.41-26.42 39.48.5 65.9 27.42Zm16.32 687.37q-11.63 11.63-26.32 11.63-14.7 0-26.33-11.63L553.98-293.96l-130.96 129.9q-27.28 25.28-66.34 26.78-39.05 1.5-64.33-23.78l-1.5-1.5 1.32-.27q-13.45 15.03-30.82 22.82-17.37 7.79-37.59 7.79h-84.8q-14.96 0-19.87-15.24-4.92-15.24 4.91-25.06l77.91-78.91-1.5-1.5q-26.85-25.85-25.06-64.28 1.78-38.42 29.63-64.27L335.43-512.5 119.04-728.89q-11.13-11.13-11.38-26.08-.25-14.94 11.38-26.57t26.33-11.63q14.7 0 26.33 11.63L781.04-172.2q11.13 11.13 11.38 25.58.25 14.45-11.38 26.08Z"/></svg>