<svg xmlns="http://www.w3.org/2000/svg" height="40" viewBox="0 -960 960 960" width="40"><path d="M719.17-758 780-697q15.83 16.83 16.08 39.75.25 22.92-16.08 39.25L621.5-460.33q-2.97 3-7.9 3.25t-8.52-3q-3.25-3.89-3.25-8.68 0-4.79 2.94-7.84l157.06-157.57q9-9 9-22.75t-9-23.25L702.5-739.5q-9.5-9-23.25-9t-22.75 9L499.11-583.05q-2.91 2.72-7.93 3.22-5.01.5-8.76-3.48-3.09-3.31-3.09-8.01 0-4.7 3.4-8.88l158.94-157.97Q657.5-774.5 680-774.42q22.5.09 39.17 16.42Zm82.77 618.25q-3.73 3.42-8.33 3.42-4.61 0-7.8-3.53L543.83-381.83 366.83-206Q350-188.5 325.8-188.5q-24.2 0-40.63-17.5l-12.5-11.83L234-179.5q-7.67 8.5-18.46 13.33-10.8 4.84-22.04 4.84h-16.56q-8.75 0-11.76-9.09-3.01-9.08 3.15-15.25l67.67-68.5-8.5-9.33q-17.5-16.67-17.42-40.42.09-23.75 18.25-41.58l175.84-176L140-786.33q-3.17-1.54-3.5-6.55-.33-5.02 3.39-9.04 3.07-3.75 7.54-3.75 4.47 0 8.64 3.41L801.83-156.5q3.17 3.29 3.5 8.31.34 5.02-3.39 8.44ZM242.33-281.67l61.67 61.5q9 9.67 21.75 9.67t22.25-9.67L526.67-399 421-505.33 242.33-325.67q-9.5 9-9.5 22t9.5 22ZM544-521.5Zm-70.5 69.33Z"/></svg>