<svg xmlns="http://www.w3.org/2000/svg" height="40" viewBox="0 -960 960 960" width="40"><path d="M742.33-776.67 805-714q22 22.67 22 52t-22 52L657.33-463.33q-10 10-24 10t-24-10L491.67-581q-10-10-10-23.67 0-13.66 10-23.66l148-148.34q22-22.66 51-22.66t51.66 22.66Zm74.34 659q-7 6.34-14.67 6.34t-14-6.34L550.33-355.33 377-183.67q-18 18.67-45.5 19.34-27.5.66-45.5-18l-12.67-12L239-159q-5.33 7.33-13.33 11.17-8 3.83-16.67 3.83h-52.33q-12 0-15.67-11.83-3.67-11.84 4.33-20.5l72-73-8.66-8.67q-18.67-18.67-17.84-45.33.84-26.67 20.84-46l172.66-172-267-267.67q-6-4.67-6.5-13.17t6.5-15.5q6.34-6.33 14-6.33 7.67 0 14.67 6.33L816.67-147q6 6 6.5 14.5t-6.5 14.83Z"/></svg>