<svg xmlns="http://www.w3.org/2000/svg" height="48" viewBox="0 -960 960 960" width="48"><path d="m743.72-825.7 109.54 110.29q18.63 19.17 18.13 50.25-.5 31.07-19.13 49.7L658.15-421.85q-9.92 10.2-23.46 10.2-13.55 0-22.91-10.2-10.06-9.72-10.18-22.95-.12-13.24 9.81-23.27l194.37-194.86-113.04-113.29L498.1-581.78q-9.48 9.87-22.75 9.87-13.26 0-23.09-10.15-10.06-9.93-9.94-23.48.11-13.55 10.07-23.55L649.26-826.2q18.67-18.63 47.13-18.38t47.33 18.88Zm88.72 746.65q-8.75 9.22-20.96 9.22t-21.09-9.47L553.13-316.57 389-153.17q-20.65 20.65-57.54 20.65-36.88 0-56.94-20.65l-11.5-11.5-25.04 25.28q-9.44 10.17-22.36 15.89-12.92 5.72-26.84 5.72h-81q-10.25 0-14.28-10.57-4.02-10.56 3.43-18.02l91.33-91.83-4.74-5.23q-23.65-23.16-22.78-59.39.87-36.22 24.76-59.61l160.63-161.14L78.8-790.89q-8.73-8.07-8.85-20.25-.12-12.19 8.72-21.41 8.85-9.23 20.84-9.23t21.09 9.1l711.7 711.7q8.74 8.78 8.86 20.74.12 11.96-8.72 21.19ZM219.48-302.2l113.28 112.79 174.13-174.63-113.28-113.29L219.48-302.2Zm312.8-199.78Zm-82.65 81.91Z"/></svg>