<svg xmlns="http://www.w3.org/2000/svg" height="24" viewBox="0 -960 960 960" width="24"><path d="m744.5-808 101 102q22 22.5 22 53.25t-22 52.75L680-434.5Q668.5-423 653.5-423t-26.25-11.5Q616-446 616-460.91T627-487l166-165.5L690.5-755 526-590q-11.5 11.5-26.75 11.5T472.5-590Q461-601.5 461-616.25t11.5-26.25l167-166.5q22-22 52.75-21.5T744.5-808ZM812-93.5Q800.5-82 785.5-82T759-93.5L548.5-303l-150 150.5Q376-130 344.25-130T290-152.5l-1.5-1.5-6.5 6q-10.5 9.5-23.5 14.75t-27 5.25H118.21q-13 0-18.1-11.5Q95-151 104-160l90-90-1.5-1.5q-22.5-22.5-23-54.75t22-54.75L341-510.5l-249-249q-11-11-11.25-26.25T92-812.5q11.5-11.5 26.5-11.5t26.5 11.5l667 667q11 11 11.25 25.75T812-93.5ZM243.5-306l102 101L496-355.5l-102-102L243.5-306ZM550-512ZM445-406.5Z"/></svg>