<svg xmlns="http://www.w3.org/2000/svg" height="20" viewBox="0 -960 960 960" width="20"><path d="M785.81-821.19 878-729q28 29.45 28 68.73Q906-621 878-591L711-424q-14 14-34.5 13.5t-34-14.5Q629-439 629-459.18T643-493l166-167-92-93-166 167q-13.67 14-33.83 14Q497-572 483-585.93t-14-34.5Q469-641 483-655l165-166q28.64-29 68.82-29 40.18 0 68.99 28.81ZM814.21-85q-14.46 15-34.33 15-19.88 0-34.86-14.98L558-271 422-136q-24 22-57 24.5T310-131l5-4q-6.14 7.63-13.57 11.32Q294-120 284.1-120H111q-15.92 0-21.46-15.5Q84-151 95-162l91-92q-23-22-20.5-55.5T192-365l136-136L83-746q-15-14.4-15-34.2Q68-800 82.79-815q14.79-15 34.67-15 19.87 0 34.54 15l661.92 661.92Q829-138.18 829-118.91q0 19.27-14.79 33.91ZM270-306l93 93 126-127-92-93-127 127Zm294-200ZM443-386Z"/></svg>