<svg xmlns="http://www.w3.org/2000/svg" height="40" viewBox="0 -960 960 960" width="40"><path d="m731.88-793.28 89.45 89.92q17.17 17.86 17.06 44.37-.11 26.5-17.47 43.86l-175.52 175q-7.02 7.21-16.9 7.3-9.89.1-16.96-7.2-7.14-7.34-7.14-16.94 0-9.6 6.87-16.59l175.28-175.58q3.46-3.46 3.46-8.75t-3.46-8.94l-90.61-90.62q-3.66-3.46-8.95-3.46-5.29 0-8.75 3.46L503.13-582.58q-6.87 6.86-16.69 7.05-9.81.2-17.2-7.27-7.14-7.2-7.14-16.86t7.36-17.34l177.23-176.75q17.17-17.36 42.49-17.13 25.32.24 42.7 17.6Zm85.14 687.43q-7.22 7.26-16.85 7.26-9.63 0-16.71-7.41L547.53-341.73 380.17-174.92q-18.68 18.93-48.16 18.93-29.48 0-47.77-18.93l-9.83-9.58-26.87 26.64q-8.39 8.71-19.81 13.69-11.41 4.99-23.56 4.99H137.7q-9.74 0-13.41-9.65-3.66-9.65 3.22-16.53l82.64-83.17-5.42-5.94q-20.16-19.65-19.93-48.93.24-29.29 20.66-49.38l165.38-165.64-265.3-265.55q-6.96-6.05-7.14-15.87-.18-9.81 7.03-17.31 6.96-7.39 16.54-7.39 9.58 0 17.08 7.21l677.86 677.86q6.96 7 7.14 16.68.18 9.67-7.03 16.94ZM233-294.59l91.41 90.94q3.46 3.71 8.37 3.71 4.9 0 8.55-3.71l172.21-172.48-108.33-108.59L233-311.51q-3.65 3.46-3.65 8.46 0 5 3.65 8.46Zm307.72-216.76Zm-81.68 81.13Z"/></svg>