<svg xmlns="http://www.w3.org/2000/svg" height="24" viewBox="0 -960 960 960" width="24"><path d="m761.92-797.38 72.16 72.15q27.38 27.38 27.38 63.23 0 35.85-27.38 63.23L688.23-453.69q-12.92 12.92-30.08 12.92-17.15 0-30.07-12.92l-137.7-137.69q-12.92-12.93-12.92-30.08 0-17.16 12.92-30.08l145.08-145.84q27.39-27.39 63.23-27.39 35.85 0 63.23 27.39Zm62.93 701.07q-10.62 10.62-23.27 10.62-12.66 0-23.27-10.62L554.85-319.54 391.92-157.38Q370.54-136 340.08-135q-30.46 1-51.85-20.38l-7.69-7.7L258.23-140q-4.69 6.23-12.04 9.73-7.34 3.5-15.81 3.5h-97.84q-14.92 0-20.39-14.08-5.46-14.07 5.23-24.77l79.54-80.3-6.15-6.16q-21.39-21.38-20.12-51.57 1.27-30.2 22.66-51.58l162.92-162.92L95.08-779.31q-9.85-9.84-10.23-22.88-.39-13.04 10.23-23.66 10.61-10.61 23.27-10.61 12.65 0 23.27 10.61l683.23 683.23q9.84 9.85 10.23 22.77.38 12.93-10.23 23.54Z"/></svg>