<svg xmlns="http://www.w3.org/2000/svg" height="20" viewBox="0 -960 960 960" width="20"><path d="m789.16-826.21 90.51 90.99q30.4 31.67 30.4 73.9 0 42.23-30.4 74.62L715.78-422.8q-15.08 15.19-37.07 14.69-21.99-.5-36.57-15.69-14.57-15.2-14.69-36.99-.12-21.79 15.07-36.51l163.13-163.66-90.56-91.8L552.2-588.87q-14.76 15.2-36.41 15.2-21.66 0-36.86-15.13-15.19-15.12-15.07-37.3.12-22.18 15.31-37.03l161.66-162.89q31.07-31.39 74.1-31.39 43.03 0 74.23 31.2Zm20.37 738.37q-14.36 14.97-34.1 14.97-19.73 0-34.72-14.98L560.15-267.17 427.26-135.28q-26.63 24.63-63.69 27.01-37.07 2.38-61.7-22.25l5.48-4.48q-8.53 10.02-19.01 14.9-10.48 4.88-23.37 4.88H111.24q-16.99 0-22.95-16.69-5.96-16.7 5.99-28.42l87.89-88.89-.24-.24q-25.86-24.87-23.36-61.83 2.5-36.97 29.36-61.84L321.07-506.5 86.11-741.46q-14.76-14.19-14.88-33.97-.12-19.79 14.69-34.79 14.82-15 34.6-15t34.35 15l654.51 654.51q14.84 14.7 14.84 33.99 0 19.28-14.69 33.88ZM270-307.67l91.57 91.56 124.56-125.56-90.56-91.57L270-307.67Zm291.61-199.29Zm-121 120Z"/></svg>