<svg xmlns="http://www.w3.org/2000/svg" height="48" viewBox="0 -960 960 960" width="48"><path d="m723.65-773.62 73.2 73.31q15.61 16.5 15.69 40.41.08 23.9-15.92 39.9L627.04-451.31q-4.06 4-10.59 4.19-6.53.2-10.93-4-4.14-4.81-4.14-11.09t3.84-10.2L773.81-641.5q6.92-6.92 6.92-17.5t-6.92-17.88l-72.85-72.85q-7.31-6.92-17.88-6.92-10.58 0-17.5 6.92L496.59-581.84q-3.93 3.76-10.37 4.15-6.45.38-11.16-4.49-3.94-4.09-3.94-10.4 0-6.31 4.3-11.55l170.73-169.6q15.62-16 38.37-15.94 22.75.05 39.13 16.05Zm88.08 649.33q-4.49 4.33-10.76 4.33-6.28 0-10.18-4.41l-244.91-244.9-176.23 174.96q-16.96 17.73-43.52 17.73-26.57 0-42.94-17.73l-13.04-12.27L233-169.81q-7.62 8.5-18.3 13.31-10.68 4.81-21.89 4.81h-32.59q-8.53 0-11.55-9.06-3.02-9.06 3.1-15.17l73.77-74.66-7.58-8.46q-18.42-17.54-18.25-43.61.17-26.08 19.37-44.77l174.27-174.39-268.73-269.5q-4.27-2.41-4.47-8.86-.19-6.45 4.31-11.46 3.72-4.72 9.84-4.72 6.12 0 11.2 4.39l666.08 666.08q4.27 4.4 4.46 10.83.19 6.43-4.31 10.76ZM234.77-285.62l74.77 74.66q6.92 7.69 16.73 7.69t17.11-7.69l180.47-180.58-108.62-109.38-180.46 181.46q-7.31 6.92-7.31 16.92 0 10 7.31 16.92ZM540.69-516.5Zm-71.65 70.38Z"/></svg>