<svg xmlns="http://www.w3.org/2000/svg" height="40" viewBox="0 -960 960 960" width="40"><path d="m767-838 110.67 110.67q24.66 24.97 24.33 60.81-.33 35.85-25 61.19L693-422q-12.38 12.33-29.73 12.33-17.36 0-28.94-12.33Q622-433.55 622-450.94t12.33-29.73l184-184-112.66-112.66-184.67 184Q508.8-581 491.69-581T463-593.48q-12.33-11.68-12.33-29.27 0-17.58 12.33-29.92L648.33-838q24.25-25.33 58.79-25.33 34.55 0 59.88 25.33Zm78.98 779.67Q833.63-46 816.53-46q-17.11 0-29.86-12.67l-228.34-228-158.66 158q-22 22-58.34 22.67-36.33.67-58.33-21.33l-7.33-7.34L261-119.33q-7.14 7.29-15.79 11.31-8.64 4.02-18.88 4.02h-138q-13.44 0-18.72-13-5.28-13 4.39-23.33l97.33-97.34-2.66-2.66q-24-24-23.17-60.17.83-36.17 25.5-60.17l156.67-156.66L57.33-787.67q-12.66-11.6-12.66-28.83 0-17.23 12.35-30.17 12.44-12 29.54-12 17.11 0 29.77 12l729.34 729.34q12.66 12.72 12.66 29.69t-12.35 29.31ZM228.33-300 341-187.33 499.67-346 387-458.67 228.33-300ZM549-508ZM442.67-402.33Z"/></svg>