<svg xmlns="http://www.w3.org/2000/svg" height="24" viewBox="0 -960 960 960" width="24"><path d="m763.72-828.91 98.17 99.73q29.92 30.52 29.92 71.96t-29.92 71.35L703.74-427.72q-15.27 15.46-35.45 15.46-20.18 0-35.1-15.46-14.93-15.45-15.21-36.02-.28-20.56 14.67-35.7l158.09-157.58-99.67-100.24-156.59 157.09q-15.42 15.45-36.06 15.45t-35.81-15.45q-15.18-15.46-14.89-35.86.28-20.41 15.17-35.3l158.52-158.58q30.02-29.92 71.46-29.42 41.43.5 70.85 30.42Zm44.26 739.37q-12.69 12.63-29.32 12.63-16.64 0-29.27-12.63L556.98-280.96l-140.96 140.9q-29.28 29.28-72.34 29.28-43.05 0-72.33-29.28l-1.5-1.5-3.68 3.73q-14.45 14.03-32.96 21.82-18.52 7.79-38.45 7.79h-85.59q-16.8 0-23.4-15.74-6.6-15.74 5.23-27.56l84.91-84.91-2.06-2.07q-29.85-29.85-29.79-71.99.07-42.14 29.92-71.99L314.43-523.5 88.04-749.89Q75.91-762.1 75.66-779q-.25-16.91 12.44-29.54 12.69-12.63 29.33-12.63t29.27 12.63L808.04-147.2q12.13 12.24 12.38 28.63.25 16.4-12.44 29.03ZM245.2-309.39l99.17 98.17 141.46-141.45-99.18-99.18L245.2-309.39ZM547.74-513.7ZM435.96-401.98Z"/></svg>