<svg xmlns="http://www.w3.org/2000/svg" height="48" viewBox="0 -960 960 960" width="48"><path d="M761.39-842.78 871-732.04q24.96 25.18 24.46 62.02-.5 36.85-25.46 62.8L680.65-418.87q-13.06 12.7-30.17 12.7-17.1 0-28.46-12.7-12.98-11.56-13.26-29.02-.28-17.45 12.98-30.46l189.91-188.78-113.17-113.74-190.91 189.35q-12.31 13.26-29.05 13.26-16.74 0-28.3-13.48-13.26-11.78-12.98-29.52.28-17.74 12.98-29.61l191.34-191.91q24.61-25.96 58.96-25.96t60.87 25.96Zm77.04 774.45q-10.15 10.42-24.3 10.42t-25.04-11l-229.26-228.7L399.91-138.7q-24.52 24.53-67.3 24.74-42.78.22-67.31-24.3l-11-11-21.43 22.43q-12.22 12.72-26.72 18.89-14.49 6.16-30.33 6.16H94.83q-12.79 0-17.81-13.2Q72-128.17 81.7-138.3l90.78-90.79-4.57-4.56q-27.52-27.52-26.8-68.96.72-41.43 29.8-69.52l157.48-157.48L68.48-789.52q-9.87-8.48-10.44-23.19-.56-14.72 10.13-26.12 10.82-10 24.55-10 13.72 0 24.53 10.03l721.14 721.15q9.87 10.15 10.15 24.52.29 14.38-10.11 24.8Zm-619-234.06 113.74 113.74 168.87-168.87L388.3-471.26 219.43-302.39ZM535.91-505.7Zm-92.3 91.31Z"/></svg>