<svg xmlns="http://www.w3.org/2000/svg" height="20" viewBox="0 -960 960 960" width="20"><path d="m741.46-772.69 73.08 73.08q17.69 19.69 17.69 45.61 0 25.92-17.69 45.61L653.61-447.85q-9.46 9.46-22.03 8.96-12.58-.5-22.04-9.96L490.69-569.69q-9.46-9.46-8.96-22.04.5-12.58 9.96-22.04l158.54-158.92q18.69-18.69 45.62-18.69 26.92 0 45.61 18.69Zm44.46 635.53q-8.31 8.31-18.38 8.31-10.08 0-18.39-8.31L545.92-339.77 395.46-189.69Q375.77-172 350.54-170.5t-42.92-16.19l-3.85-3.85L292.61-179q-8.84 9.61-20.26 14.61-11.43 5-24.66 5h-82.92q-10.46 0-13.69-10.53-3.23-10.54 3.61-17.39l75.77-76.15-3.07-3.08q-18.7-17.69-17.31-43.54 1.38-25.84 21.08-43.53l150.46-150.47-245.08-245.07q-7.92-7.93-8.12-18.2-.19-10.26 8.12-18.57 8.31-8.31 18.38-8.31 10.08 0 18.39 8.31l612.61 612.61q7.93 7.92 8.12 17.89.19 9.96-8.12 18.26Z"/></svg>