<svg xmlns="http://www.w3.org/2000/svg" height="20" viewBox="0 -960 960 960" width="20"><path d="M755.81-763.19 804-715q22 23.45 22 54.73Q826-629 804-605L649-450q-6 6-15.5 6t-16-7q-6.5-7-6.5-16.18t7-15.82l152-154q9-9 9-23t-9-23l-46-47q-9-9-23-9t-23 9L525-576q-5.67 6-14.83 6.5-9.17.5-16.17-6.43-7-6.93-7-16.5t7-16.57l152-154q22.64-23 54.82-23t54.99 22.81ZM793.21-140q-7.46 8-15.83 8-8.38 0-16.36-7.98L550-351 392-195q-18 16-42.5 18.5T309-190l-10-10-24 26q-3.14 6.63-9.07 10.32Q260-160 252.1-160H178q-11.92 0-15.46-13-3.54-13 4.46-21l67-69-8-8q-17-16-13.5-40t21.5-40l158-158-253-253q-7-6.4-7.5-15.2-.5-8.8 7.29-16.8t16.17-8q8.37 0 16.04 8l621.92 621.92q7.08 6.9 7.58 15.67T793.21-140ZM276-284l49 49q9 9 22 9t22-9l148-149-92-93-149 149q-9 9-9 22t9 22Zm281-230Zm-86 84Z"/></svg>