<svg xmlns="http://www.w3.org/2000/svg" height="20" viewBox="0 -960 960 960" width="20"><path d="m745.5-787 87 88q18 20.5 18 48.25t-18 47.75l-172 171.5q-10.5 10.5-23.25 9.75T614-433L479-570.5q-10.5-10.5-10-23.25T480-617l170.5-171q19-19 47.75-18.5T745.5-787ZM785-124.5Q774.5-114 761.5-114T738-124.5L545.5-316l-140 139.5q-20.5 18.5-48.25 20t-46.25-17l-1.5-1.5-1.5 2q-9.5 10.5-21.5 15.75t-26 5.25H148q-11 0-14.5-11t3.5-18l83-84-1.5-1.5q-19.5-18.5-18-46.75t22-46.75L362-499.5l-239-239q-10-10-10.25-23.25T123-785.5q10.5-10.5 23.5-10.5t23.5 10.5l615 615q10 10 10.25 22.75T785-124.5Z"/></svg>