<svg xmlns="http://www.w3.org/2000/svg" height="24" viewBox="0 -960 960 960" width="24"><path d="m788.35-847.02 104.32 104.8q34.4 34.15 34.4 79.14t-34.4 79.38L733.54-424.8q-16.95 17.19-39.39 17.19-22.43 0-39.63-17.19L470.7-609.11q-16.72-16.96-16.6-39.51.12-22.55 16.83-39.51l158.9-158.89q34.39-34.39 79.26-34.39 44.87 0 79.26 34.39Zm48.11 790.15q-16 16-37.38 16-21.38 0-37.38-16l-198.55-197.3-142.89 142.89q-28.63 28.63-69.69 29.51-41.07.88-69.7-27.75l.48-.48q-9.39 9.39-20.88 14.09-11.49 4.69-24.6 4.69H81.24q-19.2 0-26.56-17.19-7.35-17.2 6.6-30.92l94.89-94.89q-28.87-28.87-28.49-69.95.39-41.09 29.25-69.96L300.07-517.5 55.11-762.46q-15.76-15.76-15.88-37.26-.12-21.5 15.88-37.5t37.38-16q21.38 0 37.38 16l706.59 706.59q15.76 15.76 15.76 36.76t-15.76 37Z"/></svg>