<svg xmlns="http://www.w3.org/2000/svg" height="20" viewBox="0 -960 960 960" width="20"><path d="m772.22-815.91 87.17 87.73q27.92 29.92 27.92 69.66 0 39.74-27.92 69.65L697.18-427.22q-14.96 14.96-34.27 14.46-19.3-.5-34.26-15.46L472.26-587.74q-14.39-14.96-13.61-34.54.78-19.59 15.18-33.98l159.08-159.65q28.92-28.92 69.66-28.92 40.73 0 69.65 28.92Zm17.82 703.87q-12.13 12.13-28.32 12.13-16.2 0-28.33-12.13L557.48-286.96l-132.96 132.4q-28.78 26.78-68.59 28.28-39.8 1.5-66.58-25.28l2.82-2.27q-13.95 14.53-31.32 22.07-17.37 7.54-37.59 7.54h-93.3q-15.96 0-21.37-15.74-5.42-15.74 5.41-26.56l79.91-79.91q-28.35-27.35-27.06-67.03 1.28-39.67 30.63-67.02L330.43-514 111.04-733.39q-12.13-12.13-12.13-28.33 0-16.19 12.13-28.32 12.13-12.13 28.33-12.13 16.2 0 28.33 12.13L790.04-167.7q12.13 12.13 12.13 27.83 0 15.7-12.13 27.83Z"/></svg>