<svg xmlns="http://www.w3.org/2000/svg" height="20" viewBox="0 -960 960 960" width="20"><path d="M786.81-832.19 872-746q34 36 34 84t-34 84L717-423q-17.67 18-41.83 17.5Q651-406 634-424t-17.5-42.18Q616-490.36 634-508l154-154-85-87-153 154q-17.6 18-41.8 18-24.2 0-41.7-17.93-17.5-17.93-17-42.5T467-679l152-153q35.18-35 84.09-35 48.91 0 83.72 34.81Zm.08 723.19q-12.77 13-30.33 13t-30.54-12.98L564-270 438-145q-34 32-82.5 33.5T275-142l5-4q-17 18-38.75 27.5T195.1-109H123q-18.72 0-25.36-19Q91-147 104-160l76-76-1-1q-34-33-32-80t37-80l126-127-202-202q-13-12.8-13-30.4 0-17.6 13.11-30.6 13.1-13 30.66-13 17.56 0 30.23 13l617.92 617.92Q800-155.82 800-138.73q0 17.09-13.11 29.73ZM268-314l86 86 126-127-85-86-127 127Zm283-196ZM437-397Z"/></svg>