<svg xmlns="http://www.w3.org/2000/svg" height="40" viewBox="0 -960 960 960" width="40"><path d="m767-838 110.67 110.67q24.66 25.33 24.33 61-.33 35.66-25 61L693-422q-12.67 12.67-29.67 12.67t-29-12.67l-172-171.33q-12.66-12.67-12.66-29.34 0-16.66 12.66-29.33l186-186q24.67-25.33 59-25.33 34.34 0 59.67 25.33Zm78.67 779.33Q833-46 816.17-46q-16.84 0-29.5-12.67l-228.34-228-158.66 158q-22 22-58.34 22.67-36.33.67-58.33-21.33l-7.33-7.34L261-119.33q-7 7.66-15.83 11.5-8.84 3.83-18.84 3.83h-138q-14 0-19-13T74-140.33l97.33-97.34-2.66-2.66q-24-24-23.17-60.17.83-36.17 25.5-60.17l156.67-156.66L57.33-787.67q-12.66-12-12.66-29.16 0-17.17 12.66-29.84 12.67-12 29.5-12 16.84 0 29.5 12l729.34 729.34q12.66 12.66 12.66 29.66t-12.66 29Z"/></svg>