<svg xmlns="http://www.w3.org/2000/svg" height="40" viewBox="0 -960 960 960" width="40"><path d="m773.33-851.67 105 106q31.34 31.34 31 76.67-.33 45.33-31.66 76.67L703.67-419q-15.67 15.67-36.84 15.67-21.16 0-36.83-15.67L448-602.33q-15.33-15.67-14.83-37.34.5-21.66 15.83-37l174.33-175Q654.67-883 698-883t75.33 31.33Zm53.34 778.34q-12 12-27.84 12-15.83 0-27.83-12L564.33-279.67 415-131q-30.67 30.67-80.5 30.67T254-131l-7.33-7.33-14 14.66Q217.33-108 197.5-99.5 177.67-91 156-91H93.67q-17 0-23.34-16.5-6.33-16.5 6-28.83L162-221.67l-2.67-2.66Q125.67-258 126.17-306.5t34.16-82.17l147.34-147.66L73-771q-11.33-11.33-11.67-27.5Q61-814.67 73-826.67t27.5-12q15.5 0 27.5 12L826.67-128q11.33 11.33 11.66 27 .34 15.67-11.66 27.67Z"/></svg>