<svg xmlns="http://www.w3.org/2000/svg" height="20" viewBox="0 -960 960 960" width="20"><path d="m764.53-808.1 84.36 85.92q25.92 28.34 25.92 66.87t-25.92 66.44L685.74-425.72q-14.27 14.46-32.95 13.96-18.68-.5-32.1-14.96-13.43-14.45-13.71-33.2-.28-18.74 13.67-32.52l162.09-162.58-85.67-87.24-160.59 162.09q-14.09 14.45-32.89 14.45-18.81 0-32.98-14.38-14.18-14.39-13.89-33.36.28-18.98 14.17-32.87l161.52-162.58q27.02-26.92 66.46-26.42 39.43.5 65.66 27.23Zm16.45 687.56q-11.35 11.63-26.16 11.63-14.8 0-26.41-11.61L553.98-293.96l-130.96 129.9q-27.28 25.28-66.34 26.78-39.05 1.5-64.33-23.78l-1.5-1.5 1.32-.27q-13.45 15.03-30.96 22.82-17.52 7.79-37.35 7.79h-84.69q-14.8 0-19.9-15.24-5.1-15.24 4.73-25.06l77.91-78.91-2.06-2.07q-26.85-25.85-24.79-63.99 2.07-38.14 29.92-63.99L335.43-512.5 119.04-728.89q-11.13-10.87-11.38-25.95-.25-15.07 11.44-26.7 11.69-11.63 26.5-11.63 14.8 0 26.1 11.63l609.26 609.26q11.21 11.32 11.46 25.89.25 14.58-11.44 25.85ZM270.2-313.39l86.17 85.17 131.46-132.45-85.18-86.18L270.2-313.39ZM546.74-503.7ZM444.96-402.98Z"/></svg>