<svg xmlns="http://www.w3.org/2000/svg" height="40" viewBox="0 -960 960 960" width="40"><path d="m756.04-832.86 104.88 106.12q24.78 25.28 24.45 62.89-.33 37.6-25.12 62.39L679.91-421.85q-13.04 13.04-30.01 12.79-16.97-.25-29.67-12.95L452.14-591.36q-12.51-12.7-12.23-29.95.28-17.25 12.8-29.76l182.05-182.45q24.78-24.79 60.53-24.45 35.75.33 60.75 25.11Zm67.09 751.23q-10.63 10.96-24.62 10.96-13.98 0-24.61-10.96L556.8-298.39 403.01-145.33q-25.49 25.49-67.66 25.49t-67.32-25.49l-8.17-8.16-17.05 17.45Q230.4-123.06 214.14-116q-16.26 7.06-34.02 7.06h-74.66q-13.87 0-18.92-13.49-5.06-13.48 4.72-23.27l87.67-88-3.5-3.83q-28.05-27.72-27.44-68.94.62-41.23 28.67-68.95l151.3-151.82L80.8-774.4q-10.09-9.75-10.36-24.01-.27-14.26 10.36-25.22 10.63-10.63 24.42-10.63 13.8 0 24.43 10.63l693.48 693.48q10.09 10.09 10.36 23.99.27 13.9-10.36 24.53Z"/></svg>