<svg xmlns="http://www.w3.org/2000/svg" version="1.1" width="3300" height="2000"><g id="Notes"><style>
    text {
      font-family: monospace;
      text-anchor: middle;
    }
    text.emphasis {
      font-weight:bold;
    }
    text.lanchor {
      text-anchor: start;
    }
  </style><rect height="2200" id="artboard" fill="white" width="3300" x="0" y="0"/><line id="" style="fill:none;stroke:black;stroke-width:0.5;" x1="263" x2="3036" y1="292" y2="292"/><text class="lanchor emphasis" transform="matrix(1 0 0 1 263 322)">Weight/Scale Variations</text><text transform="matrix(1 0 0 1 559.711 322)">Ultralight</text><text transform="matrix(1 0 0 1 856.422 322)">Thin</text><text transform="matrix(1 0 0 1 1153.13 322)">Light</text><text transform="matrix(1 0 0 1 1449.84 322)">Regular</text><text transform="matrix(1 0 0 1 1746.56 322)">Medium</text><text transform="matrix(1 0 0 1 2043.27 322)">Semibold</text><text transform="matrix(1 0 0 1 2339.98 322)">Bold</text><text transform="matrix(1 0 0 1 2636.69 322)">Heavy</text><text transform="matrix(1 0 0 1 2933.4 322)">Black</text><text id="template-version" style="text-anchor: end;" transform="matrix(1 0 0 1 3036 1933)">Template v.1.0</text><text class="lanchor" transform="matrix(1 0 0 1 263 726)">Small</text><text class="lanchor" transform="matrix(1 0 0 1 263 1156)">Medium</text><text class="lanchor" transform="matrix(1 0 0 1 263 1586)">Large</text></g><g id="Guides"><g id="H-reference" style="fill:#27AAE1;stroke:none;" transform="matrix(1 0 0 1 339 696)"><path d="M 54.9316 0 L 57.666 0 L 30.5664 -70.459 L 28.0762 -70.459 L 0.976562 0 L 3.66211 0 L 12.9395 -24.4629 L 45.7031 -24.4629 Z M 29.1992 -67.0898 L 29.4434 -67.0898 L 44.8242 -26.709 L 13.8184 -26.709 Z"/></g><line id="Baseline-S" style="fill:none;stroke:#27AAE1;opacity:1;stroke-width:0.577;" x1="263" x2="3036" y1="696" y2="696"/><line id="Capline-S" style="fill:none;stroke:#27AAE1;opacity:1;stroke-width:0.577;" x1="263" x2="3036" y1="625.541" y2="625.541"/><g id="H-reference" style="fill:#27AAE1;stroke:none;" transform="matrix(1 0 0 1 339 1126)"><path d="M 54.9316 0 L 57.666 0 L 30.5664 -70.459 L 28.0762 -70.459 L 0.976562 0 L 3.66211 0 L 12.9395 -24.4629 L 45.7031 -24.4629 Z M 29.1992 -67.0898 L 29.4434 -67.0898 L 44.8242 -26.709 L 13.8184 -26.709 Z"/></g><line id="Baseline-M" style="fill:none;stroke:#27AAE1;opacity:1;stroke-width:0.577;" x1="263" x2="3036" y1="1126" y2="1126"/><line id="Capline-M" style="fill:none;stroke:#27AAE1;opacity:1;stroke-width:0.577;" x1="263" x2="3036" y1="1055.54" y2="1055.54"/><g id="H-reference" style="fill:#27AAE1;stroke:none;" transform="matrix(1 0 0 1 339 1556)"><path d="M 54.9316 0 L 57.666 0 L 30.5664 -70.459 L 28.0762 -70.459 L 0.976562 0 L 3.66211 0 L 12.9395 -24.4629 L 45.7031 -24.4629 Z M 29.1992 -67.0898 L 29.4434 -67.0898 L 44.8242 -26.709 L 13.8184 -26.709 Z"/></g><line id="Baseline-L" style="fill:none;stroke:#27AAE1;opacity:1;stroke-width:0.577;" x1="263" x2="3036" y1="1556" y2="1556"/><line id="Capline-L" style="fill:none;stroke:#27AAE1;opacity:1;stroke-width:0.577;" x1="263" x2="3036" y1="1485.54" y2="1485.54"/><rect height="119.336" id="left-margin" style="fill:darkred;stroke:none;opacity:0.4;" width="12.4512" x="1394.06" y="1030.79"/><rect height="119.336" id="right-margin" style="fill:darkgreen;stroke:none;opacity:0.4;" width="12.4512" x="1502.5112" y="1030.79"/><rect x="1406.5112" y="1045" width="96" height="96" fill="none" stroke="blue" stroke-dasharray="5"/><rect x="1394.06" y="1030.79" width="120.9024" height="119.336" fill="none" stroke="blue"/></g><g id="Symbols"><g id="Bold-L" transform="matrix(1 0 0 1 2266 1556)"><path d="M77.4 28.303  61.275 13.468 Q44.344 -2.012 34.024 -12.736 Q23.704 -23.459 18.06 -31.521 Q12.416 -39.584 10.643 -46.195 Q8.869 -52.806 8.869 -60.224 Q8.869 -76.671 19.753 -87.959 Q30.637 -99.246 46.763 -99.246 Q55.954 -99.246 63.613 -95.376 Q71.273 -91.506 77.4 -84.089 Q84.334 -91.829 91.751 -95.537 Q99.169 -99.246 108.038 -99.246 Q125.13 -99.246 135.773 -87.394 Q146.415 -75.542 145.931 -58.934 H130.451 Q130.935 -67.802 124.566 -75.865 Q118.196 -83.927 108.038 -83.927 Q100.62 -83.927 93.525 -79.09 Q86.43 -74.252 84.011 -65.545 H70.789 Q68.37 -74.091 61.436 -79.009 Q54.503 -83.927 46.763 -83.927 Q36.604 -83.927 30.396 -77.236 Q24.188 -70.544 24.188 -60.224 Q24.188 -54.257 26.123 -48.775 Q28.058 -43.292 33.782 -35.875 Q39.506 -28.457 49.907 -18.057 Q60.308 -7.656 77.4 8.308 L87.559 -1.529 Q96.105 -9.752 103.764 -17.17 Q111.424 -24.587 119.164 -33.94 H105.941 V-49.259 H146.093 V-10.559 H130.935 V-24.587 Q121.744 -14.267 113.52 -5.721 Q105.296 2.825 95.138 11.855 L77.4 28.303 Z"/></g><g id="Semibold-L" transform="matrix(1 0 0 1 1970.27 1556)"><path d="M77.4 25.919  60.504 10.383 Q44.694 -4.115 34.899 -14.172 Q25.107 -24.23 19.672 -31.907 Q14.238 -39.584 12.431 -45.985 Q10.622 -52.385 10.622 -59.522 Q10.622 -75.199 21.05 -85.925 Q31.479 -96.652 46.763 -96.652 Q55.954 -96.652 63.682 -92.608 Q71.413 -88.562 77.4 -80.794 Q84.193 -88.884 91.682 -92.769 Q99.169 -96.652 108.038 -96.652 Q124.359 -96.652 134.545 -85.151 Q144.733 -73.649 144.109 -57.742 H131.082 Q131.846 -67.382 125.196 -75.584 Q118.546 -83.787 108.038 -83.787 Q100.27 -83.787 93.175 -78.88 Q86.08 -73.972 82.82 -65.055 H71.911 Q68.72 -73.811 61.717 -78.8 Q54.712 -83.787 46.763 -83.787 Q36.463 -83.787 29.975 -76.92 Q23.486 -70.054 23.486 -59.522 Q23.486 -53.627 25.457 -48.145 Q27.427 -42.662 33.221 -35.245 Q39.016 -27.827 49.591 -17.355 Q60.167 -6.885 77.4 9.078 L88.049 -1.039 Q96.947 -9.472 105.272 -17.486 Q113.597 -25.499 121.337 -35.203 H107.064 V-48.067 H144.27 V-11.75 H131.496 V-27.601 Q122.726 -17.212 113.976 -8.385 Q105.227 0.442 95.207 9.472 L77.4 25.919 Z"/></g><g id="Medium-L" transform="matrix(1 0 0 1 1674.31 1556)"><path d="M77.4 24.131  59.925 8.069 Q44.957 -5.694 35.557 -15.251 Q26.158 -24.808 20.882 -32.195 Q15.606 -39.584 13.771 -45.827 Q11.936 -52.069 11.936 -58.997 Q11.936 -74.094 22.024 -84.4 Q32.11 -94.707 46.763 -94.707 Q55.954 -94.707 63.736 -90.531 Q71.518 -86.353 77.4 -78.322 Q84.089 -86.675 91.629 -90.692 Q99.169 -94.707 108.038 -94.707 Q123.78 -94.707 133.625 -83.468 Q143.471 -72.23 142.742 -56.849 H131.556 Q132.53 -67.066 125.67 -75.375 Q118.809 -83.682 108.038 -83.682 Q100.007 -83.682 92.912 -78.722 Q85.817 -73.762 81.926 -64.686 H72.751 Q68.983 -73.601 61.926 -78.642 Q54.87 -83.682 46.763 -83.682 Q36.359 -83.682 29.659 -76.684 Q22.96 -69.684 22.96 -58.997 Q22.96 -53.153 24.957 -47.67 Q26.953 -42.188 32.8 -34.77 Q38.647 -27.353 49.355 -16.83 Q60.062 -6.307 77.4 9.657 L88.418 -0.669 Q97.577 -9.262 106.402 -17.721 Q115.228 -26.182 122.968 -36.149 H107.904 V-47.174 H142.903 V-12.644 H131.917 V-29.864 Q123.461 -19.421 114.318 -10.383 Q105.174 -1.347 95.26 7.683 L77.4 24.131 Z"/></g><g id="Regular-L" transform="matrix(1 0 0 1 1378.56 1556)"><path d="M77.4 22.82  59.501 6.373 Q45.15 -6.85 36.039 -16.041 Q26.929 -25.232 21.769 -32.408 Q16.609 -39.584 14.754 -45.711 Q12.9 -51.839 12.9 -58.611 Q12.9 -73.285 22.736 -83.282 Q32.572 -93.28 46.763 -93.28 Q55.954 -93.28 63.774 -89.007 Q71.595 -84.734 77.4 -76.51 Q84.011 -85.056 91.59 -89.168 Q99.169 -93.28 108.038 -93.28 Q123.356 -93.28 132.951 -82.234 Q142.545 -71.189 141.739 -56.192 H131.903 Q133.031 -66.835 126.017 -75.22 Q119.002 -83.605 108.038 -83.605 Q99.814 -83.605 92.719 -78.606 Q85.624 -73.607 81.27 -64.416 H73.369 Q69.176 -73.446 62.081 -78.526 Q54.986 -83.605 46.763 -83.605 Q36.281 -83.605 29.428 -76.51 Q22.575 -69.415 22.575 -58.611 Q22.575 -52.806 24.591 -47.324 Q26.606 -41.841 32.492 -34.424 Q38.377 -27.006 49.181 -16.444 Q59.985 -5.882 77.4 10.081 L88.688 -0.4 Q98.04 -9.107 107.231 -17.896 Q116.422 -26.684 124.163 -36.842 H108.521 V-46.517 H141.9 V-13.3 H132.225 V-31.521 Q124.001 -21.04 114.568 -11.849 Q105.135 -2.657 95.299 6.373 L77.4 22.82 Z"/></g><g id="Light-L" transform="matrix(1 0 0 1 1082.77 1556)"><path d="M77.4 19.595  61.362 4.884 Q47.632 -7.719 38.831 -16.723 Q30.03 -25.729 24.963 -32.811 Q19.897 -39.893 18.01 -45.897 Q16.125 -51.9 16.125 -58.363 Q16.125 -71.734 25.155 -80.894 Q34.185 -90.055 47.196 -90.055 Q56.202 -90.055 63.899 -85.564 Q71.595 -81.075 77.4 -72.416 Q83.826 -81.335 91.311 -85.695 Q98.796 -90.055 107.604 -90.055 Q121.31 -90.055 130.19 -80.312 Q139.072 -70.568 138.638 -57.123 H131.096 Q131.728 -67.58 124.653 -75.159 Q117.575 -82.736 107.604 -82.736 Q99.504 -82.736 92.533 -77.894 Q85.562 -73.05 80.649 -63.486 H73.99 Q69.176 -72.95 62.236 -77.844 Q55.296 -82.736 47.196 -82.736 Q36.963 -82.736 30.204 -75.797 Q23.444 -68.857 23.444 -58.363 Q23.444 -52.621 25.521 -47.045 Q27.598 -41.469 33.453 -33.99 Q39.308 -26.51 49.894 -16.072 Q60.482 -5.634 77.4 9.957 L88.997 -0.834 Q98.846 -9.977 108.068 -19.136 Q117.292 -28.296 125.217 -39.261 H107.715 V-46.579 H138.736 V-15.719 H131.419 V-35.428 Q123.195 -24.08 113.607 -14.485 Q104.019 -4.891 93.686 4.636 L77.4 19.595 Z"/></g><g id="Thin-L" transform="matrix(1 0 0 1 787.282 1556)"><path d="M77.4 16.37  63.223 3.396 Q50.112 -8.587 41.622 -17.405 Q33.13 -26.224 28.157 -33.214 Q23.183 -40.205 21.266 -46.084 Q19.35 -51.963 19.35 -58.115 Q19.35 -70.184 27.574 -78.506 Q35.797 -86.83 47.63 -86.83 Q56.45 -86.83 64.023 -82.123 Q71.595 -77.416 77.4 -68.323 Q83.639 -77.615 91.032 -82.221 Q98.424 -86.83 107.17 -86.83 Q119.264 -86.83 127.431 -78.389 Q135.598 -69.949 135.537 -58.053 H130.29 Q130.427 -68.323 123.289 -75.096 Q116.15 -81.868 107.17 -81.868 Q99.193 -81.868 92.346 -77.179 Q85.5 -72.492 80.03 -62.555 H74.609 Q69.176 -72.455 62.391 -77.161 Q55.607 -81.868 47.63 -81.868 Q37.645 -81.868 30.979 -75.083 Q24.312 -68.299 24.312 -58.115 Q24.312 -52.434 26.451 -46.766 Q28.591 -41.096 34.414 -33.556 Q40.238 -26.015 50.608 -15.699 Q60.977 -5.386 77.4 9.833 L89.308 -1.268 Q99.653 -10.844 108.905 -20.376 Q118.159 -29.909 126.272 -41.68 H106.909 V-46.642 H135.574 V-18.137 H130.613 V-39.335 Q122.389 -27.118 112.646 -17.12 Q102.902 -7.123 92.074 2.899 L77.4 16.37 Z"/></g><g id="Ultralight-L" transform="matrix(1 0 0 1 491.205 1556)"><path d="M77.4 14.435  64.339 2.503 Q51.6 -9.107 43.296 -17.815 Q34.991 -26.522 30.073 -33.456 Q25.155 -40.39 23.22 -46.195 Q21.285 -52 21.285 -57.966 Q21.285 -69.254 29.025 -77.074 Q36.765 -84.895 47.891 -84.895 Q56.599 -84.895 64.097 -80.057 Q71.595 -75.22 77.4 -65.867 Q83.528 -75.381 90.864 -80.138 Q98.201 -84.895 106.909 -84.895 Q118.035 -84.895 125.775 -77.236 Q133.515 -69.576 133.676 -58.611 H129.806 Q129.645 -68.77 122.469 -75.059 Q115.294 -81.347 106.909 -81.347 Q99.008 -81.347 92.235 -76.752 Q85.463 -72.156 79.657 -61.997 H74.981 Q69.176 -72.156 62.484 -76.752 Q55.793 -81.347 47.891 -81.347 Q38.055 -81.347 31.444 -74.656 Q24.832 -67.964 24.832 -57.966 Q24.832 -52.322 27.009 -46.598 Q29.186 -40.874 34.991 -33.295 Q40.796 -25.716 51.036 -15.477 Q61.275 -5.237 77.4 9.759 L89.494 -1.529 Q100.136 -11.365 109.408 -21.121 Q118.68 -30.876 126.904 -43.131 H106.425 V-46.679 H133.676 V-19.589 H130.129 V-41.68 Q121.905 -28.941 112.069 -18.702 Q102.233 -8.462 91.106 1.858 L77.4 14.435 Z"/></g><g id="Bold-M" transform="matrix(1 0 0 1 2281.8 1126)"><path d="M60 15.52  46 2.895 Q34.375 -7.605 26.625 -15.48 Q18.875 -23.355 14.25 -29.917 Q9.625 -36.48 7.688 -42.292 Q5.75 -48.105 5.75 -54.48 Q5.75 -68.105 14.812 -77.23 Q23.875 -86.355 37.5 -86.355 Q43.875 -86.355 49.625 -84.105 Q55.375 -81.855 60 -77.48 Q64.625 -81.855 70.375 -84.105 Q76.125 -86.355 82.5 -86.355 Q94.25 -86.355 103.562 -78.855 Q112.875 -71.355 114.25 -58.105 H98.125 Q96.75 -64.48 91.625 -67.542 Q86.5 -70.605 82.5 -70.605 Q77.125 -70.605 72.375 -67.292 Q67.625 -63.98 65.75 -58.855 H54.375 Q52.5 -63.98 47.688 -67.292 Q42.875 -70.605 37.5 -70.605 Q30.75 -70.605 26.188 -66.042 Q21.625 -61.48 21.625 -54.48 Q21.625 -50.23 23.312 -45.98 Q25 -41.73 29.312 -36.23 Q33.625 -30.73 41.062 -23.417 Q48.5 -16.105 60 -5.605 L66.375 -11.48 Q71.625 -16.23 77.125 -21.48 Q82.625 -26.73 87.375 -32.23 H79 V-48.105 H114.375 V-14.105 H98.625 V-21.105 Q92.625 -14.73 86.562 -8.73 Q80.5 -2.73 74.125 2.895 L60 15.52 Z"/></g><g id="Semibold-M" transform="matrix(1 0 0 1 1985.97 1126)"><path d="M60 13.02  45.185 -0.311 Q34.701 -9.779 27.521 -17.001 Q20.343 -24.225 15.908 -30.38 Q11.473 -36.534 9.535 -42.102 Q7.598 -47.67 7.598 -53.774 Q7.598 -66.584 16.144 -75.137 Q24.69 -83.692 37.5 -83.692 Q43.929 -83.692 49.734 -81.225 Q55.538 -78.757 60 -74.111 Q64.463 -78.757 70.266 -81.225 Q76.071 -83.692 82.5 -83.692 Q93.489 -83.692 102.312 -76.545 Q111.136 -69.399 112.347 -56.855 H98.778 Q97.62 -64.045 92.222 -67.244 Q86.826 -70.442 82.5 -70.442 Q76.69 -70.442 71.995 -67.075 Q67.299 -63.709 64.5 -58.366 H55.57 Q52.826 -63.709 47.959 -67.075 Q43.093 -70.442 37.5 -70.442 Q30.587 -70.442 25.753 -65.716 Q20.919 -60.991 20.919 -53.774 Q20.919 -49.577 22.634 -45.327 Q24.348 -41.077 28.742 -35.551 Q33.136 -30.024 40.709 -22.656 Q48.282 -15.29 60 -4.79 L66.919 -10.991 Q72.495 -15.959 78.674 -21.806 Q84.853 -27.654 89.657 -33.534 H80.141 V-46.855 H112.472 V-15.355 H99.222 V-24.257 Q93.604 -17.827 87.025 -11.501 Q80.446 -5.175 74.179 0.395 L60 13.02 Z"/></g><g id="Medium-M" transform="matrix(1 0 0 1 1689.91 1126)"><path d="M60 11.145  44.574 -2.716 Q34.946 -11.409 28.194 -18.142 Q21.442 -24.876 17.151 -30.726 Q12.859 -36.575 10.921 -41.96 Q8.984 -47.344 8.984 -53.244 Q8.984 -65.442 17.142 -73.569 Q25.301 -81.695 37.5 -81.695 Q43.97 -81.695 49.815 -79.064 Q55.66 -76.434 60 -71.584 Q64.34 -76.434 70.185 -79.064 Q76.03 -81.695 82.5 -81.695 Q92.919 -81.695 101.375 -74.812 Q109.831 -67.931 110.921 -55.917 H99.266 Q98.271 -63.719 92.671 -67.02 Q87.071 -70.32 82.5 -70.32 Q76.364 -70.32 71.709 -66.912 Q67.054 -63.505 63.562 -57.999 H56.468 Q53.071 -63.505 48.163 -66.912 Q43.255 -70.32 37.5 -70.32 Q30.465 -70.32 25.426 -65.471 Q20.389 -60.624 20.389 -53.244 Q20.389 -49.089 22.124 -44.839 Q23.859 -40.589 28.314 -35.041 Q32.769 -29.494 40.444 -22.086 Q48.12 -14.679 60 -4.179 L67.326 -10.624 Q73.146 -15.755 79.835 -22.051 Q86.525 -28.346 91.37 -34.512 H80.998 V-45.917 H111.046 V-16.292 H99.671 V-26.621 Q94.338 -20.151 87.371 -13.58 Q80.405 -7.01 74.22 -1.48 L60 11.145 Z"/></g><g id="Regular-M" transform="matrix(1 0 0 1 1394.06 1126)"><path d="M60 9.77  44.125 -4.48 Q35.125 -12.605 28.688 -18.98 Q22.25 -25.355 18.062 -30.98 Q13.875 -36.605 11.938 -41.855 Q10 -47.105 10 -52.855 Q10 -64.605 17.875 -72.417 Q25.75 -80.23 37.5 -80.23 Q44 -80.23 49.875 -77.48 Q55.75 -74.73 60 -69.73 Q64.25 -74.73 70.125 -77.48 Q76 -80.23 82.5 -80.23 Q92.5 -80.23 100.688 -73.542 Q108.875 -66.855 109.875 -55.23 H99.625 Q98.75 -63.48 93 -66.855 Q87.25 -70.23 82.5 -70.23 Q76.125 -70.23 71.5 -66.792 Q66.875 -63.355 62.875 -57.73 H57.125 Q53.25 -63.355 48.312 -66.792 Q43.375 -70.23 37.5 -70.23 Q30.375 -70.23 25.188 -65.292 Q20 -60.355 20 -52.855 Q20 -48.73 21.75 -44.48 Q23.5 -40.23 28 -34.667 Q32.5 -29.105 40.25 -21.667 Q48 -14.23 60 -3.73 L67.625 -10.355 Q73.625 -15.605 80.688 -22.23 Q87.75 -28.855 92.625 -35.23 H81.625 V-45.23 H110 V-16.98 H100 V-28.355 Q94.875 -21.855 87.625 -15.105 Q80.375 -8.355 74.25 -2.855 L60 9.77 Z"/></g><g id="Light-M" transform="matrix(1 0 0 1 1098.18 1126)"><path d="M60 7.27  46.096 -5.249 Q37.049 -13.47 30.659 -19.87 Q24.27 -26.269 20.226 -31.821 Q16.183 -37.374 14.341 -42.407 Q12.5 -47.441 12.5 -52.807 Q12.5 -63.451 19.677 -70.59 Q26.856 -77.73 37.5 -77.73 Q44.047 -77.73 49.875 -74.667 Q55.703 -71.605 60 -65.884 Q64.297 -71.605 70.125 -74.667 Q75.953 -77.73 82.5 -77.73 Q91.731 -77.73 99.172 -71.547 Q106.615 -65.365 107.471 -54.941 H99.721 Q98.942 -63.047 93.216 -66.639 Q87.49 -70.23 82.5 -70.23 Q76.269 -70.23 71.476 -66.792 Q66.683 -63.355 62.443 -57.056 H57.557 Q53.346 -63.402 48.385 -66.816 Q43.422 -70.23 37.5 -70.23 Q30.279 -70.23 25.14 -65.269 Q20 -60.307 20 -52.807 Q20 -48.634 21.75 -44.311 Q23.5 -39.99 28 -34.331 Q32.5 -28.672 40.25 -21.115 Q48 -13.556 60 -2.865 L68.154 -10.115 Q74.875 -16.086 81.986 -23.071 Q89.096 -30.057 94.404 -37.441 H81.672 V-44.941 H107.547 V-19.191 H100.047 V-32.441 Q94.586 -24.836 87.216 -17.677 Q79.846 -10.519 72.904 -4.249 L60 7.27 Z"/></g><g id="Thin-M" transform="matrix(1 0 0 1 802.565 1126)"><path d="M60 4.77  48.068 -6.019 Q38.971 -14.336 32.63 -20.759 Q26.289 -27.182 22.39 -32.662 Q18.49 -38.144 16.745 -42.961 Q15 -47.777 15 -52.759 Q15 -62.297 21.481 -68.764 Q27.961 -75.23 37.5 -75.23 Q44.096 -75.23 49.875 -71.855 Q55.654 -68.48 60 -62.037 Q64.346 -68.48 70.125 -71.855 Q75.904 -75.23 82.5 -75.23 Q90.961 -75.23 97.659 -69.552 Q104.356 -63.874 105.067 -54.652 H99.817 Q99.135 -62.615 93.433 -66.422 Q87.731 -70.23 82.5 -70.23 Q76.414 -70.23 71.453 -66.792 Q66.49 -63.355 62.01 -56.384 H57.99 Q53.443 -63.451 48.456 -66.84 Q43.471 -70.23 37.5 -70.23 Q30.183 -70.23 25.091 -65.245 Q20 -60.259 20 -52.759 Q20 -48.537 21.75 -44.144 Q23.5 -39.749 28 -33.995 Q32.5 -28.24 40.25 -20.561 Q48 -12.884 60 -1.999 L68.683 -9.874 Q76.125 -16.566 83.284 -23.912 Q90.442 -31.259 96.183 -39.652 H81.721 V-44.652 H105.096 V-21.402 H100.096 V-36.527 Q94.297 -27.816 86.808 -20.249 Q79.317 -12.682 71.558 -5.644 L60 4.77 Z"/></g><g id="Ultralight-M" transform="matrix(1 0 0 1 506.415 1126)"><path d="M60 3.27  49.25 -6.48 Q40.125 -14.855 33.812 -21.292 Q27.5 -27.73 23.688 -33.167 Q19.875 -38.605 18.188 -43.292 Q16.5 -47.98 16.5 -52.73 Q16.5 -61.605 22.562 -67.667 Q28.625 -73.73 37.5 -73.73 Q44.125 -73.73 49.875 -70.167 Q55.625 -66.605 60 -59.73 Q64.375 -66.605 70.125 -70.167 Q75.875 -73.73 82.5 -73.73 Q90.5 -73.73 96.75 -68.355 Q103 -62.98 103.625 -54.48 H99.875 Q99.25 -62.355 93.562 -66.292 Q87.875 -70.23 82.5 -70.23 Q76.5 -70.23 71.438 -66.792 Q66.375 -63.355 61.75 -55.98 H58.25 Q53.5 -63.48 48.5 -66.855 Q43.5 -70.23 37.5 -70.23 Q30.125 -70.23 25.062 -65.23 Q20 -60.23 20 -52.73 Q20 -48.48 21.75 -44.042 Q23.5 -39.605 28 -33.792 Q32.5 -27.98 40.25 -20.23 Q48 -12.48 60 -1.48 L69 -9.73 Q76.875 -16.855 84.062 -24.417 Q91.25 -31.98 97.25 -40.98 H81.75 V-44.48 H103.625 V-22.73 H100.125 V-38.98 Q94.125 -29.605 86.562 -21.792 Q79 -13.98 70.75 -6.48 L60 3.27 Z"/></g><g id="Bold-S" transform="matrix(1 0 0 1 2294.23 696)"><path d="M47.34 4.812  36.886 -4.558 Q27.516 -12.941 21.5 -19.154 Q15.484 -25.367 12.131 -30.447 Q8.778 -35.526 7.446 -39.865 Q6.115 -44.205 6.115 -48.84 Q6.115 -59.097 13.019 -66.149 Q19.922 -73.201 30.081 -73.201 Q34.913 -73.201 39.401 -71.524 Q43.888 -69.847 47.34 -66.593 Q50.792 -69.847 55.131 -71.524 Q59.471 -73.201 64.205 -73.201 Q74.265 -73.201 81.316 -66.395 Q88.368 -59.59 88.664 -49.333 H76.928 Q76.73 -53.969 73.13 -57.766 Q69.531 -61.563 64.205 -61.563 Q59.372 -61.563 56.266 -58.851 Q53.159 -56.138 51.581 -52.687 H43.198 Q41.422 -56.237 38.414 -58.9 Q35.406 -61.563 30.081 -61.563 Q24.755 -61.563 21.303 -57.914 Q17.851 -54.265 17.851 -48.84 Q17.851 -45.684 19.035 -42.479 Q20.218 -39.274 23.473 -35.033 Q26.727 -30.792 32.448 -25.022 Q38.168 -19.253 47.34 -10.771 L51.975 -15.209 Q56.315 -19.253 60.112 -22.951 Q63.909 -26.65 67.558 -30.496 H63.021 V-42.232 H88.664 V-17.576 H77.026 L77.125 -23.888 Q72.687 -19.055 68.347 -14.568 Q64.008 -10.081 59.175 -5.84 L47.34 4.812 Z"/></g><g id="Semibold-S" transform="matrix(1 0 0 1 1998.1 696)"><path d="M47.34 2.839  36.243 -7.087 Q27.774 -14.656 22.207 -20.354 Q16.642 -26.054 13.439 -30.812 Q10.235 -35.568 8.904 -39.715 Q7.572 -43.862 7.572 -48.283 Q7.572 -57.897 14.069 -64.498 Q20.565 -71.1 30.081 -71.1 Q34.956 -71.1 39.486 -69.252 Q44.016 -67.403 47.34 -63.935 Q50.664 -67.403 55.046 -69.252 Q59.428 -71.1 64.205 -71.1 Q73.664 -71.1 80.33 -64.573 Q86.996 -58.047 87.163 -48.347 H77.442 Q77.417 -53.626 73.602 -57.53 Q69.788 -61.435 64.205 -61.435 Q59.029 -61.435 55.966 -58.679 Q52.901 -55.924 50.595 -52.301 H44.141 Q41.68 -56.023 38.628 -58.728 Q35.578 -61.435 30.081 -61.435 Q24.627 -61.435 20.96 -57.656 Q17.294 -53.879 17.294 -48.283 Q17.294 -45.169 18.499 -41.964 Q19.703 -38.759 23.023 -34.497 Q26.342 -30.235 32.169 -24.422 Q37.996 -18.61 47.34 -10.128 L52.404 -14.824 Q57.001 -19.039 61.334 -23.209 Q65.666 -27.378 69.359 -31.525 H63.922 V-41.246 H87.163 V-18.562 H77.498 L77.596 -26.375 Q73.459 -21.499 68.712 -16.755 Q63.965 -12.01 59.217 -7.812 L47.34 2.839 Z"/></g><g id="Medium-S" transform="matrix(1 0 0 1 1701.85 696)"><path d="M47.34 1.36  35.76 -8.985 Q27.967 -15.942 22.738 -21.255 Q17.51 -26.568 14.42 -31.085 Q11.329 -35.601 9.998 -39.603 Q8.666 -43.604 8.666 -47.865 Q8.666 -56.997 14.857 -63.26 Q21.048 -69.524 30.081 -69.524 Q34.988 -69.524 39.551 -67.546 Q44.113 -65.57 47.34 -61.941 Q50.567 -65.57 54.981 -67.546 Q59.396 -69.524 64.205 -69.524 Q73.214 -69.524 79.59 -63.206 Q85.966 -56.889 86.037 -47.607 H77.828 Q77.931 -53.368 73.956 -57.354 Q69.981 -61.338 64.205 -61.338 Q58.772 -61.338 55.74 -58.551 Q52.708 -55.764 49.855 -52.011 H44.849 Q41.873 -55.862 38.789 -58.6 Q35.706 -61.338 30.081 -61.338 Q24.53 -61.338 20.702 -57.463 Q16.876 -53.589 16.876 -47.865 Q16.876 -44.784 18.097 -41.578 Q19.318 -38.373 22.685 -34.095 Q26.052 -29.816 31.959 -23.972 Q37.868 -18.127 47.34 -9.646 L52.726 -14.534 Q57.515 -18.878 62.25 -23.402 Q66.986 -27.925 70.71 -32.297 H64.597 V-40.506 H86.037 V-19.302 H77.852 L77.95 -28.24 Q74.038 -23.333 68.985 -18.395 Q63.933 -13.458 59.25 -9.292 L47.34 1.36 Z"/></g><g id="Regular-S" transform="matrix(1 0 0 1 1405.73 696)"><path d="M47.34 0.275  35.406 -10.376 Q28.108 -16.886 23.128 -21.916 Q18.147 -26.945 15.139 -31.285 Q12.131 -35.624 10.799 -39.52 Q9.468 -43.416 9.468 -47.558 Q9.468 -56.336 15.435 -62.352 Q21.402 -68.368 30.081 -68.368 Q35.012 -68.368 39.598 -66.297 Q44.184 -64.226 47.34 -60.478 Q50.496 -64.226 54.934 -66.297 Q59.372 -68.368 64.205 -68.368 Q72.884 -68.368 79.048 -62.204 Q85.212 -56.04 85.212 -47.065 H78.111 Q78.308 -53.18 74.215 -57.223 Q70.122 -61.267 64.205 -61.267 Q58.583 -61.267 55.575 -58.456 Q52.567 -55.645 49.312 -51.799 H45.367 Q42.014 -55.744 38.908 -58.505 Q35.801 -61.267 30.081 -61.267 Q24.459 -61.267 20.514 -57.322 Q16.569 -53.377 16.569 -47.558 Q16.569 -44.501 17.802 -41.295 Q19.035 -38.09 22.437 -33.8 Q25.84 -29.51 31.807 -23.642 Q37.773 -17.773 47.34 -9.292 L52.962 -14.321 Q57.893 -18.76 62.923 -23.543 Q67.953 -28.326 71.7 -32.863 H65.093 V-39.964 H85.212 V-19.844 H78.111 L78.21 -29.608 Q74.462 -24.677 69.185 -19.598 Q63.909 -14.519 59.274 -10.376 L47.34 0.275 Z"/></g><g id="Light-S" transform="matrix(1 0 0 1 1109.75 696)"><path d="M47.34 -1.697  36.962 -10.983 Q29.626 -17.568 24.683 -22.618 Q19.741 -27.666 16.846 -31.949 Q13.951 -36.231 12.696 -39.956 Q11.441 -43.681 11.441 -47.521 Q11.441 -55.425 16.857 -60.91 Q22.274 -66.395 30.081 -66.395 Q35.049 -66.395 39.598 -64.078 Q44.147 -61.76 47.34 -57.443 Q50.533 -61.76 54.934 -64.078 Q59.335 -66.395 64.205 -66.395 Q72.277 -66.395 77.853 -60.63 Q83.429 -54.864 83.315 -46.837 H78.187 Q78.46 -52.839 74.386 -57.053 Q70.312 -61.267 64.205 -61.267 Q58.697 -61.267 55.556 -58.456 Q52.415 -55.645 48.971 -51.267 H45.709 Q42.09 -55.781 38.965 -58.524 Q35.838 -61.267 30.081 -61.267 Q24.383 -61.267 20.477 -57.303 Q16.569 -53.34 16.569 -47.521 Q16.569 -44.425 17.802 -41.162 Q19.035 -37.901 22.437 -33.535 Q25.84 -29.169 31.807 -23.206 Q37.773 -17.242 47.34 -8.609 L53.379 -14.132 Q58.879 -19.139 63.947 -24.207 Q69.015 -29.275 73.104 -34.608 H65.13 V-39.736 H83.277 V-21.589 H78.148 L78.247 -32.832 Q74.234 -27.029 68.863 -21.628 Q63.492 -16.226 58.211 -11.476 L47.34 -1.697 Z"/></g><g id="Thin-S" transform="matrix(1 0 0 1 814.015 696)"><path d="M47.34 -3.67  38.517 -11.591 Q31.143 -18.252 26.238 -23.319 Q21.334 -28.387 18.553 -32.612 Q15.772 -36.839 14.593 -40.393 Q13.413 -43.946 13.413 -47.482 Q13.413 -54.515 18.28 -59.469 Q23.146 -64.423 30.081 -64.423 Q35.088 -64.423 39.598 -61.859 Q44.108 -59.294 47.34 -54.409 Q50.572 -59.294 54.934 -61.859 Q59.296 -64.423 64.205 -64.423 Q71.67 -64.423 76.658 -59.056 Q81.647 -53.688 81.419 -46.609 H78.263 Q78.612 -52.497 74.557 -56.882 Q70.502 -61.267 64.205 -61.267 Q58.811 -61.267 55.538 -58.456 Q52.263 -55.645 48.63 -50.737 H46.05 Q42.166 -55.82 39.021 -58.543 Q35.877 -61.267 30.081 -61.267 Q24.307 -61.267 20.438 -57.285 Q16.569 -53.301 16.569 -47.482 Q16.569 -44.349 17.802 -41.03 Q19.035 -37.71 22.437 -33.269 Q25.84 -28.827 31.807 -22.769 Q37.773 -16.711 47.34 -7.926 L53.796 -13.942 Q59.865 -19.518 64.971 -24.87 Q70.077 -30.223 74.507 -36.352 H65.168 V-39.508 H81.343 V-23.334 H78.187 L78.286 -36.056 Q74.006 -29.381 68.54 -23.656 Q63.075 -17.933 57.149 -12.577 L47.34 -3.67 Z"/></g><g id="Ultralight-S" transform="matrix(1 0 0 1 517.792 696)"><path d="M47.34 -4.853  39.45 -11.954 Q32.053 -18.661 27.171 -23.74 Q22.289 -28.819 19.577 -33.011 Q16.865 -37.202 15.731 -40.654 Q14.597 -44.106 14.597 -47.459 Q14.597 -53.969 19.133 -58.604 Q23.67 -63.239 30.081 -63.239 Q35.111 -63.239 39.598 -60.527 Q44.085 -57.815 47.34 -52.588 Q50.595 -57.815 54.934 -60.527 Q59.274 -63.239 64.205 -63.239 Q71.306 -63.239 75.941 -58.111 Q80.577 -52.982 80.281 -46.473 H78.308 Q78.703 -52.292 74.659 -56.78 Q70.615 -61.267 64.205 -61.267 Q58.879 -61.267 55.526 -58.456 Q52.173 -55.645 48.425 -50.418 H46.255 Q42.212 -55.843 39.056 -58.555 Q35.9 -61.267 30.081 -61.267 Q24.262 -61.267 20.415 -57.273 Q16.569 -53.278 16.569 -47.459 Q16.569 -44.303 17.802 -40.95 Q19.035 -37.597 22.437 -33.11 Q25.84 -28.622 31.807 -22.507 Q37.773 -16.393 47.34 -7.516 L54.047 -13.828 Q60.457 -19.746 65.586 -25.269 Q70.714 -30.792 75.35 -37.4 H65.191 V-39.372 H80.182 V-24.381 H78.21 L78.308 -37.991 Q73.87 -30.792 68.347 -24.874 Q62.824 -18.957 56.512 -13.237 L47.34 -4.853 Z"/></g></g></svg>