<svg xmlns="http://www.w3.org/2000/svg" height="20" viewBox="0 -960 960 960" width="20"><path d="M138.34-298q-15.65 0-23.99-8.35-8.35-8.34-8.35-23.42v-300.46q0-15.08 8.35-23.42 8.34-8.35 24.09-8.35h461.48q11.07 0 18.54 7.41 7.46 7.4 7.46 18.38 0 10.98-7.46 18.59-7.47 7.62-18.54 7.62H448v260h126.62q11.06 0 18.53 7.41 7.46 7.4 7.46 18.38 0 10.98-7.46 18.59-7.47 7.62-18.53 7.62H138.34Zm571.58-138.23h-84.3q-9.84 0-14.27-8.65-4.43-8.66 1.42-16.89l103.36-159.27q3.79-5.65 9.22-7.04 5.42-1.38 10.03.45 4.62 1.84 7.73 6.76 3.12 4.92 1.5 11.49l-14.53 85.61h84.3q9.84 0 14.27 8.65 4.43 8.66-1.42 16.89L723.87-338.96q-3.79 5.65-9.22 7.04-5.42 1.38-10.03-.45-4.62-1.84-7.73-6.76-3.12-4.92-1.5-11.49l14.53-85.61Z"/></svg>