<svg xmlns="http://www.w3.org/2000/svg" height="48" viewBox="0 -960 960 960" width="48"><path d="M132.31-298.62q-14.21 0-23.95-9.74-9.74-9.74-9.74-23.95v-295.38q0-14.21 9.74-24.45 9.74-10.24 23.95-10.24h436.07q8.83 0 15.61 6.78 6.78 6.78 6.78 15.61 0 8.84-6.78 15.11-6.78 6.26-15.61 6.26h-146v276.24h126.85q8.83 0 15.11 6.78 6.28 6.78 6.28 15.61 0 8.84-6.28 15.11-6.28 6.26-15.11 6.26H132.31Zm585.38-148.46h-88.84q-10.59 0-15.53-9.23-4.94-9.23 1.32-17.37l96.67-147.47q3.46-5.23 8.98-7.12 5.52-1.88 9.58 1.34 4.06 3.23 6.44 6.85 2.38 3.62 3.15 9.08l-16.15 97.08h87.84q10.59 0 15.53 9.73 4.94 9.73-.32 17.87l-97.67 147.47q-3.46 5.23-9.07 6.62-5.62 1.38-9.47-1.35-3.84-2.73-6.34-6.34-2.5-3.62-2.27-10.08l16.15-97.08Z"/></svg>