<svg xmlns="http://www.w3.org/2000/svg" height="24" viewBox="0 -960 960 960" width="24"><path d="M120-258.52q-25.39 0-43.44-18.04Q58.52-294.61 58.52-320v-320q0-25.39 18.04-43.44 18.05-18.04 43.44-18.04h418.74q25.39 0 43.43 18.04 18.05 18.05 18.05 43.44 0 25.39-18.05 43.44-18.04 18.04-43.43 18.04h-77.26v197.04h47q25.39 0 43.43 18.04 18.05 18.05 18.05 43.44 0 25.39-18.05 43.44-18.04 18.04-43.43 18.04H120Zm549.83-160h-90.31q-19.26 0-28.17-17.26-8.92-17.26 3.78-32.52l184.26-230.79q8.13-9.13 18.33-10.63 10.19-1.5 19.04 2.5t14.2 12.2q5.34 8.19 3.34 20.32l-24.13 133.22h90.31q19.26 0 28.17 17.26 8.92 17.26-3.78 32.52L700.61-260.91q-8.13 9.13-18.33 10.63-10.19 1.5-19.04-2.5t-14.2-12.2q-5.34-8.19-3.34-20.32l24.13-133.22Z"/></svg>