<svg xmlns="http://www.w3.org/2000/svg" height="40" viewBox="0 -960 960 960" width="40"><path d="M120-275.93q-18 0-31.04-13.03Q75.93-302 75.93-320v-320q0-18 13.03-31.04Q102-684.07 120-684.07h436.4q18.67 0 31.37 12.7 12.71 12.7 12.71 31.37t-12.71 31.37q-12.7 12.7-31.37 12.7H444.07v231.86h86.32q18.67 0 31.37 12.7t12.7 31.37q0 18.67-12.7 31.37t-31.37 12.7H120Zm570.38-160h-93.02q-14.2 0-20.49-12.11-6.29-12.1 2.83-23.41l152.53-190.06q5.65-6.84 12.7-8.12 7.06-1.28 13.71 1.47 6.65 2.75 10.16 9.26 3.52 6.51 2.19 15.06l-21.37 119.77h93.02q14.2 0 20.49 12.11 6.29 12.1-2.83 23.41L708.14-298.49q-6.02 6.84-13.07 7.79-7.06.95-13.71-1.81-6.65-2.75-10.16-8.92-3.52-6.18-1.81-14.73l20.99-119.77Z"/></svg>