<svg xmlns="http://www.w3.org/2000/svg" height="40" viewBox="0 -960 960 960" width="40"><path d="M136-299.67q-15.32 0-25.82-10.51-10.51-10.5-10.51-25.82v-288q0-15.32 10.51-26.16Q120.68-661 136-661h430.33q8.32 0 14.66 6.35 6.34 6.34 6.34 14.66t-6.34 14.32q-6.34 6-14.66 6H421V-341h126.33q8.32 0 14.33 6.35 6.01 6.34 6.01 14.66t-6.01 14.32q-6.01 6-14.33 6H136Zm583-145h-86.33q-11.11 0-16.56-9.83-5.44-9.83 1.05-18.76L721.33-645q2.67-4.33 6.42-5.33t6.6 1.76q2.85 2.76 4.58 4.5 1.74 1.74 2.07 5.74L721.67-516h85.66q11.11 0 16.56 10.17 5.44 10.16-.38 19.09L718.67-315q-2.67 4.33-6.5 5.33-3.84 1-6.5-1.66l-4.5-4.5q-1.84-1.84-1.5-6.5L719-444.67Z"/></svg>