<svg xmlns="http://www.w3.org/2000/svg" version="1.1" width="3300" height="2000"><g id="Notes"><style>
    text {
      font-family: monospace;
      text-anchor: middle;
    }
    text.emphasis {
      font-weight:bold;
    }
    text.lanchor {
      text-anchor: start;
    }
  </style><rect height="2200" id="artboard" fill="white" width="3300" x="0" y="0"/><line id="" style="fill:none;stroke:black;stroke-width:0.5;" x1="263" x2="3036" y1="292" y2="292"/><text class="lanchor emphasis" transform="matrix(1 0 0 1 263 322)">Weight/Scale Variations</text><text transform="matrix(1 0 0 1 559.711 322)">Ultralight</text><text transform="matrix(1 0 0 1 856.422 322)">Thin</text><text transform="matrix(1 0 0 1 1153.13 322)">Light</text><text transform="matrix(1 0 0 1 1449.84 322)">Regular</text><text transform="matrix(1 0 0 1 1746.56 322)">Medium</text><text transform="matrix(1 0 0 1 2043.27 322)">Semibold</text><text transform="matrix(1 0 0 1 2339.98 322)">Bold</text><text transform="matrix(1 0 0 1 2636.69 322)">Heavy</text><text transform="matrix(1 0 0 1 2933.4 322)">Black</text><text id="template-version" style="text-anchor: end;" transform="matrix(1 0 0 1 3036 1933)">Template v.1.0</text><text class="lanchor" transform="matrix(1 0 0 1 263 726)">Small</text><text class="lanchor" transform="matrix(1 0 0 1 263 1156)">Medium</text><text class="lanchor" transform="matrix(1 0 0 1 263 1586)">Large</text></g><g id="Guides"><g id="H-reference" style="fill:#27AAE1;stroke:none;" transform="matrix(1 0 0 1 339 696)"><path d="M 54.9316 0 L 57.666 0 L 30.5664 -70.459 L 28.0762 -70.459 L 0.976562 0 L 3.66211 0 L 12.9395 -24.4629 L 45.7031 -24.4629 Z M 29.1992 -67.0898 L 29.4434 -67.0898 L 44.8242 -26.709 L 13.8184 -26.709 Z"/></g><line id="Baseline-S" style="fill:none;stroke:#27AAE1;opacity:1;stroke-width:0.577;" x1="263" x2="3036" y1="696" y2="696"/><line id="Capline-S" style="fill:none;stroke:#27AAE1;opacity:1;stroke-width:0.577;" x1="263" x2="3036" y1="625.541" y2="625.541"/><g id="H-reference" style="fill:#27AAE1;stroke:none;" transform="matrix(1 0 0 1 339 1126)"><path d="M 54.9316 0 L 57.666 0 L 30.5664 -70.459 L 28.0762 -70.459 L 0.976562 0 L 3.66211 0 L 12.9395 -24.4629 L 45.7031 -24.4629 Z M 29.1992 -67.0898 L 29.4434 -67.0898 L 44.8242 -26.709 L 13.8184 -26.709 Z"/></g><line id="Baseline-M" style="fill:none;stroke:#27AAE1;opacity:1;stroke-width:0.577;" x1="263" x2="3036" y1="1126" y2="1126"/><line id="Capline-M" style="fill:none;stroke:#27AAE1;opacity:1;stroke-width:0.577;" x1="263" x2="3036" y1="1055.54" y2="1055.54"/><g id="H-reference" style="fill:#27AAE1;stroke:none;" transform="matrix(1 0 0 1 339 1556)"><path d="M 54.9316 0 L 57.666 0 L 30.5664 -70.459 L 28.0762 -70.459 L 0.976562 0 L 3.66211 0 L 12.9395 -24.4629 L 45.7031 -24.4629 Z M 29.1992 -67.0898 L 29.4434 -67.0898 L 44.8242 -26.709 L 13.8184 -26.709 Z"/></g><line id="Baseline-L" style="fill:none;stroke:#27AAE1;opacity:1;stroke-width:0.577;" x1="263" x2="3036" y1="1556" y2="1556"/><line id="Capline-L" style="fill:none;stroke:#27AAE1;opacity:1;stroke-width:0.577;" x1="263" x2="3036" y1="1485.54" y2="1485.54"/><rect height="119.336" id="left-margin" style="fill:darkred;stroke:none;opacity:0.4;" width="12.4512" x="1394.06" y="1030.79"/><rect height="119.336" id="right-margin" style="fill:darkgreen;stroke:none;opacity:0.4;" width="12.4512" x="1502.5112" y="1030.79"/><rect x="1406.5112" y="1045" width="96" height="96" fill="none" stroke="blue" stroke-dasharray="5"/><rect x="1394.06" y="1030.79" width="120.9024" height="119.336" fill="none" stroke="blue"/></g><g id="Symbols"><g id="Bold-L" transform="matrix(1 0 0 1 2266 1556)"><path d="M57.647 0.326 H23.139 Q20.963 0.326 19.35 -1.287 Q17.738 -2.899 17.738 -5.237 V-11.204 Q17.738 -12.413 18.221 -13.381 Q18.705 -14.348 19.672 -15.235 Q29.509 -22.814 34.427 -26.805 Q39.345 -30.796 42.489 -34.343 Q45.311 -37.568 46.642 -40.471 Q47.972 -43.373 47.972 -45.308 Q47.972 -51.677 45.231 -54.862 Q42.489 -58.047 38.7 -58.047 Q36.362 -58.047 34.266 -56.837 Q32.169 -55.628 30.476 -53.29 Q28.541 -51.274 25.8 -50.629 Q23.059 -49.984 20.963 -51.597 Q18.705 -52.967 18.262 -55.749 Q17.818 -58.531 19.431 -60.869 Q21.688 -66.029 26.969 -68.77 Q32.25 -71.511 38.861 -71.511 Q49.826 -71.511 55.994 -66.23 Q62.162 -60.949 62.162 -50.468 Q62.162 -44.099 60.025 -38.616 Q57.889 -33.134 54.18 -28.377 Q50.794 -23.862 45.916 -20.072 Q41.038 -16.283 36.362 -12.977 L36.443 -12.816 H57.647 Q60.227 -12.816 62.202 -10.801 Q64.177 -8.785 64.177 -6.205 Q64.177 -3.625 62.202 -1.65 Q60.227 0.326 57.647 0.326 Z M85.059 0.326 Q81.915 0.326 79.819 -1.771 Q77.722 -3.867 77.722 -7.011 V-62.642 Q77.722 -65.787 79.819 -67.923 Q81.915 -70.06 85.059 -70.06 H100.862 Q118.519 -70.06 127.71 -61.151 Q136.901 -52.242 136.901 -34.907 Q136.901 -17.492 127.71 -8.583 Q118.519 0.326 100.862 0.326 H85.059 Z M91.993 -13.3 H100.539 Q111.585 -13.3 117.108 -18.581 Q122.631 -23.862 122.631 -34.948 Q122.631 -46.034 117.108 -51.234 Q111.585 -56.434 100.539 -56.434 H91.993 V-13.3 Z"/></g><g id="Semibold-L" transform="matrix(1 0 0 1 1970.27 1556)"><path d="M58.979 -1.427 H26.574 Q24.537 -1.427 23.101 -2.864 Q21.664 -4.302 21.664 -6.429 V-11.834 Q21.664 -12.903 22.112 -13.801 Q22.56 -14.698 23.459 -15.516 Q32.244 -22.324 37.162 -26.244 Q42.08 -30.165 45.224 -33.713 Q48.115 -37.007 49.586 -39.98 Q51.057 -42.952 51.057 -45.518 Q51.057 -51.537 48.175 -54.793 Q45.294 -58.047 41.295 -58.047 Q38.605 -58.047 36.439 -56.521 Q34.272 -54.998 32.86 -52.519 Q31.415 -50.644 29.165 -49.999 Q26.914 -49.354 24.958 -50.546 Q22.841 -51.565 22.222 -53.927 Q21.604 -56.288 22.725 -58.485 Q24.562 -64.066 29.843 -66.948 Q35.123 -69.829 41.456 -69.829 Q51.789 -69.829 57.502 -64.827 Q63.213 -59.827 63.213 -49.907 Q63.213 -43.678 60.972 -38.3 Q58.73 -32.924 55.022 -28.167 Q51.495 -23.512 46.758 -19.968 Q42.02 -16.423 37.273 -13.118 L37.284 -13.097 H58.979 Q61.278 -13.097 63.044 -11.291 Q64.808 -9.486 64.808 -7.187 Q64.808 -4.888 63.044 -3.157 Q61.278 -1.427 58.979 -1.427 Z M83.797 -1.427 Q81.144 -1.427 79.398 -3.173 Q77.653 -4.918 77.653 -7.572 V-62.222 Q77.653 -64.876 79.398 -66.661 Q81.144 -68.447 83.797 -68.447 H99.74 Q115.995 -68.447 124.556 -59.854 Q133.115 -51.26 133.115 -34.977 Q133.115 -18.615 124.485 -10.02 Q115.855 -1.427 99.74 -1.427 H83.797 Z M89.819 -13.3 H99.557 Q110.322 -13.3 115.671 -18.581 Q121.018 -23.862 121.018 -34.983 Q121.018 -46.103 115.671 -51.339 Q110.322 -56.575 99.557 -56.575 H89.819 V-13.3 Z"/></g><g id="Medium-L" transform="matrix(1 0 0 1 1674.31 1556)"><path d="M59.979 -2.741 H29.151 Q27.219 -2.741 25.914 -4.047 Q24.608 -5.354 24.608 -7.322 V-12.308 Q24.608 -13.273 25.031 -14.118 Q25.453 -14.961 26.298 -15.725 Q34.293 -21.954 39.211 -25.823 Q44.129 -29.691 47.274 -33.239 Q50.218 -36.586 51.795 -39.611 Q53.371 -42.636 53.371 -45.676 Q53.371 -51.432 50.384 -54.74 Q47.396 -58.047 43.239 -58.047 Q40.288 -58.047 38.07 -56.286 Q35.851 -54.524 34.648 -51.94 Q33.572 -50.17 31.689 -49.525 Q29.807 -48.88 27.956 -49.757 Q25.944 -50.513 25.194 -52.56 Q24.444 -54.604 25.197 -56.697 Q26.719 -62.594 32 -65.58 Q37.281 -68.567 43.4 -68.567 Q53.261 -68.567 58.632 -63.776 Q64.002 -58.987 64.002 -49.486 Q64.002 -43.362 61.681 -38.065 Q59.361 -32.766 55.652 -28.009 Q52.021 -23.249 47.388 -19.889 Q42.755 -16.528 37.957 -13.223 L37.915 -13.306 H59.979 Q62.067 -13.306 63.674 -11.66 Q65.282 -10.012 65.282 -7.922 Q65.282 -5.834 63.674 -4.288 Q62.067 -2.741 59.979 -2.741 Z M82.85 -2.741 Q80.565 -2.741 79.082 -4.225 Q77.6 -5.707 77.6 -7.993 V-61.906 Q77.6 -64.192 79.082 -65.714 Q80.565 -67.238 82.85 -67.238 H98.899 Q114.102 -67.238 122.189 -58.881 Q130.275 -50.525 130.275 -35.03 Q130.275 -19.455 122.066 -11.099 Q113.857 -2.741 98.899 -2.741 H82.85 Z M88.189 -13.3 H98.822 Q109.376 -13.3 114.592 -18.581 Q119.809 -23.862 119.809 -35.009 Q119.809 -46.156 114.592 -51.418 Q109.376 -56.679 98.822 -56.679 H88.189 V-13.3 Z"/></g><g id="Regular-L" transform="matrix(1 0 0 1 1378.56 1556)"><path d="M60.711 -3.706 H31.041 Q29.186 -3.706 27.977 -4.915 Q26.768 -6.124 26.768 -7.979 V-12.655 Q26.768 -13.542 27.171 -14.348 Q27.574 -15.154 28.38 -15.88 Q35.797 -21.685 40.716 -25.515 Q45.634 -29.344 48.778 -32.892 Q51.761 -36.278 53.414 -39.342 Q55.067 -42.406 55.067 -45.792 Q55.067 -51.355 52.003 -54.701 Q48.939 -58.047 44.666 -58.047 Q41.522 -58.047 39.264 -56.112 Q37.007 -54.177 35.959 -51.516 Q35.153 -49.823 33.54 -49.178 Q31.928 -48.533 30.154 -49.178 Q28.219 -49.742 27.372 -51.557 Q26.526 -53.371 27.009 -55.386 Q28.299 -61.514 33.58 -64.577 Q38.861 -67.641 44.828 -67.641 Q54.341 -67.641 59.461 -63.005 Q64.581 -58.369 64.581 -49.178 Q64.581 -43.131 62.202 -37.891 Q59.824 -32.65 56.115 -27.893 Q52.406 -23.056 47.851 -19.831 Q43.296 -16.606 38.458 -13.3 L38.377 -13.461 H60.711 Q62.646 -13.461 64.137 -11.929 Q65.629 -10.397 65.629 -8.462 Q65.629 -6.527 64.137 -5.117 Q62.646 -3.706 60.711 -3.706 Z M82.157 -3.706 Q80.141 -3.706 78.851 -4.996 Q77.561 -6.286 77.561 -8.301 V-61.675 Q77.561 -63.691 78.851 -65.021 Q80.141 -66.351 82.157 -66.351 H98.282 Q112.714 -66.351 120.454 -58.168 Q128.194 -49.984 128.194 -35.069 Q128.194 -20.072 120.293 -11.889 Q112.391 -3.706 98.282 -3.706 H82.157 Z M86.994 -13.3 H98.282 Q108.683 -13.3 113.802 -18.581 Q118.922 -23.862 118.922 -35.028 Q118.922 -46.195 113.802 -51.476 Q108.683 -56.757 98.282 -56.757 H86.994 V-13.3 Z"/></g><g id="Light-L" transform="matrix(1 0 0 1 1082.77 1556)"><path d="M62.85 -6.031 H35.072 Q33.59 -6.031 32.66 -6.961 Q31.729 -7.892 31.729 -9.374 V-13.027 Q31.729 -13.697 32.024 -14.332 Q32.319 -14.969 32.939 -15.508 Q39.519 -20.63 44.158 -24.444 Q48.797 -28.259 52.158 -31.931 Q55.296 -35.565 57.042 -38.815 Q58.789 -42.064 58.789 -45.574 Q58.789 -51.294 55.725 -54.748 Q52.661 -58.202 48.357 -58.202 Q44.84 -58.202 42.335 -55.988 Q39.829 -53.774 38.968 -50.647 Q38.471 -49.359 37.215 -48.806 Q35.959 -48.254 34.557 -48.806 Q32.995 -49.215 32.303 -50.72 Q31.611 -52.223 31.971 -53.898 Q32.982 -59.592 37.968 -62.609 Q42.955 -65.626 48.486 -65.626 Q56.915 -65.626 61.523 -61.269 Q66.132 -56.912 66.132 -48.714 Q66.132 -42.883 63.799 -37.766 Q61.467 -32.65 57.79 -28.141 Q54.174 -23.583 49.696 -20.11 Q45.218 -16.636 40.753 -13.548 L40.641 -13.679 H62.912 Q64.476 -13.679 65.611 -12.503 Q66.745 -11.328 66.745 -9.765 Q66.745 -8.203 65.579 -7.116 Q64.413 -6.031 62.85 -6.031 Z M82.188 -6.063 Q80.235 -6.063 78.975 -7.29 Q77.716 -8.519 77.716 -10.535 V-59.877 Q77.716 -61.83 78.975 -63.144 Q80.235 -64.46 82.188 -64.46 H97.073 Q110.108 -64.46 117.088 -56.617 Q124.069 -48.775 124.069 -35.286 Q124.069 -21.591 116.99 -13.827 Q109.91 -6.063 97.073 -6.063 H82.188 Z M84.948 -13.455 H97.166 Q106.946 -13.455 111.941 -19.045 Q116.937 -24.637 116.937 -35.23 Q116.937 -45.823 111.941 -51.415 Q106.946 -57.005 97.166 -57.005 H84.948 V-13.455 Z"/></g><g id="Thin-L" transform="matrix(1 0 0 1 787.282 1556)"><path d="M64.99 -8.358 H39.103 Q37.994 -8.358 37.342 -9.008 Q36.691 -9.659 36.691 -10.77 V-13.4 Q36.691 -13.851 36.876 -14.317 Q37.063 -14.782 37.497 -15.135 Q43.239 -19.576 47.599 -23.375 Q51.96 -27.174 55.538 -30.97 Q58.832 -34.851 60.67 -38.287 Q62.509 -41.724 62.509 -45.358 Q62.509 -51.231 59.445 -54.794 Q56.381 -58.356 52.047 -58.356 Q48.157 -58.356 45.405 -55.864 Q42.651 -53.371 41.975 -49.78 Q41.788 -48.893 40.89 -48.433 Q39.99 -47.975 38.961 -48.433 Q37.77 -48.688 37.233 -49.883 Q36.697 -51.076 36.933 -52.41 Q37.665 -57.668 42.356 -60.64 Q47.048 -63.61 52.145 -63.61 Q59.488 -63.61 63.586 -59.532 Q67.681 -55.454 67.681 -48.248 Q67.681 -42.635 65.397 -37.642 Q63.11 -32.65 59.464 -28.39 Q55.941 -24.11 51.54 -20.389 Q47.141 -16.667 43.047 -13.797 L42.905 -13.895 H65.114 Q66.304 -13.895 67.083 -13.077 Q67.862 -12.258 67.862 -11.067 Q67.862 -9.877 67.02 -9.117 Q66.18 -8.358 64.99 -8.358 Z M82.218 -8.419 Q80.327 -8.419 79.1 -9.585 Q77.871 -10.751 77.871 -12.766 V-58.078 Q77.871 -59.969 79.1 -61.269 Q80.327 -62.568 82.218 -62.568 H95.863 Q107.504 -62.568 113.725 -55.067 Q119.946 -47.566 119.946 -35.503 Q119.946 -23.112 113.688 -15.766 Q107.43 -8.419 95.863 -8.419 H82.218 Z M82.902 -13.61 H96.049 Q105.209 -13.61 110.081 -19.511 Q114.952 -25.413 114.952 -35.432 Q114.952 -45.45 110.081 -51.352 Q105.209 -57.254 96.049 -57.254 H82.902 V-13.61 Z"/></g><g id="Ultralight-L" transform="matrix(1 0 0 1 491.205 1556)"><path d="M66.274 -9.752 H41.522 Q40.635 -9.752 40.151 -10.236 Q39.668 -10.72 39.668 -11.607 V-13.622 Q39.668 -13.945 39.788 -14.308 Q39.909 -14.671 40.232 -14.912 Q45.473 -18.944 49.665 -22.733 Q53.858 -26.522 57.566 -30.392 Q60.953 -34.424 62.847 -37.971 Q64.742 -41.519 64.742 -45.227 Q64.742 -51.194 61.678 -54.822 Q58.614 -58.45 54.261 -58.45 Q50.149 -58.45 47.246 -55.789 Q44.344 -53.129 43.779 -49.259 Q43.779 -48.614 43.094 -48.211 Q42.409 -47.807 41.602 -48.211 Q40.635 -48.372 40.192 -49.38 Q39.748 -50.387 39.909 -51.516 Q40.474 -56.515 44.989 -59.458 Q49.504 -62.401 54.341 -62.401 Q61.033 -62.401 64.823 -58.49 Q68.612 -54.58 68.612 -47.969 Q68.612 -42.486 66.354 -37.568 Q64.097 -32.65 60.469 -28.538 Q57.002 -24.426 52.648 -20.556 Q48.294 -16.686 44.424 -13.945 L44.263 -14.026 H66.435 Q67.403 -14.026 67.967 -13.421 Q68.531 -12.816 68.531 -11.849 Q68.531 -10.881 67.886 -10.317 Q67.241 -9.752 66.274 -9.752 Z M82.237 -9.833 Q80.383 -9.833 79.174 -10.962 Q77.964 -12.091 77.964 -14.106 V-56.999 Q77.964 -58.853 79.174 -60.143 Q80.383 -61.433 82.237 -61.433 H95.138 Q105.941 -61.433 111.706 -54.137 Q117.471 -46.84 117.471 -35.633 Q117.471 -24.023 111.706 -16.928 Q105.941 -9.833 95.138 -9.833 H82.237 Z M81.673 -13.703 H95.379 Q104.168 -13.703 108.965 -19.79 Q113.762 -25.877 113.762 -35.552 Q113.762 -45.227 108.965 -51.315 Q104.168 -57.402 95.379 -57.402 H81.673 V-13.703 Z"/></g><g id="Bold-M" transform="matrix(1 0 0 1 2281.8 1126)"><path d="M43.75 -6.605 H14.688 Q12.875 -6.605 11.438 -8.042 Q10 -9.48 10 -11.292 V-16.73 Q10 -17.855 10.406 -18.667 Q10.812 -19.48 11.562 -20.23 Q20.25 -26.917 24.188 -30.261 Q28.125 -33.605 30.375 -36.355 Q32.188 -38.73 32.812 -40.792 Q33.438 -42.855 33.438 -44.105 Q33.438 -48.23 31.719 -50.167 Q30 -52.105 27.562 -52.105 Q26.375 -52.105 25.125 -51.761 Q23.875 -51.417 22.312 -50.105 Q20.188 -48.167 17.469 -47.636 Q14.75 -47.105 12.625 -48.792 Q10.562 -50.417 10.531 -53.136 Q10.5 -55.855 12.312 -57.98 Q14.875 -61.292 18.781 -62.98 Q22.688 -64.667 27.625 -64.667 Q36.875 -64.667 42.094 -60.199 Q47.312 -55.73 47.312 -47.105 Q47.312 -42.23 45.812 -38.167 Q44.312 -34.105 41.75 -30.542 Q39.312 -27.042 35.875 -24.261 Q32.438 -21.48 28.938 -18.855 L29.312 -18.292 H43.75 Q46.125 -18.292 47.812 -16.574 Q49.5 -14.855 49.5 -12.48 Q49.5 -10.105 47.812 -8.355 Q46.125 -6.605 43.75 -6.605 Z M68.375 -6.542 Q65.312 -6.542 63.062 -8.792 Q60.812 -11.042 60.812 -14.105 V-55.855 Q60.812 -58.917 63.062 -61.167 Q65.312 -63.417 68.375 -63.417 H79.5 Q94.75 -63.417 102.469 -56.324 Q110.188 -49.23 110.188 -35.042 Q110.188 -20.917 102.531 -13.73 Q94.875 -6.542 79.5 -6.542 H68.375 Z M74.938 -19.667 H78.812 Q87.75 -19.667 91.906 -23.324 Q96.062 -26.98 96.062 -35.042 Q96.062 -43.105 91.906 -46.699 Q87.75 -50.292 78.812 -50.292 H74.938 V-19.667 Z"/></g><g id="Semibold-M" transform="matrix(1 0 0 1 1985.97 1126)"><path d="M45.109 -8.399 H18.22 Q16.57 -8.399 15.322 -9.646 Q14.076 -10.892 14.076 -12.542 V-17.382 Q14.076 -18.344 14.428 -19.102 Q14.78 -19.86 15.475 -20.501 Q23.076 -26.429 27.014 -29.664 Q30.951 -32.899 33.201 -35.702 Q35.068 -38.132 35.856 -40.249 Q36.644 -42.366 36.644 -44.322 Q36.644 -48.067 34.763 -50.086 Q32.88 -52.105 30.225 -52.105 Q28.711 -52.105 27.38 -51.435 Q26.049 -50.765 24.758 -49.344 Q23.176 -47.57 20.92 -47.011 Q18.663 -46.452 16.755 -47.705 Q14.856 -48.95 14.634 -51.261 Q14.412 -53.572 15.736 -55.535 Q17.864 -59.172 21.77 -61.051 Q25.676 -62.929 30.288 -62.929 Q38.886 -62.929 43.642 -58.759 Q48.4 -54.589 48.4 -46.561 Q48.4 -41.85 46.818 -37.869 Q45.236 -33.887 42.62 -30.325 Q40.019 -26.716 36.745 -24.18 Q33.47 -21.642 29.916 -19.017 L30.183 -18.619 H45.109 Q47.212 -18.619 48.682 -17.117 Q50.153 -15.616 50.153 -13.512 Q50.153 -11.409 48.682 -9.904 Q47.212 -8.399 45.109 -8.399 Z M67.071 -8.39 Q64.498 -8.39 62.627 -10.26 Q60.759 -12.13 60.759 -14.702 V-55.42 Q60.759 -57.994 62.627 -59.864 Q64.498 -61.732 67.071 -61.732 H78.359 Q92.088 -61.732 99.181 -54.992 Q106.275 -48.251 106.275 -35.096 Q106.275 -22.005 99.189 -15.197 Q92.104 -8.39 78.359 -8.39 H67.071 Z M72.71 -19.667 H77.834 Q86.391 -19.667 90.385 -23.351 Q94.377 -27.034 94.377 -35.096 Q94.377 -43.159 90.385 -46.807 Q86.391 -50.455 77.834 -50.455 H72.71 V-19.667 Z"/></g><g id="Medium-M" transform="matrix(1 0 0 1 1689.91 1126)"><path d="M46.127 -9.744 H20.87 Q19.343 -9.744 18.238 -10.849 Q17.133 -11.952 17.133 -13.48 V-17.871 Q17.133 -18.711 17.444 -19.429 Q17.755 -20.146 18.41 -20.705 Q25.195 -26.061 29.133 -29.215 Q33.07 -32.369 35.32 -35.214 Q37.229 -37.684 38.139 -39.841 Q39.049 -41.999 39.049 -44.485 Q39.049 -47.945 37.045 -50.025 Q35.041 -52.105 32.222 -52.105 Q30.465 -52.105 29.073 -51.19 Q27.679 -50.276 26.593 -48.774 Q25.419 -47.121 23.508 -46.542 Q21.598 -45.964 19.854 -46.89 Q18.076 -47.85 17.712 -49.855 Q17.348 -51.86 18.304 -53.7 Q20.106 -57.584 24.012 -59.604 Q27.919 -61.624 32.285 -61.624 Q40.394 -61.624 44.804 -57.679 Q49.215 -53.732 49.215 -46.154 Q49.215 -41.564 47.572 -37.645 Q45.929 -33.725 43.271 -30.162 Q40.549 -26.471 37.396 -24.119 Q34.245 -21.765 30.65 -19.14 L30.834 -18.864 H46.127 Q48.028 -18.864 49.334 -17.525 Q50.641 -16.186 50.641 -14.287 Q50.641 -12.387 49.334 -11.065 Q48.028 -9.744 46.127 -9.744 Z M66.093 -9.776 Q63.886 -9.776 62.301 -11.36 Q60.718 -12.945 60.718 -15.151 V-55.094 Q60.718 -57.301 62.301 -58.885 Q63.886 -60.469 66.093 -60.469 H77.502 Q90.09 -60.469 96.715 -53.994 Q103.34 -47.517 103.34 -35.137 Q103.34 -22.82 96.683 -16.297 Q90.025 -9.776 77.502 -9.776 H66.093 Z M71.037 -19.667 H77.1 Q85.373 -19.667 89.244 -23.371 Q93.114 -27.075 93.114 -35.137 Q93.114 -43.2 89.244 -46.889 Q85.373 -50.577 77.1 -50.577 H71.037 V-19.667 Z"/></g><g id="Regular-M" transform="matrix(1 0 0 1 1394.06 1126)"><path d="M46.875 -10.73 H22.812 Q21.375 -10.73 20.375 -11.73 Q19.375 -12.73 19.375 -14.167 V-18.23 Q19.375 -18.98 19.656 -19.667 Q19.938 -20.355 20.562 -20.855 Q26.75 -25.792 30.688 -28.886 Q34.625 -31.98 36.875 -34.855 Q38.812 -37.355 39.812 -39.542 Q40.812 -41.73 40.812 -44.605 Q40.812 -47.855 38.719 -49.98 Q36.625 -52.105 33.688 -52.105 Q31.75 -52.105 30.312 -51.011 Q28.875 -49.917 27.938 -48.355 Q27.062 -46.792 25.406 -46.199 Q23.75 -45.605 22.125 -46.292 Q20.438 -47.042 19.969 -48.824 Q19.5 -50.605 20.188 -52.355 Q21.75 -56.417 25.656 -58.542 Q29.562 -60.667 33.75 -60.667 Q41.5 -60.667 45.656 -56.886 Q49.812 -53.105 49.812 -45.855 Q49.812 -41.355 48.125 -37.48 Q46.438 -33.605 43.75 -30.042 Q40.938 -26.292 37.875 -24.074 Q34.812 -21.855 31.188 -19.23 L31.312 -19.042 H46.875 Q48.625 -19.042 49.812 -17.824 Q51 -16.605 51 -14.855 Q51 -13.105 49.812 -11.917 Q48.625 -10.73 46.875 -10.73 Z M65.375 -10.792 Q63.438 -10.792 62.062 -12.167 Q60.688 -13.542 60.688 -15.48 V-54.855 Q60.688 -56.792 62.062 -58.167 Q63.438 -59.542 65.375 -59.542 H76.875 Q88.625 -59.542 94.906 -53.261 Q101.188 -46.98 101.188 -35.167 Q101.188 -23.417 94.844 -17.105 Q88.5 -10.792 76.875 -10.792 H65.375 Z M69.812 -19.667 H76.562 Q84.625 -19.667 88.406 -23.386 Q92.188 -27.105 92.188 -35.167 Q92.188 -43.23 88.406 -46.949 Q84.625 -50.667 76.562 -50.667 H69.812 V-19.667 Z"/></g><g id="Light-M" transform="matrix(1 0 0 1 1098.18 1126)"><path d="M48.581 -12.629 H26.419 Q25.27 -12.629 24.486 -13.412 Q23.703 -14.196 23.703 -15.345 V-18.519 Q23.703 -19.1 23.924 -19.631 Q24.145 -20.162 24.625 -20.566 Q30.067 -24.831 33.716 -27.816 Q37.365 -30.802 39.784 -33.725 Q41.938 -36.369 43.083 -38.725 Q44.226 -41.081 44.226 -43.956 Q44.226 -47.662 42.06 -49.992 Q39.895 -52.321 36.836 -52.321 Q34.515 -52.321 32.836 -50.915 Q31.159 -49.509 30.365 -47.49 Q29.779 -46.287 28.52 -45.814 Q27.26 -45.34 26.02 -45.86 Q24.669 -46.394 24.247 -47.814 Q23.828 -49.235 24.323 -50.672 Q25.524 -54.639 29.25 -56.775 Q32.976 -58.912 36.924 -58.912 Q43.736 -58.912 47.399 -55.444 Q51.062 -51.975 51.062 -45.495 Q51.062 -41.115 49.388 -37.311 Q47.711 -33.509 45 -30.09 Q42.307 -26.605 39.112 -24.146 Q35.919 -21.686 32.581 -19.23 L32.635 -19.162 H48.63 Q49.995 -19.162 50.906 -18.196 Q51.818 -17.23 51.818 -15.865 Q51.818 -14.499 50.883 -13.564 Q49.947 -12.629 48.581 -12.629 Z M64.87 -12.667 Q63.078 -12.667 61.846 -13.899 Q60.615 -15.129 60.615 -16.922 V-53.605 Q60.615 -55.399 61.846 -56.641 Q63.078 -57.884 64.87 -57.884 H75.649 Q86.125 -57.884 91.698 -51.915 Q97.269 -45.946 97.269 -35.287 Q97.269 -24.644 91.659 -18.655 Q86.047 -12.667 75.649 -12.667 H64.87 Z M67.505 -19.451 H75.505 Q83.086 -19.451 86.771 -23.482 Q90.456 -27.514 90.456 -35.276 Q90.456 -43.037 86.771 -47.069 Q83.086 -51.1 75.505 -51.1 H67.505 V-19.451 Z"/></g><g id="Thin-M" transform="matrix(1 0 0 1 802.565 1126)"><path d="M50.289 -14.527 H30.024 Q29.164 -14.527 28.596 -15.095 Q28.029 -15.662 28.029 -16.524 V-18.807 Q28.029 -19.22 28.19 -19.595 Q28.351 -19.97 28.688 -20.277 Q33.385 -23.87 36.745 -26.746 Q40.106 -29.624 42.693 -32.595 Q45.062 -35.384 46.351 -37.907 Q47.64 -40.432 47.64 -43.307 Q47.64 -47.47 45.401 -50.004 Q43.164 -52.537 39.985 -52.537 Q37.279 -52.537 35.36 -50.819 Q33.443 -49.1 32.794 -46.624 Q32.495 -45.782 31.633 -45.43 Q30.769 -45.076 29.914 -45.427 Q28.899 -45.745 28.526 -46.805 Q28.154 -47.865 28.456 -48.99 Q29.297 -52.86 32.844 -55.009 Q36.39 -57.157 40.096 -57.157 Q45.971 -57.157 49.141 -54.001 Q52.312 -50.845 52.312 -45.134 Q52.312 -40.874 50.649 -37.144 Q48.985 -33.412 46.25 -30.139 Q43.678 -26.917 40.351 -24.217 Q37.024 -21.519 33.976 -19.23 L33.956 -19.282 H50.385 Q51.365 -19.282 52 -18.569 Q52.635 -17.855 52.635 -16.874 Q52.635 -15.894 51.953 -15.211 Q51.269 -14.527 50.289 -14.527 Z M64.365 -14.542 Q62.716 -14.542 61.63 -15.629 Q60.544 -16.715 60.544 -18.365 V-52.355 Q60.544 -54.004 61.63 -55.115 Q62.716 -56.225 64.365 -56.225 H74.422 Q83.625 -56.225 88.487 -50.569 Q93.351 -44.912 93.351 -35.407 Q93.351 -25.87 88.474 -20.206 Q83.596 -14.542 74.422 -14.542 H64.365 Z M65.198 -19.235 H74.448 Q81.547 -19.235 85.138 -23.579 Q88.726 -27.922 88.726 -35.384 Q88.726 -42.845 85.138 -47.189 Q81.547 -51.532 74.448 -51.532 H65.198 V-19.235 Z"/></g><g id="Ultralight-M" transform="matrix(1 0 0 1 506.415 1126)"><path d="M51.312 -15.667 H32.188 Q31.5 -15.667 31.062 -16.105 Q30.625 -16.542 30.625 -17.23 V-18.98 Q30.625 -19.292 30.75 -19.574 Q30.875 -19.855 31.125 -20.105 Q35.375 -23.292 38.562 -26.105 Q41.75 -28.917 44.438 -31.917 Q46.938 -34.792 48.312 -37.417 Q49.688 -40.042 49.688 -42.917 Q49.688 -47.355 47.406 -50.011 Q45.125 -52.667 41.875 -52.667 Q38.938 -52.667 36.875 -50.761 Q34.812 -48.855 34.25 -46.105 Q34.125 -45.48 33.5 -45.199 Q32.875 -44.917 32.25 -45.167 Q31.438 -45.355 31.094 -46.199 Q30.75 -47.042 30.938 -47.98 Q31.562 -51.792 35 -53.949 Q38.438 -56.105 42 -56.105 Q47.312 -56.105 50.188 -53.136 Q53.062 -50.167 53.062 -44.917 Q53.062 -40.73 51.406 -37.042 Q49.75 -33.355 47 -30.167 Q44.5 -27.105 41.094 -24.261 Q37.688 -21.417 34.812 -19.23 L34.75 -19.355 H51.438 Q52.188 -19.355 52.656 -18.792 Q53.125 -18.23 53.125 -17.48 Q53.125 -16.73 52.594 -16.199 Q52.062 -15.667 51.312 -15.667 Z M64.062 -15.667 Q62.5 -15.667 61.5 -16.667 Q60.5 -17.667 60.5 -19.23 V-51.605 Q60.5 -53.167 61.5 -54.199 Q62.5 -55.23 64.062 -55.23 H73.688 Q82.125 -55.23 86.562 -49.761 Q91 -44.292 91 -35.48 Q91 -26.605 86.562 -21.136 Q82.125 -15.667 73.688 -15.667 H64.062 Z M63.812 -19.105 H73.812 Q80.625 -19.105 84.156 -23.636 Q87.688 -28.167 87.688 -35.449 Q87.688 -42.73 84.156 -47.261 Q80.625 -51.792 73.812 -51.792 H63.812 V-19.105 Z"/></g><g id="Bold-S" transform="matrix(1 0 0 1 2294.23 696)"><path d="M35.505 -14.716 H14.633 Q13.314 -14.716 12.229 -15.767 Q11.145 -16.819 11.145 -18.119 V-22.153 Q11.145 -23 11.514 -23.543 Q11.884 -24.085 12.377 -24.677 Q18.837 -29.658 21.599 -32.148 Q24.36 -34.638 25.643 -35.92 Q27.073 -37.597 27.467 -38.978 Q27.862 -40.358 27.862 -40.457 Q27.862 -44.205 26.729 -45.684 Q25.596 -47.164 23.989 -47.164 Q23.276 -47.164 22.327 -46.977 Q21.378 -46.792 20.169 -45.881 Q18.573 -44.576 16.585 -44.242 Q14.597 -43.909 13.11 -45.104 Q11.687 -46.227 11.514 -48.125 Q11.342 -50.024 12.673 -51.602 Q14.399 -54.215 17.432 -55.3 Q20.465 -56.385 24.163 -56.385 Q30.574 -56.385 34.346 -53.155 Q38.119 -49.925 38.119 -43.909 Q38.119 -40.315 37.083 -37.329 Q36.047 -34.342 34.026 -31.827 Q32.3 -29.559 29.933 -27.611 Q27.566 -25.663 24.903 -23.679 L25.199 -23.247 H35.505 Q37.182 -23.247 38.464 -21.94 Q39.746 -20.633 39.746 -18.94 Q39.746 -17.246 38.464 -15.981 Q37.182 -14.716 35.505 -14.716 Z M53.49 -14.568 Q51.236 -14.568 49.608 -16.233 Q47.981 -17.898 47.981 -20.151 V-50.013 Q47.981 -52.266 49.658 -53.931 Q51.334 -55.596 53.553 -55.596 H61.385 Q72.441 -55.596 78.013 -50.542 Q83.585 -45.487 83.585 -35.194 Q83.585 -24.952 78.086 -19.76 Q72.588 -14.568 61.372 -14.568 H53.49 Z M58.238 -24.233 H60.896 Q67.46 -24.233 70.295 -26.773 Q73.13 -29.312 73.13 -35.181 Q73.13 -41.049 70.295 -43.49 Q67.46 -45.931 60.896 -45.931 H58.238 V-24.233 Z"/></g><g id="Semibold-S" transform="matrix(1 0 0 1 1998.1 696)"><path d="M36.577 -16.131 H17.42 Q16.23 -16.131 15.295 -17.033 Q14.361 -17.933 14.361 -19.105 V-22.667 Q14.361 -23.386 14.687 -23.886 Q15.015 -24.385 15.464 -24.891 Q21.067 -29.272 23.829 -31.677 Q26.59 -34.081 27.872 -35.406 Q29.345 -37.126 29.869 -38.549 Q30.391 -39.973 30.391 -40.629 Q30.391 -44.077 29.13 -45.62 Q27.869 -47.164 26.09 -47.164 Q25.119 -47.164 24.106 -46.721 Q23.093 -46.277 22.098 -45.281 Q20.931 -44.104 19.308 -43.749 Q17.683 -43.394 16.369 -44.246 Q15.075 -45.069 14.751 -46.646 Q14.429 -48.223 15.375 -49.673 Q16.757 -52.543 19.79 -53.778 Q22.823 -55.013 26.264 -55.013 Q32.161 -55.013 35.568 -52.019 Q38.977 -49.025 38.977 -43.48 Q38.977 -40.015 37.876 -37.093 Q36.776 -34.171 34.712 -31.656 Q32.857 -29.302 30.619 -27.547 Q28.38 -25.792 25.675 -23.807 L25.885 -23.504 H36.577 Q38.04 -23.504 39.15 -22.369 Q40.261 -21.234 40.261 -19.755 Q40.261 -18.275 39.15 -17.203 Q38.04 -16.131 36.577 -16.131 Z M52.461 -16.026 Q50.593 -16.026 49.265 -17.391 Q47.939 -18.756 47.939 -20.623 V-49.67 Q47.939 -51.538 49.314 -52.902 Q50.691 -54.267 52.525 -54.267 H60.485 Q70.34 -54.267 75.419 -49.491 Q80.498 -44.715 80.498 -35.238 Q80.498 -25.809 75.449 -20.918 Q70.401 -16.026 60.472 -16.026 H52.461 Z M56.481 -24.233 H60.124 Q66.387 -24.233 69.095 -26.795 Q71.801 -29.355 71.801 -35.223 Q71.801 -41.091 69.095 -43.576 Q66.387 -46.059 60.124 -46.059 H56.481 V-24.233 Z"/></g><g id="Medium-S" transform="matrix(1 0 0 1 1701.85 696)"><path d="M37.381 -17.192 H19.511 Q18.417 -17.192 17.595 -17.981 Q16.772 -18.769 16.772 -19.844 V-23.054 Q16.772 -23.676 17.067 -24.144 Q17.362 -24.611 17.78 -25.052 Q22.739 -28.982 25.5 -31.322 Q28.262 -33.663 29.544 -35.02 Q31.05 -36.772 31.669 -38.227 Q32.289 -39.683 32.289 -40.757 Q32.289 -43.98 30.932 -45.572 Q29.574 -47.164 27.666 -47.164 Q26.503 -47.164 25.44 -46.527 Q24.379 -45.891 23.546 -44.831 Q22.701 -43.75 21.35 -43.379 Q19.999 -43.009 18.813 -43.603 Q17.615 -44.201 17.18 -45.536 Q16.745 -46.872 17.4 -48.225 Q18.527 -51.289 21.559 -52.636 Q24.592 -53.984 27.84 -53.984 Q33.35 -53.984 36.484 -51.167 Q39.62 -48.349 39.62 -43.158 Q39.62 -39.79 38.472 -36.916 Q37.323 -34.043 35.226 -31.528 Q33.275 -29.108 31.133 -27.499 Q28.992 -25.888 26.254 -23.904 L26.399 -23.698 H37.381 Q38.683 -23.698 39.664 -22.691 Q40.646 -21.684 40.646 -20.365 Q40.646 -19.047 39.664 -18.12 Q38.683 -17.192 37.381 -17.192 Z M51.689 -17.119 Q50.11 -17.119 49.008 -18.259 Q47.906 -19.399 47.906 -20.977 V-49.412 Q47.906 -50.99 49.057 -52.13 Q50.209 -53.269 51.752 -53.269 H59.809 Q68.764 -53.269 73.473 -48.703 Q78.182 -44.136 78.182 -35.27 Q78.182 -26.453 73.472 -21.786 Q68.761 -17.119 59.796 -17.119 H51.689 Z M55.161 -24.233 H59.545 Q65.584 -24.233 68.194 -26.81 Q70.804 -29.387 70.804 -35.256 Q70.804 -41.124 68.194 -43.64 Q65.584 -46.156 59.545 -46.156 H55.161 V-24.233 Z"/></g><g id="Regular-S" transform="matrix(1 0 0 1 1405.73 696)"><path d="M37.971 -17.971 H21.044 Q20.021 -17.971 19.281 -18.677 Q18.541 -19.383 18.541 -20.387 V-23.337 Q18.541 -23.888 18.813 -24.332 Q19.084 -24.776 19.478 -25.17 Q23.966 -28.77 26.727 -31.063 Q29.489 -33.356 30.771 -34.737 Q32.3 -36.512 32.99 -37.991 Q33.68 -39.471 33.68 -40.852 Q33.68 -43.909 32.252 -45.536 Q30.823 -47.164 28.821 -47.164 Q27.516 -47.164 26.42 -46.385 Q25.323 -45.608 24.607 -44.501 Q23.997 -43.491 22.847 -43.108 Q21.698 -42.725 20.606 -43.132 Q19.478 -43.564 18.961 -44.723 Q18.443 -45.881 18.887 -47.164 Q19.824 -50.369 22.856 -51.799 Q25.889 -53.229 28.996 -53.229 Q34.223 -53.229 37.157 -50.542 Q40.091 -47.854 40.091 -42.923 Q40.091 -39.625 38.908 -36.786 Q37.724 -33.948 35.604 -31.433 Q33.582 -28.967 31.511 -27.463 Q29.44 -25.959 26.678 -23.975 L26.777 -23.839 H37.971 Q39.154 -23.839 40.042 -22.927 Q40.929 -22.014 40.929 -20.814 Q40.929 -19.613 40.042 -18.792 Q39.154 -17.971 37.971 -17.971 Z M51.123 -17.921 Q49.756 -17.921 48.819 -18.896 Q47.882 -19.87 47.882 -21.236 V-49.224 Q47.882 -50.59 48.869 -51.564 Q49.855 -52.539 51.186 -52.539 H59.314 Q67.608 -52.539 72.047 -48.125 Q76.484 -43.712 76.484 -35.293 Q76.484 -26.925 72.021 -22.423 Q67.558 -17.921 59.301 -17.921 H51.123 Z M54.194 -24.233 H59.121 Q64.994 -24.233 67.533 -26.822 Q70.073 -29.411 70.073 -35.279 Q70.073 -41.147 67.533 -43.687 Q64.994 -46.227 59.121 -46.227 H54.194 V-24.233 Z"/></g><g id="Light-S" transform="matrix(1 0 0 1 1109.75 696)"><path d="M39.317 -19.469 H23.889 Q23.094 -19.469 22.525 -20.004 Q21.956 -20.54 21.956 -21.316 V-23.564 Q21.956 -23.983 22.18 -24.303 Q22.404 -24.624 22.684 -24.942 Q26.583 -28.012 29.117 -30.219 Q31.651 -32.427 33.066 -33.845 Q34.765 -35.734 35.57 -37.346 Q36.374 -38.959 36.374 -40.34 Q36.374 -43.757 34.889 -45.546 Q33.403 -47.334 31.307 -47.334 Q29.698 -47.334 28.411 -46.31 Q27.125 -45.286 26.522 -43.818 Q26.142 -43.092 25.304 -42.804 Q24.467 -42.516 23.678 -42.79 Q22.817 -43.052 22.337 -43.926 Q21.857 -44.801 22.149 -45.836 Q22.801 -48.966 25.692 -50.404 Q28.583 -51.844 31.5 -51.844 Q35.987 -51.844 38.532 -49.403 Q41.077 -46.962 41.077 -42.639 Q41.077 -39.435 39.904 -36.654 Q38.729 -33.872 36.59 -31.47 Q34.663 -29.214 32.487 -27.52 Q30.312 -25.826 27.778 -23.975 L27.82 -23.933 H39.355 Q40.235 -23.933 40.905 -23.22 Q41.574 -22.507 41.574 -21.61 Q41.574 -20.713 40.886 -20.091 Q40.198 -19.469 39.317 -19.469 Z M50.725 -19.401 Q49.472 -19.401 48.649 -20.262 Q47.825 -21.123 47.825 -22.374 V-48.238 Q47.825 -49.489 48.698 -50.36 Q49.571 -51.23 50.788 -51.23 H58.347 Q65.636 -51.23 69.514 -47.063 Q73.392 -42.896 73.392 -35.389 Q73.392 -27.892 69.508 -23.646 Q65.623 -19.401 58.334 -19.401 H50.725 Z M52.374 -24.063 H58.286 Q63.78 -24.063 66.243 -26.898 Q68.707 -29.734 68.707 -35.365 Q68.707 -40.996 66.243 -43.782 Q63.78 -46.568 58.286 -46.568 H52.374 V-24.063 Z"/></g><g id="Thin-S" transform="matrix(1 0 0 1 814.015 696)"><path d="M40.664 -20.967 H26.734 Q26.166 -20.967 25.768 -21.332 Q25.369 -21.697 25.369 -22.246 V-23.791 Q25.369 -24.077 25.546 -24.275 Q25.722 -24.472 25.889 -24.715 Q29.201 -27.253 31.507 -29.375 Q33.814 -31.497 35.361 -32.954 Q37.231 -34.957 38.149 -36.701 Q39.067 -38.447 39.067 -39.828 Q39.067 -43.605 37.525 -45.555 Q35.982 -47.505 33.791 -47.505 Q31.879 -47.505 30.402 -46.235 Q28.927 -44.963 28.439 -43.135 Q28.284 -42.694 27.76 -42.502 Q27.235 -42.308 26.75 -42.448 Q26.154 -42.54 25.713 -43.13 Q25.271 -43.72 25.411 -44.509 Q25.779 -47.562 28.527 -49.011 Q31.276 -50.46 34.003 -50.46 Q37.751 -50.46 39.907 -48.265 Q42.064 -46.071 42.064 -42.354 Q42.064 -39.246 40.899 -36.521 Q39.734 -33.796 37.576 -31.509 Q35.744 -29.46 33.464 -27.577 Q31.184 -25.694 28.878 -23.975 L28.863 -24.028 H40.74 Q41.316 -24.028 41.768 -23.514 Q42.219 -23 42.219 -22.407 Q42.219 -21.813 41.73 -21.39 Q41.24 -20.967 40.664 -20.967 Z M50.326 -20.88 Q49.187 -20.88 48.478 -21.627 Q47.769 -22.374 47.769 -23.512 V-47.251 Q47.769 -48.39 48.527 -49.156 Q49.286 -49.921 50.389 -49.921 H57.379 Q63.663 -49.921 66.982 -46.001 Q70.301 -42.08 70.301 -35.483 Q70.301 -28.859 66.995 -24.869 Q63.689 -20.88 57.366 -20.88 H50.326 Z M50.553 -23.892 H57.452 Q62.566 -23.892 64.954 -26.974 Q67.342 -30.056 67.342 -35.45 Q67.342 -40.844 64.954 -43.876 Q62.566 -46.909 57.452 -46.909 H50.553 V-23.892 Z"/></g><g id="Ultralight-S" transform="matrix(1 0 0 1 517.792 696)"><path d="M41.472 -21.866 H28.44 Q28.01 -21.866 27.714 -22.129 Q27.418 -22.391 27.418 -22.803 V-23.929 Q27.418 -24.135 27.566 -24.258 Q27.714 -24.381 27.812 -24.578 Q30.771 -26.798 32.941 -28.869 Q35.111 -30.94 36.738 -32.419 Q38.71 -34.49 39.697 -36.315 Q40.683 -38.139 40.683 -39.52 Q40.683 -43.514 39.107 -45.561 Q37.53 -47.607 35.281 -47.607 Q33.187 -47.607 31.597 -46.188 Q30.008 -44.77 29.588 -42.725 Q29.57 -42.455 29.233 -42.319 Q28.897 -42.183 28.594 -42.244 Q28.157 -42.232 27.738 -42.652 Q27.319 -43.071 27.368 -43.712 Q27.566 -46.72 30.229 -48.175 Q32.891 -49.629 35.505 -49.629 Q38.809 -49.629 40.732 -47.583 Q42.655 -45.536 42.655 -42.183 Q42.655 -39.132 41.496 -36.441 Q40.338 -33.751 38.168 -31.532 Q36.393 -29.608 34.05 -27.611 Q31.708 -25.614 29.538 -23.975 L29.489 -24.085 H41.57 Q41.965 -24.085 42.285 -23.691 Q42.606 -23.296 42.606 -22.885 Q42.606 -22.473 42.236 -22.17 Q41.866 -21.866 41.472 -21.866 Z M50.088 -21.768 Q49.017 -21.768 48.376 -22.446 Q47.735 -23.125 47.735 -24.195 V-46.66 Q47.735 -47.73 48.425 -48.433 Q49.115 -49.136 50.151 -49.136 H56.799 Q62.48 -49.136 65.463 -45.364 Q68.446 -41.591 68.446 -35.54 Q68.446 -29.44 65.487 -25.603 Q62.528 -21.768 56.786 -21.768 H50.088 Z M49.46 -23.789 H56.951 Q61.838 -23.789 64.18 -27.019 Q66.523 -30.249 66.523 -35.501 Q66.523 -40.753 64.18 -43.934 Q61.838 -47.114 56.951 -47.114 H49.46 V-23.789 Z"/></g></g></svg>