<svg xmlns="http://www.w3.org/2000/svg" height="20" viewBox="0 -960 960 960" width="20"><path d="M227.35-120.91q-17.37 0-28.58-8.82-11.21-8.81-12.71-26.01L82.32-802.14q-2.37-15.69 5.45-26.32t22.01-10.63h739.29q15.28 0 22.84 10.63 7.57 10.63 5.66 26.38l-28.54 169.75q-2.31 17.03-13.39 25.84-11.08 8.82-28.88 8.82H363.33q-1.07 0-9.07 11.06l34.83 216.34q.5 3.44 11.36 7.44h158.33q1.5 0 11.13-7.56l24.38-155.27q1.82-13.93 10.87-20.99 9.05-7.07 22.89-7.07h173.44q14.74 0 23.67 10.17 8.93 10.17 6.41 24.95l-58.63 362.86q-1.5 17.2-12.65 26.01-11.14 8.82-28.75 8.82H227.35Z"/></svg>