<svg xmlns="http://www.w3.org/2000/svg" height="24" viewBox="0 -960 960 960" width="24"><path d="M251.76-154.16q-15.52 0-25.57-8.1-10.04-8.11-12.31-23.39L119-772.83q-1.96-14.51 5.28-23.76 7.24-9.25 20.66-9.25h670.05q14.37 0 21.48 9.23 7.1 9.23 4.46 23.64L815.2-618.22q-2.43 15.41-12.19 23.39-9.75 7.98-25.36 7.98h-403.3q-1.54 0-8.31 10.54l31.5 194.62q.69 3.19 9.47 8.04h145.22q3.38 0 9.23-8.04l22.95-140.38q1.63-12.62 9.52-18.83 7.89-6.21 20.53-6.21h158.07q14.44 0 21.57 9.27 7.13 9.27 5.33 22.85l-53.11 329.34q-2.46 15.19-12.55 23.34t-25.35 8.15H251.76Z"/></svg>