<svg xmlns="http://www.w3.org/2000/svg" height="40" viewBox="0 -960 960 960" width="40"><path d="M240.71-139.38q-15.58 0-26.02-8.28t-12.97-25L102.54-786q-3-14.94 4.88-24.78 7.88-9.84 22.32-9.84H830q15.05 0 22.37 9.8 7.32 9.79 4.47 25.02l-26.19 161.24q-2.47 16.77-12.75 24.89-10.28 8.13-26.67 8.13H370.9q-1.8 0-10 11.03l32.61 203.36q1.11 4.1 10.26 7.69h151.91q3.79 0 9.47-7.69l23.81-146.86q2.01-12.66 10.55-19.39 8.53-6.73 21.77-6.73h165.15q14.31 0 22.13 9.63 7.82 9.63 5.8 23.65l-56.08 344.2q-2.52 16.71-13.14 24.99-10.61 8.28-26.19 8.28H240.71Z"/></svg>