<svg xmlns="http://www.w3.org/2000/svg" height="20" viewBox="0 -960 960 960" width="20"><path d="M221.85-112.91q-17.59 0-28.94-9.07-11.35-9.06-13.35-26.76L73.37-809.78q-2.42-16.05 5.66-26.68 8.07-10.63 22.75-10.63h755.44q15.63 0 23.44 10.63 7.82 10.63 5.82 26.76l-29.45 173.87q-2.81 17.53-13.89 26.59-11.08 9.07-28.88 9.07H360.83q-1.57 0-9.57 11.56l35.83 220.34q0 2.44 11.13 8.44h162.56q2 0 11.13-8.56l24.85-158.48q1.85-14.22 10.9-21.28 9.05-7.07 23.23-7.07H808.7q15.13 0 24.26 10.17t6.56 25.29l-60.08 371.02q-2 17.7-13.29 26.76-11.28 9.07-29.11 9.07H221.85Z"/></svg>