<svg xmlns="http://www.w3.org/2000/svg" height="40" viewBox="0 -960 960 960" width="40"><path d="M209.84-94.19q-18.44 0-30.28-9.56-11.85-9.57-14.81-28.01L52.15-827.04q-2.54-16.89 6.19-27.83 8.73-10.94 24.65-10.94H876.8q16.9 0 25.46 10.92 8.57 10.92 5.57 27.72l-30.89 183.43q-2.95 18.33-14.43 27.7-11.47 9.37-29.92 9.37H354.71q-3.94 0-9.57 12.57l37.45 230.2q0 2.19 10.76 10.19h172.43q3.95 0 11-10.19l26.32-166.3q2-15.13 11.43-22.01 9.42-6.88 24.21-6.88h187.28q16.91 0 25.85 10.66 8.94 10.66 6.75 26.42l-63.37 390.25q-2.96 18.44-14.81 28.01-11.84 9.56-30.28 9.56H209.84Z"/></svg>