<svg xmlns="http://www.w3.org/2000/svg" version="1.1" width="3300" height="2000"><g id="Notes"><style>
    text {
      font-family: monospace;
      text-anchor: middle;
    }
    text.emphasis {
      font-weight:bold;
    }
    text.lanchor {
      text-anchor: start;
    }
  </style><rect height="2200" id="artboard" fill="white" width="3300" x="0" y="0"/><line id="" style="fill:none;stroke:black;stroke-width:0.5;" x1="263" x2="3036" y1="292" y2="292"/><text class="lanchor emphasis" transform="matrix(1 0 0 1 263 322)">Weight/Scale Variations</text><text transform="matrix(1 0 0 1 559.711 322)">Ultralight</text><text transform="matrix(1 0 0 1 856.422 322)">Thin</text><text transform="matrix(1 0 0 1 1153.13 322)">Light</text><text transform="matrix(1 0 0 1 1449.84 322)">Regular</text><text transform="matrix(1 0 0 1 1746.56 322)">Medium</text><text transform="matrix(1 0 0 1 2043.27 322)">Semibold</text><text transform="matrix(1 0 0 1 2339.98 322)">Bold</text><text transform="matrix(1 0 0 1 2636.69 322)">Heavy</text><text transform="matrix(1 0 0 1 2933.4 322)">Black</text><text id="template-version" style="text-anchor: end;" transform="matrix(1 0 0 1 3036 1933)">Template v.1.0</text><text class="lanchor" transform="matrix(1 0 0 1 263 726)">Small</text><text class="lanchor" transform="matrix(1 0 0 1 263 1156)">Medium</text><text class="lanchor" transform="matrix(1 0 0 1 263 1586)">Large</text></g><g id="Guides"><g id="H-reference" style="fill:#27AAE1;stroke:none;" transform="matrix(1 0 0 1 339 696)"><path d="M 54.9316 0 L 57.666 0 L 30.5664 -70.459 L 28.0762 -70.459 L 0.976562 0 L 3.66211 0 L 12.9395 -24.4629 L 45.7031 -24.4629 Z M 29.1992 -67.0898 L 29.4434 -67.0898 L 44.8242 -26.709 L 13.8184 -26.709 Z"/></g><line id="Baseline-S" style="fill:none;stroke:#27AAE1;opacity:1;stroke-width:0.577;" x1="263" x2="3036" y1="696" y2="696"/><line id="Capline-S" style="fill:none;stroke:#27AAE1;opacity:1;stroke-width:0.577;" x1="263" x2="3036" y1="625.541" y2="625.541"/><g id="H-reference" style="fill:#27AAE1;stroke:none;" transform="matrix(1 0 0 1 339 1126)"><path d="M 54.9316 0 L 57.666 0 L 30.5664 -70.459 L 28.0762 -70.459 L 0.976562 0 L 3.66211 0 L 12.9395 -24.4629 L 45.7031 -24.4629 Z M 29.1992 -67.0898 L 29.4434 -67.0898 L 44.8242 -26.709 L 13.8184 -26.709 Z"/></g><line id="Baseline-M" style="fill:none;stroke:#27AAE1;opacity:1;stroke-width:0.577;" x1="263" x2="3036" y1="1126" y2="1126"/><line id="Capline-M" style="fill:none;stroke:#27AAE1;opacity:1;stroke-width:0.577;" x1="263" x2="3036" y1="1055.54" y2="1055.54"/><g id="H-reference" style="fill:#27AAE1;stroke:none;" transform="matrix(1 0 0 1 339 1556)"><path d="M 54.9316 0 L 57.666 0 L 30.5664 -70.459 L 28.0762 -70.459 L 0.976562 0 L 3.66211 0 L 12.9395 -24.4629 L 45.7031 -24.4629 Z M 29.1992 -67.0898 L 29.4434 -67.0898 L 44.8242 -26.709 L 13.8184 -26.709 Z"/></g><line id="Baseline-L" style="fill:none;stroke:#27AAE1;opacity:1;stroke-width:0.577;" x1="263" x2="3036" y1="1556" y2="1556"/><line id="Capline-L" style="fill:none;stroke:#27AAE1;opacity:1;stroke-width:0.577;" x1="263" x2="3036" y1="1485.54" y2="1485.54"/><rect height="119.336" id="left-margin" style="fill:darkred;stroke:none;opacity:0.4;" width="12.4512" x="1394.06" y="1030.79"/><rect height="119.336" id="right-margin" style="fill:darkgreen;stroke:none;opacity:0.4;" width="12.4512" x="1502.5112" y="1030.79"/><rect x="1406.5112" y="1045" width="96" height="96" fill="none" stroke="blue" stroke-dasharray="5"/><rect x="1394.06" y="1030.79" width="120.9024" height="119.336" fill="none" stroke="blue"/></g><g id="Symbols"><g id="Bold-L" transform="matrix(1 0 0 1 2266 1556)"><path d="M27.735 26.851 Q20.317 26.851 15.722 21.208 Q11.126 15.564 12.739 8.308 L33.54 -85.54 Q34.669 -90.7 38.861 -94.086 Q43.054 -97.472 48.375 -97.472 H106.264 Q111.746 -97.472 115.858 -94.086 Q119.97 -90.7 121.26 -85.54 L142.061 8.308 Q143.513 15.564 138.917 21.208 Q134.321 26.851 127.065 26.851 H27.735 Z M70.95 -36.681 V-11.526 Q70.95 -8.785 72.804 -6.931 Q74.659 -5.076 77.4 -5.076 Q80.141 -5.076 81.996 -6.931 Q83.85 -8.785 83.85 -11.526 V-36.681 L88.043 -32.489 Q89.816 -30.554 92.235 -30.634 Q94.654 -30.715 96.589 -32.65 Q98.524 -34.585 98.524 -37.165 Q98.524 -39.745 96.589 -41.68 L82.883 -55.386 Q80.625 -57.644 77.4 -57.644 Q74.175 -57.644 71.918 -55.386 L58.211 -41.68 Q56.276 -39.745 56.276 -37.165 Q56.276 -34.585 58.534 -32.327 Q60.308 -30.554 62.646 -30.554 Q64.984 -30.554 66.758 -32.327 L70.95 -36.681 Z"/></g><g id="Semibold-L" transform="matrix(1 0 0 1 1970.27 1556)"><path d="M26.543 25.098 Q20.317 25.098 16.457 20.332 Q12.598 15.564 13.93 9.499 L35.082 -85.609 Q36.072 -89.929 39.597 -92.79 Q43.123 -95.65 47.604 -95.65 H107.105 Q111.677 -95.65 115.157 -92.79 Q118.638 -89.929 119.718 -85.609 L140.87 9.499 Q142.11 15.564 138.251 20.332 Q134.391 25.098 128.257 25.098 H26.543 Z M71.651 -39.345 V-11.317 Q71.651 -8.854 73.295 -7.211 Q74.939 -5.566 77.4 -5.566 Q79.861 -5.566 81.505 -7.211 Q83.149 -8.854 83.149 -11.317 V-39.345 L89.234 -33.26 Q90.868 -31.536 93.077 -31.581 Q95.284 -31.626 97.01 -33.351 Q98.733 -35.075 98.733 -37.375 Q98.733 -39.676 97.01 -41.399 L81.971 -56.438 Q80.064 -58.345 77.4 -58.345 Q74.736 -58.345 72.829 -56.438 L57.79 -41.399 Q56.067 -39.676 56.067 -37.375 Q56.067 -35.075 57.973 -33.169 Q59.606 -31.536 61.77 -31.536 Q63.932 -31.536 65.566 -33.169 L71.651 -39.345 Z"/></g><g id="Medium-L" transform="matrix(1 0 0 1 1674.31 1556)"><path d="M25.65 23.784 Q20.317 23.784 17.01 19.674 Q13.703 15.564 14.824 10.392 L36.239 -85.663 Q37.123 -89.35 40.15 -91.816 Q43.176 -94.283 47.025 -94.283 H107.736 Q111.624 -94.283 114.631 -91.816 Q117.638 -89.35 118.561 -85.663 L139.976 10.392 Q141.058 15.564 137.751 19.674 Q134.444 23.784 129.15 23.784 H25.65 Z M72.177 -41.343 V-11.159 Q72.177 -8.908 73.664 -7.421 Q75.149 -5.936 77.4 -5.936 Q79.651 -5.936 81.136 -7.421 Q82.623 -8.908 82.623 -11.159 V-41.343 L90.127 -33.838 Q91.656 -32.271 93.707 -32.29 Q95.758 -32.31 97.326 -33.877 Q98.891 -35.444 98.891 -37.533 Q98.891 -39.622 97.326 -41.19 L81.288 -57.226 Q79.643 -58.871 77.4 -58.871 Q75.157 -58.871 73.512 -57.226 L57.474 -41.19 Q55.909 -39.622 55.909 -37.533 Q55.909 -35.444 57.552 -33.8 Q59.08 -32.271 61.112 -32.271 Q63.144 -32.271 64.673 -33.8 L72.177 -41.343 Z"/></g><g id="Regular-L" transform="matrix(1 0 0 1 1378.56 1556)"><path d="M24.994 22.82 Q20.317 22.82 17.415 19.192 Q14.513 15.564 15.48 11.049 L37.087 -85.701 Q37.894 -88.926 40.554 -91.103 Q43.215 -93.28 46.601 -93.28 H108.199 Q111.585 -93.28 114.246 -91.103 Q116.906 -88.926 117.713 -85.701 L139.32 11.049 Q140.287 15.564 137.385 19.192 Q134.483 22.82 129.806 22.82 H24.994 Z M72.562 -42.809 V-11.042 Q72.562 -8.946 73.933 -7.576 Q75.304 -6.205 77.4 -6.205 Q79.496 -6.205 80.867 -7.576 Q82.237 -8.946 82.237 -11.042 V-42.809 L90.784 -34.262 Q92.235 -32.811 94.17 -32.811 Q96.105 -32.811 97.556 -34.262 Q99.008 -35.714 99.008 -37.649 Q99.008 -39.584 97.556 -41.035 L80.786 -57.805 Q79.335 -59.256 77.4 -59.256 Q75.465 -59.256 74.014 -57.805 L57.244 -41.035 Q55.793 -39.584 55.793 -37.649 Q55.793 -35.714 57.244 -34.262 Q58.695 -32.811 60.63 -32.811 Q62.565 -32.811 64.016 -34.262 L72.562 -42.809 Z"/></g><g id="Light-L" transform="matrix(1 0 0 1 1082.77 1556)"><path d="M27.785 19.595 Q23.233 19.595 20.455 16.122 Q17.676 12.648 18.644 8.258 L39.072 -82.786 Q39.816 -85.887 42.385 -87.972 Q44.952 -90.055 48.277 -90.055 H106.523 Q109.787 -90.055 112.354 -87.972 Q114.921 -85.887 115.666 -82.786 L136.156 8.258 Q137.124 12.648 134.345 16.122 Q131.567 19.595 127.078 19.595 H27.785 Z M73.678 -43.987 V-11.973 Q73.678 -10.373 74.709 -9.343 Q75.738 -8.314 77.339 -8.314 Q78.938 -8.314 79.967 -9.343 Q80.997 -10.373 80.997 -11.973 V-43.987 L91.59 -33.393 Q92.669 -32.315 94.139 -32.284 Q95.608 -32.253 96.75 -33.393 Q97.892 -34.474 97.892 -35.943 Q97.892 -37.413 96.75 -38.492 L80.601 -54.641 Q79.211 -56.093 77.339 -56.093 Q75.465 -56.093 74.075 -54.641 L58.05 -38.616 Q56.971 -37.537 56.941 -36.067 Q56.908 -34.598 58.05 -33.518 Q59.192 -32.377 60.63 -32.377 Q62.068 -32.377 63.21 -33.518 L73.678 -43.987 Z"/></g><g id="Thin-L" transform="matrix(1 0 0 1 787.282 1556)"><path d="M30.576 16.37 Q26.147 16.37 23.493 13.051 Q20.838 9.735 21.806 5.466 L41.057 -79.872 Q41.74 -82.849 44.213 -84.839 Q46.688 -86.83 49.95 -86.83 H104.85 Q107.988 -86.83 110.463 -84.839 Q112.936 -82.849 113.62 -79.872 L132.994 5.466 Q133.962 9.735 131.307 13.051 Q128.653 16.37 124.348 16.37 H30.576 Z M74.796 -45.166 V-12.903 Q74.796 -11.799 75.484 -11.11 Q76.171 -10.422 77.276 -10.422 Q78.38 -10.422 79.069 -11.11 Q79.757 -11.799 79.757 -12.903 V-45.166 L92.396 -32.526 Q93.103 -31.82 94.109 -31.757 Q95.113 -31.695 95.944 -32.526 Q96.774 -33.234 96.774 -34.238 Q96.774 -35.243 95.944 -35.949 L80.414 -51.479 Q79.087 -52.93 77.276 -52.93 Q75.465 -52.93 74.138 -51.479 L58.856 -36.197 Q58.15 -35.491 58.087 -34.485 Q58.026 -33.48 58.856 -32.774 Q59.687 -31.944 60.63 -31.944 Q61.573 -31.944 62.404 -32.774 L74.796 -45.166 Z"/></g><g id="Ultralight-L" transform="matrix(1 0 0 1 491.205 1556)"><path d="M32.25 14.435 Q27.896 14.435 25.316 11.21 Q22.736 7.985 23.704 3.793 L42.248 -78.122 Q42.892 -81.025 45.311 -82.96 Q47.73 -84.895 50.955 -84.895 H103.845 Q106.909 -84.895 109.328 -82.96 Q111.746 -81.025 112.391 -78.122 L131.096 3.793 Q132.064 7.985 129.484 11.21 Q126.904 14.435 122.711 14.435 H32.25 Z M75.465 -45.872 V-13.461 Q75.465 -12.655 75.949 -12.171 Q76.433 -11.687 77.239 -11.687 Q78.045 -11.687 78.529 -12.171 Q79.013 -12.655 79.013 -13.461 V-45.872 L92.88 -32.005 Q93.364 -31.521 94.089 -31.441 Q94.815 -31.36 95.46 -32.005 Q96.105 -32.489 96.105 -33.214 Q96.105 -33.94 95.46 -34.424 L80.303 -49.581 Q79.013 -51.032 77.239 -51.032 Q75.465 -51.032 74.175 -49.581 L59.34 -34.746 Q58.856 -34.262 58.776 -33.537 Q58.695 -32.811 59.34 -32.327 Q59.985 -31.682 60.63 -31.682 Q61.275 -31.682 61.92 -32.327 L75.465 -45.872 Z"/></g><g id="Bold-M" transform="matrix(1 0 0 1 2281.8 1126)"><path d="M25.25 14.02 Q17.75 14.02 13 8.208 Q8.25 2.395 9.875 -5.105 L24.5 -72.105 Q25.75 -77.605 30 -81.042 Q34.25 -84.48 39.875 -84.48 H80 Q85.625 -84.48 89.875 -81.042 Q94.125 -77.605 95.375 -72.105 L110 -5.105 Q111.625 2.395 106.875 8.208 Q102.125 14.02 94.625 14.02 H25.25 Z M53.375 -29.73 V-20.73 Q53.375 -17.98 55.312 -16.042 Q57.25 -14.105 60 -14.105 Q62.75 -14.105 64.688 -16.042 Q66.625 -17.98 66.625 -20.73 V-29.73 Q68.375 -27.98 70.875 -27.98 Q73.375 -27.98 75.5 -30.105 Q77.375 -31.98 77.375 -34.73 Q77.375 -37.48 75.5 -39.355 L65.625 -49.23 Q63.25 -51.605 60 -51.605 Q56.75 -51.605 54.375 -49.23 L44.5 -39.355 Q42.625 -37.48 42.625 -34.73 Q42.625 -31.98 44.875 -29.73 Q46.625 -27.98 49.125 -27.98 Q51.625 -27.98 53.375 -29.73 Z"/></g><g id="Semibold-M" transform="matrix(1 0 0 1 1985.97 1126)"><path d="M24.055 12.173 Q17.75 12.173 13.761 7.284 Q9.771 2.395 11.125 -3.91 L26.13 -72.214 Q27.163 -76.844 30.761 -79.739 Q34.359 -82.632 39.06 -82.632 H80.87 Q85.571 -82.632 89.169 -79.739 Q92.766 -76.844 93.799 -72.214 L108.805 -3.91 Q110.157 2.395 106.169 7.284 Q102.179 12.173 95.875 12.173 H24.055 Z M54.081 -32.501 V-20.512 Q54.081 -18.034 55.801 -16.314 Q57.521 -14.594 60 -14.594 Q62.479 -14.594 64.199 -16.314 Q65.919 -18.034 65.919 -20.512 V-32.501 L67.875 -30.545 Q69.463 -28.959 71.771 -28.959 Q74.081 -28.959 75.935 -30.811 Q77.593 -32.469 77.593 -34.947 Q77.593 -37.426 75.935 -39.084 L64.701 -50.317 Q62.706 -52.311 60 -52.311 Q57.294 -52.311 55.299 -50.317 L44.065 -39.084 Q42.407 -37.426 42.407 -34.975 Q42.407 -32.524 44.278 -30.6 Q45.919 -28.959 48.229 -28.959 Q50.538 -28.959 52.18 -30.6 L54.081 -32.501 Z"/></g><g id="Medium-M" transform="matrix(1 0 0 1 1689.91 1126)"><path d="M23.157 10.786 Q17.75 10.786 14.331 6.591 Q10.912 2.395 12.062 -3.012 L27.354 -72.295 Q28.223 -76.274 31.331 -78.76 Q34.44 -81.246 38.449 -81.246 H81.521 Q85.53 -81.246 88.639 -78.76 Q91.748 -76.274 92.616 -72.295 L107.907 -3.012 Q109.058 2.395 105.639 6.591 Q102.22 10.786 96.812 10.786 H23.157 Z M54.611 -34.58 V-20.35 Q54.611 -18.075 56.169 -16.517 Q57.725 -14.961 60 -14.961 Q62.275 -14.961 63.831 -16.517 Q65.389 -18.075 65.389 -20.35 V-34.58 L68.812 -31.156 Q70.278 -29.692 72.444 -29.692 Q74.611 -29.692 76.261 -31.341 Q77.755 -32.836 77.755 -35.11 Q77.755 -37.385 76.261 -38.88 L64.009 -51.132 Q62.299 -52.841 60 -52.841 Q57.701 -52.841 55.991 -51.132 L43.739 -38.88 Q42.245 -37.385 42.245 -35.157 Q42.245 -32.931 43.829 -31.251 Q45.389 -29.692 47.556 -29.692 Q49.722 -29.692 51.282 -31.251 L54.611 -34.58 Z"/></g><g id="Regular-M" transform="matrix(1 0 0 1 1394.06 1126)"><path d="M22.5 9.77 Q17.75 9.77 14.75 6.083 Q11.75 2.395 12.75 -2.355 L28.25 -72.355 Q29 -75.855 31.75 -78.042 Q34.5 -80.23 38 -80.23 H82 Q85.5 -80.23 88.25 -78.042 Q91 -75.855 91.75 -72.355 L107.25 -2.355 Q108.25 2.395 105.25 6.083 Q102.25 9.77 97.5 9.77 H22.5 Z M55 -36.105 V-20.23 Q55 -18.105 56.438 -16.667 Q57.875 -15.23 60 -15.23 Q62.125 -15.23 63.562 -16.667 Q65 -18.105 65 -20.23 V-36.105 L69.5 -31.605 Q70.875 -30.23 72.938 -30.23 Q75 -30.23 76.5 -31.73 Q77.875 -33.105 77.875 -35.23 Q77.875 -37.355 76.5 -38.73 L63.5 -51.73 Q62 -53.23 60 -53.23 Q58 -53.23 56.5 -51.73 L43.5 -38.73 Q42.125 -37.355 42.125 -35.292 Q42.125 -33.23 43.5 -31.73 Q45 -30.23 47.062 -30.23 Q49.125 -30.23 50.625 -31.73 L55 -36.105 Z"/></g><g id="Light-M" transform="matrix(1 0 0 1 1098.18 1126)"><path d="M23.799 7.27 Q19.481 7.27 16.77 3.943 Q14.057 0.616 15.01 -3.701 L29.933 -70.624 Q30.635 -73.74 33.12 -75.735 Q35.606 -77.73 38.769 -77.73 H81.183 Q84.346 -77.73 86.831 -75.735 Q89.317 -73.74 90.019 -70.624 L104.99 -3.701 Q105.942 0.616 103.23 3.943 Q100.519 7.27 96.201 7.27 H23.799 Z M56.203 -38.365 V-19.941 Q56.203 -18.345 57.279 -17.269 Q58.356 -16.191 59.953 -16.191 Q61.547 -16.191 62.625 -17.269 Q63.701 -18.345 63.701 -19.941 V-38.365 L70.365 -31.701 Q71.404 -30.662 72.938 -30.639 Q74.471 -30.615 75.635 -31.777 Q76.721 -32.865 76.721 -34.412 Q76.721 -35.961 75.635 -37.047 L63.115 -49.566 Q61.76 -50.922 59.953 -50.922 Q58.144 -50.922 56.789 -49.566 L44.365 -37.144 Q43.328 -36.105 43.303 -34.571 Q43.279 -33.037 44.365 -31.874 Q45.529 -30.711 47.039 -30.711 Q48.547 -30.711 49.711 -31.874 L56.203 -38.365 Z"/></g><g id="Thin-M" transform="matrix(1 0 0 1 802.565 1126)"><path d="M25.096 4.77 Q21.211 4.77 18.789 1.804 Q16.365 -1.162 17.269 -5.047 L31.615 -68.894 Q32.269 -71.624 34.49 -73.427 Q36.711 -75.23 39.539 -75.23 H80.365 Q83.192 -75.23 85.414 -73.427 Q87.635 -71.624 88.289 -68.894 L102.731 -5.047 Q103.635 -1.162 101.211 1.804 Q98.789 4.77 94.904 4.77 H25.096 Z M57.404 -40.624 V-19.652 Q57.404 -18.586 58.12 -17.87 Q58.836 -17.152 59.904 -17.152 Q60.971 -17.152 61.688 -17.87 Q62.404 -18.586 62.404 -19.652 V-40.624 L71.231 -31.797 Q71.933 -31.095 72.938 -31.047 Q73.942 -30.999 74.769 -31.826 Q75.567 -32.624 75.567 -33.595 Q75.567 -34.566 74.769 -35.365 L62.731 -47.402 Q61.519 -48.615 59.904 -48.615 Q58.289 -48.615 57.078 -47.402 L45.231 -35.557 Q44.529 -34.855 44.481 -33.85 Q44.432 -32.845 45.231 -32.019 Q46.057 -31.191 47.015 -31.191 Q47.971 -31.191 48.797 -32.019 L57.404 -40.624 Z"/></g><g id="Ultralight-M" transform="matrix(1 0 0 1 506.415 1126)"><path d="M25.875 3.27 Q22.25 3.27 20 0.52 Q17.75 -2.23 18.625 -5.855 L32.625 -67.855 Q33.25 -70.355 35.312 -72.042 Q37.375 -73.73 40 -73.73 H79.875 Q82.5 -73.73 84.562 -72.042 Q86.625 -70.355 87.25 -67.855 L101.375 -5.855 Q102.25 -2.23 100 0.52 Q97.75 3.27 94.125 3.27 H25.875 Z M58.125 -41.98 V-19.48 Q58.125 -18.73 58.625 -18.23 Q59.125 -17.73 59.875 -17.73 Q60.625 -17.73 61.125 -18.23 Q61.625 -18.73 61.625 -19.48 V-41.98 L71.75 -31.855 Q72.25 -31.355 72.938 -31.292 Q73.625 -31.23 74.25 -31.855 Q74.875 -32.48 74.875 -33.105 Q74.875 -33.73 74.25 -34.355 L62.5 -46.105 Q61.375 -47.23 59.875 -47.23 Q58.375 -47.23 57.25 -46.105 L45.75 -34.605 Q45.25 -34.105 45.188 -33.417 Q45.125 -32.73 45.75 -32.105 Q46.375 -31.48 47 -31.48 Q47.625 -31.48 48.25 -32.105 L58.125 -41.98 Z"/></g><g id="Bold-S" transform="matrix(1 0 0 1 2294.23 696)"><path d="M20.613 1.261 Q14.991 1.261 11.539 -3.128 Q8.087 -7.516 9.369 -13.039 L21.698 -62.746 Q22.684 -66.691 25.741 -69.206 Q28.799 -71.721 32.941 -71.721 H61.542 Q65.684 -71.721 68.742 -69.206 Q71.799 -66.691 72.785 -62.746 L85.113 -13.039 Q86.395 -7.516 82.944 -3.128 Q79.492 1.261 73.87 1.261 H20.613 Z M42.507 -30.792 V-24.973 Q42.507 -23 43.937 -21.57 Q45.367 -20.14 47.34 -20.14 Q49.312 -20.14 50.743 -21.57 Q52.173 -23 52.173 -24.973 V-30.792 L51.778 -31.186 Q53.159 -29.806 54.934 -29.855 Q56.709 -29.904 58.287 -31.482 Q59.767 -32.962 59.767 -34.885 Q59.767 -36.808 58.287 -38.287 L51.482 -44.994 Q49.707 -46.769 47.34 -46.769 Q44.973 -46.769 43.198 -44.994 L36.393 -38.189 Q34.913 -36.709 34.963 -34.786 Q35.012 -32.863 36.787 -31.186 Q38.069 -29.904 39.845 -29.904 Q41.62 -29.904 42.902 -31.186 L42.507 -30.792 Z"/></g><g id="Semibold-S" transform="matrix(1 0 0 1 1998.1 696)"><path d="M19.67 -0.196 Q14.991 -0.196 12.14 -3.856 Q9.288 -7.516 10.356 -12.097 L22.984 -62.832 Q23.798 -66.091 26.342 -68.178 Q28.884 -70.264 32.298 -70.264 H62.228 Q65.642 -70.264 68.184 -68.178 Q70.727 -66.091 71.542 -62.832 L84.171 -12.097 Q85.238 -7.516 82.386 -3.856 Q79.534 -0.196 74.856 -0.196 H19.67 Z M43.065 -32.978 V-24.801 Q43.065 -23.043 44.323 -21.784 Q45.582 -20.526 47.34 -20.526 Q49.098 -20.526 50.357 -21.784 Q51.615 -23.043 51.615 -24.801 V-32.978 L52.764 -31.829 Q54.017 -30.578 55.641 -30.627 Q57.267 -30.676 58.631 -32.039 Q59.938 -33.347 59.938 -35.056 Q59.938 -36.766 58.631 -38.073 L50.753 -45.852 Q49.278 -47.326 47.34 -47.326 Q45.402 -47.326 43.927 -45.852 L36.049 -37.975 Q34.742 -36.667 34.791 -34.979 Q34.84 -33.292 36.316 -31.873 Q37.512 -30.676 39.137 -30.676 Q40.762 -30.676 41.959 -31.873 L43.065 -32.978 Z"/></g><g id="Medium-S" transform="matrix(1 0 0 1 1701.85 696)"><path d="M18.962 -1.29 Q14.991 -1.29 12.589 -4.403 Q10.188 -7.516 11.095 -11.388 L23.949 -62.896 Q24.635 -65.641 26.791 -67.405 Q28.948 -69.17 31.815 -69.17 H62.742 Q65.609 -69.17 67.766 -67.405 Q69.923 -65.641 70.609 -62.896 L83.462 -11.388 Q84.37 -7.516 81.968 -4.403 Q79.567 -1.29 75.596 -1.29 H18.962 Z M43.483 -34.619 V-24.673 Q43.483 -23.075 44.613 -21.945 Q45.742 -20.816 47.34 -20.816 Q48.938 -20.816 50.067 -21.945 Q51.197 -23.075 51.197 -24.673 V-34.619 L53.504 -32.312 Q54.66 -31.157 56.172 -31.206 Q57.685 -31.255 58.888 -32.458 Q60.067 -33.637 60.067 -35.185 Q60.067 -36.733 58.888 -37.913 L50.207 -46.495 Q48.956 -47.745 47.34 -47.745 Q45.724 -47.745 44.473 -46.495 L35.792 -37.814 Q34.613 -36.634 34.663 -35.123 Q34.712 -33.614 35.962 -32.387 Q37.094 -31.255 38.607 -31.255 Q40.119 -31.255 41.251 -32.387 L43.483 -34.619 Z"/></g><g id="Regular-S" transform="matrix(1 0 0 1 1405.73 696)"><path d="M18.443 -2.092 Q14.991 -2.092 12.92 -4.804 Q10.849 -7.516 11.638 -10.87 L24.656 -62.944 Q25.248 -65.311 27.122 -66.839 Q28.996 -68.368 31.461 -68.368 H63.12 Q65.586 -68.368 67.46 -66.839 Q69.333 -65.311 69.925 -62.944 L82.944 -10.87 Q83.733 -7.516 81.662 -4.804 Q79.59 -2.092 76.139 -2.092 H18.443 Z M43.79 -35.822 V-24.578 Q43.79 -23.099 44.825 -22.064 Q45.861 -21.028 47.34 -21.028 Q48.819 -21.028 49.855 -22.064 Q50.891 -23.099 50.891 -24.578 V-35.822 L54.047 -32.666 Q55.131 -31.581 56.561 -31.63 Q57.992 -31.679 59.076 -32.764 Q60.161 -33.849 60.161 -35.279 Q60.161 -36.709 59.076 -37.794 L49.806 -46.966 Q48.721 -48.051 47.34 -48.051 Q45.959 -48.051 44.874 -46.966 L35.604 -37.696 Q34.519 -36.611 34.568 -35.23 Q34.617 -33.849 35.702 -32.764 Q36.787 -31.679 38.217 -31.679 Q39.647 -31.679 40.732 -32.764 L43.79 -35.822 Z"/></g><g id="Light-S" transform="matrix(1 0 0 1 1109.75 696)"><path d="M19.468 -4.064 Q16.357 -4.064 14.514 -6.493 Q12.669 -8.92 13.421 -11.932 L25.984 -61.578 Q26.538 -63.642 28.203 -65.019 Q29.869 -66.395 32.068 -66.395 H62.475 Q64.675 -66.395 66.34 -65.019 Q68.006 -63.642 68.559 -61.578 L81.16 -11.932 Q81.912 -8.92 80.068 -6.493 Q78.224 -4.064 75.114 -4.064 H19.468 Z M44.738 -37.605 V-24.351 Q44.738 -23.288 45.489 -22.538 Q46.24 -21.786 47.303 -21.786 Q48.364 -21.786 49.115 -22.538 Q49.866 -23.288 49.866 -24.351 V-37.605 L54.729 -32.742 Q55.549 -31.922 56.561 -31.953 Q57.574 -31.983 58.394 -32.802 Q59.251 -33.66 59.251 -34.634 Q59.251 -35.61 58.394 -36.467 L49.502 -45.259 Q48.531 -46.231 47.303 -46.231 Q46.073 -46.231 45.102 -45.259 L36.286 -36.444 Q35.468 -35.624 35.497 -34.661 Q35.528 -33.697 36.385 -32.878 Q37.204 -32.059 38.198 -32.059 Q39.192 -32.059 40.011 -32.878 L44.738 -37.605 Z"/></g><g id="Thin-S" transform="matrix(1 0 0 1 814.015 696)"><path d="M20.491 -6.037 Q17.722 -6.037 16.106 -8.18 Q14.49 -10.323 15.203 -12.994 L27.311 -60.213 Q27.827 -61.972 29.284 -63.198 Q30.74 -64.423 32.675 -64.423 H61.83 Q63.765 -64.423 65.222 -63.198 Q66.678 -61.972 67.194 -60.213 L79.378 -12.994 Q80.091 -10.323 78.475 -8.18 Q76.859 -6.037 74.09 -6.037 H20.491 Z M45.686 -39.387 V-24.123 Q45.686 -23.479 46.153 -23.012 Q46.619 -22.545 47.264 -22.545 Q47.909 -22.545 48.376 -23.012 Q48.842 -23.479 48.842 -24.123 V-39.387 L55.412 -32.818 Q55.966 -32.263 56.561 -32.275 Q57.157 -32.286 57.71 -32.84 Q58.341 -33.47 58.341 -33.989 Q58.341 -34.509 57.71 -35.139 L49.199 -43.552 Q48.341 -44.41 47.264 -44.41 Q46.187 -44.41 45.33 -43.552 L36.97 -35.193 Q36.415 -34.638 36.427 -34.092 Q36.438 -33.545 37.068 -32.992 Q37.621 -32.438 38.18 -32.438 Q38.737 -32.438 39.29 -32.992 L45.686 -39.387 Z"/></g><g id="Ultralight-S" transform="matrix(1 0 0 1 517.792 696)"><path d="M21.106 -7.22 Q18.541 -7.22 17.062 -9.193 Q15.583 -11.165 16.273 -13.631 L28.108 -59.393 Q28.601 -60.971 29.933 -62.105 Q31.264 -63.239 33.039 -63.239 H61.443 Q63.219 -63.239 64.55 -62.105 Q65.882 -60.971 66.375 -59.393 L78.308 -13.631 Q78.999 -11.165 77.519 -9.193 Q76.04 -7.22 73.476 -7.22 H21.106 Z M46.255 -40.457 V-23.987 Q46.255 -23.592 46.551 -23.296 Q46.847 -23 47.241 -23 Q47.636 -23 47.932 -23.296 Q48.228 -23.592 48.228 -23.987 V-40.457 L55.822 -32.863 Q56.216 -32.468 56.561 -32.468 Q56.907 -32.468 57.301 -32.863 Q57.794 -33.356 57.794 -33.603 Q57.794 -33.849 57.301 -34.342 L49.017 -42.528 Q48.228 -43.317 47.241 -43.317 Q46.255 -43.317 45.466 -42.528 L37.379 -34.441 Q36.984 -34.046 36.984 -33.751 Q36.984 -33.455 37.477 -33.06 Q37.872 -32.666 38.168 -32.666 Q38.464 -32.666 38.858 -33.06 L46.255 -40.457 Z"/></g></g></svg>