<svg xmlns="http://www.w3.org/2000/svg" version="1.1" width="3300" height="2000"><g id="Notes"><style>
    text {
      font-family: monospace;
      text-anchor: middle;
    }
    text.emphasis {
      font-weight:bold;
    }
    text.lanchor {
      text-anchor: start;
    }
  </style><rect height="2200" id="artboard" fill="white" width="3300" x="0" y="0"/><line id="" style="fill:none;stroke:black;stroke-width:0.5;" x1="263" x2="3036" y1="292" y2="292"/><text class="lanchor emphasis" transform="matrix(1 0 0 1 263 322)">Weight/Scale Variations</text><text transform="matrix(1 0 0 1 559.711 322)">Ultralight</text><text transform="matrix(1 0 0 1 856.422 322)">Thin</text><text transform="matrix(1 0 0 1 1153.13 322)">Light</text><text transform="matrix(1 0 0 1 1449.84 322)">Regular</text><text transform="matrix(1 0 0 1 1746.56 322)">Medium</text><text transform="matrix(1 0 0 1 2043.27 322)">Semibold</text><text transform="matrix(1 0 0 1 2339.98 322)">Bold</text><text transform="matrix(1 0 0 1 2636.69 322)">Heavy</text><text transform="matrix(1 0 0 1 2933.4 322)">Black</text><text id="template-version" style="text-anchor: end;" transform="matrix(1 0 0 1 3036 1933)">Template v.1.0</text><text class="lanchor" transform="matrix(1 0 0 1 263 726)">Small</text><text class="lanchor" transform="matrix(1 0 0 1 263 1156)">Medium</text><text class="lanchor" transform="matrix(1 0 0 1 263 1586)">Large</text></g><g id="Guides"><g id="H-reference" style="fill:#27AAE1;stroke:none;" transform="matrix(1 0 0 1 339 696)"><path d="M 54.9316 0 L 57.666 0 L 30.5664 -70.459 L 28.0762 -70.459 L 0.976562 0 L 3.66211 0 L 12.9395 -24.4629 L 45.7031 -24.4629 Z M 29.1992 -67.0898 L 29.4434 -67.0898 L 44.8242 -26.709 L 13.8184 -26.709 Z"/></g><line id="Baseline-S" style="fill:none;stroke:#27AAE1;opacity:1;stroke-width:0.577;" x1="263" x2="3036" y1="696" y2="696"/><line id="Capline-S" style="fill:none;stroke:#27AAE1;opacity:1;stroke-width:0.577;" x1="263" x2="3036" y1="625.541" y2="625.541"/><g id="H-reference" style="fill:#27AAE1;stroke:none;" transform="matrix(1 0 0 1 339 1126)"><path d="M 54.9316 0 L 57.666 0 L 30.5664 -70.459 L 28.0762 -70.459 L 0.976562 0 L 3.66211 0 L 12.9395 -24.4629 L 45.7031 -24.4629 Z M 29.1992 -67.0898 L 29.4434 -67.0898 L 44.8242 -26.709 L 13.8184 -26.709 Z"/></g><line id="Baseline-M" style="fill:none;stroke:#27AAE1;opacity:1;stroke-width:0.577;" x1="263" x2="3036" y1="1126" y2="1126"/><line id="Capline-M" style="fill:none;stroke:#27AAE1;opacity:1;stroke-width:0.577;" x1="263" x2="3036" y1="1055.54" y2="1055.54"/><g id="H-reference" style="fill:#27AAE1;stroke:none;" transform="matrix(1 0 0 1 339 1556)"><path d="M 54.9316 0 L 57.666 0 L 30.5664 -70.459 L 28.0762 -70.459 L 0.976562 0 L 3.66211 0 L 12.9395 -24.4629 L 45.7031 -24.4629 Z M 29.1992 -67.0898 L 29.4434 -67.0898 L 44.8242 -26.709 L 13.8184 -26.709 Z"/></g><line id="Baseline-L" style="fill:none;stroke:#27AAE1;opacity:1;stroke-width:0.577;" x1="263" x2="3036" y1="1556" y2="1556"/><line id="Capline-L" style="fill:none;stroke:#27AAE1;opacity:1;stroke-width:0.577;" x1="263" x2="3036" y1="1485.54" y2="1485.54"/><rect height="119.336" id="left-margin" style="fill:darkred;stroke:none;opacity:0.4;" width="12.4512" x="1394.06" y="1030.79"/><rect height="119.336" id="right-margin" style="fill:darkgreen;stroke:none;opacity:0.4;" width="12.4512" x="1502.5112" y="1030.79"/><rect x="1406.5112" y="1045" width="96" height="96" fill="none" stroke="blue" stroke-dasharray="5"/><rect x="1394.06" y="1030.79" width="120.9024" height="119.336" fill="none" stroke="blue"/></g><g id="Symbols"><g id="Bold-L" transform="matrix(1 0 0 1 2266 1556)"><path d="M28.058 26.045 Q20.896 26.045 16.375 20.563 Q11.852 15.08 13.464 7.985 L34.104 -85.056 Q35.196 -90.073 39.255 -93.37 Q43.312 -96.666 48.536 -96.666 H106.103 Q111.391 -96.666 115.386 -93.361 Q119.381 -90.055 120.696 -85.056 L141.416 7.985 Q142.787 15.104 138.317 20.574 Q133.849 26.045 126.823 26.045 H28.058 Z M27.735 11.452 H126.904 Q126.904 11.452 126.904 11.452 Q126.904 11.452 126.904 11.452 L106.219 -81.912 Q106.219 -81.912 106.219 -81.912 Q106.219 -81.912 106.219 -81.912 H48.375 Q48.375 -81.912 48.375 -81.912 Q48.375 -81.912 48.375 -81.912 L27.735 11.452 Q27.735 11.452 27.735 11.452 Q27.735 11.452 27.735 11.452 Z M71.192 -35.875 V-10.962 Q71.192 -8.385 73.025 -6.529 Q74.859 -4.673 77.46 -4.673 Q80.061 -4.673 81.875 -6.529 Q83.689 -8.385 83.689 -10.962 V-35.875 L88.043 -31.521 Q89.655 -29.586 92.046 -29.667 Q94.439 -29.747 96.299 -31.634 Q98.201 -33.58 98.201 -36.057 Q98.201 -38.536 96.347 -40.471 L82.802 -54.016 Q80.472 -56.192 77.363 -56.192 Q74.256 -56.192 72.064 -54.001 L58.548 -40.485 Q56.599 -38.576 56.599 -36.031 Q56.599 -33.485 58.755 -31.294 Q60.546 -29.586 62.855 -29.586 Q65.164 -29.586 66.758 -31.36 L71.192 -35.875 Z"/></g><g id="Semibold-L" transform="matrix(1 0 0 1 1970.27 1556)"><path d="M26.866 24.292 Q20.882 24.292 17.104 19.687 Q13.324 15.08 14.656 9.177 L35.646 -85.126 Q36.599 -89.302 39.99 -92.072 Q43.383 -94.844 47.765 -94.844 H106.944 Q111.317 -94.844 114.689 -92.064 Q118.059 -89.284 119.154 -85.126 L140.225 9.177 Q141.384 15.104 137.64 19.698 Q133.894 24.292 128.015 24.292 H26.866 Z M26.613 12.013 H128.026 Q128.026 12.013 128.026 12.013 Q128.026 12.013 128.026 12.013 L107.014 -82.473 Q107.014 -82.473 107.014 -82.473 Q107.014 -82.473 107.014 -82.473 H47.604 Q47.604 -82.473 47.604 -82.473 Q47.604 -82.473 47.604 -82.473 L26.613 12.013 Q26.613 12.013 26.613 12.013 Q26.613 12.013 26.613 12.013 Z M71.893 -38.539 V-10.752 Q71.893 -8.437 73.503 -6.8 Q75.112 -5.163 77.445 -5.163 Q79.78 -5.163 81.384 -6.8 Q82.987 -8.437 82.987 -10.752 V-38.539 L89.234 -32.292 Q90.742 -30.568 92.906 -30.613 Q95.07 -30.659 96.74 -32.357 Q98.411 -34.051 98.411 -36.259 Q98.411 -38.466 96.768 -40.19 L81.891 -55.067 Q79.961 -56.894 77.389 -56.894 Q74.817 -56.894 72.975 -55.052 L58.127 -40.205 Q56.389 -38.489 56.389 -36.233 Q56.389 -33.977 58.194 -32.136 Q59.846 -30.568 61.965 -30.568 Q64.084 -30.568 65.566 -32.202 L71.893 -38.539 Z"/></g><g id="Medium-L" transform="matrix(1 0 0 1 1674.31 1556)"><path d="M25.973 22.978 Q20.871 22.978 17.65 19.029 Q14.429 15.08 15.549 10.07 L36.804 -85.179 Q37.65 -88.723 40.543 -91.1 Q43.434 -93.477 47.187 -93.477 H107.575 Q111.263 -93.477 114.165 -91.09 Q117.069 -88.705 117.996 -85.179 L139.331 10.07 Q140.333 15.104 137.13 19.04 Q133.929 22.978 128.908 22.978 H25.973 Z M25.773 12.434 H128.866 Q128.866 12.434 128.866 12.434 Q128.866 12.434 128.866 12.434 L107.61 -82.894 Q107.61 -82.894 107.61 -82.894 Q107.61 -82.894 107.61 -82.894 H47.025 Q47.025 -82.894 47.025 -82.894 Q47.025 -82.894 47.025 -82.894 L25.773 12.434 Q25.773 12.434 25.773 12.434 Q25.773 12.434 25.773 12.434 Z M72.419 -40.537 V-10.594 Q72.419 -8.475 73.861 -7.003 Q75.302 -5.533 77.435 -5.533 Q79.57 -5.533 81.015 -7.003 Q82.462 -8.475 82.462 -10.594 V-40.537 L90.127 -32.871 Q91.556 -31.304 93.549 -31.323 Q95.542 -31.342 97.071 -32.898 Q98.569 -34.406 98.569 -36.409 Q98.569 -38.413 97.084 -39.98 L81.207 -55.855 Q79.578 -57.42 77.408 -57.42 Q75.238 -57.42 73.659 -55.841 L57.811 -39.993 Q56.231 -38.423 56.231 -36.383 Q56.231 -34.345 57.773 -32.766 Q59.322 -31.304 61.298 -31.304 Q63.273 -31.304 64.673 -32.832 L72.419 -40.537 Z"/></g><g id="Regular-L" transform="matrix(1 0 0 1 1378.56 1556)"><path d="M25.316 22.014 Q20.863 22.014 18.05 18.547 Q15.238 15.08 16.206 10.726 L37.652 -85.217 Q38.421 -88.299 40.948 -90.387 Q43.473 -92.474 46.763 -92.474 H108.038 Q111.222 -92.474 113.783 -90.377 Q116.342 -88.281 117.148 -85.217 L138.675 10.726 Q139.562 15.104 136.758 18.558 Q133.954 22.014 129.564 22.014 H25.316 Z M25.155 12.742 H129.484 Q129.484 12.742 129.484 12.742 Q129.484 12.742 129.484 12.742 L108.047 -83.202 Q108.047 -83.202 108.047 -83.202 Q108.047 -83.202 108.047 -83.202 H46.601 Q46.601 -83.202 46.601 -83.202 Q46.601 -83.202 46.601 -83.202 L25.155 12.742 Q25.155 12.742 25.155 12.742 Q25.155 12.742 25.155 12.742 Z M72.804 -42.002 V-10.478 Q72.804 -8.503 74.123 -7.153 Q75.441 -5.802 77.429 -5.802 Q79.416 -5.802 80.746 -7.153 Q82.076 -8.503 82.076 -10.478 V-42.002 L90.784 -33.295 Q92.154 -31.844 94.022 -31.844 Q95.891 -31.844 97.314 -33.295 Q98.685 -34.666 98.685 -36.52 Q98.685 -38.374 97.314 -39.826 L80.706 -56.434 Q79.298 -57.805 77.423 -57.805 Q75.546 -57.805 74.16 -56.42 L57.581 -39.84 Q56.115 -38.374 56.115 -36.494 Q56.115 -34.614 57.465 -33.229 Q58.937 -31.844 60.807 -31.844 Q62.678 -31.844 64.016 -33.295 L72.804 -42.002 Z"/></g><g id="Light-L" transform="matrix(1 0 0 1 1082.77 1556)"><path d="M28.014 19.098 Q23.615 19.098 20.883 15.73 Q18.154 12.361 19.121 8.059 L39.419 -82.489 Q40.138 -85.501 42.615 -87.53 Q45.092 -89.558 48.375 -89.558 H106.456 Q109.552 -89.558 112.062 -87.525 Q114.575 -85.49 115.35 -82.489 L135.79 8.059 Q136.646 12.376 133.937 15.736 Q131.228 19.098 126.959 19.098 H28.014 Z M27.791 12.029 H126.817 Q127.747 12.029 128.336 11.284 Q128.926 10.541 128.739 9.61 L108.389 -80.938 Q108.171 -81.62 107.63 -82.054 Q107.086 -82.489 106.404 -82.489 H48.196 Q47.514 -82.489 46.924 -82.054 Q46.335 -81.62 46.211 -80.938 L25.868 9.61 Q25.619 10.541 26.21 11.284 Q26.798 12.029 27.791 12.029 Z M73.859 -43.491 V-11.657 Q73.859 -10.117 74.838 -9.091 Q75.815 -8.066 77.368 -8.066 Q78.919 -8.066 79.924 -9.091 Q80.928 -10.117 80.928 -11.657 V-43.491 L91.613 -32.808 Q92.588 -31.75 94.041 -31.72 Q95.492 -31.689 96.632 -32.831 Q97.661 -33.796 97.661 -35.248 Q97.661 -36.699 96.632 -37.779 L80.581 -53.829 Q79.2 -55.199 77.356 -55.199 Q75.515 -55.199 74.185 -53.808 L58.298 -37.923 Q57.2 -36.823 57.17 -35.348 Q57.139 -33.871 58.177 -32.889 Q59.334 -31.813 60.757 -31.813 Q62.181 -31.813 63.21 -32.953 L73.859 -43.491 Z"/></g><g id="Thin-L" transform="matrix(1 0 0 1 787.282 1556)"><path d="M30.712 16.185 Q26.368 16.185 23.717 12.914 Q21.067 9.644 22.035 5.392 L41.186 -79.759 Q41.856 -82.704 44.284 -84.674 Q46.711 -86.645 49.988 -86.645 H104.874 Q107.879 -86.645 110.343 -84.672 Q112.807 -82.699 113.551 -79.759 L132.907 5.392 Q133.733 9.646 131.119 12.914 Q128.505 16.185 124.354 16.185 H30.712 Z M30.426 11.315 H124.15 Q126.01 11.315 127.189 9.826 Q128.368 8.338 127.995 6.477 L108.729 -78.674 Q108.296 -80.038 107.21 -80.907 Q106.125 -81.775 104.761 -81.775 H49.789 Q48.425 -81.775 47.246 -80.907 Q46.069 -80.038 45.821 -78.674 L26.582 6.477 Q26.085 8.338 27.264 9.826 Q28.441 11.315 30.426 11.315 Z M74.914 -44.979 V-12.836 Q74.914 -11.731 75.552 -11.03 Q76.189 -10.33 77.306 -10.33 Q78.424 -10.33 79.103 -11.03 Q79.782 -11.731 79.782 -12.836 V-44.979 L92.44 -32.321 Q93.022 -31.658 94.059 -31.595 Q95.096 -31.534 95.95 -32.365 Q96.639 -32.929 96.639 -33.977 Q96.639 -35.025 95.95 -35.733 L80.457 -51.224 Q79.101 -52.595 77.292 -52.595 Q75.484 -52.595 74.21 -51.199 L59.017 -36.006 Q58.285 -35.274 58.224 -34.2 Q58.161 -33.126 58.892 -32.547 Q59.73 -31.782 60.707 -31.782 Q61.686 -31.782 62.404 -32.613 L74.914 -44.979 Z"/></g><g id="Ultralight-L" transform="matrix(1 0 0 1 491.205 1556)"><path d="M32.331 14.435 Q28.019 14.435 25.418 11.225 Q22.817 8.014 23.784 3.793 L42.248 -78.122 Q42.886 -81.025 45.284 -82.96 Q47.683 -84.895 50.955 -84.895 H103.926 Q106.878 -84.895 109.311 -82.96 Q111.746 -81.025 112.472 -78.122 L131.177 3.793 Q131.983 8.009 129.427 11.221 Q126.87 14.435 122.792 14.435 H32.331 Z M32.008 10.888 H122.55 Q124.969 10.888 126.501 8.953 Q128.032 7.018 127.549 4.599 L108.934 -77.316 Q108.37 -79.09 106.959 -80.219 Q105.548 -81.347 103.774 -81.347 H50.747 Q48.973 -81.347 47.441 -80.219 Q45.909 -79.09 45.587 -77.316 L27.009 4.599 Q26.364 7.018 27.896 8.953 Q29.428 10.888 32.008 10.888 Z M75.546 -45.872 V-13.542 Q75.546 -12.699 75.979 -12.194 Q76.415 -11.687 77.269 -11.687 Q78.126 -11.687 78.609 -12.194 Q79.093 -12.699 79.093 -13.542 V-45.872 L92.936 -32.029 Q93.283 -31.602 94.07 -31.521 Q94.859 -31.441 95.541 -32.086 Q96.024 -32.408 96.024 -33.214 Q96.024 -34.021 95.541 -34.504 L80.383 -49.662 Q79.042 -51.032 77.253 -51.032 Q75.465 -51.032 74.225 -49.631 L59.448 -34.854 Q58.937 -34.343 58.856 -33.511 Q58.776 -32.679 59.319 -32.342 Q59.969 -31.763 60.678 -31.763 Q61.388 -31.763 61.92 -32.408 L75.546 -45.872 Z"/></g><g id="Bold-M" transform="matrix(1 0 0 1 2281.8 1126)"><path d="M25.688 12.77 Q18.453 12.77 13.883 7.176 Q9.312 1.583 10.938 -5.605 L25.375 -71.355 Q26.573 -76.632 30.63 -79.931 Q34.688 -83.23 40.125 -83.23 H79.688 Q85.094 -83.23 89.172 -79.917 Q93.25 -76.605 94.438 -71.355 L108.938 -5.605 Q110.562 1.601 106.006 7.185 Q101.449 12.77 94.188 12.77 H25.688 Z M25.562 -2.23 H94.25 Q94.25 -2.23 94.25 -2.23 Q94.25 -2.23 94.25 -2.23 L79.82 -68.23 Q79.82 -68.23 79.82 -68.23 Q79.82 -68.23 79.82 -68.23 H40 Q40 -68.23 40 -68.23 Q40 -68.23 40 -68.23 L25.562 -2.23 Q25.562 -2.23 25.562 -2.23 Q25.562 -2.23 25.562 -2.23 Z M53.688 -28.48 V-19.792 Q53.688 -17.23 55.562 -15.355 Q57.438 -13.48 60 -13.48 Q62.562 -13.48 64.438 -15.355 Q66.312 -17.23 66.312 -19.792 V-28.48 L66.562 -28.23 Q68.25 -26.48 70.625 -26.48 Q73 -26.48 75.025 -28.505 Q76.938 -30.417 76.938 -32.98 Q76.938 -35.542 75.062 -37.417 L65.438 -47.042 Q63.102 -49.355 59.989 -49.355 Q56.875 -49.355 54.562 -47.042 L44.938 -37.417 Q43.062 -35.574 43.062 -32.965 Q43.062 -30.355 45.282 -28.167 Q47.05 -26.48 49.369 -26.48 Q51.688 -26.48 53.375 -28.167 L53.688 -28.48 Z"/></g><g id="Semibold-M" transform="matrix(1 0 0 1 1985.97 1126)"><path d="M24.492 10.923 Q18.457 10.923 14.645 6.253 Q10.834 1.583 12.188 -4.41 L27.005 -71.464 Q27.985 -75.872 31.391 -78.627 Q34.796 -81.382 39.31 -81.382 H80.558 Q85.04 -81.382 88.465 -78.614 Q91.891 -75.844 92.861 -71.464 L107.743 -4.41 Q109.095 1.601 105.296 6.261 Q101.499 10.923 95.438 10.923 H24.492 Z M24.421 -1.632 H95.445 Q95.445 -1.632 95.445 -1.632 Q95.445 -1.632 95.445 -1.632 L80.635 -68.827 Q80.635 -68.827 80.635 -68.827 Q80.635 -68.827 80.635 -68.827 H39.239 Q39.239 -68.827 39.239 -68.827 Q39.239 -68.827 39.239 -68.827 L24.421 -1.632 Q24.421 -1.632 24.421 -1.632 Q24.421 -1.632 24.421 -1.632 Z M54.394 -31.251 V-19.575 Q54.394 -17.284 56.051 -15.626 Q57.709 -13.969 60 -13.969 Q62.291 -13.969 63.949 -15.626 Q65.606 -17.284 65.606 -19.575 V-31.251 L67.812 -29.045 Q69.364 -27.459 71.535 -27.459 Q73.706 -27.459 75.476 -29.227 Q77.155 -30.906 77.155 -33.197 Q77.155 -35.489 75.498 -37.146 L64.514 -48.13 Q62.579 -50.061 59.999 -50.061 Q57.419 -50.061 55.486 -48.13 L44.502 -37.146 Q42.845 -35.506 42.845 -33.202 Q42.845 -30.899 44.685 -29.037 Q46.321 -27.459 48.461 -27.459 Q50.6 -27.459 52.18 -29.037 L54.394 -31.251 Z"/></g><g id="Medium-M" transform="matrix(1 0 0 1 1689.91 1126)"><path d="M23.595 9.536 Q18.461 9.536 15.219 5.56 Q11.975 1.583 13.125 -3.512 L28.229 -71.545 Q29.045 -75.301 31.961 -77.649 Q34.877 -79.996 38.699 -79.996 H81.209 Q84.999 -79.996 87.935 -77.635 Q90.873 -75.274 91.679 -71.545 L106.845 -3.512 Q107.995 1.601 104.765 5.569 Q101.535 9.536 96.375 9.536 H23.595 Z M23.565 -1.184 H96.343 Q96.343 -1.184 96.343 -1.184 Q96.343 -1.184 96.343 -1.184 L81.248 -69.276 Q81.248 -69.276 81.248 -69.276 Q81.248 -69.276 81.248 -69.276 H38.669 Q38.669 -69.276 38.669 -69.276 Q38.669 -69.276 38.669 -69.276 L23.565 -1.184 Q23.565 -1.184 23.565 -1.184 Q23.565 -1.184 23.565 -1.184 Z M54.924 -33.33 V-19.412 Q54.924 -17.325 56.419 -15.83 Q57.913 -14.336 60 -14.336 Q62.087 -14.336 63.581 -15.83 Q65.076 -17.325 65.076 -19.412 V-33.33 L68.75 -29.656 Q70.2 -28.192 72.218 -28.192 Q74.236 -28.192 75.814 -29.77 Q77.317 -31.274 77.317 -33.36 Q77.317 -35.447 75.824 -36.942 L63.821 -48.945 Q62.186 -50.591 60.006 -50.591 Q57.826 -50.591 56.179 -48.945 L44.176 -36.942 Q42.682 -35.455 42.682 -33.38 Q42.682 -31.306 44.236 -29.689 Q45.775 -28.192 47.78 -28.192 Q49.785 -28.192 51.282 -29.689 L54.924 -33.33 Z"/></g><g id="Regular-M" transform="matrix(1 0 0 1 1394.06 1126)"><path d="M22.938 8.52 Q18.464 8.52 15.637 5.051 Q12.812 1.583 13.812 -2.855 L29.125 -71.605 Q29.823 -74.882 32.38 -76.931 Q34.938 -78.98 38.25 -78.98 H81.688 Q84.969 -78.98 87.547 -76.917 Q90.125 -74.855 90.812 -71.605 L106.188 -2.855 Q107.188 1.601 104.375 5.06 Q101.562 8.52 97.062 8.52 H22.938 Z M22.938 -0.855 H97 Q97 -0.855 97 -0.855 Q97 -0.855 97 -0.855 L81.695 -69.605 Q81.695 -69.605 81.695 -69.605 Q81.695 -69.605 81.695 -69.605 H38.25 Q38.25 -69.605 38.25 -69.605 Q38.25 -69.605 38.25 -69.605 L22.938 -0.855 Q22.938 -0.855 22.938 -0.855 Q22.938 -0.855 22.938 -0.855 Z M55.312 -34.855 V-19.292 Q55.312 -17.355 56.688 -15.98 Q58.062 -14.605 60 -14.605 Q61.938 -14.605 63.312 -15.98 Q64.688 -17.355 64.688 -19.292 V-34.855 L69.438 -30.105 Q70.812 -28.73 72.719 -28.73 Q74.625 -28.73 76.062 -30.167 Q77.438 -31.542 77.438 -33.48 Q77.438 -35.417 76.062 -36.792 L63.312 -49.542 Q61.898 -50.98 60.011 -50.98 Q58.125 -50.98 56.688 -49.542 L43.938 -36.792 Q42.562 -35.417 42.562 -33.511 Q42.562 -31.605 43.907 -30.167 Q45.375 -28.73 47.281 -28.73 Q49.188 -28.73 50.625 -30.167 L55.312 -34.855 Z"/></g><g id="Light-M" transform="matrix(1 0 0 1 1098.18 1126)"><path d="M24.164 6.26 Q20.05 6.26 17.489 3.109 Q14.928 -0.044 15.88 -4.105 L30.64 -70.019 Q31.299 -72.954 33.625 -74.837 Q35.953 -76.72 38.971 -76.72 H80.942 Q83.911 -76.72 86.261 -74.826 Q88.61 -72.931 89.274 -70.019 L104.144 -4.105 Q105.073 -0.034 102.521 3.114 Q99.97 6.26 95.86 6.26 H24.164 Z M24.115 -0.735 H95.75 Q96.519 -0.735 96.976 -1.311 Q97.433 -1.889 97.24 -2.61 L82.44 -68.524 Q82.32 -69.052 81.876 -69.389 Q81.431 -69.725 80.903 -69.725 H38.971 Q38.443 -69.725 37.985 -69.389 Q37.529 -69.052 37.432 -68.524 L22.625 -2.61 Q22.433 -1.889 22.89 -1.311 Q23.346 -0.735 24.115 -0.735 Z M56.466 -37.355 V-19.196 Q56.466 -17.74 57.481 -16.714 Q58.495 -15.686 59.953 -15.686 Q61.409 -15.686 62.435 -16.714 Q63.461 -17.74 63.461 -19.196 V-37.355 L70.32 -30.496 Q71.341 -29.475 72.766 -29.451 Q74.192 -29.427 75.294 -30.527 Q76.356 -31.59 76.356 -32.999 Q76.356 -34.407 75.294 -35.494 L62.976 -47.811 Q61.686 -49.105 59.965 -49.105 Q58.245 -49.105 56.947 -47.807 L44.735 -35.595 Q43.693 -34.552 43.669 -33.126 Q43.644 -31.701 44.701 -30.624 Q45.807 -29.524 47.209 -29.524 Q48.61 -29.524 49.711 -30.624 L56.466 -37.355 Z"/></g><g id="Thin-M" transform="matrix(1 0 0 1 802.565 1126)"><path d="M25.39 4.001 Q21.636 4.001 19.34 1.165 Q17.044 -1.67 17.948 -5.355 L32.154 -68.432 Q32.774 -71.026 34.87 -72.744 Q36.966 -74.461 39.693 -74.461 H80.198 Q82.854 -74.461 84.975 -72.735 Q87.096 -71.009 87.735 -68.432 L102.101 -5.355 Q102.956 -1.667 100.668 1.166 Q98.379 4.001 94.659 4.001 H25.39 Z M25.294 -0.615 H94.5 Q96.039 -0.615 96.953 -1.769 Q97.865 -2.922 97.481 -4.365 L83.186 -67.441 Q82.945 -68.499 82.056 -69.172 Q81.166 -69.845 80.109 -69.845 H39.693 Q38.635 -69.845 37.721 -69.172 Q36.807 -68.499 36.615 -67.441 L22.312 -4.365 Q21.927 -2.922 22.841 -1.769 Q23.755 -0.615 25.294 -0.615 Z M57.62 -39.855 V-19.1 Q57.62 -18.124 58.274 -17.446 Q58.928 -16.769 59.904 -16.769 Q60.88 -16.769 61.557 -17.446 Q62.235 -18.124 62.235 -19.1 V-39.855 L71.203 -30.889 Q71.87 -30.22 72.815 -30.172 Q73.76 -30.124 74.524 -30.889 Q75.274 -31.639 75.274 -32.519 Q75.274 -33.399 74.524 -34.196 L62.64 -46.081 Q61.474 -47.23 59.92 -47.23 Q58.365 -47.23 57.208 -46.072 L45.532 -34.397 Q44.822 -33.686 44.774 -32.742 Q44.726 -31.797 45.494 -31.081 Q46.24 -30.316 47.138 -30.316 Q48.034 -30.316 48.797 -31.081 L57.62 -39.855 Z"/></g><g id="Ultralight-M" transform="matrix(1 0 0 1 506.415 1126)"><path d="M26.125 2.645 Q22.589 2.645 20.45 0 Q18.312 -2.645 19.188 -6.105 L33.062 -67.48 Q33.659 -69.869 35.617 -71.487 Q37.575 -73.105 40.125 -73.105 H79.75 Q82.219 -73.105 84.204 -71.48 Q86.188 -69.855 86.812 -67.48 L100.875 -6.105 Q101.688 -2.649 99.555 -0.002 Q97.422 2.645 93.938 2.645 H26.125 Z M26 -0.542 H93.75 Q95.75 -0.542 96.938 -2.042 Q98.125 -3.542 97.625 -5.417 L83.632 -66.792 Q83.32 -68.167 82.164 -69.042 Q81.007 -69.917 79.632 -69.917 H40.125 Q38.75 -69.917 37.562 -69.042 Q36.375 -68.167 36.125 -66.792 L22.125 -5.417 Q21.625 -3.542 22.812 -2.042 Q24 -0.542 26 -0.542 Z M58.312 -41.355 V-19.042 Q58.312 -18.355 58.75 -17.886 Q59.188 -17.417 59.875 -17.417 Q60.562 -17.417 61.031 -17.886 Q61.5 -18.355 61.5 -19.042 V-41.355 L71.731 -31.124 Q72.188 -30.667 72.844 -30.605 Q73.5 -30.542 74.062 -31.105 Q74.625 -31.667 74.625 -32.23 Q74.625 -32.792 74.062 -33.417 L62.438 -45.042 Q61.346 -46.105 59.892 -46.105 Q58.438 -46.105 57.364 -45.031 L46.011 -33.679 Q45.5 -33.167 45.438 -32.511 Q45.375 -31.855 45.97 -31.355 Q46.5 -30.792 47.094 -30.792 Q47.688 -30.792 48.25 -31.355 L58.312 -41.355 Z"/></g><g id="Bold-S" transform="matrix(1 0 0 1 2294.23 696)"><path d="M20.958 0.275 Q15.545 0.275 12.235 -3.941 Q8.926 -8.157 10.208 -13.434 L22.388 -62.155 Q23.333 -65.924 26.263 -68.33 Q29.193 -70.735 33.138 -70.735 H61.247 Q65.265 -70.735 68.187 -68.319 Q71.109 -65.902 72.046 -62.155 L84.275 -13.434 Q85.557 -8.143 82.258 -3.934 Q78.958 0.275 73.525 0.275 H20.958 Z M20.958 -10.771 H73.574 Q73.574 -10.771 73.574 -10.771 Q73.574 -10.771 73.574 -10.771 L61.4 -59.689 Q61.4 -59.689 61.4 -59.689 Q61.4 -59.689 61.4 -59.689 H33.138 Q33.138 -59.689 33.138 -59.689 Q33.138 -59.689 33.138 -59.689 L20.958 -10.771 Q20.958 -10.771 20.958 -10.771 Q20.958 -10.771 20.958 -10.771 Z M42.754 -29.806 V-24.226 Q42.754 -22.375 44.114 -21.011 Q45.474 -19.647 47.319 -19.647 Q49.165 -19.647 50.545 -21.011 Q51.926 -22.375 51.926 -24.226 V-29.806 L51.729 -30.003 Q53.06 -28.622 54.754 -28.622 Q56.446 -28.622 57.913 -30.121 Q59.422 -31.63 59.422 -33.405 Q59.422 -35.181 57.942 -36.66 L51.321 -43.282 Q49.591 -44.994 47.313 -44.994 Q45.036 -44.994 43.346 -43.268 L36.738 -36.66 Q35.258 -35.205 35.308 -33.394 Q35.357 -31.581 37.061 -29.954 Q38.405 -28.721 40.051 -28.721 Q41.698 -28.721 42.896 -29.926 L42.754 -29.806 Z"/></g><g id="Semibold-S" transform="matrix(1 0 0 1 1998.1 696)"><path d="M20.015 -1.183 Q15.549 -1.183 12.837 -4.67 Q10.126 -8.157 11.194 -12.491 L23.674 -62.24 Q24.447 -65.324 26.863 -67.301 Q29.279 -69.277 32.495 -69.277 H61.933 Q65.223 -69.277 67.629 -67.29 Q70.037 -65.302 70.802 -62.24 L83.332 -12.491 Q84.399 -8.143 81.698 -4.663 Q78.998 -1.183 74.511 -1.183 H20.015 Z M20.057 -10.3 H74.517 Q74.517 -10.3 74.517 -10.3 Q74.517 -10.3 74.517 -10.3 L62.043 -60.16 Q62.043 -60.16 62.043 -60.16 Q62.043 -60.16 62.043 -60.16 H32.537 Q32.537 -60.16 32.537 -60.16 Q32.537 -60.16 32.537 -60.16 L20.057 -10.3 Q20.057 -10.3 20.057 -10.3 Q20.057 -10.3 20.057 -10.3 Z M43.311 -31.992 V-24.055 Q43.311 -22.418 44.5 -21.225 Q45.688 -20.033 47.319 -20.033 Q48.951 -20.033 50.16 -21.225 Q51.369 -22.418 51.369 -24.055 V-31.992 L52.715 -30.646 Q53.939 -29.394 55.472 -29.394 Q57.004 -29.394 58.269 -30.691 Q59.593 -32.016 59.593 -33.577 Q59.593 -35.138 58.285 -36.446 L50.592 -44.139 Q49.177 -45.551 47.321 -45.551 Q45.464 -45.551 44.075 -44.126 L36.395 -36.446 Q35.087 -35.152 35.136 -33.581 Q35.185 -32.01 36.59 -30.64 Q37.83 -29.493 39.335 -29.493 Q40.84 -29.493 41.952 -30.612 L43.311 -31.992 Z"/></g><g id="Medium-S" transform="matrix(1 0 0 1 1701.85 696)"><path d="M19.307 -2.276 Q15.552 -2.276 13.29 -5.216 Q11.026 -8.157 11.934 -11.783 L24.639 -62.305 Q25.284 -64.874 27.313 -66.529 Q29.343 -68.184 32.013 -68.184 H62.447 Q65.19 -68.184 67.211 -66.518 Q69.233 -64.852 69.869 -62.305 L82.624 -11.783 Q83.531 -8.143 81.279 -5.21 Q79.026 -2.276 75.251 -2.276 H19.307 Z M19.382 -9.946 H75.225 Q75.225 -9.946 75.225 -9.946 Q75.225 -9.946 75.225 -9.946 L62.526 -60.514 Q62.526 -60.514 62.526 -60.514 Q62.526 -60.514 62.526 -60.514 H32.088 Q32.088 -60.514 32.088 -60.514 Q32.088 -60.514 32.088 -60.514 L19.382 -9.946 Q19.382 -9.946 19.382 -9.946 Q19.382 -9.946 19.382 -9.946 Z M43.729 -33.632 V-23.926 Q43.729 -22.45 44.79 -21.386 Q45.849 -20.323 47.319 -20.323 Q48.79 -20.323 49.87 -21.386 Q50.951 -22.45 50.951 -23.926 V-33.632 L53.455 -31.128 Q54.599 -29.973 56.01 -29.973 Q57.421 -29.973 58.535 -31.119 Q59.721 -32.306 59.721 -33.705 Q59.721 -35.106 58.543 -36.285 L50.045 -44.783 Q48.868 -45.969 47.327 -45.969 Q45.786 -45.969 44.621 -44.769 L36.137 -36.285 Q34.959 -35.112 35.008 -33.721 Q35.057 -32.331 36.236 -31.154 Q37.399 -30.072 38.798 -30.072 Q40.197 -30.072 41.245 -31.127 L43.729 -33.632 Z"/></g><g id="Regular-S" transform="matrix(1 0 0 1 1405.73 696)"><path d="M18.788 -3.078 Q15.554 -3.078 13.62 -5.618 Q11.687 -8.157 12.476 -11.264 L25.347 -62.352 Q25.897 -64.543 27.644 -65.963 Q29.39 -67.382 31.659 -67.382 H62.825 Q65.166 -67.382 66.905 -65.952 Q68.643 -64.522 69.185 -62.352 L82.105 -11.264 Q82.894 -8.143 80.971 -5.611 Q79.048 -3.078 75.793 -3.078 H18.788 Z M18.887 -9.686 H75.744 Q75.744 -9.686 75.744 -9.686 Q75.744 -9.686 75.744 -9.686 L62.879 -60.774 Q62.879 -60.774 62.879 -60.774 Q62.879 -60.774 62.879 -60.774 H31.757 Q31.757 -60.774 31.757 -60.774 Q31.757 -60.774 31.757 -60.774 L18.887 -9.686 Q18.887 -9.686 18.887 -9.686 Q18.887 -9.686 18.887 -9.686 Z M44.036 -34.835 V-23.832 Q44.036 -22.474 45.002 -21.504 Q45.967 -20.535 47.319 -20.535 Q48.671 -20.535 49.658 -21.504 Q50.644 -22.474 50.644 -23.832 V-34.835 L53.997 -31.482 Q55.082 -30.397 56.406 -30.397 Q57.728 -30.397 58.731 -31.433 Q59.816 -32.518 59.816 -33.8 Q59.816 -35.082 58.731 -36.167 L49.644 -45.254 Q48.64 -46.276 47.331 -46.276 Q46.022 -46.276 45.022 -45.24 L35.949 -36.167 Q34.864 -35.082 34.913 -33.825 Q34.963 -32.567 35.976 -31.532 Q37.083 -30.496 38.404 -30.496 Q39.725 -30.496 40.726 -31.504 L44.036 -34.835 Z"/></g><g id="Light-S" transform="matrix(1 0 0 1 1109.75 696)"><path d="M19.756 -4.861 Q16.806 -4.861 15.081 -7.15 Q13.356 -9.441 14.107 -12.25 L26.542 -61.1 Q27.062 -63.022 28.626 -64.311 Q30.191 -65.599 32.228 -65.599 H62.236 Q64.332 -65.599 65.89 -64.302 Q67.448 -63.004 67.971 -61.1 L80.493 -12.25 Q81.226 -9.433 79.509 -7.147 Q77.791 -4.861 74.845 -4.861 H19.756 Z M19.816 -9.591 H74.758 Q75.364 -9.591 75.725 -10.046 Q76.085 -10.502 75.933 -11.071 L63.467 -59.921 Q63.372 -60.338 63.022 -60.603 Q62.671 -60.869 62.254 -60.869 H32.326 Q31.909 -60.869 31.548 -60.603 Q31.188 -60.338 31.112 -59.921 L18.64 -11.071 Q18.488 -10.502 18.849 -10.046 Q19.209 -9.591 19.816 -9.591 Z M44.946 -36.808 V-23.756 Q44.946 -22.778 45.628 -22.083 Q46.308 -21.388 47.281 -21.388 Q48.254 -21.388 48.965 -22.083 Q49.676 -22.778 49.676 -23.756 V-36.808 L54.693 -31.791 Q55.499 -30.985 56.443 -30.966 Q57.387 -30.948 58.125 -31.717 Q58.963 -32.555 58.963 -33.42 Q58.963 -34.285 58.125 -35.142 L49.379 -43.888 Q48.473 -44.797 47.295 -44.797 Q46.117 -44.797 45.227 -43.872 L36.578 -35.222 Q35.756 -34.4 35.786 -33.521 Q35.816 -32.643 36.603 -31.892 Q37.424 -31.122 38.347 -31.122 Q39.27 -31.122 40.005 -31.865 L44.946 -36.808 Z"/></g><g id="Thin-S" transform="matrix(1 0 0 1 814.015 696)"><path d="M20.723 -6.644 Q18.057 -6.644 16.541 -8.684 Q15.026 -10.724 15.739 -13.237 L27.736 -59.849 Q28.225 -61.501 29.608 -62.659 Q30.991 -63.816 32.797 -63.816 H61.649 Q63.498 -63.816 64.876 -62.652 Q66.253 -61.487 66.757 -59.849 L78.881 -13.237 Q79.556 -10.722 78.046 -8.683 Q76.536 -6.644 73.897 -6.644 H20.723 Z M20.746 -9.497 H73.772 Q74.986 -9.497 75.707 -10.407 Q76.426 -11.317 76.124 -12.456 L64.056 -59.067 Q63.866 -59.901 63.164 -60.433 Q62.462 -60.963 61.628 -60.963 H32.895 Q32.061 -60.963 31.34 -60.433 Q30.619 -59.901 30.467 -59.067 L18.394 -12.456 Q18.09 -11.317 18.811 -10.407 Q19.532 -9.497 20.746 -9.497 Z M45.857 -38.78 V-23.68 Q45.857 -23.08 46.253 -22.661 Q46.65 -22.242 47.243 -22.242 Q47.837 -22.242 48.273 -22.661 Q48.709 -23.08 48.709 -23.68 V-38.78 L55.39 -32.101 Q55.916 -31.573 56.482 -31.536 Q57.046 -31.497 57.517 -32.002 Q58.109 -32.594 58.109 -33.042 Q58.109 -33.489 57.517 -34.118 L49.113 -42.523 Q48.306 -43.317 47.258 -43.317 Q46.212 -43.317 45.433 -42.503 L37.207 -34.277 Q36.647 -33.716 36.658 -33.218 Q36.67 -32.719 37.228 -32.253 Q37.765 -31.748 38.29 -31.748 Q38.815 -31.748 39.284 -32.225 L45.857 -38.78 Z"/></g><g id="Ultralight-S" transform="matrix(1 0 0 1 517.792 696)"><path d="M21.303 -7.714 Q18.809 -7.714 17.417 -9.603 Q16.027 -11.493 16.717 -13.828 L28.453 -59.097 Q28.924 -60.587 30.198 -61.667 Q31.471 -62.746 33.138 -62.746 H61.296 Q62.997 -62.746 64.267 -61.661 Q65.536 -60.577 66.029 -59.097 L77.914 -13.828 Q78.555 -11.496 77.168 -9.605 Q75.781 -7.714 73.328 -7.714 H21.303 Z M21.303 -9.44 H73.18 Q74.758 -9.44 75.695 -10.623 Q76.632 -11.807 76.237 -13.286 L64.408 -58.555 Q64.161 -59.64 63.249 -60.33 Q62.337 -61.02 61.252 -61.02 H33.237 Q32.152 -61.02 31.215 -60.33 Q30.278 -59.64 30.081 -58.555 L18.246 -13.286 Q17.851 -11.807 18.788 -10.623 Q19.725 -9.44 21.303 -9.44 Z M46.403 -39.964 V-23.635 Q46.403 -23.263 46.629 -23.008 Q46.855 -22.754 47.221 -22.754 Q47.587 -22.754 47.858 -23.008 Q48.129 -23.263 48.129 -23.635 V-39.964 L55.807 -32.286 Q56.167 -31.926 56.504 -31.877 Q56.841 -31.827 57.153 -32.173 Q57.597 -32.616 57.597 -32.814 Q57.597 -33.011 57.153 -33.504 L48.954 -41.704 Q48.205 -42.43 47.236 -42.43 Q46.269 -42.43 45.556 -41.681 L37.585 -33.71 Q37.182 -33.307 37.182 -33.036 Q37.182 -32.764 37.604 -32.468 Q37.971 -32.123 38.256 -32.123 Q38.542 -32.123 38.852 -32.441 L46.403 -39.964 Z"/></g></g></svg>