<svg xmlns="http://www.w3.org/2000/svg" version="1.1" width="3300" height="2000"><g id="Notes"><style>
    text {
      font-family: monospace;
      text-anchor: middle;
    }
    text.emphasis {
      font-weight:bold;
    }
    text.lanchor {
      text-anchor: start;
    }
  </style><rect height="2200" id="artboard" fill="white" width="3300" x="0" y="0"/><line id="" style="fill:none;stroke:black;stroke-width:0.5;" x1="263" x2="3036" y1="292" y2="292"/><text class="lanchor emphasis" transform="matrix(1 0 0 1 263 322)">Weight/Scale Variations</text><text transform="matrix(1 0 0 1 559.711 322)">Ultralight</text><text transform="matrix(1 0 0 1 856.422 322)">Thin</text><text transform="matrix(1 0 0 1 1153.13 322)">Light</text><text transform="matrix(1 0 0 1 1449.84 322)">Regular</text><text transform="matrix(1 0 0 1 1746.56 322)">Medium</text><text transform="matrix(1 0 0 1 2043.27 322)">Semibold</text><text transform="matrix(1 0 0 1 2339.98 322)">Bold</text><text transform="matrix(1 0 0 1 2636.69 322)">Heavy</text><text transform="matrix(1 0 0 1 2933.4 322)">Black</text><text id="template-version" style="text-anchor: end;" transform="matrix(1 0 0 1 3036 1933)">Template v.1.0</text><text class="lanchor" transform="matrix(1 0 0 1 263 726)">Small</text><text class="lanchor" transform="matrix(1 0 0 1 263 1156)">Medium</text><text class="lanchor" transform="matrix(1 0 0 1 263 1586)">Large</text></g><g id="Guides"><g id="H-reference" style="fill:#27AAE1;stroke:none;" transform="matrix(1 0 0 1 339 696)"><path d="M 54.9316 0 L 57.666 0 L 30.5664 -70.459 L 28.0762 -70.459 L 0.976562 0 L 3.66211 0 L 12.9395 -24.4629 L 45.7031 -24.4629 Z M 29.1992 -67.0898 L 29.4434 -67.0898 L 44.8242 -26.709 L 13.8184 -26.709 Z"/></g><line id="Baseline-S" style="fill:none;stroke:#27AAE1;opacity:1;stroke-width:0.577;" x1="263" x2="3036" y1="696" y2="696"/><line id="Capline-S" style="fill:none;stroke:#27AAE1;opacity:1;stroke-width:0.577;" x1="263" x2="3036" y1="625.541" y2="625.541"/><g id="H-reference" style="fill:#27AAE1;stroke:none;" transform="matrix(1 0 0 1 339 1126)"><path d="M 54.9316 0 L 57.666 0 L 30.5664 -70.459 L 28.0762 -70.459 L 0.976562 0 L 3.66211 0 L 12.9395 -24.4629 L 45.7031 -24.4629 Z M 29.1992 -67.0898 L 29.4434 -67.0898 L 44.8242 -26.709 L 13.8184 -26.709 Z"/></g><line id="Baseline-M" style="fill:none;stroke:#27AAE1;opacity:1;stroke-width:0.577;" x1="263" x2="3036" y1="1126" y2="1126"/><line id="Capline-M" style="fill:none;stroke:#27AAE1;opacity:1;stroke-width:0.577;" x1="263" x2="3036" y1="1055.54" y2="1055.54"/><g id="H-reference" style="fill:#27AAE1;stroke:none;" transform="matrix(1 0 0 1 339 1556)"><path d="M 54.9316 0 L 57.666 0 L 30.5664 -70.459 L 28.0762 -70.459 L 0.976562 0 L 3.66211 0 L 12.9395 -24.4629 L 45.7031 -24.4629 Z M 29.1992 -67.0898 L 29.4434 -67.0898 L 44.8242 -26.709 L 13.8184 -26.709 Z"/></g><line id="Baseline-L" style="fill:none;stroke:#27AAE1;opacity:1;stroke-width:0.577;" x1="263" x2="3036" y1="1556" y2="1556"/><line id="Capline-L" style="fill:none;stroke:#27AAE1;opacity:1;stroke-width:0.577;" x1="263" x2="3036" y1="1485.54" y2="1485.54"/><rect height="119.336" id="left-margin" style="fill:darkred;stroke:none;opacity:0.4;" width="12.4512" x="1394.06" y="1030.79"/><rect height="119.336" id="right-margin" style="fill:darkgreen;stroke:none;opacity:0.4;" width="12.4512" x="1502.5112" y="1030.79"/><rect x="1406.5112" y="1045" width="96" height="96" fill="none" stroke="blue" stroke-dasharray="5"/><rect x="1394.06" y="1030.79" width="120.9024" height="119.336" fill="none" stroke="blue"/></g><g id="Symbols"><g id="Bold-L" transform="matrix(1 0 0 1 2266 1556)"><path d="M27.735 26.206 Q20.64 26.206 16.125 20.724 Q11.61 15.241 13.223 8.308 L34.024 -85.379 Q34.991 -90.377 39.103 -93.602 Q43.215 -96.827 48.375 -96.827 H106.264 Q111.585 -96.827 115.616 -93.602 Q119.648 -90.377 120.776 -85.379 L141.578 8.308 Q143.029 15.241 138.514 20.724 Q133.999 26.206 127.065 26.206 H27.735 Z M71.273 -37.649 V-11.365 Q71.273 -8.785 73.046 -7.011 Q74.82 -5.237 77.4 -5.237 Q79.98 -5.237 81.834 -7.011 Q83.689 -8.785 83.689 -11.365 V-37.649 L88.526 -32.811 Q90.3 -30.876 92.719 -30.957 Q95.138 -31.037 96.75 -32.972 Q98.524 -34.585 98.524 -37.165 Q98.524 -39.745 96.75 -41.68 L82.721 -55.547 Q80.625 -57.644 77.4 -57.644 Q74.175 -57.644 72.24 -55.547 L58.05 -41.68 Q56.276 -39.745 56.276 -37.246 Q56.276 -34.746 58.373 -32.65 Q60.146 -30.715 62.323 -30.715 Q64.5 -30.715 66.274 -32.65 L71.273 -37.649 Z"/></g><g id="Semibold-L" transform="matrix(1 0 0 1 1970.27 1556)"><path d="M26.543 25.856 Q20.079 25.856 15.949 20.829 Q11.82 15.802 13.292 9.499 L34.514 -85.94 Q35.481 -90.518 39.208 -93.462 Q42.934 -96.407 47.674 -96.407 H107.035 Q111.866 -96.407 115.547 -93.462 Q119.227 -90.518 120.286 -85.94 L141.508 9.499 Q142.888 15.802 138.759 20.829 Q134.629 25.856 128.257 25.856 H26.543 Z M71.413 -38.21 V-11.434 Q71.413 -8.925 73.151 -7.187 Q74.889 -5.447 77.4 -5.447 Q79.911 -5.447 81.73 -7.187 Q83.548 -8.925 83.548 -11.434 V-38.21 L88.736 -33.021 Q90.44 -31.157 92.788 -31.202 Q95.138 -31.247 96.819 -33.182 Q98.593 -34.795 98.593 -37.305 Q98.593 -39.814 96.819 -41.68 L82.231 -56.178 Q80.275 -58.134 77.4 -58.134 Q74.525 -58.134 72.73 -56.178 L57.981 -41.68 Q56.207 -39.814 56.207 -37.35 Q56.207 -34.887 58.303 -32.86 Q60.006 -31.065 62.183 -31.065 Q64.36 -31.065 66.064 -32.86 L71.413 -38.21 Z"/></g><g id="Medium-L" transform="matrix(1 0 0 1 1674.31 1556)"><path d="M25.65 25.594 Q19.658 25.594 15.819 20.908 Q11.978 16.223 13.345 10.392 L34.883 -86.361 Q35.851 -90.623 39.287 -93.357 Q42.725 -96.091 47.148 -96.091 H107.613 Q112.075 -96.091 115.494 -93.357 Q118.911 -90.623 119.917 -86.361 L141.455 10.392 Q142.784 16.223 138.943 20.908 Q135.103 25.594 129.15 25.594 H25.65 Z M71.518 -38.631 V-11.488 Q71.518 -9.03 73.23 -7.318 Q74.943 -5.605 77.4 -5.605 Q79.857 -5.605 81.651 -7.318 Q83.444 -9.03 83.444 -11.488 V-38.631 L88.894 -33.179 Q90.545 -31.366 92.841 -31.386 Q95.138 -31.405 96.873 -33.34 Q98.646 -34.953 98.646 -37.41 Q98.646 -39.868 96.873 -41.68 L81.862 -56.652 Q80.012 -58.503 77.4 -58.503 Q74.788 -58.503 73.099 -56.652 L57.927 -41.68 Q56.154 -39.868 56.154 -37.429 Q56.154 -34.991 58.25 -33.018 Q59.901 -31.328 62.078 -31.328 Q64.255 -31.328 65.906 -33.018 L71.518 -38.631 Z"/></g><g id="Regular-L" transform="matrix(1 0 0 1 1378.56 1556)"><path d="M24.994 25.4 Q19.35 25.4 15.722 20.966 Q12.094 16.531 13.384 11.049 L35.153 -86.669 Q36.12 -90.7 39.345 -93.28 Q42.57 -95.86 46.763 -95.86 H108.038 Q112.23 -95.86 115.455 -93.28 Q118.68 -90.7 119.648 -86.669 L141.416 11.049 Q142.706 16.531 139.078 20.966 Q135.45 25.4 129.806 25.4 H24.994 Z M71.595 -38.939 V-11.526 Q71.595 -9.107 73.288 -7.414 Q74.981 -5.721 77.4 -5.721 Q79.819 -5.721 81.593 -7.414 Q83.366 -9.107 83.366 -11.526 V-38.939 L89.01 -33.295 Q90.623 -31.521 92.88 -31.521 Q95.138 -31.521 96.911 -33.456 Q98.685 -35.069 98.685 -37.487 Q98.685 -39.906 96.911 -41.68 L81.593 -56.999 Q79.819 -58.772 77.4 -58.772 Q74.981 -58.772 73.369 -56.999 L57.889 -41.68 Q56.115 -39.906 56.115 -37.487 Q56.115 -35.069 58.211 -33.134 Q59.824 -31.521 62.001 -31.521 Q64.177 -31.521 65.79 -33.134 L71.595 -38.939 Z"/></g><g id="Light-L" transform="matrix(1 0 0 1 1082.77 1556)"><path d="M27.785 22.175 Q22.265 22.175 18.761 17.895 Q15.257 13.616 16.547 8.258 L37.137 -83.753 Q38.042 -87.66 41.175 -90.149 Q44.307 -92.635 48.438 -92.635 H106.362 Q110.432 -92.635 113.564 -90.149 Q116.695 -87.66 117.601 -83.753 L138.253 8.258 Q139.543 13.616 136.039 17.895 Q132.535 22.175 127.078 22.175 H27.785 Z M72.711 -40.117 V-12.457 Q72.711 -10.535 74.064 -9.182 Q75.415 -7.83 77.339 -7.83 Q79.261 -7.83 80.693 -9.182 Q82.126 -10.535 82.126 -12.457 V-40.117 L89.816 -32.426 Q91.056 -31.025 92.849 -30.994 Q94.641 -30.963 96.105 -32.587 Q97.569 -33.829 97.569 -35.781 Q97.569 -37.736 96.105 -39.137 L81.407 -53.835 Q79.695 -55.609 77.339 -55.609 Q74.981 -55.609 73.43 -53.835 L58.695 -39.261 Q57.294 -37.86 57.263 -35.906 Q57.231 -33.953 59.017 -32.389 Q60.32 -31.087 62.001 -31.087 Q63.681 -31.087 64.984 -32.389 L72.711 -40.117 Z"/></g><g id="Thin-L" transform="matrix(1 0 0 1 787.282 1556)"><path d="M30.576 18.95 Q25.179 18.95 21.799 14.825 Q18.42 10.702 19.71 5.466 L39.122 -80.84 Q39.966 -84.622 43.004 -87.015 Q46.043 -89.41 50.112 -89.41 H104.688 Q108.633 -89.41 111.672 -87.015 Q114.71 -84.622 115.555 -80.84 L135.09 5.466 Q136.38 10.702 133.001 14.825 Q129.621 18.95 124.348 18.95 H30.576 Z M73.828 -41.296 V-13.387 Q73.828 -11.96 74.839 -10.949 Q75.849 -9.938 77.276 -9.938 Q78.703 -9.938 79.795 -10.949 Q80.886 -11.96 80.886 -13.387 V-41.296 L90.623 -31.558 Q91.49 -30.53 92.819 -30.467 Q94.146 -30.405 95.299 -31.72 Q96.452 -32.589 96.452 -34.077 Q96.452 -35.565 95.299 -36.594 L81.22 -50.673 Q79.57 -52.447 77.276 -52.447 Q74.981 -52.447 73.493 -50.673 L59.501 -36.842 Q58.472 -35.814 58.41 -34.324 Q58.348 -32.835 59.824 -31.645 Q60.815 -30.654 62.001 -30.654 Q63.186 -30.654 64.177 -31.645 L73.828 -41.296 Z"/></g><g id="Ultralight-L" transform="matrix(1 0 0 1 491.205 1556)"><path d="M32.25 17.015 Q26.929 17.015 23.623 12.984 Q20.317 8.953 21.608 3.793 L40.312 -79.09 Q41.119 -82.799 44.102 -85.137 Q47.085 -87.475 51.116 -87.475 H103.684 Q107.554 -87.475 110.537 -85.137 Q113.52 -82.799 114.326 -79.09 L133.192 3.793 Q134.483 8.953 131.177 12.984 Q127.871 17.015 122.711 17.015 H32.25 Z M74.498 -42.002 V-13.945 Q74.498 -12.816 75.304 -12.01 Q76.11 -11.204 77.239 -11.204 Q78.368 -11.204 79.254 -12.01 Q80.141 -12.816 80.141 -13.945 V-42.002 L91.106 -31.037 Q91.751 -30.231 92.799 -30.151 Q93.847 -30.07 94.815 -31.199 Q95.782 -31.844 95.782 -33.053 Q95.782 -34.262 94.815 -35.069 L81.109 -48.775 Q79.496 -50.549 77.239 -50.549 Q74.981 -50.549 73.53 -48.775 L59.985 -35.391 Q59.179 -34.585 59.098 -33.376 Q59.017 -32.166 60.308 -31.199 Q61.114 -30.392 62.001 -30.392 Q62.888 -30.392 63.694 -31.199 L74.498 -42.002 Z"/></g><g id="Bold-M" transform="matrix(1 0 0 1 2281.8 1126)"><path d="M25.25 15.52 Q17.125 15.52 12 9.208 Q6.875 2.895 8.625 -5.105 L23.375 -72.73 Q24.625 -78.605 29.25 -82.292 Q33.875 -85.98 40 -85.98 H79.875 Q86 -85.98 90.625 -82.292 Q95.25 -78.605 96.5 -72.73 L111.25 -5.105 Q113 2.895 107.875 9.208 Q102.75 15.52 94.625 15.52 H25.25 Z M52.75 -27.355 V-20.98 Q52.75 -17.98 54.875 -15.855 Q57 -13.73 60 -13.73 Q63 -13.73 65.125 -15.855 Q67.25 -17.98 67.25 -20.98 V-27.355 L65.5 -29.105 Q67.5 -27.23 70.188 -27.23 Q72.875 -27.23 75.125 -29.605 Q77.125 -31.605 77.125 -34.605 Q77.125 -37.605 75.125 -39.73 L66 -48.73 Q63.5 -51.23 60 -51.23 Q56.5 -51.23 54 -48.73 L44.875 -39.73 Q42.875 -37.605 42.875 -34.605 Q42.875 -31.605 45.375 -29.105 Q47.25 -27.105 49.875 -27.105 Q52.5 -27.105 54.375 -29.105 L52.75 -27.355 Z"/></g><g id="Semibold-M" transform="matrix(1 0 0 1 1985.97 1126)"><path d="M24.055 14.759 Q16.69 14.759 12.054 9.045 Q7.419 3.33 9.005 -3.91 L24.19 -73.219 Q25.331 -78.551 29.521 -81.885 Q33.712 -85.219 39.239 -85.219 H80.69 Q86.218 -85.219 90.407 -81.885 Q94.597 -78.551 95.739 -73.219 L110.924 -3.91 Q112.511 3.33 107.875 9.045 Q103.239 14.759 95.875 14.759 H24.055 Z M53.021 -28.496 V-20.98 Q53.021 -18.089 55.065 -16.045 Q57.109 -14.001 60 -14.001 Q62.891 -14.001 64.935 -16.045 Q66.979 -18.089 66.979 -20.98 V-28.496 L65.989 -29.485 Q67.88 -27.665 70.486 -27.665 Q73.093 -27.665 75.287 -29.931 Q77.234 -31.876 77.234 -34.767 Q77.234 -37.659 75.287 -39.676 L65.403 -49.491 Q63.12 -51.774 60 -51.774 Q56.88 -51.774 54.597 -49.491 L44.712 -39.676 Q42.766 -37.659 42.766 -34.767 Q42.766 -31.876 45.157 -29.485 Q46.979 -27.594 49.549 -27.594 Q52.12 -27.594 53.94 -29.485 L53.021 -28.496 Z"/></g><g id="Medium-M" transform="matrix(1 0 0 1 1689.91 1126)"><path d="M23.157 14.189 Q16.364 14.189 12.095 8.923 Q7.826 3.656 9.291 -3.012 L24.801 -73.586 Q25.861 -78.51 29.725 -81.579 Q33.59 -84.649 38.669 -84.649 H81.301 Q86.38 -84.649 90.245 -81.579 Q94.109 -78.51 95.169 -73.586 L110.679 -3.012 Q112.144 3.656 107.875 8.923 Q103.606 14.189 96.812 14.189 H23.157 Z M53.225 -29.352 V-20.98 Q53.225 -18.17 55.208 -16.187 Q57.19 -14.205 60 -14.205 Q62.81 -14.205 64.793 -16.187 Q66.775 -18.17 66.775 -20.98 V-29.352 L66.356 -29.771 Q68.166 -27.991 70.71 -27.991 Q73.255 -27.991 75.41 -30.176 Q77.315 -32.08 77.315 -34.89 Q77.315 -37.7 75.41 -39.635 L64.954 -50.061 Q62.834 -52.181 60 -52.181 Q57.166 -52.181 55.046 -50.061 L44.59 -39.635 Q42.685 -37.7 42.685 -34.89 Q42.685 -32.08 44.995 -29.771 Q46.775 -27.961 49.304 -27.961 Q51.834 -27.961 53.614 -29.771 L53.225 -29.352 Z"/></g><g id="Regular-M" transform="matrix(1 0 0 1 1394.06 1126)"><path d="M22.5 13.77 Q16.125 13.77 12.125 8.833 Q8.125 3.895 9.5 -2.355 L25.25 -73.855 Q26.25 -78.48 29.875 -81.355 Q33.5 -84.23 38.25 -84.23 H81.75 Q86.5 -84.23 90.125 -81.355 Q93.75 -78.48 94.75 -73.855 L110.5 -2.355 Q111.875 3.895 107.875 8.833 Q103.875 13.77 97.5 13.77 H22.5 Z M53.375 -29.98 V-20.98 Q53.375 -18.23 55.312 -16.292 Q57.25 -14.355 60 -14.355 Q62.75 -14.355 64.688 -16.292 Q66.625 -18.23 66.625 -20.98 V-29.98 Q68.375 -28.23 70.875 -28.23 Q73.375 -28.23 75.5 -30.355 Q77.375 -32.23 77.375 -34.98 Q77.375 -37.73 75.5 -39.605 L64.625 -50.48 Q62.625 -52.48 60 -52.48 Q57.375 -52.48 55.375 -50.48 L44.5 -39.605 Q42.625 -37.73 42.625 -34.98 Q42.625 -32.23 44.875 -29.98 Q46.625 -28.23 49.125 -28.23 Q51.625 -28.23 53.375 -29.98 Z"/></g><g id="Light-M" transform="matrix(1 0 0 1 1098.18 1126)"><path d="M23.799 11.27 Q17.856 11.27 14.145 6.693 Q10.432 2.116 11.76 -3.701 L26.933 -72.124 Q27.885 -76.365 31.245 -79.047 Q34.606 -81.73 39.019 -81.73 H80.933 Q85.346 -81.73 88.706 -79.047 Q92.067 -76.365 93.019 -72.124 L108.24 -3.701 Q109.567 2.116 105.855 6.693 Q102.144 11.27 96.201 11.27 H23.799 Z M54.578 -32.24 V-20.691 Q54.578 -18.47 56.154 -16.894 Q57.731 -15.316 59.953 -15.316 Q62.172 -15.316 63.75 -16.894 Q65.326 -18.47 65.326 -20.691 V-32.24 L67.49 -30.076 Q68.904 -28.662 70.875 -28.639 Q72.846 -28.615 74.635 -30.402 Q76.221 -31.99 76.221 -34.162 Q76.221 -36.336 74.635 -37.922 L64.24 -48.316 Q62.385 -50.172 59.953 -50.172 Q57.519 -50.172 55.664 -48.316 L45.365 -38.019 Q43.828 -36.48 43.803 -34.259 Q43.779 -32.037 45.74 -30.124 Q47.154 -28.711 49.101 -28.711 Q51.047 -28.711 52.461 -30.124 L54.578 -32.24 Z"/></g><g id="Thin-M" transform="matrix(1 0 0 1 802.565 1126)"><path d="M25.096 8.77 Q19.586 8.77 16.164 4.554 Q12.74 0.338 14.019 -5.047 L28.615 -70.394 Q29.519 -74.249 32.615 -76.74 Q35.711 -79.23 39.789 -79.23 H80.115 Q84.192 -79.23 87.289 -76.74 Q90.385 -74.249 91.289 -70.394 L105.981 -5.047 Q107.26 0.338 103.836 4.554 Q100.414 8.77 94.904 8.77 H25.096 Z M55.779 -34.499 V-20.402 Q55.779 -18.711 56.995 -17.495 Q58.211 -16.277 59.904 -16.277 Q61.596 -16.277 62.812 -17.495 Q64.029 -18.711 64.029 -20.402 V-34.499 L68.356 -30.172 Q69.433 -29.095 70.875 -29.047 Q72.317 -28.999 73.769 -30.451 Q75.067 -31.749 75.067 -33.345 Q75.067 -34.941 73.769 -36.24 L63.856 -46.152 Q62.144 -47.865 59.904 -47.865 Q57.664 -47.865 55.953 -46.152 L46.231 -36.432 Q45.029 -35.23 44.981 -33.537 Q44.932 -31.845 46.606 -30.269 Q47.682 -29.191 49.078 -29.191 Q50.471 -29.191 51.547 -30.269 L55.779 -34.499 Z"/></g><g id="Ultralight-M" transform="matrix(1 0 0 1 506.415 1126)"><path d="M25.875 7.27 Q20.625 7.27 17.375 3.27 Q14.125 -0.73 15.375 -5.855 L29.625 -69.355 Q30.5 -72.98 33.438 -75.355 Q36.375 -77.73 40.25 -77.73 H79.625 Q83.5 -77.73 86.438 -75.355 Q89.375 -72.98 90.25 -69.355 L104.625 -5.855 Q105.875 -0.73 102.625 3.27 Q99.375 7.27 94.125 7.27 H25.875 Z M56.5 -35.855 V-20.23 Q56.5 -18.855 57.5 -17.855 Q58.5 -16.855 59.875 -16.855 Q61.25 -16.855 62.25 -17.855 Q63.25 -18.855 63.25 -20.23 V-35.855 L68.875 -30.23 Q69.75 -29.355 70.875 -29.292 Q72 -29.23 73.25 -30.48 Q74.375 -31.605 74.375 -32.855 Q74.375 -34.105 73.25 -35.23 L63.625 -44.855 Q62 -46.48 59.875 -46.48 Q57.75 -46.48 56.125 -44.855 L46.75 -35.48 Q45.75 -34.48 45.688 -33.105 Q45.625 -31.73 47.125 -30.355 Q48 -29.48 49.062 -29.48 Q50.125 -29.48 51 -30.355 L56.5 -35.855 Z"/></g><g id="Bold-S" transform="matrix(1 0 0 1 2294.23 696)"><path d="M20.613 2.445 Q14.498 2.445 10.75 -2.339 Q7.002 -7.122 8.383 -13.039 L20.81 -63.239 Q21.796 -67.48 25.149 -70.193 Q28.503 -72.905 33.039 -72.905 H61.443 Q65.98 -72.905 69.333 -70.193 Q72.687 -67.48 73.673 -63.239 L86.1 -13.039 Q87.48 -7.122 83.733 -2.339 Q79.985 2.445 73.87 2.445 H20.613 Z M42.014 -28.918 V-25.17 Q42.014 -23 43.592 -21.422 Q45.17 -19.844 47.34 -19.844 Q49.51 -19.844 51.088 -21.422 Q52.666 -23 52.666 -25.17 V-28.918 L50.891 -30.693 Q52.468 -29.214 54.392 -29.263 Q56.315 -29.312 57.992 -31.088 Q59.57 -32.666 59.57 -34.786 Q59.57 -36.907 57.992 -38.583 L51.778 -44.599 Q49.904 -46.473 47.34 -46.473 Q44.776 -46.473 42.902 -44.599 L36.689 -38.485 Q35.111 -36.808 35.16 -34.688 Q35.209 -32.567 37.182 -30.693 Q38.562 -29.214 40.436 -29.214 Q42.31 -29.214 43.691 -30.693 L42.014 -28.918 Z"/></g><g id="Semibold-S" transform="matrix(1 0 0 1 1998.1 696)"><path d="M19.67 1.844 Q14.155 1.844 10.793 -2.467 Q7.431 -6.779 8.683 -12.097 L21.453 -63.625 Q22.353 -67.438 25.363 -69.871 Q28.374 -72.304 32.439 -72.304 H62.086 Q66.152 -72.304 69.162 -69.871 Q72.172 -67.438 73.072 -63.625 L85.842 -12.097 Q87.095 -6.779 83.733 -2.467 Q80.37 1.844 74.856 1.844 H19.67 Z M42.228 -29.818 V-25.17 Q42.228 -23.086 43.742 -21.572 Q45.256 -20.059 47.34 -20.059 Q49.424 -20.059 50.938 -21.572 Q52.452 -23.086 52.452 -25.17 V-29.818 L51.276 -30.993 Q52.768 -29.557 54.627 -29.606 Q56.486 -29.656 58.12 -31.345 Q59.655 -32.88 59.655 -34.914 Q59.655 -36.949 58.12 -38.541 L51.307 -45.2 Q49.604 -46.902 47.34 -46.902 Q45.076 -46.902 43.373 -45.2 L36.56 -38.442 Q35.025 -36.85 35.074 -34.816 Q35.123 -32.781 37.01 -30.993 Q38.348 -29.599 40.179 -29.599 Q42.01 -29.599 43.348 -30.993 L42.228 -29.818 Z"/></g><g id="Medium-S" transform="matrix(1 0 0 1 1701.85 696)"><path d="M18.962 1.394 Q13.897 1.394 10.825 -2.563 Q7.753 -6.521 8.909 -11.388 L21.935 -63.915 Q22.772 -67.405 25.524 -69.629 Q28.278 -71.854 31.989 -71.854 H62.569 Q66.28 -71.854 69.034 -69.629 Q71.786 -67.405 72.623 -63.915 L85.649 -11.388 Q86.805 -6.521 83.733 -2.563 Q80.66 1.394 75.596 1.394 H18.962 Z M42.389 -30.494 V-25.17 Q42.389 -23.15 43.855 -21.685 Q45.32 -20.219 47.34 -20.219 Q49.36 -20.219 50.825 -21.685 Q52.291 -23.15 52.291 -25.17 V-30.494 L51.566 -31.219 Q52.994 -29.815 54.804 -29.864 Q56.615 -29.913 58.216 -31.538 Q59.719 -33.041 59.719 -35.011 Q59.719 -36.982 58.216 -38.508 L50.953 -45.65 Q49.379 -47.224 47.34 -47.224 Q45.301 -47.224 43.727 -45.65 L36.464 -38.41 Q34.961 -36.883 35.01 -34.912 Q35.059 -32.942 36.882 -31.219 Q38.188 -29.889 39.986 -29.889 Q41.784 -29.889 43.09 -31.219 L42.389 -30.494 Z"/></g><g id="Regular-S" transform="matrix(1 0 0 1 1405.73 696)"><path d="M18.443 1.064 Q13.709 1.064 10.849 -2.634 Q7.989 -6.333 9.074 -10.87 L22.289 -64.127 Q23.078 -67.382 25.643 -69.453 Q28.207 -71.524 31.659 -71.524 H62.923 Q66.375 -71.524 68.939 -69.453 Q71.503 -67.382 72.292 -64.127 L85.508 -10.87 Q86.593 -6.333 83.733 -2.634 Q80.873 1.064 76.139 1.064 H18.443 Z M42.507 -30.989 V-25.17 Q42.507 -23.198 43.937 -21.768 Q45.367 -20.338 47.34 -20.338 Q49.312 -20.338 50.743 -21.768 Q52.173 -23.198 52.173 -25.17 V-30.989 L51.778 -31.384 Q53.159 -30.003 54.934 -30.052 Q56.709 -30.101 58.287 -31.679 Q59.767 -33.159 59.767 -35.082 Q59.767 -37.005 58.287 -38.485 L50.693 -45.98 Q49.214 -47.459 47.34 -47.459 Q45.466 -47.459 43.987 -45.98 L36.393 -38.386 Q34.913 -36.907 34.963 -34.983 Q35.012 -33.06 36.787 -31.384 Q38.069 -30.101 39.845 -30.101 Q41.62 -30.101 42.902 -31.384 L42.507 -30.989 Z"/></g><g id="Light-S" transform="matrix(1 0 0 1 1109.75 696)"><path d="M19.468 -0.908 Q15.075 -0.908 12.443 -4.323 Q9.809 -7.736 10.857 -11.932 L23.617 -62.761 Q24.368 -65.713 26.723 -67.632 Q29.08 -69.551 32.265 -69.551 H62.278 Q65.464 -69.551 67.819 -67.632 Q70.176 -65.713 70.926 -62.761 L83.725 -11.932 Q84.772 -7.736 82.139 -4.323 Q79.507 -0.908 75.114 -0.908 H19.468 Z M43.456 -32.772 V-24.942 Q43.456 -23.387 44.601 -22.242 Q45.747 -21.096 47.303 -21.096 Q48.857 -21.096 50.003 -22.242 Q51.148 -23.387 51.148 -24.942 V-32.772 L52.461 -31.46 Q53.576 -30.344 54.934 -30.375 Q56.292 -30.405 57.605 -31.717 Q58.856 -32.97 58.856 -34.437 Q58.856 -35.906 57.605 -37.157 L50.389 -44.273 Q49.025 -45.639 47.303 -45.639 Q45.58 -45.639 44.215 -44.273 L37.075 -37.134 Q35.862 -35.92 35.892 -34.414 Q35.922 -32.908 37.47 -31.497 Q38.486 -30.481 39.826 -30.481 Q41.164 -30.481 42.181 -31.497 L43.456 -32.772 Z"/></g><g id="Thin-S" transform="matrix(1 0 0 1 814.015 696)"><path d="M20.491 -2.881 Q16.44 -2.881 14.035 -6.01 Q11.63 -9.14 12.639 -12.994 L24.944 -61.396 Q25.657 -64.043 27.804 -65.812 Q29.951 -67.579 32.873 -67.579 H61.633 Q64.554 -67.579 66.701 -65.812 Q68.848 -64.043 69.561 -61.396 L81.943 -12.994 Q82.952 -9.14 80.546 -6.01 Q78.142 -2.881 74.09 -2.881 H20.491 Z M44.404 -34.554 V-24.715 Q44.404 -23.577 45.265 -22.716 Q46.126 -21.854 47.264 -21.854 Q48.402 -21.854 49.263 -22.716 Q50.124 -23.577 50.124 -24.715 V-34.554 L53.144 -31.536 Q53.993 -30.685 54.934 -30.697 Q55.875 -30.708 56.921 -31.755 Q57.946 -32.779 57.946 -33.792 Q57.946 -34.805 56.921 -35.83 L50.087 -42.566 Q48.834 -43.818 47.264 -43.818 Q45.694 -43.818 44.442 -42.566 L37.759 -35.883 Q36.81 -34.934 36.822 -33.845 Q36.832 -32.756 38.153 -31.611 Q38.904 -30.86 39.807 -30.86 Q40.709 -30.86 41.46 -31.611 L44.404 -34.554 Z"/></g><g id="Ultralight-S" transform="matrix(1 0 0 1 517.792 696)"><path d="M21.106 -4.064 Q17.259 -4.064 14.991 -7.023 Q12.723 -9.982 13.709 -13.631 L25.741 -60.577 Q26.431 -63.042 28.453 -64.719 Q30.475 -66.395 33.237 -66.395 H61.246 Q64.008 -66.395 66.029 -64.719 Q68.051 -63.042 68.742 -60.577 L80.873 -13.631 Q81.859 -9.982 79.59 -7.023 Q77.322 -4.064 73.476 -4.064 H21.106 Z M44.973 -35.624 V-24.578 Q44.973 -23.691 45.663 -23 Q46.354 -22.31 47.241 -22.31 Q48.129 -22.31 48.819 -23 Q49.51 -23.691 49.51 -24.578 V-35.624 L53.553 -31.581 Q54.244 -30.89 54.934 -30.89 Q55.625 -30.89 56.512 -31.778 Q57.4 -32.666 57.4 -33.405 Q57.4 -34.145 56.512 -35.033 L49.904 -41.542 Q48.721 -42.725 47.241 -42.725 Q45.762 -42.725 44.579 -41.542 L38.168 -35.131 Q37.379 -34.342 37.379 -33.504 Q37.379 -32.666 38.562 -31.679 Q39.154 -31.088 39.795 -31.088 Q40.436 -31.088 41.028 -31.679 L44.973 -35.624 Z"/></g></g></svg>