<svg xmlns="http://www.w3.org/2000/svg" height="40" viewBox="0 -960 960 960" width="40"><path d="M480-127.33 376.17-222.5Q289-301.83 232.83-358.75q-56.16-56.92-88.75-102.42-32.58-45.5-45-84.41-12.41-38.92-12.41-81.92 0-89.67 60.33-150.75t148.33-61.08q55.17 0 102.59 25.16Q445.33-789 480-741.33q38.83-49.34 85-73.67t99.67-24.33q86.16 0 148.83 63.16 62.67 63.17 59.33 159h-64Q814-680 772.25-728t-107.58-48q-49.34 0-91.59 29.5t-66.25 82h-54q-23.5-51.83-66-81.67-42.5-29.83-91.5-29.83-63 0-104.16 42.17Q150-691.67 150-627.5q0 35.83 13 70t49 79.83q36 45.67 100.67 109Q377.33-305.33 480-211.33L546.83-273q55.5-52 109.75-104.5t101.09-113H663v-63.33h210.33v209.33H810v-109.67q-50.83 63.84-108.25 120.42T584-222.33l-104 95Z"/></svg>