<svg xmlns="http://www.w3.org/2000/svg" height="40" viewBox="0 -960 960 960" width="40"><path d="m480-144-75-70q-92.33-84-149.67-145.5Q198-421 166-468.17q-32-47.16-43.67-85.16-11.66-38-11.66-77.67 0-77.33 53.83-131.83 53.83-54.5 132.17-54.5 51 0 98 28T480-708q39.67-54 86-81.67 46.33-27.66 97.33-27.66 72.67 0 129.34 49.5 56.66 49.5 58.66 128.16h-43q-2.33-62-47.83-99.16Q715-776 663.33-776q-44.66 0-88.83 28t-62.17 80.67h-64.66q-20-53-62.17-80.84Q343.33-776 296.67-776q-64.34 0-104.5 41.67Q152-692.67 152-631q0 37 13.67 73.67 13.66 36.66 50.33 84.83t100.33 113.17Q380-294.33 480-200l71.33-68.67q66.67-63.66 118.84-121Q722.33-447 778.33-522.33H662v-41.34h188.33v187.34H809v-120.34Q752.67-416 695.5-354.33q-57.17 61.66-129.17 128.66L480-144Z"/></svg>