<svg xmlns="http://www.w3.org/2000/svg" height="40" viewBox="0 -960 960 960" width="40"><path d="m480-172-82.67-75.33q-77-70.34-128.16-123.5Q218-424 187.5-467.17q-30.5-43.16-43-79.66T132-620.67q0-70.33 48.17-118.83Q228.33-788 298-788q53.67 0 100 29.5t82 86.5q37-57.67 82.67-86.83Q608.33-788 662-788q67.33 0 116 46t51 114h-26q-2.33-63-47.17-99.5Q711-764 662-764q-48.67 0-90.17 28.17Q530.33-707.67 494-646h-28.67q-36.66-62-77.66-90T298-764q-60.33 0-101.17 41Q156-682 156-620.67q0 34.67 13.67 70.17 13.66 35.5 49.66 82.33 36 46.84 99 109.84T480-204l74-68.67q65-59.66 122.5-120.16T784-528H658v-24h171v170h-24v-134.67Q755-439 694.17-375.83 633.33-312.67 565.33-250L480-172Z"/></svg>