<svg xmlns="http://www.w3.org/2000/svg" height="20" viewBox="0 -960 960 960" width="20"><path d="m480-177.5-70.5-64q-78-70-128.5-123t-78.25-96q-27.75-43-38.75-78T153-607q0-64 45-110.25t108.5-46.25q50.5 0 95.5 27.5t78 81q33.5-53.5 76.75-81t92.75-27.5q69 0 116.75 51.75T809.5-592h-17q6-56.5-33-105.25T649.5-746q-53 0-87.25 28.25T493.5-637H467q-38-54.5-69.75-81.75T306.5-746q-59.5 0-97.75 40.5T170.5-607q0 32.5 12.5 66.75t46.75 79.75Q264-415 324-353t156 152l68-64.5Q613.5-327 663.75-382T762-505H658.5v-17.5H808V-373h-17.5l1-141Q744-438.5 688.75-378T567-257.5l-87 80Z"/></svg>