<svg xmlns="http://www.w3.org/2000/svg" version="1.1" width="3300" height="2000"><g id="Notes"><style>
    text {
      font-family: monospace;
      text-anchor: middle;
    }
    text.emphasis {
      font-weight:bold;
    }
    text.lanchor {
      text-anchor: start;
    }
  </style><rect height="2200" id="artboard" fill="white" width="3300" x="0" y="0"/><line id="" style="fill:none;stroke:black;stroke-width:0.5;" x1="263" x2="3036" y1="292" y2="292"/><text class="lanchor emphasis" transform="matrix(1 0 0 1 263 322)">Weight/Scale Variations</text><text transform="matrix(1 0 0 1 559.711 322)">Ultralight</text><text transform="matrix(1 0 0 1 856.422 322)">Thin</text><text transform="matrix(1 0 0 1 1153.13 322)">Light</text><text transform="matrix(1 0 0 1 1449.84 322)">Regular</text><text transform="matrix(1 0 0 1 1746.56 322)">Medium</text><text transform="matrix(1 0 0 1 2043.27 322)">Semibold</text><text transform="matrix(1 0 0 1 2339.98 322)">Bold</text><text transform="matrix(1 0 0 1 2636.69 322)">Heavy</text><text transform="matrix(1 0 0 1 2933.4 322)">Black</text><text id="template-version" style="text-anchor: end;" transform="matrix(1 0 0 1 3036 1933)">Template v.1.0</text><text class="lanchor" transform="matrix(1 0 0 1 263 726)">Small</text><text class="lanchor" transform="matrix(1 0 0 1 263 1156)">Medium</text><text class="lanchor" transform="matrix(1 0 0 1 263 1586)">Large</text></g><g id="Guides"><g id="H-reference" style="fill:#27AAE1;stroke:none;" transform="matrix(1 0 0 1 339 696)"><path d="M 54.9316 0 L 57.666 0 L 30.5664 -70.459 L 28.0762 -70.459 L 0.976562 0 L 3.66211 0 L 12.9395 -24.4629 L 45.7031 -24.4629 Z M 29.1992 -67.0898 L 29.4434 -67.0898 L 44.8242 -26.709 L 13.8184 -26.709 Z"/></g><line id="Baseline-S" style="fill:none;stroke:#27AAE1;opacity:1;stroke-width:0.577;" x1="263" x2="3036" y1="696" y2="696"/><line id="Capline-S" style="fill:none;stroke:#27AAE1;opacity:1;stroke-width:0.577;" x1="263" x2="3036" y1="625.541" y2="625.541"/><g id="H-reference" style="fill:#27AAE1;stroke:none;" transform="matrix(1 0 0 1 339 1126)"><path d="M 54.9316 0 L 57.666 0 L 30.5664 -70.459 L 28.0762 -70.459 L 0.976562 0 L 3.66211 0 L 12.9395 -24.4629 L 45.7031 -24.4629 Z M 29.1992 -67.0898 L 29.4434 -67.0898 L 44.8242 -26.709 L 13.8184 -26.709 Z"/></g><line id="Baseline-M" style="fill:none;stroke:#27AAE1;opacity:1;stroke-width:0.577;" x1="263" x2="3036" y1="1126" y2="1126"/><line id="Capline-M" style="fill:none;stroke:#27AAE1;opacity:1;stroke-width:0.577;" x1="263" x2="3036" y1="1055.54" y2="1055.54"/><g id="H-reference" style="fill:#27AAE1;stroke:none;" transform="matrix(1 0 0 1 339 1556)"><path d="M 54.9316 0 L 57.666 0 L 30.5664 -70.459 L 28.0762 -70.459 L 0.976562 0 L 3.66211 0 L 12.9395 -24.4629 L 45.7031 -24.4629 Z M 29.1992 -67.0898 L 29.4434 -67.0898 L 44.8242 -26.709 L 13.8184 -26.709 Z"/></g><line id="Baseline-L" style="fill:none;stroke:#27AAE1;opacity:1;stroke-width:0.577;" x1="263" x2="3036" y1="1556" y2="1556"/><line id="Capline-L" style="fill:none;stroke:#27AAE1;opacity:1;stroke-width:0.577;" x1="263" x2="3036" y1="1485.54" y2="1485.54"/><rect height="119.336" id="left-margin" style="fill:darkred;stroke:none;opacity:0.4;" width="12.4512" x="1394.06" y="1030.79"/><rect height="119.336" id="right-margin" style="fill:darkgreen;stroke:none;opacity:0.4;" width="12.4512" x="1502.5112" y="1030.79"/><rect x="1406.5112" y="1045" width="96" height="96" fill="none" stroke="blue" stroke-dasharray="5"/><rect x="1394.06" y="1030.79" width="120.9024" height="119.336" fill="none" stroke="blue"/></g><g id="Symbols"><g id="Bold-L" transform="matrix(1 0 0 1 2266 1556)"><path d="M105.78 -19.589  94.815 -30.392  130.129 -65.706  112.23 -83.766  76.916 -48.614  66.274 -59.417  112.714 -106.019  152.381 -66.19  105.78 -19.589 Z M53.374 11.049  80.141 -15.719  62.081 -33.779  35.314 -7.011  53.374 11.049 Z M130.29 34.753  90.784 -4.754  58.695 27.335 H47.891 L39.345 18.95 L31.121 27.013 H6.128 L26.768 6.534 L19.027 -1.367 V-12.171 L51.278 -44.421 L7.418 -88.12 L15.48 -96.182 L138.352 26.69 L130.29 34.753 Z"/></g><g id="Semibold-L" transform="matrix(1 0 0 1 1970.27 1556)"><path d="M104.377 -21.061  95.165 -30.112  130.338 -65.285  112.161 -83.557  76.986 -48.473  68.027 -57.595  112.644 -102.304  149.087 -65.769  104.377 -21.061 Z M53.443 11.61  81.052 -15.999  62.783 -34.269  35.173 -6.661  53.443 11.61 Z M130.92 34.122  90.013 -6.787  57.924 25.302 H48.802 L41.027 17.618 L33.364 25.19 H8.37 L28.449 5.202 L21.411 -1.929 V-10.98 L53.661 -43.23 L8.048 -88.75 L15.549 -96.252 L138.422 26.621 L130.92 34.122 Z"/></g><g id="Medium-L" transform="matrix(1 0 0 1 1674.31 1556)"><path d="M103.326 -22.166  95.428 -29.902  130.496 -64.969  112.107 -83.399  77.039 -48.369  69.341 -56.228  112.591 -99.516  146.615 -65.453  103.326 -22.166 Z M53.496 12.031  81.736 -16.209  63.308 -34.638  35.069 -6.398  53.496 12.031 Z M131.395 33.648  89.434 -8.313  57.345 23.776 H49.486 L42.289 16.618 L35.048 23.823 H10.054 L29.712 4.202 L23.199 -2.35 V-10.086 L55.449 -42.336 L8.522 -89.225 L15.603 -96.305 L138.475 26.567 L131.395 33.648 Z"/></g><g id="Regular-L" transform="matrix(1 0 0 1 1378.56 1556)"><path d="M102.555 -22.975  95.621 -29.747  130.613 -64.739  112.069 -83.282  77.078 -48.291  70.305 -55.225  112.553 -97.472  144.803 -65.222  102.555 -22.975 Z M53.535 12.339  82.237 -16.364  63.694 -34.907  34.991 -6.205  53.535 12.339 Z M131.741 33.301  89.01 -9.43  56.921 22.659 H49.988 L43.215 15.886 L36.281 22.82 H11.287 L30.637 3.47 L24.51 -2.657 V-9.43 L56.76 -41.68 L8.869 -89.571 L15.641 -96.344 L138.514 26.529 L131.741 33.301 Z"/></g><g id="Light-L" transform="matrix(1 0 0 1 1082.77 1556)"><path d="M101.128 -25.952  95.87 -31.05  129.185 -64.429  111.138 -82.476  77.76 -49.16  72.6 -54.419  111.498 -93.254  139.965 -64.789  101.128 -25.952 Z M53.038 11.657  83.353 -18.597  65.306 -36.705  34.991 -6.39  53.038 11.657 Z M130.563 28.649  88.513 -13.337  56.3 18.813 H49.678 L43.4 12.537 L35.599 20.338 H15.815 L33.429 2.725 L27.735 -3.03 V-9.491 L60.048 -41.804 L13.521 -88.393 L18.618 -93.491 L135.661 23.552 L130.563 28.649 Z"/></g><g id="Thin-L" transform="matrix(1 0 0 1 787.282 1556)"><path d="M99.702 -28.928  96.118 -32.352  127.76 -64.118  110.208 -81.67  78.442 -50.028  74.894 -53.612  110.443 -89.038  135.127 -64.355  99.702 -28.928 Z M52.543 10.975  84.471 -20.829  66.919 -38.505  34.991 -6.577  52.543 10.975 Z M129.384 23.999  88.018 -17.244  55.681 14.969 H49.367 L43.587 9.188 L34.917 17.858 H20.342 L36.22 1.982 L30.96 -3.402 V-9.554 L63.334 -41.928 L18.171 -87.214 L21.595 -90.639 L132.809 20.575 L129.384 23.999 Z"/></g><g id="Ultralight-L" transform="matrix(1 0 0 1 491.205 1556)"><path d="M98.846 -30.715  96.266 -33.134  126.904 -63.932  109.65 -81.186  78.851 -50.549  76.271 -53.129  109.811 -86.507  132.225 -64.094  98.846 -30.715 Z M52.245 10.565  85.14 -22.169  67.886 -39.584  34.991 -6.689  52.245 10.565 Z M128.678 21.208  87.72 -19.589  55.309 12.661 H49.181 L43.699 7.179 L34.508 16.37 H23.059 L37.894 1.535 L32.895 -3.625 V-9.591 L65.306 -42.002 L20.963 -86.507 L23.381 -88.926 L131.096 18.789 L128.678 21.208 Z"/></g><g id="Bold-M" transform="matrix(1 0 0 1 2281.8 1126)"><path d="M86.25 -22.73  75.125 -33.98  99.5 -58.23  87.125 -70.73  62.875 -46.48  51.875 -57.73  87.125 -92.98  121.75 -58.23  86.25 -22.73 Z M42.75 -1.605  59.75 -18.605  47.375 -30.98  30.375 -13.98  42.75 -1.605 Z M97.5 19.27  70.875 -7.355  48.375 15.145 H37.25 L31.75 9.645 L27.125 14.145 H2.125 L19.25 -2.855 L13.75 -8.355 V-19.605 L36.25 -42.105 L5.5 -72.73 L13.875 -81.105 L105.875 10.895 L97.5 19.27 Z"/></g><g id="Semibold-M" transform="matrix(1 0 0 1 1985.97 1126)"><path d="M84.838 -24.251  75.505 -33.709  99.718 -57.795  87.071 -70.512  62.929 -46.371  53.669 -55.827  87.071 -89.176  118.381 -57.795  84.838 -24.251 Z M42.859 -1.007  60.729 -18.876  48.081 -31.524  30.212 -13.654  42.859 -1.007 Z M98.153 18.618  70.06 -9.475  47.56 13.025 H38.229 L33.489 8.286 L29.461 12.243 H4.461 L20.989 -4.214 L16.25 -8.952 V-18.355 L38.75 -40.855 L6.152 -73.382 L13.984 -81.214 L105.984 10.786 L98.153 18.618 Z"/></g><g id="Medium-M" transform="matrix(1 0 0 1 1689.91 1126)"><path d="M83.778 -25.392  75.791 -33.505  99.88 -57.469  87.03 -70.35  62.97 -46.29  55.014 -54.401  87.03 -86.322  115.854 -57.469  83.778 -25.392 Z M42.94 -0.559  61.462 -19.08  48.611 -31.931  30.09 -13.409  42.94 -0.559 Z M98.641 18.129  69.449 -11.064  46.949 11.436 H38.962 L34.794 7.268 L31.215 10.816 H6.215 L22.294 -5.232 L18.125 -9.401 V-17.417 L40.625 -39.917 L6.641 -73.871 L14.065 -81.295 L106.065 10.705 L98.641 18.129 Z"/></g><g id="Regular-M" transform="matrix(1 0 0 1 1394.06 1126)"><path d="M83 -26.23  76 -33.355  100 -57.23  87 -70.23  63 -46.23  56 -53.355  87 -84.23  114 -57.23  83 -26.23 Z M43 -0.23  62 -19.23  49 -32.23  30 -13.23  43 -0.23 Z M99 17.77  69 -12.23  46.5 10.27 H39.5 L35.75 6.52 L32.5 9.77 H7.5 L23.25 -5.98 L19.5 -9.73 V-16.73 L42 -39.23 L7 -74.23 L14.125 -81.355 L106.125 10.645 L99 17.77 Z"/></g><g id="Light-M" transform="matrix(1 0 0 1 1098.18 1126)"><path d="M80.933 -28.394  75.664 -33.74  99.231 -57.23  86.231 -70.23  62.664 -46.662  57.394 -52.009  86.231 -80.769  109.769 -57.23  80.933 -28.394 Z M42.231 -0.23  63.346 -21.345  50.346 -34.345  29.231 -13.23  42.231 -0.23 Z M98.904 14.213  68.615 -16.076  45.394 7.145 H39.068 L35.269 3.346 L30.769 7.846 H11.346 L25.558 -6.365 L21.856 -10.066 V-16.394 L45.078 -39.615 L10.557 -74.134 L15.904 -79.48 L104.25 8.866 L98.904 14.213 Z"/></g><g id="Thin-M" transform="matrix(1 0 0 1 802.565 1126)"><path d="M78.865 -30.557  75.328 -34.124  98.461 -57.23  85.461 -70.23  62.328 -47.095  58.789 -50.662  85.461 -77.307  105.539 -57.23  78.865 -30.557 Z M41.461 -0.23  64.692 -23.461  51.693 -36.461  28.461 -13.23  41.461 -0.23 Z M98.808 10.655  68.231 -19.922  44.289 4.02 H38.635 L34.789 0.174 L29.039 5.924 H15.193 L27.865 -6.749 L24.211 -10.402 V-16.057 L48.154 -39.999 L14.115 -74.037 L17.683 -77.605 L102.375 7.088 L98.808 10.655 Z"/></g><g id="Ultralight-M" transform="matrix(1 0 0 1 506.415 1126)"><path d="M77.625 -31.855  75.125 -34.355  98 -57.23  85 -70.23  62.125 -47.355  59.625 -49.855  85 -75.23  103 -57.23  77.625 -31.855 Z M41 -0.23  65.5 -24.73  52.5 -37.73  28 -13.23  41 -0.23 Z M98.75 8.52  68 -22.23  43.625 2.145 H38.375 L34.5 -1.73 L28 4.77 H17.5 L29.25 -6.98 L25.625 -10.605 V-15.855 L50 -40.23 L16.25 -73.98 L18.75 -76.48 L101.25 6.02 L98.75 8.52 Z"/></g><g id="Bold-S" transform="matrix(1 0 0 1 2294.23 696)"><path d="M66.572 -25.466  58.485 -33.948  77.716 -53.18  69.333 -61.76  50.2 -42.528  42.014 -50.813  69.333 -78.23  94.285 -53.18  66.572 -25.466 Z M34.913 -10.376  47.34 -22.902  38.957 -31.384  26.431 -18.858  34.913 -10.376 Z M74.561 4.417  55.625 -14.519  39.056 2.05 H30.87 L27.221 -1.599 L24.163 1.36 H5.227 L17.753 -11.067 L14.103 -14.716 V-23 L30.672 -39.569 L7.693 -62.45 L13.709 -68.467 L80.577 -1.599 L74.561 4.417 Z"/></g><g id="Semibold-S" transform="matrix(1 0 0 1 1998.1 696)"><path d="M65.457 -26.666  58.784 -33.734  77.888 -52.837  69.291 -61.589  50.243 -42.442  43.43 -49.312  69.291 -75.229  91.628 -52.837  65.457 -26.666 Z M34.999 -9.905  48.112 -23.116  39.514 -31.813  26.303 -18.601  34.999 -9.905 Z M75.075 3.902  54.981 -16.191  38.412 0.378 H31.642 L28.592 -2.671 L26.006 -0.141 H7.07 L19.124 -12.139 L16.076 -15.187 V-22.014 L32.645 -38.583 L8.208 -62.965 L13.795 -68.552 L80.662 -1.685 L75.075 3.902 Z"/></g><g id="Medium-S" transform="matrix(1 0 0 1 1701.85 696)"><path d="M64.621 -27.567  59.01 -33.573  78.016 -52.579  69.258 -61.46  50.275 -42.378  44.491 -48.186  69.258 -72.978  89.633 -52.579  64.621 -27.567 Z M35.063 -9.551  48.691 -23.277  39.932 -32.134  26.207 -18.408  35.063 -9.551 Z M75.461 3.517  54.499 -17.445  37.93 -0.876 H32.221 L29.622 -3.475 L27.39 -1.267 H8.454 L20.154 -12.943 L17.555 -15.541 V-21.275 L34.124 -37.844 L8.593 -63.351 L13.859 -68.617 L80.727 -1.749 L75.461 3.517 Z"/></g><g id="Regular-S" transform="matrix(1 0 0 1 1405.73 696)"><path d="M64.008 -28.228  59.175 -33.455  78.111 -52.391  69.235 -61.366  50.299 -42.331  45.269 -47.361  69.235 -71.327  88.171 -52.391  64.008 -28.228 Z M35.111 -9.292  49.115 -23.395  40.239 -32.37  26.136 -18.266  35.111 -9.292 Z M75.744 3.234  54.145 -18.365  37.576 -1.796 H32.645 L30.377 -4.064 L28.404 -2.092 H9.468 L20.909 -13.532 L18.64 -15.801 V-20.732 L35.209 -37.301 L8.876 -63.634 L13.906 -68.664 L80.774 -1.796 L75.744 3.234 Z"/></g><g id="Light-S" transform="matrix(1 0 0 1 1109.75 696)"><path d="M62.376 -29.935  58.91 -33.759  77.504 -52.391  68.628 -61.366  50.033 -42.672  46.369 -46.299  68.628 -68.596  84.832 -52.391  62.376 -29.935 Z M34.504 -9.292  50.177 -25.064  41.301 -34.039  25.529 -18.266  34.504 -9.292 Z M75.668 0.427  53.841 -21.4  36.703 -4.262 H32.304 L29.997 -6.569 L27.038 -3.61 H12.503 L22.729 -13.836 L20.499 -16.066 V-20.467 L37.637 -37.605 L11.683 -63.558 L15.31 -67.184 L79.294 -3.2 L75.668 0.427 Z"/></g><g id="Thin-S" transform="matrix(1 0 0 1 814.015 696)"><path d="M60.745 -31.642  58.644 -34.061  76.897 -52.391  68.021 -61.366  49.768 -43.013  47.469 -45.236  68.021 -65.865  81.495 -52.391  60.745 -31.642 Z M33.896 -9.292  51.24 -26.733  42.363 -35.708  24.922 -18.266  33.896 -9.292 Z M75.592 -2.38  53.539 -24.435  35.831 -6.727 H31.962 L29.618 -9.072 L25.673 -5.127 H15.537 L24.55 -14.139 L22.357 -16.331 V-20.202 L40.064 -37.908 L14.49 -63.482 L16.713 -65.705 L77.815 -4.603 L75.592 -2.38 Z"/></g><g id="Ultralight-S" transform="matrix(1 0 0 1 517.792 696)"><path d="M59.767 -32.666  58.485 -34.244  76.533 -52.391  67.657 -61.366  49.608 -43.219  48.129 -44.599  67.657 -64.226  79.492 -52.391  59.767 -32.666 Z M33.532 -9.292  51.877 -27.734  43.001 -36.709  24.558 -18.266  33.532 -9.292 Z M75.547 -4.064  53.356 -26.255  35.308 -8.207 H31.757 L29.39 -10.574 L24.854 -6.037 H17.358 L25.643 -14.321 L23.473 -16.491 V-20.042 L41.521 -38.09 L16.175 -63.437 L17.555 -64.817 L76.928 -5.445 L75.547 -4.064 Z"/></g></g></svg>