<svg xmlns="http://www.w3.org/2000/svg" height="24" viewBox="0 -960 960 960" width="24"><path d="M199.23-120v-529.23H120v-95.39q0-39.74 27.82-67.56T215.38-840h529.24q39.23 0 67.3 28.08Q840-783.85 840-744.25v95.02h-80V-120H199.23Zm40-40H720v-148.46H239.23V-160Zm0-188.46H720v-149.23H608.46v55.38q0 8.5-5.75 14.25t-14.25 5.75q-7.77 0-13.88-5.75-6.12-5.75-6.12-14.25v-55.38H239.23v149.23Zm0-189.23h329.23v-111.54H239.23v111.54Zm369.23 0H720v-111.54H608.46v111.54ZM160-689.23h640v-55.12q0-23.42-15.92-39.53Q768.15-800 744.62-800H215.38q-23.53 0-39.46 15.92Q160-768.15 160-744.62v55.39Zm640 0H160h640Z"/></svg>