<svg xmlns="http://www.w3.org/2000/svg" height="40" viewBox="0 -960 960 960" width="40"><path d="M150.84-70.84v-570.89h-80v-123.65q0-51.49 35.95-87.82 35.94-36.34 87.94-36.34h570.38q51.62 0 88.02 36.25 36.41 36.25 36.41 87.81v123.75h-79.43v570.89H150.84Zm84.81-84.81h489.2v-117.76h-489.2v117.76Zm0-202.95h489.2v-119.73h-80.41v32.28q0 17.58-12.28 29.7-12.28 12.12-29.67 12.12-17.27 0-30.26-12.12-12.98-12.12-12.98-29.7v-32.28h-323.6v119.73Zm0-204.54h323.6v-78.59h-323.6v78.59Zm408.79 0h80.41v-78.59h-80.41v78.59Z"/></svg>