<svg xmlns="http://www.w3.org/2000/svg" height="20" viewBox="0 -960 960 960" width="20"><path d="M236.77-142.15V-656.5h-94.62v-68.24q0-38.64 26.89-65.88 26.88-27.23 65.92-27.23h489.96q38.21 0 65.57 27.29 27.36 27.29 27.36 65.75v68.31h-95.5v514.35H236.77Zm28.92-28.93h427.73v-136.96H265.69v136.96Zm0-165.88h427.73v-149.85H589.38v52q0 6.07-4.32 10.36-4.32 4.3-9.94 4.3-5.73 0-10.19-4.3-4.47-4.29-4.47-10.36v-52H265.69v149.85Zm0-178.77h294.77V-656.5H265.69v140.77Zm323.69 0h104.04V-656.5H589.38v140.77Zm-418.3-169.69h617.84v-39.2q0-26.86-18.61-45.58t-45.39-18.72H234.96q-27.53 0-45.71 18.61-18.17 18.61-18.17 45.54v39.35Zm617.84 0H171.08h617.84Z"/></svg>