<svg xmlns="http://www.w3.org/2000/svg" height="48" viewBox="0 -960 960 960" width="48"><path d="M140.5-60v-582.5H60v-128.91q0-53.51 37.44-91.55T189-901h582.01q53.82 0 91.91 37.86Q901-825.27 901-771.51v129.01h-79.39V-60H140.5Zm91.5-91.5h497V-266H232v114.5Zm0-207h497V-476h-78.5v26.5q0 19.05-13.25 32.02-13.26 12.98-32.09 12.98-18.66 0-32.91-12.98Q558-430.45 558-449.5V-476H232v117.5Zm0-209h326v-75H232v75Zm418.5 0H729v-75h-78.5v75ZM151.5-735h657v-36.49q0-15.51-10.56-26.26Q787.39-808.5 771-808.5H189q-17.31 0-27.41 10.85-10.09 10.85-10.09 26.3V-735Zm657 0h-657 657Z"/></svg>