<svg xmlns="http://www.w3.org/2000/svg" height="40" viewBox="0 -960 960 960" width="40"><path d="M153.97-73.3v-573.94H73.3v-119.87q0-49.85 34.94-84.8 34.93-34.95 84.83-34.95h573.86q49.97 0 84.95 34.95 34.98 34.94 34.98 84.86v119.81h-79.93V-73.3H153.97Zm75.75-75.76h501.22v-128.45H229.72v128.45Zm0-204.37h501.22v-129.6h-90.35v41.07q0 15.96-10.85 26.76-10.85 10.79-26.9 10.79-15.54 0-26.85-10.79-11.31-10.8-11.31-26.76v-41.07H229.72v129.6Zm0-205.35h334.96v-88.46H229.72v88.46Zm410.87 0h90.35v-88.46h-90.35v88.46ZM149.06-723.15h661.88v-43.87q0-18.65-12.58-31.28-12.59-12.64-31.43-12.64H193.07q-18.84 0-31.43 12.62-12.58 12.62-12.58 31.27v43.9Zm661.88 0H149.06h661.88Z"/></svg>