<svg xmlns="http://www.w3.org/2000/svg" height="20" viewBox="0 -960 960 960" width="20"><path d="M211-116v-542h-95v-80.94q0-43.73 30.92-74.39Q177.83-844 222-844h517q43.08 0 74.04 30.96Q844-782.08 844-738.53V-658h-96v542H211Zm46-46h445v-129H257v129Zm0-175h445v-143H602v48q0 8.92-6.3 14.96-6.31 6.04-15.63 6.04-8.37 0-16.22-6.04T556-432v-48H257v143Zm0-189h299v-132H257v132Zm345 0h100v-132H602v132ZM162-704h636v-34.53q0-24.87-16.96-42.17T739-798H222q-24.9 0-42.45 16.96Q162-764.08 162-739v35Zm636 0H162h636Z"/></svg>