<svg xmlns="http://www.w3.org/2000/svg" version="1.1" width="3300" height="2000"><g id="Notes"><style>
    text {
      font-family: monospace;
      text-anchor: middle;
    }
    text.emphasis {
      font-weight:bold;
    }
    text.lanchor {
      text-anchor: start;
    }
  </style><rect height="2200" id="artboard" fill="white" width="3300" x="0" y="0"/><line id="" style="fill:none;stroke:black;stroke-width:0.5;" x1="263" x2="3036" y1="292" y2="292"/><text class="lanchor emphasis" transform="matrix(1 0 0 1 263 322)">Weight/Scale Variations</text><text transform="matrix(1 0 0 1 559.711 322)">Ultralight</text><text transform="matrix(1 0 0 1 856.422 322)">Thin</text><text transform="matrix(1 0 0 1 1153.13 322)">Light</text><text transform="matrix(1 0 0 1 1449.84 322)">Regular</text><text transform="matrix(1 0 0 1 1746.56 322)">Medium</text><text transform="matrix(1 0 0 1 2043.27 322)">Semibold</text><text transform="matrix(1 0 0 1 2339.98 322)">Bold</text><text transform="matrix(1 0 0 1 2636.69 322)">Heavy</text><text transform="matrix(1 0 0 1 2933.4 322)">Black</text><text id="template-version" style="text-anchor: end;" transform="matrix(1 0 0 1 3036 1933)">Template v.1.0</text><text class="lanchor" transform="matrix(1 0 0 1 263 726)">Small</text><text class="lanchor" transform="matrix(1 0 0 1 263 1156)">Medium</text><text class="lanchor" transform="matrix(1 0 0 1 263 1586)">Large</text></g><g id="Guides"><g id="H-reference" style="fill:#27AAE1;stroke:none;" transform="matrix(1 0 0 1 339 696)"><path d="M 54.9316 0 L 57.666 0 L 30.5664 -70.459 L 28.0762 -70.459 L 0.976562 0 L 3.66211 0 L 12.9395 -24.4629 L 45.7031 -24.4629 Z M 29.1992 -67.0898 L 29.4434 -67.0898 L 44.8242 -26.709 L 13.8184 -26.709 Z"/></g><line id="Baseline-S" style="fill:none;stroke:#27AAE1;opacity:1;stroke-width:0.577;" x1="263" x2="3036" y1="696" y2="696"/><line id="Capline-S" style="fill:none;stroke:#27AAE1;opacity:1;stroke-width:0.577;" x1="263" x2="3036" y1="625.541" y2="625.541"/><g id="H-reference" style="fill:#27AAE1;stroke:none;" transform="matrix(1 0 0 1 339 1126)"><path d="M 54.9316 0 L 57.666 0 L 30.5664 -70.459 L 28.0762 -70.459 L 0.976562 0 L 3.66211 0 L 12.9395 -24.4629 L 45.7031 -24.4629 Z M 29.1992 -67.0898 L 29.4434 -67.0898 L 44.8242 -26.709 L 13.8184 -26.709 Z"/></g><line id="Baseline-M" style="fill:none;stroke:#27AAE1;opacity:1;stroke-width:0.577;" x1="263" x2="3036" y1="1126" y2="1126"/><line id="Capline-M" style="fill:none;stroke:#27AAE1;opacity:1;stroke-width:0.577;" x1="263" x2="3036" y1="1055.54" y2="1055.54"/><g id="H-reference" style="fill:#27AAE1;stroke:none;" transform="matrix(1 0 0 1 339 1556)"><path d="M 54.9316 0 L 57.666 0 L 30.5664 -70.459 L 28.0762 -70.459 L 0.976562 0 L 3.66211 0 L 12.9395 -24.4629 L 45.7031 -24.4629 Z M 29.1992 -67.0898 L 29.4434 -67.0898 L 44.8242 -26.709 L 13.8184 -26.709 Z"/></g><line id="Baseline-L" style="fill:none;stroke:#27AAE1;opacity:1;stroke-width:0.577;" x1="263" x2="3036" y1="1556" y2="1556"/><line id="Capline-L" style="fill:none;stroke:#27AAE1;opacity:1;stroke-width:0.577;" x1="263" x2="3036" y1="1485.54" y2="1485.54"/><rect height="119.336" id="left-margin" style="fill:darkred;stroke:none;opacity:0.4;" width="12.4512" x="1394.06" y="1030.79"/><rect height="119.336" id="right-margin" style="fill:darkgreen;stroke:none;opacity:0.4;" width="12.4512" x="1502.5112" y="1030.79"/><rect x="1406.5112" y="1045" width="96" height="96" fill="none" stroke="blue" stroke-dasharray="5"/><rect x="1394.06" y="1030.79" width="120.9024" height="119.336" fill="none" stroke="blue"/></g><g id="Symbols"><g id="Bold-L" transform="matrix(1 0 0 1 2266 1556)"><path d="M57.889 37.333 H38.7 Q35.738 37.333 33.59 35.291 Q31.444 33.25 31.444 30.146 Q31.444 27.042 33.59 24.77 Q35.738 22.498 38.7 22.498 H57.889 Q60.832 22.498 63.07 24.794 Q65.306 27.09 65.306 30.118 Q65.306 33.304 63.07 35.318 Q60.832 37.333 57.889 37.333 Z M116.1 37.333 H97.073 Q93.952 37.333 91.804 35.291 Q89.655 33.25 89.655 30.146 Q89.655 27.042 91.804 24.77 Q93.952 22.498 97.073 22.498 H116.1 Q119.132 22.498 121.325 24.794 Q123.517 27.09 123.517 30.118 Q123.517 33.304 121.325 35.318 Q119.132 37.333 116.1 37.333 Z M34.991 12.823 Q28.615 12.823 24.386 8.014 Q20.156 3.206 21.446 -3.302 L36.289 -91.796 Q37.136 -96.884 41.006 -100.08 Q44.876 -103.277 49.665 -103.277 H105.135 Q109.874 -103.277 114.002 -100.114 Q118.129 -96.95 118.841 -91.829 L133.354 -3.302 Q134.483 3.197 130.287 8.009 Q126.091 12.823 119.809 12.823 H34.991 Z M77.373 -11.526 Q87.236 -11.526 94.089 -18.237 Q100.943 -24.949 100.943 -34.585 Q100.943 -44.355 94.123 -51.241 Q87.302 -58.127 77.453 -58.127 Q67.67 -58.127 60.925 -51.274 Q54.18 -44.421 54.18 -34.666 Q54.18 -24.871 60.93 -18.199 Q67.681 -11.526 77.373 -11.526 Z M77.435 -23.942 Q73.195 -23.942 69.895 -27.234 Q66.596 -30.525 66.596 -34.609 Q66.596 -38.644 69.86 -42.178 Q73.124 -45.711 77.445 -45.711 Q81.767 -45.711 84.985 -42.222 Q88.204 -38.732 88.204 -34.596 Q88.204 -30.46 84.996 -27.201 Q81.791 -23.942 77.435 -23.942 Z M77.244 -67.802 Q79.886 -67.802 81.465 -69.209 Q83.044 -70.616 83.044 -73.367 Q83.044 -75.997 81.444 -77.544 Q79.846 -79.09 77.324 -79.09 Q74.923 -79.09 73.34 -77.544 Q71.756 -75.997 71.756 -73.287 Q71.756 -70.576 73.338 -69.189 Q74.918 -67.802 77.244 -67.802 Z"/></g><g id="Semibold-L" transform="matrix(1 0 0 1 1970.27 1556)"><path d="M58.239 36.631 H38.7 Q35.989 36.631 34.032 34.73 Q32.074 32.83 32.074 30.034 Q32.074 27.238 34.032 25.184 Q35.989 23.128 38.7 23.128 H58.239 Q60.938 23.128 62.947 25.194 Q64.956 27.259 64.956 30.042 Q64.956 32.885 62.947 34.757 Q60.938 36.631 58.239 36.631 Z M116.1 36.631 H96.723 Q93.854 36.631 91.895 34.73 Q89.936 32.83 89.936 30.034 Q89.936 27.238 91.895 25.184 Q93.854 23.128 96.723 23.128 H116.1 Q118.878 23.128 120.883 25.194 Q122.887 27.259 122.887 30.042 Q122.887 32.885 120.883 34.757 Q118.878 36.631 116.1 36.631 Z M34.57 13.453 Q28.47 13.453 24.489 8.84 Q20.506 4.225 21.656 -1.9 L36.43 -91.929 Q37.255 -96.719 40.925 -99.788 Q44.595 -102.857 49.244 -102.857 H105.556 Q110.182 -102.857 114.036 -99.836 Q117.89 -96.815 118.632 -91.969 L133.563 -1.9 Q134.623 4.217 130.633 8.835 Q126.646 13.453 120.65 13.453 H34.57 Z M77.384 -9.633 Q87.488 -9.633 94.531 -16.578 Q101.573 -23.522 101.573 -33.393 Q101.573 -43.444 94.563 -50.541 Q87.554 -57.637 77.465 -57.637 Q67.443 -57.637 60.461 -50.573 Q53.479 -43.51 53.479 -33.474 Q53.479 -23.446 60.466 -16.54 Q67.452 -9.633 77.384 -9.633 Z M77.429 -21.419 Q72.6 -21.419 68.931 -25.054 Q65.264 -28.69 65.264 -33.406 Q65.264 -38.153 68.902 -41.967 Q72.54 -45.781 77.452 -45.781 Q82.362 -45.781 85.949 -42.001 Q89.536 -38.221 89.536 -33.429 Q89.536 -28.638 85.954 -25.029 Q82.375 -21.419 77.429 -21.419 Z M77.311 -67.312 Q79.816 -67.312 81.394 -68.768 Q82.974 -70.224 82.974 -72.806 Q82.974 -75.268 81.375 -76.863 Q79.775 -78.46 77.323 -78.46 Q74.989 -78.46 73.407 -76.863 Q71.826 -75.268 71.826 -72.725 Q71.826 -70.184 73.407 -68.747 Q74.988 -67.312 77.311 -67.312 Z"/></g><g id="Medium-L" transform="matrix(1 0 0 1 1674.31 1556)"><path d="M58.502 36.105 H38.7 Q36.178 36.105 34.364 34.311 Q32.548 32.514 32.548 29.95 Q32.548 27.387 34.364 25.495 Q36.178 23.602 38.7 23.602 H58.502 Q61.019 23.602 62.855 25.494 Q64.694 27.387 64.694 29.986 Q64.694 32.569 62.855 34.338 Q61.019 36.105 58.502 36.105 Z M116.1 36.105 H96.46 Q93.78 36.105 91.962 34.311 Q90.145 32.514 90.145 29.95 Q90.145 27.387 91.962 25.495 Q93.78 23.602 96.46 23.602 H116.1 Q118.69 23.602 120.552 25.494 Q122.413 27.387 122.413 29.986 Q122.413 32.569 120.552 34.338 Q118.69 36.105 116.1 36.105 Z M34.254 13.927 Q28.362 13.927 24.566 9.459 Q20.769 4.991 21.814 -0.848 L36.534 -92.029 Q37.344 -96.595 40.864 -99.569 Q44.384 -102.541 48.928 -102.541 H105.872 Q110.413 -102.541 114.062 -99.627 Q117.711 -96.713 118.474 -92.074 L133.721 -0.848 Q134.728 4.981 130.895 9.454 Q127.06 13.927 121.281 13.927 H34.254 Z M77.394 -8.214 Q87.676 -8.214 94.862 -15.333 Q102.047 -22.451 102.047 -32.5 Q102.047 -42.76 94.894 -50.015 Q87.743 -57.268 77.474 -57.268 Q67.272 -57.268 60.112 -50.047 Q52.953 -42.826 52.953 -32.581 Q52.953 -22.375 60.117 -15.295 Q67.282 -8.214 77.394 -8.214 Z M77.424 -19.526 Q72.153 -19.526 68.209 -23.42 Q64.265 -27.314 64.265 -32.505 Q64.265 -37.786 68.185 -41.809 Q72.103 -45.834 77.456 -45.834 Q82.808 -45.834 86.672 -41.835 Q90.535 -37.837 90.535 -32.555 Q90.535 -27.271 86.673 -23.399 Q82.812 -19.526 77.424 -19.526 Z M77.363 -66.943 Q79.764 -66.943 81.343 -68.436 Q82.921 -69.929 82.921 -72.385 Q82.921 -74.72 81.322 -76.354 Q79.724 -77.985 77.321 -77.985 Q75.041 -77.985 73.461 -76.354 Q71.879 -74.72 71.879 -72.305 Q71.879 -69.889 73.459 -68.417 Q75.039 -66.943 77.363 -66.943 Z"/></g><g id="Regular-L" transform="matrix(1 0 0 1 1378.56 1556)"><path d="M58.695 35.72 H38.7 Q36.318 35.72 34.606 34.001 Q32.895 32.282 32.895 29.889 Q32.895 27.496 34.606 25.723 Q36.318 23.949 38.7 23.949 H58.695 Q61.077 23.949 62.789 25.714 Q64.5 27.48 64.5 29.944 Q64.5 32.337 62.789 34.028 Q61.077 35.72 58.695 35.72 Z M116.1 35.72 H96.266 Q93.727 35.72 92.014 34.001 Q90.3 32.282 90.3 29.889 Q90.3 27.496 92.014 25.723 Q93.727 23.949 96.266 23.949 H116.1 Q118.551 23.949 120.309 25.714 Q122.066 27.48 122.066 29.944 Q122.066 32.337 120.309 34.028 Q118.551 35.72 116.1 35.72 Z M34.024 14.274 Q28.283 14.274 24.623 9.912 Q20.963 5.55 21.93 -0.077 L36.612 -92.101 Q37.41 -96.505 40.82 -99.407 Q44.231 -102.31 48.697 -102.31 H106.103 Q110.58 -102.31 114.08 -99.475 Q117.58 -96.639 118.358 -92.151 L133.838 -0.077 Q134.805 5.542 131.085 9.909 Q127.365 14.274 121.744 14.274 H34.024 Z M77.4 -7.172 Q87.815 -7.172 95.104 -14.419 Q102.394 -21.667 102.394 -31.844 Q102.394 -42.259 95.138 -49.628 Q87.881 -56.999 77.481 -56.999 Q67.146 -56.999 59.858 -49.662 Q52.568 -42.325 52.568 -31.924 Q52.568 -21.59 59.862 -14.382 Q67.157 -7.172 77.4 -7.172 Z M77.421 -18.137 Q71.824 -18.137 67.678 -22.222 Q63.532 -26.305 63.532 -31.844 Q63.532 -37.515 67.657 -41.695 Q71.782 -45.872 77.46 -45.872 Q83.137 -45.872 87.202 -41.714 Q91.267 -37.555 91.267 -31.911 Q91.267 -26.268 87.201 -22.203 Q83.132 -18.137 77.421 -18.137 Z M77.402 -66.674 Q79.725 -66.674 81.304 -68.193 Q82.883 -69.713 82.883 -72.077 Q82.883 -74.32 81.283 -75.979 Q79.685 -77.639 77.321 -77.639 Q75.078 -77.639 73.498 -75.979 Q71.918 -74.32 71.918 -71.997 Q71.918 -69.673 73.498 -68.173 Q75.078 -66.674 77.402 -66.674 Z"/></g><g id="Light-L" transform="matrix(1 0 0 1 1082.77 1556)"><path d="M59.687 34.108 H38.7 Q36.818 34.108 35.446 32.727 Q34.074 31.345 34.074 29.452 Q34.074 27.558 35.446 26.126 Q36.818 24.694 38.7 24.694 H59.687 Q61.568 24.694 62.941 26.121 Q64.315 27.549 64.315 29.512 Q64.315 31.408 62.941 32.758 Q61.568 34.108 59.687 34.108 Z M116.1 34.108 H95.275 Q93.235 34.108 91.861 32.727 Q90.485 31.345 90.485 29.452 Q90.485 27.558 91.861 26.126 Q93.235 24.694 95.275 24.694 H116.1 Q118.05 24.694 119.469 26.121 Q120.888 27.549 120.888 29.512 Q120.888 31.408 119.469 32.758 Q118.05 34.108 116.1 34.108 Z M35.885 14.274 Q30.731 14.274 27.398 10.346 Q24.063 6.419 24.907 1.35 L39.031 -89.807 Q39.724 -93.823 42.846 -96.455 Q45.968 -99.085 49.938 -99.085 H104.862 Q108.82 -99.085 112.053 -96.497 Q115.286 -93.91 115.939 -89.857 L130.798 1.35 Q131.641 6.411 128.286 10.342 Q124.928 14.274 119.883 14.274 H35.885 Z M77.4 -7.669 Q86.885 -7.669 93.554 -14.264 Q100.223 -20.861 100.223 -30.138 Q100.223 -39.653 93.586 -46.372 Q86.951 -53.092 77.45 -53.092 Q68.015 -53.092 61.407 -46.406 Q54.801 -39.719 54.801 -30.218 Q54.801 -20.784 61.406 -14.226 Q68.01 -7.669 77.4 -7.669 Z M77.416 -16.277 Q71.74 -16.277 67.575 -20.424 Q63.408 -24.57 63.408 -30.197 Q63.408 -35.931 67.552 -40.127 Q71.698 -44.321 77.453 -44.321 Q83.21 -44.321 87.331 -40.126 Q91.453 -35.928 91.453 -30.23 Q91.453 -24.531 87.33 -20.405 Q83.207 -16.277 77.416 -16.277 Z M77.371 -65.495 Q79.477 -65.495 80.962 -66.89 Q82.449 -68.286 82.449 -70.465 Q82.449 -72.459 80.941 -74.025 Q79.435 -75.592 77.29 -75.592 Q75.202 -75.592 73.777 -74.025 Q72.351 -72.456 72.351 -70.352 Q72.351 -68.246 73.775 -66.87 Q75.199 -65.495 77.371 -65.495 Z"/></g><g id="Thin-L" transform="matrix(1 0 0 1 787.282 1556)"><path d="M60.68 32.495 H38.7 Q37.32 32.495 36.286 31.452 Q35.252 30.408 35.252 29.015 Q35.252 27.62 36.286 26.529 Q37.32 25.437 38.7 25.437 H60.68 Q62.06 25.437 63.094 26.527 Q64.128 27.617 64.128 29.081 Q64.128 30.478 63.094 31.486 Q62.06 32.495 60.68 32.495 Z M116.1 32.495 H94.281 Q92.743 32.495 91.708 31.452 Q90.672 30.408 90.672 29.015 Q90.672 27.62 91.708 26.529 Q92.743 25.437 94.281 25.437 H116.1 Q117.55 25.437 118.63 26.527 Q119.709 27.617 119.709 29.081 Q119.709 30.478 118.63 31.486 Q117.55 32.495 116.1 32.495 Z M37.745 14.274 Q33.179 14.274 30.171 10.781 Q27.164 7.287 27.883 2.775 L41.449 -87.512 Q42.036 -91.143 44.869 -93.501 Q47.704 -95.86 51.178 -95.86 H103.622 Q107.057 -95.86 110.024 -93.52 Q112.991 -91.182 113.52 -87.562 L127.76 2.775 Q128.479 7.279 125.486 10.776 Q122.492 14.274 118.022 14.274 H37.745 Z M77.4 -8.164 Q85.954 -8.164 92.003 -14.109 Q98.053 -20.055 98.053 -28.433 Q98.053 -37.049 92.037 -43.117 Q86.02 -49.185 77.419 -49.185 Q68.883 -49.185 62.958 -43.151 Q57.033 -37.115 57.033 -28.514 Q57.033 -19.977 62.949 -14.071 Q68.863 -8.164 77.4 -8.164 Z M77.41 -14.416 Q71.656 -14.416 67.47 -18.626 Q63.284 -22.835 63.284 -28.551 Q63.284 -34.348 67.449 -38.56 Q71.613 -42.772 77.448 -42.772 Q83.284 -42.772 87.462 -38.536 Q91.64 -34.3 91.64 -28.548 Q91.64 -22.796 87.46 -18.605 Q83.279 -14.416 77.41 -14.416 Z M77.339 -64.316 Q79.229 -64.316 80.622 -65.589 Q82.015 -66.859 82.015 -68.854 Q82.015 -70.599 80.599 -72.072 Q79.185 -73.546 77.258 -73.546 Q75.326 -73.546 74.056 -72.069 Q72.785 -70.594 72.785 -68.707 Q72.785 -66.82 74.052 -65.569 Q75.32 -64.316 77.339 -64.316 Z"/></g><g id="Ultralight-L" transform="matrix(1 0 0 1 491.205 1556)"><path d="M61.275 31.528 H38.7 Q37.62 31.528 36.789 30.687 Q35.959 29.847 35.959 28.752 Q35.959 27.658 36.789 26.771 Q37.62 25.884 38.7 25.884 H61.275 Q62.355 25.884 63.186 26.771 Q64.016 27.659 64.016 28.823 Q64.016 29.918 63.186 30.723 Q62.355 31.528 61.275 31.528 Z M116.1 31.528 H93.686 Q92.449 31.528 91.616 30.687 Q90.784 29.847 90.784 28.752 Q90.784 27.658 91.616 26.771 Q92.449 25.884 93.686 25.884 H116.1 Q117.25 25.884 118.125 26.771 Q119.002 27.659 119.002 28.823 Q119.002 29.918 118.125 30.723 Q117.25 31.528 116.1 31.528 Z M38.861 14.274 Q34.646 14.274 31.836 11.041 Q29.025 7.808 29.67 3.631 L42.901 -86.135 Q43.425 -89.534 46.085 -91.73 Q48.746 -93.925 51.922 -93.925 H102.877 Q106.001 -93.925 108.807 -91.735 Q111.614 -89.544 112.069 -86.185 L125.936 3.631 Q126.581 7.8 123.806 11.037 Q121.031 14.274 116.906 14.274 H38.861 Z M77.4 -8.462 Q85.396 -8.462 91.072 -14.016 Q96.75 -19.571 96.75 -27.409 Q96.75 -35.486 91.106 -41.162 Q85.463 -46.84 77.4 -46.84 Q69.404 -46.84 63.889 -41.196 Q58.373 -35.552 58.373 -27.49 Q58.373 -19.494 63.874 -13.979 Q69.376 -8.462 77.4 -8.462 Z M77.406 -13.3 Q71.605 -13.3 67.407 -17.547 Q63.21 -21.795 63.21 -27.563 Q63.21 -33.398 67.386 -37.62 Q71.563 -41.841 77.445 -41.841 Q83.328 -41.841 87.539 -37.583 Q91.751 -33.324 91.751 -27.538 Q91.751 -21.753 87.538 -17.526 Q83.324 -13.3 77.406 -13.3 Z M77.321 -63.61 Q79.08 -63.61 80.417 -64.806 Q81.754 -66.003 81.754 -67.888 Q81.754 -69.483 80.394 -70.9 Q79.035 -72.317 77.24 -72.317 Q75.401 -72.317 74.223 -70.897 Q73.046 -69.476 73.046 -67.72 Q73.046 -65.964 74.22 -64.787 Q75.392 -63.61 77.321 -63.61 Z"/></g><g id="Bold-M" transform="matrix(1 0 0 1 2281.8 1126)"><path d="M45.25 28.645 H30 Q26.55 28.645 24.025 26.208 Q21.5 23.77 21.5 20.208 Q21.5 16.645 24.025 14.145 Q26.55 11.645 30 11.645 H45.25 Q48.7 11.645 51.225 14.17 Q53.75 16.695 53.75 20.145 Q53.75 23.77 51.225 26.208 Q48.7 28.645 45.25 28.645 Z M90 28.645 H74.75 Q71.3 28.645 68.775 26.208 Q66.25 23.77 66.25 20.208 Q66.25 16.645 68.775 14.145 Q71.3 11.645 74.75 11.645 H90 Q93.45 11.645 95.975 14.17 Q98.5 16.695 98.5 20.145 Q98.5 23.77 95.975 26.208 Q93.45 28.645 90 28.645 Z M26.5 6.645 Q20.199 6.645 16.163 1.855 Q12.125 -2.935 13.125 -9.23 L24.75 -79.869 Q25.538 -84.774 29.288 -87.876 Q33.038 -90.98 37.875 -90.98 H82.125 Q86.924 -90.98 90.811 -87.902 Q94.698 -84.825 95.5 -79.855 L107.25 -9.23 Q108.375 -2.922 104.379 1.861 Q100.382 6.645 94.125 6.645 H26.5 Z M60 -15.355 Q67.625 -15.355 72.938 -20.631 Q78.25 -25.906 78.25 -33.48 Q78.25 -41.179 72.938 -46.454 Q67.625 -51.73 60 -51.73 Q52.375 -51.73 47.062 -46.454 Q41.75 -41.179 41.75 -33.48 Q41.75 -25.906 47.062 -20.631 Q52.375 -15.355 60 -15.355 Z M60 -29.355 Q58.365 -29.355 57.12 -30.65 Q55.875 -31.945 55.875 -33.499 Q55.875 -35.052 57.12 -36.391 Q58.365 -37.73 60 -37.73 Q61.635 -37.73 62.88 -36.409 Q64.125 -35.089 64.125 -33.499 Q64.125 -31.907 62.88 -30.631 Q61.635 -29.355 60 -29.355 Z M59.877 -56.73 Q62.675 -56.73 64.525 -58.492 Q66.375 -60.255 66.375 -63.105 Q66.375 -65.955 64.525 -67.717 Q62.675 -69.48 59.94 -69.48 Q57.205 -69.48 55.415 -67.717 Q53.625 -65.955 53.625 -63.105 Q53.625 -60.255 55.422 -58.492 Q57.22 -56.73 59.877 -56.73 Z"/></g><g id="Semibold-M" transform="matrix(1 0 0 1 1985.97 1126)"><path d="M45.521 27.015 H30 Q26.854 27.015 24.585 24.795 Q22.315 22.575 22.315 19.365 Q22.315 16.156 24.585 13.9 Q26.854 11.645 30 11.645 H45.521 Q48.667 11.645 50.938 13.915 Q53.206 16.184 53.206 19.33 Q53.206 22.575 50.938 24.795 Q48.667 27.015 45.521 27.015 Z M90 27.015 H74.479 Q71.332 27.015 69.062 24.795 Q66.794 22.575 66.794 19.365 Q66.794 16.156 69.062 13.9 Q71.332 11.645 74.479 11.645 H90 Q93.146 11.645 95.415 13.915 Q97.685 16.184 97.685 19.33 Q97.685 22.575 95.415 24.795 Q93.146 27.015 90 27.015 Z M26.174 6.645 Q20.207 6.645 16.438 2.141 Q12.669 -2.361 13.614 -8.251 L25.185 -79.754 Q25.901 -84.32 29.442 -87.27 Q32.983 -90.219 37.549 -90.219 H82.451 Q86.999 -90.219 90.62 -87.306 Q94.241 -84.394 95.011 -79.746 L107.141 -8.251 Q108.213 -2.35 104.451 2.148 Q100.691 6.645 94.778 6.645 H26.174 Z M60 -13.725 Q67.874 -13.725 73.415 -19.245 Q78.956 -24.765 78.956 -32.61 Q78.956 -40.526 73.415 -46.046 Q67.874 -51.567 60 -51.567 Q52.126 -51.567 46.585 -46.046 Q41.044 -40.526 41.044 -32.61 Q41.044 -24.765 46.585 -19.245 Q52.126 -13.725 60 -13.725 Z M60 -26.91 Q57.686 -26.91 55.992 -28.631 Q54.299 -30.352 54.299 -32.621 Q54.299 -34.889 55.992 -36.635 Q57.686 -38.382 60 -38.382 Q62.314 -38.382 64.007 -36.646 Q65.701 -34.91 65.701 -32.621 Q65.701 -30.332 64.007 -28.621 Q62.314 -26.91 60 -26.91 Z M59.93 -56.567 Q62.621 -56.567 64.416 -58.314 Q66.213 -60.059 66.213 -62.779 Q66.213 -65.499 64.416 -67.245 Q62.621 -68.991 59.966 -68.991 Q57.311 -68.991 55.55 -67.245 Q53.788 -65.499 53.788 -62.779 Q53.788 -60.059 55.554 -58.314 Q57.32 -56.567 59.93 -56.567 Z"/></g><g id="Medium-M" transform="matrix(1 0 0 1 1689.91 1126)"><path d="M45.725 25.791 H30 Q27.082 25.791 25.005 23.735 Q22.926 21.678 22.926 18.734 Q22.926 15.789 25.005 13.718 Q27.082 11.645 30 11.645 H45.725 Q48.642 11.645 50.721 13.723 Q52.799 15.801 52.799 18.719 Q52.799 21.678 50.721 23.735 Q48.642 25.791 45.725 25.791 Z M90 25.791 H74.275 Q71.358 25.791 69.279 23.735 Q67.201 21.678 67.201 18.734 Q67.201 15.789 69.279 13.718 Q71.358 11.645 74.275 11.645 H90 Q92.918 11.645 94.995 13.723 Q97.074 15.801 97.074 18.719 Q97.074 21.678 94.995 23.735 Q92.918 25.791 90 25.791 Z M25.929 6.645 Q20.214 6.645 16.645 2.356 Q13.076 -1.932 13.981 -7.517 L25.511 -79.669 Q26.175 -83.98 29.559 -86.814 Q32.943 -89.649 37.304 -89.649 H82.696 Q87.055 -89.649 90.476 -86.86 Q93.899 -84.071 94.644 -79.665 L107.06 -7.517 Q108.09 -1.92 104.506 2.363 Q100.922 6.645 95.266 6.645 H25.929 Z M60 -12.501 Q68.061 -12.501 73.774 -18.205 Q79.486 -23.909 79.486 -31.959 Q79.486 -40.037 73.774 -45.741 Q68.061 -51.445 60 -51.445 Q51.939 -51.445 46.226 -45.741 Q40.514 -40.037 40.514 -31.959 Q40.514 -23.909 46.226 -18.205 Q51.939 -12.501 60 -12.501 Z M60 -25.075 Q57.176 -25.075 55.146 -27.117 Q53.116 -29.159 53.116 -31.962 Q53.116 -34.766 55.146 -36.819 Q57.176 -38.871 60 -38.871 Q62.824 -38.871 64.854 -36.824 Q66.884 -34.775 66.884 -31.962 Q66.884 -29.15 64.854 -27.112 Q62.824 -25.075 60 -25.075 Z M59.971 -56.445 Q62.58 -56.445 64.335 -58.179 Q66.09 -59.912 66.09 -62.534 Q66.09 -65.156 64.335 -66.89 Q62.58 -68.624 59.985 -68.624 Q57.391 -68.624 55.651 -66.89 Q53.91 -65.156 53.91 -62.534 Q53.91 -59.912 55.653 -58.179 Q57.395 -56.445 59.971 -56.445 Z"/></g><g id="Regular-M" transform="matrix(1 0 0 1 1394.06 1126)"><path d="M45.875 24.895 H30 Q27.25 24.895 25.312 22.958 Q23.375 21.02 23.375 18.27 Q23.375 15.52 25.312 13.583 Q27.25 11.645 30 11.645 H45.875 Q48.625 11.645 50.562 13.583 Q52.5 15.52 52.5 18.27 Q52.5 21.02 50.562 22.958 Q48.625 24.895 45.875 24.895 Z M90 24.895 H74.125 Q71.375 24.895 69.438 22.958 Q67.5 21.02 67.5 18.27 Q67.5 15.52 69.438 13.583 Q71.375 11.645 74.125 11.645 H90 Q92.75 11.645 94.688 13.583 Q96.625 15.52 96.625 18.27 Q96.625 21.02 94.688 22.958 Q92.75 24.895 90 24.895 Z M25.75 6.645 Q20.219 6.645 16.796 2.514 Q13.375 -1.617 14.25 -6.98 L25.75 -79.605 Q26.375 -83.73 29.644 -86.48 Q32.913 -89.23 37.125 -89.23 H82.875 Q87.096 -89.23 90.371 -86.532 Q93.647 -83.834 94.375 -79.605 L107 -6.98 Q108 -1.605 104.546 2.52 Q101.093 6.645 95.625 6.645 H25.75 Z M60 -11.605 Q68.199 -11.605 74.036 -17.444 Q79.875 -23.281 79.875 -31.48 Q79.875 -39.679 74.036 -45.516 Q68.199 -51.355 60 -51.355 Q51.801 -51.355 45.964 -45.516 Q40.125 -39.679 40.125 -31.48 Q40.125 -23.281 45.964 -17.444 Q51.801 -11.605 60 -11.605 Z M60 -23.73 Q56.803 -23.73 54.526 -26.006 Q52.25 -28.282 52.25 -31.48 Q52.25 -34.677 54.526 -36.954 Q56.803 -39.23 60 -39.23 Q63.197 -39.23 65.474 -36.954 Q67.75 -34.677 67.75 -31.48 Q67.75 -28.282 65.474 -26.006 Q63.197 -23.73 60 -23.73 Z M60 -56.355 Q62.55 -56.355 64.275 -58.08 Q66 -59.805 66 -62.355 Q66 -64.905 64.275 -66.63 Q62.55 -68.355 60 -68.355 Q57.45 -68.355 55.725 -66.63 Q54 -64.905 54 -62.355 Q54 -59.805 55.725 -58.08 Q57.45 -56.355 60 -56.355 Z"/></g><g id="Light-M" transform="matrix(1 0 0 1 1098.18 1126)"><path d="M46.644 23.645 H30 Q27.781 23.645 26.204 22.066 Q24.625 20.488 24.625 18.269 Q24.625 16.049 26.204 14.473 Q27.781 12.895 30 12.895 H46.644 Q48.862 12.895 50.441 14.474 Q52.019 16.053 52.019 18.271 Q52.019 20.491 50.441 22.068 Q48.862 23.645 46.644 23.645 Z M90 23.645 H73.356 Q71.138 23.645 69.559 22.066 Q67.981 20.488 67.981 18.269 Q67.981 16.049 69.559 14.473 Q71.138 12.895 73.356 12.895 H90 Q92.219 12.895 93.796 14.474 Q95.375 16.053 95.375 18.271 Q95.375 20.491 93.796 22.068 Q92.219 23.645 90 23.645 Z M27.192 6.645 Q22.286 6.645 19.225 2.971 Q16.164 -0.704 16.895 -5.49 L27.961 -78.115 Q28.505 -81.796 31.406 -84.262 Q34.306 -86.73 38.086 -86.73 H81.914 Q85.683 -86.73 88.608 -84.32 Q91.531 -81.911 92.164 -78.115 L104.308 -5.49 Q105.164 -0.691 102.099 2.976 Q99.035 6.645 94.183 6.645 H27.192 Z M60 -11.99 Q67.478 -11.99 72.739 -17.251 Q78 -22.512 78 -29.99 Q78 -37.466 72.739 -42.727 Q67.478 -47.989 60 -47.989 Q52.523 -47.989 47.261 -42.727 Q42 -37.466 42 -29.99 Q42 -22.512 47.261 -17.251 Q52.523 -11.99 60 -11.99 Z M60 -21.615 Q56.545 -21.615 54.085 -24.081 Q51.625 -26.547 51.625 -30.011 Q51.625 -33.475 54.085 -35.92 Q56.545 -38.365 60 -38.365 Q63.455 -38.365 65.915 -35.907 Q68.375 -33.451 68.375 -30.001 Q68.375 -26.552 65.915 -24.084 Q63.455 -21.615 60 -21.615 Z M60 -55.777 Q62.214 -55.777 63.77 -57.31 Q65.326 -58.841 65.326 -61.105 Q65.326 -63.319 63.77 -64.875 Q62.214 -66.431 59.976 -66.431 Q57.739 -66.431 56.206 -64.875 Q54.674 -63.319 54.674 -61.081 Q54.674 -58.844 56.205 -57.311 Q57.736 -55.777 60 -55.777 Z"/></g><g id="Thin-M" transform="matrix(1 0 0 1 802.565 1126)"><path d="M47.414 22.395 H30 Q28.312 22.395 27.094 21.175 Q25.875 19.955 25.875 18.266 Q25.875 16.578 27.094 15.361 Q28.312 14.145 30 14.145 H47.414 Q49.101 14.145 50.32 15.365 Q51.539 16.585 51.539 18.274 Q51.539 19.963 50.32 21.179 Q49.101 22.395 47.414 22.395 Z M90 22.395 H72.586 Q70.899 22.395 69.68 21.175 Q68.461 19.955 68.461 18.266 Q68.461 16.578 69.68 15.361 Q70.899 14.145 72.586 14.145 H90 Q91.688 14.145 92.906 15.365 Q94.125 16.585 94.125 18.274 Q94.125 19.963 92.906 21.179 Q91.688 22.395 90 22.395 Z M28.635 6.645 Q24.352 6.645 21.652 3.428 Q18.953 0.21 19.539 -3.999 L30.172 -76.624 Q30.635 -79.862 33.167 -82.046 Q35.7 -84.23 39.047 -84.23 H80.953 Q84.269 -84.23 86.843 -82.109 Q89.416 -79.987 89.953 -76.624 L101.615 -3.999 Q102.328 0.223 99.651 3.434 Q96.976 6.645 92.74 6.645 H28.635 Z M60 -12.374 Q66.756 -12.374 71.44 -17.059 Q76.125 -21.742 76.125 -28.499 Q76.125 -35.255 71.44 -39.94 Q66.756 -44.624 60 -44.624 Q53.244 -44.624 48.56 -39.94 Q43.875 -35.255 43.875 -28.499 Q43.875 -21.742 48.56 -17.059 Q53.244 -12.374 60 -12.374 Z M60 -19.499 Q56.288 -19.499 53.644 -22.156 Q51 -24.812 51 -28.542 Q51 -32.272 53.644 -34.886 Q56.288 -37.499 60 -37.499 Q63.712 -37.499 66.356 -34.862 Q69 -32.226 69 -28.524 Q69 -24.821 66.356 -22.16 Q63.712 -19.499 60 -19.499 Z M60 -55.201 Q61.877 -55.201 63.265 -56.539 Q64.654 -57.877 64.654 -59.855 Q64.654 -61.732 63.265 -63.12 Q61.877 -64.509 59.953 -64.509 Q58.028 -64.509 56.686 -63.12 Q55.346 -61.732 55.346 -59.807 Q55.346 -57.882 56.684 -56.541 Q58.023 -55.201 60 -55.201 Z"/></g><g id="Ultralight-M" transform="matrix(1 0 0 1 506.415 1126)"><path d="M47.875 21.645 H30 Q28.631 21.645 27.628 20.64 Q26.625 19.636 26.625 18.265 Q26.625 16.895 27.628 15.895 Q28.631 14.895 30 14.895 H47.875 Q49.244 14.895 50.248 15.9 Q51.25 16.904 51.25 18.275 Q51.25 19.645 50.248 20.645 Q49.244 21.645 47.875 21.645 Z M90 21.645 H72.125 Q70.756 21.645 69.754 20.64 Q68.75 19.636 68.75 18.265 Q68.75 16.895 69.754 15.895 Q70.756 14.895 72.125 14.895 H90 Q91.369 14.895 92.371 15.9 Q93.375 16.904 93.375 18.275 Q93.375 19.645 92.371 20.645 Q91.369 21.645 90 21.645 Z M29.5 6.645 Q25.594 6.645 23.109 3.701 Q20.625 0.758 21.125 -3.105 L31.5 -75.73 Q31.913 -78.701 34.225 -80.716 Q36.538 -82.73 39.625 -82.73 H80.375 Q83.421 -82.73 85.784 -80.782 Q88.147 -78.834 88.625 -75.73 L100 -3.105 Q100.625 0.77 98.184 3.708 Q95.741 6.645 91.875 6.645 H29.5 Z M60 -12.605 Q66.324 -12.605 70.661 -16.944 Q75 -21.281 75 -27.605 Q75 -33.929 70.661 -38.266 Q66.324 -42.605 60 -42.605 Q53.676 -42.605 49.339 -38.266 Q45 -33.929 45 -27.605 Q45 -21.281 49.339 -16.944 Q53.676 -12.605 60 -12.605 Z M60 -18.23 Q56.133 -18.23 53.379 -21 Q50.625 -23.771 50.625 -27.661 Q50.625 -31.552 53.379 -34.266 Q56.133 -36.98 60 -36.98 Q63.867 -36.98 66.621 -34.235 Q69.375 -31.491 69.375 -27.637 Q69.375 -23.782 66.621 -21.006 Q63.867 -18.23 60 -18.23 Z M60 -54.855 Q61.675 -54.855 62.962 -56.077 Q64.25 -57.299 64.25 -59.105 Q64.25 -60.78 62.962 -62.067 Q61.675 -63.355 59.938 -63.355 Q58.2 -63.355 56.975 -62.067 Q55.75 -60.78 55.75 -59.042 Q55.75 -57.305 56.972 -56.08 Q58.194 -54.855 60 -54.855 Z"/></g><g id="Bold-S" transform="matrix(1 0 0 1 2294.23 696)"><path d="M39.253 13.589 H27.221 Q24.666 13.589 22.787 11.786 Q20.909 9.982 20.909 7.347 Q20.909 4.713 22.787 2.839 Q24.666 0.965 27.221 0.965 H39.253 Q41.807 0.965 43.686 2.838 Q45.565 4.711 45.565 7.257 Q45.565 9.94 43.686 11.765 Q41.807 13.589 39.253 13.589 Z M67.46 13.589 H55.427 Q52.873 13.589 50.994 11.786 Q49.115 9.982 49.115 7.347 Q49.115 4.713 50.994 2.839 Q52.873 0.965 55.427 0.965 H67.46 Q70.014 0.965 71.893 2.838 Q73.772 4.711 73.772 7.257 Q73.772 9.94 71.893 11.765 Q70.014 13.589 67.46 13.589 Z M20.909 -3.769 Q16.286 -3.769 13.32 -7.252 Q10.356 -10.735 11.046 -15.308 L20.711 -69.464 Q21.333 -73.038 24.052 -75.338 Q26.77 -77.639 30.278 -77.639 H64.402 Q67.88 -77.639 70.706 -75.359 Q73.533 -73.078 74.166 -69.453 L83.733 -15.308 Q84.423 -10.726 81.545 -7.247 Q78.667 -3.769 74.166 -3.769 H20.909 Z M47.34 -21.127 Q52.764 -21.127 56.463 -24.796 Q60.161 -28.465 60.161 -33.849 Q60.161 -39.332 56.463 -43.001 Q52.764 -46.67 47.34 -46.67 Q41.916 -46.67 38.217 -43.001 Q34.519 -39.332 34.519 -33.849 Q34.519 -28.465 38.217 -24.796 Q41.916 -21.127 47.34 -21.127 Z M47.319 -31.384 Q46.346 -31.384 45.61 -32.18 Q44.874 -32.975 44.874 -33.885 Q44.874 -34.794 45.631 -35.604 Q46.388 -36.413 47.361 -36.413 Q48.334 -36.413 49.07 -35.597 Q49.806 -34.78 49.806 -33.842 Q49.806 -32.904 49.049 -32.144 Q48.292 -31.384 47.319 -31.384 Z M47.223 -51.404 Q49.253 -51.404 50.614 -52.676 Q51.975 -53.947 51.975 -56.019 Q51.975 -58.091 50.635 -59.383 Q49.295 -60.675 47.313 -60.675 Q45.332 -60.675 44.018 -59.404 Q42.705 -58.133 42.705 -56.061 Q42.705 -53.988 44.004 -52.696 Q45.302 -51.404 47.223 -51.404 Z"/></g><g id="Semibold-S" transform="matrix(1 0 0 1 1998.1 696)"><path d="M39.467 12.303 H27.221 Q24.906 12.303 23.229 10.671 Q21.552 9.039 21.552 6.683 Q21.552 4.328 23.229 2.646 Q24.906 0.965 27.221 0.965 H39.467 Q41.781 0.965 43.459 2.637 Q45.136 4.308 45.136 6.614 Q45.136 8.997 43.459 10.65 Q41.781 12.303 39.467 12.303 Z M67.46 12.303 H55.213 Q52.899 12.303 51.221 10.671 Q49.544 9.039 49.544 6.683 Q49.544 4.328 51.221 2.646 Q52.899 0.965 55.213 0.965 H67.46 Q69.774 0.965 71.451 2.637 Q73.128 4.308 73.128 6.614 Q73.128 8.997 71.451 10.65 Q69.774 12.303 67.46 12.303 Z M20.651 -3.769 Q16.293 -3.769 13.538 -7.026 Q10.785 -10.283 11.432 -14.536 L21.054 -69.373 Q21.62 -72.68 24.174 -74.859 Q26.727 -77.038 30.02 -77.038 H64.66 Q67.939 -77.038 70.555 -74.888 Q73.173 -72.738 73.78 -69.367 L83.647 -14.536 Q84.295 -10.274 81.602 -7.021 Q78.911 -3.769 74.681 -3.769 H20.651 Z M47.34 -19.841 Q52.961 -19.841 56.84 -23.703 Q60.718 -27.565 60.718 -33.163 Q60.718 -38.817 56.84 -42.679 Q52.961 -46.542 47.34 -46.542 Q41.719 -46.542 37.84 -42.679 Q33.962 -38.817 33.962 -33.163 Q33.962 -27.565 37.84 -23.703 Q41.719 -19.841 47.34 -19.841 Z M47.319 -29.455 Q45.81 -29.455 44.721 -30.587 Q43.631 -31.72 43.631 -33.192 Q43.631 -34.665 44.741 -35.796 Q45.853 -36.928 47.361 -36.928 Q48.87 -36.928 49.959 -35.783 Q51.049 -34.639 51.049 -33.15 Q51.049 -31.662 49.939 -30.558 Q48.827 -29.455 47.319 -29.455 Z M47.264 -51.276 Q49.211 -51.276 50.529 -52.534 Q51.847 -53.792 51.847 -55.762 Q51.847 -57.731 50.549 -59.01 Q49.252 -60.29 47.334 -60.29 Q45.416 -60.29 44.125 -59.031 Q42.833 -57.773 42.833 -55.803 Q42.833 -53.834 44.107 -52.555 Q45.381 -51.276 47.264 -51.276 Z"/></g><g id="Medium-S" transform="matrix(1 0 0 1 1701.85 696)"><path d="M39.628 11.338 H27.221 Q25.086 11.338 23.561 9.835 Q22.034 8.331 22.034 6.185 Q22.034 4.038 23.561 2.502 Q25.086 0.965 27.221 0.965 H39.628 Q41.762 0.965 43.288 2.485 Q44.814 4.006 44.814 6.131 Q44.814 8.289 43.288 9.814 Q41.762 11.338 39.628 11.338 Z M67.46 11.338 H55.052 Q52.918 11.338 51.392 9.835 Q49.866 8.331 49.866 6.185 Q49.866 4.038 51.392 2.502 Q52.918 0.965 55.052 0.965 H67.46 Q69.594 0.965 71.119 2.485 Q72.646 4.006 72.646 6.131 Q72.646 8.289 71.119 9.814 Q69.594 11.338 67.46 11.338 Z M20.458 -3.769 Q16.298 -3.769 13.702 -6.857 Q11.106 -9.945 11.722 -13.957 L21.312 -69.306 Q21.836 -72.412 24.265 -74.5 Q26.695 -76.588 29.827 -76.588 H64.853 Q67.983 -76.588 70.443 -74.536 Q72.903 -72.484 73.49 -69.303 L83.583 -13.957 Q84.198 -9.935 81.646 -6.852 Q79.094 -3.769 75.066 -3.769 H20.458 Z M47.34 -18.875 Q53.109 -18.875 57.123 -22.882 Q61.137 -26.889 61.137 -32.649 Q61.137 -38.431 57.123 -42.439 Q53.109 -46.446 47.34 -46.446 Q41.571 -46.446 37.557 -42.439 Q33.543 -38.431 33.543 -32.649 Q33.543 -26.889 37.557 -22.882 Q41.571 -18.875 47.34 -18.875 Z M47.319 -28.007 Q45.408 -28.007 44.053 -29.392 Q42.698 -30.777 42.698 -32.673 Q42.698 -34.568 44.075 -35.941 Q45.45 -37.314 47.361 -37.314 Q49.272 -37.314 50.627 -35.923 Q51.982 -34.534 51.982 -32.631 Q51.982 -30.729 50.605 -29.368 Q49.23 -28.007 47.319 -28.007 Z M47.296 -51.18 Q49.178 -51.18 50.464 -52.428 Q51.751 -53.677 51.751 -55.568 Q51.751 -57.461 50.485 -58.73 Q49.22 -60 47.35 -60 Q45.479 -60 44.205 -58.751 Q42.929 -57.502 42.929 -55.611 Q42.929 -53.718 44.185 -52.449 Q45.44 -51.18 47.296 -51.18 Z"/></g><g id="Regular-S" transform="matrix(1 0 0 1 1405.73 696)"><path d="M39.746 10.631 H27.221 Q25.218 10.631 23.803 9.221 Q22.388 7.812 22.388 5.819 Q22.388 3.826 23.803 2.395 Q25.218 0.965 27.221 0.965 H39.746 Q41.748 0.965 43.163 2.375 Q44.579 3.784 44.579 5.777 Q44.579 7.771 43.163 9.201 Q41.748 10.631 39.746 10.631 Z M67.46 10.631 H54.934 Q52.932 10.631 51.517 9.221 Q50.102 7.812 50.102 5.819 Q50.102 3.826 51.517 2.395 Q52.932 0.965 54.934 0.965 H67.46 Q69.462 0.965 70.877 2.375 Q72.292 3.784 72.292 5.777 Q72.292 7.771 70.877 9.201 Q69.462 10.631 67.46 10.631 Z M20.317 -3.769 Q16.301 -3.769 13.821 -6.732 Q11.342 -9.696 11.934 -13.532 L21.5 -69.256 Q21.993 -72.214 24.333 -74.236 Q26.671 -76.258 29.686 -76.258 H64.994 Q68.016 -76.258 70.36 -74.278 Q72.704 -72.296 73.278 -69.256 L83.535 -13.532 Q84.127 -9.686 81.677 -6.727 Q79.228 -3.769 75.35 -3.769 H20.317 Z M47.34 -18.168 Q53.217 -18.168 57.33 -22.282 Q61.443 -26.394 61.443 -32.271 Q61.443 -38.148 57.33 -42.261 Q53.217 -46.375 47.34 -46.375 Q41.463 -46.375 37.35 -42.261 Q33.237 -38.148 33.237 -32.271 Q33.237 -26.394 37.35 -22.282 Q41.463 -18.168 47.34 -18.168 Z M47.319 -26.945 Q45.113 -26.945 43.564 -28.516 Q42.014 -30.087 42.014 -32.292 Q42.014 -34.498 43.584 -36.048 Q45.155 -37.597 47.361 -37.597 Q49.567 -37.597 51.116 -36.027 Q52.666 -34.456 52.666 -32.251 Q52.666 -30.044 51.096 -28.495 Q49.525 -26.945 47.319 -26.945 Z M47.319 -51.109 Q49.155 -51.109 50.417 -52.35 Q51.68 -53.592 51.68 -55.427 Q51.68 -57.263 50.438 -58.525 Q49.196 -59.788 47.361 -59.788 Q45.525 -59.788 44.263 -58.546 Q43.001 -57.304 43.001 -55.469 Q43.001 -53.633 44.242 -52.371 Q45.484 -51.109 47.319 -51.109 Z"/></g><g id="Light-S" transform="matrix(1 0 0 1 1109.75 696)"><path d="M40.352 9.644 H27.221 Q25.638 9.644 24.506 8.518 Q23.374 7.392 23.374 5.818 Q23.374 4.243 24.506 3.098 Q25.638 1.952 27.221 1.952 H40.352 Q41.935 1.952 43.068 3.078 Q44.199 4.204 44.199 5.778 Q44.199 7.353 43.068 8.498 Q41.935 9.644 40.352 9.644 Z M67.46 9.644 H54.328 Q52.745 9.644 51.612 8.518 Q50.481 7.392 50.481 5.818 Q50.481 4.243 51.612 3.098 Q52.745 1.952 54.328 1.952 H67.46 Q69.042 1.952 70.174 3.078 Q71.306 4.204 71.306 5.778 Q71.306 7.353 70.174 8.498 Q69.042 9.644 67.46 9.644 Z M21.455 -3.769 Q17.932 -3.769 15.738 -6.371 Q13.542 -8.975 14.021 -12.357 L23.245 -68.08 Q23.674 -70.689 25.722 -72.487 Q27.772 -74.285 30.445 -74.285 H64.235 Q66.9 -74.285 68.967 -72.532 Q71.035 -70.779 71.534 -68.08 L81.411 -12.357 Q81.889 -8.965 79.746 -6.367 Q77.604 -3.769 74.211 -3.769 H21.455 Z M47.34 -18.472 Q52.648 -18.472 56.306 -22.13 Q59.964 -25.788 59.964 -31.096 Q59.964 -36.403 56.306 -40.061 Q52.648 -43.719 47.34 -43.719 Q42.032 -43.719 38.374 -40.061 Q34.716 -36.403 34.716 -31.096 Q34.716 -25.788 38.374 -22.13 Q42.032 -18.472 47.34 -18.472 Z M47.319 -25.277 Q44.91 -25.277 43.216 -26.997 Q41.521 -28.718 41.521 -31.133 Q41.521 -33.549 43.236 -35.232 Q44.952 -36.915 47.361 -36.915 Q49.77 -36.915 51.464 -35.201 Q53.159 -33.489 53.159 -31.084 Q53.159 -28.679 51.444 -26.978 Q49.728 -25.277 47.319 -25.277 Z M47.319 -50.653 Q48.889 -50.653 50.019 -51.743 Q51.148 -52.832 51.148 -54.441 Q51.148 -56.011 50.039 -57.141 Q48.931 -58.27 47.342 -58.27 Q45.753 -58.27 44.643 -57.161 Q43.532 -56.053 43.532 -54.464 Q43.532 -52.875 44.621 -51.764 Q45.71 -50.653 47.319 -50.653 Z"/></g><g id="Thin-S" transform="matrix(1 0 0 1 814.015 696)"><path d="M40.96 8.658 H27.221 Q26.057 8.658 25.209 7.815 Q24.36 6.973 24.36 5.816 Q24.36 4.66 25.209 3.799 Q26.057 2.938 27.221 2.938 H40.96 Q42.124 2.938 42.972 3.781 Q43.82 4.623 43.82 5.78 Q43.82 6.936 42.972 7.797 Q42.124 8.658 40.96 8.658 Z M67.46 8.658 H53.72 Q52.556 8.658 51.708 7.815 Q50.86 6.973 50.86 5.816 Q50.86 4.66 51.708 3.799 Q52.556 2.938 53.72 2.938 H67.46 Q68.623 2.938 69.471 3.781 Q70.32 4.623 70.32 5.78 Q70.32 6.936 69.471 7.797 Q68.623 8.658 67.46 8.658 Z M22.593 -3.769 Q19.563 -3.769 17.653 -6.011 Q15.743 -8.254 16.106 -11.18 L24.99 -66.903 Q25.355 -69.163 27.113 -70.738 Q28.871 -72.313 31.203 -72.313 H63.477 Q65.785 -72.313 67.575 -70.787 Q69.366 -69.262 69.789 -66.903 L79.287 -11.18 Q79.652 -8.244 77.815 -6.006 Q75.98 -3.769 73.073 -3.769 H22.593 Z M47.34 -18.774 Q52.079 -18.774 55.281 -21.978 Q58.485 -25.18 58.485 -29.919 Q58.485 -34.658 55.281 -37.861 Q52.079 -41.064 47.34 -41.064 Q42.601 -41.064 39.399 -37.861 Q36.195 -34.658 36.195 -29.919 Q36.195 -25.18 39.399 -21.978 Q42.601 -18.774 47.34 -18.774 Z M47.319 -23.607 Q44.707 -23.607 42.867 -25.478 Q41.028 -27.348 41.028 -29.974 Q41.028 -32.601 42.888 -34.416 Q44.748 -36.231 47.361 -36.231 Q49.973 -36.231 51.813 -34.377 Q53.652 -32.523 53.652 -29.918 Q53.652 -27.313 51.792 -25.46 Q49.932 -23.607 47.319 -23.607 Z M47.319 -50.198 Q48.624 -50.198 49.62 -51.134 Q50.617 -52.071 50.617 -53.455 Q50.617 -54.76 49.641 -55.756 Q48.666 -56.753 47.323 -56.753 Q45.981 -56.753 45.021 -55.777 Q44.063 -54.801 44.063 -53.459 Q44.063 -52.117 44.999 -51.157 Q45.936 -50.198 47.319 -50.198 Z"/></g><g id="Ultralight-S" transform="matrix(1 0 0 1 517.792 696)"><path d="M41.324 8.066 H27.221 Q26.308 8.066 25.631 7.394 Q24.952 6.72 24.952 5.816 Q24.952 4.91 25.631 4.22 Q26.308 3.53 27.221 3.53 H41.324 Q42.236 3.53 42.915 4.202 Q43.592 4.876 43.592 5.78 Q43.592 6.686 42.915 7.376 Q42.236 8.066 41.324 8.066 Z M67.46 8.066 H53.356 Q52.444 8.066 51.766 7.394 Q51.088 6.72 51.088 5.816 Q51.088 4.91 51.766 4.22 Q52.444 3.53 53.356 3.53 H67.46 Q68.372 3.53 69.05 4.202 Q69.728 4.876 69.728 5.78 Q69.728 6.686 69.05 7.376 Q68.372 8.066 67.46 8.066 Z M23.276 -3.769 Q20.542 -3.769 18.802 -5.795 Q17.062 -7.822 17.358 -10.475 L26.037 -66.198 Q26.362 -68.247 27.947 -69.689 Q29.531 -71.129 31.659 -71.129 H63.021 Q65.115 -71.129 66.74 -69.741 Q68.365 -68.351 68.742 -66.198 L78.012 -10.475 Q78.308 -7.812 76.657 -5.79 Q75.005 -3.769 72.391 -3.769 H23.276 Z M47.34 -18.957 Q51.738 -18.957 54.667 -21.887 Q57.597 -24.816 57.597 -29.214 Q57.597 -33.612 54.667 -36.541 Q51.738 -39.471 47.34 -39.471 Q42.942 -39.471 40.013 -36.541 Q37.083 -33.612 37.083 -29.214 Q37.083 -24.816 40.013 -21.887 Q42.942 -18.957 47.34 -18.957 Z M47.319 -22.606 Q44.584 -22.606 42.658 -24.567 Q40.732 -26.526 40.732 -29.279 Q40.732 -32.033 42.679 -33.927 Q44.627 -35.822 47.361 -35.822 Q50.096 -35.822 52.022 -33.882 Q53.948 -31.942 53.948 -29.218 Q53.948 -26.494 52.001 -24.55 Q50.053 -22.606 47.319 -22.606 Z M47.319 -49.925 Q48.464 -49.925 49.382 -50.769 Q50.299 -51.615 50.299 -52.863 Q50.299 -54.008 49.402 -54.925 Q48.506 -55.843 47.311 -55.843 Q46.117 -55.843 45.249 -54.946 Q44.381 -54.05 44.381 -52.855 Q44.381 -51.661 45.225 -50.793 Q46.071 -49.925 47.319 -49.925 Z"/></g></g></svg>