<svg xmlns="http://www.w3.org/2000/svg" height="20" viewBox="0 -960 960 960" width="20"><path d="m204.76-63.8-68.85-44.74q41.72-84.53 57.44-179.89Q209.07-383.8 209.07-480q0-95.43-15.72-190.8t-57.44-179.9l68.85-44.74q14.96 28.72 26.44 58.8 11.47 30.07 21.19 60.51h82.41q62.63 0 106.43 44.15 43.79 44.15 43.79 106.78v290.4q0 62.87-43.79 106.9-43.8 44.03-106.43 44.03h-82.41q-9.72 31.44-21.31 60.89-11.6 29.46-26.32 59.18ZM721.2-326.91 569.07-480 721.2-633.09l57.65 58.42-52.22 53.17h144.54v83H726.63l52.22 53.93-57.65 57.66Z"/></svg>