<svg xmlns="http://www.w3.org/2000/svg" height="48" viewBox="0 -960 960 960" width="48"><path d="M179.76-31.91 125.3-65.72q56.48-93.02 64.96-198.67 8.48-105.65 8.48-215.61 0-109.46-8.48-214.86-8.48-105.4-64.96-199.16l54.46-34.81q18.22 30.72 31.45 62.56 13.22 31.84 23.2 65.05h79.63q64.92 0 110.6 48.43 45.69 48.42 45.69 116.83v310.42q0 70.15-45.69 118.08-45.68 47.94-110.6 47.94h-79.63q-9.48 33.45-22.95 65.29-13.48 31.84-31.7 62.32Zm547.2-286.89L573.24-480l153.72-160.43 45.74 45.73-73.42 81.63H883v65.64H699.28l73.42 81.39-45.74 47.24Z"/></svg>