<svg xmlns="http://www.w3.org/2000/svg" height="48" viewBox="0 -960 960 960" width="48"><path d="m178.85-35.62-47.69-29.69q57.61-95.23 65-199.81 7.38-104.57 7.38-214.88 0-109.31-7.38-214.58-7.39-105.27-65-200.11L178.85-925q19 31.39 31.8 63.19Q223.46-830 234.08-796h80.46q63.38 0 107.92 46.92Q467-702.15 467-634.38v307.15q0 68.38-44.54 115.81Q377.92-164 314.54-164h-80.46q-10.62 32.61-23.73 64.81-13.12 32.19-31.5 63.57Zm544.92-288.46L576.62-480l147.15-155.92 41 41-76.85 86.23h188.69v58.38H687.92l76.85 84.62-41 41.61ZM246.85-223h67.69q39.15 0 66.61-30.35 27.47-30.34 27.47-74.27v-306.15q0-43.15-27.47-73.5-27.46-30.34-66.61-30.34h-66.69q10.23 62.07 11.65 125.84T260.92-480q0 68-1.73 131.96-1.73 63.96-12.34 125.04Zm14.07-257Z"/></svg>