<svg xmlns="http://www.w3.org/2000/svg" height="40" viewBox="0 -960 960 960" width="40"><path d="m197.2-81.82-27.97-18.41q52.69-91.49 58.23-184.59Q233-377.92 233-480q0-101.08-5.54-194.56-5.54-93.49-58.23-184.21l27.97-18.56q16.44 29.2 28.15 58.21 11.7 29.02 19.85 59.12h81.93q55.18.08 93.54 40.88 38.36 40.81 38.36 99.35v279.8q0 58.61-38.36 99.33t-93.54 40.72H245.2q-8.15 29.59-19.47 59.24-11.32 29.65-28.53 58.86Zm511.21-267.77L584.56-480l123.85-129.49 24.1 24.18-82.59 88.39h190.9v33.84h-190.9l82.59 89.23-24.1 24.26Z"/></svg>