<svg xmlns="http://www.w3.org/2000/svg" height="40" viewBox="0 -960 960 960" width="40"><path d="M180.67-1 94.33-57.33q54-89.67 67.17-200.84Q174.67-369.33 174.67-480q0-110-13.17-221.17-13.17-111.16-67.17-202.16l86.34-56.34q18.66 30.34 33.33 63.34 14.67 33 25 66.33h71.33q73.34 0 126.17 54.33 52.83 54.34 52.83 132v327.34q0 78.33-52.83 132.16-52.83 53.84-126.17 53.84H239q-10.33 34-25.17 66.33Q199-31.67 180.67-1Zm549.66-289.67L547.33-480l183-190 74.34 74L749-533.33h159.33v106H749l55.67 61.66-74.34 75Zm-466 54.67h46.34q30.33 0 51.16-23.33 20.84-23.34 20.84-58.34V-642q0-35-20.84-58.17-20.83-23.16-51.16-23.16H265q10 61 12.33 122 2.34 61 2.34 121.33T277-358.5q-2.67 61.17-12.67 122.5Zm15.34-244Z"/></svg>