<svg xmlns="http://www.w3.org/2000/svg" height="40" viewBox="0 -960 960 960" width="40"><path d="m172.67-13.33-69-43.34q55.66-94.66 67-203.33Q182-368.67 182-480q0-110.33-11.33-219.5-11.34-109.17-67-203.5l69-44.33q18.33 30.33 31 61.5 12.66 31.16 23.66 64.5h81.34q70.33 0 119.66 51.16 49.34 51.17 49.34 124.84v329.66q0 74.34-49.34 125.84-49.33 51.5-119.66 51.5h-81.34q-11 32.33-24.16 63.5-13.17 31.16-30.5 61.5ZM732-305 563.67-480 732-655l58.67 58.67-67.34 75H901v84H723.33l67.34 73L732-305Zm-484.33 82h60.66q35.67 0 60.5-27.17 24.84-27.16 24.84-65.83v-328.67q0-38.66-24.84-65.66-24.83-27-60.5-27h-60q11 63 14 127.33t3 130q0 65.67-3.16 130-3.17 64.33-14.5 127Zm17.66-257Z"/></svg>