<svg xmlns="http://www.w3.org/2000/svg" height="40" viewBox="0 -960 960 960" width="40"><path d="m177.19-6.36-78.8-50.68q54.73-91.84 67.1-201.92Q177.86-369.04 177.86-480q0-110.15-12.37-220.44-12.37-110.3-67.1-202.75l78.8-51.11q18.52 30.33 32.32 62.53 13.79 32.2 24.42 65.54h75.68q72.03 0 123.34 52.95 51.31 52.96 51.31 128.89v328.35q0 76.59-51.31 129.41-51.31 52.82-123.34 52.82h-75.68q-10.63 33.27-24.73 65.1-14.11 31.83-32.01 62.35ZM731.06-296.9 554.43-480l176.63-183.48 67.52 67.33-60.74 68.03h167.3v96.44h-167.3l60.74 66.59-67.52 68.19Zm-473.97 66.55h52.56q32.65 0 55.23-25 22.57-25 22.57-61.59v-326.22q0-36.59-22.57-61.43-22.58-24.83-55.23-24.83h-51.9q10.44 61.87 13.06 124.32 2.62 62.45 2.62 125.1 0 62.65-2.88 125.2-2.88 62.54-13.46 124.45ZM273.43-480Z"/></svg>