<svg xmlns="http://www.w3.org/2000/svg" height="40" viewBox="0 -960 960 960" width="40"><path d="m189.77-63.74-41.82-26.88q52.18-91.74 60.28-188.62 8.1-96.89 8.1-200.76 0-102.87-8.1-199.95-8.1-97.08-60.28-188.43l41.82-27.29q16.05 28.44 27.82 57.2 11.77 28.75 20.18 58.47h83.46q59.92.21 101.94 44.03 42.01 43.82 42.01 106.59v298.89q0 62.98-42.01 106.83-42.02 43.86-101.94 43.86h-83.46q-8.41 29.47-19.99 58.54-11.57 29.08-28.01 57.52Zm527.1-272.39L578.28-480l138.59-143.08 35.38 35.59-77.46 82.36h186.29v50.26H674.79l77.46 82.95-35.38 35.79Z"/></svg>