<svg xmlns="http://www.w3.org/2000/svg" height="24" viewBox="0 -960 960 960" width="24"><path d="m192.76-44.8-75.85-49.74q45.72-87.53 60.44-186.39Q192.07-379.8 192.07-480q0-99.43-14.72-198.3t-60.44-186.4l75.85-49.74q13.96 25.72 24.94 52.3 10.97 26.57 19.69 54.01h81.41q68.63 1 117.43 49.65 48.79 48.65 48.79 118.28v322.4q0 68.87-48.79 117.9-48.8 49.03-117.43 49.03h-81.41q-8.72 27.44-19.81 53.89-11.1 26.46-24.82 52.18ZM721.2-310.91 553.07-480 721.2-649.09l63.65 64.42-58.22 59.17h160.54v91H726.63l58.22 59.93-63.65 63.66Zm-459.42 68.28h56.79q31.32 0 53.39-22.42 22.06-22.43 22.06-53.99v-321.68q0-31.56-22.06-53.99-22.07-22.42-53.39-22.42h-57.55q12.52 58.76 17.66 118.54 5.15 59.79 5.15 118.59 0 59.57-4.76 119.09-4.77 59.52-17.29 118.28ZM283.83-480Z"/></svg>