<svg xmlns="http://www.w3.org/2000/svg" height="40" viewBox="0 -960 960 960" width="40"><path d="M185.17-4.5 102-57.83q55.17-89.5 66.92-200.75T180.67-480q0-110-11.75-221T102-902.5l83.17-54.17q19.83 32 34 65.67 14.16 33.67 25.66 69h68.67q72.5.17 123.58 54.33Q488.17-713.5 488.17-638v315.5q0 77.17-51.09 130.42Q386-138.83 313.5-138.83H245q-11.17 36-25.75 69.5T185.17-4.5Zm541.66-288.67L548.33-480l178.5-186.67L797.67-596l-55.84 65.17H900.5v101.33H741.83l55.84 64.33-70.84 72Zm-458.66 53.5h45q30.66 0 51.83-24.33 21.17-24.33 21.17-59.83v-312.5q0-35-21.17-59.34Q343.83-720 313.17-720H269q9.5 59.5 11.17 119.5 1.66 60 1.66 120.5 0 59.67-2.25 120.25t-11.41 120.08ZM281.83-480Z"/></svg>