<svg xmlns="http://www.w3.org/2000/svg" version="1.1" width="3300" height="2000"><g id="Notes"><style>
    text {
      font-family: monospace;
      text-anchor: middle;
    }
    text.emphasis {
      font-weight:bold;
    }
    text.lanchor {
      text-anchor: start;
    }
  </style><rect height="2200" id="artboard" fill="white" width="3300" x="0" y="0"/><line id="" style="fill:none;stroke:black;stroke-width:0.5;" x1="263" x2="3036" y1="292" y2="292"/><text class="lanchor emphasis" transform="matrix(1 0 0 1 263 322)">Weight/Scale Variations</text><text transform="matrix(1 0 0 1 559.711 322)">Ultralight</text><text transform="matrix(1 0 0 1 856.422 322)">Thin</text><text transform="matrix(1 0 0 1 1153.13 322)">Light</text><text transform="matrix(1 0 0 1 1449.84 322)">Regular</text><text transform="matrix(1 0 0 1 1746.56 322)">Medium</text><text transform="matrix(1 0 0 1 2043.27 322)">Semibold</text><text transform="matrix(1 0 0 1 2339.98 322)">Bold</text><text transform="matrix(1 0 0 1 2636.69 322)">Heavy</text><text transform="matrix(1 0 0 1 2933.4 322)">Black</text><text id="template-version" style="text-anchor: end;" transform="matrix(1 0 0 1 3036 1933)">Template v.1.0</text><text class="lanchor" transform="matrix(1 0 0 1 263 726)">Small</text><text class="lanchor" transform="matrix(1 0 0 1 263 1156)">Medium</text><text class="lanchor" transform="matrix(1 0 0 1 263 1586)">Large</text></g><g id="Guides"><g id="H-reference" style="fill:#27AAE1;stroke:none;" transform="matrix(1 0 0 1 339 696)"><path d="M 54.9316 0 L 57.666 0 L 30.5664 -70.459 L 28.0762 -70.459 L 0.976562 0 L 3.66211 0 L 12.9395 -24.4629 L 45.7031 -24.4629 Z M 29.1992 -67.0898 L 29.4434 -67.0898 L 44.8242 -26.709 L 13.8184 -26.709 Z"/></g><line id="Baseline-S" style="fill:none;stroke:#27AAE1;opacity:1;stroke-width:0.577;" x1="263" x2="3036" y1="696" y2="696"/><line id="Capline-S" style="fill:none;stroke:#27AAE1;opacity:1;stroke-width:0.577;" x1="263" x2="3036" y1="625.541" y2="625.541"/><g id="H-reference" style="fill:#27AAE1;stroke:none;" transform="matrix(1 0 0 1 339 1126)"><path d="M 54.9316 0 L 57.666 0 L 30.5664 -70.459 L 28.0762 -70.459 L 0.976562 0 L 3.66211 0 L 12.9395 -24.4629 L 45.7031 -24.4629 Z M 29.1992 -67.0898 L 29.4434 -67.0898 L 44.8242 -26.709 L 13.8184 -26.709 Z"/></g><line id="Baseline-M" style="fill:none;stroke:#27AAE1;opacity:1;stroke-width:0.577;" x1="263" x2="3036" y1="1126" y2="1126"/><line id="Capline-M" style="fill:none;stroke:#27AAE1;opacity:1;stroke-width:0.577;" x1="263" x2="3036" y1="1055.54" y2="1055.54"/><g id="H-reference" style="fill:#27AAE1;stroke:none;" transform="matrix(1 0 0 1 339 1556)"><path d="M 54.9316 0 L 57.666 0 L 30.5664 -70.459 L 28.0762 -70.459 L 0.976562 0 L 3.66211 0 L 12.9395 -24.4629 L 45.7031 -24.4629 Z M 29.1992 -67.0898 L 29.4434 -67.0898 L 44.8242 -26.709 L 13.8184 -26.709 Z"/></g><line id="Baseline-L" style="fill:none;stroke:#27AAE1;opacity:1;stroke-width:0.577;" x1="263" x2="3036" y1="1556" y2="1556"/><line id="Capline-L" style="fill:none;stroke:#27AAE1;opacity:1;stroke-width:0.577;" x1="263" x2="3036" y1="1485.54" y2="1485.54"/><rect height="119.336" id="left-margin" style="fill:darkred;stroke:none;opacity:0.4;" width="12.4512" x="1394.06" y="1030.79"/><rect height="119.336" id="right-margin" style="fill:darkgreen;stroke:none;opacity:0.4;" width="12.4512" x="1502.5112" y="1030.79"/><rect x="1406.5112" y="1045" width="96" height="96" fill="none" stroke="blue" stroke-dasharray="5"/><rect x="1394.06" y="1030.79" width="120.9024" height="119.336" fill="none" stroke="blue"/></g><g id="Symbols"><g id="Bold-L" transform="matrix(1 0 0 1 2266 1556)"><path d="M36.926 20.724  8.707 -7.656  19.35 -18.137  29.348 -8.301 V-84.089 H44.666 V-8.301 L54.503 -18.137 L65.145 -7.656 L36.926 20.724 Z M76.755 13.629 V-1.69 H146.093 V13.629 H76.755 Z M76.755 -27.651 V-42.809 H146.093 V-27.651 H76.755 Z M76.755 -68.77 V-84.089 H146.093 V-68.77 H76.755 Z"/></g><g id="Semibold-L" transform="matrix(1 0 0 1 1970.27 1556)"><path d="M36.996 18.69  10.53 -7.937  19.49 -16.735  30.61 -5.847 V-82.547 H43.475 V-5.847 L54.433 -16.735 L63.392 -7.937 L36.996 18.69 Z M77.666 12.087 V-0.779 H144.27 V12.087 H77.666 Z M77.666 -28.843 V-41.617 H144.27 V-28.843 H77.666 Z M77.666 -69.681 V-82.547 H144.27 V-69.681 H77.666 Z"/></g><g id="Medium-L" transform="matrix(1 0 0 1 1674.31 1556)"><path d="M37.049 17.165  11.897 -8.146  19.595 -15.683  31.557 -4.007 V-81.389 H42.581 V-4.007 L54.38 -15.683 L62.078 -8.146 L37.049 17.165 Z M78.35 10.929 V-0.095 H142.903 V10.929 H78.35 Z M78.35 -29.736 V-40.724 H142.903 V-29.736 H78.35 Z M78.35 -70.365 V-81.389 H142.903 V-70.365 H78.35 Z"/></g><g id="Regular-L" transform="matrix(1 0 0 1 1378.56 1556)"><path d="M37.087 16.048  12.9 -8.301  19.672 -14.912  32.25 -2.657 V-80.541 H41.925 V-2.657 L54.341 -14.912 L61.114 -8.301 L37.087 16.048 Z M78.851 10.081 V0.406 H141.9 V10.081 H78.851 Z M78.851 -30.392 V-40.067 H141.9 V-30.392 H78.851 Z M78.851 -70.866 V-80.541 H141.9 V-70.866 H78.851 Z"/></g><g id="Light-L" transform="matrix(1 0 0 1 1082.77 1556)"><path d="M38.079 12.574  16.125 -9.356  21.285 -14.292  34.42 -1.603 V-77.565 H41.74 V-1.603 L54.838 -14.292 L59.935 -9.356 L38.079 12.574 Z M79.657 7.105 V-0.215 H138.675 V7.105 H79.657 Z M79.657 -31.508 V-38.827 H138.675 V-31.508 H79.657 Z M79.657 -70.121 V-77.44 H138.675 V-70.121 H79.657 Z"/></g><g id="Thin-L" transform="matrix(1 0 0 1 787.282 1556)"><path d="M39.072 9.101  19.35 -10.41  22.898 -13.672  36.591 -0.548 V-74.588 H41.553 V-0.548 L55.333 -13.672 L58.756 -10.41 L39.072 9.101 Z M80.464 4.128 V-0.834 H135.45 V4.128 H80.464 Z M80.464 -32.626 V-37.587 H135.45 V-32.626 H80.464 Z M80.464 -69.378 V-74.34 H135.45 V-69.378 H80.464 Z"/></g><g id="Ultralight-L" transform="matrix(1 0 0 1 491.205 1556)"><path d="M39.668 7.018  21.285 -11.042  23.865 -13.3  37.894 0.084 V-72.801 H41.441 V0.084 L55.631 -13.3 L58.05 -11.042 L39.668 7.018 Z M80.948 2.341 V-1.206 H133.515 V2.341 H80.948 Z M80.948 -33.295 V-36.842 H133.515 V-33.295 H80.948 Z M80.948 -68.931 V-72.479 H133.515 V-68.931 H80.948 Z"/></g><g id="Bold-M" transform="matrix(1 0 0 1 2281.8 1126)"><path d="M29.875 9.645  5.625 -14.605  16.625 -25.605  22 -20.23 V-73.855 H37.75 V-20.23 L43.125 -25.605 L54.125 -14.605 L29.875 9.645 Z M57.875 3.395 V-12.355 H114.25 V3.395 H57.875 Z M57.875 -27.355 V-43.105 H114.25 V-27.355 H57.875 Z M57.875 -58.105 V-73.855 H114.25 V-58.105 H57.875 Z"/></g><g id="Semibold-M" transform="matrix(1 0 0 1 1985.97 1126)"><path d="M29.929 7.525  7.527 -14.876  16.788 -24.137  23.304 -17.73 V-72.279 H36.555 V-17.73 L43.071 -24.137 L52.331 -14.876 L29.929 7.525 Z M58.799 1.819 V-11.431 H112.403 V1.819 H58.799 Z M58.799 -28.605 V-41.855 H112.403 V-28.605 H58.799 Z M58.799 -59.029 V-72.279 H112.403 V-59.029 H58.799 Z"/></g><g id="Medium-M" transform="matrix(1 0 0 1 1689.91 1126)"><path d="M29.97 5.936  8.954 -15.08  16.91 -23.037  24.282 -15.855 V-71.096 H35.657 V-15.855 L43.03 -23.037 L50.986 -15.08 L29.97 5.936 Z M59.491 0.636 V-10.739 H111.016 V0.636 H59.491 Z M59.491 -29.542 V-40.917 H111.016 V-29.542 H59.491 Z M59.491 -59.721 V-71.096 H111.016 V-59.721 H59.491 Z"/></g><g id="Regular-M" transform="matrix(1 0 0 1 1394.06 1126)"><path d="M30 4.77  10 -15.23  17 -22.23  25 -14.48 V-70.23 H35 V-14.48 L43 -22.23 L50 -15.23 L30 4.77 Z M60 -0.23 V-10.23 H110 V-0.23 H60 Z M60 -30.23 V-40.23 H110 V-30.23 H60 Z M60 -60.23 V-70.23 H110 V-60.23 H60 Z"/></g><g id="Light-M" transform="matrix(1 0 0 1 1098.18 1126)"><path d="M30.433 2.03  12.5 -15.807  17.769 -21.027  26.683 -12.46 V-67.97 H34.182 V-12.46 L43.144 -21.027 L48.365 -15.807 L30.433 2.03 Z M60.914 -2.49 V-9.99 H107.5 V-2.49 H60.914 Z M60.914 -31.432 V-38.931 H107.5 V-31.432 H60.914 Z M60.914 -60.374 V-67.874 H107.5 V-60.374 H60.914 Z"/></g><g id="Thin-M" transform="matrix(1 0 0 1 802.565 1126)"><path d="M30.865 -0.711  15 -16.384  18.539 -19.826  28.365 -10.441 V-65.711 H33.365 V-10.441 L43.289 -19.826 L46.731 -16.384 L30.865 -0.711 Z M61.828 -4.749 V-9.749 H105 V-4.749 H61.828 Z M61.828 -32.634 V-37.634 H105 V-32.634 H61.828 Z M61.828 -60.519 V-65.519 H105 V-60.519 H61.828 Z"/></g><g id="Ultralight-M" transform="matrix(1 0 0 1 506.415 1126)"><path d="M31.125 -2.355  16.5 -16.73  19 -19.105  29.375 -9.23 V-64.355 H32.875 V-9.23 L43.375 -19.105 L45.75 -16.73 L31.125 -2.355 Z M62.375 -6.105 V-9.605 H103.5 V-6.105 H62.375 Z M62.375 -33.355 V-36.855 H103.5 V-33.355 H62.375 Z M62.375 -60.605 V-64.105 H103.5 V-60.605 H62.375 Z"/></g><g id="Bold-S" transform="matrix(1 0 0 1 2294.23 696)"><path d="M23.571 -2.98  6.016 -20.535  14.103 -28.622  17.753 -24.874 V-61.76 H29.39 V-24.874 L32.941 -28.622 L41.127 -20.535 L23.571 -2.98 Z M45.663 -8.7 V-20.338 H88.565 V-8.7 H45.663 Z M45.663 -29.411 V-41.049 H88.565 V-29.411 H45.663 Z M45.663 -50.122 V-61.76 H88.565 V-50.122 H45.663 Z"/></g><g id="Semibold-S" transform="matrix(1 0 0 1 1998.1 696)"><path d="M23.614 -4.652  7.517 -20.749  14.232 -27.464  18.781 -22.902 V-60.516 H28.447 V-22.902 L32.898 -27.464 L39.711 -20.749 L23.614 -4.652 Z M46.392 -9.944 V-19.609 H87.108 V-9.944 H46.392 Z M46.392 -30.397 V-40.063 H87.108 V-30.397 H46.392 Z M46.392 -50.851 V-60.516 H87.108 V-50.851 H46.392 Z"/></g><g id="Medium-S" transform="matrix(1 0 0 1 1701.85 696)"><path d="M23.646 -5.906  8.643 -20.91  14.328 -26.596  19.553 -21.422 V-59.583 H27.739 V-21.422 L32.866 -26.596 L38.65 -20.91 L23.646 -5.906 Z M46.939 -10.877 V-19.062 H86.014 V-10.877 H46.939 Z M46.939 -31.137 V-39.323 H86.014 V-31.137 H46.939 Z M46.939 -51.398 V-59.583 H86.014 V-51.398 H46.939 Z"/></g><g id="Regular-S" transform="matrix(1 0 0 1 1405.73 696)"><path d="M23.67 -6.826  9.468 -21.028  14.399 -25.959  20.12 -20.338 V-58.9 H27.221 V-20.338 L32.842 -25.959 L37.872 -21.028 L23.67 -6.826 Z M47.34 -11.56 V-18.661 H85.212 V-11.56 H47.34 Z M47.34 -31.679 V-38.78 H85.212 V-31.679 H47.34 Z M47.34 -51.799 V-58.9 H85.212 V-51.799 H47.34 Z"/></g><g id="Light-S" transform="matrix(1 0 0 1 1109.75 696)"><path d="M24.011 -8.988  11.441 -21.484  15.006 -25.01  21.447 -18.744 V-57.117 H26.575 V-18.744 L32.956 -25.01 L36.582 -21.484 L24.011 -8.988 Z M48.061 -13.343 V-18.472 H83.24 V-13.343 H48.061 Z M48.061 -32.628 V-37.756 H83.24 V-32.628 H48.061 Z M48.061 -51.912 V-57.041 H83.24 V-51.912 H48.061 Z"/></g><g id="Thin-S" transform="matrix(1 0 0 1 814.015 696)"><path d="M24.352 -11.151  13.413 -21.938  15.613 -24.063  22.774 -17.151 V-55.335 H25.93 V-17.151 L33.07 -24.063 L35.293 -21.938 L24.352 -11.151 Z M48.782 -15.125 V-18.281 H81.267 V-15.125 H48.782 Z M48.782 -33.576 V-36.732 H81.267 V-33.576 H48.782 Z M48.782 -52.027 V-55.183 H81.267 V-52.027 H48.782 Z"/></g><g id="Ultralight-S" transform="matrix(1 0 0 1 517.792 696)"><path d="M24.558 -12.448  14.597 -22.211  15.977 -23.494  23.571 -16.195 V-54.265 H25.544 V-16.195 L33.138 -23.494 L34.519 -22.211 L24.558 -12.448 Z M49.214 -16.195 V-18.168 H80.084 V-16.195 H49.214 Z M49.214 -34.145 V-36.118 H80.084 V-34.145 H49.214 Z M49.214 -52.095 V-54.067 H80.084 V-52.095 H49.214 Z"/></g></g></svg>