<svg xmlns="http://www.w3.org/2000/svg" height="40" viewBox="0 -960 960 960" width="40"><path d="M518.66-322.7q33.19-15.23 42.14-47.86 8.95-32.64-10.53-60.07-43.86-57.5-88.16-118.32-44.3-60.81-86.97-122.48-9.68-13.72-25.72-6.45-16.04 7.26-11.05 23.32 18.73 73.47 37.02 145.68 18.29 72.21 35.2 142.76 7.41 33.74 41.01 46.96 33.59 13.22 67.06-3.54ZM198.08-150.67q-22.9 0-42.33-10.42t-30.86-29.95q-27.84-47.49-40.77-100.87-12.93-53.38-12.93-109.52-.73-83.46 32.19-157.4 32.93-73.94 89.16-129.6 56.24-55.66 130.92-88.1 74.68-32.44 157.34-32.44 84.34 0 158.95 32.22 74.61 32.23 129.94 87.87Q825.02-633.23 857-558.5q31.97 74.73 31.97 159.22 0 55.56-14.15 107.98t-40.96 100.26q-10.49 19.91-30.44 30.14-19.95 10.23-42.09 10.23H198.08Z"/></svg>