<svg xmlns="http://www.w3.org/2000/svg" height="20" viewBox="0 -960 960 960" width="20"><path d="M515.51-329.48q30.49-15 37.51-48.64t-8.74-56.48q-37.56-52.01-75.92-109.62-38.35-57.61-78.51-115.85-12.75-19.19-33.08-9.59-20.34 9.59-14.86 30.03 17.7 68.39 35.61 136.08 17.91 67.7 33.21 130.4 7.75 32.67 40.51 46.17t64.27-2.5ZM185.72-163.46q-25.06 0-46.21-12.47-21.14-12.48-34.34-35.16-20.24-35.48-30.35-77.27-10.12-41.79-10.12-95.82 0-83.82 29.4-148.98 29.4-65.17 70.73-116.93 10-11.95 31.05-11.69 21.05.26 36.75 19.33 16.94 20.08 11.32 44.63-5.62 24.56-17.86 40.23-27.85 38.81-42.04 81.16-14.18 42.34-14.18 94.19 0 32.76 5.4 57.57 5.4 24.8 15.88 56.04h577.72q10.5-32.52 15.38-53.19 4.88-20.66 4.88-60.42 0-70.52-30.64-132.57-30.64-62.06-84.4-105.71-38.33-30.37-79.04-47.13-40.7-16.76-88.55-22.48-20.48-1.48-35.58-16.96-15.11-15.49-17.3-36.86-2.19-21.37 12.77-37.6 14.96-16.23 35.15-14.99 66.76 3.71 128.67 27.83 61.9 24.12 113.66 66.12 70.48 56.72 110.46 138.87 39.97 82.15 39.97 179.39 0 54.48-10.73 96.86-10.74 42.38-29.98 76.38-12.48 21.96-33.77 34.8-21.29 12.83-46.78 12.83H185.72Zm295.04-232.3Z"/></svg>