<svg xmlns="http://www.w3.org/2000/svg" height="20" viewBox="0 -960 960 960" width="20"><path d="M510.25-343q26.25-13 34.75-44.25t-6.5-52.25Q501-493 461-550.25T379.57-665.5q-8.77-13-22.92-6-14.15 7-10.15 21 16.19 68.3 33.85 136.15Q398-446.5 415.19-383.36q7.81 29.86 37.06 41.61 29.25 11.75 58-1.25ZM195.5-201q-17.5 0-32-8t-24-24q-18-31.5-26-68.01-8-36.52-8-85.99 0-81 30.5-147.5T215-651q8.5-8 22.25-6.75T261-644q10 12.5 6.75 27.75T254.5-591.5q-38.5 42-60.25 94T172.5-385q0 31 5 58.25t18 58.75H765q12-32.5 17-56t5-60.78q0-69.72-30.25-131.47T673-621.44Q628-658 579.25-674.5T475-691.5q-13.05.5-23.02-8.9-9.98-9.4-11.98-22.84-2-13.43 7.5-24.35Q457-758.5 470-758.5q67.5-2 131.25 19.5T718-674.5q63.16 51.64 99.58 125.58T854-387q0 49.75-8.75 86.63Q836.5-263.5 820-233q-10.5 16-24.5 24t-31.5 8H195.5Zm284-203.5Z"/></svg>