<svg xmlns="http://www.w3.org/2000/svg" height="48" viewBox="0 -960 960 960" width="48"><path d="M515.8-331q28.2-13.46 36.66-42.42 8.46-28.96-8.35-54.08-44.15-58.65-88.36-119.36-44.22-60.7-86.63-122.64-7.12-8.61-17.62-4-10.5 4.62-6.61 15.23 18.8 73.04 37.23 145.29 18.42 72.25 37.07 143.15 6.89 30.68 37.02 42.29 30.13 11.62 59.59-3.46ZM196.5-183.27q-13.78 0-25.16-5.79-11.37-5.79-18.76-17.63-24.66-43.89-36.83-92.9-12.17-49.01-12.17-100.87-.5-76.54 29.74-144.81 30.23-68.28 82.42-119.7 52.18-51.41 120.83-81.68 68.65-30.27 145.1-30.27 77.79 0 146.08 29.9 68.29 29.91 119.23 81.12 50.94 51.21 80.44 119.81 29.5 68.61 29.5 146.63 0 51.58-13.17 99.73-13.17 48.15-37.14 91.5-6.19 12.04-18.31 18.5-12.13 6.46-24.61 6.46H196.5Z"/></svg>