<svg xmlns="http://www.w3.org/2000/svg" height="40" viewBox="0 -960 960 960" width="40"><path d="M517.56-323.55q32.05-14.91 43.42-48.45 11.37-33.55-8.89-62.64-45.55-61.84-91.81-124.26-46.27-62.43-92.16-125.39-9.64-12.77-24.15-5.92-14.51 6.84-10.61 22.28 18.23 75.64 36.74 150.63 18.51 75 38.14 149.75 8.43 34.92 41.62 47.62 33.19 12.7 67.7-3.62ZM196.01-153.3q-21.08 0-39.1-9.75-18.01-9.75-29.14-28.11-27.31-47.89-41.01-100.97-13.71-53.09-13.71-108.96.09-82.34 33.16-155.79 33.07-73.44 89.2-129.02 56.13-55.59 129.85-88.15 73.73-32.57 155.83-32.57 84.36 0 158.17 32.02 73.82 32.02 128.9 87.69 55.09 55.67 86.77 129.57 31.69 73.89 31.69 158.25 0 55.46-14.24 107.71-14.24 52.25-40.8 100.22-10.22 18.52-28.82 28.19-18.59 9.67-38.76 9.67H196.01Z"/></svg>