<svg xmlns="http://www.w3.org/2000/svg" height="48" viewBox="0 -960 960 960" width="48"><path d="M519.26-323.5q32.24-15 42.24-48t-9.5-61q-48-62.5-96.83-127.92Q406.34-625.83 359.5-692q-7.5-9-18-4t-7 16q19 79 38 157.5t37.97 155.14Q418-333 451.5-319.75t67.76-3.75ZM194-164.5q-17 0-32.75-8T137-196q-27.48-46.41-39.74-98.27Q85-346.13 85-399.5q0-91.5 36.25-167.25T218.5-696.5q7.5-6.5 19.75-5.5T258-690q7 10.5 4.25 23t-10.75 19.5q-50.5 47-79.75 110t-29.25 138q0 47.34 11.25 92.42T190.14-222h579.74q24.12-40.5 35.87-85.25Q817.5-352 817.5-399.46q0-78.88-33.66-146.81-33.66-67.94-90.34-115.23Q638-708 569.25-726.75T429.5-734q-11.5 2-20.5-4.4t-12-17.91q-3-11.5 2.5-21.59 5.5-10.1 16-12.6Q500-805 583-782.75T732-705q65.66 55.64 104.33 133.99Q875-492.65 875-399.42q0 53.44-13.75 104.93-13.75 51.49-39.3 98.69-8.95 15.3-23.7 23.3t-32.25 8H194ZM484.5-393Z"/></svg>