<svg xmlns="http://www.w3.org/2000/svg" height="40" viewBox="0 -960 960 960" width="40"><path d="M511.45-339.31q23.92-11.84 31.04-36.68 7.11-24.84-7.17-46.82-39.32-54.14-78.21-109.23-38.88-55.09-76.35-111.77-7.14-9.05-18.07-4.41-10.93 4.64-6.75 15.51 18.29 65.77 36.06 130.72 17.77 64.95 35.8 128.81 6.61 26.81 33.07 36.67 26.46 9.87 50.58-2.8ZM201.53-202.54q-10.4 0-19.5-4.64-9.11-4.64-12.4-11.34-25.3-45.1-35.91-89.03-10.6-43.93-10.6-92.58 0-75.38 27.75-139.64 27.76-64.26 75.44-112.54 3.46-4 11.01-3.72 7.55.27 12.27 6.88 3.87 5.75 2.58 12.91t-5.25 11.35q-43.4 44.71-67.39 101.55-23.98 56.84-23.98 123.21 0 42.59 10.78 84.78 10.78 42.18 34.31 80.38h559.03q22.17-37.3 33.62-79.32 11.45-42.03 11.45-85.78 0-76.35-32.72-141.47t-87.66-110.49q-50.46-41.66-110.74-59.74-60.27-18.08-124.26-11.58-6.91.99-11.68-2.67-4.76-3.66-5.76-10.58-1-6.93 2.84-11.98 3.83-5.05 9.8-7.05 71.4-7.15 140.07 13.01 68.68 20.16 123.99 66.86 59.79 49.76 94.17 121.23 34.39 71.47 34.39 154.41 0 55.33-13.75 99.83-13.75 44.51-33.57 78.94-5.36 9.66-13.61 14.23-8.25 4.58-17.48 4.58H201.53ZM484.78-392.4Z"/></svg>