<svg xmlns="http://www.w3.org/2000/svg" height="24" viewBox="0 -960 960 960" width="24"><path d="M514-331q26-13 30-37.5T534-413q-36-50-71.01-103.16Q427.98-569.32 394-624q-10-15-25-8t-10 22q20 62 38 124t33 121q6 26 33.5 37t50.5-3ZM197-188q-13.9 0-25.95-6.5Q159-201 155-210q-26-48-38-92.97T105-398q0-74 25-132.5T191-636q3-5 13.5-5.5T224-631q10 12 5.5 25t-9.5 21q-31 41-46 85.5T159-398q0 42 11.02 81 11.01 39 31.05 75h556.86q20.03-36 31.05-74T800-398q0-75-32.5-139T681-646q-46-35-95.5-52.5T480-716q-10.07-1-17.04-9-6.96-8-7.96-19.5t7.5-19Q471-771 481-771q65-1 127 21t112 64q63 51 98.5 125.83T854-398q0 59-15.5 105T804-214q-6 12-17.33 19-11.33 7-24.67 7H197Zm289-194Z"/></svg>