<svg xmlns="http://www.w3.org/2000/svg" height="20" viewBox="0 -960 960 960" width="20"><path d="M512.15-341.31Q536-354 537.73-379.54q1.73-25.54-8.88-40.84-32.08-45.54-65.04-98.39-32.96-52.85-66.5-107.46-9.69-15.69-24.85-8.23-15.15 7.46-10.15 21.84 19.54 60.77 37.15 121.93 17.62 61.15 30.54 115.38 5.69 24.54 32.92 36.12 27.23 11.57 49.23-2.12ZM179.23-200q-13.23 0-24.5-7t-17.65-18q-18.16-34.38-24.73-74.12-6.58-39.73-6.58-81.34-1.77-79.08 26.88-149.04 28.66-69.96 78.89-120.69 50.23-50.73 119.81-80.27Q400.92-760 479-760q78.54 0 147.62 29.92 69.07 29.93 119.3 80.66 50.23 50.73 80.16 120.3Q856-459.54 856-382q0 40.85-7.08 80.96-7.07 40.12-27.77 72.96-6.61 12.54-17.38 20.31T780-200H179.23Z"/></svg>