<svg xmlns="http://www.w3.org/2000/svg" height="40" viewBox="0 -960 960 960" width="40"><path d="M519.68-320.67q34.49-15.66 41.99-48.08t-11.84-59.42Q508-482.33 465.95-541.19q-42.06-58.87-82.12-118.64-10.83-16.34-29.91-7.84-19.09 8.5-13.09 27.17Q360-569.5 378-500.33q18 69.16 33.02 136.24 6.98 33.59 41.23 47.17 34.25 13.59 67.43-3.75ZM197.5-138.5q-26.09 0-48.27-12.08-22.19-12.09-35.06-34.09-29-48.5-42-103.54-13-55.05-13-112.79Q58-487.5 91.65-563.76q33.64-76.26 91.33-133.58 57.69-57.33 134.9-90.49Q395.09-821 480.37-821q86.8 0 163.8 33.17 77 33.16 134 90.33t89.91 134.44Q901-485.8 901-398.84q0 57.01-14.58 111.09-14.59 54.08-42.42 103.08-11.5 22.67-34.35 34.42-22.84 11.75-48.32 11.75H197.5Z"/></svg>