<svg xmlns="http://www.w3.org/2000/svg" height="40" viewBox="0 -960 960 960" width="40"><path d="M514.39-332.32q27.71-13.26 36.69-42.14 8.97-28.87-8-53.86-42.91-57.99-85.97-117.21-43.05-59.23-84.81-119.62-7.66-9.69-19.16-4.54-11.51 5.15-7.59 16.92 18.23 71.22 36.45 141.78 18.22 70.55 36.88 139.91 7.33 30.48 36.93 41.78 29.6 11.31 58.58-3.02ZM200.18-184.27q-14.12 0-27-6.4-12.88-6.41-18.95-17.93-26.31-45.6-37.78-93.19-11.47-47.58-11.47-98.27 0-80.2 30.12-148.91 30.13-68.71 82.55-119.68 6.32-6.5 16.8-5.91 10.49.6 17.09 9.32 6.02 8.13 4.67 18.33-1.35 10.2-7.84 16.71-44.78 45.03-70.14 103.53-25.37 58.5-25.37 126.61 0 43.73 10.81 86.56 10.8 42.83 34.78 81.35h563.34q22.63-38.07 34.11-80.66 11.47-42.6 11.47-87.18 0-76.75-32.87-142.49-32.87-65.75-88.15-111.53-51.23-42.5-113.08-60.71-61.85-18.2-126.92-10.87-9.79 1.24-17.09-4.37-7.3-5.61-9.13-15.43-1.83-9.81 3.25-17.74 5.08-7.93 14.07-9.93 75.95-9.08 149.49 12.25 73.55 21.33 132.7 71.02 62.65 52.52 99.13 127.22 36.49 74.71 36.49 162.54 0 54.6-13.75 102.24-13.75 47.65-36.27 87.85-7.41 12.93-19.45 19.3-12.04 6.37-25.74 6.37H200.18Zm283.96-209.35Z"/></svg>