<svg xmlns="http://www.w3.org/2000/svg" height="20" viewBox="0 -960 960 960" width="20"><path d="M513.83-335.15Q541-349 545.61-378.77q4.62-29.77-8.69-48.92-35.54-49.77-71.78-105.86-36.24-56.08-73.92-113.06-11.11-16.85-28.09-8.62-16.98 8.23-11.98 24.92 18.47 65.69 36.43 131.11 17.96 65.43 32.67 124.9 6.6 28.91 36.71 41.45 30.12 12.54 56.87-2.3ZM184.62-188q-19.29 0-34.72-9.69-15.44-9.7-24.36-25.31-18.85-34.62-27.88-71.93-9.04-37.32-9.04-89.07 0-83.62 30.19-146.15 30.19-62.54 70.11-111.46 5.77-6.39 21.04-6.08 15.27.31 27.46 16.38 13.2 17.08 6.35 36.43Q236.92-575.54 228-565q-30.77 40.38-46.08 83.92-15.3 43.54-15.3 99.08 0 33 6 59 6.01 26 16.02 57h582.33q11.02-33 16.02-54.5Q792-342 792-382q0-71-31-133.5t-85-106.94q-42.31-32.71-85.96-49.52-43.66-16.81-95.58-20.66-14.84-1-25.54-12.8-10.69-11.81-12.3-27.81-1.62-16 10.84-27.69 12.46-11.69 27.23-10.69 64.31 2.23 124.5 24.88t109.89 63.12q66.53 52.92 103.73 130.46Q870-475.61 870-384q0 54-10.5 92.42-10.5 38.43-26.42 67.04-9.7 16.77-24.72 26.65Q793.34-188 774-188H184.62Zm297.53-204.92Z"/></svg>