<svg xmlns="http://www.w3.org/2000/svg" height="20" viewBox="0 -960 960 960" width="20"><path d="M510.97-341.57q26.96-13.23 34.51-44.36 7.54-31.14-7.22-51.9-36.06-51.34-74.75-107.28-38.68-55.93-78.2-112.74-9.73-14.91-25.79-7.07-16.06 7.83-11.35 23.75 16.44 66.62 33.85 132.56t33.41 126.68q7.57 29.63 37.18 41.73 29.61 12.11 58.36-1.37Zm-315.71 148.7q-19.41 0-35.71-8.96-16.29-8.95-27.22-27.1-18.48-32.46-26.84-70.29-8.36-37.83-8.36-87.78 0-81.48 30.14-146.9 30.14-65.43 75.77-115.19 8.5-8.95 24.41-8.06 15.9.89 27.81 15.54 12.15 14.65 8.19 32.53-3.97 17.88-14.45 29.3-34.91 40.56-54.39 88.98-19.48 48.41-19.48 105.8 0 31 4.52 56.82 4.52 25.81 17.52 57.31h565.92q11.52-32.26 16.28-54.45 4.76-22.18 4.76-59.46 0-69-29.89-130.39-29.89-61.4-83.15-104.12-43.09-34.64-88.97-50.79-45.88-16.14-98.75-18.07-15.44-.22-26.85-11.18-11.41-10.95-13.65-26.78-2.24-15.82 8.93-28.41 11.18-12.59 26.09-12.11 67.02-.57 129.94 21.29 62.91 21.86 115.43 64.62 64.36 52.6 101.62 128.45 37.25 75.85 37.25 165.27 0 50.71-9.23 88.9-9.23 38.19-25.97 69.17-11.21 17.67-27.36 26.86-16.16 9.2-35.57 9.2H195.26ZM479.5-402.59Z"/></svg>