<svg xmlns="http://www.w3.org/2000/svg" height="48" viewBox="0 -960 960 960" width="48"><path d="M515.08-332.38q26.3-12.93 31.96-38.47 5.65-25.53-8.96-47.93-40.54-54.22-79.32-111.27-38.78-57.04-77.53-115.26-6.46-10.23-19.58-4.91-13.11 5.32-8.34 16.6 20 67.7 38.34 134.5 18.35 66.81 34.81 131.74 6.46 28.3 34.54 39.23 28.08 10.92 54.08-4.23ZM195.15-188q-12.25 0-23.47-6.15-11.22-6.16-15.83-14.93-26.18-46.37-37.51-92.46Q107-347.64 107-398.77q0-80.69 29.85-145.42 29.84-64.73 75.53-113.58 2.62-3.38 12.35-3.15 9.73.23 15.65 8.88 6.16 8.89 2.54 19.62-3.61 10.73-8 16.88-40.61 43.69-62.38 97.31-21.77 53.61-21.77 119.46 0 44.15 11.13 86.35 11.13 42.19 33.61 80.65H764.6q21.37-38.69 33-80.38 11.63-41.7 11.63-86.62 0-77.53-33.37-143.35t-88.55-112.19q-50.69-40.92-110.54-59.15-59.85-18.23-122.23-12.31-9.67 1.23-15.65-4.31-5.97-5.54-7.43-15.17-1.46-9.63 4.12-15.84 5.57-6.22 14.19-8.22 72.46-6.61 142.65 14.58 70.2 21.19 126.96 68.5 61.85 50.85 97.74 125.67Q853-485.73 853-398.77q0 57.54-15 104.12-15 46.57-34.85 82.5-6.15 11.84-16.6 18-10.44 6.15-21.7 6.15h-569.7Zm290.62-198.69Z"/></svg>