<svg xmlns="http://www.w3.org/2000/svg" height="48" viewBox="0 -960 960 960" width="48"><path d="M518.54-324.69q30.15-14.46 37.73-44.23 7.58-29.77-9.73-55.63-44.77-58.45-88.17-120.3-43.39-61.86-86.75-124.3-7.23-10.62-20.54-4.91-13.31 5.71-8.93 17.75 20 73.85 38.93 147 18.92 73.16 36.15 144.62 7.23 32.15 38.77 44.61 31.54 12.46 62.54-4.61ZM192.08-168q-16.11 0-30.98-8.08-14.87-8.08-22.18-21.46-27.32-47.14-39.62-97.27Q87-344.94 87-398.38q0-86.85 32.92-156.97 32.93-70.11 84.77-122.03 5.31-5.7 17.93-5.08 12.61.62 20.07 11.19 8.08 11.19 4.27 24.81-3.81 13.61-10.5 21.69-43.31 44.85-67.19 101.16-23.88 56.3-23.88 125.23 0 46.07 11.31 89.42 11.31 43.34 34.56 82.57h577.59q22.14-39.84 33.95-82.69 11.81-42.84 11.81-89.3 0-78.69-33.75-145.66-33.75-66.98-89.71-114.11-51.84-42.46-114.77-61.08-62.92-18.62-127.61-11.15-12.34 1.61-20.82-5.66-8.49-7.27-10.72-19.59-2.23-12.33 4.31-21.42 6.54-9.1 17.85-11.1 78.23-9.31 154.57 13.04 76.35 22.34 137.73 73.5 64.92 53.92 103.12 132.4Q873-490.73 873-398.38q0 56.76-15 106.8t-37.92 92.5q-8.08 14.92-22.18 23T767.92-168H192.08Zm293.3-219.85Z"/></svg>