<svg xmlns="http://www.w3.org/2000/svg" height="40" viewBox="0 -960 960 960" width="40"><path d="M509.68-343.5q21.65-11 27.65-33.42 6-22.41-6.66-42.58-37.17-51.83-73.56-104.44-36.38-52.61-71.28-107.06-6.83-8.67-17.41-4.33-10.59 4.33-6.25 14.66 18.33 62.5 35.83 124.09 17.5 61.58 35.16 122.13 6.17 24.62 30.75 33.62 24.57 9 45.77-2.67Zm-307.35 130q-8.16 0-15-3.58-6.83-3.59-8.46-7.4-24.69-44.79-34.78-86.53T134-400.17q0-72.5 26.33-134.08 26.34-61.58 71.17-108.25 1.75-2.5 7.54-2.42 5.79.09 9.38 5.42 2.58 4.33 1.33 9.67-1.25 5.33-3.71 8.12-42.57 44.53-65.72 100.37t-23.15 121.17q0 41.9 10.76 83.7 10.77 41.8 34.03 79.8h556.43q21.91-36.83 33.34-78.51 11.44-41.68 11.44-84.95 0-76.1-32.63-140.84-32.64-64.74-87.37-109.86-50-41.17-109.34-59.17-59.33-18-122.66-12-5.19.83-8.43-1.65-3.24-2.49-3.74-7.69-.5-5.19 2.58-8.51 3.09-3.32 7.25-5.32 68.67-6 134.42 13.46Q649-712.25 702-667.33q58.08 48.08 91.21 117.62 33.12 69.54 33.12 149.53 0 55.77-13.75 98.39t-31.95 73.59q-4.13 7.7-10.11 11.2-5.97 3.5-12.52 3.5H202.33Zm282.84-178.17Z"/></svg>