<svg xmlns="http://www.w3.org/2000/svg" height="40" viewBox="0 -960 960 960" width="40"><path d="M513.33-335q24.67-12.33 29-35.83 4.34-23.5-9-43.5-37.33-51.34-73-105-35.66-53.67-71-109.34-7.33-11.66-21-6-13.66 5.67-8.66 18 20 63.34 38 126 18 62.67 33.66 123 6 26 32.5 36.34 26.5 10.33 49.5-3.67Zm-320 144.33q-11 0-19.66-4.66-8.67-4.67-15-13.34-23.34-44-35.17-91.83-11.83-47.83-11.83-99.5-1-75.33 28-143t79.5-117.67q50.5-50 118.33-79.33t143.17-29.33q76.33 0 143.5 29.5 67.16 29.5 116.83 79.33t79 118.33q29.33 68.5 29.33 144.84 0 50.33-12.83 97.5-12.83 47.16-36.17 87.16-4.66 10-14 16-9.33 6-19.66 6H193.33Z"/></svg>