<svg xmlns="http://www.w3.org/2000/svg" height="48" viewBox="0 -960 960 960" width="48"><path d="M520.39-321.24q33.94-15.56 42.24-48.28 8.3-32.72-11.2-60.15-45.73-58.55-91.74-121.7-46-63.16-90.02-127.06-8.63-11.83-22.8-5.42-14.17 6.42-9.54 20.24 19.56 76.18 38.28 151 18.72 74.83 35.42 147.51 6.97 34.36 41.32 47.89 34.34 13.54 68.04-4.03ZM193.43-150.37q-20.39 0-39.25-9.69-18.85-9.7-29.62-28.59-28.61-48.11-41.43-102.23Q70.3-345 70.3-399.5q0-92.07 35.41-165.84 35.4-73.77 91.88-127.77 7.5-8.76 23.7-8.04 16.21.72 26.54 15.11 10.39 14.45 6.51 31.48-3.88 17.02-12.45 27.97-43.72 44.74-69.29 101.24-25.58 56.5-25.58 125.85 0 47.34 10.4 89.87 10.41 42.54 35.54 82.54h573.52q23-39.93 34.47-82.42 11.46-42.49 11.46-89.95 0-77.75-33.09-144.83-33.1-67.09-89.21-113.25Q638-701.22 574.34-719.4q-63.67-18.19-130.14-8.95-15.46.87-27-8.36-11.55-9.22-15.11-24.68-3.57-15.46 4.76-28.38 8.32-12.93 22.78-15.43 83.37-11.67 164.96 11.15 81.58 22.81 147.02 77.75 67.92 57.89 108.01 139.36 40.08 81.46 40.08 177.52 0 55.13-14.6 109.17-14.6 54.03-40.72 101.8-10.64 18.12-29.06 28.1-18.43 9.98-39.32 9.98H193.43ZM484.5-389.61Z"/></svg>