<svg xmlns="http://www.w3.org/2000/svg" height="40" viewBox="0 -960 960 960" width="40"><path d="M521-316.33q34-16 44.17-50.5 10.16-34.5-10.17-63.84-47.67-62.33-94.17-127-46.5-64.66-93.5-130Q357.67-701 342-694q-15.67 7-11.33 22.67 19.33 78 38.5 155.5 19.16 77.5 37.5 153.83Q415-325.67 450-311.83q35 13.83 71-4.5ZM188.33-138.67q-23 0-42.33-10.83T115-180q-27.67-50-41.67-105t-14-113.67q-.66-85 33.34-161.83 34-76.83 92-134.67 58-57.83 134.83-92 76.83-34.16 161.83-34.16 87.34 0 163.84 33.5t133.33 91.16Q835.33-639 868.33-561.5q33 77.5 33 164.83 0 58.34-15 112.84t-42 103.83q-11 19.67-30.66 30.5Q794-138.67 772-138.67H188.33Z"/></svg>