<svg xmlns="http://www.w3.org/2000/svg" height="20" viewBox="0 -960 960 960" width="20"><path d="M512.2-339.61q27.69-13.56 33.93-44.53 6.24-30.97-8.2-51.4-34.1-48.42-70.99-102.56-36.9-54.14-73.87-109.31-10.77-17.52-29.54-8.55-18.77 8.98-13.07 27.5 17.06 64.05 34 127.53 16.93 63.47 31.11 121.32 7.43 28.94 37.53 41.53 30.1 12.6 59.1-1.53ZM194.37-182.28q-22.52 0-42.04-10.8-19.53-10.79-29.79-30.75-21.13-35.19-27.91-77.23-6.78-42.05-6.78-85.37-1.07-82.59 29.56-153.48 30.63-70.89 83.39-123.69 52.76-52.79 124.94-82.92 72.17-30.13 152.69-30.13 81.46 0 153.64 30.41 72.17 30.41 125.21 83.46 53.05 53.04 84.21 124.46 31.16 71.43 31.16 151.89 0 42.76-7.81 84.55-7.82 41.79-29.01 78.05-11.2 19.96-30.47 30.75-19.27 10.8-41.36 10.8H194.37Z"/></svg>