<svg xmlns="http://www.w3.org/2000/svg" height="24" viewBox="0 -960 960 960" width="24"><path d="M518-317q35-16 44.5-50T552-430.32Q513-483 474.33-537.66 435.66-592.33 398-648q-15-23-41-11.5T338-621q18 66 35.5 130.5T406-362q9 35 43 48.5t69-3.5ZM201-117q-30.75 0-59.37-14.5Q113-146 96-176q-30-51-45-108.91T36-398.76Q36-473 58-537q22-64 59-118 14-21 42-22t48 19.5q22 21.5 20.5 50.5T212-554q-20 35-30 73t-10 82q0 41 8.5 75t30.5 71h538.11q17.89-34 28.39-68.5T788-399q0-73-31-135.13-31-62.13-84-103.87-33-27-72-44t-81-23q-27-3-47.21-22.12-20.2-19.13-23-47Q447-802 463.5-823q16.5-21 42.5-20 71 4 136.5 30T763-741q74 62 117.5 150.33 43.5 88.33 43.5 191.3 0 60.99-16.5 118.68Q891-223 863-176q-14 27-43.93 43T758-117H201Zm281-272Z"/></svg>