<svg xmlns="http://www.w3.org/2000/svg" height="24" viewBox="0 -960 960 960" width="24"><path d="M515.15-327.31Q543-341 548.73-368.04q5.73-27.04-9.88-49.34-38.08-52.54-75.05-107.55-36.98-55.01-73.49-111.3-10.69-15.69-26.85-8.23-16.15 7.46-11.15 23.84 19.54 64.77 37.65 129.43 18.12 64.65 34.04 126.88 6.69 28.54 35.92 40.12 29.23 11.57 55.23-3.12ZM197.23-176q-16.67 0-31.49-7.88-14.82-7.89-20.66-20.12-26.7-48.23-39.27-95.39Q93.23-346.56 93.23-398q0-74.23 24.89-134.81 24.88-60.57 62.73-109.42 5.53-7.77 18.57-8.15 13.04-.39 23.43 11.76 11.38 13.16 7.69 28.35Q226.85-595.08 220-585q-30.54 40.77-45.65 85.85-15.12 45.07-15.12 101.15 0 42 11.01 81 11.02 39 31.04 75h556.67q20.02-36 31.04-74Q800-354 800-398q0-75-32.5-139T681-646q-44.62-34.31-93.42-51.92-48.81-17.62-103.66-18.31-12.59-1-21.53-10.62-8.93-9.61-10.16-23.42-1.23-13.81 8.19-23.38 9.43-9.58 21.96-9.58 66.62-.54 130 22.27 63.39 22.81 114.77 65.73 65.08 52.85 101.97 129.87Q866-488.34 866-398q0 59-15.5 106.85-15.5 47.84-36.35 84.07-7.38 14.54-21.6 22.81Q778.34-176 762-176H197.23Zm288.08-207.85Z"/></svg>