<svg xmlns="http://www.w3.org/2000/svg" height="24" viewBox="0 -960 960 960" width="24"><path d="M508.5-344.5q21.5-11 27.5-33.25t-7-41.75q-35.5-50.5-71-102T388.5-626q-7.5-10-18.25-5t-6.75 16q18 60.5 35.5 120.75t34.47 119.23q6.53 23.52 30.6 32.52 24.08 9 44.43-2ZM206-216.5q-8.5 0-15.5-3.25t-8.63-7.4Q157.5-272 147.25-313.17 137-354.35 137-400.5q0-69.5 24.5-129.25t67-105.75q2.42-3.5 8.21-3.25 5.79.25 10.04 5.25 4.25 5 3 10.5t-4.38 9.29q-39.9 43.86-61.38 97.04Q162.5-463.5 162.5-400.5q0 40.34 10.27 80.92Q183.03-279 206.2-242h547.61q21.15-35.5 32.42-76.02 11.27-40.51 11.27-82.32 0-74.66-32.02-138.28-32.03-63.62-85.98-107.88-49-39.5-105-57t-117-13.5q-4.85.5-8.43-2.65-3.57-3.15-4.07-8.74-.5-5.59 3.25-9.35t8.25-4.76q66-5 129.25 14.63Q649-708.25 700-665q57.08 47.42 90.04 116.11Q823-480.21 823-400.56q0 55.31-13.75 97.18Q795.5-261.5 778-231q-4.5 7.5-10.64 11-6.15 3.5-13.36 3.5H206ZM484.5-392Z"/></svg>