<svg xmlns="http://www.w3.org/2000/svg" height="20" viewBox="0 -960 960 960" width="20"><path d="M506.4-354.92q19.72-10.7 23.22-33.87 3.5-23.17-6.12-37.63-31.35-45.81-64.81-97.1-33.46-51.29-66.82-103.9-7.22-10.7-17.91-5.23-10.69 5.46-6.69 15.61 17.35 59.45 34.61 118.65 17.27 59.2 32.18 112.87 5.86 22.02 29.59 31.65 23.73 9.64 42.75-1.05ZM193.58-237.54q-9.04 0-14.7-3.96-5.65-3.96-9.1-9.3-15.97-31.01-22.24-60.72-6.27-29.72-6.27-75.1 0-79.07 30.11-139.23Q201.5-586 244.62-630.62q.74.08 6.83.95 6.09.86 11.28 9.13 5.19 8.27.02 16.41-5.17 8.13-9.12 10.93-40.34 43.43-61.89 94.41-21.55 50.98-21.55 114.17 0 31.26 5.21 58.77 5.2 27.5 18.33 59.39h572.66q12.12-32.5 17.33-56.4 5.2-23.89 5.2-61.58 0-70.44-30.46-132.48-30.46-62.03-84.31-105.67-48.07-38.49-99.32-54.99-51.25-16.5-110.21-15.07-5.25.5-9.13-3.71-3.87-4.21-4.72-10.34-.85-6.12 5.38-10.5 6.23-4.38 11.16-4.38 62.5-2.77 121.63 16.14 59.14 18.9 107.52 59.02 56.95 46.08 89.17 113.57 32.22 67.48 32.22 146.19 0 50.18-8.75 81.28-8.75 31.11-19.87 51.61-5.88 7.92-10.76 12.08-4.88 4.15-12.93 4.15H193.58ZM481.81-399.5Z"/></svg>