<svg xmlns="http://www.w3.org/2000/svg" height="20" viewBox="0 -960 960 960" width="20"><path d="M513.25-337q29.25-14 33.75-44.75t-9.5-50.75q-31.5-44.5-66-96.25T403.57-633.5q-12.77-21-34.92-10.5-22.15 10.5-15.15 32.5 17.19 61.3 33.85 121.15Q404-430.5 416.19-377.36q6.81 28.86 37.56 42.11Q484.5-322 513.25-337ZM194.5-167q-25.5 0-47.5-12t-37.5-37q-20-35.5-29.5-77.51-9.5-42.02-9.5-93.49 0-83 29-145T165-643q8.5-12 31.25-12.25T237-634q19 21.5 12.75 47.75T231.5-542.5q-23.5 36-35.75 73T183.5-385q0 31 3 52.25t16 52.75H757q10-31.5 14-49.5t4-55.28q0-66.72-28.75-126.97T665-612.44Q628-641 591.25-656 554.5-671 510-677.5q-23.05-2.5-39.02-18.4Q455-711.8 452-735.24q-3-23.43 13.5-41.35Q482-794.5 503-792.5q65.5 4 125.75 27t111.25 65q68.16 55.64 108.08 137.58Q888-480.98 888-387q0 53.75-10.75 96.13Q866.5-248.5 849-216q-13.5 23-36.5 36T764-167H194.5Zm285-229.5Z"/></svg>