<svg xmlns="http://www.w3.org/2000/svg" height="24" viewBox="0 -960 960 960" width="24"><path d="M513.5-329q30-14 42.5-46.75t-7.5-60.75Q505-497 461-556.25T372.5-675.5q-9.5-13-24.75-6t-11.25 23Q353-586.5 371-515t37.94 142.78q9.06 33.72 40.31 45.47T513.5-329Zm-305 160q-19.5 0-38-8.5t-28-26.5q-27-45.5-39.5-95.51Q90.5-349.53 90.5-401q0-72 25-140T190-662q12.5-14 28.25-13.25T244.5-664q10.5 10.5 11.75 25.25t-9.75 27.25q-37.5 42-59.25 96.5T165.5-401q0 40 10 80.25t33 76.75H752q21-35.5 32-75.5t11-81.28q0-73.72-31.75-136.97T678-645q-45-37-97.75-54.5T471-715.5q-15 .5-26.5-9.4T431-749.89q-2-15.09 6-27.35 8-12.26 23-13.26 72.5-4 141.75 19t126.25 70q65.16 54.64 103.58 131.71Q870-492.71 870-401q0 54.75-13.75 104.13Q842.5-247.5 818-204q-10.5 18-28.5 26.5T752-169H208.5Zm273-229.5Z"/></svg>