<svg xmlns="http://www.w3.org/2000/svg" height="40" viewBox="0 -960 960 960" width="40"><path d="M520.06-318.22q34.56-16 43.98-49.65 9.41-33.65-10.74-62.42-45.02-58.56-88.89-120.12-43.86-61.56-88.03-123.88-10.05-15.03-28.54-6.99-18.49 8.03-13.41 25.96 19.34 74.23 38.13 147.21 18.79 72.98 35.24 145.36 8.33 35.58 42.77 49.03 34.43 13.46 69.49-4.5ZM191.54-134.15q-25.45 0-46.67-11.86-21.22-11.87-34.2-33.61-28.61-50.19-42.42-105.66-13.82-55.47-13.82-113.95-.66-86.7 33.43-164.28 34.1-77.59 92.85-135.9 58.75-58.3 136.62-92.28 77.87-33.98 163.44-33.98 88.27 0 165.62 33.6 77.35 33.59 134.94 91.82 57.58 58.24 90.96 136.49 33.38 78.25 33.38 166.53 0 58.52-15 113.49-15 54.97-42.76 104.12-11.75 22.68-33.49 34.08-21.74 11.39-46.38 11.39h-576.5Z"/></svg>