<svg xmlns="http://www.w3.org/2000/svg" height="40" viewBox="0 -960 960 960" width="40"><path d="M513.33-335q24.67-12.33 29-35.83 4.34-23.5-9-43.72Q496-465.67 460.32-519.5q-35.68-53.82-70.99-109.17-7.33-11.66-21-5.94-13.66 5.73-8.66 17.94 20 63.34 38 126 18 62.67 33.66 123 6 26 32.5 36.34 26.5 10.33 49.5-3.67ZM197-196q-11.27 0-21.3-5.5-10.03-5.5-13.37-12.5-25.65-46.61-36.82-90.71-11.18-44.11-11.18-93.96 0-76 27-136.5t67-107.5q1.67-3 10.5-3.16 8.84-.17 15.17 8.5 6.67 9 2.83 19.33-3.83 10.33-7.5 16.33-36.33 42.34-55 91.84-18.66 49.5-18.66 111.16 0 42.67 11.01 83.34 11.02 40.66 32.39 78h561.6q20.63-37.34 31.98-77.34 11.35-40 11.35-84 0-76.22-32.93-140.98-32.92-64.75-87.4-110.35-48.67-38.33-103.84-56.17-55.16-17.83-114.5-14.5-8.74.34-14.03-5.33-5.3-5.67-6.3-14.84-1-9.18 5.17-14.67 6.16-5.49 14.16-6.82Q532-766 597-745q65 21 117.67 65 61 49.67 95.83 123.03 34.83 73.37 34.83 158.3 0 58.34-15.16 103.34-15.17 45-33.5 77.33-5.34 10.67-14.62 16.33-9.28 5.67-19.38 5.67H197Zm289-188.67Z"/></svg>