<svg xmlns="http://www.w3.org/2000/svg" height="24" viewBox="0 -960 960 960" width="24"><path d="M509.15-340.31Q533-352 541.73-377.54q8.73-25.54-6.88-47.84-37.08-54.54-75.04-107.89-37.96-53.35-75.5-107.96-8.69-11.69-21.35-5.73-12.65 5.96-8.65 19.34 17.54 63.77 35.15 126.93 17.62 63.15 36.54 126.38 7.69 26.54 33.42 36.12 25.73 9.57 49.73-2.12ZM204.23-200q-11.23 0-20.5-4.5T168.08-218q-24.16-43.38-36.23-90.12-12.08-46.73-12.08-96.34.23-73.08 29.38-138.04 29.16-64.96 78.39-113.19 49.23-48.23 114.31-76.27Q406.92-760 480-760q74.54 0 140.12 28.42 65.57 28.43 114.3 77.16 48.73 48.73 77.16 114.3Q840-474.54 840-400q0 47.85-12.08 93.46-12.07 45.62-35.77 85.46-5.61 10.54-15.38 15.81Q767-200 756-200H204.23Z"/></svg>