<svg xmlns="http://www.w3.org/2000/svg" height="24" viewBox="0 -960 960 960" width="24"><path d="M560-20q-41.03 0-69.67-28.64t-28.64-69.67V-282q0-41.03 28.64-69.67T560-380.31h281.69q41.03 0 69.67 28.64T940-282v163.69q0 41.03-28.64 69.67T841.69-20H560Zm-10-76h301.69q5.39 0 8.85-3.46t3.46-8.85v-63.85H537.69v63.85q0 5.39 3.46 8.85T550-96Zm-12.31-152.15H864V-292q0-5.39-3.46-8.85t-8.85-3.46H550q-5.39 0-8.85 3.46t-3.46 8.85v43.85ZM480-508Zm0-384.46 330 124.31V-468h-86v-241l-244-91.62-244 91.56V-516q0 90 37.5 168.5T374-216v99.23q0 2.31.23 4.61-100.77-59.07-162.5-168.49Q150-390.07 150-516v-252.15l330-124.31Z"/></svg>