<svg xmlns="http://www.w3.org/2000/svg" height="48" viewBox="0 -960 960 960" width="48"><path d="M522.17-70.65q-26.56 0-46.1-19.6-19.53-19.61-19.53-46.27v-218.2q0-26.31 19.53-45.97 19.54-19.66 46.1-19.66h334.37q26.32 0 45.98 19.66 19.65 19.66 19.65 45.97v218.2q0 26.66-19.65 46.27-19.66 19.6-45.98 19.6H522.17Zm-1.67-63.96h337.72v-98.91H520.5v98.91Zm0-159.28h337.72v-62.5H520.5v62.5ZM158.52-523v-238.52L480-882.22 801.72-761.4v283.55H522.17q-49.59 0-86.36 36.77-36.77 36.76-36.77 86.36v218.15q0 6.8 1 13.42t3 13.13q-110.03-56.29-177.28-169.35Q158.52-392.43 158.52-523Z"/></svg>