<svg xmlns="http://www.w3.org/2000/svg" height="48" viewBox="0 -960 960 960" width="48"><path d="M545-29q-37.17 0-64.09-27.21Q454-83.41 454-121v-205q0-36.13 26.91-63.56Q507.83-417 545-417h309q36.13 0 63.56 27.44Q945-362.13 945-326v205q0 37.59-27.44 64.79Q890.13-29 854-29H545Zm-5-85h320v-88H540v88Zm0-158h320v-60H540v60Zm-60-233Zm0-398 343 128v298h-92v-235l-251-94-251 94.45V-523q0 100.49 45 184.74Q319-254 394-204v83q0 8.33 1.5 16.67Q397-96 399-90q-117.61-59.31-189.31-177.02Q138-384.72 138-523v-251.96L480-903Z"/></svg>