<svg xmlns="http://www.w3.org/2000/svg" height="48" viewBox="0 -960 960 960" width="48"><path d="M541.2-37.37q-30.75 0-54.03-23.35t-23.28-54.19V-322.2q0-30.49 23.28-53.9 23.28-23.4 54.03-23.4h322.69q30.5 0 53.9 23.4 23.41 23.41 23.41 53.9v207.29q0 30.84-23.41 54.19-23.4 23.35-53.9 23.35H541.2Zm-5-72.06h332.93v-89.53H536.2v89.53Zm0-158h332.93v-60H536.2v60ZM143.33-523v-249.41L480-899.2l336.91 126.48v313.22H541.2q-55.39 0-96.35 40.96-40.96 40.96-40.96 96.34v207.35q0 7.51 1.12 14.32 1.12 6.81 3.12 12.81-118.67-56.79-191.74-176.48-73.06-119.69-73.06-258.8Z"/></svg>