<svg xmlns="http://www.w3.org/2000/svg" height="48" viewBox="0 -960 960 960" width="48"><path d="M520-132q-22.24 0-38.12-15.88Q466-163.76 466-186v-174q0-22.24 15.88-38.12Q497.76-414 520-414h294q22.24 0 38.12 15.88Q868-382.24 868-360v174q0 22.24-15.88 38.12Q836.24-132 814-132H520Zm0-22h294q14 0 23-9t9-23v-96H488v96q0 14 9 23t23 9Zm-32-150h358v-56q0-14-9-23t-23-9H520q-14 0-23 9t-9 23v56ZM212-518v-205.7L480-824l268 100.33V-508H520q-62.61 0-105.31 42.69Q372-422.61 372-360v166q0 .75 1.5 1-74-53.5-117.75-139.16Q212-417.81 212-518Z"/></svg>