<svg xmlns="http://www.w3.org/2000/svg" height="24" viewBox="0 -960 960 960" width="24"><path d="M515-137q-24.44 0-40.97-16.53-16.53-16.53-16.53-40.97V-365q0-24.44 16.53-40.97Q490.56-422.5 515-422.5h290.5q24.44 0 40.97 16.53Q863-389.44 863-365v170.5q0 24.44-16.53 40.97Q829.94-137 805.5-137H515Zm0-25.5h290.5q14 0 23-9t9-23V-287H483v92.5q0 14 9 23t23 9Zm-32-150h354.5V-365q0-14-9-23t-23-9H515q-14 0-23 9t-9 23v52.5Zm-3-203Zm0-303.5 263.5 98.67V-520H718v-183.64L480-791.5l-238 87.87V-516q0 80.41 31.75 152.96Q305.5-290.5 360-239v36.5-3.5q-65.5-54.5-104.5-135.25T216.5-516v-204.35L480-819Z"/></svg>