<svg xmlns="http://www.w3.org/2000/svg" height="40" viewBox="0 -960 960 960" width="40"><path d="M520-120q-24.58 0-41.52-16.94-16.94-16.94-16.94-41.52V-360q0-24.58 16.94-41.52 16.94-16.94 41.52-16.94h301.54q24.58 0 41.52 16.94Q880-384.58 880-360v181.54q0 24.58-16.94 41.52Q846.12-120 821.54-120H520Zm0-33.85h301.54q10.77 0 17.69-6.92 6.92-6.92 6.92-17.69v-93.85H495.38v93.85q0 10.77 6.93 17.69 6.92 6.92 17.69 6.92Zm-24.62-152.3h350.77V-360q0-10.77-6.92-17.69-6.92-6.93-17.69-6.93H520q-10.77 0-17.69 6.93-6.93 6.92-6.93 17.69v53.85ZM200-518.1v-214.36l280-104.62 280 104.62v224.77H520q-62.23 0-104.96 42.73T372.31-360v175.13q0 2.02.15 3.64.16 1.62 1.13 3.9-78.38-55.03-125.99-145.34Q200-412.97 200-518.1Z"/></svg>