<svg xmlns="http://www.w3.org/2000/svg" height="48" viewBox="0 -960 960 960" width="48"><path d="M516.92-103.08q-22.69 0-39.42-16.73t-16.73-39.42v-203.85q0-22.69 16.73-39.42t39.42-16.73h323.85q22.69 0 39.42 16.73t16.73 39.42v203.85q0 22.69-16.73 39.42t-39.42 16.73H516.92Zm0-43.84h323.85q5.38 0 8.84-3.47 3.47-3.46 3.47-8.84v-100H504.61v100q0 5.38 3.47 8.84 3.46 3.47 8.84 3.47Zm-12.31-156.16h348.47v-60q0-5.38-3.47-8.84-3.46-3.47-8.84-3.47H516.92q-5.38 0-8.84 3.47-3.47 3.46-3.47 8.84v60ZM480-503.73ZM480-856l297.23 111.62v253.61h-43.85v-223.79L480-809.31l-253.38 94.76V-521q0 99.24 44.01 184.68 44.02 85.43 118.6 137.67v36.34q0 3.87.62 8.15.61 4.29 2.42 8.54-94.62-54.73-152.06-156.23t-57.44-219.23v-223.33L480-856Z"/></svg>