<svg xmlns="http://www.w3.org/2000/svg" height="40" viewBox="0 -960 960 960" width="40"><path d="M546.67-20q-42.33 0-71.83-29.7-29.51-29.7-29.51-72.3v-196.67q0-41.62 29.51-71.48Q504.34-420 546.67-420h298.66q41.63 0 71.48 29.85 29.86 29.86 29.86 71.48V-122q0 42.6-29.86 72.3Q886.96-20 845.33-20H546.67Zm-8-93.33h314.66v-80H538.67v80Zm0-156.67h314.66v-56.67H538.67V-270ZM138-520.67v-254.67L480-903l342.67 128.11v291.56h-276q-67.87 0-116.27 48.4-48.4 48.4-48.4 116.26v196.54q0 6.38.83 12.8.84 6.41 2.34 12-111.95-60.82-179.56-175.89T138-520.67Z"/></svg>