<svg xmlns="http://www.w3.org/2000/svg" height="48" viewBox="0 -960 960 960" width="48"><path d="M540-80q-27.78 0-48.08-20.3-20.3-20.3-20.3-48.08V-321q0-27.78 20.3-48.08 20.3-20.3 48.08-20.3h291.62q27.78 0 48.08 20.3Q900-348.78 900-321v172.62q0 27.78-20.3 48.08Q859.4-80 831.62-80H540Zm-5-38.77h301.62q10.76 0 17.69-6.92 6.92-6.93 6.92-17.69v-86.93H510.38v86.93q0 10.76 6.93 17.69 6.92 6.92 17.69 6.92Zm-24.62-150.31h350.85V-326q0-10.77-6.92-17.69-6.93-6.93-17.69-6.93H535q-10.77 0-17.69 6.93-6.93 6.92-6.93 17.69v56.92ZM185-519.15v-223.99l295-111.01 295 110.61v268H540q-64.55 0-109.55 44.99-44.99 45-44.99 109.55v166.08q0 1.56.23 2.51.23.95 1.46 1.56-91.3-54.46-146.73-153.62Q185-403.62 185-519.15Z"/></svg>