<svg xmlns="http://www.w3.org/2000/svg" height="24" viewBox="0 -960 960 960" width="24"><path d="M563.59 7.41q-46.93 0-80.05-33.12-33.13-33.12-33.13-80.05v-173.85q0-46.93 33.13-80.05 33.12-33.12 80.05-33.12h286.82q46.93 0 80.05 33.12 33.13 33.12 33.13 80.05v173.85q0 46.93-33.13 80.05-33.12 33.12-80.05 33.12H563.59ZM552.87-94.8h308.5v-58.33h-308.5v58.33Zm0-155.77h308.5v-40h-308.5v40ZM480-510.63Zm0-406.72 353.83 133.2v311.37H720.65v-233.59L480-796.7l-240.65 90.38V-516q0 86.89 35.7 162.76 35.71 75.87 95.36 128.15v119.33q0 5.24.24 10.6.24 5.36 1 10.59-110.14-62.27-177.81-179.48Q126.17-381.26 126.17-516v-268.24L480-917.35Z"/></svg>