<svg xmlns="http://www.w3.org/2000/svg" height="24" viewBox="0 -960 960 960" width="24"><path d="M542.61-34.78q-44.31 0-75.15-30.85-30.85-30.85-30.85-75.15v-186.44q0-44.3 30.85-75.15 30.84-30.85 75.15-30.85h294q44.3 0 75.15 30.85 30.85 30.85 30.85 75.15v186.44q0 44.3-30.85 75.15-30.85 30.85-75.15 30.85h-294Zm-5.65-100.35h305.3v-68.69h-305.3v68.69Zm0-157.74h305.3v-40h-305.3v40ZM140.78-516v-257.26L480-899.78 819.22-773v259.78H542.61q-77.31 0-131.65 54.35-54.35 54.35-54.35 131.65v186.44q0 7 .28 14t1.72 14q-98.13-63-157.98-171.16Q140.78-392.09 140.78-516Z"/></svg>