<svg xmlns="http://www.w3.org/2000/svg" height="40" viewBox="0 -960 960 960" width="40"><path d="M515.26-104.74q-24.61 0-42.4-17.8-17.8-17.79-17.8-42.4v-199.8q0-24.61 17.8-42.4 17.79-17.8 42.4-17.8h319.8q24.61 0 42.4 17.8 17.8 17.79 17.8 42.4v199.8q0 24.61-17.8 42.4-17.79 17.8-42.4 17.8h-319.8Zm0-47.89h319.8q5.39 0 8.85-3.46t3.46-8.85v-95.96H502.95v95.96q0 5.39 3.46 8.85t8.85 3.46Zm-12.31-156.15h344.42v-55.96q0-5.39-3.46-8.85t-8.85-3.46h-319.8q-5.39 0-8.85 3.46t-3.46 8.85v55.96Zm-318.68-210.6v-223.71L480-854.13l295.73 111.06v242.56H515.26q-56.08 0-95.93 39.84-39.84 39.85-39.84 95.93v196.6q0 3.62.41 7.49t1.92 7.62q-89.32-55.68-143.43-154.11-54.12-98.43-54.12-212.24Z"/></svg>