<svg xmlns="http://www.w3.org/2000/svg" height="20" viewBox="0 -960 960 960" width="20"><path d="M504-116q-30.31 0-47.31-17-17-17-17-47.31V-384q0-30.31 17-47.31 17-17 47.31-17h323.69q30.31 0 47.31 17 17 17 17 47.31v203.69Q892-150 875-133q-17 17-47.31 17H504Zm0-52h323.69q5.39 0 8.85-3.46t3.46-8.85v-99.85H491.69v99.85q0 5.39 3.46 8.85T504-168Zm-12.31-164.15H840V-384q0-5.39-3.46-8.85t-8.85-3.46H504q-5.39 0-8.85 3.46t-3.46 8.85v51.85ZM188-515v-215.15l292-112.31 292 112.31V-528H504q-67.15 0-105.58 38.42Q360-451.15 360-384V-179.27q0 2.06.23 4.11-78.77-57.07-125.5-146.78Q188-411.65 188-515Z"/></svg>