<svg xmlns="http://www.w3.org/2000/svg" height="40" viewBox="0 -960 960 960" width="40"><path d="M520-132q-23.85 0-39.92-16.07Q464-164.15 464-188v-172q0-23.85 16.08-39.92Q496.15-416 520-416h292q23.85 0 39.93 16.08Q868-383.85 868-360v172q0 23.85-16.07 39.93Q835.85-132 812-132H520Zm0-24h292q14 0 23-9t9-23v-94H488v94q0 14 9 23t23 9Zm-32-150h356v-54q0-14-9-23t-23-9H520q-14 0-23 9t-9 23v54Zm-8-205.67ZM480-824l268 100v212h-24v-195.67l-244-91-244 91v190.34q0 86.33 35.83 163.16 35.84 76.84 96.17 128.84V-196l.67.67q-71-54.34-113.84-138.84Q212-418.67 212-517.33V-724l268-100Z"/></svg>