<svg xmlns="http://www.w3.org/2000/svg" height="48" viewBox="0 -960 960 960" width="48"><path d="M518.85-121.15q-22.41 0-38.61-16.2t-16.2-38.61v-185.19q0-22.41 16.2-38.61t38.61-16.2h305.19q22.41 0 38.61 16.2t16.2 38.61v185.19q0 22.41-16.2 38.61t-38.61 16.2H518.85Zm0-30.2h305.19q10.77 0 17.69-6.92 6.92-6.92 6.92-17.69v-97.5H494.23v97.5q0 10.77 6.92 17.69 6.93 6.92 17.7 6.92Zm-24.62-152.3h354.42v-57.5q0-10.77-6.92-17.7-6.92-6.92-17.69-6.92H518.85q-10.77 0-17.7 6.92-6.92 6.93-6.92 17.7v57.5ZM480-507.96ZM480-836l278.96 104.56v229.9h-30.19v-209.94L480-804.12l-248.77 92.65v192.41q0 93.03 39.79 174.16t107.44 132.59v30.19q0 .99.23 3.06.23 2.08 1.85 3.83-81.73-53.96-130.62-145.56-48.88-91.6-48.88-198.36v-212.32L480-836Z"/></svg>