<svg xmlns="http://www.w3.org/2000/svg" height="40" viewBox="0 -960 960 960" width="40"><path d="M555-9q-43.83 0-74.91-31.28Q449-71.57 449-115.67V-308q0-43.13 31.09-74.56Q511.17-414 555-414h294q43.12 0 74.56 31.44Q955-351.13 955-308v192.33q0 44.1-31.44 75.39Q892.12-9 849-9H555Zm-7.67-97.33h310.34v-76.34H547.33v76.34Zm0-157h310.34v-53.34H547.33v53.34ZM480-509.67Zm0-401.66 350.67 131v299.66H724v-226.66l-244-91-244 91.44v186.22q0 92.66 40 171.33 40 78.67 106.33 128.67v105q0 7.56 1.34 15.28 1.33 7.72 2.66 13.72-115.28-61.64-185.8-179.09Q130-383.2 130-520.67v-259.76l350-130.9Z"/></svg>