<svg xmlns="http://www.w3.org/2000/svg" height="48" viewBox="0 -960 960 960" width="48"><path d="M515-85q-22.97 0-40.23-17.27-17.27-17.26-17.27-40.23V-365q0-22.97 17.27-40.23Q492.03-422.5 515-422.5h342.5q22.97 0 40.23 17.27Q915-387.97 915-365v222.5q0 22.97-17.27 40.23Q880.47-85 857.5-85H515Zm0-57.5h342.5V-245H515v102.5Zm0-160h342.5V-365H515v62.5ZM164.5-523v-234.35L480-876l315.5 118.67V-480H515q-46 0-80.5 34.5T400-365v222.5q0 6.75 1 13.25t3 13.25q-107.5-55.5-173.5-166.91-66-111.4-66-240.09Z"/></svg>