<svg xmlns="http://www.w3.org/2000/svg" height="40" viewBox="0 -960 960 960" width="40"><path d="M527.97-64.06q-30.99 0-53.37-22.42-22.38-22.43-22.38-53.49v-208.55q0-30.83 22.38-53.29t53.37-22.46h324.25q30.82 0 53.29 22.46 22.46 22.46 22.46 53.29v208.55q0 31.06-22.46 53.49-22.47 22.42-53.29 22.42H527.97Zm-1.91-73.84h328.07v-89.35H526.06v89.35Zm0-159.2h328.07v-53.33H526.06v53.33ZM153.3-520.67v-244.65L480-887.6l326.86 122.39v274.27H527.97q-57.99 0-100.21 42.21-42.21 42.22-42.21 100.21V-140q0 7.7.71 14.78.7 7.08 2.62 14.58-105.69-58.28-170.63-169.77-64.95-111.5-64.95-240.26Z"/></svg>