<svg xmlns="http://www.w3.org/2000/svg" height="20" viewBox="0 -960 960 960" width="20"><path d="m832.57-338.74 39.34-40.35-45-45-39.34 40.35 45 45Zm-13.31 96.13L690.43-371.43 786-466q8.7-8.7 19.67-13.04 10.98-4.35 22.24-4.35 11.26 0 22.24 4.35 10.98 4.34 19.68 13.04l44 45q8.69 8.7 13.04 19.67 4.35 10.98 4.35 22.24 0 11.83-4.35 22.53-4.35 10.69-13.04 19.39l-94.57 94.56Zm4.22 205.96q-15.7 0-27.83-12.13l-85.61-84.61 4.66-4.65q-6.13 6.13-14.05 9.69-7.91 3.57-17.61 3.57h-61.43q-20.09 0-34.54-14.46-14.46-14.46-14.46-34.54v-61.44q0-9.69 3.56-17.61 3.57-7.91 9.7-14.04l-4.65 4.09L60.09-785.91q-12.13-12.13-12.13-27.83 0-15.7 12.13-27.83 12.13-12.13 28.32-12.13 16.2 0 28.33 12.13L852.31-106q12.13 12.13 11.63 28.61-.5 16.48-12.63 28.61-12.13 12.13-27.83 12.13Zm-648.7-136.13q-40.3 0-69.15-28.28-28.85-28.29-28.85-68.03v-420.13q0-34.52 20.72-60.32 20.72-25.81 53.54-33.72h24l411.83 413.39-57.35 57.35q-14.95 14.95-21.93 32.76-6.98 17.8-6.98 36.89v21.09q0 20.08-14.46 34.54-14.45 14.46-34.54 14.46H174.78Zm464.65-249.65L273.52-787.22h65l60 119.44q5.57 11 16.85 17.78 11.28 6.78 23.85 6.78 25.13 0 37.34-20.85 12.22-20.84 1.22-43.41l-39.87-79.74h116.35l60 119.44q5 11 16.28 17.78 11.29 6.78 23.85 6.78 25.13 0 37.63-20.56 12.5-20.57 1.5-43.13l-40.43-80.31h132.13q41.3 0 69.65 28.85 28.35 28.85 28.35 69.15v89.83q0 19.65-16.81 32.54-16.8 12.89-38.02 10.33-6.87-.44-12.74.35-5.87.78-12.74 2.21-19.82 4.57-36.52 13.42Q749.7-531.7 735-517l-95.57 94.57Z"/></svg>