<svg xmlns="http://www.w3.org/2000/svg" height="20" viewBox="0 -960 960 960" width="20"><path d="m825.07-346.24 39.34-40.35-45-45-39.34 40.35 45 45Zm-18.31 97.63L681.43-374.43 780-471.5q8.2-8.2 18.67-12.54 10.48-4.35 21.74-4.35 10.76 0 21.24 4.1 10.48 4.09 18.68 12.29l44 45.5q8.19 8.2 12.54 18.42 4.35 10.23 4.35 21.49 0 11.83-4.35 21.78-4.35 9.94-12.54 18.14l-97.57 98.06Zm11.97 201.46q-14.45 0-26.08-11.63l-88.61-87.61 1.16-.65q-5.63 5.63-13.05 8.94-7.41 3.32-16.61 3.32h-61.43q-18.59 0-32.54-13.96-13.96-13.96-13.96-32.54v-61.44q0-9.19 3.31-16.61 3.32-7.41 8.95-13.04l-.65.09L70.09-783.41q-11.63-11.63-11.63-26.08 0-14.45 11.63-26.08 11.63-11.63 26.57-11.63 14.95 0 26.58 11.63L845.81-113q11.63 11.63 11.13 27.11-.5 15.48-12.13 27.11-11.63 11.63-26.08 11.63ZM179.78-181.78q-38.3 0-65.65-26.78-27.35-26.79-27.35-64.53v-412.13q0-32.52 19.97-56.82 19.97-24.31 51.29-32.22h26.5l400.33 401.89-56.35 56.35q-14.45 14.45-21.18 31.51-6.73 17.05-6.73 35.14v21.09q0 18.58-13.96 32.54-13.95 13.96-32.54 13.96H179.78Zm454.65-239.65L276.52-778.22h62l58 113.94q5.57 11 16.35 17.53 10.78 6.53 23.35 6.53 24.63 0 36.34-20.35 11.72-20.34 1.22-42.41l-37.37-75.24h126.35l57.5 113.94q5 11 15.78 17.53 10.79 6.53 23.35 6.53 24.63 0 36.88-20.06 12.25-20.07 1.75-42.13l-37.93-75.81h120.13q39.3 0 66.15 27.35 26.85 27.35 26.85 65.65v89.33q0 18.65-16.06 30.79-16.05 12.14-36.27 9.58-6.87-.44-12.24.1-5.37.53-11.74 1.96-18.82 4.07-34.27 12.42Q747.2-532.7 733-518.5l-98.57 97.07Z"/></svg>