<svg xmlns="http://www.w3.org/2000/svg" height="48" viewBox="0 -960 960 960" width="48"><path d="m829.67-346.3 33.05-35.05-37-37-34.05 34.05 38 38ZM809.3-232.56 676.93-364.93 778-466q10.13-9.63 22.21-14.48t25.5-4.85q12.81 0 25.17 5.1 12.36 5.1 22.49 15.23l37 37q9.63 10.07 14.48 22.26 4.85 12.2 4.85 24.64 0 13.01-5.35 25.68-5.35 12.66-14.83 22.15L809.3-232.56Zm47.81 209q-12.85.5-22.48-9.13L721.78-145.54l-22.98 24.48q-5.56 5.06-11.64 7.63-6.07 2.56-12.88 2.56h-80.43q-16.46 0-27.53-11.08-11.08-11.07-11.08-27.53v-80.43q0-6.63 2.56-12.8 2.57-6.16 7.63-11.72l24.48-24.05-548.6-548.6q-9.2-9.2-9.48-22.33-.29-13.13 9.34-22.76 9.63-9.63 22.75-9.63 13.11 0 23.28 9.63L879.98-79.39q9.17 9.74 9.46 22.9.28 13.17-9.6 22.8-9.88 9.63-22.73 10.13ZM147.59-150.37q-31.51 0-54.12-22.04-22.6-22.04-22.6-53.55v-506.95q0-27.43 16.91-47.83 16.9-20.41 43.28-26.06h21.5l441.87 441.87-73.54 73.54q-10.82 10.82-16.99 25.57-6.16 14.75-6.16 30.06v46.78q0 16.46-11.4 27.53-11.39 11.08-27.28 11.08H147.59Zm489.34-254.56L231.67-810.2H308l57.06 116.21q8.11 15.29 22.37 24.04 14.25 8.75 31.46 8.75 32.5 0 49.24-27.56 16.74-27.57 2.74-57.63l-30.94-63.81H590.2l56.4 116.21q8.1 15.29 22.06 24.04 13.97 8.75 31.74 8.75 32.49 0 49.52-27.28 17.04-27.28 2.97-57.35l-31.43-64.37h90.95q31.51 0 54.4 22.89 22.89 22.89 22.89 54.4v156.97q0 17.28-13.17 26.95-13.17 9.66-30.02 6.1-10.62-1.44-19.77-1.15-9.15.28-17.52 1.21-19.76 3-37.18 11.6-17.41 8.6-34.04 25.23L636.93-404.93Z"/></svg>