<svg xmlns="http://www.w3.org/2000/svg" height="24" viewBox="0 -960 960 960" width="24"><path d="M421-395Zm171-91ZM170-114q-56.72 0-96.36-38.64Q34-191.27 34-247v-463q0-44 25-79.5t66-49.5l300 300H170v289h238q29 0 48.5 19.5t19.5 48q0 28.5-19.5 48.5T408-114H170Zm756-596v103q0 29-19.5 48.5T857.63-539H539L231-846h81l74 141q7.79 13.6 21.63 21.8 13.83 8.2 29.68 8.2 31.21 0 47.45-26.81Q501-728.62 487-757l-45-89h138l70 140.1q7 14.9 20.73 22.9 13.73 8 29.58 8 31.69 0 48.19-26.48Q765-727.96 750-756l-45-90h85q56.72 0 96.36 40.14T926-710Zm-45 348-37-37 37 37Zm-21 143L702-377l83-82q11.83-13.29 27.74-19.15 15.91-5.85 30.82-5.85 17.44 0 32.99 6.5T905-459l37 38q12.29 11.74 18.15 27.54Q966-377.67 966-362q0 17-5.94 32.66Q954.12-313.69 942-301l-82 82Zm-219 60h19l-1 2-19-19 1-1v18ZM864.61 28Q843 28 827.72 11.72L728-87l4-4q-7.78 8-19.51 12.5T689-74h-65q-28 0-48-19.5T556-142v-65q0-10.76 5-22.49 5-11.73 13-19.51l-4 3L8-808q-15-14.87-15.5-36.43Q-8-866 7.39-882q15.4-16 37-16Q66-898 81-882L901-62q15 15.27 15.5 36.64Q917-4 901.61 12q-15.4 16-37 16Z"/></svg>