<svg xmlns="http://www.w3.org/2000/svg" height="20" viewBox="0 -960 960 960" width="20"><path d="M473.23-414Zm104.31-80ZM186.62-202q-34.35 0-58.48-24.14Q104-250.27 104-284.62v-390.76q0-33.55 21.92-58.09Q147.84-758 180.38-758h30.93l190 190H162v283.38q0 10.77 6.92 17.7 6.93 6.92 17.7 6.92h288.23q11.83 0 20.42 8.52 8.58 8.52 8.58 20.27t-8.58 20.48q-8.59 8.73-20.42 8.73H186.62ZM856-675.38v67.61q0 15.69-12.04 27.73Q831.92-568 815.86-568H503.54l-190-190h47l67.77 111q4.79 9.6 15.17 15.3 10.39 5.7 23.83 5.7 23.52 0 35.38-20 11.85-20 .85-42l-35-70h133.69l53 108q5 11 15.78 17.5t23.22 6.5q23.71 0 36.86-20 13.14-20 2.14-42l-35-70h75.15q35.05 0 58.83 24.14Q856-709.73 856-675.38Zm11.62 292.76-45-45.76 45 45.76Zm-64.54 115.16-96.39-97.39 90.85-88.84q6.01-6.45 12.51-8.77 6.5-2.31 12.88-2.31 6.62 0 13.64 2.08 7.03 2.07 12.35 7.23l44 46.77q5.69 5.92 8.38 12.31 2.7 6.38 2.7 13.52 0 7.15-2.7 13.46-2.69 6.32-8.38 12.09l-89.84 89.85Zm-175.46 79.08h30L678.23-209l-30-30-20.61 20.62v30ZM820.21-77.62q-10.36 0-19.98-9.61l-89.69-87.69-10.23 10.23q-5.95 6.23-12.67 9.46-6.72 3.23-15.75 3.23h-39.35q-17.22 0-29.27-12.04-12.04-12.04-12.04-29.27v-39.35q0-9.03 3.23-15.75 3.23-6.72 9.46-12.67l10.23-12L89-800.23q-8.85-8.58-9.23-19.25-.39-10.67 9.02-20.29 9.4-9.61 20.44-9.61 11.03 0 20.31 9.61l710.95 710.95q9.13 8.95 9.01 20.46-.12 11.51-9.52 21.13-9.41 9.61-19.77 9.61Z"/></svg>