<svg xmlns="http://www.w3.org/2000/svg" height="20" viewBox="0 -960 960 960" width="20"><path d="m811.5-348.5 45-46-45-45-45 46 45 45Zm-20 83.5L682-375l98-96.5q6.5-6.5 15-10t17.5-3.5q8.5 0 17 3.25t15 9.75l44 45.5q6.5 6.5 10 14.75t3.5 17.25q0 9-3.5 17.25t-10 14.75l-97 97.5Zm5.75 184.5Q784.5-80.5 774-91l-79-78-4.5 5q-4.5 4.5-10.5 7.25T666.5-154h-62q-13.5 0-23.5-10t-10-23.5v-62q0-7.5 2.75-13.5t7.25-10.5l5-5-495-497Q80.5-786 80.5-798.75T91-822q10.5-10.5 23.75-10.5T138.5-822l683 683q10.5 10.5 10 24t-11 24Q810-80.5 797.25-80.5ZM173-201q-27 0-47-20t-20-47v-424q0-28 20.25-47.5T175-759h26.5L586-373.5l-62 62q-10.5 10.5-15.25 22.75T504-263.5v29q0 13.5-10 23.5t-23.5 10H173Zm462-221L298-759h62l58 114.5q5 11 15.5 17.25T456-621q23.5 0 35.5-19.5t1.5-41L454.5-759h106L618-644.5q5 11 15.5 17.25T656-621q23.5 0 35.75-19.5t1.75-41L655-759h132q28 0 47.5 20t19.5 47v112.5q0 13-11.25 21.75T817.5-551q-8-1-14.5-.75t-14 2.25q-16 3.5-29.75 11t-26.25 20L635-422Z"/></svg>