<svg xmlns="http://www.w3.org/2000/svg" height="40" viewBox="0 -960 960 960" width="40"><path d="m802.17-365.67 37-38-37-38-38 38 38 38Zm-35.5 74.34-77.84-76.5 93.17-93.5q4.83-3.5 9.94-5.5 5.11-2 10.22-2 4.62 0 9.98 2t9.69 5.83l37 37.67q3.5 5.29 5.5 10.39 2 5.11 2 9.44 0 4.83-1.83 9.92-1.83 5.08-5.57 9.48l-92.26 92.77Zm64.91 201.5q-4.91 0-8.08-3.17L695.67-220.83l-38.5 39q-4.67 3.83-9.2 6-4.52 2.16-9.47 2.16h-39.33q-12.5 0-20.25-7.75t-7.75-20.25V-241q0-4.83 2.16-9.42 2.17-4.58 6-9.25l39-39L93.76-823.91q-2.93-2.92-3.43-7.76-.5-4.83 3-8.33t8.41-3.5q4.9 0 9.09 3.17L840.6-110.57q2.23 2.9 2.48 8.32t-3.16 8.92q-3.42 3.5-8.34 3.5ZM188.83-213.5q-23.18 0-39.17-15.99-15.99-15.99-15.99-39.18v-422.66q0-22.69 17.04-38.93t39.46-16.24H204l363.33 363.33-74.16 74.84q-8.34 7.66-12.75 18.21Q476-279.57 476-268.5v27q0 12.5-7.77 20.25-7.78 7.75-19.4 7.75h-260Zm427.34-216.33-306-316.67h52.71l37.38 74.81q7.07 14.19 20.28 22.52 13.21 8.34 29.02 8.34 30.96 0 46.28-25.59Q511.17-692 498-720.33l-12.83-26.17h109.66l36.77 74.81q7.07 14.19 20.27 22.52 13.21 8.34 28.35 8.34 30.95 0 46.7-25.59 15.75-25.58 2.91-53.91l-13.66-26.17h55q23.18 0 39.17 15.99 15.99 15.99 15.99 39.18v105.83q0 11.83-8.49 18.92-8.5 7.08-20.55 5.08-7.12-1-14.29-.33-7.17.66-13 1.83-13.83 3.33-26 9.5T722-535L616.17-429.83Z"/></svg>