<svg xmlns="http://www.w3.org/2000/svg" height="24" viewBox="0 -960 960 960" width="24"><path d="M423-400Zm157-91ZM172-126q-53 0-89.5-35.5T46-249v-459q0-41 23-73t61-46l279 279H172v296h239q26 0 44.5 18.5T474-189q0 26-18.5 44.5T411-126H172Zm742-582v97q0 26-18.5 44.5T851-548H523L236-834h80l64 129q8 14 21.73 22.5t29.58 8.5Q463-674 479-700.81q16-26.81 2-55.19l-39-78h126l65 129.1q7 13.9 20.73 22.4 13.73 8.5 29.58 8.5Q715-674 731-700.48q16-26.48 2-54.52l-40-79h95q53 0 89.5 36.5T914-708Zm-40 339-37-37 37 37Zm-28 142L695-377l86-86q12-12.18 26.67-17.59Q822.33-486 837-486q16 0 30.55 6T894-462l37 37q12.18 12 17.59 26.67Q954-383.67 954-369q0 16-5.5 30.5T931-312l-85 85Zm-212 61h23l-23-23v23ZM859.39 17Q840 17 825.72 2.72L721-102q-8.07 8-18.16 12-10.08 4-20.84 4h-65q-26 0-44.5-18.5T554-149v-65q0-10.76 4-20.84 4-10.09 12-18.16L16-807Q2-821.13 2-840.57 2-860 16.11-874q14.1-14 33.5-14Q69-888 83-874L893-64q14 14.45 14 33.73Q907-11 892.89 3q-14.1 14-33.5 14Z"/></svg>