<svg xmlns="http://www.w3.org/2000/svg" height="48" viewBox="0 -960 960 960" width="48"><path d="M468.43-405.5Zm78.29-90.3ZM144.65-158.52q-26.57 0-46.1-19.3t-19.53-45.85v-512.18q0-25.04 17.2-43.54 17.19-18.5 42.02-20.89h21.5l213.43 213.43H144.65v362.7h321.59q13.32 0 23.06 9.62 9.74 9.62 9.74 23.37 0 13.75-9.74 23.19-9.74 9.45-23.06 9.45H144.65Zm736.57-577.33v115.94q0 13.92-9.78 23.49-9.78 9.57-23.16 9.57H455.67L240.8-801.72h76.55l56.84 116.21q7.84 15.69 22.18 24.24 14.34 8.55 30.99 8.55 32.02 0 48.84-27.19 16.82-27.2 2.82-57.02l-31.26-64.79h141.46l56.4 116.21q7.83 15.69 22.04 24.24 14.21 8.55 30.99 8.55 32.7 0 49.36-27.07 16.66-27.08 2.92-56.91l-31.76-65.02h96.18q26.66 0 46.27 19.6 19.6 19.61 19.6 46.27Zm-22.09 351.24-37-37 37 37Zm-56.35 144.87L677.26-365.26 778-466q9.51-9.13 20.89-13.41 11.37-4.29 23-4.29 12.21 0 23.69 4.61 11.49 4.61 20.94 14.09l37 37q9.37 9.37 13.53 20.82 4.17 11.45 4.17 22.83 0 11.7-4.74 23.58-4.74 11.88-13.81 20.65l-99.89 100.38Zm-183.65 58.13h35.13l18.78-19.28-34.63-34.63-19.28 18.78v35.13ZM847.79-38.24q-12.33.5-21.38-8.54L717.87-155.33l-25.59 27.09q-5.34 4.74-10.82 6.98t-11.09 2.24h-80.76q-13.93 0-23.5-9.57t-9.57-23.5v-80.76q0-5.43 2.24-11t6.98-10.91l27.09-26.33L50.44-823.5q-8.87-8.97-8.99-21.4-.12-12.43 8.93-21.4 9.06-8.98 21.44-8.98 12.39 0 21.83 8.91l775.9 775.9q8.84 9.01 8.96 21.39.12 12.38-9.13 21.36-9.26 8.98-21.59 9.48Z"/></svg>