<svg xmlns="http://www.w3.org/2000/svg" height="20" viewBox="0 -960 960 960" width="20"><path d="m811.31-348.69 45-45.62-45-45.38-45 46 45 45Zm-25.77 75.46-95.69-95.69 96.92-95.93q5.46-5.07 12.15-7.8 6.69-2.73 13.39-2.73 6.3 0 13.19 2.53 6.88 2.54 11.96 7.62l44 45.38q5.08 5.47 7.81 12.16Q892-401 892-394.31t-2.54 13.19q-2.54 6.5-8 11.96l-95.92 95.93ZM804.5-87.31q-9.58 0-17.88-8.31l-89.85-88.84-10.62 10.61q-4.61 4.62-10.15 7.23-5.54 2.62-12.77 2.62h-50.46q-13.46 0-22.81-9.35-9.34-9.34-9.34-22.81v-50.46q0-7.23 2.61-12.76 2.62-5.54 7.23-10.16l10.62-11L96-787.62q-7.92-7.92-8.11-17.69-.2-9.77 8.11-18.07 8.31-8.31 18.39-8.31 10.07 0 18.38 8.31l690.61 690.61q7.93 7.92 7.62 18.38-.31 10.47-8.62 18.77-8.3 8.31-17.88 8.31ZM180.31-212Q154-212 135-231q-19-19-19-45.31v-407.38q0-26.92 18.89-45.62Q153.77-748 180.69-748h27.47l373.3 374.31L520-312.23q-9.85 9.84-14.46 21.69-4.62 11.85-4.62 24.31v22.07q0 13.47-9.34 22.81-9.35 9.35-22.81 9.35H180.31Zm451.23-211.38L310.77-748h55l50.38 100q5 11 16 17.5t23 6.5q24 0 36.31-20 12.31-20 1.31-42l-31-62h99.85l50 100q5 11 16 17.5t23 6.5q24 0 36.5-20t1.5-42l-31-62h122.07q27.31 0 45.81 19 18.5 19 18.5 45.31v101.07q0 12.08-10.66 20.62-10.65 8.54-24.11 6.92-6.85-1-12.5-.3-5.65.69-12.5 2.69-14.69 4-27.19 10.84-12.5 6.85-23.96 18.31L631.54-423.38Z"/></svg>