<svg xmlns="http://www.w3.org/2000/svg" height="20" viewBox="0 -960 960 960" width="20"><path d="M439.22-396.15Zm163.43-78.09ZM165.83-158.17q-42.84 0-74.01-30.93-31.17-30.94-31.17-73.53v-434.02q0-39.94 25.32-70.05 25.31-30.1 63.77-33.45h24l271.43 271.43H165.83v265.37h289.19q21.98 0 37.28 15.25 15.31 15.24 15.31 37.01 0 21.76-15.31 37.34-15.3 15.58-37.28 15.58H165.83Zm733.52-538.48v115.35q0 21.97-15.31 37.28-15.31 15.3-37.65 15.3H548.17L274.83-801.83h66.76l82.93 146.22q5.03 9.84 15.71 15.78 10.68 5.94 24.08 5.94 23.93 0 36.17-20.31 12.24-20.32 1.24-42.65l-52.61-104.98h130.3l71.09 143.72q5 11.22 15.96 17.72 10.95 6.5 23.59 6.5 24.12 0 37.26-20.24 13.15-20.23 1.91-42.48l-52.61-105.22h117.56q43.54 0 74.36 31.29t30.82 73.89Zm-15.87 329.13-45-45 45 45ZM841.2-234.93 706.13-371l88.44-86.43q9.33-10.05 21.08-14.51 11.74-4.45 23.14-4.45 12.72 0 24.47 4.36 11.75 4.36 21.37 13.6l44 46q9.81 9.23 14.26 20.87 4.46 11.64 4.46 23.8 0 12.47-4.48 24.27-4.47 11.79-14.24 21.12l-87.43 87.44Zm-197.72 62.41h28.09l-4.24 4.48-28.09-28.09 4.24-4.24v27.85Zm178.88 139.8q-19.19 0-34.01-15.06l-68.15-66.15 9.95-9.96q-6.73 7-15.87 11.12-9.14 4.12-19.89 4.12H632.2q-21.74 0-37.17-15.31-15.42-15.31-15.42-37.28v-62.19q0-10.51 4.24-19.65 4.24-9.15 11.24-15.88l-9.96 8.72L53.5-783.87q-14.76-14.53-14.88-33.64-.12-19.12 14.57-34.12 14.7-15 34.55-15 19.85 0 34.28 15L856.65-117q15.05 14.97 14.67 34.63-.39 19.65-15.08 34.65-14.7 15-33.88 15Z"/></svg>