<svg xmlns="http://www.w3.org/2000/svg" height="40" viewBox="0 -960 960 960" width="40"><path d="m803-364 37-38-37-38-38 38 38 38Zm-34.67 73.67-78-77L783-460q5-4 10-6t10-2q5 0 10.5 2t9.5 6l37 38q4 5 6 10t2 10q0 5-1.83 10-1.84 5-6.17 10l-91.67 91.67Zm64 202.66q-4.66 0-8.33-3.66L696.67-218.67l-38.34 38.34q-4.33 4.33-9 6.33-4.66 2-10 2H600q-12.33 0-20.17-7.83Q572-187.67 572-200v-39.33q0-5.34 2-10 2-4.67 6.33-9l38.34-38.34L92-824q-3.33-3.33-3.83-8.17-.5-4.83 3.5-8.83t8.66-4q4.67 0 9 3.67l732 732q2.67 3.33 3.17 8.5.5 5.16-3.5 9.16t-8.67 4ZM188-212q-24 0-40-16t-16-40v-424q0-23 17-39.5t40-16.5h13l365.67 365.67-74.34 75q-8 7.33-12.66 18.16Q476-278.33 476-267v27q0 12.33-7.83 20.17Q460.33-212 448-212H188Zm429-218L309.67-748H363l37.67 76q7 14 20.33 22.33 13.33 8.34 29 8.34 30.67 0 46.33-25.84 15.67-25.83 2.34-53.5L485-748h108l37.67 76q7 14 20.33 22.33 13.33 8.34 28.33 8.34 30.67 0 46.67-25.84 16-25.83 2.67-53.5L715-748h57q24 0 40 16t16 40v106.33q0 11.34-8.83 18.67-8.84 7.33-21.17 5.33-7-1-13.83-.5-6.84.5-13.17 2.5-14 3-26.17 9-12.16 6-22.5 16.34L617-430Z"/></svg>