<svg xmlns="http://www.w3.org/2000/svg" height="48" viewBox="0 -960 960 960" width="48"><path d="m813.35-354.35 37-38.61-37-37.39-38 38 38 38Zm-27.08 92.43L681.92-365.69l98-98.19q7.46-6.58 16.01-9.81 8.55-3.23 17.41-3.23 8.98 0 17.63 3.38 8.64 3.39 15.91 10.46l37 37.2q6.58 7.58 9.81 16.25 3.23 8.67 3.23 16.92 0 8.44-3.54 17.38t-9.97 15.76l-97.14 97.65ZM838.5-64.19q-9.31.3-15.5-5.89L708.46-184.62l-32.11 33.23q-4.81 4.12-9.38 6.22-4.57 2.09-9.86 2.09H591.5q-12.5 0-20.46-7.96-7.96-7.96-7.96-20.46v-65.62q0-5.11 2.09-9.76 2.1-4.66 6.22-9.47l33.23-32.61L70.6-823.37q-6.33-6.32-6.52-15.53-.19-9.21 6.19-15.6 6.38-6.38 15.68-6.38 9.29 0 16.4 6.19l752.43 752.43q5.91 6.3 6.01 15.64.09 9.35-6.44 15.73-6.54 6.39-15.85 6.7ZM159.23-182.77q-22.84 0-39.49-16.66-16.66-16.66-16.66-39.49v-482.16q0-23.26 17-39.7 16.99-16.45 40.15-16.45h19.19L585-371.65l-76.15 76.53q-8.2 7.81-12.75 18.6-4.56 10.78-4.56 21.94v43.39q0 12.5-8 20.46-8 7.96-19.73 7.96H159.23Zm470.38-231L270.39-777.23h67.28l49.37 100.25q7.73 14.9 21.32 23.56 13.59 8.65 30.42 8.65 31.74 0 47.91-26.52 16.16-26.52 2.54-55.83l-24.19-50.11h126.15l48.71 100.25q7.71 14.9 21.3 23.56 13.59 8.65 30.03 8.65 31.73 0 48.1-26.52 16.36-26.52 3.25-55.83l-24.89-50.11h83.08q22.84 0 39.49 16.66 16.66 16.66 16.66 39.49v149.89q0 12.36-9.01 19.39-9.02 7.03-21.15 4.41-9.65-1.61-18.68-1.32-9.04.29-17 1.59-16.16 3.2-30.72 10.37-14.55 7.17-27.75 20.17l-103 102.81Z"/></svg>