<svg xmlns="http://www.w3.org/2000/svg" height="24" viewBox="0 -960 960 960" width="24"><path d="M478.19-421.85ZM543.85-518ZM187.69-205.54q-25.94 0-43.74-17.8t-17.8-43.57v-426.01q0-25.58 18.86-43.56 18.86-17.98 44.68-17.98h8.66l153.23 153.23h-188.5v334.15q0 10.77 6.92 17.7 6.92 6.92 17.69 6.92h267.89q7.36 0 12.81 5.42 5.46 5.42 5.46 13.04 0 7.62-5.46 13.04-5.45 5.42-12.81 5.42H187.69Zm646.16-487.44v62.33q0 12.03-8.7 20.73-8.69 8.69-20.34 8.69H460.62L307.38-754.46h58.2l43.32 86.37q7.09 14.21 19.74 22.07 12.66 7.87 27.68 7.87 30.03 0 45.64-25.26 15.62-25.25 2.12-52.01l-19.27-39.04h103.84l43.2 86.37q7.08 14.21 19.72 22.07 12.64 7.87 27.6 7.87 29.94 0 45.73-25.26 15.79-25.25 2.29-52.01l-19.65-39.04h64.77q25.94 0 43.74 17.8t17.8 43.68Zm6.34 290.56-37-37.77 37 37.77Zm-65.61 114.27-86.43-85.54 90.81-90.65q5.31-5.35 11.67-7.43t12.33-2.08q6.17 0 12.72 2.52 6.55 2.52 11.59 7.18l37 37.88q4.89 5.68 7.23 11.76 2.35 6.09 2.35 12.28 0 6.19-2.35 12.36-2.34 6.16-7.12 11.41l-89.8 90.31Zm-174.39 87.96h38l30.58-31.08-37.5-37.5-31.08 30.58v38ZM823.67-83.27q-7.17 0-13.29-6.11L692.85-206.92l-31.2 31.69q-5.2 4.73-10.38 6.9-5.19 2.18-11.23 2.18h-42.92q-13.2 0-22.08-8.89-8.89-8.88-8.89-22.08v-42.92q0-5.91 2.18-11.16 2.17-5.25 6.9-10.45l31.69-31.47L89.26-810.78q-5.45-5.45-5.84-12.82-.38-7.36 5.73-13.48 6.12-6.11 13.29-6.11 7.18 0 13.37 6.19l721.07 721.08q5.43 5.24 5.62 12.83.19 7.59-5.73 13.71-5.92 6.11-13.1 6.11Z"/></svg>