<svg xmlns="http://www.w3.org/2000/svg" height="20" viewBox="0 -960 960 960" width="20"><path d="M481.19-429.85ZM543.85-507ZM195.69-237.54q-21.94 0-37.74-15.8t-15.8-37.57v-378.01q0-22.28 16.51-37.91 16.51-15.63 39.03-15.63h32.66l129.23 129.23h-188.5v302.15q0 10.77 6.92 17.7 6.92 6.92 17.69 6.92h287.89q5.66 0 9.96 4.21 4.31 4.21 4.31 10.04 0 5.83-4.31 10.25-4.3 4.42-9.96 4.42H195.69Zm622.16-431.44v50.33q0 10.33-7.55 17.88-7.54 7.54-17.49 7.54H457.62L328.38-722.46h43.2l39.32 76.37q5.09 11.21 15.52 17.57 10.44 6.37 22.9 6.37 24.03 0 35.64-19.76 11.62-19.75 1.12-41.51l-19.27-39.04h109.84l38.2 76.37q5.08 11.21 15.5 17.57 10.42 6.37 22.82 6.37 23.65 0 36.08-19.76 12.44-19.75 1.94-41.51l-19.65-39.04h92.77q22.64 0 38.09 15.8 15.45 15.8 15.45 37.68Zm26.34 262.56-45-45.77 45 45.77Zm-84.61 115.27-76.43-76.54 100.81-99.65q3.57-3.76 7.8-5.14 4.23-1.37 7.96-1.37 3.72 0 8.03 1.52 4.31 1.52 7.52 4.18l44 45.88q3.3 3.94 4.94 7.89 1.64 3.96 1.64 7.91t-1.64 7.77q-1.64 3.83-4.83 7.24l-99.8 100.31Zm-155.39 78.96h41l26.58-27.08-40.5-40.5-27.08 26.58v41Zm199.98 100.92q-4.67 0-9.79-5.11L688.85-220.92l-22.2 22.69q-4.2 3.73-8.38 5.9-4.19 2.18-9.8 2.18h-39.35q-11.5 0-19.23-7.74-7.74-7.73-7.74-19.23v-39.35q0-5.48 2.18-9.73 2.17-4.25 5.9-8.45l22.69-23.47-495.66-497.66q-4.45-4.45-4.84-9.32-.38-4.86 4.73-9.98 5.12-5.11 10.46-5.11 5.34 0 10.2 5.19L814.6-138.21q4.71 4.53 4.4 10.62-.31 6.09-5.23 11.21-4.92 5.11-9.6 5.11Z"/></svg>