<svg xmlns="http://www.w3.org/2000/svg" height="24" viewBox="0 -960 960 960" width="24"><path d="m847-340 27-29-37-37-28 28 38 38Zm-1 113L695-377l86-86q12-12 26.5-17.5T837-486q16 0 30.5 6t26.5 18l37 37q12 12 17.5 26.5T954-369q0 16-5.5 30.5T931-312l-85 85Zm13.5 244Q840 17 826 3L721-102q-8 8-18 12t-21 4h-65q-26 0-44.5-18.5T554-149v-65q0-11 4-21t12-18L16-807Q2-821 2-840.5T16-874q14-14 33.5-14T83-874L893-64q14 14 14 33.5T893 3q-14 14-33.5 14ZM172-126q-53 0-89.5-35.5T46-249v-459q0-41 23-73t61-46l450 451-69 69q-18 18-27.5 41t-9.5 48v29q0 26-18.5 44.5T411-126H172Zm466-308L236-834h80l64 129q8 14 21.5 22.5T431-674q32 0 48-27t2-55l-39-78h126l65 129q7 14 20.5 22.5T683-674q32 0 48-26.5t2-54.5l-40-79h95q53 0 89.5 36.5T914-708v87q0 27-21.5 43.5T843-565q-8 0-16 .5t-16 1.5q-25 4-47 14.5T724-520l-86 86Z"/></svg>