<svg xmlns="http://www.w3.org/2000/svg" height="48" viewBox="0 -960 960 960" width="48"><path d="M462.89-405.5Zm84.81-88.67Zm-400.11 343.8q-31.48 0-54.1-22.07t-22.62-53.52v-506.95q0-26.84 17.03-47.54t43.16-26.35h21.5l222.9 222.89H147.59v356.82h311.47q15.57 0 27.12 11.25 11.56 11.26 11.56 27.29t-11.56 27.1q-11.55 11.08-27.12 11.08H147.59ZM889.7-732.91v110.39q0 16.2-11.55 27.41-11.55 11.2-27.1 11.2H457.96L231.67-810.2h76.55l56.84 116.21q7.84 15.69 22.58 24.24 14.74 8.55 31.45 8.55 32.14 0 48.96-27.51 16.82-27.52 2.82-57.68l-30.94-63.81H590.2l56.4 116.21q7.82 15.69 22.28 24.24 14.45 8.55 31.5 8.55 32.93 0 49.75-27.23 16.83-27.23 2.76-57.4l-31.43-64.37h90.95q31.71 0 54.5 22.79t22.79 54.5Zm-26.98 351.56-37-37 37 37ZM809.3-232.56 676.93-364.93 778-466q10.2-10 22.43-14.66 12.22-4.67 25.05-4.67 12.86 0 25.34 5.1 12.47 5.1 22.55 15.23l37 37q10.23 10.07 14.78 22.38 4.55 12.31 4.55 24.54 0 12.99-5.23 25.69-5.23 12.69-14.95 22.12L809.3-232.56Zm-186.58 54.21h31.21l17.81-18.3-30.72-30.72-18.3 17.81v31.21ZM857.05-23.56q-12.79.5-22.58-9.29L721.78-145.54l-22.98 24.48q-5.69 5.06-12.01 7.63-6.33 2.56-12.51 2.56h-80.43q-16.21 0-27.41-11.2t-11.2-27.41v-80.43q0-6.01 2.56-12.42 2.57-6.41 7.63-12.1l24.48-24.05-548.6-548.6q-9.2-9.34-9.48-22.4-.29-13.06 9.46-22.69 9.74-9.63 22.74-9.63 13 0 23 9.46L879.98-79.39q9.17 9.81 9.46 22.94.28 13.13-9.66 22.76t-22.73 10.13Z"/></svg>