<svg xmlns="http://www.w3.org/2000/svg" height="48" viewBox="0 -960 960 960" width="48"><path d="M484.15-414.69Zm66-97.08ZM172.38-185q-27.78 0-48.08-20.3-20.3-20.3-20.3-48.08v-453.24q0-27.08 19.21-47.73T170.15-775h16.16l174.38 174.38H147.77v347.24q0 10.76 6.92 17.69 6.93 6.92 17.69 6.92h292.31q8.6 0 15 6.64 6.39 6.65 6.39 15.62 0 8.97-6.39 15.24-6.4 6.27-15 6.27H172.38ZM856-706.62v72.85q0 13.42-10 23.29-9.99 9.86-23.02 9.86H460.54L286.92-775h59.77l54.85 100.15q6.96 14.17 20.89 22.32t30.01 8.15q30.86 0 46.79-26.31 15.92-26.31 2.69-54.62L477.31-775h131.15l47.85 99.15q6.96 14.63 20.93 23.05 13.97 8.42 28.99 8.42 31.38 0 48.04-26.31 16.65-26.31 3.42-54.62L733.08-775h54.54q27.78 0 48.08 20.3 20.3 20.3 20.3 48.08Zm-1.38 318-37-37.76 37 37.76Zm-61.08 120.47-97.16-97.39 91.16-90.15q6.92-6.98 14.53-9.53 7.61-2.55 15.21-2.55 7.95 0 15.8 2.58 7.85 2.57 13.84 8.73l37 38.77q6.22 6.79 9.15 14.24Q896-396 896-388.12q0 7.89-3.43 15.47-3.43 7.58-8.88 14.34l-90.15 90.16Zm-178.92 81.77h32l32.92-32.93-32-32-32.92 32.93v32ZM843.18-64.73q-8.95.11-15.33-6.27L711.62-186.23l-31.77 32Q675.9-150 669.43-147q-6.48 3-12.28 3h-50.23q-14.96 0-24.82-9.87-9.87-9.86-9.87-24.82v-50.23q0-5.8 3-12.27 3-6.48 7.23-10.43l32-32.76L71.77-827.85q-6.39-5.28-6.77-14.68-.38-9.39 6.33-15.66 6.72-6.27 15.46-6.27 8.75 0 16.21 5.38L859.08-103q5.61 6.92 6 16.27.38 9.35-6.28 15.61-6.67 6.27-15.62 6.39Z"/></svg>