<svg xmlns="http://www.w3.org/2000/svg" height="20" viewBox="0 -960 960 960" width="20"><path d="m795.5-365 45-45-45-46-45 46 45 45ZM750-299l-66.5-66.5L785-466q2.5-1.5 5.5-3t6-1.5q1.5 0 4.75 1t5.25 2.5l44 46q1.5 3 3 5.75T855-410q0 3-1 5.25t-3.5 4.75L750-299Zm56.25 178.5q-2.25 0-5.75-3.5L687-236.5l-27.5 28q-4 3.5-7.75 5.5t-9.25 2h-32q-10.5 0-17.75-7.25T585.5-226v-32q0-5.5 2-9.25T593-275l28-29-496-498q-2.5-2.5-3-5t3-6q3.5-3.5 6.25-3.5t6.25 3.5L813-137.5q2.5 2.5 2.25 6.25t-3.5 7.25q-3.25 3.5-5.5 3.5Zm-603.75-128q-20.5 0-35-14.5T153-298v-364q0-21 15.25-35.25t36.25-14.25H239l331 332-58.5 58.5q-8 8-11.75 17.5t-3.75 19v11q0 10.5-7.25 17.75t-17.25 7.25h-269Zm413-175-278-288H375l34 65q5 11 15.75 17.5t22.75 6.5q24 0 35.5-19.75t1-41.75l-13.5-27.5h111l32.5 65q5 11 15.75 17.5t22.75 6.5q24 0 36.25-19.75T690.5-684l-14-27.5h81q21.5 0 35.5 14.5t14 35v81.5q0 9-8 15.5t-18.5 5.5q-5-1-8.5 0t-8 2.5q-10.5 4-18.5 9T729-535L615.5-423.5Z"/></svg>