<svg xmlns="http://www.w3.org/2000/svg" height="48" viewBox="0 -960 960 960" width="48"><path d="M489-420Zm57-98ZM183-197q-27.5 0-47.25-19.75T116-264v-432q0-26.39 18.98-46.69Q153.96-763 181-763h15l155 155H151v344q0 14 9 23t23 9h281q6.75 0 11.88 5.38 5.12 5.37 5.12 12.5 0 7.12-5.12 12.12-5.13 5-11.88 5H183Zm661-499v56q0 12.72-9.77 22.36-9.77 9.64-22.1 9.64H455L301-763h54l50 90q6.73 13.93 20.53 21.97 13.81 8.03 29.74 8.03 30.57 0 46.15-25.96Q517-694.92 504-723l-20-40h127l43 89q6.73 14.4 20.58 22.7Q688.44-643 703-643q31.05 0 47.52-25.96Q767-694.92 754-723l-20-40h43q27.5 0 47.25 19.75T844-696Zm6 303-37-38 37 38Zm-65 114-87-87 90-89q6-6.06 12.22-8.03 6.22-1.97 12.45-1.97 6.33 0 12.91 2t11.42 7l37 39q5.06 5.87 7.53 11.94Q884-399 884-392.5q0 6.5-2.97 12.58T874-368l-89 89Zm-175 88h32l38-38-32-32-38 38v32ZM841.11-75Q834-75 829-80L707-201l-35 35q-3.71 4-10.07 7T650-156h-41q-14.72 0-24.36-9.64Q575-175.27 575-190v-41q0-5.57 3-11.93 3-6.36 7-10.07l35-36L81-829q-5-3.93-5.5-11.47Q75-848 80.45-853q5.44-5 12.3-5 6.85 0 13.25 4l748 748q4 5.64 4.5 13.32Q859-85 853.61-80q-5.4 5-12.5 5Z"/></svg>