<svg xmlns="http://www.w3.org/2000/svg" height="40" viewBox="0 -960 960 960" width="40"><path d="M465.17-404.67ZM554-497.33ZM150-166q-25.63 0-44.48-18.85-18.85-18.86-18.85-44.48v-501.34q0-26.12 19.12-44.73 19.13-18.6 45.54-18.6h15.17l214 214H150v350.67h311.83q12.95 0 22.23 9.28 9.27 9.28 9.27 22.5t-9.27 22.38q-9.28 9.17-22.23 9.17H150Zm723.33-564.67v118.84q0 13.33-9.32 22.58-9.32 9.25-22.34 9.25H471.33l-214-214h76.77l58.49 118.97q7.56 15.13 21.09 23.41 13.53 8.29 29.55 8.29 31.18 0 47.72-26.31 16.55-26.31 2.72-54.86L459.83-794h123.34l58.43 118.97q7.55 15.13 21.08 23.41 13.52 8.29 29.51 8.29 31.56 0 47.85-26.31 16.29-26.31 2.79-54.86L708.67-794H810q25.63 0 44.48 18.85 18.85 18.86 18.85 44.48Zm-18.16 342.5-37-37 37 37Zm-54.34 137.5-120.16-120L777-466.83q8.83-8.5 19.53-12.5 10.7-4 21.4-4 11.67 0 22.37 4.25 10.7 4.25 19.53 13.08l37 37.17q8.74 8.71 12.62 19.35 3.88 10.65 3.88 21.48t-4.21 21.95q-4.22 11.11-12.86 19.45l-95.43 95.93Zm-185.66 65.5h38l15.5-16-37.5-37.5-16 15.5v38Zm217.75 135q-13.09.34-22.59-9.16L709.67-160l-22.84 24q-5.25 4.83-10.82 7.08t-11.51 2.25h-76q-13.33 0-22.58-9.25-9.25-9.25-9.25-22.58v-76q0-5.83 2.25-11.45 2.25-5.63 7.08-10.88l24-23L59.09-810.75q-9.59-9.63-9.59-22.69T59.03-856q9.54-9.5 22.58-9.5 13.03 0 22.89 9.5l751.26 751.26q9.57 9.39 9.57 22.32 0 12.92-9.66 22.42-9.67 9.5-22.75 9.83Z"/></svg>