<svg xmlns="http://www.w3.org/2000/svg" height="20" viewBox="0 -960 960 960" width="20"><path d="M487-434Zm52-79ZM200-244q-22 0-37-15t-15-37v-368q0-21.7 15.65-36.85Q179.3-716 201-716h33l112 112H168v308q0 14 9 23t23 9h286q4.3 0 7.15 2.79 2.85 2.79 2.85 7t-2.85 7.21q-2.85 3-7.15 3H200Zm612-420v36q0 9.3-7.35 16.65Q797.3-604 788-604h4-344L336-716h39l35 68q5 11 15.78 17.5T449-624q24 0 36-20t1-42l-15-30h106l34 68q5 11 15.78 17.5T650-624q23.71 0 36.35-20Q699-664 688-686l-15-30h87q22.7 0 37.35 15Q812-686 812-664Zm32 258-45-46 45 46Zm-88 110-68-68 100-99q3.26-3.41 6.13-4.21 2.87-.79 5.63-.79 2.55 0 5.81 1t5.43 3l44 46q2.41 3.26 3.71 6.13Q860-409 860-406.24t-1.29 5.42q-1.3 2.65-3.71 5.82l-99 99Zm-152 84h41l32-32-41-41-32 32v41Zm204.5 97q-2.5 0-6.5-4L690-230l-26 26q-4 4-8 6t-9.57 2H614q-11.3 0-18.65-7.35Q588-210.7 588-222v-32.43q0-5.57 2-9.57t6-8l26-27-502-504q-3-3-3.5-6t3.5-7q4-4 7.17-4 3.16 0 6.83 4l681.72 681.72Q819-131 819-127t-4 8q-4 4-6.5 4Z"/></svg>