<svg xmlns="http://www.w3.org/2000/svg" height="20" viewBox="0 -960 960 960" width="20"><path d="m843-337 35-36-45-45-35 36 45 45Zm-12 107L690-371l96-95q10-10 22.5-15t25.5-5q13 0 25.5 5t22.5 15l44 45q10 10 15 22.5t5 25.5q0 14-5 26t-15 22l-95 95Zm9 219q-17 0-30-13l-93-92 9-9q-7 7-16 11t-20 4h-61q-24 0-41.5-17.5T570-169v-61q0-11 4-20t11-16l-9 8L44-792q-13-13-13-30t13-30q13-13 30.5-13t30.5 13L871-86q13 13 12.5 31T870-24q-13 13-30 13ZM180-158q-49 0-83.5-33.5T62-273v-411q0-38 20.5-67.5T138-795h24l424 426-53 53q-18 18-26.5 39.5T498-232v15q0 24-17.5 41.5T439-158H180Zm459-264L257-802h65l60 119q6 11 17.5 18t24.5 7q26 0 38-21.5t1-44.5l-39-78h132l60 119q5 11 16.5 18t24.5 7q26 0 38.5-21t1.5-44l-40-79h123q50 0 84 34.5t34 83.5v72q0 24-20.5 39.5T831-560q-6 0-11 1t-11 2q-22 5-40 14.5T735-517l-96 95Z"/></svg>