<svg xmlns="http://www.w3.org/2000/svg" height="24" viewBox="0 -960 960 960" width="24"><path d="M484-426Zm55-98ZM192-212q-26 0-43-17t-17-43v-416q0-25 18-42.5t43-17.5h9l136 136H160v340q0 14 9 23t23 9h266q6 0 10 4t4 10q0 6-4 10t-10 4H192Zm636-476v48q0 11-8.5 19.5T800-612H451L315-748h54l39 78q7 14 20 22t28 8q30 0 46-25.5t2-52.5l-15-30h100l39 78q7 14 20 22t28 8q30 0 46-25.5t2-52.5l-15-30h59q26 0 43 17t17 43Zm12 286-37-38 37 38Zm-69 109-78-77 90-90q5-5 10-6.5t10-1.5q5 0 10.5 2t9.5 6l37 38q4 5 6 10t2 10q0 5-2 10t-6 10l-89 89Zm-171 93h38l36-36-38-38-36 36v38ZM828-87q-5 0-10-5L694-216l-35 35q-5 5-10 7t-11 2h-36q-13 0-21.5-8.5T572-202v-36q0-6 2-11t7-10l35-35L92-818q-4-4-4.5-9.5T92-838q5-5 10-5t10 5l726 726q4 4 4.5 9.5T838-92q-5 5-10 5Z"/></svg>