<svg xmlns="http://www.w3.org/2000/svg" height="40" viewBox="0 -960 960 960" width="40"><path d="m826.28-352.72 31.34-32.56-37-37.77-32.34 32.33 38 38Zm-24.56 85.8L701.49-367.31l87.72-86.72q7.25-6.48 14.97-9.61 7.72-3.13 16.44-3.13 7.94 0 16.21 2.74 8.27 2.75 14.76 9.24l37 38.76q6.49 7.26 9.62 14.98 3.12 7.72 3.12 15.77 0 8.72-3.07 16.55-3.08 7.83-9.82 15.09l-86.72 86.72Zm40.16 207.23q-10.11.07-17.91-7.72L712.59-177.8 685-150.05q-5.23 5.23-11.83 8.31-6.61 3.07-13.91 3.07h-47.8q-16.46 0-27.34-10.88-10.89-10.89-10.89-27.35v-47.79q0-7.31 3.08-13.91 3.07-6.61 8.31-11.84l27.74-28.51L68.18-823.64q-7.54-6.87-7.92-17.45-.39-10.58 7.66-18.29 8.05-7.72 18.17-7.72 10.12 0 18.42 7.13l755.8 755.79q7.02 7.54 7.41 18.26.38 10.71-7.67 18.43-8.05 7.72-18.17 7.8ZM174.46-180q-31.69 0-53.74-22.05t-22.05-53.74v-448.42q0-30.74 20.91-53.26Q140.49-780 170.9-780h13.07l401.16 402.15-77.92 78.44q-10.9 10.38-17.06 24.94-6.15 14.55-6.15 29.34v26.9q0 16.46-10.88 27.35Q462.23-180 446.44-180H174.46Zm460.77-246.36L288.79-780h60.52l60.48 107.1q7.16 13.82 20.4 21.57 13.25 7.74 29.4 7.74 30.82 0 46.59-26.06 15.77-26.07 2.28-53.89L480.38-780h130l51.24 105.44q7.15 14.15 20.56 22.56 13.41 8.41 28.72 8.41 30.82 0 47.47-26.06 16.66-26.07 3.17-53.89L733.46-780h52.08q31.69 0 53.74 22.05t22.05 53.74v115.9q0 16.03-12.83 25.63-12.83 9.6-29.63 6.04-8.18-1.15-15.91-.77-7.73.38-13.91 2.38-16.74 4.34-30.6 12.21-13.86 7.87-26.76 20.77l-96.46 95.69Z"/></svg>