<svg xmlns="http://www.w3.org/2000/svg" height="24" viewBox="0 -960 960 960" width="24"><path d="M427.5-403ZM574-491ZM177-135q-50.94 0-85.97-34.03T56-253v-451q0-38.94 22.25-69.47T137-818h2.5l268 268H177v294h236.5q24.5 0 42.5 18t18 42.5q0 24.5-18 42.5t-42.5 18H177Zm727-569v93.5q0 24.5-18 42.5t-42.5 18H515L239-825h77.22L378-701.5q8 14 21.23 22.25t28.91 8.25q31.36 0 46.86-26.31t2-54.19L440.5-825h136L639-701.4q7 13.9 20.23 22.15 13.23 8.25 28.89 8.25 31.3 0 47.09-25.98 15.79-25.98 2.29-53.52L700-825h83q50.94 0 85.97 35.03T904-704Zm-37.5 327.5-37-37 37 37Zm-33 143.5L686-380l89-88.5q11.5-11.68 25.76-17.09 14.25-5.41 28.51-5.41 15.55 0 29.69 5.75T884.5-468l37 37.5q11.91 11.42 17.21 25.38Q944-391.17 944-376.5q0 16-5.38 29.78-5.38 13.78-17.12 25.22l-88 88.5Zm-207 59.5h23l3.5-4-22.5-22.5-4 3.5v23Zm228.14 180q-18.14 0-31.92-13.78L715-115l-3.5 4q-7.66 7.5-17.22 11.25Q684.71-96 674.5-96h-65Q585-96 567-114t-18-42.5v-65q0-10.21 3.75-19.78 3.75-9.56 11.25-17.22l4-4-542-542q-13.5-13.63-13.5-31.82 0-18.18 13.61-31.68 13.6-13.5 31.75-13.5Q76-881.5 89.5-868l797 797Q900-57.23 900-38.86 900-20.5 886.39-7q-13.6 13.5-31.75 13.5Z"/></svg>