<svg xmlns="http://www.w3.org/2000/svg" height="20" viewBox="0 -960 960 960" width="20"><path d="m799-361 45-45-45-46-45 46 45 45Zm-43 65-68-68 100-99q3-2 6-3.5t6-1.5q2 0 5.5 1t5.5 3l44 46q2 3 3.5 6t1.5 6q0 3-1 5.5t-4 5.5l-99 99Zm52.5 181q-2.5 0-6.5-4L690-230l-26 26q-4 4-8 6t-10 2h-32q-11 0-18.5-7.5T588-222v-32q0-6 2-10t6-8l26-27-502-504q-3-3-3.5-6t3.5-7q4-4 7-4t7 4l682 682q3 3 3 7t-4 8q-4 4-6.5 4ZM200-244q-22 0-37-15t-15-37v-368q0-22 15.5-37t37.5-15h33l337 338-59 59q-8 8-12 18t-4 20v11q0 11-7.5 18.5T470-244H200Zm418-180L336-716h39l35 68q5 11 16 17.5t23 6.5q24 0 36-20t1-42l-15-30h106l34 68q5 11 16 17.5t23 6.5q24 0 36.5-20t1.5-42l-15-30h87q23 0 37.5 15t14.5 37v82q0 9-8.5 16t-19.5 6q-5-1-8.5 0t-8.5 3q-11 4-19.5 9T730-534L618-424Z"/></svg>