<svg xmlns="http://www.w3.org/2000/svg" height="40" viewBox="0 -960 960 960" width="40"><path d="m843.36-338.84 29.64-32.2-37-37-30.64 31.2 38 38Zm-10.17 112.48L691.88-368.33l92.4-91.39q10.52-11.09 23.89-16.32 13.37-5.24 27.83-5.24 14.28 0 27.72 5.52 13.44 5.51 24.53 16.04l37 38q10.52 10.52 15.75 23.89 5.23 13.37 5.23 26.79 0 14.65-5.56 28.42-5.57 13.78-16.09 24.87l-91.39 91.39ZM858.21-6.3q-16.6.33-28.7-12.34L726.99-120.16 714.49-107q-5.62 5.62-14.25 9.24-8.63 3.61-17.15 3.61h-75.44q-20.64 0-34.59-13.67-13.96-13.67-13.96-34.88v-75.43q0-7.96 3.9-16.59 3.9-8.63 9.52-14.25l13.16-13.73L28.06-820.32q-11.73-11.06-12.2-28.18-.47-17.12 11.92-29.46 12.38-12.33 29.17-12.33t28.89 12L886.91-77.22q11.73 12.11 12.2 29.01.47 16.91-11.91 29.24Q874.81-6.64 858.21-6.3ZM150.58-134.35q-39.46 0-67.95-27.92-28.48-27.92-28.48-67.19v-499.76q0-34.14 20.85-60.48 20.85-26.34 53.91-32.75h13.34l454.11 455.31-75.35 74.78q-13.17 13.74-20.87 31.93-7.71 18.18-7.71 37.15v40.38q0 20.64-13.86 34.6-13.86 13.95-34.4 13.95H150.58Zm494.74-280.98-411.51-410.7h79.44l68.05 132.07q7.86 14.9 22.11 23.28 14.25 8.37 30.54 8.37 32.09 0 48.95-27.49 16.85-27.49 2.85-56.39l-39.72-79.84h143.45l64.14 131.54q7.67 15.23 21.62 23.71 13.95 8.47 30.85 8.47 32.08 0 49.44-27.21 17.35-27.21 2.41-56.1l-39.35-80.41h90.83q39.46 0 68.14 28.96 28.67 28.95 28.67 67.85v138.96q0 20.97-16.57 33.17-16.57 12.19-37.73 8.42-10.25-1.1-19.76-.82-9.5.29-17.37 1.72-21.65 3.39-40.71 13.34-19.06 9.95-36.81 27.71l-91.96 91.39Z"/></svg>