<svg xmlns="http://www.w3.org/2000/svg" height="24" viewBox="0 -960 960 960" width="24"><path d="m803.19-364.19 37-38.23-37-37.77-38 38 38 38Zm-28.61 76.04-86.43-85.54 90.7-90.58q5.42-4.65 11.69-7.11 6.27-2.47 12.65-2.47 6.12 0 12.58 2.52t11.5 7.18l37 37.88q4.65 5.81 7.11 11.83 2.47 6.02 2.47 12.02 0 6.38-2.08 12.52-2.08 6.13-7.5 11.55l-89.69 90.2Zm49.09 204.88q-7.17 0-13.29-6.11L692.85-206.92l-31.2 31.69q-5.11 4.73-10.38 6.9-5.27 2.18-11.23 2.18h-42.92q-13.2 0-22.08-8.89-8.89-8.88-8.89-22.08v-42.92q0-5.96 2.18-11.23 2.17-5.27 6.9-10.38l31.69-31.47L89.15-810.88q-5.34-5.35-5.73-12.72-.38-7.36 5.73-13.48 6.12-6.11 13.29-6.11 7.18 0 13.29 6.11l721.23 721.23q5.35 5.35 5.54 12.85.19 7.5-5.73 13.62-5.92 6.11-13.1 6.11ZM187.69-205.54q-26 0-43.77-17.77-17.77-17.77-17.77-43.77v-425.84q0-25.62 18.91-43.58 18.9-17.96 44.63-17.96h8.66l369.34 369.34-75.31 75.31q-8.57 8.58-13.55 20.21-4.98 11.64-4.98 23.95v29.15q0 13.19-8.89 22.08-8.88 8.88-21.69 8.88H187.69ZM619-435.15 307.38-754.46h58.16l43.54 86.42q7 14 19.69 21.94 12.69 7.95 27.69 7.95 29.89 0 45.5-25.2 15.62-25.19 2.12-52.07l-19.27-39.04h103.84l43.27 86.42q7 14 19.7 21.94 12.69 7.95 27.69 7.95 29.88 0 45.63-25.2 15.75-25.19 2.25-52.07l-19.65-39.04h64.77q26 0 43.77 17.77 17.77 17.77 17.77 43.77v103.65q0 12.92-9.75 20.94-9.75 8.02-23.06 5.79-7.69-1-14.89-.67-7.19.33-14.38 1.94-14.77 2.89-28.1 9.46-13.32 6.58-24.75 17.62L619-435.15Z"/></svg>