<svg xmlns="http://www.w3.org/2000/svg" height="24" viewBox="0 -960 960 960" width="24"><path d="m858-336 23-26-37-37-24 25 38 38Zm2 117L702-377l83-82q12-13 27.5-19t31.5-6q17 0 32.5 6.5T905-459l37 38q12 12 18 27.5t6 31.5q0 17-6 32.5T942-301l-82 82Zm4.5 247Q843 28 828 12L728-87l4-4q-8 8-19.5 12.5T689-74h-65q-28 0-48-19.5T556-142v-65q0-11 5-22.5t13-19.5l-4 3L8-808q-15-15-15.5-36.5t15-37.5q15.5-16 37-16T81-882L901-62q15 15 15.5 36.5t-15 37.5q-15.5 16-37 16ZM170-114q-57 0-96.5-38.5T34-247v-463q0-44 25-79.5t66-49.5l462 464-71 70q-19 20-29.5 45T476-208v26q0 28-19.5 48T408-114H170Zm475-320L231-846h81l74 141q8 14 21.5 22t29.5 8q32 0 48-27t2-55l-45-89h138l70 140q7 15 20.5 23t29.5 8q32 0 48.5-26.5T750-756l-45-90h85q57 0 96.5 40t39.5 96v86q0 29-23.5 46.5T849-564q-9 0-17 .5t-15 1.5q-26 4-48 15.5T728-516l-83 82Z"/></svg>