<svg xmlns="http://www.w3.org/2000/svg" height="40" viewBox="0 -960 960 960" width="40"><path d="M462-402.67Zm96-94.66ZM146.67-160q-27 0-46.84-19.83Q80-199.67 80-226.67v-506.66q0-27.5 19.58-47.09Q119.17-800 146.67-800H160l221.33 221.33H146.67v352H460q14.17 0 23.75 9.62t9.58 23.83q0 14.22-9.58 23.72-9.58 9.5-23.75 9.5H146.67ZM880-733.33V-612q0 14.17-9.58 23.75-9.59 9.58-23.75 9.58h-370L255.33-800H334l60 122.67q7.49 14.93 21.39 23.46 13.9 8.54 29.94 8.54 31.23 0 48.12-26.81 16.88-26.81 2.88-55.19L460.67-800h116.66l60.34 122.67q7.48 14.93 21.39 23.46 13.9 8.54 29.94 8.54 31.67 0 48.17-26.81t2.5-55.19L704-800h109.33q27 0 46.84 19.83Q880-760.33 880-733.33ZM860-383l-37-37 37 37Zm-51 136.33-122.33-122L781-463q9-9 20-13t22-4q12 0 23 4.5t20 13.5l37 37q9 9 13 20t4 22q0 11-4.33 22.5-4.34 11.5-13.34 20.5L809-246.67ZM620-180h38l13.33-13.33-38-38L620-218v38ZM836.17-43q-13.84.33-23.84-9.67l-98.66-98.66L693-130q-5.33 5.33-11.31 7.67-5.98 2.33-12.36 2.33h-76q-14.16 0-23.75-9.58-9.58-9.59-9.58-23.75v-76q0-6.38 2.33-12.36 2.34-5.98 7.67-11.31l21.33-20.33-539-539q-10-10.05-10-23.86 0-13.81 10.04-23.81 10.03-10 23.83-10 13.8 0 23.8 10l760 760q10 10 10 23.33 0 13.34-10 23.34T836.17-43Z"/></svg>