<svg xmlns="http://www.w3.org/2000/svg" height="24" viewBox="0 -960 960 960" width="24"><path d="m829.07-349.24 31.34-33.35-37-37-32.34 32.35 38 38Zm-7.31 103.63L686.43-380.43 775-468.5q10.2-10.2 22.67-15.04 12.48-4.85 25.74-4.85 13.76 0 26.24 5.1 12.48 5.09 22.68 15.29l37 37.5q10.19 10.2 15.04 22.42 4.85 12.23 4.85 25.49 0 13.83-4.85 26.28-4.85 12.44-15.04 22.64l-87.57 88.06Zm16.47 226.46q-16.95 0-29.58-12.63L708.04-132.39l-7.84 8.35q-6.63 6.63-15.05 9.94-8.41 3.32-17.61 3.32h-65.43q-20.59 0-35.54-14.96-14.96-14.96-14.96-35.54v-65.44q0-9.19 3.31-17.61 3.32-8.41 9.95-15.04l8.35-7.91L42.09-798.41q-12.63-12.63-12.63-29.58 0-16.95 12.63-29.58 12.63-12.63 29.57-12.63 16.95 0 29.58 12.63L867.81-91q12.63 12.63 12.63 29.61 0 16.98-12.63 29.61-12.63 12.63-29.58 12.63ZM171.78-149.78q-42.3 0-71.65-28.78-29.35-28.79-29.35-70.53v-460.13q0-35.52 22.47-62.32 22.47-26.81 56.79-34.72h2.5l426.33 426.89-72.35 72.35q-14.45 14.45-22.18 33.01-7.73 18.55-7.73 38.64v35.09q0 20.58-14.96 35.54-14.95 14.96-35.54 14.96H171.78Zm461.65-283.65L255.52-810.22h77l62 123.94q7.57 14 20.35 22.03 12.78 8.03 28.35 8.03 30.63 0 46.34-25.85 15.72-25.84 2.22-52.91l-37.37-75.24h120.35l62.5 123.94q7 14 19.78 22.03 12.79 8.03 28.35 8.03 30.63 0 46.38-25.56 15.75-25.57 2.25-52.63l-37.93-75.81h92.13q42.3 0 71.65 29.35 29.35 29.35 29.35 71.65v104.33q0 21.65-17.06 34.79-17.05 13.14-39.27 9.58-8.87-.44-17.24-.4-8.37.03-16.74 1.46-21.82 3.07-41.27 12.42Q738.2-537.7 722-521.5l-88.57 88.07Z"/></svg>