<svg xmlns="http://www.w3.org/2000/svg" height="20" viewBox="0 -960 960 960" width="20"><path d="M443.5-408Zm133.46-77.33ZM170.87-183.87q-33.78 0-58.39-24.37t-24.61-57.91v-426.98q0-31.61 21.03-54.8 21.03-23.18 51.93-26.53h24l225.32 225.33H170.87v282.26h290.2q17.45 0 29.47 11.96 12.03 11.97 12.03 29.33t-12.03 29.54q-12.02 12.17-29.47 12.17h-290.2Zm701.26-509.26v102.5q0 17.45-12.02 29.48-12.03 12.02-29.48 12.02H513.15l-227.24-227h65l60 119.76q5.24 11 16.2 17.62 10.95 6.62 23.59 6.62 24.41 0 36.79-20.31 12.38-20.32 1.38-42.65l-40.52-81.04h104.61l60 119.78q5 10.98 15.95 17.6 10.96 6.62 23.6 6.62 24.11 0 36.76-20.24 12.64-20.23 1.64-42.48l-40.76-81.28h138.98q34.48 0 58.74 24.61 24.26 24.61 24.26 58.39Zm-4.78 309.48-45-45 45 45Zm-56.89 131.58-119.7-119.69L786-466q7.98-8.17 17.72-11.8 9.75-3.63 19.39-3.63 10.51 0 20.12 3.85 9.6 3.86 17.47 11.58l44 45q8.17 7.98 11.8 17.72 3.63 9.75 3.63 19.39 0 9.95-3.65 19.83-3.66 9.87-11.78 17.76l-94.24 94.23Zm-183.11 63.42h37.41l-.96.95-37.41-37.41.96-.96v37.42ZM811.06-55.89q-14.69 0-26.24-11.55l-79.99-78.99 1.39-1.4q-5.5 5.48-12.62 8.72-7.11 3.24-15.34 3.24h-62.19q-17.46 0-29.48-12.02-12.02-12.03-12.02-29.48v-62.19q0-8.23 3.23-15.35 3.24-7.12 8.72-12.61l-1.39 1.15L72.15-781.35q-11.48-11.51-11.48-26.21 0-14.7 11.51-26.18 11.5-11.48 26.86-11.48t26.5 11.48L838-121.28q11.76 11.87 11.26 27.15t-12 26.76q-11.51 11.48-26.2 11.48Z"/></svg>