<svg xmlns="http://www.w3.org/2000/svg" height="24" viewBox="0 -960 960 960" width="24"><path d="m839.5-347.5 27-29-37-37-28 28 38 38Zm-6 114.5L686-380l89-88.5q11.5-11.5 25.5-17t29-5.5q15.5 0 29.5 5.75T884.5-468l37 37.5q11.5 11.5 17 25.25t5.5 28.75q0 16-5.5 29.75t-17 25.25l-88 88.5ZM854.75 6.5Q836.5 6.5 823-7L715-115l-3.5 4q-7.5 7.5-17 11.25t-20 3.75h-65Q585-96 567-114t-18-42.5v-65q0-10.5 3.75-20t11.25-17l4-4-542-542Q12.5-818 12.5-836.25T26-868q13.5-13.5 31.75-13.5T89.5-868l797 797Q900-57.5 900-39T886.5-7Q873 6.5 854.75 6.5ZM177-135q-51 0-86-34t-35-84v-451q0-39 22.25-69.5T137-818h2.5L578-378.5l-68 68q-17.5 17.5-26.75 39.75T474-224.5v29q0 24.5-18 42.5t-42.5 18H177Zm456-298L239-825h77l62 123.5q8 14 21 22.25t29 8.25q31.5 0 47-26.5t2-54L440.5-825h136L639-701.5q7 14 20 22.25t29 8.25q31.5 0 47.25-26t2.25-53.5L700-825h83q51 0 86 35t35 86v86.5q0 26-20.75 41.75T835.5-564q-8 0-15.5.25t-15 1.25q-24 3.5-44.75 13.5T722-521.5L633-433Z"/></svg>