<svg xmlns="http://www.w3.org/2000/svg" height="40" viewBox="0 -960 960 960" width="40"><path d="M842.38-337.97 873-370.83l-37-37-31.62 31.86 38 38Zm-9.3 107.59L695.8-368.33l90.43-89.44q10.41-10.65 23.19-15.56 12.77-4.9 26.58-4.9 13.73 0 26.63 5.02 12.9 5.03 23.55 15.44l37 38q10.41 10.41 15.32 23.19 4.91 12.77 4.91 25.75 0 13.9-5.24 27.13-5.24 13.23-15.66 23.88l-89.43 89.44Zm17.41 213.1q-16.92.33-29.35-12.34l-94.92-93.91-13.36 14.03q-5.84 5.84-13.82 9.29-7.97 3.46-16.39 3.46h-75.76q-19.11 0-32.04-12.81-12.92-12.8-12.92-32.16v-75.76q0-8.17 3.57-16.15 3.57-7.98 9.41-13.82l14.03-14.27L33.6-817.06Q21.33-828.66 21.13-846q-.2-17.34 12.35-29.67 12.55-12.34 29.56-12.34 17 0 29.43 12L879.85-88.63q12.27 12.43 12.47 29.39.19 16.96-12.35 29.29-12.55 12.33-29.48 12.67ZM146.01-137.61q-36.31 0-62.78-26.23-26.48-26.24-26.48-62.47v-506.82q0-34.25 22-59.72 22-25.48 55.6-28.19h13.33l452.7 453.79-78.6 78.37q-12.31 12.54-19.41 29.37-7.11 16.83-7.11 34.28v42.66q0 19.11-12.88 32.04-12.89 12.92-31.58 12.92H146.01Zm503.55-277.72L241.42-822.55h79.76l73.6 138.38q7.75 14.57 21.57 22.73t30.32 8.16q31.66 0 48.4-27.12 16.75-27.11 2.75-55.68l-42.77-86.47h139.54l66.75 137.19q7.67 14.9 21.45 23.49 13.79 8.59 30.36 8.59 31.65 0 48.9-27 17.25-26.99 2.85-55.56l-42.61-86.71h91.7q36.31 0 62.86 26.67 26.56 26.68 26.56 62.75v149.17q0 19.45-15.38 30.67-15.38 11.22-34.91 7.12-10.68-1.42-20.57-1.3-9.88.12-18.41 1.88-20.89 3.93-39.24 13.72-18.35 9.78-35.67 27.1l-89.67 89.44Z"/></svg>