<svg xmlns="http://www.w3.org/2000/svg" height="20" viewBox="0 -960 960 960" width="20"><path d="M430.5-411ZM574-480ZM185-167q-46.94 0-79.97-32.03T72-277v-403q0-35.64 19.9-63.82T145-786h26.5l244 244H185v262h256.5q22.8 0 39.65 16.79Q498-246.42 498-223.71T481.15-184q-16.85 17-39.65 17H185Zm703-513v81.5q0 22.8-16.85 39.65Q854.3-542 831.5-542H512L260-793h62.22L380-679.5q6 11 17.01 17.75 11.02 6.75 24.13 6.75 25.36 0 36.86-20.81t1-43.69L422.5-793h142L622-679.4q5 10.9 16.01 17.65 11.02 6.75 24.11 6.75 25.01 0 37.44-20.48 12.44-20.48 1.94-43.02L664-793h111q47.64 0 80.32 33.03Q888-726.94 888-680Zm-17.5 299.5-45-45 45 45Zm-52 144.5L681-374l99-97.5q9.76-10.09 21.89-14.79 12.12-4.71 24.14-4.71 13.11 0 25 4.75 11.9 4.75 21.47 14.25l44 45.5q10.32 9.68 14.91 21.51 4.59 11.82 4.59 24.25 0 13.76-4.68 25.2-4.67 11.44-14.82 21.04l-98 98.5Zm-188 50.5h26-.5L630.5-211v-.5 26Zm204.64 164q-15.64 0-28.42-12.78L711-129l5.5-5q-6.66 6.5-15.22 10.25-8.57 3.75-18.35 3.75H621.5q-22.8 0-39.65-16.85Q565-153.7 565-176.5v-61.43q0-9.78 3.75-18.35 3.75-8.56 10.25-15.22l-5 4-520-522q-12.5-12.63-12.5-28.32 0-15.68 12.61-28.18 12.6-12.5 28.91-12.5 16.31 0 28.48 12.5L864.22-93.28Q877-80.23 876.5-63.36 876-46.5 863.39-34q-12.6 12.5-28.25 12.5Z"/></svg>