<svg xmlns="http://www.w3.org/2000/svg" height="48" viewBox="0 -960 960 960" width="48"><path d="m823.8-347.28 35.33-37.33-37-37-36.33 36.33 38 38Zm-21.02 107.54L677.26-365.26 778-466q9.48-8.98 20.74-13.34 11.26-4.36 23.38-4.36 12.16 0 23.54 4.61 11.38 4.61 20.86 14.09l37 37q8.98 9.41 13.34 20.79 4.36 11.38 4.36 22.85 0 11.71-4.86 23.56-4.86 11.84-13.69 20.68l-99.89 100.38Zm45.04 201.5q-12.36.5-21.34-8.48L717.87-155.33l-25.59 27.09q-5.24 4.74-10.5 6.98t-11.41 2.24h-80.76q-14.18 0-23.62-9.45-9.45-9.44-9.45-23.62v-80.76q0-5.98 2.24-11.32 2.24-5.35 6.98-10.59l27.09-26.33L50.44-823.5q-8.87-8.87-8.99-21.35-.12-12.48 8.85-21.45 8.98-8.98 21.44-8.98 12.47 0 21.98 8.98L869.55-90.47q8.84 9.08 8.96 21.43.12 12.34-9.11 21.32-9.23 8.98-21.58 9.48ZM144.65-158.52q-26.62 0-46.12-19.27-19.51-19.27-19.51-45.88v-512.18q0-25.46 17.07-43.75t42.15-20.68h21.5l435.02 435.02-75.83 75.83q-9.19 9.19-14.54 21.82-5.35 12.62-5.35 25.65v50.37q0 14.18-9.6 23.62-9.6 9.45-23.2 9.45H144.65Zm492.61-246.74L240.8-801.72h76.33l57.06 116.21q8.11 15.29 22.04 24.04t31.14 8.75q32.18 0 48.91-27.24 16.74-27.24 2.74-56.97l-31.26-64.79h141.46l56.4 116.21q8.1 15.29 21.9 24.04 13.8 8.75 31.25 8.75 32.16 0 49.03-27.12 16.87-27.12 3.13-56.86l-31.76-65.02h96.18q26.62 0 46.24 19.63 19.63 19.62 19.63 46.24v167.09q0 14.66-11.05 22.86t-25.29 4.97q-10.95-1.77-20.59-1.65-9.64.12-18.66 1.38-18.46 3-35.05 11.11-16.6 8.11-32.58 24.09L637.26-405.26Z"/></svg>