<svg xmlns="http://www.w3.org/2000/svg" height="20" viewBox="0 -960 960 960" width="20"><path d="M440.5-411Zm131.76-72.04ZM179.78-181.78q-38.24 0-65.62-26.82-27.38-26.81-27.38-64.49v-412.13q0-32.16 20.12-56.64 20.12-24.49 51.14-32.4h26.5l227.05 227.04H179.78v272.44h274.33q18.89 0 32.69 13.74 13.81 13.75 13.81 32.55 0 18.79-13.81 32.75-13.8 13.96-32.69 13.96H179.78Zm693.44-503.44v91.5q0 18.89-13.81 32.7-13.81 13.8-32.69 13.8H508.09l-231.57-231h62.22l57.78 113.94q5.57 11 16.26 17.53 10.69 6.53 23.44 6.53 24.63 0 36.34-20.24 11.72-20.24 1.22-42.52l-37.37-75.24h126.35l57.5 113.99q5 10.95 15.7 17.48 10.69 6.53 23.41 6.53 24.28 0 36.71-20.05 12.44-20.06 1.94-42.14l-37.93-75.81h120.13q38.94 0 65.97 27.38t27.03 65.62Zm-8.81 298.63-45-45 45 45Zm-57.65 137.98L681.43-374.43 780-471.5q8.45-8.71 18.99-12.8 10.53-4.09 20.95-4.09 11.37 0 21.72 4.1 10.36 4.09 18.67 12.29l44 45.5q8.94 8.37 12.91 18.61 3.98 10.23 3.98 21.06 0 11.59-4.03 21.72-4.02 10.14-12.86 18.44l-97.57 98.06Zm-182.35 57.02h32.52l1.24-1.74-32.02-32.02-1.74 1.24v32.52ZM818.67-47.15q-14.39 0-26.18-11.79l-88.45-87.45 1.16-.65q-5.76 5.63-13.2 8.94-7.45 3.32-16.02 3.32h-61.87q-18.89 0-32.69-13.81-13.81-13.81-13.81-32.69v-61.87q0-8.57 3.31-16.02 3.32-7.44 8.95-13.2l-.65.09L70.09-783.41q-11.63-11.71-11.63-26.12t11.69-26.04q11.69-11.63 26.74-11.63 15.05 0 26.35 11.63l722.28 722.29q11.92 11.99 11.42 27.43t-12.19 27.07q-11.69 11.63-26.08 11.63Z"/></svg>