<svg xmlns="http://www.w3.org/2000/svg" height="24" viewBox="0 -960 960 960" width="24"><path d="m828.74-343.04 34.61-36.61-37-37-35.61 35.61 38 38Zm-3.28 93.97-129.7-128.69L781-463q9.72-9.72 21.55-14.08 11.84-4.35 23.8-4.35 12.95 0 24.79 4.85 11.84 4.86 21.56 14.58l37 37q9.71 9.72 14.07 21.55 4.36 11.84 4.36 23.8 0 12.19-4.36 24.41T909.7-333.3l-84.24 84.23Zm5.13 221.18q-17.22 0-29.7-12.48l-92.06-92.06-7.61 7.6q-6.48 6.48-14.58 9.72t-16.81 3.24h-65.76q-19.16 0-32.33-13.17-13.17-13.18-13.17-32.33v-65.76q0-8.72 3.23-16.82 3.24-8.09 9.72-14.57l7.61-6.85L44.15-796.35q-12.48-12.48-12.48-29.69 0-17.22 12.48-29.7t29.7-12.48q17.22 0 29.69 12.48L860.28-99q12.48 12.48 12.48 29.32 0 16.83-12.48 29.31t-29.69 12.48ZM162.87-151.87q-37.78 0-64.39-26.37t-26.61-63.91v-474.98q0-34.91 23.38-60.45 23.38-25.53 57.58-28.88l428.69 428.94-76.61 76.61q-12.67 12.67-19.51 29.2-6.83 16.54-6.83 34.69v39.65q0 19.15-13.18 32.33-13.17 13.17-32.32 13.17h-270.2Zm475.89-282.89L264.91-808.13h80l64 129.76q7.24 14 20.36 22.12 13.12 8.12 28.36 8.12 30.48 0 46.86-25.86t2.38-53.1l-40.52-81.04h98.61l65 129.76q7 14 20.12 22.12 13.12 8.12 28.35 8.12 30.48 0 46.48-25.74 16-25.74 2-52.98l-40.76-81.28h110.98q37.78 0 64.39 26.61t26.61 64.39v118.2q0 19.39-15.03 31.32-15.03 11.94-34.67 8.7-9.52-.76-19.04-.64t-19.04 1.88q-21.2 3.24-40.92 12.59Q739.72-535.72 724-520l-85.24 85.24Z"/></svg>