<svg xmlns="http://www.w3.org/2000/svg" height="20" viewBox="0 -960 960 960" width="20"><path d="m839.31-338.69 36-36.62-45-45.38-36 37 45 45Zm-17.77 85.46L707.85-367.92l88.92-86.93q7.46-7.07 16.15-10.8 8.69-3.73 18.39-3.73 8.3 0 17.69 3.03 9.38 3.04 16.46 10.12l44 46.38q7.08 7.47 10.81 16.16Q924-385 924-375.31t-3.54 18.19q-3.54 8.5-11 15.96l-87.92 87.93ZM817.5-60.31q-14.58 0-26.88-12.31l-75.85-73.84-.62.61q-6.61 6.62-14.15 10.23-7.54 3.62-17.77 3.62h-50.46q-18.46 0-31.81-13.35-13.34-13.34-13.34-31.81v-50.46q0-10.23 3.61-17.76 3.62-7.54 10.23-14.16l.62-2L74-790.62q-11.92-11.92-12.11-26.69-.2-14.77 12.11-27.07 12.31-12.31 27.39-12.31 15.07 0 27.38 12.31l716.61 716.61q11.93 11.92 11.62 27.38-.31 15.47-12.62 27.77-12.3 12.31-26.88 12.31ZM174.31-182q-37.31 0-63.81-26.5T84-272.31v-415.38q0-36.92 23.89-63.62Q131.77-778 167.69-778h27.47l404.3 406.31L534-306.23q-13.85 13.84-20.46 30.69-6.62 16.85-6.62 34.31v14.07q0 18.47-13.34 31.81Q480.23-182 461.77-182H174.31Zm476.23-240.38L297.77-778h57l77.38 131q5 10 15.5 15.5t23.5 5.5q24 0 35.81-20 11.81-20 .81-42l-45-90h129.85l63 128q5 11 16 17.5t23 6.5q24 0 37-20t2-42l-45-90h97.07Q824-778 850-751.5t26 63.81v97.07q0 18.08-16.16 29.62-16.15 11.54-35.61 7.92-7.85-1-13-.3-5.15.69-11 2.69-17.69 6-30.69 14.84-13 8.85-26.46 22.31l-92.54 91.16Z"/></svg>