<svg xmlns="http://www.w3.org/2000/svg" height="24" viewBox="0 -960 960 960" width="24"><path d="m851-334 28-30-37-37-29 29 38 38Zm4 98L714-377l77-76q11-11 24-16t27-5q14 0 27.5 5t24.5 16l37 38q11 11 16 24t5 27q0 14-5 27.5T931-312l-76 76ZM834.5-15Q813-15 797-31l-74-73q-8 8-17.5 12T685-88h-66q-22 0-37.5-15.5T566-141v-66q0-11 4-20.5t12-17.5L31-796q-16-16-16-37.5T31-871q16-16 37.5-16t37.5 16l766 766q16 16 16 37t-16 37q-16 16-37.5 16ZM154-130q-44 0-75-31t-31-75v-488q0-43 28.5-74.5T147-830l453 454-83 83q-15 15-23 34.5t-8 40.5v35q0 22-15.5 37.5T433-130H154Zm504-304L261-830h82l91 161q7 13 19.5 20t28.5 7q30 0 46-25.5t2-52.5l-55-110h120l78 158q7 14 20 22t28 8q30 0 46.5-25.5T770-720l-55-110h91q44 0 75 31t31 75v124q0 23-18.5 36.5T852-555q-11-1-20.5-1t-18.5 2q-23 5-42.5 16T734-510l-76 76Z"/></svg>