<svg xmlns="http://www.w3.org/2000/svg" height="40" viewBox="0 -960 960 960" width="40"><path d="m480-80-103.33-94.67Q273.33-267.33 209.83-333.5q-63.5-66.17-99.16-117.5Q75-502.33 62.83-545.17 50.67-588 50.67-636q0-104.33 69.33-175.83 69.33-71.5 173-71.5 55.33 0 102.5 22.5t84.5 63.16q40.67-42 86.83-63.83Q613-883.33 667-883.33q102.33 0 171.67 69 69.33 69 71.66 173.66h-109q-1.66-52.66-41.83-94.33T667-776.67q-45 0-87.17 29.17-42.16 29.17-55.83 77.83h-87q-14.33-48-56.5-77.5t-87.5-29.5q-60 0-97.67 40-37.66 40-37.66 100.67 0 36.33 12.5 70.5t47.33 79.83Q252.33-440 315.33-377T480-221l58.33-56.33q49-46.67 95-90.67T726-467h-77.33v-107h261.66v252h-106v-74.33Q750-337.67 700-286.33q-50 51.33-109 104L480-80Z"/></svg>