<svg xmlns="http://www.w3.org/2000/svg" height="24" viewBox="0 -960 960 960" width="24"><path d="m480-177.5-76.5-70q-76-69-127.5-122t-82.25-97Q163-510.5 150-548t-13-75q0-69 47.5-116.75t117-47.75q52.5 0 98 28.5t80.5 84q35.5-55.5 80.75-84t97.75-28.5q61 0 111.75 42.75T824.5-632h-27q-3-60.5-46.5-95.25T658.5-762q-47 0-87.75 27.25T496.5-649H464q-35-59.5-74.75-86.25T301.5-762q-59.5 0-99.25 40t-39.75 99q0 34.5 14 70.25t49.75 82.25Q262-424 323.5-362T480-212l72-66.5q63.5-58.5 119.25-118T776-529H651.5v-25.5H824V-383h-25.5v-133Q748-438.5 688.25-375.5T560-250.5l-80 73Z"/></svg>