<svg xmlns="http://www.w3.org/2000/svg" height="20" viewBox="0 -960 960 960" width="20"><path d="m480-166.77-77.88-70.35q-78.35-70.23-129.31-123.4-50.96-53.17-79.41-96.63-28.44-43.47-39.84-79.45-11.41-35.98-11.41-71.21 0-69.07 48.12-118.32 48.11-49.25 116.58-49.25 50.27 0 95.44 26 45.17 26 77.71 76.15 33.27-50.15 76.58-76.15 43.3-26 92.57-26 72.12 0 123.62 54.11 51.5 54.12 47.11 128.46h-28.3q6.11-56.73-32.6-105.19t-109.83-48.46q-53.23 0-86.9 28.19-33.67 28.19-66.21 77.46h-31.69q-35.58-51.04-67.27-78.34-31.7-27.31-90.23-27.31-59.16 0-97.47 40.27-38.3 40.27-38.3 98.38 0 32.27 12.5 66.23t46.69 79q34.19 45.04 94.08 106.46 59.88 61.43 155.65 150.5l65.35-61.61q62.27-58.39 111.82-111.42 49.56-53.04 95.83-116.31h-95.31v-28.92h160.93v160.92h-28.93l1-132.69Q744.35-425 689.79-366.4q-54.56 58.59-117.71 115.48L480-166.77Z"/></svg>