<svg xmlns="http://www.w3.org/2000/svg" height="24" viewBox="0 -960 960 960" width="24"><path d="M480-73.22 365.91-177.3Q270-264.74 207.92-328.82q-62.07-64.07-98.55-116.03-36.48-51.95-50.6-97.17-14.12-45.22-14.12-94.94 0-106.91 72.96-179.61 72.96-72.69 180.63-72.69 48.48 0 96.12 19.02Q442-851.22 480-816.93q38-34.29 85.64-53.31 47.64-19.02 96.12-19.02 90.15 0 168.01 59.72 77.86 59.71 85.82 169.43H800.93q-7.95-61.41-53.64-88.69-45.68-27.29-85.53-27.29-44.04 0-84.68 26.88-40.65 26.88-45.65 59.84H428.8q-5-32.96-45.64-59.84-40.64-26.88-84.92-26.88-61.33 0-100.75 39.67-39.42 39.66-39.42 99.46 0 35.76 13.88 71.03 13.88 35.26 50.28 81.4 36.4 46.14 98.68 108.04Q383.2-314.59 480-226.54l55.09-51.57q49.08-46.09 95.79-92.55 46.71-46.47 92.51-96.04h-70.37v-113.41h262.57v259.18H802.41v-64.5q-50.24 55.8-101.8 106.22-51.57 50.43-106.09 100.71L480-73.22Z"/></svg>