<svg xmlns="http://www.w3.org/2000/svg" height="40" viewBox="0 -960 960 960" width="40"><path d="m480-160-90.44-82.41q-78.46-71.72-130.47-125.31-52.01-53.59-82.97-97.1-30.97-43.51-43.54-80.67Q120-582.64 120-621.36q0-75.33 51.28-126.99Q222.56-800 296.92-800q54.05 0 100.77 28.46T480-688.31q37.38-55.59 83.36-83.64Q609.33-800 663.08-800q72.56 0 124.19 50.04 51.63 50.04 53.27 123.81h-35.69q-1.26-63.7-45.98-101.85-44.72-38.15-95.79-38.15-49.21 0-90.75 28.55t-76.1 88.22H463.1q-34.59-59.77-75.93-88.27-41.35-28.5-90.25-28.5-60.79 0-101.93 41.34-41.14 41.35-41.14 103.45 0 34.74 13.51 69.9 13.51 35.15 49.59 81.68 36.08 46.52 99.61 109.64Q380.1-297.03 480-205.08l72.38-66.89Q615-329.41 672.35-388.41q57.34-59 106.19-130.05H659.92v-33.85h180.85v179.85h-33.85v-127.98q-49.46 73.75-109.71 135.26-60.26 61.51-125.72 121.72L480-160Z"/></svg>