<svg xmlns="http://www.w3.org/2000/svg" height="20" viewBox="0 -960 960 960" width="20"><path d="m480-131-102.5-91.5q-79.5-71-132-124.75T162.25-446q-30.75-45-43.5-84.25T106-610.5q0-86 58.5-145.25T308-815q49.5 0 95.25 21T480-734q32.5-39 76-60t92-21q82.5 0 146.5 62t60 157.5h-66q6.5-57.5-31.25-105T648-748q-54 0-85.75 28t-57.75 66.5h-49q-27.5-39.5-59-67T308-748q-58 0-96.5 39.5t-38.5 98q0 31.5 12.5 64.5t46.5 76.5q34 43.5 93.5 103T480-221l56.5-52q51.5-48 98.75-94.5t87.75-94h-68v-67h199v199h-67l1-105q-42.5 54.5-94.75 106.75T589-229l-109 98Z"/></svg>