<svg xmlns="http://www.w3.org/2000/svg" height="40" viewBox="0 -960 960 960" width="40"><path d="m480-105.85-96.86-88.95q-97.15-88.19-158.13-150.95-60.97-62.76-95.34-111.74-34.37-48.99-46.6-89.88-12.23-40.9-12.23-86.35 0-96.64 64.57-162.71 64.58-66.08 159.92-66.08 54.98 0 101.83 23.47T480-770.73q40.15-46.5 85.75-69.14 45.61-22.64 98.92-22.64 92.95 0 159.76 66.28 66.81 66.27 64.8 168.32h-86.05q2.91-55.86-36.39-102.63-39.3-46.78-102.12-46.78-45.95 0-88.38 28.94-42.44 28.93-58.72 79.55h-74.91q-16.34-49.95-58.28-79.22-41.93-29.27-89.05-29.27-61.68 0-100.4 40.66-38.71 40.66-38.71 102.94 0 36.4 12.71 70.57 12.72 34.16 48.06 79.74 35.34 45.57 98.6 108.34Q378.84-312.3 480-218.3l62.31-59.03q52.49-50.12 100.8-97.34 48.32-47.23 94.96-104.53h-85.06v-85.37h236.72v230.81h-84.82v-93.28Q750.5-363.77 697.7-309.82q-52.8 53.94-114.27 108.97l-103.43 95Z"/></svg>