<svg xmlns="http://www.w3.org/2000/svg" height="40" viewBox="0 -960 960 960" width="40"><path d="m480-82-104-95q-101-92-164.33-157.33-63.34-65.34-99-116.17Q77-501.33 64.5-544.17 52-587 52-634.67 52-739 121.17-810q69.16-71 172.16-71 55 0 102 22T480-794.67q41-43.66 87-65Q613-881 666.67-881q102 0 170.83 69 68.83 69 70.5 173H801q-1.67-53.67-41.67-95.17t-92.66-41.5q-45 0-87 28.84-42 28.83-57 78.5h-85q-15-49-56.5-78.17t-87.84-29.17q-60 0-97.83 39.84-37.83 39.83-37.83 101.16 0 36 12.5 70t47.66 79.34Q253-440 315.83-377.5 378.67-315 480-221l59-56.33q49.33-46.67 95.67-91.34 46.33-44.66 91-98h-77v-105.66H909v250.66H804.33v-76.66q-54 59.66-104.16 111Q650-236 591-183.67L480-82Z"/></svg>