<svg xmlns="http://www.w3.org/2000/svg" height="48" viewBox="0 -960 960 960" width="48"><path d="M359-30H240q-18.37 0-31.69-12.66Q195-55.32 195-74.57t13.31-33.34Q221.63-122 240-122h119q18.25 0 32.13 14.24Q405-93.52 405-74.74q0 19.76-13.87 32.25Q377.25-30 359-30Zm361 0H602q-19.35 0-32.67-12.66Q556-55.32 556-74.57t13.33-33.34Q582.65-122 602-122h118q18.8 0 32.4 14.24Q766-93.52 766-74.74q0 19.76-13.6 32.25Q738.8-30 720-30ZM217-182q-39.54 0-65.77-29.82Q125-241.64 133-282l92.05-548.8q5.25-31.55 29.25-51.37Q278.3-902 308-902h344q29.39 0 54.99 19.62Q732.58-862.76 737-831l90 549q7 40.31-19.02 70.15Q781.96-182 743-182H217Zm6-91h513l-88-537H312l-89 537Zm256.83-60q61.17 0 103.67-41.62T626-476q0-60.59-42.29-103.29Q541.41-622 480.33-622q-60.67 0-102.5 42.5T336-476.5q0 60.74 41.86 102.12Q419.73-333 479.83-333Zm.39-77q-26.3 0-46.76-20.41Q413-450.82 413-476.15q0-25.02 20.24-46.94Q453.48-545 480.28-545t46.76 21.64Q547-501.72 547-476.07t-19.89 45.86Q507.23-410 480.22-410Zm-1.19-272q16.39 0 26.18-8.72 9.79-8.73 9.79-25.79 0-16.31-9.92-25.9-9.91-9.59-25.55-9.59-14.89 0-24.71 9.59t-9.82 26.4q0 16.81 9.81 25.41 9.8 8.6 24.22 8.6Zm.97 205Z"/></svg>