<svg xmlns="http://www.w3.org/2000/svg" height="24" viewBox="0 -960 960 960" width="24"><path d="M365.8 8.17H240q-23.34 0-39.96-16.45-16.63-16.46-16.63-40.01 0-23.56 16.63-40.13Q216.66-105 240-105h125.8q23.34 0 39.97 16.62 16.62 16.63 16.62 39.97 0 23.67-16.62 40.13Q389.14 8.17 365.8 8.17Zm354.2 0H594.2q-23.34 0-39.97-16.45-16.62-16.46-16.62-40.01 0-23.56 16.62-40.13Q570.86-105 594.2-105H720q23.34 0 39.96 16.62 16.63 16.63 16.63 39.97 0 23.67-16.63 40.13Q743.34 8.17 720 8.17ZM207.43-145q-45.72 0-74.27-34.31-28.55-34.31-21.31-78.99l92.24-577.21q5.31-34.49 32.38-57.16 27.07-22.68 61.96-22.68h363.14q34.87 0 62.24 22.31 27.38 22.31 33.34 57.56l99.33 577.18q8.24 44.78-20.43 79.04Q807.38-145 762.13-145h-554.7Zm19.31-113.17h515.09l-95.13-544H312.3l-85.56 544Zm253.26-40q64.49 0 110.19-45.63t45.7-110.03q0-64.63-45.7-110.26-45.7-45.63-110.19-45.63t-110.19 45.63q-45.7 45.63-45.7 110.26 0 64.4 45.7 110.03 45.7 45.63 110.19 45.63Zm0-100.59q-22.59 0-38.83-16.34-16.24-16.33-16.24-38.76t16.24-38.85q16.24-16.42 38.83-16.42t38.83 16.38q16.24 16.39 16.24 38.89t-16.24 38.8q-16.24 16.3-38.83 16.3Zm-.23-250.96q20.87 0 34.91-13.87 14.04-13.87 14.04-34.84 0-20.98-14.04-34.85-14.04-13.87-34.8-13.87-20.75 0-34.67 13.87-13.93 13.87-13.93 34.85 0 20.97 13.94 34.84 13.94 13.87 34.55 13.87Zm.23 195.89Z"/></svg>