<svg xmlns="http://www.w3.org/2000/svg" height="24" viewBox="0 -960 960 960" width="24"><path d="M359 0H240q-26 0-44.5-18.5T177-63q0-26 18.5-44.5T240-126h119q26 0 44.5 18.5T422-63q0 26-18.5 44.5T359 0Zm361 0H601q-26 0-44.5-18.5T538-63q0-26 18.5-44.5T601-126h119q26 0 44.5 18.5T783-63q0 26-18.5 44.5T720 0ZM216-166q-48 0-79-36.5T114-287l92-542q6.3-37.35 34.65-61.17Q269-914 307-914h346q37.62 0 66.81 23.5Q749-867 755-829l91 542q8 48-22.42 84.5T745-166H216Zm27-126h474l-84-496H326l-83 496Zm237-40q61 0 103.5-42.5T626-478q0-61-42.5-103.5T480-624q-61 0-103.5 42.5T334-478q0 61 42.5 103.5T480-332Zm0-106q-16.5 0-28.25-11.65-11.75-11.64-11.75-28Q440-494 451.75-506T480-518q16.5 0 28.25 11.85Q520-494.29 520-477.65q0 16.65-11.75 28.15T480-438Zm-.98-226q19.98 0 34.48-13.8Q528-691.6 528-712q0-20.4-14.5-34.2Q499-760 479.02-760q-19.98 0-33.5 13.8T432-712q0 20.4 13.52 34.2 13.52 13.8 33.5 13.8Zm.98 186Z"/></svg>