<svg xmlns="http://www.w3.org/2000/svg" height="40" viewBox="0 -960 960 960" width="40"><path d="M359-13.33H240q-21.83 0-37.08-15.29-15.25-15.28-15.25-37.11 0-21.82 15.25-37.38 15.25-15.56 37.08-15.56h119q21.75 0 37.37 15.68Q412-87.32 412-65.49q0 21.82-15.63 36.99Q380.75-13.33 359-13.33Zm361 0H601q-21.83 0-37.08-15.29-15.25-15.28-15.25-37.11 0-21.82 15.25-37.38 15.25-15.56 37.08-15.56h119q21.83 0 37.08 15.68 15.25 15.67 15.25 37.5 0 21.82-15.25 36.99Q741.83-13.33 720-13.33ZM216-172q-42.53 0-70.6-32.5-28.07-32.5-20.73-75.83l92-551.34q5.63-33.35 30.98-55.17Q273-908.67 307-908.67h346q33.62 0 59.81 21.17 26.19 21.17 31.52 55.83L836-280.33q6.67 43.33-20.82 75.83Q787.69-172 745-172H216Zm14.33-104.67h499.34l-87.34-526.66H316.67l-86.34 526.66ZM479.89-330q61.11 0 103.28-42.11 42.16-42.11 42.16-102.56 0-60.33-42.16-102.83Q541-620 480.22-620t-102.83 42.5Q335.33-535 335.33-475q0 61.1 42.08 103.05Q419.48-330 479.89-330Zm.26-88.67q-23.32 0-40.07-16.34-16.75-16.35-16.75-39.3 0-22.76 16.61-40.22Q456.54-532 479.85-532q23.32 0 40.07 17.24 16.75 17.23 16.75 40.5 0 23.26-16.61 39.43-16.6 16.16-39.91 16.16Zm-.8-254.66q16.98 0 28.82-11.22Q520-695.77 520-713.33q0-17.07-11.92-28.54-11.91-11.46-28.73-11.46-16.31 0-27.83 11.46Q440-730.4 440-713t11.47 28.53q11.47 11.14 27.88 11.14Zm.65 198Z"/></svg>