<svg xmlns="http://www.w3.org/2000/svg" height="40" viewBox="0 -960 960 960" width="40"><path d="M363.8-22.35H240q-18.2 0-31.25-12.91T195.7-66.62q0-18.45 13.05-31.8 13.05-13.35 31.25-13.35h123.8q18.19 0 31.32 13.37 13.14 13.36 13.14 31.89 0 18.57-13.14 31.37-13.13 12.79-31.32 12.79Zm356.2 0H596.86q-18.85 0-31.91-12.91-13.05-12.91-13.05-31.36t13.05-31.8q13.06-13.35 31.91-13.35H720q18.49 0 31.73 13.37 13.23 13.36 13.23 31.89 0 18.57-13.23 31.37Q738.49-22.35 720-22.35ZM210.77-165.1q-39.61 0-64.82-29.91-25.21-29.91-18.48-68.95l91.61-569.37q5.12-30.38 28.69-50.23 23.58-19.85 54-19.85h356.46q30.4 0 54.61 19.49 24.22 19.48 29.36 50.41l96.15 569.55q6.9 39.03-18.5 68.95-25.41 29.91-64.39 29.91H210.77Zm269.2-142.6q64.01 0 108.95-44.64t44.94-107.65q0-63.96-44.8-109.16-44.8-45.21-108.75-45.21-63.68 0-108.51 45.07-44.84 45.06-44.84 108.97 0 63.66 44.86 108.14 44.85 44.48 108.15 44.48Zm.13-80.29q-29.32 0-51.04-21.55-21.72-21.54-21.72-50.48 0-29.31 21.62-51.42 21.61-22.11 51.27-22.11 29.66 0 51.05 21.99 21.38 21.99 21.38 51.34 0 29.34-21.38 50.78-21.38 21.45-51.18 21.45Zm-.33-279.7q16.88 0 28.09-10.79 11.2-10.8 11.2-27.95 0-16.64-11.29-28.02-11.29-11.37-28.13-11.37-16.35 0-27.53 11.37-11.17 11.38-11.17 28.36 0 16.98 11.18 27.69t27.65 10.71Z"/></svg>