<svg xmlns="http://www.w3.org/2000/svg" height="40" viewBox="0 -960 960 960" width="40"><path d="M359.76-64.06H240q-16 0-26.94-10.97-10.94-10.97-10.94-27.01 0-16.03 10.94-26.98T240-139.97h119.76q15.98 0 27.01 11.07 11.03 11.06 11.03 27.1 0 16.03-11.03 26.89-11.03 10.85-27.01 10.85Zm360.24 0H600.24q-16 0-26.94-10.97-10.94-10.97-10.94-27.01 0-16.03 10.94-26.98t26.94-10.95H720q16 0 26.94 11.07 10.94 11.06 10.94 27.1 0 16.03-10.94 26.89Q736-64.06 720-64.06ZM216-193.3q-36.04 0-59.49-27.69-23.45-27.68-17.39-63.65l91.24-537.64q5.15-28.01 26.56-46.29 21.41-18.29 50.08-18.29h346q28.58 0 50.19 17.87t26.69 46.71l91.92 537.64q5.9 35.97-17.41 63.65Q781.08-193.3 745-193.3H216Zm263.97-129.09q64.33 0 109.16-44.94 44.83-44.93 44.83-108.35 0-64.14-44.83-109.3t-108.82-45.16q-63.99 0-109.05 45.16-45.06 45.16-45.06 108.97 0 64.06 45.08 108.84t108.69 44.78Zm.13-71.93q-33.79 0-57.96-23.87-24.17-23.88-24.17-57.41 0-33.89 24.07-58.34 24.06-24.44 57.86-24.44 33.79 0 57.96 24.33 24.17 24.32 24.17 58.25t-24.07 57.71q-24.06 23.77-57.86 23.77Zm0-289.16q14.71 0 24.77-9.97 10.06-9.98 10.06-24.96 0-14.48-10.14-24.7-10.15-10.22-24.95-10.22-14.3 0-24.53 10.22-10.24 10.22-10.24 25.04 0 14.81 10.23 24.7 10.22 9.89 24.8 9.89Z"/></svg>