<svg xmlns="http://www.w3.org/2000/svg" height="20" viewBox="0 -960 960 960" width="20"><path d="M408.31-116H276q-6.8 0-11.4-4.55-4.6-4.54-4.6-11.27 0-6.72 4.6-11.45Q269.2-148 276-148h132.31q6.8 0 11.4 4.55 4.6 4.54 4.6 11.27 0 6.72-4.6 11.45-4.6 4.73-11.4 4.73ZM684-116H551.69q-6.8 0-11.4-4.55-4.6-4.54-4.6-11.27 0-6.72 4.6-11.45 4.6-4.73 11.4-4.73H684q6.8 0 11.4 4.55 4.6 4.54 4.6 11.27 0 6.72-4.6 11.45Q690.8-116 684-116ZM239.08-216q-24.47 0-40.47-18.19-15.99-18.19-12.3-41.96l89.07-504q3.7-18.91 17.88-31.38Q307.44-824 326.38-824h307.24q18.63 0 33.08 12.38 14.45 12.39 17.92 31.47l87.3 504q2.7 23.77-12.29 41.96Q744.65-216 720.92-216H239.08ZM480-342.15q48.46 0 81.23-32.77T594-456.15q0-48.47-32.77-81.23-32.77-32.77-81.23-32.77t-81.23 32.77Q366-504.62 366-456.15q0 48.46 32.77 81.23T480-342.15Zm-.21-32q-33.91 0-57.85-24.26Q398-422.66 398-456.71q0-34.06 24.15-57.75 24.15-23.69 58.06-23.69 33.92 0 57.85 24.09Q562-489.97 562-456.14t-24.15 57.91q-24.15 24.08-58.06 24.08Zm0-288.62q9.83 0 17.63-7.19 7.81-7.2 7.81-17.83 0-9.83-7.6-17.63-7.59-7.81-17.8-7.81t-17.64 7.6q-7.42 7.59-7.42 17.8t7.19 17.64q7.2 7.42 17.83 7.42Z"/></svg>