<svg xmlns="http://www.w3.org/2000/svg" height="20" viewBox="0 -960 960 960" width="20"><path d="M401.8-7.83H276q-21.64 0-37.11-15.24-15.48-15.25-15.48-37.01 0-21.77 15.48-37.34Q254.36-113 276-113h125.8q21.64 0 37.12 15.41 15.47 15.42 15.47 36.97 0 21.88-15.47 37.34Q423.44-7.83 401.8-7.83Zm282.2 0H558.2q-21.64 0-37.12-15.24-15.47-15.25-15.47-37.01 0-21.77 15.47-37.34Q536.56-113 558.2-113H684q21.64 0 37.11 15.41 15.48 15.42 15.48 36.97 0 21.88-15.48 37.34Q705.64-7.83 684-7.83ZM207.43-161q-42.18 0-68.5-31.31t-20.08-71.99l97.24-561.21q5.31-31.49 29.94-52.66 24.64-21.18 56.4-21.18h355.14q31.74 0 56.68 20.81t30.9 53.06L847.48-264.3q6.24 40.78-19.64 72.04Q801.97-161 761.13-161h-553.7ZM480-314.17q58.49 0 99.19-40.63 40.7-40.63 40.7-99.03 0-58.63-40.7-99.26T480-593.72q-58.49 0-99.19 40.63-40.7 40.63-40.7 99.26 0 58.4 40.7 99.03T480-314.17Zm-.21-92.59q-19.38 0-33.12-14.05-13.74-14.04-13.74-33.26t13.96-33.14q13.95-13.92 33.32-13.92 19.38 0 33.12 14.1 13.74 14.09 13.74 33.38 0 19.29-13.96 33.09-13.95 13.8-33.32 13.8Zm-.24-234.96q19.09 0 32.13-12.66 13.04-12.66 13.04-31.84 0-19.19-12.83-32.06-12.83-12.87-31.79-12.87-18.97 0-31.89 12.66-12.93 12.66-12.93 31.84 0 19.19 12.73 32.06 12.73 12.87 31.54 12.87Z"/></svg>