<svg xmlns="http://www.w3.org/2000/svg" height="48" viewBox="0 -960 960 960" width="48"><path d="M380-66H240q-6.7 0-11.85-5.21-5.15-5.21-5.15-12t5.15-12.29Q233.3-101 240-101h140q6.7 0 11.85 5.5Q397-89.99 397-82.77q0 6.79-5.15 11.78Q386.7-66 380-66Zm340 0H581q-7.67 0-12.84-5.21-5.16-5.21-5.16-12t5.16-12.29q5.17-5.5 12.84-5.5h139q7.13 0 12.56 5.5Q738-89.99 738-82.77q0 6.79-5.44 11.78Q727.13-66 720-66ZM241-173q-26.14 0-43.57-20.05T184-239l82.05-556.69q3.25-21.08 19.75-34.7Q302.3-844 322-844h316q19.37 0 36.77 13.58Q692.18-816.83 695-796l86 557q4 25.85-13.21 45.93Q750.58-173 725-173H241Zm10-35h464q15 0 24-11.5t7-25.5l-84-537q-2-12-11-19.5t-21-7.5H330q-12 0-20.5 7.5T299-782l-80 537q-2 14 7.5 25.5T251-208Zm229-106q49.59 0 84.79-34.44Q600-382.89 600-431.5q0-50.09-35-85.29Q530-552 480-552q-49.59 0-83.79 35Q362-482 362-432q0 49.59 34.12 83.79Q430.24-314 480-314Zm.04-30q-35.98 0-62.01-26.34T392-432.45q0-36.19 25.9-62.37T480.28-521q36.48 0 62.6 26.41Q569-468.18 569-432.3q0 35.88-26.13 62.09T480.04-344Zm-.53-312q10.91 0 19.2-7.42t8.29-19.11q0-9.89-8.43-18.68T479.01-710q-11.41 0-18.71 8.81-7.3 8.81-7.3 19.7 0 10.89 7.28 18.19 7.27 7.3 19.23 7.3Zm.49 223Z"/></svg>