<svg xmlns="http://www.w3.org/2000/svg" height="48" viewBox="0 -960 960 960" width="48"><path d="M366.26-70.65H245q-13.92 0-23.24-9.73-9.33-9.73-9.33-23.24 0-13.51 9.33-23.21 9.32-9.69 23.24-9.69h121.26q13.32 0 23.06 9.8 9.75 9.8 9.75 23.2 0 13.98-9.75 23.42-9.74 9.45-23.06 9.45Zm348.74 0H594.24q-13.92 0-23.5-9.62-9.57-9.62-9.57-23.35 0-13.73 9.57-23.32 9.58-9.58 23.5-9.58H715q13.92 0 23.49 9.8 9.58 9.8 9.58 23.2 0 13.98-9.58 23.42-9.57 9.45-23.49 9.45ZM220.8-199.02q-33.16 0-55-25.82-21.84-25.81-16.15-59.39l86.08-536.24q4.02-26.18 24.02-43.46 20.01-17.29 47.25-17.29h346q27.11 0 47.29 16.74t24.72 44.01l86.94 536.21q4.85 33.61-16.93 59.42-21.78 25.82-54.98 25.82H220.8Zm-9.28-65.63h536.2l-88.57-550.7h-358.8l-88.83 550.7Zm268.78-60q62.98 0 106.14-43.33 43.17-43.32 43.17-105.28 0-63.04-43.17-106.71-43.16-43.66-105.64-43.66-62.49 0-106.33 43.66-43.84 43.67-43.84 106.21 0 62.94 43.87 106.02 43.87 43.09 105.8 43.09Zm.06-62.28q-35.87 0-61.78-25.19-25.91-25.19-25.91-61.06 0-36.42 25.86-62.41 25.86-26 61.67-26t61.47 25.82q25.66 25.81 25.66 62.23 0 36.41-25.55 61.51t-61.42 25.1Zm-.09-296.7q12.71 0 21.44-8.47 8.72-8.46 8.72-21.72 0-12.06-8.85-21.12t-21.7-9.06q-12.09 0-20.95 9.1t-8.86 21.58q0 13.07 8.91 21.38 8.91 8.31 21.29 8.31ZM480-474.26Z"/></svg>