<svg xmlns="http://www.w3.org/2000/svg" height="20" viewBox="0 -960 960 960" width="20"><path d="M407.5-26H286q-22.8 0-39.65-16.79-16.85-16.79-16.85-39.5T246.35-122q16.85-17 39.65-17h121.5q22.8 0 39.65 16.79Q464-105.42 464-82.71T447.15-43Q430.3-26 407.5-26ZM674-26H552.5q-22.8 0-39.65-16.79Q496-59.58 496-82.29T512.85-122q16.85-17 39.65-17H674q22.8 0 39.65 16.79 16.85 16.79 16.85 39.5T713.65-43Q696.8-26 674-26ZM226.05-192q-43.02 0-70.78-32.5-27.77-32.5-21.55-75.43l86.84-510.91q5.74-33.51 31.05-55.33Q276.92-888 311-888h338q33.7 0 59.85 21.5t31.6 55.66l83.82 510.91q5.23 42.93-21.48 75.43-26.71 32.5-69 32.5H226.05ZM251-305h459l-77.5-470H328l-77 470Zm229.34-48q52.66 0 88.16-35.5T604-477q0-53-35.5-88.5T480.34-601q-52.67 0-88.5 35.5Q356-530 356-477t35.84 88.5q35.83 35.5 88.5 35.5Zm-.14-93q-12.7 0-21.95-9.06-9.25-9.07-9.25-21.8t9.46-21.93q9.46-9.21 22.25-9.21t21.54 9.25q8.75 9.26 8.75 22.25 0 13-9.05 21.75-9.04 8.75-21.75 8.75Zm-1.39-203q16.69 0 29.69-11.87t13-29.42q0-17.11-12.79-29.41T478.98-732q-16.94 0-28.71 12.09t-11.77 29.45q0 17.36 11.59 29.41T478.81-649ZM480-477Z"/></svg>