<svg xmlns="http://www.w3.org/2000/svg" height="24" viewBox="0 -960 960 960" width="24"><path d="M372.31-100H240q-8.5 0-14.25-5.76T220-120.03q0-8.51 5.75-14.24T240-140h132.31q8.5 0 14.25 5.76t5.75 14.27q0 8.51-5.75 14.24T372.31-100ZM720-100H587.69q-8.5 0-14.25-5.76t-5.75-14.27q0-8.51 5.75-14.24t14.25-5.73H720q8.5 0 14.25 5.76t5.75 14.27q0 8.51-5.75 14.24T720-100ZM239.08-200q-28 0-46.23-21.19-18.23-21.19-13.54-48.96l84.07-520q3.7-21.91 20.31-35.88Q300.31-840 322.38-840h315.24q21.76 0 38.65 13.88 16.88 13.89 20.35 35.97l84.3 520q4.7 27.77-13.08 48.96Q750.07-200 721.92-200H239.08Zm4.38-40h472.85q11.54 0 18.46-8.85 6.92-8.84 5.38-19.61l-82.77-510.77q-1.53-9.23-8.46-15Q642-800 632.77-800H326.23q-9.23 0-15.77 5.77-6.54 5.77-8.08 15l-83.53 510.77q-1.54 10.77 5.77 19.61 7.3 8.85 18.84 8.85ZM480-326.15q54.46 0 92.23-37.77T610-456.15q0-54.47-37.77-92.23-37.77-37.77-92.23-37.77t-92.23 37.77Q350-510.62 350-456.15q0 54.46 37.77 92.23T480-326.15Zm0-40q-37.12 0-63.56-26.54Q390-419.23 390-456.5t26.44-63.46q26.44-26.19 63.56-26.19 37.13 0 63.56 26.38Q570-493.39 570-456.35q0 37.04-26.44 63.62-26.43 26.58-63.56 26.58Zm0-304.62q11.62 0 20.42-8.4 8.81-8.41 8.81-20.83 0-11.62-8.81-20.42-8.8-8.81-20.8-8.81t-20.43 8.81q-8.42 8.8-8.42 20.8t8.4 20.43q8.41 8.42 20.83 8.42Zm0 214.62Z"/></svg>