<svg xmlns="http://www.w3.org/2000/svg" height="48" viewBox="0 -960 960 960" width="48"><path d="M366.5-85H245q-12.25 0-20.37-8.53-8.13-8.54-8.13-20.4 0-11.85 8.13-20.21 8.12-8.36 20.37-8.36h121.5q11.67 0 20.09 8.46 8.41 8.47 8.41 20.22 0 12.32-8.41 20.57Q378.17-85 366.5-85ZM715-85H594q-12.25 0-20.62-8.43-8.38-8.42-8.38-20.5 0-12.07 8.38-20.32 8.37-8.25 20.62-8.25h121q12.25 0 20.63 8.46 8.37 8.47 8.37 20.22 0 12.32-8.37 20.57Q727.25-85 715-85ZM220.8-205q-31.3 0-51.8-24.5-20.5-24.5-15.28-55.93l85.84-532.41q3.94-24.66 22.79-40.91Q281.2-875 307-875h346q25.77 0 44.59 15.78 18.82 15.78 23.36 41.38l86.94 532.38q4.61 31.46-15.97 55.96-20.58 24.5-51.88 24.5H220.8Zm-14.3-57.5h546l-90-555H297l-90.5 555Zm273.84-60q63.9 0 107.78-44.12T632-473.5q0-64.24-43.88-108.62-43.88-44.38-107.28-44.38t-108.12 44.38Q328-537.74 328-474t44.75 107.62q44.75 43.88 107.59 43.88Zm0-57.5q-38.84 0-66.84-27.32t-28-66.18q0-39.69 27.97-67.59Q441.44-569 480.22-569t66.53 27.76q27.75 27.77 27.75 67.25 0 39.49-27.66 66.74Q519.18-380 480.34-380Zm.16-306.5q12 0 20.25-8.16 8.25-8.15 8.25-20.59 0-11.25-8.37-20Q492.25-744 480-744q-11.5 0-20 8.79t-8.5 20.46q0 12.25 8.57 20.25t20.43 8Zm-.5 212Z"/></svg>