<svg xmlns="http://www.w3.org/2000/svg" height="24" viewBox="0 -960 960 960" width="24"><path d="M359.76-60.87H240q-19.15 0-32.33-13.17-13.17-13.18-13.17-32.33t13.17-32.33q13.18-13.17 32.33-13.17h119.76q19.15 0 32.33 13.17 13.17 13.18 13.17 32.33t-13.17 32.33q-13.18 13.17-32.33 13.17Zm360.24 0H600.24q-19.15 0-32.33-13.17-13.17-13.18-13.17-32.33t13.17-32.33q13.18-13.17 32.33-13.17H720q19.15 0 32.33 13.17 13.17 13.18 13.17 32.33t-13.17 32.33Q739.15-60.87 720-60.87Zm-504-131q-40.39 0-66.07-30.41-25.67-30.42-18.43-70.05l91.24-525.26q5.31-30.99 29.21-50.77 23.9-19.77 55.05-19.77h346q31.06 0 55.16 19.7 24.1 19.69 29.34 50.84l91.76 525.26q7.24 39.63-18.29 70.05-25.54 30.41-65.97 30.41H216Zm264-131q64.8 0 110.73-45.92 45.92-45.93 45.92-110.73 0-64.81-45.92-110.73Q544.8-636.17 480-636.17q-64.8 0-110.73 45.92-45.92 45.92-45.92 110.73 0 64.8 45.92 110.73Q415.2-322.87 480-322.87Zm0-86.22q-29.05 0-49.74-20.66-20.69-20.67-20.69-49.69 0-29.02 20.69-49.77 20.69-20.75 49.74-20.75t49.74 20.72q20.69 20.71 20.69 49.8 0 29.09-20.69 49.72T480-409.09Zm-.23-267.08q17.71 0 29.93-12.05 12.21-12.05 12.21-29.87 0-17.81-12.21-29.86Q497.48-760 479.77-760q-17.72 0-29.7 12.05t-11.98 29.86q0 17.82 11.98 29.87t29.7 12.05Z"/></svg>