<svg xmlns="http://www.w3.org/2000/svg" height="24" viewBox="0 -960 960 960" width="24"><path d="M376.35-98.08H248.08q-11.64 0-19.76-8.26-8.13-8.27-8.13-19.73t8.13-19.71q8.12-8.26 19.76-8.26h128.27q11.41 0 19.64 8.24 8.24 8.24 8.24 19.66 0 11.64-8.24 19.85-8.23 8.21-19.64 8.21Zm335.57 0H583.85q-11.64 0-19.86-8.22-8.22-8.23-8.22-19.77t8.22-19.76q8.22-8.21 19.86-8.21h128.07q11.64 0 19.86 8.24 8.22 8.24 8.22 19.66 0 11.64-8.22 19.85t-19.86 8.21Zm-476.19-110q-31.81 0-52.21-24.03-20.4-24.04-14.95-55.55l79.3-507.8q3.82-24.77 22.95-40.62 19.12-15.84 43.87-15.84h330.62q24.6 0 43.87 15.79 19.28 15.78 23.07 40.64l80.02 507.82q5.23 31.52-15.03 55.56-20.25 24.03-52.14 24.03H235.73Zm244.61-119.04q58.08 0 98.95-40.86 40.86-40.87 40.86-99.29 0-58.42-40.86-99.29-40.87-40.86-99.05-40.86t-99.29 40.86q-41.1 40.87-41.1 99.29 0 58.42 41.06 99.29 41.06 40.86 99.43 40.86Zm.08-55.96q-34.87 0-59.74-24.72-24.87-24.73-24.87-59.64 0-34.92 24.87-59.47 24.87-24.55 59.82-24.55 34.64 0 59.17 24.63 24.52 24.62 24.52 59.4t-24.61 59.57q-24.61 24.78-59.16 24.78ZM480-669.73q13.19 0 22.94-9.33 9.75-9.33 9.75-23.27 0-13.09-9.75-22.84t-23.38-9.75q-13.64 0-22.85 9.79t-9.21 23.25q0 13.45 9.23 22.8 9.24 9.35 23.27 9.35Z"/></svg>