<svg xmlns="http://www.w3.org/2000/svg" height="20" viewBox="0 -960 960 960" width="20"><path d="M409.15-25H276q-16.05 0-27.52-11.42Q237-47.84 237-63.8q0-15.97 11.48-27.58Q259.95-103 276-103h133.15q16.05 0 27.53 11.42 11.47 11.42 11.47 27.38 0 15.97-11.47 27.58Q425.2-25 409.15-25ZM684-25H550.85q-16.05 0-27.53-11.42-11.47-11.42-11.47-27.38 0-15.97 11.47-27.58Q534.8-103 550.85-103H684q16.05 0 27.52 11.42Q723-80.16 723-64.2q0 15.97-11.48 27.58Q700.05-25 684-25ZM217.54-161q-35.72 0-57.97-26.39-22.26-26.4-17.41-60.69l93.53-565q4.35-26.45 25.12-44.68Q281.59-876 308.69-876h342.62q27.02 0 47.98 17.78 20.96 17.77 26.02 45.14l100.15 565q4.85 34.39-16.88 60.73Q786.86-161 752.46-161H217.54Zm18.69-78h498.92q5.77 0 9.23-4.42 3.47-4.43 2.7-9.81l-96.39-534.38q-.77-4.62-4.23-7.51Q643-798 638.38-798H321.62q-4.62 0-7.89 2.88-3.27 2.89-4.04 7.51l-85.77 534.38q-.77 5.38 2.89 9.81 3.65 4.42 9.42 4.42ZM480-310.08q53.82 0 90.91-37.09Q608-384.26 608-438.08q0-53.81-37.09-90.9T480-566.07q-53.82 0-90.91 37.09Q352-491.89 352-438.08q0 53.82 37.09 90.91 37.09 37.09 90.91 37.09Zm-.21-69q-24.43 0-41.61-17.44Q421-413.97 421-438.46q0-24.5 17.39-41.56 17.4-17.06 41.82-17.06 24.43 0 41.61 17.37Q539-462.35 539-437.96q0 24.38-17.39 41.63-17.4 17.25-41.82 17.25Zm0-257.3q15.92 0 27.37-11.05 11.45-11.04 11.45-27.36 0-15.92-11.24-27.37-11.24-11.45-27.35-11.45t-27.37 11.24q-11.26 11.24-11.26 27.35t11.04 27.37q11.04 11.27 27.36 11.27Zm.21 198.3Z"/></svg>