<svg xmlns="http://www.w3.org/2000/svg" height="40" viewBox="0 -960 960 960" width="40"><path d="M367.93-48.98H246.67q-17.67 0-29.96-12.56-12.28-12.56-12.28-29.93 0-17.37 12.28-30.04 12.29-12.66 29.96-12.66h121.26q17.24 0 29.93 12.73 12.69 12.73 12.69 30.03 0 17.69-12.69 30.06-12.69 12.37-29.93 12.37Zm345.4 0H592.4q-17.67 0-30.12-12.49t-12.45-30q0-17.52 12.45-30.11t30.12-12.59h120.93q17.67 0 30.12 12.73 12.46 12.73 12.46 30.03 0 17.69-12.46 30.06Q731-48.98 713.33-48.98ZM222.55-190.84q-37.87 0-62.63-29.08-24.77-29.08-18.27-67.47l84.73-533.42q4.47-29.79 27.26-49.26 22.8-19.47 53.36-19.47h346q30.33 0 53.57 18.97 23.25 18.97 27.95 49.76l85.05 533.4q5.71 38.41-18.8 67.49-24.52 29.08-62.48 29.08H222.55Zm2.31-84.81h509.85l-83.73-528.7H308.52l-83.66 528.7Zm255.41-53.34q61.44 0 103.71-42.31 42.28-42.31 42.28-103.28 0-61.33-42.28-103.94-42.27-42.61-103.37-42.61-61.11 0-103.8 42.61t-42.69 103.61q0 61.62 42.71 103.77 42.72 42.15 103.44 42.15Zm.13-75.76q-28.91 0-49.9-20.36-20.99-20.35-20.99-49.27 0-29.04 20.93-50.2 20.94-21.16 49.84-21.16 28.9 0 49.56 20.98 20.65 20.97 20.65 50.22 0 29.26-20.59 49.52-20.59 20.27-49.5 20.27Zm-.62-269.71q14.85 0 25.34-9.96 10.48-9.95 10.48-25.48 0-14.59-10.57-25.01-10.57-10.42-25.48-10.42-14.41 0-24.62 10.44-10.2 10.45-10.2 25.41 0 15.34 10.23 25.18t24.82 9.84Zm.22 199.21Z"/></svg>