<svg xmlns="http://www.w3.org/2000/svg" height="40" viewBox="0 -960 960 960" width="40"><path d="M368.5-86.67H246.67q-13.34 0-22.42-9.35-9.08-9.36-9.08-22.43t9.08-22.31q9.08-9.24 22.42-9.24H368.5q12.95 0 22.22 9.31 9.28 9.31 9.28 22.31 0 13.38-9.28 22.55-9.27 9.16-22.22 9.16Zm344.83 0h-121.5q-13.33 0-22.58-9.28-9.25-9.28-9.25-22.5t9.25-22.38q9.25-9.17 22.58-9.17h121.5q13.34 0 22.59 9.31t9.25 22.31q0 13.38-9.25 22.55-9.25 9.16-22.59 9.16Zm-490.78-120q-33.05 0-54.38-25.5-21.34-25.5-15.78-58.42l84.17-523.25q4.11-25.83 23.97-42.66T307-873.33h346q26.58 0 46.43 16.52 19.84 16.52 24.35 42.97l85.23 523.23q5.16 32.94-16.26 58.44-21.41 25.5-54.46 25.5H222.55Zm257.79-116.66q63.82 0 108.07-44.42 44.26-44.41 44.26-107.58 0-64.16-44.26-108.75-44.25-44.59-107.74-44.59-63.49 0-108.41 44.59-44.93 44.59-44.93 108.41 0 63.83 44.95 108.08 44.94 44.26 108.06 44.26Zm.03-63.34q-36.7 0-63.2-25.94-26.5-25.95-26.5-62.72 0-37.32 26.48-63.66 26.48-26.34 63.16-26.34 36.69 0 62.86 26.23 26.16 26.24 26.16 63.42 0 37.18-26.13 63.1-26.13 25.91-62.83 25.91ZM480.33-682q13.17 0 22.34-9.03 9.16-9.03 9.16-22.64 0-12.66-9.25-22.16t-22.66-9.5q-12.92 0-22.17 9.52-9.25 9.53-9.25 22.56 0 13.42 9.31 22.33 9.3 8.92 22.52 8.92Z"/></svg>