<svg xmlns="http://www.w3.org/2000/svg" height="48" viewBox="0 -960 960 960" width="48"><path d="M376.5-106H240q-5.18 0-7.84-3.45-2.66-3.44-2.66-7.78 0-4.33 2.66-7.55Q234.82-128 240-128h136.5q4.02 0 7.26 3.3 3.24 3.31 3.24 7.43 0 5.27-3.24 8.27t-7.26 3Zm343.5 0H584.5q-5.17 0-8.34-3.23-3.16-3.23-3.16-8t3.16-7.77q3.17-3 8.34-3H720q5.17 0 8.34 3.3 3.16 3.31 3.16 7.43 0 5.27-3.16 8.27-3.17 3-8.34 3Zm-474.01-94q-22.52 0-38.51-18-15.98-18-11.76-40.93l81.84-525.91q2.34-18.87 16.99-31.02Q309.2-828 327-828h306q17.36 0 32.38 12.03 15.03 12.03 17.86 31.05l82.24 525.93Q768.5-236 753.03-218q-15.47 18-38.18 18H245.99Zm234.35-128q49.4 0 84.53-34.87T600-446.5q0-50.24-35.13-85.37T480.09-567q-49.65 0-84.37 35.13Q361-496.74 361-447t34.51 84.37Q430.02-328 480.34-328Zm-.09-22q-41.11 0-69.18-28.33Q383-406.67 383-447.45q0-41.2 28.04-69.38Q439.08-545 480.13-545q40.26 0 69.07 28.39 28.8 28.38 28.8 69.25 0 40.86-28.71 69.11Q520.57-350 480.25-350ZM480-671q9.5 0 16.5-6.4t7-16.62q0-7.98-7.14-15.48-7.13-7.5-16.86-7.5-10 0-16 7.66-6 7.67-6 16.36 0 9.26 6.04 15.62Q469.59-671 480-671Z"/></svg>