<svg xmlns="http://www.w3.org/2000/svg" height="24" viewBox="0 -960 960 960" width="24"><path d="M371.93-44.78H250q-20.59 0-35.54-14.96-14.96-14.95-14.96-35.54t14.96-35.54q14.95-14.96 35.54-14.96h121.93q20.59 0 35.55 14.96 14.96 14.95 14.96 35.54t-14.96 35.54q-14.96 14.96-35.55 14.96Zm338.07 0H588.07q-20.59 0-35.55-14.96-14.96-14.95-14.96-35.54t14.96-35.54q14.96-14.96 35.55-14.96H710q20.59 0 35.54 14.96 14.96 14.95 14.96 35.54t-14.96 35.54Q730.59-44.78 710-44.78Zm-483.95-146q-42.2 0-69.16-32.02-26.96-32.03-20.17-74.17l81.4-517.35q5.18-32.88 30.38-53.89 25.2-21.01 58.5-21.01h346q33.09 0 58.76 20.83 25.68 20.82 30.69 54.07l81.26 517.35q6.79 42.14-19.92 74.17-26.71 32.02-69 32.02H226.05Zm254.29-141q60.83 0 103.29-42.46 42.46-42.46 42.46-103.63 0-61.17-42.46-103.63-42.46-42.46-103.29-42.46-60.84 0-103.63 42.46-42.8 42.46-42.8 103.63 0 61.17 42.8 103.63 42.79 42.46 103.63 42.46Zm.08-89.7q-23.09 0-39.95-16.51-16.86-16.5-16.86-39.68t16.86-39.88q16.86-16.71 40.03-16.71t39.53 16.61q16.36 16.6 16.36 39.92t-16.44 39.78q-16.44 16.47-39.53 16.47Zm-.98-242.48q17.19 0 29.89-12.08 12.69-12.08 12.69-29.94 0-17.42-12.69-29.72-12.7-12.3-30.14-12.3-17.43 0-29.32 12.3t-11.89 29.97q0 17.67 11.92 29.72 11.92 12.05 29.54 12.05Z"/></svg>