<svg xmlns="http://www.w3.org/2000/svg" height="48" viewBox="0 -960 960 960" width="48"><path d="M822.87-570.87v-171h-172v-77.52h165.78q33.74 0 58.74 25t25 58.74v164.78h-77.52Zm-761.7 0v-164.78q0-33.74 24.84-58.74t58.34-25h164.78v77.52h-171v171H61.17Zm589.7 429.7v-76.96h172v-171h77.52v164.78q0 33.5-25 58.34-25 24.84-58.74 24.84H650.87Zm-506.52 0q-33.5 0-58.34-24.84-24.84-24.84-24.84-58.34v-164.78h76.96v171h171v76.96H144.35Zm335.76-159.57q6.88 0 7.86-5.42 16-61.39 61.06-106.02 45.07-44.63 105.82-60.35 5.41-1.9 5.41-7.58 0-6.89-5.42-7.87-61.05-15.87-106.17-61.05-45.13-45.18-61.03-105.5-.84-5.73-6.89-5.73t-8.04 6.24q-15.98 60.29-60.61 105.39-44.64 45.09-105.76 60.88-5.6.95-5.6 7.61 0 5.71 5.6 7.61 61.21 15.5 105.84 60.28t60.35 106.1q1.9 5.41 7.58 5.41Z"/></svg>