<svg xmlns="http://www.w3.org/2000/svg" height="24" viewBox="0 -960 960 960" width="24"><path d="M807-564v-137.38q0-9.24-7.69-16.93-7.69-7.69-16.93-7.69H644v-66h138.38q38.35 0 64.48 26.14Q873-739.73 873-701.38V-564h-66Zm-719 0v-137.38q0-38.35 26.14-64.48Q140.27-792 178.62-792H316v66H178.62q-9.24 0-16.93 7.69-7.69 7.69-7.69 16.93V-564H88Zm556 396v-66h138.38q9.24 0 16.93-7.69 7.69-7.69 7.69-16.93V-396h66v137.38q0 38.35-26.14 64.48Q820.73-168 782.38-168H644Zm-465.38 0q-38.35 0-64.48-26.14Q88-220.27 88-258.62V-396h66v137.38q0 9.24 7.69 16.93 7.69 7.69 16.93 7.69H316v66H178.62Zm301.63-137.15q7.22 0 8.25-6 14.96-59.62 57.81-102.47T648.85-472q6-2.06 6-8.25 0-7.22-6-8.25-59.62-14.96-102.47-57.81T488-648.85q-.23-6-7.5-6-6.5 0-8.63 6.39-15.51 59.51-58.31 102.24-42.8 42.74-102.41 58.22-6 1.03-6 8.25 0 6.19 6 8.25 59.62 14.96 102.47 57.81T472-311.15q2.06 6 8.25 6Z"/></svg>