<svg xmlns="http://www.w3.org/2000/svg" height="48" viewBox="0 -960 960 960" width="48"><path d="M822-570v-171H650v-81h161q37.59 0 64.79 27.21Q903-767.59 903-730v160h-81Zm-763 0v-160q0-37.59 26.91-64.79Q112.83-822 150-822h160v81H139v171H59Zm591 431v-80h172v-171h81v160q0 37.18-27.21 64.09Q848.59-139 811-139H650Zm-500 0q-37.17 0-64.09-26.91Q59-192.82 59-230v-160h80v171h171v80H150Zm330-160q6.85 0 7.83-5.32 16.17-62.1 62-107.28t106.86-60.85Q662-474.34 662-480q0-6.88-5.32-7.86-61.5-15.92-107.32-62-45.82-46.08-61.72-106.41-.84-5.73-6.89-5.73t-8.06 6.33q-16.08 60.37-61.24 106.24-45.16 45.86-106.96 61.6-5.49.94-5.49 7.58 0 5.69 5.5 7.58 61.92 15.67 107.1 61 45.18 45.33 60.85 107.36Q474.34-299 480-299Z"/></svg>