<svg xmlns="http://www.w3.org/2000/svg" height="48" viewBox="0 -960 960 960" width="48"><path d="M819.13-568.5v-170.13H648.5v-71.07h164.66q30.93 0 53.98 22.79 23.06 22.79 23.06 54.5v163.91h-71.07Zm-748.26 0v-163.91q0-31.71 22.62-54.5t54.1-22.79H311.5v71.07H141.37v170.13h-70.5ZM648.5-150.87v-70.5h170.63V-391.5h71.07v163.91q0 31.48-23.06 54.1-23.05 22.62-53.98 22.62H648.5Zm-500.91 0q-31.48 0-54.1-22.62t-22.62-54.1V-391.5h70.5v170.13H311.5v70.5H147.59Zm332.22-151.91q6.76 0 7.73-5.68 16.14-60.46 60.3-104.5t103.64-59.48q5.74-1.93 5.74-7.72 0-6.75-5.74-7.72-59.69-15.3-103.84-59.71Q503.5-592 487.59-651.53q-1.36-5.69-7.39-5.69-5.96 0-7.92 5.93-15.64 59.15-59.42 103.47-43.79 44.32-104.39 59.81-5.69.97-5.69 7.74 0 5.86 5.68 7.81 60.3 15.74 104.33 59.63 44.04 43.9 59.36 104.36 1.92 5.69 7.66 5.69Z"/></svg>