<svg xmlns="http://www.w3.org/2000/svg" height="40" viewBox="0 -960 960 960" width="40"><path d="M813.89-566.67v-167.22H646.67v-72.97h164.27q31.06 0 53.49 22.43 22.43 22.43 22.43 53.49v164.27h-72.97Zm-740.59 0v-164.27q0-31.06 22.38-53.49 22.38-22.43 53.38-22.43h164.27v72.97H146.11v167.22H73.3ZM646.67-153.3v-72.81h167.22v-167.22h72.97v164.27q0 31-22.43 53.38Q842-153.3 810.94-153.3H646.67Zm-497.61 0q-31 0-53.38-22.38-22.38-22.38-22.38-53.38v-164.27h72.81v167.22h167.22v72.81H149.06Zm330.88-149.08q6.85 0 7.82-5.83 15.77-60.23 59.87-104.24 44.09-44.02 104.16-59.67 5.83-1.95 5.83-7.82 0-6.85-5.83-7.82-60.13-15.72-104.19-59.84-44.07-44.12-59.84-104.19-1.7-5.83-7.64-5.83-5.94 0-7.91 5.93-15.74 59.97-59.76 104.06-44.01 44.1-104.24 59.75-5.83.98-5.83 7.82 0 5.87 5.83 7.82 60.23 15.77 104.24 59.79 44.02 44.01 59.67 104.24 1.95 5.83 7.82 5.83Z"/></svg>