<svg xmlns="http://www.w3.org/2000/svg" height="20" viewBox="0 -960 960 960" width="20"><path d="M798.43-554.87v-146.56H650.87v-106.48h139.09q48 0 81.47 33.48 33.48 33.47 33.48 81.47v138.09H798.43Zm-742.34 0v-138.09q0-48 33.48-81.47 33.47-33.48 81.47-33.48h138.09v106.48H162.57v146.56H56.09Zm594.78 402.78v-106.48h147.56v-148.56h106.48v139.99q0 48.4-33.48 81.72-33.47 33.33-81.47 33.33H650.87Zm-480.07 0q-48.06 0-81.38-33.48-33.33-33.47-33.33-81.47v-140.09h106.48v148.56h146.56v106.48H170.8Zm309.31-144.39q7.19 0 8.21-5.87 14.72-62.48 60.75-108.51 46.03-46.04 108.94-61.26 5.51-1.83 5.51-7.99 0-7.2-5.87-8.23-62.09-15.59-107.91-61.49-45.83-45.9-61.74-107.69 0-6-7-6t-8.93 6.14q-15.4 62.5-61.35 108.41t-108.74 60.98q-5.5.91-5.5 8.1 0 6.16 5.87 8.21 62.48 14.72 108.51 60.75 46.04 46.03 61.26 108.94 1.83 5.51 7.99 5.51Z"/></svg>