<svg xmlns="http://www.w3.org/2000/svg" height="24" viewBox="0 -960 960 960" width="24"><path d="M798.5-557v-161H637v-106h146.5q50.94 0 85.97 35.03T904.5-703v146h-106ZM56-557v-146q0-50.94 35.03-85.97T177-824h146v106H162v161H56Zm581 421v-106h161.5v-161h106v146q0 50.94-35.03 85.97T783.5-136H637Zm-460 0q-50.94 0-85.97-35.03T56-257v-146h106v161h161v106H177Zm302.75-151q7.13 0 8.14-5.94 16.79-65.42 65.2-113.99Q601.5-455.5 667-471.75q6-2.03 6-8.13 0-7.1-6-8.12-65.5-16.5-113.75-65T488-667.04q-1-5.96-7.5-5.96-6.42 0-8.5 6.39-16.68 64.97-65.09 113.54-48.41 48.57-113.95 64.74-5.96 1.01-5.96 8.08 0 6.11 5.94 8.14 65.42 16.79 113.99 65.2 48.57 48.41 64.74 113.95 2.02 5.96 8.08 5.96Z"/></svg>