<svg xmlns="http://www.w3.org/2000/svg" height="40" viewBox="0 -960 960 960" width="40"><path d="M817.39-568.2v-168.19H648.2v-89.84h162.22q39.59 0 68.2 28.61t28.61 68.2v161.22h-89.84Zm-763.24 0v-161.22q0-39.59 28.5-68.2t67.93-28.61H311.8v89.84H143.61v168.19H54.15ZM648.2-134.15v-89.46h169.19V-391.8h89.84v161.22q0 39.43-28.61 67.93-28.61 28.5-68.2 28.5H648.2Zm-497.62 0q-39.43 0-67.93-28.5-28.5-28.5-28.5-67.93V-391.8h89.46v168.19H311.8v89.46H150.58Zm329.53-161.17q6.98 0 7.98-5.57 16.24-63.09 62.62-109.19 46.39-46.09 109.08-62.24 5.56-1.95 5.56-7.79 0-6.99-5.57-7.99-62.87-16.16-109.3-62.65-46.43-46.5-62.72-108.78-.9-5.82-7.09-5.82-6.2 0-8.25 6.33-16.38 62.24-62.45 108.61Q363.9-504.05 301-487.87q-5.68.98-5.68 7.81 0 5.86 5.69 7.81 62.97 15.91 109.07 62.11 46.09 46.19 62.24 109.26 1.95 5.56 7.79 5.56Z"/></svg>