<svg xmlns="http://www.w3.org/2000/svg" height="40" viewBox="0 -960 960 960" width="40"><path d="M805.24-562.23v-137.9q0-9.23-7.69-16.92-7.69-7.69-16.92-7.69h-138.4v-32.44h138.75q22.88 0 39.79 16.73t16.91 40.13v138.09h-32.44Zm-682.42 0v-138.09q0-23.4 16.73-40.13 16.73-16.73 40.13-16.73h138.09v32.44h-137.9q-9.23 0-16.92 7.69-7.69 7.69-7.69 16.92v137.9h-32.44Zm519.41 359.41v-32.44h138.4q9.23 0 16.92-7.69 7.69-7.69 7.69-16.92v-137.9h32.44v138.09q0 23.4-16.91 40.13-16.91 16.73-39.79 16.73H642.23Zm-462.55 0q-23.4 0-40.13-16.73-16.73-16.73-16.73-40.13v-138.09h32.44v137.9q0 9.23 7.69 16.92 7.69 7.69 16.92 7.69h137.9v32.44H179.68Zm300.13-116.15q6.87 0 7.85-5.77 15-55.48 54.1-94.54 39.09-39.06 93.44-53.17 5.83-1.96 5.83-7.82 0-6.85-5.83-7.83-54.38-13.94-93.7-53.27-39.33-39.33-53.68-93.77-1.22-5.89-7.95-5.89-5.85 0-7.8 5.87-14.08 54.22-52.89 93.45-38.82 39.23-94.43 53.5-5.78.99-5.78 7.9 0 5.98 5.77 7.97 55.24 14.42 94.24 53.3 39 38.87 53.04 94.29 1.95 5.78 7.79 5.78Z"/></svg>