<svg xmlns="http://www.w3.org/2000/svg" height="24" viewBox="0 -960 960 960" width="24"><path d="M800-560v-135.38q0-9.24-7.69-16.93-7.69-7.69-16.93-7.69H640v-40h135.38q27.62 0 46.12 18.5Q840-723 840-695.38V-560h-40Zm-680 0v-135.38q0-27.62 18.5-46.12Q157-760 184.62-760H320v40H184.62q-9.24 0-16.93 7.69-7.69 7.69-7.69 16.93V-560h-40Zm520 360v-40h135.38q9.24 0 16.93-7.69 7.69-7.69 7.69-16.93V-400h40v135.38q0 27.62-18.5 46.12Q803-200 775.38-200H640Zm-455.38 0q-27.62 0-46.12-18.5Q120-237 120-264.62V-400h40v135.38q0 9.24 7.69 16.93 7.69 7.69 16.93 7.69H320v40H184.62ZM480-316.15q7 0 8-6 14.46-55.62 54.35-95.5 39.88-39.89 95.5-54.35 6-2 6-8 0-7-6-8-55.62-14.46-95.5-54.35-39.89-39.88-54.35-95.5-1.23-6-8-6-6 0-8 6-14.46 55.62-54.35 95.5-39.88 39.89-95.5 54.35-6 1-6 8 0 6 6 8 55.62 14.46 95.5 54.35 39.89 39.88 54.35 95.5 2 6 8 6Z"/></svg>