<svg xmlns="http://www.w3.org/2000/svg" height="20" viewBox="0 -960 960 960" width="20"><path d="M789.42-550.15v-118.16q0-9.23-7.69-16.92-7.69-7.69-16.92-7.69H646.15v-28.93H765q22.45 0 37.9 15.45t15.45 37.9v118.35h-28.93Zm-647.27 0V-668.5q0-22.45 15.45-37.9t37.9-15.45h118.35v28.93H195.69q-9.23 0-16.92 7.69-7.69 7.69-7.69 16.92v118.16h-28.93Zm504 312v-28.93h118.66q9.23 0 16.92-7.69 7.69-7.69 7.69-16.92v-120.16h28.93v120.25q0 22.85-15.45 38.15-15.45 15.3-37.9 15.3H646.15Zm-450.89 0q-22.51 0-37.81-15.45t-15.3-37.9v-120.35h28.93v120.16q0 9.23 7.69 16.92 7.69 7.69 16.92 7.69h118.16v28.93H195.26Zm284.71-91.23q6.93 0 7.92-5.95 12.64-51.41 49.12-88.06 36.49-36.65 87.96-49.17 5.65-1.76 5.65-7.7 0-6.93-6-7.92-50.71-12.89-87.01-49.31-36.31-36.42-49.65-87.17-.24-5.96-7.53-5.96-6.43 0-8.19 5.59-12.52 51.39-48.94 88.03-36.42 36.65-88.32 49.09-5.6.88-5.6 7.81 0 6 5.95 7.99 51.28 12.33 87.93 48.83 36.64 36.5 49.06 88.3 1.75 5.6 7.65 5.6Z"/></svg>