<svg xmlns="http://www.w3.org/2000/svg" height="40" viewBox="0 -960 960 960" width="40"><path d="M810.5-564.67V-730H644.67v-63.33h165.99q25.11 0 44.14 18.85T873.83-730v165.33H810.5Zm-723.83 0V-730q0-25.63 18.85-44.48 18.85-18.85 44.48-18.85h165.33V-730H150v165.33H86.67Zm558 398V-230H810.5v-165.33h63.33V-230q0 25.63-19.03 44.48-19.03 18.85-44.14 18.85H644.67Zm-494.67 0q-25.63 0-44.48-18.85Q86.67-204.37 86.67-230v-165.33H150V-230h165.33v63.33H150Zm329.97-140q6.73 0 7.69-5.76 15.64-58.94 58.4-101.86t101.45-58.27q5.82-1.92 5.82-7.68 0-6.72-5.82-7.68-58.69-15.1-101.46-58-42.76-42.9-58.33-101.64-1.94-5.77-7.78-5.77-5.76 0-7.67 5.76-15.36 58.61-58.06 101.53t-101.77 58.28q-5.77.96-5.77 7.68 0 5.8 5.76 7.74 58.83 15.37 101.75 58.14 42.91 42.77 58.17 101.76 1.9 5.77 7.62 5.77Z"/></svg>