<svg xmlns="http://www.w3.org/2000/svg" height="24" viewBox="0 -960 960 960" width="24"><path d="M224.17-114.85q-17.5 0-28.71-8.99-11.22-8.99-13.72-26.2L75.37-808.08q-2.2-16.12 5.9-26.59 8.1-10.48 23.1-10.48h751.11q16.13 0 24.12 10.48 7.99 10.47 5.08 26.57L855.63-635q-2.5 17.22-13.48 26.21-10.98 8.99-28.69 8.99H361.2q-2.74 0-8.74 11.73l35.19 218.14q.5 3.23 10.72 9.23h162.5q3.5 0 10.48-9.23l25.25-157.53q1.97-14.19 10.94-20.93 8.98-6.74 23.11-6.74h176.86q16.08 0 24.36 10.36 8.28 10.36 6.09 25.5l-59.7 369.23q-2.5 17.21-13.72 26.2-11.21 8.99-28.71 8.99H224.17Z"/></svg>