<svg xmlns="http://www.w3.org/2000/svg" height="40" viewBox="0 -960 960 960" width="40"><path d="M224.15-114.41q-17.39 0-28.77-9.16-11.39-9.15-13.87-26.26L74.75-808.77q-2.19-16.02 5.87-26.42 8.05-10.4 23.29-10.4h751.94q16.03 0 24.19 10.39t5.25 26.34l-29.22 173.48q-2.82 17.4-13.73 26.31-10.92 8.9-28.19 8.9H361.33q-3.24 0-9.08 12.08l35.37 218.18q.5 2.75 10.56 9.42h162.93q3.81 0 10.43-9.42l25.42-157.57q1.97-14.19 10.86-21.01 8.89-6.83 22.88-6.83h177.17q15.98 0 24.35 10.28 8.37 10.28 6.34 25.59l-59.73 369.61q-2.82 17.12-14.21 26.27-11.38 9.16-28.44 9.16H224.15Z"/></svg>