<svg xmlns="http://www.w3.org/2000/svg" height="20" viewBox="0 -960 960 960" width="20"><path d="M243.93-145.38q-15.8 0-26.07-8.12-10.28-8.11-11.81-24.49l-96.66-602.09q-2.85-14.53 4.59-24.53 7.43-10.01 21.09-10.01h688.59q14.23 0 21.13 9.97 6.9 9.96 5.06 24.85l-25.72 158.08q-2.28 16.26-12.68 24.22-10.39 7.96-27.22 7.96H372.9q.87 0-10.67 10.69l32.62 201.82q1.77 4.65 10.92 5.57h147.91q1.79 0 9.47-5.69l23.29-144.77q1.87-13.08 10.49-19.81 8.62-6.73 21.57-6.73h161.93q13.65 0 21.8 9.28 8.15 9.29 5.47 22.96l-54.75 338.23q-1.53 16.38-11.91 24.49-10.38 8.12-26.42 8.12H243.93Z"/></svg>