<svg xmlns="http://www.w3.org/2000/svg" height="20" viewBox="0 -960 960 960" width="20"><path d="M234.56-130.85q-16.6 0-27.46-8.74t-12.86-25.45L93.26-793.8q-2.09-15.4 5.5-25.37 7.58-9.98 21.61-9.98h718.26q14.98 0 22.47 9.98 7.49 9.97 5.49 25.45l-28.15 165.4q-2.81 16.54-13.23 25.28-10.43 8.74-27.25 8.74H366.7q-1.24 0-9.24 11.23l34.19 209.26q0 2.11 10.48 8.11h154.74q2 0 10.48-8.23l23.86-150.66q1.86-13.56 10.26-20.3t21.92-6.74h169.33q14.48 0 22.95 9.68 8.48 9.68 6.24 24.15l-57.15 352.76q-2 16.71-12.79 25.45-10.8 8.74-27.64 8.74H234.56Z"/></svg>