<svg xmlns="http://www.w3.org/2000/svg" height="40" viewBox="0 -960 960 960" width="40"><path d="M137.9-97.9v-712.25H98.67v-51.18h762.66v51.18H823.1V-97.9h-59.28q-8.13-46.32-44.02-76.48-35.88-30.16-83.93-30.16-47.97 0-83.36 30.28-35.38 30.29-43.33 76.36h-57.36q-9.23-46.32-43.92-76.48-34.69-30.16-82.74-30.16-48.08 0-84.3 30.16T196.51-97.9H137.9Zm51.18-96.38q19.87-24.1 46.84-39.82 26.98-15.72 60.67-19.85v-556.2H189.08v615.87Zm158.69-60.74q32.79 2.53 60.67 19.16 27.87 16.63 46.64 42.66v-616.95H347.77v555.13Zm158.49 60.05q19.28-24.59 46.51-41.3 27.23-16.7 60.54-19.68v-554.2H506.26v615.18Zm265.66 1.12v-616.3H664.49v556.28q31.77 4.2 59.82 20.13 28.06 15.92 47.61 39.89Zm-475.33-616.3H189.08h107.51Zm158.49 0H347.77h107.31Zm158.23 0H506.26h107.05Zm158.61 0H664.49h107.43Zm-265.66 0h-51.18 51.18Z"/></svg>