<svg xmlns="http://www.w3.org/2000/svg" height="20" viewBox="0 -960 960 960" width="20"><path d="M170.89-123.69v-664.27h-46.81v-47.96h711.84v47.96h-46.81v664.27h-68.46q-13.69-30.08-41.35-48.35-27.66-18.27-62.14-18.27-34.2 0-62.37 18.27-28.18 18.27-41.55 48.35h-67.16q-13.39-30.08-40.89-48.35-27.5-18.27-62.21-18.27-34.33 0-62.63 18.27-28.31 18.27-42 48.35h-67.46Zm47.96-58.35q18.85-19.56 41.99-34 23.13-14.44 50.93-18.82v-553.1h-92.92v605.92Zm140.88-54.89q28.27 3.24 52.75 16.27 24.47 13.03 42.64 33.2v-600.5h-95.39v551.03Zm144.35 48.58q18.48-19.65 42.11-32.5 23.62-12.84 51.39-16.08v-551.03h-93.5v599.61Zm237.07 7.7v-607.31h-94.61v553.09q28.19 4.18 51.88 19.2 23.7 15.02 42.73 35.02ZM311.77-787.96h-92.92 92.92Zm143.35 0h-95.39 95.39Zm142.46 0h-93.5 93.5Zm143.57 0h-94.61 94.61Zm-237.07 0h-48.96 48.96Z"/></svg>