<svg xmlns="http://www.w3.org/2000/svg" height="48" viewBox="0 -960 960 960" width="48"><path d="M160.27-120.38v-688.27h-39.12v-30.2h717.7v30.2h-39.12v688.27h-38.31q-14.92-40.73-50.4-66.79-35.48-26.06-80.24-26.06-45.55 0-79.86 26.25-34.3 26.25-49.07 66.6h-44.31q-13.81-40.73-48.63-66.79-34.82-26.06-79.49-26.06-46.06 0-81.49 26.06-35.43 26.06-50.35 66.79h-37.31Zm30.19-54.12q21.98-28.34 53.16-45.88 31.18-17.55 68.61-21.2v-567.07H190.46v634.15Zm151.96-68.07q37.93 3.57 69.87 22.59 31.94 19.02 53.06 49.52v-638.19H342.42v566.08Zm153.12 69.84q21.54-29.11 52.38-47.81 30.85-18.69 69.04-21.92v-566.19H495.54v635.92Zm274 0v-635.92H647.15v567.19q37.54 3.69 68.83 22.02 31.29 18.32 53.56 46.71ZM312.23-808.65H190.46h121.77Zm153.12 0H342.42h122.93Zm151.61 0H495.54h121.42Zm152.58 0H647.15h122.39Zm-274 0h-30.19 30.19Z"/></svg>