<svg xmlns="http://www.w3.org/2000/svg" height="24" viewBox="0 -960 960 960" width="24"><path d="M164.77-125.38v-671.54h-38.62v-36.93h707.7v36.93h-38.62v671.54h-43.92q-14.89-36.16-48.04-58.95-33.14-22.79-74.15-22.79-41.7 0-73.79 22.79-32.1 22.79-47.1 58.95h-57.58q-14.77-36.16-46.74-58.95-31.98-22.79-72.89-22.79-42.21 0-75.33 22.79-33.11 22.79-48 58.95h-42.92Zm36.92-60.2q20.4-23.55 48.78-38.57 28.39-15.02 61.57-18.69v-554.08H201.69v611.34Zm147.27-57.27q35.04 3.47 64.19 20.91 29.16 17.44 48.58 45.02v-620H348.96v554.07Zm149.69 63.66q19.53-26.64 48.25-43.42 28.72-16.77 63.25-20.24v-554.07h-111.5v617.73Zm259.66-4.62v-613.11H647.08v554.07q33.38 3.47 62.02 19.25 28.63 15.79 49.21 39.79ZM312.04-796.92H201.69h110.35Zm149.69 0H348.96h112.77Zm148.42 0h-111.5 111.5Zm148.16 0H647.08h111.23Zm-259.66 0h-36.92 36.92Z"/></svg>