<svg xmlns="http://www.w3.org/2000/svg" height="40" viewBox="0 -960 960 960" width="40"><path d="M172.5-132.67v-670.5h-38.83v-23.16h692.66v23.16H787.5v670.5h-28.33q-15.03-40.58-50.87-66.46Q672.47-225 627.82-225q-45.32 0-79.74 26-34.41 26-49.41 66.33h-38q-14.21-40.58-48.97-66.46Q376.94-225 332.35-225q-46.07 0-81.78 25.87-35.71 25.88-50.74 66.46H172.5Zm23.17-46.83q21.91-28.98 53.79-46.68 31.89-17.7 70.21-20.87v-556.12h-124v623.67Zm147.16-68.21q39.5 3.04 72.42 23.46T468.83-171v-632.17h-126v555.46ZM492-173.5q21.18-31.26 53.01-51.21 31.82-19.96 71.49-22.96v-555.5H492v629.67Zm272.33-4v-625.67H639.67V-247q38.5 3 70.5 21.75t54.16 47.75ZM319.67-803.17h-124 124Zm149.16 0h-126 126Zm147.67 0H492h124.5Zm147.83 0H639.67h124.66Zm-272.33 0h-23.17H492Z"/></svg>