<svg xmlns="http://www.w3.org/2000/svg" height="24" viewBox="0 -960 960 960" width="24"><path d="M175.5-136v-661.5H137V-823h686v25.5h-38.5V-136h-31q-15-38-49.62-62t-77.18-24q-43.2 0-76.45 24T502-136h-45q-15-38-48.02-62t-75.54-24q-43.94 0-78.44 24t-49.5 62h-30Zm25.5-47.5q21.32-26.56 51.95-43.42Q283.59-243.79 320-247v-550.5H201v614ZM345.5-247q38.5 3 70.25 22.75T467.5-173v-624.5h-122V-247ZM493-175.5q20.15-30.23 51.32-49.36Q575.5-244 613.5-247v-550.5H493v622Zm266-6v-616H639V-247q36.5 3 67.5 20.75T759-181.5Zm-439-616H201h119Zm147.5 0h-122 122Zm146 0H493h120.5Zm145.5 0H639h120Zm-266 0h-25.5H493Z"/></svg>