<svg xmlns="http://www.w3.org/2000/svg" version="1.1" width="3300" height="2000"><g id="Notes"><style>
    text {
      font-family: monospace;
      text-anchor: middle;
    }
    text.emphasis {
      font-weight:bold;
    }
    text.lanchor {
      text-anchor: start;
    }
  </style><rect height="2200" id="artboard" fill="white" width="3300" x="0" y="0"/><line id="" style="fill:none;stroke:black;stroke-width:0.5;" x1="263" x2="3036" y1="292" y2="292"/><text class="lanchor emphasis" transform="matrix(1 0 0 1 263 322)">Weight/Scale Variations</text><text transform="matrix(1 0 0 1 559.711 322)">Ultralight</text><text transform="matrix(1 0 0 1 856.422 322)">Thin</text><text transform="matrix(1 0 0 1 1153.13 322)">Light</text><text transform="matrix(1 0 0 1 1449.84 322)">Regular</text><text transform="matrix(1 0 0 1 1746.56 322)">Medium</text><text transform="matrix(1 0 0 1 2043.27 322)">Semibold</text><text transform="matrix(1 0 0 1 2339.98 322)">Bold</text><text transform="matrix(1 0 0 1 2636.69 322)">Heavy</text><text transform="matrix(1 0 0 1 2933.4 322)">Black</text><text id="template-version" style="text-anchor: end;" transform="matrix(1 0 0 1 3036 1933)">Template v.1.0</text><text class="lanchor" transform="matrix(1 0 0 1 263 726)">Small</text><text class="lanchor" transform="matrix(1 0 0 1 263 1156)">Medium</text><text class="lanchor" transform="matrix(1 0 0 1 263 1586)">Large</text></g><g id="Guides"><g id="H-reference" style="fill:#27AAE1;stroke:none;" transform="matrix(1 0 0 1 339 696)"><path d="M 54.9316 0 L 57.666 0 L 30.5664 -70.459 L 28.0762 -70.459 L 0.976562 0 L 3.66211 0 L 12.9395 -24.4629 L 45.7031 -24.4629 Z M 29.1992 -67.0898 L 29.4434 -67.0898 L 44.8242 -26.709 L 13.8184 -26.709 Z"/></g><line id="Baseline-S" style="fill:none;stroke:#27AAE1;opacity:1;stroke-width:0.577;" x1="263" x2="3036" y1="696" y2="696"/><line id="Capline-S" style="fill:none;stroke:#27AAE1;opacity:1;stroke-width:0.577;" x1="263" x2="3036" y1="625.541" y2="625.541"/><g id="H-reference" style="fill:#27AAE1;stroke:none;" transform="matrix(1 0 0 1 339 1126)"><path d="M 54.9316 0 L 57.666 0 L 30.5664 -70.459 L 28.0762 -70.459 L 0.976562 0 L 3.66211 0 L 12.9395 -24.4629 L 45.7031 -24.4629 Z M 29.1992 -67.0898 L 29.4434 -67.0898 L 44.8242 -26.709 L 13.8184 -26.709 Z"/></g><line id="Baseline-M" style="fill:none;stroke:#27AAE1;opacity:1;stroke-width:0.577;" x1="263" x2="3036" y1="1126" y2="1126"/><line id="Capline-M" style="fill:none;stroke:#27AAE1;opacity:1;stroke-width:0.577;" x1="263" x2="3036" y1="1055.54" y2="1055.54"/><g id="H-reference" style="fill:#27AAE1;stroke:none;" transform="matrix(1 0 0 1 339 1556)"><path d="M 54.9316 0 L 57.666 0 L 30.5664 -70.459 L 28.0762 -70.459 L 0.976562 0 L 3.66211 0 L 12.9395 -24.4629 L 45.7031 -24.4629 Z M 29.1992 -67.0898 L 29.4434 -67.0898 L 44.8242 -26.709 L 13.8184 -26.709 Z"/></g><line id="Baseline-L" style="fill:none;stroke:#27AAE1;opacity:1;stroke-width:0.577;" x1="263" x2="3036" y1="1556" y2="1556"/><line id="Capline-L" style="fill:none;stroke:#27AAE1;opacity:1;stroke-width:0.577;" x1="263" x2="3036" y1="1485.54" y2="1485.54"/><rect height="119.336" id="left-margin" style="fill:darkred;stroke:none;opacity:0.4;" width="12.4512" x="1394.06" y="1030.79"/><rect height="119.336" id="right-margin" style="fill:darkgreen;stroke:none;opacity:0.4;" width="12.4512" x="1502.5112" y="1030.79"/><rect x="1406.5112" y="1045" width="96" height="96" fill="none" stroke="blue" stroke-dasharray="5"/><rect x="1394.06" y="1030.79" width="120.9024" height="119.336" fill="none" stroke="blue"/></g><g id="Symbols"><g id="Bold-L" transform="matrix(1 0 0 1 2266 1556)"><path d="M58.951 -17.331  63.794 -21.966  57.063 -28.549 H74.77 Q82.147 -28.549 87.352 -33.759 Q92.558 -38.969 92.558 -46.285 Q92.558 -53.787 87.219 -58.94 Q81.881 -64.094 74.681 -64.094 H47.407 V-57.587 H75.028 Q79.446 -57.587 82.695 -54.204 Q85.946 -50.821 85.946 -46.276 Q85.946 -41.448 82.689 -38.258 Q79.432 -35.069 74.981 -35.069 H57.192 L63.713 -41.815 L59.017 -46.195 L44.989 -31.844 L58.951 -17.331 Z M40.666 19.756 Q34.024 19.756 28.316 16.017 Q22.607 12.276 19.368 6.211 H-3.386 V-34.746 Q-3.386 -40.572 0.953 -44.995 Q5.294 -49.42 11.287 -49.42 H16.77 L26.768 -77.8 Q28.356 -81.923 31.847 -84.537 Q35.336 -87.152 39.99 -87.152 H90.139 Q93.656 -87.152 96.898 -85.261 Q100.139 -83.37 102.071 -80.38 L118.035 -52.967 L143.029 -50.71 Q148.834 -50.226 153.591 -45.147 Q158.347 -40.067 158.347 -34.101 V6.211 H135.45 Q132.386 12.339 126.757 16.048 Q121.129 19.756 114.18 19.756 Q107.231 19.756 101.668 16.017 Q96.105 12.276 92.719 6.211 H62.081 Q58.826 12.276 53.067 16.017 Q47.308 19.756 40.666 19.756 Z M40.911 5.244 Q44.505 5.244 47.327 2.422 Q50.149 -0.4 50.149 -4.431 V-8.624 H104.974 V-4.431 Q104.974 -0.4 107.825 2.422 Q110.676 5.244 114.639 5.244 Q118.187 5.244 121.013 2.422 Q123.84 -0.4 123.84 -4.431 V-8.624 H143.996 V-35.941 Q143.996 -35.941 143.996 -35.941 Q143.996 -35.941 143.996 -35.941 L109.489 -38.939 L89.655 -72.64 H40.474 L27.017 -34.907 H11.126 Q11.126 -34.907 11.126 -34.907 Q11.126 -34.907 11.126 -34.907 V-8.624 H31.444 V-4.431 Q31.444 -0.4 34.204 2.422 Q36.967 5.244 40.911 5.244 Z"/></g><g id="Semibold-L" transform="matrix(1 0 0 1 1970.27 1556)"><path d="M58.98 -17.262  63.763 -21.883  57.121 -28.482 H74.854 Q82.246 -28.482 87.436 -33.722 Q92.627 -38.965 92.627 -46.39 Q92.627 -53.92 87.32 -59.113 Q82.012 -64.303 74.801 -64.303 H47.338 V-57.752 H75.022 Q79.448 -57.752 82.697 -54.366 Q85.946 -50.979 85.946 -46.38 Q85.946 -41.588 82.694 -38.363 Q79.441 -35.138 74.997 -35.138 H57.215 L63.705 -41.827 L59.017 -46.335 L44.848 -31.844 L58.98 -17.262 Z M40.553 19.406 Q33.883 19.406 28.28 15.561 Q22.677 11.715 19.508 5.721 H-3.036 V-35.448 Q-3.036 -40.754 0.969 -44.807 Q4.975 -48.859 10.376 -48.859 H17.12 L27.258 -77.8 Q28.783 -81.762 32.129 -84.247 Q35.477 -86.732 39.85 -86.732 H90.139 Q93.586 -86.732 96.652 -84.961 Q99.717 -83.191 101.581 -80.24 L117.825 -52.406 L143.94 -50.149 Q149.255 -49.665 153.591 -45.007 Q157.927 -40.348 157.927 -34.943 V5.721 H135.31 Q132.317 11.849 126.751 15.627 Q121.186 19.406 114.313 19.406 Q107.441 19.406 101.949 15.561 Q96.455 11.715 93.209 5.721 H61.66 Q58.476 11.786 52.85 15.596 Q47.224 19.406 40.553 19.406 Z M40.753 6.085 Q44.786 6.085 47.783 3.038 Q50.779 -0.008 50.779 -4.362 V-7.782 H104.343 V-4.362 Q104.343 -0.008 107.392 3.038 Q110.443 6.085 114.692 6.085 Q118.677 6.085 121.644 3.038 Q124.611 -0.008 124.611 -4.362 V-7.782 H144.838 V-36.593 Q144.838 -36.593 144.838 -36.593 Q144.838 -36.593 144.838 -36.593 L109.979 -39.64 L90.076 -73.482 H39.913 L26.489 -35.609 H10.285 Q10.285 -35.609 10.285 -35.609 Q10.285 -35.609 10.285 -35.609 V-7.782 H30.602 V-4.362 Q30.602 -0.008 33.563 3.038 Q36.523 6.085 40.753 6.085 Z"/></g><g id="Medium-L" transform="matrix(1 0 0 1 1674.31 1556)"><path d="M59.001 -17.209  63.742 -21.82  57.166 -28.43 H74.917 Q82.32 -28.43 87.499 -33.695 Q92.68 -38.961 92.68 -46.469 Q92.68 -54.022 87.396 -59.242 Q82.11 -64.461 74.891 -64.461 H47.285 V-57.876 H75.017 Q79.449 -57.876 82.697 -54.486 Q85.946 -51.099 85.946 -46.459 Q85.946 -41.695 82.697 -38.442 Q79.448 -35.191 75.009 -35.191 H57.231 L63.699 -41.835 L59.017 -46.44 L44.744 -31.844 L59.001 -17.209 Z M40.469 19.144 Q33.779 19.144 28.254 15.219 Q22.73 11.295 19.613 5.352 H-2.773 V-35.973 Q-2.773 -40.89 0.98 -44.665 Q4.734 -48.438 9.693 -48.438 H17.383 L27.627 -77.8 Q29.102 -81.643 32.342 -84.029 Q35.581 -86.416 39.745 -86.416 H90.139 Q93.533 -86.416 96.466 -84.737 Q99.401 -83.058 101.212 -80.135 L117.667 -51.985 L144.624 -49.728 Q149.571 -49.244 153.591 -44.902 Q157.611 -40.558 157.611 -35.573 V5.352 H135.205 Q132.264 11.479 126.746 15.311 Q121.229 19.144 114.413 19.144 Q107.599 19.144 102.158 15.219 Q96.718 11.295 93.578 5.352 H61.344 Q58.213 11.418 52.687 15.28 Q47.161 19.144 40.469 19.144 Z M40.637 6.716 Q44.995 6.716 48.125 3.501 Q51.253 0.285 51.253 -4.309 V-7.152 H103.869 V-4.309 Q103.869 0.285 107.07 3.501 Q110.269 6.716 114.733 6.716 Q119.046 6.716 122.118 3.501 Q125.19 0.285 125.19 -4.309 V-7.152 H145.468 V-37.081 Q145.468 -37.081 145.468 -37.081 Q145.468 -37.081 145.468 -37.081 L110.348 -40.166 L90.392 -74.112 H39.492 L26.09 -36.135 H9.654 Q9.654 -36.135 9.654 -36.135 Q9.654 -36.135 9.654 -36.135 V-7.152 H29.972 V-4.309 Q29.972 0.285 33.082 3.501 Q36.193 6.716 40.637 6.716 Z"/></g><g id="Regular-L" transform="matrix(1 0 0 1 1378.56 1556)"><path d="M59.017 -17.17  63.726 -21.775  57.197 -28.393 H74.962 Q82.373 -28.393 87.546 -33.676 Q92.719 -38.958 92.719 -46.527 Q92.719 -54.096 87.451 -59.337 Q82.183 -64.577 74.955 -64.577 H47.246 V-57.966 H75.013 Q79.449 -57.966 82.699 -54.575 Q85.946 -51.186 85.946 -46.517 Q85.946 -41.77 82.699 -38.5 Q79.453 -35.23 75.017 -35.23 H57.244 L63.694 -41.841 L59.017 -46.517 L44.666 -31.844 L59.017 -17.17 Z M40.408 18.95 Q33.701 18.95 28.235 14.969 Q22.768 10.986 19.69 5.083 H-2.58 V-36.359 Q-2.58 -40.99 0.99 -44.56 Q4.56 -48.13 9.191 -48.13 H17.576 L27.896 -77.8 Q29.336 -81.554 32.498 -83.869 Q35.659 -86.185 39.668 -86.185 H90.139 Q93.494 -86.185 96.332 -84.572 Q99.169 -82.96 100.943 -80.057 L117.551 -51.677 L145.125 -49.42 Q149.801 -48.936 153.591 -44.824 Q157.38 -40.712 157.38 -36.036 V5.083 H135.127 Q132.225 11.21 126.743 15.08 Q121.26 18.95 114.487 18.95 Q107.715 18.95 102.313 14.969 Q96.911 10.986 93.847 5.083 H61.114 Q58.019 11.147 52.568 15.049 Q47.114 18.95 40.408 18.95 Z M40.55 7.179 Q45.15 7.179 48.375 3.839 Q51.6 0.5 51.6 -4.27 V-6.689 H103.523 V-4.27 Q103.523 0.5 106.833 3.839 Q110.142 7.179 114.763 7.179 Q119.315 7.179 122.465 3.839 Q125.614 0.5 125.614 -4.27 V-6.689 H145.931 V-37.441 Q145.931 -37.441 145.931 -37.441 Q145.931 -37.441 145.931 -37.441 L110.618 -40.551 L90.623 -74.575 H39.184 L25.8 -36.52 H9.191 Q9.191 -36.52 9.191 -36.52 Q9.191 -36.52 9.191 -36.52 V-6.689 H29.509 V-4.27 Q29.509 0.5 32.729 3.839 Q35.949 7.179 40.55 7.179 Z"/></g><g id="Light-L" transform="matrix(1 0 0 1 1082.77 1556)"><path d="M59.514 -18.473  63.416 -22.333  56.578 -29.075 H75.025 Q81.971 -29.075 86.911 -34.014 Q91.85 -38.952 91.85 -45.969 Q91.85 -52.98 86.83 -57.91 Q81.81 -62.841 75.049 -62.841 H48.549 V-57.345 H75.075 Q79.553 -57.345 82.873 -53.95 Q86.195 -50.554 86.195 -45.96 Q86.195 -41.212 82.874 -37.973 Q79.556 -34.733 75.08 -34.733 H56.623 L63.384 -41.532 L59.514 -45.339 L46.217 -31.968 L59.514 -18.473 Z M41.432 15.725 Q35.101 15.725 30.02 11.899 Q24.939 8.07 21.917 2.477 H0.645 V-35.18 Q0.645 -39.737 4.067 -43.157 Q7.488 -46.579 12.044 -46.579 H19.934 L30.191 -75.567 Q31.497 -78.876 34.341 -80.917 Q37.184 -82.96 40.722 -82.96 H89.766 Q92.749 -82.96 95.273 -81.514 Q97.795 -80.069 99.454 -77.515 L115.815 -50.002 L142.148 -47.932 Q146.762 -47.448 150.459 -43.43 Q154.155 -39.41 154.155 -34.796 V2.503 H132.839 Q130.055 8.233 124.957 11.979 Q119.86 15.725 113.464 15.725 Q107.067 15.725 102.052 11.899 Q97.035 8.07 94.033 2.477 H60.865 Q57.897 8.17 52.829 11.947 Q47.761 15.725 41.432 15.725 Z M41.541 6.31 Q46.453 6.31 49.863 2.904 Q53.275 -0.503 53.275 -5.2 V-6.937 H101.786 V-5.2 Q101.786 -0.503 105.282 2.904 Q108.778 6.31 113.676 6.31 Q118.572 6.31 121.907 2.904 Q125.241 -0.503 125.241 -5.2 V-6.937 H145.001 V-36.262 Q145.001 -37.068 144.474 -37.657 Q143.946 -38.247 143.14 -38.247 L110.308 -41.109 L90.808 -73.706 H39.493 L26.545 -37.326 H12.044 Q11.176 -37.326 10.618 -36.738 Q10.06 -36.148 10.06 -35.341 V-6.937 H29.818 V-5.2 Q29.818 -0.503 33.248 2.904 Q36.678 6.31 41.541 6.31 Z"/></g><g id="Thin-L" transform="matrix(1 0 0 1 787.282 1556)"><path d="M60.009 -19.774  63.105 -22.891  55.957 -29.757 H75.086 Q81.568 -29.757 86.275 -34.351 Q90.982 -38.947 90.982 -45.411 Q90.982 -51.863 86.211 -56.484 Q81.438 -61.104 75.141 -61.104 H49.85 V-56.726 H75.136 Q79.656 -56.726 83.049 -53.324 Q86.443 -49.921 86.443 -45.402 Q86.443 -40.654 83.05 -37.446 Q79.657 -34.238 75.141 -34.238 H56.004 L63.073 -41.22 L60.009 -44.16 L47.767 -32.092 L60.009 -19.774 Z M42.454 12.5 Q36.499 12.5 31.805 8.828 Q27.109 5.157 24.142 -0.127 H3.87 V-34.001 Q3.87 -38.482 7.143 -41.756 Q10.417 -45.029 14.896 -45.029 H22.29 L32.485 -73.335 Q33.658 -76.197 36.184 -77.966 Q38.711 -79.735 41.777 -79.735 H89.394 Q92.006 -79.735 94.214 -78.456 Q96.421 -77.178 97.966 -74.972 L114.078 -48.328 L139.172 -46.443 Q143.724 -45.96 147.326 -42.033 Q150.93 -38.108 150.93 -33.556 V-0.079 H130.553 Q127.884 5.257 123.172 8.878 Q118.462 12.5 112.441 12.5 Q106.42 12.5 101.789 8.828 Q97.16 5.157 94.22 -0.127 H60.617 Q57.773 5.194 53.09 8.846 Q48.409 12.5 42.454 12.5 Z M42.535 5.442 Q47.754 5.442 51.352 1.969 Q54.949 -1.505 54.949 -6.131 V-7.185 H100.049 V-6.131 Q100.049 -1.505 103.732 1.969 Q107.413 5.442 112.591 5.442 Q117.827 5.442 121.349 1.969 Q124.869 -1.505 124.869 -6.131 V-7.185 H144.07 V-35.083 Q144.07 -36.696 143.016 -37.874 Q141.961 -39.053 140.349 -39.053 L109.997 -41.667 L90.995 -72.838 H39.805 L27.288 -38.132 H14.896 Q13.161 -38.132 12.044 -36.954 Q10.928 -35.775 10.928 -34.163 V-7.185 H30.13 V-6.131 Q30.13 -1.505 33.767 1.969 Q37.407 5.442 42.535 5.442 Z"/></g><g id="Ultralight-L" transform="matrix(1 0 0 1 491.205 1556)"><path d="M60.308 -20.556  62.92 -23.227  55.584 -30.167 H75.123 Q81.326 -30.167 85.893 -34.554 Q90.461 -38.944 90.461 -45.076 Q90.461 -51.194 85.838 -55.628 Q81.215 -60.062 75.197 -60.062 H50.633 V-56.354 H75.175 Q79.717 -56.354 83.153 -52.948 Q86.591 -49.543 86.591 -45.066 Q86.591 -40.319 83.155 -37.13 Q79.719 -33.94 75.178 -33.94 H55.631 L62.888 -41.035 L60.308 -43.454 L48.697 -32.166 L60.308 -20.556 Z M43.068 10.565 Q37.339 10.565 32.876 6.987 Q28.412 3.407 25.477 -1.69 H5.805 V-33.295 Q5.805 -37.729 8.99 -40.914 Q12.174 -44.099 16.609 -44.099 H23.704 L33.863 -71.995 Q34.953 -74.59 37.289 -76.196 Q39.626 -77.8 42.409 -77.8 H89.171 Q91.559 -77.8 93.578 -76.621 Q95.597 -75.443 97.073 -73.446 L113.036 -47.324 L137.385 -45.55 Q141.9 -45.066 145.447 -41.196 Q148.995 -37.326 148.995 -32.811 V-1.627 H129.179 Q126.581 3.47 122.102 7.018 Q117.622 10.565 111.827 10.565 Q106.032 10.565 101.633 6.987 Q97.234 3.407 94.331 -1.69 H60.469 Q57.697 3.407 53.248 6.987 Q48.797 10.565 43.068 10.565 Z M43.13 4.921 Q48.536 4.921 52.245 1.408 Q55.954 -2.106 55.954 -6.689 V-7.334 H99.008 V-6.689 Q99.008 -2.106 102.802 1.408 Q106.594 4.921 111.941 4.921 Q117.38 4.921 121.013 1.408 Q124.646 -2.106 124.646 -6.689 V-7.334 H143.513 V-34.377 Q143.513 -36.473 142.142 -38.005 Q140.771 -39.537 138.675 -39.537 L109.811 -42.002 L91.106 -72.317 H39.99 L27.735 -38.616 H16.609 Q14.351 -38.616 12.9 -37.084 Q11.449 -35.552 11.449 -33.456 V-7.334 H30.315 V-6.689 Q30.315 -2.106 34.08 1.408 Q37.844 4.921 43.13 4.921 Z"/></g><g id="Bold-M" transform="matrix(1 0 0 1 2281.8 1126)"><path d="M45.625 -19.23  51.25 -24.877  47.455 -28.601 H57.914 Q64.188 -28.601 68.656 -33.041 Q73.125 -37.481 73.125 -43.976 Q73.125 -50.417 68.666 -54.886 Q64.209 -59.355 57.919 -59.355 H35.25 V-51.355 H58.106 Q60.979 -51.355 63.115 -49.157 Q65.25 -46.96 65.25 -43.917 Q65.25 -40.855 63.102 -38.667 Q60.954 -36.48 58.046 -36.48 H47.46 L51.265 -40.335 L45.625 -45.855 L32.75 -32.605 L45.625 -19.23 Z M31.331 10.52 Q25.625 10.52 20.75 7.645 Q15.875 4.77 13 -0.105 H-5.75 V-31.98 Q-5.75 -39.121 -0.82 -44.05 Q4.11 -48.98 11.25 -48.98 H10.75 L18 -69.355 Q19.365 -73.515 22.854 -75.997 Q26.341 -78.48 30.75 -78.48 H69.75 Q73.328 -78.48 76.478 -76.701 Q79.627 -74.922 81.375 -71.855 L93.25 -51.605 L108.5 -50.23 Q115.5 -49.605 120.625 -44.167 Q125.75 -38.73 125.75 -31.605 V-0.105 H106.875 Q104 4.77 99.176 7.645 Q94.354 10.52 88.614 10.52 Q82.875 10.52 78 7.645 Q73.125 4.77 70.25 -0.105 H49.625 Q46.75 4.77 41.894 7.645 Q37.039 10.52 31.331 10.52 Z M31.434 -6.23 Q33.25 -6.23 34.562 -7.652 Q35.875 -9.074 35.875 -11.105 V-16.98 H84.125 V-11.105 Q84.125 -9.074 85.524 -7.652 Q86.924 -6.23 88.839 -6.23 Q90.618 -6.23 91.996 -7.652 Q93.375 -9.074 93.375 -11.105 V-16.98 H109 V-33.319 Q109 -33.319 109 -33.319 Q109 -33.319 109 -33.319 L83.25 -35.48 L68 -61.73 H33 L22.625 -32.23 H11.125 Q11.125 -32.23 11.125 -32.23 Q11.125 -32.23 11.125 -32.23 V-16.98 H26.75 V-11.105 Q26.75 -9.074 28.116 -7.652 Q29.483 -6.23 31.434 -6.23 Z"/></g><g id="Semibold-M" transform="matrix(1 0 0 1 1985.97 1126)"><path d="M45.679 -19.23  51.25 -24.867  47.529 -28.602 H57.989 Q64.264 -28.602 68.695 -33.067 Q73.125 -37.531 73.125 -44.002 Q73.125 -50.444 68.703 -54.926 Q64.28 -59.409 58 -59.409 H35.25 V-51.409 H58.115 Q60.989 -51.409 63.119 -49.219 Q65.25 -47.027 65.25 -43.945 Q65.25 -40.909 63.112 -38.721 Q60.974 -36.534 58.08 -36.534 H47.532 L51.259 -40.344 L45.679 -45.909 L32.696 -32.605 L45.679 -19.23 Z M31.326 9.759 Q25.679 9.759 20.913 6.858 Q16.146 3.955 13.435 -0.92 H-4.989 V-32.85 Q-4.989 -39.262 -0.51 -43.74 Q3.967 -48.219 10.38 -48.219 H11.348 L18.761 -69.137 Q20.076 -73.065 23.345 -75.392 Q26.614 -77.719 30.75 -77.719 H69.75 Q73.11 -77.719 76.07 -76.061 Q79.029 -74.404 80.722 -71.475 L92.815 -50.844 L109.479 -49.415 Q115.826 -48.844 120.407 -43.95 Q124.989 -39.056 124.989 -32.637 V-0.92 H106.495 Q103.782 3.955 99.045 6.858 Q94.309 9.759 88.674 9.759 Q83.037 9.759 78.271 6.858 Q73.505 3.955 70.794 -0.92 H49.19 Q46.479 3.955 41.726 6.858 Q36.972 9.759 31.326 9.759 Z M31.421 -5.415 Q33.63 -5.415 35.188 -7.09 Q36.745 -8.766 36.745 -11.159 V-16.165 H83.31 V-11.159 Q83.31 -8.766 84.942 -7.09 Q86.576 -5.415 88.825 -5.415 Q90.998 -5.415 92.594 -7.09 Q94.19 -8.766 94.19 -11.159 V-16.165 H109.815 V-34.095 Q109.815 -34.095 109.815 -34.095 Q109.815 -34.095 109.815 -34.095 L83.739 -36.295 L68.489 -62.545 H32.456 L22.081 -33.045 H10.31 Q10.31 -33.045 10.31 -33.045 Q10.31 -33.045 10.31 -33.045 V-16.165 H25.935 V-11.159 Q25.935 -8.766 27.535 -7.09 Q29.135 -5.415 31.421 -5.415 Z"/></g><g id="Medium-M" transform="matrix(1 0 0 1 1689.91 1126)"><path d="M45.72 -19.23  51.25 -24.86  47.585 -28.604 H58.045 Q64.321 -28.604 68.724 -33.086 Q73.125 -37.569 73.125 -44.024 Q73.125 -50.465 68.73 -54.957 Q64.335 -59.45 58.061 -59.45 H35.25 V-51.45 H58.121 Q60.995 -51.45 63.123 -49.265 Q65.25 -47.079 65.25 -43.965 Q65.25 -40.95 63.12 -38.762 Q60.989 -36.575 58.106 -36.575 H47.586 L51.254 -40.35 L45.72 -45.95 L32.655 -32.605 L45.72 -19.23 Z M31.323 9.189 Q25.72 9.189 21.035 6.266 Q16.35 3.344 13.761 -1.531 H-4.419 V-33.501 Q-4.419 -39.367 -0.279 -43.509 Q3.862 -47.649 9.729 -47.649 H11.796 L19.331 -68.975 Q20.609 -72.727 23.712 -74.937 Q26.817 -77.149 30.75 -77.149 H69.75 Q72.948 -77.149 75.764 -75.581 Q78.58 -74.015 80.234 -71.189 L92.489 -50.274 L110.213 -48.804 Q116.071 -48.274 120.245 -43.787 Q124.419 -39.301 124.419 -33.412 V-1.531 H106.209 Q103.62 3.344 98.948 6.266 Q94.275 9.189 88.718 9.189 Q83.16 9.189 78.475 6.266 Q73.791 3.344 71.201 -1.531 H48.864 Q46.275 3.344 41.599 6.266 Q36.924 9.189 31.323 9.189 Z M31.411 -4.804 Q33.916 -4.804 35.656 -6.669 Q37.396 -8.535 37.396 -11.2 V-15.554 H82.699 V-11.2 Q82.699 -8.535 84.507 -6.669 Q86.316 -4.804 88.816 -4.804 Q91.284 -4.804 93.043 -6.669 Q94.801 -8.535 94.801 -11.2 V-15.554 H110.426 V-34.677 Q110.426 -34.677 110.426 -34.677 Q110.426 -34.677 110.426 -34.677 L84.106 -36.906 L68.856 -63.156 H32.049 L21.674 -33.656 H9.699 Q9.699 -33.656 9.699 -33.656 Q9.699 -33.656 9.699 -33.656 V-15.554 H25.324 V-11.2 Q25.324 -8.535 27.099 -6.669 Q28.875 -4.804 31.411 -4.804 Z"/></g><g id="Regular-M" transform="matrix(1 0 0 1 1394.06 1126)"><path d="M45.75 -19.23  51.25 -24.855  47.625 -28.605 H58.086 Q64.364 -28.605 68.744 -33.101 Q73.125 -37.596 73.125 -44.039 Q73.125 -50.48 68.75 -54.98 Q64.375 -59.48 58.105 -59.48 H35.25 V-51.48 H58.125 Q61 -51.48 63.125 -49.299 Q65.25 -47.116 65.25 -43.98 Q65.25 -40.98 63.125 -38.792 Q61 -36.605 58.125 -36.605 H47.625 L51.25 -40.355 L45.75 -45.98 L32.625 -32.605 L45.75 -19.23 Z M31.319 8.77 Q25.75 8.77 21.125 5.833 Q16.5 2.895 14 -1.98 H-4 V-33.98 Q-4 -39.445 -0.107 -43.337 Q3.785 -47.23 9.25 -47.23 H12.125 L19.75 -68.855 Q21 -72.48 23.984 -74.605 Q26.966 -76.73 30.75 -76.73 H69.75 Q72.828 -76.73 75.539 -75.23 Q78.25 -73.73 79.875 -70.98 L92.25 -49.855 L110.75 -48.355 Q116.25 -47.855 120.125 -43.667 Q124 -39.48 124 -33.98 V-1.98 H106 Q103.5 2.895 98.875 5.833 Q94.25 8.77 88.75 8.77 Q83.25 8.77 78.625 5.833 Q74 2.895 71.5 -1.98 H48.625 Q46.125 2.895 41.506 5.833 Q36.889 8.77 31.319 8.77 Z M31.405 -4.355 Q34.125 -4.355 36 -6.36 Q37.875 -8.365 37.875 -11.23 V-15.105 H82.25 V-11.23 Q82.25 -8.365 84.188 -6.36 Q86.125 -4.355 88.809 -4.355 Q91.493 -4.355 93.371 -6.36 Q95.25 -8.365 95.25 -11.23 V-15.105 H110.875 V-35.105 Q110.875 -35.105 110.875 -35.105 Q110.875 -35.105 110.875 -35.105 L84.375 -37.355 L69.125 -63.605 H31.75 L21.375 -34.105 H9.25 Q9.25 -34.105 9.25 -34.105 Q9.25 -34.105 9.25 -34.105 V-15.105 H24.875 V-11.23 Q24.875 -8.365 26.78 -6.36 Q28.684 -4.355 31.405 -4.355 Z"/></g><g id="Light-M" transform="matrix(1 0 0 1 1098.18 1126)"><path d="M46.086 -20.624  50.481 -25.191  46.182 -29.422 H58.135 Q63.931 -29.422 68.047 -33.581 Q72.164 -37.741 72.164 -43.654 Q72.164 -49.615 68.076 -53.777 Q63.99 -57.941 58.154 -57.941 H36.5 V-51.527 H58.172 Q61.24 -51.527 63.534 -49.202 Q65.828 -46.876 65.828 -43.595 Q65.828 -40.451 63.534 -38.144 Q61.24 -35.836 58.172 -35.836 H46.182 L50.481 -40.162 L46.086 -44.634 L34.211 -32.652 L46.086 -20.624 Z M31.944 6.27 Q26.711 6.27 22.424 3.38 Q18.135 0.491 15.682 -4.095 H-1.5 V-33.451 Q-1.5 -38.58 2.08 -42.16 Q5.66 -45.74 10.789 -45.74 H13.953 L21.674 -67.316 Q22.779 -70.509 25.425 -72.369 Q28.073 -74.23 31.375 -74.23 H69.558 Q72.299 -74.23 74.674 -72.897 Q77.047 -71.566 78.529 -69.152 L90.904 -48.316 L108.875 -46.912 Q114.039 -46.461 117.769 -42.441 Q121.5 -38.422 121.5 -33.259 V-4.095 H104.269 Q101.865 0.491 97.576 3.38 Q93.289 6.27 88.125 6.27 Q82.961 6.27 78.672 3.38 Q74.385 0.491 71.933 -4.095 H48.144 Q45.74 0.491 41.459 3.38 Q37.176 6.27 31.944 6.27 Z M32.03 -4.355 Q35.135 -4.355 37.299 -6.552 Q39.461 -8.75 39.461 -11.759 V-14.72 H80.664 V-11.759 Q80.664 -8.75 82.889 -6.552 Q85.115 -4.355 88.184 -4.355 Q91.3 -4.355 93.444 -6.552 Q95.586 -8.75 95.586 -11.759 V-14.72 H110.875 V-34.576 Q110.875 -35.201 110.466 -35.634 Q110.058 -36.066 109.433 -36.115 L84.519 -38.172 L69.558 -63.605 H31.606 L21.471 -35.115 H10.789 Q10.115 -35.115 9.682 -34.682 Q9.25 -34.249 9.25 -33.576 V-14.72 H24.539 V-11.759 Q24.539 -8.75 26.731 -6.552 Q28.924 -4.355 32.03 -4.355 Z"/></g><g id="Thin-M" transform="matrix(1 0 0 1 802.565 1126)"><path d="M46.422 -22.019  49.711 -25.527  44.74 -30.24 H58.182 Q63.498 -30.24 67.35 -34.062 Q71.203 -37.885 71.203 -43.269 Q71.203 -48.749 67.404 -52.576 Q63.605 -56.402 58.201 -56.402 H37.75 V-51.576 H58.221 Q61.481 -51.576 63.943 -49.106 Q66.404 -46.635 66.404 -43.211 Q66.404 -39.922 63.943 -37.495 Q61.481 -35.066 58.221 -35.066 H44.74 L49.711 -39.97 L46.422 -43.287 L35.797 -32.701 L46.422 -22.019 Z M32.569 3.77 Q27.672 3.77 23.721 0.929 Q19.769 -1.912 17.365 -6.211 H1 V-32.922 Q1 -37.715 4.268 -40.982 Q7.534 -44.249 12.328 -44.249 H15.779 L23.596 -65.777 Q24.558 -68.537 26.867 -70.134 Q29.177 -71.73 32 -71.73 H69.365 Q71.77 -71.73 73.808 -70.566 Q75.846 -69.402 77.183 -67.326 L89.558 -46.777 L107 -45.47 Q111.828 -45.066 115.414 -41.215 Q119 -37.365 119 -32.537 V-6.211 H102.539 Q100.231 -1.912 96.279 0.929 Q92.328 3.77 87.5 3.77 Q82.672 3.77 78.721 0.929 Q74.769 -1.912 72.365 -6.211 H47.664 Q45.356 -1.912 41.41 0.929 Q37.465 3.77 32.569 3.77 Z M32.655 -4.355 Q36.144 -4.355 38.596 -6.745 Q41.047 -9.135 41.047 -12.287 V-14.336 H79.078 V-12.287 Q79.078 -9.135 81.591 -6.745 Q84.106 -4.355 87.559 -4.355 Q91.108 -4.355 93.515 -6.745 Q95.922 -9.135 95.922 -12.287 V-14.336 H110.875 V-34.047 Q110.875 -35.297 110.058 -36.162 Q109.24 -37.027 107.99 -37.124 L84.664 -38.99 L69.99 -63.605 H31.461 L21.567 -36.124 H12.328 Q10.981 -36.124 10.115 -35.259 Q9.25 -34.394 9.25 -33.047 V-14.336 H24.203 V-12.287 Q24.203 -9.135 26.684 -6.745 Q29.165 -4.355 32.655 -4.355 Z"/></g><g id="Ultralight-M" transform="matrix(1 0 0 1 506.415 1126)"><path d="M46.625 -22.855  49.25 -25.73  43.875 -30.73 H58.211 Q63.239 -30.73 66.931 -34.351 Q70.625 -37.971 70.625 -43.039 Q70.625 -48.23 67 -51.855 Q63.375 -55.48 58.23 -55.48 H38.5 V-51.605 H58.25 Q61.625 -51.605 64.188 -49.049 Q66.75 -46.491 66.75 -42.98 Q66.75 -39.605 64.188 -37.105 Q61.625 -34.605 58.25 -34.605 H43.875 L49.25 -39.855 L46.625 -42.48 L36.75 -32.73 L46.625 -22.855 Z M32.944 2.27 Q28.25 2.27 24.5 -0.542 Q20.75 -3.355 18.375 -7.48 H2.5 V-32.605 Q2.5 -37.195 5.58 -40.275 Q8.66 -43.355 13.25 -43.355 H16.875 L24.75 -64.855 Q25.625 -67.355 27.734 -68.792 Q29.841 -70.23 32.375 -70.23 H69.25 Q71.453 -70.23 73.289 -69.167 Q75.125 -68.105 76.375 -66.23 L88.75 -45.855 L105.875 -44.605 Q110.5 -44.23 114 -40.48 Q117.5 -36.73 117.5 -32.105 V-7.48 H101.5 Q99.25 -3.355 95.5 -0.542 Q91.75 2.27 87.125 2.27 Q82.5 2.27 78.75 -0.542 Q75 -3.355 72.625 -7.48 H47.375 Q45.125 -3.355 41.381 -0.542 Q37.639 2.27 32.944 2.27 Z M33.03 -4.355 Q36.75 -4.355 39.375 -6.86 Q42 -9.365 42 -12.605 V-14.105 H78.125 V-12.605 Q78.125 -9.365 80.812 -6.86 Q83.5 -4.355 87.184 -4.355 Q90.993 -4.355 93.559 -6.86 Q96.125 -9.365 96.125 -12.605 V-14.105 H110.875 V-33.73 Q110.875 -35.355 109.812 -36.48 Q108.75 -37.605 107.125 -37.73 L84.75 -39.48 L70.25 -63.605 H31.375 L21.625 -36.73 H13.25 Q11.5 -36.73 10.375 -35.605 Q9.25 -34.48 9.25 -32.73 V-14.105 H24 V-12.605 Q24 -9.365 26.655 -6.86 Q29.309 -4.355 33.03 -4.355 Z"/></g><g id="Bold-S" transform="matrix(1 0 0 1 2294.23 696)"><path d="M37.379 -24.973  41.028 -28.64  36.949 -32.564 H44.806 Q48.974 -32.564 51.955 -35.52 Q54.934 -38.476 54.934 -42.816 Q54.934 -47.114 51.963 -50.098 Q48.991 -53.081 44.81 -53.081 H29.982 V-47.953 H44.958 Q46.937 -47.953 48.42 -46.421 Q49.904 -44.889 49.904 -42.78 Q49.904 -40.654 48.41 -39.126 Q46.917 -37.597 44.911 -37.597 H36.953 L41.04 -41.723 L37.379 -45.191 L27.615 -35.131 L37.379 -24.973 Z M26.89 -4.656 Q22.881 -4.656 19.311 -6.713 Q15.741 -8.769 13.61 -12.25 H0.197 V-35.033 Q0.197 -40.667 3.693 -44.161 Q7.188 -47.657 12.821 -47.657 H12.032 L17.358 -61.267 Q18.337 -64.415 20.868 -66.293 Q23.399 -68.171 26.596 -68.171 H54.145 Q56.825 -68.171 59.185 -66.767 Q61.544 -65.364 62.824 -63.042 L71.207 -49.531 L81.563 -48.544 Q87.086 -48.051 90.735 -44.156 Q94.384 -40.26 94.384 -34.638 V-12.25 H80.873 Q78.742 -8.769 75.212 -6.713 Q71.684 -4.656 67.648 -4.656 Q63.613 -4.656 60.098 -6.713 Q56.584 -8.769 54.481 -12.25 H40.042 Q37.872 -8.798 34.41 -6.727 Q30.948 -4.656 26.89 -4.656 Z M27.07 -17.083 Q28.305 -17.083 29.094 -18.033 Q29.883 -18.982 29.883 -20.338 V-24.776 H64.797 V-20.338 Q64.797 -18.982 65.728 -18.033 Q66.66 -17.083 67.924 -17.083 Q69.081 -17.083 69.996 -18.033 Q70.911 -18.982 70.911 -20.338 V-24.776 H82.155 V-36.089 Q82.155 -36.089 82.155 -36.089 Q82.155 -36.089 82.155 -36.089 L64.106 -37.498 L52.863 -55.744 H28.503 L20.81 -35.23 H12.821 Q12.821 -35.23 12.821 -35.23 Q12.821 -35.23 12.821 -35.23 V-24.776 H23.966 V-20.338 Q23.966 -18.982 24.871 -18.033 Q25.777 -17.083 27.07 -17.083 Z"/></g><g id="Semibold-S" transform="matrix(1 0 0 1 1998.1 696)"><path d="M37.421 -24.973  41.028 -28.632  37.007 -32.565 H44.865 Q49.034 -32.565 51.984 -35.541 Q54.934 -38.515 54.934 -42.837 Q54.934 -47.135 51.991 -50.129 Q49.047 -53.124 44.874 -53.124 H29.982 V-47.995 H44.965 Q46.944 -47.995 48.424 -46.469 Q49.904 -44.943 49.904 -42.801 Q49.904 -40.697 48.418 -39.168 Q46.933 -37.639 44.937 -37.639 H37.01 L41.035 -41.73 L37.421 -45.234 L27.573 -35.131 L37.421 -24.973 Z M26.886 -5.257 Q22.923 -5.257 19.439 -7.334 Q15.955 -9.412 13.953 -12.893 H0.798 V-35.719 Q0.798 -40.779 3.937 -43.917 Q7.075 -47.056 12.135 -47.056 H12.504 L17.959 -61.095 Q18.899 -64.06 21.256 -65.816 Q23.613 -67.57 26.596 -67.57 H54.145 Q56.653 -67.57 58.862 -66.262 Q61.072 -64.955 62.309 -62.742 L70.864 -48.93 L82.335 -47.901 Q87.343 -47.451 90.563 -43.984 Q93.783 -40.517 93.783 -35.453 V-12.893 H80.573 Q78.571 -9.412 75.109 -7.334 Q71.648 -5.257 67.695 -5.257 Q63.741 -5.257 60.313 -7.334 Q56.884 -9.412 54.909 -12.893 H39.699 Q37.658 -9.442 34.277 -7.349 Q30.896 -5.257 26.886 -5.257 Z M27.06 -16.44 Q28.605 -16.44 29.588 -17.589 Q30.57 -18.739 30.57 -20.38 V-24.133 H64.154 V-20.38 Q64.154 -18.739 65.269 -17.589 Q66.385 -16.44 67.913 -16.44 Q69.381 -16.44 70.468 -17.589 Q71.554 -18.739 71.554 -20.38 V-24.133 H82.798 V-36.701 Q82.798 -36.701 82.798 -36.701 Q82.798 -36.701 82.798 -36.701 L64.492 -38.141 L53.249 -56.387 H28.074 L20.381 -35.873 H12.178 Q12.178 -35.873 12.178 -35.873 Q12.178 -35.873 12.178 -35.873 V-24.133 H23.323 V-20.38 Q23.323 -18.739 24.413 -17.589 Q25.502 -16.44 27.06 -16.44 Z"/></g><g id="Medium-S" transform="matrix(1 0 0 1 1701.85 696)"><path d="M37.454 -24.973  41.028 -28.626  37.051 -32.566 H44.91 Q49.08 -32.566 52.007 -35.555 Q54.934 -38.545 54.934 -42.854 Q54.934 -47.152 52.012 -50.154 Q49.091 -53.156 44.923 -53.156 H29.982 V-48.028 H44.97 Q46.948 -48.028 48.427 -46.506 Q49.904 -44.983 49.904 -42.817 Q49.904 -40.729 48.424 -39.201 Q46.945 -37.672 44.958 -37.672 H37.052 L41.031 -41.735 L37.454 -45.266 L27.54 -35.131 L37.454 -24.973 Z M26.883 -5.707 Q22.956 -5.707 19.536 -7.8 Q16.115 -9.894 14.211 -13.376 H1.248 V-36.233 Q1.248 -40.861 4.12 -43.734 Q6.993 -46.606 11.621 -46.606 H12.858 L18.408 -60.967 Q19.32 -63.794 21.547 -65.458 Q23.774 -67.12 26.596 -67.12 H54.145 Q56.525 -67.12 58.621 -65.884 Q60.717 -64.648 61.924 -62.517 L70.607 -48.48 L82.914 -47.419 Q87.537 -47.001 90.435 -43.856 Q93.334 -40.711 93.334 -36.064 V-13.376 H80.347 Q78.442 -9.894 75.032 -7.8 Q71.621 -5.707 67.73 -5.707 Q63.838 -5.707 60.474 -7.8 Q57.109 -9.894 55.232 -13.376 H39.441 Q37.497 -9.924 34.178 -7.815 Q30.858 -5.707 26.883 -5.707 Z M27.052 -15.958 Q28.831 -15.958 29.957 -17.257 Q31.084 -18.556 31.084 -20.413 V-23.65 H63.671 V-20.413 Q63.671 -18.556 64.926 -17.257 Q66.18 -15.958 67.906 -15.958 Q69.607 -15.958 70.822 -17.257 Q72.037 -18.556 72.037 -20.413 V-23.65 H83.28 V-37.161 Q83.28 -37.161 83.28 -37.161 Q83.28 -37.161 83.28 -37.161 L64.782 -38.624 L53.539 -56.869 H27.752 L20.059 -36.355 H11.696 Q11.696 -36.355 11.696 -36.355 Q11.696 -36.355 11.696 -36.355 V-23.65 H22.841 V-20.413 Q22.841 -18.556 24.068 -17.257 Q25.297 -15.958 27.052 -15.958 Z"/></g><g id="Regular-S" transform="matrix(1 0 0 1 1405.73 696)"><path d="M37.477 -24.973  41.028 -28.622  37.083 -32.567 H44.942 Q49.113 -32.567 52.024 -35.567 Q54.934 -38.566 54.934 -42.866 Q54.934 -47.164 52.028 -50.172 Q49.122 -53.18 44.957 -53.18 H29.982 V-48.051 H44.973 Q46.952 -48.051 48.429 -46.532 Q49.904 -45.013 49.904 -42.829 Q49.904 -40.753 48.429 -39.224 Q46.952 -37.696 44.973 -37.696 H37.083 L41.028 -41.739 L37.477 -45.29 L27.516 -35.131 L37.477 -24.973 Z M26.88 -6.037 Q22.98 -6.037 19.607 -8.143 Q16.234 -10.248 14.399 -13.73 H1.578 V-36.611 Q1.578 -40.923 4.255 -43.599 Q6.931 -46.276 11.243 -46.276 H13.117 L18.739 -60.872 Q19.627 -63.598 21.76 -65.194 Q23.892 -66.79 26.596 -66.79 H54.145 Q56.43 -66.79 58.444 -65.606 Q60.457 -64.423 61.641 -62.352 L70.418 -48.15 L83.338 -47.065 Q87.678 -46.67 90.341 -43.761 Q93.003 -40.852 93.003 -36.512 V-13.73 H80.182 Q78.348 -10.248 74.975 -8.143 Q71.602 -6.037 67.755 -6.037 Q63.909 -6.037 60.591 -8.143 Q57.274 -10.248 55.468 -13.73 H39.253 Q37.379 -10.278 34.105 -8.157 Q30.829 -6.037 26.88 -6.037 Z M27.047 -15.604 Q28.996 -15.604 30.229 -17.013 Q31.461 -18.422 31.461 -20.436 V-23.296 H63.317 V-20.436 Q63.317 -18.422 64.673 -17.013 Q66.029 -15.604 67.9 -15.604 Q69.771 -15.604 71.081 -17.013 Q72.391 -18.422 72.391 -20.436 V-23.296 H83.634 V-37.498 Q83.634 -37.498 83.634 -37.498 Q83.634 -37.498 83.634 -37.498 L64.994 -38.978 L53.751 -57.223 H27.516 L19.824 -36.709 H11.342 Q11.342 -36.709 11.342 -36.709 Q11.342 -36.709 11.342 -36.709 V-23.296 H22.486 V-20.436 Q22.486 -18.422 23.817 -17.013 Q25.146 -15.604 27.047 -15.604 Z"/></g><g id="Light-S" transform="matrix(1 0 0 1 1109.75 696)"><path d="M37.743 -26.073  40.421 -28.887  35.945 -33.212 H44.981 Q48.772 -33.212 51.473 -35.946 Q54.176 -38.681 54.176 -42.562 Q54.176 -46.481 51.497 -49.223 Q48.818 -51.966 44.996 -51.966 H30.968 V-48.089 H45.01 Q47.143 -48.089 48.751 -46.456 Q50.36 -44.823 50.36 -42.525 Q50.36 -40.336 48.751 -38.712 Q47.143 -37.089 45.01 -37.089 H35.945 L40.421 -41.587 L37.743 -44.228 L28.768 -35.169 L37.743 -26.073 Z M27.373 -8.009 Q23.738 -8.009 20.631 -10.078 Q17.524 -12.145 15.727 -15.398 H3.55 V-36.194 Q3.55 -40.24 5.981 -42.67 Q8.411 -45.1 12.457 -45.1 H14.559 L20.257 -59.658 Q21.032 -62.043 22.898 -63.43 Q24.765 -64.817 27.089 -64.817 H53.993 Q56.013 -64.817 57.761 -63.766 Q59.508 -62.716 60.578 -60.91 L69.356 -46.936 L81.859 -45.927 Q85.933 -45.571 88.481 -42.794 Q91.031 -40.017 91.031 -35.943 V-15.398 H78.816 Q77.058 -12.145 73.95 -10.078 Q70.843 -8.009 67.262 -8.009 Q63.681 -8.009 60.63 -10.078 Q57.577 -12.145 55.809 -15.398 H38.873 Q37.075 -12.174 34.066 -10.092 Q31.057 -8.009 27.373 -8.009 Z M27.54 -15.604 Q29.793 -15.604 31.253 -17.165 Q32.713 -18.726 32.713 -20.853 V-22.993 H62.066 V-20.853 Q62.066 -18.726 63.649 -17.165 Q65.233 -15.604 67.407 -15.604 Q69.619 -15.604 71.138 -17.165 Q72.656 -18.726 72.656 -20.853 V-22.993 H83.634 V-37.081 Q83.634 -37.574 83.311 -37.916 Q82.989 -38.257 82.496 -38.295 L65.107 -39.623 L54.092 -57.223 H27.403 L19.9 -37.506 H12.556 Q12.024 -37.506 11.683 -37.165 Q11.342 -36.823 11.342 -36.292 V-22.993 H22.221 V-20.853 Q22.221 -18.726 23.778 -17.165 Q25.336 -15.604 27.54 -15.604 Z"/></g><g id="Thin-S" transform="matrix(1 0 0 1 814.015 696)"><path d="M38.008 -27.173  39.814 -29.153  34.807 -33.857 H45.018 Q48.43 -33.857 50.923 -36.326 Q53.417 -38.794 53.417 -42.258 Q53.417 -45.798 50.965 -48.275 Q48.515 -50.752 45.033 -50.752 H31.955 V-48.127 H45.049 Q47.332 -48.127 49.073 -46.381 Q50.815 -44.634 50.815 -42.223 Q50.815 -39.919 49.073 -38.201 Q47.332 -36.482 45.049 -36.482 H34.807 L39.814 -41.435 L38.008 -43.165 L30.019 -35.207 L38.008 -27.173 Z M27.866 -9.982 Q24.496 -9.982 21.655 -12.012 Q18.813 -14.041 17.054 -17.068 H5.523 V-35.776 Q5.523 -39.558 7.707 -41.741 Q9.889 -43.924 13.671 -43.924 H16 L21.773 -58.444 Q22.434 -60.488 24.036 -61.666 Q25.637 -62.845 27.582 -62.845 H53.841 Q55.596 -62.845 57.078 -61.927 Q58.561 -61.009 59.516 -59.469 L68.294 -45.722 L80.379 -44.789 Q84.188 -44.47 86.623 -41.826 Q89.058 -39.183 89.058 -35.374 V-17.068 H77.451 Q75.769 -14.041 72.926 -12.012 Q70.085 -9.982 66.769 -9.982 Q63.453 -9.982 60.667 -12.012 Q57.881 -14.041 56.15 -17.068 H38.494 Q36.772 -14.071 34.029 -12.026 Q31.285 -9.982 27.866 -9.982 Z M28.033 -15.604 Q30.589 -15.604 32.277 -17.317 Q33.964 -19.03 33.964 -21.271 V-22.69 H60.814 V-21.271 Q60.814 -19.03 62.625 -17.317 Q64.437 -15.604 66.914 -15.604 Q69.468 -15.604 71.194 -17.317 Q72.921 -19.03 72.921 -21.271 V-22.69 H83.634 V-36.664 Q83.634 -37.65 82.989 -38.333 Q82.344 -39.015 81.358 -39.091 L65.222 -40.268 L54.433 -57.223 H27.289 L19.976 -38.302 H13.77 Q12.708 -38.302 12.024 -37.62 Q11.342 -36.937 11.342 -35.875 V-22.69 H21.956 V-21.271 Q21.956 -19.03 23.741 -17.317 Q25.526 -15.604 28.033 -15.604 Z"/></g><g id="Ultralight-S" transform="matrix(1 0 0 1 517.792 696)"><path d="M38.168 -27.833  39.45 -29.312  34.124 -34.244 H45.041 Q48.226 -34.244 50.594 -36.554 Q52.962 -38.862 52.962 -42.077 Q52.962 -45.388 50.647 -47.706 Q48.333 -50.024 45.056 -50.024 H32.546 V-48.15 H45.072 Q47.446 -48.15 49.267 -46.335 Q51.088 -44.519 51.088 -42.04 Q51.088 -39.668 49.267 -37.893 Q47.446 -36.118 45.072 -36.118 H34.124 L39.45 -41.345 L38.168 -42.528 L30.771 -35.23 L38.168 -27.833 Z M28.162 -11.165 Q24.952 -11.165 22.27 -13.173 Q19.587 -15.18 17.851 -18.069 H6.707 V-35.526 Q6.707 -39.147 8.742 -41.183 Q10.778 -43.219 14.399 -43.219 H16.865 L22.684 -57.716 Q23.276 -59.555 24.718 -60.608 Q26.16 -61.661 27.878 -61.661 H53.751 Q55.345 -61.661 56.669 -60.823 Q57.992 -59.985 58.879 -58.604 L67.657 -44.994 L79.492 -44.106 Q83.141 -43.81 85.508 -41.246 Q87.875 -38.682 87.875 -35.033 V-18.069 H76.632 Q74.994 -15.18 72.312 -13.173 Q69.629 -11.165 66.473 -11.165 Q63.317 -11.165 60.69 -13.173 Q58.063 -15.18 56.355 -18.069 H38.267 Q36.59 -15.209 34.006 -13.187 Q31.421 -11.165 28.162 -11.165 Z M28.329 -15.604 Q31.067 -15.604 32.891 -17.407 Q34.716 -19.211 34.716 -21.521 V-22.507 H60.063 V-21.521 Q60.063 -19.211 62.01 -17.407 Q63.958 -15.604 66.618 -15.604 Q69.377 -15.604 71.229 -17.407 Q73.081 -19.211 73.081 -21.521 V-22.507 H83.634 V-36.413 Q83.634 -37.696 82.796 -38.583 Q81.957 -39.471 80.675 -39.569 L65.29 -40.654 L54.638 -57.223 H27.221 L20.021 -38.78 H14.498 Q13.117 -38.78 12.229 -37.893 Q11.342 -37.005 11.342 -35.624 V-22.507 H21.796 V-21.521 Q21.796 -19.211 23.718 -17.407 Q25.64 -15.604 28.329 -15.604 Z"/></g></g></svg>