<svg xmlns="http://www.w3.org/2000/svg" height="40" viewBox="0 -960 960 960" width="40"><path d="M143.89-104.36v-703.01h-39.15v-47.89h750.52v47.89h-39.15v703.01h-59.92q-14.72-36.89-47.52-60.36-32.81-23.46-74.44-23.46-42.5 0-74.66 23.59t-46.75 60.23h-66.61q-14.01-36.89-46.4-60.36-32.39-23.46-73.84-23.46-42.63 0-75.54 23.46-32.9 23.47-47.62 60.36h-58.92Zm47.88-71.65q20.68-23.03 48.21-38.07 27.52-15.03 59.69-19.51v-573.78h-107.9v631.36Zm155.78-58.24q32.73 4.35 60.57 19.64 27.84 15.29 48.2 39.3v-632.06H347.55v573.12Zm156.65 57.06q20.35-23.33 47.67-38.23 27.32-14.89 59.81-18.71v-573.24H504.2v630.18Zm264.03 2.56v-632.74H659.56v573.9q32.25 4.65 59.99 20.01 27.74 15.37 48.68 38.83ZM299.67-807.37h-107.9 107.9Zm156.65 0H347.55h108.77Zm155.36 0H504.2h107.48Zm156.55 0H659.56h108.67Zm-264.03 0h-47.88 47.88Z"/></svg>