<svg xmlns="http://www.w3.org/2000/svg" height="40" viewBox="0 -960 960 960" width="40"><path d="M110.17-70.84v-733.51H70.84v-85.19h818.7v85.19H850.2v733.51H746.8q-9.63-35.9-38.85-59.74-29.22-23.85-68.12-23.85-39.88 0-69.69 23.97-29.81 23.97-39.81 59.62H428.88q-9.92-35.9-39.3-59.74-29.37-23.85-68.24-23.85-39.84 0-69.11 23.85-29.27 23.84-38.9 59.74H110.17Zm84.82-119.38q16.33-15.55 36.23-27.13 19.9-11.57 42.76-16.49v-570.51h-78.99v614.13Zm164.18-45.06q22.47 4.06 42.26 13.57 19.79 9.5 36.33 23.74v-606.38h-78.59v569.07Zm163.4 36.94q16.08-14.14 35.58-23.56 19.5-9.42 42.23-12.65v-569.8h-77.81v606.01Zm242.44 7.98v-613.99h-79.82v570.68q22.76 4.64 43 16.15 20.24 11.5 36.82 27.16ZM273.98-804.35H194.99h78.99Zm163.78 0h-78.59 78.59Zm162.62 0h-77.81 77.81Zm164.63 0h-79.82 79.82Zm-242.44 0h-84.81 84.81Z"/></svg>