<svg xmlns="http://www.w3.org/2000/svg" height="24" viewBox="0 -960 960 960" width="24"><path d="M95-56v-727H56v-121h848v121h-39v727H728q-4.5-33-28.75-55.75t-58.57-22.75q-35.18 0-61.43 22.75T547-56H411.5q-5-33-30.5-55.75t-59.57-22.75q-34.93 0-59.43 22.75T233-56H95Zm121-171.5q10.32-5.56 20.2-10.92 9.89-5.37 21.3-8.58v-536H216v555.5Zm162.5-21.51Q390-246 400-241.75t19.5 9.75v-551h-41v533.99Zm162 17.51q9.45-5.68 19.47-9.59Q570-245 581-248.01V-783h-40.5v551.5Zm203.5 3V-783h-42v535.99q10.95 2.74 21.23 8.12Q733.5-233.5 744-228.5ZM257.5-783H216h41.5Zm162 0h-41 41Zm161.5 0h-40.5H581Zm163 0h-42 42Zm-203.5 0h-121 121Z"/></svg>