<svg xmlns="http://www.w3.org/2000/svg" height="40" viewBox="0 -960 960 960" width="40"><path d="M149.67-109.67V-808h-39v-41.33h738.66V-808h-38v698.33h-47.66q-8.36-47.25-45.07-77.79Q681.89-218 633.12-218q-48.45 0-84.45 30.67-36 30.66-44.34 77.66h-47.66q-9.54-47.25-44.77-77.79-35.23-30.54-84-30.54-48.79 0-85.83 30.54t-45.4 77.79h-47Zm41.33-85q20.33-26.33 49-43.16 28.67-16.84 64.67-20.48V-808H191v613.33Zm155-64.71q35.33 2.05 65.17 20.71Q441-220 460-190.67V-808H346v548.62Zm155.33 66.71Q521-220.33 550-239q29-18.67 65-21.33V-808H501.33v615.33ZM770-194v-614H656.33v549.75q34 3.58 63.83 20.89Q749.98-220.05 770-194ZM304.67-808H191h113.67ZM460-808H346h114Zm155 0H501.33 615Zm155 0H656.33 770Zm-268.67 0H460h41.33Z"/></svg>