<svg xmlns="http://www.w3.org/2000/svg" height="20" viewBox="0 -960 960 960" width="20"><path d="M131.62-83.62V-798H84v-78h792v78h-46.62v714.38h-95.84q-3.39-42.3-33.77-69.96-30.38-27.65-73.39-27.65-41.53 0-73.07 27.65-31.54 27.66-34.3 69.96h-76.39q-4.77-42.3-34.69-69.96-29.92-27.65-73.31-27.65-41.93 0-72.85 27.65-30.92 27.66-34.31 69.96h-95.84Zm78-125.38q16.53-16 34.88-28.77t41.73-16.86V-798h-76.61v589Zm154.61-48.77q21.77 2.23 41.84 12.21 20.08 9.97 34.93 24.64V-798h-76.77v540.23ZM520-221.31q15.15-14.15 34.38-24.69 19.24-10.54 41.01-12.77V-798H520v576.69Zm231.38 11.7V-798h-77v543.37q22 4.09 41.73 16.36 19.72 12.27 35.27 28.66ZM286.23-798h-76.61 76.61ZM441-798h-76.77H441Zm154.39 0H520h75.39Zm155.99 0h-77 77ZM520-798h-79 79Z"/></svg>