<svg xmlns="http://www.w3.org/2000/svg" height="24" viewBox="0 -960 960 960" width="24"><path d="M127.23-87.23V-806H88v-66h784v66h-38.23v718.77h-71.69q-4.77-47.62-40.12-78.92-35.34-31.31-84.19-31.31-48.08 0-83.15 31.31-35.08 31.3-39.85 78.92h-68.54q-6.54-47.62-40.35-78.92-33.8-31.31-82.65-31.31-48.85 0-84.19 31.31-35.35 31.3-40.12 78.92h-71.69Zm66-123.77q18.08-20 41.77-33.54 23.69-13.54 52.46-16.92V-806h-94.23v595Zm160.23-51.54q28.54 2.46 53.39 17.04 24.84 14.58 41.15 36.65V-806h-94.54v543.46ZM514-210.62q16.31-21.3 40.77-35.88 24.46-14.58 53-17.04V-806H514v595.38Zm253.77-.61V-806h-94v544.54q27 3.38 51.95 16.61 24.95 13.23 42.05 33.62ZM287.46-806h-94.23 94.23ZM448-806H353.46 448Zm159.77 0H514h93.77Zm160 0h-94 94ZM514-806h-66 66Z"/></svg>