<svg xmlns="http://www.w3.org/2000/svg" height="40" viewBox="0 -960 960 960" width="40"><path d="M118.28-78.28v-735.46H78.67v-67.59h802.66v67.59h-38.61v735.46h-78.64q-7.75-44.79-42.27-74.31-34.52-29.51-81.36-29.51-47.17 0-81.53 29.64t-41.66 74.18h-73.52q-8.72-44.79-42.51-74.31-33.79-29.51-80.63-29.51-46.89 0-81.74 29.51-34.86 29.52-42.6 74.31h-77.98Zm67.59-115.36q19.1-20.39 43.26-34.24 24.15-13.86 54-18.81v-567.05h-97.26v620.1Zm164.85-54.12q28.56 3.35 53.17 16.58 24.6 13.23 42.98 33.74v-616.3h-96.15v565.98Zm163.74 48.94q18.64-19.46 42.92-32.9 24.29-13.43 53.11-16.92v-565.1h-96.03v614.92Zm260.67 5.23v-620.15h-97.05v567.18q28.05 5.23 53.15 18.84 25.11 13.62 43.9 34.13Zm-492-620.15H185.87h97.26Zm163.74 0h-96.15 96.15Zm163.62 0h-96.03 96.03Zm164.64 0H678.08h97.05Zm-260.67 0h-67.59 67.59Z"/></svg>