<svg xmlns="http://www.w3.org/2000/svg" height="24" viewBox="0 -960 960 960" width="24"><path d="M129-90v-705H90v-75h780v75h-39v705h-87q-14.5-30-42.75-48.75T637.2-157.5q-36.7 0-64.95 18.75T529-90h-99.5q-14-30-42.5-48.75t-64.06-18.75q-36.44 0-64.94 18.75T215-90h-86Zm75-102.5q17.32-13.56 38.2-22.42 20.89-8.87 43.3-14.08v-566H204v602.5Zm156.5-36.51q23.5 5.01 44 14.76t38 24.25v-605h-82v565.99Zm157 37.51q17.45-14.68 37.97-23.59Q576-224 599-229.01V-795h-81.5v603.5Zm238.5 0V-795h-82v565.99q23 5.01 43.75 14.26T756-191.5ZM285.5-795H204h81.5Zm157 0h-82 82Zm156.5 0h-81.5H599Zm157 0h-82 82Zm-238.5 0h-75 75Z"/></svg>