<svg xmlns="http://www.w3.org/2000/svg" height="24" viewBox="0 -960 960 960" width="24"><path d="M146.89-107.69v-688.27h-38.81v-55.96h743.84v55.96h-38.81v688.27h-65.46q-14.69-33.08-45.39-53.85-30.7-20.77-69.1-20.77-39.2 0-69.37 20.77-30.18 20.77-45.18 53.85h-78.53q-14.39-33.08-44.63-53.85-30.23-20.77-68.47-20.77-39.33 0-70.13 20.77-30.81 20.77-45.5 53.85h-64.46Zm55.96-81.35q18.85-18.56 43.49-30.5 24.63-11.94 52.43-16.38v-560.04h-95.92v606.92Zm151.88-46.89q29.27 4.24 54.1 17.83 24.82 13.6 43.29 34.64v-612.5h-97.39v560.03Zm153.35 50.58q18.48-20.65 43.11-33.5 24.62-12.84 53.39-17.08v-560.03h-96.5v610.61Zm249.07-2.3v-608.31h-96.61v560.03q28.19 4.24 52.88 16.76 24.7 12.52 43.73 31.52ZM298.77-795.96h-95.92 95.92Zm153.35 0h-97.39 97.39Zm152.46 0h-96.5 96.5Zm152.57 0h-96.61 96.61Zm-249.07 0h-55.96 55.96Z"/></svg>