<svg xmlns="http://www.w3.org/2000/svg" height="48" viewBox="0 -960 960 960" width="48"><path d="M143.23-103.23v-709H104V-856h752v43.77h-38.23v709h-53.08q-9.81-45.68-45.97-75.26-36.15-29.59-83.8-29.59-47.92 0-83.46 29.77-35.54 29.77-45.08 75.08h-51.76q-10.58-45.68-45.72-75.26-35.13-29.59-82.78-29.59-47.69 0-84.34 29.59-36.66 29.58-46.47 75.26h-52.08ZM187-185.92q20.77-26.16 49.38-42.96 28.62-16.81 64.77-21.31v-562.04H187v626.31Zm157.92-65.34q34.93 2.57 64.31 20.22 29.39 17.66 49.39 45.66v-626.85h-113.7v560.97Zm157.46 64.11q20.77-26.23 49.39-44 28.61-17.77 64.31-21v-560.08h-113.7v625.08Zm271.62 2v-627.08H659.85v562.16q34.15 4.61 63.76 21.88 29.6 17.26 50.39 43.04ZM301.15-812.23H187h114.15Zm157.47 0h-113.7 113.7Zm157.46 0h-113.7 113.7Zm157.92 0H659.85 774Zm-271.62 0h-43.76 43.76Z"/></svg>