<svg xmlns="http://www.w3.org/2000/svg" height="20" viewBox="0 -960 960 960" width="20"><path d="M104.09-56.09v-732.87h-48v-114.95h847.82v114.95h-47v732.87H721.83q-.74-38.87-26.66-65.37-25.92-26.5-64.46-26.5-38.24 0-66.43 26.5-28.19 26.5-28.87 65.37H425.09q-1.18-38.87-27.96-65.37-26.79-26.5-65.73-26.5-38.01 0-64.46 26.5-26.46 26.5-27.2 65.37H104.09Zm114.95-170.35q11.61-7.6 21.59-15.69t22.89-11.84v-534.99h-44.48v562.52Zm159.44-31.21q11.07 2.36 22.4 6.07 11.33 3.72 21.08 8.45v-545.83h-43.48v531.31ZM537.91-242q10.66-4.45 21.11-9.05 10.46-4.6 21.94-7.04v-530.87h-43.05V-242Zm204.05 14v-560.96h-45.05v534.99q11.89 3.6 22.87 10.79Q730.76-236 741.96-228ZM263.52-788.96H219.04h44.48Zm158.44 0H378.48h43.48Zm159 0h-43.05 43.05Zm161 0h-45.05 45.05Zm-204.05 0H421.96h115.95Z"/></svg>