<svg xmlns="http://www.w3.org/2000/svg" height="40" viewBox="0 -960 960 960" width="40"><path d="M104.17-64.17v-743.51h-40v-88.52H896.2v88.52h-40v743.51H754.13q-8.79-39.24-39.75-65.5-30.96-26.26-72.76-26.26-42.84 0-74.06 26.39-31.23 26.38-39.89 65.37h-95.96q-8.58-39.24-39.45-65.5-30.86-26.26-72.87-26.26-43.06 0-73.83 26.26-30.77 26.26-39.56 65.5H104.17Zm88.15-130.89q16.09-15.23 35.69-26.61 19.6-11.37 42.13-16.17v-569.84h-77.82v612.62Zm166.35-44.22q22.3 4.06 41.76 13.15 19.45 9.09 35.5 22.83v-604.38h-77.26v568.4Zm165.4 36.11q15.93-13.77 35.26-22.96 19.32-9.19 41.71-12.42v-569.13h-76.97v604.51Zm243.61 7.98v-612.49h-78.49v570.01q22.76 4.64 42.58 15.73 19.82 11.08 35.91 26.75ZM270.14-807.68h-77.82 77.82Zm165.79 0h-77.26 77.26Zm165.11 0h-76.97 76.97Zm166.64 0H689.19h78.49Zm-243.61 0h-88.14 88.14Z"/></svg>