<svg xmlns="http://www.w3.org/2000/svg" height="20" viewBox="0 -960 960 960" width="20"><path d="M183.23-135.23V-792H136v-32h688v32h-47.23v656.77h-45.69q-12.77-36.62-44.58-58.92-31.81-22.31-71.73-22.31-39.08 0-70.65 22.31-31.58 22.3-43.73 58.92h-41.16q-12.54-36.62-43.11-58.92-30.57-22.31-70.89-22.31-39.85 0-72.19 22.31-32.35 22.3-45.12 58.92h-44.69Zm32-47.77q20.08-24 46.77-41.54 26.69-17.54 59.46-20.94V-792H215.23v609Zm138.23-64.54q33.54 2.46 62.04 18.98 28.49 16.51 47.5 42.71V-792H353.46v544.46ZM496-186.62q19.31-25.3 46.77-41.88 27.46-16.58 61-19.04V-792H496v605.38Zm248.77 5.39V-792h-108v546.52q33 3.4 60.46 21.33 27.46 17.92 47.54 42.92ZM321.46-792H215.23h106.23ZM463-792H353.46 463Zm140.77 0H496h107.77Zm141 0h-108 108ZM496-792h-33 33Z"/></svg>