<svg xmlns="http://www.w3.org/2000/svg" height="24" viewBox="0 -960 960 960" width="24"><path d="M111.87-71.87v-725.26h-40v-91h816.26v91h-40v725.26h-96.96q-10.6-35.72-40.65-59.17-30.04-23.46-69.69-23.46-40.63 0-70.66 23.46-30.02 23.45-40.87 59.17h-99.6q-9.85-35.72-40.13-59.17-30.29-23.46-69.93-23.46-40.64 0-70.68 23.46-30.05 23.45-40.66 59.17h-96.43Zm91-136.5q15.33-11.09 33.2-18.75 17.86-7.66 37.23-12.18v-557.83h-70.43v588.76Zm161.43-31.41q20.13 4.52 37.62 12.2 17.49 7.69 32.58 19.54v-589.09h-70.2v557.35Zm161.2 31.21q15.09-11.84 32.58-19.15 17.49-7.3 37.62-11.82v-557.59h-70.2v588.56Zm231.63.72v-589.28H686.7v557.83q20.11 4.45 37.61 12.03 17.49 7.57 32.82 19.42ZM273.3-797.13h-70.43 70.43Zm161.2 0H364.3h70.2Zm161.2 0H525.5h70.2Zm161.43 0H686.7h70.43Zm-231.63 0h-91 91Z"/></svg>