<svg xmlns="http://www.w3.org/2000/svg" height="24" viewBox="0 -960 960 960" width="24"><path d="M120.87-81.87v-710.26h-39v-86h796.26v86h-39v710.26h-98.96q-12.1-30.72-39.4-50.42Q673.48-152 638.03-152q-36.33 0-64.11 19.71-27.77 19.7-40.62 50.42H425.2q-11.85-30.72-39.63-50.42Q357.78-152 322.58-152q-36.08 0-63.62 19.71-27.55 19.7-39.66 50.42h-98.43Zm86-119q15.64-11.64 33.9-19.67 18.25-8.03 38.03-12.76v-558.83h-71.93v591.26Zm157.93-32.92q20.63 4.53 38.62 12.96 17.99 8.44 33.58 20.79v-592.09h-72.2v558.34ZM523-201.07q15.53-12.52 33.55-20.24 18.02-7.71 38.15-12.24v-558.58H523v591.06Zm230.13.72v-591.78H680.7v558.82q20.11 4.46 38.36 12.79 18.24 8.32 34.07 20.17ZM278.8-792.13h-71.93 71.93Zm158.2 0H364.8 437Zm157.7 0H523h71.7Zm158.43 0H680.7h72.43Zm-230.13 0h-86 86Z"/></svg>