<svg xmlns="http://www.w3.org/2000/svg" version="1.1" width="3300" height="2000"><g id="Notes"><style>
    text {
      font-family: monospace;
      text-anchor: middle;
    }
    text.emphasis {
      font-weight:bold;
    }
    text.lanchor {
      text-anchor: start;
    }
  </style><rect height="2200" id="artboard" fill="white" width="3300" x="0" y="0"/><line id="" style="fill:none;stroke:black;stroke-width:0.5;" x1="263" x2="3036" y1="292" y2="292"/><text class="lanchor emphasis" transform="matrix(1 0 0 1 263 322)">Weight/Scale Variations</text><text transform="matrix(1 0 0 1 559.711 322)">Ultralight</text><text transform="matrix(1 0 0 1 856.422 322)">Thin</text><text transform="matrix(1 0 0 1 1153.13 322)">Light</text><text transform="matrix(1 0 0 1 1449.84 322)">Regular</text><text transform="matrix(1 0 0 1 1746.56 322)">Medium</text><text transform="matrix(1 0 0 1 2043.27 322)">Semibold</text><text transform="matrix(1 0 0 1 2339.98 322)">Bold</text><text transform="matrix(1 0 0 1 2636.69 322)">Heavy</text><text transform="matrix(1 0 0 1 2933.4 322)">Black</text><text id="template-version" style="text-anchor: end;" transform="matrix(1 0 0 1 3036 1933)">Template v.1.0</text><text class="lanchor" transform="matrix(1 0 0 1 263 726)">Small</text><text class="lanchor" transform="matrix(1 0 0 1 263 1156)">Medium</text><text class="lanchor" transform="matrix(1 0 0 1 263 1586)">Large</text></g><g id="Guides"><g id="H-reference" style="fill:#27AAE1;stroke:none;" transform="matrix(1 0 0 1 339 696)"><path d="M 54.9316 0 L 57.666 0 L 30.5664 -70.459 L 28.0762 -70.459 L 0.976562 0 L 3.66211 0 L 12.9395 -24.4629 L 45.7031 -24.4629 Z M 29.1992 -67.0898 L 29.4434 -67.0898 L 44.8242 -26.709 L 13.8184 -26.709 Z"/></g><line id="Baseline-S" style="fill:none;stroke:#27AAE1;opacity:1;stroke-width:0.577;" x1="263" x2="3036" y1="696" y2="696"/><line id="Capline-S" style="fill:none;stroke:#27AAE1;opacity:1;stroke-width:0.577;" x1="263" x2="3036" y1="625.541" y2="625.541"/><g id="H-reference" style="fill:#27AAE1;stroke:none;" transform="matrix(1 0 0 1 339 1126)"><path d="M 54.9316 0 L 57.666 0 L 30.5664 -70.459 L 28.0762 -70.459 L 0.976562 0 L 3.66211 0 L 12.9395 -24.4629 L 45.7031 -24.4629 Z M 29.1992 -67.0898 L 29.4434 -67.0898 L 44.8242 -26.709 L 13.8184 -26.709 Z"/></g><line id="Baseline-M" style="fill:none;stroke:#27AAE1;opacity:1;stroke-width:0.577;" x1="263" x2="3036" y1="1126" y2="1126"/><line id="Capline-M" style="fill:none;stroke:#27AAE1;opacity:1;stroke-width:0.577;" x1="263" x2="3036" y1="1055.54" y2="1055.54"/><g id="H-reference" style="fill:#27AAE1;stroke:none;" transform="matrix(1 0 0 1 339 1556)"><path d="M 54.9316 0 L 57.666 0 L 30.5664 -70.459 L 28.0762 -70.459 L 0.976562 0 L 3.66211 0 L 12.9395 -24.4629 L 45.7031 -24.4629 Z M 29.1992 -67.0898 L 29.4434 -67.0898 L 44.8242 -26.709 L 13.8184 -26.709 Z"/></g><line id="Baseline-L" style="fill:none;stroke:#27AAE1;opacity:1;stroke-width:0.577;" x1="263" x2="3036" y1="1556" y2="1556"/><line id="Capline-L" style="fill:none;stroke:#27AAE1;opacity:1;stroke-width:0.577;" x1="263" x2="3036" y1="1485.54" y2="1485.54"/><rect height="119.336" id="left-margin" style="fill:darkred;stroke:none;opacity:0.4;" width="12.4512" x="1394.06" y="1030.79"/><rect height="119.336" id="right-margin" style="fill:darkgreen;stroke:none;opacity:0.4;" width="12.4512" x="1502.5112" y="1030.79"/><rect x="1406.5112" y="1045" width="96" height="96" fill="none" stroke="blue" stroke-dasharray="5"/><rect x="1394.06" y="1030.79" width="120.9024" height="119.336" fill="none" stroke="blue"/></g><g id="Symbols"><g id="Bold-L" transform="matrix(1 0 0 1 2266 1556)"><path d="M24.429 0.245 Q18.299 0.245 13.987 -4.117 Q9.675 -8.479 9.675 -14.63 V-55.991 Q9.675 -62.143 13.987 -66.504 Q18.299 -70.866 24.429 -70.866 H130.371 Q136.567 -70.866 140.928 -66.504 Q145.286 -62.143 145.286 -55.991 V-14.63 Q145.286 -8.479 140.928 -4.117 Q136.567 0.245 130.371 0.245 H24.429 Z M24.429 -14.671 H130.371 Q130.371 -14.671 130.371 -14.671 Q130.371 -14.671 130.371 -14.671 V-55.951 Q130.371 -55.951 130.371 -55.951 Q130.371 -55.951 130.371 -55.951 H24.429 Q24.429 -55.951 24.429 -55.951 Q24.429 -55.951 24.429 -55.951 V-14.671 Q24.429 -14.671 24.429 -14.671 Q24.429 -14.671 24.429 -14.671 Z"/></g><g id="Semibold-L" transform="matrix(1 0 0 1 1970.27 1556)"><path d="M23.799 -1.508 Q18.723 -1.508 15.075 -5.184 Q11.428 -8.861 11.428 -13.93 V-56.621 Q11.428 -61.69 15.075 -65.366 Q18.723 -69.044 23.799 -69.044 H131.001 Q136.114 -69.044 139.789 -65.366 Q143.464 -61.69 143.464 -56.621 V-13.93 Q143.464 -8.861 139.789 -5.184 Q136.114 -1.508 131.001 -1.508 H23.799 Z M23.799 -13.969 H131.001 Q131.001 -13.969 131.001 -13.969 Q131.001 -13.969 131.001 -13.969 V-56.581 Q131.001 -56.581 131.001 -56.581 Q131.001 -56.581 131.001 -56.581 H23.799 Q23.799 -56.581 23.799 -56.581 Q23.799 -56.581 23.799 -56.581 V-13.969 Q23.799 -13.969 23.799 -13.969 Q23.799 -13.969 23.799 -13.969 Z"/></g><g id="Medium-L" transform="matrix(1 0 0 1 1674.31 1556)"><path d="M23.325 -2.822 Q19.04 -2.822 15.891 -5.986 Q12.742 -9.149 12.742 -13.405 V-57.094 Q12.742 -61.349 15.891 -64.513 Q19.04 -67.677 23.325 -67.677 H131.475 Q135.774 -67.677 138.936 -64.513 Q142.097 -61.349 142.097 -57.094 V-13.405 Q142.097 -9.149 138.936 -5.986 Q135.774 -2.822 131.475 -2.822 H23.325 Z M23.325 -13.444 H131.475 Q131.475 -13.444 131.475 -13.444 Q131.475 -13.444 131.475 -13.444 V-57.055 Q131.475 -57.055 131.475 -57.055 Q131.475 -57.055 131.475 -57.055 H23.325 Q23.325 -57.055 23.325 -57.055 Q23.325 -57.055 23.325 -57.055 V-13.444 Q23.325 -13.444 23.325 -13.444 Q23.325 -13.444 23.325 -13.444 Z"/></g><g id="Regular-L" transform="matrix(1 0 0 1 1378.56 1556)"><path d="M22.978 -3.786 Q19.274 -3.786 16.491 -6.573 Q13.706 -9.359 13.706 -13.018 V-57.442 Q13.706 -61.101 16.491 -63.887 Q19.274 -66.674 22.978 -66.674 H131.822 Q135.526 -66.674 138.309 -63.887 Q141.094 -61.101 141.094 -57.442 V-13.018 Q141.094 -9.359 138.309 -6.573 Q135.526 -3.786 131.822 -3.786 H22.978 Z M22.978 -13.058 H131.822 Q131.822 -13.058 131.822 -13.058 Q131.822 -13.058 131.822 -13.058 V-57.402 Q131.822 -57.402 131.822 -57.402 Q131.822 -57.402 131.822 -57.402 H22.978 Q22.978 -57.402 22.978 -57.402 Q22.978 -57.402 22.978 -57.402 V-13.058 Q22.978 -13.058 22.978 -13.058 Q22.978 -13.058 22.978 -13.058 Z"/></g><g id="Light-L" transform="matrix(1 0 0 1 1082.77 1556)"><path d="M25.663 -6.702 Q22.017 -6.702 19.319 -9.403 Q16.622 -12.102 16.622 -15.725 V-54.735 Q16.622 -58.358 19.319 -61.057 Q22.017 -63.758 25.663 -63.758 H129.137 Q132.783 -63.758 135.481 -61.057 Q138.178 -58.358 138.178 -54.735 V-15.725 Q138.178 -12.102 135.481 -9.403 Q132.783 -6.702 129.137 -6.702 H25.663 Z M25.676 -13.771 H129.124 Q129.992 -13.771 130.55 -14.33 Q131.109 -14.888 131.109 -15.756 V-54.704 Q131.109 -55.572 130.55 -56.13 Q129.992 -56.689 129.124 -56.689 H25.676 Q24.808 -56.689 24.25 -56.13 Q23.691 -55.572 23.691 -54.704 V-15.756 Q23.691 -14.888 24.25 -14.33 Q24.808 -13.771 25.676 -13.771 Z"/></g><g id="Thin-L" transform="matrix(1 0 0 1 787.282 1556)"><path d="M28.346 -9.615 Q24.76 -9.615 22.148 -12.231 Q19.535 -14.845 19.535 -18.433 V-52.027 Q19.535 -55.615 22.148 -58.229 Q24.76 -60.845 28.346 -60.845 H126.454 Q130.04 -60.845 132.652 -58.229 Q135.265 -55.615 135.265 -52.027 V-18.433 Q135.265 -14.845 132.652 -12.231 Q130.04 -9.615 126.454 -9.615 H28.346 Z M28.374 -14.485 H126.426 Q128.163 -14.485 129.279 -15.601 Q130.395 -16.717 130.395 -18.454 V-52.006 Q130.395 -53.743 129.279 -54.859 Q128.163 -55.975 126.426 -55.975 H28.374 Q26.637 -55.975 25.521 -54.859 Q24.405 -53.743 24.405 -52.006 V-18.454 Q24.405 -16.717 25.521 -15.601 Q26.637 -14.485 28.374 -14.485 Z"/></g><g id="Ultralight-L" transform="matrix(1 0 0 1 491.205 1556)"><path d="M29.957 -11.365 Q26.406 -11.365 23.846 -13.927 Q21.285 -16.491 21.285 -20.056 V-50.404 Q21.285 -53.969 23.846 -56.533 Q26.406 -59.095 29.957 -59.095 H124.843 Q128.394 -59.095 130.954 -56.533 Q133.515 -53.969 133.515 -50.404 V-20.056 Q133.515 -16.491 130.954 -13.927 Q128.394 -11.365 124.843 -11.365 H29.957 Z M29.992 -14.912 H124.808 Q127.065 -14.912 128.516 -16.364 Q129.968 -17.815 129.968 -20.072 V-50.387 Q129.968 -52.645 128.516 -54.096 Q127.065 -55.547 124.808 -55.547 H29.992 Q27.735 -55.547 26.284 -54.096 Q24.832 -52.645 24.832 -50.387 V-20.072 Q24.832 -17.815 26.284 -16.364 Q27.735 -14.912 29.992 -14.912 Z"/></g><g id="Bold-M" transform="matrix(1 0 0 1 2281.8 1126)"><path d="M22.125 -7.355 Q15.758 -7.355 11.379 -11.734 Q7 -16.112 7 -22.48 V-48.105 Q7 -54.472 11.379 -58.851 Q15.758 -63.23 22.125 -63.23 H97.875 Q104.243 -63.23 108.621 -58.851 Q113 -54.472 113 -48.105 V-22.48 Q113 -16.112 108.621 -11.734 Q104.243 -7.355 97.875 -7.355 H22.125 Z M22.125 -22.48 H97.875 Q97.875 -22.48 97.875 -22.48 Q97.875 -22.48 97.875 -22.48 V-48.105 Q97.875 -48.105 97.875 -48.105 Q97.875 -48.105 97.875 -48.105 H22.125 Q22.125 -48.105 22.125 -48.105 Q22.125 -48.105 22.125 -48.105 V-22.48 Q22.125 -22.48 22.125 -22.48 Q22.125 -22.48 22.125 -22.48 Z"/></g><g id="Semibold-M" transform="matrix(1 0 0 1 1985.97 1126)"><path d="M21.473 -9.149 Q16.192 -9.149 12.52 -12.821 Q8.848 -16.494 8.848 -21.774 V-48.757 Q8.848 -54.037 12.52 -57.71 Q16.192 -61.382 21.473 -61.382 H98.528 Q103.808 -61.382 107.48 -57.71 Q111.153 -54.037 111.153 -48.757 V-21.774 Q111.153 -16.494 107.48 -12.821 Q103.808 -9.149 98.528 -9.149 H21.473 Z M21.473 -21.774 H98.528 Q98.528 -21.774 98.528 -21.774 Q98.528 -21.774 98.528 -21.774 V-48.757 Q98.528 -48.757 98.528 -48.757 Q98.528 -48.757 98.528 -48.757 H21.473 Q21.473 -48.757 21.473 -48.757 Q21.473 -48.757 21.473 -48.757 V-21.774 Q21.473 -21.774 21.473 -21.774 Q21.473 -21.774 21.473 -21.774 Z"/></g><g id="Medium-M" transform="matrix(1 0 0 1 1689.91 1126)"><path d="M20.984 -10.494 Q16.519 -10.494 13.376 -13.636 Q10.234 -16.779 10.234 -21.244 V-49.246 Q10.234 -53.711 13.376 -56.854 Q16.519 -59.996 20.984 -59.996 H99.016 Q103.481 -59.996 106.624 -56.854 Q109.766 -53.711 109.766 -49.246 V-21.244 Q109.766 -16.779 106.624 -13.636 Q103.481 -10.494 99.016 -10.494 H20.984 Z M20.984 -21.244 H99.016 Q99.016 -21.244 99.016 -21.244 Q99.016 -21.244 99.016 -21.244 V-49.246 Q99.016 -49.246 99.016 -49.246 Q99.016 -49.246 99.016 -49.246 H20.984 Q20.984 -49.246 20.984 -49.246 Q20.984 -49.246 20.984 -49.246 V-21.244 Q20.984 -21.244 20.984 -21.244 Q20.984 -21.244 20.984 -21.244 Z"/></g><g id="Regular-M" transform="matrix(1 0 0 1 1394.06 1126)"><path d="M20.625 -11.48 Q16.758 -11.48 14.004 -14.234 Q11.25 -16.987 11.25 -20.855 V-49.605 Q11.25 -53.472 14.004 -56.226 Q16.758 -58.98 20.625 -58.98 H99.375 Q103.243 -58.98 105.996 -56.226 Q108.75 -53.472 108.75 -49.605 V-20.855 Q108.75 -16.987 105.996 -14.234 Q103.243 -11.48 99.375 -11.48 H20.625 Z M20.625 -20.855 H99.375 Q99.375 -20.855 99.375 -20.855 Q99.375 -20.855 99.375 -20.855 V-49.605 Q99.375 -49.605 99.375 -49.605 Q99.375 -49.605 99.375 -49.605 H20.625 Q20.625 -49.605 20.625 -49.605 Q20.625 -49.605 20.625 -49.605 V-20.855 Q20.625 -20.855 20.625 -20.855 Q20.625 -20.855 20.625 -20.855 Z"/></g><g id="Light-M" transform="matrix(1 0 0 1 1098.18 1126)"><path d="M22.032 -13.74 Q18.489 -13.74 15.999 -16.229 Q13.51 -18.719 13.51 -22.28 V-48.18 Q13.51 -51.741 15.999 -54.231 Q18.489 -56.72 22.032 -56.72 H97.968 Q101.511 -56.72 104.001 -54.231 Q106.49 -51.741 106.49 -48.18 V-22.28 Q106.49 -18.719 104.001 -16.229 Q101.511 -13.74 97.968 -13.74 H22.032 Z M22.044 -20.735 H97.956 Q98.63 -20.735 99.062 -21.167 Q99.495 -21.6 99.495 -22.274 V-48.186 Q99.495 -48.86 99.062 -49.292 Q98.63 -49.725 97.956 -49.725 H22.044 Q21.37 -49.725 20.938 -49.292 Q20.505 -48.86 20.505 -48.186 V-22.274 Q20.505 -21.6 20.938 -21.167 Q21.37 -20.735 22.044 -20.735 Z"/></g><g id="Thin-M" transform="matrix(1 0 0 1 802.565 1126)"><path d="M23.44 -15.999 Q20.219 -15.999 17.994 -18.224 Q15.769 -20.449 15.769 -23.706 V-46.754 Q15.769 -50.011 17.994 -52.236 Q20.219 -54.461 23.44 -54.461 H96.56 Q99.781 -54.461 102.006 -52.236 Q104.231 -50.011 104.231 -46.754 V-23.706 Q104.231 -20.449 102.006 -18.224 Q99.781 -15.999 96.56 -15.999 H23.44 Z M23.461 -20.615 H96.539 Q97.885 -20.615 98.75 -21.48 Q99.615 -22.345 99.615 -23.691 V-46.769 Q99.615 -48.115 98.75 -48.98 Q97.885 -49.845 96.539 -49.845 H23.461 Q22.115 -49.845 21.25 -48.98 Q20.385 -48.115 20.385 -46.769 V-23.691 Q20.385 -22.345 21.25 -21.48 Q22.115 -20.615 23.461 -20.615 Z"/></g><g id="Ultralight-M" transform="matrix(1 0 0 1 506.415 1126)"><path d="M24.285 -17.355 Q21.258 -17.355 19.191 -19.421 Q17.125 -21.487 17.125 -24.561 V-45.899 Q17.125 -48.972 19.191 -51.039 Q21.258 -53.105 24.285 -53.105 H95.715 Q98.743 -53.105 100.809 -51.039 Q102.875 -48.972 102.875 -45.899 V-24.561 Q102.875 -21.487 100.809 -19.421 Q98.743 -17.355 95.715 -17.355 H24.285 Z M24.312 -20.542 H95.688 Q97.438 -20.542 98.562 -21.667 Q99.688 -22.792 99.688 -24.542 V-45.917 Q99.688 -47.667 98.562 -48.792 Q97.438 -49.917 95.688 -49.917 H24.312 Q22.562 -49.917 21.438 -48.792 Q20.312 -47.667 20.312 -45.917 V-24.542 Q20.312 -22.792 21.438 -21.667 Q22.562 -20.542 24.312 -20.542 Z"/></g><g id="Bold-S" transform="matrix(1 0 0 1 2294.23 696)"><path d="M18.246 -14.026 Q13.547 -14.026 10.324 -17.249 Q7.101 -20.472 7.101 -25.17 V-45.388 Q7.101 -50.087 10.324 -53.31 Q13.547 -56.533 18.246 -56.533 H76.434 Q81.133 -56.533 84.356 -53.31 Q87.579 -50.087 87.579 -45.388 V-25.17 Q87.579 -20.472 84.356 -17.249 Q81.133 -14.026 76.434 -14.026 H18.246 Z M18.246 -25.17 H76.434 Q76.434 -25.17 76.434 -25.17 Q76.434 -25.17 76.434 -25.17 V-45.388 Q76.434 -45.388 76.434 -45.388 Q76.434 -45.388 76.434 -45.388 H18.246 Q18.246 -45.388 18.246 -45.388 Q18.246 -45.388 18.246 -45.388 V-25.17 Q18.246 -25.17 18.246 -25.17 Q18.246 -25.17 18.246 -25.17 Z"/></g><g id="Semibold-S" transform="matrix(1 0 0 1 1998.1 696)"><path d="M17.731 -15.441 Q13.89 -15.441 11.225 -18.107 Q8.559 -20.773 8.559 -24.613 V-45.903 Q8.559 -49.744 11.225 -52.409 Q13.89 -55.075 17.731 -55.075 H76.949 Q80.79 -55.075 83.455 -52.409 Q86.121 -49.744 86.121 -45.903 V-24.613 Q86.121 -20.773 83.455 -18.107 Q80.79 -15.441 76.949 -15.441 H17.731 Z M17.731 -24.613 H76.949 Q76.949 -24.613 76.949 -24.613 Q76.949 -24.613 76.949 -24.613 V-45.903 Q76.949 -45.903 76.949 -45.903 Q76.949 -45.903 76.949 -45.903 H17.731 Q17.731 -45.903 17.731 -45.903 Q17.731 -45.903 17.731 -45.903 V-24.613 Q17.731 -24.613 17.731 -24.613 Q17.731 -24.613 17.731 -24.613 Z"/></g><g id="Medium-S" transform="matrix(1 0 0 1 1701.85 696)"><path d="M17.345 -16.502 Q14.148 -16.502 11.9 -18.75 Q9.652 -20.997 9.652 -24.195 V-46.289 Q9.652 -49.486 11.9 -51.734 Q14.148 -53.982 17.345 -53.982 H77.335 Q80.532 -53.982 82.78 -51.734 Q85.028 -49.486 85.028 -46.289 V-24.195 Q85.028 -20.997 82.78 -18.75 Q80.532 -16.502 77.335 -16.502 H17.345 Z M17.345 -24.195 H77.335 Q77.335 -24.195 77.335 -24.195 Q77.335 -24.195 77.335 -24.195 V-46.289 Q77.335 -46.289 77.335 -46.289 Q77.335 -46.289 77.335 -46.289 H17.345 Q17.345 -46.289 17.345 -46.289 Q17.345 -46.289 17.345 -46.289 V-24.195 Q17.345 -24.195 17.345 -24.195 Q17.345 -24.195 17.345 -24.195 Z"/></g><g id="Regular-S" transform="matrix(1 0 0 1 1405.73 696)"><path d="M17.062 -17.28 Q14.336 -17.28 12.395 -19.221 Q10.454 -21.162 10.454 -23.888 V-46.572 Q10.454 -49.298 12.395 -51.239 Q14.336 -53.18 17.062 -53.18 H77.618 Q80.344 -53.18 82.285 -51.239 Q84.226 -49.298 84.226 -46.572 V-23.888 Q84.226 -21.162 82.285 -19.221 Q80.344 -17.28 77.618 -17.28 H17.062 Z M17.062 -23.888 H77.618 Q77.618 -23.888 77.618 -23.888 Q77.618 -23.888 77.618 -23.888 V-46.572 Q77.618 -46.572 77.618 -46.572 Q77.618 -46.572 77.618 -46.572 H17.062 Q17.062 -46.572 17.062 -46.572 Q17.062 -46.572 17.062 -46.572 V-23.888 Q17.062 -23.888 17.062 -23.888 Q17.062 -23.888 17.062 -23.888 Z"/></g><g id="Light-S" transform="matrix(1 0 0 1 1109.75 696)"><path d="M18.173 -19.063 Q15.702 -19.063 13.969 -20.795 Q12.237 -22.528 12.237 -25.012 V-45.448 Q12.237 -47.932 13.969 -49.665 Q15.702 -51.397 18.173 -51.397 H76.507 Q78.978 -51.397 80.711 -49.665 Q82.443 -47.932 82.443 -45.448 V-25.012 Q82.443 -22.528 80.711 -20.795 Q78.978 -19.063 76.507 -19.063 H18.173 Z M18.182 -23.793 H76.498 Q77.03 -23.793 77.371 -24.135 Q77.713 -24.476 77.713 -25.008 V-45.452 Q77.713 -45.984 77.371 -46.325 Q77.03 -46.667 76.498 -46.667 H18.182 Q17.65 -46.667 17.309 -46.325 Q16.967 -45.984 16.967 -45.452 V-25.008 Q16.967 -24.476 17.309 -24.135 Q17.65 -23.793 18.182 -23.793 Z"/></g><g id="Thin-S" transform="matrix(1 0 0 1 814.015 696)"><path d="M19.283 -20.846 Q17.067 -20.846 15.543 -22.369 Q14.02 -23.893 14.02 -26.138 V-44.322 Q14.02 -46.567 15.543 -48.091 Q17.067 -49.614 19.283 -49.614 H75.397 Q77.613 -49.614 79.137 -48.091 Q80.66 -46.567 80.66 -44.322 V-26.138 Q80.66 -23.893 79.137 -22.369 Q77.613 -20.846 75.397 -20.846 H19.283 Z M19.3 -23.699 H75.38 Q76.442 -23.699 77.125 -24.381 Q77.807 -25.064 77.807 -26.126 V-44.334 Q77.807 -45.396 77.125 -46.079 Q76.442 -46.761 75.38 -46.761 H19.3 Q18.238 -46.761 17.555 -46.079 Q16.873 -45.396 16.873 -44.334 V-26.126 Q16.873 -25.064 17.555 -24.381 Q18.238 -23.699 19.3 -23.699 Z"/></g><g id="Ultralight-S" transform="matrix(1 0 0 1 517.792 696)"><path d="M19.95 -21.916 Q17.887 -21.916 16.488 -23.314 Q15.09 -24.713 15.09 -26.812 V-43.648 Q15.09 -45.747 16.488 -47.146 Q17.887 -48.544 19.95 -48.544 H74.73 Q76.793 -48.544 78.192 -47.146 Q79.59 -45.747 79.59 -43.648 V-26.812 Q79.59 -24.713 78.192 -23.314 Q76.793 -21.916 74.73 -21.916 H19.95 Z M19.972 -23.642 H74.708 Q76.089 -23.642 76.977 -24.529 Q77.864 -25.417 77.864 -26.798 V-43.662 Q77.864 -45.043 76.977 -45.931 Q76.089 -46.818 74.708 -46.818 H19.972 Q18.591 -46.818 17.703 -45.931 Q16.816 -45.043 16.816 -43.662 V-26.798 Q16.816 -25.417 17.703 -24.529 Q18.591 -23.642 19.972 -23.642 Z"/></g></g></svg>