<svg xmlns="http://www.w3.org/2000/svg" height="40" viewBox="0 -960 960 960" width="40"><path d="M100-256.67v-91.83q63.83-48.5 100.75-78.67 36.92-30.16 55.92-52.16 15-17.67 22.91-39.34 7.92-21.66 7.92-44.5 0-30.66-14.5-43.41-14.5-12.75-39.5-12.75-22.67 0-37.17 12.08t-21.16 39.75l-89.84-8.17q5.5-52 40.67-92.41 35.17-40.42 108.33-40.42 70 0 109.42 33.75t39.42 100.08q0 39.34-12.84 72.84-12.83 33.5-35 62.66-20.5 28-49.83 51.09-29.33 23.08-58 43.75l1.33 2.16h168.5v85.5H100Zm383.5.17v-442.67H629q113.67 0 172.25 55.75t58.58 165.25q0 109.67-58.41 165.67-58.42 56-172.42 56H483.5Zm96.67-91.33h45.66q69.5 0 103.42-31.59 33.92-31.58 33.92-98.91 0-67.34-33.92-98.42t-103.42-31.08h-45.66v260Z"/></svg>