<svg xmlns="http://www.w3.org/2000/svg" height="24" viewBox="0 -960 960 960" width="24"><path d="M183.16-295.16v-53.38q44.84-35.23 78.69-64.42 33.84-29.19 54-55.81 15.54-20.77 25.69-43.81 10.15-23.03 10.15-47.11 0-29.54-16.5-46.12-16.5-16.57-43.42-16.57-25.92 0-41.69 16.65-15.77 16.65-19.62 44.42l-52.84-4.61q4.08-47.46 34.92-78.08 30.85-30.61 79.62-30.61 55.3 0 85.57 29.11Q408-616.38 408-564.54q0 35.85-13.81 67.08-13.8 31.23-35.8 59.08-21.85 28.69-46.7 49.73-24.84 21.03-51.54 41.5l1.24 1.84h153.15v50.15H183.16Zm303.69-.61v-370.61h124q86.23 0 131.76 49.11 45.54 49.12 45.54 136.5t-45.84 136.19q-45.85 48.81-131.46 48.81h-124Zm57.53-55.08h64q62.16 0 92.5-33.3 30.35-33.31 30.35-96.62t-30.35-96.92q-30.34-33.62-92.5-33.62h-64v260.46Z"/></svg>