<svg xmlns="http://www.w3.org/2000/svg" height="24" viewBox="0 -960 960 960" width="24"><path d="M137.06-276.11v-78.72q54.29-42.84 90.9-72.56 36.6-29.72 54.6-52.48 14-17.76 21.92-38.02 7.91-20.26 7.91-42.09 0-28.52-14.64-41.77Q283.11-615 257.78-615q-23.04 0-36.16 13.67-13.12 13.68-18.84 39.16l-76.87-6.22q5.98-50.39 38.63-86.58 32.66-36.18 93.74-36.18 64.87 0 100.15 31.56 35.29 31.57 35.29 92.2 0 36.72-13.14 68.07-13.15 31.36-34.41 59.86-21.78 29.53-47 48.35-25.21 18.83-53.97 39.83l1.47 2.21h158.46v72.96H137.06Zm348.68-.26v-405.54h134.28q100.7 0 153.7 51.8 53 51.81 53 150.85 0 98.54-53.26 150.72-53.26 52.17-153.44 52.17H485.74Zm82.56-79.13h48.5q66.18 0 97.15-29.63 30.96-29.63 30.96-94.13t-30.96-94.01q-30.97-29.51-97.15-29.51h-48.5v247.28Z"/></svg>