<svg xmlns="http://www.w3.org/2000/svg" height="48" viewBox="0 -960 960 960" width="48"><path d="M134.59-269.89v-76.15q55.43-42.96 91.29-72.32 35.86-29.36 55.86-52.6 15.76-19 25.38-42.12 9.62-23.12 9.62-49.88 0-31.76-15.5-45.88-15.5-14.12-43.5-14.12-25.28 0-40.76 14.88-15.48 14.88-20.48 42.12l-72.39-6.47q4-47.96 35.84-85.44 31.83-37.48 98.79-37.48 64.19 0 99.91 31.48t35.72 92.44q0 38.47-14 72.33t-36.24 62.86q-22 28.24-50.74 51.48-28.74 23.24-57.74 43.48l1 1h168.2v70.39H134.59Zm350.69 1v-418.46H623.2q101.91 0 155.6 53.72 53.7 53.72 53.7 155.63t-53.58 155.51q-53.57 53.6-155.72 53.6H485.28Zm77.63-74.63h58.29q66.47 0 99.95-33.24 33.48-33.24 33.48-101.36T721.15-579.6q-33.48-33.36-99.95-33.36h-58.29v269.44Z"/></svg>