<svg xmlns="http://www.w3.org/2000/svg" height="40" viewBox="0 -960 960 960" width="40"><path d="M224.18-312.28v-37.95q37.05-28.85 66.76-54.76 29.7-25.91 51.68-50.65 17.53-21.54 29.66-47.01 12.13-25.48 12.13-54.89 0-33.54-16.5-49.87t-47.45-16.33q-28.97 0-45.77 17.96-16.79 17.96-18.82 47.16l-33.31-4.23q1.34-38 26.5-66.21 25.17-28.22 72.32-28.22 46.65 0 72.04 25.59 25.4 25.59 25.4 70.61 0 34.85-14.03 65.72-14.02 30.87-36.17 57.72-21.21 26.23-48.35 49.29-27.14 23.07-52.19 41.32l-.36.24h153.2v34.51H224.18Zm259.56-.08v-338.13h113.03q73.51 0 112.37 46.41T748-481.38q0 76.79-39.05 122.91-39.05 46.11-112.18 46.11H483.74Zm34.05-34.26h79.03q58.31 0 87.83-36.51 29.53-36.51 29.53-98.25 0-61.75-29.53-98.04-29.52-36.3-87.83-36.3h-79.03v269.1Z"/></svg>