<svg xmlns="http://www.w3.org/2000/svg" height="20" viewBox="0 -960 960 960" width="20"><path d="M170.06-297.11v-71.72q50.29-39.84 83.4-67.56 33.1-27.72 46.1-41.48 14-14.76 20.92-34.02 6.91-19.26 6.91-40.09 0-26.52-11.64-37.77Q304.11-601 280.78-601q-20.04 0-32.66 11.17-12.62 11.18-18.34 35.66l-69.87-7.22q4.98-47.39 34.13-78.08 29.16-30.68 88.24-30.68 55.87 0 87.65 28.56 31.79 28.57 31.79 81.2 0 33.72-11.64 63.07-11.65 29.36-32.91 54.86-19.78 24.53-41.5 40.85-21.71 16.33-49.47 36.33l1.47 2.21h144.46v65.96H170.06Zm315.68.74v-366.54h120.28q91.7 0 139.2 46.3 47.5 46.31 47.5 136.35 0 89.54-47.76 136.72-47.76 47.17-138.94 47.17H485.74Zm73.56-72.13h44.5q61.18 0 87.65-26.13 26.46-26.13 26.46-85.63t-26.46-85.01q-26.47-25.51-87.65-25.51h-44.5v222.28Z"/></svg>