<svg xmlns="http://www.w3.org/2000/svg" height="40" viewBox="0 -960 960 960" width="40"><path d="M121.07-264.92v-80.3q59.84-46.27 96.23-76.88 36.4-30.6 55.74-54.43 15.17-18.67 23.17-40.91 8-22.25 8-44.52 0-29.76-15.13-44.38-15.12-14.62-39.63-14.62-23.28 0-38.55 13.76-15.28 13.77-21.02 41.08l-81.78-6.81q5.42-52.53 40.58-90.12 35.16-37.6 101.77-37.6 66.77 0 104.31 32.93 37.54 32.93 37.54 95.46 0 38.56-13.33 71.92-13.33 33.35-34.83 62.02-21.25 27.91-48.9 51.39-27.65 23.49-55.99 44.06l2.08 2.41h163.61v75.54H121.07Zm367.21.75v-427.82h141.31q107.89 0 163.78 54.38 55.9 54.38 55.9 159.61 0 105.23-55.61 159.53t-164.07 54.3H488.28Zm88.76-83.35h48.81q67.71 0 101.07-32.03 33.35-32.04 33.35-98.53 0-66.49-33.35-98.64-33.36-32.16-101.07-32.16h-48.81v261.36Z"/></svg>