<svg xmlns="http://www.w3.org/2000/svg" height="40" viewBox="0 -960 960 960" width="40"><path d="M226.44-313.69v-39.58q36.26-28.06 65.8-53.27 29.53-25.2 51.22-48.82 17.21-20.97 29.61-46 12.4-25.02 12.4-55.83 0-33.82-16.24-49.2-16.24-15.38-47.42-15.38-28.98 0-45.4 17.57-16.42 17.57-18.06 46.21L224.82-562q.83-36.31 24.87-65.06 24.04-28.75 72.82-28.75 46.03 0 71.42 25.28 25.39 25.27 25.39 70.3 0 34.56-13.88 65.15-13.89 30.59-36.26 56.94-21.42 26.28-48.49 48.86-27.06 22.59-52.11 40.56l-.64-.55h152.98v35.58H226.44Zm256.96-.3v-335.02h111.39q72.67 0 111.36 46.09 38.68 46.1 38.68 121.32 0 76.66-38.87 122.14-38.88 45.47-111.17 45.47H483.4Zm33.2-33.97h79.03q56.81 0 86.52-35.98 29.71-35.98 29.71-97.3t-29.71-97.3q-29.71-35.99-86.52-35.99H516.6v266.57Z"/></svg>