<svg xmlns="http://www.w3.org/2000/svg" height="40" viewBox="0 -960 960 960" width="40"><path d="M244.33-321.67V-351q33.67-26 61.34-50.83 27.66-24.84 50.33-49.5 18-22 30.67-48.17 12.66-26.17 12.66-56.5 0-34-16.5-50.83-16.5-16.84-47.83-16.84-29.67 0-47 18.5T269.33-557l-25-4q.34-35 24-61.33Q292-648.67 336-648.67q42.33 0 65.5 24.17t23.17 65.5q0 34-13.84 64.33Q397-464.33 375-438.33q-20.67 25-48 48.83t-51 41.17h-.67H425v26.66H244.33Zm239.34 0v-320.66H591q67.67 0 103.33 44.83Q730-552.67 730-482q0 71.33-35.67 115.83-35.66 44.5-103.33 44.5H483.67ZM508.33-347h83.34q56 0 84.83-37.67 28.83-37.66 28.83-97.33t-28.83-97q-28.83-37.33-84.83-37.33h-83.34V-347Z"/></svg>