<svg xmlns="http://www.w3.org/2000/svg" height="24" viewBox="0 -960 960 960" width="24"><path d="M179-100v-760h601v760H179Zm54-54h493v-652H233v652Zm103-142h288v-369H336v369Zm234-315v183H390v-183h180Zm-91.23 422q15.5 0 25.86-10.24Q515-209.49 515-224.81q0-15.52-10.12-26.36Q494.76-262 479.29-262 465-262 454-251.17q-11 10.84-11 26.36 0 15.32 10.73 25.57Q464.46-189 478.77-189Zm0-511q15.5 0 25.86-10.24Q515-720.49 515-735.81q0-15.52-10.12-25.86Q494.76-772 479.29-772 465-772 454-761.68t-11 26.11Q443-720 453.73-710t25.04 10Zm.23 220Z"/></svg>