<svg xmlns="http://www.w3.org/2000/svg" height="24" viewBox="0 -960 960 960" width="24"><path d="M187.69-108.08v-743.84h583.92v743.84H187.69Zm151.08-191.38h282.15v-361.96H338.77v361.96Zm226.19-306V-432H394.73v-173.46h170.23Zm-85.91 428.04q11.78 0 19.19-7.64 7.41-7.64 7.41-18.44 0-11.69-7.44-19.44-7.44-7.75-18.82-7.75-11.01 0-18.81 7.75-7.81 7.76-7.81 19.21 0 11.08 7.7 18.69 7.7 7.62 18.58 7.62Zm.44-552.85q11.63 0 19.09-7.64 7.46-7.63 7.46-18.43 0-11.7-7.51-19.45t-19-7.75q-10.95 0-18.66 7.76-7.72 7.75-7.72 19.21 0 11.08 7.81 18.69 7.8 7.61 18.53 7.61Z"/></svg>