<svg xmlns="http://www.w3.org/2000/svg" height="40" viewBox="0 -960 960 960" width="40"><path d="M130.67-50.67V-910H830v859.33H130.67ZM300-261h360.33v-440.33H300V-261Zm254.67-334v146h-149v-146h149Zm-73.71 471q12.98 0 22.68-9.88 9.69-9.88 9.69-23.17 0-12.8-9.47-21.71-9.48-8.91-23.19-8.91-13.34 0-22.67 9.02-9.33 9.02-9.33 21.76 0 13.22 9.12 23.06 9.12 9.83 23.17 9.83Zm-.33-649.67q13.13 0 22.91-10.04 9.79-10.05 9.79-22.11 0-15.4-9.47-23.96-9.48-8.55-23.19-8.55-13.34 0-22.67 8.66-9.33 8.67-9.33 24 0 12 9.28 22 9.29 10 22.68 10Z"/></svg>