<svg xmlns="http://www.w3.org/2000/svg" height="20" viewBox="0 -960 960 960" width="20"><path d="M160-64v-832h640v832H160Zm98-98h444v-636H258v636Zm57-104h330v-428H315v428Zm232-330v156H413v-156h134Zm-67.23 416q15.23 0 24.73-9.7T514-214q0-15.33-9.33-24.67-9.34-9.33-24.59-9.33-14.08 0-24.08 9.33-10 9.34-10 24.59 0 15.08 10.13 24.58 10.13 9.5 23.64 9.5Zm0-532q15.23 0 24.73-9.7T514-746q0-15.33-9.33-24.67-9.34-9.33-24.59-9.33-14.08 0-24.08 9.33-10 9.34-10 24.59 0 15.08 10.13 24.58 10.13 9.5 23.64 9.5Zm.23 232Z"/></svg>