<svg xmlns="http://www.w3.org/2000/svg" height="40" viewBox="0 -960 960 960" width="40"><path d="M138.67-58.67V-902h683.16v843.33H138.67Zm165.83-207H655V-696.5H304.5v430.83ZM554.67-595.5v147H405.5v-147h149.17Zm-74.13 463q12.9 0 21.52-8.88 8.61-8.88 8.61-21.38 0-13.04-8.79-21.39-8.78-8.35-21.43-8.35-13.45 0-21.62 8.45-8.16 8.46-8.16 21.38 0 12.5 7.94 21.34 7.95 8.83 21.93 8.83Zm-.33-637q13.05 0 21.75-8.55 8.71-8.54 8.71-21.04 0-13.91-8.79-22.16-8.78-8.25-21.43-8.25-13.45 0-21.62 8.35-8.16 8.36-8.16 22.15 0 12.5 8.11 21t21.43 8.5Z"/></svg>