<svg xmlns="http://www.w3.org/2000/svg" height="48" viewBox="0 -960 960 960" width="48"><path d="M200.38-121.15v-717.7h558.85v717.7H200.38Zm152.08-191.7h256.46v-336.57H352.46v336.57Zm226.27-306.38v200.08H382.65v-200.08h196.08Zm-99.29 423.81q10.03 0 16.01-6.46 5.97-6.45 5.97-15.25 0-9.52-6.05-16.31-6.04-6.79-15.43-6.79-9.48 0-16.02 6.87-6.54 6.86-6.54 16.56 0 8.85 6.25 15.11 6.24 6.27 15.81 6.27Zm.89-527q9.71 0 15.79-6.46 6.07-6.46 6.07-15.27 0-10.27-6.19-16.68-6.18-6.4-15.79-6.4-8.59 0-15.33 6.46-6.73 6.47-6.73 16.58 0 9.24 6.84 15.5 6.84 6.27 15.34 6.27Z"/></svg>