<svg xmlns="http://www.w3.org/2000/svg" height="48" viewBox="0 -960 960 960" width="48"><path d="M150.87-70.87V-889.7H809.7v818.83H150.87Zm76.72-76.72h504.82v-664.82H227.59v664.82Zm89.54-147.06H643.3v-373.33H317.13v373.33Zm249.46-296.04v153.08H394.41v-153.08h172.18ZM480.9-198.63q9.56 0 16.34-6.31 6.78-6.31 6.78-16.5 0-10.03-6.83-16.6-6.84-6.57-16.26-6.57-10.63 0-16.76 6.62-6.13 6.62-6.13 16.4 0 10.48 6.05 16.72 6.05 6.24 16.81 6.24Zm0-519.89q9.56 0 16.34-6.15 6.78-6.14 6.78-16.49 0-9.96-6.83-16.37-6.84-6.4-16.26-6.4-10.63 0-16.76 6.53-6.13 6.54-6.13 16.2 0 10.6 6.05 16.64 6.05 6.04 16.81 6.04ZM480-480Z"/></svg>