<svg xmlns="http://www.w3.org/2000/svg" height="40" viewBox="0 -960 960 960" width="40"><path d="M160-80v-800h640v800H160Zm164-204h312.67v-392.67H324V-284Zm246-326v178H390.67v-178H570Zm-89.33 451.33q9.66 0 16.5-7.04 6.83-7.05 6.83-16.45 0-10.17-6.83-16.67-6.84-6.5-16.5-6.5-10 0-16.67 6.61-6.67 6.61-6.67 16.72 0 9.33 6.67 16.33 6.67 7 16.67 7Zm0-596.66q9.66 0 16.5-7.05 6.83-7.05 6.83-16.44 0-10.18-6.83-16.68-6.84-6.5-16.5-6.5-10 0-16.67 6.61-6.67 6.61-6.67 16.72 0 9.34 6.67 16.34t16.67 7Z"/></svg>