<svg xmlns="http://www.w3.org/2000/svg" height="24" viewBox="0 -960 960 960" width="24"><path d="M120.09-40.09v-879.82h719.82v879.82H120.09Zm122.95-122.95h473.92v-633.92H243.04v633.92Zm47.48-110.22h378.39v-414.61H290.52v414.61Zm255.44-291.65v106.74H413.48v-106.74h132.48Zm-66.12 389.3q17.91 0 30.17-12.06 12.25-12.07 12.25-30.28 0-18.03-11.97-29.82-11.98-11.8-30.29-11.8-17.13 0-29.41 11.8-12.29 11.79-12.29 29.82 0 18.21 12.22 30.28 12.21 12.06 29.32 12.06Zm0-525.95q17.91 0 30.17-11.79 12.25-11.78 12.25-29.35 0-18.06-11.97-29.88-11.98-11.81-30.29-11.81-17.13 0-29.41 11.81-12.29 11.82-12.29 29.88 0 17.57 12.22 29.35 12.21 11.79 29.32 11.79ZM480-480Z"/></svg>