<svg xmlns="http://www.w3.org/2000/svg" height="40" viewBox="0 -960 960 960" width="40"><path d="M159.97-79.97v-800.22h640.05v800.22H159.97Zm72.42-72.42h495.05v-655.22H232.39v655.22Zm89.86-138.24h315.76v-380.38H322.25v380.38Zm243.34-307.8v162.05H394.83v-162.05h170.76Zm-85.16 400.12q9.97 0 16.81-6.71 6.83-6.71 6.83-16.89 0-10.19-6.87-16.96-6.87-6.76-16.75-6.76-10.66 0-17.14 6.84t-6.48 16.84q0 10.35 6.43 16.99 6.42 6.65 17.17 6.65Zm0-518.2q9.97 0 16.81-6.63 6.83-6.62 6.83-16.85 0-10.13-6.87-16.83-6.87-6.69-16.75-6.69-10.66 0-17.14 6.79-6.48 6.8-6.48 16.73 0 10.38 6.43 16.93 6.42 6.55 17.17 6.55Zm-.6 236.51Z"/></svg>