<svg xmlns="http://www.w3.org/2000/svg" height="24" viewBox="0 -960 960 960" width="24"><path d="M140.78-60.78v-838.44h678.44v838.44H140.78Zm163.39-203.96h351.09v-431.09H304.17v431.09Zm245.66-325.65v139.09H409.61v-139.09h140.22Zm-69.83 463q15.45 0 25.55-10.41 10.1-10.42 10.1-25.24 0-15.45-10.1-25.55-10.1-10.11-25.55-10.11-14.83 0-25.24 10.11-10.41 10.1-10.41 25.55 0 14.82 10.41 25.24 10.41 10.41 25.24 10.41Zm0-634.48q15.45 0 25.55-10.41 10.1-10.42 10.1-25.24 0-15.45-10.1-25.55-10.1-10.11-25.55-10.11-14.83 0-25.24 10.11-10.41 10.1-10.41 25.55 0 14.82 10.41 25.24 10.41 10.41 25.24 10.41Z"/></svg>