<svg xmlns="http://www.w3.org/2000/svg" height="40" viewBox="0 -960 960 960" width="40"><path d="M136.75-56.75v-846.66h686.66v846.66H136.75Zm89.26-89.26h507.98v-667.98H226.01v667.98Zm81.85-129.3h345.37v-410.52H307.86v410.52Zm256.11-321.1v155.73H397.28v-155.73h166.69Zm-83.43 416.34q12.64 0 21.7-8.67 9.06-8.68 9.06-22.1 0-13.21-8.9-21.65-8.9-8.45-21.73-8.45t-21.62 8.58q-8.78 8.58-8.78 21.7 0 13.36 8.74 21.97 8.74 8.62 21.53 8.62Zm0-540.13q12.64 0 21.7-8.59 9.06-8.59 9.06-21.79 0-13.27-8.9-21.72-8.9-8.46-21.73-8.46t-21.62 8.61q-8.78 8.62-8.78 21.79 0 13.11 8.74 21.63 8.74 8.53 21.53 8.53ZM480-480Z"/></svg>