<svg xmlns="http://www.w3.org/2000/svg" height="20" viewBox="0 -960 960 960" width="20"><path d="M152.09-56.09v-847.82h655.82v847.82H152.09Zm114.95-114.95h425.92v-617.92H267.04v617.92Zm39.48-110.22h346.39v-398.61H306.52v398.61Zm231.44-283.65v114.74H421.48v-114.74h116.48Zm-58.12 375.3q15.91 0 26.17-10.26 10.25-10.27 10.25-26.08 0-16.03-9.97-25.82-9.98-9.8-26.21-9.8-15.21 0-25.49 9.8-10.29 9.79-10.29 25.74 0 16.29 10.42 26.36 10.41 10.06 25.12 10.06Zm0-509.95q15.91 0 26.17-9.99 10.25-9.98 10.25-25.15 0-16.06-9.97-25.88-9.98-9.81-26.21-9.81-15.21 0-25.49 9.81-10.29 9.82-10.29 25.8 0 15.65 10.42 25.43 10.41 9.79 25.12 9.79ZM480-480Z"/></svg>