<svg xmlns="http://www.w3.org/2000/svg" height="40" viewBox="0 -960 960 960" width="40"><path d="M184.36-104.74v-750.52h590.92v750.52H184.36Zm47.88-47.89H727.4v-654.74H232.24v654.74Zm107.84-147.81h280.53v-360.67H340.08v360.67Zm232.65-312.79v186.85H387.96v-186.85h184.77Zm-92.79 408.6q9.66 0 15.96-6.41 6.29-6.42 6.29-15.81 0-9.8-6.32-16.39-6.32-6.58-15.78-6.58-9.81 0-16.26 6.7-6.45 6.7-6.45 16.23 0 9.68 6.29 15.97 6.29 6.29 16.27 6.29Zm0-507.73q9.66 0 15.96-6.42 6.29-6.42 6.29-15.82 0-9.59-6.32-16.08-6.32-6.49-15.78-6.49-9.81 0-16.26 6.57-6.45 6.56-6.45 16.13 0 9.71 6.29 15.91 6.29 6.2 16.27 6.2Zm-.3 232.36Z"/></svg>