<svg xmlns="http://www.w3.org/2000/svg" height="20" viewBox="0 -960 960 960" width="20"><path d="M158-62v-836h644v836H158Zm118-118h408v-600H276v600Zm32-121h343v-360H308v360Zm225-242v88H426v-88h107Zm-53 337q15.33 0 24.67-9.7Q514-225.4 514-240q0-15.33-9.33-24.67-9.34-9.33-24.59-9.33-15.08 0-24.08 9.33-9 9.34-9 24.59 0 15.08 9.2 24.58 9.2 9.5 23.8 9.5Zm0-482q15.33 0 24.67-9.2Q514-706.4 514-721q0-14.9-9.33-23.95-9.34-9.05-24.59-9.05-15.08 0-24.08 9.05-9 9.05-9 23.87 0 15.08 9.2 24.08 9.2 9 23.8 9Zm0 208Z"/></svg>