<svg xmlns="http://www.w3.org/2000/svg" height="24" viewBox="0 -960 960 960" width="24"><path d="M167.23-88v-784H792v784H167.23Zm160.23-199.23h305.08v-385.31H327.46v385.31Zm240.08-320.31v174.92H392.46v-174.92h175.08ZM479-150.69q15.9 0 26.53-10.54 10.62-10.53 10.62-26.24 0-15.94-10.4-26.89-10.39-10.95-26.3-10.95-14.68 0-25.91 10.95t-11.23 26.89q0 15.71 11 26.24 11.01 10.54 25.69 10.54Zm.62-584.54q15.84 0 26.57-10.53 10.73-10.54 10.73-26.25 0-15.94-10.55-26.89-10.56-10.95-26.7-10.95-14.9 0-25.75 10.95-10.84 10.95-10.84 26.89 0 15.71 10.96 26.25 10.97 10.53 25.58 10.53Z"/></svg>