<svg xmlns="http://www.w3.org/2000/svg" height="40" viewBox="0 -960 960 960" width="40"><path d="M166.67-86.67v-786.66h626.5v786.66h-626.5ZM230-150h499.83v-660H230v660Zm97.83-138h304.84v-385.17H327.83V-288Zm241.5-321.83v178H391.17v-178h178.16Zm-88.9 412q9.07 0 15.32-6.25t6.25-15.41q0-9.34-6.29-15.51-6.28-6.17-15.26-6.17-9.78 0-15.78 6.28t-6 15.41q0 9.31 5.94 15.48 5.95 6.17 15.82 6.17Zm0-522.67q9.07 0 15.32-6.25 6.25-6.24 6.25-15.41 0-9.34-6.29-15.51-6.28-6.16-15.26-6.16-9.78 0-15.78 6.27-6 6.28-6 15.41 0 9.32 5.94 15.48 5.95 6.17 15.82 6.17Zm-.6 240.5Z"/></svg>