<svg xmlns="http://www.w3.org/2000/svg" height="40" viewBox="0 -960 960 960" width="40"><path d="M179.62-100v-760H780v760H179.62Zm50.25-50.26h499.87v-659.48H229.87v659.48Zm107.34-147.33h286.25v-365.87H337.21v365.87Zm236-315.62v186.85H387.46v-186.85h185.75Zm-93.18 412.88q10.02 0 16.8-7.1 6.79-7.1 6.79-16.57 0-10.26-6.76-17.08-6.75-6.82-16.72-6.82-9.86 0-16.78 6.94-6.92 6.94-6.92 17.14 0 9.43 6.84 16.46 6.85 7.03 16.75 7.03Zm0-512.95q10.02 0 16.8-7.1 6.79-7.1 6.79-16.57 0-10.25-6.76-16.88-6.75-6.63-16.72-6.63-9.86 0-16.78 6.74-6.92 6.74-6.92 17.05 0 9.52 6.84 16.45 6.85 6.94 16.75 6.94ZM479.62-480Z"/></svg>