<svg xmlns="http://www.w3.org/2000/svg" height="40" viewBox="0 -960 960 960" width="40"><path d="M150.84-70.84v-818.7h658.53v818.7H150.84Zm84.81-84.81h488.53v-648.7H235.65v648.7Zm78.99-138.57h330.65v-373.86H314.64v373.86Zm245.84-288.67v140.32H399.83v-140.32h160.65Zm-80.05 383.93q11.19 0 18.83-7.35 7.64-7.34 7.64-18.91 0-11.34-7.68-18.92-7.67-7.58-18.77-7.58-11.86 0-18.99 7.61-7.13 7.62-7.13 18.79 0 11.76 7.08 19.06 7.08 7.3 19.02 7.3Zm0-512.12q11.19 0 18.83-7.14 7.64-7.14 7.64-18.81 0-11.21-7.68-18.63-7.67-7.42-18.77-7.42-11.86 0-18.99 7.51-7.13 7.5-7.13 18.51 0 11.84 7.08 18.91t19.02 7.07Zm-.6 231.08Z"/></svg>