<svg xmlns="http://www.w3.org/2000/svg" height="24" viewBox="0 -960 960 960" width="24"><path d="M205.38-126.15v-707.7h548.35v707.7H205.38Zm36.93-36.93h474.5v-633.84h-474.5v633.84Zm109.73-149.84h255.81v-335.43H352.04v335.43Zm218.88-298.5v186.92H388.96v-186.92h181.96Zm-91.89 398.3q11.14 0 18.21-7.26t7.07-17.78q0-10.88-7.05-18.69-7.05-7.8-17.98-7.8-10.51 0-18.13 7.8-7.61 7.81-7.61 18.52 0 10.76 7.4 17.99 7.4 7.22 18.09 7.22Zm0-484.76q11.14 0 18.21-7.28t7.07-17.81q0-10.45-7.05-18.07-7.05-7.61-17.98-7.61-10.51 0-18.13 7.53-7.61 7.53-7.61 18.32 0 10.84 7.4 17.88 7.4 7.04 18.09 7.04Zm.09 217.88Z"/></svg>