<svg xmlns="http://www.w3.org/2000/svg" height="20" viewBox="0 -960 960 960" width="20"><path d="M168-72v-816h623.5v816H168Zm113-113h397.5v-590H281v590Zm32.5-122H645v-348.5H313.5V-307ZM532-542.5v88H426.5v-88H532Zm-52.5 328q14.33 0 22.92-8.7Q511-231.9 511-246q0-13.83-8.58-22.67-8.59-8.83-22.84-8.83-14.58 0-22.58 8.83-8 8.84-8 22.59 0 14.58 8.2 23.08 8.2 8.5 22.3 8.5Zm0-471q14.33 0 22.92-8.2Q511-701.9 511-716q0-13.4-8.58-21.95-8.59-8.55-22.84-8.55-14.58 0-22.58 8.55-8 8.55-8 21.87 0 14.58 8.2 22.58 8.2 8 22.3 8Zm0 205.5Z"/></svg>