<svg xmlns="http://www.w3.org/2000/svg" height="24" viewBox="0 -960 960 960" width="24"><path d="M205.38-126.15v-707.7h548.35v707.7H205.38Zm146.66-186.77h255.81v-335.43H352.04v335.43Zm218.88-298.5v186.92H388.96v-186.92h181.96Zm-92.11 417.07q11.36 0 18.43-7.27 7.07-7.28 7.07-17.59 0-11.17-7.09-18.92-7.09-7.75-17.94-7.75-10.51 0-18.13 7.71-7.61 7.72-7.61 18.72 0 10.65 7.4 17.88 7.4 7.22 17.87 7.22Zm.9-521.69q11.02 0 18.19-7.27 7.18-7.28 7.18-17.59 0-11.18-7.23-18.93-7.24-7.75-18.3-7.75-10.4 0-17.82 7.72t-7.42 18.72q0 10.65 7.61 17.88 7.61 7.22 17.79 7.22Z"/></svg>