<svg xmlns="http://www.w3.org/2000/svg" height="24" viewBox="0 -960 960 960" width="24"><path d="M124.65-44.65v-870.7h710.7v870.7h-710.7Zm170.76-210.24h368.94v-449.7H295.41v449.7Zm256.76-337.52v140.82H407.59v-140.82h144.58ZM479.8-108.93q17.52 0 29.34-11.74t11.82-29.26q0-17.62-11.61-29.15-11.6-11.53-29.35-11.53-16.48 0-28.72 11.53-12.24 11.53-12.24 29.15 0 17.52 12.17 29.26 12.17 11.74 28.59 11.74Zm0-659.7q17.52 0 29.34-11.86t11.82-29.1q0-17.89-11.61-29.42-11.6-11.53-29.35-11.53-16.48 0-28.72 11.53-12.24 11.53-12.24 29.42 0 17.24 12.17 29.1 12.17 11.86 28.59 11.86Z"/></svg>