<svg xmlns="http://www.w3.org/2000/svg" height="48" viewBox="0 -960 960 960" width="48"><path d="M211-132v-696h537.5v696H211Zm22-22h493.5v-652H233v652Zm126.5-166H602v-322.5H359.5V-320ZM580-620.5v204H381.5v-204H580Zm-100.71 406q10.48 0 16.59-6.51 6.12-6.5 6.12-16.01 0-10.48-6.14-17.48-6.15-7-16.22-7-9.64 0-16.64 7.19t-7 17.2q0 10.12 6.64 16.37 6.63 6.24 16.65 6.24Zm0-487q10.48 0 16.59-6.52 6.12-6.52 6.12-16.05 0-9.93-6.14-16.68-6.15-6.75-16.22-6.75-9.64 0-16.64 6.83-7 6.84-7 16.95 0 10.22 6.64 16.22 6.63 6 16.65 6Zm.21 221.5Z"/></svg>