<svg xmlns="http://www.w3.org/2000/svg" height="24" viewBox="0 -960 960 960" width="24"><path d="M140.78-60.78v-838.44h678.44v838.44H140.78Zm106-106h466.44v-626.44H246.78v626.44Zm57.39-120.57h351.09v-386.43H304.17v386.43Zm245.09-280.43V-453H410.17v-114.78h139.09ZM480-191.13q15.45 0 25.55-10.41 10.1-10.42 10.1-25.24 0-15.45-10.1-25.55-10.1-10.11-25.55-10.11-14.83 0-24.96 10.11-10.13 10.1-10.13 25.55 0 14.82 10.13 25.24 10.13 10.41 24.96 10.41Zm0-507.57q15.45 0 25.55-10.13 10.1-10.13 10.1-24.95 0-15.21-10.1-25.15-10.1-9.94-25.55-9.94-14.83 0-24.96 9.94t-10.13 25.15q0 14.82 10.13 24.95Q465.17-698.7 480-698.7Zm0 218.7Z"/></svg>