<svg xmlns="http://www.w3.org/2000/svg" height="20" viewBox="0 -960 960 960" width="20"><path d="M193.87-97.87v-764.26h571.76v764.26H193.87ZM334.8-287.54h289.66V-673.2H334.8v385.66Zm211.9-307.89v159.15H412.57v-159.15H546.7Zm-67.42 426.5q11.26 0 17.68-6.8 6.43-6.8 6.43-16.88 0-11.25-6.47-17.68t-17.34-6.43q-10.78 0-17.37 6.47-6.6 6.47-6.6 17.34 0 10.78 6.8 17.38 6.79 6.6 16.87 6.6Zm0-574.59q11.26 0 17.68-6.8 6.43-6.8 6.43-16.87 0-11.26-6.47-17.69-6.47-6.42-17.34-6.42-10.78 0-17.37 6.46-6.6 6.47-6.6 17.35 0 10.77 6.8 17.37 6.79 6.6 16.87 6.6Z"/></svg>