<svg xmlns="http://www.w3.org/2000/svg" height="20" viewBox="0 -960 960 960" width="20"><path d="M237.38-142.15v-675.7h484.35v675.7H237.38Zm28.93-28.93h426.5v-617.84h-426.5v617.84Zm101.73-149.84h223.81v-319.43H368.04v319.43Zm194.88-290.5v194.92H396.96v-194.92h165.96Zm-83.89 384.3q9.14 0 14.21-5.46t5.07-13.58q0-8.88-5.05-14.69-5.05-5.8-13.9-5.8-8.59 0-14.21 5.8-5.61 5.81-5.61 14.44 0 8.84 5.6 14.07 5.6 5.22 13.89 5.22Zm0-468.76q9.14 0 14.21-5.48t5.07-13.61q0-8.45-5.05-14.07-5.05-5.61-13.9-5.61-8.59 0-14.21 5.53-5.61 5.53-5.61 14.24 0 8.92 5.6 13.96 5.6 5.04 13.89 5.04Zm.09 215.88Z"/></svg>