<svg xmlns="http://www.w3.org/2000/svg" height="40" viewBox="0 -960 960 960" width="40"><path d="M199.23-120v-720H760v720H199.23Zm151.18-191.18h259.85v-339.08H350.41v339.08Zm226-305.23v195.69H384.26v-195.69h192.15Zm-97.03 424.67q10.39 0 17.12-7.16 6.73-7.15 6.73-16.69 0-10.33-6.67-17.47-6.67-7.14-16.96-7.14-9.7 0-16.88 7.26t-7.18 17.57q0 9.51 7.02 16.57 7.03 7.06 16.82 7.06Zm.63-529.75q10.32 0 17.16-7.15 6.83-7.16 6.83-16.71 0-10.83-6.82-17.71-6.83-6.89-17.36-6.89-9.41 0-16.46 7-7.05 6.99-7.05 17.57 0 9.77 7.24 16.83 7.24 7.06 16.46 7.06Z"/></svg>