<svg xmlns="http://www.w3.org/2000/svg" height="48" viewBox="0 -960 960 960" width="48"><path d="M479.9-458.65q62.66 0 106.34-42.64 43.67-42.63 43.67-104.05 0-62.83-43.47-106.64-43.47-43.8-106.54-43.8-61.65 0-104.95 43.8-43.3 43.81-43.3 106.64 0 61.83 43.3 104.26 43.3 42.43 104.95 42.43Zm.15-72.52q-30.1 0-52.71-22.34-22.6-22.34-22.6-52.16 0-30.67 22.55-53.85 22.56-23.18 53.16-23.18 30.6 0 52.71 23.14 22.1 23.13 22.1 53.8 0 30.24-22.2 52.41-22.19 22.18-53.01 22.18Zm-.54 203.65q16.04 0 25.83-9.02t9.79-24.49q0-14.47-9.79-25.05-9.79-10.57-25.27-10.57-14.47 0-24.27 10.56-9.8 10.57-9.8 24.49 0 16.04 9.79 25.06 9.8 9.02 23.72 9.02ZM338.01-35.35q-16.61 0-27.51-10.82-10.89-10.83-10.89-26.1 0-16.21 9-29.77 9-13.57 28.13-8h14.39q36 0 59.02-22.57 23.02-22.56 30.46-54.43H264.35q-33.5 0-58.34-24.92-24.84-24.91-24.84-58.26v-545.43q0-33.74 24.84-58.74t58.34-25h431.3q33.74 0 58.74 25t25 58.74v545.43q0 33.35-25 58.26-25 24.92-58.74 24.92H519.96q6.71 31.72 29.59 54.36t59.88 22.64h15.4q15.49 0 26.03 11.16 10.53 11.17 10.53 26.68 0 15.09-10.8 25.97-10.8 10.88-25.76 10.88H338.01Z"/></svg>