<svg xmlns="http://www.w3.org/2000/svg" height="48" viewBox="0 -960 960 960" width="48"><path d="M271.5-276.5h417v-532h-417v532ZM479.58-465q60.16 0 101.29-40.45Q622-545.9 622-604.83q0-59.67-41.12-101.42T480.33-748q-59.9 0-100.62 41.75Q339-664.5 339-605.08t40.74 99.75Q420.49-465 479.58-465Zm.5-76.5q-26.58 0-45.58-18.36t-19-44.43q0-26.89 18.72-46.55 18.71-19.66 45.29-19.66 26.57 0 45.78 19.24 19.21 19.23 19.21 46.25 0 27.01-18.92 45.26-18.93 18.25-45.5 18.25Zm.44 210q14.98 0 25.23-9.46Q516-350.41 516-365.75q0-14.15-10.37-24.7Q495.25-401 480.52-401q-13.98 0-24 10.51-10.02 10.52-10.02 24.74 0 15.65 10.01 24.95 10.01 9.3 24.01 9.3ZM335.97-26q-16.72 0-28.09-11.51-11.38-11.52-11.38-27.47 0-16.52 8-32.27 8-15.75 31-5.25H353q36.56 0 59.07-24.47Q434.58-151.45 440-185H271.5q-38.02 0-64.76-26.74Q180-238.48 180-276.5v-532q0-38.43 26.74-65.47Q233.48-901 271.5-901h417q38.43 0 65.47 27.03Q781-846.93 781-808.5v532q0 38.02-27.03 64.76Q726.93-185 688.5-185H521q5.22 33.25 27.35 57.87Q570.47-102.5 608-102.5h19q14.97 0 26.24 11.45 11.26 11.46 11.26 26.72 0 15.83-11.26 27.08Q641.97-26 627-26H335.97ZM480-605Z"/></svg>