<svg xmlns="http://www.w3.org/2000/svg" height="24" viewBox="0 -960 960 960" width="24"><path d="M290-296h380v-494H290v494Zm190-165q61 0 103.5-42.21Q626-545.41 626-606q0-61-42.5-103.5T480-752q-61 0-103.5 42.5T334-606q0 61 42.5 103T480-461Zm0-112q-13.08 0-23.04-10.36-9.96-10.36-9.96-22.79 0-12.84 9.96-23.34Q466.92-640 480-640q13.08 0 23.04 10.36 9.96 10.37 9.96 23.5 0 13.14-9.96 23.14T480-573Zm.02 254q22.38 0 37.18-14.1t14.8-36.4q0-22.3-14.8-36.9-14.8-14.6-36.68-14.6t-36.2 14.66Q430-391.67 430-370q0 22.8 14.38 36.9 14.38 14.1 35.64 14.1ZM343 29q-23.6 0-40.8-17.24Q285-5.48 285-28.88 285-53 300.5-72 316-91 342-87h8q35 0 49.5-22t18.5-51H290q-57.12 0-96.56-40.14Q154-240.27 154-296v-494q0-57.13 39.44-96.56Q232.88-926 290-926h380q57.13 0 96.56 39.44Q806-847.13 806-790v494q0 55.73-39.44 95.86Q727.13-160 670-160H542q4 29 18.5 51T609-87h9q23.7 0 40.35 17.2Q675-52.6 675-29q0 23.6-17.2 40.8Q640.6 29 617 29H343Zm137-635Z"/></svg>