<svg xmlns="http://www.w3.org/2000/svg" height="40" viewBox="0 -960 960 960" width="40"><path d="M266.01-272.62h427.98v-541.37H266.01v541.37Zm213.96-181.09q64.01 0 108.95-44.59t44.94-107.51q0-64.33-44.8-109.49t-108.75-45.16q-63.68 0-108.51 45.16-44.84 45.16-44.84 109.15 0 63.99 44.86 108.22 44.85 44.22 108.15 44.22Zm.13-80.14q-29.32 0-51.04-21.54t-21.72-50.47q0-29.9 21.62-52.1 21.61-22.21 51.27-22.21 29.66 0 51.05 22.08 21.38 22.07 21.38 51.93 0 29.85-21.38 51.08-21.38 21.23-51.18 21.23Zm-.09 212.94q16.88 0 28.09-10.8 11.2-10.79 11.2-27.74 0-16.45-11.29-28.02t-28.13-11.57q-16.35 0-27.53 11.57-11.18 11.58-11.18 28.15 0 16.98 11.18 27.69 11.18 10.72 27.66 10.72ZM342.47-23.68q-18.14 0-30.63-12.29-12.5-12.3-12.5-29.97 0-18.28 11.04-32.56 11.04-14.27 31.01-10.46h8.93q34.72 0 56.9-21.52 22.17-21.53 29.44-52.88H266.01q-36.14 0-62.7-26.51-26.56-26.52-26.56-62.75v-541.37q0-36.2 26.56-62.81t62.7-26.61h427.98q36.2 0 62.81 26.61t26.61 62.81v541.37q0 36.23-26.61 62.75-26.61 26.51-62.81 26.51H523.5q7.06 31.31 28.88 52.86 21.82 21.54 57.13 21.54h9.93q17.67 0 29.78 12.72 12.11 12.71 12.11 30.37 0 17.38-12.47 29.78-12.46 12.41-29.76 12.41H342.47ZM480-605.84Z"/></svg>