<svg xmlns="http://www.w3.org/2000/svg" height="48" viewBox="0 -960 960 960" width="48"><path d="M274.69-261.31h410.62q5.38 0 8.84-3.46t3.46-8.85v-531.69q0-5.38-3.46-8.84t-8.84-3.46H274.69q-5.38 0-8.84 3.46t-3.46 8.84v531.69q0 5.39 3.46 8.85t8.84 3.46ZM480-462.62q58.82 0 100.18-40.71 41.36-40.71 41.36-98.25 0-59.42-41.16-101.07-41.15-41.66-100.07-41.66-58.51 0-99.49 41.66-40.97 41.65-40.97 100.57 0 58.93 40.96 99.19 40.96 40.27 99.19 40.27Zm.1-53.38q-35.06 0-60.96-25.54-25.91-25.54-25.91-60.23 0-36.15 25.77-62.46 25.77-26.31 61.33-26.31t61.19 26.23q25.63 26.23 25.63 62.27 0 35.66-25.64 60.85Q515.87-516 480.1-516Zm-.28 186.08q13.06 0 22.27-8.66 9.22-8.66 9.22-22.16 0-12.75-9.35-22.28-9.34-9.52-22.45-9.52-13.14 0-21.98 9.52-8.84 9.53-8.84 22.59 0 13.44 8.84 21.98 8.84 8.53 22.29 8.53ZM340.77-61q-12.66 0-21.18-8.2-8.51-8.2-8.51-20.35 0-13.07 6.5-24.53t22.19-5.31h16.77q36.74 0 62.91-23.73 26.17-23.73 33.4-59.8H274.69q-28.25 0-49.47-20.9T204-273.62v-531.69q0-28.25 21.22-49.47T274.69-876h410.62q28.25 0 49.47 21.22T756-805.31v531.69q0 28.9-21.22 49.8t-49.47 20.9H507.15q7.23 36.07 32.82 59.8 25.59 23.73 63.88 23.73h16.61q12.21 0 20.45 8.85 8.24 8.84 8.24 21.03 0 11.76-8.5 20.14-8.5 8.37-20.19 8.37H340.77ZM480-601.77Z"/></svg>