<svg xmlns="http://www.w3.org/2000/svg" height="24" viewBox="0 -960 960 960" width="24"><path d="M277.83-284.59h404.34v-517.58H277.83v517.58ZM480-450.35q64.49 0 110.19-45.63T635.89-606q0-64.8-45.7-110.73-45.7-45.92-110.19-45.92t-110.19 45.92q-45.7 45.93-45.7 110.73 0 64.8 45.7 110.23 45.7 45.42 110.19 45.42Zm0-100.58q-22.59 0-38.83-16.34-16.24-16.33-16.24-38.76 0-22.85 16.24-39.44 16.24-16.6 38.83-16.6t38.83 16.57q16.24 16.56 16.24 39.47 0 22.92-16.24 39.01-16.24 16.09-38.83 16.09Zm0 238.02q20.88 0 34.92-13.87 14.04-13.88 14.04-34.73 0-20.86-14.04-34.85-14.04-13.99-34.8-13.99-20.75 0-34.67 14.01-13.93 14-13.93 34.71 0 20.97 13.94 34.85 13.94 13.87 34.54 13.87ZM349.09 6.17q-22.39 0-38.29-15.71-15.91-15.72-15.91-38.45 0-22.51 15.12-38.85 15.12-16.33 38.08-15.38H350q32.72 0 50.64-20.1 17.93-20.09 24.21-49.09H277.83q-46.93 0-80.06-33.29-33.12-33.29-33.12-79.89v-517.58q0-46.93 33.12-80.06 33.13-33.12 80.06-33.12h404.34q46.93 0 80.06 33.12 33.12 33.13 33.12 80.06v517.58q0 46.6-33.12 79.89-33.13 33.29-80.06 33.29H535.15q6.28 29 23.83 49.09 17.54 20.1 50.02 20.1h2.91q22.49 0 37.84 15.91 15.36 15.91 15.36 38.29T649.2-9.73q-15.9 15.9-38.29 15.9H349.09ZM480-606Z"/></svg>