<svg xmlns="http://www.w3.org/2000/svg" height="20" viewBox="0 -960 960 960" width="20"><path d="M299.78-287.54h360.44v-492.68H299.78v492.68Zm179.97-182.13q54.92 0 92.63-37.46 37.71-37.46 37.71-92.63 0-55.17-37.7-92.63-37.69-37.46-92.39-37.46-55.17 0-92.63 37.46-37.46 37.46-37.46 92.63 0 55.17 37.46 92.63 37.46 37.46 92.38 37.46Zm.1-81.7q-20.02 0-34.13-14.2-14.11-14.2-14.11-34.14t14.26-34.19q14.26-14.25 34.28-14.25 20.02 0 34.13 14.32 14.11 14.31 14.11 34.42t-14.26 34.07q-14.26 13.97-34.28 13.97Zm-.05 221.24q15.4 0 27.09-10.87 11.7-10.87 11.7-26.94 0-15.63-11.49-26.93-11.48-11.3-27.13-11.3-15.65 0-26.54 11.09-10.89 11.08-10.89 26.97 0 15.88 10.71 26.93 10.72 11.05 26.55 11.05ZM366.87-61.35q-16.61 0-28.87-12.02-12.26-12.03-12.26-28.75 0-16.47 11.45-29.51 11.46-13.05 28.95-11.41h5.52q24.97 0 40.27-14.49 15.31-14.49 20.42-37.01H299.78q-42.24 0-67.62-25.38-25.38-25.38-25.38-67.4v-493.12q0-42.02 25.38-67.4 25.38-25.38 67.62-25.38h360.44q42.24 0 67.62 25.38 25.38 25.38 25.38 67.4v493.12q0 42.02-25.38 67.4-25.38 25.38-67.62 25.38H527.15q5.68 22.52 20.7 37.01 15.02 14.49 39.67 14.49h6.02q16.2 0 28.46 12.05 12.26 12.05 12.26 28.59 0 16.53-12.1 28.79-12.1 12.26-28.71 12.26H366.87ZM480-599.76Z"/></svg>