<svg xmlns="http://www.w3.org/2000/svg" height="40" viewBox="0 -960 960 960" width="40"><path d="M480-471.77q53.38 0 90.88-36.53 37.5-36.52 37.5-89.49 0-54.06-37.36-91.98t-91.28-37.92q-52.97 0-89.96 37.92-36.99 37.92-36.99 91.98 0 53.38 36.93 89.7T480-471.77Zm-.05-44.85q-33.32 0-57.81-24.06-24.5-24.07-24.5-57.37 0-34.94 24.5-59.49 24.49-24.54 58.15-24.54t58.12 24.6q24.46 24.61 24.46 59.63 0 33.59-24.56 57.41-24.56 23.82-58.36 23.82Zm-.53 182.49q13.15 0 22.61-8.75 9.46-8.76 9.46-22.41 0-12.74-9.47-22.27-9.47-9.54-22.35-9.54-13.51 0-22.33 9.54-8.83 9.53-8.83 22.02 0 13.91 8.83 22.66 8.82 8.75 22.08 8.75ZM342.38-67.67q-11.06 0-18.49-7.13-7.43-7.13-7.43-18.03 0-11.43 4.98-22.57 4.97-11.14 19.94-3.45h20.67q38.34 0 64.63-25.91 26.29-25.91 32.17-65.27H294.46q-31.3 0-53.55-22.03-22.24-22.03-22.24-53.76v-499.72q0-31.3 22.24-53.55 22.25-22.24 53.55-22.24h371.08q31.3 0 53.55 22.24 22.24 22.25 22.24 53.55v499.72q0 31.73-22.24 53.76-22.25 22.03-53.55 22.03H501.15q5.88 39.36 31.44 65.27 25.56 25.91 65.54 25.91H618q10.8 0 17.86 7.62 7.06 7.61 7.06 18.32 0 10.41-7.42 17.83-7.42 7.41-17.83 7.41H342.38Z"/></svg>