<svg xmlns="http://www.w3.org/2000/svg" height="24" viewBox="0 -960 960 960" width="24"><path d="M479.75-453.67q60.92 0 103.63-42.46 42.71-42.46 42.71-103.63 0-61.17-42.7-103.63Q540.7-745.85 480-745.85q-61.17 0-103.63 42.46-42.46 42.46-42.46 103.63 0 61.17 42.46 103.63 42.46 42.46 103.38 42.46Zm.31-89.7q-23.52 0-39.98-16.41-16.47-16.4-16.47-39.92 0-22.95 16.4-39.7 16.41-16.75 39.93-16.75t39.98 16.69q16.47 16.68 16.47 39.64 0 23.52-16.4 39.98-16.41 16.47-39.93 16.47ZM480-326.13q17.2 0 29.89-12.19 12.7-12.2 12.7-29.83 0-17.2-12.7-29.61-12.69-12.41-30.14-12.41-17.45 0-29.33 12.41-11.88 12.41-11.88 29.86 0 17.44 11.92 29.61 11.91 12.16 29.54 12.16ZM354.59-45.35q-18.33 0-31.59-13.26-13.26-13.26-13.26-31.8 0-18.18 13.06-31.76 13.07-13.59 31.79-12.87h5.52q27.52 0 43.82-15.99 16.31-15.99 23.42-39.51H291.78q-42.24 0-71.62-29.38-29.38-29.38-29.38-71.62v-496.68q0-42.24 29.38-71.62 29.38-29.38 71.62-29.38h376.44q42.24 0 71.62 29.38 29.38 29.38 29.38 71.62v496.68q0 42.24-29.38 71.62-29.38 29.38-71.62 29.38H532.15q7.68 23.52 23.7 39.51 16.02 15.99 43.54 15.99h6.02q18.33 0 31.59 13.26 13.26 13.26 13.26 31.59 0 18.32-13.26 31.58-13.26 13.26-31.59 13.26H354.59Z"/></svg>