<svg xmlns="http://www.w3.org/2000/svg" height="24" viewBox="0 -960 960 960" width="24"><path d="M287.87-286.33h384.26v-505.8H287.87v505.8ZM479.75-447.8q62.55 0 106.73-43.93 44.17-43.92 44.17-106.73 0-62.8-44.16-106.72-44.16-43.93-106.49-43.93-62.8 0-106.73 43.93-43.92 43.92-43.92 106.72 0 62.81 43.92 106.73 43.93 43.93 106.48 43.93Zm.31-81.22q-28.61 0-49.05-20.36-20.44-20.35-20.44-48.93t20.37-49.08q20.38-20.5 49-20.5 28.61 0 49.05 20.4 20.44 20.41 20.44 49.06 0 28.65-20.37 49.03-20.38 20.38-49 20.38ZM480-325.48q16.22 0 27.93-11.33 11.72-11.33 11.72-28.08 0-16.31-11.72-27.86-11.71-11.55-28.18-11.55-16.46 0-27.69 11.55t-11.23 28.11q0 16.56 11.26 27.86t27.91 11.3ZM359.15-71.11q-16.69 0-28.65-11.95-11.96-11.96-11.96-28.87 0-16.22 12.74-26.87 12.74-10.66 27.87-13.53h2.92q24.91 0 42.19-13.54 17.28-13.54 26.35-34.46H287.87q-35.72 0-60.86-25.14t-25.14-60.86v-505.8q0-35.72 25.14-60.86t60.86-25.14h384.26q35.72 0 60.86 25.14t25.14 60.86v505.8q0 35.72-25.14 60.86t-60.86 25.14H528.89q9.31 20.92 26.47 34.46 17.16 13.54 42.07 13.54h3.42q16.69 0 28.65 11.96 11.96 11.96 11.96 28.65 0 16.7-11.96 28.66-11.96 11.95-28.65 11.95h-241.7ZM480-598.46Z"/></svg>