<svg xmlns="http://www.w3.org/2000/svg" height="40" viewBox="0 -960 960 960" width="40"><path d="M479.89-461.33q61.11 0 103.28-41.72 42.16-41.73 42.16-102.17 0-61.11-42.16-103.61-42.17-42.5-103.28-42.5-60.45 0-102.5 42.5-42.06 42.5-42.06 103.61 0 60.44 42.06 102.17 42.05 41.72 102.5 41.72Zm.17-88q-23.73 0-40.23-16.11-16.5-16.11-16.5-39.83 0-23.4 16.44-40.4 16.45-17 40.17-17 23.73 0 40.23 16.94 16.5 16.95 16.5 40.34 0 23.72-16.44 39.89-16.45 16.17-40.17 16.17ZM480-326.67q17.33 0 29.17-11.33Q521-349.33 521-366.33q0-16.34-11.83-28.34-11.84-12-28.84-12-16.33 0-27.83 11.95T441-366.67q0 17.34 11.45 28.67 11.45 11.33 27.55 11.33ZM338.31-14.33q-18.98 0-31.81-12.93-12.83-12.92-12.83-31.41 0-18.66 11.16-33.83Q316-107.67 338-102.33h14q35 0 54.5-22.17t25.17-52.83h-155q-43.7 0-74.19-30.49Q172-238.3 172-282v-521.33q0-43.98 30.48-74.66 30.49-30.68 74.19-30.68h406.66q43.98 0 74.66 30.68t30.68 74.66V-282q0 43.7-30.68 74.18-30.68 30.49-74.66 30.49H529q5.81 30.5 24.91 52.75 19.09 22.25 54.76 22.25h14.66q18.2 0 30.94 12.82Q667-76.68 667-58.34q0 18.34-12.73 31.17-12.74 12.84-30.94 12.84H338.31Z"/></svg>