<svg xmlns="http://www.w3.org/2000/svg" height="20" viewBox="0 -960 960 960" width="20"><path d="M294.78-285.04h370.44v-500.18H294.78v500.18ZM480-466.17q57.17 0 96.63-39.46 39.46-39.46 39.46-96.63 0-57.17-39.46-96.63-39.46-39.46-96.63-39.46-57.17 0-96.63 39.46-39.46 39.46-39.46 96.63 0 57.17 39.46 96.63 39.46 39.46 96.63 39.46Zm-.21-86.7q-20.46 0-34.82-14.51t-14.36-34.89q0-20.38 14.57-34.88 14.57-14.5 35.03-14.5t34.82 14.63q14.36 14.63 14.36 35.17 0 20.55-14.57 34.76-14.57 14.22-35.03 14.22Zm.01 227.74q16.9 0 29.09-11.59 12.2-11.59 12.2-28.72t-11.99-28.93q-11.98-11.8-28.88-11.8t-28.54 11.59q-11.64 11.58-11.64 28.72 0 17.13 11.43 28.93t28.33 11.8ZM364.37-51.35q-18.11 0-30.87-12.52-12.76-12.53-12.76-30.54 0-17.68 13.45-28.72 13.46-11.05 29.45-14.91h4.52q24.97 0 39.77-13.74 14.81-13.74 20.42-35.26H294.78q-44.3 0-71.15-26.85-26.85-26.85-26.85-70.93v-500.62q0-44.08 26.85-70.93 26.85-26.85 71.15-26.85h370.44q44.3 0 71.15 26.85 26.85 26.85 26.85 70.93v500.62q0 44.08-26.85 70.93-26.85 26.85-71.15 26.85H531.65q6.18 21.52 20.7 35.26 14.52 13.74 39.17 13.74h4.52q17.7 0 30.46 12.55 12.76 12.55 12.76 30.59 0 18.03-12.6 30.79-12.6 12.76-30.71 12.76H364.37ZM480-602.26Z"/></svg>