<svg xmlns="http://www.w3.org/2000/svg" height="40" viewBox="0 -960 960 960" width="40"><path d="M479.75-458.31q58.52 0 99.31-40.21 40.79-40.22 40.79-98.45 0-58.22-40.78-99.5-40.77-41.27-99.2-41.27-58.04 0-98.75 41.27-40.71 41.28-40.71 99.66 0 57.91 40.68 98.21 40.68 40.29 98.66 40.29Zm.15-47.88q-37.82 0-64.71-26.35-26.9-26.35-26.9-64.36 0-38.57 26.83-65.57 26.83-27 64.66-27 37.82 0 65 26.96 27.18 26.97 27.18 65.58 0 37.94-27.12 64.34-27.12 26.4-64.94 26.4Zm-.03 171.59q12.09 0 20.52-8.02 8.43-8.03 8.43-20.64 0-11.19-8.43-19.82-8.44-8.64-20.47-8.64-12.02 0-20.12 8.66-8.09 8.66-8.09 19.76 0 12.72 8.15 20.71t20.01 7.99ZM350.14-104.74q-10.42 0-17.31-6.9-6.89-6.89-6.89-17.37 0-10.13 6.53-17.3 6.54-7.18 17.67-6.32h14.48q30.72 0 54.42-18.51 23.71-18.51 32.78-46.86H284.94q-24.61 0-42.4-17.7-17.8-17.69-17.8-42.49v-516.87q0-24.61 17.8-42.4 17.79-17.8 42.4-17.8h390.12q24.61 0 42.4 17.8 17.8 17.79 17.8 42.4v516.87q0 24.8-17.8 42.49-17.79 17.7-42.4 17.7H508.2q8.94 28.32 32.51 46.85 23.58 18.52 54.96 18.52h14.74q9.84 0 16.76 6.92 6.92 6.92 6.92 16.77 0 10.41-6.92 17.3-6.92 6.9-16.76 6.9H350.14Z"/></svg>