<svg xmlns="http://www.w3.org/2000/svg" height="20" viewBox="0 -960 960 960" width="20"><path d="M480-477q55 0 92.5-37.21Q610-551.41 610-606q0-55-37.5-92.5T480-736q-55 0-92.5 37.5T350-606q0 55 37.5 92t92.5 37Zm-.21-104q-10.37 0-17.58-7.92-7.21-7.93-7.21-17.79 0-9.28 7.42-17.28 7.43-8.01 17.79-8.01 10.37 0 17.58 8.22 7.21 8.22 7.21 17.5 0 10.28-7.42 17.78-7.43 7.5-17.79 7.5Zm0 258q20.61 0 34.41-13.09 13.8-13.09 13.8-33.2 0-20.11-13.59-33.91-13.59-13.8-33.7-13.8-20.11 0-33.41 13.65Q434-389.7 434-370.21q0 20.61 13.15 33.91Q460.3-323 479.79-323ZM355.28 13Q333.4 13 317.2-3.01q-16.2-16-16.2-37.58 0-22.41 13.89-40.87Q328.78-99.92 353.56-95h8q32.44 0 45.94-20.5T423-164H298q-57.12 0-92.56-36.14Q170-236.27 170-291.77v-490.46q0-56.9 35.44-92.33Q240.88-910 298-910h364q57.13 0 92.56 35.44Q790-839.13 790-782.23v490.46q0 55.5-35.44 91.63Q719.13-164 662-164H537q2 28 15.5 48.5T597.13-95h9q21.57 0 37.22 15.99Q659-63.02 659-41.21q0 21.81-16.04 38.01T605.04 13H355.28Z"/></svg>