<svg xmlns="http://www.w3.org/2000/svg" height="24" viewBox="0 -960 960 960" width="24"><path d="M479.75-473q49.75 0 84-33.5T598-590q0-49.5-34.24-84.25Q529.53-709 480-709q-49.5 0-83.75 34.75T362-590q0 50 34.25 83.5t83.5 33.5Zm.31-25.5q-38.06 0-65.31-26.44t-27.25-65q0-38.56 27.19-65.56t65.25-27q38.06 0 65.31 26.94t27.25 65.5q0 38.56-27.19 65.06t-65.25 26.5Zm-.06 153q9.5 0 17.25-7.03T505-370.5q0-9-7.75-16.75t-17.5-7.75q-10.75 0-17.5 7.75t-6.75 17q0 10.75 6.78 17.75t17.72 7ZM352.5-137q-5.5 0-9.25-3.75t-3.75-9.46q0-5.29 3-10.04 3-4.75 10-2.25H375q32 0 57-21t33-53.5H314.5q-24.44 0-40.97-16.28Q257-269.56 257-294.5v-471q0-24.44 16.53-40.97Q290.06-823 314.5-823h331q24.44 0 40.97 16.53Q703-789.94 703-765.5v471q0 24.94-16.53 41.22Q669.94-237 645.5-237H495q7.5 32.5 32 53.5t58 21h22q5 0 8.75 3.75t3.75 8.75q0 5.5-3.75 9.25T607-137H352.5Z"/></svg>