<svg xmlns="http://www.w3.org/2000/svg" height="20" viewBox="0 -960 960 960" width="20"><path d="M479.75-470.85q52.36 0 88.38-35.57 36.02-35.58 36.02-88.2 0-52.42-36-88.48-36.01-36.05-88.15-36.05-52.42 0-88.29 36.05-35.86 36.06-35.86 88.48 0 52.62 35.86 88.2 35.87 35.57 88.04 35.57Zm.1-47.96q-31.47 0-53.75-22.15-22.29-22.15-22.29-53.81 0-31.65 22.44-53.85 22.44-22.19 53.9-22.19 31.47 0 53.75 22.35 22.29 22.34 22.29 54 0 31.65-22.44 53.65t-53.9 22Zm-.06 181.92q11.4 0 20.15-8.12 8.75-8.13 8.75-20.36 0-11.21-8.54-19.96t-20.19-8.75q-12.04 0-20.25 8.54t-8.21 20q0 12.04 8.03 20.35 8.03 8.3 20.26 8.3ZM370.94-124.08q-9.94 0-17.15-6.98-7.21-6.98-7.21-17.02 0-9.42 7.23-15.94 7.24-6.51 16.4-8.02h9.27q23.91 0 43.6-13.81 19.69-13.8 27.23-37H304.35q-28.44 0-44.36-15.82-15.91-15.82-15.91-44.22v-492.99q0-28.21 15.91-44.13 15.92-15.91 44.36-15.91h351.3q28.44 0 44.36 15.91 15.91 15.92 15.91 44.13v492.99q0 28.4-15.91 44.22-15.92 15.82-44.36 15.82H509.38q7.35 23.2 26.85 37 19.5 13.81 43.66 13.81h9.39q9.34 0 16.55 7 7.21 7 7.21 16.67 0 9.87-7.05 17.08-7.05 7.21-16.8 7.21H370.94Z"/></svg>