<svg xmlns="http://www.w3.org/2000/svg" height="20" viewBox="0 -960 960 960" width="20"><path d="M480.21-483.85q-12.9 0-21.86-8.94-8.96-8.94-8.96-21.46 0-12.9 8.75-21.86 8.75-8.97 21.65-8.97 12.52 0 21.67 8.75 9.15 8.76 9.15 21.66 0 12.52-8.94 21.67-8.94 9.15-21.46 9.15ZM409.08-303l-55.23 55.23q27.92 15.69 60 23.73Q445.92-216 480-216q34.08 0 66.15-8.04 32.08-8.04 60-23.73l-56-55.23H409.08ZM480-744q-54 0-102.13 20.9-48.14 20.9-84 57Q258-630 237-582.2q-21 47.8-21 102.16 0 61.35 25.35 113.74 25.35 52.38 68.8 88.3l62.16-62.15q-32.15-23.31-50.73-59.95Q303-436.73 303-480.19q0-73.66 51.8-125.23Q406.61-657 480.23-657t125.19 51.7Q657-553.6 657-480.13q0 43.36-18.58 80.21-18.58 36.84-50.73 60.15l62.16 62.16q43.45-35.82 68.8-88.26Q744-418.31 744-480q0-54.38-21-102.19-21-47.81-56.87-83.91-35.86-36.1-84-57Q534-744 480-744Zm0 139q-52.31 0-88.65 36.54Q355-531.92 355-480q0 52.31 36.35 88.65Q427.69-355 480-355q51.92 0 88.46-36.35Q605-427.69 605-480q0-51.92-36.54-88.46Q531.92-605 480-605Zm0 441q-65.77 0-123.25-24.87-57.48-24.87-100.24-67.64-42.77-42.76-67.64-100.24Q164-414.23 164-480q0-65.77 24.87-123.25 24.87-57.48 67.64-100.24 42.76-42.77 100.24-67.64Q414.23-796 480-796q65.77 0 123.25 24.87 57.48 24.87 100.24 67.64 42.77 42.76 67.64 100.24Q796-545.77 796-480q0 65.77-24.87 123.25-24.87 57.48-67.64 100.24-42.76 42.77-100.24 67.64Q545.77-164 480-164Z"/></svg>