<svg xmlns="http://www.w3.org/2000/svg" height="40" viewBox="0 -960 960 960" width="40"><path d="M479.96-484.81q15.81 0 26.3-10.42 10.5-10.42 10.5-26.23 0-15.13-10.5-26.04-10.49-10.91-26.3-10.91-15.14 0-26.09 10.92t-10.95 25.96q0 15.88 10.95 26.3t26.09 10.42ZM366.65-224.42h227.62l69.55 69.55q-40.97 24.02-87.2 36.78-46.22 12.76-96.59 12.76-50.36 0-96.49-12.47-46.13-12.47-87.26-36.48l70.37-70.14Zm113.26-630.41q78.04 0 146.21 29.66T744.9-744.9q50.61 50.61 80.27 118.75 29.66 68.13 29.66 146.15 0 84.75-34.89 157.61-34.89 72.86-94.27 124.77l-84.71-84.04q43.87-35.13 69.24-86.83Q735.58-420.2 735.58-480q0-106.33-74.64-180.95-74.65-74.63-181-74.63-106.17 0-180.85 74.61-74.67 74.61-74.67 180.91 0 59.89 25.39 111.41 25.4 51.52 69.23 86.75l-84.05 84.05q-59.43-51.95-94.54-124.8-35.12-72.86-35.12-157.35 0-78.03 29.55-146.17 29.55-68.14 80.44-118.74 50.9-50.6 119.05-80.26 68.16-29.66 145.54-29.66Zm.16 190.94q76.38 0 130.1 53.72t53.72 130.1q0 76.39-53.72 130.18-53.72 53.78-130.1 53.78-76.39 0-130.18-53.78-53.78-53.79-53.78-130.18 0-76.38 53.78-130.1 53.79-53.72 130.18-53.72Z"/></svg>