<svg xmlns="http://www.w3.org/2000/svg" height="20" viewBox="0 -960 960 960" width="20"><path d="M479.88-472.46q17.76 0 30.49-12.52 12.74-12.53 12.74-30.29 0-17.75-12.53-30.86-12.52-13.11-30.28-13.11t-31.15 12.9q-13.39 12.9-13.39 30.65 0 17.76 13.18 30.5 13.18 12.73 30.94 12.73Zm-44.4 191.79h87.98l126.76 126.26q-39.76 20.37-81.75 31.3-41.99 10.94-88.39 10.94-46.56 0-89.08-10.97-42.52-10.97-82.28-31.34l126.76-126.19Zm44.53-567.16q75.47 0 142.46 28.81 67 28.81 117.37 79.18 50.37 50.37 79.18 117.38 28.81 67 28.81 142.46 0 82.79-32.99 153.74-32.99 70.96-91.4 121.11L605.85-323.74q33.81-27.22 53.39-67.8 19.59-40.59 19.59-88.46 0-83.05-58.03-141.19t-140.93-58.14q-83.65 0-141.67 58.14-58.03 58.14-58.03 141.19 0 47.87 19.89 88.05 19.9 40.19 54.09 67.65L235.56-205.72q-58.41-50.15-90.9-121.23-32.49-71.08-32.49-153.05 0-75.46 28.81-142.46 28.81-67.01 79.18-117.38 50.37-50.37 117.38-79.18 67.01-28.81 142.47-28.81Zm-.05 250.13q49.17 0 83.45 34.39 34.29 34.39 34.29 83.42 0 49.02-34.39 83.55-34.39 34.54-83.42 34.54-49.02 0-83.55-34.5-34.54-34.49-34.54-83.66 0-49.17 34.5-83.45 34.49-34.29 83.66-34.29Z"/></svg>