<svg xmlns="http://www.w3.org/2000/svg" height="40" viewBox="0 -960 960 960" width="40"><path d="M479.9-480.46q17.82 0 29.68-11.68 11.85-11.67 11.85-29.48 0-17.15-11.85-29.53-11.86-12.37-29.68-12.37-17.15 0-29.62 12.4-12.47 12.4-12.47 29.31 0 18 12.47 29.67 12.47 11.68 29.62 11.68ZM377.09-216.81h206.63l83.03 83.03q-41.84 23.58-88.82 36.01-46.99 12.44-97.85 12.44-50.86 0-97.85-12.2-47-12.19-89.22-35.77l84.08-83.51Zm102.69-658.24q82.19 0 154 31.24 71.82 31.23 125.31 84.72 53.49 53.49 84.72 125.23 31.24 71.73 31.24 153.86 0 89.86-37.01 166.85T737.96-181.64l-93.41-92.74q45.49-36.21 72.07-89.79 26.57-53.57 26.57-115.83 0-109.5-76.89-186.34-76.88-76.85-186.43-76.85-109.15 0-186.1 76.81-76.96 76.81-76.96 186.25 0 62.46 26.61 115.6 26.61 53.14 72.03 89.59l-92.74 92.74q-63.2-54.59-100.29-131.57Q85.33-390.76 85.33-480q0-82.15 30.98-153.9 30.98-71.74 84.68-125.21t125.49-84.7q71.78-31.24 153.3-31.24Zm.38 210.4q76.91 0 130.7 53.79 53.79 53.79 53.79 130.7T610.86-349.3q-53.79 53.95-130.7 53.95T349.3-349.3q-53.95-53.95-53.95-130.86 0-76.91 53.95-130.7 53.95-53.79 130.86-53.79Z"/></svg>