<svg xmlns="http://www.w3.org/2000/svg" height="48" viewBox="0 -960 960 960" width="48"><path d="M480.16-486q13.16 0 22.5-9.42t9.34-22q0-13.58-9.54-23.08-9.54-9.5-22.3-9.5-14.16 0-23.16 9.41-9 9.42-9 22.75 0 12.76 9 22.3 9 9.54 23.16 9.54ZM367-250h226l65 64q-39 25-84 38t-94 13q-49 0-94.08-12.81T302-185l65-65Zm112.31-575q70.74 0 133.72 27 62.97 27 110.43 74.54 47.46 47.54 74.5 110.19T825-480q0 85.58-37 156.29T688-207l-81-81q46-30 75-80.59T711-480q0-96.25-67.32-164.13Q576.35-712 480.18-712 384-712 317.5-644.13 251-576.25 251-480q0 60.82 28 111.41Q307-318 354-288l-81 81q-64-46-101-116.71T135-480q0-70.65 27.5-133.32Q190-676 236.68-723.46q46.68-47.46 108.79-74.5Q407.57-825 479.31-825Zm1.19 149q81.5 0 139 57T677-480.5q0 81.5-57.5 138.5t-139 57Q399-285 342-342t-57-138.5q0-81.5 57-138.5t138.5-57Z"/></svg>