<svg xmlns="http://www.w3.org/2000/svg" height="40" viewBox="0 -960 960 960" width="40"><path d="M479.96-485.98q-14.31 0-24.76-9.92-10.45-9.92-10.45-24.89 0-14.3 10.45-24.88 10.45-10.58 24.76-10.58 14.97 0 25.14 10.59 10.16 10.59 10.16 24.79 0 15.05-10.16 24.97-10.17 9.92-25.14 9.92Zm-67.48 204.23-65.93 65.08q30.39 15.55 63.8 24.02 33.41 8.47 69.65 8.47 36.4 0 70.31-8.17 33.91-8.16 64.55-24.33l-65.34-65.07H412.48Zm67.43-494.07q-61.11 0-114.85 23.12-53.74 23.12-94.2 63.34t-63.57 94.29q-23.11 54.07-23.11 115.2 0 66.7 27.65 124.39 27.64 57.7 74.66 98.67l69.58-68.91q-34.34-27.3-54.33-67.07-19.99-39.78-19.99-87.31 0-82.43 58-140.29 57.99-57.86 140.36-57.86 82.52 0 140.33 57.86 57.81 57.86 57.81 140.29 0 47.47-19.99 86.98-19.98 39.51-54.33 66.74l69.58 68.9q46.94-40.97 74.62-98.26 27.69-57.28 27.69-124 0-61.44-23.11-115.45-23.12-54.01-63.34-94.18-40.22-40.16-94.28-63.31-54.07-23.14-115.18-23.14Zm.04 166.1q-53.62 0-91.73 37.73-38.11 37.74-38.11 92.04 0 53.62 37.94 91.73 37.94 38.11 91.85 38.11 54.44 0 92.13-37.94t37.69-91.85q0-54.44-37.73-92.13-37.74-37.69-92.04-37.69Zm.33 497.72q-76.07 0-143.21-28.89-67.13-28.9-117.21-78.97-50.07-50.08-78.97-117.01-28.89-66.92-28.89-143 0-76.75 28.88-143.59 28.89-66.85 78.94-116.78 50.06-49.94 117.06-78.93 66.99-28.99 143.03-28.99 76.71 0 143.54 28.99 66.84 28.99 116.79 78.93 49.94 49.95 78.93 116.72 28.99 66.78 28.99 143.28 0 75.96-28.99 143.16t-78.92 117.26q-49.94 50.05-116.72 78.94Q556.75-112 480.28-112Z"/></svg>