<svg xmlns="http://www.w3.org/2000/svg" height="40" viewBox="0 -960 960 960" width="40"><path d="M480-655.67q-8.67 0-17.33-4.16-8.67-4.17-14-12.84-28-46.66-68.34-73.66-40.33-27-87-27-62.33 0-104.5 42.5-42.16 42.5-42.16 107.16 0 32 10.5 63.34 10.5 31.33 40 71.16 29.5 39.84 82 92.67t136.5 129.17L480-208.67l67-61q54.67-50 111.5-104t101.83-113h-60.66q-14.34 0-23.84-9.5t-9.5-23.83q0-14.33 9.5-23.83 9.5-9.5 23.84-9.5h147q14.33 0 23.83 9.5 9.5 9.5 9.5 23.83v147q0 14.33-9.5 23.33-9.5 9-23.83 9-14.34 0-23.84-9.5t-9.5-23.83v-72.33q-47.66 60.66-106 116.66-58.33 56-115.33 108l-67 61.34q-9 8.66-21 13-12 4.33-24 4.33t-23.67-4.33q-11.66-4.34-20.66-13.34l-72-65.33q-83.34-76.33-138.17-131.33-54.83-55-87.33-99.67t-45.34-84Q80-580.33 80-623.67q0-92 61.67-154.16Q203.33-840 293.33-840q55.34 0 103.34 25T480-742.67q38.67-48.66 85.67-73 47-24.33 101-24.33 42.33 0 78.66 14.5Q781.67-811 810-784q30 27.67 48.67 64.17 18.66 36.5 18.66 78.16 0 12.67-9.5 21.5-9.5 8.84-22.16 8.84-13.67 0-23.5-9.34-9.84-9.33-12.17-23.66-7-56.34-48.83-92.67-41.84-36.33-94.5-36.33-48 0-87.67 26.66-39.67 26.67-68.33 74-5.34 8.67-13.67 12.84-8.33 4.16-17 4.16Z"/></svg>