<svg xmlns="http://www.w3.org/2000/svg" height="48" viewBox="0 -960 960 960" width="48"><path d="M480-658.5q-10 0-19.5-4.75t-15-15.25q-24.5-49-65.75-76.25T291.5-782q-65.5 0-107.25 43.75T142.5-628q0 33.5 10 65.25T192-491q29.5 40 82.5 94t139 133.5L480-201l70-65.5q58.5-55.5 113.5-108.75T768-493h-68.5q-12.5 0-20.75-8t-8.25-20.5q0-12.5 8.25-20.75t20.75-8.25h147q12 0 20.25 8.25T875-521.5V-375q0 12.5-8.25 20.25T846.5-347q-12.5 0-20.75-8t-8.25-20.5V-463Q764-395.5 706.25-338T585-222.5l-65.5 61q-8 8-18.25 11.75T480-146q-11 0-20.75-3.5T441.5-161l-63-58.5q-92-84-149.5-142.5t-89.5-103.75q-32-45.25-43.25-82.75T85-628q0-89 60-150.25t146.5-61.25q57 0 105 26.75T480-735q41-53.5 87.5-79t101-25.5q43.5 0 80.5 16t65 45q29 29.5 45.25 68T875.5-630q0 11.5-9 20t-21 8.5q-11.5 0-19.25-8.25t-7.75-20.75q-1-58-42-104.75T668.5-782q-46.5 0-88 26.75t-67 76.75Q508-668 499-663.25t-19 4.75Z"/></svg>