<svg xmlns="http://www.w3.org/2000/svg" height="48" viewBox="0 -960 960 960" width="48"><path d="M480-646.96q-6.92 0-13.35-2.64-6.42-2.63-10-10.44-33.34-56.31-73.44-82.98-40.09-26.67-87.48-26.67-62.04 0-103.21 42.21-41.17 42.21-41.17 104.48 0 32.73 10.77 65.06 10.76 32.32 40.07 73.29 29.31 40.96 81.16 94.96 51.84 54 133.61 129.27l46.12 44.04q6.92 6.15 16.92 6.15 10 0 16.92-6.15l57.31-53.58q63.89-59.73 120.81-118.37 56.92-58.63 107.58-132.75H677.96q-7.11 0-11.33-3.77-4.21-3.77-4.21-10.88 0-7.12 4.21-11.33 4.22-4.21 11.33-4.21h134.69q11.62 0 19.29 7.67 7.68 7.68 7.68 20.18v134.19q0 7.11-4.22 10.63-4.21 3.52-10.44 3.52-7.11 0-11.33-3.77-4.21-3.77-4.21-10.88v-117.5Q757.46-430.5 697.4-368.19q-60.05 62.31-127.78 124.54l-52.81 48.3q-7.62 7.62-17.1 10.98Q490.23-181 480-181t-19.6-3.5q-9.36-3.5-16.98-11.12l-48.77-44.65q-82.38-74-135.27-129.23-52.88-55.23-83.73-98.94-30.84-43.71-42.67-79.87-11.83-36.15-11.83-74.69 0-73.62 50.77-125.25 50.77-51.63 123.81-51.63 54.69 0 101.35 29.44Q443.73-741 480-685q38.69-57.73 84.62-86.31 45.92-28.57 99.65-28.57 35.42 0 66.46 12.92 31.04 12.92 54.42 35 24.77 24.11 39.87 55.31 15.1 31.19 15.1 62.8 0 5.73-5.35 10.39-5.35 4.65-11.96 4.65-6.12 0-10.41-4.02-4.28-4.02-3.13-10.75-4.08-59.15-47.58-97.63t-97.42-38.48q-46.89 0-88 26.94-41.12 26.94-74.69 82.71-2.81 7.81-8.73 10.44-5.93 2.64-12.85 2.64Z"/></svg>