<svg xmlns="http://www.w3.org/2000/svg" height="20" viewBox="0 -960 960 960" width="20"><path d="M480.24-649.93q-12.15 0-22.2-5.08-10.04-5.08-16.5-14.99-24.61-33.59-53.28-56.15-28.67-22.57-80.26-22.57-57.28 0-94.59 38.79-37.3 38.78-37.3 96.32 0 29.74 9.88 59.86t37.14 68.13q27.26 38.01 74.91 87.89 47.66 49.88 123.44 119.64l58.52 53.5 54.11-50.56q50.06-47.05 94.32-90.92 44.27-43.86 84.53-89.69h-23.98q-15.65 0-27.33-11.79-11.67-11.8-11.67-27.45 0-15.65 11.79-27.33Q673.57-534 689.22-534h134.15q15.65 0 27.33 11.67 11.67 11.68 11.67 27.33v131.5q0 15.65-11.91 27.58Q838.54-324 821.7-324q-14.94 0-26.13-11.2-11.2-11.19-11.2-26.13l1-59.3q-44.17 54.26-94.15 105.08-49.98 50.81-102.46 97.55l-56.35 50.8q-12.17 9.94-24.96 14.91-12.8 4.96-27.45 4.96-14.65 0-27.45-4.96-12.79-4.97-24.96-14.17l-46.5-41.93q-84.52-75.54-139.54-132.16-55.01-56.62-86.59-103.42-31.59-46.79-44.34-87.12-12.75-40.32-12.75-82.52 0-89.59 60.77-151.35 60.77-61.76 149.36-61.76 49.26 0 94.77 20.05 45.51 20.04 77.23 57.84 33.22-37.8 76.48-57.84 43.26-20.05 91.52-20.05 38.74 0 74.36 13.64t65.1 38.93q32.93 28.02 53.97 64.9 21.05 36.88 21.05 77.62 0 16.13-12.66 25.93-12.67 9.81-29.54 9.81-13.21 0-23.78-9.5t-12.5-23q-4.2-45.96-39.05-83.14-34.86-37.19-96.95-37.19-47.63 0-76.66 23.07Q542.3-702.59 518.7-670q-6.46 9.91-16.38 14.99-9.93 5.08-22.08 5.08Z"/></svg>