<svg xmlns="http://www.w3.org/2000/svg" height="48" viewBox="0 -960 960 960" width="48"><path d="M480-658q-11 0-20.5-4.5T445-678q-30-51-68-74t-81-23q-64 0-104.5 42T151-629q0 34 11 67t40.5 75q29.5 42 81.5 97.5T417-258l41 40q9 8 22 8t22-8l51-50q67-64 120.5-122T783-525H681q-8 0-13-5t-5-12q0-7 5-12.5t13-5.5h131q14 0 23.5 10t9.5 24v131q0 7-5 11.5t-12 4.5q-8 0-13-5t-5-12v-109q-56 81-114 143.5T566-232l-40 38q-10 9-21.5 13.5T480-176q-13 0-24.5-4.5T435-194l-30-27q-91-82-147-142.5T170.5-470q-31.5-46-43-83T116-629q0-75 52-128t128-53q52 0 99 29t85 84q40-56 86-84.5t98-28.5q34 0 65.5 12.5T786-764q27 24 44 54.5t17 61.5q0 6-6.5 11t-13.5 5q-6 0-10.5-2.5T812-641q-8-61-52.5-97.5T664-775q-41 0-81 23.5T514-678q-5 11-14 15.5t-20 4.5Z"/></svg>