<svg xmlns="http://www.w3.org/2000/svg" height="40" viewBox="0 -960 960 960" width="40"><path d="M480.24-660.11q-11.83 0-22.73-5.5-10.89-5.51-17.52-17.43-22.59-43.91-61.67-68.71-39.08-24.81-82.99-24.81-62.44 0-102.57 41.53-40.13 41.53-40.13 104.9 0 32.74 10.38 64.45 10.38 31.7 39.55 71.29 29.18 39.59 80.58 92.39 51.4 52.79 133.67 128.55L480-214.28l64.92-60.55q54.23-51.21 105.96-101.47 51.74-50.27 98.5-109.42h-54.07q-15.49 0-26.01-10.47-10.52-10.48-10.52-25.81 0-15.33 10.64-25.85 10.64-10.53 25.97-10.53h148.83q15 0 25.53 10.53 10.52 10.52 10.52 25.85v146.5q0 15.33-10.76 25.44-10.76 10.1-26.64 10.1-14.78 0-24.9-9.95-10.12-9.96-10.12-24.73v-68.05q-52.35 63.6-107.81 119.06-55.47 55.47-116.28 110.38l-54.62 50.59q-10.19 9.78-22.83 14.42-12.64 4.64-26.31 4.64-13.67 0-25.97-4.4-12.31-4.39-22.5-14.25l-52.41-48.53q-91.4-83.08-149.59-142.47-58.2-59.39-91.54-106.36-33.35-46.98-45.68-86.73-12.34-39.75-12.34-83.79 0-92.62 62.13-155.81 62.12-63.2 153.23-63.2 55.09 0 102.27 24.45 47.18 24.45 82.4 70.92 39.39-48.14 85.32-71.75 45.93-23.62 99.35-23.62 40.58 0 76.94 14.22 36.37 14.22 65.02 40.67 31.28 27.84 51.09 64.89 19.8 37.05 19.8 78.96 0 14.32-11.09 24.39-11.09 10.06-25.99 10.06-13.55 0-23.54-8.92-9.99-8.92-12.28-22.58-5.37-51.26-43.79-90.18-38.42-38.93-96.16-38.93-43.6 0-82.72 24.47-39.11 24.47-62.37 69.05-6.63 11.92-17.15 17.43-10.52 5.5-22.19 5.5Z"/></svg>