<svg xmlns="http://www.w3.org/2000/svg" height="24" viewBox="0 -960 960 960" width="24"><path d="M480-659.5q-10 0-19.25-4.5T445-678.5q-25-38.5-62.25-62T303-764q-58 0-98 39t-40 98.5q0 30.5 11.5 62t40.5 70.75q29 39.25 78.75 89.75T422-284.5l58 52.5 60.5-54q49.5-45 102.25-96T737-485.5h-51.5q-15.5 0-26.5-11T648-523q0-15.5 11-26.5t26.5-11h147q15.5 0 26.5 11t11 26.5v146.5q0 15.5-11 26.25t-26.5 10.75q-15.5 0-26.5-11T795-377v-59.5Q749.5-380 692.75-325.25T582-222l-52 46.5q-10.5 9.5-23.5 14.25T480-156.5q-13.5 0-26.5-4.75T430-176l-58.5-52.5q-77.5-70-131-123.75T153.25-452q-33.75-46-48.5-87.75T90-626.5q0-91 61-151.75T303-839q51.5 0 97.75 22T480-754q34.5-41 80-63t97-22q34.5 0 69 11.5t63.5 34.5q32.5 25.5 54.75 60t22.25 76q0 13.5-10.25 22.75T832-625q-15.5 0-26.75-10.5t-14.75-26q-11-49.5-50.25-76T657-764q-44.5 0-80.75 23.5t-61.25 62q-6.5 10-15.75 14.5T480-659.5Z"/></svg>