<svg xmlns="http://www.w3.org/2000/svg" height="20" viewBox="0 -960 960 960" width="20"><path d="M480.57-647.39q-13.09 0-24.33-5.55-11.24-5.54-18.5-16.06-26.35-32.48-54.31-54.59Q355.48-745.7 305-745.7q-55.3 0-92.48 38.31-37.17 38.3-37.17 95.04 0 29.57 9.72 59.35 9.71 29.78 37.15 67.72 27.43 37.93 75.02 87.65 47.59 49.72 123.89 119.15l58.87 53 51.35-47.61q46.61-42.74 90.54-85.02 43.93-42.28 81.37-84.32h-6.13q-20.09 0-34.54-14.74-14.46-14.74-14.46-34.83 0-20.09 14.74-34.54Q677.61-541 697.7-541h137.08q20.09 0 34.55 14.46 14.45 14.45 14.45 34.54v132q0 20.09-15.02 34.54Q853.74-311 830.83-311q-18.4 0-31.72-13.33-13.33-13.32-13.33-31.71l1-34.18q-41.95 49.44-90.08 97.55-48.13 48.11-96.27 90.67l-54.91 49.17q-14.95 12.4-31.19 18.59-16.24 6.2-34.33 6.2t-34.33-6.2q-16.24-6.19-31.19-18.02l-47-42.39q-85.87-76.74-142.31-134.52-56.43-57.79-88.91-106.03-32.48-48.23-45.98-90.28-13.5-42.04-13.5-86.87 0-97.48 65.87-164.41Q208.52-843.7 305-843.7q49.43 0 95.37 18.74 45.93 18.74 79.63 53.91 33.7-35.17 78.13-53.91Q602.57-843.7 651-843.7q41.57 0 77.85 13.16 36.28 13.15 66.41 37.45 34.39 26.87 58.63 62.59 24.24 35.72 24.24 76.28 0 20.22-15.52 32.39-15.52 12.18-36.31 12.18-15.69 0-29.3-10-13.61-10-19-25-9.83-41.26-43.67-71.15-33.85-29.9-83.33-29.9-47.22 0-75.02 22.61-27.81 22.61-53.15 54.09-7.26 10.52-18.22 16.06-10.96 5.55-24.04 5.55Z"/></svg>