<svg xmlns="http://www.w3.org/2000/svg" version="1.1" width="3300" height="2000"><g id="Notes"><style>
    text {
      font-family: monospace;
      text-anchor: middle;
    }
    text.emphasis {
      font-weight:bold;
    }
    text.lanchor {
      text-anchor: start;
    }
  </style><rect height="2200" id="artboard" fill="white" width="3300" x="0" y="0"/><line id="" style="fill:none;stroke:black;stroke-width:0.5;" x1="263" x2="3036" y1="292" y2="292"/><text class="lanchor emphasis" transform="matrix(1 0 0 1 263 322)">Weight/Scale Variations</text><text transform="matrix(1 0 0 1 559.711 322)">Ultralight</text><text transform="matrix(1 0 0 1 856.422 322)">Thin</text><text transform="matrix(1 0 0 1 1153.13 322)">Light</text><text transform="matrix(1 0 0 1 1449.84 322)">Regular</text><text transform="matrix(1 0 0 1 1746.56 322)">Medium</text><text transform="matrix(1 0 0 1 2043.27 322)">Semibold</text><text transform="matrix(1 0 0 1 2339.98 322)">Bold</text><text transform="matrix(1 0 0 1 2636.69 322)">Heavy</text><text transform="matrix(1 0 0 1 2933.4 322)">Black</text><text id="template-version" style="text-anchor: end;" transform="matrix(1 0 0 1 3036 1933)">Template v.1.0</text><text class="lanchor" transform="matrix(1 0 0 1 263 726)">Small</text><text class="lanchor" transform="matrix(1 0 0 1 263 1156)">Medium</text><text class="lanchor" transform="matrix(1 0 0 1 263 1586)">Large</text></g><g id="Guides"><g id="H-reference" style="fill:#27AAE1;stroke:none;" transform="matrix(1 0 0 1 339 696)"><path d="M 54.9316 0 L 57.666 0 L 30.5664 -70.459 L 28.0762 -70.459 L 0.976562 0 L 3.66211 0 L 12.9395 -24.4629 L 45.7031 -24.4629 Z M 29.1992 -67.0898 L 29.4434 -67.0898 L 44.8242 -26.709 L 13.8184 -26.709 Z"/></g><line id="Baseline-S" style="fill:none;stroke:#27AAE1;opacity:1;stroke-width:0.577;" x1="263" x2="3036" y1="696" y2="696"/><line id="Capline-S" style="fill:none;stroke:#27AAE1;opacity:1;stroke-width:0.577;" x1="263" x2="3036" y1="625.541" y2="625.541"/><g id="H-reference" style="fill:#27AAE1;stroke:none;" transform="matrix(1 0 0 1 339 1126)"><path d="M 54.9316 0 L 57.666 0 L 30.5664 -70.459 L 28.0762 -70.459 L 0.976562 0 L 3.66211 0 L 12.9395 -24.4629 L 45.7031 -24.4629 Z M 29.1992 -67.0898 L 29.4434 -67.0898 L 44.8242 -26.709 L 13.8184 -26.709 Z"/></g><line id="Baseline-M" style="fill:none;stroke:#27AAE1;opacity:1;stroke-width:0.577;" x1="263" x2="3036" y1="1126" y2="1126"/><line id="Capline-M" style="fill:none;stroke:#27AAE1;opacity:1;stroke-width:0.577;" x1="263" x2="3036" y1="1055.54" y2="1055.54"/><g id="H-reference" style="fill:#27AAE1;stroke:none;" transform="matrix(1 0 0 1 339 1556)"><path d="M 54.9316 0 L 57.666 0 L 30.5664 -70.459 L 28.0762 -70.459 L 0.976562 0 L 3.66211 0 L 12.9395 -24.4629 L 45.7031 -24.4629 Z M 29.1992 -67.0898 L 29.4434 -67.0898 L 44.8242 -26.709 L 13.8184 -26.709 Z"/></g><line id="Baseline-L" style="fill:none;stroke:#27AAE1;opacity:1;stroke-width:0.577;" x1="263" x2="3036" y1="1556" y2="1556"/><line id="Capline-L" style="fill:none;stroke:#27AAE1;opacity:1;stroke-width:0.577;" x1="263" x2="3036" y1="1485.54" y2="1485.54"/><rect height="119.336" id="left-margin" style="fill:darkred;stroke:none;opacity:0.4;" width="12.4512" x="1394.06" y="1030.79"/><rect height="119.336" id="right-margin" style="fill:darkgreen;stroke:none;opacity:0.4;" width="12.4512" x="1502.5112" y="1030.79"/><rect x="1406.5112" y="1045" width="96" height="96" fill="none" stroke="blue" stroke-dasharray="5"/><rect x="1394.06" y="1030.79" width="120.9024" height="119.336" fill="none" stroke="blue"/></g><g id="Symbols"><g id="Bold-L" transform="matrix(1 0 0 1 2266 1556)"><path d="M30.718 -81.912 H124.082 V11.452 H30.718 V-81.912 Z M16.125 -96.666 V26.045 H138.836 V-96.666 H16.125 Z M49.262 -45.066  39.99 -53.532 Q48.053 -60.869 57.365 -64.416 Q66.677 -67.964 77.4 -67.964 Q88.365 -67.964 97.556 -64.577 Q106.748 -61.191 114.891 -53.693 L105.78 -45.066 Q100.217 -51.032 92.638 -53.411 Q85.059 -55.789 77.4 -55.789 Q69.741 -55.789 62.242 -53.411 Q54.744 -51.032 49.262 -45.066 Z M66.758 -24.829  58.453 -33.94 Q62.404 -37.165 67.282 -39.019 Q72.159 -40.874 77.561 -40.874 Q82.963 -40.874 87.962 -38.979 Q92.961 -37.084 97.073 -33.94 L88.204 -24.991 Q86.027 -27.087 83.407 -27.974 Q80.786 -28.861 77.803 -28.861 Q74.578 -28.861 71.797 -27.974 Q69.015 -27.087 66.758 -24.829 Z M73.369 -5.721 Q71.837 -7.253 71.837 -9.672 Q71.837 -12.091 73.369 -13.663 Q74.901 -15.235 77.4 -15.235 Q79.899 -15.235 81.472 -13.663 Q83.044 -12.091 83.044 -9.672 Q83.044 -7.253 81.472 -5.721 Q79.899 -4.189 77.4 -4.189 Q74.901 -4.189 73.369 -5.721 Z"/></g><g id="Semibold-L" transform="matrix(1 0 0 1 1970.27 1556)"><path d="M30.157 -82.473 H124.643 V12.013 H30.157 V-82.473 Z M17.878 -94.844 V24.292 H137.014 V-94.844 H17.878 Z M47.999 -43.033  39.569 -50.307 Q47.282 -58.134 56.908 -61.962 Q66.537 -65.79 77.4 -65.79 Q88.505 -65.79 98.046 -62.089 Q107.589 -58.387 115.381 -50.399 L107.043 -43.033 Q101.409 -49.42 93.514 -52.148 Q85.621 -54.878 77.4 -54.878 Q69.179 -54.878 61.367 -52.148 Q53.553 -49.42 47.999 -43.033 Z M65.706 -23.426  58.032 -31.276 Q61.983 -34.922 67.001 -36.986 Q72.019 -39.052 77.561 -39.052 Q83.173 -39.052 88.278 -36.946 Q93.381 -34.841 97.422 -31.276 L89.326 -23.518 Q87.009 -25.895 84.037 -27.063 Q81.067 -28.23 77.734 -28.23 Q74.228 -28.23 71.166 -27.063 Q68.104 -25.895 65.706 -23.426 Z M73.685 -5.897 Q72.258 -7.322 72.258 -9.567 Q72.258 -11.81 73.685 -13.277 Q75.11 -14.745 77.4 -14.745 Q79.69 -14.745 81.156 -13.277 Q82.623 -11.81 82.623 -9.567 Q82.623 -7.322 81.156 -5.897 Q79.69 -4.47 77.4 -4.47 Q75.11 -4.47 73.685 -5.897 Z"/></g><g id="Medium-L" transform="matrix(1 0 0 1 1674.31 1556)"><path d="M29.736 -82.894 H125.064 V12.434 H29.736 V-82.894 Z M19.192 -93.477 V22.978 H135.647 V-93.477 H19.192 Z M47.053 -41.507  39.253 -47.888 Q46.703 -56.084 56.567 -60.122 Q66.432 -64.16 77.4 -64.16 Q88.61 -64.16 98.416 -60.222 Q108.22 -56.284 115.75 -47.927 L107.989 -41.507 Q102.302 -48.211 94.172 -51.202 Q86.041 -54.195 77.4 -54.195 Q68.759 -54.195 60.709 -51.202 Q52.659 -48.211 47.053 -41.507 Z M64.918 -22.375  57.716 -29.278 Q61.667 -33.239 66.791 -35.461 Q71.914 -37.684 77.561 -37.684 Q83.331 -37.684 88.513 -35.42 Q93.698 -33.158 97.685 -29.278 L90.166 -22.414 Q87.744 -25.002 84.511 -26.379 Q81.276 -27.756 77.681 -27.756 Q73.965 -27.756 70.692 -26.379 Q67.42 -25.002 64.918 -22.375 Z M73.92 -6.028 Q72.574 -7.376 72.574 -9.488 Q72.574 -11.6 73.92 -12.989 Q75.268 -14.376 77.4 -14.376 Q79.532 -14.376 80.92 -12.989 Q82.307 -11.6 82.307 -9.488 Q82.307 -7.376 80.92 -6.028 Q79.532 -4.68 77.4 -4.68 Q75.268 -4.68 73.92 -6.028 Z"/></g><g id="Regular-L" transform="matrix(1 0 0 1 1378.56 1556)"><path d="M29.428 -83.202 H125.372 V12.742 H29.428 V-83.202 Z M20.156 -92.474 V22.014 H134.644 V-92.474 H20.156 Z M46.359 -40.39  39.023 -46.114 Q46.279 -54.58 56.317 -58.772 Q66.354 -62.965 77.4 -62.965 Q88.688 -62.965 98.685 -58.853 Q108.683 -54.741 116.019 -46.114 L108.683 -40.39 Q102.958 -47.324 94.654 -50.508 Q86.349 -53.693 77.4 -53.693 Q68.451 -53.693 60.227 -50.508 Q52.003 -47.324 46.359 -40.39 Z M64.339 -21.604  57.486 -27.812 Q61.436 -32.005 66.637 -34.343 Q71.837 -36.681 77.561 -36.681 Q83.447 -36.681 88.688 -34.303 Q93.928 -31.924 97.879 -27.812 L90.784 -21.604 Q88.284 -24.346 84.858 -25.877 Q81.431 -27.409 77.642 -27.409 Q73.772 -27.409 70.345 -25.877 Q66.919 -24.346 64.339 -21.604 Z M74.094 -6.124 Q72.804 -7.414 72.804 -9.43 Q72.804 -11.446 74.094 -12.776 Q75.384 -14.106 77.4 -14.106 Q79.416 -14.106 80.746 -12.776 Q82.076 -11.446 82.076 -9.43 Q82.076 -7.414 80.746 -6.124 Q79.416 -4.834 77.4 -4.834 Q75.384 -4.834 74.094 -6.124 Z"/></g><g id="Light-L" transform="matrix(1 0 0 1 1082.77 1556)"><path d="M30.141 -82.489 H124.659 V12.029 H30.141 V-82.489 Z M23.072 -89.558 V19.098 H131.728 V-89.558 H23.072 Z M46.732 -40.824  41.038 -45.153 Q47.922 -53.122 57.402 -57.083 Q66.882 -61.043 77.4 -61.043 Q88.13 -61.043 97.506 -57.133 Q106.885 -53.222 113.941 -45.153 L108.249 -40.824 Q102.616 -47.633 94.391 -50.804 Q86.164 -53.972 77.4 -53.972 Q68.636 -53.972 60.475 -50.834 Q52.313 -47.696 46.732 -40.824 Z M64.09 -22.659  58.819 -27.379 Q62.521 -31.292 67.303 -33.459 Q72.085 -35.627 77.5 -35.627 Q83.013 -35.627 87.881 -33.419 Q92.749 -31.212 96.452 -27.379 L90.969 -22.659 Q88.439 -25.524 84.935 -27.04 Q81.431 -28.557 77.581 -28.557 Q73.617 -28.557 70.144 -27.04 Q66.67 -25.524 64.09 -22.659 Z M74.389 -6.419 Q73.177 -7.632 73.177 -9.43 Q73.177 -11.228 74.389 -12.497 Q75.602 -13.764 77.4 -13.764 Q79.198 -13.764 80.467 -12.497 Q81.734 -11.228 81.734 -9.43 Q81.734 -7.632 80.467 -6.419 Q79.198 -5.207 77.4 -5.207 Q75.602 -5.207 74.389 -6.419 Z"/></g><g id="Thin-L" transform="matrix(1 0 0 1 787.282 1556)"><path d="M30.855 -81.775 H123.945 V11.315 H30.855 V-81.775 Z M25.985 -86.645 V16.185 H128.815 V-86.645 H25.985 Z M47.104 -41.258  43.054 -44.192 Q49.565 -51.665 58.487 -55.393 Q67.409 -59.119 77.4 -59.119 Q87.572 -59.119 96.328 -55.41 Q105.085 -51.702 111.864 -44.192 L107.815 -41.258 Q102.276 -47.945 94.126 -51.097 Q85.977 -54.251 77.4 -54.251 Q68.823 -54.251 60.724 -51.16 Q52.624 -48.069 47.104 -41.258 Z M63.842 -23.714  60.153 -26.945 Q63.607 -30.578 67.97 -32.576 Q72.334 -34.572 77.437 -34.572 Q82.579 -34.572 87.075 -32.536 Q91.571 -30.497 95.026 -26.945 L91.156 -23.714 Q88.594 -26.703 85.013 -28.203 Q81.431 -29.704 77.518 -29.704 Q73.462 -29.704 69.942 -28.203 Q66.422 -26.703 63.842 -23.714 Z M74.683 -6.713 Q73.549 -7.848 73.549 -9.43 Q73.549 -11.012 74.683 -12.218 Q75.818 -13.424 77.4 -13.424 Q78.982 -13.424 80.188 -12.218 Q81.394 -11.012 81.394 -9.43 Q81.394 -7.848 80.188 -6.713 Q78.982 -5.579 77.4 -5.579 Q75.818 -5.579 74.683 -6.713 Z"/></g><g id="Ultralight-L" transform="matrix(1 0 0 1 491.205 1556)"><path d="M31.283 -81.347 H123.517 V10.888 H31.283 V-81.347 Z M27.735 -84.895 V14.435 H127.065 V-84.895 H27.735 Z M47.327 -41.519  44.263 -43.615 Q50.552 -50.791 59.138 -54.378 Q67.725 -57.966 77.4 -57.966 Q87.236 -57.966 95.621 -54.378 Q104.006 -50.791 110.618 -43.615 L107.554 -41.519 Q102.071 -48.13 93.968 -51.274 Q85.866 -54.419 77.4 -54.419 Q68.934 -54.419 60.872 -51.355 Q52.809 -48.291 47.327 -41.519 Z M63.694 -24.346  60.953 -26.684 Q64.258 -30.151 68.37 -32.045 Q72.482 -33.94 77.4 -33.94 Q82.318 -33.94 86.591 -32.005 Q90.864 -30.07 94.17 -26.684 L91.267 -24.346 Q88.688 -27.409 85.059 -28.901 Q81.431 -30.392 77.481 -30.392 Q73.369 -30.392 69.821 -28.901 Q66.274 -27.409 63.694 -24.346 Z M74.86 -6.89 Q73.772 -7.979 73.772 -9.43 Q73.772 -10.881 74.86 -12.05 Q75.949 -13.219 77.4 -13.219 Q78.851 -13.219 80.02 -12.05 Q81.189 -10.881 81.189 -9.43 Q81.189 -7.979 80.02 -6.89 Q78.851 -5.802 77.4 -5.802 Q75.949 -5.802 74.86 -6.89 Z"/></g><g id="Bold-M" transform="matrix(1 0 0 1 2281.8 1126)"><path d="M27 -68.23 H93 V-2.23 H27 V-68.23 Z M12 -83.23 V12.77 H108 V-83.23 H12 Z M40.188 -42.73  31.438 -51.73 Q37.438 -57.105 44.688 -59.605 Q51.938 -62.105 60 -62.105 Q68.062 -62.105 75.219 -59.667 Q82.375 -57.23 88.375 -51.98 L79.75 -42.73 Q75.812 -46.48 70.562 -48.105 Q65.312 -49.73 60 -49.73 Q54.562 -49.73 49.375 -48.105 Q44.188 -46.48 40.188 -42.73 Z M53.375 -27.292  45.125 -36.73 Q48.25 -39.105 52.094 -40.417 Q55.938 -41.73 60.125 -41.73 Q64.188 -41.73 68.094 -40.417 Q72 -39.105 75.125 -36.73 L66.625 -27.417 Q65.125 -28.542 63.562 -29.074 Q62 -29.605 60.188 -29.605 Q58.25 -29.605 56.562 -29.074 Q54.875 -28.542 53.375 -27.292 Z M56 -11.48 Q54.312 -13.167 54.312 -15.48 Q54.312 -17.792 56 -19.417 Q57.688 -21.042 60 -21.042 Q62.312 -21.042 64 -19.417 Q65.688 -17.792 65.688 -15.48 Q65.688 -13.167 64 -11.48 Q62.312 -9.792 60 -9.792 Q57.688 -9.792 56 -11.48 Z"/></g><g id="Semibold-M" transform="matrix(1 0 0 1 1985.97 1126)"><path d="M26.402 -68.827 H93.597 V-1.632 H26.402 V-68.827 Z M13.848 -81.382 V10.923 H106.153 V-81.382 H13.848 Z M38.884 -40.61  31.003 -48.415 Q36.676 -54.225 44.225 -57.051 Q51.775 -59.877 60 -59.877 Q68.171 -59.877 75.681 -57.086 Q83.19 -54.295 88.864 -48.556 L81.054 -40.61 Q77.007 -44.795 71.459 -46.801 Q65.91 -48.806 60 -48.806 Q54.019 -48.806 48.505 -46.801 Q42.992 -44.795 38.884 -40.61 Z M52.288 -25.825  44.69 -34.012 Q47.815 -36.822 51.795 -38.352 Q55.775 -39.882 60.125 -39.882 Q64.405 -39.882 68.392 -38.352 Q72.38 -36.822 75.505 -34.012 L67.766 -25.896 Q66.157 -27.347 64.215 -28.15 Q62.271 -28.952 60.134 -28.952 Q57.924 -28.952 55.91 -28.15 Q53.896 -27.347 52.288 -25.825 Z M56.299 -11.67 Q54.748 -13.221 54.748 -15.371 Q54.748 -17.521 56.299 -19.037 Q57.85 -20.554 60 -20.554 Q62.15 -20.554 63.701 -19.037 Q65.252 -17.521 65.252 -15.371 Q65.252 -13.221 63.701 -11.67 Q62.15 -10.119 60 -10.119 Q57.85 -10.119 56.299 -11.67 Z"/></g><g id="Medium-M" transform="matrix(1 0 0 1 1689.91 1126)"><path d="M25.954 -69.276 H94.046 V-1.184 H25.954 V-69.276 Z M15.234 -79.996 V9.536 H104.766 V-79.996 H15.234 Z M37.905 -39.021  30.676 -45.929 Q36.106 -52.064 43.879 -55.135 Q51.653 -58.205 60 -58.205 Q68.252 -58.205 76.028 -55.15 Q83.801 -52.094 89.231 -45.989 L82.032 -39.021 Q77.905 -43.531 72.131 -45.822 Q66.359 -48.114 60 -48.114 Q53.611 -48.114 47.854 -45.822 Q42.095 -43.531 37.905 -39.021 Z M51.472 -24.725  44.364 -31.975 Q47.489 -35.11 51.571 -36.804 Q55.653 -38.496 60.125 -38.496 Q64.567 -38.496 68.616 -36.804 Q72.666 -35.11 75.791 -31.975 L68.623 -24.755 Q66.933 -26.45 64.704 -27.457 Q62.475 -28.464 60.093 -28.464 Q57.679 -28.464 55.421 -27.457 Q53.163 -26.45 51.472 -24.725 Z M56.523 -11.812 Q55.074 -13.262 55.074 -15.29 Q55.074 -17.317 56.523 -18.751 Q57.972 -20.186 60 -20.186 Q62.028 -20.186 63.477 -18.751 Q64.926 -17.317 64.926 -15.29 Q64.926 -13.262 63.477 -11.812 Q62.028 -10.364 60 -10.364 Q57.972 -10.364 56.523 -11.812 Z"/></g><g id="Regular-M" transform="matrix(1 0 0 1 1394.06 1126)"><path d="M25.625 -69.605 H94.375 V-0.855 H25.625 V-69.605 Z M16.25 -78.98 V8.52 H103.75 V-78.98 H16.25 Z M37.188 -37.855  30.438 -44.105 Q35.688 -50.48 43.625 -53.73 Q51.562 -56.98 60 -56.98 Q68.312 -56.98 76.281 -53.73 Q84.25 -50.48 89.5 -44.105 L82.75 -37.855 Q78.562 -42.605 72.625 -45.105 Q66.688 -47.605 60 -47.605 Q53.312 -47.605 47.375 -45.105 Q41.438 -42.605 37.188 -37.855 Z M50.875 -23.917  44.125 -30.48 Q47.25 -33.855 51.406 -35.667 Q55.562 -37.48 60.125 -37.48 Q64.688 -37.48 68.781 -35.667 Q72.875 -33.855 76 -30.48 L69.25 -23.917 Q67.5 -25.792 65.062 -26.949 Q62.625 -28.105 60.062 -28.105 Q57.5 -28.105 55.062 -26.949 Q52.625 -25.792 50.875 -23.917 Z M56.688 -11.917 Q55.312 -13.292 55.312 -15.23 Q55.312 -17.167 56.688 -18.542 Q58.062 -19.917 60 -19.917 Q61.938 -19.917 63.312 -18.542 Q64.688 -17.167 64.688 -15.23 Q64.688 -13.292 63.312 -11.917 Q61.938 -10.542 60 -10.542 Q58.062 -10.542 56.688 -11.917 Z"/></g><g id="Light-M" transform="matrix(1 0 0 1 1098.18 1126)"><path d="M25.505 -69.725 H94.495 V-0.735 H25.505 V-69.725 Z M18.51 -76.72 V6.26 H101.49 V-76.72 H18.51 Z M37.235 -38.576  32.049 -43.167 Q37.106 -49.254 44.539 -52.275 Q51.971 -55.297 60 -55.297 Q67.976 -55.297 75.391 -52.275 Q82.808 -49.254 87.889 -43.167 L82.703 -38.576 Q78.539 -43.422 72.565 -45.862 Q66.591 -48.302 60 -48.302 Q53.409 -48.302 47.422 -45.886 Q41.438 -43.47 37.235 -38.576 Z M50.443 -25.024  45.351 -29.855 Q48.236 -32.965 52.044 -34.646 Q55.851 -36.326 60.078 -36.326 Q64.302 -36.326 68.108 -34.646 Q71.914 -32.965 74.797 -29.855 L69.683 -25.024 Q67.812 -27.042 65.291 -28.186 Q62.769 -29.331 60.062 -29.331 Q57.331 -29.331 54.81 -28.186 Q52.289 -27.042 50.443 -25.024 Z M57.133 -12.362 Q55.938 -13.557 55.938 -15.23 Q55.938 -16.902 57.133 -18.11 Q58.328 -19.316 60 -19.316 Q61.672 -19.316 62.88 -18.11 Q64.086 -16.902 64.086 -15.23 Q64.086 -13.557 62.88 -12.362 Q61.672 -11.167 60 -11.167 Q58.328 -11.167 57.133 -12.362 Z"/></g><g id="Thin-M" transform="matrix(1 0 0 1 802.565 1126)"><path d="M25.385 -69.845 H94.615 V-0.615 H25.385 V-69.845 Z M20.769 -74.461 V4.001 H99.231 V-74.461 H20.769 Z M37.284 -39.297  33.659 -42.23 Q38.524 -48.027 45.453 -50.821 Q52.38 -53.615 60 -53.615 Q67.64 -53.615 74.502 -50.821 Q81.365 -48.027 86.279 -42.23 L82.654 -39.297 Q78.515 -44.24 72.505 -46.62 Q66.495 -48.999 60 -48.999 Q53.505 -48.999 47.471 -46.667 Q41.438 -44.336 37.284 -39.297 Z M50.01 -26.129  46.578 -29.23 Q49.221 -32.076 52.68 -33.624 Q56.14 -35.172 60.029 -35.172 Q63.919 -35.172 67.435 -33.624 Q70.953 -32.076 73.596 -29.23 L70.115 -26.129 Q68.125 -28.292 65.519 -29.425 Q62.914 -30.557 60.062 -30.557 Q57.164 -30.557 54.557 -29.425 Q51.953 -28.292 50.01 -26.129 Z M57.578 -12.807 Q56.562 -13.821 56.562 -15.23 Q56.562 -16.639 57.578 -17.677 Q58.591 -18.715 60 -18.715 Q61.409 -18.715 62.447 -17.677 Q63.485 -16.639 63.485 -15.23 Q63.485 -13.821 62.447 -12.807 Q61.409 -11.792 60 -11.792 Q58.591 -11.792 57.578 -12.807 Z"/></g><g id="Ultralight-M" transform="matrix(1 0 0 1 506.415 1126)"><path d="M25.312 -69.917 H94.688 V-0.542 H25.312 V-69.917 Z M22.125 -73.105 V2.645 H97.875 V-73.105 H22.125 Z M37.312 -39.73  34.625 -41.667 Q39.375 -47.292 46 -49.949 Q52.625 -52.605 60 -52.605 Q67.438 -52.605 73.969 -49.949 Q80.5 -47.292 85.312 -41.667 L82.625 -39.73 Q78.5 -44.73 72.469 -47.074 Q66.438 -49.417 60 -49.417 Q53.562 -49.417 47.5 -47.136 Q41.438 -44.855 37.312 -39.73 Z M49.75 -26.792  47.312 -28.855 Q49.812 -31.542 53.062 -33.011 Q56.312 -34.48 60 -34.48 Q63.688 -34.48 67.031 -33.011 Q70.375 -31.542 72.875 -28.855 L70.375 -26.792 Q68.312 -29.042 65.656 -30.167 Q63 -31.292 60.062 -31.292 Q57.062 -31.292 54.406 -30.167 Q51.75 -29.042 49.75 -26.792 Z M57.844 -13.074 Q56.938 -13.98 56.938 -15.23 Q56.938 -16.48 57.844 -17.417 Q58.75 -18.355 60 -18.355 Q61.25 -18.355 62.188 -17.417 Q63.125 -16.48 63.125 -15.23 Q63.125 -13.98 62.188 -13.074 Q61.25 -12.167 60 -12.167 Q58.75 -12.167 57.844 -13.074 Z"/></g><g id="Bold-S" transform="matrix(1 0 0 1 2294.23 696)"><path d="M22.881 -59.689 H71.799 V-10.771 H22.881 V-59.689 Z M11.835 -70.735 V0.275 H82.845 V-70.735 H11.835 Z M33.68 -40.95  26.579 -47.164 Q31.412 -51.306 36.294 -52.982 Q41.176 -54.659 47.34 -54.659 Q53.701 -54.659 58.46 -53.032 Q63.219 -51.404 68.249 -47.361 L61.049 -40.95 Q58.238 -43.514 54.638 -44.599 Q51.038 -45.684 47.34 -45.684 Q43.543 -45.684 39.992 -44.599 Q36.442 -43.514 33.68 -40.95 Z M42.803 -29.954  36.59 -36.512 Q38.858 -38.189 41.595 -39.175 Q44.332 -40.161 47.34 -40.161 Q50.249 -40.161 53.184 -39.175 Q56.118 -38.189 58.386 -36.512 L51.778 -30.052 Q50.595 -30.94 49.707 -31.162 Q48.819 -31.384 47.488 -31.384 Q46.058 -31.384 45.022 -31.162 Q43.987 -30.94 42.803 -29.954 Z M44.48 -18.365 Q43.247 -19.598 43.247 -21.225 Q43.247 -22.853 44.48 -24.036 Q45.713 -25.22 47.34 -25.22 Q48.967 -25.22 50.2 -24.036 Q51.433 -22.853 51.433 -21.225 Q51.433 -19.598 50.2 -18.365 Q48.967 -17.132 47.34 -17.132 Q45.713 -17.132 44.48 -18.365 Z"/></g><g id="Semibold-S" transform="matrix(1 0 0 1 1998.1 696)"><path d="M22.41 -60.16 H72.27 V-10.3 H22.41 V-60.16 Z M13.293 -69.277 V-1.183 H81.387 V-69.277 H13.293 Z M32.652 -39.278  26.236 -44.548 Q30.811 -49.034 35.929 -50.968 Q41.048 -52.902 47.34 -52.902 Q53.787 -52.902 58.825 -50.995 Q63.862 -49.089 68.634 -44.66 L62.078 -39.278 Q59.181 -42.185 55.345 -43.571 Q51.51 -44.955 47.34 -44.955 Q43.114 -44.955 39.306 -43.571 Q35.499 -42.185 32.652 -39.278 Z M41.945 -28.796  36.247 -34.368 Q38.515 -36.388 41.359 -37.546 Q44.204 -38.704 47.34 -38.704 Q50.421 -38.704 53.419 -37.546 Q56.417 -36.388 58.686 -34.368 L52.679 -28.852 Q51.409 -29.997 50.222 -30.433 Q49.033 -30.869 47.446 -30.869 Q45.8 -30.869 44.507 -30.433 Q43.215 -29.997 41.945 -28.796 Z M44.716 -18.515 Q43.59 -19.64 43.59 -21.139 Q43.59 -22.639 44.716 -23.736 Q45.841 -24.834 47.34 -24.834 Q48.839 -24.834 49.964 -23.736 Q51.09 -22.639 51.09 -21.139 Q51.09 -19.64 49.964 -18.515 Q48.839 -17.39 47.34 -17.39 Q45.841 -17.39 44.716 -18.515 Z"/></g><g id="Medium-S" transform="matrix(1 0 0 1 1701.85 696)"><path d="M22.056 -60.514 H72.624 V-9.946 H22.056 V-60.514 Z M14.386 -68.184 V-2.276 H80.294 V-68.184 H14.386 Z M31.88 -38.024  25.979 -42.586 Q30.362 -47.328 35.656 -49.456 Q40.951 -51.582 47.34 -51.582 Q53.851 -51.582 59.098 -49.468 Q64.344 -47.352 68.924 -42.634 L62.85 -38.024 Q59.889 -41.188 55.876 -42.798 Q51.864 -44.409 47.34 -44.409 Q42.792 -44.409 38.792 -42.798 Q34.791 -41.188 31.88 -38.024 Z M41.302 -27.928  35.989 -32.76 Q38.258 -35.037 41.183 -36.324 Q44.107 -37.61 47.34 -37.61 Q50.549 -37.61 53.596 -36.324 Q56.643 -35.037 58.912 -32.76 L53.354 -27.951 Q52.021 -29.289 50.607 -29.886 Q49.194 -30.483 47.413 -30.483 Q45.607 -30.483 44.122 -29.886 Q42.636 -29.289 41.302 -27.928 Z M44.892 -18.627 Q43.848 -19.673 43.848 -21.075 Q43.848 -22.478 44.892 -23.51 Q45.938 -24.544 47.34 -24.544 Q48.742 -24.544 49.788 -23.51 Q50.832 -22.478 50.832 -21.075 Q50.832 -19.673 49.788 -18.627 Q48.742 -17.583 47.34 -17.583 Q45.938 -17.583 44.892 -18.627 Z"/></g><g id="Regular-S" transform="matrix(1 0 0 1 1405.73 696)"><path d="M21.796 -60.774 H72.884 V-9.686 H21.796 V-60.774 Z M15.188 -67.382 V-3.078 H79.492 V-67.382 H15.188 Z M31.313 -37.104  25.79 -41.147 Q30.031 -46.079 35.456 -48.347 Q40.88 -50.615 47.34 -50.615 Q53.899 -50.615 59.298 -48.347 Q64.698 -46.079 69.136 -41.147 L63.416 -37.104 Q60.408 -40.457 56.266 -42.232 Q52.123 -44.008 47.34 -44.008 Q42.557 -44.008 38.414 -42.232 Q34.272 -40.457 31.313 -37.104 Z M40.831 -27.291  35.801 -31.581 Q38.069 -34.046 41.053 -35.427 Q44.036 -36.808 47.34 -36.808 Q50.644 -36.808 53.726 -35.427 Q56.808 -34.046 59.076 -31.581 L53.849 -27.291 Q52.468 -28.77 50.891 -29.485 Q49.312 -30.2 47.389 -30.2 Q45.466 -30.2 43.839 -29.485 Q42.212 -28.77 40.831 -27.291 Z M45.022 -18.71 Q44.036 -19.697 44.036 -21.028 Q44.036 -22.359 45.022 -23.346 Q46.009 -24.332 47.34 -24.332 Q48.671 -24.332 49.658 -23.346 Q50.644 -22.359 50.644 -21.028 Q50.644 -19.697 49.658 -18.71 Q48.671 -17.724 47.34 -17.724 Q46.009 -17.724 45.022 -18.71 Z"/></g><g id="Light-S" transform="matrix(1 0 0 1 1109.75 696)"><path d="M21.701 -60.869 H72.979 V-9.591 H21.701 V-60.869 Z M16.971 -65.599 V-4.861 H77.709 V-65.599 H16.971 Z M31.351 -37.673  27.062 -40.408 Q31.151 -45.111 36.177 -47.199 Q41.203 -49.288 47.34 -49.288 Q53.633 -49.288 58.596 -47.199 Q63.56 -45.111 67.865 -40.408 L63.378 -37.673 Q60.389 -41.102 56.218 -42.83 Q52.047 -44.558 47.34 -44.558 Q42.633 -44.558 38.452 -42.849 Q34.272 -41.14 31.351 -37.673 Z M40.49 -28.164  36.768 -31.088 Q38.847 -33.344 41.556 -34.621 Q44.264 -35.898 47.303 -35.898 Q50.34 -35.898 53.194 -34.621 Q56.05 -33.344 58.128 -31.088 L54.19 -28.164 Q52.715 -29.756 51.071 -30.461 Q49.426 -31.168 47.389 -31.168 Q45.333 -31.168 43.64 -30.461 Q41.946 -29.756 40.49 -28.164 Z M45.373 -19.061 Q44.529 -19.906 44.529 -21.028 Q44.529 -22.15 45.373 -23.004 Q46.218 -23.858 47.34 -23.858 Q48.462 -23.858 49.316 -23.004 Q50.17 -22.15 50.17 -21.028 Q50.17 -19.906 49.316 -19.061 Q48.462 -18.217 47.34 -18.217 Q46.218 -18.217 45.373 -19.061 Z"/></g><g id="Thin-S" transform="matrix(1 0 0 1 814.015 696)"><path d="M21.607 -60.963 H73.073 V-9.497 H21.607 V-60.963 Z M18.754 -63.816 V-6.644 H75.926 V-63.816 H18.754 Z M31.389 -38.242  28.332 -39.668 Q32.269 -44.144 36.898 -46.052 Q41.525 -47.961 47.34 -47.961 Q53.368 -47.961 57.895 -46.052 Q62.422 -44.144 66.595 -39.668 L63.34 -38.242 Q60.37 -41.747 56.171 -43.428 Q51.971 -45.107 47.34 -45.107 Q42.709 -45.107 38.49 -43.465 Q34.272 -41.823 31.389 -38.242 Z M40.148 -29.035  37.736 -30.595 Q39.625 -32.643 42.058 -33.815 Q44.492 -34.987 47.264 -34.987 Q50.037 -34.987 52.664 -33.815 Q55.291 -32.643 57.18 -30.595 L54.532 -29.035 Q52.962 -30.743 51.25 -31.439 Q49.54 -32.135 47.389 -32.135 Q45.201 -32.135 43.44 -31.439 Q41.681 -30.743 40.148 -29.035 Z M45.725 -19.413 Q45.022 -20.114 45.022 -21.028 Q45.022 -21.942 45.725 -22.663 Q46.426 -23.383 47.34 -23.383 Q48.254 -23.383 48.975 -22.663 Q49.695 -21.942 49.695 -21.028 Q49.695 -20.114 48.975 -19.413 Q48.254 -18.71 47.34 -18.71 Q46.426 -18.71 45.725 -19.413 Z"/></g><g id="Ultralight-S" transform="matrix(1 0 0 1 517.792 696)"><path d="M21.55 -61.02 H73.13 V-9.44 H21.55 V-61.02 Z M19.824 -62.746 V-7.714 H74.856 V-62.746 H19.824 Z M31.412 -38.583  29.094 -39.224 Q32.941 -43.564 37.33 -45.364 Q41.718 -47.164 47.34 -47.164 Q53.208 -47.164 57.474 -45.364 Q61.739 -43.564 65.832 -39.224 L63.317 -38.583 Q60.358 -42.134 56.142 -43.786 Q51.926 -45.438 47.34 -45.438 Q42.754 -45.438 38.513 -43.835 Q34.272 -42.232 31.412 -38.583 Z M39.943 -29.559  38.316 -30.299 Q40.091 -32.222 42.359 -33.331 Q44.628 -34.441 47.241 -34.441 Q49.855 -34.441 52.345 -33.331 Q54.836 -32.222 56.611 -30.299 L54.737 -29.559 Q53.11 -31.334 51.359 -32.025 Q49.608 -32.715 47.389 -32.715 Q45.121 -32.715 43.321 -32.025 Q41.521 -31.334 39.943 -29.559 Z M45.935 -19.623 Q45.318 -20.239 45.318 -21.028 Q45.318 -21.817 45.935 -22.458 Q46.551 -23.099 47.34 -23.099 Q48.129 -23.099 48.77 -22.458 Q49.411 -21.817 49.411 -21.028 Q49.411 -20.239 48.77 -19.623 Q48.129 -19.006 47.34 -19.006 Q46.551 -19.006 45.935 -19.623 Z"/></g></g></svg>