<svg xmlns="http://www.w3.org/2000/svg" height="24" viewBox="0 -960 960 960" width="24"><path d="M132.31-300q-13.93 0-23.12-9.19-9.19-9.19-9.19-23.12v-295.38q0-13.93 9.19-23.12 9.19-9.19 23.12-9.19h449.54q8.53 0 14.27 5.73 5.73 5.73 5.73 14.27t-5.73 14.27q-5.74 5.73-14.27 5.73H500v280h62.23q8.54 0 14.27 5.73t5.73 14.27q0 8.54-5.73 14.27T562.23-300H132.31Zm586.54-148.46h-87.62q-9.92 0-14.65-8.31t.96-16.77l103.23-162.54q2.69-3.69 6.11-4.3 3.43-.62 6.35.61 2.92 1.23 5.39 4.15 2.46 2.93 1.23 7.08l-18.7 117h87.62q9.92 0 14.65 8.31t-.96 16.77L719.23-323.92q-2.69 3.69-6.11 4.3-3.43.62-6.35-.61-2.92-1.23-5.39-4.15-2.46-2.93-1.23-7.08l18.7-117Z"/></svg>