<svg xmlns="http://www.w3.org/2000/svg" height="40" viewBox="0 -960 960 960" width="40"><path d="M136-308q-11.65 0-19.82-8.18Q108-324.35 108-336v-288q0-11.65 8.18-19.82Q124.35-652 136-652h446.33q5.32 0 8.66 3.35 3.34 3.34 3.34 8.66t-3.34 8.66q-3.34 3.33-8.66 3.33H492v296h73q5.32 0 8.66 3.35 3.34 3.34 3.34 8.66t-3.34 8.66Q570.32-308 565-308H136Zm592.67-145H642q-8.44 0-12.56-7.17-4.11-7.16.05-14.42l71.84-124.08q2.34-4.33 6.59-6 4.25-1.66 8.43.1 4.19 1.76 6.42 5.5 2.23 3.74 1.9 8.4L711.33-507H798q8.44 0 12.56 7.17 4.11 7.16-.05 14.42l-71.84 124.08q-2.34 4.33-6.67 5.66-4.33 1.34-8.33 0-4-1.33-6.34-5.16-2.33-3.84-2-8.5L728.67-453Z"/></svg>