<svg xmlns="http://www.w3.org/2000/svg" height="20" viewBox="0 -960 960 960" width="20"><path d="m381-379 36-36-40-39h77.88q41.19 0 70.65-28.95Q555-511.9 555-554.45t-29.13-72.05Q496.74-656 455-656H307v51h148.42q20.65 0 35.12 14.95Q505-575.1 505-554.55T490.56-519q-14.44 15-35.19 15H377l40-40-36-35-98 100 98 100ZM276.1-182q-40.1 0-74.8-20.35Q166.6-222.7 146-257H14v-225q0-53 32.5-85.5T132-600h-1l53-136q10.01-29.64 34.77-47.82Q243.52-802 273.67-802H547q26.55 0 48.79 13.73Q618.02-774.54 631-752l84 134 112 10q53 5 85.5 40t32.5 88v223H812q-20.6 34.3-55.2 54.65T682.1-182q-40.1 0-74.24-20.35-34.13-20.35-54.45-54.65H405q-21 34-54.66 54.5Q316.69-182 276.1-182Zm1.14-117Q292-299 301-309.21q9-10.21 9-24.79v-40h340v40q0 14.58 9.99 24.79Q669.97-299 684.24-299q14.26 0 24.01-10.21Q718-319.42 718-334v-40h112v-118l-181-14-112-179H290l-77 202h-81v109h111v40q0 14.58 9.99 24.79Q262.97-299 277.24-299ZM481-492Z"/></svg>