<svg xmlns="http://www.w3.org/2000/svg" height="48" viewBox="0 -960 960 960" width="48"><path d="m374-389 16.2-16.56-45.49-43.04h121.48q38.59 0 66.7-27.3Q561-503.21 561-540.65q0-38.35-28.5-65.85Q504-634 466.49-634H314v23h152.2q28.15 0 49.48 21.09Q537-568.82 537-541q0 29-21.32 49-21.31 20-49.46 20H345l45-44-16-15-72 70 72 72ZM267.54-196q-35.98 0-63.66-22.19-27.68-22.2-45.99-53.81H36v-196q0-27.77 19.61-47.39Q75.22-535 103-535h44l63-173q6.83-15.81 21.38-25.91Q245.93-744 263-744h290q15.19 0 27.52 7.31T602-717l99 162 151 11q28 3 50 27t22 52v193.39H801.11Q785-240 757.22-218t-63.72 22q-35.94 0-63.22-22.19Q603-240.39 585-272H375q-17.19 31.61-44.84 53.81Q302.51-196 267.54-196Z"/></svg>