<svg xmlns="http://www.w3.org/2000/svg" height="40" viewBox="0 -960 960 960" width="40"><path d="m366-362.67 34.13-34.04-36.65-37.35h101.65q47.39 0 80.3-33.9 32.9-33.9 32.9-81.81 0-48.9-33.33-82.56Q511.67-666 465-666H289.33v48.67h175.8q26 0 45.1 19.83t19.1 47.5q0 27.33-19.09 46.83-19.1 19.5-45.09 19.5H363.67L400-521l-34-34.33L271.67-459 366-362.67Zm-114.98 224q-43.02 0-77.95-24.29-34.94-24.3-54.4-61.71h-140v-256.66q0-34 25-59t59-25H105l63-180.34q9.33-25 30.44-40.33 21.11-15.33 47.56-15.33h312.67q22.46 0 41.23 10.66 18.77 10.67 30.43 30L732-587l163.33 13.33q34 3.34 60 31.5 26 28.17 26 62.17v255.33h-140q-18.66 38.34-53.66 62.17T710-138.67q-42.67 0-77.33-24.29-34.67-24.3-54-61.71H382.33q-19.45 38.08-54.37 62.04-34.91 23.96-76.94 23.96Z"/></svg>