<svg xmlns="http://www.w3.org/2000/svg" height="48" viewBox="0 -960 960 960" width="48"><path d="m365.77-368.57 29.66-28.66-41.19-40.92h109.97q45.84 0 78.03-32.5 32.19-32.51 32.19-78.56 0-46.7-32.91-78.9-32.92-32.19-77.64-32.19H293.57v40.63h171.68q27.45 0 47.6 21 20.15 21 20.15 49.52 0 29.72-20.17 49.72t-47.73 20H354.82l40.25-41.48L366-548.87 278.13-459l87.64 90.43Zm-114.28 227.4q-41.36 0-76.11-23.85t-54.4-61.02H-18.83v-255.31q0-32.91 24.84-58.04 24.84-25.13 58.34-25.13h41.82L169.04-744q9.46-24.57 30.21-39.98 20.76-15.41 47.88-15.41H559q21.38 0 40.39 10.98t30.57 29.28L730.7-586.52l161.95 14q32.96 3 59.85 31.89t26.89 62.41v252.18H839.13q-18.56 38-53.08 61.43-34.51 23.44-77.13 23.44t-76.68-23.85q-34.07-23.85-54.2-61.02H382.39q-19.75 37.61-54.64 61.24-34.89 23.63-76.26 23.63Zm1.24-82.61q25.01 0 43.6-18.9 18.58-18.89 18.58-45.89v-21.21h332.18v21.21q0 27 18.91 45.89 18.92 18.9 45.27 18.9 24.71 0 43.11-18.9 18.4-18.89 18.4-45.89v-21.21h125.44v-178.67l-216.18-18.9-123.43-209.87H247.52l-83.25 234.87H63.78v172.57h126v21.21q0 27 18.36 45.89 18.36 18.9 44.59 18.9ZM480-470Z"/></svg>