<svg xmlns="http://www.w3.org/2000/svg" height="40" viewBox="0 -960 960 960" width="40"><path d="m376.67-392.5 15.83-16.17-43.33-41.16H466.5q36.61 0 64.3-25.85 27.7-25.86 27.7-61.53 0-35.96-27.53-62.71t-64.29-26.75H318.17V-604H466.5q27.77 0 48.3 19.78 20.53 19.77 20.53 46.89 0 27.62-20.53 46.64t-48.3 19.02H349.17l43.33-41.83-15.83-15.5L306-461l70.67 68.5ZM273-213.67q-33.9 0-60.62-20.75-26.71-20.75-42.33-51.6H53.67v-185.83q0-22.96 16.09-39.05 16.1-16.1 39.07-16.1h50.84l62.16-168.5q6.32-13.26 19.06-22.05 12.73-8.78 28.44-8.78h280.78q13.22 0 24.59 6.37t19 17.73l97.47 155.9L849.67-534q22.83 2.33 39.75 20.5 16.91 18.17 16.91 41.25v186.51H788.66q-14.49 30.61-40.85 51.34-26.35 20.73-60.48 20.73-34.12 0-60.48-20.75-26.35-20.75-41.43-51.58H374.57q-15.07 30.83-41.62 51.58-26.55 20.75-59.95 20.75Zm.03-23.16q34.9 0 58.69-22.28 23.78-22.28 23.78-51.39v1.33h249.83v-1.33q0 29.11 24 51.39 23.99 22.28 58.22 22.28 34.95 0 58.62-22.28 23.66-22.28 23.66-51.39v1.33h113.34v-168q0-13-8.5-22.33-8.5-9.33-21.5-9.67l-175.64-14.99-112.2-179.01H251.17L176-503.83h-67.17q-14 0-23 9.33t-9 22.67v162.66h113.34v-1.33q0 29.11 24.33 51.39 24.34 22.28 58.53 22.28ZM480-470Z"/></svg>