<svg xmlns="http://www.w3.org/2000/svg" height="24" viewBox="0 -960 960 960" width="24"><path d="m378-391.5 17.5-18.5-42-38.5h113q37 0 64.5-25.75T558.5-536q0-36.5-27-62.75t-65-26.25h-148v25h148q27 0 46.75 19T533-536q0 26-19.75 44.5T466.5-473h-113l42-39.5L378-530l-72 69 72 69.5ZM275-217q-33.5 0-60.25-20.25T172.5-288H57v-181.5q0-24.5 16.5-41t41-16.5H162l61.5-164.5q6-14 19-22.75T271-723h278.5q13.5 0 24.75 6.5T593-699l96.5 153L844-534q24.5 2 41.75 20.5t17.25 43V-288H786.5q-15 30.5-41.5 50.75T685-217q-33.5 0-60-20.25T583-288H376.5q-15 30.5-41.75 50.75T275-217Z"/></svg>