<svg xmlns="http://www.w3.org/2000/svg" height="24" viewBox="0 -960 960 960" width="24"><path d="m366-352 44-45-29-30h83.69q50.22 0 85.26-35.97Q585-498.93 585-550.47 585-602 550-638t-85.16-36H282v64h183q23 0 40 17.45 17 17.46 17 42.55 0 24-17 41.5T465-491h-84l29-30-44-45-105 107 105 107ZM250.55-128Q206-128 169-151.5T112-214H-32v-256q0-43.72 31.14-74.86T74-576h23l61-173q10-29 33.87-46 23.86-17 54.13-17h312q24.62 0 46.31 12T639-766l99 169 148 12q44 4 75 37.5t31 77.5v256H848q-20 39-57 62.5T710-128q-44 0-81-23.5T572-214H389q-20 39-56.95 62.5-36.94 23.5-81.5 23.5Zm.69-105Q273-233 288-249.04q15-16.04 15-38.96v-31h355v31q0 22.92 15.5 38.96T710.47-233q21.47 0 36.5-16.04Q762-265.08 762-288v-31h125v-160l-212-18-122-210H254l-83 236H74v152h125v31q0 22.92 15.24 38.96 15.23 16.04 37 16.04ZM480-470Z"/></svg>