<svg xmlns="http://www.w3.org/2000/svg" height="20" viewBox="0 -960 960 960" width="20"><path d="m384.3-386.17 32.13-32.13-41.13-39.07h80.56q39.04 0 66.69-27.02 27.65-27.01 27.65-66.72 0-39.72-27.46-67.31-27.46-27.6-66.81-27.6H314.17v45.19h142q20.4 0 35.15 14.52 14.75 14.51 14.75 34.85 0 20.33-14.74 34.89Q476.6-502 456.14-502H375.3l41.13-40.13-32.13-31.07-93.13 93.77 93.13 93.26ZM282.17-206.78q-36.82 0-69-19.42-32.18-19.41-50.61-52.28H38.78v-214.08q0-42.25 25.38-67.63 25.38-25.38 67.62-25.38h17.59l53.8-135.1q8.79-25.47 29.89-41.01 21.11-15.54 46.72-15.54h265.18q23.18 0 42.24 11.58 19.05 11.57 30.24 31.2l84.3 131.37 125.02 10.81q42.31 3.63 67.88 31.24 25.58 27.61 25.58 69.91v212.63h-124.6q-18.07 32.94-50.5 52.32-32.42 19.38-69.24 19.38-36.81 0-68.43-19.42-31.62-19.41-49.68-52.28H401.15q-18.82 32.57-50.25 52.13-31.43 19.57-68.73 19.57Zm1.63-92.44q18.79 0 30.4-12.62 11.6-12.61 11.6-30.64v-28.43h308.4v28.43q0 18.03 12.8 30.64 12.8 12.62 31.08 12.62 18.29 0 30.65-12.62 12.36-12.61 12.36-30.64v-28.43h108.69v-129.92l-179.54-13.93-108.89-170.02H288.59l-74.63 191.65h-81.74v122.22h107.69v28.43q0 18.03 12.8 30.64 12.8 12.62 31.09 12.62ZM481-492Z"/></svg>