<svg xmlns="http://www.w3.org/2000/svg" height="20" viewBox="0 -960 960 960" width="20"><path d="m385.38-398.31 18.31-20.07-50.77-47.7h103.54q34.59 0 59.87-25.03 25.29-25.03 25.29-60.15 0-35.89-24.86-61.01-24.85-25.11-60.15-25.11H324v26.61h132.77q23.15 0 40.8 17.71 17.66 17.71 17.66 42.16 0 23.36-17.66 40.78-17.65 17.43-40.8 17.43H352.92l50.77-50.23-18.31-17.54-81 80.69 81 81.46ZM282.55-224q-34.17 0-62.98-20.58-28.82-20.58-46.65-51.27H56v-189.69q0-38.34 22.14-60.48 22.13-22.13 60.48-22.13h23.61l58.54-147.23q6.7-20.72 22.94-32.67Q259.94-760 279.67-760h266.25q17.79 0 32.82 9.31 15.03 9.31 24.72 24.92l89 139.39L815-576.92q38.62 3.23 63.31 30.04Q903-520.08 903-481.46v185.61H785.31q-17.06 30.69-45.88 51.27Q710.62-224 677-224q-33.62 0-61.87-20.58t-45.8-51.27H390.31q-17.46 30.39-45.28 51.12Q317.21-224 282.55-224Zm1.69-57q25.91 0 43.03-17.37 17.11-17.37 17.11-40.09v-14.39h272.24v14.39q0 22.72 18.36 40.09Q653.35-281 678.47-281q25.89 0 43.4-17.37 17.51-17.37 17.51-40.09v-14.39H848v-141.69q0-10-6.54-16.92-6.54-6.92-16.54-7.69l-163.61-11.93L551.92-703H276.69l-74.15 191.85h-62.92q-10.77 0-17.7 6.92-6.92 6.92-6.92 17.69v133.69h107.62v14.39q0 22.72 18.1 40.09Q258.82-281 284.24-281ZM481-492Z"/></svg>