<svg xmlns="http://www.w3.org/2000/svg" height="24" viewBox="0 -960 960 960" width="24"><path d="m368.69-363.15 35.16-36.54-34.39-33.85h95.92q46.16 0 79.04-33.31 32.89-33.3 32.89-80.07 0-48.16-32.7-81.46-32.69-33.31-79.23-33.31H292v51.31h173.38q24.54 0 42.89 18.65t18.35 44.81q0 25.15-18.35 43.61t-42.89 18.46h-95.92l34.39-34.61-35.16-35.77-95 95.85 95 96.23ZM256-148q-42.31 0-76.61-23.12-34.31-23.11-53.93-59.8H-12v-234.85q0-41.31 28.5-69.81t69.81-28.5h25.31l61.77-172.61q8.84-25.54 30.15-40.42Q224.85-792 251-792h305.46q22.31 0 41.12 10.66 18.8 10.65 30.65 29.96l99 166.69L871-573.46q41.31 3.61 71.15 35.77Q972-505.54 972-464.23v233.31H834.15q-19.23 36.69-53.54 59.8Q746.31-148 705-148t-75.62-23.12q-34.3-23.11-53.92-59.8H385.15q-19.23 36.69-53.53 59.8Q297.31-148 256-148Z"/></svg>