<svg xmlns="http://www.w3.org/2000/svg" height="48" viewBox="0 -960 960 960" width="48"><path d="m367.87-372.24 27.06-26.63-40.56-41.06h110.56q44.57 0 75.64-31.32 31.06-31.32 31.06-75.88 0-45.13-31.31-76.7-31.32-31.56-75.39-31.56H297.24v38.13h167.69q28.57 0 48.6 20.56 20.04 20.57 20.04 49.57 0 28.56-20.04 48.85Q493.5-478 464.93-478H354.37l40.56-41.63-27.06-26.5-86.13 87.7 86.13 86.19ZM254.74-150.87q-41.2 0-74.89-23.25-33.7-23.25-52.39-59.88H-9.13v-249.46q0-30.91 22.62-53.81 22.62-22.9 54.1-22.9h45.67l62.37-177.24q9.13-22.83 29.17-37.56 20.05-14.73 45.94-14.73h306.89q20.76 0 38.77 10.17 18.01 10.16 29.21 28.92l99.8 169.44 162.68 13.87q30.98 2.56 56.29 29.41 25.32 26.85 25.32 57.83V-234H832.54q-18.19 37.07-52.14 60.1-33.94 23.03-75.14 23.03-41.19 0-74.61-23.25-33.41-23.25-52.17-59.88H382.02q-18.69 37.07-52.92 60.1-34.23 23.03-74.36 23.03Z"/></svg>