<svg xmlns="http://www.w3.org/2000/svg" height="20" viewBox="0 -960 960 960" width="20"><path d="m388.31-399.19 22.73-23.12-45-42.34h90.84q34.75 0 59.72-24.05 24.98-24.05 24.98-58.31 0-34.64-24.78-59.09-24.78-24.44-59.97-24.44H326.04v31.77h130.84q21.54 0 37.29 15.1 15.75 15.11 15.75 36.31 0 21.21-15.75 36.17t-37.29 14.96h-90.84l45-43.42-22.73-22.04-82.77 81.31 82.77 81.19Zm-98.39 155.11q-32.17 0-59.97-18.56-27.81-18.56-42.83-48.75H76.08v-189.19q0-28.43 15.91-44.35 15.92-15.92 44.36-15.92h40.42l56.27-138.88q6.69-18.05 21.53-29.12 14.83-11.07 33.02-11.07h254.84q16.58 0 30.4 8.5t22.17 22.5l86.19 130.77 143.04 11.92q28.5 2.31 43.6 18.96 15.09 16.66 15.09 45.21v190.67H771.25q-14.52 30.25-42.4 48.78-27.89 18.53-60.08 18.53t-59.33-18.56q-27.14-18.56-41.8-48.75H391.67q-15.25 29.89-42.24 48.6-27 18.71-59.51 18.71Zm1.37-47.96q26.52 0 43.83-17.29 17.3-17.29 17.3-40.94v-9.08h255.35v9.08q0 23.65 18.29 40.94 18.28 17.29 44.19 17.29 26.29 0 44.15-17.29 17.87-17.29 17.87-40.94v-9.08h104.69v-147.23q0-5-3.27-8.46-3.27-3.46-8.27-3.85l-169.68-13.14-105.28-159.93h-268.5L210-512.89h-72.65q-5.39 0-8.85 3.47-3.46 3.46-3.46 8.84v141.23h103.69v9.08q0 23.65 18.31 40.94t44.25 17.29ZM481-492Z"/></svg>