<svg xmlns="http://www.w3.org/2000/svg" height="24" viewBox="0 -960 960 960" width="24"><path d="m371.28-363.8 39.48-39.48-29.48-28.74h83.98q46.74 0 79.35-32.24 32.61-32.24 32.61-79.46 0-46.48-32.49-79.08-32.49-32.61-79.47-32.61H293.8v56.21h171.46q23.24 0 39.86 16.24t16.62 39.24q0 23.24-16.62 39.48T465.26-488h-83.98l29.48-28.48-39.48-39.74-96.48 96.46 96.48 95.96ZM262.07-161.87q-40.46 0-74.3-21.24-33.84-21.24-52.03-57.48H1.87v-235.15q0-35.78 25.11-60.89t60.89-25.11h33.65L180.3-723.8q8.98-24.68 30.29-39.5 21.3-14.83 47.48-14.83h295.41q22.17 0 40.87 10.47 18.69 10.46 29.91 29.4l95.28 157.02 154.42 12.78q35.78 2.98 59.97 29.05 24.2 26.06 24.2 61.84v236.98H824.02q-18.19 36.24-52.28 57.48-34.09 21.24-74.54 21.24-40.46 0-74.3-21.24-33.83-21.24-52.03-57.48H388.89q-18.19 36.24-52.28 57.48-34.09 21.24-74.54 21.24Z"/></svg>