<svg xmlns="http://www.w3.org/2000/svg" height="40" viewBox="0 -960 960 960" width="40"><path d="m371.9-380.87 21.57-22.25-42.81-40.94h114.93q40.97 0 70.7-29.2 29.74-29.19 29.74-70.27 0-41.29-29.86-70.6-29.86-29.31-70.3-29.31h-159.1v30.98H465.9q27.37 0 47.97 20.65 20.59 20.65 20.59 48.48 0 28.39-20.59 48.13-20.59 19.74-47.95 19.74H350.85l42.48-41.95-21.43-21-78.95 78.13 78.95 79.41Zm-109.53 202.2q-37.67 0-67.62-22.75-29.95-22.76-48.63-56.07H18.67v-211.28q0-31.3 22.24-53.55 22.25-22.24 53.55-22.24h39.77l63-174.44q7.41-19.19 24.01-30.76 16.61-11.57 36.81-11.57h296.51q17.21 0 31.78 8.39 14.56 8.38 24.51 23.04l99.61 164.95 150.26 11.28q31.69 3.08 56.15 29.58 24.46 26.5 24.46 58.19v208.61H813.19q-17.19 33.52-47.21 56.07-30.01 22.55-67.77 22.55-37.77 0-67.45-22.75-29.68-22.76-48.25-56.07H377.72q-17.92 33.46-47.8 56.14-29.87 22.68-67.55 22.68Zm.56-50.84q30.89 0 52.3-20.74 21.41-20.73 21.41-48.26v-9.82h287.87v9.82q0 27.53 21.93 48.26 21.93 20.74 52.55 20.74 31.11 0 52.08-20.74 20.98-20.73 20.98-48.26v-9.82h119.26v-167.91q0-10-6.54-17.18t-16.54-7.44l-187.69-15.78-117.69-194.51H248.46l-78.13 216.77H94.46q-10.77 0-17.69 7.17-6.92 7.18-6.92 17.44v161.44H189.1v9.82q0 27.53 21.66 48.26 21.67 20.74 52.17 20.74ZM480-470Z"/></svg>