<svg xmlns="http://www.w3.org/2000/svg" height="24" viewBox="0 -960 960 960" width="24"><path d="M365.43-352 410-397.1l-29.77-29.88h83.68q50.2 0 85.65-35.72Q585-498.41 585-550.18q0-51.53-35.38-87.39T464-673.43H282v64h182.92q22.99 0 40.03 17.52Q522-574.38 522-549.72q0 24.29-17.1 41.79-17.11 17.5-40.26 17.5h-84.38l29.81-30.48-44.64-44.52L261.57-459l103.86 107ZM250.61-120.09q-45.18 0-83.31-23.21-38.13-23.22-59.82-62.22H-39.91v-255.44q0-51.3 35.83-87.12 35.82-35.83 87.12-35.83h7.74l59.31-167.35q10.52-31.42 36.67-50.04 26.15-18.61 59.24-18.61h312q26.88 0 50.56 13.26 23.67 13.26 37.22 36.69l96.74 165.05 133.31 11.43q50.78 4.57 87.43 43.72 36.65 39.15 36.65 90.5v253.74H851.96q-21.7 39-59.6 62.22-37.89 23.21-82.97 23.21-45.09 0-83.22-23.21-38.13-23.22-59.82-62.22H393.52q-21.69 39-59.71 62.22-38.03 23.21-83.2 23.21Zm.76-121.39q17.67 0 30.13-13.4 12.46-13.41 12.46-32.55v-40.05h372.52v40.05q0 19.14 13.06 32.55 13.07 13.4 31.06 13.4 17.38 0 30.15-13.4 12.77-13.41 12.77-32.55v-40.05h125v-143.44l-208.61-17.6-122-210H259.65l-83 236H82.48v135.04h125v40.05q0 19.14 12.8 32.55 12.8 13.4 31.09 13.4ZM480-470Z"/></svg>