<svg xmlns="http://www.w3.org/2000/svg" height="20" viewBox="0 -960 960 960" width="20"><path d="m385.38-398.31 18.31-20.07-50.77-47.7h103.85q34.38 0 59.61-25.06 25.24-25.07 25.24-59.66 0-36.35-24.85-61.47-24.85-25.11-60-25.11H324v26.61h132.77q23.15 0 40.8 17.76 17.66 17.75 17.66 42.11 0 23.36-17.66 40.78-17.65 17.43-40.8 17.43H352.92l50.77-50.23-18.31-17.54-81 80.69 81 81.46ZM283-224q-34.62 0-63.43-20.58-28.82-20.58-46.65-51.27H56v-189.69q0-38.61 22-60.61t60.62-22h23.61l58.54-147.23q6.7-20.72 23.07-32.67Q260.21-760 279.67-760h266.25q18.17 0 33.01 9.31 14.84 9.31 24.53 24.92l89 139.39L815-576.92q38.62 3.23 63.31 30.04Q903-520.08 903-481.46v185.61H785.31q-17.06 30.69-45.88 51.27Q710.62-224 677-224q-33.62 0-61.87-20.58t-45.8-51.27H390.31q-17.46 30.39-45.34 51.12Q317.1-224 283-224Z"/></svg>