<svg xmlns="http://www.w3.org/2000/svg" height="20" viewBox="0 -960 960 960" width="20"><path d="m381-379 36-36-40-39h78q41.07 0 70.53-28.95 29.47-28.95 29.47-72 0-42.05-28.97-71.55Q497.07-656 455-656H307v51h148q21.07 0 35.54 14.95 14.46 14.95 14.46 35Q505-534 490.54-519q-14.47 15-35.54 15h-78l40-40-36-35-98 100 98 100ZM276-182q-40 0-74.7-20.35T146-257H14v-225q0-53 32.5-85.5T132-600h-1l53-136q10.01-29.64 34.77-47.82Q243.52-802 273.67-802H547q26.55 0 48.78 13.5Q618-775 631-752l84 134 112 10q53 5 85.5 40t32.5 88v223H812q-20.6 34.3-55.3 54.65Q722-182 682-182t-74.14-20.35Q573.73-222.7 553.41-257H405q-21 34-54.76 54.5Q316.49-182 276-182Z"/></svg>