<svg xmlns="http://www.w3.org/2000/svg" height="20" viewBox="0 -960 960 960" width="20"><path d="M379.76-376 416-413.04l-40.32-39.95h79.68q42.28 0 71.96-30.31 29.68-30.31 29.68-74 0-43.58-29.63-74.02-29.62-30.44-71.88-30.44H304v52h151.97q20.06 0 35.05 15.43Q506-578.89 506-556.93q0 21.17-15.01 36.67-15 15.5-35.14 15.5h-80.16l40.34-41.2-36.27-35.8L279.24-479l100.52 103ZM272.58-180.65q-39.82 0-74.5-21.23t-53.99-56.53H12.65v-231.76q0-46.93 29.12-76.06 29.13-29.12 76.06-29.12h12.54l56.28-145.61q9.24-28.66 31.82-45.53 22.58-16.86 51.2-16.86H549q24.13 0 45.38 12.54 21.26 12.53 33.49 34.14l88.04 142.32 124.79 10.76q46.87 4.24 76.26 36.13 29.39 31.89 29.39 79v230.05H814.67q-19.31 35.3-53.89 56.53-34.58 21.23-74.04 21.23-39.46 0-73.57-21.23-34.12-21.23-53.15-56.53H399.91q-19.71 35-53.37 56.38-33.66 21.38-73.96 21.38Zm1.71-103.94q18.04 0 29.46-13.17 11.42-13.18 11.42-32v-32.83h330.42v32.83q0 18.82 12.72 32 12.72 13.17 30.22 13.17 17.24 0 29.56-13.17 12.32-13.18 12.32-32v-32.83h114v-136.99l-187.56-14.83-114-185H281.39l-78 208h-84.8v128.82h113v32.83q0 18.82 12.45 32 12.46 13.17 30.25 13.17ZM481-492Z"/></svg>