<svg xmlns="http://www.w3.org/2000/svg" height="24" viewBox="0 -960 960 960" width="24"><path d="m372-365 39-39-29-28.5h83.5q46.5 0 78.75-32T576.5-543q0-46-32.25-78.25T465.5-653.5H295v55.5h170.5q23 0 39.5 16t16.5 39q0 23-16.5 39t-39.5 16H382l29-28-39-39.5-96 95.5 96 95ZM263.5-170q-39.5 0-72.5-21t-50-57H10v-233q0-31 22-53t53-22h42.5L187-719.5q8.5-23 28.25-36.75T259.5-770H553q20.5 0 38 9.75T619-733l96 157.5L878.5-562q31 2.5 51.25 24.5t20.25 53V-248H819q-17 36-50.25 57T696-170q-39.5 0-72.5-21t-50-57h-187q-17 36-50.25 57t-72.75 21Z"/></svg>