<svg xmlns="http://www.w3.org/2000/svg" height="40" viewBox="0 -960 960 960" width="40"><path d="m372.56-379.48 24.97-24.67-39.03-38.3h107.38q41.83 0 71.53-29.14 29.7-29.13 29.7-70.46 0-41.27-29.74-70.89-29.74-29.62-71.36-29.62H305.76v35.28h160.12q27.02 0 46.34 19.07 19.32 19.08 19.32 46.16 0 26.72-19.32 45.58t-46.34 18.86H358.5l39.03-38.45L372.56-541l-81.74 81.03 81.74 80.49ZM264.49-184.74q-37.44 0-67.57-21.83-30.12-21.83-46.58-55.64H24.74v-219.98q0-24.65 17.78-42.42 17.77-17.77 42.42-17.77h53.5l62.16-171.99q7.42-18 23.56-29.44 16.14-11.45 36.46-11.45h292.85q16.73 0 31.16 8.05 14.42 8.04 23.39 22.72l98.84 162.05 167.73 13.67q24.37 2.23 42.52 21.73 18.15 19.5 18.15 43.87v221.06H809.27q-15.92 34.12-46.11 55.74-30.19 21.63-67.62 21.63-37.44 0-67.47-21.83t-46.12-55.64H378.19q-16.23 34.22-46.51 55.84-30.28 21.63-67.19 21.63Z"/></svg>