<svg xmlns="http://www.w3.org/2000/svg" height="24" viewBox="0 -960 960 960" width="24"><path d="m369-360 41-41-31-29.5h85.5q47.5 0 81.25-33T579.5-546q0-48-33.25-81.75T464.5-661.5H290v58.5h174.5q24 0 41 17t17 40q0 24-17 41t-41 17H379l31-30-41-40.5-98 99.5 98 99ZM257.5-136q-43.5 0-80-22T119-217H-24v-242q0-51 35-86t86-35h5.5L159-737.5q10.5-30 36.75-48.25T253.5-804H555q27.5 0 50 12.75T641-755l93 155.5L859.5-589q51 4.5 87.75 43.5t36.75 90V-217H840q-22 37-58.75 59T701-136q-43.5 0-80-22t-58.5-59h-166q-22 37-58.75 59t-80.25 22Z"/></svg>