<svg xmlns="http://www.w3.org/2000/svg" height="24" viewBox="0 -960 960 960" width="24"><path d="m372.69-371.15 33.16-33.54-32.39-31.85h91.92q44.16 0 75.54-30.81 31.39-30.8 31.39-74.57 0-44.16-31.2-74.96-31.19-30.81-75.73-30.81H300v47.31h165.38q24.54 0 41.89 17.15t17.35 41.31q0 24.15-17.35 41.11t-41.89 16.96h-91.92l32.39-31.61-33.16-33.77-90 88.85 90 89.23ZM265-180q-38.31 0-69.61-21.12-31.31-21.11-47.93-55.8H20v-218.85q0-30.31 21-51.31 21-21 51.31-21h42.31l60.77-166.61q7.84-20.54 25.65-32.92Q238.85-760 261-760h291.46q18.31 0 34.12 9.16 15.8 9.15 25.65 24.46l97 158.69L872-554.46q30.31 2.61 49.15 23.27Q940-510.54 940-480.23v223.31H812.15q-16.23 34.69-47.54 55.8Q733.31-180 695-180t-69.62-21.12q-31.3-21.11-47.92-55.8H382.15q-16.23 34.69-47.53 55.8Q303.31-180 265-180Zm0-60q28.08 0 47.89-19.04 19.8-19.04 19.8-45.19v-12.69h294.62v12.69q0 26.15 19.8 45.19Q666.92-240 695-240q28.46 0 48.08-19.04 19.61-19.04 19.61-45.19v-12.69H880v-164.85q0-5-3.27-8.46-3.27-3.46-8.27-3.85l-195.31-16.46L558.46-700H254.85l-78.08 211.92H92.31q-5.39 0-8.85 3.46-3.46 3.47-3.46 8.85v158.85h117.31v12.69q0 26.15 19.81 45.19Q236.92-240 265-240Zm215-230Z"/></svg>