<svg xmlns="http://www.w3.org/2000/svg" height="40" viewBox="0 -960 960 960" width="40"><path d="m374.56-386.21 20.11-20.2L353.51-446h112.26q39.59 0 68.09-27.53t28.5-66.14q0-38.82-28.24-66.62-28.25-27.81-68.1-27.81H312.1v28.3h153.67q27.69 0 47.53 19.49 19.83 19.48 19.83 46.64 0 27.11-19.83 46.16-19.84 19.05-47.53 19.05H353.51l41.16-40.28-20.11-19.67-75.94 73.79 75.94 74.41ZM268.46-200q-35.43 0-63.44-21.29-28.02-21.3-44.31-53.53H40v-200.62q0-24.57 16.94-41.52 16.94-16.94 41.52-16.94h50.77l62.67-170.43q6.45-16.01 20.87-25.84 14.41-9.83 31.95-9.83H551.9q14.79 0 27.23 7.22 12.44 7.22 21.05 19.88l98.28 159.62 162.59 12.61q24.69 2.08 41.82 20.75Q920-501.26 920-476.56v201.94H798.52q-15.52 32.18-43.54 53.4Q726.97-200 691.54-200q-35.43 0-63.45-21.29-28.01-21.3-44.24-53.53H375.38q-15.46 32.38-43.47 53.6Q303.89-200 268.46-200Z"/></svg>