<svg xmlns="http://www.w3.org/2000/svg" height="24" viewBox="0 -960 960 960" width="24"><path d="m368.3-357.17 43.13-43.13-28.13-28.57h81.06q48.64 0 82.99-34.06Q581.7-497 581.7-546.41q0-49.42-34.16-83.76-34.16-34.35-83.11-34.35H287.17v61.69h177.5q23.33 0 39.61 16.57 16.29 16.56 16.29 39.85 0 23.28-16.27 39.84Q488.03-490 464.64-490H383.3l28.13-28.13-43.13-43.57-101.13 102.27L368.3-357.17ZM256.67-140.78q-43.32 0-79.3-22.07-35.98-22.06-55.81-59.63H-19.22v-245.08q0-44.31 30.85-75.16 30.85-30.85 75.15-30.85h19.09l58.3-163.6q10.13-27.96 34.31-45 24.17-17.05 54.13-17.05h302.52q24.96 0 46.29 12.33 21.33 12.32 34.02 33.45l95.3 159.87 145.52 12.31q44.31 4.13 73.63 35.74 29.33 31.61 29.33 75.91v247.13H837.87q-19.83 37.57-55.75 59.63-35.92 22.07-79.24 22.07-43.31 0-79.29-22.07-35.98-22.06-55.81-59.63H391.65q-19.82 37.57-55.75 59.63-35.92 22.07-79.23 22.07Zm.07-105.44q20.35 0 34.46-14.37 14.1-14.36 14.1-34.89v-32.43h349.4v32.43q0 20.53 14.24 34.89 14.24 14.37 34.58 14.37 20.35 0 34.46-14.37 14.11-14.36 14.11-34.89v-32.43h121.69v-147.92l-205.74-17.43-118.69-200.52H261.09l-81.13 225.65H86.22v140.22h121.69v32.43q0 20.53 14.24 34.89 14.25 14.37 34.59 14.37ZM480-470Z"/></svg>