<svg xmlns="http://www.w3.org/2000/svg" height="40" viewBox="0 -960 960 960" width="40"><path d="m368.04-366.96 33.12-32.48-35.46-36.24h99.06q46.01 0 78.24-32.37 32.22-32.37 32.22-78.68 0-46.57-32.18-79.05-32.19-32.48-78.31-32.48h-171.1v46.61H464.9q26.47 0 44.9 18.93 18.44 18.93 18.44 45.95 0 26.74-18.42 45.42-18.42 18.68-44.91 18.68h-99.14l35.32-36.14-32.98-33.08-91.81 92.8 91.74 92.13ZM255.49-153.3q-41.07 0-74.83-22.92-33.75-22.91-51.56-59.64H-6.7V-483.7q0-30.82 22.38-53.29 22.38-22.46 53.38-22.46h45.92l62.11-175.22q8.76-23.54 28.88-37.86 20.12-14.33 45.58-14.33h304.93q20.86 0 38.73 10.2 17.87 10.19 28.92 28.53l99.62 168.01 168.17 14.11q30.99 2.65 52.96 26.42 21.98 23.76 21.98 54.74v248.99H830.89q-17.88 37.24-51.58 59.9-33.7 22.66-74.89 22.66-41.18 0-74.86-22.92-33.68-22.91-51.71-59.64H382.07q-17.87 37.24-51.69 59.9-33.81 22.66-74.89 22.66Zm.59-75.52q26.72 0 45.43-19.13 18.72-19.13 18.72-46.46v-17.13h320.36v17.13q0 27.33 18.89 46.46 18.88 19.13 45.85 19.13 26.53 0 45.24-19.13 18.72-19.13 18.72-46.46v-17.13h122.56v-178.29l-213.2-18.42-120.23-202.93H249.83l-81.88 227.4H68.82v172.24h122.72v17.13q0 27.33 18.82 46.46 18.83 19.13 45.72 19.13ZM480-470Z"/></svg>