<svg xmlns="http://www.w3.org/2000/svg" height="40" viewBox="0 -960 960 960" width="40"><path d="m368.95-371.77 27.85-28.14-39.73-39.15H465.2q44.18 0 75.58-31.52 31.4-31.51 31.4-76.28 0-44.88-31.65-76.37-31.66-31.49-75.17-31.49H298.05v39.82h167.47q26.69 0 46.53 20.25 19.85 20.24 19.85 47.98 0 28.01-19.84 47.56t-46.53 19.55H357.26l39.41-39.64-27.72-27.67-86.64 87.23 86.64 87.87Zm-112.47 213.1q-40.13 0-72.57-23.53-32.44-23.52-51.48-58.88H-1.33v-233.97q0-32.51 23.69-56.21 23.69-23.69 56.21-23.69h41.05l63-177.38q8.34-22.19 27.16-35.6 18.81-13.4 42.25-13.4h304.59q19.64 0 36.4 9.53 16.76 9.52 27.57 26.52l100.64 169.31 156.79 12.3q32.85 3.21 58.08 30.54 25.23 27.34 25.23 60.18v231.97H827.26q-17.93 35.93-50.44 59.12-32.5 23.19-72.72 23.19-40.21 0-72.39-23.53-32.17-23.52-51.12-58.88H380.03q-18.69 35.77-51.06 59.09-32.37 23.32-72.49 23.32Zm.68-67.25q28.58 0 48.46-19.95 19.87-19.94 19.87-47.39v-15.07h310.43v15.07q0 27.45 20.39 47.39 20.39 19.95 48.83 19.95 28.54 0 48.05-19.95 19.5-19.94 19.5-47.39v-15.07h122.46v-174.19q0-5-3.27-8.59t-8.27-3.72l-202.17-17.32-120.52-202.59H247.56L167-488.36H78.57q-5.39 0-8.85 3.59t-3.46 8.72v167.72h122.46v15.07q0 27.45 20.02 47.39 20.03 19.95 48.42 19.95ZM480-470Z"/></svg>