<svg xmlns="http://www.w3.org/2000/svg" height="40" viewBox="0 -960 960 960" width="40"><path d="m366-362.67 34.13-34.04-36.65-37.35h101.34q47.38 0 80.45-33.83 33.06-33.83 33.06-82.3 0-48.48-33.44-82.14Q511.44-666 464.84-666H289.33v48.67h175.8q26.01 0 45.11 19.83 19.09 19.84 19.09 47.5 0 27.62-19.09 46.98-19.09 19.35-45.09 19.35H363.67L400-521l-34-34.33L271.67-459 366-362.67Zm-115.42 224q-42.58 0-77.51-24.29-34.94-24.3-54.33-61.71H-21.33v-256.66q0-33.73 25.13-58.87 25.14-25.13 58.87-25.13H105l63-180.34q9.29-25.19 30.31-40.42 21.03-15.24 47.69-15.24h312.67q22.08 0 41.04 10.66 18.96 10.67 30.62 30L732-587l163.33 13.33q34 3.34 60 31.5 26 28.17 26 62.17v255.33h-140q-18.66 38.34-53.66 62.17T710-138.67q-42.67 0-77.33-24.29-34.67-24.3-54-61.71H382.33q-19.45 38.08-54.31 62.04-34.87 23.96-77.44 23.96Zm.81-83.66q26.28 0 44.61-19.16 18.33-19.15 18.33-46.51v-20.33h333V-288q0 27.36 18.85 46.51 18.86 19.16 45.11 19.16 25.98 0 44.01-19.16 18.03-19.15 18.03-46.51v-20.33H899V-488.8l-216.67-18.87L559-718.33H246.67l-83 236h-101v174h125.66V-288q0 27.36 18.4 46.51 18.39 19.16 44.66 19.16ZM480-470Z"/></svg>