<svg xmlns="http://www.w3.org/2000/svg" height="40" viewBox="0 -960 960 960" width="40"><path d="m365.92-362.83 34.21-34.08-36.82-37.31h101.52q47.35 0 80.35-33.79 32.99-33.79 32.99-81.6 0-48.78-33.45-82.3-33.45-33.53-80.08-33.53H289.49v48.51H465q26.09 0 45.21 19.86t19.12 47.23q0 27.57-19.14 46.99-19.15 19.42-45.28 19.42h-101.4l36.52-37.53-34.11-33.97L272.07-459l93.85 96.17ZM251.34-136.75q-43.1 0-78.43-24.02-35.33-24.02-55.2-61.59H-23.25v-256.1q0-36.25 26.43-62.76 26.43-26.5 62.83-26.5h37.32l62.44-178.27q9.55-25.7 31.31-41.56 21.75-15.86 49.24-15.86h312.35q22.93 0 42.38 11.07 19.45 11.06 31.36 30.8l100.71 172.15 158.71 13.25q36.07 3.42 63.82 33.34 27.76 29.92 27.76 66.23v254.21h-141.2q-19.07 38.34-54.39 61.97-35.32 23.64-78.26 23.64-42.94 0-77.93-24.02-34.98-24.02-54.88-61.59H383.93q-19.86 38.08-55.25 61.84-35.39 23.77-77.34 23.77Z"/></svg>