<svg xmlns="http://www.w3.org/2000/svg" height="40" viewBox="0 -960 960 960" width="40"><path d="m365.39-363.33 35.02-34.23-37.94-37.14h101.09q47.23 0 80.67-33.38 33.44-33.39 33.44-80.95 0-48.19-33.96-81.41-33.96-33.23-80.5-33.23H290v48.24h175.14q25.93 0 45.06 19.84 19.13 19.85 19.13 46.76 0 28.12-19.19 47.14-19.2 19.02-45.35 19.02H363.02l37.1-38.17-34.45-32.83L273.33-459l92.06 95.67ZM251.68-130.67q-42.68 0-79.28-23.13T114.74-215H-29.33v-254.33q0-43.13 31.08-74.57 31.09-31.43 74.92-31.43H98L158.67-747q10.21-28.14 33.94-45.57Q216.34-810 247.33-810h311.34q24.08 0 45.88 12.56 21.8 12.57 34.45 33.11L736.67-597l144 13q42.66 3.67 76 39.17Q990-509.33 990-465.67V-215H845q-20.33 38.33-56.47 61.33-36.13 23-80.16 23-44.04 0-80.04-23.13-36-23.13-57.66-61.2H389q-21.12 38.07-57.88 61.2-36.77 23.13-79.44 23.13Zm1.28-104.66q19.71 0 34.87-15.46Q303-266.25 303-288.33v-33h355.33v33q0 22.08 15.52 37.54t37.01 15.46q19.41 0 34.78-15.46Q761-266.25 761-288.33v-33h125v-156.51L674.67-496 552-705.33H255.33l-83.3 234.66H75.67v149.34h125.66v33q0 22.08 15.06 37.54t36.57 15.46ZM480-470Z"/></svg>