<svg xmlns="http://www.w3.org/2000/svg" height="40" viewBox="0 -960 960 960" width="40"><path d="m368.67-368 32.66-32-35-36H465q46 0 77.83-32.17 31.84-32.16 31.84-78.16t-31.84-78.17Q511-656.67 465-656.67H294.67v46H465q26.33 0 44.67 18.67Q528-573.33 528-546.33q0 26.33-18.33 45-18.34 18.66-44.67 18.66h-98.67l35-35.66-32.66-33-91.34 92L368.67-368Zm-112 208q-40.34 0-73.34-22.83-33-22.84-50-59.17H0v-246q0-27 19.83-46.83 19.84-19.84 46.84-19.84H120L182.67-731q8.33-22 27.16-35.5 18.84-13.5 42.84-13.5H556q19.67 0 36.5 9.5t27.17 26.83L720-575.33l175.67 14.66q27 2.34 45.66 22.67Q960-517.67 960-490.67V-242H826.67q-17 37-50 59.5T703.33-160Q663-160 630-182.83q-33-22.84-50-59.17H380q-17 37-50 59.5T256.67-160Z"/></svg>