<svg xmlns="http://www.w3.org/2000/svg" height="40" viewBox="0 -960 960 960" width="40"><path d="m365.81-363.04 34.32-34.15-37.04-37.24h101.32q47.31 0 80.43-33.64 33.12-33.65 33.12-81.32 0-48.61-33.62-81.95t-80.18-33.34H289.71v48.29h175.1q26.23 0 45.38 19.9 19.14 19.91 19.14 46.87 0 27.9-19.21 47.21-19.22 19.31-45.54 19.31H363.3l36.77-37.81-34.26-33.48-93.2 95.39 93.2 95.96ZM251.78-134.15q-43.21 0-79.09-23.63-35.88-23.64-56.28-61.42H-25.85v-255.35q0-39.31 28.37-67.87 28.37-28.57 68.06-28.57h30.46l61.68-175.43q9.86-26.67 32.5-43.24t51.53-16.57h311.92q23.59 0 43.96 11.61t32.6 31.88l99.41 170.09 152.4 13.14q38.9 3.52 69.05 35.84 30.14 32.31 30.14 71.77v252.7H843.41q-19.61 38.33-55.38 61.69-35.76 23.36-79.08 23.36-43.31 0-78.73-23.63-35.42-23.64-56.08-61.42H386.1q-20.4 38.07-56.44 61.56-36.05 23.49-77.88 23.49Z"/></svg>