<svg xmlns="http://www.w3.org/2000/svg" height="24" viewBox="0 -960 960 960" width="24"><path d="m376.62-385.38 22.46-23.24-39-36.19h106.19q39.02 0 67.7-27.19t28.68-65.37q0-38.94-28.29-66.57-28.3-27.64-68.2-27.64H313.08v32.04h153.19q25.92 0 45 18.31t19.08 43.61q0 25.31-19.08 43.24-19.08 17.92-45 17.92H360.08l39-36.85-22.46-22.57-77.54 75.11 77.54 75.39ZM272.35-206.15q-34.84 0-63.06-20.43-28.21-20.42-44.06-52.19H46.15v-193.4q0-25.92 17.8-43.72 17.8-17.8 43.74-17.8h46.35l61.04-164.27q6.71-15.95 21.2-25.92 14.49-9.97 32.07-9.97h281.69q15.38 0 28.08 7.25 12.69 7.25 20.88 19.75l96.38 154.04 156.58 12.35q26 2.11 43.94 21.42 17.95 19.31 17.95 45.42v194.85h-120.1q-15.19 31.82-43.26 52.22t-62.95 20.4q-34.89 0-62.89-20.43-28-20.42-43.76-52.19H378.84q-15.49 31.77-43.72 52.19-28.22 20.43-62.77 20.43Zm.17-36.93q31.6 0 53.71-20.57 22.12-20.58 22.12-47.89v-4.15h263.69v4.15q0 27.31 22.26 47.89 22.27 20.57 53.64 20.57 32.14 0 53.87-20.57 21.73-20.58 21.73-47.89v-4.15h113.38v-162.46q0-10-6.54-16.93-6.53-6.92-16.53-7.69l-180.57-14.8-111.36-179.35h-306.5L180-496.77h-72.31q-10.77 0-17.69 6.92-6.92 6.93-6.92 17.7v156.46h113.38v4.15q0 27.31 22.31 47.89 22.32 20.57 53.75 20.57ZM480-470Z"/></svg>