<svg xmlns="http://www.w3.org/2000/svg" height="20" viewBox="0 -960 960 960" width="20"><path d="M626.48-598.72q10.4 0 17.2-7.12 6.8-7.12 6.8-17.04 0-9.93-6.8-16.88-6.8-6.96-17.2-6.96h-80.55q-10.1 0-17.17 6.96-7.06 6.95-7.06 16.88 0 9.92 6.8 17.04 6.8 7.12 17.2 7.12h80.78Zm116.29-41.04q-6.8-6.96-17.2-6.96h-4.29q-10.4 0-17.2 6.96-6.8 6.95-6.8 16.88 0 9.92 6.8 17.04 6.8 7.12 17.2 7.12h4.29q10.4 0 17.2-7.12 6.8-7.12 6.8-17.04 0-9.93-6.8-16.88ZM484.4-735.72q-6.8-7-17.2-7H466q-10.4 0-17.2 7-6.8 7-6.8 16.88 0 9.88 6.8 17 6.8 7.12 17.2 7.12h1.43q10.3 0 17.03-7.12 6.74-7.12 6.74-17 0-9.88-6.8-16.88Zm241.38 41q10.32 0 17.05-7.12 6.74-7.12 6.74-17 0-9.88-6.82-16.88-6.82-7-17.24-7H563.26q-10.43 0-17.25 7-6.81 7-6.81 16.88 0 9.88 6.81 17 6.82 7.12 17.25 7.12h162.52ZM289.8-319q11.2 9.24 19.13 16.98 7.94 7.74 22.37 16.22l-52.25 91.78q-15.01-12.72-27.18-23.96t-28.65-26.48l-60.02 56.07q-13.96 13.48-34.54 12.1-20.57-1.38-34.29-15.84-13.72-14.46-12.6-35.27 1.12-20.82 16.32-34.53l61.3-53.26q-10.06-11.43-18.46-23.19-8.39-11.75-18.15-23.46-15.19-20.77-9.33-39.34 5.85-18.58 20.69-29.3 14.84-10.72 35.15-10.22 20.32.5 34.04 21.94 4.8 8.78 9.82 16.53 5.01 7.76 11.32 15.16 17.5-22.76 32.69-47.58 15.19-24.83 26.95-51.39H52.63q-20.78 0-34.5-13.7Q4.41-513.43 4.41-534.2q0-20.3 14.5-34.76 14.49-14.47 35.23-14.47h93.01v-11.72q0-20.2 14.84-35.03 14.84-14.84 35.03-14.84 20.2 0 35.03 14.84 14.84 14.83 14.84 35.12v11.28h163.08q20.16 0 34.38 14.96 14.22 14.97 14.22 35.03 0 20.07-14.72 34.41-14.72 14.34-34.92 14.34h-16.89q-19.71 44.76-45.83 86.4Q320.09-357 289.8-319ZM402.41-55.39l-7.95 20.36q-5.13 14.42-16.95 22.4-11.82 7.98-27.39 7.98-26.3 0-40.68-21.38-14.37-21.37-4.66-45.45L406.35-322.7q6.48-14.95 20.98-25.55 14.5-10.6 31.91-10.6h44.26q17.4 0 31.91 9.98 14.5 9.98 20.98 25.17L658.2-71.48q9.71 24.44-5.1 45.63-14.82 21.2-40.97 21.2-15.79 0-28.73-9.04-12.95-9.03-17.94-22.88l-7.37-18.82H402.41Zm30.2-81.31h95.28l-46.76-132.32-48.52 132.32Zm474.22-367.26q0 37.39-26.68 63.57-26.67 26.17-63.06 26.17H565.57q-18.78 0-31.33-13.13-12.54-13.14-12.54-31.74 0-18.59 13.13-31.73 13.14-13.14 31.74-13.14h250.52v-314.13H350.24v59.24q0 18.6-13.14 31.73-13.13 13.14-31.61 13.14-18.48 0-31.61-13.14-13.14-13.13-13.14-31.73v-59.24q0-37.49 26.67-63.49 26.67-26.01 62.83-26.01h466.85q36.39 0 63.06 26.01 26.68 26 26.68 63.49v314.13Zm-89.74 0v-314.13 314.13Z"/></svg>