<svg xmlns="http://www.w3.org/2000/svg" height="40" viewBox="0 -960 960 960" width="40"><path d="M751.36-623.47q-5.34-5.04-12.32-5.04h-3.67q-7.65 0-12.69 5-5.04 5-5.04 12.65 0 7.66 5 12.69 5.01 5.04 12.66 5.04h3.66q6.99 0 12.36-5 5.37-5 5.37-12.65 0-7.66-5.33-12.69Zm-302.41-110q-5.01-5.04-12.66-5.04t-12.69 5q-5.04 5-5.04 12.65t5.02 12.69q5.01 5.04 12.68 5.04h.77q7.33 0 12.12-5 4.8-5 4.8-12.65 0-7.66-5-12.69ZM739-703.13q7 0 12.35-5 5.34-5 5.34-12.65 0-7.66-5.34-12.69-5.35-5.04-12.35-5.04H527.44q-7.67 0-12.68 5-5.02 5-5.02 12.65t5.02 12.69q5.01 5.04 12.68 5.04H739ZM255.59-376.77q12.1 12.39 18.17 18.62 6.06 6.23 19.19 16.33l-31.1 54.28q-16.88-13.43-24.26-21.23-7.38-7.79-21.08-22l-51.84 45.28q-9.45 8.82-21.6 8.04-12.15-.78-19.97-10.02-8.33-9.76-6.87-21.47 1.46-11.7 9.95-20.37l52.74-45.84q-8.68-11.12-16.77-21.91-8.1-10.79-16.97-22.32-10.51-12.06-7.42-23.99 3.09-11.94 13.09-19.3 10-7.36 22.33-7.16 12.33.19 22.61 13.83 4.94 7.35 10.88 15.43 5.93 8.09 11.77 15.7 18.1-23.92 35.91-48.21 17.8-24.28 29.37-54.18H83.03q-12.84 0-21.27-8.13-8.43-8.14-8.43-20.59 0-13.35 8.43-21.51 8.43-8.15 21.27-8.15h88.15v-26.26q0-11.91 8.5-20.72 8.51-8.82 21.16-8.82t21.19 8.52q8.53 8.51 8.53 21.02v26.26h143.93q12.06 0 20.88 8.79 8.81 8.79 8.81 20.82 0 12.03-8.81 20.4-8.82 8.37-20.88 8.37h-21.26q-17.9 42.47-44.13 79.53-26.23 37.06-53.51 70.96Zm83.64 270.82-22.59 55.43q-4.23 8.83-11.12 13.78-6.9 4.94-16.8 4.94-16.33 0-24.66-13.16-8.34-13.17-2.06-27.6l121.87-294.13q4.05-9 12.45-14.94 8.39-5.93 18.23-5.93h27.29q9.21 0 17.84 5.47 8.63 5.47 12.68 14.47L595.15-72.74q6.29 14.94-2.95 27.94-9.23 13-24.46 13-10.41 0-17.62-5.3-7.21-5.3-10.09-13.75l-23.75-55.1H339.23Zm19.74-48.56h137.57L427.9-328.56l-68.93 174.05ZM828.28-440.9H502.87q-16.37 0-27.44-11.06t-11.07-26.5v-114.67h169.69q7.67 0 12.68-5t5.01-12.65q0-7.66-5.01-12.69-5.01-5.04-12.68-5.04H320.1v-68.44q0-3.32-2.5-5.57-2.49-2.25-5.32-2.25h-6.15q-15.27 0-25.98-10.97-10.71-10.98-10.71-25.72v-90.44q0-31.15 22.93-52.96 22.94-21.81 55.23-21.81h480.72q32.3 0 55.15 21.81 22.86 21.81 22.86 52.96v316.23q0 31.16-22.86 52.96-22.85 21.81-55.19 21.81Z"/></svg>