<svg xmlns="http://www.w3.org/2000/svg" height="48" viewBox="0 -960 960 960" width="48"><path d="M763.13-631.15q-7.25-6.77-16.57-6.77h-3q-10.33 0-17.1 6.75-6.77 6.75-6.77 17.08 0 10.32 6.75 17.09t17.08 6.77h3q9.33 0 16.59-6.75 7.27-6.75 7.27-17.08 0-10.32-7.25-17.09Zm-304.73-115q-6.75-6.77-17.07-6.77-10.33 0-17.1 6.75-6.77 6.75-6.77 17.08 0 10.32 6.76 17.09 6.75 6.77 17.09 6.77h.38q10.17 0 16.82-6.75 6.64-6.75 6.64-17.08 0-10.32-6.75-17.09Zm288.14 40.92q9.33 0 16.59-6.75 7.25-6.75 7.25-17.08 0-10.32-7.25-17.09-7.26-6.77-16.59-6.77H544.61q-10.33 0-17.09 6.75-6.75 6.75-6.75 17.08 0 10.32 6.75 17.09 6.76 6.77 17.09 6.77h201.93ZM254.08-368.61q12.38 13.53 20 21.46 7.61 7.92 20.38 18.3l-31.38 62.31q-16.77-13.39-26.73-24.15-9.96-10.77-25.81-27l-55.23 50.07q-10.36 10.08-24.22 9.27-13.86-.81-22.43-10.88-8.97-10.46-7.47-23.46 1.5-13 10.58-22.47l56.85-52.3q-7.52-9.8-14.8-18.9-7.28-9.1-14.43-19.03-11.47-12.69-8.04-25.57 3.42-12.89 14.19-21.04 10.77-8.15 24.58-7.85 13.8.31 24.65 15 3.82 5.15 8.45 11.53 4.64 6.38 9.32 11.93 17.15-23.76 33.88-46.5 16.73-22.73 28.35-51.03H72.85q-14.56 0-23.7-8.98Q40-536.87 40-550.59q0-14.87 9.15-23.95 9.14-9.08 23.7-9.08h93.23v-27.03q0-13.32 9.25-23.03 9.25-9.7 23.58-9.7 14.32 0 23.59 9.25 9.27 9.26 9.27 23.48v27.03h131.38q13.44 0 23.14 9.69 9.71 9.68 9.71 23.07 0 13.4-9.71 22.67-9.7 9.27-23.14 9.27h-13.3q-17.62 42-42.89 79.11-25.27 37.12-52.88 71.2Zm99.3 263.92-21.46 55.14q-4.61 9.24-12.07 14.78-7.46 5.54-18.18 5.54-17.61 0-26.91-14.5t-2.45-30.42l120.46-291.7q4.23-9.46 13.41-16.11 9.19-6.66 19.6-6.66h29.3q9.61 0 19.07 6.16 9.46 6.15 13.69 15.61L609.31-73.54q6.84 16.31-3.31 30.31-10.14 14-26.47 14-11.3 0-19.34-6-8.05-5.99-11.11-15.16L526-104.69H353.38Zm21.54-54.62h129.54l-65.38-165.92-64.16 165.92Zm468.31-279.31h-323.5q-15.68 0-25.98-10.28-10.29-10.28-10.29-24.56v-116.77h146.62q10.33 0 17.09-6.75 6.75-6.75 6.75-17.08 0-10.32-6.75-17.09-6.76-6.77-17.09-6.77H336.23v-52.16q0-7.78-5.45-13.04-5.45-5.26-12.86-5.26h-14.61q-14.98 0-25.03-10.25-10.05-10.24-10.05-24.83v-103.15q0-30.58 22.94-51.98Q314.12-920 345.54-920H843.3q31.43 0 54.06 21.41Q920-877.19 920-846.61V-512q0 30.58-22.64 51.98-22.63 21.4-54.13 21.4Z"/></svg>