<svg xmlns="http://www.w3.org/2000/svg" height="20" viewBox="0 -960 960 960" width="20"><path d="M722.7-631q-7.8-8-18.7-8-10.9 0-18.7 8-7.8 8-7.8 18.5t7.8 18.5q7.8 8 18.7 8 10.9 0 18.7-8 7.8-8 7.8-18.5t-7.8-18.5Zm-255.5-98q-7.8-8-18.7-8h-5q-10.9 0-18.7 8-7.8 8-7.8 18.5t7.8 18.5q7.8 8 18.7 8h6q10.9 0 18.2-8 7.3-8 7.3-18.5t-7.8-18.5ZM705-684q10.9 0 18.2-8 7.3-8 7.3-18.5t-7.8-18.5q-7.8-8-18.7-8H546.5q-10.9 0-18.7 8-7.8 8-7.8 18.5t7.8 18.5q7.8 8 18.7 8H705ZM286.5-350q17 13.5 30.5 23.25t33 21.25L293.58-204q-20.58-16-39.33-29.75T214.5-267.5l-39 34q-16 14-38.75 13t-36.25-17q-15-17-13.5-39.25t18-36.75l39.5-31.91q-5-7.09-9.25-14.09T123-371.67q-17.5-22.83-11.75-43.08T134-447.5q17-12.5 39-12.5t38.5 24.5q2 2 3 3.25t1.75 4.25q12.75-18.5 24.25-37.5t23-38.5H70.08q-22.58 0-37.33-15.5T18-556.79q0-22.34 15.91-38.1 15.9-15.75 38.45-15.75h68.14v-9.86q0-21.5 16.5-38t38-16.5q21.5 0 38 16.5t16.5 38.09v9.41h132.03q21.47 0 36.97 16.5t15.5 38q0 21.5-16 37.5t-37.5 16h4q-20 40.5-45.5 79t-52.5 74Zm136 298-5.6 9.8q-5.4 15.2-17.65 23.95Q387-9.5 370.5-9.5 341-9.5 325-32.93t-4-50.57L422.5-317q7.5-16.5 23-27.75T479.8-356h49.9q18.8 0 34.3 10.5 15.5 10.5 23 27L689.5-82q12 27.5-3.85 50T640.57-9.5q-17.84 0-32.2-9.5Q594-28.5 587.5-44l-3-8h-162Zm31-87h99L503-266l-49.5 127Zm343-266h-262q-22.8 0-39.65-16.85Q478-438.7 478-461.5V-586h135.5q10.9 0 18.45-7.8 7.55-7.8 7.55-21.7 0-10.4-6.55-17.7-6.55-7.3-16.45-8.3l-280-24.5v-46.5q0-14.8-10.85-25.65Q314.8-749 300-749h-14q-22.8 0-39.65-16.85-16.85-16.85-16.85-39.65v6.5q0-40.5 28.75-68.25T327-895h469.5q40 0 68.75 27.75T894-799v298q0 40.5-28.75 68.25T796.5-405Z"/></svg>