<svg xmlns="http://www.w3.org/2000/svg" height="40" viewBox="0 -960 960 960" width="40"><path d="M630.03-579.23q10.33 0 17.09-6.75 6.75-6.75 6.75-17.08 0-10.32-6.75-17.09-6.76-6.77-17.09-6.77h-80.88q-10.6 0-17.12 6.75-6.52 6.75-6.52 17.08 0 10.32 6.76 17.09 6.75 6.77 17.09 6.77h80.67Zm129.4-40.92q-6.75-6.77-17.08-6.77-10.32 0-17.09 6.75t-6.77 17.08q0 10.32 6.75 17.09t17.07 6.77q10.33 0 17.1-6.75 6.77-6.75 6.77-17.08 0-10.32-6.75-17.09Zm-304.54-115q-6.75-6.77-17.08-6.77-10.32 0-17.09 6.75t-6.77 17.08q0 10.32 6.75 17.09 6.76 6.77 17.09 6.77h.39q10.17 0 16.81-6.75 6.65-6.75 6.65-17.08 0-10.32-6.75-17.09Zm287.44 40.92q10.34 0 17.09-6.75 6.76-6.75 6.76-17.08 0-10.32-6.76-17.09-6.75-6.77-17.09-6.77H542.05q-10.33 0-17.09 6.75t-6.76 17.08q0 10.32 6.76 17.09t17.09 6.77h200.28ZM279.79-361.72q14.39 17.36 31 33.64 16.62 16.28 31.52 30.67l-18.39 48.3q-17.77-16.38-37.46-36.11t-38.54-40.17L153-233.08q-7.39 7.08-17.46 7.27-10.08.19-16.49-7.35-6.66-7.79-5.93-17.39.73-9.61 7.14-16.27l96.53-94.59q-14.38-16.98-26.74-33.91-12.36-16.94-23.79-35.71-6.26-10.02-3.63-18.74 2.63-8.72 9.96-13.9 7.33-5.18 16.67-4.16 9.33 1.01 15.64 10.5 9.68 15.37 20.66 30.55 10.98 15.19 23.16 29.68 26.38-31.47 47.54-63.77 21.15-32.31 35.1-69.59H83.85q-9.95 0-16.9-6.79Q60-544.04 60-554.42q0-10.25 6.95-16.99 6.95-6.74 16.9-6.74h141.41v-33.47q0-10.25 6.75-17.01 6.75-6.75 17.07-6.75 10.33 0 17.1 6.75 6.77 6.76 6.77 17.01v33.47h149.46q10.33 0 17.09 6.75 6.75 6.75 6.75 17.07 0 10.33-6.75 17.1-6.76 6.77-17.09 6.77h-40.8q-16.61 47.23-42.56 89.01-25.95 41.78-59.26 79.73Zm117.16 220.08-29.47 77.81q-2.61 6.32-8.3 10.46-5.69 4.14-12.8 4.14-12.57 0-19.46-10.33-6.9-10.34-2.26-21.39l121.77-308.9q3.03-6.66 8.88-10.71 5.84-4.06 13.13-4.06h18.73q7.19 0 13.08 4.16 5.9 4.15 8.93 10.82l122.56 309.1q4.64 11.31-2.35 21.31-6.99 10-19.32 10-7.41 0-13.3-4.35-5.9-4.34-8.26-11.01l-29.87-77.05H396.95Zm15.53-41.62h129.95l-65.48-170.69-64.47 170.69ZM900-500q0 23.08-16.76 39.23-16.77 16.15-41.27 16.15H549.36q-10.34 0-17.09-6.75-6.76-6.75-6.76-17.07 0-10.33 6.76-17.1 6.75-6.77 17.09-6.77h292.61q4.54 0 7.44-2.3 2.9-2.31 2.9-5.39v-344.61q0-3.08-2.9-5.39-2.9-2.31-7.44-2.31H338.82q-4.54 0-7.64 2.31-3.1 2.31-3.1 5.39v130.38q0 10.33-6.75 17.09-6.76 6.76-17.08 6.76-10.58 0-17.22-6.76-6.65-6.76-6.65-17.09v-130.38q0-23.08 16.97-39.23Q314.32-900 338.77-900h503.25q24.45 0 41.22 16.16Q900-867.69 900-844.61V-500Zm-47.69 7.69v-360 360Z"/></svg>