<svg xmlns="http://www.w3.org/2000/svg" height="40" viewBox="0 -960 960 960" width="40"><path d="M628.99-594.75q13 0 21.5-8.62t8.5-21.54q0-12.93-8.5-21.38-8.5-8.46-21.5-8.46h-81.48q-13.4 0-21.65 8.46-8.25 8.45-8.25 21.38 0 12.92 8.5 21.54t21.5 8.62h81.38Zm146.49-51.54q-8.91-8.46-21.09-8.46h-2.95q-13 0-21.5 8.46-8.5 8.45-8.5 21.38 0 12.92 8.5 21.54t21.5 8.62h2.95q12.18 0 21.09-8.62t8.91-21.54q0-12.93-8.91-21.38Zm-300.6-119.96q-8.5-8.5-21.5-8.5h-.87q-13 0-21.5 8.5t-8.5 21.38q0 12.88 8.5 21.5t21.5 8.62h1.11q12.9 0 21.33-8.62 8.43-8.62 8.43-21.5t-8.5-21.38Zm279.53 51.5q12.29 0 21.14-8.62 8.84-8.62 8.84-21.5t-8.93-21.38q-8.93-8.5-21.13-8.5H570.78q-13.03 0-21.55 8.5-8.51 8.5-8.51 21.38 0 12.88 8.52 21.5 8.51 8.62 21.54 8.62h183.63ZM268.43-344q12.37 11.91 22.38 21.13 10.02 9.22 22.62 19.2l-42.88 82.85q-16.61-13.22-30.36-26.45-13.76-13.22-30.23-29.62l-57.75 52.95q-13.32 12.98-31.32 11.94-18.01-1.05-30.39-14.52-12.07-13.47-10.69-31.22 1.37-17.75 14.58-30.31l58.86-53.73q-7.33-9.54-14.73-18.42-7.41-8.87-14.51-18.39-14.37-17.79-9.51-34.63 4.86-16.85 18.63-26.99 13.78-10.15 32.11-9.23 18.33.91 31.06 19.71 2.96 4.59 7.04 10.24 4.08 5.64 8.28 10.03 16.41-22.75 31.5-45.05 15.08-22.3 27.18-49H55.17q-19.14 0-31.48-12.15-12.35-12.15-12.35-30.5 0-18.74 12.47-31.46 12.46-12.71 31.44-12.71h93.73v-20.17q0-18.28 12.52-31.09 12.51-12.82 31.39-12.82 18.88 0 31.4 12.52 12.51 12.51 12.51 31.39v20.17h143.19q18.18 0 30.93 12.93 12.74 12.93 12.74 31.06t-12.74 30.48q-12.75 12.35-30.93 12.35h-12.66q-19.22 44.08-44.68 83.38-25.45 39.3-54.22 76.13ZM387.57-75.91l-14.31 37.49q-5.08 12.2-15.49 19.52t-24.16 7.32q-22.89 0-35.33-18.96-12.45-18.97-3.72-40.26l112.56-275.81q5.49-13.13 17.95-21.91 12.47-8.78 27.11-8.78h39.13q14.21 0 26.76 8.43 12.54 8.42 18.23 21.59L649.76-70.46q8.73 21.29-4.45 40.08-13.18 18.8-35.39 18.8-14.3 0-25.44-7.94-11.15-7.94-15.37-20.34l-15.5-36.05H387.57Zm27.39-72.37h111.26l-56.25-147.63-55.01 147.63Zm533.6-367.71q0 36.67-26.46 62.33Q895.63-428 858.74-428H561.35q-18.73 0-31.23-12.58-12.51-12.59-12.51-31.07 0-18.47 12.61-31.4 12.61-12.94 31.46-12.94h299.06v-345.08H345.92v88.93q0 18.25-12.61 31.16-12.61 12.92-31.34 12.92-18.66 0-31.23-12.62-12.57-12.61-12.57-31.46v-88.93q0-36.54 26.84-62.06 26.84-25.53 63.52-25.53H858.8q36.83 0 63.3 25.53 26.46 25.52 26.46 62.06v345.08Zm-87.82 0v-345.08 345.08Z"/></svg>