<svg xmlns="http://www.w3.org/2000/svg" height="20" viewBox="0 -960 960 960" width="20"><path d="M735.2-634q-6.8-7-17.2-7-10.4 0-17.2 7-6.8 7-6.8 17t6.8 17q6.8 7 17.2 7 10.4 0 17.2-7 6.8-7 6.8-17t-6.8-17Zm-251-96q-6.8-7-17.2-7h-5q-10.4 0-17.2 7-6.8 7-6.8 17t6.8 17q6.8 7 17.2 7h6q10.4 0 16.7-7 6.3-7 6.3-17t-6.8-17ZM719-689q10.4 0 16.7-7 6.3-7 6.3-17t-6.8-17q-6.8-7-17.2-7H563q-10.4 0-17.2 7-6.8 7-6.8 17t6.8 17q6.8 7 17.2 7h156ZM296-320q17 14 35 27.5t38 25.5l-54.42 96Q294-187 271-204.5T227-242l-63 58q-15 13-36.5 12.5T93-187q-15-16-13.5-38T97-261l63-53.91Q149-328 140-341.5t-20-26.17Q104-390 110-409t22-30q16-11 36.5-10.5T203-426q6 10 12 19t13.25 18Q247-412 262-438.5t27-53.5H57.58Q36-492 22-506.5T8-542.29q0-21.34 15.16-36.35 15.15-15 36.7-15H155V-603q0-21 15.5-36.5T207-655q21 0 36.5 15.5t15.5 36.59v8.91h164.03q20.97 0 35.47 15.5T473-542q0 21-15 36t-36 15h-21q-20 46-47 89t-58 82ZM447-56l-6.1 15.3Q436-26 424-17.5 412-9 396-9q-28 0-43.5-22.18T348-79l100-248q7-16 22-27t33.3-11h46.4q18.3 0 33.3 10.5 15 10.5 22 26.5L705-78q11 26-4.35 47.5T657.57-9q-16.84 0-30.7-9.5Q613-28 607-43l-4-13H447Zm30-85h96l-48-132-48 132Zm333-263H586q-24.3 0-41.65-17.35Q527-438.7 527-463v-130h100q10.4 0 17.2-6.8 6.8-6.8 6.8-17.2 0-10.4-6.8-17.2-6.8-6.8-17.2-6.8H350v-39q0-16.3-11.35-27.65Q327.3-719 311-719q-24.3 0-41.65-17.35Q252-753.7 252-778v-32q0-40 27.5-67t66.5-27h464q39 0 66.5 27t27.5 67v312q0 40-27.5 67T810-404Z"/></svg>