<svg xmlns="http://www.w3.org/2000/svg" height="48" viewBox="0 -960 960 960" width="48"><path d="M765-643q-9.5-9-22-9-13.5 0-22.25 9T712-620.75q0 13.25 8.75 22.25t22.25 9q12.5 0 22-9t9.5-22.25q0-13.25-9.5-22.25ZM465-764q-9-9-22-9h-3q-13.5 0-22.5 9t-9 22.25q0 13.25 9 22.25t22.5 9h4q13 0 21.5-9t8.5-22.25q0-13.25-9-22.25Zm277.8 53.5q13.7 0 22.7-9t9-22.25q0-13.25-9.5-22.25t-22-9H560q-13.5 0-22.5 9t-9 22.25q0 13.25 9 22.25t22.5 9h182.8ZM248.5-370q16 13.5 26.75 21.25t26.25 20.25l-48 91q-20-15-35-26.5T185-295l-28 21q-14.59 13.5-34.8 12.75Q102-262 89-277q-13.5-15.5-11.5-34.75T94-344.5l28.5-23q-1.18-2.8-3.34-5.15Q117-375 112.5-376q-17-20-12-39t20-30.75q15-11.75 36.25-11.25t36.75 21q-1-4-2.25-6.5t-4.25-5q10-16.5 20.5-30.75t22-32.75h-166q-21.5 0-35-13.68T15-558.07q0-20.43 14-34.43t34.5-14H122V-625q0-20 13.75-34T170-673q20.5 0 34.5 14t14 34v18.5h108q19.4 0 33.2 14 13.8 14 13.8 34.25t-13.8 33.75Q345.9-511 326.5-511H341q-20 39-44.5 73.25t-48 67.75ZM381-66l-12 26.3q-4 13.2-15.69 20.7-11.68 7.5-25.81 7.5-25.72 0-39.61-21t-3.39-45l114-262.5q6-15.5 19.75-24.5t29.79-9h44.85q15.54 0 29.19 9.12 13.66 9.13 20.92 22.88L658.5-76q10 23.5-3.9 44t-40.08 20.5q-15.52 0-28.1-8.15-12.59-8.15-17.92-21.85L557-66H381Zm28.5-79H527l-60-146.5L409.5-145Zm437-274.5h-331q-20.25 0-33.62-13.38-13.38-13.37-13.38-32.62v-124h153q13 0 22-9t9-24q0-12.5-8.5-21.25t-21-9.75l-281.5-12v-54q0-12.33-9.37-21.41-9.38-9.09-22.63-9.09h-27q-19.25 0-32.37-13.38Q237-776.75 237-797v-53.5q0-39.5 29.88-67.25 29.89-27.75 70.53-27.75h509.18q40.21 0 69.31 27.75T945-850.5v335q0 40.92-29.1 68.46-29.1 27.54-69.4 27.54Z"/></svg>