<svg xmlns="http://www.w3.org/2000/svg" height="40" viewBox="0 -960 960 960" width="40"><path d="M743.71-616.67q-4.28-4-9.66-4h-3.67q-6.05 0-10.05 3.96-4 3.95-4 10 0 6.04 3.96 10.04 3.95 4 10 4h3.66q5.38 0 9.72-3.95 4.33-3.95 4.33-10t-4.29-10.05Zm-302.33-107q-3.95-4-10-4t-10.05 3.96q-4 3.95-4 10 0 6.04 3.97 10.04 3.97 4 10.03 4h1q5.64 0 9.32-3.95 3.68-3.95 3.68-10t-3.95-10.05Zm292.62 24q5.4 0 9.7-3.95 4.3-3.95 4.3-10t-4.3-10.05q-4.3-4-9.7-4H514.67q-6.07 0-10.04 3.96-3.96 3.95-3.96 10 0 6.04 3.96 10.04 3.97 4 10.04 4H734ZM251.67-386.6Q264-374 269.33-368.5q5.34 5.5 19 15.83L260-306q-17.33-13.67-23.33-20t-19-20l-49 41.67q-8.49 7.66-19.08 7-10.59-.67-17.26-8.84-7.33-8.83-5.83-19 1.5-10.16 8.83-17.83L185-385q-8.91-11.51-17.12-22.75Q159.67-419 150.33-431q-9.66-10.67-7-21.33Q146-463 155-469.67q9-6.66 19.83-6.66 10.84 0 20.5 12.33 5.35 7.97 11.77 16.67 6.42 8.69 12.57 17 18.33-24 36.83-48.67t29.83-55.33h-195q-11.2 0-18.6-7.11-7.4-7.11-7.4-17.99 0-11.9 7.4-18.9 7.4-7 18.6-7h85v-27.54q0-10.26 7.46-18.03 7.45-7.77 18.5-7.77 11.04 0 18.54 7.47t7.5 18.33v27.54h144q10.47 0 18.24 7.74 7.76 7.74 7.76 18.16 0 10.43-7.76 17.76-7.77 7.34-18.24 7.34H349q-17.67 42-44.17 78.33t-53.16 69.4ZM327-113.33l-24.67 59.4q-4 7.93-9.93 12.26-5.93 4.34-14.85 4.34-14.68 0-21.95-11.67T254-73.33L378.33-372q3.67-8 11.07-13.17 7.4-5.16 16.02-5.16h24.32q7.93 0 15.59 4.66Q453-381 456.67-373L582-73.67q5.67 13.34-2.55 24.84-8.22 11.5-21.67 11.5-9.45 0-15.7-4.61T533.33-54l-25.66-59.33H327Zm17.67-42.34H490l-72.33-181.66-73 181.66Zm474-288H484.95q-15.85 0-26.57-10.71-10.71-10.7-10.71-25.62v-112.67h188q6.06 0 10.03-3.95 3.97-3.95 3.97-10t-3.97-10.05q-3.97-4-10.03-4H310.33v-78.66q0 .14-.23.23-.22.1.57.1h-4q-14.5 0-24.75-10.59T271.67-734v-88.67q0-30 22.11-51 22.12-21 53.52-21h471.4q31.4 0 53.52 21 22.11 21 22.11 51v307q0 30-22.11 51-22.12 21-53.55 21Z"/></svg>