<svg xmlns="http://www.w3.org/2000/svg" height="20" viewBox="0 -960 960 960" width="20"><path d="M731.72-627.65q-5.05-5.27-12.78-5.27h-5q-7.73 0-12.79 5.25-5.07 5.25-5.07 12.58 0 7.32 5.05 12.59t12.77 5.27h5q7.73 0 12.8-5.25t5.07-12.58q0-7.32-5.05-12.59Zm-262.16-91q-5.05-5.27-12.77-5.27-7.73 0-12.8 5.25t-5.07 12.58q0 7.32 5.06 12.59t12.79 5.27h.38q7.57 0 12.52-5.25 4.94-5.25 4.94-12.58 0-7.32-5.05-12.59Zm249.36 30.42q7.74 0 12.79-5.25 5.06-5.25 5.06-12.58 0-7.32-5.06-12.59-5.05-5.27-12.79-5.27h-180q-7.73 0-12.79 5.25-5.05 5.25-5.05 12.58 0 7.32 5.05 12.59 5.06 5.27 12.79 5.27h180ZM275.23-340.92q10.38 9 14 14 3.61 4.99 17.77 13.38l-43.81 74.31q-14.35-12.39-21-19.54-6.65-7.16-21.5-21L167.39-231q-11.47 11.07-28.47 9.77-17-1.31-28.07-13.27-11.08-11.96-9.89-28.77 1.2-16.81 13.27-27.89l54.92-47.06q-9.84-10.94-17.5-22.28Q144-371.85 134-382.98q-12.85-17.02-8.31-32.41 4.54-15.38 17-24.61 12.46-9.23 29.35-9.31 16.88-.08 29.11 18 5.12 8.63 10.22 16.08 5.1 7.44 10.96 15.69 17.59-22.85 33.59-47.31 16-24.46 27.62-51.69H67.43q-17.12 0-28.27-11.1Q28-520.75 28-537.78q0-16.93 11.81-28.51 11.81-11.58 28.89-11.58h86.92v-16.67q0-16.33 12.25-28.59 12.25-12.25 28.57-12.25 16.33 0 28.6 12.25 12.27 12.26 12.27 28.68v16.22h153.65q16.29 0 28.05 12.25 11.76 12.25 11.76 28.58 0 16.32-12.26 28.09t-28.59 11.77h-15.77q-18.61 42.69-44.42 81.81-25.81 39.11-54.5 74.81Zm87.84 265.38-13.56 33.45Q345-29.92 335.42-23.58q-9.58 6.35-22.76 6.35-21.97 0-33.74-17.68-11.77-17.68-3.54-37.63l108.39-263.31q5.61-12.07 17.38-20.92 11.77-8.85 25.93-8.85h36.45q14.16 0 25.93 8.16 11.77 8.15 17.38 20.23L615.61-72.54q8.23 20.31-4.08 37.81-12.31 17.5-34.03 17.5-13.23 0-23.45-7.37-10.22-7.37-14.67-18.4l-13.46-32.54H363.07Zm25.54-66.61h111.77l-54.69-148.24-57.08 148.24Zm413.85-281.47H530.77q-18.67 0-31.91-13.24-13.25-13.24-13.25-31.91v-128.46h142.31q7.74 0 12.79-5.05 5.06-5.05 5.06-12.78 0-7.72-5.06-12.79-5.05-5.07-12.79-5.07H336.69v-41.85q0-10.04-6.79-16.82-6.79-6.79-16.82-6.79-18 0-31.19-13.2-13.2-13.2-13.2-31.19v-61.84q0-33.08 24.02-56.23Q316.73-884 349.23-884h453.23q32.5 0 56.52 23.16Q883-837.69 883-804.61V-503q0 33.08-24.02 56.23t-56.52 23.15Z"/></svg>