<svg xmlns="http://www.w3.org/2000/svg" height="24" viewBox="0 -960 960 960" width="24"><path d="M619-590q13.5 0 23-9.5t9.5-23q0-13.5-9.5-23t-23-9.5h-84q-13.95 0-23.47 9.5-9.53 9.5-9.53 23t9.5 23q9.5 9.5 23 9.5H619Zm138-55.5q-9.5-9.5-23-9.5t-23 9.5q-9.5 9.5-9.5 23t9.5 23q9.5 9.5 23 9.5t23-9.5q9.5-9.5 9.5-23t-9.5-23Zm-291.5-122q-9.5-9.5-23-9.5h-5q-13.5 0-23 9.5t-9.5 23q0 13.5 9.5 23t23 9.5h6q13.07 0 22.28-9.5 9.22-9.5 9.22-23t-9.5-23ZM735-712q13.07 0 22.28-9.5 9.22-9.5 9.22-23t-9.5-23q-9.5-9.5-23-9.5H564.5q-13.5 0-23 9.5t-9.5 23q0 13.5 9.5 23t23 9.5H735ZM289.5-353q17 13.5 33.5 24.75t33 22.75L299-202q-21-16-42.25-31.75T216.5-268.5l-45 39q-17 15-39.25 14t-36.75-18q-16-18-14.5-40.25t19-37.75l44.5-37q-5-8-10.75-15.5T120-378q-17.5-23.5-11.75-44.75T132-456.5q18-12.5 40-11.5t38.5 25.5q1.78 2.19 3.67 4.41 1.89 2.23 3.83 5.09 14-19.5 26-39.5t24.5-41.5h-204q-23 0-38.75-16T10-568.5q0-23 16.25-39.25T65.5-624h75v-11.5q0-22.5 16.5-39t39-16.5q22.5 0 39 16.5t16.5 39v11.5h147q22.5 0 38.5 16.5t16 39q0 22.5-16 38.5t-38.5 16h-7q-21 43.5-47.5 83.5T289.5-353Zm142 305L425-35.5q-5.5 15.5-18.87 24.75Q392.75-1.5 376.5-1.5q-29.16 0-45.33-23.75Q315-49 327-76.5L432.5-323q7.5-17.5 23-28.25t35-10.75H542q19.5 0 35 10.5t23 28L706.5-76q12 27.5-4.17 51T657-1.5q-18 0-32.67-9.63Q609.67-20.75 603.5-37l-5-11h-167Zm32-88h102L514-267l-50.5 131ZM950-521q0 45.5-31.75 76.75T840.5-413h-283q-22.5 0-39-16.5t-16.5-39q0-22.5 16.5-39t39-16.5H839v-316H332.5v7.5q0 22.5-16.5 39T277-777q-22.5 0-39-16.5t-16.5-39V-843q0-45.5 31.75-76.75T331-951h509.5q46 0 77.75 31.25T950-843v322Zm-111-3v-316 316Z"/></svg>