<svg xmlns="http://www.w3.org/2000/svg" height="24" viewBox="0 -960 960 960" width="24"><path d="M758.52-632.57q-9.5-9.5-23-9.5t-23 9.5q-9.5 9.5-9.5 23t9.5 23q9.5 9.5 23 9.5t23-9.5q9.5-9.5 9.5-23t-9.5-23Zm-301.39-122q-9.5-9.5-23-9.5h-1.2q-13.5 0-23 9.5t-9.5 23q0 13.5 9.5 23t23 9.5h1.44q13.5 0 22.88-9.5 9.38-9.5 9.38-23t-9.5-23Zm278.63 55.5q13.5 0 22.88-9.5 9.38-9.5 9.38-23t-9.5-23q-9.5-9.5-23-9.5H556.13q-13.5 0-23 9.5t-9.5 23q0 13.5 9.5 23t23 9.5h179.63ZM306.24-353.76q14.72 15.78 33.12 32.74 18.4 16.95 32.62 29.98l-32.65 75.34q-17.96-16-41.11-37.83-23.16-21.84-42.92-43.12l-90.65 89.22q-11.67 11.19-27.07 10.57-15.41-.62-26.1-12.29-10.68-11.92-10.32-26.94.36-15.02 11.77-25.95l92.44-90.26q-11.85-14.85-22.92-29.58-11.08-14.73-21.36-30.36-10.66-15.89-6.43-29.91t16.14-21.96q11.92-7.93 26.31-6.55 14.39 1.38 24.8 16.75 7.33 11.89 15.8 23.65 8.46 11.76 18.33 23.13 23.13-28.63 41.6-58.14 18.47-29.51 32.49-62.43H78.2q-15.4 0-26.58-11.05-11.19-11.05-11.19-26.71 0-15.39 11.31-26.69 11.3-11.31 26.69-11.31h134.35v-25.95q0-15.66 11.18-26.83 11.17-11.17 26.82-11.17t26.83 11.17q11.17 11.17 11.17 26.83v25.95h153.85q15.65 0 26.71 11.18 11.05 11.17 11.05 26.82 0 15.66-11.05 26.71-11.06 11.05-26.71 11.05h-32.87q-17.96 47.31-44.08 90.73-26.11 43.43-59.44 83.21Zm128.3 244.89-20.95 54.35q-3.98 10.17-13.05 16.76-9.06 6.59-20.24 6.59-19.6 0-30.28-16.15-10.67-16.14-3.24-34.51l112.35-277.69q4.46-11.41 14.25-17.98t22.45-6.57h32.47q12.66 0 22.45 6.7T565-359.26L678.35-81.33q7.43 18.37-3.24 34.26-10.68 15.9-30.28 15.9-11.92 0-21.47-6.46-9.56-6.46-13.77-17.63l-20.22-53.61H434.54ZM457.41-171H565.5l-54.54-143.17L457.41-171Zm387.66-263.3H582.28q-17.65 0-30.32-12.68-12.68-12.67-12.68-30.32v-99.77h77.94q13.5 0 22.75-9.5t9.25-26q0-13-8.25-22t-20.75-10l-276.11-24.5v-33.95q0-15.74-11.24-26.98t-26.98-11.24h-14q-17.65 0-30.32-12.67-12.68-12.68-12.68-30.33v-63.33q0-30.28 21.48-51.64t53.02-21.36h521.68q31.54 0 53.02 21.36 21.48 21.36 21.48 51.64v340.27q0 30.28-21.48 51.64t-53.02 21.36Z"/></svg>