<svg xmlns="http://www.w3.org/2000/svg" height="20" viewBox="0 -960 960 960" width="20"><path d="M698.75-586q-2.76-3-6.7-3-3.95 0-6.5 2.95-2.55 2.96-2.55 6.25 0 3.3 2.5 6.3 2.51 3 6.45 3 3.95 0 6.75-2.95 2.8-2.96 2.8-6.25 0-3.3-2.75-6.3Zm-269.5-84q-2.76-3-6.2-3-3.95 0-6.75 2.95-2.8 2.96-2.8 6.25 0 3.3 2.77 6.3 2.76 3 6.73 3h1q3.03 0 5.52-2.95 2.48-2.96 2.48-6.25 0-3.3-2.75-6.3ZM692-654.5q3.97 0 6.73-2.95 2.77-2.96 2.77-6.25 0-3.3-2.77-6.3-2.76-3-6.73-3H484q-3.97 0-6.73 2.95-2.77 2.96-2.77 6.25 0 3.3 2.77 6.3 2.76 3 6.73 3h208ZM272.5-393q15 17 25.75 29.5t30.25 27l-11.42 29q-18.08-17-31.58-30.75T253-372l-78 75q-4.5 3.5-11.25 3.75T154-297.5q-3-4-2.5-9.75t3.5-9.25l80.5-76.91Q221.5-409 211-426q-10.5-17-22.5-33.67-4.5-6.33-3-11.08t5.5-8.5q4-3.75 10-4.5t11.5 5.75q9.82 16.12 20.16 30.56Q243-433 254.25-417.5q24.75-30 46.5-61T335.5-546H118.08q-6.18 0-9.63-4.05-3.45-4.05-3.45-10.02 0-5.56 4.11-9.32 4.1-3.75 10.25-3.75H242V-608q0-5.07 4.2-9.53 4.21-4.47 9.75-4.47 5.55 0 10.05 4.47 4.5 4.46 4.5 9.62v34.41h130.03q5.04 0 9 4.45 3.97 4.46 3.97 9.75 0 5.3-4.47 9.8-4.46 4.5-9.53 4.5H368q-15 42.5-40.25 80.25T272.5-393ZM356-164l-34.1 83.3q-1.9 4.2-4.4 6.2-2.5 2-6.87 2-9.13 0-13.38-6.43t-.75-13.57l124-300.5q1.5-3 5-5.75t7.72-2.75h10.06q3.72 0 7.22 2 3.5 2 5.5 5L581.5-91q3 7.5-1.35 13t-12.08 5.5q-4.84 0-8.45-2.5-3.62-2.5-5.12-5.5L522-164H356Zm9.5-25H512l-73-182.5L365.5-189Zm401-255.5h-295q-10.55 0-17.77-7.23-7.23-7.22-7.23-17.77v-101h176q3.47 0 6.23-2.75 2.77-2.76 2.77-8.2 0-3.45-2.27-5.75-2.26-2.3-5.23-3.3l-315.5-12v-65q0 2.7 1.4 4.1 1.4 1.4 3.6 1.4h-7q-8.8 0-15.65-6.85T284-685v-85.5q0-15.5 11.95-26.25t28.55-10.75h442q16.6 0 28.55 10.75T807-770.5v289q0 15.5-11.95 26.25T766.5-444.5Z"/></svg>