<svg xmlns="http://www.w3.org/2000/svg" height="24" viewBox="0 -960 960 960" width="24"><path d="M633.13-603.7q13 0 21.5-8.78t8.5-21.61q0-12.83-8.5-21.22-8.5-8.39-21.5-8.39h-63.74q-13.25 0-21.41 8.39-8.15 8.39-8.15 21.22 0 12.83 8.5 21.61t21.5 8.78h63.3Zm141.98-51.61q-8.5-8.39-21.5-8.39h-3.31q-13 0-21.5 8.39t-8.5 21.22q0 12.83 8.5 21.61t21.5 8.78h3.31q13 0 21.5-8.78t8.5-21.61q0-12.83-8.5-21.22ZM484.33-775.2q-8.5-8.5-21.5-8.5H460q-13 0-21.5 8.5t-8.5 21.22q0 12.72 8.5 21.5t21.5 8.78h3.39q12.76 0 21.1-8.78 8.34-8.78 8.34-21.5t-8.5-21.22Zm269.78 51.5q12.82 0 21.16-8.78t8.34-21.5q0-12.72-8.54-21.22-8.54-8.5-21.6-8.5h-170.5q-13.06 0-21.6 8.5-8.54 8.5-8.54 21.22 0 12.72 8.54 21.5t21.61 8.78h171.13ZM291.17-322q12.83 9.57 25.72 19.13 12.89 9.57 26.28 18.7l-58.04 100.3q-17.39-13.69-34.35-27.26-16.95-13.57-32.08-28.13l-57.87 51.61q-16.26 15.13-37.81 13.91-21.54-1.22-37.24-17.98-15.69-16.76-14.41-39.37 1.28-22.61 19.11-38.3l57.17-47.91q-8.79-11.45-17.85-22.68-9.06-11.24-18.5-22.98-16.82-23.39-10.47-44.43 6.34-21.04 23.32-32.74 16.98-11.7 39.09-10.2 22.11 1.5 36.8 24.9 3.75 7.21 8.92 14.65t10.74 13.17q17.06-22.08 31.63-46.3 14.58-24.22 27.02-50.83H45.74q-22.83 0-38.52-15.39-15.7-15.39-15.7-38.39 0-22.26 15.98-38.52t38.8-16.26h88.79v-9.79q0-22.82 15.97-38.8 15.98-15.98 38.81-15.98 22.83 0 38.8 15.98 15.98 15.98 15.98 38.8v9.79h176.74q22.83 0 38.52 16.28 15.7 16.28 15.7 38.8 0 22.52-15.7 38-15.69 15.48-38.52 15.48h-23.65q-21.7 47.44-48.98 90.09Q321.48-362 291.17-322ZM421.52-39.65l-5.91 13.61q-5.57 15.69-19.07 24.82-13.51 9.13-30.19 9.13-28.59 0-44.17-23.32-15.57-23.33-4.88-49.72l103.61-257.7q7.13-17.26 23.01-28.17 15.87-10.91 35.47-10.91h49.79q19.6 0 35.47 10.63 15.87 10.63 23 28.45l104.18 256.7q10.69 26.39-5.47 50.22Q670.2 7.91 641.69 7.91q-17.34 0-31.78-9.72-14.44-9.73-19.65-25.8l-5.78-12.04H421.52Zm32.83-88.18h97.3l-48.43-134.04-48.87 134.04Zm513.69-397.43q0 45.65-31.95 77.61-31.96 31.95-77.61 31.95H593.61q-22.76 0-38.27-15.97-15.51-15.98-15.51-38.81 0-22.82 15.97-38.8 15.98-15.98 38.81-15.98h263.87v-334.22H354.57v54.57q0 22.82-15.98 38.8-15.98 15.98-38.53 15.98-22.54 0-38.52-15.98-15.98-15.98-15.98-38.8v-54.57q0-45.89 31.95-77.44 31.95-31.56 77.06-31.56h503.91q45.65 0 77.61 31.56 31.95 31.55 31.95 77.44v334.22Zm-109.56 0v-334.22 334.22Z"/></svg>