<svg xmlns="http://www.w3.org/2000/svg" height="48" viewBox="0 -960 960 960" width="48"><path d="M621-589.5q13.5 0 22.5-9t9-22.25q0-13.25-9-22.25t-22.5-9H501q-14.4 0-23.45 9-9.05 9-9.05 22.25t9 22.25q9 9 22.5 9h121ZM765-643q-9.5-9-22-9-13.5 0-22.25 9T712-620.75q0 13.25 8.75 22.25t22.25 9q12.5 0 22-9t9.5-22.25q0-13.25-9.5-22.25ZM465-764q-9-9-22-9h-3q-13.5 0-22.5 9t-9 22.25q0 13.25 9 22.25t22.5 9h4q12.57 0 21.28-9 8.72-9 8.72-22.25T465-764Zm277.8 53.5q13.27 0 22.48-9 9.22-9 9.22-22.25T765-764q-9.5-9-22-9H560q-13.5 0-22.5 9t-9 22.25q0 13.25 9 22.25t22.5 9h182.8ZM248.5-370q16 13.5 26.75 21.25t26.25 20.25l-48 91q-20-15-35-26.5T185-295l-28 21q-14.59 13.5-34.8 12.75Q102-262 89-277q-13.5-15.5-11.5-34.75T94-344.5l28.5-23q-1.18-2.8-3.34-5.15Q117-375 112.5-376q-17-20-12-39t20-30.75q15-11.75 36.25-11.25t36.75 21q-1.22-3.81-2.58-6.34-1.36-2.52-3.92-5.16 10-16.5 20.5-30.75t22-32.75h-166q-21.5 0-35-13.68T15-558.07q0-20.43 14-34.43t34.5-14H122V-625q0-20 13.75-34T170-673q20.5 0 34.5 14t14 34v18.5h108q19.4 0 33.2 14 13.8 14 13.8 34.25t-13.8 33.75Q345.9-511 326.5-511H341q-20 39-44.5 73.25t-48 67.75ZM381-66l-12 26.3q-4 13.2-15.81 20.7t-25.69 7.5q-25.37 0-39.44-21-14.06-21-3.56-45l114-262.5q6-15.5 19.75-24.5t29.79-9h44.85q15.54 0 29.19 9.12 13.66 9.13 20.92 22.88L658.5-76q10 23.5-4.07 44t-39.91 20.5q-15.52 0-28.27-8.27-12.75-8.28-17.75-21.73L557-66H381Zm28.5-79H527l-60-146.5L409.5-145ZM945-515.5q0 40.92-29.1 68.46-29.1 27.54-69.4 27.54H518q-20.33 0-34.92-14.42-14.58-14.42-14.58-34.5 0-19.58 14.58-34.08Q497.67-517 518-517h330.5v-332h-514v49.5q0 20.33-14.58 34.92Q305.33-750 285-750q-19.9 0-33.95-14.58Q237-779.17 237-799.5v-51q0-39.5 29.88-67.25 29.89-27.75 70.53-27.75h509.18q40.21 0 69.31 27.75T945-850.5v335Zm-96.5-1.5v-332 332Z"/></svg>