<svg xmlns="http://www.w3.org/2000/svg" height="40" viewBox="0 -960 960 960" width="40"><path d="M632-576.83q6.57 0 10.7-4.12 4.13-4.12 4.13-10.25t-4.13-10.3q-4.13-4.17-10.7-4.17H487.33q-6.77 0-10.63 4.12-3.87 4.12-3.87 10.25t4.14 10.3q4.13 4.17 10.7 4.17H632Zm105.38-24.67q-4.12-4.17-10.67-4.17-6.54 0-10.29 4.12-3.75 4.12-3.75 10.25t3.7 10.3q3.7 4.17 10.25 4.17t10.71-4.12q4.17-4.12 4.17-10.25t-4.12-10.3Zm-305.5-107.33q-4.12-4.17-9.83-4.17-6.55 0-10.72 4.12-4.16 4.12-4.16 10.25t4.13 10.3q4.13 4.16 10.7 4.16h1q5.3 0 9.15-4.12 3.85-4.12 3.85-10.25t-4.12-10.29Zm294.79 24.66q6.56 0 10.7-4.12 4.13-4.12 4.13-10.25t-4.13-10.29q-4.14-4.17-10.7-4.17h-221q-6.57 0-10.7 4.12-4.14 4.12-4.14 10.25t4.14 10.3q4.13 4.16 10.7 4.16h221Zm-458.5 291.24q15 17.93 28.91 31.6 13.92 13.66 29.75 28.16l-11.33 29.34q-18.5-17-34-32.25t-32.17-34.59L166-292q-4.98 4.17-11.33 4.58-6.34.42-9.34-4.41-4.33-4.67-3.5-10.42.84-5.75 4.17-10.25l84.83-80.67q-14-16.16-26.33-33.66-12.33-17.5-24-35.84-4.17-6-2.5-11.91 1.67-5.92 6-9.17t10.17-3q5.83.25 11.33 6.08 10.11 16.21 21.14 32.11 11.03 15.89 23.36 30.39 26-31 48.58-62.83 22.59-31.83 35.92-70.33h-226q-6.27 0-10.55-4.22-4.28-4.21-4.28-10.9 0-6.22 4.28-9.97 4.28-3.75 10.55-3.75H237v-37.36q0-5.54 3.7-9.67 3.71-4.13 10.25-4.13 6.55 0 10.72 4.13 4.16 4.13 4.16 9.67v37.36h144.34q5.73 0 9.86 4.12 4.14 4.12 4.14 10.25t-4.14 10.3q-4.13 4.17-9.86 4.17H368q-16 45.16-42.58 84.25-26.59 39.08-57.25 74.15Zm92.5 232.26L325.33-73.6q-1.66 4.43-5.29 6.77-3.62 2.33-7.27 2.33-8.86 0-12.98-6.58-4.12-6.59-.96-13.09l129-318.16q1.17-4 4.7-6.09 3.54-2.08 8.06-2.08h10.99q3.42 0 7.25 2 3.84 2 5.5 5.67L594.5-83.67q2.33 6.84-1.87 13-4.21 6.17-11.94 6.17-4.52 0-8.44-2.33-3.92-2.34-4.42-6.34L533-160.67H360.67ZM370.83-186H522l-76-190.17L370.83-186Zm495.5-314.5q0 20.5-14.78 34.42-14.78 13.91-37.05 13.91H487.67q-6.57 0-10.7-4.12-4.14-4.12-4.14-10.66 0-5.72 4.14-9.88 4.13-4.17 10.7-4.17h326.16q9.67 0 16.67-6 7-6 7-14v-316.67q0-8-7-14t-16.67-6H335.5q-10.17 0-16.92 6-6.75 6-6.75 14v122.84q0 6.56-4.12 10.7-4.12 4.13-10.66 4.13-7.22 0-10.63-4.13-3.42-4.14-3.42-10.7v-123.34q0-20.5 14.78-34.41 14.79-13.92 37.02-13.92h479.73q22.24 0 37.02 13.92 14.78 13.91 14.78 34.41v317.67ZM837.5-481V-837.67-481Z"/></svg>