<svg xmlns="http://www.w3.org/2000/svg" height="24" viewBox="0 -960 960 960" width="24"><path d="M757.87-638.11q-9.5-9.5-23-9.5t-23 9.5q-9.5 9.5-9.5 23t9.5 23q9.5 9.5 23 9.5t23-9.5q9.5-9.5 9.5-23t-9.5-23Zm-297.15-122q-9.5-9.5-23-9.5h-2.83q-13.5 0-23 9.5t-9.5 23q0 13.5 9.5 23t23 9.5h3.39q13.5 0 22.72-9.5 9.22-9.5 9.22-23t-9.5-23Zm274.71 55.5q13.5 0 22.72-9.5 9.22-9.5 9.22-23t-9.5-23q-9.5-9.5-23-9.5H559.72q-13.5 0-23 9.5t-9.5 23q0 13.5 9.5 23t23 9.5h175.71ZM299.06-353.43q15.7 14.8 33.29 29.31 17.58 14.51 32.78 26.88l-43.09 87.41q-19.26-16-41.6-35.22-22.33-19.23-41.77-39.54l-71.08 67.7q-13.96 12.82-32.3 12.04-18.33-.78-30.66-14.74-12.96-14.52-12.11-32.64.85-18.12 14.87-31.01l71.89-67.43q-8.91-11.92-17.71-23.55-8.79-11.63-18.09-23.34-13.59-19.16-8.71-36.28 4.88-17.12 19.4-27.01t32.18-8.67q17.65 1.22 30.67 20.5 5.04 7.65 10.74 15.33 5.7 7.69 11.98 15.47 19.21-24.72 34.91-50.15 15.7-25.43 29.07-53.46H72.33q-18.66 0-31.8-13.17t-13.14-31.76q0-18.65 13.42-32.08 13.43-13.42 32.08-13.42H181.8v-19.76q0-18.59 13.46-32.05 13.46-13.45 32.04-13.45 18.59 0 32.05 13.45 13.45 13.46 13.45 32.05v19.76h150.92q18.58 0 31.76 13.46 13.17 13.45 13.17 32.04T455.48-535q-13.18 13.17-31.76 13.17h-21.79q-19.26 45.68-45.54 87.63-26.28 41.96-57.33 80.77ZM433.24-82.78l-14.76 36.41q-4.63 12.46-15.49 20.19-10.86 7.72-24.32 7.72-23.84 0-36.8-19.4-12.96-19.4-3.57-41.68l109.42-264.33q5.76-14.02 18-22.38t27.82-8.36h40.63q15.59 0 27.83 8.33 12.24 8.32 18 22.35L690.41-79.04q9.4 22.28-3.56 41.43t-36.81 19.15q-14.52 0-26.19-7.76-11.68-7.76-16.87-21.21l-13.7-35.35H433.24ZM460.02-156H565.5l-53.24-137.95L460.02-156Zm383.09-269.17H573.8q-20.58 0-35.54-14.96t-14.96-35.54v-106.94h94.9q13.5 0 22.75-9.5t9.25-26q0-13-8.25-22t-20.75-10l-280.35-24.5v-42.76q0-16.07-11.57-27.63-11.56-11.57-27.63-11.57h-14q-20.59 0-35.54-14.95-14.96-14.96-14.96-35.55v-38.54q0-36.8 25.88-62.4t63.62-25.6h516.46q37.74 0 63.62 25.6 25.88 25.6 25.88 62.4v332.44q0 36.8-25.88 62.4t-63.62 25.6Z"/></svg>