<svg xmlns="http://www.w3.org/2000/svg" height="40" viewBox="0 -960 960 960" width="40"><path d="M623.39-575.91q10.83 0 18.06-7.23 7.23-7.22 7.23-17.78 0-10.57-7.23-17.81-7.23-7.24-18.06-7.24h-96.06q-11.1 0-18.08 7.22-6.98 7.23-6.98 17.79 0 10.56 7.23 17.81 7.23 7.24 18.06 7.24h95.83Zm130.37-42.82q-7.22-7.24-18.05-7.24-10.83 0-17.81 7.22-6.98 7.23-6.98 17.79 0 10.56 6.97 17.81 6.96 7.24 17.78 7.24 10.83 0 18.07-7.23 7.25-7.22 7.25-17.78 0-10.57-7.23-17.81ZM446.82-734.68q-7.22-7.24-17.52-7.24-10.83 0-18.07 7.22-7.24 7.23-7.24 17.79 0 10.56 7.23 17.81 7.23 7.24 18.06 7.24h.39q10.14 0 17.26-7.22 7.12-7.23 7.12-17.79 0-10.56-7.23-17.81Zm288.87 42.82q10.84 0 18.07-7.22 7.23-7.23 7.23-17.79 0-10.56-7.23-17.81-7.23-7.24-18.07-7.24h-201.2q-10.84 0-18.07 7.22-7.23 7.23-7.23 17.79 0 10.56 7.23 17.81 7.23 7.24 18.07 7.24h201.2ZM275.55-375.95q14.38 17.05 28.87 31.59 14.48 14.54 28.87 28.42l-19.33 51.18q-17.58-16.38-35.38-34.3-17.81-17.92-36.32-38.69l-83.54 80.93q-7.87 7.55-18.67 7.5-10.79-.04-17.18-8.05-7-7.75-6.27-17.6.73-9.85 7.45-17.02l85.66-84.15q-11.54-13.6-21.88-27.72-10.33-14.12-20.15-29.06-7.04-10-4.4-19.61 2.64-9.61 10.26-15.17 7.61-5.56 17.75-4.95 10.15.61 17.9 10.55 7.79 11.77 16.13 23.58 8.35 11.8 17.71 22.92 23.53-29.26 43.19-57.91 19.66-28.66 33.31-62.64H90.04q-10.62 0-17.96-7.27-7.34-7.26-7.34-18.14 0-10.39 7.34-17.52 7.34-7.14 17.96-7.14h128.6v-33.96q0-10.23 6.96-17.46 6.97-7.23 17.79-7.23 10.83 0 18.07 7.23t7.24 17.46v33.96h134.29q10.3 0 17.53 7.23 7.24 7.22 7.24 17.79 0 10.56-7.24 17.8-7.23 7.25-17.53 7.25h-28.94q-16.62 44.55-42.02 84.19-25.4 39.65-56.48 76.01Zm110.04 236.21L356.1-64.8q-2.59 6.81-8.62 10.94-6.04 4.13-12.93 4.13-13.55 0-20.68-10.89-7.13-10.89-2.01-22.73L434.6-385.1q2.81-6.98 8.99-11.11 6.18-4.14 13.97-4.14h20.12q7.16 0 13.56 4.16 6.4 4.15 9.4 10.79L624.65-82.44q4.59 11.76-2.47 22.23-7.06 10.48-20.17 10.48-7.69 0-14.02-4.18-6.32-4.18-8.47-11.15l-29.39-74.68H385.59Zm16.01-42.57h131.37l-66.46-168.32-64.91 168.32Zm493.66-319.11q0 23.57-17.23 39.95-17.22 16.38-42.2 16.38H527.56q-10.83 0-18.06-7.23-7.23-7.22-7.23-18.05 0-10.3 7.23-17.54 7.23-7.24 18.06-7.24h307.3q4.54 0 7.43-2.31 2.9-2.31 2.9-5.39v-335.12q0-3.08-2.9-5.39-2.89-2.31-7.43-2.31H330.78q-4.73 0-7.74 2.31-3 2.31-3 5.39v108.06q0 10.83-7.23 18.07-7.22 7.23-18.05 7.23-11.08 0-17.93-7.23-6.85-7.24-6.85-18.07V-839.4q0-23.57 17.42-39.95 17.43-16.38 42.36-16.38h506.12q24.93 0 42.15 16.38 17.23 16.38 17.23 39.95v337.98Zm-50.07 6.27v-350.52 350.52Z"/></svg>