<svg xmlns="http://www.w3.org/2000/svg" height="24" viewBox="0 -960 960 960" width="24"><path d="M770.37-641.11q-8.5-8.5-21.5-8.5t-21.5 8.5q-8.5 8.5-8.5 21.5t8.5 21.5q8.5 8.5 21.5 8.5t21.5-8.5q8.5-8.5 8.5-21.5t-8.5-21.5Zm-292.65-120q-8.5-8.5-21.5-8.5h-2.83q-13 0-21.5 8.5t-8.5 21.5q0 13 8.5 21.5t21.5 8.5h3.39q13 0 21.22-8.5 8.22-8.5 8.22-21.5t-8.5-21.5Zm271.71 51.5q13 0 21.22-8.5 8.22-8.5 8.22-21.5t-8.5-21.5q-8.5-8.5-21.5-8.5H576.22q-13 0-21.5 8.5t-8.5 21.5q0 13 8.5 21.5t21.5 8.5h173.21ZM308.56-323.43q15.7 15.3 37.79 33.56 22.08 18.26 37.78 31.13l-41.09 81.91q-19.26-16-45.85-38.97-26.58-22.98-46.02-43.29l-95.08 91.7q-12.96 11.82-30.05 11.54-17.08-.28-28.91-13.24-12.96-13.52-12.11-31.39.85-17.87 14.37-30.26l95.39-89.43q-14.91-17.92-28.46-36.05-13.54-18.13-25.84-37.34-12.09-18.66-6.96-34.53 5.13-15.87 18.65-24.26 13.52-8.39 29.68-6.67 16.15 1.72 26.67 19.5 9.04 15.65 19.74 31.08 10.7 15.44 23.48 29.22 25.21-29.22 44.41-62.15 19.2-32.93 33.07-68.46H59.83q-17.66 0-30.05-12.17t-12.39-30.26q0-17.65 12.67-30.33 12.68-12.67 30.33-12.67H196.3v-19.26q0-18.09 12.46-30.55 12.46-12.45 30.54-12.45 18.09 0 30.55 12.45 12.45 12.46 12.45 30.55v19.26h182.92q18.08 0 30.26 12.46 12.17 12.45 12.17 30.54T495.48-522q-12.18 12.17-30.26 12.17h-46.79q-19.26 51.18-47.04 97.63-27.78 46.46-62.83 88.77ZM457.74-86.78l-15.26 41.91q-4.13 11.96-14.74 19.44-10.61 7.47-23.57 7.47-22.34 0-34.8-18.15-12.46-18.15-4.07-38.93l107.92-278.83q5.26-13.52 17-21.63t26.82-8.11h37.13q15.09 0 26.83 8.33 11.74 8.32 17 21.85L705.91-75.04q8.4 20.78-4.06 38.93t-34.81 18.15q-13.52 0-24.69-7.76-11.18-7.76-15.87-20.71l-14.7-40.35H457.74ZM483.52-158H586l-51.74-142.95L483.52-158Zm373.09-266.17H625.3q-22.08 0-37.54-15.46t-15.46-37.54v-112.44h59.4q13 0 21.5-8.5t8.5-21.5q0-13-8.5-21.5t-21.5-8.5H354.35v-35.26q0-17.57-12.07-29.63-12.06-12.07-29.63-12.07-22.09 0-37.54-15.45-15.46-15.46-15.46-37.55v-77.04q0-36.3 24.63-61.15t61.37-24.85h510.96q36.74 0 61.37 24.85 24.63 24.85 24.63 61.15v346.44q0 36.3-24.63 61.15t-61.37 24.85Z"/></svg>