<svg xmlns="http://www.w3.org/2000/svg" height="48" viewBox="0 -960 960 960" width="48"><path d="M619.48-579.61q13.5 0 22.5-9t9-22.25q0-13.25-9-22.25t-22.5-9h-91.09q-14.05 0-22.9 9-8.84 9-8.84 22.25t9 22.25q9 9 22.5 9h91.33Zm146.66-53.5q-9.12-9-22.38-9-13.5 0-22.25 9t-8.75 22.25q0 13.25 8.75 22.25t22.25 9q13.26 0 22.38-9t9.12-22.25q0-13.25-9.12-22.25Zm-307.23-121q-9-9-22-9h-.71q-13.5 0-22.5 9t-9 22.25q0 13.25 9 22.25t22.5 9h.95q12.9 0 21.83-9 8.93-9 8.93-22.25t-9-22.25Zm284.8 53.5q13.45 0 22.5-9t9.05-22.25q0-13.25-9.12-22.25t-22.38-9H553.91q-13.5 0-22.5 9t-9 22.25q0 13.25 9 22.25t22.5 9h189.8ZM260.67-370.76q14.48 15.78 26.75 27.72 12.28 11.93 26.25 25.19l-29.74 70.46q-17.71-15.76-34.23-31.83-16.53-16.06-35.79-37.08l-62.24 59.04q-10.71 10.46-26.01 10.09-15.29-.37-24.49-11.57-9.69-10.93-8.45-24.86 1.24-13.92 11.17-23.62l64.26-63.32q-6.37-7.9-12.4-15.69-6.03-7.79-12.82-15.64-10.91-13.91-7.43-27.59 3.48-13.67 14.29-22 10.82-8.32 25.98-7.82t26.1 14.91q3.51 3.66 6.8 8t6.48 8.65q17.61-24.11 32.68-45.58 15.06-21.48 28.08-47.59H73.39q-15.41 0-25.49-10.12-10.07-10.12-10.07-25.1 0-14.78 10.19-24.98 10.2-10.19 25.37-10.19h102.63v-29.15q0-14.68 9.95-24.87 9.94-10.2 25.12-10.2 15.17 0 25.37 10.2 10.19 10.19 10.19 24.87v29.15h112.57q14.53 0 24.68 10.19 10.14 10.2 10.14 25.12 0 14.93-10.14 25-10.15 10.08-24.68 10.08h-4.52q-17.72 41.28-41.84 78.19-24.12 36.92-52.19 71.94Zm122.61 259.11-22.65 57.49q-3.24 9.4-11.72 15-8.49 5.59-18.37 5.59-18.6 0-28.82-15.29-10.22-15.29-2.76-32.44l119.32-286.09q4.48-10.18 13.67-16.51 9.18-6.34 20.24-6.34h30.13q10.56 0 19.92 6.37 9.35 6.36 14.13 15.74L637.2-79.8q6.95 16.65-3.08 31.44-10.04 14.79-28.74 14.79-10.95 0-19.89-5.97-8.95-5.97-12.42-15.66l-22.92-56.45H383.28Zm21.65-59.22H527L464.72-326.5l-59.79 155.63Zm517.24-333.98q0 29.19-21.41 49.28-21.42 20.09-51.22 20.09H532.46q-15.14 0-25.47-10.29-10.34-10.3-10.34-25.37 0-14.58 10.34-24.89 10.33-10.32 25.47-10.32h319.08v-345.69H328.41v92.87q0 15.13-10.33 25.47-10.34 10.33-25.47 10.33-15.03 0-25.05-10.33-10.02-10.34-10.02-25.47v-94.37q0-28.85 21.99-48.99 21.98-20.14 51.79-20.14h518.31q29.71 0 51.13 20.14 21.41 20.14 21.41 48.99v348.69Zm-70.63-1.5V-852.04v345.69Z"/></svg>