<svg xmlns="http://www.w3.org/2000/svg" height="20" viewBox="0 -960 960 960" width="20"><path d="M736.07-626.61q-6.8-7-17.2-7-10.4 0-17.2 7-6.8 7-6.8 17t6.8 17q6.8 7 17.2 7 10.4 0 17.2-7 6.8-7 6.8-17t-6.8-17Zm-256.65-96q-6.8-7-17.2-7h-2.83q-10.4 0-17.2 7-6.8 7-6.8 17t6.8 17q6.8 7 17.2 7h3.39q10.4 0 16.92-7 6.52-7 6.52-17t-6.8-17Zm240.01 41q10.4 0 16.92-7 6.52-7 6.52-17t-6.8-17q-6.8-7-17.2-7H558.22q-10.4 0-17.2 7-6.8 7-6.8 17t6.8 17q6.8 7 17.2 7h161.21ZM305.56-320.43q15.7 15.3 34.79 32.06 19.08 16.76 37.78 29.63l-40.51 79.91q-18.84-16-42.93-36.97-24.08-20.98-45.52-42.29l-89.08 86.7q-11.96 10.82-29.55 10.54-17.58-.28-28.41-12.24-11.96-12.52-11.11-30.39.85-17.87 13.37-29.26l90.39-84.34q-14.91-17.01-26.96-34.64-12.04-17.63-24.34-35.51-12.09-17.99-6.96-32.86 5.13-14.87 17.65-23.26 12.52-8.39 28.68-7.67 16.15.72 26.67 18.5 9.04 15.65 18.74 30.08 9.7 14.44 21.73 28.22 23.96-28.22 42.66-60.15 18.7-31.93 31.57-65.46H65.41q-17.24 0-28.63-11.67t-11.39-29.05q0-16.99 12.33-29.17 12.33-12.19 29.53-12.19H196.3v-17.61q0-17.09 12.46-29.55 12.46-12.45 29.54-12.45 17.09 0 29.55 12.45 12.45 12.46 12.45 29.64v17.17h167.95q17.05 0 28.73 12.46 11.67 12.45 11.67 29.54T476.48-511q-12.18 12.17-29.26 12.17h-35.79q-18.26 48.18-45.04 93.13-26.78 44.96-60.83 85.27ZM448.74-90.78l-14.36 39.21q-4.03 11.66-13.64 18.64-9.61 6.97-22.57 6.97-22.34 0-34.8-17.83-12.46-17.83-4.07-38.25l103.92-265.83q5.26-12.52 17-21.13t26.13-8.61h35.52q14.39 0 26.13 8.33 11.74 8.32 17 20.85L688.91-81.04q8.4 20.78-3.91 37.93-12.3 17.15-34.38 17.15-13.37 0-24.41-7.76-11.04-7.76-15.73-19.71l-12.7-37.35H448.74ZM473.52-161H573l-49.74-138.95L473.52-161Zm339.09-255.17H597.3q-20.38 0-34.69-14.31-14.31-14.31-14.31-34.69v-120.44h77.4q10.4 0 17.2-6.8 6.8-6.8 6.8-17.2 0-10.4-6.8-17.2-6.8-6.8-17.2-6.8H354.35v-27.26q0-15.87-10.92-26.78-10.91-10.92-26.78-10.92-20.39 0-34.69-14.3-14.31-14.31-14.31-34.7v-65.04q0-31.3 21.63-52.65 21.63-21.35 52.37-21.35h470.96q30.74 0 52.37 21.35t21.63 52.65v322.44q0 31.3-21.63 52.65-21.63 21.35-52.37 21.35Z"/></svg>