<svg xmlns="http://www.w3.org/2000/svg" height="20" viewBox="0 -960 960 960" width="20"><path d="M704.74-592.46q-3.92-4.16-9.47-4.16-5.55 0-9.32 4.12-3.76 4.12-3.76 9.08t3.73 9.11q3.72 4.16 9.28 4.16 5.55 0 9.5-4.12t3.95-9.08q0-4.96-3.91-9.11Zm-269.27-87.23q-3.92-4.16-9.09-4.16-5.55 0-9.5 4.12-3.96 4.12-3.96 9.08t3.93 9.11q3.93 4.16 9.5 4.16h.77q4.84 0 8.55-4.12 3.71-4.12 3.71-9.08t-3.91-9.11Zm259.76 22.31q5.57 0 9.5-4.12 3.92-4.12 3.92-9.08t-3.92-9.11q-3.93-4.16-9.5-4.16H495.88q-5.56 0-9.49 4.12-3.93 4.12-3.93 9.08t3.93 9.11q3.93 4.16 9.49 4.16h199.35ZM280.81-383.31q14.77 16.89 26.73 30.48 11.96 13.6 30.77 27.87l-14.43 37.19q-17.73-16.77-33.01-32.36-15.29-15.6-34.99-36.29l-82.84 80.77q-5.54 4.77-13.91 4.84-8.36.08-12.63-5.46-4.15-5.15-3.77-12.52.39-7.36 4.65-12.02l85.58-82.67q-14-15.71-24.67-32.6-10.67-16.88-22.44-33.66-5.43-7.84-3.41-13.97 2.02-6.14 7.18-10.52 5.15-4.39 12.53-4.85 7.39-.46 13.58 7.43 9.63 15.86 19.78 30.14 10.14 14.28 21.51 29.43 24.75-30.11 46.1-61.23 21.34-31.11 34.46-67.15H111.16q-7.66 0-12.33-5.19-4.68-5.19-4.68-12.74 0-7.12 5.33-12.15t12.95-5.03H240.5v-33.47q0-6.78 5.43-12.41 5.42-5.63 12.57-5.63t12.81 5.63q5.65 5.63 5.65 12.5v33.03h132.58q6.74 0 11.87 5.62 5.13 5.61 5.13 12.57t-5.63 12.61q-5.63 5.66-12.41 5.66h-31.15q-15.23 43.19-40.43 82.15-25.19 38.96-56.11 74Zm91.46 226.69-31.91 79.03q-2.24 5.13-5.73 7.88-3.48 2.75-9.03 2.75-10.83 0-16.18-8.05-5.34-8.04-1.27-17.03l120.89-294.5q1.96-4.27 6.5-7.71 4.54-3.44 10.05-3.44h13.48q5.12 0 9.66 2.81 4.54 2.8 6.89 7.07L597.88-90.54q3.7 9.35-1.69 16.46-5.39 7.12-15.08 7.12-5.99 0-10.59-3.19-4.6-3.2-6.56-7.47l-30.31-79H372.27Zm11.69-31.46h137.39l-68.5-173.38-68.89 173.38Zm390.85-253.77H492.04q-11.3 0-19.13-7.83-7.83-7.83-7.83-19.13v-101.34h154.65q5.18 0 9.05-3.92 3.87-3.92 3.87-11.32 0-5.05-3.25-8.5-3.26-3.46-7.82-4.46l-304.31-14.88v-54.5q0-1.11-1.2-2.3-1.19-1.2-2.69-1.2h-8.61q-9.95 0-17.5-7.54-7.54-7.55-7.54-17.88v-81.81q0-16.66 12.71-28.33 12.71-11.67 30.33-11.67h452.04q17.61 0 30.32 11.67 12.72 11.67 12.72 28.33v296.61q0 16.66-12.72 28.33-12.71 11.67-30.32 11.67Z"/></svg>