<svg xmlns="http://www.w3.org/2000/svg" height="40" viewBox="0 -960 960 960" width="40"><path d="M771.22-639.6q-8.68-8.5-21.31-8.5-13 0-21.5 8.5t-8.5 21.5q0 13 8.5 21.5t21.5 8.5q12.63 0 21.31-8.5 8.69-8.5 8.69-21.5t-8.69-21.5Zm-298.63-120q-8.5-8.5-21.5-8.5h-2.08q-13 0-21.5 8.5t-8.5 21.5q0 13 8.5 21.5t21.5 8.5h2.64q13 0 21.22-8.5 8.22-8.5 8.22-21.5t-8.5-21.5Zm277.44 51.5q13.07 0 21.48-8.5 8.4-8.5 8.4-21.5t-8.69-21.5q-8.68-8.5-21.31-8.5H568.42q-13 0-21.5 8.5t-8.5 21.5q0 13 8.5 21.5t21.5 8.5h181.61ZM276.16-344.77q15.32 15.31 31.93 29.32 16.6 14.01 31.92 27.26l-38.07 78.15q-18.88-15.63-39.66-34.03-20.77-18.39-40.21-38.41l-71.4 67.06q-12.24 11.45-29.04 11.16-16.79-.28-27.95-12.81-11.54-13.11-10.21-29.7 1.33-16.6 13.43-27.94l72.08-67.84q-9.73-12.11-18.66-23.8-8.93-11.68-17.9-24.03-12.38-17.23-7.91-32.49 4.46-15.26 17.04-24.42 12.58-9.16 29.31-7.92 16.73 1.24 27.84 18.18 5.42 8.12 11.72 16.54 6.3 8.42 12.88 16.29 19.97-25.31 36.11-51.04t29.34-55.14H61.71q-17.57 0-29.06-11.48-11.49-11.49-11.49-28.53 0-17.35 11.77-29.12 11.78-11.78 28.97-11.78h110.11v-22.48q0-17.33 11.7-29.03 11.71-11.71 29.04-11.71t29.04 11.71q11.7 11.7 11.7 29.03v22.48h145.38q17.1 0 28.64 11.7 11.53 11.71 11.53 29.04t-11.53 28.75q-11.54 11.42-28.64 11.42h-21.51q-18.88 45.93-44.67 86.76-25.78 40.84-56.53 78.85ZM415.45-91.65 398.3-46.27q-3.75 11.01-13.68 17.78-9.93 6.77-22.07 6.77-21.25 0-33.08-17.55-11.83-17.54-3.53-37.19l113.33-281.93q5.18-12.48 16.35-20.17 11.18-7.69 24.67-7.69h35.67q13.49 0 24.53 7.81 11.05 7.81 16.7 19.82l114 282.82q8.3 19.66-3.63 36.87-11.93 17.21-33.35 17.21-12.78 0-23.32-7.35-10.55-7.35-14.99-18.96l-17.25-43.62h-163.2Zm24.65-68.2h113.23l-57.45-150.47-55.78 150.47Zm415.26-266.96H574.61q-18.88 0-31.67-12.79-12.78-12.78-12.78-31.28V-588.1h98.49q13 0 21.5-8.5t8.5-21.5q0-13-8.5-21.5t-21.5-8.5H352.14v-39.29q0-14.57-10.14-24.61-10.15-10.04-24.88-10.04h-13.34q-18.5 0-31.28-12.79-12.79-12.79-12.79-31.66v-90.87q0-34.05 24.79-57.76 24.79-23.72 59.67-23.72h511.25q34.72 0 59.07 23.72 24.35 23.71 24.35 57.76v348.69q0 34.58-24.35 58.22t-59.13 23.64Z"/></svg>