<svg xmlns="http://www.w3.org/2000/svg" version="1.1" width="3300" height="2000"><g id="Notes"><style>
    text {
      font-family: monospace;
      text-anchor: middle;
    }
    text.emphasis {
      font-weight:bold;
    }
    text.lanchor {
      text-anchor: start;
    }
  </style><rect height="2200" id="artboard" fill="white" width="3300" x="0" y="0"/><line id="" style="fill:none;stroke:black;stroke-width:0.5;" x1="263" x2="3036" y1="292" y2="292"/><text class="lanchor emphasis" transform="matrix(1 0 0 1 263 322)">Weight/Scale Variations</text><text transform="matrix(1 0 0 1 559.711 322)">Ultralight</text><text transform="matrix(1 0 0 1 856.422 322)">Thin</text><text transform="matrix(1 0 0 1 1153.13 322)">Light</text><text transform="matrix(1 0 0 1 1449.84 322)">Regular</text><text transform="matrix(1 0 0 1 1746.56 322)">Medium</text><text transform="matrix(1 0 0 1 2043.27 322)">Semibold</text><text transform="matrix(1 0 0 1 2339.98 322)">Bold</text><text transform="matrix(1 0 0 1 2636.69 322)">Heavy</text><text transform="matrix(1 0 0 1 2933.4 322)">Black</text><text id="template-version" style="text-anchor: end;" transform="matrix(1 0 0 1 3036 1933)">Template v.1.0</text><text class="lanchor" transform="matrix(1 0 0 1 263 726)">Small</text><text class="lanchor" transform="matrix(1 0 0 1 263 1156)">Medium</text><text class="lanchor" transform="matrix(1 0 0 1 263 1586)">Large</text></g><g id="Guides"><g id="H-reference" style="fill:#27AAE1;stroke:none;" transform="matrix(1 0 0 1 339 696)"><path d="M 54.9316 0 L 57.666 0 L 30.5664 -70.459 L 28.0762 -70.459 L 0.976562 0 L 3.66211 0 L 12.9395 -24.4629 L 45.7031 -24.4629 Z M 29.1992 -67.0898 L 29.4434 -67.0898 L 44.8242 -26.709 L 13.8184 -26.709 Z"/></g><line id="Baseline-S" style="fill:none;stroke:#27AAE1;opacity:1;stroke-width:0.577;" x1="263" x2="3036" y1="696" y2="696"/><line id="Capline-S" style="fill:none;stroke:#27AAE1;opacity:1;stroke-width:0.577;" x1="263" x2="3036" y1="625.541" y2="625.541"/><g id="H-reference" style="fill:#27AAE1;stroke:none;" transform="matrix(1 0 0 1 339 1126)"><path d="M 54.9316 0 L 57.666 0 L 30.5664 -70.459 L 28.0762 -70.459 L 0.976562 0 L 3.66211 0 L 12.9395 -24.4629 L 45.7031 -24.4629 Z M 29.1992 -67.0898 L 29.4434 -67.0898 L 44.8242 -26.709 L 13.8184 -26.709 Z"/></g><line id="Baseline-M" style="fill:none;stroke:#27AAE1;opacity:1;stroke-width:0.577;" x1="263" x2="3036" y1="1126" y2="1126"/><line id="Capline-M" style="fill:none;stroke:#27AAE1;opacity:1;stroke-width:0.577;" x1="263" x2="3036" y1="1055.54" y2="1055.54"/><g id="H-reference" style="fill:#27AAE1;stroke:none;" transform="matrix(1 0 0 1 339 1556)"><path d="M 54.9316 0 L 57.666 0 L 30.5664 -70.459 L 28.0762 -70.459 L 0.976562 0 L 3.66211 0 L 12.9395 -24.4629 L 45.7031 -24.4629 Z M 29.1992 -67.0898 L 29.4434 -67.0898 L 44.8242 -26.709 L 13.8184 -26.709 Z"/></g><line id="Baseline-L" style="fill:none;stroke:#27AAE1;opacity:1;stroke-width:0.577;" x1="263" x2="3036" y1="1556" y2="1556"/><line id="Capline-L" style="fill:none;stroke:#27AAE1;opacity:1;stroke-width:0.577;" x1="263" x2="3036" y1="1485.54" y2="1485.54"/><rect height="119.336" id="left-margin" style="fill:darkred;stroke:none;opacity:0.4;" width="12.4512" x="1394.06" y="1030.79"/><rect height="119.336" id="right-margin" style="fill:darkgreen;stroke:none;opacity:0.4;" width="12.4512" x="1502.5112" y="1030.79"/><rect x="1406.5112" y="1045" width="96" height="96" fill="none" stroke="blue" stroke-dasharray="5"/><rect x="1394.06" y="1030.79" width="120.9024" height="119.336" fill="none" stroke="blue"/></g><g id="Symbols"><g id="Bold-L" transform="matrix(1 0 0 1 2266 1556)"><path d="M69.338 29.754 Q48.536 21.53 35.394 1.43 Q22.253 -18.67 22.253 -42.164 V-82.734 L77.4 -103.439 L132.709 -82.799 V-49.581 Q128.955 -51.521 125.254 -52.613 Q121.555 -53.704 117.874 -54.096 V-72.64 L77.4 -87.797 L36.926 -72.645 V-42.164 Q36.926 -27.808 43.054 -15.474 Q49.181 -3.141 59.824 5.083 Q60.146 11.855 62.646 18.063 Q65.145 24.271 69.338 29.754 Z M109.51 39.106 Q91.751 39.106 79.496 26.971 Q67.241 14.833 67.241 -2.941 Q67.241 -20.717 79.496 -32.972 Q91.751 -45.227 109.337 -45.227 Q127.084 -45.227 139.491 -33.002 Q151.898 -20.777 151.898 -2.94 Q151.898 1.535 151.091 5.345 Q150.285 9.156 148.995 12.823 Q148.834 12.339 148.108 11.533 Q147.382 10.726 147.06 10.243 L135.934 -0.561 Q136.579 -2.23 136.821 -3.464 Q137.062 -4.697 137.062 -6.205 Q135.773 -16.743 128.039 -23.647 Q120.305 -30.554 109.495 -30.554 Q98.04 -30.554 89.978 -22.612 Q81.915 -14.671 81.915 -3.101 Q81.915 7.663 88.957 15.403 Q96 23.143 106.425 24.271 Q107.771 24.271 109.166 24.11 Q110.561 23.949 112.069 23.465 L122.873 34.269 Q123.195 34.753 123.974 35.417 Q124.754 36.083 125.614 36.043 Q121.744 37.655 117.874 38.381 Q114.004 39.106 109.51 39.106 Z M139.804 27.174 Q137.546 29.431 134.563 29.351 Q131.58 29.27 129.645 27.174 L113.036 10.888 Q111.907 11.21 109.716 11.371 Q103.682 11.371 99.49 7.145 Q95.299 2.919 95.299 -3.015 Q95.299 -8.949 99.49 -13.221 Q103.681 -17.492 109.615 -17.492 Q115.71 -17.492 119.775 -13.197 Q123.84 -8.899 123.84 -2.98 Q123.84 -2.98 123.679 0.245 L139.804 16.854 Q142.222 18.95 142.142 22.014 Q142.061 25.078 139.804 27.174 Z"/></g><g id="Semibold-L" transform="matrix(1 0 0 1 1970.27 1556)"><path d="M69.687 29.613 Q48.957 21.53 35.851 1.466 Q22.743 -18.599 22.743 -42.164 V-82.525 L77.4 -103.089 L132.148 -82.589 V-49.372 Q128.815 -51.031 125.43 -52.087 Q122.045 -53.143 118.645 -53.606 V-73.27 L77.4 -88.78 L36.155 -73.277 V-42.164 Q36.155 -27.177 42.633 -14.213 Q49.112 -1.248 60.245 7.116 Q60.848 13.397 63.347 19.01 Q65.846 24.621 69.687 29.613 Z M109.579 38.756 Q91.961 38.756 79.812 26.69 Q67.662 14.624 67.662 -2.941 Q67.662 -20.508 79.812 -32.656 Q91.961 -44.807 109.407 -44.807 Q126.944 -44.807 139.21 -32.687 Q151.477 -20.566 151.477 -2.94 Q151.477 1.535 150.635 5.486 Q149.795 9.436 148.434 13.103 Q148.132 12.689 147.582 11.989 Q147.033 11.287 146.71 10.873 L136.985 1.332 Q137.561 -0.337 137.803 -1.746 Q138.045 -3.154 138.045 -4.802 Q137.314 -16.182 129.161 -23.823 Q121.007 -31.465 109.495 -31.465 Q97.619 -31.465 89.312 -23.243 Q81.004 -15.021 81.004 -3.101 Q81.004 8.364 88.747 16.489 Q96.49 24.615 107.757 25.253 Q109.244 25.253 110.814 25.092 Q112.383 24.931 113.962 24.447 L123.434 33.988 Q123.756 34.403 124.43 34.962 Q125.104 35.522 125.823 35.552 Q121.953 37.165 118.014 37.96 Q114.073 38.756 109.579 38.756 Z M139.523 26.893 Q137.477 28.941 134.773 28.894 Q132.07 28.849 130.275 26.893 L113.246 10.186 Q112.328 10.509 109.716 10.741 Q103.892 10.741 99.911 6.724 Q95.929 2.707 95.929 -3.015 Q95.929 -8.738 99.911 -12.8 Q103.892 -16.862 109.615 -16.862 Q115.429 -16.862 119.354 -12.776 Q123.279 -8.69 123.279 -2.98 Q123.279 -2.63 122.977 0.526 L139.523 17.484 Q141.661 19.44 141.616 22.223 Q141.571 25.008 139.523 26.893 Z"/></g><g id="Medium-L" transform="matrix(1 0 0 1 1674.31 1556)"><path d="M69.95 29.509 Q49.273 21.53 36.193 1.491 Q23.112 -18.545 23.112 -42.164 V-82.367 L77.4 -102.826 L131.727 -82.431 V-49.214 Q128.71 -50.663 125.562 -51.694 Q122.413 -52.722 119.223 -53.237 V-73.745 L77.4 -89.515 L35.577 -73.749 V-42.164 Q35.577 -26.703 42.317 -13.266 Q49.059 0.171 60.561 8.641 Q61.373 14.554 63.873 19.719 Q66.372 24.884 69.95 29.509 Z M109.632 38.494 Q92.119 38.494 80.048 26.479 Q67.978 14.466 67.978 -2.941 Q67.978 -20.35 80.048 -32.421 Q92.119 -44.491 109.46 -44.491 Q126.839 -44.491 139.001 -32.45 Q151.161 -20.41 151.161 -2.94 Q151.161 1.535 150.293 5.59 Q149.426 9.646 148.013 13.313 Q147.607 12.952 147.187 12.331 Q146.77 11.708 146.447 11.347 L137.774 2.751 Q138.296 1.082 138.538 -0.458 Q138.78 -1.998 138.78 -3.751 Q138.472 -15.761 130.001 -23.955 Q121.533 -32.149 109.495 -32.149 Q97.303 -32.149 88.812 -23.717 Q80.32 -15.283 80.32 -3.101 Q80.32 8.89 88.589 17.304 Q96.86 25.719 108.757 25.989 Q110.348 25.989 112.049 25.827 Q113.751 25.666 115.381 25.182 L123.855 33.779 Q124.177 34.14 124.772 34.62 Q125.367 35.101 125.981 35.183 Q122.111 36.796 118.119 37.644 Q114.126 38.494 109.632 38.494 Z M139.314 26.684 Q137.424 28.572 134.931 28.552 Q132.439 28.533 130.75 26.684 L113.404 9.66 Q112.644 9.983 109.716 10.267 Q104.05 10.267 100.227 6.408 Q96.403 2.549 96.403 -3.015 Q96.403 -8.582 100.227 -12.484 Q104.048 -16.388 109.615 -16.388 Q115.218 -16.388 119.038 -12.46 Q122.858 -8.532 122.858 -2.98 Q122.858 -2.367 122.452 0.735 L139.314 17.958 Q141.24 19.809 141.221 22.381 Q141.202 24.955 139.314 26.684 Z"/></g><g id="Regular-L" transform="matrix(1 0 0 1 1378.56 1556)"><path d="M70.144 29.431 Q49.504 21.53 36.443 1.511 Q23.381 -18.508 23.381 -42.164 V-82.25 L77.4 -102.632 L131.419 -82.315 V-49.097 Q128.632 -50.392 125.657 -51.403 Q122.684 -52.414 119.648 -52.967 V-74.091 L77.4 -90.055 L35.153 -74.096 V-42.164 Q35.153 -26.356 42.086 -12.571 Q49.02 1.213 60.791 9.759 Q61.759 15.403 64.258 20.24 Q66.758 25.078 70.144 29.431 Z M109.671 38.3 Q92.235 38.3 80.222 26.326 Q68.209 14.35 68.209 -2.941 Q68.209 -20.234 80.222 -32.247 Q92.235 -44.26 109.498 -44.26 Q126.762 -44.26 138.846 -32.276 Q150.93 -20.293 150.93 -2.94 Q150.93 1.535 150.043 5.668 Q149.156 9.801 147.705 13.468 Q147.221 13.145 146.899 12.581 Q146.576 12.016 146.254 11.694 L138.352 3.793 Q138.836 2.124 139.078 0.487 Q139.32 -1.15 139.32 -2.98 Q139.32 -15.453 130.619 -24.051 Q121.918 -32.65 109.495 -32.65 Q97.073 -32.65 88.446 -24.063 Q79.819 -15.477 79.819 -3.101 Q79.819 9.275 88.473 17.902 Q97.129 26.529 109.489 26.529 Q111.158 26.529 112.956 26.368 Q114.754 26.206 116.422 25.723 L124.163 33.624 Q124.485 33.946 125.022 34.369 Q125.561 34.793 126.097 34.914 Q122.228 36.526 118.196 37.413 Q114.165 38.3 109.671 38.3 Z M139.159 26.529 Q137.385 28.303 135.047 28.303 Q132.709 28.303 131.096 26.529 L113.52 9.275 Q112.875 9.598 109.716 9.92 Q104.166 9.92 100.457 6.177 Q96.75 2.435 96.75 -3.015 Q96.75 -8.466 100.457 -12.253 Q104.164 -16.041 109.615 -16.041 Q115.065 -16.041 118.807 -12.229 Q122.55 -8.416 122.55 -2.98 Q122.55 -2.174 122.066 0.89 L139.159 18.305 Q140.933 20.079 140.933 22.498 Q140.933 24.916 139.159 26.529 Z"/></g><g id="Light-L" transform="matrix(1 0 0 1 1082.77 1556)"><path d="M68.965 25.4 Q50.249 17.375 38.427 -1.187 Q26.606 -19.748 26.606 -41.854 V-79.956 L77.4 -99.098 L128.194 -80.02 V-49.036 Q125.988 -50.015 123.571 -50.789 Q121.154 -51.565 118.778 -51.976 V-73.47 L77.4 -89.063 L36.022 -73.477 V-41.854 Q36.022 -26.108 43.017 -12.386 Q50.012 1.337 61.846 9.635 Q62.565 14.162 64.476 18.007 Q66.385 21.853 68.965 25.4 Z M109.671 35.075 Q93.517 35.075 82.507 24.076 Q71.497 13.076 71.497 -2.927 Q71.497 -18.931 82.502 -29.983 Q93.509 -41.035 109.484 -41.035 Q125.398 -41.035 136.551 -30.023 Q147.705 -19.011 147.705 -2.94 Q147.705 0.819 147.004 4.286 Q146.304 7.753 145.162 10.8 Q144.803 10.602 144.574 10.162 Q144.343 9.722 144.145 9.523 L137.67 2.986 Q138.03 1.503 138.241 0.053 Q138.451 -1.398 138.451 -2.98 Q138.451 -15.08 130.03 -23.431 Q121.608 -31.781 109.556 -31.781 Q97.506 -31.781 89.128 -23.443 Q80.749 -15.104 80.749 -3.101 Q80.749 8.903 89.157 17.281 Q97.563 25.66 109.55 25.66 Q110.972 25.66 112.553 25.531 Q114.133 25.4 115.616 24.978 L121.992 31.577 Q122.128 31.776 122.542 32.106 Q122.955 32.435 123.369 32.432 Q120.101 33.685 116.76 34.38 Q113.42 35.075 109.671 35.075 Z M136.864 24.234 Q135.4 25.697 133.559 25.697 Q131.717 25.697 130.475 24.234 L113.459 7.538 Q112.857 7.922 109.716 8.369 Q104.835 8.369 101.568 5.07 Q98.301 1.77 98.301 -3.006 Q98.301 -7.784 101.565 -11.138 Q104.829 -14.49 109.605 -14.49 Q114.381 -14.49 117.69 -11.118 Q120.999 -7.747 120.999 -2.98 Q120.999 -2.156 120.33 0.829 L136.864 17.623 Q138.327 19.087 138.327 21.009 Q138.327 22.931 136.864 24.234 Z"/></g><g id="Thin-L" transform="matrix(1 0 0 1 787.282 1556)"><path d="M67.786 21.369 Q50.992 13.219 40.412 -3.885 Q29.831 -20.988 29.831 -41.543 V-77.661 L77.4 -95.562 L124.969 -77.726 V-48.973 Q123.343 -49.636 121.484 -50.175 Q119.625 -50.713 117.911 -50.983 V-72.851 L77.4 -88.07 L36.889 -72.856 V-41.543 Q36.889 -25.86 43.947 -12.2 Q51.005 1.461 62.9 9.51 Q63.371 12.922 64.692 15.775 Q66.013 18.628 67.786 21.369 Z M109.671 31.85 Q94.799 31.85 84.79 21.827 Q74.783 11.803 74.783 -2.912 Q74.783 -17.63 84.782 -27.719 Q94.781 -37.81 109.469 -37.81 Q124.032 -37.81 134.257 -27.771 Q144.48 -17.73 144.48 -2.94 Q144.48 0.101 143.966 2.904 Q143.451 5.707 142.619 8.133 Q142.384 8.059 142.247 7.743 Q142.111 7.427 142.037 7.353 L136.988 2.18 Q137.224 0.882 137.404 -0.381 Q137.583 -1.645 137.583 -2.98 Q137.583 -14.708 129.44 -22.811 Q121.297 -30.913 109.619 -30.913 Q97.94 -30.913 89.81 -22.823 Q81.68 -14.732 81.68 -3.101 Q81.68 8.53 89.839 16.662 Q97.996 24.792 109.613 24.792 Q110.787 24.792 112.149 24.694 Q113.512 24.594 114.81 24.234 L119.822 29.531 Q119.772 29.605 120.06 29.842 Q120.351 30.079 120.639 29.952 Q117.974 30.845 115.324 31.347 Q112.675 31.85 109.671 31.85 Z M134.57 21.94 Q133.415 23.093 132.07 23.093 Q130.724 23.093 129.856 21.94 L113.396 5.802 Q112.84 6.248 109.716 6.819 Q105.504 6.819 102.678 3.963 Q99.851 1.108 99.851 -2.998 Q99.851 -7.102 102.671 -10.02 Q105.491 -12.94 109.595 -12.94 Q113.699 -12.94 116.574 -10.009 Q119.449 -7.077 119.449 -2.98 Q119.449 -2.138 118.593 0.766 L134.57 16.941 Q135.723 18.094 135.723 19.521 Q135.723 20.946 134.57 21.94 Z"/></g><g id="Ultralight-L" transform="matrix(1 0 0 1 491.205 1556)"><path d="M67.08 18.95 Q51.439 10.726 41.602 -5.504 Q31.766 -21.733 31.766 -41.357 V-76.284 L77.4 -93.441 L123.034 -76.349 V-48.936 Q121.755 -49.41 120.231 -49.807 Q118.707 -50.204 117.39 -50.387 V-72.479 L77.4 -87.475 L37.41 -72.484 V-41.357 Q37.41 -25.711 44.505 -12.087 Q51.6 1.535 63.532 9.436 Q63.855 12.178 64.823 14.435 Q65.79 16.693 67.08 18.95 Z M109.671 29.915 Q95.568 29.915 86.161 20.477 Q76.755 11.039 76.755 -2.904 Q76.755 -16.847 86.149 -26.361 Q95.545 -35.875 109.46 -35.875 Q123.214 -35.875 132.88 -26.418 Q142.545 -16.96 142.545 -2.94 Q142.545 -0.327 142.142 2.075 Q141.739 4.479 141.094 6.534 Q140.933 6.534 140.852 6.292 Q140.771 6.05 140.771 6.05 L136.579 1.696 Q136.74 0.511 136.901 -0.642 Q137.062 -1.795 137.062 -2.98 Q137.062 -14.485 129.087 -22.438 Q121.112 -30.392 109.656 -30.392 Q98.201 -30.392 90.219 -22.451 Q82.237 -14.509 82.237 -3.101 Q82.237 8.308 90.247 16.289 Q98.258 24.271 109.65 24.271 Q110.674 24.271 111.907 24.191 Q113.141 24.11 114.326 23.788 L118.519 28.303 Q118.358 28.303 118.572 28.483 Q118.788 28.665 119.002 28.464 Q116.698 29.141 114.463 29.528 Q112.228 29.915 109.671 29.915 Z M133.192 20.563 Q132.225 21.53 131.177 21.53 Q130.129 21.53 129.484 20.563 L113.359 4.76 Q112.828 5.244 109.716 5.889 Q105.904 5.889 103.344 3.299 Q100.781 0.709 100.781 -2.991 Q100.781 -6.692 103.335 -9.351 Q105.89 -12.01 109.59 -12.01 Q113.291 -12.01 115.905 -9.343 Q118.519 -6.677 118.519 -2.98 Q118.519 -2.127 117.551 0.729 L133.192 16.531 Q134.16 17.499 134.16 18.628 Q134.16 19.756 133.192 20.563 Z"/></g><g id="Bold-M" transform="matrix(1 0 0 1 2281.8 1126)"><path d="M47.375 16.02 Q32.5 8.145 23.375 -7.017 Q14.25 -22.179 14.25 -39.73 V-74.105 L60 -91.23 L105.75 -74.105 V-50.98 Q101.729 -53.081 97.479 -54.254 Q93.229 -55.426 88.75 -55.855 V-62.48 L60 -73.105 L31.25 -62.487 V-39.73 Q31.25 -32.48 33.312 -25.98 Q35.375 -19.48 39.125 -13.605 Q38.625 -5.605 40.75 1.958 Q42.875 9.52 47.375 16.02 Z M84.853 25.52 Q70 25.52 59.562 15.113 Q49.125 4.704 49.125 -10.2 Q49.125 -25.105 59.562 -35.542 Q70 -45.98 84.816 -45.98 Q99.882 -45.98 110.316 -35.565 Q120.75 -25.151 120.75 -10.237 Q120.75 -6.98 120.25 -3.98 Q119.75 -0.98 118.75 2.02 Q118.25 1.02 117.5 0.083 Q116.75 -0.855 116 -1.73 L103.625 -13.98 Q103.625 -14.024 103.625 -13.855 Q103.625 -13.686 103.625 -13.605 Q102.375 -20.355 97.188 -24.792 Q92 -29.23 84.938 -29.23 Q77 -29.23 71.438 -23.73 Q65.875 -18.23 65.875 -10.292 Q65.875 -3.105 70.382 2.145 Q74.889 7.395 81.625 8.52 Q81.544 8.52 81.375 8.52 Q81.206 8.52 81.125 8.52 L93.375 20.77 Q94.125 21.645 95.041 22.348 Q95.959 23.051 97 23.52 Q94.125 24.52 91.125 25.02 Q88.125 25.52 84.853 25.52 Z M110.5 15.395 Q108 17.895 104.562 17.895 Q101.125 17.895 98.625 15.395 L86.75 3.645 Q86.375 3.645 85 3.645 Q79.249 3.645 75.124 -0.417 Q71 -4.48 71 -10.231 Q71 -15.982 75.124 -20.106 Q79.248 -24.23 84.999 -24.23 Q90.75 -24.23 94.75 -20.106 Q98.75 -15.981 98.75 -10.23 Q98.75 -10.105 98.75 -8.355 L110.5 3.52 Q113 5.895 113 9.395 Q113 12.895 110.5 15.395 Z"/></g><g id="Semibold-M" transform="matrix(1 0 0 1 1985.97 1126)"><path d="M48.028 15.585 Q33.261 7.928 24.19 -7.125 Q15.12 -22.179 15.12 -39.73 V-73.616 L60 -90.469 L104.88 -73.616 V-50.545 Q101.239 -52.375 97.396 -53.439 Q93.554 -54.502 89.511 -54.985 V-63.077 L60 -74.084 L30.489 -63.086 V-39.73 Q30.489 -31.719 32.986 -24.485 Q35.484 -17.252 39.94 -11.16 Q39.766 -3.866 41.864 2.936 Q43.962 9.738 48.028 15.585 Z M84.907 24.759 Q70.326 24.759 60.133 14.569 Q49.94 4.378 49.94 -10.2 Q49.94 -24.779 60.133 -34.999 Q70.326 -45.219 84.87 -45.219 Q99.556 -45.219 109.772 -35.022 Q119.989 -24.825 119.989 -10.237 Q119.989 -6.98 119.435 -3.899 Q118.88 -0.817 117.826 2.129 Q117.326 1.291 116.713 0.463 Q116.097 -0.366 115.403 -1.132 L104.604 -11.915 Q104.604 -12.067 104.604 -12.061 Q104.604 -12.055 104.604 -12.137 Q103.896 -19.757 98.301 -24.929 Q92.706 -30.1 84.938 -30.1 Q76.674 -30.1 70.868 -24.327 Q65.06 -18.556 65.06 -10.292 Q65.06 -2.452 70.274 3.178 Q75.486 8.808 83.037 9.444 Q83.12 9.444 83.114 9.444 Q83.108 9.444 83.19 9.444 L93.919 20.226 Q94.614 20.993 95.422 21.615 Q96.23 22.236 97.109 22.65 Q94.234 23.705 91.206 24.233 Q88.179 24.759 84.907 24.759 Z M109.956 14.851 Q107.729 17.08 104.616 17.108 Q101.505 17.134 99.222 14.851 L87.021 2.721 Q86.81 2.721 85 2.83 Q79.575 2.83 75.695 -0.987 Q71.815 -4.806 71.815 -10.231 Q71.815 -15.656 75.695 -19.535 Q79.574 -23.415 84.999 -23.415 Q90.424 -23.415 94.206 -19.535 Q97.989 -15.655 97.989 -10.23 Q97.989 -9.834 97.88 -8.084 L109.956 4.118 Q112.185 6.33 112.213 9.449 Q112.239 12.569 109.956 14.851 Z"/></g><g id="Medium-M" transform="matrix(1 0 0 1 1689.91 1126)"><path d="M48.516 15.259 Q33.831 7.765 24.801 -7.207 Q15.771 -22.179 15.771 -39.73 V-73.249 L60 -89.899 L104.229 -73.249 V-50.219 Q100.873 -51.845 97.335 -52.827 Q93.799 -53.81 90.081 -54.334 V-63.526 L60 -74.817 L29.919 -63.534 V-39.73 Q29.919 -31.149 32.741 -23.365 Q35.565 -15.58 40.551 -9.325 Q40.623 -2.561 42.7 3.67 Q44.778 9.9 48.516 15.259 Z M84.948 24.189 Q70.571 24.189 60.561 14.161 Q50.551 4.134 50.551 -10.2 Q50.551 -24.534 60.561 -34.591 Q70.571 -44.649 84.911 -44.649 Q99.311 -44.649 109.365 -34.615 Q119.419 -24.58 119.419 -10.237 Q119.419 -6.98 118.824 -3.837 Q118.229 -0.695 117.134 2.21 Q116.634 1.495 116.121 0.749 Q115.609 0.001 114.954 -0.684 L105.338 -10.366 Q105.338 -10.6 105.338 -10.716 Q105.338 -10.832 105.338 -11.037 Q105.037 -19.309 99.138 -25.03 Q93.236 -30.751 84.938 -30.751 Q76.429 -30.751 70.439 -24.776 Q64.449 -18.801 64.449 -10.292 Q64.449 -1.964 70.191 3.953 Q75.935 9.868 84.097 10.136 Q84.302 10.136 84.419 10.136 Q84.535 10.136 84.739 10.136 L94.326 19.819 Q94.981 20.504 95.707 21.064 Q96.434 21.625 97.19 21.999 Q94.315 23.094 91.267 23.641 Q88.22 24.189 84.948 24.189 Z M109.549 14.444 Q107.525 16.469 104.657 16.516 Q101.791 16.564 99.671 14.444 L87.225 2.029 Q87.136 2.029 85 2.219 Q79.819 2.219 76.123 -1.416 Q72.426 -5.051 72.426 -10.231 Q72.426 -15.411 76.123 -19.107 Q79.819 -22.804 84.999 -22.804 Q90.179 -22.804 93.799 -19.107 Q97.419 -15.411 97.419 -10.23 Q97.419 -9.63 97.229 -7.88 L109.549 4.566 Q111.574 6.656 111.621 9.49 Q111.669 12.324 109.549 14.444 Z"/></g><g id="Regular-M" transform="matrix(1 0 0 1 1394.06 1126)"><path d="M48.875 15.02 Q34.25 7.645 25.25 -7.267 Q16.25 -22.179 16.25 -39.73 V-72.98 L60 -89.48 L103.75 -72.98 V-49.98 Q100.604 -51.456 97.291 -52.379 Q93.979 -53.301 90.5 -53.855 V-63.855 L60 -75.355 L29.5 -63.862 V-39.73 Q29.5 -30.73 32.562 -22.542 Q35.625 -14.355 41 -7.98 Q41.25 -1.605 43.312 4.208 Q45.375 10.02 48.875 15.02 Z M84.978 23.77 Q70.75 23.77 60.875 13.863 Q51 3.954 51 -10.2 Q51 -24.355 60.875 -34.292 Q70.75 -44.23 84.941 -44.23 Q99.132 -44.23 109.066 -34.315 Q119 -24.401 119 -10.237 Q119 -6.98 118.375 -3.792 Q117.75 -0.605 116.625 2.27 Q116.125 1.645 115.688 0.958 Q115.25 0.27 114.625 -0.355 L105.875 -9.23 Q105.875 -9.524 105.875 -9.73 Q105.875 -9.936 105.875 -10.23 Q105.875 -18.98 99.75 -25.105 Q93.625 -31.23 84.938 -31.23 Q76.25 -31.23 70.125 -25.105 Q64 -18.98 64 -10.292 Q64 -1.605 70.132 4.52 Q76.264 10.645 84.875 10.645 Q85.169 10.645 85.375 10.645 Q85.581 10.645 85.875 10.645 L94.625 19.52 Q95.25 20.145 95.916 20.66 Q96.584 21.176 97.25 21.52 Q94.375 22.645 91.312 23.208 Q88.25 23.77 84.978 23.77 Z M109.25 14.145 Q107.375 16.02 104.688 16.083 Q102 16.145 100 14.145 L87.375 1.52 Q87.375 1.52 85 1.77 Q79.999 1.77 76.436 -1.73 Q72.875 -5.23 72.875 -10.231 Q72.875 -15.232 76.436 -18.794 Q79.998 -22.355 84.999 -22.355 Q90 -22.355 93.5 -18.794 Q97 -15.231 97 -10.23 Q97 -9.48 96.75 -7.73 L109.25 4.895 Q111.125 6.895 111.188 9.52 Q111.25 12.145 109.25 14.145 Z"/></g><g id="Light-M" transform="matrix(1 0 0 1 1098.18 1126)"><path d="M49.068 12.28 Q35.453 5.049 27.101 -8.997 Q18.75 -23.044 18.75 -39.73 V-71.249 L60 -86.787 L101.25 -71.249 V-49.211 Q98.696 -50.394 96.009 -51.134 Q93.321 -51.872 90.5 -52.316 V-63.855 L60 -75.307 L29.5 -63.862 V-39.73 Q29.5 -30.056 33.115 -21.389 Q36.731 -12.72 42.875 -6.49 Q43.029 -1.269 44.635 3.463 Q46.24 8.193 49.068 12.28 Z M84.978 21.27 Q71.791 21.27 62.646 12.094 Q53.5 2.919 53.5 -10.189 Q53.5 -23.297 62.642 -32.514 Q71.785 -41.73 84.93 -41.73 Q98.075 -41.73 107.287 -32.545 Q116.5 -23.359 116.5 -10.237 Q116.5 -7.439 115.971 -4.671 Q115.442 -1.904 114.558 0.539 Q114.154 0.059 113.836 -0.485 Q113.519 -1.029 113.039 -1.509 L105.828 -8.845 Q105.828 -9.187 105.851 -9.537 Q105.875 -9.887 105.875 -10.23 Q105.875 -18.98 99.75 -25.105 Q93.625 -31.23 84.938 -31.23 Q76.25 -31.23 70.125 -25.105 Q64 -18.98 64 -10.292 Q64 -1.605 70.132 4.52 Q76.264 10.645 84.875 10.645 Q85.218 10.645 85.567 10.621 Q85.918 10.598 86.26 10.598 L93.422 17.981 Q93.904 18.463 94.426 18.834 Q94.949 19.205 95.471 19.453 Q93.015 20.346 90.391 20.809 Q87.769 21.27 84.978 21.27 Z M107.471 12.366 Q105.933 13.905 103.797 13.968 Q101.664 14.03 100 12.366 L87.471 -0.115 Q87.457 -0.066 85 0.28 Q80.614 0.28 77.49 -2.78 Q74.365 -5.84 74.365 -10.224 Q74.365 -14.607 77.487 -17.736 Q80.609 -20.865 84.991 -20.865 Q89.375 -20.865 92.442 -17.74 Q95.51 -14.616 95.51 -10.23 Q95.51 -9.466 95.115 -7.634 L107.471 4.848 Q109.01 6.51 109.073 8.606 Q109.135 10.703 107.471 12.366 Z"/></g><g id="Thin-M" transform="matrix(1 0 0 1 802.565 1126)"><path d="M49.26 9.539 Q36.654 2.453 28.953 -10.729 Q21.25 -23.91 21.25 -39.73 V-69.519 L60 -84.095 L98.75 -69.519 V-48.441 Q96.791 -49.331 94.729 -49.887 Q92.666 -50.444 90.5 -50.777 V-63.855 L60 -75.259 L29.5 -63.862 V-39.73 Q29.5 -29.384 33.669 -20.235 Q37.836 -11.086 44.75 -4.999 Q44.807 -0.932 45.956 2.718 Q47.106 6.366 49.26 9.539 Z M84.978 18.77 Q72.834 18.77 64.416 10.326 Q56 1.884 56 -10.177 Q56 -22.24 64.41 -30.735 Q72.82 -39.23 84.919 -39.23 Q97.017 -39.23 105.509 -30.774 Q114 -22.317 114 -10.237 Q114 -7.899 113.567 -5.55 Q113.135 -3.201 112.49 -1.191 Q112.183 -1.527 111.985 -1.927 Q111.789 -2.326 111.453 -2.662 L105.779 -8.461 Q105.779 -8.851 105.828 -9.345 Q105.875 -9.84 105.875 -10.23 Q105.875 -18.98 99.75 -25.105 Q93.625 -31.23 84.938 -31.23 Q76.25 -31.23 70.125 -25.105 Q64 -18.98 64 -10.292 Q64 -1.605 70.132 4.52 Q76.264 10.645 84.875 10.645 Q85.265 10.645 85.76 10.598 Q86.254 10.549 86.644 10.549 L92.221 16.443 Q92.558 16.78 92.936 17.006 Q93.314 17.234 93.692 17.385 Q91.655 18.049 89.471 18.41 Q87.287 18.77 84.978 18.77 Z M105.692 10.588 Q104.49 11.789 102.909 11.851 Q101.328 11.914 100 10.588 L87.567 -1.749 Q87.54 -1.652 85 -1.211 Q81.228 -1.211 78.541 -3.831 Q75.856 -6.451 75.856 -10.216 Q75.856 -13.982 78.537 -16.679 Q81.219 -19.374 84.985 -19.374 Q88.75 -19.374 91.385 -16.689 Q94.019 -14.002 94.019 -10.23 Q94.019 -9.452 93.481 -7.537 L105.692 4.799 Q106.894 6.126 106.956 7.693 Q107.019 9.26 105.692 10.588 Z"/></g><g id="Ultralight-M" transform="matrix(1 0 0 1 506.415 1126)"><path d="M49.375 7.895 Q37.375 0.895 30.062 -11.767 Q22.75 -24.429 22.75 -39.73 V-68.48 L60 -82.48 L97.25 -68.48 V-47.98 Q95.646 -48.694 93.959 -49.141 Q92.271 -49.587 90.5 -49.855 V-63.855 L60 -75.23 L29.5 -63.862 V-39.73 Q29.5 -28.98 34 -19.542 Q38.5 -10.105 45.875 -4.105 Q45.875 -0.73 46.75 2.27 Q47.625 5.27 49.375 7.895 Z M84.978 17.27 Q73.459 17.27 65.479 9.266 Q57.5 1.263 57.5 -10.171 Q57.5 -21.605 65.47 -29.667 Q73.441 -37.73 84.911 -37.73 Q96.382 -37.73 104.441 -29.711 Q112.5 -21.692 112.5 -10.237 Q112.5 -8.174 112.125 -6.077 Q111.75 -3.98 111.25 -2.23 Q111 -2.48 110.875 -2.792 Q110.75 -3.105 110.5 -3.355 L105.75 -8.23 Q105.75 -8.649 105.812 -9.23 Q105.875 -9.811 105.875 -10.23 Q105.875 -18.98 99.75 -25.105 Q93.625 -31.23 84.938 -31.23 Q76.25 -31.23 70.125 -25.105 Q64 -18.98 64 -10.292 Q64 -1.605 70.132 4.52 Q76.264 10.645 84.875 10.645 Q85.294 10.645 85.875 10.583 Q86.456 10.52 86.875 10.52 L91.5 15.52 Q91.75 15.77 92.041 15.91 Q92.334 16.051 92.625 16.145 Q90.839 16.67 88.919 16.97 Q86.999 17.27 84.978 17.27 Z M104.625 9.52 Q103.625 10.52 102.375 10.583 Q101.125 10.645 100 9.52 L87.625 -2.73 Q87.589 -2.605 85 -2.105 Q81.596 -2.105 79.174 -4.461 Q76.75 -6.817 76.75 -10.212 Q76.75 -13.607 79.168 -16.044 Q81.585 -18.48 84.98 -18.48 Q88.375 -18.48 90.75 -16.056 Q93.125 -13.634 93.125 -10.23 Q93.125 -9.444 92.5 -7.48 L104.625 4.77 Q105.625 5.895 105.688 7.145 Q105.75 8.395 104.625 9.52 Z"/></g><g id="Bold-S" transform="matrix(1 0 0 1 2294.23 696)"><path d="M36.886 3.431 Q25.741 -2.684 18.887 -14.088 Q12.032 -25.492 12.032 -38.682 V-64.324 L47.34 -77.836 L82.648 -64.324 V-47.755 Q79.672 -49.315 76.512 -50.24 Q73.353 -51.165 70.024 -51.503 V-55.744 L47.34 -64.324 L24.656 -55.75 V-38.682 Q24.656 -33.135 26.31 -28.162 Q27.964 -23.188 30.968 -18.661 Q30.574 -12.645 32.053 -7.023 Q33.532 -1.402 36.886 3.431 Z M66.16 11.913 Q54.441 11.913 46.206 3.701 Q37.971 -4.511 37.971 -16.27 Q37.971 -28.03 46.206 -36.266 Q54.441 -44.501 66.131 -44.501 Q78.018 -44.501 86.251 -36.283 Q94.483 -28.067 94.483 -16.3 Q94.483 -13.206 93.891 -10.362 Q93.299 -7.516 92.214 -4.755 Q91.707 -5.807 90.975 -6.809 Q90.242 -7.812 89.453 -8.7 L81.267 -16.688 Q81.464 -17.315 81.612 -17.872 Q81.76 -18.429 81.76 -18.957 Q80.774 -24.677 76.484 -28.376 Q72.194 -32.074 66.227 -32.074 Q59.57 -32.074 54.983 -27.537 Q50.397 -23 50.397 -16.343 Q50.397 -10.278 54.151 -5.938 Q57.904 -1.599 63.613 -0.711 Q64.141 -0.711 64.698 -0.859 Q65.255 -1.007 65.783 -1.204 L73.772 6.883 Q74.561 7.771 75.53 8.374 Q76.5 8.979 77.618 9.447 Q75.054 10.532 72.144 11.222 Q69.235 11.913 66.16 11.913 Z M85.902 3.431 Q84.029 5.305 81.497 5.305 Q78.966 5.305 77.125 3.431 L67.46 -6.037 Q66.868 -5.938 66.276 -6.136 Q62.064 -6.136 59.041 -9.115 Q56.019 -12.095 56.019 -16.316 Q56.019 -20.537 59.047 -23.544 Q62.076 -26.551 66.296 -26.551 Q70.517 -26.551 73.426 -23.529 Q76.336 -20.506 76.336 -16.294 Q76.336 -16.59 76.434 -15.012 L85.902 -5.445 Q87.776 -3.679 87.776 -1.061 Q87.776 1.557 85.902 3.431 Z"/></g><g id="Semibold-S" transform="matrix(1 0 0 1 1998.1 696)"><path d="M37.401 3.088 Q26.342 -2.855 19.53 -14.174 Q12.719 -25.492 12.719 -38.682 V-63.939 L47.34 -77.235 L81.961 -63.939 V-47.412 Q79.286 -48.757 76.448 -49.597 Q73.611 -50.436 70.624 -50.817 V-56.215 L47.34 -65.097 L24.056 -56.222 V-38.682 Q24.056 -32.535 26.053 -26.982 Q28.05 -21.429 31.611 -16.732 Q31.474 -11.273 32.932 -6.251 Q34.391 -1.23 37.401 3.088 Z M66.203 11.312 Q54.698 11.312 46.656 3.272 Q38.614 -4.769 38.614 -16.27 Q38.614 -27.773 46.656 -35.837 Q54.698 -43.9 66.173 -43.9 Q77.761 -43.9 85.822 -35.855 Q93.882 -27.809 93.882 -16.3 Q93.882 -13.206 93.248 -10.297 Q92.613 -7.388 91.486 -4.669 Q90.979 -5.592 90.352 -6.509 Q89.727 -7.427 88.981 -8.228 L82.039 -15.059 Q82.236 -15.771 82.384 -16.457 Q82.532 -17.142 82.532 -17.799 Q81.974 -24.206 77.362 -28.483 Q72.751 -32.76 66.227 -32.76 Q59.312 -32.76 54.534 -28.009 Q49.754 -23.258 49.754 -16.343 Q49.754 -9.763 54.065 -5.124 Q58.375 -0.484 64.728 0.018 Q65.384 0.018 66.07 -0.13 Q66.755 -0.278 67.412 -0.476 L74.201 6.454 Q74.946 7.256 75.831 7.796 Q76.714 8.336 77.704 8.761 Q75.139 9.889 72.208 10.601 Q69.277 11.312 66.203 11.312 Z M85.473 3.002 Q83.814 4.662 81.54 4.684 Q79.266 4.704 77.596 3.002 L67.674 -6.766 Q67.211 -6.667 66.276 -6.779 Q62.321 -6.779 59.492 -9.566 Q56.662 -12.352 56.662 -16.316 Q56.662 -20.279 59.498 -23.093 Q62.333 -25.908 66.296 -25.908 Q70.259 -25.908 72.997 -23.078 Q75.735 -20.249 75.735 -16.294 Q75.735 -16.376 75.748 -14.798 L85.473 -4.974 Q87.133 -3.336 87.155 -1.018 Q87.176 1.3 85.473 3.002 Z"/></g><g id="Medium-S" transform="matrix(1 0 0 1 1701.85 696)"><path d="M37.786 2.83 Q26.791 -2.984 20.012 -14.238 Q13.233 -25.492 13.233 -38.682 V-63.649 L47.34 -76.786 L81.447 -63.649 V-47.155 Q78.997 -48.339 76.4 -49.114 Q73.803 -49.89 71.074 -50.303 V-56.569 L47.34 -65.676 L23.606 -56.575 V-38.682 Q23.606 -32.085 25.859 -26.097 Q28.114 -20.111 32.094 -15.284 Q32.15 -10.243 33.592 -5.672 Q35.034 -1.102 37.786 2.83 Z M66.235 10.862 Q54.892 10.862 46.994 2.951 Q39.096 -4.961 39.096 -16.27 Q39.096 -27.58 46.994 -35.515 Q54.892 -43.45 66.206 -43.45 Q77.568 -43.45 85.5 -35.534 Q93.432 -27.616 93.432 -16.3 Q93.432 -13.206 92.766 -10.248 Q92.099 -7.292 90.939 -4.605 Q90.431 -5.431 89.887 -6.285 Q89.341 -7.137 88.627 -7.874 L82.618 -13.837 Q82.815 -14.613 82.963 -15.396 Q83.111 -16.178 83.111 -16.931 Q82.875 -23.852 78.022 -28.563 Q73.169 -33.274 66.227 -33.274 Q59.119 -33.274 54.195 -28.363 Q49.272 -23.451 49.272 -16.343 Q49.272 -9.377 54 -4.512 Q58.729 0.352 65.564 0.564 Q66.317 0.564 67.1 0.416 Q67.882 0.268 68.634 0.071 L74.522 6.132 Q75.236 6.87 76.056 7.361 Q76.875 7.853 77.768 8.247 Q75.204 9.407 72.257 10.135 Q69.31 10.862 66.235 10.862 Z M85.152 2.68 Q83.654 4.18 81.572 4.217 Q79.491 4.255 77.95 2.68 L67.834 -7.312 Q67.468 -7.214 66.276 -7.261 Q62.513 -7.261 59.829 -9.903 Q57.144 -12.545 57.144 -16.316 Q57.144 -20.086 59.835 -22.756 Q62.525 -25.426 66.296 -25.426 Q70.066 -25.426 72.676 -22.741 Q75.285 -20.057 75.285 -16.294 Q75.285 -16.215 75.234 -14.637 L85.152 -4.62 Q86.651 -3.078 86.688 -0.985 Q86.726 1.106 85.152 2.68 Z"/></g><g id="Regular-S" transform="matrix(1 0 0 1 1405.73 696)"><path d="M38.069 2.642 Q27.122 -3.078 20.366 -14.285 Q13.61 -25.492 13.61 -38.682 V-63.437 L47.34 -76.455 L81.07 -63.437 V-46.966 Q78.785 -48.033 76.364 -48.76 Q73.945 -49.488 71.404 -49.925 V-56.829 L47.34 -66.1 L23.276 -56.835 V-38.682 Q23.276 -31.754 25.718 -25.449 Q28.161 -19.144 32.448 -14.223 Q32.645 -9.489 34.075 -5.248 Q35.505 -1.007 38.069 2.642 Z M66.258 10.532 Q55.033 10.532 47.241 2.715 Q39.45 -5.103 39.45 -16.27 Q39.45 -27.439 47.241 -35.279 Q55.033 -43.12 66.23 -43.12 Q77.427 -43.12 85.264 -35.297 Q93.102 -27.475 93.102 -16.3 Q93.102 -13.206 92.412 -10.214 Q91.721 -7.22 90.538 -4.558 Q90.031 -5.314 89.545 -6.119 Q89.058 -6.925 88.368 -7.615 L83.042 -12.941 Q83.24 -13.764 83.387 -14.617 Q83.535 -15.47 83.535 -16.294 Q83.535 -23.592 78.505 -28.622 Q73.476 -33.652 66.227 -33.652 Q58.978 -33.652 53.948 -28.622 Q48.918 -23.592 48.918 -16.343 Q48.918 -9.094 53.954 -4.064 Q58.989 0.965 66.177 0.965 Q67.001 0.965 67.854 0.817 Q68.707 0.67 69.531 0.472 L74.758 5.897 Q75.448 6.587 76.22 7.043 Q76.994 7.499 77.815 7.869 Q75.251 9.053 72.292 9.792 Q69.333 10.532 66.258 10.532 Z M84.916 2.445 Q83.535 3.826 81.595 3.875 Q79.656 3.924 78.21 2.445 L67.953 -7.714 Q67.657 -7.615 66.276 -7.615 Q62.655 -7.615 60.076 -10.151 Q57.498 -12.686 57.498 -16.316 Q57.498 -19.945 60.082 -22.508 Q62.667 -25.072 66.296 -25.072 Q69.925 -25.072 72.44 -22.494 Q74.955 -19.915 74.955 -16.294 Q74.955 -16.097 74.856 -14.519 L84.916 -4.36 Q86.297 -2.89 86.346 -0.963 Q86.395 0.965 84.916 2.445 Z"/></g><g id="Light-S" transform="matrix(1 0 0 1 1109.75 696)"><path d="M38.221 0.48 Q28.071 -5.127 21.827 -15.651 Q15.583 -26.174 15.583 -38.682 V-62.071 L47.34 -74.331 L79.097 -62.071 V-46.36 Q77.28 -47.194 75.353 -47.778 Q73.427 -48.361 71.404 -48.711 V-56.829 L47.34 -66.062 L23.276 -56.835 V-38.682 Q23.276 -31.223 26.154 -24.539 Q29.033 -17.854 33.927 -13.047 Q34.048 -9.224 35.118 -5.836 Q36.187 -2.449 38.221 0.48 Z M66.258 8.56 Q55.854 8.56 48.639 1.319 Q41.422 -5.92 41.422 -16.261 Q41.422 -26.604 48.636 -33.876 Q55.849 -41.147 66.221 -41.147 Q76.592 -41.147 83.861 -33.901 Q91.13 -26.653 91.13 -16.3 Q91.13 -13.569 90.515 -10.907 Q89.901 -8.245 88.906 -5.924 Q88.476 -6.566 88.084 -7.257 Q87.692 -7.949 87.116 -8.525 L83.005 -12.637 Q83.202 -13.499 83.369 -14.465 Q83.535 -15.432 83.535 -16.294 Q83.535 -23.592 78.505 -28.622 Q73.476 -33.652 66.227 -33.652 Q58.978 -33.652 53.948 -28.622 Q48.918 -23.592 48.918 -16.343 Q48.918 -9.094 53.954 -4.064 Q58.989 0.965 66.177 0.965 Q67.039 0.965 68.006 0.799 Q68.972 0.632 69.834 0.435 L73.809 4.683 Q74.386 5.26 75.045 5.602 Q75.704 5.944 76.412 6.238 Q74.178 7.239 71.565 7.9 Q68.954 8.56 66.258 8.56 Z M83.513 1.041 Q82.397 2.157 80.894 2.206 Q79.39 2.255 78.21 1.041 L68.029 -9.004 Q67.722 -8.867 66.276 -8.791 Q63.141 -8.791 60.908 -10.98 Q58.674 -13.169 58.674 -16.31 Q58.674 -19.452 60.912 -21.674 Q63.149 -23.896 66.291 -23.896 Q69.432 -23.896 71.606 -21.662 Q73.779 -19.429 73.779 -16.294 Q73.779 -16.086 73.566 -14.443 L83.513 -4.398 Q84.628 -3.194 84.677 -1.683 Q84.727 -0.173 83.513 1.041 Z"/></g><g id="Thin-S" transform="matrix(1 0 0 1 814.015 696)"><path d="M38.373 -1.683 Q29.018 -7.175 23.287 -17.016 Q17.555 -26.858 17.555 -38.682 V-60.706 L47.34 -72.206 L77.125 -60.706 V-45.752 Q75.777 -46.356 74.343 -46.795 Q72.91 -47.234 71.404 -47.497 V-56.829 L47.34 -66.024 L23.276 -56.835 V-38.682 Q23.276 -30.692 26.59 -23.629 Q29.906 -16.564 35.406 -11.871 Q35.452 -8.958 36.161 -6.424 Q36.871 -3.89 38.373 -1.683 Z M66.258 6.587 Q56.677 6.587 50.035 -0.075 Q43.395 -6.736 43.395 -16.253 Q43.395 -25.77 50.03 -32.472 Q56.666 -39.175 66.212 -39.175 Q75.758 -39.175 82.457 -32.503 Q89.157 -25.831 89.157 -16.3 Q89.157 -13.931 88.619 -11.6 Q88.08 -9.269 87.275 -7.289 Q86.92 -7.817 86.623 -8.395 Q86.327 -8.973 85.865 -9.436 L82.966 -12.334 Q83.164 -13.234 83.35 -14.314 Q83.535 -15.395 83.535 -16.294 Q83.535 -23.592 78.505 -28.622 Q73.476 -33.652 66.227 -33.652 Q58.978 -33.652 53.948 -28.622 Q48.918 -23.592 48.918 -16.343 Q48.918 -9.094 53.954 -4.064 Q58.989 0.965 66.177 0.965 Q67.077 0.965 68.158 0.78 Q69.238 0.594 70.137 0.396 L72.861 3.468 Q73.324 3.932 73.869 4.16 Q74.414 4.389 75.008 4.607 Q73.105 5.426 70.839 6.007 Q68.574 6.587 66.258 6.587 Z M82.109 -0.362 Q81.259 0.487 80.192 0.536 Q79.125 0.586 78.21 -0.362 L68.105 -10.293 Q67.787 -10.118 66.276 -9.967 Q63.625 -9.967 61.737 -11.809 Q59.851 -13.65 59.851 -16.305 Q59.851 -18.959 61.74 -20.84 Q63.631 -22.719 66.285 -22.719 Q68.939 -22.719 70.771 -20.833 Q72.603 -18.945 72.603 -16.294 Q72.603 -16.075 72.277 -14.367 L82.109 -4.436 Q82.958 -3.496 83.008 -2.404 Q83.057 -1.311 82.109 -0.362 Z"/></g><g id="Ultralight-S" transform="matrix(1 0 0 1 517.792 696)"><path d="M38.464 -2.98 Q29.588 -8.404 24.163 -17.836 Q18.739 -27.267 18.739 -38.682 V-59.886 L47.34 -70.932 L75.941 -59.886 V-45.388 Q74.873 -45.853 73.736 -46.206 Q72.599 -46.558 71.404 -46.769 V-56.829 L47.34 -66.001 L23.276 -56.835 V-38.682 Q23.276 -30.374 26.853 -23.082 Q30.43 -15.791 36.294 -11.165 Q36.294 -8.798 36.787 -6.777 Q37.28 -4.755 38.464 -2.98 Z M66.258 5.404 Q57.17 5.404 50.874 -0.911 Q44.579 -7.226 44.579 -16.248 Q44.579 -25.269 50.867 -31.63 Q57.156 -37.991 66.206 -37.991 Q75.257 -37.991 81.615 -31.665 Q87.974 -25.338 87.974 -16.3 Q87.974 -14.149 87.48 -12.016 Q86.987 -9.883 86.297 -8.108 Q85.987 -8.569 85.748 -9.078 Q85.508 -9.587 85.113 -9.982 L82.944 -12.152 Q83.141 -13.074 83.338 -14.223 Q83.535 -15.372 83.535 -16.294 Q83.535 -23.592 78.505 -28.622 Q73.476 -33.652 66.227 -33.652 Q58.978 -33.652 53.948 -28.622 Q48.918 -23.592 48.918 -16.343 Q48.918 -9.094 53.954 -4.064 Q58.989 0.965 66.177 0.965 Q67.1 0.965 68.249 0.768 Q69.397 0.571 70.32 0.374 L72.292 2.741 Q72.687 3.135 73.163 3.295 Q73.64 3.456 74.166 3.628 Q72.461 4.338 70.403 4.871 Q68.346 5.404 66.258 5.404 Z M81.267 -1.204 Q80.577 -0.514 79.771 -0.465 Q78.966 -0.415 78.21 -1.204 L68.15 -11.067 Q67.825 -10.87 66.276 -10.672 Q63.916 -10.672 62.236 -12.306 Q60.556 -13.939 60.556 -16.301 Q60.556 -18.663 62.237 -20.339 Q63.92 -22.014 66.281 -22.014 Q68.643 -22.014 70.27 -20.334 Q71.898 -18.654 71.898 -16.294 Q71.898 -16.068 71.503 -14.321 L81.267 -4.459 Q81.957 -3.679 82.007 -2.837 Q82.056 -1.993 81.267 -1.204 Z"/></g></g></svg>