<svg xmlns="http://www.w3.org/2000/svg" version="1.1" width="3300" height="2000"><g id="Notes"><style>
    text {
      font-family: monospace;
      text-anchor: middle;
    }
    text.emphasis {
      font-weight:bold;
    }
    text.lanchor {
      text-anchor: start;
    }
  </style><rect height="2200" id="artboard" fill="white" width="3300" x="0" y="0"/><line id="" style="fill:none;stroke:black;stroke-width:0.5;" x1="263" x2="3036" y1="292" y2="292"/><text class="lanchor emphasis" transform="matrix(1 0 0 1 263 322)">Weight/Scale Variations</text><text transform="matrix(1 0 0 1 559.711 322)">Ultralight</text><text transform="matrix(1 0 0 1 856.422 322)">Thin</text><text transform="matrix(1 0 0 1 1153.13 322)">Light</text><text transform="matrix(1 0 0 1 1449.84 322)">Regular</text><text transform="matrix(1 0 0 1 1746.56 322)">Medium</text><text transform="matrix(1 0 0 1 2043.27 322)">Semibold</text><text transform="matrix(1 0 0 1 2339.98 322)">Bold</text><text transform="matrix(1 0 0 1 2636.69 322)">Heavy</text><text transform="matrix(1 0 0 1 2933.4 322)">Black</text><text id="template-version" style="text-anchor: end;" transform="matrix(1 0 0 1 3036 1933)">Template v.1.0</text><text class="lanchor" transform="matrix(1 0 0 1 263 726)">Small</text><text class="lanchor" transform="matrix(1 0 0 1 263 1156)">Medium</text><text class="lanchor" transform="matrix(1 0 0 1 263 1586)">Large</text></g><g id="Guides"><g id="H-reference" style="fill:#27AAE1;stroke:none;" transform="matrix(1 0 0 1 339 696)"><path d="M 54.9316 0 L 57.666 0 L 30.5664 -70.459 L 28.0762 -70.459 L 0.976562 0 L 3.66211 0 L 12.9395 -24.4629 L 45.7031 -24.4629 Z M 29.1992 -67.0898 L 29.4434 -67.0898 L 44.8242 -26.709 L 13.8184 -26.709 Z"/></g><line id="Baseline-S" style="fill:none;stroke:#27AAE1;opacity:1;stroke-width:0.577;" x1="263" x2="3036" y1="696" y2="696"/><line id="Capline-S" style="fill:none;stroke:#27AAE1;opacity:1;stroke-width:0.577;" x1="263" x2="3036" y1="625.541" y2="625.541"/><g id="H-reference" style="fill:#27AAE1;stroke:none;" transform="matrix(1 0 0 1 339 1126)"><path d="M 54.9316 0 L 57.666 0 L 30.5664 -70.459 L 28.0762 -70.459 L 0.976562 0 L 3.66211 0 L 12.9395 -24.4629 L 45.7031 -24.4629 Z M 29.1992 -67.0898 L 29.4434 -67.0898 L 44.8242 -26.709 L 13.8184 -26.709 Z"/></g><line id="Baseline-M" style="fill:none;stroke:#27AAE1;opacity:1;stroke-width:0.577;" x1="263" x2="3036" y1="1126" y2="1126"/><line id="Capline-M" style="fill:none;stroke:#27AAE1;opacity:1;stroke-width:0.577;" x1="263" x2="3036" y1="1055.54" y2="1055.54"/><g id="H-reference" style="fill:#27AAE1;stroke:none;" transform="matrix(1 0 0 1 339 1556)"><path d="M 54.9316 0 L 57.666 0 L 30.5664 -70.459 L 28.0762 -70.459 L 0.976562 0 L 3.66211 0 L 12.9395 -24.4629 L 45.7031 -24.4629 Z M 29.1992 -67.0898 L 29.4434 -67.0898 L 44.8242 -26.709 L 13.8184 -26.709 Z"/></g><line id="Baseline-L" style="fill:none;stroke:#27AAE1;opacity:1;stroke-width:0.577;" x1="263" x2="3036" y1="1556" y2="1556"/><line id="Capline-L" style="fill:none;stroke:#27AAE1;opacity:1;stroke-width:0.577;" x1="263" x2="3036" y1="1485.54" y2="1485.54"/><rect height="119.336" id="left-margin" style="fill:darkred;stroke:none;opacity:0.4;" width="12.4512" x="1394.06" y="1030.79"/><rect height="119.336" id="right-margin" style="fill:darkgreen;stroke:none;opacity:0.4;" width="12.4512" x="1502.5112" y="1030.79"/><rect x="1406.5112" y="1045" width="96" height="96" fill="none" stroke="blue" stroke-dasharray="5"/><rect x="1394.06" y="1030.79" width="120.9024" height="119.336" fill="none" stroke="blue"/></g><g id="Symbols"><g id="Bold-L" transform="matrix(1 0 0 1 2266 1556)"><path d="M70.063 29.915 Q48.939 21.853 35.717 1.616 Q22.494 -18.621 22.494 -42.164 V-82.718 L77.4 -103.277 L132.467 -82.718 V-49.097 Q128.839 -50.791 125.13 -51.96 Q121.421 -53.129 117.551 -53.612 V-72.398 L77.4 -87.556 L37.249 -72.398 V-42.164 Q37.249 -27.651 43.497 -15.235 Q49.746 -2.819 60.388 5.244 Q60.953 12.016 63.412 18.265 Q65.871 24.513 70.063 29.915 Z M109.489 38.945 Q91.832 38.945 79.617 26.811 Q67.403 14.677 67.403 -2.98 Q67.403 -20.637 79.617 -32.852 Q91.832 -45.066 109.489 -45.066 Q126.984 -45.066 139.36 -32.852 Q151.736 -20.637 151.736 -2.98 Q151.736 1.535 150.849 5.768 Q149.963 10.001 148.35 13.871 Q148.028 13.226 147.382 12.379 Q146.738 11.533 146.093 10.888 L135.45 0.406 Q136.095 -1.126 136.377 -2.859 Q136.659 -4.592 136.659 -6.205 Q135.369 -16.767 127.75 -23.539 Q120.131 -30.312 109.328 -30.312 Q98.04 -30.312 90.098 -22.491 Q82.157 -14.671 82.157 -2.98 Q82.157 7.663 89.05 15.282 Q95.944 22.901 106.264 24.029 Q107.796 24.029 109.61 23.707 Q111.424 23.384 113.036 22.981 L123.276 33.463 Q123.921 34.108 124.767 34.672 Q125.614 35.236 126.42 35.478 Q122.469 37.333 118.237 38.139 Q114.004 38.945 109.489 38.945 Z M139.723 27.093 Q137.546 29.27 134.563 29.23 Q131.58 29.189 129.403 27.093 L113.036 10.888 Q111.827 11.21 109.65 11.371 Q103.603 11.371 99.451 7.219 Q95.299 3.067 95.299 -2.98 Q95.299 -9.027 99.451 -13.179 Q103.603 -17.331 109.65 -17.331 Q115.697 -17.331 119.768 -13.179 Q123.84 -9.027 123.84 -2.98 Q123.84 -2.899 123.517 0.245 L139.723 16.693 Q141.819 18.95 141.86 21.973 Q141.9 24.997 139.723 27.093 Z"/></g><g id="Semibold-L" transform="matrix(1 0 0 1 1970.27 1556)"><path d="M71.395 28.652 Q50.552 21.011 37.399 1.09 Q24.247 -18.831 24.247 -42.164 V-81.526 L77.4 -101.455 L130.645 -81.526 V-47.906 Q127.647 -49.249 124.533 -50.242 Q121.421 -51.236 118.182 -51.719 V-72.888 L77.4 -88.257 L36.618 -72.888 V-42.164 Q36.618 -26.529 43.602 -13.132 Q50.587 0.266 62.351 8.538 Q63.266 14.119 65.585 19.176 Q67.904 24.233 71.395 28.652 Z M109.558 37.192 Q92.674 37.192 80.949 25.548 Q69.225 13.906 69.225 -2.98 Q69.225 -19.866 80.949 -31.555 Q92.674 -43.244 109.558 -43.244 Q126.283 -43.244 138.098 -31.555 Q149.914 -19.866 149.914 -2.98 Q149.914 1.466 149.027 5.592 Q148.14 9.72 146.528 13.521 Q146.205 13.016 145.735 12.379 Q145.265 11.742 144.761 11.237 L136.151 2.72 Q136.796 0.977 137.079 -0.966 Q137.361 -2.911 137.361 -4.802 Q136.632 -15.996 128.661 -23.435 Q120.692 -30.873 109.397 -30.873 Q97.83 -30.873 89.713 -22.841 Q81.596 -14.811 81.596 -2.98 Q81.596 8.224 89.12 16.157 Q96.645 24.092 107.667 24.731 Q109.477 24.731 111.503 24.408 Q113.526 24.086 115.35 23.612 L123.696 32.131 Q124.201 32.635 124.837 33.059 Q125.473 33.483 126.07 33.725 Q122.26 35.51 118.132 36.35 Q114.004 37.192 109.558 37.192 Z M138.461 25.831 Q136.635 27.658 134.142 27.617 Q131.649 27.577 129.824 25.831 L113.317 9.485 Q112.248 9.807 109.65 10.039 Q104.164 10.039 100.397 6.273 Q96.631 2.506 96.631 -2.98 Q96.631 -8.466 100.397 -12.233 Q104.164 -15.999 109.65 -15.999 Q115.136 -15.999 118.857 -12.233 Q122.577 -8.466 122.577 -2.98 Q122.577 -2.69 122.115 0.595 L138.461 17.113 Q140.207 19.019 140.247 21.553 Q140.287 24.086 138.461 25.831 Z"/></g><g id="Medium-L" transform="matrix(1 0 0 1 1674.31 1556)"><path d="M72.395 27.706 Q51.761 20.38 38.661 0.695 Q25.561 -18.989 25.561 -42.164 V-80.633 L77.4 -100.088 L129.277 -80.633 V-47.013 Q126.754 -48.091 124.087 -48.954 Q121.421 -49.817 118.656 -50.3 V-73.258 L77.4 -88.783 L36.144 -73.258 V-42.164 Q36.144 -25.689 43.681 -11.554 Q51.218 2.58 63.823 11.01 Q65.001 15.698 67.215 19.859 Q69.429 24.023 72.395 27.706 Z M109.611 35.878 Q93.304 35.878 81.949 24.602 Q70.592 13.327 70.592 -2.98 Q70.592 -19.287 81.949 -30.581 Q93.304 -41.877 109.611 -41.877 Q125.757 -41.877 137.151 -30.581 Q148.547 -19.287 148.547 -2.98 Q148.547 1.412 147.66 5.461 Q146.773 9.51 145.16 13.258 Q144.838 12.858 144.499 12.379 Q144.161 11.9 143.761 11.5 L136.677 4.455 Q137.322 2.556 137.604 0.453 Q137.886 -1.648 137.886 -3.751 Q137.579 -15.417 129.345 -23.356 Q121.113 -31.294 109.45 -31.294 Q97.672 -31.294 89.424 -23.104 Q81.175 -14.916 81.175 -2.98 Q81.175 8.645 89.173 16.815 Q97.171 24.986 108.718 25.256 Q110.74 25.256 112.922 24.934 Q115.105 24.611 117.085 24.086 L124.013 31.131 Q124.411 31.531 124.89 31.85 Q125.369 32.169 125.807 32.411 Q122.102 34.143 118.053 35.011 Q114.004 35.878 109.611 35.878 Z M137.514 24.884 Q135.951 26.448 133.826 26.408 Q131.703 26.368 130.14 24.884 L113.526 8.433 Q112.564 8.756 109.65 9.04 Q104.585 9.04 101.107 5.563 Q97.63 2.085 97.63 -2.98 Q97.63 -8.045 101.107 -11.523 Q104.585 -15 109.65 -15 Q114.715 -15 118.174 -11.523 Q121.631 -8.045 121.631 -2.98 Q121.631 -2.532 121.063 0.858 L137.514 17.429 Q138.998 19.073 139.038 21.237 Q139.078 23.402 137.514 24.884 Z"/></g><g id="Regular-L" transform="matrix(1 0 0 1 1378.56 1556)"><path d="M73.127 27.013 Q52.648 19.918 39.587 0.406 Q26.526 -19.105 26.526 -42.164 V-79.977 L77.4 -99.085 L128.274 -79.977 V-46.356 Q126.097 -47.243 123.759 -48.009 Q121.421 -48.775 119.002 -49.259 V-73.527 L77.4 -89.168 L35.797 -73.527 V-42.164 Q35.797 -25.071 43.739 -10.397 Q51.681 4.276 64.903 12.823 Q66.274 16.854 68.41 20.361 Q70.547 23.868 73.127 27.013 Z M109.65 34.914 Q93.767 34.914 82.681 23.908 Q71.595 12.903 71.595 -2.98 Q71.595 -18.863 82.681 -29.868 Q93.767 -40.874 109.65 -40.874 Q125.372 -40.874 136.458 -29.868 Q147.544 -18.863 147.544 -2.98 Q147.544 1.374 146.657 5.365 Q145.77 9.356 144.157 13.064 Q143.835 12.742 143.593 12.379 Q143.351 12.016 143.029 11.694 L137.062 5.728 Q137.708 3.712 137.99 1.495 Q138.272 -0.722 138.272 -2.98 Q138.272 -14.993 129.847 -23.297 Q121.421 -31.602 109.489 -31.602 Q97.556 -31.602 89.212 -23.297 Q80.867 -14.993 80.867 -2.98 Q80.867 8.953 89.212 17.297 Q97.556 25.642 109.489 25.642 Q111.666 25.642 113.963 25.319 Q116.261 24.997 118.358 24.433 L124.243 30.399 Q124.566 30.721 124.928 30.963 Q125.291 31.205 125.614 31.447 Q121.986 33.14 117.995 34.027 Q114.004 34.914 109.65 34.914 Z M136.821 24.191 Q135.45 25.561 133.596 25.521 Q131.741 25.481 130.371 24.191 L113.681 7.663 Q112.794 7.985 109.65 8.308 Q104.893 8.308 101.628 5.042 Q98.362 1.777 98.362 -2.98 Q98.362 -7.737 101.628 -11.002 Q104.893 -14.267 109.65 -14.267 Q114.407 -14.267 117.672 -11.002 Q120.938 -7.737 120.938 -2.98 Q120.938 -2.416 120.293 1.051 L136.821 17.66 Q138.111 19.111 138.151 21.006 Q138.191 22.901 136.821 24.191 Z"/></g><g id="Light-L" transform="matrix(1 0 0 1 1082.77 1556)"><path d="M71.484 23.105 Q53.021 15.762 41.246 -2.291 Q29.472 -20.345 29.472 -41.854 V-77.89 L77.4 -95.86 L125.328 -77.898 V-46.698 Q123.7 -47.269 121.874 -47.814 Q120.047 -48.359 118.258 -48.731 V-73.03 L77.4 -88.331 L36.542 -73.03 V-41.854 Q36.542 -24.934 44.421 -10.422 Q52.301 4.091 65.461 12.419 Q66.522 15.427 68.115 18.05 Q69.71 20.674 71.484 23.105 Z M109.65 31.998 Q94.894 31.998 84.748 21.891 Q74.604 11.786 74.604 -2.965 Q74.604 -17.715 84.745 -27.837 Q94.884 -37.958 109.635 -37.958 Q124.163 -37.958 134.395 -27.848 Q144.628 -17.736 144.628 -2.98 Q144.628 0.569 143.974 3.815 Q143.321 7.061 142.079 10.118 Q141.881 9.941 141.732 9.722 Q141.584 9.504 141.416 9.336 L136.629 4.487 Q137.087 2.751 137.324 0.843 Q137.559 -1.064 137.559 -2.98 Q137.559 -14.685 129.366 -22.786 Q121.173 -30.889 109.566 -30.889 Q97.959 -30.889 89.816 -22.788 Q81.673 -14.685 81.673 -2.982 Q81.673 8.643 89.815 16.786 Q97.958 24.929 109.582 24.929 Q111.387 24.929 113.343 24.668 Q115.3 24.408 117.148 23.936 L121.918 28.817 Q122.031 29.007 122.245 29.147 Q122.461 29.288 122.637 29.401 Q119.641 30.702 116.411 31.35 Q113.181 31.998 109.65 31.998 Z M134.774 22.112 Q133.671 23.173 132.257 23.133 Q130.841 23.093 129.874 22.112 L113.651 6.05 Q112.777 6.434 109.65 6.88 Q105.511 6.88 102.65 4.02 Q99.79 1.159 99.79 -2.978 Q99.79 -7.116 102.65 -9.978 Q105.511 -12.84 109.648 -12.84 Q113.786 -12.84 116.648 -9.98 Q119.51 -7.119 119.51 -2.98 Q119.51 -2.367 118.68 0.99 L134.774 17.071 Q135.753 18.211 135.779 19.672 Q135.803 21.133 134.774 22.112 Z"/></g><g id="Thin-L" transform="matrix(1 0 0 1 787.282 1556)"><path d="M69.841 19.198 Q53.393 11.607 42.905 -4.989 Q32.418 -21.585 32.418 -41.543 V-75.804 L77.4 -92.635 L122.382 -75.821 V-47.038 Q121.304 -47.293 119.989 -47.617 Q118.674 -47.943 117.514 -48.204 V-72.535 L77.4 -87.494 L37.286 -72.535 V-41.543 Q37.286 -24.799 45.103 -10.447 Q52.921 3.904 66.019 12.016 Q66.77 14.001 67.822 15.741 Q68.873 17.479 69.841 19.198 Z M109.65 29.085 Q96.02 29.085 86.815 19.876 Q77.611 10.667 77.611 -2.951 Q77.611 -16.569 86.807 -25.807 Q96.003 -35.045 109.621 -35.045 Q122.953 -35.045 132.333 -25.828 Q141.715 -16.61 141.715 -2.98 Q141.715 -0.236 141.292 2.265 Q140.871 4.766 140.002 7.172 Q139.928 7.14 139.871 7.066 Q139.817 6.993 139.804 6.98 L136.195 3.247 Q136.467 1.79 136.656 0.192 Q136.845 -1.405 136.845 -2.98 Q136.845 -14.377 128.886 -22.277 Q120.925 -30.175 109.644 -30.175 Q98.362 -30.175 90.421 -22.277 Q82.479 -14.379 82.479 -2.983 Q82.479 8.332 90.419 16.273 Q98.359 24.215 109.674 24.215 Q111.108 24.215 112.723 24.016 Q114.339 23.818 115.939 23.441 L119.591 27.235 Q119.496 27.293 119.564 27.332 Q119.631 27.37 119.66 27.354 Q117.298 28.265 114.829 28.675 Q112.361 29.085 109.65 29.085 Z M132.728 20.035 Q131.894 20.785 130.919 20.745 Q129.943 20.704 129.379 20.035 L113.62 4.438 Q112.759 4.884 109.65 5.455 Q106.128 5.455 103.672 2.999 Q101.215 0.543 101.215 -2.977 Q101.215 -6.497 103.671 -8.956 Q106.127 -11.415 109.647 -11.415 Q113.167 -11.415 115.626 -8.958 Q118.085 -6.502 118.085 -2.98 Q118.085 -2.319 117.068 0.927 L132.728 16.481 Q133.397 17.313 133.407 18.339 Q133.415 19.366 132.728 20.035 Z"/></g><g id="Ultralight-L" transform="matrix(1 0 0 1 491.205 1556)"><path d="M68.854 16.854 Q53.616 9.114 43.9 -6.608 Q34.185 -22.33 34.185 -41.357 V-74.551 L77.4 -90.7 L120.615 -74.575 V-47.243 Q119.865 -47.308 118.857 -47.501 Q117.85 -47.693 117.068 -47.888 V-72.237 L77.4 -86.991 L37.733 -72.237 V-41.357 Q37.733 -24.716 45.513 -10.462 Q53.293 3.793 66.354 11.774 Q66.919 13.145 67.644 14.354 Q68.37 15.564 68.854 16.854 Z M109.65 27.335 Q96.697 27.335 88.055 18.666 Q79.416 9.996 79.416 -2.941 Q79.416 -15.88 88.044 -24.587 Q96.674 -33.295 109.611 -33.295 Q122.228 -33.295 131.096 -24.615 Q139.965 -15.933 139.965 -2.98 Q139.965 -0.718 139.683 1.337 Q139.401 3.389 138.756 5.405 Q138.756 5.458 138.756 5.473 Q138.756 5.486 138.836 5.566 L135.934 2.503 Q136.095 1.213 136.256 -0.198 Q136.417 -1.609 136.417 -2.98 Q136.417 -14.192 128.597 -21.97 Q120.776 -29.747 109.69 -29.747 Q98.604 -29.747 90.784 -21.97 Q82.963 -14.193 82.963 -2.983 Q82.963 8.146 90.781 15.967 Q98.6 23.788 109.731 23.788 Q110.94 23.788 112.351 23.626 Q113.762 23.465 115.213 23.143 L118.196 26.287 Q117.975 26.264 117.954 26.243 Q117.935 26.221 117.874 26.126 Q115.892 26.803 113.88 27.069 Q111.867 27.335 109.65 27.335 Z M131.499 18.789 Q130.827 19.353 130.116 19.313 Q129.403 19.273 129.081 18.789 L113.601 3.47 Q112.748 3.954 109.65 4.599 Q106.499 4.599 104.285 2.386 Q102.071 0.172 102.071 -2.975 Q102.071 -6.124 104.284 -8.342 Q106.498 -10.559 109.645 -10.559 Q112.794 -10.559 115.012 -8.345 Q117.229 -6.131 117.229 -2.98 Q117.229 -2.288 116.1 0.89 L131.499 16.128 Q131.983 16.773 131.983 17.539 Q131.983 18.305 131.499 18.789 Z"/></g><g id="Bold-M" transform="matrix(1 0 0 1 2281.8 1126)"><path d="M50.25 14.27 Q35.312 7.208 26.094 -7.667 Q16.875 -22.542 16.875 -39.73 V-72.23 L60 -88.355 L103.125 -72.23 V-48.417 Q99.625 -50.042 95.844 -51.136 Q92.062 -52.23 88 -52.542 V-61.792 L60 -72.23 L32 -61.792 V-39.73 Q32 -31.48 34.906 -24.167 Q37.812 -16.855 42.812 -11.167 Q42.688 -4.292 44.531 2.176 Q46.375 8.645 50.25 14.27 Z M84.875 22.77 Q71.125 22.77 61.469 13.145 Q51.812 3.52 51.812 -10.23 Q51.812 -23.98 61.469 -33.605 Q71.125 -43.23 84.875 -43.23 Q98.688 -43.23 108.344 -33.605 Q118 -23.98 118 -10.23 Q118 -6.917 117.406 -3.73 Q116.812 -0.542 115.562 2.395 Q115.062 1.395 114.375 0.489 Q113.688 -0.417 112.875 -1.23 L102.25 -11.855 Q102.438 -12.23 102.531 -12.699 Q102.625 -13.167 102.625 -13.605 Q101.375 -20.042 96.5 -24.136 Q91.625 -28.23 84.812 -28.23 Q77.25 -28.23 72.031 -23.074 Q66.812 -17.917 66.812 -10.23 Q66.812 -3.417 70.969 1.489 Q75.125 6.395 81.562 7.52 Q82 7.52 82.469 7.395 Q82.938 7.27 83.312 7.145 L93.75 17.708 Q94.562 18.52 95.469 19.176 Q96.375 19.833 97.375 20.333 Q94.438 21.583 91.281 22.176 Q88.125 22.77 84.875 22.77 Z M108.562 13.395 Q106.312 15.708 103.281 15.708 Q100.25 15.708 97.938 13.395 L86.812 2.27 Q86.188 2.395 85 2.395 Q79.688 2.395 76.031 -1.261 Q72.375 -4.917 72.375 -10.23 Q72.375 -15.542 76.031 -19.199 Q79.688 -22.855 85 -22.855 Q90.188 -22.855 93.844 -19.199 Q97.5 -15.542 97.5 -10.23 Q97.5 -10.292 97.375 -8.355 L108.562 2.833 Q110.688 5.02 110.719 8.114 Q110.75 11.208 108.562 13.395 Z"/></g><g id="Semibold-M" transform="matrix(1 0 0 1 1985.97 1126)"><path d="M51.663 12.966 Q36.998 6.338 27.86 -8.211 Q18.723 -22.76 18.723 -39.73 V-70.98 L60 -86.452 L101.278 -70.98 V-47.222 Q98.321 -48.521 95.165 -49.397 Q92.009 -50.274 88.653 -50.586 V-62.281 L60 -72.991 L31.348 -62.281 V-39.73 Q31.348 -30.339 34.987 -22.021 Q38.627 -13.702 44.824 -7.744 Q45.079 -2.119 46.786 3.128 Q48.495 8.374 51.663 12.966 Z M84.929 20.923 Q71.94 20.923 62.828 11.841 Q53.715 2.759 53.715 -10.23 Q53.715 -23.219 62.828 -32.301 Q71.94 -41.382 84.929 -41.382 Q97.926 -41.382 107.04 -32.301 Q116.153 -23.219 116.153 -10.23 Q116.153 -6.971 115.531 -3.892 Q114.91 -0.814 113.66 2.015 Q113.269 1.233 112.718 0.516 Q112.166 -0.2 111.516 -0.85 L102.956 -9.464 Q103.199 -10.11 103.293 -10.77 Q103.386 -11.429 103.386 -12.137 Q102.679 -19.281 97.451 -24.055 Q92.222 -28.827 84.866 -28.827 Q77.088 -28.827 71.677 -23.454 Q66.269 -18.08 66.269 -10.23 Q66.269 -2.874 71.078 2.359 Q75.886 7.59 83.03 8.226 Q83.739 8.226 84.397 8.101 Q85.058 7.976 85.704 7.798 L94.185 16.349 Q94.834 16.999 95.55 17.546 Q96.266 18.094 97.049 18.485 Q94.22 19.735 91.172 20.329 Q88.125 20.923 84.929 20.923 Z M107.259 12.091 Q105.389 14.023 102.846 14.023 Q100.304 14.023 98.373 12.091 L87.139 0.803 Q86.623 0.928 85 1.036 Q80.285 1.036 77.01 -2.24 Q73.734 -5.515 73.734 -10.23 Q73.734 -14.945 77.01 -18.22 Q80.285 -21.496 85 -21.496 Q89.644 -21.496 92.92 -18.22 Q96.196 -14.945 96.196 -10.23 Q96.196 -10.13 95.963 -8.029 L107.259 3.268 Q109.058 5.129 109.089 7.679 Q109.12 10.229 107.259 12.091 Z"/></g><g id="Medium-M" transform="matrix(1 0 0 1 1689.91 1126)"><path d="M52.722 11.988 Q38.261 5.686 29.185 -8.619 Q20.109 -22.922 20.109 -39.73 V-70.042 L60 -85.026 L99.891 -70.042 V-46.325 Q97.343 -47.38 94.655 -48.092 Q91.968 -48.806 89.141 -49.119 V-62.649 L60 -73.561 L30.859 -62.649 V-39.73 Q30.859 -29.482 35.049 -20.411 Q39.239 -11.339 46.331 -5.176 Q46.873 -0.489 48.479 3.841 Q50.084 8.17 52.722 11.988 Z M84.97 19.536 Q72.551 19.536 63.846 10.863 Q55.141 2.189 55.141 -10.23 Q55.141 -22.649 63.846 -31.322 Q72.551 -39.996 84.97 -39.996 Q97.356 -39.996 106.061 -31.322 Q114.766 -22.649 114.766 -10.23 Q114.766 -7.012 114.125 -4.015 Q113.484 -1.017 112.234 1.729 Q111.924 1.11 111.474 0.536 Q111.025 -0.037 110.498 -0.564 L103.486 -7.67 Q103.769 -8.521 103.862 -9.322 Q103.956 -10.124 103.956 -11.037 Q103.657 -18.711 98.165 -23.994 Q92.671 -29.276 84.907 -29.276 Q76.965 -29.276 71.412 -23.74 Q65.861 -18.202 65.861 -10.23 Q65.861 -2.466 71.159 3.01 Q76.456 8.488 84.13 8.756 Q85.044 8.756 85.845 8.631 Q86.646 8.506 87.498 8.286 L94.511 15.33 Q95.037 15.858 95.611 16.323 Q96.185 16.789 96.804 17.099 Q94.058 18.349 91.091 18.943 Q88.125 19.536 84.97 19.536 Z M106.28 11.113 Q104.696 12.759 102.52 12.759 Q100.345 12.759 98.699 11.113 L87.384 -0.297 Q86.949 -0.172 85 0.018 Q80.734 0.018 77.744 -2.974 Q74.752 -5.964 74.752 -10.23 Q74.752 -14.496 77.744 -17.486 Q80.734 -20.477 85 -20.477 Q89.236 -20.477 92.228 -17.486 Q95.218 -14.496 95.218 -10.23 Q95.218 -10.007 94.903 -7.784 L106.28 3.594 Q107.834 5.21 107.865 7.353 Q107.896 9.495 106.28 11.113 Z"/></g><g id="Regular-M" transform="matrix(1 0 0 1 1394.06 1126)"><path d="M53.5 11.27 Q39.188 5.208 30.156 -8.917 Q21.125 -23.042 21.125 -39.73 V-69.355 L60 -83.98 L98.875 -69.355 V-45.667 Q96.625 -46.542 94.281 -47.136 Q91.938 -47.73 89.5 -48.042 V-62.917 L60 -73.98 L30.5 -62.917 V-39.73 Q30.5 -28.855 35.094 -19.23 Q39.688 -9.605 47.438 -3.292 Q48.188 0.708 49.719 4.364 Q51.25 8.02 53.5 11.27 Z M85 18.52 Q73 18.52 64.594 10.145 Q56.188 1.77 56.188 -10.23 Q56.188 -22.23 64.594 -30.605 Q73 -38.98 85 -38.98 Q96.938 -38.98 105.344 -30.605 Q113.75 -22.23 113.75 -10.23 Q113.75 -7.042 113.094 -4.105 Q112.438 -1.167 111.188 1.52 Q110.938 1.02 110.562 0.551 Q110.188 0.083 109.75 -0.355 L103.875 -6.355 Q104.188 -7.355 104.281 -8.261 Q104.375 -9.167 104.375 -10.23 Q104.375 -18.292 98.688 -23.949 Q93 -29.605 84.938 -29.605 Q76.875 -29.605 71.219 -23.949 Q65.562 -18.292 65.562 -10.23 Q65.562 -2.167 71.219 3.489 Q76.875 9.145 84.938 9.145 Q86 9.145 86.906 9.02 Q87.812 8.895 88.812 8.645 L94.75 14.583 Q95.188 15.02 95.656 15.426 Q96.125 15.833 96.625 16.083 Q93.938 17.333 91.031 17.926 Q88.125 18.52 85 18.52 Z M105.562 10.395 Q104.188 11.833 102.281 11.833 Q100.375 11.833 98.938 10.395 L87.562 -1.105 Q87.188 -0.98 85 -0.73 Q81.062 -0.73 78.281 -3.511 Q75.5 -6.292 75.5 -10.23 Q75.5 -14.167 78.281 -16.949 Q81.062 -19.73 85 -19.73 Q88.938 -19.73 91.719 -16.949 Q94.5 -14.167 94.5 -10.23 Q94.5 -9.917 94.125 -7.605 L105.562 3.833 Q106.938 5.27 106.969 7.114 Q107 8.958 105.562 10.395 Z"/></g><g id="Light-M" transform="matrix(1 0 0 1 1098.18 1126)"><path d="M53.331 8.625 Q40.101 2.611 31.755 -10.649 Q23.409 -23.907 23.409 -39.73 V-67.785 L60 -81.527 L96.591 -67.792 V-45.211 Q94.911 -45.792 93.156 -46.215 Q91.401 -46.637 89.596 -46.865 V-63.014 L60 -74.052 L30.404 -63.014 V-39.73 Q30.404 -28.269 35.454 -18.24 Q40.505 -8.211 48.928 -2.019 Q49.534 0.9 50.644 3.559 Q51.755 6.218 53.331 8.625 Z M85 16.26 Q73.921 16.26 66.196 8.558 Q58.471 0.855 58.471 -10.219 Q58.471 -21.292 66.194 -29.006 Q73.915 -36.72 84.989 -36.72 Q96 -36.72 103.745 -29.014 Q111.49 -21.309 111.49 -10.23 Q111.49 -7.57 110.966 -5.114 Q110.442 -2.657 109.481 -0.427 Q109.326 -0.767 109.073 -1.075 Q108.817 -1.384 108.547 -1.654 L104.019 -6.307 Q104.284 -7.282 104.39 -8.237 Q104.495 -9.191 104.495 -10.23 Q104.495 -18.342 98.771 -24.034 Q93.047 -29.725 84.95 -29.725 Q76.851 -29.725 71.159 -24.034 Q65.466 -18.342 65.466 -10.231 Q65.466 -2.12 71.157 3.573 Q76.85 9.265 84.961 9.265 Q85.976 9.265 86.93 9.14 Q87.885 9.015 88.885 8.789 L93.427 13.405 Q93.703 13.691 94.01 13.946 Q94.316 14.203 94.654 14.351 Q92.409 15.346 89.996 15.804 Q87.584 16.26 85 16.26 Z M103.976 8.784 Q102.905 9.885 101.507 9.885 Q100.11 9.885 99.034 8.784 L87.683 -2.644 Q87.27 -2.47 85 -2.124 Q81.638 -2.124 79.266 -4.495 Q76.894 -6.867 76.894 -10.229 Q76.894 -13.59 79.266 -15.962 Q81.638 -18.336 84.999 -18.336 Q88.36 -18.336 90.733 -15.964 Q93.106 -13.592 93.106 -10.23 Q93.106 -9.88 92.586 -7.509 L103.976 3.856 Q105.014 4.958 105.034 6.32 Q105.052 7.684 103.976 8.784 Z"/></g><g id="Thin-M" transform="matrix(1 0 0 1 802.565 1126)"><path d="M53.164 5.981 Q41.015 0.015 33.354 -12.379 Q25.692 -24.774 25.692 -39.73 V-66.216 L60 -79.076 L94.308 -66.23 V-44.754 Q93.198 -45.042 92.031 -45.295 Q90.865 -45.546 89.692 -45.686 V-63.11 L60 -74.124 L30.308 -63.11 V-39.73 Q30.308 -27.681 35.815 -17.249 Q41.322 -6.816 50.419 -0.745 Q50.88 1.093 51.57 2.754 Q52.26 4.414 53.164 5.981 Z M85 14.001 Q74.843 14.001 67.799 6.97 Q60.755 -0.06 60.755 -10.207 Q60.755 -20.355 67.793 -27.407 Q74.83 -34.461 84.978 -34.461 Q95.062 -34.461 102.146 -27.424 Q109.231 -20.387 109.231 -10.23 Q109.231 -8.097 108.839 -6.122 Q108.448 -4.149 107.774 -2.374 Q107.716 -2.554 107.581 -2.702 Q107.448 -2.85 107.346 -2.951 L104.164 -6.259 Q104.38 -7.211 104.498 -8.214 Q104.615 -9.215 104.615 -10.23 Q104.615 -18.391 98.856 -24.119 Q93.096 -29.845 84.961 -29.845 Q76.828 -29.845 71.099 -24.119 Q65.37 -18.392 65.37 -10.232 Q65.37 -2.071 71.097 3.658 Q76.824 9.385 84.985 9.385 Q85.953 9.385 86.954 9.26 Q87.956 9.135 88.956 8.934 L92.106 12.226 Q92.219 12.363 92.362 12.468 Q92.507 12.573 92.683 12.621 Q90.88 13.361 88.961 13.681 Q87.044 14.001 85 14.001 Z M102.39 7.174 Q101.624 7.939 100.735 7.939 Q99.846 7.939 99.13 7.174 L87.802 -4.182 Q87.353 -3.961 85 -3.519 Q82.213 -3.519 80.25 -5.48 Q78.289 -7.441 78.289 -10.227 Q78.289 -13.014 80.25 -14.977 Q82.211 -16.941 84.998 -16.941 Q87.784 -16.941 89.748 -14.98 Q91.711 -13.017 91.711 -10.23 Q91.711 -9.842 91.047 -7.412 L102.39 3.88 Q103.091 4.645 103.099 5.528 Q103.106 6.41 102.39 7.174 Z"/></g><g id="Ultralight-M" transform="matrix(1 0 0 1 506.415 1126)"><path d="M53.062 4.395 Q41.562 -1.542 34.312 -13.417 Q27.062 -25.292 27.062 -39.73 V-65.274 L60 -77.605 L92.938 -65.292 V-44.48 Q92.169 -44.592 91.356 -44.742 Q90.544 -44.891 89.75 -44.98 V-63.167 L60 -74.167 L30.25 -63.167 V-39.73 Q30.25 -27.33 36.031 -16.655 Q41.812 -5.98 51.312 0.02 Q51.688 1.208 52.125 2.27 Q52.562 3.333 53.062 4.395 Z M85 12.645 Q75.396 12.645 68.76 6.019 Q62.125 -0.609 62.125 -10.2 Q62.125 -19.792 68.751 -26.449 Q75.379 -33.105 84.97 -33.105 Q94.5 -33.105 101.188 -26.47 Q107.875 -19.834 107.875 -10.23 Q107.875 -8.414 107.562 -6.727 Q107.25 -5.042 106.75 -3.542 Q106.75 -3.626 106.688 -3.677 Q106.625 -3.73 106.625 -3.73 L104.25 -6.23 Q104.438 -7.167 104.562 -8.199 Q104.688 -9.23 104.688 -10.23 Q104.688 -18.421 98.906 -24.17 Q93.125 -29.917 84.969 -29.917 Q76.812 -29.917 71.062 -24.17 Q65.312 -18.422 65.312 -10.232 Q65.312 -2.042 71.06 3.708 Q76.809 9.458 85 9.458 Q85.938 9.458 86.969 9.333 Q88 9.208 89 9.02 L91.312 11.52 Q91.329 11.565 91.375 11.58 Q91.422 11.594 91.5 11.583 Q89.964 12.17 88.341 12.408 Q86.719 12.645 85 12.645 Z M101.438 6.208 Q100.854 6.77 100.271 6.77 Q99.688 6.77 99.188 6.208 L87.875 -5.105 Q87.401 -4.855 85 -4.355 Q82.558 -4.355 80.841 -6.07 Q79.125 -7.786 79.125 -10.226 Q79.125 -12.667 80.84 -14.386 Q82.556 -16.105 84.996 -16.105 Q87.438 -16.105 89.156 -14.389 Q90.875 -12.672 90.875 -10.23 Q90.875 -9.819 90.125 -7.355 L101.438 3.895 Q101.938 4.458 101.938 5.051 Q101.938 5.645 101.438 6.208 Z"/></g><g id="Bold-S" transform="matrix(1 0 0 1 2294.23 696)"><path d="M39.154 2.05 Q27.96 -3.423 21.032 -14.601 Q14.103 -25.779 14.103 -38.682 V-62.845 L47.34 -75.568 L80.577 -62.845 V-45.734 Q78.012 -46.917 75.223 -47.78 Q72.433 -48.643 69.432 -48.89 V-55.202 L47.34 -63.634 L25.248 -55.202 V-38.682 Q25.248 -32.346 27.568 -26.731 Q29.887 -21.117 33.878 -16.738 Q33.779 -11.609 35.037 -6.851 Q36.294 -2.092 39.154 2.05 Z M66.177 9.743 Q55.329 9.743 47.71 2.149 Q40.091 -5.445 40.091 -16.294 Q40.091 -27.143 47.71 -34.737 Q55.329 -42.331 66.177 -42.331 Q77.075 -42.331 84.694 -34.737 Q92.313 -27.143 92.313 -16.294 Q92.313 -13.157 91.647 -10.164 Q90.982 -7.171 89.699 -4.459 Q89.193 -5.511 88.509 -6.489 Q87.826 -7.467 86.987 -8.305 L80.182 -15.012 Q80.527 -15.899 80.749 -16.96 Q80.971 -18.02 80.971 -18.957 Q79.985 -24.431 75.941 -27.858 Q71.898 -31.285 66.128 -31.285 Q59.767 -31.285 55.452 -27.019 Q51.137 -22.754 51.137 -16.294 Q51.137 -10.524 54.614 -6.456 Q58.09 -2.388 63.564 -1.5 Q64.501 -1.5 65.561 -1.747 Q66.621 -1.993 67.509 -2.289 L74.067 4.467 Q74.906 5.305 75.867 5.872 Q76.829 6.439 77.914 6.932 Q75.3 8.214 72.267 8.979 Q69.235 9.743 66.177 9.743 Z M84.374 1.853 Q82.697 3.579 80.486 3.579 Q78.276 3.579 76.582 1.853 L67.509 -7.122 Q66.72 -6.925 66.276 -7.122 Q62.41 -7.122 59.757 -9.781 Q57.104 -12.44 57.104 -16.315 Q57.104 -20.19 59.763 -22.828 Q62.422 -25.466 66.297 -25.466 Q70.073 -25.466 72.711 -22.813 Q75.35 -20.16 75.35 -16.294 Q75.35 -16.738 75.35 -15.012 L84.374 -5.988 Q85.952 -4.369 85.976 -2.072 Q86.001 0.226 84.374 1.853 Z"/></g><g id="Semibold-S" transform="matrix(1 0 0 1 1998.1 696)"><path d="M40.269 1.022 Q29.29 -4.11 22.425 -15.03 Q15.561 -25.95 15.561 -38.682 V-61.859 L47.34 -74.067 L79.119 -61.859 V-44.791 Q76.984 -45.717 74.687 -46.408 Q72.391 -47.1 69.947 -47.346 V-55.587 L47.34 -64.235 L24.733 -55.587 V-38.682 Q24.733 -31.446 27.632 -25.038 Q30.53 -18.629 35.465 -14.036 Q35.666 -9.894 36.816 -6.1 Q37.967 -2.306 40.269 1.022 Z M66.22 8.285 Q55.972 8.285 48.782 1.12 Q41.592 -6.046 41.592 -16.294 Q41.592 -26.542 48.782 -33.708 Q55.972 -40.873 66.22 -40.873 Q76.475 -40.873 83.666 -33.708 Q90.855 -26.542 90.855 -16.294 Q90.855 -13.2 90.168 -10.293 Q89.48 -7.385 88.198 -4.759 Q87.777 -5.64 87.201 -6.468 Q86.625 -7.295 85.915 -8.006 L80.739 -13.125 Q81.128 -14.227 81.35 -15.438 Q81.572 -16.648 81.572 -17.799 Q81.014 -23.83 76.692 -27.794 Q72.369 -31.756 66.17 -31.756 Q59.639 -31.756 55.173 -27.319 Q50.708 -22.882 50.708 -16.294 Q50.708 -10.095 54.699 -5.77 Q58.691 -1.445 64.722 -0.943 Q65.873 -0.943 67.083 -1.19 Q68.294 -1.436 69.396 -1.774 L74.411 3.395 Q75.12 4.105 75.931 4.586 Q76.743 5.067 77.656 5.475 Q75.129 6.757 72.182 7.521 Q69.235 8.285 66.22 8.285 Z M83.345 0.824 Q81.968 2.249 80.144 2.249 Q78.318 2.249 76.926 0.824 L67.766 -8.28 Q67.063 -8.082 66.276 -8.194 Q62.881 -8.194 60.529 -10.553 Q58.176 -12.912 58.176 -16.315 Q58.176 -19.718 60.535 -22.056 Q62.894 -24.394 66.297 -24.394 Q69.644 -24.394 71.982 -22.041 Q74.321 -19.689 74.321 -16.294 Q74.321 -16.61 74.235 -14.754 L83.345 -5.644 Q84.666 -4.283 84.69 -2.415 Q84.715 -0.547 83.345 0.824 Z"/></g><g id="Medium-S" transform="matrix(1 0 0 1 1701.85 696)"><path d="M41.105 0.249 Q30.287 -4.624 23.471 -15.351 Q16.655 -26.079 16.655 -38.682 V-61.119 L47.34 -72.941 L78.025 -61.119 V-44.083 Q76.211 -44.816 74.285 -45.379 Q72.358 -45.942 70.332 -46.188 V-55.877 L47.34 -64.684 L24.348 -55.877 V-38.682 Q24.348 -30.77 27.68 -23.767 Q31.013 -16.764 36.654 -12.011 Q37.081 -8.608 38.151 -5.537 Q39.22 -2.467 41.105 0.249 Z M66.252 7.192 Q56.454 7.192 49.586 0.348 Q42.717 -6.496 42.717 -16.294 Q42.717 -26.092 49.586 -32.936 Q56.454 -39.78 66.252 -39.78 Q76.025 -39.78 82.893 -32.936 Q89.762 -26.092 89.762 -16.294 Q89.762 -13.232 89.058 -10.389 Q88.355 -7.546 87.073 -4.985 Q86.716 -5.736 86.22 -6.451 Q85.725 -7.167 85.111 -7.78 L81.158 -11.71 Q81.578 -12.973 81.8 -14.296 Q82.021 -15.618 82.021 -16.931 Q81.786 -23.38 77.255 -27.745 Q72.723 -32.11 66.203 -32.11 Q59.542 -32.11 54.964 -27.545 Q50.387 -22.979 50.387 -16.294 Q50.387 -9.774 54.764 -5.256 Q59.14 -0.737 65.59 -0.525 Q66.902 -0.525 68.225 -0.771 Q69.547 -1.018 70.811 -1.389 L74.668 2.591 Q75.28 3.204 75.98 3.62 Q76.679 4.038 77.463 4.381 Q75 5.663 72.118 6.427 Q69.235 7.192 66.252 7.192 Z M82.573 0.052 Q81.422 1.252 79.886 1.252 Q78.351 1.252 77.183 0.052 L67.96 -9.148 Q67.32 -8.95 66.276 -8.998 Q63.235 -8.998 61.108 -11.132 Q58.98 -13.265 58.98 -16.315 Q58.98 -19.364 61.114 -21.477 Q63.247 -23.59 66.297 -23.59 Q69.323 -23.59 71.436 -21.462 Q73.549 -19.335 73.549 -16.294 Q73.549 -16.513 73.399 -14.561 L82.573 -5.387 Q83.7 -4.219 83.725 -2.672 Q83.749 -1.125 82.573 0.052 Z"/></g><g id="Regular-S" transform="matrix(1 0 0 1 1405.73 696)"><path d="M41.718 -0.317 Q31.018 -5.001 24.237 -15.587 Q17.457 -26.173 17.457 -38.682 V-60.577 L47.34 -72.116 L77.223 -60.577 V-43.564 Q75.645 -44.156 73.99 -44.624 Q72.335 -45.092 70.615 -45.339 V-56.089 L47.34 -65.015 L24.065 -56.089 V-38.682 Q24.065 -30.275 27.716 -22.836 Q31.367 -15.397 37.527 -10.524 Q38.119 -7.664 39.129 -5.125 Q40.14 -2.585 41.718 -0.317 Z M66.276 6.39 Q56.808 6.39 50.175 -0.218 Q43.543 -6.826 43.543 -16.294 Q43.543 -25.762 50.175 -32.37 Q56.808 -38.978 66.276 -38.978 Q75.695 -38.978 82.327 -32.37 Q88.96 -25.762 88.96 -16.294 Q88.96 -13.255 88.245 -10.46 Q87.53 -7.664 86.248 -5.149 Q85.938 -5.807 85.501 -6.439 Q85.064 -7.073 84.522 -7.615 L81.464 -10.672 Q81.908 -12.053 82.13 -13.459 Q82.352 -14.864 82.352 -16.294 Q82.352 -23.05 77.667 -27.71 Q72.983 -32.37 66.227 -32.37 Q59.471 -32.37 54.811 -27.71 Q50.151 -23.05 50.151 -16.294 Q50.151 -9.538 54.811 -4.878 Q59.471 -0.218 66.227 -0.218 Q67.657 -0.218 69.062 -0.465 Q70.468 -0.711 71.848 -1.106 L74.856 2.001 Q75.399 2.543 76.015 2.913 Q76.632 3.283 77.322 3.579 Q74.906 4.861 72.07 5.625 Q69.235 6.39 66.276 6.39 Z M82.007 -0.514 Q81.02 0.522 79.697 0.522 Q78.374 0.522 77.371 -0.514 L68.101 -9.785 Q67.509 -9.587 66.276 -9.587 Q63.495 -9.587 61.532 -11.556 Q59.57 -13.525 59.57 -16.315 Q59.57 -19.105 61.538 -21.053 Q63.507 -23 66.297 -23 Q69.087 -23 71.035 -21.038 Q72.983 -19.075 72.983 -16.294 Q72.983 -16.442 72.785 -14.42 L82.007 -5.199 Q82.993 -4.172 83.018 -2.861 Q83.042 -1.55 82.007 -0.514 Z"/></g><g id="Light-S" transform="matrix(1 0 0 1 1109.75 696)"><path d="M41.585 -2.404 Q31.739 -7.05 25.499 -16.953 Q19.259 -26.856 19.259 -38.682 V-59.338 L47.34 -70.181 L75.421 -59.344 V-43.204 Q74.293 -43.564 73.103 -43.897 Q71.912 -44.231 70.691 -44.41 V-56.165 L47.34 -65.072 L23.989 -56.165 V-38.682 Q23.989 -29.813 28 -22.054 Q32.012 -14.296 38.702 -9.519 Q39.181 -7.512 39.859 -5.76 Q40.539 -4.007 41.585 -2.404 Z M66.276 4.607 Q57.535 4.607 51.44 -1.471 Q45.345 -7.548 45.345 -16.285 Q45.345 -25.022 51.438 -31.108 Q57.53 -37.195 66.267 -37.195 Q74.955 -37.195 81.066 -31.114 Q87.177 -25.035 87.177 -16.294 Q87.177 -13.672 86.566 -11.256 Q85.956 -8.84 84.901 -6.686 Q84.667 -7.217 84.324 -7.723 Q83.983 -8.229 83.573 -8.64 L81.578 -10.635 Q81.984 -11.996 82.216 -13.44 Q82.447 -14.883 82.447 -16.294 Q82.447 -23.089 77.733 -27.777 Q73.02 -32.465 66.237 -32.465 Q59.452 -32.465 54.764 -27.777 Q50.075 -23.089 50.075 -16.295 Q50.075 -9.501 54.763 -4.812 Q59.451 -0.123 66.245 -0.123 Q67.638 -0.123 69.081 -0.37 Q70.525 -0.617 71.906 -0.992 L73.813 1.072 Q74.227 1.495 74.716 1.745 Q75.205 1.997 75.767 2.213 Q73.7 3.294 71.254 3.951 Q68.808 4.607 66.276 4.607 Z M80.755 -1.785 Q80.009 -1.015 79.087 -1.015 Q78.165 -1.015 77.447 -1.785 L68.195 -10.999 Q67.574 -10.763 66.276 -10.687 Q63.948 -10.687 62.309 -12.333 Q60.669 -13.978 60.669 -16.314 Q60.669 -18.649 62.315 -20.275 Q63.96 -21.901 66.296 -21.901 Q68.631 -21.901 70.257 -20.261 Q71.883 -18.622 71.883 -16.294 Q71.883 -16.412 71.571 -14.344 L80.755 -5.18 Q81.475 -4.419 81.491 -3.487 Q81.506 -2.555 80.755 -1.785 Z"/></g><g id="Thin-S" transform="matrix(1 0 0 1 814.015 696)"><path d="M41.453 -4.49 Q32.459 -9.098 26.76 -18.319 Q21.06 -27.538 21.06 -38.682 V-58.1 L47.34 -68.247 L73.62 -58.111 V-42.843 Q72.941 -42.972 72.215 -43.171 Q71.489 -43.37 70.767 -43.48 V-56.241 L47.34 -65.128 L23.913 -56.241 V-38.682 Q23.913 -29.349 28.285 -21.273 Q32.656 -13.196 39.879 -8.514 Q40.243 -7.361 40.59 -6.395 Q40.937 -5.43 41.453 -4.49 Z M66.276 2.824 Q58.262 2.824 52.704 -2.723 Q47.147 -8.27 47.147 -16.276 Q47.147 -24.283 52.699 -29.847 Q58.252 -35.412 66.258 -35.412 Q74.215 -35.412 79.804 -29.86 Q85.394 -24.308 85.394 -16.294 Q85.394 -14.088 84.888 -12.052 Q84.382 -10.017 83.554 -8.222 Q83.396 -8.627 83.149 -9.007 Q82.902 -9.386 82.625 -9.663 L81.692 -10.596 Q82.06 -11.94 82.301 -13.421 Q82.541 -14.901 82.541 -16.294 Q82.541 -23.128 77.8 -27.844 Q73.058 -32.559 66.245 -32.559 Q59.433 -32.559 54.716 -27.844 Q49.999 -23.129 49.999 -16.296 Q49.999 -9.462 54.715 -4.745 Q59.43 -0.029 66.264 -0.029 Q67.619 -0.029 69.1 -0.275 Q70.581 -0.522 71.962 -0.878 L72.77 0.142 Q73.056 0.447 73.416 0.579 Q73.777 0.711 74.211 0.848 Q72.493 1.728 70.437 2.276 Q68.382 2.824 66.276 2.824 Z M79.504 -3.056 Q78.998 -2.551 78.477 -2.551 Q77.957 -2.551 77.523 -3.056 L68.29 -12.213 Q67.639 -11.94 66.276 -11.788 Q64.402 -11.788 63.085 -13.109 Q61.77 -14.431 61.77 -16.313 Q61.77 -18.195 63.091 -19.497 Q64.413 -20.8 66.295 -20.8 Q68.177 -20.8 69.479 -19.485 Q70.782 -18.168 70.782 -16.294 Q70.782 -16.383 70.357 -14.268 L79.504 -5.161 Q79.958 -4.665 79.964 -4.113 Q79.97 -3.56 79.504 -3.056 Z"/></g><g id="Ultralight-S" transform="matrix(1 0 0 1 517.792 696)"><path d="M41.373 -5.741 Q32.891 -10.327 27.516 -19.137 Q22.141 -27.949 22.141 -38.682 V-57.357 L47.34 -67.086 L72.539 -57.371 V-42.627 Q72.129 -42.617 71.683 -42.735 Q71.235 -42.853 70.813 -42.923 V-56.286 L47.34 -65.163 L23.867 -56.286 V-38.682 Q23.867 -29.072 28.455 -20.804 Q33.043 -12.536 40.584 -7.911 Q40.88 -7.27 41.028 -6.777 Q41.176 -6.284 41.373 -5.741 Z M66.276 1.754 Q58.699 1.754 53.463 -3.474 Q48.228 -8.703 48.228 -16.27 Q48.228 -23.839 53.456 -29.091 Q58.685 -34.342 66.252 -34.342 Q73.772 -34.342 79.048 -29.107 Q84.324 -23.871 84.324 -16.294 Q84.324 -14.337 83.881 -12.529 Q83.437 -10.722 82.746 -9.144 Q82.634 -9.472 82.444 -9.777 Q82.253 -10.081 82.056 -10.278 L81.76 -10.574 Q82.105 -11.905 82.352 -13.409 Q82.598 -14.913 82.598 -16.294 Q82.598 -23.151 77.84 -27.884 Q73.081 -32.616 66.251 -32.616 Q59.422 -32.616 54.688 -27.884 Q49.954 -23.152 49.954 -16.296 Q49.954 -9.44 54.686 -4.706 Q59.419 0.028 66.276 0.028 Q67.607 0.028 69.111 -0.218 Q70.615 -0.465 71.996 -0.81 L72.144 -0.415 Q72.354 -0.183 72.637 -0.121 Q72.921 -0.061 73.278 0.028 Q71.77 0.788 69.948 1.271 Q68.125 1.754 66.276 1.754 Z M78.752 -3.818 Q78.39 -3.473 78.111 -3.473 Q77.832 -3.473 77.569 -3.818 L68.347 -12.941 Q67.677 -12.645 66.276 -12.448 Q64.674 -12.448 63.552 -13.576 Q62.43 -14.703 62.43 -16.313 Q62.43 -17.921 63.558 -19.031 Q64.685 -20.14 66.295 -20.14 Q67.903 -20.14 69.013 -19.018 Q70.122 -17.896 70.122 -16.294 Q70.122 -16.364 69.629 -14.223 L78.752 -5.149 Q79.048 -4.813 79.048 -4.489 Q79.048 -4.163 78.752 -3.818 Z"/></g></g></svg>