<svg xmlns="http://www.w3.org/2000/svg" height="48" viewBox="0 -960 960 960" width="48"><path d="M335.97-121.15q-22.42 0-38.62-16.2-16.2-16.2-16.2-38.44v-608.42q0-22.24 16.2-38.44t38.62-16.2h288.06q22.42 0 38.62 16.2 16.2 16.2 16.2 38.44v608.42q0 22.24-16.2 38.44t-38.62 16.2H335.97Zm-.01-30.2h288.08q10.77 0 17.69-6.92 6.92-6.92 6.92-17.69v-608.08q0-10.77-6.92-17.69-6.92-6.92-17.69-6.92H335.96q-10.77 0-17.69 6.92-6.92 6.92-6.92 17.69v608.08q0 10.77 6.92 17.69 6.92 6.92 17.69 6.92Zm-24.61 0V-808.65-151.35Z"/></svg>