<svg xmlns="http://www.w3.org/2000/svg" height="40" viewBox="0 -960 960 960" width="40"><path d="M152.44-159.3q-29.72-56.94-51.13-116.64-21.41-59.7-21.41-124.14 0-82.88 31.2-155.96 31.2-73.09 85.39-127.27 54.2-54.18 126.85-85.86 72.65-31.69 155.25-31.69 27.94 0 55.63 4.21 27.69 4.2 54.74 11.79l-46.08 63.51q-15.86-3.54-32.08-5.23-16.23-1.7-32.21-1.7-136.05 0-231.16 95.78-95.11 95.78-95.11 232.45 0 44.79 11.17 87.3 11.18 42.5 34.05 81.03h564.87q23.84-38.36 34.52-80.94 10.68-42.58 10.68-87.23 0-74.33-31.62-140.78-31.63-66.46-89.4-113.14l19.45-77.07q82 56.38 128.03 143.76 46.03 87.37 46.12 187.25 0 64.45-20.73 124.31-20.72 59.87-51.73 116.26H152.44Zm289.43-164.92q33.63 15.58 66.68 3.16 33.04-12.42 41.27-46.61Q574-467.76 599.34-565.69q25.35-97.93 50.61-197.76-59.41 83.8-119.25 166.25-59.84 82.46-121.37 164.72-20.16 27.48-10.02 60.37t42.56 47.89Zm34.56-69.02Z"/></svg>