<svg xmlns="http://www.w3.org/2000/svg" height="24" viewBox="0 -960 960 960" width="24"><path d="M179.85-200q-26.39-46.77-43-96.74Q120.23-346.7 120.23-400q0-74.7 28.35-140.4t76.95-114.3q48.6-48.6 114.3-76.95Q405.53-760 480.23-760q15.31 0 29.85 1.46 14.54 1.46 29.84 4.16l-26.07 36.61q-8.62-1.49-16.81-1.86-8.19-.37-16.81-.37-134 0-227 93t-93 227q0 42 11.5 82.5t32.5 77.5H756q22-36 33-77t11-83q0-64.64-24.35-123.39-24.34-58.76-70.8-103.76l12.53-43.93q58.85 51.62 90.62 122.04 31.77 70.42 32 149.04 0 53.46-16.23 103.35-16.23 49.88-41.31 96.65H179.85Zm271.23-140.31q25.07 11.69 50.24 1.85 25.17-9.85 32.91-35.85 26.69-87.54 50.85-174.81 24.15-87.26 47.77-176.03-52.77 74.92-103.93 149.42-51.15 74.5-103.54 150.35-15.38 22.07-7.23 47.61 8.16 25.54 32.93 37.46Zm25.84-54.54Z"/></svg>