<svg xmlns="http://www.w3.org/2000/svg" height="40" viewBox="0 -960 960 960" width="40"><path d="M442.54-323.55q33.57 15.57 67.23 3.07 33.66-12.5 42.24-47.07 26.18-100.91 50.71-199.95 24.54-99.04 48.82-200.3-61.16 83.23-121.71 166.39Q469.28-518.24 408-434.64q-20.67 28.33-9.69 61.96 10.97 33.62 44.23 49.13ZM148.68-153.3q-36.35-65-56.04-118.25-19.68-53.25-19.59-129.54 0-82.5 33.19-156.32 33.19-73.81 89.37-128.95 56.18-55.13 130.08-87.69 73.9-32.57 155.4-32.57 84.36 0 158.17 32.02 73.82 32.02 128.9 87.69 55.09 55.67 86.77 129.57 31.69 73.89 31.69 158.25 0 74.66-20.63 128.59-20.63 53.93-55.34 117.2H148.68Z"/></svg>