<svg xmlns="http://www.w3.org/2000/svg" height="24" viewBox="0 -960 960 960" width="24"><path d="M444.08-327.31q28.07 14.69 56.27 3.39 28.19-11.31 34.88-40.39 24.69-98.77 53.62-195.54 28.92-96.77 58-194.77-54 87.16-110.43 170.27Q480-501.23 420.38-417.38q-17.38 23.07-9.73 49.61 7.66 26.54 33.43 40.46ZM155.31-168q-32.08-60.46-48.93-111.65-16.84-51.2-17.61-120.81 0-81.85 30.77-153.31 30.77-71.46 83.61-124.19 52.85-52.73 124.81-83.39Q399.92-792 480-792q81.54 0 153.12 31.42 71.57 31.43 124.3 84.66 52.73 53.23 83.66 125.8Q872-477.54 872-396q0 67.62-18.88 119.46-18.89 51.85-50.97 108.54H155.31Z"/></svg>