<svg xmlns="http://www.w3.org/2000/svg" height="40" viewBox="0 -960 960 960" width="40"><path d="M148.61-153.3q-30.55-58.11-52.88-119.3Q73.4-333.79 73.4-399.41q0-84.25 31.94-158.54 31.94-74.29 86.89-129.5 54.96-55.21 128.78-87.31t157.75-32.1q27.66 0 55.07 4.12 27.42 4.12 54.47 11.6l-48.58 66.96q-15.21-3.76-30.26-5.26-15.06-1.5-30.7-1.5-137.55 0-233.58 96.69-96.03 96.7-96.03 234.84 0 45.26 11.68 88.21 11.67 42.95 34.21 82.14h570.03q23.68-38.85 34.78-81.93 11.09-43.08 11.09-88.24 0-74.32-31.23-140.78-31.24-66.45-88.28-113.14l20.11-80.56q82.67 57.21 128.87 145.5 46.19 88.3 46.45 188.88 0 66.21-21.73 127.34-21.72 61.13-54.05 118.69H148.61Zm293.93-170.25q33.52 15.57 67.2 3.07 33.69-12.5 42.27-47.07 26.15-100.87 51.08-199.89 24.93-99.01 48.86-200.18-60.91 83.3-121.92 166.34Q469.02-518.24 408-434.64q-20.67 28.3-9.69 61.94 10.97 33.64 44.23 49.15Zm34.55-71.19Z"/></svg>