<svg xmlns="http://www.w3.org/2000/svg" height="40" viewBox="0 -960 960 960" width="40"><path d="M152.67-160q-29.67-56.67-51-116.23-21.34-59.57-21.34-123.1 0-83 31.5-156t85.5-127.34q54-54.33 126.58-85.83Q396.48-800 479-800q26.78 0 53.56 4 26.77 4 53.11 11l-43 58.67q-16-4-31.62-5.5-15.61-1.5-32.05-1.5-138.67 0-235.33 97.33Q147-538.67 147-399.33q0 46 11.83 89.5 11.84 43.5 34.84 83.16h573q24-39.33 35.33-83 11.33-43.66 11.33-89.66 0-75.34-31.83-142.67-31.83-67.33-89.83-114.33l17-71q81 56.33 126 142.83 45 86.5 45.33 185.17 0 64.33-20.67 123.83-20.66 59.5-52 115.5H152.67Zm290.66-164.67q33.34 15.34 66.84 2.84t42.16-46.84q26.34-98.66 50.34-195.83 24-97.17 46.33-196.5-60.67 80.67-121 161.83Q467.67-518 408-436q-20.67 28.33-9.33 62 11.33 33.67 44.66 49.33Zm34-71.66Z"/></svg>