<svg xmlns="http://www.w3.org/2000/svg" height="48" viewBox="0 -960 960 960" width="48"><path d="M438.57-319.26q35 16.43 69.65 4 34.65-12.44 42.65-47.87 24-105.57 50.85-208.35t54.98-208.35q-62.57 88-124 175.63-61.44 87.63-126 174.2-21.44 27.43-11.5 61.65 9.93 34.22 43.37 49.09ZM139.43-141.17q-38.69-67.57-58.26-122.13-19.56-54.57-19.56-134.27-1-86.69 32.78-163.26 33.78-76.56 91.57-134.06 57.78-57.5 134.06-90.72t161.41-33.22q86.57 0 162.64 33 76.06 33 132.63 90.29 56.56 57.28 89.34 134.34 32.79 77.07 32.79 163.63 0 76.57-21.57 133.42-21.56 56.85-57.69 122.98H139.43Z"/></svg>