<svg xmlns="http://www.w3.org/2000/svg" height="20" viewBox="0 -960 960 960" width="20"><path d="M185-248.5q-18.5-32-25.75-66.85Q152-350.2 152-386.5q0-68.22 25.85-127.41t70.17-102.98q44.32-43.78 104.63-69.2Q412.96-711.5 480-711.5q9.92 0 18.83.43 8.92.43 18.67.57l-11 17.5q-7.15-.17-13.5-.58-6.35-.42-13-.42-130.07 0-220.28 90.52-90.22 90.52-90.22 219.29 0 30.68 5.58 60.28 5.57 29.6 16.72 57.91H766q11-28.5 17.25-58.02 6.25-29.52 6.25-60.29 0-67.92-27.64-127.55-27.65-59.64-79.36-104.64L691-636q55 46.5 86 111.5t30 138q0 34.94-6.75 70.47t-22.53 67.53H185Zm268.5-110q20.5 11 40.18 2.59 19.69-8.4 25.79-30.21 20.66-76.58 42.35-151.48Q583.5-612.5 610.5-690q-44 68.5-84.25 135t-86.07 132.11Q428.5-406 432.5-387.25t21 28.75Zm23-39.5Z"/></svg>