<svg xmlns="http://www.w3.org/2000/svg" height="24" viewBox="0 -960 960 960" width="24"><path d="M150.92-156q-31.69-57.39-54.5-117.59-22.8-60.2-22.8-124.41 0-83.92 31.92-157.74 31.93-73.81 87.23-129.11 55.3-55.3 129.11-87.22Q395.69-804 479.62-804q22.15 0 42.92 2.78 20.77 2.77 41.92 7.53l-55.54 77.31q-7.51-1.08-14.65-1.35-7.14-.27-14.65-.27-134 0-227 93t-93 227q0 42 10.97 81.13 10.98 39.12 31.03 74.87H758q20-36 31-75t11-81q0-63.32-23.92-121.7-23.93-58.38-69.16-103.38l23.77-93.46Q803.61-659.23 845-575.77q41.38 83.46 41 177.46 0 64.54-22.12 125.23-22.11 60.69-53.65 117.08H150.92Zm291.62-165.15q31.54 15.84 63.37 3.17 31.83-12.68 39.68-45.5 24.87-101.44 50.95-201.83 26.07-100.38 54.38-201.77-58.38 87.47-117.46 172.47-59.07 85-120.77 169.92-19.69 26.54-10.11 57.31 9.57 30.76 39.96 46.23Zm32.92-65.77Z"/></svg>