<svg xmlns="http://www.w3.org/2000/svg" height="20" viewBox="0 -960 960 960" width="20"><path d="M449.04-340.57q30.24 14.24 59.98 2.24t38.5-43.24q26-90.39 47.2-181.16 21.19-90.77 42.63-182.68-57 74.87-110.96 151.02Q472.43-518.24 419-441.33q-18 26-8.86 56.38 9.14 30.38 38.9 44.38Zm-302.82 156.7q-31.68-56.63-44.77-96.21-13.1-39.57-13.34-105.68 0-81.15 30.86-152.21 30.86-71.05 84.19-124.01 53.34-52.95 124.39-83.43 71.06-30.48 151.21-30.48 81.67 0 153.23 30.6 71.55 30.59 124.63 83.67t84.17 124.13q31.1 71.06 31.1 151.73 0 67.63-13.46 105.8-13.45 38.18-45.65 96.09H146.22Z"/></svg>