<svg xmlns="http://www.w3.org/2000/svg" height="24" viewBox="0 -960 960 960" width="24"><path d="M139-136q-34-62-59.5-127.22Q54-328.43 54-398q0-88.07 33.5-165.54Q121-641 179-699q58-58 135.46-91.5Q391.93-824 480-824q26 0 51 3.55 25 3.54 50 9.45l-69 95q-8.21-1.33-16-1.67-7.79-.33-16-.33-134 0-227 93t-93 227q0 42 10.98 81.13Q181.95-277.75 202-242h556q20-36 31-75t11-81q0-64-24.5-123T705-625l28-115q81 60 127 150t46 191.69q0 70.31-25 135.81T821-136H139Zm302-179q35 17 70.5 3t44.47-50.33Q582-468 607.5-573 633-678 659-784q-63 89-126.5 176.5T405-432q-22 30-10.5 65t46.5 52Zm36-75Z"/></svg>