<svg xmlns="http://www.w3.org/2000/svg" height="20" viewBox="0 -960 960 960" width="20"><path d="M451.54-348.15q26.54 12.84 52.38 2.19 25.85-10.66 33.69-38.19 24.85-83.39 45.81-167.27 20.96-83.89 42.5-168.89-52 70.08-100.96 141.39-48.96 71.31-98.27 143.23-15.69 22.54-8.11 48.81 7.57 26.26 32.96 38.73ZM162.15-212q-26.53-48.23-35.96-83.08-9.42-34.84-9.8-90.15 0-75.92 28.38-142.15 28.39-66.23 77.81-115.35 49.42-49.11 115.65-77.19T479-748q75.77 0 142.31 28.46t115.65 77.58q49.12 49.11 78.08 115.15T844-386q0 57.31-10.19 90.73-10.2 33.42-37.73 83.27H162.15Z"/></svg>