<svg xmlns="http://www.w3.org/2000/svg" height="40" viewBox="0 -960 960 960" width="40"><path d="M440.78-322.7q33.9 15.9 67.19 3.49 33.3-12.42 41.44-46.82 23.96-102.19 49.99-202.12 26.03-99.92 52.72-201.36-59.38 85.78-119.83 170.28-60.44 84.5-122.96 168.6-20.16 27.5-10.51 60.32t41.96 47.61ZM147.75-150.67q-37.71-66.55-56.93-119.38-19.23-52.83-19.63-131.38-.33-84.17 32.77-158.36 33.1-74.2 89.03-129.5 55.94-55.3 130.27-87.49 74.34-32.19 157.51-32.19 84.37 0 158.98 32.22 74.61 32.23 129.94 87.87 55.33 55.65 87.31 130.36 31.97 74.72 31.97 159.09 0 75.54-21.05 130.35-21.05 54.81-56 118.41H147.75Z"/></svg>