<svg xmlns="http://www.w3.org/2000/svg" height="20" viewBox="0 -960 960 960" width="20"><path d="M178.42-237.54q-19.65-34.65-28.4-72.25-8.75-37.59-8.75-76.83 0-70.45 26.73-131.61 26.73-61.15 72.56-106.39t108.04-71.54q62.22-26.3 131.52-26.3 12.3 0 23.83.89 11.53.89 23.59 1.84l-18.73 27.54q-7.57-.44-14.54-.89-6.97-.46-14.15-.46-129.73 0-219.83 90.34-90.1 90.35-90.1 218.86 0 30.6 5.56 60.12 5.56 29.52 16.67 57.76h573.12q11.11-28.5 17.25-57.92 6.13-29.42 6.13-60.09 0-68.17-28.1-128.23-28.11-60.07-80.4-105.07l10.93-31.73q59.84 47.88 93.61 116.63 33.77 68.75 32.89 146.25 0 38.12-8.31 76.27-8.31 38.16-26.1 72.81H178.42Zm274.04-117.38q22.69 11.69 44.46 2.55 21.77-9.15 28.32-33.05 21.01-78.89 42.46-156.45 21.45-77.55 47.3-157.48-46.42 69.43-89.15 137.37-42.73 67.94-90.05 135.17-13.07 18.73-8.03 39.91 5.04 21.17 24.69 31.98Zm24.85-44.58Z"/></svg>