<svg xmlns="http://www.w3.org/2000/svg" height="48" viewBox="0 -960 960 960" width="48"><path d="M444.15-331q29.58 14.46 59.23 3.21 29.66-11.25 37.66-41.9 23.69-94 48.36-185.73 24.68-91.73 49.37-185.42-54.85 78.8-110.25 157.26-55.4 78.47-112.44 156.08-17.81 24.42-9.1 53.58 8.71 29.15 37.17 42.92ZM166.04-183.27q-31.62-56.04-46.94-103.88-15.33-47.85-15.52-113.31-.69-77.42 30.11-145.52 30.81-68.1 82.52-119.6 51.71-51.5 120.35-81.42 68.63-29.92 145.06-29.92 77.84 0 146.13 29.9 68.29 29.91 119.23 81.12 50.94 51.21 80.44 119.79 29.5 68.57 29.5 146.42 0 64.15-17.08 113.23-17.07 49.07-46.57 103.19H166.04Z"/></svg>