<svg xmlns="http://www.w3.org/2000/svg" height="20" viewBox="0 -960 960 960" width="20"><path d="M145.2-181.78q-25.77-48.02-42.62-99.3Q85.72-332.35 85.72-387q0-81.8 31.08-152.93 31.08-71.13 84.77-124.03 53.69-52.91 125.67-83.59 71.98-30.67 152.69-30.67 22.33 0 44.65 2.72 22.32 2.71 43.77 7.48l-60.33 84.74q-6.69-.77-14.04-1.35-7.36-.59-14.05-.59-125.17 0-213.19 88.06-88.02 88.05-88.02 212.31 0 28.41 4.93 55.8 4.94 27.4 14.81 54.27h561.02q10.37-27.37 15.55-54.51 5.19-27.14 5.19-55.46 0-65.86-28.23-125.1-28.23-59.24-79.06-103.11l27.48-99.63q81.09 55.33 127.48 141.38 46.39 86.06 45.33 184.21 0 53.9-16.33 105.55-16.32 51.65-43.65 99.67H145.2Zm301.54-157.83q30.56 14.57 59.85 2.96 29.28-11.6 36.75-43.07 22.16-92.8 45.39-184.57 23.23-91.78 49.75-184.86-55.07 79.85-108.04 157.96-52.98 78.12-109.26 155.26-17.68 24.72-10.03 53.77 7.65 29.05 35.59 42.55Zm32.69-60.37Z"/></svg>