<svg xmlns="http://www.w3.org/2000/svg" height="48" viewBox="0 -960 960 960" width="48"><path d="M140.09-142.35q-32.05-60.56-55.11-124.33-23.07-63.77-23.07-132.16 0-86.92 32.21-163.22 32.21-76.29 88.57-132.88 56.35-56.58 131.94-89.93 75.59-33.35 163.37-33.35 30.8 0 60.75 4.77 29.95 4.78 60.08 14.36l-52.22 72.05q-17.69-3.77-34.87-5.6-17.17-1.84-33.81-1.84-140.23 0-236.54 97.81-96.3 97.8-96.3 237.7 0 45.47 11.47 90.15 11.48 44.68 34.42 83.3h578.06q24-39.87 34.94-83.83 10.93-43.96 10.93-88.97 0-77.82-32.88-146.7-32.87-68.87-94.73-116.46l22.96-87.17q88.7 57.56 138.26 150.76 49.57 93.19 50.13 199.64 0 69.05-23.04 132.64-23.04 63.58-55.35 123.26H140.09Zm298.48-176.91q34.81 16.43 69.55 4 34.75-12.44 42.72-48.2 23.5-105.99 50.18-208.75 26.68-102.75 55.81-208.44-61.57 89.69-123.57 177.11-62 87.41-127.03 173.76-20.97 27.21-11.03 61.43 9.93 34.22 43.37 49.09Zm37-70.31Z"/></svg>