<svg xmlns="http://www.w3.org/2000/svg" height="40" viewBox="0 -960 960 960" width="40"><path d="M439.38-318.22q35 16.44 69.74 3.67 34.75-12.77 42.89-48.2 25.19-107.13 52.56-211.55 27.37-104.42 55.36-211.37-63.05 89.76-125.6 178.43T406.7-430.29q-21.44 28.1-11.17 62.39 10.27 34.29 43.85 49.68ZM136.16-134.15q-39.74-69.98-60.73-126.23-21-56.26-21-138.85-.66-88.07 33.62-165.59 34.28-77.51 92.75-135.53 58.48-58.03 135.97-91.67 77.49-33.65 164-33.65 88.27 0 165.62 33.6 77.35 33.59 134.94 91.82 57.58 58.24 90.96 136.49 33.38 78.25 33.38 166.53 0 79.65-22.59 137.45-22.59 57.79-60.24 125.63H136.16Z"/></svg>