<svg xmlns="http://www.w3.org/2000/svg" height="40" viewBox="0 -960 960 960" width="40"><path d="M442.67-325.33Q476-310 508.92-322.42q32.91-12.41 41.25-46.25 24.33-97.66 47.91-193.16 23.59-95.5 47.25-193.17-59 80.5-117.75 160.67-58.75 80.16-118.25 160.5-20.16 27.5-9.66 60.41 10.5 32.92 43 48.09ZM157.17-166.5q-34.5-61.83-52.5-112.5T86.83-402q-.33-79.83 31.92-150.92Q151-624 205.33-677.42q54.34-53.41 125.75-84.66 71.42-31.25 150.25-31.25 81.17 0 152.67 31 71.5 31 124.67 84.66 53.16 53.67 83.91 125.09 30.75 71.41 30.75 152.58 0 70.83-19.16 122.25Q835-226.33 802.5-166.5H157.17Z"/></svg>