<svg xmlns="http://www.w3.org/2000/svg" height="20" viewBox="0 -960 960 960" width="20"><path d="M134-168q-28-51-46.5-105.22Q69-327.43 69-384q0-85.07 32.41-159.08 32.4-74.01 88.53-129.46 56.13-55.44 131.06-87.45Q395.93-792 480-792q22.75 0 44.5 2.73 21.75 2.72 43.5 7.27l-64 89q-6.15-.67-12-.83-5.85-.17-12-.17-131.07 0-222.03 91Q167-512 167-382q0 31.07 5.48 59.66Q177.95-293.75 188-266h582q9-29 15.5-57.09Q792-351.18 792-382q0-67-28-127.5T685-615l27-106q83 57 131 146t47 190.69Q890-328 872-273t-47 105H134Zm309-161q33 17 65.47 3.65 32.46-13.36 40.5-47.98 22.16-97.37 44.6-194.02Q616-664 643-762q-58 83-114 164.5T414.18-435.39Q394-408 403-376.5t40 47.5Zm35-67Z"/></svg>