<svg xmlns="http://www.w3.org/2000/svg" height="40" viewBox="0 -960 960 960" width="40"><path d="M190.26-769.74h579.48v579.48H190.26v-579.48ZM140-820v680h680v-680H140Zm149.15 308.9-37.84-32.51q41.95-49.52 102.55-74.49 60.6-24.98 126.14-24.98 65.79 0 126.18 24.77 60.38 24.77 102.59 74.7l-37.85 32.51q-35.02-41.08-85.34-61.4T480-592.82q-55.26 0-105.44 20.13t-85.41 61.59Zm109.39 112.69-36.8-34.79q23.29-24.62 54.03-38.47 30.74-13.84 64.85-13.84 34.51 0 65.37 13.84 30.86 13.85 54.14 38.47l-37.26 34.79q-15.97-17.23-37.4-27.04-21.42-9.81-45.06-9.81t-44.96 9.81q-21.32 9.81-36.91 27.04Zm60.32 99.55q-8.6-8.6-8.6-21.14 0-12.54 8.6-21.14 8.6-8.6 21.14-8.6 12.54 0 21.14 8.6 8.6 8.6 8.6 21.14 0 12.54-8.6 21.14-8.6 8.6-21.14 8.6-12.54 0-21.14-8.6ZM480-480Z"/></svg>