<svg xmlns="http://www.w3.org/2000/svg" height="48" viewBox="0 -960 960 960" width="48"><path d="M179.87-781.13h601.26v601.26H179.87v-601.26Zm-77.07-76.3v754.63h754.63v-754.63H102.8ZM296.72-532.2l-54.48-49.71q49.48-47.52 109.74-71.52 60.26-24 128.02-24 68.76 0 129.02 22.88 60.26 22.88 109.74 71.64l-54.48 50.71q-35.24-38-84.38-54.88-49.14-16.88-99.9-16.88-51.52 0-99.9 16.88t-83.38 54.88Zm112 124.48-50.48-52.95q25.24-22.53 56.5-35.79Q446-509.72 481-509.72t66.76 13.26q31.76 13.26 58 35.79l-52.48 52.71q-14.76-14-32.64-21.26-17.88-7.26-38.64-7.26-21.52 0-40.02 7.26-18.5 7.26-33.26 21.5Zm46.42 111.22q-9.38-9.5-9.38-24.62 0-15.12 9.38-24.62 9.38-9.5 24.86-9.5 15.48 0 24.86 9.5 9.38 9.5 9.38 24.62 0 15.12-9.38 24.62-9.38 9.5-24.86 9.5-15.48 0-24.86-9.5ZM480-480Z"/></svg>