<svg xmlns="http://www.w3.org/2000/svg" height="40" viewBox="0 -960 960 960" width="40"><path d="M172-788v616h616v-616H172Zm121.67 270.33-20-14.66q38.66-45 92.5-67 53.83-22 113.83-22 60.67 0 113.67 22t92.33 67l-20 14.66q-34-40.66-83.5-60.16T480-597.33q-53 0-102.67 19-49.66 19-83.66 60.66Zm102 106.34-18.34-16.34q20-21.33 46.34-33.33Q450-473 480-473t57.17 12q27.16 12 47.16 33.33l-19 16.34q-17-18.67-38.83-28.17T480-449q-24.67 0-46.5 9.5t-37.83 28.17Zm67.5 108.16Q456-310.33 456-320q0-9.67 7.17-16.83Q470.33-344 480-344q9.67 0 16.83 7.17Q504-329.67 504-320q0 9.67-7.17 16.83Q489.67-296 480-296q-9.67 0-16.83-7.17Z"/></svg>