<svg xmlns="http://www.w3.org/2000/svg" height="40" viewBox="0 -960 960 960" width="40"><path d="M191.67-769H769v577.33H191.67V-769Zm-41-40.33v658.66h658.66v-658.66H150.67Zm159 265.33L279-573.33q43.33-39 93-57.34Q421.67-649 480-649q59.33 0 107.83 17.83 48.5 17.84 92.5 56.5L650-544q-32.67-34.33-78.67-49-46-14.67-91.33-14.67-46.33 0-92 14.17T309.67-544ZM409-429.67 382.67-461q20-17.33 44.5-27.17Q451.67-498 480-498q27.33 0 53.33 10T580-461l-28.33 31q-15.67-14.33-32.84-20.5-17.16-6.17-37.83-6.17-21.67 0-39.5 6.17T409-429.67Zm50.33 129q-8.66-8.66-8.66-20.66t8.66-20.67q8.67-8.67 20.67-8.67 12 0 20.67 8.67 8.66 8.67 8.66 20.67 0 12-8.66 20.66Q492-292 480-292q-12 0-20.67-8.67ZM480-480Z"/></svg>