<svg xmlns="http://www.w3.org/2000/svg" height="20" viewBox="0 -960 960 960" width="20"><path d="M145.87-814.13v668.26h668.26v-668.26H145.87Zm177.37 305.8-59.83-46.26q44.44-48.08 98.12-69.65Q415.22-645.8 480-645.8q66.02 0 119.22 21.44 53.19 21.45 99.63 69.29l-61.59 46.74q-30.02-32.08-70.71-48.41-40.68-16.33-86.55-16.33-46.11 0-86.67 16.33-40.57 16.33-70.09 48.41Zm95.54 102.37-53.87-49q23-23.08 52.66-36.13 29.65-13.04 62.43-13.04 32.54 0 63.43 13.04 30.9 13.05 53.9 36.13l-56.35 48.76q-13.52-13.56-27.85-19.62-14.33-6.05-32.39-6.05-18.31 0-33.37 6.05-15.07 6.06-28.59 19.86Zm36.4 94.3q-10.59-10.6-10.59-24.82t10.59-24.69q10.6-10.48 24.82-10.48t24.82 10.48q10.59 10.47 10.59 24.69t-10.59 24.82q-10.6 10.59-24.82 10.59t-24.82-10.59Z"/></svg>