<svg xmlns="http://www.w3.org/2000/svg" height="20" viewBox="0 -960 960 960" width="20"><path d="M220.04-739.96h519.92v519.92H220.04v-519.92Zm-47.96-47.96v615.84h615.84v-615.84H172.08Zm145.8 283.15-43.49-27.73q41.46-47.69 92.42-68.86 50.96-21.18 113.19-21.18 63.81 0 114.13 21.18 50.33 21.17 93.98 68.86l-45.49 27.73q-30.31-34.77-72.6-52.29-42.29-17.52-90.02-17.52t-90.12 17.33q-42.38 17.33-72 52.48Zm92.66 96.42L372.81-438q21.08-22.88 48.54-35.83 27.46-12.94 58.27-12.94 30.8 0 59.74 12.94 28.95 12.95 50.02 35.83l-39.92 29.65q-14.96-16.15-31.63-23.3-16.68-7.16-37.33-7.16-20.85 0-38.02 7.16-17.17 7.15-31.94 23.3Zm49.52 92.29q-8.56-8.56-8.56-19.94t8.56-20.04q8.56-8.65 19.94-8.65t20.04 8.65q8.65 8.66 8.65 20.04 0 11.38-8.65 19.94-8.66 8.56-20.04 8.56-11.38 0-19.94-8.56ZM480-480Z"/></svg>