<svg xmlns="http://www.w3.org/2000/svg" height="24" viewBox="0 -960 960 960" width="24"><path d="M202.5-757.5h555v555h-555v-555ZM177-783v606h606v-606H177Zm121.5 267L277-531.5q38-45 91-66.25T480-619q59.5 0 111.75 21.25t90.75 66.25L661-516q-33-40-81.25-58.75T480-593.5q-51.5 0-100 18.25T298.5-516ZM398-412.5 378.5-429q20-21.5 46-33.25T480-474q29.5 0 56.25 11.75T583-429l-20 16.5q-16.5-18-37.75-27t-44.75-9q-24 0-45.25 9t-37.25 27Zm64.75 109.75Q455.5-310 455.5-320t7.25-17.5Q470-345 480-345t17.5 7.5Q505-330 505-320t-7.5 17.25q-7.5 7.25-17.5 7.25t-17.25-7.25ZM480-480Z"/></svg>