<svg xmlns="http://www.w3.org/2000/svg" height="24" viewBox="0 -960 960 960" width="24"><path d="M100.78-859.22v758.44h758.44v-758.44H100.78Zm203.79 338.18-64.05-67.44q45.39-46.48 108.78-70.59 63.4-24.11 130.7-24.11 65.87 0 129.2 23.83 63.32 23.83 108.71 69.74l-63.48 68.57q-33.87-33.48-79.26-51.03-45.39-17.54-95.17-17.54-50.35 0-95.46 17.54-45.1 17.55-79.97 51.03ZM416.3-400.26l-63.78-70q26-23.48 59.09-36.22 33.09-12.74 69.39-12.74 35.74 0 68.39 12.74t58.65 36.22l-63.91 69.43q-12.87-11.61-29.41-18.78-16.55-7.17-34.15-7.17-18.18 0-34.79 7.17t-29.48 19.35Zm32.09 110.74q-12.91-12.91-12.91-31.61t12.91-31.33q12.91-12.63 31.61-12.63t31.61 12.63q12.91 12.63 12.91 31.33 0 18.7-12.91 31.61T480-276.61q-18.7 0-31.61-12.91Z"/></svg>