<svg xmlns="http://www.w3.org/2000/svg" height="48" viewBox="0 -960 960 960" width="48"><path d="M143.08-816.92v673.84h673.84v-673.84H143.08Zm146.73 302.23-35.31-26.85q42.69-49.42 101.48-73.98 58.79-24.56 124.02-24.56 66.54 0 124.69 24.25 58.16 24.25 101.92 74.29l-35.3 26.85q-34.93-42.23-85.94-61.89-51.02-19.65-105.37-19.65t-104.96 19.46q-50.62 19.46-85.23 62.08Zm107.65 112.65-32.69-29.27q22.96-24.27 52.61-37.71 29.66-13.44 63.24-13.44 34.19 0 64.38 13.69 30.19 13.69 53.15 37.46l-34 29.27q-15.69-17.77-37.42-27.17-21.73-9.41-45.61-9.41-24.58 0-46.12 9.41-21.54 9.4-37.54 27.17Zm63.87 100.71q-7.52-7.52-7.52-18.67 0-11.15 7.52-19.02 7.52-7.86 18.67-7.86 11.15 0 19.02 7.86 7.86 7.87 7.86 19.02 0 11.15-7.86 18.67-7.87 7.52-19.02 7.52-11.15 0-18.67-7.52Z"/></svg>