<svg xmlns="http://www.w3.org/2000/svg" height="48" viewBox="0 -960 960 960" width="48"><path d="M110.87-849.7v738.83H849.7V-849.7H110.87Zm186.8 321.31-52.28-45.11q47.83-48.54 107.53-72.28 59.71-23.74 127.08-23.74 68.87 0 128.04 22.95 59.18 22.96 107.5 72.5l-51.71 45.68q-34.94-39.61-83.9-56.53-48.95-16.93-99.93-16.93-50.98 0-99.43 16.93-48.46 16.92-82.9 56.53ZM407.48-406.8l-47.59-48.68q24.5-22.61 55.62-35.41Q446.63-503.7 481-503.7q34.8 0 66.46 13.06 31.65 13.05 56.71 35.16l-50.21 48.11q-14.37-14.74-32.8-21.98-18.42-7.24-39.09-7.24-21.74 0-40.73 7.24t-33.86 22.55Zm49.48 108.71q-8.85-8.84-8.85-22.76 0-13.91 8.85-23.01 8.84-9.1 23.04-9.1t23.29 9.1q9.1 9.1 9.1 23.01 0 13.92-9.1 22.76-9.09 8.85-23.29 8.85t-23.04-8.85Z"/></svg>