<svg xmlns="http://www.w3.org/2000/svg" height="20" viewBox="0 -960 960 960" width="20"><path d="M306.98-135.87v-155.48h83v155.48h-83Zm0-266.39v-155.48h83v155.48h-83Zm0-266.39v-155.48h83v155.48h-83ZM83.33-135.87l100.06-688.26h82.76L166.09-135.87H83.33Zm602.3-3.5q-4.5-3.5-7.5-8.5l-4-7q-23-42-60.5-71.5t-63.5-68.5q-15-22.76-22.38-48.34-7.38-25.58-7.38-52.66 0-72 51.96-122 51.97-50 123.92-50 72.95 0 124.42 51 51.46 51 51.46 124 0 26-8 51t-22 47q-26 39-63.5 68.5t-60.5 71.5l-4 7q-2 5-7 8.5t-11 3.5q-6 0-10.5-3.5Zm61.5-201.5q21-21 21-51t-21-51q-21-21-51-21t-51 21q-21 21-21 51t21 51q21 21 51 21t51-21Zm-271.5-171.06-45.06-312.2h83l33.63 232.59q-22.35 15.71-40.36 35.61-18.01 19.89-31.21 44Z"/></svg>