<svg xmlns="http://www.w3.org/2000/svg" height="20" viewBox="0 -960 960 960" width="20"><path d="M299.41-108.65v-180.94h104.18v180.94H299.41Zm0-280.76v-181.18h104.18v181.18H299.41Zm0-281v-180.94h104.18v180.94H299.41ZM39.74-108.65l115.43-742.7h104.18l-115.44 742.7H39.74Zm673.61-3.88q-4-3.88-7-8.12l-4.04-6.96q-23.2-41.8-60.61-71.38-37.41-29.57-63.35-68.66-15.24-22.76-23-47.84-7.76-25.08-7.76-53.16 0-71.76 51.96-121.88 51.97-50.12 123.92-50.12 73.19 0 124.53 51 51.35 51 51.35 124 0 26-8 51t-22 47q-26 39.76-63.5 68.5-37.5 28.74-60.5 71.38l-4 7.12q-2 4.24-7 8.12-5 3.88-11 3.88t-10-3.88Zm61-201.12q21-21 21-51t-21-51q-21-21-51-21t-51 21q-21 21-21 51t21 51q21 21 51 21t51-21ZM498.57-479.43l-56.16-371.92h104.42l42.95 280.22q-29.15 16.72-51.82 39.89-22.68 23.17-39.39 51.81Z"/></svg>