<svg xmlns="http://www.w3.org/2000/svg" height="24" viewBox="0 -960 960 960" width="24"><path d="M337-140v-131h53v131h-53Zm0-274v-131h53v131h-53Zm0-274v-132h53v132h-53ZM62-140l109-680h53L114-140H62Zm637.37-2.89q-3.94-2.89-6.36-6.68l-3.23-7.17Q671.21-195 638.1-222.5 605-250 582-285q-14-20-20-43.5t-6-48.44q0-62.26 45.48-104.16T710-523q63 0 106.5 44.55Q860-433.91 860-371.07q0 23.07-6.5 45.16Q847-303.82 834-285q-23.3 35.65-56.65 61.83Q744-197 726.95-157.2l-3.1 7.46q-2.32 3.87-6.59 6.81-4.26 2.93-9.1 2.93-4.85 0-8.79-2.89ZM753-327q19-19 19-45t-19-45q-19-19-45-19t-45 19q-19 19-19 45t19 45q19 19 45 19t45-19ZM543-562l-41-258h52l36 226q-15 6-26 14t-21 18Z"/></svg>