<svg xmlns="http://www.w3.org/2000/svg" height="20" viewBox="0 -960 960 960" width="20"><path d="M288-98v-203h127v203H288Zm0-280v-204h127v204H288Zm0-281v-203h127v203H288ZM23-98l120-764h127L150-98H23Zm701-3.5q-4-3.5-7-8.5l-4.15-6.84Q689-158 651.87-187.81 614.74-217.61 589-257q-16-22-23-47.33T559-358q0-71 51.85-121.5T734.49-530q73.8 0 124.65 51Q910-428 910-355q0 26-8 51t-22 47q-26 39-63.5 68.5T756-117l-4 7q-2 5-7 8.5T734-98q-6 0-10-3.5ZM785-303q21-21 21-51t-21-51q-21-21-51-21t-51 21q-21 21-21 51t21 51q21 21 51 21t51-21ZM494-449l-63-413h128l46 300q-36 19-64 47.5T494-449Z"/></svg>