<svg xmlns="http://www.w3.org/2000/svg" height="48" viewBox="0 -960 960 960" width="48"><path d="M325.46-110.87v-159.85h77.28v159.85h-77.28Zm0-289.96v-159.84h77.28v159.84h-77.28Zm0-290.02V-849.7h77.28v158.85h-77.28ZM38.89-110.87 156.24-849.7h75.72L115.61-110.87H38.89Zm652.39-3.22q-5.08-3.21-7.58-8.68l-4.06-9.01q-23.66-46.43-63.53-80.65-39.86-34.22-68.02-78.44-17.18-24.93-25.54-53.38-8.35-28.45-8.35-59.41 0-76.14 56.28-128.43 56.29-52.28 134.83-52.28 77.05 0 130.72 55.34 53.67 55.33 53.67 133.16 0 28.33-8.18 55.14-8.17 26.81-23.38 50.07-29.57 44.5-69.79 77.65-40.22 33.14-61.74 80.98l-3.91 9.16q-3.57 5.57-8.54 8.78-4.96 3.22-11.38 3.22-6.41 0-11.5-3.22Zm66.55-227.2q23.37-22.93 23.37-55.89 0-32.95-23.37-56.32-23.37-23.37-56.33-23.37-32.95 0-55.63 23.37-22.67 23.37-22.67 56.32 0 32.96 22.67 55.89 22.68 22.92 55.63 22.92 32.96 0 56.33-22.92ZM538.02-578.43 495.24-849.7h76.72l35.52 224q-20.15 8.54-37.52 20.03-17.37 11.49-31.94 27.24Z"/></svg>