<svg xmlns="http://www.w3.org/2000/svg" height="48" viewBox="0 -960 960 960" width="48"><path d="M350-172v-96h22v96h-22Zm0-260.5v-96h22v96h-22Zm0-258.5v-97h22v97h-22ZM107.5-172 201-788h22l-94.5 616h-21Zm559.74-2.93q-3.81-2.94-6.73-6.71l-3.21-7.4q-18.75-37.87-51.67-65.17-32.93-27.29-55.24-63.29-13.89-19.5-20.14-43.52-6.25-24.03-6.25-48.01 0-61.67 45.23-103.82Q614.46-555 678.5-555q62 0 105.75 44.47T828-403.57q0 23.4-6.64 45.55t-19.42 40.73q-23.8 36.16-57.12 62.72Q711.5-228 694.95-189.7l-3.1 7.96q-2.82 3.87-6.09 6.81-3.26 2.93-8.98 2.93-5.73 0-9.54-2.93Zm54.01-183.99q19.25-18.91 19.25-45 0-26.08-19.25-45.33t-45.33-19.25q-26.09 0-44.75 19.25Q612.5-430 612.5-403.92q0 26.09 18.67 45Q649.83-340 675.92-340q26.08 0 45.33-18.92ZM527.5-602 499-788h21l26 173.5q-5.06 4.35-9.4 6.98-4.35 2.64-9.1 5.52Z"/></svg>