<svg xmlns="http://www.w3.org/2000/svg" height="20" viewBox="0 -960 960 960" width="20"><path d="M691-574h16v-16h-16v16Zm-267-83h16v-16h-16v16Zm60 0h223v-16H484v16ZM159-262l-16-20 100-96q-19-23-36.5-48.5T174-478h31.38Q218-457 231-437.5q13 19.5 29.21 39.5 27.79-32 51.29-67t36.5-75H100v-25h149.22v-47H275v47.5h158v25.5h-57q-15 45-41 85t-58 76q15 17 28 31.5t33 29.5l-10.42 26Q309-308 293.5-323.5T259-359l-100 97ZM303-72l132.6-334H462L596-72h-28.67l-36.77-94H368l-37.65 94H303Zm74-118h145l-72-185-73 185Zm435-254H471v-130h166v-16H315v-57h-20v-165h517v368Z"/></svg>