<svg xmlns="http://www.w3.org/2000/svg" height="24" viewBox="0 -960 960 960" width="24"><path d="M519.23-578.46h132.31v-35.39H519.23v35.39Zm196.92 0h35.39v-35.39h-35.39v35.39Zm-302.3-110h35.38v-35.39h-35.38v35.39Zm92.3 0h245.39v-35.39H506.15v35.39ZM149.23-227.69l-24.54-25.85 117.62-114.08q-21.85-26.61-40.77-54.46-18.92-27.84-35.16-57.92h39.24q13.23 23.15 27.92 44.69 14.69 21.54 32.61 42.23 29.7-33.69 53.7-70.61 24-36.93 38.23-79.39H80v-35.38h169.23v-52.31h35.39v52.31h184.92v35.38h-75.23q-16.23 49.39-43.35 92.62-27.11 43.23-61.5 82.61 14.77 17 32.5 34.5T356-301.08l-13.77 35.62q-18.54-16.77-38.85-36.58-20.3-19.81-38-39.5L149.23-227.69ZM321.15-58.46l137.31-350.77h37.31L633.85-58.46h-38.16l-36.84-96.62h-162.7l-37.38 96.62h-37.62Zm87.08-127.85h138.54l-69.39-180.46-69.15 180.46Zm111-262.92v-35.39h325.39v-360H320.77v163.85h-35.39V-880H880v430.77H519.23Zm325.39-35.39v-360 360Z"/></svg>