<svg xmlns="http://www.w3.org/2000/svg" height="24" viewBox="0 -960 960 960" width="24"><path d="M706.19-574.15h38.46v-38.47h-38.46v38.47ZM400.92-685.38h38.46v-38.47h-38.46v38.47Zm93.54 0h250.19v-38.47H494.46v38.47ZM154.77-257.11l-25.27-28.43 103.46-101.04q-19.27-23.65-36.65-48.48-17.39-24.82-32.5-51.09h46q11 18.23 23.11 35.34 12.12 17.12 25.85 33.73 26-31.11 47.85-63.23 21.84-32.11 35.96-70.15H86.15v-38.46H240.5v-54.16h38.46v54.16h166.58v38.46h-61.19q-16.23 46.19-42.43 86.65-26.19 40.46-58.11 77.5 14.77 16.89 29.73 31.98 14.96 15.1 30.77 29.37l-15 39.19q-18.16-16.77-35.94-34.36-17.79-17.6-35.49-37.29L154.77-257.11ZM303.19-58.96l140.39-344.73h40.5L625.73-58.96H584.5l-36.85-93.66H381.27l-37.89 93.66h-40.19Zm90.77-126.12h140.39l-70.5-177.38-69.89 177.38Zm479.89-264.77H489.08v-124.3h155.57v-38.47l-327.38-16.61v-70h-45.54v-175.23h602.12v424.61Z"/></svg>