<svg xmlns="http://www.w3.org/2000/svg" height="48" viewBox="0 -960 960 960" width="48"><path d="M715.5-578h28v-28h-28v28ZM410-685h28v-28h-28v28Zm83 0h250.5v-28H493v28ZM153-280.5 135.5-301l93-90.5q-18.5-22-34.75-45.25T162.5-484h36q11.5 17 23.75 35T247-416q26-31 48.75-62.75T331.5-549H92v-28h142.5v-51h28v51H420v28h-55.5q-16 45-42.75 84t-57.25 74q15 18 29 31.5t29.5 28L312-303q-18.5-17-33.75-32t-31.75-34.5l-93.5 89Zm136.5 216 141-347.5H458L600.5-64.5h-31l-38-96.5h-173L319-64.5h-29.5Zm79-121.5h152L444-378l-75.5 192ZM868-452H474v-126h174.5v-28h-334v-69h-28v-193H868v416Z"/></svg>