<svg xmlns="http://www.w3.org/2000/svg" height="48" viewBox="0 -960 960 960" width="48"><path d="M505-591h152v-60H505v60Zm217 0h63v-60h-63v60ZM419-711h60v-60h-60v60Zm116 0h250v-60H535v60ZM119-215l-50-58 85-81q-18-23-36-46.5T85-448h97q6.92 6.96 12.46 15.48Q200-424 206-416q16-23 31-44t27-47H20v-77h133v-64h78v64h165v77h-45q-18 42-42.5 79.5T256-355q12 13 20 21.5t20 18.5l-36 75q-16-13-27.5-25.5T204-295l-85 80ZM259-20l150-364h89L649-20h-83l-30-72H368l-27 72h-82Zm134-137h118l-60-154-58 154Zm112-277v-78h357v-350H342v144h-78v-222h676v506H505Zm357-78v-350 350Z"/></svg>