<svg xmlns="http://www.w3.org/2000/svg" height="40" viewBox="0 -960 960 960" width="40"><path d="M709.83-575.33h63.34v-63.34h-63.34v63.34ZM402-696.67h63.33V-760H402v63.33Zm118.67 0h252.5V-760h-252.5v63.33Zm-390 484.84L89.5-258l107-107.5q-19.83-23.17-37-47.92t-31.33-49.25h74.66q8.67 12.34 17.34 24.5 8.66 12.17 18.5 24.17 22-28.17 39.83-54.83 17.83-26.67 31.67-57.84H46.67V-590h160.5v-63.33h63.33V-590H430v63.33h-52.17q-17 44.17-41.66 84.17-24.67 40-56 77.17 14 16.5 28.83 31.58 14.83 15.08 28.33 28.58L313-240.33q-17-16-36.25-35.59-19.25-19.58-38.92-41.25L130.67-211.83ZM302.83-40.5 447.17-394H515L660.5-40.5h-66l-33.67-86.17H401.17l-32.5 86.17h-65.84Zm118-139.5h119l-60.5-154.67L420.83-180Zm492.5-260.67H520.67v-134.66h129.16v-63.34l-302-18V-720h-86v-194h651.5v473.33Z"/></svg>