<svg xmlns="http://www.w3.org/2000/svg" height="48" viewBox="0 -960 960 960" width="48"><path d="M713.96-577.08h49.23v-49.23h-49.23v49.23ZM406-692.69h49.23v-49.23H406v49.23Zm103.92 0h253.27v-49.23H509.92v49.23ZM136.69-248.81 105.66-285l94.53-94.19q-18.19-21.39-34.28-44.18-16.1-22.78-30.18-45.25h60.92q9.04 12.08 17.91 24.85 8.86 12.77 18.29 24.39 22.3-28.24 41.21-55.06 18.9-26.83 32.21-59.18H63.08v-49.23h145.88v-58.69h49.23v58.69H408v49.23h-46.88q-16.62 43.16-41.68 81.39-25.06 38.23-54.94 73.54 14.38 17.07 27.62 30.42 13.23 13.35 27.5 27.23l-19 50.35q-17.58-16.39-33.91-32.93-16.32-16.54-34.67-37.27l-95.35 92.08ZM287.65-49.73l144.39-352.12h51.5L629.42-49.73h-52.23l-35.54-89.73H374.19L339-49.73h-51.35Zm102.39-131.96H524.5l-68.19-171.39-66.27 171.39Zm506.88-263.23H493.38v-132.16h156.35v-49.23l-314.31-8.3v-65h-62.77v-197.62h624.27v452.31Z"/></svg>