<svg xmlns="http://www.w3.org/2000/svg" height="48" viewBox="0 -960 960 960" width="48"><path d="M449-589h200v-28H449v28Zm267 0h31v-28h-31v28ZM415-696h28v-28h-28v28Zm83 0h249v-28H498v28ZM150-290l-29-35 71-64q-16-22-33-44t-33-45h62q9.92 10.96 18.46 23.98Q215-441 223-430q19-25 38.5-50.5T292-538H72v-45h115v-53h46v53h163v45h-48q-17 42-43.5 78.5T251-390q13 14 20 21t21 18l-24 42q-18-14-25.5-22T221-354l-71 64Zm97 246 147-352h53L595-44h-51l-34-81H330l-34 81h-49Zm99-119h148l-74-185-74 185Zm103-283v-46h393v-350H321v149h-46v-195h613v442H449Zm393-46v-350 350Z"/></svg>