<svg xmlns="http://www.w3.org/2000/svg" height="24" viewBox="0 -960 960 960" width="24"><path d="M532-605h132v-60H532v60Zm192 0h57v-60h-57v60ZM430-725h65v-60h-65v60Zm125 0h226v-60H555v60ZM120-154l-81-87 93-75q-26-32-50-65.5T36-451h144q8 11 15.5 23.5T211-405q14.8-19.83 27.9-41.91Q252-469 264-493H-15v-119h134v-65h120v65h234v119h-77q-23 47-50.5 89T289-322q15 10 30.5 20t31.5 20l-65 109q-20-15-40-29t-36-29l-90 77ZM292 14l153-372h149L746 14H616l-15-38H435l-16 38H292Zm178-134h96l-48-131-48 131Zm62-287v-120h323v-329H355v95H236v-214h739v568H532Zm323-120v-329 329Z"/></svg>