<svg xmlns="http://www.w3.org/2000/svg" height="20" viewBox="0 -960 960 960" width="20"><path d="M446.5-570.5h185V-589h-185v18.5Zm236.5 0h18.5V-589H683v18.5Zm-269.5-84H432V-673h-18.5v18.5Zm61 0h227V-673h-227v18.5ZM163.5-286 147-308l88.5-85.5q-17-20.5-33.25-43.5T172-483h36.88q10.62 17 21.62 33 11 16 23.71 32.5 24.79-30 46.54-61T335.5-546H105v-27.5h137.22V-622h28.28v49h143v28H368q-15 42.5-40.25 80.25T272.5-393q15 17 25.75 29.5t30.25 27l-11.42 29q-18.08-17-31.58-30.75T253-372l-89.5 86Zm125 213.5 135.1-329h28.9l137 329h-31.17L521.56-164H356l-38.15 91.5H288.5Zm77-116.5H512l-73-182.5L365.5-189Zm81-255.5V-463h342v-326h-486v127H284v-145.5h523v363H446.5Zm342-18.5v-326 326Z"/></svg>