<svg xmlns="http://www.w3.org/2000/svg" height="40" viewBox="0 -960 960 960" width="40"><path d="M517.61-594.75h141.38v-60H517.61v60Zm204.71 0h62.07v-60h-62.07v60Zm-299.81-120h60.87v-60h-60.87v60Zm118.21 0h243.67v-60H540.72v60Zm-420.69 521.1-57.81-64.63 91.03-83.5q-20.58-25.97-40.28-52.58-19.69-26.61-36.75-54.42h107.11q7.53 9 14.28 19.48 6.74 10.48 14.01 19.84 16.41-22.75 31.5-45.05 15.08-22.3 27.18-49H11.34v-86.82h137.64v-64.08h87.82v64.08h186.86v86.82h-56.33q-19.22 44.08-44.68 83.38-25.45 39.3-54.22 76.13 12.37 11.91 22.38 21.13 10.02 9.22 22.62 19.2l-42.88 82.85q-16.61-13.22-30.36-26.45-13.76-13.22-30.23-29.62l-89.93 83.24ZM270.46-11.58 420.42-377.3h103.25L674.05-11.58h-93.96l-26.48-64.33H387.57L363.1-11.58h-92.64Zm144.5-136.7h111.26l-56.25-147.63-55.01 147.63ZM517.61-428v-87.99h343.13v-345.08H345.92v133.01h-87.75v-220.6h690.39V-428H517.61Zm343.13-87.99v-345.08 345.08Z"/></svg>