<svg xmlns="http://www.w3.org/2000/svg" height="20" viewBox="0 -960 960 960" width="20"><path d="M398.65-320.19H242.22q-8.06 0-13.83-5.43t-5.77-13.3v-22.79q0-4.25 2.27-7.5t5.11-6.48q39.54-31.12 65.23-53.5 25.69-22.39 40.04-36.77 17.23-19.15 25.39-36.19 8.15-17.04 8.15-35.12 0-30.38-15.06-47.92-15.06-17.54-36.32-17.54-16.31 0-29.36 10.39-13.04 10.38-19.15 25.26-3.86 7.36-12.35 10.28-8.49 2.92-16.49.15-8.73-2.66-13.6-11.52-4.86-8.87-1.9-19.37 6.61-31.73 35.92-46.32 29.31-14.6 58.89-14.6 45.5 0 71.3 24.75 25.81 24.75 25.81 68.59 0 32.48-11.9 60.68-11.91 28.21-33.6 52.56-19.54 22.88-41.6 40.05-22.05 17.18-47.75 35.95l.43.42h116.96q8.92 0 15.71 7.23 6.79 7.23 6.79 16.33 0 9.09-6.98 15.4-6.98 6.31-15.91 6.31Zm115.67.69q-12.7 0-21.05-8.73-8.35-8.73-8.35-21.42v-262.24q0-12.69 8.85-21.52 8.85-8.82 21.19-8.82h76.64q73.91 0 113.23 42.25 39.32 42.25 39.32 118.37 0 76.01-39.38 119.06-39.39 43.05-113.3 43.05h-77.15Zm16.72-47.27h59.95q55.7 0 80.68-28.75 24.98-28.75 24.98-85.85 0-57.09-24.98-85.34t-80.68-28.25h-59.95v228.19Z"/></svg>