<svg xmlns="http://www.w3.org/2000/svg" height="20" viewBox="0 -960 960 960" width="20"><path d="M358-260H124.87Q110-260 99.5-270.16 89-280.32 89-294v-43.41q0-7.59 3.5-14.09T101-363q73-56 102.5-84t42.5-44q15-19 17.5-34.5T266-546q0-33-10.73-46.5-10.74-13.5-25.54-13.5-6.73 0-16.35 1.14-9.62 1.13-22.38 9.86-18.18 14.74-41.59 18.87Q126-572 109.93-586.62 94-601 93-622.5t15-38.5q21-25 53.5-35.5T232-707q69 0 110.5 35.5T384-573q0 38.44-10.5 69.72T343-447q-17 23-40.5 46T253-356.88l5 5.88h100q18 0 31.5 14t13.5 32.17q0 18.18-13.5 31.5Q376-260 358-260Zm197.36 2Q528-258 510-276.88t-18-45.23v-312.78q0-26.35 18.5-45.23Q529-699 556-699h80.41q122.1 0 182.85 54Q880-591 880-479.14q0 111.85-59.5 166.5Q761-258 636.28-258h-80.92ZM610-367h18.95q69.05 0 99.55-26.5T759-479q0-59-30.5-85.5T628.95-591H610v224Z"/></svg>