<svg xmlns="http://www.w3.org/2000/svg" height="40" viewBox="0 -960 960 960" width="40"><path d="M389.87-296.64H210.21q-8.69 0-14.16-5.46-5.46-5.47-5.46-14.16v-23.59q0-3.84 1.32-7.79t5.17-6.98q42.69-33.33 72.55-58.33t50.68-49.87q19.03-23.03 29.13-43.69 10.1-20.67 10.1-44.75 0-32.1-18.53-52.36-18.52-20.25-44.78-20.25-21.18 0-36.48 13.29-15.31 13.3-21.49 32.25-3.62 8.84-12.16 12.47-8.53 3.63-17.64-.01-10.23-3.59-13.98-13.82-3.76-10.23-.79-21.51 8.36-33.95 39.07-52.2 30.7-18.24 64.27-18.24 53.82 0 82.93 27.96 29.12 27.96 29.12 79.14 0 36.26-14.35 68.03-14.34 31.77-36.75 60.02-22.11 28.28-48.93 50.07-26.82 21.78-54.18 41.57l.16.62h135.23q10.1 0 16.98 6.95 6.89 6.95 6.89 17.05 0 10.1-7.08 16.84-7.07 6.75-17.18 6.75Zm125.28-.21q-13.3 0-22.29-8.86-8.99-8.86-8.99-22.42v-304.66q0-13.31 8.99-22.3t22.29-8.99h91.23q83.26 0 127.44 49.04Q778-566 778-480.36q0 85.9-44.69 134.71-44.7 48.8-126.93 48.8h-91.23Zm18.41-49.12h71.85q62.15 0 92.83-34.59t30.68-99.8q0-65.2-30.68-99.77-30.68-34.56-92.83-34.56h-71.85v268.72Z"/></svg>