<svg xmlns="http://www.w3.org/2000/svg" height="20" viewBox="0 -960 960 960" width="20"><path d="M366.26-269.13H143.57q-14.01 0-23.42-9.07-9.41-9.08-9.41-22.32v-40.8q0-7.16 3.28-13.01 3.28-5.84 7.85-10.84 68.22-52.53 97.28-79.66 29.07-27.13 42.07-43.13 14.56-18.56 17.71-34.5 3.16-15.93 3.16-23.97 0-30.83-10.95-44.33-10.96-13.5-26.63-13.5-8.03 0-17.65 2.44-9.63 2.44-20.21 10.73-16 14.31-37.46 18.87-21.45 4.57-37.09-8.31-15.06-12.21-17.36-31.32-2.31-19.11 10.65-35.67 18.83-27.18 52.41-38.55 33.59-11.37 68.98-11.37 65.52 0 104.85 33.98t39.33 93.94q0 37.13-10.5 67.76-10.5 30.63-30.5 55.63-17.44 22.56-40.07 44.7-22.63 22.13-48.63 42.81l4.57 5.45h100.43q16.7 0 29.33 12.91 12.63 12.91 12.63 29.78t-12.63 29.11q-12.63 12.24-29.33 12.24Zm183.88 1.57q-24.31 0-40.57-16.93-16.27-16.92-16.27-40.66v-306.7q0-23.74 16.77-40.66 16.76-16.93 40.71-16.93h81.28q115.15 0 172.63 51.83 57.49 51.83 57.49 158.47 0 106.63-56.46 159.1-56.46 52.48-173.79 52.48h-81.79Zm52.03-100.31h22.87q66.87 0 96.29-26.28 29.41-26.28 29.41-84.85 0-58.57-29.41-84.63-29.42-26.07-96.29-26.07h-22.87v221.83Z"/></svg>