<svg xmlns="http://www.w3.org/2000/svg" height="24" viewBox="0 -960 960 960" width="24"><path d="M348-239H94q-16 0-27-11t-11-26v-46q0-8 3-15.5t9-12.5q77-59 110-88.5t51-54.5q15-21 18.5-38.5T251-558q0-33-13-47.5T207-620q-9 0-19 2t-23 12q-19 17-44 22t-43-11q-18-16-17.5-40T78-677q24-25 57-38t73-13q78 0 123 38.5T376-580q0 41-12 74.5T332-444q-19 28-46 53.5T232-343l5 6h111q20 0 34 14.5t14 34.5q0 20-14 34.5T348-239Zm212 1q-29 0-48.5-20T492-306v-344q0-28 19.5-48t48.5-20h90q132 0 198 59.5T914-478q0 121-65 180.5T650-238h-90Zm59-116h23q74 0 109-30t35-94q0-64-35-94.5T642-603h-23v249Z"/></svg>