<svg xmlns="http://www.w3.org/2000/svg" height="48" viewBox="0 -960 960 960" width="48"><path d="M407-313H240q-7 0-10.5-3.5T226-327v-17q0-3 1-5t3-5q40-30 65-53.5t48-46.5q20-24 30-45t10-38q0-41-17.5-62.5T324-621q-23 0-40 14t-20 36q-4 5-12 8t-14-2q-7-2-9.5-10.5t.5-17.5q6-29 36-46t60-17q45 0 71 25.5t26 69.5q0 34-13 65t-34 56q-20 23-48 49t-51 42v1h132q7 0 12 5t5 13q0 8-5.5 12.5T407-313Zm113 1q-13 0-23-9.5T487-346v-270q0-13 10-23.5t23-10.5h79q76 0 115.5 46.5T754-481q0 77-38.5 123T599-312h-79Zm5-36h74q56 0 86-37.5t30-95.5q0-58-30-95t-86-37h-74v265Z"/></svg>