<svg xmlns="http://www.w3.org/2000/svg" height="40" viewBox="0 -960 960 960" width="40"><path d="M370.98-277.72H176.17q-12.05 0-20.4-8.34-8.34-8.35-8.34-20.56v-32.32q0-6.23 2.57-11.63 2.58-5.41 7.82-10.06 51.15-40.04 81.98-64.44 30.84-24.4 49.84-46.65 17.26-20.43 26.2-38.69 8.94-18.26 8.94-37.46 0-33.02-17.69-52.24t-42.39-19.22q-16.9 0-29.78 9.72-12.89 9.72-20.76 24.41-7.58 11.72-20.46 15.93-12.87 4.21-25.18-1.88-13.06-5.69-17.13-19.49-4.07-13.81 1.6-27.37 11.09-34.73 43.34-52.46 32.25-17.74 69.2-17.74 62.39 0 96.35 30.33 33.97 30.32 33.97 89.81 0 37.56-13.98 69.91-13.97 32.36-36.39 61.53-22.28 29.52-49.84 49.69-27.55 20.16-56.98 40.83l.32.39h132q13.7 0 23.83 10.38 10.13 10.38 10.13 24.09 0 13.7-10.13 23.62-10.13 9.91-23.83 9.91Zm147.8-.08q-15.33 0-25.69-10.36-10.35-10.35-10.35-25.69v-329.41q0-15.33 10.35-25.86 10.36-10.52 25.69-10.52h96.78q96.42 0 147.52 51.82 51.1 51.82 51.1 148.89 0 97.24-51.69 149.18-51.7 51.95-146.93 51.95h-96.78Zm35.26-70.03h60.13q65.69 0 97.58-31.71t31.89-99.3q0-67.59-31.89-99.18-31.89-31.59-97.58-31.59h-60.13v261.78Z"/></svg>