<svg xmlns="http://www.w3.org/2000/svg" height="48" viewBox="0 -960 960 960" width="48"><path d="M365.76-270.37H164.8q-12.63 0-21.54-8.91-8.91-8.92-8.91-22.11v-33.52q0-6.63 2.78-12.2 2.78-5.56 8.35-10.63 54.48-42.22 84.98-66.53 30.5-24.32 50-46.32 17.93-20.43 27.05-38.33 9.12-17.91 9.12-28.43 0-42.72-17.87-63.43-17.87-20.72-42.67-20.72-16.68 0-30.11 9.46-13.44 9.45-22.2 24.82-8.96 11.63-22.91 15.63-13.96 4-26.09-3.39-13.13-6.32-16.97-20.97-3.83-14.64 3.12-28.27 11.39-34.61 44.14-52.48 32.75-17.87 72.02-17.87 64.08 0 99.51 31.02 35.42 31.01 35.42 92.53 0 38.63-13.9 71.98-13.9 33.34-36.9 62.84-21.87 28.87-51.25 50.85t-58.82 42.48l.07.13h134.54q14.26 0 25.21 11.2 10.94 11.19 10.94 25.45t-10.94 24.99q-10.95 10.73-25.21 10.73Zm153.91 0q-16.45 0-27.28-10.83-10.82-10.82-10.82-27.28v-338.91q0-16.46 10.82-27.53Q503.22-686 519.67-686h98.87q100.81 0 153.9 53.29 53.08 53.3 53.08 154.28 0 101.47-53.52 154.77-53.52 53.29-153.46 53.29h-98.87ZM557.02-344h60.39q66.76 0 99.93-32.75 33.16-32.75 33.16-101.72 0-68.96-33.16-101.43-33.17-32.47-99.93-32.47h-60.39V-344Z"/></svg>