<svg xmlns="http://www.w3.org/2000/svg" height="24" viewBox="0 -960 960 960" width="24"><path d="M149.78-70.78v-558.11h-79v-130.2q0-54.22 37.79-92.17 37.78-37.96 92.41-37.96h557.54q54.46 0 92.58 37.97 38.12 37.96 38.12 92.2v130.16h-79.5v558.11H149.78Zm101-101h457.94v-97.33H250.78v97.33Zm0-198.33h457.94v-98.95H649.7v21.21q0 20.55-14.54 34.96-14.53 14.41-35.26 14.41-20.73 0-35.97-14.41-15.23-14.41-15.23-34.96v-21.21H250.78v98.95Zm0-199.96H548.7v-58.82H250.78v58.82Zm398.92 0h59.02v-58.82H649.7v58.82ZM171.78-729.89h616.44v-28.85q0-12.26-8.75-20.87-8.75-8.61-20.95-8.61H200.98q-12.41 0-20.8 8.67-8.4 8.67-8.4 20.89v28.77Zm616.44 0H171.78h616.44Z"/></svg>