<svg xmlns="http://www.w3.org/2000/svg" height="20" viewBox="0 -960 960 960" width="20"><path d="M172.78-76.78v-561.61h-96v-110.7q0-55.89 39.29-95.01 39.28-39.12 95.41-39.12h537.04q56.13 0 95.41 39.21 39.29 39.2 39.29 95.21v110.41h-96v561.61H172.78Zm98-98h418.44v-84.83H270.78v84.83Zm0-182.83h418.44v-97.95H638.7v16.21q0 20.35-13.89 34.11-13.88 13.76-34.41 13.76-20.53 0-35.12-13.76Q540.7-419 540.7-439.35v-16.21H270.78v97.95Zm0-195.96H540.7v-84.82H270.78v84.82Zm367.92 0h50.52v-84.82H638.7v84.82ZM174.78-736.39h610.44v-12.5q0-15.51-10.55-25.92-10.55-10.41-26.15-10.41H211.48q-15.6 0-26.15 10.47-10.55 10.47-10.55 25.95v12.41Zm610.44 0H174.78h610.44Z"/></svg>