<svg xmlns="http://www.w3.org/2000/svg" height="40" viewBox="0 -960 960 960" width="40"><path d="M134.81-54.15V-641.8H54.15v-132.67q0-55.05 38.23-93.41 38.23-38.35 94.27-38.35h587.7q55.28 0 93.58 38.31 38.3 38.32 38.3 93.56v132.56h-79.92v587.65h-691.5Zm96.44-96.43h498.17v-112.25H231.25v112.25Zm0-209.06h498.17v-114.48h-75.43v29.11q0 19.98-13.81 33.5t-33.64 13.52q-20.45 0-34.91-13.52-14.46-13.52-14.46-33.5v-29.11H231.25v114.48Zm0-210.91h325.92v-71.25H231.25v71.25Zm422.74 0h75.43v-71.25h-75.43v71.25Z"/></svg>