<svg xmlns="http://www.w3.org/2000/svg" height="20" viewBox="0 -960 960 960" width="20"><path d="M167-72v-557.5H72V-747q0-58.75 41.08-99.88Q154.17-888 213.5-888H746q59.17 0 100.58 41.2Q888-805.6 888-746.75v117.25h-95.5V-72H167Zm113-113h399.5v-67.5H280v67.5Zm0-180.5h399.5v-82H645v2q0 22.72-16.1 38.61Q612.79-391 589.75-391q-23.05 0-40.4-15.89Q532-422.78 532-445.5v-2H280v82Zm0-195h252v-69H280v69Zm365 0h34.5v-69H645v69Zm-460-182h590v-4q0-11.9-8.55-20.2Q757.9-775 746-775H213.5q-12.11 0-20.31 8.41-8.19 8.4-8.19 20.24v3.85Zm590 0H185h590Z"/></svg>