<svg xmlns="http://www.w3.org/2000/svg" height="48" viewBox="0 -960 960 960" width="48"><path d="M211-132v-525.5h-79v-83.97q0-35.2 25.04-60.86Q182.08-828 218.5-828h523.51q34.82 0 60.41 25.36Q828-777.27 828-742.04v84.54h-79.5V-132H211Zm22-22h493.5v-165.5H233V-154Zm0-187.5h493.5v-165H597v63q0 5.18-3.24 8.34T586.5-432q-5 0-8.25-3.16T575-443.5v-63H233v165Zm0-187h342v-129H233v129Zm364 0h129.5v-129H597v129Zm-443-151h652v-62.23q0-26.87-18.61-45.57Q768.77-806 742-806H218.5q-28.41 0-46.46 18.47Q154-769.06 154-742.35v62.85Zm652 0H154h652Z"/></svg>