<svg xmlns="http://www.w3.org/2000/svg" height="40" viewBox="0 -960 960 960" width="40"><path d="M137.42-56.75v-589.4H56.75v-128.8q0-53.56 37.35-91.01 37.34-37.45 91.79-37.45h589.22q53.6 0 90.95 37.42 37.35 37.41 37.35 91.07v128.77h-79.93v589.4H137.42Zm89.26-89.26h507.31V-266.2H226.68v120.19Zm0-209.61h507.31V-477.7h-83.27v36.92q0 18.51-12.72 31.03-12.73 12.53-31.3 12.53-18.55 0-31.97-12.53-13.43-12.52-13.43-31.03v-36.92H226.68v122.08Zm0-211.34H561.3v-79.19H226.68v79.19Zm424.04 0h83.27v-79.19h-83.27v79.19Z"/></svg>