<svg xmlns="http://www.w3.org/2000/svg" version="1.1" width="3300" height="2000"><g id="Notes"><style>
    text {
      font-family: monospace;
      text-anchor: middle;
    }
    text.emphasis {
      font-weight:bold;
    }
    text.lanchor {
      text-anchor: start;
    }
  </style><rect height="2200" id="artboard" fill="white" width="3300" x="0" y="0"/><line id="" style="fill:none;stroke:black;stroke-width:0.5;" x1="263" x2="3036" y1="292" y2="292"/><text class="lanchor emphasis" transform="matrix(1 0 0 1 263 322)">Weight/Scale Variations</text><text transform="matrix(1 0 0 1 559.711 322)">Ultralight</text><text transform="matrix(1 0 0 1 856.422 322)">Thin</text><text transform="matrix(1 0 0 1 1153.13 322)">Light</text><text transform="matrix(1 0 0 1 1449.84 322)">Regular</text><text transform="matrix(1 0 0 1 1746.56 322)">Medium</text><text transform="matrix(1 0 0 1 2043.27 322)">Semibold</text><text transform="matrix(1 0 0 1 2339.98 322)">Bold</text><text transform="matrix(1 0 0 1 2636.69 322)">Heavy</text><text transform="matrix(1 0 0 1 2933.4 322)">Black</text><text id="template-version" style="text-anchor: end;" transform="matrix(1 0 0 1 3036 1933)">Template v.1.0</text><text class="lanchor" transform="matrix(1 0 0 1 263 726)">Small</text><text class="lanchor" transform="matrix(1 0 0 1 263 1156)">Medium</text><text class="lanchor" transform="matrix(1 0 0 1 263 1586)">Large</text></g><g id="Guides"><g id="H-reference" style="fill:#27AAE1;stroke:none;" transform="matrix(1 0 0 1 339 696)"><path d="M 54.9316 0 L 57.666 0 L 30.5664 -70.459 L 28.0762 -70.459 L 0.976562 0 L 3.66211 0 L 12.9395 -24.4629 L 45.7031 -24.4629 Z M 29.1992 -67.0898 L 29.4434 -67.0898 L 44.8242 -26.709 L 13.8184 -26.709 Z"/></g><line id="Baseline-S" style="fill:none;stroke:#27AAE1;opacity:1;stroke-width:0.577;" x1="263" x2="3036" y1="696" y2="696"/><line id="Capline-S" style="fill:none;stroke:#27AAE1;opacity:1;stroke-width:0.577;" x1="263" x2="3036" y1="625.541" y2="625.541"/><g id="H-reference" style="fill:#27AAE1;stroke:none;" transform="matrix(1 0 0 1 339 1126)"><path d="M 54.9316 0 L 57.666 0 L 30.5664 -70.459 L 28.0762 -70.459 L 0.976562 0 L 3.66211 0 L 12.9395 -24.4629 L 45.7031 -24.4629 Z M 29.1992 -67.0898 L 29.4434 -67.0898 L 44.8242 -26.709 L 13.8184 -26.709 Z"/></g><line id="Baseline-M" style="fill:none;stroke:#27AAE1;opacity:1;stroke-width:0.577;" x1="263" x2="3036" y1="1126" y2="1126"/><line id="Capline-M" style="fill:none;stroke:#27AAE1;opacity:1;stroke-width:0.577;" x1="263" x2="3036" y1="1055.54" y2="1055.54"/><g id="H-reference" style="fill:#27AAE1;stroke:none;" transform="matrix(1 0 0 1 339 1556)"><path d="M 54.9316 0 L 57.666 0 L 30.5664 -70.459 L 28.0762 -70.459 L 0.976562 0 L 3.66211 0 L 12.9395 -24.4629 L 45.7031 -24.4629 Z M 29.1992 -67.0898 L 29.4434 -67.0898 L 44.8242 -26.709 L 13.8184 -26.709 Z"/></g><line id="Baseline-L" style="fill:none;stroke:#27AAE1;opacity:1;stroke-width:0.577;" x1="263" x2="3036" y1="1556" y2="1556"/><line id="Capline-L" style="fill:none;stroke:#27AAE1;opacity:1;stroke-width:0.577;" x1="263" x2="3036" y1="1485.54" y2="1485.54"/><rect height="119.336" id="left-margin" style="fill:darkred;stroke:none;opacity:0.4;" width="12.4512" x="1394.06" y="1030.79"/><rect height="119.336" id="right-margin" style="fill:darkgreen;stroke:none;opacity:0.4;" width="12.4512" x="1502.5112" y="1030.79"/><rect x="1406.5112" y="1045" width="96" height="96" fill="none" stroke="blue" stroke-dasharray="5"/><rect x="1394.06" y="1030.79" width="120.9024" height="119.336" fill="none" stroke="blue"/></g><g id="Symbols"><g id="Bold-L" transform="matrix(1 0 0 1 2266 1556)"><path d="M34.508 -6.85  20.156 29.109 Q18.807 32.334 16.177 32.898 Q13.545 33.463 11.126 32.656 Q8.707 31.85 7.256 29.431 Q5.805 27.013 7.095 23.788 L34.669 -45.227 V-54.741 H12.9 Q8.546 -54.741 6.369 -58.45 Q4.192 -62.159 6.289 -66.029 L23.22 -96.182 Q25.242 -99.794 28.717 -101.858 Q32.194 -103.922 36.443 -103.922 H46.44 Q50.61 -103.922 54.177 -101.858 Q57.745 -99.794 59.824 -96.182 L76.755 -66.029 Q78.851 -62.159 76.634 -58.45 Q74.417 -54.741 70.144 -54.741 H48.375 V-45.227 L75.788 23.788 Q76.916 27.013 75.546 29.512 Q74.175 32.011 71.676 32.818 Q69.176 33.624 66.677 32.818 Q64.177 32.011 62.888 28.786 L48.375 -7.172 V26.529 Q48.375 29.407 46.437 31.355 Q44.499 33.301 41.519 33.301 Q38.539 33.301 36.523 31.255 Q34.508 29.209 34.508 26.368 V-6.85 Z M115.208 6.373 Q105.87 6.373 99.053 0.326 Q92.235 -5.721 90.461 -14.912 H85.463 Q81.497 -14.912 78.482 -17.575 Q75.465 -20.237 75.465 -24.104 Q75.465 -30.073 81.044 -37.121 Q86.622 -44.17 91.106 -47.646 Q91.925 -54.707 96.273 -60.53 Q100.62 -66.351 107.554 -68.447 V-96.344 Q107.554 -99.564 109.76 -101.744 Q111.964 -103.922 115.2 -103.922 Q118.437 -103.922 120.494 -101.744 Q122.55 -99.564 122.55 -96.344 V-68.447 Q129.484 -66.512 133.757 -60.627 Q138.03 -54.741 138.998 -47.646 Q143.513 -44.192 149.076 -37.112 Q154.639 -30.03 154.639 -23.942 Q154.639 -19.948 151.573 -17.431 Q148.508 -14.912 144.48 -14.912 H139.32 Q137.708 -5.721 131.016 0.326 Q124.324 6.373 115.208 6.373 Z M93.364 -27.651 H136.74 Q135.44 -29.925 134.397 -32.497 Q133.354 -35.069 131.096 -36.52 L125.396 -40.511 L124.646 -47.807 Q124.14 -51.4 121.378 -53.796 Q118.616 -56.192 115.052 -56.192 Q111.337 -56.192 108.639 -53.693 Q105.941 -51.194 105.457 -47.646 L104.709 -40.511 L98.846 -36.52 Q96.589 -35.069 95.592 -32.484 Q94.596 -29.901 93.364 -27.651 Z M25.8 -69.737 H57.244 L46.808 -88.765 H36.462 L25.8 -69.737 Z M115.126 -6.366 Q118.901 -6.366 121.774 -8.785 Q124.646 -11.204 125.936 -14.912 H104.329 Q105.619 -11.204 108.52 -8.785 Q111.419 -6.366 115.126 -6.366 Z"/></g><g id="Semibold-L" transform="matrix(1 0 0 1 1970.27 1556)"><path d="M36.401 -8.182  21.909 27.917 Q20.795 30.721 18.502 31.216 Q16.209 31.71 14.071 30.974 Q11.933 30.238 10.726 28.169 Q9.52 26.101 10.601 23.297 L36.562 -41.301 V-55.652 H13.951 Q10.299 -55.652 8.472 -58.8 Q6.647 -61.949 8.391 -65.187 L25.603 -95.621 Q27.327 -98.663 30.242 -100.381 Q33.159 -102.1 36.723 -102.1 H48.193 Q51.711 -102.1 54.68 -100.381 Q57.647 -98.663 59.403 -95.621 L76.615 -65.187 Q78.361 -61.949 76.512 -58.8 Q74.662 -55.652 71.055 -55.652 H48.444 V-41.301 L74.246 23.297 Q75.234 26.101 74.073 28.249 Q72.912 30.399 70.729 31.136 Q68.546 31.871 66.361 31.17 Q64.177 30.47 63.097 27.664 L48.444 -8.504 V25.618 Q48.444 28.138 46.742 29.844 Q45.039 31.548 42.454 31.548 Q39.871 31.548 38.136 29.788 Q36.401 28.027 36.401 25.526 V-8.182 Z M113.244 4.831 Q104.359 4.831 97.771 -0.797 Q91.184 -6.423 89.27 -15.122 H83.289 Q79.798 -15.122 77.14 -17.504 Q74.483 -19.885 74.483 -23.333 Q74.483 -29.428 80.062 -36.623 Q85.641 -43.82 90.265 -47.296 Q91.079 -54.232 95.499 -59.801 Q99.919 -65.369 106.783 -67.256 V-95.713 Q106.783 -98.427 108.637 -100.264 Q110.492 -102.1 113.22 -102.1 Q115.948 -102.1 117.708 -100.264 Q119.465 -98.427 119.465 -95.713 V-67.256 Q126.33 -65.461 130.672 -59.856 Q135.016 -54.251 135.913 -47.296 Q140.568 -43.802 146.167 -36.539 Q151.765 -29.277 151.765 -23.101 Q151.765 -19.573 149.08 -17.347 Q146.396 -15.122 142.868 -15.122 H136.656 Q134.834 -6.423 128.387 -0.797 Q121.94 4.831 113.244 4.831 Z M89.368 -26.529 H136.809 Q135.094 -29.357 133.592 -32.423 Q132.091 -35.49 129.343 -37.362 L124.298 -40.879 L123.595 -47.246 Q123.098 -51.17 120.065 -53.822 Q117.032 -56.473 113.089 -56.473 Q109.061 -56.473 106.064 -53.762 Q103.068 -51.053 102.653 -47.156 L101.95 -40.879 L96.813 -37.362 Q93.994 -35.49 92.52 -32.416 Q91.045 -29.343 89.368 -26.529 Z M24.818 -68.335 H60.188 L48.401 -89.326 H36.742 L24.818 -68.335 Z M113.167 -6.576 Q117.053 -6.576 120.078 -8.995 Q123.105 -11.413 124.604 -15.122 H101.734 Q103.235 -11.413 106.288 -8.995 Q109.342 -6.576 113.167 -6.576 Z"/></g><g id="Medium-L" transform="matrix(1 0 0 1 1674.31 1556)"><path d="M37.82 -9.182  23.223 27.024 Q22.288 29.512 20.247 29.954 Q18.207 30.396 16.28 29.712 Q14.351 29.028 13.329 27.222 Q12.308 25.418 13.229 22.928 L37.981 -38.357 V-56.336 H14.74 Q11.613 -56.336 10.051 -59.063 Q8.487 -61.791 9.97 -64.557 L27.392 -95.2 Q28.891 -97.813 31.387 -99.272 Q33.883 -100.733 36.933 -100.733 H49.507 Q52.538 -100.733 55.056 -99.272 Q57.574 -97.813 59.087 -95.2 L76.51 -64.557 Q77.992 -61.791 76.42 -59.063 Q74.846 -56.336 71.739 -56.336 H48.498 V-38.357 L73.088 22.928 Q73.972 25.418 72.969 27.303 Q71.966 29.189 70.02 29.873 Q68.072 30.557 66.125 29.934 Q64.177 29.312 63.255 26.824 L48.498 -9.504 V24.934 Q48.498 27.187 46.971 28.71 Q45.442 30.234 43.155 30.234 Q40.87 30.234 39.345 28.686 Q37.82 27.14 37.82 24.895 V-9.182 Z M111.772 3.673 Q103.226 3.673 96.81 -1.637 Q90.395 -6.948 88.376 -15.28 H81.659 Q78.522 -15.28 76.134 -17.452 Q73.748 -19.623 73.748 -22.754 Q73.748 -28.943 79.325 -36.249 Q84.905 -43.557 89.634 -47.033 Q90.444 -53.874 94.918 -59.255 Q99.393 -64.634 106.204 -66.363 V-95.239 Q106.204 -97.574 107.796 -99.153 Q109.387 -100.733 111.735 -100.733 Q114.083 -100.733 115.616 -99.153 Q117.151 -97.574 117.151 -95.239 V-66.363 Q123.963 -64.673 128.358 -59.277 Q132.754 -53.882 133.599 -47.033 Q138.359 -43.509 143.983 -36.109 Q149.608 -28.711 149.608 -22.47 Q149.608 -19.29 147.21 -17.286 Q144.811 -15.28 141.658 -15.28 H134.658 Q132.677 -6.948 126.415 -1.637 Q120.152 3.673 111.772 3.673 Z M86.37 -25.689 H136.863 Q134.834 -28.932 132.989 -32.368 Q131.145 -35.806 128.029 -37.992 L123.476 -41.154 L122.806 -46.825 Q122.316 -50.997 119.08 -53.84 Q115.844 -56.683 111.617 -56.683 Q107.354 -56.683 104.132 -53.816 Q100.91 -50.949 100.551 -46.787 L99.88 -41.154 L95.287 -37.992 Q92.05 -35.806 90.216 -32.365 Q88.383 -28.925 86.37 -25.689 Z M24.083 -67.283 H62.397 L49.596 -89.747 H36.952 L24.083 -67.283 Z M111.696 -6.734 Q115.666 -6.734 118.806 -9.153 Q121.947 -11.571 123.605 -15.28 H99.79 Q101.447 -11.571 104.616 -9.153 Q107.784 -6.734 111.696 -6.734 Z"/></g><g id="Regular-L" transform="matrix(1 0 0 1 1378.56 1556)"><path d="M38.861 -9.914  24.188 26.368 Q23.381 28.625 21.527 29.028 Q19.672 29.431 17.899 28.786 Q16.125 28.141 15.238 26.529 Q14.351 24.916 15.158 22.659 L39.023 -36.197 V-56.837 H15.319 Q12.578 -56.837 11.207 -59.256 Q9.836 -61.675 11.126 -64.094 L28.703 -94.892 Q30.039 -97.19 32.227 -98.461 Q34.414 -99.73 37.087 -99.73 H50.471 Q53.145 -99.73 55.331 -98.461 Q57.519 -97.19 58.856 -94.892 L76.433 -64.094 Q77.722 -61.675 76.352 -59.256 Q74.981 -56.837 72.24 -56.837 H48.536 V-36.197 L72.24 22.659 Q73.046 24.916 72.159 26.609 Q71.273 28.303 69.499 28.948 Q67.725 29.593 65.951 29.028 Q64.177 28.464 63.371 26.206 L48.536 -10.236 V24.433 Q48.536 26.488 47.137 27.878 Q45.739 29.27 43.67 29.27 Q41.602 29.27 40.232 27.878 Q38.861 26.488 38.861 24.433 V-9.914 Z M110.693 2.825 Q102.394 2.825 96.105 -2.254 Q89.816 -7.334 87.72 -15.396 H80.464 Q77.587 -15.396 75.397 -17.413 Q73.207 -19.431 73.207 -22.33 Q73.207 -28.588 78.787 -35.975 Q84.364 -43.363 89.171 -46.84 Q89.978 -53.612 94.493 -58.853 Q99.008 -64.094 105.78 -65.706 V-94.892 Q105.78 -96.948 107.18 -98.34 Q108.578 -99.73 110.647 -99.73 Q112.714 -99.73 114.084 -98.34 Q115.455 -96.948 115.455 -94.892 V-65.706 Q122.228 -64.094 126.662 -58.853 Q131.096 -53.612 131.903 -46.84 Q136.74 -43.292 142.384 -35.794 Q148.028 -28.296 148.028 -22.007 Q148.028 -19.084 145.838 -17.239 Q143.648 -15.396 140.771 -15.396 H133.192 Q131.096 -7.334 124.969 -2.254 Q118.841 2.825 110.693 2.825 Z M84.172 -25.071 H136.901 Q134.644 -28.619 132.548 -32.327 Q130.451 -36.036 127.065 -38.455 L122.873 -41.357 L122.228 -46.517 Q121.744 -50.871 118.358 -53.854 Q114.971 -56.837 110.537 -56.837 Q106.103 -56.837 102.716 -53.854 Q99.33 -50.871 99.008 -46.517 L98.362 -41.357 L94.17 -38.455 Q90.623 -36.036 88.526 -32.327 Q86.43 -28.619 84.172 -25.071 Z M23.543 -66.512 H64.016 L50.471 -90.055 H37.107 L23.543 -66.512 Z M110.618 -6.85 Q114.649 -6.85 117.874 -9.269 Q121.099 -11.687 122.873 -15.396 H98.362 Q100.136 -11.687 103.389 -9.269 Q106.641 -6.85 110.618 -6.85 Z"/></g><g id="Light-L" transform="matrix(1 0 0 1 1082.77 1556)"><path d="M40.97 -16.054  24.621 23.825 Q24.063 25.524 22.612 25.864 Q21.161 26.206 19.853 25.685 Q18.544 25.165 17.844 23.955 Q17.142 22.746 17.825 21.046 L41.069 -36.012 V-57.086 H18.668 Q15.99 -57.086 14.65 -59.411 Q13.31 -61.736 14.648 -64.118 L30.625 -91.853 Q31.969 -94.043 34.04 -95.273 Q36.109 -96.505 38.639 -96.505 H50.72 Q53.248 -96.505 55.318 -95.273 Q57.387 -94.043 58.732 -91.853 L74.709 -64.118 Q76.047 -61.736 74.709 -59.411 Q73.369 -57.086 70.689 -57.086 H48.227 V-36.012 L71.371 21.046 Q71.992 22.746 71.322 24.004 Q70.652 25.263 69.375 25.784 Q68.097 26.305 66.696 25.834 Q65.293 25.363 64.674 23.725 L48.288 -16.315 V22.386 Q48.288 23.941 47.227 24.992 Q46.166 26.045 44.597 26.045 Q43.03 26.045 41.999 24.992 Q40.97 23.941 40.97 22.386 V-16.054 Z M109.79 1.77 Q101.836 1.77 95.981 -3.246 Q90.126 -8.264 88.465 -16.078 H81.518 Q78.738 -16.078 76.624 -18.023 Q74.51 -19.968 74.51 -22.764 Q74.51 -28.648 79.97 -35.669 Q85.432 -42.689 89.978 -45.91 Q90.711 -52.484 95.107 -57.576 Q99.504 -62.667 106.152 -63.784 V-92.846 Q106.152 -94.401 107.214 -95.452 Q108.275 -96.505 109.844 -96.505 Q111.411 -96.505 112.441 -95.452 Q113.47 -94.401 113.47 -92.846 V-63.784 Q120.057 -62.667 124.424 -57.581 Q128.792 -52.495 129.585 -45.931 Q134.197 -42.61 139.717 -35.53 Q145.236 -28.451 145.236 -22.504 Q145.236 -19.732 143.085 -17.905 Q140.934 -16.078 138.165 -16.078 H130.898 Q129.174 -8.264 123.387 -3.246 Q117.601 1.77 109.79 1.77 Z M82.188 -23.396 H137.211 Q135.698 -27.874 133.012 -32.049 Q130.327 -36.222 126.383 -39.076 L122.687 -41.667 L122.166 -46.145 Q121.62 -50.747 118.016 -53.854 Q114.413 -56.962 109.731 -56.962 Q105.048 -56.962 101.467 -53.885 Q97.887 -50.807 97.519 -46.208 L96.935 -41.667 L93.301 -39.137 Q89.134 -36.285 86.448 -32.079 Q83.763 -27.874 82.188 -23.396 Z M23.109 -64.403 H66.25 L51.835 -89.186 H37.536 L23.109 -64.403 Z M109.766 -5.61 Q114.339 -5.61 117.874 -8.617 Q121.408 -11.626 123.182 -16.078 H96.44 Q98.09 -11.626 101.618 -8.617 Q105.146 -5.61 109.766 -5.61 Z"/></g><g id="Thin-L" transform="matrix(1 0 0 1 787.282 1556)"><path d="M43.078 -22.193  25.055 21.282 Q24.745 22.423 23.697 22.702 Q22.649 22.981 21.806 22.585 Q20.963 22.188 20.448 21.382 Q19.934 20.575 20.492 19.434 L43.115 -35.825 V-57.334 H22.017 Q19.4 -57.334 18.091 -59.566 Q16.783 -61.799 18.17 -64.144 L32.548 -88.815 Q33.901 -90.895 35.852 -92.088 Q37.803 -93.28 40.188 -93.28 H50.968 Q53.353 -93.28 55.304 -92.088 Q57.255 -90.895 58.608 -88.815 L72.987 -64.144 Q74.373 -61.799 73.066 -59.566 Q71.756 -57.334 69.139 -57.334 H47.915 V-35.825 L70.503 19.434 Q70.937 20.575 70.486 21.399 Q70.032 22.225 69.25 22.622 Q68.47 23.018 67.44 22.639 Q66.411 22.262 65.975 21.245 L48.04 -22.391 V20.34 Q48.04 21.393 47.317 22.107 Q46.593 22.82 45.524 22.82 Q44.455 22.82 43.766 22.107 Q43.078 21.393 43.078 20.34 V-22.193 Z M108.889 0.716 Q101.278 0.716 95.857 -4.239 Q90.437 -9.195 89.208 -16.76 H82.573 Q79.891 -16.76 77.852 -18.634 Q75.812 -20.506 75.812 -23.198 Q75.812 -28.706 81.156 -35.361 Q86.499 -42.015 90.784 -44.979 Q91.445 -51.355 95.723 -56.297 Q99.999 -61.241 106.525 -61.86 V-90.8 Q106.525 -91.853 107.247 -92.567 Q107.971 -93.28 109.04 -93.28 Q110.11 -93.28 110.798 -92.567 Q111.485 -91.853 111.485 -90.8 V-61.86 Q117.887 -61.241 122.187 -56.31 Q126.488 -51.379 127.268 -45.023 Q131.654 -41.928 137.05 -35.265 Q142.445 -28.604 142.445 -22.999 Q142.445 -20.38 140.333 -18.571 Q138.22 -16.76 135.561 -16.76 H128.603 Q127.25 -9.195 121.805 -4.239 Q116.361 0.716 108.889 0.716 Z M80.203 -21.722 H137.522 Q136.753 -27.13 133.478 -31.77 Q130.203 -36.409 125.701 -39.695 L122.5 -41.978 L122.103 -45.773 Q121.495 -50.623 117.675 -53.854 Q113.855 -57.086 108.924 -57.086 Q103.993 -57.086 100.218 -53.914 Q96.442 -50.742 96.031 -45.897 L95.51 -41.978 L92.433 -39.819 Q87.646 -36.533 84.371 -31.831 Q81.096 -27.13 80.203 -21.722 Z M22.675 -62.296 H68.481 L53.2 -88.318 H37.965 L22.675 -62.296 Z M108.916 -4.37 Q114.028 -4.37 117.874 -7.966 Q121.72 -11.563 123.493 -16.76 H94.517 Q96.044 -11.563 99.848 -7.966 Q103.651 -4.37 108.916 -4.37 Z"/></g><g id="Ultralight-L" transform="matrix(1 0 0 1 491.205 1556)"><path d="M44.344 -25.877  25.316 19.756 Q25.155 20.563 24.349 20.804 Q23.543 21.046 22.978 20.724 Q22.414 20.401 22.011 19.837 Q21.608 19.273 22.091 18.466 L44.344 -35.714 V-57.482 H24.026 Q21.446 -57.482 20.156 -59.659 Q18.866 -61.836 20.282 -64.158 L33.701 -86.991 Q35.059 -89.007 36.939 -90.176 Q38.821 -91.345 41.119 -91.345 H51.116 Q53.414 -91.345 55.296 -90.176 Q57.176 -89.007 58.534 -86.991 L71.953 -64.158 Q73.369 -61.836 72.079 -59.659 Q70.789 -57.482 68.209 -57.482 H47.73 V-35.714 L69.983 18.466 Q70.305 19.273 69.983 19.837 Q69.66 20.401 69.176 20.724 Q68.692 21.046 67.886 20.724 Q67.08 20.401 66.758 19.756 L47.891 -26.039 V19.111 Q47.891 19.864 47.37 20.375 Q46.85 20.885 46.08 20.885 Q45.311 20.885 44.828 20.375 Q44.344 19.864 44.344 19.111 V-25.877 Z M108.347 0.084 Q100.943 0.084 95.782 -4.834 Q90.623 -9.752 89.655 -17.17 H83.205 Q80.583 -17.17 78.588 -19 Q76.594 -20.829 76.594 -23.459 Q76.594 -28.743 81.867 -35.177 Q87.139 -41.611 91.267 -44.421 Q91.885 -50.676 96.092 -55.531 Q100.297 -60.385 106.748 -60.707 V-89.571 Q106.748 -90.324 107.268 -90.835 Q107.789 -91.345 108.558 -91.345 Q109.328 -91.345 109.811 -90.835 Q110.295 -90.324 110.295 -89.571 V-60.707 Q116.584 -60.385 120.844 -55.547 Q125.104 -50.708 125.878 -44.476 Q130.129 -41.519 135.45 -35.107 Q140.771 -28.696 140.771 -23.297 Q140.771 -20.771 138.681 -18.97 Q136.593 -17.17 133.999 -17.17 H127.226 Q126.097 -9.752 120.857 -4.834 Q115.616 0.084 108.347 0.084 Z M79.013 -20.717 H137.708 Q137.385 -26.684 133.757 -31.602 Q130.129 -36.52 125.291 -40.067 L122.389 -42.164 L122.066 -45.55 Q121.421 -50.549 117.471 -53.854 Q113.52 -57.16 108.441 -57.16 Q103.361 -57.16 99.469 -53.932 Q95.576 -50.704 95.138 -45.711 L94.654 -42.164 L91.913 -40.229 Q86.752 -36.681 83.124 -31.682 Q79.496 -26.684 79.013 -20.717 Z M22.414 -61.03 H69.821 L54.019 -87.797 H38.223 L22.414 -61.03 Z M108.405 -3.625 Q113.843 -3.625 117.874 -7.576 Q121.905 -11.526 123.679 -17.17 H93.364 Q94.815 -11.526 98.785 -7.576 Q102.755 -3.625 108.405 -3.625 Z"/></g><g id="Bold-M" transform="matrix(1 0 0 1 2281.8 1126)"><path d="M25.375 -5.98  17.25 14.52 Q15.829 17.77 13.165 18.583 Q10.5 19.395 8 18.395 Q5.5 17.395 4 14.958 Q2.5 12.52 3.875 9.145 L25.5 -45.48 V-47.98 H11.125 Q6.562 -47.98 4.281 -51.855 Q2 -55.73 4.25 -59.73 L16.375 -81.48 Q18.5 -85.23 22.108 -87.355 Q25.715 -89.48 30.125 -89.48 H35.125 Q39.535 -89.48 43.142 -87.355 Q46.75 -85.23 48.875 -81.48 L61 -59.73 Q63.25 -55.73 60.938 -51.855 Q58.625 -47.98 54.125 -47.98 H39.75 V-45.48 L61.125 9.145 Q62.5 12.52 61 14.958 Q59.5 17.395 57 18.395 Q54.5 19.395 51.812 18.52 Q49.125 17.645 47.75 14.395 L39.75 -5.98 V11.895 Q39.75 14.924 37.708 16.971 Q35.665 19.02 32.645 19.02 Q29.625 19.02 27.5 16.895 Q25.375 14.77 25.375 11.77 V-5.98 Z M89.625 -1.48 Q81.75 -1.48 75.812 -6.667 Q69.875 -11.855 68.375 -19.73 Q64.41 -19.73 61.392 -22.355 Q58.375 -24.98 58.375 -28.98 Q58.375 -33.182 62.375 -38.144 Q66.375 -43.105 69.625 -45.48 Q70.25 -50.98 73.438 -55.355 Q76.625 -59.73 81.75 -61.855 V-81.73 Q81.75 -85.024 84.062 -87.251 Q86.375 -89.48 89.656 -89.48 Q92.936 -89.48 95.156 -87.251 Q97.375 -85.024 97.375 -81.73 V-61.98 Q102.5 -59.855 105.688 -55.417 Q108.875 -50.98 109.5 -45.48 Q112.75 -43.105 116.812 -38.042 Q120.875 -32.98 120.875 -28.73 Q120.875 -24.749 117.782 -22.24 Q114.69 -19.73 110.625 -19.73 Q109.25 -11.855 103.375 -6.667 Q97.5 -1.48 89.625 -1.48 Z M77.125 -32.855 H102 Q101.726 -33.349 101.426 -33.789 Q101.125 -34.23 100.625 -34.48 L95.375 -38.23 L94.75 -44.73 Q94.5 -46.855 93.064 -48.23 Q91.627 -49.605 89.625 -49.605 Q87.558 -49.605 86.029 -48.167 Q84.5 -46.73 84.25 -44.605 L83.625 -38.23 L78.375 -34.48 Q77.875 -34.23 77.603 -33.789 Q77.33 -33.349 77.125 -32.855 Z M24.5 -63.605 H40.75 L35.296 -73.855 H30 L24.5 -63.605 Z M89.619 -14.73 Q92 -14.73 93.938 -16.042 Q95.875 -17.355 96.625 -19.73 H82.5 Q83.25 -17.355 85.188 -16.042 Q87.125 -14.73 89.619 -14.73 Z"/></g><g id="Semibold-M" transform="matrix(1 0 0 1 1985.97 1126)"><path d="M27.331 -7.392  19.098 13.27 Q17.86 16.085 15.539 16.789 Q13.217 17.493 11.044 16.656 Q8.869 15.819 7.586 13.68 Q6.304 11.541 7.516 8.601 L27.456 -41.404 V-48.959 H12.213 Q8.383 -48.959 6.469 -52.235 Q4.554 -55.512 6.424 -58.86 L18.875 -80.936 Q20.674 -84.089 23.691 -85.86 Q26.709 -87.632 30.396 -87.632 H36.919 Q40.606 -87.632 43.624 -85.86 Q46.641 -84.089 48.44 -80.936 L60.891 -58.86 Q62.761 -55.512 60.829 -52.235 Q58.896 -48.959 55.104 -48.959 H39.859 V-41.404 L59.549 8.601 Q60.761 11.541 59.479 13.68 Q58.196 15.819 56.021 16.656 Q53.847 17.493 51.514 16.754 Q49.179 16.015 47.968 13.2 L39.804 -7.392 V10.971 Q39.804 13.606 38.025 15.39 Q36.245 17.173 33.614 17.173 Q30.984 17.173 29.157 15.346 Q27.331 13.52 27.331 10.9 V-7.392 Z M87.614 -3.11 Q80.174 -3.11 74.481 -7.836 Q68.787 -12.561 67.18 -19.947 H66.147 Q62.655 -19.947 59.999 -22.301 Q57.343 -24.654 57.343 -28.165 Q57.343 -32.496 61.37 -37.611 Q65.396 -42.725 68.755 -45.154 Q69.38 -50.491 72.65 -54.621 Q75.919 -58.751 80.989 -60.66 V-81.077 Q80.989 -83.864 82.921 -85.747 Q84.854 -87.632 87.631 -87.632 Q90.41 -87.632 92.289 -85.747 Q94.169 -83.864 94.169 -81.077 V-60.73 Q99.185 -58.822 102.454 -54.656 Q105.722 -50.491 106.347 -45.154 Q109.706 -42.725 113.796 -37.472 Q117.886 -32.219 117.886 -27.86 Q117.886 -24.36 115.188 -22.154 Q112.487 -19.947 108.94 -19.947 H107.854 Q106.315 -12.561 100.657 -7.836 Q95 -3.11 87.614 -3.11 Z M72.995 -31.714 H102.109 Q101.411 -32.754 100.642 -33.682 Q99.875 -34.61 98.831 -35.35 L94.234 -38.61 L93.662 -44.186 Q93.412 -46.637 91.705 -48.257 Q89.996 -49.876 87.614 -49.876 Q85.195 -49.876 83.407 -48.221 Q81.62 -46.567 81.37 -44.116 L80.799 -38.61 L76.255 -35.35 Q75.213 -34.61 74.406 -33.682 Q73.6 -32.754 72.995 -31.714 Z M23.521 -62.137 H43.794 L36.961 -74.452 H30.326 L23.521 -62.137 Z M87.611 -14.947 Q90.097 -14.947 92.171 -16.26 Q94.245 -17.572 95.266 -19.947 H79.838 Q80.859 -17.572 82.933 -16.26 Q85.005 -14.947 87.611 -14.947 Z"/></g><g id="Medium-M" transform="matrix(1 0 0 1 1689.91 1126)"><path d="M28.799 -8.452  20.484 12.333 Q19.383 14.821 17.319 15.444 Q15.255 16.066 13.326 15.351 Q11.396 14.636 10.277 12.723 Q9.158 10.808 10.248 8.194 L28.924 -38.347 V-49.692 H13.027 Q9.749 -49.692 8.109 -52.521 Q6.47 -55.35 8.054 -58.209 L20.75 -80.529 Q22.304 -83.232 24.879 -84.74 Q27.454 -86.246 30.6 -86.246 H38.264 Q41.41 -86.246 43.985 -84.74 Q46.56 -83.232 48.114 -80.529 L60.81 -58.209 Q62.394 -55.35 60.748 -52.521 Q59.1 -49.692 55.837 -49.692 H39.94 V-38.347 L58.366 8.194 Q59.456 10.808 58.337 12.723 Q57.218 14.636 55.288 15.351 Q53.359 16.066 51.29 15.429 Q49.22 14.791 48.13 12.303 L39.845 -8.452 V10.279 Q39.845 12.619 38.263 14.203 Q36.681 15.786 34.341 15.786 Q32.002 15.786 30.401 14.185 Q28.799 12.583 28.799 10.249 V-8.452 Z M86.106 -4.334 Q78.991 -4.334 73.483 -8.712 Q67.972 -13.091 66.282 -20.11 H64.475 Q61.34 -20.11 58.954 -22.26 Q56.568 -24.409 56.568 -27.554 Q56.568 -31.982 60.615 -37.211 Q64.662 -42.439 68.104 -44.909 Q68.729 -50.124 72.059 -54.071 Q75.389 -58.017 80.419 -59.762 V-80.589 Q80.419 -82.994 82.065 -84.62 Q83.713 -86.246 86.114 -86.246 Q88.515 -86.246 90.139 -84.62 Q91.764 -82.994 91.764 -80.589 V-59.792 Q96.699 -58.047 100.029 -54.086 Q103.359 -50.124 103.984 -44.909 Q107.424 -42.439 111.534 -37.044 Q115.644 -31.649 115.644 -27.209 Q115.644 -24.069 113.24 -22.09 Q110.836 -20.11 107.676 -20.11 H105.775 Q104.114 -13.091 98.62 -8.712 Q93.125 -4.334 86.106 -4.334 Z M69.896 -30.857 H102.19 Q101.174 -32.307 100.056 -33.601 Q98.938 -34.896 97.486 -36.001 L93.377 -38.896 L92.847 -43.779 Q92.597 -46.475 90.685 -48.277 Q88.772 -50.08 86.106 -50.08 Q83.424 -50.08 81.441 -48.262 Q79.459 -46.445 79.209 -43.749 L78.68 -38.896 L74.666 -36.001 Q73.215 -34.896 72.009 -33.601 Q70.801 -32.307 69.896 -30.857 Z M22.788 -61.037 H46.076 L38.209 -74.901 H30.571 L22.788 -61.037 Z M86.105 -15.11 Q88.671 -15.11 90.846 -16.422 Q93.021 -17.735 94.248 -20.11 H77.84 Q79.065 -17.735 81.24 -16.422 Q83.416 -15.11 86.105 -15.11 Z"/></g><g id="Regular-M" transform="matrix(1 0 0 1 1394.06 1126)"><path d="M29.875 -9.23  21.5 11.645 Q20.5 13.895 18.625 14.458 Q16.75 15.02 15 14.395 Q13.25 13.77 12.25 12.02 Q11.25 10.27 12.25 7.895 L30 -36.105 V-50.23 H13.625 Q10.75 -50.23 9.312 -52.73 Q7.875 -55.23 9.25 -57.73 L22.125 -80.23 Q23.5 -82.605 25.75 -83.917 Q28 -85.23 30.75 -85.23 H39.25 Q42 -85.23 44.25 -83.917 Q46.5 -82.605 47.875 -80.23 L60.75 -57.73 Q62.125 -55.23 60.688 -52.73 Q59.25 -50.23 56.375 -50.23 H40 V-36.105 L57.5 7.895 Q58.5 10.27 57.5 12.02 Q56.5 13.77 54.75 14.395 Q53 15.02 51.125 14.458 Q49.25 13.895 48.25 11.645 L39.875 -9.23 V9.77 Q39.875 11.895 38.438 13.333 Q37 14.77 34.875 14.77 Q32.75 14.77 31.312 13.333 Q29.875 11.895 29.875 9.77 V-9.23 Z M85 -5.23 Q78.125 -5.23 72.75 -9.355 Q67.375 -13.48 65.625 -20.23 H63.25 Q60.375 -20.23 58.188 -22.23 Q56 -24.23 56 -27.105 Q56 -31.605 60.062 -36.917 Q64.125 -42.23 67.625 -44.73 Q68.25 -49.855 71.625 -53.667 Q75 -57.48 80 -59.105 V-80.23 Q80 -82.355 81.438 -83.792 Q82.875 -85.23 85 -85.23 Q87.125 -85.23 88.562 -83.792 Q90 -82.355 90 -80.23 V-59.105 Q94.875 -57.48 98.25 -53.667 Q101.625 -49.855 102.25 -44.73 Q105.75 -42.23 109.875 -36.73 Q114 -31.23 114 -26.73 Q114 -23.855 111.812 -22.042 Q109.625 -20.23 106.75 -20.23 H104.25 Q102.5 -13.48 97.125 -9.355 Q91.75 -5.23 85 -5.23 Z M67.625 -30.23 H102.25 Q101 -31.98 99.625 -33.542 Q98.25 -35.105 96.5 -36.48 L92.75 -39.105 L92.25 -43.48 Q92 -46.355 89.938 -48.292 Q87.875 -50.23 85 -50.23 Q82.125 -50.23 80 -48.292 Q77.875 -46.355 77.625 -43.48 L77.125 -39.105 L73.5 -36.48 Q71.75 -35.105 70.25 -33.542 Q68.75 -31.98 67.625 -30.23 Z M22.25 -60.23 H47.75 L39.125 -75.23 H30.75 L22.25 -60.23 Z M85 -15.23 Q87.625 -15.23 89.875 -16.542 Q92.125 -17.855 93.5 -20.23 H76.375 Q77.75 -17.855 80 -16.542 Q82.25 -15.23 85 -15.23 Z"/></g><g id="Light-M" transform="matrix(1 0 0 1 1098.18 1126)"><path d="M31.558 -15.721  21.115 9.914 Q20.404 11.588 18.961 12.03 Q17.519 12.471 16.203 11.991 Q14.885 11.51 14.149 10.218 Q13.414 8.924 14.174 7.126 L31.635 -35.912 V-50.904 H15.74 Q13.13 -50.904 11.825 -53.162 Q10.52 -55.422 11.787 -57.701 L23.664 -78.21 Q24.9 -80.357 26.925 -81.544 Q28.949 -82.73 31.424 -82.73 H39.394 Q41.869 -82.73 43.892 -81.544 Q45.916 -80.357 47.154 -78.21 L59.03 -57.701 Q60.297 -55.422 58.992 -53.162 Q57.688 -50.904 55.076 -50.904 H39.135 V-35.912 L56.443 7.126 Q57.154 8.876 56.443 10.193 Q55.731 11.51 54.414 11.991 Q53.096 12.471 51.654 12.03 Q50.211 11.588 49.5 9.914 L39.057 -15.721 V8.52 Q39.057 10.114 37.979 11.191 Q36.9 12.27 35.306 12.27 Q33.711 12.27 32.635 11.191 Q31.558 10.114 31.558 8.52 V-15.721 Z M84.516 -6.191 Q78.029 -6.191 73.135 -10.22 Q68.24 -14.249 66.828 -20.662 H63.828 Q61.2 -20.662 59.201 -22.481 Q57.203 -24.299 57.203 -26.912 Q57.203 -31.22 61.24 -36.365 Q65.279 -41.509 68.635 -43.865 Q69.211 -48.894 72.539 -52.634 Q75.865 -56.374 80.817 -57.566 V-78.98 Q80.817 -80.574 81.896 -81.651 Q82.975 -82.73 84.569 -82.73 Q86.164 -82.73 87.24 -81.651 Q88.317 -80.574 88.317 -78.98 V-57.566 Q93.144 -56.374 96.498 -52.634 Q99.85 -48.892 100.471 -43.865 Q103.826 -41.509 107.927 -36.23 Q112.029 -30.952 112.029 -26.634 Q112.029 -24.047 110.015 -22.355 Q108.001 -20.662 105.356 -20.662 H102.183 Q100.721 -14.249 95.802 -10.22 Q90.885 -6.191 84.516 -6.191 Z M65.461 -28.162 H103.549 Q102.683 -30.922 100.802 -33.182 Q98.924 -35.441 96.5 -37.297 L93.279 -39.586 L92.875 -43.336 Q92.529 -46.499 90.154 -48.652 Q87.779 -50.807 84.567 -50.807 Q81.356 -50.807 78.935 -48.676 Q76.515 -46.545 76.231 -43.384 L75.779 -39.586 L72.683 -37.345 Q70.211 -35.49 68.23 -33.206 Q66.25 -30.922 65.461 -28.162 Z M20.856 -58.402 H49.961 L40.182 -75.23 H30.558 L20.856 -58.402 Z M84.532 -13.74 Q87.721 -13.74 90.284 -15.652 Q92.846 -17.566 94.221 -20.662 H74.836 Q76.115 -17.566 78.654 -15.652 Q81.192 -13.74 84.532 -13.74 Z"/></g><g id="Thin-M" transform="matrix(1 0 0 1 802.565 1126)"><path d="M33.24 -22.211  20.731 8.184 Q20.308 9.28 19.297 9.601 Q18.289 9.924 17.404 9.588 Q16.519 9.251 16.047 8.414 Q15.578 7.578 16.096 6.356 L33.269 -35.72 V-51.576 H17.856 Q15.51 -51.576 14.336 -53.595 Q13.164 -55.615 14.325 -57.672 L25.203 -76.191 Q26.301 -78.11 28.1 -79.17 Q29.898 -80.23 32.096 -80.23 H39.539 Q41.736 -80.23 43.535 -79.17 Q45.334 -78.11 46.432 -76.191 L57.31 -57.672 Q58.471 -55.615 57.297 -53.595 Q56.125 -51.576 53.779 -51.576 H38.269 V-35.72 L55.385 6.356 Q55.807 7.481 55.385 8.366 Q54.961 9.251 54.078 9.588 Q53.193 9.924 52.182 9.601 Q51.172 9.28 50.75 8.184 L38.24 -22.211 V7.27 Q38.24 8.333 37.521 9.051 Q36.801 9.77 35.737 9.77 Q34.672 9.77 33.956 9.051 Q33.24 8.333 33.24 7.27 V-22.211 Z M84.031 -7.152 Q77.933 -7.152 73.519 -11.086 Q69.106 -15.019 68.029 -21.095 H64.404 Q62.025 -21.095 60.214 -22.731 Q58.404 -24.367 58.404 -26.72 Q58.404 -30.836 62.419 -35.811 Q66.433 -40.787 69.644 -42.999 Q70.172 -47.932 73.453 -51.6 Q76.731 -55.269 81.635 -56.027 V-77.73 Q81.635 -78.792 82.354 -79.511 Q83.074 -80.23 84.138 -80.23 Q85.203 -80.23 85.919 -79.511 Q86.635 -78.792 86.635 -77.73 V-56.027 Q91.414 -55.269 94.745 -51.6 Q98.075 -47.931 98.692 -42.999 Q101.904 -40.787 105.981 -35.731 Q110.058 -30.675 110.058 -26.537 Q110.058 -24.24 108.219 -22.667 Q106.379 -21.095 103.961 -21.095 H100.115 Q98.942 -15.019 94.481 -11.086 Q90.019 -7.152 84.031 -7.152 Z M63.297 -26.095 H104.846 Q104.365 -29.865 101.981 -32.821 Q99.596 -35.777 96.5 -38.115 L93.808 -40.066 L93.5 -43.191 Q93.058 -46.644 90.37 -49.014 Q87.683 -51.384 84.135 -51.384 Q80.586 -51.384 77.871 -49.06 Q75.156 -46.736 74.836 -43.287 L74.433 -40.066 L71.865 -38.211 Q68.672 -35.874 66.211 -32.87 Q63.75 -29.865 63.297 -26.095 Z M19.461 -56.576 H52.172 L41.24 -75.23 H30.365 L19.461 -56.576 Z M84.065 -12.249 Q87.817 -12.249 90.692 -14.764 Q93.567 -17.277 94.942 -21.095 H73.297 Q74.481 -17.277 77.308 -14.764 Q80.135 -12.249 84.065 -12.249 Z"/></g><g id="Ultralight-M" transform="matrix(1 0 0 1 506.415 1126)"><path d="M34.25 -26.105  20.5 7.145 Q20.25 7.895 19.5 8.145 Q18.75 8.395 18.125 8.145 Q17.5 7.895 17.188 7.333 Q16.875 6.77 17.25 5.895 L34.25 -35.605 V-51.98 H19.125 Q16.938 -51.98 15.844 -53.855 Q14.75 -55.73 15.848 -57.655 L26.125 -74.98 Q27.141 -76.761 28.804 -77.746 Q30.468 -78.73 32.5 -78.73 H39.625 Q41.657 -78.73 43.321 -77.746 Q44.984 -76.761 46 -74.98 L56.278 -57.655 Q57.375 -55.73 56.281 -53.855 Q55.188 -51.98 53 -51.98 H37.75 V-35.605 L54.75 5.895 Q55 6.645 54.75 7.27 Q54.5 7.895 53.875 8.145 Q53.25 8.395 52.5 8.145 Q51.75 7.895 51.5 7.145 L37.75 -26.105 V6.52 Q37.75 7.264 37.245 7.768 Q36.741 8.27 35.995 8.27 Q35.25 8.27 34.75 7.768 Q34.25 7.264 34.25 6.52 V-26.105 Z M83.741 -7.73 Q77.875 -7.73 73.75 -11.605 Q69.625 -15.48 68.75 -21.355 H64.75 Q62.52 -21.355 60.822 -22.882 Q59.125 -24.41 59.125 -26.605 Q59.125 -30.605 63.125 -35.48 Q67.125 -40.355 70.25 -42.48 Q70.75 -47.355 74 -50.98 Q77.25 -54.605 82.125 -55.105 V-76.98 Q82.125 -77.724 82.63 -78.226 Q83.134 -78.73 83.88 -78.73 Q84.625 -78.73 85.125 -78.226 Q85.625 -77.724 85.625 -76.98 V-55.105 Q90.375 -54.605 93.692 -50.98 Q97.01 -47.354 97.625 -42.48 Q100.75 -40.355 104.812 -35.431 Q108.875 -30.509 108.875 -26.48 Q108.875 -24.355 107.14 -22.855 Q105.405 -21.355 103.125 -21.355 H98.875 Q97.875 -15.48 93.688 -11.605 Q89.5 -7.73 83.741 -7.73 Z M62 -24.855 H105.625 Q105.375 -29.23 102.688 -32.605 Q100 -35.98 96.5 -38.605 L94.125 -40.355 L93.875 -43.105 Q93.375 -46.73 90.5 -49.23 Q87.625 -51.73 83.875 -51.73 Q80.125 -51.73 77.233 -49.29 Q74.34 -46.85 74 -43.23 L73.625 -40.355 L71.375 -38.73 Q67.75 -36.105 65 -32.667 Q62.25 -29.23 62 -24.855 Z M18.625 -55.48 H53.5 L41.875 -75.23 H30.25 L18.625 -55.48 Z M83.785 -11.355 Q87.875 -11.355 90.938 -14.23 Q94 -17.105 95.375 -21.355 H72.375 Q73.5 -17.105 76.5 -14.23 Q79.5 -11.355 83.785 -11.355 Z"/></g><g id="Bold-S" transform="matrix(1 0 0 1 2294.23 696)"><path d="M21.204 -14.223  14.498 2.741 Q13.467 5.063 11.536 5.677 Q9.604 6.291 7.791 5.502 Q6.016 4.713 4.882 3.037 Q3.748 1.36 4.734 -1.106 L21.303 -43.219 V-42.923 H8.482 Q5.128 -42.923 3.452 -45.684 Q1.775 -48.446 3.353 -51.404 L12.427 -70.143 Q13.906 -73.003 16.703 -74.729 Q19.5 -76.455 22.782 -76.455 H30.278 Q33.56 -76.455 36.357 -74.729 Q39.154 -73.003 40.634 -70.143 L49.707 -51.404 Q51.285 -48.446 49.584 -45.684 Q47.882 -42.923 44.579 -42.923 H31.659 V-43.219 L48.129 -1.204 Q49.115 1.261 48.03 2.987 Q46.946 4.713 45.072 5.502 Q43.198 6.291 41.275 5.699 Q39.351 5.108 38.365 2.642 L31.757 -14.223 V0.768 Q31.757 2.99 30.265 4.492 Q28.773 5.995 26.567 5.995 Q24.36 5.995 22.782 4.432 Q21.204 2.869 21.204 0.67 V-14.223 Z M72.285 -12.152 Q66.868 -12.152 63.12 -15.998 Q59.372 -19.844 59.076 -25.367 H57.203 Q54.309 -25.367 52.107 -27.265 Q49.904 -29.163 49.904 -32.07 Q49.904 -34.995 52.814 -38.515 Q55.723 -42.035 57.869 -43.715 Q58.287 -47.657 60.556 -50.862 Q62.824 -54.067 66.473 -55.547 V-70.735 Q66.473 -73.166 68.178 -74.81 Q69.884 -76.455 72.296 -76.455 Q74.707 -76.455 76.36 -74.81 Q78.012 -73.166 78.012 -70.735 V-55.645 Q81.662 -54.166 83.881 -50.911 Q86.1 -47.657 86.548 -43.725 Q88.861 -42.049 91.771 -38.492 Q94.68 -34.934 94.68 -32.002 Q94.68 -29.13 92.419 -27.249 Q90.157 -25.367 87.184 -25.367 H85.311 Q85.113 -19.844 81.415 -15.998 Q77.716 -12.152 72.285 -12.152 Z M63.81 -34.934 H80.774 Q80.657 -35.225 80.469 -35.424 Q80.281 -35.624 80.075 -35.72 L76.336 -38.485 L75.843 -43.317 Q75.547 -44.698 74.561 -45.635 Q73.576 -46.572 72.28 -46.572 Q70.932 -46.572 69.935 -45.586 Q68.939 -44.599 68.643 -43.219 L68.183 -38.497 L64.285 -35.724 Q64.008 -35.624 63.936 -35.404 Q63.865 -35.182 63.81 -34.934 Z M19.429 -55.349 H33.532 L29.821 -63.93 H23.177 L19.429 -55.349 Z M72.276 -21.817 Q73.673 -21.817 74.659 -22.803 Q75.645 -23.789 75.547 -25.367 H68.939 Q68.84 -23.789 69.827 -22.803 Q70.813 -21.817 72.276 -21.817 Z"/></g><g id="Semibold-S" transform="matrix(1 0 0 1 1998.1 696)"><path d="M22.748 -15.337  15.956 1.754 Q15.07 3.734 13.409 4.262 Q11.748 4.79 10.193 4.13 Q8.674 3.469 7.711 2.029 Q6.749 0.588 7.607 -1.535 L22.846 -40.002 V-43.695 H9.34 Q6.564 -43.695 5.178 -45.984 Q3.79 -48.274 5.068 -50.718 L14.399 -69.714 Q15.621 -72.103 17.953 -73.55 Q20.284 -74.998 22.996 -74.998 H31.693 Q34.405 -74.998 36.737 -73.55 Q39.068 -72.103 40.29 -69.714 L49.621 -50.718 Q50.899 -48.274 49.498 -45.984 Q48.096 -43.695 45.351 -43.695 H31.744 V-40.002 L46.885 -1.633 Q47.743 0.489 46.83 1.979 Q45.917 3.469 44.299 4.13 Q42.683 4.79 41.039 4.306 Q39.394 3.822 38.537 1.699 L31.8 -15.337 V0.039 Q31.8 1.951 30.516 3.245 Q29.23 4.538 27.332 4.538 Q25.432 4.538 24.09 3.21 Q22.748 1.883 22.748 -0.017 V-15.337 Z M70.698 -13.438 Q65.624 -13.438 62.07 -16.92 Q58.514 -20.402 58.134 -25.539 H55.445 Q52.924 -25.539 51.007 -27.223 Q49.09 -28.906 49.09 -31.426 Q49.09 -34.454 52.021 -38.095 Q54.951 -41.735 57.183 -43.457 Q57.601 -47.271 59.934 -50.283 Q62.267 -53.295 65.873 -54.604 V-70.22 Q65.873 -72.251 67.278 -73.624 Q68.683 -74.998 70.698 -74.998 Q72.714 -74.998 74.098 -73.624 Q75.483 -72.251 75.483 -70.22 V-54.659 Q79.046 -53.351 81.329 -50.311 Q83.612 -47.271 84.061 -43.467 Q86.46 -41.749 89.391 -38.042 Q92.322 -34.333 92.322 -31.317 Q92.322 -28.823 90.371 -27.181 Q88.419 -25.539 85.855 -25.539 H83.124 Q82.798 -20.402 79.271 -16.92 Q75.744 -13.438 70.698 -13.438 Z M60.552 -34.034 H80.86 Q80.408 -34.756 79.851 -35.34 Q79.294 -35.924 78.659 -36.406 L75.435 -38.784 L74.985 -42.888 Q74.689 -44.526 73.489 -45.657 Q72.289 -46.786 70.693 -46.786 Q69.068 -46.786 67.868 -45.628 Q66.667 -44.471 66.371 -42.833 L65.953 -38.798 L62.612 -36.411 Q61.907 -35.924 61.414 -35.319 Q60.922 -34.712 60.552 -34.034 Z M18.657 -54.192 H35.934 L31.135 -64.401 H23.434 L18.657 -54.192 Z M70.691 -21.989 Q72.172 -21.989 73.266 -22.975 Q74.359 -23.961 74.475 -25.539 H66.838 Q66.954 -23.961 68.047 -22.975 Q69.14 -21.989 70.691 -21.989 Z"/></g><g id="Medium-S" transform="matrix(1 0 0 1 1701.85 696)"><path d="M23.906 -16.174  17.049 1.015 Q16.272 2.737 14.814 3.2 Q13.357 3.665 11.994 3.101 Q10.668 2.536 9.835 1.273 Q9.001 0.009 9.762 -1.856 L24.004 -37.591 V-44.274 H9.983 Q7.642 -44.274 6.472 -46.21 Q5.302 -48.146 6.354 -50.204 L15.879 -69.393 Q16.907 -71.427 18.89 -72.666 Q20.872 -73.904 23.157 -73.904 H32.754 Q35.039 -73.904 37.022 -72.666 Q39.004 -71.427 40.033 -69.393 L49.557 -50.204 Q50.609 -48.146 49.434 -46.21 Q48.257 -44.274 45.93 -44.274 H31.809 V-37.591 L45.952 -1.955 Q46.714 -0.09 45.93 1.224 Q45.145 2.536 43.72 3.101 Q42.297 3.665 40.862 3.26 Q39.426 2.856 38.665 0.991 L31.832 -16.174 V-0.507 Q31.832 1.172 30.703 2.308 Q29.575 3.444 27.905 3.444 Q26.236 3.444 25.071 2.294 Q23.906 1.143 23.906 -0.531 V-16.174 Z M69.508 -14.403 Q64.691 -14.403 61.282 -17.612 Q57.871 -20.82 57.425 -25.667 H54.125 Q51.887 -25.667 50.182 -27.19 Q48.478 -28.713 48.478 -30.944 Q48.478 -34.048 51.425 -37.779 Q54.372 -41.509 56.668 -43.265 Q57.087 -46.981 59.468 -49.849 Q61.849 -52.716 65.423 -53.896 V-69.835 Q65.423 -71.564 66.602 -72.734 Q67.782 -73.904 69.501 -73.904 Q71.219 -73.904 72.402 -72.734 Q73.585 -71.564 73.585 -69.835 V-53.919 Q77.084 -52.74 79.416 -49.861 Q81.747 -46.981 82.196 -43.274 Q84.659 -41.523 87.606 -37.704 Q90.553 -33.884 90.553 -30.802 Q90.553 -28.594 88.834 -27.131 Q87.116 -25.667 84.858 -25.667 H81.484 Q81.061 -20.82 77.663 -17.612 Q74.265 -14.403 69.508 -14.403 Z M58.107 -33.358 H80.924 Q80.221 -34.404 79.388 -35.276 Q78.555 -36.15 77.598 -36.92 L74.76 -39.01 L74.342 -42.567 Q74.046 -44.398 72.685 -45.672 Q71.324 -46.947 69.503 -46.947 Q67.671 -46.947 66.316 -45.661 Q64.961 -44.375 64.665 -42.543 L64.282 -39.023 L61.358 -36.925 Q60.331 -36.15 59.522 -35.255 Q58.713 -34.36 58.107 -33.358 Z M18.078 -53.324 H37.735 L32.119 -64.755 H23.628 L18.078 -53.324 Z M69.503 -22.117 Q71.046 -22.117 72.22 -23.103 Q73.394 -24.089 73.671 -25.667 H65.262 Q65.538 -24.089 66.712 -23.103 Q67.887 -22.117 69.503 -22.117 Z"/></g><g id="Regular-S" transform="matrix(1 0 0 1 1405.73 696)"><path d="M24.755 -16.787  17.851 0.472 Q17.153 2.006 15.844 2.422 Q14.535 2.839 13.314 2.346 Q12.131 1.853 11.391 0.719 Q10.652 -0.415 11.342 -2.092 L24.854 -35.822 V-44.698 H10.454 Q8.432 -44.698 7.422 -46.375 Q6.411 -48.051 7.298 -49.826 L16.963 -69.157 Q17.851 -70.932 19.577 -72.017 Q21.303 -73.102 23.276 -73.102 H33.532 Q35.505 -73.102 37.231 -72.017 Q38.957 -70.932 39.845 -69.157 L49.51 -49.826 Q50.397 -48.051 49.386 -46.375 Q48.376 -44.698 46.354 -44.698 H31.856 V-35.822 L45.269 -2.191 Q45.959 -0.514 45.269 0.67 Q44.579 1.853 43.296 2.346 Q42.014 2.839 40.732 2.494 Q39.45 2.149 38.76 0.472 L31.856 -16.787 V-0.908 Q31.856 0.6 30.841 1.621 Q29.826 2.642 28.326 2.642 Q26.826 2.642 25.79 1.621 Q24.755 0.6 24.755 -0.908 V-16.787 Z M68.636 -15.11 Q64.008 -15.11 60.704 -18.119 Q57.4 -21.127 56.907 -25.762 H53.159 Q51.125 -25.762 49.578 -27.166 Q48.03 -28.571 48.03 -30.591 Q48.03 -33.751 50.989 -37.548 Q53.948 -41.345 56.291 -43.123 Q56.709 -46.769 59.126 -49.531 Q61.542 -52.292 65.093 -53.377 V-69.551 Q65.093 -71.06 66.107 -72.081 Q67.122 -73.102 68.622 -73.102 Q70.122 -73.102 71.158 -72.081 Q72.194 -71.06 72.194 -69.551 V-53.377 Q75.645 -52.292 78.012 -49.531 Q80.379 -46.769 80.828 -43.133 Q83.338 -41.359 86.297 -37.456 Q89.256 -33.553 89.256 -30.424 Q89.256 -28.425 87.708 -27.093 Q86.161 -25.762 84.127 -25.762 H80.281 Q79.788 -21.127 76.484 -18.119 Q73.18 -15.11 68.636 -15.11 Z M56.315 -32.863 H80.971 Q80.084 -34.145 79.048 -35.23 Q78.012 -36.315 76.82 -37.298 L74.265 -39.175 L73.87 -42.331 Q73.574 -44.303 72.095 -45.684 Q70.615 -47.065 68.631 -47.065 Q66.646 -47.065 65.179 -45.684 Q63.712 -44.303 63.416 -42.331 L63.055 -39.188 L60.438 -37.302 Q59.175 -36.315 58.135 -35.208 Q57.095 -34.102 56.315 -32.863 Z M17.654 -52.687 H39.056 L32.842 -65.015 H23.769 L17.654 -52.687 Z M68.631 -22.211 Q70.221 -22.211 71.454 -23.198 Q72.687 -24.184 73.081 -25.762 H64.106 Q64.501 -24.184 65.734 -23.198 Q66.966 -22.211 68.631 -22.211 Z"/></g><g id="Light-S" transform="matrix(1 0 0 1 1109.75 696)"><path d="M26.082 -21.909  17.547 -0.894 Q17.077 0.184 16.11 0.507 Q15.143 0.828 14.263 0.45 Q13.421 0.07 12.889 -0.703 Q12.359 -1.478 12.86 -2.699 L26.144 -35.67 V-45.23 H12.123 Q10.31 -45.23 9.404 -46.716 Q8.498 -48.203 9.3 -49.804 L18.178 -67.563 Q18.956 -69.159 20.504 -70.144 Q22.052 -71.129 23.807 -71.129 H33.646 Q35.401 -71.129 36.949 -70.144 Q38.496 -69.159 39.275 -67.563 L48.153 -49.804 Q48.955 -48.203 48.049 -46.716 Q47.143 -45.23 45.329 -45.23 H31.173 V-35.67 L44.435 -2.797 Q44.897 -1.614 44.435 -0.772 Q43.972 0.07 43.031 0.45 Q42.09 0.828 41.149 0.579 Q40.208 0.328 39.746 -0.894 L31.211 -21.909 V-1.895 Q31.211 -0.805 30.479 -0.068 Q29.747 0.67 28.666 0.67 Q27.584 0.67 26.834 -0.068 Q26.082 -0.805 26.082 -1.895 V-21.909 Z M68.253 -15.869 Q63.932 -15.869 61.007 -18.801 Q58.082 -21.733 57.855 -26.103 H53.615 Q51.776 -26.103 50.378 -27.365 Q48.979 -28.626 48.979 -30.439 Q48.979 -33.447 51.918 -37.112 Q54.858 -40.776 57.088 -42.44 Q57.468 -46.011 59.847 -48.715 Q62.224 -51.419 65.738 -52.163 V-68.565 Q65.738 -69.655 66.469 -70.392 Q67.201 -71.129 68.282 -71.129 Q69.364 -71.129 70.114 -70.392 Q70.866 -69.655 70.866 -68.565 V-52.163 Q74.279 -51.419 76.63 -48.715 Q78.979 -46.01 79.424 -42.449 Q81.82 -40.789 84.76 -37.062 Q87.7 -33.334 87.7 -30.348 Q87.7 -28.577 86.29 -27.34 Q84.881 -26.103 83.027 -26.103 H78.649 Q78.384 -21.733 75.44 -18.801 Q72.497 -15.869 68.253 -15.869 Z M54.608 -31.232 H81.996 Q81.411 -33.311 79.977 -34.946 Q78.544 -36.58 76.82 -37.943 L74.682 -39.555 L74.363 -42.218 Q73.991 -44.417 72.265 -45.968 Q70.54 -47.521 68.289 -47.521 Q66.039 -47.521 64.339 -45.987 Q62.639 -44.453 62.316 -42.255 L61.993 -39.568 L59.793 -37.986 Q57.961 -36.619 56.542 -34.943 Q55.122 -33.267 54.608 -31.232 Z M16.554 -51.245 H40.8 L33.676 -65.015 H23.617 L16.554 -51.245 Z M68.262 -21.036 Q70.297 -21.036 71.776 -22.496 Q73.256 -23.956 73.65 -26.103 H62.892 Q63.211 -23.956 64.671 -22.496 Q66.132 -21.036 68.262 -21.036 Z"/></g><g id="Thin-S" transform="matrix(1 0 0 1 814.015 696)"><path d="M27.41 -27.029  17.245 -2.259 Q17.001 -1.636 16.376 -1.409 Q15.749 -1.182 15.211 -1.447 Q14.71 -1.712 14.387 -2.127 Q14.066 -2.54 14.377 -3.306 L27.433 -35.518 V-45.76 H13.793 Q12.188 -45.76 11.385 -47.057 Q10.583 -48.355 11.302 -49.781 L19.392 -65.97 Q20.061 -67.386 21.431 -68.271 Q22.8 -69.157 24.338 -69.157 H33.76 Q35.297 -69.157 36.667 -68.271 Q38.037 -67.386 38.706 -65.97 L46.796 -49.781 Q47.515 -48.355 46.712 -47.057 Q45.91 -45.76 44.305 -45.76 H30.49 V-35.518 L43.6 -3.405 Q43.835 -2.714 43.6 -2.213 Q43.364 -1.712 42.766 -1.447 Q42.166 -1.182 41.566 -1.338 Q40.967 -1.492 40.732 -2.259 L30.566 -27.029 V-2.881 Q30.566 -2.21 30.118 -1.757 Q29.669 -1.303 29.007 -1.303 Q28.343 -1.303 27.876 -1.757 Q27.41 -2.21 27.41 -2.881 V-27.029 Z M67.872 -16.627 Q63.856 -16.627 61.31 -19.485 Q58.766 -22.341 58.803 -26.444 H54.069 Q52.427 -26.444 51.177 -27.563 Q49.927 -28.68 49.927 -30.287 Q49.927 -33.144 52.848 -36.675 Q55.768 -40.207 57.884 -41.758 Q58.226 -45.252 60.568 -47.899 Q62.908 -50.547 66.383 -50.949 V-67.579 Q66.383 -68.25 66.83 -68.703 Q67.279 -69.157 67.942 -69.157 Q68.606 -69.157 69.072 -68.703 Q69.539 -68.25 69.539 -67.579 V-50.949 Q72.914 -50.547 75.247 -47.899 Q77.578 -45.251 78.02 -41.767 Q80.303 -40.22 83.225 -36.668 Q86.145 -33.115 86.145 -30.272 Q86.145 -28.729 84.873 -27.587 Q83.599 -26.444 81.927 -26.444 H77.018 Q76.981 -22.341 74.398 -19.485 Q71.814 -16.627 67.872 -16.627 Z M52.9 -29.6 H83.02 Q82.738 -32.476 80.907 -34.661 Q79.075 -36.845 76.82 -38.588 L75.099 -39.933 L74.856 -42.103 Q74.409 -44.531 72.436 -46.253 Q70.464 -47.975 67.948 -47.975 Q65.432 -47.975 63.5 -46.29 Q61.567 -44.604 61.216 -42.179 L60.931 -39.947 L59.148 -38.668 Q56.747 -36.921 54.949 -34.678 Q53.15 -32.433 52.9 -29.6 Z M15.454 -49.804 H42.545 L34.511 -65.015 H23.465 L15.454 -49.804 Z M67.894 -19.859 Q70.373 -19.859 72.099 -21.794 Q73.825 -23.728 74.219 -26.444 H61.678 Q61.922 -23.728 63.609 -21.794 Q65.298 -19.859 67.894 -19.859 Z"/></g><g id="Ultralight-S" transform="matrix(1 0 0 1 517.792 696)"><path d="M28.207 -30.101  17.062 -3.078 Q16.956 -2.728 16.534 -2.558 Q16.113 -2.388 15.78 -2.585 Q15.484 -2.782 15.287 -2.98 Q15.09 -3.177 15.287 -3.67 L28.207 -35.427 V-46.079 H14.794 Q13.314 -46.079 12.575 -47.262 Q11.835 -48.446 12.504 -49.767 L20.12 -65.015 Q20.724 -66.322 21.986 -67.148 Q23.25 -67.973 24.656 -67.973 H33.828 Q35.235 -67.973 36.498 -67.148 Q37.761 -66.322 38.365 -65.015 L45.981 -49.767 Q46.65 -48.446 45.91 -47.262 Q45.17 -46.079 43.691 -46.079 H30.081 V-35.427 L43.099 -3.769 Q43.198 -3.374 43.099 -3.078 Q43.001 -2.782 42.606 -2.585 Q42.212 -2.388 41.817 -2.486 Q41.422 -2.585 41.324 -3.078 L30.179 -30.101 V-3.473 Q30.179 -3.054 29.901 -2.771 Q29.622 -2.486 29.211 -2.486 Q28.799 -2.486 28.503 -2.771 Q28.207 -3.054 28.207 -3.473 V-30.101 Z M67.642 -17.083 Q63.81 -17.083 61.493 -19.894 Q59.175 -22.705 59.372 -26.65 H54.342 Q52.817 -26.65 51.657 -27.681 Q50.496 -28.713 50.496 -30.196 Q50.496 -32.962 53.405 -36.413 Q56.315 -39.865 58.362 -41.348 Q58.682 -44.797 61 -47.41 Q63.317 -50.024 66.769 -50.221 V-66.987 Q66.769 -67.406 67.047 -67.69 Q67.326 -67.973 67.738 -67.973 Q68.15 -67.973 68.446 -67.69 Q68.742 -67.406 68.742 -66.987 V-50.221 Q72.095 -50.024 74.417 -47.41 Q76.738 -44.796 77.179 -41.358 Q79.393 -39.879 82.303 -36.431 Q85.212 -32.984 85.212 -30.227 Q85.212 -28.819 84.022 -27.734 Q82.831 -26.65 81.267 -26.65 H76.04 Q76.139 -22.705 73.772 -19.894 Q71.404 -17.083 67.642 -17.083 Z M51.877 -28.622 H83.634 Q83.535 -31.975 81.464 -34.49 Q79.393 -37.005 76.82 -38.975 L75.35 -40.161 L75.152 -42.035 Q74.659 -44.599 72.539 -46.424 Q70.418 -48.248 67.744 -48.248 Q65.068 -48.248 62.996 -46.471 Q60.923 -44.694 60.556 -42.134 L60.293 -40.174 L58.762 -39.077 Q56.019 -37.104 53.992 -34.518 Q51.966 -31.932 51.877 -28.622 Z M14.794 -48.939 H43.592 L35.012 -65.015 H23.374 L14.794 -48.939 Z M67.673 -19.154 Q70.418 -19.154 72.292 -21.373 Q74.166 -23.592 74.561 -26.65 H60.95 Q61.148 -23.592 62.972 -21.373 Q64.797 -19.154 67.673 -19.154 Z"/></g></g></svg>