<svg xmlns="http://www.w3.org/2000/svg" height="40" viewBox="0 -960 960 960" width="40"><path d="M54.15-54.15v-195.3h852.08v195.3H54.15Zm852.08-655.31H53.81v-196.77h852.42v196.77ZM54.15-332.17v-147.31l378.94-147.93h473.14v188.98L618.8-332.17H54.15Zm220.36-459.27q6.91-6.31 6.91-16.43 0-10.11-6.91-17.02t-16.4-6.91q-9.5 0-16.43 6.91t-6.93 17.02q0 10.12 6.93 16.43 6.93 6.31 16.43 6.31 9.49 0 16.4-6.31Zm.78 656.16q6.8-6.92 6.8-16.53 0-9.61-6.8-16.41-6.8-6.79-16.4-6.79-9.61 0-16.54 6.79-6.93 6.8-6.93 16.41t6.93 16.53q6.93 6.93 16.54 6.93 9.6 0 16.4-6.93Zm37.56-259.63q6.9-6.31 6.9-16.42 0-10.12-6.9-17.02-6.91-6.91-16.69-6.91-9.78 0-16.43 6.91-6.64 6.9-6.64 17.02 0 10.11 6.64 16.42 6.65 6.32 16.43 6.32t16.69-6.32Zm183.47-396.53q7.25-6.31 7.25-16.37 0-10.06-7.25-17.02-7.25-6.97-16.84-6.97-9.58 0-16.08 6.97-6.5 6.96-6.5 17.02 0 10.06 6.5 16.37 6.5 6.31 16.08 6.31 9.59 0 16.84-6.31Zm5.03 337.94q7.11-6.83 7.11-16.5t-7.11-16.5q-7.12-6.83-17.02-6.83-9.91 0-16.22 6.83-6.31 6.83-6.31 16.5t6.31 16.5q6.31 6.83 16.22 6.83 9.9 0 17.02-6.83Zm-4.9 318.22q7.12-6.92 7.12-16.61 0-9.68-7.12-16.4-7.12-6.72-16.95-6.72-9.82 0-16.21 6.72-6.39 6.72-6.39 16.4 0 9.69 6.39 16.61 6.39 6.93 16.21 6.93 9.83 0 16.95-6.93Zm177.02-376.16q6.91-6.58 6.91-16.69 0-10.12-6.91-16.76-6.91-6.65-16.69-6.65-9.78 0-16.42 6.65-6.65 6.64-6.65 16.76 0 10.11 6.65 16.69 6.64 6.57 16.42 6.57 9.78 0 16.69-6.57Zm44-280q6.78-6.31 6.78-16.3 0-9.98-6.78-17.02-6.78-7.04-16.76-7.04t-16.56 7.04q-6.57 7.04-6.57 17.02 0 9.99 6.57 16.3 6.58 6.31 16.56 6.31 9.98 0 16.76-6.31Zm.13 656.16q6.65-6.92 6.65-16.42 0-9.5-6.65-16.41-6.64-6.9-16.76-6.9-10.11 0-16.69 6.9-6.57 6.91-6.57 16.41t6.57 16.42q6.58 6.93 16.69 6.93 10.12 0 16.76-6.93Z"/></svg>