<svg xmlns="http://www.w3.org/2000/svg" height="24" viewBox="0 -960 960 960" width="24"><path d="M81.87-81.87v-387.22L403.5-595.2H81.37v-282.93h796.76v427.96l-233.5 85.1h233.5v283.2H81.87Zm82.87-83.37h629.52V-281.7H164.74v116.46Zm629.52-513.33v-116.19H164.74v116.19h629.52Zm-628.3 315.9h227.08l401.72-145.98v-88.94H639.67l-473.71 184.5v50.42Zm87.12-354.05q-7.75-7.81-7.75-19.75 0-11.94 7.8-19.69 7.81-7.75 19.75-7.75 11.95 0 19.7 7.81 7.75 7.8 7.75 19.75 0 11.94-7.81 19.69-7.81 7.75-19.75 7.75-11.94 0-19.69-7.81Zm0 512.32q-7.75-7.8-7.75-19.75 0-11.94 7.8-19.69 7.81-7.75 19.75-7.75 11.95 0 19.7 7.81t7.75 19.75q0 11.94-7.81 19.69-7.81 7.75-19.75 7.75-11.94 0-19.69-7.81Zm39.47-187.43q-7.75-7.81-7.75-19.75 0-11.94 7.81-19.69 7.81-7.75 19.75-7.75 11.94 0 19.69 7.81 7.75 7.8 7.75 19.75 0 11.94-7.8 19.69-7.81 7.75-19.75 7.75-11.95 0-19.7-7.81Zm167.7-325.39q-7.75-7.81-7.75-19.75 0-11.94 7.81-19.69 7.81-7.75 19.75-7.75 11.94 0 19.69 7.81 7.75 7.8 7.75 19.75 0 11.94-7.81 19.69-7.81 7.75-19.75 7.75-11.94 0-19.69-7.81Zm0 266.41q-7.75-7.81-7.75-19.75 0-11.94 7.81-19.69 7.81-7.75 19.75-7.75 11.94 0 19.69 7.81 7.75 7.81 7.75 19.75 0 11.94-7.81 19.69-7.81 7.75-19.75 7.75-11.94 0-19.69-7.81Zm0 246.41q-7.75-7.8-7.75-19.75 0-11.94 7.81-19.69 7.81-7.75 19.75-7.75 11.94 0 19.69 7.81 7.75 7.81 7.75 19.75 0 11.94-7.81 19.69-7.81 7.75-19.75 7.75-11.94 0-19.69-7.81Zm157.7-305.89q-7.75-7.8-7.75-19.75 0-11.94 7.8-19.69 7.81-7.75 19.75-7.75 11.95 0 19.7 7.81t7.75 19.75q0 11.94-7.81 19.69-7.81 7.75-19.75 7.75-11.94 0-19.69-7.81Zm49.47-206.93q-7.75-7.81-7.75-19.75 0-11.94 7.81-19.69 7.81-7.75 19.75-7.75 11.94 0 19.69 7.81 7.75 7.8 7.75 19.75 0 11.94-7.8 19.69-7.81 7.75-19.75 7.75-11.95 0-19.7-7.81Zm0 512.82q-7.75-7.8-7.75-19.75 0-11.94 7.81-19.69 7.81-7.75 19.75-7.75 11.94 0 19.69 7.81 7.75 7.81 7.75 19.75 0 11.94-7.8 19.69-7.81 7.75-19.75 7.75-11.95 0-19.7-7.81Z"/></svg>