<svg xmlns="http://www.w3.org/2000/svg" height="24" viewBox="0 -960 960 960" width="24"><path d="M46-46v-435l260-101H46v-332h868v478l-161 59h161v331H46Zm115-115h638v-101H161v101Zm638-536v-102H161v102h638ZM164-367h224l411-150v-75H649L164-404v37Zm77.5-359.5Q233-735 233-748t8.5-21.5Q250-778 263-778t21.5 8.5Q293-761 293-748t-8.5 21.5Q276-718 263-718t-21.5-8.5Zm0 536Q233-199 233-212t8.5-21.5Q250-242 263-242t21.5 8.5Q293-225 293-212t-8.5 21.5Q276-182 263-182t-21.5-8.5Zm42-196Q275-395 275-408t8.5-21.5Q292-438 305-438t21.5 8.5Q335-421 335-408t-8.5 21.5Q318-378 305-378t-21.5-8.5Zm175-340Q450-735 450-748t8.5-21.5Q467-778 480-778t21.5 8.5Q510-761 510-748t-8.5 21.5Q493-718 480-718t-21.5-8.5Zm0 278Q450-457 450-470t8.5-21.5Q467-500 480-500t21.5 8.5Q510-483 510-470t-8.5 21.5Q493-440 480-440t-21.5-8.5Zm0 258Q450-199 450-212t8.5-21.5Q467-242 480-242t21.5 8.5Q510-225 510-212t-8.5 21.5Q493-182 480-182t-21.5-8.5Zm165-320Q615-519 615-532t8.5-21.5Q632-562 645-562t21.5 8.5Q675-545 675-532t-8.5 21.5Q658-502 645-502t-21.5-8.5Zm52-216Q667-735 667-748t8.5-21.5Q684-778 697-778t21.5 8.5Q727-761 727-748t-8.5 21.5Q710-718 697-718t-21.5-8.5Zm0 536Q667-199 667-212t8.5-21.5Q684-242 697-242t21.5 8.5Q727-225 727-212t-8.5 21.5Q710-182 697-182t-21.5-8.5Z"/></svg>