<svg xmlns="http://www.w3.org/2000/svg" height="24" viewBox="0 -960 960 960" width="24"><path d="M108.08-108.08v-199.77h743.46v199.77H108.08Zm743.46-544.5H107.77v-199.34h743.77v199.34ZM108.08-363.5v-97.23l348.16-135.89h395.3v136.2L585.65-363.5H108.08Zm189.44-369.7q7.56-7.54 7.56-18.79 0-11.24-7.55-18.89-7.54-7.66-18.88-7.66t-18.9 7.64q-7.56 7.64-7.56 18.89 0 11.24 7.55 18.8 7.54 7.56 18.88 7.56t18.9-7.55Zm.77 544.39q7.56-7.55 7.56-18.79 0-11.25-7.55-18.9-7.54-7.65-18.88-7.65t-18.9 7.64q-7.56 7.64-7.56 18.88 0 11.24 7.55 18.8 7.54 7.56 18.88 7.56t18.9-7.54Zm38.04-211.27q7.55-7.55 7.55-18.89t-7.54-18.89q-7.54-7.56-18.88-7.56t-18.9 7.54q-7.56 7.55-7.56 18.89t7.54 18.89q7.55 7.56 18.89 7.56t18.9-7.54ZM498.88-733.2q7.66-7.54 7.66-18.79 0-11.24-7.64-18.89-7.64-7.66-18.89-7.66-11.24 0-18.8 7.64-7.56 7.64-7.56 18.89 0 11.24 7.55 18.8 7.54 7.56 18.79 7.56 11.24 0 18.89-7.55Zm0 277.27q7.66-7.54 7.66-18.88t-7.64-18.9q-7.64-7.56-18.89-7.56-11.24 0-18.8 7.55-7.56 7.54-7.56 18.88t7.55 18.9q7.54 7.56 18.79 7.56 11.24 0 18.89-7.55Zm0 267.12q7.66-7.55 7.66-18.79 0-11.25-7.64-18.9-7.64-7.65-18.89-7.65-11.24 0-18.8 7.64-7.56 7.64-7.56 18.88 0 11.24 7.55 18.8 7.54 7.56 18.79 7.56 11.24 0 18.89-7.54ZM651.44-515.2q7.56-7.54 7.56-18.88t-7.54-18.9q-7.55-7.56-18.89-7.56t-18.9 7.55q-7.55 7.54-7.55 18.88t7.54 18.9q7.54 7.56 18.88 7.56t18.9-7.55Zm47.66-218q7.55-7.54 7.55-18.79 0-11.24-7.54-18.89-7.55-7.66-18.89-7.66t-18.89 7.64q-7.56 7.64-7.56 18.89 0 11.24 7.54 18.8 7.55 7.56 18.89 7.56t18.9-7.55Zm0 544.39q7.55-7.55 7.55-18.79 0-11.25-7.54-18.9-7.55-7.65-18.89-7.65t-18.89 7.64q-7.56 7.64-7.56 18.88 0 11.24 7.54 18.8 7.55 7.56 18.89 7.56t18.9-7.54Z"/></svg>