<svg xmlns="http://www.w3.org/2000/svg" height="20" viewBox="0 -960 960 960" width="20"><path d="M142.15-142.15v-327.97l318.7-116.53H142.04v-231.2h675.04v335.77l-297.81 109h297.81v230.93H142.15Zm28.81-28.93h617.08v-173.07H170.96v173.07Zm617.08-444.5v-173.34H170.96v173.34h617.08Zm-616.19 242.5h262.84l354.46-129.34v-84.23H553.46L171.85-448.77v75.69Zm115.4-315.32q-5.87-5.78-5.87-13.52 0-7.73 5.78-13.6 5.79-5.86 13.52-5.86 7.74 0 13.61 5.78 5.86 5.78 5.86 13.51 0 7.74-5.78 13.61-5.78 5.86-13.52 5.86-7.73 0-13.6-5.78Zm1.54 443.5q-5.87-5.78-5.87-13.32 0-7.55 5.78-13.61 5.78-6.05 13.52-6.05 7.74 0 13.61 5.97 5.86 5.97 5.86 13.52 0 7.54-5.78 13.41-5.78 5.86-13.52 5.86-7.74 0-13.6-5.78Zm45.08-178.76q-5.87-5.79-5.87-13.33 0-7.55 5.78-13.61 5.78-6.05 13.52-6.05 7.74 0 13.6 5.97 5.87 5.97 5.87 13.52 0 7.54-5.78 13.41t-13.52 5.87q-7.74 0-13.6-5.78Zm132.8-265.24q-5.86-5.78-5.86-13.32 0-7.55 5.78-13.61 5.78-6.05 13.33-6.05 7.54 0 13.6 5.97t6.06 13.52q0 7.54-5.98 13.41-5.97 5.86-13.52 5.86-7.54 0-13.41-5.78Zm0 221.43q-5.86-5.78-5.86-13.52 0-7.74 5.78-13.61 5.78-5.86 13.33-5.86 7.54 0 13.6 5.78t6.06 13.52q0 7.74-5.98 13.6-5.97 5.87-13.52 5.87-7.54 0-13.41-5.78Zm0 222.57q-5.86-5.78-5.86-13.32 0-7.55 5.78-13.61 5.78-6.05 13.33-6.05 7.54 0 13.6 5.97t6.06 13.52q0 7.54-5.98 13.41-5.97 5.86-13.52 5.86-7.54 0-13.41-5.78ZM599.1-511.78q-5.87-5.78-5.87-13.52 0-7.74 5.78-13.6 5.78-5.87 13.52-5.87 7.74 0 13.6 5.78 5.87 5.78 5.87 13.52 0 7.74-5.78 13.6-5.78 5.87-13.52 5.87-7.74 0-13.6-5.78Zm44.3-177.12q-5.86-5.78-5.86-13.32 0-7.55 5.78-13.61 5.78-6.05 13.52-6.05 7.74 0 13.6 5.97 5.87 5.97 5.87 13.52 0 7.54-5.78 13.41-5.78 5.86-13.52 5.86-7.74 0-13.61-5.78Zm0 444q-5.86-5.78-5.86-13.32 0-7.55 5.78-13.61 5.78-6.05 13.52-6.05 7.74 0 13.6 5.97 5.87 5.97 5.87 13.52 0 7.54-5.78 13.41-5.78 5.86-13.52 5.86-7.74 0-13.61-5.78Z"/></svg>