<svg xmlns="http://www.w3.org/2000/svg" height="48" viewBox="0 -960 960 960" width="48"><path d="M84-84v-376.15l398.46-153.39H84V-876h791.61l1 415-313.46 114.54h312.46V-84H84Zm58.39-58.39h674.84v-145.69H142.39v145.69Zm674.84-529.53v-145.69H142.39v145.69h674.84ZM142.77-346.46h249.85L818.23-501v-112.54H642.08l-499.31 192v75.08Zm106.38-383.46q-6.38-6.3-6.38-14.77 0-8.46 6.3-14.85 6.31-6.38 14.77-6.38 8.47 0 14.85 6.3 6.39 6.31 6.39 14.77 0 8.47-6.31 14.85-6.3 6.39-14.77 6.39-8.46 0-14.85-6.31Zm1.39 529.54q-6.39-6.31-6.39-14.77 0-8.47 6.31-14.85 6.3-6.39 14.77-6.39 8.46 0 14.85 6.31 6.38 6.3 6.38 14.77 0 8.46-6.3 14.85-6.31 6.38-14.77 6.38-8.47 0-14.85-6.3Zm40.65-194.39Q285-400.4 285-409.48q0-9.08 6.12-15.53 6.12-6.45 14.7-6.45 8.58 0 15.04 6.38 6.45 6.38 6.45 15.46 0 9.08-6.38 14.77-6.38 5.7-14.96 5.7-8.58 0-14.78-5.62Zm173.54-335.84q-5.88-6.38-5.88-14.96 0-8.58 5.8-14.78 5.8-6.19 14.77-6.19 8.96 0 15.35 6.12 6.38 6.12 6.38 14.71 0 8.58-6.3 15.03-6.3 6.45-15.27 6.45-8.96 0-14.85-6.38Zm0 275.08q-5.88-6.31-5.88-14.77 0-8.47 5.8-14.85 5.8-6.39 14.77-6.39 8.96 0 15.35 6.31 6.38 6.3 6.38 14.76 0 8.47-6.3 14.85-6.3 6.39-15.27 6.39-8.96 0-14.85-6.3Zm0 255.15q-5.88-6.31-5.88-14.77 0-8.47 5.8-14.85 5.8-6.39 14.77-6.39 8.96 0 15.35 6.31 6.38 6.3 6.38 14.77 0 8.46-6.3 14.85-6.3 6.38-15.27 6.38-8.96 0-14.85-6.3Zm162.73-316.55q-6.38-5.62-6.38-14.7 0-9.08 6.3-15.53 6.3-6.46 14.77-6.46 8.46 0 14.85 6.38 6.38 6.38 6.38 15.47 0 9.08-6.3 14.77-6.3 5.69-14.77 5.69-8.46 0-14.85-5.62Zm51.58-213.68q-5.89-6.38-5.89-14.96 0-8.58 5.81-14.78 5.8-6.19 14.77-6.19 8.96 0 15.35 6.12 6.38 6.12 6.38 14.71 0 8.58-6.3 15.03-6.31 6.45-15.27 6.45-8.97 0-14.85-6.38Zm0 530.23q-5.89-6.31-5.89-14.77 0-8.47 5.81-14.85 5.8-6.39 14.77-6.39 8.96 0 15.35 6.31 6.38 6.3 6.38 14.77 0 8.46-6.3 14.85-6.31 6.38-15.27 6.38-8.97 0-14.85-6.3Z"/></svg>