<svg xmlns="http://www.w3.org/2000/svg" height="48" viewBox="0 -960 960 960" width="48"><path d="M64-64v-190h832v190H64Zm832-641H64v-191h832v191ZM64-327v-136l436-170h396v177L547-327H64Zm207-459.5q6-5.5 6-14t-6-14.5q-6-6-14-6t-14 6q-6 6-6 14.5t6 14q6 5.5 14 5.5t14-5.5Zm1 641.5q6-6 6-14t-6-14q-6-6-14-6t-14 6q-6 6-6 14t6 14q6 6 14 6t14-6Zm42-238.5q6-5.5 6-14t-6-14.5q-6-6-14-6t-14 6q-6 6-6 14.5t6 14q6 5.5 14 5.5t14-5.5Zm179.8-403q6.2-5.5 6.2-13.8t-6.2-14.5q-6.2-6.2-14.5-6.2t-13.8 6.2q-5.5 6.2-5.5 14.5t5.5 13.8q5.5 5.5 13.8 5.5t14.5-5.5ZM494-456q6-6 6-14t-6-14q-6-6-14.5-6t-14 6q-5.5 6-5.5 14t5.5 14q5.5 6 14 6t14.5-6Zm0 311q6-6 6-14t-6-14q-6-6-14.5-6t-14 6q-5.5 6-5.5 14t5.5 14q5.5 6 14 6t14.5-6Zm168-374.5q6-5.5 6-14t-6-14.5q-6-6-14-6t-14 6q-6 6-6 14.5t6 14q6 5.5 14 5.5t14-5.5Zm53.8-267q6.2-5.5 6.2-13.8t-6.2-14.5q-6.2-6.2-14.5-6.2t-13.8 6.2q-5.5 6.2-5.5 14.5t5.5 13.8q5.5 5.5 13.8 5.5t14.5-5.5ZM716-145q6-6 6-14t-6-14q-6-6-14.5-6t-14 6q-5.5 6-5.5 14t5.5 14q5.5 6 14 6t14.5-6Z"/></svg>