<svg xmlns="http://www.w3.org/2000/svg" height="24" viewBox="0 -960 960 960" width="24"><path d="m67-68 1-400.61 342.85-132.78H67V-892h824.61l1 440.08-253.23 92.69h252.23V-68H67Zm86-86h652.62v-119.23H153V-154Zm652.62-533.38V-806H153l1 118.62h651.62ZM154.38-359.23h235.85l416.39-151.85v-90.31H645.46L154.38-411.46v52.23Zm88.27-367.04q-8.11-8.05-8.11-20.35t8.04-20.42q8.05-8.11 20.35-8.11t20.42 8.04q8.11 8.04 8.11 20.35 0 12.3-8.04 20.41-8.05 8.12-20.35 8.12t-20.42-8.04Zm.77 533.38q-8.11-8.04-8.11-20.35 0-12.3 8.04-20.41 8.05-8.12 20.35-8.12t20.42 8.04q8.11 8.05 8.11 20.35t-8.04 20.42q-8.05 8.11-20.35 8.11t-20.42-8.04Zm40.85-195.62q-8.12-8.04-8.12-20.34t8.05-20.42q8.04-8.11 20.34-8.11 12.31 0 20.42 8.04 8.12 8.04 8.12 20.35 0 12.3-8.05 20.41-8.04 8.12-20.34 8.12t-20.42-8.05Zm174.38-337.76q-8.11-8.05-8.11-20.35t8.04-20.42q8.05-8.11 20.35-8.11t20.42 8.04q8.11 8.04 8.11 20.35 0 12.3-8.04 20.41-8.05 8.12-20.35 8.12t-20.42-8.04Zm0 276.3q-8.11-8.04-8.11-20.34 0-12.31 8.04-20.42 8.05-8.12 20.35-8.12t20.42 8.05q8.11 8.04 8.11 20.34 0 12.31-8.04 20.42-8.05 8.12-20.35 8.12t-20.42-8.05Zm0 257.08q-8.11-8.04-8.11-20.35 0-12.3 8.04-20.41 8.05-8.12 20.35-8.12t20.42 8.04q8.11 8.05 8.11 20.35t-8.04 20.42q-8.05 8.11-20.35 8.11t-20.42-8.04Zm164.39-318.54q-8.12-8.04-8.12-20.34 0-12.31 8.05-20.42 8.04-8.12 20.34-8.12t20.42 8.05q8.12 8.04 8.12 20.34t-8.05 20.42q-8.04 8.12-20.34 8.12-12.31 0-20.42-8.05Zm51.46-214.84q-8.12-8.05-8.12-20.35t8.05-20.42q8.04-8.11 20.34-8.11 12.31 0 20.42 8.04 8.12 8.04 8.12 20.35 0 12.3-8.05 20.41-8.04 8.12-20.34 8.12-12.31 0-20.42-8.04Zm0 533.38q-8.12-8.04-8.12-20.35 0-12.3 8.05-20.41 8.04-8.12 20.34-8.12 12.31 0 20.42 8.04 8.12 8.05 8.12 20.35t-8.05 20.42q-8.04 8.11-20.34 8.11-12.31 0-20.42-8.04Z"/></svg>