<svg xmlns="http://www.w3.org/2000/svg" height="24" viewBox="0 -960 960 960" width="24"><path d="M90-90v-375.5l341-134H89.5V-870H870v416l-255.5 93H870v271H90Zm74.5-75h630v-121h-630v121Zm630-509.5V-795h-630v120.5h630ZM165-361h229l401-145.5v-93H638L165-415v54Zm89.75-353.81q-7.75-7.81-7.75-19.75 0-11.94 7.81-19.69 7.81-7.75 19.75-7.75 11.94 0 19.69 7.81 7.75 7.81 7.75 19.75 0 11.94-7.81 19.69-7.81 7.75-19.75 7.75-11.94 0-19.69-7.81Zm0 508.5q-7.75-7.81-7.75-19.75 0-11.94 7.81-19.69 7.81-7.75 19.75-7.75 11.94 0 19.69 7.81 7.75 7.81 7.75 19.75 0 11.94-7.81 19.69-7.81 7.75-19.75 7.75-11.94 0-19.69-7.81Zm39-186q-7.75-7.81-7.75-19.75 0-11.94 7.81-19.69 7.81-7.75 19.75-7.75 11.94 0 19.69 7.81 7.75 7.81 7.75 19.75 0 11.94-7.81 19.69-7.81 7.75-19.75 7.75-11.94 0-19.69-7.81Zm166.5-323q-7.75-7.81-7.75-19.75 0-11.94 7.81-19.69 7.81-7.75 19.75-7.75 11.94 0 19.69 7.81 7.75 7.81 7.75 19.75 0 11.94-7.81 19.69-7.81 7.75-19.75 7.75-11.94 0-19.69-7.81Zm0 264.5q-7.75-7.81-7.75-19.75 0-11.94 7.81-19.69 7.81-7.75 19.75-7.75 11.94 0 19.69 7.81 7.75 7.81 7.75 19.75 0 11.94-7.81 19.69-7.81 7.75-19.75 7.75-11.94 0-19.69-7.81Zm0 244.5q-7.75-7.81-7.75-19.75 0-11.94 7.81-19.69 7.81-7.75 19.75-7.75 11.94 0 19.69 7.81 7.75 7.81 7.75 19.75 0 11.94-7.81 19.69-7.81 7.75-19.75 7.75-11.94 0-19.69-7.81Zm156.5-303.5q-7.75-7.81-7.75-19.75 0-11.94 7.81-19.69 7.81-7.75 19.75-7.75 11.94 0 19.69 7.81 7.75 7.81 7.75 19.75 0 11.94-7.81 19.69-7.81 7.75-19.75 7.75-11.94 0-19.69-7.81Zm49-205.5q-7.75-7.81-7.75-19.75 0-11.94 7.81-19.69 7.81-7.75 19.75-7.75 11.94 0 19.69 7.81 7.75 7.81 7.75 19.75 0 11.94-7.81 19.69-7.81 7.75-19.75 7.75-11.94 0-19.69-7.81Zm0 509q-7.75-7.81-7.75-19.75 0-11.94 7.81-19.69 7.81-7.75 19.75-7.75 11.94 0 19.69 7.81 7.75 7.81 7.75 19.75 0 11.94-7.81 19.69-7.81 7.75-19.75 7.75-11.94 0-19.69-7.81Z"/></svg>