<svg xmlns="http://www.w3.org/2000/svg" height="20" viewBox="0 -960 960 960" width="20"><path d="M124.08-124.08v-351.23l289.85-105.77H123.77v-254.84h711.77v360.38l-264.16 96.5h264.16v254.96H124.08Zm47.65-47.96h615.54v-159.04H171.73v159.04Zm615.54-457v-158.92H171.73v158.92h615.54Zm-614.85 250h258.43l357.73-129.92v-72.12H559.23L172.42-440.89v61.85Zm109.83-314.81q-6.06-6.05-6.06-14.39t6.05-14.39q6.04-6.06 14.38-6.06t14.4 6.04q6.06 6.05 6.06 14.39t-6.05 14.4q-6.04 6.05-14.38 6.05t-14.4-6.04Zm.77 456q-6.06-6.05-6.06-14.29 0-8.25 6.05-14.4 6.04-6.15 14.38-6.15t14.4 6.14q6.06 6.14 6.06 14.38 0 8.25-6.05 14.3-6.04 6.06-14.38 6.06t-14.4-6.04Zm46.04-183.39q-6.06-6.04-6.06-14.29 0-8.24 6.04-14.39 6.05-6.16 14.39-6.16t14.4 6.14q6.05 6.14 6.05 14.39 0 8.24-6.04 14.3-6.04 6.06-14.38 6.06t-14.4-6.05Zm136.65-273.11q-6.06-6.05-6.06-14.29 0-8.24 6.05-14.4 6.04-6.15 14.29-6.15 8.24 0 14.39 6.14 6.16 6.14 6.16 14.38 0 8.25-6.14 14.31-6.14 6.05-14.39 6.05-8.24 0-14.3-6.04Zm0 227.96q-6.06-6.04-6.06-14.39 0-8.34 6.05-14.39 6.04-6.06 14.29-6.06 8.24 0 14.39 6.04 6.16 6.05 6.16 14.39t-6.14 14.4q-6.14 6.05-14.39 6.05-8.24 0-14.3-6.04Zm0 228.54q-6.06-6.05-6.06-14.29 0-8.25 6.05-14.4 6.04-6.15 14.29-6.15 8.24 0 14.39 6.14 6.16 6.14 6.16 14.38 0 8.25-6.14 14.3-6.14 6.06-14.39 6.06-8.24 0-14.3-6.04Zm136.46-274.19q-6.05-6.05-6.05-14.39t6.04-14.4q6.04-6.05 14.38-6.05t14.4 6.04q6.06 6.04 6.06 14.38t-6.04 14.4q-6.05 6.06-14.39 6.06t-14.4-6.04Zm45.66-182.31q-6.06-6.05-6.06-14.29 0-8.24 6.04-14.4 6.05-6.15 14.39-6.15t14.4 6.14q6.05 6.14 6.05 14.38 0 8.25-6.04 14.31-6.05 6.05-14.39 6.05t-14.39-6.04Zm0 456.5q-6.06-6.05-6.06-14.29 0-8.25 6.04-14.4 6.05-6.15 14.39-6.15t14.4 6.14q6.05 6.14 6.05 14.38 0 8.25-6.04 14.3-6.05 6.06-14.39 6.06t-14.39-6.04Z"/></svg>