<svg xmlns="http://www.w3.org/2000/svg" height="24" viewBox="0 -960 960 960" width="24"><path d="M132-132v-320l416-162H132v-214h695v358L485-345h342v213H132Zm28-28h639v-157H160v157Zm639-482v-158H160v158h639ZM161-345h242l396-145v-124H625L161-434v89Zm103.5-357.31q-7.5-7.32-7.5-18.5 0-11.19 7.31-18.69 7.32-7.5 18.5-7.5 11.19 0 18.69 7.31 7.5 7.32 7.5 18.5 0 11.19-7.31 18.69-7.32 7.5-18.5 7.5-11.19 0-18.69-7.31Zm2 482q-7.5-7.32-7.5-18.5 0-11.19 7.31-18.69 7.32-7.5 18.5-7.5 11.19 0 18.69 7.31 7.5 7.32 7.5 18.5 0 11.19-7.31 18.69-7.32 7.5-18.5 7.5-11.19 0-18.69-7.31Zm37-176q-7.5-7.32-7.5-18.5 0-11.19 7.31-18.69 7.32-7.5 18.5-7.5 11.19 0 18.69 7.31 7.5 7.32 7.5 18.5 0 11.19-7.31 18.69-7.32 7.5-18.5 7.5-11.19 0-18.69-7.31Zm158-306q-7.5-7.32-7.5-18.5 0-11.19 7.31-18.69 7.32-7.5 18.5-7.5 11.19 0 18.69 7.31 7.5 7.32 7.5 18.5 0 11.19-7.31 18.69-7.32 7.5-18.5 7.5-11.19 0-18.69-7.31Zm0 250q-7.5-7.32-7.5-18.5 0-11.19 7.31-18.69 7.32-7.5 18.5-7.5 11.19 0 18.69 7.31 7.5 7.32 7.5 18.5 0 11.19-7.31 18.69-7.32 7.5-18.5 7.5-11.19 0-18.69-7.31Zm0 232q-7.5-7.32-7.5-18.5 0-11.19 7.31-18.69 7.32-7.5 18.5-7.5 11.19 0 18.69 7.31 7.5 7.32 7.5 18.5 0 11.19-7.31 18.69-7.32 7.5-18.5 7.5-11.19 0-18.69-7.31Zm148-288q-7.5-7.32-7.5-18.5 0-11.19 7.31-18.69 7.32-7.5 18.5-7.5 11.19 0 18.69 7.31 7.5 7.32 7.5 18.5 0 11.19-7.31 18.69-7.32 7.5-18.5 7.5-11.19 0-18.69-7.31Zm46-194q-7.5-7.32-7.5-18.5 0-11.19 7.31-18.69 7.32-7.5 18.5-7.5 11.19 0 18.69 7.31 7.5 7.32 7.5 18.5 0 11.19-7.31 18.69-7.32 7.5-18.5 7.5-11.19 0-18.69-7.31Zm0 482q-7.5-7.32-7.5-18.5 0-11.19 7.31-18.69 7.32-7.5 18.5-7.5 11.19 0 18.69 7.31 7.5 7.32 7.5 18.5 0 11.19-7.31 18.69-7.32 7.5-18.5 7.5-11.19 0-18.69-7.31Z"/></svg>