<svg xmlns="http://www.w3.org/2000/svg" height="24" viewBox="0 -960 960 960" width="24"><path d="M137-137v-173h685v173H137Zm685-512.5H137V-823h685v173.5Zm-685 314v-116L579-624h243v152.5l-370.5 136H137Zm165.75-383.12q7.25-7.12 7.25-17.25 0-10.13-7.12-17.63-7.12-7.5-17.5-7.5-10.38 0-17.63 7.37-7.25 7.37-7.25 17.5 0 10.13 7.12 17.38 7.12 7.25 17.5 7.25 10.38 0 17.63-7.12Zm2 513q7.25-7.12 7.25-17.25 0-10.13-7.12-17.63-7.12-7.5-17.5-7.5-10.38 0-17.63 7.37-7.25 7.37-7.25 17.5 0 10.13 7.12 17.38 7.12 7.25 17.5 7.25 10.38 0 17.63-7.12Zm36.5-188.5q7.25-7.12 7.25-17.5 0-10.38-7.12-17.63-7.12-7.25-17.5-7.25-10.38 0-17.63 7.12-7.25 7.12-7.25 17.5 0 10.38 7.12 17.63 7.12 7.25 17.5 7.25 10.38 0 17.63-7.12Zm156.25-324.5q7.5-7.12 7.5-17.25 0-10.13-7.37-17.63-7.37-7.5-17.5-7.5-10.13 0-17.38 7.37-7.25 7.37-7.25 17.5 0 10.13 7.12 17.38 7.12 7.25 17.25 7.25 10.13 0 17.63-7.12Zm0 262.5q7.5-7.12 7.5-17.5 0-10.38-7.37-17.63-7.37-7.25-17.5-7.25-10.13 0-17.38 7.12-7.25 7.12-7.25 17.5 0 10.38 7.12 17.63 7.12 7.25 17.25 7.25 10.13 0 17.63-7.12Zm0 250.5q7.5-7.12 7.5-17.25 0-10.13-7.37-17.63-7.37-7.5-17.5-7.5-10.13 0-17.38 7.37-7.25 7.37-7.25 17.5 0 10.13 7.12 17.38 7.12 7.25 17.25 7.25 10.13 0 17.63-7.12Zm146.25-307q7.25-7.12 7.25-17.5 0-10.38-7.12-17.63-7.12-7.25-17.5-7.25-10.38 0-17.63 7.12-7.25 7.12-7.25 17.5 0 10.38 7.12 17.63 7.12 7.25 17.5 7.25 10.38 0 17.63-7.12Zm45.5-206q7.25-7.12 7.25-17.25 0-10.13-7.12-17.63-7.12-7.5-17.5-7.5-10.38 0-17.63 7.37-7.25 7.37-7.25 17.5 0 10.13 7.12 17.38 7.12 7.25 17.5 7.25 10.38 0 17.63-7.12Zm0 513q7.25-7.12 7.25-17.25 0-10.13-7.12-17.63-7.12-7.5-17.5-7.5-10.38 0-17.63 7.37-7.25 7.37-7.25 17.5 0 10.13 7.12 17.38 7.12 7.25 17.5 7.25 10.38 0 17.63-7.12Z"/></svg>