<svg xmlns="http://www.w3.org/2000/svg" height="40" viewBox="0 -960 960 960" width="40"><path d="M73.3-73.3v-211.98h813.56V-73.3H73.3Zm813.56-600.77H73.3v-212.79h813.56v212.79ZM73.3-355.04v-114l348.98-135.17h464.58v154.57l-259.34 94.6H73.3ZM280.45-764q6.86-6.75 6.86-16.47 0-9.71-6.86-16.58-6.87-6.86-16.58-6.86-9.72 0-16.47 6.86-6.76 6.87-6.76 16.58 0 9.72 6.76 16.47 6.75 6.75 16.47 6.75 9.71 0 16.58-6.75Zm.66 601.67q6.87-6.76 6.87-16.47 0-9.72-6.87-16.58-6.86-6.87-16.58-6.87-9.71 0-16.46 6.87-6.76 6.86-6.76 16.58 0 9.71 6.76 16.47 6.75 6.75 16.46 6.75 9.72 0 16.58-6.75Zm39.08-238.37q6.86-6.75 6.86-16.46 0-9.72-6.86-16.58-6.87-6.87-16.58-6.87-9.72 0-16.47 6.87-6.76 6.86-6.76 16.58 0 9.71 6.76 16.46 6.75 6.76 16.47 6.76 9.71 0 16.58-6.76ZM496.5-764q6.83-6.75 6.83-16.5t-6.83-16.58q-6.83-6.83-16.5-6.83t-16.5 6.83q-6.83 6.83-6.83 16.58 0 9.75 6.83 16.5t16.5 6.75q9.67 0 16.5-6.75Zm2.07 310.5q6.84-6.83 6.84-16.5t-6.84-16.5q-6.83-6.83-16.58-6.83-9.74 0-16.5 6.83-6.75 6.83-6.75 16.5t6.75 16.5q6.76 6.83 16.5 6.83 9.75 0 16.58-6.83Zm-2.07 291.17q6.83-6.76 6.83-16.5 0-9.75-6.83-16.58-6.83-6.84-16.5-6.84t-16.5 6.84q-6.83 6.83-6.83 16.58 0 9.74 6.83 16.5 6.83 6.75 16.5 6.75t16.5-6.75Zm167.66-350.7q6.86-6.87 6.86-16.58 0-9.72-6.86-16.47-6.87-6.75-16.58-6.75-9.72 0-16.47 6.75-6.75 6.75-6.75 16.47 0 9.71 6.75 16.58 6.75 6.86 16.47 6.86 9.71 0 16.58-6.86ZM711.93-764q6.76-6.75 6.76-16.47 0-9.71-6.76-16.58-6.75-6.86-16.46-6.86-9.72 0-16.58 6.86-6.87 6.87-6.87 16.58 0 9.72 6.87 16.47 6.86 6.75 16.58 6.75 9.71 0 16.46-6.75Zm0 601.67q6.76-6.76 6.76-16.47 0-9.72-6.76-16.58-6.75-6.87-16.46-6.87-9.72 0-16.58 6.87-6.87 6.86-6.87 16.58 0 9.71 6.87 16.47 6.86 6.75 16.58 6.75 9.71 0 16.46-6.75Z"/></svg>