<svg xmlns="http://www.w3.org/2000/svg" height="40" viewBox="0 -960 960 960" width="40"><path d="M110.67-110.67v-157.66h737.66v157.66H110.67ZM848.33-690h-738v-159.33h738V-690ZM110.67-310.33v-144.34l498.66-195h239V-467L422.67-310.33h-312Zm179.83-442.3q7.17-6.63 7.17-16.83 0-10.21-6.97-17.37-6.96-7.17-16.83-7.17-9.87 0-17.04 6.97-7.16 6.96-7.16 17.16t6.96 17.04q6.97 6.83 16.84 6.83 9.86 0 17.03-6.63Zm2 579.98q7.17-6.64 7.17-16.71t-6.97-17.36q-6.96-7.28-16.83-7.28-9.87 0-17.04 7.1-7.16 7.09-7.16 17.16t6.96 16.91q6.97 6.83 16.84 6.83 9.86 0 17.03-6.65Zm38.88-205.66q7.29-6.32 7.29-16.72 0-10.4-7.1-17.69-7.1-7.28-17.17-7.28-10.07 0-16.9 7.1-6.83 7.09-6.83 17.5 0 10.4 6.64 16.9 6.65 6.5 16.72 6.5 10.07 0 17.35-6.31Zm164.99-374.32q7.3-6.63 7.3-16.7t-7.1-17.37q-7.1-7.3-17.17-7.3-10.07 0-16.9 7.1-6.83 7.09-6.83 17.16t6.63 16.91Q468.93-746 479-746t17.37-6.63Zm.13 298.66q7.17-6.96 7.17-16.83 0-9.87-6.97-17.03-6.96-7.17-17.17-7.17-10.2 0-17.03 6.97-6.83 6.96-6.83 16.83 0 9.87 6.63 17.03 6.63 7.17 16.83 7.17t17.37-6.97Zm0 281.32q7.17-6.64 7.17-16.71t-6.97-17.36q-6.96-7.28-17.17-7.28-10.2 0-17.03 7.1-6.83 7.09-6.83 17.16t6.63 16.91q6.63 6.83 16.83 6.83t17.37-6.65Zm154.33-339.66q7.17-6.32 7.17-16.72 0-10.4-6.97-17.69-6.96-7.28-16.83-7.28-9.87 0-17.03 7.1-7.17 7.09-7.17 17.5 0 10.4 6.97 16.9 6.96 6.5 16.83 6.5 9.87 0 17.03-6.31Zm48.87-240.32q7.3-6.63 7.3-16.7t-7.1-17.37q-7.09-7.3-17.16-7.3t-16.91 7.1q-6.83 7.09-6.83 17.16t6.63 16.91q6.63 6.83 16.7 6.83t17.37-6.63Zm.13 579.98q7.17-6.64 7.17-16.71t-6.97-17.36q-6.96-7.28-17.16-7.28t-17.04 7.1q-6.83 7.09-6.83 17.16t6.63 16.91q6.63 6.83 16.84 6.83 10.2 0 17.36-6.65Z"/></svg>