<svg xmlns="http://www.w3.org/2000/svg" height="24" viewBox="0 -960 960 960" width="24"><path d="M126.15-126.15v-328.97l398.7-155.53H126.04v-223.2h707.04v366.77l-322.81 118h322.81v222.93H126.15Zm36.81-36.93h633.08v-149.07H162.96v149.07Zm633.08-484.5v-149.34H162.96v149.34h633.08Zm-632.19 298.5h237.84l394.46-144.34v-117.23H626.46L163.85-430.77v81.69Zm100.9-354.82q-7.37-7.28-7.37-18.02 0-10.73 7.28-18.1 7.29-7.36 18.02-7.36 10.74 0 18.11 7.28 7.36 7.28 7.36 18.01 0 10.74-7.28 18.11-7.28 7.36-18.02 7.36-10.73 0-18.1-7.28Zm1.54 483.5q-7.37-7.28-7.37-17.82 0-10.55 7.28-18.11 7.28-7.55 18.02-7.55 10.74 0 18.11 7.47 7.36 7.47 7.36 18.02 0 10.54-7.28 17.91-7.28 7.36-18.02 7.36-10.74 0-18.1-7.28Zm37.08-176.76q-7.37-7.29-7.37-17.83 0-10.55 7.28-18.11 7.28-7.55 18.02-7.55 10.74 0 18.1 7.47 7.37 7.47 7.37 18.02 0 10.54-7.28 17.91-7.28 7.37-18.02 7.37-10.74 0-18.1-7.28Zm158.8-307.24q-7.36-7.28-7.36-17.82 0-10.55 7.28-18.11 7.28-7.55 17.83-7.55 10.54 0 18.1 7.47 7.56 7.47 7.56 18.02 0 10.54-7.48 17.91-7.47 7.36-18.02 7.36-10.54 0-17.91-7.28Zm0 251.43q-7.36-7.28-7.36-18.02 0-10.74 7.28-18.11 7.28-7.36 17.83-7.36 10.54 0 18.1 7.28 7.56 7.28 7.56 18.02 0 10.74-7.48 18.1-7.47 7.37-18.02 7.37-10.54 0-17.91-7.28Zm0 232.57q-7.36-7.28-7.36-17.82 0-10.55 7.28-18.11 7.28-7.55 17.83-7.55 10.54 0 18.1 7.47 7.56 7.47 7.56 18.02 0 10.54-7.48 17.91-7.47 7.36-18.02 7.36-10.54 0-17.91-7.28ZM610.6-509.28q-7.37-7.28-7.37-18.02 0-10.74 7.28-18.1 7.28-7.37 18.02-7.37 10.74 0 18.1 7.28 7.37 7.28 7.37 18.02 0 10.74-7.28 18.1-7.28 7.37-18.02 7.37-10.74 0-18.1-7.28Zm46.3-195.12q-7.36-7.28-7.36-17.82 0-10.55 7.28-18.11 7.28-7.55 18.02-7.55 10.74 0 18.1 7.47 7.37 7.47 7.37 18.02 0 10.54-7.28 17.91-7.28 7.36-18.02 7.36-10.74 0-18.11-7.28Zm0 484q-7.36-7.28-7.36-17.82 0-10.55 7.28-18.11 7.28-7.55 18.02-7.55 10.74 0 18.1 7.47 7.37 7.47 7.37 18.02 0 10.54-7.28 17.91-7.28 7.36-18.02 7.36-10.74 0-18.11-7.28Z"/></svg>