<svg xmlns="http://www.w3.org/2000/svg" height="40" viewBox="0 -960 960 960" width="40"><path d="M132-132v-177.67h695V-132H132Zm695-516.67H132V-828h695v179.33ZM132-334.33v-116.34l448-174h247v153.34l-376 137H132ZM298.5-721.3q7.17-6.96 7.17-16.83 0-9.87-6.97-17.04-6.96-7.16-16.83-7.16-9.87 0-17.04 6.96-7.16 6.97-7.16 16.84 0 9.86 6.96 17.03 6.97 7.17 16.84 7.17 9.86 0 17.03-6.97Zm2 517.99q7.17-6.65 7.17-16.72 0-10.07-6.97-17.35-6.96-7.29-16.83-7.29-9.87 0-17.04 7.1-7.16 7.1-7.16 17.17 0 10.07 6.96 16.9 6.97 6.83 16.84 6.83 9.86 0 17.03-6.64Zm37.55-190.34q7.28-6.64 7.28-16.71t-7.09-17.36q-7.1-7.28-17.17-7.28-10.07 0-16.9 7.1-6.84 7.09-6.84 17.16t6.65 16.91q6.65 6.83 16.72 6.83 10.07 0 17.35-6.65ZM496.83-721.3q7.17-6.96 7.17-16.83 0-9.87-6.97-17.04-6.96-7.16-16.83-7.16-9.87 0-17.03 6.96-7.17 6.97-7.17 16.84 0 9.86 6.97 17.03 6.96 7.17 16.83 7.17 9.87 0 17.03-6.97Zm0 267.33q7.17-6.96 7.17-16.83 0-9.87-6.97-17.03-6.96-7.17-16.83-7.17-9.87 0-17.03 6.97-7.17 6.96-7.17 16.83 0 9.87 6.97 17.03 6.96 7.17 16.83 7.17 9.87 0 17.03-6.97Zm0 250.66q7.17-6.65 7.17-16.72 0-10.07-6.97-17.35-6.96-7.29-16.83-7.29-9.87 0-17.03 7.1-7.17 7.1-7.17 17.17 0 10.07 6.97 16.9 6.96 6.83 16.83 6.83 9.87 0 17.03-6.64Zm148.67-307q7.17-6.65 7.17-16.72 0-10.07-6.97-17.35-6.96-7.29-16.83-7.29-9.87 0-17.04 7.1-7.16 7.1-7.16 17.17 0 10.07 6.96 16.9 6.97 6.83 16.84 6.83 9.86 0 17.03-6.64Zm46.67-210.99q7.16-6.96 7.16-16.83 0-9.87-6.96-17.04-6.97-7.16-16.84-7.16-9.86 0-17.03 6.96-7.17 6.97-7.17 16.84 0 9.86 6.97 17.03 6.96 7.17 16.83 7.17 9.87 0 17.04-6.97Zm0 517.99q7.16-6.65 7.16-16.72 0-10.07-6.96-17.35-6.97-7.29-16.84-7.29-9.86 0-17.03 7.1-7.17 7.1-7.17 17.17 0 10.07 6.97 16.9 6.96 6.83 16.83 6.83 9.87 0 17.04-6.64Z"/></svg>