<svg xmlns="http://www.w3.org/2000/svg" height="24" viewBox="0 -960 960 960" width="24"><path d="M70.78-70.78v-202.37h818.44v202.37H70.78Zm818.44-615.94H70.28v-202.5h818.94v202.5ZM70.78-357.26v-127.33l301.94-118.09h516.5v168.4l-210.68 77.02H70.78Zm219.51-411.05q7.75-7.81 7.75-19.75 0-11.94-7.8-19.69-7.81-7.75-19.75-7.75-11.95 0-19.7 7.81-7.75 7.8-7.75 19.75 0 11.94 7.81 19.69 7.81 7.75 19.75 7.75 11.94 0 19.69-7.81Zm0 616q7.75-7.8 7.75-19.75 0-11.94-7.8-19.69-7.81-7.75-19.75-7.75-11.95 0-19.7 7.81t-7.75 19.75q0 11.94 7.81 19.69 7.81 7.75 19.75 7.75 11.94 0 19.69-7.81Zm34.48-254.89q7.75-7.81 7.75-19.75 0-11.94-7.81-19.69-7.8-7.75-19.75-7.75-11.94 0-19.69 7.81-7.75 7.8-7.75 19.75 0 11.94 7.81 19.69 7.81 7.75 19.75 7.75 11.94 0 19.69-7.81Zm174.98-361.11q7.75-7.81 7.75-19.75 0-11.94-7.81-19.69-7.81-7.75-19.75-7.75-11.94 0-19.69 7.81-7.75 7.8-7.75 19.75 0 11.94 7.81 19.69 7.81 7.75 19.75 7.75 11.94 0 19.69-7.81Zm5.65 312.5q7.75-7.81 7.75-19.75 0-11.94-7.81-19.69-7.8-7.75-19.75-7.75-11.94 0-19.69 7.81-7.75 7.81-7.75 19.75 0 11.94 7.81 19.69 7.81 7.75 19.75 7.75 11.94 0 19.69-7.81Zm-5.65 303.5q7.75-7.8 7.75-19.75 0-11.94-7.81-19.69-7.81-7.75-19.75-7.75-11.94 0-19.69 7.81-7.75 7.81-7.75 19.75 0 11.94 7.81 19.69 7.81 7.75 19.75 7.75 11.94 0 19.69-7.81Zm170.63-359.41q7.75-7.81 7.75-19.75 0-11.94-7.81-19.69-7.81-7.75-19.75-7.75-11.94 0-19.69 7.81-7.75 7.8-7.75 19.75 0 11.94 7.81 19.69 7.81 7.75 19.75 7.75 11.94 0 19.69-7.81Zm38.83-256.59q7.75-7.81 7.75-19.75 0-11.94-7.81-19.69-7.81-7.75-19.75-7.75-11.94 0-19.69 7.81-7.75 7.8-7.75 19.75 0 11.94 7.8 19.69 7.81 7.75 19.75 7.75 11.95 0 19.7-7.81Zm0 616q7.75-7.8 7.75-19.75 0-11.94-7.81-19.69-7.81-7.75-19.75-7.75-11.94 0-19.69 7.81-7.75 7.81-7.75 19.75 0 11.94 7.8 19.69 7.81 7.75 19.75 7.75 11.95 0 19.7-7.81Z"/></svg>