<svg xmlns="http://www.w3.org/2000/svg" height="20" viewBox="0 -960 960 960" width="20"><path d="m59.65-60.65 1-430.74 218.46-76.78H59.65v-331.18h839.7l1 442.22-177.02 64.78h176.02v331.7H59.65ZM162.2-163.2h634.6v-126.6H162.2v126.6Zm634.6-507.52V-796.8H162.2l1 126.08H796.8ZM163.91-389.96H419l379.8-137.76v-42.85H579.24L163.91-420.52v30.56Zm95.21-326.92Q252-724 252-733.93t7.12-16.88q7.12-6.95 17.05-6.95 9.92 0 16.88 6.95 6.95 6.95 6.95 16.88t-6.95 17.05q-6.96 7.12-16.88 7.12-9.93 0-17.05-7.12Zm0 507.69q-7.12-6.95-7.12-16.88t7.12-17.05q7.12-7.12 17.05-7.12 9.92 0 16.88 7.12Q300-236 300-226.07t-6.95 16.88q-6.96 6.95-16.88 6.95-9.93 0-17.05-6.95ZM309.24-412q-7-7-7-17t7-17q7-7 17-7t17 7q7 7 7 17t-7 17q-7 7-17 7t-17-7Zm152.95-304.88q-6.95-7.12-6.95-17.05t6.95-16.88q6.95-6.95 16.88-6.95t17.05 6.95q7.12 6.95 7.12 16.88t-7.12 17.05q-7.12 7.12-17.05 7.12t-16.88-7.12Zm.05 253.88q-7-7-7-17t7-17q7-7 16.88-7 9.88 0 17 7 7.12 7 7.12 17t-7.12 17q-7.12 7-17 7-9.88 0-16.88-7Zm-.05 253.81q-6.95-6.95-6.95-16.88t6.95-17.05q6.95-7.12 16.88-7.12t17.05 7.12q7.12 7.12 7.12 17.05t-7.12 16.88q-7.12 6.95-17.05 6.95t-16.88-6.95ZM615-514q-7-7-7-17t7-17q7-7 17-7t17 7q7 7 7 17t-7 17q-7 7-17 7t-17-7Zm51-202.88q-7-7.12-7-17 0-9.88 7-16.88 7-7 17-7t17 7q7 7 7 16.88 0 9.88-7 17-7 7.12-17 7.12t-17-7.12Zm0 507.64q-7-7-7-16.88 0-9.88 7-17 7-7.12 17-7.12t17 7.12q7 7.12 7 17 0 9.88-7 16.88-7 7-17 7t-17-7Z"/></svg>