<svg xmlns="http://www.w3.org/2000/svg" height="40" viewBox="0 -960 960 960" width="40"><path d="M132-132v-318.67l427.33-166H132V-828h695v356.67l-354 129h354V-132H132Zm24-24h647v-162.33H156V-156Zm647-484.67V-804H156v163.33h647ZM157-342.33h246l400-146.34v-128H625.67L157-435.33v93ZM264.83-705.3q-7.16-6.96-7.16-16.83 0-9.87 6.96-17.04 6.97-7.16 16.84-7.16 9.86 0 17.03 6.96 7.17 6.97 7.17 16.84 0 9.86-6.97 17.03-6.96 7.17-16.83 7.17-9.87 0-17.04-6.97Zm2 484.67q-7.16-6.97-7.16-16.84 0-9.86 6.96-17.03 6.97-7.17 16.84-7.17 9.86 0 17.03 6.97 7.17 6.96 7.17 16.83 0 9.87-6.97 17.04-6.96 7.16-16.83 7.16-9.87 0-17.04-6.96Zm37.34-177.02q-6.84-6.64-6.84-16.71t6.65-17.36q6.65-7.28 16.72-7.28 10.07 0 17.35 7.1 7.28 7.09 7.28 17.16t-7.09 16.91q-7.1 6.83-17.17 6.83-10.07 0-16.9-6.65Zm159-307.78q-7.17-7.1-7.17-17.17 0-10.07 6.97-16.9 6.96-6.83 16.83-6.83 9.87 0 17.03 6.64 7.17 6.65 7.17 16.72 0 10.07-6.97 17.35-6.96 7.29-16.83 7.29-9.87 0-17.03-7.1Zm0 251.46Q456-460.93 456-470.8q0-9.87 6.97-17.03 6.96-7.17 16.83-7.17 9.87 0 17.03 6.97 7.17 6.96 7.17 16.83 0 9.87-6.97 17.03-6.96 7.17-16.83 7.17-9.87 0-17.03-6.97Zm0 233.34Q456-227.6 456-237.47q0-9.86 6.97-17.03 6.96-7.17 16.83-7.17 9.87 0 17.03 6.97 7.17 6.96 7.17 16.83 0 9.87-6.97 17.04-6.96 7.16-16.83 7.16-9.87 0-17.03-6.96Zm148.66-289.68q-7.16-6.65-7.16-16.72 0-10.07 6.96-17.35 6.97-7.29 16.84-7.29 9.86 0 17.03 7.1 7.17 7.1 7.17 17.17 0 10.07-6.97 16.9-6.96 6.83-16.83 6.83-9.87 0-17.04-6.64Zm46.67-195.12q-7.17-7.1-7.17-17.17 0-10.07 6.97-16.9 6.96-6.83 16.83-6.83 9.87 0 17.04 6.64 7.16 6.65 7.16 16.72 0 10.07-6.96 17.35-6.97 7.29-16.84 7.29-9.86 0-17.03-7.1Zm0 484.8q-7.17-6.97-7.17-16.84 0-9.86 6.97-17.03 6.96-7.17 16.83-7.17 9.87 0 17.04 6.97 7.16 6.96 7.16 16.83 0 9.87-6.96 17.04-6.97 7.16-16.84 7.16-9.86 0-17.03-6.96Z"/></svg>