<svg xmlns="http://www.w3.org/2000/svg" height="24" viewBox="0 -960 960 960" width="24"><path d="M108.08-108.08v-352.23l369.85-144.77H107.77v-246.84h743.77v391.38l-289.16 105.5h289.16v246.96H108.08Zm55.65-55.96h631.54v-135.04H163.73v135.04Zm631.54-497v-134.92H163.73v134.92h631.54Zm-630.85 306h233.43l397.73-144.92v-105.12H632.23L164.42-422.89v67.85Zm95.33-354.31q-7.56-7.55-7.56-18.89t7.55-18.89q7.54-7.56 18.88-7.56t18.9 7.54q7.56 7.55 7.56 18.89t-7.55 18.9q-7.54 7.55-18.88 7.55t-18.9-7.54Zm.77 496q-7.56-7.55-7.56-18.79 0-11.25 7.55-18.9 7.54-7.65 18.88-7.65t18.9 7.64q7.56 7.64 7.56 18.88 0 11.25-7.55 18.8-7.54 7.56-18.88 7.56t-18.9-7.54Zm38.04-181.39q-7.56-7.54-7.56-18.79 0-11.24 7.54-18.89 7.55-7.66 18.89-7.66t18.9 7.64q7.55 7.64 7.55 18.89 0 11.24-7.54 18.8-7.54 7.56-18.88 7.56t-18.9-7.55Zm162.65-315.11q-7.56-7.55-7.56-18.79 0-11.24 7.55-18.9 7.54-7.65 18.79-7.65 11.24 0 18.89 7.64 7.66 7.64 7.66 18.88 0 11.25-7.64 18.81-7.64 7.55-18.89 7.55-11.24 0-18.8-7.54Zm0 257.96q-7.56-7.54-7.56-18.89 0-11.34 7.55-18.89 7.54-7.56 18.79-7.56 11.24 0 18.89 7.54 7.66 7.55 7.66 18.89t-7.64 18.9q-7.64 7.55-18.89 7.55-11.24 0-18.8-7.54Zm0 238.54q-7.56-7.55-7.56-18.79 0-11.25 7.55-18.9 7.54-7.65 18.79-7.65 11.24 0 18.89 7.64 7.66 7.64 7.66 18.88 0 11.25-7.64 18.8-7.64 7.56-18.89 7.56-11.24 0-18.8-7.54Zm152.46-296.19q-7.55-7.55-7.55-18.89t7.54-18.9q7.54-7.55 18.88-7.55t18.9 7.54q7.56 7.54 7.56 18.88t-7.54 18.9q-7.55 7.56-18.89 7.56t-18.9-7.54Zm47.66-200.31q-7.56-7.55-7.56-18.79 0-11.24 7.54-18.9 7.55-7.65 18.89-7.65t18.9 7.64q7.55 7.64 7.55 18.88 0 11.25-7.54 18.81-7.55 7.55-18.89 7.55t-18.89-7.54Zm0 496.5q-7.56-7.55-7.56-18.79 0-11.25 7.54-18.9 7.55-7.65 18.89-7.65t18.9 7.64q7.55 7.64 7.55 18.88 0 11.25-7.54 18.8-7.55 7.56-18.89 7.56t-18.89-7.54Z"/></svg>