<svg xmlns="http://www.w3.org/2000/svg" height="48" viewBox="0 -960 960 960" width="48"><path d="M64-64v-400l385-148H64v-284h832l1 440-295 108h294v284H64Zm73-73h686v-138H137v138Zm686-548v-138H137v138h686ZM137-348h251l436-158v-106H649L137-415v67Zm106-392q-6-6-6-14t6-14q6-6 14-6t14 6q6 6 6 14t-6 14q-6 6-14 6t-14-6Zm1 548q-6-6-6-14t6-14q6-6 14-6t14 6q6 6 6 14t-6 14q-6 6-14 6t-14-6Zm42-201.5q-6-5.5-6-14t6-14.5q6-6 14-6t14 6q6 6 6 14.5t-6 14q-6 5.5-14 5.5t-14-5.5ZM465.5-741q-5.5-6-5.5-14t5.5-14q5.5-6 14-6t14.5 6q6 6 6 14t-6 14q-6 6-14.5 6t-14-6Zm0 285q-5.5-6-5.5-14t5.5-14q5.5-6 14-6t14.5 6q6 6 6 14t-6 14q-6 6-14.5 6t-14-6Zm0 264q-5.5-6-5.5-14t5.5-14q5.5-6 14-6t14.5 6q6 6 6 14t-6 14q-6 6-14.5 6t-14-6ZM634-519.5q-6-5.5-6-14t6-14.5q6-6 14-6t14 6q6 6 6 14.5t-6 14q-6 5.5-14 5.5t-14-5.5ZM687.5-741q-5.5-6-5.5-14t5.5-14q5.5-6 14-6t14.5 6q6 6 6 14t-6 14q-6 6-14.5 6t-14-6Zm0 549q-5.5-6-5.5-14t5.5-14q5.5-6 14-6t14.5 6q6 6 6 14t-6 14q-6 6-14.5 6t-14-6Z"/></svg>