<svg xmlns="http://www.w3.org/2000/svg" height="48" viewBox="0 -960 960 960" width="48"><path d="M132-132v-174.5h695V-132H132Zm695-520.5H132.5V-828H827v175.5ZM132-329v-121.5l464.5-180H827v158L434.5-329H132Zm165-395.35q7-6.85 7-15.5T297.15-756q-6.85-7.5-16-7.5T265-756.15q-7 7.35-7 16t6.85 15.65q6.85 7 16 7t16.15-6.85Zm2 521.48q7-6.37 7-15.33 0-8.95-6.85-16.63-6.85-7.67-16-7.67T267-234.95q-7 7.54-7 16.5 0 8.95 6.85 15.45t16 6.5q9.15 0 16.15-6.37Zm37.83-189.5q7.17-6.37 7.17-15.83 0-9.45-7.05-16.63-7.04-7.17-16.5-7.17-9.45 0-15.95 7.05-6.5 7.04-6.5 16.5 0 9.45 6.37 15.95t15.83 6.5q9.45 0 16.63-6.37ZM496-724.35q7.5-6.85 7.5-15.5T496.15-756q-7.35-7.5-16-7.5t-15.65 7.35q-7 7.35-7 16t6.85 15.65q6.85 7 15.5 7t16.15-6.85Zm0 269.5q7.5-6.85 7.5-16T496.15-487q-7.35-7-16-7t-15.65 6.85q-7 6.85-7 16t6.85 16.15q6.85 7 15.5 7t16.15-6.85Zm0 251.98q7.5-6.37 7.5-15.33 0-8.95-7.35-16.63-7.35-7.67-16-7.67t-15.65 7.55q-7 7.54-7 16.5 0 8.95 6.85 15.45t15.5 6.5q8.65 0 16.15-6.37Zm149-308.5q7-6.37 7-15.83 0-9.45-6.85-16.63-6.85-7.17-16-7.17T613-543.95q-7 7.04-7 16.5 0 9.45 6.85 15.95t16 6.5q9.15 0 16.15-6.37Zm47-212.98q7-6.85 7-15.5T692.15-756q-6.85-7.5-16-7.5T660-756.15q-7 7.35-7 16t6.85 15.65q6.85 7 16 7t16.15-6.85Zm0 521.48q7-6.37 7-15.33 0-8.95-6.85-16.63-6.85-7.67-16-7.67T660-234.95q-7 7.54-7 16.5 0 8.95 6.85 15.45t16 6.5q9.15 0 16.15-6.37Z"/></svg>