<svg xmlns="http://www.w3.org/2000/svg" height="20" viewBox="0 -960 960 960" width="20"><path d="M136-136v-334.23l318.69-116.54H136V-824h687.23v343.15L526.77-372.46h296.46V-136H136Zm32-32h623.23v-172.46H168V-168Zm623.23-450.77V-792H168v173.23h623.23ZM168.77-372.46h264.69l358.77-130.69v-83.62H555.92L168.77-446.92v74.46Zm114.54-318.09q-6.23-6.09-6.23-14.69 0-8.61 6.08-14.84 6.09-6.23 14.7-6.23 8.6 0 14.83 6.09t6.23 14.69q0 8.61-6.08 14.84-6.09 6.23-14.7 6.23-8.6 0-14.83-6.09Zm1.54 450.77q-6.23-6.09-6.23-14.69 0-8.61 6.08-14.84 6.09-6.23 14.7-6.23 8.6 0 14.83 6.09t6.23 14.69q0 8.61-6.09 14.84-6.08 6.23-14.69 6.23-8.6 0-14.83-6.09Zm45.69-181.23q-6.23-6.09-6.23-14.69 0-8.61 6.09-14.84 6.08-6.23 14.69-6.23 8.6 0 14.83 6.09t6.23 14.69q0 8.61-6.08 14.84-6.09 6.23-14.7 6.23-8.6 0-14.83-6.09Zm134.77-269.54q-6.23-6.09-6.23-14.69 0-8.61 6.08-14.84 6.09-6.23 14.7-6.23 8.6 0 14.83 6.09t6.23 14.69q0 8.61-6.08 14.84-6.09 6.23-14.7 6.23-8.6 0-14.83-6.09Zm0 224.62q-6.23-6.09-6.23-14.7 0-8.6 6.08-14.83 6.09-6.23 14.7-6.23 8.6 0 14.83 6.09 6.23 6.08 6.23 14.69 0 8.6-6.08 14.83-6.09 6.23-14.7 6.23-8.6 0-14.83-6.08Zm0 226.15q-6.23-6.09-6.23-14.69 0-8.61 6.08-14.84 6.09-6.23 14.7-6.23 8.6 0 14.83 6.09t6.23 14.69q0 8.61-6.08 14.84-6.09 6.23-14.7 6.23-8.6 0-14.83-6.09Zm134.77-271.08q-6.23-6.08-6.23-14.69 0-8.6 6.08-14.83 6.09-6.24 14.7-6.24 8.6 0 14.83 6.09t6.23 14.69q0 8.61-6.09 14.84-6.08 6.23-14.69 6.23-8.6 0-14.83-6.09ZM645-690.55q-6.23-6.09-6.23-14.69 0-8.61 6.09-14.84 6.08-6.23 14.69-6.23 8.6 0 14.83 6.09 6.24 6.09 6.24 14.69 0 8.61-6.09 14.84t-14.69 6.23q-8.61 0-14.84-6.09Zm0 450.77q-6.23-6.09-6.23-14.69 0-8.61 6.09-14.84 6.08-6.23 14.69-6.23 8.6 0 14.83 6.09 6.24 6.09 6.24 14.69 0 8.61-6.09 14.84t-14.69 6.23q-8.61 0-14.84-6.09Z"/></svg>