<svg xmlns="http://www.w3.org/2000/svg" height="40" viewBox="0 -960 960 960" width="40"><path d="m53.81-54.15.34-417.33 332.13-128.03H53.81v-306.72h852.42l1 459.17-238.2 86.99h237.2v305.92H53.81Zm91.35-91.34h669.35v-123.23H145.16v123.23Zm669.35-545.36v-123.66H145.16l.33 123.66h669.02Zm-667.7 335.68h240.9l427.8-155.77v-93.09h-165.7l-503 193.41v55.45Zm94.87-381.29q-6.93-7.12-6.93-16.62 0-9.49 6.93-16.21 6.93-6.72 16.61-6.72 9.69 0 16.41 6.72 6.72 6.72 6.72 16.21 0 9.5-6.72 16.62-6.72 7.11-16.41 7.11-9.68 0-16.61-7.11Zm.67 545.75q-6.93-6.72-6.93-16.21 0-9.5 6.93-16.62 6.93-7.11 16.61-7.11t16.41 7.11q6.72 7.12 6.72 16.62 0 9.49-6.72 16.21-6.73 6.72-16.41 6.72t-16.61-6.72Zm42.17-200.31q-6.91-6.31-6.91-16.43 0-10.11 6.91-17.02 6.9-6.91 16.69-6.91 9.78 0 16.42 6.91 6.65 6.91 6.65 17.02 0 10.12-6.65 16.43-6.64 6.31-16.42 6.31-9.79 0-16.69-6.31Zm178.77-346.11q-6.39-7.12-6.39-16.61 0-9.5 6.39-16.22 6.39-6.72 16.21-6.72 9.83 0 16.95 6.72 7.12 6.72 7.12 16.22 0 9.49-7.12 16.61-7.12 7.12-16.95 7.12-9.82 0-16.21-7.12Zm.11 283.63q-6.5-6.83-6.5-16.5t6.5-16.5q6.5-6.83 16.22-6.83 9.71 0 16.83 6.83 7.12 6.83 7.12 16.5t-7.12 16.5q-7.12 6.83-16.83 6.83-9.72 0-16.22-6.83Zm-.11 262.79q-6.39-6.72-6.39-16.21 0-9.5 6.39-16.62 6.39-7.11 16.21-7.11 9.83 0 16.95 7.11 7.12 7.12 7.12 16.62 0 9.49-7.12 16.21-7.12 6.72-16.95 6.72-9.82 0-16.21-6.72Zm167.64-325.94q-6.64-6.31-6.64-16.42 0-10.11 6.64-17.02 6.65-6.91 16.43-6.91t16.69 6.91q6.91 6.91 6.91 17.02t-6.91 16.42q-6.91 6.32-16.69 6.32-9.78 0-16.43-6.32Zm53.15-220.48q-6.5-7.12-6.5-16.5 0-9.38 6.5-16.22 6.5-6.83 16.69-6.83 10.19 0 16.83 6.83 6.65 6.84 6.65 16.22 0 9.38-6.65 16.5-6.64 7.12-16.83 7.12-10.19 0-16.69-7.12Zm0 546.31q-6.5-6.83-6.5-16.22 0-9.38 6.5-16.5 6.5-7.11 16.69-7.11 10.19 0 16.83 7.11 6.65 7.12 6.65 16.5 0 9.39-6.65 16.22-6.64 6.83-16.83 6.83-10.19 0-16.69-6.83Z"/></svg>