<svg xmlns="http://www.w3.org/2000/svg" height="40" viewBox="0 -960 960 960" width="40"><path d="m98.33-98.67.34-359.95 398.51-153.69H98.33v-249.02h762.23l1 397.71-317.1 115.85h316.1v249.1H98.33Zm51.18-51.18h659.87v-146.74H149.51v146.74Zm659.87-513.64v-146.66H149.51l.34 146.66h659.53ZM150.62-347.77h245.69l414.07-150.95v-113.59H636.41L150.62-425.36v77.59Zm102.52-372.14q-7.09-6.93-7.09-16.76 0-9.82 6.94-16.91 6.93-7.09 16.75-7.09t16.91 6.94q7.09 6.93 7.09 16.75 0 9.83-6.93 16.92-6.94 7.09-16.76 7.09t-16.91-6.94Zm1.69 513.64q-7.09-6.93-7.09-16.75 0-9.83 6.94-16.92 6.93-7.09 16.75-7.09 9.83 0 16.92 6.94 7.09 6.93 7.09 16.76 0 9.82-6.94 16.91-6.93 7.09-16.76 7.09-9.82 0-16.91-6.94Zm39.44-188.27q-6.83-6.35-6.83-16.66t6.69-17.49q6.69-7.18 16.66-7.18 9.98 0 17.16 7.03 7.18 7.04 7.18 17.35 0 10.31-7.04 16.81-7.03 6.5-17.01 6.5t-16.81-6.36Zm168.31-325.62q-6.76-7.04-6.76-17.02 0-9.97 6.6-16.81 6.6-6.83 16.76-6.83 10.15 0 17.24 6.69 7.09 6.69 7.09 16.67 0 9.97-6.93 17.15-6.94 7.18-17.09 7.18-10.16 0-16.91-7.03Zm0 266.3q-6.76-6.93-6.76-16.75 0-9.83 6.6-16.92 6.6-7.09 16.76-7.09 10.15 0 17.24 6.94 7.09 6.93 7.09 16.76 0 9.82-6.93 16.91-6.94 7.09-17.09 7.09-10.16 0-16.91-6.94Zm0 247.59q-6.76-6.93-6.76-16.75 0-9.83 6.6-16.92 6.6-7.09 16.76-7.09 10.15 0 17.24 6.94 7.09 6.93 7.09 16.76 0 9.82-6.93 16.91-6.94 7.09-17.09 7.09-10.16 0-16.91-6.94Zm157.89-307.09q-7.09-6.35-7.09-16.66t6.94-17.49q6.93-7.18 16.76-7.18 9.82 0 16.91 7.03 7.09 7.04 7.09 17.35 0 10.31-6.94 16.81-6.93 6.5-16.75 6.5-9.83 0-16.92-6.36Zm49.75-206.8q-6.76-7.04-6.76-17.02 0-9.97 6.6-16.81 6.6-6.83 16.76-6.83 10.15 0 17.24 6.69 7.09 6.69 7.09 16.67 0 9.97-6.93 17.15-6.94 7.18-17.09 7.18-10.16 0-16.91-7.03Zm0 513.89q-6.76-6.93-6.76-16.75 0-9.83 6.6-16.92 6.6-7.09 16.76-7.09 10.15 0 17.24 6.94 7.09 6.93 7.09 16.76 0 9.82-6.93 16.91-6.94 7.09-17.09 7.09-10.16 0-16.91-6.94Z"/></svg>