<svg xmlns="http://www.w3.org/2000/svg" height="20" viewBox="0 -960 960 960" width="20"><path d="M148-148v-319l336-123H148v-222h663v327L494-369h317v221H148Zm20-20h623v-181H168v181Zm623-442v-182H168v182h623ZM169-369h267l356-130v-91H552L169-452v83Zm118-317.81q-6-5.82-6-14 0-8.19 5.81-14.19 5.82-6 14-6 8.19 0 14.19 5.81 6 5.82 6 14 0 8.19-5.81 14.19-5.82 6-14 6-8.19 0-14.19-5.81Zm2 442q-6-5.82-6-14 0-8.19 5.81-14.19 5.82-6 14-6 8.19 0 14.19 5.81 6 5.82 6 14 0 8.19-5.81 14.19-5.82 6-14 6-8.19 0-14.19-5.81Zm45-178q-6-5.82-6-14 0-8.19 5.81-14.19 5.82-6 14-6 8.19 0 14.19 5.81 6 5.82 6 14 0 8.19-5.81 14.19-5.82 6-14 6-8.19 0-14.19-5.81Zm132-264q-6-5.82-6-14 0-8.19 5.81-14.19 5.82-6 14-6 8.19 0 14.19 5.81 6 5.82 6 14 0 8.19-5.81 14.19-5.82 6-14 6-8.19 0-14.19-5.81Zm0 220q-6-5.82-6-14 0-8.19 5.81-14.19 5.82-6 14-6 8.19 0 14.19 5.81 6 5.82 6 14 0 8.19-5.81 14.19-5.82 6-14 6-8.19 0-14.19-5.81Zm0 222q-6-5.82-6-14 0-8.19 5.81-14.19 5.82-6 14-6 8.19 0 14.19 5.81 6 5.82 6 14 0 8.19-5.81 14.19-5.82 6-14 6-8.19 0-14.19-5.81Zm132-266q-6-5.82-6-14 0-8.19 5.81-14.19 5.82-6 14-6 8.19 0 14.19 5.81 6 5.82 6 14 0 8.19-5.81 14.19-5.82 6-14 6-8.19 0-14.19-5.81Zm44-176q-6-5.82-6-14 0-8.19 5.81-14.19 5.82-6 14-6 8.19 0 14.19 5.81 6 5.82 6 14 0 8.19-5.81 14.19-5.82 6-14 6-8.19 0-14.19-5.81Zm0 442q-6-5.82-6-14 0-8.19 5.81-14.19 5.82-6 14-6 8.19 0 14.19 5.81 6 5.82 6 14 0 8.19-5.81 14.19-5.82 6-14 6-8.19 0-14.19-5.81Z"/></svg>