<svg xmlns="http://www.w3.org/2000/svg" height="24" viewBox="0 -960 960 960" width="24"><path d="M132-132v-185h695v185H132Zm695-510H132v-186h695v186ZM132-345v-107l416-162h279v144L485-345H132Zm169.5-371.31q7.5-7.32 7.5-18.5 0-11.19-7.31-18.69-7.32-7.5-18.5-7.5-11.19 0-18.69 7.31-7.5 7.32-7.5 18.5 0 11.19 7.31 18.69 7.32 7.5 18.5 7.5 11.19 0 18.69-7.31Zm2 511q7.5-7.32 7.5-18.5 0-11.19-7.31-18.69-7.32-7.5-18.5-7.5-11.19 0-18.69 7.31-7.5 7.32-7.5 18.5 0 11.19 7.31 18.69 7.32 7.5 18.5 7.5 11.19 0 18.69-7.31Zm37-191q7.5-7.32 7.5-18.5 0-11.19-7.31-18.69-7.32-7.5-18.5-7.5-11.19 0-18.69 7.31-7.5 7.32-7.5 18.5 0 11.19 7.31 18.69 7.32 7.5 18.5 7.5 11.19 0 18.69-7.31Zm158-320q7.5-7.32 7.5-18.5 0-11.19-7.31-18.69-7.32-7.5-18.5-7.5-11.19 0-18.69 7.31-7.5 7.32-7.5 18.5 0 11.19 7.31 18.69 7.32 7.5 18.5 7.5 11.19 0 18.69-7.31Zm0 264q7.5-7.32 7.5-18.5 0-11.19-7.31-18.69-7.32-7.5-18.5-7.5-11.19 0-18.69 7.31-7.5 7.32-7.5 18.5 0 11.19 7.31 18.69 7.32 7.5 18.5 7.5 11.19 0 18.69-7.31Zm0 247q7.5-7.32 7.5-18.5 0-11.19-7.31-18.69-7.32-7.5-18.5-7.5-11.19 0-18.69 7.31-7.5 7.32-7.5 18.5 0 11.19 7.31 18.69 7.32 7.5 18.5 7.5 11.19 0 18.69-7.31Zm148-303q7.5-7.32 7.5-18.5 0-11.19-7.31-18.69-7.32-7.5-18.5-7.5-11.19 0-18.69 7.31-7.5 7.32-7.5 18.5 0 11.19 7.31 18.69 7.32 7.5 18.5 7.5 11.19 0 18.69-7.31Zm46-208q7.5-7.32 7.5-18.5 0-11.19-7.31-18.69-7.32-7.5-18.5-7.5-11.19 0-18.69 7.31-7.5 7.32-7.5 18.5 0 11.19 7.31 18.69 7.32 7.5 18.5 7.5 11.19 0 18.69-7.31Zm0 511q7.5-7.32 7.5-18.5 0-11.19-7.31-18.69-7.32-7.5-18.5-7.5-11.19 0-18.69 7.31-7.5 7.32-7.5 18.5 0 11.19 7.31 18.69 7.32 7.5 18.5 7.5 11.19 0 18.69-7.31Z"/></svg>