<svg xmlns="http://www.w3.org/2000/svg" height="40" viewBox="0 -960 960 960" width="40"><path d="M100-100v-201.87h759.61V-100H100Zm759.61-557.28H100V-860h759.61v202.72ZM100-352.18v-105.87l384.42-148.98h375.19v144.93L557.66-352.18H100Zm188.24-389.75q6.97-6.89 6.97-16.63 0-9.75-6.89-16.71-6.88-6.96-16.63-6.96-9.74 0-16.7 6.88-6.96 6.89-6.96 16.63 0 9.75 6.88 16.71 6.88 6.96 16.63 6.96 9.74 0 16.7-6.88Zm1.18 558.19q6.96-6.76 6.96-16.58 0-9.82-6.88-16.83-6.88-7-16.63-7-9.74 0-16.7 6.93-6.96 6.93-6.96 16.76 0 9.82 6.88 16.65 6.88 6.83 16.63 6.83 9.74 0 16.7-6.76Zm39.47-213.51q7.01-6.76 7.01-16.58 0-9.82-6.94-16.83-6.93-7.01-16.75-7.01t-16.66 6.94q-6.83 6.93-6.83 16.75 0 9.83 6.76 16.66t16.58 6.83q9.83 0 16.83-6.76Zm167.74-344.68q6.96-6.89 6.96-16.63 0-9.75-6.88-16.71-6.89-6.96-16.63-6.96-9.75 0-16.71 6.88-6.96 6.89-6.96 16.63 0 9.75 6.88 16.71 6.89 6.96 16.63 6.96 9.75 0 16.71-6.88Zm0 288.25q6.96-6.88 6.96-16.63 0-9.74-6.88-16.7-6.89-6.96-16.63-6.96-9.75 0-16.71 6.88-6.96 6.88-6.96 16.63 0 9.74 6.88 16.7 6.89 6.96 16.63 6.96 9.75 0 16.71-6.88Zm0 269.94q6.96-6.76 6.96-16.58 0-9.82-6.88-16.83-6.89-7-16.63-7-9.75 0-16.71 6.93-6.96 6.93-6.96 16.76 0 9.82 6.88 16.65 6.89 6.83 16.63 6.83 9.75 0 16.71-6.76ZM653.91-513.1q6.96-6.76 6.96-16.58 0-9.82-6.88-16.83-6.89-7-16.63-7-9.74 0-16.71 6.93-6.96 6.94-6.96 16.76t6.89 16.65q6.88 6.84 16.62 6.84 9.75 0 16.71-6.77Zm49.54-228.83q6.96-6.89 6.96-16.63 0-9.75-6.88-16.71-6.89-6.96-16.63-6.96-9.75 0-16.71 6.88-6.96 6.89-6.96 16.63 0 9.75 6.88 16.71 6.89 6.96 16.63 6.96 9.75 0 16.71-6.88Zm0 558.19q6.96-6.76 6.96-16.58 0-9.82-6.88-16.83-6.89-7-16.63-7-9.75 0-16.71 6.93-6.96 6.93-6.96 16.76 0 9.82 6.88 16.65 6.89 6.83 16.63 6.83 9.75 0 16.71-6.76Z"/></svg>