<svg xmlns="http://www.w3.org/2000/svg" height="40" viewBox="0 -960 960 960" width="40"><path d="m58.33-58.67.34-408.66L420-606.67H58.33v-294.66h843l1 449-269.67 98.66h268.67v295h-843Zm84-84h675v-127h-675v127Zm675-548v-126.66h-675l.34 126.66H817.33Zm-674.66 337h244.66l431-156.33v-96.67H650L142.67-411v57.33Zm98.16-383.83Q234-744.33 234-754t6.83-16.5q6.84-6.83 16.5-6.83 9.67 0 16.5 6.83 6.84 6.83 6.84 16.5t-6.84 16.5q-6.83 6.83-16.5 6.83-9.66 0-16.5-6.83Zm.67 548q-6.83-6.83-6.83-16.5t6.83-16.5q6.83-6.83 16.5-6.83t16.5 6.83q6.83 6.83 6.83 16.5t-6.83 16.5q-6.83 6.83-16.5 6.83t-16.5-6.83Zm42-201.33q-6.83-6.5-6.83-16.5t6.83-16.84Q290.33-431 300-431t16.5 6.83q6.83 6.84 6.83 16.84t-6.83 16.5q-6.83 6.5-16.5 6.5t-16.5-6.5Zm179.33-347.34q-6.5-6.83-6.5-16.5 0-9.66 6.5-16.5 6.5-6.83 16.5-6.83t16.84 6.83q6.83 6.84 6.83 16.5 0 9.67-6.83 16.5-6.84 6.84-16.84 6.84t-16.5-6.84Zm0 284.67q-6.5-6.83-6.5-16.5t6.5-16.5q6.5-6.83 16.5-6.83t16.84 6.83Q503-479.67 503-470t-6.83 16.5q-6.84 6.83-16.84 6.83t-16.5-6.83Zm0 264q-6.5-6.83-6.5-16.5t6.5-16.5q6.5-6.83 16.5-6.83t16.84 6.83Q503-215.67 503-206t-6.83 16.5q-6.84 6.83-16.84 6.83t-16.5-6.83ZM631.5-516.83q-6.83-6.5-6.83-16.5t6.83-16.84Q638.33-557 648-557t16.5 6.83q6.83 6.84 6.83 16.84t-6.83 16.5q-6.83 6.5-16.5 6.5t-16.5-6.5Zm53.33-221.34q-6.5-6.83-6.5-16.5 0-9.66 6.5-16.5 6.5-6.83 16.5-6.83t16.84 6.83q6.83 6.84 6.83 16.5 0 9.67-6.83 16.5-6.84 6.84-16.84 6.84t-16.5-6.84Zm0 548.67q-6.5-6.83-6.5-16.5t6.5-16.5q6.5-6.83 16.5-6.83t16.84 6.83Q725-215.67 725-206t-6.83 16.5q-6.84 6.83-16.84 6.83t-16.5-6.83Z"/></svg>