<svg xmlns="http://www.w3.org/2000/svg" height="24" viewBox="0 -960 960 960" width="24"><path d="m99-100 1-360 389-150H99v-250h760l1 397-308 113h307v250H99Zm54-54h652v-142H153v142Zm652-510v-142H153l1 142h651ZM155-350h242l409-150v-110H635L155-425v75Zm97.5-366.31q-7.5-7.32-7.5-18.5 0-11.19 7.31-18.69 7.32-7.5 18.5-7.5 11.19 0 18.69 7.31 7.5 7.32 7.5 18.5 0 11.19-7.31 18.69-7.32 7.5-18.5 7.5-11.19 0-18.69-7.31Zm2 510q-7.5-7.32-7.5-18.5 0-11.19 7.31-18.69 7.32-7.5 18.5-7.5 11.19 0 18.69 7.31 7.5 7.32 7.5 18.5 0 11.19-7.31 18.69-7.32 7.5-18.5 7.5-11.19 0-18.69-7.31Zm39-187q-7.5-7.32-7.5-18.5 0-11.19 7.31-18.69 7.32-7.5 18.5-7.5 11.19 0 18.69 7.31 7.5 7.32 7.5 18.5 0 11.19-7.31 18.69-7.32 7.5-18.5 7.5-11.19 0-18.69-7.31Zm167-323q-7.5-7.32-7.5-18.5 0-11.19 7.31-18.69 7.32-7.5 18.5-7.5 11.19 0 18.69 7.31 7.5 7.32 7.5 18.5 0 11.19-7.31 18.69-7.32 7.5-18.5 7.5-11.19 0-18.69-7.31Zm0 264q-7.5-7.32-7.5-18.5 0-11.19 7.31-18.69 7.32-7.5 18.5-7.5 11.19 0 18.69 7.31 7.5 7.32 7.5 18.5 0 11.19-7.31 18.69-7.32 7.5-18.5 7.5-11.19 0-18.69-7.31Zm0 246q-7.5-7.32-7.5-18.5 0-11.19 7.31-18.69 7.32-7.5 18.5-7.5 11.19 0 18.69 7.31 7.5 7.32 7.5 18.5 0 11.19-7.31 18.69-7.32 7.5-18.5 7.5-11.19 0-18.69-7.31Zm157-305q-7.5-7.32-7.5-18.5 0-11.19 7.31-18.69 7.32-7.5 18.5-7.5 11.19 0 18.69 7.31 7.5 7.32 7.5 18.5 0 11.19-7.31 18.69-7.32 7.5-18.5 7.5-11.19 0-18.69-7.31Zm49-205q-7.5-7.32-7.5-18.5 0-11.19 7.31-18.69 7.32-7.5 18.5-7.5 11.19 0 18.69 7.31 7.5 7.32 7.5 18.5 0 11.19-7.31 18.69-7.32 7.5-18.5 7.5-11.19 0-18.69-7.31Zm0 510q-7.5-7.32-7.5-18.5 0-11.19 7.31-18.69 7.32-7.5 18.5-7.5 11.19 0 18.69 7.31 7.5 7.32 7.5 18.5 0 11.19-7.31 18.69-7.32 7.5-18.5 7.5-11.19 0-18.69-7.31Z"/></svg>