<svg xmlns="http://www.w3.org/2000/svg" height="20" viewBox="0 -960 960 960" width="20"><path d="M458.01-142.15q-14.79 0-29-6.58-14.2-6.58-23.74-18.12l-204.89-236 19.7-20.69q9-9 19.32-9.98 10.33-.98 22.56 2.06l99.31 46.23v-265.23q0-5.34 4.04-10t10.02-4.66q5.25 0 10.05 4.64 4.81 4.64 4.81 9.95v292.45l-172.73-78.46 209.69 250.81q6.31 6.69 14.16 10.67 7.84 3.98 16.65 3.98h149.83q35.14 0 60.14-24.98 24.99-24.98 24.99-60.86V-414.5q0-16.85-11.46-28.48-11.47-11.64-28.04-11.64h-52.77v-28.92h52.77q27.88 0 48.15 20.53 20.28 20.52 20.28 48.39v157.7q0 48.06-33.34 81.41-33.34 33.36-81.08 33.36H458.01Zm10.95-312.47v-240.15q0-5.34 4.04-10 4.05-4.65 10.02-4.65 5.25 0 10.06 4.65 4.8 4.66 4.8 10v240.15h-28.92Zm-250.2-163.34q-.8-6.96-1.93-15.31-1.14-8.35-1.14-17.15 0-89.82 62.55-152.57 62.54-62.74 153-62.74 89.48 0 151.6 62.74 62.12 62.75 62.12 152.57 0 7.42-.5 15.07-.5 7.66-2.5 16.66l-27.04-5.27q1-7 1.06-13.54.06-6.54.06-13.25 0-77.2-54.24-131.63-54.23-54.43-130.37-54.43-77.81 0-132.31 54.44-54.5 54.43-54.5 131.66 0 8.25.75 14.62.75 6.37 1.25 13l-27.86 5.13Zm235.93 298.23Z"/></svg>