<svg xmlns="http://www.w3.org/2000/svg" height="48" viewBox="0 -960 960 960" width="48"><path d="M415-116q-22.21 0-42.11-9Q353-134 341-152L142-406l10.65-9.65Q164-428 182-430t33 7l107 66v-268q0-6 4.78-11.5 4.77-5.5 11.83-5.5 6.39 0 11.89 5.5Q356-631 356-625v329l-160-96 172 220q7.48 11.57 20.58 16.29 13.09 4.71 26.19 4.71H629q42.06 0 71.03-28.36Q729-207.73 729-250v-154q0-24.38-17.51-41.19Q693.97-462 669-462h-66v-35h66q38.25 0 66.63 27.79Q764-441.42 764-404v154q0 56.11-39.66 95.06Q684.69-116 629-116H415Zm47-346v-231q0-6 4.98-11.5t12.34-5.5q6.68 0 12.18 5.5T497-693v231h-35ZM169.74-600q-1.74-8-2.74-17.33-1-9.34-1-20.16 0-102.78 74-176.65Q313.99-888 421.96-888 529-888 603-814.14q74 73.86 74 176.63 0 7.51-1.5 21.01L674-603l-33-3 1-12.13q1-12.13 1-19.87 0-89.23-65.12-152.61Q512.77-854 421.96-854 329-854 265-790.66q-64 63.34-64 152.51v16.82q0 7.91 2 15.33l-33.26 6ZM462-314Z"/></svg>