<svg xmlns="http://www.w3.org/2000/svg" height="40" viewBox="0 -960 960 960" width="40"><path d="M414.98-56.09q-30.17 0-56.29-11.95-26.11-11.95-43.43-35.43L83.56-397.91l27.74-27.17q19.48-19.8 47.23-22.92 27.75-3.12 51.8 10.53l77.96 48.45v-240.79q0-17.45 12.5-30.71 12.5-13.26 31.12-13.26 18.37 0 31.5 13.26 13.14 13.26 13.14 30.71v391.72l-103.38-60.39 110.49 140.13q4.58 8.04 13.36 10.81 8.78 2.76 17.77 2.76h235q34.11 0 58.42-23.55 24.31-23.56 24.31-58.32v-167.84q0-15.76-11.76-27.44-11.76-11.68-28.54-11.68h-87.89v-88.85h87.89q53.47 0 91.43 37.65 37.96 37.64 37.96 90.32v167.84q0 71.42-50.56 120.99-50.56 49.57-121.26 49.57H414.98Zm30.92-377.52v-270.04q0-17.44 12.72-30.66 12.73-13.23 31.54-13.23 18.31 0 31.57 13.24 13.25 13.23 13.25 30.65v270.04H445.9ZM121.79-605.27q-2.12-10.57-2.66-21.82-.54-11.26-.54-23.18 0-123.82 89.45-211.44t218.43-87.62q127.74 0 217.61 87.51 89.87 87.51 89.87 211.56 0 10.17-1.5 25.54l-1.5 15.37-88.26-8.98 1.5-12.29q1.5-12.29 1.5-20.06 0-87.02-64.47-148.74-64.47-61.73-154.54-61.73-92.1 0-155.63 61.77-63.53 61.76-63.53 148.9v16.21q0 7.9 2.67 15.46l-88.4 13.54Zm380.64 294.52Z"/></svg>