<svg xmlns="http://www.w3.org/2000/svg" height="40" viewBox="0 -960 960 960" width="40"><path d="M415.33-58q-29.49 0-55.24-11.83-25.76-11.84-42.76-34.84l-230.66-293 25.98-25.31q18.68-19.35 45.52-22.35 26.83-3 50.16 10.33L291-384v-249q0-16.33 11.8-28.83 11.81-12.5 29.25-12.5 16.95 0 29.45 12.5T374-633v398.33L269.67-298l112 142q4.94 8.48 14.33 11.41 9.4 2.92 19.18 2.92h235.49q35.46 0 60.73-24.27 25.27-24.28 25.27-60.39v-168q0-16.98-12.66-29.32Q711.35-436 693.24-436h-88.91v-83.67h89q52.48 0 89.74 36.78t37.26 88.56v168q0 70.49-49.84 119.41T650.67-58H415.33Zm32-378v-271q0-16.33 11.94-28.83t29.58-12.5q17.15 0 29.65 12.5T531-707v271h-83.67ZM123.85-605.67q-2.18-10.33-2.68-21.66-.5-11.34-.5-23 0-123.05 88.13-210.02 88.14-86.98 215.24-86.98 126.02 0 214.65 86.97 88.64 86.98 88.64 210.02 0 10.01-1.5 25.34l-1.5 15.33-83-8.66 1.5-12.2q1.5-12.2 1.5-20.23 0-88.5-64.62-151.04-64.63-62.53-155.27-62.53-92.44 0-156.27 62.58-63.84 62.58-63.84 151.21V-634q0 8 2.67 15.67l-83.15 12.66ZM502.67-309Z"/></svg>