<svg xmlns="http://www.w3.org/2000/svg" height="48" viewBox="0 -960 960 960" width="48"><path d="M412.78-58q-30.99 0-56.89-11.5Q330-81 313-105L82-398l29-28.4q20-19.6 48.25-22.6 28.26-3 52.75 10l74 47v-233q0-17.83 12.48-31.41Q310.96-670 330.37-670 350-670 363-656.41q13 13.58 13 31.41v366l-120-64 127.02 161.52q4.23 8.13 12.93 10.81 8.7 2.67 16.54 2.67H646q33.24 0 56.62-23.25Q726-194.5 726-228v-167q0-14.5-11.06-26.25Q703.87-433 688.43-433H598v-91h90q53.5 0 91.75 38.37Q818-447.25 818-395v167q0 71.19-50.97 120.59Q716.06-58 646-58H412.78ZM441-433v-265q0-17.95 13.27-31.47Q467.53-743 487.14-743q18.86 0 32.36 13.59T533-698v265h-92ZM120.87-603q-1.87-11-2.37-21.5t-.5-22.95q0-123.22 90.42-210.89Q298.85-946 429.53-946q129.08 0 219.78 87.1Q740-771.8 740-647.51q0 10.51-1.5 25.51l-1.5 15-90-8 1.5-13q1.5-13 1.5-20 0-85.13-65.65-146.57Q518.71-856 429.02-856q-92.84 0-156.43 61.47T209-647.88v15.71q0 7.84 3 15.17l-91.13 14ZM491-313Z"/></svg>