<svg xmlns="http://www.w3.org/2000/svg" height="24" viewBox="0 -960 960 960" width="24"><path d="M416-34q-35.05 0-65.03-14Q321-62 300-89L57-400l41.65-42.65Q125-467 160.5-471.5T226-458l41 27v-178q0-27 19.43-47t47.5-20q29.07 0 48.57 20t19.5 47v130h40v-204q0-27 19.43-46.5t47.5-19.5Q537-749 557-729.5t20 46.5v204h113q63.08 0 107.04 44.67Q841-389.67 841-328v101q0 80.96-56.58 136.98Q727.84-34 649-34H416ZM104-606q-2-12-3-24t-1-25.02q0-132.76 100-226.37Q299.99-975 443.06-975 585-975 685-881.39 785-787.77 785-655q0 11-1.5 27.5L782-611l-135-14 1.5-11.6q1.5-11.6 1.5-18.67 0-76.73-60.59-131.23Q528.82-841 443.44-841 356-841 295.5-786.5T235-655.09v14.26q0 7.16 2 13.83l-133 21Z"/></svg>