<svg xmlns="http://www.w3.org/2000/svg" height="24" viewBox="0 -960 960 960" width="24"><path d="M416-46q-33 0-62-13.5T305-99L69-401l39-40q24-23 57.5-27t62.5 13l46 29v-188q0-26.35 17.75-44.17 17.76-17.83 44-17.83 26.25 0 44.75 17.83Q399-640.35 399-614v373l-72-32 75 95q2.05 4 5.52 5.5Q411-171 416-171h228q24.75 0 42.38-17.54Q704-206.07 704-232v-165q0-8.5-5.46-14.25T685-417h-81v-125h81q60 0 102 42.29T829-397v165q0 77.89-54 131.94Q721-46 644-46H416Zm23-371v-269q0-26.35 17.75-44.17 17.76-17.83 44-17.83 26.25 0 44.75 17.83Q564-712.35 564-686v269H439ZM114-602q-2-11-3-23t-1-25q0-129 95.91-219.5 95.9-90.5 233.58-90.5Q576-960 671.5-869.21 767-778.43 767-650q0 11-1.5 27l-1.5 16-125-13 1.5-11.13Q642-642.26 642-650q0-76-59-130.5T439-835q-85 0-144.5 54.5T235-650v15q0 7 2 14l-123 19Zm401 277Z"/></svg>