<svg xmlns="http://www.w3.org/2000/svg" height="40" viewBox="0 -960 960 960" width="40"><path d="M415.33-119.85q-21.54 0-40.89-8.57-19.36-8.58-32.36-25.91l-196.7-251.16 10.82-10.82q11.72-11.72 28.74-13.41 17.01-1.69 32.03 7.16l106.31 65v-275.57q0-6.49 4.87-11.7 4.86-5.22 12.06-5.22 6.48 0 11.7 5.22 5.22 5.21 5.22 11.7v336.08l-160.16-96.36 171.98 218.44q7.87 11.31 20.46 16.3 12.59 4.98 25.92 4.98h211.95q41.17 0 69.94-28.32Q726-210.33 726-251.59v-152.67q0-24.66-17.26-41.71-17.27-17.06-42.18-17.06h-81.74v-33.84h81.74q38.36 0 65.82 27.27 27.47 27.27 27.47 65.34v152.67q0 55.17-38.94 93.46-38.95 38.28-93.63 38.28H415.33Zm38.72-343.18v-237.33q0-6.49 4.87-11.7 4.86-5.22 12.05-5.22 6.49 0 11.71 5.22 5.22 5.21 5.22 11.7v237.33h-33.85ZM173.22-594.67q-1.99-9.46-2.71-18.76t-.72-19.67q0-101.84 71.84-174.45 71.84-72.6 175.65-72.6 102.91 0 174.87 72.6 71.95 72.6 71.95 174.42 0 8.54-1.5 21.89l-1.5 13.34-33.07-3.41 1.11-11.97q1.12-11.98 1.12-19.85 0-88.47-62.37-150.82-62.36-62.36-150.84-62.36-88.9 0-151.15 62.32-62.26 62.31-62.26 150.72 0 8.68.33 16.89.34 8.2 1.82 16.07l-32.57 5.64ZM461.15-316.1Z"/></svg>