<svg xmlns="http://www.w3.org/2000/svg" height="40" viewBox="0 -960 960 960" width="40"><path d="M415.33-98.51q-24.25 0-46.09-9.91-21.83-9.91-35.5-29.58L125.38-403.82l15.48-14.81q14.06-14.73 34.74-17.09 20.68-2.36 38.37 8.16l98.31 61V-624.8q0-9.15 6.86-17.03 6.86-7.89 17.99-7.89 9.56 0 17.45 7.89 7.88 7.88 7.88 17.03v146.18h96.92v-216.07q0-9.16 7.2-17.04 7.19-7.89 17.66-7.89 10.22 0 18.11 7.89 7.88 7.88 7.88 17.04v216.07H675.9q42.71 0 73.83 30.5 31.12 30.49 31.12 72.79v132.07q0 60.6-42.83 102.67-42.82 42.08-102.74 42.08H415.33ZM155.71-602.33q-1.48-8.8-2.36-18.76-.89-9.97-.89-21.39 0-109.18 78.53-186.76 78.53-77.58 193.07-77.58 113.41 0 192.06 77.59t78.65 186.77q0 8.54-1.5 22.72l-1.5 14.18-49.41-5.08 1.11-12.08q1.12-12.08 1.12-20.01 0-88.5-64.61-151.2-64.61-62.71-155.71-62.71-92.78 0-156.87 62.71-64.09 62.7-64.09 151.38v16.5q0 7.87 2.15 15.41l-49.75 8.31Z"/></svg>