<svg xmlns="http://www.w3.org/2000/svg" height="24" viewBox="0 -960 960 960" width="24"><path d="M416-34q-35.05 0-65.03-14Q321-62 300-89L57-400l42.02-42.42Q125-467 160.5-471.5T226-458l41 27v-178q0-27.38 19.17-47.19T333.68-676q29.32 0 48.82 19.81T402-609v380l-61-25 63.02 79.52q1.81 3.7 4.9 5.09Q412-168 415.73-168H649q22.99 0 39.99-17.31Q706-202.63 706-227v-168q0-6.67-4.56-11.84-4.56-5.16-11.3-5.16H617v-134h73q62.92 0 106.96 44.46Q841-457.08 841-395v168q0 80.82-56.58 136.91T649-34H416Zm26-378v-271q0-26.95 19.17-46.47Q480.33-749 508.67-749 537-749 557-729.47q20 19.52 20 46.47v271H442ZM104-606q-2-12-3-24t-1-25.33q0-132.45 100-226.06Q300-975 443.56-975 585-975 685-881.6T785-655q0 11-1.5 27.5L782-611l-135-14 1.5-11.73q1.5-11.73 1.5-18.54 0-76.73-60.59-131.23Q528.82-841 443.44-841 356-841 295.5-786.5T235-655.09V-641q0 7 2 14l-133 21Zm419 283Z"/></svg>