<svg xmlns="http://www.w3.org/2000/svg" height="40" viewBox="0 -960 960 960" width="40"><path d="M414.98-56.09q-30.07 0-56.23-11.95-26.17-11.95-43.49-35.43L83.56-397.91l27.65-27.22q19.57-19.75 47.32-22.87 27.75-3.12 51.8 10.53l77.96 48.45v-240.79q0-17.36 12.35-30.66 12.36-13.31 31.54-13.31 18.1 0 31.23 13.31 13.14 13.3 13.14 30.66v152.24h69.35v-226.08q0-17.43 12.78-30.66t31.29-13.23q18.5 0 31.76 13.23 13.25 13.23 13.25 30.66v226.08h157.24q53.45 0 91.42 37.58t37.97 90.38v122.96q0 71.25-50.63 120.91-50.64 49.65-121.19 49.65H414.98ZM121.61-605.27q-1.94-10.57-2.48-21.82-.54-11.26-.54-23.46 0-123.62 89.31-211.2 89.31-87.58 218.47-87.58 128.11 0 217.85 87.53 89.73 87.54 89.73 211.21 0 10.5-1.5 25.87l-1.5 15.37-88.26-8.98 1.5-12.33q1.5-12.33 1.5-20.2 0-86.92-64.43-148.6-64.43-61.69-154.58-61.69-92.1 0-155.63 61.68t-63.53 148.78v16.46q0 7.94 2.67 15.42l-88.58 13.54Z"/></svg>