<svg xmlns="http://www.w3.org/2000/svg" height="20" viewBox="0 -960 960 960" width="20"><path d="M458.85-97.87q-21.02 0-40.72-9.22-19.7-9.21-33.41-25.17l-228.57-266.5 35.11-36.35q15.67-15.43 34.84-17.42 19.16-1.99 38.83 5.46l69.35 27.7v-231.41q0-15.95 11.1-27.36 11.09-11.4 27.45-11.4 15.87 0 27.54 11.4 11.67 11.41 11.67 27.36v170.28h43.22v-217.76q0-15.95 11.09-27.36 11.1-11.4 27.46-11.4 15.86 0 27.54 11.4 11.67 11.41 11.67 27.36v217.76H667.7q40.39 0 68.81 28.79 28.42 28.8 28.42 69.19v139.43q0 60.93-41.92 103.08-41.92 42.14-102.55 42.14H458.85ZM184.07-620.93q-1.27-8.5-2.25-18.24-.99-9.74-.99-20.18 0-105.15 74.69-178.43 74.69-73.29 181.95-73.29 106.1 0 180.57 73.41 74.48 73.4 74.48 178.31 0 8.96-.5 18.32t-2.5 18.36l-76.26-10.46q1-7 1.25-13.13.25-6.13.25-13.32 0-71.95-51.65-122.84-51.64-50.88-125.64-50.88-74.17 0-126.52 50.94-52.36 50.94-52.36 122.97 0 8 .75 14.01t1.25 12.27l-76.52 12.18Z"/></svg>