<svg xmlns="http://www.w3.org/2000/svg" height="48" viewBox="0 -960 960 960" width="48"><path d="M414-63q-28.21 0-53.11-11.5Q336-86 320-108L92-397l22.65-21.65Q132-437 157-439.5t47 9.5l91 56v-262q0-14 10.24-25t25.37-11Q345-672 356-661t11 25v392l-122-74 131 166q5.48 9.57 16.29 12.79Q403.1-136 413.77-136H650q38.19 0 65.09-25.77Q742-187.55 742-226v-168q0-18.88-14.35-32.94Q713.3-441 693-441h-93v-73h93q50.17 0 86.08 35.33Q815-443.33 815-394v168q0 68.26-48.47 115.63Q718.06-63 650-63H414Zm33-378v-269q0-14 10.44-25t25.88-11Q498-746 509-735t11 25v269h-73ZM127.27-605q-2.27-10-2.77-21t-.5-22.49q0-121.18 86.21-206.85Q296.41-941 421.03-941q123.56 0 210.26 85.66Q718-769.68 718-648.51q0 9.51-1.5 24.51l-1.5 15-72-7 1.5-12.5Q646-641 646-649q0-90.89-66.15-155.44Q513.71-869 421.44-869 327-869 262-804.38q-65 64.63-65 155.61v16.94q0 8.16 3 15.83l-72.73 11ZM493-306Z"/></svg>