<svg xmlns="http://www.w3.org/2000/svg" height="20" viewBox="0 -960 960 960" width="20"><path d="M456.83-148q-12.83 0-26.33-6-13.5-6-22.5-17L206-403l17-18q8-8 16.5-8.5T259-428l106 50v-272q0-3.3 2.79-6.65 2.79-3.35 7-3.35 3.21 0 6.71 3.35T385-650v169h88v-213q0-3.3 2.79-6.65 2.79-3.35 7-3.35 3.21 0 6.71 3.35T493-694v213h159q26 0 45 19t19 45v159q0 46.3-32 78.15Q652-148 606-148H456.83ZM223-618q-1-7-2-15t-1-16.96Q220-738 280.97-799q60.98-61 149.45-61 87.58 0 148.08 61Q639-738 639-649.96q0 6.96-.5 14.46-.5 7.5-2.5 16.5l-18-4q1-7 1-13.5v-13.69q0-78.62-55.03-134.22Q508.95-840 430.42-840 351-840 295.5-784.35 240-728.7 240-650q0 8 .5 14.5T242-622l-19 4Z"/></svg>