<svg xmlns="http://www.w3.org/2000/svg" height="24" viewBox="0 -960 960 960" width="24"><path d="M416.46-120q-21.84 0-41.61-8.58-19.77-8.57-32.93-26.73L145.23-406.62l12.92-12.92q12.39-12.38 30.2-14.23 17.8-1.85 33.65 7.31l100.31 61.61v-267.46q0-7.77 5.73-13.88 5.73-6.12 14.27-6.12 7.77 0 13.88 6.12 6.12 6.11 6.12 13.88v151.54h90.77v-218.46q0-7.77 5.73-13.89 5.73-6.11 14.27-6.11 7.77 0 13.88 6.11 6.12 6.12 6.12 13.89v218.46h171.54q39.23 0 67.3 28.08Q760-424.62 760-385.38v131.53q0 56.23-39.31 95.04Q681.38-120 626.15-120H416.46ZM173.77-593.69q-2.23-9.46-2.62-18.93-.38-9.46-.38-19.69 0-102.92 71.88-175.31Q314.54-880 418.46-880q102.92 0 174.92 72.38 72 72.39 72 175.31 0 8.69-1.5 22.04l-1.5 13.35-39.23-4.39 1.12-11.5q1.11-11.5 1.11-19.5 0-86.07-60.42-146.88T418.46-840q-87.08 0-147.38 60.81-60.31 60.81-60.31 146.88v16q0 8 2 16l-39 6.62Z"/></svg>