<svg xmlns="http://www.w3.org/2000/svg" height="20" viewBox="0 -960 960 960" width="20"><path d="M457.7-56.09q-26.58 0-50.47-11.34-23.88-11.35-41.01-31.48L114.26-394.57l45.74-47.3q21.17-20.04 47.5-23.33 26.33-3.28 51.59 7.85l50.87 17.09v-196.57q0-22.69 16.26-39.58 16.26-16.89 39.93-16.89 24.24 0 41 16.89t16.76 39.58v158.26h36.7v-210.26q0-22.69 16.26-39.3 16.26-16.61 39.94-16.61 23.67 0 40.71 16.61 17.05 16.61 17.05 39.3v210.26h109.17q50.47 0 85.69 35.5 35.22 35.49 35.22 84.98V-227q0 71.65-49.84 121.28-49.84 49.63-120.51 49.63H457.7ZM149.65-631.43q-1-9.57-2.28-20.57-1.28-11-1.28-22.55 0-119.19 88.49-202.56t215.25-83.37q125.74 0 213.98 83.38 88.23 83.37 88.23 202.57 0 9.96-.5 20.75-.5 10.78-2.5 19.78l-112.95-14.13q1-7 1.5-13.6t.5-13.3q0-71.39-55.05-121.72-55.05-50.34-132.83-50.34-79.3 0-134.73 50.39-55.44 50.39-55.44 122.05 0 7.52.5 13.4.5 5.89 1.5 11.99l-112.39 17.83Z"/></svg>