<svg xmlns="http://www.w3.org/2000/svg" height="24" viewBox="0 -960 960 960" width="24"><path d="M416-132q-20 0-38.5-8T347-165L157-408l9-9q11-11 26.5-12.5T222-423l107 66v-273q0-5 4-9.5t10-4.5q5 0 9.5 4.5t4.5 9.5v149h100v-215q0-5 4-9.5t10-4.5q5 0 9.5 4.5t4.5 9.5v215h175q36 0 62 26t26 62v135q0 53-37 89.5T622-132H416ZM183-593q-2-9-2.5-18t-.5-19q0-99 69-168.5T418-868q99 0 168 69.5T655-630q0 8-1.5 21l-1.5 13-27-3 1-11.5q1-11.5 1-19.5 0-87-61-148.5T418-840q-88 0-149 61.5T208-630v16q0 8 2 16l-27 5Z"/></svg>