<svg xmlns="http://www.w3.org/2000/svg" height="40" viewBox="0 -960 960 960" width="40"><path d="M414.5-53.48q-31.11 0-57.71-12.11-26.6-12.12-44.36-36.25L79.32-398.23l30.14-29.7q20.55-20.43 49.56-23.71 29-3.29 54.02 10.8l71.55 44.97v-229.59q0-18.98 13.45-33.27 13.45-14.28 33.69-14.28 20.28 0 34.29 14.28 14.01 14.29 14.01 33.27v382.69l-102.07-56.36 108.43 137.59q4.08 7.44 12.02 9.98 7.95 2.55 15.86 2.55h234.32q32.28 0 55.28-22.58t23-55.5v-167.62q0-14.1-10.53-24.87-10.54-10.77-25.5-10.77h-86.51v-95.91h86.37q54.82 0 93.74 38.83 38.91 38.82 38.91 92.72v167.62q0 72.7-51.54 123.16-51.53 50.45-123.22 50.45H414.5Zm29.44-376.87v-268.74q0-18.94 13.8-33.15 13.8-14.21 34.2-14.21 19.9 0 34.19 14.23 14.29 14.24 14.29 33.13v268.74h-96.48ZM118.98-604.72q-2.02-10.9-2.62-22.05-.59-11.14-.59-23.42 0-124.88 91.23-213.37 91.23-88.48 222.78-88.48 130.09 0 221.64 88.23 91.55 88.23 91.55 213.66 0 10.38-1.5 25.81l-1.5 15.43-95.43-9.42 1.5-12.42q1.5-12.41 1.5-19.82 0-85.01-64.25-145.62-64.26-60.61-153.55-60.61-91.64 0-154.76 60.64-63.11 60.64-63.11 145.76v15.77q0 7.75 2.67 15.17l-95.56 14.74ZM502.1-313.14Z"/></svg>