<svg xmlns="http://www.w3.org/2000/svg" height="20" viewBox="0 -960 960 960" width="20"><path d="M457.33-153q-12.83 0-25.83-6-13-6-21.5-16.5L211-404l16-17q7.5-7.5 15.75-8.25T261.5-428l106 50.5v-271q0-2.8 2.29-5.9 2.29-3.1 6-3.1 2.71 0 5.96 3.1t3.25 5.9v167h88V-692q0-2.8 2.29-5.9 2.29-3.1 6-3.1 2.71 0 5.96 3.1t3.25 5.9v210.5h159q25 0 43.25 18.5T711-419.5v159q0 45.3-31.25 76.4Q648.5-153 604-153H457.33ZM227-617.5q-.5-6.5-1.75-14.5T224-648.46Q224-735 283.97-795q59.98-60 146.95-60 85.58 0 145.08 60 59.5 60 59.5 146.54 0 6.96-.5 14.21-.5 7.25-2.5 16.25l-15.5-4q1-7 1-13.5v-13.19q0-78.12-54.78-133.47-54.77-55.34-132.3-55.34-78.92 0-134.17 55.4-55.25 55.4-55.25 133.6 0 8 .75 14.5t1.25 13l-16.5 3.5Z"/></svg>