<svg xmlns="http://www.w3.org/2000/svg" height="48" viewBox="0 -960 960 960" width="48"><path d="M413.31-60.17q-29.78 0-55.24-11.5t-42.03-34.63L86.35-397.57l26.24-25.46q18.84-19.06 45.68-21.84 26.84-2.78 50.25 9.78l81.39 50.92v-245.61q0-16.16 11.51-28.63 11.51-12.46 29.06-12.46 17.35 0 29.48 12.46 12.13 12.47 12.13 28.63v377.3l-120.87-68.35 128.75 163.47q4.77 8.76 14.39 11.67 9.61 2.91 18.69 2.91h234.69q35.39 0 60.3-24.35 24.92-24.35 24.92-60v-167.44q0-16.4-12.5-29.15-12.49-12.76-30.04-12.76h-91.55v-83.17h91.3q52.05 0 89.29 37.05 37.24 37.05 37.24 88.03v167.44q0 69.91-49.89 118.43-49.88 48.53-119.07 48.53H413.31Zm30.3-376.31v-266.74q0-16.23 12.04-28.66 12.03-12.42 29.83-12.42 17.04 0 29.46 12.46 12.41 12.46 12.41 28.62v266.74h-83.74ZM123.65-603.87q-2.04-10.56-2.54-21.28t-.5-22.75q0-122.34 88.59-209.13 88.59-86.8 216.63-86.8 126.69 0 215.65 86.48 88.96 86.47 88.96 209.41 0 10.07-1.5 25.07l-1.5 15-82.18-7.56 1.5-12.79q1.5-12.78 1.5-20.21 0-87.64-65.86-150.43-65.87-62.79-156.68-62.79-93.53 0-157.73 62.84-64.21 62.84-64.21 150.54v16.25q0 7.98 3 15.45l-83.13 12.7Zm368.22 293.91Z"/></svg>