<svg xmlns="http://www.w3.org/2000/svg" height="40" viewBox="0 -960 960 960" width="40"><path d="M415.33-99.59q-24.1 0-45.45-9.54-21.34-9.54-36.01-28.54L126.03-402.41l16.07-16.08q14.03-14.02 34.12-16.04 20.09-2.01 37.93 8.25l98.49 60v-270.95q0-10.08 7.23-17.6 7.22-7.53 17.9-7.53 10.08 0 17.6 7.53 7.53 7.52 7.53 17.6v361.2l-142.08-85.84 152.49 193.05q6.97 10.42 18.43 14.7 11.46 4.27 23.59 4.27h219.64q39.15 0 66.76-26.99 27.6-26.99 27.6-66.29V-400.8q0-22.16-15.71-37.77-15.72-15.61-38.34-15.61h-91.87v-50.26h91.87q43.21 0 73.76 30.36 30.55 30.36 30.55 73.28v157.67q0 60.11-42.48 101.82-42.48 41.72-102.14 41.72H415.33Zm32.7-354.59v-252.33q0-10.08 7.22-17.6 7.22-7.53 17.9-7.53 10.08 0 17.61 7.53 7.52 7.52 7.52 17.6v252.33h-50.25ZM157.2-596.33q-2.25-10.23-2.78-20.22-.52-9.98-.52-20.66 0-108.78 76.57-185.99 76.57-77.21 186.84-77.21 109.31 0 186.19 77.2t76.88 185.98q0 9.44-1.5 23.36l-1.5 13.92-49.87-5.2 1.31-12.08q1.31-12.07 1.31-20 0-88.36-62.29-150.64-62.28-62.28-150.65-62.28-88.78 0-150.91 62.28-62.13 62.28-62.13 150.65 0 8.59.34 16.86.33 8.27 2.07 16.21l-49.36 7.82Zm317.54 282.28Z"/></svg>