<svg xmlns="http://www.w3.org/2000/svg" height="24" viewBox="0 -960 960 960" width="24"><path d="M416-100q-24.05 0-46.03-10Q348-120 334-140L127-405l15.65-15.65Q158-436 178.5-438.5 199-441 217-430l95 60v-247q0-9 7.45-17.5 7.46-8.5 18.48-8.5 10.07 0 18.57 8.5T365-617v341l-134-80 144 184q6.86 9.29 17.68 14.14Q403.5-153 416-153h218q38 0 65-26.45T726-245v-157q0-21.67-15.03-36.34Q695.94-453 673.71-453H618v-53h56q43.08 0 74.04 30.67Q779-444.67 779-402v157q0 60.72-42.59 102.86Q693.81-100 634-100H416Zm49-353v-234q0-9 7.45-17.5 7.46-8.5 18.48-8.5 10.07 0 18.57 8.5T518-687v234h-53ZM157-604q-1-9-2-19t-1-21.02q0-109.36 79.5-186.67Q312.99-908 427.99-908 542-908 621.5-830.69 701-753.37 701-644q0 8-1.5 22.5L698-607l-52-6 1-11.6q1-11.6 1-19.67 0-87.88-64.27-149.31Q519.46-855 428.28-855 336-855 271.5-793.69T207-644.47v16.14q0 7.66 2 15.33l-52 9Zm321 289Z"/></svg>