<svg xmlns="http://www.w3.org/2000/svg" height="48" viewBox="0 -960 960 960" width="48"><path d="M413.31-60.17q-29.62 0-55.16-11.5-25.54-11.5-42.11-34.63L86.35-397.57l26.03-25.59q19.05-18.93 45.89-21.71 26.84-2.78 50.25 9.78l81.39 50.92v-245.61q0-15.95 11.35-28.52 11.34-12.57 29.67-12.57 16.9 0 29.03 12.57 12.13 12.57 12.13 28.52v152.21h71.52v-225.65q0-16.19 12.17-28.64 12.18-12.44 29.46-12.44t29.7 12.44q12.41 12.45 12.41 28.64v225.65h162.82q52.07 0 89.3 37.01 37.23 37 37.23 88.08v125.35q0 69.69-50 118.32-49.99 48.64-118.96 48.64H413.31Zm-289.93-543.7q-1.77-10.56-2.27-21.28t-.5-23.11q0-122.09 88.38-208.83 88.38-86.74 216.59-86.74 127.35 0 216.1 86.55 88.76 86.56 88.76 208.85 0 10.56-1.5 25.56l-1.5 15-82.18-7.56 1.5-12.82q1.5-12.81 1.5-20.46 0-87.47-65.81-150.21-65.8-62.73-156.73-62.73-93.53 0-157.73 62.71-64.21 62.72-64.21 150.35v16.66q0 8.07 3 15.36l-83.4 12.7Z"/></svg>