<svg xmlns="http://www.w3.org/2000/svg" height="48" viewBox="0 -960 960 960" width="48"><path d="M415.1-102.46q-24.42 0-44.93-9.29-20.52-9.29-34.67-27.94L129.31-402.08l13.77-13.77q13-13 32.44-15.25 19.44-2.25 36.44 7.79l103.16 63.16v-276.7q0-8.8 6.2-15.53 6.2-6.73 15.37-6.73 8.81 0 15.54 6.73 6.73 6.73 6.73 15.53v355.39l-152.73-92.08 163.76 206.95q7.32 11.11 19.44 15.69 12.12 4.59 25.45 4.59H635.1q39.96 0 68.66-27.99 28.7-28 28.7-68.47v-157.64q0-23.67-16.86-40.13T675.42-457h-92.61v-43.85h92.61q41.32 0 71.1 29.58 29.79 29.57 29.79 70.81v157.69q0 58.75-41.78 99.53t-99.91 40.78H415.1ZM448.96-457v-249.23q0-8.81 6.21-15.54 6.2-6.73 15.37-6.73 8.81 0 15.54 6.73 6.73 6.73 6.73 15.54V-457h-43.85ZM159.1-596.96q-2.1-9.73-2.79-19.53t-.69-20.47q0-107.65 75.89-184.21 75.9-76.56 185.19-76.56 108.15 0 184.36 76.59 76.21 76.6 76.21 184.29 0 9.12-1.5 22.95l-1.5 13.82-43.65-4.65 1.4-12.3q1.4-12.3 1.4-19.91 0-89.39-63.77-153.17-63.77-63.77-152.78-63.77-90.99 0-154.2 63.84-63.21 63.84-63.21 153.35 0 8.75.5 16.96.5 8.22 2.12 16.18l-42.98 6.59Zm309.75 284.77Z"/></svg>