<svg xmlns="http://www.w3.org/2000/svg" height="20" viewBox="0 -960 960 960" width="20"><path d="M458.06-116q-17.75 0-34.64-7.54-16.88-7.54-28.96-21.62L174.62-399.31l27.46-28.46q11.69-11.69 26.34-13.11 14.66-1.43 30.58 3.65l88.15 38.31v-257.23q0-10.69 7.42-18.35 7.41-7.65 18.37-7.65 10.6 0 18.41 7.64 7.8 7.63 7.8 18.29v326.14l-146-62.62 180.93 213.62q5.15 5.16 11.36 8.12 6.21 2.96 12.79 2.96h158.85q32.77 0 55.85-22.99Q696-213.98 696-246.92v-163.77q0-13.47-9.11-22.58-9.11-9.12-22.58-9.12h-62.39V-494.38h62.39q34.61 0 59.15 24.53Q748-445.31 748-410.69v163.77q0 54.82-38.16 92.87Q671.68-116 617.08-116H458.06Zm4.48-326.39v-260.22q0-10.69 7.41-18.35 7.42-7.65 18.38-7.65 10.59 0 18.4 7.65 7.81 7.66 7.81 18.35v260.22h-52ZM198.39-619.85q-1.62-8.23-2.31-17.46t-.69-18.8q0-98.35 68.66-167.12Q332.72-892 431.63-892q98.06 0 166.56 68.77t68.5 167.12q0 8.8-.5 17.23-.5 8.42-2.5 17.42l-50.61-7.69q1-7 1.3-13.5.31-6.5.31-13.7 0-76.21-53.55-129.93Q507.58-840 431.59-840q-76.9 0-130.55 53.73-53.66 53.73-53.66 129.97 0 8.15.5 14.65t1.5 13.5l-50.99 8.3ZM474.08-318Z"/></svg>