<svg xmlns="http://www.w3.org/2000/svg" height="40" viewBox="0 -960 960 960" width="40"><path d="M413.85-50q-32.34 0-59.6-12.33Q327-74.67 308.67-99.67l-235-299 33.34-33.07Q129-453 159.67-456.5q30.67-3.5 57 11.17l63 40.33v-214.67q0-21.01 14.71-36.67T331.47-672q22.86 0 38.03 15.66 15.17 15.66 15.17 36.67V-249l-100.34-51 105.69 134.19q3.42 6.65 10.25 8.9 6.83 2.24 13.3 2.24H647q29.82 0 51.08-21.27 21.25-21.27 21.25-51.73V-395q0-11.89-8.89-21.45Q701.54-426 689-426h-84.67v-105.33h84.34q56.64 0 96.82 40.4 40.18 40.4 40.18 95.93v167.33q0 74.4-52.84 126.04Q719.99-50 647-50H413.85Zm27.48-376v-267q0-20.95 15.24-36.47Q471.8-745 494.32-745q22.01 0 37.68 15.57 15.67 15.56 15.67 36.43v267H441.33ZM115.24-604q-1.91-11.33-2.57-22.33-.67-11-.67-23.75 0-126.3 93.62-215.94 93.61-89.65 228.58-89.65 133.21 0 227 89.2Q755-777.26 755-650.01q0 10.68-1.5 26.18l-1.5 15.5-105-10 1.5-12.58q1.5-12.58 1.5-19.51 0-82.33-63.96-141.46Q522.08-851 433.83-851q-91.04 0-153.6 59.15-62.56 59.14-62.56 141.56v15.18q0 7.55 2.66 14.78L115.24-604Zm386.43 287.67Z"/></svg>