<svg xmlns="http://www.w3.org/2000/svg" height="20" viewBox="0 -960 960 960" width="20"><path d="M457.29-136q-14.67 0-29.44-6.58-14.77-6.57-24.93-18.73L194.23-401.62l20.92-21.92q9.39-9.38 20.2-10.23 10.8-.85 23.65 2.31l99.31 45.61v-266.46q0-6.07 4.54-11.03 4.54-4.97 11.25-4.97 5.98 0 11.09 4.95 5.12 4.95 5.12 10.99v299.22l-171-77.23 207.84 248.23q6.31 6.3 14.16 10.23 7.84 3.92 16.15 3.92h152.69q35.86 0 60.85-24.98 25-24.98 25-60.87v-159.53q0-16.74-11.32-28.07-11.33-11.32-28.06-11.32h-52.77v-32h52.77q29.23 0 50.3 21.08Q728-442.62 728-413.38v159.53q0 49.35-34.32 83.6Q659.37-136 610.15-136H457.29Zm11.79-316.77v-244.46q0-6.07 4.54-11.04 4.54-4.96 11.25-4.96 5.98 0 11.09 4.96 5.12 4.97 5.12 11.04v244.46h-32ZM213.77-618.69q-1.23-7.46-2.12-15.93-.88-8.46-.88-17.65 0-91.65 63.86-155.69Q338.49-872 430.83-872q91.55 0 155.05 64.04 63.5 64.04 63.5 155.69 0 7.65-.5 15.5t-2.5 16.85l-30.23-5.39q1-7 1.12-13.5.11-6.5.11-13.69 0-77.81-54.58-132.66Q508.21-840 430.76-840q-78.38 0-133.18 54.81-54.81 54.82-54.81 132.59 0 8.29.5 14.79t1.5 13.5l-31 5.62ZM457.15-318Z"/></svg>