<svg xmlns="http://www.w3.org/2000/svg" height="40" viewBox="0 -960 960 960" width="40"><path d="M414.5-63.51q-29.41 0-55.01-11.63-25.59-11.63-43.24-34.56L89.14-398.77l27.55-28.11q19.54-18.98 46.57-21.87 27.03-2.9 51.09 10.65l75.59 46.71v-237.88q0-18 12.37-30.75 12.36-12.76 31-12.76 18.14 0 31.18 12.76 13.03 12.75 13.03 30.75v376.91l-111.56-62.15 118.68 149.96q4.71 7.69 12.71 10.58 8.01 2.88 17.23 2.88h229.97q33.24 0 56.91-23.12 23.67-23.12 23.67-56.69v-165.11q0-15.67-11.3-27.13-11.29-11.45-27.38-11.45H593.3v-87.96h93.15q52.77 0 89.7 36.91 36.94 36.9 36.94 89.63v165.11q0 70.1-49.41 118.75-49.42 48.64-119.13 48.64H414.5Zm26.93-371.08v-266.77q0-18.2 12.59-31.04 12.59-12.85 31.19-12.85 18.11 0 31.15 12.87 13.03 12.87 13.03 31.02v266.77h-87.96ZM127.27-601.01q-1.79-11-2.5-22.05-.71-11.04-.71-23.02 0-121.7 88.02-207.57 88.02-85.86 214.39-85.86 125.44 0 213.55 85.89 88.11 85.89 88.11 207.39 0 10.71-1.5 25.87l-1.5 15.16-87.58-8.89 1.5-12.09q1.5-12.1 1.5-20.05 0-84.77-62.67-145.05-62.68-60.27-151.85-60.27-89.01 0-151.7 60.31-62.69 60.3-62.69 145.12 0 8.55.33 16.45.33 7.89 2.33 15.45l-87.03 13.21Zm367.85 286.56Z"/></svg>