<svg xmlns="http://www.w3.org/2000/svg" height="48" viewBox="0 -960 960 960" width="48"><path d="M414.71-84q-26.34 0-48.77-10.25Q343.5-104.5 328-124.5L112-399l18-18q15.5-15.5 37.25-17.75T208.5-426l97 59.5v-274q0-11.5 8.19-20.25 8.2-8.75 20.31-8.75 11.5 0 20.25 8.75T363-640.5V-263l-138.5-84 148.57 187.14q6.54 10.15 17.78 14.25 11.25 4.11 23.65 4.11h227.71q38.48 0 66.38-27 27.91-27 27.91-66V-397q0-21.5-15.64-37-15.65-15.5-37.36-15.5h-103V-507h103q45.58 0 78.04 32.25Q794-442.5 794-397v162.5q0 63.02-44.78 106.76T641.81-84h-227.1ZM443-449.5V-712q0-11.5 8.19-20.25 8.2-8.75 20.31-8.75 11.5 0 20.25 8.75T500.5-712v262.5H443Zm-298.73-149Q142-609 141.5-619.25t-.5-21.36q0-114.09 80.16-194.74T416.39-916q113.88 0 194.5 80.68 80.61 80.68 80.61 194.82 0 9.5-1.5 24l-1.5 14.5-57.5-6 1.5-12.35q1.5-12.35 1.5-20.24 0-89.8-63.88-153.85-63.88-64.06-153.45-64.06-91.17 0-154.67 64.17-63.5 64.17-63.5 154.16 0 8.67.5 16.92.5 8.25 2.5 16.25l-57.23 8.5ZM480-309.5Z"/></svg>