<svg xmlns="http://www.w3.org/2000/svg" height="24" viewBox="0 -960 960 960" width="24"><path d="M418.71-90q-27.34 0-50.77-10.5Q344.5-111 328.5-132L116-404l24-24q17-17 41.25-19.75T226.5-438l78 48v-247q0-15.5 10.78-26.5t26.72-11q15.5 0 26.5 11t11 26.5v382L279-317l108 137.5q5 8 13.5 11.25t18 3.25h217.21q32.29 0 55.79-23t23.5-57v-157q0-17-11.64-29-11.65-12-28.86-12h-100v-75h100q48 0 81.75 34T790-402v157q0 64.91-45.25 109.95Q699.5-90 635.5-90H418.71Zm20.79-353v-263q0-15.5 10.78-26.5t26.72-11q15.5 0 26.5 11t11 26.5v263h-75ZM151-594.5q-2.5-10.5-2.75-21T148-637q0-112.89 79.32-192.7 79.31-79.8 193.18-79.8 112.69 0 192.34 79.8Q692.5-749.89 692.5-637q0 10-1.5 24.5l-1.5 14.5-74.5-8.5 1.25-11.35q1.25-11.35 1.25-19.24 0-81.91-57.57-139.66-57.58-57.75-139.26-57.75-82.67 0-140.17 57.8Q223-718.91 223-636.9q0 7.9.25 15.65T225-606l-74 11.5Zm346 272Z"/></svg>