<svg xmlns="http://www.w3.org/2000/svg" height="20" viewBox="0 -960 960 960" width="20"><path d="M457.55-72q-25.18 0-48.61-11.5Q385.5-95 369.5-114L128-398l45-47q21-20 46.25-22.75T269.5-460l45 14v-185q0-23.15 15.83-39.32 15.82-16.18 39.21-16.18 22.96 0 39.96 16.16 17 16.15 17 39.28V-309L329-331l127 145.5q1.05 0 .6.75-.45.75.9.75h166.21q20.74 0 36.01-15.54Q675-215.07 675-237v-170q0-1.7-1.01-3.35-1-1.65-2.49-1.65h-53v-112h53q48 0 81.75 34.29T787-407v170q0 69.09-47.25 117.05Q692.5-72 623.5-72H457.55Zm-3.05-340v-268q0-23.15 15.83-39.32 15.82-16.18 39.21-16.18 22.96 0 39.96 16.18 17 16.17 17 39.32v268h-112ZM162-625.5q-.5-8.5-2.25-19T158-666.96q0-114.93 85.7-194.74 85.69-79.8 208.72-79.8 121.77 0 206.42 80.09 84.66 80.09 84.66 194.45 0 8.96-.5 19.46t-2.5 19.5L630-641.5q1-7 1.25-12.98t.25-12.8q0-66.53-52.1-114.38-52.1-47.84-127.31-47.84-75.09 0-128.59 47.95Q270-733.61 270-666.9q0 7.9.75 13.15T272-643l-110 17.5Zm339 300Z"/></svg>