<svg xmlns="http://www.w3.org/2000/svg" height="20" viewBox="0 -960 960 960" width="20"><path d="M459.55-106q-20.18 0-38.61-8.5Q402.5-123 389.5-138L165-399l32-33q14-14 31.25-15.75T263.5-443l77 32v-246q0-13.8 9.57-23.65 9.57-9.85 23.72-9.85 13.71 0 23.71 9.83t10 23.61V-315L284-365l157 183.5q4 4 8.58 6.25 4.57 2.25 9.92 2.25h160.21q28.99 0 50.14-21Q691-215 691-245v-165q0-10.2-7.04-17.6-7.05-7.4-17.46-7.4h-72v-67h72q38 0 64.75 27T758-410v165q0 58.21-40.25 98.6Q677.5-106 619.5-106H459.55Zm-4.05-329v-269q0-13.8 9.57-23.65 9.57-9.85 23.72-9.85 13.71 0 23.71 9.85t10 23.65v269h-67ZM191-619.5q-1.5-8.5-2.25-18t-.75-19.46q0-101.93 71.29-173.24 71.29-71.3 173.63-71.3 101.27 0 172.42 71.3 71.16 71.31 71.16 173.24 0 8.96-.5 17.96t-2.5 18l-65.5-9.5q1-7 1.25-13.35t.25-13.43q0-73.53-51.6-125.38-51.6-51.84-124.81-51.84-74.09 0-126.09 51.95-52 51.94-52 125.65 0 7.9.75 14.15T257-630l-66 10.5Zm296 299Z"/></svg>