<svg xmlns="http://www.w3.org/2000/svg" height="40" viewBox="0 -960 960 960" width="40"><path d="M441.45-322.03q34.67 16.75 68.16 3.78 33.49-12.97 41.97-47.78 17.84-72.14 36.32-144.85t36.67-146.51q4.65-17.39-11.95-25.16-16.61-7.77-27.49 6.96-43.56 61.55-88.33 122.5-44.77 60.96-88.8 120.29-20.14 28.77-9.86 62.16 10.28 33.38 43.31 48.61ZM195.58-144.17q-23.48 0-43.56-11-20.08-11-32.3-31.21-28.17-48.65-41.93-102.98-13.76-54.34-13.76-111.41-.23-84.62 33.38-159.8 33.6-75.18 90.82-132.02 57.22-56.83 132.85-89.94t159.69-33.11q86.2 0 161.81 32.73 75.61 32.72 131.94 89.53 56.34 56.81 88.73 132.61 32.39 75.8 32.39 162 0 56.55-14.57 110.05-14.56 53.5-41.88 102.34-10.99 20.58-31.75 31.4-20.77 10.81-43.44 10.81H195.58Z"/></svg>