<svg xmlns="http://www.w3.org/2000/svg" height="20" viewBox="0 -960 960 960" width="20"><path d="M447.99-338.61q29.75 14.13 60.1 1.78 30.34-12.34 38.53-42.93 16.42-60.2 33.51-124.02 17.09-63.83 33.35-129.18 5.69-20.62-14.24-30.05-19.94-9.42-32.37 9.1-38.48 55.17-75.87 109.56-37.39 54.39-72 105.31-15.43 22.43-7.2 54.65 8.24 32.22 36.19 45.78ZM191.43-172.78q-23.52 0-43.6-11.83-20.09-11.82-32.79-32.78-18.56-33.13-28.69-74.24Q76.22-332.74 76.22-386q0-93.66 39.47-174.05Q155.17-640.44 223-695.7q51.87-42.43 113.89-65.78t128.89-25.74q18.52-1.13 31.98 14.48t10.89 35.61q-2.56 20-16.93 33.67-14.37 13.68-34.07 15.37-47.78 4.39-90 21.55-42.22 17.15-79.69 47.19-53.44 42.74-83.59 104.39Q174.22-453.3 174.22-384q0 38 4.93 59.39 4.94 21.39 15.81 53.83h568.52q13-33 17.37-57.11 4.37-24.11 4.37-56.11 0-52.65-17.13-98.67t-47.65-84.63q-12.14-15.52-15.33-37.24-3.2-21.72 12.39-38.81 15.02-17.08 35.11-17.24 20.09-.15 31.09 13.11 43.21 51.44 71.37 116.89 28.15 65.46 28.15 144.59 0 52.13-9.35 93.24-9.35 41.11-29.48 75.37-13.39 22.09-33.13 33.35-19.74 11.26-43.26 11.26H191.43Zm289-229.7Z"/></svg>