<svg xmlns="http://www.w3.org/2000/svg" height="20" viewBox="0 -960 960 960" width="20"><path d="M447.25-345q18.75 13 44.25 2t30.25-33.15Q534-427 551.65-485.35 569.31-543.7 589-602q5-13.11-8.91-20.05Q566.17-629 557-614q-30.98 52.68-61.99 103.84Q464-459 434-416q-9 13-9 36t22.25 35ZM184-220q-11.34 0-18.67-6.5Q158-233 152-243q-11-20-21.5-53.5T120-384.36q0-82.91 33.5-154.77Q187-611 248-659q46-38 102.5-58.5T467-739q8-1 18 5.16 10 6.15 9 16-1 9.84-6.44 17.34T474-692q-55 2-100.5 18.5T282-622.44Q228-578 197-515.5T166-382q0 40 5 61.5t16 54.5h583q10-31 16-57t6-59q0-58-15-100t-47-83q-4-5-13-18.5t.5-27.5q8.5-13 17-13t7.5-1q35 44 65.5 101T838-384q0 48.06-7.5 79.53T806-239q-4 7-12.05 13T774-220H184Zm290-168Z"/></svg>