<svg xmlns="http://www.w3.org/2000/svg" height="40" viewBox="0 -960 960 960" width="40"><path d="M441.95-324.22q33.75 16.32 66.7 3.37 32.94-12.95 41.26-46.92 17.74-73.03 36.33-147.53 18.59-74.49 37.17-149.8 3.89-14.07-9.77-20.43-13.66-6.36-22.33 5.41-44.9 62.96-90.75 125.3-45.84 62.34-91.23 122.34-19.58 27.76-9.55 60.56 10.04 32.8 42.17 47.7ZM198.59-159.3q-19.76 0-37.51-9.13-17.75-9.12-27.48-26.81-25.4-46.15-39.55-98.09Q79.9-345.27 79.9-399.95q0-94 39.18-173.44t105.88-135.7q62.52-52.43 140.17-75.21 77.65-22.78 158.01-13.06 13.59 1.85 21.11 13.96 7.53 12.11 4.79 26.78-2.58 14.67-13.69 23.55-11.11 8.89-25.69 7.95-64.01-7.05-125.21 11-61.19 18.05-111.26 59.95-55.38 45.62-88.13 111.61-32.74 65.99-32.74 142.78 0 45.28 11.17 87.37 11.18 42.09 34.03 80.69h564.79q24.43-38.84 34.86-81.11 10.44-42.28 10.44-87.17 0-67.2-24.88-124.34-24.87-57.14-67.93-101.36-9.81-10.58-11.79-25.99-1.97-15.4 8.2-27.9 9.93-12.34 25.1-13.06 15.16-.71 24.66 9.24 54.78 53.59 87 125.84T880.19-400q0 53.22-12.79 105.54-12.78 52.32-40.25 99.22-10.44 18.01-28.41 26.97-17.98 8.97-37.41 8.97H198.59Zm277.84-233.94Z"/></svg>