<svg xmlns="http://www.w3.org/2000/svg" height="40" viewBox="0 -960 960 960" width="40"><path d="M439.67-319.67Q474-302 508.5-315.17q34.5-13.16 42.5-48.16 15.33-69.34 34.17-138.84Q604-571.67 621.67-643q6-19.67-14-28.5-20-8.83-32 7.5-41.34 60-83.34 119.17-42 59.16-84.33 114.83-20.67 28.33-11.83 61.33 8.83 33 43.5 49ZM194-130.67q-27.33 0-50-12.66-22.67-12.67-36.67-36-29.33-50.34-43-106.17-13.66-55.83-13.66-114.17-.67-88 33.5-166.16 34.16-78.17 93.5-136.84 59.33-58.66 138-92.5Q394.33-829 480.33-829q89 0 167 33.67 78 33.66 136.17 92.33 58.17 58.67 91.83 137.5Q909-486.67 909-397.67q0 58.67-15 114-15 55.34-43.33 104.34-12.34 25-35.67 36.83-23.33 11.83-50 11.83H194Z"/></svg>