<svg xmlns="http://www.w3.org/2000/svg" height="24" viewBox="0 -960 960 960" width="24"><path d="M445.74-324.61q34 15.13 66.35 2.78 32.34-12.34 41.78-46.78 19.17-68.35 36.61-135.82 17.43-67.48 34-136.53 5.69-22.52-15.33-32-21.02-9.47-34.28 9.05-41.48 57.17-82.87 113.56-41.39 56.39-82 114.31-20.43 29.43-8.2 63.15 12.24 33.72 43.94 48.28ZM204.43-140.78q-25.52 0-49.6-12.33-24.09-12.32-36.79-35.28-26.56-46.13-41.69-99.74Q61.22-341.74 61.22-400q0-97.39 41.47-180.91Q144.17-664.44 214-722.7q55.87-46.43 123.39-71.28 67.52-24.85 139.39-25.24 20.52-.13 32.48 16.83 11.96 16.95 9.39 38.61-2.56 21.65-18.45 35.82-15.9 14.18-37.55 15.87-48.78 2.39-95 20.55-46.22 18.15-83.69 48.63-53.44 43.3-85.09 106.45Q167.22-473.3 167.22-400q0 42 10.93 79.89 10.94 37.89 30.81 73.33h542.52q23-38 32.37-75.11 9.37-37.11 9.37-78.11 0-51.65-17.13-100.17t-46.65-87.13q-13.14-18.52-11.83-39.74 1.3-21.22 17.39-36.31 15.52-15.08 37.61-14.74 22.09.35 37.09 19.61 44.21 54.44 66.87 121.39 22.65 66.96 22.65 137.09 0 54.13-13.85 108.74-13.85 54.61-42.98 102.87-13.39 24.09-37.13 35.85-23.74 11.76-49.26 11.76H204.43Zm275-255.7Z"/></svg>