<svg xmlns="http://www.w3.org/2000/svg" height="48" viewBox="0 -960 960 960" width="48"><path d="M438.92-321.24q34.14 17.57 68.08 4.03 33.93-13.53 42-47.74 15.61-72.83 34.61-147.66 19-74.82 38.5-151 4.13-13.77-9.74-20.21-13.86-6.44-22.61 5.39-44.11 63.73-90.06 126.97-45.96 63.24-91.7 121.79-19.5 27.43-11.2 60.15 8.31 32.72 42.12 48.28ZM193.43-150.37q-20.89 0-39.56-9.98t-28.31-28.3Q99.5-236.22 84.9-290.25q-14.6-54.04-14.6-109.17 0-96.06 39.8-177.52 39.8-81.47 108.29-139.36 64.87-54.94 146.49-77.75 81.62-22.82 165.49-11.15 13.89 2.5 21.97 15.34 8.07 12.84 4.76 28.38-2.75 15.55-14.58 24.77-11.82 9.23-27.28 8.36-66.48-9.24-130.39 8.95-63.92 18.18-115.52 61.86-56.11 46.13-89.21 113.18-33.1 67.05-33.1 145.08 0 47.28 11.22 89.77 11.22 42.49 34.59 82.42h573.64q25.14-40 35.54-82.54 10.4-42.53 10.4-89.87 0-69.35-25.29-125.85t-69.01-101.24q-9.63-10.95-13.51-27.97-3.88-17.03 7.01-31.73 10.33-14.14 26.56-14.86 16.24-.72 24.24 8.04 55.92 54 91.6 127.77 35.69 73.77 35.69 165.84 0 54.5-13.08 108.62-13.07 54.12-41.18 102.23-11.83 18.89-30.44 28.59-18.61 9.69-39 9.69H193.43Zm281.5-239.24Z"/></svg>