<svg xmlns="http://www.w3.org/2000/svg" height="24" viewBox="0 -960 960 960" width="24"><path d="M449.54-334.15q29 12.84 57.61 2.3 28.62-10.54 37.46-41.3 20.47-68.62 38.27-136.2 17.81-67.57 34.58-135.96 4-15.69-10.58-22.42-14.57-6.73-24.42 6.12-41.77 57.3-83 113.73-41.23 56.42-81.77 115.19-18.3 26.15-6.69 55.92 11.62 29.77 38.54 42.62ZM204.62-180q-16 0-30.2-7.39-14.19-7.38-22.88-22.15-22.92-39.61-36.92-87.04-14-47.42-14-103.42 0-89 37.19-164.35Q175-639.69 238.54-692.61q54.69-45.47 121.88-68.12 67.2-22.65 137.5-18.88 11.77 1 18.23 10.53 6.46 9.54 4.85 21.7-1.62 12.15-10.83 19.96-9.22 7.8-21.02 7.8-56.92-2.15-111.07 16.66-54.16 18.81-98.46 54.96-54 45-86.5 109t-32.5 139q0 42 11.5 83t32.5 77H756q23-38 33.5-78.5T800-400q0-60.54-22.31-116.58T716.62-615q-8.93-10.54-7.27-21.88 1.65-11.35 10.34-19.43 8.69-8.07 21.46-8.38 12.77-.31 23.54 12.08 47.92 51.92 71.62 117.96Q860-468.62 860-400q0 50.69-12.04 98.54-12.04 47.84-38.88 93.46-6.93 13.61-21.81 20.81Q772.38-180 756-180H204.62Zm273.84-217.92Z"/></svg>