<svg xmlns="http://www.w3.org/2000/svg" height="24" viewBox="0 -960 960 960" width="24"><path d="M450.64-340.92q23.21 11.69 48.88 2.05 25.67-9.63 32.73-35.29 17.71-62.03 35.19-124.94 17.49-62.91 35.41-125.94 4-12.11-7.97-17.59-11.96-5.49-19.57 5.21-36.81 54.61-74.27 107.9-37.46 53.29-74.42 106.1-14.62 21.46-7.31 46.13t31.33 36.37ZM206.58-206.04q-11 0-19.57-3.94-8.56-3.94-14.13-12.33-23.53-42.27-35-88.27-11.46-46-11.46-94.57-.25-72.24 28.28-135.8 28.53-63.55 76.77-110.76 48.24-47.21 112.48-74.67 64.24-27.47 136.05-27.47 73.19 0 137.65 27.81 64.47 27.81 112.47 75.62 48 47.8 75.86 112.21 27.87 64.4 27.87 137.51 0 47.04-11.72 91.56-11.71 44.52-34.9 83.64-5.11 9.65-14.4 14.56-9.29 4.9-19.39 4.9H206.58Z"/></svg>