<svg xmlns="http://www.w3.org/2000/svg" height="20" viewBox="0 -960 960 960" width="20"><path d="M446.99-339.61q28.75 14.13 58.85 1.53 30.09-12.59 37.34-41.89 14.36-57.49 31.45-120.81 17.09-63.33 33.85-127.68 5.69-18.62-12.99-27.55-18.69-8.92-29.62 8.6Q528.89-592.24 492-538.1q-36.89 54.14-71 102.56-14.43 20.43-8.2 51.4 6.24 30.97 34.19 44.53ZM194.93-181.78q-22.02 0-41.1-10.83-19.09-10.82-31.29-30.78Q105.48-255.02 95.6-295q-9.88-39.99-9.88-92 0-91.37 38.39-169.84 38.4-78.46 104.39-132.36 51.87-42.43 113.64-64.78t128.14-23.74q17.52-1.13 30.98 13.74 13.46 14.87 10.89 33.96-2.56 19.09-15.93 32.16-13.37 13.08-32.07 14.27-49.28 3.89-91.25 19.55-41.97 15.65-82.44 47.69-52.94 41.74-82.34 102.64-29.4 60.91-29.4 128.93 0 37.28 4.43 57.67 4.44 20.39 15.31 52.33h561.02q13-31.5 16.87-55.36 3.87-23.86 3.87-54.86 0-53.15-16.38-96.67t-46.4-82.13q-11.14-14.02-16.08-35.49-4.95-21.47 10.14-39.06 14.52-17.58 33.36-17.99 18.84-.4 27.34 9.86 41.71 49.44 71.37 113.39 29.65 63.96 29.65 146.09 0 50.6-8.85 90.22-8.85 39.63-27.98 73.39-12.89 21.09-31.63 31.35-18.74 10.26-40.76 10.26H194.93Zm284.5-218.2Z"/></svg>