<svg xmlns="http://www.w3.org/2000/svg" height="48" viewBox="0 -960 960 960" width="48"><path d="M437.62-319.5q34.13 18 68.51 4.25Q540.5-329 548.5-363 562-433 581-505t38.5-146q5-15.95-11.47-23.47Q591.55-682 581.5-668 540-606 496-544.5t-88 117q-19.5 27-12.5 59.5t42.12 48.5ZM193-140q-24.63 0-45.16-11.5-20.53-11.5-32.84-32-29-48-41.75-102.82Q60.5-341.14 60.5-398.5q-1.5-86 31.97-162.64 33.47-76.64 91.25-134.25t135.1-91.11Q396.14-820 481.05-820q86.45 0 163.2 33.25Q721-753.5 777.75-696.5t89.5 134.28Q900-484.94 900-398.27q0 57.27-14.75 111.52Q870.5-232.5 843-183.5 832.5-162 811.11-151q-21.4 11-45.11 11H193Z"/></svg>