<svg xmlns="http://www.w3.org/2000/svg" height="40" viewBox="0 -960 960 960" width="40"><path d="M446.15-331.85q29.41 14.34 58.98 3.18 29.56-11.15 37.59-42.18 19.38-70.51 37.73-141.47 18.34-70.96 36.6-142.32 3.33-12.72-8.6-18.37-11.94-5.66-20.04 5.04-43.1 60.28-86.31 119.55-43.2 59.27-85.89 118.7-17.65 25.75-7.85 55.18 9.79 29.44 37.79 42.69ZM198.26-180q-14.64 0-27.08-6.85-12.44-6.84-20.05-20.38-22.92-40.85-36.92-89.01-14-48.17-14-103.35 0-88.99 37.19-164.55 37.19-75.55 100.06-128.47 59.16-49.93 132.91-71.71 73.76-21.78 150.01-12.99 9.47 1.67 14.52 9.93 5.05 8.25 3.15 18.51-1.9 10.26-9.75 16.37-7.86 6.12-17.76 5.04-64.36-7.03-126.23 11.99-61.87 19.01-111.87 60.03-55.56 46.43-88.77 112.45-33.21 66.03-33.21 143.4 0 44.97 11.71 87.87 11.7 42.9 34.19 81.46h567.49q23.82-39.48 34.86-82.21 11.03-42.74 11.03-87.12 0-68.13-25.69-127.68-25.69-59.55-70.82-104.24-7.43-7.57-8.09-17.76-.65-10.19 6.3-18.47 6.94-8.28 17.74-8.8 10.79-.51 18.59 7.41 53.2 51.93 82.72 121.35Q860-478.36 860-399.59q0 51.39-11.94 99.65-11.94 48.26-38.57 94.25-6.52 12.12-19.73 18.91-13.22 6.78-27.81 6.78H198.26Zm278.3-214.54Z"/></svg>