<svg xmlns="http://www.w3.org/2000/svg" height="40" viewBox="0 -960 960 960" width="40"><path d="M440-320q34.67 17.33 68.67 4 34-13.33 42.33-48 15.67-68.67 34-138.33 18.33-69.67 36.67-141 5.66-20-13.84-29T576-664q-40.67 59.67-83.33 118.67-42.67 59-84.67 115-20 28.33-11.17 61.5Q405.67-335.67 440-320ZM195.33-132q-25.66 0-49.66-12.83-24-12.84-36-35.5Q82.67-228.67 67-285q-15.67-56.33-15.67-114.33 0-99.59 42-185.13Q135.33-670 206.67-730q61-52 137-76.17 76-24.16 155-19.16 19.33 1 31.33 18t8.33 38.33q-3 21.33-18.83 35-15.83 13.67-37.17 14.67-56-3-109.66 15.16-53.67 18.17-97 53.84-54.82 44.6-87.24 109.85Q156-475.23 156-399.33q0 46 11.17 85.16 11.16 39.17 32.16 77.5H760q24.33-40 33.83-78.5t9.5-84.16Q803.33-458 784-507t-53-89.67q-12-17.33-14.67-39.66-2.66-22.34 13.34-40.34 15-17.33 37-17.33t33 15q48.33 54.67 78.66 125 30.34 70.33 30.34 154.67 0 55.7-14.01 112.38-14.01 56.68-43.66 106.62-14.67 24-38.17 36.16Q789.33-132 764-132H195.33Zm281-257.67Z"/></svg>