<svg xmlns="http://www.w3.org/2000/svg" height="40" viewBox="0 -960 960 960" width="40"><path d="M441.45-322.03q34.67 16.75 68.16 3.78 33.49-12.97 41.97-47.78 17.84-72.14 36.32-144.85t36.67-146.51q4.65-17.39-11.95-25.16-16.61-7.77-27.49 6.96-43.56 61.55-88.33 122.5-44.77 60.96-88.8 120.29-20.14 28.77-9.86 62.16 10.28 33.38 43.31 48.61ZM195.77-144.17q-22.77 0-43.58-11.1-20.81-11.09-31.8-31.29-26.56-47.76-41.51-101.99-14.94-54.23-14.94-110.78 0-97.27 40.91-180.06 40.92-82.78 110.08-141.05 61.87-52.43 138.95-76.09 77.09-23.66 156.96-16.34 16.44 1.29 25.97 15.83 9.54 14.53 6.31 32.39-2.86 17.85-16.37 29.13-13.52 11.27-31.37 11.26-59.92-5.03-117.93 13.64-58.02 18.68-104.25 56.95-55.25 45.62-88.18 111.52-32.93 65.91-32.93 142.82 0 46 11.45 87.12 11.46 41.12 33.33 79.89H762.9q24.33-40 34.56-80.67 10.22-40.68 10.22-86.34 0-63.45-22.74-117.96-22.74-54.51-62.06-97.2-11.13-14.15-12.78-32.57-1.65-18.42 11.31-33.09 12.39-14.29 30.91-14.65 18.52-.36 29.52 12.9 52.68 54.81 83.52 126.81 30.84 72 30.84 155.76 0 54.83-13.5 109.55-13.49 54.72-42.28 103.22-12.35 20.95-33.17 31.67-20.81 10.72-43.25 10.72H195.77Zm281-248.39Z"/></svg>