<svg xmlns="http://www.w3.org/2000/svg" height="20" viewBox="0 -960 960 960" width="20"><path d="M449.25-343q28.75 13 58 1.25t37.06-41.61q17.19-63.14 34.84-130.99Q596.81-582.2 613-650.5q4-14.11-10.16-21.05-14.17-6.95-22.84 6.05-41.5 58-81.5 115.25T421-439.5q-15 21-6.5 52.25T449.25-343ZM195.5-201q-17.5 0-31.5-8t-24.5-24q-16.5-30.5-25.25-67.37-8.75-36.88-8.75-86.63 0-87.98 36.42-161.92 36.42-73.94 99.58-125.58 53-43 116.75-64.5t131.25-19.5q13 0 22.5 10.91 9.5 10.92 7.5 24.35-2 13.44-11.98 22.84-9.97 9.4-23.02 8.9-55.5.5-104.25 17t-93.75 53.06Q233-578 202.75-516.25T172.5-384.78q0 37.28 5 60.78t17 56H764q13-31.5 18-58.75t5-58.25q0-60.5-21.75-112.5t-60.25-94q-10-9.5-13.25-24.75T698.5-644q10-12.5 23.75-13.75T744.5-651q48.5 50 79 116.5T854-387q0 49.47-8 85.99-8 36.51-26 68.01-9.5 16-24 24t-32 8H195.5ZM480-404.5Z"/></svg>