<svg xmlns="http://www.w3.org/2000/svg" height="24" viewBox="0 -960 960 960" width="24"><path d="M444.08-327.31q26 14.69 55.23 3.12 29.23-11.58 35.92-40.12 15.92-62.23 34.04-126.88 18.11-64.66 37.65-129.43 5-16.38-11.15-23.84-16.15-7.46-26.85 8.23-36.54 56.61-73.5 111.46-36.96 54.85-75.04 107.39-15.61 22.3-9.88 49.34 5.73 27.04 33.58 40.73ZM192.23-168q-16.23 0-30-7.5T140.08-196q-25.16-47.38-38.23-98.62-13.08-51.23-13.08-105.84-.77-80.08 30.38-152.04 31.16-71.96 84.39-124.69 53.23-52.73 124.81-83.77Q399.92-792 480-792q81.54 0 153.12 31.42 71.57 31.43 124.3 84.66 52.73 53.23 83.66 125.8Q872-477.54 872-396q0 52.85-13.08 102.96-13.07 50.12-39.77 93.96-7.61 14.54-21.38 22.81T768-168H192.23Z"/></svg>