<svg xmlns="http://www.w3.org/2000/svg" height="48" viewBox="0 -960 960 960" width="48"><path d="M440.62-323.5q34.13 17 67.51 3.75 33.37-13.25 41.43-47.47Q568-444 587-522.5 606-601 625.5-680q3-10.95-7.47-15.97Q607.55-701 600.5-692q-47.5 66-96 131.5t-96.5 128q-19.5 28-9.5 61t42.12 48ZM194-164.5q-17.5 0-32.5-8T138-196q-25.5-47-39.25-98.49Q85-345.98 85-399.42q0-93.23 38.67-171.59Q162.34-649.36 228-705q66-55.5 148.75-77.75t167.75-7.75q10.5 2.5 15.75 12.51t2.5 21.6Q560-744.8 551-738.4q-9 6.4-20.5 4.4-71-11.5-140 7.25t-124 65.25q-56.68 47.27-90.34 115.16-33.66 67.9-33.66 147.06 0 47.28 11.5 92.03T190-222h579.86q25.14-40 36.39-85.08t11.25-92.42q0-75-29.25-138t-79.75-110q-8.5-7-11.25-19.5t4.75-23.25Q709.5-701 721.5-702t20 5.5q61 54 97.25 129.75T875-399.5q0 53.37-12.51 105.23Q849.98-242.41 823-196q-9 15.5-24.5 23.5t-32.5 8H194ZM475.5-393Z"/></svg>