<svg xmlns="http://www.w3.org/2000/svg" height="20" viewBox="0 -960 960 960" width="20"><path d="M446.33-341.31q21.75 13.69 48.98 2.12 27.23-11.58 32.67-36.26 13.17-54.09 30.94-115.09 17.77-61.01 37-122.08 5-14.49-10.06-21.89-15.07-7.41-24.94 8.28-33.51 54.29-66.49 107.3-32.97 53.01-65.05 98.55-10.61 15.3-8.88 40.84 1.73 25.54 25.83 38.23ZM184.23-208q-14.34 0-24.55-7.77-10.22-7.77-17.6-20.31-12.85-23.23-23.35-58.57-10.5-35.35-10.5-89.71 0-85.91 34.89-159.97 34.88-74.05 97.96-123.9 47.38-38.92 105.27-60.23 57.88-21.31 119.5-22.77 10.53-1 21.46 7.23 10.92 8.23 9.69 20.39-1.23 12.15-8.64 21.26-7.41 9.12-18.05 10.12-53.85 2.69-98.66 19.31-44.8 16.61-89.42 50.48-54 44.44-85 106.94t-31 133.5q0 40 5 61.5t16 54.5H770q10-31 16-57t6-59q0-57.08-15.12-99.65-15.11-42.58-46.65-83.35-5.85-7.08-14.04-22.77t2.69-30.85q9.89-14.15 20.93-14.26 11.04-.12 12.57 1.65 36.85 45.85 67.24 104.92Q850-467.23 850-384q0 49.44-8.08 83.11-8.07 33.66-25.77 67.89-5.84 10.23-16.66 17.62Q788.67-208 774-208H184.23Zm290.69-181.85Z"/></svg>