<svg xmlns="http://www.w3.org/2000/svg" height="24" viewBox="0 -960 960 960" width="24"><path d="M445.74-324.61q34 15.13 66.35 2.78 32.34-12.34 41.78-46.78 19.17-68.35 36.61-135.82 17.43-67.48 34-136.53 5.69-22.52-15.33-32-21.02-9.47-34.28 9.05-41.48 57.17-82.87 113.56-41.39 56.39-82 114.31-20.43 29.43-8.2 63.15 12.24 33.72 43.94 48.28ZM203.87-140.78q-26.52 0-49.54-12.05-23.03-12.04-36.29-35-29.13-49.69-43.41-104.73-14.28-55.05-14.28-112.87.43-85.09 34.56-159.98 34.13-74.89 91.39-131.44 57.26-56.54 132.94-89.17 75.67-32.63 160.19-32.63 86.96 0 163.14 32.91 76.17 32.91 133.21 89.96 57.05 57.04 89.96 133.21 32.91 76.18 32.91 163.14 0 56.26-14.56 109.8-14.57 53.54-42.26 101.8-12.7 22.96-36.22 35-23.52 12.05-49.61 12.05H203.87Z"/></svg>