<svg xmlns="http://www.w3.org/2000/svg" height="40" viewBox="0 -960 960 960" width="40"><path d="M442.54-323.55q34.66 16.32 67.78 3.62 33.11-12.7 41.69-47.62 19.48-74.75 38.06-149.75 18.59-74.99 36.67-150.63 3.89-15.44-10.54-22.28-14.42-6.85-24.22 5.92-45.74 62.96-92.09 125.39-46.34 62.42-91.89 124.26-20.25 29.09-8.88 62.64 11.37 33.54 43.42 48.45ZM196.09-153.3q-20.59 0-39.01-9.79-18.42-9.79-28.65-28.15-26.23-47.32-40.63-99.97-14.4-52.66-14.4-108.12 0-95.53 40.1-176.25 40.09-80.72 107.62-137.68 62.52-52.76 140.43-76.04 77.9-23.28 158.42-14.22 14.26 1.51 21.95 14.19 7.69 12.69 4.78 27.94-2.74 15.24-14.52 24.73-11.77 9.48-27.02 8.7-62.85-6.55-124.12 12.51-61.28 19.05-109.69 59.28-55.57 46.38-88.88 112.77-33.32 66.4-33.32 144.07 0 46 11.68 88.59 11.67 42.59 34.19 81.68h570.05q24.34-40 35.1-82.3 10.77-42.31 10.77-87.97 0-67.04-25.29-125.68T716.8-627.86q-10.48-11.76-11.37-27.24-.89-15.49 9.78-27.65 10.43-12.01 26.35-12.65 15.91-.63 26.91 11.33 55.94 54.92 87.16 128.17 31.23 73.25 31.23 156.57 0 54.17-13.12 107.43-13.12 53.26-41.25 100.66-10.61 18.67-29.42 28.31-18.81 9.63-39.07 9.63H196.09Zm281-241.44Z"/></svg>