<svg xmlns="http://www.w3.org/2000/svg" height="20" viewBox="0 -960 960 960" width="20"><path d="M443-330.13q31.43 16 64.15 2.5 32.72-13.5 40.15-45.37 14.31-59.91 31.74-124.83 17.44-64.91 34.87-130.39 6.7-22.39-15.69-32.8-22.39-10.41-36.09 10.41Q524.09-594 487.7-538.67q-36.4 55.32-72 104.8-15.44 22.44-9.07 55.59Q413-345.13 443-330.13ZM182.83-152.09q-26.83 0-50.16-13.41-23.32-13.41-36.02-37.24-22.56-39.56-31.06-85.91-8.5-46.35-8.5-93.92-1-88.82 31.78-166.45T178.78-684q57.13-57.35 135.05-90.35 77.91-33 164.6-33 88.7 0 166.11 33.28 77.42 33.29 134.55 90.92 57.13 57.63 90.69 135.26 33.57 77.63 33.57 165.32 0 47.57-9 93.92t-33.13 85.91q-13.13 24.39-35.96 37.52-22.83 13.13-49.22 13.13H182.83Z"/></svg>