<svg xmlns="http://www.w3.org/2000/svg" height="24" viewBox="0 -960 960 960" width="24"><path d="M444.74-325.61q33 15.13 65.1 2.53 32.09-12.59 40.53-45.53 17.17-65.85 34.61-132.82 17.43-66.98 34.5-135.03 5.69-20.52-14.08-29.5-19.77-8.97-31.53 8.55Q533.89-600.24 493-544.1q-40.89 56.14-81 111.56-19.43 27.43-9.2 59.9 10.24 32.47 41.94 47.03ZM207.37-150.28q-25.52 0-47.54-11.3-22.03-11.29-34.29-33.25-28.13-48.19-41.41-101.73-13.28-53.55-13.28-109.87-.07-83.59 33.06-156.48 33.13-72.89 88.89-127.69 55.76-54.79 129.94-86.42 74.17-31.63 156.69-31.63 84.46 0 159.14 31.91 74.67 31.91 130.21 87.46 55.55 55.54 87.71 129.96 32.16 74.43 32.16 158.89 0 54.76-13.81 106.55-13.82 51.79-41.01 99.05-12.2 21.96-34.47 33.25-22.27 11.3-47.36 11.3H207.37Z"/></svg>