<svg xmlns="http://www.w3.org/2000/svg" height="20" viewBox="0 -960 960 960" width="20"><path d="m126-151-69-76 103-88q-26-30-50-64t-43-69h122.38q8.62 15 18.12 30 9.5 15 20.71 29Q247-412 262-438.5t27-53.5H8v-102h147.22v-61H259v61.5h214V-491h-72q-20 46-47 89t-58 82q17 14 35 27.5t38 25.5l-54.42 96Q294-187 271-204.5T227-242l-101 91ZM320-9l142.6-356H590L732-9H620.33l-17.77-47H447L429.35-9H320Zm157-132h96l-48-132-48 132Zm184-405h46.14q24.67 0 42.26-17.92Q767-581.85 767-607v-19h-72v16h-24v-88h24v17h72v-21.5q0-24.51-17.62-42.01Q731.76-762 707.06-762H660.7q-24.7 0-42.7 17.64-18 17.64-18 42.36v95q0 25.15 17.92 43.08Q635.85-546 661-546Zm149 142H527v-237h-67v-57h25.5v17H557v-21.5q0-24.51-17.64-42.01Q521.72-762 497-762h-48.87q-25.13 0-42.63 15.5Q388-731 388-706v65h-38v-78h-98v-91q0-40 27.5-67t66.5-27h464q39 0 66.5 27t27.5 67v312q0 40-27.5 67T810-404Z"/></svg>