<svg xmlns="http://www.w3.org/2000/svg" height="24" viewBox="0 -960 960 960" width="24"><path d="m120-154-81-87 93-75q-26-32-50-65.5T36-451h144q8 11 15.5 23.5T211-405q14.8-19.83 27.9-41.91Q252-469 264-493H-15v-119h134v-65h120v65h234v119h-77q-23 47-50.5 89T289-322q15 10 30.5 20t31.5 20l-65 109q-20-15-40-29t-36-29l-90 77ZM292 14l153-372h149L746 14H616l-15-38H435l-16 38H292Zm178-134h96l-48-131-48 131Zm62-287v-120h323v-329H355v95H236v-95q0-50.42 34.98-84.71Q305.97-975 355-975h500q50 0 85 34.29T975-856v329q0 50-35 85t-85 35H532Zm323-120v-329 329ZM398-665h82v-75h19v20h81v-19q0-30-21-51t-51-21h-38q-30 0-51 21t-21 51v74Zm305 94h38q30 0 51-21t21-51v-19h-82v20h-19v-98h19v20h82v-19q0-30-21-51t-51-21h-38q-31 0-51.5 21T631-739v96q0 30 20.5 51t51.5 21Z"/></svg>