<svg xmlns="http://www.w3.org/2000/svg" height="20" viewBox="0 -960 960 960" width="20"><path d="M163.5-286 147-308l88.5-85.5q-17-20.5-33.25-43.5T172-483h36.88q10.62 17 21.62 33 11 16 23.71 32.5 24.79-30 46.54-61T335.5-546H105v-27.5h137.22V-622h28.28v49h143v28H368q-15 42.5-40.25 80.25t-55.25 71.69q15 17.06 25.75 29.56t30.25 27l-11.56 29q-17.94-17-31.44-30.75T253-372l-89.5 86Zm125 213.5 135.1-329h28.9l137 329h-31.17L521.56-164H356l-38.15 91.5H288.5Zm77-116.5H512l-73-182.5L365.5-189ZM619-535.5h52.14q15.59 0 27.48-12.17 11.88-12.18 11.88-28.83v-1H688v3.5q0 6-5 11t-11 5h-55.5q-6 0-11-5t-5-11v-104q0-6 5-11t11-5H672q6 0 11 5t5 11v6.5h22.5v-6q0-15.44-11.91-27.22t-27.53-11.78H618.7q-16.2 0-28.45 11.93Q578-692.65 578-677v100.5q0 16.65 12.17 28.83Q602.35-535.5 619-535.5Zm147.5 91h-320v-158H403V-678q0-6 5-11t11-5h57q6 0 11 5t5 11v6.5h23v-6.05q0-15.46-11.93-27.21-11.92-11.74-27.57-11.74h-54.87q-16.63 0-28.38 9.79T380.5-681v78.5h-72V-662H284v-108.5q0-15.5 12-26.25t28.5-10.75h442q16.5 0 28.5 10.75t12 26.25v289q0 15.5-12 26.25t-28.5 10.75Z"/></svg>