<svg xmlns="http://www.w3.org/2000/svg" height="48" viewBox="0 -960 960 960" width="48"><path d="m117-215-58-66 79-72q-19-25-37.5-49.5T64-453h113q7 5 11.85 13.4 4.86 8.39 10.15 14.6 13-20 27-39t25-44H15v-89h125v-64h90v64h169v89h-46q-20 43-45 80t-51 73q16 14 30.5 25.5T319-305l-44 85q-21-15-40-30.5T197-285l-80 70ZM281-16l153-366h107L694-16h-98.31L571-76H400l-23 60h-96Zm146-135h117l-60-151-57 151Zm255-414h72q19 0 32-12t13-32v-33h-60v22h-42v-128h42v22h60v-31q0-20-13-33t-32-13h-72q-20 0-32.5 13T637-757v148q0 20 12.5 32t32.5 12Zm171 144H499v-229h-39v-98h42v22h59v-31q0-19.63-12.62-32.81Q535.75-803 517-803h-73q-19.75 0-31.87 13.19Q400-776.63 400-757v107h-51v-81h-98v-125q0-36 28.38-62.5 28.39-26.5 65.53-26.5h508.18q37.71 0 65.31 26.5T946-856v344q0 38.42-27.6 64.71Q890.8-421 853-421Z"/></svg>