<svg xmlns="http://www.w3.org/2000/svg" height="48" viewBox="0 -960 960 960" width="48"><path d="M153-280.5 135.5-301l93-90.5q-18.5-22-34.75-45.25T162.5-484h36q11.5 17 23.75 35T247-416q26-31 48.75-62.75T331.5-549H92v-27.5h142.5V-628h28v51H420v28h-55.5q-16 45-42.77 83.99-26.78 39-57.23 73.56 15 18.45 29 31.95t29.5 28L311.86-303q-18.36-17-33.61-32t-31.75-34.5l-93.5 89Zm136.5 216 141-347.5h28l142 347.5h-31l-38-96.5h-173L319-64.5h-29.5Zm79-121.5h152L444-378l-75.5 192Zm289-370h61q15.32 0 27.91-12.51Q759-581.03 759-597.5v-8.5h-25v9q0 6-5 11t-11 5h-61q-6 0-11-5t-5-11v-126q0-6 5-11t11-5h61q6 0 11 5t5 11v11h25v-11.5q0-15.32-12.59-27.91T718.5-764h-61q-17.5 0-29.5 12.59t-12 27.91v126q0 16.47 12 28.99Q640-556 657.5-556Zm159 104H474v-154h-53v-117q0-6 5-11t11-5h61q6 0 11 5t5 11v11h25v-11.61q0-16.11-12.21-28.25Q514.57-764 498.5-764h-61q-17.23 0-29.36 12.21Q396-739.57 396-723.5V-606h-81.5v-69h-28v-145q0-20.5 14.75-34.25t36.7-13.75h478.6q21.95 0 36.7 13.75Q868-840.5 868-820v320q0 20.5-14.75 34.25T816.5-452Z"/></svg>