<svg xmlns="http://www.w3.org/2000/svg" height="40" viewBox="0 -960 960 960" width="40"><path d="m149.67-285.67-33.34-39.66L185-385q-16.33-22.33-33.83-45T117-476.33h69.67q9.27 10.64 17.3 22.82 8.03 12.18 15.7 23.18 18.33-24 36.83-48.67t29.83-55.33h-221V-585h111v-53.67h52v53.34h170v51H349q-17.67 42-44.17 78.33t-53.16 69.4Q264-374 269.33-368.5q5.34 5.5 19 15.83L260-306q-17.33-13.67-23.33-20t-19-20l-68 60.33ZM239-37.33l148-353h61.67l149 353H540l-32.33-76H327l-32.67 76H239Zm105.67-118.34H490l-72.33-181.66-73 181.66Zm103-288v-52h371q9 0 16.33-6 7.33-6 7.33-14v-307q0-8-7.33-14t-16.33-6H347.33q-9.66 0-16.66 6t-7 14V-699h-52v-123.67q0-30 22.16-51 22.17-21 53.47-21h471.4q31.3 0 53.47 21 22.16 21 22.16 51v307q0 30-22.16 51-22.17 21-53.5 21h-371Zm394.66-52v-347 347ZM403-620.67h36.67v-105q0-6 5-11t11-5H499q6 0 11 5t5 11V-715h35.67v-.33q0-23.49-17.13-40.58Q516.42-773 493.67-773H460q-23.48 0-40.24 17.09T403-715.33v94.66ZM674.33-565h33q22.99 0 40.33-17.01T765-622v1h-36.67v8.67q0 6-5 11t-11 5H669q-6 0-11-5t-5-11v-113.34q0-6 5-11t11-5h43.33q6 0 11 5t5 11V-715H765v-.33q0-22.99-17.34-40.33T707.33-773h-33q-23.66 0-40.66 17.34-17 17.34-17 40.33V-622q0 22.98 17 39.99T674.33-565Z"/></svg>