<svg xmlns="http://www.w3.org/2000/svg" height="20" viewBox="0 -960 960 960" width="20"><path d="m125.74-157.26-71.48-78.61 93.39-78.43q-24.56-29.13-47.41-61.48-22.85-32.35-42.55-65.48h128.47q8.06 11.74 15.64 24.32 7.59 12.59 16.1 24.33 15.86-21.08 29.93-44.3 14.08-23.22 25.52-47.83H-.48V-590.3h135.79v-61.57h107.34v62.07h213.96v106.06h-65.87q-20.7 44.44-46.98 85.59Q317.48-357 288.17-319q12.83 9.57 22.72 17.63 9.89 8.07 26.28 17.2l-57.46 98.3q-16.97-13.69-31.43-25.26-14.45-11.57-31.58-27.13l-90.96 81ZM281.78-.09l144.99-355.82h131.62L703.22-.09h-115.5l-17.68-43.56H412.52L394.83-.09H281.78Zm162.57-130.74h94.3l-46.43-130.04-47.87 130.04Zm71.48-276.87v-97.56h298.65v-310.22H350.57v93.35h-97.01v-93.35q0-40.89 28.95-68.94 28.95-28.06 68.06-28.06h463.91q39.65 0 68.61 28.06 28.95 28.05 28.95 68.94v310.22q0 40.65-28.95 69.11-28.96 28.45-68.61 28.45H515.83Zm298.65-97.56v-310.22 310.22ZM393.3-647.7h75.4v-54.47h22.52v17h74.39v-18.11q0-26.78-19.05-45.68-19.05-18.91-46.04-18.91h-42q-27.39 0-46.3 16.91-18.92 16.92-18.92 44.18v59.08Zm274.22 95.83h39.27q26.93 0 45.94-19.34 19.01-19.34 19.01-46.75v-15.61h-75.39v16h-20.52v-84.6h20.52v17h75.39v-18.11q0-26.78-19.04-45.68-19.03-18.91-45.99-18.91h-39.49q-27.52 0-46.65 19.05-19.14 19.05-19.14 46.04v84.82q0 27.41 19.06 46.75t47.03 19.34Z"/></svg>