<svg xmlns="http://www.w3.org/2000/svg" height="20" viewBox="0 -960 960 960" width="20"><path d="m124-159-78-86 86-68q-25-30-48.5-63T39-443h142.38q7.62 10 14.12 21.5Q202-410 209.21-400q13.79-19 26.29-40t23.5-43H-7v-116h126.22v-62H237v62.5h217V-482h-65q-22 44-48.5 84.5T286-319q15 10 27.5 18.5T345-282l-64.42 107Q261-190 243.5-202T208-230l-84 71ZM287 6l147.6-358H581L728 6H600.33l-13.77-34H426L411.35 6H287Zm173-129h93l-46-127-47 127Zm211-428h30.14q28.67 0 48.76-20.42Q770-591.85 770-621v-13h-78v16h-14v-82h14v17h78v-15.5q0-28.51-20.12-48.51Q729.76-767 701.06-767H670.7q-29.7 0-49.7 20.14-20 20.14-20 48.86v77q0 29.15 19.92 49.58Q640.85-551 671-551Zm140 152H508v-250h-38v-51h15.5v17H563v-15.5q0-28.51-20.14-48.51Q522.72-767 494-767h-32.87Q432-767 412-749q-20 18-20 47v53h-44v-84H244v-79q0-45 32-76t75-31h460q44 0 76 31t32 76v305q0 45-32 76.5T811-399Z"/></svg>