<svg xmlns="http://www.w3.org/2000/svg" height="40" viewBox="0 -960 960 960" width="40"><path d="m120.67-193.33-55.34-62L158.67-342q-20.34-24.67-39.84-51.5-19.5-26.83-35.83-54.17h102q7.67 9.67 14.67 20.34 7 10.66 14.66 20.66 17.34-23.66 32.84-46.66 15.5-23 27.83-50.34H13.33v-83H154v-64h84v64h185.66v83h-56.33q-18.66 44-44 83.5Q298-380.67 268.67-344q11.33 11.67 19.83 20.33 8.5 8.67 19.83 18L268-226q-15.33-12.67-27.33-25.33-12-12.67-28-28.67l-92 86.67ZM266-13.33l149-365h97.67l149.66 365H572.8l-27.8-68H380l-25.67 68H266Zm140.67-137.34h111.66L462-299.33l-55.33 148.66Zm278.33-419h73.67q20 0 34.5-14.16 14.5-14.17 14.5-34.17v-31.67h-64v21.34h-44v-121.34h44v21.34h64v-31q0-20-14.5-34.5t-34.5-14.5H685q-20 0-34.5 14.5t-14.5 34.5V-618q0 20 14.5 34.17 14.5 14.16 34.5 14.16Zm175.33 138H520v-223h-53v-95h44v21.34h63v-31q0-20.5-14.25-34.75t-34.08-14.25h-74.34q-20.5 0-34.41 14.25Q403-779.83 403-759.33v104.66h-50.33V-724H262v-138.67q0-34.66 25.67-59.33 25.66-24.67 60.94-24.67h511.78q35.28 0 60.61 24.67t25.33 59.33v347q0 35.34-25.33 59.67t-60.67 24.33Z"/></svg>