<svg xmlns="http://www.w3.org/2000/svg" height="24" viewBox="0 -960 960 960" width="24"><path d="M146.89-217.31 112-254.77l116.73-115.27q-21.38-25.58-39.83-52.61-18.44-27.04-33.75-55.43h58.5q11 18.62 23.31 35.93 12.31 17.3 26.42 34.11 26-31.31 47.18-63.61 21.17-32.31 35.48-69.58H68.08v-51.73H238v-58.58h51.73v58.58h177.54v51.73h-67.35q-16.61 47.34-42.71 89.83-26.1 42.48-59.56 81.22 14.39 16.72 31.37 33.64t31.63 30.81l-20.05 52.84q-17.52-16.38-38.29-37.05-20.77-20.68-39.62-41.52l-115.8 114.15ZM319.34-49.73l140.2-347.62h55.19L656.11-49.73H602l-34.92-90.58h-158.7l-35.19 90.58h-53.85Zm105.39-133.81h125.19l-63-162.19-62.19 162.19Zm229.04-374.11h84.61q16.05 0 27.74-11.68 11.69-11.67 11.69-27.94v-26.38h-45.27v14.57q0 2.31-1.93 4.23-1.92 1.93-4.23 1.93h-60.8q-2.31 0-4.23-1.93-1.93-1.92-1.93-4.23v-120q0-2.3 1.93-4.23 1.92-1.92 4.23-1.92h60.8q2.31 0 4.23 1.92 1.93 1.93 1.93 4.23v15.35h45.27v-27.35q0-16.04-11.69-27.73-11.69-11.69-27.74-11.69h-84.61q-16.27 0-27.94 11.69-11.68 11.69-11.68 27.73v143.81q0 16.27 11.68 27.94 11.67 11.68 27.94 11.68Zm178.88 112.23H520.04v-201.69h-95.35v-81.97q0-2.3 1.92-4.23 1.93-1.92 4.24-1.92h60.8q2.31 0 4.23 1.92 1.93 1.93 1.93 4.23v15.35h45.27v-27.37q0-16.05-11.69-27.73-11.69-11.67-27.74-11.67h-84.61q-16.27 0-27.94 11.69-11.68 11.69-11.68 27.73v93.97h-47.54v-67.5h-67.26v-121.12q0-23.58 17-40.29t42.26-16.71h508.77q25.27 0 42.27 16.71 17 16.71 17 40.29v333.31q0 23.57-17 40.29-17 16.71-42.27 16.71Z"/></svg>