<svg xmlns="http://www.w3.org/2000/svg" height="40" viewBox="0 -960 960 960" width="40"><path d="m119.16-194.09-61.17-68.22 87.86-78.94q-20.89-26.17-40.86-53.38-19.98-27.21-38-55.67h114.05q7.48 8.15 13.77 18.31 6.28 10.16 13.12 18.73 15.26-21.6 29.72-42.9 14.47-21.3 26.23-47.13H8.62v-92.04h133.51v-64.19h93.04v64.19h188.5v92.04h-56.34q-19.98 44.19-45.6 83.22-25.61 39.03-53.63 76.07 13.78 12.23 25.86 22.22 12.08 9.98 26.43 20.82l-46.36 87.21q-18.35-13.99-34.49-27.98-16.15-13.98-33.28-30.92l-87.1 78.56ZM276.55-9.19l151.26-366.69h110.86L690.03-9.19H589.57l-24.22-59.33H397.9L375.06-9.19h-98.51Zm149.71-135.82h110.73l-56.15-146.22-54.58 146.22Zm261-423.15h66.32q21.51 0 36.67-14.64 15.16-14.63 15.16-36.52v-29.78h-65.89v21.33h-38.53v-119.45h38.53v21.34h65.89v-28.74q0-21.89-15.16-37.05-15.16-15.16-36.67-15.16h-66.32q-22.07 0-36.95 15.16-14.88 15.16-14.88 37.05v135.3q0 21.89 14.88 36.52 14.88 14.64 36.95 14.64ZM856.56-423H514.35v-231.85h-47.54v-92.37h38.54v21.34h64.88v-28.74q0-21.96-14.91-37.08-14.91-15.13-36.25-15.13h-66.98q-22.01 0-36.59 15.13-14.57 15.12-14.57 37.08v99.77h-50.52v-78.76h-97.45V-858.9q0-38.06 28.45-65.27 28.44-27.21 67.01-27.21h508.21q38.96 0 66.97 27.21 28.01 27.21 28.01 65.27v342.48q0 39.26-28.01 66.34Q895.59-423 856.56-423Z"/></svg>