<svg xmlns="http://www.w3.org/2000/svg" height="40" viewBox="0 -960 960 960" width="40"><path d="m129.07-215.02-46.98-53.1 98.47-96.34q-19.6-23.33-37.2-48.12-17.61-24.79-32.49-49.29h87.42q7.63 10.02 15.04 20.42 7.41 10.4 15.45 20.59 19.45-25.61 35.65-49.77 16.2-24.15 29.55-52.53H38.7v-72.18h149.57v-64.13h72.42v64.13h162.13v72.18h-49.77q-17.8 43.29-42.6 82.37-24.8 39.08-54.59 75.7 14.56 15.78 28.87 29.39 14.32 13.61 28.38 26.79l-30.71 72.08q-17.8-15.84-36.53-33.83t-38.16-39.09l-98.64 94.73ZM294.86-32.77l146.97-355.41h80.65L670.54-32.77h-76.56l-30.76-77.95H400.37L370.5-32.77h-75.64Zm127.57-138.14h117.4l-59.7-151.48-57.7 151.48Zm240.61-390.37h92.25q14.28 0 25.16-10.77 10.88-10.78 10.88-25.6v-37.22h-54.52v20.67h-55.86v-128.81h55.86v20.66h54.52v-37.39q0-14.44-10.88-25.32t-25.16-10.88h-92.25q-14.66 0-25.52 10.88-10.85 10.88-10.85 25.32v162.09q0 14.82 10.85 25.6 10.86 10.77 25.52 10.77Zm185.01 126.19H510.86v-225h-70.21v-82.92h55.86v20.66h54.29v-37.42q0-14.78-10.63-25.48-10.63-10.69-25.42-10.69h-92.24q-15.17 0-25.77 10.72-10.61 10.72-10.61 25.48v99.65h-40.21v-69.24h-91.26v-122.22q0-29.33 21.81-49.87 21.82-20.55 52.21-20.55h519.43q30.32 0 51.76 20.55 21.43 20.54 21.43 49.87v345.88q0 29.56-21.43 50.07-21.44 20.51-51.82 20.51Z"/></svg>