<svg xmlns="http://www.w3.org/2000/svg" height="48" viewBox="0 -960 960 960" width="48"><path d="m117.87-215-54.52-62.52 81.61-75.91q-18.57-23.7-36.85-47.98-18.28-24.29-34.98-49.42h106.04q7 5.87 12.14 14.32 5.13 8.44 10.73 15.42 14.31-21.3 28.74-41.17 14.44-19.87 25.87-45.31H17.17v-83.78h128.48v-64h84.78v64H397.7v83.78h-45.57Q333-465 308.22-427.78q-24.79 37.21-51.65 72.78 14.26 13.57 25.93 23.76 11.67 10.2 26.5 21.89l-40.52 80.65q-18.83-14.13-34.57-28.32-15.74-14.2-33.87-32.33L117.87-215ZM271.44-17.74l151.69-365.13h99.18L674.44-17.74h-91.79l-26.87-65.22H386.09l-24.74 65.22h-89.91Zm140.78-135.87h117.43l-60-152.3-57.43 152.3ZM681.13-566.3h75.91q18.13 0 30.92-12 12.78-12 12.78-30.7v-33.87h-59.13v22h-45.04v-128.87h45.04v22h59.13v-32.3q0-18.7-12.78-31.48-12.79-12.78-30.92-12.78h-75.91q-18.7 0-31.2 12.78t-12.5 31.48V-609q0 18.7 12.5 30.7t31.2 12Zm174.48 139.65h-354v-223.78h-40.74v-99.31h45.04v22h58.13v-32.3q0-18.81-12.4-31.54-12.41-12.72-30.29-12.72h-76.92q-18.88 0-30.78 12.72-11.91 12.73-11.91 31.54v109.61H350.3v-74.92h-93.65v-133.26q0-34.26 26.7-59.24 26.69-24.98 61.99-24.98H855.7q35.62 0 61.66 24.98 26.03 24.98 26.03 59.24V-512q0 36.06-26.03 60.7-26.04 24.65-61.75 24.65Z"/></svg>