<svg xmlns="http://www.w3.org/2000/svg" height="24" viewBox="0 -960 960 960" width="24"><path d="m154.77-257.11-25.27-28.43 103.46-101.04q-19.27-23.65-36.65-48.48-17.39-24.82-32.5-51.09h46q11 18.23 23.11 35.34 12.12 17.12 25.85 33.73 26-31.11 47.85-63.23 21.84-32.11 35.96-70.15H86.15v-38.46H240.5v-54.16h38.46v54.16h166.58v38.46h-61.19q-16.23 46.19-42.43 86.65-26.19 40.46-58.11 77.46 14.77 16.93 29.73 32.02 14.96 15.1 30.77 29.37l-15.11 39.19q-18.05-16.77-35.83-34.36-17.79-17.6-35.49-37.29L154.77-257.11ZM303.19-58.96l140.39-344.73h40.38L625.73-58.96H584.5l-36.85-93.66H381.27l-37.89 93.66h-40.19Zm90.77-126.12h140.39l-70.5-177.38-69.89 177.38Zm258.08-371.23h69.23q16.6 0 28.97-12.34 12.38-12.35 12.38-29.39v-14.27h-33.54v10.16q0 4.61-3.85 8.46-3.85 3.84-8.46 3.84h-60.62q-4.61 0-8.46-3.84-3.84-3.85-3.84-8.46v-120q0-4.62 3.84-8.47 3.85-3.84 8.46-3.84h60.62q4.61 0 8.46 3.84 3.85 3.85 3.85 8.47v11.69h33.54v-16.19q0-16.6-12.38-28.98Q737.87-768 721.27-768h-69.23q-17.04 0-29.39 12.37-12.34 12.38-12.34 28.98v128.61q0 17.04 12.34 29.39 12.35 12.34 29.39 12.34Zm166.77 106.46H489.08v-179.38h-71.7v-92.92q0-4.62 3.85-8.47 3.85-3.84 8.46-3.84h60.62q4.61 0 8.46 3.84 3.85 3.85 3.85 8.47v11.69h33.53v-16.23q0-16.62-12.37-28.96Q511.4-768 494.81-768h-69.23q-17.04 0-29.39 12.37-12.34 12.38-12.34 28.98v97.42h-66.58v-70h-45.54v-123.23q0-21.66 15.75-36.83 15.75-15.17 39.29-15.17h492.04q23.54 0 39.29 15.17t15.75 36.83v320.61q0 21.66-15.75 36.83-15.75 15.17-39.29 15.17Z"/></svg>