<svg xmlns="http://www.w3.org/2000/svg" height="20" viewBox="0 -960 960 960" width="20"><path d="m127.04-155.96-66.58-73.06 98.93-85.5q-24.24-28.48-46.6-60.72-22.36-32.24-41.07-64.72h118.03q8.38 13.05 16.78 26.45 8.4 13.4 17.89 26.44 17.6-22.8 32.76-47.6 15.17-24.81 26.93-51.37H4.41v-97.74h142.96v-61.24h99.52v61.74h211.68v98.24h-66.53q-19.71 44.76-45.83 86.4Q320.09-357 289.8-319q11.2 9.24 19.13 16.98 7.94 7.74 22.37 16.22l-52.25 91.78q-15.01-12.72-27.18-23.96t-28.65-26.48l-96.18 88.5ZM277.87-4.65l143.03-354.2h120.54L684.63-4.65H578.26l-20.61-50.74H402.41L382.43-4.65H277.87ZM432.61-136.7h95.28l-46.76-132.32-48.52 132.32Zm232.3-415.82h46.12q25.62 0 43.82-18.52 18.19-18.53 18.19-44.63v-17.57h-73.43v16H674.2v-86.56h25.41v17h73.43v-20.07q0-25.47-18.22-43.56-18.21-18.09-43.87-18.09h-46.34q-25.89 0-44.37 18.23-18.48 18.24-18.48 43.92v90.7q0 26.1 18.4 44.63 18.41 18.52 44.75 18.52Zm152.18 138.3H521.7v-232.5h-53.98v-57.08h26.91v17h72.94v-20.07q0-25.47-18.24-43.56-18.24-18.09-43.92-18.09h-48.85q-26.08 0-44.18 16.1-18.1 16.09-18.1 42.05v63.65h-41.71v-67.26h-91.83v-104.11q0-37.39 26.67-63.44 26.68-26.06 62.83-26.06h466.85q36.39 0 63.06 26.06 26.68 26.05 26.68 63.44v314.13q0 37.39-26.68 63.57-26.67 26.17-63.06 26.17Z"/></svg>