<svg xmlns="http://www.w3.org/2000/svg" height="48" viewBox="0 -960 960 960" width="48"><path d="m119-215-50-58 85-81q-18-23-36-46.5T85-448h97q6.92 6.96 12.46 15.48Q200-424 206-416q16-23 31-44t27-47H20v-77h133v-64h78v64h165v77h-45q-18 42-42.5 79.5T256-355q12 13 20 21.5t20 18.5l-36 75q-16-13-27.5-25.5T204-295l-85 80ZM259-20l150-364h89L649-20h-83.31L536-92H368l-27 72h-82Zm134-137h118l-60-154-58 154Zm112-277v-78h357v-350H342v144h-78v-144q0-32.5 24.5-55.25T345.91-940h513.18Q892-940 916-917.25T940-862v350q0 32.5-24 55.25T859-434H505Zm357-78v-350 350ZM404-651h58v-101h49v22h57v-34q0-17.75-12.17-29.88Q543.65-806 527-806h-82q-17.75 0-29.37 12.12Q404-781.75 404-764v113Zm276 83h81q17 0 29.5-12t12.5-29v-35h-58v22h-49v-130h49v22h58v-34q0-17-12.5-29.5T761-806h-81q-17 0-29.5 12.5T638-764v155q0 17 12.5 29t29.5 12Z"/></svg>