<svg xmlns="http://www.w3.org/2000/svg" height="24" viewBox="0 -960 960 960" width="24"><path d="M427-431h106v-190H427v190ZM175-139v-106h189v106H175Zm422 0v-106h189v106H597ZM281.5-431q39.5 0 67.5-27.87 28-27.86 28-67Q377-565 349.09-593q-27.9-28-67.09-28-40 0-67.5 27.87-27.5 27.86-27.5 67Q187-487 214.5-459q27.5 28 67 28Zm396.5 0q40 0 67.5-27.87 27.5-27.86 27.5-67Q773-565 745.5-593q-27.5-28-67-28T611-593.13q-28 27.86-28 67Q583-487 610.91-459q27.9 28 67.09 28ZM154-285q-43.72 0-74.86-31.14Q48-347.27 48-391v-270q0-43.72 31.14-74.86T154-767h652q43.72 0 74.86 31.14T912-661v270q0 43.73-31.14 74.86Q849.72-285 806-285H154Zm0-106h652v-270H154v270Zm326-135Z"/></svg>