<svg xmlns="http://www.w3.org/2000/svg" height="48" viewBox="0 -960 960 960" width="48"><path d="M458.62-458.77h43.76v-121.61h-43.76v121.61ZM220.23-210v-43.77h135.23V-210H220.23Zm385.08 0v-43.77h135.23V-210H605.31ZM288.3-458.77q26.62 0 44.62-17.11 18-17.1 18-42.69 0-25.58-17.82-43.31-17.83-17.74-43.55-17.74-26.53 0-43.77 17.46-17.24 17.46-17.24 42.67 0 26.26 17.29 43.49 17.3 17.23 42.47 17.23Zm382.59.77q26.71 0 44.41-17.63 17.7-17.63 17.7-43.08 0-25.44-17.62-43.56-17.62-18.11-43.96-18.11t-44.34 17.69q-18 17.7-18 43.44t18.15 43.5Q645.39-458 670.89-458ZM172.38-335.15q-27.78 0-48.08-19.99-20.3-19.98-20.3-48.47v-231.93q0-27.86 20.3-48.16 20.3-20.3 48.08-20.3h615.24q27.78 0 48.08 20.3 20.3 20.3 20.3 48.16v231.93q0 28.49-20.3 48.47-20.3 19.99-48.08 19.99H172.38Z"/></svg>