<svg xmlns="http://www.w3.org/2000/svg" height="40" viewBox="0 -960 960 960" width="40"><path d="M454.74-455.15h51.18v-129.54h-51.18v129.54ZM215.41-199.67v-51.18h142.9v51.18h-142.9Zm387.13 0v-51.18h142.9v51.18h-142.9ZM289.62-455.15q28.1 0 47.12-18.39 19.03-18.39 19.03-45.54t-18.88-46q-18.88-18.84-46.14-18.84-28.07 0-46.55 18.67-18.48 18.66-18.48 45.34 0 27.73 18.51 46.24 18.51 18.52 45.39 18.52Zm379.97.77q28.14 0 47.06-18.91 18.91-18.91 18.91-45.93 0-27.01-18.83-46.24t-46.64-19.23q-27.81 0-46.96 18.91-19.16 18.91-19.16 46.11 0 27.21 19.28 46.25 19.27 19.04 46.34 19.04Zm-495.13 126.2q-31.3 0-53.55-22.03-22.24-22.04-22.24-53.84V-635.8q0-31.37 22.24-53.62 22.25-22.25 53.55-22.25h611.08q31.3 0 53.55 22.25 22.24 22.25 22.24 53.62v231.75q0 31.8-22.24 53.84-22.25 22.03-53.55 22.03H174.46Zm0-51.18h611.08q10.77 0 17.69-6.92 6.92-6.93 6.92-17.69v-231.9q0-10.77-6.92-17.69-6.92-6.93-17.69-6.93H174.46q-10.77 0-17.69 6.93-6.92 6.92-6.92 17.69v231.9q0 10.76 6.92 17.69 6.92 6.92 17.69 6.92ZM480-519.59Z"/></svg>