<svg xmlns="http://www.w3.org/2000/svg" height="20" viewBox="0 -960 960 960" width="20"><path d="M426-415h108v-144H426v144ZM210-78v-118h204v118H210Zm336 0v-118h204v118H546ZM302.21-415q30.79 0 51.29-21.21t20.5-51Q374-517 353.29-538t-51.5-21Q272-559 251-537.79t-21 51Q230-457 251.21-436t51 21Zm356 0Q688-415 709-436.21t21-51Q730-517 708.79-538t-51-21Q628-559 607-537.79t-21 51Q586-457 607.21-436t51 21ZM180-244q-53 0-85.5-32.5T62-362v-270q0-53 32.5-85.5T180-750h600q53 0 85.5 32.5T898-632v270q0 53-32.5 85.5T780-244H180Z"/></svg>