<svg xmlns="http://www.w3.org/2000/svg" height="40" viewBox="0 -960 960 960" width="40"><path d="M433.83-434.83h93.34v-143.34h-93.34v143.34ZM182.5-112v-101.33h193.33V-112H182.5Zm401.5 0v-101.33h193.83V-112H584ZM280.5-434.83q30.83 0 51.42-20.83 20.58-20.82 20.58-50.42 0-30.25-20.58-51.17-20.59-20.92-50.84-20.92-30.58 0-51.25 20.74-20.66 20.74-20.66 50.67 0 29.93 20.54 50.93t50.79 21Zm398.31.5q30.69 0 51.61-21.1 20.91-21.09 20.91-50.71 0-30.29-20.83-51.24-20.84-20.95-50.83-20.95-30.67 0-51.5 20.76-20.84 20.76-20.84 50.71 0 29.96 20.77 51.24 20.76 21.29 50.71 21.29ZM160-271.33q-42.33 0-71.83-29.7t-29.5-72.3v-283.34q0-42.6 29.5-72.3 29.5-29.7 71.83-29.7h640q42.6 0 72.3 29.7 29.7 29.7 29.7 72.3v283.34q0 42.6-29.7 72.3-29.7 29.7-72.3 29.7H160Zm0-102h640v-283.34H160v283.34ZM480-515Z"/></svg>