<svg xmlns="http://www.w3.org/2000/svg" height="20" viewBox="0 -960 960 960" width="20"><path d="M451-439.92h58v-129.39h-58v129.39ZM245.77-171v-58H388v58H245.77ZM573-171v-58h142.23v58H573ZM312.48-439.92q27.83 0 46.4-18.66 18.58-18.66 18.58-45.73 0-27.07-18.69-45.65-18.7-18.58-45.83-18.58-27.94 0-46.4 18.8-18.46 18.8-18.46 45.2 0 27.46 18.66 46.04t45.74 18.58Zm334.72.77q27.8 0 46.65-19.18 18.84-19.19 18.84-46.12 0-26.93-18.97-45.9-18.97-18.96-46.5-18.96t-46.49 19.04q-18.96 19.04-18.96 45.98 0 26.93 19.22 46.04 19.22 19.1 46.21 19.1ZM186.62-306.23q-38.35 0-60.48-22.14Q104-350.51 104-388.92v-231.39q0-38.42 22.14-60.55Q148.27-703 186.62-703h586.76q38.35 0 60.48 22.14Q856-658.73 856-620.31v231.39q0 38.41-22.14 60.55-22.13 22.14-60.48 22.14H186.62Zm0-58h586.76q10.77 0 17.7-6.92 6.92-6.93 6.92-17.7v-231.53q0-10.77-6.92-17.7-6.93-6.92-17.7-6.92H186.62q-10.77 0-17.7 6.92-6.92 6.93-6.92 17.7v231.53q0 10.77 6.92 17.7 6.93 6.92 17.7 6.92ZM480-504.62Z"/></svg>