<svg xmlns="http://www.w3.org/2000/svg" height="40" viewBox="0 -960 960 960" width="40"><path d="M456.32-455.39h47.88v-125.44h-47.88v125.44ZM220.69-224.74v-47.89h132.63v47.89H220.69Zm385.6 0v-47.89h133.13v47.89H606.29ZM283.96-455.39q27.16 0 45.37-17.91 18.22-17.92 18.22-44.1 0-26.25-18.22-44.65-18.21-18.4-44.6-18.4-26.38 0-44.63 18.27-18.25 18.27-18.25 44.15 0 26.41 18.12 44.53 18.12 18.11 43.99 18.11Zm391.01.89q26.88 0 45.27-18.44 18.39-18.44 18.39-44.56t-18.29-44.71q-18.3-18.6-44.88-18.6-26.58 0-45.18 18.37t-18.6 44.49q0 26.12 18.59 44.79 18.59 18.66 44.7 18.66ZM164.85-340.44q-24.52 0-42.31-17.79-17.8-17.79-17.8-42.41v-234.41q0-24.62 17.8-42.41 17.79-17.8 42.31-17.8h630.3q24.52 0 42.31 17.8 17.8 17.79 17.8 42.41v234.41q0 24.62-17.8 42.41-17.79 17.79-42.31 17.79h-630.3Z"/></svg>