<svg xmlns="http://www.w3.org/2000/svg" height="24" viewBox="0 -960 960 960" width="24"><path d="M417-420h126v-171H417v171ZM160-63v-136h232v136H160Zm409 0v-136h231v136H569ZM282.3-420q36.7 0 61.7-24.93t25-59.94Q369-541 344.3-566q-24.71-25-61.1-25-36.2 0-61.2 24.87-25 24.86-25 60.5Q197-470 221.8-445q24.79 25 60.5 25Zm394.5 0q36.2 0 61.2-24.93t25-59.94Q763-541 738.2-566q-24.79-25-60.5-25-35.7 0-61.2 24.87-25.5 24.86-25.5 60.5Q591-470 616.2-445q25.21 25 60.6 25ZM170-239q-57.12 0-96.56-39.44Q34-317.88 34-375v-281q0-57.13 39.44-96.56Q112.88-792 170-792h620q57.13 0 96.56 39.44Q926-713.13 926-656v281q0 57.12-39.44 96.56Q847.13-239 790-239H170Zm0-136h620v-281H170v281Zm310-140Z"/></svg>