<svg xmlns="http://www.w3.org/2000/svg" height="48" viewBox="0 -960 960 960" width="48"><path d="M458.42-458.19h43.85v-122.16h-43.85v122.16ZM220.27-223.08v-43.84h129.46v43.84H220.27Zm389.58 0v-43.84h129.96v43.84H609.85ZM281.68-458.19q26.7 0 44.49-17.29 17.79-17.3 17.79-42.88 0-25.67-17.79-43.64-17.79-17.96-43.55-17.96-25.76 0-43.48 17.77-17.72 17.76-17.72 43.06 0 25.82 17.54 43.38 17.54 17.56 42.72 17.56Zm395.24.88q26.53 0 44.23-17.87 17.7-17.86 17.7-43.3 0-25.44-17.62-43.55-17.61-18.12-43.61-18.12t-44.2 17.8q-18.19 17.79-18.19 43.23 0 25.44 18.12 43.62 18.12 18.19 43.57 18.19ZM159.15-340.92q-22.61 0-39.34-16.74-16.73-16.73-16.73-39.43v-243.67q0-22.7 16.73-39.43t39.34-16.73h641.7q22.61 0 39.34 16.73 16.73 16.73 16.73 39.43v243.67q0 22.7-16.73 39.43-16.73 16.74-39.34 16.74h-641.7Z"/></svg>