<svg xmlns="http://www.w3.org/2000/svg" height="48" viewBox="0 -960 960 960" width="48"><path d="M442.8-446.33h75.63v-152.45H442.8v152.45ZM189.33-158.76v-77.31h162.69v77.31H189.33Zm418.89 0v-77.31h162.45v77.31H608.22ZM274.9-446.33q32.38 0 54.78-22.17 22.41-22.17 22.41-53.31 0-31.65-22.18-54.31-22.18-22.66-54.04-22.66-32.91 0-54.7 22.24-21.78 22.25-21.78 53.95 0 31.7 21.8 53.98 21.81 22.28 53.71 22.28Zm409.14 0q33 0 54.91-22.17 21.9-22.17 21.9-53.31 0-31.65-21.78-54.31-21.77-22.66-53.94-22.66-32.41 0-54.7 22.24-22.28 22.25-22.28 53.95 0 31.7 22.21 53.98 22.21 22.28 53.68 22.28ZM140.11-302.07q-30.75 0-54.03-23.03T62.8-379.61v-289.72q0-30.84 23.28-54.19 23.28-23.35 54.03-23.35h679.78q30.85 0 54.2 23.35 23.34 23.35 23.34 54.19v289.72q0 31.48-23.34 54.51-23.35 23.03-54.2 23.03H140.11Zm0-77.54h679.78v-289.72H140.11v289.72ZM480-523.85Z"/></svg>