<svg xmlns="http://www.w3.org/2000/svg" height="20" viewBox="0 -960 960 960" width="20"><path d="M456.12-441.77h47.96v-116.04h-47.96v116.04ZM261.54-220.08v-47.96H384.5v47.96H261.54Zm313.65 0v-47.96h123.46v47.96H575.19ZM308.73-441.77q24.85 0 41.42-16.88 16.58-16.88 16.58-41.02 0-24.22-16.79-40.99-16.79-16.76-41.19-16.76t-41.23 16.98q-16.83 16.98-16.83 40.83 0 24.38 17.01 41.11 17 16.73 41.03 16.73Zm342.56.88q24.36 0 41.63-17.29 17.27-17.29 17.27-41.57t-17.36-41.32q-17.35-17.04-41.88-17.04t-41.45 17.22q-16.92 17.22-16.92 41.5T609.82-458q17.25 17.11 41.47 17.11ZM184.26-331.46q-28.35 0-44.27-15.92-15.91-15.91-15.91-44.36v-215.9q0-28.45 15.91-44.37 15.92-15.91 44.27-15.91h591.48q28.35 0 44.27 15.91 15.91 15.92 15.91 44.37v215.9q0 28.45-15.91 44.36-15.92 15.92-44.27 15.92H184.26Zm.09-47.96h591.3q5.39 0 8.85-3.46 3.46-3.47 3.46-8.85v-215.92q0-5.39-3.46-8.85t-8.85-3.46h-591.3q-5.39 0-8.85 3.46t-3.46 8.85v215.92q0 5.38 3.46 8.85 3.46 3.46 8.85 3.46ZM480-499.69Z"/></svg>