<svg xmlns="http://www.w3.org/2000/svg" height="20" viewBox="0 -960 960 960" width="20"><path d="M442.2-429.43h75.6v-137h-75.6v137ZM240.33-174.74v-78h151.34v78H240.33Zm327.5 0v-78h151.84v78H567.83ZM304.69-429.43q29.03 0 48.66-20.18 19.63-20.17 19.63-48.5 0-28.32-19.84-48.32-19.85-20-48.62-20-28.54 0-48.54 20.17t-20 48.5q0 28.33 20.18 48.33 20.19 20 48.53 20Zm350.86.5q28.47 0 48.72-20.34 20.25-20.33 20.25-48.88 0-28.55-20.38-48.67-20.38-20.11-49-20.11t-48.62 20.33q-20 20.33-20 48.88 0 28.55 20.28 48.67 20.27 20.12 48.75 20.12ZM175.87-301.74q-35.72 0-56.86-21.14t-21.14-56.86v-241.17q0-35.72 21.14-56.86t56.86-21.14h608.26q35.72 0 56.86 21.14t21.14 56.86v241.17q0 35.72-21.14 56.86t-56.86 21.14H175.87Zm0-78h608.26v-241.17H175.87v241.17ZM480-500.33Z"/></svg>