<svg xmlns="http://www.w3.org/2000/svg" height="24" viewBox="0 -960 960 960" width="24"><path d="M460-456.92h40v-115.39h-40v115.39ZM230.77-240v-40H360v40H230.77ZM600-240v-40h129.23v40H600ZM290.77-456.92q24.54 0 41.11-16.58 16.58-16.58 16.58-40.73t-16.58-40.73q-16.57-16.58-40.73-16.58-24.15 0-41.11 16.72t-16.96 40.2q0 24.54 16.94 41.12 16.95 16.58 40.75 16.58Zm378.22.77q24.01 0 41.36-17.1 17.34-17.11 17.34-41.12 0-24.01-17.26-40.98-17.26-16.96-41.5-16.96t-41.2 16.96q-16.96 16.97-16.96 40.98 0 24.01 17.1 41.12 17.1 17.1 41.12 17.1ZM184.62-349.23q-27.62 0-46.12-18.5-18.5-18.5-18.5-46.19v-201.39q0-27.69 18.5-46.19Q157-680 184.62-680h590.76q27.62 0 46.12 18.5Q840-643 840-615.31v201.39q0 27.69-18.5 46.19-18.5 18.5-46.12 18.5H184.62Zm0-40h590.76q10.77 0 17.7-6.92 6.92-6.93 6.92-17.7v-201.53q0-10.77-6.92-17.7-6.93-6.92-17.7-6.92H184.62q-10.77 0-17.7 6.92-6.92 6.93-6.92 17.7v201.53q0 10.77 6.92 17.7 6.93 6.92 17.7 6.92ZM480-514.62Z"/></svg>