<svg xmlns="http://www.w3.org/2000/svg" height="20" viewBox="0 -960 960 960" width="20"><path d="M138-176q-33 0-55.5-22.5T60-254v-289q0-9.3 6.79-16.15 6.79-6.85 16-6.85T99-559.15q7 6.85 7 16.15v289q0 14 9 23t23 9h539q9.3 0 16.15 6.79 6.85 6.79 6.85 16T693.15-183q-6.85 7-16.15 7H138Zm723-458.85q-7-6.85-7-16.15v-67q0-12-10-22t-22-10h-68q-9.3 0-16.15-6.79-6.85-6.79-6.85-16t6.85-16.21q6.85-7 16.15-7h68q33.7 0 55.85 22.15T900-718v67q0 9.3-6.79 16.15-6.79 6.85-16 6.85T861-634.85Zm-676 0q-7-6.85-7-16.15v-67q0-33.7 22.15-55.85T256-796h67q9.3 0 16.15 6.79 6.85 6.79 6.85 16T339.15-757q-6.85 7-16.15 7h-67q-12 0-22 10t-10 22v67q0 9.3-6.79 16.15-6.79 6.85-16 6.85T185-634.85ZM754-294q-9.3 0-16.15-6.79-6.85-6.79-6.85-16t6.85-16.21q6.85-7 16.15-7h68q12 0 22-10t10-22v-67q0-9.3 6.79-16.15 6.79-6.85 16-6.85t16.21 6.85q7 6.85 7 16.15v67q0 33.7-22.15 55.85T822-294h-68Zm-498 0q-33.7 0-55.85-22.15T178-372v-67q0-9.3 6.79-16.15 6.79-6.85 16-6.85t16.21 6.85q7 6.85 7 16.15v67q0 12 10 22t22 10h67q9.3 0 16.15 6.79 6.85 6.79 6.85 16T339.15-301q-6.85 7-16.15 7h-67Zm272-165.29 108.9-69.55q9.1-6.39 9.1-16.27 0-9.89-9.1-16.27L528-630.72q-11-5.28-20.5-.03T498-614v138.16q0 11.84 9.5 16.84t20.5-.29Z"/></svg>