<svg xmlns="http://www.w3.org/2000/svg" height="24" viewBox="0 -960 960 960" width="24"><path d="M126-86q-51.97 0-88.99-37.01Q0-160.02 0-212v-378q0-26 18.5-44.5T63-653q26 0 44.5 18.5T126-590v378h605q26 0 44.5 18.5T794-149q0 26-18.5 44.5T731-86H126Zm739.5-570.5Q849-673 849-696v-67h-68q-23.37 0-39.19-16.5Q726-796 726-819t16.5-39q16.5-16 39.5-16h84q38.78 0 66.39 27.61T960-780v85q0 23.37-16 39.19Q928-640 905-640t-39.5-16.5Zm-643 0Q206-673 206-696v-84q0-38.78 27.91-66.39Q261.81-874 301-874h84q23.38 0 39.19 16Q440-842 440-819t-15.81 39.5Q408.38-763 385-763h-68v68q0 23.37-16 39.19Q285-640 262-640t-39.5-16.5ZM781-292q-23.37 0-39.19-16.5Q726-325 726-348t16.5-39q16.5-16 39.5-16h67v-68q0-23.38 16.5-39.19Q882-526 905-526t39 15.81q16 15.81 16 39.19v84q0 39.19-27.61 67.09Q904.78-292 866-292h-85Zm-480 0q-39.19 0-67.09-27.91Q206-347.81 206-387v-84q0-23.38 16.5-39.19Q239-526 262-526t39 15.81q16 15.81 16 39.19v68h68q23.38 0 39.19 16Q440-371 440-348t-15.81 39.5Q408.38-292 385-292h-84Zm250-162 161-102q14-9 14-27t-14-27L551-712q-16-10-32-.75T503-685v204q0 18.5 16 27.75t32-.75Z"/></svg>