<svg xmlns="http://www.w3.org/2000/svg" height="20" viewBox="0 -960 960 960" width="20"><path d="M123.39-124.78q-39.72 0-68.86-29.14t-29.14-68.86v-384.96q0-20.38 14.25-34.69 14.24-14.31 34.54-14.31 20.3 0 34.75 14.31 14.46 14.31 14.46 34.69v384.96h566.83q20.38 0 34.69 14.24 14.31 14.25 14.31 34.55 0 20.29-14.31 34.75t-34.69 14.46H123.39Zm735.02-512.4q-13.32-13.17-13.32-31.86v-76.66h-77.22q-18.9 0-31.69-13.11-12.79-13.12-12.79-31.72t13.18-31.64q13.17-13.05 31.87-13.05h86.26q32.96 0 56.44 23.48 23.47 23.47 23.47 56.44v86.82q0 18.9-12.83 31.69Q908.94-624 890.34-624t-31.93-13.18Zm-649.69 0q-13.33-13.17-13.33-31.86v-86.26q0-32.97 23.64-56.44 23.64-23.48 56.84-23.48h86.26q18.9 0 31.69 12.83 12.79 12.84 12.79 31.44t-12.79 31.93q-12.79 13.32-31.69 13.32h-77.22v77.22q0 18.9-12.83 31.69Q259.25-624 240.65-624q-18.61 0-31.93-13.18Zm559.15 342.4q-18.9 0-31.69-13.12-12.79-13.11-12.79-31.72 0-18.6 13.18-31.64 13.17-13.05 31.87-13.05h76.65v-77.21q0-18.91 13.11-31.69Q871.32-506 889.92-506t31.65 12.79q13.04 12.78 13.04 31.69v86.26q0 33.2-23.47 56.84-23.48 23.64-56.44 23.64h-86.83Zm-492 0q-33.2 0-56.84-23.64t-23.64-56.84v-86.26q0-18.91 13.12-31.69Q221.62-506 240.22-506q18.61 0 31.65 12.79 13.04 12.78 13.04 31.69v77.21h77.22q18.9 0 31.69 12.84 12.79 12.83 12.79 31.43t-12.79 31.93q-12.79 13.33-31.69 13.33h-86.26Zm254.74-150.73 155.37-98.67q10.93-7.09 10.93-20.93 0-13.85-10.93-20.93L530.61-684.5q-12.39-7.98-25-.89Q493-678.3 493-664.13v198.42q0 14.51 12.61 21.35 12.61 6.84 25-1.15Z"/></svg>