<svg xmlns="http://www.w3.org/2000/svg" height="24" viewBox="0 -960 960 960" width="24"><path d="M121-74q-56.97 0-96.49-39.51Q-15-153.02-15-210v-356q0-28 19.5-48T53-634q28 0 48 20t20 48v356h617q29 0 48.5 20t19.5 48.5q0 28.5-19.5 48T738-74H121Zm751-585.5Q854-677 854-703v-62h-64q-25.37 0-42.69-18Q730-801 730-826.5t18-42.5q18-17 43-17h80q43.78 0 73.89 30.11T975-782v80q0 26.37-17 43.19Q941-642 915.5-642T872-659.5Zm-653.5 0Q201-677 201-703v-79q0-43.78 30.41-73.89Q261.81-886 306-886h79q26.38 0 43.19 17T445-826.5q0 25.5-16.81 43.5T385-765h-63v63q0 26.37-17.5 43.19Q287-642 261.5-642t-43-17.5ZM790-290q-25.37 0-42.69-17.5Q730-325 730-350.5t18-43q18-17.5 43-17.5h63v-63q0-26.38 18-43.19T915.5-534q25.5 0 42.5 16.81T975-474v79q0 44.19-30.11 74.59Q914.78-290 871-290h-81Zm-484 0q-44.19 0-74.59-30.41Q201-350.81 201-395v-79q0-26.38 17.5-43.19t43-16.81q25.5 0 43 16.81T322-474v63h63q26.38 0 43.19 17.5t16.81 43q0 25.5-16.81 43T385-290h-79Zm252-168 158-101q16-10 16-29t-16-29L558-718q-17-10-34.5-.25T506-688v200q0 20.5 17.5 30.25T558-458Z"/></svg>