<svg xmlns="http://www.w3.org/2000/svg" height="20" viewBox="0 -960 960 960" width="20"><path d="M131.43-145.87q-31.53 0-54.76-23.23-23.24-23.23-23.24-54.77v-397.67q0-15.96 11.47-27.48 11.46-11.52 27.32-11.52 15.87 0 27.54 11.52t11.67 27.48v397.67h547.7q15.95 0 27.48 11.46 11.52 11.47 11.52 27.33 0 15.86-11.52 27.54-11.53 11.67-27.48 11.67h-547.7Zm711.92-486.18q-11.2-11.04-11.2-26.28v-81.39h-82.13q-15.32 0-26.2-10.98-10.89-10.99-10.89-26.13 0-15.15 11.05-26.22 11.05-11.08 26.28-11.08h85.96q29.08 0 49.71 20.63 20.64 20.64 20.64 49.72v85.69q0 15.33-10.87 26.21T869.69-621q-15.15 0-26.34-11.05Zm-633.72 0q-11.2-11.04-11.2-26.28v-85.45q0-29.08 20.71-49.72 20.7-20.63 49.88-20.63h85.46q15.32 0 26.2 10.86 10.89 10.87 10.89 26.02 0 15.14-10.89 26.34-10.88 11.19-26.2 11.19h-81.63v81.63q0 15.33-10.87 26.21Q251.12-621 235.97-621q-15.14 0-26.34-11.05Zm540.39 341.18q-15.32 0-26.2-10.98-10.89-10.99-10.89-26.14 0-15.14 11.05-26.22 11.05-11.07 26.28-11.07h81.89v-81.63q0-15.33 10.99-26.21Q854.12-484 869.27-484q15.14 0 26.22 10.88 11.08 10.88 11.08 26.21v85.45q0 29.18-20.64 49.89-20.63 20.7-49.71 20.7h-86.2Zm-481 0q-29.18 0-49.88-20.7-20.71-20.71-20.71-49.89v-85.45q0-15.33 10.99-26.21T235.55-484q15.15 0 26.22 10.88 11.08 10.88 11.08 26.21v81.63h81.63q15.32 0 26.2 10.86 10.89 10.87 10.89 26.01 0 15.15-10.89 26.34-10.88 11.2-26.2 11.2h-85.46Zm246.05-143.05 160.48-102.02q8.8-5.61 8.8-16.67 0-11.06-8.8-16.66L515.07-671.09q-9.94-6-20-.72Q485-666.53 485-654.98v205.12q0 11.89 10.07 16.92 10.06 5.03 20-.98Z"/></svg>