<svg xmlns="http://www.w3.org/2000/svg" height="20" viewBox="0 -960 960 960" width="20"><path d="M106-112q-41 0-69.5-28.5T8-210v-363q0-20.3 14.29-34.65Q36.58-622 56.79-622t34.71 14.35Q106-593.3 106-573v363h597q20.3 0 34.65 14.29Q752-181.42 752-161.21t-14.35 34.71Q723.3-112 703-112H106Zm762.5-530.35Q854-656.7 854-677v-73h-74q-20.3 0-34.65-14.29Q731-778.58 731-798.79t14.35-34.71Q759.7-848 780-848h74q40.7 0 69.35 28.65Q952-790.7 952-750v73q0 20.3-14.29 34.65Q923.42-628 903.21-628t-34.71-14.35Zm-676 0Q178-656.7 178-677v-73q0-40.7 28.65-69.35Q235.3-848 276-848h73q20.3 0 34.65 14.29Q398-819.42 398-799.21t-14.35 34.71Q369.3-750 349-750h-73v73q0 20.3-14.29 34.65Q247.42-628 227.21-628t-34.71-14.35ZM780-282q-20.3 0-34.65-14.29Q731-310.58 731-330.79t14.35-34.71Q759.7-380 780-380h74v-73q0-20.3 14.29-34.65Q882.58-502 902.79-502t34.71 14.35Q952-473.3 952-453v73q0 40.7-28.65 69.35Q894.7-282 854-282h-74Zm-504 0q-40.7 0-69.35-28.65Q178-339.3 178-380v-73q0-20.3 14.29-34.65Q206.58-502 226.79-502t34.71 14.35Q276-473.3 276-453v73h73q20.3 0 34.65 14.29Q398-351.42 398-331.21t-14.35 34.71Q369.3-282 349-282h-73Zm250-155.29 165.9-107.55q11.1-7.39 11.1-20.27 0-12.89-11.1-20.27L526-692.72q-13-7.28-25.5-.53T488-672v214.16q0 14.84 12.5 21.34t25.5-.79Z"/></svg>