<svg xmlns="http://www.w3.org/2000/svg" height="40" viewBox="0 -960 960 960" width="40"><path d="M141.28-172.05q-23.39 0-40.22-16.83T84.23-229.1v-396.71q0-6.34 4.74-11.1t11.6-4.76q6.87 0 11.48 4.76 4.62 4.76 4.62 11.1v396.71q0 10.77 6.92 17.69 6.92 6.92 17.69 6.92h572.69q6.11 0 10.81 4.74 4.71 4.75 4.71 11.61 0 6.86-4.76 11.47-4.76 4.62-11.1 4.62H141.28Zm706.67-474.89q-4.62-4.7-4.62-11.87v-81.32q0-9.23-7.69-16.92-7.69-7.69-16.92-7.69H736.9q-7.17 0-11.52-4.9-4.34-4.9-4.34-11.45 0-6.54 4.34-11.32 4.35-4.77 11.52-4.77h81.82q23.65 0 40.35 16.7 16.7 16.7 16.7 40.35v81.32q0 7.17-4.74 11.87-4.74 4.71-11.6 4.71-6.87 0-11.48-4.71Zm-654.23 0q-4.62-4.7-4.62-11.87v-81.32q0-23.65 16.7-40.35 16.7-16.7 40.35-16.7h82.04q6.34 0 11.1 4.74t4.76 11.6q0 6.87-4.76 11.48-4.76 4.62-11.1 4.62h-82.04q-9.23 0-16.92 7.69-7.69 7.69-7.69 16.92v81.32q0 7.17-4.74 11.87-4.74 4.71-11.61 4.71-6.86 0-11.47-4.71ZM736.9-276.92q-7.17 0-11.52-4.9-4.34-4.9-4.34-11.45 0-6.54 4.34-11.32 4.35-4.77 11.52-4.77h81.82q9.23 0 16.92-7.69 7.69-7.69 7.69-16.92v-82.04q0-6.34 4.74-11.1 4.75-4.76 11.61-4.76 6.86 0 11.47 4.76 4.62 4.76 4.62 11.1v82.04q0 23.65-16.7 40.35-16.7 16.7-40.35 16.7H736.9Zm-490.75 0q-23.65 0-40.35-16.7-16.7-16.7-16.7-40.35v-82.04q0-6.34 4.74-11.1t11.61-4.76q6.86 0 11.47 4.76 4.62 4.76 4.62 11.1v82.04q0 9.23 7.69 16.92 7.69 7.69 16.92 7.69h82.04q6.34 0 11.1 4.74t4.76 11.61q0 6.86-4.76 11.47-4.76 4.62-11.1 4.62h-82.04Zm260.71-156.02L651.8-525.1q6.82-4.17 6.82-12.13 0-7.96-6.66-12.33l-145.1-92.32q-7.61-3.65-14.82.07-7.21 3.71-7.21 12.67v183.69q0 9.45 7.09 13.16 7.08 3.71 14.94-.65Z"/></svg>