<svg xmlns="http://www.w3.org/2000/svg" height="24" viewBox="0 -960 960 960" width="24"><path d="M106-88q-45 0-75.5-30.5T0-194v-383q0-22 15.5-37.5T53-630q22 0 37.5 15.5T106-577v383h633q22 0 37.5 15.5T792-141q0 22-15.5 37.5T739-88H106Zm763.5-571.5Q854-675 854-697v-69h-70q-22 0-37.5-15.5T731-819q0-22 15.5-37.5T784-872h70q44 0 75 31t31 75v69q0 22-15.5 37.5T907-644q-22 0-37.5-15.5Zm-668 0Q186-675 186-697v-69q0-44 31-75t75-31h69q22 0 37.5 15.5T414-819q0 22-15.5 37.5T361-766h-69v69q0 22-15.5 37.5T239-644q-22 0-37.5-15.5ZM784-274q-22 0-37.5-15.5T731-327q0-22 15.5-37.5T784-380h70v-69q0-22 15.5-37.5T907-502q22 0 37.5 15.5T960-449v69q0 44-31 75t-75 31h-70Zm-492 0q-44 0-75-31t-31-75v-69q0-22 15.5-37.5T239-502q22 0 37.5 15.5T292-449v69h69q22 0 37.5 15.5T414-327q0 22-15.5 37.5T361-274h-69Zm237-157 185-120q12-8 12-22t-12-22L529-715q-14-8-27.5-.5T488-692v238q0 16 13.5 23.5t27.5-.5Z"/></svg>