<svg xmlns="http://www.w3.org/2000/svg" height="40" viewBox="0 -960 960 960" width="40"><path d="M114.61-119.97q-30.09 0-51.34-21.24-21.24-21.25-21.24-51.18v-456.23q0-14.78 10.64-25.41t25.67-10.63q15.04 0 25.65 10.63 10.62 10.63 10.62 25.41v456.23h636.2q14.66 0 25.35 10.64 10.7 10.64 10.7 25.69t-10.72 25.57q-10.72 10.52-25.49 10.52H114.61Zm744.01-534.9q-10.12-10.21-10.12-24.82v-90.87h-91.61q-14.7 0-24.57-10.31-9.88-10.31-9.88-24.63 0-14.31 10.04-24.5t24.65-10.19h94.8q26.8 0 46.42 19.67 19.62 19.66 19.62 46.53v94.54q0 14.7-10.12 24.74t-24.61 10.04q-14.49 0-24.62-10.2Zm-670.56 0q-10.12-10.21-10.12-24.82v-94.23q0-26.97 19.64-46.62t46.71-19.65h94.56q14.32 0 24.39 10.23 10.06 10.23 10.06 24.69 0 14.47-10.06 24.59-10.07 10.12-24.39 10.12h-91.44v91.11q0 14.7-10.2 24.74t-24.61 10.04q-14.41 0-24.54-10.2Zm568.83 399.15q-14.7 0-24.57-10.32-9.88-10.31-9.88-24.66 0-14.34 10.04-24.42 10.04-10.07 24.65-10.07h91.37v-91.45q0-14.27 10.24-24.44 10.24-10.17 24.73-10.17t24.5 10.17q10 10.17 10 24.44v94.63q0 26.91-19.62 46.6t-46.42 19.69h-95.04Zm-512.6 0q-27.07 0-46.71-19.69t-19.64-46.6v-94.63q0-14.27 10.24-24.44 10.24-10.17 24.65-10.17 14.42 0 24.5 10.17t10.08 24.44v91.45h91.44q14.32 0 24.39 10.12 10.06 10.12 10.06 24.61t-10.06 24.61q-10.07 10.13-24.39 10.13h-94.56Zm261.18-161.63 179.79-115.57q8.28-5.46 8.28-15.31 0-9.85-8.21-15.39L505.47-678.89q-9.5-5.23-18.63-.19-9.13 5.03-9.13 15.88v230.27q0 11.06 9.07 16.1 9.07 5.03 18.69-.52Z"/></svg>