<svg xmlns="http://www.w3.org/2000/svg" height="48" viewBox="0 -960 960 960" width="48"><path d="M128.38-153.23q-28.44 0-48.41-19.97Q60-193.17 60-221.62v-378.15q0-8.6 6.64-14.99 6.64-6.39 15.62-6.39 8.97 0 15.24 6.39t6.27 14.99v378.15q0 10.77 6.92 17.7 6.93 6.92 17.69 6.92h604.7q8.6 0 14.99 6.64 6.39 6.64 6.39 15.62 0 8.97-6.39 15.24t-14.99 6.27h-604.7ZM862.5-653.02q-6.27-6.4-6.27-15.98v-78.62q0-9.23-7.69-16.92-7.69-7.69-16.92-7.69H752q-8.6 0-14.99-6.64-6.39-6.65-6.39-15.62 0-8.97 6.39-15.24T752-816h79.62q28.05 0 48.22 20.16Q900-775.67 900-747.62V-669q0 9.58-6.64 15.98t-15.62 6.4q-8.97 0-15.24-6.4Zm-681.69 0q-6.27-6.4-6.27-15.98v-78.62q0-28.05 20.16-48.22Q214.87-816 242.92-816h79.62q8.6 0 14.99 6.64 6.39 6.64 6.39 15.62 0 8.97-6.39 15.24t-14.99 6.27h-79.62q-9.23 0-16.92 7.69-7.69 7.69-7.69 16.92V-669q0 9.58-6.64 15.98-6.65 6.4-15.62 6.4-8.97 0-15.24-6.4ZM752-267.77q-8.6 0-14.99-6.64-6.39-6.64-6.39-15.62 0-8.97 6.39-15.24t14.99-6.27h79.62q9.23 0 16.92-7.69 7.69-7.69 7.69-16.92v-79.62q0-8.6 6.64-14.99 6.65-6.39 15.62-6.39 8.97 0 15.24 6.39t6.27 14.99v79.62q0 28.05-20.16 48.22-20.17 20.16-48.22 20.16H752Zm-509.08 0q-28.05 0-48.22-20.16-20.16-20.17-20.16-48.22v-79.62q0-8.6 6.64-14.99 6.64-6.39 15.62-6.39 8.97 0 15.24 6.39t6.27 14.99v79.62q0 9.23 7.69 16.92 7.69 7.69 16.92 7.69h79.62q8.6 0 14.99 6.64 6.39 6.65 6.39 15.62 0 8.97-6.39 15.24t-14.99 6.27h-79.62Zm270.62-168.85 142.69-91.53q8-4.23 8-14.23t-8-14.24l-142.69-91.53q-8.23-4.23-17.35.5-9.11 4.73-9.11 14.73v181.07q0 11.5 9.11 15.98 9.12 4.49 17.35-.75Z"/></svg>