<svg xmlns="http://www.w3.org/2000/svg" height="40" viewBox="0 -960 960 960" width="40"><path d="M107.94-113.3q-31.4 0-53.65-22.26-22.26-22.25-22.26-53.5v-461.06q0-16 10.97-26.93 10.97-10.94 27.01-10.94 16.03 0 26.98 10.94 10.95 10.93 10.95 26.93v461.06h647.55q15.98 0 27 10.97 11.03 10.98 11.03 27.03t-11.03 26.9q-11.02 10.86-27 10.86H107.94Zm757.68-543.91q-10.45-10.54-10.45-25.98v-90.7h-90.95q-15.53 0-25.9-10.58-10.38-10.57-10.38-26.03t10.54-25.91q10.54-10.45 25.98-10.45h94.13q28.12 0 48.75 20.68t20.63 48.86v94.37q0 15.53-10.45 25.91-10.46 10.37-25.95 10.37-15.49 0-25.95-10.54Zm-680.56 0q-10.45-10.54-10.45-25.98v-94.06q0-28.29 20.65-48.95 20.64-20.66 49.03-20.66h94.06q15.54 0 25.91 10.57 10.38 10.56 10.38 26.02 0 15.47-10.38 25.92-10.37 10.46-25.91 10.46h-90.94v90.94q0 15.53-10.53 25.91-10.53 10.37-25.95 10.37-15.41 0-25.87-10.54Zm579.16 401.49q-15.53 0-25.9-10.58-10.38-10.57-10.38-26.06 0-15.49 10.54-25.83 10.54-10.34 25.98-10.34h90.71v-90.94q0-15.49 10.57-25.97 10.57-10.47 26.07-10.47 15.49 0 25.82 10.47 10.34 10.48 10.34 25.97v94.13q0 28.22-20.63 48.92-20.63 20.7-48.75 20.7h-94.37Zm-519.93 0q-28.39 0-49.03-20.7-20.65-20.7-20.65-48.92v-94.13q0-15.49 10.57-25.97 10.57-10.47 25.99-10.47 15.41 0 25.83 10.47 10.41 10.48 10.41 25.97v90.94h90.94q15.54 0 25.91 10.46 10.38 10.45 10.38 25.94 0 15.49-10.38 25.95-10.37 10.46-25.91 10.46h-94.06Zm262.68-161.8 183.2-118.11q8.7-5.91 8.7-16t-8.7-15.99l-183.2-117.44q-9.78-6.22-19.44-.6-9.65 5.61-9.65 16.85v235.04q0 11.24 9.65 16.86 9.66 5.61 19.44-.61Z"/></svg>