<svg xmlns="http://www.w3.org/2000/svg" height="24" viewBox="0 -960 960 960" width="24"><path d="M157-189q-24.03 0-40.77-16.73Q99.5-222.47 99.5-246.5V-609q0-4.92 3.75-8.71 3.75-3.79 9-3.79t9 3.79Q125-613.92 125-609v362.5q0 14 9 23t23 9h533.74q4.76 0 8.51 3.75t3.75 9q0 5.25-3.79 9T690.5-189H157Zm681.75-453.25Q835-646 835-651.5v-74q0-12-10-22t-22-10h-74.5q-5.5 0-9-3.86t-3.5-8.89q0-5.03 3.5-8.89 3.5-3.86 9-3.86H803q24.5 0 41 16.5t16.5 41v74q0 5.5-3.75 9.25t-9 3.75q-5.25 0-9-3.75Zm-632.5 0q-3.75-3.75-3.75-9.25v-74q0-24.5 16.5-41t41-16.5h74.5q4.92 0 8.71 3.75 3.79 3.75 3.79 9t-3.79 9q-3.79 3.75-8.71 3.75H260q-12 0-22 10t-10 22v74q0 5.5-3.75 9.25t-9 3.75q-5.25 0-9-3.75ZM728.5-292q-5.5 0-9-3.86t-3.5-8.89q0-5.03 3.5-8.89 3.5-3.86 9-3.86H803q12 0 22-10t10-22V-424q0-4.92 3.75-8.71 3.75-3.79 9-3.79t9 3.79q3.75 3.79 3.75 8.71v74.5q0 24.5-16.5 41T803-292h-74.5ZM260-292q-24.5 0-41-16.5t-16.5-41V-424q0-4.92 3.75-8.71 3.75-3.79 9-3.79t9 3.79Q228-428.92 228-424v74.5q0 12 10 22t22 10h74.5q4.92 0 8.71 3.75 3.79 3.75 3.79 9t-3.79 9q-3.79 3.75-8.71 3.75H260Zm252-150 132.39-82.93q6.61-4.57 6.61-12.46 0-7.9-6.5-12.61L512-633.5q-7.82-4-14.91 0T490-620.84v166.34q0 9 7 13t15-.5Z"/></svg>