<svg xmlns="http://www.w3.org/2000/svg" height="48" viewBox="0 -960 960 960" width="48"><path d="M105-125q-23.78 0-40.64-16.86T47.5-182.5V-669q0-11.67 8.43-20.09 8.42-8.41 20.5-8.41 12.07 0 20.32 8.41Q105-680.67 105-669v486.5h661.74q11.51 0 19.89 8.43 8.37 8.42 8.37 20.5 0 12.07-8.41 20.32-8.42 8.25-20.09 8.25H105Zm758.25-531.88Q855-665.25 855-677.5v-100H754.5q-12.25 0-20.37-8.53-8.13-8.54-8.13-20.4 0-11.85 8.13-20.21 8.12-8.36 20.37-8.36H855q23.03 0 40.27 17.23 17.23 17.24 17.23 40.27v100q0 12.25-8.43 20.62-8.42 8.38-20.5 8.38-12.07 0-20.32-8.38Zm-692.5 0q-8.25-8.37-8.25-20.62v-100q0-23.03 17.23-40.27Q196.97-835 220-835h100.5q11.67 0 20.09 8.43 8.41 8.42 8.41 20.5 0 12.07-8.41 20.32-8.42 8.25-20.09 8.25H220v100q0 12.25-8.43 20.62-8.42 8.38-20.5 8.38-12.07 0-20.32-8.38ZM754.5-240q-12.25 0-20.37-8.53-8.13-8.54-8.13-20.4 0-11.85 8.13-20.21 8.12-8.36 20.37-8.36H855V-398q0-11.67 8.43-20.09 8.42-8.41 20.5-8.41 12.07 0 20.32 8.41 8.25 8.42 8.25 20.09v100.5q0 23.03-17.23 40.27Q878.03-240 855-240H754.5ZM220-240q-23.03 0-40.27-17.23-17.23-17.24-17.23-40.27V-398q0-11.67 8.43-20.09 8.42-8.41 20.5-8.41 12.07 0 20.32 8.41Q220-409.67 220-398v100.5h100.5q11.67 0 20.09 8.43 8.41 8.42 8.41 20.5 0 12.07-8.41 20.32-8.42 8.25-20.09 8.25H220Zm272-166 185.39-119.93q6.61-4.57 6.61-11.96 0-7.4-6.5-12.11L492-669.5q-7.82-4-14.91 0T470-656.84v238.34q0 9 7 13t15-.5Z"/></svg>