<svg xmlns="http://www.w3.org/2000/svg" height="20" viewBox="0 -960 960 960" width="20"><path d="M133.39-134.78q-37.72 0-65.36-27.64t-27.64-65.36v-377.46q0-18.88 13.75-32.69 13.74-13.81 32.54-13.81 18.8 0 32.75 13.81 13.96 13.81 13.96 32.69v377.46h549.33q18.88 0 32.69 13.74 13.81 13.75 13.81 32.55 0 18.79-13.81 32.75t-32.69 13.96H133.39Zm714.52-498.9q-12.82-12.67-12.82-29.86v-77.16h-78.22q-17.4 0-29.69-12.61-12.29-12.62-12.29-29.72t12.68-29.64q12.67-12.55 29.87-12.55h87.26q30.96 0 52.94 21.98 21.97 21.97 21.97 52.94v87.32q0 17.4-12.33 29.69Q894.94-621 877.84-621t-29.93-12.68Zm-634.69 0q-12.83-12.67-12.83-29.86v-86.76q0-30.97 22.14-52.94 22.14-21.98 53.34-21.98h86.76q17.4 0 29.69 12.33 12.29 12.34 12.29 29.44t-12.29 29.93q-12.29 12.82-29.69 12.82h-77.72v77.72q0 17.4-12.33 29.69Q260.25-621 243.15-621q-17.11 0-29.93-12.68Zm543.65 338.9q-17.4 0-29.69-12.62-12.29-12.61-12.29-29.72 0-17.1 12.68-29.64 12.67-12.55 29.87-12.55h77.65v-77.71q0-17.41 12.61-29.69Q860.32-499 877.42-499t29.65 12.29q12.54 12.28 12.54 29.69v86.76q0 31.2-21.97 53.34-21.98 22.14-52.94 22.14h-87.83Zm-481 0q-31.2 0-53.34-22.14-22.14-22.14-22.14-53.34v-86.76q0-17.41 12.62-29.69Q225.62-499 242.72-499q17.11 0 29.65 12.29 12.54 12.28 12.54 29.69v77.71h77.72q17.4 0 29.69 12.34 12.29 12.33 12.29 29.43t-12.29 29.93q-12.29 12.83-29.69 12.83h-86.76Zm252.24-150.23 150.37-95.17q10.43-6.59 10.43-19.93 0-13.35-10.43-19.93L528.11-675q-11.89-6.98-23.75-.64-11.86 6.34-11.86 20.01v191.42q0 14.01 11.86 20.1 11.86 6.09 23.75-.9Z"/></svg>