<svg xmlns="http://www.w3.org/2000/svg" height="24" viewBox="0 -960 960 960" width="24"><path d="M132.31-144.62q-29.92 0-51.12-21.19Q60-187 60-216.92v-411.54q0-12.77 8.62-21.38 8.61-8.62 21.38-8.62t21.38 8.62q8.62 8.61 8.62 21.38v411.54q0 5.38 3.46 8.84t8.85 3.46H710q12.77 0 21.38 8.62 8.62 8.61 8.62 21.38t-8.62 21.39q-8.61 8.61-21.38 8.61H132.31Zm716.31-504Q840-657.23 840-670v-77.69q0-4.62-3.85-8.46-3.84-3.85-8.46-3.85H750q-12.77 0-21.38-8.62Q720-777.23 720-790t8.62-21.38Q737.23-820 750-820h77.69Q858-820 879-799q21 21 21 51.31V-670q0 12.77-8.62 21.38Q882.77-640 870-640t-21.38-8.62Zm-640 0Q200-657.23 200-670v-77.69Q200-778 221-799q21-21 51.31-21H350q12.77 0 21.38 8.62Q380-802.77 380-790t-8.62 21.38Q362.77-760 350-760h-77.69q-4.62 0-8.47 3.85-3.84 3.84-3.84 8.46V-670q0 12.77-8.62 21.38Q242.77-640 230-640t-21.38-8.62Zm541.38 364q-12.77 0-21.38-8.61-8.62-8.62-8.62-21.38 0-12.77 8.62-21.39 8.61-8.61 21.38-8.61h77.69q4.62 0 8.46-3.85 3.85-3.85 3.85-8.46v-77.69q0-12.77 8.62-21.39 8.61-8.61 21.38-8.61t21.38 8.61q8.62 8.62 8.62 21.39v77.69q0 30.3-21 51.3-21 21-51.31 21H750Zm-477.69 0q-30.31 0-51.31-21-21-21-21-51.3v-77.69q0-12.77 8.62-21.39 8.61-8.61 21.38-8.61t21.38 8.61q8.62 8.62 8.62 21.39v77.69q0 4.61 3.84 8.46 3.85 3.85 8.47 3.85H350q12.77 0 21.38 8.61 8.62 8.62 8.62 21.39 0 12.76-8.62 21.38-8.61 8.61-21.38 8.61h-77.69Zm239.46-143.84 170.07-108.39q8.24-5.61 8.24-15.46 0-9.84-8.24-15.46L511.77-676.15q-9.23-6.23-18.58-.81-9.34 5.42-9.34 16.27v216.77q0 10.84 9.34 16.27 9.35 5.42 18.58-.81Z"/></svg>