<svg xmlns="http://www.w3.org/2000/svg" height="40" viewBox="0 -960 960 960" width="40"><path d="M138.46-169.23q-23.91 0-41.18-17.28Q80-203.78 80-227.69v-398.46q0-7.24 4.88-12.08 4.88-4.85 12.17-4.85 7.28 0 12.04 4.85 4.76 4.84 4.76 12.08v398.46q0 10.77 6.92 17.69 6.92 6.92 17.69 6.92h576.93q7.23 0 12.07 4.89 4.85 4.88 4.85 12.16 0 7.29-4.85 12.04-4.84 4.76-12.07 4.76H138.46Zm712.45-478.69q-4.76-4.85-4.76-12.08v-81.54q0-9.23-7.69-16.92-7.69-7.69-16.92-7.69H740q-7.23 0-12.08-4.89-4.84-4.88-4.84-12.16 0-7.29 4.84-12.04Q732.77-800 740-800h81.54q24.58 0 41.52 16.94Q880-766.12 880-741.54V-660q0 7.23-4.88 12.08-4.88 4.84-12.17 4.84-7.28 0-12.04-4.84Zm-658.46 0q-4.76-4.85-4.76-12.08v-81.54q0-24.58 16.94-41.52Q221.58-800 246.15-800h81.54q7.23 0 12.08 4.88t4.85 12.17q0 7.28-4.85 12.04-4.85 4.76-12.08 4.76h-81.54q-9.23 0-16.92 7.69-7.69 7.69-7.69 16.92V-660q0 7.23-4.88 12.08-4.89 4.84-12.17 4.84-7.29 0-12.04-4.84Zm547.55 371q-7.23 0-12.08-4.88-4.84-4.89-4.84-12.17 0-7.29 4.84-12.04 4.85-4.76 12.08-4.76h81.54q9.23 0 16.92-7.69 7.69-7.69 7.69-16.92v-81.54q0-7.23 4.89-12.08 4.88-4.85 12.16-4.85 7.29 0 12.04 4.85 4.76 4.85 4.76 12.08v81.54q0 24.57-16.94 41.52-16.94 16.94-41.52 16.94H740Zm-493.85 0q-24.57 0-41.52-16.94-16.94-16.95-16.94-41.52v-81.54q0-7.23 4.88-12.08 4.89-4.85 12.17-4.85 7.29 0 12.04 4.85 4.76 4.85 4.76 12.08v81.54q0 9.23 7.69 16.92 7.69 7.69 16.92 7.69h81.54q7.23 0 12.08 4.88 4.85 4.89 4.85 12.17t-4.85 12.04q-4.85 4.76-12.08 4.76h-81.54Zm261.05-155.8 146.52-93.61q7.15-4.57 7.15-12.46 0-7.9-7.15-12.47L507.2-644.21q-7.64-4.64-15.11-.53-7.47 4.1-7.47 13.33v185.9q0 9.23 7.47 13.33t15.11-.54Z"/></svg>