<svg xmlns="http://www.w3.org/2000/svg" height="20" viewBox="0 -960 960 960" width="20"><path d="M130.62-161.23q-34.85 0-58.74-23.89Q48-209 48-243.85v-306.07q0-11.84 8.52-20.42 8.52-8.58 20.27-8.58t20.48 8.58q8.73 8.58 8.73 20.42v306.07q0 10.77 6.92 17.7 6.93 6.92 17.7 6.92H683q11.84 0 20.42 8.52 8.58 8.52 8.58 20.27t-8.58 20.48q-8.58 8.73-20.42 8.73H130.62Zm732.11-475.35Q854-645.16 854-657v-68.38q0-9.24-7.69-16.93-7.69-7.69-16.93-7.69H760q-11.84 0-20.42-8.52-8.58-8.52-8.58-20.27t8.58-20.48Q748.16-808 760-808h69.38q35.32 0 58.97 23.65T912-725.38V-657q0 11.84-8.52 20.42-8.52 8.58-20.27 8.58t-20.48-8.58Zm-676 0Q178-645.16 178-657v-68.38q0-35.32 23.65-58.97T260.62-808H329q11.84 0 20.42 8.52 8.58 8.52 8.58 20.27t-8.58 20.48Q340.84-750 329-750h-68.38q-9.24 0-16.93 7.69-7.69 7.69-7.69 16.93V-657q0 11.84-8.52 20.42-8.52 8.58-20.27 8.58t-20.48-8.58ZM760-291.23q-11.84 0-20.42-8.52-8.58-8.52-8.58-20.27t8.58-20.48q8.58-8.73 20.42-8.73h69.38q9.24 0 16.93-7.69 7.69-7.7 7.69-16.93v-68.38q0-11.84 8.52-20.42 8.52-8.58 20.27-8.58t20.48 8.58q8.73 8.58 8.73 20.42v68.38q0 35.32-23.65 58.97t-58.97 23.65H760Zm-499.38 0q-35.32 0-58.97-23.65T178-373.85v-68.38q0-11.84 8.52-20.42 8.52-8.58 20.27-8.58t20.48 8.58q8.73 8.58 8.73 20.42v68.38q0 9.23 7.69 16.93 7.69 7.69 16.93 7.69H329q11.84 0 20.42 8.52 8.58 8.52 8.58 20.27t-8.58 20.48q-8.58 8.73-20.42 8.73h-68.38Zm266.92-162.98 122.05-78.32q9.56-6.62 9.56-17.2 0-10.58-9.56-17.19l-122.05-78.11q-11.46-5.74-21.66-.14-10.19 5.59-10.19 17.79v155.7q0 12.53 10.19 17.87 10.2 5.35 21.66-.4Z"/></svg>