<svg xmlns="http://www.w3.org/2000/svg" height="48" viewBox="0 -960 960 960" width="48"><path d="M146-184q-21.81 0-37.91-16.09Q92-216.19 92-238v-381.5q0-4.07 3.19-7.29 3.2-3.21 8-3.21 4.81 0 7.81 3.21 3 3.22 3 7.29V-238q0 14 9 23t23 9h563.98q3.74 0 6.88 3.19 3.14 3.2 3.14 8 0 4.81-3.21 7.81-3.22 3-7.29 3H146Zm703-462.14q-3-3.14-3-8.36V-734q0-12-10-22t-22-10h-80q-5.22 0-7.86-3.41-2.64-3.41-2.64-7.78t2.64-7.59Q728.78-788 734-788h80q22.31 0 38.15 15.85Q868-756.31 868-734v79.5q0 5.22-3.19 8.36-3.2 3.14-8 3.14-4.81 0-7.81-3.14Zm-658 0q-3-3.14-3-8.36V-734q0-22.31 15.85-38.15Q219.69-788 242-788h80.5q4.07 0 7.29 3.19 3.21 3.2 3.21 8 0 4.81-3.21 7.81-3.22 3-7.29 3H242q-12 0-22 10t-10 22v79.5q0 5.22-3.19 8.36-3.2 3.14-8 3.14-4.81 0-7.81-3.14ZM734-280q-5.22 0-7.86-3.41-2.64-3.41-2.64-7.78t2.64-7.59Q728.78-302 734-302h80q12 0 22-10t10-22v-80.5q0-4.07 3.19-7.29 3.2-3.21 8-3.21 4.81 0 7.81 3.21 3 3.22 3 7.29v80.5q0 22.31-15.85 38.15Q836.31-280 814-280h-80Zm-492 0q-22.31 0-38.15-15.85Q188-311.69 188-334v-80.5q0-4.07 3.19-7.29 3.2-3.21 8-3.21 4.81 0 7.81 3.21 3 3.22 3 7.29v80.5q0 12 10 22t22 10h80.5q4.07 0 7.29 3.19 3.21 3.2 3.21 8 0 4.81-3.21 7.81-3.22 3-7.29 3H242Zm266.5-158.5 132.78-84.36q6.72-3.64 6.72-11.43 0-7.78-6.5-11.71l-133-84.5q-7.15-3-14.07.25-6.93 3.25-6.93 12.08v167.67q0 9.5 6.75 12.75t14.25-.75Z"/></svg>