<svg xmlns="http://www.w3.org/2000/svg" height="48" viewBox="0 -960 960 960" width="48"><path d="M679.82-64q-91.92 0-153.99-62.16-62.06-62.16-62.06-153.42 0-91.27 62.01-153.84Q587.79-496 679.35-496q89.79 0 153.22 62.26Q896-371.47 896-280.06q0 19.17-3.19 36.42-3.19 17.26-8.35 32.56-1.46-.46-2.31-2.42-.84-1.96-1.3-2.42L849.54-248q1.46-8.05 2.58-15.88 1.11-7.84 1.11-16.12 0-72.38-50.54-122.81-50.54-50.42-122.42-50.42-72.89 0-123.31 50.42-50.42 50.43-50.42 122.31t50.48 122.31q50.48 50.42 122.75 50.42 7.28 0 15.73-.61 8.45-.62 16.5-2.85l31.08 32.85q-.31.46 1.48 1.93 1.8 1.47 3.59.68-16.53 5.54-32.96 8.65Q698.76-64 679.82-64Zm154.72-61.46q-7.16 7.15-15.5 7.15-8.35 0-13.73-7.15L703.23-225.54q-3.45 2.77-23.23 6.31-25.71 0-43.24-17.5t-17.53-43.16q0-25.67 17.49-43.77 17.49-18.11 43.16-18.11 25.66 0 43.27 18.03 17.62 18.03 17.62 43.74 0 5.22-5.31 23.23l99.08 100.31q7.15 7.15 7.15 16 0 8.84-7.15 15ZM185-519.15v-224.39l295-110.61 295 110.61v178.31q-22.77-8.85-46.54-12.89-23.77-4.03-48.46-4.03-126.25 0-214.32 88.15-88.06 88.15-88.06 214 0 41.5 10.47 79.1 10.47 37.6 32.29 71.9-104.15-50.54-169.76-156.76Q185-391.98 185-519.15Z"/></svg>