<svg xmlns="http://www.w3.org/2000/svg" height="20" viewBox="0 -960 960 960" width="20"><path d="M480-493Zm-60.5 312q-86-46.5-140.5-135.83-54.5-89.34-54.5-198.17v-189.35L480-803l255.5 98.5V-555q-4.15.1-8.68-1.1-4.54-1.19-8.82-1.9v-135.5l-238-90-238 90V-515q0 97.44 46.52 181.27Q335.04-249.9 411.5-203q3 6.5 4.5 11.5t3.5 10.5ZM672-105q-76.83 0-129.92-53.01Q489-211.03 489-287.76q0-76.74 53.01-129.99Q595.03-471 671.76-471q76.24 0 129.74 53.08Q855-364.83 855-288q0 19.84-4.5 38.17Q846-231.5 839-215.5q-1.14-3.33-3.07-6.42Q834-225 832-227l-3-3q3.5-13.5 6-28.75t2.5-29.25q0-69.53-48.25-117.52Q741-453.5 671.75-453.5T554.5-405.52q-48 47.98-48 117.5 0 69.52 47.98 117.52 47.99 48 117.52 48 13.5 0 28.75-2.5t29.25-6l1.5 4q2.13 2.36 5 2.98 2.88.61 6.5 1.52-15.29 7.7-33.77 12.6Q690.75-105 672-105Zm126.5-56.5q-3.67 3.5-6.5 3.5t-5.5-3.5L693-254q-6.79 3-21 5-16.24 0-27.62-11.44Q633-271.87 633-288.19q0-16.31 11.44-27.56Q655.87-327 672.19-327q16.31 0 27.56 11.38T711-288q0-.71-5 21l92.5 92q3 3.41 3 6.7 0 3.3-3 6.8Z"/></svg>