<svg xmlns="http://www.w3.org/2000/svg" height="48" viewBox="0 -960 960 960" width="48"><path d="M480-507.31ZM427.69-104q-116.07-49.77-189.38-164.88Q165-383.99 165-521.08v-236.29l315-118.71 315 118.31v192.15q-13.68-6.07-28.67-10.87-14.99-4.81-29.72-7.36v-133.3L480-813.85l-256.61 96.66v196.11q0 97.65 43.38 182.75t116.77 136.56q4.46 28.08 16.31 51.92Q411.69-126 427.69-104Zm252.44 60q-100.18 0-168.46-68.21-68.28-68.22-68.28-167.46 0-99.25 68.25-167.79Q579.9-516 678.97-516q98.69 0 167.86 68.29Q916-379.42 916-279.75q0 23.31-4.35 44.81-4.34 21.5-11.42 40.4-2.23-1.23-3.65-3.96-1.43-2.73-2.66-3.96L853.77-243q2.23-9.2 3.54-18.19 1.3-9 1.3-18.81 0-75.04-52.22-126.83-52.23-51.78-126.97-51.78-74.73 0-126.69 51.71-51.96 51.71-51.96 126.15t52.14 126.4q52.13 51.96 126.47 51.96 8.82 0 18.62-.8 9.8-.81 19-3.43l39.54 40.93q.84 1.23 3.41 3.28 2.56 2.04 5.13 2.02-20.27 7.77-40.99 12.08Q703.38-44 680.13-44Zm168.64-67.23q-9.08 9.07-20.5 9.07t-19.12-9.07L703.62-214.77q-3.73 2.38-23.21 5.15-30.27 0-50.53-20.46t-20.26-50.08q0-29.63 20.24-50.43 20.24-20.79 49.86-20.79t50.14 20.91q20.52 20.91 20.52 50.47 0 5.11-4.15 23.62l102.54 104.15q9.07 9.08 9.07 21t-9.07 20Z"/></svg>