<svg xmlns="http://www.w3.org/2000/svg" height="20" viewBox="0 -960 960 960" width="20"><path d="M671.76-49.87q-99.35 0-168.99-69.39-69.64-69.39-69.64-168.74 0-99.35 69.64-168.74 69.64-69.39 168.99-69.39 99.09 0 168.73 69.39 69.64 69.39 69.64 168.74 0 30.74-7.13 59.72t-20.13 54.95q-3.48-7.95-8.58-15.04-5.09-7.09-11.31-13.3l-40.09-39.85q4.26-12.81 6.51-26.22 2.25-13.41 2.25-26.72-2.39-65.39-48.33-109.65-45.95-44.26-112.06-44.26-67.54 0-113.96 46.29-46.41 46.3-46.41 114.08 0 66.11 44.38 111.92 44.38 45.82 109.77 47.97 13.31 0 26.72-2.5 13.41-2.5 26.22-6.26l39.11 40.35q6.21 6.22 13.3 10.44 7.09 4.23 15.04 7.71-24.97 13-54.2 20.75-29.23 7.75-59.47 7.75Zm165.48-72.39q-11.67 12.17-27.08 12.17-15.4 0-27.57-12.17l-93.52-93.28q-6.48 2-17.07 1.52-31.13 0-52.55-21.43-21.43-21.42-21.43-52.55 0-31.13 21.43-52.55 21.42-21.43 52.55-21.43 30.89 0 52.32 21.43 21.42 21.42 21.42 52.55 0-2.22-1.52 17.57l93.02 93.02q11.43 11.93 11.68 27.57t-11.68 27.58ZM168.87-515v-227.5L480-862.37 791.13-742.5v172.74q-28.17-12.44-58.45-17.9-30.27-5.47-60.92-5.47-125.65 0-215.64 87.95-89.99 87.94-89.99 213.35 0 46.4 13.11 89.41t37.54 82.16q-109.69-49.41-178.8-158.35Q168.87-387.54 168.87-515Z"/></svg>