<svg xmlns="http://www.w3.org/2000/svg" height="48" viewBox="0 -960 960 960" width="48"><path d="M480-498ZM453.5-94q-127-44-208-165t-81-264v-234.5L480-876l315.5 118.5V-549q-13.5-5.5-28-10.25T738-567v-150.5l-258-97-258 97V-523q0 106 49.25 197T402.5-182q8.5 25 21.75 46.75T453.5-94ZM680-45q-98.5 0-167.25-68.25T444-280q0-98.5 68.75-166.75T680-515q97.5 0 166.25 68.25T915-280q0 27-5.5 51.75T894-180.5q-2-2-3.5-4.25T887-189l-37-37q4-12.5 5.75-26.25T857.5-280q0-74.5-52.25-126T679-457.5q-74 0-125.75 51.5T501.5-280q0 74 51.75 125.75T679-102.5q13.5 0 27.75-2T734-110l36.5 37q2 2 4.25 3.5t4.25 3q-22.5 10.5-47.25 16T680-45Zm168.5-66.5q-8.5 8.5-20 8.25t-20-8.25L705-214q-5.5 2-25 4-29.5 0-49.75-20.25T610-280q0-29.5 20.25-49.75T680-350q29.5 0 49.75 20.25T750-280q0 3.5-4 25l102.5 103q8 9 8.25 20.75t-8.25 19.75Z"/></svg>