<svg xmlns="http://www.w3.org/2000/svg" height="20" viewBox="0 -960 960 960" width="20"><path d="M480-525.57Zm-86.7 417.14q-108.82-56.53-176.67-167.25Q148.78-386.41 148.78-515v-242L480-883.78 811.22-757v167.56q-22.65-10.39-47.19-17.65-24.53-7.26-50.81-10.26v-72.56L480-779.09l-233.22 89.18V-515q0 69.37 25.64 131.34 25.64 61.98 70.67 110.05 1.04 45 13.45 86.72 12.42 41.72 36.76 78.46Zm278.13 79.65q-107.91 0-183.56-75.65-75.65-75.66-75.65-183.57t75.65-183.57q75.65-75.65 183.56-75.65 108.48 0 184.14 75.65 75.65 75.66 75.65 183.57 0 28.87-5.72 55.85t-16.72 52.11q-4.27-7.93-9.61-15.58-5.34-7.64-12.04-14.34l-60.48-59.91q2.44-8.17 3.94-16.7 1.5-8.52 1.5-16.69-5.66-62.65-50.98-104.59-45.33-41.93-109.68-41.93-67.73 0-114.76 46.74Q509.65-356.3 509.65-288q0 64.35 42.22 109.96 42.22 45.6 104.87 50.69 8.17 0 16.69-1.5 8.53-1.5 16.7-3.93l59.35 59.91q6.69 6.7 14.17 11.33 7.48 4.63 15.74 8.76-24.13 11-51.76 17.5t-56.2 6.5Zm181.14-78.65q-14.96 14.95-34.71 14.95-19.76 0-34.38-14.95l-95.87-95.31q-7.13 2-15.61.87-35.92 0-61.02-25.17-25.11-25.17-25.11-61.17 0-36.01 25.17-60.96 25.17-24.96 61.17-24.96 35.44 0 60.4 25.11 24.96 25.1 24.96 61.02 0-2.7-.87 15.61l95.87 95.87q14.39 14.3 14.39 34.5 0 20.19-14.39 34.59Z"/></svg>