<svg xmlns="http://www.w3.org/2000/svg" height="20" viewBox="0 -960 960 960" width="20"><path d="M672-76.08q-88.63 0-150.43-61.62-61.8-61.62-61.8-150.21t61.78-150.3q61.77-61.71 150.36-61.71 88.09 0 150.05 61.65 61.96 61.64 61.96 150.27 0 26.25-6.19 50.91-6.19 24.67-16.88 46.51-2.24-5.65-5.77-10.65-3.54-5-7.7-9.16l-20.23-20.23q4.12-13.8 6.47-28.44 2.34-14.63 2.34-28.94 0-68.88-47.79-116.42-47.79-47.54-116.48-47.54-68.88 0-116.42 47.54-47.54 47.54-47.54 116.42t47.54 116.42q47.54 47.54 116.42 47.54 14.12 0 28.75-2.5 14.64-2.5 28.64-6.31l19.34 20.93q4.16 4.34 9.16 6.84t10.65 4.73q-20.96 10.96-45.71 17.62-24.76 6.65-50.52 6.65Zm146.81-64.81q-7.5 7.81-16.71 7.81-9.22 0-16.83-7.81l-93.81-93.42q-6.3 2.39-19.46 3.16-23.97 0-40.41-16.43-16.44-16.42-16.44-40.36 0-23.94 16.43-40.42 16.42-16.49 40.36-16.49 23.94 0 40.42 16.44 16.49 16.44 16.49 40.41 0-1.2-3.16 19.77l93.12 92.92q7.3 7.81 7.46 17.21.15 9.41-7.46 17.21ZM195.27-515v-209.5L480-834.38 764.73-724.5v163.65q-22.27-8.3-45.58-11.51-23.31-3.22-47.15-3.22-119.46 0-203.67 84.06T384.12-288q0 38.12 9.77 73 9.76 34.88 27.76 67.84-99.84-47.11-163.11-147.69Q195.27-395.42 195.27-515Z"/></svg>