<svg xmlns="http://www.w3.org/2000/svg" height="40" viewBox="0 -960 960 960" width="40"><path d="M680-93.67q-79.17 0-132.58-53.51Q494-200.7 494-279.76q0-79.07 53.35-132.82t132.41-53.75q77.57 0 132.07 53.58T866.33-280q0 14.11-2 27.14-2 13.03-6 25.36 0 .17-.16 0-.17-.17.16.17L840-246.67q1.17-7.83 2.17-16.41 1-8.59 1-16.92 0-68.17-47.75-115.67t-115.09-47.5q-67.83 0-115.5 47.5-47.66 47.5-47.66 115.67 0 67.83 47.66 115.5 47.67 47.67 115.5 47.67 7.5 0 16.09-1 8.58-1 17.25-2.84l18.5 19.67q-1 .17-.84 0 .17-.17 0-.5-12.29 4.37-24.82 6.1-12.52 1.73-26.51 1.73Zm134.17-52.5q-4.17 3.84-8.75 3.67-4.59-.17-7.25-3.67L704-239.67q-4.79 2.67-24 6.67-19.71 0-33.36-13.6Q633-260.2 633-279.85t13.6-33.4Q660.2-327 679.85-327t33.4 13.64Q727-299.71 727-280q0 3.95-6.67 23.67l93.84 93q3.33 4.16 3.33 8.91t-3.33 8.25ZM213.5-517.33v-205.5l266.5-99.5 266.5 99.5v168.5q-16.17-3-32.65-5.09-16.48-2.08-33.85-2.08-117.33 0-199.25 82.08-81.92 82.09-81.92 199.42 0 32.39 6.34 62.44 6.33 30.06 21 58.56Q332.5-206.83 273-303.5q-59.5-96.67-59.5-213.83Z"/></svg>