<svg xmlns="http://www.w3.org/2000/svg" height="24" viewBox="0 -960 960 960" width="24"><path d="M480-497.88Zm-54.69 347.57q-97.19-47.73-158.48-146.88-61.29-99.16-61.29-218.81v-211.89L480-830.77 754.46-728v171.81q-8.88-2.31-18.21-4.33-9.33-2.01-18.71-3.13v-139.39L480-791.15l-237.54 88.11V-516q0 96.39 44.06 179.85t116.83 132.03q3.69 14.7 9.21 27.99 5.52 13.28 12.75 25.82ZM680-86.15q-81.26 0-137.61-56.25-56.35-56.24-56.35-137.42 0-81.18 56.3-137.6 56.3-56.43 137.48-56.43 80.68 0 137.35 56.3 56.68 56.29 56.68 137.55 0 17.06-3.14 32.86-3.13 15.79-8.52 29.99-.46-1.44-1.54-2.63-1.07-1.18-1.88-1.99l-25.46-26.46q1.73-7.62 2.67-15.64.94-8.01.94-16.13 0-65.29-46.07-111.11-46.08-45.81-111.16-45.81-65.07 0-110.9 45.81-45.83 45.81-45.83 111.09 0 65.29 45.82 111.12 45.81 45.82 111.1 45.82 7.74 0 15.75-1 8.02-1 16.02-2.61l25.2 26.34q.9 1.09 2.05 1.93 1.16.84 2.56 1.23-14.42 5.92-29.77 8.48-15.34 2.56-31.69 2.56Zm139.12-54.62q-6.13 6.12-13.24 6.12t-12.84-6.12l-90.62-90.85q-3.6 1.77-22.42 5.31-22.3 0-38-15.69-15.69-15.69-15.69-37.98t15.69-38q15.69-15.71 37.98-15.71t38 15.69q15.71 15.7 15.71 38 0 3.1-5.31 22.54l90.74 90.34q5.61 6.12 5.67 13.18.06 7.06-5.67 13.17Z"/></svg>