<svg xmlns="http://www.w3.org/2000/svg" height="48" viewBox="0 -960 960 960" width="48"><path d="M480-495.31Zm-46.88 352.85q-102-47.08-167.04-150-65.04-102.92-65.04-226.69v-212.47L480-836l278.96 104.27v178.5q-6.69-1.58-14.84-3.59-8.16-2.02-15.35-3.64v-150.89L480-804.12l-248.77 92.77v192.2q0 103.84 48.48 192.84T409.42-187q4.66 12.31 11.18 23.1 6.52 10.78 12.52 21.44ZM680-81.15q-84.53 0-141.61-57.11-57.08-57.11-57.08-141.56t57.03-141.74q57.03-57.29 141.48-57.29 82.68 0 140.85 57.16 58.18 57.16 58.18 141.69 0 17.02-2.62 32.53-2.61 15.51-8 30.43-.46-.2-.81-.66-.34-.45-.42-.53l-22.38-23.15q1.69-9.04 2.86-18.95 1.17-9.9 1.17-19.67 0-70.68-49.36-119.67-49.37-48.98-119.33-48.98-69.96 0-119.21 48.98T511.5-280.02q0 70.17 49.24 119.42t119.41 49.25q8.89 0 18.91-1.23t19.94-3.57l22.65 23.53q-.59.36-.17.6.42.24.6.14-14.65 5.65-29.96 8.19-15.31 2.54-32.12 2.54Zm143.12-56.12q-5.17 4.65-11.22 4.4-6.05-.25-9.55-4.4L704.62-234q-5.34 2.77-24.62 6.31-21.84 0-37.07-15.23-15.24-15.23-15.24-37.06 0-21.83 15.23-37.08t37.06-15.25q21.83 0 37.08 15.24 15.25 15.23 15.25 37.07 0 4.1-6.31 24.23l97.12 96.46q4.15 5.16 4.21 11.52.05 6.37-4.21 10.52Z"/></svg>