<svg xmlns="http://www.w3.org/2000/svg" height="20" viewBox="0 -960 960 960" width="20"><path d="M480-511.24Zm-63.22 390.98q-109.69-49.41-178.8-158.18Q168.87-387.21 168.87-515v-227.5L480-862.37 791.13-742.5v172.74q-18.39-7.44-37.92-13.14-19.54-5.71-40.08-8.21v-98.24L480-778.65l-233.13 89.3V-515q0 80.22 33.79 151.23 33.79 71 90.99 119.2 4.33 34.5 15.18 65.64 10.84 31.13 29.95 58.67Zm254.98 70.39q-99.35 0-168.99-69.39-69.64-69.39-69.64-168.74 0-99.35 69.64-168.74 69.64-69.39 168.99-69.39 99.09 0 168.73 69.39 69.64 69.39 69.64 168.74 0 31.05-7.13 59.87-7.13 28.83-20.13 54.8-3.62-7.62-8.65-14.87-5.02-7.26-11.24-13.47l-40.09-39.85q4.26-12.81 6.51-26.22 2.25-13.41 2.25-26.72-2.39-65.39-48.33-109.65-45.95-44.26-112.06-44.26-67.54 0-113.96 46.29-46.41 46.3-46.41 114.08 0 66.11 44.38 111.92 44.38 45.82 109.77 47.97 13.31 0 26.72-2.5 13.41-2.5 26.22-6.26l39.11 40.35q6.21 6.22 13.3 10.44 7.09 4.23 15.04 7.71-24.97 13-54.2 20.75-29.23 7.75-59.47 7.75Zm165.48-72.39q-11.67 12.17-27.24 12.17-15.57 0-27.41-12.17l-93.52-93.28q-6.48 2-17.07 1.52-30.83 0-52.4-21.64-21.58-21.63-21.58-52.55 0-30.92 21.64-52.34 21.63-21.43 52.55-21.43 30.68 0 52.11 21.58 21.42 21.57 21.42 52.4 0-2.22-1.52 17.57l93.02 93.02q11.43 11.84 11.68 27.53.25 15.68-11.68 27.62Z"/></svg>