<svg xmlns="http://www.w3.org/2000/svg" height="40" viewBox="0 -960 960 960" width="40"><path d="M480-513.15Zm-64.03 410.51Q302.28-155.1 231.14-269.3 160-383.5 160-519.38v-241.59l320-120.57 320 120.31v186.87q-15.93-7.2-33.09-12.38-17.16-5.17-34.5-8.05v-119.65l-252.41-95-252.41 94.96v195.1q0 90.89 38.56 170.74 38.57 79.85 103.88 130.77 3.38 32.64 15.56 61.15 12.18 28.51 30.38 54.08Zm264.06 63.97q-101.95 0-171.86-69.94-69.91-69.94-69.91-171.06t69.88-171.39q69.88-70.27 170.99-70.27 100.84 0 171.52 70.02t70.68 171.46q0 23-4.31 44.71-4.3 21.72-11.38 40.83-2.56-2.1-4.36-5.37-1.79-3.27-3.9-5.37l-46-46.59q1.49-7.05 2.43-13.98.93-6.92.93-14.38 0-73.36-51.15-124.22t-124.14-50.86q-72.99 0-123.96 50.81-50.98 50.81-50.98 123.6 0 72.8 51.11 123.77 51.11 50.98 123.64 50.98 6.79 0 14.25-.61 7.47-.6 14.52-2.34l45.46 46.97q1.84 2.1 4.94 4.46 3.11 2.36 6.21 3-20.06 7.57-40.87 11.67-20.8 4.1-43.74 4.1Zm172.4-68.56q-10.15 10.15-23.46 10.32-13.3.16-22.87-10.32L702.33-209.54q-2.52 1.72-22.06 4.49-31.88 0-53.71-21.8-21.84-21.81-21.84-53.24 0-31.44 21.82-53.65 21.81-22.21 53.25-22.21t53.3 22.27q21.86 22.27 21.86 53.68 0 5.44-3.82 22.67l101.3 102.71q10.16 10.49 10.32 24.03.17 13.54-10.32 23.36Z"/></svg>