<svg xmlns="http://www.w3.org/2000/svg" height="24" viewBox="0 -960 960 960" width="24"><path d="M680-80q-83.33 0-141.67-58.28Q480-196.56 480-279.82q0-83.26 58.28-141.72Q596.56-480 679.82-480q83.26 0 141.72 58.33Q880-363.33 880-280q0 15.65-2.46 29.94-2.46 14.29-6.62 27.37-.46-.69-1.04-1.39-.57-.69-1.26-1.38l-30.39-31.39q1-5.77 1.39-11.57.38-5.81.38-11.58 0-66-47-113t-113-47q-66 0-113 47t-47 113q0 66 47 113t113 47q5.77 0 11.58-.38 5.8-.39 11.57-1.39l30.62 31.15q.69.7 1.38 1.39.7.69 1.39 1.15-13.3 4.31-27.27 6.2Q695.3-80 680-80Zm143.54-56.46q-6.62 6.61-14.27 6.61-7.65 0-14.27-6.61l-92.46-92.69q-3.22 1.77-22.54 5.3-23.16 0-39.66-16.46-16.49-16.46-16.49-39.57 0-23.12 16.46-39.7 16.46-16.57 39.57-16.57 23.12 0 39.7 16.49 16.57 16.5 16.57 39.66 0 3.22-5.3 22.54l92.69 92.69q6.61 6.62 6.61 14.15 0 7.54-6.61 14.16ZM200-516v-216.31l280-104.61 280 104.61v168.62q-19.77-5.62-39.63-8.66-19.85-3.03-40.37-3.03-123.23 0-209.31 86.07-86.07 86.08-86.07 209.31 0 34.86 7.73 68.24 7.73 33.38 23.73 63.91-95.85-50.69-155.96-149.84Q200-396.85 200-516Z"/></svg>