<svg xmlns="http://www.w3.org/2000/svg" height="24" viewBox="0 -960 960 960" width="24"><path d="M480-495Zm-55.5 332q-92-47.5-150-142.5t-58-210.5v-204.35L480-819l263.5 98.5V-554q-6.15-.9-12.65-2.1-6.5-1.19-12.85-1.9v-145.5l-238-88-238 88V-516q0 99.2 46.25 184.6Q334.5-246 410.5-198q3 9.5 6.5 18t7.5 17ZM680-97q-76.83 0-129.92-53.01Q497-203.03 497-279.76q0-76.74 53.01-129.99Q603.03-463 679.76-463q76.24 0 129.74 53.08Q863-356.83 863-280q0 14.53-2.5 28.02-2.5 13.48-6.5 25.48 0-.67-.5-1.08l-.5-.42-19-20q1.5-7.5 2.5-15.75t1-16.25q0-65.53-46.25-111.52Q745-437.5 679.75-437.5T568.5-391.52q-46 45.98-46 111.5 0 65.52 45.98 111.52 45.99 46 111.52 46 7.5 0 15.75-1T712-126l18.5 20q.13.36.5.48.38.11 1 .02-12.29 4.7-25.27 6.6Q693.75-97 680-97Zm131.5-51.5q-4.67 4.5-9.33 4.5-4.67 0-8.67-4.5L703-239q-3.79 2-23 6-19.54 0-33.27-13.72Q633-260.45 633-279.97q0-19.53 13.72-33.28Q660.45-327 679.97-327q19.53 0 33.28 13.73T727-280q0 3.29-6 23l90.5 90q4 4.5 4 9.25t-4 9.25Z"/></svg>