<svg xmlns="http://www.w3.org/2000/svg" height="40" viewBox="0 -960 960 960" width="40"><path d="M679.82-58.67q-93.67 0-157.49-63.95-63.82-63.96-63.82-156.96 0-93.01 63.77-157.38 63.77-64.37 157.07-64.37 92.12 0 157.05 64.06t64.93 157.21q0 19.02-3.28 36.78-3.28 17.77-8.43 33.33-1.8-1.2-2.89-3.58-1.09-2.37-2.29-3.57l-36-36.85q.97-6.4 1.84-12.95.87-6.54.87-13.1 0-71.59-50.02-121.54-50.03-49.95-121.12-49.95-71.75 0-121.7 49.95T508.36-280.5q0 71.09 50 121.04 50.01 49.95 121.15 49.95 5.89 0 12.85-.54 6.95-.54 13.36-2.03l35.59 37.62q.69 1.2 2.9 2.79 2.2 1.59 4.41 1.46-16.46 5.47-33.24 8.5-16.77 3.04-35.56 3.04Zm158.39-62.79q-7.98 7.97-17.76 8.14-9.78.17-16.91-8.14l-101.21-99.62q-2.37 2.11-22.33 5.64-27.2 0-46.05-18.65-18.85-18.65-18.85-45.8t18.81-46.41q18.82-19.26 45.97-19.26t45.91 19.18q18.77 19.18 18.77 46.38 0 5.55-4.97 22.67l98.62 99.77q7.97 8.3 8.14 18.38.16 10.08-8.14 17.72ZM180-518.1v-229.03l300-112.61 300 112.61v175.08q-23.77-9.77-48.87-14.14-25.1-4.37-51.13-4.37-129.71 0-220.21 90.79-90.51 90.8-90.51 219.77 0 41.6 10.41 80.01 10.4 38.41 31.93 73.37-103.06-52.58-167.34-158.55Q180-391.13 180-518.1Z"/></svg>