<svg xmlns="http://www.w3.org/2000/svg" height="40" viewBox="0 -960 960 960" width="40"><path d="M680-64.74q-90.55 0-153.1-62.33-62.54-62.33-62.54-152.84t62.52-152.93q62.52-62.42 153.03-62.42 89.42 0 152.38 62.36 62.97 62.35 62.97 152.9 0 21.74-4.11 41.72-4.1 19.98-11.79 38.57-1.23-1.57-2.53-3.33-1.29-1.76-2.7-3.17l-31.87-32.46q2.6-9.78 3.86-20.21 1.25-10.43 1.25-21.12 0-70.01-49.13-118.69-49.14-48.68-118.62-48.68-69.68 0-118.53 48.68-48.85 48.68-48.85 118.69 0 69.68 48.85 118.53 48.85 48.84 118.53 48.84 10.16 0 20.8-1.41 10.63-1.41 20.94-3.96l31.83 32.49q1.16 1.6 2.91 2.82 1.76 1.21 3.33 2.11-18.36 8.04-38.1 11.94-19.75 3.9-41.33 3.9Zm154.47-60.81q-7.34 7.32-16.95 7.15-9.61-.17-16.48-7.15l-97.35-96.89q-4.71 2.05-23.69 4.82-26.15 0-44.26-18.1-18.12-18.1-18.12-44.22 0-26.12 18.1-44.28t44.22-18.16q26.12 0 44.28 18.12 18.16 18.11 18.16 44.26 0 3.47-4.82 23.67l96.91 96.79q6.82 7.66 6.98 17.33.15 9.67-6.98 16.66Zm-650.2-393.83v-223.86L480-854.13l295.73 110.89v189.21q-22.94-7.71-46.92-12.26-23.97-4.54-48.81-4.54-121.33 0-206.28 84.75-84.94 84.75-84.94 206.08 0 43.02 12.34 83.09 12.33 40.08 36.64 75.04-111.62-46.4-182.55-156.4-70.94-110-70.94-241.11Z"/></svg>