<svg xmlns="http://www.w3.org/2000/svg" height="24" viewBox="0 -960 960 960" width="24"><path d="M679-16q-110 0-187.25-77T414.5-280q0-110 77.25-187T679-544q110.5 0 187.75 77T944-280q0 26.5-4.75 52t-14.75 49q-4-8-9.5-15.25T903-208l-85-85q1.5-3 2.25-6.75T821-307q-10-51.5-49-84.25T678.5-424q-60.5 0-102.25 41.25T534.5-280q0 54.5 33.25 93.75T652.5-138q3.5 0 7.25-1t6.75-2L750-56.5q6.5 6.5 13.75 11.75T779-35.5q-23.5 10-48.75 14.75T679-16Zm189.5-75q-18 18.5-42.25 18.5T783.5-91l-89-89q-5 1-14.5 1-42.5 0-71.75-29.25T579-280q0-42.5 29.25-71.75T680-381q41.5 0 70.75 29.25T780-280q0-.5-1 15l89.5 89.5q17 17.5 17.25 42.25T868.5-91ZM135-516v-260l345-129 345 129v190.5q-33.5-16-71-24.75T679-619q-136.5 0-238 93.75T339.5-296q0 56 15.25 110.5T402-84q-119.5-56.5-193.25-175.5T135-516Z"/></svg>