<svg xmlns="http://www.w3.org/2000/svg" height="24" viewBox="0 -960 960 960" width="24"><path d="M480-538.91ZM384.22-73.48q-118.13-61.26-190.7-181.68Q120.96-375.59 120.96-516v-271.09L480-921.91l359.04 134.82v184.57q-29.13-14.64-59.87-23.15-30.74-8.51-63.08-12.37v-64.74L480-790.83l-236.09 87.98V-516q0 64.09 19.98 121.96 19.98 57.86 55.63 106.6-1.39 58.35 15.39 112.77 16.79 54.41 49.31 101.19ZM679.26-.09q-116.65 0-198.2-81.52-81.54-81.53-81.54-198.15 0-116.63 81.54-198.39 81.55-81.76 197.9-81.76 117.49 0 199.22 81.57 81.73 81.58 81.73 198.28 0 26.06-4.43 50.71-4.44 24.65-12.87 48.22-4-6.7-8.91-13.33-4.92-6.63-10.48-12.76l-86.39-86.26V-295.26q-5.66-60.96-50.42-102.33-44.76-41.37-106.91-41.37-66.11 0-112.56 46.18-46.46 46.17-46.46 112.28 0 62.72 41.71 107.76 41.7 45.04 102.11 50.13h1.22l85.83 86.26q5.56 6.13 12.03 11.11 6.46 4.97 13.49 8.28-23 8.44-47.22 12.66-24.22 4.21-50.39 4.21Zm200.39-79.26q-17.82 17.83-42.72 18.05-24.89.21-43.15-18.05l-97.61-97.04q-1.69 0-16.17.87-43.4 0-74.44-30.54-31.04-30.55-31.04-73.95 0-43.4 31.04-74.43 31.03-31.04 74.43-31.04 43.4 0 73.66 31.04 30.26 31.04 30.26 74.44 0 3.17-.87 17.17l96.61 97.61q17.83 17.7 18.05 42.65.21 24.96-18.05 43.22Z"/></svg>