<svg xmlns="http://www.w3.org/2000/svg" height="48" viewBox="0 -960 960 960" width="48"><path d="M480-516ZM434.5-76q-131-50-213-175.5t-82-271.5v-251.5L480-902l341.5 127.5V-566Q799-576.5 776-583.75T729-594v-116.5l-249-94-249 94V-523q0 90 38.75 167T374.5-229q3.5 42 18.75 80.75T434.5-76ZM679-20q-109.5 0-185.25-75.25T418-280q0-109.5 75.75-185.25T679-541q108.5 0 185.25 75.75T941-280q0 28-5.5 54.25T920-175.5q-2-4-6-9.25t-8-9.25l-66-65q4-9.5 5.75-20.25T847.5-300q-8-65.5-55.25-107.5T678-449.5q-70 0-119.25 48.5T509.5-280q0 66 42.75 113.25T659-112.5q9.5 0 20.75-2T701-119l63.5 65q4 4 9.25 7.5t10.25 5Q759.5-30 733.25-25T679-20Zm187.5-73.5Q853-80 834.5-80.25t-32-13.25L701-194q-7.5 2-21 3-37.5 0-63.25-25.75T591-280q0-37.5 25.75-63.25T680-369q37.5 0 62.75 25.75T768-280q0 .5-2 20l100.5 102q13 14 13.25 32.75T866.5-93.5Z"/></svg>