<svg xmlns="http://www.w3.org/2000/svg" height="20" viewBox="0 -960 960 960" width="20"><path d="M672-68q-91.67 0-155.83-64.14Q452-196.28 452-287.91q0-91.63 64.14-155.86Q580.28-508 671.91-508q91.63 0 155.86 64.17Q892-379.67 892-288q0 24.33-5.23 46.97t-14.31 43.18q-2.23-4.84-5.27-9.19-3.04-4.35-6.88-8.19l-26.69-26.69q3-11.39 4.69-23.04Q840-276.62 840-288q0-70-49-119t-119-49q-70 0-119 49t-49 119q0 70 49 119t119 49q11.38 0 23.04-1.69 11.65-1.69 23.04-4.69l26.3 27.07q3.85 3.85 8.2 6.19 4.34 2.35 9.19 4.58-19.65 9.15-42.64 14.85Q696.15-68 672-68Zm152.77-67.23q-8.31 8.31-18.39 8.31-10.07 0-18.38-8.31l-96.23-95.85q-6.11 2.39-19.77 3.16-25.08 0-42.58-17.48t-17.5-42.54q0-25.06 17.48-42.6 17.48-17.54 42.54-17.54t42.6 17.5q17.54 17.5 17.54 42.58 0-.89-3.16 19.77l95.85 95.85q8.31 8.3 8.31 18.57t-8.31 18.58ZM188-515v-215.15l292-112.31 292 112.31v159.3q-24.39-9.3-49.31-13.07-24.93-3.77-50.69-3.77-124.61 0-212.15 87.54T372.31-288q0 38.93 9.61 74.62 9.62 35.69 27.62 69.46-97.92-50.85-159.73-151.43Q188-395.92 188-515Z"/></svg>