<svg xmlns="http://www.w3.org/2000/svg" height="20" viewBox="0 -960 960 960" width="20"><path d="M480-529ZM386-96q-111-58-179.5-171.63T138-515v-251l342-132 342 132v167q-23.17-10.81-47.71-18.19Q749.76-624.57 724-629v-70l-244-94-244 93.94V-515q0 70.24 24.77 134.17Q285.54-316.9 329-267q2 48 16.5 91T386-96Zm285.82 80Q558-16 479-95.26q-79-79.27-79-192.5Q400-401 479-480.5 558-560 671.53-560t193 79.32Q944-401.37 944-288.06q0 31.37-7 61.71Q930-196 918-169q-5.14-7.67-10.07-15.83Q903-193 896-200l-54-54q2-8.35 3.5-17t1.5-17q0-74-51-125t-124.5-51Q598-464 547-413t-51 124.5q0 73.5 51.06 124.5 51.05 51 123.94 51 8.35 0 17-1.5t17-3.5l53 55q7 7 14.83 11.62Q780.67-46.75 789-43q-26 12-56 19.5T671.82-16ZM861-98q-14 14-33.67 14.5Q807.67-83 793-98L689-201q-3 1-17 1-36.71 0-62.86-25.71Q583-251.42 583-288.22t26.2-62.79q26.21-25.99 63-25.99 36.8 0 62.3 26.14Q760-324.71 760-288q0 2-1 18l102 103q14 14.91 14.5 34.45Q876-113 861-98Z"/></svg>