<svg xmlns="http://www.w3.org/2000/svg" height="24" viewBox="0 -960 960 960" width="24"><path d="M680-86.15q-81.26 0-137.61-56.25-56.35-56.24-56.35-137.42 0-81.18 56.3-137.6 56.3-56.43 137.48-56.43 80.68 0 137.35 56.3 56.68 56.29 56.68 137.55 0 17-3.14 32.83-3.13 15.82-8.52 30.02-.46-1.31-1.54-2.56-1.07-1.25-1.88-2.06l-25.46-26.46q1.73-7.62 2.67-15.64.94-8.01.94-16.13 0-65.27-46.07-111.1-46.08-45.82-110.97-45.82-65.26 0-111.09 45.82-45.83 45.83-45.83 111.1t45.83 111.1q45.83 45.82 111.09 45.82 7.74 0 15.75-1 8.02-1 16.02-2.61l25.2 26.34q.8 1.2 2.05 1.95 1.25.75 2.56 1.21-14.42 5.92-29.67 8.48-15.26 2.56-31.79 2.56Zm139.12-54.62q-6 6.12-13.18 6.12-7.17 0-12.9-6.12l-90.62-90.85q-3.6 1.77-22.42 5.31-22.43 0-38.06-15.59-15.63-15.6-15.63-37.98 0-22.39 15.59-38.1 15.6-15.71 37.98-15.71 22.39 0 38.1 15.63T733.69-280q0 3.1-5.31 22.54l90.74 90.34q5.61 6.12 5.67 13.18.06 7.06-5.67 13.17ZM205.54-516v-212L480-830.77 754.46-728v171.81q-18.04-4.62-36.66-7.29-18.63-2.67-37.8-2.67-119.42 0-202.85 83.36-83.42 83.37-83.42 202.79 0 34.25 7.79 67.01 7.79 32.76 23.79 62.68-97.19-47.73-158.48-146.88-61.29-99.16-61.29-218.81Z"/></svg>