<svg xmlns="http://www.w3.org/2000/svg" height="20" viewBox="0 -960 960 960" width="20"><path d="M480-519.07Zm-71.7 406.64q-111.32-52.03-180.92-162.75-69.6-110.73-69.6-239.82v-235L480-873.78 802.22-750v173.06q-21.65-9.39-44.94-16.4-23.28-7.01-48.06-9.51v-83.56L480-774.09l-229.22 87.68V-515q0 73.37 29.39 138.34 29.39 64.98 79.42 111.55 2.04 42 13.7 80.47 11.67 38.47 35.01 72.21Zm263.13 73.65q-103.91 0-176.81-72.65-72.9-72.66-72.9-176.57t72.9-176.57q72.9-72.65 176.81-72.65 103.98 0 176.89 72.65 72.9 72.66 72.9 176.57 0 31.37-6.97 60.85t-19.97 56.11q-4.27-8.93-10.11-17.33-5.84-8.39-13.04-15.59l-52.48-51.91q3.94-11.17 6.19-23.45 2.25-12.27 2.25-23.94-5.66-61.15-49.48-101.34-43.83-40.18-106.68-40.18-66.23 0-111.51 44.99Q514.15-354.8 514.15-288q0 62.85 40.47 106.71 40.47 43.85 101.62 48.94 11.67 0 23.94-2.5 12.28-2.5 23.45-5.93l50.85 52.41q7.19 7.2 15.42 12.08t17.49 9.01q-25.63 13-55.51 20.75t-60.45 7.75Zm173.64-75.65q-13.96 14.45-32.46 14.45-18.51 0-32.63-14.45l-92.87-92.31q-7.13 2-15.11.87-34.42 0-58.27-23.92-23.86-23.92-23.86-58.42 0-34.51 23.92-58.21 23.92-23.71 58.42-23.71 33.94 0 57.65 23.86 23.71 23.85 23.71 58.27 0-3.2-.87 15.61l92.37 92.37q13.39 13.8 13.64 32.75.25 18.94-13.64 32.84Z"/></svg>