<svg xmlns="http://www.w3.org/2000/svg" height="24" viewBox="0 -960 960 960" width="24"><path d="M678.82 6Q560 6 476.5-77.26 393-160.53 393-279.76 393-399 476.5-482.5 560-566 678.53-566q120.53 0 204 83.32Q966-399.37 966-280.06q0 26.06-4 50.06-4 24-12 48-4-8-10-15.5T928-212l-99-98v3q-10-54-51.5-89.5t-98-35.5q-63.5 0-108 44T527-280.5q0 57.5 36.06 99.5 36.05 42 89.94 51h-4l98 98q6 7 13.33 12.62Q767.67-13.75 776-10q-23 8-47 12t-50.18 4ZM884-75q-20 20-47.5 20T789-75l-95-94h-14q-46.01 0-79.01-32.5Q568-234 568-280.01q0-46.01 32.99-79t79-32.99Q726-392 758-359.01q32 33 32 79.01v15l94 95q20 19 20 47t-20 48ZM114-516v-275l366-137 366 137v185q-39-20-81.41-30T679-646q-149.4 0-257.7 101.5Q313-443 313-296q0 59.94 15.55 118.09Q344.09-119.76 379-70q-119-63-192-184.3-73-121.29-73-261.7Z"/></svg>