<svg xmlns="http://www.w3.org/2000/svg" height="20" viewBox="0 -960 960 960" width="20"><path d="M480-505.5ZM423-126q-108.5-47.5-177.25-154.83Q177-388.17 177-515v-222l303-117 303 117v172.5q-16-6-32.78-10.75Q733.43-580 716-582.5v-109L480-782l-236 90.5V-515q0 85.24 37.02 160.67 37.02 75.43 99.48 124.83 6 29 16.25 54.75T423-126Zm249 68q-96 0-163.25-67T441.5-288q0-96 67.25-163T672-518q95.5 0 162.75 67T902-288q0 30.81-7.25 59.15Q887.5-200.5 874.5-175q-3.14-6.67-7.57-13.08Q862.5-194.5 857-200l-31-31q4.5-14 6.75-28.25T835-288q0-68.5-47.5-115.75T671.5-451q-68.5 0-115.75 47.25T508.5-288q0 68.5 47.25 115.75T671.5-125q14.5 0 28.75-2.5t28.25-6.5l30.5 31.5q5.5 5.5 11.75 9.25T784-86.5q-24.5 13-53.25 20.75T672-58Zm159.5-70q-10 10.5-23.42 10.5-13.41 0-23.58-10.5l-94-94q-6 2-18.5 2-28.2 0-48.1-19.96-19.9-19.96-19.9-48.25t19.96-48.04Q643.92-356 672.21-356t48.04 19.9Q740-316.2 740-288q0-1.5-2 19l93.5 93.5q10 10.41 10.25 23.7.25 13.3-10.25 23.8Z"/></svg>