<svg xmlns="http://www.w3.org/2000/svg" height="40" viewBox="0 -960 960 960" width="40"><path d="M679-18.67q-109.67 0-185.92-75.83-76.25-75.83-76.25-185.5t76.25-185.83Q569.33-542 679-542q109.17 0 186.08 76.17Q942-389.67 942-280q0 27.5-5.25 53.5t-15.25 49.83q-2.67-5.33-7.17-11.25-4.5-5.91-9.33-10.75l-72.33-71.66q3.16-7.34 4.58-15.75 1.42-8.42 1.42-16.25-8.67-60.84-53.17-99.75Q741-441 678.17-441q-66.84 0-113.59 46.08-46.75 46.09-46.75 114.92 0 62.17 39.59 106.75Q597-128.67 656.83-121q7.5 0 16.25-1.67 8.75-1.66 16.42-3.66l70.17 71.5q4.83 4.83 10.75 8.91 5.91 4.09 11.91 6.42-24.16 11-50.08 15.92-25.92 4.91-53.25 4.91Zm188.17-74q-15 15.17-35.42 15-20.42-.16-35.58-15l-97.34-96.66q-6.66 1.66-18.83 2.33-39.17 0-66.08-26.92Q587-240.83 587-280t26.92-66.08Q640.83-373 680-373q38.83 0 65.42 26.92Q772-319.17 772-280q0 .17-1.67 18.33l96.84 97.84q14.33 15.16 14.58 35.91.25 20.75-14.58 35.25ZM138-520.67V-775l342-128 342.67 128v202.5q-33.5-15.33-70-24.08-36.5-8.75-73.67-8.75-131.5 0-228.5 90.75t-97 221.25q0 58.33 16.92 113.16 16.91 54.84 53.25 101.5-127.17-52.16-206.42-175.5Q138-377.5 138-520.67Z"/></svg>