<svg xmlns="http://www.w3.org/2000/svg" height="48" viewBox="0 -960 960 960" width="48"><path d="M480-518ZM430-77q-129-51-210.5-175.65T138-523v-251.6L480-903l343 128v206q-23.28-12.03-46.23-18.8-22.94-6.77-45.77-9.2v-115l-251-94-251 93.97V-523q0 89.03 38 165.52Q305-281 371-230q2 42 17.5 80.5T430-77Zm249.13 58Q569-19 493-94.26q-76-75.27-76-185.5Q417-390 493-466q76-76 185.06-76 110.06 0 187 75.82Q942-390.37 942-279.75q0 27.75-5 51.38-5 23.63-13 46.37-1-3-5.5-8t-6.5-8l-69-67q4-10.35 5.5-18t1.5-17q-8-65.35-55.96-108.17-47.96-42.83-115-42.83Q608-451 558-401.75t-50 121Q508-214 551.67-166q43.68 48 108.33 55 8.35 0 17-1t18-4l67 67q2 3 6.83 7.12Q773.67-37.75 779-38q-24 10-48 14.5T679.13-19ZM867-93q-14 14-32.5 13.5T804-93L701-194q-7 2-20.59 3-37.42 0-63.42-26.21Q591-243.42 591-280.22t25.99-63.29Q642.98-370 679.78-370q37.8 0 63.01 26.64Q768-316.71 768-280l-1 20 100 103q15 13 14.5 32T867-93Z"/></svg>