<svg xmlns="http://www.w3.org/2000/svg" height="40" viewBox="0 -960 960 960" width="40"><path d="M679.43-24.17q-106.78 0-181.63-74.53-74.86-74.52-74.86-181.3 0-106.78 74.86-181.49 74.85-74.71 181.63-74.71 106.98 0 181.87 74.71 74.9 74.71 74.9 181.49 0 25.57-4.57 49.17-4.57 23.61-13.24 45.7-2.37-3.84-5.29-7.63-2.91-3.79-6.56-7.44l-63.76-63.52q2.15-6.93 3.15-14.31 1-7.38 1-14.59-4.9-66.16-52.79-110.89-47.89-44.74-115.37-44.74-69.74 0-118.81 48.79Q510.9-350.68 510.9-280q0 67.1 45.01 114.94 45.02 47.84 110.8 52.18 7.22 0 14.93-1t14.64-2.77l62.95 63.19q3.65 3.65 7.44 6.45 3.79 2.79 8.01 5.17-22.46 9.04-46.07 13.36-23.61 4.31-49.18 4.31ZM863.3-96.7q-13.2 13.21-31.03 12.87-17.84-.33-31.04-12.87l-100.2-99.68q-5.46 1.67-21.03 2.92-36.09 0-61.31-25.23-25.23-25.22-25.23-61.31t25.23-61.31q25.22-25.23 61.31-25.23 35.9 0 60.93 25.23 25.04 25.22 25.04 61.31 0 1.97-2.53 20.65l99.86 100.92q13.02 13.01 13.02 31.2 0 18.19-13.02 30.53ZM144.17-520.67v-250.74L480-897.06l336.2 125.65v198.86q-32.58-14.31-67-22.31-34.43-8.01-69.77-8.01-132.33 0-227.74 91.78-95.41 91.79-95.41 223.55 0 55.24 16.63 107.04 16.64 51.8 50.03 95.81-123.78-52.11-201.27-173.27-77.5-121.16-77.5-262.71Z"/></svg>