<svg xmlns="http://www.w3.org/2000/svg" height="40" viewBox="0 -960 960 960" width="40"><path d="M679.43-30.84q-104.44 0-177.22-72.36-72.77-72.35-72.77-176.8 0-104.45 72.77-176.99 72.78-72.55 177.22-72.55 103.81 0 176.96 72.55 73.15 72.54 73.15 176.99 0 27.07-5.33 52.34-5.32 25.28-15.32 48.53-2.37-4.17-5.79-8.71-3.41-4.54-7.23-8.36l-58.42-58.19q3.31-8.93 4.73-18.72 1.41-9.8 1.41-19.51-4.89-65.33-51.79-108.81-46.89-43.48-113.2-43.48-68.57 0-116.55 47.53-47.99 47.53-47.99 117.38 0 65.93 43.94 112.69 43.93 46.76 108.54 51.09 9.39 0 19.51-1.66 10.13-1.67 19.39-4.11l57.13 58.03q3.81 3.82 8.35 7.03 4.54 3.21 9.09 5.26-23.29 10.71-48.48 15.77-25.2 5.06-52.1 5.06Zm179.04-70.52q-12.53 12.7-29.62 12.53-17.08-.16-29.78-12.53l-98.21-97.68q-5.79 1.66-20.86 2.91-35.25 0-59.56-24.31-24.31-24.31-24.31-59.56t24.31-59.56q24.31-24.31 59.56-24.31 35.07 0 59.19 24.31Q763.3-315.25 763.3-280q0 1.47-2.53 20.65l97.7 98.42q12.02 12.84 12.27 30.12.25 17.27-12.27 29.45Zm-708.3-419.31v-246.07L480-890.39l330.2 123.65v202.36q-30.74-13.31-63.84-20.9-33.09-7.59-66.93-7.59-128.16 0-220.74 88.87-92.58 88.86-92.58 216.46 0 54.57 16.55 105.71 16.56 51.13 50.28 94.47-125.28-49.27-204.02-170.43-78.75-121.16-78.75-262.88Z"/></svg>