<svg xmlns="http://www.w3.org/2000/svg" height="20" viewBox="0 -960 960 960" width="20"><path d="M480-513Zm-90 360q-90-55-145-150.63T190-515v-215l290-112 290 112v147q-10.83-4.71-22.36-8.29-11.53-3.57-23.64-5.71v-102l-244-93-244 92.94V-515q0 84.24 36.27 158.17Q308.54-282.9 368-236q0 24 5 44.5t17 38.5Zm281.82 85q-92.15 0-155.99-64.03Q452-196.06 452-287.53t63.76-155.97Q579.53-508 671.29-508q91.77 0 156.24 64.15Q892-379.7 892-288.06q0 21.81-5 43.44Q882-223 875-205q-3.14-4.67-5.57-9.83Q867-220 863-224l-22-22q2-9.35 4-21t2-21q0-74-51-125t-124.5-51Q598-464 547-413t-51 124.5q0 73.5 51.06 124.5 51.05 51 123.94 51 9.35 0 21-2t21-4l20 24q4 4 8.83 5.62Q746.67-87.75 752-86q-17.29 7.2-38.15 12.6-20.86 5.4-42.03 5.4ZM824-135q-7 7-15.17 7.5-8.16.5-15.83-7.5L691-235q-3.29 2-19 4-23.93 0-40.96-16.56Q614-264.12 614-288.07t17.05-40.94q17.06-16.99 41-16.99 23.95 0 40.45 17.04Q729-311.93 729-288q0 2.29-4 20l99 100q7 7.91 7.5 16.45Q832-143 824-135Z"/></svg>