<svg xmlns="http://www.w3.org/2000/svg" height="48" viewBox="0 -960 960 960" width="48"><path d="M679.82-24Q572-24 497.5-98.26 423-172.53 423-279.76 423-387 497.5-461.5 572-536 679.53-536q106.53 0 181.5 74.32Q936-387.37 936-280.06q0 28.06-5.5 53.56Q925-201 916-178q-3-2-5-5.5t-4-5.5l-49-49q3-10.35 4.5-20.5T864-280q0-77-54-130.5T679.5-464q-77.5 0-131 53.5t-53.5 130q0 76.5 53.56 130Q602.11-97 679-97q10.35 0 21.5-1t21.5-4l48 49q2 2 5.33 4.62 3.34 2.63 6.67 3.38-24 10-49 15.5T679.82-24ZM863-97q-11 11-25.5 11T813-97L704-204q-4 2-24 4-34.01 0-57.01-23Q600-246 600-280.01t22.99-57.5q22.99-23.49 57-23.49Q714-361 737-337.51q23 23.5 23 57.51 0 5-3 24l106 108q11 11 11 26t-11 25ZM145-523v-249l335-126 335 126v206q-32-15-65.91-22.5T680-596q-132.4 0-224.7 92Q363-412 363-280q0 55.94 18.55 107.09Q400.09-121.76 435-79q-128-49-209-173.3-81-124.29-81-270.7Z"/></svg>