<svg xmlns="http://www.w3.org/2000/svg" height="20" viewBox="0 -960 960 960" width="20"><path d="M480-496Zm-68 317q-85-49-138.5-138.33Q220-406.67 220-515v-193l260-100 260 100v147q-4.65-.9-9.68-2.1-5.04-1.19-10.32-1.9v-130l-240-91-240 91v180q0 95.24 44.77 177.67Q329.54-254.9 403-207q3 8 4.5 14.5T412-179Zm260 79q-78.33 0-133.17-54.76-54.83-54.77-54.83-133Q484-366 538.76-421q54.77-55 133-55Q750-476 805-421.17q55 54.84 55 133.17 0 18.75-4 35.88Q852-235 846-220q-1.14-2.67-2.57-5.33Q842-228 840-230l-7-7q3-12 5-25.5t2-25.5q0-70-49-119t-119-49q-70 0-119 49t-49 119q0 70 49 119t119 49q12 0 25.5-2t25.5-5l6 8q2 2 4.5 2.5t5.5 1.5q-14.29 6.2-31.65 10.6Q689.99-100 672-100Zm130-58q-4 4-7.17 4-3.16 0-6.83-4l-95-94q-6.29 3-21 5-16.91 0-28.96-12.06-12.04-12.06-12.04-29Q631-305 643.06-317t29-12Q689-329 701-316.96q12 12.05 12 28.96 0-.71-5 21l94 94q4 3.91 4 7.45 0 3.55-4 7.55Z"/></svg>