<svg xmlns="http://www.w3.org/2000/svg" height="24" viewBox="0 -960 960 960" width="24"><path d="M480-502.69Zm-53.35 373.53q-105.84-48.11-172.61-154.19Q187.27-389.42 187.27-516v-224.44L480-850.38 772.73-740.5v180.65q-13.44-4.65-27.48-8.03-14.04-3.38-28.48-5.2v-129.19L480-790.58l-236.77 88.31V-516q0 91.69 40.4 171.92 40.41 80.23 107.79 129.77 4.85 23.35 13.73 44.62 8.89 21.27 21.5 40.53ZM680-68.08q-88.63 0-150.43-61.62-61.8-61.62-61.8-150.21t61.78-150.3q61.77-61.71 150.36-61.71 88.09 0 150.05 61.65 61.96 61.64 61.96 150.27 0 21.28-4.19 40.93t-11.88 37.49q-1.24-2.72-3.27-5.18-2.04-2.47-4.2-4.63l-36.23-37.23q2.12-7.8 2.97-15.44.84-7.63.84-15.94 0-64.9-45.79-110.43T679.6-435.96q-64.79 0-110.33 45.53-45.54 45.53-45.54 110.42t45.53 110.43q45.54 45.54 110.43 45.54 8.12 0 15.75-1 7.64-1 15.64-2.81l36.34 36.93q2.2 2.29 4.66 4.33 2.45 2.05 5.15 3.24-17.96 7.96-37.26 11.62-19.3 3.65-39.97 3.65Zm151.81-59.81q-8.57 8.81-19.75 8.81t-19.79-8.81l-90.81-91.42q-3.3 1.39-21.46 4.16-26.9 0-45.87-18.97-18.98-18.98-18.98-45.87 0-26.89 18.98-45.87 18.97-18.99 45.86-18.99t45.87 18.98q18.99 18.97 18.99 45.87 0 2.8-4.16 21.77l91.12 90.92q8.3 8.81 8.46 19.71.15 10.91-8.46 19.71Z"/></svg>