<svg xmlns="http://www.w3.org/2000/svg" height="48" viewBox="0 -960 960 960" width="48"><path d="M679.82-44q-99.87 0-168.15-68.21-68.28-68.22-68.28-167.46 0-99.25 68.25-167.79Q579.9-516 679.44-516q98.16 0 167.36 68.29Q916-379.42 916-280.06q0 23.62-4.35 44.99-4.34 21.38-11.42 40.53-2.23-1.23-3.65-3.96-1.43-2.73-2.66-3.96L853.77-243q2.23-9.2 3.54-18.19 1.3-9 1.3-18.81 0-74.69-52.26-126.65-52.27-51.96-126.47-51.96-75.19 0-127.15 51.96-51.96 51.96-51.96 126.15t52.02 126.15q52.01 51.96 126.59 51.96 8.82 0 18.62-.8 9.8-.81 19-3.43l39.54 40.93q.84 1.23 3.41 3.28 2.56 2.04 5.13 2.02-20.27 7.77-40.99 12.08Q703.38-44 679.82-44Zm168.95-67.23q-9.08 9.07-20.5 9.07t-19.12-9.07L703.62-214.77q-3.73 2.38-23.62 5.15-29.86 0-50.12-20.25-20.26-20.25-20.26-50.08 0-29.84 20.24-50.64 20.24-20.79 50.07-20.79 29.84 0 50.15 20.76 20.3 20.76 20.3 50.62 0 5.11-4.15 23.62l102.54 104.15q9.07 9.08 9.07 21t-9.07 20ZM165-521.08v-236.69l315-118.31 315 118.31v192.15q-27.39-11.92-56.23-17.69-28.84-5.77-58.77-5.77-129.32 0-219.51 90.08-90.18 90.08-90.18 219 0 48.72 14.51 93.09 14.51 44.38 42.87 82.91-116.07-49.77-189.38-165.03Q165-384.28 165-521.08Z"/></svg>