<svg xmlns="http://www.w3.org/2000/svg" height="48" viewBox="0 -960 960 960" width="48"><path d="M480-510ZM435-79q-128-49-209-173.15T145-523v-248.6L480-898l335 126v206q-17.28-8.03-35.73-14.3-18.44-6.27-37.27-9.7v-131l-262-99-262 98.97V-523q0 98.03 43 183.52Q304-254 377-201q6 35 21.5 65T435-79Zm245.13 55Q572-24 497.5-98.26 423-172.53 423-279.76 423-387 497.5-461.5 572-536 679.06-536t182 74.32Q936-387.37 936-279.75q0 27.75-5.5 53.38Q925-200.74 916-178q-3-2-5-5.5t-4-5.5l-49-49q3-10.35 4.5-20.5T864-280q0-77.35-53.96-130.67-53.96-53.33-131-53.33-77.04 0-130.54 53.25-53.5 53.25-53.5 130t53.67 130.25Q602.35-97 679-97q10.35 0 21.5-1t21.5-4l48 49q2 2 5.33 4.62 3.34 2.63 6.67 3.38-24 10-49 15.5T680.13-24ZM863-97q-11 11-25.5 11T813-97L704-204q-4 2-23.59 4-34.42 0-57.42-23.21Q600-246.42 600-280.22t22.99-57.29Q645.98-361 679.78-361t57.01 23.64Q760-313.71 760-280q0 5-3 24l106 108q11 11 11 26t-11 25Z"/></svg>