<svg xmlns="http://www.w3.org/2000/svg" height="48" viewBox="0 -960 960 960" width="48"><path d="M680-63.08q-91.51 0-154.43-62.68-62.91-62.67-62.91-154.15 0-91.47 62.89-154.24 62.88-62.77 154.36-62.77 90.09 0 153.55 62.7 63.46 62.71 63.46 154.22 0 21.98-4.06 42.12-4.05 20.15-11.75 39.11-1.23-1.04-2.15-2.42-.92-1.39-1.96-2.43l-29.69-30.07q2.84-10.77 4.31-22.6 1.46-11.83 1.46-23.71 0-72.58-50.81-122.83t-122.69-50.25q-72.08 0-122.58 50.25T506.5-280q0 72.08 50.5 122.58t122.58 50.5q11.19 0 23.32-1.62 12.14-1.61 23.6-4.54l29.58 30.27q.65 1.23 2.03 2.06 1.39.83 2.43 1.56-18.58 8.07-38.56 12.09Q702-63.08 680-63.08Zm155.81-61.31q-6.77 6.58-15.58 6.33t-14.81-6.33L704.81-224q-5.42 2.38-24.81 5.15-25.74 0-43.44-17.69-17.71-17.69-17.71-43.4 0-25.71 17.69-43.46t43.4-17.75q25.71 0 43.46 17.71 17.75 17.7 17.75 43.44 0 3.8-5.15 24.62l99.81 99.73q6.07 7.07 6.23 16.13.15 9.06-6.23 15.13ZM182.77-521.08v-223.53L480-856l297.23 111.39v193.49q-23.27-7.92-47.58-12.63-24.31-4.71-49.65-4.71-120.27 0-204.58 84.09-84.3 84.1-84.3 204.37 0 44.47 13.11 85.39 13.12 40.92 39.08 76.38-114.5-45.54-187.52-157.5-73.02-111.96-73.02-245.35Z"/></svg>