<svg xmlns="http://www.w3.org/2000/svg" height="48" viewBox="0 -960 960 960" width="48"><path d="M240-687h480q8.85 0 15.62 6.77 6.76 6.77 6.76 15.61 0 9.62-6.76 15.5-6.77 5.89-15.62 5.89H240q-9.62 0-15.5-5.89-5.88-5.88-5.88-15.5 0-8.84 5.88-15.61T240-687Zm80-108.39h320q8.85 0 15.62 6.77 6.76 6.77 6.76 15.62 0 9.62-6.76 15.5-6.77 5.88-15.62 5.88H320q-9.62 0-15.5-5.88-5.88-5.88-5.88-15.5 0-8.85 5.88-15.62t15.5-6.77ZM213.31-534.85l13.23 85.89q13.23 85.88 38.69 239.58l-51.92-325.47Zm231.61 369.24H228.85l-68.93-413.01h641.16l-7.39 44.77q-4.23 0-32.27-.5-28.04-.5-47.27-.5H213.31l51.92 325.47h175q-1.31 11.53.12 22.61 1.42 11.08 4.57 21.16Zm249.85 87.3-3.15-38.54q-22.31-4.23-41.35-14.23-19.04-10-32.27-27.07l-34.62 15.61-25.84-38.31 30.38-23.46q-8.3-21.84-8.3-43.81 0-21.96 8.3-44.8l-30.38-23.46 25.84-38.54L618-339.31q12.69-16.84 32-26.34 19.31-9.5 41.62-13.97l3.15-39.53h43.77l3.38 39.53q21.31 4.47 40.62 13.97t33 26.34l33.84-15.61L876-316.38l-31.15 23.46q7.3 22.84 7.3 44.8 0 21.97-7.3 43.81L876-180.85l-26.62 38.31-33.84-15.61q-14.23 17.07-33.27 27.07-19.04 10-40.35 14.23l-3.38 38.54h-43.77Zm88.65-101.88Q811-207.77 811-248.23q0-40.46-27.58-68.04-27.57-27.58-67.65-27.58-40.08 0-67.65 27.58-27.58 27.58-27.58 68.04 0 40.46 27.58 68.04 27.57 27.57 67.65 27.57 40.08 0 67.65-27.57Z"/></svg>