<svg xmlns="http://www.w3.org/2000/svg" height="40" viewBox="0 -960 960 960" width="40"><path d="M240-668h480q5.5 0 8.75 3.25T732-656q0 5.5-3.25 8.33-3.25 2.84-8.75 2.84H240q-5.5 0-8.33-2.84-2.84-2.83-2.84-8.33t2.84-8.75Q234.5-668 240-668Zm80-88h320q5.5 0 8.75 3.25T652-744q0 5.5-3.25 8.33-3.25 2.84-8.75 2.84H320q-5.5 0-8.33-2.84-2.84-2.83-2.84-8.33t2.84-8.75Q314.5-756 320-756Zm375.83 599.67-.5-24.84q-23.5-4.66-44-15.25Q630.83-207 617-225.33l-22.67 12.5L580-231.5l19.5-15.5q-9.17-24.33-9.17-49.5t9.17-49.5L580-361.5l14.33-18.67 22.67 12.5q12.83-18.83 33.83-29.16 21-10.34 44.5-14.34l.5-25.5H719l.5 25.5q22.67 4 43.5 14.5t34.83 29l22-12.5 15 18.67-20.16 15.5q8.33 24.33 8.33 49.5t-8.33 49.5l20.16 15.5-15 18.67-22-12.5q-14.66 18.33-35.16 28.91-20.5 10.59-43.17 15.25l-.5 24.84h-23.17Zm76.34-74.34Q799-257.5 799-296.5t-26.83-65.83q-26.84-26.84-65.5-26.84-38.67 0-65.5 26.84-26.84 26.83-26.84 65.83t26.84 65.83q26.83 26.84 65.5 26.84 38.66 0 65.5-26.84Zm-306.34 25.84h-221.5L181.5-580h597l-5.83 32.83q-19.34-5.16-32-7.41-12.67-2.25-33.67-2.25-108.17 0-184 76.08T447.17-296.5q0 21 4.25 46.58 4.25 25.59 14.41 45.09Z"/></svg>