<svg xmlns="http://www.w3.org/2000/svg" height="48" viewBox="0 -960 960 960" width="48"><path d="M240-722.59h480q14.17 0 23.62 9.45 9.45 9.44 9.45 23.62 0 13.41-9.45 22.99-9.45 9.57-23.62 9.57H240q-13.17 0-22.87-9.57-9.7-9.58-9.7-22.99 0-14.18 9.7-23.62 9.7-9.45 22.87-9.45Zm80-128.37h320q14.17 0 23.62 9.57 9.45 9.56 9.45 23.74 0 13.17-9.45 22.87-9.45 9.69-23.62 9.69H320q-13.17 0-22.87-9.69-9.7-9.7-9.7-22.87 0-14.18 9.7-23.74 9.7-9.57 22.87-9.57ZM197-528.83l14.14 89.34q14.14 89.34 41.93 263.84L197-528.83Zm279.17 419.05H197.89L117.2-594.46h725.6l-10.93 65.87q-4 0-35.99-.12-31.99-.12-63.4-.12H197l56.07 353.18h200.69q3.33 18.17 8.99 34.44 5.66 16.28 13.42 31.43Zm217.61 62.74-4.74-47.46q-21.02-5.76-39.92-16.52-18.9-10.76-33.92-25.78l-40.96 19.74-36.15-55.83 37.21-29.22q-6.5-20.02-6.5-40.8 0-20.79 6.5-41.05l-37.21-28.97 36.15-56.83 40.96 19.74q15.78-14.02 34.3-24.78 18.52-10.76 39.54-16.53l4.74-48.21h62.05l5.74 48.21q20.52 5.77 39.16 16.53 18.64 10.76 34.92 24.78l40.72-19.74 36.39 56.83-37.46 28.97q6 20.26 6 41.05 0 20.78-6 40.8l37.46 29.22-36.39 55.83-40.72-19.74q-15.52 15.02-34.54 25.78-19.02 10.76-39.54 16.52l-5.74 47.46h-62.05Zm101.94-125.21q29.52-29.64 29.52-71.16 0-41.52-29.52-71.05-29.52-29.52-71.05-29.52-41.52 0-71.16 29.52-29.64 29.53-29.64 71.05 0 41.52 29.64 71.16 29.64 29.64 71.16 29.64 41.53 0 71.05-29.64Z"/></svg>