<svg xmlns="http://www.w3.org/2000/svg" height="48" viewBox="0 -960 960 960" width="48"><path d="M240-730.96h480q17.03 0 29.56 12.53 12.53 12.53 12.53 29.56 0 17.6-12.53 29.34-12.53 11.75-29.56 11.75H240q-17.03 0-29.06-11.75-12.03-11.74-12.03-29.34 0-17.03 12.03-29.56 12.03-12.53 29.06-12.53Zm80-143.74h320q17.03 0 29.56 12.81 12.53 12.81 12.53 29.85 0 17.03-12.53 29.06-12.53 12.02-29.56 12.02H320q-17.03 0-29.06-12.02-12.03-12.03-12.03-29.06 0-17.04 12.03-29.85Q302.97-874.7 320-874.7ZM208.91-504.61l13.44 86.83q13.43 86.82 39.3 247.17l-52.74-334ZM453.48-86.87H191.61l-83.7-500.91h745.18l-14 84.17q-4.7 0-36.76-.5-32.07-.5-65.46-.5H208.91l52.74 334h178.22q-1.83 22.26 2.67 43.37 4.5 21.11 10.94 40.37ZM694 8.7l-5.87-53.05q-20.56-5-37.5-14.71-16.93-9.72-30.93-24.29l-46.61 21-42-66.56 41.61-33.31q-6.57-18.37-6.57-36.68 0-18.32 6.57-38.45l-41.61-32.74 42-67.56 46.61 21q14.43-13.57 31.15-22.78 16.72-9.22 37.28-15.22l5.87-53.48h74.89l7.24 53.48q19.1 5.79 36.33 15.11 17.24 9.32 32.11 22.89l46.04-21 42.56 67.56L891-237.35q5.57 19.95 5.57 38.26T891-162.22l42.17 33.31-42.56 66.56-46.04-21q-15 14.57-32.27 24.39-17.27 9.83-36.17 14.61L768.89 8.7H694Zm106.93-137.83q28.37-28.65 28.37-70.02 0-41.36-28.37-70.08-28.36-28.73-69.8-28.73-41.43 0-70.09 28.73-28.65 28.72-28.65 70.08 0 41.37 28.65 70.02 28.66 28.65 70.09 28.65 41.44 0 69.8-28.65Z"/></svg>