<svg xmlns="http://www.w3.org/2000/svg" height="24" viewBox="0 -960 960 960" width="24"><path d="M240-745h480q27.6 0 47.8 20.2Q788-704.6 788-677q0 27.6-20.2 47.8Q747.6-609 720-609H240q-27.6 0-47.8-20.2Q172-649.4 172-677q0-27.6 20.2-47.8Q212.4-745 240-745Zm80-176h320q27.6 0 47.8 20.2Q708-880.6 708-853q0 27.6-20.2 47.8Q667.6-785 640-785H320q-27.6 0-47.8-20.2Q252-825.4 252-853q0-27.6 20.2-47.8Q292.4-921 320-921Zm-68 487 12 74.5Q276-285 293-176l-41-258ZM401-40H179L90-570h780l-23.53 137q-3.47 0-35.47-.5t-71-.5H252l41 258h111q-8 34-8.5 68t5.5 68Zm280 172-14-72q-8-2-15-6t-14-9l-69 21-57-99 55-47q-1-7.67-1-16.33 0-8.67 1-16.67l-55-47 57-98 69 20q7-5 14-8.5t15-5.5l14-72h115.35L812-252q7.18 1.62 14.59 5.31Q834-243 840-238l68-20 58 98-56 47q1 7.67 1 16.33Q911-88 910-80l56 47-58 99-68-21q-7 5-14.09 9.19Q818.82 58.38 812 60l-15.65 72H681ZM789.5-45Q810-66 810-95.88q0-29.87-20.5-51Q769-168 739-168t-51 21.12q-21 21.13-21 51Q667-66 688-45q21 21 51 21t50.5-21Z"/></svg>