<svg xmlns="http://www.w3.org/2000/svg" height="24" viewBox="0 -960 960 960" width="24"><path d="M240-745h480q28 0 48 20t20 48q0 28-20 48t-48 20H240q-28 0-48-20t-20-48q0-28 20-48t48-20Zm80-176h320q28 0 48 20t20 48q0 28-20 48t-48 20H320q-28 0-48-20t-20-48q0-28 20-48t48-20ZM681 132l-14-72q-8-2-15-6t-14-9l-69 21-57-99 55-47q-1-8-1-16.5t1-16.5l-55-47 57-98 69 20q7-5 14-8.5t15-5.5l14-72h115l16 72q7 2 14.5 5.5T840-238l68-20 58 98-56 47q1 8 1 16.5T910-80l56 47-58 99-68-21q-7 5-14 9t-14 6l-16 72H681ZM789.5-45Q810-66 810-96t-20.5-51Q769-168 739-168t-51 21q-21 21-21 51t21 51q21 21 51 21t50.5-21ZM401-40H179L90-570h780l-26 152q-32-9-64.5-12.5T713-434q-115 0-200 78.5T405-161q-6 30-7 60.5t3 60.5Z"/></svg>