<svg xmlns="http://www.w3.org/2000/svg" height="24" viewBox="0 -960 960 960" width="24"><path d="M240-739.78h480q25.17 0 43.32 18.15 18.16 18.16 18.16 43.33 0 25.16-18.16 43.32-18.15 18.15-43.32 18.15H240q-25.17 0-43.32-18.15-18.16-18.16-18.16-43.32 0-25.17 18.16-43.33 18.15-18.15 43.32-18.15Zm80-162.96h320q25.17 0 43.32 18.16 18.16 18.15 18.16 43.32 0 25.16-18.16 43.32-18.15 18.16-43.32 18.16H320q-25.17 0-43.32-18.16-18.16-18.16-18.16-43.32 0-25.17 18.16-43.32 18.15-18.16 43.32-18.16Zm-77.13 448.31 12.65 78.41q12.65 78.41 30.96 195.24l-43.61-273.65ZM410.13-57.82H183.35L96.52-577.39h766.96l-21.13 123.96q-3.7 0-35.05-.5-31.34-.5-66.43-.5h-498l43.61 273.65h121.87q-5.39 30.95-4.81 61.69.59 30.74 6.59 61.27Zm271.3 164.6-14.86-74.6q-8-2.44-15.44-6.44-7.43-4-14.87-9l-71.17 20.57-55.7-95.96 57.18-48.3q-.57-7.82-.57-16.63 0-8.81.57-16.81l-57.18-48.3 55.7-95.4 71.17 20q7.44-5 14.87-8.71 7.44-3.72 15.44-6.15l14.86-74.61h111.29l15.8 74.61q7.54 2.22 15.21 6.04 7.66 3.82 14.53 8.82l70.61-20 56.26 95.4-57.74 48.3q.57 7.81.57 16.62 0 8.82-.57 16.82l57.74 48.3-56.26 95.96-70.61-20.57q-7.43 5-14.92 9.11-7.49 4.1-14.82 6.33l-15.8 74.6H681.43ZM789.72-70.65q21.58-21.87 21.58-52.67t-21.58-52.74Q768.13-198 737.26-198t-52.74 21.94q-21.87 21.94-21.87 52.74t21.87 52.67q21.87 21.87 52.74 21.87t52.46-21.87Z"/></svg>