<svg xmlns="http://www.w3.org/2000/svg" height="48" viewBox="0 -960 960 960" width="48"><path d="M240-727h480q15 0 26 11t11 26q0 15-11 25.5T720-654H240q-15 0-25.5-10.5T204-690q0-15 10.5-26t25.5-11Zm80-133h320q15 0 26 11t11 26q0 15-11 25.5T640-787H320q-15 0-25.5-10.5T284-823q0-15 10.5-26t25.5-11ZM694-6l-7-57q-20-5-37.5-15T618-102l-50 21-42-66 45-35q-6-18-6-36.5t6-37.5l-45-35 42-67 50 21q15-13 32-22.5t37-15.5l7-58h73l8 58q19 6 36 15.5t33 22.5l50-21 42 67-45 35q5 19 5 37.5t-5 36.5l45 35-42 66-50-21q-15 14-32.5 24T775-63l-8 57h-73Zm107.5-141.5Q831-177 831-219t-29.5-71.5Q772-320 730-320t-71.5 29.5Q629-261 629-219t29.5 71.5Q688-118 730-118t71.5-29.5ZM458-101H195l-82-493h735l-16 91q-27-9-51.5-13.5T727-521q-121 0-206.5 83.5T430-233q-1 34 6.5 68t21.5 64Z"/></svg>