<svg xmlns="http://www.w3.org/2000/svg" height="48" viewBox="0 -960 960 960" width="48"><path d="M240-734h480q19.5 0 32.75 13.25T766-688q0 19.5-13.25 32.5t-32.75 13H240q-18.5 0-32-13T194.5-688q0-19.5 13.5-32.75T240-734Zm80-155h320q19.5 0 32.75 13.75T686-842q0 18.5-13.25 32T640-796.5H320q-18.5 0-32-13.5t-13.5-32q0-19.5 13.5-33.25T320-889ZM214.5-488.5l13 83.25Q240.5-322 266-165l-51.5-323.5Zm232 416H188L103.5-580h753L841-487.5q-4 0-36.75-.5t-70.25-.5H214.5L266-165h169.5q-2 23.5 1 47t10 45.5Zm245 98.5L686-24.5q-19.5-5-36.5-15T619-63l-44 20.5-43-68 39.5-31.5q-6.5-18.5-6.5-37t6.5-38L532-247.5l43-69 44 20.5q13.5-12.5 30.5-22.5t36.5-15l5.5-50.5H768l6.5 50.5q19 5 36.5 15t31.5 22.5l43-20.5 44 69L889-217q6 19.5 6 38t-6 37l40.5 31.5-44 68-43-20.5q-14 13.5-31.5 23.5t-36.5 15L768 26h-76.5ZM798-111q28-28.5 28-68.5t-28-68q-28-28-68-28t-68.5 28q-28.5 28-28.5 68t28.5 68.5Q690-82.5 730-82.5t68-28.5Z"/></svg>