<svg xmlns="http://www.w3.org/2000/svg" height="40" viewBox="0 -960 960 960" width="40"><path d="M240-718.5h480q13.5 0 22.67 9.17 9.16 9.16 9.16 22.66 0 12.84-9.16 22.17-9.17 9.33-22.67 9.33H240q-12.83 0-22.17-9.33-9.33-9.33-9.33-22.17 0-13.5 9.33-22.66 9.34-9.17 22.17-9.17Zm80-120h320q13.5 0 22.67 9.17 9.16 9.16 9.16 22.66 0 12.84-9.16 22.17-9.17 9.33-22.67 9.33H320q-12.83 0-22.17-9.33-9.33-9.33-9.33-22.17 0-13.5 9.33-22.66 9.34-9.17 22.17-9.17ZM690.83-65l-6.66-50q-18.5-5.67-35.25-14.92t-30.75-22.41l-44.67 18.66-35.33-56L576.83-221q-5.16-18.17-5.16-37t5.16-37l-38.66-31.33L573.5-383l44.67 18.67q14.66-12.5 31.08-21.75 16.42-9.25 34.92-14.92l6.66-50.67h63.34L761.5-401q18.17 5.67 34.67 14.83 16.5 9.17 31.33 21.84L872.17-383l35.33 56.67L868.83-295q4.84 18.17 4.84 37t-4.84 37l38.67 31.33-35.33 56-44.67-18.66q-14.33 13.16-31.08 22.41T761.5-115l-7.33 50h-63.34Zm98.34-126.5Q817-219.33 817-258.33t-27.83-66.84Q761.33-353 722.33-353t-66.83 27.83q-27.83 27.84-27.83 66.84t27.83 66.83q27.83 27.83 66.83 27.83t66.84-27.83ZM483-121.83H201.33L122-598.5h716l-14.5 83.17q-26.17-10.34-49.17-15.09t-52-4.75q-115.16 0-195.41 80.84-80.25 80.83-80.25 196 0 36.16 9.41 70.58 9.42 34.42 26.92 65.92Z"/></svg>