<svg xmlns="http://www.w3.org/2000/svg" height="40" viewBox="0 -960 960 960" width="40"><path d="M324-444.83h315.17v-63.34H324v63.34ZM479.17-642.5q20.85 0 36.26-15.5 15.4-15.5 15.4-36.27 0-20.78-15.33-35.5-15.33-14.73-36.67-14.73-20.8 0-35.06 14.81-14.27 14.81-14.27 35.75 0 20.44 14.42 35.94 14.43 15.5 35.25 15.5ZM206.5-69.5q-43.2 0-72.27-29.42-29.06-29.41-29.06-71.91v-415.84H71.59q-18.87 0-24.48-17-5.61-17 9.56-28.66l363-262.17q26.88-19.5 59.55-19.5T539-894.5l363 262.17q15.17 11.66 9.49 28.66-5.67 17-24.45 17h-33.21l1.5 415.84q0 42.5-29.42 71.91Q796.5-69.5 753.33-69.5h-63.66q-21 0-35.75-14.75T639.17-120v-251H324v251q0 21-14.94 35.75T273.5-69.5h-67Z"/></svg>