<svg xmlns="http://www.w3.org/2000/svg" height="20" viewBox="0 -960 960 960" width="20"><path d="M331-448h298v-68H331v68Zm149.5-122q12.5 0 23.5-10.81 11-10.82 11-25.15 0-13.04-10.98-23.54Q493.05-640 479.5-640q-12.5 0-23.5 10.46-11 10.47-11 24Q445-592 455.85-581t24.65 11ZM289.79-170q-33.54 0-55.66-22.27Q212-214.55 212-248v-322h-66q-16.5 0-19.75-13t7.75-23l302-202q20.84-15 43.92-15Q503-823 524-808l302 202q11 10 7.75 23T814-570h-66v322q0 33.45-22.22 55.73Q703.55-170 670.18-170h-1.92q-16.01 0-27.63-11.48Q629-192.95 629-209v-211H331v211q0 16.05-11.51 27.52-11.5 11.48-27.6 11.48h-2.1Z"/></svg>