<svg xmlns="http://www.w3.org/2000/svg" height="40" viewBox="0 -960 960 960" width="40"><path d="M294.14-195.72v-396.93h371.55v396.93-396.93H294.14v396.93Zm-77.5-418.82v418.82h77.5v-354.69q0-17.29 12.46-29.76 12.45-12.48 30.12-12.48h286.4q17.66 0 30.12 12.48 12.45 12.47 12.45 29.76v354.69h77.5v-417.47L479.43-804.64l-262.79 190.1Zm141.4 154.71h243.09v-68.41H358.04v68.41ZM479.46-645.4q17.37 0 30.24-12.82 12.87-12.82 12.87-30.42 0-17.61-12.79-29.78-12.8-12.17-30.9-12.17-17.52 0-29.32 12.26-11.8 12.25-11.8 30.02 0 17.27 11.99 30.09t29.71 12.82ZM216.64-111.09q-35.87 0-60.34-24.67-24.47-24.66-24.47-60.14v-382.65H88.9q-15.55 0-20.32-14.32-4.76-14.32 8.09-23.76l353.14-256.13q22.55-16.17 49.7-16.17 27.16 0 49.93 16.17l353.14 256.13q12.85 9.44 8.02 23.76-4.82 14.32-20.29 14.32h-42.56l.63 382.65q0 35.48-24.74 60.14-24.73 24.67-60.45 24.67H643.7q-17.66 0-30.12-12.29-12.45-12.28-12.45-29.95v-242.94H358.04v242.94q0 17.67-12.46 29.95-12.45 12.29-30.12 12.29h-98.82Z"/></svg>