<svg xmlns="http://www.w3.org/2000/svg" height="20" viewBox="0 -960 960 960" width="20"><path d="M334.09-473.07h291.82v-48H334.09v48Zm145.67-149.02q16.15 0 28.95-12.14 12.79-12.14 12.79-29.6 0-16.15-12.79-28.7-12.8-12.56-29.45-12.56t-28.71 12.56q-12.05 12.55-12.05 29.2 0 16.66 11.9 28.95 11.91 12.29 29.36 12.29ZM257.09-164.5q-34.57 0-58.68-24.26T174.3-247.5v-333.76H95.52q-16.15 0-20.25-14.29-4.1-14.3 8.58-23.73L433.3-851.35q20.71-14.15 46.38-14.15t46.54 14.15l349.45 232.07q12.68 9.43 8.58 23.73-4.1 14.29-20.25 14.29h-78.78l.48 333.76q0 34.48-24.21 58.74-24.21 24.26-58.62 24.26h-35.19q-17.42 0-29.59-12.02-12.18-12.03-12.18-29.48v-202.28H334.09V-206q0 17.45-12.06 29.48-12.05 12.02-29.55 12.02h-35.39Z"/></svg>