<svg xmlns="http://www.w3.org/2000/svg" height="20" viewBox="0 -960 960 960" width="20"><path d="M342.48-479.11h279.54v-53H342.48v53Zm136.95-138.87q17.59 0 32.33-14.09 14.74-14.09 14.74-32.97 0-17.59-14.74-31.77-14.74-14.17-32.83-14.17-18.58 0-32.01 14.17-13.42 14.18-13.42 32.27 0 18.08 13.27 32.32 13.28 14.24 32.66 14.24ZM252.46-136.5q-39.09 0-65.94-26.99-26.85-27-26.85-66.01v-358.94h-67.8q-18.59 0-23-15.73-4.42-15.74 10.04-27.14l348.26-231.1Q450.79-879 479.35-879t52.35 16.59l348.26 231.1q14.45 11.4 10.04 27.14-4.41 15.73-23 15.73h-67.8l.63 358.94q0 39.01-26.95 66.01Q745.93-136.5 707-136.5h-38.21q-18.85 0-32.81-13.8-13.96-13.81-13.96-32.7v-229.3H342.48V-183q0 18.89-13.84 32.7-13.84 13.8-32.77 13.8h-43.41Z"/></svg>