<svg xmlns="http://www.w3.org/2000/svg" height="20" viewBox="0 -960 960 960" width="20"><path d="M296.17-224.43V-577.7H663.83v353.27-353.27H296.17v353.27Zm-48-412.96v412.96h48v-304.59q0-19.76 14.31-34.22 14.31-14.46 34.69-14.46h269.66q20.38 0 34.69 14.31 14.31 14.31 14.31 34.69v304.27h48v-411.4l-232.4-154.74-231.26 153.18Zm120.87 177.83h221.92v-44.7H369.04v44.7ZM479.3-619.48q19.22 0 34.46-14.59Q529-648.66 529-669.18q0-19.23-15.24-33.76-15.24-14.54-34.96-14.54-19.73 0-33.77 14.54Q431-688.41 431-668.68q0 19.72 13.88 34.46 13.89 14.74 34.42 14.74ZM248.17-127q-41 0-69.5-28.49-28.5-28.5-28.5-69.51v-363.44h-70.3q-19.09 0-24-16.73-4.92-16.74 10.04-28.14l358.26-237.6Q448.84-888 479.38-888q30.53 0 55.32 17.09l358.26 237.6q14.95 11.4 10.04 28.14-4.91 16.73-24 16.73h-70.3L809.83-225q0 41.01-28.5 69.51-28.5 28.49-69.5 28.49h-71.87q-20.39 0-34.7-14.21-14.3-14.22-14.3-34.48v-211H369.04v210.56q0 20.22-14.3 34.68Q340.43-127 320.04-127h-71.87Z"/></svg>