<svg xmlns="http://www.w3.org/2000/svg" height="20" viewBox="0 -960 960 960" width="20"><path d="M342.54-478.08h274.92v-55.69H342.54v55.69Zm137.65-146.3q11.5 0 20.96-8.8t9.46-21.81q0-11.7-9.45-21.16t-21.66-9.46q-11.81 0-20.96 9.44-9.15 9.45-9.15 21.66 0 12.2 9 21.16 9 8.97 21.8 8.97ZM276.1-211.62q-26.62 0-45.36-18.89T212-275.92v-307.39h-62.69q-12.65 0-15.67-10.96-3.02-10.96 6.44-18.58l303.77-204.53q16.29-11.23 36.07-11.23 19.77 0 36.23 11.23l303.77 204.53q9.46 7.62 6.44 18.58-3.02 10.96-15.67 10.96H748v307.39q0 26.52-18.84 45.41-18.84 18.89-45.29 18.89h-33.99q-13.63 0-23.02-9.24-9.4-9.25-9.4-22.91v-186.62H342.54v186.62q0 13.66-9.28 22.91-9.27 9.24-22.98 9.24H276.1Z"/></svg>