<svg xmlns="http://www.w3.org/2000/svg" height="20" viewBox="0 -960 960 960" width="20"><path d="M358.5-483H604v-70.5H358.5v70.5Zm122-141.5q7 0 13.75-5.81 6.75-5.82 6.75-14.65 0-7.54-6.73-14.29-6.72-6.75-14.77-6.75-7 0-13.5 6.71-6.5 6.72-6.5 14.75 0 8.04 6.35 14.04t14.65 6ZM298.29-248q-21.04 0-35.16-14.27Q249-276.55 249-297.5V-595h-26q-10 0-12.25-8.25T215.5-618l236-164q12.84-9.5 28.42-9.5 15.58 0 28.58 9.5l236 164q7 6.5 4.75 14.75T737-595h-25.5l-.5 297.5q0 20.95-14.47 35.23Q682.05-248 661.68-248h-32.92q-10.51 0-17.63-6.98-7.13-6.97-7.13-17.52V-457H358.5v184.5q0 10.55-7.26 17.52-7.25 6.98-17.35 6.98h-35.6Z"/></svg>