<svg xmlns="http://www.w3.org/2000/svg" height="40" viewBox="0 -960 960 960" width="40"><path d="M338.33-266.33V-561h284v326.67V-561h-284v326.67-32ZM236-603.12v336.79q0 13.33 9 22.66 9 9.34 23 9.34h70.33V-533q0-11.9 8.05-19.95 8.05-8.05 19.95-8.05h228q11.25 0 19.63 8.05 8.37 8.05 8.37 19.95v298.67H692q14 0 23-9.34 9-9.33 9-22.66v-336L500-778.67q-9-7-20-7t-20 7L236-603.12Zm125.67 149.79h236.66V-537H361.67v83.67Zm118.83-191q9.83 0 16.67-6.8 6.83-6.8 6.83-17.17 0-10.37-6.81-17.2t-17.52-6.83q-8.34 0-16 6.89-7.67 6.89-7.67 17.07 0 10.37 7.75 17.2 7.75 6.84 16.75 6.84Zm-212.5 434q-22.58 0-39.29-16.71T212-266.33v-309.34h-8.49q-8.68 0-12.59-9.33-3.92-9.33 3.41-15.67l251.34-195.66Q461.02-808 479.84-808q18.83 0 34.49 11.67l251.34 195.66q7.33 6.34 3.41 15.67-3.91 9.33-12.59 9.33H748v309.34q0 22.58-16.71 39.29T692-210.33h-65.35q-12.47 0-20.39-8.38-7.93-8.37-7.93-19.62v-191H361.67v191q0 11.25-8.05 19.62-8.05 8.38-19.95 8.38H268Z"/></svg>