<svg xmlns="http://www.w3.org/2000/svg" height="24" viewBox="0 -960 960 960" width="24"><path d="M304-421h352v-60H304v60Zm175.28-190q27.72 0 48.22-20.5t20.5-48.52q0-28.02-20.58-47.5t-48-19.48Q452-747 432-727.52t-20 47.5q0 28.02 19.78 48.52 19.78 20.5 47.5 20.5ZM210-17q-57 0-96.5-39.5T74-153v-419H26q-26.08 0-33.54-23.5Q-15-619 5-634l395-280q35-26 79-26t79 26l395 280q20 15 12.54 38.5Q958.08-572 932-572h-48l2 419q0 57-39.5 96.5T750-17h-26q-27.6 0-47.8-20.2Q656-57.4 656-85v-256H304v256q0 27.6-20.2 47.8Q263.6-17 236-17h-26Z"/></svg>