<svg xmlns="http://www.w3.org/2000/svg" height="24" viewBox="0 -960 960 960" width="24"><path d="M326.48-459.11h311.54v-65H326.48v65Zm152.95-174.87q20.59 0 35.83-15.24 15.24-15.24 15.24-35.82 0-20.59-15.24-35.27-15.24-14.67-35.83-14.67-21.08 0-35.51 14.67-14.42 14.68-14.42 35.27 0 20.58 14.42 35.82 14.43 15.24 35.51 15.24ZM228.67-104.5q-42.3 0-71.65-29.34-29.35-29.35-29.35-71.66v-366.94h-41.8q-18.59 0-24.5-17.23-5.92-17.24 9.54-28.64l349.26-253.1Q446.96-891 479.43-891q32.48 0 59.27 19.59l349.26 253.1q15.45 11.4 9.54 28.64-5.91 17.23-24.5 17.23h-41.8l.63 366.94q0 42.31-29.35 71.66-29.35 29.34-71.65 29.34h-42.31q-20.58 0-35.54-14.95-14.96-14.96-14.96-35.55v-237.3H326.48V-155q0 20.59-14.96 35.55-14.96 14.95-35.54 14.95h-47.31Z"/></svg>