<svg xmlns="http://www.w3.org/2000/svg" height="20" viewBox="0 -960 960 960" width="20"><path d="M331.08-279.65v-278.89h297.53V-267.35v-291.19H331.08v291.19-12.3ZM267.73-631.2v351.55q0 5.38 3.46 8.84t8.85 3.46h51.04v-261.47q0-11.71 8.84-20.71 8.84-9.01 21.39-9.01h237.07q12.55 0 21.39 8.86 8.84 8.85 8.84 21.18v261.15h51.04q5.39 0 8.85-3.46t3.46-8.84V-630.2L487.69-771.46q-3.46-2.69-7.69-2.69t-7.69 2.69L267.73-631.2Zm95.5 169.24h233.23v-64.62H363.23v64.62Zm117.06-161.31q10.2 0 19.3-8.3 9.1-8.3 9.1-20.19 0-10.59-9.05-19.64-9.04-9.06-20.29-9.06-10.85 0-19.35 9.04-8.5 9.05-8.5 20.14t8.42 19.55q8.43 8.46 20.37 8.46ZM280.04-219.39q-25.04 0-42.66-17.61-17.61-17.61-17.61-42.65V-581h-63.92q-12.08 0-14.79-10.25-2.71-10.25 6.59-17.47l298.62-201.89q15.3-10.73 33.65-10.73 18.35 0 33.81 10.73l298.62 201.89q9.3 7.22 6.59 17.47Q816.23-581 804.08-581h-63.66l-.5 301.35q0 25.04-17.7 42.65-17.71 17.61-42.57 17.61h-52.84q-12.76 0-21.56-8.65-8.79-8.66-8.79-21.08V-430H363.23v180.44q0 12.39-8.84 21.28T333-219.39h-52.96Z"/></svg>