<svg xmlns="http://www.w3.org/2000/svg" height="40" viewBox="0 -960 960 960" width="40"><path d="M326.9-455.41h309.37v-63.34H326.9v63.34ZM479.6-645.4q17.23 0 30.1-12.82 12.87-12.82 12.87-30.28 0-17.47-12.79-29.78-12.8-12.31-30.51-12.31-17.63 0-29.57 12.39-11.94 12.4-11.94 30.03 0 17.13 12.1 29.95 12.09 12.82 29.74 12.82ZM216.64-111.09q-35.94 0-60.37-24.64-24.44-24.63-24.44-60.17v-382.65H88.98q-15.63 0-20.4-14.32-4.76-14.32 7.94-23.96l353.29-255.93q22.5-16.17 49.68-16.17t49.95 16.17l353.29 255.93q12.7 9.64 7.87 23.96-4.82 14.32-20.37 14.32h-42.48l.63 382.65q0 35.54-24.7 60.17-24.71 24.64-60.49 24.64h-64.68q-17.67 0-29.96-12.29-12.28-12.28-12.28-29.95v-235.49H326.9v235.49q0 17.67-12.48 29.95-12.48 12.29-29.76 12.29h-68.02Z"/></svg>