<svg xmlns="http://www.w3.org/2000/svg" height="40" viewBox="0 -960 960 960" width="40"><path d="M315.59-225.87v-319.75H644.92v344.36-344.36H315.59v344.36-24.61Zm-85.74-365.99v365.99q0 10.25 6.92 17.43t17.69 7.18h61.13v-306.13q0-15.72 11.07-26.97 11.07-11.26 27.16-11.26h253.54q14.94 0 26.25 11.26 11.31 11.25 11.31 26.97v306.13h60.62q10.77 0 17.69-7.18 6.92-7.18 6.92-17.43v-366.21L495.38-769.33q-6.92-5.39-15.38-5.39t-15.38 5.39L229.85-591.86Zm129.97 160.19h240.87v-68.72H359.82v68.72ZM480.6-609.31q13.92 0 24.24-10.33 10.31-10.33 10.31-25.02 0-14.68-10.29-24.49-10.3-9.8-24.98-9.8-12.85 0-23.61 9.87-10.76 9.86-10.76 24.44 0 14.61 10.84 24.97t24.25 10.36ZM254.46-150.08q-31.72 0-53.75-22.04-22.04-22.03-22.04-53.75v-331.69h-45.2q-13.37 0-18.01-12.63-4.64-12.63 5.98-21.53l313.82-231.66q20.15-15.49 44.58-15.49 24.44 0 44.9 15.49l314.49 231.66q9.95 8.9 5.31 21.53t-17.07 12.63h-46.14v331.69q0 31.72-22.04 53.75-22.03 22.04-53.75 22.04H638.5q-15.88 0-26.84-11.31-10.97-11.31-10.97-26.25v-198.95H359.82v198.95q0 14.94-11.25 26.25-11.26 11.31-26.98 11.31h-67.13Z"/></svg>