<svg xmlns="http://www.w3.org/2000/svg" height="24" viewBox="0 -960 960 960" width="24"><path d="M335.42-470.69h292.89v-71.73H335.42v71.73Zm144.77-168.58q13.39 0 22.94-9.45 9.56-9.45 9.56-23.04t-9.55-23.14q-9.54-9.56-23.14-9.56-13.5 0-23 9.54-9.5 9.55-9.5 23.14t9.5 23.05q9.5 9.46 23.19 9.46ZM256.04-187.39q-28.4 0-48.34-19.93-19.93-19.93-19.93-48.33v-311.66H153q-12.15 0-16.36-11.75-4.21-11.75 5.94-19.17l296.69-221.38q18.46-13.73 40.73-13.73 22.27 0 40.73 13.73l296.69 221.38q10.15 7.42 5.94 19.17-4.21 11.75-16.36 11.75h-34.58l-.5 311.66q0 28.4-20.03 48.33t-48.24 19.93h-41.3q-14.25 0-24.15-9.89-9.89-9.89-9.89-24.14v-205.12H335.42v205.12q0 14.25-9.99 24.14t-24.04 9.89h-45.35Z"/></svg>