<svg xmlns="http://www.w3.org/2000/svg" height="40" viewBox="0 -960 960 960" width="40"><path d="M319.57-444.91h320.86v-60H319.57v60Zm159.86-201.32q18.38 0 31.51-13.32 13.13-13.32 13.13-31.62t-13.13-30.94q-13.13-12.64-31.84-12.64-18.12 0-30.65 12.72-12.52 12.73-12.52 31.19 0 17.97 12.6 31.29 12.61 13.32 30.9 13.32ZM213.48-104.59q-36.94 0-62.55-25.8-25.6-25.8-25.6-62.35v-385.81H81.06q-15.88 0-21.14-14.82-5.27-14.82 7.93-24.79l359.96-260.1q23.06-16.67 51.68-16.67 28.63 0 51.95 16.67l359.95 260.1q13.21 9.97 7.94 24.79-5.27 14.82-21.14 14.82h-44.28l1.14 385.81q0 36.55-25.72 62.35-25.71 25.8-62.81 25.8h-62.01q-18.5 0-31.29-12.79-12.79-12.78-12.79-31.28v-226.83H319.57v226.83q0 18.5-12.79 31.28-12.79 12.79-31.29 12.79h-62.01Z"/></svg>