<svg xmlns="http://www.w3.org/2000/svg" height="20" viewBox="0 -960 960 960" width="20"><path d="M347-495.5h270.5v-53H347v53Zm133-127q12.5 0 23-9.85T513.5-656q0-12.5-10.5-23t-23.5-10.5q-13.5 0-23.25 10.5t-9.75 23.5q0 13 9.6 23t23.9 10Zm-211.71 421q-27.79 0-47.29-19.65t-19.5-47.35V-576H119q-13.5 0-16.5-11.5T110-607l333-221.5q16.84-11.5 36.92-11.5Q500-840 517-828.5L850-607q10.5 8 7.5 19.5T841-576h-82.5l-.5 307.5q0 27.7-19.6 47.35-19.6 19.65-47.22 19.65h-39.92q-13.76 0-23.76-9.85-10-9.85-10-23.65v-205H347v205q0 13.8-9.88 23.65-9.88 9.85-23.73 9.85h-45.1Z"/></svg>