<svg xmlns="http://www.w3.org/2000/svg" height="24" viewBox="0 -960 960 960" width="24"><path d="M328.46-263.85v-307.69h303.08v332.31-332.31H328.46v332.31V-263.85ZM240-602.15v338.3q0 10.77 6.92 17.7 6.93 6.92 17.7 6.92h63.84v-300q0-13.73 9.29-23.02t23.02-9.29h238.46q13.73 0 23.02 9.29t9.29 23.02v300h63.84q10.77 0 17.7-6.92 6.92-6.93 6.92-17.7v-338.3L495.38-775.38q-6.92-5.39-15.38-5.39t-15.38 5.39L240-602.15Zm123.85 140.61h232.3v-74.61h-232.3v74.61Zm116.53-179.23q12 0 20.43-8.4 8.42-8.39 8.42-20.8t-8.4-20.84q-8.41-8.42-20.83-8.42-11.62 0-20.42 8.4-8.81 8.39-8.81 20.8t8.81 20.84q8.8 8.42 20.8 8.42ZM264.62-199.23q-26.66 0-45.64-18.98T200-263.85V-570h-20.54q-11.31 0-15.35-10.92-4.03-10.93 4.89-18.16l271.69-207.69q17.93-13.46 39.31-13.46 21.38 0 39.31 13.46L791-599.08q8.92 7.23 4.89 18.16Q791.85-570 780.54-570H760v306.15q0 26.66-18.98 45.64t-45.64 18.98h-66.67q-14.17 0-23.36-9.29-9.2-9.29-9.2-23.02v-194.61h-232.3v194.61q0 13.73-9.29 23.02t-23.02 9.29h-66.92Z"/></svg>