<svg xmlns="http://www.w3.org/2000/svg" height="20" viewBox="0 -960 960 960" width="20"><path d="M349-295v-244h262v276-276H349v276-32Zm-85-334v334q0 14 9 23t23 9h53v-250.32q0-10.43 7.48-18.06Q363.95-539 375-539h210q11.05 0 18.53 7.47Q611-524.05 611-513v250h53q14 0 23-9t9-23v-333L500-771q-9-7-20-7t-20 7L264-629Zm101 181h230v-75H365v75Zm115.5-177q7.5 0 14.5-6.31 7-6.32 7-15.65 0-8.04-6.98-15.04-6.97-7-15.52-7-7.5 0-14.5 6.96-7 6.97-7 15.5 0 8.54 6.85 15.04t15.65 6.5ZM296-243q-21.45 0-36.73-15.27Q244-273.55 244-295v-294h-35q-10.5 0-12.75-8.5T201-613l249-173q13.84-10 29.92-10Q496-796 510-786l249 173q7 7 4.75 15.5T751-589h-35v294q0 21.45-15.28 36.73Q685.45-243 664-243h-42.68q-11.62 0-18.97-7.39-7.35-7.38-7.35-18.3V-432H365v162.86q0 10.89-7.48 18.51Q350.05-243 339-243h-43Z"/></svg>