<svg xmlns="http://www.w3.org/2000/svg" height="40" viewBox="0 -960 960 960" width="40"><path d="M340.17-457.33h281.5v-80.84h-281.5v80.84Zm140.5-187.17q9.68 0 16.51-6.3 6.82-6.3 6.82-17.16 0-10.21-6.73-16.96-6.72-6.75-17.44-6.75-8.33 0-15.66 6.8-7.34 6.8-7.34 17.17 0 10.53 7.49 16.87 7.49 6.33 16.35 6.33Zm-211.5 432.17q-23.09 0-39.13-16.04Q214-244.42 214-267.5v-314.17h-.41q-8.59 0-12.51-9.58-3.91-9.58 3.42-15.08l241.67-189q14.8-11.17 33.67-11.17 18.88 0 33.99 11.17l241.67 189q7.33 5.5 3.36 15.08-3.98 9.58-12.48 9.58h.45l-.5 314.17q0 23.08-16.44 39.13-16.45 16.04-38.72 16.04h-42.34q-12.08 0-19.62-7.88-7.54-7.87-7.54-19.29v-190.17h-281.5v190.17q0 11.42-8.32 19.29-8.32 7.88-18.85 7.88h-43.83Z"/></svg>