<svg xmlns="http://www.w3.org/2000/svg" height="48" viewBox="0 -960 960 960" width="48"><path d="M315.91-443.8h328.18v-60H315.91v60Zm164.23-190.9q15.45 0 27.23-11.59 11.78-11.6 11.78-27.66 0-16.05-11.8-27.17-11.8-11.12-27.67-11.12-15.51 0-26.67 11.25-11.16 11.24-11.16 27.54 0 15.56 11.23 27.16 11.24 11.59 27.06 11.59ZM212.93-112.2q-32.43 0-54.87-22.56-22.43-22.56-22.43-54.74v-378.15H71.91q-14.39 0-18.79-12.72-4.4-12.72 7.08-22.2l374.93-267.84q19.52-14.96 44.53-14.96t44.97 14.96l375.94 267.84q10.47 9.48 6.07 22.2-4.4 12.72-17.38 12.72h-65.13l.48 378.15q0 32.18-22.51 54.74-22.5 22.56-55.03 22.56h-63.83q-16.61 0-27.88-11.25-11.27-11.26-11.27-26.9v-229.87H315.91v229.87q0 15.64-11.26 26.9-11.25 11.25-26.89 11.25h-64.83Z"/></svg>