<svg xmlns="http://www.w3.org/2000/svg" height="20" viewBox="0 -960 960 960" width="20"><path d="M349.08-476.15h261.84v-63.39H349.08v63.39Zm131.3-148.62q9 0 16.93-7.25 7.92-7.24 7.92-17.95 0-9.41-7.9-17.34-7.91-7.92-17.83-7.92-9.12 0-16.92 7.9-7.81 7.89-7.81 17.8t7.66 17.34q7.65 7.42 17.95 7.42ZM288.4-231.23q-23.44 0-39.92-16.63T232-287.85v-302.77h-40.39q-11.3 0-13.84-9.42-2.54-9.42 5.38-16.65l264.54-181.08q14.76-10.46 32.23-10.46 17.46 0 32.39 10.46l264.54 181.08q7.92 7.23 5.38 16.65-2.54 9.42-13.84 9.42H728v302.77q0 23.36-16.58 39.99-16.58 16.63-39.86 16.63h-32.07q-11.99 0-20.28-8.14-8.29-8.14-8.29-20.17v-181.23H349.08v181.23q0 12.03-8.17 20.17-8.17 8.14-20.25 8.14H288.4Z"/></svg>