<svg xmlns="http://www.w3.org/2000/svg" height="48" viewBox="0 -960 960 960" width="48"><path d="M302.98-208.06v-381.42H657.02v381.42-381.42H302.98v381.42Zm-85.5-408.05v408.05h85.5v-348.85q0-13.35 9.57-22.96 9.57-9.61 23.49-9.61h287.92q13.92 0 23.49 9.61 9.57 9.61 9.57 22.96v348.85h85.5V-614.7L479.76-806.3 217.48-616.11Zm130.39 154.44h263.26v-82.42H347.87v82.42Zm132.08-191.4q13.01 0 23.06-9.81 10.06-9.82 10.06-23.53t-9.95-23.12q-9.95-9.4-23.92-9.4-13.6 0-22.68 9.53-9.09 9.53-9.09 23.49 0 13.21 9.35 23.03 9.35 9.81 23.17 9.81ZM217.48-142.43q-27.79 0-46.71-19.05t-18.92-46.58v-368.01H102.2q-11.9 0-15.55-11.06-3.65-11.07 6.19-18.32l348.64-253.31q17.4-12.18 38.19-12.18t38.61 12.18l348.64 253.31q9.84 7.25 6.1 18.32-3.74 11.06-15.51 11.06h-49.1l-.02 368.01q0 27.53-19.23 46.58-19.22 19.05-46.64 19.05H644.2q-13.93 0-23.5-9.33-9.57-9.32-9.57-23.24v-242.28H347.87V-175q0 13.92-9.57 23.24-9.57 9.33-23.5 9.33h-97.32Z"/></svg>