<svg xmlns="http://www.w3.org/2000/svg" height="24" viewBox="0 -960 960 960" width="24"><path d="M342.5-463H620v-82.5H342.5v82.5Zm138-177.5q10 0 17.25-6.96 7.25-6.97 7.25-17.5 0-10.54-7.23-17.79Q490.55-690 480-690q-9.5 0-17 7.21-7.5 7.22-7.5 17.75 0 10.54 7.5 17.54t17.5 7ZM274.5-216q-24.25 0-40.87-16.63Q217-249.25 217-273.5V-579q-10 0-13.75-9.75T207.5-605l237-186q16-12.5 35.5-12.5t35.5 12.5l237 186q8 6.5 4.25 16.25T743-579h.5l-.5 305.5q0 24.25-16.87 40.87Q709.25-216 685.5-216h-37q-12.25 0-20.37-8.13-8.13-8.12-8.13-20.37V-437H342.5v192.5q0 12.25-8.37 20.37Q325.75-216 314-216h-39.5Z"/></svg>