<svg xmlns="http://www.w3.org/2000/svg" height="40" viewBox="0 -960 960 960" width="40"><path d="M316.8-241.1v-340.21H643.46v352.52-352.52H316.8v352.52-12.31Zm-86.54-367.56v367.56q0 5.13 3.46 8.72 3.46 3.59 8.85 3.59h74.23v-321.23q0-13.3 8.99-22.29 8.99-9 22.29-9h264.1q13.04 0 22.16 9 9.12 8.99 9.12 22.29v321.23h73.97q5.39 0 8.85-3.59t3.46-8.72v-366.77L487.69-789.33q-3.46-2.7-7.69-2.7t-7.69 2.7L230.26-608.66ZM354.08-464h251.43v-79.36H354.08V-464Zm126.11-183.82q12.19 0 20.87-8.67 8.68-8.66 8.68-21.27 0-12.6-8.67-21.07-8.67-8.48-21.4-8.48-11.82 0-20.62 8.55-8.79 8.55-8.79 21.18 0 12.4 8.87 21.08 8.88 8.68 21.06 8.68ZM242.57-178.54q-25.61 0-44.09-18.48Q180-215.49 180-241.1v-329.85h-37.93q-10.52 0-14.59-10.56-4.07-10.57 4.91-17.52L442.8-829.36q16.58-12.07 37.04-12.07 20.47 0 37.36 12.07l310.41 230.33q8.98 6.95 4.91 17.52-4.07 10.56-14.59 10.56H780v329.85q0 25.61-18.48 44.08-18.48 18.48-44.09 18.48h-80.51q-13.52 0-22.46-9.12-8.95-9.12-8.95-22.16v-216.64H354.08v216.64q0 13.04-9 22.16-8.99 9.12-22.28 9.12h-80.23Z"/></svg>