<svg xmlns="http://www.w3.org/2000/svg" height="48" viewBox="0 -960 960 960" width="48"><path d="M328-441h305v-80H328v80Zm152.82-178q11.81 0 20.5-8.46 8.68-8.47 8.68-21.62 0-12.15-8.66-20.53-8.66-8.39-21.52-8.39-9.82 0-19.32 8.48-9.5 8.47-9.5 20.87 0 12.65 9.63 21.15 9.62 8.5 20.19 8.5ZM263-174q-27.5 0-47.25-19.75T196-241v-330h-19q-11 0-15.5-11t4.5-19l274-207q17.53-14 39.77-14Q502-822 520-808l275 207q8 8 3.5 19t-14.09 11H764v330q0 27.5-19.75 47.25T697-174h-30q-14.5 0-24.25-10.24T633-207v-206H328v206q0 12.52-10.24 22.76Q307.52-174 295-174h-32Z"/></svg>