<svg xmlns="http://www.w3.org/2000/svg" height="40" viewBox="0 -960 960 960" width="40"><path d="M334.32-464.61h294.01v-70.07H334.32v70.07Zm146.04-182.76q11.43 0 19.95-8.17 8.51-8.16 8.51-20.45 0-12.02-8.43-20.26-8.43-8.24-20.56-8.24-11.51 0-19.82 8.31-8.3 8.31-8.3 20.5 0 11.95 8.46 20.13t20.19 8.18Zm-235.4 464.06q-25.18 0-42.69-17.5-17.5-17.51-17.5-42.69v-329.76h-33.95q-10.33 0-14.09-10.35-3.77-10.35 4.9-16.77l302.59-225.21q16.03-11.58 35.62-11.58 19.6 0 35.94 11.58l302.59 225.21q8.67 6.42 4.84 16.77-3.82 10.35-14.07 10.35h-33.38l-.5 329.76q0 25.18-17.76 42.69-17.76 17.5-42.44 17.5h-56.89q-12.86 0-21.35-8.62-8.49-8.62-8.49-21.21V-418.8H334.32v205.66q0 12.59-8.91 21.21-8.9 8.62-20.92 8.62h-59.53Z"/></svg>