<svg xmlns="http://www.w3.org/2000/svg" height="40" viewBox="0 -960 960 960" width="40"><path d="M330.67-469.17H632.5v-63.33H330.67v63.33Zm149.5-180q12.52 0 22.09-9.33t9.57-22.5q0-13.17-9.5-22.33-9.5-9.17-22.5-9.17-13.5 0-22.41 9.25-8.92 9.25-8.92 22.58 0 12.84 9.07 22.17 9.08 9.33 22.6 9.33Zm-250.34 484q-26.5 0-44.91-18.41Q166.5-202 166.5-228.5V-568h-54.91q-11.42 0-15.09-10.83-3.67-10.84 5.83-17.84L443-844.5q16.8-11.83 36.84-11.83 20.05 0 37.16 11.83l340.67 247.83q9.5 7 5.77 17.84Q859.71-568 848.38-568h-54.55l-.5 339.5q0 26.5-18.57 44.92-18.57 18.41-44.76 18.41h-66q-13.33 0-22.42-9.08-9.08-9.08-9.08-22.42V-412H330.67v215.33q0 13.34-9.28 22.42-9.27 9.08-22.22 9.08h-69.34Z"/></svg>