<svg xmlns="http://www.w3.org/2000/svg" height="20" viewBox="0 -960 960 960" width="20"><path d="M305.3-247.26v-329.46h349.4v329.46-329.46H305.3v329.46Zm-48-388.17v388.17h48v-288.28q0-16.83 12.03-29 12.02-12.18 29.47-12.18h266.4q17.45 0 29.47 12.03 12.03 12.02 12.03 29.47v287.96h48V-634.2L479.76-782.74 257.3-635.43Zm106.53 168.69h232.34v-51.22H363.83v51.22ZM479.7-622.09q16.21 0 29.01-12.14 12.79-12.14 12.79-29.65 0-16.22-12.79-28.71-12.8-12.5-29.51-12.5t-28.7 12.5q-12 12.49-12 29.21 0 16.71 11.85 29 11.84 12.29 29.35 12.29ZM257.3-164.5q-34.48 0-58.74-24.26-24.26-24.26-24.26-58.74v-333.76H95.52q-16.15 0-20.25-14.29-4.1-14.3 8.58-23.73L433.3-851.35q20.73-14.15 46.39-14.15t46.53 14.15l349.45 232.07q12.68 9.43 8.58 23.73-4.1 14.29-20.25 14.29h-78.78l.48 333.76q0 34.48-24.26 58.74-24.26 24.26-58.74 24.26h-65.03q-17.45 0-29.47-11.93-12.03-11.94-12.03-29.26v-202.53H363.83v202.09q0 17.28-12.03 29.46-12.02 12.17-29.47 12.17H257.3Z"/></svg>