<svg xmlns="http://www.w3.org/2000/svg" height="20" viewBox="0 -960 960 960" width="20"><path d="M311.3-251.76v-320.96h336.9v320.96-320.96H311.3v320.96Zm-49.5-382.41v382.41h49.5v-282.28q0-15.33 11.53-27 11.52-11.68 27.47-11.68h258.9q15.95 0 27.47 11.53 11.53 11.52 11.53 27.47v281.96h49.5v-381.17L479.76-778.74 261.8-634.17Zm103.53 168.43h228.84v-52.72H365.33v52.72ZM479.7-620.59q14.71 0 27.01-11.64Q519-643.87 519-659.88q0-14.72-12.29-26.71-12.3-12-27.76-12t-26.7 12Q441-674.6 441-659.38q0 15.21 11.13 27 11.12 11.79 27.57 11.79ZM261.8-174q-32.42 0-55.21-22.79T183.8-252v-329.26h-76.35q-15.58 0-19.18-13.29-3.6-13.3 8.72-22.53L436.3-842.85q19.73-13.65 43.39-13.65t43.53 13.65l339.31 225.77q12.32 9.23 8.72 22.53-3.6 13.29-19.17 13.29h-76.36L775.7-252q0 32.42-22.79 55.21T697.7-174h-64.53q-15.95 0-27.47-11.43-11.53-11.44-11.53-27.26v-199.03H365.33v198.59q0 15.78-11.53 27.46Q342.28-174 326.33-174H261.8Z"/></svg>