<svg xmlns="http://www.w3.org/2000/svg" height="40" viewBox="0 -960 960 960" width="40"><path d="M303.33-225.33V-594h353.34v368.67V-594H303.33v368.67Zm-76.66-386.79v386.79h76.66v-335.34q0-14.16 9.59-23.75 9.58-9.58 23.75-9.58h286.66q14.17 0 23.75 9.58 9.59 9.59 9.59 23.75v335.34h76.66v-386L480-796 226.67-612.12Zm122.66 141.45H610v-76.66H349.33v76.66ZM480-650q13.67 0 23.5-9.83 9.83-9.84 9.83-23.84t-9.83-23.5q-9.83-9.5-23.83-9.5-14 0-23.5 9.59-9.5 9.58-9.5 23.75 0 13.66 9.58 23.5Q465.83-650 480-650ZM226.67-158.67q-27.5 0-47.09-19.58Q160-197.83 160-225.33V-568h-56.33Q92-568 87.83-579.33q-4.16-11.34 5.84-18.67L441-850q17.36-12.33 38.84-12.33 21.49 0 39.16 12.33l347.33 252q10 7.33 5.84 18.67Q868-568 856.33-568H800v342.67q0 27.5-19.58 47.08-19.59 19.58-47.09 19.58h-90q-14.16 0-23.75-9.58Q610-177.83 610-192v-232.67H349.33V-192q0 14.17-9.58 23.75T316-158.67h-89.33Z"/></svg>