<svg xmlns="http://www.w3.org/2000/svg" height="24" viewBox="0 -960 960 960" width="24"><path d="M318.09-453.07h323.82v-60H318.09v60Zm161.67-185.02q19.15 0 32.45-13.29 13.29-13.29 13.29-32.45 0-19.15-13.29-32.2-13.3-13.06-32.45-13.06-19.15 0-32.21 13.06-13.05 13.05-13.05 32.2 0 19.16 13.05 32.45 13.06 13.29 32.21 13.29ZM233.3-132.5q-37.78 0-64.39-26.61T142.3-223.5v-341.76H89.52q-16.15 0-21.75-15.79-5.6-15.8 8.08-25.23L426.3-860.35q23.87-17.15 53.46-17.15t53.46 17.15l350.45 254.07q13.68 9.43 8.08 25.23-5.6 15.79-21.75 15.79h-52.78l.48 341.76q0 37.78-26.61 64.39T726.7-132.5h-39.29q-19.15 0-32.32-13.17-13.18-13.18-13.18-32.33v-210.28H318.09V-178q0 19.15-13.18 32.33-13.17 13.17-32.32 13.17H233.3Z"/></svg>