<svg xmlns="http://www.w3.org/2000/svg" height="20" viewBox="0 -960 960 960" width="20"><path d="M355.85-485.88h251.27v-66.47H355.85v66.47Zm124.53-138.16q8.27 0 15.89-6.74 7.61-6.75 7.61-16.73 0-8.68-7.59-16.3-7.6-7.61-16.79-7.61-8.5 0-15.75 7.59-7.25 7.58-7.25 16.76 0 9.19 7.1 16.11t16.78 6.92ZM291.36-237.27q-22.59 0-37.96-15.51-15.36-15.52-15.36-38.03v-299.81H199q-10.81 0-13.23-9t5.38-15.84l258.39-177.27q13.76-9.96 30.38-9.96 16.62 0 30.54 9.96l258.39 177.27q7.8 6.84 5.38 15.84t-13.23 9h-38.65l-.5 299.81q0 22.51-15.66 38.03-15.66 15.51-37.71 15.51h-34.52q-11.27 0-19.06-7.64-7.78-7.64-7.78-18.94v-189.23H355.85v189.23q0 11.3-7.87 18.94-7.86 7.64-18.82 7.64h-37.8Z"/></svg>