<svg xmlns="http://www.w3.org/2000/svg" height="20" viewBox="0 -960 960 960" width="20"><path d="M290-217v-324h380v324-324H290v324Zm-32-397v397h32v-275.32q0-19.68 14.35-34.18T339-541h282q20.3 0 34.65 14.35Q670-512.3 670-492v275h32v-397L480-757 258-614Zm103 181h238v-36H361v36Zm119-136q19 0 34-14.85t15-35.22q0-19.07-15-33.5T479.5-667q-19.5 0-34 14.43t-14.5 34Q431-599 445.35-584T480-569ZM258-119q-41.7 0-69.85-28.15Q160-175.3 160-217v-334H36q-20 0-24.5-17T22-596l404-263q24.84-17 53.92-17Q509-876 534-859l404 263q15 11 10.5 28T924-551H800v334q0 41.7-28.15 69.85Q743.7-119 702-119h-54q-20.3 0-34.65-14.26Q599-147.52 599-167.69V-361H361v192.86q0 20.14-14.35 34.64T312-119h-54Z"/></svg>