<svg xmlns="http://www.w3.org/2000/svg" height="40" viewBox="0 -960 960 960" width="40"><path d="M307.33-228.5v-362.83H652.5v362.83-362.83H307.33v362.83Zm-77.5-383.02v383.02h77.5v-331.33q0-12.95 9.25-22.23 9.25-9.27 22.59-9.27h281.5q13.33 0 22.58 9.27 9.25 9.28 9.25 22.23v331.33H730v-382.24L480-793.33 229.83-611.52ZM350.5-470h258.17v-77.83H350.5V-470Zm129.67-179.17q12.52 0 22.09-9.33t9.57-22.5q0-13.17-9.5-22.33-9.5-9.17-22.75-9.17t-22.16 9.25q-8.92 9.25-8.92 22.58 0 12.84 9.1 22.17 9.11 9.33 22.57 9.33Zm-250.34 484q-26.43 0-44.88-18.44-18.45-18.45-18.45-44.89V-568h-54.99q-11.34 0-15.01-10.83-3.67-10.84 5.98-17.64L443-844.5q16.8-11.83 36.84-11.83 20.05 0 37.16 11.83l340.52 248.03q9.65 6.8 5.92 17.64Q859.71-568 848.45-568h-54.62l-.5 339.5q0 26.44-18.6 44.89-18.6 18.44-44.73 18.44h-89.5q-13.33 0-22.58-9.08-9.25-9.08-9.25-22.42v-230.5H350.5v230.5q0 13.34-9.25 22.42-9.25 9.08-22.58 9.08h-88.84Z"/></svg>