<svg xmlns="http://www.w3.org/2000/svg" height="24" viewBox="0 -960 960 960" width="24"><path d="M556-399 413-535v-205h135v149l104 97-96 95ZM114-544h135q1 29 11.5 55t26.5 51q27 37 59 68.5t65 62.5q17 17 34.5 34t33.5 33q16-17 32-33.5t34-33.5q32-31 66-62t61-69q18-27 28-57.5t10-63.5q1-97-67-164.5T479-790q-32-1-62 6.5T359-759h18v135H114v-262h134v42q50-39 109-60.5T479-926q153 0 260 107t107 260q0 53-16 103.5T784-362q-41 60-95 106.5T588-155q-19 20-35 41.5T525-69l-9 15q-5 10-15.5 16T479-32q-12 0-22.5-6T441-54l-9-15q-12-23-27.5-44.5T371-155q-48-53-101.5-100.5T175-362q-28-41-43.5-86.5T114-544Z"/></svg>