<svg xmlns="http://www.w3.org/2000/svg" height="24" viewBox="0 -960 960 960" width="24"><path d="M560.62-431.46 448-542.85v-170.38h66v142.54l92.92 92.92-46.3 46.31ZM168-559h66q0 37.54 10.5 71.31t30.5 65.07q31.31 46.62 69.88 84.31 38.58 37.69 72.81 79.62 18.23 20.31 33.58 43.15 15.35 22.85 27.73 46.46 12.69-24.61 28.65-46.57 15.97-21.97 33.97-43.04 34.23-41.16 72.65-79.62 38.42-38.46 68.19-84.31 20-30.53 31.77-64.8Q726-521.69 726-560q1.77-103-71.12-175Q582-807 479-806q-55-1-103.42 22.96-48.43 23.96-80.66 68.81h58.85v66H168V-832h65v91q41.31-61.54 106.46-96.27Q404.62-872 479-872q130.08 0 221.54 90.96Q792-690.08 792-560q0 47.38-13.96 91.77-13.96 44.38-39.89 82.54-35.15 53.38-80.88 95.15t-86.35 91.46q-14.69 18.46-28.65 37.31-13.96 18.85-23.65 41.08l-7.24 15q-4.23 8.46-13.46 13.57Q488.69-87 479.23-87q-11.23 0-19.69-4.35-8.46-4.34-12.69-14.34l-7.23-15q-9.7-22.23-23.16-41.19-13.46-18.97-28.15-37.2-40.85-48.15-87.85-90.19-47-42.04-80.38-96.42-26.16-38.16-39.12-82.04Q168-511.62 168-559Z"/></svg>