<svg xmlns="http://www.w3.org/2000/svg" height="24" viewBox="0 -960 960 960" width="24"><path d="M263.85-120q-26.66 0-45.64-18.98t-18.98-45.64v-464.61h-46.92q-13.73 0-23.02-9.29T120-681.54v-63.38q0-39.62 27.82-67.35Q175.64-840 215.38-840h529.24q39.23 0 67.3 28.08Q840-783.85 840-744.5v62.96q0 13.73-9.29 23.02t-23.02 9.29H760v464.61q0 26.66-18.98 45.64T695.38-120H263.85Zm0-40h431.53q10.77 0 17.7-6.92 6.92-6.93 6.92-17.7v-123.84H239.23v123.84q0 10.77 6.92 17.7 6.93 6.92 17.7 6.92Zm-24.62-188.46H720v-149.23H608.46v55.38q0 8.5-5.75 14.25t-14.25 5.75q-7.77 0-13.88-5.75-6.12-5.75-6.12-14.25v-55.38H239.23v149.23Zm0-189.23h329.23v-111.54H239.23v111.54Zm369.23 0H720v-111.54H608.46v111.54Z"/></svg>