<svg xmlns="http://www.w3.org/2000/svg" height="48" viewBox="0 -960 960 960" width="48"><path d="M239.16-103.08q-22.87 0-39.51-16.64Q183-136.37 183-159.23v-497.04h-51.5q-12.14 0-20.28-7.79-8.14-7.8-8.14-19.94v-72.05q0-41.88 29.26-71.38 29.26-29.49 71.7-29.49h552.12q41.39 0 71.08 29.66 29.68 29.66 29.68 71.17V-684q0 12.14-8.19 19.94-8.19 7.79-19.54 7.79h-51.77v497.04q0 22.86-16.64 39.51-16.65 16.64-39.51 16.64H239.16Zm0-43.84h482.11q5.19 0 8.75-3.47 3.56-3.46 3.56-8.84v-140.89H226.85v140.89q0 5.38 3.65 8.84 3.65 3.47 8.66 3.47Zm-12.31-197.04h506.73v-153.62H617.61v56.54q0 9.53-6.42 15.9-6.42 6.37-15.15 6.37-9 0-15.64-6.37-6.63-6.37-6.63-15.9v-56.54H226.85v153.62Zm0-197.46h346.92v-114.85H226.85v114.85Zm390.76 0h115.97v-114.85H617.61v114.85ZM146.92-700.11h666.16v-55.9q0-23.91-16.58-40.49-16.58-16.58-40.35-16.58H204.04q-24.97 0-41.04 16.53-16.08 16.52-16.08 40.35v56.09Zm666.16 0H146.92h666.16Z"/></svg>