<svg xmlns="http://www.w3.org/2000/svg" height="40" viewBox="0 -960 960 960" width="40"><path d="M258.97-122.82q-23.13 0-40.09-16.96-16.96-16.96-16.96-40.09v-474.32H151.7q-12.35 0-20.62-7.91-8.26-7.9-8.26-20.26v-62.86q0-38.16 26.71-65.06 26.71-26.9 65.51-26.9h530.15q37.59 0 64.79 27.16 27.2 27.15 27.2 64.86v62.8q0 12.36-8.32 20.26-8.31 7.91-19.85 7.91h-51.33v474.32q0 23.13-16.96 40.09-16.96 16.96-40.09 16.96H258.97Zm0-32.44h441.66q10.38 0 17.5-6.92 7.11-6.92 7.11-17.69v-132.3H234.36v132.3q0 10.77 7.18 17.69 7.18 6.92 17.43 6.92ZM234.36-344.6h490.88v-157.11H604.95v59.06q0 7.12-4.78 11.85-4.78 4.72-11.08 4.72-6.81 0-11.69-4.72-4.89-4.73-4.89-11.85v-59.06H234.36v157.11Zm0-189.54h338.15v-120.05H234.36v120.05Zm370.59 0h120.29v-120.05H604.95v120.05ZM155.26-686.63h649.48v-58.3q0-24.99-17.33-42.4-17.34-17.41-42.23-17.41H215.04q-26.13 0-42.96 17.26-16.82 17.26-16.82 42.19v58.66Zm649.48 0H155.26h649.48Z"/></svg>