<svg xmlns="http://www.w3.org/2000/svg" height="48" viewBox="0 -960 960 960" width="48"><path d="M231-59q-37.8 0-64.4-26.6Q140-112.2 140-150v-493h-35q-20.75 0-33.37-13.33Q59-669.65 59-690v-84q0-53.92 36.96-90.96Q132.92-902 188-902h585q54.33 0 91.67 37.04Q902-827.92 902-774v84q0 20.35-13.17 33.67Q875.65-643 856-643h-34v493q0 37.8-26.89 64.4Q768.21-59 730-59H231Zm0-91h499v-116H231v116Zm0-208h499v-119h-79v27q0 19.12-13.28 32.06Q624.43-405 605.84-405q-19.84 0-33.34-12.94Q559-430.88 559-450v-27H231v119Zm0-210h328v-75H231v75Zm420 0h79v-75h-79v75Z"/></svg>