<svg xmlns="http://www.w3.org/2000/svg" height="48" viewBox="0 -960 960 960" width="48"><path d="M218-64q-30.75 0-51.87-21.13Q145-106.25 145-137v-518h-44q-15.75 0-26.37-10.63Q64-676.25 64-692v-84q0-50 34.92-85 34.91-35 86.08-35h591q50 0 85 35t35 85v84q0 15.75-10.61 26.37Q874.78-655 860-655h-44v518q0 30.75-21.12 51.87Q773.75-64 743-64H218Zm0-73h525v-137H218v137Zm0-210h525v-139H643v48q0 15.3-10.44 25.65Q622.12-402 606.68-402 592-402 581-412.35T570-438v-48H218v139Zm0-212h352v-96H218v96Zm425 0h100v-96H643v96Z"/></svg>