<svg xmlns="http://www.w3.org/2000/svg" height="40" viewBox="0 -960 960 960" width="40"><path d="M226.68-56.75q-37.58 0-63.42-25.84-25.84-25.84-25.84-63.42v-500.14h-35.7q-19.19 0-32.08-13.05-12.89-13.06-12.89-32.07v-84.08q0-53.49 37.35-90.78 37.34-37.28 91.79-37.28h589.22q53.6 0 90.95 37.28 37.35 37.29 37.35 90.78v84.08q0 19.01-12.97 32.07-12.97 13.05-31.49 13.05h-35.54v500.14q0 37.58-25.89 63.42-25.89 25.84-63.53 25.84H226.68Zm0-89.26h507.31V-266.2H226.68v120.19Zm0-209.61h507.31V-477.7h-83.27v36.92q0 18.51-12.72 31.03-12.73 12.53-31.3 12.53-18.55 0-31.97-12.53-13.43-12.52-13.43-31.03v-36.92H226.68v122.08Zm0-211.34H561.3v-79.19H226.68v79.19Zm424.04 0h83.27v-79.19h-83.27v79.19Z"/></svg>