<svg xmlns="http://www.w3.org/2000/svg" height="20" viewBox="0 -960 960 960" width="20"><path d="M290.02-142.15q-22.1 0-37.67-15.73-15.58-15.73-15.58-37.81V-656.5h-67.65q-11.3 0-19.14-7.64-7.83-7.64-7.83-18.94v-41.94q0-38.71 26.89-65.77 26.88-27.06 65.92-27.06h489.96q38.21 0 65.57 27.32 27.36 27.31 27.36 65.57v41.88q0 11.3-7.86 18.94-7.86 7.64-18.72 7.64h-68.92v460.81q0 22.08-15.74 37.81-15.74 15.73-37.84 15.73H290.02Zm.29-28.93h378.5q10.38 0 17.5-6.92 7.11-6.92 7.11-17.69v-112.35H265.69v112.35q0 10.77 6.93 17.69 6.92 6.92 17.69 6.92Zm-24.62-165.88h427.73v-149.85H589.38v52q0 6.07-4.32 10.36-4.32 4.3-9.94 4.3-5.73 0-10.19-4.3-4.47-4.29-4.47-10.36v-52H265.69v149.85Zm0-178.77h294.77V-656.5H265.69v140.77Zm323.69 0h104.04V-656.5H589.38v140.77Z"/></svg>