<svg xmlns="http://www.w3.org/2000/svg" height="24" viewBox="0 -960 960 960" width="24"><path d="M245.92-68q-41.82 0-70.06-28.24-28.24-28.24-28.24-70.07v-476.31h-30.46q-20.37 0-34.76-14.39Q68-671.4 68-691.77v-75.69q0-51.89 36.66-88.22Q141.32-892 193.69-892h573.62q51.7 0 88.19 36.5 36.5 36.49 36.5 88.25v75.48q0 20.37-14.4 34.76-14.39 14.39-34.76 14.39H812v476.31q0 41.83-28.24 70.07Q755.52-68 713.69-68H245.92Zm0-86h467.77q5.39 0 8.85-3.46t3.46-8.85v-105.92H233.62v105.92q0 5.39 3.46 8.85t8.84 3.46Zm-12.3-204.23H726v-119.62h-82.77v39.7q0 17.42-12.05 29.21-12.06 11.79-29.88 11.79-17.45 0-30.76-11.79-13.31-11.79-13.31-29.21v-39.7H233.62v119.62Zm0-205.62h323.61v-78.77H233.62v78.77Zm409.61 0H726v-78.77h-82.77v78.77ZM154-728.61h652v-38.44q0-16.33-11.12-27.64Q783.75-806 767.31-806H193.69q-16.27 0-27.98 11.12Q154-783.75 154-767.31v38.7Zm652 0H154h652Z"/></svg>