<svg xmlns="http://www.w3.org/2000/svg" height="24" viewBox="0 -960 960 960" width="24"><path d="M273-137q-23.72 0-40.61-16.89T215.5-194.5v-457H166q-12.25 0-20.62-8.13Q137-667.75 137-680v-57.17q0-35.73 24.9-60.78Q186.79-823 223-823h514q35.17 0 60.58 25.36Q823-772.28 823-737.05V-680q0 12.25-8.41 20.37-8.42 8.13-20.09 8.13h-51v457q0 23.72-16.89 40.61T686-137H273Zm0-25.5h413q13.5 0 22.75-9t9.25-23V-320H241v125.5q0 14 9 23t23 9Zm-32-183h477V-504H596.5v60.5q0 5.45-3.81 9.23-3.81 3.77-8.69 3.77-5 0-9-3.77-4-3.78-4-9.23V-504H241v158.5Zm0-184h330v-122H241v122Zm355.5 0H718v-122H596.5v122ZM162.5-677h635v-59.65q0-25.35-17.61-43.1-17.6-17.75-42.89-17.75H223q-26.21 0-43.36 17.61-17.14 17.6-17.14 43.04V-677Zm635 0h-635 635Z"/></svg>