<svg xmlns="http://www.w3.org/2000/svg" height="20" viewBox="0 -960 960 960" width="20"><path d="M273.72-50Q220-50 183-87.15T146-178v-452h-32q-27.3 0-45.65-19.05Q50-668.1 50-694v-65q0-63.5 44.33-107.25Q138.67-910 203-910h555q63.92 0 107.96 43.75Q910-822.5 910-759v65q0 25.9-18.35 44.95Q873.3-630 846-630h-32v452q0 53.7-37.16 90.85Q739.68-50 685.96-50H273.72Zm.28-128h412v-61H274v61Zm0-189h412v-75h-29v-2q0 25.92-18.03 43.46Q620.93-383 595.32-383q-27.62 0-46.97-17.54Q529-418.08 529-444v2H274v75Zm0-203h255v-60H274v60Zm383 0h29v-60h-29v60Z"/></svg>