<svg xmlns="http://www.w3.org/2000/svg" height="24" viewBox="0 -960 960 960" width="24"><path d="M237.83-44.65q-47.87 0-80.53-32.65-32.65-32.66-32.65-80.53v-476.34h-23.41q-23.67 0-40.13-16.63-16.46-16.62-16.46-39.96V-775q0-58.62 41.23-99.48 41.23-40.87 100.36-40.87h588.52q58.72 0 99.65 40.87 40.94 40.86 40.94 99.48v84.24q0 23.34-16.46 39.96-16.46 16.63-40.13 16.63h-23.41v476.34q0 47.87-32.65 80.53-32.66 32.65-80.53 32.65H237.83Zm0-113.18h484.34v-96.58H237.83v96.58Zm0-209.76h484.34v-97.82h-59.82v24.82q0 23.1-15.95 38.73-15.95 15.62-39.27 15.62-23.8 0-40.88-15.62-17.08-15.63-17.08-38.73v-24.82H237.83v97.82Zm0-211h311.34v-55.58H237.83v55.58Zm424.52 0h59.82v-55.58h-59.82v55.58Z"/></svg>