<svg xmlns="http://www.w3.org/2000/svg" height="24" viewBox="0 -960 960 960" width="24"><path d="M265-100q-36.75 0-61.37-24.63Q179-149.25 179-186v-464h-36q-17.75 0-30.37-12.63Q100-675.25 100-693v-62.4q0-43.58 30.92-74.09Q161.83-860 206-860h549q43.08 0 74.04 30.96Q860-798.08 860-754.85V-693q0 17.75-12.62 30.37Q834.75-650 817-650h-37v464q0 36.75-24.62 61.37Q730.75-100 694-100H265Zm0-54h429q14 0 23-9t9-23v-109H233v109q0 14 9 23t23 9Zm-32-195h493v-143H618v52q0 10.62-7.45 17.81-7.46 7.19-18.48 7.19-10.07 0-19.07-7.19T564-440v-52H233v143Zm0-197h331v-104H233v104Zm385 0h108v-104H618v104Z"/></svg>