<svg xmlns="http://www.w3.org/2000/svg" height="40" viewBox="0 -960 960 960" width="40"><path d="M231.25-54.15q-40.42 0-68.43-28-28.01-28.01-28.01-68.43V-641.8H102.7q-21.04 0-34.8-14.15-13.75-14.15-13.75-34.77v-84.19q0-55.05 38.23-93.19 38.23-38.13 94.27-38.13h587.7q55.28 0 93.58 38.13 38.3 38.14 38.3 93.19v84.19q0 20.62-13.96 34.77-13.96 14.15-34.3 14.15h-31.74v491.22q0 40.42-28.12 68.43-28.12 28-68.69 28H231.25Zm0-96.43h498.17v-112.25H231.25v112.25Zm0-209.06h498.17v-114.48h-75.43v29.11q0 19.98-13.81 33.5t-33.64 13.52q-20.45 0-34.91-13.52-14.46-13.52-14.46-33.5v-29.11H231.25v114.48Zm0-210.91h325.92v-71.25H231.25v71.25Zm422.74 0h75.43v-71.25h-75.43v71.25ZM150.58-738.61h658.84v-35.75q0-15.19-9.9-25.13-9.91-9.93-25.17-9.93h-587.7q-15.55 0-25.81 9.85-10.26 9.85-10.26 25.09v35.87Zm658.84 0H150.58h658.84Z"/></svg>