<svg xmlns="http://www.w3.org/2000/svg" height="24" viewBox="0 -960 960 960" width="24"><path d="M246.78-60.78q-44.3 0-75.15-30.85-30.85-30.85-30.85-75.15v-463.61h-27q-22.08 0-37.54-15.46-15.46-15.45-15.46-37.54v-81.7q0-55.89 39.29-95.01 39.28-39.12 95.41-39.12h569.04q56.13 0 95.41 39.12 39.29 39.12 39.29 95.01v81.7q0 22.09-15.46 37.54-15.46 15.46-37.54 15.46h-27v463.61q0 44.3-30.85 75.15-30.85 30.85-75.15 30.85H246.78Zm0-106h466.44v-96.83H246.78v96.83Zm0-202.83h466.44v-97.95H654.7v20.21q0 22.05-15.04 36.96-15.03 14.91-37.26 14.91-22.23 0-37.97-14.91-15.73-14.91-15.73-36.96v-20.21H246.78v97.95Zm0-203.96H548.7v-56.82H246.78v56.82Zm407.92 0h58.52v-56.82H654.7v56.82Z"/></svg>