<svg xmlns="http://www.w3.org/2000/svg" height="48" viewBox="0 -960 960 960" width="48"><path d="M221.11-62.8q-32.44 0-54.87-22.44-22.44-22.43-22.44-54.87v-512.02h-41.84q-16.95 0-28.05-11.27-11.11-11.27-11.11-28.12v-84q0-50.94 35.41-86.43 35.4-35.48 87.51-35.48h589.56q51.04 0 86.6 35.48 35.55 35.49 35.55 86.43v84q0 16.85-11.22 28.12-11.23 11.27-27.17 11.27h-41.61v512.02q0 32.44-22.5 54.87-22.5 22.44-55.04 22.44H221.11Zm0-77.31h518.78v-131.98H221.11v131.98Zm0-209.52h518.78v-134.22h-94.98v42.98q0 16.22-11.12 27.18-11.12 10.97-27.31 10.97-15.91 0-27.51-10.97-11.6-10.96-11.6-27.18v-42.98H221.11v134.22Zm0-211.52h346.26v-90.98H221.11v90.98Zm423.8 0h94.98v-90.98h-94.98v90.98Zm-504.8-168.52h679.78v-45.13q0-19.18-12.96-32.13-12.97-12.96-31.65-12.96H185.72q-19.2 0-32.41 12.83-13.2 12.83-13.2 32.08v45.31Zm679.78 0H140.11h679.78Z"/></svg>