<svg xmlns="http://www.w3.org/2000/svg" height="24" viewBox="0 -960 960 960" width="24"><path d="M251.92-100q-29.82 0-51.06-21.24-21.24-21.24-21.24-51.07v-472.31h-43.46q-15.37 0-25.76-10.39Q100-665.4 100-680.77v-71.69q0-44.81 31.41-76.17Q162.82-860 207.69-860h544.62q44.61 0 76.15 31.54Q860-796.92 860-752.25v71.48q0 15.37-10.4 25.76-10.39 10.39-25.76 10.39H780v472.31q0 29.83-21.24 51.07Q737.52-100 707.69-100H251.92Zm0-60h455.77q5.39 0 8.85-3.46t3.46-8.85v-121.92H239.62v121.92q0 5.39 3.46 8.85t8.84 3.46Zm-12.3-194.23H720v-134.62h-95.77v47.7q0 12.75-8.63 21.37-8.62 8.63-21.37 8.63-12.38 0-21.19-8.63-8.81-8.62-8.81-21.37v-47.7H239.62v134.62Zm0-194.62h324.61v-95.77H239.62v95.77Zm384.61 0H720v-95.77h-95.77v95.77ZM160-704.61h640v-47.56q0-20.21-13.71-34.02Q772.58-800 752.31-800H207.69q-20.27 0-33.98 13.71Q160-772.58 160-752.31v47.7Zm640 0H160h640Z"/></svg>