<svg xmlns="http://www.w3.org/2000/svg" version="1.1" width="3300" height="2000"><g id="Notes"><style>
    text {
      font-family: monospace;
      text-anchor: middle;
    }
    text.emphasis {
      font-weight:bold;
    }
    text.lanchor {
      text-anchor: start;
    }
  </style><rect height="2200" id="artboard" fill="white" width="3300" x="0" y="0"/><line id="" style="fill:none;stroke:black;stroke-width:0.5;" x1="263" x2="3036" y1="292" y2="292"/><text class="lanchor emphasis" transform="matrix(1 0 0 1 263 322)">Weight/Scale Variations</text><text transform="matrix(1 0 0 1 559.711 322)">Ultralight</text><text transform="matrix(1 0 0 1 856.422 322)">Thin</text><text transform="matrix(1 0 0 1 1153.13 322)">Light</text><text transform="matrix(1 0 0 1 1449.84 322)">Regular</text><text transform="matrix(1 0 0 1 1746.56 322)">Medium</text><text transform="matrix(1 0 0 1 2043.27 322)">Semibold</text><text transform="matrix(1 0 0 1 2339.98 322)">Bold</text><text transform="matrix(1 0 0 1 2636.69 322)">Heavy</text><text transform="matrix(1 0 0 1 2933.4 322)">Black</text><text id="template-version" style="text-anchor: end;" transform="matrix(1 0 0 1 3036 1933)">Template v.1.0</text><text class="lanchor" transform="matrix(1 0 0 1 263 726)">Small</text><text class="lanchor" transform="matrix(1 0 0 1 263 1156)">Medium</text><text class="lanchor" transform="matrix(1 0 0 1 263 1586)">Large</text></g><g id="Guides"><g id="H-reference" style="fill:#27AAE1;stroke:none;" transform="matrix(1 0 0 1 339 696)"><path d="M 54.9316 0 L 57.666 0 L 30.5664 -70.459 L 28.0762 -70.459 L 0.976562 0 L 3.66211 0 L 12.9395 -24.4629 L 45.7031 -24.4629 Z M 29.1992 -67.0898 L 29.4434 -67.0898 L 44.8242 -26.709 L 13.8184 -26.709 Z"/></g><line id="Baseline-S" style="fill:none;stroke:#27AAE1;opacity:1;stroke-width:0.577;" x1="263" x2="3036" y1="696" y2="696"/><line id="Capline-S" style="fill:none;stroke:#27AAE1;opacity:1;stroke-width:0.577;" x1="263" x2="3036" y1="625.541" y2="625.541"/><g id="H-reference" style="fill:#27AAE1;stroke:none;" transform="matrix(1 0 0 1 339 1126)"><path d="M 54.9316 0 L 57.666 0 L 30.5664 -70.459 L 28.0762 -70.459 L 0.976562 0 L 3.66211 0 L 12.9395 -24.4629 L 45.7031 -24.4629 Z M 29.1992 -67.0898 L 29.4434 -67.0898 L 44.8242 -26.709 L 13.8184 -26.709 Z"/></g><line id="Baseline-M" style="fill:none;stroke:#27AAE1;opacity:1;stroke-width:0.577;" x1="263" x2="3036" y1="1126" y2="1126"/><line id="Capline-M" style="fill:none;stroke:#27AAE1;opacity:1;stroke-width:0.577;" x1="263" x2="3036" y1="1055.54" y2="1055.54"/><g id="H-reference" style="fill:#27AAE1;stroke:none;" transform="matrix(1 0 0 1 339 1556)"><path d="M 54.9316 0 L 57.666 0 L 30.5664 -70.459 L 28.0762 -70.459 L 0.976562 0 L 3.66211 0 L 12.9395 -24.4629 L 45.7031 -24.4629 Z M 29.1992 -67.0898 L 29.4434 -67.0898 L 44.8242 -26.709 L 13.8184 -26.709 Z"/></g><line id="Baseline-L" style="fill:none;stroke:#27AAE1;opacity:1;stroke-width:0.577;" x1="263" x2="3036" y1="1556" y2="1556"/><line id="Capline-L" style="fill:none;stroke:#27AAE1;opacity:1;stroke-width:0.577;" x1="263" x2="3036" y1="1485.54" y2="1485.54"/><rect height="119.336" id="left-margin" style="fill:darkred;stroke:none;opacity:0.4;" width="12.4512" x="1394.06" y="1030.79"/><rect height="119.336" id="right-margin" style="fill:darkgreen;stroke:none;opacity:0.4;" width="12.4512" x="1502.5112" y="1030.79"/><rect x="1406.5112" y="1045" width="96" height="96" fill="none" stroke="blue" stroke-dasharray="5"/><rect x="1394.06" y="1030.79" width="120.9024" height="119.336" fill="none" stroke="blue"/></g><g id="Symbols"><g id="Bold-L" transform="matrix(1 0 0 1 2266 1556)"><path d="M70.95 -9.591 Q76.271 -7.011 81.834 -8.946 Q87.398 -10.881 88.688 -16.525 Q92.88 -33.617 97.073 -50.307 Q101.265 -66.996 106.103 -84.089 Q96.105 -69.576 86.188 -55.386 Q76.271 -41.196 65.79 -27.167 Q62.565 -22.814 64.016 -17.331 Q65.468 -11.849 70.95 -9.591 Z M30.96 19.756 Q26.929 19.756 23.704 17.902 Q20.479 16.048 18.383 12.661 Q13.706 4.76 11.61 -4.028 Q9.514 -12.816 9.514 -22.007 Q9.353 -35.875 14.754 -48.291 Q20.156 -60.707 29.589 -70.06 Q39.023 -79.412 51.519 -84.814 Q64.016 -90.216 77.561 -90.216 Q91.59 -90.216 103.926 -84.895 Q116.261 -79.574 125.453 -70.302 Q134.644 -61.03 139.965 -48.533 Q145.286 -36.036 145.286 -22.007 Q145.286 -12.655 142.868 -3.867 Q140.449 4.921 136.095 12.661 Q134.321 16.37 130.935 18.063 Q127.549 19.756 123.679 19.756 H30.96 Z"/></g><g id="Semibold-L" transform="matrix(1 0 0 1 1970.27 1556)"><path d="M70.81 -9.311 Q76.271 -6.661 81.904 -8.666 Q87.538 -10.672 88.828 -16.385 Q92.88 -33.337 97.003 -49.886 Q101.125 -66.435 105.822 -83.387 Q95.895 -69.015 85.943 -55.036 Q75.991 -41.056 65.58 -27.167 Q62.215 -22.744 63.771 -17.226 Q65.327 -11.708 70.81 -9.311 Z M30.539 19.406 Q26.788 19.406 23.739 17.657 Q20.688 15.907 18.732 12.731 Q14.196 4.829 12.066 -3.923 Q9.935 -12.676 9.935 -21.938 Q9.773 -35.665 15.175 -48.011 Q20.577 -60.358 29.939 -69.675 Q39.303 -78.992 51.695 -84.429 Q64.086 -89.866 77.631 -89.866 Q91.59 -89.866 103.856 -84.545 Q116.121 -79.224 125.243 -69.986 Q134.363 -60.749 139.649 -48.323 Q144.936 -35.896 144.936 -21.938 Q144.936 -12.586 142.518 -3.831 Q140.099 4.921 135.814 12.731 Q134.112 16.089 130.935 17.747 Q127.758 19.406 124.169 19.406 H30.539 Z"/></g><g id="Medium-L" transform="matrix(1 0 0 1 1674.31 1556)"><path d="M70.705 -9.101 Q76.271 -6.398 81.957 -8.456 Q87.643 -10.514 88.933 -16.28 Q92.88 -33.127 96.95 -49.57 Q101.02 -66.014 105.612 -82.862 Q95.737 -68.594 85.759 -54.773 Q75.781 -40.951 65.422 -27.167 Q61.952 -22.691 63.587 -17.147 Q65.222 -11.604 70.705 -9.101 Z M30.223 19.144 Q26.684 19.144 23.765 17.473 Q20.846 15.802 18.995 12.784 Q14.566 4.883 12.408 -3.844 Q10.251 -12.571 10.251 -21.885 Q10.089 -35.507 15.491 -47.801 Q20.893 -60.095 30.202 -69.386 Q39.513 -78.676 51.826 -84.14 Q64.139 -89.603 77.684 -89.603 Q91.59 -89.603 103.803 -84.282 Q116.016 -78.961 125.085 -69.75 Q134.154 -60.54 139.414 -48.165 Q144.674 -35.791 144.674 -21.885 Q144.674 -12.532 142.255 -3.806 Q139.836 4.921 135.605 12.784 Q133.954 15.88 130.935 17.512 Q127.916 19.144 124.538 19.144 H30.223 Z"/></g><g id="Regular-L" transform="matrix(1 0 0 1 1378.56 1556)"><path d="M70.627 -8.946 Q76.271 -6.205 81.996 -8.301 Q87.72 -10.397 89.01 -16.202 Q92.88 -32.972 96.911 -49.339 Q100.943 -65.706 105.457 -82.476 Q95.621 -68.286 85.624 -54.58 Q75.626 -40.874 65.306 -27.167 Q61.759 -22.652 63.452 -17.089 Q65.145 -11.526 70.627 -8.946 Z M29.992 18.95 Q26.606 18.95 23.784 17.338 Q20.963 15.725 19.189 12.823 Q14.835 4.921 12.658 -3.786 Q10.481 -12.494 10.481 -21.846 Q10.32 -35.391 15.722 -47.646 Q21.124 -59.901 30.396 -69.173 Q39.668 -78.445 51.922 -83.927 Q64.177 -89.41 77.722 -89.41 Q91.59 -89.41 103.764 -84.089 Q115.939 -78.767 124.969 -69.576 Q133.999 -60.385 139.239 -48.049 Q144.48 -35.714 144.48 -21.846 Q144.48 -12.494 142.061 -3.786 Q139.643 4.921 135.45 12.823 Q133.838 15.725 130.935 17.338 Q128.032 18.95 124.808 18.95 H29.992 Z"/></g><g id="Light-L" transform="matrix(1 0 0 1 1082.77 1556)"><path d="M71.185 -10.186 Q76.147 -7.693 81.251 -9.574 Q86.356 -11.452 87.522 -16.636 Q91.392 -32.539 95.484 -48.099 Q99.578 -63.66 104.279 -79.561 Q95.125 -65.805 85.779 -52.626 Q76.433 -39.447 66.67 -26.237 Q63.62 -22.28 65.034 -17.368 Q66.448 -12.457 71.185 -10.186 Z M30.489 15.725 Q27.785 15.725 25.582 14.485 Q23.381 13.243 21.917 10.962 Q17.812 3.433 15.759 -4.841 Q13.706 -13.115 13.706 -22.032 Q13.545 -34.957 18.637 -46.622 Q23.73 -58.289 32.535 -67.064 Q41.343 -75.839 53.038 -81.012 Q64.735 -86.185 77.661 -86.185 Q90.845 -86.185 102.431 -81.112 Q114.017 -76.039 122.611 -67.343 Q131.208 -58.648 136.23 -46.871 Q141.255 -35.093 141.255 -21.908 Q141.255 -13.052 138.96 -4.81 Q136.666 3.433 132.722 10.713 Q131.48 13.058 129.168 14.391 Q126.854 15.725 124.311 15.725 H30.489 Z"/></g><g id="Thin-L" transform="matrix(1 0 0 1 787.282 1556)"><path d="M71.743 -11.426 Q76.023 -9.182 80.507 -10.844 Q84.992 -12.507 86.033 -17.07 Q89.903 -32.105 94.059 -46.859 Q98.214 -61.614 103.1 -76.647 Q94.63 -63.325 85.933 -50.673 Q77.239 -38.021 68.035 -25.307 Q65.48 -21.908 66.616 -17.647 Q67.749 -13.387 71.743 -11.426 Z M30.984 12.5 Q28.964 12.5 27.382 11.632 Q25.8 10.763 24.647 9.101 Q20.788 1.945 18.86 -5.895 Q16.931 -13.734 16.931 -22.219 Q16.77 -34.524 21.551 -45.6 Q26.334 -56.676 34.675 -64.956 Q43.017 -73.235 54.156 -78.098 Q65.293 -82.96 77.598 -82.96 Q90.102 -82.96 101.097 -78.135 Q112.093 -73.309 120.255 -65.111 Q128.416 -56.912 133.223 -45.692 Q138.03 -34.474 138.03 -21.97 Q138.03 -13.61 135.86 -5.833 Q133.689 1.945 129.992 8.606 Q129.124 10.391 127.4 11.445 Q125.675 12.5 123.816 12.5 H30.984 Z"/></g><g id="Ultralight-L" transform="matrix(1 0 0 1 491.205 1556)"><path d="M72.079 -12.171 Q75.949 -10.075 80.061 -11.607 Q84.172 -13.139 85.14 -17.331 Q89.01 -31.844 93.203 -46.114 Q97.395 -60.385 102.394 -74.897 Q94.331 -61.836 86.027 -49.501 Q77.722 -37.165 68.854 -24.749 Q66.596 -21.685 67.564 -17.815 Q68.531 -13.945 72.079 -12.171 Z M31.283 10.565 Q29.67 10.565 28.461 9.92 Q27.251 9.275 26.284 7.985 Q22.575 1.051 20.721 -6.527 Q18.866 -14.106 18.866 -22.33 Q18.705 -34.262 23.301 -44.986 Q27.896 -55.709 35.959 -63.691 Q44.021 -71.672 54.825 -76.349 Q65.629 -81.025 77.561 -81.025 Q89.655 -81.025 100.297 -76.349 Q110.94 -71.672 118.841 -63.771 Q126.743 -55.87 131.419 -44.986 Q136.095 -34.101 136.095 -22.007 Q136.095 -13.945 133.999 -6.447 Q131.903 1.051 128.355 7.34 Q127.71 8.791 126.339 9.678 Q124.969 10.565 123.517 10.565 H31.283 Z"/></g><g id="Bold-M" transform="matrix(1 0 0 1 2281.8 1126)"><path d="M55.25 -14.855 Q59.5 -12.855 63.812 -14.48 Q68.125 -16.105 69.25 -20.48 Q72.75 -34.355 76.25 -47.917 Q79.75 -61.48 83.5 -75.23 Q75.625 -63.48 67.5 -51.98 Q59.375 -40.48 51 -28.98 Q48.5 -25.355 49.75 -21.105 Q51 -16.855 55.25 -14.855 Z M24.75 10.52 Q20.75 10.52 17.25 8.645 Q13.75 6.77 11.75 3.27 Q8 -3.355 6.125 -10.667 Q4.25 -17.98 4.25 -25.605 Q4.25 -37.105 8.688 -47.167 Q13.125 -57.23 20.75 -64.73 Q28.375 -72.23 38.5 -76.542 Q48.625 -80.855 59.875 -80.855 Q71.5 -80.855 81.625 -76.48 Q91.75 -72.105 99.312 -64.48 Q106.875 -56.855 111.25 -46.667 Q115.625 -36.48 115.625 -24.855 Q115.625 -17.355 113.75 -10.23 Q111.875 -3.105 108 3.27 Q106.125 6.895 102.625 8.708 Q99.125 10.52 95.125 10.52 H24.75 Z"/></g><g id="Semibold-M" transform="matrix(1 0 0 1 1985.97 1126)"><path d="M55.196 -14.746 Q59.5 -12.692 63.866 -14.371 Q68.234 -16.051 69.359 -20.48 Q72.75 -34.084 76.141 -47.429 Q79.532 -60.774 83.065 -74.306 Q75.19 -62.827 67.12 -51.6 Q59.049 -40.371 50.837 -29.089 Q48.229 -25.409 49.56 -21.105 Q50.891 -16.801 55.196 -14.746 Z M24.479 9.759 Q20.75 9.759 17.521 8.02 Q14.294 6.281 12.456 3.053 Q8.761 -3.517 6.886 -10.749 Q5.011 -17.98 5.011 -25.551 Q5.011 -36.779 9.421 -46.732 Q13.831 -56.686 21.348 -64.105 Q28.864 -71.524 38.854 -75.836 Q48.843 -80.149 59.929 -80.149 Q71.391 -80.149 81.38 -75.801 Q91.37 -71.452 98.824 -63.936 Q106.278 -56.42 110.597 -46.341 Q114.919 -36.262 114.919 -24.801 Q114.919 -17.355 113.044 -10.311 Q111.169 -3.267 107.403 3.053 Q105.636 6.351 102.407 8.055 Q99.179 9.759 95.505 9.759 H24.479 Z"/></g><g id="Medium-M" transform="matrix(1 0 0 1 1689.91 1126)"><path d="M55.155 -14.665 Q59.5 -12.57 63.907 -14.29 Q68.315 -16.01 69.44 -20.48 Q72.75 -33.88 76.06 -47.061 Q79.37 -60.244 82.739 -73.614 Q74.864 -62.339 66.834 -51.314 Q58.804 -40.29 50.715 -29.17 Q48.025 -25.45 49.417 -21.105 Q50.81 -16.76 55.155 -14.665 Z M24.275 9.189 Q20.75 9.189 17.725 7.551 Q14.701 5.914 12.986 2.89 Q9.331 -3.64 7.456 -10.81 Q5.581 -17.98 5.581 -25.51 Q5.581 -36.534 9.971 -46.406 Q14.361 -56.279 21.796 -63.636 Q29.231 -70.994 39.119 -75.306 Q49.005 -79.619 59.97 -79.619 Q71.31 -79.619 81.198 -75.291 Q91.084 -70.964 98.456 -63.529 Q105.829 -56.094 110.109 -46.096 Q114.389 -36.1 114.389 -24.76 Q114.389 -17.355 112.514 -10.372 Q110.639 -3.39 106.954 2.89 Q105.269 5.944 102.245 7.566 Q99.22 9.189 95.791 9.189 H24.275 Z"/></g><g id="Regular-M" transform="matrix(1 0 0 1 1394.06 1126)"><path d="M55.125 -14.605 Q59.5 -12.48 63.938 -14.23 Q68.375 -15.98 69.5 -20.48 Q72.75 -33.73 76 -46.792 Q79.25 -59.855 82.5 -73.105 Q74.625 -61.98 66.625 -51.105 Q58.625 -40.23 50.625 -29.23 Q47.875 -25.48 49.312 -21.105 Q50.75 -16.73 55.125 -14.605 Z M24.125 8.77 Q20.75 8.77 17.875 7.208 Q15 5.645 13.375 2.77 Q9.75 -3.73 7.875 -10.855 Q6 -17.98 6 -25.48 Q6 -36.355 10.375 -46.167 Q14.75 -55.98 22.125 -63.292 Q29.5 -70.605 39.312 -74.917 Q49.125 -79.23 60 -79.23 Q71.25 -79.23 81.062 -74.917 Q90.875 -70.605 98.188 -63.23 Q105.5 -55.855 109.75 -45.917 Q114 -35.98 114 -24.73 Q114 -17.355 112.125 -10.417 Q110.25 -3.48 106.625 2.77 Q105 5.645 102.125 7.208 Q99.25 8.77 96 8.77 H24.125 Z"/></g><g id="Light-M" transform="matrix(1 0 0 1 1098.18 1126)"><path d="M55.365 -15.374 Q59.307 -13.394 63.289 -14.975 Q67.269 -16.557 68.25 -20.624 Q71.356 -33.297 74.677 -45.759 Q78 -58.22 81.539 -70.845 Q74.289 -59.96 66.794 -49.422 Q59.299 -38.884 51.635 -28.316 Q49.174 -24.999 50.37 -21.152 Q51.568 -17.307 55.365 -15.374 Z M24.078 6.27 Q21.375 6.27 19.078 5.02 Q16.779 3.77 15.443 1.52 Q12.057 -4.691 10.303 -11.456 Q8.549 -18.22 8.549 -25.384 Q8.5 -35.826 12.635 -45.23 Q16.77 -54.634 23.784 -61.586 Q30.799 -68.537 40.178 -72.634 Q49.557 -76.73 60 -76.73 Q70.721 -76.73 80.101 -72.61 Q89.481 -68.49 96.433 -61.475 Q103.385 -54.461 107.442 -44.956 Q111.5 -35.451 111.5 -24.73 Q111.5 -17.74 109.745 -11.139 Q107.99 -4.537 104.51 1.328 Q103.221 3.674 100.922 4.971 Q98.625 6.27 96 6.27 H24.078 Z"/></g><g id="Thin-M" transform="matrix(1 0 0 1 802.565 1126)"><path d="M55.606 -16.144 Q59.115 -14.307 62.64 -15.72 Q66.164 -17.134 67 -20.769 Q69.961 -32.865 73.356 -44.725 Q76.75 -56.586 80.578 -68.586 Q73.953 -57.941 66.961 -47.74 Q59.971 -37.537 52.644 -27.402 Q50.471 -24.519 51.428 -21.201 Q52.385 -17.884 55.606 -16.144 Z M24.029 3.77 Q22 3.77 20.279 2.833 Q18.558 1.895 17.51 0.27 Q14.365 -5.652 12.731 -12.057 Q11.096 -18.461 11.096 -25.287 Q11 -35.297 14.894 -44.292 Q18.789 -53.287 25.442 -59.879 Q32.096 -66.47 41.044 -70.35 Q49.99 -74.23 60 -74.23 Q70.192 -74.23 79.14 -70.302 Q88.086 -66.374 94.677 -59.72 Q101.269 -53.066 105.135 -43.995 Q109 -34.922 109 -24.73 Q109 -18.124 107.365 -11.86 Q105.731 -5.595 102.394 -0.115 Q101.442 1.703 99.721 2.736 Q98 3.77 96 3.77 H24.029 Z"/></g><g id="Ultralight-M" transform="matrix(1 0 0 1 506.415 1126)"><path d="M55.75 -16.605 Q59 -14.855 62.25 -16.167 Q65.5 -17.48 66.25 -20.855 Q69.125 -32.605 72.562 -44.105 Q76 -55.605 80 -67.23 Q73.75 -56.73 67.062 -46.73 Q60.375 -36.73 53.25 -26.855 Q51.25 -24.23 52.062 -21.23 Q52.875 -18.23 55.75 -16.605 Z M24 2.27 Q22.375 2.27 21 1.52 Q19.625 0.77 18.75 -0.48 Q15.75 -6.23 14.188 -12.417 Q12.625 -18.605 12.625 -25.23 Q12.5 -34.98 16.25 -43.73 Q20 -52.48 26.438 -58.855 Q32.875 -65.23 41.562 -68.98 Q50.25 -72.73 60 -72.73 Q69.875 -72.73 78.562 -68.917 Q87.25 -65.105 93.625 -58.667 Q100 -52.23 103.75 -43.417 Q107.5 -34.605 107.5 -24.73 Q107.5 -18.355 105.938 -12.292 Q104.375 -6.23 101.125 -0.98 Q100.375 0.52 99 1.395 Q97.625 2.27 96 2.27 H24 Z"/></g><g id="Bold-S" transform="matrix(1 0 0 1 2294.23 696)"><path d="M43.888 -20.535 Q47.044 -18.957 50.151 -20.19 Q53.258 -21.422 54.047 -24.677 Q56.413 -34.737 58.879 -44.55 Q61.345 -54.363 64.402 -64.324 Q58.781 -55.744 53.011 -47.312 Q47.241 -38.879 41.225 -30.595 Q39.45 -28.03 40.19 -25.022 Q40.929 -22.014 43.888 -20.535 Z M18.246 -2.289 Q15.386 -2.289 12.871 -3.719 Q10.356 -5.149 8.975 -7.714 Q6.707 -11.659 5.868 -16.294 Q5.03 -20.929 5.03 -25.663 Q4.931 -34.638 8.186 -42.38 Q11.441 -50.122 17.161 -55.843 Q22.881 -61.563 30.672 -64.817 Q38.464 -68.072 47.143 -68.072 Q56.019 -68.072 63.761 -64.768 Q71.503 -61.464 77.223 -55.695 Q82.944 -49.925 86.297 -42.183 Q89.65 -34.441 89.65 -25.663 Q89.65 -20.929 88.763 -16.294 Q87.875 -11.659 85.409 -7.714 Q84.029 -5.051 81.563 -3.67 Q79.097 -2.289 76.237 -2.289 H18.246 Z"/></g><g id="Semibold-S" transform="matrix(1 0 0 1 1998.1 696)"><path d="M43.846 -20.449 Q47.044 -18.829 50.193 -20.104 Q53.343 -21.38 54.132 -24.677 Q56.413 -34.523 58.793 -44.164 Q61.173 -53.806 64.059 -63.596 Q58.437 -55.229 52.711 -47.012 Q46.984 -38.793 41.097 -30.68 Q39.236 -28.073 40.04 -25.022 Q40.844 -21.972 43.846 -20.449 Z M18.032 -2.89 Q15.386 -2.89 13.085 -4.212 Q10.785 -5.535 9.532 -7.885 Q7.307 -11.787 6.469 -16.358 Q5.631 -20.929 5.631 -25.621 Q5.532 -34.381 8.765 -42.037 Q11.998 -49.693 17.632 -55.349 Q23.267 -61.006 30.951 -64.26 Q38.635 -67.515 47.185 -67.515 Q55.933 -67.515 63.568 -64.233 Q71.203 -60.949 76.838 -55.266 Q82.472 -49.582 85.782 -41.926 Q89.093 -34.269 89.093 -25.621 Q89.093 -20.929 88.205 -16.358 Q87.318 -11.787 84.938 -7.885 Q83.643 -5.48 81.391 -4.185 Q79.14 -2.89 76.537 -2.89 H18.032 Z"/></g><g id="Medium-S" transform="matrix(1 0 0 1 1701.85 696)"><path d="M43.813 -20.385 Q47.044 -18.732 50.226 -20.04 Q53.407 -21.348 54.196 -24.677 Q56.413 -34.362 58.729 -43.874 Q61.045 -53.388 63.801 -63.049 Q58.18 -54.844 52.485 -46.786 Q46.791 -38.729 41 -30.745 Q39.075 -28.105 39.927 -25.022 Q40.779 -21.939 43.813 -20.385 Z M17.871 -3.34 Q15.386 -3.34 13.245 -4.582 Q11.106 -5.825 9.95 -8.013 Q7.757 -11.883 6.919 -16.406 Q6.08 -20.929 6.08 -25.588 Q5.982 -34.188 9.199 -41.78 Q12.416 -49.372 17.986 -54.98 Q23.557 -60.587 31.161 -63.842 Q38.764 -67.097 47.218 -67.097 Q55.869 -67.097 63.424 -63.83 Q70.977 -60.564 76.548 -54.944 Q82.118 -49.324 85.396 -41.732 Q88.675 -34.141 88.675 -25.588 Q88.675 -20.929 87.787 -16.406 Q86.899 -11.883 84.584 -8.013 Q83.353 -5.801 81.263 -4.57 Q79.172 -3.34 76.763 -3.34 H17.871 Z"/></g><g id="Regular-S" transform="matrix(1 0 0 1 1405.73 696)"><path d="M43.79 -20.338 Q47.044 -18.661 50.249 -19.992 Q53.455 -21.324 54.244 -24.677 Q56.413 -34.244 58.682 -43.662 Q60.95 -53.081 63.613 -62.648 Q57.992 -54.56 52.321 -46.621 Q46.65 -38.682 40.929 -30.792 Q38.957 -28.129 39.845 -25.022 Q40.732 -21.916 43.79 -20.338 Z M17.753 -3.67 Q15.386 -3.67 13.364 -4.853 Q11.342 -6.037 10.257 -8.108 Q8.087 -11.954 7.249 -16.442 Q6.411 -20.929 6.411 -25.565 Q6.312 -34.046 9.517 -41.591 Q12.723 -49.136 18.246 -54.708 Q23.769 -60.281 31.313 -63.535 Q38.858 -66.79 47.241 -66.79 Q55.822 -66.79 63.317 -63.535 Q70.813 -60.281 76.336 -54.708 Q81.859 -49.136 85.113 -41.591 Q88.368 -34.046 88.368 -25.565 Q88.368 -20.929 87.48 -16.442 Q86.593 -11.954 84.324 -8.108 Q83.141 -6.037 81.168 -4.853 Q79.196 -3.67 76.928 -3.67 H17.753 Z"/></g><g id="Light-S" transform="matrix(1 0 0 1 1109.75 696)"><path d="M43.979 -20.944 Q46.892 -19.382 49.738 -20.58 Q52.582 -21.78 53.258 -24.791 Q55.314 -33.903 57.638 -42.847 Q59.964 -51.791 62.855 -60.865 Q57.726 -52.967 52.454 -45.294 Q47.181 -37.62 41.726 -30.071 Q39.982 -27.749 40.679 -25.06 Q41.377 -22.371 43.979 -20.944 Z M17.715 -5.642 Q15.879 -5.642 14.312 -6.579 Q12.745 -7.516 11.888 -9.094 Q9.908 -12.713 9.164 -16.916 Q8.422 -21.119 8.422 -25.489 Q8.284 -33.629 11.3 -40.852 Q14.316 -48.074 19.554 -53.362 Q24.793 -58.649 31.996 -61.733 Q39.199 -64.817 47.241 -64.817 Q55.405 -64.817 62.559 -61.715 Q69.713 -58.612 74.951 -53.324 Q80.19 -48.036 83.293 -40.833 Q86.395 -33.629 86.395 -25.565 Q86.395 -21.233 85.603 -17.011 Q84.81 -12.789 82.656 -9.246 Q81.737 -7.592 80.22 -6.618 Q78.703 -5.642 76.928 -5.642 H17.715 Z"/></g><g id="Thin-S" transform="matrix(1 0 0 1 814.015 696)"><path d="M44.169 -21.552 Q46.74 -20.103 49.226 -21.168 Q51.71 -22.234 52.271 -24.905 Q54.213 -33.561 56.596 -42.031 Q58.978 -50.502 62.096 -59.082 Q57.461 -51.374 52.586 -43.966 Q47.712 -36.557 42.522 -29.35 Q41.005 -27.371 41.513 -25.098 Q42.022 -22.826 44.169 -21.552 Z M17.677 -7.615 Q16.372 -7.615 15.26 -8.305 Q14.149 -8.996 13.52 -10.081 Q11.728 -13.471 11.081 -17.391 Q10.432 -21.309 10.432 -25.413 Q10.257 -33.212 13.083 -40.112 Q15.909 -47.012 20.863 -52.015 Q25.817 -57.018 32.679 -59.932 Q39.541 -62.845 47.241 -62.845 Q54.987 -62.845 61.8 -59.894 Q68.612 -56.942 73.566 -51.939 Q78.52 -46.936 81.472 -40.074 Q84.423 -33.212 84.423 -25.565 Q84.423 -21.536 83.725 -17.58 Q83.027 -13.623 80.986 -10.384 Q80.334 -9.148 79.272 -8.381 Q78.21 -7.615 76.928 -7.615 H17.677 Z"/></g><g id="Ultralight-S" transform="matrix(1 0 0 1 517.792 696)"><path d="M44.283 -21.916 Q46.65 -20.535 48.918 -21.521 Q51.186 -22.507 51.68 -24.973 Q53.553 -33.356 55.97 -41.542 Q58.386 -49.728 61.641 -58.012 Q57.301 -50.418 52.666 -43.169 Q48.03 -35.92 43.001 -28.918 Q41.62 -27.143 42.014 -25.121 Q42.409 -23.099 44.283 -21.916 Z M17.654 -8.798 Q16.668 -8.798 15.829 -9.341 Q14.991 -9.883 14.498 -10.672 Q12.821 -13.927 12.229 -17.675 Q11.638 -21.422 11.638 -25.367 Q11.441 -32.962 14.153 -39.668 Q16.865 -46.375 21.648 -51.207 Q26.431 -56.04 33.089 -58.851 Q39.746 -61.661 47.241 -61.661 Q54.737 -61.661 61.345 -58.801 Q67.953 -55.941 72.736 -51.109 Q77.519 -46.276 80.379 -39.619 Q83.24 -32.962 83.24 -25.565 Q83.24 -21.718 82.598 -17.921 Q81.957 -14.124 79.985 -11.067 Q79.492 -10.081 78.703 -9.44 Q77.914 -8.798 76.928 -8.798 H17.654 Z"/></g></g></svg>