<svg xmlns="http://www.w3.org/2000/svg" version="1.1" width="3300" height="2000"><g id="Notes"><style>
    text {
      font-family: monospace;
      text-anchor: middle;
    }
    text.emphasis {
      font-weight:bold;
    }
    text.lanchor {
      text-anchor: start;
    }
  </style><rect height="2200" id="artboard" fill="white" width="3300" x="0" y="0"/><line id="" style="fill:none;stroke:black;stroke-width:0.5;" x1="263" x2="3036" y1="292" y2="292"/><text class="lanchor emphasis" transform="matrix(1 0 0 1 263 322)">Weight/Scale Variations</text><text transform="matrix(1 0 0 1 559.711 322)">Ultralight</text><text transform="matrix(1 0 0 1 856.422 322)">Thin</text><text transform="matrix(1 0 0 1 1153.13 322)">Light</text><text transform="matrix(1 0 0 1 1449.84 322)">Regular</text><text transform="matrix(1 0 0 1 1746.56 322)">Medium</text><text transform="matrix(1 0 0 1 2043.27 322)">Semibold</text><text transform="matrix(1 0 0 1 2339.98 322)">Bold</text><text transform="matrix(1 0 0 1 2636.69 322)">Heavy</text><text transform="matrix(1 0 0 1 2933.4 322)">Black</text><text id="template-version" style="text-anchor: end;" transform="matrix(1 0 0 1 3036 1933)">Template v.1.0</text><text class="lanchor" transform="matrix(1 0 0 1 263 726)">Small</text><text class="lanchor" transform="matrix(1 0 0 1 263 1156)">Medium</text><text class="lanchor" transform="matrix(1 0 0 1 263 1586)">Large</text></g><g id="Guides"><g id="H-reference" style="fill:#27AAE1;stroke:none;" transform="matrix(1 0 0 1 339 696)"><path d="M 54.9316 0 L 57.666 0 L 30.5664 -70.459 L 28.0762 -70.459 L 0.976562 0 L 3.66211 0 L 12.9395 -24.4629 L 45.7031 -24.4629 Z M 29.1992 -67.0898 L 29.4434 -67.0898 L 44.8242 -26.709 L 13.8184 -26.709 Z"/></g><line id="Baseline-S" style="fill:none;stroke:#27AAE1;opacity:1;stroke-width:0.577;" x1="263" x2="3036" y1="696" y2="696"/><line id="Capline-S" style="fill:none;stroke:#27AAE1;opacity:1;stroke-width:0.577;" x1="263" x2="3036" y1="625.541" y2="625.541"/><g id="H-reference" style="fill:#27AAE1;stroke:none;" transform="matrix(1 0 0 1 339 1126)"><path d="M 54.9316 0 L 57.666 0 L 30.5664 -70.459 L 28.0762 -70.459 L 0.976562 0 L 3.66211 0 L 12.9395 -24.4629 L 45.7031 -24.4629 Z M 29.1992 -67.0898 L 29.4434 -67.0898 L 44.8242 -26.709 L 13.8184 -26.709 Z"/></g><line id="Baseline-M" style="fill:none;stroke:#27AAE1;opacity:1;stroke-width:0.577;" x1="263" x2="3036" y1="1126" y2="1126"/><line id="Capline-M" style="fill:none;stroke:#27AAE1;opacity:1;stroke-width:0.577;" x1="263" x2="3036" y1="1055.54" y2="1055.54"/><g id="H-reference" style="fill:#27AAE1;stroke:none;" transform="matrix(1 0 0 1 339 1556)"><path d="M 54.9316 0 L 57.666 0 L 30.5664 -70.459 L 28.0762 -70.459 L 0.976562 0 L 3.66211 0 L 12.9395 -24.4629 L 45.7031 -24.4629 Z M 29.1992 -67.0898 L 29.4434 -67.0898 L 44.8242 -26.709 L 13.8184 -26.709 Z"/></g><line id="Baseline-L" style="fill:none;stroke:#27AAE1;opacity:1;stroke-width:0.577;" x1="263" x2="3036" y1="1556" y2="1556"/><line id="Capline-L" style="fill:none;stroke:#27AAE1;opacity:1;stroke-width:0.577;" x1="263" x2="3036" y1="1485.54" y2="1485.54"/><rect height="119.336" id="left-margin" style="fill:darkred;stroke:none;opacity:0.4;" width="12.4512" x="1394.06" y="1030.79"/><rect height="119.336" id="right-margin" style="fill:darkgreen;stroke:none;opacity:0.4;" width="12.4512" x="1502.5112" y="1030.79"/><rect x="1406.5112" y="1045" width="96" height="96" fill="none" stroke="blue" stroke-dasharray="5"/><rect x="1394.06" y="1030.79" width="120.9024" height="119.336" fill="none" stroke="blue"/></g><g id="Symbols"><g id="Bold-L" transform="matrix(1 0 0 1 2266 1556)"><path d="M30.96 20.401 Q26.877 20.401 23.436 18.466 Q19.995 16.531 18.06 13.145 Q13.545 4.878 11.207 -3.97 Q8.869 -12.816 8.869 -22.232 Q8.869 -36.38 14.19 -48.948 Q19.511 -61.514 28.783 -70.786 Q38.055 -80.057 50.458 -85.54 Q62.862 -91.022 77.078 -91.022 Q82.129 -91.022 87.183 -90.216 Q92.235 -89.41 97.234 -87.797 L87.72 -74.414 Q84.979 -75.059 82.371 -75.381 Q79.764 -75.704 77.078 -75.704 Q54.986 -75.704 39.506 -60.062 Q24.026 -44.421 24.026 -22.169 Q24.026 -14.979 25.881 -8.013 Q27.735 -1.045 31.283 5.244 H123.679 Q127.549 -1.045 129.242 -7.987 Q130.935 -14.927 130.935 -22.098 Q130.935 -34.424 125.614 -45.308 Q120.293 -56.192 110.779 -63.771 L114.971 -79.735 Q129.645 -70.221 137.869 -54.88 Q146.093 -39.539 146.093 -22.169 Q146.093 -12.816 143.832 -3.87 Q141.571 5.076 137.062 13.145 Q134.805 16.531 131.338 18.466 Q127.871 20.401 124.001 20.401 H30.96 Z M70.789 -9.269 Q76.271 -6.527 81.915 -8.543 Q87.559 -10.559 88.688 -16.364 Q92.719 -33.617 97.073 -50.468 Q101.426 -67.319 106.264 -84.411 Q96.428 -69.737 86.349 -55.386 Q76.271 -41.035 65.795 -27.084 Q62.404 -22.54 63.936 -17.114 Q65.468 -11.687 70.789 -9.269 Z"/></g><g id="Semibold-L" transform="matrix(1 0 0 1 1970.27 1556)"><path d="M30.96 18.648 Q27.39 18.648 24.323 16.959 Q21.258 15.269 19.602 12.234 Q15.227 4.176 12.924 -4.46 Q10.622 -13.097 10.622 -22.204 Q10.622 -36.02 15.838 -48.241 Q21.053 -60.462 30.08 -69.523 Q39.106 -78.585 51.19 -83.892 Q63.274 -89.2 77.078 -89.2 Q81.942 -89.2 86.809 -88.428 Q91.674 -87.657 96.463 -86.185 L88.421 -74.975 Q85.54 -75.689 82.757 -76.012 Q79.974 -76.334 77.078 -76.334 Q54.706 -76.334 39.05 -60.519 Q23.396 -44.702 23.396 -22.169 Q23.396 -14.74 25.284 -7.647 Q27.174 -0.555 30.862 5.874 H124.029 Q127.97 -0.555 129.732 -7.632 Q131.496 -14.711 131.496 -22.128 Q131.496 -34.704 126.035 -45.834 Q120.573 -56.963 110.779 -64.613 L114.2 -78.053 Q128.382 -68.749 136.327 -53.909 Q144.27 -39.068 144.27 -22.169 Q144.27 -13.097 142.081 -4.359 Q139.892 4.378 135.45 12.234 Q133.542 15.269 130.463 16.959 Q127.381 18.648 123.932 18.648 H30.96 Z M70.929 -9.549 Q76.412 -6.877 81.984 -8.893 Q87.559 -10.909 88.757 -16.644 Q92.788 -33.408 96.932 -49.767 Q101.076 -66.127 105.493 -82.799 Q95.726 -68.755 85.824 -54.896 Q75.921 -41.035 65.724 -27.435 Q62.334 -22.869 63.971 -17.454 Q65.608 -12.037 70.929 -9.549 Z"/></g><g id="Medium-L" transform="matrix(1 0 0 1 1674.31 1556)"><path d="M30.96 17.334 Q27.775 17.334 24.989 15.828 Q22.204 14.322 20.759 11.55 Q16.489 3.651 14.213 -4.828 Q11.936 -13.306 11.936 -22.183 Q11.936 -35.751 17.073 -47.712 Q22.211 -59.674 31.054 -68.576 Q39.895 -77.481 51.74 -82.657 Q63.584 -87.833 77.078 -87.833 Q81.802 -87.833 86.528 -87.088 Q91.253 -86.343 95.884 -84.976 L88.947 -75.396 Q85.961 -76.163 83.045 -76.486 Q80.132 -76.808 77.078 -76.808 Q54.496 -76.808 38.708 -60.861 Q22.922 -44.911 22.922 -22.169 Q22.922 -14.561 24.837 -7.374 Q26.753 -0.186 30.546 6.348 H124.291 Q128.286 -0.186 130.101 -7.368 Q131.917 -14.548 131.917 -22.151 Q131.917 -34.914 126.351 -46.229 Q120.783 -57.542 110.779 -65.243 L113.622 -76.791 Q127.436 -67.644 135.169 -53.179 Q142.903 -38.715 142.903 -22.169 Q142.903 -13.306 140.766 -4.726 Q138.631 3.854 134.241 11.55 Q132.596 14.322 129.805 15.828 Q127.012 17.334 123.879 17.334 H30.96 Z M71.034 -9.759 Q76.516 -7.14 82.038 -9.156 Q87.559 -11.171 88.81 -16.854 Q92.841 -33.25 96.827 -49.241 Q100.814 -65.234 104.914 -81.589 Q95.2 -68.02 85.429 -54.527 Q75.659 -41.035 65.671 -27.698 Q62.281 -23.117 63.997 -17.709 Q65.713 -12.3 71.034 -9.759 Z"/></g><g id="Regular-L" transform="matrix(1 0 0 1 1378.56 1556)"><path d="M30.96 16.37 Q28.058 16.37 25.477 14.999 Q22.898 13.629 21.608 11.049 Q17.415 3.265 15.158 -5.099 Q12.9 -13.461 12.9 -22.169 Q12.9 -35.552 17.979 -47.324 Q23.059 -59.095 31.766 -67.883 Q40.474 -76.671 52.142 -81.751 Q63.81 -86.83 77.078 -86.83 Q81.701 -86.83 86.322 -86.104 Q90.945 -85.379 95.46 -84.089 L89.332 -75.704 Q86.269 -76.51 83.258 -76.832 Q80.248 -77.155 77.078 -77.155 Q54.341 -77.155 38.458 -61.111 Q22.575 -45.066 22.575 -22.169 Q22.575 -14.429 24.51 -7.172 Q26.445 0.084 30.315 6.695 H124.485 Q128.516 0.084 130.371 -7.172 Q132.225 -14.429 132.225 -22.169 Q132.225 -35.069 126.581 -46.517 Q120.938 -57.966 110.779 -65.706 L113.198 -75.865 Q126.743 -66.835 134.321 -52.645 Q141.9 -38.455 141.9 -22.169 Q141.9 -13.461 139.804 -4.996 Q137.708 3.47 133.354 11.049 Q131.903 13.629 129.322 14.999 Q126.743 16.37 123.84 16.37 H30.96 Z M71.111 -9.914 Q76.594 -7.334 82.076 -9.349 Q87.559 -11.365 88.849 -17.009 Q92.88 -33.134 96.75 -48.856 Q100.62 -64.577 104.49 -80.702 Q94.815 -67.48 85.14 -54.257 Q75.465 -41.035 65.634 -27.89 Q62.242 -23.297 64.016 -17.896 Q65.79 -12.494 71.111 -9.914 Z"/></g><g id="Light-L" transform="matrix(1 0 0 1 1082.77 1556)"><path d="M31.457 13.145 Q29.223 13.145 27.271 12.023 Q25.316 10.9 24.336 8.94 Q20.33 1.732 18.228 -6.144 Q16.125 -14.019 16.125 -22.23 Q16.125 -34.945 20.951 -46.127 Q25.776 -57.31 34.058 -65.643 Q42.339 -73.977 53.433 -78.79 Q64.527 -83.605 77.139 -83.605 Q80.909 -83.605 84.618 -83.071 Q88.325 -82.538 91.987 -81.546 L87.41 -75.146 Q84.768 -75.786 82.297 -76.036 Q79.825 -76.286 77.139 -76.286 Q54.775 -76.286 39.11 -60.512 Q23.444 -44.739 23.444 -22.23 Q23.444 -14.738 25.347 -7.669 Q27.251 -0.598 30.997 5.826 H123.803 Q127.71 -0.598 129.534 -7.669 Q131.356 -14.738 131.356 -22.23 Q131.356 -34.401 126.239 -45.253 Q121.123 -56.105 111.709 -63.721 L113.694 -71.461 Q125.564 -62.865 132.12 -49.917 Q138.675 -36.967 138.675 -22.23 Q138.675 -13.958 136.64 -5.957 Q134.607 2.043 130.625 9.188 Q129.484 11.147 127.507 12.147 Q125.53 13.145 123.343 13.145 H31.457 Z M71.669 -11.154 Q76.47 -8.822 81.33 -10.625 Q86.19 -12.426 87.362 -17.457 Q91.392 -32.7 95.323 -47.616 Q99.256 -62.531 103.311 -77.787 Q94.318 -64.998 85.295 -52.303 Q76.271 -39.608 66.998 -26.959 Q64.103 -22.925 65.598 -18.175 Q67.093 -13.424 71.669 -11.154 Z"/></g><g id="Thin-L" transform="matrix(1 0 0 1 787.282 1556)"><path d="M31.952 9.92 Q30.389 9.92 29.062 9.046 Q27.735 8.17 27.066 6.832 Q23.244 0.198 21.298 -7.19 Q19.35 -14.577 19.35 -22.293 Q19.35 -34.338 23.921 -44.932 Q28.493 -55.527 36.349 -63.405 Q44.207 -71.282 54.725 -75.831 Q65.242 -80.38 77.202 -80.38 Q80.119 -80.38 82.912 -80.038 Q85.704 -79.696 88.513 -79.003 L85.487 -74.588 Q83.266 -75.064 81.335 -75.241 Q79.404 -75.418 77.202 -75.418 Q55.209 -75.418 39.761 -59.914 Q24.312 -44.412 24.312 -22.293 Q24.312 -15.05 26.184 -8.164 Q28.058 -1.28 31.679 4.958 H123.121 Q126.904 -1.28 128.697 -8.164 Q130.488 -15.05 130.488 -22.293 Q130.488 -33.732 125.899 -43.989 Q121.31 -54.245 112.64 -61.736 L114.189 -67.058 Q124.385 -58.897 129.918 -47.187 Q135.45 -35.478 135.45 -22.293 Q135.45 -14.453 133.478 -6.918 Q131.506 0.617 127.895 7.327 Q127.065 8.667 125.691 9.294 Q124.316 9.92 122.848 9.92 H31.952 Z M72.227 -12.394 Q76.345 -10.31 80.583 -11.899 Q84.822 -13.487 85.875 -17.907 Q89.903 -32.266 93.897 -46.376 Q97.892 -60.485 102.133 -74.873 Q93.823 -62.518 85.45 -50.35 Q77.078 -38.182 68.362 -26.029 Q65.964 -22.553 67.18 -18.454 Q68.394 -14.355 72.227 -12.394 Z"/></g><g id="Ultralight-L" transform="matrix(1 0 0 1 491.205 1556)"><path d="M32.25 7.985 Q31.089 7.985 30.138 7.259 Q29.186 6.534 28.703 5.566 Q24.994 -0.722 23.139 -7.817 Q21.285 -14.912 21.285 -22.33 Q21.285 -33.974 25.703 -44.215 Q30.123 -54.456 37.724 -62.06 Q45.326 -69.667 55.499 -74.056 Q65.672 -78.445 77.239 -78.445 Q79.645 -78.445 81.888 -78.218 Q84.132 -77.99 86.43 -77.477 L84.334 -74.252 Q82.365 -74.628 80.759 -74.764 Q79.151 -74.897 77.239 -74.897 Q55.47 -74.897 40.151 -59.556 Q24.832 -44.215 24.832 -22.33 Q24.832 -15.235 26.687 -8.462 Q28.541 -1.69 32.089 4.438 H122.711 Q126.42 -1.69 128.194 -8.462 Q129.968 -15.235 129.968 -22.33 Q129.968 -33.332 125.694 -43.23 Q121.421 -53.129 113.198 -60.546 L114.487 -64.416 Q123.679 -56.515 128.597 -45.55 Q133.515 -34.585 133.515 -22.33 Q133.515 -14.751 131.58 -7.495 Q129.645 -0.239 126.259 6.211 Q125.614 7.179 124.601 7.582 Q123.588 7.985 122.55 7.985 H32.25 Z M72.562 -13.139 Q76.271 -11.204 80.136 -12.663 Q84 -14.122 84.984 -18.176 Q89.01 -32.005 93.041 -45.631 Q97.073 -59.256 101.426 -73.124 Q93.525 -61.03 85.543 -49.178 Q77.561 -37.326 69.181 -25.471 Q67.08 -22.33 68.128 -18.621 Q69.176 -14.912 72.562 -13.139 Z"/></g><g id="Bold-M" transform="matrix(1 0 0 1 2281.8 1126)"><path d="M25.5 9.02 Q21.585 9.02 18.293 7.208 Q15 5.395 13.125 2.145 Q9.5 -4.23 7.625 -11.105 Q5.75 -17.98 5.75 -25.279 Q5.75 -36.496 10 -46.364 Q14.25 -56.23 21.625 -63.605 Q29 -70.98 38.883 -75.23 Q48.764 -79.48 60 -79.48 Q63.334 -79.48 66.666 -79.042 Q70 -78.605 73.25 -77.73 L63.125 -63.48 Q62.375 -63.605 61.562 -63.667 Q60.75 -63.73 60 -63.73 Q44 -63.73 32.75 -52.48 Q21.5 -41.23 21.5 -25.23 Q21.5 -20.406 22.812 -15.756 Q24.125 -11.105 26.5 -6.73 H93.5 Q96 -10.98 97.25 -15.674 Q98.5 -20.366 98.5 -25.175 Q98.5 -32.73 95.625 -39.73 Q92.75 -46.73 87.5 -52.105 L92 -68.98 Q102.5 -61.23 108.375 -49.712 Q114.25 -38.195 114.25 -25.23 Q114.25 -17.98 112.373 -11.045 Q110.495 -4.11 106.875 2.145 Q104.875 5.395 101.562 7.208 Q98.25 9.02 94.5 9.02 H25.5 Z M55.5 -15.48 Q59.625 -13.605 63.812 -15.167 Q68 -16.73 69.125 -20.98 Q72.75 -34.355 76.188 -47.605 Q79.625 -60.855 83 -74.23 Q75.125 -62.855 67.188 -51.73 Q59.25 -40.605 51.25 -29.355 Q48.75 -25.767 50.062 -21.561 Q51.375 -17.355 55.5 -15.48 Z"/></g><g id="Semibold-M" transform="matrix(1 0 0 1 1985.97 1126)"><path d="M25.5 7.173 Q22.091 7.173 19.225 5.631 Q16.359 4.091 14.701 1.221 Q11.239 -4.936 9.419 -11.567 Q7.598 -18.197 7.598 -25.257 Q7.598 -36.109 11.711 -45.654 Q15.826 -55.197 22.929 -62.301 Q30.032 -69.404 39.585 -73.519 Q49.139 -77.632 60 -77.632 Q63.134 -77.632 66.269 -77.222 Q69.403 -76.811 72.489 -76.045 L63.886 -64.077 Q62.919 -64.257 61.943 -64.32 Q60.968 -64.382 60 -64.382 Q43.674 -64.382 32.261 -52.969 Q20.848 -41.556 20.848 -25.23 Q20.848 -20.221 22.215 -15.391 Q23.581 -10.561 26.065 -6.077 H93.88 Q96.489 -10.436 97.794 -15.317 Q99.097 -20.199 99.097 -25.199 Q99.097 -33.056 96.088 -40.274 Q93.076 -47.491 87.5 -52.975 L91.185 -67.241 Q101.196 -59.762 106.771 -48.715 Q112.347 -37.667 112.347 -25.23 Q112.403 -18.197 110.58 -11.506 Q108.759 -4.814 105.245 1.221 Q103.516 4.091 100.639 5.631 Q97.761 7.173 94.446 7.173 H25.5 Z M55.663 -15.806 Q59.734 -13.985 63.866 -15.547 Q68 -17.11 69.179 -21.306 Q72.804 -34.137 76.025 -46.899 Q79.245 -59.66 82.185 -72.6 Q74.31 -61.876 66.59 -51.241 Q58.87 -40.605 51.196 -29.735 Q48.696 -26.131 50.09 -21.906 Q51.484 -17.681 55.663 -15.806 Z"/></g><g id="Medium-M" transform="matrix(1 0 0 1 1689.91 1126)"><path d="M25.5 5.786 Q22.471 5.786 19.925 4.449 Q17.378 3.113 15.884 0.529 Q12.544 -5.466 10.764 -11.914 Q8.984 -18.36 8.984 -25.241 Q8.984 -35.819 12.996 -45.12 Q17.009 -54.422 23.907 -61.322 Q30.808 -68.221 40.112 -72.234 Q49.419 -76.246 60 -76.246 Q62.985 -76.246 65.969 -75.856 Q68.954 -75.466 71.919 -74.781 L64.456 -64.526 Q63.326 -64.746 62.229 -64.809 Q61.13 -64.871 60 -64.871 Q43.429 -64.871 31.894 -53.336 Q20.359 -41.801 20.359 -25.23 Q20.359 -20.082 21.766 -15.117 Q23.174 -10.154 25.739 -5.589 H94.166 Q96.856 -10.029 98.201 -15.051 Q99.546 -20.072 99.546 -25.216 Q99.546 -33.301 96.434 -40.681 Q93.321 -48.061 87.5 -53.626 L90.574 -65.936 Q100.218 -58.662 105.569 -47.966 Q110.921 -37.271 110.921 -25.23 Q111.016 -18.36 109.236 -11.851 Q107.455 -5.342 104.021 0.529 Q102.498 3.113 99.946 4.449 Q97.394 5.786 94.405 5.786 H25.5 Z M55.785 -16.051 Q59.815 -14.271 63.907 -15.834 Q68 -17.396 69.22 -21.551 Q72.845 -33.975 75.903 -46.369 Q78.959 -58.762 81.574 -71.376 Q73.699 -61.142 66.141 -50.874 Q58.584 -40.605 51.155 -30.021 Q48.655 -26.405 50.11 -22.165 Q51.565 -17.926 55.785 -16.051 Z"/></g><g id="Regular-M" transform="matrix(1 0 0 1 1394.06 1126)"><path d="M25.5 4.77 Q22.75 4.77 20.438 3.583 Q18.125 2.395 16.75 0.02 Q13.5 -5.855 11.75 -12.167 Q10 -18.48 10 -25.23 Q10 -35.605 13.938 -44.73 Q17.875 -53.855 24.625 -60.605 Q31.375 -67.355 40.5 -71.292 Q49.625 -75.23 60 -75.23 Q62.875 -75.23 65.75 -74.855 Q68.625 -74.48 71.5 -73.855 L64.875 -64.855 Q63.625 -65.105 62.438 -65.167 Q61.25 -65.23 60 -65.23 Q43.25 -65.23 31.625 -53.605 Q20 -41.98 20 -25.23 Q20 -19.98 21.438 -14.917 Q22.875 -9.855 25.5 -5.23 H94.375 Q97.125 -9.73 98.5 -14.855 Q99.875 -19.98 99.875 -25.23 Q99.875 -33.48 96.688 -40.98 Q93.5 -48.48 87.5 -54.105 L90.125 -64.98 Q99.5 -57.855 104.688 -47.417 Q109.875 -36.98 109.875 -25.23 Q110 -18.48 108.25 -12.105 Q106.5 -5.73 103.125 0.02 Q101.75 2.395 99.438 3.583 Q97.125 4.77 94.375 4.77 H25.5 Z M55.875 -16.23 Q59.875 -14.48 63.938 -16.042 Q68 -17.605 69.25 -21.73 Q72.875 -33.855 75.812 -45.98 Q78.75 -58.105 81.125 -70.48 Q73.25 -60.605 65.812 -50.605 Q58.375 -40.605 51.125 -30.23 Q48.625 -26.605 50.125 -22.355 Q51.625 -18.105 55.875 -16.23 Z"/></g><g id="Light-M" transform="matrix(1 0 0 1 1098.18 1126)"><path d="M25.5 2.27 Q23.414 2.27 21.659 1.323 Q19.904 0.375 18.865 -1.422 Q15.76 -6.912 14.13 -12.912 Q12.5 -18.912 12.5 -25.23 Q12.5 -35.086 16.241 -43.755 Q19.981 -52.424 26.394 -58.836 Q32.806 -65.249 41.475 -68.989 Q50.144 -72.73 60 -72.73 Q62.394 -72.73 64.74 -72.451 Q67.086 -72.172 69.48 -71.691 L64.539 -64.902 Q63.375 -65.121 62.269 -65.175 Q61.164 -65.23 60 -65.23 Q43.25 -65.23 31.625 -53.605 Q20 -41.98 20 -25.23 Q20 -19.98 21.438 -14.917 Q22.875 -9.855 25.5 -5.23 H94.422 Q97.172 -9.73 98.547 -14.855 Q99.922 -19.98 99.922 -25.23 Q99.922 -33.395 96.808 -40.817 Q93.692 -48.24 87.789 -53.865 L89.885 -62.047 Q98.25 -55.259 102.836 -45.639 Q107.422 -36.019 107.422 -25.23 Q107.5 -18.816 105.846 -12.779 Q104.192 -6.74 101.058 -1.23 Q100.019 0.568 98.265 1.419 Q96.51 2.27 94.422 2.27 H25.5 Z M56.115 -16.999 Q59.682 -15.394 63.286 -16.79 Q66.891 -18.187 68 -21.874 Q71.481 -33.422 74.49 -44.946 Q77.5 -56.47 80.164 -68.22 Q72.914 -58.585 65.981 -48.922 Q59.049 -39.259 52.135 -29.316 Q49.924 -26.124 51.182 -22.402 Q52.443 -18.682 56.115 -16.999 Z"/></g><g id="Thin-M" transform="matrix(1 0 0 1 802.565 1126)"><path d="M25.5 -0.23 Q24.076 -0.23 22.88 -0.936 Q21.683 -1.644 20.981 -2.865 Q18.019 -7.97 16.51 -13.657 Q15 -19.345 15 -25.23 Q15 -34.567 18.544 -42.78 Q22.087 -50.992 28.163 -57.067 Q34.237 -63.142 42.45 -66.686 Q50.663 -70.23 60 -70.23 Q61.914 -70.23 63.731 -70.047 Q65.547 -69.865 67.461 -69.527 L64.203 -64.951 Q63.125 -65.137 62.101 -65.184 Q61.078 -65.23 60 -65.23 Q43.25 -65.23 31.625 -53.605 Q20 -41.98 20 -25.23 Q20 -19.98 21.438 -14.917 Q22.875 -9.855 25.5 -5.23 H94.471 Q97.221 -9.73 98.596 -14.855 Q99.971 -19.98 99.971 -25.23 Q99.971 -33.31 96.927 -40.654 Q93.885 -47.999 88.078 -53.624 L89.644 -59.115 Q97 -52.662 100.985 -43.86 Q104.971 -35.057 104.971 -25.23 Q105 -19.152 103.442 -13.451 Q101.885 -7.749 98.99 -2.48 Q98.289 -1.259 97.091 -0.745 Q95.895 -0.23 94.471 -0.23 H25.5 Z M56.356 -17.769 Q59.49 -16.307 62.636 -17.537 Q65.782 -18.769 66.75 -22.019 Q70.086 -32.99 73.169 -43.912 Q76.25 -54.836 79.203 -65.961 Q72.578 -56.566 66.149 -47.24 Q59.721 -37.912 53.144 -28.402 Q51.221 -25.644 52.24 -22.451 Q53.26 -19.259 56.356 -17.769 Z"/></g><g id="Ultralight-M" transform="matrix(1 0 0 1 506.415 1126)"><path d="M25.5 -1.73 Q24.475 -1.73 23.613 -2.292 Q22.75 -2.855 22.25 -3.73 Q19.375 -8.605 17.938 -14.105 Q16.5 -19.605 16.5 -25.23 Q16.5 -34.256 19.925 -42.195 Q23.351 -50.134 29.224 -56.006 Q35.096 -61.879 43.035 -65.304 Q50.974 -68.73 60 -68.73 Q61.625 -68.73 63.125 -68.605 Q64.625 -68.48 66.25 -68.23 L64 -64.98 Q62.974 -65.146 62 -65.189 Q61.026 -65.23 60 -65.23 Q43.25 -65.23 31.625 -53.605 Q20 -41.98 20 -25.23 Q20 -19.98 21.438 -14.917 Q22.875 -9.855 25.5 -5.23 H94.5 Q97.25 -9.73 98.625 -14.855 Q100 -19.98 100 -25.23 Q100 -33.259 97 -40.556 Q94 -47.855 88.25 -53.48 L89.5 -57.355 Q96.25 -51.105 99.875 -42.792 Q103.5 -34.48 103.5 -25.23 Q103.5 -19.355 102 -13.855 Q100.5 -8.355 97.75 -3.23 Q97.25 -2.355 96.388 -2.042 Q95.525 -1.73 94.5 -1.73 H25.5 Z M56.5 -18.23 Q59.375 -16.855 62.246 -17.986 Q65.116 -19.117 66 -22.105 Q69.25 -32.73 72.375 -43.292 Q75.5 -53.855 78.625 -64.605 Q72.375 -55.355 66.25 -46.23 Q60.125 -37.105 53.75 -27.855 Q52 -25.355 52.875 -22.48 Q53.75 -19.605 56.5 -18.23 Z"/></g><g id="Bold-S" transform="matrix(1 0 0 1 2294.23 696)"><path d="M18.936 -3.473 Q16.177 -3.473 13.859 -4.903 Q11.539 -6.333 10.158 -8.601 Q7.791 -12.546 6.953 -16.984 Q6.115 -21.422 6.115 -25.998 Q6.115 -34.552 9.36 -41.997 Q12.605 -49.441 18.24 -55.008 Q23.874 -60.575 31.421 -63.781 Q38.968 -66.987 47.439 -66.987 Q49.748 -66.987 52.057 -66.723 Q54.367 -66.459 56.611 -65.902 L49.115 -55.251 Q48.726 -55.283 48.277 -55.317 Q47.828 -55.349 47.439 -55.349 Q35.104 -55.349 26.429 -46.67 Q17.753 -37.991 17.753 -25.762 Q17.753 -23.034 18.246 -20.404 Q18.739 -17.773 19.626 -15.11 H75.054 Q75.941 -17.773 76.484 -20.401 Q77.026 -23.027 77.026 -25.719 Q77.026 -31.975 74.413 -37.646 Q71.799 -43.317 67.164 -47.558 L70.615 -59.985 Q79.097 -54.166 83.881 -45.177 Q88.664 -36.189 88.664 -25.959 Q88.565 -21.422 87.725 -16.986 Q86.885 -12.55 84.62 -8.601 Q83.141 -6.333 80.805 -4.903 Q78.47 -3.473 75.843 -3.473 H18.936 Z M44.085 -21.028 Q47.143 -19.549 50.148 -20.717 Q53.152 -21.887 53.948 -25.072 Q56.431 -34.737 58.839 -44.303 Q61.246 -53.87 64.008 -63.535 Q58.386 -55.251 52.764 -47.114 Q47.143 -38.978 41.418 -30.905 Q39.647 -28.356 40.436 -25.382 Q41.225 -22.409 44.085 -21.028 Z"/></g><g id="Semibold-S" transform="matrix(1 0 0 1 1998.1 696)"><path d="M18.936 -4.93 Q16.578 -4.93 14.595 -6.146 Q12.611 -7.362 11.402 -9.33 Q9.163 -13.103 8.368 -17.349 Q7.572 -21.594 7.572 -25.981 Q7.572 -34.247 10.711 -41.436 Q13.849 -48.626 19.268 -53.979 Q24.689 -59.331 31.976 -62.431 Q39.264 -65.53 47.439 -65.53 Q49.591 -65.53 51.744 -65.286 Q53.896 -65.043 56.01 -64.573 L49.716 -55.722 Q49.155 -55.798 48.577 -55.831 Q48 -55.864 47.439 -55.864 Q34.846 -55.864 26.042 -47.056 Q17.238 -38.249 17.238 -25.762 Q17.238 -22.888 17.774 -20.116 Q18.31 -17.344 19.283 -14.596 H75.353 Q76.327 -17.344 76.913 -20.12 Q77.498 -22.895 77.498 -25.737 Q77.498 -32.233 74.777 -38.075 Q72.056 -43.918 67.164 -48.245 L69.972 -58.613 Q78.069 -53.008 82.615 -44.39 Q87.163 -35.772 87.163 -25.959 Q87.108 -21.594 86.311 -17.35 Q85.515 -13.105 83.334 -9.33 Q82.069 -7.362 80.077 -6.146 Q78.084 -4.93 75.8 -4.93 H18.936 Z M44.214 -21.285 Q47.229 -19.848 50.19 -21.018 Q53.152 -22.187 53.99 -25.329 Q56.475 -34.565 58.71 -43.746 Q60.946 -52.927 63.365 -62.249 Q57.743 -54.479 52.293 -46.729 Q46.843 -38.978 41.374 -31.206 Q39.605 -28.643 40.458 -25.654 Q41.311 -22.666 44.214 -21.285 Z"/></g><g id="Medium-S" transform="matrix(1 0 0 1 1701.85 696)"><path d="M18.936 -6.024 Q16.878 -6.024 15.146 -7.079 Q13.415 -8.134 12.335 -9.876 Q10.193 -13.522 9.43 -17.622 Q8.666 -21.722 8.666 -25.968 Q8.666 -34.018 11.724 -41.016 Q14.782 -48.016 20.041 -53.207 Q25.299 -58.399 32.392 -61.417 Q39.485 -64.436 47.439 -64.436 Q49.473 -64.436 51.507 -64.209 Q53.542 -63.982 55.56 -63.576 L50.166 -56.076 Q49.476 -56.184 48.803 -56.217 Q48.128 -56.25 47.439 -56.25 Q34.654 -56.25 25.753 -47.346 Q16.852 -38.442 16.852 -25.762 Q16.852 -22.778 17.42 -19.901 Q17.988 -17.023 19.026 -14.21 H75.579 Q76.617 -17.023 77.234 -19.909 Q77.852 -22.795 77.852 -25.751 Q77.852 -32.426 75.051 -38.397 Q72.25 -44.368 67.164 -48.758 L69.49 -57.583 Q77.296 -52.14 81.666 -43.8 Q86.037 -35.46 86.037 -25.959 Q86.014 -21.722 85.25 -17.622 Q84.486 -13.523 82.369 -9.876 Q81.265 -8.134 79.53 -7.079 Q77.795 -6.024 75.768 -6.024 H18.936 Z M44.31 -21.479 Q47.293 -20.074 50.223 -21.243 Q53.152 -22.412 54.023 -25.522 Q56.507 -34.437 58.614 -43.328 Q60.72 -52.219 62.882 -61.284 Q57.261 -53.9 51.939 -46.439 Q46.617 -38.978 41.343 -31.431 Q39.572 -28.859 40.474 -25.859 Q41.375 -22.859 44.31 -21.479 Z"/></g><g id="Regular-S" transform="matrix(1 0 0 1 1405.73 696)"><path d="M18.936 -6.826 Q17.098 -6.826 15.551 -7.763 Q14.005 -8.7 13.019 -10.278 Q10.947 -13.828 10.208 -17.823 Q9.468 -21.817 9.468 -25.959 Q9.468 -33.849 12.467 -40.709 Q15.465 -47.567 20.607 -52.641 Q25.748 -57.715 32.697 -60.674 Q39.647 -63.634 47.439 -63.634 Q49.386 -63.634 51.334 -63.419 Q53.282 -63.204 55.23 -62.845 L50.496 -56.336 Q49.712 -56.467 48.967 -56.5 Q48.223 -56.533 47.439 -56.533 Q34.512 -56.533 25.541 -47.558 Q16.569 -38.583 16.569 -25.762 Q16.569 -22.698 17.161 -19.742 Q17.753 -16.787 18.837 -13.927 H75.744 Q76.829 -16.787 77.47 -19.755 Q78.111 -22.722 78.111 -25.762 Q78.111 -32.567 75.251 -38.633 Q72.391 -44.698 67.164 -49.136 L69.136 -56.829 Q76.73 -51.503 80.971 -43.367 Q85.212 -35.23 85.212 -25.959 Q85.212 -21.817 84.472 -17.823 Q83.733 -13.828 81.662 -10.278 Q80.675 -8.7 79.129 -7.763 Q77.582 -6.826 75.744 -6.826 H18.936 Z M44.381 -21.62 Q47.34 -20.239 50.246 -21.408 Q53.152 -22.577 54.047 -25.663 Q56.53 -34.342 58.543 -43.021 Q60.556 -51.7 62.528 -60.577 Q56.907 -53.476 51.68 -46.227 Q46.452 -38.978 41.319 -31.596 Q39.549 -29.017 40.486 -26.009 Q41.422 -23 44.381 -21.62 Z"/></g><g id="Light-S" transform="matrix(1 0 0 1 1109.75 696)"><path d="M18.936 -8.798 Q17.62 -8.798 16.515 -9.546 Q15.408 -10.294 14.687 -11.416 Q12.731 -14.663 12.086 -18.41 Q11.441 -22.158 11.441 -25.959 Q11.441 -33.44 14.284 -39.939 Q17.128 -46.438 22.002 -51.246 Q26.877 -56.053 33.466 -58.857 Q40.057 -61.661 47.439 -61.661 Q49.007 -61.661 50.537 -61.522 Q52.068 -61.382 53.636 -61.138 L50.231 -56.373 Q49.515 -56.48 48.834 -56.506 Q48.155 -56.533 47.439 -56.533 Q34.512 -56.533 25.541 -47.558 Q16.569 -38.583 16.569 -25.762 Q16.569 -22.698 17.161 -19.742 Q17.753 -16.787 18.837 -13.927 H75.781 Q76.866 -16.787 77.507 -19.755 Q78.148 -22.722 78.148 -25.762 Q78.148 -32.5 75.346 -38.504 Q72.543 -44.509 67.391 -48.947 L68.947 -54.515 Q75.744 -49.455 79.51 -41.963 Q83.277 -34.472 83.277 -25.959 Q83.24 -22.082 82.576 -18.354 Q81.912 -14.625 80.03 -11.264 Q79.309 -10.142 78.204 -9.47 Q77.097 -8.798 75.781 -8.798 H18.936 Z M44.571 -22.226 Q47.188 -20.96 49.733 -21.998 Q52.277 -23.036 53.06 -25.777 Q55.43 -34.001 57.499 -42.206 Q59.57 -50.41 61.77 -58.793 Q56.641 -51.882 51.813 -44.899 Q46.984 -37.916 42.116 -30.875 Q40.573 -28.637 41.32 -26.046 Q42.068 -23.456 44.571 -22.226 Z"/></g><g id="Thin-S" transform="matrix(1 0 0 1 814.015 696)"><path d="M18.936 -10.771 Q18.144 -10.771 17.477 -11.328 Q16.812 -11.886 16.357 -12.554 Q14.513 -15.497 13.963 -18.998 Q13.413 -22.499 13.413 -25.959 Q13.413 -33.031 16.102 -39.17 Q18.789 -45.308 23.398 -49.85 Q28.007 -54.391 34.236 -57.04 Q40.466 -59.689 47.439 -59.689 Q48.628 -59.689 49.742 -59.626 Q50.854 -59.562 52.043 -59.431 L49.965 -56.412 Q49.317 -56.493 48.702 -56.512 Q48.087 -56.533 47.439 -56.533 Q34.512 -56.533 25.541 -47.558 Q16.569 -38.583 16.569 -25.762 Q16.569 -22.698 17.161 -19.742 Q17.753 -16.787 18.837 -13.927 H75.82 Q76.905 -16.787 77.546 -19.755 Q78.187 -22.722 78.187 -25.762 Q78.187 -32.433 75.44 -38.375 Q72.695 -44.318 67.619 -48.756 L68.756 -52.201 Q74.758 -47.406 78.05 -40.56 Q81.343 -33.713 81.343 -25.959 Q81.267 -22.348 80.679 -18.885 Q80.091 -15.421 78.399 -12.25 Q77.944 -11.583 77.278 -11.177 Q76.612 -10.771 75.82 -10.771 H18.936 Z M44.761 -22.834 Q47.036 -21.681 49.22 -22.588 Q51.402 -23.496 52.074 -25.891 Q54.331 -33.66 56.457 -41.39 Q58.583 -49.121 61.011 -57.011 Q56.376 -50.289 51.945 -43.572 Q47.515 -36.853 42.912 -30.155 Q41.597 -28.258 42.154 -26.085 Q42.713 -23.911 44.761 -22.834 Z"/></g><g id="Ultralight-S" transform="matrix(1 0 0 1 517.792 696)"><path d="M18.936 -11.954 Q18.458 -11.954 18.056 -12.398 Q17.654 -12.842 17.358 -13.237 Q15.583 -15.998 15.09 -19.351 Q14.597 -22.705 14.597 -25.959 Q14.597 -32.785 17.191 -38.709 Q19.786 -44.631 24.235 -49.013 Q28.684 -53.394 34.697 -55.95 Q40.711 -58.505 47.439 -58.505 Q48.4 -58.505 49.263 -58.488 Q50.126 -58.47 51.088 -58.407 L49.806 -56.434 Q49.199 -56.5 48.622 -56.516 Q48.045 -56.533 47.439 -56.533 Q34.512 -56.533 25.541 -47.558 Q16.569 -38.583 16.569 -25.762 Q16.569 -22.698 17.161 -19.742 Q17.753 -16.787 18.837 -13.927 H75.843 Q76.928 -16.787 77.569 -19.755 Q78.21 -22.722 78.21 -25.762 Q78.21 -32.393 75.497 -38.298 Q72.785 -44.205 67.755 -48.643 L68.643 -50.813 Q74.166 -46.177 77.174 -39.717 Q80.182 -33.257 80.182 -25.959 Q80.084 -22.507 79.541 -19.203 Q78.999 -15.899 77.421 -12.842 Q77.125 -12.448 76.722 -12.201 Q76.321 -11.954 75.843 -11.954 H18.936 Z M44.874 -23.198 Q46.946 -22.113 48.911 -22.942 Q50.878 -23.771 51.482 -25.959 Q53.67 -33.455 55.831 -40.901 Q57.992 -48.347 60.556 -55.941 Q56.216 -49.333 52.025 -42.775 Q47.833 -36.216 43.39 -29.722 Q42.212 -28.03 42.655 -26.107 Q43.099 -24.184 44.874 -23.198 Z"/></g></g></svg>