<svg xmlns="http://www.w3.org/2000/svg" height="40" viewBox="0 -960 960 960" width="40"><path d="M288.67-194.33V-571h382.66v376.67V-571H288.67v376.67Zm-66 0h66V-571h382.66v376.67h66V-599L480-782.67 222.67-598.79v404.46ZM350.33-445h259.34v-63.33H350.33V-445Zm129.88-168.67q16.88 0 29.5-12.66 12.62-12.67 12.62-30.15 0-17.48-12.62-29.33-12.62-11.86-29.83-11.86t-29.38 11.94q-12.17 11.94-12.17 29.58 0 17.15 12.25 29.82 12.25 12.66 29.63 12.66ZM138.67-110.33v-441.34h-148l489.33-348 489 348H821.33v441.34H609.67V-383H350.33v272.67H138.67Z"/></svg>