<svg xmlns="http://www.w3.org/2000/svg" version="1.1" width="3300" height="2000"><g id="Notes"><style>
    text {
      font-family: monospace;
      text-anchor: middle;
    }
    text.emphasis {
      font-weight:bold;
    }
    text.lanchor {
      text-anchor: start;
    }
  </style><rect height="2200" id="artboard" fill="white" width="3300" x="0" y="0"/><line id="" style="fill:none;stroke:black;stroke-width:0.5;" x1="263" x2="3036" y1="292" y2="292"/><text class="lanchor emphasis" transform="matrix(1 0 0 1 263 322)">Weight/Scale Variations</text><text transform="matrix(1 0 0 1 559.711 322)">Ultralight</text><text transform="matrix(1 0 0 1 856.422 322)">Thin</text><text transform="matrix(1 0 0 1 1153.13 322)">Light</text><text transform="matrix(1 0 0 1 1449.84 322)">Regular</text><text transform="matrix(1 0 0 1 1746.56 322)">Medium</text><text transform="matrix(1 0 0 1 2043.27 322)">Semibold</text><text transform="matrix(1 0 0 1 2339.98 322)">Bold</text><text transform="matrix(1 0 0 1 2636.69 322)">Heavy</text><text transform="matrix(1 0 0 1 2933.4 322)">Black</text><text id="template-version" style="text-anchor: end;" transform="matrix(1 0 0 1 3036 1933)">Template v.1.0</text><text class="lanchor" transform="matrix(1 0 0 1 263 726)">Small</text><text class="lanchor" transform="matrix(1 0 0 1 263 1156)">Medium</text><text class="lanchor" transform="matrix(1 0 0 1 263 1586)">Large</text></g><g id="Guides"><g id="H-reference" style="fill:#27AAE1;stroke:none;" transform="matrix(1 0 0 1 339 696)"><path d="M 54.9316 0 L 57.666 0 L 30.5664 -70.459 L 28.0762 -70.459 L 0.976562 0 L 3.66211 0 L 12.9395 -24.4629 L 45.7031 -24.4629 Z M 29.1992 -67.0898 L 29.4434 -67.0898 L 44.8242 -26.709 L 13.8184 -26.709 Z"/></g><line id="Baseline-S" style="fill:none;stroke:#27AAE1;opacity:1;stroke-width:0.577;" x1="263" x2="3036" y1="696" y2="696"/><line id="Capline-S" style="fill:none;stroke:#27AAE1;opacity:1;stroke-width:0.577;" x1="263" x2="3036" y1="625.541" y2="625.541"/><g id="H-reference" style="fill:#27AAE1;stroke:none;" transform="matrix(1 0 0 1 339 1126)"><path d="M 54.9316 0 L 57.666 0 L 30.5664 -70.459 L 28.0762 -70.459 L 0.976562 0 L 3.66211 0 L 12.9395 -24.4629 L 45.7031 -24.4629 Z M 29.1992 -67.0898 L 29.4434 -67.0898 L 44.8242 -26.709 L 13.8184 -26.709 Z"/></g><line id="Baseline-M" style="fill:none;stroke:#27AAE1;opacity:1;stroke-width:0.577;" x1="263" x2="3036" y1="1126" y2="1126"/><line id="Capline-M" style="fill:none;stroke:#27AAE1;opacity:1;stroke-width:0.577;" x1="263" x2="3036" y1="1055.54" y2="1055.54"/><g id="H-reference" style="fill:#27AAE1;stroke:none;" transform="matrix(1 0 0 1 339 1556)"><path d="M 54.9316 0 L 57.666 0 L 30.5664 -70.459 L 28.0762 -70.459 L 0.976562 0 L 3.66211 0 L 12.9395 -24.4629 L 45.7031 -24.4629 Z M 29.1992 -67.0898 L 29.4434 -67.0898 L 44.8242 -26.709 L 13.8184 -26.709 Z"/></g><line id="Baseline-L" style="fill:none;stroke:#27AAE1;opacity:1;stroke-width:0.577;" x1="263" x2="3036" y1="1556" y2="1556"/><line id="Capline-L" style="fill:none;stroke:#27AAE1;opacity:1;stroke-width:0.577;" x1="263" x2="3036" y1="1485.54" y2="1485.54"/><rect height="119.336" id="left-margin" style="fill:darkred;stroke:none;opacity:0.4;" width="12.4512" x="1394.06" y="1030.79"/><rect height="119.336" id="right-margin" style="fill:darkgreen;stroke:none;opacity:0.4;" width="12.4512" x="1502.5112" y="1030.79"/><rect x="1406.5112" y="1045" width="96" height="96" fill="none" stroke="blue" stroke-dasharray="5"/><rect x="1394.06" y="1030.79" width="120.9024" height="119.336" fill="none" stroke="blue"/></g><g id="Symbols"><g id="Bold-L" transform="matrix(1 0 0 1 2266 1556)"><path d="M77.371 -35.552 Q80.407 -35.552 82.289 -37.288 Q84.172 -39.024 84.172 -41.964 Q84.172 -44.744 82.257 -46.759 Q80.343 -48.775 77.371 -48.775 Q74.498 -48.775 72.643 -46.764 Q70.789 -44.752 70.789 -42.112 Q70.789 -39.063 72.643 -37.307 Q74.498 -35.552 77.371 -35.552 Z M61.275 8.791 H93.847 L107.554 22.498 Q100.943 26.368 93.122 28.303 Q85.301 30.238 77.424 30.238 Q69.384 30.238 61.607 28.414 Q53.832 26.59 47.085 22.659 L61.275 8.791 Z M77.213 -100.859 Q90.792 -100.859 102.802 -95.618 Q114.81 -90.377 123.672 -81.502 Q132.535 -72.627 137.782 -60.693 Q143.029 -48.759 143.029 -35.23 Q143.029 -19.979 136.74 -6.884 Q130.451 6.211 119.486 14.919 L104.168 -0.239 Q111.907 -6.205 116.664 -15.345 Q121.421 -24.484 121.421 -35.23 Q121.421 -53.451 108.518 -66.351 Q95.616 -79.251 77.39 -79.251 Q59.34 -79.251 46.44 -66.367 Q33.54 -53.483 33.54 -35.286 Q33.54 -24.617 38.228 -15.525 Q42.913 -6.434 50.794 -0.4 L35.475 14.758 Q24.455 5.86 18.194 -7.132 Q11.933 -20.124 11.933 -35.23 Q11.933 -48.772 17.065 -60.716 Q22.199 -72.659 31.124 -81.512 Q40.048 -90.365 51.84 -95.612 Q63.632 -100.859 77.213 -100.859 Z M77.548 -66.996 Q90.595 -66.996 99.881 -57.711 Q109.166 -48.425 109.166 -35.378 Q109.166 -22.33 99.881 -12.897 Q90.595 -3.464 77.548 -3.464 Q64.5 -3.464 55.067 -12.897 Q45.634 -22.33 45.634 -35.378 Q45.634 -48.425 55.067 -57.711 Q64.5 -66.996 77.548 -66.996 Z"/></g><g id="Semibold-L" transform="matrix(1 0 0 1 1970.27 1556)"><path d="M77.395 -35.693 Q80.314 -35.693 82.138 -37.439 Q83.963 -39.185 83.963 -42.011 Q83.963 -44.674 82.105 -46.655 Q80.249 -48.635 77.395 -48.635 Q74.638 -48.635 72.783 -46.663 Q70.929 -44.691 70.929 -42.123 Q70.929 -39.226 72.783 -37.458 Q74.638 -35.693 77.395 -35.693 Z M59.032 8.511 H96.09 L108.745 21.166 Q101.854 25.316 93.823 27.461 Q85.791 29.607 77.413 29.607 Q68.944 29.607 60.932 27.572 Q52.919 25.539 45.963 21.327 L59.032 8.511 Z M77.245 -100.157 Q90.722 -100.157 102.59 -95.021 Q114.46 -89.887 123.251 -81.081 Q132.044 -72.277 137.187 -60.474 Q142.327 -48.67 142.327 -35.23 Q142.327 -20.4 136.284 -7.655 Q130.242 5.089 119.696 13.796 L104.729 -1.01 Q112.188 -6.976 116.7 -15.899 Q121.212 -24.823 121.212 -35.23 Q121.212 -53.398 108.392 -66.219 Q95.573 -79.042 77.406 -79.042 Q59.34 -79.042 46.545 -66.229 Q33.75 -53.417 33.75 -35.262 Q33.75 -24.895 38.187 -16.001 Q42.625 -7.105 50.233 -1.101 L35.265 13.706 Q24.689 4.891 18.626 -7.795 Q12.563 -20.48 12.563 -35.23 Q12.563 -48.678 17.673 -60.49 Q22.783 -72.301 31.626 -81.088 Q40.469 -89.874 52.155 -95.017 Q63.839 -100.157 77.245 -100.157 Z M77.519 -66.927 Q90.606 -66.927 99.886 -57.682 Q109.166 -48.436 109.166 -35.349 Q109.166 -22.261 99.886 -12.897 Q90.606 -3.533 77.519 -3.533 Q64.431 -3.533 55.067 -12.897 Q45.703 -22.261 45.703 -35.349 Q45.703 -48.436 55.067 -57.682 Q64.431 -66.927 77.519 -66.927 Z"/></g><g id="Medium-L" transform="matrix(1 0 0 1 1674.31 1556)"><path d="M77.413 -35.798 Q80.243 -35.798 82.025 -37.554 Q83.805 -39.308 83.805 -42.044 Q83.805 -44.621 81.992 -46.576 Q80.178 -48.53 77.413 -48.53 Q74.743 -48.53 72.888 -46.587 Q71.034 -44.644 71.034 -42.131 Q71.034 -39.347 72.888 -37.573 Q74.743 -35.798 77.413 -35.798 Z M57.349 8.301 H97.774 L109.639 20.166 Q102.537 24.528 94.349 26.83 Q86.161 29.133 77.405 29.133 Q68.612 29.133 60.424 26.942 Q52.235 24.75 45.123 20.327 L57.349 8.301 Z M77.271 -99.632 Q90.669 -99.632 102.432 -94.575 Q114.197 -89.518 122.937 -80.767 Q131.677 -72.014 136.738 -60.308 Q141.802 -48.602 141.802 -35.23 Q141.802 -20.714 135.942 -8.234 Q130.084 4.249 119.854 12.956 L105.15 -1.588 Q112.398 -7.555 116.726 -16.315 Q121.054 -25.076 121.054 -35.23 Q121.054 -53.359 108.297 -66.121 Q95.541 -78.884 77.419 -78.884 Q59.34 -78.884 46.624 -66.125 Q33.908 -53.367 33.908 -35.243 Q33.908 -25.107 38.158 -16.357 Q42.407 -7.609 49.812 -1.627 L35.107 12.918 Q24.865 4.163 18.95 -8.293 Q13.037 -20.75 13.037 -35.23 Q13.037 -48.607 18.129 -60.319 Q23.222 -72.03 32.003 -80.769 Q40.785 -89.507 52.39 -94.568 Q63.995 -99.632 77.271 -99.632 Z M77.497 -66.874 Q90.616 -66.874 99.891 -57.66 Q109.166 -48.446 109.166 -35.327 Q109.166 -22.207 99.891 -12.897 Q90.616 -3.586 77.497 -3.586 Q64.377 -3.586 55.067 -12.897 Q45.756 -22.207 45.756 -35.327 Q45.756 -48.446 55.067 -57.66 Q64.377 -66.874 77.497 -66.874 Z"/></g><g id="Regular-L" transform="matrix(1 0 0 1 1378.56 1556)"><path d="M77.426 -35.875 Q80.193 -35.875 81.941 -37.636 Q83.689 -39.397 83.689 -42.07 Q83.689 -44.582 81.909 -46.517 Q80.128 -48.452 77.426 -48.452 Q74.82 -48.452 72.966 -46.532 Q71.111 -44.61 71.111 -42.138 Q71.111 -39.435 72.966 -37.655 Q74.82 -35.875 77.426 -35.875 Z M56.115 8.146 H99.008 L110.295 19.434 Q103.039 23.949 94.734 26.368 Q86.43 28.786 77.4 28.786 Q68.37 28.786 60.053 26.479 Q51.735 24.171 44.505 19.595 L56.115 8.146 Z M77.289 -99.246 Q90.631 -99.246 102.318 -94.247 Q114.004 -89.249 122.705 -80.535 Q131.406 -71.821 136.411 -60.187 Q141.416 -48.552 141.416 -35.23 Q141.416 -20.946 135.692 -8.658 Q129.968 3.631 119.97 12.339 L105.457 -2.012 Q112.553 -7.979 116.745 -16.62 Q120.938 -25.262 120.938 -35.23 Q120.938 -53.33 108.228 -66.05 Q95.516 -78.767 77.429 -78.767 Q59.34 -78.767 46.682 -66.05 Q34.024 -53.33 34.024 -35.23 Q34.024 -25.262 38.136 -16.62 Q42.248 -7.979 49.504 -2.012 L34.991 12.339 Q24.994 3.631 19.189 -8.658 Q13.384 -20.946 13.384 -35.23 Q13.384 -48.557 18.463 -60.195 Q23.543 -71.834 32.279 -80.535 Q41.016 -89.236 52.563 -94.241 Q64.108 -99.246 77.289 -99.246 Z M77.481 -66.835 Q90.623 -66.835 99.894 -57.644 Q109.166 -48.452 109.166 -35.311 Q109.166 -22.169 99.894 -12.897 Q90.623 -3.625 77.481 -3.625 Q64.339 -3.625 55.067 -12.897 Q45.795 -22.169 45.795 -35.311 Q45.795 -48.452 55.067 -57.644 Q64.339 -66.835 77.481 -66.835 Z"/></g><g id="Light-L" transform="matrix(1 0 0 1 1082.77 1556)"><path d="M77.426 -35.999 Q79.945 -35.999 81.599 -37.666 Q83.255 -39.335 83.255 -41.761 Q83.255 -44.149 81.567 -45.929 Q79.88 -47.708 77.426 -47.708 Q74.944 -47.708 73.245 -45.942 Q71.545 -44.176 71.545 -41.828 Q71.545 -39.374 73.245 -37.686 Q74.944 -35.999 77.426 -35.999 Z M57.294 5.728 H97.705 L108.683 16.643 Q101.799 20.972 93.897 23.267 Q85.996 25.561 77.4 25.561 Q68.804 25.561 60.89 23.347 Q52.975 21.133 46.117 16.804 L57.294 5.728 Z M77.289 -96.021 Q89.887 -96.021 100.984 -91.271 Q112.082 -86.52 120.38 -78.21 Q128.678 -69.899 133.434 -58.853 Q138.191 -47.807 138.191 -35.23 Q138.191 -21.132 132.373 -9.185 Q126.555 2.762 116.497 10.975 L102.542 -2.882 Q109.761 -8.413 114.139 -16.868 Q118.519 -25.323 118.519 -35.23 Q118.519 -52.339 106.522 -64.374 Q94.525 -76.41 77.429 -76.41 Q60.332 -76.41 48.419 -64.374 Q36.505 -52.339 36.505 -35.23 Q36.505 -25.323 40.772 -16.868 Q45.039 -8.413 52.419 -2.882 L38.465 10.975 Q28.343 2.762 22.477 -9.185 Q16.609 -21.132 16.609 -35.23 Q16.609 -47.812 21.44 -58.861 Q26.271 -69.912 34.543 -78.21 Q42.815 -86.507 53.772 -91.264 Q64.729 -96.021 77.289 -96.021 Z M77.481 -66.835 Q90.623 -66.835 99.894 -57.644 Q109.166 -48.452 109.166 -35.311 Q109.166 -22.169 99.894 -12.928 Q90.623 -3.686 77.481 -3.686 Q64.339 -3.686 55.098 -12.928 Q45.856 -22.169 45.856 -35.311 Q45.856 -48.452 55.098 -57.644 Q64.339 -66.835 77.481 -66.835 Z"/></g><g id="Thin-L" transform="matrix(1 0 0 1 787.282 1556)"><path d="M77.426 -36.123 Q79.696 -36.123 81.259 -37.699 Q82.821 -39.273 82.821 -41.449 Q82.821 -43.715 81.226 -45.339 Q79.632 -46.964 77.426 -46.964 Q75.068 -46.964 73.524 -45.353 Q71.979 -43.742 71.979 -41.519 Q71.979 -39.311 73.524 -37.718 Q75.068 -36.123 77.426 -36.123 Z M58.472 3.309 H96.403 L107.07 13.851 Q100.559 17.995 93.061 20.166 Q85.562 22.336 77.4 22.336 Q69.238 22.336 61.727 20.216 Q54.215 18.094 47.73 14.013 L58.472 3.309 Z M77.289 -92.796 Q89.142 -92.796 99.651 -88.294 Q110.158 -83.79 118.054 -75.884 Q125.949 -67.977 130.458 -57.52 Q134.966 -47.064 134.966 -35.23 Q134.966 -21.317 129.056 -9.712 Q123.145 1.895 113.023 9.61 L99.628 -3.749 Q106.97 -8.846 111.535 -17.115 Q116.1 -25.384 116.1 -35.23 Q116.1 -51.345 104.816 -62.701 Q93.533 -74.054 77.429 -74.054 Q61.325 -74.054 50.155 -62.701 Q38.985 -51.345 38.985 -35.23 Q38.985 -25.384 43.407 -17.115 Q47.83 -8.846 55.333 -3.749 L41.938 9.61 Q31.692 1.895 25.763 -9.712 Q19.834 -21.317 19.834 -35.23 Q19.834 -47.067 24.416 -57.528 Q29.001 -67.988 36.807 -75.884 Q44.613 -83.779 54.981 -88.288 Q65.35 -92.796 77.289 -92.796 Z M77.481 -66.835 Q90.623 -66.835 99.894 -57.644 Q109.166 -48.452 109.166 -35.311 Q109.166 -22.169 99.894 -12.958 Q90.623 -3.749 77.481 -3.749 Q64.339 -3.749 55.128 -12.958 Q45.919 -22.169 45.919 -35.311 Q45.919 -48.452 55.128 -57.644 Q64.339 -66.835 77.481 -66.835 Z"/></g><g id="Ultralight-L" transform="matrix(1 0 0 1 491.205 1556)"><path d="M77.426 -36.197 Q79.548 -36.197 81.054 -37.716 Q82.56 -39.235 82.56 -41.264 Q82.56 -43.454 81.022 -44.986 Q79.483 -46.517 77.426 -46.517 Q75.142 -46.517 73.691 -45 Q72.24 -43.481 72.24 -41.332 Q72.24 -39.274 73.691 -37.736 Q75.142 -36.197 77.426 -36.197 Z M59.179 1.858 H95.621 L106.103 12.178 Q99.814 16.209 92.558 18.305 Q85.301 20.401 77.4 20.401 Q69.499 20.401 62.23 18.336 Q54.96 16.27 48.697 12.339 L59.179 1.858 Z M77.289 -90.861 Q88.696 -90.861 98.851 -86.507 Q109.005 -82.154 116.658 -74.488 Q124.311 -66.822 128.671 -56.72 Q133.031 -46.617 133.031 -35.23 Q133.031 -21.43 127.065 -10.028 Q121.099 1.374 110.94 8.791 L97.879 -4.27 Q105.296 -9.107 109.972 -17.265 Q114.649 -25.423 114.649 -35.23 Q114.649 -50.75 103.793 -61.696 Q92.936 -72.64 77.429 -72.64 Q61.92 -72.64 51.197 -61.696 Q40.474 -50.75 40.474 -35.23 Q40.474 -25.423 44.989 -17.265 Q49.504 -9.107 57.083 -4.27 L44.021 8.791 Q33.701 1.374 27.735 -10.028 Q21.769 -21.43 21.769 -35.23 Q21.769 -46.622 26.203 -56.728 Q30.637 -66.835 38.165 -74.488 Q45.692 -82.141 55.707 -86.501 Q65.721 -90.861 77.289 -90.861 Z M77.481 -66.835 Q90.623 -66.835 99.894 -57.644 Q109.166 -48.452 109.166 -35.311 Q109.166 -22.169 99.894 -12.977 Q90.623 -3.786 77.481 -3.786 Q64.339 -3.786 55.148 -12.977 Q45.956 -22.169 45.956 -35.311 Q45.956 -48.452 55.148 -57.644 Q64.339 -66.835 77.481 -66.835 Z"/></g><g id="Bold-M" transform="matrix(1 0 0 1 2281.8 1126)"><path d="M60.04 -32.48 Q63.454 -32.48 65.728 -34.69 Q68 -36.901 68 -40.315 Q68 -43.73 65.728 -46.105 Q63.454 -48.48 60.04 -48.48 Q56.625 -48.48 54.188 -46.105 Q51.75 -43.73 51.75 -40.315 Q51.75 -36.901 54.188 -34.69 Q56.625 -32.48 60.04 -32.48 Z M51.625 -0.355 H68.375 L85.375 16.645 Q79.625 19.52 73.25 21.02 Q66.875 22.52 60.081 22.52 Q53.161 22.52 46.758 20.981 Q40.355 19.443 34.625 16.52 L51.625 -0.355 Z M59.946 -92.98 Q71.875 -92.98 82.438 -88.417 Q93 -83.855 100.812 -76.042 Q108.625 -68.23 113.188 -57.704 Q117.75 -47.177 117.75 -35.23 Q117.75 -22.38 112.688 -11.367 Q107.625 -0.355 98.75 7.52 L82.625 -8.605 Q88.25 -13.355 91.562 -20.252 Q94.875 -27.149 94.875 -35.23 Q94.875 -49.699 84.665 -59.902 Q74.456 -70.105 59.977 -70.105 Q45.5 -70.105 35.312 -59.902 Q25.125 -49.699 25.125 -35.23 Q25.125 -27.274 28.446 -20.402 Q31.766 -13.532 37.375 -8.73 L21.25 7.395 Q12.375 -0.605 7.312 -11.582 Q2.25 -22.56 2.25 -35.23 Q2.25 -47.177 6.75 -57.704 Q11.25 -68.23 19.125 -76.042 Q27 -83.855 37.446 -88.417 Q47.894 -92.98 59.946 -92.98 Z M60 -55.73 Q68.5 -55.73 74.5 -49.73 Q80.5 -43.73 80.5 -35.23 Q80.5 -26.73 74.5 -20.73 Q68.5 -14.73 60 -14.73 Q51.5 -14.73 45.5 -20.73 Q39.5 -26.73 39.5 -35.23 Q39.5 -43.73 45.5 -49.73 Q51.5 -55.73 60 -55.73 Z"/></g><g id="Semibold-M" transform="matrix(1 0 0 1 1985.97 1126)"><path d="M60.031 -32.806 Q63.274 -32.806 65.446 -34.944 Q67.62 -37.081 67.62 -40.324 Q67.62 -43.567 65.446 -45.834 Q63.274 -48.1 60.031 -48.1 Q56.788 -48.1 54.459 -45.834 Q52.13 -43.567 52.13 -40.324 Q52.13 -37.081 54.459 -34.944 Q56.788 -32.806 60.031 -32.806 Z M49.398 -0.952 H70.657 L86.136 14.525 Q80.278 17.673 73.713 19.335 Q67.146 20.999 60.072 20.999 Q52.929 20.999 46.343 19.324 Q39.756 17.65 33.919 14.455 L49.398 -0.952 Z M59.959 -91.459 Q71.604 -91.459 81.868 -87.031 Q92.13 -82.605 99.752 -74.982 Q107.375 -67.36 111.801 -57.125 Q116.229 -46.89 116.229 -35.23 Q116.229 -22.977 111.438 -12.427 Q106.646 -1.876 98.315 5.835 L82.896 -9.584 Q88.141 -14.279 91.236 -20.904 Q94.331 -27.529 94.331 -35.23 Q94.331 -49.5 84.297 -59.53 Q74.264 -69.561 59.991 -69.561 Q45.718 -69.561 35.693 -59.53 Q25.669 -49.5 25.669 -35.23 Q25.669 -27.6 28.769 -20.99 Q31.867 -14.379 37.104 -9.654 L21.685 5.765 Q13.354 -2.017 8.562 -12.549 Q3.771 -23.08 3.771 -35.23 Q3.771 -46.89 8.162 -57.125 Q12.554 -67.36 20.212 -74.982 Q27.87 -82.605 38.056 -87.031 Q48.242 -91.459 59.959 -91.459 Z M60 -55.621 Q68.5 -55.621 74.472 -49.676 Q80.446 -43.73 80.446 -35.23 Q80.446 -26.73 74.472 -20.784 Q68.5 -14.839 60 -14.839 Q51.5 -14.839 45.554 -20.784 Q39.609 -26.73 39.609 -35.23 Q39.609 -43.73 45.554 -49.676 Q51.5 -55.621 60 -55.621 Z"/></g><g id="Medium-M" transform="matrix(1 0 0 1 1689.91 1126)"><path d="M60.025 -33.051 Q63.139 -33.051 65.236 -35.134 Q67.334 -37.216 67.334 -40.33 Q67.334 -43.445 65.236 -45.63 Q63.139 -47.814 60.025 -47.814 Q56.91 -47.814 54.663 -45.63 Q52.416 -43.445 52.416 -40.33 Q52.416 -37.216 54.663 -35.134 Q56.91 -33.051 60.025 -33.051 Z M47.725 -1.401 H72.37 L86.706 12.936 Q80.766 16.286 74.059 18.071 Q67.35 19.858 60.066 19.858 Q52.754 19.858 46.031 18.081 Q39.309 16.304 33.389 12.906 L47.725 -1.401 Z M59.968 -90.317 Q71.4 -90.317 81.439 -85.992 Q91.479 -81.667 98.957 -74.187 Q106.438 -66.709 110.763 -56.691 Q115.088 -46.675 115.088 -35.23 Q115.088 -23.426 110.5 -13.222 Q105.912 -3.017 97.989 4.571 L83.1 -10.317 Q88.06 -14.971 90.991 -21.394 Q93.924 -27.815 93.924 -35.23 Q93.924 -49.35 84.022 -59.252 Q74.12 -69.154 60 -69.154 Q45.88 -69.154 35.979 -59.252 Q26.076 -49.35 26.076 -35.23 Q26.076 -27.845 29.01 -21.43 Q31.944 -15.014 36.9 -10.346 L22.011 4.541 Q14.088 -3.077 9.5 -13.274 Q4.912 -23.469 4.912 -35.23 Q4.912 -46.675 9.223 -56.691 Q13.533 -66.709 21.027 -74.187 Q28.521 -81.667 38.513 -85.992 Q48.505 -90.317 59.968 -90.317 Z M60 -55.54 Q68.5 -55.54 74.453 -49.635 Q80.405 -43.73 80.405 -35.23 Q80.405 -26.73 74.453 -20.825 Q68.5 -14.92 60 -14.92 Q51.5 -14.92 45.595 -20.825 Q39.69 -26.73 39.69 -35.23 Q39.69 -43.73 45.595 -49.635 Q51.5 -55.54 60 -55.54 Z"/></g><g id="Regular-M" transform="matrix(1 0 0 1 1394.06 1126)"><path d="M60.02 -33.23 Q63.04 -33.23 65.082 -35.272 Q67.125 -37.315 67.125 -40.335 Q67.125 -43.355 65.082 -45.48 Q63.04 -47.605 60.02 -47.605 Q57 -47.605 54.812 -45.48 Q52.625 -43.355 52.625 -40.335 Q52.625 -37.315 54.812 -35.272 Q57 -33.23 60.02 -33.23 Z M46.5 -1.73 H73.625 L87.125 11.77 Q81.125 15.27 74.312 17.145 Q67.5 19.02 60.062 19.02 Q52.625 19.02 45.803 17.169 Q38.98 15.318 33 11.77 L46.5 -1.73 Z M59.974 -89.48 Q71.25 -89.48 81.125 -85.23 Q91 -80.98 98.375 -73.605 Q105.75 -66.23 110 -56.374 Q114.25 -46.516 114.25 -35.23 Q114.25 -23.755 109.812 -13.805 Q105.375 -3.855 97.75 3.645 L83.25 -10.855 Q88 -15.48 90.812 -21.752 Q93.625 -28.024 93.625 -35.23 Q93.625 -49.24 83.82 -59.047 Q74.015 -68.855 60.008 -68.855 Q46 -68.855 36.188 -59.047 Q26.375 -49.24 26.375 -35.23 Q26.375 -28.024 29.188 -21.752 Q32 -15.48 36.75 -10.855 L22.25 3.645 Q14.625 -3.855 10.188 -13.805 Q5.75 -23.755 5.75 -35.23 Q5.75 -46.516 10 -56.374 Q14.25 -66.23 21.625 -73.605 Q29 -80.98 38.849 -85.23 Q48.696 -89.48 59.974 -89.48 Z M60 -55.48 Q68.5 -55.48 74.438 -49.605 Q80.375 -43.73 80.375 -35.23 Q80.375 -26.73 74.438 -20.855 Q68.5 -14.98 60 -14.98 Q51.5 -14.98 45.625 -20.855 Q39.75 -26.73 39.75 -35.23 Q39.75 -43.73 45.625 -49.605 Q51.5 -55.48 60 -55.48 Z"/></g><g id="Light-M" transform="matrix(1 0 0 1 1098.18 1126)"><path d="M60.02 -33.711 Q62.703 -33.711 64.578 -35.585 Q66.451 -37.46 66.451 -40.142 Q66.451 -42.874 64.578 -44.806 Q62.703 -46.74 60.02 -46.74 Q57.289 -46.74 55.294 -44.806 Q53.299 -42.874 53.299 -40.142 Q53.299 -37.46 55.294 -35.585 Q57.289 -33.711 60.02 -33.711 Z M46.5 -3.076 H73.529 L86.115 9.463 Q80.308 12.818 73.784 14.669 Q67.26 16.52 60.062 16.52 Q52.865 16.52 46.307 14.693 Q39.749 12.866 33.961 9.463 L46.5 -3.076 Z M59.974 -86.98 Q70.672 -86.98 80.091 -82.922 Q89.51 -78.865 96.573 -71.802 Q103.635 -64.74 107.692 -55.34 Q111.75 -45.94 111.75 -35.23 Q111.75 -23.802 107.168 -14.045 Q102.586 -4.287 94.769 2.828 L81.039 -10.902 Q86.125 -15.287 89.177 -21.584 Q92.231 -27.88 92.231 -35.23 Q92.231 -48.664 82.834 -58.086 Q73.438 -67.509 60.008 -67.509 Q46.578 -67.509 37.174 -58.086 Q27.769 -48.664 27.769 -35.23 Q27.769 -27.88 30.823 -21.584 Q33.875 -15.287 38.961 -10.902 L25.231 2.828 Q17.414 -4.287 12.832 -14.045 Q8.25 -23.802 8.25 -35.23 Q8.25 -45.94 12.284 -55.34 Q16.317 -64.74 23.38 -71.802 Q30.442 -78.865 39.834 -82.922 Q49.225 -86.98 59.974 -86.98 Z M60 -56.634 Q68.981 -56.634 75.255 -50.422 Q81.529 -44.211 81.529 -35.23 Q81.529 -26.201 75.255 -20.014 Q68.981 -13.826 60 -13.826 Q50.971 -13.826 44.784 -20.014 Q38.596 -26.201 38.596 -35.23 Q38.596 -44.211 44.784 -50.422 Q50.971 -56.634 60 -56.634 Z"/></g><g id="Thin-M" transform="matrix(1 0 0 1 802.565 1126)"><path d="M60.02 -34.191 Q62.366 -34.191 64.073 -35.897 Q65.779 -37.604 65.779 -39.951 Q65.779 -42.394 64.073 -44.134 Q62.366 -45.874 60.02 -45.874 Q57.578 -45.874 55.774 -44.134 Q53.971 -42.394 53.971 -39.951 Q53.971 -37.604 55.774 -35.897 Q57.578 -34.191 60.02 -34.191 Z M46.5 -4.422 H73.433 L85.106 7.155 Q79.49 10.366 73.255 12.193 Q67.019 14.02 60.062 14.02 Q53.106 14.02 46.811 12.218 Q40.517 10.414 34.922 7.155 L46.5 -4.422 Z M59.974 -84.48 Q70.096 -84.48 79.058 -80.615 Q88.019 -76.749 94.769 -69.999 Q101.519 -63.249 105.385 -54.306 Q109.25 -45.362 109.25 -35.23 Q109.25 -23.851 104.524 -14.286 Q99.797 -4.72 91.789 2.01 L78.828 -10.951 Q84.25 -15.095 87.544 -21.415 Q90.836 -27.735 90.836 -35.23 Q90.836 -48.086 81.849 -57.125 Q72.861 -66.162 60.008 -66.162 Q47.154 -66.162 38.159 -57.125 Q29.164 -48.086 29.164 -35.23 Q29.164 -27.735 32.456 -21.415 Q35.75 -15.095 41.172 -10.951 L28.211 2.01 Q20.203 -4.72 15.476 -14.286 Q10.75 -23.851 10.75 -35.23 Q10.75 -45.362 14.568 -54.306 Q18.385 -63.249 25.135 -69.999 Q31.885 -76.749 40.82 -80.615 Q49.754 -84.48 59.974 -84.48 Z M60 -57.787 Q69.461 -57.787 76.073 -51.24 Q82.683 -44.691 82.683 -35.23 Q82.683 -25.672 76.073 -19.172 Q69.461 -12.672 60 -12.672 Q50.443 -12.672 43.943 -19.172 Q37.443 -25.672 37.443 -35.23 Q37.443 -44.691 43.943 -51.24 Q50.443 -57.787 60 -57.787 Z"/></g><g id="Ultralight-M" transform="matrix(1 0 0 1 506.415 1126)"><path d="M60.02 -34.48 Q62.165 -34.48 63.77 -36.085 Q65.375 -37.69 65.375 -39.835 Q65.375 -42.105 63.77 -43.73 Q62.165 -45.355 60.02 -45.355 Q57.75 -45.355 56.062 -43.73 Q54.375 -42.105 54.375 -39.835 Q54.375 -37.69 56.062 -36.085 Q57.75 -34.48 60.02 -34.48 Z M46.5 -5.23 H73.375 L84.5 5.77 Q79 8.895 72.938 10.708 Q66.875 12.52 60.062 12.52 Q53.25 12.52 47.115 10.731 Q40.98 8.943 35.5 5.77 L46.5 -5.23 Z M59.974 -82.98 Q69.75 -82.98 78.438 -79.23 Q87.125 -75.48 93.688 -68.917 Q100.25 -62.355 104 -53.686 Q107.75 -45.016 107.75 -35.23 Q107.75 -23.88 102.938 -14.43 Q98.125 -4.98 90 1.52 L77.5 -10.98 Q83.125 -14.98 86.562 -21.315 Q90 -27.649 90 -35.23 Q90 -47.74 81.257 -56.547 Q72.515 -65.355 60.008 -65.355 Q47.5 -65.355 38.75 -56.547 Q30 -47.74 30 -35.23 Q30 -27.649 33.438 -21.315 Q36.875 -14.98 42.5 -10.98 L30 1.52 Q21.875 -4.98 17.062 -14.43 Q12.25 -23.88 12.25 -35.23 Q12.25 -45.016 15.938 -53.686 Q19.625 -62.355 26.188 -68.917 Q32.75 -75.48 41.411 -79.23 Q50.071 -82.98 59.974 -82.98 Z M60 -58.48 Q69.75 -58.48 76.562 -51.73 Q83.375 -44.98 83.375 -35.23 Q83.375 -25.355 76.562 -18.667 Q69.75 -11.98 60 -11.98 Q50.125 -11.98 43.438 -18.667 Q36.75 -25.355 36.75 -35.23 Q36.75 -44.98 43.438 -51.73 Q50.125 -58.48 60 -58.48 Z"/></g><g id="Bold-S" transform="matrix(1 0 0 1 2294.23 696)"><path d="M47.351 -33.06 Q49.868 -33.06 51.563 -34.685 Q53.258 -36.31 53.258 -38.827 Q53.258 -41.345 51.584 -43.12 Q49.909 -44.895 47.392 -44.895 Q44.874 -44.895 43.05 -43.141 Q41.225 -41.386 41.225 -38.868 Q41.225 -36.351 43.029 -34.705 Q44.833 -33.06 47.351 -33.06 Z M44.085 -12.448 H50.496 L66.473 3.53 Q62.035 5.699 57.301 6.834 Q52.567 7.968 47.404 7.968 Q42.141 7.968 37.335 6.803 Q32.53 5.638 28.108 3.431 L44.085 -12.448 Z M47.298 -78.428 Q56.118 -78.428 64.043 -75.005 Q71.97 -71.583 77.831 -65.721 Q83.693 -59.86 87.115 -51.962 Q90.538 -44.065 90.538 -35.23 Q90.538 -25.596 86.79 -17.345 Q83.042 -9.094 76.336 -3.275 L62.035 -17.675 Q65.783 -20.732 67.953 -25.296 Q70.122 -29.862 70.122 -35.23 Q70.122 -44.673 63.447 -51.343 Q56.773 -58.012 47.322 -58.012 Q37.872 -58.012 31.215 -51.343 Q24.558 -44.673 24.558 -35.23 Q24.558 -29.96 26.734 -25.416 Q28.91 -20.872 32.645 -17.773 L18.246 -3.374 Q11.539 -9.292 7.841 -17.515 Q4.142 -25.738 4.142 -35.23 Q4.142 -44.065 7.515 -51.962 Q10.888 -59.86 16.8 -65.721 Q22.71 -71.583 30.545 -75.005 Q38.38 -78.428 47.298 -78.428 Z M47.34 -47.459 Q52.419 -47.459 55.994 -43.884 Q59.57 -40.309 59.57 -35.23 Q59.57 -30.151 55.994 -26.576 Q52.419 -23 47.34 -23 Q42.261 -23 38.686 -26.576 Q35.111 -30.151 35.111 -35.23 Q35.111 -40.309 38.686 -43.884 Q42.261 -47.459 47.34 -47.459 Z"/></g><g id="Semibold-S" transform="matrix(1 0 0 1 1998.1 696)"><path d="M47.344 -33.318 Q49.726 -33.318 51.341 -34.885 Q52.958 -36.452 52.958 -38.834 Q52.958 -41.217 51.362 -42.906 Q49.767 -44.595 47.385 -44.595 Q45.003 -44.595 43.264 -42.927 Q41.525 -41.258 41.525 -38.875 Q41.525 -36.493 43.243 -34.906 Q44.961 -33.318 47.344 -33.318 Z M42.328 -12.919 H52.297 L67.074 1.857 Q62.55 4.242 57.666 5.504 Q52.781 6.767 47.397 6.767 Q41.958 6.767 37.008 5.495 Q32.058 4.224 27.551 1.802 L42.328 -12.919 Z M47.307 -77.227 Q55.904 -77.227 63.593 -73.912 Q71.283 -70.597 76.996 -64.886 Q82.707 -59.173 86.022 -51.506 Q89.337 -43.838 89.337 -35.23 Q89.337 -26.068 85.804 -18.182 Q82.27 -10.295 75.993 -4.605 L62.249 -18.447 Q65.697 -21.461 67.695 -25.811 Q69.693 -30.162 69.693 -35.23 Q69.693 -44.517 63.157 -51.049 Q56.622 -57.583 47.333 -57.583 Q38.044 -57.583 31.515 -51.049 Q24.987 -44.517 24.987 -35.23 Q24.987 -30.218 26.989 -25.878 Q28.99 -21.54 32.431 -18.502 L18.589 -4.66 Q12.311 -10.406 8.827 -18.277 Q5.343 -26.149 5.343 -35.23 Q5.343 -43.838 8.63 -51.506 Q11.917 -59.173 17.657 -64.886 Q23.397 -70.597 31.025 -73.912 Q38.655 -77.227 47.307 -77.227 Z M47.34 -47.374 Q52.419 -47.374 55.973 -43.842 Q59.527 -40.309 59.527 -35.23 Q59.527 -30.151 55.973 -26.618 Q52.419 -23.086 47.34 -23.086 Q42.261 -23.086 38.728 -26.618 Q35.196 -30.151 35.196 -35.23 Q35.196 -40.309 38.728 -43.842 Q42.261 -47.374 47.34 -47.374 Z"/></g><g id="Medium-S" transform="matrix(1 0 0 1 1701.85 696)"><path d="M47.339 -33.511 Q49.619 -33.511 51.176 -35.035 Q52.732 -36.558 52.732 -38.839 Q52.732 -41.12 51.196 -42.745 Q49.661 -44.37 47.38 -44.37 Q45.099 -44.37 43.425 -42.766 Q41.751 -41.161 41.751 -38.88 Q41.751 -36.6 43.404 -35.055 Q45.058 -33.511 47.339 -33.511 Z M41.008 -13.273 H53.648 L67.524 0.603 Q62.936 3.148 57.939 4.507 Q52.942 5.867 47.392 5.867 Q41.82 5.867 36.762 4.515 Q31.705 3.162 27.133 0.58 L41.008 -13.273 Z M47.314 -76.327 Q55.743 -76.327 63.255 -73.092 Q70.768 -69.857 76.368 -64.258 Q81.967 -58.658 85.202 -51.163 Q88.437 -43.668 88.437 -35.23 Q88.437 -26.422 85.064 -18.809 Q81.691 -11.195 75.735 -5.602 L62.41 -19.026 Q65.633 -22.007 67.502 -26.197 Q69.372 -30.387 69.372 -35.23 Q69.372 -44.398 62.941 -50.831 Q56.508 -57.262 47.34 -57.262 Q38.172 -57.262 31.74 -50.831 Q25.308 -44.398 25.308 -35.23 Q25.308 -30.41 27.179 -26.226 Q29.05 -22.041 32.27 -19.049 L18.846 -5.626 Q12.89 -11.242 9.567 -18.849 Q6.243 -26.455 6.243 -35.23 Q6.243 -43.668 9.466 -51.163 Q12.689 -58.658 18.3 -64.258 Q23.912 -69.857 31.386 -73.092 Q38.862 -76.327 47.314 -76.327 Z M47.34 -47.31 Q52.419 -47.31 55.957 -43.809 Q59.495 -40.309 59.495 -35.23 Q59.495 -30.151 55.957 -26.651 Q52.419 -23.15 47.34 -23.15 Q42.261 -23.15 38.761 -26.651 Q35.26 -30.151 35.26 -35.23 Q35.26 -40.309 38.761 -43.809 Q42.261 -47.31 47.34 -47.31 Z"/></g><g id="Regular-S" transform="matrix(1 0 0 1 1405.73 696)"><path d="M47.335 -33.652 Q49.541 -33.652 51.054 -35.144 Q52.567 -36.636 52.567 -38.843 Q52.567 -41.049 51.075 -42.627 Q49.583 -44.205 47.376 -44.205 Q45.17 -44.205 43.543 -42.648 Q41.916 -41.09 41.916 -38.884 Q41.916 -36.678 43.522 -35.165 Q45.129 -33.652 47.335 -33.652 Z M40.042 -13.532 H54.638 L67.854 -0.317 Q63.219 2.346 58.139 3.776 Q53.06 5.206 47.389 5.206 Q41.718 5.206 36.582 3.795 Q31.446 2.384 26.826 -0.317 L40.042 -13.532 Z M47.319 -75.666 Q55.625 -75.666 63.008 -72.491 Q70.392 -69.315 75.908 -63.798 Q81.425 -58.282 84.601 -50.912 Q87.776 -43.543 87.776 -35.23 Q87.776 -26.681 84.522 -19.269 Q81.267 -11.856 75.547 -6.333 L62.528 -19.45 Q65.586 -22.409 67.361 -26.48 Q69.136 -30.552 69.136 -35.23 Q69.136 -44.311 62.781 -50.669 Q56.425 -57.026 47.346 -57.026 Q38.267 -57.026 31.905 -50.669 Q25.544 -44.311 25.544 -35.23 Q25.544 -30.552 27.319 -26.48 Q29.094 -22.409 32.152 -19.45 L19.035 -6.333 Q13.314 -11.856 10.109 -19.269 Q6.904 -26.681 6.904 -35.23 Q6.904 -43.543 10.079 -50.912 Q13.255 -58.282 18.772 -63.798 Q24.288 -69.315 31.651 -72.491 Q39.013 -75.666 47.319 -75.666 Z M47.34 -47.262 Q52.419 -47.262 55.945 -43.786 Q59.471 -40.309 59.471 -35.23 Q59.471 -30.151 55.945 -26.674 Q52.419 -23.198 47.34 -23.198 Q42.261 -23.198 38.784 -26.674 Q35.308 -30.151 35.308 -35.23 Q35.308 -40.309 38.784 -43.786 Q42.261 -47.262 47.34 -47.262 Z"/></g><g id="Light-S" transform="matrix(1 0 0 1 1109.75 696)"><path d="M47.335 -34.032 Q49.275 -34.032 50.656 -35.391 Q52.036 -36.751 52.036 -38.691 Q52.036 -40.669 50.676 -42.095 Q49.316 -43.522 47.376 -43.522 Q45.398 -43.522 43.923 -42.117 Q42.447 -40.711 42.447 -38.732 Q42.447 -36.792 43.902 -35.411 Q45.357 -34.032 47.335 -34.032 Z M40.042 -14.595 H54.562 L67.057 -2.137 Q62.574 0.411 57.722 1.822 Q52.871 3.234 47.389 3.234 Q41.908 3.234 36.98 1.841 Q32.052 0.45 27.584 -2.137 L40.042 -14.595 Z M47.319 -73.694 Q55.169 -73.694 62.192 -70.67 Q69.215 -67.646 74.486 -62.376 Q79.756 -57.105 82.78 -50.097 Q85.804 -43.088 85.804 -35.23 Q85.804 -26.719 82.435 -19.458 Q79.067 -12.197 73.195 -6.978 L60.784 -19.487 Q64.106 -22.257 66.071 -26.348 Q68.036 -30.438 68.036 -35.23 Q68.036 -43.857 62.003 -49.91 Q55.97 -55.964 47.346 -55.964 Q38.722 -55.964 32.683 -49.91 Q26.644 -43.857 26.644 -35.23 Q26.644 -30.438 28.609 -26.348 Q30.574 -22.257 33.896 -19.487 L21.387 -6.978 Q15.515 -12.197 12.196 -19.458 Q8.876 -26.719 8.876 -35.23 Q8.876 -43.088 11.881 -50.097 Q14.886 -57.105 20.157 -62.376 Q25.427 -67.646 32.429 -70.67 Q39.43 -73.694 47.319 -73.694 Z M47.34 -48.173 Q52.799 -48.173 56.59 -44.431 Q60.381 -40.689 60.381 -35.23 Q60.381 -29.734 56.59 -26.011 Q52.799 -22.287 47.34 -22.287 Q41.844 -22.287 38.121 -26.011 Q34.397 -29.734 34.397 -35.23 Q34.397 -40.689 38.121 -44.431 Q41.844 -48.173 47.34 -48.173 Z"/></g><g id="Thin-S" transform="matrix(1 0 0 1 814.015 696)"><path d="M47.335 -34.41 Q49.01 -34.41 50.257 -35.637 Q51.505 -36.864 51.505 -38.539 Q51.505 -40.29 50.278 -41.565 Q49.051 -42.839 47.376 -42.839 Q45.626 -42.839 44.301 -41.585 Q42.978 -40.332 42.978 -38.581 Q42.978 -36.906 44.281 -35.658 Q45.583 -34.41 47.335 -34.41 Z M40.042 -15.657 H54.486 L66.261 -3.958 Q61.929 -1.523 57.305 -0.131 Q52.681 1.261 47.389 1.261 Q42.098 1.261 37.378 -0.112 Q32.659 -1.485 28.343 -3.958 L40.042 -15.657 Z M47.319 -71.721 Q54.714 -71.721 61.376 -68.849 Q68.039 -65.976 73.063 -60.953 Q78.086 -55.929 80.959 -49.281 Q83.831 -42.633 83.831 -35.23 Q83.831 -26.757 80.349 -19.648 Q76.866 -12.538 70.843 -7.623 L59.039 -19.526 Q62.627 -22.105 64.782 -26.215 Q66.936 -30.324 66.936 -35.23 Q66.936 -43.401 61.225 -49.152 Q55.515 -54.902 47.346 -54.902 Q39.177 -54.902 33.461 -49.152 Q27.744 -43.401 27.744 -35.23 Q27.744 -30.324 29.898 -26.215 Q32.053 -22.105 35.641 -19.526 L23.738 -7.623 Q17.715 -12.538 14.282 -19.648 Q10.849 -26.757 10.849 -35.23 Q10.849 -42.633 13.683 -49.281 Q16.518 -55.929 21.541 -60.953 Q26.565 -65.976 33.206 -68.849 Q39.847 -71.721 47.319 -71.721 Z M47.34 -49.083 Q53.178 -49.083 57.235 -45.076 Q61.291 -41.068 61.291 -35.23 Q61.291 -29.316 57.235 -25.347 Q53.178 -21.377 47.34 -21.377 Q41.426 -21.377 37.457 -25.347 Q33.487 -29.316 33.487 -35.23 Q33.487 -41.068 37.457 -45.076 Q41.426 -49.083 47.34 -49.083 Z"/></g><g id="Ultralight-S" transform="matrix(1 0 0 1 517.792 696)"><path d="M47.335 -34.638 Q48.851 -34.638 50.019 -35.785 Q51.186 -36.932 51.186 -38.448 Q51.186 -40.063 50.039 -41.246 Q48.892 -42.43 47.376 -42.43 Q45.762 -42.43 44.529 -41.267 Q43.296 -40.104 43.296 -38.49 Q43.296 -36.974 44.508 -35.806 Q45.721 -34.638 47.335 -34.638 Z M40.042 -16.294 H54.441 L65.783 -5.051 Q61.542 -2.684 57.055 -1.303 Q52.567 0.078 47.389 0.078 Q42.212 0.078 37.618 -1.284 Q33.024 -2.646 28.799 -5.051 L40.042 -16.294 Z M47.319 -70.538 Q54.441 -70.538 60.887 -67.757 Q67.334 -64.975 72.209 -60.099 Q77.085 -55.224 79.867 -48.792 Q82.648 -42.36 82.648 -35.23 Q82.648 -26.78 79.097 -19.762 Q75.547 -12.743 69.432 -8.009 L57.992 -19.549 Q61.739 -22.014 64.008 -26.135 Q66.276 -30.256 66.276 -35.23 Q66.276 -43.128 60.759 -48.696 Q55.242 -54.265 47.346 -54.265 Q39.45 -54.265 33.927 -48.696 Q28.404 -43.128 28.404 -35.23 Q28.404 -30.256 30.672 -26.135 Q32.941 -22.014 36.689 -19.549 L25.149 -8.009 Q19.035 -12.743 15.533 -19.762 Q12.032 -26.78 12.032 -35.23 Q12.032 -42.36 14.764 -48.792 Q17.496 -55.224 22.372 -60.099 Q27.247 -64.975 33.673 -67.757 Q40.098 -70.538 47.319 -70.538 Z M47.34 -49.629 Q53.405 -49.629 57.622 -45.462 Q61.838 -41.295 61.838 -35.23 Q61.838 -29.066 57.622 -24.948 Q53.405 -20.831 47.34 -20.831 Q41.176 -20.831 37.058 -24.948 Q32.941 -29.066 32.941 -35.23 Q32.941 -41.295 37.058 -45.462 Q41.176 -49.629 47.34 -49.629 Z"/></g></g></svg>