<svg xmlns="http://www.w3.org/2000/svg" version="1.1" width="3300" height="2000"><g id="Notes"><style>
    text {
      font-family: monospace;
      text-anchor: middle;
    }
    text.emphasis {
      font-weight:bold;
    }
    text.lanchor {
      text-anchor: start;
    }
  </style><rect height="2200" id="artboard" fill="white" width="3300" x="0" y="0"/><line id="" style="fill:none;stroke:black;stroke-width:0.5;" x1="263" x2="3036" y1="292" y2="292"/><text class="lanchor emphasis" transform="matrix(1 0 0 1 263 322)">Weight/Scale Variations</text><text transform="matrix(1 0 0 1 559.711 322)">Ultralight</text><text transform="matrix(1 0 0 1 856.422 322)">Thin</text><text transform="matrix(1 0 0 1 1153.13 322)">Light</text><text transform="matrix(1 0 0 1 1449.84 322)">Regular</text><text transform="matrix(1 0 0 1 1746.56 322)">Medium</text><text transform="matrix(1 0 0 1 2043.27 322)">Semibold</text><text transform="matrix(1 0 0 1 2339.98 322)">Bold</text><text transform="matrix(1 0 0 1 2636.69 322)">Heavy</text><text transform="matrix(1 0 0 1 2933.4 322)">Black</text><text id="template-version" style="text-anchor: end;" transform="matrix(1 0 0 1 3036 1933)">Template v.1.0</text><text class="lanchor" transform="matrix(1 0 0 1 263 726)">Small</text><text class="lanchor" transform="matrix(1 0 0 1 263 1156)">Medium</text><text class="lanchor" transform="matrix(1 0 0 1 263 1586)">Large</text></g><g id="Guides"><g id="H-reference" style="fill:#27AAE1;stroke:none;" transform="matrix(1 0 0 1 339 696)"><path d="M 54.9316 0 L 57.666 0 L 30.5664 -70.459 L 28.0762 -70.459 L 0.976562 0 L 3.66211 0 L 12.9395 -24.4629 L 45.7031 -24.4629 Z M 29.1992 -67.0898 L 29.4434 -67.0898 L 44.8242 -26.709 L 13.8184 -26.709 Z"/></g><line id="Baseline-S" style="fill:none;stroke:#27AAE1;opacity:1;stroke-width:0.577;" x1="263" x2="3036" y1="696" y2="696"/><line id="Capline-S" style="fill:none;stroke:#27AAE1;opacity:1;stroke-width:0.577;" x1="263" x2="3036" y1="625.541" y2="625.541"/><g id="H-reference" style="fill:#27AAE1;stroke:none;" transform="matrix(1 0 0 1 339 1126)"><path d="M 54.9316 0 L 57.666 0 L 30.5664 -70.459 L 28.0762 -70.459 L 0.976562 0 L 3.66211 0 L 12.9395 -24.4629 L 45.7031 -24.4629 Z M 29.1992 -67.0898 L 29.4434 -67.0898 L 44.8242 -26.709 L 13.8184 -26.709 Z"/></g><line id="Baseline-M" style="fill:none;stroke:#27AAE1;opacity:1;stroke-width:0.577;" x1="263" x2="3036" y1="1126" y2="1126"/><line id="Capline-M" style="fill:none;stroke:#27AAE1;opacity:1;stroke-width:0.577;" x1="263" x2="3036" y1="1055.54" y2="1055.54"/><g id="H-reference" style="fill:#27AAE1;stroke:none;" transform="matrix(1 0 0 1 339 1556)"><path d="M 54.9316 0 L 57.666 0 L 30.5664 -70.459 L 28.0762 -70.459 L 0.976562 0 L 3.66211 0 L 12.9395 -24.4629 L 45.7031 -24.4629 Z M 29.1992 -67.0898 L 29.4434 -67.0898 L 44.8242 -26.709 L 13.8184 -26.709 Z"/></g><line id="Baseline-L" style="fill:none;stroke:#27AAE1;opacity:1;stroke-width:0.577;" x1="263" x2="3036" y1="1556" y2="1556"/><line id="Capline-L" style="fill:none;stroke:#27AAE1;opacity:1;stroke-width:0.577;" x1="263" x2="3036" y1="1485.54" y2="1485.54"/><rect height="119.336" id="left-margin" style="fill:darkred;stroke:none;opacity:0.4;" width="12.4512" x="1394.06" y="1030.79"/><rect height="119.336" id="right-margin" style="fill:darkgreen;stroke:none;opacity:0.4;" width="12.4512" x="1502.5112" y="1030.79"/><rect x="1406.5112" y="1045" width="96" height="96" fill="none" stroke="blue" stroke-dasharray="5"/><rect x="1394.06" y="1030.79" width="120.9024" height="119.336" fill="none" stroke="blue"/></g><g id="Symbols"><g id="Bold-L" transform="matrix(1 0 0 1 2266 1556)"><path d="M77.347 -35.23 Q80.356 -35.23 82.346 -37.139 Q84.334 -39.048 84.334 -42.057 Q84.334 -44.905 82.346 -47.001 Q80.356 -49.097 77.347 -49.097 Q74.498 -49.097 72.401 -46.992 Q70.305 -44.886 70.305 -42.138 Q70.305 -39.048 72.401 -37.139 Q74.498 -35.23 77.347 -35.23 Z M61.114 9.275 H93.847 L108.36 23.788 Q101.426 27.658 93.606 29.673 Q85.785 31.689 77.424 31.689 Q69.062 31.689 61.219 29.754 Q53.374 27.819 46.279 23.949 L61.114 9.275 Z M77.323 -102.31 Q91.267 -102.31 103.442 -96.989 Q115.616 -91.667 124.727 -82.557 Q133.838 -73.446 139.159 -61.294 Q144.48 -49.144 144.48 -35.23 Q144.48 -19.75 138.03 -6.527 Q131.58 6.695 120.615 15.886 L104.651 0.084 Q112.553 -6.044 117.229 -15.25 Q121.905 -24.457 121.905 -35.23 Q121.905 -53.733 108.894 -66.735 Q95.881 -79.735 77.361 -79.735 Q59.017 -79.735 45.956 -66.751 Q32.895 -53.766 32.895 -35.286 Q32.895 -24.426 37.583 -15.349 Q42.268 -6.273 50.149 -0.077 L34.346 15.725 Q23.326 6.505 16.904 -6.695 Q10.481 -19.895 10.481 -35.23 Q10.481 -49.151 15.694 -61.309 Q20.909 -73.466 30.046 -82.567 Q39.184 -91.667 51.361 -96.989 Q63.541 -102.31 77.323 -102.31 Z M77.468 -66.996 Q90.756 -66.996 99.962 -57.792 Q109.166 -48.586 109.166 -35.298 Q109.166 -22.007 99.962 -12.736 Q90.756 -3.464 77.468 -3.464 Q64.177 -3.464 54.906 -12.736 Q45.634 -22.007 45.634 -35.298 Q45.634 -48.586 54.906 -57.792 Q64.177 -66.996 77.468 -66.996 Z"/></g><g id="Semibold-L" transform="matrix(1 0 0 1 1970.27 1556)"><path d="M77.369 -36.072 Q79.982 -36.072 81.702 -37.747 Q83.423 -39.422 83.423 -42.033 Q83.423 -44.484 81.702 -46.3 Q79.982 -48.115 77.369 -48.115 Q74.918 -48.115 73.103 -46.295 Q71.287 -44.473 71.287 -42.08 Q71.287 -39.422 73.103 -37.747 Q74.918 -36.072 77.369 -36.072 Z M59.08 7.803 H95.881 L107.799 19.721 Q101.005 23.662 93.361 25.747 Q85.716 27.833 77.413 27.833 Q69.112 27.833 61.452 25.827 Q53.795 23.823 46.909 19.882 L59.08 7.803 Z M77.356 -98.384 Q90.497 -98.384 101.97 -93.378 Q113.443 -88.373 121.992 -79.822 Q130.543 -71.273 135.548 -59.813 Q140.554 -48.353 140.554 -35.23 Q140.554 -20.732 134.524 -8.316 Q128.495 4.1 118.232 12.802 L103.95 -1.319 Q111.57 -7.235 116.002 -16.085 Q120.433 -24.934 120.433 -35.23 Q120.433 -53.121 107.855 -65.692 Q95.278 -78.263 77.379 -78.263 Q59.579 -78.263 46.972 -65.701 Q34.367 -53.138 34.367 -35.262 Q34.367 -24.916 38.805 -16.141 Q43.241 -7.364 50.85 -1.409 L36.73 12.711 Q26.435 3.994 20.385 -8.409 Q14.337 -20.813 14.337 -35.23 Q14.337 -48.356 19.282 -59.821 Q24.228 -71.284 32.827 -79.829 Q41.427 -88.373 52.903 -93.378 Q64.377 -98.384 77.356 -98.384 Z M77.439 -66.856 Q90.629 -66.856 99.827 -57.657 Q109.026 -48.459 109.026 -35.269 Q109.026 -22.077 99.827 -12.84 Q90.629 -3.604 77.439 -3.604 Q64.247 -3.604 55.01 -12.84 Q45.774 -22.077 45.774 -35.269 Q45.774 -48.459 55.01 -57.657 Q64.247 -66.856 77.439 -66.856 Z"/></g><g id="Medium-L" transform="matrix(1 0 0 1 1674.31 1556)"><path d="M77.387 -36.702 Q79.703 -36.702 81.22 -38.202 Q82.739 -39.701 82.739 -42.015 Q82.739 -44.168 81.22 -45.774 Q79.703 -47.38 77.387 -47.38 Q75.234 -47.38 73.628 -45.773 Q72.022 -44.163 72.022 -42.035 Q72.022 -39.701 73.628 -38.202 Q75.234 -36.702 77.387 -36.702 Z M57.555 6.698 H97.406 L107.378 16.672 Q100.689 20.664 93.177 22.802 Q85.662 24.94 77.405 24.94 Q69.149 24.94 61.63 22.883 Q54.111 20.825 47.383 16.833 L57.555 6.698 Z M77.382 -95.439 Q89.918 -95.439 100.865 -90.671 Q111.812 -85.901 119.943 -77.773 Q128.071 -69.642 132.841 -58.702 Q137.609 -47.759 137.609 -35.23 Q137.609 -21.467 131.896 -9.656 Q126.181 2.156 116.443 10.488 L103.424 -2.37 Q110.835 -8.129 115.081 -16.71 Q119.328 -25.292 119.328 -35.23 Q119.328 -52.66 107.076 -64.91 Q94.825 -77.158 77.39 -77.158 Q60 -77.158 47.735 -64.913 Q35.472 -52.668 35.472 -35.243 Q35.472 -25.286 39.721 -16.735 Q43.97 -8.184 51.376 -2.409 L38.518 10.449 Q28.767 2.111 22.997 -9.696 Q17.23 -21.503 17.23 -35.23 Q17.23 -47.761 21.972 -58.705 Q26.716 -69.647 34.912 -77.774 Q43.11 -85.901 54.057 -90.671 Q65.006 -95.439 77.382 -95.439 Z M77.416 -66.751 Q90.532 -66.751 99.727 -57.557 Q108.921 -48.362 108.921 -35.246 Q108.921 -22.13 99.727 -12.919 Q90.532 -3.709 77.416 -3.709 Q64.3 -3.709 55.089 -12.919 Q45.879 -22.13 45.879 -35.246 Q45.879 -48.362 55.089 -57.557 Q64.3 -66.751 77.416 -66.751 Z"/></g><g id="Regular-L" transform="matrix(1 0 0 1 1378.56 1556)"><path d="M77.4 -37.165 Q79.496 -37.165 80.867 -38.536 Q82.237 -39.906 82.237 -42.002 Q82.237 -43.937 80.867 -45.389 Q79.496 -46.84 77.4 -46.84 Q75.465 -46.84 74.014 -45.389 Q72.562 -43.937 72.562 -42.002 Q72.562 -39.906 74.014 -38.536 Q75.465 -37.165 77.4 -37.165 Z M56.438 5.889 H98.524 L107.07 14.435 Q100.459 18.466 93.041 20.643 Q85.624 22.82 77.4 22.82 Q69.176 22.82 61.759 20.724 Q54.341 18.628 47.73 14.596 L56.438 5.889 Z M77.4 -93.28 Q89.494 -93.28 100.056 -88.684 Q110.618 -84.089 118.438 -76.268 Q126.259 -68.447 130.854 -57.886 Q135.45 -47.324 135.45 -35.23 Q135.45 -22.007 129.968 -10.639 Q124.485 0.729 115.133 8.791 L103.039 -3.141 Q110.295 -8.785 114.407 -17.17 Q118.519 -25.555 118.519 -35.23 Q118.519 -52.322 106.506 -64.336 Q94.493 -76.349 77.4 -76.349 Q60.308 -76.349 48.294 -64.336 Q36.281 -52.322 36.281 -35.23 Q36.281 -25.555 40.393 -17.17 Q44.505 -8.785 51.761 -3.141 L39.829 8.791 Q30.476 0.729 24.913 -10.639 Q19.35 -22.007 19.35 -35.23 Q19.35 -47.324 23.946 -57.886 Q28.541 -68.447 36.443 -76.268 Q44.344 -84.089 54.906 -88.684 Q65.468 -93.28 77.4 -93.28 Z M77.4 -66.674 Q90.461 -66.674 99.653 -57.482 Q108.844 -48.291 108.844 -35.23 Q108.844 -22.169 99.653 -12.977 Q90.461 -3.786 77.4 -3.786 Q64.339 -3.786 55.148 -12.977 Q45.956 -22.169 45.956 -35.23 Q45.956 -48.291 55.148 -57.482 Q64.339 -66.674 77.4 -66.674 Z"/></g><g id="Light-L" transform="matrix(1 0 0 1 1082.77 1556)"><path d="M77.4 -37.289 Q79.248 -37.289 80.525 -38.566 Q81.804 -39.845 81.804 -41.693 Q81.804 -43.504 80.525 -44.8 Q79.248 -46.095 77.4 -46.095 Q75.589 -46.095 74.293 -44.8 Q72.996 -43.504 72.996 -41.693 Q72.996 -39.845 74.293 -38.566 Q75.589 -37.289 77.4 -37.289 Z M57.616 3.47 H97.221 L105.457 11.644 Q99.219 15.49 92.204 17.542 Q85.19 19.595 77.4 19.595 Q69.61 19.595 62.596 17.592 Q55.581 15.588 49.343 11.805 L57.616 3.47 Z M77.4 -90.055 Q88.749 -90.055 98.722 -85.708 Q108.695 -81.36 116.113 -73.943 Q123.53 -66.525 127.878 -56.552 Q132.225 -46.579 132.225 -35.23 Q132.225 -22.193 126.649 -11.167 Q121.073 -0.14 111.659 7.427 L100.123 -4.01 Q107.504 -9.219 111.801 -17.418 Q116.1 -25.616 116.1 -35.23 Q116.1 -51.331 104.8 -62.66 Q93.501 -73.991 77.4 -73.991 Q61.299 -73.991 50.031 -62.66 Q38.763 -51.331 38.763 -35.23 Q38.763 -25.616 43.03 -17.418 Q47.296 -9.219 54.677 -4.01 L43.302 7.427 Q33.825 -0.14 28.201 -11.167 Q22.575 -22.193 22.575 -35.23 Q22.575 -46.579 26.922 -56.552 Q31.27 -66.525 38.706 -73.943 Q46.142 -81.36 56.115 -85.708 Q66.088 -90.055 77.4 -90.055 Z M77.4 -66.674 Q90.461 -66.674 99.653 -57.482 Q108.844 -48.291 108.844 -35.23 Q108.844 -22.169 99.653 -13.008 Q90.461 -3.848 77.4 -3.848 Q64.339 -3.848 55.178 -13.008 Q46.018 -22.169 46.018 -35.23 Q46.018 -48.291 55.178 -57.482 Q64.339 -66.674 77.4 -66.674 Z"/></g><g id="Thin-L" transform="matrix(1 0 0 1 787.282 1556)"><path d="M77.4 -37.413 Q79 -37.413 80.185 -38.597 Q81.37 -39.782 81.37 -41.382 Q81.37 -43.07 80.185 -44.21 Q79 -45.352 77.4 -45.352 Q75.713 -45.352 74.572 -44.21 Q73.43 -43.07 73.43 -41.382 Q73.43 -39.782 74.572 -38.597 Q75.713 -37.413 77.4 -37.413 Z M58.795 1.051 H95.92 L103.845 8.853 Q97.979 12.513 91.367 14.441 Q84.756 16.37 77.4 16.37 Q70.044 16.37 63.433 14.459 Q56.821 12.55 50.955 9.014 L58.795 1.051 Z M77.4 -86.83 Q88.005 -86.83 97.389 -82.731 Q106.772 -78.63 113.786 -71.616 Q120.8 -64.602 124.901 -55.219 Q129 -45.835 129 -35.23 Q129 -22.38 123.332 -11.694 Q117.663 -1.008 108.186 6.063 L97.21 -4.878 Q104.713 -9.653 109.197 -17.667 Q113.681 -25.679 113.681 -35.23 Q113.681 -50.338 103.095 -60.986 Q92.508 -71.635 77.4 -71.635 Q62.292 -71.635 51.768 -60.986 Q41.243 -50.338 41.243 -35.23 Q41.243 -25.679 45.664 -17.667 Q50.087 -9.653 57.59 -4.878 L46.775 6.063 Q37.175 -1.008 31.487 -11.694 Q25.8 -22.38 25.8 -35.23 Q25.8 -45.835 29.899 -55.219 Q34 -64.602 40.97 -71.616 Q47.941 -78.63 57.324 -82.731 Q66.708 -86.83 77.4 -86.83 Z M77.4 -66.674 Q90.461 -66.674 99.653 -57.482 Q108.844 -48.291 108.844 -35.23 Q108.844 -22.169 99.653 -13.039 Q90.461 -3.91 77.4 -3.91 Q64.339 -3.91 55.209 -13.039 Q46.08 -22.169 46.08 -35.23 Q46.08 -48.291 55.209 -57.482 Q64.339 -66.674 77.4 -66.674 Z"/></g><g id="Ultralight-L" transform="matrix(1 0 0 1 491.205 1556)"><path d="M77.4 -37.487 Q78.851 -37.487 79.98 -38.616 Q81.109 -39.745 81.109 -41.196 Q81.109 -42.809 79.98 -43.857 Q78.851 -44.905 77.4 -44.905 Q75.788 -44.905 74.739 -43.857 Q73.691 -42.809 73.691 -41.196 Q73.691 -39.745 74.739 -38.616 Q75.788 -37.487 77.4 -37.487 Z M59.501 -0.4 H95.138 L102.877 7.179 Q97.234 10.726 90.864 12.581 Q84.495 14.435 77.4 14.435 Q70.305 14.435 63.936 12.581 Q57.566 10.726 51.922 7.34 L59.501 -0.4 Z M77.4 -84.895 Q87.559 -84.895 96.589 -80.944 Q105.619 -76.994 112.391 -70.221 Q119.164 -63.449 123.114 -54.419 Q127.065 -45.389 127.065 -35.23 Q127.065 -22.491 121.341 -12.01 Q115.616 -1.529 106.103 5.244 L95.46 -5.399 Q103.039 -9.914 107.634 -17.815 Q112.23 -25.716 112.23 -35.23 Q112.23 -49.742 102.071 -59.982 Q91.913 -70.221 77.4 -70.221 Q62.888 -70.221 52.809 -59.982 Q42.731 -49.742 42.731 -35.23 Q42.731 -25.716 47.246 -17.815 Q51.761 -9.914 59.34 -5.399 L48.859 5.244 Q39.184 -1.529 33.459 -12.01 Q27.735 -22.491 27.735 -35.23 Q27.735 -45.389 31.686 -54.419 Q35.636 -63.449 42.328 -70.221 Q49.02 -76.994 58.05 -80.944 Q67.08 -84.895 77.4 -84.895 Z M77.4 -66.674 Q90.461 -66.674 99.653 -57.482 Q108.844 -48.291 108.844 -35.23 Q108.844 -22.169 99.653 -13.058 Q90.461 -3.947 77.4 -3.947 Q64.339 -3.947 55.228 -13.058 Q46.117 -22.169 46.117 -35.23 Q46.117 -48.291 55.228 -57.482 Q64.339 -66.674 77.4 -66.674 Z"/></g><g id="Bold-M" transform="matrix(1 0 0 1 2281.8 1126)"><path d="M60.02 -33.23 Q63.04 -33.23 65.082 -35.272 Q67.125 -37.315 67.125 -40.335 Q67.125 -43.355 65.082 -45.48 Q63.04 -47.605 60.02 -47.605 Q57 -47.605 54.812 -45.48 Q52.625 -43.355 52.625 -40.335 Q52.625 -37.315 54.812 -35.272 Q57 -33.23 60.02 -33.23 Z M51.875 -1.73 H68.125 L83.5 13.645 Q78.125 16.27 72.25 17.645 Q66.375 19.02 60.019 19.02 Q53.661 19.02 47.769 17.583 Q41.875 16.145 36.5 13.52 L51.875 -1.73 Z M59.974 -89.48 Q71.25 -89.48 81.125 -85.23 Q91 -80.98 98.375 -73.605 Q105.75 -66.23 110 -56.374 Q114.25 -46.516 114.25 -35.23 Q114.25 -22.98 109.312 -12.542 Q104.375 -2.105 95.875 5.395 L81.25 -9.23 Q86.875 -13.855 90.188 -20.605 Q93.5 -27.355 93.5 -35.23 Q93.5 -49.189 83.72 -58.959 Q73.941 -68.73 59.97 -68.73 Q46 -68.73 36.25 -58.959 Q26.5 -49.189 26.5 -35.23 Q26.5 -27.355 29.821 -20.694 Q33.141 -14.032 38.75 -9.355 L24.125 5.27 Q15.625 -2.23 10.688 -12.695 Q5.75 -23.16 5.75 -35.23 Q5.75 -46.516 10 -56.374 Q14.25 -66.23 21.625 -73.605 Q29 -80.98 38.849 -85.23 Q48.696 -89.48 59.974 -89.48 Z M60 -55.605 Q68.5 -55.605 74.438 -49.667 Q80.375 -43.73 80.375 -35.23 Q80.375 -26.73 74.438 -20.792 Q68.5 -14.855 60 -14.855 Q51.5 -14.855 45.562 -20.792 Q39.625 -26.73 39.625 -35.23 Q39.625 -43.73 45.562 -49.667 Q51.5 -55.605 60 -55.605 Z"/></g><g id="Semibold-M" transform="matrix(1 0 0 1 1985.97 1126)"><path d="M60.011 -34.1 Q62.642 -34.1 64.421 -35.879 Q66.201 -37.659 66.201 -40.29 Q66.201 -42.92 64.421 -44.746 Q62.642 -46.572 60.011 -46.572 Q57.38 -46.572 55.519 -44.746 Q53.657 -42.92 53.657 -40.29 Q53.657 -37.659 55.519 -35.879 Q57.38 -34.1 60.011 -34.1 Z M49.81 -3.251 H70.245 L82.903 9.406 Q77.745 12.14 71.979 13.569 Q66.213 14.999 60.01 14.999 Q53.809 14.999 48.059 13.534 Q42.31 12.069 37.153 9.335 L49.81 -3.251 Z M59.985 -85.459 Q70.435 -85.459 79.576 -81.507 Q88.718 -77.556 95.522 -70.752 Q102.326 -63.947 106.278 -54.816 Q110.229 -45.685 110.229 -35.23 Q110.229 -24.012 105.699 -14.39 Q101.169 -4.767 93.43 2.189 L80.544 -10.697 Q85.787 -15.105 88.884 -21.475 Q91.979 -27.844 91.979 -35.23 Q91.979 -48.554 82.646 -57.881 Q73.315 -67.209 59.984 -67.209 Q46.653 -67.209 37.337 -57.881 Q28.021 -48.554 28.021 -35.23 Q28.021 -27.844 31.121 -21.525 Q34.221 -15.205 39.456 -10.767 L26.57 2.118 Q18.831 -4.839 14.301 -14.476 Q9.771 -24.115 9.771 -35.23 Q9.771 -45.685 13.723 -54.816 Q17.674 -63.947 24.477 -70.752 Q31.282 -77.556 40.409 -81.507 Q49.535 -85.459 59.985 -85.459 Z M60 -55.442 Q68.391 -55.442 74.301 -49.531 Q80.213 -43.621 80.213 -35.23 Q80.213 -26.839 74.301 -20.929 Q68.391 -15.017 60 -15.017 Q51.609 -15.017 45.699 -20.929 Q39.788 -26.839 39.788 -35.23 Q39.788 -43.621 45.699 -49.531 Q51.609 -55.442 60 -55.442 Z"/></g><g id="Medium-M" transform="matrix(1 0 0 1 1689.91 1126)"><path d="M60.005 -34.751 Q62.344 -34.751 63.926 -36.334 Q65.509 -37.916 65.509 -40.255 Q65.509 -42.594 63.926 -44.196 Q62.344 -45.797 60.005 -45.797 Q57.666 -45.797 56.049 -44.196 Q54.432 -42.594 54.432 -40.255 Q54.432 -37.916 56.049 -36.334 Q57.666 -34.751 60.005 -34.751 Z M48.261 -4.392 H71.834 L82.454 6.226 Q77.459 9.041 71.775 10.513 Q66.09 11.983 60.004 11.983 Q53.919 11.983 48.278 10.498 Q42.636 9.013 37.641 6.196 L48.261 -4.392 Z M59.994 -82.442 Q69.824 -82.442 78.415 -78.715 Q87.005 -74.989 93.381 -68.611 Q99.759 -62.235 103.485 -53.649 Q107.213 -45.062 107.213 -35.23 Q107.213 -24.787 102.987 -15.776 Q98.764 -6.765 91.595 -0.216 L80.014 -11.797 Q84.972 -16.042 87.905 -22.126 Q90.838 -28.211 90.838 -35.23 Q90.838 -48.079 81.841 -57.072 Q72.845 -66.067 59.992 -66.067 Q47.141 -66.067 38.153 -57.072 Q29.163 -48.079 29.163 -35.23 Q29.163 -28.211 32.097 -22.147 Q35.031 -16.085 39.986 -11.827 L28.405 -0.246 Q21.236 -6.795 17.012 -15.812 Q12.787 -24.83 12.787 -35.23 Q12.787 -45.062 16.515 -53.649 Q20.241 -62.235 26.619 -68.611 Q32.995 -74.989 41.579 -78.715 Q50.164 -82.442 59.994 -82.442 Z M60 -55.32 Q68.31 -55.32 74.2 -49.43 Q80.09 -43.54 80.09 -35.23 Q80.09 -26.92 74.2 -21.03 Q68.31 -15.14 60 -15.14 Q51.69 -15.14 45.8 -21.03 Q39.91 -26.92 39.91 -35.23 Q39.91 -43.54 45.8 -49.43 Q51.69 -55.32 60 -55.32 Z"/></g><g id="Regular-M" transform="matrix(1 0 0 1 1394.06 1126)"><path d="M60 -35.23 Q62.125 -35.23 63.562 -36.667 Q65 -38.105 65 -40.23 Q65 -42.355 63.562 -43.792 Q62.125 -45.23 60 -45.23 Q57.875 -45.23 56.438 -43.792 Q55 -42.355 55 -40.23 Q55 -38.105 56.438 -36.667 Q57.875 -35.23 60 -35.23 Z M47.125 -5.23 H73 L82.125 3.895 Q77.25 6.77 71.625 8.27 Q66 9.77 60 9.77 Q54 9.77 48.438 8.27 Q42.875 6.77 38 3.895 L47.125 -5.23 Z M60 -80.23 Q69.375 -80.23 77.562 -76.667 Q85.75 -73.105 91.812 -67.042 Q97.875 -60.98 101.438 -52.792 Q105 -44.605 105 -35.23 Q105 -25.355 101 -16.792 Q97 -8.23 90.25 -1.98 L79.625 -12.605 Q84.375 -16.73 87.188 -22.605 Q90 -28.48 90 -35.23 Q90 -47.73 81.25 -56.48 Q72.5 -65.23 60 -65.23 Q47.5 -65.23 38.75 -56.48 Q30 -47.73 30 -35.23 Q30 -28.48 32.812 -22.605 Q35.625 -16.73 40.375 -12.605 L29.75 -1.98 Q23 -8.23 19 -16.792 Q15 -25.355 15 -35.23 Q15 -44.605 18.562 -52.792 Q22.125 -60.98 28.188 -67.042 Q34.25 -73.105 42.438 -76.667 Q50.625 -80.23 60 -80.23 Z M60 -55.23 Q68.25 -55.23 74.125 -49.355 Q80 -43.48 80 -35.23 Q80 -26.98 74.125 -21.105 Q68.25 -15.23 60 -15.23 Q51.75 -15.23 45.875 -21.105 Q40 -26.98 40 -35.23 Q40 -43.48 45.875 -49.355 Q51.75 -55.23 60 -55.23 Z"/></g><g id="Light-M" transform="matrix(1 0 0 1 1098.18 1126)"><path d="M60 -35.711 Q61.789 -35.711 63.057 -36.98 Q64.326 -38.249 64.326 -40.037 Q64.326 -41.874 63.057 -43.119 Q61.789 -44.365 60 -44.365 Q58.164 -44.365 56.919 -43.119 Q55.674 -41.874 55.674 -40.037 Q55.674 -38.249 56.919 -36.98 Q58.164 -35.711 60 -35.711 Z M47.125 -6.576 H72.904 L81.115 1.588 Q76.433 4.318 71.096 5.794 Q65.76 7.27 60 7.27 Q54.24 7.27 48.943 5.794 Q43.644 4.318 38.961 1.588 L47.125 -6.576 Z M60 -77.73 Q68.797 -77.73 76.529 -74.36 Q84.26 -70.99 90.01 -65.24 Q95.76 -59.49 99.13 -51.759 Q102.5 -44.027 102.5 -35.23 Q102.5 -25.402 98.355 -17.032 Q94.211 -8.662 87.269 -2.797 L77.414 -12.652 Q82.5 -16.537 85.552 -22.436 Q88.606 -28.336 88.606 -35.23 Q88.606 -47.152 80.264 -55.519 Q71.922 -63.884 60 -63.884 Q48.078 -63.884 39.736 -55.519 Q31.394 -47.152 31.394 -35.23 Q31.394 -28.336 34.447 -22.436 Q37.5 -16.537 42.586 -12.652 L32.731 -2.797 Q25.789 -8.662 21.645 -17.032 Q17.5 -25.402 17.5 -35.23 Q17.5 -44.027 20.846 -51.759 Q24.192 -59.49 29.942 -65.24 Q35.693 -70.99 43.424 -74.36 Q51.154 -77.73 60 -77.73 Z M60 -56.384 Q68.731 -56.384 74.942 -50.172 Q81.154 -43.961 81.154 -35.23 Q81.154 -26.451 74.942 -20.264 Q68.731 -14.076 60 -14.076 Q51.221 -14.076 45.034 -20.264 Q38.846 -26.451 38.846 -35.23 Q38.846 -43.961 45.034 -50.172 Q51.221 -56.384 60 -56.384 Z"/></g><g id="Thin-M" transform="matrix(1 0 0 1 802.565 1126)"><path d="M60 -36.191 Q61.453 -36.191 62.553 -37.292 Q63.654 -38.394 63.654 -39.845 Q63.654 -41.394 62.553 -42.446 Q61.453 -43.499 60 -43.499 Q58.453 -43.499 57.399 -42.446 Q56.346 -41.394 56.346 -39.845 Q56.346 -38.394 57.399 -37.292 Q58.453 -36.191 60 -36.191 Z M47.125 -7.922 H72.808 L80.106 -0.72 Q75.615 1.866 70.567 3.318 Q65.519 4.77 60 4.77 Q54.481 4.77 49.447 3.318 Q44.414 1.866 39.922 -0.72 L47.125 -7.922 Z M60 -75.23 Q68.221 -75.23 75.495 -72.052 Q82.769 -68.874 88.206 -63.436 Q93.644 -57.999 96.823 -50.725 Q100 -43.451 100 -35.23 Q100 -25.451 95.711 -17.274 Q91.422 -9.095 84.289 -3.615 L75.203 -12.701 Q80.625 -16.345 83.919 -22.269 Q87.211 -28.191 87.211 -35.23 Q87.211 -46.576 79.279 -54.557 Q71.346 -62.537 60 -62.537 Q48.654 -62.537 40.721 -54.557 Q32.789 -46.576 32.789 -35.23 Q32.789 -28.191 36.081 -22.269 Q39.375 -16.345 44.797 -12.701 L35.711 -3.615 Q28.578 -9.095 24.289 -17.274 Q20 -25.451 20 -35.23 Q20 -43.451 23.13 -50.725 Q26.26 -57.999 31.698 -63.436 Q37.135 -68.874 44.409 -72.052 Q51.682 -75.23 60 -75.23 Z M60 -57.537 Q69.211 -57.537 75.76 -50.99 Q82.308 -44.441 82.308 -35.23 Q82.308 -25.922 75.76 -19.422 Q69.211 -12.922 60 -12.922 Q50.693 -12.922 44.193 -19.422 Q37.693 -25.922 37.693 -35.23 Q37.693 -44.441 44.193 -50.99 Q50.693 -57.537 60 -57.537 Z"/></g><g id="Ultralight-M" transform="matrix(1 0 0 1 506.415 1126)"><path d="M60 -36.48 Q61.25 -36.48 62.25 -37.48 Q63.25 -38.48 63.25 -39.73 Q63.25 -41.105 62.25 -42.042 Q61.25 -42.98 60 -42.98 Q58.625 -42.98 57.688 -42.042 Q56.75 -41.105 56.75 -39.73 Q56.75 -38.48 57.688 -37.48 Q58.625 -36.48 60 -36.48 Z M47.125 -8.73 H72.75 L79.5 -2.105 Q75.125 0.395 70.25 1.833 Q65.375 3.27 60 3.27 Q54.625 3.27 49.75 1.833 Q44.875 0.395 40.5 -2.105 L47.125 -8.73 Z M60 -73.73 Q67.875 -73.73 74.875 -70.667 Q81.875 -67.605 87.125 -62.355 Q92.375 -57.105 95.438 -50.105 Q98.5 -43.105 98.5 -35.23 Q98.5 -25.48 94.125 -17.417 Q89.75 -9.355 82.5 -4.105 L73.875 -12.73 Q79.5 -16.23 82.938 -22.167 Q86.375 -28.105 86.375 -35.23 Q86.375 -46.23 78.688 -53.98 Q71 -61.73 60 -61.73 Q49 -61.73 41.312 -53.98 Q33.625 -46.23 33.625 -35.23 Q33.625 -28.105 37.062 -22.167 Q40.5 -16.23 46.125 -12.73 L37.5 -4.105 Q30.25 -9.355 25.875 -17.417 Q21.5 -25.48 21.5 -35.23 Q21.5 -43.105 24.5 -50.105 Q27.5 -57.105 32.75 -62.355 Q38 -67.605 45 -70.667 Q52 -73.73 60 -73.73 Z M60 -58.23 Q69.5 -58.23 76.25 -51.48 Q83 -44.73 83 -35.23 Q83 -25.605 76.25 -18.917 Q69.5 -12.23 60 -12.23 Q50.375 -12.23 43.688 -18.917 Q37 -25.605 37 -35.23 Q37 -44.73 43.688 -51.48 Q50.375 -58.23 60 -58.23 Z"/></g><g id="Bold-S" transform="matrix(1 0 0 1 2294.23 696)"><path d="M47.335 -33.652 Q49.541 -33.652 51.054 -35.144 Q52.567 -36.636 52.567 -38.843 Q52.567 -41.049 51.075 -42.627 Q49.583 -44.205 47.376 -44.205 Q45.17 -44.205 43.543 -42.648 Q41.916 -41.09 41.916 -38.884 Q41.916 -36.678 43.522 -35.165 Q45.129 -33.652 47.335 -33.652 Z M44.283 -13.532 H50.299 L64.994 1.163 Q60.852 3.135 56.512 4.171 Q52.173 5.206 47.355 5.206 Q42.536 5.206 38.133 4.121 Q33.73 3.037 29.588 1.064 L44.283 -13.532 Z M47.319 -75.666 Q55.625 -75.666 63.008 -72.491 Q70.392 -69.315 75.908 -63.798 Q81.425 -58.282 84.601 -50.912 Q87.776 -43.543 87.776 -35.23 Q87.776 -26.07 84.127 -18.272 Q80.478 -10.475 74.067 -4.952 L60.95 -18.168 Q64.698 -21.127 66.868 -25.576 Q69.038 -30.025 69.038 -35.23 Q69.038 -44.271 62.702 -50.599 Q56.367 -56.927 47.316 -56.927 Q38.267 -56.927 31.955 -50.599 Q25.643 -44.271 25.643 -35.23 Q25.643 -30.025 27.819 -25.646 Q29.995 -21.267 33.73 -18.266 L20.514 -5.051 Q14.103 -10.574 10.504 -18.393 Q6.904 -26.212 6.904 -35.23 Q6.904 -43.543 10.079 -50.912 Q13.255 -58.282 18.772 -63.798 Q24.288 -69.315 31.651 -72.491 Q39.013 -75.666 47.319 -75.666 Z M47.34 -47.361 Q52.419 -47.361 55.945 -43.835 Q59.471 -40.309 59.471 -35.23 Q59.471 -30.151 55.945 -26.625 Q52.419 -23.099 47.34 -23.099 Q42.261 -23.099 38.735 -26.625 Q35.209 -30.151 35.209 -35.23 Q35.209 -40.309 38.735 -43.835 Q42.261 -47.361 47.34 -47.361 Z"/></g><g id="Semibold-S" transform="matrix(1 0 0 1 1998.1 696)"><path d="M47.328 -34.338 Q49.228 -34.338 50.532 -35.623 Q51.838 -36.908 51.838 -38.807 Q51.838 -40.706 50.553 -42.048 Q49.269 -43.39 47.37 -43.39 Q45.47 -43.39 44.1 -42.069 Q42.73 -40.747 42.73 -38.849 Q42.73 -36.949 44.079 -35.643 Q45.429 -34.338 47.328 -34.338 Z M42.653 -14.733 H51.971 L64.522 -2.182 Q60.552 -0.123 56.298 0.955 Q52.044 2.033 47.348 2.033 Q42.652 2.033 38.362 0.927 Q34.073 -0.18 30.102 -2.238 L42.653 -14.733 Z M47.328 -72.493 Q54.981 -72.493 61.786 -69.553 Q68.591 -66.613 73.657 -61.547 Q78.723 -56.481 81.663 -49.683 Q84.603 -42.887 84.603 -35.23 Q84.603 -26.884 81.276 -19.73 Q77.948 -12.576 72.138 -7.482 L60.393 -19.326 Q63.84 -22.113 65.839 -26.261 Q67.837 -30.41 67.837 -35.23 Q67.837 -43.77 61.855 -49.749 Q55.873 -55.727 47.327 -55.727 Q38.781 -55.727 32.813 -49.749 Q26.843 -43.77 26.843 -35.23 Q26.843 -30.41 28.845 -26.3 Q30.847 -22.192 34.287 -19.381 L22.443 -7.538 Q16.633 -12.632 13.355 -19.798 Q10.077 -26.965 10.077 -35.23 Q10.077 -42.887 13.017 -49.683 Q15.957 -56.481 21.023 -61.547 Q26.089 -66.613 32.883 -69.553 Q39.675 -72.493 47.328 -72.493 Z M47.34 -47.233 Q52.333 -47.233 55.838 -43.728 Q59.343 -40.223 59.343 -35.23 Q59.343 -30.237 55.838 -26.732 Q52.333 -23.227 47.34 -23.227 Q42.347 -23.227 38.842 -26.732 Q35.337 -30.237 35.337 -35.23 Q35.337 -40.223 38.842 -43.728 Q42.347 -47.233 47.34 -47.233 Z"/></g><g id="Medium-S" transform="matrix(1 0 0 1 1701.85 696)"><path d="M47.323 -34.852 Q48.992 -34.852 50.142 -35.982 Q51.292 -37.111 51.292 -38.78 Q51.292 -40.448 50.163 -41.614 Q49.033 -42.779 47.365 -42.779 Q45.696 -42.779 44.518 -41.635 Q43.342 -40.49 43.342 -38.821 Q43.342 -37.152 44.498 -36.002 Q45.654 -34.852 47.323 -34.852 Z M41.431 -15.633 H53.225 L64.168 -4.691 Q60.326 -2.568 56.137 -1.457 Q51.948 -0.346 47.343 -0.346 Q42.739 -0.346 38.535 -1.469 Q34.33 -2.591 30.488 -4.714 L41.431 -15.633 Z M47.335 -70.114 Q54.499 -70.114 60.869 -67.35 Q67.24 -64.588 71.969 -59.859 Q76.698 -55.13 79.46 -48.762 Q82.224 -42.396 82.224 -35.23 Q82.224 -27.496 79.137 -20.824 Q76.051 -14.152 70.69 -9.379 L59.975 -20.194 Q63.197 -22.853 65.067 -26.776 Q66.937 -30.699 66.937 -35.23 Q66.937 -43.395 61.219 -49.11 Q55.502 -54.827 47.334 -54.827 Q39.167 -54.827 33.456 -49.11 Q27.743 -43.395 27.743 -35.23 Q27.743 -30.699 29.615 -26.793 Q31.486 -22.886 34.705 -20.217 L23.891 -9.403 Q18.531 -14.176 15.494 -20.852 Q12.456 -27.529 12.456 -35.23 Q12.456 -42.396 15.22 -48.762 Q17.982 -55.13 22.711 -59.859 Q27.44 -64.588 33.806 -67.35 Q40.171 -70.114 47.335 -70.114 Z M47.34 -47.136 Q52.269 -47.136 55.758 -43.648 Q59.246 -40.159 59.246 -35.23 Q59.246 -30.301 55.758 -26.812 Q52.269 -23.324 47.34 -23.324 Q42.411 -23.324 38.922 -26.812 Q35.434 -30.301 35.434 -35.23 Q35.434 -40.159 38.922 -43.648 Q42.411 -47.136 47.34 -47.136 Z"/></g><g id="Regular-S" transform="matrix(1 0 0 1 1405.73 696)"><path d="M47.319 -35.23 Q48.819 -35.23 49.855 -36.245 Q50.891 -37.26 50.891 -38.76 Q50.891 -40.26 49.876 -41.295 Q48.861 -42.331 47.361 -42.331 Q45.861 -42.331 44.825 -41.316 Q43.79 -40.301 43.79 -38.801 Q43.79 -37.301 44.804 -36.266 Q45.819 -35.23 47.319 -35.23 Z M40.535 -16.294 H54.145 L63.909 -6.53 Q60.161 -4.36 56.019 -3.226 Q51.877 -2.092 47.34 -2.092 Q42.803 -2.092 38.661 -3.226 Q34.519 -4.36 30.771 -6.53 L40.535 -16.294 Z M47.34 -68.368 Q54.145 -68.368 60.197 -65.735 Q66.249 -63.101 70.73 -58.62 Q75.211 -54.139 77.845 -48.087 Q80.478 -42.035 80.478 -35.23 Q80.478 -27.944 77.569 -21.626 Q74.659 -15.308 69.629 -10.771 L59.668 -20.831 Q62.726 -23.395 64.501 -27.154 Q66.276 -30.912 66.276 -35.23 Q66.276 -43.12 60.753 -48.643 Q55.23 -54.166 47.34 -54.166 Q39.45 -54.166 33.927 -48.643 Q28.404 -43.12 28.404 -35.23 Q28.404 -30.912 30.179 -27.154 Q31.955 -23.395 35.012 -20.831 L24.952 -10.771 Q19.922 -15.308 17.062 -21.626 Q14.202 -27.944 14.202 -35.23 Q14.202 -42.035 16.835 -48.087 Q19.469 -54.139 23.95 -58.62 Q28.431 -63.101 34.483 -65.735 Q40.535 -68.368 47.34 -68.368 Z M47.34 -47.065 Q52.222 -47.065 55.698 -43.588 Q59.175 -40.112 59.175 -35.23 Q59.175 -30.348 55.698 -26.872 Q52.222 -23.395 47.34 -23.395 Q42.458 -23.395 38.982 -26.872 Q35.505 -30.348 35.505 -35.23 Q35.505 -40.112 38.982 -43.588 Q42.458 -47.065 47.34 -47.065 Z"/></g><g id="Light-S" transform="matrix(1 0 0 1 1109.75 696)"><path d="M47.319 -35.61 Q48.554 -35.61 49.456 -36.491 Q50.359 -37.373 50.359 -38.608 Q50.359 -39.88 49.477 -40.764 Q48.595 -41.649 47.361 -41.649 Q46.088 -41.649 45.205 -40.786 Q44.321 -39.922 44.321 -38.649 Q44.321 -37.415 45.184 -36.512 Q46.047 -35.61 47.319 -35.61 Z M40.535 -17.356 H54.069 L63.112 -8.351 Q59.516 -6.295 55.602 -5.18 Q51.687 -4.064 47.34 -4.064 Q42.993 -4.064 39.059 -5.18 Q35.125 -6.295 31.529 -8.351 L40.535 -17.356 Z M47.34 -66.395 Q53.689 -66.395 59.381 -63.914 Q65.073 -61.433 69.308 -57.198 Q73.543 -52.963 76.024 -47.271 Q78.505 -41.579 78.505 -35.23 Q78.505 -27.982 75.482 -21.815 Q72.459 -15.649 67.277 -11.416 L57.923 -20.868 Q61.246 -23.243 63.211 -27.02 Q65.176 -30.798 65.176 -35.23 Q65.176 -42.664 59.975 -47.885 Q54.774 -53.104 47.34 -53.104 Q39.906 -53.104 34.705 -47.885 Q29.504 -42.664 29.504 -35.23 Q29.504 -30.798 31.469 -27.02 Q33.434 -23.243 36.757 -20.868 L27.304 -11.416 Q22.123 -15.649 19.149 -21.815 Q16.175 -27.982 16.175 -35.23 Q16.175 -41.579 18.637 -47.271 Q21.1 -52.963 25.335 -57.198 Q29.569 -61.433 35.26 -63.914 Q40.952 -66.395 47.34 -66.395 Z M47.34 -47.975 Q52.602 -47.975 56.343 -44.233 Q60.085 -40.492 60.085 -35.23 Q60.085 -29.931 56.343 -26.208 Q52.602 -22.485 47.34 -22.485 Q42.041 -22.485 38.318 -26.208 Q34.595 -29.931 34.595 -35.23 Q34.595 -40.492 38.318 -44.233 Q42.041 -47.975 47.34 -47.975 Z"/></g><g id="Thin-S" transform="matrix(1 0 0 1 814.015 696)"><path d="M47.319 -35.988 Q48.289 -35.988 49.058 -36.738 Q49.828 -37.488 49.828 -38.456 Q49.828 -39.501 49.079 -40.233 Q48.33 -40.965 47.361 -40.965 Q46.316 -40.965 45.583 -40.254 Q44.852 -39.543 44.852 -38.497 Q44.852 -37.529 45.563 -36.759 Q46.274 -35.988 47.319 -35.988 Z M40.535 -18.418 H53.993 L62.316 -10.171 Q58.871 -8.229 55.185 -7.134 Q51.497 -6.037 47.34 -6.037 Q43.183 -6.037 39.458 -7.134 Q35.733 -8.229 32.288 -10.171 L40.535 -18.418 Z M47.34 -64.423 Q53.235 -64.423 58.565 -62.093 Q63.897 -59.763 67.886 -55.776 Q71.873 -51.787 74.203 -46.455 Q76.533 -41.125 76.533 -35.23 Q76.533 -28.02 73.396 -22.005 Q70.258 -15.99 64.926 -12.061 L56.179 -20.907 Q59.767 -23.091 61.922 -26.888 Q64.076 -30.684 64.076 -35.23 Q64.076 -42.21 59.198 -47.126 Q54.32 -52.042 47.34 -52.042 Q40.36 -52.042 35.482 -47.126 Q30.604 -42.21 30.604 -35.23 Q30.604 -30.684 32.758 -26.888 Q34.913 -23.091 38.501 -20.907 L29.656 -12.061 Q24.323 -15.99 21.235 -22.005 Q18.147 -28.02 18.147 -35.23 Q18.147 -41.125 20.439 -46.455 Q22.731 -51.787 26.718 -55.776 Q30.707 -59.763 36.039 -62.093 Q41.369 -64.423 47.34 -64.423 Z M47.34 -48.886 Q52.98 -48.886 56.988 -44.878 Q60.996 -40.87 60.996 -35.23 Q60.996 -29.514 56.988 -25.544 Q52.98 -21.574 47.34 -21.574 Q41.624 -21.574 37.654 -25.544 Q33.684 -29.514 33.684 -35.23 Q33.684 -40.87 37.654 -44.878 Q41.624 -48.886 47.34 -48.886 Z"/></g><g id="Ultralight-S" transform="matrix(1 0 0 1 517.792 696)"><path d="M47.319 -36.216 Q48.129 -36.216 48.819 -36.886 Q49.51 -37.556 49.51 -38.365 Q49.51 -39.274 48.84 -39.915 Q48.17 -40.556 47.361 -40.556 Q46.452 -40.556 45.811 -39.935 Q45.17 -39.315 45.17 -38.407 Q45.17 -37.597 45.791 -36.907 Q46.411 -36.216 47.319 -36.216 Z M40.535 -19.055 H53.948 L61.838 -11.264 Q58.485 -9.39 54.934 -8.305 Q51.384 -7.22 47.34 -7.22 Q43.296 -7.22 39.697 -8.305 Q36.097 -9.39 32.744 -11.264 L40.535 -19.055 Z M47.34 -63.239 Q52.962 -63.239 58.076 -61.001 Q63.192 -58.762 67.031 -54.921 Q70.872 -51.082 73.111 -45.966 Q75.35 -40.852 75.35 -35.23 Q75.35 -28.042 72.144 -22.119 Q68.939 -16.195 63.515 -12.448 L55.131 -20.929 Q58.879 -23 61.148 -26.808 Q63.416 -30.616 63.416 -35.23 Q63.416 -41.936 58.731 -46.67 Q54.047 -51.404 47.34 -51.404 Q40.634 -51.404 35.949 -46.67 Q31.264 -41.936 31.264 -35.23 Q31.264 -30.616 33.532 -26.808 Q35.801 -23 39.549 -20.929 L31.067 -12.448 Q25.643 -16.195 22.486 -22.119 Q19.331 -28.042 19.331 -35.23 Q19.331 -40.852 21.52 -45.966 Q23.709 -51.082 27.55 -54.921 Q31.389 -58.762 36.505 -61.001 Q41.62 -63.239 47.34 -63.239 Z M47.34 -49.432 Q53.208 -49.432 57.375 -45.265 Q61.542 -41.098 61.542 -35.23 Q61.542 -29.263 57.375 -25.146 Q53.208 -21.028 47.34 -21.028 Q41.373 -21.028 37.256 -25.146 Q33.138 -29.263 33.138 -35.23 Q33.138 -41.098 37.256 -45.265 Q41.373 -49.432 47.34 -49.432 Z"/></g></g></svg>