<svg xmlns="http://www.w3.org/2000/svg" height="40" viewBox="0 -960 960 960" width="40"><path d="M162.82-123.74v-683.08h-40v-32.44h714.36v32.44h-39.65v684q-82.63 0-144.94-50.67-62.31-50.68-74.5-131.78H381.41q-12.85 80.98-75.54 131.25-62.7 50.28-143.05 50.28Zm32.44-32.91q66.97-12.47 112.23-62.47 45.25-50 45.25-118.54v-469.16H195.26v650.17Zm189.92-181.06h189.64v-469.11H385.18v469.11Zm379.91 180.29v-649.4H607.26v469.26q0 68.04 44.95 117.89 44.96 49.84 112.88 62.25Zm-412.35-649.4H195.26h157.48Zm412.35 0H607.26h157.83Z"/></svg>