<svg xmlns="http://www.w3.org/2000/svg" height="40" viewBox="0 -960 960 960" width="40"><path d="M96.75-57.42v-759.9h-40v-89.42h846.66v89.42h-40.67v760.57q-98.32 0-177.7-55.15-79.39-55.14-108.98-149.09H383.37q-30.1 93.2-109.57 148.38-79.46 55.19-177.05 55.19Zm89.26-107.27q56.69-20.25 89.89-71.03t33.2-113.44v-468.16H186.01v652.63Zm212.35-185.56H561.3v-467.07H398.36v467.07Zm374.96 185.56v-652.63h-122.6v468.16q0 62.6 32.38 114.44 32.37 51.84 90.22 70.03ZM309.1-817.32H186.01 309.1Zm464.22 0h-122.6 122.6Z"/></svg>