<svg xmlns="http://www.w3.org/2000/svg" height="24" viewBox="0 -960 960 960" width="24"><path d="M80.09-40.09v-756.87h-40v-122.95h879.82v122.95h-40v756.87q-101.13 0-186.95-49.54-85.83-49.54-124.35-141.85H389.83Q351.3-139.74 265.48-89.91 179.65-40.09 80.09-40.09Zm122.95-151.04q44.79-20.44 66.92-65.2 22.13-44.76 22.13-96.67v-443.96h-89.05v605.83Zm212-163.3h128.92v-442.53H415.04v442.53Zm341.92 163.3v-605.83h-90.05V-353q0 51.91 22.13 97.46 22.13 45.54 67.92 64.41ZM292.09-796.96h-89.05 89.05Zm464.87 0h-90.05 90.05Z"/></svg>