<svg xmlns="http://www.w3.org/2000/svg" height="24" viewBox="0 -960 960 960" width="24"><path d="M121.87-81.87v-711.26h-40v-86h796.26v86h-39.5v711.26q-92.93 0-167.7-52.34-74.76-52.33-101.63-140.33H389.96q-27.87 87.76-102.23 140.21-74.37 52.46-165.86 52.46Zm86-102.85q51.13-23.04 81.02-70.75 29.89-47.7 29.89-105.07v-432.59H207.87v608.41Zm196.91-175.82h150.44v-432.59H404.78v432.59Zm347.85 175.82v-608.41H641.22v432.59q0 57.37 29.26 105.57 29.26 48.21 82.15 70.25ZM318.78-793.13H207.87h110.91Zm433.85 0H641.22h111.41Z"/></svg>