<svg xmlns="http://www.w3.org/2000/svg" height="48" viewBox="0 -960 960 960" width="48"><path d="M101.17-62.17v-758.48h-40v-83.74h838.22v83.74h-41v759.48q-97.56 0-175.19-55.18-77.63-55.17-106.03-148.48H382.26q-28.83 92.31-106.74 147.48-77.91 55.18-174.35 55.18Zm83.18-99.57q57.91-20 93.3-70.61t35.39-115.22v-473.08H184.35v658.91ZM396.22-348h167.56v-472.65H396.22V-348Zm378.43 186.26v-658.91H647.52v473.08q0 64.39 33.83 116.68 33.82 52.28 93.3 69.15ZM313.04-820.65H184.35h128.69Zm461.61 0H647.52h127.13Z"/></svg>