<svg xmlns="http://www.w3.org/2000/svg" height="48" viewBox="0 -960 960 960" width="48"><path d="M652.74-770.69q6.37-6.23 15.91-6.23h132.62q22.16 0 39.15 16.73 17 16.73 17 39.42v132.12q0 9.54-6.41 15.91-6.41 6.36-16.04 6.36-9.62 0-15.51-6.36-5.88-6.37-5.88-15.91v-132.12q0-4.61-3.85-8.46-3.85-3.85-8.46-3.85H668.65q-9.54 0-15.91-6.41-6.36-6.41-6.36-15.69t6.36-15.51ZM125.16-566.38q-9.62 0-15.85-6.36-6.23-6.37-6.23-15.91v-132.12q0-22.69 16.73-39.42t39.42-16.73h132.81q8.75 0 15.16 6.41 6.42 6.41 6.42 15.69t-6.42 15.51q-6.41 6.23-15.16 6.23H159.23q-4.61 0-8.46 3.85-3.85 3.85-3.85 8.46v132.12q0 9.54-6.46 15.91-6.47 6.36-15.3 6.36Zm543.49 383.3q-9.54 0-15.91-6.41-6.36-6.41-6.36-15.69t6.36-15.51q6.37-6.23 15.91-6.23h132.62q4.61 0 8.46-3.85 3.85-3.85 3.85-8.46v-132.81q0-8.75 6.06-15.16 6.07-6.42 15.7-6.42 9.62 0 15.85 6.42 6.23 6.41 6.23 15.16v132.81q0 22.69-17 39.42-16.99 16.73-39.15 16.73H668.65Zm-509.42 0q-22.69 0-39.42-16.73t-16.73-39.42v-132.81q0-8.75 6.41-15.16 6.41-6.42 15.69-6.42t15.51 6.42q6.23 6.41 6.23 15.16v132.81q0 4.61 3.85 8.46 3.85 3.85 8.46 3.85h132.81q8.75 0 15.16 6.41 6.42 6.41 6.42 15.69t-6.42 15.51q-6.41 6.23-15.16 6.23H159.23Zm320.61-131.31q6.74 0 7.7-5.67 15.38-56.86 55.92-97.41 40.54-40.56 96.42-55.14 5.73-1.92 5.73-7.68 0-6.72-5.73-7.68-55.9-14.39-96.65-55.16-40.75-40.76-55.56-96.72-1.56-5.76-7.79-5.76-5.75 0-7.66 5.74-14.55 55.77-54.86 96.45-40.3 40.68-97.29 55.4-5.68.97-5.68 7.75 0 5.86 5.67 7.81 56.63 14.82 97.14 55.2t55.01 97.19q1.91 5.68 7.63 5.68Z"/></svg>