<svg xmlns="http://www.w3.org/2000/svg" height="20" viewBox="0 -960 960 960" width="20"><path d="M655.48-740.38q7.49-7.62 18.58-7.62h105.88q27.06 0 45.56 18.62Q844-710.76 844-683.8v105.52q0 11.05-7.41 18.66-7.4 7.62-18.38 7.62-10.98 0-18.47-7.47-7.49-7.46-7.49-18.53v-105.69q0-4.62-3.84-8.46-3.85-3.85-8.47-3.85H674q-11.07 0-18.53-7.4-7.47-7.41-7.47-18.39t7.48-18.59ZM142.21-552q-10.98 0-18.59-7.48-7.62-7.49-7.62-18.58v-105.88q0-27.06 18.62-45.56Q153.24-748 180.2-748h105.52q11.05 0 18.66 7.41 7.62 7.4 7.62 18.38 0 10.98-7.47 18.47-7.46 7.49-18.53 7.49H180.31q-4.62 0-8.46 3.84-3.85 3.85-3.85 8.47V-578q0 11.07-7.4 18.53-7.41 7.47-18.39 7.47Zm532.07 340q-11.05 0-18.66-7.41-7.62-7.4-7.62-18.38 0-10.98 7.47-18.63 7.46-7.65 18.53-7.65h105.69q4.62 0 8.46-3.85 3.85-3.84 3.85-8.46V-384q0-11.07 7.4-18.53 7.41-7.47 18.39-7.47t18.59 7.6q7.62 7.6 7.62 18.88v107.12q0 27.4-18.62 45.9T779.8-212H674.28Zm-494.22 0q-27.06 0-45.56-18.65Q116-249.3 116-276.31V-383.5q0-11.28 7.41-18.89 7.4-7.61 18.38-7.61 10.98 0 18.59 7.61 7.62 7.61 7.62 18.89v107.19q0 4.62 3.85 8.46 3.84 3.85 8.46 3.85H286q11.07 0 18.53 7.4 7.47 7.41 7.47 18.39t-7.48 18.59q-7.49 7.62-18.58 7.62H180.06ZM480-320.08q7 0 8-6 13.23-54.31 52.42-93.5t93.86-52.64q5.64-1.78 5.64-7.78 0-7-6-8-53.9-14.07-92.87-53.05-38.98-38.97-53.05-92.87-.62-6-7.5-6-6.5 0-8.28 5.64-13.45 54.67-52.64 93.86t-93.86 52.54q-5.64.88-5.64 7.88 0 6 6 8 54.31 13.23 93.5 52.42t52.64 93.86q1.78 5.64 7.78 5.64Z"/></svg>