<svg xmlns="http://www.w3.org/2000/svg" height="24" viewBox="0 -960 960 960" width="24"><path d="M656.5-818q16.5-16 39.5-16h92q53 0 89.5 36.5T914-708v93q0 23.37-16 39.19Q882-560 859-560t-39.5-16.5Q803-593 803-616v-107H695q-23.37 0-39.19-16.5Q640-756 640-779t16.5-39ZM102-560q-23 0-39.5-16.5T46-616v-92q0-53 36.5-89.5T172-834h93q23.38 0 39.19 16Q320-802 320-779t-15.81 39.5Q288.38-723 265-723H157v108q0 23.37-15.81 39.19Q125.38-560 102-560Zm593 434q-23.37 0-39.19-16.5Q640-159 640-182t16.5-39q16.5-16 39.5-16h107v-108q0-23.38 16.5-39.19Q836-400 859-400t39 15.81q16 15.81 16 39.19v93q0 53-36.5 89.5T788-126h-93Zm-523 0q-53 0-89.5-36.5T46-252v-93q0-23.38 16.5-39.19Q79-400 102-400t39 15.81q16 15.81 16 39.19v108h108q23.38 0 39.19 16Q320-205 320-182t-15.81 39.5Q288.38-126 265-126h-93Zm307.75-159q7.22 0 8.25-6 17-66 66-115t115-65.5q6-2.06 6-8.25 0-7.22-6-8.25-66-17-115-66t-66-115q-1-6-7.5-6t-8.61 6.45Q455-603 406-554t-115 65.5q-6 1.03-6 8.25 0 6.19 6 8.25 66 17 115 66t65.5 115q2.06 6 8.25 6Z"/></svg>