<svg xmlns="http://www.w3.org/2000/svg" height="40" viewBox="0 -960 960 960" width="40"><path d="M660.25-815.2q13.58-13.47 33.08-13.47h110q43.98 0 74.66 30.68t30.68 74.66v111q0 19.87-13.58 32.77-13.58 12.89-33 12.89t-32.92-13.58q-13.5-13.58-13.5-33.08v-122.34H692.33q-19.87 0-32.77-13.61-12.89-13.62-12.89-33.04t13.58-32.88ZM98.22-566.67q-19.22 0-32.72-13.58T52-613.33v-110q0-43.98 30.48-74.66 30.49-30.68 74.19-30.68h111q19.87 0 32.77 13.58 12.89 13.58 12.89 33t-12.89 32.92q-12.9 13.5-32.77 13.5H144.33v123.34q0 19.87-13.25 32.77-13.26 12.89-32.86 12.89ZM692.33-132q-19.87 0-32.77-13.62-12.89-13.61-12.89-32.84 0-19.22 13.58-32.55 13.58-13.32 33.08-13.32h122.34v-123.34q0-19.87 13.61-32.77 13.62-12.89 33.04-12.89t32.88 12.89q13.47 12.9 13.47 32.77v111q0 43.7-30.68 74.19Q847.31-132 803.33-132h-111Zm-535.66 0q-43.7 0-74.19-30.48Q52-192.97 52-236.67v-111q0-19.87 13.62-32.77 13.61-12.89 32.84-12.89 19.22 0 32.55 12.89 13.32 12.9 13.32 32.77v123.34h123.34q19.87 0 32.77 13.44 12.89 13.45 12.89 32.67 0 19.22-12.89 32.72-12.9 13.5-32.77 13.5h-111Zm323.08-161q7.01 0 8.01-5.82 16.53-63.53 63.54-110.21 47.02-46.68 109.88-62.71 5.82-2 5.82-8.01 0-7.01-5.82-8.01-63.11-16.33-110-63.44-46.89-47.12-63.42-109.98-.94-5.82-7.26-5.82t-8.37 6.27q-16.42 62.41-63.1 109.43-46.68 47.01-110.21 63.04-5.82 1-5.82 8.01 0 6.01 5.82 8.01 63.53 16.53 110.21 63.21 46.68 46.68 62.71 110.21 2 5.82 8.01 5.82Z"/></svg>