<svg xmlns="http://www.w3.org/2000/svg" height="24" viewBox="0 -960 960 960" width="24"><path d="M653-808.5q16-15.5 37.5-15.5h93q50.94 0 85.97 35.03T904.5-703v93.5q0 21.87-15.5 37.19Q873.5-557 852-557t-37.5-16q-16-16-16-37.5V-718h-109q-21.87 0-37.19-16Q637-750 637-771.5t16-37ZM109.5-557Q88-557 72-573t-16-37.5V-703q0-50.94 35.03-85.97T177-824h93.5q21.88 0 37.19 15.5Q323-793 323-771.5T307.69-734q-15.31 16-37.19 16H162v108.5q0 21.87-15.31 37.19Q131.38-557 109.5-557Zm580 421q-21.87 0-37.19-16Q637-168 637-189.5t16-37q16-15.5 37.5-15.5h108v-108.5q0-21.88 16-37.19Q830.5-403 852-403t37 15.31q15.5 15.31 15.5 37.19v93.5q0 50.94-35.03 85.97T783.5-136h-94ZM177-136q-50.94 0-85.97-35.03T56-257v-93.5q0-21.88 16-37.19Q88-403 109.5-403t37 15.31Q162-372.38 162-350.5V-242h108.5q21.88 0 37.19 15.5Q323-211 323-189.5T307.69-152q-15.31 16-37.19 16H177Zm302.75-151q7.13 0 8.14-5.94 16.79-65.42 65.2-113.99Q601.5-455.5 667-471.75q6-2.03 6-8.13 0-7.1-6-8.12-65.5-16.5-113.75-65T488-667.04q-1-5.96-7.5-5.96-6.42 0-8.5 6.39-16.68 64.97-65.09 113.54-48.41 48.57-113.95 64.74-5.96 1.01-5.96 8.08 0 6.11 5.94 8.14 65.42 16.79 113.99 65.2 48.57 48.41 64.74 113.95 2.02 5.96 8.08 5.96Z"/></svg>