<svg xmlns="http://www.w3.org/2000/svg" height="20" viewBox="0 -960 960 960" width="20"><path d="M649.12-708.25q2.62-2.75 6.44-2.75h102.69q21.19 0 35.22 14.15 14.03 14.15 14.03 35.24v101.83q0 3.78-2.54 6.53-2.54 2.75-6.25 2.75t-6.08-2.6q-2.38-2.6-2.38-6.4v-102q0-12-10-22t-22-10H655.5q-3.8 0-6.4-2.54-2.6-2.54-2.6-6t2.62-6.21ZM162.21-550.5q-3.71 0-6.46-2.62t-2.75-6.44v-102.19q0-21.19 14.15-35.22Q181.3-711 202.39-711h102.33q3.2 0 5.99 2.54t2.79 6q0 3.46-2.64 6.08-2.64 2.63-5.86 2.63H202.5q-12 0-22 10t-10 22v102.25q0 3.8-2.58 6.4-2.57 2.6-5.71 2.6ZM655.78-249q-3.78 0-6.53-2.54-2.75-2.54-2.75-6t2.6-6.24q2.6-2.79 6.4-2.79H758q12 0 22-10t10-22V-403q0-3.22 2.29-5.86t6-2.64q3.71 0 6.46 2.77 2.75 2.78 2.75 6.21v103.93q0 21.53-14.15 35.56Q779.2-249 758.11-249H655.78Zm-453.53 0q-21.19 0-35.22-14.18Q153-277.36 153-298.5v-104q0-3.44 2.54-6.22t6-2.78q3.46 0 6.21 2.78t2.75 6.22v104q0 12 10 22t22 10H305q3.22 0 5.86 2.54t2.64 6q0 3.46-2.66 6.21-2.65 2.75-5.9 2.75H202.25Zm277.71-85q6.94 0 7.93-5.94 12.29-49.92 47.45-85.24 35.16-35.32 85.02-47.41 5.64-1.76 5.64-7.71 0-6.94-6-7.93-49.09-12.46-84.12-47.57-35.04-35.11-47.94-84.24-.01-5.96-7.53-5.96-6.44 0-8.2 5.58-12.07 49.78-47.14 85.1Q390-500 339.6-487.97q-5.6.88-5.6 7.84 0 6.02 5.94 8.02 49.75 11.89 85.07 47.07 35.31 35.17 47.29 85.44 1.75 5.6 7.66 5.6Z"/></svg>