<svg xmlns="http://www.w3.org/2000/svg" height="40" viewBox="0 -960 960 960" width="40"><path d="M650.76-763.33q6.09-6 14.91-6H777q30.57 0 51.95 21.38 21.38 21.38 21.38 51.95v110.33q0 8.82-6.46 14.91t-14.68 6.09q-8.21 0-14.2-6.09-5.99-6.09-5.99-14.91V-696q0-12-10-22t-22-10H665.67q-8.82 0-14.91-6.25t-6.09-14.67q0-8.41 6.09-14.41ZM131.33-564.67q-8.42 0-14.54-6.09-6.12-6.09-6.12-14.91V-696q0-30.57 21.38-51.95 21.38-21.38 51.95-21.38h111q8.17 0 14.25 6.25t6.08 14.66q0 8.42-6.08 14.42T295-728H184q-12 0-22 10t-10 22v110.33q0 8.82-6.13 14.91t-14.54 6.09Zm534.34 374q-8.82 0-14.91-6.25t-6.09-14.66q0-8.42 6.09-14.42t14.91-6H777q12 0 22-10t10-22v-111q0-8.17 6.12-14.25 6.11-6.08 14.33-6.08 8.22 0 14.55 6.08t6.33 14.25v111q0 30.57-21.38 51.95-21.38 21.38-51.95 21.38H665.67Zm-481.67 0q-30.57 0-51.95-21.38-21.38-21.38-21.38-51.95v-111q0-8.17 6.25-14.25t14.66-6.08q8.42 0 14.42 6.08t6 14.25v111q0 12 10 22t22 10h111q8.17 0 14.25 6.25t6.08 14.67q0 8.41-6.08 14.41t-14.25 6H184Zm296.08-124.66q7.16 0 8.18-5.71 14.7-56.97 54.88-96.81 40.19-39.83 96.5-54.31 5.69-1.99 5.69-7.96 0-7.12-5.7-8.14-56.38-14.4-96.7-54.6-40.33-40.19-54.98-96.51.05-5.96-7.28-5.96-6.31 0-8.37 6.33-14.53 56.06-54.42 96.2-39.89 40.13-96.72 54.7-5.83 1.01-5.83 8.02 0 6.01 5.83 8.01 56.85 14.36 96.62 54.22 39.76 39.87 54.31 96.82 2 5.7 7.99 5.7Z"/></svg>