<svg xmlns="http://www.w3.org/2000/svg" height="24" viewBox="0 -960 960 960" width="24"><path d="M648.62-771.38Q657.23-780 670-780h117.69Q818-780 839-759q21 21 21 51.31V-590q0 12.77-8.62 21.38Q842.77-560 830-560t-21.38-8.62Q800-577.23 800-590v-117.69q0-4.62-3.85-8.46-3.84-3.85-8.46-3.85H670q-12.77 0-21.38-8.62Q640-737.23 640-750t8.62-21.38ZM130-560q-12.77 0-21.38-8.62Q100-577.23 100-590v-117.69Q100-738 121-759q21-21 51.31-21H290q12.77 0 21.38 8.62Q320-762.77 320-750t-8.62 21.38Q302.77-720 290-720H172.31q-4.62 0-8.46 3.85-3.85 3.84-3.85 8.46V-590q0 12.77-8.62 21.38Q142.77-560 130-560Zm540 380q-12.77 0-21.38-8.62Q640-197.23 640-210t8.62-21.38Q657.23-240 670-240h117.69q4.62 0 8.46-3.85 3.85-3.84 3.85-8.46V-370q0-12.77 8.62-21.38Q817.23-400 830-400t21.38 8.62Q860-382.77 860-370v117.69Q860-222 839-201q-21 21-51.31 21H670Zm-497.69 0Q142-180 121-201q-21-21-21-51.31V-370q0-12.77 8.62-21.38Q117.23-400 130-400t21.38 8.62Q160-382.77 160-370v117.69q0 4.62 3.85 8.46 3.84 3.85 8.46 3.85H290q12.77 0 21.38 8.62Q320-222.77 320-210t-8.62 21.38Q302.77-180 290-180H172.31ZM480-308.08q7 0 8-6 15.23-58.31 57.42-100.5T645.92-472q6-2 6-8 0-7-6-8-58.31-15.23-100.5-57.42T488-645.92q-1.62-6-8-6-6 0-8 6-15.23 58.31-57.42 100.5T314.08-488q-6 1-6 8 0 6 6 8 58.31 15.23 100.5 57.42T472-314.08q2 6 8 6Z"/></svg>