<svg xmlns="http://www.w3.org/2000/svg" height="20" viewBox="0 -960 960 960" width="20"><path d="M650.44-717.42q4.3-4.43 10.43-4.43h104.19q22.69 0 37.99 15.42t15.3 38.01v103.34q0 6.08-4.22 10.5-4.21 4.43-10.23 4.43-6.02 0-10.12-4.28-4.11-4.27-4.11-10.38v-103.5q0-9.23-7.69-16.92-7.69-7.69-16.92-7.69H660.81q-6.11 0-10.38-4.22-4.28-4.21-4.28-10.03 0-5.83 4.29-10.25ZM157.02-550.15q-6.02 0-10.44-4.29-4.43-4.3-4.43-10.43v-103.69q0-22.69 15.42-37.99t38.01-15.3H299.3q5.64 0 10.09 4.22 4.46 4.21 4.46 10.03 0 5.83-4.31 10.13-4.3 4.3-9.96 4.3H195.69q-9.23 0-16.92 7.69-7.69 7.69-7.69 16.92v103.75q0 6.11-4.24 10.38-4.25 4.28-9.82 4.28Zm504.06 312q-6.08 0-10.5-4.22-4.43-4.21-4.43-10.03 0-5.83 4.28-10.29 4.27-4.46 10.38-4.46h104q9.23 0 16.92-7.69 7.69-7.69 7.69-16.92v-105.82q0-5.66 4.02-9.96 4.02-4.31 10.04-4.31t10.44 4.44q4.43 4.44 4.43 10.31v105.31q0 23.04-15.42 38.34-15.42 15.3-38.01 15.3H661.08Zm-465.64 0q-22.69 0-37.99-15.45t-15.3-38.09v-105.39q0-5.87 4.22-10.32 4.21-4.45 10.03-4.45 5.83 0 10.25 4.45 4.43 4.45 4.43 10.32v105.39q0 9.23 7.69 16.92 7.69 7.69 16.92 7.69h103.89q5.66 0 9.96 4.22 4.31 4.21 4.31 10.03 0 5.83-4.32 10.25-4.32 4.43-10.02 4.43H195.44Zm284.53-91.23q6.93 0 7.92-5.95 12.64-51.41 49.12-88.06 36.49-36.65 87.96-49.17 5.65-1.76 5.65-7.7 0-6.93-6-7.92-50.71-12.89-87.01-49.31-36.31-36.42-49.65-87.17-.24-5.96-7.53-5.96-6.43 0-8.19 5.59-12.52 51.39-48.94 88.03-36.42 36.65-88.32 49.09-5.6.88-5.6 7.81 0 6 5.95 7.99 51.28 12.33 87.93 48.83 36.64 36.5 49.06 88.3 1.75 5.6 7.65 5.6Z"/></svg>