<svg xmlns="http://www.w3.org/2000/svg" height="40" viewBox="0 -960 960 960" width="40"><path d="M645.43-744.67Q648.85-748 654-748h118q23.85 0 39.93 16.07Q828-715.85 828-692v118q0 5.15-3.46 8.57-3.46 3.43-8.67 3.43-5.2 0-8.54-3.43Q804-568.85 804-574v-118q0-12-10-22t-22-10H654q-5.15 0-8.57-3.46-3.43-3.46-3.43-8.67 0-5.2 3.43-8.54ZM143.87-562q-5.2 0-8.54-3.43Q132-568.85 132-574v-118q0-23.85 16.07-39.93Q164.15-748 188-748h118q5.15 0 8.57 3.46 3.43 3.46 3.43 8.67 0 5.2-3.43 8.54Q311.15-724 306-724H188q-12 0-22 10t-10 22v118q0 5.15-3.46 8.57-3.46 3.43-8.67 3.43ZM654-212q-5.15 0-8.57-3.46-3.43-3.46-3.43-8.67 0-5.2 3.43-8.54Q648.85-236 654-236h118q12 0 22-10t10-22v-118q0-5.15 3.46-8.57 3.46-3.43 8.67-3.43 5.2 0 8.54 3.43Q828-391.15 828-386v118q0 23.85-16.07 39.93Q795.85-212 772-212H654Zm-466 0q-23.85 0-39.93-16.07Q132-244.15 132-268v-118q0-5.15 3.46-8.57 3.46-3.43 8.67-3.43 5.2 0 8.54 3.43Q156-391.15 156-386v118q0 12 10 22t22 10h118q5.15 0 8.57 3.46 3.43 3.46 3.43 8.67 0 5.2-3.43 8.54Q311.15-212 306-212H188Zm291.83-110.33q6.94 0 7.93-5.83 14.2-54.19 52.37-92.11 38.17-37.91 91.71-51.7 5.83-1.98 5.83-7.9 0-6.91-5.83-7.89-53.59-13.9-91.79-52.12-38.21-38.21-52.1-91.82-.99-5.97-7.95-5.97-5.93 0-7.9 5.95-13.81 53.5-51.78 91.63-37.97 38.13-92.16 51.99-5.83.99-5.83 7.93 0 5.95 5.83 7.93 54.19 14.2 92.04 52.04 37.84 37.85 51.7 92.04 1.99 5.83 7.93 5.83Z"/></svg>