<svg xmlns="http://www.w3.org/2000/svg" height="20" viewBox="0 -960 960 960" width="20"><path d="M652.6-723.27q4.6-4.73 11.46-4.73h103.57Q792-728 808-711.88q16 16.11 16 40.38v103.22q0 6.82-4.52 11.55T808.21-552q-6.75 0-11.35-4.58-4.61-4.58-4.61-11.42v-103.38q0-9.24-7.69-16.93-7.69-7.69-16.92-7.69H664q-6.84 0-11.42-4.52T648-711.79q0-6.75 4.6-11.48ZM152.21-552q-6.75 0-11.48-4.6T136-568.06v-103.57Q136-696 152.12-712q16.11-16 40.38-16h103.22q6.82 0 11.55 4.52t4.73 11.27q0 6.75-4.58 11.35-4.58 4.61-11.42 4.61H192.62q-9.24 0-16.93 7.69-7.69 7.69-7.69 16.92V-568q0 6.84-4.52 11.42T152.21-552Zm512.07 320q-6.82 0-11.55-4.52T648-247.79q0-6.75 4.58-11.51 4.58-4.77 11.42-4.77h103.38q9.24 0 16.93-7.69 7.69-7.69 7.69-16.93V-394q0-6.84 4.52-11.42t11.27-4.58q6.75 0 11.48 4.72t4.73 11.76v104.81Q824-264 807.88-248q-16.11 16-40.38 16H664.28Zm-471.91 0Q168-232 152-248.15q-16-16.15-16-40.47V-393.5q0-7.05 4.52-11.78 4.52-4.72 11.27-4.72t11.48 4.72q4.73 4.73 4.73 11.78v104.88q0 9.24 7.69 16.93 7.69 7.69 16.93 7.69H296q6.84 0 11.42 4.52t4.58 11.27q0 6.75-4.6 11.48T295.94-232H192.37ZM480-328.15q7 0 8-6 12.46-51.62 49.35-88.5 36.88-36.89 88.85-49.57 5.65-1.78 5.65-7.78 0-7-6-8-51.21-13.3-87.88-49.97-36.67-36.67-49.97-87.88-.23-6-7.5-6-6.5 0-8.28 5.65-12.68 51.97-49.57 88.85-36.88 36.89-88.85 49.47-5.65.88-5.65 7.88 0 6 6 8 51.62 12.46 88.5 49.35 36.89 36.88 49.57 88.85 1.78 5.65 7.78 5.65Z"/></svg>