<svg xmlns="http://www.w3.org/2000/svg" height="24" viewBox="0 -960 960 960" width="24"><path d="M645.73-754.27Q651.46-760 660-760h115.38q27.62 0 46.12 18.5Q840-723 840-695.38V-580q0 8.54-5.73 14.27T820-560q-8.54 0-14.27-5.73T800-580v-115.38q0-9.24-7.69-16.93-7.69-7.69-16.93-7.69H660q-8.54 0-14.27-5.73T640-740q0-8.54 5.73-14.27ZM140-560q-8.54 0-14.27-5.73T120-580v-115.38q0-27.62 18.5-46.12Q157-760 184.62-760H300q8.54 0 14.27 5.73T320-740q0 8.54-5.73 14.27T300-720H184.62q-9.24 0-16.93 7.69-7.69 7.69-7.69 16.93V-580q0 8.54-5.73 14.27T140-560Zm520 360q-8.54 0-14.27-5.73T640-220q0-8.54 5.73-14.27T660-240h115.38q9.24 0 16.93-7.69 7.69-7.69 7.69-16.93V-380q0-8.54 5.73-14.27T820-400q8.54 0 14.27 5.73T840-380v115.38q0 27.62-18.5 46.12Q803-200 775.38-200H660Zm-475.38 0q-27.62 0-46.12-18.5Q120-237 120-264.62V-380q0-8.54 5.73-14.27T140-400q8.54 0 14.27 5.73T160-380v115.38q0 9.24 7.69 16.93 7.69 7.69 16.93 7.69H300q8.54 0 14.27 5.73T320-220q0 8.54-5.73 14.27T300-200H184.62ZM480-316.15q7 0 8-6 14.46-55.62 54.35-95.5 39.88-39.89 95.5-54.35 6-2 6-8 0-7-6-8-55.62-14.46-95.5-54.35-39.89-39.88-54.35-95.5-1.23-6-8-6-6 0-8 6-14.46 55.62-54.35 95.5-39.88 39.89-95.5 54.35-6 1-6 8 0 6 6 8 55.62 14.46 95.5 54.35 39.89 39.88 54.35 95.5 2 6 8 6Z"/></svg>