<svg xmlns="http://www.w3.org/2000/svg" height="20" viewBox="0 -960 960 960" width="20"><path d="M314.83-223.63q-38.33 0-64.76-26.44-26.44-26.43-26.44-64.76v-330.34q0-37.33 26.44-63.26 26.43-25.94 64.76-27.94h330.34q37.33 2 63.26 27.94 25.94 25.93 27.94 63.26v330.34q-2 38.33-27.94 64.76-25.93 26.44-63.26 26.44H314.83Zm0 77.76h330.34q70.87 0 119.92-49.04 49.04-49.05 49.04-119.92v-330.34q0-70.87-49.04-119.92-49.05-49.04-119.92-49.04H314.83q-70.87 0-119.92 49.04-49.04 49.05-49.04 119.92v330.34q0 70.87 49.04 119.92 49.05 49.04 119.92 49.04ZM480-573.07q-36.39 0-68.63 10.08-32.24 10.08-59.54 30.21-12.68 9.74-29.48 10.63-16.81.89-29.76-9.55-12.22-10.19-12.62-24.52-.4-14.32 11.53-23.82 40.5-34.37 87.34-50.07Q425.67-645.8 480-645.8q57.57 0 103.91 16.2 46.35 16.21 88.85 52.08 11.94 8 9.54 22.19-2.39 14.2-14.37 22.89-12.71 9.2-27.41 10.3-14.69 1.1-27.87-7.64-28.3-21.13-62.03-32.21-33.73-11.08-70.62-11.08Zm.74 141.2q-9.52 0-19.53 1.76-10.01 1.76-19.04 6.52-19.95 9.5-34.04 6t-22.3-12.74q-8.22-9.24-9.45-20.95-1.23-11.72 8.77-20.68 18.57-16.47 42.64-24.32 24.08-7.85 52.21-7.85 28.61 0 53.3 8.34 24.7 8.33 43.03 24.81 9.76 7.96 8.66 19.32-1.1 11.36-9.32 20.59-8.21 9.24-23.17 12.74t-35.15-6q-8.52-4.52-17.93-6.03-9.4-1.51-18.68-1.51Zm-25.56 120.21q-10.59-10.6-10.59-24.82t10.59-24.69q10.6-10.48 24.82-10.48t24.82 10.48q10.59 10.47 10.59 24.69t-10.59 24.82q-10.6 10.59-24.82 10.59t-24.82-10.59ZM480-480Z"/></svg>