<svg xmlns="http://www.w3.org/2000/svg" height="20" viewBox="0 -960 960 960" width="20"><path d="M308.04-222.22q-36.04 0-60.93-24.89t-24.89-60.93v-343.92q0-35.04 24.89-59.43t60.93-26.39h343.92q35.04 2 59.43 26.39t26.39 59.43v343.92q-2 36.04-26.39 60.93t-59.43 24.89H308.04Zm0 97.44h343.92q76.78 0 130.02-53.24 53.24-53.24 53.24-130.02v-343.92q0-76.78-53.24-130.02-53.24-53.24-130.02-53.24H308.04q-76.78 0-130.02 53.24-53.24 53.24-53.24 130.02v343.92q0 76.78 53.24 130.02 53.24 53.24 130.02 53.24ZM480-579.61q-33.65 0-63.72 9.04-30.06 9.05-56.24 25.26-15.95 10.57-35.63 10.22-19.67-.35-33.93-13.74-13.7-12.82-12.78-29.87.91-17.04 15.3-27.04 41-30.78 87.48-45.11 46.48-14.33 99.52-14.33 55.61 0 101.52 14.77 45.91 14.76 88.91 46.54 14.4 9 13.24 25.82-1.15 16.83-14.28 28.66-13.69 11.82-31.52 13.74-17.83 1.91-33.78-7.66-27.18-17.21-58.31-26.76-31.13-9.54-65.78-9.54Zm.57 146.83q-8.87 0-18.31 1.43-9.43 1.44-17.3 5.87-22.26 10-38.74 6t-26.18-14.56q-9.69-10.57-11.32-24.26-1.63-13.7 9.37-23.96 17.61-16.13 43.65-25.55 26.04-9.41 58.26-9.41 33.35 0 60.17 9.98 26.83 9.98 43.87 26.11 10.44 9.26 8.53 22.61-1.92 13.35-11.61 23.91-9.7 10.57-26.96 14.57t-40.09-6q-7.87-3.87-16.45-5.31-8.59-1.43-16.89-1.43Zm-29.18 124.26q-11.91-11.91-11.91-28.61t11.91-28.33q11.91-11.63 28.61-11.63t28.61 11.63q11.91 11.63 11.91 28.33 0 16.7-11.91 28.61T480-296.61q-16.7 0-28.61-11.91ZM480-480Z"/></svg>