<svg xmlns="http://www.w3.org/2000/svg" height="24" viewBox="0 -960 960 960" width="24"><path d="M276.04-206.22q-29.04 0-49.43-20.39t-20.39-49.43v-407.92q0-29.04 20.39-49.43t49.43-20.39h407.92q29.04 0 49.43 20.39t20.39 49.43v407.92q0 29.04-20.39 49.43t-49.43 20.39H276.04Zm0 105.44h407.92q72.78 0 124.02-51.24 51.24-51.24 51.24-124.02v-407.92q0-72.78-51.24-124.02-51.24-51.24-124.02-51.24H276.04q-72.78 0-124.02 51.24-51.24 51.24-51.24 124.02v407.92q0 72.78 51.24 124.02 51.24 51.24 124.02 51.24ZM480-589.61q-37.65 0-72.72 10.54-35.06 10.55-65.24 29.76-16.95 10.57-36.63 9.72-19.67-.85-32.93-15.24-13.7-14.82-12.78-33.87.91-19.04 16.3-30.04 43-31.78 95.98-48.11 52.98-16.33 108.02-16.33 54.61 0 108.02 16.77 53.41 16.76 96.41 48.54 14.4 11 14.74 29.32.35 18.33-12.78 33.16-12.69 13.82-31.52 15.74-18.83 1.91-34.78-8.66-30.18-20.21-65.81-30.76-35.63-10.54-74.28-10.54Zm.57 162.83q-9.87 0-19.81 2.43-9.93 2.44-18.8 6.87-23.26 11-41.74 6t-29.18-17.56q-10.69-12.57-11.32-28.26-.63-15.7 11.37-25.96 19.61-16.13 48.15-26.05 28.54-9.91 61.76-9.91 34.35 0 62.67 9.98 28.33 9.98 47.37 26.11 11.44 10.26 10.53 25.61-.92 15.35-11.61 27.91-10.7 12.57-29.46 17.57t-42.59-6q-8.87-3.87-18.45-6.31-9.59-2.43-18.89-2.43Zm-32.18 137.26q-12.91-12.91-12.91-31.61t12.91-31.33q12.91-12.63 31.61-12.63t31.61 12.63q12.91 12.63 12.91 31.33 0 18.7-12.91 31.61T480-276.61q-18.7 0-31.61-12.91ZM480-480Z"/></svg>