<svg xmlns="http://www.w3.org/2000/svg" height="24" viewBox="0 -960 960 960" width="24"><path d="M273-86h414q78 0 132.5-54.5T874-273v-414q0-78-54.5-132.5T687-874H273q-78 0-132.5 54.5T86-687v414q0 78 54.5 132.5T273-86Zm207-511q-32 0-62.5 7.5T359-568q-20 11-42.5 9.5T279-577q-15-17-13-38t20-32q43-27 92.5-40.5T480-701q52 0 101.5 13.5T674-647q17 11 18 31.5T679-578q-14 16-35 19t-40-8q-28-15-59.5-22.5T480-597Zm1 165q-9 0-18.5 2t-17.5 6q-25 11-45 6t-32-18q-12-13-13.5-30t10.5-29q17-17 47.5-28t68.5-11q40 0 70.5 11.5T598-494q11 12 9 28t-14 29q-12 13-32.5 18t-46.5-6q-8-3-16.5-5t-16.5-2Zm-35 144q-14-14-14-34t14-33.5q14-13.5 34-13.5t34 13.5q14 13.5 14 33.5t-14 34q-14 14-34 14t-34-14Z"/></svg>