<svg xmlns="http://www.w3.org/2000/svg" height="48" viewBox="0 -960 960 960" width="48"><path d="M270-99h421q71 0 121-50t50-121v-421q0-71-50-121t-121-50H270q-71 0-121 50T99-691v421q0 71 50 121t121 50Zm210-508q-40 0-79 11.5T330-560q-15 8-31.5 8T271-563q-12-10-11.5-25t14.5-25q44-35 96.5-52T480-682q60 0 112.5 16.5T690-612q12 11 11.5 25.5T689-563q-11 10-26.5 12t-27.5-6q-32-26-73-38t-82-12Zm2 169q-14 0-28.5 5T426-422q-16 11-30.5 7.5T372-427q-9-9-10.5-22.5T370-471q17-17 45.5-29t65.5-12q37 0 66.5 11.5T596-470q8 10 6 21.5t-11 20q-9 8.5-24 11t-32-6.5q-13-7-26.5-10.5T482-438Zm-28 141.5q-9-9.5-9-25t9-25q9-9.5 26-9.5t26 9.5q9 9.5 9 25t-9 25q-9 9.5-26 9.5t-26-9.5Z"/></svg>