<svg xmlns="http://www.w3.org/2000/svg" height="40" viewBox="0 -960 960 960" width="40"><path d="M268-182.33q-35.67 0-60.67-25t-25-60.67v-424.67q0-35.66 25-60.66t60.67-25h424.67q35 0 60.33 25.33t25.33 60.33V-268q0 35.67-25 60.67t-60.66 25H268Zm0 83.66h424.67q70.33 0 119.5-49.5 49.16-49.5 49.16-119.83v-424.67q0-70.33-49.16-119.5-49.17-49.16-119.5-49.16H268q-70.33 0-119.83 49.16-49.5 49.17-49.5 119.5V-268q0 70.33 49.5 119.83T268-98.67Zm212-501.66q-38.67 0-75.83 9.83-37.17 9.83-67.84 31.17-16 9.66-33.83 9.5-17.83-.17-30.17-13.17-13-12.33-12-29T276-618.33q43.67-33 95.83-49.5Q424-684.33 480-684.33q57.33 0 109.83 16.16 52.5 16.17 96.84 50.5 13 9.67 12.66 25.84-.33 16.16-11.66 28.5-12 12-28.67 14T628-556q-31.33-23-69.83-33.67-38.5-10.66-78.17-10.66Zm1.67 166q-15.34 0-30 4.16Q437-426 424-419q-20 11.33-36 6.17-16-5.17-25-15.84-9-10.66-9-25.16t11.33-24.5q24.67-22 54-31 29.34-9 61.67-9t62 9q29.67 9 55 31.66 11.33 10 10.83 24.84-.5 14.83-10.16 25.5-9.67 10.66-27.34 15.16-17.66 4.5-39.33-7.5-11.33-6.66-24.17-10.66-12.83-4-26.16-4Zm-29.34 140.66q-11-11-11-27.66 0-16.67 11-27.67T480-360q16.67 0 27.67 11t11 27.67q0 16.66-11 27.66t-27.67 11q-16.67 0-27.67-11ZM480-480Z"/></svg>