<svg xmlns="http://www.w3.org/2000/svg" height="40" viewBox="0 -960 960 960" width="40"><path d="M279.17-190q-37.34 0-63.25-25.92Q190-241.83 190-279.17v-402.66q0-37 25.92-62.59Q241.83-770 279.17-770h402.66q36.34 0 62.25 25.92Q770-718.17 770-681.83v402.66q0 37.34-25.58 63.25Q718.83-190 681.83-190H279.17Zm0 63.33h402.66q63 0 107.25-44.58t44.25-107.92v-402.66q0-62.67-44.41-107.09-44.42-44.41-107.09-44.41H279.17q-63.34 0-107.92 44.25t-44.58 107.25v402.66q0 63.34 44.58 107.92t107.92 44.58ZM480-589.33q-46.5 0-89.75 14.08t-77.08 43.75q-10.67 8.5-23.42 10.08-12.75 1.59-23.08-7.08-10.17-8.67-11-21.58-.84-12.92 8.66-21.75 43.84-40.67 99.59-60.75 55.75-20.09 116.08-20.09 61.33 0 118.33 20.34 57 20.33 100.84 62.5 8.5 8.66 6.41 20.83-2.08 12.17-11.58 20.33-9.67 8-22 8.34-12.33.33-21.83-8.17-34.17-31-78.5-45.92-44.34-14.91-91.67-14.91Zm1.17 160.66q-14.34 0-28.25 4.34Q439-420 426.5-413q-16.33 9.83-29.08 6.33T377.33-419q-7.33-8.83-7.25-20.17.09-11.33 9.42-18.66 22-17 47.83-25.59Q453.17-492 481-492q27.83 0 53.83 8.67 26 8.66 48.34 25.66 9 7 9.16 18.34.17 11.33-7 20-7.16 8.66-20.5 12-13.33 3.33-29.33-6.84-12.67-7-26.5-10.75t-27.83-3.75ZM457.5-297.5q-9-9-9-22.5t9-22.67q9-9.16 22.5-9.16t22.67 9.16q9.16 9.17 9.16 22.67 0 13.5-9.16 22.5-9.17 9-22.67 9-13.5 0-22.5-9ZM480-480Z"/></svg>