<svg xmlns="http://www.w3.org/2000/svg" height="24" viewBox="0 -960 960 960" width="24"><path d="M268-84.65h424q76.43 0 129.89-53.46 53.46-53.46 53.46-129.89v-424q0-76.43-53.46-129.89-53.46-53.46-129.89-53.46H268q-76.43 0-129.89 53.46Q84.65-768.43 84.65-692v424q0 76.43 53.46 129.89Q191.57-84.65 268-84.65Zm212-512.26q-30.8 0-60.35 6.02-29.54 6.02-57.06 19.06-20.72 10.76-43.82 9.15-23.1-1.62-38.34-19.1-15.23-17.24-13.11-38.72 2.11-21.48 20.83-32.48 43-26.04 91.78-38.94 48.79-12.91 100.07-12.91 51.52 0 100.18 12.79 48.67 12.78 91.67 38.82 17.48 11.24 18.72 32.22 1.23 20.98-13.24 38.22-14.24 16.48-35.72 19.6-21.48 3.11-40.96-6.89-27.52-14.04-58.18-20.44-30.67-6.4-62.47-6.4Zm1 164.71q-11.28 0-22.8 2.38-11.53 2.39-22.05 6.91-26 12-46.36 5.74t-31.83-20.26q-11.48-14-11.84-31.74-.36-17.74 13.4-29.98 24.09-23.05 55.33-31.76 31.24-8.72 66.15-8.72 35.15 0 66.51 8.72 31.36 8.71 55.45 32 13.52 12.48 12.54 30.74-.98 18.26-13.34 32.14-12.36 13.88-34.48 20.14-22.11 6.26-51.11-7.26-8-3.52-17.03-6.28-9.02-2.77-18.54-2.77Zm-35.6 144.44q-14.12-14.24-14.12-34.48 0-20.24 14.12-34.36 14.12-14.12 34.6-14.12 20.48 0 34.6 14.12 14.12 14.12 14.12 34.36 0 20.24-14.12 34.48-14.12 14.24-34.6 14.24-20.48 0-34.6-14.24Z"/></svg>