<svg xmlns="http://www.w3.org/2000/svg" version="1.1" width="3300" height="2000"><g id="Notes"><style>
    text {
      font-family: monospace;
      text-anchor: middle;
    }
    text.emphasis {
      font-weight:bold;
    }
    text.lanchor {
      text-anchor: start;
    }
  </style><rect height="2200" id="artboard" fill="white" width="3300" x="0" y="0"/><line id="" style="fill:none;stroke:black;stroke-width:0.5;" x1="263" x2="3036" y1="292" y2="292"/><text class="lanchor emphasis" transform="matrix(1 0 0 1 263 322)">Weight/Scale Variations</text><text transform="matrix(1 0 0 1 559.711 322)">Ultralight</text><text transform="matrix(1 0 0 1 856.422 322)">Thin</text><text transform="matrix(1 0 0 1 1153.13 322)">Light</text><text transform="matrix(1 0 0 1 1449.84 322)">Regular</text><text transform="matrix(1 0 0 1 1746.56 322)">Medium</text><text transform="matrix(1 0 0 1 2043.27 322)">Semibold</text><text transform="matrix(1 0 0 1 2339.98 322)">Bold</text><text transform="matrix(1 0 0 1 2636.69 322)">Heavy</text><text transform="matrix(1 0 0 1 2933.4 322)">Black</text><text id="template-version" style="text-anchor: end;" transform="matrix(1 0 0 1 3036 1933)">Template v.1.0</text><text class="lanchor" transform="matrix(1 0 0 1 263 726)">Small</text><text class="lanchor" transform="matrix(1 0 0 1 263 1156)">Medium</text><text class="lanchor" transform="matrix(1 0 0 1 263 1586)">Large</text></g><g id="Guides"><g id="H-reference" style="fill:#27AAE1;stroke:none;" transform="matrix(1 0 0 1 339 696)"><path d="M 54.9316 0 L 57.666 0 L 30.5664 -70.459 L 28.0762 -70.459 L 0.976562 0 L 3.66211 0 L 12.9395 -24.4629 L 45.7031 -24.4629 Z M 29.1992 -67.0898 L 29.4434 -67.0898 L 44.8242 -26.709 L 13.8184 -26.709 Z"/></g><line id="Baseline-S" style="fill:none;stroke:#27AAE1;opacity:1;stroke-width:0.577;" x1="263" x2="3036" y1="696" y2="696"/><line id="Capline-S" style="fill:none;stroke:#27AAE1;opacity:1;stroke-width:0.577;" x1="263" x2="3036" y1="625.541" y2="625.541"/><g id="H-reference" style="fill:#27AAE1;stroke:none;" transform="matrix(1 0 0 1 339 1126)"><path d="M 54.9316 0 L 57.666 0 L 30.5664 -70.459 L 28.0762 -70.459 L 0.976562 0 L 3.66211 0 L 12.9395 -24.4629 L 45.7031 -24.4629 Z M 29.1992 -67.0898 L 29.4434 -67.0898 L 44.8242 -26.709 L 13.8184 -26.709 Z"/></g><line id="Baseline-M" style="fill:none;stroke:#27AAE1;opacity:1;stroke-width:0.577;" x1="263" x2="3036" y1="1126" y2="1126"/><line id="Capline-M" style="fill:none;stroke:#27AAE1;opacity:1;stroke-width:0.577;" x1="263" x2="3036" y1="1055.54" y2="1055.54"/><g id="H-reference" style="fill:#27AAE1;stroke:none;" transform="matrix(1 0 0 1 339 1556)"><path d="M 54.9316 0 L 57.666 0 L 30.5664 -70.459 L 28.0762 -70.459 L 0.976562 0 L 3.66211 0 L 12.9395 -24.4629 L 45.7031 -24.4629 Z M 29.1992 -67.0898 L 29.4434 -67.0898 L 44.8242 -26.709 L 13.8184 -26.709 Z"/></g><line id="Baseline-L" style="fill:none;stroke:#27AAE1;opacity:1;stroke-width:0.577;" x1="263" x2="3036" y1="1556" y2="1556"/><line id="Capline-L" style="fill:none;stroke:#27AAE1;opacity:1;stroke-width:0.577;" x1="263" x2="3036" y1="1485.54" y2="1485.54"/><rect height="119.336" id="left-margin" style="fill:darkred;stroke:none;opacity:0.4;" width="12.4512" x="1394.06" y="1030.79"/><rect height="119.336" id="right-margin" style="fill:darkgreen;stroke:none;opacity:0.4;" width="12.4512" x="1502.5112" y="1030.79"/><rect x="1406.5112" y="1045" width="96" height="96" fill="none" stroke="blue" stroke-dasharray="5"/><rect x="1394.06" y="1030.79" width="120.9024" height="119.336" fill="none" stroke="blue"/></g><g id="Symbols"><g id="Bold-L" transform="matrix(1 0 0 1 2266 1556)"><path d="M28.058 26.045 Q20.801 26.045 16.327 20.563 Q11.852 15.08 13.464 7.985 L34.104 -85.056 Q35.153 -90.055 39.224 -93.361 Q43.296 -96.666 48.536 -96.666 H106.103 Q111.424 -96.666 115.415 -93.361 Q119.406 -90.055 120.696 -85.056 L141.416 7.985 Q142.787 15.08 138.312 20.563 Q133.838 26.045 126.823 26.045 H28.058 Z M71.192 -35.875 V-4.673 H83.689 V-35.875 L91.913 -27.409 L100.701 -36.036 L77.4 -59.337 L54.099 -36.036 L62.888 -27.49 L71.192 -35.875 Z"/></g><g id="Semibold-L" transform="matrix(1 0 0 1 1970.27 1556)"><path d="M26.866 24.292 Q20.801 24.292 17.062 19.687 Q13.324 15.08 14.656 9.177 L35.646 -85.126 Q36.555 -89.284 39.959 -92.064 Q43.365 -94.844 47.765 -94.844 H106.944 Q111.354 -94.844 114.713 -92.064 Q118.074 -89.284 119.154 -85.126 L140.225 9.177 Q141.384 15.08 137.646 19.687 Q133.907 24.292 128.015 24.292 H26.866 Z M71.893 -38.539 V-5.163 H82.987 V-38.539 L92.824 -28.532 L100.631 -36.246 L77.4 -59.477 L54.169 -36.246 L61.976 -28.612 L71.893 -38.539 Z"/></g><g id="Medium-L" transform="matrix(1 0 0 1 1674.31 1556)"><path d="M25.973 22.978 Q20.801 22.978 17.615 19.029 Q14.429 15.08 15.549 10.07 L36.804 -85.179 Q37.607 -88.705 40.512 -91.09 Q43.418 -93.477 47.187 -93.477 H107.575 Q111.301 -93.477 114.188 -91.09 Q117.074 -88.705 117.996 -85.179 L139.331 10.07 Q140.333 15.08 137.146 19.029 Q133.96 22.978 128.908 22.978 H25.973 Z M72.419 -40.537 V-5.533 H82.462 V-40.537 L93.507 -29.372 L100.578 -36.404 L77.4 -59.582 L54.222 -36.404 L61.293 -29.452 L72.419 -40.537 Z"/></g><g id="Regular-L" transform="matrix(1 0 0 1 1378.56 1556)"><path d="M25.316 22.014 Q20.801 22.014 18.02 18.547 Q15.238 15.08 16.206 10.726 L37.652 -85.217 Q38.377 -88.281 40.917 -90.377 Q43.457 -92.474 46.763 -92.474 H108.038 Q111.263 -92.474 113.802 -90.377 Q116.342 -88.281 117.148 -85.217 L138.675 10.726 Q139.562 15.08 136.78 18.547 Q133.999 22.014 129.564 22.014 H25.316 Z M72.804 -42.002 V-5.802 H82.076 V-42.002 L94.009 -29.989 L100.539 -36.52 L77.4 -59.659 L54.261 -36.52 L60.791 -30.07 L72.804 -42.002 Z"/></g><g id="Light-L" transform="matrix(1 0 0 1 1082.77 1556)"><path d="M28.014 19.098 Q23.53 19.098 20.842 15.725 Q18.154 12.352 19.121 8.059 L39.419 -82.489 Q40.084 -85.49 42.576 -87.525 Q45.069 -89.558 48.375 -89.558 H106.456 Q109.587 -89.558 112.082 -87.525 Q114.575 -85.49 115.35 -82.489 L135.79 8.059 Q136.646 12.352 133.958 15.725 Q131.27 19.098 126.959 19.098 H28.014 Z M73.859 -43.491 V-8.066 H80.928 V-43.491 L94.07 -30.268 L99.082 -35.28 L77.339 -56.962 L55.718 -35.404 L60.73 -30.473 L73.859 -43.491 Z"/></g><g id="Thin-L" transform="matrix(1 0 0 1 787.282 1556)"><path d="M30.712 16.185 Q26.26 16.185 23.663 12.903 Q21.067 9.622 22.035 5.392 L41.186 -79.759 Q41.788 -82.699 44.236 -84.672 Q46.682 -86.645 49.988 -86.645 H104.874 Q107.913 -86.645 110.359 -84.672 Q112.807 -82.699 113.551 -79.759 L132.907 5.392 Q133.733 9.622 131.137 12.903 Q128.54 16.185 124.354 16.185 H30.712 Z M74.914 -44.979 V-10.33 H79.782 V-44.979 L94.133 -30.547 L97.624 -34.04 L77.276 -54.264 L57.176 -34.287 L60.667 -30.876 L74.914 -44.979 Z"/></g><g id="Ultralight-L" transform="matrix(1 0 0 1 491.205 1556)"><path d="M32.331 14.435 Q27.896 14.435 25.357 11.21 Q22.817 7.985 23.784 3.793 L42.248 -78.122 Q42.812 -81.025 45.231 -82.96 Q47.649 -84.895 50.955 -84.895 H103.926 Q106.909 -84.895 109.328 -82.96 Q111.746 -81.025 112.472 -78.122 L131.177 3.793 Q131.983 7.985 129.443 11.21 Q126.904 14.435 122.792 14.435 H32.331 Z M75.546 -45.872 V-11.687 H79.093 V-45.872 L94.17 -30.715 L96.75 -33.295 L77.239 -52.645 L58.05 -33.617 L60.63 -31.118 L75.546 -45.872 Z"/></g><g id="Bold-M" transform="matrix(1 0 0 1 2281.8 1126)"><path d="M25.688 12.77 Q18.438 12.77 13.875 7.176 Q9.312 1.583 10.938 -5.605 L25.375 -71.355 Q26.562 -76.605 30.625 -79.917 Q34.688 -83.23 40.125 -83.23 H79.688 Q85.125 -83.23 89.188 -79.917 Q93.25 -76.605 94.438 -71.355 L108.938 -5.605 Q110.562 1.583 106 7.176 Q101.438 12.77 94.188 12.77 H25.688 Z M53.688 -28.48 V-13.48 H66.312 V-28.48 L70.625 -24.105 L79.5 -32.98 L60 -52.48 L40.5 -32.98 L49.375 -24.167 L53.688 -28.48 Z"/></g><g id="Semibold-M" transform="matrix(1 0 0 1 1985.97 1126)"><path d="M24.492 10.923 Q18.438 10.923 14.636 6.253 Q10.834 1.583 12.188 -4.41 L27.005 -71.464 Q27.975 -75.844 31.386 -78.614 Q34.796 -81.382 39.31 -81.382 H80.558 Q85.071 -81.382 88.481 -78.614 Q91.891 -75.844 92.861 -71.464 L107.743 -4.41 Q109.095 1.583 105.294 6.253 Q101.491 10.923 95.438 10.923 H24.492 Z M54.394 -31.251 V-13.969 H65.606 V-31.251 L71.549 -25.3 L79.446 -33.197 L60 -52.642 L40.554 -33.197 L48.451 -25.309 L54.394 -31.251 Z"/></g><g id="Medium-M" transform="matrix(1 0 0 1 1689.91 1126)"><path d="M23.595 9.536 Q18.438 9.536 15.206 5.56 Q11.975 1.583 13.125 -3.512 L28.229 -71.545 Q29.035 -75.274 31.956 -77.635 Q34.877 -79.996 38.699 -79.996 H81.209 Q85.03 -79.996 87.951 -77.635 Q90.873 -75.274 91.679 -71.545 L106.845 -3.512 Q107.995 1.583 104.764 5.56 Q101.532 9.536 96.375 9.536 H23.595 Z M54.924 -33.33 V-14.336 H65.076 V-33.33 L72.241 -26.197 L79.405 -33.36 L60 -52.765 L40.595 -33.36 L47.759 -26.165 L54.924 -33.33 Z"/></g><g id="Regular-M" transform="matrix(1 0 0 1 1394.06 1126)"><path d="M22.938 8.52 Q18.438 8.52 15.625 5.051 Q12.812 1.583 13.812 -2.855 L29.125 -71.605 Q29.812 -74.855 32.375 -76.917 Q34.938 -78.98 38.25 -78.98 H81.688 Q85 -78.98 87.562 -76.917 Q90.125 -74.855 90.812 -71.605 L106.188 -2.855 Q107.188 1.583 104.375 5.051 Q101.562 8.52 97.062 8.52 H22.938 Z M55.312 -34.855 V-14.605 H64.688 V-34.855 L72.75 -26.855 L79.375 -33.48 L60 -52.855 L40.625 -33.48 L47.25 -26.792 L55.312 -34.855 Z"/></g><g id="Light-M" transform="matrix(1 0 0 1 1098.18 1126)"><path d="M24.164 6.26 Q20.024 6.26 17.476 3.104 Q14.928 -0.052 15.88 -4.105 L30.64 -70.019 Q31.279 -72.931 33.612 -74.826 Q35.947 -76.72 38.971 -76.72 H80.942 Q83.942 -76.72 86.276 -74.826 Q88.61 -72.931 89.274 -70.019 L104.144 -4.105 Q105.073 -0.052 102.524 3.104 Q99.976 6.26 95.86 6.26 H24.164 Z M56.466 -37.355 V-15.686 H63.461 V-37.355 L72.797 -28.032 L77.764 -32.999 L59.953 -50.811 L42.236 -33.095 L47.203 -28.115 L56.466 -37.355 Z"/></g><g id="Thin-M" transform="matrix(1 0 0 1 802.565 1126)"><path d="M25.39 4.001 Q21.61 4.001 19.328 1.158 Q17.044 -1.686 17.948 -5.355 L32.154 -68.432 Q32.745 -71.009 34.851 -72.735 Q36.956 -74.461 39.693 -74.461 H80.198 Q82.885 -74.461 84.99 -72.735 Q87.096 -71.009 87.735 -68.432 L102.101 -5.355 Q102.956 -1.686 100.672 1.158 Q98.39 4.001 94.659 4.001 H25.39 Z M57.62 -39.855 V-16.769 H62.235 V-39.855 L72.846 -29.211 L76.154 -32.519 L59.904 -48.769 L43.846 -32.711 L47.154 -29.436 L57.62 -39.855 Z"/></g><g id="Ultralight-M" transform="matrix(1 0 0 1 506.415 1126)"><path d="M26.125 2.645 Q22.562 2.645 20.438 -0.011 Q18.312 -2.667 19.188 -6.105 L33.062 -67.48 Q33.625 -69.855 35.594 -71.48 Q37.562 -73.105 40.125 -73.105 H79.75 Q82.25 -73.105 84.219 -71.48 Q86.188 -69.855 86.812 -67.48 L100.875 -6.105 Q101.688 -2.667 99.562 -0.011 Q97.438 2.645 93.938 2.645 H26.125 Z M58.312 -41.355 V-17.417 H61.5 V-41.355 L72.875 -29.917 L75.188 -32.23 L59.875 -47.542 L44.812 -32.48 L47.125 -30.23 L58.312 -41.355 Z"/></g><g id="Bold-S" transform="matrix(1 0 0 1 2294.23 696)"><path d="M20.958 0.275 Q15.533 0.275 12.229 -3.941 Q8.926 -8.157 10.208 -13.434 L22.388 -62.155 Q23.325 -65.902 26.234 -68.319 Q29.144 -70.735 33.138 -70.735 H61.295 Q65.29 -70.735 68.199 -68.319 Q71.109 -65.902 72.046 -62.155 L84.275 -13.434 Q85.557 -8.157 82.253 -3.941 Q78.949 0.275 73.525 0.275 H20.958 Z M42.754 -29.806 V-19.647 H51.926 V-29.806 L54.638 -26.945 L61.148 -33.455 L47.34 -47.262 L33.532 -33.455 L40.042 -27.093 L42.754 -29.806 Z"/></g><g id="Semibold-S" transform="matrix(1 0 0 1 1998.1 696)"><path d="M20.015 -1.183 Q15.533 -1.183 12.83 -4.67 Q10.126 -8.157 11.194 -12.491 L23.674 -62.24 Q24.439 -65.302 26.835 -67.29 Q29.229 -69.277 32.495 -69.277 H61.982 Q65.247 -69.277 67.642 -67.29 Q70.037 -65.302 70.802 -62.24 L83.332 -12.491 Q84.399 -8.157 81.696 -4.67 Q78.992 -1.183 74.511 -1.183 H20.015 Z M43.311 -31.992 V-20.033 H51.369 V-31.992 L55.367 -27.888 L61.105 -33.626 L47.34 -47.39 L33.575 -33.626 L39.313 -27.994 L43.311 -31.992 Z"/></g><g id="Medium-S" transform="matrix(1 0 0 1 1701.85 696)"><path d="M19.307 -2.276 Q15.533 -2.276 13.28 -5.216 Q11.026 -8.157 11.934 -11.783 L24.639 -62.305 Q25.276 -64.852 27.285 -66.518 Q29.294 -68.184 32.013 -68.184 H62.496 Q65.215 -68.184 67.224 -66.518 Q69.233 -64.852 69.869 -62.305 L82.624 -11.783 Q83.531 -8.157 81.278 -5.216 Q79.024 -2.276 75.251 -2.276 H19.307 Z M43.729 -33.632 V-20.323 H50.951 V-33.632 L55.913 -28.596 L61.073 -33.755 L47.34 -47.487 L33.607 -33.755 L38.767 -28.669 L43.729 -33.632 Z"/></g><g id="Regular-S" transform="matrix(1 0 0 1 1405.73 696)"><path d="M18.788 -3.078 Q15.533 -3.078 13.61 -5.618 Q11.687 -8.157 12.476 -11.264 L25.347 -62.352 Q25.889 -64.522 27.615 -65.952 Q29.341 -67.382 31.659 -67.382 H62.873 Q65.191 -67.382 66.917 -65.952 Q68.643 -64.522 69.185 -62.352 L82.105 -11.264 Q82.894 -8.157 80.971 -5.618 Q79.048 -3.078 75.793 -3.078 H18.788 Z M44.036 -34.835 V-20.535 H50.644 V-34.835 L56.315 -29.115 L61.049 -33.849 L47.34 -47.558 L33.631 -33.849 L38.365 -29.165 L44.036 -34.835 Z"/></g><g id="Light-S" transform="matrix(1 0 0 1 1109.75 696)"><path d="M19.756 -4.861 Q16.785 -4.861 15.071 -7.154 Q13.356 -9.447 14.107 -12.25 L26.542 -61.1 Q27.046 -63.004 28.591 -64.302 Q30.138 -65.599 32.228 -65.599 H62.286 Q64.357 -65.599 65.902 -64.302 Q67.448 -63.004 67.971 -61.1 L80.493 -12.25 Q81.226 -9.447 79.51 -7.154 Q77.796 -4.861 74.845 -4.861 H19.756 Z M44.946 -36.808 V-21.388 H49.676 V-36.808 L56.352 -30.044 L59.778 -33.47 L47.303 -45.946 L34.902 -33.545 L38.328 -30.208 L44.946 -36.808 Z"/></g><g id="Thin-S" transform="matrix(1 0 0 1 814.015 696)"><path d="M20.723 -6.644 Q18.037 -6.644 16.532 -8.69 Q15.026 -10.736 15.739 -13.237 L27.736 -59.849 Q28.203 -61.487 29.569 -62.652 Q30.934 -63.816 32.797 -63.816 H61.698 Q63.522 -63.816 64.887 -62.652 Q66.253 -61.487 66.757 -59.849 L78.881 -13.237 Q79.556 -10.736 78.05 -8.69 Q76.545 -6.644 73.897 -6.644 H20.723 Z M45.857 -38.78 V-22.242 H48.709 V-38.78 L56.391 -30.974 L58.507 -33.091 L47.264 -44.334 L36.173 -33.243 L38.289 -31.25 L45.857 -38.78 Z"/></g><g id="Ultralight-S" transform="matrix(1 0 0 1 517.792 696)"><path d="M21.303 -7.714 Q18.788 -7.714 17.407 -9.612 Q16.027 -11.511 16.717 -13.828 L28.453 -59.097 Q28.897 -60.577 30.155 -61.661 Q31.412 -62.746 33.138 -62.746 H61.345 Q63.021 -62.746 64.279 -61.661 Q65.536 -60.577 66.029 -59.097 L77.914 -13.828 Q78.555 -11.511 77.174 -9.612 Q75.793 -7.714 73.328 -7.714 H21.303 Z M46.403 -39.964 V-22.754 H48.129 V-39.964 L56.413 -31.532 L57.745 -32.863 L47.241 -43.367 L36.935 -33.06 L38.267 -31.877 L46.403 -39.964 Z"/></g></g></svg>