<svg xmlns="http://www.w3.org/2000/svg" version="1.1" width="3300" height="2000"><g id="Notes"><style>
    text {
      font-family: monospace;
      text-anchor: middle;
    }
    text.emphasis {
      font-weight:bold;
    }
    text.lanchor {
      text-anchor: start;
    }
  </style><rect height="2200" id="artboard" fill="white" width="3300" x="0" y="0"/><line id="" style="fill:none;stroke:black;stroke-width:0.5;" x1="263" x2="3036" y1="292" y2="292"/><text class="lanchor emphasis" transform="matrix(1 0 0 1 263 322)">Weight/Scale Variations</text><text transform="matrix(1 0 0 1 559.711 322)">Ultralight</text><text transform="matrix(1 0 0 1 856.422 322)">Thin</text><text transform="matrix(1 0 0 1 1153.13 322)">Light</text><text transform="matrix(1 0 0 1 1449.84 322)">Regular</text><text transform="matrix(1 0 0 1 1746.56 322)">Medium</text><text transform="matrix(1 0 0 1 2043.27 322)">Semibold</text><text transform="matrix(1 0 0 1 2339.98 322)">Bold</text><text transform="matrix(1 0 0 1 2636.69 322)">Heavy</text><text transform="matrix(1 0 0 1 2933.4 322)">Black</text><text id="template-version" style="text-anchor: end;" transform="matrix(1 0 0 1 3036 1933)">Template v.1.0</text><text class="lanchor" transform="matrix(1 0 0 1 263 726)">Small</text><text class="lanchor" transform="matrix(1 0 0 1 263 1156)">Medium</text><text class="lanchor" transform="matrix(1 0 0 1 263 1586)">Large</text></g><g id="Guides"><g id="H-reference" style="fill:#27AAE1;stroke:none;" transform="matrix(1 0 0 1 339 696)"><path d="M 54.9316 0 L 57.666 0 L 30.5664 -70.459 L 28.0762 -70.459 L 0.976562 0 L 3.66211 0 L 12.9395 -24.4629 L 45.7031 -24.4629 Z M 29.1992 -67.0898 L 29.4434 -67.0898 L 44.8242 -26.709 L 13.8184 -26.709 Z"/></g><line id="Baseline-S" style="fill:none;stroke:#27AAE1;opacity:1;stroke-width:0.577;" x1="263" x2="3036" y1="696" y2="696"/><line id="Capline-S" style="fill:none;stroke:#27AAE1;opacity:1;stroke-width:0.577;" x1="263" x2="3036" y1="625.541" y2="625.541"/><g id="H-reference" style="fill:#27AAE1;stroke:none;" transform="matrix(1 0 0 1 339 1126)"><path d="M 54.9316 0 L 57.666 0 L 30.5664 -70.459 L 28.0762 -70.459 L 0.976562 0 L 3.66211 0 L 12.9395 -24.4629 L 45.7031 -24.4629 Z M 29.1992 -67.0898 L 29.4434 -67.0898 L 44.8242 -26.709 L 13.8184 -26.709 Z"/></g><line id="Baseline-M" style="fill:none;stroke:#27AAE1;opacity:1;stroke-width:0.577;" x1="263" x2="3036" y1="1126" y2="1126"/><line id="Capline-M" style="fill:none;stroke:#27AAE1;opacity:1;stroke-width:0.577;" x1="263" x2="3036" y1="1055.54" y2="1055.54"/><g id="H-reference" style="fill:#27AAE1;stroke:none;" transform="matrix(1 0 0 1 339 1556)"><path d="M 54.9316 0 L 57.666 0 L 30.5664 -70.459 L 28.0762 -70.459 L 0.976562 0 L 3.66211 0 L 12.9395 -24.4629 L 45.7031 -24.4629 Z M 29.1992 -67.0898 L 29.4434 -67.0898 L 44.8242 -26.709 L 13.8184 -26.709 Z"/></g><line id="Baseline-L" style="fill:none;stroke:#27AAE1;opacity:1;stroke-width:0.577;" x1="263" x2="3036" y1="1556" y2="1556"/><line id="Capline-L" style="fill:none;stroke:#27AAE1;opacity:1;stroke-width:0.577;" x1="263" x2="3036" y1="1485.54" y2="1485.54"/><rect height="119.336" id="left-margin" style="fill:darkred;stroke:none;opacity:0.4;" width="12.4512" x="1394.06" y="1030.79"/><rect height="119.336" id="right-margin" style="fill:darkgreen;stroke:none;opacity:0.4;" width="12.4512" x="1502.5112" y="1030.79"/><rect x="1406.5112" y="1045" width="96" height="96" fill="none" stroke="blue" stroke-dasharray="5"/><rect x="1394.06" y="1030.79" width="120.9024" height="119.336" fill="none" stroke="blue"/></g><g id="Symbols"><g id="Bold-L" transform="matrix(1 0 0 1 2266 1556)"><path d="M27.735 26.206 Q20.742 26.206 16.175 20.724 Q11.61 15.241 13.223 8.308 L34.024 -85.379 Q34.978 -90.287 39.069 -93.557 Q43.162 -96.827 48.375 -96.827 H106.264 Q111.646 -96.827 115.642 -93.557 Q119.636 -90.287 120.776 -85.379 L141.578 8.308 Q143.029 15.241 138.509 20.724 Q133.987 26.206 127.065 26.206 H27.735 Z M27.574 11.694 H127.226 Q127.226 11.694 127.226 11.694 Q127.226 11.694 127.226 11.694 L106.531 -82.315 Q106.531 -82.315 106.531 -82.315 Q106.531 -82.315 106.531 -82.315 H48.214 Q48.214 -82.315 48.214 -82.315 Q48.214 -82.315 48.214 -82.315 L27.574 11.694 Q27.574 11.694 27.574 11.694 Q27.574 11.694 27.574 11.694 Z M71.273 -37.649 V-5.237 H83.689 V-37.649 L92.396 -28.619 L101.104 -37.165 L77.481 -61.03 L53.858 -37.165 L62.565 -28.78 L71.273 -37.649 Z"/></g><g id="Semibold-L" transform="matrix(1 0 0 1 1970.27 1556)"><path d="M26.543 25.856 Q20.169 25.856 15.994 20.829 Q11.82 15.802 13.292 9.499 L34.514 -85.94 Q35.469 -90.427 39.176 -93.417 Q42.881 -96.407 47.674 -96.407 H107.035 Q111.924 -96.407 115.574 -93.417 Q119.225 -90.427 120.286 -85.94 L141.508 9.499 Q142.888 15.802 138.739 20.829 Q134.591 25.856 128.257 25.856 H26.543 Z M26.382 12.535 H128.418 Q128.418 12.535 128.418 12.535 Q128.418 12.535 128.418 12.535 L107.255 -83.157 Q107.255 -83.157 107.255 -83.157 Q107.255 -83.157 107.255 -83.157 H47.443 Q47.443 -83.157 47.443 -83.157 Q47.443 -83.157 47.443 -83.157 L26.382 12.535 Q26.382 12.535 26.382 12.535 Q26.382 12.535 26.382 12.535 Z M71.413 -38.21 V-5.447 H83.548 V-38.21 L92.606 -28.899 L101.104 -37.305 L77.481 -61.099 L53.858 -37.305 L62.355 -29.061 L71.413 -38.21 Z"/></g><g id="Medium-L" transform="matrix(1 0 0 1 1674.31 1556)"><path d="M25.65 25.594 Q19.74 25.594 15.859 20.908 Q11.978 16.223 13.345 10.392 L34.883 -86.361 Q35.838 -90.534 39.253 -93.312 Q42.67 -96.091 47.148 -96.091 H107.613 Q112.132 -96.091 115.524 -93.312 Q118.919 -90.534 119.917 -86.361 L141.455 10.392 Q142.784 16.223 138.914 20.908 Q135.044 25.594 129.15 25.594 H25.65 Z M25.489 13.166 H129.311 Q129.311 13.166 129.311 13.166 Q129.311 13.166 129.311 13.166 L107.8 -83.787 Q107.8 -83.787 107.8 -83.787 Q107.8 -83.787 107.8 -83.787 H46.864 Q46.864 -83.787 46.864 -83.787 Q46.864 -83.787 46.864 -83.787 L25.489 13.166 Q25.489 13.166 25.489 13.166 Q25.489 13.166 25.489 13.166 Z M71.518 -38.631 V-5.605 H83.444 V-38.631 L92.764 -29.109 L101.104 -37.41 L77.481 -61.153 L53.858 -37.41 L62.197 -29.27 L71.518 -38.631 Z"/></g><g id="Regular-L" transform="matrix(1 0 0 1 1378.56 1556)"><path d="M24.994 25.4 Q19.426 25.4 15.759 20.966 Q12.094 16.531 13.384 11.049 L35.153 -86.669 Q36.107 -90.61 39.311 -93.235 Q42.517 -95.86 46.763 -95.86 H108.038 Q112.283 -95.86 115.489 -93.235 Q118.693 -90.61 119.648 -86.669 L141.416 11.049 Q142.706 16.531 139.041 20.966 Q135.374 25.4 129.806 25.4 H24.994 Z M24.832 13.629 H129.968 Q129.968 13.629 129.968 13.629 Q129.968 13.629 129.968 13.629 L108.199 -84.25 Q108.199 -84.25 108.199 -84.25 Q108.199 -84.25 108.199 -84.25 H46.44 Q46.44 -84.25 46.44 -84.25 Q46.44 -84.25 46.44 -84.25 L24.832 13.629 Q24.832 13.629 24.832 13.629 Q24.832 13.629 24.832 13.629 Z M71.595 -38.939 V-5.721 H83.366 V-38.939 L92.88 -29.264 L101.104 -37.487 L77.481 -61.191 L53.858 -37.487 L62.081 -29.425 L71.595 -38.939 Z"/></g><g id="Light-L" transform="matrix(1 0 0 1 1082.77 1556)"><path d="M27.785 22.175 Q22.364 22.175 18.81 17.895 Q15.257 13.616 16.547 8.258 L37.137 -83.753 Q38.029 -87.572 41.141 -90.103 Q44.253 -92.635 48.438 -92.635 H106.362 Q110.489 -92.635 113.599 -90.103 Q116.708 -87.572 117.601 -83.753 L138.253 8.258 Q139.543 13.616 136.008 17.895 Q132.472 22.175 127.078 22.175 H27.785 Z M27.561 12.76 H127.176 Q128.107 12.76 128.695 12.016 Q129.285 11.271 129.098 10.341 L108.447 -81.831 Q108.26 -82.513 107.702 -82.947 Q107.144 -83.381 106.462 -83.381 H48.096 Q47.414 -83.381 46.825 -82.947 Q46.235 -82.513 46.111 -81.831 L25.639 10.341 Q25.39 11.271 25.981 12.016 Q26.569 12.76 27.561 12.76 Z M72.711 -40.117 V-7.83 H82.126 V-40.117 L92.88 -29.202 L99.491 -35.812 L77.419 -57.903 L55.47 -35.936 L62.081 -29.486 L72.711 -40.117 Z"/></g><g id="Thin-L" transform="matrix(1 0 0 1 787.282 1556)"><path d="M30.576 18.95 Q25.3 18.95 21.861 14.825 Q18.42 10.702 19.71 5.466 L39.122 -80.84 Q39.953 -84.532 42.972 -86.972 Q45.989 -89.41 50.112 -89.41 H104.688 Q108.694 -89.41 111.709 -86.972 Q114.723 -84.532 115.555 -80.84 L135.09 5.466 Q136.38 10.702 132.975 14.825 Q129.568 18.95 124.348 18.95 H30.576 Z M30.291 11.892 H124.385 Q126.246 11.892 127.425 10.404 Q128.603 8.915 128.231 7.055 L108.695 -79.412 Q108.323 -80.777 107.207 -81.646 Q106.09 -82.513 104.725 -82.513 H49.752 Q48.388 -82.513 47.209 -81.646 Q46.032 -80.777 45.784 -79.412 L26.445 7.055 Q25.948 8.915 27.127 10.404 Q28.306 11.892 30.291 11.892 Z M73.828 -41.296 V-9.938 H80.886 V-41.296 L92.88 -29.14 L97.879 -34.138 L77.356 -54.617 L57.083 -34.387 L62.081 -29.549 L73.828 -41.296 Z"/></g><g id="Ultralight-L" transform="matrix(1 0 0 1 491.205 1556)"><path d="M32.25 17.015 Q27.064 17.015 23.691 12.984 Q20.317 8.953 21.608 3.793 L40.312 -79.09 Q41.106 -82.708 44.068 -85.092 Q47.032 -87.475 51.116 -87.475 H103.684 Q107.617 -87.475 110.574 -85.092 Q113.533 -82.708 114.326 -79.09 L133.192 3.793 Q134.483 8.953 131.154 12.984 Q127.826 17.015 122.711 17.015 H32.25 Z M31.928 11.371 H122.711 Q125.13 11.371 126.662 9.436 Q128.194 7.501 127.71 5.083 L108.844 -77.961 Q108.36 -79.735 106.909 -80.864 Q105.457 -81.992 103.684 -81.992 H50.747 Q48.973 -81.992 47.441 -80.864 Q45.909 -79.735 45.587 -77.961 L26.929 5.083 Q26.284 7.501 27.816 9.436 Q29.348 11.371 31.928 11.371 Z M74.498 -42.002 V-11.204 H80.141 V-42.002 L92.88 -29.102 L96.911 -33.134 L77.319 -52.645 L58.05 -33.456 L62.081 -29.586 L74.498 -42.002 Z"/></g><g id="Bold-M" transform="matrix(1 0 0 1 2281.8 1126)"><path d="M25.25 15.52 Q17.131 15.52 12.002 9.208 Q6.875 2.895 8.625 -5.105 L23.375 -72.73 Q24.615 -78.591 29.245 -82.285 Q33.875 -85.98 40 -85.98 H79.875 Q86 -85.98 90.63 -82.285 Q95.26 -78.591 96.5 -72.73 L111.25 -5.105 Q113 2.895 107.873 9.208 Q102.744 15.52 94.625 15.52 H25.25 Z M25.125 -1.23 H94.75 Q94.75 -1.23 94.75 -1.23 Q94.75 -1.23 94.75 -1.23 L80.125 -69.23 Q80.125 -69.23 80.125 -69.23 Q80.125 -69.23 80.125 -69.23 H39.75 Q39.75 -69.23 39.75 -69.23 Q39.75 -69.23 39.75 -69.23 L25.125 -1.23 Q25.125 -1.23 25.125 -1.23 Q25.125 -1.23 25.125 -1.23 Z M52.75 -27.355 V-13.73 H67.25 V-27.355 L70 -24.48 L80.125 -34.605 L60 -54.855 L39.875 -34.605 L50 -24.605 L52.75 -27.355 Z"/></g><g id="Semibold-M" transform="matrix(1 0 0 1 1985.97 1126)"><path d="M24.055 14.759 Q16.704 14.759 12.061 9.045 Q7.419 3.33 9.005 -3.91 L24.19 -73.219 Q25.321 -78.536 29.516 -81.877 Q33.712 -85.219 39.239 -85.219 H80.69 Q86.218 -85.219 90.412 -81.877 Q94.608 -78.536 95.739 -73.219 L110.924 -3.91 Q112.511 3.33 107.869 9.045 Q103.226 14.759 95.875 14.759 H24.055 Z M23.93 -0.415 H96 Q96 -0.415 96 -0.415 Q96 -0.415 96 -0.415 L80.886 -70.045 Q80.886 -70.045 80.886 -70.045 Q80.886 -70.045 80.886 -70.045 H38.989 Q38.989 -70.045 38.989 -70.045 Q38.989 -70.045 38.989 -70.045 L23.93 -0.415 Q23.93 -0.415 23.93 -0.415 Q23.93 -0.415 23.93 -0.415 Z M53.021 -28.496 V-14.001 H66.979 V-28.496 L70.38 -25.024 L80.125 -34.767 L60 -54.964 L39.875 -34.767 L49.62 -25.094 L53.021 -28.496 Z"/></g><g id="Medium-M" transform="matrix(1 0 0 1 1689.91 1126)"><path d="M23.157 14.189 Q16.384 14.189 12.105 8.923 Q7.826 3.656 9.291 -3.012 L24.801 -73.586 Q25.851 -78.496 29.72 -81.572 Q33.59 -84.649 38.669 -84.649 H81.301 Q86.38 -84.649 90.25 -81.572 Q94.119 -78.496 95.169 -73.586 L110.679 -3.012 Q112.144 3.656 107.865 8.923 Q103.588 14.189 96.812 14.189 H23.157 Z M23.032 0.196 H96.938 Q96.938 0.196 96.938 0.196 Q96.938 0.196 96.938 0.196 L81.456 -70.656 Q81.456 -70.656 81.456 -70.656 Q81.456 -70.656 81.456 -70.656 H38.419 Q38.419 -70.656 38.419 -70.656 Q38.419 -70.656 38.419 -70.656 L23.032 0.196 Q23.032 0.196 23.032 0.196 Q23.032 0.196 23.032 0.196 Z M53.225 -29.352 V-14.205 H66.775 V-29.352 L70.666 -25.431 L80.125 -34.89 L60 -55.045 L39.875 -34.89 L49.334 -25.461 L53.225 -29.352 Z"/></g><g id="Regular-M" transform="matrix(1 0 0 1 1394.06 1126)"><path d="M22.5 13.77 Q16.149 13.77 12.136 8.833 Q8.125 3.895 9.5 -2.355 L25.25 -73.855 Q26.24 -78.466 29.87 -81.347 Q33.5 -84.23 38.25 -84.23 H81.75 Q86.5 -84.23 90.13 -81.347 Q93.76 -78.466 94.75 -73.855 L110.5 -2.355 Q111.875 3.895 107.864 8.833 Q103.851 13.77 97.5 13.77 H22.5 Z M22.375 0.645 H97.625 Q97.625 0.645 97.625 0.645 Q97.625 0.645 97.625 0.645 L81.875 -71.105 Q81.875 -71.105 81.875 -71.105 Q81.875 -71.105 81.875 -71.105 H38 Q38 -71.105 38 -71.105 Q38 -71.105 38 -71.105 L22.375 0.645 Q22.375 0.645 22.375 0.645 Q22.375 0.645 22.375 0.645 Z M53.375 -29.98 V-14.355 H66.625 V-29.98 L70.875 -25.73 L80.125 -34.98 L60 -55.105 L39.875 -34.98 L49.125 -25.73 L53.375 -29.98 Z"/></g><g id="Light-M" transform="matrix(1 0 0 1 1098.18 1126)"><path d="M23.799 11.27 Q17.879 11.27 14.156 6.693 Q10.432 2.116 11.76 -3.701 L26.933 -72.124 Q27.875 -76.35 31.24 -79.04 Q34.606 -81.73 39.019 -81.73 H80.933 Q85.346 -81.73 88.711 -79.04 Q92.078 -76.35 93.019 -72.124 L108.24 -3.701 Q109.567 2.116 105.844 6.693 Q102.121 11.27 96.201 11.27 H23.799 Z M23.625 0.645 H96.279 Q97.047 0.645 97.505 0.068 Q97.961 -0.509 97.769 -1.23 L82.549 -69.902 Q82.453 -70.431 81.995 -70.769 Q81.539 -71.105 81.01 -71.105 H38.769 Q38.24 -71.105 37.784 -70.769 Q37.326 -70.431 37.231 -69.902 L22.135 -1.23 Q21.942 -0.509 22.399 0.068 Q22.856 0.645 23.625 0.645 Z M54.578 -32.24 V-15.316 H65.326 V-32.24 L70.875 -26.644 L78.394 -34.162 L59.953 -52.605 L41.606 -34.259 L49.125 -26.787 L54.578 -32.24 Z"/></g><g id="Thin-M" transform="matrix(1 0 0 1 802.565 1126)"><path d="M25.096 8.77 Q19.61 8.77 16.175 4.554 Q12.74 0.338 14.019 -5.047 L28.615 -70.394 Q29.509 -74.235 32.61 -76.732 Q35.711 -79.23 39.789 -79.23 H80.115 Q84.192 -79.23 87.294 -76.732 Q90.395 -74.235 91.289 -70.394 L105.981 -5.047 Q107.26 0.338 103.825 4.554 Q100.39 8.77 94.904 8.77 H25.096 Z M24.875 0.645 H94.933 Q96.471 0.645 97.385 -0.509 Q98.297 -1.662 97.914 -3.105 L83.221 -68.701 Q83.029 -69.759 82.115 -70.432 Q81.203 -71.105 80.144 -71.105 H39.539 Q38.481 -71.105 37.568 -70.432 Q36.654 -69.759 36.461 -68.701 L21.894 -3.105 Q21.51 -1.662 22.422 -0.509 Q23.336 0.645 24.875 0.645 Z M55.779 -34.499 V-16.277 H64.029 V-34.499 L70.875 -27.557 L76.664 -33.345 L59.904 -50.105 L43.336 -33.537 L49.125 -27.845 L55.779 -34.499 Z"/></g><g id="Ultralight-M" transform="matrix(1 0 0 1 506.415 1126)"><path d="M25.875 7.27 Q20.649 7.27 17.386 3.27 Q14.125 -0.73 15.375 -5.855 L29.625 -69.355 Q30.49 -72.966 33.432 -75.347 Q36.375 -77.73 40.25 -77.73 H79.625 Q83.5 -77.73 86.442 -75.347 Q89.385 -72.966 90.25 -69.355 L104.625 -5.855 Q105.875 -0.73 102.614 3.27 Q99.351 7.27 94.125 7.27 H25.875 Z M25.625 0.645 H94.125 Q96.125 0.645 97.312 -0.855 Q98.5 -2.355 98 -4.23 L83.625 -67.98 Q83.375 -69.355 82.188 -70.23 Q81 -71.105 79.625 -71.105 H40 Q38.625 -71.105 37.438 -70.23 Q36.25 -69.355 36 -67.98 L21.75 -4.23 Q21.25 -2.355 22.438 -0.855 Q23.625 0.645 25.625 0.645 Z M56.5 -35.855 V-16.855 H63.25 V-35.855 L70.875 -28.105 L75.625 -32.855 L59.875 -48.605 L44.375 -33.105 L49.125 -28.48 L56.5 -35.855 Z"/></g><g id="Bold-S" transform="matrix(1 0 0 1 2294.23 696)"><path d="M20.613 2.445 Q14.503 2.445 10.752 -2.339 Q7.002 -7.122 8.383 -13.039 L20.81 -63.239 Q21.788 -67.47 25.17 -70.187 Q28.552 -72.905 33.039 -72.905 H61.395 Q65.98 -72.905 69.337 -70.187 Q72.695 -67.47 73.673 -63.239 L86.1 -13.039 Q87.48 -7.122 83.731 -2.339 Q79.98 2.445 73.87 2.445 H20.613 Z M20.613 -9.982 H73.969 Q73.969 -9.982 73.969 -9.982 Q73.969 -9.982 73.969 -9.982 L61.641 -60.478 Q61.641 -60.478 61.641 -60.478 Q61.641 -60.478 61.641 -60.478 H32.941 Q32.941 -60.478 32.941 -60.478 Q32.941 -60.478 32.941 -60.478 L20.613 -9.982 Q20.613 -9.982 20.613 -9.982 Q20.613 -9.982 20.613 -9.982 Z M42.014 -28.918 V-19.844 H52.666 V-28.918 L54.145 -27.241 L61.641 -34.737 L47.34 -49.136 L33.039 -34.737 L40.535 -27.439 L42.014 -28.918 Z"/></g><g id="Semibold-S" transform="matrix(1 0 0 1 1998.1 696)"><path d="M19.67 1.844 Q14.166 1.844 10.798 -2.467 Q7.431 -6.779 8.683 -12.097 L21.453 -63.625 Q22.345 -67.426 25.384 -69.865 Q28.424 -72.304 32.439 -72.304 H62.038 Q66.152 -72.304 69.166 -69.865 Q72.18 -67.426 73.072 -63.625 L85.842 -12.097 Q87.095 -6.779 83.728 -2.467 Q80.361 1.844 74.856 1.844 H19.67 Z M19.67 -9.339 H74.955 Q74.955 -9.339 74.955 -9.339 Q74.955 -9.339 74.955 -9.339 L62.241 -61.121 Q62.241 -61.121 62.241 -61.121 Q62.241 -61.121 62.241 -61.121 H32.34 Q32.34 -61.121 32.34 -61.121 Q32.34 -61.121 32.34 -61.121 L19.67 -9.339 Q19.67 -9.339 19.67 -9.339 Q19.67 -9.339 19.67 -9.339 Z M42.228 -29.818 V-20.059 H52.452 V-29.818 L54.445 -27.67 L61.641 -34.865 L47.34 -49.222 L33.039 -34.865 L40.235 -27.824 L42.228 -29.818 Z"/></g><g id="Medium-S" transform="matrix(1 0 0 1 1701.85 696)"><path d="M18.962 1.394 Q13.913 1.394 10.833 -2.563 Q7.753 -6.521 8.909 -11.388 L21.935 -63.915 Q22.764 -67.395 25.545 -69.624 Q28.327 -71.854 31.989 -71.854 H62.52 Q66.28 -71.854 69.038 -69.624 Q71.794 -67.395 72.623 -63.915 L85.649 -11.388 Q86.805 -6.521 83.725 -2.563 Q80.646 1.394 75.596 1.394 H18.962 Z M18.962 -8.857 H75.695 Q75.695 -8.857 75.695 -8.857 Q75.695 -8.857 75.695 -8.857 L62.691 -61.603 Q62.691 -61.603 62.691 -61.603 Q62.691 -61.603 62.691 -61.603 H31.89 Q31.89 -61.603 31.89 -61.603 Q31.89 -61.603 31.89 -61.603 L18.962 -8.857 Q18.962 -8.857 18.962 -8.857 Q18.962 -8.857 18.962 -8.857 Z M42.389 -30.494 V-20.219 H52.291 V-30.494 L54.671 -27.992 L61.641 -34.962 L47.34 -49.286 L33.039 -34.962 L40.009 -28.114 L42.389 -30.494 Z"/></g><g id="Regular-S" transform="matrix(1 0 0 1 1405.73 696)"><path d="M18.443 1.064 Q13.728 1.064 10.858 -2.634 Q7.989 -6.333 9.074 -10.87 L22.289 -64.127 Q23.07 -67.371 25.663 -69.447 Q28.256 -71.524 31.659 -71.524 H62.874 Q66.375 -71.524 68.943 -69.447 Q71.511 -67.371 72.292 -64.127 L85.508 -10.87 Q86.593 -6.333 83.724 -2.634 Q80.854 1.064 76.139 1.064 H18.443 Z M18.443 -8.503 H76.237 Q76.237 -8.503 76.237 -8.503 Q76.237 -8.503 76.237 -8.503 L63.021 -61.957 Q63.021 -61.957 63.021 -61.957 Q63.021 -61.957 63.021 -61.957 H31.56 Q31.56 -61.957 31.56 -61.957 Q31.56 -61.957 31.56 -61.957 L18.443 -8.503 Q18.443 -8.503 18.443 -8.503 Q18.443 -8.503 18.443 -8.503 Z M42.507 -30.989 V-20.338 H52.173 V-30.989 L54.836 -28.228 L61.641 -35.033 L47.34 -49.333 L33.039 -35.033 L39.845 -28.326 L42.507 -30.989 Z"/></g><g id="Light-S" transform="matrix(1 0 0 1 1109.75 696)"><path d="M19.468 -0.908 Q15.093 -0.908 12.451 -4.323 Q9.809 -7.736 10.857 -11.932 L23.617 -62.761 Q24.36 -65.701 26.744 -67.626 Q29.129 -69.551 32.265 -69.551 H62.229 Q65.464 -69.551 67.823 -67.626 Q70.184 -65.701 70.926 -62.761 L83.725 -11.932 Q84.772 -7.736 82.13 -4.323 Q79.489 -0.908 75.114 -0.908 H19.468 Z M19.429 -8.503 H75.175 Q75.781 -8.503 76.142 -8.958 Q76.502 -9.413 76.351 -9.982 L63.553 -61.009 Q63.477 -61.426 63.116 -61.692 Q62.756 -61.957 62.339 -61.957 H32.167 Q31.749 -61.957 31.389 -61.692 Q31.028 -61.426 30.953 -61.009 L18.254 -9.982 Q18.102 -9.413 18.462 -8.958 Q18.823 -8.503 19.429 -8.503 Z M43.456 -32.772 V-21.096 H51.148 V-32.772 L54.836 -28.949 L60.275 -34.388 L47.303 -47.361 L34.405 -34.464 L39.845 -29.161 L43.456 -32.772 Z"/></g><g id="Thin-S" transform="matrix(1 0 0 1 814.015 696)"><path d="M20.491 -2.881 Q16.459 -2.881 14.044 -6.01 Q11.63 -9.14 12.639 -12.994 L24.944 -61.396 Q25.649 -64.032 27.825 -65.806 Q30.001 -67.579 32.873 -67.579 H61.584 Q64.554 -67.579 66.705 -65.806 Q68.856 -64.032 69.561 -61.396 L81.943 -12.994 Q82.952 -9.14 80.537 -6.01 Q78.123 -2.881 74.09 -2.881 H20.491 Z M20.415 -8.503 H74.113 Q75.327 -8.503 76.048 -9.413 Q76.768 -10.323 76.465 -11.461 L64.084 -60.061 Q63.932 -60.895 63.211 -61.427 Q62.491 -61.957 61.655 -61.957 H32.774 Q31.94 -61.957 31.219 -61.427 Q30.498 -60.895 30.346 -60.061 L18.063 -11.461 Q17.76 -10.323 18.48 -9.413 Q19.201 -8.503 20.415 -8.503 Z M44.404 -34.554 V-21.854 H50.124 V-34.554 L54.836 -29.67 L58.91 -33.743 L47.264 -45.388 L35.77 -33.895 L39.845 -29.995 L44.404 -34.554 Z"/></g><g id="Ultralight-S" transform="matrix(1 0 0 1 517.792 696)"><path d="M21.106 -4.064 Q17.278 -4.064 15 -7.023 Q12.723 -9.982 13.709 -13.631 L25.741 -60.577 Q26.424 -63.031 28.474 -64.713 Q30.524 -66.395 33.237 -66.395 H61.198 Q64.008 -66.395 66.033 -64.713 Q68.059 -63.031 68.742 -60.577 L80.873 -13.631 Q81.859 -9.982 79.581 -7.023 Q77.303 -4.064 73.476 -4.064 H21.106 Z M21.007 -8.503 H73.476 Q75.054 -8.503 75.991 -9.686 Q76.928 -10.87 76.533 -12.349 L64.402 -59.492 Q64.205 -60.577 63.268 -61.267 Q62.331 -61.957 61.246 -61.957 H33.138 Q32.053 -61.957 31.116 -61.267 Q30.179 -60.577 29.982 -59.492 L17.95 -12.349 Q17.555 -10.87 18.492 -9.686 Q19.429 -8.503 21.007 -8.503 Z M44.973 -35.624 V-22.31 H49.51 V-35.624 L54.836 -30.101 L58.09 -33.356 L47.241 -44.205 L36.59 -33.553 L39.845 -30.496 L44.973 -35.624 Z"/></g></g></svg>