<svg xmlns="http://www.w3.org/2000/svg" height="24" viewBox="0 -960 960 960" width="24"><path d="M200.77-128q-43.89 0-71.37-33.73-27.48-33.73-17.25-76.81l116.77-522.77q7.15-30.73 31.96-50.71Q285.69-832 318.31-832h322.61q32.62 0 57.43 19.98 24.81 19.98 31.96 50.71l117.54 522.77q10.23 43.08-17.25 76.81Q803.12-128 759.23-128H200.77ZM199-193h560.46q12.31 0 19.62-9.23 7.3-9.23 4.23-20.77L665.77-747.77q-1.54-8.46-8.85-13.85-7.3-5.38-15.77-5.38H316.31q-8.46 0-15.77 5.38-7.31 5.39-8.85 13.85L175.15-223q-3.07 11.54 4.23 20.77Q186.69-193 199-193Zm247.23-281.15v112.77q0 13.53 9.73 23.26 9.73 9.74 23.27 9.74t23.27-9.74q9.73-9.73 9.73-23.26v-112.77l34.62 34.61q8.11 8.62 19.9 9 11.79.39 23.1-10.92 10.69-10.69 10.69-23.46 0-12.77-10.39-23.16l-79.3-79.3q-13.51-13.7-31.53-13.7-18.01 0-31.7 13.7l-77.77 77.76q-9.62 9.37-10 23.03-.39 13.67 13 26.28 9.01 8.62 19.97 8.62 10.95 0 19.56-8.62l33.85-33.84ZM759.46-193H192.85h572.77-6.16Z"/></svg>