<svg xmlns="http://www.w3.org/2000/svg" height="24" viewBox="0 -960 960 960" width="24"><path d="M188.76-121.87q-41.07 0-67.01-31.81Q95.8-185.5 105-226.26l120.83-544.26q6.53-30.05 29.86-48.83 23.33-18.78 53.9-18.78h340.08q30.32 0 53.81 18.89 23.5 18.89 29.95 48.72l121.33 544.26q9.2 40.91-16.64 72.65-25.84 31.74-67.12 31.74H188.76Zm-.24-85.76h582.22L649.98-752.37H309.35L188.52-207.63ZM439.39-464.8v111.34q0 16.7 11.96 28.66 11.95 11.95 28.65 11.95t28.65-11.95q11.96-11.96 11.96-28.66V-464.8L550-435.41q11.6 11.71 27.74 11.71 16.15 0 28.77-12.62 12.03-12.03 12.03-28.72 0-16.7-11.95-28.66l-96.02-96.02q-13.08-13.17-30.52-13.17-17.44 0-30.62 13.17l-96.02 96.02q-11.95 11.9-11.95 28.5 0 16.59 12.43 29.53 12.31 11.97 28.35 11.97t28.02-11.97l29.13-29.13Zm331.35 257.17H188.52h582.22Z"/></svg>