<svg xmlns="http://www.w3.org/2000/svg" height="24" viewBox="0 -960 960 960" width="24"><path d="M185.26-111.87q-43.26 0-70.61-33.56Q87.3-179 96.5-222.26l122.33-554.26q6.95-31.83 31.82-51.72t56.94-19.89h344.58q32.07 0 56.94 19.89 24.87 19.89 31.82 51.72l122.33 554.26q9.2 43.26-18.15 76.83-27.35 33.56-70.61 33.56H185.26ZM436.89-474.8v113.84q0 18.2 12.46 30.66 12.45 12.45 30.65 12.45t30.65-12.45q12.46-12.46 12.46-30.66V-474.8l27.39 27.39q11.72 11.71 29.05 11.71 17.34 0 30.54-13.19 11.95-11.96 11.95-30.15 0-18.2-11.95-30.16l-98.02-98.02q-13.68-13.67-32.07-13.67t-32.07 13.67l-98.02 98.02q-11.95 11.96-11.95 29.78 0 17.81 12.67 31.25 12.48 12.47 29.82 12.47 17.33 0 29.81-12.47l26.63-26.63Z"/></svg>