<svg xmlns="http://www.w3.org/2000/svg" height="24" viewBox="0 -960 960 960" width="24"><path d="M193.31-148.08q-32.91 0-53.4-25.21-20.49-25.22-12.87-57.71l118.08-527.31q5.27-23.48 23.88-38.55 18.62-15.06 42.77-15.06h335.77q23.75 0 42.55 15.15 18.79 15.16 24.1 38.46L833.15-231q7.43 32.57-12.98 57.75-20.41 25.17-53.29 25.17H193.31Zm-.39-55.96H766q6.15 0 9.81-4.61 3.65-4.62 2.11-10.39l-118.4-527.31q-.96-4.23-4.51-6.92-3.56-2.69-7.79-2.69H311.77q-4.23 0-7.89 2.69-3.65 2.69-4.42 6.92L181-219.04q-1.54 5.77 2.12 10.39 3.65 4.61 9.8 4.61ZM451.73-497v145.27q0 11.65 8.12 19.86 8.11 8.22 19.77 8.22 11.65 0 19.86-8.22 8.21-8.21 8.21-19.86V-497l54.87 54.87q8.17 8.17 19.57 8.36 11.41.19 20.22-8.61 8.5-8.5 8.5-19.77t-8.5-19.96l-98.54-98.54Q493.49-591 479.72-591q-13.76 0-24.14 10.38l-97.7 97.7q-8.34 8.34-8.53 19.75-.2 11.4 8.26 20.02 8.85 8.8 20.06 8.8 11.21 0 20.02-8.8L451.73-497ZM766-204.04H189.85 769.08 766Z"/></svg>