<svg xmlns="http://www.w3.org/2000/svg" height="24" viewBox="0 -960 960 960" width="24"><path d="M203.12-166.15q-30.03 0-48.4-22.69-18.37-22.68-11.14-52.16l113.65-504.62q4.96-20.75 21.73-34.49 16.77-13.74 38.58-13.74h324.04q21.25 0 38.22 13.81t22.08 34.42L816.81-241q6.84 29.5-11.47 52.17-18.31 22.68-48.07 22.68H203.12Zm-.77-36.93H756q12.31 0 19.62-9.23 7.3-9.23 4.23-20.77L665.49-737.69q-1.93-8.46-9.04-13.85-7.12-5.38-15.58-5.38H317.54q-8.46 0-15.77 5.38-7.31 5.39-8.85 13.85L178.5-233.08q-3.08 11.54 4.23 20.77 7.31 9.23 19.62 9.23ZM460.96-517v166.04q0 7.81 5.23 13.23 5.23 5.42 13.04 5.42 7.81 0 13.23-5.42 5.42-5.42 5.42-13.23V-517l71.74 71.73q5.34 5.35 12.9 5.73 7.56.39 13.67-5.73 6-6 6-13.04 0-7.04-6-13.42l-95.07-95.08q-9.33-9.19-21.76-9.19-12.44 0-21.7 9.26l-93.4 93.4q-5.68 5.69-6.07 13.24-.38 7.56 5.76 13.29 5.97 6.12 13.15 6.12 7.17 0 13.28-6.12L460.96-517ZM756-203.08H196.19 762.15 756Z"/></svg>