<svg xmlns="http://www.w3.org/2000/svg" height="20" viewBox="0 -960 960 960" width="20"><path d="M209-98q-61.95 0-99.98-48.5Q71-195 85-255l126-509q9.92-42.89 44.21-70.44Q289.5-862 335-862h287.51q46.49 0 80.53 27.56Q737.08-806.89 747-764l126 509q14 60-24.02 108.5Q810.95-98 749-98H209Zm0-126h541L625-736H334L209-224Zm217-192v38.07q0 21.87 15.79 37.9 15.79 16.03 38 16.03T518-340.03q16-16.03 16-37.9V-416l-18-18q14.75 15 35.04 15t36.7-17.26Q604-453 604-474.48T588-513l-63.14-62.14Q505.82-594 479.73-594q-26.09 0-44.73 19l-63 62q-16 16.25-15.5 38.12Q357-453 376.52-434q14.81 15 34.02 15 19.22 0 32.4-14.72L426-416Zm324 192H209h541Z"/></svg>