<svg xmlns="http://www.w3.org/2000/svg" height="24" viewBox="0 -960 960 960" width="24"><path d="M190.39-108q-47.36 0-77.14-36.62-29.79-36.61-19.17-83.15l121.38-547.38q7.54-33.81 34.46-55.33Q276.85-852 312.15-852h335.31q35.31 0 62.23 21.52 26.93 21.52 34.46 55.33l121.77 547.38q10.62 46.54-19.17 83.15Q816.97-108 769.61-108H190.39ZM189-193h581.23q6.15 0 9.81-4.62 3.65-4.61 2.11-10.38L660.39-757.38q-.77-4.23-4.43-6.93-3.65-2.69-7.88-2.69H310.15q-4.23 0-7.88 2.69-3.66 2.7-4.42 6.93L177.08-208q-1.54 5.77 2.11 10.38Q182.85-193 189-193Zm247.62-263.08v92.39q0 17.77 12.61 30.38 12.62 12.62 30.39 12.62 17.76 0 30.38-12.62 12.61-12.61 12.61-30.38v-92.39l17.31 17.31q10.81 11.31 26.83 11.5 16.02.19 30.02-13.81 13-13 13-30.38 0-17.39-12.69-30.08l-83.16-83.15q-14.66-14.85-34.21-14.85-19.56 0-34.4 14.85l-82.39 82.38q-12.3 12.06-12.5 29.95-.19 17.9 15.5 33.21 11.71 11.3 27.09 11.3 15.37 0 26.68-11.3l16.93-16.93ZM770.23-193H185.92 773.31h-3.08Z"/></svg>