<svg xmlns="http://www.w3.org/2000/svg" height="48" viewBox="0 -960 960 960" width="48"><path d="M155-104q-34.53 0-57.27-27.5Q75-159 83-193l135-606q5.92-24.44 25.79-40.72Q263.67-856 290-856h380q26.33 0 46.21 16.28Q736.08-823.44 742-799l135 606q8 34-14.73 61.5Q839.53-104 805-104H155Zm-1-73h652L671-784H288L154-177Zm290-326v170q0 14.77 10.66 25.39Q465.32-297 480.16-297T506-307.61q11-10.62 11-25.39v-170l35 35q9.5 11 23.85 11 14.35 0 24.85-11.7Q612-479 612-494t-11-26l-95-95q-11.18-11-26.09-11T455-615l-96 95q-11 11-11 26.16t12.61 27q10.46 9.84 24.02 9.84 13.57 0 23.37-10l36-36Zm362 326H154h652Z"/></svg>