<svg xmlns="http://www.w3.org/2000/svg" height="48" viewBox="0 -960 960 960" width="48"><path d="M164.61-101.17q-39.53 0-65.42-31.18-25.89-31.17-16.76-70.26l131.61-591.87q5.92-27.83 28.91-46.37 22.98-18.54 52.7-18.54h368.13q30.32 0 52.96 18.54t29.22 46.37l131.61 591.87q8.56 39.09-17.17 70.26-25.73 31.18-65.01 31.18H164.61Zm-1-82.61h632.78L665.15-777.22H294.22L163.61-183.78Zm279.26-314.7v166.05q0 14.95 11.05 26.04t26.35 11.09q15.3 0 26.58-11.09 11.28-11.09 11.28-26.04v-166.05l32.17 32.18q9.65 11.56 24.77 11.28 15.13-.28 25.08-11.73 11.28-10.7 11.28-26.18t-11-27.07l-90.47-89.91q-12.73-12.13-30.26-12.13t-28.66 12.13L359.57-520q-11 11.28-11 26.86 0 15.59 12.6 27.99 10.75 10.98 24.71 10.98t23.82-11.13l33.17-33.18Zm353.52 314.7H163.61h632.78Z"/></svg>