<svg xmlns="http://www.w3.org/2000/svg" height="24" viewBox="0 -960 960 960" width="24"><path d="M205.5-96q-57.88 0-94.44-44.75Q74.5-185.5 87.5-243L203-769q9.58-42.22 42.04-68.61T321-864h316.5q43.25 0 75.88 26.5Q746-811 755.5-769l116 526q13 57.65-23.45 102.32Q811.59-96 753.5-96h-548Zm-1-120H754L638.56-744H320L204.5-216Zm225-210v69.5q0 20.5 15 35.5t35.5 15q20.5 0 35.5-15t15-35.5V-426l2 2q13.5 14 32.5 14t35.2-16.2q15.3-15.3 15.3-35.8 0-20.5-15-35.5l-77-77Q504.82-593 479.91-593q-24.91 0-43.41 18.5l-77 77q-15 14.75-15 35.62 0 20.88 17.76 38.38Q376.4-410 394.95-410q18.55 0 32.05-13.5l2.5-2.5ZM754-216H204.5 754Z"/></svg>