<svg xmlns="http://www.w3.org/2000/svg" height="24" viewBox="0 -960 960 960" width="24"><path d="M203.12-166.15q-30.24 0-48.5-22.75-18.27-22.75-11.04-52.1l113.65-504.62q4.73-20.61 21.58-34.42 16.84-13.81 38.73-13.81h324.04q21.5 0 38.34 13.81 16.85 13.81 21.96 34.42L816.81-241q6.84 29.35-11.43 52.1-18.26 22.75-48.11 22.75H203.12ZM460.96-517v166.04q0 7.81 5.23 13.23 5.23 5.42 13.04 5.42 7.81 0 13.23-5.42 5.42-5.42 5.42-13.23V-517l71.85 71.85q5.23 5.23 12.79 5.61 7.56.39 13.67-5.73 6-6 6-13.04 0-7.04-6-13.42l-95.07-95.08q-9.58-9.19-21.89-9.19t-21.5 9.19l-93.54 93.54q-5.61 5.62-6 13.17-.38 7.56 6 13.29 5.73 6.12 12.91 6.12 7.17 0 13.28-6.12L460.96-517Z"/></svg>