<svg xmlns="http://www.w3.org/2000/svg" height="40" viewBox="0 -960 960 960" width="40"><path d="M163.33-98.67q-40.33 0-66-31.5-25.66-31.5-16.66-70.83l132-594.67q6.66-29 29.66-47.33t53-18.33h369.34q30 0 53 18.33t29.66 47.33l132 594.67q9 39.33-16.66 70.83-25.67 31.5-66 31.5H163.33Zm275-382.66V-344q0 17.33 12.17 29.5 12.17 12.17 29.5 12.17t29.83-12.17q12.5-12.17 12.5-29.5v-137.33L545.67-458Q557-446 573-446q16 0 29-13.67 12.33-11.66 12.33-29 0-17.33-12.33-29.66l-92.33-92.34Q497-623.33 480-623.33t-29 12.66l-93 92.34q-12.33 12.33-12.33 29.66 0 17.34 14.66 31.34 11.34 11.33 27 11.33 15.67 0 27-11.33l24-24Z"/></svg>