<svg xmlns="http://www.w3.org/2000/svg" height="24" viewBox="0 -960 960 960" width="24"><path d="M192.44-80.09q-58.92 0-96.01-45.71-37.08-45.72-24.39-103.64l121.48-554.47q9.13-42.66 42.65-69.33 33.53-26.67 77.74-26.67h331.61q44.22 0 77.74 26.67 33.52 26.67 42.65 69.33l121.48 554.47q12.7 57.92-24.39 103.64-37.09 45.71-96 45.71H192.44Zm231.73-346.04V-366q0 23.13 16.35 39.48 16.35 16.35 39.48 16.35 23.13 0 39.48-16.35 16.35-16.35 16.35-39.48v-60.13l-7.92-7.91q15.13 14.56 35.98 14.56 20.85 0 38.41-18.13 15.57-15.56 15.57-38.69 0-23.13-15.57-39.27l-79.08-78.52q-18.26-18.26-43.22-18.26-24.96 0-43.22 18.26l-79.08 78.52q-15.57 16.14-15.57 39.27 0 23.13 19.13 42.26 14.57 15.13 35.13 15.13 20.57 0 35.13-15.13l-7.35 7.91Z"/></svg>