<svg xmlns="http://www.w3.org/2000/svg" height="20" viewBox="0 -960 960 960" width="20"><path d="M200.31-172.08q-30.12 0-47.5-23.25-17.39-23.25-9.77-51.67l126.08-495.31q5.11-19.3 20.78-32.46 15.68-13.15 36.87-13.15h304.77q21 0 36.67 13.15 15.67 13.16 20.98 32.46L816.15-247q7.43 28.42-9.96 51.67-17.38 23.25-47.31 23.25H200.31ZM455.73-496v132.27q0 9.65 7.12 16.86 7.11 7.22 16.77 7.22 9.65 0 16.86-7.22 7.21-7.21 7.21-16.86V-496l50.93 50.92q8.11 8.12 17.51 7.81 9.41-.31 17.22-8.11 8.5-8.5 8.5-17.27t-8.5-17.46l-88.54-87.54q-9.54-9.35-21.19-9.35-11.66 0-21 9.35l-87.77 87.77q-8.31 8.3-8 17.21.3 8.9 9 16.52 7.61 7.8 16.82 7.8t17.02-7.8L455.73-496Z"/></svg>