<svg xmlns="http://www.w3.org/2000/svg" height="20" viewBox="0 -960 960 960" width="20"><path d="M197.39-164q-31.54 0-50.23-24.62-18.7-24.61-11.08-55.15l127.38-503.38q5.62-20.93 22.5-34.89Q302.85-796 325.15-796h308.31q22.31 0 39.19 13.96 16.89 13.96 22.5 34.89l127.77 503.38q7.62 30.54-11.08 55.15Q793.15-164 761.61-164H197.39Zm256.23-340.08v134.39q0 10.77 7.61 18.38 7.62 7.62 18.39 7.62 10.76 0 18.38-7.62 7.61-7.61 7.61-18.38v-134.39l49.31 49.31q8.31 8.31 18.58 8 10.27-.31 18.58-8.61 8.69-8.7 8.69-18.58 0-9.89-8.69-18.58l-90.16-89.15q-9.84-9.85-22.3-9.85-12.47 0-22.31 9.85l-89.39 89.38q-8.3 8.31-8 18.08.31 9.77 9 18.08 8.31 8.3 18.39 8.3 10.07 0 18.38-8.3l47.93-47.93Z"/></svg>