<svg xmlns="http://www.w3.org/2000/svg" height="20" viewBox="0 -960 960 960" width="20"><path d="M200.31-172.08q-29.91 0-47.4-23.21-17.49-23.22-9.87-51.71l126.08-495.31q5.27-19.48 21.13-32.55 15.87-13.06 36.52-13.06h304.27q21.25 0 37.05 13.15 15.79 13.16 21.1 32.46L816.15-247q7.43 28.57-9.98 51.75-17.41 23.17-47.29 23.17H200.31Zm.61-47.96H758q6.15 0 9.81-4.61 3.65-4.62 2.11-10.39l-126.4-495.31q-.96-4.23-4.51-6.92-3.56-2.69-7.79-2.69H327.77q-4.23 0-7.89 2.69-3.65 2.69-4.42 6.92L189-235.04q-1.54 5.77 2.12 10.39 3.65 4.61 9.8 4.61ZM455.73-496v132.34q0 9.92 6.91 16.96 6.9 7.05 16.76 7.05 9.87 0 17.08-7.05 7.21-7.04 7.21-16.96V-496l50.87 50.87q8.17 8.17 17.74 8.36 9.57.19 17.05-7.61 8.5-8.5 8.5-17.27t-8.5-17.46l-88.68-88.68q-9.18-9.21-21.13-9.21-11.94 0-20.96 9.38l-87.7 87.7q-8.34 8.34-8.03 17.25.3 8.9 8.28 16.52 8.33 7.8 17.69 7.8 9.35 0 16.81-7.53l50.1-50.12ZM758-220.04H197.85 761.08 758Z"/></svg>