<svg xmlns="http://www.w3.org/2000/svg" height="48" viewBox="0 -960 960 960" width="48"><path d="M159.07-102.8q-37.16 0-60.97-29.06-23.82-29.05-15.34-65.21l133.57-600.02q6-26.43 27.31-43.39 21.32-16.95 48.75-16.95h374.98q27.67 0 48.87 16.95 21.19 16.96 27.43 43.39l133.57 600.02q8.24 36.16-15.58 65.21-23.81 29.06-60.73 29.06H159.07Zm284.45-398.29v168.33q0 15.24 10.62 25.86T480-296.28q15.24 0 26.36-10.62t11.12-25.86v-168.33l33.8 33.81q10.24 11.24 24.48 11.12 14.24-.12 25-12.12 11-10 11-25.24 0-15.24-11-26.48l-93.09-92.85Q496.2-624.33 480-624.33q-16.2 0-26.67 11.48L359.24-520q-11 11.24-11 26.36t13 27.36q10.24 10.48 23.74 10.48 13.5 0 23.74-10.48l34.8-34.81Z"/></svg>