<svg xmlns="http://www.w3.org/2000/svg" height="40" viewBox="0 -960 960 960" width="40"><path d="M165.83-126.67q-30.66 0-49.66-23.58-19-23.58-12.34-53.42l129.5-580q4.84-21.33 22.17-35.5 17.33-14.16 39.83-14.16H664.5q22.17 0 39.5 14.16 17.33 14.17 22.5 35.5l130 580q6.33 29.84-12.67 53.42-19 23.58-49.33 23.58H165.83ZM448.5-507v171.83q0 13.5 9 22.67 9 9.17 22.5 9.17t22.67-9.17q9.16-9.17 9.16-22.67V-507l48.67 48.67q9.33 9.66 22.08 9.66 12.75 0 22.59-9.83 9.33-9.33 9.33-22.17 0-12.83-9.33-22.5L502.5-605.83q-9.83-9.5-22.5-9.5t-22.17 9.5L355.17-503.17q-9.67 9.67-9.67 22.42 0 12.75 9.67 22.25 9.5 9.83 22.25 9.83t22.25-9.83L448.5-507Z"/></svg>