<svg xmlns="http://www.w3.org/2000/svg" height="48" viewBox="0 -960 960 960" width="48"><path d="M157-125q-27.62 0-45.06-21.5T100.5-195l133-595q4.77-19.11 20.44-32.06Q269.6-835 290-835h380q19.75 0 35.63 13 15.87 13 20.87 32L860-195q5.5 27.15-11.89 48.57Q830.72-125 803.5-125H157Zm-1-57.5h647l-132.94-595H289l-133 595ZM451.5-522v195.5q0 12.25 8.18 20.62 8.17 8.38 20.5 8.38 12.32 0 20.57-8.38 8.25-8.37 8.25-20.62V-522l54 54q8.5 9 20.08 9 11.59 0 20.42-9 8.5-8.5 8.5-20t-8.5-20.5l-103-103q-8.73-8.5-20.36-8.5-11.64 0-20.23 8.59L357.09-508.59Q348-499.5 348-487.84t8.37 20.25Q365.5-459 377.1-459t19.9-9l54.5-54ZM803-182.5H156h647Z"/></svg>