<svg xmlns="http://www.w3.org/2000/svg" height="24" viewBox="0 -960 960 960" width="24"><path d="M188.76-121.87q-41.26 0-67.11-31.81Q95.8-185.5 105-226.26l120.83-544.26q6.45-29.83 29.82-48.72t53.94-18.89h340.08q30.57 0 53.94 18.89 23.37 18.89 29.82 48.72l121.33 544.26q9.2 40.76-16.65 72.58-25.85 31.81-67.11 31.81H188.76ZM439.39-464.8v111.34q0 16.7 11.96 28.66 11.95 11.95 28.65 11.95t28.65-11.95q11.96-11.96 11.96-28.66V-464.8L550-435.41q11.72 11.71 27.8 11.71 16.09 0 28.79-12.69 11.95-11.96 11.95-28.65 0-16.7-11.95-28.66l-96.02-96.02q-13.18-13.17-30.57-13.17t-30.57 13.17l-96.02 96.02q-11.95 11.96-11.95 28.53 0 16.56 12.67 29.5 11.98 11.97 28.07 11.97 16.08 0 28.06-11.97l29.13-29.13Z"/></svg>