<svg xmlns="http://www.w3.org/2000/svg" height="40" viewBox="0 -960 960 960" width="40"><path d="M203.33-173.67q-27.83 0-44-20.41-16.16-20.42-9.83-46.92l113.33-502.33q3.84-18.34 19.09-30.67 15.25-12.33 35.75-12.33h324.66q19 0 34.25 12.33t19.92 30.67L811.33-241q5.5 26.5-10.66 46.92-16.17 20.41-42.5 20.41H203.33Zm264.5-366.66v193.16q0 5.5 2.84 8.75 2.83 3.25 8.33 3.25t8.75-3.25q3.25-3.25 3.25-8.75v-193.16l84.67 84.66q2.5 2.84 7.58 3.34t9.25-3.67q3.5-2.83 3.5-7.67 0-4.83-3.5-8.5l-93.67-93.66q-8.66-8.5-19.83-8.5-11.17 0-19 8.5l-91.67 91.66q-3.33 3.34-3.83 8.42t3.83 7.75q3.34 4.17 7.92 4.17t8.42-4.17l83.16-82.33Z"/></svg>