<svg xmlns="http://www.w3.org/2000/svg" height="20" viewBox="0 -960 960 960" width="20"><path d="M209-110q-57.09 0-92.05-44.5Q82-199 95-255l125-504q10-40 41.25-65.5T334-850h289.51Q666-850 697-824.5q31 25.5 41 65.5l125 504q13 56-21.95 100.5Q806.09-110 749-110H209Zm0-117h541L625-733H334L209-227Zm222-208v59.07q0 20.27 14.29 34.6Q459.58-327 479.79-327t34.71-14.33q14.5-14.33 14.5-34.6V-435l-4-4q13.5 14 31.92 14 18.41 0 33.78-15.7Q606-456 606-475.5q0-19.5-15-34.5l-69.14-69.14Q503.64-597 479.64-597T438-579l-69 69q-15 14.75-14.5 34.37Q355-456 372.52-439q13.88 13 31.82 13 17.95 0 30.6-12.72L431-435Zm319 208H209h541Z"/></svg>