<svg xmlns="http://www.w3.org/2000/svg" height="40" viewBox="0 -960 960 960" width="40"><path d="M194.68-162.82q-28.49 0-45.31-21.15-16.82-21.14-10.41-48.41l117.07-520.26q4.06-19.03 19.79-31.78 15.73-12.76 36.69-12.76h334.94q19.73 0 35.46 12.76 15.73 12.75 20.51 31.78l118.34 520.26q5.69 27.27-11.13 48.41-16.82 21.15-44.08 21.15H194.68Zm268.69-369.82v188.24q0 7.35 4.26 11.96 4.25 4.62 11.6 4.62t11.96-4.62q4.62-4.61 4.62-11.96v-188.24l76.36 76.36q4.07 4.41 10.93 4.79 6.85.39 12.32-5.09 4.85-4.33 4.85-11.01t-4.85-11.73l-95.74-95.74q-8.94-8.74-20.45-8.74t-19.73 8.74l-94.21 94.2q-4.79 4.8-5.17 11.65-.39 6.85 5.17 11.09 4.76 5.48 11.23 5.48 6.47 0 11.61-5.48l75.24-74.52Z"/></svg>