<svg xmlns="http://www.w3.org/2000/svg" height="20" viewBox="0 -960 960 960" width="20"><path d="M207.77-184q-28.08 0-44.46-21.73-16.39-21.73-9.16-48.81l122.77-478.77q5.23-17.84 20.25-30.27Q312.19-776 331.31-776h295.12q20.11 0 34.88 12.42 14.77 12.43 20 30.27l123.54 478.77q7.23 27.08-9.16 48.81Q779.31-184 751.23-184H207.77Zm.23-32h542.46q12.31 0 19.62-9.23 7.3-9.23 4.23-20.77L650.77-724.77q-1.54-8.46-8.85-13.85-7.3-5.38-15.77-5.38H332.31q-8.46 0-15.77 5.38-7.31 5.39-8.85 13.85L184.15-246q-3.07 11.54 4.23 20.77Q195.69-216 208-216Zm255.23-306.15v154.84q0 6.81 4.52 11.37t11.27 4.56q6.75 0 11.48-4.56t4.73-11.37v-154.84l66.62 66.61q5.61 5.62 11.82 6 6.2.39 11.48-5.23 6.39-6.38 6.39-11.65 0-5.27-6.39-11.66l-86.44-86.44q-8.56-8.56-19.66-8.56-11.11 0-19.43 8.7l-84.77 84.76q-5.62 5.62-5.5 11.16.11 5.54 6.02 11.15 6.09 5.62 11.89 5.62 5.8 0 11.06-5.34l64.91-65.12ZM750.46-216H201.85h554.77-6.16Z"/></svg>