<svg xmlns="http://www.w3.org/2000/svg" height="20" viewBox="0 -960 960 960" width="20"><path d="M207.77-184q-28.08 0-44.46-21.73-16.39-21.73-9.16-48.81l122.77-478.77q5.23-17.84 20-30.27Q311.69-776 331.31-776h295.61q19.62 0 34.39 12.42 14.77 12.43 20 30.27l123.54 478.77q7.23 27.08-9.16 48.81Q779.31-184 751.23-184H207.77Zm255.46-338.15v154.77q0 6.53 4.73 11.26 4.73 4.74 11.27 4.74 6.54 0 11.27-4.74 4.73-4.73 4.73-11.26v-154.77l66.62 66.61q5.61 5.62 11.65 5.5 6.04-.11 11.65-5.73 6.39-6.38 6.39-11.65 0-5.27-6.39-11.66l-86.3-85.3q-8.7-8.7-19.62-8.7-10.92 0-19.61 8.7l-84.77 84.76q-5.62 5.62-5.5 11.16.11 5.54 6.5 11.15 5.61 5.62 11.27 5.62 5.65 0 11.26-5.62l64.85-64.84Z"/></svg>