<svg xmlns="http://www.w3.org/2000/svg" height="24" viewBox="0 -960 960 960" width="24"><path d="M200.77-128q-44.08 0-71.46-33.73-27.39-33.73-17.16-76.81l116.77-522.77q7.23-30.84 32-50.77Q285.69-832 318.31-832h322.61q32.62 0 57.39 19.92 24.77 19.93 32 50.77l117.54 522.77q10.23 43.08-17.16 76.81Q803.31-128 759.23-128H200.77Zm245.46-346.15v112.77q0 13.53 9.73 23.26 9.73 9.74 23.27 9.74t23.27-9.74q9.73-9.73 9.73-23.26v-112.77l34.62 34.61q8.61 8.62 20.15 9 11.54.39 23.15-11.23 10.39-10.38 10.39-23.15 0-12.77-10.39-23.16l-79.3-79.3q-13.7-13.7-31.62-13.7t-31.61 13.7l-77.77 77.76q-9.62 9.62-10 23.16-.39 13.54 13 26.15 8.61 8.62 19.77 8.62 11.15 0 19.76-8.62l33.85-33.84Z"/></svg>