<svg xmlns="http://www.w3.org/2000/svg" version="1.1" width="3300" height="2000"><g id="Notes"><style>
    text {
      font-family: monospace;
      text-anchor: middle;
    }
    text.emphasis {
      font-weight:bold;
    }
    text.lanchor {
      text-anchor: start;
    }
  </style><rect height="2200" id="artboard" fill="white" width="3300" x="0" y="0"/><line id="" style="fill:none;stroke:black;stroke-width:0.5;" x1="263" x2="3036" y1="292" y2="292"/><text class="lanchor emphasis" transform="matrix(1 0 0 1 263 322)">Weight/Scale Variations</text><text transform="matrix(1 0 0 1 559.711 322)">Ultralight</text><text transform="matrix(1 0 0 1 856.422 322)">Thin</text><text transform="matrix(1 0 0 1 1153.13 322)">Light</text><text transform="matrix(1 0 0 1 1449.84 322)">Regular</text><text transform="matrix(1 0 0 1 1746.56 322)">Medium</text><text transform="matrix(1 0 0 1 2043.27 322)">Semibold</text><text transform="matrix(1 0 0 1 2339.98 322)">Bold</text><text transform="matrix(1 0 0 1 2636.69 322)">Heavy</text><text transform="matrix(1 0 0 1 2933.4 322)">Black</text><text id="template-version" style="text-anchor: end;" transform="matrix(1 0 0 1 3036 1933)">Template v.1.0</text><text class="lanchor" transform="matrix(1 0 0 1 263 726)">Small</text><text class="lanchor" transform="matrix(1 0 0 1 263 1156)">Medium</text><text class="lanchor" transform="matrix(1 0 0 1 263 1586)">Large</text></g><g id="Guides"><g id="H-reference" style="fill:#27AAE1;stroke:none;" transform="matrix(1 0 0 1 339 696)"><path d="M 54.9316 0 L 57.666 0 L 30.5664 -70.459 L 28.0762 -70.459 L 0.976562 0 L 3.66211 0 L 12.9395 -24.4629 L 45.7031 -24.4629 Z M 29.1992 -67.0898 L 29.4434 -67.0898 L 44.8242 -26.709 L 13.8184 -26.709 Z"/></g><line id="Baseline-S" style="fill:none;stroke:#27AAE1;opacity:1;stroke-width:0.577;" x1="263" x2="3036" y1="696" y2="696"/><line id="Capline-S" style="fill:none;stroke:#27AAE1;opacity:1;stroke-width:0.577;" x1="263" x2="3036" y1="625.541" y2="625.541"/><g id="H-reference" style="fill:#27AAE1;stroke:none;" transform="matrix(1 0 0 1 339 1126)"><path d="M 54.9316 0 L 57.666 0 L 30.5664 -70.459 L 28.0762 -70.459 L 0.976562 0 L 3.66211 0 L 12.9395 -24.4629 L 45.7031 -24.4629 Z M 29.1992 -67.0898 L 29.4434 -67.0898 L 44.8242 -26.709 L 13.8184 -26.709 Z"/></g><line id="Baseline-M" style="fill:none;stroke:#27AAE1;opacity:1;stroke-width:0.577;" x1="263" x2="3036" y1="1126" y2="1126"/><line id="Capline-M" style="fill:none;stroke:#27AAE1;opacity:1;stroke-width:0.577;" x1="263" x2="3036" y1="1055.54" y2="1055.54"/><g id="H-reference" style="fill:#27AAE1;stroke:none;" transform="matrix(1 0 0 1 339 1556)"><path d="M 54.9316 0 L 57.666 0 L 30.5664 -70.459 L 28.0762 -70.459 L 0.976562 0 L 3.66211 0 L 12.9395 -24.4629 L 45.7031 -24.4629 Z M 29.1992 -67.0898 L 29.4434 -67.0898 L 44.8242 -26.709 L 13.8184 -26.709 Z"/></g><line id="Baseline-L" style="fill:none;stroke:#27AAE1;opacity:1;stroke-width:0.577;" x1="263" x2="3036" y1="1556" y2="1556"/><line id="Capline-L" style="fill:none;stroke:#27AAE1;opacity:1;stroke-width:0.577;" x1="263" x2="3036" y1="1485.54" y2="1485.54"/><rect height="119.336" id="left-margin" style="fill:darkred;stroke:none;opacity:0.4;" width="12.4512" x="1394.06" y="1030.79"/><rect height="119.336" id="right-margin" style="fill:darkgreen;stroke:none;opacity:0.4;" width="12.4512" x="1502.5112" y="1030.79"/><rect x="1406.5112" y="1045" width="96" height="96" fill="none" stroke="blue" stroke-dasharray="5"/><rect x="1394.06" y="1030.79" width="120.9024" height="119.336" fill="none" stroke="blue"/></g><g id="Symbols"><g id="Bold-L" transform="matrix(1 0 0 1 2266 1556)"><path d="M49.988 32.656 Q43.994 32.656 39.653 28.317 Q35.314 23.976 35.314 17.983 V-88.442 Q35.314 -94.504 39.653 -98.89 Q43.994 -103.277 49.988 -103.277 H104.812 Q110.874 -103.277 115.26 -98.89 Q119.648 -94.504 119.648 -88.442 V17.983 Q119.648 23.976 115.26 28.317 Q110.874 32.656 104.812 32.656 H49.988 Z M49.826 18.144 H105.135 Q105.135 18.144 105.135 18.144 Q105.135 18.144 105.135 18.144 V-88.765 Q105.135 -88.765 105.135 -88.765 Q105.135 -88.765 105.135 -88.765 H49.826 Q49.826 -88.765 49.826 -88.765 Q49.826 -88.765 49.826 -88.765 V18.144 Q49.826 18.144 49.826 18.144 Q49.826 18.144 49.826 18.144 Z"/></g><g id="Semibold-L" transform="matrix(1 0 0 1 1970.27 1556)"><path d="M49.076 32.306 Q43.675 32.306 39.669 28.301 Q35.664 24.295 35.664 18.894 V-89.354 Q35.664 -94.794 39.669 -98.825 Q43.675 -102.857 49.076 -102.857 H105.724 Q111.164 -102.857 115.195 -98.825 Q119.227 -94.794 119.227 -89.354 V18.894 Q119.227 24.295 115.195 28.301 Q111.164 32.306 105.724 32.306 H49.076 Z M48.985 18.985 H105.977 Q105.977 18.985 105.977 18.985 Q105.977 18.985 105.977 18.985 V-89.607 Q105.977 -89.607 105.977 -89.607 Q105.977 -89.607 105.977 -89.607 H48.985 Q48.985 -89.607 48.985 -89.607 Q48.985 -89.607 48.985 -89.607 V18.985 Q48.985 18.985 48.985 18.985 Q48.985 18.985 48.985 18.985 Z"/></g><g id="Medium-L" transform="matrix(1 0 0 1 1674.31 1556)"><path d="M48.393 32.044 Q43.434 32.044 39.68 28.29 Q35.927 24.536 35.927 19.577 V-90.037 Q35.927 -95.012 39.68 -98.777 Q43.434 -102.541 48.393 -102.541 H106.407 Q111.382 -102.541 115.147 -98.777 Q118.911 -95.012 118.911 -90.037 V19.577 Q118.911 24.536 115.147 28.29 Q111.382 32.044 106.407 32.044 H48.393 Z M48.354 19.616 H106.607 Q106.607 19.616 106.607 19.616 Q106.607 19.616 106.607 19.616 V-90.237 Q106.607 -90.237 106.607 -90.237 Q106.607 -90.237 106.607 -90.237 H48.354 Q48.354 -90.237 48.354 -90.237 Q48.354 -90.237 48.354 -90.237 V19.616 Q48.354 19.616 48.354 19.616 Q48.354 19.616 48.354 19.616 Z"/></g><g id="Regular-L" transform="matrix(1 0 0 1 1378.56 1556)"><path d="M47.891 31.85 Q43.259 31.85 39.69 28.28 Q36.12 24.71 36.12 20.079 V-90.539 Q36.12 -95.17 39.69 -98.74 Q43.259 -102.31 47.891 -102.31 H106.909 Q111.54 -102.31 115.11 -98.74 Q118.68 -95.17 118.68 -90.539 V20.079 Q118.68 24.71 115.11 28.28 Q111.54 31.85 106.909 31.85 H47.891 Z M47.891 20.079 H107.07 Q107.07 20.079 107.07 20.079 Q107.07 20.079 107.07 20.079 V-90.7 Q107.07 -90.7 107.07 -90.7 Q107.07 -90.7 107.07 -90.7 H47.891 Q47.891 -90.7 47.891 -90.7 Q47.891 -90.7 47.891 -90.7 V20.079 Q47.891 20.079 47.891 20.079 Q47.891 20.079 47.891 20.079 Z"/></g><g id="Light-L" transform="matrix(1 0 0 1 1082.77 1556)"><path d="M50.744 28.625 Q46.188 28.625 42.767 25.203 Q39.345 21.782 39.345 17.226 V-87.686 Q39.345 -92.242 42.767 -95.663 Q46.188 -99.085 50.744 -99.085 H104.056 Q108.612 -99.085 112.033 -95.663 Q115.455 -92.242 115.455 -87.686 V17.226 Q115.455 21.782 112.033 25.203 Q108.612 28.625 104.056 28.625 H50.744 Z M50.744 19.21 H104.217 Q105.085 19.21 105.643 18.652 Q106.201 18.094 106.201 17.226 V-87.847 Q106.201 -88.715 105.643 -89.273 Q105.085 -89.831 104.217 -89.831 H50.744 Q49.876 -89.831 49.318 -89.273 Q48.76 -88.715 48.76 -87.847 V17.226 Q48.76 18.094 49.318 18.652 Q49.876 19.21 50.744 19.21 Z"/></g><g id="Thin-L" transform="matrix(1 0 0 1 787.282 1556)"><path d="M53.596 25.4 Q49.117 25.4 45.843 22.127 Q42.57 18.853 42.57 14.374 V-84.834 Q42.57 -89.313 45.843 -92.587 Q49.117 -95.86 53.596 -95.86 H101.204 Q105.683 -95.86 108.957 -92.587 Q112.23 -89.313 112.23 -84.834 V14.374 Q112.23 18.853 108.957 22.127 Q105.683 25.4 101.204 25.4 H53.596 Z M53.596 18.342 H101.365 Q103.1 18.342 104.217 17.226 Q105.333 16.109 105.333 14.374 V-84.995 Q105.333 -86.73 104.217 -87.847 Q103.1 -88.963 101.365 -88.963 H53.596 Q51.861 -88.963 50.744 -87.847 Q49.628 -86.73 49.628 -84.995 V14.374 Q49.628 16.109 50.744 17.226 Q51.861 18.342 53.596 18.342 Z"/></g><g id="Ultralight-L" transform="matrix(1 0 0 1 491.205 1556)"><path d="M55.309 23.465 Q50.874 23.465 47.69 20.28 Q44.505 17.096 44.505 12.661 V-83.121 Q44.505 -87.556 47.69 -90.74 Q50.874 -93.925 55.309 -93.925 H99.491 Q103.926 -93.925 107.11 -90.74 Q110.295 -87.556 110.295 -83.121 V12.661 Q110.295 17.096 107.11 20.28 Q103.926 23.465 99.491 23.465 H55.309 Z M55.309 17.821 H99.653 Q101.91 17.821 103.361 16.37 Q104.812 14.919 104.812 12.661 V-83.282 Q104.812 -85.54 103.361 -86.991 Q101.91 -88.442 99.653 -88.442 H55.309 Q53.051 -88.442 51.6 -86.991 Q50.149 -85.54 50.149 -83.282 V12.661 Q50.149 14.919 51.6 16.37 Q53.051 17.821 55.309 17.821 Z"/></g><g id="Bold-M" transform="matrix(1 0 0 1 2281.8 1126)"><path d="M41.25 20.52 Q34.11 20.52 29.18 15.59 Q24.25 10.66 24.25 3.52 V-73.98 Q24.25 -81.121 29.18 -86.05 Q34.11 -90.98 41.25 -90.98 H78.75 Q85.891 -90.98 90.82 -86.05 Q95.75 -81.121 95.75 -73.98 V3.52 Q95.75 10.66 90.82 15.59 Q85.891 20.52 78.75 20.52 H41.25 Z M41 3.77 H79 Q79 3.77 79 3.77 Q79 3.77 79 3.77 V-74.23 Q79 -74.23 79 -74.23 Q79 -74.23 79 -74.23 H41 Q41 -74.23 41 -74.23 Q41 -74.23 41 -74.23 V3.77 Q41 3.77 41 3.77 Q41 3.77 41 3.77 Z"/></g><g id="Semibold-M" transform="matrix(1 0 0 1 1985.97 1126)"><path d="M40.38 19.759 Q33.968 19.759 29.49 15.28 Q25.011 10.803 25.011 4.39 V-74.85 Q25.011 -81.262 29.49 -85.74 Q33.968 -90.219 40.38 -90.219 H79.62 Q86.032 -90.219 90.51 -85.74 Q94.989 -81.262 94.989 -74.85 V4.39 Q94.989 10.803 90.51 15.28 Q86.032 19.759 79.62 19.759 H40.38 Z M40.185 4.585 H79.815 Q79.815 4.585 79.815 4.585 Q79.815 4.585 79.815 4.585 V-75.045 Q79.815 -75.045 79.815 -75.045 Q79.815 -75.045 79.815 -75.045 H40.185 Q40.185 -75.045 40.185 -75.045 Q40.185 -75.045 40.185 -75.045 V4.585 Q40.185 4.585 40.185 4.585 Q40.185 4.585 40.185 4.585 Z"/></g><g id="Medium-M" transform="matrix(1 0 0 1 1689.91 1126)"><path d="M39.729 19.189 Q33.862 19.189 29.721 15.049 Q25.581 10.908 25.581 5.041 V-75.501 Q25.581 -81.367 29.721 -85.509 Q33.862 -89.649 39.729 -89.649 H80.271 Q86.138 -89.649 90.279 -85.509 Q94.419 -81.367 94.419 -75.501 V5.041 Q94.419 10.908 90.279 15.049 Q86.138 19.189 80.271 19.189 H39.729 Z M39.574 5.196 H80.426 Q80.426 5.196 80.426 5.196 Q80.426 5.196 80.426 5.196 V-75.656 Q80.426 -75.656 80.426 -75.656 Q80.426 -75.656 80.426 -75.656 H39.574 Q39.574 -75.656 39.574 -75.656 Q39.574 -75.656 39.574 -75.656 V5.196 Q39.574 5.196 39.574 5.196 Q39.574 5.196 39.574 5.196 Z"/></g><g id="Regular-M" transform="matrix(1 0 0 1 1394.06 1126)"><path d="M39.25 18.77 Q33.784 18.77 29.892 14.878 Q26 10.985 26 5.52 V-75.98 Q26 -81.445 29.892 -85.337 Q33.784 -89.23 39.25 -89.23 H80.75 Q86.215 -89.23 90.108 -85.337 Q94 -81.445 94 -75.98 V5.52 Q94 10.985 90.108 14.878 Q86.215 18.77 80.75 18.77 H39.25 Z M39.125 5.645 H80.875 Q80.875 5.645 80.875 5.645 Q80.875 5.645 80.875 5.645 V-76.105 Q80.875 -76.105 80.875 -76.105 Q80.875 -76.105 80.875 -76.105 H39.125 Q39.125 -76.105 39.125 -76.105 Q39.125 -76.105 39.125 -76.105 V5.645 Q39.125 5.645 39.125 5.645 Q39.125 5.645 39.125 5.645 Z"/></g><g id="Light-M" transform="matrix(1 0 0 1 1098.18 1126)"><path d="M40.789 16.27 Q35.66 16.27 32.08 12.69 Q28.5 9.11 28.5 3.981 V-74.441 Q28.5 -79.57 32.08 -83.15 Q35.66 -86.73 40.789 -86.73 H79.211 Q84.34 -86.73 87.92 -83.15 Q91.5 -79.57 91.5 -74.441 V3.981 Q91.5 9.11 87.92 12.69 Q84.34 16.27 79.211 16.27 H40.789 Z M40.664 5.645 H79.336 Q80.01 5.645 80.442 5.213 Q80.875 4.78 80.875 4.106 V-74.566 Q80.875 -75.24 80.442 -75.672 Q80.01 -76.105 79.336 -76.105 H40.664 Q39.99 -76.105 39.557 -75.672 Q39.125 -75.24 39.125 -74.566 V4.106 Q39.125 4.78 39.557 5.213 Q39.99 5.645 40.664 5.645 Z"/></g><g id="Thin-M" transform="matrix(1 0 0 1 802.565 1126)"><path d="M42.328 13.77 Q37.534 13.77 34.267 10.503 Q31 7.236 31 2.443 V-72.902 Q31 -77.696 34.267 -80.962 Q37.534 -84.23 42.328 -84.23 H77.672 Q82.466 -84.23 85.733 -80.962 Q89 -77.696 89 -72.902 V2.443 Q89 7.236 85.733 10.503 Q82.466 13.77 77.672 13.77 H42.328 Z M42.203 5.645 H77.797 Q79.144 5.645 80.01 4.78 Q80.875 3.914 80.875 2.568 V-73.027 Q80.875 -74.374 80.01 -75.24 Q79.144 -76.105 77.797 -76.105 H42.203 Q40.856 -76.105 39.99 -75.24 Q39.125 -74.374 39.125 -73.027 V2.568 Q39.125 3.914 39.99 4.78 Q40.856 5.645 42.203 5.645 Z"/></g><g id="Ultralight-M" transform="matrix(1 0 0 1 506.415 1126)"><path d="M43.25 12.27 Q38.659 12.27 35.58 9.19 Q32.5 6.111 32.5 1.52 V-71.98 Q32.5 -76.57 35.58 -79.65 Q38.659 -82.73 43.25 -82.73 H76.75 Q81.34 -82.73 84.42 -79.65 Q87.5 -76.57 87.5 -71.98 V1.52 Q87.5 6.111 84.42 9.19 Q81.34 12.27 76.75 12.27 H43.25 Z M43.125 5.645 H76.875 Q78.625 5.645 79.75 4.52 Q80.875 3.395 80.875 1.645 V-72.105 Q80.875 -73.855 79.75 -74.98 Q78.625 -76.105 76.875 -76.105 H43.125 Q41.375 -76.105 40.25 -74.98 Q39.125 -73.855 39.125 -72.105 V1.645 Q39.125 3.395 40.25 4.52 Q41.375 5.645 43.125 5.645 Z"/></g><g id="Bold-S" transform="matrix(1 0 0 1 2294.23 696)"><path d="M32.941 7.179 Q27.307 7.179 23.812 3.683 Q20.317 0.188 20.317 -5.445 V-65.015 Q20.317 -70.649 23.812 -74.143 Q27.307 -77.639 32.941 -77.639 H61.739 Q67.374 -77.639 70.868 -74.143 Q74.363 -70.649 74.363 -65.015 V-5.445 Q74.363 0.188 70.868 3.683 Q67.374 7.179 61.739 7.179 H32.941 Z M32.744 -5.248 H61.937 Q61.937 -5.248 61.937 -5.248 Q61.937 -5.248 61.937 -5.248 V-65.212 Q61.937 -65.212 61.937 -65.212 Q61.937 -65.212 61.937 -65.212 H32.744 Q32.744 -65.212 32.744 -65.212 Q32.744 -65.212 32.744 -65.212 V-5.248 Q32.744 -5.248 32.744 -5.248 Q32.744 -5.248 32.744 -5.248 Z"/></g><g id="Semibold-S" transform="matrix(1 0 0 1 1998.1 696)"><path d="M32.254 6.578 Q27.195 6.578 24.057 3.439 Q20.917 0.301 20.917 -4.759 V-65.701 Q20.917 -70.761 24.057 -73.899 Q27.195 -77.038 32.254 -77.038 H62.426 Q67.485 -77.038 70.623 -73.899 Q73.763 -70.761 73.763 -65.701 V-4.759 Q73.763 0.301 70.623 3.439 Q67.485 6.578 62.426 6.578 H32.254 Z M32.1 -4.605 H62.58 Q62.58 -4.605 62.58 -4.605 Q62.58 -4.605 62.58 -4.605 V-65.855 Q62.58 -65.855 62.58 -65.855 Q62.58 -65.855 62.58 -65.855 H32.1 Q32.1 -65.855 32.1 -65.855 Q32.1 -65.855 32.1 -65.855 V-4.605 Q32.1 -4.605 32.1 -4.605 Q32.1 -4.605 32.1 -4.605 Z"/></g><g id="Medium-S" transform="matrix(1 0 0 1 1701.85 696)"><path d="M31.74 6.128 Q27.112 6.128 24.239 3.256 Q21.367 0.383 21.367 -4.245 V-66.215 Q21.367 -70.843 24.239 -73.716 Q27.112 -76.588 31.74 -76.588 H62.94 Q67.568 -76.588 70.441 -73.716 Q73.313 -70.843 73.313 -66.215 V-4.245 Q73.313 0.383 70.441 3.256 Q67.568 6.128 62.94 6.128 H31.74 Z M31.618 -4.123 H63.062 Q63.062 -4.123 63.062 -4.123 Q63.062 -4.123 63.062 -4.123 V-66.337 Q63.062 -66.337 63.062 -66.337 Q63.062 -66.337 63.062 -66.337 H31.618 Q31.618 -66.337 31.618 -66.337 Q31.618 -66.337 31.618 -66.337 V-4.123 Q31.618 -4.123 31.618 -4.123 Q31.618 -4.123 31.618 -4.123 Z"/></g><g id="Regular-S" transform="matrix(1 0 0 1 1405.73 696)"><path d="M31.363 5.798 Q27.05 5.798 24.374 3.121 Q21.698 0.445 21.698 -3.867 V-66.593 Q21.698 -70.905 24.374 -73.581 Q27.05 -76.258 31.363 -76.258 H63.317 Q67.629 -76.258 70.306 -73.581 Q72.983 -70.905 72.983 -66.593 V-3.867 Q72.983 0.445 70.306 3.121 Q67.629 5.798 63.317 5.798 H31.363 Z M31.264 -3.769 H63.416 Q63.416 -3.769 63.416 -3.769 Q63.416 -3.769 63.416 -3.769 V-66.691 Q63.416 -66.691 63.416 -66.691 Q63.416 -66.691 63.416 -66.691 H31.264 Q31.264 -66.691 31.264 -66.691 Q31.264 -66.691 31.264 -66.691 V-3.769 Q31.264 -3.769 31.264 -3.769 Q31.264 -3.769 31.264 -3.769 Z"/></g><g id="Light-S" transform="matrix(1 0 0 1 1109.75 696)"><path d="M32.577 3.826 Q28.53 3.826 26.1 1.395 Q23.67 -1.035 23.67 -5.081 V-65.379 Q23.67 -69.425 26.1 -71.855 Q28.53 -74.285 32.577 -74.285 H62.103 Q66.15 -74.285 68.58 -71.855 Q71.01 -69.425 71.01 -65.379 V-5.081 Q71.01 -1.035 68.58 1.395 Q66.15 3.826 62.103 3.826 H32.577 Z M32.478 -3.769 H62.202 Q62.733 -3.769 63.075 -4.11 Q63.416 -4.451 63.416 -4.983 V-65.477 Q63.416 -66.009 63.075 -66.35 Q62.733 -66.691 62.202 -66.691 H32.478 Q31.947 -66.691 31.605 -66.35 Q31.264 -66.009 31.264 -65.477 V-4.983 Q31.264 -4.451 31.605 -4.11 Q31.947 -3.769 32.478 -3.769 Z"/></g><g id="Thin-S" transform="matrix(1 0 0 1 814.015 696)"><path d="M33.791 1.853 Q30.009 1.853 27.826 -0.331 Q25.643 -2.513 25.643 -6.295 V-64.165 Q25.643 -67.947 27.826 -70.129 Q30.009 -72.313 33.791 -72.313 H60.889 Q64.671 -72.313 66.854 -70.129 Q69.038 -67.947 69.038 -64.165 V-6.295 Q69.038 -2.513 66.854 -0.331 Q64.671 1.853 60.889 1.853 H33.791 Z M33.692 -3.769 H60.988 Q62.05 -3.769 62.733 -4.451 Q63.416 -5.135 63.416 -6.197 V-64.263 Q63.416 -65.325 62.733 -66.009 Q62.05 -66.691 60.988 -66.691 H33.692 Q32.63 -66.691 31.947 -66.009 Q31.264 -65.325 31.264 -64.263 V-6.197 Q31.264 -5.135 31.947 -4.451 Q32.63 -3.769 33.692 -3.769 Z"/></g><g id="Ultralight-S" transform="matrix(1 0 0 1 517.792 696)"><path d="M34.519 0.67 Q30.896 0.67 28.862 -1.366 Q26.826 -3.401 26.826 -7.023 V-63.437 Q26.826 -67.058 28.862 -69.094 Q30.896 -71.129 34.519 -71.129 H60.161 Q63.783 -71.129 65.818 -69.094 Q67.854 -67.058 67.854 -63.437 V-7.023 Q67.854 -3.401 65.818 -1.366 Q63.783 0.67 60.161 0.67 H34.519 Z M34.42 -3.769 H60.26 Q61.641 -3.769 62.528 -4.656 Q63.416 -5.544 63.416 -6.925 V-63.535 Q63.416 -64.916 62.528 -65.804 Q61.641 -66.691 60.26 -66.691 H34.42 Q33.039 -66.691 32.152 -65.804 Q31.264 -64.916 31.264 -63.535 V-6.925 Q31.264 -5.544 32.152 -4.656 Q33.039 -3.769 34.42 -3.769 Z"/></g></g></svg>