<svg xmlns="http://www.w3.org/2000/svg" version="1.1" width="3300" height="2000"><g id="Notes"><style>
    text {
      font-family: monospace;
      text-anchor: middle;
    }
    text.emphasis {
      font-weight:bold;
    }
    text.lanchor {
      text-anchor: start;
    }
  </style><rect height="2200" id="artboard" fill="white" width="3300" x="0" y="0"/><line id="" style="fill:none;stroke:black;stroke-width:0.5;" x1="263" x2="3036" y1="292" y2="292"/><text class="lanchor emphasis" transform="matrix(1 0 0 1 263 322)">Weight/Scale Variations</text><text transform="matrix(1 0 0 1 559.711 322)">Ultralight</text><text transform="matrix(1 0 0 1 856.422 322)">Thin</text><text transform="matrix(1 0 0 1 1153.13 322)">Light</text><text transform="matrix(1 0 0 1 1449.84 322)">Regular</text><text transform="matrix(1 0 0 1 1746.56 322)">Medium</text><text transform="matrix(1 0 0 1 2043.27 322)">Semibold</text><text transform="matrix(1 0 0 1 2339.98 322)">Bold</text><text transform="matrix(1 0 0 1 2636.69 322)">Heavy</text><text transform="matrix(1 0 0 1 2933.4 322)">Black</text><text id="template-version" style="text-anchor: end;" transform="matrix(1 0 0 1 3036 1933)">Template v.1.0</text><text class="lanchor" transform="matrix(1 0 0 1 263 726)">Small</text><text class="lanchor" transform="matrix(1 0 0 1 263 1156)">Medium</text><text class="lanchor" transform="matrix(1 0 0 1 263 1586)">Large</text></g><g id="Guides"><g id="H-reference" style="fill:#27AAE1;stroke:none;" transform="matrix(1 0 0 1 339 696)"><path d="M 54.9316 0 L 57.666 0 L 30.5664 -70.459 L 28.0762 -70.459 L 0.976562 0 L 3.66211 0 L 12.9395 -24.4629 L 45.7031 -24.4629 Z M 29.1992 -67.0898 L 29.4434 -67.0898 L 44.8242 -26.709 L 13.8184 -26.709 Z"/></g><line id="Baseline-S" style="fill:none;stroke:#27AAE1;opacity:1;stroke-width:0.577;" x1="263" x2="3036" y1="696" y2="696"/><line id="Capline-S" style="fill:none;stroke:#27AAE1;opacity:1;stroke-width:0.577;" x1="263" x2="3036" y1="625.541" y2="625.541"/><g id="H-reference" style="fill:#27AAE1;stroke:none;" transform="matrix(1 0 0 1 339 1126)"><path d="M 54.9316 0 L 57.666 0 L 30.5664 -70.459 L 28.0762 -70.459 L 0.976562 0 L 3.66211 0 L 12.9395 -24.4629 L 45.7031 -24.4629 Z M 29.1992 -67.0898 L 29.4434 -67.0898 L 44.8242 -26.709 L 13.8184 -26.709 Z"/></g><line id="Baseline-M" style="fill:none;stroke:#27AAE1;opacity:1;stroke-width:0.577;" x1="263" x2="3036" y1="1126" y2="1126"/><line id="Capline-M" style="fill:none;stroke:#27AAE1;opacity:1;stroke-width:0.577;" x1="263" x2="3036" y1="1055.54" y2="1055.54"/><g id="H-reference" style="fill:#27AAE1;stroke:none;" transform="matrix(1 0 0 1 339 1556)"><path d="M 54.9316 0 L 57.666 0 L 30.5664 -70.459 L 28.0762 -70.459 L 0.976562 0 L 3.66211 0 L 12.9395 -24.4629 L 45.7031 -24.4629 Z M 29.1992 -67.0898 L 29.4434 -67.0898 L 44.8242 -26.709 L 13.8184 -26.709 Z"/></g><line id="Baseline-L" style="fill:none;stroke:#27AAE1;opacity:1;stroke-width:0.577;" x1="263" x2="3036" y1="1556" y2="1556"/><line id="Capline-L" style="fill:none;stroke:#27AAE1;opacity:1;stroke-width:0.577;" x1="263" x2="3036" y1="1485.54" y2="1485.54"/><rect height="119.336" id="left-margin" style="fill:darkred;stroke:none;opacity:0.4;" width="12.4512" x="1394.06" y="1030.79"/><rect height="119.336" id="right-margin" style="fill:darkgreen;stroke:none;opacity:0.4;" width="12.4512" x="1502.5112" y="1030.79"/><rect x="1406.5112" y="1045" width="96" height="96" fill="none" stroke="blue" stroke-dasharray="5"/><rect x="1394.06" y="1030.79" width="120.9024" height="119.336" fill="none" stroke="blue"/></g><g id="Symbols"><g id="Bold-L" transform="matrix(1 0 0 1 2266 1556)"><path d="M18.705 7.179  8.869 -4.109  20.963 -14.59 Q17.899 -18.46 14.835 -22.491 Q11.771 -26.522 9.03 -30.554 H28.219 Q29.025 -29.909 29.726 -28.877 Q30.429 -27.846 31.121 -26.845 Q33.218 -29.909 35.153 -32.811 Q37.087 -35.714 39.023 -39.261 H1.613 V-54.257 H20.801 V-64.739 H35.959 V-54.257 H63.371 V-39.261 H56.276 Q53.051 -32.489 49.02 -26.603 Q44.989 -20.717 40.796 -15.074 Q43.376 -12.816 45.473 -11.284 Q47.569 -9.752 50.149 -7.656 L42.57 6.534 Q39.345 4.115 36.604 1.938 Q33.863 -0.239 30.799 -3.302 L18.705 7.179 Z M43.699 40.396  68.531 -18.782 H86.752 L111.585 40.396 H95.138 L91.267 31.205 H63.371 L59.824 40.396 H43.699 Z M67.886 18.628 H86.591 L77.078 -5.399 L67.886 18.628 Z M79.496 -53.451 H106.103 V-63.126 H79.496 V-53.451 Z M116.584 -53.451 H125.775 V-63.126 H116.584 V-53.451 Z M67.564 -72.801 H77.722 V-82.476 H67.564 V-72.801 Z M86.752 -72.801 H125.775 V-82.476 H86.752 V-72.801 Z M79.496 -25.394 V-40.712 H137.546 Q137.708 -40.712 137.869 -40.712 Q138.03 -40.712 138.03 -40.712 V-95.86 Q138.03 -95.86 137.869 -95.86 Q137.708 -95.86 137.546 -95.86 H55.954 Q55.631 -95.86 55.47 -95.86 Q55.309 -95.86 55.309 -95.86 V-76.349 H39.99 V-95.86 Q39.99 -102.149 44.728 -106.583 Q49.467 -111.017 55.954 -111.017 H137.546 Q143.964 -111.017 148.576 -106.583 Q153.188 -102.149 153.188 -95.86 V-40.712 Q153.188 -34.195 148.576 -29.794 Q143.964 -25.394 137.546 -25.394 H79.496 Z"/></g><g id="Semibold-L" transform="matrix(1 0 0 1 1970.27 1556)"><path d="M19.126 8.02  10.831 -1.445  25.17 -14.871 Q22.035 -18.67 19.076 -22.701 Q16.117 -26.732 13.587 -30.763 H29.41 Q30.497 -29.488 31.524 -27.993 Q32.553 -26.5 33.716 -25.023 Q36.512 -28.786 38.868 -32.355 Q41.224 -35.923 43.299 -40.172 H3.715 V-52.855 H25.779 V-63.126 H38.553 V-52.855 H65.264 V-40.172 H57.539 Q54.523 -33.19 50.528 -27.059 Q46.53 -20.927 41.919 -15.143 Q44.358 -12.676 46.595 -10.759 Q48.831 -8.841 51.271 -6.674 L45.374 5.623 Q42.359 3.133 39.477 0.535 Q36.597 -2.061 33.463 -5.265 L19.126 8.02 Z M45.801 38.363  69.934 -20.324 H84.719 L108.921 38.363 H95.207 L90.637 26.998 H63.581 L59.334 38.363 H45.801 Z M67.465 16.244 H86.591 L76.868 -8.624 L67.465 16.244 Z M82.091 -52.54 H105.962 V-62.215 H82.091 V-52.54 Z M116.443 -52.54 H125.844 V-62.215 H116.443 V-52.54 Z M67.214 -71.89 H77.161 V-81.565 H67.214 V-71.89 Z M86.191 -71.89 H125.844 V-81.565 H86.191 V-71.89 Z M82.091 -26.866 V-39.73 H137.827 Q138.057 -39.73 138.185 -39.73 Q138.311 -39.73 138.311 -39.73 V-96.141 Q138.311 -96.141 138.185 -96.141 Q138.057 -96.141 137.827 -96.141 H55.393 Q55.07 -96.141 54.909 -96.141 Q54.748 -96.141 54.748 -96.141 V-73.895 H41.883 V-96.141 Q41.883 -101.447 45.893 -105.18 Q49.904 -108.915 55.393 -108.915 H137.827 Q143.277 -108.915 147.181 -105.18 Q151.085 -101.447 151.085 -96.141 V-39.73 Q151.085 -34.295 147.181 -30.58 Q143.277 -26.866 137.827 -26.866 H82.091 Z"/></g><g id="Medium-L" transform="matrix(1 0 0 1 1674.31 1556)"><path d="M19.442 8.651  12.303 0.553  28.324 -15.08 Q25.137 -18.828 22.257 -22.859 Q19.377 -26.89 17.005 -30.921 H30.304 Q31.602 -29.172 32.874 -27.33 Q34.146 -25.489 35.66 -23.655 Q38.984 -27.946 41.656 -32.013 Q44.326 -36.081 46.506 -40.856 H5.294 V-51.803 H29.512 V-61.917 H40.498 V-51.803 H66.683 V-40.856 H58.485 Q55.628 -33.716 51.658 -27.401 Q47.688 -21.085 42.759 -15.196 Q45.094 -12.571 47.435 -10.364 Q49.778 -8.158 52.111 -5.939 L47.477 4.939 Q44.621 2.398 41.635 -0.516 Q38.647 -3.428 35.46 -6.737 L19.442 8.651 Z M47.38 36.837  70.985 -21.482 H83.194 L106.923 36.837 H95.26 L90.163 23.844 H63.739 L58.964 36.837 H47.38 Z M67.149 14.456 H86.591 L76.71 -11.042 L67.149 14.456 Z M84.035 -51.856 H105.857 V-61.531 H84.035 V-51.856 Z M116.339 -51.856 H125.898 V-61.531 H116.339 V-51.856 Z M66.951 -71.206 H76.74 V-80.881 H66.951 V-71.206 Z M85.77 -71.206 H125.898 V-80.881 H85.77 V-71.206 Z M84.035 -27.971 V-38.995 H138.036 Q138.32 -38.995 138.42 -38.995 Q138.52 -38.995 138.52 -38.995 V-96.35 Q138.52 -96.35 138.42 -96.35 Q138.32 -96.35 138.036 -96.35 H54.972 Q54.649 -96.35 54.488 -96.35 Q54.327 -96.35 54.327 -96.35 V-72.055 H43.302 V-96.35 Q43.302 -100.922 46.767 -104.129 Q50.231 -107.336 54.972 -107.336 H138.036 Q142.761 -107.336 146.134 -104.129 Q149.506 -100.922 149.506 -96.35 V-38.995 Q149.506 -34.369 146.134 -31.17 Q142.761 -27.971 138.036 -27.971 H84.035 Z"/></g><g id="Regular-L" transform="matrix(1 0 0 1 1378.56 1556)"><path d="M19.672 9.114  13.384 2.019  30.637 -15.235 Q27.413 -18.944 24.591 -22.975 Q21.769 -27.006 19.511 -31.037 H30.96 Q32.411 -28.941 33.863 -26.845 Q35.314 -24.749 37.087 -22.652 Q40.796 -27.329 43.699 -31.763 Q46.601 -36.197 48.859 -41.357 H6.45 V-51.032 H32.25 V-61.03 H41.925 V-51.032 H67.725 V-41.357 H59.179 Q56.438 -34.101 52.487 -27.651 Q48.536 -21.201 43.376 -15.235 Q45.634 -12.494 48.053 -10.075 Q50.471 -7.656 52.729 -5.399 L49.02 4.438 Q46.279 1.858 43.215 -1.287 Q40.151 -4.431 36.926 -7.817 L19.672 9.114 Z M48.536 35.72  71.756 -22.33 H82.076 L105.457 35.72 H95.299 L89.816 21.53 H63.855 L58.695 35.72 H48.536 Z M66.919 13.145 H86.591 L76.594 -12.816 L66.919 13.145 Z M85.463 -51.355 H105.78 V-61.03 H85.463 V-51.355 Z M116.261 -51.355 H125.936 V-61.03 H116.261 V-51.355 Z M66.758 -70.705 H76.433 V-80.38 H66.758 V-70.705 Z M85.463 -70.705 H125.936 V-80.38 H85.463 V-70.705 Z M85.463 -28.78 V-38.455 H138.191 Q138.514 -38.455 138.594 -38.455 Q138.675 -38.455 138.675 -38.455 V-96.505 Q138.675 -96.505 138.594 -96.505 Q138.514 -96.505 138.191 -96.505 H54.664 Q54.341 -96.505 54.18 -96.505 Q54.019 -96.505 54.019 -96.505 V-70.705 H44.344 V-96.505 Q44.344 -100.536 47.407 -103.358 Q50.471 -106.18 54.664 -106.18 H138.191 Q142.384 -106.18 145.367 -103.358 Q148.35 -100.536 148.35 -96.505 V-38.455 Q148.35 -34.424 145.367 -31.602 Q142.384 -28.78 138.191 -28.78 H85.463 Z"/></g><g id="Light-L" transform="matrix(1 0 0 1 1082.77 1556)"><path d="M21.595 4.462  16.609 -1.206  32.995 -17.405 Q29.894 -21.053 27.134 -24.991 Q24.375 -28.928 22.054 -32.898 H31.332 Q32.969 -30.554 34.607 -28.179 Q36.244 -25.803 38.142 -23.522 Q42.036 -28.32 45.218 -33.035 Q48.399 -37.749 50.595 -43.28 H9.675 V-50.971 H34.359 V-60.285 H42.049 V-50.971 H67.725 V-43.28 H58.993 Q56.313 -36.023 52.239 -29.636 Q48.164 -23.248 43.067 -17.405 Q45.385 -14.603 47.743 -12.276 Q50.099 -9.951 52.48 -7.632 L49.517 0.158 Q46.651 -2.485 43.836 -5.349 Q41.02 -8.214 37.981 -11.476 L21.595 4.462 Z M47.791 34.232  70.826 -23.075 H78.913 L102.108 34.232 H93.935 L88.204 19.484 H61.498 L55.904 34.232 H47.791 Z M64.003 12.773 H85.537 L74.672 -15.111 L64.003 12.773 Z M81.989 -51.231 H105.283 V-58.921 H81.989 V-51.231 Z M115.889 -51.231 H123.579 V-58.921 H115.889 V-51.231 Z M66.509 -69.775 H74.199 V-77.465 H66.509 V-69.775 Z M83.168 -69.775 H123.579 V-77.465 H83.168 V-69.775 Z M81.989 -29.525 V-37.215 H135.648 Q136.467 -37.215 136.951 -37.586 Q137.435 -37.958 137.435 -38.455 V-94.023 Q137.435 -94.52 136.951 -94.892 Q136.467 -95.265 135.648 -95.265 H54.602 Q53.783 -95.265 53.25 -94.892 Q52.716 -94.52 52.716 -94.023 V-69.154 H45.026 V-94.023 Q45.026 -97.745 47.841 -100.349 Q50.657 -102.955 54.602 -102.955 H135.648 Q139.593 -102.955 142.358 -100.349 Q145.125 -97.745 145.125 -94.023 V-38.455 Q145.125 -34.733 142.358 -32.129 Q139.593 -29.525 135.648 -29.525 H81.989 Z"/></g><g id="Thin-L" transform="matrix(1 0 0 1 787.282 1556)"><path d="M23.518 -0.189  19.834 -4.431  35.351 -19.576 Q32.374 -23.16 29.676 -27.006 Q26.979 -30.852 24.597 -34.759 H31.705 Q33.527 -32.166 35.351 -29.512 Q37.175 -26.858 39.197 -24.389 Q43.276 -29.314 46.738 -34.306 Q50.199 -39.298 52.332 -45.203 H12.9 V-50.908 H36.467 V-59.542 H42.173 V-50.908 H67.725 V-45.203 H58.806 Q56.189 -37.947 51.99 -31.621 Q47.791 -25.294 42.755 -19.576 Q45.137 -16.71 47.432 -14.479 Q49.726 -12.245 52.232 -9.864 L50.012 -4.122 Q47.024 -6.826 44.455 -9.411 Q41.888 -11.997 39.035 -15.135 L23.518 -0.189 Z M47.048 32.743  69.895 -23.818 H75.75 L98.759 32.743 H92.57 L86.591 17.437 H59.142 L53.113 32.743 H47.048 Z M61.09 12.4 H84.482 L72.748 -17.405 L61.09 12.4 Z M78.516 -51.107 H104.788 V-56.813 H78.516 V-51.107 Z M115.516 -51.107 H121.223 V-56.813 H115.516 V-51.107 Z M66.261 -68.844 H71.967 V-74.551 H66.261 V-68.844 Z M80.873 -68.844 H121.223 V-74.551 H80.873 V-68.844 Z M78.516 -30.268 V-35.975 H133.105 Q134.421 -35.975 135.308 -36.718 Q136.195 -37.463 136.195 -38.455 V-91.543 Q136.195 -92.535 135.308 -93.28 Q134.421 -94.025 133.105 -94.025 H54.54 Q53.225 -94.025 52.319 -93.28 Q51.415 -92.535 51.415 -91.543 V-67.604 H45.708 V-91.543 Q45.708 -94.954 48.275 -97.342 Q50.844 -99.73 54.54 -99.73 H133.105 Q136.801 -99.73 139.351 -97.342 Q141.9 -94.954 141.9 -91.543 V-38.455 Q141.9 -35.045 139.351 -32.656 Q136.801 -30.268 133.105 -30.268 H78.516 Z"/></g><g id="Ultralight-L" transform="matrix(1 0 0 1 491.205 1556)"><path d="M24.671 -2.98  21.769 -6.366  36.765 -20.879 Q33.863 -24.426 31.202 -28.216 Q28.541 -32.005 26.123 -35.875 H31.928 Q33.863 -33.134 35.797 -30.312 Q37.733 -27.49 39.829 -24.91 Q44.021 -29.909 47.649 -35.069 Q51.278 -40.229 53.374 -46.356 H14.835 V-50.871 H37.733 V-59.095 H42.248 V-50.871 H67.725 V-46.356 H58.695 Q56.115 -39.1 51.842 -32.811 Q47.569 -26.522 42.57 -20.879 Q44.989 -17.976 47.246 -15.799 Q49.504 -13.622 52.084 -11.204 L50.31 -6.689 Q47.246 -9.43 44.828 -11.849 Q42.409 -14.267 39.668 -17.331 L24.671 -2.98 Z M46.601 31.85  69.338 -24.265 H73.853 L96.75 31.85 H91.751 L85.624 16.209 H57.727 L51.439 31.85 H46.601 Z M59.34 12.178 H83.85 L71.595 -18.782 L59.34 12.178 Z M76.433 -51.032 H104.49 V-55.547 H76.433 V-51.032 Z M115.294 -51.032 H119.809 V-55.547 H115.294 V-51.032 Z M66.112 -68.286 H70.627 V-72.801 H66.112 V-68.286 Z M79.496 -68.286 H119.809 V-72.801 H79.496 V-68.286 Z M76.433 -30.715 V-35.23 H131.58 Q133.192 -35.23 134.321 -36.197 Q135.45 -37.165 135.45 -38.455 V-90.055 Q135.45 -91.345 134.321 -92.312 Q133.192 -93.28 131.58 -93.28 H54.503 Q52.89 -93.28 51.761 -92.312 Q50.633 -91.345 50.633 -90.055 V-66.674 H46.117 V-90.055 Q46.117 -93.28 48.536 -95.537 Q50.955 -97.795 54.503 -97.795 H131.58 Q135.127 -97.795 137.546 -95.537 Q139.965 -93.28 139.965 -90.055 V-38.455 Q139.965 -35.23 137.546 -32.972 Q135.127 -30.715 131.58 -30.715 H76.433 Z"/></g><g id="Bold-M" transform="matrix(1 0 0 1 2281.8 1126)"><path d="M15.25 6.52  6.25 -3.105  20 -14.98 Q16.625 -18.98 13.562 -23.292 Q10.5 -27.605 8 -32.23 H23.5 Q24.625 -30.23 25.938 -28.23 Q27.25 -26.23 28.75 -24.48 Q31.25 -27.48 33.188 -30.917 Q35.125 -34.355 36.75 -37.98 H0 V-51.105 H19.375 V-59.105 H32.625 V-51.105 H61.5 V-37.98 H51 Q48.375 -31.855 44.875 -26.292 Q41.375 -20.73 37.375 -15.605 Q39.5 -13.855 42.125 -11.98 Q44.75 -10.105 46.875 -8.605 L40 3.645 Q37.375 1.645 34.188 -0.792 Q31 -3.23 28.625 -5.605 L15.25 6.52 Z M40.625 24.645  59.125 -21.605 H75.375 L93.75 24.645 H79.5 L77.125 18.27 H57 L54.625 24.645 H40.625 Z M60.875 7.52 H73.25 L67 -9.48 L60.875 7.52 Z M68.875 -49.855 H82.875 V-57.355 H68.875 V-49.855 Z M90.375 -49.855 H97.25 V-57.355 H90.375 V-49.855 Z M53.25 -64.855 H61.375 V-72.355 H53.25 V-64.855 Z M68.875 -64.855 H97.25 V-72.355 H68.875 V-64.855 Z M68.875 -26.73 V-39.98 H106.75 Q106.75 -39.98 106.75 -39.98 Q106.75 -39.98 106.75 -39.98 V-81.98 Q106.75 -81.98 106.75 -81.98 Q106.75 -81.98 106.75 -81.98 H43.75 Q43.75 -81.98 43.75 -81.98 Q43.75 -81.98 43.75 -81.98 V-68.605 H30.5 V-81.98 Q30.5 -87.605 34.312 -91.417 Q38.125 -95.23 43.75 -95.23 H106.75 Q112.375 -95.23 116.188 -91.417 Q120 -87.605 120 -81.98 V-39.98 Q120 -34.355 116.188 -30.542 Q112.375 -26.73 106.75 -26.73 H68.875 Z"/></g><g id="Semibold-M" transform="matrix(1 0 0 1 1985.97 1126)"><path d="M15.685 7.39  8.261 -0.334  24.348 -15.251 Q20.919 -19.251 17.991 -23.537 Q15.065 -27.822 12.727 -32.447 H24.75 Q26.146 -29.85 27.812 -27.36 Q29.477 -24.871 31.468 -22.632 Q34.619 -26.285 37.019 -30.401 Q39.419 -34.517 41.153 -38.959 H2.174 V-49.637 H24.538 V-57.42 H35.288 V-49.637 H63.456 V-38.959 H52.304 Q49.896 -32.561 46.424 -26.755 Q42.951 -20.947 38.57 -15.659 Q40.532 -13.746 43.294 -11.464 Q46.054 -9.181 48.016 -7.572 L42.88 2.666 Q40.472 0.666 37.149 -2.205 Q33.826 -5.077 31.396 -7.616 L15.685 7.39 Z M42.799 22.525  60.593 -23.181 H73.31 L91.032 22.525 H79.609 L76.472 13.923 H57.218 L54.136 22.525 H42.799 Z M60.44 5.02 H73.25 L66.782 -12.849 L60.44 5.02 Z M71.537 -48.931 H82.713 V-56.431 H71.537 V-48.931 Z M90.213 -48.931 H97.359 V-56.431 H90.213 V-48.931 Z M52.924 -63.931 H60.778 V-71.431 H52.924 V-63.931 Z M68.278 -63.931 H97.359 V-71.431 H68.278 V-63.931 Z M71.537 -28.251 V-39.001 H107.076 Q107.076 -39.001 107.076 -39.001 Q107.076 -39.001 107.076 -39.001 V-82.306 Q107.076 -82.306 107.076 -82.306 Q107.076 -82.306 107.076 -82.306 H43.206 Q43.206 -82.306 43.206 -82.306 Q43.206 -82.306 43.206 -82.306 V-66.051 H32.456 V-82.306 Q32.456 -86.844 35.535 -89.95 Q38.614 -93.056 43.206 -93.056 H107.076 Q111.669 -93.056 114.748 -89.95 Q117.826 -86.844 117.826 -82.306 V-39.001 Q117.826 -34.464 114.748 -31.357 Q111.669 -28.251 107.076 -28.251 H71.537 Z"/></g><g id="Medium-M" transform="matrix(1 0 0 1 1689.91 1126)"><path d="M16.011 8.041  9.769 1.745  27.609 -15.455 Q24.139 -19.455 21.314 -23.72 Q18.489 -27.985 16.275 -32.61 H25.688 Q27.288 -29.564 29.219 -26.709 Q31.15 -23.852 33.505 -21.246 Q37.146 -25.387 39.892 -30.014 Q42.639 -34.64 44.454 -39.692 H3.804 V-48.537 H28.41 V-56.156 H37.285 V-48.537 H64.924 V-39.692 H53.282 Q51.038 -33.091 47.585 -27.101 Q44.134 -21.11 39.468 -15.7 Q41.307 -13.665 44.17 -11.076 Q47.032 -8.489 48.873 -6.797 L45.041 1.933 Q42.796 -0.067 39.371 -3.265 Q35.945 -6.464 33.475 -9.124 L16.011 8.041 Z M44.429 20.936  61.693 -24.364 H71.761 L88.995 20.936 H79.69 L75.984 10.661 H57.38 L53.769 20.936 H44.429 Z M60.114 3.145 H73.25 L66.62 -15.376 L60.114 3.145 Z M73.535 -48.239 H82.59 V-55.739 H73.535 V-48.239 Z M90.09 -48.239 H97.44 V-55.739 H90.09 V-48.239 Z M52.679 -63.239 H60.329 V-70.739 H52.679 V-63.239 Z M67.829 -63.239 H97.44 V-70.739 H67.829 V-63.239 Z M73.535 -29.392 V-38.267 H107.321 Q107.321 -38.267 107.321 -38.267 Q107.321 -38.267 107.321 -38.267 V-82.551 Q107.321 -82.551 107.321 -82.551 Q107.321 -82.551 107.321 -82.551 H42.799 Q42.799 -82.551 42.799 -82.551 Q42.799 -82.551 42.799 -82.551 V-64.135 H33.924 V-82.551 Q33.924 -86.274 36.453 -88.85 Q38.981 -91.426 42.799 -91.426 H107.321 Q111.139 -91.426 113.668 -88.85 Q116.196 -86.274 116.196 -82.551 V-38.267 Q116.196 -34.545 113.668 -31.969 Q111.139 -29.392 107.321 -29.392 H73.535 Z"/></g><g id="Regular-M" transform="matrix(1 0 0 1 1394.06 1126)"><path d="M16.25 8.52  10.875 3.27  30 -15.605 Q26.5 -19.605 23.75 -23.855 Q21 -28.105 18.875 -32.73 H26.375 Q28.125 -29.355 30.25 -26.23 Q32.375 -23.105 35 -20.23 Q39 -24.73 42 -29.73 Q45 -34.73 46.875 -40.23 H5 V-47.73 H31.25 V-55.23 H38.75 V-47.73 H66 V-40.23 H54 Q51.875 -33.48 48.438 -27.355 Q45 -21.23 40.125 -15.73 Q41.875 -13.605 44.812 -10.792 Q47.75 -7.98 49.5 -6.23 L46.625 1.395 Q44.5 -0.605 41 -4.042 Q37.5 -7.48 35 -10.23 L16.25 8.52 Z M45.625 19.77  62.5 -25.23 H70.625 L87.5 19.77 H79.75 L75.625 8.27 H57.5 L53.5 19.77 H45.625 Z M59.875 1.77 H73.25 L66.5 -17.23 L59.875 1.77 Z M75 -47.73 H82.5 V-55.23 H75 V-47.73 Z M90 -47.73 H97.5 V-55.23 H90 V-47.73 Z M52.5 -62.73 H60 V-70.23 H52.5 V-62.73 Z M67.5 -62.73 H97.5 V-70.23 H67.5 V-62.73 Z M75 -30.23 V-37.73 H107.5 Q107.5 -37.73 107.5 -37.73 Q107.5 -37.73 107.5 -37.73 V-82.73 Q107.5 -82.73 107.5 -82.73 Q107.5 -82.73 107.5 -82.73 H42.5 Q42.5 -82.73 42.5 -82.73 Q42.5 -82.73 42.5 -82.73 V-62.73 H35 V-82.73 Q35 -85.855 37.125 -88.042 Q39.25 -90.23 42.5 -90.23 H107.5 Q110.75 -90.23 112.875 -88.042 Q115 -85.855 115 -82.73 V-37.73 Q115 -34.605 112.875 -32.417 Q110.75 -30.23 107.5 -30.23 H75 Z"/></g><g id="Light-M" transform="matrix(1 0 0 1 1098.18 1126)"><path d="M17.453 2.414  13.231 -1.826  30.144 -18.394 Q27.029 -22.057 24.471 -25.922 Q21.914 -29.787 19.836 -33.98 H26.039 Q27.74 -30.845 29.721 -27.936 Q31.701 -25.029 34.135 -22.297 Q37.99 -26.654 40.99 -31.461 Q43.99 -36.269 45.818 -41.672 H7.5 V-47.634 H31.203 V-54.652 H37.164 V-47.634 H62.346 V-41.672 H51.644 Q49.568 -35.211 46.154 -29.446 Q42.74 -23.682 38.154 -18.47 Q39.951 -16.345 42.529 -13.845 Q45.105 -11.346 47 -9.547 L44.701 -3.509 Q42.48 -5.557 39.461 -8.514 Q36.443 -11.471 34.086 -14.076 L17.453 2.414 Z M42.885 18.616  59.904 -25.807 H66.297 L83.365 18.616 H77.105 L72.74 6.828 H53.509 L49.172 18.616 H42.885 Z M55.451 1.626 H70.797 L63.086 -19.154 L55.451 1.626 Z M69.951 -47.634 H81.971 V-53.595 H69.951 V-47.634 Z M89.76 -47.634 H95.721 V-53.595 H89.76 V-47.634 Z M52.115 -62.009 H58.076 V-67.97 H52.115 V-62.009 Z M65.385 -62.009 H95.721 V-67.97 H65.385 V-62.009 Z M69.951 -30.807 V-36.769 H105.433 Q105.865 -36.769 106.201 -37.056 Q106.539 -37.345 106.539 -37.73 V-80.806 Q106.539 -81.191 106.201 -81.48 Q105.865 -81.769 105.433 -81.769 H42.404 Q41.971 -81.769 41.635 -81.48 Q41.297 -81.191 41.297 -80.806 V-61.527 H35.336 V-80.806 Q35.336 -83.691 37.341 -85.71 Q39.346 -87.73 42.404 -87.73 H105.433 Q108.49 -87.73 110.495 -85.71 Q112.5 -83.691 112.5 -80.806 V-37.73 Q112.5 -34.845 110.495 -32.826 Q108.49 -30.807 105.433 -30.807 H69.951 Z"/></g><g id="Thin-M" transform="matrix(1 0 0 1 802.565 1126)"><path d="M18.654 -3.691  15.586 -6.922  30.289 -21.182 Q27.558 -24.509 25.192 -27.99 Q22.828 -31.47 20.797 -35.23 H25.703 Q27.356 -32.336 29.192 -29.644 Q31.029 -26.951 33.269 -24.365 Q36.981 -28.576 39.981 -33.191 Q42.981 -37.807 44.76 -43.115 H10 V-47.537 H31.154 V-54.076 H35.578 V-47.537 H58.693 V-43.115 H49.289 Q47.26 -36.941 43.87 -31.537 Q40.481 -26.134 36.182 -21.211 Q38.029 -19.086 40.245 -16.899 Q42.461 -14.711 44.5 -12.865 L42.779 -8.412 Q40.461 -10.509 37.922 -12.985 Q35.385 -15.461 33.172 -17.922 L18.654 -3.691 Z M40.144 17.463  57.307 -26.384 H61.971 L79.231 17.463 H74.461 L69.856 5.385 H49.519 L44.846 17.463 H40.144 Z M51.029 1.481 H68.346 L59.672 -21.076 L51.029 1.481 Z M64.904 -47.537 H81.442 V-51.961 H64.904 V-47.537 Z M89.519 -47.537 H93.942 V-51.961 H89.519 V-47.537 Z M51.731 -61.287 H56.154 V-65.711 H51.731 V-61.287 Z M63.269 -61.287 H93.942 V-65.711 H63.269 V-61.287 Z M64.904 -31.384 V-35.807 H103.365 Q104.231 -35.807 104.904 -36.384 Q105.578 -36.961 105.578 -37.73 V-78.884 Q105.578 -79.652 104.904 -80.23 Q104.231 -80.807 103.365 -80.807 H42.307 Q41.443 -80.807 40.769 -80.23 Q40.096 -79.652 40.096 -78.884 V-60.326 H35.672 V-78.884 Q35.672 -81.527 37.557 -83.379 Q39.443 -85.23 42.307 -85.23 H103.365 Q106.231 -85.23 108.115 -83.379 Q110 -81.527 110 -78.884 V-37.73 Q110 -35.086 108.115 -33.235 Q106.231 -31.384 103.365 -31.384 H64.904 Z"/></g><g id="Ultralight-M" transform="matrix(1 0 0 1 506.415 1126)"><path d="M19.375 -7.355  17 -9.98  30.375 -22.855 Q27.875 -25.98 25.625 -29.23 Q23.375 -32.48 21.375 -35.98 H25.5 Q27.125 -33.23 28.875 -30.667 Q30.625 -28.105 32.75 -25.605 Q36.375 -29.73 39.375 -34.23 Q42.375 -38.73 44.125 -43.98 H11.5 V-47.48 H31.125 V-53.73 H34.625 V-47.48 H56.5 V-43.98 H47.875 Q45.875 -37.98 42.5 -32.792 Q39.125 -27.605 35 -22.855 Q36.875 -20.73 38.875 -18.73 Q40.875 -16.73 43 -14.855 L41.625 -11.355 Q39.25 -13.48 37 -15.667 Q34.75 -17.855 32.625 -20.23 L19.375 -7.355 Z M38.5 16.77  55.75 -26.73 H59.375 L76.75 16.77 H72.875 L68.125 4.52 H47.125 L42.25 16.77 H38.5 Z M48.375 1.395 H66.875 L57.625 -22.23 L48.375 1.395 Z M61.875 -47.48 H81.125 V-50.98 H61.875 V-47.48 Z M89.375 -47.48 H92.875 V-50.98 H89.375 V-47.48 Z M51.5 -60.855 H55 V-64.355 H51.5 V-60.855 Z M62 -60.855 H92.875 V-64.355 H62 V-60.855 Z M61.875 -31.73 V-35.23 H102.125 Q103.25 -35.23 104.125 -35.98 Q105 -36.73 105 -37.73 V-77.73 Q105 -78.73 104.125 -79.48 Q103.25 -80.23 102.125 -80.23 H42.25 Q41.125 -80.23 40.25 -79.48 Q39.375 -78.73 39.375 -77.73 V-59.605 H35.875 V-77.73 Q35.875 -80.23 37.688 -81.98 Q39.5 -83.73 42.25 -83.73 H102.125 Q104.875 -83.73 106.688 -81.98 Q108.5 -80.23 108.5 -77.73 V-37.73 Q108.5 -35.23 106.688 -33.48 Q104.875 -31.73 102.125 -31.73 H61.875 Z"/></g><g id="Bold-S" transform="matrix(1 0 0 1 2294.23 696)"><path d="M12.427 -2.782  5.622 -10.278  15.78 -18.957 Q13.216 -21.916 10.849 -25.269 Q8.482 -28.622 6.608 -32.074 H18.678 Q19.528 -30.595 20.465 -29.115 Q21.402 -27.636 22.507 -26.255 Q24.36 -28.523 25.84 -31.137 Q27.319 -33.751 28.503 -36.413 H0.789 V-46.473 H15.309 V-52.489 H25.544 V-46.424 H46.65 V-36.315 H39.549 Q37.576 -31.778 34.913 -27.537 Q32.25 -23.296 29.193 -19.45 Q30.87 -18.069 32.645 -16.738 Q34.42 -15.406 36.393 -14.223 L31.025 -4.755 Q28.996 -6.333 26.727 -8.059 Q24.459 -9.785 22.388 -11.757 L12.427 -2.782 Z M31.56 11.222  45.624 -23.888 H58.189 L72.194 11.222 H61.18 L59.427 6.587 H44.085 L42.345 11.222 H31.56 Z M47.044 -1.796 H56.512 L51.778 -14.815 L47.044 -1.796 Z M51.975 -46.375 H64.205 V-51.109 H51.975 V-46.375 Z M68.939 -46.375 H73.18 V-51.109 H68.939 V-46.375 Z M43.198 -55.843 H48.425 V-60.577 H43.198 V-55.843 Z M53.159 -55.843 H73.18 V-60.577 H53.159 V-55.843 Z M51.975 -27.734 V-37.005 H79.886 Q79.886 -37.005 79.886 -37.005 Q79.886 -37.005 79.886 -37.005 V-67.776 Q79.886 -67.776 79.886 -67.776 Q79.886 -67.776 79.886 -67.776 H34.124 Q34.124 -67.776 34.124 -67.776 Q34.124 -67.776 34.124 -67.776 V-58.801 H24.854 V-67.776 Q24.854 -71.721 27.566 -74.384 Q30.278 -77.047 34.124 -77.047 H79.886 Q83.733 -77.047 86.445 -74.384 Q89.157 -71.721 89.157 -67.776 V-37.005 Q89.157 -33.06 86.445 -30.397 Q83.733 -27.734 79.886 -27.734 H51.975 Z"/></g><g id="Semibold-S" transform="matrix(1 0 0 1 1998.1 696)"><path d="M12.77 -2.096  7.209 -8.091  19.21 -19.171 Q16.604 -22.13 14.343 -25.462 Q12.084 -28.794 10.338 -32.246 H19.664 Q20.728 -30.295 21.944 -28.429 Q23.159 -26.564 24.651 -24.797 Q27.018 -27.581 28.863 -30.73 Q30.707 -33.879 31.976 -37.186 H2.504 V-45.315 H19.382 V-51.16 H27.645 V-45.266 H48.193 V-37.087 H40.577 Q38.776 -32.335 36.135 -27.902 Q33.494 -23.468 30.136 -19.492 Q31.684 -17.983 33.567 -16.33 Q35.449 -14.678 37.293 -13.408 L33.298 -5.527 Q31.44 -7.105 29.064 -9.173 Q26.689 -11.242 24.574 -13.344 L12.77 -2.096 Z M33.275 9.55  46.782 -25.132 H56.559 L70.049 9.55 H61.265 L58.914 3.157 H44.257 L41.958 9.55 H33.275 Z M46.701 -3.769 H56.512 L51.607 -17.473 L46.701 -3.769 Z M54.076 -45.646 H64.077 V-50.38 H54.076 V-45.646 Z M68.811 -45.646 H73.266 V-50.38 H68.811 V-45.646 Z M42.94 -55.114 H47.953 V-59.848 H42.94 V-55.114 Z M52.687 -55.114 H73.266 V-59.848 H52.687 V-55.114 Z M54.076 -28.935 V-36.233 H80.144 Q80.144 -36.233 80.144 -36.233 Q80.144 -36.233 80.144 -36.233 V-68.034 Q80.144 -68.034 80.144 -68.034 Q80.144 -68.034 80.144 -68.034 H33.695 Q33.695 -68.034 33.695 -68.034 Q33.695 -68.034 33.695 -68.034 V-56.786 H26.397 V-68.034 Q26.397 -71.121 28.53 -73.226 Q30.663 -75.332 33.695 -75.332 H80.144 Q83.175 -75.332 85.309 -73.226 Q87.442 -71.121 87.442 -68.034 V-36.233 Q87.442 -33.146 85.309 -31.04 Q83.175 -28.935 80.144 -28.935 H54.076 Z"/></g><g id="Medium-S" transform="matrix(1 0 0 1 1701.85 696)"><path d="M13.027 -1.582  8.398 -6.451  21.783 -19.332 Q19.144 -22.29 16.964 -25.606 Q14.785 -28.922 13.137 -32.374 H20.404 Q21.628 -30.069 23.054 -27.915 Q24.479 -25.76 26.259 -23.704 Q29.013 -26.873 31.13 -30.424 Q33.247 -33.975 34.581 -37.765 H3.79 V-44.447 H22.437 V-50.163 H29.221 V-44.398 H49.351 V-37.666 H41.35 Q39.677 -32.754 37.051 -28.175 Q34.427 -23.596 30.844 -19.525 Q32.296 -17.919 34.258 -16.025 Q36.221 -14.131 37.969 -12.797 L35.002 -6.106 Q33.273 -7.684 30.817 -10.01 Q28.361 -12.336 26.215 -14.534 L13.027 -1.582 Z M34.561 8.296  47.65 -26.065 H55.338 L68.442 8.296 H61.33 L58.527 0.584 H44.385 L41.669 8.296 H34.561 Z M46.443 -5.248 H56.512 L51.478 -19.467 L46.443 -5.248 Z M55.652 -45.099 H63.98 V-49.833 H55.652 V-45.099 Z M68.714 -45.099 H73.33 V-49.833 H68.714 V-45.099 Z M42.747 -54.567 H47.599 V-59.301 H42.747 V-54.567 Z M52.333 -54.567 H73.33 V-59.301 H52.333 V-54.567 Z M55.652 -29.835 V-35.654 H80.337 Q80.337 -35.654 80.337 -35.654 Q80.337 -35.654 80.337 -35.654 V-68.227 Q80.337 -68.227 80.337 -68.227 Q80.337 -68.227 80.337 -68.227 H33.374 Q33.374 -68.227 33.374 -68.227 Q33.374 -68.227 33.374 -68.227 V-55.275 H27.555 V-68.227 Q27.555 -70.671 29.254 -72.358 Q30.953 -74.046 33.374 -74.046 H80.337 Q82.757 -74.046 84.457 -72.358 Q86.156 -70.671 86.156 -68.227 V-35.654 Q86.156 -33.21 84.457 -31.523 Q82.757 -29.835 80.337 -29.835 H55.652 Z"/></g><g id="Regular-S" transform="matrix(1 0 0 1 1405.73 696)"><path d="M13.216 -1.204  9.271 -5.248  23.67 -19.45 Q21.007 -22.409 18.887 -25.713 Q16.766 -29.017 15.188 -32.468 H20.946 Q22.289 -29.904 23.867 -27.537 Q25.445 -25.17 27.438 -22.902 Q30.475 -26.354 32.793 -30.2 Q35.111 -34.046 36.491 -38.189 H4.734 V-43.81 H24.678 V-49.432 H30.377 V-43.761 H50.2 V-38.09 H41.916 Q40.338 -33.06 37.724 -28.376 Q35.111 -23.691 31.363 -19.549 Q32.744 -17.872 34.765 -15.801 Q36.787 -13.73 38.464 -12.349 L36.253 -6.53 Q34.617 -8.108 32.102 -10.623 Q29.588 -13.138 27.418 -15.406 L13.216 -1.204 Z M35.505 7.376  48.287 -26.748 H54.441 L67.262 7.376 H61.377 L58.244 -1.303 H44.48 L41.457 7.376 H35.505 Z M46.255 -6.333 H56.512 L51.384 -20.929 L46.255 -6.333 Z M56.808 -44.698 H63.909 V-49.432 H56.808 V-44.698 Z M68.643 -44.698 H73.377 V-49.432 H68.643 V-44.698 Z M42.606 -54.166 H47.34 V-58.9 H42.606 V-54.166 Z M52.074 -54.166 H73.377 V-58.9 H52.074 V-54.166 Z M56.808 -30.496 V-35.23 H80.478 Q80.478 -35.23 80.478 -35.23 Q80.478 -35.23 80.478 -35.23 V-68.368 Q80.478 -68.368 80.478 -68.368 Q80.478 -68.368 80.478 -68.368 H33.138 Q33.138 -68.368 33.138 -68.368 Q33.138 -68.368 33.138 -68.368 V-54.166 H28.404 V-68.368 Q28.404 -70.34 29.785 -71.721 Q31.166 -73.102 33.138 -73.102 H80.478 Q82.451 -73.102 83.831 -71.721 Q85.212 -70.34 85.212 -68.368 V-35.23 Q85.212 -33.257 83.831 -31.877 Q82.451 -30.496 80.478 -30.496 H56.808 Z"/></g><g id="Light-S" transform="matrix(1 0 0 1 1109.75 696)"><path d="M14.165 -6.022  11.13 -9.269  23.783 -21.65 Q21.424 -24.344 19.456 -27.344 Q17.487 -30.344 15.947 -33.455 H20.681 Q21.985 -31.08 23.45 -28.883 Q24.914 -26.688 26.755 -24.533 Q29.678 -27.872 31.996 -31.566 Q34.314 -35.261 35.657 -39.327 H6.707 V-43.734 H24.64 V-48.976 H29.125 V-43.685 H47.317 V-39.228 H40.057 Q38.517 -34.426 35.922 -30.026 Q33.327 -25.626 29.807 -21.71 Q31.226 -20.034 32.963 -18.209 Q34.7 -16.386 36.491 -14.967 L34.735 -10.399 Q33.024 -12.016 30.888 -14.151 Q28.753 -16.287 26.697 -18.441 L14.165 -6.022 Z M33.343 6.466  46.238 -27.204 H51.027 L64 6.466 H59.29 L55.968 -2.441 H41.331 L38.043 6.466 H33.343 Z M42.765 -6.446 H54.577 L48.69 -22.447 L42.765 -6.446 Z M52.825 -44.622 H63.492 V-48.142 H52.825 V-44.622 Z M68.454 -44.622 H71.974 V-48.142 H68.454 V-44.622 Z M42.302 -53.597 H45.822 V-57.117 H42.302 V-53.597 Z M50.405 -53.597 H71.974 V-57.117 H50.405 V-53.597 Z M52.825 -30.952 V-34.472 H78.847 Q79.188 -34.472 79.453 -34.698 Q79.72 -34.926 79.72 -35.23 V-66.85 Q79.72 -67.154 79.453 -67.382 Q79.188 -67.61 78.847 -67.61 H33.062 Q32.721 -67.61 32.456 -67.382 Q32.189 -67.154 32.189 -66.85 V-53.217 H28.669 V-66.85 Q28.669 -68.633 29.955 -69.881 Q31.241 -71.129 33.062 -71.129 H78.847 Q80.667 -71.129 81.953 -69.881 Q83.24 -68.633 83.24 -66.85 V-35.23 Q83.24 -33.447 81.953 -32.199 Q80.667 -30.952 78.847 -30.952 H52.825 Z"/></g><g id="Thin-S" transform="matrix(1 0 0 1 814.015 696)"><path d="M15.112 -10.839  12.988 -13.29  23.898 -23.851 Q21.841 -26.278 20.025 -28.975 Q18.208 -31.672 16.705 -34.441 H20.414 Q21.683 -32.256 23.033 -30.231 Q24.383 -28.205 26.073 -26.164 Q28.882 -29.388 31.2 -32.931 Q33.518 -36.475 34.823 -40.465 H8.679 V-43.658 H24.602 V-48.522 H27.873 V-43.609 H44.435 V-40.366 H38.198 Q36.696 -35.791 34.12 -31.676 Q31.545 -27.56 28.252 -23.873 Q29.709 -22.197 31.162 -20.619 Q32.614 -19.041 34.519 -17.584 L33.218 -14.268 Q31.431 -15.922 29.674 -17.679 Q27.919 -19.435 25.976 -21.476 L15.112 -10.839 Z M31.18 5.555  44.19 -27.659 H47.613 L60.738 5.555 H57.204 L53.692 -3.579 H38.183 L34.629 5.555 H31.18 Z M39.275 -6.561 H52.643 L45.997 -23.964 L39.275 -6.561 Z M48.842 -44.546 H63.075 V-46.853 H48.842 V-44.546 Z M68.263 -44.546 H70.57 V-46.853 H68.263 V-44.546 Z M41.999 -53.028 H44.305 V-55.335 H41.999 V-53.028 Z M48.736 -53.028 H70.57 V-55.335 H48.736 V-53.028 Z M48.842 -31.406 V-33.713 H77.215 Q77.899 -33.713 78.43 -34.168 Q78.961 -34.623 78.961 -35.23 V-65.333 Q78.961 -65.94 78.43 -66.395 Q77.899 -66.851 77.215 -66.851 H32.986 Q32.304 -66.851 31.772 -66.395 Q31.241 -65.94 31.241 -65.333 V-52.269 H28.935 V-65.333 Q28.935 -66.926 30.126 -68.042 Q31.317 -69.157 32.986 -69.157 H77.215 Q78.885 -69.157 80.076 -68.042 Q81.267 -66.926 81.267 -65.333 V-35.23 Q81.267 -33.637 80.076 -32.522 Q78.885 -31.406 77.215 -31.406 H48.842 Z"/></g><g id="Ultralight-S" transform="matrix(1 0 0 1 517.792 696)"><path d="M15.681 -13.73  14.103 -15.702  23.966 -25.17 Q22.092 -27.439 20.366 -29.954 Q18.64 -32.468 17.161 -35.033 H20.256 Q21.5 -32.962 22.782 -31.038 Q24.065 -29.115 25.663 -27.143 Q28.404 -30.299 30.722 -33.751 Q33.039 -37.202 34.322 -41.147 H9.863 V-43.613 H24.579 V-48.248 H27.122 V-43.564 H42.705 V-41.049 H37.083 Q35.604 -36.611 33.039 -32.666 Q30.475 -28.721 27.319 -25.17 Q28.799 -23.494 30.081 -22.064 Q31.363 -20.633 33.335 -19.154 L32.308 -16.59 Q30.475 -18.266 28.946 -19.795 Q27.418 -21.324 25.544 -23.296 L15.681 -13.73 Z M29.883 5.009  42.961 -27.932 H45.565 L58.781 5.009 H55.953 L52.326 -4.262 H36.294 L32.581 5.009 H29.883 Z M37.182 -6.629 H51.482 L44.381 -24.874 L37.182 -6.629 Z M46.452 -44.501 H62.824 V-46.079 H46.452 V-44.501 Z M68.15 -44.501 H69.728 V-46.079 H68.15 V-44.501 Z M41.817 -52.687 H43.395 V-54.265 H41.817 V-52.687 Z M47.735 -52.687 H69.728 V-54.265 H47.735 V-52.687 Z M46.452 -31.679 V-33.257 H76.237 Q77.125 -33.257 77.815 -33.849 Q78.505 -34.441 78.505 -35.23 V-64.423 Q78.505 -65.212 77.815 -65.804 Q77.125 -66.395 76.237 -66.395 H32.941 Q32.053 -66.395 31.363 -65.804 Q30.672 -65.212 30.672 -64.423 V-51.7 H29.094 V-64.423 Q29.094 -65.902 30.229 -66.938 Q31.363 -67.973 32.941 -67.973 H76.237 Q77.815 -67.973 78.949 -66.938 Q80.084 -65.902 80.084 -64.423 V-35.23 Q80.084 -33.751 78.949 -32.715 Q77.815 -31.679 76.237 -31.679 H46.452 Z"/></g></g></svg>