<svg xmlns="http://www.w3.org/2000/svg" version="1.1" width="3300" height="2000"><g id="Notes"><style>
    text {
      font-family: monospace;
      text-anchor: middle;
    }
    text.emphasis {
      font-weight:bold;
    }
    text.lanchor {
      text-anchor: start;
    }
  </style><rect height="2200" id="artboard" fill="white" width="3300" x="0" y="0"/><line id="" style="fill:none;stroke:black;stroke-width:0.5;" x1="263" x2="3036" y1="292" y2="292"/><text class="lanchor emphasis" transform="matrix(1 0 0 1 263 322)">Weight/Scale Variations</text><text transform="matrix(1 0 0 1 559.711 322)">Ultralight</text><text transform="matrix(1 0 0 1 856.422 322)">Thin</text><text transform="matrix(1 0 0 1 1153.13 322)">Light</text><text transform="matrix(1 0 0 1 1449.84 322)">Regular</text><text transform="matrix(1 0 0 1 1746.56 322)">Medium</text><text transform="matrix(1 0 0 1 2043.27 322)">Semibold</text><text transform="matrix(1 0 0 1 2339.98 322)">Bold</text><text transform="matrix(1 0 0 1 2636.69 322)">Heavy</text><text transform="matrix(1 0 0 1 2933.4 322)">Black</text><text id="template-version" style="text-anchor: end;" transform="matrix(1 0 0 1 3036 1933)">Template v.1.0</text><text class="lanchor" transform="matrix(1 0 0 1 263 726)">Small</text><text class="lanchor" transform="matrix(1 0 0 1 263 1156)">Medium</text><text class="lanchor" transform="matrix(1 0 0 1 263 1586)">Large</text></g><g id="Guides"><g id="H-reference" style="fill:#27AAE1;stroke:none;" transform="matrix(1 0 0 1 339 696)"><path d="M 54.9316 0 L 57.666 0 L 30.5664 -70.459 L 28.0762 -70.459 L 0.976562 0 L 3.66211 0 L 12.9395 -24.4629 L 45.7031 -24.4629 Z M 29.1992 -67.0898 L 29.4434 -67.0898 L 44.8242 -26.709 L 13.8184 -26.709 Z"/></g><line id="Baseline-S" style="fill:none;stroke:#27AAE1;opacity:1;stroke-width:0.577;" x1="263" x2="3036" y1="696" y2="696"/><line id="Capline-S" style="fill:none;stroke:#27AAE1;opacity:1;stroke-width:0.577;" x1="263" x2="3036" y1="625.541" y2="625.541"/><g id="H-reference" style="fill:#27AAE1;stroke:none;" transform="matrix(1 0 0 1 339 1126)"><path d="M 54.9316 0 L 57.666 0 L 30.5664 -70.459 L 28.0762 -70.459 L 0.976562 0 L 3.66211 0 L 12.9395 -24.4629 L 45.7031 -24.4629 Z M 29.1992 -67.0898 L 29.4434 -67.0898 L 44.8242 -26.709 L 13.8184 -26.709 Z"/></g><line id="Baseline-M" style="fill:none;stroke:#27AAE1;opacity:1;stroke-width:0.577;" x1="263" x2="3036" y1="1126" y2="1126"/><line id="Capline-M" style="fill:none;stroke:#27AAE1;opacity:1;stroke-width:0.577;" x1="263" x2="3036" y1="1055.54" y2="1055.54"/><g id="H-reference" style="fill:#27AAE1;stroke:none;" transform="matrix(1 0 0 1 339 1556)"><path d="M 54.9316 0 L 57.666 0 L 30.5664 -70.459 L 28.0762 -70.459 L 0.976562 0 L 3.66211 0 L 12.9395 -24.4629 L 45.7031 -24.4629 Z M 29.1992 -67.0898 L 29.4434 -67.0898 L 44.8242 -26.709 L 13.8184 -26.709 Z"/></g><line id="Baseline-L" style="fill:none;stroke:#27AAE1;opacity:1;stroke-width:0.577;" x1="263" x2="3036" y1="1556" y2="1556"/><line id="Capline-L" style="fill:none;stroke:#27AAE1;opacity:1;stroke-width:0.577;" x1="263" x2="3036" y1="1485.54" y2="1485.54"/><rect height="119.336" id="left-margin" style="fill:darkred;stroke:none;opacity:0.4;" width="12.4512" x="1394.06" y="1030.79"/><rect height="119.336" id="right-margin" style="fill:darkgreen;stroke:none;opacity:0.4;" width="12.4512" x="1502.5112" y="1030.79"/><rect x="1406.5112" y="1045" width="96" height="96" fill="none" stroke="blue" stroke-dasharray="5"/><rect x="1394.06" y="1030.79" width="120.9024" height="119.336" fill="none" stroke="blue"/></g><g id="Symbols"><g id="Bold-L" transform="matrix(1 0 0 1 2266 1556)"><path d="M37.41 26.045 Q31.279 26.045 26.967 21.733 Q22.656 17.421 22.656 11.291 V-81.751 Q22.656 -87.947 26.967 -92.308 Q31.279 -96.666 37.41 -96.666 H117.471 Q123.667 -96.666 128.028 -92.308 Q132.386 -87.947 132.386 -81.751 V11.291 Q132.386 17.421 128.028 21.733 Q123.667 26.045 117.471 26.045 H37.41 Z M71.192 -27.329  62.888 -35.956  54.099 -27.167  77.4 -3.867  100.701 -27.167  91.913 -35.794  83.689 -27.329 V-58.531 H71.192 V-27.329 Z"/></g><g id="Semibold-L" transform="matrix(1 0 0 1 1970.27 1556)"><path d="M36.78 24.292 Q31.703 24.292 28.056 20.645 Q24.408 16.997 24.408 11.921 V-82.381 Q24.408 -87.494 28.056 -91.169 Q31.703 -94.844 36.78 -94.844 H118.101 Q123.214 -94.844 126.889 -91.169 Q130.564 -87.494 130.564 -82.381 V11.921 Q130.564 16.997 126.889 20.645 Q123.214 24.292 118.101 24.292 H36.78 Z M71.893 -25.716  61.976 -35.815  54.169 -28.009  77.4 -4.778  100.631 -28.009  92.824 -35.725  82.987 -25.716 V-59.092 H71.893 V-25.716 Z"/></g><g id="Medium-L" transform="matrix(1 0 0 1 1674.31 1556)"><path d="M36.305 22.978 Q32.021 22.978 28.872 19.829 Q25.723 16.68 25.723 12.395 V-82.855 Q25.723 -87.154 28.872 -90.316 Q32.021 -93.477 36.305 -93.477 H118.575 Q122.874 -93.477 126.036 -90.316 Q129.197 -87.154 129.197 -82.855 V12.395 Q129.197 16.68 126.036 19.829 Q122.874 22.978 118.575 22.978 H36.305 Z M72.419 -24.507  61.293 -35.711  54.222 -28.64  77.4 -5.462  100.578 -28.64  93.507 -35.672  82.462 -24.507 V-59.513 H72.419 V-24.507 Z"/></g><g id="Regular-L" transform="matrix(1 0 0 1 1378.56 1556)"><path d="M35.959 22.014 Q32.255 22.014 29.472 19.229 Q26.687 16.446 26.687 12.742 V-83.202 Q26.687 -86.906 29.472 -89.689 Q32.255 -92.474 35.959 -92.474 H118.922 Q122.626 -92.474 125.409 -89.689 Q128.194 -86.906 128.194 -83.202 V12.742 Q128.194 16.446 125.409 19.229 Q122.626 22.014 118.922 22.014 H35.959 Z M72.804 -23.62  60.791 -35.633  54.261 -29.102  77.4 -5.963  100.539 -29.102  94.009 -35.633  82.076 -23.62 V-59.821 H72.804 V-23.62 Z"/></g><g id="Light-L" transform="matrix(1 0 0 1 1082.77 1556)"><path d="M38.656 19.098 Q34.951 19.098 32.276 16.407 Q29.602 13.716 29.602 10.055 V-80.515 Q29.602 -84.176 32.276 -86.867 Q34.951 -89.558 38.656 -89.558 H116.295 Q119.959 -89.558 122.65 -86.867 Q125.341 -84.176 125.341 -80.515 V10.055 Q125.341 13.716 122.65 16.407 Q119.959 19.098 116.295 19.098 H38.656 Z M73.983 -22.38  60.73 -35.602  55.718 -30.654  77.461 -8.909  99.082 -30.53  94.07 -35.509  81.052 -22.38 V-57.805 H73.983 V-22.38 Z"/></g><g id="Thin-L" transform="matrix(1 0 0 1 787.282 1556)"><path d="M41.354 16.185 Q37.647 16.185 35.082 13.585 Q32.516 10.987 32.516 7.369 V-77.829 Q32.516 -81.447 35.082 -84.045 Q37.647 -86.645 41.354 -86.645 H113.668 Q117.292 -86.645 119.889 -84.045 Q122.489 -81.447 122.489 -77.829 V7.369 Q122.489 10.987 119.889 13.585 Q117.292 16.185 113.668 16.185 H41.354 Z M75.162 -21.14  60.667 -35.572  57.176 -32.203  77.524 -11.855  97.624 -31.955  94.133 -35.385  80.03 -21.14 V-55.789 H75.162 V-21.14 Z"/></g><g id="Ultralight-L" transform="matrix(1 0 0 1 491.205 1556)"><path d="M42.973 14.435 Q39.264 14.435 36.765 11.892 Q34.266 9.351 34.266 5.757 V-76.217 Q34.266 -79.811 36.765 -82.352 Q39.264 -84.895 42.973 -84.895 H112.093 Q115.692 -84.895 118.233 -82.352 Q120.776 -79.811 120.776 -76.217 V5.757 Q120.776 9.351 118.233 11.892 Q115.692 14.435 112.093 14.435 H42.973 Z M75.868 -20.395  60.63 -35.552  58.05 -33.134  77.561 -13.622  96.75 -32.811  94.17 -35.311  79.416 -20.395 V-54.58 H75.868 V-20.395 Z"/></g><g id="Bold-M" transform="matrix(1 0 0 1 2281.8 1126)"><path d="M32.188 12.77 Q25.82 12.77 21.441 8.391 Q17.062 4.013 17.062 -2.355 V-68.105 Q17.062 -74.472 21.441 -78.851 Q25.82 -83.23 32.188 -83.23 H87.875 Q94.243 -83.23 98.621 -78.851 Q103 -74.472 103 -68.105 V-2.355 Q103 4.013 98.621 8.391 Q94.243 12.77 87.875 12.77 H32.188 Z M53.688 -36.98  49.375 -41.355  40.5 -32.48  60 -12.98  79.5 -32.48  70.625 -41.292  66.312 -36.98 V-51.98 H53.688 V-36.98 Z"/></g><g id="Semibold-M" transform="matrix(1 0 0 1 1985.97 1126)"><path d="M31.535 10.923 Q26.255 10.923 22.582 7.25 Q18.91 3.578 18.91 -1.702 V-68.757 Q18.91 -74.037 22.582 -77.71 Q26.255 -81.382 31.535 -81.382 H88.528 Q93.808 -81.382 97.48 -77.71 Q101.153 -74.037 101.153 -68.757 V-1.702 Q101.153 3.578 97.48 7.25 Q93.808 10.923 88.528 10.923 H31.535 Z M54.394 -35.295  48.451 -41.246  40.554 -33.35  60 -13.904  79.446 -33.35  71.549 -41.239  65.606 -35.295 V-52.577 H54.394 V-35.295 Z"/></g><g id="Medium-M" transform="matrix(1 0 0 1 1689.91 1126)"><path d="M31.046 9.536 Q26.581 9.536 23.439 6.394 Q20.296 3.251 20.296 -1.214 V-69.246 Q20.296 -73.711 23.439 -76.854 Q26.581 -79.996 31.046 -79.996 H89.016 Q93.481 -79.996 96.624 -76.854 Q99.766 -73.711 99.766 -69.246 V-1.214 Q99.766 3.251 96.624 6.394 Q93.481 9.536 89.016 9.536 H31.046 Z M54.924 -34.031  47.759 -41.165  40.595 -34.001  60 -14.596  79.405 -34.001  72.241 -41.197  65.076 -34.031 V-53.026 H54.924 V-34.031 Z"/></g><g id="Regular-M" transform="matrix(1 0 0 1 1394.06 1126)"><path d="M30.688 8.52 Q26.82 8.52 24.066 5.766 Q21.312 3.013 21.312 -0.855 V-69.605 Q21.312 -73.472 24.066 -76.226 Q26.82 -78.98 30.688 -78.98 H89.375 Q93.243 -78.98 95.996 -76.226 Q98.75 -73.472 98.75 -69.605 V-0.855 Q98.75 3.013 95.996 5.766 Q93.243 8.52 89.375 8.52 H30.688 Z M55.312 -33.105  47.25 -41.105  40.625 -34.48  60 -15.105  79.375 -34.48  72.75 -41.167  64.688 -33.105 V-53.355 H55.312 V-33.105 Z"/></g><g id="Light-M" transform="matrix(1 0 0 1 1098.18 1126)"><path d="M32.106 6.26 Q28.526 6.26 26.049 3.771 Q23.573 1.281 23.573 -2.265 V-68.195 Q23.573 -71.741 26.049 -74.231 Q28.526 -76.72 32.106 -76.72 H88.011 Q91.559 -76.72 94.049 -74.231 Q96.539 -71.741 96.539 -68.195 V-2.265 Q96.539 1.281 94.049 3.771 Q91.559 6.26 88.011 6.26 H32.106 Z M56.562 -30.124  47.203 -39.446  42.236 -34.48  60.047 -16.667  77.764 -34.384  72.797 -39.389  63.557 -30.124 V-51.792 H56.562 V-30.124 Z"/></g><g id="Thin-M" transform="matrix(1 0 0 1 802.565 1126)"><path d="M33.524 4.001 Q30.231 4.001 28.031 1.776 Q25.831 -0.449 25.831 -3.674 V-66.786 Q25.831 -70.011 28.031 -72.236 Q30.231 -74.461 33.524 -74.461 H86.649 Q89.876 -74.461 92.103 -72.236 Q94.328 -70.011 94.328 -66.786 V-3.674 Q94.328 -0.449 92.103 1.776 Q89.876 4.001 86.649 4.001 H33.524 Z M57.812 -27.144  47.154 -37.787  43.846 -34.48  60.096 -18.23  76.154 -34.287  72.846 -37.61  62.428 -27.144 V-50.23 H57.812 V-27.144 Z"/></g><g id="Ultralight-M" transform="matrix(1 0 0 1 506.415 1126)"><path d="M34.375 2.645 Q31.254 2.645 29.221 0.579 Q27.188 -1.487 27.188 -4.52 V-65.94 Q27.188 -68.972 29.221 -71.039 Q31.254 -73.105 34.375 -73.105 H85.831 Q88.868 -73.105 90.934 -71.039 Q93 -68.972 93 -65.94 V-4.52 Q93 -1.487 90.934 0.579 Q88.868 2.645 85.831 2.645 H34.375 Z M58.562 -25.355  47.125 -36.792  44.812 -34.48  60.125 -19.167  75.188 -34.23  72.875 -36.542  61.75 -25.355 V-49.292 H58.562 V-25.355 Z"/></g><g id="Bold-S" transform="matrix(1 0 0 1 2294.23 696)"><path d="M27.763 0.275 Q22.739 0.275 19.679 -2.785 Q16.618 -5.846 16.618 -10.87 V-59.59 Q16.618 -64.614 19.679 -67.675 Q22.739 -70.735 27.763 -70.735 H66.966 Q71.99 -70.735 75.051 -67.675 Q78.111 -64.614 78.111 -59.59 V-10.87 Q78.111 -5.846 75.051 -2.785 Q71.99 0.275 66.966 0.275 H27.763 Z M42.754 -36.709  40.042 -39.569  33.532 -33.06  47.34 -19.253  61.148 -33.06  54.638 -39.422  51.926 -36.709 V-46.868 H42.754 V-36.709 Z"/></g><g id="Semibold-S" transform="matrix(1 0 0 1 1998.1 696)"><path d="M27.248 -1.183 Q23.082 -1.183 20.579 -3.686 Q18.076 -6.189 18.076 -10.355 V-60.105 Q18.076 -64.271 20.579 -66.774 Q23.082 -69.277 27.248 -69.277 H67.481 Q71.647 -69.277 74.15 -66.774 Q76.653 -64.271 76.653 -60.105 V-10.355 Q76.653 -6.189 74.15 -3.686 Q71.647 -1.183 67.481 -1.183 H27.248 Z M43.311 -35.38  39.313 -39.484  33.575 -33.747  47.34 -19.982  61.105 -33.747  55.367 -39.379  51.369 -35.38 V-47.339 H43.311 V-35.38 Z"/></g><g id="Medium-S" transform="matrix(1 0 0 1 1701.85 696)"><path d="M26.862 -2.276 Q23.34 -2.276 21.255 -4.361 Q19.17 -6.446 19.17 -9.969 V-60.491 Q19.17 -64.014 21.255 -66.099 Q23.34 -68.184 26.862 -68.184 H67.867 Q71.39 -68.184 73.475 -66.099 Q75.56 -64.014 75.56 -60.491 V-9.969 Q75.56 -6.446 73.475 -4.361 Q71.39 -2.276 67.867 -2.276 H26.862 Z M43.729 -34.383  38.767 -39.42  33.607 -34.261  47.34 -20.528  61.073 -34.261  55.913 -39.347  50.951 -34.383 V-47.693 H43.729 V-34.383 Z"/></g><g id="Regular-S" transform="matrix(1 0 0 1 1405.73 696)"><path d="M26.579 -3.078 Q23.528 -3.078 21.75 -4.856 Q19.972 -6.635 19.972 -9.686 V-60.774 Q19.972 -63.825 21.75 -65.604 Q23.528 -67.382 26.579 -67.382 H68.15 Q71.201 -67.382 72.98 -65.604 Q74.758 -63.825 74.758 -60.774 V-9.686 Q74.758 -6.635 72.98 -4.856 Q71.201 -3.078 68.15 -3.078 H26.579 Z M44.036 -33.652  38.365 -39.372  33.631 -34.638  47.34 -20.929  61.049 -34.638  56.315 -39.323  50.644 -33.652 V-47.953 H44.036 V-33.652 Z"/></g><g id="Light-S" transform="matrix(1 0 0 1 1109.75 696)"><path d="M27.699 -4.861 Q24.874 -4.861 23.314 -6.431 Q21.755 -8.001 21.755 -10.799 V-59.661 Q21.755 -62.459 23.314 -64.029 Q24.874 -65.599 27.699 -65.599 H67.074 Q69.873 -65.599 71.443 -64.029 Q73.013 -62.459 73.013 -59.661 V-10.799 Q73.013 -8.001 71.443 -6.431 Q69.873 -4.861 67.074 -4.861 H27.699 Z M45.022 -31.3  38.328 -38.063  34.902 -34.638  47.377 -22.162  59.778 -34.562  56.352 -37.92  49.752 -31.3 V-46.72 H45.022 V-31.3 Z"/></g><g id="Thin-S" transform="matrix(1 0 0 1 814.015 696)"><path d="M28.817 -6.644 Q26.219 -6.644 24.878 -8.005 Q23.537 -9.366 23.537 -11.91 V-58.55 Q23.537 -61.094 24.878 -62.455 Q26.219 -63.816 28.817 -63.816 H65.999 Q68.545 -63.816 69.907 -62.455 Q71.268 -61.094 71.268 -58.55 V-11.91 Q71.268 -9.366 69.907 -8.005 Q68.545 -6.644 65.999 -6.644 H28.817 Z M46.009 -28.949  38.289 -36.755  36.173 -34.638  47.416 -23.395  58.507 -34.486  56.391 -36.516  48.861 -28.949 V-45.487 H46.009 V-28.949 Z"/></g><g id="Ultralight-S" transform="matrix(1 0 0 1 517.792 696)"><path d="M29.489 -7.714 Q27.026 -7.714 25.817 -8.949 Q24.607 -10.185 24.607 -12.578 V-57.882 Q24.607 -60.275 25.817 -61.511 Q27.026 -62.746 29.489 -62.746 H65.354 Q67.749 -62.746 68.985 -61.511 Q70.221 -60.275 70.221 -57.882 V-12.578 Q70.221 -10.185 68.985 -8.949 Q67.749 -7.714 65.354 -7.714 H29.489 Z M46.6 -27.537  38.267 -35.97  36.935 -34.638  47.439 -24.135  57.745 -34.441  56.413 -35.674  48.326 -27.537 V-44.747 H46.6 V-27.537 Z"/></g></g></svg>