<svg xmlns="http://www.w3.org/2000/svg" height="48" viewBox="0 -960 960 960" width="48"><path d="M211.31-648.61V-707h538.38v58.39H211.31Zm80-120.7v-58.38h378.38v58.38H291.31Zm-84.16 241.39 13.62 88.19q13.62 88.19 39.85 248.04l-53.47-336.23Zm244.31 394.61H211.92l-75.46-453h688.08l-9.7 59.39q-4.61 0-34.38-.5-29.77-.5-54.38-.5H207.15l53.47 336.23h180q-.16 15.77 2.8 30.3 2.96 14.54 8.04 28.08Zm242.92 91.15-5.07-47.77q-21.16-4.61-39.43-14.61-18.26-10-31.88-25.54l-42.31 18.31-33.92-52.15 37.69-29.23q-7.15-19.93-7.15-40.16 0-20.23 7.15-41.15l-37.69-29.23 33.92-52.77L618-338.15q13.85-14.93 32-24.43t39.31-14.73l5.07-48.77h58.39l5.69 48.77q20.15 5.23 38.31 14.73 18.15 9.5 33 24.43l41.92-18.31L906-303.69l-38.08 29.23q6.16 20.92 6.16 41.15 0 20.23-6.16 40.16L906-163.92l-34.31 52.15-41.92-18.31q-14.62 15.54-32.89 25.54-18.27 10-38.42 14.61l-5.69 47.77h-58.39Zm98.08-121.69Q821-192.39 821-233.62t-28.54-69.77q-28.54-28.53-69.58-28.53-41.03 0-69.57 28.53-28.54 28.54-28.54 69.77t28.54 69.77q28.54 28.54 69.57 28.54 41.04 0 69.58-28.54Z"/></svg>