<svg xmlns="http://www.w3.org/2000/svg" height="48" viewBox="0 -960 960 960" width="48"><path d="M195-643v-91h571v91H195Zm80-151v-92h411v92H275Zm-60 302 13 84q13 84 38 240l-51-324ZM450-76H189l-85-507h753l-16 92q-4 0-36.5-.5T736-492H215l51 324h173q-4 24 .5 47.5T450-76Zm244 96-5-50q-21-5-37.5-14.5T621-69l-44 21-42-67 39-32q-7-19-7-37t7-39l-39-31 42-68 44 21q14-14 30.5-23t37.5-15l5-50h76l7 50q19 6 36.5 15t31.5 23l43-21 43 68-40 31q6 21 6 39t-6 37l40 32-43 67-43-21q-15 15-32 24.5T777-30l-7 50h-76Zm106.5-135q27.5-28 27.5-69t-27.5-69Q773-281 732-281t-69 28q-28 28-28 69t28 69q28 28 69 28t68.5-28Z"/></svg>