<svg xmlns="http://www.w3.org/2000/svg" height="40" viewBox="0 -960 960 960" width="40"><path d="M219.67-635.67V-677H741v41.33H219.67Zm80-105.33v-41.33H661V-741H299.67Zm-78 210.67 13 83.5q13 83.5 36.66 227.16l-49.66-310.66Zm209.66 352H237l-65.67-393.34h618l-7 42.34q-4 0-30.83-.5t-43.5-.5H221.67l49.66 310.66H433q-2.33 10.34-2.83 20.67-.5 10.33 1.16 20.67ZM693-78.67 689.67-116q-21-3.33-39.34-12.67-18.33-9.33-30.66-26l-34 14-24-35.33L591-198.67q-8-21.33-8-43 0-21.66 8-43.66L561.67-308l24-35.33 34 14Q631-346 649.83-355q18.84-9 39.84-12.33l3.33-38h41.33l3.34 38Q758-364 776.83-355q18.84 9 30.84 25.67l33.33-14L865.67-308l-30 22.67q7.33 22 7.33 43.66 0 21.67-7.33 43l30 22.67L841-140.67l-33.33-14q-13 16.67-31.34 26Q758-119.33 737.67-116l-3.34 37.33H693Zm84.67-98Q804-203 804-241.67q0-38.66-26.33-65Q751.33-333 713-333t-64.67 26.33q-26.33 26.34-26.33 65 0 38.67 26.33 65 26.34 26.34 64.67 26.34t64.67-26.34Z"/></svg>