<svg xmlns="http://www.w3.org/2000/svg" height="48" viewBox="0 -960 960 960" width="48"><path d="M207.43-656.96v-65.63h545.64v65.63H207.43Zm80-128.13v-65.87h385.64v65.87H287.43ZM693.78-47.04l-4.74-47.46q-20.84-5.6-39.83-16.44-18.99-10.84-34.01-25.86l-40.96 19.74-36.15-55.83 37.21-29.22q-6.5-19.77-6.5-40.8 0-21.04 6.5-41.05l-37.21-28.97 36.15-56.83 40.96 19.74q15.78-14.02 34.39-24.86t39.45-16.45l4.63-48.21h62.16l5.74 48.21q20.47 5.77 39.14 16.53 18.66 10.76 34.94 24.78l40.72-19.74 36.39 56.83-37.46 28.97q6 20.26 6 41.05 0 20.78-6 40.8l37.46 29.22-36.39 55.83-40.72-19.74q-15.52 15.02-34.47 25.86-18.96 10.84-39.61 16.44l-5.64 47.46h-62.15Zm101.94-125.21q29.52-29.64 29.52-71.16 0-41.52-29.52-71.05-29.52-29.52-71.05-29.52-41.52 0-71.16 29.52-29.64 29.53-29.64 71.05 0 41.52 29.64 71.16 29.64 29.64 71.16 29.64 41.53 0 71.05-29.64Zm-319.55 62.47H197.89L117.2-594.46h725.6l-14.69 85.4q-28.44-10.5-52.37-15.14-23.94-4.63-55.13-4.63-115.02 0-195.4 80.42-80.38 80.41-83.97 195.19-.96 37.83 8.2 74.06 9.15 36.22 26.73 69.38Z"/></svg>