<svg xmlns="http://www.w3.org/2000/svg" height="48" viewBox="0 -960 960 960" width="48"><path d="M218.42-655.73v-43.85h523.85v43.85H218.42Zm80-107.69v-43.85h363.85v43.85H298.42Zm397.23 660.34-2.77-37.84q-22.47-5.46-42.73-16.54-20.27-11.08-35.19-27.93l-33.07 17-26.31-38.92 29.77-23.31q-7.66-21.98-7.66-45.46t7.66-45.46l-29.77-23.31 26.31-39.53 33.07 17q15.16-16.43 35.3-27.41 20.15-10.98 42.62-16.06l2.67-38.84h43.95l3.38 38.84q21.92 5.23 41.9 16.23 19.99 11 36.03 27.24l32.69-17 26.69 39.53-30.15 23.31q6.96 22.23 6.96 45.46t-6.96 45.46l30.15 23.31-26.69 38.92-32.69-17q-15.62 16.85-35.72 27.93-20.11 11.08-42.21 16.54l-3.27 37.84h-43.96Zm91.46-103.04q29.04-29.03 29.04-70.27 0-41.23-29.04-70.26-29.03-29.04-70.07-29.04-41.04 0-70.08 29.04-29.04 29.03-29.04 70.26 0 41.24 29.04 70.27 29.04 29.04 70.08 29.04t70.07-29.04ZM478-153.43H217.54l-73.15-438.45h671.22l-10.42 59.8q-24.11-8.38-42.77-12.17-18.65-3.79-45.19-3.79-112.81 0-191.67 79.42-78.87 79.43-78.87 192.23 0 31.25 7.93 63.27 7.92 32.02 23.38 59.69Z"/></svg>