<svg xmlns="http://www.w3.org/2000/svg" height="40" viewBox="0 -960 960 960" width="40"><path d="M228.83-644.83V-668H732v23.17H228.83Zm80-88V-756H652v23.17H308.83Zm387 576.5-.5-24.84q-23.38-4.56-43.94-15.19Q630.83-207 617-225.33l-22.67 12.5L580-231.5l19.5-15.5q-9.17-24.17-9.17-49.5t9.17-49.5L580-361.5l14.33-18.67 22.67 12.5q12.83-18.83 33.89-29.22 21.06-10.38 44.44-14.28l.43-25.5H719l.5 25.5q22.64 4 43.48 14.5 20.85 10.5 34.85 29l22-12.5 15 18.67-20.16 15.5q8.33 24.33 8.33 49.5t-8.33 49.5l20.16 15.5-15 18.67-22-12.5q-14.66 18.33-35.12 28.97-20.45 10.63-43.21 15.19l-.43 24.84h-23.24Zm76.34-74.34Q799-257.5 799-296.5t-26.83-65.83q-26.84-26.84-65.5-26.84-38.67 0-65.5 26.84-26.84 26.83-26.84 65.83t26.84 65.83q26.83 26.84 65.5 26.84 38.66 0 65.5-26.84Zm-306.34 25.84h-221.5L181.5-580h597l-5.83 32.83q-19.34-5.16-32-7.41-12.67-2.25-33.67-2.25-108.17 0-184 76.08T447.17-296.5q0 21.06 4.23 46.55 4.24 25.5 14.43 45.12Z"/></svg>