<svg xmlns="http://www.w3.org/2000/svg" height="20" viewBox="0 -960 960 960" width="20"><path d="M186.5-617.78v-83h587v83h-587Zm96-131v-83h395v83h-395ZM696.04-16.39l-12.24-57.2q-13.28-4.52-25.18-10.9-11.9-6.38-22.19-15.66l-56.19 17.48-34.87-60.26 41.96-40.72q-3-13.28-3-27.57 0-14.28 3-27.56l-41.96-39.72 34.87-61.02 55.19 16.24q10.29-10.28 22.69-17.05 12.4-6.76 25.68-10.28l13.24-57.19h69.98l13.48 57.19q13.28 4.52 26.18 10.78 12.91 6.27 22.19 16.55l54.96-15.24 35.1 60.02-41.19 38.72q3 13.28 2.5 28.06-.5 14.79-3.5 28.07l42.19 39.72-35.1 60.26-55.96-16.48q-10.28 9.28-22.19 15.66-11.9 6.38-25.18 10.9l-14.48 57.2h-69.98Zm86.8-146.02q20.4-20.52 20.4-49.81 0-29.28-20.4-49.68-20.41-20.4-49.69-20.4-29.28 0-49.8 20.4-20.52 20.4-20.52 49.68 0 29.29 20.52 49.81 20.52 20.52 49.8 20.52 29.28 0 49.69-20.52Zm-313.28 33.95H235.93l-97.67-441.56h683.48l-19.67 91.76q-18.92-4.24-37.83-6.5-18.91-2.26-40.59-2.26-108.04 0-184.42 76.42-76.38 76.43-81.16 185.47-1.2 24.24 1.75 48.6 2.94 24.36 9.74 48.07Z"/></svg>