<svg xmlns="http://www.w3.org/2000/svg" height="40" viewBox="0 -960 960 960" width="40"><path d="M187.33-631.67v-106h586v106h-586Zm80-159.33v-106.67h426V-791h-426ZM689.67 57.33l-8-57.33q-16.67-4-30-11.67-13.34-7.67-25-19.33l-52.34 21-47-77.67 44.34-37q-5-15.33-5-30.17 0-14.83 5-31.5l-44.34-36.33 47-78L626.67-280q11.66-11 25-18.17 13.33-7.17 30-11.83l8-57.33h89l10 57.33q15 4.66 29.16 11.83Q832-291 843.33-280l51.34-20.67 48 78-45.34 36.33q4.34 16.67 4.34 31.5 0 14.84-4.34 30.17l45.34 37-48 77.67-51.34-21q-12.33 11.66-26 19.33Q803.67-4 788.67 0l-10 57.33h-89Zm107.16-149q25.17-25.66 25.17-63 0-37.33-25.17-63-25.16-25.67-62.5-25.67-37.33 0-63 25.67-25.66 25.67-25.66 63 0 37.34 25.66 63Q697-66 734.33-66q37.34 0 62.5-25.67ZM433.67-64h-248L99.33-578.67h762L840-455.33q-31.33-9-61.17-13.17-29.83-4.17-63.83-4.17-114.67 0-196.83 78.5-82.17 78.5-97.84 192.5-4.66 34.67-.66 70.17t14 67.5Z"/></svg>