<svg xmlns="http://www.w3.org/2000/svg" height="40" viewBox="0 -960 960 960" width="40"><path d="M224.14-647.22v-32.43h512.44v32.43H224.14Zm80-95.38v-32.44h352.44v32.44H304.14Zm-96.11 190.77 13.8 85.93q13.8 85.94 39.43 247.78l-53.23-333.71Zm261.76 366.15H234.41l-66.64-398.59h624.46l-5.67 32.44H208.03l53 333.71h195.59q2.1 9.38 5.67 17.46t7.5 14.98Zm224.89 50.42-1.92-30.64q-22.09-4.79-41.85-15.12-19.77-10.33-33.64-27.47l-27.74 13.93-19.18-27.29L594.27-241q-8.24-22.94-8.24-46.62 0-23.67 8.24-46.61l-23.92-19.15 19.18-27.44 27.74 13.92q13.26-17.37 33.33-27.56 20.07-10.2 42.16-14.36l1.76-31.31h32.6l2.07 31.31q21.57 4.38 41.43 14.58 19.87 10.19 34.06 27.34l27.23-13.92 19.69 27.44-24.43 19.15q7.52 22.91 7.52 46.61 0 23.71-7.52 46.62l24.43 19.15-19.69 27.29-27.23-13.93q-14.59 17.14-34.13 27.47-19.53 10.33-41.36 15.12l-1.92 30.64h-32.59Zm81.41-86.37q27.06-27.06 27.06-66.06t-27.06-66.07q-27.06-27.06-65.81-27.06-38.74 0-65.81 27.06-27.06 27.07-27.06 66.07 0 39 27.06 66.06 27.07 27.07 65.81 27.07 38.75 0 65.81-27.07Z"/></svg>