<svg xmlns="http://www.w3.org/2000/svg" height="24" viewBox="0 -960 960 960" width="24"><path d="M197-636.28v-86h566v86H197Zm80-131v-86h406v86H277ZM682.54-24.39l-11.24-58.2q-11.78-4.52-22.43-10.15-10.65-5.63-20.94-13.41l-55.19 17.48-40.87-69.26 43.96-37.72q-2.5-12.78-2.5-25.57 0-12.78 2.5-25.56l-43.96-37.72 40.87-69.02 55.19 17.24q10.29-7.78 20.94-13.3 10.65-5.51 22.43-10.03l11.24-58.19h80.98L775-359.61q11.78 4.52 22.68 9.78 10.91 5.27 20.69 13.55l54.96-17.24 41.1 69.02-44.19 37.72q2.5 12.78 2.5 25.56 0 12.79-2.5 25.57l44.19 37.72-41.1 69.26-54.96-17.48q-10.28 7.78-20.94 13.41-10.65 5.63-22.43 10.15l-11.48 58.2h-80.98Zm95.8-141.52q22.9-23.02 22.9-55.31 0-32.28-22.9-55.18-22.91-22.9-55.19-22.9t-55.3 22.9q-23.02 22.9-23.02 55.18 0 32.29 23.02 55.31 23.02 23.02 55.3 23.02t55.19-23.02Zm-312.78 58.95H197.93l-80.67-484.56h725.48l-18.17 105.26q-26.42-10.24-52.33-14.75-25.91-4.51-54.59-4.51-113.54 0-193.17 78.92-79.63 78.93-84.41 192.47-1.2 33.74 5 65.35 6.19 31.61 20.49 61.82Z"/></svg>