<svg xmlns="http://www.w3.org/2000/svg" height="24" viewBox="0 -960 960 960" width="24"><path d="M227.5-641.5V-667H733v25.5H227.5Zm80-88V-755H653v25.5H307.5Zm-93 176 13.5 83.75Q241.5-386 266-231l-51.5-322.5Zm251 348H245L182.5-579h595l-4.5 25.5H214.5L265.84-231H455.5q2 7.5 4.5 13.5t5.5 12Zm227 48.5-1.5-26.5q-21.32-4-40.41-13.75Q631.5-207 618-224l-24 11.5-15-20 20.5-16.5q-8.5-23.25-8.5-46.5t8.5-46.5L579-358.5l15-20 24 11.5q12.5-17.5 32.09-27.08 19.59-9.58 40.91-13.42l1.39-26.5H718l1.5 26.5q20.95 4 40.48 13.5 19.52 9.5 32.52 27l24-11.5 15 20L811-342q8 23 8 46.5t-8 46.5l20.5 16.5-15 20-24-11.5q-14 17-32.93 26.75T719.5-183.5l-1.39 26.5H692.5Zm75-76q25.5-25.5 25.5-62.5T767.5-358Q742-383.5 705-383.5T642.5-358Q617-332.5 617-295.5t25.5 62.5q25.5 25.5 62.5 25.5t62.5-25.5Z"/></svg>