<svg xmlns="http://www.w3.org/2000/svg" height="48" viewBox="0 -960 960 960" width="48"><path d="M223-640v-35h515v35H223Zm80-101v-35h355v35H303Zm-86 202 13 84.5Q243-370 268-220l-51-319Zm224 354H239l-65-389h613l-6 36q-4 0-31-.5t-43-.5H217l51 319h172q-2 9-1.5 18t2.5 17Zm254 85-2-33q-23-4-42.5-14T618-175l-30 14-21-30 26-20q-9-23-9-46t9-47l-26-20 21-30 30 14q12-18 32-27.5t43-13.5l2-34h35l2 34q22 4 42 13.5t33 27.5l29-14 22 30-27 20q8 24 8 47t-8 46l27 20-22 30-29-14q-14 18-33.5 28T732-133l-2 33h-35Zm83-90q27-27 27-67t-27-67q-27-27-66.5-27T645-324q-27 27-27 67t27 67q27 27 66.5 27t66.5-27Z"/></svg>