<svg xmlns="http://www.w3.org/2000/svg" height="40" viewBox="0 -960 960 960" width="40"><path d="M206.67-653.33V-720h546.66v66.67H206.67Zm80-120V-840h386.66v66.67H286.67Zm-86 240L215-443.67q14.33 89.67 40.67 257l-55-346.66Zm279 413.33H200l-80-480h720l-11.33 66.67h-628l55 346.66H455q4.33 18.67 10.5 35 6.17 16.34 14.17 31.67ZM693-54.33l-7.33-52q-18-5.67-34.17-14.84-16.17-9.16-30.5-21.83l-47.33 19.33L537-182.33l40.67-33.34Q573-233.33 573-252q0-18.67 4.67-36.33L537-321.67 573.67-381 621-361.67q15-12 30.83-21.16 15.84-9.17 33.84-14.84l7.33-52.66h66.67l8 52.66q18 5.67 33.83 14.84 15.83 9.16 30.83 21.16L879.67-381l36.66 59.33-40.66 33.34q4.66 17.66 4.66 36.33 0 18.67-4.66 36.33l40.66 33.34-36.66 58.66L832.33-143q-14.33 12.67-30.5 21.83-16.16 9.17-34.16 14.84l-8 52H693ZM793.17-185.5Q821-213.33 821-252.33t-27.83-66.84Q765.33-347 726.33-347t-66.83 27.83q-27.83 27.84-27.83 66.84t27.83 66.83q27.83 27.83 66.83 27.83t66.84-27.83Z"/></svg>