<svg xmlns="http://www.w3.org/2000/svg" height="40" viewBox="0 -960 960 960" width="40"><path d="M197.76-643.11v-84.81h564.81v84.81H197.76Zm80-141.48v-85.19h404.81v85.19H277.76Zm-64.77 282.77 13.3 84.34q13.31 84.34 38.59 241.17l-51.89-325.51Zm245.52 410.7H193.23L110.7-586.63h738.6l-14.43 85.38q-3.83 0-35.91-.29-32.08-.28-66.16-.28H212.99l51.79 325.51h177.15q.52 22.35 4.65 43.68 4.14 21.33 11.93 41.51ZM688.95-4.71l-7.23-52.45q-17.06-4.81-32.46-13.64-15.4-8.83-28.08-20.68l-47.11 19.42-40.99-66.17 40.55-33.03q-5.17-16.68-5.17-33.98 0-17.31 5.17-34.37l-40.55-32.65 40.99-66.65 47.11 19.23q12.97-11.18 28.22-19.92 15.26-8.73 32.32-13.54l7.16-52.74h75.27l8.09 52.74q16.82 4.91 32.3 13.51 15.48 8.6 28.61 19.95l46.55-19.23 41.55 66.65-41.11 32.65q4.83 17.23 4.83 34.37 0 17.13-4.83 33.98l41.11 33.03-41.55 66.17-46.55-19.42q-13.01 11.85-28.49 20.68-15.48 8.83-32.42 13.64l-8.02 52.45h-75.27Zm102.01-136.3q26.61-26.89 26.61-64.57 0-37.68-26.61-64.29-26.61-26.61-64.29-26.61-37.68 0-64.58 26.61-26.89 26.61-26.89 64.29 0 37.68 26.89 64.57 26.9 26.9 64.58 26.9t64.29-26.9Z"/></svg>