<svg xmlns="http://www.w3.org/2000/svg" version="1.1" width="3300" height="2000"><g id="Notes"><style>
    text {
      font-family: monospace;
      text-anchor: middle;
    }
    text.emphasis {
      font-weight:bold;
    }
    text.lanchor {
      text-anchor: start;
    }
  </style><rect height="2200" id="artboard" fill="white" width="3300" x="0" y="0"/><line id="" style="fill:none;stroke:black;stroke-width:0.5;" x1="263" x2="3036" y1="292" y2="292"/><text class="lanchor emphasis" transform="matrix(1 0 0 1 263 322)">Weight/Scale Variations</text><text transform="matrix(1 0 0 1 559.711 322)">Ultralight</text><text transform="matrix(1 0 0 1 856.422 322)">Thin</text><text transform="matrix(1 0 0 1 1153.13 322)">Light</text><text transform="matrix(1 0 0 1 1449.84 322)">Regular</text><text transform="matrix(1 0 0 1 1746.56 322)">Medium</text><text transform="matrix(1 0 0 1 2043.27 322)">Semibold</text><text transform="matrix(1 0 0 1 2339.98 322)">Bold</text><text transform="matrix(1 0 0 1 2636.69 322)">Heavy</text><text transform="matrix(1 0 0 1 2933.4 322)">Black</text><text id="template-version" style="text-anchor: end;" transform="matrix(1 0 0 1 3036 1933)">Template v.1.0</text><text class="lanchor" transform="matrix(1 0 0 1 263 726)">Small</text><text class="lanchor" transform="matrix(1 0 0 1 263 1156)">Medium</text><text class="lanchor" transform="matrix(1 0 0 1 263 1586)">Large</text></g><g id="Guides"><g id="H-reference" style="fill:#27AAE1;stroke:none;" transform="matrix(1 0 0 1 339 696)"><path d="M 54.9316 0 L 57.666 0 L 30.5664 -70.459 L 28.0762 -70.459 L 0.976562 0 L 3.66211 0 L 12.9395 -24.4629 L 45.7031 -24.4629 Z M 29.1992 -67.0898 L 29.4434 -67.0898 L 44.8242 -26.709 L 13.8184 -26.709 Z"/></g><line id="Baseline-S" style="fill:none;stroke:#27AAE1;opacity:1;stroke-width:0.577;" x1="263" x2="3036" y1="696" y2="696"/><line id="Capline-S" style="fill:none;stroke:#27AAE1;opacity:1;stroke-width:0.577;" x1="263" x2="3036" y1="625.541" y2="625.541"/><g id="H-reference" style="fill:#27AAE1;stroke:none;" transform="matrix(1 0 0 1 339 1126)"><path d="M 54.9316 0 L 57.666 0 L 30.5664 -70.459 L 28.0762 -70.459 L 0.976562 0 L 3.66211 0 L 12.9395 -24.4629 L 45.7031 -24.4629 Z M 29.1992 -67.0898 L 29.4434 -67.0898 L 44.8242 -26.709 L 13.8184 -26.709 Z"/></g><line id="Baseline-M" style="fill:none;stroke:#27AAE1;opacity:1;stroke-width:0.577;" x1="263" x2="3036" y1="1126" y2="1126"/><line id="Capline-M" style="fill:none;stroke:#27AAE1;opacity:1;stroke-width:0.577;" x1="263" x2="3036" y1="1055.54" y2="1055.54"/><g id="H-reference" style="fill:#27AAE1;stroke:none;" transform="matrix(1 0 0 1 339 1556)"><path d="M 54.9316 0 L 57.666 0 L 30.5664 -70.459 L 28.0762 -70.459 L 0.976562 0 L 3.66211 0 L 12.9395 -24.4629 L 45.7031 -24.4629 Z M 29.1992 -67.0898 L 29.4434 -67.0898 L 44.8242 -26.709 L 13.8184 -26.709 Z"/></g><line id="Baseline-L" style="fill:none;stroke:#27AAE1;opacity:1;stroke-width:0.577;" x1="263" x2="3036" y1="1556" y2="1556"/><line id="Capline-L" style="fill:none;stroke:#27AAE1;opacity:1;stroke-width:0.577;" x1="263" x2="3036" y1="1485.54" y2="1485.54"/><rect height="119.336" id="left-margin" style="fill:darkred;stroke:none;opacity:0.4;" width="12.4512" x="1394.06" y="1030.79"/><rect height="119.336" id="right-margin" style="fill:darkgreen;stroke:none;opacity:0.4;" width="12.4512" x="1502.5112" y="1030.79"/><rect x="1406.5112" y="1045" width="96" height="96" fill="none" stroke="blue" stroke-dasharray="5"/><rect x="1394.06" y="1030.79" width="120.9024" height="119.336" fill="none" stroke="blue"/></g><g id="Symbols"><g id="Bold-L" transform="matrix(1 0 0 1 2266 1556)"><path d="M37.087 26.206 Q31.113 26.206 26.764 21.857 Q22.414 17.507 22.414 11.533 V-81.992 Q22.414 -88.033 26.764 -92.43 Q31.113 -96.827 37.087 -96.827 H117.713 Q123.753 -96.827 128.15 -92.43 Q132.548 -88.033 132.548 -81.992 V11.533 Q132.548 17.507 128.15 21.857 Q123.753 26.206 117.713 26.206 H37.087 Z M71.273 -27.651  66.435 -32.489 Q64.5 -34.424 62.081 -34.262 Q59.663 -34.101 58.05 -32.489 Q56.276 -30.51 56.276 -27.953 Q56.276 -25.394 58.05 -23.781 L72.24 -9.591 Q74.233 -7.495 77.429 -7.495 Q80.625 -7.495 82.721 -9.591 L96.75 -23.781 Q98.524 -25.394 98.524 -27.893 Q98.524 -30.392 96.589 -32.65 Q94.654 -34.424 92.493 -34.424 Q90.332 -34.424 88.688 -32.65 L83.689 -27.651 V-53.774 Q83.689 -56.309 81.804 -58.186 Q79.917 -60.062 77.369 -60.062 Q74.82 -60.062 73.046 -58.186 Q71.273 -56.309 71.273 -53.774 V-27.651 Z"/></g><g id="Semibold-L" transform="matrix(1 0 0 1 1970.27 1556)"><path d="M36.176 25.856 Q30.767 25.856 26.766 21.854 Q22.764 17.854 22.764 12.444 V-82.904 Q22.764 -88.352 26.766 -92.379 Q30.767 -96.407 36.176 -96.407 H118.624 Q124.072 -96.407 128.099 -92.379 Q132.127 -88.352 132.127 -82.904 V12.444 Q132.127 17.854 128.099 21.854 Q124.072 25.856 118.624 25.856 H36.176 Z M71.413 -27.301  66.225 -32.489 Q64.36 -34.283 62.012 -34.193 Q59.663 -34.101 57.981 -32.419 Q56.207 -30.53 56.207 -28.032 Q56.207 -25.534 57.981 -23.922 L72.73 -9.17 Q74.559 -7.214 77.416 -7.214 Q80.275 -7.214 82.231 -9.17 L96.819 -23.922 Q98.593 -25.534 98.593 -27.998 Q98.593 -30.462 96.658 -32.581 Q94.794 -34.283 92.627 -34.283 Q90.458 -34.283 88.828 -32.581 L83.548 -27.301 V-53.914 Q83.548 -56.399 81.712 -58.231 Q79.875 -60.062 77.382 -60.062 Q74.889 -60.062 73.151 -58.231 Q71.413 -56.399 71.413 -53.914 V-27.301 Z"/></g><g id="Medium-L" transform="matrix(1 0 0 1 1674.31 1556)"><path d="M35.493 25.594 Q30.505 25.594 26.766 21.854 Q23.027 18.115 23.027 13.127 V-83.587 Q23.027 -88.589 26.766 -92.34 Q30.505 -96.091 35.493 -96.091 H119.307 Q124.309 -96.091 128.06 -92.34 Q131.811 -88.589 131.811 -83.587 V13.127 Q131.811 18.115 128.06 21.854 Q124.309 25.594 119.307 25.594 H35.493 Z M71.518 -27.038  66.067 -32.489 Q64.255 -34.179 61.959 -34.14 Q59.663 -34.101 57.927 -32.366 Q56.154 -30.544 56.154 -28.091 Q56.154 -25.639 57.927 -24.026 L73.099 -8.854 Q74.802 -7.005 77.406 -7.005 Q80.012 -7.005 81.862 -8.854 L96.873 -24.026 Q98.646 -25.639 98.646 -28.077 Q98.646 -30.515 96.711 -32.527 Q94.899 -34.179 92.727 -34.179 Q90.553 -34.179 88.933 -32.527 L83.444 -27.038 V-54.019 Q83.444 -56.467 81.642 -58.265 Q79.843 -60.062 77.392 -60.062 Q74.943 -60.062 73.23 -58.265 Q71.518 -56.467 71.518 -54.019 V-27.038 Z"/></g><g id="Regular-L" transform="matrix(1 0 0 1 1378.56 1556)"><path d="M34.991 25.4 Q30.315 25.4 26.768 21.853 Q23.22 18.305 23.22 13.629 V-84.089 Q23.22 -88.765 26.768 -92.312 Q30.315 -95.86 34.991 -95.86 H119.809 Q124.485 -95.86 128.032 -92.312 Q131.58 -88.765 131.58 -84.089 V13.629 Q131.58 18.305 128.032 21.853 Q124.485 25.4 119.809 25.4 H34.991 Z M71.595 -26.845  65.951 -32.489 Q64.177 -34.101 61.92 -34.101 Q59.663 -34.101 57.889 -32.327 Q56.115 -30.554 56.115 -28.135 Q56.115 -25.716 57.889 -24.104 L73.369 -8.624 Q74.981 -6.85 77.4 -6.85 Q79.819 -6.85 81.593 -8.624 L96.911 -24.104 Q98.685 -25.716 98.685 -28.135 Q98.685 -30.554 96.75 -32.489 Q94.976 -34.101 92.799 -34.101 Q90.623 -34.101 89.01 -32.489 L83.366 -26.845 V-54.096 Q83.366 -56.515 81.593 -58.289 Q79.819 -60.062 77.4 -60.062 Q74.981 -60.062 73.288 -58.289 Q71.595 -56.515 71.595 -54.096 V-26.845 Z"/></g><g id="Light-L" transform="matrix(1 0 0 1 1082.77 1556)"><path d="M37.844 22.175 Q33.23 22.175 29.838 18.782 Q26.445 15.39 26.445 10.776 V-81.236 Q26.445 -85.85 29.838 -89.242 Q33.23 -92.635 37.844 -92.635 H117.018 Q121.632 -92.635 125.024 -89.242 Q128.416 -85.85 128.416 -81.236 V10.776 Q128.416 15.39 125.024 18.782 Q121.632 22.175 117.018 22.175 H37.844 Z M72.835 -25.294  65.145 -32.985 Q63.744 -34.225 61.951 -34.256 Q60.159 -34.287 58.695 -32.824 Q57.231 -31.423 57.231 -29.469 Q57.231 -27.514 58.695 -26.274 L73.554 -11.415 Q75.105 -9.641 77.461 -9.641 Q79.819 -9.641 81.531 -11.415 L96.105 -26.15 Q97.506 -27.392 97.537 -29.344 Q97.569 -31.299 95.944 -32.861 Q94.48 -34.163 92.799 -34.163 Q91.119 -34.163 89.816 -32.861 L82.25 -25.294 V-52.793 Q82.25 -54.717 80.817 -56.149 Q79.385 -57.581 77.461 -57.581 Q75.539 -57.581 74.188 -56.149 Q72.835 -54.717 72.835 -52.793 V-25.294 Z"/></g><g id="Thin-L" transform="matrix(1 0 0 1 787.282 1556)"><path d="M40.696 18.95 Q36.144 18.95 32.908 15.712 Q29.67 12.476 29.67 7.924 V-78.384 Q29.67 -82.936 32.908 -86.172 Q36.144 -89.41 40.696 -89.41 H114.226 Q118.78 -89.41 122.016 -86.172 Q125.254 -82.936 125.254 -78.384 V7.924 Q125.254 12.476 122.016 15.712 Q118.78 18.95 114.226 18.95 H40.696 Z M74.075 -23.744  64.339 -33.48 Q63.31 -34.35 61.981 -34.411 Q60.654 -34.474 59.501 -33.319 Q58.348 -32.29 58.348 -30.802 Q58.348 -29.314 59.501 -28.445 L73.741 -14.206 Q75.23 -12.432 77.524 -12.432 Q79.819 -12.432 81.468 -14.206 L95.299 -28.196 Q96.328 -29.065 96.39 -30.554 Q96.452 -32.042 95.138 -33.234 Q93.985 -34.225 92.799 -34.225 Q91.614 -34.225 90.623 -33.234 L81.133 -23.744 V-51.492 Q81.133 -52.918 80.041 -54.009 Q78.951 -55.101 77.524 -55.101 Q76.097 -55.101 75.086 -54.009 Q74.075 -52.918 74.075 -51.492 V-23.744 Z"/></g><g id="Ultralight-L" transform="matrix(1 0 0 1 491.205 1556)"><path d="M42.409 17.015 Q37.894 17.015 34.749 13.871 Q31.605 10.726 31.605 6.211 V-76.671 Q31.605 -81.186 34.749 -84.331 Q37.894 -87.475 42.409 -87.475 H112.553 Q117.068 -87.475 120.212 -84.331 Q123.356 -81.186 123.356 -76.671 V6.211 Q123.356 10.726 120.212 13.871 Q117.068 17.015 112.553 17.015 H42.409 Z M74.82 -22.814  63.855 -33.779 Q63.049 -34.424 62.001 -34.504 Q60.953 -34.585 59.985 -33.617 Q59.017 -32.811 59.017 -31.602 Q59.017 -30.392 59.985 -29.747 L73.853 -15.88 Q75.304 -14.106 77.561 -14.106 Q79.819 -14.106 81.431 -15.88 L94.815 -29.425 Q95.621 -30.07 95.702 -31.279 Q95.782 -32.489 94.654 -33.456 Q93.686 -34.262 92.799 -34.262 Q91.913 -34.262 91.106 -33.456 L80.464 -22.814 V-50.71 Q80.464 -51.839 79.577 -52.726 Q78.69 -53.612 77.561 -53.612 Q76.433 -53.612 75.626 -52.726 Q74.82 -51.839 74.82 -50.71 V-22.814 Z"/></g><g id="Bold-M" transform="matrix(1 0 0 1 2281.8 1126)"><path d="M31.25 15.52 Q24.125 15.52 19.188 10.583 Q14.25 5.645 14.25 -1.48 V-68.98 Q14.25 -76.105 19.188 -81.042 Q24.125 -85.98 31.25 -85.98 H88.75 Q95.875 -85.98 100.812 -81.042 Q105.75 -76.105 105.75 -68.98 V-1.48 Q105.75 5.645 100.812 10.583 Q95.875 15.52 88.75 15.52 H31.25 Z M52.75 -39.605  54.5 -37.855 Q52.5 -39.855 49.812 -39.792 Q47.125 -39.73 44.875 -37.48 Q42.875 -35.355 42.875 -32.355 Q42.875 -29.355 44.875 -27.355 L54 -18.23 Q56.5 -15.73 60 -15.73 Q63.5 -15.73 66 -18.23 L75.125 -27.355 Q77.125 -29.355 77.125 -32.355 Q77.125 -35.355 74.625 -37.98 Q72.75 -39.855 70.125 -39.855 Q67.5 -39.855 65.625 -37.98 L67.25 -39.605 V-45.98 Q67.25 -48.98 65.125 -51.105 Q63 -53.23 60 -53.23 Q57 -53.23 54.875 -51.105 Q52.75 -48.98 52.75 -45.98 V-39.605 Z"/></g><g id="Semibold-M" transform="matrix(1 0 0 1 1985.97 1126)"><path d="M30.38 14.759 Q23.962 14.759 19.486 10.284 Q15.011 5.808 15.011 -0.61 V-69.85 Q15.011 -76.267 19.486 -80.744 Q23.962 -85.219 30.38 -85.219 H89.62 Q96.037 -85.219 100.514 -80.744 Q104.989 -76.267 104.989 -69.85 V-0.61 Q104.989 5.808 100.514 10.284 Q96.037 14.759 89.62 14.759 H30.38 Z M53.021 -38.899  54.011 -37.909 Q52.12 -39.801 49.514 -39.765 Q46.907 -39.73 44.712 -37.534 Q42.766 -35.517 42.766 -32.626 Q42.766 -29.735 44.712 -27.79 L54.597 -17.904 Q56.88 -15.621 60 -15.621 Q63.12 -15.621 65.403 -17.904 L75.287 -27.79 Q77.234 -29.735 77.234 -32.626 Q77.234 -35.517 74.843 -37.98 Q73.021 -39.801 70.451 -39.801 Q67.88 -39.801 66.06 -37.98 L66.979 -38.899 V-46.415 Q66.979 -49.306 64.935 -51.35 Q62.891 -53.392 60 -53.392 Q57.109 -53.392 55.065 -51.35 Q53.021 -49.306 53.021 -46.415 V-38.899 Z"/></g><g id="Medium-M" transform="matrix(1 0 0 1 1689.91 1126)"><path d="M29.729 14.189 Q23.84 14.189 19.71 10.06 Q15.581 5.93 15.581 0.041 V-70.501 Q15.581 -76.39 19.71 -80.52 Q23.84 -84.649 29.729 -84.649 H90.271 Q96.16 -84.649 100.29 -80.52 Q104.419 -76.39 104.419 -70.501 V0.041 Q104.419 5.93 100.29 10.06 Q96.16 14.189 90.271 14.189 H29.729 Z M53.225 -38.369  53.644 -37.95 Q51.834 -39.76 49.29 -39.745 Q46.745 -39.73 44.59 -37.575 Q42.685 -35.64 42.685 -32.83 Q42.685 -30.021 44.59 -28.116 L55.046 -17.659 Q57.166 -15.54 60 -15.54 Q62.834 -15.54 64.954 -17.659 L75.41 -28.116 Q77.315 -30.021 77.315 -32.83 Q77.315 -35.64 75.005 -37.98 Q73.225 -39.76 70.696 -39.76 Q68.166 -39.76 66.386 -37.98 L66.775 -38.369 V-46.741 Q66.775 -49.551 64.793 -51.532 Q62.81 -53.515 60 -53.515 Q57.19 -53.515 55.208 -51.532 Q53.225 -49.551 53.225 -46.741 V-38.369 Z"/></g><g id="Regular-M" transform="matrix(1 0 0 1 1394.06 1126)"><path d="M29.25 13.77 Q23.75 13.77 19.875 9.895 Q16 6.02 16 0.52 V-70.98 Q16 -76.48 19.875 -80.355 Q23.75 -84.23 29.25 -84.23 H90.75 Q96.25 -84.23 100.125 -80.355 Q104 -76.48 104 -70.98 V0.52 Q104 6.02 100.125 9.895 Q96.25 13.77 90.75 13.77 H29.25 Z M53.375 -37.98 Q51.625 -39.73 49.125 -39.73 Q46.625 -39.73 44.5 -37.605 Q42.625 -35.73 42.625 -32.98 Q42.625 -30.23 44.5 -28.355 L55.375 -17.48 Q57.375 -15.48 60 -15.48 Q62.625 -15.48 64.625 -17.48 L75.5 -28.355 Q77.375 -30.23 77.375 -32.98 Q77.375 -35.73 75.125 -37.98 Q73.375 -39.73 70.875 -39.73 Q68.375 -39.73 66.625 -37.98 V-46.98 Q66.625 -49.73 64.688 -51.667 Q62.75 -53.605 60 -53.605 Q57.25 -53.605 55.312 -51.667 Q53.375 -49.73 53.375 -46.98 V-37.98 Z"/></g><g id="Light-M" transform="matrix(1 0 0 1 1098.18 1126)"><path d="M30.789 11.27 Q25.625 11.27 22.062 7.708 Q18.5 4.145 18.5 -1.019 V-69.441 Q18.5 -74.605 22.062 -78.167 Q25.625 -81.73 30.789 -81.73 H89.26 Q94.422 -81.73 97.985 -78.167 Q101.547 -74.605 101.547 -69.441 V-1.019 Q101.547 4.145 97.985 7.708 Q94.422 11.27 89.26 11.27 H30.789 Z M54.674 -34.759  52.51 -36.922 Q51.096 -38.336 49.125 -38.36 Q47.154 -38.384 45.365 -36.595 Q43.779 -35.009 43.779 -32.836 Q43.779 -30.662 45.365 -29.076 L55.76 -18.682 Q57.615 -16.826 60.047 -16.826 Q62.481 -16.826 64.336 -18.682 L74.635 -28.98 Q76.172 -30.519 76.198 -32.74 Q76.221 -34.961 74.26 -36.874 Q72.846 -38.287 70.899 -38.287 Q68.953 -38.287 67.539 -36.874 L65.422 -34.759 V-46.306 Q65.422 -48.527 63.846 -50.105 Q62.269 -51.681 60.047 -51.681 Q57.828 -51.681 56.25 -50.105 Q54.674 -48.527 54.674 -46.306 V-34.759 Z"/></g><g id="Thin-M" transform="matrix(1 0 0 1 802.565 1126)"><path d="M32.328 8.77 Q27.5 8.77 24.25 5.52 Q21 2.27 21 -2.557 V-67.902 Q21 -72.73 24.25 -75.98 Q27.5 -79.23 32.328 -79.23 H87.769 Q92.596 -79.23 95.846 -75.98 Q99.096 -72.73 99.096 -67.902 V-2.557 Q99.096 2.27 95.846 5.52 Q92.596 8.77 87.769 8.77 H32.328 Z M55.971 -31.537  51.644 -35.865 Q50.568 -36.941 49.125 -36.99 Q47.682 -37.037 46.231 -35.586 Q44.932 -34.287 44.932 -32.691 Q44.932 -31.095 46.231 -29.797 L56.144 -19.884 Q57.856 -18.172 60.096 -18.172 Q62.336 -18.172 64.047 -19.884 L73.769 -29.605 Q74.971 -30.807 75.019 -32.499 Q75.067 -34.191 73.394 -35.769 Q72.317 -36.845 70.922 -36.845 Q69.529 -36.845 68.453 -35.769 L64.221 -31.537 V-45.634 Q64.221 -47.326 63.005 -48.542 Q61.789 -49.759 60.096 -49.759 Q58.404 -49.759 57.188 -48.542 Q55.971 -47.326 55.971 -45.634 V-31.537 Z"/></g><g id="Ultralight-M" transform="matrix(1 0 0 1 506.415 1126)"><path d="M33.25 7.27 Q28.625 7.27 25.562 4.208 Q22.5 1.145 22.5 -3.48 V-66.98 Q22.5 -71.605 25.562 -74.667 Q28.625 -77.73 33.25 -77.73 H86.875 Q91.5 -77.73 94.562 -74.667 Q97.625 -71.605 97.625 -66.98 V-3.48 Q97.625 1.145 94.562 4.208 Q91.5 7.27 86.875 7.27 H33.25 Z M56.75 -29.605  51.125 -35.23 Q50.25 -36.105 49.125 -36.167 Q48 -36.23 46.75 -34.98 Q45.625 -33.855 45.625 -32.605 Q45.625 -31.355 46.75 -30.23 L56.375 -20.605 Q58 -18.98 60.125 -18.98 Q62.25 -18.98 63.875 -20.605 L73.25 -29.98 Q74.25 -30.98 74.312 -32.355 Q74.375 -33.73 72.875 -35.105 Q72 -35.98 70.938 -35.98 Q69.875 -35.98 69 -35.105 L63.5 -29.605 V-45.23 Q63.5 -46.605 62.5 -47.605 Q61.5 -48.605 60.125 -48.605 Q58.75 -48.605 57.75 -47.605 Q56.75 -46.605 56.75 -45.23 V-29.605 Z"/></g><g id="Bold-S" transform="matrix(1 0 0 1 2294.23 696)"><path d="M27.023 2.445 Q21.402 2.445 17.9 -1.056 Q14.399 -4.558 14.399 -10.179 V-60.281 Q14.399 -65.902 17.9 -69.404 Q21.402 -72.905 27.023 -72.905 H67.657 Q73.278 -72.905 76.78 -69.404 Q80.281 -65.902 80.281 -60.281 V-10.179 Q80.281 -4.558 76.78 -1.056 Q73.278 2.445 67.657 2.445 H27.023 Z M42.014 -38.78  43.79 -37.005 Q42.212 -38.583 40.338 -38.534 Q38.464 -38.485 36.787 -36.808 Q35.209 -35.131 35.209 -33.011 Q35.209 -30.89 36.787 -29.312 L42.902 -23.099 Q44.776 -21.225 47.34 -21.225 Q49.904 -21.225 51.778 -23.099 L57.992 -29.312 Q59.57 -30.89 59.57 -33.06 Q59.57 -35.23 57.597 -37.202 Q56.216 -38.583 54.342 -38.583 Q52.468 -38.583 51.088 -37.202 L52.666 -38.78 V-42.528 Q52.666 -44.698 51.088 -46.276 Q49.51 -47.854 47.34 -47.854 Q45.17 -47.854 43.592 -46.276 Q42.014 -44.698 42.014 -42.528 V-38.78 Z"/></g><g id="Semibold-S" transform="matrix(1 0 0 1 1998.1 696)"><path d="M26.337 1.844 Q21.273 1.844 18.136 -1.292 Q15 -4.429 15 -9.493 V-60.967 Q15 -66.031 18.136 -69.168 Q21.273 -72.304 26.337 -72.304 H68.343 Q73.407 -72.304 76.544 -69.168 Q79.68 -66.031 79.68 -60.967 V-9.493 Q79.68 -4.429 76.544 -1.292 Q73.407 1.844 68.343 1.844 H26.337 Z M42.228 -38.223  43.404 -37.048 Q41.912 -38.541 40.102 -38.512 Q38.292 -38.485 36.659 -36.85 Q35.123 -35.26 35.123 -33.225 Q35.123 -31.19 36.659 -29.656 L43.373 -22.842 Q45.076 -21.139 47.34 -21.139 Q49.604 -21.139 51.307 -22.842 L58.12 -29.656 Q59.655 -31.19 59.655 -33.274 Q59.655 -35.358 57.769 -37.202 Q56.43 -38.541 54.6 -38.541 Q52.768 -38.541 51.431 -37.202 L52.452 -38.223 V-42.871 Q52.452 -44.955 50.938 -46.469 Q49.424 -47.982 47.34 -47.982 Q45.256 -47.982 43.742 -46.469 Q42.228 -44.955 42.228 -42.871 V-38.223 Z"/></g><g id="Medium-S" transform="matrix(1 0 0 1 1701.85 696)"><path d="M25.823 1.394 Q21.177 1.394 18.313 -1.469 Q15.45 -4.333 15.45 -8.979 V-61.481 Q15.45 -66.127 18.313 -68.991 Q21.177 -71.854 25.823 -71.854 H68.857 Q73.503 -71.854 76.367 -68.991 Q79.23 -66.127 79.23 -61.481 V-8.979 Q79.23 -4.333 76.367 -1.469 Q73.503 1.394 68.857 1.394 H25.823 Z M42.389 -37.805  43.114 -37.08 Q41.686 -38.508 39.925 -38.496 Q38.164 -38.485 36.562 -36.883 Q35.059 -35.356 35.059 -33.386 Q35.059 -31.416 36.562 -29.913 L43.727 -22.648 Q45.301 -21.075 47.34 -21.075 Q49.379 -21.075 50.953 -22.648 L58.216 -29.913 Q59.719 -31.416 59.719 -33.435 Q59.719 -35.455 57.897 -37.202 Q56.591 -38.508 54.793 -38.508 Q52.994 -38.508 51.688 -37.202 L52.291 -37.805 V-43.129 Q52.291 -45.149 50.825 -46.613 Q49.36 -48.079 47.34 -48.079 Q45.32 -48.079 43.855 -46.613 Q42.389 -45.149 42.389 -43.129 V-37.805 Z"/></g><g id="Regular-S" transform="matrix(1 0 0 1 1405.73 696)"><path d="M25.445 1.064 Q21.106 1.064 18.443 -1.599 Q15.78 -4.262 15.78 -8.601 V-61.859 Q15.78 -66.198 18.443 -68.861 Q21.106 -71.524 25.445 -71.524 H69.235 Q73.574 -71.524 76.237 -68.861 Q78.9 -66.198 78.9 -61.859 V-8.601 Q78.9 -4.262 76.237 -1.599 Q73.574 1.064 69.235 1.064 H25.445 Z M42.507 -37.498  42.902 -37.104 Q41.521 -38.485 39.795 -38.485 Q38.069 -38.485 36.491 -36.907 Q35.012 -35.427 35.012 -33.504 Q35.012 -31.581 36.491 -30.101 L43.987 -22.507 Q45.466 -21.028 47.34 -21.028 Q49.214 -21.028 50.693 -22.507 L58.287 -30.101 Q59.767 -31.581 59.767 -33.553 Q59.767 -35.526 57.992 -37.202 Q56.709 -38.485 54.934 -38.485 Q53.159 -38.485 51.877 -37.202 L52.173 -37.498 V-43.317 Q52.173 -45.29 50.743 -46.72 Q49.312 -48.15 47.34 -48.15 Q45.367 -48.15 43.937 -46.72 Q42.507 -45.29 42.507 -43.317 V-37.498 Z"/></g><g id="Light-S" transform="matrix(1 0 0 1 1109.75 696)"><path d="M26.659 -0.908 Q22.585 -0.908 20.169 -3.325 Q17.753 -5.741 17.753 -9.815 V-60.645 Q17.753 -64.719 20.169 -67.135 Q22.585 -69.551 26.659 -69.551 H68.059 Q72.132 -69.551 74.549 -67.135 Q76.965 -64.719 76.965 -60.645 V-9.815 Q76.965 -5.741 74.549 -3.325 Q72.132 -0.908 68.059 -0.908 H26.659 Z M43.532 -34.957  42.219 -36.27 Q41.104 -37.385 39.795 -37.404 Q38.486 -37.422 37.174 -36.11 Q35.922 -34.858 35.922 -33.391 Q35.922 -31.922 37.174 -30.671 L44.291 -23.456 Q45.655 -22.09 47.377 -22.09 Q49.1 -22.09 50.465 -23.456 L57.605 -30.595 Q58.818 -31.809 58.838 -33.364 Q58.856 -34.919 57.309 -36.33 Q56.292 -37.346 54.953 -37.346 Q53.615 -37.346 52.598 -36.33 L51.224 -34.957 V-42.786 Q51.224 -44.341 50.079 -45.487 Q48.933 -46.632 47.377 -46.632 Q45.823 -46.632 44.677 -45.487 Q43.532 -44.341 43.532 -42.786 V-34.957 Z"/></g><g id="Thin-S" transform="matrix(1 0 0 1 814.015 696)"><path d="M27.873 -2.881 Q24.065 -2.881 21.895 -5.051 Q19.725 -7.22 19.725 -11.029 V-59.431 Q19.725 -63.239 21.895 -65.409 Q24.065 -67.579 27.873 -67.579 H66.883 Q70.691 -67.579 72.861 -65.409 Q75.031 -63.239 75.031 -59.431 V-11.029 Q75.031 -7.22 72.861 -5.051 Q70.691 -2.881 66.883 -2.881 H27.873 Z M44.556 -32.415  41.536 -35.435 Q40.687 -36.284 39.795 -36.323 Q38.904 -36.36 37.857 -35.314 Q36.832 -34.289 36.832 -33.276 Q36.832 -32.263 37.857 -31.24 L44.593 -24.404 Q45.846 -23.152 47.416 -23.152 Q48.986 -23.152 50.238 -24.404 L56.921 -31.088 Q57.87 -32.037 57.908 -33.174 Q57.946 -34.312 56.626 -35.458 Q55.875 -36.208 54.972 -36.208 Q54.069 -36.208 53.319 -35.458 L50.276 -32.415 V-42.255 Q50.276 -43.393 49.415 -44.254 Q48.554 -45.115 47.416 -45.115 Q46.278 -45.115 45.417 -44.254 Q44.556 -43.393 44.556 -42.255 V-32.415 Z"/></g><g id="Ultralight-S" transform="matrix(1 0 0 1 517.792 696)"><path d="M28.601 -4.064 Q24.952 -4.064 22.93 -6.086 Q20.909 -8.108 20.909 -11.757 V-58.703 Q20.909 -62.352 22.93 -64.374 Q24.952 -66.395 28.601 -66.395 H66.177 Q69.827 -66.395 71.848 -64.374 Q73.87 -62.352 73.87 -58.703 V-11.757 Q73.87 -8.108 71.848 -6.086 Q69.827 -4.064 66.177 -4.064 H28.601 Z M45.17 -30.89  41.127 -34.934 Q40.436 -35.624 39.795 -35.674 Q39.154 -35.723 38.267 -34.835 Q37.379 -33.948 37.379 -33.208 Q37.379 -32.468 38.267 -31.581 L44.776 -24.973 Q45.959 -23.789 47.439 -23.789 Q48.918 -23.789 50.102 -24.973 L56.512 -31.384 Q57.301 -32.173 57.35 -33.06 Q57.4 -33.948 56.216 -34.934 Q55.625 -35.526 54.983 -35.526 Q54.342 -35.526 53.751 -34.934 L49.707 -30.89 V-41.936 Q49.707 -42.824 49.017 -43.514 Q48.326 -44.205 47.439 -44.205 Q46.551 -44.205 45.861 -43.514 Q45.17 -42.824 45.17 -41.936 V-30.89 Z"/></g></g></svg>