<svg xmlns="http://www.w3.org/2000/svg" version="1.1" width="3300" height="2000"><g id="Notes"><style>
    text {
      font-family: monospace;
      text-anchor: middle;
    }
    text.emphasis {
      font-weight:bold;
    }
    text.lanchor {
      text-anchor: start;
    }
  </style><rect height="2200" id="artboard" fill="white" width="3300" x="0" y="0"/><line id="" style="fill:none;stroke:black;stroke-width:0.5;" x1="263" x2="3036" y1="292" y2="292"/><text class="lanchor emphasis" transform="matrix(1 0 0 1 263 322)">Weight/Scale Variations</text><text transform="matrix(1 0 0 1 559.711 322)">Ultralight</text><text transform="matrix(1 0 0 1 856.422 322)">Thin</text><text transform="matrix(1 0 0 1 1153.13 322)">Light</text><text transform="matrix(1 0 0 1 1449.84 322)">Regular</text><text transform="matrix(1 0 0 1 1746.56 322)">Medium</text><text transform="matrix(1 0 0 1 2043.27 322)">Semibold</text><text transform="matrix(1 0 0 1 2339.98 322)">Bold</text><text transform="matrix(1 0 0 1 2636.69 322)">Heavy</text><text transform="matrix(1 0 0 1 2933.4 322)">Black</text><text id="template-version" style="text-anchor: end;" transform="matrix(1 0 0 1 3036 1933)">Template v.1.0</text><text class="lanchor" transform="matrix(1 0 0 1 263 726)">Small</text><text class="lanchor" transform="matrix(1 0 0 1 263 1156)">Medium</text><text class="lanchor" transform="matrix(1 0 0 1 263 1586)">Large</text></g><g id="Guides"><g id="H-reference" style="fill:#27AAE1;stroke:none;" transform="matrix(1 0 0 1 339 696)"><path d="M 54.9316 0 L 57.666 0 L 30.5664 -70.459 L 28.0762 -70.459 L 0.976562 0 L 3.66211 0 L 12.9395 -24.4629 L 45.7031 -24.4629 Z M 29.1992 -67.0898 L 29.4434 -67.0898 L 44.8242 -26.709 L 13.8184 -26.709 Z"/></g><line id="Baseline-S" style="fill:none;stroke:#27AAE1;opacity:1;stroke-width:0.577;" x1="263" x2="3036" y1="696" y2="696"/><line id="Capline-S" style="fill:none;stroke:#27AAE1;opacity:1;stroke-width:0.577;" x1="263" x2="3036" y1="625.541" y2="625.541"/><g id="H-reference" style="fill:#27AAE1;stroke:none;" transform="matrix(1 0 0 1 339 1126)"><path d="M 54.9316 0 L 57.666 0 L 30.5664 -70.459 L 28.0762 -70.459 L 0.976562 0 L 3.66211 0 L 12.9395 -24.4629 L 45.7031 -24.4629 Z M 29.1992 -67.0898 L 29.4434 -67.0898 L 44.8242 -26.709 L 13.8184 -26.709 Z"/></g><line id="Baseline-M" style="fill:none;stroke:#27AAE1;opacity:1;stroke-width:0.577;" x1="263" x2="3036" y1="1126" y2="1126"/><line id="Capline-M" style="fill:none;stroke:#27AAE1;opacity:1;stroke-width:0.577;" x1="263" x2="3036" y1="1055.54" y2="1055.54"/><g id="H-reference" style="fill:#27AAE1;stroke:none;" transform="matrix(1 0 0 1 339 1556)"><path d="M 54.9316 0 L 57.666 0 L 30.5664 -70.459 L 28.0762 -70.459 L 0.976562 0 L 3.66211 0 L 12.9395 -24.4629 L 45.7031 -24.4629 Z M 29.1992 -67.0898 L 29.4434 -67.0898 L 44.8242 -26.709 L 13.8184 -26.709 Z"/></g><line id="Baseline-L" style="fill:none;stroke:#27AAE1;opacity:1;stroke-width:0.577;" x1="263" x2="3036" y1="1556" y2="1556"/><line id="Capline-L" style="fill:none;stroke:#27AAE1;opacity:1;stroke-width:0.577;" x1="263" x2="3036" y1="1485.54" y2="1485.54"/><rect height="119.336" id="left-margin" style="fill:darkred;stroke:none;opacity:0.4;" width="12.4512" x="1394.06" y="1030.79"/><rect height="119.336" id="right-margin" style="fill:darkgreen;stroke:none;opacity:0.4;" width="12.4512" x="1502.5112" y="1030.79"/><rect x="1406.5112" y="1045" width="96" height="96" fill="none" stroke="blue" stroke-dasharray="5"/><rect x="1394.06" y="1030.79" width="120.9024" height="119.336" fill="none" stroke="blue"/></g><g id="Symbols"><g id="Bold-L" transform="matrix(1 0 0 1 2266 1556)"><path d="M132.225 -49.501 V-77.074 H104.571 V-90.216 H145.367 V-49.501 H132.225 Z M9.675 -49.501 V-90.216 H50.229 V-77.074 H22.656 V-49.501 H9.675 Z M9.675 19.595 V-20.959 H22.656 V6.614 H50.229 V19.595 H9.675 Z M61.033 -6.689 V-63.932 L106.103 -35.23 L61.033 -6.689 Z M102.636 42.331 V33.059 H153.429 V42.331 H102.636 Z M127.549 21.208  102.797 -3.706  109.247 -10.156  123.114 3.631 V-28.619 H132.386 V3.551 L146.173 -10.156 L152.623 -3.706 L127.549 21.208 Z"/></g><g id="Semibold-L" transform="matrix(1 0 0 1 1970.27 1556)"><path d="M132.085 -49.501 V-76.934 H104.571 V-88.394 H143.545 V-49.501 H132.085 Z M11.428 -49.501 V-88.394 H50.229 V-76.934 H22.796 V-49.501 H11.428 Z M11.428 17.842 V-20.959 H22.796 V6.474 H50.229 V17.842 H11.428 Z M61.454 -7.39 V-63.162 L105.332 -35.23 L61.454 -7.39 Z M100.814 42.262 V32.99 H151.607 V42.262 H100.814 Z M125.727 21.557  100.975 -3.356  107.425 -9.806  121.292 3.981 V-28.269 H130.564 V3.901 L144.351 -9.806 L150.801 -3.356 L125.727 21.557 Z"/></g><g id="Medium-L" transform="matrix(1 0 0 1 1674.31 1556)"><path d="M131.98 -49.501 V-76.829 H104.571 V-87.027 H142.177 V-49.501 H131.98 Z M12.742 -49.501 V-87.027 H50.229 V-76.829 H22.901 V-49.501 H12.742 Z M12.742 16.528 V-20.959 H22.901 V6.369 H50.229 V16.528 H12.742 Z M61.77 -7.916 V-62.583 L104.753 -35.23 L61.77 -7.916 Z M99.446 42.209 V32.937 H150.24 V42.209 H99.446 Z M124.359 21.82  99.607 -3.093  106.057 -9.543  119.925 4.244 V-28.006 H129.197 V4.163 L142.984 -9.543 L149.434 -3.093 L124.359 21.82 Z"/></g><g id="Regular-L" transform="matrix(1 0 0 1 1378.56 1556)"><path d="M131.903 -49.501 V-76.752 H104.571 V-86.024 H141.174 V-49.501 H131.903 Z M13.706 -49.501 V-86.024 H50.229 V-76.752 H22.978 V-49.501 H13.706 Z M13.706 15.564 V-20.959 H22.978 V6.292 H50.229 V15.564 H13.706 Z M62.001 -8.301 V-62.159 L104.329 -35.23 L62.001 -8.301 Z M98.443 42.17 V32.898 H149.237 V42.17 H98.443 Z M123.356 22.014  98.604 -2.899  105.054 -9.349  118.922 4.438 V-27.812 H128.194 V4.357 L141.981 -9.349 L148.431 -2.899 L123.356 22.014 Z"/></g><g id="Light-L" transform="matrix(1 0 0 1 1082.77 1556)"><path d="M131.19 -49.159 V-76.039 H104.229 V-83.108 H138.259 V-49.159 H131.19 Z M16.622 -49.159 V-83.108 H50.571 V-76.039 H23.691 V-49.159 H16.622 Z M16.622 12.648 V-21.301 H23.691 V5.579 H50.571 V12.648 H16.622 Z M63.395 -10.659 V-59.801 L101.971 -35.23 L63.395 -10.659 Z M100.522 40.527 V33.456 H148.4 V40.527 H100.522 Z M124.101 21.58  101.241 -1.38  106.202 -6.34  120.689 8.159 V-24.96 H127.76 V8.109 L142.198 -6.34 L147.158 -1.38 L124.101 21.58 Z"/></g><g id="Thin-L" transform="matrix(1 0 0 1 787.282 1556)"><path d="M130.475 -48.819 V-75.325 H103.889 V-80.195 H135.345 V-48.819 H130.475 Z M19.535 -48.819 V-80.195 H50.911 V-75.325 H24.405 V-48.819 H19.535 Z M19.535 9.735 V-21.641 H24.405 V4.865 H50.911 V9.735 H19.535 Z M64.792 -13.015 V-57.445 L99.615 -35.23 L64.792 -13.015 Z M102.599 38.884 V34.014 H147.563 V38.884 H102.599 Z M124.845 21.146  103.876 0.14  107.349 -3.333  122.456 11.879 V-22.107 H127.326 V11.861 L142.414 -3.333 L145.888 0.14 L124.845 21.146 Z"/></g><g id="Ultralight-L" transform="matrix(1 0 0 1 491.205 1556)"><path d="M130.048 -48.614 V-74.897 H103.684 V-78.445 H133.596 V-48.614 H130.048 Z M21.285 -48.614 V-78.445 H51.116 V-74.897 H24.832 V-48.614 H21.285 Z M21.285 7.985 V-21.846 H24.832 V4.438 H51.116 V7.985 H21.285 Z M65.629 -14.429 V-56.031 L98.201 -35.23 L65.629 -14.429 Z M103.845 37.897 V34.349 H147.06 V37.897 H103.845 Z M125.291 20.885  105.457 1.051  108.038 -1.529  123.517 14.113 V-20.395 H127.065 V14.113 L142.545 -1.529 L145.125 1.051 L125.291 20.885 Z"/></g><g id="Bold-M" transform="matrix(1 0 0 1 2281.8 1126)"><path d="M99.812 -44.855 V-64.98 H79.625 V-78.23 H113.062 V-44.855 H99.812 Z M7 -44.855 V-78.23 H40.375 V-64.98 H20.25 V-44.855 H7 Z M7 7.77 V-25.605 H20.25 V-5.48 H40.375 V7.77 H7 Z M46.875 -11.73 V-58.73 L83.5 -35.23 L46.875 -11.73 Z M78.875 24.833 V15.458 H117.625 V24.833 H78.875 Z M98.25 7.77  78.875 -11.605  85.375 -18.105  93.625 -9.98 V-30.98 H103 V-10.105 L111.125 -18.105 L117.625 -11.605 L98.25 7.77 Z"/></g><g id="Semibold-M" transform="matrix(1 0 0 1 1985.97 1126)"><path d="M99.65 -44.855 V-64.817 H79.625 V-76.382 H111.215 V-44.855 H99.65 Z M8.848 -44.855 V-76.382 H40.375 V-64.817 H20.413 V-44.855 H8.848 Z M8.848 5.923 V-25.605 H20.413 V-5.642 H40.375 V5.923 H8.848 Z M47.31 -12.491 V-57.969 L82.739 -35.23 L47.31 -12.491 Z M77.028 24.779 V15.404 H115.778 V24.779 H77.028 Z M96.403 8.096  77.028 -11.279  83.528 -17.779  91.778 -9.654 V-30.654 H101.153 V-9.779 L109.278 -17.779 L115.778 -11.279 L96.403 8.096 Z"/></g><g id="Medium-M" transform="matrix(1 0 0 1 1689.91 1126)"><path d="M99.528 -44.855 V-64.695 H79.625 V-74.996 H109.829 V-44.855 H99.528 Z M10.234 -44.855 V-74.996 H40.375 V-64.695 H20.535 V-44.855 H10.234 Z M10.234 4.536 V-25.605 H20.535 V-5.765 H40.375 V4.536 H10.234 Z M47.636 -13.061 V-57.399 L82.169 -35.23 L47.636 -13.061 Z M75.641 24.738 V15.363 H114.391 V24.738 H75.641 Z M95.016 8.341  75.641 -11.034  82.141 -17.534  90.391 -9.409 V-30.409 H99.766 V-9.534 L107.891 -17.534 L114.391 -11.034 L95.016 8.341 Z"/></g><g id="Regular-M" transform="matrix(1 0 0 1 1394.06 1126)"><path d="M99.438 -44.855 V-64.605 H79.625 V-73.98 H108.812 V-44.855 H99.438 Z M11.25 -44.855 V-73.98 H40.375 V-64.605 H20.625 V-44.855 H11.25 Z M11.25 3.52 V-25.605 H20.625 V-5.855 H40.375 V3.52 H11.25 Z M47.875 -13.48 V-56.98 L81.75 -35.23 L47.875 -13.48 Z M74.625 24.708 V15.333 H113.375 V24.708 H74.625 Z M94 8.52  74.625 -10.855  81.125 -17.355  89.375 -9.23 V-30.23 H98.75 V-9.355 L106.875 -17.355 L113.375 -10.855 L94 8.52 Z"/></g><g id="Light-M" transform="matrix(1 0 0 1 1098.18 1126)"><path d="M99.558 -44.927 V-64.725 H79.698 V-71.72 H106.552 V-44.927 H99.558 Z M13.51 -44.927 V-71.72 H40.303 V-64.725 H20.505 V-44.927 H13.51 Z M13.51 1.26 V-25.532 H20.505 V-5.735 H40.303 V1.26 H13.51 Z M49.053 -15.644 V-54.816 L79.586 -35.23 L49.053 -15.644 Z M76.62 23.481 V16.486 H113.11 V23.481 H76.62 Z M94.865 8.184  77.101 -9.581  81.966 -14.446  91.419 -5.047 V-27.826 H98.414 V-5.147 L107.765 -14.446 L112.63 -9.581 L94.865 8.184 Z"/></g><g id="Thin-M" transform="matrix(1 0 0 1 802.565 1126)"><path d="M99.677 -44.999 V-64.845 H79.769 V-69.461 H104.294 V-44.999 H99.677 Z M15.769 -44.999 V-69.461 H40.231 V-64.845 H20.385 V-44.999 H15.769 Z M15.769 -0.999 V-25.461 H20.385 V-5.615 H40.231 V-0.999 H15.769 Z M50.231 -17.807 V-52.652 L77.422 -35.23 L50.231 -17.807 Z M78.615 22.255 V17.64 H112.846 V22.255 H78.615 Z M95.731 7.848  79.578 -8.307  82.808 -11.537  93.461 -0.865 V-25.422 H98.078 V-0.941 L108.654 -11.537 L111.885 -8.307 L95.731 7.848 Z"/></g><g id="Ultralight-M" transform="matrix(1 0 0 1 506.415 1126)"><path d="M99.75 -45.042 V-64.917 H79.812 V-68.105 H102.938 V-45.042 H99.75 Z M17.125 -45.042 V-68.105 H40.188 V-64.917 H20.312 V-45.042 H17.125 Z M17.125 -2.355 V-25.417 H20.312 V-5.542 H40.188 V-2.355 H17.125 Z M50.938 -19.105 V-51.355 L76.125 -35.23 L50.938 -19.105 Z M79.812 21.52 V18.333 H112.688 V21.52 H79.812 Z M96.25 7.645  81.062 -7.542  83.312 -9.792  94.688 1.645 V-23.98 H97.875 V1.583 L109.188 -9.792 L111.438 -7.542 L96.25 7.645 Z"/></g><g id="Bold-S" transform="matrix(1 0 0 1 2294.23 696)"><path d="M77.963 -42.035 V-56.336 H63.613 V-66.001 H87.628 V-42.035 H77.963 Z M7.101 -42.035 V-66.001 H31.067 V-56.336 H16.766 V-42.035 H7.101 Z M7.101 -4.459 V-28.622 H16.766 V-14.124 H31.067 V-4.459 H7.101 Z M37.379 -17.872 V-52.588 L64.698 -35.23 L37.379 -17.872 Z M64.599 12.258 V5.65 H92.017 V12.258 H64.599 Z M78.308 -1.303  64.599 -15.012  69.235 -19.647  75.054 -13.73 V-28.721 H81.662 V-13.828 L87.382 -19.647 L92.017 -15.012 L78.308 -1.303 Z"/></g><g id="Semibold-S" transform="matrix(1 0 0 1 1998.1 696)"><path d="M77.835 -42.035 V-56.208 H63.613 V-64.543 H86.171 V-42.035 H77.835 Z M8.559 -42.035 V-64.543 H31.067 V-56.208 H16.894 V-42.035 H8.559 Z M8.559 -5.917 V-28.622 H16.894 V-14.252 H31.067 V-5.917 H8.559 Z M37.722 -18.473 V-51.987 L64.097 -35.23 L37.722 -18.473 Z M63.142 12.216 V5.608 H90.559 V12.216 H63.142 Z M76.851 -1.046  63.142 -14.754  67.777 -19.39  73.596 -13.472 V-28.463 H80.204 V-13.571 L85.924 -19.39 L90.559 -14.754 L76.851 -1.046 Z"/></g><g id="Medium-S" transform="matrix(1 0 0 1 1701.85 696)"><path d="M77.738 -42.035 V-56.111 H63.613 V-63.45 H85.077 V-42.035 H77.738 Z M9.652 -42.035 V-63.45 H31.067 V-56.111 H16.991 V-42.035 H9.652 Z M9.652 -7.01 V-28.622 H16.991 V-14.349 H31.067 V-7.01 H9.652 Z M37.98 -18.922 V-51.538 L63.648 -35.23 L37.98 -18.922 Z M62.048 12.183 V5.575 H89.466 V12.183 H62.048 Z M75.757 -0.852  62.048 -14.561  66.683 -19.197  72.502 -13.279 V-28.27 H79.11 V-13.378 L84.83 -19.197 L89.466 -14.561 L75.757 -0.852 Z"/></g><g id="Regular-S" transform="matrix(1 0 0 1 1405.73 696)"><path d="M77.667 -42.035 V-56.04 H63.613 V-62.648 H84.275 V-42.035 H77.667 Z M10.454 -42.035 V-62.648 H31.067 V-56.04 H17.062 V-42.035 H10.454 Z M10.454 -7.812 V-28.622 H17.062 V-14.42 H31.067 V-7.812 H10.454 Z M38.168 -19.253 V-51.207 L63.317 -35.23 L38.168 -19.253 Z M61.246 12.159 V5.551 H88.664 V12.159 H61.246 Z M74.955 -0.711  61.246 -14.42  65.882 -19.055  71.7 -13.138 V-28.129 H78.308 V-13.237 L84.029 -19.055 L88.664 -14.42 L74.955 -0.711 Z"/></g><g id="Light-S" transform="matrix(1 0 0 1 1109.75 696)"><path d="M77.762 -42.092 V-56.135 H63.67 V-60.865 H82.492 V-42.092 H77.762 Z M12.237 -42.092 V-60.865 H31.01 V-56.135 H16.967 V-42.092 H12.237 Z M12.237 -9.595 V-28.565 H16.967 V-14.325 H31.01 V-9.595 H12.237 Z M39.097 -20.96 V-49.5 L61.61 -35.23 L39.097 -20.96 Z M62.82 11.192 V6.462 H88.455 V11.192 H62.82 Z M75.637 -0.977  63.2 -13.415  66.545 -16.76  73.313 -9.838 V-26.232 H78.043 V-9.917 L84.731 -16.76 L88.076 -13.415 L75.637 -0.977 Z"/></g><g id="Thin-S" transform="matrix(1 0 0 1 814.015 696)"><path d="M77.857 -42.149 V-56.229 H63.727 V-59.082 H80.71 V-42.149 H77.857 Z M14.02 -42.149 V-59.082 H30.953 V-56.229 H16.873 V-42.149 H14.02 Z M14.02 -11.378 V-28.509 H16.873 V-14.231 H30.953 V-11.378 H14.02 Z M40.027 -22.667 V-47.793 L59.903 -35.23 L40.027 -22.667 Z M64.394 10.224 V7.372 H88.247 V10.224 H64.394 Z M76.321 -1.242  65.154 -12.41  67.209 -14.465  74.924 -6.538 V-24.336 H77.778 V-6.598 L85.432 -14.465 L87.488 -12.41 L76.321 -1.242 Z"/></g><g id="Ultralight-S" transform="matrix(1 0 0 1 517.792 696)"><path d="M77.914 -42.183 V-56.286 H63.761 V-58.012 H79.64 V-42.183 H77.914 Z M15.09 -42.183 V-58.012 H30.919 V-56.286 H16.816 V-42.183 H15.09 Z M15.09 -12.448 V-28.474 H16.816 V-14.174 H30.919 V-12.448 H15.09 Z M40.584 -23.691 V-46.769 L58.879 -35.23 L40.584 -23.691 Z M65.339 9.644 V7.918 H88.121 V9.644 H65.339 Z M76.73 -1.402  66.325 -11.807  67.607 -13.089  75.892 -4.558 V-23.198 H77.618 V-4.607 L85.853 -13.089 L87.135 -11.807 L76.73 -1.402 Z"/></g></g></svg>