<svg xmlns="http://www.w3.org/2000/svg" version="1.1" width="3300" height="2000"><g id="Notes"><style>
    text {
      font-family: monospace;
      text-anchor: middle;
    }
    text.emphasis {
      font-weight:bold;
    }
    text.lanchor {
      text-anchor: start;
    }
  </style><rect height="2200" id="artboard" fill="white" width="3300" x="0" y="0"/><line id="" style="fill:none;stroke:black;stroke-width:0.5;" x1="263" x2="3036" y1="292" y2="292"/><text class="lanchor emphasis" transform="matrix(1 0 0 1 263 322)">Weight/Scale Variations</text><text transform="matrix(1 0 0 1 559.711 322)">Ultralight</text><text transform="matrix(1 0 0 1 856.422 322)">Thin</text><text transform="matrix(1 0 0 1 1153.13 322)">Light</text><text transform="matrix(1 0 0 1 1449.84 322)">Regular</text><text transform="matrix(1 0 0 1 1746.56 322)">Medium</text><text transform="matrix(1 0 0 1 2043.27 322)">Semibold</text><text transform="matrix(1 0 0 1 2339.98 322)">Bold</text><text transform="matrix(1 0 0 1 2636.69 322)">Heavy</text><text transform="matrix(1 0 0 1 2933.4 322)">Black</text><text id="template-version" style="text-anchor: end;" transform="matrix(1 0 0 1 3036 1933)">Template v.1.0</text><text class="lanchor" transform="matrix(1 0 0 1 263 726)">Small</text><text class="lanchor" transform="matrix(1 0 0 1 263 1156)">Medium</text><text class="lanchor" transform="matrix(1 0 0 1 263 1586)">Large</text></g><g id="Guides"><g id="H-reference" style="fill:#27AAE1;stroke:none;" transform="matrix(1 0 0 1 339 696)"><path d="M 54.9316 0 L 57.666 0 L 30.5664 -70.459 L 28.0762 -70.459 L 0.976562 0 L 3.66211 0 L 12.9395 -24.4629 L 45.7031 -24.4629 Z M 29.1992 -67.0898 L 29.4434 -67.0898 L 44.8242 -26.709 L 13.8184 -26.709 Z"/></g><line id="Baseline-S" style="fill:none;stroke:#27AAE1;opacity:1;stroke-width:0.577;" x1="263" x2="3036" y1="696" y2="696"/><line id="Capline-S" style="fill:none;stroke:#27AAE1;opacity:1;stroke-width:0.577;" x1="263" x2="3036" y1="625.541" y2="625.541"/><g id="H-reference" style="fill:#27AAE1;stroke:none;" transform="matrix(1 0 0 1 339 1126)"><path d="M 54.9316 0 L 57.666 0 L 30.5664 -70.459 L 28.0762 -70.459 L 0.976562 0 L 3.66211 0 L 12.9395 -24.4629 L 45.7031 -24.4629 Z M 29.1992 -67.0898 L 29.4434 -67.0898 L 44.8242 -26.709 L 13.8184 -26.709 Z"/></g><line id="Baseline-M" style="fill:none;stroke:#27AAE1;opacity:1;stroke-width:0.577;" x1="263" x2="3036" y1="1126" y2="1126"/><line id="Capline-M" style="fill:none;stroke:#27AAE1;opacity:1;stroke-width:0.577;" x1="263" x2="3036" y1="1055.54" y2="1055.54"/><g id="H-reference" style="fill:#27AAE1;stroke:none;" transform="matrix(1 0 0 1 339 1556)"><path d="M 54.9316 0 L 57.666 0 L 30.5664 -70.459 L 28.0762 -70.459 L 0.976562 0 L 3.66211 0 L 12.9395 -24.4629 L 45.7031 -24.4629 Z M 29.1992 -67.0898 L 29.4434 -67.0898 L 44.8242 -26.709 L 13.8184 -26.709 Z"/></g><line id="Baseline-L" style="fill:none;stroke:#27AAE1;opacity:1;stroke-width:0.577;" x1="263" x2="3036" y1="1556" y2="1556"/><line id="Capline-L" style="fill:none;stroke:#27AAE1;opacity:1;stroke-width:0.577;" x1="263" x2="3036" y1="1485.54" y2="1485.54"/><rect height="119.336" id="left-margin" style="fill:darkred;stroke:none;opacity:0.4;" width="12.4512" x="1394.06" y="1030.79"/><rect height="119.336" id="right-margin" style="fill:darkgreen;stroke:none;opacity:0.4;" width="12.4512" x="1502.5112" y="1030.79"/><rect x="1406.5112" y="1045" width="96" height="96" fill="none" stroke="blue" stroke-dasharray="5"/><rect x="1394.06" y="1030.79" width="120.9024" height="119.336" fill="none" stroke="blue"/></g><g id="Symbols"><g id="Bold-L" transform="matrix(1 0 0 1 2266 1556)"><path d="M77.4 27.496  61.114 12.5 Q44.344 -2.496 34.266 -13.058 Q24.188 -23.62 18.624 -31.602 Q13.061 -39.584 11.287 -46.114 Q9.514 -52.645 9.514 -60.062 Q9.514 -76.187 20.156 -87.314 Q30.799 -98.44 46.763 -98.44 Q56.115 -98.44 63.774 -94.409 Q71.434 -90.377 77.4 -83.121 Q84.172 -90.7 91.59 -94.57 Q99.008 -98.44 108.038 -98.44 Q124.969 -98.44 135.369 -86.749 Q145.77 -75.059 145.447 -58.772 H130.29 Q130.774 -67.48 124.404 -75.542 Q118.035 -83.605 108.038 -83.605 Q100.459 -83.605 93.444 -78.687 Q86.43 -73.769 83.528 -64.9 H71.434 Q68.37 -73.607 61.356 -78.606 Q54.341 -83.605 46.763 -83.605 Q36.765 -83.605 30.557 -76.913 Q24.349 -70.221 24.349 -60.062 Q24.349 -54.096 26.284 -48.614 Q28.219 -43.131 33.863 -35.714 Q39.506 -28.296 49.907 -17.896 Q60.308 -7.495 77.4 8.146 L87.559 -1.69 Q95.944 -9.752 103.764 -17.17 Q111.585 -24.587 119.486 -34.262 H105.78 V-49.097 H145.447 V-10.881 H130.774 V-25.071 Q121.744 -15.074 113.439 -6.447 Q105.135 2.18 95.138 11.049 L77.4 27.496 Z"/></g><g id="Semibold-L" transform="matrix(1 0 0 1 1970.27 1556)"><path d="M77.4 26.935  60.833 11.589 Q44.274 -3.338 34.301 -13.76 Q24.328 -24.181 18.869 -32.023 Q13.411 -39.864 11.637 -46.29 Q9.864 -52.714 9.864 -59.993 Q9.864 -75.838 20.437 -86.788 Q31.008 -97.739 46.693 -97.739 Q55.834 -97.739 63.599 -93.673 Q71.364 -89.607 77.4 -82.139 Q84.242 -89.929 91.766 -93.835 Q99.288 -97.739 108.107 -97.739 Q124.619 -97.739 135.089 -86.153 Q145.56 -74.569 145.027 -58.282 H131.272 Q132.036 -67.761 125.351 -75.999 Q118.665 -84.235 108.107 -84.235 Q100.459 -84.235 93.269 -79.283 Q86.08 -74.33 83.528 -65.811 H71.364 Q68.651 -74.169 61.531 -79.203 Q54.411 -84.235 46.693 -84.235 Q36.275 -84.235 29.822 -77.334 Q23.367 -70.431 23.367 -59.993 Q23.367 -53.956 25.337 -48.404 Q27.308 -42.851 33.092 -35.364 Q38.876 -27.875 49.486 -17.299 Q60.098 -6.724 77.4 9.198 L87.909 -0.919 Q96.785 -9.472 104.921 -17.31 Q113.057 -25.149 121.239 -35.104 H107.183 V-48.607 H145.027 V-11.652 H131.615 V-26.824 Q122.585 -16.477 114.001 -7.674 Q105.416 1.129 95.278 10.278 L77.4 26.935 Z"/></g><g id="Medium-L" transform="matrix(1 0 0 1 1674.31 1556)"><path d="M77.4 26.514  60.624 10.905 Q44.221 -3.968 34.327 -14.285 Q24.433 -24.602 19.053 -32.339 Q13.674 -40.074 11.9 -46.421 Q10.127 -52.768 10.127 -59.94 Q10.127 -75.575 20.646 -86.393 Q31.166 -97.213 46.64 -97.213 Q55.625 -97.213 63.468 -93.12 Q71.311 -89.028 77.4 -81.404 Q84.295 -89.35 91.896 -93.282 Q99.498 -97.213 108.16 -97.213 Q124.356 -97.213 134.879 -85.706 Q145.402 -74.199 144.711 -57.913 H132.007 Q132.983 -67.97 126.06 -76.341 Q119.14 -84.71 108.16 -84.71 Q100.459 -84.71 93.138 -79.73 Q85.817 -74.751 83.528 -66.495 H71.311 Q68.86 -74.59 61.662 -79.65 Q54.464 -84.71 46.64 -84.71 Q35.906 -84.71 29.268 -77.65 Q22.631 -70.589 22.631 -59.94 Q22.631 -53.851 24.628 -48.246 Q26.624 -42.641 32.513 -35.101 Q38.402 -27.559 49.17 -16.852 Q59.94 -6.145 77.4 9.986 L88.171 -0.34 Q97.416 -9.262 105.788 -17.415 Q114.162 -25.57 122.553 -35.735 H108.234 V-48.238 H144.711 V-12.231 H132.246 V-28.138 Q123.216 -17.528 114.421 -8.595 Q105.625 0.34 95.383 9.699 L77.4 26.514 Z"/></g><g id="Regular-L" transform="matrix(1 0 0 1 1378.56 1556)"><path d="M77.4 26.206  60.469 10.404 Q44.183 -4.431 34.346 -14.671 Q24.51 -24.91 19.189 -32.569 Q13.867 -40.229 12.094 -46.517 Q10.32 -52.806 10.32 -59.901 Q10.32 -75.381 20.801 -86.104 Q31.283 -96.827 46.601 -96.827 Q55.47 -96.827 63.371 -92.716 Q71.273 -88.604 77.4 -80.864 Q84.334 -88.926 91.993 -92.877 Q99.653 -96.827 108.199 -96.827 Q124.163 -96.827 134.724 -85.379 Q145.286 -73.93 144.48 -57.644 H132.548 Q133.676 -68.125 126.581 -76.591 Q119.486 -85.056 108.199 -85.056 Q100.459 -85.056 93.041 -80.057 Q85.624 -75.059 83.528 -66.996 H71.273 Q69.015 -74.897 61.759 -79.977 Q54.503 -85.056 46.601 -85.056 Q35.636 -85.056 28.864 -77.881 Q22.091 -70.705 22.091 -59.901 Q22.091 -53.774 24.107 -48.13 Q26.123 -42.486 32.089 -34.907 Q38.055 -27.329 48.939 -16.525 Q59.824 -5.721 77.4 10.565 L88.365 0.084 Q97.879 -9.107 106.425 -17.492 Q114.971 -25.877 123.517 -36.197 H109.005 V-47.969 H144.48 V-12.655 H132.709 V-29.102 Q123.679 -18.299 114.729 -9.269 Q105.78 -0.239 95.46 9.275 L77.4 26.206 Z"/></g><g id="Light-L" transform="matrix(1 0 0 1 1082.77 1556)"><path d="M77.4 22.981  62.33 8.915 Q46.664 -5.3 37.137 -15.353 Q27.611 -25.407 22.383 -32.972 Q17.155 -40.538 15.349 -46.703 Q13.545 -52.868 13.545 -59.653 Q13.545 -73.83 23.22 -83.716 Q32.895 -93.602 47.035 -93.602 Q55.718 -93.602 63.495 -89.273 Q71.273 -84.945 77.4 -76.77 Q84.148 -85.205 91.714 -89.404 Q99.28 -93.602 107.765 -93.602 Q122.116 -93.602 131.964 -83.457 Q141.813 -73.309 141.379 -58.574 H131.741 Q132.373 -68.87 125.217 -76.529 Q118.059 -84.187 107.765 -84.187 Q100.149 -84.187 92.856 -79.345 Q85.562 -74.501 82.907 -66.066 H71.893 Q69.015 -74.401 61.914 -79.295 Q54.812 -84.187 47.035 -84.187 Q36.318 -84.187 29.639 -77.168 Q22.96 -70.147 22.96 -59.653 Q22.96 -53.588 25.037 -47.851 Q27.114 -42.114 33.05 -34.474 Q38.985 -26.832 49.652 -16.153 Q60.32 -5.473 77.4 10.441 L88.675 -0.35 Q98.685 -9.977 107.262 -18.733 Q115.84 -27.49 124.572 -38.616 H108.199 V-48.03 H141.316 V-15.074 H131.903 V-33.01 Q122.873 -21.338 113.768 -11.905 Q104.664 -2.472 93.847 7.538 L77.4 22.981 Z"/></g><g id="Thin-L" transform="matrix(1 0 0 1 787.282 1556)"><path d="M77.4 19.756  64.19 7.427 Q49.144 -6.168 39.929 -16.035 Q30.712 -25.902 25.577 -33.376 Q20.442 -40.85 18.605 -46.89 Q16.77 -52.93 16.77 -59.405 Q16.77 -72.28 25.639 -81.328 Q34.508 -90.377 47.469 -90.377 Q55.967 -90.377 63.62 -85.832 Q71.273 -81.286 77.4 -72.677 Q83.961 -81.485 91.435 -85.93 Q98.908 -90.377 107.331 -90.377 Q120.07 -90.377 129.205 -81.533 Q138.34 -72.69 138.278 -59.505 H130.935 Q131.072 -69.613 123.853 -76.466 Q116.634 -83.32 107.331 -83.32 Q99.838 -83.32 92.669 -78.63 Q85.5 -73.943 82.287 -65.135 H72.513 Q69.015 -73.906 62.068 -78.613 Q55.123 -83.32 47.469 -83.32 Q37 -83.32 30.415 -76.454 Q23.828 -69.589 23.828 -59.405 Q23.828 -53.401 25.968 -47.572 Q28.107 -41.741 34.011 -34.04 Q39.916 -26.337 50.366 -15.78 Q60.815 -5.225 77.4 10.317 L88.986 -0.784 Q99.491 -10.844 108.099 -19.973 Q116.708 -29.102 125.627 -41.035 H107.392 V-48.093 H138.154 V-17.492 H131.096 V-36.917 Q122.066 -24.376 112.807 -14.54 Q103.547 -4.704 92.235 5.802 L77.4 19.756 Z"/></g><g id="Ultralight-L" transform="matrix(1 0 0 1 491.205 1556)"><path d="M77.4 17.821  65.306 6.534 Q50.633 -6.689 41.602 -16.444 Q32.572 -26.2 27.493 -33.617 Q22.414 -41.035 20.559 -47.001 Q18.705 -52.967 18.705 -59.256 Q18.705 -71.35 27.09 -79.896 Q35.475 -88.442 47.73 -88.442 Q56.115 -88.442 63.694 -83.766 Q71.273 -79.09 77.4 -70.221 Q83.85 -79.251 91.267 -83.847 Q98.685 -88.442 107.07 -88.442 Q118.841 -88.442 127.549 -80.38 Q136.256 -72.317 136.417 -60.062 H130.451 Q130.29 -70.06 123.034 -76.429 Q115.778 -82.799 107.07 -82.799 Q99.653 -82.799 92.558 -78.203 Q85.463 -73.607 81.915 -64.577 H72.885 Q69.015 -73.607 62.162 -78.203 Q55.309 -82.799 47.73 -82.799 Q37.41 -82.799 30.879 -76.026 Q24.349 -69.254 24.349 -59.256 Q24.349 -53.29 26.526 -47.404 Q28.703 -41.519 34.588 -33.779 Q40.474 -26.039 50.794 -15.557 Q61.114 -5.076 77.4 10.243 L89.171 -1.045 Q99.975 -11.365 108.602 -20.717 Q117.229 -30.07 126.259 -42.486 H106.909 V-48.13 H136.256 V-18.944 H130.613 V-39.261 Q121.583 -26.2 112.23 -16.122 Q102.877 -6.044 91.267 4.76 L77.4 17.821 Z"/></g><g id="Bold-M" transform="matrix(1 0 0 1 2281.8 1126)"><path d="M60 17.52  46.5 5.27 Q33.75 -6.23 25.562 -14.667 Q17.375 -23.105 12.625 -29.98 Q7.875 -36.855 6.062 -42.792 Q4.25 -48.73 4.25 -55.23 Q4.25 -69.355 13.75 -78.917 Q23.25 -88.48 37.375 -88.48 Q43.625 -88.48 49.438 -86.292 Q55.25 -84.105 60 -80.105 Q64.75 -84.105 70.562 -86.292 Q76.375 -88.48 82.625 -88.48 Q94.75 -88.48 104.625 -80.73 Q114.5 -72.98 115.875 -58.98 H98.5 Q97.125 -65.23 91.938 -68.355 Q86.75 -71.48 82.625 -71.48 Q77.5 -71.48 72.562 -68.167 Q67.625 -64.855 67 -60.355 H53.125 Q52.5 -64.855 47.562 -68.167 Q42.625 -71.48 37.375 -71.48 Q30.375 -71.48 25.875 -66.855 Q21.375 -62.23 21.375 -55.23 Q21.375 -50.855 23.062 -46.542 Q24.75 -42.23 29.062 -36.605 Q33.375 -30.98 40.875 -23.48 Q48.375 -15.98 60 -5.355 L66.125 -11.23 Q71.5 -16.23 76.625 -21.23 Q81.75 -26.23 87 -31.855 H79.25 V-48.98 H115.875 V-13.73 H98.875 V-19.605 Q92.5 -13.105 86.625 -7.23 Q80.75 -1.355 74.125 4.645 L60 17.52 Z"/></g><g id="Semibold-M" transform="matrix(1 0 0 1 1985.97 1126)"><path d="M60 16.433  46.065 3.749 Q33.75 -7.425 25.808 -15.619 Q17.864 -23.811 13.223 -30.469 Q8.581 -37.126 6.796 -42.901 Q5.011 -48.676 5.011 -55.012 Q5.011 -68.702 14.294 -77.994 Q23.576 -87.285 37.321 -87.285 Q43.462 -87.285 49.356 -84.989 Q55.25 -82.692 60 -78.529 Q64.75 -82.692 70.644 -84.989 Q76.537 -87.285 82.679 -87.285 Q94.315 -87.285 104.109 -79.697 Q113.903 -72.11 115.06 -58.274 H99.424 Q98.266 -65.339 92.78 -68.626 Q87.294 -71.915 82.679 -71.915 Q77.338 -71.915 72.317 -68.575 Q67.299 -65.235 66.674 -60.952 H53.396 Q52.771 -65.235 47.752 -68.575 Q42.734 -71.915 37.321 -71.915 Q29.94 -71.915 25.196 -67.1 Q20.451 -62.284 20.451 -55.012 Q20.451 -50.584 22.166 -46.216 Q23.88 -41.85 28.329 -36.142 Q32.778 -30.436 40.44 -22.801 Q48.104 -15.165 60 -4.322 L66.56 -10.524 Q72.37 -15.959 77.903 -21.42 Q83.435 -26.882 88.956 -32.834 H80.609 V-48.274 H115.06 V-14.654 H99.69 V-21.779 Q93.37 -15.007 87.169 -8.887 Q80.968 -2.767 74.234 3.395 L60 16.433 Z"/></g><g id="Medium-M" transform="matrix(1 0 0 1 1689.91 1126)"><path d="M60 15.618  45.739 2.608 Q33.75 -8.322 25.99 -16.332 Q18.231 -24.341 13.671 -30.836 Q9.111 -37.33 7.346 -42.982 Q5.581 -48.635 5.581 -54.85 Q5.581 -68.214 14.701 -77.301 Q23.821 -86.387 37.28 -86.387 Q43.34 -86.387 49.295 -84.01 Q55.25 -81.632 60 -77.346 Q64.75 -81.632 70.705 -84.01 Q76.66 -86.387 82.72 -86.387 Q93.989 -86.387 103.721 -78.922 Q113.454 -71.459 114.449 -57.744 H100.116 Q99.123 -65.42 93.411 -68.83 Q87.701 -72.241 82.72 -72.241 Q77.215 -72.241 72.135 -68.881 Q67.054 -65.521 66.429 -61.401 H53.6 Q52.975 -65.521 47.895 -68.881 Q42.815 -72.241 37.28 -72.241 Q29.614 -72.241 24.686 -67.282 Q19.759 -62.325 19.759 -54.85 Q19.759 -50.38 21.494 -45.971 Q23.229 -41.564 27.779 -35.796 Q32.329 -30.029 40.114 -22.291 Q47.9 -14.554 60 -3.547 L66.886 -9.994 Q73.021 -15.755 78.86 -21.562 Q84.699 -27.371 90.424 -33.567 H81.627 V-47.744 H114.449 V-15.346 H100.301 V-23.409 Q94.021 -16.434 87.576 -10.131 Q81.13 -3.827 74.315 2.458 L60 15.618 Z"/></g><g id="Regular-M" transform="matrix(1 0 0 1 1394.06 1126)"><path d="M60 15.02  45.5 1.77 Q33.75 -8.98 26.125 -16.855 Q18.5 -24.73 14 -31.105 Q9.5 -37.48 7.75 -43.042 Q6 -48.605 6 -54.73 Q6 -67.855 15 -76.792 Q24 -85.73 37.25 -85.73 Q43.25 -85.73 49.25 -83.292 Q55.25 -80.855 60 -76.48 Q64.75 -80.855 70.75 -83.292 Q76.75 -85.73 82.75 -85.73 Q93.75 -85.73 103.438 -78.355 Q113.125 -70.98 114 -57.355 H100.625 Q99.75 -65.48 93.875 -68.98 Q88 -72.48 82.75 -72.48 Q77.125 -72.48 72 -69.105 Q66.875 -65.73 66.25 -61.73 H53.75 Q53.125 -65.73 48 -69.105 Q42.875 -72.48 37.25 -72.48 Q29.375 -72.48 24.312 -67.417 Q19.25 -62.355 19.25 -54.73 Q19.25 -50.23 21 -45.792 Q22.75 -41.355 27.375 -35.542 Q32 -29.73 39.875 -21.917 Q47.75 -14.105 60 -2.98 L67.125 -9.605 Q73.5 -15.605 79.562 -21.667 Q85.625 -27.73 91.5 -34.105 H82.375 V-47.355 H114 V-15.855 H100.75 V-24.605 Q94.5 -17.48 87.875 -11.042 Q81.25 -4.605 74.375 1.77 L60 15.02 Z"/></g><g id="Light-M" transform="matrix(1 0 0 1 1098.18 1126)"><path d="M60 12.52  47.471 1.001 Q35.674 -9.845 28.096 -17.745 Q20.52 -25.644 16.164 -31.946 Q11.807 -38.249 10.154 -43.595 Q8.5 -48.941 8.5 -54.682 Q8.5 -66.701 16.802 -74.965 Q25.106 -83.23 37.25 -83.23 Q43.297 -83.23 49.25 -80.48 Q55.203 -77.73 60 -72.634 Q64.797 -77.73 70.75 -80.48 Q76.703 -83.23 82.75 -83.23 Q92.981 -83.23 101.922 -76.36 Q110.865 -69.49 111.596 -57.066 H100.721 Q99.942 -65.047 94.091 -68.764 Q88.24 -72.48 82.75 -72.48 Q77.269 -72.48 71.976 -69.105 Q66.683 -65.73 65.817 -61.056 H54.182 Q53.221 -65.777 48.072 -69.129 Q42.922 -72.48 37.25 -72.48 Q29.279 -72.48 24.265 -67.394 Q19.25 -62.307 19.25 -54.682 Q19.25 -50.134 21 -45.624 Q22.75 -41.115 27.375 -35.206 Q32 -29.297 39.875 -21.365 Q47.75 -13.431 60 -2.115 L67.654 -9.365 Q74.75 -16.086 80.861 -22.509 Q86.971 -28.932 93.279 -36.316 H82.422 V-47.066 H111.547 V-18.066 H100.797 V-28.691 Q94.211 -20.461 87.466 -13.615 Q80.721 -6.769 73.029 0.376 L60 12.52 Z"/></g><g id="Thin-M" transform="matrix(1 0 0 1 802.565 1126)"><path d="M60 10.02  49.443 0.231 Q37.596 -10.711 30.067 -18.634 Q22.539 -26.557 18.328 -32.787 Q14.115 -39.019 12.557 -44.149 Q11 -49.277 11 -54.634 Q11 -65.547 18.606 -73.139 Q26.211 -80.73 37.25 -80.73 Q43.346 -80.73 49.25 -77.667 Q55.154 -74.605 60 -68.787 Q64.846 -74.605 70.75 -77.667 Q76.654 -80.73 82.75 -80.73 Q92.211 -80.73 100.409 -74.365 Q108.606 -67.999 109.192 -56.777 H100.817 Q100.135 -64.615 94.308 -68.547 Q88.481 -72.48 82.75 -72.48 Q77.414 -72.48 71.953 -69.105 Q66.49 -65.73 65.385 -60.384 H54.615 Q53.318 -65.826 48.144 -69.152 Q42.971 -72.48 37.25 -72.48 Q29.183 -72.48 24.216 -67.37 Q19.25 -62.259 19.25 -54.634 Q19.25 -50.037 21 -45.456 Q22.75 -40.874 27.375 -34.87 Q32 -28.865 39.875 -20.811 Q47.75 -12.759 60 -1.249 L68.183 -9.124 Q76 -16.566 82.159 -23.35 Q88.317 -30.134 95.058 -38.527 H82.471 V-46.777 H109.096 V-20.277 H100.846 V-32.777 Q93.922 -23.441 87.058 -16.186 Q80.192 -8.932 71.683 -1.019 L60 10.02 Z"/></g><g id="Ultralight-M" transform="matrix(1 0 0 1 506.415 1126)"><path d="M60 8.52  50.625 -0.23 Q38.75 -11.23 31.25 -19.167 Q23.75 -27.105 19.625 -33.292 Q15.5 -39.48 14 -44.48 Q12.5 -49.48 12.5 -54.605 Q12.5 -64.855 19.688 -72.042 Q26.875 -79.23 37.25 -79.23 Q43.375 -79.23 49.25 -75.98 Q55.125 -72.73 60 -66.48 Q64.875 -72.73 70.75 -75.98 Q76.625 -79.23 82.75 -79.23 Q91.75 -79.23 99.5 -73.167 Q107.25 -67.105 107.75 -56.605 H100.875 Q100.25 -64.355 94.438 -68.417 Q88.625 -72.48 82.75 -72.48 Q77.5 -72.48 71.938 -69.105 Q66.375 -65.73 65.125 -59.98 H54.875 Q53.375 -65.855 48.188 -69.167 Q43 -72.48 37.25 -72.48 Q29.125 -72.48 24.188 -67.355 Q19.25 -62.23 19.25 -54.605 Q19.25 -49.98 21 -45.355 Q22.75 -40.73 27.375 -34.667 Q32 -28.605 39.875 -20.48 Q47.75 -12.355 60 -0.73 L68.5 -8.98 Q76.75 -16.855 82.938 -23.855 Q89.125 -30.855 96.125 -39.855 H82.5 V-46.605 H107.625 V-21.605 H100.875 V-35.23 Q93.75 -25.23 86.812 -17.73 Q79.875 -10.23 70.875 -1.855 L60 8.52 Z"/></g><g id="Bold-S" transform="matrix(1 0 0 1 2294.23 696)"><path d="M47.34 6.39  37.28 -2.684 Q27.023 -11.856 20.662 -18.513 Q14.301 -25.17 10.849 -30.496 Q7.397 -35.822 6.164 -40.26 Q4.931 -44.698 4.931 -49.432 Q4.931 -60.083 12.18 -67.48 Q19.429 -74.877 29.982 -74.877 Q34.716 -74.877 39.253 -73.25 Q43.79 -71.623 47.34 -68.664 Q50.891 -71.623 55.279 -73.25 Q59.668 -74.877 64.303 -74.877 Q74.659 -74.877 82.155 -67.875 Q89.65 -60.872 89.946 -50.024 H77.223 Q77.026 -54.56 73.377 -58.407 Q69.728 -62.253 64.303 -62.253 Q59.668 -62.253 56.413 -59.541 Q53.159 -56.829 52.567 -53.87 H42.212 Q41.422 -56.927 38.316 -59.59 Q35.209 -62.253 29.982 -62.253 Q24.459 -62.253 21.056 -58.555 Q17.654 -54.856 17.654 -49.432 Q17.654 -46.177 18.837 -42.923 Q20.021 -39.668 23.276 -35.329 Q26.53 -30.989 32.3 -25.072 Q38.069 -19.154 47.34 -10.574 L51.778 -15.012 Q56.216 -19.253 59.717 -22.754 Q63.219 -26.255 67.262 -30.2 H63.219 V-42.923 H89.847 V-17.28 H77.223 L77.322 -22.705 Q72.588 -17.773 68.396 -13.385 Q64.205 -8.996 59.175 -4.459 L47.34 6.39 Z"/></g><g id="Semibold-S" transform="matrix(1 0 0 1 1998.1 696)"><path d="M47.34 5.532  36.937 -3.884 Q27.023 -12.799 20.855 -19.264 Q14.686 -25.727 11.32 -30.882 Q7.954 -36.036 6.743 -40.346 Q5.532 -44.656 5.532 -49.26 Q5.532 -59.569 12.609 -66.752 Q19.687 -73.934 29.94 -73.934 Q34.588 -73.934 39.189 -72.221 Q43.79 -70.508 47.34 -67.42 Q50.891 -70.508 55.343 -72.221 Q59.796 -73.934 64.346 -73.934 Q74.316 -73.934 81.747 -67.06 Q89.179 -60.186 89.303 -49.467 H77.952 Q77.927 -54.646 74.042 -58.621 Q70.157 -62.596 64.346 -62.596 Q59.54 -62.596 56.22 -59.863 Q52.901 -57.129 52.31 -54.342 H42.426 Q41.637 -57.227 38.466 -59.912 Q35.295 -62.596 29.94 -62.596 Q24.116 -62.596 20.521 -58.748 Q16.925 -54.899 16.925 -49.26 Q16.925 -45.963 18.13 -42.665 Q19.334 -39.368 22.697 -34.964 Q26.059 -30.56 31.956 -24.536 Q37.855 -18.511 47.34 -9.759 L52.121 -14.455 Q56.903 -19.039 60.725 -22.904 Q64.548 -26.77 68.806 -30.972 H64.291 V-42.366 H89.204 V-18.009 H77.866 L77.965 -24.42 Q73.274 -19.274 68.825 -14.692 Q64.376 -10.11 59.261 -5.445 L47.34 5.532 Z"/></g><g id="Medium-S" transform="matrix(1 0 0 1 1701.85 696)"><path d="M47.34 4.889  36.68 -4.784 Q27.023 -13.507 20.999 -19.827 Q14.976 -26.146 11.674 -31.172 Q8.372 -36.197 7.177 -40.41 Q5.982 -44.623 5.982 -49.132 Q5.982 -59.183 12.931 -66.205 Q19.88 -73.226 29.907 -73.226 Q34.491 -73.226 39.14 -71.449 Q43.79 -69.672 47.34 -66.487 Q50.891 -69.672 55.392 -71.449 Q59.893 -73.226 64.378 -73.226 Q74.058 -73.226 81.442 -66.449 Q88.825 -59.672 88.821 -49.048 H78.499 Q78.602 -54.71 74.54 -58.782 Q70.478 -62.854 64.378 -62.854 Q59.443 -62.854 56.076 -60.104 Q52.708 -57.355 52.116 -54.696 H42.586 Q41.797 -57.453 38.578 -60.154 Q35.359 -62.854 29.907 -62.854 Q23.858 -62.854 20.119 -58.892 Q16.379 -54.931 16.379 -49.132 Q16.379 -45.803 17.6 -42.472 Q18.821 -39.142 22.263 -34.691 Q25.705 -30.239 31.699 -24.134 Q37.694 -18.029 47.34 -9.148 L52.379 -14.036 Q57.417 -18.878 61.481 -23.016 Q65.545 -27.156 69.964 -31.551 H65.094 V-41.947 H88.722 V-18.555 H78.349 L78.447 -25.706 Q73.788 -20.4 69.147 -15.674 Q64.505 -10.947 59.325 -6.185 L47.34 4.889 Z"/></g><g id="Regular-S" transform="matrix(1 0 0 1 1405.73 696)"><path d="M47.34 4.417  36.491 -5.445 Q27.023 -14.026 21.106 -20.239 Q15.188 -26.452 11.934 -31.384 Q8.679 -36.315 7.496 -40.457 Q6.312 -44.599 6.312 -49.037 Q6.312 -58.9 13.166 -65.804 Q20.021 -72.707 29.883 -72.707 Q34.42 -72.707 39.105 -70.883 Q43.79 -69.058 47.34 -65.804 Q50.891 -69.058 55.427 -70.883 Q59.964 -72.707 64.402 -72.707 Q73.87 -72.707 81.218 -66.001 Q88.565 -59.294 88.467 -48.742 H78.9 Q79.097 -54.758 74.906 -58.9 Q70.714 -63.042 64.402 -63.042 Q59.372 -63.042 55.97 -60.281 Q52.567 -57.519 51.975 -54.955 H42.705 Q41.916 -57.618 38.661 -60.33 Q35.406 -63.042 29.883 -63.042 Q23.67 -63.042 19.824 -58.999 Q15.977 -54.955 15.977 -49.037 Q15.977 -45.684 17.21 -42.331 Q18.443 -38.978 21.944 -34.49 Q25.445 -30.003 31.511 -23.839 Q37.576 -17.675 47.34 -8.7 L52.567 -13.73 Q57.794 -18.76 62.035 -23.099 Q66.276 -27.439 70.813 -31.975 H65.684 V-41.641 H88.368 V-18.957 H78.703 L78.801 -26.65 Q74.166 -21.225 69.383 -16.393 Q64.599 -11.56 59.372 -6.727 L47.34 4.417 Z"/></g><g id="Light-S" transform="matrix(1 0 0 1 1109.75 696)"><path d="M47.34 2.445  38.047 -6.052 Q28.541 -14.708 22.661 -20.941 Q16.782 -27.173 13.641 -32.047 Q10.5 -36.921 9.392 -40.893 Q8.284 -44.865 8.284 -49 Q8.284 -57.99 14.589 -64.362 Q20.894 -70.735 29.883 -70.735 Q34.458 -70.735 39.105 -68.664 Q43.752 -66.593 47.34 -62.769 Q50.928 -66.593 55.427 -68.664 Q59.927 -70.735 64.402 -70.735 Q73.264 -70.735 80.022 -64.427 Q86.782 -58.119 86.57 -48.514 H78.976 Q79.249 -54.417 75.076 -58.729 Q70.903 -63.042 64.402 -63.042 Q59.486 -63.042 55.951 -60.281 Q52.415 -57.519 51.634 -54.423 H43.046 Q41.992 -57.655 38.718 -60.349 Q35.444 -63.042 29.883 -63.042 Q23.594 -63.042 19.786 -58.98 Q15.977 -54.918 15.977 -49 Q15.977 -45.608 17.21 -42.198 Q18.443 -38.788 21.944 -34.225 Q25.445 -29.662 31.511 -23.403 Q37.576 -17.143 47.34 -8.017 L52.984 -13.54 Q58.781 -19.139 63.06 -23.763 Q67.338 -28.387 72.216 -33.72 H65.722 V-41.413 H86.433 V-20.702 H78.74 L78.839 -29.874 Q73.938 -23.577 69.06 -18.422 Q64.182 -13.267 58.31 -7.827 L47.34 2.445 Z"/></g><g id="Thin-S" transform="matrix(1 0 0 1 814.015 696)"><path d="M47.34 0.472  39.602 -6.659 Q30.058 -15.392 24.216 -21.642 Q18.375 -27.894 15.348 -32.711 Q12.32 -37.529 11.289 -41.33 Q10.257 -45.13 10.257 -48.962 Q10.257 -57.079 16.012 -62.921 Q21.766 -68.762 29.883 -68.762 Q34.496 -68.762 39.105 -66.445 Q43.714 -64.127 47.34 -59.734 Q50.966 -64.127 55.427 -66.445 Q59.888 -68.762 64.402 -68.762 Q72.656 -68.762 78.828 -62.853 Q85 -56.942 84.674 -48.286 H79.052 Q79.401 -54.075 75.247 -58.559 Q71.094 -63.042 64.402 -63.042 Q59.6 -63.042 55.932 -60.281 Q52.263 -57.519 51.293 -53.893 H43.387 Q42.068 -57.694 38.774 -60.368 Q35.482 -63.042 29.883 -63.042 Q23.518 -63.042 19.748 -58.961 Q15.977 -54.879 15.977 -48.962 Q15.977 -45.532 17.21 -42.066 Q18.443 -38.598 21.944 -33.96 Q25.445 -29.32 31.511 -22.966 Q37.576 -16.613 47.34 -7.334 L53.401 -13.35 Q59.767 -19.518 64.084 -24.427 Q68.4 -29.335 73.62 -35.465 H65.76 V-41.185 H84.499 V-22.446 H78.779 L78.877 -33.098 Q73.71 -25.929 68.738 -20.451 Q63.765 -14.974 57.248 -8.928 L47.34 0.472 Z"/></g><g id="Ultralight-S" transform="matrix(1 0 0 1 517.792 696)"><path d="M47.34 -0.711  40.535 -7.023 Q30.968 -15.801 25.149 -22.064 Q19.331 -28.326 16.372 -33.11 Q13.413 -37.893 12.427 -41.591 Q11.441 -45.29 11.441 -48.939 Q11.441 -56.533 16.865 -62.056 Q22.289 -67.579 29.883 -67.579 Q34.519 -67.579 39.105 -65.113 Q43.691 -62.648 47.34 -57.914 Q50.989 -62.648 55.427 -65.113 Q59.865 -67.579 64.402 -67.579 Q72.292 -67.579 78.111 -61.908 Q83.93 -56.237 83.535 -48.15 H79.097 Q79.492 -53.87 75.35 -58.456 Q71.207 -63.042 64.402 -63.042 Q59.668 -63.042 55.92 -60.281 Q52.173 -57.519 51.088 -53.574 H43.592 Q42.113 -57.716 38.809 -60.379 Q35.505 -63.042 29.883 -63.042 Q23.473 -63.042 19.725 -58.949 Q15.977 -54.856 15.977 -48.939 Q15.977 -45.487 17.21 -41.986 Q18.443 -38.485 21.944 -33.8 Q25.445 -29.115 31.511 -22.705 Q37.576 -16.294 47.34 -6.925 L53.652 -13.237 Q60.358 -19.746 64.698 -24.825 Q69.038 -29.904 74.462 -36.512 H65.783 V-41.049 H83.338 V-23.494 H78.801 L78.9 -35.033 Q73.574 -27.34 68.544 -21.669 Q63.515 -15.998 56.611 -9.587 L47.34 -0.711 Z"/></g></g></svg>