<svg xmlns="http://www.w3.org/2000/svg" height="40" viewBox="0 -960 960 960" width="40"><path d="M126.15-286.54q-16.55 0-28.08-11.53-11.53-11.53-11.53-28.08v-307.7q0-16.55 11.53-28.42 11.53-11.86 28.08-11.86h436.29q13.86 0 23.99 10.14 10.13 10.13 10.13 23.99 0 13.87-10.13 23.67-10.13 9.79-23.99 9.79H314.13v252.41h225.82q13.86 0 23.66 10.14 9.8 10.13 9.8 23.99 0 13.87-9.8 23.67-9.8 9.79-23.66 9.79h-413.8Zm577.06-154.23h-91.05q-12.69 0-18.37-10.96-5.69-10.96 2.35-20.75l125.19-169.26q4.9-6.28 11.38-8.04 6.48-1.76 12.04 1.82 5.56 3.57 8.56 8.25 3 4.69 2.71 12.25L737.46-519.9h90.38q12.69 0 18.37 11.3 5.69 11.29-1.68 21.08L718.67-318.26q-4.9 6.28-11.41 7.71-6.52 1.42-12-1.99-5.49-3.41-8.53-7.92-3.04-4.52-2.09-12.75l18.57-107.56Z"/></svg>