<svg xmlns="http://www.w3.org/2000/svg" height="48" viewBox="0 -960 960 960" width="48"><path d="M120-281.85q-15.96 0-27.05-11.1-11.1-11.09-11.1-27.05v-320q0-15.96 11.1-27.55 11.09-11.6 27.05-11.6h439.17q15.96 0 27.56 11.6 11.6 11.59 11.6 27.55t-11.6 27.05q-11.6 11.1-27.56 11.1H319.15v242.7h216.31q15.95 0 27.05 11.6 11.1 11.59 11.1 27.55t-11.1 27.05q-11.1 11.1-27.05 11.1H120Zm577.37-160h-94.52q-12.48 0-17.96-10.6-5.48-10.59 3-20.07l142.07-177.26q5.24-6 11.71-7.5 6.48-1.5 11.6 1.76 5.12 3.26 7.98 8.36 2.86 5.09 2.86 12.33l-20.48 115.68h93.52q12.48 0 17.96 11.1 5.48 11.09-2 20.57L710.28-310.22q-5.48 6-11.95 7-6.48 1-11.6-2.26-5.12-3.26-7.98-7.86-2.86-4.59-1.62-12.83l20.24-115.68Z"/></svg>