<svg xmlns="http://www.w3.org/2000/svg" height="48" viewBox="0 -960 960 960" width="48"><path d="M132.31-305.35q-11.48 0-19.22-7.74-7.74-7.74-7.74-19.22v-295.38q0-11.48 7.74-19.67 7.74-8.18 19.22-8.18h449.11q7.1 0 11.32 4.23 4.22 4.22 4.22 11.32 0 7.11-4.22 10.87-4.22 3.77-11.32 3.77H295.54v289.81h267.84q7.1 0 11.32 4.23 4.22 4.22 4.22 11.32 0 7.11-4.22 10.87-4.22 3.77-11.32 3.77H132.31Zm592.73-148.46h-88.46q-9.36 0-13.05-7.17-3.68-7.17.96-14.2l87.55-138.32q2.08-3.73 5.66-4.73 3.58-1 7 .53 3.42 1.54 4.86 4.52 1.44 2.99 2.09 6.56l-16.69 99.54h89.35q8.47 0 12.16 7.62 3.68 7.61-.08 13.76L727.96-347q-2.08 4.23-5.75 4.73t-6.88-.54q-3.21-1.04-4.77-4.02-1.56-2.98-1.33-7.44l15.81-99.54Z"/></svg>