<svg xmlns="http://www.w3.org/2000/svg" height="20" viewBox="0 -960 960 960" width="20"><path d="M148.19-301q-18.19 0-28.69-10.5T109-339.62v-280.76q0-17.62 10.5-28.12t28.79-10.5H579q9.3 0 16.15 6.79 6.85 6.79 6.85 16T595.15-620q-6.85 7-16.15 7H300v266h255q9.3 0 16.15 6.79 6.85 6.79 6.85 16T571.15-308q-6.85 7-16.15 7H148.19ZM714-430h-79q-11.37 0-17.19-10.5Q612-451 619-461l103.44-187.97Q726-654 730-655q4-1 7 1.83 3 2.84 5 4.84t1 7.33l-17 111h79q11.38 0 17.19 10.5Q828-509 821-499L717.56-311.03Q714-306 710-305q-4 1-7-1.83-3-2.84-5-4.84t-1-7.33l17-111Z"/></svg>