<svg xmlns="http://www.w3.org/2000/svg" height="40" viewBox="0 -960 960 960" width="40"><path d="M123.12-400.01q0-80.62 33.25-152.05t94.73-122.31l10.31 35.45q-52.16 45.97-79.01 107.77-26.85 61.8-26.85 131.17 0 43.79 10.7 85.75t34.39 79.26h559.03q22.17-37.85 33.62-79.61 11.45-41.76 11.45-85.49 0-135.44-94.51-230.2-94.51-94.76-229.41-94.76-12.06 0-23.4.99-11.34.99-22.96 2.98l-20.37-28.95q16.94-3.3 33.02-5.38 16.08-2.07 33.78-2.07 73.05 0 138.6 28.35t113.57 76.46q48.02 48.11 76.07 113.33 28.05 65.22 28.05 139.37 0 52.45-15.87 101.86-15.86 49.41-41.32 95.55h-602.9q-24.39-45.99-39.33-95.66-14.94-49.68-14.64-101.81Zm388.48 60.7q23.39-11.78 30.63-36.97 7.23-25.18-6.91-46.53-53.63-75.28-104.71-150.22-51.08-74.95-102.32-151.62 25.47 89.41 50.14 176.13 24.67 86.73 49.4 175.39 6.96 26.42 32.62 36.38 25.66 9.96 51.15-2.56Zm-26.82-53.09Z"/></svg>