<svg xmlns="http://www.w3.org/2000/svg" height="48" viewBox="0 -960 960 960" width="48"><path d="M520.87-319.26q34-14.87 43.65-49.09 9.65-34.22-11.22-61.65-65-86.57-126.43-174.2-61.44-87.63-123-175.63Q331.43-674.26 358-571.48q26.57 102.78 51.13 208.35 8 35.43 42.94 47.87 34.93 12.43 68.8-4ZM139.43-141.17q-38.69-67.57-58.26-122.13-19.56-54.57-19.56-134.27-1-86.69 32.78-163.26 33.78-76.56 91.57-134.06 57.78-57.5 134.06-90.72t161.41-33.22q86.57 0 162.64 33 76.06 33 132.63 90.29 56.56 57.28 89.34 134.34 32.79 77.07 32.79 163.63 0 76.57-21.57 133.42-21.56 56.85-57.69 122.98H139.43Z"/></svg>