<svg xmlns="http://www.w3.org/2000/svg" height="24" viewBox="0 -960 960 960" width="24"><path d="M82.13-401q0-94.95 42.57-179.2 42.56-84.26 118.71-140.95L267-628.17q-47.78 44.52-73.32 103.56-25.55 59.04-25.55 123.61 0 40.78 10.01 79.95 10.01 39.16 32.03 74.18h539.92q20.52-35.52 31.28-74.48 10.76-38.95 10.76-79.5 0-130.22-91.03-221.25T480-713.13q-10.04 0-20.33.75-10.28.75-20.32 2.51l-56.2-77.04q23.72-5.48 48.06-8.85 24.33-3.37 48.79-3.37 82.58 0 155.17 31.36 72.6 31.36 126.43 85.29 53.83 53.94 85.18 126.46Q878.13-483.5 878.13-401q0 64.39-22.06 124.05-22.07 59.67-52.53 116.08H157.22q-31.7-56.41-53.52-115.95Q81.87-336.35 82.13-401Zm432.09 73.43q32.26-14.5 42.9-47.13t-8.86-60.13q-59.17-81.91-118.51-162.93-59.34-81.02-119.08-162.63 22.92 98.15 47.74 195.17 24.83 97.02 50.85 194.54 8.74 32.85 40.73 45.1 31.99 12.25 64.23-1.99Zm-32.72-69.02Z"/></svg>