<svg xmlns="http://www.w3.org/2000/svg" height="24" viewBox="0 -960 960 960" width="24"><path d="M120.23-400q0-78.62 31.89-149.04 31.88-70.42 90.73-122.04l12.53 43.93q-46.46 45-70.8 103.76-24.35 58.75-24.35 123.39 0 42 11.01 83 11.02 41 33.04 77h551.67q21.02-37 32.54-77.5Q800-358 800-400q0-134-93-227t-227-93q-8.62 0-16.81.37t-16.81 1.86l-26.07-36.61q15.31-2.7 29.84-4.16Q464.69-760 480-760q74.7 0 140.4 28.35t114.3 76.95q48.6 48.6 76.95 114.3Q840-474.7 840-400q0 53.3-16.62 103.26-16.61 49.97-43 96.74H177.77q-25.08-46.77-41.42-96.65Q120-346.54 120.23-400Zm388.92 59.69q24.77-11.92 32.93-37.46 8.15-25.54-7.23-47.61-52.39-75.85-103.54-150.35-51.16-74.5-103.93-149.42 23.62 88.77 47.77 176.03 24.16 87.27 50.85 174.81 7.74 26 32.91 35.85 25.17 9.84 50.24-1.85Zm-25.84-54.54Z"/></svg>