<svg xmlns="http://www.w3.org/2000/svg" height="40" viewBox="0 -960 960 960" width="40"><path d="M514.05-331.85q28.72-13.87 38.26-43.43 9.54-29.57-8.31-54.44-56.8-78.92-112.59-157.18-55.79-78.25-112.31-156.82 24.03 94.41 48.23 186.71 24.21 92.29 50.16 186.16 7.77 30.62 37.48 41.77 29.72 11.16 59.08-2.77ZM164.85-180q-31.8-56.98-48.4-106.17-16.6-49.19-16.65-115.68 0-77.33 30.97-146.18 30.97-68.84 83.4-120.29 52.42-51.45 121.56-81.56Q404.87-780 481.08-780q78.77 0 147.68 29.96 68.91 29.96 120.32 81.78t81.16 120.86Q860-478.36 860-399.59q0 65.49-17.66 114.65-17.65 49.17-48.37 104.94H164.85Z"/></svg>