<svg xmlns="http://www.w3.org/2000/svg" height="40" viewBox="0 -960 960 960" width="40"><path d="M102.41-398.53q0-86.03 36.33-162.42 36.34-76.38 102.11-129l15.59 55.31q-50.67 45.97-76.76 107.39-26.09 61.42-26.09 128.74 0 43.28 11.09 84.41 11.09 41.13 32.76 78.92h564.94q20.97-36.87 32.37-78.46 11.4-41.59 11.4-84.87 0-136.12-94.87-231.21-94.87-95.1-230.46-95.1-10.7 0-20.19.69-9.5.69-19.76 2.49l-32.38-45.46q18.27-4.49 35.55-6.69 17.28-2.21 36.78-2.21 77.41 0 146.19 29.81 68.79 29.8 119.62 81.02 50.82 51.22 80.76 119.72 29.94 68.5 29.94 146.94 0 56.9-18.37 110.24-18.37 53.35-46.9 104.27H163.82q-26.81-49.85-43.98-103.69-17.17-53.85-17.43-110.84Zm412.69 67.84q25.11-12.75 32.35-39.21 7.24-26.46-9.09-48.17-58.54-79.88-111.86-160.61-53.32-80.73-106.27-164.45 29.23 94.92 55.37 188.18 26.14 93.26 50.21 188.14 6.42 28.94 34.33 39.62 27.91 10.68 54.96-3.5Zm-29.48-55.05Z"/></svg>