<svg xmlns="http://www.w3.org/2000/svg" height="48" viewBox="0 -960 960 960" width="48"><path d="M518.54-324.69q29.38-14.08 38.15-44.54t-10.15-55Q485-507.15 427.04-590.38T312.31-758.92q27.77 99.61 54.34 197.11 26.58 97.5 50.58 197.12 7.23 32.15 38.89 43.8 31.65 11.66 62.42-3.8ZM152.69-164q-33.92-60.85-50.61-111.96Q85.39-327.08 85-398.15q-1-81.54 30.77-153.7 31.77-72.15 86.19-126.76 54.43-54.62 126.77-86Q401.08-796 481.62-796q81.76 0 153.61 31.46 71.85 31.46 125.15 85.39 53.31 53.92 84.46 126.96Q876-479.15 876-397.38q0 69.07-18.89 121.61-18.88 52.54-51.19 111.77H152.69Z"/></svg>