<svg xmlns="http://www.w3.org/2000/svg" height="40" viewBox="0 -960 960 960" width="40"><path d="M79.9-399.87q0-99.94 45.99-187.28 45.99-87.35 128.16-143.73l19.28 77.07q-58.09 46.68-89.55 113.14-31.46 66.45-31.46 140.67 0 44.78 10.51 87.35 10.51 42.57 34.78 80.93H762.3q22.63-38.53 33.97-80.98 11.34-42.46 11.34-87.35 0-136.67-95.11-232.45-95.12-95.78-231.17-95.78-16.17 0-32.28 1.7-16.11 1.69-31.85 5.23l-46.08-63.51q27.12-7.41 54.52-11.7 27.4-4.3 55.77-4.3 82.38 0 155.41 31.82t126.85 85.98q53.82 54.15 85.17 127.18t31.35 155.89q0 64.2-21.49 123.98-21.5 59.77-51.21 116.71H152.2q-30.9-56.43-51.64-116.4-20.75-59.97-20.66-124.17Zm438.16 75.65q32.09-15 42.39-47.86 10.31-32.85-9.86-60.4-61.52-82.26-121.36-164.72-59.85-82.45-119.25-166.25 25.26 99.83 50.59 197.79 25.34 97.96 49.69 197.99 8.07 34.19 41.17 46.61 33.11 12.42 66.63-3.16Zm-34.56-69.02Z"/></svg>