<svg xmlns="http://www.w3.org/2000/svg" height="40" viewBox="0 -960 960 960" width="40"><path d="M509.83-343.5q20.67-11 26.92-33.75t-6.08-42.25q-51.5-72.83-100.84-146.25-49.33-73.42-97.66-147.58 25 85.5 50.58 169.58 25.58 84.08 50.42 169.42 6.5 24.16 30.08 33.33 23.58 9.17 46.58-2.5Zm-324 129.5q-26.66-46.67-39-90.42-12.33-43.75-12.66-98.41-.84-72.17 27.33-134.25 28.17-62.09 75.25-109 47.08-46.92 110.08-73.59 63-26.66 133.84-26.66 71.66 0 134.33 27.5 62.67 27.5 109.67 74.08T799-535q27.33 63.17 27.33 134.83 0 53.67-14 97.17T773-214H185.83Z"/></svg>