<svg xmlns="http://www.w3.org/2000/svg" height="20" viewBox="0 -960 960 960" width="20"><path d="M135.23-386q0-78.62 33.39-148.04 33.38-69.42 94.23-118.04l11.53 34.93q-51.46 45-79.3 105.26-27.85 60.25-27.85 127.89 0 30.82 6.51 60.91Q180.26-293 191.28-264h577.67q11.02-29 17.04-58.96Q792-352.93 792-384q0-130-90.97-221-90.96-91-222.03-91-6.57 0-12.81.21-6.24.2-12.81 1.02l-21.07-30.61q12.06-1.33 23.34-1.98Q466.94-728 479-728q71.59 0 134.55 26.86 62.96 26.86 109.54 72.9 46.57 46.05 73.74 108.29Q824-457.7 824-386q0 40.3-9.62 79.26-9.61 38.97-30 74.74H172.77q-19.08-35.77-27.92-75.15-8.85-39.39-9.62-78.85Zm370.92 31.69q20.77-10.92 26.43-32.96 5.65-22.04-7.92-41.5-47.2-68.46-90.85-136.96-43.66-68.5-91.43-137.42 24.62 80.77 45.71 159.69 21.08 78.92 43.91 158.15 6.81 24.29 28.94 33.49 22.14 9.2 45.21-2.49Zm-24.84-46.54Z"/></svg>