<svg xmlns="http://www.w3.org/2000/svg" height="48" viewBox="0 -960 960 960" width="48"><path d="M107-398.63q0-85.91 36.31-162.02 36.31-76.12 102.54-127.73l13.61 47q-53.77 46.46-81.23 109.71-27.46 63.25-27.46 132.9 0 43.92 11.13 86.12 11.13 42.19 33.61 80.88H764.6q21.42-37.44 33.02-80.26 11.61-42.82 11.61-86.74 0-137.17-95.81-233.31-95.8-96.15-232.19-96.15-12.63 0-23.63.94-11.01.93-22.98 3.21l-27.54-38.38q18.75-4.93 36.41-7.24 17.65-2.3 37.74-2.3 76.22 0 144.32 29.53 68.1 29.54 118.04 80.07 49.94 50.53 79.68 118.19Q853-476.54 853-398.77q0 55.92-17.5 108.35Q818-238 789.9-188H165.85q-26.19-48.89-42.52-101.71Q107-342.54 107-398.63Zm408.08 66.25q24.77-12.16 31.8-38.58 7.04-26.42-8.76-47.46Q480-497.31 427.35-577.15 374.69-657 322.15-739.62q28.54 94 54.43 186 25.88 92 50.12 185.72 6.27 28.74 34.06 39.09 27.78 10.35 54.32-3.57Zm-29.31-54.31Z"/></svg>