<svg xmlns="http://www.w3.org/2000/svg" height="24" viewBox="0 -960 960 960" width="24"><path d="M511.58-334.96q28.07-13.16 37.25-41.87 9.17-28.71-7.83-53.13-54.81-77.12-109-152.9-54.19-75.79-109.58-152.37 23.16 91.58 46.87 181.44 23.71 89.87 49.13 180.64 8.04 29.03 36.33 40.03t56.83-1.84ZM172.5-187.77q-31.23-55.92-48.04-104.25-16.8-48.33-16.5-114.02-.19-75.81 30.23-142.48 30.43-66.67 81.64-116.42t118.48-78.37q67.27-28.61 141.69-28.61 76.85 0 144.58 29.15 67.73 29.16 118.23 79.56 50.5 50.4 79.8 117.98 29.31 67.58 29.31 144.42 0 64.39-17.38 111.35-17.39 46.96-47.62 101.69H172.5Z"/></svg>