<svg xmlns="http://www.w3.org/2000/svg" height="24" viewBox="0 -960 960 960" width="24"><path d="M73.62-398.31q0-94 41.19-177.46Q156-659.23 228.92-716.54l23.77 93.46q-45.23 45-69.15 103.38-23.92 58.38-23.92 121.7 0 42 11 81 11.01 39 31.02 75h556.33q20.06-35.75 31.05-74.87Q800-356 800-398q0-134-93-227t-227-93q-7.51 0-14.65.27-7.14.27-14.66 1.35l-55.53-77.31q21.15-4.76 41.92-7.53Q457.85-804 480-804q83.92 0 157.74 31.93 73.81 31.92 129.11 87.22 55.3 55.3 87.22 129.11Q886-481.92 886-398q0 64.21-22.81 124.41T808.69-156h-659.3q-31.54-56.39-53.47-117.08Q74-333.77 73.62-398.31Zm443.46 77.16q30.38-15.47 39.96-46.23 9.57-30.77-10.12-57.31-61.69-84.92-120.77-169.92-59.07-85-117.46-172.47Q337-665.69 363.08-565.31q26.07 100.39 50.95 201.83 7.84 32.82 39.68 45.5 31.83 12.67 63.37-3.17Zm-32.93-65.77Z"/></svg>