<svg xmlns="http://www.w3.org/2000/svg" height="20" viewBox="0 -960 960 960" width="20"><path d="M85.72-387q0-98.21 45.86-184.24 45.85-86.02 126.94-141.35L286-612.96q-50.82 43.87-79.05 103.11-28.23 59.24-28.23 124.85 0 28.63 5.18 55.74 5.19 27.11 15.56 54.48h561.02q9.87-26.87 14.8-54.15 4.94-27.27 4.94-55.92 0-124.26-88.02-212.31-88.02-88.06-213.2-88.06-6.69 0-14.04.59-7.36.58-14.05 1.35l-60.32-84.74q21.44-4.77 43.67-7.48 22.23-2.72 44.74-2.72 81.75 0 153.56 30.69 71.82 30.68 125.26 83.69 53.43 53.01 84.42 124.03 30.98 71.03 30.98 152.81 0 54.65-16.86 105.92-16.86 51.28-42.62 99.3H145.7q-27.33-48.02-43.12-99.83-15.8-51.8-16.86-105.39Zm426.48 47.39q27.93-13.5 35.58-42.47 7.65-28.96-10.03-53.85-56.27-77.14-109.25-155.26-52.98-78.11-108.04-157.96 26.52 93.08 49.74 184.86 23.23 91.77 45.39 184.57 7.48 31.47 36.76 43.07 29.28 11.61 59.85-2.96Zm-32.7-60.37Z"/></svg>