<svg xmlns="http://www.w3.org/2000/svg" height="20" viewBox="0 -960 960 960" width="20"><path d="M152-386.5q0-73.28 30.25-138.14Q212.5-589.5 268-636l8.5 19.5q-51.71 45-79.36 104.64-27.64 59.63-27.64 127.55 0 30.77 6.02 60.29 6.01 29.52 17.68 58.02h573.61q11.15-28.5 16.92-58.07 5.77-29.57 5.77-60.23 0-128.7-90.44-219.2T479-694q-6.51 0-13.25.33l-13.25.67-11-17.5q9.75-.14 18.67-.57 8.91-.43 18.83-.43 68.11 0 128.02 25.55 59.9 25.54 104.22 69.34 44.31 43.79 70.04 102.93Q807-454.54 807-386.37q0 35.96-7.5 70.91-7.5 34.96-25.27 66.96H181.5q-16.5-32-22.5-67.75t-7-70.25Zm353.5 28q17.09-9.77 20.79-28.64 3.71-18.86-7.47-35.75Q473-488.5 432.51-554.92T348.5-690q27 77.5 48.68 152.4 21.69 74.9 42.35 151.48 5.6 21.81 25.29 30.21 19.68 8.41 40.68-2.59Zm-23-39.5Z"/></svg>