<svg xmlns="http://www.w3.org/2000/svg" height="24" viewBox="0 -960 960 960" width="24"><path d="M108.39-400.81q0-85.14 36.44-161.07Q181.27-637.81 247.38-691l15.97 61.12q-48.25 45-73.63 104.28-25.37 59.28-25.37 124.87 0 41.67 10.35 81.83 10.35 40.17 32.91 75.67H752.7q21.06-36.19 32.16-76.11 11.1-39.91 11.1-81.3 0-132.05-92.03-224.09Q611.9-716.77 480-716.77q-10.06 0-20.17.65-10.11.66-20.18 2.27l-36.61-50.26q19.15-3.66 38.29-6.14 19.14-2.48 38.67-2.48 77.18 0 145.07 29.33 67.88 29.33 118.09 79.61 50.22 50.28 79.49 118.1 29.27 67.82 29.27 144.93 0 56.99-18.34 110.2-18.35 53.21-45.65 103.29H171.42Q144-237.35 126.04-290.52t-17.65-110.29Zm403.19 65.85q28.11-13.07 37.26-41.82 9.16-28.76-7.84-53.18-55-77.31-109.46-153.62-54.45-76.32-109.73-153.34 22.92 91.96 47.06 182.29 24.13 90.32 49.58 181.36 8.04 29.11 36.31 40.13 28.28 11.02 56.82-1.82ZM482.65-396Z"/></svg>