<svg xmlns="http://www.w3.org/2000/svg" height="40" viewBox="0 -960 960 960" width="40"><path d="M521-316.33q34.33-16.34 45.17-51Q577-402 555-430.67 490-518 427.17-605.17q-62.84-87.16-124.84-176.16 26.67 106 53 209.66Q381.67-468 406.67-362q8.33 36 43.83 49.33 35.5 13.34 70.5-3.66ZM137.67-138.67q-37.67-68.66-58-124.16-20.34-55.5-20.34-135.84-.66-86 33.34-162.66 34-76.67 92-134.5 58-57.84 134.83-91.67 76.83-33.83 161.83-33.83 87.34 0 163.84 33.5t133.33 91.16Q835.33-639 868.33-561.5q33 77.5 33 164.83 0 78.34-21.83 135-21.83 56.67-58.17 123H137.67Z"/></svg>