<svg xmlns="http://www.w3.org/2000/svg" height="24" viewBox="0 -960 960 960" width="24"><path d="M514.7-324.61q33.43-15 44.58-48.72 11.15-33.71-8.85-62.71-61.39-86.53-123.15-171.61-61.76-85.09-124.76-170.87Q326.91-675 352.24-573.13q25.33 101.87 54.33 204.52 9.43 33.57 42.5 46.07 33.06 12.5 65.63-2.07Zm-370 183.83Q105.74-210 82.83-266.54q-22.92-56.55-22.48-138.89 0-85.09 34.34-160.27 34.35-75.17 91.83-131.43 57.48-56.26 133.15-88.89 75.68-32.63 159.76-32.63 86.96 0 163.14 32.91 76.17 32.91 133.21 89.96 57.05 57.04 89.96 133.21 32.91 76.18 32.91 163.14 0 80.21-22.76 135.67-22.76 55.46-60.59 122.98H144.7Z"/></svg>