<svg xmlns="http://www.w3.org/2000/svg" height="48" viewBox="0 -960 960 960" width="48"><path d="M521.52-317.96q34-15.52 44.14-49.9 10.14-34.38-11.38-62.14-65-86.24-126.76-173.22-61.76-86.98-123-174.98Q331.76-672.96 358-570.34q26.24 102.62 50.48 207.86 8 35.76 43.26 48.52 35.26 12.76 69.78-4ZM139.76-142.8q-37.72-67.24-56.96-121.48-19.23-54.24-19.23-132.96-1-85.72 32.61-161.96 33.62-76.23 91.24-133.73 57.62-57.5 133.74-90.89 76.12-33.38 160.6-33.38 86.24 0 161.98 33t131.98 90.12q56.24 57.12 88.86 133.86 32.62 76.74 32.62 162.98 0 76.24-21.24 132.6T819.24-142.8H139.76Z"/></svg>