<svg xmlns="http://www.w3.org/2000/svg" height="48" viewBox="0 -960 960 960" width="48"><path d="M516.04-331q27.57-13.77 36.44-42.92 8.87-29.16-8.37-53.58-57.53-77.61-112.98-156.08-55.44-78.46-110.09-157.26 24.38 93.69 49.21 185.42 24.83 91.73 48.9 185.73 7.43 30.65 37.27 41.9 29.85 11.25 59.62-3.21Zm-350 147.73q-31.62-56.04-46.94-103.88-15.33-47.85-15.52-113.31-.69-77.42 30.11-145.52 30.81-68.1 82.52-119.6 51.71-51.5 120.35-81.42 68.63-29.92 145.06-29.92 77.84 0 146.13 29.9 68.29 29.91 119.23 81.12 50.94 51.21 80.44 119.79 29.5 68.57 29.5 146.42 0 64.15-17.08 113.23-17.07 49.07-46.57 103.19H166.04Z"/></svg>