<svg xmlns="http://www.w3.org/2000/svg" height="20" viewBox="0 -960 960 960" width="20"><path d="M58.83-384.73q0-104.66 48.91-196.21 48.91-91.54 134.74-150.23l33.22 122.95q-48.74 43.87-75.33 102.39-26.59 58.53-26.59 123.26 0 29.13 5.66 55.81 5.65 26.67 14.65 54.54h571.89q8.85-26.61 14.04-53.79 5.2-27.18 5.2-56.69 0-127.04-89.27-216.06T479-687.78q-4.47 0-9.17.16-4.7.17-9.18.27l-74.17-104.26q22.88-5.68 45.66-8.4 22.79-2.73 46.86-2.73 87.28 0 163.95 32.86 76.68 32.85 133.79 89.43 57.1 56.58 90.27 132.53 33.16 75.96 33.16 163.35 0 59.96-20.19 117.01-20.2 57.04-49.89 110.3H128.91q-30.69-52.83-49.89-110.37-19.19-57.54-20.19-117.1Zm456.6 54.6q30.44-15.44 38.59-46.37 8.15-30.93-10.9-57.76-60.51-82.87-117.08-167.2-56.56-84.32-115.13-170.71 29.26 100.82 53.11 199.74 23.85 98.91 47.27 199.13 7.91 34.03 39.81 46.82 31.9 12.78 64.33-3.65Zm-35-65.3Z"/></svg>