<svg xmlns="http://www.w3.org/2000/svg" height="20" viewBox="0 -960 960 960" width="20"><path d="M120-384.31Q120-466 155-538t97-122l16 50q-49 45-75.5 103.89Q166-447.23 166-382q0 30.82 6.52 58.91Q179.03-295 188.07-266h582.86q10.08-27.75 15.57-56.34Q792-350.93 792-382q0-130-90.97-221-90.96-91-222.03-91h-17l-29-43q11.75-1.55 22.5-2.27 10.75-.73 23.5-.73 74.17 0 139.41 27.91 65.23 27.92 114.19 76.34 48.95 48.43 77.18 112.95Q838-458.28 838-384q0 42.65-11.5 83.83Q815-259 793-220H161q-20-38-29.5-80.5T120-384.31ZM511-345q19-12 23-32.5t-10.18-38.89Q471-489 426.5-564 382-639 336-718q33 86 56.93 170.65 23.94 84.65 43.1 171.02 5.1 25.52 28.04 35.42Q487-331 511-345Zm-27-43Z"/></svg>