<svg xmlns="http://www.w3.org/2000/svg" height="24" viewBox="0 -960 960 960" width="24"><path d="M514.22-327.57q32.26-14.5 42.9-47.13t-8.86-60.13q-58.93-81.91-117.64-162.06T311.91-758.41q23.44 97.91 47.38 194.18 23.95 96.27 49.95 193.66 8.76 32.74 40.75 44.99 31.99 12.25 64.23-1.99Zm-356.5 166.2q-36.18-64.13-56.27-116.71-20.1-52.57-19.84-128.68 0-80.65 32.61-151.96 32.61-71.3 87.44-124.51 54.84-53.2 126.64-83.93 71.81-30.73 151.46-30.73 82.17 0 154.73 31.1 72.55 31.09 126.63 85.17t85.42 126.38q31.35 72.31 31.35 154.48 0 74.13-20.46 125.55-20.45 51.43-55.15 113.84H157.72Z"/></svg>