<svg xmlns="http://www.w3.org/2000/svg" height="20" viewBox="0 -960 960 960" width="20"><path d="M508.08-348.15q25.38-12.47 32.96-38.73 7.57-26.27-8.12-48.81-49.31-71.92-98.27-143.23-48.96-71.31-100.96-141.39 21.54 85 42.5 168.89 20.96 83.88 45.81 167.27 7.85 27.53 33.69 38.19 25.85 10.65 52.39-2.19ZM162.15-212q-26.53-48.23-35.96-83.08-9.42-34.84-9.8-90.15 0-75.92 28.38-142.15 28.39-66.23 77.81-115.35 49.42-49.11 115.65-77.19T479-748q75.77 0 142.31 28.46t115.65 77.58q49.12 49.11 78.08 115.15T844-386q0 57.31-10.19 90.73-10.2 33.42-37.73 83.27H162.15Z"/></svg>