<svg xmlns="http://www.w3.org/2000/svg" height="40" viewBox="0 -960 960 960" width="40"><path d="M80.33-399.33q0-98.67 45.17-185.17 45.17-86.5 126.17-142.83l17 71q-58 47-89.84 114.33Q147-474.67 147-399.33q0 46 11.33 89.66 11.34 43.67 35.34 83h573q23-39.66 34.83-83.16 11.83-43.5 11.83-89.5 0-139.34-96.66-236.67-96.67-97.33-235.34-97.33-16.43 0-32.05 1.5-15.61 1.5-31.61 5.5l-43-58.67q26.55-6.82 53.11-10.91 26.55-4.09 53.55-4.09 82.84 0 155.69 31.62 72.86 31.63 126.75 85.84 53.9 54.21 85.06 127.21 31.17 73 31.17 156 0 63.53-21.33 123.1-21.34 59.56-51 116.23H153q-31.33-56-52.17-115.5Q80-335 80.33-399.33ZM517-324.67q33.33-15.66 44.67-49.33 11.33-33.67-9.34-62-59.66-82-120-163.17Q372-680.33 311.33-761q22.34 99.33 46.34 196.5 24 97.17 50.33 195.83 8.67 34.34 42.17 46.84t66.83-2.84Zm-34-71.66Z"/></svg>