<svg xmlns="http://www.w3.org/2000/svg" version="1.1" width="3300" height="2000"><g id="Notes"><style>
    text {
      font-family: monospace;
      text-anchor: middle;
    }
    text.emphasis {
      font-weight:bold;
    }
    text.lanchor {
      text-anchor: start;
    }
  </style><rect height="2200" id="artboard" fill="white" width="3300" x="0" y="0"/><line id="" style="fill:none;stroke:black;stroke-width:0.5;" x1="263" x2="3036" y1="292" y2="292"/><text class="lanchor emphasis" transform="matrix(1 0 0 1 263 322)">Weight/Scale Variations</text><text transform="matrix(1 0 0 1 559.711 322)">Ultralight</text><text transform="matrix(1 0 0 1 856.422 322)">Thin</text><text transform="matrix(1 0 0 1 1153.13 322)">Light</text><text transform="matrix(1 0 0 1 1449.84 322)">Regular</text><text transform="matrix(1 0 0 1 1746.56 322)">Medium</text><text transform="matrix(1 0 0 1 2043.27 322)">Semibold</text><text transform="matrix(1 0 0 1 2339.98 322)">Bold</text><text transform="matrix(1 0 0 1 2636.69 322)">Heavy</text><text transform="matrix(1 0 0 1 2933.4 322)">Black</text><text id="template-version" style="text-anchor: end;" transform="matrix(1 0 0 1 3036 1933)">Template v.1.0</text><text class="lanchor" transform="matrix(1 0 0 1 263 726)">Small</text><text class="lanchor" transform="matrix(1 0 0 1 263 1156)">Medium</text><text class="lanchor" transform="matrix(1 0 0 1 263 1586)">Large</text></g><g id="Guides"><g id="H-reference" style="fill:#27AAE1;stroke:none;" transform="matrix(1 0 0 1 339 696)"><path d="M 54.9316 0 L 57.666 0 L 30.5664 -70.459 L 28.0762 -70.459 L 0.976562 0 L 3.66211 0 L 12.9395 -24.4629 L 45.7031 -24.4629 Z M 29.1992 -67.0898 L 29.4434 -67.0898 L 44.8242 -26.709 L 13.8184 -26.709 Z"/></g><line id="Baseline-S" style="fill:none;stroke:#27AAE1;opacity:1;stroke-width:0.577;" x1="263" x2="3036" y1="696" y2="696"/><line id="Capline-S" style="fill:none;stroke:#27AAE1;opacity:1;stroke-width:0.577;" x1="263" x2="3036" y1="625.541" y2="625.541"/><g id="H-reference" style="fill:#27AAE1;stroke:none;" transform="matrix(1 0 0 1 339 1126)"><path d="M 54.9316 0 L 57.666 0 L 30.5664 -70.459 L 28.0762 -70.459 L 0.976562 0 L 3.66211 0 L 12.9395 -24.4629 L 45.7031 -24.4629 Z M 29.1992 -67.0898 L 29.4434 -67.0898 L 44.8242 -26.709 L 13.8184 -26.709 Z"/></g><line id="Baseline-M" style="fill:none;stroke:#27AAE1;opacity:1;stroke-width:0.577;" x1="263" x2="3036" y1="1126" y2="1126"/><line id="Capline-M" style="fill:none;stroke:#27AAE1;opacity:1;stroke-width:0.577;" x1="263" x2="3036" y1="1055.54" y2="1055.54"/><g id="H-reference" style="fill:#27AAE1;stroke:none;" transform="matrix(1 0 0 1 339 1556)"><path d="M 54.9316 0 L 57.666 0 L 30.5664 -70.459 L 28.0762 -70.459 L 0.976562 0 L 3.66211 0 L 12.9395 -24.4629 L 45.7031 -24.4629 Z M 29.1992 -67.0898 L 29.4434 -67.0898 L 44.8242 -26.709 L 13.8184 -26.709 Z"/></g><line id="Baseline-L" style="fill:none;stroke:#27AAE1;opacity:1;stroke-width:0.577;" x1="263" x2="3036" y1="1556" y2="1556"/><line id="Capline-L" style="fill:none;stroke:#27AAE1;opacity:1;stroke-width:0.577;" x1="263" x2="3036" y1="1485.54" y2="1485.54"/><rect height="119.336" id="left-margin" style="fill:darkred;stroke:none;opacity:0.4;" width="12.4512" x="1394.06" y="1030.79"/><rect height="119.336" id="right-margin" style="fill:darkgreen;stroke:none;opacity:0.4;" width="12.4512" x="1502.5112" y="1030.79"/><rect x="1406.5112" y="1045" width="96" height="96" fill="none" stroke="blue" stroke-dasharray="5"/><rect x="1394.06" y="1030.79" width="120.9024" height="119.336" fill="none" stroke="blue"/></g><g id="Symbols"><g id="Bold-L" transform="matrix(1 0 0 1 2266 1556)"><path d="M117.713 -103.277 Q123.774 -103.277 128.16 -98.89 Q132.548 -94.504 132.548 -88.442 V17.983 Q132.548 23.976 128.16 28.317 Q123.774 32.656 117.713 32.656 H37.087 Q31.092 32.656 26.753 28.317 Q22.414 23.976 22.414 17.983 V-88.442 Q22.414 -94.504 26.753 -98.89 Q31.092 -103.277 37.087 -103.277 H117.713 Z M117.713 -88.442 H37.087 Q37.087 -88.442 37.087 -88.442 Q37.087 -88.442 37.087 -88.442 V17.983 Q37.087 17.983 37.087 17.983 Q37.087 17.983 37.087 17.983 H117.713 Q117.713 17.983 117.713 17.983 Q117.713 17.983 117.713 17.983 V-88.442 Q117.713 -88.442 117.713 -88.442 Q117.713 -88.442 117.713 -88.442 Z M97.879 -64.9 H56.921 Q53.733 -64.9 51.698 -62.867 Q49.665 -60.833 49.665 -57.644 V-13.461 Q49.665 -10.115 51.698 -8.08 Q53.733 -6.044 56.921 -6.044 H97.879 Q101.136 -6.044 103.216 -8.08 Q105.296 -10.115 105.296 -13.461 V-57.644 Q105.296 -60.833 103.216 -62.867 Q101.136 -64.9 97.879 -64.9 Z M90.623 -50.065 V-29.425 H64.5 V-50.065 H90.623 Z M77.505 1.858 Q75.734 1.858 74.551 2.996 Q73.369 4.134 73.369 5.931 Q73.369 7.914 74.53 9.078 Q75.691 10.243 77.468 10.243 Q79.238 10.243 80.496 9.119 Q81.754 7.996 81.754 6.142 Q81.754 4.288 80.515 3.072 Q79.275 1.858 77.505 1.858 Z M77.505 -81.025 Q75.734 -81.025 74.551 -79.838 Q73.369 -78.651 73.369 -76.836 Q73.369 -74.902 74.53 -73.772 Q75.691 -72.64 77.468 -72.64 Q79.238 -72.64 80.496 -73.732 Q81.754 -74.822 81.754 -76.628 Q81.754 -78.434 80.515 -79.73 Q79.275 -81.025 77.505 -81.025 Z"/></g><g id="Semibold-L" transform="matrix(1 0 0 1 1970.27 1556)"><path d="M118.624 -102.857 Q124.064 -102.857 128.095 -98.825 Q132.127 -94.794 132.127 -89.354 V18.894 Q132.127 24.295 128.095 28.301 Q124.064 32.306 118.624 32.306 H36.176 Q30.775 32.306 26.769 28.301 Q22.764 24.295 22.764 18.894 V-89.354 Q22.764 -94.794 26.769 -98.825 Q30.775 -102.857 36.176 -102.857 H118.624 Z M118.624 -89.354 H36.176 Q36.176 -89.354 36.176 -89.354 Q36.176 -89.354 36.176 -89.354 V18.894 Q36.176 18.894 36.176 18.894 Q36.176 18.894 36.176 18.894 H118.624 Q118.624 18.894 118.624 18.894 Q118.624 18.894 118.624 18.894 V-89.354 Q118.624 -89.354 118.624 -89.354 Q118.624 -89.354 118.624 -89.354 Z M98.019 -66.442 H56.852 Q54.012 -66.442 52.119 -64.548 Q50.226 -62.655 50.226 -59.817 V-11.147 Q50.226 -8.153 52.119 -6.257 Q54.012 -4.362 56.852 -4.362 H98.019 Q100.926 -4.362 102.866 -6.257 Q104.806 -8.153 104.806 -11.147 V-59.817 Q104.806 -62.655 102.866 -64.548 Q100.926 -66.442 98.019 -66.442 Z M91.393 -52.938 V-28.583 H63.729 V-52.938 H91.393 Z M77.505 3.189 Q75.762 3.189 74.601 4.315 Q73.438 5.442 73.438 7.195 Q73.438 9.136 74.58 10.286 Q75.721 11.434 77.468 11.434 Q79.211 11.434 80.448 10.325 Q81.684 9.215 81.684 7.382 Q81.684 5.55 80.465 4.37 Q79.248 3.189 77.505 3.189 Z M77.505 -82.147 Q75.762 -82.147 74.601 -80.993 Q73.438 -79.84 73.438 -78.076 Q73.438 -76.162 74.58 -75.031 Q75.721 -73.903 77.468 -73.903 Q79.211 -73.903 80.448 -74.993 Q81.684 -76.084 81.684 -77.89 Q81.684 -79.696 80.465 -80.922 Q79.248 -82.147 77.505 -82.147 Z"/></g><g id="Medium-L" transform="matrix(1 0 0 1 1674.31 1556)"><path d="M119.307 -102.541 Q124.282 -102.541 128.047 -98.777 Q131.811 -95.012 131.811 -90.037 V19.577 Q131.811 24.536 128.047 28.29 Q124.282 32.044 119.307 32.044 H35.493 Q30.534 32.044 26.78 28.29 Q23.027 24.536 23.027 19.577 V-90.037 Q23.027 -95.012 26.78 -98.777 Q30.534 -102.541 35.493 -102.541 H119.307 Z M119.307 -90.037 H35.493 Q35.493 -90.037 35.493 -90.037 Q35.493 -90.037 35.493 -90.037 V19.577 Q35.493 19.577 35.493 19.577 Q35.493 19.577 35.493 19.577 H119.307 Q119.307 19.577 119.307 19.577 Q119.307 19.577 119.307 19.577 V-90.037 Q119.307 -90.037 119.307 -90.037 Q119.307 -90.037 119.307 -90.037 Z M98.124 -67.599 H56.799 Q54.224 -67.599 52.435 -65.811 Q50.647 -64.023 50.647 -61.448 V-9.412 Q50.647 -6.681 52.435 -4.889 Q54.224 -3.099 56.799 -3.099 H98.124 Q100.768 -3.099 102.603 -4.889 Q104.437 -6.681 104.437 -9.412 V-61.448 Q104.437 -64.023 102.603 -65.811 Q100.768 -67.599 98.124 -67.599 Z M91.972 -55.096 V-27.953 H63.15 V-55.096 H91.972 Z M77.505 4.189 Q75.783 4.189 74.638 5.305 Q73.491 6.422 73.491 8.145 Q73.491 10.054 74.618 11.191 Q75.744 12.327 77.468 12.327 Q79.19 12.327 80.411 11.229 Q81.631 10.131 81.631 8.314 Q81.631 6.497 80.428 5.342 Q79.227 4.189 77.505 4.189 Z M77.505 -82.987 Q75.783 -82.987 74.638 -81.859 Q73.491 -80.732 73.491 -79.005 Q73.491 -77.107 74.618 -75.978 Q75.744 -74.849 77.468 -74.849 Q79.19 -74.849 80.411 -75.939 Q81.631 -77.031 81.631 -78.837 Q81.631 -80.643 80.428 -81.815 Q79.227 -82.987 77.505 -82.987 Z"/></g><g id="Regular-L" transform="matrix(1 0 0 1 1378.56 1556)"><path d="M119.809 -102.31 Q124.44 -102.31 128.01 -98.74 Q131.58 -95.17 131.58 -90.539 V20.079 Q131.58 24.71 128.01 28.28 Q124.44 31.85 119.809 31.85 H34.991 Q30.359 31.85 26.79 28.28 Q23.22 24.71 23.22 20.079 V-90.539 Q23.22 -95.17 26.79 -98.74 Q30.359 -102.31 34.991 -102.31 H119.809 Z M119.809 -90.539 H34.991 Q34.991 -90.539 34.991 -90.539 Q34.991 -90.539 34.991 -90.539 V20.079 Q34.991 20.079 34.991 20.079 Q34.991 20.079 34.991 20.079 H119.809 Q119.809 20.079 119.809 20.079 Q119.809 20.079 119.809 20.079 V-90.539 Q119.809 -90.539 119.809 -90.539 Q119.809 -90.539 119.809 -90.539 Z M98.201 -68.447 H56.76 Q54.378 -68.447 52.666 -66.737 Q50.955 -65.026 50.955 -62.642 V-8.14 Q50.955 -5.6 52.666 -3.888 Q54.378 -2.174 56.76 -2.174 H98.201 Q100.652 -2.174 102.41 -3.888 Q104.168 -5.6 104.168 -8.14 V-62.642 Q104.168 -65.026 102.41 -66.737 Q100.652 -68.447 98.201 -68.447 Z M92.396 -56.676 V-27.49 H62.726 V-56.676 H92.396 Z M77.505 4.921 Q75.799 4.921 74.664 6.032 Q73.53 7.142 73.53 8.84 Q73.53 10.726 74.646 11.855 Q75.762 12.984 77.468 12.984 Q79.174 12.984 80.383 11.892 Q81.593 10.802 81.593 8.996 Q81.593 7.19 80.402 6.055 Q79.211 4.921 77.505 4.921 Z M77.505 -83.605 Q75.799 -83.605 74.664 -82.494 Q73.53 -81.385 73.53 -79.687 Q73.53 -77.8 74.646 -76.671 Q75.762 -75.542 77.468 -75.542 Q79.174 -75.542 80.383 -76.634 Q81.593 -77.724 81.593 -79.53 Q81.593 -81.336 80.402 -82.471 Q79.211 -83.605 77.505 -83.605 Z"/></g><g id="Light-L" transform="matrix(1 0 0 1 1082.77 1556)"><path d="M117.018 -99.085 Q121.573 -99.085 124.995 -95.663 Q128.416 -92.242 128.416 -87.686 V17.226 Q128.416 21.782 124.995 25.203 Q121.573 28.625 117.018 28.625 H37.844 Q33.288 28.625 29.867 25.203 Q26.445 21.782 26.445 17.226 V-87.686 Q26.445 -92.242 29.867 -95.663 Q33.288 -99.085 37.844 -99.085 H117.018 Z M116.956 -89.67 H37.782 Q36.913 -89.67 36.355 -89.112 Q35.797 -88.554 35.797 -87.686 V17.226 Q35.797 18.094 36.355 18.652 Q36.913 19.21 37.782 19.21 H116.956 Q117.824 19.21 118.414 18.652 Q119.002 18.094 119.002 17.226 L118.94 -87.686 Q118.94 -88.554 118.382 -89.112 Q117.824 -89.67 116.956 -89.67 Z M96.403 -66.401 H58.693 Q56.363 -66.401 54.714 -64.713 Q53.064 -63.025 53.064 -60.782 V-10.062 Q53.064 -7.601 54.722 -5.942 Q56.379 -4.283 58.682 -4.283 H96.392 Q98.73 -4.283 100.456 -5.942 Q102.183 -7.601 102.183 -10.062 V-60.782 Q102.183 -63.025 100.449 -64.713 Q98.714 -66.401 96.403 -66.401 Z M92.769 -56.986 V-26.745 H62.478 V-56.986 H92.769 Z M77.455 3.246 Q75.738 3.246 74.509 4.439 Q73.282 5.631 73.282 7.34 Q73.282 9.362 74.48 10.521 Q75.676 11.681 77.394 11.681 Q79.235 11.681 80.477 10.57 Q81.717 9.46 81.717 7.519 Q81.717 5.702 80.506 4.475 Q79.296 3.246 77.455 3.246 Z M77.455 -82.302 Q75.738 -82.302 74.509 -81.143 Q73.282 -79.983 73.282 -78.21 Q73.282 -76.187 74.48 -74.996 Q75.676 -73.806 77.394 -73.806 Q79.235 -73.806 80.477 -74.959 Q81.717 -76.112 81.717 -78.023 Q81.717 -79.933 80.506 -81.117 Q79.296 -82.302 77.455 -82.302 Z"/></g><g id="Thin-L" transform="matrix(1 0 0 1 787.282 1556)"><path d="M114.226 -95.86 Q118.707 -95.86 121.981 -92.587 Q125.254 -89.313 125.254 -84.834 V14.374 Q125.254 18.853 121.981 22.127 Q118.707 25.4 114.226 25.4 H40.696 Q36.217 25.4 32.943 22.127 Q29.67 18.853 29.67 14.374 V-84.834 Q29.67 -89.313 32.943 -92.587 Q36.217 -95.86 40.696 -95.86 H114.226 Z M114.104 -88.802 H40.574 Q38.837 -88.802 37.72 -87.686 Q36.604 -86.569 36.604 -84.834 V14.374 Q36.604 16.109 37.72 17.226 Q38.837 18.342 40.574 18.342 H114.104 Q115.839 18.342 117.018 17.226 Q118.196 16.109 118.196 14.374 L118.072 -84.834 Q118.072 -86.569 116.956 -87.686 Q115.839 -88.802 114.104 -88.802 Z M94.604 -64.355 H60.625 Q58.35 -64.355 56.762 -62.689 Q55.172 -61.025 55.172 -58.921 V-11.986 Q55.172 -9.604 56.776 -7.998 Q58.381 -6.39 60.606 -6.39 H94.584 Q96.806 -6.39 98.503 -7.998 Q100.198 -9.604 100.198 -11.986 V-58.921 Q100.198 -61.025 98.487 -62.689 Q96.776 -64.355 94.604 -64.355 Z M93.141 -57.297 V-26.002 H62.23 V-57.297 H93.141 Z M77.405 1.572 Q75.675 1.572 74.354 2.846 Q73.033 4.118 73.033 5.84 Q73.033 7.998 74.312 9.188 Q75.591 10.38 77.321 10.38 Q79.298 10.38 80.569 9.249 Q81.841 8.119 81.841 6.042 Q81.841 4.213 80.61 2.893 Q79.382 1.572 77.405 1.572 Z M77.405 -81.001 Q75.675 -81.001 74.354 -79.791 Q73.033 -78.582 73.033 -76.733 Q73.033 -74.575 74.312 -73.322 Q75.591 -72.069 77.321 -72.069 Q79.298 -72.069 80.569 -73.285 Q81.841 -74.501 81.841 -76.515 Q81.841 -78.529 80.61 -79.766 Q79.382 -81.001 77.405 -81.001 Z"/></g><g id="Ultralight-L" transform="matrix(1 0 0 1 491.205 1556)"><path d="M112.553 -93.925 Q116.987 -93.925 120.172 -90.74 Q123.356 -87.556 123.356 -83.121 V12.661 Q123.356 17.096 120.172 20.28 Q116.987 23.465 112.553 23.465 H42.409 Q37.974 23.465 34.79 20.28 Q31.605 17.096 31.605 12.661 V-83.121 Q31.605 -87.556 34.79 -90.74 Q37.974 -93.925 42.409 -93.925 H112.553 Z M112.391 -88.281 H42.248 Q39.99 -88.281 38.539 -86.83 Q37.087 -85.379 37.087 -83.121 V12.661 Q37.087 14.919 38.539 16.37 Q39.99 17.821 42.248 17.821 H112.391 Q114.649 17.821 116.181 16.37 Q117.713 14.919 117.713 12.661 L117.551 -83.121 Q117.551 -85.379 116.1 -86.83 Q114.649 -88.281 112.391 -88.281 Z M93.525 -63.126 H61.785 Q59.542 -63.126 57.99 -61.475 Q56.438 -59.825 56.438 -57.805 V-13.139 Q56.438 -10.804 58.01 -9.23 Q59.582 -7.656 61.759 -7.656 H93.499 Q95.654 -7.656 97.331 -9.23 Q99.008 -10.804 99.008 -13.139 V-57.805 Q99.008 -59.825 97.31 -61.475 Q95.613 -63.126 93.525 -63.126 Z M93.364 -57.482 V-25.555 H62.081 V-57.482 H93.364 Z M77.374 0.568 Q75.638 0.568 74.26 1.89 Q72.885 3.212 72.885 4.941 Q72.885 7.179 74.212 8.388 Q75.541 9.598 77.276 9.598 Q79.335 9.598 80.625 8.456 Q81.915 7.314 81.915 5.155 Q81.915 3.32 80.673 1.943 Q79.432 0.568 77.374 0.568 Z M77.374 -80.219 Q75.638 -80.219 74.26 -78.98 Q72.885 -77.74 72.885 -75.846 Q72.885 -73.607 74.212 -72.317 Q75.541 -71.027 77.276 -71.027 Q79.335 -71.027 80.625 -72.28 Q81.915 -73.532 81.915 -75.61 Q81.915 -77.687 80.673 -78.953 Q79.432 -80.219 77.374 -80.219 Z"/></g><g id="Bold-M" transform="matrix(1 0 0 1 2281.8 1126)"><path d="M88.75 -90.98 Q95.891 -90.98 100.82 -86.05 Q105.75 -81.121 105.75 -73.98 V3.52 Q105.75 10.66 100.82 15.59 Q95.891 20.52 88.75 20.52 H31.25 Q24.11 20.52 19.18 15.59 Q14.25 10.66 14.25 3.52 V-73.98 Q14.25 -81.121 19.18 -86.05 Q24.11 -90.98 31.25 -90.98 H88.75 Z M88.75 -73.98 H31.25 Q31.25 -73.98 31.25 -73.98 Q31.25 -73.98 31.25 -73.98 V3.52 Q31.25 3.52 31.25 3.52 Q31.25 3.52 31.25 3.52 H88.75 Q88.75 3.52 88.75 3.52 Q88.75 3.52 88.75 3.52 V-73.98 Q88.75 -73.98 88.75 -73.98 Q88.75 -73.98 88.75 -73.98 Z M75.875 -59.855 H44 Q40.375 -59.855 37.938 -57.417 Q35.5 -54.98 35.5 -51.355 V-19.355 Q35.5 -15.73 37.938 -13.292 Q40.375 -10.855 44 -10.855 H75.875 Q79.5 -10.855 81.938 -13.292 Q84.375 -15.73 84.375 -19.355 V-51.355 Q84.375 -54.98 81.938 -57.417 Q79.5 -59.855 75.875 -59.855 Z M67.375 -42.855 V-33.48 H52.5 V-42.855 H67.375 Z M59.966 -8.98 Q57.7 -8.98 56.163 -7.476 Q54.625 -5.971 54.625 -3.629 Q54.625 -1.285 56.14 0.305 Q57.654 1.895 59.971 1.895 Q62.175 1.895 63.775 0.363 Q65.375 -1.169 65.375 -3.512 Q65.375 -5.855 63.804 -7.417 Q62.234 -8.98 59.966 -8.98 Z M59.966 -72.355 Q57.7 -72.355 56.163 -70.814 Q54.625 -69.271 54.625 -66.914 Q54.625 -64.609 56.14 -63.107 Q57.654 -61.605 59.971 -61.605 Q62.175 -61.605 63.775 -63.087 Q65.375 -64.57 65.375 -66.837 Q65.375 -69.105 63.804 -70.73 Q62.234 -72.355 59.966 -72.355 Z"/></g><g id="Semibold-M" transform="matrix(1 0 0 1 1985.97 1126)"><path d="M89.62 -90.219 Q96.032 -90.219 100.51 -85.74 Q104.989 -81.262 104.989 -74.85 V4.39 Q104.989 10.803 100.51 15.28 Q96.032 19.759 89.62 19.759 H30.38 Q23.968 19.759 19.49 15.28 Q15.011 10.803 15.011 4.39 V-74.85 Q15.011 -81.262 19.49 -85.74 Q23.968 -90.219 30.38 -90.219 H89.62 Z M89.62 -74.85 H30.38 Q30.38 -74.85 30.38 -74.85 Q30.38 -74.85 30.38 -74.85 V4.39 Q30.38 4.39 30.38 4.39 Q30.38 4.39 30.38 4.39 H89.62 Q89.62 4.39 89.62 4.39 Q89.62 4.39 89.62 4.39 V-74.85 Q89.62 -74.85 89.62 -74.85 Q89.62 -74.85 89.62 -74.85 Z M75.929 -61.214 H44 Q40.755 -61.214 38.535 -58.994 Q36.315 -56.774 36.315 -53.529 V-17.072 Q36.315 -13.827 38.535 -11.607 Q40.755 -9.387 44 -9.387 H75.929 Q79.174 -9.387 81.394 -11.607 Q83.614 -13.827 83.614 -17.072 V-53.529 Q83.614 -56.774 81.394 -58.994 Q79.174 -61.214 75.929 -61.214 Z M68.245 -45.844 V-32.501 H51.685 V-45.844 H68.245 Z M59.994 -7.676 Q57.776 -7.676 56.282 -6.212 Q54.788 -4.75 54.788 -2.49 Q54.788 -0.229 56.256 1.295 Q57.725 2.819 59.971 2.819 Q62.154 2.819 63.682 1.34 Q65.213 -0.137 65.213 -2.399 Q65.213 -4.66 63.711 -6.167 Q62.211 -7.676 59.994 -7.676 Z M59.994 -73.279 Q57.776 -73.279 56.282 -71.795 Q54.788 -70.311 54.788 -68.041 Q54.788 -65.802 56.256 -64.329 Q57.725 -62.855 59.971 -62.855 Q62.154 -62.855 63.682 -64.305 Q65.213 -65.755 65.213 -67.974 Q65.213 -70.192 63.711 -71.735 Q62.211 -73.279 59.994 -73.279 Z"/></g><g id="Medium-M" transform="matrix(1 0 0 1 1689.91 1126)"><path d="M90.271 -89.649 Q96.138 -89.649 100.279 -85.509 Q104.419 -81.367 104.419 -75.501 V5.041 Q104.419 10.908 100.279 15.049 Q96.138 19.189 90.271 19.189 H29.729 Q23.863 19.189 19.721 15.049 Q15.581 10.908 15.581 5.041 V-75.501 Q15.581 -81.367 19.721 -85.509 Q23.863 -89.649 29.729 -89.649 H90.271 Z M90.271 -75.501 H29.729 Q29.729 -75.501 29.729 -75.501 Q29.729 -75.501 29.729 -75.501 V5.041 Q29.729 5.041 29.729 5.041 Q29.729 5.041 29.729 5.041 H90.271 Q90.271 5.041 90.271 5.041 Q90.271 5.041 90.271 5.041 V-75.501 Q90.271 -75.501 90.271 -75.501 Q90.271 -75.501 90.271 -75.501 Z M75.97 -62.232 H44 Q41.041 -62.232 38.984 -60.176 Q36.926 -58.119 36.926 -55.159 V-15.36 Q36.926 -12.401 38.984 -10.344 Q41.041 -8.287 44 -8.287 H75.97 Q78.929 -8.287 80.986 -10.344 Q83.044 -12.401 83.044 -15.36 V-55.159 Q83.044 -58.119 80.986 -60.176 Q78.929 -62.232 75.97 -62.232 Z M68.896 -48.086 V-31.767 H51.074 V-48.086 H68.896 Z M60.014 -6.697 Q57.834 -6.697 56.371 -5.266 Q54.91 -3.835 54.91 -1.635 Q54.91 0.564 56.344 2.038 Q57.778 3.511 59.971 3.511 Q62.138 3.511 63.614 2.074 Q65.09 0.636 65.09 -1.564 Q65.09 -3.762 63.642 -5.23 Q62.195 -6.697 60.014 -6.697 Z M60.014 -73.971 Q57.834 -73.971 56.371 -72.531 Q54.91 -71.091 54.91 -68.889 Q54.91 -66.699 56.344 -65.245 Q57.778 -63.792 59.971 -63.792 Q62.138 -63.792 63.614 -65.219 Q65.09 -66.645 65.09 -68.826 Q65.09 -71.007 63.642 -72.49 Q62.195 -73.971 60.014 -73.971 Z"/></g><g id="Regular-M" transform="matrix(1 0 0 1 1394.06 1126)"><path d="M90.75 -89.23 Q96.215 -89.23 100.108 -85.337 Q104 -81.445 104 -75.98 V5.52 Q104 10.985 100.108 14.878 Q96.215 18.77 90.75 18.77 H29.25 Q23.784 18.77 19.892 14.878 Q16 10.985 16 5.52 V-75.98 Q16 -81.445 19.892 -85.337 Q23.784 -89.23 29.25 -89.23 H90.75 Z M90.75 -75.98 H29.25 Q29.25 -75.98 29.25 -75.98 Q29.25 -75.98 29.25 -75.98 V5.52 Q29.25 5.52 29.25 5.52 Q29.25 5.52 29.25 5.52 H90.75 Q90.75 5.52 90.75 5.52 Q90.75 5.52 90.75 5.52 V-75.98 Q90.75 -75.98 90.75 -75.98 Q90.75 -75.98 90.75 -75.98 Z M76 -62.98 H44 Q41.25 -62.98 39.312 -61.042 Q37.375 -59.105 37.375 -56.355 V-14.105 Q37.375 -11.355 39.312 -9.417 Q41.25 -7.48 44 -7.48 H76 Q78.75 -7.48 80.688 -9.417 Q82.625 -11.355 82.625 -14.105 V-56.355 Q82.625 -59.105 80.688 -61.042 Q78.75 -62.98 76 -62.98 Z M69.375 -49.73 V-31.23 H50.625 V-49.73 H69.375 Z M60.029 -5.98 Q57.875 -5.98 56.438 -4.571 Q55 -3.164 55 -1.009 Q55 1.145 56.409 2.583 Q57.816 4.02 59.971 4.02 Q62.125 4.02 63.562 2.611 Q65 1.204 65 -0.951 Q65 -3.105 63.591 -4.542 Q62.184 -5.98 60.029 -5.98 Z M60.029 -74.48 Q57.875 -74.48 56.438 -73.071 Q55 -71.664 55 -69.509 Q55 -67.355 56.409 -65.917 Q57.816 -64.48 59.971 -64.48 Q62.125 -64.48 63.562 -65.889 Q65 -67.296 65 -69.451 Q65 -71.605 63.591 -73.042 Q62.184 -74.48 60.029 -74.48 Z"/></g><g id="Light-M" transform="matrix(1 0 0 1 1098.18 1126)"><path d="M89.26 -86.73 Q94.389 -86.73 97.969 -83.15 Q101.547 -79.57 101.547 -74.441 V3.981 Q101.547 9.11 97.969 12.69 Q94.389 16.27 89.26 16.27 H30.789 Q25.66 16.27 22.08 12.69 Q18.5 9.11 18.5 3.981 V-74.441 Q18.5 -79.57 22.08 -83.15 Q25.66 -86.73 30.789 -86.73 H89.26 Z M89.211 -75.98 H30.74 Q30.067 -75.98 29.635 -75.547 Q29.203 -75.115 29.203 -74.441 V3.981 Q29.203 4.655 29.635 5.088 Q30.067 5.52 30.74 5.52 H89.211 Q89.885 5.52 90.341 5.088 Q90.797 4.655 90.797 3.981 L90.75 -74.441 Q90.75 -75.115 90.317 -75.547 Q89.885 -75.98 89.211 -75.98 Z M74.75 -61.201 H45.354 Q42.789 -61.201 40.995 -59.401 Q39.203 -57.602 39.203 -55.056 V-15.451 Q39.203 -12.905 41.001 -11.106 Q42.8 -9.307 45.346 -9.307 H74.743 Q77.308 -9.307 79.101 -11.106 Q80.894 -12.905 80.894 -15.451 V-55.056 Q80.894 -57.602 79.095 -59.401 Q77.295 -61.201 74.75 -61.201 Z M70.144 -50.451 V-30.269 H49.951 V-50.451 H70.144 Z M60.038 -6.701 Q57.971 -6.701 56.581 -5.35 Q55.193 -3.999 55.193 -1.931 Q55.193 0.135 56.544 1.525 Q57.895 2.914 59.962 2.914 Q62.029 2.914 63.419 1.563 Q64.808 0.211 64.808 -1.855 Q64.808 -3.922 63.456 -5.311 Q62.105 -6.701 60.038 -6.701 Z M60.038 -73.422 Q57.971 -73.422 56.581 -72.071 Q55.193 -70.72 55.193 -68.652 Q55.193 -66.586 56.544 -65.172 Q57.895 -63.759 59.962 -63.759 Q62.029 -63.759 63.419 -65.144 Q64.808 -66.527 64.808 -68.595 Q64.808 -70.661 63.456 -72.041 Q62.105 -73.422 60.038 -73.422 Z"/></g><g id="Thin-M" transform="matrix(1 0 0 1 802.565 1126)"><path d="M87.769 -84.23 Q92.561 -84.23 95.829 -80.962 Q99.096 -77.696 99.096 -72.902 V2.443 Q99.096 7.236 95.829 10.503 Q92.561 13.77 87.769 13.77 H32.328 Q27.534 13.77 24.267 10.503 Q21 7.236 21 2.443 V-72.902 Q21 -77.696 24.267 -80.962 Q27.534 -84.23 32.328 -84.23 H87.769 Z M87.672 -75.98 H32.231 Q30.885 -75.98 30.019 -75.115 Q29.154 -74.249 29.154 -72.902 V2.443 Q29.154 3.789 30.019 4.655 Q30.885 5.52 32.231 5.52 H87.672 Q89.019 5.52 89.933 4.655 Q90.846 3.789 90.846 2.443 L90.75 -72.902 Q90.75 -74.249 89.885 -75.115 Q89.019 -75.98 87.672 -75.98 Z M73.5 -59.422 H46.708 Q44.328 -59.422 42.678 -57.761 Q41.029 -56.1 41.029 -53.759 V-16.797 Q41.029 -14.456 42.69 -12.795 Q44.351 -11.134 46.693 -11.134 H73.484 Q75.865 -11.134 77.515 -12.795 Q79.164 -14.456 79.164 -16.797 V-53.759 Q79.164 -56.1 77.502 -57.761 Q75.841 -59.422 73.5 -59.422 Z M70.914 -51.172 V-29.307 H49.279 V-51.172 H70.914 Z M60.047 -7.422 Q58.068 -7.422 56.726 -6.127 Q55.385 -4.834 55.385 -2.854 Q55.385 -0.874 56.679 0.468 Q57.974 1.809 59.953 1.809 Q61.932 1.809 63.274 0.514 Q64.615 -0.78 64.615 -2.76 Q64.615 -4.74 63.321 -6.081 Q62.026 -7.422 60.047 -7.422 Z M60.047 -72.365 Q58.068 -72.365 56.726 -71.07 Q55.385 -69.776 55.385 -67.796 Q55.385 -65.816 56.679 -64.427 Q57.974 -63.037 59.953 -63.037 Q61.932 -63.037 63.274 -64.397 Q64.615 -65.759 64.615 -67.737 Q64.615 -69.717 63.321 -71.041 Q62.026 -72.365 60.047 -72.365 Z"/></g><g id="Ultralight-M" transform="matrix(1 0 0 1 506.415 1126)"><path d="M86.875 -82.73 Q91.465 -82.73 94.545 -79.65 Q97.625 -76.57 97.625 -71.98 V1.52 Q97.625 6.111 94.545 9.19 Q91.465 12.27 86.875 12.27 H33.25 Q28.659 12.27 25.58 9.19 Q22.5 6.111 22.5 1.52 V-71.98 Q22.5 -76.57 25.58 -79.65 Q28.659 -82.73 33.25 -82.73 H86.875 Z M86.75 -75.98 H33.125 Q31.375 -75.98 30.25 -74.855 Q29.125 -73.73 29.125 -71.98 V1.52 Q29.125 3.27 30.25 4.395 Q31.375 5.52 33.125 5.52 H86.75 Q88.5 5.52 89.688 4.395 Q90.875 3.27 90.875 1.52 L90.75 -71.98 Q90.75 -73.73 89.625 -74.855 Q88.5 -75.98 86.75 -75.98 Z M72.75 -58.355 H47.52 Q45.25 -58.355 43.688 -56.777 Q42.125 -55.199 42.125 -52.98 V-17.605 Q42.125 -15.386 43.704 -13.809 Q45.281 -12.23 47.5 -12.23 H72.73 Q75 -12.23 76.562 -13.809 Q78.125 -15.386 78.125 -17.605 V-52.98 Q78.125 -55.199 76.547 -56.777 Q74.969 -58.355 72.75 -58.355 Z M71.375 -51.605 V-28.73 H48.875 V-51.605 H71.375 Z M60.053 -7.855 Q58.125 -7.855 56.812 -6.595 Q55.5 -5.335 55.5 -3.407 Q55.5 -1.48 56.76 -0.167 Q58.02 1.145 59.947 1.145 Q61.875 1.145 63.188 -0.115 Q64.5 -1.375 64.5 -3.302 Q64.5 -5.23 63.24 -6.542 Q61.98 -7.855 60.053 -7.855 Z M60.053 -71.73 Q58.125 -71.73 56.812 -70.47 Q55.5 -69.21 55.5 -67.282 Q55.5 -65.355 56.76 -63.98 Q58.02 -62.605 59.947 -62.605 Q61.875 -62.605 63.188 -63.951 Q64.5 -65.296 64.5 -67.224 Q64.5 -69.151 63.24 -70.441 Q61.98 -71.73 60.053 -71.73 Z"/></g><g id="Bold-S" transform="matrix(1 0 0 1 2294.23 696)"><path d="M67.657 -77.639 Q73.291 -77.639 76.785 -74.143 Q80.281 -70.649 80.281 -65.015 V-5.445 Q80.281 0.188 76.785 3.683 Q73.291 7.179 67.657 7.179 H27.023 Q21.39 7.179 17.895 3.683 Q14.399 0.188 14.399 -5.445 V-65.015 Q14.399 -70.649 17.895 -74.143 Q21.39 -77.639 27.023 -77.639 H67.657 Z M67.657 -65.015 H27.023 Q27.023 -65.015 27.023 -65.015 Q27.023 -65.015 27.023 -65.015 V-5.445 Q27.023 -5.445 27.023 -5.445 Q27.023 -5.445 27.023 -5.445 H67.657 Q67.657 -5.445 67.657 -5.445 Q67.657 -5.445 67.657 -5.445 V-65.015 Q67.657 -65.015 67.657 -65.015 Q67.657 -65.015 67.657 -65.015 Z M58.686 -53.87 H35.927 Q33.237 -53.87 31.412 -52.06 Q29.588 -50.251 29.588 -47.558 V-23.099 Q29.588 -20.407 31.396 -18.597 Q33.205 -16.787 35.896 -16.787 H58.654 Q61.345 -16.787 63.169 -18.597 Q64.994 -20.407 64.994 -23.099 V-47.558 Q64.994 -50.251 63.185 -52.06 Q61.376 -53.87 58.686 -53.87 Z M52.37 -41.246 V-33.06 H42.212 V-41.246 H52.37 Z M47.313 -14.716 Q45.782 -14.716 44.736 -13.697 Q43.691 -12.677 43.691 -11.086 Q43.691 -9.493 44.719 -8.406 Q45.745 -7.319 47.317 -7.319 Q48.8 -7.319 49.894 -8.361 Q50.989 -9.401 50.989 -10.994 Q50.989 -12.586 49.917 -13.651 Q48.846 -14.716 47.313 -14.716 Z M47.313 -63.141 Q45.782 -63.141 44.736 -62.092 Q43.691 -61.043 43.691 -59.439 Q43.691 -57.877 44.719 -56.86 Q45.745 -55.843 47.317 -55.843 Q48.8 -55.843 49.894 -56.845 Q50.989 -57.847 50.989 -59.379 Q50.989 -60.912 49.917 -62.026 Q48.846 -63.141 47.313 -63.141 Z"/></g><g id="Semibold-S" transform="matrix(1 0 0 1 1998.1 696)"><path d="M68.343 -77.038 Q73.403 -77.038 76.541 -73.899 Q79.68 -70.761 79.68 -65.701 V-4.759 Q79.68 0.301 76.541 3.439 Q73.403 6.578 68.343 6.578 H26.337 Q21.277 6.578 18.139 3.439 Q15 0.301 15 -4.759 V-65.701 Q15 -70.761 18.139 -73.899 Q21.277 -77.038 26.337 -77.038 H68.343 Z M68.343 -65.701 H26.337 Q26.337 -65.701 26.337 -65.701 Q26.337 -65.701 26.337 -65.701 V-4.759 Q26.337 -4.759 26.337 -4.759 Q26.337 -4.759 26.337 -4.759 H68.343 Q68.343 -4.759 68.343 -4.759 Q68.343 -4.759 68.343 -4.759 V-65.701 Q68.343 -65.701 68.343 -65.701 Q68.343 -65.701 68.343 -65.701 Z M58.729 -54.942 H35.927 Q33.536 -54.942 31.883 -53.304 Q30.231 -51.666 30.231 -49.273 V-21.298 Q30.231 -18.906 31.868 -17.267 Q33.505 -15.629 35.896 -15.629 H58.697 Q61.087 -15.629 62.74 -17.267 Q64.393 -18.906 64.393 -21.298 V-49.273 Q64.393 -51.666 62.756 -53.304 Q61.119 -54.942 58.729 -54.942 Z M53.056 -43.604 V-32.288 H41.568 V-43.604 H53.056 Z M47.335 -13.687 Q45.842 -13.687 44.831 -12.7 Q43.819 -11.714 43.819 -10.187 Q43.819 -8.659 44.81 -7.625 Q45.801 -6.59 47.317 -6.59 Q48.783 -6.59 49.821 -7.589 Q50.861 -8.587 50.861 -10.115 Q50.861 -11.643 49.844 -12.665 Q48.828 -13.687 47.335 -13.687 Z M47.335 -63.87 Q45.842 -63.87 44.831 -62.867 Q43.819 -61.864 43.819 -60.329 Q43.819 -58.819 44.81 -57.824 Q45.801 -56.829 47.317 -56.829 Q48.783 -56.829 49.821 -57.805 Q50.861 -58.782 50.861 -60.276 Q50.861 -61.77 49.844 -62.819 Q48.828 -63.87 47.335 -63.87 Z"/></g><g id="Medium-S" transform="matrix(1 0 0 1 1701.85 696)"><path d="M68.857 -76.588 Q73.485 -76.588 76.358 -73.716 Q79.23 -70.843 79.23 -66.215 V-4.245 Q79.23 0.383 76.358 3.256 Q73.485 6.128 68.857 6.128 H25.823 Q21.195 6.128 18.322 3.256 Q15.45 0.383 15.45 -4.245 V-66.215 Q15.45 -70.843 18.322 -73.716 Q21.195 -76.588 25.823 -76.588 H68.857 Z M68.857 -66.215 H25.823 Q25.823 -66.215 25.823 -66.215 Q25.823 -66.215 25.823 -66.215 V-4.245 Q25.823 -4.245 25.823 -4.245 Q25.823 -4.245 25.823 -4.245 H68.857 Q68.857 -4.245 68.857 -4.245 Q68.857 -4.245 68.857 -4.245 V-66.215 Q68.857 -66.215 68.857 -66.215 Q68.857 -66.215 68.857 -66.215 Z M58.761 -55.746 H35.927 Q33.762 -55.746 32.238 -54.237 Q30.713 -52.727 30.713 -50.559 V-19.947 Q30.713 -17.78 32.222 -16.27 Q33.73 -14.761 35.896 -14.761 H58.729 Q60.894 -14.761 62.419 -16.27 Q63.944 -17.78 63.944 -19.947 V-50.559 Q63.944 -52.727 62.435 -54.237 Q60.927 -55.746 58.761 -55.746 Z M53.57 -45.374 V-31.709 H41.086 V-45.374 H53.57 Z M47.351 -12.915 Q45.887 -12.915 44.901 -11.954 Q43.916 -10.992 43.916 -9.513 Q43.916 -8.034 44.879 -7.039 Q45.843 -6.044 47.317 -6.044 Q48.77 -6.044 49.767 -7.01 Q50.764 -7.977 50.764 -9.456 Q50.764 -10.935 49.79 -11.925 Q48.815 -12.915 47.351 -12.915 Z M47.351 -64.416 Q45.887 -64.416 44.901 -63.448 Q43.916 -62.479 43.916 -60.998 Q43.916 -59.526 44.879 -58.547 Q45.843 -57.569 47.317 -57.569 Q48.77 -57.569 49.767 -58.526 Q50.764 -59.484 50.764 -60.948 Q50.764 -62.413 49.79 -63.415 Q48.815 -64.416 47.351 -64.416 Z"/></g><g id="Regular-S" transform="matrix(1 0 0 1 1405.73 696)"><path d="M69.235 -76.258 Q73.547 -76.258 76.223 -73.581 Q78.9 -70.905 78.9 -66.593 V-3.867 Q78.9 0.445 76.223 3.121 Q73.547 5.798 69.235 5.798 H25.445 Q21.132 5.798 18.457 3.121 Q15.78 0.445 15.78 -3.867 V-66.593 Q15.78 -70.905 18.457 -73.581 Q21.132 -76.258 25.445 -76.258 H69.235 Z M69.235 -66.593 H25.445 Q25.445 -66.593 25.445 -66.593 Q25.445 -66.593 25.445 -66.593 V-3.867 Q25.445 -3.867 25.445 -3.867 Q25.445 -3.867 25.445 -3.867 H69.235 Q69.235 -3.867 69.235 -3.867 Q69.235 -3.867 69.235 -3.867 V-66.593 Q69.235 -66.593 69.235 -66.593 Q69.235 -66.593 69.235 -66.593 Z M58.784 -56.336 H35.927 Q33.927 -56.336 32.497 -54.92 Q31.067 -53.505 31.067 -51.503 V-18.957 Q31.067 -16.955 32.481 -15.54 Q33.895 -14.124 35.896 -14.124 H58.753 Q60.753 -14.124 62.183 -15.54 Q63.613 -16.955 63.613 -18.957 V-51.503 Q63.613 -53.505 62.199 -54.92 Q60.785 -56.336 58.784 -56.336 Z M53.948 -46.67 V-31.285 H40.732 V-46.67 H53.948 Z M47.363 -12.349 Q45.92 -12.349 44.953 -11.405 Q43.987 -10.462 43.987 -9.018 Q43.987 -7.576 44.931 -6.609 Q45.873 -5.642 47.317 -5.642 Q48.76 -5.642 49.727 -6.586 Q50.693 -7.529 50.693 -8.973 Q50.693 -10.416 49.749 -11.382 Q48.807 -12.349 47.363 -12.349 Z M47.363 -64.817 Q45.92 -64.817 44.953 -63.874 Q43.987 -62.931 43.987 -61.487 Q43.987 -60.044 44.931 -59.078 Q45.873 -58.111 47.317 -58.111 Q48.76 -58.111 49.727 -59.055 Q50.693 -59.998 50.693 -61.442 Q50.693 -62.884 49.749 -63.851 Q48.807 -64.817 47.363 -64.817 Z"/></g><g id="Light-S" transform="matrix(1 0 0 1 1109.75 696)"><path d="M68.059 -74.285 Q72.106 -74.285 74.536 -71.855 Q76.965 -69.425 76.965 -65.379 V-5.081 Q76.965 -1.035 74.536 1.395 Q72.106 3.826 68.059 3.826 H26.659 Q22.613 3.826 20.183 1.395 Q17.753 -1.035 17.753 -5.081 V-65.379 Q17.753 -69.425 20.183 -71.855 Q22.613 -74.285 26.659 -74.285 H68.059 Z M68.021 -66.593 H26.621 Q26.09 -66.593 25.749 -66.252 Q25.408 -65.91 25.408 -65.379 V-5.081 Q25.408 -4.55 25.749 -4.208 Q26.09 -3.867 26.621 -3.867 H68.021 Q68.552 -3.867 68.912 -4.208 Q69.272 -4.55 69.272 -5.081 L69.235 -65.379 Q69.235 -65.91 68.894 -66.252 Q68.552 -66.593 68.021 -66.593 Z M57.798 -54.932 H36.996 Q35.141 -54.932 33.824 -53.626 Q32.509 -52.32 32.509 -50.478 V-20.019 Q32.509 -18.178 33.814 -16.872 Q35.118 -15.566 36.958 -15.566 H57.76 Q59.615 -15.566 60.932 -16.872 Q62.247 -18.178 62.247 -20.019 V-50.478 Q62.247 -52.32 60.942 -53.626 Q59.638 -54.932 57.798 -54.932 Z M54.554 -47.24 V-30.527 H40.201 V-47.24 H54.554 Z M47.37 -12.918 Q45.996 -12.918 45.067 -12.02 Q44.139 -11.121 44.139 -9.746 Q44.139 -8.372 45.037 -7.443 Q45.936 -6.515 47.31 -6.515 Q48.684 -6.515 49.613 -7.414 Q50.541 -8.312 50.541 -9.686 Q50.541 -11.061 49.643 -11.989 Q48.744 -12.918 47.37 -12.918 Z M47.37 -63.983 Q45.996 -63.983 45.067 -63.085 Q44.139 -62.186 44.139 -60.811 Q44.139 -59.438 45.037 -58.49 Q45.936 -57.542 47.31 -57.542 Q48.684 -57.542 49.613 -58.467 Q50.541 -59.391 50.541 -60.766 Q50.541 -62.14 49.643 -63.061 Q48.744 -63.983 47.37 -63.983 Z"/></g><g id="Thin-S" transform="matrix(1 0 0 1 814.015 696)"><path d="M66.883 -72.313 Q70.664 -72.313 72.847 -70.129 Q75.031 -67.947 75.031 -64.165 V-6.295 Q75.031 -2.513 72.847 -0.331 Q70.664 1.853 66.883 1.853 H27.873 Q24.091 1.853 21.909 -0.331 Q19.725 -2.513 19.725 -6.295 V-64.165 Q19.725 -67.947 21.909 -70.129 Q24.091 -72.313 27.873 -72.313 H66.883 Z M66.807 -66.593 H27.797 Q26.735 -66.593 26.052 -65.91 Q25.369 -65.227 25.369 -64.165 V-6.295 Q25.369 -5.233 26.052 -4.55 Q26.735 -3.867 27.797 -3.867 H66.807 Q67.869 -3.867 68.59 -4.55 Q69.311 -5.233 69.311 -6.295 L69.235 -64.165 Q69.235 -65.227 68.552 -65.91 Q67.869 -66.593 66.807 -66.593 Z M56.812 -53.529 H38.064 Q36.355 -53.529 35.152 -52.332 Q33.95 -51.134 33.95 -49.455 V-21.081 Q33.95 -19.402 35.146 -18.204 Q36.341 -17.007 38.02 -17.007 H56.768 Q58.477 -17.007 59.68 -18.204 Q60.882 -19.402 60.882 -21.081 V-49.455 Q60.882 -51.134 59.686 -52.332 Q58.49 -53.529 56.812 -53.529 Z M55.162 -47.809 V-29.768 H39.67 V-47.809 H55.162 Z M47.377 -13.487 Q46.072 -13.487 45.181 -12.633 Q44.291 -11.78 44.291 -10.474 Q44.291 -9.168 45.144 -8.278 Q45.998 -7.387 47.303 -7.387 Q48.608 -7.387 49.499 -8.241 Q50.389 -9.094 50.389 -10.4 Q50.389 -11.706 49.536 -12.597 Q48.682 -13.487 47.377 -13.487 Z M47.377 -63.149 Q46.072 -63.149 45.181 -62.295 Q44.291 -61.442 44.291 -60.136 Q44.291 -58.83 45.144 -57.902 Q45.998 -56.973 47.303 -56.973 Q48.608 -56.973 49.499 -57.878 Q50.389 -58.785 50.389 -60.089 Q50.389 -61.395 49.536 -62.272 Q48.682 -63.149 47.377 -63.149 Z"/></g><g id="Ultralight-S" transform="matrix(1 0 0 1 517.792 696)"><path d="M66.177 -71.129 Q69.799 -71.129 71.835 -69.094 Q73.87 -67.058 73.87 -63.437 V-7.023 Q73.87 -3.401 71.835 -1.366 Q69.799 0.67 66.177 0.67 H28.601 Q24.979 0.67 22.944 -1.366 Q20.909 -3.401 20.909 -7.023 V-63.437 Q20.909 -67.058 22.944 -69.094 Q24.979 -71.129 28.601 -71.129 H66.177 Z M66.079 -66.593 H28.503 Q27.122 -66.593 26.234 -65.705 Q25.347 -64.817 25.347 -63.437 V-7.023 Q25.347 -5.642 26.234 -4.755 Q27.122 -3.867 28.503 -3.867 H66.079 Q67.46 -3.867 68.396 -4.755 Q69.333 -5.642 69.333 -7.023 L69.235 -63.437 Q69.235 -64.817 68.347 -65.705 Q67.46 -66.593 66.079 -66.593 Z M56.22 -52.687 H38.705 Q37.083 -52.687 35.949 -51.555 Q34.815 -50.423 34.815 -48.84 V-21.718 Q34.815 -20.135 35.945 -19.004 Q37.076 -17.872 38.657 -17.872 H56.172 Q57.794 -17.872 58.928 -19.004 Q60.063 -20.135 60.063 -21.718 V-48.84 Q60.063 -50.423 58.932 -51.555 Q57.801 -52.687 56.22 -52.687 Z M55.526 -48.15 V-29.312 H39.351 V-48.15 H55.526 Z M47.381 -13.828 Q46.117 -13.828 45.249 -13.002 Q44.381 -12.175 44.381 -10.911 Q44.381 -9.647 45.208 -8.779 Q46.034 -7.911 47.299 -7.911 Q48.563 -7.911 49.431 -8.737 Q50.299 -9.564 50.299 -10.828 Q50.299 -12.093 49.472 -12.96 Q48.646 -13.828 47.381 -13.828 Z M47.381 -62.648 Q46.117 -62.648 45.249 -61.821 Q44.381 -60.995 44.381 -59.73 Q44.381 -58.466 45.208 -57.549 Q46.034 -56.632 47.299 -56.632 Q48.563 -56.632 49.431 -57.526 Q50.299 -58.42 50.299 -59.684 Q50.299 -60.948 49.472 -61.799 Q48.646 -62.648 47.381 -62.648 Z"/></g></g></svg>