<svg xmlns="http://www.w3.org/2000/svg" version="1.1" width="3300" height="2000"><g id="Notes"><style>
    text {
      font-family: monospace;
      text-anchor: middle;
    }
    text.emphasis {
      font-weight:bold;
    }
    text.lanchor {
      text-anchor: start;
    }
  </style><rect height="2200" id="artboard" fill="white" width="3300" x="0" y="0"/><line id="" style="fill:none;stroke:black;stroke-width:0.5;" x1="263" x2="3036" y1="292" y2="292"/><text class="lanchor emphasis" transform="matrix(1 0 0 1 263 322)">Weight/Scale Variations</text><text transform="matrix(1 0 0 1 559.711 322)">Ultralight</text><text transform="matrix(1 0 0 1 856.422 322)">Thin</text><text transform="matrix(1 0 0 1 1153.13 322)">Light</text><text transform="matrix(1 0 0 1 1449.84 322)">Regular</text><text transform="matrix(1 0 0 1 1746.56 322)">Medium</text><text transform="matrix(1 0 0 1 2043.27 322)">Semibold</text><text transform="matrix(1 0 0 1 2339.98 322)">Bold</text><text transform="matrix(1 0 0 1 2636.69 322)">Heavy</text><text transform="matrix(1 0 0 1 2933.4 322)">Black</text><text id="template-version" style="text-anchor: end;" transform="matrix(1 0 0 1 3036 1933)">Template v.1.0</text><text class="lanchor" transform="matrix(1 0 0 1 263 726)">Small</text><text class="lanchor" transform="matrix(1 0 0 1 263 1156)">Medium</text><text class="lanchor" transform="matrix(1 0 0 1 263 1586)">Large</text></g><g id="Guides"><g id="H-reference" style="fill:#27AAE1;stroke:none;" transform="matrix(1 0 0 1 339 696)"><path d="M 54.9316 0 L 57.666 0 L 30.5664 -70.459 L 28.0762 -70.459 L 0.976562 0 L 3.66211 0 L 12.9395 -24.4629 L 45.7031 -24.4629 Z M 29.1992 -67.0898 L 29.4434 -67.0898 L 44.8242 -26.709 L 13.8184 -26.709 Z"/></g><line id="Baseline-S" style="fill:none;stroke:#27AAE1;opacity:1;stroke-width:0.577;" x1="263" x2="3036" y1="696" y2="696"/><line id="Capline-S" style="fill:none;stroke:#27AAE1;opacity:1;stroke-width:0.577;" x1="263" x2="3036" y1="625.541" y2="625.541"/><g id="H-reference" style="fill:#27AAE1;stroke:none;" transform="matrix(1 0 0 1 339 1126)"><path d="M 54.9316 0 L 57.666 0 L 30.5664 -70.459 L 28.0762 -70.459 L 0.976562 0 L 3.66211 0 L 12.9395 -24.4629 L 45.7031 -24.4629 Z M 29.1992 -67.0898 L 29.4434 -67.0898 L 44.8242 -26.709 L 13.8184 -26.709 Z"/></g><line id="Baseline-M" style="fill:none;stroke:#27AAE1;opacity:1;stroke-width:0.577;" x1="263" x2="3036" y1="1126" y2="1126"/><line id="Capline-M" style="fill:none;stroke:#27AAE1;opacity:1;stroke-width:0.577;" x1="263" x2="3036" y1="1055.54" y2="1055.54"/><g id="H-reference" style="fill:#27AAE1;stroke:none;" transform="matrix(1 0 0 1 339 1556)"><path d="M 54.9316 0 L 57.666 0 L 30.5664 -70.459 L 28.0762 -70.459 L 0.976562 0 L 3.66211 0 L 12.9395 -24.4629 L 45.7031 -24.4629 Z M 29.1992 -67.0898 L 29.4434 -67.0898 L 44.8242 -26.709 L 13.8184 -26.709 Z"/></g><line id="Baseline-L" style="fill:none;stroke:#27AAE1;opacity:1;stroke-width:0.577;" x1="263" x2="3036" y1="1556" y2="1556"/><line id="Capline-L" style="fill:none;stroke:#27AAE1;opacity:1;stroke-width:0.577;" x1="263" x2="3036" y1="1485.54" y2="1485.54"/><rect height="119.336" id="left-margin" style="fill:darkred;stroke:none;opacity:0.4;" width="12.4512" x="1394.06" y="1030.79"/><rect height="119.336" id="right-margin" style="fill:darkgreen;stroke:none;opacity:0.4;" width="12.4512" x="1502.5112" y="1030.79"/><rect x="1406.5112" y="1045" width="96" height="96" fill="none" stroke="blue" stroke-dasharray="5"/><rect x="1394.06" y="1030.79" width="120.9024" height="119.336" fill="none" stroke="blue"/></g><g id="Symbols"><g id="Bold-L" transform="matrix(1 0 0 1 2266 1556)"><path d="M37.41 32.495 Q31.158 32.495 26.908 28.243 Q22.656 23.992 22.656 17.741 V-61.433 H17.093 Q13.988 -61.433 11.833 -63.55 Q9.675 -65.666 9.675 -68.931 V-82.278 Q9.675 -90.955 15.712 -97.036 Q21.749 -103.116 30.476 -103.116 H124.325 Q133.004 -103.116 139.146 -97.023 Q145.286 -90.929 145.286 -82.302 V-68.931 Q145.286 -65.666 143.034 -63.55 Q140.779 -61.433 137.788 -61.433 H132.467 V17.741 Q132.467 23.992 128.168 28.243 Q123.869 32.495 117.551 32.495 H37.41 Z M37.41 17.741 H117.551 Q117.551 17.741 117.551 17.741 Q117.551 17.741 117.551 17.741 V-0.722 H37.41 V17.741 Q37.41 17.741 37.41 17.741 Q37.41 17.741 37.41 17.741 Z M37.41 -15.638 H117.551 V-34.585 H104.893 V-30.312 Q104.893 -27.24 102.757 -25.149 Q100.618 -23.056 97.582 -23.056 Q94.573 -23.056 92.275 -25.149 Q89.978 -27.24 89.978 -30.312 V-34.585 H37.41 V-15.638 Z M37.41 -49.339 H89.978 V-61.433 H37.41 V-49.339 Z M104.893 -49.339 H117.551 V-61.433 H104.893 V-49.339 Z"/></g><g id="Semibold-L" transform="matrix(1 0 0 1 1970.27 1556)"><path d="M36.78 30.742 Q31.582 30.742 27.996 27.154 Q24.408 23.568 24.408 18.371 V-62.344 H17.654 Q15.04 -62.344 13.234 -64.11 Q11.428 -65.876 11.428 -68.581 V-81.788 Q11.428 -89.91 17.076 -95.602 Q22.725 -101.294 30.897 -101.294 H123.904 Q131.999 -101.294 137.732 -95.587 Q143.464 -89.882 143.464 -81.812 V-68.581 Q143.464 -65.876 141.6 -64.11 Q139.736 -62.344 137.227 -62.344 H130.645 V18.371 Q130.645 23.568 127.03 27.154 Q123.416 30.742 118.182 30.742 H36.78 Z M36.78 18.371 H118.182 Q118.182 18.371 118.182 18.371 Q118.182 18.371 118.182 18.371 V-2.264 H36.78 V18.371 Q36.78 18.371 36.78 18.371 Q36.78 18.371 36.78 18.371 Z M36.78 -14.727 H118.182 V-35.707 H103.49 V-29.61 Q103.49 -27.016 101.694 -25.245 Q99.896 -23.476 97.361 -23.476 Q94.854 -23.476 92.941 -25.245 Q91.029 -27.016 91.029 -29.61 V-35.707 H36.78 V-14.727 Z M36.78 -48.077 H91.029 V-62.344 H36.78 V-48.077 Z M103.49 -48.077 H118.182 V-62.344 H103.49 V-48.077 Z"/></g><g id="Medium-L" transform="matrix(1 0 0 1 1674.31 1556)"><path d="M36.305 29.428 Q31.9 29.428 28.812 26.338 Q25.723 23.251 25.723 18.845 V-63.028 H18.075 Q15.828 -63.028 14.285 -64.531 Q12.742 -66.034 12.742 -68.319 V-81.418 Q12.742 -89.125 18.099 -94.526 Q23.455 -99.927 31.213 -99.927 H123.588 Q131.246 -99.927 136.671 -94.512 Q142.097 -89.099 142.097 -81.444 V-68.319 Q142.097 -66.034 140.525 -64.531 Q138.954 -63.028 136.806 -63.028 H129.277 V18.845 Q129.277 23.251 126.177 26.338 Q123.076 29.428 118.656 29.428 H36.305 Z M36.305 18.845 H118.656 Q118.656 18.845 118.656 18.845 Q118.656 18.845 118.656 18.845 V-3.422 H36.305 V18.845 Q36.305 18.845 36.305 18.845 Q36.305 18.845 36.305 18.845 Z M36.305 -14.043 H118.656 V-36.547 H102.439 V-29.085 Q102.439 -26.848 100.896 -25.32 Q99.353 -23.793 97.195 -23.793 Q95.063 -23.793 93.441 -25.32 Q91.817 -26.848 91.817 -29.085 V-36.547 H36.305 V-14.043 Z M36.305 -47.13 H91.817 V-63.028 H36.305 V-47.13 Z M102.439 -47.13 H118.656 V-63.028 H102.439 V-47.13 Z"/></g><g id="Regular-L" transform="matrix(1 0 0 1 1378.56 1556)"><path d="M35.959 28.464 Q32.134 28.464 29.41 25.74 Q26.687 23.017 26.687 19.192 V-63.529 H18.383 Q16.407 -63.529 15.058 -64.84 Q13.706 -66.15 13.706 -68.125 V-81.149 Q13.706 -88.551 18.85 -93.736 Q23.992 -98.924 31.444 -98.924 H123.358 Q130.693 -98.924 135.893 -93.723 Q141.094 -88.523 141.094 -81.173 V-68.125 Q141.094 -66.15 139.738 -64.84 Q138.38 -63.529 136.498 -63.529 H128.274 V19.192 Q128.274 23.017 125.551 25.74 Q122.827 28.464 119.002 28.464 H35.959 Z M35.959 19.192 H119.002 Q119.002 19.192 119.002 19.192 Q119.002 19.192 119.002 19.192 V-4.27 H35.959 V19.192 Q35.959 19.192 35.959 19.192 Q35.959 19.192 35.959 19.192 Z M35.959 -13.542 H119.002 V-37.165 H101.668 V-28.699 Q101.668 -26.724 100.312 -25.374 Q98.954 -24.023 97.073 -24.023 Q95.218 -24.023 93.807 -25.374 Q92.396 -26.724 92.396 -28.699 V-37.165 H35.959 V-13.542 Z M35.959 -46.437 H92.396 V-63.529 H35.959 V-46.437 Z M101.668 -46.437 H119.002 V-63.529 H101.668 V-46.437 Z"/></g><g id="Light-L" transform="matrix(1 0 0 1 1082.77 1556)"><path d="M38.565 25.548 Q34.877 25.548 32.194 22.865 Q29.509 20.18 29.509 16.494 V-63.654 H21.204 Q19.247 -63.654 17.934 -64.91 Q16.622 -66.167 16.622 -68.125 V-79.743 Q16.622 -86.496 21.34 -91.253 Q26.058 -96.008 32.901 -96.008 H121.931 Q128.605 -96.008 133.392 -91.226 Q138.178 -86.443 138.178 -79.75 V-68.125 Q138.178 -66.167 136.858 -64.91 Q135.537 -63.654 133.707 -63.654 H125.359 V16.494 Q125.359 20.18 122.676 22.865 Q119.991 25.548 116.305 25.548 H38.565 Z M38.565 18.479 H116.305 Q117.142 18.479 117.716 17.92 Q118.29 17.362 118.29 16.494 V-6.224 H36.58 V16.494 Q36.58 17.362 37.168 17.92 Q37.757 18.479 38.565 18.479 Z M36.58 -13.294 H118.29 V-38.065 H99.59 V-28.948 Q99.59 -27.411 98.554 -26.384 Q97.519 -25.357 96.111 -25.357 Q94.66 -25.357 93.59 -26.384 Q92.52 -27.411 92.52 -28.948 V-38.065 H36.58 V-13.294 Z M36.58 -45.134 H92.52 V-63.654 H36.58 V-45.134 Z M99.59 -45.134 H118.29 V-63.654 H99.59 V-45.134 Z"/></g><g id="Thin-L" transform="matrix(1 0 0 1 787.282 1556)"><path d="M41.169 22.635 Q37.62 22.635 34.975 19.99 Q32.331 17.346 32.331 13.796 V-63.778 H24.026 Q22.085 -63.778 20.811 -64.981 Q19.535 -66.184 19.535 -68.125 V-78.337 Q19.535 -84.445 23.83 -88.77 Q28.122 -93.095 34.359 -93.095 H120.505 Q126.517 -93.095 130.89 -88.728 Q135.265 -84.361 135.265 -78.327 V-68.125 Q135.265 -66.184 133.979 -64.981 Q132.694 -63.778 130.916 -63.778 H122.445 V13.796 Q122.445 17.346 119.801 19.99 Q117.156 22.635 113.607 22.635 H41.169 Z M41.169 17.765 H113.607 Q115.281 17.765 116.429 16.649 Q117.575 15.533 117.575 13.796 V-8.177 H37.199 V13.796 Q37.199 15.533 38.377 16.649 Q39.556 17.765 41.169 17.765 Z M37.199 -13.045 H117.575 V-38.963 H97.513 V-29.196 Q97.513 -28.098 96.798 -27.393 Q96.084 -26.69 95.15 -26.69 Q94.102 -26.69 93.373 -27.393 Q92.645 -28.098 92.645 -29.196 V-38.963 H37.199 V-13.045 Z M37.199 -43.833 H92.645 V-63.778 H37.199 V-43.833 Z M97.513 -43.833 H117.575 V-63.778 H97.513 V-43.833 Z"/></g><g id="Ultralight-L" transform="matrix(1 0 0 1 491.205 1556)"><path d="M42.731 20.885 Q39.264 20.885 36.644 18.265 Q34.024 15.644 34.024 12.178 V-63.852 H25.719 Q23.788 -63.852 22.536 -65.023 Q21.285 -66.195 21.285 -68.125 V-77.492 Q21.285 -83.213 25.323 -87.278 Q29.36 -91.345 35.233 -91.345 H119.649 Q125.264 -91.345 129.39 -87.228 Q133.515 -83.113 133.515 -77.473 V-68.125 Q133.515 -66.195 132.251 -65.023 Q130.987 -63.852 129.242 -63.852 H120.696 V12.178 Q120.696 15.644 118.075 18.265 Q115.455 20.885 111.988 20.885 H42.731 Z M42.731 17.338 H111.988 Q114.165 17.338 115.657 15.886 Q117.148 14.435 117.148 12.178 V-9.349 H37.571 V12.178 Q37.571 14.435 39.103 15.886 Q40.635 17.338 42.731 17.338 Z M37.571 -12.897 H117.148 V-39.503 H96.266 V-29.344 Q96.266 -28.509 95.744 -28 Q95.221 -27.49 94.573 -27.49 Q93.767 -27.49 93.243 -28 Q92.719 -28.509 92.719 -29.344 V-39.503 H37.571 V-12.897 Z M37.571 -43.051 H92.719 V-63.852 H37.571 V-43.051 Z M96.266 -43.051 H117.148 V-63.852 H96.266 V-43.051 Z"/></g><g id="Bold-M" transform="matrix(1 0 0 1 2281.8 1126)"><path d="M32 17.77 Q25.633 17.77 21.254 13.391 Q16.875 9.013 16.875 2.645 V-52.917 H14.562 Q11.5 -52.917 9.25 -55.167 Q7 -57.417 7 -60.48 V-70.586 Q7 -77.97 12.135 -83.1 Q17.271 -88.23 24.688 -88.23 H95.25 Q102.646 -88.23 107.823 -83.09 Q113 -77.949 113 -70.605 V-60.48 Q113 -57.417 110.75 -55.167 Q108.5 -52.917 105.438 -52.917 H103.062 V2.645 Q103.062 9.013 98.684 13.391 Q94.305 17.77 87.938 17.77 H32 Z M32 2.645 H87.938 Q87.938 2.645 87.938 2.645 Q87.938 2.645 87.938 2.645 V-7.292 H32 V2.645 Q32 2.645 32 2.645 Q32 2.645 32 2.645 Z M32 -22.417 H87.938 V-32.667 H82.625 V-31.917 Q82.625 -28.865 80.469 -26.735 Q78.311 -24.605 75.219 -24.605 Q72.125 -24.605 69.812 -26.735 Q67.5 -28.865 67.5 -31.917 V-32.667 H32 V-22.417 Z M32 -47.792 H67.5 V-52.917 H32 V-47.792 Z M82.625 -47.792 H87.938 V-52.917 H82.625 V-47.792 Z"/></g><g id="Semibold-M" transform="matrix(1 0 0 1 1985.97 1126)"><path d="M31.348 15.923 Q26.067 15.923 22.395 12.25 Q18.723 8.578 18.723 3.298 V-53.841 H15.16 Q12.588 -53.841 10.717 -55.711 Q8.848 -57.58 8.848 -60.154 V-70.096 Q8.848 -76.915 13.571 -81.649 Q18.294 -86.382 25.122 -86.382 H94.815 Q101.623 -86.382 106.388 -81.637 Q111.153 -76.894 111.153 -70.116 V-60.154 Q111.153 -57.58 109.282 -55.711 Q107.412 -53.841 104.84 -53.841 H101.215 V3.298 Q101.215 8.578 97.543 12.25 Q93.87 15.923 88.59 15.923 H31.348 Z M31.348 3.298 H88.59 Q88.59 3.298 88.59 3.298 Q88.59 3.298 88.59 3.298 V-8.869 H31.348 V3.298 Q31.348 3.298 31.348 3.298 Q31.348 3.298 31.348 3.298 Z M31.348 -21.494 H88.59 V-33.862 H81.213 V-31.211 Q81.213 -28.642 79.395 -26.841 Q77.579 -25.04 74.987 -25.04 Q72.396 -25.04 70.491 -26.841 Q68.588 -28.642 68.588 -31.211 V-33.862 H31.348 V-21.494 Z M31.348 -46.489 H68.588 V-53.841 H31.348 V-46.489 Z M81.213 -46.489 H88.59 V-53.841 H81.213 V-46.489 Z"/></g><g id="Medium-M" transform="matrix(1 0 0 1 1689.91 1126)"><path d="M30.859 14.536 Q26.394 14.536 23.251 11.394 Q20.109 8.251 20.109 3.786 V-54.534 H15.609 Q13.402 -54.534 11.818 -56.119 Q10.234 -57.702 10.234 -59.909 V-69.73 Q10.234 -76.122 14.648 -80.56 Q19.062 -84.996 25.449 -84.996 H94.489 Q100.855 -84.996 105.31 -80.549 Q109.766 -76.102 109.766 -69.749 V-59.909 Q109.766 -57.702 108.183 -56.119 Q106.597 -54.534 104.391 -54.534 H99.829 V3.786 Q99.829 8.251 96.686 11.394 Q93.544 14.536 89.079 14.536 H30.859 Z M30.859 3.786 H89.079 Q89.079 3.786 89.079 3.786 Q89.079 3.786 89.079 3.786 V-10.051 H30.859 V3.786 Q30.859 3.786 30.859 3.786 Q30.859 3.786 30.859 3.786 Z M30.859 -20.801 H89.079 V-34.76 H80.153 V-30.681 Q80.153 -28.476 78.59 -26.921 Q77.029 -25.366 74.815 -25.366 Q72.6 -25.366 71.001 -26.921 Q69.403 -28.476 69.403 -30.681 V-34.76 H30.859 V-20.801 Z M30.859 -45.51 H69.403 V-54.534 H30.859 V-45.51 Z M80.153 -45.51 H89.079 V-54.534 H80.153 V-45.51 Z"/></g><g id="Regular-M" transform="matrix(1 0 0 1 1394.06 1126)"><path d="M30.5 13.52 Q26.633 13.52 23.879 10.766 Q21.125 8.013 21.125 4.145 V-55.042 H15.938 Q14 -55.042 12.625 -56.417 Q11.25 -57.792 11.25 -59.73 V-69.461 Q11.25 -75.542 15.438 -79.761 Q19.625 -83.98 25.688 -83.98 H94.25 Q100.291 -83.98 104.521 -79.751 Q108.75 -75.521 108.75 -69.48 V-59.73 Q108.75 -57.792 107.375 -56.417 Q106 -55.042 104.062 -55.042 H98.812 V4.145 Q98.812 8.013 96.059 10.766 Q93.305 13.52 89.438 13.52 H30.5 Z M30.5 4.145 H89.438 Q89.438 4.145 89.438 4.145 Q89.438 4.145 89.438 4.145 V-10.917 H30.5 V4.145 Q30.5 4.145 30.5 4.145 Q30.5 4.145 30.5 4.145 Z M30.5 -20.292 H89.438 V-35.417 H79.375 V-30.292 Q79.375 -28.355 78 -26.98 Q76.625 -25.605 74.688 -25.605 Q72.75 -25.605 71.375 -26.98 Q70 -28.355 70 -30.292 V-35.417 H30.5 V-20.292 Z M30.5 -44.792 H70 V-55.042 H30.5 V-44.792 Z M79.375 -44.792 H89.438 V-55.042 H79.375 V-44.792 Z"/></g><g id="Light-M" transform="matrix(1 0 0 1 1098.18 1126)"><path d="M31.894 11.26 Q28.374 11.26 25.867 8.754 Q23.361 6.246 23.361 2.726 V-55.667 H17.789 Q16.008 -55.667 14.759 -56.904 Q13.51 -58.141 13.51 -59.922 V-68.659 Q13.51 -74.119 17.284 -77.92 Q21.058 -81.72 26.529 -81.72 H93.433 Q98.841 -81.72 102.666 -77.899 Q106.49 -74.076 106.49 -68.665 V-59.922 Q106.49 -58.141 105.24 -56.904 Q103.989 -55.667 102.235 -55.667 H96.552 V2.726 Q96.552 6.246 94.046 8.754 Q91.539 11.26 88.019 11.26 H31.894 Z M31.894 4.265 H88.019 Q88.669 4.265 89.112 3.833 Q89.558 3.4 89.558 2.726 V-12.576 H30.356 V2.726 Q30.356 3.4 30.789 3.833 Q31.221 4.265 31.894 4.265 Z M30.356 -19.571 H89.558 V-36.499 H77.524 V-30.436 Q77.524 -28.982 76.495 -27.955 Q75.465 -26.927 74.039 -26.927 Q72.606 -26.927 71.567 -27.955 Q70.529 -28.982 70.529 -30.436 V-36.499 H30.356 V-19.571 Z M30.356 -43.494 H70.529 V-55.667 H30.356 V-43.494 Z M77.524 -43.494 H89.558 V-55.667 H77.524 V-43.494 Z"/></g><g id="Thin-M" transform="matrix(1 0 0 1 802.565 1126)"><path d="M33.289 9.001 Q30.115 9.001 27.856 6.741 Q25.596 4.481 25.596 1.309 V-56.292 H19.64 Q18.015 -56.292 16.891 -57.391 Q15.769 -58.49 15.769 -60.115 V-67.857 Q15.769 -72.696 19.13 -76.079 Q22.49 -79.461 27.37 -79.461 H92.615 Q97.391 -79.461 100.811 -76.046 Q104.231 -72.632 104.231 -67.85 V-60.115 Q104.231 -58.49 103.105 -57.391 Q101.979 -56.292 100.409 -56.292 H94.294 V1.309 Q94.294 4.481 92.034 6.741 Q89.774 9.001 86.601 9.001 H33.289 Z M33.289 4.385 H86.601 Q87.899 4.385 88.789 3.52 Q89.677 2.655 89.677 1.309 V-14.235 H30.211 V1.309 Q30.211 2.655 31.078 3.52 Q31.942 4.385 33.289 4.385 Z M30.211 -18.85 H89.677 V-37.581 H75.672 V-30.581 Q75.672 -29.61 74.989 -28.93 Q74.305 -28.249 73.39 -28.249 Q72.461 -28.249 71.76 -28.93 Q71.058 -29.61 71.058 -30.581 V-37.581 H30.211 V-18.85 Z M30.211 -42.196 H71.058 V-56.292 H30.211 V-42.196 Z M75.672 -42.196 H89.677 V-56.292 H75.672 V-42.196 Z"/></g><g id="Ultralight-M" transform="matrix(1 0 0 1 506.415 1126)"><path d="M34.125 7.645 Q31.16 7.645 29.049 5.534 Q26.938 3.423 26.938 0.458 V-56.667 H20.75 Q19.219 -56.667 18.172 -57.684 Q17.125 -58.699 17.125 -60.23 V-67.376 Q17.125 -71.842 20.238 -74.974 Q23.349 -78.105 27.875 -78.105 H92.125 Q96.521 -78.105 99.698 -74.935 Q102.875 -71.765 102.875 -67.361 V-60.23 Q102.875 -58.699 101.824 -57.684 Q100.771 -56.667 99.312 -56.667 H92.938 V0.458 Q92.938 3.423 90.826 5.534 Q88.715 7.645 85.75 7.645 H34.125 Z M34.125 4.458 H85.75 Q87.438 4.458 88.594 3.333 Q89.75 2.208 89.75 0.458 V-15.23 H30.125 V0.458 Q30.125 2.208 31.25 3.333 Q32.375 4.458 34.125 4.458 Z M30.125 -18.417 H89.75 V-38.23 H74.562 V-30.667 Q74.562 -29.986 74.086 -29.514 Q73.61 -29.042 73 -29.042 Q72.375 -29.042 71.875 -29.514 Q71.375 -29.986 71.375 -30.667 V-38.23 H30.125 V-18.417 Z M30.125 -41.417 H71.375 V-56.667 H30.125 V-41.417 Z M74.562 -41.417 H89.75 V-56.667 H74.562 V-41.417 Z"/></g><g id="Bold-S" transform="matrix(1 0 0 1 2294.23 696)"><path d="M27.587 5.009 Q22.887 5.009 19.679 1.786 Q16.47 -1.437 16.47 -6.136 V-49.974 H12.673 Q10.425 -49.974 8.763 -51.636 Q7.101 -53.298 7.101 -55.547 V-61.548 Q7.101 -67.374 11.153 -71.421 Q15.205 -75.469 21.056 -75.469 H73.574 Q79.41 -75.469 83.494 -71.414 Q87.579 -67.357 87.579 -61.563 V-55.547 Q87.579 -53.298 85.917 -51.636 Q84.255 -49.974 82.007 -49.974 H78.16 V-6.136 Q78.16 -1.437 74.936 1.786 Q71.711 5.009 67.012 5.009 H27.587 Z M27.615 -6.136 H67.016 Q67.016 -6.136 67.016 -6.136 Q67.016 -6.136 67.016 -6.136 V-12.793 H27.615 V-6.136 Q27.615 -6.136 27.615 -6.136 Q27.615 -6.136 27.615 -6.136 Z M27.615 -23.937 H67.016 V-32.025 H63.613 V-31.827 Q63.613 -29.587 62.025 -28.02 Q60.436 -26.452 58.164 -26.452 Q55.891 -26.452 54.18 -28.02 Q52.468 -29.587 52.468 -31.827 V-32.025 H27.615 V-23.937 Z M27.615 -43.169 H52.468 V-49.974 H27.615 V-43.169 Z M63.613 -43.169 H67.016 V-49.974 H63.613 V-43.169 Z"/></g><g id="Semibold-S" transform="matrix(1 0 0 1 1998.1 696)"><path d="M27.073 3.551 Q23.23 3.551 20.579 0.885 Q17.928 -1.78 17.928 -5.621 V-50.703 H13.145 Q11.283 -50.703 9.921 -52.065 Q8.559 -53.426 8.559 -55.289 V-61.161 Q8.559 -66.541 12.286 -70.276 Q16.012 -74.011 21.4 -74.011 H73.231 Q78.602 -74.011 82.362 -70.268 Q86.121 -66.525 86.121 -61.177 V-55.289 Q86.121 -53.426 84.759 -52.065 Q83.397 -50.703 81.535 -50.703 H76.703 V-5.621 Q76.703 -1.78 74.036 0.885 Q71.369 3.551 67.527 3.551 H27.073 Z M27.1 -5.621 H67.531 Q67.531 -5.621 67.531 -5.621 Q67.531 -5.621 67.531 -5.621 V-14.036 H27.1 V-5.621 Q27.1 -5.621 27.1 -5.621 Q27.1 -5.621 27.1 -5.621 Z M27.1 -23.209 H67.531 V-32.968 H62.499 V-31.27 Q62.499 -29.411 61.178 -28.103 Q59.858 -26.796 57.982 -26.796 Q56.105 -26.796 54.715 -28.103 Q53.327 -29.411 53.327 -31.27 V-32.968 H27.1 V-23.209 Z M27.1 -42.141 H53.327 V-50.703 H27.1 V-42.141 Z M62.499 -42.141 H67.531 V-50.703 H62.499 V-42.141 Z"/></g><g id="Medium-S" transform="matrix(1 0 0 1 1701.85 696)"><path d="M26.687 2.458 Q23.488 2.458 21.255 0.21 Q19.022 -2.038 19.022 -5.235 V-51.25 H13.499 Q11.926 -51.25 10.789 -52.387 Q9.652 -53.523 9.652 -55.096 V-60.872 Q9.652 -65.916 13.135 -69.417 Q16.618 -72.918 21.657 -72.918 H72.974 Q77.997 -72.918 81.512 -69.408 Q85.028 -65.9 85.028 -60.887 V-55.096 Q85.028 -53.523 83.891 -52.387 Q82.754 -51.25 81.181 -51.25 H75.609 V-5.235 Q75.609 -2.038 73.36 0.21 Q71.112 2.458 67.912 2.458 H26.687 Z M26.715 -5.235 H67.916 Q67.916 -5.235 67.916 -5.235 Q67.916 -5.235 67.916 -5.235 V-14.969 H26.715 V-5.235 Q26.715 -5.235 26.715 -5.235 Q26.715 -5.235 26.715 -5.235 Z M26.715 -22.662 H67.916 V-33.676 H61.662 V-30.852 Q61.662 -29.28 60.543 -28.166 Q59.425 -27.053 57.846 -27.053 Q56.266 -27.053 55.118 -28.166 Q53.97 -29.28 53.97 -30.852 V-33.676 H26.715 V-22.662 Z M26.715 -41.368 H53.97 V-51.25 H26.715 V-41.368 Z M61.662 -41.368 H67.916 V-51.25 H61.662 V-41.368 Z"/></g><g id="Regular-S" transform="matrix(1 0 0 1 1405.73 696)"><path d="M26.404 1.656 Q23.676 1.656 21.75 -0.285 Q19.824 -2.226 19.824 -4.952 V-51.651 H13.758 Q12.397 -51.651 11.426 -52.623 Q10.454 -53.594 10.454 -54.955 V-60.66 Q10.454 -65.459 13.758 -68.787 Q17.062 -72.116 21.845 -72.116 H72.785 Q77.552 -72.116 80.889 -68.779 Q84.226 -65.442 84.226 -60.675 V-54.955 Q84.226 -53.594 83.254 -52.623 Q82.283 -51.651 80.922 -51.651 H74.807 V-4.952 Q74.807 -2.226 72.865 -0.285 Q70.922 1.656 68.195 1.656 H26.404 Z M26.431 -4.952 H68.199 Q68.199 -4.952 68.199 -4.952 Q68.199 -4.952 68.199 -4.952 V-15.653 H26.431 V-4.952 Q26.431 -4.952 26.431 -4.952 Q26.431 -4.952 26.431 -4.952 Z M26.431 -22.261 H68.199 V-34.194 H61.049 V-30.545 Q61.049 -29.184 60.077 -28.213 Q59.106 -27.241 57.745 -27.241 Q56.384 -27.241 55.412 -28.213 Q54.441 -29.184 54.441 -30.545 V-34.194 H26.431 V-22.261 Z M26.431 -40.802 H54.441 V-51.651 H26.431 V-40.802 Z M61.049 -40.802 H68.199 V-51.651 H61.049 V-40.802 Z"/></g><g id="Light-S" transform="matrix(1 0 0 1 1109.75 696)"><path d="M27.504 -0.127 Q25.05 -0.127 23.319 -1.873 Q21.588 -3.62 21.588 -6.072 V-52.144 H15.219 Q13.981 -52.144 13.109 -53.006 Q12.237 -53.869 12.237 -55.107 V-60.027 Q12.237 -64.335 15.215 -67.334 Q18.192 -70.333 22.509 -70.333 H72.14 Q76.408 -70.333 79.426 -67.318 Q82.443 -64.302 82.443 -60.032 V-55.107 Q82.443 -53.869 81.57 -53.006 Q80.696 -52.144 79.48 -52.144 H73.024 V-6.072 Q73.024 -3.62 71.277 -1.873 Q69.53 -0.127 67.076 -0.127 H27.504 Z M27.531 -4.857 H67.08 Q67.593 -4.857 67.943 -5.199 Q68.294 -5.54 68.294 -6.072 V-16.962 H26.318 V-6.072 Q26.318 -5.54 26.659 -5.199 Q27.001 -4.857 27.531 -4.857 Z M26.318 -21.692 H68.294 V-35.048 H59.588 V-30.659 Q59.588 -29.679 58.89 -28.982 Q58.191 -28.285 57.233 -28.285 Q56.27 -28.285 55.564 -28.982 Q54.858 -29.679 54.858 -30.659 V-35.048 H26.318 V-21.692 Z M26.318 -39.778 H54.858 V-52.144 H26.318 V-39.778 Z M59.588 -39.778 H68.294 V-52.144 H59.588 V-39.778 Z"/></g><g id="Thin-S" transform="matrix(1 0 0 1 814.015 696)"><path d="M28.603 -1.91 Q26.424 -1.91 24.888 -3.461 Q23.351 -5.012 23.351 -7.19 V-52.637 H16.679 Q15.565 -52.637 14.792 -53.391 Q14.02 -54.144 14.02 -55.259 V-59.395 Q14.02 -63.213 16.672 -65.882 Q19.323 -68.55 23.173 -68.55 H71.495 Q75.264 -68.55 77.962 -65.856 Q80.66 -63.163 80.66 -59.389 V-55.259 Q80.66 -54.144 79.885 -53.391 Q79.11 -52.637 78.039 -52.637 H71.242 V-7.19 Q71.242 -5.012 69.689 -3.461 Q68.137 -1.91 65.957 -1.91 H28.603 Z M28.632 -4.763 H65.961 Q66.985 -4.763 67.687 -5.445 Q68.389 -6.128 68.389 -7.19 V-18.27 H26.204 V-7.19 Q26.204 -6.128 26.887 -5.445 Q27.57 -4.763 28.632 -4.763 Z M26.204 -21.123 H68.389 V-35.902 H58.128 V-30.773 Q58.128 -30.174 57.702 -29.751 Q57.275 -29.327 56.721 -29.327 Q56.156 -29.327 55.716 -29.751 Q55.275 -30.174 55.275 -30.773 V-35.902 H26.204 V-21.123 Z M26.204 -38.754 H55.275 V-52.637 H26.204 V-38.754 Z M58.128 -38.754 H68.389 V-52.637 H58.128 V-38.754 Z"/></g><g id="Ultralight-S" transform="matrix(1 0 0 1 517.792 696)"><path d="M29.264 -2.98 Q27.248 -2.98 25.829 -4.414 Q24.41 -5.848 24.41 -7.862 V-52.933 H17.555 Q16.515 -52.933 15.803 -53.621 Q15.09 -54.309 15.09 -55.349 V-59.015 Q15.09 -62.539 17.545 -65.01 Q20 -67.48 23.571 -67.48 H71.109 Q74.577 -67.48 77.083 -64.979 Q79.59 -62.478 79.59 -59.004 V-55.349 Q79.59 -54.309 78.874 -53.621 Q78.157 -52.933 77.174 -52.933 H70.172 V-7.862 Q70.172 -5.848 68.737 -4.414 Q67.301 -2.98 65.286 -2.98 H29.264 Z M29.292 -4.706 H65.29 Q66.621 -4.706 67.533 -5.593 Q68.446 -6.481 68.446 -7.862 V-19.055 H26.136 V-7.862 Q26.136 -6.481 27.023 -5.593 Q27.911 -4.706 29.292 -4.706 Z M26.136 -20.781 H68.446 V-36.413 H57.252 V-30.841 Q57.252 -30.471 56.989 -30.213 Q56.726 -29.954 56.413 -29.954 Q56.088 -29.954 55.807 -30.213 Q55.526 -30.471 55.526 -30.841 V-36.413 H26.136 V-20.781 Z M26.136 -38.139 H55.526 V-52.933 H26.136 V-38.139 Z M57.252 -38.139 H68.446 V-52.933 H57.252 V-38.139 Z"/></g></g></svg>