<svg xmlns="http://www.w3.org/2000/svg" height="40" viewBox="0 -960 960 960" width="40"><path d="M536.67-253.33q-22.67 0-37.84-15.17-15.16-15.17-15.16-37.83v-345.34q0-22 15.16-37.16Q514-704 536.67-704H633q115.67 0 175 57.17 59.33 57.16 59.33 168.5 0 111.33-58.83 168.16-58.83 56.84-175.5 56.84h-96.33ZM583-346h45q71.67 0 106.5-32.17 34.83-32.16 34.83-100.5 0-68.33-34.83-100.5-34.83-32.16-106.5-32.16h-45V-346ZM243.33-244q-52 0-88.66-21-36.67-21-55.34-60.67-9-19.33-3.16-38.33 5.83-19 25.16-28 19.34-9 38.34-1.5 19 7.5 28.66 25.17 8 16.66 23.34 25.16 15.33 8.5 36 8.5 27.33 0 43.83-14.66 16.5-14.67 16.5-41 0-28.67-19.17-43.17-19.16-14.5-50.16-14.5h-2q-17 0-29.34-12.83Q195-473.67 195-491.33q0-17 12-28.17 12-11.17 29-11.17 29.67 0 44.83-11.66Q296-554 296-581q0-21-13.67-33.83-13.66-12.84-37.66-12.84-16.67 0-30.84 8.17-14.16 8.17-22.16 21.83-9 16.67-27.34 21.5-18.33 4.84-35-4.16-16.66-9-21.83-27-5.17-18 4.5-34.67 7.33-13.33 17-23.83 9.67-10.5 21.67-18.5 18.66-14 43.16-21.5 24.5-7.5 51.5-7.5 65 0 105.34 35.16Q391-643 391-591q0 27.67-11.67 50-11.66 22.33-38.66 42.33v5.67q33.66 16.67 49.5 41.67 15.83 25 15.83 66.66 0 69-45.5 104.84Q315-244 243.33-244Z"/></svg>