<svg xmlns="http://www.w3.org/2000/svg" height="40" viewBox="0 -960 960 960" width="40"><path d="M522.46-274.38q-16.32 0-27.18-10.86-10.85-10.85-10.85-27.18v-333.41q0-16.17 10.85-27.03 10.86-10.85 27.18-10.85h97.86q98.42 0 150.27 52.85 51.85 52.86 51.85 151.77 0 98.9-52.36 151.8-52.37 52.91-149.76 52.91h-97.86Zm35.18-70.86h60.21q67.36 0 99.78-32.67 32.43-32.68 32.43-101.26 0-68.59-32.43-101.26-32.42-32.68-99.78-32.68h-60.21v267.87ZM269.71-265.3q-45.15 0-77.25-18.34t-48.24-52.93q-6.46-14.26-1.51-28.7 4.94-14.43 19.2-20.9 14.26-6.46 28.57-.99t21.69 18.83q8 16.66 23.21 25.16t35.87 8.5q29.87 0 47.77-16.31 17.89-16.32 17.89-45.19 0-28.16-18.78-43.8-18.79-15.64-52.33-15.64h-2q-13.7 0-23.5-9.92-9.79-9.91-9.79-24.28 0-13.7 9.46-22.72 9.46-9.01 23.17-9.01 29.41 0 45.47-13.69 16.05-13.7 16.05-39.18 0-24.04-14.81-37.38-14.81-13.34-41.34-13.34-18.7 0-32.74 7.79-14.04 7.78-22.04 22.21-6.46 13.12-20.23 16.81-13.77 3.69-26.88-2.77-13.12-6.47-16.89-19.9-3.77-13.44 2.85-26.55 6.32-11.82 14.84-21.81 8.53-9.99 19.77-17.99 16.13-11.72 37.2-18.33 21.08-6.61 44.53-6.61 56.38 0 91.76 30.09 35.39 30.1 35.39 78.8 0 29.44-12.04 50.38-12.05 20.94-35.75 36.88v3.89q30.36 13.88 45.82 38.62 15.45 24.75 15.45 60.33 0 61.39-38.4 94.69t-101.44 33.3Z"/></svg>