<svg xmlns="http://www.w3.org/2000/svg" height="24" viewBox="0 -960 960 960" width="24"><path d="M512-323.5q-12.5 0-20.5-8.25t-8-20.75v-259q0-12 8-20.25T512-640h77.5q67 0 102.5 43.75T727.5-482q0 71-35.5 114.75T589.5-323.5H512Zm-2-27.5h80q54.5 0 82.75-36.25t28.25-94.5q0-58.25-28.25-94.5T590-612.5h-80V-351Zm-182.5 34.5q-31.5 0-52.5-12.5t-32-36q-2-5-.25-11.25t6.75-8q5-1.75 10.75.25t8.75 6.5q8 16.5 23 25.25t36.5 8.75q31 0 48.75-18t17.75-49q0-29-20.25-46.75T323.5-475H321q-6 0-9.75-4t-3.75-10.5q0-6 4-10.25T322-504q25.5 0 43.5-16t18-42q0-26-16.25-41.75T322.5-619.5q-20 0-33.75 8.75T267.5-586q-2.5 5-7.5 6.25t-9.5-.75q-5-2-6.25-7t.75-10q5-9.5 10.75-17.25T269.5-629q11-9 24-13.5t29-4.5q38.5 0 63.75 23.5T411.5-566q0 24.5-11.25 43.25T367-493v1.5q25.5 10.5 40 30.75T421.5-412q0 44-25.25 69.75T327.5-316.5Z"/></svg>