<svg xmlns="http://www.w3.org/2000/svg" height="48" viewBox="0 -960 960 960" width="48"><path d="M527-260q-21 0-33.5-12.5T481-306v-347q0-20 12.5-32.5T527-698h100q107 0 164 56t57 164q0 108-56 163t-165 55H527Zm41-83h55q69 0 104.5-33.5t35.5-102q0-68.5-35.5-103T623-616h-55v273Zm-318 93q-48 0-82.5-20T114-329q-7-15-2-32.5t21.5-25.5q16.5-8 34-.5T194-366q8 17 23.5 25.5T254-332q30 0 47.5-15.5T319-392q0-30-20-44t-52-14h-2q-16 0-27-12t-11-29q0-16 11-26t27-10q29 0 45-12t16-41q0-21-14-35t-41-14q-19 0-33.5 9T196-598q-8 14-25 18.5t-30-3.5q-14-7-19.5-23t3.5-31q6-12 16-22.5t22-19.5q17-13 40-21t48-8q61 0 100.5 34t39.5 84q0 30-11.5 51.5T342-498v4q33 17 48.5 41.5T406-390q0 68-43.5 104T250-250Z"/></svg>