<svg xmlns="http://www.w3.org/2000/svg" height="24" viewBox="0 -960 960 960" width="24"><path d="M533-302q-18 0-30.5-12.5T490-345v-271q0-18 12.5-30.5T533-659h77q88 0 131 47.5T784-480q0 84-42 131t-132 47h-77Zm16-52h57q59 0 89-35t30-91q0-56-30-91t-89-35h-57v252Zm-243 60q-39 0-65-15.5T201-354q-5-11-2-22.5t14-16.5q11-5 22.5-1t16.5 15q8 17 23 25.5t37 8.5q26 0 40.5-16t14.5-43q0-29-19.5-45.5T300-466h-2q-9 0-15.5-7.5T276-490q0-9 6.5-16t15.5-7q26 0 43-14t17-40q0-22-15-37.5T304-620q-16 0-29.5 9T254-586q-5 9-16 12t-20-2q-9-5-12-16t2-19q6-11 13.5-19.5T237-645q15-12 31.5-17t37.5-5q48 0 78 29t30 66q0 21-11 41t-37 36v5q29 13 44 33t15 57q0 51-33 78.5T306-294Z"/></svg>