<svg xmlns="http://www.w3.org/2000/svg" height="20" viewBox="0 -960 960 960" width="20"><path d="M530.42-292.11q-17.52 0-29.59-11.99-12.07-11.98-12.07-29.38v-292.43q0-17.39 12.07-29.57 12.08-12.17 29.6-12.17h83.63q94.42 0 143.17 47.67 48.75 47.68 48.75 140.22 0 92.54-49.01 140.1-49.01 47.55-142.96 47.55h-83.59Zm35.15-72.13h44.71q62.22 0 90.06-27.26 27.83-27.26 27.83-88.26t-27.83-88.26q-27.84-27.26-90.06-27.26h-44.71v231.04Zm-278.61 81.37q-43.58 0-75.28-17.58-31.7-17.57-46.57-50.91-7.05-14.49-1.69-29.66 5.36-15.18 20.28-22.13 14.91-6.96 29.63-1.18 14.73 5.78 22.58 20.33 7.25 14.06 20.5 21.53 13.26 7.47 31.38 7.47 24.41 0 38.81-12.9 14.4-12.9 14.4-37.42 0-24.53-16.35-38.67-16.34-14.14-45.13-14.14h-1.8q-13.45 0-22.28-9.58-8.83-9.57-8.83-22.77 0-13.19 8.83-22.53 8.83-9.34 22.28-9.34 25.24 0 39.88-11.28 14.64-11.28 14.64-33.26 0-20.54-13.12-32.31-13.12-11.76-34.47-11.76-15.78 0-27.4 6.62t-18.62 20.38q-6.96 13.44-21.13 17.8-14.17 4.36-27.61-2.6-13.43-6.96-17.79-21.63-4.36-14.68 2.6-28.11 6.47-11.48 14.42-20.16 7.95-8.69 18.01-15.8 15.96-11.71 35.27-17.07 19.32-5.36 43.56-5.36 53.54 0 86.33 26.62 32.8 26.62 32.8 75.44 0 26.24-11.88 43.84-11.88 17.6-33.08 33.81v4.94q28.2 12.2 42.82 35.7 14.62 23.5 14.62 56.89 0 57.03-36.28 86.91-36.27 29.87-94.33 29.87Z"/></svg>