<svg xmlns="http://www.w3.org/2000/svg" height="24" viewBox="0 -960 960 960" width="24"><path d="M542.23-276.16q-20.46 0-34.81-14.34-14.34-14.35-14.34-34.81v-307.3q0-20.47 14.34-34.81 14.35-14.35 34.81-14.35h86.23q105.23 0 157.77 51.81 52.54 51.81 52.54 151.19t-51.85 151q-51.84 51.61-158.46 51.61h-86.23ZM581-355.23h41.61q65.16 0 96.7-31.62 31.53-31.61 31.53-91.92t-31.53-91.92q-31.54-31.62-96.7-31.62H581v247.08Zm-305.77 88.31q-47 0-79.77-18.58-32.77-18.58-49.84-54.35-8.08-16.54-2.62-33.27 5.46-16.73 22-24.8 16.54-8.08 33.27-1.93 16.73 6.16 24.81 22.7 8 16.38 22.38 24.57 14.39 8.2 35.16 8.2 24.15 0 38.34-14.16 14.2-14.15 14.2-38.69 0-27.16-17.97-42.42-17.96-15.27-46.57-15.27h-2q-13.93 0-23.81-10.58-9.88-10.58-9.88-24.5t9.57-24q9.58-10.08 23.5-10.08 27.85 0 43-12.15 15.16-12.15 15.16-36.31 0-20.15-13.77-33.81Q296.62-620 275.08-620q-14.77 0-27.66 8.38-12.88 8.39-19.88 22.54-8.08 14.54-24.31 19.08-16.23 4.54-30.77-3.54-14.53-8.08-19.07-24.31-4.54-16.23 3.54-29.76 6.61-12.24 15.65-21.66t18.88-16.65q18.08-13.23 39.2-19.16 21.11-5.92 47.03-5.92 57.85 0 93.39 31.46t35.54 78.93q0 24.07-11.62 44.99-11.61 20.93-37.61 38.77v6.23Q388.85-477 404.15-453q15.31 24 15.31 63.46 0 60.23-40.38 91.42-40.39 31.2-103.85 31.2Z"/></svg>