<svg xmlns="http://www.w3.org/2000/svg" height="40" viewBox="0 -960 960 960" width="40"><path d="M527.56-284.31q-16.56 0-28.09-11.52-11.52-11.53-11.52-28.09v-311q0-16.31 11.52-27.96 11.53-11.66 28.09-11.66h90.7q94.92 0 143.97 50.94 49.05 50.93 49.05 144.57 0 93.9-48.56 144.31-48.57 50.41-144.46 50.41h-90.7Zm30.21-65.13h57.05q62.9 0 94.97-33.35 32.08-33.36 32.08-96.24 0-62.87-32.08-96.43-32.07-33.57-94.97-33.57h-57.05v259.59Zm-274.38 74.36q-42.85 0-72.59-17.24-29.75-17.25-45.75-50.86-6.59-13.05-2.07-26.5 4.51-13.45 17.89-20.04 13.39-6.59 27.17-1.18 13.78 5.41 20.12 17.8 8.25 16.79 23.38 25.32 15.13 8.52 36.31 8.52 27.38 0 43.65-16.1t16.27-43.87q0-28.9-19.17-43.96-19.16-15.07-49.52-15.07h-2q-12.18 0-20.73-9.24t-8.55-22.09q0-12.18 8.37-20.85 8.37-8.66 20.55-8.66 27.44 0 43.87-12.9 16.44-12.9 16.44-39.46 0-22.31-14.64-36.63-14.64-14.32-39.82-14.32-17.59 0-31.35 8.64-13.76 8.64-20.76 22.95-6.33 11.97-19.61 15.64t-24.59-2.92q-11.72-6.34-15.51-19.08-3.8-12.74 2.79-24.13 5.95-11.15 14.45-20.78t18.35-16.86q15.66-11.89 35.03-18.15 19.38-6.26 42.73-6.26 53.44 0 87.11 30.21 33.66 30.2 33.66 73.87 0 26.08-11.2 46.79-11.21 20.72-36.54 36.72v4.49q30.38 14.18 45.15 36.54t14.77 58.89q0 58.23-37.1 89.5-37.1 31.27-96.56 31.27Z"/></svg>