<svg xmlns="http://www.w3.org/2000/svg" height="20" viewBox="0 -960 960 960" width="20"><path d="M513.62-332.31q-12.29 0-20.38-8-8.09-8.01-8.09-20.18v-242.49q0-12.17 8.1-20.37 8.09-8.19 20.39-8.19h72.56q66.18 0 100.26 40.62 34.08 40.61 34.08 109.38t-34.19 109q-34.2 40.23-100.2 40.23h-72.53Zm2.38-30.15h69.69q52.85 0 77.93-31.73 25.07-31.73 25.07-87.35 0-55.61-25.07-87.34-25.08-31.74-77.93-31.74H516v238.16Zm-180.54 37.61q-30.94 0-52.51-12.65-21.57-12.65-31.63-35.62-2.24-5.65-.32-12.61 1.92-6.96 8-9.12 6.08-2.15 12.47.22 6.39 2.37 9.68 8.32 7.25 14.83 21.16 22.69 13.9 7.85 33.56 7.85 27.67 0 43.05-15.81 15.39-15.8 15.39-44.35 0-26.84-18.15-42.88-18.15-16.04-47.13-16.04h-1.8q-6.1 0-9.74-4.65-3.64-4.65-3.64-10.5t4.02-10.5q4.03-4.65 10.13-4.65 22.69 0 40-14.31t17.31-38.12q0-23.8-15.02-38.11Q355.27-610 329.89-610q-18.27 0-30.54 7.27t-19.27 23.58q-2.16 5.07-8.12 7.15-5.96 2.08-11.04-.08-5.07-2.15-7.15-8.61-2.08-6.46.08-11.54 5.23-9.46 10.89-16.75 5.67-7.29 13.18-12.87 11.16-9.46 23.39-13.3Q313.54-639 330.2-639q37.88 0 61.95 21.63 24.08 21.64 24.08 56.18 0 23.11-11.23 38.96-11.23 15.85-31.23 28.32v2.68q23.92 10.23 38.04 28.73 14.11 18.5 14.11 46.42 0 42.63-24.41 66.93-24.4 24.3-66.05 24.3Z"/></svg>