<svg xmlns="http://www.w3.org/2000/svg" height="20" viewBox="0 -960 960 960" width="20"><path d="M507.16-344.5q-10.87 0-17.76-7.06-6.9-7.07-6.9-17.81v-225.88q0-10.25 6.9-17.5t17.77-7.25h68.61q57.72 0 87.72 38.25t30 99.75q0 62-30 99.75t-87.78 37.75h-68.56ZM501-364h75.45q49.05 0 73.3-32.25t24.25-85.5q0-53.25-24.25-85.5t-73.3-32.25H501V-364Zm-152.5 26.5q-27.45 0-45.47-11.5-18.03-11.5-26.94-31.43-1.09-3.57-.34-8.32t4.75-5.5q4-.75 8.18.81t6.32 4.94q7.25 14.56 20.88 22.28 13.64 7.72 33.26 7.72 28.36 0 44.11-16T409-419.97q0-27.53-18.48-42.78Q372.05-478 344.3-478H342q-4.25 0-6.87-3.5-2.63-3.5-2.63-8 0-4 2.88-7.75Q338.25-501 343-501q20.5 0 38.5-14t18-38.5q0-24.5-15.23-38.75t-42.04-14.25q-18.73 0-30.98 7.25T292.5-576q-1.5 3-5 4.25t-6 .25q-3-1-4.25-5t-.25-7q5-8.5 9.84-15.19 4.84-6.7 11.66-12.31 10-9 20-12.5t23.81-3.5q33.69 0 55.44 20.71t21.75 49.33q0 21.46-9.75 36.71T380-493.22v1.72q22.5 10.5 35.5 26.25t13 42.25q0 39.16-21.39 62.33T348.5-337.5Z"/></svg>