<svg xmlns="http://www.w3.org/2000/svg" height="48" viewBox="0 -960 960 960" width="48"><path d="M513.07-278.52q-14.42 0-23.61-9.45-9.2-9.44-9.2-23.86v-334.34q0-13.68 9.2-23.12 9.19-9.45 23.61-9.45h100.02q93.78 0 143.93 51.95 50.15 51.94 50.15 148.03 0 96.59-50.54 148.41-50.54 51.83-143.54 51.83H513.07Zm33.1-65.72h65.7q65.7 0 98.16-32.63 32.47-32.63 32.47-101.76t-32.47-101.76q-32.46-32.63-98.16-32.63h-65.7v268.78Zm-273.08 74.72q-42.92 0-72.98-18.22-30.07-18.22-45.78-51.15-5.72-13.44-1.73-26.5 3.99-13.07 17.42-18.53 13.44-5.47 26.5-.37 13.07 5.09 19.78 16.79 8 16.5 23 24.75t35.5 8.25q31.29 0 50.18-16.52t18.89-46.81q0-29.24-18.87-43.13-18.87-13.89-52.15-13.89h-2.5q-12.96 0-22.93-9.83-9.96-9.84-9.96-24.3 0-12.95 9.21-21.8 9.22-8.85 22.68-8.85 27.5 0 44.26-13.15 16.76-13.15 16.76-39.13 0-24.55-14.64-37.43-14.64-12.88-43.93-12.88-19.52 0-33.77 7.37-14.25 7.37-21.75 21.13-6.21 11.46-18.78 14.82-12.57 3.36-23.52-2.36-11.46-5.72-14.94-17.78-3.48-12.07 2.48-23.53 6.24-11.47 14.6-21.34t19.1-17.87q15.71-11.72 35.42-18.46t41.16-6.74q54.9 0 89.58 30.44 34.69 30.43 34.69 74.39 0 29.02-10.14 49.63-10.13 20.61-34.08 36.8v2.98q29.45 15.22 43.57 37.09 14.12 21.87 14.12 57.04 0 61.15-37.53 95.12-37.53 33.97-98.92 33.97Z"/></svg>