<svg xmlns="http://www.w3.org/2000/svg" height="48" viewBox="0 -960 960 960" width="48"><path d="M509-284.5q-12.5 0-20.5-8.25t-8-20.75v-331q0-12 8-20.25T509-673h100.5q89 0 137 50.75t48 143.25q0 93-48.75 143.75T609.5-284.5H509Zm30-59.5h70q64.5 0 96.25-32.75t31.75-102q0-69.25-31.75-102T609-613.5h-70V-344Zm-258.5 68.5q-41 0-69.75-17.5T167-342q-5-12-1.25-23.75t15.75-16.5q12-4.75 23.75-.25t17.75 15q8 16.5 23 24.75t35.5 8.25q32 0 51.25-17t19.25-48q0-29-18.75-43.25T280.5-457H278q-12 0-21.25-9t-9.25-22.5q0-12 8.5-20.25t21-8.25q27.5 0 44.5-13.75t17-39.25q0-25.5-15-38.5t-45-13q-20 0-34.25 7.25T222.5-593q-5.5 10.5-16.75 13.5t-21.25-2q-10.5-5-13.5-15.75t2-21.25q6-11 14-20.75T205.5-657q15-11 33.75-17.5t39.25-6.5q52.5 0 85.75 29t33.25 72q0 29.5-10.25 49.75T354-495v2.5q28.5 14.5 42.5 36.25t14 55.25q0 59-35.5 92.25t-94.5 33.25Z"/></svg>