<svg xmlns="http://www.w3.org/2000/svg" height="24" viewBox="0 -960 960 960" width="24"><path d="M529.26-276.11q-17.65 0-30.33-12.67-12.67-12.68-12.67-30.33v-319.54q0-17.65 12.67-30.33 12.68-12.67 30.33-12.67h91.02q100.7 0 153.7 51.67 53 51.68 53 150.72 0 98.54-53.26 150.85-53.26 52.3-153.44 52.3h-91.02Zm39.31-79.13h48.76q66.17 0 97.01-29.76 30.83-29.76 30.83-94.26t-30.83-94.01q-30.84-29.51-97.01-29.51h-48.76v247.54Zm-300.11 88.37q-46.13 0-79.06-18.83-32.92-18.82-49.38-54.23-7.46-15.92-1.85-32.09 5.61-16.18 21.53-23.63 15.91-7.46 31.95-1.49 16.05 5.97 24.26 21.64 8 15 21.62 23 13.62 8 32.62 8 27.05 0 43.7-14.4 16.65-14.4 16.65-39.95 0-26-16.87-39.89t-48.41-13.89h-2.5q-15.2 0-25.66-10.58-10.45-10.57-10.45-26.27 0-15.19 10.2-25.53 10.21-10.34 25.41-10.34 28.24 0 42.38-11.53 14.14-11.53 14.14-34.51 0-21.54-13.39-33.31-13.39-11.76-37.44-11.76-17.04 0-29.66 7.12-12.62 7.12-20.12 19.88-7.96 14.44-23.13 18.55-15.17 4.11-29.61-3.85-14.43-7.96-18.54-23.13-4.11-15.18 3.85-29.61 6.47-11.98 15.08-21.22 8.61-9.24 19.35-17.24 16.96-11.71 38.02-18.32 21.07-6.61 45.5-6.61 57.85 0 93.64 29.66 35.8 29.66 35.8 79.36 0 28.78-11.13 48.88t-33.83 36.53v3.72q29.2 13.7 43.82 38.45 14.62 24.75 14.62 59.64 0 61.87-39.64 94.82-39.63 32.96-103.47 32.96Z"/></svg>