<svg xmlns="http://www.w3.org/2000/svg" height="24" viewBox="0 -960 960 960" width="24"><path d="M524.23-295.16q-15.46 0-25.81-10.34-10.34-10.35-10.34-25.81v-298.3q0-15.47 10.34-25.81 10.35-10.35 25.81-10.35h87.23q86.23 0 131.77 48.81 45.54 48.81 45.54 136.19t-45.85 136.5q-45.84 49.11-131.46 49.11h-87.23ZM545-350.23h64.61q62.16 0 92.2-33.62 30.03-33.61 30.03-96.92t-30.03-96.92q-30.04-33.62-92.2-33.62H545v261.08Zm-249.77 63.31q-40 0-68.77-15.58-28.77-15.58-42.84-46.35-5.08-10.54-.62-22.27t15-16.8q10.54-5.08 21.77-.93 11.23 4.16 17.31 14.7 8 16.38 22.88 25.07 14.89 8.7 35.66 8.7 29.15 0 46.34-16.66 17.2-16.65 17.2-45.19 0-27.16-18.97-44.92-18.96-17.77-51.57-17.77h-2q-10.93 0-17.81-7.08-6.88-7.08-6.88-18t7.07-18q7.08-7.08 18-7.08 28.85 0 45-15.15 16.16-15.15 16.16-39.31 0-24.15-15.27-38.81Q317.62-623 292.08-623q-18.77 0-32.16 8.38-13.38 8.39-21.38 23.54-5.08 10.54-15.81 13.58-10.73 3.04-21.27-2.04-10.53-5.08-13.57-15.81-3.04-10.73 2.04-21.26 5.61-11.24 13.15-20.16t17.38-16.15q14.08-10.23 32.2-15.66 18.11-5.42 40.03-5.42 48.85 0 79.89 25.96t31.04 72.43q0 28.07-13.12 47.99-13.11 19.93-35.11 32.77v3.23q28.46 10.62 44.26 36.12 15.81 25.5 15.81 56.96 0 53.23-32.88 82.42-32.89 29.2-87.35 29.2Z"/></svg>