<svg xmlns="http://www.w3.org/2000/svg" height="24" viewBox="0 -960 960 960" width="24"><path d="M550.63-254.98q-23.67 0-40.13-16.45-16.46-16.46-16.46-40.14v-333.1q0-23.68 16.46-40.13 16.46-16.46 40.13-16.46h91.76q119.83 0 180 55.69 60.18 55.7 60.18 167.57 0 111.87-59.56 167.45-59.55 55.57-180.62 55.57h-91.76Zm54.67-100.54h29.61q70.2 0 103.3-29.62Q771.3-414.76 771.3-478q0-63.24-33.09-92.98-33.1-29.74-103.3-29.74H605.3v245.2ZM248.83-244.74q-53.44 0-91.51-21.22-38.08-21.21-57.8-62.41-10.24-20.72-3.12-41.79 7.12-21.08 28.08-31.56 20.95-10.48 42.03-2.5 21.08 7.98 31.56 28.7 8 16 22.11 24 14.12 8 34.12 8 23 0 36.77-12.64 13.76-12.64 13.76-35.41 0-26-17.24-40.5t-46-14.5h-2q-17.72 0-30.2-13.09-12.48-13.1-12.48-30.82t12.1-30.07q12.1-12.36 29.82-12.36 29.47 0 43.24-10.76 13.76-10.76 13.76-34.24 0-18.52-12.88-31.02t-32.65-12.5q-13.52 0-26.26 8.23-12.74 8.24-19.74 21-10.47 18.72-30.93 24.34-20.46 5.62-39.17-4.86-18.72-10.24-24.46-30.69-5.74-20.46 4.74-38.42 7.24-13.24 17.48-23.35 10.24-10.12 21.47-18.36 20.48-14.24 45.32-21.1 24.84-6.86 54.55-6.86 65.92 0 106.11 34.08 40.2 34.07 40.2 89.27 0 26-12.12 47.86t-38.6 41.57v7.24q33.72 14.72 49.46 41.58 15.74 26.86 15.74 68.81 0 67.92-46.56 102.13-46.55 34.22-118.7 34.22Z"/></svg>