<svg xmlns="http://www.w3.org/2000/svg" height="20" viewBox="0 -960 960 960" width="20"><path d="M537.39-297.16q-18.83 0-32.07-13.15-13.24-13.16-13.24-31.87v-274.19q0-18.71 13.24-32.05 13.25-13.35 32.08-13.35h77.34q95.95 0 142.99 46.31 47.04 46.31 47.04 136.69t-46.35 136q-46.34 45.61-143.74 45.61h-77.29ZM572-368.23h37.07q59.7 0 87.24-27.62 27.53-27.61 27.53-82.92t-27.53-82.92q-27.54-27.62-87.24-27.62H572v221.08Zm-275.77 80.31q-42.94 0-72.74-17.58-29.8-17.58-44.79-49.78-7.16-15.11-2.7-30.34t20-22.3q15.54-7.08 30.7-1.37 15.17 5.72 22.38 21.14 7.25 14.44 20.27 21.6 13.02 7.17 31.9 7.17 21.52 0 33.71-12.16 12.2-12.15 12.2-35.16 0-25.69-16.19-38.45-16.19-12.77-41.55-12.77h-1.8q-12.18 0-20.94-10.08-8.75-10.08-8.75-22t8.45-21.5q8.45-9.58 20.62-9.58 22.85 0 38-10.15 15.16-10.15 15.16-32.81 0-18.65-12.75-30.81Q314.66-607 294.81-607q-13.5 0-24.89 6.88-11.38 6.89-17.38 21.04-7.08 12.54-21.81 17.08-14.73 4.54-27.27-2.54-12.53-7.08-17.07-22.31-4.54-15.23 2.54-26.76 6.61-11.24 14.74-19.6 8.13-8.37 16.79-14.71 17.08-13.23 35.2-18.16 18.11-4.92 41.85-4.92 53.03 0 85.07 28.67 32.04 28.67 32.04 70.76 0 21.03-10.12 38.45-10.11 17.43-34.11 36.05v6.45q28.46 13.62 42.26 33.12 13.81 19.5 13.81 56.96 0 55.4-36.52 84.01-36.53 28.61-93.71 28.61Z"/></svg>