<svg xmlns="http://www.w3.org/2000/svg" height="40" viewBox="0 -960 960 960" width="40"><path d="M814.99-570.76q-5.99-6.09-5.99-14.91V-696q0-12-10-22t-22-10H665.67q-8.82 0-14.91-6.25t-6.09-14.67q0-8.41 6.09-14.41t14.91-6H777q30.85 0 52.09 21.24 21.24 21.24 21.24 52.09v110.33q0 8.82-6.46 14.91t-14.68 6.09q-8.21 0-14.2-6.09Zm-683.66 6.09q-8.42 0-14.54-6.09-6.12-6.09-6.12-14.91V-696q0-30.85 21.24-52.09 21.24-21.24 52.09-21.24h111q8.17 0 14.25 6.25t6.08 14.66q0 8.42-6.08 14.42T295-728H184q-12 0-22 10t-10 22v110.33q0 8.82-6.13 14.91t-14.54 6.09Zm52.67 374q-30.85 0-52.09-21.24-21.24-21.24-21.24-52.09v-111q0-8.17 6.25-14.25t14.66-6.08q8.42 0 14.42 6.08t6 14.25v111q0 12 10 22t22 10h111q8.17 0 14.25 6.25t6.08 14.67q0 8.41-6.08 14.41t-14.25 6H184Zm213.33-175v-228.66q0-10.67 9.5-15 9.5-4.34 18.84-.34L603-496q8 5.57 8 15.95 0 10.38-8 15.38L425.67-351q-9.34 4.67-18.84.33-9.5-4.33-9.5-15Zm252 404q-8.16 0-14.25-6.11Q629 26.1 629 17.88q0-8.21 6.08-14.55Q641.17-3 649.33-3h248q8.45 0 14.73 6.46 6.27 6.46 6.27 14.68 0 8.22-6.27 14.2-6.28 5.99-14.73 5.99h-248Zm102.34-227v-185q0-8.16 6.11-14.25 6.12-6.08 14.34-6.08 8.21 0 14.55 6.08 6.33 6.09 6.33 14.25v186.34l72.33-74q6-6 14.67-6.5t14.7 5.21q6.97 7.29 6.97 15.29 0 8-7 14.33L785.81-124.51q-5.54 5.51-13.67 5.51-8.14 0-13.01-5.51L650.67-233q-6-5.33-6.34-13.93-.33-8.6 6.34-15.4 7-6.34 14.83-5.84t14.5 6.84l71.67 72.66Z"/></svg>