<svg xmlns="http://www.w3.org/2000/svg" height="20" viewBox="0 -960 960 960" width="20"><path d="M813.86-570.35q-14.85-14.83-14.85-36.08v-95.33H702.2q-21.35 0-36.01-14.89-14.67-14.89-14.67-35.93 0-21.05 14.85-35.91 14.84-14.86 36.13-14.86h92.92q43.96 0 74.44 30.6 30.49 30.61 30.49 74.47v91.81q0 21.32-14.77 36.13-14.77 14.82-35.82 14.82-21.04 0-35.9-14.83Zm-702.08 14.83q-21.17 0-36.15-14.85-14.98-14.84-14.98-36.13v-91.92q0-43.96 30.6-74.44 30.61-30.49 74.47-30.49h91.81q21.32 0 36.13 14.65 14.82 14.65 14.82 35.7 0 21.04-14.67 36.02-14.66 14.97-36.01 14.97h-95.56v95.81q0 21.35-14.77 36.01-14.77 14.67-35.69 14.67Zm53.8 398.87q-43.96 0-74.44-30.64-30.49-30.63-30.49-74.54v-93.47q0-21.56 14.77-36.37 14.77-14.81 35.82-14.81 21.04 0 36.02 14.81 14.98 14.81 14.98 36.37v97.06h95.56q21.35 0 36.01 14.77 14.67 14.77 14.67 35.81 0 21.05-14.68 36.03-14.69 14.98-36.06 14.98h-92.16Zm204.66-178.18v-290.03q0-16.39 13.46-23.43 13.45-7.04 27.17.44l227.5 146.18q11.72 7.81 11.72 21.84 0 14.03-11.72 21.5l-227.5 146.18q-13.72 7.48-27.17.19-13.46-7.29-13.46-22.87ZM661.61 82.89q-19.47 0-33.42-13.71-13.95-13.71-13.95-33.06 0-19.36 13.79-33.38 13.79-14.02 33.26-14.02h220.8q19.47 0 33.42 13.76 13.95 13.75 13.95 33.18t-13.79 33.33q-13.79 13.9-33.26 13.9h-220.8ZM724-273.04v-95.97q0-19.55 13.71-33.39t33.07-13.84q19.35 0 33.37 13.84 14.02 13.84 14.02 33.39v97.73l15.63-16.63q14.47-14.52 33.66-14.02 19.19.5 32.69 13.94 14.55 14.49 14.55 32.71 0 18.21-14.53 32.74L790.28-113.41q-7.45 7.48-18.8 7.48-11.35 0-18.83-7.48L643.52-222.54q-14.56-14.47-14.04-33.16.52-18.69 14.02-32.19 14.54-14.54 33.75-14.04 19.22.5 32.64 15.02L724-273.04Z"/></svg>