<svg xmlns="http://www.w3.org/2000/svg" height="48" viewBox="0 -960 960 960" width="48"><path d="M812.92-568.62q-3.77-4.34-3.77-11.19v-124.23q0-9.23-7.69-16.92-7.69-7.69-16.92-7.69H659.81q-6.85 0-11.19-4.4-4.35-4.4-4.35-10.89 0-6.48 4.35-10.69 4.34-4.22 11.19-4.22h124.73q21.94 0 38.37 16.17 16.44 16.17 16.44 38.64v124.23q0 6.85-4.4 11.19-4.4 4.35-11.33 4.35t-10.7-4.35Zm-676.42 4.35q-6.92 0-11.13-4.35-4.22-4.34-4.22-11.19v-124.23q0-22.47 16.17-38.64t38.64-16.17h125.12q5.88 0 10.27 4.4 4.38 4.4 4.38 10.89 0 6.48-4.38 10.69-4.39 4.22-10.27 4.22H175.96q-9.23 0-16.92 7.69-7.69 7.69-7.69 16.92v124.23q0 6.85-4.44 11.19-4.44 4.35-10.41 4.35Zm39.46 363.12q-22.47 0-38.64-16.17t-16.17-38.64v-125.12q0-5.88 4.4-10.27 4.4-4.38 11.08-4.38 6.29 0 10.5 4.38 4.22 4.39 4.22 10.27v125.12q0 9.23 7.69 16.92 7.69 7.69 16.92 7.69h125.12q5.88 0 10.27 4.4 4.38 4.4 4.38 10.89 0 6.48-4.38 10.69-4.39 4.22-10.27 4.22H175.96Zm225.85-165.93v-226.59q0-7.37 7.25-10.54 7.25-3.17 14.1-.62l176.65 112.64q5.84 3.31 5.84 11.83 0 8.53-5.73 12.48L423.04-356.73q-6.73 4.11-13.98.94-7.25-3.17-7.25-11.29Zm250 346.7q-6.85 0-11.19-3.96-4.35-3.96-4.35-10.89 0-6.92 4.35-11.14 4.34-4.21 11.19-4.21h248.65q5.89 0 10.27 4.4 4.39 4.4 4.39 11.33t-4.39 10.7q-4.38 3.77-10.27 3.77H651.81Zm107.61-167.47v-196.11q0-5.89 4.4-10.27 4.4-4.39 10.89-4.39 6.48 0 10.69 4.39 4.22 4.38 4.22 10.27v196l82.8-83.85q3.89-3.65 10.76-3.96 6.86-.31 10.81 4.01 4.63 4.99 4.63 11.11 0 6.11-4.74 10.85L784.12-140.31q-3.36 3.54-9.71 3.54-6.35 0-10.15-3.54l-109.3-109.57q-4.15-3.89-4.4-10.32t4.4-11.22q4.66-4.66 10.77-4.16 6.12.5 10.77 3.77l82.92 83.96Z"/></svg>