<svg xmlns="http://www.w3.org/2000/svg" height="24" viewBox="0 -960 960 960" width="24"><path d="M808.41-569.2q-12.19-12.19-12.19-29.13v-117.39H678.09q-17.03 0-29.06-12.19Q637-740.11 637-757.04q0-16.94 12.2-29.01 12.19-12.08 29.13-12.08h114.3q35.78 0 60.89 25.11t25.11 60.89v114.04q0 17.03-12.08 29.06Q854.48-557 837.54-557q-16.93 0-29.13-12.2ZM123.2-557q-16.94 0-29.13-12.2-12.2-12.19-12.2-29.13v-113.8q0-35.78 25.11-60.89t60.89-25.11h114.04q17.03 0 29.06 12.08Q323-773.98 323-757.04q0 16.93-12.03 29.13-12.03 12.19-29.06 12.19H164.28v117.63q0 17.03-12.03 29.06Q140.22-557 123.2-557Zm44.67 395.13q-35.78 0-60.89-25.11t-25.11-60.89v-114.04q0-17.03 12.2-29.06Q106.26-403 123.2-403q16.93 0 29.01 12.03 12.07 12.03 12.07 29.06v117.63h117.63q17.03 0 29.06 12.07Q323-220.13 323-203.2q0 16.94-12.03 29.13-12.03 12.2-29.06 12.2H167.87Zm213.22-180.3v-275.66q0-13.05 11.18-19.08 11.19-6.02 22.12.69l214.87 137.83q9.7 6.22 9.7 18.39 0 12.17-9.7 18.39L414.39-323.78q-10.93 6.71-22.12.69-11.18-6.03-11.18-19.08ZM642.63-.26q-15.5 0-26.5-11t-11-26.5q0-15.5 11-26.5t26.5-11h235q15.5 0 26.5 11t11 26.5q0 15.5-11 26.5t-26.5 11h-235Zm80.5-273.17v-130.5q0-15.5 11-26.5t26.5-11q15.5 0 26.5 11t11 26.5v129.5l39-38.5q10.5-10.5 25.75-10.5t26.25 11q10.5 10.5 10.5 26t-10.5 26L775.04-146.35q-6.21 6.22-14.91 6.22t-14.91-6.22L631.13-260.43q-10.5-10.5-10.75-25.75t10.75-26.25q10.5-10.5 25.75-10.75t26.25 10.25l40 39.5Z"/></svg>