<svg xmlns="http://www.w3.org/2000/svg" height="24" viewBox="0 -960 960 960" width="24"><path d="M822.74-579.5q-15.98-15.98-15.98-38.93v-107.33H698.2q-23.05 0-38.86-16.1-15.82-16.1-15.82-38.93 0-22.84 15.98-38.7 15.98-15.86 38.93-15.86h104.74q47.21 0 80.19 32.99 32.99 32.98 32.99 80.19v103.97q0 23.05-15.98 38.86-15.98 15.82-38.82 15.82-22.83 0-38.81-15.98ZM99.57-563.52q-22.96 0-38.94-15.98-15.98-15.98-15.98-38.93v-103.74q0-47.21 32.99-80.19 32.98-32.99 80.19-32.99H261.8q23.05 0 38.86 15.86 15.82 15.86 15.82 38.7 0 22.83-15.82 38.93-15.81 16.1-38.86 16.1H154.24v107.56q0 23.05-15.98 38.86-15.98 15.82-38.69 15.82Zm58.26 438.87q-47.21 0-80.19-32.99-32.99-32.98-32.99-80.19V-341.8q0-23.05 15.98-38.86 15.98-15.82 38.82-15.82 22.83 0 38.81 15.82 15.98 15.81 15.98 38.86v107.56H261.8q23.05 0 38.86 15.98 15.82 15.98 15.82 38.81 0 22.84-15.82 38.82-15.81 15.98-38.86 15.98H157.83Zm208.41-202.18v-306.34q0-17.08 14.46-25.12 14.45-8.04 29.17.44l238.5 154.18q12.72 8.46 12.72 23.66 0 15.21-12.72 23.68l-238.5 154.18q-14.72 8.48-29.17.44-14.46-8.04-14.46-25.12ZM641.33 81.89q-21.19 0-36.14-14.92T590.24 30.9q0-21.14 14.95-36.16 14.95-15.02 36.14-15.02h245.04q21.19 0 36.14 14.97t14.95 36.18q0 21.22-14.95 36.12-14.95 14.9-36.14 14.9H641.33ZM712-289.04v-108.11q0-21.19 14.92-36.14t36.07-14.95q21.14 0 36.16 14.95 15.02 14.95 15.02 36.14v109.87l19.63-19.63q14.47-14.52 35.66-14.52 21.19 0 35.69 14.44 14.55 14.49 14.55 35.71 0 21.21-14.53 35.74L783.28-114.41q-8.45 8.48-19.8 8.48-11.35 0-19.83-8.48L622.52-235.54q-14.56-14.47-14.54-35.66.02-21.19 14.52-35.69 14.54-14.54 35.75-14.54 21.22 0 35.64 14.52L712-289.04Z"/></svg>