<svg xmlns="http://www.w3.org/2000/svg" height="48" viewBox="0 -960 960 960" width="48"><path d="M833.63-581.78q-10.76-10.9-10.76-28.35v-131.74h-133.3q-17.66 0-28.18-11.42-10.52-11.43-10.52-27.87 0-16.45 10.91-27.34 10.9-10.89 28.35-10.89h126.52q34.01 0 58.88 24.86 24.86 24.87 24.86 58.88v126.08q0 17.66-11.85 28.18t-27.99 10.52q-16.15 0-26.92-10.91ZM99.67-570.87q-16.56 0-27.53-10.91-10.97-10.9-10.97-28.35v-125.52q0-34.01 24.7-58.88 24.7-24.86 58.48-24.86h127.08q16.69 0 27.19 11.25 10.51 11.25 10.51 27.7 0 16.44-10.51 27.51-10.5 11.06-27.19 11.06h-133.3v132.3q0 17.66-11.24 28.18-11.25 10.52-27.22 10.52Zm44.68 429.7q-33.78 0-58.48-24.7-24.7-24.7-24.7-58.48v-127.08q0-16.69 11.15-27.19 11.14-10.51 27.41-10.51 16.28 0 27.34 10.51 11.06 10.5 11.06 27.19v133.3h133.3q16.69 0 27.19 11.42 10.51 11.42 10.51 27.7 0 16.27-10.51 27.05-10.5 10.79-27.19 10.79H144.35ZM377.7-337.91v-284.18q0-11.91 10.91-17.37 10.91-5.45 21.04.11l223.13 140.52q9.13 6.59 9.13 18.84t-9.13 17.25L409.65-320.65q-10.13 5.56-21.04.11-10.91-5.46-10.91-17.37ZM655.52 14.65q-12.85 0-22.16-9.29-9.32-9.29-9.32-22.11t9.32-22.69q9.31-9.87 22.16-9.87h260.74q12.71 0 22.6 9.93 9.88 9.92 9.88 22.9 0 12.99-9.88 22.06-9.89 9.07-22.6 9.07H655.52Zm96.96-254.82v-166.35q0-12.29 9.17-21.88 9.18-9.6 21.83-9.6 12.65 0 22.8 9.6 10.16 9.59 10.16 21.88v166.78l60.21-60.22q9.73-8.87 22.04-9.37 12.31-.5 22.7 8.19 9.91 10.37 9.91 23.3 0 12.93-9.86 21.67L798.65-133.83q-6.86 6.57-16.41 6.57-9.54 0-14.54-6.57L646.35-256.17q-9.48-8.59-9.96-21.57-.48-12.98 9.91-23.17 9.78-8.92 22.2-8.42t22.63 9.37l61.35 59.79Z"/></svg>