<svg xmlns="http://www.w3.org/2000/svg" height="40" viewBox="0 -960 960 960" width="40"><path d="M819.5-573.92q-9-9.25-9-22.58V-730h-134q-13.33 0-22.58-9.28-9.25-9.29-9.25-22.5 0-13.22 9.25-22.39 9.25-9.16 22.58-9.16h134q25.33 0 44.33 18.82t19 44.51v133.5q0 13.33-9.28 22.58-9.28 9.25-22.67 9.25-13.38 0-22.38-9.25Zm-701.12 9.25q-13.38 0-22.55-9.25-9.16-9.25-9.16-22.58V-730q0-25.69 18.82-44.51 18.82-18.82 44.51-18.82h133.83q12.95 0 22.23 9.28 9.27 9.28 9.27 22.5t-9.27 22.38q-9.28 9.17-22.23 9.17H150v133.5q0 13.33-9.31 22.58-9.31 9.25-22.31 9.25Zm31.62 398q-25.69 0-44.51-18.82Q86.67-204.31 86.67-230v-133.83q0-12.95 9.28-22.23 9.28-9.27 22.5-9.27t22.38 9.27q9.17 9.28 9.17 22.23V-230h133.83q12.95 0 22.23 9.28 9.27 9.29 9.27 22.5 0 13.22-9.27 22.39-9.28 9.16-22.23 9.16H150ZM384-339.5v-281.24q0-9.26 8.08-13.51 8.09-4.25 16.34.48l220.01 140.05q7.24 4.55 7.24 13.48t-7.17 13.91L408.33-326.5q-8.16 5-16.25.75Q384-330 384-339.5ZM637.83-.17q-13.33 0-22.58-9.11Q606-18.4 606-31.78q0-13.39 9.25-22.55 9.25-9.17 22.58-9.17h250q12.95 0 22.23 9.28 9.27 9.29 9.27 22.67 0 13.38-9.27 22.38-9.28 9-22.23 9h-250ZM730-246.67V-404.5q0-12.95 9.28-22.22 9.29-9.28 22.5-9.28 13.22 0 22.39 9.28 9.16 9.27 9.16 22.22v157.17L850-303.5q9.17-8.5 21.91-8.83 12.73-.34 22.09 9 9.17 9.16 9.17 22 0 12.83-9.23 22.05L772-138q-4.73 4.83-11.21 4.83T749.33-138L628.67-259.33q-8.84-9.17-9.09-21.98-.25-12.8 9.09-22.02 9.16-9.17 21.91-8.92t22.09 8.75L730-246.67Z"/></svg>