<svg xmlns="http://www.w3.org/2000/svg" height="40" viewBox="0 -960 960 960" width="40"><path d="M823.08-576.18q-11.26-11.51-11.26-27.86v-127.28H683.47q-16.56 0-27.68-11.54-11.12-11.55-11.12-27.71 0-16.15 11.51-27.56t27.86-11.41h120.81q34.93 0 60.06 24.96 25.13 24.95 25.13 60.23v120.88q0 16.56-11.53 27.68-11.52 11.12-27.84 11.12-16.33 0-27.59-11.51Zm-713.17 11.51q-16.22 0-27.64-11.51-11.43-11.51-11.43-27.86v-120.31q0-35.28 24.84-60.23 24.85-24.96 59.97-24.96h121.21q16.18 0 27.33 11.53 11.14 11.52 11.14 27.68t-11.14 27.58q-11.15 11.43-27.33 11.43H148.68v127.85q0 16.56-11.37 27.68-11.36 11.12-27.4 11.12Zm45.74 413.83q-35.12 0-59.97-24.84-24.84-24.85-24.84-59.97v-121.21q0-16.18 11.54-27.33 11.55-11.14 27.59-11.14 16.05 0 27.38 11.14 11.33 11.15 11.33 27.33v128.18h128.18q16.18 0 27.33 11.45 11.14 11.44 11.14 27.49 0 16.05-11.14 27.47-11.15 11.43-27.33 11.43H155.65ZM380.23-342.7v-274.84q0-12.18 10.91-17.89 10.91-5.71 22.17.34l214.55 136.47q9.69 6.01 9.69 18.45t-9.62 18.36l-214.7 136.63q-11.18 6.32-22.09.61t-10.91-18.13ZM654.04.4q-13.34 0-22.59-9.12t-9.25-22.5q0-13.38 9.25-22.55 9.25-9.16 22.59-9.16h250q12.57 0 22.03 9.28 9.47 9.28 9.47 22.67 0 13.38-9.47 22.38-9.46 9-22.03 9h-250Zm92.16-250.08v-157.83q0-12.58 9.21-22.04 9.21-9.46 22.31-9.46 13.11 0 22.46 9.46 9.36 9.46 9.36 22.04v157.16l56.66-56.16q9.17-8.5 21.72-8.84 12.55-.33 22.28 9 9.17 9.55 9.17 22.24 0 12.69-9.22 21.82L791.97-144.78q-6.22 6.15-15.25 6.15-9.03 0-14.95-6.15l-116.9-117.57q-9.18-9.07-9.44-21.73-.27-12.67 9.44-22.27 9.07-9.16 21.68-8.91t22.32 8.75l57.33 56.83Z"/></svg>