<svg xmlns="http://www.w3.org/2000/svg" height="20" viewBox="0 -960 960 960" width="20"><path d="M797.63-558.85q-9.88-9.85-9.88-23.65V-691H678.5q-13.8 0-23.65-9.79-9.85-9.79-9.85-23.5t9.87-23.71q9.87-10 23.69-10h109.19q27.75 0 47.25 19.62t19.5 47.27v108.33q0 13.78-9.79 23.78-9.79 10-23.5 10t-23.58-9.85ZM139.71-549Q126-549 116-558.87t-10-23.69v-108.69q0-27.75 19.62-47.25t47.27-19.5h108.33q13.78 0 23.78 9.79 10 9.79 10 23.5t-9.85 23.58q-9.85 9.88-23.65 9.88H173v108.75q0 13.8-9.79 23.65-9.79 9.85-23.5 9.85Zm33.04 347q-27.75 0-47.25-19.65T106-269v-110q0-14.01 9.79-24.01 9.79-9.99 23.5-9.99t23.71 9.99q10 10 10 24.01v110h108.5q13.8 0 23.65 9.79 9.85 9.79 9.85 23.5T305.13-212q-9.87 10-23.69 10H172.75ZM387-348.5v-262.68q0-10.82 8.75-15.07t17.25.75L619.5-494q7.5 4.86 7.5 14.18T619.5-466L413-334.5q-8.5 5-17.25.5T387-348.5ZM654.78.5Q641 .5 631-9.29q-10-9.79-10-23.5t9.84-23.71q9.84-10 23.62-10h210.76q13.78 0 23.78 9.79 10 9.79 10 23.5T889.16-9.5q-9.84 10-23.62 10H654.78ZM727-256v-118.36q0-13.86 9.79-23.75t23.5-9.89q13.71 0 23.71 9.89t10 23.75V-257l35-35.5q10.5-10.5 23.75-10T876-292q10.5 10.5 10.5 23T876-246L772-142q-4.5 4.5-12 4.5t-12-4.5L644-246q-10.5-10.5-10.25-23.25T644-292q10.5-10.5 23.75-10.25T691-291.5l36 35.5Z"/></svg>