<svg xmlns="http://www.w3.org/2000/svg" height="48" viewBox="0 -960 960 960" width="48"><path d="M819.48-573.02q-6.25-6.4-6.25-15.98v-118.62q0-9.23-7.69-16.92-7.69-7.69-16.92-7.69H669q-9.58 0-15.98-6.64-6.4-6.65-6.4-15.62 0-8.97 6.4-15.24T669-776h119.62q28.05 0 48.22 20.16Q857-735.67 857-707.62V-589q0 9.58-6.96 15.98t-15.63 6.4q-8.68 0-14.93-6.4Zm-693.6 6.4q-8.97 0-15.43-6.4Q104-579.42 104-589v-118.62q0-28.05 20.16-48.22Q144.33-776 172.38-776H292q8.6 0 14.99 6.64 6.39 6.64 6.39 15.62 0 8.97-6.39 15.24T292-732.23H172.38q-9.23 0-16.92 7.69-7.69 7.69-7.69 16.92V-589q0 9.58-6.46 15.98t-15.43 6.4ZM172.38-184q-28.05 0-48.22-20.16Q104-224.33 104-252.38V-372q0-8.6 6.64-14.99 6.64-6.39 15.62-6.39 8.97 0 15.24 6.39t6.27 14.99v119.62q0 9.23 7.69 16.92 7.69 7.69 16.92 7.69H292q8.6 0 14.99 6.64 6.39 6.65 6.39 15.62 0 8.97-6.39 15.24T292-184H172.38Zm222.08-175.23v-241.54q0-9.73 9.12-13.71 9.11-3.98 17.34-.52L609-495.23q7.23 5.09 7.23 15.16t-7.23 14.3l-188.08 120q-8.23 4.23-17.34.25-9.12-3.98-9.12-13.71ZM648 28q-8.6 0-14.99-6.44-6.39-6.44-6.39-15.12 0-8.67 6.39-15.44T648-15.77h252.23q9.03 0 15.71 6.96 6.68 6.96 6.68 15.63 0 8.68-6.68 14.93T900.23 28H648Zm103-224.08v-185.15q0-8.6 6.44-14.99 6.44-6.4 15.12-6.4 8.67 0 15.44 6.4 6.77 6.39 6.77 14.99v186.15l72.46-74q6.39-6.15 15.5-6.65 9.12-.5 15.53 5.32 7.12 7.49 7.12 16.33 0 8.85-7.15 15l-113.07 112.8q-5.1 5.05-13.05 5.05-7.96 0-12.04-5.05l-112.53-112.8q-6.16-5.38-6.66-14.56t6.66-16.44q7.15-6.15 15.5-5.65 8.34.5 15.5 6.65l72.46 73Z"/></svg>