<svg xmlns="http://www.w3.org/2000/svg" height="48" viewBox="0 -960 960 960" width="48"><path d="M819.46-572.74q-5.88-6.37-5.88-15.91v-132.12q0-4.61-3.85-8.46-3.85-3.85-8.46-3.85H668.65q-9.54 0-15.91-6.41-6.36-6.41-6.36-15.69t6.36-15.51q6.37-6.23 15.91-6.23h132.62q22.22 0 39.19 16.7 16.96 16.7 16.96 39.45v132.12q0 9.54-6.41 15.91-6.41 6.36-16.04 6.36-9.62 0-15.51-6.36Zm-694.3 6.36q-9.62 0-15.85-6.36-6.23-6.37-6.23-15.91v-132.12q0-22.75 16.7-39.45 16.7-16.7 39.45-16.7h132.81q8.78 0 15.18 6.41t6.4 15.69q0 9.28-6.4 15.51t-15.18 6.23H159.23q-4.61 0-8.46 3.85-3.85 3.85-3.85 8.46v132.12q0 9.54-6.45 15.91-6.45 6.36-15.31 6.36Zm34.07 383.3q-22.75 0-39.45-16.7-16.7-16.7-16.7-39.45v-132.81q0-8.78 6.41-15.18t15.79-6.4q9.18 0 15.41 6.4t6.23 15.18v132.81q0 4.61 3.85 8.46 3.85 3.85 8.46 3.85h132.81q8.78 0 15.18 6.41t6.4 15.69q0 9.28-6.4 15.51t-15.18 6.23H159.23Zm233.92-169.96v-254.47q0-7.76 7.25-11.22 7.25-3.46 14.49-.14l198.96 126.49q6.23 3.69 6.23 12.02 0 8.34-6.12 12.67L414.77-342.12q-7.12 4.31-14.37.85-7.25-3.46-7.25-11.77Zm252.5 342.85q-9.54 0-15.9-6.07-6.36-6.07-6.36-15.69 0-9.63 6.36-15.86 6.36-6.23 15.9-6.23h253.08q8.78 0 15.18 6.41 6.4 6.42 6.4 16.04 0 9.63-6.4 15.51-6.4 5.89-15.18 5.89H645.65Zm102.81-200.73v-183.81q0-8.78 6.42-15.18 6.41-6.4 15.69-6.4t15.51 6.4q6.23 6.4 6.23 15.18v183.5l74.15-74.42q6.19-5.58 15.37-5.98 9.18-.41 15.42 6 6.56 6.75 6.56 15.55 0 8.81-6.66 15.47l-117.34 116.7q-3.85 4.03-10.01 4.03t-10.42-4.03L643.23-254.69q-6.08-6.19-6.33-15.2-.25-9.01 6.33-15.57 6.58-6.58 15.39-6.08 8.8.5 15.38 5.89l74.46 74.73Z"/></svg>