<svg xmlns="http://www.w3.org/2000/svg" height="40" viewBox="0 -960 960 960" width="40"><path d="M806.5-564.84q-2.83-3.34-2.83-8.66v-117.67q0-12-10-22t-22-10H653.5q-5.32 0-8.66-3.38-3.34-3.37-3.34-8.33 0-4.95 3.34-8.2 3.34-3.25 8.66-3.25h118.17q22.68 0 38.92 16.06 16.24 16.07 16.24 39.1v117.67q0 5.32-3.38 8.66-3.37 3.34-8.75 3.34-5.37 0-8.2-3.34Zm-660.96 3.34q-5.37 0-8.62-3.34-3.25-3.34-3.25-8.66v-117.67q0-23.03 16.06-39.1 16.07-16.06 39.1-16.06h118.5q4.44 0 7.8 3.38 3.37 3.37 3.37 8.33 0 4.95-3.37 8.2-3.36 3.25-7.8 3.25h-118.5q-12 0-22 10t-10 22v117.67q0 5.32-3.4 8.66t-7.89 3.34Zm43.29 347.83q-23.03 0-39.1-16.06-16.06-16.07-16.06-39.1v-118.5q0-4.44 3.38-7.8 3.37-3.37 8.58-3.37 4.7 0 7.95 3.37 3.25 3.36 3.25 7.8v118.5q0 12 10 22t22 10h118.5q4.44 0 7.8 3.38 3.37 3.37 3.37 8.33 0 4.95-3.37 8.2-3.36 3.25-7.8 3.25h-118.5ZM407.17-376v-208.74q0-7.59 7.25-10.76t14.16-.44l162.35 103.72q5.9 3.55 5.9 11.98T591-467.83L428.5-365.5q-6.83 4.17-14.08 1t-7.25-11.5Zm247 349.67q-5.32 0-8.66-2.97-3.34-2.96-3.34-8.33t3.34-8.62q3.34-3.25 8.66-3.25h243.16q4.44 0 7.8 3.38 3.37 3.38 3.37 8.75t-3.37 8.2q-3.36 2.84-7.8 2.84H654.17Zm109-151.34V-377.5q0-4.43 3.38-7.8 3.37-3.37 8.33-3.37 4.95 0 8.2 3.37 3.25 3.37 3.25 7.8v199.67l85.84-87q2.83-2.84 8.24-3.09 5.4-.25 8.45 3.13 3.81 4.12 3.81 8.62 0 4.5-3.89 8.39L784.64-143.67q-3.54 3.67-9.85 3.67t-10.16-3.67L660.5-247.83q-3.17-2.84-3.42-7.84-.25-5.01 3.42-8.83 3.83-3.83 8.42-3.42 4.58.42 8.25 3.09l86 87.16Z"/></svg>