<svg xmlns="http://www.w3.org/2000/svg" height="20" viewBox="0 -960 960 960" width="20"><path d="M806.13-562.85q-6.88-6.85-6.88-16.15v-91q0-12-10-22t-22-10H675q-9.3 0-16.15-6.79-6.85-6.79-6.85-16t6.87-16.21q6.87-7 16.19-7h92.19Q801-748 823-725.88t22 55.77v90.83q0 9.28-6.79 16.28-6.79 7-16 7t-16.08-6.85ZM139.21-556q-9.21 0-16.21-6.87t-7-16.19v-91.19Q116-704 138.12-726t55.77-22h90.83q9.28 0 16.28 6.79 7 6.79 7 16t-6.85 16.08q-6.85 6.88-16.15 6.88h-91q-12 0-22 10t-10 22V-579q0 9.3-6.79 16.15-6.79 6.85-16 6.85Zm54.54 344Q160-212 138-234.15T116-290v-92.5q0-9.51 6.79-16.51 6.79-6.99 16-6.99t16.21 6.99q7 7 7 16.51v92.5q0 12 10 22t22 10h91q9.3 0 16.15 6.79 6.85 6.79 6.85 16T301.13-219q-6.87 7-16.19 7h-91.19ZM396-369v-221.68q0-12.32 9.5-16.82t20.5.5l173 111q9 6.36 9 16.18T599-464L426-353q-11 5-20.5.25T396-369ZM666.28 72Q657 72 650 65.21q-7-6.79-7-16T649.84 33q6.84-7 16.12-7h221.76Q897 26 904 32.79q7 6.79 7 16T904.16 65q-6.84 7-16.12 7H666.28ZM753-186v-156.86q0-9.36 6.79-16.25 6.79-6.89 16-6.89t16.21 6.89q7 6.89 7 16.25V-184l57-59q8-8 17-8t16 7q9 9 9 16t-9 16l-98 97q-6 6-14.5 6t-14.5-6l-97-97q-8-8-7.5-16.5T665-244q9-9 17.5-8t15.5 10l55 56Z"/></svg>