<svg xmlns="http://www.w3.org/2000/svg" height="48" viewBox="0 -960 960 960" width="48"><path d="M834.48-582.63Q824-593.25 824-609v-134H689q-15.75 0-26.37-10.86-10.63-10.86-10.63-26t10.63-25.64Q673.25-816 689-816h135q29 0 51 22t22 51v134q0 15.75-11.18 26.37Q874.65-572 859.81-572q-14.85 0-25.33-10.63ZM100.51-572q-15.14 0-25.83-10.63Q64-593.25 64-609v-134q0-29 22-51t51-22h135q14.77 0 25.39 10.86 10.61 10.86 10.61 26t-10.61 25.64Q286.77-743 272-743H137v134q0 15.75-10.68 26.37Q115.65-572 100.51-572ZM137-144q-29 0-51-22t-22-51v-135q0-14.77 10.86-25.39 10.86-10.61 26-10.61t25.64 10.61Q137-366.77 137-352v135h135q14.77 0 25.39 10.86 10.61 10.86 10.61 26t-10.61 25.64Q286.77-144 272-144H137Zm239-186v-300q0-10.5 9.5-15.25t18.5.25l235 149q8 5.86 8 15.93T639-465L404-315q-9 5-18.5.25T376-330ZM638 48q-14.78 0-25.39-10.66Q602 26.68 602 11.84T612.61-14Q623.22-25 638-25h263q15.2 0 26.1 11.18Q938-2.65 938 12.19q0 14.85-10.9 25.33Q916.2 48 901 48H638Zm93-291v-159q0-14.77 10.66-25.39Q752.32-438 767.16-438T793-427.39q11 10.62 11 25.39v160l54-54q11-10 25.5-10.5T909-297q11 11 11 26t-11 25L780-118q-6.09 6-14.05 6-7.95 0-12.95-6L626-246q-10-10-10.5-25.1-.5-15.1 10.5-25.9 11-10 25.5-9.5T677-296l54 53Z"/></svg>