<svg xmlns="http://www.w3.org/2000/svg" height="40" viewBox="0 -960 960 960" width="40"><path d="M226.96-102.82v-32.44h165.09v32.44H226.96Zm340.99 0v-32.44h165.81v32.44H567.95Zm-326.02-100q-25.4 0-42.68-19.86-17.29-19.86-12.76-45.48L267.58-790q2.88-20.6 18.74-33.89 15.87-13.29 36.06-13.29h315.24q19.86 0 36.01 13.12 16.15 13.13 19.35 34l81.62 521.85q3.67 25.67-13.24 45.53t-42.45 19.86H241.93Zm238.41-124.74q52.66 0 89.68-36.92 37.01-36.91 37.01-89.19 0-53.26-37.01-90.35-37.02-37.08-89.8-37.08-52.78 0-89.76 37.08-36.97 37.09-36.97 90.02 0 52.93 36.84 89.68 36.84 36.76 90.01 36.76Zm-.02-32.44q-39.5 0-66.95-27.48-27.45-27.48-27.45-66.79 0-39.65 27.43-67.02 27.44-27.38 66.92-27.38 38.87 0 66.6 27.52 27.72 27.52 27.72 66.88t-27.69 66.81Q519.21-360 480.32-360Zm-.24-311.87q10.34 0 18.04-7.16 7.69-7.17 7.69-18.3 0-9.39-7.78-17.41-7.79-8.03-18.5-8.03-10.74 0-17.68 8.14-6.94 8.15-6.94 18.12 0 10.35 6.98 17.5 6.98 7.14 18.19 7.14Z"/></svg>