<svg xmlns="http://www.w3.org/2000/svg" height="24" viewBox="0 -960 960 960" width="24"><path d="M187-34.78v-106h225.44v106H187Zm360.56 0v-106H773v106H547.56ZM216-180.78q-43.65 0-71.61-33.02-27.96-33.03-20.39-76.24l91.56-532.44q5.74-33.72 31.55-55.23 25.8-21.51 59.89-21.51h346q33.87 0 60.15 21.33 26.29 21.32 31.85 55.41l91.44 532.44q7.56 43.21-20.07 76.24-27.63 33.02-71.37 33.02H216Zm14.83-106h497.91l-87.48-506.44H317.74l-86.91 506.44Zm249.17-40q63.17 0 107.63-44.46 44.46-44.46 44.46-107.63 0-63.17-44.46-107.63-44.46-44.46-107.63-44.46-63.17 0-107.63 44.46-44.46 44.46-44.46 107.63 0 63.17 44.46 107.63 44.46 44.46 107.63 44.46Zm0-94.7q-23.67 0-40.53-16.8t-16.86-40.39q0-23.59 16.86-40.59 16.86-17 40.53-17t40.53 16.92q16.86 16.91 16.86 40.67t-16.86 40.47q-16.86 16.72-40.53 16.72Zm-.56-249.48q18.69 0 31.89-12.8 13.19-12.8 13.19-31.72 0-18.92-13.19-31.72-13.2-12.8-31.89-12.8-18.68 0-31.32 12.8t-12.64 31.72q0 18.92 12.64 31.72 12.64 12.8 31.32 12.8Zm.56 192.09Z"/></svg>