<svg xmlns="http://www.w3.org/2000/svg" height="20" viewBox="0 -960 960 960" width="20"><path d="M253-41v-46h189v46H253Zm265 0v-46h189v46H518ZM236-161q-27.72 0-45.36-20.55T176-229l88-565q3.3-20.77 19.37-35.39Q299.43-844 321-844h318q21.23 0 37.7 14.08Q693.18-815.83 697-794l94 565q3 27-13.74 47.5Q760.51-161 734-161H236Zm23-46h454q15 0 24-11.5t7-25.5l-89-527q-2-12-11-19.5t-21-7.5H337q-12 0-20.5 7.5T306-771l-79 527q-2 14 7.5 25.5T259-207Zm221-108q44.59 0 74.29-29.71Q584-374.41 584-419t-29.71-74.29Q524.59-523 480-523t-74.29 29.71Q376-463.59 376-419t29.71 74.29Q435.41-315 480-315Zm-.21-37q-27.73 0-47.26-19.88Q413-391.75 413-419.66q0-27.92 19.74-47.13Q452.49-486 480.21-486q27.73 0 47.26 19.67Q547-446.66 547-419.04q0 27.62-19.74 47.33Q507.51-352 479.79-352Zm0-277q11.61 0 20.91-8.56 9.3-8.57 9.3-21.23 0-11.61-9.09-20.91t-21.2-9.3q-12.11 0-20.91 9.09t-8.8 21.2q0 12.11 8.56 20.91 8.57 8.8 21.23 8.8Zm.21 210Z"/></svg>