<svg xmlns="http://www.w3.org/2000/svg" height="48" viewBox="0 -960 960 960" width="48"><path d="M211.31-50v-58.38h187.54V-50H211.31Zm349.84 0v-58.38h188.54V-50H561.15ZM222.54-173q-31.96 0-52.63-24.36-20.68-24.35-15.45-55.79l87.59-565.31q4.3-24.91 23.66-41.23Q285.07-876 309.69-876h340.62q24.54 0 44.59 16.05 20.05 16.04 24.1 41.18l92.15 565.62q5.23 31.39-15.58 55.77Q774.75-173 743.46-173H222.54Zm.77-58.38h518.77q5.77 0 9.23-4.43 3.46-4.42 2.69-9.81l-92.62-561.61q-.76-4.62-4.23-7.5-3.46-2.88-8.07-2.88H310.92q-4.61 0-7.88 2.88-3.27 2.88-4.04 7.5l-88 561.61q-.77 5.39 2.89 9.81 3.65 4.43 9.42 4.43ZM480-309.08q58.82 0 100.18-40.9 41.36-40.91 41.36-98.44 0-59.01-41.16-100.68-41.15-41.67-100.07-41.67-58.51 0-99.49 41.46-40.97 41.47-40.97 100.39 0 58.51 40.96 99.18 40.96 40.66 99.19 40.66Zm.1-53.38q-35.2 0-61.03-25.72-25.84-25.71-25.84-60.61 0-35.56 25.7-61.58 25.71-26.01 61.4-26.01 35.7 0 61.26 26.02 25.56 26.03 25.56 61.37 0 35.34-25.57 60.93-25.57 25.6-61.48 25.6Zm-.28-305.23q13.06 0 22.27-8.65 9.22-8.66 9.22-22.17 0-12.37-9.35-22.08-9.34-9.72-22.64-9.72-12.95 0-21.79 9.72-8.84 9.73-8.84 22.78 0 13.06 8.83 21.59t22.3 8.53Zm.18 218.08Z"/></svg>