<svg xmlns="http://www.w3.org/2000/svg" height="40" viewBox="0 -960 960 960" width="40"><path d="M228-106v-24h160v24H228Zm344 0v-24h160v24H572Zm-326-94q-23.36 0-39.34-18.33-15.99-18.34-12.66-42l82-524q3.3-19.11 17.82-31.39Q308.33-828 327-828h306q18.26 0 33.13 12.17Q681-803.67 684-784.33l82 524q3.33 23.66-12.06 42Q738.54-200 715-200H246Zm234-128q50.33 0 85.33-34.83 35-34.82 35-84.5 0-50.67-35-85.67T480-568q-50.33 0-85 35t-34.67 85.33q0 50.34 34.61 85Q429.55-328 480-328Zm.03-24q-39.73 0-67.71-28.23-27.99-28.24-27.99-67.89 0-39.92 27.9-67.9Q440.13-544 479.85-544q39.73 0 68.11 28.21 28.37 28.22 28.37 67.84 0 39.62-28.29 67.78Q519.75-352 480.03-352ZM480-670q9.33 0 16.67-6.9 7.33-6.91 7.33-17.11 0-8.66-7.43-16.32-7.42-7.67-17.07-7.67-9.83 0-16.67 7.68-6.83 7.68-6.83 17.17 0 9.48 6.81 16.32Q469.62-670 480-670Z"/></svg>