<svg xmlns="http://www.w3.org/2000/svg" height="24" viewBox="0 -960 960 960" width="24"><path d="M210-90v-60h186.15v60H210Zm353.85 0v-60H750v60H563.85ZM227.54-200q-33 0-54.12-24.85-21.11-24.84-15.26-57.23l87.53-520q4.35-25.45 23.91-41.68Q289.15-860 314.69-860h330.62q25.38 0 45.07 16.19 19.7 16.2 23.93 41.73l88.15 520q5.85 32.39-15.04 57.23Q766.53-200 733.46-200H227.54Zm1.69-60h500.92q5.77 0 9.23-4.42 3.47-4.43 2.7-9.81l-87.39-515.38q-.77-4.62-4.23-7.51Q647-800 642.38-800H316.62q-4.62 0-7.89 2.88-3.27 2.89-4.04 7.51l-87.77 515.38q-.77 5.38 2.89 9.81 3.65 4.42 9.42 4.42ZM480-323.08q60.23 0 102.61-42.38Q625-407.85 625-468.08q0-60.23-42.39-102.61-42.38-42.38-102.61-42.38t-102.61 42.38Q335-528.31 335-468.08t42.39 102.62q42.38 42.38 102.61 42.38Zm0-60q-35.06 0-60.03-25.02T395-468.25q0-35.13 24.97-59.98 24.97-24.85 60.03-24.85t60.03 24.94Q565-503.2 565-468.17q0 35.02-24.97 60.06-24.97 25.03-60.03 25.03Zm0-292.3q14.31 0 24.46-9.96 10.15-9.95 10.15-24.66 0-14.31-10.15-24.46t-24.65-10.15q-14.5 0-24.46 10.15t-9.96 24.65q0 14.5 9.95 24.46 9.95 9.97 24.66 9.97Zm0 207.3Z"/></svg>