<svg xmlns="http://www.w3.org/2000/svg" height="24" viewBox="0 -960 960 960" width="24"><path d="M197-9v-86h219.15v86H197Zm346.85 0v-86H763v86H543.85ZM217.54-145q-39.25 0-63.74-29.39-24.49-29.4-18.64-67.69l88.53-581q4.35-29.45 27.56-49.18Q274.45-892 304.69-892h350.62q30.15 0 53.55 19.28 23.39 19.27 28.45 49.64l97.15 581q6.85 38.39-17.67 67.73Q792.28-145 753.46-145H217.54ZM480-294.08q59.82 0 101.91-42.09Q624-378.26 624-438.08q0-59.81-42.09-101.9T480-582.07q-59.82 0-101.91 42.09Q336-497.89 336-438.08q0 59.82 42.09 101.91 42.09 42.09 101.91 42.09Zm0-77q-27.64 0-47.32-19.73T413-438.25q0-27.71 19.68-47.27 19.68-19.56 47.32-19.56t47.32 19.66Q547-465.77 547-438.17q0 27.59-19.68 47.34-19.68 19.75-47.32 19.75Zm0-273.3q17.71 0 30.16-12.26 12.45-12.25 12.45-30.36 0-17.71-12.45-30.16t-30.35-12.45q-17.9 0-30.16 12.45-12.26 12.45-12.26 30.35 0 17.9 12.25 30.16 12.25 12.27 30.36 12.27Z"/></svg>