<svg xmlns="http://www.w3.org/2000/svg" height="24" viewBox="0 -960 960 960" width="24"><path d="M547.58-184.85q-2.73-4.38-1.73-10.76l32.61-225.93H423.38q-19.61 0-29.07-17.77t2.23-33.92l220.08-302.85q4.23-5.23 9.19-6.34 4.96-1.12 10.19.88 5.23 2 7.96 6.39 2.73 4.38 1.73 10.76l-32.61 226.7h155.07q19.62 0 28.7 17.77 9.07 17.77-2.62 33.92L574.92-183.92q-4.23 5.23-9.19 6.34-4.96 1.12-10.19-.88-5.23-2-7.96-6.39ZM180-270q-8.5 0-14.25-5.76T160-290.03q0-8.51 5.75-14.24T180-310h265.85q10 0 15 6.21 5 6.2 5 13.65t-5 13.79q-5 6.35-15 6.35H180Zm-40-190q-8.5 0-14.25-5.76T120-480.03q0-8.51 5.75-14.24T140-500h120q10 0 15 6.21 5 6.2 5 13.65t-5 13.79q-5 6.35-15 6.35H140Zm79.23-190q-8.5 0-14.25-5.76t-5.75-14.27q0-8.51 5.75-14.24t14.25-5.73h181.92q10 0 15 6.21 5 6.2 5 13.65t-5 13.79q-5 6.35-15 6.35H219.23Z"/></svg>