<svg xmlns="http://www.w3.org/2000/svg" height="20" viewBox="0 -960 960 960" width="20"><path d="M555.54-174.31q-3.62-4.07-2.62-10l20.31-234.46H420.69q-19.3 0-29.03-17.38-9.74-17.39 2.11-33.47l219.54-315.92q3.61-5.61 8.84-6.42 5.23-.81 9.85 1.19 4.61 2 8.23 6.37 3.61 4.36 2.61 10.71l-32.3 232.84h163.54q19.64 0 28.51 17.39 8.87 17.38-2.98 33.46L581.46-173.46q-3.61 5.61-8.34 6.42-4.73.81-9.35-1.19-4.62-2-8.23-6.08ZM191-279q-11.05 0-18.52-7.42-7.48-7.42-7.48-18.38 0-10.97 7.48-18.58Q179.95-331 191-331h258.92q13 0 19.5 8.1 6.5 8.11 6.5 17.83 0 9.72-6.5 17.9-6.5 8.17-19.5 8.17H191Zm-49-175q-11.05 0-18.52-7.42-7.48-7.42-7.48-18.38 0-10.97 7.48-18.58Q130.95-506 142-506h128q13 0 19.5 8.1 6.5 8.11 6.5 17.83 0 9.72-6.5 17.9Q283-454 270-454H142Zm95.58-175q-10.71 0-18.34-7.42-7.62-7.42-7.62-18.38 0-10.97 7.47-18.58 7.48-7.62 18.53-7.62h158.71q12.75 0 18.75 8.1 6 8.11 6 17.83 0 9.72-6.5 17.9-6.5 8.17-19.5 8.17h-157.5Z"/></svg>