<svg xmlns="http://www.w3.org/2000/svg" height="40" viewBox="0 -960 960 960" width="40"><path d="M557.83-207.05q-2.5-4.06-1.5-9.95l31-213H431q-17.08 0-25.21-15.17-8.12-15.16 1.54-29.5l202.34-278.66q4.26-4.34 8.29-5 4.04-.67 8.37.66 4.34 1.34 6.84 5.42 2.5 4.09 1.5 9.25l-31 213.33h157q16.58 0 24.45 15.5 7.88 15.5-1.79 29.84L581.37-206.69q-3.37 4.36-7.87 5.36t-8.83-.34q-4.34-1.33-6.84-5.38ZM184-279.67q-5.1 0-8.55-3.49-3.45-3.5-3.45-8.67t3.45-8.5q3.45-3.34 8.55-3.34h268.33q6 0 9 3.66 3 3.65 3 8.04 0 4.39-3 8.34-3 3.96-9 3.96H184ZM144-468q-5.1 0-8.55-3.5-3.45-3.49-3.45-8.66t3.45-8.51Q138.9-492 144-492h123.67q6 0 9 3.66 3 3.65 3 8.04 0 4.38-3 8.34t-9 3.96H144Zm79-188.33q-5.1 0-8.55-3.5-3.45-3.5-3.45-8.67t3.45-8.5q3.45-3.33 8.55-3.33h185.33q6 0 9 3.65 3 3.66 3 8.04 0 4.39-3 8.35t-9 3.96H223Z"/></svg>