<svg xmlns="http://www.w3.org/2000/svg" height="48" viewBox="0 -960 960 960" width="48"><path d="M522-124.05q-4-5.06-2-12.95l38-265H419q-22.62 0-32.81-19.5Q376-441 390-460l276-375q4-6 9.5-7t10.5 1q5 2 8.5 7.05 3.5 5.06 2.5 12.95l-37 261h141q21.62 0 31.81 20Q843-520 830-502L553-123q-5 6-11 7t-11-1q-5-2-9-7.05ZM141-232q-15.75 0-26.37-10.68Q104-253.35 104-268.18q0-14.82 10.63-25.32Q125.25-304 141-304h262q18 0 27.5 10.82t9.5 25q0 14.18-9.5 25.18T403-232H141Zm-40-212q-15.75 0-26.37-10.68Q64-465.35 64-480.18 64-495 74.63-505.5 85.25-516 101-516h118q18 0 27 10.82t9 25q0 14.18-9 25.18t-27 11H101Zm80-213q-15.75 0-26.37-10.68Q144-678.35 144-693.18q0-14.82 10.63-25.32Q165.25-729 181-729h190q18 0 27 10.82t9 25q0 14.18-9.25 25.18T370-657H181Z"/></svg>