<svg xmlns="http://www.w3.org/2000/svg" height="24" viewBox="0 -960 960 960" width="24"><path d="M507-121.5q-6-8.5-4-20.5l32-234H427q-39 0-56-34t6-66l266-365q8-10 18-12t19 2q9 4 15 12.5t4 20.5l-32 235h107q39 0 56.5 34t-5.5 66L559-119q-8 10-18 12t-19-2q-9-4-15-12.5ZM149-170q-26 0-44.5-18.5T86-233q0-26 18.5-44.5T149-296h222q32 0 47 19.5t15 43.5q0 23-15.5 43T370-170H149Zm-40-246q-26 0-44.5-18.5T46-479q0-26 18.5-44.5T109-542h97q32 0 47.5 19.5T269-479q0 23-15.5 43T206-416h-97Zm80-246q-26 0-44.5-18.5T126-725q0-26 18.5-44.5T189-788h197q32 0 47.5 19.5T449-725q0 23-15.5 43T386-662H189Z"/></svg>