<svg xmlns="http://www.w3.org/2000/svg" height="40" viewBox="0 -960 960 960" width="40"><path d="M535.17-125.87q-2.84-4.53-1.84-11.13L572-406H397.33q-20.74 0-29.87-18.33-9.13-18.34 2.87-35l274.34-374.34q4.33-5.33 9.16-6.5 4.84-1.16 10.17.84t8.17 6.53q2.83 4.54 1.83 11.13l-38 267h175.33q20.75 0 29.88 18.34 9.12 18.33-2.88 35L563.33-125q-4.33 5.33-9.5 6.5-5.16 1.17-10.5-.83-5.33-2-8.16-6.54Zm-381.84-116.8q-14.16 0-23.75-9.61-9.58-9.62-9.58-23.84 0-14.21 9.58-23.71 9.59-9.5 23.75-9.5h267.34q16.66 0 25 10.38 8.33 10.37 8.33 22.83 0 12.45-8.33 22.95-8.34 10.5-25 10.5H153.33Zm-40-204q-14.16 0-23.75-9.61Q80-465.9 80-480.12q0-14.21 9.58-23.71 9.59-9.5 23.75-9.5h112q16.67 0 25 10.38 8.34 10.37 8.34 22.83 0 12.45-8.34 22.95-8.33 10.5-25 10.5h-112Zm80-204.66q-14.16 0-23.75-9.62-9.58-9.62-9.58-23.83 0-14.22 9.58-23.72 9.59-9.5 23.75-9.5H373q16.67 0 25 10.38 8.33 10.38 8.33 22.83 0 12.46-8.5 22.96t-25.5 10.5h-179Z"/></svg>