<svg xmlns="http://www.w3.org/2000/svg" height="20" viewBox="0 -960 960 960" width="20"><path d="M544.75-152.63Q541-156.76 542-163l22.5-248.5H408q-20.5 0-30.25-18.25t2.75-34.75l241.5-342q3.5-5.5 9.25-6.5t10.25 1q4.5 2 8.25 6.67T652.5-794L619-548.5h167q20.84 0 29.92 18.25Q825-512 812.5-495.5l-241 344q-3.5 5.5-8.75 6.25T553-146.5q-4.5-2-8.25-6.13ZM187.5-271q-13.8 0-23.4-9.79-9.6-9.79-9.6-23.5t9.85-23.71q9.85-10 23.65-10h250.5q16.5 0 25 10.25t8.5 23.25q0 12.5-8.5 23t-25 10.5h-251ZM139-446.5q-13.8 0-23.4-9.79-9.6-9.79-9.6-23.5t9.85-23.71q9.85-10 23.65-10H259q16.5 0 25 10.25t8.5 23.25q0 12.5-8.5 23t-25 10.5H139ZM234.96-622q-13.46 0-23.21-9.79t-9.75-23.5q0-13.71 9.85-23.71t23.65-10h149.76q16.24 0 24.24 10.25t8 23.25q0 12.5-8.5 23T384-622H234.96Z"/></svg>