<svg xmlns="http://www.w3.org/2000/svg" height="40" viewBox="0 -960 960 960" width="40"><path d="M527.6-180.65q-4.24-5.5-2.24-13.89L556.8-414.8H452.23q-22.92 0-34.12-20.23-11.19-20.23 3.02-39.76l222.95-305.08q4.61-5.9 10.49-6.85 5.89-.95 11.12.87 5.23 1.82 8.98 7.35 3.74 5.52 2.41 13.35l-31.29 219.38h106.24q21.87 0 32.87 20.82 11 20.82-2.54 39.69L559.54-179.84q-4.59 5.92-10.91 7.12-6.32 1.21-11.55-.61-5.23-1.82-9.48-7.32Zm-363.01-74.14q-10.86 0-18.39-7.58-7.53-7.58-7.53-17.83 0-10.26 7.53-17.52 7.53-7.25 18.39-7.25h257.77q12.46 0 19.19 7.37t6.73 17.29q0 9.91-6.73 17.71-6.73 7.81-19.19 7.81H164.59Zm-40-199.95q-10.86 0-18.39-7.58-7.53-7.58-7.53-17.83 0-10.26 7.53-17.52 7.53-7.25 18.39-7.25h127.64q12.46 0 18.69 7.37t6.23 17.29q0 9.91-6.23 17.72-6.23 7.8-18.69 7.8H124.59Zm79.23-200.11q-10.86 0-18.39-7.57-7.53-7.58-7.53-17.84 0-10.25 7.53-17.51 7.53-7.26 18.39-7.26h194.69q12.46 0 18.69 7.38 6.24 7.37 6.24 17.29 0 9.91-6.27 17.71-6.27 7.8-18.81 7.8H203.82Z"/></svg>