<svg xmlns="http://www.w3.org/2000/svg" height="24" viewBox="0 -960 960 960" width="24"><path d="M554.5-205.05q-2.5-4.06-1.5-9.95l31-213H431q-18 0-27-16.5t2-31.5l203-280q4-5 8.5-6t9.5 1q5 2 7.5 6.05 2.5 4.06 1.5 9.95l-31 214h153q18 0 26.5 16.5T782-483L580-204q-4 5-8.5 6t-9.5-1q-5-2-7.5-6.05ZM186-279q-5.95 0-9.98-4.04-4.02-4.03-4.02-10 0-5.96 4.02-9.96 4.03-4 9.98-4h267q7 0 10.5 4.32t3.5 9.5q0 5.18-3.5 9.68T453-279H186Zm-40-187q-5.95 0-9.98-4.04-4.02-4.03-4.02-10 0-5.96 4.02-9.96 4.03-4 9.98-4h123q7 0 10.5 4.32t3.5 9.5q0 5.18-3.5 9.68T269-466H146Zm79-187q-5.95 0-9.98-4.04-4.02-4.03-4.02-10 0-5.96 4.02-9.96 4.03-4 9.98-4h184q7 0 10.5 4.32t3.5 9.5q0 5.18-3.5 9.68T409-653H225Z"/></svg>