<svg xmlns="http://www.w3.org/2000/svg" height="24" viewBox="0 -960 960 960" width="24"><path d="M548.13-192.04q-2.67-4.08-1.67-10.34l32.5-221.5H423.38q-18.88 0-27.59-16.91-8.71-16.9 2.48-32.33l215.88-295.46q3.73-4.73 8.64-5.84 4.9-1.12 9.83.88 4.92 2 7.4 6.14 2.48 4.13 1.86 10.4L610-535.73h155.08q18.88 0 27.21 17.1 8.33 17.09-2.48 32.13L574.19-191.19q-4.11 5.11-9.02 5.98-4.9.86-9.63-.94-4.73-1.81-7.41-5.89Zm-363.94-82.27q-7.77 0-12.96-5.45-5.19-5.45-5.19-13.04 0-7.58 5.25-13.01 5.25-5.42 13.02-5.42h262.04q8.88 0 13.57 5.59 4.7 5.59 4.7 12.54 0 7.22-4.7 13-4.69 5.79-13.57 5.79H184.19Zm-39.88-187.42q-7.77 0-12.96-5.26-5.2-5.26-5.2-13.04 0-7.78 5.45-13.2 5.44-5.42 13.21-5.42h117.65q8.89 0 13.77 5.59 4.89 5.59 4.89 12.92 0 6.83-4.89 12.62-4.88 5.79-13.77 5.79H144.31Zm79.23-187.04q-7.77 0-12.96-5.45-5.2-5.45-5.2-13.04 0-7.59 5.45-13.01 5.44-5.42 13.21-5.42h178.34q8.89 0 13.77 5.59 4.89 5.59 4.89 12.54 0 7.21-4.89 13-4.88 5.79-13.77 5.79H223.54Z"/></svg>