<svg xmlns="http://www.w3.org/2000/svg" height="40" viewBox="0 -960 960 960" width="40"><path d="M512.32-120.47q-4.66-6.15-2.66-15.64l36.3-257.59H425.7q-27.66 0-39.98-24.1-12.32-24.11 4.56-46.87l275.22-375q4.99-6.83 12-8.08 7.02-1.26 13.14 1.08 6.12 2.33 10.4 8.48 4.28 6.14 3.1 15.63l-35.79 255.17h121.61q27 0 39.47 24.43 12.48 24.44-3.57 46.54L549.97-119.15q-5.65 6.98-13 8.24-7.35 1.25-13.67-1.08-6.32-2.34-10.98-8.48Zm-370.6-95.58q-19.19 0-32.08-13.04-12.89-13.04-12.89-31.49 0-18.46 12.89-31.21 12.89-12.76 32.08-12.76H392.9q21.94 0 33.33 13.42 11.39 13.42 11.39 30.66 0 17.16-11.43 30.79-11.43 13.63-33.53 13.63H141.72Zm-40-219.41q-19.19 0-32.08-13.04-12.89-13.05-12.89-31.38t12.89-31.29q12.89-12.95 32.08-12.95h114.6q22.1 0 33.03 13.5t10.93 30.74q0 17-10.93 30.71t-33.03 13.71h-114.6Zm80-220.24q-19.19 0-32.08-12.92-12.89-12.93-12.89-31.38t12.89-31.21q12.89-12.75 32.08-12.75h192.24q22.11 0 33.12 13.42 11.01 13.42 11.01 30.42 0 17.4-11.18 30.91-11.18 13.51-33.61 13.51H181.72Z"/></svg>