<svg xmlns="http://www.w3.org/2000/svg" height="48" viewBox="0 -960 960 960" width="48"><path d="M555.42-190.99q-2.69-4-1.69-10.28l33.23-225.5H423.15q-16.84 0-24.4-14.6-7.56-14.59 1.9-29.09l217.2-298.31q3.8-3.73 7.84-4.35 4.04-.61 8.21.62 4.18 1.23 6.43 5.07 2.25 3.85 2.13 9.28l-32.88 223.8h164.3q16.28 0 23.74 15.43 7.46 15.42-1.12 29.04L578.62-191.56q-3.66 4.64-8.35 5.39-4.69.75-8.42-.04-3.73-.79-6.43-4.78ZM176.58-272.5q-6.81 0-10.93-4.43-4.11-4.42-4.11-10.88 0-6.46 3.92-10.67t10.73-4.21h268.93q7.07 0 10.86 4.59 3.79 4.59 3.79 9.74 0 6.42-3.79 11.14-3.79 4.72-10.86 4.72H176.58Zm-40.39-192.85q-6.81 0-10.92-3.98-4.12-3.99-4.12-10.89t4.37-11.11q4.36-4.21 11.17-4.21h120.62q7.57 0 11.56 4.59 3.98 4.6 3.98 10.63 0 5.53-3.98 10.25-3.99 4.72-11.56 4.72H136.19Zm79.23-192.19q-6.8 0-10.92-4.43-4.12-4.42-4.12-10.88 0-6.46 4.37-10.67t11.17-4.21h184q7.58 0 11.56 4.59 3.98 4.59 3.98 9.74 0 6.42-4.04 11.14-4.04 4.72-11.73 4.72H215.42Z"/></svg>