<svg xmlns="http://www.w3.org/2000/svg" height="24" viewBox="0 -960 960 960" width="24"><path d="M520.32-118.46q-4.1-6.21-2.86-15.17l36.56-260.63H404.93q-28.34 0-40.78-24.87-12.43-24.87 3.72-47.74l274.37-375.65q5.72-6.96 13.05-8.58 7.34-1.62 14.06.86 6.72 2.48 10.81 8.7 4.1 6.21 2.86 15.17L646.46-565.5H795.3q28.35 0 40.91 24.87 12.55 24.87-3.6 47.74L558.24-117.48q-5.72 6.96-13.06 8.58-7.33 1.62-14.05-.86-6.72-2.48-10.81-8.7Zm-362.95-104.8q-19.15 0-32.33-13.17-13.17-13.18-13.17-32.33t13.17-32.33q13.18-13.17 32.33-13.17H409.8q22.87 0 34.07 14.17 11.2 14.18 11.2 31.33 0 16.91-11.32 31.21-11.32 14.29-34.19 14.29H157.37Zm-40-211q-19.15 0-32.33-13.17-13.17-13.18-13.17-32.33t13.17-32.33q13.18-13.17 32.33-13.17h106.89q22.87 0 34.19 14.17 11.31 14.18 11.31 31.33 0 16.91-11.31 31.21-11.32 14.29-34.19 14.29H117.37Zm80-211q-19.15 0-32.33-13.17-13.17-13.18-13.17-32.33t13.17-32.33q13.18-13.17 32.33-13.17h180.26q22.87 0 34.19 14.17 11.31 14.18 11.31 31.33 0 16.91-11.31 31.21-11.32 14.29-34.19 14.29H197.37Z"/></svg>