<svg xmlns="http://www.w3.org/2000/svg" height="48" viewBox="0 -960 960 960" width="48"><path d="M536.62-184.05q-4-5.05-2-12.95l31.84-221.92H445.15q-21.07 0-30.88-17.96-9.81-17.97 2.65-36.2l221.39-302.69q4.3-5.23 9.65-5.85 5.35-.61 9.58.62t7.73 6.32q3.5 5.1 2.5 12.14l-31.62 220.23h123.31q19.51 0 29.22 18.85 9.7 18.84-1.76 36.08L565.35-183.79q-4.27 5.25-10.27 6.25t-10.23-.23q-4.23-1.23-8.23-6.28Zm-370.24-75.64q-9.53 0-15.96-6.49-6.42-6.48-6.42-15.11 0-8.63 6.42-14.9 6.43-6.27 15.96-6.27h261.24q10.69 0 16.53 6.21 5.85 6.2 5.85 14.85 0 8.65-5.85 15.18-5.84 6.53-16.53 6.53H166.38Zm-40-198.93q-9.53 0-15.96-6.48-6.42-6.49-6.42-15.12 0-8.63 6.42-14.9 6.43-6.26 15.96-6.26h126.47q10.69 0 16.03 6.2 5.35 6.21 5.35 14.86 0 8.65-5.35 15.18-5.34 6.52-16.03 6.52H126.38Zm79.24-199.15q-9.54 0-15.97-6.48-6.42-6.49-6.42-15.12 0-8.63 6.42-14.9 6.43-6.27 15.97-6.27h193.07q10.69 0 16.04 6.21t5.35 14.85q0 8.65-5.41 15.18-5.4 6.53-16.21 6.53H205.62Z"/></svg>