<svg xmlns="http://www.w3.org/2000/svg" height="40" viewBox="0 -960 960 960" width="40"><path d="M535.75-133.7q-2.75-4.2-1.75-10.63l38.5-264.17H397.33q-19.57 0-28.29-17.42-8.71-17.41 3.13-33.25L642-825.5q3.83-4.83 8.58-6t9.75.83q5 2 7.59 6.29 2.58 4.28 1.91 10.71L632.67-552.5H808q19.58 0 28.29 17.58 8.71 17.59-2.79 33.09l-271 369q-4.17 5.16-9.25 6.08-5.08.92-9.92-.92-4.83-1.83-7.58-6.03ZM157.83-247.33q-13.33 0-22.33-9.29-9-9.28-9-22.5 0-13.21 9.08-22.38 9.09-9.17 22.42-9.17h263.17q15.5 0 23.5 9.72 8 9.71 8 21.66 0 12.12-8 22.04t-23.5 9.92H157.83ZM118-448.5q-13.33 0-22.33-9.12-9-9.11-9-22.5 0-13.38 9.25-22.55 9.25-9.16 22.58-9.16H228q15.83 0 23.83 9.71 8 9.71 8 22 0 11.79-8 21.7-8 9.92-23.83 9.92H118ZM198-650q-13.33 0-22.33-9.28-9-9.29-9-22.5 0-13.22 9.25-22.39 9.25-9.16 22.58-9.16h175.83q15.84 0 23.84 9.71t8 21.67q0 12.12-8.17 22.03-8.17 9.92-24.33 9.92H198Z"/></svg>