<svg xmlns="http://www.w3.org/2000/svg" height="48" viewBox="0 -960 960 960" width="48"><path d="M559.75-207.55Q557-211.61 558-218l31.5-213.5H431q-16.62 0-24.06-14.25-7.44-14.25 1.56-28.75l201.5-278q3.89-3.5 7.94-4 4.06-.5 8.06.5 4 1 6.25 4.86 2.25 3.85 2.25 9.14L603-529.5h159q15.87 0 23.19 15.25 7.31 15.25-.69 28.75L582.55-208.53q-3.55 4.53-8.3 5.28-4.75.75-8.25.25t-6.25-4.55ZM183.5-280q-5.18 0-8.09-3.23t-2.91-8q0-4.77 2.66-7.77t7.84-3h269.5q5 0 7.75 3.32 2.75 3.33 2.75 6.82 0 4.98-2.75 8.42-2.75 3.44-7.75 3.44h-269ZM143-469.5q-5.17 0-8.09-2.73-2.91-2.73-2.91-8t3.16-8.27q3.17-3 8.34-3H267q5.5 0 8.5 3.32 3 3.33 3 7.82 0 3.98-3 7.42t-8.5 3.44H143ZM222-658q-5.18 0-8.09-3.23t-2.91-8q0-4.77 3.16-7.77t8.34-3H408q5.5 0 8.5 3.32 3 3.33 3 6.82 0 4.98-3 8.42-3 3.44-8.5 3.44H222Z"/></svg>