<svg xmlns="http://www.w3.org/2000/svg" height="20" viewBox="0 -960 960 960" width="20"><path d="M534.86-154.89q-5.16-5.83-3.6-14.33l19.11-228.71H424.39q-28.41 0-41.55-25.04-13.14-25.03 4.44-48.31l235.29-334.09q5.19-7.76 12.92-9.04 7.73-1.29 13.92 1.84 6.2 3.14 11.36 9.5 5.17 6.37 3.6 15.29L634.26-561.5h135.91q28.76 0 41.51 25.03 12.75 25.04-4.83 48.32L572.07-152.63q-5.2 7.76-12.43 8.79-7.23 1.04-13.42-2.09-6.2-3.14-11.36-8.96Zm-353.58-76.54q-18.88 0-32.44-13.75-13.56-13.75-13.56-32.54 0-18.8 13.81-32.76 13.81-13.95 32.69-13.95h227.89q23.29 0 34.61 14.2 11.33 14.21 11.33 32.3 0 17.02-11.61 31.76-11.61 14.74-34.89 14.74H181.28Zm-48.5-201.5q-18.88 0-32.44-13.75-13.56-13.75-13.56-32.54 0-18.8 13.81-32.76 13.81-13.96 32.69-13.96h112.15q23.29 0 34.9 14.21 11.6 14.21 11.6 32.3 0 17.02-11.6 31.76-11.61 14.74-34.9 14.74H132.78Zm95.97-201.51q-18.55 0-32.26-13.74-13.71-13.75-13.71-32.55 0-18.79 13.81-32.75t32.69-13.96h162.19q23.03 0 34.14 14.21t11.11 32.29q0 17.03-11.61 31.77-11.61 14.73-34.89 14.73H228.75Z"/></svg>