<svg xmlns="http://www.w3.org/2000/svg" height="20" viewBox="0 -960 960 960" width="20"><path d="M506-129.63q-6-6.63-4-16.37l21-247h-72q-29 0-44-26.5t4-50.5l254-361q5-8 13-9.5t15 1.5q7 3 12.5 9.92T709-812l-33 245h84q29.34 0 43.67 26.5Q818-514 799-490L546-128q-5 8-12.5 9.5T519-120q-7-3-13-9.63ZM162-239q-20.3 0-34.65-14.29Q113-267.58 113-287.79T127.35-322q14.35-14 34.65-14h242q24 0 36.5 14.75T453-288q0 18.5-12.5 33.75T404-239H162Zm-49-192q-20.3 0-34.65-14.29Q64-459.58 64-479.79T78.35-514Q92.7-528 113-528h133q24 0 36 14.75T294-480q0 18.5-12 33.75T246-431H113Zm95.96-192q-19.96 0-34.46-14.29t-14.5-34.5Q160-692 174.35-706T209-720h171.26q23.74 0 35.24 14.75Q427-690.5 427-672t-12 33.75Q403-623 379-623H208.96Z"/></svg>