<svg xmlns="http://www.w3.org/2000/svg" height="48" viewBox="0 -960 960 960" width="48"><path d="M331.85-229.73v-336.96h297.46v336.96-336.96H331.85v336.96Zm-100.12 0h100.12v-336.96h297.46v336.96h99.34v-376.08L480-797.38 231.73-607.22v377.49Zm125.19-225.39h246.31v-86.38H356.92v86.38Zm123.91-193.23q9.51 0 16.73-6.55 7.21-6.55 7.21-17.42 0-10.87-7-17.78-7-6.9-18.08-6.9-8.73 0-16.15 7.01-7.42 7.01-7.42 17.73 0 10.76 7.77 17.34 7.77 6.57 16.94 6.57ZM201.54-199.54v-380.92h-52.5L480-834.92l330.46 254.46h-51.61v380.92H603.23v-230.61H356.92v230.61H201.54Z"/></svg>