<svg xmlns="http://www.w3.org/2000/svg" height="24" viewBox="0 -960 960 960" width="24"><path d="M299.3-227.76v-368.96h360.9v368.96-368.96H299.3v368.96Zm-61.5 0h61.5v-368.96h360.9v368.96h61.5V-605.7L479.76-781.74 237.8-606.17v378.41Zm127.53-245.98h228.84v-56.72H365.33v56.72ZM479.7-636.59q17.71 0 30.51-12.79Q523-662.17 523-679.88q0-17.72-12.79-30.21-12.8-12.5-30.76-12.5t-30.2 12.5Q437-697.6 437-679.88q0 17.71 12.28 30.5 12.27 12.79 30.42 12.79ZM151.8-142v-423.26H35.41l444.35-323.13 444.33 323.13H807.7V-142H594.17v-265.72H365.33V-142H151.8Z"/></svg>