<svg xmlns="http://www.w3.org/2000/svg" version="1.1" width="3300" height="2000"><g id="Notes"><style>
    text {
      font-family: monospace;
      text-anchor: middle;
    }
    text.emphasis {
      font-weight:bold;
    }
    text.lanchor {
      text-anchor: start;
    }
  </style><rect height="2200" id="artboard" fill="white" width="3300" x="0" y="0"/><line id="" style="fill:none;stroke:black;stroke-width:0.5;" x1="263" x2="3036" y1="292" y2="292"/><text class="lanchor emphasis" transform="matrix(1 0 0 1 263 322)">Weight/Scale Variations</text><text transform="matrix(1 0 0 1 559.711 322)">Ultralight</text><text transform="matrix(1 0 0 1 856.422 322)">Thin</text><text transform="matrix(1 0 0 1 1153.13 322)">Light</text><text transform="matrix(1 0 0 1 1449.84 322)">Regular</text><text transform="matrix(1 0 0 1 1746.56 322)">Medium</text><text transform="matrix(1 0 0 1 2043.27 322)">Semibold</text><text transform="matrix(1 0 0 1 2339.98 322)">Bold</text><text transform="matrix(1 0 0 1 2636.69 322)">Heavy</text><text transform="matrix(1 0 0 1 2933.4 322)">Black</text><text id="template-version" style="text-anchor: end;" transform="matrix(1 0 0 1 3036 1933)">Template v.1.0</text><text class="lanchor" transform="matrix(1 0 0 1 263 726)">Small</text><text class="lanchor" transform="matrix(1 0 0 1 263 1156)">Medium</text><text class="lanchor" transform="matrix(1 0 0 1 263 1586)">Large</text></g><g id="Guides"><g id="H-reference" style="fill:#27AAE1;stroke:none;" transform="matrix(1 0 0 1 339 696)"><path d="M 54.9316 0 L 57.666 0 L 30.5664 -70.459 L 28.0762 -70.459 L 0.976562 0 L 3.66211 0 L 12.9395 -24.4629 L 45.7031 -24.4629 Z M 29.1992 -67.0898 L 29.4434 -67.0898 L 44.8242 -26.709 L 13.8184 -26.709 Z"/></g><line id="Baseline-S" style="fill:none;stroke:#27AAE1;opacity:1;stroke-width:0.577;" x1="263" x2="3036" y1="696" y2="696"/><line id="Capline-S" style="fill:none;stroke:#27AAE1;opacity:1;stroke-width:0.577;" x1="263" x2="3036" y1="625.541" y2="625.541"/><g id="H-reference" style="fill:#27AAE1;stroke:none;" transform="matrix(1 0 0 1 339 1126)"><path d="M 54.9316 0 L 57.666 0 L 30.5664 -70.459 L 28.0762 -70.459 L 0.976562 0 L 3.66211 0 L 12.9395 -24.4629 L 45.7031 -24.4629 Z M 29.1992 -67.0898 L 29.4434 -67.0898 L 44.8242 -26.709 L 13.8184 -26.709 Z"/></g><line id="Baseline-M" style="fill:none;stroke:#27AAE1;opacity:1;stroke-width:0.577;" x1="263" x2="3036" y1="1126" y2="1126"/><line id="Capline-M" style="fill:none;stroke:#27AAE1;opacity:1;stroke-width:0.577;" x1="263" x2="3036" y1="1055.54" y2="1055.54"/><g id="H-reference" style="fill:#27AAE1;stroke:none;" transform="matrix(1 0 0 1 339 1556)"><path d="M 54.9316 0 L 57.666 0 L 30.5664 -70.459 L 28.0762 -70.459 L 0.976562 0 L 3.66211 0 L 12.9395 -24.4629 L 45.7031 -24.4629 Z M 29.1992 -67.0898 L 29.4434 -67.0898 L 44.8242 -26.709 L 13.8184 -26.709 Z"/></g><line id="Baseline-L" style="fill:none;stroke:#27AAE1;opacity:1;stroke-width:0.577;" x1="263" x2="3036" y1="1556" y2="1556"/><line id="Capline-L" style="fill:none;stroke:#27AAE1;opacity:1;stroke-width:0.577;" x1="263" x2="3036" y1="1485.54" y2="1485.54"/><rect height="119.336" id="left-margin" style="fill:darkred;stroke:none;opacity:0.4;" width="12.4512" x="1394.06" y="1030.79"/><rect height="119.336" id="right-margin" style="fill:darkgreen;stroke:none;opacity:0.4;" width="12.4512" x="1502.5112" y="1030.79"/><rect x="1406.5112" y="1045" width="96" height="96" fill="none" stroke="blue" stroke-dasharray="5"/><rect x="1394.06" y="1030.79" width="120.9024" height="119.336" fill="none" stroke="blue"/></g><g id="Symbols"><g id="Bold-L" transform="matrix(1 0 0 1 2266 1556)"><path d="M36.604 38.945 H54.986 Q58.453 38.945 60.187 35.881 Q61.92 32.818 60.146 29.593 Q58.534 26.421 57.808 23.007 Q57.083 19.595 57.083 15.886 Q57.083 4.76 63.594 -3.756 Q70.105 -12.27 80.625 -15.235 Q84.69 -20.867 90.316 -24.502 Q95.944 -28.135 103.2 -29.264 Q105.457 -29.586 107.876 -29.506 Q110.295 -29.425 112.949 -29.264 Q115.939 -29.264 118.277 -31.299 Q120.615 -33.334 120.615 -36.359 V-54.58 Q120.615 -57.482 119.325 -60.385 Q118.035 -63.287 115.939 -65.222 L81.109 -99.407 Q78.851 -101.665 76.191 -102.794 Q73.53 -103.922 70.627 -103.922 Q67.564 -103.922 64.823 -102.794 Q62.081 -101.665 59.663 -99.407 L25.8 -65.384 Q23.543 -63.126 22.494 -60.304 Q21.446 -57.482 21.446 -54.58 V23.949 Q21.446 29.915 25.961 34.43 Q30.476 38.945 36.604 38.945 Z M71.111 -56.837 Q67.564 -56.837 65.069 -59.142 Q62.575 -61.446 62.888 -65.061 Q62.57 -68.286 65.034 -70.544 Q67.496 -72.801 71.111 -72.801 Q74.498 -72.801 76.997 -70.544 Q79.496 -68.286 79.013 -65.061 Q79.496 -61.514 76.997 -59.176 Q74.498 -56.837 71.111 -56.837 Z M89.816 39.106 Q80.206 39.106 73.482 32.335 Q66.758 25.564 66.758 15.886 Q66.758 7.253 72.321 0.846 Q77.884 -5.56 86.591 -6.85 Q89.978 -13.139 96.105 -16.606 Q102.233 -20.072 109.418 -20.072 Q118.47 -20.072 126.154 -15.961 Q133.838 -11.849 134.966 -3.625 H135.289 Q142.706 -2.335 147.141 3.797 Q151.575 9.93 151.575 17.665 Q151.575 26.529 145.815 32.818 Q140.055 39.106 131.741 39.106 H89.816 Z"/></g><g id="Semibold-L" transform="matrix(1 0 0 1 1970.27 1556)"><path d="M36.043 34.738 H55.056 Q57.927 34.738 59.363 32.202 Q60.798 29.663 59.235 26.998 Q57.552 23.804 56.826 20.403 Q56.1 17 56.1 13.292 Q56.1 2.586 62.446 -5.591 Q68.791 -13.769 78.943 -16.498 Q83.132 -22.485 89.328 -26.152 Q95.523 -29.817 103.2 -30.455 Q105.108 -30.638 107.141 -30.521 Q109.173 -30.407 111.375 -30.175 Q114.046 -30.035 116.103 -31.745 Q118.161 -33.456 118.161 -36.078 V-54.72 Q118.161 -57.133 117.047 -59.614 Q115.932 -62.096 114.186 -63.75 L79.287 -98.285 Q77.379 -100.193 75.104 -101.146 Q72.829 -102.1 70.418 -102.1 Q67.844 -102.1 65.524 -101.146 Q63.204 -100.193 61.204 -98.285 L26.922 -63.912 Q25.015 -62.004 24.142 -59.603 Q23.268 -57.202 23.268 -54.79 V22.056 Q23.268 27.18 27.048 30.96 Q30.826 34.738 36.043 34.738 Z M70.761 -57.258 Q67.214 -57.258 64.752 -59.613 Q62.289 -61.967 62.467 -65.551 Q62.288 -68.847 64.732 -71.174 Q67.175 -73.503 70.761 -73.503 Q74.217 -73.503 76.681 -71.174 Q79.146 -68.847 78.872 -65.551 Q79.146 -62.004 76.681 -59.632 Q74.217 -57.258 70.761 -57.258 Z M87.222 34.83 Q78.214 34.83 71.995 28.585 Q65.775 22.339 65.775 13.292 Q65.775 5.047 71.234 -0.992 Q76.692 -7.032 84.979 -7.972 Q88.084 -14.121 93.897 -17.588 Q99.709 -21.055 106.715 -21.055 Q115.266 -21.055 122.413 -16.872 Q129.561 -12.69 130.83 -4.747 H131.153 Q138.361 -4.017 142.864 1.727 Q147.368 7.472 147.368 14.999 Q147.368 23.163 142.114 28.997 Q136.861 34.83 129.147 34.83 H87.222 Z"/></g><g id="Medium-L" transform="matrix(1 0 0 1 1674.31 1556)"><path d="M35.622 31.584 H55.109 Q57.532 31.584 58.745 29.439 Q59.958 27.296 58.551 25.053 Q56.816 21.841 56.091 18.449 Q55.365 15.056 55.365 11.347 Q55.365 0.956 61.585 -6.969 Q67.804 -14.895 77.681 -17.444 Q81.965 -23.697 88.586 -27.388 Q95.207 -31.079 103.2 -31.349 Q104.845 -31.426 106.588 -31.284 Q108.333 -31.142 110.193 -30.859 Q112.627 -30.613 114.473 -32.081 Q116.321 -33.55 116.321 -35.869 V-54.825 Q116.321 -56.87 115.337 -59.035 Q114.354 -61.203 112.872 -62.646 L77.919 -97.445 Q76.274 -99.088 74.289 -99.911 Q72.303 -100.733 70.26 -100.733 Q68.054 -100.733 66.05 -99.911 Q64.044 -99.088 62.362 -97.445 L27.762 -62.807 Q26.119 -61.164 25.378 -59.077 Q24.636 -56.992 24.636 -54.948 V20.637 Q24.636 25.131 27.862 28.357 Q31.089 31.584 35.622 31.584 Z M70.499 -57.574 Q66.951 -57.574 64.513 -59.966 Q62.076 -62.357 62.151 -65.921 Q62.075 -69.268 64.505 -71.648 Q66.935 -74.028 70.499 -74.028 Q74.007 -74.028 76.445 -71.648 Q78.883 -69.268 78.767 -65.921 Q78.883 -62.373 76.445 -59.974 Q74.007 -57.574 70.499 -57.574 Z M85.277 31.623 Q76.721 31.623 70.881 25.771 Q65.04 19.919 65.04 11.347 Q65.04 3.393 70.419 -2.372 Q75.799 -8.137 83.769 -8.812 Q86.665 -14.856 92.24 -18.323 Q97.816 -21.79 104.687 -21.79 Q112.864 -21.79 119.609 -17.555 Q126.354 -13.321 127.728 -5.587 H128.05 Q135.1 -5.279 139.657 0.174 Q144.214 5.629 144.214 12.998 Q144.214 20.64 139.339 26.13 Q134.466 31.623 127.202 31.623 H85.277 Z"/></g><g id="Regular-L" transform="matrix(1 0 0 1 1378.56 1556)"><path d="M35.314 29.27 H55.148 Q57.244 29.27 58.292 27.416 Q59.34 25.561 58.05 23.626 Q56.276 20.401 55.551 17.015 Q54.825 13.629 54.825 9.92 Q54.825 -0.239 60.953 -7.979 Q67.08 -15.719 76.755 -18.137 Q81.109 -24.587 88.043 -28.296 Q94.976 -32.005 103.2 -32.005 Q104.651 -32.005 106.183 -31.844 Q107.715 -31.682 109.328 -31.36 Q111.585 -31.037 113.278 -32.327 Q114.971 -33.617 114.971 -35.714 V-54.902 Q114.971 -56.676 114.084 -58.611 Q113.198 -60.546 111.907 -61.836 L76.916 -96.827 Q75.465 -98.279 73.691 -99.004 Q71.918 -99.73 70.144 -99.73 Q68.209 -99.73 66.435 -99.004 Q64.661 -98.279 63.21 -96.827 L28.38 -61.997 Q26.929 -60.546 26.284 -58.692 Q25.639 -56.837 25.639 -55.064 V19.595 Q25.639 23.626 28.461 26.448 Q31.283 29.27 35.314 29.27 Z M70.305 -57.805 Q66.758 -57.805 64.339 -60.224 Q61.92 -62.642 61.92 -66.19 Q61.92 -69.576 64.339 -71.995 Q66.758 -74.414 70.305 -74.414 Q73.853 -74.414 76.271 -71.995 Q78.69 -69.576 78.69 -66.19 Q78.69 -62.642 76.271 -60.224 Q73.853 -57.805 70.305 -57.805 Z M83.85 29.27 Q75.626 29.27 70.063 23.707 Q64.5 18.144 64.5 9.92 Q64.5 2.18 69.821 -3.383 Q75.142 -8.946 82.883 -9.43 Q85.624 -15.396 91.026 -18.863 Q96.428 -22.33 103.2 -22.33 Q111.101 -22.33 117.551 -18.057 Q124.001 -13.784 125.453 -6.205 H125.775 Q132.709 -6.205 137.304 -0.964 Q141.9 4.276 141.9 11.533 Q141.9 18.789 137.304 24.029 Q132.709 29.27 125.775 29.27 H83.85 Z"/></g><g id="Light-L" transform="matrix(1 0 0 1 1082.77 1556)"><path d="M38.29 26.045 H52.295 Q54.328 26.045 55.376 24.252 Q56.425 22.46 55.322 20.587 Q53.919 17.673 53.317 14.596 Q52.716 11.52 52.716 8.308 Q52.716 -1.727 58.658 -9.467 Q64.598 -17.207 74.149 -19.874 Q78.69 -26.51 85.872 -30.312 Q93.054 -34.114 101.588 -34.114 Q103.039 -34.114 104.508 -33.984 Q105.978 -33.853 107.53 -33.593 Q109.663 -33.271 111.263 -34.529 Q112.862 -35.788 112.862 -37.76 V-54.469 Q112.862 -56.242 112.069 -58.084 Q111.275 -59.925 109.985 -61.215 L77.289 -93.788 Q75.899 -95.178 74.188 -95.841 Q72.475 -96.505 70.702 -96.505 Q68.83 -96.505 67.086 -95.81 Q65.343 -95.115 64.016 -93.788 L31.544 -61.315 Q30.154 -59.925 29.539 -58.134 Q28.927 -56.341 28.927 -54.567 V16.68 Q28.927 20.587 31.655 23.317 Q34.383 26.045 38.29 26.045 Z M70.863 -58.984 Q67.812 -58.984 65.734 -61.061 Q63.657 -63.139 63.657 -66.19 Q63.657 -69.08 65.734 -71.158 Q67.812 -73.235 70.863 -73.235 Q73.853 -73.235 75.962 -71.158 Q78.069 -69.08 78.008 -66.19 Q78.069 -63.139 75.962 -61.061 Q73.853 -58.984 70.863 -58.984 Z M82.237 26.045 Q74.757 26.045 69.629 20.916 Q64.5 15.786 64.5 8.308 Q64.5 1.125 69.479 -3.941 Q74.46 -9.008 81.704 -9.43 Q84.26 -15.396 89.599 -18.863 Q94.939 -22.33 101.649 -22.33 Q109.489 -22.33 115.815 -17.996 Q122.14 -13.66 123.282 -6.205 H124.287 Q130.475 -6.205 134.576 -1.398 Q138.675 3.407 138.675 9.92 Q138.675 16.494 134.544 21.269 Q130.414 26.045 124.163 26.045 H82.237 Z"/></g><g id="Thin-L" transform="matrix(1 0 0 1 787.282 1556)"><path d="M41.267 22.82 H49.442 Q51.415 22.82 52.463 21.09 Q53.511 19.36 52.592 17.549 Q51.563 14.943 51.086 12.178 Q50.608 9.412 50.608 6.695 Q50.608 -3.215 56.363 -10.955 Q62.118 -18.695 71.545 -21.611 Q76.271 -28.433 83.702 -32.327 Q91.13 -36.222 99.975 -36.222 Q101.426 -36.222 102.834 -36.123 Q104.242 -36.023 105.73 -35.825 Q107.739 -35.503 109.247 -36.731 Q110.755 -37.958 110.755 -39.806 V-54.035 Q110.755 -55.809 110.053 -57.557 Q109.352 -59.306 108.062 -60.596 L77.661 -90.75 Q76.333 -92.077 74.683 -92.679 Q73.033 -93.28 71.26 -93.28 Q69.449 -93.28 67.738 -92.616 Q66.025 -91.953 64.823 -90.75 L34.706 -60.633 Q33.379 -59.306 32.795 -57.576 Q32.213 -55.846 32.213 -54.072 V13.766 Q32.213 17.549 34.849 20.184 Q37.484 22.82 41.267 22.82 Z M71.421 -60.162 Q68.867 -60.162 67.13 -61.898 Q65.393 -63.634 65.393 -66.19 Q65.393 -68.585 67.13 -70.321 Q68.867 -72.056 71.421 -72.056 Q73.853 -72.056 75.65 -70.321 Q77.45 -68.585 77.326 -66.19 Q77.45 -63.634 75.65 -61.898 Q73.853 -60.162 71.421 -60.162 Z M80.625 22.82 Q73.89 22.82 69.196 18.124 Q64.5 13.43 64.5 6.695 Q64.5 0.071 69.139 -4.499 Q73.778 -9.07 80.525 -9.43 Q82.895 -15.396 88.173 -18.863 Q93.451 -22.33 100.099 -22.33 Q107.876 -22.33 114.078 -17.933 Q120.28 -13.535 121.112 -6.205 H122.798 Q128.244 -6.205 131.846 -1.832 Q135.45 2.54 135.45 8.308 Q135.45 14.2 131.785 18.51 Q128.12 22.82 122.55 22.82 H80.625 Z"/></g><g id="Ultralight-L" transform="matrix(1 0 0 1 491.205 1556)"><path d="M43.054 20.885 H47.73 Q49.665 20.885 50.713 19.192 Q51.761 17.499 50.955 15.725 Q50.149 13.306 49.746 10.726 Q49.343 8.146 49.343 5.728 Q49.343 -4.109 54.986 -11.849 Q60.63 -19.589 69.983 -22.652 Q74.82 -29.586 82.399 -33.537 Q89.978 -37.487 99.008 -37.487 Q100.459 -37.487 101.829 -37.407 Q103.2 -37.326 104.651 -37.165 Q106.586 -36.842 108.038 -38.052 Q109.489 -39.261 109.489 -41.035 V-53.774 Q109.489 -55.547 108.844 -57.241 Q108.199 -58.934 106.909 -60.224 L77.884 -88.926 Q76.594 -90.216 74.981 -90.781 Q73.369 -91.345 71.595 -91.345 Q69.821 -91.345 68.128 -90.7 Q66.435 -90.055 65.306 -88.926 L36.604 -60.224 Q35.314 -58.934 34.749 -57.241 Q34.185 -55.547 34.185 -53.774 V12.016 Q34.185 15.725 36.765 18.305 Q39.345 20.885 43.054 20.885 Z M71.756 -60.869 Q69.499 -60.869 67.967 -62.401 Q66.435 -63.932 66.435 -66.19 Q66.435 -68.286 67.967 -69.818 Q69.499 -71.35 71.756 -71.35 Q73.853 -71.35 75.465 -69.818 Q77.078 -68.286 76.916 -66.19 Q77.078 -63.932 75.465 -62.401 Q73.853 -60.869 71.756 -60.869 Z M79.657 20.885 Q73.369 20.885 68.934 16.451 Q64.5 12.016 64.5 5.728 Q64.5 -0.561 68.934 -4.834 Q73.369 -9.107 79.819 -9.43 Q82.076 -15.396 87.317 -18.863 Q92.558 -22.33 99.169 -22.33 Q106.909 -22.33 113.036 -17.896 Q119.164 -13.461 119.809 -6.205 H121.905 Q126.904 -6.205 130.209 -2.093 Q133.515 2.019 133.515 7.34 Q133.515 12.823 130.129 16.854 Q126.743 20.885 121.583 20.885 H79.657 Z"/></g><g id="Bold-M" transform="matrix(1 0 0 1 2281.8 1126)"><path d="M31.25 24.77 H37.875 Q41.5 24.77 43.312 21.583 Q45.125 18.395 43.625 14.895 Q43 12.77 42.625 10.52 Q42.25 8.27 42.25 6.02 Q42.25 -3.48 47.688 -10.855 Q53.125 -18.23 61.875 -21.105 Q65.25 -25.48 69.875 -28.292 Q74.5 -31.105 79.875 -32.23 Q81.75 -32.605 83.688 -32.73 Q85.625 -32.855 87.625 -32.73 Q90.875 -32.605 93.312 -34.667 Q95.75 -36.73 95.75 -39.855 V-49.355 Q95.75 -52.48 94.562 -55.355 Q93.375 -58.23 91.25 -60.355 L66.75 -84.855 Q64.375 -87.23 61.562 -88.355 Q58.75 -89.48 55.75 -89.48 Q52.75 -89.48 49.875 -88.355 Q47 -87.23 44.625 -84.855 L20.125 -60.355 Q18 -58.23 16.812 -55.355 Q15.625 -52.48 15.625 -49.355 V9.27 Q15.625 15.645 20.25 20.208 Q24.875 24.77 31.25 24.77 Z M55.75 -49.105 Q52.625 -49.105 50.562 -51.167 Q48.5 -53.23 48.5 -56.355 Q48.5 -59.355 50.562 -61.417 Q52.625 -63.48 55.75 -63.48 Q58.75 -63.48 60.812 -61.417 Q62.875 -59.355 62.875 -56.355 Q62.875 -53.23 60.812 -51.167 Q58.75 -49.105 55.75 -49.105 Z M71.125 24.895 Q63.25 24.895 57.75 19.395 Q52.25 13.895 52.25 6.02 Q52.25 -0.98 56.688 -6.167 Q61.125 -11.355 68 -12.355 Q70.875 -17.23 75.688 -20.042 Q80.5 -22.855 86.125 -22.855 Q93.25 -22.855 99.312 -19.73 Q105.375 -16.605 106.5 -9.98 Q112.5 -8.73 116.25 -3.792 Q120 1.145 120 7.395 Q120 14.52 115.25 19.708 Q110.5 24.895 103.625 24.895 H71.125 Z"/></g><g id="Semibold-M" transform="matrix(1 0 0 1 1985.97 1126)"><path d="M30.706 20.423 H37.929 Q40.956 20.423 42.47 17.779 Q43.984 15.134 42.701 12.233 Q42.021 10.108 41.646 7.884 Q41.271 5.661 41.271 3.303 Q41.271 -5.707 46.519 -12.73 Q51.766 -19.751 60.136 -22.409 Q63.674 -27.11 68.843 -29.977 Q74.011 -32.844 79.875 -33.48 Q81.37 -33.692 82.926 -33.762 Q84.484 -33.834 86.049 -33.654 Q88.864 -33.42 91.03 -35.156 Q93.196 -36.892 93.196 -39.584 V-49.517 Q93.25 -52.154 92.252 -54.567 Q91.255 -56.98 89.456 -58.834 L64.847 -83.714 Q62.854 -85.709 60.475 -86.67 Q58.097 -87.632 55.532 -87.632 Q53.021 -87.632 50.581 -86.67 Q48.141 -85.709 46.201 -83.714 L21.32 -58.834 Q19.521 -57.035 18.524 -54.649 Q17.527 -52.262 17.527 -49.572 V7.314 Q17.527 12.819 21.364 16.621 Q25.201 20.423 30.706 20.423 Z M55.424 -49.54 Q52.299 -49.54 50.236 -51.656 Q48.174 -53.774 48.065 -56.899 Q48.174 -59.952 50.236 -62.07 Q52.299 -64.186 55.424 -64.186 Q58.479 -64.186 60.514 -62.07 Q62.549 -59.952 62.712 -56.899 Q62.549 -53.774 60.514 -51.656 Q58.479 -49.54 55.424 -49.54 Z M68.463 20.493 Q61.239 20.493 56.255 15.51 Q51.271 10.526 51.271 3.303 Q51.271 -3.262 55.574 -8.07 Q59.875 -12.876 66.37 -13.55 Q68.864 -18.262 73.405 -21.075 Q77.946 -23.887 83.299 -23.887 Q89.881 -23.887 95.4 -20.681 Q100.919 -17.475 102.206 -11.175 Q108.044 -10.469 111.847 -5.912 Q115.653 -1.355 115.653 4.624 Q115.653 11.096 111.419 15.795 Q107.185 20.493 100.963 20.493 H68.463 Z"/></g><g id="Medium-M" transform="matrix(1 0 0 1 1689.91 1126)"><path d="M30.299 17.161 H37.97 Q40.549 17.161 41.839 14.925 Q43.127 12.689 42.009 10.235 Q41.288 8.11 40.913 5.908 Q40.538 3.705 40.538 1.265 Q40.538 -7.38 45.642 -14.136 Q50.748 -20.892 58.831 -23.387 Q62.491 -28.334 68.067 -31.241 Q73.644 -34.149 79.875 -34.417 Q81.084 -34.507 82.356 -34.537 Q83.627 -34.567 84.866 -34.346 Q87.356 -34.031 89.317 -35.524 Q91.28 -37.015 91.28 -39.38 V-49.64 Q91.375 -51.909 90.52 -53.976 Q89.666 -56.042 88.111 -57.692 L63.421 -82.857 Q61.712 -84.567 59.66 -85.406 Q57.609 -86.246 55.37 -86.246 Q53.225 -86.246 51.111 -85.406 Q48.998 -84.567 47.384 -82.857 L22.218 -57.692 Q20.663 -56.137 19.809 -54.119 Q18.954 -52.1 18.954 -49.735 V5.846 Q18.954 10.7 22.2 13.93 Q25.446 17.161 30.299 17.161 Z M55.179 -49.866 Q52.054 -49.866 49.991 -52.024 Q47.929 -54.181 47.739 -57.306 Q47.929 -60.401 49.991 -62.559 Q52.054 -64.716 55.179 -64.716 Q58.275 -64.716 60.29 -62.559 Q62.304 -60.401 62.59 -57.306 Q62.304 -54.181 60.29 -52.024 Q58.275 -49.866 55.179 -49.866 Z M66.465 17.191 Q59.731 17.191 55.135 12.595 Q50.538 7.999 50.538 1.265 Q50.538 -4.975 54.737 -9.496 Q58.938 -14.017 65.146 -14.447 Q67.356 -19.037 71.692 -21.85 Q76.03 -24.662 81.18 -24.662 Q87.354 -24.662 92.465 -21.395 Q97.576 -18.126 98.986 -12.072 Q104.701 -11.774 108.546 -7.501 Q112.391 -3.23 112.391 2.545 Q112.391 8.529 108.545 12.86 Q104.699 17.191 98.965 17.191 H66.465 Z"/></g><g id="Regular-M" transform="matrix(1 0 0 1 1394.06 1126)"><path d="M30 14.77 H38 Q40.25 14.77 41.375 12.833 Q42.5 10.895 41.5 8.77 Q40.75 6.645 40.375 4.458 Q40 2.27 40 -0.23 Q40 -8.605 45 -15.167 Q50 -21.73 57.875 -24.105 Q61.625 -29.23 67.5 -32.167 Q73.375 -35.105 79.875 -35.105 Q80.875 -35.105 81.938 -35.105 Q83 -35.105 84 -34.855 Q86.25 -34.48 88.062 -35.792 Q89.875 -37.105 89.875 -39.23 V-49.73 Q90 -51.73 89.25 -53.542 Q88.5 -55.355 87.125 -56.855 L62.375 -82.23 Q60.875 -83.73 59.062 -84.48 Q57.25 -85.23 55.25 -85.23 Q53.375 -85.23 51.5 -84.48 Q49.625 -83.73 48.25 -82.23 L22.875 -56.855 Q21.5 -55.48 20.75 -53.73 Q20 -51.98 20 -49.855 V4.77 Q20 9.145 22.812 11.958 Q25.625 14.77 30 14.77 Z M55 -50.105 Q51.875 -50.105 49.812 -52.292 Q47.75 -54.48 47.5 -57.605 Q47.75 -60.73 49.812 -62.917 Q51.875 -65.105 55 -65.105 Q58.125 -65.105 60.125 -62.917 Q62.125 -60.73 62.5 -57.605 Q62.125 -54.48 60.125 -52.292 Q58.125 -50.105 55 -50.105 Z M65 14.77 Q58.625 14.77 54.312 10.458 Q50 6.145 50 -0.23 Q50 -6.23 54.125 -10.542 Q58.25 -14.855 64.25 -15.105 Q66.25 -19.605 70.438 -22.417 Q74.625 -25.23 79.625 -25.23 Q85.5 -25.23 90.312 -21.917 Q95.125 -18.605 96.625 -12.73 Q102.25 -12.73 106.125 -8.667 Q110 -4.605 110 1.02 Q110 6.645 106.438 10.708 Q102.875 14.77 97.5 14.77 H65 Z"/></g><g id="Light-M" transform="matrix(1 0 0 1 1098.18 1126)"><path d="M31.586 12.27 H37.086 Q39.144 12.27 40.172 10.525 Q41.201 8.78 40.346 6.846 Q39.644 4.866 39.341 2.799 Q39.039 0.731 39.039 -1.48 Q39.039 -9.615 43.822 -16.032 Q48.606 -22.451 56.289 -24.874 Q60.086 -30.095 66.01 -33.105 Q71.933 -36.115 78.672 -36.115 Q79.672 -36.115 80.735 -36.115 Q81.797 -36.115 82.797 -35.865 Q84.856 -35.537 86.451 -36.73 Q88.047 -37.922 88.047 -39.855 V-49.586 Q88.125 -51.394 87.448 -53.061 Q86.769 -54.73 85.539 -56.086 L61.943 -80.066 Q60.586 -81.422 58.919 -82.076 Q57.25 -82.73 55.443 -82.73 Q53.76 -82.73 52.029 -82.052 Q50.299 -81.374 49.068 -80.066 L25.086 -56.086 Q23.808 -54.806 23.154 -53.201 Q22.5 -51.595 22.5 -49.662 V3.184 Q22.5 7.125 25.073 9.698 Q27.645 12.27 31.586 12.27 Z M55.289 -51.74 Q52.693 -51.74 50.919 -53.591 Q49.144 -55.441 48.99 -58.037 Q49.144 -60.634 50.919 -62.485 Q52.693 -64.336 55.289 -64.336 Q57.885 -64.336 59.62 -62.485 Q61.356 -60.634 61.586 -58.037 Q61.356 -55.441 59.62 -53.591 Q57.885 -51.74 55.289 -51.74 Z M63.75 12.27 Q57.951 12.27 53.976 8.294 Q50 4.318 50 -1.48 Q50 -6.999 53.86 -10.951 Q57.721 -14.902 63.336 -15.152 Q65.24 -19.652 69.38 -22.441 Q73.519 -25.23 78.519 -25.23 Q84.442 -25.23 89.183 -21.87 Q93.922 -18.509 95.086 -12.73 H95.711 Q100.711 -12.73 104.105 -9.004 Q107.5 -5.279 107.5 -0.23 Q107.5 4.866 104.297 8.568 Q101.096 12.27 96.25 12.27 H63.75 Z"/></g><g id="Thin-M" transform="matrix(1 0 0 1 802.565 1126)"><path d="M33.172 9.77 H36.172 Q38.039 9.77 38.971 8.218 Q39.904 6.664 39.193 4.924 Q38.539 3.088 38.307 1.14 Q38.078 -0.807 38.078 -2.73 Q38.078 -10.624 42.644 -16.899 Q47.211 -23.172 54.703 -25.644 Q58.547 -30.961 64.519 -34.042 Q70.49 -37.124 77.471 -37.124 Q78.471 -37.124 79.534 -37.124 Q80.596 -37.124 81.596 -36.874 Q83.461 -36.595 84.841 -37.667 Q86.221 -38.74 86.221 -40.48 V-49.441 Q86.25 -51.057 85.644 -52.581 Q85.039 -54.105 83.953 -55.316 L61.51 -77.902 Q60.297 -79.115 58.774 -79.672 Q57.25 -80.23 55.635 -80.23 Q54.144 -80.23 52.557 -79.624 Q50.971 -79.019 49.885 -77.902 L27.297 -55.316 Q26.115 -54.134 25.558 -52.672 Q25 -51.211 25 -49.47 V1.598 Q25 5.106 27.331 7.439 Q29.664 9.77 33.172 9.77 Z M55.578 -53.374 Q53.51 -53.374 52.024 -54.889 Q50.539 -56.402 50.481 -58.47 Q50.539 -60.537 52.024 -62.052 Q53.51 -63.566 55.578 -63.566 Q57.644 -63.566 59.115 -62.052 Q60.586 -60.537 60.672 -58.47 Q60.586 -56.402 59.115 -54.889 Q57.644 -53.374 55.578 -53.374 Z M62.5 9.77 Q57.279 9.77 53.64 6.13 Q50 2.491 50 -2.73 Q50 -7.769 53.596 -11.36 Q57.193 -14.951 62.422 -15.201 Q64.231 -19.701 68.323 -22.465 Q72.414 -25.23 77.414 -25.23 Q83.385 -25.23 88.052 -21.821 Q92.721 -18.412 93.547 -12.73 H94.797 Q99.172 -12.73 102.086 -9.34 Q105 -5.951 105 -1.48 Q105 3.088 102.159 6.429 Q99.317 9.77 95 9.77 H62.5 Z"/></g><g id="Ultralight-M" transform="matrix(1 0 0 1 506.415 1126)"><path d="M34.125 8.27 H35.625 Q37.375 8.27 38.25 6.833 Q39.125 5.395 38.5 3.77 Q37.875 2.02 37.688 0.145 Q37.5 -1.73 37.5 -3.48 Q37.5 -11.23 41.938 -17.417 Q46.375 -23.605 53.75 -26.105 Q57.625 -31.48 63.625 -34.605 Q69.625 -37.73 76.75 -37.73 Q77.75 -37.73 78.812 -37.73 Q79.875 -37.73 80.875 -37.48 Q82.625 -37.23 83.875 -38.23 Q85.125 -39.23 85.125 -40.855 V-49.355 Q85.125 -50.855 84.562 -52.292 Q84 -53.73 83 -54.855 L61.25 -76.605 Q60.125 -77.73 58.688 -78.23 Q57.25 -78.73 55.75 -78.73 Q54.375 -78.73 52.875 -78.167 Q51.375 -77.605 50.375 -76.605 L28.625 -54.855 Q27.5 -53.73 27 -52.355 Q26.5 -50.98 26.5 -49.355 V0.645 Q26.5 3.895 28.688 6.083 Q30.875 8.27 34.125 8.27 Z M55.75 -54.355 Q54 -54.355 52.688 -55.667 Q51.375 -56.98 51.375 -58.73 Q51.375 -60.48 52.688 -61.792 Q54 -63.105 55.75 -63.105 Q57.5 -63.105 58.812 -61.792 Q60.125 -60.48 60.125 -58.73 Q60.125 -56.98 58.812 -55.667 Q57.5 -54.355 55.75 -54.355 Z M61.75 8.27 Q56.875 8.27 53.438 4.833 Q50 1.395 50 -3.48 Q50 -8.23 53.438 -11.605 Q56.875 -14.98 61.875 -15.23 Q63.625 -19.73 67.688 -22.48 Q71.75 -25.23 76.75 -25.23 Q82.75 -25.23 87.375 -21.792 Q92 -18.355 92.625 -12.73 H94.25 Q98.25 -12.73 100.875 -9.542 Q103.5 -6.355 103.5 -2.23 Q103.5 2.02 100.875 5.145 Q98.25 8.27 94.25 8.27 H61.75 Z"/></g><g id="Bold-S" transform="matrix(1 0 0 1 2294.23 696)"><path d="M27.023 10.532 H29.686 Q32.349 10.532 33.73 8.165 Q35.111 5.798 33.927 3.234 Q33.237 1.459 32.891 -0.465 Q32.546 -2.388 32.546 -4.262 Q32.546 -11.067 36.245 -16.491 Q39.943 -21.916 46.058 -24.381 Q48.425 -28.819 52.419 -31.63 Q56.413 -34.441 61.542 -35.329 Q63.515 -35.624 65.536 -35.575 Q67.558 -35.526 69.629 -35.23 Q71.996 -34.934 73.821 -36.463 Q75.645 -37.991 75.645 -40.358 V-46.079 Q75.547 -48.446 74.708 -50.566 Q73.87 -52.687 72.194 -54.166 L53.356 -73.102 Q51.581 -74.877 49.559 -75.666 Q47.537 -76.455 45.367 -76.455 Q43.099 -76.455 40.979 -75.617 Q38.858 -74.779 37.083 -73.102 L18.837 -54.166 Q17.161 -52.489 16.322 -50.369 Q15.484 -48.248 15.484 -45.98 V-0.908 Q15.484 3.628 18.985 7.08 Q22.486 10.532 27.023 10.532 Z M45.466 -43.81 Q43.001 -43.81 41.275 -45.438 Q39.549 -47.065 39.746 -49.531 Q39.549 -51.799 41.275 -53.426 Q43.001 -55.054 45.466 -55.054 Q47.833 -55.054 49.608 -53.426 Q51.384 -51.799 51.088 -49.531 Q51.384 -47.065 49.608 -45.438 Q47.833 -43.81 45.466 -43.81 Z M54.54 10.631 Q48.326 10.631 43.987 6.291 Q39.647 1.952 39.647 -4.262 Q39.647 -9.489 42.803 -13.483 Q45.959 -17.477 51.088 -18.661 Q53.06 -23.395 57.252 -26.009 Q61.443 -28.622 66.671 -28.622 Q72.983 -28.622 77.864 -25.318 Q82.746 -22.014 83.24 -16.393 Q87.678 -15.012 90.39 -11.313 Q93.102 -7.615 93.102 -2.98 Q93.102 2.642 88.96 6.636 Q84.818 10.631 79.393 10.631 H54.54 Z"/></g><g id="Semibold-S" transform="matrix(1 0 0 1 1998.1 696)"><path d="M26.594 7.102 H29.729 Q31.92 7.102 33.065 5.164 Q34.21 3.225 33.198 1.133 Q32.464 -0.642 32.119 -2.545 Q31.774 -4.446 31.774 -6.406 Q31.774 -12.824 35.323 -17.971 Q38.871 -23.116 44.686 -25.41 Q47.181 -30.105 51.605 -32.96 Q56.028 -35.813 61.542 -36.315 Q63.215 -36.483 64.936 -36.39 Q66.658 -36.298 68.386 -35.959 Q70.409 -35.577 72.02 -36.848 Q73.63 -38.12 73.63 -40.144 V-46.207 Q73.574 -48.188 72.886 -49.945 Q72.197 -51.7 70.778 -52.966 L51.855 -72.202 Q50.381 -73.677 48.701 -74.337 Q47.022 -74.998 45.196 -74.998 Q43.313 -74.998 41.536 -74.287 Q39.759 -73.578 38.327 -72.202 L19.78 -52.966 Q18.361 -51.547 17.673 -49.812 Q16.985 -48.077 16.985 -46.152 V-2.452 Q16.985 1.398 19.864 4.251 Q22.744 7.102 26.594 7.102 Z M45.209 -44.154 Q42.743 -44.154 41.017 -45.823 Q39.291 -47.494 39.403 -49.96 Q39.291 -52.27 41.017 -53.941 Q42.743 -55.611 45.209 -55.611 Q47.619 -55.611 49.373 -53.941 Q51.126 -52.27 50.96 -49.96 Q51.126 -47.494 49.373 -45.823 Q47.619 -44.154 45.209 -44.154 Z M52.439 7.157 Q46.739 7.157 42.807 3.226 Q38.875 -0.706 38.875 -6.406 Q38.875 -11.29 41.925 -14.984 Q44.973 -18.678 49.802 -19.604 Q51.473 -24.21 55.451 -26.823 Q59.428 -29.437 64.441 -29.437 Q70.325 -29.437 74.777 -26.069 Q79.23 -22.701 79.852 -17.335 Q84.162 -16.384 86.916 -12.986 Q89.672 -9.587 89.672 -5.166 Q89.672 -0.059 85.937 3.549 Q82.202 7.157 77.292 7.157 H52.439 Z"/></g><g id="Medium-S" transform="matrix(1 0 0 1 1701.85 696)"><path d="M26.273 4.529 H29.761 Q31.598 4.529 32.567 2.912 Q33.534 1.296 32.652 -0.443 Q31.885 -2.218 31.54 -4.104 Q31.195 -5.99 31.195 -8.013 Q31.195 -14.144 34.631 -19.08 Q38.067 -24.016 43.656 -26.182 Q46.248 -31.071 50.993 -33.957 Q55.738 -36.843 61.542 -37.055 Q62.989 -37.126 64.486 -37.001 Q65.982 -36.877 67.453 -36.505 Q69.22 -36.059 70.669 -37.138 Q72.119 -38.216 72.119 -39.984 V-46.304 Q72.095 -47.995 71.519 -49.478 Q70.944 -50.961 69.717 -52.065 L50.73 -71.526 Q49.48 -72.777 48.058 -73.34 Q46.637 -73.904 45.068 -73.904 Q43.474 -73.904 41.954 -73.29 Q40.434 -72.678 39.26 -71.526 L20.488 -52.065 Q19.261 -50.838 18.686 -49.394 Q18.111 -47.949 18.111 -46.28 V-3.61 Q18.111 -0.273 20.524 2.127 Q22.937 4.529 26.273 4.529 Z M45.015 -44.411 Q42.55 -44.411 40.824 -46.113 Q39.098 -47.816 39.145 -50.281 Q39.098 -52.624 40.824 -54.327 Q42.55 -56.029 45.015 -56.029 Q47.458 -56.029 49.196 -54.327 Q50.933 -52.624 50.863 -50.281 Q50.933 -47.816 49.196 -46.113 Q47.458 -44.411 45.015 -44.411 Z M50.863 4.552 Q45.55 4.552 41.924 0.926 Q38.296 -2.701 38.296 -8.013 Q38.296 -12.641 41.265 -16.11 Q44.233 -19.578 48.836 -20.312 Q50.284 -24.821 54.1 -27.435 Q57.917 -30.048 62.769 -30.048 Q68.33 -30.048 72.462 -26.632 Q76.593 -23.215 77.311 -18.044 Q81.524 -17.413 84.312 -14.24 Q87.099 -11.067 87.099 -6.806 Q87.099 -2.085 83.67 1.234 Q80.24 4.552 75.716 4.552 H50.863 Z"/></g><g id="Regular-S" transform="matrix(1 0 0 1 1405.73 696)"><path d="M26.037 2.642 H29.785 Q31.363 2.642 32.201 1.261 Q33.039 -0.119 32.25 -1.599 Q31.461 -3.374 31.116 -5.248 Q30.771 -7.122 30.771 -9.193 Q30.771 -15.11 34.124 -19.894 Q37.477 -24.677 42.902 -26.748 Q45.565 -31.778 50.545 -34.688 Q55.526 -37.597 61.542 -37.597 Q62.824 -37.597 64.156 -37.449 Q65.487 -37.301 66.769 -36.907 Q68.347 -36.413 69.679 -37.35 Q71.01 -38.287 71.01 -39.865 V-46.375 Q71.01 -47.854 70.517 -49.136 Q70.024 -50.418 68.939 -51.404 L49.904 -71.031 Q48.819 -72.116 47.587 -72.609 Q46.354 -73.102 44.973 -73.102 Q43.592 -73.102 42.261 -72.56 Q40.929 -72.017 39.943 -71.031 L21.007 -51.404 Q19.922 -50.32 19.429 -49.087 Q18.936 -47.854 18.936 -46.375 V-4.459 Q18.936 -1.5 21.007 0.571 Q23.078 2.642 26.037 2.642 Z M44.874 -44.599 Q42.409 -44.599 40.683 -46.325 Q38.957 -48.051 38.957 -50.517 Q38.957 -52.884 40.683 -54.61 Q42.409 -56.336 44.874 -56.336 Q47.34 -56.336 49.066 -54.61 Q50.792 -52.884 50.792 -50.517 Q50.792 -48.051 49.066 -46.325 Q47.34 -44.599 44.874 -44.599 Z M49.707 2.642 Q44.677 2.642 41.275 -0.761 Q37.872 -4.163 37.872 -9.193 Q37.872 -13.631 40.781 -16.935 Q43.691 -20.239 48.129 -20.831 Q49.411 -25.269 53.11 -27.882 Q56.808 -30.496 61.542 -30.496 Q66.868 -30.496 70.763 -27.044 Q74.659 -23.592 75.448 -18.562 Q79.59 -18.168 82.401 -15.16 Q85.212 -12.152 85.212 -8.009 Q85.212 -3.571 82.007 -0.465 Q78.801 2.642 74.561 2.642 H49.707 Z"/></g><g id="Light-S" transform="matrix(1 0 0 1 1109.75 696)"><path d="M27.289 0.67 H29.064 Q30.49 0.67 31.252 -0.559 Q32.015 -1.788 31.34 -3.117 Q30.589 -4.778 30.301 -6.557 Q30.013 -8.336 30.013 -10.179 Q30.013 -15.907 33.195 -20.576 Q36.378 -25.246 41.65 -27.355 Q44.351 -32.461 49.37 -35.427 Q54.388 -38.394 60.593 -38.394 Q61.875 -38.394 63.207 -38.246 Q64.538 -38.098 65.82 -37.704 Q67.247 -37.248 68.407 -38.09 Q69.568 -38.932 69.568 -40.358 V-46.261 Q69.531 -47.589 69.095 -48.756 Q68.658 -49.925 67.687 -50.798 L49.563 -69.324 Q48.592 -70.295 47.473 -70.712 Q46.354 -71.129 45.125 -71.129 Q43.896 -71.129 42.678 -70.644 Q41.461 -70.158 40.588 -69.324 L22.752 -50.798 Q21.743 -49.788 21.326 -48.67 Q20.909 -47.55 20.909 -46.223 V-5.711 Q20.909 -3.094 22.79 -1.212 Q24.672 0.67 27.289 0.67 Z M45.102 -45.889 Q43.054 -45.889 41.556 -47.35 Q40.057 -48.81 40.132 -50.858 Q40.057 -52.808 41.556 -54.269 Q43.054 -55.729 45.102 -55.729 Q47.151 -55.729 48.667 -54.269 Q50.185 -52.808 50.071 -50.858 Q50.185 -48.81 48.667 -47.35 Q47.151 -45.889 45.102 -45.889 Z M48.721 0.67 Q44.146 0.67 41.009 -2.468 Q37.872 -5.605 37.872 -10.179 Q37.872 -14.238 40.572 -17.258 Q43.274 -20.276 47.408 -20.868 Q48.614 -25.306 52.275 -27.901 Q55.935 -30.496 60.669 -30.496 Q66.033 -30.496 69.872 -27.007 Q73.71 -23.516 74.234 -18.562 H74.727 Q78.376 -18.168 80.807 -15.425 Q83.24 -12.683 83.24 -8.996 Q83.24 -4.975 80.318 -2.153 Q77.398 0.67 73.574 0.67 H48.721 Z"/></g><g id="Thin-S" transform="matrix(1 0 0 1 814.015 696)"><path d="M28.54 -1.303 H28.343 Q29.618 -1.303 30.305 -2.38 Q30.991 -3.458 30.43 -4.634 Q29.717 -6.181 29.485 -7.866 Q29.254 -9.55 29.254 -11.165 Q29.254 -16.703 32.265 -21.26 Q35.277 -25.815 40.399 -27.962 Q43.137 -33.144 48.193 -36.167 Q53.25 -39.19 59.645 -39.19 Q60.928 -39.19 62.259 -39.042 Q63.59 -38.894 64.873 -38.499 Q66.147 -38.082 67.137 -38.83 Q68.127 -39.577 68.127 -40.852 V-46.147 Q68.051 -47.323 67.672 -48.378 Q67.293 -49.432 66.436 -50.19 L49.222 -67.616 Q48.364 -68.475 47.359 -68.816 Q46.354 -69.157 45.277 -69.157 Q44.199 -69.157 43.095 -68.728 Q41.992 -68.3 41.233 -67.616 L24.496 -50.19 Q23.563 -49.257 23.222 -48.252 Q22.881 -47.247 22.881 -46.071 V-6.962 Q22.881 -4.687 24.572 -2.994 Q26.265 -1.303 28.54 -1.303 Z M45.33 -47.178 Q43.699 -47.178 42.427 -48.374 Q41.157 -49.568 41.309 -51.199 Q41.157 -52.732 42.427 -53.927 Q43.699 -55.122 45.33 -55.122 Q46.96 -55.122 48.269 -53.927 Q49.578 -52.732 49.35 -51.199 Q49.578 -49.568 48.269 -48.374 Q46.96 -47.178 45.33 -47.178 Z M47.735 -1.303 Q43.615 -1.303 40.744 -4.175 Q37.872 -7.046 37.872 -11.165 Q37.872 -14.845 40.364 -17.58 Q42.857 -20.315 46.687 -20.907 Q47.818 -25.345 51.441 -27.92 Q55.063 -30.496 59.797 -30.496 Q65.199 -30.496 68.98 -26.968 Q72.763 -23.44 73.02 -18.562 H74.006 Q77.162 -18.168 79.215 -15.69 Q81.267 -13.214 81.267 -9.982 Q81.267 -6.378 78.631 -3.841 Q75.995 -1.303 72.588 -1.303 H47.735 Z"/></g><g id="Ultralight-S" transform="matrix(1 0 0 1 517.792 696)"><path d="M29.292 -2.486 H27.911 Q29.094 -2.486 29.735 -3.473 Q30.377 -4.459 29.883 -5.544 Q29.193 -7.023 28.996 -8.651 Q28.799 -10.278 28.799 -11.757 Q28.799 -17.182 31.708 -21.669 Q34.617 -26.156 39.647 -28.326 Q42.409 -33.553 47.488 -36.611 Q52.567 -39.668 59.076 -39.668 Q60.358 -39.668 61.69 -39.52 Q63.021 -39.372 64.303 -38.978 Q65.487 -38.583 66.375 -39.274 Q67.262 -39.964 67.262 -41.147 V-46.079 Q67.164 -47.164 66.818 -48.15 Q66.473 -49.136 65.684 -49.826 L49.017 -66.593 Q48.228 -67.382 47.291 -67.678 Q46.354 -67.973 45.367 -67.973 Q44.381 -67.973 43.346 -67.579 Q42.31 -67.184 41.62 -66.593 L25.544 -49.826 Q24.656 -48.939 24.36 -48.002 Q24.065 -47.065 24.065 -45.98 V-7.714 Q24.065 -5.642 25.643 -4.064 Q27.221 -2.486 29.292 -2.486 Z M45.466 -47.953 Q44.085 -47.953 42.951 -48.988 Q41.817 -50.024 42.014 -51.404 Q41.817 -52.687 42.951 -53.722 Q44.085 -54.758 45.466 -54.758 Q46.847 -54.758 48.03 -53.722 Q49.214 -52.687 48.918 -51.404 Q49.214 -50.024 48.03 -48.988 Q46.847 -47.953 45.466 -47.953 Z M47.143 -2.486 Q43.296 -2.486 40.584 -5.199 Q37.872 -7.911 37.872 -11.757 Q37.872 -15.209 40.239 -17.773 Q42.606 -20.338 46.255 -20.929 Q47.34 -25.367 50.94 -27.932 Q54.54 -30.496 59.274 -30.496 Q64.698 -30.496 68.446 -26.945 Q72.194 -23.395 72.292 -18.562 H73.574 Q76.434 -18.168 78.259 -15.85 Q80.084 -13.532 80.084 -10.574 Q80.084 -7.22 77.618 -4.853 Q75.152 -2.486 71.996 -2.486 H47.143 Z"/></g></g></svg>