<svg xmlns="http://www.w3.org/2000/svg" height="40" viewBox="0 -960 960 960" width="40"><path d="M194.56-881.33h571.88q47.61 0 81.25 33.7t33.64 81.58v114.92h-79.95v572.46H158.69v-572.46H78.67v-114.92q0-47.88 33.55-81.58 33.55-33.7 82.34-33.7Zm31.34 735.07h508.48l-60-97.07h-41.54v3.61q-2.66 11.68-11.23 18.9-8.57 7.23-21.24 7.23-12.06 0-21.59-7.23-9.52-7.22-12.19-18.9v-3.61H285.64l-59.74 97.07Zm407.94-408.46h100.54l-60-96.41h-40.54v96.41ZM194.56-813.74q-19.93 0-34.11 13.66-14.19 13.66-14.19 33.85v47.51h667.48v-47.08q0-20.12-13.83-34.03-13.84-13.91-33.47-13.91H194.56Zm-48.3 95.02h667.48-667.48ZM633.84-350.1h100.54l-60-96.82h-40.54v96.82Zm-407.94 0h340.36v-96.82H285.64L225.9-350.1Zm0-204.62h340.36v-96.41H285.64l-59.74 96.41Z"/></svg>