<svg xmlns="http://www.w3.org/2000/svg" height="48" viewBox="0 -960 960 960" width="48"><path d="M195-875h570.01q45.49 0 77.74 32.18Q875-810.65 875-765.01v109.51h-79.39V-85H165.5v-570.5H85v-109.26q0-45.74 31.9-77.99Q148.79-875 195-875Zm23.5 732.5h524l-74.5-106h-37.5v7q0 12.25-8.48 20.37-8.49 8.13-20.27 8.13-11.03 0-19.89-8.13-8.86-8.12-8.86-20.37v-7H293l-74.5 106Zm412-407h112l-74.5-106h-37.5v106ZM195-817.5q-22.81 0-37.66 15.31-14.84 15.3-14.84 37.34V-713h675v-51.93q0-22.07-15.31-37.32-15.3-15.25-37.19-15.25H195ZM142.5-713h675-675Zm488 367.5h112l-74.5-106h-37.5v106Zm-412 0H573v-106H293l-74.5 106Zm0-204H573v-106H293l-74.5 106Z"/></svg>