<svg xmlns="http://www.w3.org/2000/svg" height="48" viewBox="0 -960 960 960" width="48"><path d="M211-844h539q38.5 0 66.25 27.75T844-749.53V-656h-80v540H195v-540h-79v-93.41q0-38.92 27.33-66.76Q170.67-844 211-844Zm29 693h480l-64-121h-50v11q-2 5.68-6.17 8.84T589.49-249q-5.49 0-10.49-3.16t-7-8.84v-11H303l-63 121Zm367-385h113l-64-120h-49v120ZM211-809q-24.9 0-42.45 16.96Q151-775.07 151-750v59h658v-57.96q0-25.05-17.31-42.55Q774.37-809 750-809H211Zm-60 118h658-658Zm456 347h113l-64-120h-49v120Zm-367 0h332v-120H303l-63 120Zm0-192h332v-120H303l-63 120Z"/></svg>