<svg xmlns="http://www.w3.org/2000/svg" height="40" viewBox="0 -960 960 960" width="40"><path d="M186.65-906.23h587.7q55.28 0 93.58 38.31 38.3 38.32 38.3 93.56v132.56h-79.92v587.65h-691.5V-641.8H54.15v-132.67q0-55.05 38.23-93.41 38.23-38.35 94.27-38.35Zm31.15 755.65h525.45l-50.77-71.91h-45.15v-1.97q-5.3 12.52-16.08 19.66-10.77 7.13-25.25 7.13-13.99 0-25.48-7.13-11.49-7.14-16.8-19.66v1.97H268.57l-50.77 71.91Zm436.19-419.97h89.26l-50.69-71.25h-38.57v71.25Zm0 210.91h89.26l-50.69-71.91h-38.57v71.91Zm-436.19 0h339.37v-71.91h-288.6l-50.77 71.91Zm0-210.91h339.37v-71.25h-288.6l-50.77 71.25Z"/></svg>