<svg xmlns="http://www.w3.org/2000/svg" height="24" viewBox="0 -960 960 960" width="24"><path d="M203.59-878.13h552.32q50.93 0 86.57 35.54 35.65 35.54 35.65 86.31v121.85h-79.5v552.56H160.87v-552.56h-79v-121.72q0-50.83 35.31-86.4 35.32-35.58 86.41-35.58Zm27.39 710.26h497.54l-50.3-72.2h-40.11v7.22q-1.91 14.07-13.27 23.87-11.36 9.81-26.5 9.81t-26.5-9.81q-11.36-9.8-13.51-23.87v-7.22H281.28l-50.3 72.2Zm410.24-394.37h87.3l-50.3-72.19h-37v72.19ZM203.59-792.13q-15.18 0-25.45 10.59t-10.27 25.66v35.45h624.26v-35.49q0-15.08-10.62-25.65-10.63-10.56-25.6-10.56H203.59Zm-35.72 71.7h624.26-624.26Zm473.35 355.86h87.3l-50.3-72.19h-37v72.19Zm-410.24 0h324.24v-72.19H281.28l-50.3 72.19Zm0-197.67h324.24v-72.19H281.28l-50.3 72.19Z"/></svg>