<svg xmlns="http://www.w3.org/2000/svg" height="40" viewBox="0 -960 960 960" width="40"><path d="M206.77-855.26h546.49q42.02 0 72.01 29.88 29.99 29.88 29.99 72.08v101.29H775.8v547.27H184.3v-547.27h-79.56v-100.98q0-42.29 29.57-72.28 29.57-29.99 72.46-29.99Zm23.42 702.63h499.93l-68.48-109.02h-43.17v13.15q0 10.23-7.07 16.95-7.08 6.73-16.77 6.73-9.51 0-16.77-6.73-7.27-6.72-7.27-16.95v-13.15H298.41l-68.22 109.02Zm388.28-390.36h111.65l-68.48-109.02h-43.17v109.02Zm-411.7-264.38q-23.54 0-38.84 15.73-15.3 15.74-15.3 38.4v53.34h654.74v-53.18q0-22.71-15.77-38.5t-38.34-15.79H206.77ZM152.63-699.9h654.74-654.74Zm465.84 351.96h111.65l-68.48-108.77h-43.17v108.77Zm-388.28 0h340.4v-108.77H298.41l-68.22 108.77Zm0-195.05h340.4v-109.02H298.41l-68.22 109.02Z"/></svg>