<svg xmlns="http://www.w3.org/2000/svg" height="20" viewBox="0 -960 960 960" width="20"><path d="M216.98-873.22h525.54q54.63 0 92.66 37.96 38.04 37.95 38.04 92.46v105.91h-95.5v550.11H181.78v-550.11h-95v-106.2q0-54.39 37.79-92.26 37.78-37.87 92.41-37.87Zm38.65 693.44h448.24l-39.17-50.83h-40.35v-19.3q-6.52 8.11-16.07 13.28t-20.8 5.17q-11.68 0-21.51-5.17-9.84-5.17-16.93-13.28v19.3H294.8l-39.17 50.83ZM633.7-587.07h70.17l-39.17-50.82-31 1v49.82Zm0 204.96h70.17l-39.17-50.82h-31v50.82Zm-378.07 0H540.7v-50.82H294.8l-39.17 50.82Zm0-203.96H540.7v-50.82H294.8l-39.17 50.82Z"/></svg>