<svg xmlns="http://www.w3.org/2000/svg" height="40" viewBox="0 -960 960 960" width="40"><path d="M190.9-896.2h578.2q52.96 0 90.03 36.99 37.07 36.98 37.07 89.83v126.81h-79.92v578.4H144.84v-578.4H64.17v-126.96q0-52.67 36.96-89.67 36.97-37 89.77-37Zm26.9 743.88h525.45l-54.81-77.26h-46.89v4.58q-3.77 11.53-14.01 18.66-10.24 7.14-23.94 7.14-13.19 0-23.5-7.14-10.3-7.13-14.64-18.66v-4.58H272.61l-54.81 77.26ZM647.77-565.3h95.48l-54.81-77.27h-40.67v77.27Zm0 207.2h95.48l-54.81-77.26h-40.67v77.26Zm-429.97 0h341.45v-77.26H272.61L217.8-358.1Zm0-207.2h341.45v-77.27H272.61L217.8-565.3Z"/></svg>