<svg xmlns="http://www.w3.org/2000/svg" height="40" viewBox="0 -960 960 960" width="40"><path d="M185.33-901.33h590.34q52.36 0 89.01 36.75 36.65 36.75 36.65 89.25v126h-79.92v590.66H139.33v-590.66H58.67v-125.96q0-52.49 36.69-89.27 36.7-36.77 89.97-36.77Zm31.34 758.66H744l-60-85.66h-36.67v.66q-2.66 15.17-13.59 24.75-10.93 9.59-27.09 9.59-15.65 0-27.48-9.59-11.84-9.58-14.5-24.75v-.66h-288l-60 85.66Zm431.66-421.66H744l-60-85h-35.67v85Zm0 211.66H744l-60-85.66h-35.67v85.66Zm-431.66 0h347.66v-85.66H276.67l-60 85.66Zm0-211.66h347.66v-85H276.67l-60 85Z"/></svg>