<svg xmlns="http://www.w3.org/2000/svg" height="24" viewBox="0 -960 960 960" width="24"><path d="M186.57-919.91h587.86q60.95 0 103.22 42.18 42.26 42.18 42.26 102.95v145.82h-80v588.87H120.09v-588.87h-80v-146.05q0-60.62 42.55-102.76 42.56-42.14 103.93-42.14Zm36.56 756.87h513.74l-32.13-45.48h-45.61v-4.52q-7.39 14.61-20.94 23.28-13.56 8.67-31.49 8.67t-32.47-8.67q-14.53-8.67-21.93-23.28v4.52H255.26l-32.13 45.48Zm443.78-420.44h69.96l-32.05-45.48h-37.91v45.48ZM186.57-796.96q-9.9 0-16.71 6.15-6.82 6.15-6.82 15.91v22.99h633.92v-22.95q0-9.75-6.23-15.92-6.23-6.18-16.3-6.18H186.57Zm-23.53 45.05h633.92-633.92Zm503.87 379.43h69.96l-32.05-45.48h-37.91v45.48Zm-443.78 0h320.83v-45.48h-288.7l-32.13 45.48Zm0-211h320.83v-45.48h-288.7l-32.13 45.48Z"/></svg>