<svg xmlns="http://www.w3.org/2000/svg" height="20" viewBox="0 -960 960 960" width="20"><path d="M234.96-817.85h489.96q38.38 0 65.65 27.28 27.28 27.27 27.28 66.01v68.06h-95.5v514.35H236.77V-656.5h-94.62v-68.24q0-38.81 26.89-65.96 26.88-27.15 65.92-27.15Zm31.85 646.77h425.5l-60.77-104.77h-44.16v-2.61q-2 3.77-5.17 6.02-3.17 2.25-7.09 2.25-4.45 0-8.06-2.25-3.6-2.25-5.6-6.02v2.61H327.58l-60.77 104.77Zm322.57-381.65h102.93L631.54-657.5l-42.16 1v103.77Zm0 191h102.93L631.54-466.5h-42.16v104.77Zm-322.57 0h293.65V-466.5H327.58l-60.77 104.77Zm0-190h293.65V-656.5H327.58l-60.77 104.77Z"/></svg>