<svg xmlns="http://www.w3.org/2000/svg" height="40" viewBox="0 -960 960 960" width="40"><path d="M213.13-840h533.74q38.29 0 65.71 27.34Q840-785.31 840-746.77v92.51h-79.98V-120H199.38v-534.26H120v-92.58q0-38.58 27.16-65.87Q174.32-840 213.13-840Zm22 686.15h489.64l-68-119.48h-50.41v19.89q0 7.2-4.87 12.06-4.86 4.87-12.05 4.87-6.49 0-11.71-4.87-5.22-4.86-5.22-12.06v-19.89H302.62l-67.49 119.48Zm371.23-380.92h118.41l-68-119.49h-50.41v119.49Zm0 189.9h118.41l-68-118.98h-50.41v118.98Zm-371.23 0h337.38v-118.98H302.62l-67.49 118.98Zm0-189.9h337.38v-119.49H302.62l-67.49 119.49Z"/></svg>