<svg xmlns="http://www.w3.org/2000/svg" height="20" viewBox="0 -960 960 960" width="20"><path d="M448-411Zm187-11ZM97.87-192.87v-572.59h96.46l214.32 214.33H175.87v280.26h326.7v78H97.87Zm764.26-574.26v216H505.15l-216.24-216h71.86l72.1 143.96-5.96-5.96h98.79l-68.5-138h107.21l69 138h95.2l-68.5-138h202.02Zm-2.28 375.98-45-45 45 45Zm-61.89 133.08-116.2-116.69 134.59-132.59 113.69 116.7-132.08 132.58Zm-178.11 61.92h37.41l2.54-3.05-36.91-36.91-3.04 2.54v37.42Zm236.63 92.85-49.89 49.89-107.76-106.02-13.07 13.56H569.57v-116.2l13.56-13.8L57.46-803.54l49.89-49.89L856.48-103.3Z"/></svg>