<svg xmlns="http://www.w3.org/2000/svg" height="48" viewBox="0 -960 960 960" width="48"><path d="M487.12-422.04Zm134.61 0Zm-500.58 221v-557.92h72.7l146.11 146.11H151.35v381.62h331.73v30.19H121.15Zm717.7-557.92v146.11H438.62L293.27-758.96h61.99l61.32 123.19-8.16-7.27h128.27l-56.23-115.92h114.42l56.74 115.92H776l-57.12-115.92h119.97Zm5.34 360.04-37-37.77 37 37.77Zm-69.65 120.07-88.19-87.03 120.46-120.35 86.81 87.81-119.08 119.57Zm-170.35 82.16h38l34.89-35.39-37.5-37.5-35.39 34.89v38ZM857.38-95.42l-20.61 22.27-134.85-133.58-44.84 45.58h-88.43v-88.43l45.58-45.34L73.54-836.38l21.38-21.5L857.38-95.42Z"/></svg>