<svg xmlns="http://www.w3.org/2000/svg" height="48" viewBox="0 -960 960 960" width="48"><path d="m807.19-360.69 37-38.23-37-37.77-38 38 38 38Zm-32.65 81.84-88.19-87.03 120.46-120.35 86.81 87.81-119.08 119.57Zm-653.39 77.81v-557.92h72.7L575-377.81l-91.92 91.93v84.84H121.15Zm500.58-221L293.27-758.96h62.31l61 123.19-8.16-7.27h128.27l-56.23-115.92h114.42l56.74 115.92H776l-57.12-115.92h119.97v121.69L621.73-422.04ZM857.38-95.42l-20.61 22.27-134.85-133.58-44.84 45.58h-88.43v-88.43l45.58-45.34L73.54-836.38l21.38-21.5L857.38-95.42Z"/></svg>