<svg xmlns="http://www.w3.org/2000/svg" height="40" viewBox="0 -960 960 960" width="40"><path d="M469.26-402.56Zm174.69-17.29ZM78.67-160v-640h89.15l222.46 222.46H146.26v349.95h344.41V-160h-412Zm802.66-640v222.46H490.1L267.9-800h77.59l91.2 169.05-14.18-14.18h132.36L478.51-800h127.95l75.36 154.87h124.87L731.33-800h150Zm-16.02 422.02-37-37.38 37 37.38Zm-47.95 127.85L700.08-367.82l128.56-127.56 115.56 118.4-126.84 126.85Zm-192.05 74.77h30.33l20.41-20.41-30.33-30.33-20.41 20.41v30.33Zm265.95 98.8-47.75 47.99L719.13-151.9l-32.82 33.23H568.62v-117.69l33.23-33.62L29.57-842.51l47.99-47.75 813.7 813.7Z"/></svg>