<svg xmlns="http://www.w3.org/2000/svg" height="40" viewBox="0 -960 960 960" width="40"><path d="m807.62-359.38 37-38.24-37-37.76-38 38 38 38Zm-29.9 79.12-88.23-87.38 118.13-118.13 87.46 88.15-117.36 117.36ZM120-200v-560h72.31l380.82 380.82L480-286.05V-200H120Zm502.23-226.69L297.13-760h60.15l59.1 119.77-2.02-2.03h124.05L480.36-760h109.23l58.05 117.74h123.08L712.67-760H840v117.23L622.23-426.69ZM857.18-95.13l-23.82 24.34-132.77-132.34L657.62-160h-88.39v-88.38l43.13-42.9L70.79-833.36l24.34-23.82L857.18-95.13Z"/></svg>