<svg xmlns="http://www.w3.org/2000/svg" height="20" viewBox="0 -960 960 960" width="20"><path d="M432.7-399.09Zm219.52-22.48ZM56.09-152.96v-650.13h110.47l273.4 273.39H171.04v261.79h333.31v114.95H56.09Zm847.82-654.08v277.34H542.96L265.04-807.04h82.77l98.28 181.6-18.66-19.21h109.22l-80.91-162.39h123.35l80.47 162.39h98.83l-80.48-162.39h226Zm-19.78 440.17-45-45 45 45Zm-41.3 137.48L702.22-371l138.91-136.91L979.3-365.87 842.83-229.39Zm-198.7 57.52h25.48l-4.57 5.13-25.47-25.48 4.56-4.56v24.91ZM900.39-69.26 831.96-.82 721.83-108.39l-4.87 4.3H576.35V-244.7l4.87-5.87L12-821.78l68.43-68.44L900.39-69.26Z"/></svg>