<svg xmlns="http://www.w3.org/2000/svg" height="20" viewBox="0 -960 960 960" width="20"><path d="m832.57-338.74 39.34-40.35-45-45-39.34 40.35 45 45Zm-13.31 96.13L690.43-371.43l137.48-136.48 127.83 128.82-136.48 136.48ZM76.78-172.78v-610.48h98.26l412.39 412.83-86.82 86.82v110.83H76.78Zm562.65-249.65L273.52-787.22h72.91l72.35 145.26-1.26-1.26h100.31l-72-144h110.69l72 144h98.83l-72-144h227.87v123L639.43-422.43Zm240.7 344.26-56.65 56.65-113.44-111.87-8.6 8.61H572.61v-128.83l8.61-9.17L32.26-813.74l56.65-56.65L880.13-78.17Z"/></svg>