<svg xmlns="http://www.w3.org/2000/svg" height="48" viewBox="0 -960 960 960" width="48"><path d="M460.09-402.09Zm183.13-3.48ZM61.17-141.04v-675.09h84.92l236.74 236.74H144.35v355.17h354.13v83.18H61.17Zm838.22-678.48v240.13H468.83L228.7-819.52h86l85.08 172.22-14.69-15.83h140.39l-75.92-156.39h143.4l75.25 156.39H800.7l-75.48-156.39h174.17Zm-29.96 444.39-37-37 37 37Zm-48.56 148.78L684.22-364l148.21-147.22 136.22 137.09-147.78 147.78Zm-191.44 54.22h29.18l16-15.44-29.18-29.17-16 16v28.61ZM911.61-50.61 861.87-.3l-134.3-132.74-31.44 31.87H558.48v-137.66l32.43-32.43L9.22-852.96l49.74-50.3L911.61-50.61Z"/></svg>