<svg xmlns="http://www.w3.org/2000/svg" height="20" viewBox="0 -960 960 960" width="20"><path d="m805.35-354.85 45-45.61-45-45.39-45 46 45 45Zm-29.81 76.77-92.96-93.27 124.07-122.26 90.27 93.65-121.38 121.88Zm-651.46 58.81v-521.46h91.84l363.93 364.92-78.93 78.92v77.62H124.08ZM627.5-422.58 313.19-740.73h63.62l62.92 126.35-7.38-7.2h98.42l-59.08-119.15h100.04l59.58 119.15h94.38l-59.27-119.15h169.5v113.31L627.5-422.58ZM835-121.65l-33.85 34.03-109.23-107.34-22.38 22.88h-92.96v-92.96l22.88-23.27L87.31-802.46l33.84-34.04L835-121.65Z"/></svg>