<svg xmlns="http://www.w3.org/2000/svg" height="48" viewBox="0 -960 960 960" width="48"><path d="M446-475ZM196-92h167q-6.9-7.02-10.95-16.01Q348-117 345-127H231v-484l212-211 218 212v150q8-2 17.12-3.5 9.12-1.5 18.88-1.5v-161L444-874 196-626v534Zm249.5-534q-16.5 0-28.5-11t-11-28q-1-16 10.79-27.5 11.8-11.5 28.71-11.5 15.5 0 28.5 11.5t10 27.5q3 17-10 28t-28.5 11ZM528-92q-42 0-71.5-29.5T427-192.88q0-39.91 28-68.23 28-28.31 70-31.89 15-37 49.11-58.5t76.44-21.5q48.92 0 88.68 27Q779-319 785-274h13q31 2 50.5 30t19.5 61.89q0 36.2-23.09 63.16Q821.81-92 788-92H528Zm0-35h250q22.2 0 38.6-15.98 16.4-15.99 16.4-40.04 0-22.19-16.4-38.59Q800.2-238 778-238h-32l12 11q4-46-30-78.5T648-338q-36.67 0-65.34 22Q554-294 546-259l5 1h-23q-27 0-46.5 18.93T462-191.83q0 26.31 19.5 45.57T528-127Zm120 0Z"/></svg>