<svg xmlns="http://www.w3.org/2000/svg" height="40" viewBox="0 -960 960 960" width="40"><path d="M381.18-66.67q-19.08-21.87-26.74-51.5-7.67-29.63-7.67-57.5 0-63.69 37.14-114.59 37.14-50.89 97.76-70.54 25.46-35.38 61.77-58.37 36.3-22.98 82.82-29.65 20.3-4.33 42.28-4.27 21.97.06 42.95 2.6v-179.69l-269-264.95-263.98 263.98v564.48h202.67Zm63.31-547.13q-19.75 0-34.22-13.55-14.48-13.55-13.3-33.29-1.18-19.08 13.3-32.96 14.47-13.89 34.22-13.89 18.56 0 33.75 13.89 15.2 13.88 12.58 32.96 2.62 19.74-12.58 33.29-15.19 13.55-33.75 13.55ZM545-66.67q-45.44 0-77.22-31.78T436-175.67q0-42.48 29.44-72.96 29.43-30.47 73.61-34.96 16.28-37.33 50.85-58.87Q624.46-364 666.95-364q50.74 0 91 26.6 40.25 26.6 47.9 72.4h10.3q34.52 2.67 55.85 32.61 21.33 29.95 21.33 66.72 0 40.21-25.39 69.61-25.4 29.39-62.94 29.39H545Z"/></svg>