<svg xmlns="http://www.w3.org/2000/svg" height="40" viewBox="0 -960 960 960" width="40"><path d="M417.33-26.67q-26-27-37-59.83t-11-69.17q0-66 39.84-117.66 39.83-51.67 102.5-69 23.66-33.34 57.66-55.17T646-426q21.33-4.33 46-3.5 24.67.83 46.67 5.17v-212L436.33-936.67 138-638.33v611.66h279.33Zm21-568.66q-26.66 0-45.5-18.17-18.83-18.17-18.16-44.83-.67-26 18.16-44.5 18.84-18.5 45.5-18.5 26 0 45.17 18.5t17.83 44.5q1.34 26.66-17.83 44.83-19.17 18.17-45.17 18.17ZM565-26.67q-54.67 0-91.83-37.16Q436-101 436-155.67q0-49.66 33.67-86.16 33.66-36.5 84-41.5 18.33-37.34 53.66-59Q642.67-364 685.67-364q51 0 92.66 25.83Q820-312.33 832-265h1.33q44 2.67 72 38t28 81.33q0 48.67-31.16 83.84Q871-26.67 825-26.67H565Z"/></svg>