<svg xmlns="http://www.w3.org/2000/svg" height="20" viewBox="0 -960 960 960" width="20"><path d="M325.08-136q-15.62-20.85-22.04-47.65-6.42-26.81-6.42-52.35 0-56.15 30.53-102.35 30.54-46.19 82.47-67.96 27.76-52.54 79.03-83.19 51.27-30.65 116.12-30.65 20.92 0 43.23 5.23 22.31 5.23 42.77 13.92v-113.31L458.08-850.38 232-614.31V-136h93.08Zm134.54-465.15q-16.54 0-29.43-12.12-12.88-12.11-11.34-28.65-1.54-15.54 11.34-27.66 12.89-12.11 29.43-12.11 16.53 0 29.8 12.11 13.27 12.12 10.96 27.66 2.31 16.54-10.96 28.65-13.27 12.12-29.8 12.12ZM484-136q-41.77 0-70.88-29.12Q384-194.23 384-236q0-37.31 25.27-65.04 25.27-27.73 64.11-33.73 11.47-45 48.2-71.11Q558.31-432 606.31-432q54.77 0 93.11 35.77 38.35 35.77 40.96 85.23h10q32 4 52.81 29.12Q824-256.77 824-224q0 36.54-26.73 62.27Q770.54-136 736-136H484Z"/></svg>