<svg xmlns="http://www.w3.org/2000/svg" height="20" viewBox="0 -960 960 960" width="20"><path d="M463.73-485.38ZM238.15-142.15h86.93q-4.86-7.66-9.09-14.28-4.23-6.63-7.61-14.65h-41.3v-429.65l192.46-198.19 199.58 199.43v84.53q8 4.15 15.41 7.34 7.42 3.2 14.39 6.47v-111.47L458.69-842.88 238.15-612.46v470.31Zm223.25-459q-15.86 0-28.69-11.44-12.83-11.43-10.29-27.42-2.54-14.99 10.32-26.49 12.85-11.5 28.47-11.5 16.06 0 29.33 11.5t9.84 26.42q3.43 15.93-9.84 27.43t-29.14 11.5Zm18.18 459q-41.43 0-70.04-28.62-28.62-28.61-28.62-70.25 0-36.34 24.88-63.74t63.89-33.59q11.58-45 48.19-70.86 36.62-25.87 84.99-25.87 54.43 0 93.12 35.83 38.7 35.83 40.09 85.17h11.84q30.77 4 50.35 28.79 19.58 24.79 19.58 57.17 0 35.24-26.48 60.6-26.47 25.37-59.79 25.37h-252Zm0-28.93h252q23.09 0 40.22-16.97 17.12-16.98 17.12-40.84 0-22.61-15.82-38.44-15.83-15.82-38.52-17.82l-33.89-5 8.39-9q-.66-43.31-32.46-75.16-31.81-31.84-76.13-31.84-41.01 0-70.15 27.07-29.15 27.08-39.19 66.31l6.47-1.38-25.04 5q-27.24 3-44.99 23.34-17.74 20.34-17.74 45.71 0 28.77 20.04 48.9 20.05 20.12 49.69 20.12Zm120 0Z"/></svg>