<svg xmlns="http://www.w3.org/2000/svg" height="20" viewBox="0 -960 960 960" width="20"><path d="M360.13-76.87q-22.67-27.72-33.25-59.49-10.58-31.77-10.58-67.68 0-62.16 34.84-112.21t91.51-72.01q26.28-49.57 74.39-78.83Q565.15-496.35 624-498.5q26.39-1.43 54.38 4.09 27.99 5.52 52.86 16.52v-147.7L455.72-907.67 183.63-625.59v548.72h176.5Zm96.3-496.22q-25 0-42.5-17.26t-17.02-42.26q-.48-23.76 17.02-41.02t42.5-17.26q24.77 0 42.39 17.26 17.61 17.26 16.9 41.02.71 25-16.9 42.26-17.62 17.26-42.39 17.26Zm59.29 496.46q-53.87 0-90.64-36.77-36.78-36.77-36.78-90.64 0-46.92 30.1-82.09t76.77-42.61q14.68-45.72 53.37-72.22 38.7-26.5 87.9-26.5 56.39 0 98.28 34.64 41.89 34.65 49.17 87.08 42.72 6.39 70.98 38.57 28.26 32.17 28.26 75.37 0 47.87-34.77 81.52t-80.64 33.65h-252Z"/></svg>