<svg xmlns="http://www.w3.org/2000/svg" height="20" viewBox="0 -960 960 960" width="20"><path d="M325.08-142.15q-15.62-20.12-22.04-46.73-6.42-26.62-6.42-51.93 0-54.54 29.98-99.75t81.67-66.36q29.11-55.5 80.02-84.37 50.9-28.86 117.59-28.86 20.31.61 41.95 6.09 21.63 5.48 41.09 13.68v-111.35L459.19-842.88 238.15-612.46v470.31h86.93Zm136.38-459q-15.92 0-28.75-11.5t-10.29-27.43q-2.54-14.92 10.29-26.42 12.83-11.5 28.75-11.5 15.81 0 29.08 11.5 13.27 11.5 9.84 26.42 3.43 15.93-9.84 27.43t-29.08 11.5Zm18.12 459q-41.43 0-70.04-28.62-28.62-28.61-28.62-70.04 0-36.69 24.96-63.86 24.97-27.18 63.81-33.68 11.58-45 48.19-70.86 36.62-25.87 84.74-25.87 54.88 0 93.48 35.83 38.59 35.83 39.98 85.17h11.84q30.77 4 50.35 28.81 19.58 24.81 19.58 56.46 0 35.93-26.37 61.29-26.36 25.37-59.9 25.37h-252Z"/></svg>