<svg xmlns="http://www.w3.org/2000/svg" height="40" viewBox="0 -960 960 960" width="40"><path d="M358.26-104.74q-19.21-23.33-27.71-51.46-8.5-28.13-8.5-57.62 0-61.71 37-110.12 37-48.42 96.69-65.43 29.82-43.76 74.92-66.07 45.1-22.3 100.11-22.3 17.34.47 35.37 3.67 18.03 3.2 33.85 8.8v-157.11L441.72-881.23 184.33-624.32v519.58h173.93Zm83.57-517.49q-19.06 0-32.39-13.05-13.34-13.05-12.75-32.12-.59-18.39 12.75-31.45 13.33-13.05 32.39-13.05 18.5 0 32.02 13.05 13.51 13.06 12.89 31.45.62 19.07-12.89 32.12-13.52 13.05-32.02 13.05Zm64.87 517.49q-46.12 0-77.6-31.48-31.47-31.47-31.47-77.6 0-43.94 30.65-74.94 30.64-31 75.57-33.91 15.61-36.33 48.75-58.02 33.14-21.68 74.19-21.68 48.52 0 87.4 27.04 38.87 27.04 45.75 72.96h7.24q37.97 0 63.02 29.57 25.06 29.57 25.06 68.98 0 40.63-25.4 69.85-25.39 29.23-63.16 29.23h-260Z"/></svg>