<svg xmlns="http://www.w3.org/2000/svg" height="48" viewBox="0 -960 960 960" width="48"><path d="M413.13-37.37q-27.72-26.48-39.2-60.2-11.47-33.72-11.47-70.39 0-65.19 39.21-115.24 39.21-50.06 101.22-66.87 24.77-35.22 59.98-57.47 35.22-22.24 80.7-27.48 20.19-2.76 44.89-1.02 24.69 1.74 45.65 5.97v-203.65L434.72-930.11 141.57-636.72v599.35h271.56Zm24.83-572.26q-24.29 0-41.06-15.73-16.78-15.74-15.79-40.12-.99-23.04 15.74-39.2 16.72-16.17 41.11-16.17 23.28 0 40.56 16.17 17.28 16.16 14.81 39.2 2.47 24.28-14.81 40.07-17.28 15.78-40.56 15.78Zm115.08 572.5q-55.57 0-93.08-37.81-37.5-37.81-37.5-93.02 0-49.84 33.62-86.62 33.62-36.77 84.81-42.72 18.24-37.24 53.96-58.74t79.09-21.5q51.99 0 94.84 25.88t53.13 73.59h2q43.72 3.44 71.22 39.28 27.5 35.85 27.5 81.08 0 49.67-31.63 85.12-31.63 35.46-77.96 35.46h-260Z"/></svg>