<svg xmlns="http://www.w3.org/2000/svg" height="48" viewBox="0 -960 960 960" width="48"><path d="M385-85q-24-25-34.5-55.25T340-204q0-61.5 37.75-108.75T475-374.5q28-42.5 70.5-64T641-460q16.5.5 35.75 4t34.75 9.5V-624L436-899 164-627.5V-85h221Zm52.5-535q-21.5 0-36.5-14.5t-14-36q-1-20.5 14-35t36.5-14.5q21 0 36.25 14.5t14.25 35q1 21.5-14.25 36T437.5-620Zm79 535q-50.5 0-84.75-34.25T397.5-204q0-47.5 32.75-81.5T511-323q17-36.5 50.5-58t75.5-21.5q49.5 0 89.5 26.75t48 73.25h3.5q42 0 69.5 32.25T875-194q0 45-28.25 77T776.5-85h-260Z"/></svg>