<svg xmlns="http://www.w3.org/2000/svg" height="24" viewBox="0 -960 960 960" width="24"><path d="M446.73-485.38ZM206.15-126.15h125.93q-5.86-8.66-10.09-17.5-4.23-8.85-7.61-19.43h-71.3v-441.65l202.46-202.19 204.58 203.43v110.53q10 2.15 19.41 3.84 9.42 1.7 18.39 4.97v-135.47L446.69-860.88 206.15-620.46v494.31Zm240.25-499q-15.86 0-27.69-11.44-11.83-11.43-11.29-27.42-.54-15.99 11.32-27.49 11.85-11.5 27.47-11.5 16.06 0 27.83 11.5t11.34 27.42q.43 15.93-11.34 27.43t-27.64 11.5Zm49.18 499q-41.43 0-70.04-28.62-28.62-28.61-28.62-70.25 0-39.34 28.38-67.74 28.38-28.4 70.39-30.59 14.58-36 47.19-57.86 32.62-21.87 72.99-21.87 47.43 0 85.12 27.33 37.7 27.33 43.09 72.67h11.84q33.77 0 55.85 26.86t22.08 62.1q0 35.24-22.48 61.6-22.47 26.37-55.79 26.37h-260Zm0-36.93h250q20.69 0 36.02-14.97 15.32-14.98 15.32-36.76 0-20.69-15.32-36.02-15.33-15.32-36.02-15.32h-34.89l.39-11q-.66-37.31-28.96-63.16-28.31-25.84-66.63-25.84-30.01 0-54.15 17.07-24.15 17.08-33.19 45.31l-5.53 17.62h-27.04q-26.24 0-43.99 18.34-17.74 18.34-17.74 43.71t17.74 43.2q17.75 17.82 43.99 17.82Zm120 0Z"/></svg>