<svg xmlns="http://www.w3.org/2000/svg" height="24" viewBox="0 -960 960 960" width="24"><path d="M444.62-482.69ZM188.08-108.08h157.46q-9.25-12.29-15.74-26.09t-10.61-29.87h-75.15v-436.08l200.73-200.84 200.54 201.79v112.94q15 1.58 29.08 4.42 14.09 2.85 27.57 8.23v-148.73L445.35-880.69 188.08-623.73v515.65Zm256.5-504q-19.81 0-33.85-13.96-14.04-13.97-14.27-33.96.23-20 14.28-34 14.06-14 33.74-14 19.9 0 33.79 14 13.88 14 14.42 33.96-.54 19.96-14.42 33.96-13.89 14-33.69 14Zm59.46 504q-45.46 0-76.77-31.31-31.31-31.3-31.31-76.98 0-43.06 30.44-74.13 30.44-31.08 75.45-33.42 15.53-36 48.34-58.06 32.81-22.06 73.18-22.06 47.43 0 85.7 27.04 38.28 27.04 45.97 72.96h7.42q38.39 0 63.92 29.43 25.54 29.43 25.54 68.92 0 39.5-25.13 68.55-25.13 29.06-62.75 29.06h-260Zm0-55.96h250q16.84 0 29.38-12.09t12.54-30.02q0-16.85-12.54-29.39t-29.38-12.54h-44.69l-4.81-26q-2.58-31.15-25.98-52.57-23.41-21.43-54.86-21.43-25.46 0-45.41 15.54-19.95 15.54-28.21 39.15l-9.77 25.31h-36.27q-22.15 0-37.13 15.42-14.99 15.43-14.99 36.98 0 21.56 14.99 36.6 14.98 15.04 37.13 15.04Zm120 0Z"/></svg>