<svg xmlns="http://www.w3.org/2000/svg" height="40" viewBox="0 -960 960 960" width="40"><path d="M399.25-46.67q-22.53-24.43-31.87-55.67-9.33-31.23-9.33-63.33 0-64.84 38.49-116.13 38.48-51.28 100.13-69.77 24.56-34.35 59.71-56.76 35.16-22.41 79.75-29.08 20.82-4.33 44.14-3.89 23.32.45 44.81 3.89v-195.85L439.41-915.9 158.26-634.74v588.07h240.99Zm42.16-557.9q-23.2 0-39.86-15.85-16.65-15.86-15.73-39.07-.92-22.54 15.73-38.73 16.66-16.19 39.86-16.19 22.28 0 39.46 16.19t15.21 38.73q1.97 23.21-15.21 39.07-17.18 15.85-39.46 15.85ZM555-46.67q-50.05 0-84.53-34.47Q436-115.62 436-165.67q0-46.07 31.55-79.56t78.81-38.23q17.31-37.34 52.25-58.94 34.95-21.6 77.7-21.6 50.87 0 91.83 26.22T818.92-265h5.82q39.26 2.67 63.92 35.31 24.67 32.64 24.67 74.02 0 44.44-28.28 76.72T815-46.67H555Z"/></svg>