<svg xmlns="http://www.w3.org/2000/svg" height="40" viewBox="0 -960 960 960" width="40"><path d="M415.1-22.44Q388.3-50 376.71-84.21q-11.6-34.2-11.6-71.38 0-67.43 40.13-119.79 40.13-52.35 103.96-70.54 24.33-33.48 58.4-55.52 34.06-22.04 76.97-29.1 22.68-4.26 48.82-3.22 26.15 1.03 49.34 5.6v-209.21l-305.6-303.44-301.28 301.44v616.93H415.1Zm24.27-575.37q-25.95 0-44.02-17.37-18.07-17.38-17.41-43.39-.67-25.05 17.37-42.71 18.04-17.66 44.06-17.66 25.28 0 43.73 17.66 18.45 17.66 16.64 42.71 1.81 25.95-16.64 43.36-18.45 17.4-43.73 17.4ZM565-22.2q-56.52 0-94.87-38.64-38.36-38.64-38.36-94.75 0-50.71 33.87-88.12 33.87-37.41 85.48-43.45 18.81-37.65 54.9-59.32t79.66-21.67q52.21 0 95.42 25.68 43.2 25.67 54.41 73.88h1.33q44.72 4.26 72.72 40.56 28 36.29 28 82.69 0 50.49-32.48 86.81Q872.6-22.2 825-22.2H565Z"/></svg>