<svg xmlns="http://www.w3.org/2000/svg" height="20" viewBox="0 -960 960 960" width="20"><path d="M465-463ZM212-68h166q-8-11-13.5-22.28Q359-101.56 357-114h-99v-492l200-205 212 206v148q11-3 23.12-5 12.12-2 23.88-3v-161L457-880 212-625v557Zm250-514q-19 0-35.5-14.5T414-630q-4-18 12.5-32.5T462-677q19 0 36.5 14.5T510-630q6 19-11.5 33.5T462-582Zm83 514q-44 0-75.5-31.5T438-175q0-37.92 25-67.17T528-280q14-47 53.11-72.5T671.8-378q58.2 0 99.7 35t44.5 85h13q30 8 46.5 34.93T892-162.5q0 38.82-29.09 66.66Q833.82-68 797-68H545Zm0-46h252q20.2 0 34.6-14.5Q846-143 846-162.64q0-19.89-13.1-33.13Q819.8-209 800-211l-42-5 22 6q3-47-30.5-84.5T667-332q-47.67 0-79.34 33.5Q556-265 549-218l22-22-33 5q-23.52 3-38.76 20.76Q484-196.48 484-174.5q0 25.37 17.54 42.94Q519.08-114 545-114Zm120 0Z"/></svg>