<svg xmlns="http://www.w3.org/2000/svg" height="40" viewBox="0 -960 960 960" width="40"><path d="M446.33-487ZM213.67-133.67h115.66q-4.15-5.47-7.02-11.01-2.88-5.54-5.89-12.15h-79.59v-452.61L444-816.17l211.33 207.93v114.91q5.67 2.16 12.12 3.16 6.45 1 11.72 2.67v-131.17L445.83-851.33l-232.16 232.5v485.16ZM445.8-637q-13.8 0-23.8-9.52t-9-23.5q-1-13.31 8.93-22.98t23.69-9.67q13.38 0 23.71 9.67 10.34 9.67 9 22.83 1.34 13.84-9.03 23.5-10.36 9.67-23.5 9.67Zm47.37 503.33q-39.67 0-66.84-27.16-27.16-27.17-27.16-66.9 0-38.26 27.24-64.88 27.24-26.62 67.59-28.72 13.67-36.34 46.5-57.92t73.34-21.58q47.31 0 85.32 27.5 38.01 27.5 42.01 72.5h13.5q31 0 51.33 25.51t20.33 58.47q0 33.35-21.21 58.27-21.21 24.91-51.95 24.91h-260Zm0-23.16h250q23.93 0 41.96-17.38 18.04-17.37 18.04-43.77 0-23.81-18.04-41.75-18.03-17.94-41.96-17.94H716.5l4.5 2q1.83-43.33-30.92-72.66-32.75-29.34-77.07-29.34-33.52 0-61.01 18-27.5 18-37.67 49.67l-3 12.33h-18.16q-29.41 0-50.12 20.73-20.72 20.73-20.72 50.42 0 28.35 20.72 49.02 20.71 20.67 50.12 20.67Zm120 0Z"/></svg>