<svg xmlns="http://www.w3.org/2000/svg" height="48" viewBox="0 -960 960 960" width="48"><path d="M404-29q-30-28-43-65.61T348-171q0-69 39.88-120.81Q427.76-343.61 493-363q27.21-35.93 63.1-58.97Q592-445 639-451q24-2 52.5.5T744-443v-193L437-940 137-639v610h267Zm37-589q-22 0-36.47-13.29Q390.06-644.58 391-667q-.97-20 13.31-33.5Q418.58-714 441-714q21 0 36 13.5t11 33.5q4 22-11 35.5T441-618ZM550-28q-60.6 0-101.3-41.99Q408-111.98 408-171q0-52.54 34-91.77T531-311q19-38 57-59.5t82.56-21.5q55.14 0 102.29 25.5Q820-341 828-291h2q46 8 73.5 46.53t27.5 84.5q0 54.97-35.22 93.47T810-28H550Z"/></svg>