<svg xmlns="http://www.w3.org/2000/svg" height="40" viewBox="0 -960 960 960" width="40"><path d="M441.54-466.69ZM158.26-46.67h240.99q-12.73-14.01-20.95-31.17-8.22-17.16-12.53-36.42H225.85l.41-492.1 213.59-212.38L657.1-605.15v170.1q16.03-3.82 33.3-4.55 17.28-.73 34.68 1.8v-195.25L439.41-915.23 158.26-634.08v587.41Zm282.82-557.9q-22.87 0-39.53-15.85-16.65-15.86-15.73-39.07-.92-22.54 15.59-38.73 16.52-16.19 39.67-16.19 22.61 0 39.79 16.19t15.21 38.73q1.97 23.21-15.21 39.07-17.18 15.85-39.79 15.85ZM555-46.67q-50.05 0-84.53-34.47Q436-115.62 436-165.58q0-46.05 31.55-79.67 31.55-33.63 78.81-38.21 17.31-37.34 52.36-58.94 35.06-21.6 77.94-21.6 50.16 0 91.3 26.22T818.92-265h5.82q39.26 2.67 63.92 35.31 24.67 32.64 24.67 74.47 0 44.16-28.32 76.35-28.32 32.2-70.01 32.2H555Zm0-67.59h250q16.42 0 28.58-11.74 12.16-11.75 12.16-29.54 0-16.48-12.16-28.67-12.16-12.2-28.58-12.2h-47.36l7.13-6.72q1.82-37.77-25.1-65.53-26.93-27.75-64.54-27.75-31.54 0-54.62 20.24t-30 50.25l1.74 9.51H555q-21.58 0-36.5 14.79-14.91 14.8-14.91 36.59 0 21.27 14.91 36.02 14.92 14.75 36.5 14.75Zm120 0Z"/></svg>