<svg xmlns="http://www.w3.org/2000/svg" height="48" viewBox="0 -960 960 960" width="48"><path d="M411-25q-30-27-43.5-64.86T354-167q0-67.5 40.13-119.56Q434.26-338.61 499-356.5q26.21-37.43 60.6-58.47Q594-436 641-443q24.5-3.5 52.75-1.5t52.75 8V-635L438-939 138-638.5V-25h273Zm31.5-589q-21.5 0-36.97-13.79-15.47-13.79-12.53-35.71-2.97-19.5 12.31-33Q420.58-710 442.5-710q20 0 35.75 13.5t11.75 33q4 21.5-11.75 35.5t-35.75 14Zm111 590q-59.1 0-100.55-41.74Q411.5-107.48 411.5-167q0-53.04 34.25-92.27T534-307q21-38.5 59-60t82.56-21.5q56.64 0 104.29 25.75Q827.5-337 833.5-286.5h3.5q45 8 71.5 45.78t26.5 84.75q0 54.97-35.47 93.47T813.5-24h-260Z"/></svg>