<svg xmlns="http://www.w3.org/2000/svg" height="24" viewBox="0 -960 960 960" width="24"><path d="M419.04 7.41q-24.95-29.71-36.79-64.89-11.84-35.17-11.84-73.37 0-71.91 41.98-128.87 41.98-56.95 109.41-77.91 23.48-30 55.24-51.62 31.76-21.62 69.53-32.34 27.67-7.24 56.7-7.62 29.03-.38 56.71 4.86v-220.32L441.96-962.22 124.41-644.67V7.41h294.63Zm23.16-581.56q-29.29 0-49.95-20.67-20.66-20.66-20.66-49.94 0-29.04 20.66-49.71 20.66-20.66 49.95-20.66 29.28 0 50.06 20.66 20.78 20.67 20.31 49.71.47 29.28-20.31 49.94-20.78 20.67-50.06 20.67ZM588.91 7.65q-58.39 0-98.44-40.29-40.06-40.29-40.06-98.21 0-52.43 34.36-91.13 34.36-38.69 86.8-44.89 19.95-38.48 56.79-60.48t80.79-22q52.68 0 96.59 25.26 43.91 25.26 56.96 74.46 46.71 5.91 75.71 43.11 29 37.19 29 85.91 0 52.15-34.17 90.21-34.17 38.05-84.33 38.05h-260Z"/></svg>