<svg xmlns="http://www.w3.org/2000/svg" height="20" viewBox="0 -960 960 960" width="20"><path d="M459.5-480ZM202-106h150q-11.64-14.94-20.39-31.47Q322.86-153.99 318-173h-49v-418.5L458-787l191.5 196.15v89.35q18 3 34.75 8.5T717-480v-138L456-882.5 202-619v513Zm255.75-469q-23.75 0-41-16.5T400.5-632q-1-23 16.25-39.5t41-16.5q23.75 0 41.25 16.5t16 39.5q1.5 24-16 40.5T457.75-575Zm38.75 469q-49.5 0-83.5-34t-34-83.71q0-43.79 29-76.54 29-32.75 74-39.25 13.5-45 50.5-71.25T617.87-437q54.43 0 94.28 35.25T758-316h3q40 4 66.5 33.93t26.5 70.82q0 43.75-31.79 74.5T748.5-106h-252Zm0-67h252q15.4 0 26.95-11.21Q787-195.42 787-211.58q0-14.92-10.25-25.17Q766.5-247 751.5-249l-53.5-5-2-39q-4.5-31-26.5-54t-52.59-23q-31.91 0-52.66 24-20.75 24-29.25 54l-2 14-43.5 5q-19.06 3-31.28 17.5Q446-241 446-223.25q0 21.15 14.52 35.7Q475.04-173 496.5-173Zm120 0Z"/></svg>