<svg xmlns="http://www.w3.org/2000/svg" height="40" viewBox="0 -960 960 960" width="40"><path d="M376.33-86.67q-22.66-25.5-32.83-55.33-10.17-29.83-10.17-63.17 0-62.66 38.25-111.08t98.59-64.08q29.5-43.5 73.25-64.75t97.41-21.25q17.67.66 36.75 4.25Q696.67-458.5 713-452v-172.5l-274.17-275L166-627.33v540.66h210.33Zm63-526.33q-22.33 0-37.75-15.17-15.41-15.16-15.08-37.5-.33-21.66 15.08-36.83 15.42-15.17 37.75-15.17 21.84 0 37.34 15.17 15.5 15.17 15.33 36.83.17 22.34-15.33 37.5Q461.17-613 439.33-613Zm75.84 526.33q-50.17 0-84.34-34.16-34.16-34.17-34.16-84.34 0-47.33 32.66-81.25Q462-320.33 510-323.5q16.83-36.33 50.17-58.08 33.33-21.75 74.83-21.75 48.83 0 88.42 26.75 39.58 26.75 48.25 73.25H775q42.33 0 70.33 32.16 28 32.17 28 76 0 44.67-28.08 76.59-28.08 31.91-70.08 31.91h-260Z"/></svg>