<svg xmlns="http://www.w3.org/2000/svg" height="48" viewBox="0 -960 960 960" width="48"><path d="M440.46-470.69ZM163.39-60h232.22q-11.82-11.94-19.56-26.78-7.74-14.84-12.59-31.61H221.77l.62-489.53 216.3-214.7 220.46 216.31v166q13.54-2.61 28.43-2.88 14.9-.27 30.34 2.19v-189.31L437.85-906 163.39-631.54V-60Zm276.57-554.31q-21.42 0-36.81-14.38-15.38-14.39-14.38-36.31-1-20.92 14.18-35.81 15.18-14.88 37.01-14.88 21.04 0 37.12 14.88 16.07 14.89 13.69 35.81 2.38 21.92-13.69 36.31-16.08 14.38-37.12 14.38ZM544-60q-49.39 0-83.19-33.81Q427-127.62 427-176.88q0-45.5 31.38-78.58 31.39-33.09 78.31-37.54 16.85-37 51.57-58.5 34.73-21.5 77.39-21.5 49.82 0 90.81 26.38 41 26.39 50.08 72.62h6.23q38.38 2 62.81 34.31Q900-207.39 900-166.42q0 43.28-27.66 74.85Q844.69-60 804-60H544Zm0-58.39h250q19.12 0 33.37-13.82 14.24-13.83 14.24-34.81 0-19.12-14.24-33.36-14.25-14.24-33.37-14.24h-41.23l8.92 2.39q2.77-41.69-26.92-72.04-29.69-30.35-70.77-30.35-33.18 0-58.05 20.47-24.87 20.46-32.87 51.76l1.92 7.77h-31q-24.51 0-41.56 16.78-17.06 16.77-17.06 41.7 0 24.15 17.06 40.95 17.05 16.8 41.56 16.8Zm120 0Z"/></svg>