<svg xmlns="http://www.w3.org/2000/svg" height="24" viewBox="0 -960 960 960" width="24"><path d="M443.83-451.48Zm-324.31 469h298.22q-21.39-25.39-34.87-56.63-13.48-31.24-16.91-66.32H242.48v-490.74l201.35-200.22 200.78 199.65v170.83q29.96-8.13 61.76-8.35 31.8-.22 61.76 5.35v-217.05L442.7-970.13 119.52-646.96V17.52Zm324.31-594.61q-28.31 0-47.83-19.52t-19.52-47.82q0-27.74 19.52-47.27 19.52-19.52 48.11-19.52 28.02 0 47.82 19.52 19.81 19.53 18.68 47.27 1.13 28.3-18.68 47.82-19.8 19.52-48.1 19.52ZM591.52 18.09q-61.65 0-103.82-42.74-42.18-42.74-42.18-103.26 0-54.13 34.85-94.59t89.24-48.28q21.26-39.13 59.49-61.13 38.23-22 83.32-22 54.82 0 101.24 24.93 46.43 24.94 58.17 75.76 47.69 8.52 76.69 47.41t29 88.24q0 55.78-36.58 95.72t-89.42 39.94h-260Zm0-114.48h250q8.61 0 15.07-6.06 6.45-6.07 6.45-15.02 0-9.35-6.45-15.66-6.46-6.3-15.07-6.3h-65.48l-2.43-42.44q-2.57-24.13-20.31-40.85-17.73-16.71-41.78-16.71-23 0-38.56 16.93-15.57 16.93-20.7 38.37l-6.26 24.7h-54.48q-13.73 0-22.63 9.01-8.89 9.02-8.89 22.35 0 13.33 8.89 22.5 8.9 9.18 22.63 9.18Zm120 0Z"/></svg>