<svg xmlns="http://www.w3.org/2000/svg" height="20" viewBox="0 -960 960 960" width="20"><path d="M338.54-124.08q-18.31-22.81-26.27-50.86-7.96-28.06-7.96-57.21 0-56.27 31.61-102.25 31.62-45.99 84.46-66.56 29.31-55.5 79.64-83.31 50.33-27.81 115.67-27.81 21.66.81 44.35 6.68 22.69 5.86 42.92 15.21v-124.43L457.85-862.69 220.08-615.73v491.65h118.46Zm121.19-464q-19.96 0-35-14t-13.27-33.96Q409.69-655 424.73-669t35-14q19.65 0 35.04 14 15.38 14 12.92 32.96 2.46 19.96-12.92 33.96-15.39 14-35.04 14Zm28.31 464q-45.46 0-76.77-31.31-31.31-31.3-31.31-76.76 0-40.35 26.98-70.31t68.91-36.46q12.53-45 49.34-71.06 36.81-26.06 85.12-26.06 54.69 0 93.86 35.54 39.18 35.54 42.87 85.46h7.42q35.39 4 58.42 31.41 23.04 27.4 23.04 63.48 0 39.96-29.06 68.01-29.05 28.06-66.82 28.06h-252Z"/></svg>