<svg xmlns="http://www.w3.org/2000/svg" height="40" viewBox="0 -960 960 960" width="40"><path d="M376.33-80q-22.66-26.67-32.83-56.33Q333.33-166 333.33-200q0-64.33 38.67-113.83t99.67-65.84q28-40.33 72.33-63.5 44.33-23.16 95.67-23.16 18.33 0 38.33 3.5t37 10.16v-174.66L437.67-907.67 159.33-629.33V-80h217Zm61-533q-23 0-38.5-15.83-15.5-15.84-16.16-38.84.66-22.33 16.16-38.16 15.5-15.84 38.5-15.84t38.34 15.84Q491-690 492-667.67q-1 23-16.33 38.84Q460.33-613 437.33-613ZM520-80q-51 0-85.5-34.5T400-200q0-48 33-82.5t81-37.17q16.67-36.66 50.17-58.5Q597.67-400 639-400q48.33 0 87.83 26.5t49.5 73.5h1.34q43.66 0 73 32.5Q880-235 880-190t-28.5 77.5Q823-80 780-80H520Z"/></svg>