<svg xmlns="http://www.w3.org/2000/svg" height="40" viewBox="0 -960 960 960" width="40"><path d="M405-13.33q-29-29-42.67-66.91-13.66-37.91-13.66-78.43 0-71.33 41.42-126.2 41.42-54.87 108.24-74.8 25.81-34.95 61.41-57.47 35.59-22.53 79.93-30.19 27-4.67 57.16-2.84 30.17 1.84 57.17 8.5v-198L440-952 130.33-641.67v628.34H405Zm37.67-593q-23 0-38.82-15.03-15.81-15.03-14.52-38.31-1.31-21.33 14.38-36.16 15.68-14.84 38.96-14.84 22 0 37.83 14.84 15.83 14.83 13.83 36.16 2 23-13.83 38.17-15.83 15.17-37.83 15.17ZM561-12.33q-60.73 0-103.2-42.66-42.47-42.66-42.47-103.68 0-54.36 34.84-94.68 34.83-40.32 89.16-48.32 21.67-39 59.84-60.83 38.16-21.83 82.87-21.83 56.42 0 104.36 25.33 47.93 25.33 55.6 77h1.33q46.67 8.67 75 47.19 28.34 38.52 28.34 87.16 0 55.65-36.48 95.48Q873.71-12.33 821-12.33H561Z"/></svg>