<svg xmlns="http://www.w3.org/2000/svg" version="1.1" width="3300" height="2000"><g id="Notes"><style>
    text {
      font-family: monospace;
      text-anchor: middle;
    }
    text.emphasis {
      font-weight:bold;
    }
    text.lanchor {
      text-anchor: start;
    }
  </style><rect height="2200" id="artboard" fill="white" width="3300" x="0" y="0"/><line id="" style="fill:none;stroke:black;stroke-width:0.5;" x1="263" x2="3036" y1="292" y2="292"/><text class="lanchor emphasis" transform="matrix(1 0 0 1 263 322)">Weight/Scale Variations</text><text transform="matrix(1 0 0 1 559.711 322)">Ultralight</text><text transform="matrix(1 0 0 1 856.422 322)">Thin</text><text transform="matrix(1 0 0 1 1153.13 322)">Light</text><text transform="matrix(1 0 0 1 1449.84 322)">Regular</text><text transform="matrix(1 0 0 1 1746.56 322)">Medium</text><text transform="matrix(1 0 0 1 2043.27 322)">Semibold</text><text transform="matrix(1 0 0 1 2339.98 322)">Bold</text><text transform="matrix(1 0 0 1 2636.69 322)">Heavy</text><text transform="matrix(1 0 0 1 2933.4 322)">Black</text><text id="template-version" style="text-anchor: end;" transform="matrix(1 0 0 1 3036 1933)">Template v.1.0</text><text class="lanchor" transform="matrix(1 0 0 1 263 726)">Small</text><text class="lanchor" transform="matrix(1 0 0 1 263 1156)">Medium</text><text class="lanchor" transform="matrix(1 0 0 1 263 1586)">Large</text></g><g id="Guides"><g id="H-reference" style="fill:#27AAE1;stroke:none;" transform="matrix(1 0 0 1 339 696)"><path d="M 54.9316 0 L 57.666 0 L 30.5664 -70.459 L 28.0762 -70.459 L 0.976562 0 L 3.66211 0 L 12.9395 -24.4629 L 45.7031 -24.4629 Z M 29.1992 -67.0898 L 29.4434 -67.0898 L 44.8242 -26.709 L 13.8184 -26.709 Z"/></g><line id="Baseline-S" style="fill:none;stroke:#27AAE1;opacity:1;stroke-width:0.577;" x1="263" x2="3036" y1="696" y2="696"/><line id="Capline-S" style="fill:none;stroke:#27AAE1;opacity:1;stroke-width:0.577;" x1="263" x2="3036" y1="625.541" y2="625.541"/><g id="H-reference" style="fill:#27AAE1;stroke:none;" transform="matrix(1 0 0 1 339 1126)"><path d="M 54.9316 0 L 57.666 0 L 30.5664 -70.459 L 28.0762 -70.459 L 0.976562 0 L 3.66211 0 L 12.9395 -24.4629 L 45.7031 -24.4629 Z M 29.1992 -67.0898 L 29.4434 -67.0898 L 44.8242 -26.709 L 13.8184 -26.709 Z"/></g><line id="Baseline-M" style="fill:none;stroke:#27AAE1;opacity:1;stroke-width:0.577;" x1="263" x2="3036" y1="1126" y2="1126"/><line id="Capline-M" style="fill:none;stroke:#27AAE1;opacity:1;stroke-width:0.577;" x1="263" x2="3036" y1="1055.54" y2="1055.54"/><g id="H-reference" style="fill:#27AAE1;stroke:none;" transform="matrix(1 0 0 1 339 1556)"><path d="M 54.9316 0 L 57.666 0 L 30.5664 -70.459 L 28.0762 -70.459 L 0.976562 0 L 3.66211 0 L 12.9395 -24.4629 L 45.7031 -24.4629 Z M 29.1992 -67.0898 L 29.4434 -67.0898 L 44.8242 -26.709 L 13.8184 -26.709 Z"/></g><line id="Baseline-L" style="fill:none;stroke:#27AAE1;opacity:1;stroke-width:0.577;" x1="263" x2="3036" y1="1556" y2="1556"/><line id="Capline-L" style="fill:none;stroke:#27AAE1;opacity:1;stroke-width:0.577;" x1="263" x2="3036" y1="1485.54" y2="1485.54"/><rect height="119.336" id="left-margin" style="fill:darkred;stroke:none;opacity:0.4;" width="12.4512" x="1394.06" y="1030.79"/><rect height="119.336" id="right-margin" style="fill:darkgreen;stroke:none;opacity:0.4;" width="12.4512" x="1502.5112" y="1030.79"/><rect x="1406.5112" y="1045" width="96" height="96" fill="none" stroke="blue" stroke-dasharray="5"/><rect x="1394.06" y="1030.79" width="120.9024" height="119.336" fill="none" stroke="blue"/></g><g id="Symbols"><g id="Bold-L" transform="matrix(1 0 0 1 2266 1556)"><path d="M34.185 16.37 Q32.734 15.725 32.089 14.758 L14.674 -2.819 Q12.255 -4.754 12.336 -7.898 Q12.416 -11.042 14.814 -13.279 Q16.931 -15.074 19.672 -15.154 Q22.414 -15.235 24.51 -13.139 L29.831 -8.14 V-76.187 Q29.831 -79.372 31.957 -81.489 Q34.08 -83.605 37.197 -83.605 Q40.312 -83.605 42.489 -81.489 Q44.666 -79.372 44.666 -76.187 V-8.14 L49.826 -12.977 Q51.761 -15.235 54.664 -15.235 Q57.566 -15.235 59.824 -13.139 Q61.92 -10.881 61.839 -7.817 Q61.759 -4.754 59.824 -2.819 L42.409 14.596 Q41.602 15.564 40.211 16.289 Q38.818 17.015 37.228 17.015 Q35.636 17.015 34.185 16.37 Z M84.495 12.984 Q80.988 12.984 78.953 10.939 Q76.916 8.896 76.916 5.698 Q76.916 2.503 78.953 0.326 Q80.988 -1.851 84.495 -1.851 H138.03 Q141.215 -1.851 143.332 0.355 Q145.447 2.559 145.447 5.757 Q145.447 8.953 143.332 10.968 Q141.215 12.984 138.03 12.984 H84.495 Z M84.495 -27.974 Q80.988 -27.974 78.953 -30.099 Q76.916 -32.223 76.916 -35.259 Q76.916 -38.294 78.953 -40.471 Q80.988 -42.647 84.495 -42.647 H138.03 Q141.215 -42.647 143.332 -40.442 Q145.447 -38.237 145.447 -35.201 Q145.447 -32.166 143.332 -30.07 Q141.215 -27.974 138.03 -27.974 H84.495 Z M84.495 -68.77 Q80.988 -68.77 78.953 -70.895 Q76.916 -73.019 76.916 -76.217 Q76.916 -79.412 78.953 -81.509 Q80.988 -83.605 84.495 -83.605 H138.03 Q141.215 -83.605 143.332 -81.48 Q145.447 -79.356 145.447 -76.158 Q145.447 -72.962 143.332 -70.866 Q141.215 -68.77 138.03 -68.77 H84.495 Z"/></g><g id="Semibold-L" transform="matrix(1 0 0 1 1970.27 1556)"><path d="M34.009 16.194 Q32.734 15.656 32.019 14.688 L14.464 -3.099 Q12.324 -4.894 12.405 -7.722 Q12.486 -10.552 14.604 -12.578 Q16.581 -14.303 19.111 -14.313 Q21.643 -14.324 23.528 -12.437 L30.041 -6.247 V-76.537 Q30.041 -79.372 31.99 -81.349 Q33.94 -83.324 36.741 -83.324 Q39.542 -83.324 41.543 -81.349 Q43.544 -79.372 43.544 -76.537 V-6.247 L49.826 -12.347 Q51.621 -14.393 54.278 -14.393 Q56.936 -14.393 58.982 -12.508 Q60.938 -10.46 60.857 -7.677 Q60.777 -4.894 58.982 -3.099 L41.498 14.527 Q40.691 15.494 39.439 16.114 Q38.187 16.734 36.736 16.734 Q35.286 16.734 34.009 16.194 Z M84.355 12.703 Q81.268 12.703 79.372 10.8 Q77.477 8.896 77.477 6.05 Q77.477 3.204 79.372 1.201 Q81.268 -0.8 84.355 -0.8 H138.311 Q141.145 -0.8 143.085 1.23 Q145.027 3.26 145.027 6.106 Q145.027 8.953 143.085 10.828 Q141.145 12.703 138.311 12.703 H84.355 Z M84.355 -28.604 Q81.268 -28.604 79.372 -30.554 Q77.477 -32.503 77.477 -35.259 Q77.477 -38.013 79.372 -40.014 Q81.268 -42.017 84.355 -42.017 H138.311 Q141.145 -42.017 143.085 -39.987 Q145.027 -37.957 145.027 -35.201 Q145.027 -32.447 143.085 -30.526 Q141.145 -28.604 138.311 -28.604 H84.355 Z M84.355 -69.821 Q81.268 -69.821 79.372 -71.771 Q77.477 -73.72 77.477 -76.566 Q77.477 -79.412 79.372 -81.368 Q81.268 -83.324 84.355 -83.324 H138.311 Q141.145 -83.324 143.085 -81.341 Q145.027 -79.356 145.027 -76.51 Q145.027 -73.664 143.085 -71.742 Q141.145 -69.821 138.311 -69.821 H84.355 Z"/></g><g id="Medium-L" transform="matrix(1 0 0 1 1674.31 1556)"><path d="M33.879 16.064 Q32.734 15.602 31.966 14.635 L14.306 -3.309 Q12.378 -4.999 12.458 -7.592 Q12.539 -10.183 14.446 -12.052 Q16.319 -13.724 18.69 -13.682 Q21.064 -13.64 22.793 -11.912 L30.199 -4.828 V-76.8 Q30.199 -79.372 32.018 -81.243 Q33.835 -83.115 36.399 -83.115 Q38.963 -83.115 40.833 -81.243 Q42.704 -79.372 42.704 -76.8 V-4.828 L49.826 -11.873 Q51.516 -13.763 53.99 -13.763 Q56.462 -13.763 58.352 -12.034 Q60.203 -10.144 60.122 -7.572 Q60.041 -4.999 58.352 -3.309 L40.814 14.474 Q40.008 15.441 38.861 15.983 Q37.715 16.525 36.368 16.525 Q35.023 16.525 33.879 16.064 Z M84.25 12.494 Q81.478 12.494 79.688 10.694 Q77.898 8.896 77.898 6.313 Q77.898 3.73 79.688 1.859 Q81.478 -0.011 84.25 -0.011 H138.52 Q141.092 -0.011 142.901 1.888 Q144.711 3.786 144.711 6.369 Q144.711 8.953 142.901 10.723 Q141.092 12.494 138.52 12.494 H84.25 Z M84.25 -29.078 Q81.478 -29.078 79.688 -30.896 Q77.898 -32.713 77.898 -35.259 Q77.898 -37.804 79.688 -39.672 Q81.478 -41.543 84.25 -41.543 H138.52 Q141.092 -41.543 142.901 -39.645 Q144.711 -37.747 144.711 -35.201 Q144.711 -32.656 142.901 -30.868 Q141.092 -29.078 138.52 -29.078 H84.25 Z M84.25 -70.61 Q81.478 -70.61 79.688 -72.429 Q77.898 -74.246 77.898 -76.829 Q77.898 -79.412 79.688 -81.264 Q81.478 -83.115 84.25 -83.115 H138.52 Q141.092 -83.115 142.901 -81.235 Q144.711 -79.356 144.711 -76.773 Q144.711 -74.19 142.901 -72.4 Q141.092 -70.61 138.52 -70.61 H84.25 Z"/></g><g id="Regular-L" transform="matrix(1 0 0 1 1378.56 1556)"><path d="M33.782 15.967 Q32.734 15.564 31.928 14.596 L14.19 -3.464 Q12.416 -5.076 12.497 -7.495 Q12.578 -9.914 14.33 -11.667 Q16.125 -13.3 18.383 -13.219 Q20.64 -13.139 22.253 -11.526 L30.315 -3.786 V-76.994 Q30.315 -79.372 32.037 -81.167 Q33.758 -82.96 36.149 -82.96 Q38.539 -82.96 40.312 -81.167 Q42.086 -79.372 42.086 -76.994 V-3.786 L49.826 -11.526 Q51.439 -13.3 53.777 -13.3 Q56.115 -13.3 57.889 -11.687 Q59.663 -9.914 59.582 -7.495 Q59.501 -5.076 57.889 -3.464 L40.312 14.435 Q39.506 15.403 38.437 15.886 Q37.366 16.37 36.099 16.37 Q34.83 16.37 33.782 15.967 Z M84.172 12.339 Q81.633 12.339 79.92 10.617 Q78.206 8.896 78.206 6.505 Q78.206 4.115 79.92 2.341 Q81.633 0.568 84.172 0.568 H138.675 Q141.053 0.568 142.768 2.37 Q144.48 4.171 144.48 6.563 Q144.48 8.953 142.768 10.646 Q141.053 12.339 138.675 12.339 H84.172 Z M84.172 -29.425 Q81.633 -29.425 79.92 -31.147 Q78.206 -32.868 78.206 -35.259 Q78.206 -37.649 79.92 -39.422 Q81.633 -41.196 84.172 -41.196 H138.675 Q141.053 -41.196 142.768 -39.393 Q144.48 -37.592 144.48 -35.201 Q144.48 -32.811 142.768 -31.118 Q141.053 -29.425 138.675 -29.425 H84.172 Z M84.172 -71.189 Q81.633 -71.189 79.92 -72.911 Q78.206 -74.631 78.206 -77.023 Q78.206 -79.412 79.92 -81.186 Q81.633 -82.96 84.172 -82.96 H138.675 Q141.053 -82.96 142.768 -81.157 Q144.48 -79.356 144.48 -76.965 Q144.48 -74.575 142.768 -72.882 Q141.053 -71.189 138.675 -71.189 H84.172 Z"/></g><g id="Light-L" transform="matrix(1 0 0 1 1082.77 1556)"><path d="M34.806 12.648 Q33.788 12.215 33.047 11.257 L16.609 -5.325 Q15.083 -6.565 15.225 -8.506 Q15.369 -10.447 16.73 -11.896 Q18.249 -13.227 20.003 -13.121 Q21.756 -13.015 22.997 -11.775 L32.485 -2.732 V-75.196 Q32.485 -77.073 33.869 -78.527 Q35.252 -79.983 37.144 -79.983 Q39.035 -79.983 40.467 -78.527 Q41.901 -77.073 41.901 -75.196 V-2.732 L51.129 -11.775 Q52.416 -13.176 54.265 -13.176 Q56.115 -13.176 57.5 -11.931 Q58.918 -10.493 58.869 -8.559 Q58.819 -6.627 57.516 -5.386 L41.172 11.163 Q40.437 12.053 39.382 12.568 Q38.326 13.082 37.075 13.082 Q35.822 13.082 34.806 12.648 Z M83.8 9.362 Q81.762 9.362 80.386 7.979 Q79.013 6.595 79.013 4.704 Q79.013 2.812 80.386 1.38 Q81.762 -0.053 83.8 -0.053 H136.629 Q138.506 -0.053 139.88 1.411 Q141.255 2.875 141.255 4.766 Q141.255 6.658 139.88 8.009 Q138.506 9.362 136.629 9.362 H83.8 Z M83.8 -30.541 Q81.762 -30.541 80.386 -31.924 Q79.013 -33.308 79.013 -35.199 Q79.013 -37.091 80.386 -38.523 Q81.762 -39.956 83.8 -39.956 H136.629 Q138.506 -39.956 139.88 -38.492 Q141.255 -37.028 141.255 -35.136 Q141.255 -33.245 139.88 -31.894 Q138.506 -30.541 136.629 -30.541 H83.8 Z M83.8 -70.444 Q81.762 -70.444 80.386 -71.827 Q79.013 -73.211 79.013 -75.102 Q79.013 -76.994 80.386 -78.426 Q81.762 -79.859 83.8 -79.859 H136.629 Q138.506 -79.859 139.88 -78.395 Q141.255 -76.931 141.255 -75.039 Q141.255 -73.148 139.88 -71.797 Q138.506 -70.444 136.629 -70.444 H83.8 Z"/></g><g id="Thin-L" transform="matrix(1 0 0 1 787.282 1556)"><path d="M35.828 9.331 Q34.843 8.865 34.164 7.916 L19.027 -7.185 Q17.75 -8.053 17.955 -9.517 Q18.16 -10.981 19.131 -12.124 Q20.374 -13.155 21.624 -13.023 Q22.873 -12.89 23.741 -12.023 L34.656 -1.677 V-73.396 Q34.656 -74.773 35.702 -75.889 Q36.747 -77.007 38.139 -77.007 Q39.53 -77.007 40.622 -75.889 Q41.714 -74.773 41.714 -73.396 V-1.677 L52.43 -12.023 Q53.393 -13.052 54.754 -13.052 Q56.115 -13.052 57.112 -12.173 Q58.174 -11.072 58.155 -9.625 Q58.137 -8.177 57.144 -7.31 L42.031 7.893 Q41.367 8.704 40.325 9.251 Q39.285 9.796 38.05 9.796 Q36.815 9.796 35.828 9.331 Z M83.428 6.385 Q81.891 6.385 80.854 5.339 Q79.819 4.294 79.819 2.902 Q79.819 1.511 80.854 0.419 Q81.891 -0.673 83.428 -0.673 H134.582 Q135.958 -0.673 136.995 0.453 Q138.03 1.58 138.03 2.972 Q138.03 4.363 136.995 5.374 Q135.958 6.385 134.582 6.385 H83.428 Z M83.428 -31.658 Q81.891 -31.658 80.854 -32.703 Q79.819 -33.75 79.819 -35.141 Q79.819 -36.533 80.854 -37.625 Q81.891 -38.716 83.428 -38.716 H134.582 Q135.958 -38.716 136.995 -37.589 Q138.03 -36.464 138.03 -35.07 Q138.03 -33.679 136.995 -32.669 Q135.958 -31.658 134.582 -31.658 H83.428 Z M83.428 -69.7 Q81.891 -69.7 80.854 -70.745 Q79.819 -71.792 79.819 -73.183 Q79.819 -74.575 80.854 -75.667 Q81.891 -76.758 83.428 -76.758 H134.582 Q135.958 -76.758 136.995 -75.631 Q138.03 -74.506 138.03 -73.114 Q138.03 -71.722 136.995 -70.711 Q135.958 -69.7 134.582 -69.7 H83.428 Z"/></g><g id="Ultralight-L" transform="matrix(1 0 0 1 491.205 1556)"><path d="M36.443 7.34 Q35.475 6.856 34.836 5.913 L20.479 -8.301 Q19.35 -8.946 19.592 -10.123 Q19.834 -11.3 20.571 -12.263 Q21.648 -13.111 22.596 -12.965 Q23.543 -12.816 24.188 -12.171 L35.959 -1.045 V-72.317 Q35.959 -73.393 36.802 -74.307 Q37.645 -75.22 38.737 -75.22 Q39.829 -75.22 40.716 -74.307 Q41.602 -73.393 41.602 -72.317 V-1.045 L53.212 -12.171 Q53.978 -12.977 55.048 -12.977 Q56.115 -12.977 56.879 -12.318 Q57.727 -11.418 57.727 -10.264 Q57.727 -9.107 56.921 -8.462 L42.546 5.929 Q41.925 6.695 40.893 7.259 Q39.861 7.824 38.636 7.824 Q37.41 7.824 36.443 7.34 Z M83.205 4.599 Q81.967 4.599 81.135 3.755 Q80.303 2.912 80.303 1.82 Q80.303 0.729 81.135 -0.158 Q81.967 -1.045 83.205 -1.045 H133.354 Q134.429 -1.045 135.263 -0.121 Q136.095 0.803 136.095 1.895 Q136.095 2.986 135.263 3.793 Q134.429 4.599 133.354 4.599 H83.205 Z M83.205 -32.327 Q81.967 -32.327 81.135 -33.171 Q80.303 -34.014 80.303 -35.106 Q80.303 -36.197 81.135 -37.084 Q81.967 -37.971 83.205 -37.971 H133.354 Q134.429 -37.971 135.263 -37.047 Q136.095 -36.123 136.095 -35.032 Q136.095 -33.94 135.263 -33.134 Q134.429 -32.327 133.354 -32.327 H83.205 Z M83.205 -69.254 Q81.967 -69.254 81.135 -70.097 Q80.303 -70.94 80.303 -72.032 Q80.303 -73.124 81.135 -74.011 Q81.967 -74.897 83.205 -74.897 H133.354 Q134.429 -74.897 135.263 -73.974 Q136.095 -73.05 136.095 -71.958 Q136.095 -70.866 135.263 -70.06 Q134.429 -69.254 133.354 -69.254 H83.205 Z"/></g><g id="Bold-M" transform="matrix(1 0 0 1 2281.8 1126)"><path d="M26 7.145 Q24.375 6.395 23.25 5.27 L9.875 -8.23 Q7.375 -10.605 7.438 -14.167 Q7.5 -17.73 10 -20.23 Q12.5 -22.605 15.875 -22.605 Q19.25 -22.605 21.625 -20.105 L20.75 -20.855 V-66.73 Q20.75 -70.355 23.25 -72.792 Q25.75 -75.23 29.312 -75.23 Q32.875 -75.23 35.312 -72.792 Q37.75 -70.355 37.75 -66.73 V-20.855 L37 -20.105 Q39.375 -22.605 42.75 -22.605 Q46.125 -22.605 48.75 -20.105 Q51.125 -17.605 51.125 -14.105 Q51.125 -10.605 48.75 -8.23 L35.375 5.27 Q34.25 6.395 32.625 7.145 Q31 7.895 29.312 7.895 Q27.625 7.895 26 7.145 Z M66 4.77 Q62.375 4.77 59.938 2.333 Q57.5 -0.105 57.5 -3.667 Q57.5 -7.23 59.938 -9.73 Q62.375 -12.23 66 -12.23 H107.25 Q110.875 -12.23 113.312 -9.73 Q115.75 -7.23 115.75 -3.667 Q115.75 -0.105 113.312 2.333 Q110.875 4.77 107.25 4.77 H66 Z M66 -26.73 Q62.375 -26.73 59.938 -29.23 Q57.5 -31.73 57.5 -35.23 Q57.5 -38.73 59.938 -41.23 Q62.375 -43.73 66 -43.73 H107.25 Q110.875 -43.73 113.312 -41.23 Q115.75 -38.73 115.75 -35.23 Q115.75 -31.73 113.312 -29.23 Q110.875 -26.73 107.25 -26.73 H66 Z M66 -58.23 Q62.375 -58.23 59.938 -60.73 Q57.5 -63.23 57.5 -66.792 Q57.5 -70.355 59.938 -72.792 Q62.375 -75.23 66 -75.23 H107.25 Q110.875 -75.23 113.312 -72.792 Q115.75 -70.355 115.75 -66.792 Q115.75 -63.23 113.312 -60.73 Q110.875 -58.23 107.25 -58.23 H66 Z"/></g><g id="Semibold-M" transform="matrix(1 0 0 1 1985.97 1126)"><path d="M25.973 6.601 Q24.538 5.96 23.468 4.89 L9.984 -8.719 Q7.755 -10.876 7.817 -14.086 Q7.88 -17.295 10.109 -19.524 Q12.391 -21.735 15.467 -21.709 Q18.544 -21.681 20.701 -19.399 L21.239 -18.79 V-66.947 Q21.239 -70.192 23.495 -72.412 Q25.75 -74.632 28.959 -74.632 Q32.169 -74.632 34.389 -72.412 Q36.609 -70.192 36.609 -66.947 V-18.79 L37.218 -19.452 Q39.375 -21.735 42.451 -21.735 Q45.528 -21.735 47.88 -19.452 Q50.038 -17.225 50.038 -14.051 Q50.038 -10.876 47.88 -8.719 L34.451 4.89 Q33.38 5.96 31.946 6.601 Q30.511 7.243 28.959 7.243 Q27.407 7.243 25.973 6.601 Z M65.838 4.173 Q62.593 4.173 60.373 1.953 Q58.153 -0.267 58.153 -3.477 Q58.153 -6.686 60.373 -8.942 Q62.593 -11.197 65.838 -11.197 H107.304 Q110.549 -11.197 112.769 -8.942 Q114.989 -6.686 114.989 -3.477 Q114.989 -0.267 112.769 1.953 Q110.549 4.173 107.304 4.173 H65.838 Z M65.838 -27.545 Q62.593 -27.545 60.373 -29.8 Q58.153 -32.056 58.153 -35.23 Q58.153 -38.404 60.373 -40.66 Q62.593 -42.915 65.838 -42.915 H107.304 Q110.549 -42.915 112.769 -40.66 Q114.989 -38.404 114.989 -35.23 Q114.989 -32.056 112.769 -29.8 Q110.549 -27.545 107.304 -27.545 H65.838 Z M65.838 -59.262 Q62.593 -59.262 60.373 -61.517 Q58.153 -63.774 58.153 -66.982 Q58.153 -70.192 60.373 -72.412 Q62.593 -74.632 65.838 -74.632 H107.304 Q110.549 -74.632 112.769 -72.412 Q114.989 -70.192 114.989 -66.982 Q114.989 -63.774 112.769 -61.517 Q110.549 -59.262 107.304 -59.262 H65.838 Z"/></g><g id="Medium-M" transform="matrix(1 0 0 1 1689.91 1126)"><path d="M25.953 6.194 Q24.66 5.634 23.63 4.604 L10.065 -9.086 Q8.041 -11.08 8.104 -14.025 Q8.166 -16.969 10.19 -18.994 Q12.31 -21.084 15.161 -21.036 Q18.014 -20.989 20.009 -18.869 L21.606 -17.241 V-67.11 Q21.606 -70.07 23.677 -72.126 Q25.75 -74.184 28.694 -74.184 Q31.639 -74.184 33.696 -72.126 Q35.752 -70.07 35.752 -67.11 V-17.241 L37.38 -18.964 Q39.375 -21.084 42.227 -21.084 Q45.079 -21.084 47.229 -18.964 Q49.222 -16.939 49.222 -14.01 Q49.222 -11.08 47.229 -9.086 L33.759 4.604 Q32.729 5.634 31.436 6.194 Q30.144 6.754 28.694 6.754 Q27.245 6.754 25.953 6.194 Z M65.715 3.724 Q62.755 3.724 60.699 1.666 Q58.641 -0.39 58.641 -3.335 Q58.641 -6.279 60.699 -8.351 Q62.755 -10.422 65.715 -10.422 H107.345 Q110.304 -10.422 112.361 -8.351 Q114.419 -6.279 114.419 -3.335 Q114.419 -0.39 112.361 1.666 Q110.304 3.724 107.345 3.724 H65.715 Z M65.715 -28.156 Q62.755 -28.156 60.699 -30.229 Q58.641 -32.301 58.641 -35.23 Q58.641 -38.159 60.699 -40.231 Q62.755 -42.304 65.715 -42.304 H107.345 Q110.304 -42.304 112.361 -40.231 Q114.419 -38.159 114.419 -35.23 Q114.419 -32.301 112.361 -30.229 Q110.304 -28.156 107.345 -28.156 H65.715 Z M65.715 -60.037 Q62.755 -60.037 60.699 -62.109 Q58.641 -64.181 58.641 -67.125 Q58.641 -70.07 60.699 -72.126 Q62.755 -74.184 65.715 -74.184 H107.345 Q110.304 -74.184 112.361 -72.126 Q114.419 -70.07 114.419 -67.125 Q114.419 -64.181 112.361 -62.109 Q110.304 -60.037 107.345 -60.037 H65.715 Z"/></g><g id="Regular-M" transform="matrix(1 0 0 1 1394.06 1126)"><path d="M25.938 5.895 Q24.75 5.395 23.75 4.395 L10.125 -9.355 Q8.25 -11.23 8.312 -13.98 Q8.375 -16.73 10.25 -18.605 Q12.25 -20.605 14.938 -20.542 Q17.625 -20.48 19.5 -18.48 L21.875 -16.105 V-67.23 Q21.875 -69.98 23.812 -71.917 Q25.75 -73.855 28.5 -73.855 Q31.25 -73.855 33.188 -71.917 Q35.125 -69.98 35.125 -67.23 V-16.105 L37.5 -18.605 Q39.375 -20.605 42.062 -20.605 Q44.75 -20.605 46.75 -18.605 Q48.625 -16.73 48.625 -13.98 Q48.625 -11.23 46.75 -9.355 L33.25 4.395 Q32.25 5.395 31.062 5.895 Q29.875 6.395 28.5 6.395 Q27.125 6.395 25.938 5.895 Z M65.625 3.395 Q62.875 3.395 60.938 1.458 Q59 -0.48 59 -3.23 Q59 -5.98 60.938 -7.917 Q62.875 -9.855 65.625 -9.855 H107.375 Q110.125 -9.855 112.062 -7.917 Q114 -5.98 114 -3.23 Q114 -0.48 112.062 1.458 Q110.125 3.395 107.375 3.395 H65.625 Z M65.625 -28.605 Q62.875 -28.605 60.938 -30.542 Q59 -32.48 59 -35.23 Q59 -37.98 60.938 -39.917 Q62.875 -41.855 65.625 -41.855 H107.375 Q110.125 -41.855 112.062 -39.917 Q114 -37.98 114 -35.23 Q114 -32.48 112.062 -30.542 Q110.125 -28.605 107.375 -28.605 H65.625 Z M65.625 -60.605 Q62.875 -60.605 60.938 -62.542 Q59 -64.48 59 -67.23 Q59 -69.98 60.938 -71.917 Q62.875 -73.855 65.625 -73.855 H107.375 Q110.125 -73.855 112.062 -71.917 Q114 -69.98 114 -67.23 Q114 -64.48 112.062 -62.542 Q110.125 -60.605 107.375 -60.605 H65.625 Z"/></g><g id="Light-M" transform="matrix(1 0 0 1 1098.18 1126)"><path d="M26.562 3.419 Q25.471 2.943 24.521 1.998 L11.76 -10.797 Q10.174 -12.336 10.284 -14.557 Q10.395 -16.777 11.919 -18.302 Q13.596 -19.98 15.731 -19.894 Q17.865 -19.806 19.356 -18.144 L23.558 -14.085 V-66.22 Q23.558 -68.439 25.136 -70.017 Q26.715 -71.595 28.935 -71.595 Q31.154 -71.595 32.731 -70.017 Q34.307 -68.439 34.307 -66.22 V-14.085 L38.557 -18.269 Q40.072 -19.931 42.219 -19.931 Q44.365 -19.931 45.989 -18.316 Q47.519 -16.794 47.519 -14.589 Q47.519 -12.384 45.981 -10.845 L33.345 1.995 Q32.394 2.943 31.296 3.419 Q30.199 3.895 28.926 3.895 Q27.654 3.895 26.562 3.419 Z M65.289 1.135 Q63.07 1.135 61.491 -0.444 Q59.914 -2.022 59.914 -4.241 Q59.914 -6.461 61.491 -8.037 Q63.07 -9.615 65.289 -9.615 H106.125 Q108.344 -9.615 109.921 -8.036 Q111.5 -6.457 111.5 -4.237 Q111.5 -2.019 109.921 -0.441 Q108.344 1.135 106.125 1.135 H65.289 Z M65.289 -29.807 Q63.07 -29.807 61.491 -31.385 Q59.914 -32.964 59.914 -35.184 Q59.914 -37.402 61.491 -38.98 Q63.07 -40.556 65.289 -40.556 H106.125 Q108.344 -40.556 109.921 -38.979 Q111.5 -37.4 111.5 -35.18 Q111.5 -32.961 109.921 -31.384 Q108.344 -29.807 106.125 -29.807 H65.289 Z M65.289 -60.749 Q63.07 -60.749 61.491 -62.327 Q59.914 -63.906 59.914 -66.126 Q59.914 -68.345 61.491 -69.922 Q63.07 -71.499 65.289 -71.499 H106.125 Q108.344 -71.499 109.921 -69.92 Q111.5 -68.342 111.5 -66.122 Q111.5 -63.902 109.921 -62.326 Q108.344 -60.749 106.125 -60.749 H65.289 Z"/></g><g id="Thin-M" transform="matrix(1 0 0 1 802.565 1126)"><path d="M27.188 0.943 Q26.192 0.491 25.293 -0.399 L13.394 -12.24 Q12.096 -13.441 12.255 -15.134 Q12.414 -16.826 13.586 -17.999 Q14.943 -19.355 16.524 -19.245 Q18.106 -19.134 19.211 -17.807 L25.24 -12.066 V-65.211 Q25.24 -66.899 26.46 -68.117 Q27.68 -69.336 29.369 -69.336 Q31.058 -69.336 32.274 -68.117 Q33.49 -66.899 33.49 -65.211 V-12.066 L39.615 -17.932 Q40.769 -19.259 42.375 -19.259 Q43.981 -19.259 45.229 -18.027 Q46.414 -16.859 46.414 -15.197 Q46.414 -13.537 45.211 -12.336 L33.439 -0.404 Q32.539 0.491 31.53 0.943 Q30.523 1.395 29.352 1.395 Q28.183 1.395 27.188 0.943 Z M64.953 -1.124 Q63.265 -1.124 62.046 -2.344 Q60.828 -3.564 60.828 -5.252 Q60.828 -6.941 62.046 -8.157 Q63.265 -9.374 64.953 -9.374 H104.875 Q106.562 -9.374 107.781 -8.155 Q109 -6.935 109 -5.246 Q109 -3.557 107.781 -2.34 Q106.562 -1.124 104.875 -1.124 H64.953 Z M64.953 -31.009 Q63.265 -31.009 62.046 -32.229 Q60.828 -33.449 60.828 -35.137 Q60.828 -36.826 62.046 -38.042 Q63.265 -39.259 64.953 -39.259 H104.875 Q106.562 -39.259 107.781 -38.039 Q109 -36.82 109 -35.13 Q109 -33.441 107.781 -32.225 Q106.562 -31.009 104.875 -31.009 H64.953 Z M64.953 -60.894 Q63.265 -60.894 62.046 -62.114 Q60.828 -63.332 60.828 -65.021 Q60.828 -66.711 62.046 -67.927 Q63.265 -69.144 64.953 -69.144 H104.875 Q106.562 -69.144 107.781 -67.924 Q109 -66.704 109 -65.015 Q109 -63.326 107.781 -62.11 Q106.562 -60.894 104.875 -60.894 H64.953 Z"/></g><g id="Ultralight-M" transform="matrix(1 0 0 1 506.415 1126)"><path d="M27.562 -0.542 Q26.625 -0.98 25.755 -1.836 L14.375 -13.105 Q13.25 -14.105 13.438 -15.48 Q13.625 -16.855 14.588 -17.817 Q15.75 -18.98 17 -18.855 Q18.25 -18.73 19.125 -17.605 L26.25 -10.855 V-64.605 Q26.25 -65.974 27.255 -66.976 Q28.259 -67.98 29.63 -67.98 Q31 -67.98 32 -66.976 Q33 -65.974 33 -64.605 V-10.855 L40.25 -17.73 Q41.188 -18.855 42.469 -18.855 Q43.75 -18.855 44.771 -17.855 Q45.75 -16.896 45.75 -15.564 Q45.75 -14.23 44.75 -13.23 L33.495 -1.844 Q32.625 -0.98 31.671 -0.542 Q30.716 -0.105 29.609 -0.105 Q28.5 -0.105 27.562 -0.542 Z M64.75 -2.48 Q63.381 -2.48 62.377 -3.485 Q61.375 -4.489 61.375 -5.86 Q61.375 -7.23 62.377 -8.23 Q63.381 -9.23 64.75 -9.23 H104.125 Q105.494 -9.23 106.496 -8.225 Q107.5 -7.221 107.5 -5.85 Q107.5 -4.48 106.496 -3.48 Q105.494 -2.48 104.125 -2.48 H64.75 Z M64.75 -31.73 Q63.381 -31.73 62.377 -32.735 Q61.375 -33.739 61.375 -35.11 Q61.375 -36.48 62.377 -37.48 Q63.381 -38.48 64.75 -38.48 H104.125 Q105.494 -38.48 106.496 -37.475 Q107.5 -36.471 107.5 -35.1 Q107.5 -33.73 106.496 -32.73 Q105.494 -31.73 104.125 -31.73 H64.75 Z M64.75 -60.98 Q63.381 -60.98 62.377 -61.985 Q61.375 -62.989 61.375 -64.36 Q61.375 -65.73 62.377 -66.73 Q63.381 -67.73 64.75 -67.73 H104.125 Q105.494 -67.73 106.496 -66.725 Q107.5 -65.721 107.5 -64.35 Q107.5 -62.98 106.496 -61.98 Q105.494 -60.98 104.125 -60.98 H64.75 Z"/></g><g id="Bold-S" transform="matrix(1 0 0 1 2294.23 696)"><path d="M20.672 -4.755 Q19.458 -5.347 18.627 -6.175 L9.074 -15.801 Q7.101 -17.675 7.2 -20.239 Q7.298 -22.803 9.172 -24.677 Q11.145 -26.551 13.561 -26.502 Q15.977 -26.452 17.753 -24.48 L16.766 -25.367 V-56.546 Q16.766 -59.196 18.619 -61.02 Q20.473 -62.845 23.107 -62.845 Q25.741 -62.845 27.566 -61.035 Q29.39 -59.225 29.39 -56.533 V-25.367 L28.404 -24.48 Q30.278 -26.452 32.694 -26.452 Q35.111 -26.452 37.083 -24.578 Q38.957 -22.606 38.957 -20.091 Q38.957 -17.576 37.083 -15.702 L27.65 -6.17 Q26.826 -5.347 25.611 -4.755 Q24.396 -4.163 23.141 -4.163 Q21.887 -4.163 20.672 -4.755 Z M51.68 -7.615 Q48.987 -7.615 47.177 -9.419 Q45.367 -11.223 45.367 -13.857 Q45.367 -16.491 47.177 -18.365 Q48.987 -20.239 51.68 -20.239 H83.437 Q86.129 -20.239 87.939 -18.386 Q89.749 -16.533 89.749 -13.898 Q89.749 -11.264 87.939 -9.44 Q86.129 -7.615 83.437 -7.615 H51.68 Z M51.68 -28.918 Q48.987 -28.918 47.177 -30.771 Q45.367 -32.624 45.367 -35.209 Q45.367 -37.794 47.177 -39.668 Q48.987 -41.542 51.68 -41.542 H83.437 Q86.129 -41.542 87.939 -39.689 Q89.749 -37.836 89.749 -35.251 Q89.749 -32.666 87.939 -30.792 Q86.129 -28.918 83.437 -28.918 H51.68 Z M51.68 -50.221 Q48.987 -50.221 47.177 -52.074 Q45.367 -53.927 45.367 -56.562 Q45.367 -59.196 47.177 -61.02 Q48.987 -62.845 51.68 -62.845 H83.437 Q86.129 -62.845 87.939 -61.041 Q89.749 -59.237 89.749 -56.603 Q89.749 -53.969 87.939 -52.095 Q86.129 -50.221 83.437 -50.221 H51.68 Z"/></g><g id="Semibold-S" transform="matrix(1 0 0 1 1998.1 696)"><path d="M20.651 -5.184 Q19.586 -5.69 18.799 -6.475 L9.159 -16.186 Q7.401 -17.889 7.499 -20.175 Q7.598 -22.46 9.258 -24.12 Q11.059 -25.865 13.239 -25.795 Q15.42 -25.724 17.024 -23.923 L17.152 -23.738 V-56.717 Q17.152 -59.068 18.813 -60.721 Q20.473 -62.374 22.828 -62.374 Q25.184 -62.374 26.837 -60.735 Q28.49 -59.097 28.49 -56.705 V-23.738 L28.576 -23.965 Q30.278 -25.766 32.458 -25.766 Q34.639 -25.766 36.397 -24.064 Q38.099 -22.306 38.099 -20.049 Q38.099 -17.79 36.397 -16.088 L26.92 -6.47 Q26.14 -5.69 25.075 -5.184 Q24.01 -4.678 22.863 -4.678 Q21.715 -4.678 20.651 -5.184 Z M51.551 -8.086 Q49.159 -8.086 47.52 -9.719 Q45.882 -11.351 45.882 -13.707 Q45.882 -16.062 47.52 -17.744 Q49.159 -19.424 51.551 -19.424 H83.479 Q85.872 -19.424 87.51 -17.764 Q89.148 -16.104 89.148 -13.748 Q89.148 -11.392 87.51 -9.739 Q85.872 -8.086 83.479 -8.086 H51.551 Z M51.551 -29.561 Q49.159 -29.561 47.52 -31.221 Q45.882 -32.882 45.882 -35.209 Q45.882 -37.537 47.52 -39.218 Q49.159 -40.899 51.551 -40.899 H83.479 Q85.872 -40.899 87.51 -39.239 Q89.148 -37.578 89.148 -35.251 Q89.148 -32.923 87.51 -31.242 Q85.872 -29.561 83.479 -29.561 H51.551 Z M51.551 -51.036 Q49.159 -51.036 47.52 -52.696 Q45.882 -54.356 45.882 -56.712 Q45.882 -59.068 47.52 -60.721 Q49.159 -62.374 51.551 -62.374 H83.479 Q85.872 -62.374 87.51 -60.741 Q89.148 -59.109 89.148 -56.753 Q89.148 -54.398 87.51 -52.716 Q85.872 -51.036 83.479 -51.036 H51.551 Z"/></g><g id="Medium-S" transform="matrix(1 0 0 1 1701.85 696)"><path d="M20.634 -5.505 Q19.683 -5.947 18.927 -6.701 L9.223 -16.476 Q7.627 -18.05 7.725 -20.127 Q7.824 -22.203 9.322 -23.702 Q10.995 -25.351 12.998 -25.264 Q15.002 -25.177 16.477 -23.504 L17.442 -22.516 V-56.846 Q17.442 -58.971 18.957 -60.495 Q20.473 -62.02 22.619 -62.02 Q24.766 -62.02 26.29 -60.51 Q27.814 -59.001 27.814 -56.833 V-22.516 L28.704 -23.579 Q30.278 -25.252 32.282 -25.252 Q34.285 -25.252 35.883 -23.678 Q37.456 -22.08 37.456 -20.016 Q37.456 -17.951 35.883 -16.378 L26.373 -6.695 Q25.626 -5.947 24.673 -5.505 Q23.721 -5.064 22.654 -5.064 Q21.587 -5.064 20.634 -5.505 Z M51.455 -8.44 Q49.287 -8.44 47.778 -9.945 Q46.268 -11.448 46.268 -13.595 Q46.268 -15.741 47.778 -17.277 Q49.287 -18.813 51.455 -18.813 H83.512 Q85.678 -18.813 87.188 -17.298 Q88.698 -15.782 88.698 -13.636 Q88.698 -11.489 87.188 -9.965 Q85.678 -8.44 83.512 -8.44 H51.455 Z M51.455 -30.043 Q49.287 -30.043 47.778 -31.559 Q46.268 -33.074 46.268 -35.209 Q46.268 -37.344 47.778 -38.88 Q49.287 -40.417 51.455 -40.417 H83.512 Q85.678 -40.417 87.188 -38.901 Q88.698 -37.386 88.698 -35.251 Q88.698 -33.116 87.188 -31.58 Q85.678 -30.043 83.512 -30.043 H51.455 Z M51.455 -51.647 Q49.287 -51.647 47.778 -53.162 Q46.268 -54.678 46.268 -56.824 Q46.268 -58.971 47.778 -60.495 Q49.287 -62.02 51.455 -62.02 H83.512 Q85.678 -62.02 87.188 -60.515 Q88.698 -59.012 88.698 -56.865 Q88.698 -54.719 87.188 -53.183 Q85.678 -51.647 83.512 -51.647 H51.455 Z"/></g><g id="Regular-S" transform="matrix(1 0 0 1 1405.73 696)"><path d="M20.622 -5.741 Q19.754 -6.136 19.022 -6.865 L9.271 -16.688 Q7.791 -18.168 7.89 -20.091 Q7.989 -22.014 9.369 -23.395 Q10.947 -24.973 12.821 -24.874 Q14.695 -24.776 16.076 -23.198 L17.654 -21.62 V-56.94 Q17.654 -58.9 19.063 -60.33 Q20.473 -61.76 22.466 -61.76 Q24.459 -61.76 25.889 -60.345 Q27.319 -58.93 27.319 -56.927 V-21.62 L28.799 -23.296 Q30.278 -24.874 32.152 -24.874 Q34.026 -24.874 35.505 -23.395 Q36.984 -21.916 36.984 -19.992 Q36.984 -18.069 35.505 -16.59 L25.973 -6.861 Q25.248 -6.136 24.378 -5.741 Q23.508 -5.347 22.5 -5.347 Q21.492 -5.347 20.622 -5.741 Z M51.384 -8.7 Q49.382 -8.7 47.966 -10.109 Q46.551 -11.519 46.551 -13.512 Q46.551 -15.505 47.966 -16.935 Q49.382 -18.365 51.384 -18.365 H83.535 Q85.537 -18.365 86.953 -16.956 Q88.368 -15.546 88.368 -13.553 Q88.368 -11.56 86.953 -10.13 Q85.537 -8.7 83.535 -8.7 H51.384 Z M51.384 -30.397 Q49.382 -30.397 47.966 -31.807 Q46.551 -33.216 46.551 -35.209 Q46.551 -37.202 47.966 -38.633 Q49.382 -40.063 51.384 -40.063 H83.535 Q85.537 -40.063 86.953 -38.653 Q88.368 -37.244 88.368 -35.251 Q88.368 -33.257 86.953 -31.827 Q85.537 -30.397 83.535 -30.397 H51.384 Z M51.384 -52.095 Q49.382 -52.095 47.966 -53.504 Q46.551 -54.914 46.551 -56.907 Q46.551 -58.9 47.966 -60.33 Q49.382 -61.76 51.384 -61.76 H83.535 Q85.537 -61.76 86.953 -60.351 Q88.368 -58.941 88.368 -56.948 Q88.368 -54.955 86.953 -53.525 Q85.537 -52.095 83.535 -52.095 H51.384 Z"/></g><g id="Light-S" transform="matrix(1 0 0 1 1109.75 696)"><path d="M21.116 -7.695 Q20.323 -8.071 19.63 -8.757 L10.561 -17.827 Q9.309 -19.041 9.445 -20.547 Q9.582 -22.052 10.686 -23.156 Q12.01 -24.48 13.448 -24.363 Q14.884 -24.244 15.962 -22.932 L18.981 -20.026 V-56.143 Q18.981 -57.684 20.108 -58.831 Q21.234 -59.977 22.808 -59.977 Q24.383 -59.977 25.529 -58.846 Q26.674 -57.714 26.674 -56.131 V-20.026 L29.633 -23.031 Q30.828 -24.343 32.275 -24.343 Q33.722 -24.343 34.904 -23.167 Q36.112 -21.966 36.112 -20.473 Q36.112 -18.98 34.898 -17.765 L26.047 -8.753 Q25.361 -8.071 24.563 -7.695 Q23.764 -7.319 22.837 -7.319 Q21.91 -7.319 21.116 -7.695 Z M51.118 -10.483 Q49.535 -10.483 48.403 -11.609 Q47.272 -12.735 47.272 -14.31 Q47.272 -15.885 48.403 -17.03 Q49.535 -18.176 51.118 -18.176 H82.549 Q84.132 -18.176 85.263 -17.049 Q86.395 -15.923 86.395 -14.348 Q86.395 -12.774 85.263 -11.628 Q84.132 -10.483 82.549 -10.483 H51.118 Z M51.118 -31.346 Q49.535 -31.346 48.403 -32.471 Q47.272 -33.598 47.272 -35.173 Q47.272 -36.747 48.403 -37.893 Q49.535 -39.038 51.118 -39.038 H82.549 Q84.132 -39.038 85.263 -37.913 Q86.395 -36.786 86.395 -35.211 Q86.395 -33.637 85.263 -32.491 Q84.132 -31.346 82.549 -31.346 H51.118 Z M51.118 -52.208 Q49.535 -52.208 48.403 -53.335 Q47.272 -54.461 47.272 -56.036 Q47.272 -57.61 48.403 -58.756 Q49.535 -59.901 51.118 -59.901 H82.549 Q84.132 -59.901 85.263 -58.775 Q86.395 -57.649 86.395 -56.074 Q86.395 -54.499 85.263 -53.354 Q84.132 -52.208 82.549 -52.208 H51.118 Z"/></g><g id="Thin-S" transform="matrix(1 0 0 1 814.015 696)"><path d="M21.609 -9.649 Q20.891 -10.005 20.239 -10.648 L11.85 -18.965 Q10.826 -19.913 11.001 -21.001 Q11.175 -22.09 12.002 -22.917 Q13.072 -23.987 14.073 -23.851 Q15.075 -23.714 15.848 -22.667 L20.309 -18.433 V-55.348 Q20.309 -56.469 21.152 -57.332 Q21.995 -58.195 23.151 -58.195 Q24.307 -58.195 25.168 -57.347 Q26.029 -56.498 26.029 -55.335 V-18.433 L30.467 -22.766 Q31.378 -23.812 32.398 -23.812 Q33.419 -23.812 34.305 -22.939 Q35.24 -22.017 35.24 -20.953 Q35.24 -19.89 34.291 -18.942 L26.122 -10.647 Q25.476 -10.005 24.748 -9.649 Q24.019 -9.292 23.173 -9.292 Q22.327 -9.292 21.609 -9.649 Z M50.853 -12.265 Q49.689 -12.265 48.841 -13.108 Q47.993 -13.952 47.993 -15.108 Q47.993 -16.263 48.841 -17.124 Q49.689 -17.985 50.853 -17.985 H81.563 Q82.727 -17.985 83.575 -17.143 Q84.423 -16.3 84.423 -15.144 Q84.423 -13.988 83.575 -13.126 Q82.727 -12.265 81.563 -12.265 H50.853 Z M50.853 -32.294 Q49.689 -32.294 48.841 -33.137 Q47.993 -33.98 47.993 -35.136 Q47.993 -36.292 48.841 -37.153 Q49.689 -38.014 50.853 -38.014 H81.563 Q82.727 -38.014 83.575 -37.171 Q84.423 -36.329 84.423 -35.172 Q84.423 -34.016 83.575 -33.155 Q82.727 -32.294 81.563 -32.294 H50.853 Z M50.853 -52.323 Q49.689 -52.323 48.841 -53.165 Q47.993 -54.008 47.993 -55.164 Q47.993 -56.321 48.841 -57.182 Q49.689 -58.043 50.853 -58.043 H81.563 Q82.727 -58.043 83.575 -57.2 Q84.423 -56.356 84.423 -55.201 Q84.423 -54.045 83.575 -53.184 Q82.727 -52.323 81.563 -52.323 H50.853 Z"/></g><g id="Ultralight-S" transform="matrix(1 0 0 1 517.792 696)"><path d="M21.905 -10.82 Q21.233 -11.165 20.604 -11.782 L12.624 -19.647 Q11.736 -20.436 11.934 -21.275 Q12.131 -22.113 12.792 -22.774 Q13.709 -23.691 14.449 -23.543 Q15.188 -23.395 15.78 -22.507 L21.106 -17.477 V-54.869 Q21.106 -55.739 21.778 -56.431 Q22.452 -57.125 23.356 -57.125 Q24.262 -57.125 24.952 -56.447 Q25.643 -55.769 25.643 -54.856 V-17.477 L30.968 -22.606 Q31.708 -23.494 32.472 -23.494 Q33.237 -23.494 33.944 -22.803 Q34.716 -22.047 34.716 -21.242 Q34.716 -20.436 33.927 -19.647 L26.166 -11.782 Q25.544 -11.165 24.858 -10.82 Q24.173 -10.475 23.375 -10.475 Q22.577 -10.475 21.905 -10.82 Z M50.693 -13.335 Q49.781 -13.335 49.103 -14.008 Q48.425 -14.681 48.425 -15.586 Q48.425 -16.491 49.103 -17.182 Q49.781 -17.872 50.693 -17.872 H80.971 Q81.883 -17.872 82.562 -17.199 Q83.24 -16.526 83.24 -15.621 Q83.24 -14.716 82.562 -14.026 Q81.883 -13.335 80.971 -13.335 H50.693 Z M50.693 -32.863 Q49.781 -32.863 49.103 -33.536 Q48.425 -34.209 48.425 -35.114 Q48.425 -36.019 49.103 -36.709 Q49.781 -37.4 50.693 -37.4 H80.971 Q81.883 -37.4 82.562 -36.727 Q83.24 -36.054 83.24 -35.149 Q83.24 -34.244 82.562 -33.553 Q81.883 -32.863 80.971 -32.863 H50.693 Z M50.693 -52.391 Q49.781 -52.391 49.103 -53.063 Q48.425 -53.737 48.425 -54.641 Q48.425 -55.547 49.103 -56.237 Q49.781 -56.927 50.693 -56.927 H80.971 Q81.883 -56.927 82.562 -56.255 Q83.24 -55.581 83.24 -54.677 Q83.24 -53.771 82.562 -53.081 Q81.883 -52.391 80.971 -52.391 H50.693 Z"/></g></g></svg>