<svg xmlns="http://www.w3.org/2000/svg" version="1.1" width="3300" height="2000"><g id="Notes"><style>
    text {
      font-family: monospace;
      text-anchor: middle;
    }
    text.emphasis {
      font-weight:bold;
    }
    text.lanchor {
      text-anchor: start;
    }
  </style><rect height="2200" id="artboard" fill="white" width="3300" x="0" y="0"/><line id="" style="fill:none;stroke:black;stroke-width:0.5;" x1="263" x2="3036" y1="292" y2="292"/><text class="lanchor emphasis" transform="matrix(1 0 0 1 263 322)">Weight/Scale Variations</text><text transform="matrix(1 0 0 1 559.711 322)">Ultralight</text><text transform="matrix(1 0 0 1 856.422 322)">Thin</text><text transform="matrix(1 0 0 1 1153.13 322)">Light</text><text transform="matrix(1 0 0 1 1449.84 322)">Regular</text><text transform="matrix(1 0 0 1 1746.56 322)">Medium</text><text transform="matrix(1 0 0 1 2043.27 322)">Semibold</text><text transform="matrix(1 0 0 1 2339.98 322)">Bold</text><text transform="matrix(1 0 0 1 2636.69 322)">Heavy</text><text transform="matrix(1 0 0 1 2933.4 322)">Black</text><text id="template-version" style="text-anchor: end;" transform="matrix(1 0 0 1 3036 1933)">Template v.1.0</text><text class="lanchor" transform="matrix(1 0 0 1 263 726)">Small</text><text class="lanchor" transform="matrix(1 0 0 1 263 1156)">Medium</text><text class="lanchor" transform="matrix(1 0 0 1 263 1586)">Large</text></g><g id="Guides"><g id="H-reference" style="fill:#27AAE1;stroke:none;" transform="matrix(1 0 0 1 339 696)"><path d="M 54.9316 0 L 57.666 0 L 30.5664 -70.459 L 28.0762 -70.459 L 0.976562 0 L 3.66211 0 L 12.9395 -24.4629 L 45.7031 -24.4629 Z M 29.1992 -67.0898 L 29.4434 -67.0898 L 44.8242 -26.709 L 13.8184 -26.709 Z"/></g><line id="Baseline-S" style="fill:none;stroke:#27AAE1;opacity:1;stroke-width:0.577;" x1="263" x2="3036" y1="696" y2="696"/><line id="Capline-S" style="fill:none;stroke:#27AAE1;opacity:1;stroke-width:0.577;" x1="263" x2="3036" y1="625.541" y2="625.541"/><g id="H-reference" style="fill:#27AAE1;stroke:none;" transform="matrix(1 0 0 1 339 1126)"><path d="M 54.9316 0 L 57.666 0 L 30.5664 -70.459 L 28.0762 -70.459 L 0.976562 0 L 3.66211 0 L 12.9395 -24.4629 L 45.7031 -24.4629 Z M 29.1992 -67.0898 L 29.4434 -67.0898 L 44.8242 -26.709 L 13.8184 -26.709 Z"/></g><line id="Baseline-M" style="fill:none;stroke:#27AAE1;opacity:1;stroke-width:0.577;" x1="263" x2="3036" y1="1126" y2="1126"/><line id="Capline-M" style="fill:none;stroke:#27AAE1;opacity:1;stroke-width:0.577;" x1="263" x2="3036" y1="1055.54" y2="1055.54"/><g id="H-reference" style="fill:#27AAE1;stroke:none;" transform="matrix(1 0 0 1 339 1556)"><path d="M 54.9316 0 L 57.666 0 L 30.5664 -70.459 L 28.0762 -70.459 L 0.976562 0 L 3.66211 0 L 12.9395 -24.4629 L 45.7031 -24.4629 Z M 29.1992 -67.0898 L 29.4434 -67.0898 L 44.8242 -26.709 L 13.8184 -26.709 Z"/></g><line id="Baseline-L" style="fill:none;stroke:#27AAE1;opacity:1;stroke-width:0.577;" x1="263" x2="3036" y1="1556" y2="1556"/><line id="Capline-L" style="fill:none;stroke:#27AAE1;opacity:1;stroke-width:0.577;" x1="263" x2="3036" y1="1485.54" y2="1485.54"/><rect height="119.336" id="left-margin" style="fill:darkred;stroke:none;opacity:0.4;" width="12.4512" x="1394.06" y="1030.79"/><rect height="119.336" id="right-margin" style="fill:darkgreen;stroke:none;opacity:0.4;" width="12.4512" x="1502.5112" y="1030.79"/><rect x="1406.5112" y="1045" width="96" height="96" fill="none" stroke="blue" stroke-dasharray="5"/><rect x="1394.06" y="1030.79" width="120.9024" height="119.336" fill="none" stroke="blue"/></g><g id="Symbols"><g id="Bold-L" transform="matrix(1 0 0 1 2266 1556)"><path d="M87.881 -12.494 Q91.913 -16.525 91.913 -22.249 Q91.913 -27.974 86.914 -31.199 Q72.562 -39.745 58.131 -50.065 Q43.699 -60.385 29.67 -69.899 Q39.184 -55.709 49.423 -41.277 Q59.663 -26.845 69.015 -13.139 Q71.918 -8.301 77.722 -8.221 Q83.528 -8.14 87.881 -12.494 Z M30.96 19.756 Q26.929 19.756 23.704 17.902 Q20.479 16.048 18.383 12.661 Q13.706 4.76 11.61 -4.028 Q9.514 -12.816 9.514 -22.007 Q9.514 -37.004 14.432 -48.291 Q19.35 -59.579 29.67 -69.899 Q39.506 -79.735 51.439 -84.976 Q63.371 -90.216 77.561 -90.216 Q91.59 -90.216 103.926 -84.895 Q116.261 -79.574 125.453 -70.302 Q134.644 -61.03 139.965 -48.533 Q145.286 -36.036 145.286 -22.007 Q145.286 -12.655 142.868 -3.867 Q140.449 4.921 136.095 12.661 Q134.321 16.37 130.935 18.063 Q127.549 19.756 123.679 19.756 H30.96 Z"/></g><g id="Semibold-L" transform="matrix(1 0 0 1 1970.27 1556)"><path d="M88.022 -12.284 Q92.053 -16.385 92.017 -22.214 Q91.982 -28.043 86.983 -31.199 Q72.632 -39.745 58.306 -49.925 Q43.979 -60.104 30.02 -69.618 Q39.393 -55.428 49.492 -41.067 Q59.593 -26.705 68.805 -12.929 Q71.777 -8.021 77.687 -7.94 Q83.597 -7.859 88.022 -12.284 Z M30.539 19.406 Q26.788 19.406 23.739 17.657 Q20.688 15.907 18.732 12.731 Q14.196 4.829 12.066 -3.923 Q9.935 -12.676 9.935 -21.938 Q9.864 -36.443 14.922 -47.975 Q19.98 -59.509 30.02 -69.618 Q39.647 -79.314 51.648 -84.59 Q63.652 -89.866 77.631 -89.866 Q91.59 -89.866 103.856 -84.545 Q116.121 -79.224 125.243 -69.986 Q134.363 -60.749 139.649 -48.323 Q144.936 -35.896 144.936 -21.938 Q144.936 -12.586 142.518 -3.831 Q140.099 4.921 135.814 12.731 Q134.112 16.089 130.935 17.747 Q127.758 19.406 124.169 19.406 H30.539 Z"/></g><g id="Medium-L" transform="matrix(1 0 0 1 1674.31 1556)"><path d="M88.126 -12.126 Q92.158 -16.28 92.096 -22.188 Q92.035 -28.096 87.036 -31.199 Q72.685 -39.745 58.437 -49.82 Q44.189 -59.895 30.283 -69.409 Q39.551 -55.219 49.546 -40.909 Q59.54 -26.6 68.647 -12.771 Q71.672 -7.811 77.661 -7.73 Q83.65 -7.65 88.126 -12.126 Z M30.223 19.144 Q26.684 19.144 23.765 17.473 Q20.846 15.802 18.995 12.784 Q14.566 4.883 12.408 -3.844 Q10.251 -12.571 10.251 -21.885 Q10.127 -36.022 15.291 -47.74 Q20.455 -59.456 30.283 -69.409 Q39.751 -78.998 51.806 -84.302 Q63.861 -89.603 77.684 -89.603 Q91.59 -89.603 103.803 -84.282 Q116.016 -78.961 125.085 -69.75 Q134.154 -60.54 139.414 -48.165 Q144.674 -35.791 144.674 -21.885 Q144.674 -12.532 142.255 -3.806 Q139.836 4.921 135.605 12.784 Q133.954 15.88 130.935 17.512 Q127.916 19.144 124.538 19.144 H30.223 Z"/></g><g id="Regular-L" transform="matrix(1 0 0 1 1378.56 1556)"><path d="M88.204 -12.01 Q92.235 -16.202 92.154 -22.169 Q92.074 -28.135 87.075 -31.199 Q72.724 -39.745 58.534 -49.742 Q44.344 -59.74 30.476 -69.254 Q39.668 -55.064 49.584 -40.793 Q59.501 -26.522 68.531 -12.655 Q71.595 -7.656 77.642 -7.576 Q83.689 -7.495 88.204 -12.01 Z M29.992 18.95 Q26.606 18.95 23.784 17.338 Q20.963 15.725 19.189 12.823 Q14.835 4.921 12.658 -3.786 Q10.481 -12.494 10.481 -21.846 Q10.32 -35.714 15.561 -47.566 Q20.801 -59.417 30.476 -69.254 Q39.829 -78.767 51.922 -84.089 Q64.016 -89.41 77.722 -89.41 Q91.59 -89.41 103.764 -84.089 Q115.939 -78.767 124.969 -69.576 Q133.999 -60.385 139.239 -48.049 Q144.48 -35.714 144.48 -21.846 Q144.48 -12.494 142.061 -3.786 Q139.643 4.921 135.45 12.823 Q133.838 15.725 130.935 17.338 Q128.032 18.95 124.808 18.95 H29.992 Z"/></g><g id="Light-L" transform="matrix(1 0 0 1 1082.77 1556)"><path d="M87.335 -12.94 Q90.808 -16.575 90.727 -21.89 Q90.647 -27.205 86.206 -29.896 Q72.538 -38.07 59.092 -47.912 Q45.647 -57.755 32.523 -67.02 Q41.528 -53.637 51.352 -40.142 Q61.177 -26.647 69.895 -13.585 Q72.65 -9.145 77.984 -9.064 Q83.316 -8.983 87.335 -12.94 Z M30.489 15.725 Q27.785 15.725 25.582 14.485 Q23.381 13.243 21.917 10.962 Q17.812 3.433 15.759 -4.841 Q13.706 -13.115 13.706 -22.032 Q13.545 -35.341 18.383 -46.45 Q23.22 -57.557 32.523 -67.02 Q41.504 -76.1 52.977 -81.143 Q64.45 -86.185 77.661 -86.185 Q90.845 -86.185 102.431 -81.112 Q114.017 -76.039 122.611 -67.343 Q131.208 -58.648 136.23 -46.871 Q141.255 -35.093 141.255 -21.908 Q141.255 -13.052 138.96 -4.81 Q136.666 3.433 132.722 10.713 Q131.48 13.058 129.168 14.391 Q126.854 15.725 124.311 15.725 H30.489 Z"/></g><g id="Thin-L" transform="matrix(1 0 0 1 787.282 1556)"><path d="M86.467 -13.871 Q89.382 -16.947 89.302 -21.611 Q89.221 -26.274 85.338 -28.595 Q72.351 -36.396 59.65 -46.084 Q46.948 -55.77 34.569 -64.789 Q43.389 -52.211 53.119 -39.49 Q62.85 -26.771 71.26 -14.516 Q73.704 -10.633 78.324 -10.552 Q82.944 -10.472 86.467 -13.871 Z M30.984 12.5 Q28.964 12.5 27.382 11.632 Q25.8 10.763 24.647 9.101 Q20.788 1.945 18.86 -5.895 Q16.931 -13.734 16.931 -22.219 Q16.77 -34.969 21.204 -45.332 Q25.639 -55.696 34.569 -64.789 Q43.178 -73.433 54.032 -78.197 Q64.884 -82.96 77.598 -82.96 Q90.102 -82.96 101.097 -78.135 Q112.093 -73.309 120.255 -65.111 Q128.416 -56.912 133.223 -45.692 Q138.03 -34.474 138.03 -21.97 Q138.03 -13.61 135.86 -5.833 Q133.689 1.945 129.992 8.606 Q129.124 10.391 127.4 11.445 Q125.675 12.5 123.816 12.5 H30.984 Z"/></g><g id="Ultralight-L" transform="matrix(1 0 0 1 491.205 1556)"><path d="M85.946 -14.429 Q88.526 -17.17 88.446 -21.443 Q88.365 -25.716 84.817 -27.812 Q72.24 -35.391 59.985 -44.986 Q47.73 -54.58 35.797 -63.449 Q44.505 -51.355 54.18 -39.1 Q63.855 -26.845 72.079 -15.074 Q74.336 -11.526 78.529 -11.446 Q82.721 -11.365 85.946 -14.429 Z M31.283 10.565 Q29.67 10.565 28.461 9.92 Q27.251 9.275 26.284 7.985 Q22.575 1.051 20.721 -6.527 Q18.866 -14.106 18.866 -22.33 Q18.705 -34.746 22.898 -44.663 Q27.09 -54.58 35.797 -63.449 Q44.183 -71.834 54.664 -76.429 Q65.145 -81.025 77.561 -81.025 Q89.655 -81.025 100.297 -76.349 Q110.94 -71.672 118.841 -63.771 Q126.743 -55.87 131.419 -44.986 Q136.095 -34.101 136.095 -22.007 Q136.095 -13.945 133.999 -6.447 Q131.903 1.051 128.355 7.34 Q127.71 8.791 126.339 9.678 Q124.969 10.565 123.517 10.565 H31.283 Z"/></g><g id="Bold-M" transform="matrix(1 0 0 1 2281.8 1126)"><path d="M68 -17.23 Q71.375 -20.48 71.188 -25.042 Q71 -29.605 67.25 -32.105 Q55.5 -39.73 43.875 -48.042 Q32.25 -56.355 20.625 -64.355 Q28.625 -52.73 36.875 -40.98 Q45.125 -29.23 53 -17.73 Q55.5 -13.98 60.062 -13.917 Q64.625 -13.855 68 -17.23 Z M24.75 10.52 Q20.75 10.52 17.25 8.645 Q13.75 6.77 11.75 3.27 Q8 -3.355 6.125 -10.667 Q4.25 -17.98 4.25 -25.605 Q4.25 -37.605 8.312 -46.917 Q12.375 -56.23 20.625 -64.355 Q29.125 -72.73 38.375 -76.792 Q47.625 -80.855 59.875 -80.855 Q71.5 -80.855 81.625 -76.48 Q91.75 -72.105 99.312 -64.48 Q106.875 -56.855 111.25 -46.667 Q115.625 -36.48 115.625 -24.855 Q115.625 -17.355 113.75 -10.23 Q111.875 -3.105 108 3.27 Q106.125 6.895 102.625 8.708 Q99.125 10.52 95.125 10.52 H24.75 Z"/></g><g id="Semibold-M" transform="matrix(1 0 0 1 1985.97 1126)"><path d="M68.054 -17.121 Q71.375 -20.426 71.188 -25.042 Q71 -29.659 67.25 -32.159 Q55.663 -39.784 44.174 -47.852 Q32.685 -55.92 21.223 -63.811 Q29.005 -52.295 37.011 -40.681 Q45.016 -29.067 52.782 -17.621 Q55.337 -13.817 59.981 -13.755 Q64.625 -13.692 68.054 -17.121 Z M24.479 9.759 Q20.75 9.759 17.521 8.02 Q14.294 6.281 12.456 3.053 Q8.761 -3.517 6.886 -10.749 Q5.011 -17.98 5.011 -25.551 Q5.011 -37.007 9.155 -46.482 Q13.299 -55.959 21.223 -63.811 Q29.451 -71.969 38.782 -76.059 Q48.114 -80.149 59.929 -80.149 Q71.391 -80.149 81.38 -75.801 Q91.37 -71.452 98.824 -63.936 Q106.278 -56.42 110.597 -46.341 Q114.919 -36.262 114.919 -24.801 Q114.919 -17.355 113.044 -10.311 Q111.169 -3.267 107.403 3.053 Q105.636 6.351 102.407 8.055 Q99.179 9.759 95.505 9.759 H24.479 Z"/></g><g id="Medium-M" transform="matrix(1 0 0 1 1689.91 1126)"><path d="M68.095 -17.04 Q71.375 -20.385 71.188 -25.042 Q71 -29.7 67.25 -32.2 Q55.785 -39.825 44.398 -47.71 Q33.011 -55.594 21.671 -63.404 Q29.291 -51.969 37.112 -40.457 Q44.935 -28.945 52.62 -17.54 Q55.215 -13.695 59.92 -13.632 Q64.625 -13.57 68.095 -17.04 Z M24.275 9.189 Q20.75 9.189 17.725 7.551 Q14.701 5.914 12.986 2.89 Q9.331 -3.64 7.456 -10.81 Q5.581 -17.98 5.581 -25.51 Q5.581 -36.559 9.786 -46.156 Q13.991 -55.755 21.671 -63.404 Q29.696 -71.399 39.089 -75.509 Q48.481 -79.619 59.97 -79.619 Q71.31 -79.619 81.198 -75.291 Q91.084 -70.964 98.456 -63.529 Q105.829 -56.094 110.109 -46.096 Q114.389 -36.1 114.389 -24.76 Q114.389 -17.355 112.514 -10.372 Q110.639 -3.39 106.954 2.89 Q105.269 5.944 102.245 7.566 Q99.22 9.189 95.791 9.189 H24.275 Z"/></g><g id="Regular-M" transform="matrix(1 0 0 1 1394.06 1126)"><path d="M68.125 -16.98 Q71.375 -20.355 71.188 -25.042 Q71 -29.73 67.25 -32.23 Q55.875 -39.855 44.562 -47.605 Q33.25 -55.355 22 -63.105 Q29.5 -51.73 37.188 -40.292 Q44.875 -28.855 52.5 -17.48 Q55.125 -13.605 59.875 -13.542 Q64.625 -13.48 68.125 -16.98 Z M24.125 8.77 Q20.75 8.77 17.875 7.208 Q15 5.645 13.375 2.77 Q9.75 -3.73 7.875 -10.855 Q6 -17.98 6 -25.48 Q6 -36.23 10.25 -45.917 Q14.5 -55.605 22 -63.105 Q29.875 -70.98 39.312 -75.105 Q48.75 -79.23 60 -79.23 Q71.25 -79.23 81.062 -74.917 Q90.875 -70.605 98.188 -63.23 Q105.5 -55.855 109.75 -45.917 Q114 -35.98 114 -24.73 Q114 -17.355 112.125 -10.417 Q110.25 -3.48 106.625 2.77 Q105 5.645 102.125 7.208 Q99.25 8.77 96 8.77 H24.125 Z"/></g><g id="Light-M" transform="matrix(1 0 0 1 1098.18 1126)"><path d="M67.644 -17.605 Q70.461 -20.547 70.297 -24.777 Q70.135 -29.009 66.769 -31.124 Q55.779 -38.22 45.044 -45.994 Q34.307 -53.769 23.635 -61.326 Q30.99 -50.576 38.75 -39.691 Q46.51 -28.807 53.75 -18.105 Q56.135 -14.662 60.331 -14.576 Q64.529 -14.49 67.644 -17.605 Z M24.078 6.27 Q21.375 6.27 19.078 5.02 Q16.779 3.77 15.443 1.52 Q12.057 -4.691 10.303 -11.456 Q8.549 -18.22 8.549 -25.384 Q8.5 -35.894 12.414 -44.956 Q16.328 -54.019 23.635 -61.326 Q31.174 -68.865 40.154 -72.797 Q49.135 -76.73 60 -76.73 Q70.721 -76.73 80.101 -72.61 Q89.481 -68.49 96.433 -61.475 Q103.385 -54.461 107.442 -44.956 Q111.5 -35.451 111.5 -24.73 Q111.5 -17.74 109.745 -11.139 Q107.99 -4.537 104.51 1.328 Q103.221 3.674 100.922 4.971 Q98.625 6.27 96 6.27 H24.078 Z"/></g><g id="Thin-M" transform="matrix(1 0 0 1 802.565 1126)"><path d="M67.164 -18.23 Q69.547 -20.74 69.409 -24.514 Q69.269 -28.287 66.289 -30.019 Q55.682 -36.586 45.524 -44.384 Q35.365 -52.182 25.269 -59.547 Q32.481 -49.422 40.312 -39.09 Q48.144 -28.759 55 -18.73 Q57.144 -15.72 60.789 -15.61 Q64.433 -15.499 67.164 -18.23 Z M24.029 3.77 Q22 3.77 20.279 2.833 Q18.558 1.895 17.51 0.27 Q14.365 -5.652 12.731 -12.057 Q11.096 -18.461 11.096 -25.287 Q11 -35.557 14.578 -43.995 Q18.154 -52.432 25.269 -59.547 Q32.471 -66.749 40.995 -70.49 Q49.519 -74.23 60 -74.23 Q70.192 -74.23 79.14 -70.302 Q88.086 -66.374 94.677 -59.72 Q101.269 -53.066 105.135 -43.995 Q109 -34.922 109 -24.73 Q109 -18.124 107.365 -11.86 Q105.731 -5.595 102.394 -0.115 Q101.442 1.703 99.721 2.736 Q98 3.77 96 3.77 H24.029 Z"/></g><g id="Ultralight-M" transform="matrix(1 0 0 1 506.415 1126)"><path d="M66.875 -18.605 Q69 -20.855 68.875 -24.355 Q68.75 -27.855 66 -29.355 Q55.625 -35.605 45.812 -43.417 Q36 -51.23 26.25 -58.48 Q33.375 -48.73 41.25 -38.73 Q49.125 -28.73 55.75 -19.105 Q57.75 -16.355 61.062 -16.23 Q64.375 -16.105 66.875 -18.605 Z M24 2.27 Q22.375 2.27 21 1.52 Q19.625 0.77 18.75 -0.48 Q15.75 -6.23 14.188 -12.417 Q12.625 -18.605 12.625 -25.23 Q12.5 -35.355 15.875 -43.417 Q19.25 -51.48 26.25 -58.48 Q33.25 -65.48 41.5 -69.105 Q49.75 -72.73 60 -72.73 Q69.875 -72.73 78.562 -68.917 Q87.25 -65.105 93.625 -58.667 Q100 -52.23 103.75 -43.417 Q107.5 -34.605 107.5 -24.73 Q107.5 -18.355 105.938 -12.292 Q104.375 -6.23 101.125 -0.98 Q100.375 0.52 99 1.395 Q97.625 2.27 96 2.27 H24 Z"/></g><g id="Bold-S" transform="matrix(1 0 0 1 2294.23 696)"><path d="M53.159 -22.507 Q55.526 -24.776 55.427 -28.129 Q55.329 -31.482 52.567 -33.257 Q43.494 -38.682 35.258 -44.698 Q27.023 -50.714 18.443 -56.73 Q24.459 -48.15 30.426 -39.717 Q36.393 -31.285 42.409 -23 Q44.283 -20.338 47.439 -20.19 Q50.595 -20.042 53.159 -22.507 Z M18.246 -2.289 Q15.386 -2.289 12.871 -3.719 Q10.356 -5.149 8.975 -7.714 Q6.707 -11.659 5.868 -16.294 Q5.03 -20.929 5.03 -25.663 Q4.931 -35.624 8.137 -42.972 Q11.342 -50.32 18.443 -56.73 Q24.952 -62.648 31.511 -65.36 Q38.069 -68.072 47.143 -68.072 Q56.019 -68.072 63.761 -64.768 Q71.503 -61.464 77.223 -55.695 Q82.944 -49.925 86.297 -42.183 Q89.65 -34.441 89.65 -25.663 Q89.65 -20.929 88.763 -16.294 Q87.875 -11.659 85.409 -7.714 Q84.029 -5.051 81.563 -3.67 Q79.097 -2.289 76.237 -2.289 H18.246 Z"/></g><g id="Semibold-S" transform="matrix(1 0 0 1 1998.1 696)"><path d="M53.201 -22.422 Q55.526 -24.733 55.427 -28.129 Q55.329 -31.525 52.567 -33.3 Q43.622 -38.724 35.494 -44.548 Q27.366 -50.371 18.914 -56.301 Q24.759 -47.807 30.533 -39.482 Q36.307 -31.157 42.237 -22.915 Q44.154 -20.209 47.375 -20.061 Q50.595 -19.914 53.201 -22.422 Z M18.032 -2.89 Q15.386 -2.89 13.085 -4.212 Q10.785 -5.535 9.532 -7.885 Q7.307 -11.787 6.469 -16.358 Q5.631 -20.929 5.631 -25.621 Q5.532 -35.153 8.801 -42.629 Q12.071 -50.106 18.914 -56.301 Q25.21 -62.047 31.832 -64.781 Q38.455 -67.515 47.185 -67.515 Q55.933 -67.515 63.568 -64.233 Q71.203 -60.949 76.838 -55.266 Q82.472 -49.582 85.782 -41.926 Q89.093 -34.269 89.093 -25.621 Q89.093 -20.929 88.205 -16.358 Q87.318 -11.787 84.938 -7.885 Q83.643 -5.48 81.391 -4.185 Q79.14 -2.89 76.537 -2.89 H18.032 Z"/></g><g id="Medium-S" transform="matrix(1 0 0 1 1701.85 696)"><path d="M53.234 -22.357 Q55.526 -24.701 55.427 -28.129 Q55.329 -31.557 52.567 -33.332 Q43.718 -38.757 35.671 -44.436 Q27.624 -50.113 19.268 -55.98 Q24.985 -47.549 30.613 -39.305 Q36.243 -31.06 42.109 -22.851 Q44.058 -20.113 47.326 -19.965 Q50.595 -19.817 53.234 -22.357 Z M17.871 -3.34 Q15.386 -3.34 13.245 -4.582 Q11.106 -5.825 9.95 -8.013 Q7.757 -11.883 6.919 -16.406 Q6.08 -20.929 6.08 -25.588 Q5.982 -34.799 9.299 -42.371 Q12.617 -49.945 19.268 -55.98 Q25.403 -61.597 32.074 -64.347 Q38.745 -67.097 47.218 -67.097 Q55.869 -67.097 63.424 -63.83 Q70.977 -60.564 76.548 -54.944 Q82.118 -49.324 85.396 -41.732 Q88.675 -34.141 88.675 -25.588 Q88.675 -20.929 87.787 -16.406 Q86.899 -11.883 84.584 -8.013 Q83.353 -5.801 81.263 -4.57 Q79.172 -3.34 76.763 -3.34 H17.871 Z"/></g><g id="Regular-S" transform="matrix(1 0 0 1 1405.73 696)"><path d="M53.258 -22.31 Q55.526 -24.677 55.427 -28.129 Q55.329 -31.581 52.567 -33.356 Q43.79 -38.78 35.801 -44.353 Q27.812 -49.925 19.528 -55.744 Q25.149 -47.361 30.672 -39.175 Q36.195 -30.989 42.014 -22.803 Q43.987 -20.042 47.291 -19.894 Q50.595 -19.746 53.258 -22.31 Z M17.753 -3.67 Q15.386 -3.67 13.364 -4.853 Q11.342 -6.037 10.257 -8.108 Q8.087 -11.954 7.249 -16.442 Q6.411 -20.929 6.411 -25.565 Q6.312 -34.54 9.665 -42.183 Q13.019 -49.826 19.528 -55.744 Q25.544 -61.267 32.25 -64.028 Q38.957 -66.79 47.241 -66.79 Q55.822 -66.79 63.317 -63.535 Q70.813 -60.281 76.336 -54.708 Q81.859 -49.136 85.113 -41.591 Q88.368 -34.046 88.368 -25.565 Q88.368 -20.929 87.48 -16.442 Q86.593 -11.954 84.324 -8.108 Q83.141 -6.037 81.168 -4.853 Q79.196 -3.67 76.928 -3.67 H17.753 Z"/></g><g id="Light-S" transform="matrix(1 0 0 1 1109.75 696)"><path d="M52.878 -22.803 Q54.805 -24.829 54.725 -27.92 Q54.646 -31.012 52.187 -32.483 Q43.714 -37.49 36.181 -43.082 Q28.647 -48.674 20.818 -54.341 Q26.325 -46.451 31.905 -38.701 Q37.485 -30.952 43.001 -23.296 Q44.784 -20.876 47.651 -20.709 Q50.519 -20.543 52.878 -22.803 Z M17.715 -5.642 Q15.879 -5.642 14.312 -6.579 Q12.745 -7.516 11.888 -9.094 Q9.908 -12.713 9.164 -16.916 Q8.422 -21.119 8.422 -25.489 Q8.284 -34.274 11.372 -41.425 Q14.46 -48.575 20.818 -54.341 Q26.569 -59.598 32.914 -62.208 Q39.261 -64.817 47.241 -64.817 Q55.405 -64.817 62.559 -61.715 Q69.713 -58.612 74.951 -53.324 Q80.19 -48.036 83.293 -40.833 Q86.395 -33.629 86.395 -25.565 Q86.395 -21.233 85.603 -17.011 Q84.81 -12.789 82.656 -9.246 Q81.737 -7.592 80.22 -6.618 Q78.703 -5.642 76.928 -5.642 H17.715 Z"/></g><g id="Thin-S" transform="matrix(1 0 0 1 814.015 696)"><path d="M52.499 -23.296 Q54.084 -24.981 54.024 -27.712 Q53.963 -30.443 51.809 -31.611 Q43.638 -36.201 36.559 -41.811 Q29.481 -47.422 22.107 -52.937 Q27.502 -45.54 33.138 -38.226 Q38.774 -30.913 43.987 -23.789 Q45.58 -21.71 48.012 -21.525 Q50.443 -21.339 52.499 -23.296 Z M17.677 -7.615 Q16.372 -7.615 15.26 -8.305 Q14.149 -8.996 13.52 -10.081 Q11.728 -13.471 11.081 -17.391 Q10.432 -21.309 10.432 -25.413 Q10.257 -34.009 13.08 -40.666 Q15.901 -47.323 22.107 -52.937 Q27.592 -57.929 33.578 -60.387 Q39.563 -62.845 47.241 -62.845 Q54.987 -62.845 61.8 -59.894 Q68.612 -56.942 73.566 -51.939 Q78.52 -46.936 81.472 -40.074 Q84.423 -33.212 84.423 -25.565 Q84.423 -21.536 83.725 -17.58 Q83.027 -13.623 80.986 -10.384 Q80.334 -9.148 79.272 -8.381 Q78.21 -7.615 76.928 -7.615 H17.677 Z"/></g><g id="Ultralight-S" transform="matrix(1 0 0 1 517.792 696)"><path d="M52.271 -23.592 Q53.652 -25.072 53.603 -27.587 Q53.553 -30.101 51.581 -31.088 Q43.592 -35.427 36.787 -41.049 Q29.982 -46.67 22.881 -52.095 Q28.207 -44.994 33.878 -37.942 Q39.549 -30.89 44.579 -24.085 Q46.058 -22.211 48.228 -22.014 Q50.397 -21.817 52.271 -23.592 Z M17.654 -8.798 Q16.668 -8.798 15.829 -9.341 Q14.991 -9.883 14.498 -10.672 Q12.821 -13.927 12.229 -17.675 Q11.638 -21.422 11.638 -25.367 Q11.441 -33.849 14.103 -40.211 Q16.766 -46.572 22.881 -52.095 Q28.207 -56.927 33.976 -59.294 Q39.746 -61.661 47.241 -61.661 Q54.737 -61.661 61.345 -58.801 Q67.953 -55.941 72.736 -51.109 Q77.519 -46.276 80.379 -39.619 Q83.24 -32.962 83.24 -25.565 Q83.24 -21.718 82.598 -17.921 Q81.957 -14.124 79.985 -11.067 Q79.492 -10.081 78.703 -9.44 Q77.914 -8.798 76.928 -8.798 H17.654 Z"/></g></g></svg>