<svg xmlns="http://www.w3.org/2000/svg" height="40" viewBox="0 -960 960 960" width="40"><path d="M119.97-80.64v-730.97h-40v-72.58h800.22v72.58h-40.17v731.64q-93.77 0-167.39-55.32-73.62-55.33-97.5-145.99h-191q-24.72 90.25-98.19 145.45-73.46 55.19-165.97 55.19Zm72.42-85.12q58.78-21.54 94.65-72.68 35.86-51.14 35.86-115.22v-457.95H192.39v645.85ZM395.32-353.7h169.36v-457.91H395.32v457.91Zm372.12 187.94v-645.85H637.26v458q0 64.03 35.07 115.92 35.08 51.89 95.11 71.93ZM322.9-811.61H192.39 322.9Zm444.54 0H637.26h130.18Z"/></svg>