<svg xmlns="http://www.w3.org/2000/svg" height="20" viewBox="0 -960 960 960" width="20"><path d="M134.78-86.78v-694.44h-48v-93h786.44v93h-47.5v694.44q-90.89 0-165.58-47.73-74.68-47.73-102.6-131.73H401.26q-29.78 83.44-103.88 131.45-74.1 48.01-162.6 48.01Zm93-111.42q47.22-20.77 72.87-64.01 25.65-43.25 25.65-97.03v-421.98h-98.52v583.02ZM419.3-359.24h121.4v-421.98H419.3v421.98ZM732.72-198.2v-583.02H633.7v421.98q0 53.78 25.18 97.51 25.19 43.72 73.84 63.53ZM326.3-781.22H227.78h98.52Zm406.42 0H633.7h99.02Z"/></svg>