<svg xmlns="http://www.w3.org/2000/svg" height="24" viewBox="0 -960 960 960" width="24"><path d="m124-150-66-70 110-99q-25-30-47.5-62T79-447h112q9 15 19 30t21 29q20-25 36.5-52t29.5-57H0v-95h156v-64h96v64h227v95h-79q-20 48-47 91.5T294-322q10 9 19.5 18t19.5 17l-49 89q-14-12-27-25l-27-27-106 100ZM280 0l147-367h115L689 0H587l-24-60H404L381 0H280Zm154-138h99l-49-138-50 138Zm288-464h65v-60h-65v60ZM430-722h60v-60h-60v60Zm120 0h237v-60H550v60Zm313 295H550v-175h112v-60H354v-74h-96v-128q0-40 28-68t68-28h509q40 0 68 28t28 68v341q0 40-28 68t-68 28Z"/></svg>