<svg xmlns="http://www.w3.org/2000/svg" height="20" viewBox="0 -960 960 960" width="20"><path d="m125.74-157.26-71.48-78.61 93.39-78.43q-24.56-29.13-47.41-61.48-22.85-32.35-42.55-65.48h128.47q8.06 11.74 15.64 24.32 7.59 12.59 16.1 24.33 15.86-21.08 29.93-44.3 14.08-23.22 25.52-47.83H-.48V-590.3h135.79v-61.57h107.34v62.07h213.96v106.06h-65.87q-20.7 44.44-46.98 85.59Q317.48-357 288.17-319q12.83 9.57 22.72 17.63 9.89 8.07 26.28 17.2l-57.46 98.3q-16.97-13.69-31.43-25.26-14.45-11.57-31.58-27.13l-90.96 81ZM281.78-.09l144.99-355.82h131.62L703.22-.09h-115.5l-17.68-43.56H412.52L394.83-.09H281.78Zm162.57-130.74h94.3l-46.43-130.04-47.87 130.04Zm71.48-468.87h135.3v-48h-135.3v48Zm183.3 0h48.48v-48h-48.48v48ZM442-695.7h50.83v-48H442v48Zm98.83 0h206.78v-48H540.83v48Zm-25 288v-97.56h298.65v-310.22H350.57v93.35h-97.01v-93.35q0-40.89 28.95-68.94 28.95-28.06 68.06-28.06h463.91q39.65 0 68.61 28.06 28.95 28.05 28.95 68.94v310.22q0 40.65-28.95 69.11-28.96 28.45-68.61 28.45H515.83Zm298.65-97.56v-310.22 310.22Z"/></svg>