<svg xmlns="http://www.w3.org/2000/svg" height="48" viewBox="0 -960 960 960" width="48"><path d="m117.87-215-54.52-62.52 81.61-75.35q-18.57-24.7-36.85-48.76-18.28-24.07-34.98-49.2h106.04q6.92 5.83 12.1 14.3 5.17 8.46 10.77 15.44 14.19-21.2 28.69-41.12 14.49-19.92 25.92-45.36H17.17v-83.78h128.48v-64h84.78v64H397.7v83.78h-45.57Q333-465 308.22-427.78q-24.79 37.21-51.65 72.78 14.26 13.57 25.93 23.76 11.67 10.2 26.5 21.89l-40.52 80.65q-18.83-14.13-34.57-28.32-15.74-14.2-33.87-32.33L117.87-215ZM271.44-17.74l151.69-365.13h99.18L674.44-17.74h-91.48l-27.18-65.22H386.09l-24.74 65.22h-89.91Zm140.78-135.87h117.43l-60-152.3-57.43 152.3Zm89.39-436.82h155.96v-60H501.61v60Zm220.96 0h59.6v-60h-59.6v60Zm-304.14-120h61.7v-60h-61.7v60Zm117.7 0h246.04v-60H536.13v60Zm-34.52 283.78V-512h357v-346.61H341.43v133.26h-84.78v-133.26q0-35 26.69-59.61 26.68-24.61 62.09-24.61h510.18q35.71 0 61.75 24.61 26.03 24.61 26.03 59.61V-512q0 35.56-26.03 60.45-26.04 24.9-61.75 24.9h-354Zm357-85.35v-346.61V-512Z"/></svg>