<svg xmlns="http://www.w3.org/2000/svg" height="48" viewBox="0 -960 960 960" width="48"><path d="M126.5-229 87-275l95.5-96.5q-18-21-34-43.5T119-459h76.5q7.5 9 14.25 18.5t14.25 19q20-26.5 36.5-50.25t30-52.25H45v-62.5h148V-650h62.5v63.5h145v62.5H359q-17 42-41 79.75T264.5-371q14 16.5 26.75 29.75t26.25 26.75l-24 64q-17-16-34-33.5T223-323l-96.5 94Zm160 188.5 146.5-355h66.5l148 355H582L548-126H384l-32.5 85.5h-65Zm117-138.5H527l-63-158.5L403.5-179ZM713-576.5h62.5V-639H713v62.5Zm-309.5-121H466V-760h-62.5v62.5Zm117 0h255V-760h-255v62.5Zm330 257h-345v-136h145V-639l-302-13.5V-715H264v-139.5q0-25.5 19.5-43.25t46-17.75h521q26.5 0 45.5 17.75t19 43.25v353q0 25.5-19 43.25t-45.5 17.75Z"/></svg>