<svg xmlns="http://www.w3.org/2000/svg" height="20" viewBox="0 -960 960 960" width="20"><path d="M150.89-222.31 119-258.77l109.73-108.27q-20.38-23.58-38.33-50.11-17.94-26.54-32.25-52.93h56.88q10.62 17.62 21.93 33.93 11.31 16.3 24.63 33.11 24.79-30.31 45.47-61.61 20.67-31.31 33.98-66.58H76.08v-48.73h162.14v-55.58h49.51v56.08h160.54v49.23h-55.35q-15.61 44.34-40.71 85.33-25.1 40.98-57.56 77.72 14.39 16.72 28.37 32.14 13.98 15.42 31.63 29.31l-19.47 50.84q-17.1-16.38-35.37-35.05-18.27-18.68-39.12-40.52l-109.8 108.15ZM314.34-57.73l134.8-333.62h52.9L638.11-57.73h-51.79l-33.68-86.58H399.38l-33.84 86.58h-51.2Zm100.39-128.81h122.19l-61-158.19-61.19 158.19Zm81.31-383.04h138.54v-39.73H496.04v39.73Zm184.81 0h39.73v-39.73h-39.73v39.73Zm-268.89-92.61h39.73v-39.73h-39.73v39.73Zm83.77 0h224.85v-39.73H495.73v39.73Zm.31 224.77v-39.73h291.31q3.46 0 6.15-2.31 2.69-2.31 2.69-5.39v-304.46q0-3.07-2.69-5.38t-6.15-2.31H321.19q-3.65 0-6.25 2.31-2.59 2.31-2.59 5.38v102.7h-39.73v-105.12q0-18.58 14-31.79t33.26-13.21h468.77q19.27 0 33.27 13.21 14 13.21 14 31.79v309.31q0 18.57-14 31.79-14 13.21-33.27 13.21H496.04Zm300.15-39.73V-797-477.15Z"/></svg>