<svg xmlns="http://www.w3.org/2000/svg" height="48" viewBox="0 -960 960 960" width="48"><path d="M136.69-248.81 105.66-285l94.53-94.19q-18.19-21.39-34.28-44.18-16.1-22.78-30.18-45.25h60.92q9.04 12.08 17.91 24.85 8.86 12.77 18.29 24.39 22.3-28.24 41.21-55.06 18.9-26.83 32.21-59.18H63.08v-49.23h145.88v-58.69h49.23v58.69H408v49.23h-46.88q-16.62 43.16-41.7 81.38-25.08 38.23-54.92 73.53 14.38 17.09 27.62 30.44 13.23 13.35 27.5 27.23l-19.06 50.35q-17.52-16.39-33.85-32.93-16.32-16.54-34.67-37.27l-95.35 92.08ZM287.65-49.73l144.39-352.12h51.5L629.42-49.73h-52.23l-35.54-89.73H374.19L339-49.73h-51.35Zm102.39-131.96H524.5l-68.19-171.39-66.27 171.39Zm103.34-395.39h156.35v-49.23H493.38v49.23Zm220.58 0h49.23v-49.23h-49.23v49.23ZM406-692.69h49.23v-49.23H406v49.23Zm103.92 0h253.27v-49.23H509.92v49.23Zm-16.54 247.77v-49.23h343.23q5.08 0 8.08-2.31t3-5.39v-338.46q0-3.07-3-5.38t-8.08-2.31H333.58q-5.27 0-8.48 2.31-3.22 2.31-3.22 5.38v140.7h-49.23v-141.62q0-23.58 17.68-39.79 17.67-16.21 42.44-16.21h504.65q24.77 0 42.14 16.21 17.36 16.21 17.36 39.79v340.31q0 23.57-17.36 39.79-17.37 16.21-42.14 16.21H493.38Zm354.31-49.23V-848-494.15Z"/></svg>