<svg xmlns="http://www.w3.org/2000/svg" height="24" viewBox="0 -960 960 960" width="24"><path d="m139.62-178.85-33.77-33.92 135.3-132.54q-24.92-29.31-45.38-60.23-20.46-30.92-37.08-64.46h49.62q13.61 25.08 29.46 48.35 15.84 23.26 35.31 45.11 30.84-34.85 54.84-73.31 24-38.46 38.62-81.69H60v-47.69h189.62v-56.15h47.69v56.15h201.46v47.69h-85.62q-16.61 51.69-43.92 97.81-27.31 46.11-64 87.81 14.38 17 35 37 20.61 19.99 35.77 34.38l-18.39 48.31q-17.77-16.39-41.92-40.04-24.15-23.66-43-44.5L139.62-178.85ZM343.08-49.23l136.15-355.39h51.15L666.92-49.23h-50.08l-34.92-94.31H428.07l-34.69 94.31h-50.3Zm100.53-135.92h122.77l-61.69-166.24-61.08 166.24Zm274.47-394.08h47.69v-47.69h-47.69v47.69Zm-301.16-115h47.69v-47.69h-47.69v47.69Zm106.16 0h242.69v-47.69H523.08v47.69Zm320.38 249.61H559.61v-134.61h96.16v-47.69H342.69v-63.46h-60v-154.23q0-23.08 16.04-39.23Q314.77-900 339.23-900h504.23q24.46 0 40.5 16.16Q900-867.69 900-844.61V-500q0 23.08-16.04 39.23t-40.5 16.15Z"/></svg>