<svg xmlns="http://www.w3.org/2000/svg" height="20" viewBox="0 -960 960 960" width="20"><path d="m153-282-39-48 57-44q-16-21-34-44.5T102-465h83.38q7.62 9 13.62 18.5 6 9.5 12.21 20.5Q227-447 243-469t27-48H60v-60h95.22v-51H217v51.5h167v60.5h-40q-18 39-43.5 73.5T250-376q11 9 10 10t15 10l-36.42 54Q223-315 222.5-316q-.5-1-13.5-13l-56 47Zm65 250 144.6-341H439L585-32h-68.67l-27.77-62H312l-28.65 62H218Zm114-112h137l-67-171-70 171Zm361-452h21v-16h-21v16Zm-259-83h16v-16h-16v16Zm60 0h220v-16H494v16Zm282 248H421v-165h218v-16H309v-71h-36v-97q0-30 22.5-51t52.5-21h428q30 0 52.5 21t22.5 51v277q0 30-22.5 51T776-431Z"/></svg>