<svg xmlns="http://www.w3.org/2000/svg" height="20" viewBox="0 -960 960 960" width="20"><path d="m158.77-262.11-22.27-27.43 96.46-94.04q-18.27-21.65-35.15-45.98-16.89-24.32-31-48.59h44.38q10.62 17.23 21.73 33.34 11.12 16.12 24.06 32.73 24.79-30.11 46.14-61.23 21.34-31.11 34.46-67.15H94.15v-35.46h146.57v-51.16h36.24v51.66h149.58v35.96h-49.19q-15.23 43.19-40.43 82.15-25.19 38.96-56.11 73.96 14.77 16.93 26.73 30.52 11.96 13.6 30.77 27.87l-14.53 37.19q-17.63-16.77-32.91-32.36-15.29-15.6-34.99-36.29l-97.11 94.31ZM298.19-66.96l134.99-330.73h37.9L607.73-66.96h-38.9l-35.61-89.66H372.27l-36.54 89.66h-37.54Zm85.77-121.12h137.39l-68.5-173.38-68.89 173.38Zm81.12-382.07h167.57v-26.47H465.08v26.47Zm217.11 0h26.46v-26.47h-26.46v26.47Zm-269.27-87.23h26.46v-26.47h-26.46v26.47Zm69.54 0h226.19v-26.47H482.46v26.47Zm-17.38 215.53v-26.46h308.61q6.93 0 12.31-4.61 5.38-4.62 5.38-10.77v-292.93q0-6.15-5.38-10.76-5.38-4.62-12.31-4.62H323.88q-7.3 0-12.5 4.62-5.19 4.61-5.19 10.76v105.39h-26.46v-107.23q0-16.66 12.75-28.33 12.75-11.67 30.29-11.67h452.04q17.54 0 30.29 11.67t12.75 28.33v296.61q0 16.66-12.75 28.33-12.75 11.67-30.29 11.67H465.08Zm326.3-26.46V-792v323.69Z"/></svg>