<svg xmlns="http://www.w3.org/2000/svg" height="24" viewBox="0 -960 960 960" width="24"><path d="m143.23-247.69-47.54-53.85 74.62-62.08q-18.85-24.61-38.27-50.46-19.42-25.84-37.66-52.92h91.24q8.23 11.15 15.92 22.69 7.69 11.54 15.61 23.23 17.7-22.69 34.2-46.61 16.5-23.93 28.73-52.39H40v-70.38h115.23v-56.31h71.39v56.31h193.92v70.38h-58.23q-19.23 43.39-45.85 81.12-26.61 37.73-54 73.11 10.77 9 14.5 13 3.73 4 16.04 12.77l-39.77 63.62q-15.54-12.77-20.85-18.08-5.3-5.31-17-17l-72.15 63.85Zm92.92 229.23 149.31-357.77h87.31L622.85-18.46h-78.16l-27.84-64.62h-176.7l-28.38 64.62h-75.62Zm127.08-121.85h130.54l-64.39-166.46-66.15 166.46Zm354.92-460.15h40.39v-35.39h-40.39v35.39Zm-294.3-110h35.38v-35.39h-35.38v35.39Zm92.3 0h242.39v-35.39H516.15v35.39Zm313.77 274.23H469.23v-164.23h184.31v-35.39H319.38v-80.92h-56v-116.46q0-36.15 26.08-61.46 26.08-25.31 63-25.31h477.46q36.93 0 63 25.31Q919-869.38 919-833.23V-523q0 36.15-26.08 61.46-26.07 25.31-63 25.31Z"/></svg>