<svg xmlns="http://www.w3.org/2000/svg" height="40" viewBox="0 -960 960 960" width="40"><path d="m149.67-285.67-33.34-39.66L185-385q-16.33-22.33-33.83-45T117-476.33h69.67Q196-465.67 204-453.5q8 12.17 15.67 23.17 18.33-24 36.83-48.67t29.83-55.33h-221v-51h111v-53.34h52v53.34h170v51H349q-17.67 42-44.17 78.33t-53.16 69.67Q264-374 269.33-368.5q5.34 5.5 19 15.83L260-306q-17.33-13.67-23.33-20t-19-20l-68 60.33ZM239-37.33l148-353h61.67l149 353H540l-32.33-76H327l-32.67 76H239Zm105.67-118.34H490l-72.33-181.66-73 181.66Zm371.66-437H748v-28h-31.67v28Zm-299-107h28v-28h-28v28Zm83.34 0H748v-28H500.67v28Zm318 256h-371v-149h202v-28H310.33V-699h-38.66v-123.67q0-29.66 22.16-50.83 22.17-21.17 53.5-21.17h471.34q31.33 0 53.5 21.17 22.16 21.17 22.16 50.83v307q0 30.34-22.16 51.17-22.17 20.83-53.5 20.83Z"/></svg>