<svg xmlns="http://www.w3.org/2000/svg" height="24" viewBox="0 -960 960 960" width="24"><path d="m121.74-152.26-74.48-79.61 100.39-85.43q-25.56-31.13-48.91-63.98-23.35-32.85-44.05-67.98h130.09q8.44 12.74 17.02 26.32 8.59 13.59 17.9 25.33 17.06-22.08 31.63-46.3 14.58-24.22 27.02-50.83H-8.48V-603.3h143.57v-64.57h109.56v64.57h230.96v108.56h-77.87q-21.7 47.44-48.98 90.09Q321.48-362 291.17-322q12.83 9.57 25.72 19.13 12.89 9.57 26.28 18.7l-58.04 100.3q-17.39-13.69-34.35-27.26-16.95-13.57-32.08-28.13l-96.96 87ZM286.78 7.91l150.39-369.82h134.22L721.22 7.91H603.39l-18.91-47.56H421.52L402.48 7.91h-115.7Zm167.57-135.74h97.3l-48.43-134.04-48.87 134.04Zm85.48-475.87h123.3v-60h-123.3v60Zm183.3 0h60.48v-60h-60.48v60ZM430-723.7h62.83v-60H430v60Zm122.83 0h230.78v-60H552.83v60Zm-13 308v-109.56h318.65v-334.22H354.57v109.35H245.56v-109.35q0-45.89 31.95-77.44 31.95-31.56 77.06-31.56h503.91q45.65 0 77.61 31.56 31.95 31.55 31.95 77.44v334.22q0 45.65-31.95 77.61-31.96 31.95-77.61 31.95H539.83Zm318.65-109.56v-334.22 334.22Z"/></svg>