<svg xmlns="http://www.w3.org/2000/svg" height="48" viewBox="0 -960 960 960" width="48"><path d="m118.52-215-51.91-59.91 83.56-78.61q-18.24-23.72-36.35-47.46-18.12-23.74-33.84-48.22H180.8q7 6.53 12.38 15.03 5.39 8.5 11.15 16.02 15.28-22.28 30.04-42.81 14.76-20.52 26.52-46.28H18.8v-79.87h131.09v-64h80.87v64h165.96v79.87h-45.24Q333-465 308.38-427.62T256.24-355q12.96 13.24 22.51 22.46 9.55 9.21 22.75 19.93l-37.91 77.39q-17.2-13.48-30.49-26.69-13.3-13.22-30.77-30.7L118.52-215ZM264.26-19.04l150.72-364.48h93.3L659.76-19.04h-86.59l-28.8-69.13H375.65l-26.04 69.13h-85.35Zm136.87-136.53h117.76l-60-153.28-57.76 153.28Zm321.11-435.19h61.56v-60h-61.56v60Zm-303.48-120h60.72v-60h-60.72v60Zm116.72 0H783.8v-60H535.48v60Zm322.09 279.87h-354v-159.87h153.67v-60H351.28v-70.35h-90.39v-139.46q0-32.95 25.46-56.79 25.45-23.84 59.41-23.84h511.81q34.19 0 59.03 23.84 24.83 23.84 24.83 56.79V-512q0 34.2-24.83 57.65-24.84 23.46-59.03 23.46Z"/></svg>