<svg xmlns="http://www.w3.org/2000/svg" height="24" viewBox="0 -960 960 960" width="24"><path d="m154.77-257.11-25.27-28.43 103.46-101.04q-19.27-23.65-36.65-48.48-17.39-24.82-32.5-51.09h46q11 18.23 23.11 35.34 12.12 17.12 25.85 33.73 26-31.11 47.85-63.23 21.84-32.11 35.96-70.15H86.15v-38.46H240.5v-54.16h38.46v54.16h166.58v38.46h-61.19q-16.23 46.19-42.43 86.65-26.19 40.46-58.11 77.46 14.77 16.93 29.73 32.02 14.96 15.1 30.77 29.37l-15.11 39.19q-18.05-16.77-35.83-34.36-17.79-17.6-35.49-37.29L154.77-257.11ZM303.19-58.96l140.39-344.73h40.5L625.73-58.96H584.5l-36.85-93.66H381.27l-37.89 93.66h-40.19Zm90.77-126.12h140.39l-70.5-177.38-69.89 177.38Zm95.12-389.07h155.57v-38.47H489.08v38.47Zm217.11 0h38.46v-38.47h-38.46v38.47ZM400.92-685.38h38.46v-38.47h-38.46v38.47Zm93.54 0h250.19v-38.47H494.46v38.47Zm-5.38 235.53v-38.46h328.61q6.93 0 12.31-4.61 5.38-4.62 5.38-10.77v-316.93q0-6.15-5.38-10.76-5.38-4.62-12.31-4.62H327.88q-7.3 0-12.5 4.62-5.19 4.61-5.19 10.76v121.39h-38.46v-123.23q0-21.66 15.75-36.83 15.75-15.17 39.29-15.17h492.04q23.54 0 39.29 15.17t15.75 36.83v320.61q0 21.66-15.75 36.83-15.75 15.17-39.29 15.17H489.08Zm346.3-38.46V-836v347.69Z"/></svg>