<svg xmlns="http://www.w3.org/2000/svg" height="24" viewBox="0 -960 960 960" width="24"><path d="M137.09-181.33 85.65-236.2l119.72-116.1q-23.26-27.5-43.36-56.87-20.1-29.37-36.31-59.87H212q9.8 16.37 20.75 31.71 10.95 15.35 23.29 30.2 23.13-28.63 41.6-58.14 18.47-29.51 32.49-62.43H40.43v-75.76h172.35v-63.95h76v63.95h191.61v75.76h-70.63q-17.96 47.31-44.08 90.73-26.11 43.43-59.44 83.21 14.72 15.78 33.12 32.74 18.4 16.95 32.62 29.98l-32.65 75.34q-17.96-16-41.11-37.83-23.16-21.84-42.92-43.12L137.09-181.33ZM325.93-31.17l143.11-352.9h86.05l143.37 352.9h-79.44l-29.65-77.7H434.54l-29.39 77.7h-79.22ZM457.41-171H565.5l-54.54-143.17L457.41-171Zm81.87-406.07h109.94v-65H539.28v65Zm164.94 0h63.8v-65h-63.8v65Zm-303.79-122h66.2v-65h-66.2v65Zm123.2 0h244.39v-65H523.63v65Zm15.65 264.77v-76h304.29v-334.27H324.89v103.33h-76v-106.33q0-30.28 21.48-51.64t53.02-21.36h521.68q31.54 0 53.02 21.36 21.48 21.36 21.48 51.64v340.27q0 30.28-21.48 51.64t-53.02 21.36H539.28Zm304.29-76v-334.27 334.27Z"/></svg>