<svg xmlns="http://www.w3.org/2000/svg" height="40" viewBox="0 -960 960 960" width="40"><path d="m124-225.17-65.5-75.16 71.33-60.84Q111-385 92-409.92q-19-24.91-36.17-49.41h128q4.34 2.66 7.74 7.43 3.4 4.76 5.76 9.23 11.34-17.5 22.34-33.66 11-16.17 22.83-35.67H13.33v-100.33h114.84V-679H229.5v66.67H400V-512h-42.17q-20.33 40.5-45.51 76.66-25.19 36.16-50.15 71.01 16.33 13.5 29 22.41 12.66 8.92 28.5 21.09l-51 95.16q-20.34-15.33-37.42-28.25-17.08-12.91-35.75-32.25l-71.5 61Zm145.5 217 155.33-361.5H547L702.5-8.17H593.17L570.83-60h-173l-21.5 51.83H269.5ZM427.5-142h112.33l-57.16-141.33L427.5-142Zm52.17-447.67h172.5V-653h-172.5v63.33Zm232.5 0h59.66V-653h-59.66v63.33ZM407.33-711h67v-63.33h-67V-711Zm122.34 0h242.16v-63.33H529.67V-711Zm-50 293.67v-102h365.66V-846h-511.5v87h-102v-89q0-41.5 30.51-70.42 30.5-28.91 72.99-28.91H844.5q42.2 0 72.18 28.91 29.99 28.92 29.99 70.42v330.67q0 42.44-29.99 71.22-29.98 28.78-72.18 28.78H479.67Zm365.66-102V-846v326.67Z"/></svg>