<svg xmlns="http://www.w3.org/2000/svg" height="40" viewBox="0 -960 960 960" width="40"><path d="m129.07-215.02-46.98-53.1 98.47-96.34q-19.6-23.33-37.2-48.12-17.61-24.79-32.49-49.29h87.42q7.63 10.02 15.04 20.42 7.41 10.4 15.45 20.59 19.45-25.61 35.65-49.77 16.2-24.15 29.55-52.53H38.7v-72.18h149.57v-64.13h72.42v64.13h162.13v72.18h-49.77q-17.8 43.29-42.6 82.37-24.8 39.08-54.59 75.7 14.56 15.78 28.87 29.39 14.32 13.61 28.38 26.79l-30.71 72.08q-17.8-15.84-36.53-33.83t-38.16-39.09l-98.64 94.73ZM294.86-32.77l146.97-355.41h80.82L670.54-32.77h-76.36l-30.96-77.95H400.37L370.5-32.77h-75.64Zm127.57-138.14h117.4l-59.7-151.48-57.7 151.48Zm88.43-407.85h139.53v-63.33H510.86v63.33Zm199.53 0h62.46v-63.33h-62.46v63.33ZM403.28-700.09h64.21v-63.34h-64.21v63.34Zm119.54 0h250.03v-63.34H522.82v63.34Zm-11.96 265v-72.58h338.02v-341.88H327.24v120.22h-72.58v-122.22q0-29.33 21.81-49.87 21.82-20.55 52.27-20.55h519.31q30.38 0 51.82 20.55 21.43 20.54 21.43 49.87v345.88q0 29.56-21.43 50.07-21.44 20.51-51.82 20.51H510.86Zm338.02-72.58v-341.88 341.88Z"/></svg>