<svg xmlns="http://www.w3.org/2000/svg" height="48" viewBox="0 -960 960 960" width="48"><path d="M120.5-241 59-313l63.5-54.5q-17-22-34.5-44.5t-34-44h124.5q3.5 0 5.75 3t2.75 5.5q10-16.5 20.5-30.75t22-32.75H15v-95.5h107V-673h96.5v66.5h155v95.5H341q-20 39-44.5 73.25t-48 67.75q16 13.5 26.75 21.25t26.25 20.25l-48 91q-20-15-35-26.5T185-295l-64.5 54Zm136 229.5 156.5-362h115.5l157 362H581L557-66H381l-22.5 54.5h-102Zm153-133.5H527l-60-146.5L409.5-145ZM715-589.5h59.5V-652H715v62.5Zm-306.5-121H474V-773h-65.5v62.5Zm120 0h246V-773h-246v62.5Zm318 291h-378v-170h184V-652l-311-13.5V-750H237v-100.5q0-39.5 30-67.25t70.5-27.75h509q40.5 0 69.5 27.75t29 67.25v335q0 40.5-29 68.25t-69.5 27.75Z"/></svg>