<svg xmlns="http://www.w3.org/2000/svg" height="40" viewBox="0 -960 960 960" width="40"><path d="M444.99-445.74h70.51v-143.33h-70.51v143.33ZM201.27-184.03v-72.42h155.29v72.42H201.27Zm401.5 0v-72.42h155.79v72.42H602.77ZM278.98-445.74q30.58 0 51.29-20.82 20.71-20.83 20.71-50.42 0-29.75-20.71-50.92t-50.71-21.17q-30.07 0-50.99 20.99-20.93 21-20.93 50.67t20.8 50.67q20.8 21 50.54 21Zm401.1.5q30.43 0 51.35-21.09 20.92-21.1 20.92-50.72 0-29.78-20.84-50.98-20.83-21.21-50.83-21.21-30.16 0-51.24 21.01-21.09 21.02-21.09 50.72t21.01 50.99q21.02 21.28 50.72 21.28ZM79.97-314.45v-409.72h800.22v409.72H79.97Zm72.42-72.58h655.22v-264.56H152.39v264.56ZM480-519.31Z"/></svg>