<svg xmlns="http://www.w3.org/2000/svg" height="40" viewBox="0 -960 960 960" width="40"><path d="M463.08-460.82h33.84v-109.54h-33.84v109.54ZM231.74-240v-33.85h123.9V-240h-123.9Zm372.47 0v-33.85H728.1V-240H604.21ZM288.65-460.82q23.73 0 39.59-15.54 15.86-15.55 15.86-38.71t-15.86-38.84q-15.86-15.68-38.87-15.68-23.02 0-39.17 15.69-16.15 15.69-16.15 38.17 0 23.55 16.04 39.23 16.04 15.68 38.56 15.68Zm382.13.77q23.28 0 39.53-16.07t16.25-39.09q0-23.02-16.22-39.08-16.22-16.07-39.47-16.07t-39.58 15.93q-16.32 15.93-16.32 38.95 0 23.02 16.4 39.22 16.39 16.21 39.41 16.21ZM120-351.18V-680h720v328.82H120Z"/></svg>