<svg xmlns="http://www.w3.org/2000/svg" height="48" viewBox="0 -960 960 960" width="48"><path d="M442.8-446.33h75.63v-152.45H442.8v152.45ZM189.33-158.76v-77.31h162.69v77.31H189.33Zm418.89 0v-77.31h162.45v77.31H608.22ZM274.9-446.33q32.38 0 54.78-22.17 22.41-22.17 22.41-53.31 0-31.65-22.18-54.31-22.18-22.66-54.04-22.66-32.91 0-54.7 22.24-21.78 22.25-21.78 53.95 0 31.7 21.8 53.98 21.81 22.28 53.71 22.28Zm408.85 0q32.89 0 54.88-22.17 21.98-22.17 21.98-53.31 0-31.65-22.09-54.31-22.09-22.66-53.83-22.66-31.97 0-54.26 22.24-22.28 22.25-22.28 53.95 0 31.7 22.13 53.98 22.12 22.28 53.47 22.28ZM62.8-302.07v-444.8h834.63v444.8H62.8Z"/></svg>