<svg xmlns="http://www.w3.org/2000/svg" height="24" viewBox="0 -960 960 960" width="24"><path d="M452.12-449.77h55.96v-132.04h-55.96v132.04ZM221.54-228.08v-55.96H360.5v55.96H221.54Zm377.65 0v-55.96h139.46v55.96H599.19ZM288.52-449.77q28.06 0 47.13-19.17 19.08-19.17 19.08-46.52 0-27.43-19.08-46.7-19.07-19.26-46.69-19.26-27.61 0-46.94 19.27t-19.33 46.33q0 27.59 19.29 46.82 19.3 19.23 46.54 19.23Zm382.56.88q27.57 0 47.34-19.57 19.77-19.58 19.77-47.08 0-27.49-19.64-47.03-19.65-19.54-47.39-19.54-27.74 0-47.16 19.5-19.42 19.51-19.42 47.01 0 27.49 19.53 47.1 19.54 19.61 46.97 19.61Zm-563 109.43v-352.46h743.84v352.46H108.08Zm55.96-55.96h631.92v-240.54H164.04v240.54ZM480-515.69Z"/></svg>