<svg xmlns="http://www.w3.org/2000/svg" height="40" viewBox="0 -960 960 960" width="40"><path d="M432-433.67h96.67v-148H432v148ZM177.33-105.33V-210h198v104.67h-198Zm407.34 0V-210h198v104.67h-198ZM278-433.67q31.33 0 52.67-21.69Q352-477.06 352-507.53q0-31.14-21.33-52.64-21.34-21.5-52.34-21.5-31.33 0-52.83 21.37-21.5 21.36-21.5 52.16 0 30.81 21.4 52.64 21.41 21.83 52.6 21.83Zm403.67 0q31.33 0 52.83-21.69 21.5-21.7 21.5-52.17 0-31.14-21.5-52.64t-52.17-21.5q-31.33 0-52.83 21.37-21.5 21.36-21.5 52.16 0 30.81 21.4 52.64 21.41 21.83 52.27 21.83ZM52-267.33v-498h856.67v498H52Z"/></svg>