<svg xmlns="http://www.w3.org/2000/svg" height="48" viewBox="0 -960 960 960" width="48"><path d="M444.15-445.65h72.76v-138.5h-72.76v138.5Zm-249.59 288.7v-76.72H358.5v76.72H194.56Zm406.5 0v-76.72H765.5v76.72H601.06Zm-324.18-288.7q29.75 0 49.75-20.01t20-48.62q0-29.19-20-49.53t-49-20.34q-29.56 0-49.53 20.1-19.97 20.09-19.97 49 0 28.9 19.8 49.15 19.79 20.25 48.95 20.25Zm405.09.5q29.96 0 49.96-20.33t20-48.88q0-29.12-19.91-49.46-19.92-20.33-49-20.33-29.65 0-49.87 20.05t-20.22 48.88q0 28.83 20.08 49.45 20.08 20.62 48.96 20.62ZM70.87-300.17v-438.01H889.7v438.01H70.87Z"/></svg>