<svg xmlns="http://www.w3.org/2000/svg" height="24" viewBox="0 -960 960 960" width="24"><path d="M438.2-437.43h83.6v-153h-83.6v153ZM200.33-182.74v-86h167.34v86H200.33Zm391.5 0v-86h167.84v86H591.83ZM284.48-437.43q32.24 0 54.37-22.46 22.13-22.47 22.13-54 0-31.54-22.13-54.04t-54.12-22.5q-31.75 0-54.25 22.46t-22.5 54q0 31.54 22.47 54.04t54.03 22.5Zm390.86.5q31.68 0 54.43-22.62t22.75-54.38q0-31.77-22.67-54.39-22.66-22.61-54.5-22.61-31.83 0-54.33 22.61-22.5 22.62-22.5 54.39 0 31.76 22.57 54.38 22.56 22.62 54.25 22.62ZM81.87-309.74v-413.17h796.26v413.17H81.87Zm86-86h624.26v-241.17H167.87v241.17ZM480-516.33Z"/></svg>