<svg xmlns="http://www.w3.org/2000/svg" height="20" viewBox="0 -960 960 960" width="20"><path d="M428.61-420.37h102.78v-169.46H428.61v169.46Zm-217.2 307.54V-218H394.7v105.17H211.41Zm354.89 0V-218h183.05v105.17H566.3ZM301.9-420.37q35.62 0 60.4-24.88 24.79-24.87 24.79-59.81 0-35.2-24.86-59.98-24.85-24.79-60.15-24.79-35.88 0-60.29 24.87-24.4 24.86-24.4 59.94 0 35.09 24.57 59.87 24.56 24.78 59.94 24.78Zm356.02 0q35.48 0 60.47-24.88 24.98-24.87 24.98-59.81 0-35.2-25.09-59.98-25.09-24.79-60.33-24.79-35.23 0-59.63 24.87-24.41 24.86-24.41 59.94 0 35.09 24.68 59.87 24.68 24.78 59.33 24.78ZM60.65-266v-482.98h838.7V-266H60.65Zm105.18-105.17h628.34V-643.8H165.83v272.63ZM480-507.37Z"/></svg>