<svg xmlns="http://www.w3.org/2000/svg" height="48" viewBox="0 -960 960 960" width="48"><path d="M439-441h84v-138h-84v138ZM184-123v-91h184v91H184Zm409 0v-91h183v91H593ZM275.51-441q29.49 0 49.99-19.94 20.5-19.94 20.5-47.94Q346-539 325.88-559q-20.13-20-49.1-20-30.78 0-50.28 19.58-19.5 19.59-19.5 49Q207-481 226.37-461q19.36 20 49.14 20Zm407.71 0q30.38 0 50.08-19.94t19.7-47.94Q753-539 733.12-559q-19.87-20-48.5-20Q655-579 635-559.42q-20 19.59-20 49Q615-481 634.69-461q19.68 20 48.53 20ZM59-280v-476h843v476H59Zm91-92h660v-292H150v292Zm330-145Z"/></svg>