<svg xmlns="http://www.w3.org/2000/svg" height="24" viewBox="0 -960 960 960" width="24"><path d="M427-431h106v-190H427v190ZM175-139v-106h189v106H175Zm422 0v-106h189v106H597ZM281.5-431q39.5 0 67.5-27.87 28-27.86 28-67Q377-565 349.09-593q-27.9-28-67.09-28-40 0-67.5 27.87-27.5 27.86-27.5 67Q187-487 214.5-459q27.5 28 67 28Zm396.5 0q39.6 0 67.8-27.87 28.2-27.86 28.2-67Q774-565 745.92-593q-28.07-28-67.5-28-39.42 0-66.92 27.87-27.5 27.86-27.5 67Q584-487 611.61-459q27.61 28 66.39 28ZM48-285v-482h864v482H48Z"/></svg>