<svg xmlns="http://www.w3.org/2000/svg" height="48" viewBox="0 -960 960 960" width="48"><path d="M451.5-453H509v-138.5h-57.5V-453ZM207-205v-57.5h138.5v57.5H207Zm406.5 0v-57.5h139v57.5h-139ZM275.75-453q29.75 0 49.75-20.01 20-20 20-48.62 0-28.62-20-49.25-20-20.62-49-20.62t-49.25 20.38q-20.25 20.38-20.25 49t20.08 48.87Q247.16-453 275.75-453Zm407.06.5q29.69 0 49.69-20.33 20-20.33 20-48.88 0-28.55-19.92-49.17t-49-20.62q-29.08 0-49.58 20.33t-20.5 48.88q0 28.55 20.36 49.17t48.95 20.62ZM85-329v-386h790v386H85Zm57.5-57.5h675v-271h-675v271ZM480-522Z"/></svg>