<svg xmlns="http://www.w3.org/2000/svg" height="40" viewBox="0 -960 960 960" width="40"><path d="M440.21-441.07h80.29V-584.4h-80.29v143.33ZM193.22-153.16v-84.81h171.6v84.81h-171.6Zm401.5 0v-84.81h172.1v84.81h-172.1ZM279.63-441.07q30.69 0 51.34-20.82 20.66-20.82 20.66-50.42 0-29.97-20.66-51.03-20.65-21.06-50.76-21.06-30.29 0-51.1 20.89-20.81 20.88-20.81 50.66 0 29.78 20.68 50.78 20.69 21 50.65 21Zm399.91.5q30.54 0 51.46-21.09 20.91-21.09 20.91-50.71 0-30-20.83-51.1-20.84-21.09-50.84-21.09-30.37 0-51.35 20.9-20.98 20.91-20.98 50.71 0 29.81 20.91 51.1 20.91 21.28 50.72 21.28Zm-608.7 144.6v-442.99h818.7v442.99H70.84Z"/></svg>