<svg xmlns="http://www.w3.org/2000/svg" version="1.1" width="3300" height="2000"><g id="Notes"><style>
    text {
      font-family: monospace;
      text-anchor: middle;
    }
    text.emphasis {
      font-weight:bold;
    }
    text.lanchor {
      text-anchor: start;
    }
  </style><rect height="2200" id="artboard" fill="white" width="3300" x="0" y="0"/><line id="" style="fill:none;stroke:black;stroke-width:0.5;" x1="263" x2="3036" y1="292" y2="292"/><text class="lanchor emphasis" transform="matrix(1 0 0 1 263 322)">Weight/Scale Variations</text><text transform="matrix(1 0 0 1 559.711 322)">Ultralight</text><text transform="matrix(1 0 0 1 856.422 322)">Thin</text><text transform="matrix(1 0 0 1 1153.13 322)">Light</text><text transform="matrix(1 0 0 1 1449.84 322)">Regular</text><text transform="matrix(1 0 0 1 1746.56 322)">Medium</text><text transform="matrix(1 0 0 1 2043.27 322)">Semibold</text><text transform="matrix(1 0 0 1 2339.98 322)">Bold</text><text transform="matrix(1 0 0 1 2636.69 322)">Heavy</text><text transform="matrix(1 0 0 1 2933.4 322)">Black</text><text id="template-version" style="text-anchor: end;" transform="matrix(1 0 0 1 3036 1933)">Template v.1.0</text><text class="lanchor" transform="matrix(1 0 0 1 263 726)">Small</text><text class="lanchor" transform="matrix(1 0 0 1 263 1156)">Medium</text><text class="lanchor" transform="matrix(1 0 0 1 263 1586)">Large</text></g><g id="Guides"><g id="H-reference" style="fill:#27AAE1;stroke:none;" transform="matrix(1 0 0 1 339 696)"><path d="M 54.9316 0 L 57.666 0 L 30.5664 -70.459 L 28.0762 -70.459 L 0.976562 0 L 3.66211 0 L 12.9395 -24.4629 L 45.7031 -24.4629 Z M 29.1992 -67.0898 L 29.4434 -67.0898 L 44.8242 -26.709 L 13.8184 -26.709 Z"/></g><line id="Baseline-S" style="fill:none;stroke:#27AAE1;opacity:1;stroke-width:0.577;" x1="263" x2="3036" y1="696" y2="696"/><line id="Capline-S" style="fill:none;stroke:#27AAE1;opacity:1;stroke-width:0.577;" x1="263" x2="3036" y1="625.541" y2="625.541"/><g id="H-reference" style="fill:#27AAE1;stroke:none;" transform="matrix(1 0 0 1 339 1126)"><path d="M 54.9316 0 L 57.666 0 L 30.5664 -70.459 L 28.0762 -70.459 L 0.976562 0 L 3.66211 0 L 12.9395 -24.4629 L 45.7031 -24.4629 Z M 29.1992 -67.0898 L 29.4434 -67.0898 L 44.8242 -26.709 L 13.8184 -26.709 Z"/></g><line id="Baseline-M" style="fill:none;stroke:#27AAE1;opacity:1;stroke-width:0.577;" x1="263" x2="3036" y1="1126" y2="1126"/><line id="Capline-M" style="fill:none;stroke:#27AAE1;opacity:1;stroke-width:0.577;" x1="263" x2="3036" y1="1055.54" y2="1055.54"/><g id="H-reference" style="fill:#27AAE1;stroke:none;" transform="matrix(1 0 0 1 339 1556)"><path d="M 54.9316 0 L 57.666 0 L 30.5664 -70.459 L 28.0762 -70.459 L 0.976562 0 L 3.66211 0 L 12.9395 -24.4629 L 45.7031 -24.4629 Z M 29.1992 -67.0898 L 29.4434 -67.0898 L 44.8242 -26.709 L 13.8184 -26.709 Z"/></g><line id="Baseline-L" style="fill:none;stroke:#27AAE1;opacity:1;stroke-width:0.577;" x1="263" x2="3036" y1="1556" y2="1556"/><line id="Capline-L" style="fill:none;stroke:#27AAE1;opacity:1;stroke-width:0.577;" x1="263" x2="3036" y1="1485.54" y2="1485.54"/><rect height="119.336" id="left-margin" style="fill:darkred;stroke:none;opacity:0.4;" width="12.4512" x="1394.06" y="1030.79"/><rect height="119.336" id="right-margin" style="fill:darkgreen;stroke:none;opacity:0.4;" width="12.4512" x="1502.5112" y="1030.79"/><rect x="1406.5112" y="1045" width="96" height="96" fill="none" stroke="blue" stroke-dasharray="5"/><rect x="1394.06" y="1030.79" width="120.9024" height="119.336" fill="none" stroke="blue"/></g><g id="Symbols"><g id="Bold-L" transform="matrix(1 0 0 1 2266 1556)"><path d="M19.35 -2.174 Q16.286 -2.174 14.19 -4.27 Q12.094 -6.366 12.094 -9.43 V-61.03 Q12.094 -64.094 14.19 -66.271 Q16.286 -68.447 19.35 -68.447 H88.204 Q91.267 -68.447 93.444 -66.271 Q95.621 -64.094 95.621 -61.03 L74.981 -35.552 Q70.305 -29.586 73.449 -23.217 Q76.594 -16.847 84.011 -16.847 Q87.075 -16.847 89.171 -14.671 Q91.267 -12.494 91.267 -9.43 Q91.267 -6.366 89.171 -4.27 Q87.075 -2.174 84.011 -2.174 H19.35 Z M111.101 -27.974 H96.105 Q93.847 -27.974 92.719 -29.989 Q91.59 -32.005 93.203 -33.779 L118.196 -65.061 Q119.164 -66.029 120.454 -66.271 Q121.744 -66.512 122.631 -66.109 Q123.517 -65.706 124.163 -64.577 Q124.808 -63.449 124.808 -62.159 L121.26 -42.647 H136.095 Q138.352 -42.647 139.481 -40.551 Q140.61 -38.455 139.159 -36.681 L114.165 -5.399 Q113.036 -4.431 111.746 -4.27 Q110.456 -4.109 109.569 -4.512 Q108.683 -4.915 108.038 -5.963 Q107.392 -7.011 107.715 -8.462 L111.101 -27.974 Z"/></g><g id="Semibold-L" transform="matrix(1 0 0 1 1970.27 1556)"><path d="M19.35 -2.804 Q16.567 -2.804 14.646 -4.726 Q12.724 -6.647 12.724 -9.43 V-61.03 Q12.724 -63.813 14.646 -65.814 Q16.567 -67.817 19.35 -67.817 H89.326 Q92.109 -67.817 94.11 -65.814 Q96.111 -63.813 96.111 -61.03 L75.823 -35.902 Q70.935 -29.727 74.256 -22.972 Q77.576 -16.217 85.343 -16.217 Q88.126 -16.217 90.047 -14.214 Q91.969 -12.213 91.969 -9.43 Q91.969 -6.647 90.047 -4.726 Q88.126 -2.804 85.343 -2.804 H19.35 Z M111.872 -28.604 H96.735 Q94.618 -28.604 93.63 -30.446 Q92.641 -32.286 94.114 -33.919 L117.916 -63.658 Q118.814 -64.626 119.964 -64.868 Q121.113 -65.11 121.965 -64.637 Q122.816 -64.165 123.356 -63.21 Q123.896 -62.257 123.896 -61.036 L120.489 -42.017 H135.465 Q137.582 -42.017 138.57 -40.095 Q139.559 -38.174 138.248 -36.541 L114.375 -6.802 Q113.386 -5.834 112.236 -5.673 Q111.087 -5.512 110.235 -5.984 Q109.384 -6.457 108.844 -7.331 Q108.304 -8.203 108.557 -9.585 L111.872 -28.604 Z"/></g><g id="Medium-L" transform="matrix(1 0 0 1 1674.31 1556)"><path d="M19.35 -3.278 Q16.776 -3.278 14.988 -5.068 Q13.198 -6.856 13.198 -9.43 V-61.03 Q13.198 -63.604 14.988 -65.472 Q16.776 -67.343 19.35 -67.343 H90.166 Q92.74 -67.343 94.61 -65.472 Q96.481 -63.604 96.481 -61.03 L76.453 -36.165 Q71.41 -29.831 74.86 -22.788 Q78.311 -15.743 86.343 -15.743 Q88.915 -15.743 90.705 -13.872 Q92.495 -12.004 92.495 -9.43 Q92.495 -6.856 90.705 -5.068 Q88.915 -3.278 86.343 -3.278 H19.35 Z M112.451 -29.078 H97.21 Q95.197 -29.078 94.314 -30.788 Q93.43 -32.495 94.797 -34.024 L117.706 -62.607 Q118.551 -63.575 119.594 -63.816 Q120.639 -64.058 121.465 -63.533 Q122.29 -63.007 122.752 -62.185 Q123.213 -61.364 123.213 -60.196 L119.91 -41.543 H134.99 Q137.003 -41.543 137.886 -39.753 Q138.77 -37.965 137.564 -36.436 L114.533 -7.853 Q113.649 -6.885 112.606 -6.724 Q111.561 -6.563 110.735 -7.089 Q109.91 -7.614 109.448 -8.356 Q108.987 -9.096 109.187 -10.425 L112.451 -29.078 Z"/></g><g id="Regular-L" transform="matrix(1 0 0 1 1378.56 1556)"><path d="M19.35 -3.625 Q16.931 -3.625 15.238 -5.318 Q13.545 -7.011 13.545 -9.43 V-61.03 Q13.545 -63.449 15.238 -65.222 Q16.931 -66.996 19.35 -66.996 H90.784 Q93.203 -66.996 94.976 -65.222 Q96.75 -63.449 96.75 -61.03 L76.916 -36.359 Q71.756 -29.909 75.304 -22.652 Q78.851 -15.396 87.075 -15.396 Q89.494 -15.396 91.187 -13.622 Q92.88 -11.849 92.88 -9.43 Q92.88 -7.011 91.187 -5.318 Q89.494 -3.625 87.075 -3.625 H19.35 Z M112.875 -29.425 H97.556 Q95.621 -29.425 94.815 -31.037 Q94.009 -32.65 95.299 -34.101 L117.551 -61.836 Q118.358 -62.804 119.325 -63.046 Q120.293 -63.287 121.099 -62.723 Q121.905 -62.159 122.308 -61.433 Q122.711 -60.707 122.711 -59.579 L119.486 -41.196 H134.644 Q136.579 -41.196 137.385 -39.503 Q138.191 -37.81 137.062 -36.359 L114.649 -8.624 Q113.843 -7.656 112.875 -7.495 Q111.907 -7.334 111.101 -7.898 Q110.295 -8.462 109.892 -9.107 Q109.489 -9.752 109.65 -11.042 L112.875 -29.425 Z"/></g><g id="Light-L" transform="matrix(1 0 0 1 1082.77 1556)"><path d="M20.342 -4.804 Q17.987 -4.804 16.356 -6.436 Q14.724 -8.067 14.724 -10.422 V-60.038 Q14.724 -62.393 16.356 -64.105 Q17.987 -65.818 20.342 -65.818 H91.218 Q93.14 -65.818 94.51 -64.384 Q95.881 -62.95 95.881 -61.03 L76.978 -35.552 Q71.942 -28.793 75.718 -21.504 Q79.493 -14.218 87.82 -14.218 Q89.74 -14.218 91.093 -12.784 Q92.446 -11.35 92.446 -9.428 Q92.446 -7.508 91.093 -6.155 Q89.74 -4.804 87.82 -4.804 H20.342 Z M114.302 -29.673 H99.478 Q97.658 -29.673 96.856 -31.223 Q96.055 -32.774 97.205 -34.156 L115.753 -59.23 Q116.503 -60.183 117.467 -60.495 Q118.432 -60.806 119.177 -60.274 Q119.92 -59.74 120.354 -59.014 Q120.789 -58.289 120.85 -57.221 L118.059 -40.948 H132.722 Q134.542 -40.948 135.344 -39.318 Q136.145 -37.686 135.157 -36.304 L116.447 -11.23 Q115.697 -10.277 114.733 -10.046 Q113.768 -9.815 113.023 -10.348 Q112.28 -10.881 111.846 -11.526 Q111.411 -12.171 111.511 -13.4 L114.302 -29.673 Z"/></g><g id="Thin-L" transform="matrix(1 0 0 1 787.282 1556)"><path d="M21.335 -5.982 Q19.044 -5.982 17.473 -7.553 Q15.902 -9.124 15.902 -11.415 V-59.045 Q15.902 -61.336 17.473 -62.988 Q19.044 -64.639 21.335 -64.639 H91.651 Q93.075 -64.639 94.044 -63.547 Q95.013 -62.454 95.013 -61.03 L77.04 -34.746 Q72.129 -27.675 76.133 -20.358 Q80.136 -13.039 88.563 -13.039 Q89.987 -13.039 91 -11.945 Q92.012 -10.852 92.012 -9.428 Q92.012 -8.003 91 -6.992 Q89.987 -5.982 88.563 -5.982 H21.335 Z M115.728 -29.922 H101.402 Q99.694 -29.922 98.898 -31.41 Q98.101 -32.898 99.111 -34.211 L113.954 -56.626 Q114.65 -57.563 115.611 -57.945 Q116.571 -58.326 117.253 -57.824 Q117.935 -57.321 118.401 -56.596 Q118.865 -55.87 118.99 -54.865 L116.634 -40.7 H130.798 Q132.506 -40.7 133.302 -39.131 Q134.099 -37.562 133.251 -36.249 L118.246 -13.834 Q117.55 -12.897 116.589 -12.595 Q115.629 -12.295 114.947 -12.797 Q114.265 -13.3 113.799 -13.945 Q113.335 -14.59 113.372 -15.756 L115.728 -29.922 Z"/></g><g id="Ultralight-L" transform="matrix(1 0 0 1 491.205 1556)"><path d="M21.93 -6.689 Q19.677 -6.689 18.142 -8.222 Q16.609 -9.756 16.609 -12.01 V-58.45 Q16.609 -60.703 18.142 -62.318 Q19.677 -63.932 21.93 -63.932 H91.913 Q93.036 -63.932 93.765 -63.044 Q94.493 -62.154 94.493 -61.03 L77.078 -34.262 Q72.24 -27.006 76.381 -19.669 Q80.522 -12.332 89.01 -12.332 Q90.134 -12.332 90.943 -11.442 Q91.751 -10.552 91.751 -9.427 Q91.751 -8.301 90.943 -7.495 Q90.134 -6.689 89.01 -6.689 H21.93 Z M116.584 -30.07 H102.555 Q100.915 -30.07 100.123 -31.521 Q99.33 -32.972 100.256 -34.245 L112.875 -55.064 Q113.538 -55.991 114.497 -56.415 Q115.455 -56.837 116.1 -56.354 Q116.745 -55.87 117.229 -55.144 Q117.713 -54.419 117.874 -53.451 L115.778 -40.551 H129.645 Q131.285 -40.551 132.077 -39.019 Q132.87 -37.487 132.106 -36.215 L119.325 -15.396 Q118.662 -14.469 117.703 -14.127 Q116.745 -13.784 116.1 -14.267 Q115.455 -14.751 114.971 -15.396 Q114.487 -16.041 114.487 -17.17 L116.584 -30.07 Z"/></g><g id="Bold-M" transform="matrix(1 0 0 1 2281.8 1126)"><path d="M15 -6.73 Q11.5 -6.73 9 -9.23 Q6.5 -11.73 6.5 -15.23 V-55.23 Q6.5 -58.73 9 -61.23 Q11.5 -63.73 15 -63.73 H65.875 Q69.375 -63.73 71.875 -61.23 Q74.375 -58.73 74.375 -55.23 L57 -33.605 Q54.625 -30.48 56.312 -27.105 Q58 -23.73 61.875 -23.73 Q65.375 -23.73 67.875 -21.23 Q70.375 -18.73 70.375 -15.23 Q70.375 -11.73 67.875 -9.23 Q65.375 -6.73 61.875 -6.73 H15 Z M82.75 -26.73 H71.625 Q69 -26.73 67.75 -29.105 Q66.5 -31.48 68.25 -33.605 L92.75 -64.355 Q93.875 -65.605 95.312 -65.792 Q96.75 -65.98 97.938 -65.48 Q99.125 -64.98 99.875 -63.792 Q100.625 -62.605 100.375 -60.98 L97.25 -43.73 H108.375 Q111 -43.73 112.25 -41.355 Q113.5 -38.98 111.75 -36.855 L87.25 -6.105 Q86.125 -4.855 84.688 -4.667 Q83.25 -4.48 82.062 -4.98 Q80.875 -5.48 80.125 -6.667 Q79.375 -7.855 79.625 -9.48 L82.75 -26.73 Z"/></g><g id="Semibold-M" transform="matrix(1 0 0 1 1985.97 1126)"><path d="M15 -7.545 Q11.826 -7.545 9.57 -9.8 Q7.315 -12.056 7.315 -15.23 V-55.23 Q7.315 -58.404 9.57 -60.66 Q11.826 -62.915 15 -62.915 H67.343 Q70.516 -62.915 72.771 -60.66 Q75.028 -58.404 75.028 -55.23 L58.087 -34.094 Q55.386 -30.589 57.291 -26.751 Q59.195 -22.915 63.56 -22.915 Q66.734 -22.915 68.989 -20.66 Q71.245 -18.404 71.245 -15.23 Q71.245 -12.056 68.989 -9.8 Q66.734 -7.545 63.56 -7.545 H15 Z M83.729 -27.545 H72.44 Q70.032 -27.545 68.919 -29.702 Q67.804 -31.86 69.391 -33.767 L92.424 -62.616 Q93.44 -63.757 94.715 -63.945 Q95.989 -64.132 97.095 -63.632 Q98.201 -63.132 98.87 -62.107 Q99.537 -61.084 99.287 -59.567 L96.271 -42.915 H107.56 Q109.968 -42.915 111.081 -40.757 Q112.196 -38.6 110.609 -36.692 L87.576 -7.844 Q86.56 -6.702 85.285 -6.515 Q84.011 -6.327 82.905 -6.827 Q81.799 -7.327 81.13 -8.352 Q80.463 -9.376 80.713 -10.892 L83.729 -27.545 Z"/></g><g id="Medium-M" transform="matrix(1 0 0 1 1689.91 1126)"><path d="M15 -8.156 Q12.071 -8.156 9.999 -10.229 Q7.926 -12.301 7.926 -15.23 V-55.23 Q7.926 -58.159 9.999 -60.231 Q12.071 -62.304 15 -62.304 H68.442 Q71.373 -62.304 73.444 -60.231 Q75.516 -58.159 75.516 -55.23 L58.903 -34.461 Q55.956 -30.67 58.025 -26.486 Q60.093 -22.304 64.824 -22.304 Q67.752 -22.304 69.825 -20.231 Q71.896 -18.159 71.896 -15.23 Q71.896 -12.301 69.825 -10.229 Q67.752 -8.156 64.824 -8.156 H15 Z M84.463 -28.156 H73.051 Q70.808 -28.156 69.795 -30.151 Q68.782 -32.146 70.248 -33.89 L92.179 -61.311 Q93.114 -62.371 94.266 -62.559 Q95.419 -62.746 96.464 -62.246 Q97.509 -61.746 98.115 -60.844 Q98.722 -59.942 98.472 -58.507 L95.537 -42.304 H106.949 Q109.192 -42.304 110.205 -40.309 Q111.218 -38.314 109.752 -36.57 L87.821 -9.149 Q86.886 -8.089 85.734 -7.901 Q84.581 -7.714 83.536 -8.214 Q82.491 -8.714 81.885 -9.616 Q81.278 -10.517 81.528 -11.952 L84.463 -28.156 Z"/></g><g id="Regular-M" transform="matrix(1 0 0 1 1394.06 1126)"><path d="M15 -8.605 Q12.25 -8.605 10.312 -10.542 Q8.375 -12.48 8.375 -15.23 V-55.23 Q8.375 -57.98 10.312 -59.917 Q12.25 -61.855 15 -61.855 H69.25 Q72 -61.855 73.938 -59.917 Q75.875 -57.98 75.875 -55.23 L59.5 -34.73 Q56.375 -30.73 58.562 -26.292 Q60.75 -21.855 65.75 -21.855 Q68.5 -21.855 70.438 -19.917 Q72.375 -17.98 72.375 -15.23 Q72.375 -12.48 70.438 -10.542 Q68.5 -8.605 65.75 -8.605 H15 Z M85 -28.605 H73.5 Q71.375 -28.605 70.438 -30.48 Q69.5 -32.355 70.875 -33.98 L92 -60.355 Q92.875 -61.355 93.938 -61.542 Q95 -61.73 96 -61.23 Q97 -60.73 97.562 -59.917 Q98.125 -59.105 97.875 -57.73 L95 -41.855 H106.5 Q108.625 -41.855 109.562 -39.98 Q110.5 -38.105 109.125 -36.48 L88 -10.105 Q87.125 -9.105 86.062 -8.917 Q85 -8.73 84 -9.23 Q83 -9.73 82.438 -10.542 Q81.875 -11.355 82.125 -12.73 L85 -28.605 Z"/></g><g id="Light-M" transform="matrix(1 0 0 1 1098.18 1126)"><path d="M15.769 -9.855 Q13.211 -9.855 11.419 -11.649 Q9.625 -13.441 9.625 -15.999 V-54.461 Q9.625 -57.019 11.419 -58.811 Q13.211 -60.605 15.769 -60.605 H69.49 Q71.711 -60.605 73.24 -59.027 Q74.769 -57.451 74.769 -55.23 L59.26 -34.297 Q56.135 -29.912 58.586 -25.259 Q61.039 -20.605 66.328 -20.605 Q68.547 -20.605 70.125 -19.027 Q71.701 -17.451 71.701 -15.23 Q71.701 -13.009 70.125 -11.432 Q68.547 -9.855 66.328 -9.855 H15.769 Z M86.49 -29.134 H75.328 Q73.395 -29.134 72.505 -30.84 Q71.615 -32.547 72.846 -34.076 L90.461 -57.615 Q91.24 -58.566 92.231 -58.802 Q93.221 -59.037 94.172 -58.537 Q95.125 -58.037 95.639 -57.297 Q96.154 -56.556 95.951 -55.277 L93.51 -41.326 H104.672 Q106.605 -41.326 107.495 -39.62 Q108.385 -37.912 107.154 -36.384 L89.539 -12.845 Q88.76 -11.894 87.769 -11.657 Q86.779 -11.422 85.828 -11.922 Q84.875 -12.422 84.361 -13.162 Q83.846 -13.904 84.049 -15.182 L86.49 -29.134 Z"/></g><g id="Thin-M" transform="matrix(1 0 0 1 802.565 1126)"><path d="M16.539 -11.105 Q14.172 -11.105 12.524 -12.754 Q10.875 -14.402 10.875 -16.769 V-53.691 Q10.875 -56.057 12.524 -57.706 Q14.172 -59.355 16.539 -59.355 H69.731 Q71.422 -59.355 72.544 -58.139 Q73.664 -56.922 73.664 -55.23 L59.019 -33.865 Q55.894 -29.095 58.61 -24.225 Q61.328 -19.355 66.904 -19.355 Q68.596 -19.355 69.812 -18.139 Q71.029 -16.922 71.029 -15.23 Q71.029 -13.537 69.812 -12.321 Q68.596 -11.105 66.904 -11.105 H16.539 Z M87.981 -29.662 H77.154 Q75.414 -29.662 74.573 -31.201 Q73.731 -32.74 74.817 -34.172 L88.922 -54.874 Q89.606 -55.777 90.524 -56.061 Q91.442 -56.345 92.346 -55.845 Q93.25 -55.345 93.716 -54.677 Q94.183 -54.009 94.029 -52.826 L92.019 -40.797 H102.846 Q104.586 -40.797 105.427 -39.259 Q106.269 -37.72 105.183 -36.287 L91.078 -15.586 Q90.394 -14.682 89.476 -14.399 Q88.558 -14.115 87.654 -14.615 Q86.75 -15.115 86.284 -15.782 Q85.817 -16.451 85.971 -17.634 L87.981 -29.662 Z"/></g><g id="Ultralight-M" transform="matrix(1 0 0 1 506.415 1126)"><path d="M17 -11.855 Q14.75 -11.855 13.188 -13.417 Q11.625 -14.98 11.625 -17.23 V-53.23 Q11.625 -55.48 13.188 -57.042 Q14.75 -58.605 17 -58.605 H69.875 Q71.25 -58.605 72.125 -57.605 Q73 -56.605 73 -55.23 L58.875 -33.605 Q55.75 -28.605 58.625 -23.605 Q61.5 -18.605 67.25 -18.605 Q68.625 -18.605 69.625 -17.605 Q70.625 -16.605 70.625 -15.23 Q70.625 -13.855 69.625 -12.855 Q68.625 -11.855 67.25 -11.855 H17 Z M88.875 -29.98 H78.25 Q76.625 -29.98 75.812 -31.417 Q75 -32.855 76 -34.23 L88 -53.23 Q88.625 -54.105 89.5 -54.417 Q90.375 -54.73 91.25 -54.23 Q92.125 -53.73 92.562 -53.105 Q93 -52.48 92.875 -51.355 L91.125 -40.48 H101.75 Q103.375 -40.48 104.188 -39.042 Q105 -37.605 104 -36.23 L92 -17.23 Q91.375 -16.355 90.5 -16.042 Q89.625 -15.73 88.75 -16.23 Q87.875 -16.73 87.438 -17.355 Q87 -17.98 87.125 -19.105 L88.875 -29.98 Z"/></g><g id="Bold-S" transform="matrix(1 0 0 1 2294.23 696)"><path d="M13.037 -13.532 Q10.257 -13.532 8.482 -15.308 Q6.707 -17.083 6.707 -19.807 V-50.653 Q6.707 -53.377 8.482 -55.152 Q10.257 -56.927 13.047 -56.927 H53.948 Q56.542 -56.927 58.401 -55.068 Q60.26 -53.209 60.26 -50.615 L47.044 -32.37 Q45.663 -30.2 46.896 -28.178 Q48.129 -26.156 50.528 -26.156 Q53.06 -26.156 54.934 -24.303 Q56.808 -22.45 56.808 -19.865 Q56.808 -17.28 54.949 -15.406 Q53.09 -13.532 50.496 -13.532 H13.037 Z M65.586 -27.734 H57.4 Q55.489 -27.734 54.57 -29.51 Q53.652 -31.285 54.934 -32.863 L73.026 -57.22 Q73.87 -58.21 74.955 -58.358 Q76.04 -58.505 76.878 -58.128 Q77.716 -57.749 78.259 -56.861 Q78.801 -55.974 78.604 -54.758 L76.434 -42.725 H84.62 Q86.532 -42.725 87.45 -40.95 Q88.368 -39.175 87.086 -37.597 L68.994 -13.24 Q68.15 -12.25 67.065 -12.102 Q65.98 -11.954 65.142 -12.332 Q64.303 -12.711 63.761 -13.599 Q63.219 -14.486 63.416 -15.702 L65.586 -27.734 Z"/></g><g id="Semibold-S" transform="matrix(1 0 0 1 1998.1 696)"><path d="M13.037 -14.176 Q10.514 -14.176 8.931 -15.757 Q7.35 -17.34 7.35 -19.807 V-50.653 Q7.35 -53.12 8.931 -54.703 Q10.514 -56.284 13.047 -56.284 H55.106 Q57.442 -56.284 59.108 -54.619 Q60.775 -52.952 60.775 -50.615 L47.902 -32.755 Q46.264 -30.286 47.668 -27.899 Q49.072 -25.513 51.857 -25.513 Q54.132 -25.513 55.813 -23.854 Q57.494 -22.193 57.494 -19.865 Q57.494 -17.538 55.828 -15.856 Q54.162 -14.176 51.825 -14.176 H13.037 Z M66.358 -28.378 H58.043 Q56.304 -28.378 55.492 -29.981 Q54.681 -31.585 55.835 -32.991 L72.768 -55.849 Q73.527 -56.752 74.484 -56.9 Q75.439 -57.048 76.213 -56.67 Q76.988 -56.291 77.466 -55.533 Q77.943 -54.774 77.746 -53.643 L75.662 -42.082 H83.977 Q85.716 -42.082 86.528 -40.479 Q87.339 -38.875 86.185 -37.469 L69.252 -14.611 Q68.493 -13.708 67.536 -13.56 Q66.581 -13.412 65.807 -13.79 Q65.032 -14.169 64.554 -14.927 Q64.077 -15.686 64.274 -16.817 L66.358 -28.378 Z"/></g><g id="Medium-S" transform="matrix(1 0 0 1 1701.85 696)"><path d="M13.037 -14.658 Q10.708 -14.658 9.27 -16.096 Q7.832 -17.534 7.832 -19.807 V-50.653 Q7.832 -52.926 9.27 -54.364 Q10.708 -55.802 13.047 -55.802 H55.974 Q58.118 -55.802 59.639 -54.28 Q61.16 -52.759 61.16 -50.615 L48.545 -33.045 Q46.714 -30.35 48.247 -27.69 Q49.78 -25.031 52.853 -25.031 Q54.936 -25.031 56.473 -23.515 Q58.008 -22 58.008 -19.865 Q58.008 -17.731 56.487 -16.194 Q54.966 -14.658 52.823 -14.658 H13.037 Z M66.937 -28.86 H58.525 Q56.915 -28.86 56.184 -30.335 Q55.453 -31.811 56.51 -33.088 L72.575 -54.819 Q73.269 -55.658 74.13 -55.806 Q74.99 -55.954 75.715 -55.576 Q76.441 -55.198 76.87 -54.536 Q77.3 -53.873 77.103 -52.807 L75.083 -41.6 H83.495 Q85.105 -41.6 85.836 -40.125 Q86.567 -38.649 85.51 -37.372 L69.445 -15.641 Q68.751 -14.802 67.89 -14.654 Q67.03 -14.506 66.305 -14.884 Q65.579 -15.262 65.15 -15.924 Q64.72 -16.587 64.917 -17.653 L66.937 -28.86 Z"/></g><g id="Regular-S" transform="matrix(1 0 0 1 1405.73 696)"><path d="M13.037 -15.012 Q10.849 -15.012 9.517 -16.343 Q8.186 -17.675 8.186 -19.807 V-50.653 Q8.186 -52.785 9.517 -54.117 Q10.849 -55.448 13.047 -55.448 H56.611 Q58.613 -55.448 60.028 -54.033 Q61.443 -52.618 61.443 -50.615 L49.017 -33.257 Q47.044 -30.397 48.671 -27.537 Q50.299 -24.677 53.585 -24.677 Q55.526 -24.677 56.956 -23.268 Q58.386 -21.858 58.386 -19.865 Q58.386 -17.872 56.971 -16.442 Q55.555 -15.012 53.553 -15.012 H13.037 Z M67.361 -29.214 H58.879 Q57.363 -29.214 56.691 -30.595 Q56.019 -31.975 57.005 -33.159 L72.434 -54.064 Q73.081 -54.856 73.87 -55.004 Q74.659 -55.152 75.35 -54.775 Q76.04 -54.396 76.434 -53.804 Q76.829 -53.212 76.632 -52.193 L74.659 -41.246 H83.141 Q84.658 -41.246 85.329 -39.865 Q86.001 -38.485 85.015 -37.301 L69.586 -16.396 Q68.939 -15.604 68.15 -15.456 Q67.361 -15.308 66.671 -15.685 Q65.98 -16.064 65.586 -16.656 Q65.191 -17.248 65.388 -18.266 L67.361 -29.214 Z"/></g><g id="Light-S" transform="matrix(1 0 0 1 1109.75 696)"><path d="M13.644 -15.998 Q11.607 -15.998 10.39 -17.216 Q9.172 -18.433 9.172 -20.414 V-50.046 Q9.172 -52.027 10.39 -53.244 Q11.607 -54.462 13.654 -54.462 H56.8 Q58.385 -54.462 59.478 -53.331 Q60.571 -52.2 60.571 -50.615 L48.827 -32.916 Q46.855 -29.752 48.69 -26.722 Q50.527 -23.691 54.04 -23.691 Q55.563 -23.691 56.709 -22.566 Q57.854 -21.441 57.854 -19.865 Q57.854 -18.289 56.724 -17.144 Q55.593 -15.998 54.009 -15.998 H13.644 Z M68.536 -29.631 H60.321 Q58.956 -29.631 58.322 -30.879 Q57.688 -32.127 58.561 -33.235 L71.22 -51.902 Q71.791 -52.656 72.524 -52.842 Q73.256 -53.028 73.908 -52.65 Q74.561 -52.271 74.917 -51.737 Q75.274 -51.202 75.114 -50.258 L73.484 -40.829 H81.699 Q83.064 -40.829 83.698 -39.581 Q84.332 -38.333 83.459 -37.225 L70.8 -18.558 Q70.229 -17.804 69.496 -17.618 Q68.764 -17.432 68.112 -17.81 Q67.46 -18.189 67.103 -18.723 Q66.746 -19.258 66.906 -20.202 L68.536 -29.631 Z"/></g><g id="Thin-S" transform="matrix(1 0 0 1 814.015 696)"><path d="M14.251 -16.984 Q12.366 -16.984 11.262 -18.088 Q10.158 -19.192 10.158 -21.02 V-49.44 Q10.158 -51.268 11.262 -52.372 Q12.366 -53.476 14.26 -53.476 H56.99 Q58.157 -53.476 58.928 -52.629 Q59.699 -51.783 59.699 -50.615 L48.637 -32.575 Q46.664 -29.107 48.709 -25.906 Q50.754 -22.705 54.495 -22.705 Q55.602 -22.705 56.463 -21.864 Q57.324 -21.024 57.324 -19.865 Q57.324 -18.706 56.478 -17.845 Q55.631 -16.984 54.464 -16.984 H14.251 Z M69.713 -30.048 H61.762 Q60.549 -30.048 59.953 -31.164 Q59.357 -32.279 60.116 -33.311 L70.006 -49.74 Q70.502 -50.456 71.177 -50.68 Q71.852 -50.903 72.467 -50.526 Q73.081 -50.148 73.4 -49.67 Q73.718 -49.191 73.597 -48.324 L72.307 -40.412 H80.258 Q81.471 -40.412 82.067 -39.296 Q82.663 -38.181 81.904 -37.149 L72.014 -20.72 Q71.518 -20.004 70.843 -19.78 Q70.168 -19.557 69.553 -19.934 Q68.939 -20.312 68.62 -20.79 Q68.302 -21.269 68.423 -22.136 L69.713 -30.048 Z"/></g><g id="Ultralight-S" transform="matrix(1 0 0 1 517.792 696)"><path d="M14.615 -17.576 Q12.821 -17.576 11.786 -18.612 Q10.75 -19.647 10.75 -21.385 V-49.075 Q10.75 -50.813 11.786 -51.848 Q12.821 -52.884 14.625 -52.884 H57.104 Q58.021 -52.884 58.598 -52.208 Q59.175 -51.533 59.175 -50.615 L48.524 -32.37 Q46.551 -28.721 48.721 -25.417 Q50.891 -22.113 54.768 -22.113 Q55.625 -22.113 56.315 -21.443 Q57.005 -20.774 57.005 -19.865 Q57.005 -18.957 56.33 -18.266 Q55.654 -17.576 54.737 -17.576 H14.615 Z M70.418 -30.299 H62.627 Q61.506 -30.299 60.932 -31.334 Q60.358 -32.37 61.049 -33.356 L69.278 -48.443 Q69.728 -49.136 70.369 -49.383 Q71.01 -49.629 71.602 -49.252 Q72.194 -48.873 72.489 -48.429 Q72.785 -47.985 72.687 -47.164 L71.602 -40.161 H79.393 Q80.515 -40.161 81.088 -39.126 Q81.662 -38.09 80.971 -37.104 L72.742 -22.017 Q72.292 -21.324 71.651 -21.077 Q71.01 -20.831 70.418 -21.208 Q69.827 -21.587 69.531 -22.031 Q69.235 -22.475 69.333 -23.296 L70.418 -30.299 Z"/></g></g></svg>