<svg xmlns="http://www.w3.org/2000/svg" version="1.1" width="3300" height="2000"><g id="Notes"><style>
    text {
      font-family: monospace;
      text-anchor: middle;
    }
    text.emphasis {
      font-weight:bold;
    }
    text.lanchor {
      text-anchor: start;
    }
  </style><rect height="2200" id="artboard" fill="white" width="3300" x="0" y="0"/><line id="" style="fill:none;stroke:black;stroke-width:0.5;" x1="263" x2="3036" y1="292" y2="292"/><text class="lanchor emphasis" transform="matrix(1 0 0 1 263 322)">Weight/Scale Variations</text><text transform="matrix(1 0 0 1 559.711 322)">Ultralight</text><text transform="matrix(1 0 0 1 856.422 322)">Thin</text><text transform="matrix(1 0 0 1 1153.13 322)">Light</text><text transform="matrix(1 0 0 1 1449.84 322)">Regular</text><text transform="matrix(1 0 0 1 1746.56 322)">Medium</text><text transform="matrix(1 0 0 1 2043.27 322)">Semibold</text><text transform="matrix(1 0 0 1 2339.98 322)">Bold</text><text transform="matrix(1 0 0 1 2636.69 322)">Heavy</text><text transform="matrix(1 0 0 1 2933.4 322)">Black</text><text id="template-version" style="text-anchor: end;" transform="matrix(1 0 0 1 3036 1933)">Template v.1.0</text><text class="lanchor" transform="matrix(1 0 0 1 263 726)">Small</text><text class="lanchor" transform="matrix(1 0 0 1 263 1156)">Medium</text><text class="lanchor" transform="matrix(1 0 0 1 263 1586)">Large</text></g><g id="Guides"><g id="H-reference" style="fill:#27AAE1;stroke:none;" transform="matrix(1 0 0 1 339 696)"><path d="M 54.9316 0 L 57.666 0 L 30.5664 -70.459 L 28.0762 -70.459 L 0.976562 0 L 3.66211 0 L 12.9395 -24.4629 L 45.7031 -24.4629 Z M 29.1992 -67.0898 L 29.4434 -67.0898 L 44.8242 -26.709 L 13.8184 -26.709 Z"/></g><line id="Baseline-S" style="fill:none;stroke:#27AAE1;opacity:1;stroke-width:0.577;" x1="263" x2="3036" y1="696" y2="696"/><line id="Capline-S" style="fill:none;stroke:#27AAE1;opacity:1;stroke-width:0.577;" x1="263" x2="3036" y1="625.541" y2="625.541"/><g id="H-reference" style="fill:#27AAE1;stroke:none;" transform="matrix(1 0 0 1 339 1126)"><path d="M 54.9316 0 L 57.666 0 L 30.5664 -70.459 L 28.0762 -70.459 L 0.976562 0 L 3.66211 0 L 12.9395 -24.4629 L 45.7031 -24.4629 Z M 29.1992 -67.0898 L 29.4434 -67.0898 L 44.8242 -26.709 L 13.8184 -26.709 Z"/></g><line id="Baseline-M" style="fill:none;stroke:#27AAE1;opacity:1;stroke-width:0.577;" x1="263" x2="3036" y1="1126" y2="1126"/><line id="Capline-M" style="fill:none;stroke:#27AAE1;opacity:1;stroke-width:0.577;" x1="263" x2="3036" y1="1055.54" y2="1055.54"/><g id="H-reference" style="fill:#27AAE1;stroke:none;" transform="matrix(1 0 0 1 339 1556)"><path d="M 54.9316 0 L 57.666 0 L 30.5664 -70.459 L 28.0762 -70.459 L 0.976562 0 L 3.66211 0 L 12.9395 -24.4629 L 45.7031 -24.4629 Z M 29.1992 -67.0898 L 29.4434 -67.0898 L 44.8242 -26.709 L 13.8184 -26.709 Z"/></g><line id="Baseline-L" style="fill:none;stroke:#27AAE1;opacity:1;stroke-width:0.577;" x1="263" x2="3036" y1="1556" y2="1556"/><line id="Capline-L" style="fill:none;stroke:#27AAE1;opacity:1;stroke-width:0.577;" x1="263" x2="3036" y1="1485.54" y2="1485.54"/><rect height="119.336" id="left-margin" style="fill:darkred;stroke:none;opacity:0.4;" width="12.4512" x="1394.06" y="1030.79"/><rect height="119.336" id="right-margin" style="fill:darkgreen;stroke:none;opacity:0.4;" width="12.4512" x="1502.5112" y="1030.79"/><rect x="1406.5112" y="1045" width="96" height="96" fill="none" stroke="blue" stroke-dasharray="5"/><rect x="1394.06" y="1030.79" width="120.9024" height="119.336" fill="none" stroke="blue"/></g><g id="Symbols"><g id="Bold-L" transform="matrix(1 0 0 1 2266 1556)"><path d="M19.35 -2.093 Q16.367 -2.093 14.19 -4.27 Q12.013 -6.447 12.013 -9.43 V-61.03 Q12.013 -64.013 14.19 -66.23 Q16.367 -68.447 19.35 -68.447 H88.446 Q91.59 -68.447 93.727 -66.311 Q95.863 -64.174 95.863 -61.03 L75.304 -35.311 Q70.708 -29.586 73.853 -23.217 Q76.997 -16.847 84.172 -16.847 Q87.317 -16.847 89.453 -14.711 Q91.59 -12.574 91.59 -9.43 Q91.59 -6.286 89.453 -4.189 Q87.317 -2.093 84.172 -2.093 H19.35 Z M111.021 -27.893 H96.024 Q93.606 -27.893 92.517 -29.949 Q91.429 -32.005 93.041 -33.859 L118.277 -65.142 Q119.244 -66.19 120.413 -66.432 Q121.583 -66.674 122.671 -66.19 Q123.759 -65.706 124.283 -64.618 Q124.808 -63.529 124.727 -62.159 L121.179 -42.647 H136.256 Q138.594 -42.647 139.683 -40.551 Q140.771 -38.455 139.239 -36.681 L114.084 -5.399 Q112.956 -4.27 111.787 -4.109 Q110.618 -3.947 109.529 -4.431 Q108.441 -4.915 107.917 -5.923 Q107.392 -6.931 107.715 -8.382 L111.021 -27.893 Z"/></g><g id="Semibold-L" transform="matrix(1 0 0 1 1970.27 1556)"><path d="M19.35 -3.285 Q16.857 -3.285 15.032 -5.112 Q13.205 -6.937 13.205 -9.43 V-61.03 Q13.205 -63.523 15.032 -65.389 Q16.857 -67.256 19.35 -67.256 H90.619 Q93.272 -67.256 95.058 -65.469 Q96.845 -63.684 96.845 -61.03 L76.845 -36.081 Q71.83 -29.796 75.289 -22.727 Q78.75 -15.656 86.696 -15.656 Q89.35 -15.656 91.135 -13.869 Q92.922 -12.084 92.922 -9.43 Q92.922 -6.776 91.135 -5.031 Q89.35 -3.285 86.696 -3.285 H19.35 Z M112.424 -29.085 H97.287 Q95.218 -29.085 94.339 -30.791 Q93.462 -32.495 94.794 -34.069 L117.716 -62.547 Q118.543 -63.455 119.502 -63.663 Q120.46 -63.87 121.408 -63.455 Q122.356 -63.042 122.776 -62.13 Q123.195 -61.215 123.114 -60.056 L119.776 -41.456 H134.994 Q136.982 -41.456 137.861 -39.71 Q138.738 -37.965 137.487 -36.472 L114.575 -7.993 Q113.657 -7.005 112.698 -6.877 Q111.74 -6.752 110.792 -7.166 Q109.844 -7.579 109.424 -8.411 Q109.005 -9.245 109.257 -10.485 L112.424 -29.085 Z"/></g><g id="Medium-L" transform="matrix(1 0 0 1 1674.31 1556)"><path d="M19.35 -4.178 Q17.226 -4.178 15.662 -5.742 Q14.098 -7.306 14.098 -9.43 V-61.03 Q14.098 -63.154 15.662 -64.758 Q17.226 -66.363 19.35 -66.363 H92.25 Q94.534 -66.363 96.058 -64.839 Q97.58 -63.315 97.58 -61.03 L78.003 -36.66 Q72.671 -29.954 76.368 -22.357 Q80.064 -14.763 88.589 -14.763 Q90.876 -14.763 92.398 -13.239 Q93.922 -11.715 93.922 -9.43 Q93.922 -7.145 92.398 -5.662 Q90.876 -4.178 88.589 -4.178 H19.35 Z M113.475 -29.978 H98.234 Q96.428 -29.978 95.707 -31.421 Q94.988 -32.864 96.108 -34.227 L117.295 -60.603 Q118.017 -61.406 118.819 -61.586 Q119.62 -61.767 120.462 -61.406 Q121.305 -61.045 121.645 -60.262 Q121.986 -59.48 121.905 -58.477 L118.725 -40.563 H134.047 Q135.773 -40.563 136.493 -39.079 Q137.212 -37.596 136.172 -36.314 L114.944 -9.938 Q114.183 -9.054 113.381 -8.954 Q112.58 -8.854 111.738 -9.216 Q110.895 -9.577 110.555 -10.278 Q110.214 -10.98 110.414 -12.063 L113.475 -29.978 Z"/></g><g id="Regular-L" transform="matrix(1 0 0 1 1378.56 1556)"><path d="M19.35 -4.834 Q17.496 -4.834 16.125 -6.205 Q14.754 -7.576 14.754 -9.43 V-61.03 Q14.754 -62.884 16.125 -64.295 Q17.496 -65.706 19.35 -65.706 H93.444 Q95.46 -65.706 96.79 -64.376 Q98.121 -63.046 98.121 -61.03 L78.851 -37.084 Q73.288 -30.07 77.158 -22.088 Q81.028 -14.106 89.978 -14.106 Q91.993 -14.106 93.323 -12.776 Q94.654 -11.446 94.654 -9.43 Q94.654 -7.414 93.323 -6.124 Q91.993 -4.834 89.978 -4.834 H19.35 Z M114.246 -30.634 H98.927 Q97.314 -30.634 96.71 -31.884 Q96.105 -33.134 97.073 -34.343 L116.987 -59.176 Q117.632 -59.901 118.317 -60.062 Q119.002 -60.224 119.768 -59.901 Q120.534 -59.579 120.817 -58.893 Q121.099 -58.208 121.018 -57.321 L117.954 -39.906 H133.354 Q134.886 -39.906 135.49 -38.616 Q136.095 -37.326 135.208 -36.197 L115.213 -11.365 Q114.568 -10.559 113.883 -10.478 Q113.198 -10.397 112.432 -10.72 Q111.666 -11.042 111.383 -11.647 Q111.101 -12.252 111.263 -13.219 L114.246 -30.634 Z"/></g><g id="Light-L" transform="matrix(1 0 0 1 1082.77 1556)"><path d="M20.342 -5.95 Q18.489 -5.95 17.18 -7.26 Q15.87 -8.569 15.87 -10.422 V-60.038 Q15.87 -61.891 17.18 -63.255 Q18.489 -64.621 20.342 -64.621 H93.599 Q95.179 -64.621 96.123 -63.615 Q97.066 -62.61 97.066 -61.03 L78.666 -36.247 Q73.257 -28.954 77.324 -20.987 Q81.391 -13.021 90.411 -13.021 Q91.992 -13.021 92.998 -12.015 Q94.002 -11.009 94.002 -9.428 Q94.002 -7.848 92.998 -6.9 Q91.992 -5.95 90.411 -5.95 H20.342 Z M115.579 -30.82 H100.788 Q99.227 -30.82 98.627 -32.024 Q98.027 -33.227 98.887 -34.398 L115.22 -56.757 Q115.81 -57.466 116.506 -57.699 Q117.205 -57.929 117.924 -57.637 Q118.643 -57.345 118.956 -56.646 Q119.269 -55.944 119.281 -55.12 L116.621 -39.751 H131.524 Q132.973 -39.751 133.573 -38.492 Q134.173 -37.233 133.426 -36.173 L116.98 -13.814 Q116.39 -12.994 115.694 -12.842 Q114.995 -12.692 114.276 -12.984 Q113.557 -13.276 113.244 -13.895 Q112.931 -14.516 113.03 -15.453 L115.579 -30.82 Z"/></g><g id="Thin-L" transform="matrix(1 0 0 1 787.282 1556)"><path d="M21.335 -7.068 Q19.484 -7.068 18.236 -8.316 Q16.988 -9.564 16.988 -11.415 V-59.045 Q16.988 -60.896 18.236 -62.217 Q19.484 -63.536 21.335 -63.536 H93.754 Q94.899 -63.536 95.455 -62.855 Q96.011 -62.175 96.011 -61.03 L78.479 -35.411 Q73.227 -27.837 77.49 -19.887 Q81.754 -11.936 90.845 -11.936 Q91.99 -11.936 92.67 -11.254 Q93.351 -10.573 93.351 -9.428 Q93.351 -8.282 92.67 -7.676 Q91.99 -7.068 90.845 -7.068 H21.335 Z M116.913 -31.007 H102.649 Q101.139 -31.007 100.544 -32.163 Q99.951 -33.319 100.699 -34.453 L113.452 -54.338 Q113.986 -55.033 114.696 -55.333 Q115.405 -55.635 116.079 -55.373 Q116.751 -55.114 117.095 -54.398 Q117.44 -53.68 117.545 -52.918 L115.287 -39.597 H129.695 Q131.061 -39.597 131.656 -38.368 Q132.249 -37.141 131.643 -36.149 L118.748 -16.264 Q118.214 -15.427 117.504 -15.208 Q116.795 -14.987 116.121 -15.248 Q115.449 -15.508 115.105 -16.143 Q114.76 -16.78 114.797 -17.684 L116.913 -31.007 Z"/></g><g id="Ultralight-L" transform="matrix(1 0 0 1 491.205 1556)"><path d="M21.93 -7.737 Q20.08 -7.737 18.868 -8.948 Q17.657 -10.159 17.657 -12.01 V-58.45 Q17.657 -60.3 18.868 -61.593 Q20.08 -62.884 21.93 -62.884 H93.847 Q94.73 -62.884 95.055 -62.399 Q95.379 -61.912 95.379 -61.03 L78.368 -34.907 Q73.207 -27.167 77.59 -19.226 Q81.973 -11.284 91.106 -11.284 Q91.988 -11.284 92.475 -10.797 Q92.961 -10.31 92.961 -9.427 Q92.961 -8.543 92.475 -8.14 Q91.988 -7.737 91.106 -7.737 H21.93 Z M117.713 -31.118 H103.764 Q102.286 -31.118 101.696 -32.247 Q101.104 -33.376 101.787 -34.487 L112.391 -52.887 Q112.893 -53.572 113.61 -53.916 Q114.326 -54.257 114.971 -54.016 Q115.616 -53.774 115.979 -53.048 Q116.342 -52.322 116.503 -51.597 L114.487 -39.503 H128.597 Q129.914 -39.503 130.504 -38.294 Q131.096 -37.084 130.574 -36.135 L119.809 -17.734 Q119.307 -16.888 118.59 -16.627 Q117.874 -16.364 117.229 -16.606 Q116.584 -16.847 116.221 -17.492 Q115.858 -18.137 115.858 -19.024 L117.713 -31.118 Z"/></g><g id="Bold-M" transform="matrix(1 0 0 1 2281.8 1126)"><path d="M15 -7.667 Q11.938 -7.667 9.688 -9.917 Q7.438 -12.167 7.438 -15.23 V-55.23 Q7.438 -58.292 9.688 -60.542 Q11.938 -62.792 15 -62.792 H68.125 Q71.188 -62.792 73.438 -60.542 Q75.688 -58.292 75.688 -55.23 L58.875 -34.105 Q56.125 -30.73 58.062 -26.761 Q60 -22.792 64.375 -22.792 Q67.438 -22.792 69.688 -20.542 Q71.938 -18.292 71.938 -15.23 Q71.938 -12.167 69.688 -9.917 Q67.438 -7.667 64.375 -7.667 H15 Z M83.875 -27.667 H72.562 Q70.188 -27.667 69.094 -29.792 Q68 -31.917 69.562 -33.792 L92.375 -62.292 Q93.375 -63.48 94.625 -63.667 Q95.875 -63.855 96.938 -63.355 Q98 -62.855 98.656 -61.792 Q99.312 -60.73 99.062 -59.292 L96.125 -42.792 H107.438 Q109.812 -42.792 110.906 -40.667 Q112 -38.542 110.438 -36.667 L87.625 -8.167 Q86.625 -6.98 85.375 -6.792 Q84.125 -6.605 83.062 -7.105 Q82 -7.605 81.344 -8.667 Q80.688 -9.73 80.938 -11.167 L83.875 -27.667 Z"/></g><g id="Semibold-M" transform="matrix(1 0 0 1 1985.97 1126)"><path d="M15 -8.917 Q12.426 -8.917 10.557 -10.787 Q8.688 -12.656 8.688 -15.23 V-55.23 Q8.688 -57.804 10.557 -59.672 Q12.426 -61.542 15 -61.542 H70.407 Q72.981 -61.542 74.85 -59.672 Q76.72 -57.804 76.72 -55.23 L60.505 -34.92 Q57.266 -30.892 59.53 -26.217 Q61.794 -21.542 66.984 -21.542 Q69.558 -21.542 71.426 -19.672 Q73.296 -17.804 73.296 -15.23 Q73.296 -12.656 71.426 -10.787 Q69.558 -8.917 66.984 -8.917 H15 Z M85.343 -28.917 H73.866 Q71.873 -28.917 70.969 -30.689 Q70.065 -32.461 71.356 -34.01 L91.831 -59.63 Q92.669 -60.6 93.701 -60.76 Q94.734 -60.92 95.634 -60.529 Q96.532 -60.137 97.108 -59.239 Q97.683 -58.339 97.433 -57.119 L94.657 -41.542 H106.134 Q108.127 -41.542 109.031 -39.771 Q109.935 -37.999 108.644 -36.45 L88.169 -10.83 Q87.331 -9.86 86.299 -9.7 Q85.266 -9.54 84.366 -9.931 Q83.468 -10.322 82.892 -11.221 Q82.317 -12.121 82.567 -13.341 L85.343 -28.917 Z"/></g><g id="Medium-M" transform="matrix(1 0 0 1 1689.91 1126)"><path d="M15 -9.855 Q12.794 -9.855 11.209 -11.439 Q9.625 -13.024 9.625 -15.23 V-55.23 Q9.625 -57.436 11.209 -59.021 Q12.794 -60.605 15 -60.605 H72.12 Q74.326 -60.605 75.91 -59.021 Q77.495 -57.436 77.495 -55.23 L61.729 -35.531 Q58.123 -31.015 60.63 -25.81 Q63.139 -20.605 68.94 -20.605 Q71.146 -20.605 72.731 -19.021 Q74.315 -17.436 74.315 -15.23 Q74.315 -13.024 72.731 -11.439 Q71.146 -9.855 68.94 -9.855 H15 Z M86.442 -29.855 H74.845 Q73.136 -29.855 72.375 -31.361 Q71.614 -32.869 72.701 -34.172 L91.424 -57.632 Q92.139 -58.439 93.009 -58.579 Q93.877 -58.719 94.655 -58.41 Q95.433 -58.1 95.946 -57.322 Q96.459 -56.545 96.209 -55.489 L93.558 -40.605 H105.155 Q106.864 -40.605 107.625 -39.099 Q108.386 -37.591 107.299 -36.287 L88.576 -12.827 Q87.861 -12.021 86.991 -11.881 Q86.123 -11.741 85.345 -12.05 Q84.567 -12.36 84.054 -13.137 Q83.541 -13.915 83.791 -14.971 L86.442 -29.855 Z"/></g><g id="Regular-M" transform="matrix(1 0 0 1 1394.06 1126)"><path d="M15 -10.542 Q13.062 -10.542 11.688 -11.917 Q10.312 -13.292 10.312 -15.23 V-55.23 Q10.312 -57.167 11.688 -58.542 Q13.062 -59.917 15 -59.917 H73.375 Q75.312 -59.917 76.688 -58.542 Q78.062 -57.167 78.062 -55.23 L62.625 -35.98 Q58.75 -31.105 61.438 -25.511 Q64.125 -19.917 70.375 -19.917 Q72.312 -19.917 73.688 -18.542 Q75.062 -17.167 75.062 -15.23 Q75.062 -13.292 73.688 -11.917 Q72.312 -10.542 70.375 -10.542 H15 Z M87.25 -30.542 H75.562 Q74.062 -30.542 73.406 -31.855 Q72.75 -33.167 73.688 -34.292 L91.125 -56.167 Q91.75 -56.855 92.5 -56.98 Q93.25 -57.105 93.938 -56.855 Q94.625 -56.605 95.094 -55.917 Q95.562 -55.23 95.312 -54.292 L92.75 -39.917 H104.438 Q105.938 -39.917 106.594 -38.605 Q107.25 -37.292 106.312 -36.167 L88.875 -14.292 Q88.25 -13.605 87.5 -13.48 Q86.75 -13.355 86.062 -13.605 Q85.375 -13.855 84.906 -14.542 Q84.438 -15.23 84.688 -16.167 L87.25 -30.542 Z"/></g><g id="Light-M" transform="matrix(1 0 0 1 1098.18 1126)"><path d="M15.769 -11.745 Q13.976 -11.745 12.745 -12.975 Q11.515 -14.206 11.515 -15.999 V-54.461 Q11.515 -56.254 12.745 -57.496 Q13.976 -58.74 15.769 -58.74 H73.399 Q74.856 -58.74 75.834 -57.712 Q76.812 -56.686 76.812 -55.23 L62.193 -35.524 Q58.341 -30.287 61.269 -24.514 Q64.198 -18.74 70.711 -18.74 Q72.169 -18.74 73.195 -17.712 Q74.221 -16.686 74.221 -15.23 Q74.221 -13.774 73.195 -12.759 Q72.169 -11.745 70.711 -11.745 H15.769 Z M88.669 -31.024 H77.341 Q75.986 -31.024 75.377 -32.18 Q74.77 -33.336 75.586 -34.389 L89.61 -53.571 Q90.139 -54.21 90.829 -54.384 Q91.519 -54.556 92.17 -54.306 Q92.823 -54.056 93.243 -53.429 Q93.664 -52.802 93.485 -51.96 L91.331 -39.461 H102.683 Q104.014 -39.461 104.623 -38.292 Q105.23 -37.124 104.438 -36.095 L90.39 -16.912 Q89.861 -16.25 89.171 -16.076 Q88.481 -15.904 87.83 -16.154 Q87.177 -16.404 86.757 -17.031 Q86.336 -17.657 86.539 -18.524 L88.669 -31.024 Z"/></g><g id="Thin-M" transform="matrix(1 0 0 1 802.565 1126)"><path d="M16.539 -12.946 Q14.89 -12.946 13.803 -14.032 Q12.716 -15.12 12.716 -16.769 V-53.691 Q12.716 -55.34 13.803 -56.451 Q14.89 -57.561 16.539 -57.561 H73.422 Q74.399 -57.561 74.981 -56.884 Q75.562 -56.206 75.562 -55.23 L61.76 -35.066 Q57.932 -29.47 61.101 -23.516 Q64.269 -17.561 71.047 -17.561 Q72.024 -17.561 72.703 -16.884 Q73.38 -16.206 73.38 -15.23 Q73.38 -14.254 72.703 -13.6 Q72.024 -12.946 71.047 -12.946 H16.539 Z M90.086 -31.504 H79.12 Q77.909 -31.504 77.349 -32.504 Q76.789 -33.504 77.485 -34.485 L88.096 -50.975 Q88.529 -51.566 89.159 -51.787 Q89.789 -52.009 90.404 -51.759 Q91.019 -51.509 91.391 -50.941 Q91.765 -50.374 91.659 -49.629 L89.914 -39.004 H100.927 Q102.091 -39.004 102.651 -37.98 Q103.211 -36.956 102.562 -36.024 L91.904 -19.532 Q91.471 -18.894 90.841 -18.672 Q90.211 -18.451 89.596 -18.701 Q88.981 -18.951 88.609 -19.519 Q88.235 -20.086 88.39 -20.879 L90.086 -31.504 Z"/></g><g id="Ultralight-M" transform="matrix(1 0 0 1 506.415 1126)"><path d="M17 -13.667 Q15.438 -13.667 14.438 -14.667 Q13.438 -15.667 13.438 -17.23 V-53.23 Q13.438 -54.792 14.438 -55.824 Q15.438 -56.855 17 -56.855 H73.438 Q74.125 -56.855 74.469 -56.386 Q74.812 -55.917 74.812 -55.23 L61.5 -34.792 Q57.688 -28.98 61 -22.917 Q64.312 -16.855 71.25 -16.855 Q71.938 -16.855 72.406 -16.386 Q72.875 -15.917 72.875 -15.23 Q72.875 -14.542 72.406 -14.105 Q71.938 -13.667 71.25 -13.667 H17 Z M90.938 -31.792 H80.188 Q79.062 -31.792 78.531 -32.699 Q78 -33.605 78.625 -34.542 L87.188 -49.417 Q87.562 -49.98 88.156 -50.23 Q88.75 -50.48 89.344 -50.23 Q89.938 -49.98 90.281 -49.449 Q90.625 -48.917 90.562 -48.23 L89.062 -38.73 H99.875 Q100.938 -38.73 101.469 -37.792 Q102 -36.855 101.438 -35.98 L92.812 -21.105 Q92.438 -20.48 91.844 -20.23 Q91.25 -19.98 90.656 -20.23 Q90.062 -20.48 89.719 -21.011 Q89.375 -21.542 89.5 -22.292 L90.938 -31.792 Z"/></g><g id="Bold-S" transform="matrix(1 0 0 1 2294.23 696)"><path d="M13.037 -14.272 Q10.602 -14.272 9.024 -15.85 Q7.446 -17.428 7.446 -19.807 V-50.653 Q7.446 -53.032 9.024 -54.61 Q10.602 -56.188 13.047 -56.188 H55.723 Q57.972 -56.188 59.634 -54.526 Q61.295 -52.864 61.295 -50.615 L48.524 -32.764 Q46.847 -30.397 48.277 -27.907 Q49.707 -25.417 52.5 -25.417 Q54.688 -25.417 56.364 -23.761 Q58.041 -22.105 58.041 -19.865 Q58.041 -17.625 56.379 -15.949 Q54.717 -14.272 52.468 -14.272 H13.037 Z M66.473 -28.474 H58.139 Q56.426 -28.474 55.63 -30.052 Q54.836 -31.63 55.97 -33.011 L72.73 -55.593 Q73.476 -56.533 74.413 -56.681 Q75.35 -56.829 76.089 -56.451 Q76.829 -56.072 77.297 -55.283 Q77.766 -54.494 77.569 -53.426 L75.547 -41.986 H83.881 Q85.595 -41.986 86.39 -40.408 Q87.184 -38.83 86.05 -37.449 L69.29 -14.867 Q68.544 -13.927 67.607 -13.779 Q66.671 -13.631 65.931 -14.009 Q65.191 -14.388 64.723 -15.177 Q64.254 -15.966 64.451 -17.034 L66.473 -28.474 Z"/></g><g id="Semibold-S" transform="matrix(1 0 0 1 1998.1 696)"><path d="M13.037 -15.258 Q10.988 -15.258 9.711 -16.537 Q8.432 -17.814 8.432 -19.807 V-50.653 Q8.432 -52.646 9.711 -53.923 Q10.988 -55.202 13.047 -55.202 H57.524 Q59.387 -55.202 60.748 -53.84 Q62.11 -52.479 62.11 -50.615 L49.81 -33.407 Q47.747 -30.526 49.435 -27.478 Q51.122 -24.431 54.558 -24.431 Q56.36 -24.431 57.736 -23.074 Q59.113 -21.719 59.113 -19.865 Q59.113 -18.011 57.751 -16.635 Q56.39 -15.258 54.527 -15.258 H13.037 Z M67.631 -29.46 H59.168 Q57.755 -29.46 57.11 -30.759 Q56.465 -32.059 57.385 -33.183 L72.301 -53.491 Q72.918 -54.261 73.684 -54.387 Q74.449 -54.513 75.061 -54.221 Q75.671 -53.929 76.075 -53.269 Q76.48 -52.608 76.282 -51.711 L74.389 -41 H82.852 Q84.265 -41 84.91 -39.701 Q85.555 -38.401 84.635 -37.277 L69.719 -16.968 Q69.102 -16.199 68.336 -16.073 Q67.571 -15.947 66.959 -16.239 Q66.349 -16.531 65.945 -17.191 Q65.54 -17.852 65.738 -18.749 L67.631 -29.46 Z"/></g><g id="Medium-S" transform="matrix(1 0 0 1 1701.85 696)"><path d="M13.037 -15.998 Q11.278 -15.998 10.224 -17.05 Q9.172 -18.104 9.172 -19.807 V-50.653 Q9.172 -52.356 10.224 -53.41 Q11.278 -54.462 13.047 -54.462 H58.875 Q60.448 -54.462 61.584 -53.326 Q62.722 -52.189 62.722 -50.615 L50.775 -33.89 Q48.423 -30.622 50.303 -27.157 Q52.183 -23.691 56.102 -23.691 Q57.614 -23.691 58.766 -22.561 Q59.917 -21.429 59.917 -19.865 Q59.917 -18.301 58.781 -17.149 Q57.643 -15.998 56.07 -15.998 H13.037 Z M68.499 -30.2 H59.94 Q58.752 -30.2 58.219 -31.29 Q57.687 -32.381 58.446 -33.311 L71.979 -51.916 Q72.5 -52.555 73.137 -52.666 Q73.773 -52.776 74.288 -52.549 Q74.803 -52.321 75.159 -51.757 Q75.514 -51.193 75.317 -50.425 L73.521 -40.26 H82.08 Q83.268 -40.26 83.801 -39.17 Q84.333 -38.079 83.574 -37.149 L70.041 -18.544 Q69.52 -17.905 68.883 -17.794 Q68.247 -17.684 67.732 -17.911 Q67.217 -18.139 66.861 -18.703 Q66.506 -19.267 66.703 -20.035 L68.499 -30.2 Z"/></g><g id="Regular-S" transform="matrix(1 0 0 1 1405.73 696)"><path d="M13.037 -16.541 Q11.49 -16.541 10.602 -17.428 Q9.715 -18.316 9.715 -19.807 V-50.653 Q9.715 -52.144 10.602 -53.032 Q11.49 -53.919 13.047 -53.919 H59.865 Q61.226 -53.919 62.198 -52.948 Q63.169 -51.977 63.169 -50.615 L51.482 -34.244 Q48.918 -30.693 50.94 -26.921 Q52.962 -23.148 57.234 -23.148 Q58.534 -23.148 59.52 -22.183 Q60.506 -21.217 60.506 -19.865 Q60.506 -18.513 59.535 -17.527 Q58.564 -16.541 57.203 -16.541 H13.037 Z M69.136 -30.743 H60.506 Q59.484 -30.743 59.033 -31.679 Q58.583 -32.616 59.224 -33.405 L71.744 -50.76 Q72.194 -51.306 72.736 -51.404 Q73.278 -51.503 73.722 -51.323 Q74.166 -51.141 74.487 -50.648 Q74.807 -50.155 74.61 -49.481 L72.884 -39.717 H81.514 Q82.537 -39.717 82.987 -38.78 Q83.437 -37.844 82.796 -37.055 L70.276 -19.7 Q69.827 -19.154 69.284 -19.055 Q68.742 -18.957 68.298 -19.137 Q67.854 -19.319 67.533 -19.812 Q67.213 -20.305 67.41 -20.979 L69.136 -30.743 Z"/></g><g id="Light-S" transform="matrix(1 0 0 1 1109.75 696)"><path d="M13.644 -17.489 Q12.211 -17.489 11.437 -18.263 Q10.663 -19.037 10.663 -20.414 V-50.046 Q10.663 -51.423 11.437 -52.206 Q12.211 -52.99 13.654 -52.99 H59.884 Q60.866 -52.99 61.524 -52.293 Q62.183 -51.597 62.183 -50.615 L51.141 -33.884 Q48.595 -30.048 50.807 -26.134 Q53.019 -22.219 57.499 -22.219 Q58.421 -22.219 59.132 -21.529 Q59.843 -20.838 59.843 -19.865 Q59.843 -18.893 59.146 -18.191 Q58.45 -17.489 57.468 -17.489 H13.644 Z M70.256 -31.122 H61.91 Q61.001 -31.122 60.588 -31.936 Q60.177 -32.75 60.722 -33.481 L70.548 -48.712 Q70.922 -49.219 71.417 -49.356 Q71.912 -49.492 72.328 -49.312 Q72.744 -49.131 73.026 -48.685 Q73.309 -48.24 73.168 -47.641 L71.764 -39.357 H80.129 Q81.019 -39.357 81.432 -38.534 Q81.843 -37.71 81.316 -36.997 L71.472 -21.768 Q71.098 -21.241 70.603 -21.104 Q70.108 -20.968 69.692 -21.148 Q69.276 -21.329 68.994 -21.775 Q68.711 -22.22 68.871 -22.838 L70.256 -31.122 Z"/></g><g id="Thin-S" transform="matrix(1 0 0 1 814.015 696)"><path d="M14.251 -18.437 Q12.932 -18.437 12.271 -19.097 Q11.611 -19.758 11.611 -21.02 V-49.44 Q11.611 -50.702 12.271 -51.382 Q12.932 -52.06 14.26 -52.06 H59.903 Q60.505 -52.06 60.852 -51.639 Q61.197 -51.218 61.197 -50.615 L50.8 -33.523 Q48.273 -29.403 50.675 -25.347 Q53.075 -21.289 57.765 -21.289 Q58.306 -21.289 58.743 -20.874 Q59.179 -20.459 59.179 -19.865 Q59.179 -19.271 58.758 -18.854 Q58.336 -18.437 57.733 -18.437 H14.251 Z M71.374 -31.501 H63.313 Q62.517 -31.501 62.144 -32.191 Q61.77 -32.882 62.221 -33.557 L69.354 -46.664 Q69.652 -47.133 70.1 -47.308 Q70.547 -47.482 70.934 -47.302 Q71.321 -47.12 71.565 -46.723 Q71.811 -46.324 71.727 -45.802 L70.646 -38.996 H78.744 Q79.503 -38.996 79.876 -38.287 Q80.25 -37.578 79.837 -36.941 L72.666 -23.834 Q72.368 -23.327 71.92 -23.152 Q71.473 -22.978 71.086 -23.158 Q70.699 -23.34 70.455 -23.737 Q70.209 -24.136 70.331 -24.696 L71.374 -31.501 Z"/></g><g id="Ultralight-S" transform="matrix(1 0 0 1 517.792 696)"><path d="M14.615 -19.006 Q13.364 -19.006 12.772 -19.598 Q12.18 -20.19 12.18 -21.385 V-49.075 Q12.18 -50.27 12.772 -50.887 Q13.364 -51.503 14.625 -51.503 H59.915 Q60.289 -51.503 60.447 -51.247 Q60.605 -50.99 60.605 -50.615 L50.595 -33.307 Q48.08 -29.017 50.595 -24.874 Q53.11 -20.732 57.924 -20.732 Q58.238 -20.732 58.509 -20.482 Q58.781 -20.231 58.781 -19.865 Q58.781 -19.499 58.524 -19.253 Q58.268 -19.006 57.893 -19.006 H14.615 Z M72.046 -31.729 H64.156 Q63.429 -31.729 63.077 -32.345 Q62.726 -32.962 63.12 -33.603 L68.637 -45.435 Q68.89 -45.881 69.309 -46.079 Q69.728 -46.276 70.098 -46.096 Q70.468 -45.914 70.689 -45.544 Q70.911 -45.174 70.862 -44.698 L69.974 -38.78 H77.914 Q78.592 -38.78 78.943 -38.139 Q79.294 -37.498 78.949 -36.907 L73.383 -25.075 Q73.13 -24.578 72.711 -24.381 Q72.292 -24.184 71.922 -24.364 Q71.552 -24.546 71.331 -24.916 Q71.109 -25.286 71.207 -25.811 L72.046 -31.729 Z"/></g></g></svg>