<svg xmlns="http://www.w3.org/2000/svg" version="1.1" width="3300" height="2000"><g id="Notes"><style>
    text {
      font-family: monospace;
      text-anchor: middle;
    }
    text.emphasis {
      font-weight:bold;
    }
    text.lanchor {
      text-anchor: start;
    }
  </style><rect height="2200" id="artboard" fill="white" width="3300" x="0" y="0"/><line id="" style="fill:none;stroke:black;stroke-width:0.5;" x1="263" x2="3036" y1="292" y2="292"/><text class="lanchor emphasis" transform="matrix(1 0 0 1 263 322)">Weight/Scale Variations</text><text transform="matrix(1 0 0 1 559.711 322)">Ultralight</text><text transform="matrix(1 0 0 1 856.422 322)">Thin</text><text transform="matrix(1 0 0 1 1153.13 322)">Light</text><text transform="matrix(1 0 0 1 1449.84 322)">Regular</text><text transform="matrix(1 0 0 1 1746.56 322)">Medium</text><text transform="matrix(1 0 0 1 2043.27 322)">Semibold</text><text transform="matrix(1 0 0 1 2339.98 322)">Bold</text><text transform="matrix(1 0 0 1 2636.69 322)">Heavy</text><text transform="matrix(1 0 0 1 2933.4 322)">Black</text><text id="template-version" style="text-anchor: end;" transform="matrix(1 0 0 1 3036 1933)">Template v.1.0</text><text class="lanchor" transform="matrix(1 0 0 1 263 726)">Small</text><text class="lanchor" transform="matrix(1 0 0 1 263 1156)">Medium</text><text class="lanchor" transform="matrix(1 0 0 1 263 1586)">Large</text></g><g id="Guides"><g id="H-reference" style="fill:#27AAE1;stroke:none;" transform="matrix(1 0 0 1 339 696)"><path d="M 54.9316 0 L 57.666 0 L 30.5664 -70.459 L 28.0762 -70.459 L 0.976562 0 L 3.66211 0 L 12.9395 -24.4629 L 45.7031 -24.4629 Z M 29.1992 -67.0898 L 29.4434 -67.0898 L 44.8242 -26.709 L 13.8184 -26.709 Z"/></g><line id="Baseline-S" style="fill:none;stroke:#27AAE1;opacity:1;stroke-width:0.577;" x1="263" x2="3036" y1="696" y2="696"/><line id="Capline-S" style="fill:none;stroke:#27AAE1;opacity:1;stroke-width:0.577;" x1="263" x2="3036" y1="625.541" y2="625.541"/><g id="H-reference" style="fill:#27AAE1;stroke:none;" transform="matrix(1 0 0 1 339 1126)"><path d="M 54.9316 0 L 57.666 0 L 30.5664 -70.459 L 28.0762 -70.459 L 0.976562 0 L 3.66211 0 L 12.9395 -24.4629 L 45.7031 -24.4629 Z M 29.1992 -67.0898 L 29.4434 -67.0898 L 44.8242 -26.709 L 13.8184 -26.709 Z"/></g><line id="Baseline-M" style="fill:none;stroke:#27AAE1;opacity:1;stroke-width:0.577;" x1="263" x2="3036" y1="1126" y2="1126"/><line id="Capline-M" style="fill:none;stroke:#27AAE1;opacity:1;stroke-width:0.577;" x1="263" x2="3036" y1="1055.54" y2="1055.54"/><g id="H-reference" style="fill:#27AAE1;stroke:none;" transform="matrix(1 0 0 1 339 1556)"><path d="M 54.9316 0 L 57.666 0 L 30.5664 -70.459 L 28.0762 -70.459 L 0.976562 0 L 3.66211 0 L 12.9395 -24.4629 L 45.7031 -24.4629 Z M 29.1992 -67.0898 L 29.4434 -67.0898 L 44.8242 -26.709 L 13.8184 -26.709 Z"/></g><line id="Baseline-L" style="fill:none;stroke:#27AAE1;opacity:1;stroke-width:0.577;" x1="263" x2="3036" y1="1556" y2="1556"/><line id="Capline-L" style="fill:none;stroke:#27AAE1;opacity:1;stroke-width:0.577;" x1="263" x2="3036" y1="1485.54" y2="1485.54"/><rect height="119.336" id="left-margin" style="fill:darkred;stroke:none;opacity:0.4;" width="12.4512" x="1394.06" y="1030.79"/><rect height="119.336" id="right-margin" style="fill:darkgreen;stroke:none;opacity:0.4;" width="12.4512" x="1502.5112" y="1030.79"/><rect x="1406.5112" y="1045" width="96" height="96" fill="none" stroke="blue" stroke-dasharray="5"/><rect x="1394.06" y="1030.79" width="120.9024" height="119.336" fill="none" stroke="blue"/></g><g id="Symbols"><g id="Bold-L" transform="matrix(1 0 0 1 2266 1556)"><path d="M28.38 41.848  15.964 33.946 Q25.155 19.111 26.929 1.051 Q28.703 -17.009 28.703 -35.23 Q28.703 -53.29 26.929 -71.35 Q25.155 -89.41 15.964 -104.406 L28.38 -112.469 Q31.605 -107.309 33.943 -101.907 Q36.281 -96.505 38.055 -91.022 H49.826 Q61.436 -91.022 69.66 -82.315 Q77.884 -73.607 77.884 -61.514 V-9.107 Q77.884 3.309 69.66 11.855 Q61.436 20.401 49.826 20.401 H38.055 Q36.281 26.045 33.943 31.447 Q31.605 36.849 28.38 41.848 Z M118.035 -5.56  89.655 -35.23  118.035 -64.9  128.678 -54.257  118.68 -42.809 H145.931 V-27.651 H118.68 L128.678 -16.364 L118.035 -5.56 Z M41.602 5.244 H49.826 Q55.148 5.244 58.856 1.051 Q62.565 -3.141 62.565 -9.269 V-61.191 Q62.565 -67.319 58.856 -71.511 Q55.148 -75.704 49.826 -75.704 H41.764 Q43.376 -65.706 43.618 -55.628 Q43.86 -45.55 43.86 -35.23 Q43.86 -25.071 43.538 -14.912 Q43.215 -4.754 41.602 5.244 Z"/></g><g id="Semibold-L" transform="matrix(1 0 0 1 1970.27 1556)"><path d="M28.449 39.184  17.926 32.543 Q26.977 17.57 28.611 0.14 Q30.244 -17.289 30.244 -35.23 Q30.244 -53.009 28.611 -70.439 Q26.977 -87.868 17.926 -102.934 L28.449 -109.734 Q31.465 -104.785 33.663 -99.628 Q35.86 -94.472 37.494 -89.2 H50.107 Q61.156 -89.2 68.959 -80.983 Q76.761 -72.766 76.761 -61.233 V-9.388 Q76.761 2.398 68.959 10.523 Q61.156 18.648 50.107 18.648 H37.494 Q35.86 24.012 33.663 29.168 Q31.465 34.325 28.449 39.184 Z M117.754 -7.522  91.197 -35.23  117.754 -62.867  126.715 -53.908  115.666 -41.617 H144.319 V-28.843 H115.666 L126.715 -16.644 L117.754 -7.522 Z M40.551 5.805 H50.107 Q55.849 5.805 59.872 1.367 Q63.897 -3.072 63.897 -9.478 V-61.051 Q63.897 -67.459 59.872 -71.897 Q55.849 -76.334 50.107 -76.334 H40.641 Q42.394 -66.267 42.707 -56.049 Q43.018 -45.831 43.018 -35.23 Q43.018 -24.721 42.626 -14.456 Q42.233 -4.193 40.551 5.805 Z"/></g><g id="Medium-L" transform="matrix(1 0 0 1 1674.31 1556)"><path d="M28.503 37.186  19.398 31.492 Q28.345 16.412 29.873 -0.544 Q31.402 -17.499 31.402 -35.23 Q31.402 -52.8 29.873 -69.755 Q28.345 -86.711 19.398 -101.829 L28.503 -107.684 Q31.36 -102.892 33.453 -97.919 Q35.544 -92.946 37.073 -87.833 H50.316 Q60.946 -87.833 68.433 -79.983 Q75.921 -72.135 75.921 -61.024 V-9.598 Q75.921 1.714 68.433 9.523 Q60.946 17.334 50.316 17.334 H37.073 Q35.544 22.486 33.453 27.459 Q31.36 32.432 28.503 37.186 Z M117.545 -8.995  92.354 -35.23  117.545 -61.341  125.243 -53.645  113.404 -40.724 H143.109 V-29.736 H113.404 L125.243 -16.854 L117.545 -8.995 Z M39.763 6.226 H50.316 Q56.375 6.226 60.635 1.603 Q64.897 -3.019 64.897 -9.636 V-60.946 Q64.897 -67.564 60.635 -72.185 Q56.375 -76.808 50.316 -76.808 H39.801 Q41.659 -66.688 42.023 -56.365 Q42.388 -46.04 42.388 -35.23 Q42.388 -24.458 41.943 -14.114 Q41.498 -3.772 39.763 6.226 Z"/></g><g id="Regular-L" transform="matrix(1 0 0 1 1378.56 1556)"><path d="M28.541 35.72  20.479 30.721 Q29.348 15.564 30.799 -1.045 Q32.25 -17.654 32.25 -35.23 Q32.25 -52.645 30.799 -69.254 Q29.348 -85.862 20.479 -101.02 L28.541 -106.18 Q31.283 -101.504 33.298 -96.666 Q35.314 -91.829 36.765 -86.83 H50.471 Q60.791 -86.83 68.047 -79.251 Q75.304 -71.672 75.304 -60.869 V-9.752 Q75.304 1.213 68.047 8.791 Q60.791 16.37 50.471 16.37 H36.765 Q35.314 21.369 33.298 26.206 Q31.283 31.044 28.541 35.72 Z M117.39 -10.075  93.203 -35.23  117.39 -60.224  124.163 -53.451  111.746 -40.067 H142.222 V-30.392 H111.746 L124.163 -17.009 L117.39 -10.075 Z M39.184 6.534 H50.471 Q56.76 6.534 61.194 1.777 Q65.629 -2.98 65.629 -9.752 V-60.869 Q65.629 -67.641 61.194 -72.398 Q56.76 -77.155 50.471 -77.155 H39.184 Q41.119 -66.996 41.522 -56.596 Q41.925 -46.195 41.925 -35.23 Q41.925 -24.265 41.441 -13.864 Q40.958 -3.464 39.184 6.534 Z"/></g><g id="Light-L" transform="matrix(1 0 0 1 1082.77 1556)"><path d="M29.968 32.556  23.891 28.736 Q32.697 13.703 33.808 -2.193 Q34.917 -18.088 34.917 -35.23 Q34.917 -52.211 33.808 -68.138 Q32.697 -84.065 23.891 -99.035 L29.968 -102.955 Q32.71 -98.216 34.693 -93.411 Q36.678 -88.604 38.068 -83.605 H51.526 Q61.101 -83.605 67.799 -76.523 Q74.498 -69.439 74.498 -59.318 V-11.241 Q74.498 -1.021 67.799 6.063 Q61.101 13.145 51.526 13.145 H38.068 Q36.678 18.081 34.725 22.951 Q32.771 27.819 29.968 32.556 Z M115.902 -12.184  93.947 -35.23  115.902 -58.115  121.062 -52.955  108.025 -38.889 H138.935 V-31.571 H108.025 L121.062 -17.443 L115.902 -12.184 Z M39.805 5.728 H51.526 Q58 5.728 62.589 0.753 Q67.18 -4.22 67.18 -11.304 V-59.38 Q67.18 -66.338 62.589 -71.313 Q58 -76.286 51.526 -76.286 H39.805 Q41.615 -66.438 41.925 -56.317 Q42.235 -46.195 42.235 -35.23 Q42.235 -24.265 41.875 -14.113 Q41.515 -3.96 39.805 5.728 Z"/></g><g id="Thin-L" transform="matrix(1 0 0 1 787.282 1556)"><path d="M31.394 29.394  27.301 26.751 Q36.046 11.842 36.815 -3.34 Q37.584 -18.521 37.584 -35.23 Q37.584 -51.777 36.815 -67.02 Q36.046 -82.265 27.301 -97.05 L31.394 -99.73 Q34.135 -94.93 36.089 -90.155 Q38.042 -85.379 39.369 -80.38 H52.58 Q61.412 -80.38 67.551 -73.793 Q73.691 -67.207 73.691 -57.768 V-12.729 Q73.691 -3.253 67.551 3.333 Q61.412 9.92 52.58 9.92 H39.369 Q38.042 14.795 36.151 19.695 Q34.259 24.594 31.394 29.394 Z M114.413 -14.292  94.691 -35.23  114.413 -56.007  117.961 -52.46  104.305 -37.71 H135.648 V-32.75 H104.305 L117.961 -17.876 L114.413 -14.292 Z M40.424 4.921 H52.58 Q59.24 4.921 63.986 -0.269 Q68.73 -5.46 68.73 -12.853 V-57.892 Q68.73 -65.037 63.986 -70.228 Q59.24 -75.418 52.58 -75.418 H40.424 Q42.11 -65.88 42.328 -56.038 Q42.546 -46.195 42.546 -35.23 Q42.546 -24.265 42.309 -14.361 Q42.073 -4.455 40.424 4.921 Z"/></g><g id="Ultralight-L" transform="matrix(1 0 0 1 491.205 1556)"><path d="M32.25 27.496  29.348 25.561 Q38.055 10.726 38.619 -4.028 Q39.184 -18.782 39.184 -35.23 Q39.184 -51.516 38.619 -66.351 Q38.055 -81.186 29.348 -95.86 L32.25 -97.795 Q34.991 -92.957 36.926 -88.201 Q38.861 -83.444 40.151 -78.445 H53.212 Q61.598 -78.445 67.403 -72.156 Q73.207 -65.867 73.207 -56.837 V-13.622 Q73.207 -4.592 67.403 1.696 Q61.598 7.985 53.212 7.985 H40.151 Q38.861 12.823 37.007 17.741 Q35.153 22.659 32.25 27.496 Z M113.52 -15.557  95.138 -35.23  113.52 -54.741  116.1 -52.161  102.071 -37.004 H133.676 V-33.456 H102.071 L116.1 -18.137 L113.52 -15.557 Z M40.796 4.438 H53.212 Q59.985 4.438 64.823 -0.884 Q69.66 -6.205 69.66 -13.784 V-56.999 Q69.66 -64.255 64.823 -69.576 Q59.985 -74.897 53.212 -74.897 H40.796 Q42.409 -65.545 42.57 -55.87 Q42.731 -46.195 42.731 -35.23 Q42.731 -24.265 42.57 -14.509 Q42.409 -4.754 40.796 4.438 Z"/></g><g id="Bold-M" transform="matrix(1 0 0 1 2281.8 1126)"><path d="M24 24.02  11 15.52 Q17 4.77 19.125 -8.73 Q21.25 -22.23 21.25 -35.23 Q21.25 -48.23 19.125 -61.73 Q17 -75.23 11 -85.98 L24 -94.48 Q26.125 -90.98 27.688 -87.23 Q29.25 -83.48 30.625 -79.48 H39.375 Q49 -79.355 55.812 -72.417 Q62.625 -65.48 62.625 -55.73 V-14.48 Q62.625 -4.73 55.812 2.208 Q49 9.145 39.375 9.145 H30.625 Q29.25 13.145 27.625 16.833 Q26 20.52 24 24.02 Z M90.625 -10.48  66.375 -35.23  90.625 -59.98  101.625 -48.98  96.25 -43.105 H113.75 V-27.355 H96.25 L101.625 -21.48 L90.625 -10.48 Z M34.625 -6.605 H39.25 Q42.5 -6.605 44.688 -8.98 Q46.875 -11.355 46.875 -14.73 V-55.605 Q46.875 -58.98 44.688 -61.355 Q42.5 -63.73 39.25 -63.73 H34.625 Q36 -56.48 36.5 -49.292 Q37 -42.105 37 -35.23 Q37 -28.355 36.5 -21.105 Q36 -13.855 34.625 -6.605 Z"/></g><g id="Semibold-M" transform="matrix(1 0 0 1 1985.97 1126)"><path d="M24.054 21.249  13.065 14.053 Q18.902 3.194 20.864 -9.654 Q22.826 -22.501 22.826 -35.23 Q22.826 -47.904 20.864 -60.751 Q18.902 -73.6 13.065 -84.459 L24.054 -91.654 Q25.962 -88.317 27.416 -84.811 Q28.87 -81.306 30.081 -77.632 H39.646 Q48.674 -77.507 55.079 -71.059 Q61.484 -64.61 61.484 -55.459 V-14.751 Q61.484 -5.654 55.079 0.821 Q48.674 7.298 39.646 7.298 H30.081 Q28.87 10.971 27.38 14.441 Q25.891 17.911 24.054 21.249 Z M90.354 -12.545  67.951 -35.23  90.354 -57.915  99.614 -48.6  93.153 -41.855 H112.12 V-28.605 H93.153 L99.614 -21.806 L90.354 -12.545 Z M33.538 -6.007 H39.576 Q43.206 -6.007 45.72 -8.626 Q48.234 -11.246 48.234 -14.947 V-55.442 Q48.234 -59.142 45.72 -61.762 Q43.206 -64.382 39.576 -64.382 H33.484 Q34.968 -57.077 35.549 -49.727 Q36.13 -42.376 36.13 -35.23 Q36.13 -28.029 35.576 -20.67 Q35.021 -13.311 33.538 -6.007 Z"/></g><g id="Medium-M" transform="matrix(1 0 0 1 1689.91 1126)"><path d="M24.095 19.17  14.614 12.953 Q20.329 2.011 22.169 -10.346 Q24.009 -22.705 24.009 -35.23 Q24.009 -47.659 22.169 -60.017 Q20.329 -72.376 14.614 -83.317 L24.095 -89.535 Q25.84 -86.32 27.212 -82.997 Q28.584 -79.676 29.674 -76.246 H39.85 Q48.429 -76.121 54.529 -70.04 Q60.627 -63.959 60.627 -55.255 V-14.955 Q60.627 -6.346 54.529 -0.217 Q48.429 5.911 39.85 5.911 H29.674 Q28.584 9.341 27.198 12.648 Q25.81 15.955 24.095 19.17 Z M90.15 -14.094  69.134 -35.23  90.15 -56.366  98.106 -48.314  90.829 -40.917 H110.896 V-29.542 H90.829 L98.106 -22.051 L90.15 -14.094 Z M32.722 -5.559 H39.821 Q43.736 -5.559 46.495 -8.361 Q49.252 -11.165 49.252 -15.11 V-55.32 Q49.252 -59.265 46.495 -62.069 Q43.736 -64.871 39.821 -64.871 H32.627 Q34.193 -57.526 34.835 -50.054 Q35.479 -42.58 35.479 -35.23 Q35.479 -27.784 34.884 -20.344 Q34.288 -12.904 32.722 -5.559 Z"/></g><g id="Regular-M" transform="matrix(1 0 0 1 1394.06 1126)"><path d="M24.125 17.645  15.75 12.145 Q21.375 1.145 23.125 -10.855 Q24.875 -22.855 24.875 -35.23 Q24.875 -47.48 23.125 -59.48 Q21.375 -71.48 15.75 -82.48 L24.125 -87.98 Q25.75 -84.855 27.062 -81.667 Q28.375 -78.48 29.375 -75.23 H40 Q48.25 -75.105 54.125 -69.292 Q60 -63.48 60 -55.105 V-15.105 Q60 -6.855 54.125 -0.98 Q48.25 4.895 40 4.895 H29.375 Q28.375 8.145 27.062 11.333 Q25.75 14.52 24.125 17.645 Z M90 -15.23  70 -35.23  90 -55.23  97 -48.105  89.125 -40.23 H110 V-30.23 H89.125 L97 -22.23 L90 -15.23 Z M32.125 -5.23 H40 Q44.125 -5.23 47.062 -8.167 Q50 -11.105 50 -15.23 V-55.23 Q50 -59.355 47.062 -62.292 Q44.125 -65.23 40 -65.23 H32 Q33.625 -57.855 34.312 -50.292 Q35 -42.73 35 -35.23 Q35 -27.605 34.375 -20.105 Q33.75 -12.605 32.125 -5.23 Z"/></g><g id="Light-M" transform="matrix(1 0 0 1 1098.18 1126)"><path d="M24.703 15.77  18.442 11.616 Q24.356 0.52 25.674 -11.167 Q26.99 -22.855 26.99 -35.23 Q26.99 -47.48 25.674 -59.191 Q24.356 -70.902 18.442 -81.951 L24.703 -86.105 Q26.471 -82.787 27.808 -79.456 Q29.144 -76.124 30.144 -72.73 H40.578 Q48.203 -72.652 53.572 -67.201 Q58.943 -61.749 58.943 -53.902 V-16.355 Q58.943 -8.586 53.572 -3.12 Q48.203 2.346 40.578 2.346 H30.144 Q29.144 5.741 27.831 9.096 Q26.519 12.453 24.703 15.77 Z M89.135 -17.009  71.203 -35.23  89.135 -53.402  94.404 -48.057  85.567 -38.98 H107.5 V-31.48 H85.567 L94.404 -22.277 L89.135 -17.009 Z M32.125 -5.23 H40.578 Q45.086 -5.23 48.265 -8.527 Q51.443 -11.826 51.443 -16.48 V-54.027 Q51.443 -58.634 48.265 -61.932 Q45.086 -65.23 40.578 -65.23 H32.047 Q33.578 -57.951 34.072 -50.485 Q34.568 -43.019 34.568 -35.23 Q34.568 -27.365 34.11 -19.912 Q33.654 -12.461 32.125 -5.23 Z"/></g><g id="Thin-M" transform="matrix(1 0 0 1 802.565 1126)"><path d="M25.279 13.895  21.135 11.088 Q27.336 -0.105 28.221 -11.48 Q29.106 -22.855 29.106 -35.23 Q29.106 -47.48 28.221 -58.902 Q27.336 -70.326 21.135 -81.422 L25.279 -84.23 Q27.192 -80.72 28.552 -77.245 Q29.914 -73.769 30.914 -70.23 H41.154 Q48.154 -70.201 53.019 -65.11 Q57.885 -60.019 57.885 -52.701 V-17.605 Q57.885 -10.316 53.019 -5.259 Q48.154 -0.201 41.154 -0.201 H30.914 Q29.914 3.338 28.601 6.861 Q27.289 10.385 25.279 13.895 Z M88.269 -18.787  72.404 -35.23  88.269 -51.576  91.808 -48.009  82.01 -37.73 H105 V-32.73 H82.01 L91.808 -22.326 L88.269 -18.787 Z M32.125 -5.23 H41.154 Q46.047 -5.23 49.466 -8.889 Q52.885 -12.547 52.885 -17.73 V-52.826 Q52.885 -57.912 49.466 -61.571 Q46.047 -65.23 41.154 -65.23 H32.096 Q33.529 -58.047 33.831 -50.677 Q34.135 -43.307 34.135 -35.23 Q34.135 -27.124 33.846 -19.72 Q33.557 -12.316 32.125 -5.23 Z"/></g><g id="Ultralight-M" transform="matrix(1 0 0 1 506.415 1126)"><path d="M25.625 12.77  22.75 10.77 Q29.125 -0.48 29.75 -11.667 Q30.375 -22.855 30.375 -35.23 Q30.375 -47.48 29.75 -58.73 Q29.125 -69.98 22.75 -81.105 L25.625 -83.105 Q27.625 -79.48 29 -75.917 Q30.375 -72.355 31.375 -68.73 H41.5 Q48.125 -68.73 52.688 -63.855 Q57.25 -58.98 57.25 -51.98 V-18.355 Q57.25 -11.355 52.688 -6.542 Q48.125 -1.73 41.5 -1.73 H31.375 Q30.375 1.895 29.062 5.52 Q27.75 9.145 25.625 12.77 Z M87.75 -19.855  73.125 -35.23  87.75 -50.48  90.25 -47.98  79.875 -36.98 H103.5 V-33.48 H79.875 L90.25 -22.355 L87.75 -19.855 Z M32.125 -5.23 H41.5 Q46.625 -5.23 50.188 -9.105 Q53.75 -12.98 53.75 -18.48 V-52.105 Q53.75 -57.48 50.188 -61.355 Q46.625 -65.23 41.5 -65.23 H32.125 Q33.5 -58.105 33.688 -50.792 Q33.875 -43.48 33.875 -35.23 Q33.875 -26.98 33.688 -19.605 Q33.5 -12.23 32.125 -5.23 Z"/></g><g id="Bold-S" transform="matrix(1 0 0 1 2294.23 696)"><path d="M20.12 9.644  10.553 3.431 Q14.892 -4.755 16.668 -15.061 Q18.443 -25.367 18.443 -35.23 Q18.443 -45.092 16.668 -55.399 Q14.892 -65.705 10.553 -73.891 L20.12 -80.104 Q21.895 -77.047 23.177 -73.743 Q24.459 -70.439 25.643 -66.987 H32.645 Q39.647 -66.987 44.529 -61.957 Q49.411 -56.927 49.411 -49.925 V-20.535 Q49.411 -13.434 44.529 -8.453 Q39.647 -3.473 32.645 -3.473 H25.643 Q24.459 0.078 23.128 3.283 Q21.796 6.488 20.12 9.644 Z M71.503 -17.28  53.948 -35.23  71.503 -53.18  79.59 -45.092  75.941 -41.049 H88.171 V-29.411 H75.941 L79.59 -25.367 L71.503 -17.28 Z M28.404 -15.012 H32.546 Q34.716 -15.012 36.245 -16.639 Q37.773 -18.266 37.773 -20.633 V-49.728 Q37.773 -51.996 36.245 -53.673 Q34.716 -55.349 32.546 -55.349 H28.503 Q29.39 -50.122 29.686 -45.142 Q29.982 -40.161 29.982 -35.23 Q29.982 -30.397 29.637 -25.318 Q29.292 -20.239 28.404 -15.012 Z"/></g><g id="Semibold-S" transform="matrix(1 0 0 1 1998.1 696)"><path d="M20.162 7.458  12.182 2.273 Q16.393 -5.999 18.039 -15.79 Q19.687 -25.582 19.687 -35.23 Q19.687 -44.835 18.039 -54.627 Q16.393 -64.419 12.182 -72.691 L20.162 -77.874 Q21.767 -74.946 22.963 -71.835 Q24.159 -68.724 25.213 -65.53 H32.859 Q39.39 -65.53 43.95 -60.885 Q48.511 -56.241 48.511 -49.711 V-20.749 Q48.511 -14.163 43.95 -9.547 Q39.39 -4.93 32.859 -4.93 H25.213 Q24.159 -1.637 22.934 1.396 Q21.71 4.43 20.162 7.458 Z M71.289 -18.91  55.192 -35.23  71.289 -51.55  78.003 -44.793  73.497 -40.063 H86.885 V-30.397 H73.497 L78.003 -25.625 L71.289 -18.91 Z M27.546 -14.54 H32.804 Q35.273 -14.54 37.059 -16.36 Q38.845 -18.181 38.845 -20.805 V-49.6 Q38.845 -52.124 37.059 -53.994 Q35.273 -55.864 32.804 -55.864 H27.602 Q28.576 -50.594 28.936 -45.485 Q29.296 -40.375 29.296 -35.23 Q29.296 -30.14 28.908 -24.975 Q28.519 -19.81 27.546 -14.54 Z"/></g><g id="Medium-S" transform="matrix(1 0 0 1 1701.85 696)"><path d="M20.194 5.818  13.404 1.405 Q17.519 -6.932 19.069 -16.336 Q20.62 -25.742 20.62 -35.23 Q20.62 -44.642 19.069 -54.048 Q17.519 -63.454 13.404 -71.79 L20.194 -76.203 Q21.67 -73.37 22.802 -70.404 Q23.933 -67.438 24.892 -64.436 H33.02 Q39.197 -64.436 43.516 -60.082 Q47.835 -55.727 47.835 -49.55 V-20.91 Q47.835 -14.709 43.516 -10.367 Q39.197 -6.024 33.02 -6.024 H24.892 Q23.933 -2.923 22.79 -0.019 Q21.646 2.887 20.194 5.818 Z M71.128 -20.131  56.125 -35.23  71.128 -50.329  76.814 -44.567  71.664 -39.323 H85.919 V-31.137 H71.664 L76.814 -25.818 L71.128 -20.131 Z M26.903 -14.186 H32.997 Q35.691 -14.186 37.671 -16.151 Q39.649 -18.117 39.649 -20.933 V-49.503 Q39.649 -52.221 37.671 -54.236 Q35.691 -56.25 32.997 -56.25 H26.927 Q27.964 -50.948 28.372 -45.742 Q28.782 -40.536 28.782 -35.23 Q28.782 -29.947 28.362 -24.718 Q27.94 -19.488 26.903 -14.186 Z"/></g><g id="Regular-S" transform="matrix(1 0 0 1 1405.73 696)"><path d="M20.218 4.615  14.301 0.768 Q18.344 -7.615 19.824 -16.738 Q21.303 -25.861 21.303 -35.23 Q21.303 -44.501 19.824 -53.624 Q18.344 -62.746 14.301 -71.129 L20.218 -74.976 Q21.599 -72.214 22.684 -69.354 Q23.769 -66.494 24.656 -63.634 H33.138 Q39.056 -63.634 43.198 -59.492 Q47.34 -55.349 47.34 -49.432 V-21.028 Q47.34 -15.11 43.198 -10.968 Q39.056 -6.826 33.138 -6.826 H24.656 Q23.769 -3.867 22.684 -1.056 Q21.599 1.754 20.218 4.615 Z M71.01 -21.028  56.808 -35.23  71.01 -49.432  75.941 -44.402  70.32 -38.78 H85.212 V-31.679 H70.32 L75.941 -25.959 L71.01 -21.028 Z M26.431 -13.927 H33.138 Q35.998 -13.927 38.119 -15.998 Q40.239 -18.069 40.239 -21.028 V-49.432 Q40.239 -52.292 38.119 -54.413 Q35.998 -56.533 33.138 -56.533 H26.431 Q27.516 -51.207 27.96 -45.931 Q28.404 -40.654 28.404 -35.23 Q28.404 -29.806 27.96 -24.529 Q27.516 -19.253 26.431 -13.927 Z"/></g><g id="Light-S" transform="matrix(1 0 0 1 1109.75 696)"><path d="M20.674 3.135  16.425 0.351 Q20.696 -8.108 21.835 -16.984 Q22.972 -25.861 22.972 -35.23 Q22.972 -44.501 21.835 -53.396 Q20.696 -62.291 16.425 -70.712 L20.674 -73.496 Q22.168 -70.583 23.272 -67.61 Q24.375 -64.635 25.263 -61.661 H33.594 Q39.018 -61.699 42.762 -57.842 Q46.506 -53.984 46.506 -48.483 V-22.014 Q46.506 -16.476 42.762 -12.657 Q39.018 -8.837 33.594 -8.837 H25.263 Q24.375 -5.764 23.29 -2.821 Q22.205 0.123 20.674 3.135 Z M70.328 -22.431  57.757 -35.23  70.328 -47.99  73.893 -44.365  67.513 -37.794 H83.24 V-32.666 H67.513 L73.893 -25.997 L70.328 -22.431 Z M26.431 -13.927 H33.594 Q36.757 -13.927 39.067 -16.282 Q41.377 -18.638 41.377 -22.014 V-48.483 Q41.377 -51.723 39.067 -54.129 Q36.757 -56.533 33.594 -56.533 H26.469 Q27.479 -51.283 27.771 -46.083 Q28.063 -40.882 28.063 -35.23 Q28.063 -29.616 27.751 -24.377 Q27.44 -19.139 26.431 -13.927 Z"/></g><g id="Thin-S" transform="matrix(1 0 0 1 814.015 696)"><path d="M21.128 1.656  18.549 -0.066 Q23.048 -8.601 23.845 -17.231 Q24.641 -25.861 24.641 -35.23 Q24.641 -44.501 23.845 -53.168 Q23.048 -61.836 18.549 -70.295 L21.128 -72.017 Q22.737 -68.952 23.859 -65.865 Q24.983 -62.777 25.87 -59.689 H34.048 Q38.98 -59.765 42.325 -56.192 Q45.671 -52.619 45.671 -47.535 V-23 Q45.671 -17.841 42.325 -14.344 Q38.98 -10.847 34.048 -10.847 H25.87 Q24.983 -7.66 23.898 -4.584 Q22.813 -1.508 21.128 1.656 Z M69.644 -23.835  58.705 -35.23  69.644 -46.549  71.844 -44.326  64.706 -36.808 H81.267 V-33.652 H64.706 L71.844 -26.035 L69.644 -23.835 Z M26.431 -13.927 H34.048 Q37.515 -13.927 40.015 -16.567 Q42.515 -19.207 42.515 -23 V-47.535 Q42.515 -51.154 40.015 -53.843 Q37.515 -56.533 34.048 -56.533 H26.507 Q27.44 -51.359 27.58 -46.235 Q27.722 -41.11 27.722 -35.23 Q27.722 -29.426 27.543 -24.225 Q27.364 -19.025 26.431 -13.927 Z"/></g><g id="Ultralight-S" transform="matrix(1 0 0 1 517.792 696)"><path d="M21.402 0.768  19.824 -0.317 Q24.459 -8.897 25.051 -17.379 Q25.643 -25.861 25.643 -35.23 Q25.643 -44.501 25.051 -53.032 Q24.459 -61.563 19.824 -70.045 L21.402 -71.129 Q23.078 -67.973 24.212 -64.817 Q25.347 -61.661 26.234 -58.505 H34.322 Q38.957 -58.604 42.064 -55.202 Q45.17 -51.799 45.17 -46.966 V-23.592 Q45.17 -18.661 42.064 -15.357 Q38.957 -12.053 34.322 -12.053 H26.234 Q25.347 -8.798 24.262 -5.642 Q23.177 -2.486 21.402 0.768 Z M69.235 -24.677  59.274 -35.23  69.235 -45.684  70.615 -44.303  63.021 -36.216 H80.084 V-34.244 H63.021 L70.615 -26.058 L69.235 -24.677 Z M26.431 -13.927 H34.322 Q37.971 -13.927 40.584 -16.738 Q43.198 -19.549 43.198 -23.592 V-46.966 Q43.198 -50.813 40.584 -53.673 Q37.971 -56.533 34.322 -56.533 H26.53 Q27.418 -51.404 27.467 -46.325 Q27.516 -41.246 27.516 -35.23 Q27.516 -29.312 27.418 -24.135 Q27.319 -18.957 26.431 -13.927 Z"/></g></g></svg>