<svg xmlns="http://www.w3.org/2000/svg" height="20" viewBox="0 -960 960 960" width="20"><path d="M228-711.87h504q21.43 0 37.01 15.58 15.58 15.57 15.58 37.01 0 21.43-15.58 37.01Q753.43-606.7 732-606.7H228q-21.43 0-37.01-15.57-15.58-15.58-15.58-37.01 0-21.44 15.58-37.01 15.58-15.58 37.01-15.58Zm96-153.17h312q21.43 0 37.01 15.57 15.58 15.58 15.58 37.01 0 21.44-15.58 37.01-15.58 15.58-37.01 15.58H324q-21.43 0-37.01-15.58-15.58-15.57-15.58-37.01 0-21.43 15.58-37.01 15.58-15.57 37.01-15.57ZM676.24 7.3q-10-2.76-19.76-7.76-9.76-5-17.52-12L603.11-1.7q-15.48 4-29.46-2.38t-21.22-19.85l-11-18.24q-8-14.24-6-30.1 2-15.86 14.24-27.1l26.57-23.8q-1.24-9-1.24-19.88 0-10.88 1.24-19.88l-26.33-23.81q-11.24-11.24-14.24-26.48t5-30.48l11-18.23q7.24-14.24 21.6-20.36 14.36-6.12 29.6-2.12l35.09 9.76q7.76-8 18.02-13.38 10.26-5.38 20.26-7.14l8.28-37.61q3-15.48 15.48-25.22 12.48-9.74 28.72-9.74h20.48q16.23 0 29.09 9.24t15.86 24.48l7.76 38.85q9.76 2.76 20.64 7.64t17.41 12.88l34.84-9.52q15.48-4 29.22 2.88 13.74 6.88 20.98 20.36l11.24 18q8.24 14.23 5.62 30.09T927-185.74l-24.57 21.81q1.24 9 .74 20.38-.5 11.38-1.74 20.38l26.33 23.56q11.48 11.48 14.48 27.46T937-42.17l-10.76 18Q919-10.7 904.9-4.81q-14.1 5.88-29.33 1.88l-36.61-9.53q-7.76 7-17.53 12-9.76 5-19.52 7.76l-9.52 37.61q-3 15.48-14.98 25.22-11.98 9.74-28.21 9.74h-21.48q-16.48 0-28.72-9.62-12.24-9.62-15.24-25.1L676.24 7.3ZM788.38-95.39q19.9-20.02 19.9-48.54 0-28.53-19.9-48.55-19.9-20.02-48.42-20.02-28.53 0-48.55 20.02-20.02 20.02-20.02 48.55 0 28.52 20.02 48.54t48.55 20.02q28.52 0 48.42-20.02Zm-518.9.19q-19.2 0-32.77-11.57-13.58-11.58-17.82-30.53l-80.76-358.57q-5.24-24.67 11.34-43.87 16.57-19.19 41.01-19.19h580.04q24.68 0 40.63 19.19 15.96 19.2 9.96 43.87l-9.72 49.11q-21.43-3.24-42.37-5.12-20.93-1.88-44.61-1.88-114.84 0-197.27 78.56-82.42 78.57-96.29 194.42-2.96 20.71-4.18 42.17-1.21 21.46-.69 43.41h-156.5Z"/></svg>