<svg xmlns="http://www.w3.org/2000/svg" height="24" viewBox="0 -960 960 960" width="24"><path d="M240-745h480q27.6 0 47.8 20.2Q788-704.6 788-677q0 27.6-20.2 47.8Q747.6-609 720-609H240q-27.6 0-47.8-20.2Q172-649.4 172-677q0-27.6 20.2-47.8Q212.4-745 240-745Zm80-176h320q27.6 0 47.8 20.2Q708-880.6 708-853q0 27.6-20.2 47.8Q667.6-785 640-785H320q-27.6 0-47.8-20.2Q252-825.4 252-853q0-27.6 20.2-47.8Q292.4-921 320-921Zm-68 487 12 74.5Q276-285 293-176l-41-258ZM401-40H236q-25 0-44-16.5T169-97l-66-394q-5-31 15.5-55t51.5-24h619q32 0 52.5 24.22Q862-521.55 856-490l-9.67 57q-3.33 0-35.33-.5t-71-.5H252l41 258h111q-8 34-8.5 68t5.5 68ZM667 60q-8-2-15-6t-14-9l-26 9q-19 5-37.66-2.07Q555.69 44.86 546 28L535.13 8.23Q525-10 528-30.5 531-51 547-64l20-16q-1-7.67-1-16.33 0-8.67 1-16.67l-20-17q-15-13-18.5-32.5T535-200l12.2-20.67q9.6-16.55 27.2-23.94Q592-252 610-247l28 9q7-5 14-8.5t15-5.5l5-27.28q4-19.72 19.5-32.22t35.32-12.5h24.36q19.82 0 35.32 12.5T806-280l6 28q7.18 1.62 14.59 5.31Q834-243 840-238l26-8q19-5 36.5 2t27.5 24l11.87 19.23Q953-183 949.5-162.5 946-142 930-129l-20 16q1 7.67 1 16.33Q911-88 910-80l20.33 15.96Q946-50 949.5-29.5 953-9 942 8l-11.2 19.67q-9.6 17.55-28.2 23.94Q884 58 866 53l-26-8q-7 5-14.09 9.19Q818.82 58.38 812 60l-5.67 27.28Q802 107 786.5 119.5 771 132 751.18 132h-24.36Q706 132 691 120t-19.33-31.67L667 60ZM789.5-45Q810-66 810-95.88q0-29.87-20.5-51Q769-168 739-168t-51 21.12q-21 21.13-21 51Q667-66 688-45q21 21 51 21t50.5-21Z"/></svg>