<svg xmlns="http://www.w3.org/2000/svg" height="24" viewBox="0 -960 960 960" width="24"><path d="M240-724.78h480q19.15 0 32.33 13.17 13.17 13.18 13.17 32.33t-13.17 32.32q-13.18 13.18-32.33 13.18H240q-19.15 0-32.33-13.18-13.17-13.17-13.17-32.32t13.17-32.33q13.18-13.17 32.33-13.17Zm80-131h320q19.15 0 32.33 13.17 13.17 13.17 13.17 32.33 0 19.15-13.17 32.32-13.18 13.18-32.33 13.18H320q-19.15 0-32.33-13.18-13.17-13.17-13.17-32.32 0-19.16 13.17-32.33 13.18-13.17 32.33-13.17ZM673.8-69.59q-11.28-4.52-21.18-9.9-9.9-5.38-20.19-12.66l-27.8 8.76q-13.96 4.24-27.53-1-13.58-5.24-21.06-17.44l-8.47-14.95q-7.48-12.96-5.24-28.03 2.24-15.08 13.95-24.8l21.05-18.04q-2-12.28-2-24.57 0-12.28 2-24.56l-21.05-18.28q-11.71-9.72-13.95-24.18-2.24-14.46 5.24-27.41l9.47-15.96q7.48-11.95 20.44-17.31 12.95-5.36 26.91-1.12l28.04 8.76q10.29-7.28 20.19-12.55 9.9-5.26 21.18-9.78l5.77-27.8q3.23-14.96 14.57-24.18 11.34-9.21 26.29-9.21h17.44q14.96 0 26.29 9.59 11.34 9.6 14.58 24.56l5.76 27.04q11.28 4.52 21.18 9.78 9.91 5.27 20.19 12.55l27.8-8.52q13.96-4.24 27.3 1 13.33 5.24 20.81 17.19l8.72 14.96q7.72 12.95 5.36 28.03-2.36 15.08-14.08 24.79l-21.04 18.05q2 12.28 2 24.56 0 12.29-2 24.57l21.04 18.04q11.72 9.72 14.08 24.41 2.36 14.7-5.36 27.66l-9.24 15.71q-7.48 12.2-20.67 17.32-13.2 5.12-27.16.88l-27.56-8.52q-10.28 7.28-20.19 12.66-9.9 5.38-21.18 9.9l-5.76 27.81q-3.24 14.95-14.58 24.17-11.33 9.22-26.29 9.22h-17.44q-15.19 0-26.41-9.6t-14.45-24.55l-5.77-27.05Zm110.54-87.32q22.9-23.02 22.9-55.31 0-32.28-22.9-55.18-22.91-22.9-55.19-22.9t-55.3 22.9q-23.02 22.9-23.02 55.18 0 32.29 23.02 55.31 23.02 23.02 55.3 23.02t55.19-23.02Zm-549.86 52.45q-16.91 0-29.85-10.81-12.93-10.82-15.41-26.97l-66-398.56q-3.48-20.63 9.81-36.93 13.3-16.29 34.69-16.29h623.8q21.39 0 35.07 16.29 13.67 16.3 10.19 36.93l-9.71 55.54q-24.92-9.24-50.83-13.5-25.91-4.26-52.59-4.26-116.04 0-197.92 80.92-81.88 80.93-86.66 196.97-1.2 31.24 4.25 61.6 5.44 30.36 17.24 59.07H234.48Z"/></svg>