<svg xmlns="http://www.w3.org/2000/svg" height="20" viewBox="0 -960 960 960" width="20"><path d="M228-656h504q6.54 0 11.27 4.73Q748-646.54 748-640q0 6.54-4.73 11.27Q738.54-624 732-624H228q-6.54 0-11.27-4.73Q212-633.46 212-640q0-6.54 4.73-11.27Q221.46-656 228-656Zm96-95.39h312q6.54 0 11.27 4.74 4.73 4.73 4.73 11.27 0 6.53-4.73 11.26-4.73 4.74-11.27 4.74H324q-6.54 0-11.27-4.74-4.73-4.73-4.73-11.26 0-6.54 4.73-11.27 4.73-4.74 11.27-4.74Zm-90 222.77 17.62 78.97q17.61 78.96 46.38 209.03l-64-288Zm240.31 320.01H295.92q-9.92 0-16.73-6.08-6.81-6.08-9.81-15.77l-70-295.39q-3.23-13.92 5.47-24.34 8.69-10.43 21.84-10.43h512.77q10.85 0 18 8.89 7.16 8.88 3.92 20.5l-1.38 2.61H234l64 288h171.85q1.23 9.24 1.77 16.35.53 7.12 2.69 15.66ZM698.08-163q-20.93-4.23-39.58-13.81-18.65-9.57-31.96-26.5l-22 8.46q-4.85 1.47-8.19.54-3.35-.92-5.27-4.54l-2.62-4.53q-1.92-3.62-2.46-6.81-.54-3.19 2.85-7.35l16.3-16.08q-7.61-21.69-7.61-44.38t7.61-44.38l-15.3-15.08q-2.62-3.39-3.35-6.85-.73-3.46 1.19-8.07l3.39-3.77q1.92-4.62 5.77-5.54 3.84-.93 8.69.54l20 7.46q12.54-17.93 32.08-28 19.53-10.08 40.46-13.31l3.15-21.23q.46-4.08 4.46-7.12 4-3.03 8.08-3.03H717q4.08 0 8.08 2.65t4.46 6.73l3.15 22q20.93 4.23 40.96 13.81 20.04 9.57 31.58 27.5l21-7.46q4.85-1.47 8.19-.04 3.35 1.42 5.27 5.04l2.62 4.53q1.92 3.62 1.96 6.81.04 3.19-3.35 7.35l-14.3 14.08q7.61 21.69 7.11 44.88t-8.11 44.88l15.3 15.08q2.62 3.39 3.35 7.35.73 3.96-1.19 7.57l-3.39 3.77q-1.92 3.62-5.27 4.54-3.34.93-8.19-.54l-22-7.46q-13.31 16.93-31.96 26.5-18.65 9.58-39.58 13.81l-4.15 21.23q-.46 4.08-3.96 7.12t-7.58 3.04h-4.23q-4.08 0-7.58-3.16-3.5-3.15-3.96-7.23l-3.15-21ZM772-223.38q22.54-22.54 22.54-55.62T772-334.62q-22.54-22.53-55.62-22.53-33.07 0-55.61 22.53-22.54 22.54-22.54 55.62t22.54 55.62q22.54 22.53 55.61 22.53 33.08 0 55.62-22.53Z"/></svg>