<svg xmlns="http://www.w3.org/2000/svg" height="40" viewBox="0 -960 960 960" width="40"><path d="M240-727.92h480q17.83 0 30.2 12.37 12.37 12.37 12.37 30.2 0 17.55-12.37 29.89-12.37 12.35-30.2 12.35H240q-17.17 0-29.7-12.35-12.54-12.34-12.54-29.89 0-17.83 12.54-30.2 12.53-12.37 29.7-12.37Zm80-141.86h320q17.83 0 30.2 12.56 12.37 12.56 12.37 30.39 0 17.17-12.37 29.71-12.37 12.53-30.2 12.53H320q-17.17 0-29.7-12.53-12.54-12.54-12.54-29.71 0-17.83 12.54-30.39 12.53-12.56 29.7-12.56ZM681.72-57.16q-17.18-4.91-32.52-13.69-15.34-8.78-28.02-20.63l-17.43 7.27q-12.88 5.57-26.21 1.17-13.34-4.4-20.59-17.18l-5.92-9.89q-8.13-12-5.75-26.44 2.37-14.44 14.23-23.59l14.12-11.12q-5.17-16.85-5.17-33.98 0-17.14 5.17-34.37l-14.12-11.3q-11.48-9.15-14.05-23.56-2.56-14.41 5.57-27.12l5.75-10.05q7.26-12.18 20.56-16.52 13.3-4.35 26.89.88l16.95 7.6q12.97-11.18 28.16-19.87 15.2-8.68 32.38-13.59l2.64-21.05q2.02-13.22 12.46-22.46 10.43-9.23 24.53-9.23h11.3q13.72 0 24.01 8.53 10.29 8.54 12.31 22.09l3.27 22.12q16.85 4.91 32.31 13.51 15.47 8.6 28.6 19.95l16.05-7.04q13.22-5.6 26.34-1.35 13.13 4.25 20.71 16.43l6.16 9.88q8.32 12.72 5.84 27.49-2.47 14.77-14 23.55l-14.11 11.11q4.83 17.23 4.83 34.37 0 17.13-4.83 33.98l14.11 11.12q11.53 9.15 14 23.79 2.48 14.63-5.84 26.98l-5.19 9.81q-7.63 12.79-21.33 16.76-13.7 3.97-26.21-1.97l-16.53-6.71q-13.01 11.85-28.54 20.63-15.52 8.78-32.37 13.69l-3.27 20.72q-2.02 13.93-12.31 22.83-10.29 8.9-24.01 8.9h-11.3q-14.28 0-24.63-8.87-10.34-8.87-12.36-22.79l-2.64-20.79Zm109.24-83.85q26.61-26.89 26.61-64.57 0-37.68-26.61-64.29-26.61-26.61-64.29-26.61-37.68 0-64.58 26.61-26.89 26.61-26.89 64.29 0 37.68 26.89 64.57 26.9 26.9 64.58 26.9t64.29-26.9ZM229.13-91.12q-15.81 0-27.39-10.15-11.57-10.15-13.99-25.61l-68.67-410.69q-3.42-19.05 8.96-34.05 12.38-15.01 32.28-15.01h638.93q19.9 0 32.49 15.01 12.6 15 9.51 34.05l-9.65 55.02q-29.93-10.52-56.7-14.89-26.77-4.38-58.97-4.38-113.66 0-193.63 78.67T432.91-231.2q-2.45 36.73 4.05 71.99 6.5 35.27 21.55 68.09H229.13Z"/></svg>