<svg xmlns="http://www.w3.org/2000/svg" height="48" viewBox="0 -960 960 960" width="48"><path d="M240-722.59h480q14.17 0 23.62 9.45 9.45 9.44 9.45 23.62 0 13.41-9.45 22.99-9.45 9.57-23.62 9.57H240q-13.17 0-22.87-9.57-9.7-9.58-9.7-22.99 0-14.18 9.7-23.62 9.7-9.45 22.87-9.45Zm80-128.37h320q14.17 0 23.62 9.57 9.45 9.56 9.45 23.74 0 13.17-9.45 22.87-9.45 9.69-23.62 9.69H320q-13.17 0-22.87-9.69-9.7-9.7-9.7-22.87 0-14.18 9.7-23.74 9.7-9.57 22.87-9.57ZM689.04-94.5q-21.02-5.76-39.92-16.52-18.9-10.76-33.92-25.78l-15.29 7.26q-11.21 5.74-22.8 2t-18.33-14.7l-4.24-6.22q-7.47-10.47-5.36-22.93 2.12-12.46 12.84-20.44l13.28-10.28q-6.5-20.02-6.5-40.8 0-20.79 6.5-41.05l-13.28-10.28q-10.48-7.98-12.72-20.81-2.23-12.84 5.24-24.06l3.74-6.22q6.74-10.97 18.71-14.33 11.97-3.36 23.92 1.88l14.29 7.76q15.78-14.02 34.3-24.78 18.52-10.76 39.54-16.53l1.5-20.54q1.5-11.22 10.35-19.44 8.85-8.23 20.81-8.23h6.95q11.72 0 20.19 7.36 8.46 7.35 9.96 19.07l2.77 21.78q20.52 5.77 39.16 16.53 18.64 10.76 34.92 24.78l13.55-7.52q11.71-5.48 23.43-2.12 11.72 3.36 18.96 14.33l3.98 6.22q7.47 11.22 5.35 24.18-2.12 12.95-12.33 20.69l-13.29 10.28q6 20.26 6 41.05 0 20.78-6 40.8l13.29 10.28q10.21 7.98 12.33 20.56 2.12 12.57-5.35 23.55l-3.5 6.48q-6.98 10.96-18.94 14.2-11.96 3.24-22.93-2.74l-14.55-7.02q-15.52 15.02-34.54 25.78-19.02 10.76-39.54 16.52l-2.77 20.04q-1.5 11.96-9.96 19.69-8.47 7.73-20.19 7.73h-6.95q-11.96 0-20.81-7.86-8.85-7.86-10.35-19.82l-1.5-19.78Zm106.68-77.75q29.52-29.64 29.52-71.16 0-41.52-29.52-71.05-29.52-29.52-71.05-29.52-41.52 0-71.16 29.52-29.64 29.53-29.64 71.05 0 41.52 29.64 71.16 29.64 29.64 71.16 29.64 41.53 0 71.05-29.64Zm-570.24 62.47q-12.18 0-21-7.83-8.83-7.82-10.57-19.76l-70-419.04q-2.74-14.68 6.71-26.36 9.45-11.69 24.86-11.69h648.28q15.41 0 25.24 11.69 9.83 11.68 7.59 26.36l-8.48 47.35q-28.44-10.5-52.37-15.14-23.94-4.63-55.13-4.63-115.02 0-195.4 80.42-80.38 80.41-83.97 195.19-.96 37.74 8.22 74.1 9.17 36.36 26.71 69.34H225.48Z"/></svg>