<svg xmlns="http://www.w3.org/2000/svg" height="24" viewBox="0 -960 960 960" width="24"><path d="M240-731.3h480q22.09 0 37.54 15.45Q773-700.39 773-678.3q0 22.08-15.46 37.54Q742.09-625.3 720-625.3H240q-22.09 0-37.54-15.46Q187-656.22 187-678.3q0-22.09 15.46-37.55Q217.91-731.3 240-731.3Zm80-146.01h320q22.09 0 37.54 15.46Q693-846.39 693-824.31q0 22.09-15.46 37.55Q662.09-771.3 640-771.3H320q-22.09 0-37.54-15.46Q267-802.22 267-824.31q0-22.08 15.46-37.54 15.45-15.46 37.54-15.46ZM672.17-29.47q-10.3-3.87-19.39-9.09-9.08-5.22-18.39-11.52l-26.17 8.43q-15.26 4.57-30.31-1-15.04-5.56-23.17-19.39l-9.13-16.26q-8.13-14.26-5.57-30.81 2.57-16.54 15.26-27.23l19.74-16.74q-2-11.31-2-22.61 0-11.31 2-22.61l-19.74-17.31q-12.69-10.69-15.26-26.45-2.56-15.76 5.57-30.02l10.13-17.26q8.13-13.27 22.39-19.11 14.26-5.85 29.52-1.29l26.74 8.44q9.31-6.31 18.39-11.24 9.09-4.94 19.39-8.8l5.44-26.18q3.56-16.26 16.04-26.46 12.48-10.19 28.74-10.19h19.39q16.26 0 28.74 10.41 12.48 10.42 16.05 26.68l5.43 25.74q10.3 3.86 19.39 8.8 9.09 4.93 18.39 11.24l26.18-7.87q15.26-4.57 29.74 1 14.47 5.56 22.6 18.83l9.7 16.26q8.7 14.26 5.85 30.8-2.85 16.54-15.55 27.24l-19.73 16.74q2 11.3 2 22.61 0 11.3-2 22.61l19.73 16.74q12.7 10.69 15.55 27.02Q926.7-93 918-78.74l-9.56 16.7q-8.14 13.83-22.96 19.11-14.83 5.28-30.09.72l-25.61-7.87q-9.3 6.3-18.39 11.52T792-29.47L786.57-3.3Q783 12.96 770.52 23.16q-12.48 10.19-28.74 10.19h-19.39q-16.82 0-29.02-10.41T677.61-3.74l-5.44-25.73Zm113.31-92.55q22.09-22.37 22.09-53.67 0-31.31-22.09-53.39-22.09-22.09-53.39-22.09-31.31 0-53.68 22.09-22.37 22.08-22.37 53.39 0 31.3 22.37 53.67t53.68 22.37q31.3 0 53.39-22.37ZM235.13-83.26q-19.52 0-34.41-12.61-14.89-12.61-18.02-31.69l-66-396.61q-4.14-24.22 11.6-42.96 15.74-18.74 40.4-18.74h622.17q24.65 0 40.61 18.74t11.82 42.96l-10.69 61.74q-27.52-9.57-56.04-13.5-28.53-3.94-57.48-3.94-114.74 0-196.46 79.46-81.72 79.46-93.02 194.19-2.83 31.57.5 62.42 3.32 30.85 13.5 60.54H235.13Z"/></svg>