<svg xmlns="http://www.w3.org/2000/svg" height="48" viewBox="0 -960 960 960" width="48"><path d="M240-727.48h480q16.46 0 27.53 11.08 11.08 11.07 11.08 27.53 0 16.02-11.08 27.07-11.07 11.04-27.53 11.04H240q-15.46 0-26.78-11.04-11.33-11.05-11.33-27.07 0-16.46 11.33-27.53 11.32-11.08 26.78-11.08Zm80-139.78h320q16.46 0 27.53 11.36 11.08 11.36 11.08 27.81 0 15.46-11.08 26.79-11.07 11.32-27.53 11.32H320q-15.46 0-26.78-11.32-11.33-11.33-11.33-26.79 0-16.45 11.33-27.81 11.32-11.36 26.78-11.36ZM204.5-511.54l13.65 86.73q13.65 86.72 40.46 253.72L204.5-511.54ZM463.46-93.8H226.13q-14.46 0-24.75-9.3-10.29-9.29-12.36-23.18l-70-417.74q-3.06-16.96 8.01-30.6 11.08-13.64 29.1-13.64h647.74q18.02 0 29.1 13.64 11.07 13.64 7.94 31.16l-5.13 32.48q-4 0-36.31-.28-32.32-.28-66.34-.28H204.5l54.11 340.45h187.32q1.05 20.46 5.57 39.83 4.52 19.37 11.96 37.46Zm224.28 29.3q-20.37-5.43-38.46-15.87-18.08-10.43-32.45-24.8l-14.31 6.93q-12.19 6.07-24.92 2-12.73-4.06-19.8-16.32l-4.56-7.2q-8.13-11.13-5.85-24.89 2.28-13.76 13.98-22.39l12.3-9.31q-6.5-19.37-6.5-39.17t6.5-39.74l-12.3-9.3q-11.13-8.63-13.7-22.61-2.56-13.98 5.57-26.18l4.06-7.19q7.07-11.63 20.02-15.48 12.94-3.85 26.2 1.72l13.31 7.43q14.8-13.37 32.67-23.8 17.87-10.44 38.24-15.87l1.5-19.24q1.5-12.2 11.16-21.08 9.67-8.88 22.93-8.88h8.26q12.69 0 22.14 7.85 9.44 7.85 10.94 20.54l2.44 20.81q19.87 5.43 38.02 15.87 18.15 10.43 33.46 23.8l12.24-6.87q12.69-6.13 25.39-2.28 12.69 3.85 20.26 15.48l4.63 7.19q8.13 12.2 5.85 26.46-2.29 14.26-13.48 22.33l-12.31 9.3q6 19.94 6 39.74t-6 39.17l12.31 9.31q11.19 8.63 13.48 22.67 2.28 14.05-5.85 25.68l-3.5 7.13q-7.63 12.26-20.89 15.82-13.26 3.57-24.89-3.06l-13.24-6.37q-14.87 14.37-33.24 24.8-18.37 10.44-38.24 15.87l-2.44 18.74q-1.5 13.26-10.94 21.64-9.45 8.38-22.14 8.38h-8.26q-13.26 0-22.93-8.34-9.66-8.35-11.16-21.61l-1.5-18.81ZM796.7-146q28.87-29.15 28.87-70.02t-28.87-69.74q-28.87-28.87-69.74-28.87-40.87 0-70.02 28.87-29.16 28.87-29.16 69.74 0 40.87 29.16 70.02 29.15 29.15 70.02 29.15T796.7-146Z"/></svg>