<svg xmlns="http://www.w3.org/2000/svg" height="24" viewBox="0 -960 960 960" width="24"><path d="M240-700h480q12.77 0 21.38 8.62Q750-682.77 750-670t-8.62 21.38Q732.77-640 720-640H240q-12.77 0-21.38-8.62Q210-657.23 210-670t8.62-21.38Q227.23-700 240-700Zm80-107.69h320q12.77 0 21.38 8.62 8.62 8.61 8.62 21.38t-8.62 21.38q-8.61 8.62-21.38 8.62H320q-12.77 0-21.38-8.62-8.62-8.61-8.62-21.38t8.62-21.38q8.61-8.62 21.38-8.62ZM681.54-129q-15.46-4.62-29.04-11.66-13.58-7.03-25.73-18.5l-24 8.23q-9.92 3.23-19.35-.23-9.42-3.46-14.88-11.77l-5.31-9.76q-5.46-9.31-4.23-19.66 1.23-10.34 9.92-17.42l18.16-15.54q-4.31-16.85-4.31-33.69 0-16.85 4.31-33.69l-18.16-15.54q-8.3-6.69-9.92-16.93-1.61-10.23 3.85-19.53l6.69-10.39q5.46-8.31 14.38-11.77 8.93-3.46 18.85-.23l24 8.23q11.77-11.46 25.54-18.5 13.77-7.04 29.23-11.65l4.08-23.62q2.23-10.53 10.23-17.3 8-6.77 18.53-6.77H725q10.54 0 18.54 7.07 8 7.08 10.23 17.62l4.07 23q15.47 4.61 29.24 11.65 13.77 7.04 25.53 18.5l24-8.23q9.93-3.23 19.35.23 9.42 3.46 14.88 11.77l5.31 9.77q5.46 9.31 4.23 19.65-1.23 10.35-9.92 17.43l-18.15 15.54q4.3 16.84 4.3 33.69 0 16.84-4.3 33.69l18.15 15.54q8.31 6.69 9.92 16.92 1.62 10.23-3.84 19.54l-6.7 10.38q-5.46 8.31-14.38 11.77-8.92 3.46-18.85.23l-24-8.23q-12.15 11.47-25.73 18.5-13.57 7.04-29.04 11.66l-4.07 23.61q-2.23 10.54-10.23 17.31T725-81.31h-10.62q-10.53 0-18.53-7.08-8-7.07-10.23-17.61l-4.08-23Zm96.96-71.19q24.27-24.27 24.27-58.81 0-34.54-24.27-58.81-24.27-24.27-58.81-24.27-34.54 0-58.81 24.27-24.27 24.27-24.27 58.81 0 34.54 24.27 58.81 24.27 24.27 58.81 24.27 34.54 0 58.81-24.27Zm-531.04 47.88q-13.46 0-23.61-8.54-10.16-8.54-12.16-21.38l-61-367.69q-2.61-16.46 7.73-29.43 10.35-12.96 27.43-12.96h587.3q17.08 0 27.73 13.16 10.66 13.15 8.04 29.61l-5.54 31.77q-21.07-7.46-40.84-11-19.77-3.54-42.85-3.54-113.92 0-193.61 79.69-79.7 79.7-79.7 193.62 0 26.77 5.85 54.46t16.92 52.23H247.46Z"/></svg>