<svg xmlns="http://www.w3.org/2000/svg" height="40" viewBox="0 -960 960 960" width="40"><path d="M240-736.67h480q22 0 37.17 15.17 15.16 15.17 15.16 37.17t-15.16 37.16Q742-632 720-632H240q-21.33 0-36.83-15.17-15.5-15.16-15.5-37.16 0-22 15.5-37.17 15.5-15.17 36.83-15.17Zm80-158.66h320q22 0 37.17 15.5 15.16 15.5 15.16 37.5 0 21.33-15.16 36.83Q662-790 640-790H320q-21.33 0-36.83-15.5t-15.5-36.83q0-22 15.5-37.5t36.83-15.5ZM681.33-4Q665.67-8.33 652-16.67 638.33-25 626.33-35.33L609-28q-15 5.67-30.33.67-15.34-5-23.67-19.67l-6.67-12q-9-14-6.33-30.5t16-27.17l14-11q-4.67-15.33-4.67-31 0-15.66 4.67-31.66l-14-11.34q-12.67-10.66-15.67-26.83-3-16.17 6-30.83l7-12.34q8.34-13.66 23.34-18.83 15-5.17 30.66.5l17 7.33q12-9.66 25.67-17.83 13.67-8.17 29.33-12.5l3-20Q687-348.33 699-358.83q12-10.5 28-10.5h14.67q15.33 0 27.33 9.83 12 9.83 14.67 25.17l3 21.33q15.66 4.33 29.66 12.5t26 17.83l16-6.33q15-6.33 30-1.33t23.34 18.66l7.66 12q9.34 14.67 6.5 31.5-2.83 16.84-16.16 26.84l-14 11q4.66 16 4.66 31.66 0 15.67-4.66 31l14 11Q923-106 925.83-89.17q2.84 16.84-6.5 30.84l-6 12q-9 14.66-24.66 19.16-15.67 4.5-30-1.83l-16.34-6.33q-12 10.33-26 18.66-14 8.34-29.66 12.67l-3 20Q781 32 769 42.17q-12 10.16-27.33 10.16H727q-16.33 0-28.17-10.16Q687 32 684.33 16l-3-20Zm115-92.17Q822-122.33 822-159t-25.67-62.33Q770.67-247 734-247t-62.83 25.67Q645-195.67 645-159t26.17 62.83Q697.33-70 734-70t62.33-26.17ZM230-65.67q-19.67 0-33.83-12.66Q182-91 178.67-110L110-518.67q-3.67-23.66 11.67-42Q137-579 161.33-579h637.34q24.33 0 39.66 18.33 15.34 18.34 11.67 42l-10.67 62q-31.66-10-61.33-13.83-29.67-3.83-63-3.83-114.33 0-195.5 78.16-81.17 78.17-97.83 191.84-4.34 35.33-.5 70.5 3.83 35.16 15.16 68.16H230Z"/></svg>