<svg xmlns="http://www.w3.org/2000/svg" height="40" viewBox="0 -960 960 960" width="40"><path d="M240-709h480q13.87 0 24 10.13t10.13 24q0 14.13-10.13 23.79-10.13 9.67-24 9.67H240q-14.13 0-23.79-9.67-9.67-9.66-9.67-23.79 0-13.87 9.67-24Q225.87-709 240-709Zm80-125.02h320q13.87 0 24 10.13 10.13 10.12 10.13 23.99 0 14.13-10.13 23.8t-24 9.67H320q-14.13 0-23.79-9.67-9.67-9.67-9.67-23.8 0-13.87 9.67-23.99 9.66-10.13 23.79-10.13ZM683.72-71.29q-17.92-3.94-33.8-12.46-15.87-8.51-28-21.69l-22.3 8.82q-11.52 4.64-23.2.09t-17.8-15.11l-5.75-9.39q-7.13-10.97-5.56-23.96 1.56-12.99 13.18-21.73l17.18-13.49q-5.54-17.23-5.54-35t5.54-35.66l-18.18-13.57q-10.23-7.95-12.68-21.23-2.45-13.28 5.35-24.92l5.79-9.59q6.79-10.31 18.18-14.49 11.38-4.18 22.9.46l22.89 8.16q12.16-12.77 28.02-20.95t33.78-12.54l3.51-25.56q1.23-11.98 10.62-20.41 9.38-8.44 22.1-8.44h10.41q12.05 0 21.27 7.71 9.21 7.7 11.37 20.34l3.59 26.36q17.25 4.36 33.11 12.54t28.68 20.95l21.64-8.16q11.52-4.64 23.2.04t18.47 14.99l5.08 8.72q7.12 11.64 5.56 24.83-1.56 13.19-12.51 21.52l-17.44 13.24q4.87 17.89 4.87 35.66 0 17.77-4.87 35l17.77 14.49q10.23 7.69 12.68 20.77 2.45 13.08-4.68 24.72l-6.72 9.33q-6.79 10.56-18.3 14.74-11.52 4.18-22.11-.46l-22.64-8.82q-12.79 13.18-28.66 21.69-15.88 8.52-33.13 12.46l-3.92 25.57q-2.16 12.38-11.21 20.28t-21.1 7.9h-10.41q-12.72 0-22.27-7.71-9.55-7.7-11.45-20.09l-2.51-25.95Zm106.25-78.51q26.95-26.95 26.95-65.61 0-38.67-26.95-65.62-26.94-26.95-65.48-26.95-38.54 0-65.49 26.95-26.95 26.95-26.95 65.62 0 38.66 26.95 65.61 26.95 26.95 65.49 26.95 38.54 0 65.48-26.95ZM243-126.64q-15.23 0-25.69-9.22t-12.54-23.91l-63.49-377.44q-3.2-18.3 8.49-32.53 11.69-14.23 31.13-14.23h598.2q18.77 0 30.6 14.42 11.84 14.42 8.3 32.73l-5.46 34.05q-24.23-6.87-45.43-10.24-21.19-3.38-46.83-3.38-119.25 0-203.74 81.53-84.49 81.52-91.49 200.78-1.33 26.41 2.54 54.71 3.87 28.29 12.77 52.73H243Z"/></svg>