<svg xmlns="http://www.w3.org/2000/svg" height="48" viewBox="0 -960 960 960" width="48"><path d="M240-734h480q19 0 32.5 13.5T766-688q0 20-13.5 32.5T720-643H240q-19 0-32-12.5T195-688q0-19 13-32.5t32-13.5Zm80-152h320q19 0 32.5 14t13.5 33q0 19-13.5 32T640-794H320q-19 0-32-13t-13-32q0-19 13-33t32-14ZM689-30q-21-5-37.5-14.5T621-69l-13 8q-14 6-28.5 1.5T558-77l-5-9q-8-11-6.5-26.5T562-138l12-9q-7-19-7-37t7-39l-12-8q-12-9-14.5-24.5T554-284l4-9q8-11 22-16t28 1l13 7q14-14 30.5-23t37.5-15l1-17q0-14 11.5-23.5T728-389h10q13 0 24 8.5t12 22.5l3 19q19 6 36.5 15t31.5 23l11-6q14-7 28-2t22 17l5 7q8 13 6.5 29T903-232l-12 9q6 21 6 39t-6 37l11 9q14 10 15.5 26T911-85l-4 8q-9 13-24 17.5T857-62l-12-7q-15 15-32 24.5T777-30l-2 17q-1 16-12.5 24.5T738 20h-10q-15 0-26-8t-12-24l-1-18Zm111.5-85q27.5-28 27.5-69t-27.5-69Q773-281 732-281t-69 28q-28 28-28 69t28 69q28 28 69 28t68.5-28ZM227-76q-18 0-30.5-12T182-114l-69-416q-3-20 9.5-36.5T157-583h646q22 0 34.5 16.5T848-530l-10 56q-31-9-59.5-13.5T716-492q-114 0-195 78.5T428-222q-4 37 2.5 75T450-76H227Z"/></svg>