<svg xmlns="http://www.w3.org/2000/svg" height="48" viewBox="0 -960 960 960" width="48"><path d="M240-707h480q11.92 0 20.81 8.89 8.88 8.88 8.88 20.8 0 12.31-8.88 20.5-8.89 8.2-20.81 8.2H240q-12.31 0-20.5-8.2-8.19-8.19-8.19-20.5 0-11.92 8.19-20.8Q227.69-707 240-707Zm80-120.69h320q11.92 0 20.81 8.88 8.88 8.89 8.88 20.81 0 12.31-8.88 20.5-8.89 8.19-20.81 8.19H320q-12.31 0-20.5-8.19t-8.19-20.5q0-11.92 8.19-20.81 8.19-8.88 20.5-8.88ZM207.15-527.92l13.62 88.19q13.62 88.19 39.85 248.04l-53.47-336.23Zm244.31 394.61H240.77q-13.61 0-22.73-8.31-9.12-8.31-10.73-20.92l-64.23-382.31q-3-16.23 7.11-28.84 10.12-12.62 27.73-12.62h607.85q15.46 0 25 11.66 9.54 11.65 7.54 27.11l-3.47 20.62q-4.61 0-34.38-.5-29.77-.5-54.38-.5H207.15l53.47 336.23h180q-.16 15.77 2.8 30.3 2.96 14.54 8.04 28.08Zm237.85 43.38q-21.16-4.61-39.43-14.61-18.26-10-31.88-25.54l-18.46 8.62q-10.31 4.84-21.12 1-10.8-3.85-16.27-13.54l-4.46-6.69q-6.46-9.31-5.23-21.12 1.23-11.81 12.31-19.88l14.69-11.46q-7.15-19.93-7.15-40.16 0-20.23 7.15-41.15l-15.69-11.08q-9.69-7.08-11.81-19.38-2.11-12.31 5.35-22.62l3.84-6.69q6.47-9.31 17.08-12.85 10.62-3.54 20.92 1.31l18.85 7.62q13.85-14.93 32-24.43t39.31-14.73l2.23-22.54q.23-10.69 8.81-18.46 8.57-7.77 19.88-7.77h7.31q10.31 0 18.38 6.77 8.08 6.77 9.69 18.46l2.85 23.54q20.15 5.23 38.31 14.73 18.15 9.5 33 24.43l17.46-7.62q10.31-4.85 21.11-.81 10.81 4.04 17.27 13.35l3.46 5.69q6.47 10.31 5.24 22.42Q893.07-293 883-285.54l-15.08 11.08q6.16 20.92 6.16 41.15 0 20.23-6.16 40.16L883-180.69q9.69 6.69 11.81 18.69 2.11 12-4.35 22.31l-5.23 6.3q-6.46 9.7-17.27 13.23-10.81 3.54-19.73-1.3l-18.46-8.62q-14.62 15.54-32.89 25.54-18.27 10-38.42 14.61l-2.85 22.54q-1.61 11.31-9.69 18.27-8.07 6.96-18.38 6.96h-7.31q-11.31 0-19.88-6.77-8.58-6.76-9.81-18.07l-1.23-22.93Zm103.15-73.92Q821-192.39 821-233.62t-28.54-69.77q-28.54-28.53-69.58-28.53-41.03 0-69.57 28.53-28.54 28.54-28.54 69.77t28.54 69.77q28.54 28.54 69.57 28.54 41.04 0 69.58-28.54Z"/></svg>