<svg xmlns="http://www.w3.org/2000/svg" height="20" viewBox="0 -960 960 960" width="20"><path d="M228-709h504q20 0 34.5 14.5T781-660q0 20-14.5 34.5T732-611H228q-20 0-34.5-14.5T179-660q0-20 14.5-34.5T228-709Zm96-146h312q20 0 34.5 14.5T685-806q0 20-14.5 34.5T636-757H324q-20 0-34.5-14.5T275-806q0-20 14.5-34.5T324-855Zm-75 390 17.5 78Q284-309 309-203l-60-262Zm182 360H269q-18 0-30.5-10.5T222-144l-81-360q-5-23 10.5-41t38.5-18h581q23 0 38 18t10 41l-8 40q-6 0-32.5-.5T731-465H249l60 262h122q-3 25-3.5 49t3.5 49ZM676-8q-10-3-20-8t-18-12l-38 11q-15 4-28.5-2.5T551-39l-11-18q-8-14-6-29.5t14-26.5l28-25q-1-9-1-20t1-20l-28-25q-11-11-14-26t5-30l11-18q7-14 21-20t29-2l37 10q8-8 18.5-13.5T676-310l9-40q3-15 15-24.5t28-9.5h20q16 0 28.5 9t15.5 24l8 41q10 3 21 8t18 13l37-10q15-4 28.5 3t20.5 20l11 18q8 14 5.5 29.5T927-202l-26 23q1 9 .5 20.5T900-138l28 25q11 11 14 26.5T937-57l-11 18q-7 13-20.5 19T877-18l-39-10q-8 7-18 12t-20 8l-10 40q-3 15-14.5 24.5T748 66h-21q-16 0-28-9.5T684 32l-8-40Zm112.5-101.5Q809-130 809-159t-20.5-49.5Q768-229 739-229t-49.5 20.5Q669-188 669-159t20.5 49.5Q710-89 739-89t49.5-20.5Z"/></svg>