<svg xmlns="http://www.w3.org/2000/svg" height="40" viewBox="0 -960 960 960" width="40"><path d="M240-722.49h480q15.33 0 25.85 10.53 10.53 10.52 10.53 25.85 0 14.83-10.53 25.44-10.52 10.6-25.85 10.6H240q-14.67 0-25.36-10.6-10.68-10.61-10.68-25.44 0-15.33 10.68-25.85 10.69-10.53 25.36-10.53Zm80-129.24h320q15.33 0 25.85 10.6 10.53 10.6 10.53 25.93 0 14.67-10.53 25.36-10.52 10.69-25.85 10.69H320q-14.67 0-25.36-10.69-10.68-10.69-10.68-25.36 0-15.33 10.68-25.93 10.69-10.6 25.36-10.6ZM204.72-521.06l13.86 87.22q13.85 87.22 40.22 252.42l-54.08-339.64Zm267.92 412.22H228.48q-13.42 0-23.37-8.57-9.94-8.58-11.93-21.75l-68.67-412.22q-2.98-16.32 7.5-29.21t27.55-12.89h640.55q17.07 0 27.68 12.93 10.6 12.93 7.79 29.41l-5.06 30.32q-3.83 0-35.53-.12-31.69-.12-62.85-.12H204.72l54.08 339.64h191.82q2.92 19.75 8.46 37.76 5.55 18.02 13.56 34.82Zm210.49 18.31q-17.94-5.35-34.09-14.4-16.16-9.05-29.6-21.66l-18.62 7.6q-11.8 5.24-23.88 1.16-12.08-4.07-18.9-15.44l-5.49-8.79q-7.48-11.14-5.32-24.22 2.16-13.08 13.05-21.47l15.2-12.21q-5.17-17.6-5.17-35.72 0-18.12 5.17-35.89l-15.2-12.28q-10.73-8.39-12.97-21.6t5.24-24.84l5.32-8.96q6.82-11.31 19.03-15.17 12.22-3.86 24.51 1.05l18.03 7.93q13.95-11.94 29.85-20.95 15.9-9.02 33.84-14.36l2.75-22.47q1.92-12.13 11.43-20.6 9.51-8.48 22.3-8.48h9.78q12.63 0 21.89 7.94t11.17 20.4l3.59 23.21q17.61 5.34 33.67 14.27 16.07 8.93 30.18 21.04l17.47-7.69q12.13-5.07 24.22-1.25 12.09 3.82 19.24 15.13l5.39 8.79q7.56 11.63 5.36 25.05-2.2 13.41-12.75 21.64l-15.2 12.2q4.83 17.77 4.83 35.89t-4.83 35.72l15.2 12.21q10.55 8.39 12.75 21.5 2.2 13.12-5.36 24.59l-5.08 9.06q-6.98 11.37-19.26 15.07-12.29 3.7-23.93-1.7l-18.05-7.36q-13.77 12.61-30.01 21.66-16.23 9.05-33.84 14.4l-3.59 22.13q-1.91 12.62-11.17 20.77-9.26 8.14-21.89 8.14h-9.78q-12.87 0-22.34-8.27-9.47-8.28-11.39-20.9l-2.75-21.87Zm106.79-79.61q27.32-27.43 27.32-65.87 0-38.45-27.32-65.76-27.31-27.32-65.75-27.32-38.45 0-65.88 27.32-27.44 27.31-27.44 65.76 0 38.44 27.44 65.87 27.43 27.44 65.88 27.44 38.44 0 65.75-27.44Z"/></svg>