<svg xmlns="http://www.w3.org/2000/svg" height="48" viewBox="0 -960 960 960" width="48"><path d="M240-728.67h480q15.86 0 27.51 11.64 11.64 11.65 11.64 27.51 0 16.1-11.64 27.12-11.65 11.03-27.51 11.03H240q-15.86 0-27.01-11.03-11.14-11.02-11.14-27.12 0-15.86 11.14-27.51 11.15-11.64 27.01-11.64Zm80-137.55h320q15.86 0 27.51 11.77 11.64 11.76 11.64 27.62 0 15.86-11.64 27.01-11.65 11.15-27.51 11.15H320q-15.86 0-27.01-11.15-11.14-11.15-11.14-27.01 0-15.86 11.14-27.62 11.15-11.77 27.01-11.77ZM204.35-514.07l13.76 88.95q13.76 88.95 40.28 252.55l-54.04-341.5ZM456.09-95.02H225.48q-14.96 0-25.18-9.34-10.21-9.34-12.21-22.57l-69.76-419.05q-3-17.72 7.97-31.55 10.98-13.84 29.94-13.84h648.28q18.2 0 29.3 13.77 11.09 13.77 8.61 31.86l-5.15 32.67q-4.85 0-36.58-.5-31.74-.5-63.18-.5H204.35l54.04 341.5h182.13q-.19 20.96 4.31 40.28 4.5 19.31 11.26 37.27Zm231.39 39.91q-20.24-5-37.5-14.88t-31.26-24.12l-18.33 8.76q-13.24 6-27.01 1.1-13.78-4.89-20.71-17.1l-5.73-8.94q-8.03-11.82-6.15-26.56 1.88-14.74 15.12-24.74l15.81-12.04q-6.24-18.16-6.24-36.58 0-18.42 6.24-37.9l-16.57-11.8q-12-9-14.5-24.12-2.5-15.12 6.5-28.12l4.81-8.92q7.91-11.9 21.55-16.49 13.64-4.59 26.88 1.41l18.33 7.76q14.76-13.24 31.64-22.62 16.88-9.38 37.12-15.38l2.52-23.92q.76-13.17 11.5-22.67 10.74-9.5 24.93-9.5h10.09q12.96 0 23.2 8.5 10.24 8.5 12 22.5l3.76 25.09q19.04 5.91 36.14 15.33 17.1 9.43 32.62 22.67l17.09-7.52q13.24-6.24 26.85-1.24 13.62 5 21.62 17l4.97 7.81q8.03 12.95 6.15 28.19-1.88 15.24-14.12 24L891-248.11q5.24 19.4 5.24 37.82T891-173.63l15.64 12.8q12.4 9.24 14.66 24.1 2.27 14.86-5.73 27.38l-5.57 8.68q-8.15 12.38-22.03 16.85-13.88 4.47-25.64-1.77l-18.09-8.52q-15 14.24-32.4 24.17-17.41 9.92-36.36 14.83l-3.44 23.92q-1.84 14.41-12.2 22.91T736.52.22h-10.09q-14.19 0-24.81-8.38t-12.46-22.78l-1.68-24.17Zm113.78-84.62q29.02-29.14 29.02-70.87 0-41.73-29.02-70.9-29.02-29.17-70.78-29.17-41.76 0-70.9 29.17-29.15 29.17-29.15 70.9 0 41.73 29.15 70.87 29.14 29.14 70.9 29.14 41.76 0 70.78-29.14Z"/></svg>