<svg xmlns="http://www.w3.org/2000/svg" height="24" viewBox="0 -960 960 960" width="24"><path d="M240-678.65h480q7.81 0 13.23 5.42 5.42 5.42 5.42 13.23 0 7.81-5.42 13.04-5.42 5.23-13.23 5.23H240q-7.81 0-13.04-5.23-5.23-5.23-5.23-13.04 0-7.81 5.23-13.23 5.23-5.42 13.04-5.42Zm80-95.39h320q7.81 0 13.23 5.42 5.42 5.43 5.42 13.24 0 7.8-5.42 13.03-5.42 5.23-13.23 5.23H320q-7.81 0-13.04-5.23-5.23-5.23-5.23-13.03 0-7.81 5.23-13.24 5.23-5.42 13.04-5.42ZM214.15-546.35l13.56 84.16q13.56 84.15 38.06 238.92l-51.62-323.08Zm254.23 360H260.92q-11.3 0-19.75-7.21-8.44-7.21-10.05-18.4l-56-335.39q-2.62-13.92 6.21-24.92 8.82-11 23.36-11h555.77q12.23 0 20.02 9.27 7.79 9.27 5.56 21.27l-1.27 6.38H214.15l51.62 323.08h188.92q2.46 10.5 5.94 19.44 3.49 8.95 7.75 17.48ZM686.73-167q-19.42-4.23-36.63-13.06-17.22-8.82-30.14-23.86l-17.65 6.96q-6.23 2.85-12.27 1.04-6.04-1.81-9.46-7.43l-2.5-4.92q-3.93-5.73-3.46-12.25.46-6.52 6.73-11.17l13.07-10.85q-7.11-20.81-7.11-42t7.11-42l-13.07-10.84q-5.5-4.27-6.73-10.93-1.24-6.65 2.69-12.77l3.77-5.04q3.8-5.23 9.4-7.03 5.6-1.81 11.83.65l17.65 7.35q12.16-15.43 29.75-24.06 17.6-8.64 37.02-12.87l1.65-17.5q.97-6.46 6.16-11.25t12.15-4.79h4q6.96 0 12.16 4.66 5.19 4.65 6.15 11.5l2.04 17.38q19.04 4.23 36.69 12.81t30.08 24.12l17.27-7.35q6.23-2.46 12.27-.65 6.03 1.8 9.84 7.03l2.12 4.93q3.92 6.11 3.46 12.63-.46 6.52-6.35 11.18l-13.07 10.84q6.73 20.81 6.73 42t-6.73 42l13.07 10.85q5.12 4.27 6.35 10.92 1.23 6.65-2.69 12.77l-3.77 4.65q-3.81 5.62-9.41 7.43-5.59 1.81-11.82-1.04l-17.27-6.96q-13.31 15.04-30.52 23.86-17.21 8.83-36.25 13.06L729-149.88q-.96 6.84-6.15 11.63-5.2 4.79-12.16 4.79h-4q-6.96 0-12.15-4.65-5.19-4.66-6.16-11.5L686.73-167Zm83.08-56.42q25.04-25.04 25.04-61.12t-25.04-61.11q-25.04-25.04-61.12-25.04-36.07 0-61.11 25.04-25.04 25.03-25.04 61.11t25.04 61.12q25.04 25.04 61.11 25.04 36.08 0 61.12-25.04Z"/></svg>