<svg xmlns="http://www.w3.org/2000/svg" height="24" viewBox="0 -960 960 960" width="24"><path d="M240-722.28h480q17.65 0 30.33 12.67Q763-696.93 763-679.28t-12.67 30.32q-12.68 12.68-30.33 12.68H240q-17.65 0-30.33-12.68Q197-661.63 197-679.28t12.67-30.33q12.68-12.67 30.33-12.67Zm80-131h320q17.65 0 30.33 12.67Q683-827.94 683-810.28q0 17.65-12.67 30.32-12.68 12.68-30.33 12.68H320q-17.65 0-30.33-12.68Q277-792.63 277-810.28q0-17.66 12.67-30.33 12.68-12.67 30.33-12.67Zm-99.83 347.76 13.28 82.99q13.27 82.99 36.81 229.57l-50.09-312.56Zm245.39 398.56H234.48q-15.91 0-28.1-10.06-12.18-10.07-14.66-25.72l-66-398.56q-3.48-19.63 9.06-34.93 12.55-15.29 32.94-15.29h623.56q20.39 0 33.32 15.41 12.92 15.41 9.44 35.05l-6.21 35.78q-3.5 0-34.61-.12t-61.74-.12H220.17l50.09 312.56h174.09q2.08 22.89 7.4 44.39 5.31 21.51 13.81 41.61ZM671.3-82.59q-11.78-4.52-22.43-10.15-10.65-5.63-20.94-13.41l-25.3 8.26q-12.96 4.24-26.03-.5-13.08-4.74-20.06-16.94l-7.97-13.95q-7.48-12.46-5.24-26.78 2.24-14.33 13.45-23.55l19.05-16.04q-2.5-12.78-2.5-25.57 0-12.78 2.5-25.56l-19.05-16.28q-11.21-9.22-13.45-23.18-2.24-13.96 5.24-26.41l8.47-14.46q6.98-11.95 19.69-16.81 12.7-4.86 25.66-.62l25.54 8.26q10.29-7.78 20.94-13.3 10.65-5.51 22.43-10.03l5.27-26.3q2.73-13.96 13.57-22.93 10.84-8.96 25.29-8.96h15.44q14.46 0 25.29 9.09 10.84 9.1 13.58 23.06l5.26 26.04q11.78 4.52 22.68 9.78 10.91 5.27 20.69 13.55l25.3-8.02q12.96-4.24 25.8.5 12.83 4.74 19.81 16.69l8.22 13.96q7.72 12.45 5.36 26.78-2.36 14.33-13.58 23.54l-19.04 16.05q2.5 12.78 2.5 25.56 0 12.79-2.5 25.57l19.04 16.04q11.22 9.22 13.58 23.41 2.36 14.2-5.36 26.66l-8.24 14.21q-6.98 12.2-19.92 16.82-12.95 4.62-25.91.38l-25.06-8.02q-10.28 7.78-20.94 13.41-10.65 5.63-22.43 10.15l-5.26 26.31Q767-42.33 756.16-33.36q-10.83 8.97-25.29 8.97h-15.44q-14.69 0-25.41-9.1t-13.45-23.05l-5.27-26.05Zm107.04-83.32q22.9-23.02 22.9-55.31 0-32.28-22.9-55.18-22.91-22.9-55.19-22.9t-55.3 22.9q-23.02 22.9-23.02 55.18 0 32.29 23.02 55.31 23.02 23.02 55.3 23.02t55.19-23.02Z"/></svg>