<svg xmlns="http://www.w3.org/2000/svg" height="20" viewBox="0 -960 960 960" width="20"><path d="M228-721h504q25.6 0 44.8 19.2Q796-682.6 796-657q0 25.6-19.2 44.8Q757.6-593 732-593H228q-25.6 0-44.8-19.2Q164-631.4 164-657q0-25.6 19.2-44.8Q202.4-721 228-721Zm96-176h312q25.6 0 44.8 19.2Q700-858.6 700-833q0 25.6-19.2 44.8Q661.6-769 636-769H324q-25.6 0-44.8-19.2Q260-807.4 260-833q0-25.6 19.2-44.8Q298.4-897 324-897Zm-54 479 16 69q16 69 38 157l-54-226ZM410-64H271q-23 0-40-15t-22-37l-80-354q-6-30 14-53t49-23h576q30 0 49.5 23.22Q837-499.55 830-469l-9.67 52q-5.33 0-33.33-.5t-58-.5H270l54 226h97q-9 32-12 63.5t1 64.5ZM677 56q-10-2-19-7t-16-12l-29 10q-17 4-32.66-2.07Q564.69 38.86 557 24L546.13 5.23Q538-10 540-27q2-17 15-29l22-20q-2-8.67-2-19.33 0-10.67 2-19.67l-21-20q-12-12-15-28t5-32l11.2-18.67q7.6-15.55 23.2-21.94Q596-242 612-238l29 9q7-8 16.5-13t19.5-6l6-30.28q3-16.72 17-27.22t30.82-10.5h22.36Q770-316 784-306t17 26l7 32q9.18 1.62 19.59 6.31Q838-237 843-229l28-8q17-4 31.5 2.5T925-213l11.87 18.23Q946-180 943-163q-3 17-16 29l-20 18q2 8.67 1.5 19.83Q908-85 906-76l21.33 18.96Q940-44 943-26.5T937 5l-10.2 17.67q-7.6 15.55-23.7 20.94Q887 49 871 45l-29-8q-7 7-16.09 12.19Q816.82 54.38 808 56l-7.67 30.28Q797 103 783.5 113.5 770 124 753.18 124h-23.36Q712 124 699 114t-16.33-26.67L677 56ZM788-50.5q18-18.5 18-45.38 0-26.87-18-45.5Q770-160 743-160t-45.5 18.62Q679-122.75 679-95.88 679-69 697.5-50.5 716-32 743-32t45-18.5Z"/></svg>