<svg xmlns="http://www.w3.org/2000/svg" height="40" viewBox="0 -960 960 960" width="40"><path d="M240-737.67h480q22 0 37.67 15.67 15.66 15.67 15.66 37.67 0 22.66-15.66 37.66-15.67 15-37.67 15H240q-22 0-37.33-15-15.34-15-15.34-37.66 0-22 15.34-37.67Q218-737.67 240-737.67Zm80-160h320q22 0 37.67 16 15.66 16 15.66 38t-15.66 37.34Q662-791 640-791H320q-22 0-37.33-15.33-15.34-15.34-15.34-37.34 0-22 15.34-38 15.33-16 37.33-16ZM681.67 0q-16.67-4-30-11.67-13.34-7.67-25-19.33l-17.34 8.33q-15.66 5.67-31.5.33Q562-27.67 554-42l-7-12.67q-8.67-13.33-6.67-30.5 2-17.16 16.67-28.16l14.67-11.34q-5-15.33-5-30.17 0-14.83 5-31.5l-14.67-11q-13-10.33-15.83-27.16-2.84-16.84 6.5-31.5l6.66-13q8.67-12.67 23.84-18.5 15.16-5.83 30.5-.17l18 7.67q11.66-11 25-18.17 13.33-7.17 30-11.83l2.33-20.33q1.33-16 14.17-26.5 12.83-10.5 29.5-10.5h14.66q15.34 0 27.84 9.83t14.5 25.5l4 22q15 4.66 29.16 11.83Q832-291 843.33-280l16-6.67q15.67-6.33 30.84-.66Q905.33-281.67 914-268l7.33 11q9 14.66 6.84 32.16-2.17 17.5-16.17 27.17l-14.67 11.33q4.34 16.67 4.34 31.5 0 14.84-4.34 30.17l14 11.34Q926-102 928.17-84.5q2.16 17.5-6.84 30.5L915-42q-9.33 14.33-25.5 19.5-16.17 5.16-29.5-1.17L843.33-31q-12.33 11.66-26 19.33Q803.67-4 788.67 0l-3.34 20.33q-2 17.33-14.83 27.17-12.83 9.83-28.17 9.83h-14.66q-17 0-29.34-9.33Q686 38.66 684 21.33L681.67 0Zm115.16-91.67q25.17-25.66 25.17-63 0-37.33-25.17-63-25.16-25.67-62.5-25.67-37.33 0-63 25.67-25.66 25.67-25.66 63 0 37.34 25.66 63Q697-66 734.33-66q37.34 0 62.5-25.67ZM230-64q-20.33 0-35-13.5-14.67-13.5-17.33-30.83l-68-408.67q-3.67-23.67 11.5-42.67 15.16-19 40.16-19h637.34q25.33 0 40.33 19T851-517l-11 61.67q-31.33-9-61.17-13.17-29.83-4.17-63.83-4.17-114.67 0-196.83 78.5-82.17 78.5-97.84 192.5-4.66 34.67-.66 70.17t14 67.5H230Z"/></svg>