<svg xmlns="http://www.w3.org/2000/svg" height="40" viewBox="0 -960 960 960" width="40"><path d="m14-52 197.33-496.67v-46H-7l176.33-314h178.34l176.66 314H306v46L502-52H398.67L306-286v234h-95.67v-232.67L117.33-52H14Zm701.31-166q-59.6 0-103.62-38.83-44.02-38.84-55.17-97.84H456q0-60.52 28-114.26t78.4-89.74q4.93-44 31.43-79.66 26.5-35.67 68.84-50v-220.34h103.66v220q42.34 13.67 68.5 49.84 26.17 36.16 31.84 79.86 49.33 36.3 77.83 89.59Q973-416.1 973-354.67H871q-10.33 59-53.67 97.84Q774-218 715.31-218ZM591.67-442.33h245.66q-6.1-10.72-11.22-22.53-5.11-11.81-15.78-18.47l-37.56-26.5-4.77-47.5q-2.76-20.52-18.01-34.1Q734.74-605 714.67-605q-20.88 0-36.11 14.17-15.23 14.16-17.89 34.5l-4.76 46.5-38.24 26.5q-10.67 6.66-15.52 18.52t-10.48 22.48ZM172-698.33h173.33l-57.69-106h-56.89l-58.75 106ZM714.96-306q21.96 0 39-13.5t24.37-35.17h-127q7.34 21.67 24.49 35.17 17.16 13.5 39.14 13.5ZM714-442.33Zm-455.67-256Z"/></svg>