<svg xmlns="http://www.w3.org/2000/svg" height="20" viewBox="0 -960 960 960" width="20"><path d="m24-64 186-475v-33H-9l163-324h211l163 324H307v33L495-64H391l-83-212v212h-98v-210L127-64H24Zm700.95-190Q675-254 643-290.5T612-378H489q0-56 25-105.45 25-49.46 69.38-83.58Q588-607 612.5-639.5t62.5-44.26V-896h98v211q38 12 62.5 44.5T865-567q45.18 33.52 70.59 82.84Q961-434.85 961-378H837q1 51-31 87.5T724.95-254ZM620-465h211q-5-8-11.83-15.18-6.84-7.18-14.26-13.79l-30.32-23.16L770-556q-5-16-17-28.5T724.52-597q-16.48 0-28.66 11.99T681-556l-4.39 38.74-31.8 23.25Q636-487 629.95-480.28q-6.04 6.72-9.95 15.28ZM165-679h187l-52.35-110H218l-53 110Zm560.33 327q8.67 0 14.17-7.5T743-378h-37q-2 11 4.12 18.5t15.21 7.5Zm.67-113ZM258-679Z"/></svg>