<svg xmlns="http://www.w3.org/2000/svg" height="48" viewBox="0 -960 960 960" width="48"><path d="m62.39-84 171.3-427.85v-101.69h-196L188.54-876h150.08l149.84 262.46H291.08v101.69L463.15-84h-61.61L292.46-354.7V-84h-58.38v-268.08L124.62-84H62.39ZM695.9-239.54q-51.36 0-87.17-34.11-35.81-34.12-42.11-84.58H461.69q0-57.31 27.62-107.57 27.61-50.26 75.5-84.58 4.81-41.7 31.54-75.23 26.73-33.54 69.96-40.88V-876h58.38v207.92q41.85 7.93 69 41.51 27.14 33.58 33.08 75.88 45.57 34.86 74.75 84.41 29.17 49.56 29.17 108.05H823.77q-7.69 50.46-43.08 84.58-35.38 34.11-84.79 34.11ZM534.69-411.61h321.23q-6.94-24.93-21.65-48.92-14.71-23.99-37.5-40.32l-25.34-18.2-2.81-30.64q-4.39-26.54-25.2-45.31-20.81-18.77-48.24-18.77-27.43 0-47.94 18.08-20.51 18.07-23.47 45.61l-3.34 31.03-25.82 17.82q-23.84 16.69-38.5 40.77-14.65 24.08-21.42 48.85ZM136.31-671.92h252.54l-83.81-146.69h-83.26l-85.47 146.69Zm559.86 373.61q24.22 0 41.99-17.15 17.76-17.16 26.76-42.77H626.08q7.23 25.61 25.73 42.77 18.5 17.15 44.36 17.15ZM695-411.61ZM262.39-671.92Z"/></svg>