<svg xmlns="http://www.w3.org/2000/svg" height="40" viewBox="0 -960 960 960" width="40"><path d="m97.85-100 156.3-385.05v-127.1H64.95L207.69-860h142.9l142.74 247.85H303.74v127.1L459.49-100h-53.9l-101.8-249.77V-100h-50.25v-248.7L151.49-100H97.85Zm581.28-149.59q-50.03 0-87.28-31.49-37.26-31.48-47.9-80.89h-89.49q0-55.31 27.25-103.72 27.24-48.41 73.32-81.49 4.61-40.64 31.64-71.64 27.02-31 67.72-38.79V-860h50.25v202.39q40.1 7.79 67.12 38.79 27.01 31 32.01 71.64 45.69 33.08 73.43 81.15 27.75 48.08 27.75 104.06h-91.28q-11.03 49.41-48.07 80.89-37.04 31.49-86.47 31.49Zm0-50.64q27.51 0 48.96-17.54t32.45-44.2H598.28q10.23 26.66 31.49 44.2 21.26 17.54 49.36 17.54Z"/></svg>