<svg xmlns="http://www.w3.org/2000/svg" height="20" viewBox="0 -960 960 960" width="20"><path d="m116.77-116 148.31-368.46v-96.93H71.46L202-844h178.54l130.54 262.61h-195v96.93L465.15-116h-55.46l-93.23-228.93V-116h-52v-228.93L171.23-116h-54.46Zm575.38-167.69q-43.92 0-73.57-29.73-29.66-29.73-31.96-74.04H490q0-49.31 24-92.42 24-43.12 65.08-73.2 3.61-36.23 27.73-63.65 24.11-27.42 59.73-34.96V-844h52v192.31q34.61 7.54 58.42 34.96 23.81 27.42 28.81 63.65 40.69 29.08 65.19 72.2 24.5 43.11 24.5 93.42h-98q-2.69 44.31-32.54 74.04-29.84 29.73-72.77 29.73Zm0-52.39q20.62 0 35.62-14.8 15-14.81 19-36.58H637.69q3.23 21.77 18.04 36.58 14.81 14.8 36.42 14.8Z"/></svg>