<svg xmlns="http://www.w3.org/2000/svg" height="40" viewBox="0 -960 960 960" width="40"><path d="m97.85-100 156.3-385.05v-127.1H64.95L208.03-860h142.56l142.74 247.85H303.74v127.1L459.49-100h-53.9l-101.8-249.77V-100h-50.25v-248.7L151.49-100H97.85Zm581.44-149.59q-50.19 0-87.44-31.49-37.26-31.48-47.9-80.89h-89.49q0-55.31 27.25-103.72 27.24-48.41 73.32-81.68 4.61-40.45 31.64-71.45 27.02-31 67.72-38.79V-860h50.25v202.39q40.1 7.79 67.14 38.82t31.99 71.3q45.69 33.39 73.43 81.42 27.75 48.03 27.75 104.1h-91.28q-11.03 49.41-48.07 80.89-37.04 31.49-86.31 31.49ZM514.36-412.23h329.05q-8.56-25.87-24.68-49.15-16.11-23.29-38.88-40.03l-23.88-16.82-3.23-28.51q-3.18-27.47-24.41-46.06-21.23-18.58-49.15-18.58-27.92 0-49.18 18.4-21.26 18.4-23.54 45.85l-3.61 28.9-23.29 16.43q-23.82 16.75-40.2 40.22-16.39 23.48-25 49.35ZM151.15-662.41h255.98l-85.67-147.33h-84.79l-85.52 147.33Zm528.09 362.18q27.4 0 48.85-17.54 21.45-17.54 32.45-44.2H598.28q10.23 26.66 31.59 44.2 21.36 17.54 49.37 17.54Zm-.73-112ZM278.62-662.41Z"/></svg>