<svg xmlns="http://www.w3.org/2000/svg" height="40" viewBox="0 -960 960 960" width="40"><path d="m49.85-78.67 176.31-442.05v-88.77H27.28l155.75-271.84h155.23l155.07 271.84H293.08v88.77L470.15-78.67h-71.56l-104.46-260.1v260.1h-67.59v-257.69L121.82-78.67H49.85Zm649.13-156.25q-52.54 0-88.97-35.49-36.42-35.49-42.39-87.56H460.8q0-57.98 27.57-108.84 27.58-50.86 75.47-85.55 4.8-42.13 31.49-75.96 26.7-33.83 69.39-42.15v-210.86h67.59v209.38q41.77 8.8 68.97 42.66 27.21 33.86 32.82 76.8 46.24 35.04 75.04 85.42 28.81 50.38 28.81 109.1H829.33q-7.02 52.07-43.23 87.56-36.2 35.49-87.12 35.49ZM547.36-418.56h302.72q-5.61-22.31-19.2-43.06-13.6-20.74-33.7-35.46l-26.95-19.61-3.15-32.72q-4.52-24.8-23.72-42.55-19.21-17.76-44.84-17.76-25.64 0-44.87 17.06-19.23 17.07-21.86 42.87l-3.67 33.1-27.22 19.23q-21.16 15.08-34.71 35.72t-18.83 43.18ZM141.82-677.08H377.8l-78.4-137.66h-77.73l-79.85 137.66ZM699.34-302.9q22.18 0 38.52-15.7 16.35-15.71 24.01-39.37H635.61q6.23 23.66 23.21 39.37 16.98 15.7 40.52 15.7Zm-.83-115.66ZM259.62-677.08Z"/></svg>